<?xml version="1.0" encoding="UTF-8"?>
<svg width="800" height="500" xmlns="http://www.w3.org/2000/svg">
<style>
.axis-line { stroke: #333; stroke-width: 1; }
.grid-line { stroke: #ddd; stroke-width: 0.5; }
.title { font: 16px Arial; text-anchor: middle; fill: #333; }
.axis-label { font: 12px Arial; text-anchor: middle; fill: #666; }
.legend { font: 10px Arial; fill: #333; }
</style>

<!-- Title -->
<text x="400.0" y="25" class="title">Northwestern Energy Generation Data - Past 30 Days</text>

<!-- Plot area background -->
<rect x="80" y="50" width="600" height="370" fill="white" stroke="#ddd"/>

<!-- Y-axis -->
<line x1="80" y1="50" x2="80" y2="420" class="axis-line"/>
<text x="30" y="235.0" class="axis-label" transform="rotate(-90, 30, 235.0)">Generation (MW)</text>

<!-- X-axis -->
<line x1="80" y1="420" x2="680" y2="420" class="axis-line"/>
<text x="380.0" y="480" class="axis-label">Time</text>
<line x1="80" y1="420.0" x2="680" y2="420.0" class="grid-line"/>
<text x="70" y="425.0" class="legend" text-anchor="end">0</text>
<line x1="80" y1="327.5" x2="680" y2="327.5" class="grid-line"/>
<text x="70" y="332.5" class="legend" text-anchor="end">295</text>
<line x1="80" y1="235.0" x2="680" y2="235.0" class="grid-line"/>
<text x="70" y="240.0" class="legend" text-anchor="end">589</text>
<line x1="80" y1="142.5" x2="680" y2="142.5" class="grid-line"/>
<text x="70" y="147.5" class="legend" text-anchor="end">884</text>
<line x1="80" y1="50.0" x2="680" y2="50.0" class="grid-line"/>
<text x="70" y="55.0" class="legend" text-anchor="end">1178</text>
<!-- Wind Generation -->
<path d="M80.0,364.7 L80.8,386.1 L81.7,398.3 L82.5,414.7 L83.4,410.3 L84.2,406.5 L85.0,407.1 L85.9,382.6 L86.7,365.7 L87.6,376.0 L88.4,393.3 L89.3,408.4 L90.1,410.6 L90.9,415.6 L91.8,414.3 L92.6,413.7 L93.5,408.4 L94.3,409.9 L95.1,412.1 L96.0,402.7 L96.8,390.2 L97.7,372.3 L98.5,350.9 L99.4,354.7 L100.2,354.0 L101.0,362.5 L101.9,389.5 L102.7,409.6 L103.6,417.2 L104.4,420.0 L105.2,420.0 L106.1,420.0 L106.9,419.4 L107.8,417.8 L108.6,417.8 L109.5,417.5 L110.3,415.9 L111.1,408.7 L112.0,409.0 L112.8,413.1 L113.7,412.5 L114.5,411.2 L115.3,406.5 L116.2,402.7 L117.0,391.7 L117.9,388.6 L118.7,389.2 L119.6,398.6 L120.4,408.7 L121.2,418.1 L122.1,408.7 L122.9,413.4 L123.8,415.6 L124.6,410.9 L125.4,409.0 L126.3,410.3 L127.1,408.7 L128.0,409.3 L128.8,414.3 L129.6,416.9 L130.5,412.8 L131.3,402.4 L132.2,392.4 L133.0,390.8 L133.9,369.4 L134.7,349.3 L135.5,352.2 L136.4,348.4 L137.2,371.3 L138.1,370.7 L138.9,349.6 L139.7,320.1 L140.6,310.1 L141.4,322.6 L142.3,345.3 L143.1,340.2 L144.0,345.6 L144.8,328.0 L145.6,334.3 L146.5,348.7 L147.3,352.8 L148.2,361.0 L149.0,358.1 L149.8,388.3 L150.7,393.9 L151.5,394.6 L152.4,403.4 L153.2,400.8 L154.1,398.3 L154.9,406.2 L155.7,400.5 L156.6,417.2 L157.4,403.4 L158.3,399.6 L159.1,404.6 L159.9,395.5 L160.8,407.1 L161.6,410.9 L162.5,418.4 L163.3,419.4 L164.2,419.1 L165.0,412.5 L165.8,382.9 L166.7,386.1 L167.5,334.9 L168.4,339.9 L169.2,354.0 L170.0,328.0 L170.9,330.5 L171.7,321.7 L172.6,327.7 L173.4,350.0 L174.2,329.2 L175.1,357.5 L175.9,355.0 L176.8,348.4 L177.6,307.3 L178.5,323.0 L179.3,319.2 L180.1,313.5 L181.0,303.5 L181.8,320.1 L182.7,330.5 L183.5,320.1 L184.3,311.0 L185.2,305.1 L186.0,310.7 L186.9,296.3 L187.7,300.0 L188.6,305.1 L189.4,302.9 L190.2,342.4 L191.1,339.9 L191.9,329.9 L192.8,308.5 L193.6,318.6 L194.4,311.3 L195.3,313.8 L196.1,306.9 L197.0,315.7 L197.8,304.7 L198.7,329.2 L199.5,339.6 L200.3,344.0 L201.2,352.8 L202.0,355.0 L202.9,355.0 L203.7,335.5 L204.5,339.6 L205.4,355.6 L206.2,331.7 L207.1,354.7 L207.9,335.2 L208.8,338.7 L209.6,355.3 L210.4,387.7 L211.3,386.4 L212.1,370.7 L213.0,375.7 L213.8,374.5 L214.6,328.6 L215.5,353.4 L216.3,344.0 L217.2,371.0 L218.0,344.6 L218.8,381.7 L219.7,373.5 L220.5,333.6 L221.4,348.1 L222.2,335.8 L223.1,340.9 L223.9,331.1 L224.7,325.8 L225.6,335.8 L226.4,348.7 L227.3,318.2 L228.1,332.7 L228.9,327.0 L229.8,339.3 L230.6,333.3 L231.5,315.4 L232.3,335.8 L233.2,333.3 L234.0,347.1 L234.8,364.1 L235.7,384.8 L236.5,388.9 L237.4,377.0 L238.2,355.9 L239.0,333.6 L239.9,333.3 L240.7,344.6 L241.6,339.0 L242.4,328.6 L243.3,321.1 L244.1,340.2 L244.9,355.9 L245.8,364.7 L246.6,346.8 L247.5,334.9 L248.3,348.7 L249.1,355.0 L250.0,350.0 L250.8,352.2 L251.7,357.8 L252.5,362.5 L253.4,350.3 L254.2,366.3 L255.0,333.3 L255.9,345.9 L256.7,371.6 L257.6,341.5 L258.4,342.7 L259.2,365.7 L260.1,354.0 L260.9,377.9 L261.8,387.0 L262.6,393.0 L263.5,389.2 L264.3,388.3 L265.1,374.1 L266.0,352.8 L266.8,351.8 L267.7,339.6 L268.5,337.1 L269.3,334.9 L270.2,364.4 L271.0,333.6 L271.9,361.6 L272.7,362.5 L273.5,365.0 L274.4,360.0 L275.2,357.8 L276.1,361.6 L276.9,363.5 L277.8,364.4 L278.6,379.8 L279.4,398.0 L280.3,398.3 L281.1,406.2 L282.0,411.2 L282.8,412.8 L283.6,400.8 L284.5,388.6 L285.3,394.9 L286.2,387.3 L287.0,375.1 L287.9,381.1 L288.7,360.3 L289.5,394.2 L290.4,391.1 L291.2,384.2 L292.1,384.8 L292.9,388.9 L293.7,383.9 L294.6,364.1 L295.4,377.0 L296.3,366.0 L297.1,360.0 L298.0,360.3 L298.8,366.3 L299.6,384.8 L300.5,400.5 L301.3,409.9 L302.2,408.1 L303.0,397.7 L303.8,394.2 L304.7,392.4 L305.5,389.2 L306.4,366.9 L307.2,361.3 L308.1,353.4 L308.9,371.6 L309.7,377.9 L310.6,380.4 L311.4,384.5 L312.3,383.3 L313.1,393.6 L313.9,388.6 L314.8,371.6 L315.6,364.7 L316.5,359.4 L317.3,367.6 L318.1,393.9 L319.0,408.7 L319.8,414.3 L320.7,417.8 L321.5,411.8 L322.4,417.5 L323.2,417.8 L324.0,415.3 L324.9,410.6 L325.7,396.4 L326.6,398.6 L327.4,400.2 L328.2,401.2 L329.1,401.5 L329.9,402.4 L330.8,409.3 L331.6,419.7 L332.5,420.0 L333.3,418.4 L334.1,414.0 L335.0,411.2 L335.8,407.4 L336.7,400.5 L337.5,377.9 L338.3,368.2 L339.2,367.9 L340.0,405.9 L340.9,403.7 L341.7,387.7 L342.6,395.8 L343.4,400.5 L344.2,399.6 L345.1,405.9 L345.9,411.2 L346.8,397.4 L347.6,389.8 L348.4,387.0 L349.3,394.9 L350.1,387.3 L351.0,376.0 L351.8,364.4 L352.7,348.1 L353.5,341.2 L354.3,340.9 L355.2,400.8 L356.0,364.4 L356.9,347.8 L357.7,350.3 L358.5,351.5 L359.4,351.2 L360.2,323.6 L361.1,293.1 L361.9,293.4 L362.7,299.4 L363.6,303.8 L364.4,302.2 L365.3,311.3 L366.1,317.9 L367.0,310.4 L367.8,319.2 L368.6,318.6 L369.5,327.0 L370.3,329.2 L371.2,349.6 L372.0,362.8 L372.8,363.8 L373.7,350.6 L374.5,375.1 L375.4,377.9 L376.2,377.6 L377.1,357.2 L377.9,387.7 L378.7,382.3 L379.6,383.6 L380.4,339.0 L381.3,367.6 L382.1,371.0 L382.9,352.8 L383.8,359.4 L384.6,376.3 L385.5,367.9 L386.3,341.5 L387.2,336.1 L388.0,325.2 L388.8,328.0 L389.7,323.3 L390.5,311.3 L391.4,306.0 L392.2,318.2 L393.0,333.0 L393.9,335.2 L394.7,339.6 L395.6,353.4 L396.4,338.0 L397.3,316.7 L398.1,328.3 L398.9,323.3 L399.8,326.7 L400.6,337.4 L401.5,344.3 L402.3,341.2 L403.1,338.0 L404.0,363.2 L404.8,393.0 L405.7,396.4 L406.5,385.1 L407.3,379.5 L408.2,380.7 L409.0,385.1 L409.9,394.2 L410.7,402.7 L411.6,415.3 L412.4,409.0 L413.2,403.4 L414.1,409.6 L414.9,404.9 L415.8,396.1 L416.6,397.7 L417.4,403.0 L418.3,409.6 L419.1,407.1 L420.0,408.7 L420.8,407.1 L421.7,386.7 L422.5,385.8 L423.3,383.6 L424.2,377.0 L425.0,369.1 L425.9,373.2 L426.7,381.7 L427.5,393.0 L428.4,404.9 L429.2,411.8 L430.1,414.7 L430.9,403.4 L431.8,393.9 L432.6,390.5 L433.4,383.6 L434.3,370.4 L435.1,400.2 L436.0,405.2 L436.8,399.6 L437.6,402.4 L438.5,401.2 L439.3,371.3 L440.2,376.3 L441.0,372.9 L441.9,373.5 L442.7,370.1 L443.5,366.9 L444.4,376.7 L445.2,385.1 L446.1,393.0 L446.9,403.0 L447.7,412.1 L448.6,408.4 L449.4,412.1 L450.3,414.0 L451.1,416.9 L451.9,415.9 L452.8,417.5 L453.6,417.5 L454.5,415.0 L455.3,415.0 L456.2,418.7 L457.0,420.0 L457.8,420.0 L458.7,419.7 L459.5,419.1 L460.4,418.4 L461.2,414.3 L462.0,413.7 L462.9,407.4 L463.7,411.5 L464.6,416.2 L465.4,417.5 L466.3,414.7 L467.1,414.7 L467.9,408.1 L468.8,404.3 L469.6,394.2 L470.5,383.6 L471.3,387.7 L472.1,390.8 L473.0,386.4 L473.8,388.9 L474.7,380.1 L475.5,383.6 L476.4,365.4 L477.2,382.0 L478.0,384.8 L478.9,398.6 L479.7,403.7 L480.6,400.2 L481.4,409.6 L482.2,409.3 L483.1,410.3 L483.9,406.2 L484.8,391.7 L485.6,398.0 L486.5,392.4 L487.3,374.1 L488.1,363.5 L489.0,347.1 L489.8,382.3 L490.7,385.5 L491.5,393.9 L492.3,393.9 L493.2,383.6 L494.0,388.0 L494.9,378.2 L495.7,385.1 L496.5,379.8 L497.4,376.0 L498.2,386.7 L499.1,374.1 L499.9,375.1 L500.8,382.9 L501.6,388.9 L502.4,409.0 L503.3,413.7 L504.1,415.6 L505.0,412.1 L505.8,411.2 L506.6,403.4 L507.5,398.6 L508.3,401.8 L509.2,393.6 L510.0,399.3 L510.9,391.7 L511.7,399.0 L512.5,407.4 L513.4,407.1 L514.2,382.9 L515.1,372.9 L515.9,381.4 L516.7,381.1 L517.6,394.9 L518.4,392.7 L519.3,391.4 L520.1,397.1 L521.0,397.7 L521.8,408.1 L522.6,413.1 L523.5,416.2 L524.3,412.1 L525.2,408.1 L526.0,407.1 L526.8,405.2 L527.7,400.2 L528.5,389.5 L529.4,376.0 L530.2,371.9 L531.1,374.5 L531.9,379.8 L532.7,384.5 L533.6,382.6 L534.4,392.0 L535.3,396.1 L536.1,399.0 L536.9,399.0 L537.8,401.5 L538.6,402.4 L539.5,400.8 L540.3,398.3 L541.2,394.9 L542.0,403.0 L542.8,408.4 L543.7,406.2 L544.5,407.1 L545.4,390.8 L546.2,397.1 L547.0,392.7 L547.9,388.3 L548.7,386.7 L549.6,353.4 L550.4,358.8 L551.2,348.1 L552.1,369.4 L552.9,378.9 L553.8,386.7 L554.6,396.4 L555.5,403.4 L556.3,406.8 L557.1,403.4 L558.0,389.5 L558.8,398.0 L559.7,392.0 L560.5,391.1 L561.3,394.9 L562.2,398.3 L563.0,398.0 L563.9,392.7 L564.7,402.7 L565.6,388.0 L566.4,416.9 L567.2,415.6 L568.1,416.9 L568.9,416.9 L569.8,415.9 L570.6,412.8 L571.4,413.1 L572.3,415.6 L573.1,416.9 L574.0,413.7 L574.8,408.4 L575.7,396.8 L576.5,379.2 L577.3,388.3 L578.2,377.3 L579.0,366.9 L579.9,369.4 L580.7,359.1 L581.5,355.0 L582.4,377.6 L583.2,364.7 L584.1,376.3 L584.9,391.7 L585.8,392.0 L586.6,384.5 L587.4,351.8 L588.3,324.5 L589.1,343.4 L590.0,352.2 L590.8,381.1 L591.6,381.4 L592.5,376.7 L593.3,395.2 L594.2,387.0 L595.0,388.3 L595.8,381.7 L596.7,371.6 L597.5,368.8 L598.4,358.8 L599.2,344.6 L600.1,339.6 L600.9,333.6 L601.7,346.2 L602.6,357.2 L603.4,379.2 L604.3,373.5 L605.1,358.8 L605.9,376.3 L606.8,385.1 L607.6,395.2 L608.5,408.1 L609.3,408.1 L610.2,406.5 L611.0,403.7 L611.8,399.3 L612.7,397.7 L613.5,384.5 L614.4,376.7 L615.2,371.6 L616.0,370.1 L616.9,348.1 L617.7,343.7 L618.6,351.2 L619.4,356.6 L620.3,345.3 L621.1,356.6 L621.9,362.2 L622.8,377.0 L623.6,400.8 L624.5,403.0 L625.3,407.1 L626.1,416.2 L627.0,415.3 L627.8,411.8 L628.7,408.1 L629.5,403.0 L630.4,389.2 L631.2,383.6 L632.0,380.4 L632.9,390.5 L633.7,378.2 L634.6,371.0 L635.4,376.3 L636.2,370.7 L637.1,367.2 L637.9,368.2 L638.8,359.7 L639.6,364.4 L640.4,366.0 L641.3,346.5 L642.1,362.8 L643.0,353.7 L643.8,371.3 L644.7,386.7 L645.5,379.8 L646.3,359.1 L647.2,339.9 L648.0,315.4 L648.9,315.7 L649.7,324.8 L650.5,340.5 L651.4,334.6 L652.2,350.6 L653.1,378.2 L653.9,394.9 L654.8,405.9 L655.6,366.3 L656.4,368.8 L657.3,382.6 L658.1,386.4 L659.0,385.8 L659.8,371.6 L660.6,386.4 L661.5,383.3 L662.3,388.9 L663.2,399.3 L664.0,390.5 L664.9,389.5 L665.7,400.2 L666.5,398.6 L667.4,395.8 L668.2,378.5 L669.1,389.2 L669.9,389.5 L670.7,399.6 L671.6,401.5 L672.4,404.0 L673.3,412.1 L674.1,412.5 L675.0,405.6 L675.8,394.2 L676.6,390.2 L677.5,378.5 L678.3,368.2 L679.2,366.9 L680.0,364.1" stroke="#1f77b4" stroke-width="2" fill="none" opacity="0.8"/>
<!-- Hydro Generation -->
<path d="M80.0,338.7 L80.8,338.7 L81.7,338.7 L82.5,338.7 L83.4,339.0 L84.2,338.7 L85.0,338.7 L85.9,338.3 L86.7,338.3 L87.6,338.3 L88.4,339.3 L89.3,338.7 L90.1,339.9 L90.9,339.9 L91.8,339.3 L92.6,339.3 L93.5,339.9 L94.3,337.7 L95.1,337.7 L96.0,337.7 L96.8,338.0 L97.7,338.0 L98.5,338.0 L99.4,338.0 L100.2,337.7 L101.0,337.7 L101.9,338.0 L102.7,337.7 L103.6,338.3 L104.4,338.3 L105.2,339.0 L106.1,339.0 L106.9,338.0 L107.8,338.3 L108.6,338.3 L109.5,340.5 L110.3,340.2 L111.1,340.2 L112.0,340.2 L112.8,340.9 L113.7,340.9 L114.5,340.9 L115.3,340.2 L116.2,339.3 L117.0,339.6 L117.9,339.0 L118.7,339.0 L119.6,339.3 L120.4,339.0 L121.2,339.0 L122.1,339.0 L122.9,339.0 L123.8,339.0 L124.6,339.0 L125.4,339.3 L126.3,339.0 L127.1,339.3 L128.0,339.6 L128.8,340.5 L129.6,340.5 L130.5,340.2 L131.3,339.9 L132.2,340.2 L133.0,339.6 L133.9,339.0 L134.7,339.3 L135.5,338.0 L136.4,337.7 L137.2,337.7 L138.1,338.3 L138.9,338.3 L139.7,338.3 L140.6,338.3 L141.4,338.3 L142.3,338.3 L143.1,338.3 L144.0,338.0 L144.8,338.3 L145.6,338.0 L146.5,338.0 L147.3,338.3 L148.2,339.3 L149.0,339.6 L149.8,339.6 L150.7,339.6 L151.5,339.3 L152.4,338.0 L153.2,338.0 L154.1,338.0 L154.9,337.1 L155.7,337.4 L156.6,337.1 L157.4,337.1 L158.3,337.4 L159.1,338.0 L159.9,338.3 L160.8,338.3 L161.6,338.3 L162.5,337.1 L163.3,337.1 L164.2,337.4 L165.0,336.5 L165.8,336.5 L166.7,336.5 L167.5,336.1 L168.4,337.7 L169.2,338.0 L170.0,337.7 L170.9,336.8 L171.7,350.3 L172.6,350.0 L173.4,349.6 L174.2,349.6 L175.1,349.6 L175.9,350.0 L176.8,350.3 L177.6,349.6 L178.5,336.1 L179.3,336.5 L180.1,336.5 L181.0,336.8 L181.8,336.5 L182.7,336.5 L183.5,336.8 L184.3,336.5 L185.2,336.5 L186.0,336.5 L186.9,336.8 L187.7,335.8 L188.6,337.7 L189.4,340.5 L190.2,340.5 L191.1,340.5 L191.9,340.9 L192.8,339.9 L193.6,340.2 L194.4,339.9 L195.3,340.5 L196.1,340.9 L197.0,341.2 L197.8,340.9 L198.7,341.2 L199.5,340.9 L200.3,340.5 L201.2,341.2 L202.0,340.2 L202.9,339.9 L203.7,339.9 L204.5,340.2 L205.4,339.6 L206.2,339.6 L207.1,339.9 L207.9,338.7 L208.8,339.0 L209.6,339.3 L210.4,339.6 L211.3,339.9 L212.1,339.9 L213.0,340.2 L213.8,339.9 L214.6,340.5 L215.5,339.9 L216.3,340.9 L217.2,341.2 L218.0,340.9 L218.8,341.5 L219.7,341.2 L220.5,341.5 L221.4,342.7 L222.2,342.4 L223.1,342.7 L223.9,341.2 L224.7,340.9 L225.6,340.5 L226.4,339.6 L227.3,339.6 L228.1,339.0 L228.9,339.0 L229.8,339.3 L230.6,339.0 L231.5,339.0 L232.3,339.0 L233.2,339.0 L234.0,340.2 L234.8,339.6 L235.7,339.6 L236.5,339.6 L237.4,339.6 L238.2,342.4 L239.0,344.0 L239.9,344.0 L240.7,344.6 L241.6,344.6 L242.4,344.3 L243.3,342.7 L244.1,342.1 L244.9,342.4 L245.8,341.8 L246.6,341.8 L247.5,341.8 L248.3,341.5 L249.1,341.8 L250.0,341.5 L250.8,341.2 L251.7,341.2 L252.5,339.9 L253.4,339.9 L254.2,339.6 L255.0,340.2 L255.9,339.9 L256.7,340.2 L257.6,340.5 L258.4,327.7 L259.2,328.0 L260.1,328.3 L260.9,327.7 L261.8,327.4 L262.6,327.4 L263.5,327.0 L264.3,327.0 L265.1,327.7 L266.0,327.7 L266.8,327.7 L267.7,327.7 L268.5,328.0 L269.3,328.0 L270.2,327.7 L271.0,327.7 L271.9,327.4 L272.7,327.4 L273.5,327.7 L274.4,354.7 L275.2,361.6 L276.1,361.3 L276.9,361.6 L277.8,362.5 L278.6,347.8 L279.4,327.4 L280.3,328.0 L281.1,328.3 L282.0,328.3 L282.8,328.6 L283.6,328.6 L284.5,328.6 L285.3,328.0 L286.2,327.7 L287.0,327.0 L287.9,327.0 L288.7,327.0 L289.5,327.4 L290.4,327.4 L291.2,327.4 L292.1,349.6 L292.9,349.6 L293.7,350.0 L294.6,349.6 L295.4,350.0 L296.3,350.0 L297.1,350.0 L298.0,328.3 L298.8,328.0 L299.6,328.0 L300.5,328.9 L301.3,328.9 L302.2,328.6 L303.0,328.9 L303.8,328.9 L304.7,328.9 L305.5,328.9 L306.4,328.9 L307.2,328.9 L308.1,328.9 L308.9,328.9 L309.7,329.5 L310.6,330.8 L311.4,332.4 L312.3,334.3 L313.1,332.7 L313.9,332.7 L314.8,332.4 L315.6,332.7 L316.5,332.1 L317.3,330.5 L318.1,330.5 L319.0,330.2 L319.8,330.5 L320.7,331.1 L321.5,330.8 L322.4,331.1 L323.2,331.1 L324.0,331.1 L324.9,331.1 L325.7,331.1 L326.6,331.1 L327.4,331.1 L328.2,330.8 L329.1,331.1 L329.9,331.1 L330.8,330.8 L331.6,330.8 L332.5,330.8 L333.3,331.4 L334.1,332.1 L335.0,335.5 L335.8,332.7 L336.7,332.7 L337.5,332.7 L338.3,332.7 L339.2,332.7 L340.0,332.1 L340.9,332.1 L341.7,332.1 L342.6,332.4 L343.4,332.4 L344.2,332.4 L345.1,332.4 L345.9,332.1 L346.8,332.1 L347.6,332.1 L348.4,331.7 L349.3,332.4 L350.1,332.1 L351.0,330.8 L351.8,330.8 L352.7,333.3 L353.5,331.4 L354.3,331.1 L355.2,331.1 L356.0,331.4 L356.9,331.1 L357.7,331.4 L358.5,331.4 L359.4,331.1 L360.2,331.7 L361.1,331.7 L361.9,333.0 L362.7,332.1 L363.6,332.4 L364.4,333.3 L365.3,333.3 L366.1,333.3 L367.0,333.3 L367.8,333.6 L368.6,333.6 L369.5,333.0 L370.3,333.0 L371.2,332.4 L372.0,332.1 L372.8,332.1 L373.7,332.1 L374.5,331.4 L375.4,332.1 L376.2,332.1 L377.1,332.1 L377.9,332.1 L378.7,330.8 L379.6,330.8 L380.4,330.8 L381.3,330.8 L382.1,330.8 L382.9,330.5 L383.8,330.8 L384.6,330.8 L385.5,330.5 L386.3,330.8 L387.2,330.8 L388.0,330.8 L388.8,331.4 L389.7,331.4 L390.5,332.1 L391.4,331.4 L392.2,331.7 L393.0,333.6 L393.9,331.4 L394.7,331.4 L395.6,331.7 L396.4,331.1 L397.3,331.7 L398.1,331.4 L398.9,330.2 L399.8,329.9 L400.6,330.2 L401.5,329.2 L402.3,329.2 L403.1,327.7 L404.0,328.0 L404.8,327.7 L405.7,327.7 L406.5,326.7 L407.3,327.0 L408.2,326.7 L409.0,326.7 L409.9,326.4 L410.7,328.0 L411.6,328.3 L412.4,328.0 L413.2,328.0 L414.1,327.7 L414.9,328.9 L415.8,328.6 L416.6,328.9 L417.4,328.3 L418.3,328.9 L419.1,329.5 L420.0,329.5 L420.8,328.9 L421.7,329.2 L422.5,329.2 L423.3,329.2 L424.2,329.2 L425.0,329.2 L425.9,329.2 L426.7,329.2 L427.5,329.2 L428.4,329.2 L429.2,329.2 L430.1,329.9 L430.9,329.9 L431.8,329.9 L432.6,329.9 L433.4,329.9 L434.3,329.9 L435.1,330.8 L436.0,330.2 L436.8,330.8 L437.6,330.8 L438.5,330.8 L439.3,331.4 L440.2,331.1 L441.0,331.7 L441.9,331.7 L442.7,332.1 L443.5,331.7 L444.4,331.7 L445.2,331.7 L446.1,331.7 L446.9,330.8 L447.7,330.8 L448.6,331.1 L449.4,331.1 L450.3,330.8 L451.1,330.8 L451.9,331.1 L452.8,331.1 L453.6,331.1 L454.5,330.8 L455.3,330.8 L456.2,332.4 L457.0,332.7 L457.8,331.7 L458.7,332.7 L459.5,331.4 L460.4,330.8 L461.2,330.8 L462.0,331.1 L462.9,331.4 L463.7,332.4 L464.6,332.4 L465.4,332.4 L466.3,332.1 L467.1,331.7 L467.9,331.7 L468.8,332.1 L469.6,331.7 L470.5,331.7 L471.3,331.7 L472.1,331.7 L473.0,331.4 L473.8,331.4 L474.7,344.3 L475.5,344.3 L476.4,344.6 L477.2,344.3 L478.0,344.6 L478.9,332.1 L479.7,332.1 L480.6,331.7 L481.4,331.7 L482.2,331.7 L483.1,331.1 L483.9,331.4 L484.8,331.4 L485.6,331.4 L486.5,331.7 L487.3,331.7 L488.1,331.4 L489.0,331.4 L489.8,331.4 L490.7,331.7 L491.5,331.7 L492.3,332.1 L493.2,331.4 L494.0,331.4 L494.9,332.7 L495.7,332.7 L496.5,333.9 L497.4,334.3 L498.2,334.3 L499.1,332.1 L499.9,332.4 L500.8,332.4 L501.6,332.4 L502.4,332.4 L503.3,332.4 L504.1,332.1 L505.0,332.1 L505.8,332.1 L506.6,331.7 L507.5,331.7 L508.3,332.4 L509.2,332.7 L510.0,332.7 L510.9,333.3 L511.7,333.3 L512.5,333.3 L513.4,335.2 L514.2,344.6 L515.1,344.6 L515.9,332.7 L516.7,333.3 L517.6,334.6 L518.4,333.3 L519.3,333.3 L520.1,333.0 L521.0,333.0 L521.8,332.7 L522.6,332.7 L523.5,332.7 L524.3,332.7 L525.2,332.4 L526.0,332.7 L526.8,332.7 L527.7,334.3 L528.5,345.3 L529.4,332.7 L530.2,333.0 L531.1,331.4 L531.9,331.1 L532.7,331.1 L533.6,331.1 L534.4,331.1 L535.3,330.8 L536.1,331.4 L536.9,331.7 L537.8,333.0 L538.6,332.7 L539.5,333.0 L540.3,333.9 L541.2,333.9 L542.0,334.9 L542.8,334.9 L543.7,335.8 L544.5,335.8 L545.4,335.8 L546.2,335.8 L547.0,335.8 L547.9,335.8 L548.7,336.1 L549.6,335.8 L550.4,335.8 L551.2,335.8 L552.1,335.8 L552.9,335.8 L553.8,336.1 L554.6,336.1 L555.5,336.1 L556.3,336.1 L557.1,335.8 L558.0,336.1 L558.8,335.8 L559.7,335.8 L560.5,335.8 L561.3,334.9 L562.2,333.6 L563.0,333.6 L563.9,333.6 L564.7,332.7 L565.6,332.7 L566.4,332.7 L567.2,333.0 L568.1,333.0 L568.9,332.7 L569.8,333.6 L570.6,333.6 L571.4,334.6 L572.3,334.6 L573.1,334.3 L574.0,333.9 L574.8,333.9 L575.7,333.9 L576.5,330.8 L577.3,333.9 L578.2,333.9 L579.0,334.3 L579.9,334.3 L580.7,333.9 L581.5,333.9 L582.4,334.3 L583.2,334.6 L584.1,333.6 L584.9,333.6 L585.8,333.6 L586.6,333.6 L587.4,333.6 L588.3,333.6 L589.1,333.6 L590.0,334.9 L590.8,334.9 L591.6,334.9 L592.5,334.9 L593.3,334.9 L594.2,334.9 L595.0,334.9 L595.8,334.9 L596.7,334.9 L597.5,335.2 L598.4,334.9 L599.2,334.6 L600.1,335.2 L600.9,334.9 L601.7,334.9 L602.6,334.9 L603.4,334.9 L604.3,334.9 L605.1,335.5 L605.9,335.5 L606.8,335.8 L607.6,335.5 L608.5,335.5 L609.3,335.5 L610.2,335.2 L611.0,335.8 L611.8,335.2 L612.7,335.2 L613.5,336.1 L614.4,335.5 L615.2,335.8 L616.0,335.8 L616.9,336.1 L617.7,335.8 L618.6,335.5 L619.4,335.2 L620.3,335.2 L621.1,335.5 L621.9,335.5 L622.8,335.5 L623.6,335.5 L624.5,335.5 L625.3,335.5 L626.1,335.5 L627.0,335.5 L627.8,335.5 L628.7,335.5 L629.5,335.2 L630.4,335.2 L631.2,334.9 L632.0,334.9 L632.9,335.2 L633.7,335.2 L634.6,335.2 L635.4,334.9 L636.2,334.9 L637.1,334.9 L637.9,335.2 L638.8,335.2 L639.6,333.6 L640.4,333.9 L641.3,333.0 L642.1,333.0 L643.0,334.3 L643.8,334.3 L644.7,332.7 L645.5,332.1 L646.3,332.4 L647.2,332.4 L648.0,332.4 L648.9,332.7 L649.7,332.7 L650.5,333.3 L651.4,333.6 L652.2,333.6 L653.1,332.4 L653.9,332.4 L654.8,332.1 L655.6,330.5 L656.4,332.1 L657.3,330.2 L658.1,330.5 L659.0,330.2 L659.8,331.1 L660.6,330.8 L661.5,331.7 L662.3,331.1 L663.2,331.4 L664.0,331.4 L664.9,331.4 L665.7,331.4 L666.5,331.7 L667.4,331.4 L668.2,331.7 L669.1,330.8 L669.9,331.1 L670.7,330.8 L671.6,331.1 L672.4,330.8 L673.3,331.4 L674.1,331.1 L675.0,330.8 L675.8,331.7 L676.6,331.7 L677.5,331.7 L678.3,331.7 L679.2,331.7 L680.0,331.7" stroke="#ff7f0e" stroke-width="2" fill="none" opacity="0.8"/>
<!-- Thermal Generation -->
<path d="M80.0,238.2 L80.8,239.1 L81.7,238.2 L82.5,242.9 L83.4,245.4 L84.2,248.2 L85.0,242.2 L85.9,242.9 L86.7,228.7 L87.6,216.8 L88.4,246.3 L89.3,261.4 L90.1,262.7 L90.9,282.1 L91.8,292.5 L92.6,305.4 L93.5,314.8 L94.3,312.9 L95.1,312.6 L96.0,315.1 L96.8,242.6 L97.7,219.3 L98.5,238.8 L99.4,245.1 L100.2,309.8 L101.0,308.5 L101.9,333.3 L102.7,267.4 L103.6,255.1 L104.4,236.6 L105.2,227.2 L106.1,218.4 L106.9,219.0 L107.8,216.2 L108.6,219.0 L109.5,220.6 L110.3,218.7 L111.1,237.2 L112.0,239.1 L112.8,251.3 L113.7,298.8 L114.5,271.8 L115.3,311.3 L116.2,302.5 L117.0,246.6 L117.9,221.2 L118.7,218.1 L119.6,236.3 L120.4,229.7 L121.2,241.3 L122.1,292.2 L122.9,292.5 L123.8,305.1 L124.6,304.4 L125.4,304.7 L126.3,304.4 L127.1,289.3 L128.0,301.6 L128.8,352.2 L129.6,339.6 L130.5,351.5 L131.3,352.2 L132.2,353.4 L133.0,353.1 L133.9,350.3 L134.7,351.5 L135.5,352.2 L136.4,352.5 L137.2,348.7 L138.1,313.8 L138.9,290.0 L139.7,289.3 L140.6,336.5 L141.4,351.5 L142.3,351.5 L143.1,351.2 L144.0,350.6 L144.8,350.9 L145.6,350.6 L146.5,350.9 L147.3,351.8 L148.2,350.0 L149.0,352.5 L149.8,351.2 L150.7,352.2 L151.5,336.8 L152.4,339.9 L153.2,339.6 L154.1,314.8 L154.9,317.9 L155.7,299.7 L156.6,289.7 L157.4,289.7 L158.3,305.1 L159.1,306.9 L159.9,308.2 L160.8,306.9 L161.6,351.8 L162.5,351.8 L163.3,352.2 L164.2,351.5 L165.0,352.2 L165.8,351.2 L166.7,351.2 L167.5,352.2 L168.4,352.5 L169.2,352.2 L170.0,351.5 L170.9,353.1 L171.7,352.5 L172.6,352.2 L173.4,352.5 L174.2,343.7 L175.1,333.3 L175.9,333.9 L176.8,348.1 L177.6,352.5 L178.5,351.8 L179.3,352.5 L180.1,351.8 L181.0,352.5 L181.8,352.2 L182.7,352.2 L183.5,351.8 L184.3,351.5 L185.2,351.5 L186.0,351.2 L186.9,351.2 L187.7,351.8 L188.6,334.6 L189.4,333.9 L190.2,316.4 L191.1,344.0 L191.9,330.2 L192.8,334.6 L193.6,334.3 L194.4,350.6 L195.3,350.0 L196.1,350.0 L197.0,352.5 L197.8,352.2 L198.7,337.7 L199.5,340.2 L200.3,345.3 L201.2,339.6 L202.0,333.9 L202.9,333.6 L203.7,352.2 L204.5,351.8 L205.4,351.8 L206.2,352.5 L207.1,339.6 L207.9,340.2 L208.8,311.6 L209.6,329.5 L210.4,352.5 L211.3,352.5 L212.1,352.8 L213.0,353.1 L213.8,352.8 L214.6,352.8 L215.5,352.5 L216.3,352.5 L217.2,352.5 L218.0,352.5 L218.8,320.4 L219.7,322.0 L220.5,290.0 L221.4,302.9 L222.2,327.4 L223.1,352.5 L223.9,352.2 L224.7,352.2 L225.6,352.2 L226.4,352.8 L227.3,352.2 L228.1,327.0 L228.9,305.7 L229.8,328.0 L230.6,327.4 L231.5,339.6 L232.3,351.8 L233.2,352.2 L234.0,352.5 L234.8,352.5 L235.7,352.2 L236.5,352.2 L237.4,352.2 L238.2,352.2 L239.0,353.1 L239.9,353.1 L240.7,352.2 L241.6,352.2 L242.4,340.2 L243.3,352.8 L244.1,352.2 L244.9,351.8 L245.8,351.8 L246.6,352.5 L247.5,352.8 L248.3,333.3 L249.1,318.2 L250.0,317.9 L250.8,318.6 L251.7,333.9 L252.5,352.8 L253.4,352.2 L254.2,353.1 L255.0,352.5 L255.9,352.2 L256.7,352.2 L257.6,352.2 L258.4,351.8 L259.2,307.3 L260.1,325.2 L260.9,312.9 L261.8,309.1 L262.6,306.3 L263.5,312.3 L264.3,321.7 L265.1,325.5 L266.0,325.8 L266.8,336.8 L267.7,352.2 L268.5,339.6 L269.3,335.8 L270.2,336.5 L271.0,352.2 L271.9,351.8 L272.7,352.2 L273.5,352.5 L274.4,352.8 L275.2,352.2 L276.1,352.2 L276.9,351.8 L277.8,352.8 L278.6,352.2 L279.4,337.4 L280.3,307.6 L281.1,307.9 L282.0,310.7 L282.8,317.9 L283.6,314.8 L284.5,344.3 L285.3,347.8 L286.2,352.5 L287.0,351.8 L287.9,351.8 L288.7,352.2 L289.5,351.5 L290.4,345.3 L291.2,351.8 L292.1,351.5 L292.9,351.8 L293.7,351.2 L294.6,351.5 L295.4,351.2 L296.3,351.8 L297.1,352.5 L298.0,352.2 L298.8,315.7 L299.6,300.0 L300.5,267.4 L301.3,245.4 L302.2,243.8 L303.0,242.9 L303.8,281.5 L304.7,329.2 L305.5,352.5 L306.4,352.5 L307.2,352.5 L308.1,328.6 L308.9,303.8 L309.7,316.0 L310.6,340.5 L311.4,344.6 L312.3,352.8 L313.1,350.3 L313.9,352.8 L314.8,353.4 L315.6,328.6 L316.5,339.3 L317.3,350.3 L318.1,352.8 L319.0,295.0 L319.8,230.6 L320.7,216.8 L321.5,216.5 L322.4,251.3 L323.2,286.5 L324.0,310.7 L324.9,337.4 L325.7,339.6 L326.6,352.2 L327.4,351.5 L328.2,351.5 L329.1,352.8 L329.9,352.5 L330.8,353.7 L331.6,349.0 L332.5,348.4 L333.3,349.0 L334.1,343.4 L335.0,345.6 L335.8,347.5 L336.7,347.8 L337.5,347.8 L338.3,347.1 L339.2,343.4 L340.0,319.8 L340.9,302.5 L341.7,306.0 L342.6,333.6 L343.4,351.8 L344.2,352.2 L345.1,351.8 L345.9,351.5 L346.8,352.2 L347.6,351.8 L348.4,351.8 L349.3,352.5 L350.1,352.8 L351.0,352.8 L351.8,352.8 L352.7,353.7 L353.5,354.0 L354.3,353.4 L355.2,353.7 L356.0,352.2 L356.9,352.5 L357.7,352.2 L358.5,352.5 L359.4,349.0 L360.2,351.5 L361.1,351.8 L361.9,352.2 L362.7,370.7 L363.6,371.0 L364.4,370.7 L365.3,351.8 L366.1,351.5 L367.0,351.2 L367.8,352.2 L368.6,351.8 L369.5,352.8 L370.3,353.1 L371.2,353.1 L372.0,352.5 L372.8,352.5 L373.7,352.5 L374.5,305.7 L375.4,299.1 L376.2,302.2 L377.1,299.1 L377.9,352.2 L378.7,352.5 L379.6,351.5 L380.4,352.5 L381.3,352.5 L382.1,352.2 L382.9,351.8 L383.8,340.9 L384.6,352.2 L385.5,351.5 L386.3,351.5 L387.2,351.5 L388.0,334.6 L388.8,336.1 L389.7,348.7 L390.5,339.9 L391.4,300.3 L392.2,299.1 L393.0,302.5 L393.9,301.9 L394.7,351.8 L395.6,351.8 L396.4,352.5 L397.3,349.0 L398.1,352.2 L398.9,351.8 L399.8,351.8 L400.6,352.5 L401.5,352.8 L402.3,352.5 L403.1,352.5 L404.0,352.5 L404.8,352.2 L405.7,352.5 L406.5,304.7 L407.3,298.8 L408.2,299.7 L409.0,298.5 L409.9,344.6 L410.7,344.3 L411.6,344.9 L412.4,344.3 L413.2,344.3 L414.1,351.8 L414.9,351.8 L415.8,351.5 L416.6,351.8 L417.4,351.5 L418.3,351.2 L419.1,351.5 L420.0,322.6 L420.8,323.0 L421.7,266.1 L422.5,264.5 L423.3,343.1 L424.2,351.5 L425.0,352.5 L425.9,366.9 L426.7,367.9 L427.5,352.5 L428.4,351.8 L429.2,352.2 L430.1,352.2 L430.9,351.2 L431.8,351.5 L432.6,351.8 L433.4,352.2 L434.3,351.8 L435.1,352.2 L436.0,351.8 L436.8,352.2 L437.6,351.8 L438.5,351.8 L439.3,351.8 L440.2,352.2 L441.0,352.5 L441.9,352.5 L442.7,352.5 L443.5,352.5 L444.4,346.8 L445.2,346.5 L446.1,352.5 L446.9,352.5 L447.7,352.5 L448.6,352.5 L449.4,306.3 L450.3,306.3 L451.1,306.3 L451.9,306.9 L452.8,306.3 L453.6,305.7 L454.5,306.6 L455.3,306.6 L456.2,306.6 L457.0,306.6 L457.8,307.3 L458.7,306.0 L459.5,305.7 L460.4,306.3 L461.2,277.1 L462.0,301.6 L462.9,306.3 L463.7,306.0 L464.6,306.6 L465.4,306.6 L466.3,306.3 L467.1,306.6 L467.9,306.6 L468.8,305.7 L469.6,305.4 L470.5,289.0 L471.3,298.5 L472.1,301.3 L473.0,306.0 L473.8,305.7 L474.7,306.3 L475.5,306.6 L476.4,305.4 L477.2,305.4 L478.0,352.2 L478.9,351.8 L479.7,351.8 L480.6,352.5 L481.4,298.1 L482.2,298.5 L483.1,314.5 L483.9,315.1 L484.8,346.5 L485.6,346.8 L486.5,346.2 L487.3,346.5 L488.1,346.2 L489.0,346.5 L489.8,340.2 L490.7,326.1 L491.5,306.9 L492.3,339.3 L493.2,338.7 L494.0,352.5 L494.9,351.8 L495.7,352.2 L496.5,346.8 L497.4,352.2 L498.2,352.2 L499.1,352.2 L499.9,352.8 L500.8,345.9 L501.6,283.4 L502.4,264.9 L503.3,287.8 L504.1,287.2 L505.0,277.1 L505.8,301.9 L506.6,298.8 L507.5,301.9 L508.3,299.1 L509.2,298.8 L510.0,279.6 L510.9,260.8 L511.7,261.1 L512.5,299.4 L513.4,319.5 L514.2,337.7 L515.1,339.6 L515.9,352.2 L516.7,352.5 L517.6,351.8 L518.4,352.2 L519.3,351.5 L520.1,352.5 L521.0,285.6 L521.8,241.9 L522.6,238.5 L523.5,226.2 L524.3,237.8 L525.2,268.9 L526.0,283.1 L526.8,284.3 L527.7,278.4 L528.5,297.5 L529.4,280.2 L530.2,279.6 L531.1,261.7 L531.9,292.8 L532.7,316.0 L533.6,352.8 L534.4,352.5 L535.3,352.5 L536.1,352.8 L536.9,352.5 L537.8,352.5 L538.6,317.3 L539.5,353.7 L540.3,352.8 L541.2,303.5 L542.0,237.5 L542.8,239.4 L543.7,234.7 L544.5,243.8 L545.4,268.3 L546.2,274.6 L547.0,274.0 L547.9,285.6 L548.7,286.8 L549.6,286.8 L550.4,312.9 L551.2,289.3 L552.1,341.2 L552.9,372.3 L553.8,371.6 L554.6,371.6 L555.5,371.6 L556.3,371.9 L557.1,371.3 L558.0,371.6 L558.8,371.6 L559.7,371.9 L560.5,371.6 L561.3,359.7 L562.2,299.4 L563.0,293.1 L563.9,286.5 L564.7,295.9 L565.6,286.8 L566.4,286.2 L567.2,290.9 L568.1,325.5 L568.9,332.1 L569.8,327.4 L570.6,321.7 L571.4,316.4 L572.3,353.7 L573.1,371.9 L574.0,368.8 L574.8,371.3 L575.7,371.9 L576.5,371.3 L577.3,372.3 L578.2,372.6 L579.0,372.6 L579.9,371.9 L580.7,372.6 L581.5,372.3 L582.4,312.3 L583.2,292.2 L584.1,283.7 L584.9,304.1 L585.8,313.2 L586.6,318.6 L587.4,327.7 L588.3,328.0 L589.1,371.3 L590.0,371.6 L590.8,371.6 L591.6,359.7 L592.5,359.4 L593.3,365.7 L594.2,371.9 L595.0,371.0 L595.8,371.6 L596.7,346.8 L597.5,344.6 L598.4,340.5 L599.2,370.4 L600.1,317.6 L600.9,371.3 L601.7,278.4 L602.6,325.5 L603.4,327.4 L604.3,333.6 L605.1,346.5 L605.9,352.5 L606.8,352.5 L607.6,353.7 L608.5,292.5 L609.3,324.5 L610.2,295.6 L611.0,303.5 L611.8,286.2 L612.7,310.7 L613.5,321.1 L614.4,333.3 L615.2,321.1 L616.0,320.4 L616.9,317.9 L617.7,319.2 L618.6,320.4 L619.4,317.3 L620.3,317.6 L621.1,329.2 L621.9,301.0 L622.8,281.2 L623.6,289.7 L624.5,275.5 L625.3,285.9 L626.1,287.5 L627.0,277.7 L627.8,277.1 L628.7,308.2 L629.5,311.0 L630.4,310.1 L631.2,313.2 L632.0,279.9 L632.9,300.3 L633.7,311.3 L634.6,318.2 L635.4,323.0 L636.2,352.5 L637.1,371.0 L637.9,371.0 L638.8,371.3 L639.6,371.3 L640.4,371.0 L641.3,371.0 L642.1,340.2 L643.0,313.2 L643.8,301.3 L644.7,334.3 L645.5,339.9 L646.3,351.8 L647.2,352.5 L648.0,352.8 L648.9,352.8 L649.7,353.1 L650.5,352.2 L651.4,352.5 L652.2,340.5 L653.1,352.5 L653.9,352.8 L654.8,352.8 L655.6,352.5 L656.4,352.2 L657.3,364.4 L658.1,365.0 L659.0,364.7 L659.8,365.0 L660.6,355.9 L661.5,328.0 L662.3,293.1 L663.2,286.8 L664.0,275.2 L664.9,274.9 L665.7,298.8 L666.5,290.6 L667.4,306.0 L668.2,362.2 L669.1,371.3 L669.9,371.3 L670.7,371.0 L671.6,352.2 L672.4,340.9 L673.3,372.3 L674.1,372.3 L675.0,372.9 L675.8,371.9 L676.6,372.6 L677.5,372.9 L678.3,372.6 L679.2,372.3 L680.0,371.9" stroke="#2ca02c" stroke-width="2" fill="none" opacity="0.8"/>
<!-- Solar Generation -->
<path d="M80.0,420.0 L80.8,420.0 L81.7,420.0 L82.5,420.0 L83.4,420.0 L84.2,420.0 L85.0,420.0 L85.9,420.0 L86.7,420.0 L87.6,404.9 L88.4,379.2 L89.3,375.1 L90.1,374.8 L90.9,374.1 L91.8,374.1 L92.6,374.1 L93.5,374.1 L94.3,374.5 L95.1,375.1 L96.0,376.0 L96.8,397.4 L97.7,419.1 L98.5,420.0 L99.4,420.0 L100.2,420.0 L101.0,420.0 L101.9,420.0 L102.7,420.0 L103.6,420.0 L104.4,420.0 L105.2,420.0 L106.1,420.0 L106.9,420.0 L107.8,408.1 L108.6,380.7 L109.5,375.7 L110.3,375.1 L111.1,375.4 L112.0,378.9 L112.8,388.6 L113.7,378.9 L114.5,380.7 L115.3,391.4 L116.2,408.7 L117.0,411.8 L117.9,419.7 L118.7,420.0 L119.6,420.0 L120.4,420.0 L121.2,420.0 L122.1,420.0 L122.9,420.0 L123.8,420.0 L124.6,420.0 L125.4,420.0 L126.3,420.0 L127.1,420.0 L128.0,414.7 L128.8,407.1 L129.6,405.9 L130.5,400.8 L131.3,399.9 L132.2,403.4 L133.0,400.2 L133.9,403.0 L134.7,407.1 L135.5,403.0 L136.4,416.9 L137.2,419.4 L138.1,418.7 L138.9,420.0 L139.7,420.0 L140.6,420.0 L141.4,420.0 L142.3,420.0 L143.1,420.0 L144.0,420.0 L144.8,420.0 L145.6,420.0 L146.5,420.0 L147.3,420.0 L148.2,403.4 L149.0,387.3 L149.8,395.5 L150.7,393.9 L151.5,390.2 L152.4,386.1 L153.2,395.2 L154.1,402.1 L154.9,405.9 L155.7,415.0 L156.6,403.7 L157.4,416.2 L158.3,418.7 L159.1,420.0 L159.9,420.0 L160.8,420.0 L161.6,420.0 L162.5,420.0 L163.3,420.0 L164.2,420.0 L165.0,420.0 L165.8,420.0 L166.7,420.0 L167.5,420.0 L168.4,415.3 L169.2,392.0 L170.0,415.6 L170.9,411.2 L171.7,407.8 L172.6,407.1 L173.4,406.8 L174.2,409.0 L175.1,409.6 L175.9,415.6 L176.8,415.0 L177.6,398.0 L178.5,417.5 L179.3,420.0 L180.1,420.0 L181.0,420.0 L181.8,420.0 L182.7,420.0 L183.5,420.0 L184.3,420.0 L185.2,420.0 L186.0,420.0 L186.9,420.0 L187.7,419.7 L188.6,415.3 L189.4,376.7 L190.2,393.3 L191.1,388.9 L191.9,381.7 L192.8,389.8 L193.6,405.6 L194.4,380.7 L195.3,399.9 L196.1,404.9 L197.0,413.4 L197.8,407.4 L198.7,418.1 L199.5,420.0 L200.3,420.0 L201.2,420.0 L202.0,420.0 L202.9,420.0 L203.7,420.0 L204.5,420.0 L205.4,420.0 L206.2,420.0 L207.1,420.0 L207.9,419.7 L208.8,416.2 L209.6,415.6 L210.4,411.2 L211.3,403.0 L212.1,402.7 L213.0,396.8 L213.8,399.3 L214.6,391.7 L215.5,390.5 L216.3,393.3 L217.2,409.6 L218.0,411.2 L218.8,419.4 L219.7,420.0 L220.5,420.0 L221.4,420.0 L222.2,420.0 L223.1,420.0 L223.9,420.0 L224.7,420.0 L225.6,420.0 L226.4,420.0 L227.3,420.0 L228.1,419.7 L228.9,417.2 L229.8,402.1 L230.6,412.8 L231.5,407.1 L232.3,412.1 L233.2,407.8 L234.0,404.9 L234.8,410.9 L235.7,411.5 L236.5,412.5 L237.4,414.3 L238.2,415.3 L239.0,418.1 L239.9,420.0 L240.7,420.0 L241.6,420.0 L242.4,420.0 L243.3,420.0 L244.1,420.0 L244.9,420.0 L245.8,420.0 L246.6,420.0 L247.5,420.0 L248.3,418.4 L249.1,402.4 L250.0,393.9 L250.8,403.7 L251.7,404.3 L252.5,405.9 L253.4,405.6 L254.2,399.6 L255.0,396.8 L255.9,408.7 L256.7,411.5 L257.6,411.5 L258.4,399.9 L259.2,416.9 L260.1,420.0 L260.9,420.0 L261.8,420.0 L262.6,420.0 L263.5,420.0 L264.3,420.0 L265.1,420.0 L266.0,420.0 L266.8,420.0 L267.7,420.0 L268.5,419.1 L269.3,403.0 L270.2,399.9 L271.0,398.6 L271.9,398.3 L272.7,398.0 L273.5,397.7 L274.4,397.7 L275.2,373.5 L276.1,374.5 L276.9,399.3 L277.8,404.9 L278.6,401.5 L279.4,417.5 L280.3,420.0 L281.1,420.0 L282.0,420.0 L282.8,420.0 L283.6,420.0 L284.5,420.0 L285.3,420.0 L286.2,420.0 L287.0,420.0 L287.9,420.0 L288.7,419.1 L289.5,406.2 L290.4,399.3 L291.2,398.6 L292.1,398.6 L292.9,398.0 L293.7,398.0 L294.6,397.7 L295.4,398.0 L296.3,398.3 L297.1,398.6 L298.0,376.3 L298.8,393.0 L299.6,417.2 L300.5,420.0 L301.3,420.0 L302.2,420.0 L303.0,420.0 L303.8,420.0 L304.7,420.0 L305.5,420.0 L306.4,420.0 L307.2,420.0 L308.1,420.0 L308.9,419.4 L309.7,406.2 L310.6,400.2 L311.4,375.4 L312.3,375.1 L313.1,399.0 L313.9,398.6 L314.8,374.8 L315.6,375.4 L316.5,383.6 L317.3,386.1 L318.1,380.1 L319.0,399.9 L319.8,417.8 L320.7,420.0 L321.5,420.0 L322.4,420.0 L323.2,420.0 L324.0,420.0 L324.9,420.0 L325.7,420.0 L326.6,420.0 L327.4,420.0 L328.2,420.0 L329.1,418.4 L329.9,409.6 L330.8,379.8 L331.6,379.5 L332.5,378.9 L333.3,382.6 L334.1,387.7 L335.0,389.8 L335.8,391.4 L336.7,390.5 L337.5,403.7 L338.3,409.3 L339.2,411.5 L340.0,418.1 L340.9,420.0 L341.7,420.0 L342.6,420.0 L343.4,420.0 L344.2,420.0 L345.1,420.0 L345.9,420.0 L346.8,420.0 L347.6,420.0 L348.4,420.0 L349.3,419.7 L350.1,396.4 L351.0,399.3 L351.8,395.8 L352.7,395.8 L353.5,403.4 L354.3,409.6 L355.2,411.8 L356.0,413.1 L356.9,413.7 L357.7,400.2 L358.5,416.9 L359.4,418.1 L360.2,419.7 L361.1,420.0 L361.9,420.0 L362.7,420.0 L363.6,420.0 L364.4,420.0 L365.3,420.0 L366.1,420.0 L367.0,420.0 L367.8,420.0 L368.6,420.0 L369.5,419.7 L370.3,404.6 L371.2,413.4 L372.0,403.7 L372.8,402.4 L373.7,400.2 L374.5,399.3 L375.4,399.6 L376.2,411.8 L377.1,414.7 L377.9,415.3 L378.7,415.6 L379.6,416.5 L380.4,417.2 L381.3,419.4 L382.1,419.4 L382.9,419.4 L383.8,419.4 L384.6,419.4 L385.5,419.4 L386.3,419.4 L387.2,419.4 L388.0,419.4 L388.8,419.4 L389.7,418.1 L390.5,414.3 L391.4,389.8 L392.2,395.2 L393.0,400.2 L393.9,403.0 L394.7,404.6 L395.6,398.6 L396.4,401.5 L397.3,406.8 L398.1,413.4 L398.9,404.6 L399.8,415.0 L400.6,416.5 L401.5,420.0 L402.3,420.0 L403.1,420.0 L404.0,420.0 L404.8,420.0 L405.7,420.0 L406.5,420.0 L407.3,420.0 L408.2,420.0 L409.0,420.0 L409.9,419.1 L410.7,414.0 L411.6,403.0 L412.4,396.8 L413.2,383.6 L414.1,404.0 L414.9,409.3 L415.8,400.2 L416.6,407.4 L417.4,403.4 L418.3,393.3 L419.1,411.2 L420.0,405.2 L420.8,416.5 L421.7,420.0 L422.5,420.0 L423.3,420.0 L424.2,420.0 L425.0,420.0 L425.9,420.0 L426.7,420.0 L427.5,420.0 L428.4,420.0 L429.2,420.0 L430.1,418.4 L430.9,414.7 L431.8,406.8 L432.6,409.0 L433.4,408.7 L434.3,410.9 L435.1,412.1 L436.0,411.8 L436.8,412.8 L437.6,412.8 L438.5,414.7 L439.3,415.9 L440.2,415.0 L441.0,419.1 L441.9,420.0 L442.7,420.0 L443.5,420.0 L444.4,420.0 L445.2,420.0 L446.1,420.0 L446.9,420.0 L447.7,420.0 L448.6,420.0 L449.4,420.0 L450.3,420.0 L451.1,417.2 L451.9,414.3 L452.8,409.6 L453.6,407.4 L454.5,399.6 L455.3,391.7 L456.2,397.4 L457.0,409.3 L457.8,409.6 L458.7,411.2 L459.5,402.4 L460.4,406.2 L461.2,413.7 L462.0,420.0 L462.9,420.0 L463.7,420.0 L464.6,420.0 L465.4,420.0 L466.3,420.0 L467.1,420.0 L467.9,420.0 L468.8,420.0 L469.6,420.0 L470.5,418.7 L471.3,413.4 L472.1,413.1 L473.0,402.4 L473.8,399.3 L474.7,411.2 L475.5,411.5 L476.4,407.1 L477.2,411.5 L478.0,410.9 L478.9,400.2 L479.7,414.7 L480.6,414.3 L481.4,415.3 L482.2,420.0 L483.1,420.0 L483.9,420.0 L484.8,420.0 L485.6,420.0 L486.5,420.0 L487.3,420.0 L488.1,420.0 L489.0,420.0 L489.8,420.0 L490.7,415.6 L491.5,401.2 L492.3,399.3 L493.2,406.5 L494.0,399.6 L494.9,406.5 L495.7,410.3 L496.5,411.2 L497.4,404.9 L498.2,388.9 L499.1,401.8 L499.9,394.9 L500.8,400.8 L501.6,417.5 L502.4,420.0 L503.3,420.0 L504.1,420.0 L505.0,420.0 L505.8,420.0 L506.6,420.0 L507.5,420.0 L508.3,420.0 L509.2,420.0 L510.0,420.0 L510.9,417.2 L511.7,390.8 L512.5,375.7 L513.4,374.5 L514.2,392.7 L515.1,398.3 L515.9,376.3 L516.7,374.1 L517.6,374.5 L518.4,375.1 L519.3,375.4 L520.1,375.1 L521.0,386.7 L521.8,413.1 L522.6,420.0 L523.5,420.0 L524.3,420.0 L525.2,420.0 L526.0,420.0 L526.8,420.0 L527.7,420.0 L528.5,420.0 L529.4,420.0 L530.2,420.0 L531.1,415.9 L531.9,389.2 L532.7,374.5 L533.6,374.5 L534.4,374.1 L535.3,373.8 L536.1,373.8 L536.9,374.8 L537.8,373.8 L538.6,374.1 L539.5,375.1 L540.3,375.1 L541.2,386.7 L542.0,412.1 L542.8,420.0 L543.7,420.0 L544.5,420.0 L545.4,420.0 L546.2,420.0 L547.0,420.0 L547.9,420.0 L548.7,420.0 L549.6,420.0 L550.4,420.0 L551.2,415.3 L552.1,390.2 L552.9,401.8 L553.8,394.2 L554.6,379.2 L555.5,375.1 L556.3,374.8 L557.1,398.6 L558.0,398.6 L558.8,401.5 L559.7,403.4 L560.5,398.3 L561.3,408.7 L562.2,414.0 L563.0,420.0 L563.9,420.0 L564.7,420.0 L565.6,420.0 L566.4,420.0 L567.2,420.0 L568.1,420.0 L568.9,420.0 L569.8,420.0 L570.6,420.0 L571.4,417.5 L572.3,389.2 L573.1,398.6 L574.0,398.3 L574.8,398.0 L575.7,397.7 L576.5,378.9 L577.3,401.2 L578.2,397.7 L579.0,396.4 L579.9,381.4 L580.7,375.1 L581.5,390.8 L582.4,411.8 L583.2,420.0 L584.1,420.0 L584.9,420.0 L585.8,420.0 L586.6,420.0 L587.4,420.0 L588.3,420.0 L589.1,420.0 L590.0,420.0 L590.8,420.0 L591.6,417.2 L592.5,401.8 L593.3,394.6 L594.2,390.5 L595.0,386.7 L595.8,385.5 L596.7,387.0 L597.5,387.3 L598.4,393.3 L599.2,395.2 L600.1,403.0 L600.9,400.8 L601.7,405.6 L602.6,417.5 L603.4,420.0 L604.3,420.0 L605.1,420.0 L605.9,420.0 L606.8,420.0 L607.6,420.0 L608.5,420.0 L609.3,420.0 L610.2,420.0 L611.0,420.0 L611.8,413.7 L612.7,398.6 L613.5,377.3 L614.4,386.4 L615.2,382.9 L616.0,388.6 L616.9,395.8 L617.7,388.3 L618.6,377.6 L619.4,375.7 L620.3,398.6 L621.1,393.9 L621.9,410.3 L622.8,414.0 L623.6,420.0 L624.5,420.0 L625.3,420.0 L626.1,420.0 L627.0,420.0 L627.8,420.0 L628.7,420.0 L629.5,420.0 L630.4,420.0 L631.2,420.0 L632.0,412.5 L632.9,385.8 L633.7,374.5 L634.6,374.1 L635.4,374.1 L636.2,373.8 L637.1,373.8 L637.9,391.1 L638.8,394.6 L639.6,398.3 L640.4,402.7 L641.3,393.3 L642.1,386.7 L643.0,415.3 L643.8,420.0 L644.7,420.0 L645.5,420.0 L646.3,420.0 L647.2,420.0 L648.0,420.0 L648.9,420.0 L649.7,420.0 L650.5,420.0 L651.4,420.0 L652.2,418.7 L653.1,415.3 L653.9,400.2 L654.8,395.2 L655.6,396.4 L656.4,391.7 L657.3,384.8 L658.1,382.0 L659.0,394.2 L659.8,390.5 L660.6,391.7 L661.5,403.0 L662.3,391.7 L663.2,412.5 L664.0,420.0 L664.9,420.0 L665.7,420.0 L666.5,420.0 L667.4,420.0 L668.2,420.0 L669.1,420.0 L669.9,420.0 L670.7,420.0 L671.6,420.0 L672.4,412.8 L673.3,389.2 L674.1,378.9 L675.0,409.0 L675.8,409.9 L676.6,397.7 L677.5,397.7 L678.3,409.6 L679.2,405.2 L680.0,400.2" stroke="#d62728" stroke-width="2" fill="none" opacity="0.8"/>
<!-- Forecast -->
<path d="M80.0,198.3 L80.8,223.1 L81.7,236.3 L82.5,245.7 L83.4,249.5 L84.2,251.7 L85.0,248.2 L85.9,233.1 L86.7,204.2 L87.6,173.8 L88.4,154.9 L89.3,151.2 L90.1,152.7 L90.9,157.4 L91.8,161.8 L92.6,165.9 L93.5,169.1 L94.3,170.3 L95.1,171.3 L96.0,171.6 L96.8,176.3 L97.7,179.7 L98.5,177.9 L99.4,181.6 L100.2,201.4 L101.0,230.9 L101.9,240.4 L102.7,246.0 L103.6,248.8 L104.4,250.1 L105.2,246.0 L106.1,230.9 L106.9,204.6 L107.8,175.0 L108.6,156.8 L109.5,154.6 L110.3,156.5 L111.1,162.2 L112.0,165.6 L112.8,169.4 L113.7,171.9 L114.5,173.1 L115.3,172.8 L116.2,170.9 L117.0,176.0 L117.9,183.8 L118.7,186.3 L119.6,189.5 L120.4,207.7 L121.2,233.8 L122.1,248.2 L122.9,257.3 L123.8,263.0 L124.6,265.8 L125.4,265.2 L126.3,262.0 L127.1,252.6 L128.0,237.2 L128.8,219.0 L129.6,205.8 L130.5,199.5 L131.3,200.2 L132.2,199.2 L133.0,203.0 L133.9,208.0 L134.7,209.6 L135.5,207.7 L136.4,204.2 L137.2,204.6 L138.1,207.4 L138.9,205.5 L139.7,203.9 L140.6,215.9 L141.4,234.1 L142.3,248.8 L143.1,257.0 L144.0,263.0 L144.8,264.9 L145.6,263.6 L146.5,258.9 L147.3,249.1 L148.2,236.6 L149.0,217.1 L149.8,204.6 L150.7,201.7 L151.5,196.1 L152.4,195.8 L153.2,199.5 L154.1,202.0 L154.9,202.0 L155.7,200.5 L156.6,192.6 L157.4,191.7 L158.3,192.9 L159.1,191.7 L159.9,193.6 L160.8,209.3 L161.6,225.0 L162.5,243.2 L163.3,252.6 L164.2,257.3 L165.0,259.8 L165.8,257.0 L166.7,244.1 L167.5,214.6 L168.4,181.3 L169.2,160.0 L170.0,154.6 L170.9,153.7 L171.7,157.4 L172.6,160.9 L173.4,164.4 L174.2,167.2 L175.1,168.1 L175.9,168.7 L176.8,168.7 L177.6,173.8 L178.5,176.3 L179.3,175.3 L180.1,180.7 L181.0,201.4 L181.8,225.0 L182.7,239.1 L183.5,248.8 L184.3,253.5 L185.2,256.1 L186.0,252.9 L186.9,239.1 L187.7,210.8 L188.6,179.1 L189.4,158.7 L190.2,154.0 L191.1,153.0 L191.9,156.8 L192.8,160.6 L193.6,164.0 L194.4,167.2 L195.3,168.4 L196.1,169.1 L197.0,169.4 L197.8,174.1 L198.7,178.5 L199.5,178.2 L200.3,182.3 L201.2,202.0 L202.0,224.7 L202.9,241.9 L203.7,251.3 L204.5,256.4 L205.4,258.9 L206.2,256.1 L207.1,243.5 L207.9,214.0 L208.8,181.0 L209.6,161.2 L210.4,156.5 L211.3,155.2 L212.1,158.1 L213.0,160.9 L213.8,164.0 L214.6,166.5 L215.5,167.5 L216.3,167.5 L217.2,167.2 L218.0,172.2 L218.8,176.0 L219.7,175.0 L220.5,178.8 L221.4,198.9 L222.2,371.9 L223.1,234.7 L223.9,243.5 L224.7,247.0 L225.6,247.6 L226.4,242.9 L227.3,229.4 L228.1,198.6 L228.9,163.4 L229.8,143.9 L230.6,138.0 L231.5,138.9 L232.3,142.4 L233.2,147.4 L234.0,150.8 L234.8,154.0 L235.7,156.2 L236.5,155.2 L237.4,153.7 L238.2,155.9 L239.0,156.8 L239.9,154.0 L240.7,163.4 L241.6,182.9 L242.4,208.3 L243.3,220.3 L244.1,227.8 L244.9,232.2 L245.8,233.4 L246.6,230.6 L247.5,218.1 L248.3,189.2 L249.1,157.1 L250.0,141.1 L250.8,138.0 L251.7,140.5 L252.5,143.9 L253.4,148.6 L254.2,152.7 L255.0,156.8 L255.9,158.1 L256.7,157.4 L257.6,157.4 L258.4,161.8 L259.2,162.5 L260.1,158.4 L260.9,167.5 L261.8,186.6 L262.6,216.2 L263.5,223.1 L264.3,226.5 L265.1,231.2 L266.0,233.8 L266.8,231.6 L267.7,223.7 L268.5,213.0 L269.3,199.5 L270.2,181.6 L271.0,172.5 L271.9,172.5 L272.7,179.4 L273.5,183.5 L274.4,187.9 L275.2,192.6 L276.1,196.1 L276.9,196.7 L277.8,195.8 L278.6,193.9 L279.4,192.9 L280.3,187.0 L281.1,188.2 L282.0,202.0 L282.8,231.6 L283.6,236.0 L284.5,240.7 L285.3,245.4 L286.2,247.0 L287.0,245.4 L287.9,240.4 L288.7,233.4 L289.5,223.4 L290.4,206.7 L291.2,196.4 L292.1,197.3 L292.9,194.5 L293.7,195.8 L294.6,201.7 L295.4,204.6 L296.3,203.3 L297.1,199.8 L298.0,199.2 L298.8,193.2 L299.6,198.0 L300.5,199.8 L301.3,198.3 L302.2,209.9 L303.0,230.3 L303.8,245.1 L304.7,253.2 L305.5,258.6 L306.4,260.5 L307.2,257.0 L308.1,242.9 L308.9,216.8 L309.7,187.6 L310.6,170.0 L311.4,166.5 L312.3,163.7 L313.1,163.4 L313.9,164.0 L314.8,164.7 L315.6,165.3 L316.5,161.5 L317.3,158.1 L318.1,160.0 L319.0,168.7 L319.8,176.3 L320.7,180.7 L321.5,183.2 L322.4,202.4 L323.2,225.9 L324.0,246.3 L324.9,255.7 L325.7,262.3 L326.6,264.5 L327.4,262.0 L328.2,248.5 L329.1,223.4 L329.9,195.4 L330.8,177.2 L331.6,170.6 L332.5,163.4 L333.3,159.6 L334.1,158.4 L335.0,156.5 L335.8,155.2 L336.7,152.1 L337.5,147.1 L338.3,148.6 L339.2,161.5 L340.0,170.9 L340.9,176.6 L341.7,178.5 L342.6,198.6 L343.4,224.7 L344.2,243.5 L345.1,252.9 L345.9,258.9 L346.8,262.0 L347.6,262.0 L348.4,251.3 L349.3,226.5 L350.1,198.0 L351.0,176.9 L351.8,168.1 L352.7,162.5 L353.5,160.6 L354.3,161.2 L355.2,163.4 L356.0,166.2 L356.9,167.2 L357.7,167.5 L358.5,167.5 L359.4,172.2 L360.2,176.6 L361.1,176.6 L361.9,180.4 L362.7,200.5 L363.6,214.0 L364.4,238.2 L365.3,249.5 L366.1,252.9 L367.0,255.4 L367.8,252.6 L368.6,239.4 L369.5,207.4 L370.3,172.2 L371.2,151.2 L372.0,144.6 L372.8,144.9 L373.7,146.1 L374.5,150.2 L375.4,153.7 L376.2,157.1 L377.1,158.4 L377.9,156.8 L378.7,156.8 L379.6,159.0 L380.4,161.8 L381.3,158.7 L382.1,167.8 L382.9,188.5 L383.8,206.4 L384.6,225.0 L385.5,233.4 L386.3,237.5 L387.2,239.1 L388.0,236.3 L388.8,223.4 L389.7,192.0 L390.5,159.6 L391.4,142.7 L392.2,138.0 L393.0,139.5 L393.9,143.3 L394.7,148.6 L395.6,152.4 L396.4,155.9 L397.3,158.1 L398.1,156.5 L398.9,156.5 L399.8,160.3 L400.6,160.3 L401.5,156.2 L402.3,164.0 L403.1,183.5 L404.0,208.0 L404.8,219.6 L405.7,224.7 L406.5,228.7 L407.3,229.7 L408.2,228.7 L409.0,219.9 L409.9,207.4 L410.7,194.2 L411.6,178.5 L412.4,170.0 L413.2,165.0 L414.1,170.0 L414.9,175.3 L415.8,182.9 L416.6,184.8 L417.4,184.1 L418.3,185.4 L419.1,181.0 L420.0,181.6 L420.8,179.7 L421.7,172.8 L422.5,176.6 L423.3,192.6 L424.2,370.7 L425.0,222.5 L425.9,228.1 L426.7,231.9 L427.5,234.7 L428.4,233.4 L429.2,230.3 L430.1,220.3 L430.9,207.1 L431.8,192.6 L432.6,177.9 L433.4,169.7 L434.3,167.8 L435.1,170.3 L436.0,173.1 L436.8,177.2 L437.6,179.1 L438.5,176.3 L439.3,169.1 L440.2,171.3 L441.0,165.9 L441.9,162.5 L442.7,169.4 L443.5,190.4 L444.4,214.9 L445.2,228.7 L446.1,235.6 L446.9,239.4 L447.7,241.0 L448.6,237.2 L449.4,224.0 L450.3,194.2 L451.1,163.1 L451.9,170.6 L452.8,170.3 L453.6,164.0 L454.5,169.4 L455.3,174.1 L456.2,182.3 L457.0,184.8 L457.8,182.6 L458.7,185.1 L459.5,179.7 L460.4,181.0 L461.2,179.7 L462.0,172.8 L462.9,176.3 L463.7,192.0 L464.6,196.4 L465.4,230.3 L466.3,238.2 L467.1,242.6 L467.9,243.5 L468.8,240.4 L469.6,226.5 L470.5,198.9 L471.3,174.1 L472.1,157.1 L473.0,153.4 L473.8,153.4 L474.7,157.8 L475.5,161.2 L476.4,164.7 L477.2,167.8 L478.0,169.1 L478.9,169.4 L479.7,169.7 L480.6,174.4 L481.4,178.5 L482.2,176.3 L483.1,179.7 L483.9,199.8 L484.8,223.1 L485.6,237.8 L486.5,245.7 L487.3,248.8 L488.1,250.7 L489.0,247.9 L489.8,232.2 L490.7,205.2 L491.5,175.7 L492.3,157.1 L493.2,153.4 L494.0,153.4 L494.9,158.1 L495.7,161.5 L496.5,165.0 L497.4,167.8 L498.2,169.1 L499.1,169.4 L499.9,170.0 L500.8,174.7 L501.6,178.8 L502.4,176.6 L503.3,180.1 L504.1,200.2 L505.0,225.0 L505.8,238.8 L506.6,245.1 L507.5,247.0 L508.3,248.5 L509.2,245.1 L510.0,229.7 L510.9,203.3 L511.7,175.3 L512.5,158.4 L513.4,155.2 L514.2,155.2 L515.1,159.6 L515.9,162.8 L516.7,166.2 L517.6,169.1 L518.4,170.3 L519.3,170.9 L520.1,170.3 L521.0,175.0 L521.8,180.4 L522.6,180.1 L523.5,190.1 L524.3,204.2 L525.2,225.0 L526.0,221.5 L526.8,239.7 L527.7,247.0 L528.5,248.5 L529.4,245.1 L530.2,229.7 L531.1,203.3 L531.9,175.0 L532.7,158.4 L533.6,155.2 L534.4,155.2 L535.3,159.6 L536.1,162.8 L536.9,166.2 L537.8,169.1 L538.6,170.3 L539.5,170.9 L540.3,170.3 L541.2,175.0 L542.0,180.4 L542.8,180.1 L543.7,183.2 L544.5,202.0 L545.4,225.0 L546.2,221.5 L547.0,240.0 L547.9,247.0 L548.7,248.5 L549.6,245.1 L550.4,229.7 L551.2,203.3 L552.1,175.0 L552.9,158.4 L553.8,155.2 L554.6,155.2 L555.5,159.6 L556.3,162.8 L557.1,166.2 L558.0,169.1 L558.8,170.3 L559.7,170.9 L560.5,170.3 L561.3,175.0 L562.2,180.4 L563.0,180.1 L563.9,183.2 L564.7,202.0 L565.6,216.2 L566.4,219.0 L567.2,235.3 L568.1,244.8 L568.9,247.6 L569.8,246.6 L570.6,241.9 L571.4,235.0 L572.3,223.7 L573.1,208.6 L574.0,193.9 L574.8,186.0 L575.7,181.9 L576.5,181.6 L577.3,186.0 L578.2,187.0 L579.0,184.1 L579.9,180.4 L580.7,179.1 L581.5,171.9 L582.4,176.6 L583.2,180.7 L584.1,177.5 L584.9,187.6 L585.8,203.3 L586.6,222.5 L587.4,232.5 L588.3,238.8 L589.1,241.3 L590.0,238.8 L590.8,226.2 L591.6,202.0 L592.5,175.0 L593.3,156.8 L594.2,148.3 L595.0,143.0 L595.8,142.7 L596.7,142.4 L597.5,143.3 L598.4,143.9 L599.2,145.2 L600.1,144.6 L600.9,142.7 L601.7,148.3 L602.6,154.6 L603.4,156.2 L604.3,157.8 L605.1,175.3 L605.9,198.3 L606.8,222.1 L607.6,228.1 L608.5,230.0 L609.3,232.2 L610.2,229.0 L611.0,214.3 L611.8,188.2 L612.7,158.1 L613.5,138.9 L614.4,132.9 L615.2,132.3 L616.0,135.8 L616.9,137.7 L617.7,140.8 L618.6,142.7 L619.4,144.6 L620.3,145.2 L621.1,144.6 L621.9,148.6 L622.8,152.7 L623.6,150.8 L624.5,153.4 L625.3,172.5 L626.1,366.6 L627.0,266.1 L627.8,374.8 L628.7,420.0 L629.5,420.0 L630.4,420.0 L631.2,420.0 L632.0,420.0 L632.9,420.0 L633.7,420.0 L634.6,420.0 L635.4,420.0 L636.2,420.0 L637.1,420.0 L637.9,420.0 L638.8,420.0 L639.6,420.0 L640.4,420.0 L641.3,420.0 L642.1,420.0 L643.0,420.0 L643.8,420.0 L644.7,420.0 L645.5,420.0 L646.3,262.0 L647.2,224.7 L648.0,237.2 L648.9,245.1 L649.7,247.3 L650.5,246.0 L651.4,234.7 L652.2,211.5 L653.1,184.5 L653.9,165.6 L654.8,156.8 L655.6,150.8 L656.4,150.2 L657.3,149.6 L658.1,151.2 L659.0,152.4 L659.8,154.0 L660.6,153.7 L661.5,152.1 L662.3,156.8 L663.2,163.1 L664.0,164.7 L664.9,166.5 L665.7,184.1 L666.5,209.3 L667.4,229.4 L668.2,240.7 L669.1,247.6 L669.9,249.5 L670.7,246.6 L671.6,234.1 L672.4,210.2 L673.3,184.1 L674.1,166.5 L675.0,158.4 L675.8,152.4 L676.6,151.8 L677.5,151.8 L678.3,152.7 L679.2,153.7 L680.0,154.0" stroke="#9467bd" stroke-width="2" fill="none" opacity="0.8"/>
<!-- Total Generation -->
<path d="M80.0,101.9 L80.8,124.2 L81.7,135.5 L82.5,156.5 L83.4,154.9 L84.2,153.7 L85.0,148.3 L85.9,123.8 L86.7,92.7 L87.6,76.1 L88.4,98.1 L89.3,123.5 L90.1,127.9 L90.9,151.8 L91.8,160.3 L92.6,172.5 L93.5,177.2 L94.3,175.0 L95.1,177.5 L96.0,171.6 L96.8,108.1 L97.7,88.7 L98.5,88.0 L99.4,98.1 L100.2,161.8 L101.0,169.1 L101.9,221.2 L102.7,175.0 L103.6,170.9 L104.4,155.9 L105.2,147.1 L106.1,138.0 L106.9,136.4 L107.8,120.4 L108.6,95.9 L109.5,94.3 L110.3,89.9 L111.1,101.5 L112.0,107.2 L112.8,133.9 L113.7,170.9 L114.5,144.6 L115.3,189.5 L116.2,193.2 L117.0,129.8 L117.9,108.4 L118.7,106.2 L119.6,134.5 L120.4,137.7 L121.2,158.7 L122.1,200.2 L122.9,205.2 L123.8,219.9 L124.6,214.6 L125.4,213.3 L126.3,214.0 L127.1,197.3 L128.0,205.2 L128.8,254.2 L129.6,242.9 L130.5,245.4 L131.3,234.4 L132.2,229.4 L133.0,223.7 L133.9,201.7 L134.7,187.3 L135.5,185.4 L136.4,195.4 L137.2,217.1 L138.1,181.6 L138.9,138.0 L139.7,107.8 L140.6,145.2 L141.4,172.8 L142.3,195.4 L143.1,190.1 L144.0,194.5 L144.8,177.5 L145.6,183.2 L146.5,198.0 L147.3,203.0 L148.2,193.6 L149.0,177.5 L149.8,214.6 L150.7,219.6 L151.5,200.8 L152.4,207.4 L153.2,213.7 L154.1,193.2 L154.9,207.1 L155.7,192.6 L156.6,187.6 L157.4,186.3 L158.3,200.8 L159.1,209.6 L159.9,202.0 L160.8,212.4 L161.6,261.1 L162.5,267.4 L163.3,268.9 L164.2,268.3 L165.0,261.4 L165.8,230.9 L166.7,233.8 L167.5,183.2 L168.4,185.4 L169.2,176.3 L170.0,172.8 L170.9,171.6 L171.7,172.2 L172.6,176.9 L173.4,198.9 L174.2,171.6 L175.1,190.1 L175.9,194.5 L176.8,201.7 L177.6,147.4 L178.5,168.4 L179.3,168.1 L180.1,162.2 L181.0,153.0 L181.8,169.1 L182.7,179.4 L183.5,169.1 L184.3,159.3 L185.2,153.4 L186.0,158.7 L186.9,144.6 L187.7,147.4 L188.6,132.6 L189.4,94.0 L190.2,132.6 L191.1,153.4 L191.9,122.6 L192.8,112.8 L193.6,138.6 L194.4,122.6 L195.3,144.3 L196.1,142.7 L197.0,162.8 L197.8,145.2 L198.7,166.2 L199.5,180.7 L200.3,190.1 L201.2,193.9 L202.0,189.5 L202.9,188.8 L203.7,187.9 L204.5,192.0 L205.4,207.4 L206.2,184.1 L207.1,194.2 L207.9,173.8 L208.8,145.5 L209.6,179.7 L210.4,230.9 L211.3,221.8 L212.1,206.1 L213.0,205.8 L213.8,206.4 L214.6,153.7 L215.5,176.3 L216.3,170.6 L217.2,214.3 L218.0,189.2 L218.8,203.0 L219.7,197.0 L220.5,125.4 L221.4,154.0 L222.2,165.9 L223.1,196.4 L223.9,184.8 L224.7,179.1 L225.6,188.8 L226.4,201.4 L227.3,170.0 L228.1,158.4 L228.9,128.9 L229.8,148.6 L230.6,152.4 L231.5,141.1 L232.3,178.8 L233.2,172.2 L234.0,184.8 L234.8,207.1 L235.7,228.1 L236.5,233.1 L237.4,223.1 L238.2,205.8 L239.0,188.8 L239.9,190.4 L240.7,201.7 L241.6,196.1 L242.4,173.5 L243.3,176.9 L244.1,194.8 L244.9,210.5 L245.8,218.7 L246.6,201.4 L247.5,189.5 L248.3,181.9 L249.1,157.4 L250.0,143.3 L250.8,155.6 L251.7,177.2 L252.5,201.1 L253.4,187.9 L254.2,198.6 L255.0,162.8 L255.9,186.6 L256.7,215.5 L257.6,185.7 L258.4,162.2 L259.2,157.8 L260.1,167.5 L260.9,178.8 L261.8,183.8 L262.6,187.0 L263.5,188.8 L264.3,197.3 L265.1,187.6 L266.0,166.5 L266.8,176.6 L267.7,179.4 L268.5,163.7 L269.3,141.7 L270.2,168.4 L271.0,152.1 L271.9,179.1 L272.7,180.1 L273.5,182.9 L274.4,205.2 L275.2,185.1 L276.1,189.5 L276.9,216.2 L277.8,224.7 L278.6,221.2 L279.4,220.3 L280.3,194.2 L281.1,202.7 L282.0,210.5 L282.8,219.6 L283.6,204.6 L284.5,221.8 L285.3,230.9 L286.2,227.8 L287.0,214.0 L287.9,219.9 L288.7,198.6 L289.5,219.3 L290.4,203.0 L291.2,202.0 L292.1,224.7 L292.9,228.4 L293.7,223.1 L294.6,203.0 L295.4,216.2 L296.3,206.1 L297.1,201.1 L298.0,157.1 L298.8,143.0 L299.6,170.0 L300.5,156.8 L301.3,144.3 L302.2,140.8 L303.0,129.8 L303.8,165.0 L304.7,210.8 L305.5,230.9 L306.4,208.6 L307.2,203.0 L308.1,171.3 L308.9,163.7 L309.7,169.7 L310.6,192.0 L311.4,176.9 L312.3,185.4 L313.1,215.5 L313.9,212.7 L314.8,172.2 L315.6,141.4 L316.5,154.3 L317.3,174.4 L318.1,197.3 L319.0,173.8 L319.8,133.3 L320.7,125.7 L321.5,119.1 L322.4,160.3 L323.2,195.8 L324.0,217.4 L324.9,239.4 L325.7,227.5 L326.6,242.2 L327.4,243.2 L328.2,243.8 L329.1,243.8 L329.9,235.6 L330.8,213.7 L331.6,219.0 L332.5,218.7 L333.3,221.5 L334.1,217.1 L335.0,222.1 L335.8,219.0 L336.7,211.5 L337.5,202.0 L338.3,197.3 L339.2,195.4 L340.0,215.9 L340.9,198.3 L341.7,186.0 L342.6,222.1 L343.4,245.1 L344.2,244.4 L345.1,250.4 L345.9,255.1 L346.8,241.9 L347.6,234.1 L348.4,230.6 L349.3,239.4 L350.1,208.6 L351.0,198.9 L351.8,183.8 L352.7,170.9 L353.5,170.0 L354.3,175.0 L355.2,237.5 L356.0,201.1 L356.9,185.1 L357.7,174.1 L358.5,192.3 L359.4,189.5 L360.2,166.5 L361.1,137.0 L361.9,138.9 L362.7,162.5 L363.6,167.5 L364.4,166.5 L365.3,156.8 L366.1,163.1 L367.0,155.2 L367.8,165.3 L368.6,164.0 L369.5,172.5 L370.3,160.0 L371.2,188.5 L372.0,191.0 L372.8,190.7 L373.7,175.3 L374.5,151.5 L375.4,148.6 L376.2,163.7 L377.1,143.0 L377.9,227.2 L378.7,221.2 L379.6,222.5 L380.4,179.4 L381.3,210.2 L382.1,213.3 L382.9,194.5 L383.8,190.4 L384.6,218.7 L385.5,209.3 L386.3,183.2 L387.2,177.9 L388.0,149.9 L388.8,154.9 L389.7,161.5 L390.5,137.7 L391.4,67.6 L392.2,84.3 L393.0,109.4 L393.9,111.6 L394.7,167.5 L395.6,175.7 L396.4,163.1 L397.3,144.3 L398.1,165.3 L398.9,149.9 L399.8,163.4 L400.6,176.6 L401.5,186.3 L402.3,182.9 L403.1,178.2 L404.0,203.6 L404.8,232.8 L405.7,236.6 L406.5,176.6 L407.3,165.3 L408.2,167.2 L409.0,170.3 L409.9,224.3 L410.7,229.0 L411.6,231.6 L412.4,218.1 L413.2,199.2 L414.1,233.1 L414.9,235.0 L415.8,216.5 L416.6,225.9 L417.4,226.2 L418.3,223.1 L419.1,239.4 L420.0,206.1 L420.8,215.5 L421.7,142.1 L422.5,139.5 L423.3,215.9 L424.2,217.7 L425.0,210.8 L425.9,229.4 L426.7,238.8 L427.5,234.7 L428.4,246.0 L429.2,253.2 L430.1,255.1 L430.9,239.1 L431.8,222.1 L432.6,221.2 L433.4,214.3 L434.3,203.0 L435.1,235.3 L436.0,239.1 L436.8,235.3 L437.6,237.8 L438.5,238.5 L439.3,210.5 L440.2,214.6 L441.0,216.2 L441.9,217.7 L442.7,214.9 L443.5,211.5 L444.4,215.5 L445.2,223.7 L446.1,237.5 L446.9,246.6 L447.7,255.7 L448.6,252.3 L449.4,209.6 L450.3,211.1 L451.1,211.1 L451.9,208.3 L452.8,204.6 L453.6,201.7 L454.5,192.0 L455.3,184.1 L456.2,195.1 L457.0,208.9 L457.8,208.6 L458.7,209.6 L459.5,198.6 L460.4,201.7 L461.2,176.0 L462.0,206.4 L462.9,205.2 L463.7,209.9 L464.6,215.5 L465.4,216.8 L466.3,213.3 L467.1,213.3 L467.9,206.7 L468.8,202.4 L469.6,191.7 L470.5,163.1 L471.3,171.3 L472.1,176.9 L473.0,166.2 L473.8,165.3 L474.7,181.9 L475.5,186.0 L476.4,162.5 L477.2,183.2 L478.0,232.5 L478.9,222.8 L479.7,242.2 L480.6,238.8 L481.4,194.8 L482.2,199.5 L483.1,215.9 L483.9,212.7 L484.8,229.7 L485.6,236.6 L486.5,230.6 L487.3,212.7 L488.1,201.4 L489.0,185.1 L489.8,214.0 L490.7,198.9 L491.5,173.8 L492.3,204.6 L493.2,200.2 L494.0,211.5 L494.9,209.3 L495.7,220.3 L496.5,211.8 L497.4,207.4 L498.2,202.0 L499.1,200.2 L499.9,195.1 L500.8,202.0 L501.6,162.2 L502.4,166.2 L503.3,194.2 L504.1,195.1 L505.0,181.6 L505.8,205.5 L506.6,194.2 L507.5,192.6 L508.3,193.6 L509.2,185.4 L510.0,171.6 L510.9,143.0 L511.7,124.2 L512.5,155.9 L513.4,176.3 L514.2,198.0 L515.1,195.4 L515.9,182.6 L516.7,181.0 L517.6,195.8 L518.4,193.2 L519.3,191.7 L520.1,197.6 L521.0,143.0 L521.8,135.8 L522.6,144.3 L523.5,135.1 L524.3,142.7 L525.2,169.4 L526.0,182.9 L526.8,182.3 L527.7,172.8 L528.5,192.3 L529.4,149.3 L530.2,144.6 L531.1,123.5 L531.9,132.9 L532.7,146.1 L533.6,181.0 L534.4,189.8 L535.3,193.2 L536.1,197.0 L536.9,198.0 L537.8,200.8 L538.6,166.5 L539.5,202.7 L540.3,200.2 L541.2,159.0 L542.0,127.6 L542.8,142.7 L543.7,137.0 L544.5,147.1 L545.4,155.2 L546.2,167.8 L547.0,162.8 L547.9,170.0 L548.7,170.0 L549.6,136.4 L550.4,167.5 L551.2,128.5 L552.1,176.6 L552.9,228.7 L553.8,228.7 L554.6,223.4 L555.5,226.2 L556.3,229.7 L557.1,249.1 L558.0,236.0 L558.8,247.0 L559.7,243.2 L560.5,236.9 L561.3,238.2 L562.2,185.4 L563.0,184.8 L563.9,173.1 L564.7,191.7 L565.6,167.8 L566.4,196.1 L567.2,199.8 L568.1,235.6 L568.9,241.9 L569.8,237.2 L570.6,228.1 L571.4,221.5 L572.3,233.1 L573.1,261.7 L574.0,254.8 L574.8,251.7 L575.7,240.4 L576.5,200.2 L577.3,235.6 L578.2,221.5 L579.0,210.2 L579.9,197.0 L580.7,180.7 L581.5,192.0 L582.4,176.0 L583.2,151.5 L584.1,153.7 L584.9,189.5 L585.8,199.2 L586.6,197.0 L587.4,173.5 L588.3,146.4 L589.1,208.6 L590.0,219.0 L590.8,247.9 L591.6,233.1 L592.5,212.7 L593.3,230.3 L594.2,224.3 L595.0,220.9 L595.8,213.7 L596.7,180.4 L597.5,176.0 L598.4,167.5 L599.2,184.8 L600.1,135.5 L600.9,180.7 L601.7,105.0 L602.6,175.0 L603.4,201.4 L604.3,202.4 L605.1,201.1 L605.9,224.7 L606.8,233.8 L607.6,244.8 L608.5,196.4 L609.3,228.4 L610.2,197.6 L611.0,203.3 L611.8,174.4 L612.7,182.3 L613.5,159.0 L614.4,171.9 L615.2,151.5 L616.0,154.9 L616.9,138.0 L617.7,127.0 L618.6,124.8 L619.4,124.8 L620.3,136.7 L621.1,155.2 L621.9,149.0 L622.8,147.7 L623.6,186.0 L624.5,174.1 L625.3,188.5 L626.1,199.5 L627.0,188.5 L627.8,184.5 L628.7,211.8 L629.5,209.3 L630.4,194.5 L631.2,191.7 L632.0,147.7 L632.9,151.8 L633.7,139.2 L634.6,138.6 L635.4,148.3 L636.2,171.9 L637.1,187.0 L637.9,205.5 L638.8,200.8 L639.6,207.7 L640.4,213.7 L641.3,183.8 L642.1,162.8 L643.0,156.5 L643.8,166.9 L644.7,214.0 L645.5,212.1 L646.3,203.6 L647.2,185.1 L648.0,160.9 L648.9,161.5 L649.7,170.9 L650.5,186.3 L651.4,180.7 L652.2,183.5 L653.1,218.4 L653.9,220.3 L654.8,225.9 L655.6,185.7 L656.4,184.8 L657.3,202.0 L658.1,203.9 L659.0,214.9 L659.8,198.3 L660.6,204.9 L661.5,186.0 L662.3,144.9 L663.2,170.0 L664.0,157.1 L664.9,155.9 L665.7,190.7 L666.5,181.3 L667.4,193.2 L668.2,232.5 L669.1,251.3 L669.9,252.0 L670.7,261.4 L671.6,244.8 L672.4,228.4 L673.3,245.1 L674.1,234.7 L675.0,258.3 L675.8,247.9 L676.6,232.2 L677.5,220.9 L678.3,222.1 L679.2,216.2 L680.0,208.0" stroke="#8c564b" stroke-width="2" fill="none" opacity="0.8"/>
<!-- Forecast Difference -->
<path d="M80.0,420.0 L80.8,420.0 L81.7,420.0 L82.5,420.0 L83.4,420.0 L84.2,420.0 L85.0,420.0 L85.9,420.0 L86.7,420.0 L87.6,420.0 L88.4,420.0 L89.3,420.0 L90.1,420.0 L90.9,420.0 L91.8,420.0 L92.6,420.0 L93.5,420.0 L94.3,420.0 L95.1,420.0 L96.0,420.0 L96.8,420.0 L97.7,420.0 L98.5,420.0 L99.4,420.0 L100.2,420.0 L101.0,420.0 L101.9,420.0 L102.7,420.0 L103.6,420.0 L104.4,420.0 L105.2,420.0 L106.1,420.0 L106.9,420.0 L107.8,420.0 L108.6,420.0 L109.5,420.0 L110.3,420.0 L111.1,420.0 L112.0,420.0 L112.8,420.0 L113.7,420.0 L114.5,420.0 L115.3,420.0 L116.2,420.0 L117.0,420.0 L117.9,420.0 L118.7,420.0 L119.6,420.0 L120.4,420.0 L121.2,420.0 L122.1,420.0 L122.9,420.0 L123.8,420.0 L124.6,420.0 L125.4,420.0 L126.3,420.0 L127.1,420.0 L128.0,420.0 L128.8,420.0 L129.6,420.0 L130.5,420.0 L131.3,420.0 L132.2,420.0 L133.0,420.0 L133.9,420.0 L134.7,420.0 L135.5,420.0 L136.4,420.0 L137.2,420.0 L138.1,420.0 L138.9,420.0 L139.7,420.0 L140.6,420.0 L141.4,420.0 L142.3,420.0 L143.1,420.0 L144.0,420.0 L144.8,420.0 L145.6,420.0 L146.5,420.0 L147.3,420.0 L148.2,420.0 L149.0,420.0 L149.8,420.0 L150.7,420.0 L151.5,420.0 L152.4,420.0 L153.2,420.0 L154.1,420.0 L154.9,420.0 L155.7,420.0 L156.6,420.0 L157.4,420.0 L158.3,420.0 L159.1,420.0 L159.9,420.0 L160.8,420.0 L161.6,420.0 L162.5,420.0 L163.3,420.0 L164.2,420.0 L165.0,420.0 L165.8,420.0 L166.7,420.0 L167.5,420.0 L168.4,420.0 L169.2,420.0 L170.0,420.0 L170.9,420.0 L171.7,420.0 L172.6,420.0 L173.4,420.0 L174.2,420.0 L175.1,420.0 L175.9,420.0 L176.8,420.0 L177.6,420.0 L178.5,420.0 L179.3,420.0 L180.1,420.0 L181.0,420.0 L181.8,420.0 L182.7,420.0 L183.5,420.0 L184.3,420.0 L185.2,420.0 L186.0,420.0 L186.9,420.0 L187.7,420.0 L188.6,420.0 L189.4,420.0 L190.2,420.0 L191.1,420.0 L191.9,420.0 L192.8,420.0 L193.6,420.0 L194.4,420.0 L195.3,420.0 L196.1,420.0 L197.0,420.0 L197.8,420.0 L198.7,420.0 L199.5,420.0 L200.3,420.0 L201.2,420.0 L202.0,420.0 L202.9,420.0 L203.7,420.0 L204.5,420.0 L205.4,420.0 L206.2,420.0 L207.1,420.0 L207.9,420.0 L208.8,420.0 L209.6,420.0 L210.4,420.0 L211.3,420.0 L212.1,420.0 L213.0,420.0 L213.8,420.0 L214.6,420.0 L215.5,420.0 L216.3,420.0 L217.2,420.0 L218.0,420.0 L218.8,420.0 L219.7,420.0 L220.5,420.0 L221.4,420.0 L222.2,420.0 L223.1,420.0 L223.9,420.0 L224.7,420.0 L225.6,420.0 L226.4,420.0 L227.3,420.0 L228.1,420.0 L228.9,420.0 L229.8,420.0 L230.6,420.0 L231.5,420.0 L232.3,420.0 L233.2,420.0 L234.0,420.0 L234.8,420.0 L235.7,420.0 L236.5,420.0 L237.4,420.0 L238.2,420.0 L239.0,420.0 L239.9,420.0 L240.7,420.0 L241.6,420.0 L242.4,420.0 L243.3,420.0 L244.1,420.0 L244.9,420.0 L245.8,420.0 L246.6,420.0 L247.5,420.0 L248.3,420.0 L249.1,420.0 L250.0,420.0 L250.8,420.0 L251.7,420.0 L252.5,420.0 L253.4,420.0 L254.2,420.0 L255.0,420.0 L255.9,420.0 L256.7,420.0 L257.6,420.0 L258.4,420.0 L259.2,420.0 L260.1,420.0 L260.9,420.0 L261.8,420.0 L262.6,420.0 L263.5,420.0 L264.3,420.0 L265.1,420.0 L266.0,420.0 L266.8,420.0 L267.7,420.0 L268.5,420.0 L269.3,420.0 L270.2,420.0 L271.0,420.0 L271.9,420.0 L272.7,420.0 L273.5,420.0 L274.4,420.0 L275.2,420.0 L276.1,420.0 L276.9,420.0 L277.8,420.0 L278.6,420.0 L279.4,420.0 L280.3,420.0 L281.1,420.0 L282.0,420.0 L282.8,420.0 L283.6,420.0 L284.5,420.0 L285.3,420.0 L286.2,420.0 L287.0,420.0 L287.9,420.0 L288.7,420.0 L289.5,420.0 L290.4,420.0 L291.2,420.0 L292.1,420.0 L292.9,420.0 L293.7,420.0 L294.6,420.0 L295.4,420.0 L296.3,420.0 L297.1,420.0 L298.0,420.0 L298.8,420.0 L299.6,420.0 L300.5,420.0 L301.3,420.0 L302.2,420.0 L303.0,420.0 L303.8,420.0 L304.7,420.0 L305.5,420.0 L306.4,420.0 L307.2,420.0 L308.1,420.0 L308.9,420.0 L309.7,420.0 L310.6,420.0 L311.4,420.0 L312.3,420.0 L313.1,420.0 L313.9,420.0 L314.8,420.0 L315.6,420.0 L316.5,420.0 L317.3,420.0 L318.1,420.0 L319.0,420.0 L319.8,420.0 L320.7,420.0 L321.5,420.0 L322.4,420.0 L323.2,420.0 L324.0,420.0 L324.9,420.0 L325.7,420.0 L326.6,420.0 L327.4,420.0 L328.2,420.0 L329.1,420.0 L329.9,420.0 L330.8,420.0 L331.6,420.0 L332.5,420.0 L333.3,420.0 L334.1,420.0 L335.0,420.0 L335.8,420.0 L336.7,420.0 L337.5,420.0 L338.3,420.0 L339.2,420.0 L340.0,420.0 L340.9,420.0 L341.7,420.0 L342.6,420.0 L343.4,420.0 L344.2,420.0 L345.1,420.0 L345.9,420.0 L346.8,420.0 L347.6,420.0 L348.4,420.0 L349.3,420.0 L350.1,420.0 L351.0,420.0 L351.8,420.0 L352.7,420.0 L353.5,420.0 L354.3,420.0 L355.2,420.0 L356.0,420.0 L356.9,420.0 L357.7,420.0 L358.5,420.0 L359.4,420.0 L360.2,420.0 L361.1,420.0 L361.9,420.0 L362.7,420.0 L363.6,420.0 L364.4,420.0 L365.3,420.0 L366.1,420.0 L367.0,420.0 L367.8,420.0 L368.6,420.0 L369.5,420.0 L370.3,420.0 L371.2,420.0 L372.0,420.0 L372.8,420.0 L373.7,420.0 L374.5,420.0 L375.4,420.0 L376.2,420.0 L377.1,420.0 L377.9,420.0 L378.7,420.0 L379.6,420.0 L380.4,420.0 L381.3,420.0 L382.1,420.0 L382.9,420.0 L383.8,420.0 L384.6,420.0 L385.5,420.0 L386.3,420.0 L387.2,420.0 L388.0,420.0 L388.8,420.0 L389.7,420.0 L390.5,420.0 L391.4,420.0 L392.2,420.0 L393.0,420.0 L393.9,420.0 L394.7,420.0 L395.6,420.0 L396.4,420.0 L397.3,420.0 L398.1,420.0 L398.9,420.0 L399.8,420.0 L400.6,420.0 L401.5,420.0 L402.3,420.0 L403.1,420.0 L404.0,420.0 L404.8,420.0 L405.7,420.0 L406.5,420.0 L407.3,420.0 L408.2,420.0 L409.0,420.0 L409.9,420.0 L410.7,420.0 L411.6,420.0 L412.4,420.0 L413.2,420.0 L414.1,420.0 L414.9,420.0 L415.8,420.0 L416.6,420.0 L417.4,420.0 L418.3,420.0 L419.1,420.0 L420.0,420.0 L420.8,420.0 L421.7,420.0 L422.5,420.0 L423.3,420.0 L424.2,420.0 L425.0,420.0 L425.9,420.0 L426.7,420.0 L427.5,420.0 L428.4,420.0 L429.2,420.0 L430.1,420.0 L430.9,420.0 L431.8,420.0 L432.6,420.0 L433.4,420.0 L434.3,420.0 L435.1,420.0 L436.0,420.0 L436.8,420.0 L437.6,420.0 L438.5,420.0 L439.3,420.0 L440.2,420.0 L441.0,420.0 L441.9,420.0 L442.7,420.0 L443.5,420.0 L444.4,420.0 L445.2,420.0 L446.1,420.0 L446.9,420.0 L447.7,420.0 L448.6,420.0 L449.4,420.0 L450.3,420.0 L451.1,420.0 L451.9,420.0 L452.8,420.0 L453.6,420.0 L454.5,420.0 L455.3,420.0 L456.2,420.0 L457.0,420.0 L457.8,420.0 L458.7,420.0 L459.5,420.0 L460.4,420.0 L461.2,420.0 L462.0,420.0 L462.9,420.0 L463.7,420.0 L464.6,420.0 L465.4,420.0 L466.3,420.0 L467.1,420.0 L467.9,420.0 L468.8,420.0 L469.6,420.0 L470.5,420.0 L471.3,420.0 L472.1,420.0 L473.0,420.0 L473.8,420.0 L474.7,420.0 L475.5,420.0 L476.4,420.0 L477.2,420.0 L478.0,420.0 L478.9,420.0 L479.7,420.0 L480.6,420.0 L481.4,420.0 L482.2,420.0 L483.1,420.0 L483.9,420.0 L484.8,420.0 L485.6,420.0 L486.5,420.0 L487.3,420.0 L488.1,420.0 L489.0,420.0 L489.8,420.0 L490.7,420.0 L491.5,420.0 L492.3,420.0 L493.2,420.0 L494.0,420.0 L494.9,420.0 L495.7,420.0 L496.5,420.0 L497.4,420.0 L498.2,420.0 L499.1,420.0 L499.9,420.0 L500.8,420.0 L501.6,420.0 L502.4,420.0 L503.3,420.0 L504.1,420.0 L505.0,420.0 L505.8,420.0 L506.6,420.0 L507.5,420.0 L508.3,420.0 L509.2,420.0 L510.0,420.0 L510.9,420.0 L511.7,420.0 L512.5,420.0 L513.4,420.0 L514.2,420.0 L515.1,420.0 L515.9,420.0 L516.7,420.0 L517.6,420.0 L518.4,420.0 L519.3,420.0 L520.1,420.0 L521.0,420.0 L521.8,420.0 L522.6,420.0 L523.5,420.0 L524.3,420.0 L525.2,420.0 L526.0,420.0 L526.8,420.0 L527.7,420.0 L528.5,420.0 L529.4,420.0 L530.2,420.0 L531.1,420.0 L531.9,420.0 L532.7,420.0 L533.6,420.0 L534.4,420.0 L535.3,420.0 L536.1,420.0 L536.9,420.0 L537.8,420.0 L538.6,420.0 L539.5,420.0 L540.3,420.0 L541.2,420.0 L542.0,420.0 L542.8,420.0 L543.7,420.0 L544.5,420.0 L545.4,420.0 L546.2,420.0 L547.0,420.0 L547.9,420.0 L548.7,420.0 L549.6,420.0 L550.4,420.0 L551.2,420.0 L552.1,420.0 L552.9,420.0 L553.8,420.0 L554.6,420.0 L555.5,420.0 L556.3,420.0 L557.1,420.0 L558.0,420.0 L558.8,420.0 L559.7,420.0 L560.5,420.0 L561.3,420.0 L562.2,420.0 L563.0,420.0 L563.9,420.0 L564.7,420.0 L565.6,420.0 L566.4,420.0 L567.2,420.0 L568.1,420.0 L568.9,420.0 L569.8,420.0 L570.6,420.0 L571.4,420.0 L572.3,420.0 L573.1,420.0 L574.0,420.0 L574.8,420.0 L575.7,420.0 L576.5,420.0 L577.3,420.0 L578.2,420.0 L579.0,420.0 L579.9,420.0 L580.7,420.0 L581.5,420.0 L582.4,420.0 L583.2,420.0 L584.1,420.0 L584.9,420.0 L585.8,420.0 L586.6,420.0 L587.4,420.0 L588.3,420.0 L589.1,420.0 L590.0,420.0 L590.8,420.0 L591.6,420.0 L592.5,420.0 L593.3,420.0 L594.2,420.0 L595.0,420.0 L595.8,420.0 L596.7,420.0 L597.5,420.0 L598.4,420.0 L599.2,420.0 L600.1,420.0 L600.9,420.0 L601.7,420.0 L602.6,420.0 L603.4,420.0 L604.3,420.0 L605.1,420.0 L605.9,420.0 L606.8,420.0 L607.6,420.0 L608.5,420.0 L609.3,420.0 L610.2,420.0 L611.0,420.0 L611.8,420.0 L612.7,420.0 L613.5,420.0 L614.4,420.0 L615.2,420.0 L616.0,420.0 L616.9,420.0 L617.7,420.0 L618.6,420.0 L619.4,420.0 L620.3,420.0 L621.1,420.0 L621.9,420.0 L622.8,420.0 L623.6,420.0 L624.5,420.0 L625.3,420.0 L626.1,420.0 L627.0,420.0 L627.8,420.0 L628.7,420.0 L629.5,420.0 L630.4,420.0 L631.2,420.0 L632.0,420.0 L632.9,420.0 L633.7,420.0 L634.6,420.0 L635.4,420.0 L636.2,420.0 L637.1,420.0 L637.9,420.0 L638.8,420.0 L639.6,420.0 L640.4,420.0 L641.3,420.0 L642.1,420.0 L643.0,420.0 L643.8,420.0 L644.7,420.0 L645.5,420.0 L646.3,420.0 L647.2,420.0 L648.0,420.0 L648.9,420.0 L649.7,420.0 L650.5,420.0 L651.4,420.0 L652.2,420.0 L653.1,420.0 L653.9,420.0 L654.8,420.0 L655.6,420.0 L656.4,420.0 L657.3,420.0 L658.1,420.0 L659.0,420.0 L659.8,420.0 L660.6,420.0 L661.5,420.0 L662.3,420.0 L663.2,420.0 L664.0,420.0 L664.9,420.0 L665.7,420.0 L666.5,420.0 L667.4,420.0 L668.2,420.0 L669.1,420.0 L669.9,420.0 L670.7,420.0 L671.6,420.0 L672.4,420.0 L673.3,420.0 L674.1,420.0 L675.0,420.0 L675.8,420.0 L676.6,420.0 L677.5,420.0 L678.3,420.0 L679.2,420.0 L680.0,420.0" stroke="#e377c2" stroke-width="2" fill="none" opacity="0.8"/>

<!-- Legend -->
<line x1="690" y1="70" x2="705" y2="70" stroke="#1f77b4" stroke-width="3"/>
<text x="710" y="74" class="legend">Wind Generation</text>
<line x1="690" y1="88" x2="705" y2="88" stroke="#ff7f0e" stroke-width="3"/>
<text x="710" y="92" class="legend">Hydro Generation</text>
<line x1="690" y1="106" x2="705" y2="106" stroke="#2ca02c" stroke-width="3"/>
<text x="710" y="110" class="legend">Thermal Generation</text>
<line x1="690" y1="124" x2="705" y2="124" stroke="#d62728" stroke-width="3"/>
<text x="710" y="128" class="legend">Solar Generation</text>
<line x1="690" y1="142" x2="705" y2="142" stroke="#9467bd" stroke-width="3"/>
<text x="710" y="146" class="legend">Forecast</text>
<line x1="690" y1="160" x2="705" y2="160" stroke="#8c564b" stroke-width="3"/>
<text x="710" y="164" class="legend">Total Generation</text>
<line x1="690" y1="178" x2="705" y2="178" stroke="#e377c2" stroke-width="3"/>
<text x="710" y="182" class="legend">Forecast Difference</text>

<!-- Date range -->
<text x="80" y="495" class="legend">Range: 04/08 - 05/08/2026 (714 records)</text>
</svg>