<?xml version="1.0" encoding="UTF-8"?>
<svg width="800" height="500" xmlns="http://www.w3.org/2000/svg">
<style>
.axis-line { stroke: #333; stroke-width: 1; }
.grid-line { stroke: #ddd; stroke-width: 0.5; }
.title { font: 16px Arial; text-anchor: middle; fill: #333; }
.axis-label { font: 12px Arial; text-anchor: middle; fill: #666; }
.legend { font: 10px Arial; fill: #333; }
</style>

<!-- Title -->
<text x="400.0" y="25" class="title">Northwestern Energy Generation Data - Past 30 Days</text>

<!-- Plot area background -->
<rect x="80" y="50" width="600" height="370" fill="white" stroke="#ddd"/>

<!-- Y-axis -->
<line x1="80" y1="50" x2="80" y2="420" class="axis-line"/>
<text x="30" y="235.0" class="axis-label" transform="rotate(-90, 30, 235.0)">Generation (MW)</text>

<!-- X-axis -->
<line x1="80" y1="420" x2="680" y2="420" class="axis-line"/>
<text x="380.0" y="480" class="axis-label">Time</text>
<line x1="80" y1="420.0" x2="680" y2="420.0" class="grid-line"/>
<text x="70" y="425.0" class="legend" text-anchor="end">0</text>
<line x1="80" y1="327.5" x2="680" y2="327.5" class="grid-line"/>
<text x="70" y="332.5" class="legend" text-anchor="end">259</text>
<line x1="80" y1="235.0" x2="680" y2="235.0" class="grid-line"/>
<text x="70" y="240.0" class="legend" text-anchor="end">518</text>
<line x1="80" y1="142.5" x2="680" y2="142.5" class="grid-line"/>
<text x="70" y="147.5" class="legend" text-anchor="end">777</text>
<line x1="80" y1="50.0" x2="680" y2="50.0" class="grid-line"/>
<text x="70" y="55.0" class="legend" text-anchor="end">1036</text>
<!-- Wind Generation -->
<path d="M80.0,385.0 L80.8,389.7 L81.7,373.9 L82.5,380.0 L83.4,368.6 L84.2,352.9 L85.0,363.6 L85.9,381.8 L86.7,400.7 L87.6,405.7 L88.4,403.2 L89.3,408.6 L90.1,416.4 L90.9,415.7 L91.8,418.9 L92.6,419.6 L93.5,419.6 L94.3,420.0 L95.1,420.0 L96.0,419.6 L96.8,418.9 L97.7,418.9 L98.5,420.0 L99.4,420.0 L100.2,418.6 L101.0,410.4 L101.9,401.1 L102.7,396.4 L103.6,397.9 L104.4,386.4 L105.2,384.3 L106.1,375.7 L106.9,375.4 L107.8,347.2 L108.6,376.8 L109.5,350.0 L110.3,366.8 L111.1,401.4 L112.0,408.9 L112.8,409.3 L113.7,413.9 L114.5,403.2 L115.3,400.0 L116.2,408.6 L117.0,410.4 L117.9,414.6 L118.7,417.5 L119.6,419.6 L120.4,419.3 L121.2,420.0 L122.1,420.0 L122.9,419.3 L123.8,419.6 L124.6,418.2 L125.4,416.1 L126.3,418.9 L127.1,402.1 L128.0,400.4 L128.8,398.2 L129.6,406.1 L130.5,404.3 L131.3,399.3 L132.2,397.5 L133.0,412.1 L133.9,416.4 L134.7,407.1 L135.5,409.3 L136.4,415.7 L137.2,413.2 L138.1,364.7 L138.9,390.4 L139.7,405.0 L140.6,383.2 L141.4,411.4 L142.3,415.0 L143.1,416.8 L144.0,416.8 L144.8,412.1 L145.6,406.1 L146.5,402.9 L147.3,407.5 L148.2,413.9 L149.0,417.5 L149.8,413.6 L150.7,415.0 L151.5,412.9 L152.4,417.9 L153.2,417.9 L154.1,419.6 L154.9,420.0 L155.7,419.3 L156.6,418.9 L157.4,410.7 L158.3,407.5 L159.1,418.6 L159.9,419.3 L160.8,419.3 L161.6,420.0 L162.5,418.6 L163.3,417.5 L164.2,401.1 L165.0,390.7 L165.8,344.7 L166.7,385.7 L167.5,391.4 L168.4,396.8 L169.2,409.3 L170.0,407.5 L170.9,402.9 L171.7,397.5 L172.6,404.6 L173.4,415.4 L174.2,418.6 L175.1,418.2 L175.9,418.6 L176.8,414.3 L177.6,408.6 L178.5,402.5 L179.3,413.9 L180.1,413.9 L181.0,412.5 L181.8,412.9 L182.7,415.7 L183.5,416.8 L184.3,418.6 L185.2,418.9 L186.0,417.1 L186.9,413.9 L187.7,414.6 L188.6,410.7 L189.4,416.1 L190.2,414.6 L191.1,417.5 L191.9,413.2 L192.8,412.9 L193.6,412.5 L194.4,412.1 L195.3,407.9 L196.1,398.6 L197.0,401.4 L197.8,404.6 L198.7,398.9 L199.5,403.2 L200.3,398.2 L201.2,378.9 L202.0,363.9 L202.9,367.2 L203.7,345.4 L204.5,352.9 L205.4,361.8 L206.2,375.7 L207.1,394.7 L207.9,405.4 L208.8,416.1 L209.6,412.5 L210.4,391.1 L211.3,283.3 L212.1,307.5 L213.0,310.4 L213.8,343.6 L214.6,337.9 L215.5,326.8 L216.3,336.1 L217.2,308.3 L218.0,314.7 L218.8,339.7 L219.7,363.6 L220.5,366.4 L221.4,364.3 L222.2,355.4 L223.1,358.9 L223.9,370.4 L224.7,363.9 L225.6,377.9 L226.4,390.7 L227.3,368.2 L228.1,373.6 L228.9,370.4 L229.8,368.6 L230.6,370.4 L231.5,355.0 L232.3,353.6 L233.2,359.7 L234.0,345.7 L234.8,339.3 L235.7,337.9 L236.5,331.5 L237.4,378.9 L238.2,392.9 L239.0,392.5 L239.9,380.0 L240.7,390.4 L241.6,397.5 L242.4,389.7 L243.3,385.0 L244.1,398.6 L244.9,383.9 L245.8,379.7 L246.6,392.2 L247.5,402.1 L248.3,397.2 L249.1,399.6 L250.0,391.1 L250.8,407.9 L251.7,410.7 L252.5,415.7 L253.4,406.4 L254.2,403.2 L255.0,395.0 L255.9,407.1 L256.7,401.1 L257.6,398.6 L258.4,396.8 L259.2,398.6 L260.1,409.3 L260.9,416.4 L261.8,419.3 L262.6,420.0 L263.5,419.6 L264.3,420.0 L265.1,419.6 L266.0,420.0 L266.8,420.0 L267.7,420.0 L268.5,418.2 L269.3,402.1 L270.2,400.0 L271.0,405.7 L271.9,405.7 L272.7,408.2 L273.5,412.1 L274.4,418.9 L275.2,419.6 L276.1,419.3 L276.9,418.6 L277.8,416.8 L278.6,417.9 L279.4,417.1 L280.3,415.4 L281.1,416.8 L282.0,417.9 L282.8,417.5 L283.6,418.2 L284.5,414.3 L285.3,414.3 L286.2,411.8 L287.0,406.4 L287.9,399.6 L288.7,394.7 L289.5,365.4 L290.4,350.4 L291.2,373.6 L292.1,406.4 L292.9,412.5 L293.7,417.1 L294.6,420.0 L295.4,420.0 L296.3,419.3 L297.1,419.3 L298.0,417.1 L298.8,417.1 L299.6,418.2 L300.5,416.8 L301.3,420.0 L302.2,417.9 L303.0,416.8 L303.8,416.1 L304.7,417.1 L305.5,417.5 L306.4,418.6 L307.2,415.4 L308.1,410.4 L308.9,406.8 L309.7,393.9 L310.6,387.9 L311.4,392.2 L312.3,400.0 L313.1,406.4 L313.9,414.6 L314.8,417.9 L315.6,419.6 L316.5,419.3 L317.3,418.2 L318.1,416.8 L319.0,413.2 L319.8,411.1 L320.7,409.3 L321.5,416.1 L322.4,415.7 L323.2,407.5 L324.0,390.7 L324.9,373.2 L325.7,376.8 L326.6,377.5 L327.4,360.4 L328.2,353.6 L329.1,371.4 L329.9,383.2 L330.8,388.9 L331.6,396.4 L332.5,375.0 L333.3,390.4 L334.1,381.4 L335.0,371.8 L335.8,372.2 L336.7,345.0 L337.5,360.0 L338.3,360.4 L339.2,361.8 L340.0,367.9 L340.9,374.7 L341.7,385.4 L342.6,375.7 L343.4,378.9 L344.2,382.2 L345.1,387.5 L345.9,396.8 L346.8,400.0 L347.6,407.5 L348.4,409.6 L349.3,349.7 L350.1,287.9 L351.0,284.7 L351.8,292.9 L352.7,332.9 L353.5,341.8 L354.3,332.2 L355.2,321.5 L356.0,327.9 L356.9,335.7 L357.7,327.5 L358.5,339.0 L359.4,313.3 L360.2,341.5 L361.1,348.6 L361.9,342.5 L362.7,349.0 L363.6,366.4 L364.4,356.8 L365.3,346.1 L366.1,331.8 L367.0,344.7 L367.8,349.7 L368.6,365.7 L369.5,389.3 L370.3,398.9 L371.2,392.2 L372.0,404.6 L372.8,410.0 L373.7,411.1 L374.5,410.4 L375.4,412.9 L376.2,412.5 L377.1,404.3 L377.9,400.7 L378.7,406.4 L379.6,398.9 L380.4,390.0 L381.3,399.3 L382.1,404.6 L382.9,395.4 L383.8,398.9 L384.6,407.5 L385.5,411.8 L386.3,415.0 L387.2,417.1 L388.0,417.1 L388.8,415.4 L389.7,411.8 L390.5,403.6 L391.4,402.1 L392.2,402.5 L393.0,406.8 L393.9,401.1 L394.7,397.9 L395.6,395.0 L396.4,390.4 L397.3,382.9 L398.1,362.9 L398.9,351.5 L399.8,354.3 L400.6,336.1 L401.5,327.9 L402.3,318.2 L404.0,341.8 L404.8,345.0 L405.7,334.0 L406.5,348.6 L407.3,356.8 L408.2,356.5 L409.0,345.7 L409.9,349.3 L410.7,370.4 L411.6,394.7 L412.4,405.4 L413.2,407.1 L414.1,400.4 L414.9,386.1 L415.8,374.7 L416.6,368.2 L417.4,345.0 L418.3,353.2 L419.1,372.2 L420.0,402.1 L420.8,410.0 L421.7,414.6 L422.5,416.4 L423.3,417.5 L424.2,416.8 L425.0,412.9 L425.9,412.9 L426.7,406.4 L427.5,399.3 L428.4,394.7 L429.2,385.7 L430.1,380.0 L430.9,380.0 L431.8,391.1 L432.6,395.4 L433.4,384.7 L434.3,350.7 L435.1,323.6 L436.0,303.3 L436.8,295.8 L437.6,330.7 L438.5,313.3 L439.3,309.7 L440.2,304.7 L441.0,307.5 L441.9,301.5 L442.7,323.2 L443.5,319.7 L444.4,297.2 L445.2,313.6 L446.1,320.0 L446.9,325.7 L447.7,277.5 L448.6,294.7 L449.4,316.8 L450.3,368.6 L451.1,370.4 L451.9,369.7 L452.8,376.8 L453.6,366.8 L454.5,373.6 L455.3,351.5 L456.2,324.3 L457.0,306.1 L457.8,295.8 L458.7,294.7 L459.5,291.1 L460.4,306.5 L461.2,331.5 L462.0,342.5 L462.9,331.8 L463.7,346.5 L464.6,361.1 L465.4,388.6 L466.3,403.2 L467.1,406.8 L467.9,406.8 L468.8,410.4 L469.6,410.4 L470.5,401.4 L471.3,389.7 L472.1,392.9 L473.0,399.6 L473.8,412.9 L474.7,417.5 L475.5,414.6 L476.4,411.4 L477.2,413.2 L478.0,404.3 L478.9,398.6 L479.7,382.2 L480.6,366.4 L481.4,365.4 L482.2,370.0 L483.1,386.1 L483.9,376.1 L484.8,371.8 L485.6,368.2 L486.5,373.2 L487.3,373.9 L488.1,381.4 L489.0,375.7 L489.8,355.0 L490.7,350.7 L491.5,351.1 L492.3,361.1 L493.2,384.7 L494.0,387.2 L494.9,380.0 L495.7,395.4 L496.5,405.0 L497.4,407.1 L498.2,412.5 L499.1,413.6 L499.9,417.9 L500.8,417.9 L501.6,418.2 L502.4,418.9 L503.3,419.6 L504.1,416.4 L505.0,413.2 L505.8,412.9 L506.6,410.0 L507.5,407.1 L508.3,404.3 L509.2,404.6 L510.0,380.4 L510.9,383.9 L511.7,383.2 L512.5,391.8 L513.4,406.1 L514.2,413.9 L515.1,397.2 L515.9,406.8 L516.7,408.9 L517.6,402.1 L518.4,402.9 L519.3,408.2 L520.1,413.9 L521.0,413.9 L521.8,411.1 L522.6,403.9 L523.5,397.2 L524.3,379.7 L525.2,370.7 L526.0,325.0 L526.8,296.1 L527.7,303.3 L528.5,295.8 L529.4,289.7 L530.2,317.5 L531.1,335.0 L531.9,343.2 L532.7,356.1 L533.6,386.8 L534.4,370.7 L535.3,354.7 L536.1,360.4 L536.9,345.0 L537.8,365.0 L538.6,357.9 L539.5,360.0 L540.3,360.7 L541.2,347.5 L542.0,341.1 L542.8,343.6 L543.7,311.8 L547.0,330.0 L547.9,315.0 L548.7,331.1 L549.6,366.8 L550.4,387.2 L551.2,402.5 L552.1,412.1 L552.9,417.9 L553.8,418.6 L554.6,415.7 L555.5,406.8 L556.3,409.6 L557.1,411.1 L558.0,415.0 L558.8,399.6 L559.7,410.0 L560.5,402.1 L561.3,405.0 L562.2,402.1 L563.0,405.0 L563.9,400.0 L564.7,396.8 L565.6,407.1 L566.4,398.9 L567.2,411.8 L568.1,419.6 L568.9,420.0 L569.8,415.7 L570.6,409.6 L571.4,414.6 L572.3,399.3 L573.1,393.6 L574.0,401.8 L574.8,401.4 L575.7,408.2 L576.5,416.4 L577.3,415.7 L578.2,416.4 L579.0,413.6 L579.9,410.4 L580.7,391.1 L581.5,410.7 L582.4,403.9 L583.2,378.9 L584.1,378.9 L584.9,367.2 L585.8,376.4 L586.6,387.2 L587.4,378.2 L588.3,376.1 L589.1,377.5 L590.0,346.1 L590.8,339.7 L591.6,356.5 L592.5,353.2 L593.3,351.1 L594.2,380.7 L595.0,375.7 L595.8,385.4 L596.7,377.2 L597.5,392.2 L598.4,404.3 L599.2,400.4 L600.1,379.7 L600.9,377.5 L601.7,359.3 L602.6,363.9 L603.4,375.0 L604.3,374.3 L605.1,380.4 L605.9,377.9 L606.8,380.4 L607.6,384.3 L608.5,389.7 L609.3,406.1 L610.2,409.6 L611.0,402.1 L611.8,391.1 L612.7,392.5 L613.5,392.5 L614.4,367.2 L615.2,352.9 L616.0,346.1 L616.9,345.0 L617.7,347.2 L618.6,355.7 L619.4,354.0 L620.3,339.3 L621.1,328.6 L621.9,317.2 L622.8,325.0 L623.6,335.7 L624.5,350.7 L625.3,356.5 L626.1,360.7 L627.0,366.1 L627.8,362.2 L628.7,368.6 L629.5,378.9 L630.4,392.9 L631.2,399.3 L632.0,411.8 L632.9,417.1 L633.7,418.6 L634.6,418.6 L635.4,416.4 L636.2,412.9 L637.1,410.4 L637.9,407.9 L638.8,405.4 L639.6,403.2 L640.4,402.5 L641.3,393.2 L642.1,381.4 L643.0,371.1 L643.8,387.2 L644.7,380.0 L645.5,377.5 L646.3,350.7 L647.2,326.8 L648.0,335.7 L648.9,345.7 L649.7,350.7 L650.5,342.2 L651.4,337.2 L652.2,379.3 L653.1,396.1 L653.9,406.8 L654.8,416.8 L655.6,413.2 L656.4,413.6 L657.3,411.8 L658.1,404.6 L659.0,400.7 L659.8,400.4 L660.6,393.2 L661.5,388.2 L662.3,388.2 L663.2,386.1 L664.0,395.4 L664.9,393.6 L665.7,399.6 L666.5,403.6 L667.4,408.6 L668.2,406.1 L669.1,406.1 L669.9,402.9 L670.7,403.6 L671.6,395.4 L672.4,383.9 L673.3,378.9 L674.1,389.3 L675.0,392.5 L675.8,390.7 L676.6,393.6 L677.5,392.2 L678.3,386.1 L679.2,392.5 L680.0,396.8" stroke="#1f77b4" stroke-width="2" fill="none" opacity="0.8"/>
<!-- Hydro Generation -->
<path d="M80.0,343.2 L80.8,343.6 L81.7,343.2 L82.5,342.9 L83.4,344.0 L84.2,343.2 L85.0,343.2 L85.9,343.6 L86.7,342.9 L87.6,342.5 L88.4,342.5 L89.3,342.5 L90.1,342.9 L90.9,342.5 L91.8,342.9 L92.6,343.6 L93.5,343.6 L94.3,343.6 L95.1,344.0 L96.0,343.2 L96.8,343.2 L97.7,344.0 L98.5,344.0 L99.4,343.6 L100.2,343.2 L101.0,343.2 L101.9,342.9 L102.7,343.6 L103.6,343.2 L104.4,342.5 L105.2,342.2 L106.1,342.2 L106.9,343.2 L107.8,342.9 L108.6,343.2 L109.5,344.0 L110.3,344.7 L111.1,344.7 L112.0,344.7 L112.8,345.0 L113.7,344.7 L114.5,344.7 L115.3,344.7 L116.2,344.3 L117.0,344.0 L117.9,344.0 L118.7,344.0 L119.6,344.0 L120.4,345.7 L121.2,345.7 L122.1,345.0 L122.9,345.4 L123.8,346.1 L124.6,346.5 L125.4,345.7 L126.3,345.7 L127.1,346.1 L128.0,346.5 L128.8,346.1 L129.6,346.8 L130.5,346.8 L131.3,347.5 L132.2,347.2 L133.0,347.2 L133.9,347.2 L134.7,346.8 L135.5,347.5 L136.4,347.2 L137.2,346.8 L138.1,347.5 L138.9,346.8 L139.7,346.1 L140.6,345.7 L141.4,345.7 L142.3,346.5 L143.1,346.1 L144.0,346.5 L144.8,345.4 L145.6,346.1 L146.5,345.4 L147.3,345.7 L148.2,345.7 L149.0,346.5 L149.8,346.5 L150.7,346.5 L151.5,346.1 L152.4,346.5 L153.2,346.5 L154.1,346.5 L154.9,346.8 L155.7,346.5 L156.6,346.8 L157.4,346.8 L158.3,346.8 L159.1,346.5 L159.9,346.5 L160.8,346.5 L161.6,346.1 L162.5,346.5 L163.3,346.5 L164.2,346.1 L165.0,346.1 L165.8,345.7 L166.7,346.1 L167.5,345.7 L168.4,346.1 L169.2,347.5 L170.0,347.5 L170.9,347.5 L171.7,347.5 L172.6,347.5 L173.4,347.5 L174.2,347.5 L175.1,347.5 L175.9,347.5 L176.8,347.2 L177.6,347.2 L178.5,348.2 L179.3,348.2 L180.1,347.5 L181.0,347.9 L181.8,347.9 L182.7,348.2 L183.5,348.2 L184.3,347.5 L185.2,347.5 L186.0,346.8 L186.9,346.8 L187.7,346.5 L188.6,346.1 L189.4,346.1 L190.2,345.0 L191.1,345.0 L191.9,343.6 L192.8,343.6 L193.6,343.2 L194.4,343.2 L195.3,343.6 L196.1,343.6 L197.0,342.9 L197.8,342.9 L198.7,342.2 L199.5,341.8 L200.3,342.2 L201.2,341.8 L202.0,341.8 L202.9,342.2 L203.7,342.5 L204.5,345.0 L205.4,345.0 L206.2,344.7 L207.1,344.3 L207.9,344.0 L208.8,344.3 L209.6,344.3 L210.4,345.0 L211.3,344.3 L212.1,344.3 L213.0,344.3 L213.8,342.2 L214.6,342.2 L215.5,342.2 L216.3,342.2 L217.2,341.8 L218.0,342.2 L218.8,350.4 L219.7,350.7 L220.5,349.3 L221.4,349.7 L222.2,349.7 L223.1,349.7 L223.9,350.7 L224.7,350.7 L225.6,351.1 L226.4,351.1 L227.3,350.0 L228.1,349.7 L228.9,349.3 L229.8,349.3 L230.6,348.6 L231.5,349.3 L232.3,349.3 L233.2,348.2 L234.0,349.0 L234.8,347.9 L235.7,348.2 L236.5,348.2 L237.4,348.6 L238.2,349.0 L239.0,348.6 L239.9,348.6 L240.7,349.7 L241.6,351.5 L242.4,350.7 L243.3,351.1 L244.1,351.8 L244.9,353.6 L245.8,353.6 L246.6,353.6 L247.5,352.9 L248.3,352.9 L249.1,353.2 L250.0,354.0 L250.8,354.0 L251.7,353.6 L252.5,354.3 L253.4,353.6 L254.2,353.2 L255.0,352.9 L255.9,351.8 L256.7,351.5 L257.6,352.2 L258.4,351.1 L259.2,352.2 L260.1,352.2 L260.9,352.2 L261.8,351.1 L262.6,351.5 L263.5,351.8 L264.3,351.1 L265.1,351.5 L266.0,351.1 L266.8,351.1 L267.7,351.1 L268.5,351.1 L269.3,351.1 L270.2,351.1 L271.0,351.5 L271.9,351.1 L272.7,351.5 L273.5,351.5 L274.4,351.5 L275.2,351.1 L276.1,351.8 L276.9,352.2 L277.8,352.9 L278.6,352.5 L279.4,354.0 L280.3,354.0 L281.1,353.6 L282.0,354.0 L282.8,354.3 L283.6,355.4 L284.5,355.4 L285.3,356.1 L286.2,356.5 L287.0,356.5 L287.9,356.5 L288.7,356.8 L289.5,357.2 L290.4,357.2 L291.2,357.2 L292.1,357.2 L292.9,356.8 L293.7,357.2 L294.6,357.2 L295.4,357.2 L296.3,357.2 L297.1,357.2 L298.0,356.5 L298.8,356.8 L299.6,356.8 L300.5,356.8 L301.3,355.7 L302.2,355.4 L303.0,355.7 L303.8,355.7 L304.7,355.7 L305.5,354.7 L306.4,355.0 L307.2,355.0 L308.1,354.3 L308.9,354.7 L309.7,355.0 L310.6,354.7 L311.4,354.3 L312.3,354.3 L313.1,354.7 L313.9,354.3 L314.8,354.0 L315.6,354.0 L316.5,354.0 L317.3,354.3 L318.1,354.0 L319.0,354.3 L319.8,355.4 L320.7,355.0 L321.5,355.0 L322.4,355.4 L323.2,355.7 L324.0,355.4 L324.9,355.4 L325.7,355.7 L326.6,355.7 L327.4,356.5 L328.2,357.2 L329.1,357.5 L329.9,357.9 L330.8,358.6 L331.6,358.2 L332.5,358.6 L333.3,358.6 L334.1,358.9 L335.0,358.9 L335.8,358.9 L336.7,358.9 L337.5,358.9 L338.3,358.6 L339.2,358.9 L340.0,359.3 L340.9,359.3 L341.7,358.9 L342.6,359.3 L343.4,358.6 L344.2,358.6 L345.1,358.6 L345.9,357.9 L346.8,357.5 L347.6,357.2 L348.4,356.8 L349.3,357.5 L350.1,357.5 L351.0,357.5 L351.8,357.5 L352.7,357.5 L353.5,357.9 L354.3,357.9 L355.2,358.2 L356.0,358.2 L356.9,358.9 L357.7,358.9 L358.5,358.9 L359.4,359.3 L360.2,360.0 L361.1,360.0 L361.9,360.0 L362.7,359.3 L363.6,359.7 L364.4,359.3 L365.3,360.0 L366.1,360.0 L367.0,359.7 L367.8,360.0 L368.6,359.7 L369.5,359.3 L370.3,359.3 L371.2,358.6 L372.0,357.2 L372.8,356.8 L373.7,357.2 L374.5,358.9 L375.4,358.9 L376.2,358.9 L377.1,358.6 L377.9,358.9 L378.7,358.9 L379.6,358.9 L380.4,358.9 L381.3,358.9 L382.1,358.6 L382.9,358.6 L383.8,358.6 L384.6,358.6 L385.5,358.9 L386.3,358.9 L387.2,358.6 L388.0,358.6 L388.8,358.2 L389.7,357.9 L390.5,358.2 L391.4,358.2 L392.2,359.7 L393.0,359.7 L393.9,360.0 L394.7,359.7 L395.6,359.7 L396.4,359.7 L397.3,359.7 L398.1,359.3 L398.9,359.7 L399.8,359.3 L400.6,360.0 L401.5,359.7 L402.3,359.7 L404.0,360.0 L404.8,359.7 L405.7,359.3 L406.5,360.0 L407.3,360.0 L408.2,360.0 L409.0,360.0 L409.9,360.0 L410.7,360.4 L411.6,358.9 L412.4,358.9 L413.2,357.9 L414.1,357.9 L414.9,359.7 L415.8,359.7 L416.6,359.7 L417.4,359.7 L418.3,359.7 L419.1,359.7 L420.0,359.7 L420.8,359.7 L421.7,360.0 L422.5,360.0 L423.3,359.7 L424.2,360.0 L425.0,360.0 L425.9,359.7 L426.7,359.3 L427.5,360.0 L428.4,359.3 L429.2,359.7 L430.1,359.7 L430.9,359.7 L431.8,358.9 L432.6,357.9 L433.4,357.9 L434.3,357.9 L435.1,358.2 L436.0,357.9 L436.8,357.5 L437.6,358.6 L438.5,358.6 L439.3,358.9 L440.2,358.6 L441.0,358.9 L441.9,358.9 L442.7,359.3 L443.5,358.9 L444.4,359.3 L445.2,360.0 L446.1,360.4 L446.9,360.4 L447.7,360.4 L448.6,360.0 L449.4,359.7 L450.3,360.0 L451.1,360.4 L451.9,360.0 L452.8,360.0 L453.6,360.0 L454.5,360.4 L455.3,360.4 L456.2,360.4 L457.0,360.0 L457.8,360.0 L458.7,360.0 L459.5,360.0 L460.4,360.4 L461.2,360.0 L462.0,360.4 L462.9,360.0 L463.7,360.4 L464.6,360.4 L465.4,360.0 L466.3,360.0 L467.1,360.0 L467.9,360.4 L468.8,360.0 L469.6,360.0 L470.5,360.0 L471.3,360.4 L472.1,358.9 L473.0,358.6 L473.8,355.7 L474.7,358.6 L475.5,360.0 L476.4,360.0 L477.2,361.4 L478.0,361.1 L478.9,361.1 L479.7,360.4 L480.6,360.0 L481.4,360.4 L482.2,360.0 L483.1,360.0 L483.9,360.4 L484.8,360.4 L485.6,360.0 L486.5,360.0 L487.3,359.7 L488.1,359.7 L489.0,360.0 L489.8,359.7 L490.7,360.0 L491.5,360.0 L492.3,360.0 L493.2,360.4 L494.0,360.4 L494.9,360.4 L495.7,360.4 L496.5,360.0 L497.4,360.0 L498.2,360.4 L499.1,360.0 L499.9,360.0 L500.8,359.7 L501.6,360.4 L502.4,360.0 L503.3,359.7 L504.1,359.7 L505.0,359.7 L505.8,359.7 L506.6,360.0 L507.5,359.7 L508.3,356.8 L509.2,360.0 L510.0,360.4 L510.9,359.7 L511.7,360.0 L512.5,360.4 L513.4,360.0 L514.2,360.0 L515.1,360.4 L515.9,360.0 L516.7,360.0 L517.6,360.0 L518.4,360.0 L519.3,363.2 L520.1,359.7 L521.0,359.7 L521.8,359.3 L522.6,359.3 L523.5,358.9 L524.3,359.3 L525.2,359.7 L526.0,359.7 L526.8,358.6 L527.7,359.3 L528.5,358.9 L529.4,358.9 L530.2,358.9 L531.1,358.9 L531.9,358.6 L532.7,358.9 L533.6,359.3 L534.4,358.9 L535.3,358.9 L536.1,358.6 L536.9,358.9 L537.8,358.9 L538.6,358.6 L539.5,358.9 L540.3,359.7 L541.2,358.9 L542.0,358.6 L542.8,358.6 L543.7,357.9 L547.0,357.5 L547.9,357.2 L548.7,356.8 L549.6,357.2 L550.4,356.8 L551.2,356.5 L552.1,356.5 L552.9,356.8 L553.8,356.8 L554.6,357.2 L555.5,356.8 L556.3,356.8 L557.1,356.8 L558.0,356.8 L558.8,357.2 L559.7,356.8 L560.5,357.9 L561.3,357.2 L562.2,357.5 L563.0,357.5 L563.9,358.2 L564.7,358.9 L565.6,358.9 L566.4,358.6 L567.2,358.9 L568.1,358.6 L568.9,358.2 L569.8,358.9 L570.6,358.2 L571.4,358.6 L572.3,358.6 L573.1,358.6 L574.0,358.9 L574.8,358.6 L575.7,358.6 L576.5,358.2 L577.3,358.2 L578.2,358.2 L579.0,358.6 L579.9,358.2 L580.7,357.9 L581.5,357.9 L582.4,358.6 L583.2,357.9 L584.1,358.2 L584.9,358.6 L585.8,357.2 L586.6,357.2 L587.4,357.2 L588.3,356.8 L589.1,356.8 L590.0,356.5 L590.8,356.5 L591.6,357.2 L592.5,357.2 L593.3,357.5 L594.2,357.5 L595.0,357.5 L595.8,357.5 L596.7,357.2 L597.5,357.2 L598.4,357.2 L599.2,357.2 L600.1,357.2 L600.9,357.2 L601.7,356.8 L602.6,357.2 L603.4,357.5 L604.3,357.2 L605.1,357.2 L605.9,357.5 L606.8,357.5 L607.6,357.9 L608.5,357.9 L609.3,357.5 L610.2,357.9 L611.0,358.2 L611.8,358.6 L612.7,357.9 L613.5,358.2 L614.4,358.2 L615.2,358.2 L616.0,358.2 L616.9,358.2 L617.7,357.5 L618.6,357.9 L619.4,357.9 L620.3,357.5 L621.1,357.5 L621.9,357.5 L622.8,357.5 L623.6,356.1 L624.5,355.7 L625.3,354.7 L626.1,354.7 L627.0,355.0 L627.8,355.0 L628.7,355.0 L629.5,355.4 L630.4,356.5 L631.2,357.5 L632.0,357.5 L632.9,357.2 L633.7,356.8 L634.6,356.8 L635.4,356.8 L636.2,356.8 L637.1,357.2 L637.9,357.5 L638.8,356.8 L639.6,356.5 L640.4,356.1 L641.3,356.1 L642.1,356.1 L643.0,356.5 L643.8,355.4 L644.7,355.0 L645.5,355.0 L646.3,355.7 L647.2,355.4 L648.0,355.4 L648.9,355.0 L649.7,355.4 L650.5,355.4 L651.4,355.0 L652.2,355.7 L653.1,355.4 L653.9,356.1 L654.8,355.7 L655.6,355.7 L656.4,356.5 L657.3,356.8 L658.1,356.5 L659.0,356.5 L659.8,356.1 L660.6,356.8 L661.5,356.5 L662.3,357.2 L663.2,356.8 L664.0,357.2 L664.9,357.2 L665.7,356.5 L666.5,356.5 L667.4,356.1 L668.2,355.7 L669.1,355.7 L669.9,355.0 L670.7,355.0 L671.6,354.3 L672.4,355.0 L673.3,354.7 L674.1,354.7 L675.0,355.0 L675.8,355.4 L676.6,355.0 L677.5,355.0 L678.3,355.4 L679.2,355.7 L680.0,356.1" stroke="#ff7f0e" stroke-width="2" fill="none" opacity="0.8"/>
<!-- Thermal Generation -->
<path d="M80.0,350.7 L80.8,335.7 L81.7,322.9 L82.5,323.6 L83.4,325.7 L84.2,332.5 L85.0,327.5 L85.9,354.3 L86.7,353.2 L87.6,351.8 L88.4,351.5 L89.3,351.1 L90.1,319.3 L90.9,319.3 L91.8,318.2 L92.6,342.5 L93.5,341.5 L94.3,341.5 L95.1,342.5 L96.0,329.0 L96.8,319.7 L97.7,317.9 L98.5,318.2 L99.4,319.7 L100.2,306.5 L101.0,321.1 L101.9,306.5 L102.7,314.0 L103.6,316.1 L104.4,308.3 L105.2,309.0 L106.1,311.1 L106.9,310.4 L107.8,310.0 L108.6,309.0 L109.5,309.0 L110.3,315.0 L111.1,327.5 L112.0,327.9 L112.8,321.1 L113.7,321.5 L114.5,321.5 L115.3,306.8 L116.2,307.9 L117.0,305.8 L117.9,278.6 L118.7,292.2 L119.6,303.3 L120.4,308.3 L121.2,308.6 L122.1,309.0 L122.9,301.1 L123.8,285.8 L124.6,287.2 L125.4,297.9 L126.3,288.3 L127.1,286.8 L128.0,284.3 L128.8,281.1 L129.6,291.8 L130.5,304.7 L131.3,309.3 L132.2,309.3 L133.0,308.6 L133.9,307.9 L134.7,307.5 L135.5,309.0 L136.4,308.6 L137.2,294.7 L138.1,297.9 L138.9,301.8 L139.7,302.9 L140.6,301.5 L141.4,309.3 L142.3,310.8 L143.1,300.0 L144.0,300.4 L144.8,296.8 L145.6,290.8 L146.5,297.9 L147.3,286.5 L148.2,285.4 L149.0,287.9 L149.8,284.3 L150.7,296.5 L151.5,287.9 L152.4,295.0 L153.2,307.2 L154.1,306.8 L154.9,306.1 L155.7,305.4 L156.6,306.1 L157.4,292.2 L158.3,291.5 L159.1,305.4 L159.9,306.8 L160.8,307.9 L161.6,326.5 L162.5,318.6 L163.3,310.4 L164.2,310.0 L165.0,315.7 L165.8,338.6 L166.7,346.5 L167.5,346.1 L168.4,336.1 L169.2,335.4 L170.0,333.6 L170.9,326.8 L171.7,327.2 L172.6,326.8 L173.4,329.7 L174.2,329.3 L175.1,332.5 L175.9,328.6 L176.8,329.0 L177.6,329.3 L178.5,329.3 L179.3,336.1 L180.1,346.1 L181.0,348.6 L181.8,347.5 L182.7,348.6 L183.5,347.5 L184.3,346.8 L185.2,346.8 L186.0,336.1 L186.9,337.5 L187.7,336.1 L188.6,336.1 L189.4,339.7 L190.2,340.7 L191.1,342.2 L191.9,344.0 L192.8,335.4 L193.6,343.2 L194.4,344.7 L195.3,346.5 L196.1,345.7 L197.0,345.7 L197.8,347.2 L198.7,347.2 L199.5,352.2 L200.3,354.0 L201.2,354.3 L202.0,353.6 L202.9,355.4 L203.7,356.5 L204.5,357.2 L205.4,357.2 L206.2,357.2 L207.1,357.9 L207.9,357.2 L208.8,356.5 L209.6,345.4 L210.4,331.5 L211.3,344.3 L212.1,355.4 L213.0,354.7 L213.8,355.0 L214.6,355.7 L215.5,354.0 L216.3,354.0 L217.2,354.0 L218.0,354.0 L218.8,353.2 L219.7,352.2 L220.5,352.5 L221.4,353.6 L222.2,346.1 L223.1,336.1 L223.9,352.5 L224.7,354.3 L225.6,334.3 L226.4,321.5 L227.3,319.0 L228.1,317.5 L228.9,315.7 L229.8,317.2 L230.6,326.1 L231.5,326.1 L232.3,351.5 L233.2,350.7 L234.0,350.4 L234.8,351.1 L235.7,351.8 L236.5,350.4 L237.4,351.8 L238.2,351.1 L239.0,351.1 L239.9,351.8 L240.7,352.2 L241.6,352.9 L242.4,352.2 L243.3,352.2 L244.1,352.2 L244.9,352.9 L245.8,319.0 L246.6,335.7 L247.5,340.0 L248.3,316.1 L249.1,316.1 L250.0,315.7 L250.8,349.3 L251.7,348.2 L252.5,348.6 L253.4,348.6 L254.2,349.0 L255.0,348.6 L255.9,348.6 L256.7,348.2 L257.6,348.2 L258.4,348.6 L259.2,349.0 L260.1,349.0 L260.9,350.0 L261.8,352.2 L262.6,354.0 L263.5,354.3 L264.3,358.9 L265.1,360.0 L266.0,338.2 L266.8,327.2 L267.7,344.0 L268.5,322.5 L269.3,320.7 L270.2,327.2 L271.0,350.4 L271.9,349.7 L272.7,349.3 L273.5,350.0 L274.4,349.0 L275.2,348.2 L276.1,348.6 L276.9,348.6 L277.8,347.9 L278.6,347.5 L279.4,347.5 L280.3,348.6 L281.1,349.7 L282.0,350.7 L282.8,328.2 L283.6,352.9 L284.5,350.7 L285.3,354.0 L286.2,343.6 L287.0,325.0 L287.9,330.7 L288.7,323.6 L289.5,321.1 L290.4,324.3 L291.2,350.0 L292.1,349.3 L292.9,349.3 L293.7,348.6 L294.6,348.2 L295.4,347.2 L296.3,346.8 L297.1,347.2 L298.0,346.8 L298.8,346.5 L299.6,348.6 L300.5,349.0 L301.3,349.3 L302.2,350.4 L303.0,351.8 L303.8,352.2 L304.7,350.7 L305.5,354.0 L306.4,353.6 L307.2,331.1 L308.1,322.9 L308.9,322.5 L309.7,319.3 L310.6,318.6 L311.4,328.2 L312.3,331.5 L313.1,317.5 L313.9,316.5 L314.8,316.1 L315.6,348.6 L316.5,349.7 L317.3,349.3 L318.1,349.0 L319.0,316.8 L319.8,342.5 L320.7,350.0 L321.5,352.2 L322.4,353.2 L323.2,354.7 L324.0,355.0 L324.9,355.7 L325.7,346.1 L326.6,357.2 L327.4,325.4 L328.2,334.7 L329.1,304.7 L329.9,289.0 L330.8,302.2 L331.6,321.1 L332.5,313.6 L333.3,314.3 L334.1,314.3 L335.0,333.2 L335.8,332.9 L336.7,334.0 L337.5,333.2 L338.3,333.2 L339.2,329.0 L340.0,328.6 L340.9,329.7 L341.7,330.4 L342.6,331.8 L343.4,335.7 L344.2,335.0 L345.1,326.8 L345.9,320.4 L346.8,320.7 L347.6,320.7 L348.4,310.0 L349.3,307.2 L350.1,306.5 L351.0,318.2 L351.8,319.3 L352.7,317.5 L353.5,317.9 L354.3,319.0 L355.2,316.5 L356.0,316.5 L356.9,317.2 L357.7,317.5 L358.5,317.2 L359.4,314.7 L360.2,316.5 L361.1,315.4 L361.9,309.3 L362.7,308.3 L363.6,309.3 L364.4,312.9 L365.3,314.7 L366.1,315.7 L367.0,315.0 L367.8,314.0 L368.6,314.0 L369.5,294.7 L370.3,283.6 L371.2,281.8 L372.0,305.0 L372.8,313.3 L373.7,313.6 L374.5,313.3 L375.4,314.0 L376.2,313.6 L377.1,313.3 L377.9,312.5 L378.7,312.2 L379.6,311.8 L380.4,294.3 L381.3,302.5 L382.1,302.2 L382.9,312.5 L383.8,312.9 L384.6,314.0 L385.5,314.7 L386.3,315.4 L387.2,314.3 L388.0,284.7 L388.8,284.7 L389.7,280.4 L390.5,284.7 L391.4,284.7 L392.2,284.0 L393.0,284.7 L393.9,304.7 L394.7,303.3 L395.6,313.3 L396.4,312.9 L397.3,312.9 L398.1,313.6 L398.9,314.7 L399.8,283.3 L400.6,282.2 L401.5,307.5 L402.3,313.3 L404.0,316.8 L404.8,318.6 L405.7,320.0 L406.5,319.3 L407.3,319.7 L408.2,319.3 L409.0,319.3 L409.9,293.6 L410.7,289.7 L411.6,289.7 L412.4,289.7 L413.2,316.1 L414.1,315.4 L414.9,314.0 L415.8,316.1 L416.6,315.7 L417.4,317.9 L418.3,317.2 L419.1,315.7 L420.0,313.6 L420.8,312.2 L421.7,311.5 L422.5,312.2 L423.3,312.2 L424.2,312.2 L425.0,312.9 L425.9,314.0 L426.7,316.1 L427.5,316.5 L428.4,315.7 L429.2,307.2 L430.1,293.3 L430.9,305.4 L431.8,305.8 L432.6,310.4 L433.4,316.1 L434.3,316.8 L435.1,316.1 L436.0,315.7 L436.8,316.1 L437.6,316.1 L438.5,315.4 L439.3,315.7 L440.2,314.7 L441.0,314.7 L441.9,315.0 L442.7,315.7 L443.5,317.5 L444.4,317.9 L445.2,317.2 L446.1,317.9 L446.9,317.5 L447.7,316.5 L448.6,315.0 L449.4,316.8 L450.3,316.1 L451.1,316.8 L451.9,316.5 L452.8,316.1 L453.6,322.9 L454.5,325.0 L455.3,325.4 L456.2,327.5 L457.0,327.9 L457.8,327.5 L458.7,326.5 L459.5,326.1 L460.4,325.7 L461.2,325.7 L462.0,326.5 L462.9,325.4 L463.7,325.7 L464.6,325.7 L465.4,325.4 L466.3,324.3 L467.1,325.7 L467.9,326.1 L468.8,325.7 L469.6,325.0 L470.5,298.3 L471.3,308.6 L472.1,308.3 L473.0,326.8 L473.8,363.2 L474.7,362.9 L475.5,363.6 L476.4,363.6 L477.2,363.6 L478.0,362.9 L478.9,363.6 L479.7,363.2 L480.6,364.3 L481.4,364.3 L482.2,361.8 L483.1,362.5 L483.9,361.4 L484.8,352.2 L485.6,353.2 L486.5,342.2 L487.3,332.2 L488.1,332.5 L489.0,325.4 L489.8,325.0 L490.7,292.5 L491.5,324.0 L492.3,325.7 L493.2,326.8 L494.0,326.5 L494.9,326.1 L495.7,326.1 L496.5,325.0 L497.4,325.4 L498.2,325.4 L499.1,325.7 L499.9,324.7 L500.8,324.0 L501.6,324.7 L502.4,326.5 L503.3,325.4 L504.1,297.5 L505.0,298.3 L505.8,325.7 L506.6,303.3 L507.5,295.0 L508.3,293.6 L509.2,324.7 L510.0,324.0 L510.9,324.7 L511.7,324.3 L512.5,324.3 L513.4,325.0 L514.2,325.7 L515.1,325.7 L515.9,325.7 L516.7,325.0 L517.6,325.4 L518.4,325.4 L519.3,325.4 L520.1,325.0 L521.0,325.0 L521.8,325.4 L522.6,325.7 L523.5,326.8 L524.3,326.8 L525.2,325.0 L526.0,327.2 L526.8,325.7 L527.7,383.2 L528.5,382.5 L529.4,371.8 L530.2,357.9 L531.1,311.8 L531.9,294.0 L532.7,296.8 L533.6,320.0 L534.4,325.0 L535.3,325.4 L536.1,322.9 L536.9,323.2 L537.8,323.6 L538.6,324.0 L539.5,323.6 L540.3,324.0 L541.2,317.2 L542.0,324.7 L542.8,325.0 L543.7,324.3 L547.0,379.3 L547.9,368.9 L548.7,354.7 L549.6,322.5 L550.4,322.2 L551.2,284.7 L552.1,284.0 L552.9,282.2 L553.8,281.8 L554.6,281.8 L555.5,285.4 L556.3,283.6 L557.1,292.9 L558.0,310.0 L558.8,310.0 L559.7,310.0 L560.5,317.5 L561.3,282.9 L562.2,282.5 L563.0,323.6 L563.9,323.2 L564.7,301.1 L565.6,309.0 L566.4,314.7 L567.2,300.0 L568.1,302.2 L568.9,307.2 L569.8,305.0 L570.6,282.9 L571.4,279.0 L572.3,279.3 L573.1,279.7 L574.0,280.4 L574.8,284.7 L575.7,293.3 L576.5,278.3 L577.3,284.3 L578.2,309.3 L579.0,312.5 L579.9,303.3 L580.7,296.1 L581.5,279.0 L582.4,286.5 L583.2,297.2 L584.1,296.1 L584.9,309.0 L585.8,290.0 L586.6,300.8 L587.4,319.7 L588.3,322.5 L589.1,323.2 L590.0,315.4 L590.8,322.2 L591.6,279.3 L592.5,297.5 L593.3,316.5 L594.2,306.5 L595.0,302.9 L595.8,310.4 L596.7,311.8 L597.5,289.3 L598.4,289.7 L599.2,310.0 L600.1,307.5 L600.9,309.7 L601.7,299.3 L602.6,294.3 L603.4,325.4 L604.3,291.5 L605.1,305.4 L605.9,310.4 L606.8,290.8 L607.6,301.8 L608.5,300.0 L609.3,297.2 L610.2,290.0 L611.0,288.3 L611.8,286.8 L612.7,287.2 L613.5,290.4 L614.4,296.5 L615.2,305.4 L616.0,285.8 L616.9,284.7 L617.7,308.3 L618.6,308.6 L619.4,287.2 L620.3,304.7 L621.1,285.8 L621.9,276.8 L622.8,280.0 L623.6,275.8 L624.5,322.9 L625.3,325.0 L626.1,317.9 L627.0,310.8 L627.8,319.7 L628.7,323.6 L629.5,307.5 L630.4,280.8 L631.2,273.6 L632.0,275.8 L632.9,278.3 L633.7,275.8 L634.6,274.3 L635.4,274.7 L636.2,279.0 L637.1,275.4 L637.9,280.4 L638.8,278.6 L639.6,278.3 L640.4,284.3 L641.3,275.8 L642.1,276.5 L643.0,275.8 L643.8,294.7 L644.7,326.5 L645.5,325.4 L646.3,326.8 L647.2,325.4 L648.0,326.8 L648.9,326.8 L649.7,326.8 L650.5,306.1 L651.4,284.0 L652.2,274.7 L653.1,274.7 L653.9,275.4 L654.8,279.3 L655.6,274.7 L656.4,275.4 L657.3,273.6 L658.1,274.7 L659.0,290.8 L659.8,295.8 L660.6,291.5 L661.5,272.5 L662.3,275.4 L663.2,272.2 L664.0,304.3 L664.9,320.0 L665.7,323.6 L666.5,323.2 L667.4,324.7 L668.2,324.0 L669.1,324.3 L669.9,324.0 L670.7,320.7 L671.6,273.3 L672.4,272.2 L673.3,272.2 L674.1,272.2 L675.0,272.2 L675.8,279.7 L676.6,300.8 L677.5,309.3 L678.3,310.4 L679.2,319.7 L680.0,321.1" stroke="#2ca02c" stroke-width="2" fill="none" opacity="0.8"/>
<!-- Solar Generation -->
<path d="M80.0,371.1 L80.8,386.8 L81.7,377.5 L82.5,385.4 L83.4,377.2 L84.2,381.8 L85.0,376.8 L85.9,386.8 L86.7,405.4 L87.6,419.6 L88.4,420.0 L89.3,420.0 L90.1,420.0 L90.9,420.0 L91.8,420.0 L92.6,420.0 L93.5,420.0 L94.3,420.0 L95.1,420.0 L96.0,420.0 L96.8,420.0 L97.7,414.6 L98.5,408.2 L99.4,400.0 L100.2,398.2 L101.0,393.6 L101.9,380.4 L102.7,385.7 L103.6,385.0 L104.4,386.4 L105.2,391.8 L106.1,403.2 L106.9,417.5 L107.8,420.0 L108.6,420.0 L109.5,420.0 L110.3,420.0 L111.1,420.0 L112.0,420.0 L112.8,420.0 L113.7,420.0 L114.5,420.0 L115.3,420.0 L116.2,420.0 L117.0,420.0 L117.9,414.3 L118.7,387.5 L119.6,391.1 L120.4,385.0 L121.2,385.4 L122.1,379.7 L122.9,384.3 L123.8,376.1 L124.6,395.0 L125.4,402.9 L126.3,407.1 L127.1,417.1 L128.0,420.0 L128.8,420.0 L129.6,420.0 L130.5,420.0 L131.3,420.0 L132.2,420.0 L133.0,420.0 L133.9,420.0 L134.7,420.0 L135.5,420.0 L136.4,420.0 L137.2,420.0 L138.1,417.5 L138.9,413.6 L139.7,395.0 L140.6,391.1 L141.4,391.1 L142.3,390.4 L143.1,387.5 L144.0,394.3 L144.8,403.9 L145.6,410.4 L146.5,412.5 L147.3,417.1 L148.2,420.0 L149.0,420.0 L149.8,420.0 L150.7,420.0 L151.5,420.0 L152.4,420.0 L153.2,420.0 L154.1,420.0 L154.9,420.0 L155.7,420.0 L156.6,420.0 L157.4,420.0 L158.3,410.7 L159.1,386.8 L159.9,373.9 L160.8,371.1 L161.6,373.2 L162.5,381.4 L163.3,373.2 L164.2,383.6 L165.0,392.2 L165.8,382.9 L166.7,405.0 L167.5,416.1 L168.4,420.0 L169.2,420.0 L170.0,420.0 L170.9,420.0 L171.7,420.0 L172.6,420.0 L173.4,420.0 L174.2,420.0 L175.1,420.0 L175.9,420.0 L176.8,420.0 L177.6,420.0 L178.5,418.6 L179.3,395.7 L180.1,386.8 L181.0,380.4 L181.8,378.6 L182.7,376.1 L183.5,373.9 L184.3,386.1 L185.2,401.8 L186.0,402.5 L186.9,396.8 L187.7,414.6 L188.6,420.0 L189.4,420.0 L190.2,420.0 L191.1,420.0 L191.9,420.0 L192.8,420.0 L193.6,420.0 L194.4,420.0 L195.3,420.0 L196.1,420.0 L197.0,420.0 L197.8,420.0 L198.7,410.7 L199.5,377.5 L200.3,397.2 L201.2,396.8 L202.0,389.3 L202.9,378.2 L203.7,398.2 L204.5,394.7 L205.4,391.4 L206.2,407.5 L207.1,417.5 L207.9,418.2 L208.8,420.0 L209.6,420.0 L210.4,420.0 L211.3,420.0 L212.1,420.0 L213.0,420.0 L213.8,420.0 L214.6,420.0 L215.5,420.0 L216.3,420.0 L217.2,420.0 L218.0,420.0 L218.8,415.7 L219.7,383.6 L220.5,387.9 L221.4,393.6 L222.2,399.6 L223.1,403.9 L223.9,388.2 L224.7,390.4 L225.6,411.4 L226.4,411.4 L227.3,415.0 L228.1,417.9 L228.9,420.0 L229.8,420.0 L230.6,420.0 L231.5,420.0 L232.3,420.0 L233.2,420.0 L234.0,420.0 L234.8,420.0 L235.7,420.0 L236.5,420.0 L237.4,420.0 L238.2,420.0 L239.0,413.9 L239.9,406.1 L240.7,402.5 L241.6,391.4 L242.4,398.2 L243.3,392.9 L244.1,379.3 L244.9,391.8 L245.8,392.5 L246.6,413.6 L247.5,407.9 L248.3,416.8 L249.1,420.0 L250.0,420.0 L250.8,420.0 L251.7,420.0 L252.5,420.0 L253.4,420.0 L254.2,420.0 L255.0,420.0 L255.9,420.0 L256.7,420.0 L257.6,420.0 L258.4,420.0 L259.2,416.1 L260.1,391.4 L260.9,375.7 L261.8,375.7 L262.6,375.7 L263.5,373.9 L264.3,378.6 L265.1,377.9 L266.0,376.4 L266.8,380.4 L267.7,385.4 L268.5,411.4 L269.3,420.0 L270.2,420.0 L271.0,420.0 L271.9,420.0 L272.7,420.0 L273.5,420.0 L274.4,420.0 L275.2,420.0 L276.1,420.0 L276.9,420.0 L277.8,420.0 L278.6,420.0 L279.4,413.2 L280.3,384.3 L281.1,373.2 L282.0,371.4 L282.8,372.9 L283.6,376.1 L284.5,373.2 L285.3,372.9 L286.2,372.9 L287.0,374.7 L287.9,384.3 L288.7,412.9 L289.5,420.0 L290.4,420.0 L291.2,420.0 L292.1,420.0 L292.9,420.0 L293.7,420.0 L294.6,420.0 L295.4,420.0 L296.3,420.0 L297.1,420.0 L298.0,420.0 L298.8,420.0 L299.6,412.9 L300.5,388.2 L301.3,392.2 L302.2,377.5 L303.0,378.2 L303.8,378.6 L304.7,380.7 L305.5,379.3 L306.4,374.7 L307.2,379.3 L308.1,396.8 L308.9,412.5 L309.7,420.0 L310.6,420.0 L311.4,420.0 L312.3,420.0 L313.1,420.0 L313.9,420.0 L314.8,420.0 L315.6,420.0 L316.5,420.0 L317.3,420.0 L318.1,420.0 L319.0,420.0 L319.8,414.3 L320.7,384.7 L321.5,372.5 L322.4,371.1 L323.2,372.5 L324.0,373.6 L324.9,372.5 L325.7,373.9 L326.6,376.1 L327.4,381.4 L328.2,395.4 L329.1,412.9 L329.9,420.0 L330.8,420.0 L331.6,420.0 L332.5,420.0 L333.3,420.0 L334.1,420.0 L335.0,420.0 L335.8,420.0 L336.7,420.0 L337.5,420.0 L338.3,420.0 L339.2,420.0 L340.0,415.4 L340.9,390.0 L341.7,383.6 L342.6,383.9 L343.4,373.9 L344.2,387.9 L345.1,385.4 L345.9,378.6 L346.8,397.2 L347.6,399.6 L348.4,408.9 L349.3,418.9 L350.1,420.0 L351.0,420.0 L351.8,420.0 L352.7,420.0 L353.5,420.0 L354.3,420.0 L355.2,420.0 L356.0,420.0 L356.9,420.0 L357.7,420.0 L358.5,420.0 L359.4,420.0 L360.2,419.3 L361.1,397.5 L361.9,410.4 L362.7,389.7 L363.6,388.6 L364.4,406.1 L365.3,383.9 L366.1,381.1 L367.0,386.1 L367.8,401.4 L368.6,398.6 L369.5,413.6 L370.3,420.0 L371.2,420.0 L372.0,420.0 L372.8,420.0 L373.7,420.0 L374.5,420.0 L375.4,420.0 L376.2,420.0 L377.1,420.0 L377.9,420.0 L378.7,420.0 L379.6,420.0 L380.4,413.6 L381.3,382.2 L382.1,370.4 L382.9,370.4 L383.8,371.4 L384.6,372.9 L385.5,372.9 L386.3,371.1 L387.2,370.0 L388.0,370.7 L388.8,384.3 L389.7,413.9 L390.5,420.0 L391.4,420.0 L392.2,420.0 L393.0,420.0 L393.9,420.0 L394.7,420.0 L395.6,420.0 L396.4,420.0 L397.3,420.0 L398.1,420.0 L398.9,420.0 L399.8,420.0 L400.6,413.9 L401.5,382.5 L402.3,369.7 L403.1,420.0 L404.0,371.4 L404.8,373.2 L405.7,373.2 L406.5,371.4 L407.3,370.0 L408.2,370.7 L409.0,385.0 L409.9,414.6 L410.7,420.0 L411.6,420.0 L412.4,420.0 L413.2,420.0 L414.1,420.0 L414.9,420.0 L415.8,420.0 L416.6,420.0 L417.4,420.0 L418.3,420.0 L419.1,420.0 L420.0,420.0 L420.8,414.6 L421.7,383.6 L422.5,370.7 L423.3,370.7 L424.2,372.9 L425.0,374.3 L425.9,374.3 L426.7,372.5 L427.5,370.7 L428.4,371.4 L429.2,387.5 L430.1,415.4 L430.9,420.0 L431.8,420.0 L432.6,420.0 L433.4,420.0 L434.3,420.0 L435.1,420.0 L436.0,420.0 L436.8,420.0 L437.6,420.0 L438.5,420.0 L439.3,420.0 L440.2,420.0 L441.0,418.9 L441.9,386.8 L442.7,372.5 L443.5,371.4 L444.4,373.2 L445.2,375.7 L446.1,374.7 L446.9,373.9 L447.7,376.8 L448.6,382.2 L449.4,398.9 L450.3,417.9 L451.1,420.0 L451.9,420.0 L452.8,420.0 L453.6,420.0 L454.5,420.0 L455.3,420.0 L456.2,420.0 L457.0,420.0 L457.8,420.0 L458.7,420.0 L459.5,420.0 L460.4,420.0 L461.2,416.1 L462.0,387.9 L462.9,371.8 L463.7,371.1 L464.6,373.6 L465.4,374.7 L466.3,375.0 L467.1,372.9 L467.9,371.4 L468.8,372.9 L469.6,390.4 L470.5,416.8 L471.3,420.0 L472.1,420.0 L473.0,420.0 L473.8,420.0 L474.7,420.0 L475.5,420.0 L476.4,420.0 L477.2,420.0 L478.0,420.0 L478.9,420.0 L479.7,420.0 L480.6,420.0 L481.4,415.7 L482.2,389.7 L483.1,372.5 L483.9,371.8 L484.8,376.1 L485.6,376.4 L486.5,374.7 L487.3,375.0 L488.1,407.1 L489.0,371.1 L489.8,408.6 L490.7,415.0 L491.5,420.0 L492.3,420.0 L493.2,420.0 L494.0,420.0 L494.9,420.0 L495.7,420.0 L496.5,420.0 L497.4,420.0 L498.2,420.0 L499.1,420.0 L499.9,420.0 L500.8,420.0 L501.6,418.9 L502.4,409.3 L503.3,385.4 L504.1,379.7 L505.0,375.7 L505.8,377.5 L506.6,375.4 L507.5,393.9 L508.3,396.8 L509.2,397.9 L510.0,416.1 L510.9,418.6 L511.7,420.0 L512.5,420.0 L513.4,420.0 L514.2,420.0 L515.1,420.0 L515.9,420.0 L516.7,420.0 L517.6,420.0 L518.4,420.0 L519.3,420.0 L520.1,420.0 L521.0,420.0 L521.8,417.9 L522.6,415.4 L523.5,396.8 L524.3,375.4 L525.2,377.9 L526.0,381.8 L526.8,377.9 L527.7,383.2 L528.5,398.6 L529.4,414.6 L530.2,410.7 L531.1,419.6 L531.9,420.0 L532.7,420.0 L533.6,420.0 L534.4,420.0 L535.3,420.0 L536.1,420.0 L536.9,420.0 L537.8,420.0 L538.6,420.0 L539.5,420.0 L540.3,420.0 L541.2,420.0 L542.0,419.3 L542.8,400.0 L543.7,408.6 L544.5,420.0 L545.4,420.0 L546.2,420.0 L547.0,392.5 L547.9,378.9 L548.7,378.9 L549.6,399.6 L550.4,407.1 L551.2,419.3 L552.1,420.0 L552.9,420.0 L553.8,420.0 L554.6,420.0 L555.5,420.0 L556.3,420.0 L557.1,420.0 L558.0,420.0 L558.8,420.0 L559.7,420.0 L560.5,420.0 L561.3,420.0 L562.2,417.9 L563.0,401.8 L563.9,397.2 L564.7,403.9 L565.6,407.1 L566.4,410.0 L567.2,396.1 L568.1,394.3 L568.9,414.6 L569.8,404.3 L570.6,401.8 L571.4,419.6 L572.3,420.0 L573.1,420.0 L574.0,420.0 L574.8,420.0 L575.7,420.0 L576.5,420.0 L577.3,420.0 L578.2,420.0 L579.0,420.0 L579.9,420.0 L580.7,420.0 L581.5,420.0 L582.4,418.6 L583.2,411.4 L584.1,407.1 L584.9,398.2 L585.8,394.7 L586.6,387.5 L587.4,381.4 L588.3,396.1 L589.1,407.5 L590.0,416.4 L590.8,416.4 L591.6,419.6 L592.5,420.0 L593.3,420.0 L594.2,420.0 L595.0,420.0 L595.8,420.0 L596.7,420.0 L597.5,420.0 L598.4,420.0 L599.2,420.0 L600.1,420.0 L600.9,420.0 L601.7,420.0 L602.6,420.0 L603.4,418.2 L604.3,415.4 L605.1,411.1 L605.9,412.1 L606.8,405.4 L607.6,405.4 L608.5,407.1 L609.3,407.5 L610.2,416.1 L611.0,418.6 L611.8,419.6 L612.7,420.0 L613.5,420.0 L614.4,420.0 L615.2,420.0 L616.0,420.0 L616.9,420.0 L617.7,420.0 L618.6,420.0 L619.4,420.0 L620.3,420.0 L621.1,420.0 L621.9,420.0 L622.8,420.0 L623.6,418.2 L624.5,416.8 L625.3,405.0 L626.1,407.1 L627.0,402.5 L627.8,401.1 L628.7,405.0 L629.5,408.9 L630.4,409.6 L631.2,415.0 L632.0,419.6 L632.9,420.0 L633.7,420.0 L634.6,420.0 L635.4,420.0 L636.2,420.0 L637.1,420.0 L637.9,420.0 L638.8,420.0 L639.6,420.0 L640.4,420.0 L641.3,420.0 L642.1,420.0 L643.0,418.2 L643.8,390.7 L644.7,371.8 L645.5,371.1 L646.3,375.4 L647.2,376.1 L648.0,374.7 L648.9,372.2 L649.7,370.4 L650.5,371.8 L651.4,396.8 L652.2,419.3 L653.1,420.0 L653.9,420.0 L654.8,420.0 L655.6,420.0 L656.4,420.0 L657.3,420.0 L658.1,420.0 L659.0,420.0 L659.8,420.0 L660.6,420.0 L661.5,420.0 L662.3,420.0 L663.2,418.2 L664.0,391.4 L664.9,372.2 L665.7,372.2 L666.5,375.0 L667.4,377.2 L668.2,376.8 L669.1,374.3 L669.9,372.2 L670.7,373.9 L671.6,398.9 L672.4,419.6 L673.3,420.0 L674.1,420.0 L675.0,420.0 L675.8,420.0 L676.6,420.0 L677.5,420.0 L678.3,420.0 L679.2,420.0 L680.0,420.0" stroke="#d62728" stroke-width="2" fill="none" opacity="0.8"/>
<!-- Forecast -->
<path d="M80.0,121.2 L80.8,113.0 L81.7,111.2 L82.5,110.8 L83.4,111.2 L84.2,111.9 L85.0,116.2 L85.9,123.0 L86.7,135.1 L87.6,159.0 L88.4,175.4 L89.3,95.8 L90.1,160.4 L90.9,180.4 L91.8,199.7 L92.6,211.1 L93.5,219.0 L94.3,224.7 L95.1,223.6 L96.0,212.6 L96.8,189.4 L97.7,162.6 L98.5,136.2 L99.4,122.2 L100.2,115.8 L101.0,108.7 L101.9,104.0 L102.7,100.1 L103.6,93.7 L104.4,84.4 L105.2,80.8 L106.1,84.4 L106.9,92.3 L107.8,107.6 L108.6,119.4 L109.5,123.3 L110.3,141.5 L111.1,170.8 L112.0,196.9 L112.8,210.4 L113.7,219.7 L114.5,224.7 L115.3,224.0 L116.2,212.9 L117.0,189.0 L117.9,161.9 L118.7,136.5 L119.6,123.0 L120.4,116.2 L121.2,108.7 L122.1,102.3 L122.9,94.8 L123.8,84.8 L124.6,71.9 L125.4,67.6 L126.3,73.0 L127.1,85.5 L128.0,105.5 L128.8,114.7 L129.6,119.4 L130.5,140.5 L131.3,188.3 L132.2,211.9 L133.0,223.6 L133.9,232.9 L134.7,235.1 L135.5,233.6 L136.4,222.9 L137.2,187.9 L138.1,153.7 L138.9,132.2 L139.7,122.2 L140.6,124.7 L141.4,124.0 L142.3,122.2 L143.1,123.7 L144.0,125.8 L144.8,120.5 L145.6,122.2 L146.5,124.0 L147.3,122.2 L148.2,117.2 L149.0,117.2 L149.8,136.5 L150.7,165.4 L151.5,194.7 L152.4,214.7 L153.2,226.9 L154.1,234.7 L154.9,236.8 L155.7,235.1 L156.6,222.6 L157.4,188.3 L158.3,152.6 L159.1,132.6 L159.9,128.3 L160.8,131.2 L161.6,128.7 L162.5,126.5 L163.3,128.7 L164.2,130.5 L165.0,126.2 L165.8,125.5 L166.7,125.1 L167.5,123.7 L168.4,119.0 L169.2,118.3 L170.0,137.2 L170.9,165.8 L171.7,203.3 L172.6,218.6 L173.4,228.6 L174.2,234.0 L175.1,237.6 L175.9,239.3 L176.8,236.5 L177.6,221.9 L178.5,205.8 L179.3,185.8 L180.1,168.3 L181.0,159.4 L181.8,157.2 L182.7,165.1 L183.5,164.7 L184.3,163.7 L185.2,160.8 L186.0,150.4 L186.9,147.9 L187.7,150.1 L188.6,147.6 L189.4,150.1 L190.2,162.2 L191.1,184.0 L191.9,206.1 L192.8,222.2 L193.6,233.3 L194.4,240.1 L195.3,243.3 L196.1,240.1 L197.0,236.5 L197.8,223.3 L198.7,211.9 L199.5,200.1 L200.3,180.1 L201.2,168.7 L202.0,166.2 L202.9,160.1 L203.7,160.1 L204.5,161.9 L205.4,153.3 L206.2,139.0 L207.1,126.9 L207.9,126.2 L208.8,123.0 L209.6,128.7 L210.4,146.9 L211.3,174.0 L212.1,197.6 L213.0,215.1 L213.8,226.5 L214.6,234.7 L215.5,236.8 L216.3,235.1 L217.2,222.6 L218.0,188.3 L218.8,151.9 L219.7,132.2 L220.5,127.2 L221.4,128.3 L222.2,128.0 L223.1,128.0 L223.9,130.5 L224.7,131.9 L225.6,129.7 L226.4,128.7 L227.3,128.7 L228.1,127.2 L228.9,123.3 L229.8,121.9 L230.6,142.2 L231.5,171.9 L232.3,198.6 L233.2,217.2 L234.0,228.6 L234.8,235.4 L235.7,237.6 L236.5,235.4 L237.4,222.2 L238.2,187.6 L239.0,150.8 L239.9,132.2 L240.7,130.8 L241.6,130.5 L242.4,140.1 L243.3,142.2 L244.1,149.7 L244.9,143.0 L245.8,144.4 L246.6,144.4 L247.5,149.7 L248.3,158.3 L249.1,173.7 L250.0,185.1 L250.8,187.2 L251.7,186.9 L252.5,212.2 L253.4,229.4 L254.2,255.8 L255.0,262.2 L255.9,261.5 L256.7,261.1 L257.6,233.3 L258.4,226.5 L259.2,192.9 L260.1,180.1 L260.9,162.2 L261.8,142.6 L262.6,134.4 L263.5,133.7 L264.3,135.1 L265.1,128.7 L266.0,119.7 L266.8,115.8 L267.7,113.3 L268.5,116.5 L269.3,115.8 L270.2,116.9 L271.0,136.9 L271.9,165.8 L272.7,195.4 L273.5,216.5 L274.4,228.6 L275.2,235.4 L276.1,237.6 L276.9,235.8 L277.8,221.9 L278.6,187.6 L279.4,199.4 L280.3,201.9 L281.1,184.0 L282.0,163.3 L282.8,154.4 L283.6,153.3 L284.5,153.7 L285.3,154.0 L286.2,152.9 L287.0,151.9 L287.9,152.2 L288.7,163.3 L289.5,177.9 L290.4,187.9 L291.2,187.2 L292.1,186.2 L292.9,196.1 L293.7,243.3 L294.6,235.8 L295.4,235.8 L296.3,237.6 L297.1,235.8 L298.0,222.2 L298.8,187.9 L299.6,151.5 L300.5,132.2 L301.3,130.5 L302.2,133.0 L303.0,128.0 L303.8,124.0 L304.7,123.0 L305.5,117.6 L306.4,110.8 L307.2,108.7 L308.1,107.6 L308.9,111.5 L309.7,111.9 L310.6,114.0 L311.4,132.6 L312.3,162.6 L313.1,205.1 L313.9,220.1 L314.8,229.4 L315.6,234.7 L316.5,237.9 L317.3,239.7 L318.1,235.8 L319.0,221.9 L319.8,206.5 L320.7,189.0 L321.5,173.3 L322.4,165.8 L323.2,164.0 L324.0,159.4 L324.9,157.2 L325.7,151.5 L326.6,139.4 L327.4,135.1 L328.2,129.0 L329.1,131.5 L329.9,143.7 L330.8,149.7 L331.6,163.3 L332.5,185.4 L333.3,207.9 L334.1,225.4 L335.0,235.8 L335.8,243.3 L336.7,246.1 L337.5,242.6 L338.3,240.1 L339.2,227.6 L340.0,215.8 L340.9,204.0 L341.7,182.9 L342.6,170.4 L343.4,166.9 L344.2,160.1 L345.1,160.4 L345.9,162.9 L346.8,158.3 L347.6,150.1 L348.4,139.0 L349.3,138.7 L350.1,131.2 L351.0,132.2 L351.8,150.4 L352.7,177.9 L353.5,202.2 L354.3,217.9 L355.2,228.6 L356.0,235.8 L356.9,237.9 L357.7,235.4 L358.5,221.1 L359.4,185.8 L360.2,149.0 L361.1,131.9 L361.9,129.4 L362.7,129.7 L363.6,129.7 L364.4,130.1 L365.3,133.7 L366.1,135.1 L367.0,133.3 L367.8,129.7 L368.6,126.9 L369.5,125.8 L370.3,123.3 L371.2,123.0 L372.0,143.7 L372.8,173.3 L373.7,200.1 L374.5,219.4 L375.4,229.7 L376.2,235.4 L377.1,237.2 L377.9,234.7 L378.7,219.7 L379.6,184.7 L380.4,147.9 L381.3,131.2 L382.1,129.4 L382.9,130.1 L383.8,128.7 L384.6,127.6 L385.5,129.4 L386.3,129.7 L387.2,124.0 L388.0,118.0 L388.8,116.2 L389.7,119.0 L390.5,118.3 L391.4,119.7 L392.2,140.1 L393.0,170.8 L393.9,194.4 L394.7,217.6 L395.6,229.4 L396.4,235.4 L397.3,237.6 L398.1,235.4 L398.9,221.5 L399.8,187.2 L400.6,150.4 L401.5,131.9 L402.3,125.8 L403.1,121.5 L404.0,119.0 L404.8,115.8 L405.7,111.2 L406.5,103.3 L407.3,96.9 L408.2,91.5 L409.0,93.0 L409.9,103.0 L410.7,108.0 L411.6,112.6 L412.4,131.5 L413.2,161.2 L414.1,190.8 L414.9,216.9 L415.8,228.3 L416.6,235.4 L417.4,237.6 L418.3,235.8 L419.1,222.2 L420.0,188.3 L420.8,151.9 L421.7,133.0 L422.5,130.5 L423.3,131.9 L424.2,125.8 L425.0,120.5 L425.9,114.7 L426.7,105.1 L427.5,97.3 L428.4,92.6 L429.2,93.3 L430.1,103.3 L430.9,108.0 L431.8,112.6 L432.6,130.1 L433.4,157.9 L434.3,197.6 L435.1,215.1 L436.0,226.5 L436.8,234.3 L437.6,236.8 L438.5,235.1 L439.3,222.9 L440.2,188.6 L441.0,152.2 L441.9,133.0 L442.7,128.0 L443.5,129.0 L444.4,127.6 L445.2,125.8 L446.1,127.2 L446.9,129.7 L447.7,124.7 L448.6,124.0 L449.4,121.5 L450.3,124.0 L451.1,123.0 L451.9,122.6 L452.8,143.3 L453.6,172.6 L454.5,205.4 L455.3,216.5 L456.2,224.4 L457.0,230.1 L457.8,232.9 L458.7,234.0 L459.5,230.1 L460.4,215.8 L461.2,199.7 L462.0,181.9 L462.9,167.9 L463.7,162.2 L464.6,161.2 L465.4,163.7 L466.3,162.6 L467.1,158.7 L467.9,151.5 L468.8,140.1 L469.6,134.0 L470.5,141.2 L471.3,146.5 L472.1,150.4 L473.0,162.9 L473.8,184.7 L474.7,206.1 L475.5,222.9 L476.4,232.9 L477.2,239.3 L478.0,241.8 L478.9,239.0 L479.7,234.7 L480.6,221.9 L481.4,208.3 L482.2,195.1 L483.1,177.2 L483.9,168.7 L484.8,167.2 L485.6,161.2 L486.5,157.6 L487.3,156.5 L488.1,145.1 L489.0,131.2 L489.8,123.3 L490.7,122.6 L491.5,121.2 L492.3,128.0 L493.2,146.9 L494.0,174.4 L494.9,194.7 L495.7,213.3 L496.5,226.1 L497.4,234.7 L498.2,236.8 L499.1,235.1 L499.9,223.6 L500.8,189.7 L501.6,154.0 L502.4,133.7 L503.3,123.3 L504.1,121.2 L505.0,120.5 L505.8,119.4 L506.6,118.0 L507.5,118.0 L508.3,112.6 L509.2,112.6 L510.0,113.7 L510.9,116.9 L511.7,115.8 L512.5,116.5 L513.4,134.4 L514.2,161.9 L515.1,195.4 L515.9,214.7 L516.7,226.5 L517.6,234.7 L518.4,237.2 L519.3,235.4 L520.1,224.0 L521.0,189.4 L521.8,154.0 L522.6,133.3 L523.5,126.2 L524.3,125.5 L525.2,126.5 L526.0,127.2 L526.8,129.7 L527.7,128.7 L528.5,127.6 L529.4,126.9 L530.2,125.8 L531.1,125.5 L531.9,123.0 L532.7,121.9 L533.6,141.2 L534.4,169.7 L535.3,221.5 L536.1,226.5 L536.9,232.2 L537.8,231.8 L538.6,228.3 L539.5,225.1 L540.3,219.7 L541.2,214.0 L542.0,177.6 L542.8,163.7 L543.7,145.8 L544.5,123.0 L545.4,107.6 L546.2,100.1 L547.0,95.8 L547.9,100.5 L548.7,108.0 L549.6,124.0 L550.4,138.3 L551.2,136.2 L552.1,153.3 L552.9,171.2 L553.8,182.6 L554.6,189.7 L555.5,207.2 L556.3,222.2 L557.1,233.6 L558.0,240.4 L558.8,242.6 L559.7,240.1 L560.5,226.5 L561.3,192.2 L562.2,153.7 L563.0,135.8 L563.9,132.6 L564.7,133.3 L565.6,134.4 L566.4,133.7 L567.2,135.8 L568.1,155.1 L568.9,161.2 L569.8,146.5 L570.6,147.9 L571.4,158.7 L572.3,170.8 L573.1,179.0 L574.0,182.2 L574.8,184.7 L575.7,207.2 L576.5,244.7 L577.3,240.1 L578.2,240.8 L579.0,242.9 L579.9,240.8 L580.7,227.2 L581.5,193.3 L582.4,154.0 L583.2,136.9 L584.1,133.0 L584.9,131.9 L585.8,131.5 L586.6,134.7 L587.4,138.3 L588.3,139.0 L589.1,139.4 L590.0,136.9 L590.8,135.5 L591.6,134.0 L592.5,130.5 L593.3,133.0 L594.2,152.2 L595.0,179.4 L595.8,205.4 L596.7,219.0 L597.5,228.3 L598.4,234.0 L599.2,236.8 L600.1,238.3 L600.9,234.3 L601.7,218.3 L602.6,196.5 L603.4,175.4 L604.3,162.2 L605.1,153.3 L605.9,151.9 L606.8,156.2 L607.6,160.8 L608.5,164.4 L609.3,166.9 L610.2,167.9 L611.0,161.5 L611.8,156.5 L612.7,151.2 L613.5,156.5 L614.4,166.5 L615.2,185.1 L616.0,196.9 L616.9,216.1 L617.7,227.6 L618.6,232.2 L619.4,235.1 L620.3,235.1 L621.1,229.7 L621.9,213.3 L622.8,189.4 L623.6,169.0 L624.5,150.4 L625.3,135.8 L626.1,135.8 L627.0,136.9 L627.8,145.8 L628.7,150.8 L629.5,154.4 L630.4,147.2 L631.2,133.7 L632.0,125.8 L632.9,120.8 L633.7,130.5 L634.6,147.9 L635.4,169.7 L636.2,195.4 L637.1,209.4 L637.9,217.2 L638.8,222.9 L639.6,222.9 L640.4,219.4 L641.3,201.9 L642.1,164.7 L643.0,126.2 L643.8,111.2 L644.7,109.7 L645.5,113.7 L646.3,118.0 L647.2,125.5 L648.0,131.5 L648.9,134.4 L649.7,136.5 L650.5,135.1 L651.4,133.7 L652.2,131.9 L653.1,125.1 L653.9,131.9 L654.8,146.2 L655.6,172.2 L656.4,203.3 L657.3,216.1 L658.1,224.0 L659.0,230.4 L659.8,230.8 L660.6,227.2 L661.5,211.5 L662.3,175.8 L663.2,139.4 L664.0,123.7 L664.9,123.0 L665.7,126.2 L666.5,131.5 L667.4,136.2 L668.2,140.8 L669.1,141.9 L669.9,143.0 L670.7,139.0 L671.6,137.2 L672.4,135.8 L673.3,132.6 L674.1,137.6 L675.0,154.7 L675.8,180.8 L676.6,209.4 L677.5,222.6 L678.3,232.9 L679.2,239.3 L680.0,240.4" stroke="#9467bd" stroke-width="2" fill="none" opacity="0.8"/>
<!-- Total Generation -->
<path d="M80.0,190.1 L80.8,195.8 L81.7,157.6 L82.5,171.9 L83.4,155.4 L84.2,150.4 L85.0,151.2 L85.9,206.5 L86.7,242.2 L87.6,259.7 L88.4,257.6 L89.3,262.6 L90.1,239.0 L90.9,237.9 L91.8,240.4 L92.6,266.1 L93.5,265.1 L94.3,265.4 L95.1,266.5 L96.0,251.8 L96.8,241.8 L97.7,235.4 L98.5,230.4 L99.4,223.6 L100.2,206.5 L101.0,208.3 L101.9,170.8 L102.7,179.7 L103.6,182.2 L104.4,163.7 L105.2,167.2 L106.1,172.2 L106.9,186.5 L107.8,160.1 L108.6,189.4 L109.5,163.3 L110.3,186.9 L111.1,234.0 L112.0,241.8 L112.8,235.8 L113.7,240.4 L114.5,229.4 L115.3,211.5 L116.2,220.8 L117.0,220.1 L117.9,191.5 L118.7,181.2 L119.6,197.9 L120.4,198.3 L121.2,200.1 L122.1,193.6 L122.9,190.1 L123.8,167.6 L124.6,186.9 L125.4,202.6 L126.3,200.1 L127.1,192.2 L128.0,191.1 L128.8,185.4 L129.6,204.7 L130.5,215.8 L131.3,216.1 L132.2,214.0 L133.0,227.9 L133.9,231.5 L134.7,221.9 L135.5,225.8 L136.4,231.5 L137.2,214.7 L138.1,167.6 L138.9,192.6 L139.7,189.0 L140.6,161.5 L141.4,197.6 L142.3,202.6 L143.1,190.4 L144.0,197.9 L144.8,198.3 L145.6,193.3 L146.5,198.6 L147.3,196.9 L148.2,205.1 L149.0,212.2 L149.8,204.7 L150.7,218.3 L151.5,207.2 L152.4,219.7 L153.2,231.8 L154.1,233.3 L154.9,234.0 L155.7,231.5 L156.6,232.2 L157.4,210.1 L158.3,196.5 L159.1,197.2 L159.9,186.5 L160.8,184.7 L161.6,205.8 L162.5,205.1 L163.3,187.6 L164.2,180.8 L165.0,184.7 L165.8,151.9 L166.7,223.3 L167.5,239.3 L168.4,239.0 L169.2,252.2 L170.0,249.0 L170.9,237.6 L171.7,232.6 L172.6,239.3 L173.4,252.9 L174.2,255.8 L175.1,258.6 L175.9,255.1 L176.8,250.4 L177.6,245.1 L178.5,238.6 L179.3,234.0 L180.1,234.3 L181.0,229.4 L181.8,226.9 L182.7,228.6 L183.5,226.5 L184.3,239.0 L185.2,255.1 L186.0,242.6 L186.9,235.1 L187.7,251.8 L188.6,252.9 L189.4,261.8 L190.2,260.4 L191.1,265.1 L191.9,261.1 L192.8,252.2 L193.6,259.3 L194.4,260.4 L195.3,258.3 L196.1,248.3 L197.0,250.4 L197.8,255.1 L198.7,239.0 L199.5,214.7 L200.3,231.5 L201.2,211.9 L202.0,188.6 L202.9,182.9 L203.7,182.6 L204.5,189.7 L205.4,195.4 L206.2,225.1 L207.1,254.3 L207.9,264.7 L208.8,276.8 L209.6,262.6 L210.4,227.9 L211.3,132.2 L212.1,167.6 L213.0,169.7 L213.8,201.1 L214.6,196.1 L215.5,183.3 L216.3,192.2 L217.2,164.0 L218.0,170.8 L218.8,199.0 L219.7,190.1 L220.5,196.1 L221.4,201.1 L222.2,190.8 L223.1,188.6 L223.9,201.9 L224.7,199.4 L225.6,214.7 L226.4,214.7 L227.3,192.2 L228.1,198.6 L228.9,195.4 L229.8,195.1 L230.6,205.1 L231.5,190.4 L232.3,214.4 L233.2,218.6 L234.0,205.1 L234.8,198.3 L235.7,197.9 L236.5,190.1 L237.4,239.3 L238.2,253.3 L239.0,246.1 L239.9,226.5 L240.7,234.7 L241.6,233.3 L242.4,230.8 L243.3,221.1 L244.1,221.9 L244.9,222.2 L245.8,184.7 L246.6,235.1 L247.5,242.9 L248.3,222.9 L249.1,229.0 L250.0,220.8 L250.8,271.1 L251.7,272.5 L252.5,278.6 L253.4,268.6 L254.2,265.4 L255.0,256.5 L255.9,267.6 L256.7,260.8 L257.6,259.0 L258.4,256.5 L259.2,255.8 L260.1,241.8 L260.9,234.3 L261.8,238.3 L262.6,241.1 L263.5,239.7 L264.3,248.6 L265.1,249.0 L266.0,226.1 L266.8,219.0 L267.7,240.4 L268.5,243.3 L269.3,234.0 L270.2,238.3 L271.0,267.6 L271.9,266.5 L272.7,269.0 L273.5,273.6 L274.4,279.3 L275.2,279.0 L276.1,279.7 L276.9,279.3 L277.8,277.5 L278.6,277.9 L279.4,271.8 L280.3,242.2 L281.1,233.3 L282.0,234.0 L282.8,212.9 L283.6,242.6 L284.5,233.6 L285.3,237.2 L286.2,224.7 L287.0,202.6 L287.9,211.1 L288.7,227.9 L289.5,203.6 L290.4,192.2 L291.2,241.1 L292.1,273.3 L292.9,279.0 L293.7,283.3 L294.6,286.1 L295.4,285.0 L296.3,283.6 L297.1,283.6 L298.0,280.4 L298.8,280.4 L299.6,276.5 L300.5,250.8 L301.3,257.2 L302.2,241.1 L303.0,242.6 L303.8,242.6 L304.7,244.3 L305.5,245.4 L306.4,241.8 L307.2,220.8 L308.1,224.4 L308.9,236.5 L309.7,228.3 L310.6,221.1 L311.4,234.7 L312.3,245.8 L313.1,238.6 L313.9,245.4 L314.8,247.9 L315.6,282.2 L316.5,283.3 L317.3,281.8 L318.1,279.7 L319.0,244.3 L319.8,263.3 L320.7,239.0 L321.5,235.8 L322.4,235.4 L323.2,230.4 L324.0,214.7 L324.9,196.9 L325.7,192.6 L326.6,206.5 L327.4,163.7 L328.2,180.8 L329.1,186.5 L329.9,190.1 L330.8,210.1 L331.6,236.1 L332.5,207.6 L333.3,223.6 L334.1,215.1 L335.0,224.4 L335.8,224.4 L336.7,198.3 L337.5,212.2 L338.3,212.2 L339.2,209.7 L340.0,211.1 L340.9,193.6 L341.7,198.3 L342.6,190.8 L343.4,187.2 L344.2,203.6 L345.1,198.3 L345.9,193.6 L346.8,215.4 L347.6,225.1 L348.4,225.4 L349.3,173.3 L350.1,111.9 L351.0,120.5 L351.8,129.7 L352.7,167.9 L353.5,177.6 L354.3,169.0 L355.2,156.2 L356.0,162.6 L356.9,171.9 L357.7,164.0 L358.5,175.1 L359.4,147.2 L360.2,177.2 L361.1,161.5 L361.9,162.2 L362.7,146.2 L363.6,164.0 L364.4,175.1 L365.3,144.7 L366.1,128.7 L367.0,145.4 L367.8,165.1 L368.6,177.9 L369.5,196.9 L370.3,201.9 L371.2,192.6 L372.0,226.9 L372.8,240.1 L373.7,241.8 L374.5,242.9 L375.4,246.1 L376.2,245.4 L377.1,236.5 L377.9,232.6 L378.7,237.6 L379.6,229.7 L380.4,196.9 L381.3,182.9 L382.1,175.8 L382.9,176.9 L383.8,181.9 L384.6,192.9 L385.5,198.3 L386.3,200.4 L387.2,200.1 L388.0,171.2 L388.8,182.6 L389.7,204.0 L390.5,206.5 L391.4,205.1 L392.2,206.1 L393.0,211.1 L393.9,225.8 L394.7,220.8 L395.6,227.9 L396.4,222.9 L397.3,215.8 L398.1,195.8 L398.9,185.8 L399.8,156.9 L400.6,132.2 L401.5,117.6 L402.3,100.8 L404.0,130.1 L404.8,136.5 L405.7,126.5 L406.5,139.4 L407.3,146.5 L408.2,146.5 L409.0,150.1 L409.9,157.6 L410.7,180.4 L411.6,203.3 L412.4,214.0 L413.2,241.1 L414.1,233.6 L414.9,220.1 L415.8,210.8 L416.6,204.0 L417.4,182.9 L418.3,190.1 L419.1,207.6 L420.0,235.4 L420.8,236.5 L421.7,209.7 L422.5,199.4 L423.3,200.1 L424.2,201.9 L425.0,200.1 L425.9,200.8 L426.7,194.4 L427.5,186.5 L428.4,181.2 L429.2,180.1 L430.1,188.3 L430.9,205.1 L431.8,215.8 L432.6,223.6 L433.4,218.6 L434.3,185.4 L435.1,158.3 L436.0,137.2 L436.8,129.7 L437.6,165.8 L438.5,147.6 L439.3,144.4 L440.2,138.0 L441.0,140.1 L441.9,102.3 L442.7,110.8 L443.5,107.6 L444.4,87.6 L445.2,106.5 L446.1,113.0 L446.9,117.6 L447.7,71.2 L448.6,91.9 L449.4,132.2 L450.3,202.6 L451.1,207.6 L451.9,206.5 L452.8,213.3 L453.6,210.1 L454.5,219.4 L455.3,197.6 L456.2,172.6 L457.0,154.4 L457.8,143.7 L458.7,141.2 L459.5,137.2 L460.4,152.6 L461.2,173.3 L462.0,157.2 L462.9,129.0 L463.7,143.7 L464.6,160.8 L465.4,188.6 L466.3,202.6 L467.1,205.4 L467.9,204.7 L468.8,209.0 L469.6,225.8 L470.5,216.5 L471.3,218.6 L472.1,220.1 L473.0,245.1 L473.8,291.8 L474.7,299.0 L475.5,298.3 L476.4,295.0 L477.2,298.3 L478.0,288.6 L478.9,283.3 L479.7,265.8 L480.6,250.8 L481.4,245.8 L482.2,221.5 L483.1,221.1 L483.9,209.7 L484.8,200.4 L485.6,197.9 L486.5,190.1 L487.3,180.8 L488.1,220.8 L489.0,172.2 L489.8,188.3 L490.7,158.3 L491.5,195.4 L492.3,207.2 L493.2,232.2 L494.0,234.3 L494.9,226.9 L495.7,242.2 L496.5,250.4 L497.4,252.9 L498.2,258.6 L499.1,259.3 L499.9,262.6 L500.8,261.5 L501.6,262.2 L502.4,254.7 L503.3,230.1 L504.1,193.3 L505.0,186.9 L505.8,215.8 L506.6,188.6 L507.5,195.8 L508.3,191.5 L509.2,227.2 L510.0,220.8 L510.9,226.9 L511.7,227.9 L512.5,236.8 L513.4,251.5 L514.2,260.1 L515.1,243.6 L515.9,252.9 L516.7,254.3 L517.6,247.9 L518.4,248.3 L519.3,256.8 L520.1,258.6 L521.0,258.6 L521.8,253.6 L522.6,244.3 L523.5,219.7 L524.3,181.2 L525.2,173.3 L526.0,133.7 L526.8,98.3 L527.7,169.0 L528.5,175.8 L529.4,175.1 L530.2,185.1 L531.1,165.4 L531.9,156.2 L532.7,172.2 L533.6,226.5 L534.4,215.1 L535.3,199.4 L536.1,201.9 L536.9,187.2 L537.8,207.6 L538.6,200.4 L539.5,202.6 L540.3,204.4 L541.2,183.7 L542.0,183.7 L542.8,167.2 L543.7,142.6 L547.0,199.4 L547.9,160.1 L548.7,161.5 L549.6,186.2 L550.4,213.3 L551.2,202.9 L552.1,212.9 L552.9,217.2 L553.8,217.6 L554.6,215.1 L555.5,209.4 L556.3,210.4 L557.1,221.1 L558.0,242.2 L558.8,227.2 L559.7,237.2 L560.5,237.6 L561.3,205.1 L562.2,200.1 L563.0,227.9 L563.9,218.6 L564.7,200.8 L565.6,222.2 L566.4,222.2 L567.2,206.9 L568.1,214.7 L568.9,240.1 L569.8,224.0 L570.6,192.6 L571.4,211.9 L572.3,197.2 L573.1,191.9 L574.0,201.1 L574.8,205.1 L575.7,220.4 L576.5,213.3 L577.3,218.6 L578.2,244.3 L579.0,245.1 L579.9,232.2 L580.7,205.4 L581.5,207.9 L582.4,207.6 L583.2,185.4 L584.1,180.4 L584.9,172.9 L585.8,158.3 L586.6,172.6 L587.4,176.5 L588.3,191.5 L589.1,205.1 L590.0,174.4 L590.8,174.7 L591.6,152.6 L592.5,167.9 L593.3,185.1 L594.2,204.7 L595.0,196.1 L595.8,213.6 L596.7,206.5 L597.5,199.0 L598.4,211.5 L599.2,227.9 L600.1,204.7 L600.9,204.7 L601.7,175.8 L602.6,175.4 L603.4,216.1 L604.3,178.3 L605.1,194.0 L605.9,197.9 L606.8,174.0 L607.6,189.4 L608.5,194.7 L609.3,208.3 L610.2,213.6 L611.0,207.2 L611.8,196.1 L612.7,197.6 L613.5,201.1 L614.4,182.2 L615.2,176.9 L616.0,150.4 L616.9,147.9 L617.7,172.9 L618.6,182.6 L619.4,159.4 L620.3,161.9 L621.1,132.2 L621.9,111.9 L622.8,122.6 L623.6,125.8 L624.5,186.2 L625.3,181.2 L626.1,180.4 L627.0,174.4 L627.8,177.9 L628.7,192.2 L629.5,190.8 L630.4,179.7 L631.2,185.4 L632.0,204.7 L632.9,212.6 L633.7,211.1 L634.6,209.7 L635.4,207.9 L636.2,209.0 L637.1,203.3 L637.9,206.1 L638.8,201.1 L639.6,198.3 L640.4,203.3 L641.3,185.1 L642.1,174.0 L643.0,161.5 L643.8,167.9 L644.7,173.3 L645.5,169.0 L646.3,148.7 L647.2,123.7 L648.0,132.6 L648.9,139.7 L649.7,143.3 L650.5,115.5 L651.4,113.0 L652.2,169.0 L653.1,186.2 L653.9,198.6 L654.8,212.2 L655.6,204.0 L656.4,205.8 L657.3,202.6 L658.1,196.1 L659.0,208.3 L659.8,212.6 L660.6,201.5 L661.5,177.2 L662.3,180.8 L663.2,173.3 L664.0,188.3 L664.9,182.9 L665.7,191.9 L666.5,198.3 L667.4,206.5 L668.2,202.6 L669.1,200.4 L669.9,194.0 L670.7,193.3 L671.6,161.9 L672.4,170.8 L673.3,166.2 L674.1,176.5 L675.0,180.1 L675.8,186.2 L676.6,209.7 L677.5,216.9 L678.3,212.2 L679.2,228.3 L680.0,234.3" stroke="#8c564b" stroke-width="2" fill="none" opacity="0.8"/>
<!-- Forecast Difference -->
<path d="M80.0,420.0 L80.8,420.0 L81.7,420.0 L82.5,420.0 L83.4,420.0 L84.2,420.0 L85.0,420.0 L85.9,420.0 L86.7,420.0 L87.6,420.0 L88.4,420.0 L89.3,420.0 L90.1,420.0 L90.9,420.0 L91.8,420.0 L92.6,420.0 L93.5,420.0 L94.3,420.0 L95.1,420.0 L96.0,420.0 L96.8,420.0 L97.7,420.0 L98.5,420.0 L99.4,420.0 L100.2,420.0 L101.0,420.0 L101.9,420.0 L102.7,420.0 L103.6,420.0 L104.4,420.0 L105.2,420.0 L106.1,420.0 L106.9,420.0 L107.8,420.0 L108.6,420.0 L109.5,420.0 L110.3,420.0 L111.1,420.0 L112.0,420.0 L112.8,420.0 L113.7,420.0 L114.5,420.0 L115.3,420.0 L116.2,420.0 L117.0,420.0 L117.9,420.0 L118.7,420.0 L119.6,420.0 L120.4,420.0 L121.2,420.0 L122.1,420.0 L122.9,420.0 L123.8,420.0 L124.6,420.0 L125.4,420.0 L126.3,420.0 L127.1,420.0 L128.0,420.0 L128.8,420.0 L129.6,420.0 L130.5,420.0 L131.3,420.0 L132.2,420.0 L133.0,420.0 L133.9,420.0 L134.7,420.0 L135.5,420.0 L136.4,420.0 L137.2,420.0 L138.1,420.0 L138.9,420.0 L139.7,420.0 L140.6,420.0 L141.4,420.0 L142.3,420.0 L143.1,420.0 L144.0,420.0 L144.8,420.0 L145.6,420.0 L146.5,420.0 L147.3,420.0 L148.2,420.0 L149.0,420.0 L149.8,420.0 L150.7,420.0 L151.5,420.0 L152.4,420.0 L153.2,420.0 L154.1,420.0 L154.9,420.0 L155.7,420.0 L156.6,420.0 L157.4,420.0 L158.3,420.0 L159.1,420.0 L159.9,420.0 L160.8,420.0 L161.6,420.0 L162.5,420.0 L163.3,420.0 L164.2,420.0 L165.0,420.0 L165.8,420.0 L166.7,420.0 L167.5,420.0 L168.4,420.0 L169.2,420.0 L170.0,420.0 L170.9,420.0 L171.7,420.0 L172.6,420.0 L173.4,420.0 L174.2,420.0 L175.1,420.0 L175.9,420.0 L176.8,420.0 L177.6,420.0 L178.5,420.0 L179.3,420.0 L180.1,420.0 L181.0,420.0 L181.8,420.0 L182.7,420.0 L183.5,420.0 L184.3,420.0 L185.2,420.0 L186.0,420.0 L186.9,420.0 L187.7,420.0 L188.6,420.0 L189.4,420.0 L190.2,420.0 L191.1,420.0 L191.9,420.0 L192.8,420.0 L193.6,420.0 L194.4,420.0 L195.3,420.0 L196.1,420.0 L197.0,420.0 L197.8,420.0 L198.7,420.0 L199.5,420.0 L200.3,420.0 L201.2,420.0 L202.0,420.0 L202.9,420.0 L203.7,420.0 L204.5,420.0 L205.4,420.0 L206.2,420.0 L207.1,420.0 L207.9,420.0 L208.8,420.0 L209.6,420.0 L210.4,420.0 L211.3,420.0 L212.1,420.0 L213.0,420.0 L213.8,420.0 L214.6,420.0 L215.5,420.0 L216.3,420.0 L217.2,420.0 L218.0,420.0 L218.8,420.0 L219.7,420.0 L220.5,420.0 L221.4,420.0 L222.2,420.0 L223.1,420.0 L223.9,420.0 L224.7,420.0 L225.6,420.0 L226.4,420.0 L227.3,420.0 L228.1,420.0 L228.9,420.0 L229.8,420.0 L230.6,420.0 L231.5,420.0 L232.3,420.0 L233.2,420.0 L234.0,420.0 L234.8,420.0 L235.7,420.0 L236.5,420.0 L237.4,420.0 L238.2,420.0 L239.0,420.0 L239.9,420.0 L240.7,420.0 L241.6,420.0 L242.4,420.0 L243.3,420.0 L244.1,420.0 L244.9,420.0 L245.8,420.0 L246.6,420.0 L247.5,420.0 L248.3,420.0 L249.1,420.0 L250.0,420.0 L250.8,420.0 L251.7,420.0 L252.5,420.0 L253.4,420.0 L254.2,420.0 L255.0,420.0 L255.9,420.0 L256.7,420.0 L257.6,420.0 L258.4,420.0 L259.2,420.0 L260.1,420.0 L260.9,420.0 L261.8,420.0 L262.6,420.0 L263.5,420.0 L264.3,420.0 L265.1,420.0 L266.0,420.0 L266.8,420.0 L267.7,420.0 L268.5,420.0 L269.3,420.0 L270.2,420.0 L271.0,420.0 L271.9,420.0 L272.7,420.0 L273.5,420.0 L274.4,420.0 L275.2,420.0 L276.1,420.0 L276.9,420.0 L277.8,420.0 L278.6,420.0 L279.4,420.0 L280.3,420.0 L281.1,420.0 L282.0,420.0 L282.8,420.0 L283.6,420.0 L284.5,420.0 L285.3,420.0 L286.2,420.0 L287.0,420.0 L287.9,420.0 L288.7,420.0 L289.5,420.0 L290.4,420.0 L291.2,420.0 L292.1,420.0 L292.9,420.0 L293.7,420.0 L294.6,420.0 L295.4,420.0 L296.3,420.0 L297.1,420.0 L298.0,420.0 L298.8,420.0 L299.6,420.0 L300.5,420.0 L301.3,420.0 L302.2,420.0 L303.0,420.0 L303.8,420.0 L304.7,420.0 L305.5,420.0 L306.4,420.0 L307.2,420.0 L308.1,420.0 L308.9,420.0 L309.7,420.0 L310.6,420.0 L311.4,420.0 L312.3,420.0 L313.1,420.0 L313.9,420.0 L314.8,420.0 L315.6,420.0 L316.5,420.0 L317.3,420.0 L318.1,420.0 L319.0,420.0 L319.8,420.0 L320.7,420.0 L321.5,420.0 L322.4,420.0 L323.2,420.0 L324.0,420.0 L324.9,420.0 L325.7,420.0 L326.6,420.0 L327.4,420.0 L328.2,420.0 L329.1,420.0 L329.9,420.0 L330.8,420.0 L331.6,420.0 L332.5,420.0 L333.3,420.0 L334.1,420.0 L335.0,420.0 L335.8,420.0 L336.7,420.0 L337.5,420.0 L338.3,420.0 L339.2,420.0 L340.0,420.0 L340.9,420.0 L341.7,420.0 L342.6,420.0 L343.4,420.0 L344.2,420.0 L345.1,420.0 L345.9,420.0 L346.8,420.0 L347.6,420.0 L348.4,420.0 L349.3,420.0 L350.1,420.0 L351.0,420.0 L351.8,420.0 L352.7,420.0 L353.5,420.0 L354.3,420.0 L355.2,420.0 L356.0,420.0 L356.9,420.0 L357.7,420.0 L358.5,420.0 L359.4,420.0 L360.2,420.0 L361.1,420.0 L361.9,420.0 L362.7,420.0 L363.6,420.0 L364.4,420.0 L365.3,420.0 L366.1,420.0 L367.0,420.0 L367.8,420.0 L368.6,420.0 L369.5,420.0 L370.3,420.0 L371.2,420.0 L372.0,420.0 L372.8,420.0 L373.7,420.0 L374.5,420.0 L375.4,420.0 L376.2,420.0 L377.1,420.0 L377.9,420.0 L378.7,420.0 L379.6,420.0 L380.4,420.0 L381.3,420.0 L382.1,420.0 L382.9,420.0 L383.8,420.0 L384.6,420.0 L385.5,420.0 L386.3,420.0 L387.2,420.0 L388.0,420.0 L388.8,420.0 L389.7,420.0 L390.5,420.0 L391.4,420.0 L392.2,420.0 L393.0,420.0 L393.9,420.0 L394.7,420.0 L395.6,420.0 L396.4,420.0 L397.3,420.0 L398.1,420.0 L398.9,420.0 L399.8,420.0 L400.6,420.0 L401.5,420.0 L402.3,420.0 L403.1,420.0 L404.0,420.0 L404.8,420.0 L405.7,420.0 L406.5,420.0 L407.3,420.0 L408.2,420.0 L409.0,420.0 L409.9,420.0 L410.7,420.0 L411.6,420.0 L412.4,420.0 L413.2,420.0 L414.1,420.0 L414.9,420.0 L415.8,420.0 L416.6,420.0 L417.4,420.0 L418.3,420.0 L419.1,420.0 L420.0,420.0 L420.8,420.0 L421.7,420.0 L422.5,420.0 L423.3,420.0 L424.2,420.0 L425.0,420.0 L425.9,420.0 L426.7,420.0 L427.5,420.0 L428.4,420.0 L429.2,420.0 L430.1,420.0 L430.9,420.0 L431.8,420.0 L432.6,420.0 L433.4,420.0 L434.3,420.0 L435.1,420.0 L436.0,420.0 L436.8,420.0 L437.6,420.0 L438.5,420.0 L439.3,420.0 L440.2,420.0 L441.0,420.0 L441.9,420.0 L442.7,420.0 L443.5,420.0 L444.4,420.0 L445.2,420.0 L446.1,420.0 L446.9,420.0 L447.7,420.0 L448.6,420.0 L449.4,420.0 L450.3,420.0 L451.1,420.0 L451.9,420.0 L452.8,420.0 L453.6,420.0 L454.5,420.0 L455.3,420.0 L456.2,420.0 L457.0,420.0 L457.8,420.0 L458.7,420.0 L459.5,420.0 L460.4,420.0 L461.2,420.0 L462.0,420.0 L462.9,420.0 L463.7,420.0 L464.6,420.0 L465.4,420.0 L466.3,420.0 L467.1,420.0 L467.9,420.0 L468.8,420.0 L469.6,420.0 L470.5,420.0 L471.3,420.0 L472.1,420.0 L473.0,420.0 L473.8,420.0 L474.7,420.0 L475.5,420.0 L476.4,420.0 L477.2,420.0 L478.0,420.0 L478.9,420.0 L479.7,420.0 L480.6,420.0 L481.4,420.0 L482.2,420.0 L483.1,420.0 L483.9,420.0 L484.8,420.0 L485.6,420.0 L486.5,420.0 L487.3,420.0 L488.1,420.0 L489.0,420.0 L489.8,420.0 L490.7,420.0 L491.5,420.0 L492.3,420.0 L493.2,420.0 L494.0,420.0 L494.9,420.0 L495.7,420.0 L496.5,420.0 L497.4,420.0 L498.2,420.0 L499.1,420.0 L499.9,420.0 L500.8,420.0 L501.6,420.0 L502.4,420.0 L503.3,420.0 L504.1,420.0 L505.0,420.0 L505.8,420.0 L506.6,420.0 L507.5,420.0 L508.3,420.0 L509.2,420.0 L510.0,420.0 L510.9,420.0 L511.7,420.0 L512.5,420.0 L513.4,420.0 L514.2,420.0 L515.1,420.0 L515.9,420.0 L516.7,420.0 L517.6,420.0 L518.4,420.0 L519.3,420.0 L520.1,420.0 L521.0,420.0 L521.8,420.0 L522.6,420.0 L523.5,420.0 L524.3,420.0 L525.2,420.0 L526.0,420.0 L526.8,420.0 L527.7,420.0 L528.5,420.0 L529.4,420.0 L530.2,420.0 L531.1,420.0 L531.9,420.0 L532.7,420.0 L533.6,420.0 L534.4,420.0 L535.3,420.0 L536.1,420.0 L536.9,420.0 L537.8,420.0 L538.6,420.0 L539.5,420.0 L540.3,420.0 L541.2,420.0 L542.0,420.0 L542.8,420.0 L543.7,420.0 L544.5,420.0 L545.4,420.0 L546.2,420.0 L547.0,420.0 L547.9,420.0 L548.7,420.0 L549.6,420.0 L550.4,420.0 L551.2,420.0 L552.1,420.0 L552.9,420.0 L553.8,420.0 L554.6,420.0 L555.5,420.0 L556.3,420.0 L557.1,420.0 L558.0,420.0 L558.8,420.0 L559.7,420.0 L560.5,420.0 L561.3,420.0 L562.2,420.0 L563.0,420.0 L563.9,420.0 L564.7,420.0 L565.6,420.0 L566.4,420.0 L567.2,420.0 L568.1,420.0 L568.9,420.0 L569.8,420.0 L570.6,420.0 L571.4,420.0 L572.3,420.0 L573.1,420.0 L574.0,420.0 L574.8,420.0 L575.7,420.0 L576.5,420.0 L577.3,420.0 L578.2,420.0 L579.0,420.0 L579.9,420.0 L580.7,420.0 L581.5,420.0 L582.4,420.0 L583.2,420.0 L584.1,420.0 L584.9,420.0 L585.8,420.0 L586.6,420.0 L587.4,420.0 L588.3,420.0 L589.1,420.0 L590.0,420.0 L590.8,420.0 L591.6,420.0 L592.5,420.0 L593.3,420.0 L594.2,420.0 L595.0,420.0 L595.8,420.0 L596.7,420.0 L597.5,420.0 L598.4,420.0 L599.2,420.0 L600.1,420.0 L600.9,420.0 L601.7,420.0 L602.6,420.0 L603.4,420.0 L604.3,420.0 L605.1,420.0 L605.9,420.0 L606.8,420.0 L607.6,420.0 L608.5,420.0 L609.3,420.0 L610.2,420.0 L611.0,420.0 L611.8,420.0 L612.7,420.0 L613.5,420.0 L614.4,420.0 L615.2,420.0 L616.0,420.0 L616.9,420.0 L617.7,420.0 L618.6,420.0 L619.4,420.0 L620.3,420.0 L621.1,420.0 L621.9,420.0 L622.8,420.0 L623.6,420.0 L624.5,420.0 L625.3,420.0 L626.1,420.0 L627.0,420.0 L627.8,420.0 L628.7,420.0 L629.5,420.0 L630.4,420.0 L631.2,420.0 L632.0,420.0 L632.9,420.0 L633.7,420.0 L634.6,420.0 L635.4,420.0 L636.2,420.0 L637.1,420.0 L637.9,420.0 L638.8,420.0 L639.6,420.0 L640.4,420.0 L641.3,420.0 L642.1,420.0 L643.0,420.0 L643.8,420.0 L644.7,420.0 L645.5,420.0 L646.3,420.0 L647.2,420.0 L648.0,420.0 L648.9,420.0 L649.7,420.0 L650.5,420.0 L651.4,420.0 L652.2,420.0 L653.1,420.0 L653.9,420.0 L654.8,420.0 L655.6,420.0 L656.4,420.0 L657.3,420.0 L658.1,420.0 L659.0,420.0 L659.8,420.0 L660.6,420.0 L661.5,420.0 L662.3,420.0 L663.2,420.0 L664.0,420.0 L664.9,420.0 L665.7,420.0 L666.5,420.0 L667.4,420.0 L668.2,420.0 L669.1,420.0 L669.9,420.0 L670.7,420.0 L671.6,420.0 L672.4,420.0 L673.3,420.0 L674.1,420.0 L675.0,420.0 L675.8,420.0 L676.6,420.0 L677.5,420.0 L678.3,420.0 L679.2,420.0 L680.0,420.0" stroke="#e377c2" stroke-width="2" fill="none" opacity="0.8"/>

<!-- Legend -->
<line x1="690" y1="70" x2="705" y2="70" stroke="#1f77b4" stroke-width="3"/>
<text x="710" y="74" class="legend">Wind Generation</text>
<line x1="690" y1="88" x2="705" y2="88" stroke="#ff7f0e" stroke-width="3"/>
<text x="710" y="92" class="legend">Hydro Generation</text>
<line x1="690" y1="106" x2="705" y2="106" stroke="#2ca02c" stroke-width="3"/>
<text x="710" y="110" class="legend">Thermal Generation</text>
<line x1="690" y1="124" x2="705" y2="124" stroke="#d62728" stroke-width="3"/>
<text x="710" y="128" class="legend">Solar Generation</text>
<line x1="690" y1="142" x2="705" y2="142" stroke="#9467bd" stroke-width="3"/>
<text x="710" y="146" class="legend">Forecast</text>
<line x1="690" y1="160" x2="705" y2="160" stroke="#8c564b" stroke-width="3"/>
<text x="710" y="164" class="legend">Total Generation</text>
<line x1="690" y1="178" x2="705" y2="178" stroke="#e377c2" stroke-width="3"/>
<text x="710" y="182" class="legend">Forecast Difference</text>

<!-- Date range -->
<text x="80" y="495" class="legend">Range: 09/08 - 10/08/2025 (714 records)</text>
</svg>