<?xml version="1.0" encoding="UTF-8"?>
<svg width="800" height="500" xmlns="http://www.w3.org/2000/svg">
<style>
.axis-line { stroke: #333; stroke-width: 1; }
.grid-line { stroke: #ddd; stroke-width: 0.5; }
.title { font: 16px Arial; text-anchor: middle; fill: #333; }
.axis-label { font: 12px Arial; text-anchor: middle; fill: #666; }
.legend { font: 10px Arial; fill: #333; }
</style>

<!-- Title -->
<text x="400.0" y="25" class="title">Northwestern Energy Generation Data - Past 30 Days</text>

<!-- Plot area background -->
<rect x="80" y="50" width="600" height="370" fill="white" stroke="#ddd"/>

<!-- Y-axis -->
<line x1="80" y1="50" x2="80" y2="420" class="axis-line"/>
<text x="30" y="235.0" class="axis-label" transform="rotate(-90, 30, 235.0)">Generation (MW)</text>

<!-- X-axis -->
<line x1="80" y1="420" x2="680" y2="420" class="axis-line"/>
<text x="380.0" y="480" class="axis-label">Time</text>
<line x1="80" y1="420.0" x2="680" y2="420.0" class="grid-line"/>
<text x="70" y="425.0" class="legend" text-anchor="end">0</text>
<line x1="80" y1="327.5" x2="680" y2="327.5" class="grid-line"/>
<text x="70" y="332.5" class="legend" text-anchor="end">357</text>
<line x1="80" y1="235.0" x2="680" y2="235.0" class="grid-line"/>
<text x="70" y="240.0" class="legend" text-anchor="end">713</text>
<line x1="80" y1="142.5" x2="680" y2="142.5" class="grid-line"/>
<text x="70" y="147.5" class="legend" text-anchor="end">1070</text>
<line x1="80" y1="50.0" x2="680" y2="50.0" class="grid-line"/>
<text x="70" y="55.0" class="legend" text-anchor="end">1427</text>
<!-- Wind Generation -->
<path d="M80.0,385.3 L80.8,379.8 L81.7,354.1 L82.5,357.5 L83.4,342.0 L84.2,334.2 L85.0,325.4 L85.9,319.9 L86.7,324.1 L87.6,318.4 L88.4,329.8 L89.3,330.3 L90.1,333.9 L90.9,333.9 L91.8,333.9 L92.6,331.8 L93.5,328.2 L94.3,322.0 L95.1,313.2 L96.0,310.6 L96.8,309.0 L97.7,310.6 L98.5,310.8 L99.4,308.5 L100.2,312.4 L101.0,330.8 L101.9,335.0 L102.7,352.1 L103.6,349.0 L104.4,352.6 L105.2,345.6 L106.1,348.2 L106.9,318.1 L107.8,325.9 L108.6,318.4 L109.5,331.1 L110.3,319.4 L111.1,314.5 L112.0,325.4 L112.8,324.8 L113.7,322.5 L114.5,322.0 L115.3,323.0 L116.2,312.1 L117.0,309.5 L117.9,316.3 L118.7,321.5 L119.6,334.7 L120.4,343.5 L121.2,362.2 L122.1,373.3 L122.9,384.0 L123.8,392.8 L124.6,398.7 L125.4,398.5 L126.3,404.4 L127.1,407.6 L128.0,409.6 L128.8,403.7 L129.6,400.8 L130.5,396.9 L131.3,395.6 L132.2,390.7 L133.0,391.7 L133.9,400.3 L134.7,407.0 L135.5,402.6 L136.4,405.7 L137.2,402.9 L138.1,399.8 L138.9,408.9 L139.7,411.4 L140.6,406.5 L141.4,408.9 L142.3,409.1 L143.1,413.8 L144.0,407.3 L144.8,385.5 L145.6,379.3 L146.5,368.7 L147.3,350.8 L148.2,346.1 L149.0,340.9 L149.8,357.5 L150.7,336.2 L151.5,333.9 L152.4,346.6 L153.2,339.6 L154.1,353.1 L154.9,368.7 L155.7,344.0 L156.6,353.4 L157.4,345.3 L158.3,373.6 L159.1,382.4 L159.9,396.4 L160.8,403.1 L161.6,411.7 L162.5,415.6 L163.3,414.0 L164.2,413.5 L165.0,413.0 L165.8,414.8 L166.7,412.2 L167.5,402.6 L168.4,406.8 L169.2,408.3 L170.0,407.3 L170.9,401.3 L171.7,406.3 L172.6,403.7 L173.4,399.3 L174.2,395.6 L175.1,386.0 L175.9,384.0 L176.8,393.6 L177.6,366.3 L178.5,358.5 L179.3,358.8 L180.1,350.8 L181.0,356.0 L181.8,348.2 L182.7,340.9 L183.5,351.5 L184.3,368.7 L185.2,368.1 L186.0,362.7 L186.9,354.1 L187.7,347.9 L188.6,351.0 L189.4,335.7 L190.2,326.7 L191.1,320.4 L191.9,318.9 L192.8,320.9 L193.6,318.9 L194.4,319.9 L195.3,323.0 L196.1,328.5 L197.0,329.2 L197.8,330.8 L198.7,328.7 L199.5,325.1 L200.3,320.2 L201.2,323.0 L202.0,325.1 L202.9,323.3 L203.7,320.9 L204.5,325.1 L205.4,320.4 L206.2,320.2 L207.1,322.2 L207.9,326.9 L208.8,325.6 L209.6,328.2 L210.4,330.5 L211.3,330.3 L212.1,326.4 L213.0,319.4 L213.8,328.5 L214.6,326.4 L215.5,348.4 L216.3,355.2 L217.2,355.2 L218.0,357.3 L218.8,354.1 L219.7,356.5 L220.5,362.4 L221.4,370.5 L222.2,372.3 L223.1,371.0 L223.9,379.8 L224.7,374.1 L225.6,375.9 L226.4,377.5 L227.3,374.6 L228.1,373.8 L228.9,363.2 L229.8,325.1 L230.6,329.8 L231.5,330.3 L232.3,340.7 L233.2,342.2 L234.0,354.1 L234.8,353.9 L235.7,322.0 L236.5,345.6 L237.4,347.4 L238.2,343.0 L239.0,320.4 L239.9,324.3 L240.7,359.3 L241.6,370.2 L242.4,383.2 L243.3,381.6 L244.1,400.3 L244.9,398.0 L245.8,398.5 L246.6,399.0 L247.5,401.8 L248.3,393.0 L249.1,375.1 L250.0,390.4 L250.8,379.8 L251.7,365.8 L252.5,351.0 L253.4,345.3 L254.2,356.2 L255.0,355.2 L255.9,376.2 L256.7,377.5 L257.6,364.3 L258.4,367.9 L259.2,364.3 L260.1,364.0 L260.9,360.9 L261.8,364.5 L262.6,342.0 L263.5,355.7 L264.3,372.0 L265.1,361.4 L266.0,367.1 L266.8,363.0 L267.7,362.4 L268.5,366.1 L269.3,374.6 L270.2,371.8 L271.0,368.7 L271.9,372.5 L272.7,371.8 L273.5,388.6 L274.4,403.7 L275.2,403.7 L276.1,402.6 L276.9,404.2 L277.8,403.7 L278.6,393.6 L279.4,386.3 L280.3,383.2 L281.1,385.3 L282.0,394.3 L282.8,393.6 L283.6,381.4 L284.5,393.3 L285.3,402.6 L286.2,399.5 L287.0,408.3 L287.9,404.4 L288.7,400.0 L289.5,386.8 L290.4,395.1 L291.2,384.7 L292.1,382.7 L292.9,374.1 L293.7,392.5 L294.6,388.9 L295.4,374.9 L296.3,354.1 L297.1,327.2 L298.0,344.8 L298.8,352.8 L299.6,317.6 L300.5,313.7 L301.3,318.9 L302.2,315.5 L303.0,326.9 L303.8,335.5 L304.7,344.5 L305.5,344.3 L306.4,339.6 L307.2,344.0 L308.1,349.5 L308.9,355.2 L309.7,357.3 L310.6,359.8 L311.4,360.9 L312.3,360.1 L313.1,358.8 L313.9,364.5 L314.8,372.0 L315.6,372.5 L316.5,374.4 L317.3,371.8 L318.1,371.0 L319.0,365.5 L319.8,368.4 L320.7,364.0 L321.5,363.7 L322.4,364.3 L323.2,367.9 L324.0,367.1 L324.9,372.3 L325.7,378.0 L326.6,385.8 L327.4,388.9 L328.2,392.0 L329.1,395.9 L329.9,401.8 L330.8,403.7 L331.6,407.3 L332.5,412.7 L333.3,419.0 L334.1,420.0 L335.0,419.7 L335.8,420.0 L336.7,420.0 L337.5,420.0 L338.3,420.0 L339.2,420.0 L340.0,420.0 L340.9,420.0 L341.7,420.0 L342.6,420.0 L343.4,418.7 L344.2,418.4 L345.1,419.2 L345.9,419.0 L346.8,419.5 L347.6,418.7 L348.4,418.4 L349.3,417.9 L350.1,414.8 L351.0,411.7 L351.8,408.9 L352.7,405.7 L353.5,406.0 L354.3,405.0 L355.2,399.5 L356.0,389.9 L356.9,386.0 L357.7,393.6 L358.5,351.5 L359.4,332.6 L360.2,348.2 L361.1,358.3 L361.9,366.3 L362.7,370.0 L363.6,365.3 L364.4,379.3 L365.3,383.7 L366.1,385.0 L367.0,402.6 L367.8,409.1 L368.6,410.4 L369.5,415.9 L370.3,415.9 L371.2,416.4 L372.0,416.6 L372.8,416.6 L373.7,417.1 L374.5,417.4 L375.4,417.7 L376.2,417.4 L377.1,417.1 L377.9,417.1 L378.7,416.6 L379.6,414.3 L380.4,411.4 L381.3,407.6 L382.1,406.0 L382.9,401.3 L383.8,398.2 L384.6,393.3 L385.5,395.4 L386.3,395.9 L387.2,396.1 L388.0,402.1 L388.8,406.0 L389.7,408.3 L390.5,410.9 L391.4,407.0 L392.2,411.7 L393.0,411.2 L393.9,407.3 L394.7,406.5 L395.6,405.2 L396.4,404.7 L397.3,415.6 L398.1,417.9 L398.9,416.6 L399.8,418.2 L400.6,418.4 L401.5,419.0 L402.3,418.7 L403.1,417.9 L404.0,413.0 L404.8,407.8 L405.7,404.2 L406.5,403.4 L407.3,396.1 L408.2,387.6 L409.0,381.6 L409.9,370.7 L410.7,377.0 L411.6,382.4 L412.4,356.0 L413.2,352.6 L414.1,352.6 L414.9,356.7 L415.8,340.1 L416.6,369.4 L417.4,358.3 L418.3,368.9 L419.1,372.3 L420.0,364.0 L420.8,352.1 L421.7,345.8 L422.5,345.6 L423.3,346.9 L424.2,320.4 L425.0,323.3 L425.9,313.2 L426.7,314.2 L427.5,343.8 L428.4,331.1 L429.2,339.9 L430.1,331.3 L430.9,335.5 L431.8,337.3 L432.6,344.3 L433.4,335.2 L434.3,335.0 L435.1,324.8 L436.0,331.1 L436.8,353.6 L437.6,359.6 L438.5,361.9 L439.3,367.4 L440.2,381.4 L441.0,382.4 L441.9,372.5 L442.7,353.1 L443.5,350.8 L444.4,367.1 L445.2,365.5 L446.1,362.2 L446.9,342.0 L447.7,352.1 L448.6,354.7 L449.4,361.1 L450.3,373.6 L451.1,359.1 L451.9,342.7 L452.8,319.4 L453.6,313.9 L454.5,316.0 L455.3,313.2 L456.2,317.3 L457.0,316.0 L457.8,332.6 L458.7,328.7 L459.5,332.1 L460.4,320.7 L461.2,330.8 L462.0,330.3 L462.9,324.8 L463.7,318.1 L464.6,324.8 L465.4,323.0 L466.3,339.1 L467.1,338.1 L467.9,325.4 L468.8,321.5 L469.6,325.1 L470.5,325.1 L471.3,328.2 L472.1,330.5 L473.0,337.8 L473.8,332.4 L474.7,336.5 L475.5,341.7 L476.4,331.6 L477.2,332.1 L478.0,363.7 L478.9,399.5 L479.7,393.6 L480.6,389.4 L481.4,384.5 L482.2,387.1 L483.1,383.4 L483.9,345.1 L484.8,347.7 L485.6,354.9 L486.5,368.7 L487.3,360.9 L488.1,362.4 L489.0,344.5 L489.8,334.4 L490.7,345.8 L491.5,364.0 L492.3,352.1 L493.2,327.7 L494.0,322.0 L494.9,322.5 L495.7,326.9 L496.5,327.4 L497.4,337.3 L498.2,338.6 L499.1,335.0 L499.9,333.9 L500.8,333.4 L501.6,333.4 L502.4,332.9 L503.3,337.0 L504.1,318.6 L505.0,315.0 L505.8,315.0 L506.6,314.7 L507.5,316.8 L508.3,316.0 L509.2,315.2 L510.0,328.2 L510.9,328.5 L511.7,319.4 L512.5,323.0 L513.4,322.0 L514.2,324.1 L515.1,333.7 L515.9,339.4 L516.7,365.8 L517.6,369.4 L518.4,372.8 L519.3,367.1 L520.1,365.0 L521.0,373.1 L521.8,402.4 L522.6,396.7 L523.5,386.3 L524.3,387.6 L525.2,386.6 L526.0,388.9 L526.8,405.5 L527.7,414.0 L528.5,418.7 L529.4,420.0 L530.2,417.4 L531.1,414.3 L531.9,409.4 L532.7,410.4 L533.6,408.9 L534.4,407.0 L535.3,402.6 L536.1,405.2 L536.9,397.4 L537.8,383.4 L538.6,386.8 L539.5,359.6 L540.3,350.0 L541.2,344.3 L542.0,351.0 L542.8,347.9 L543.7,345.3 L544.5,360.9 L545.4,370.2 L546.2,380.8 L547.0,404.2 L547.9,409.4 L548.7,403.4 L549.6,396.4 L550.4,390.7 L551.2,393.0 L552.1,400.3 L552.9,395.9 L553.8,399.3 L554.6,400.6 L555.5,399.8 L556.3,399.8 L557.1,400.8 L558.0,398.5 L558.8,404.4 L559.7,404.2 L560.5,402.1 L561.3,398.7 L562.2,382.1 L563.0,378.5 L563.9,367.6 L564.7,375.1 L565.6,380.6 L566.4,363.2 L567.2,362.2 L568.1,360.9 L568.9,353.1 L569.8,353.6 L570.6,373.8 L571.4,366.6 L572.3,375.9 L573.1,378.0 L574.0,394.1 L574.8,383.7 L575.7,380.3 L576.5,367.9 L577.3,358.8 L578.2,377.7 L579.0,367.6 L579.9,349.0 L580.7,366.6 L581.5,369.4 L582.4,364.5 L583.2,344.0 L584.1,365.3 L584.9,365.3 L585.8,371.8 L586.6,398.5 L587.4,387.6 L588.3,388.9 L589.1,392.8 L590.0,394.3 L590.8,372.8 L591.6,359.3 L592.5,332.9 L593.3,324.8 L594.2,326.7 L595.0,350.2 L595.8,338.1 L596.7,344.8 L597.5,356.0 L598.4,374.6 L599.2,371.0 L600.1,393.6 L600.9,400.6 L601.7,400.6 L602.6,400.6 L603.4,402.6 L604.3,399.8 L605.1,400.0 L605.9,399.0 L606.8,394.1 L607.6,397.2 L608.5,396.7 L609.3,394.3 L610.2,395.9 L611.0,388.9 L611.8,382.7 L612.7,382.1 L613.5,372.5 L614.4,373.8 L615.2,376.2 L616.0,372.5 L616.9,366.3 L617.7,379.8 L618.6,379.8 L619.4,382.7 L620.3,375.1 L621.1,363.7 L621.9,371.0 L622.8,354.1 L623.6,374.9 L624.5,381.6 L625.3,368.1 L626.1,348.2 L627.0,364.3 L627.8,380.8 L628.7,372.0 L629.5,380.3 L630.4,372.0 L631.2,368.4 L632.0,363.5 L632.9,363.2 L633.7,380.8 L634.6,392.3 L635.4,389.9 L636.2,391.7 L637.1,390.7 L637.9,401.1 L638.8,406.3 L639.6,410.9 L640.4,406.0 L641.3,398.0 L642.1,400.3 L643.0,388.1 L643.8,369.2 L644.7,358.3 L645.5,354.9 L646.3,312.7 L647.2,317.6 L648.0,321.7 L648.9,314.5 L649.7,319.4 L650.5,313.7 L651.4,314.7 L652.2,309.5 L653.1,312.1 L653.9,314.5 L654.8,316.0 L655.6,318.9 L656.4,314.5 L657.3,315.2 L658.1,313.4 L659.0,360.9 L659.8,367.1 L660.6,369.7 L661.5,374.4 L662.3,369.7 L663.2,365.3 L664.0,364.3 L664.9,364.3 L665.7,365.3 L666.5,322.5 L667.4,319.1 L668.2,313.2 L669.1,314.7 L669.9,316.5 L670.7,320.9 L671.6,320.9 L672.4,327.7 L673.3,321.7 L675.0,329.5 L675.8,342.7 L676.6,341.4 L677.5,351.0 L678.3,341.4 L679.2,335.2 L680.0,383.7" stroke="#1f77b4" stroke-width="2" fill="none" opacity="0.8"/>
<!-- Hydro Generation -->
<path d="M80.0,348.4 L80.8,348.2 L81.7,348.2 L82.5,348.4 L83.4,348.4 L84.2,348.2 L85.0,348.4 L85.9,348.2 L86.7,348.4 L87.6,349.2 L88.4,349.2 L89.3,349.0 L90.1,349.2 L90.9,349.0 L91.8,349.0 L92.6,349.5 L93.5,349.7 L94.3,350.8 L95.1,350.8 L96.0,350.5 L96.8,351.0 L97.7,351.3 L98.5,351.0 L99.4,351.3 L100.2,350.5 L101.0,351.0 L101.9,351.0 L102.7,350.8 L103.6,350.5 L104.4,350.5 L105.2,350.5 L106.1,350.2 L106.9,350.5 L107.8,349.7 L108.6,350.2 L109.5,350.0 L110.3,349.7 L111.1,350.0 L112.0,349.7 L112.8,349.5 L113.7,349.7 L114.5,350.2 L115.3,349.7 L116.2,349.5 L117.0,349.2 L117.9,349.7 L118.7,349.7 L119.6,350.8 L120.4,350.8 L121.2,352.1 L122.1,351.3 L122.9,352.8 L123.8,352.3 L124.6,351.8 L125.4,351.5 L126.3,351.8 L127.1,351.0 L128.0,351.0 L128.8,351.0 L129.6,350.8 L130.5,351.0 L131.3,351.0 L132.2,351.0 L133.0,351.0 L133.9,351.0 L134.7,351.0 L135.5,350.5 L136.4,350.5 L137.2,350.8 L138.1,350.2 L138.9,350.2 L139.7,350.2 L140.6,350.2 L141.4,350.8 L142.3,350.8 L143.1,350.2 L144.0,350.2 L144.8,349.0 L145.6,349.5 L146.5,349.5 L147.3,349.0 L148.2,350.0 L149.0,350.0 L149.8,350.2 L150.7,350.0 L151.5,349.5 L152.4,350.0 L153.2,350.0 L154.1,350.2 L154.9,350.2 L155.7,350.0 L156.6,349.5 L157.4,349.7 L158.3,350.0 L159.1,349.7 L159.9,349.7 L160.8,349.7 L161.6,350.5 L162.5,350.2 L163.3,349.7 L164.2,348.7 L165.0,349.2 L165.8,349.0 L166.7,349.0 L167.5,349.0 L168.4,348.7 L169.2,348.7 L170.0,349.2 L170.9,349.0 L171.7,349.2 L172.6,348.7 L173.4,348.7 L174.2,348.4 L175.1,348.7 L175.9,348.4 L176.8,348.7 L177.6,348.4 L178.5,348.4 L179.3,347.7 L180.1,347.7 L181.0,347.4 L181.8,347.1 L182.7,347.1 L183.5,347.4 L184.3,346.9 L185.2,347.1 L186.0,347.1 L186.9,347.1 L187.7,347.1 L188.6,348.4 L189.4,347.9 L190.2,347.9 L191.1,347.1 L191.9,348.4 L192.8,347.9 L193.6,348.2 L194.4,348.2 L195.3,348.2 L196.1,348.4 L197.0,348.4 L197.8,348.2 L198.7,347.9 L199.5,347.7 L200.3,348.2 L201.2,348.4 L202.0,348.2 L202.9,349.0 L203.7,349.2 L204.5,349.0 L205.4,349.5 L206.2,349.2 L207.1,349.5 L207.9,349.2 L208.8,349.2 L209.6,349.2 L210.4,349.0 L211.3,349.2 L212.1,349.2 L213.0,349.7 L213.8,349.7 L214.6,350.0 L215.5,350.0 L216.3,350.0 L217.2,350.0 L218.0,349.7 L218.8,350.2 L219.7,350.0 L220.5,349.2 L221.4,349.2 L222.2,349.2 L223.1,348.7 L223.9,349.7 L224.7,349.7 L225.6,350.0 L226.4,349.5 L227.3,350.0 L228.1,350.0 L228.9,349.7 L229.8,350.0 L230.6,350.0 L231.5,350.2 L232.3,350.0 L233.2,350.2 L234.0,350.2 L234.8,350.5 L235.7,350.2 L236.5,350.2 L237.4,350.2 L238.2,350.0 L239.0,350.2 L239.9,350.8 L240.7,351.0 L241.6,350.5 L242.4,350.8 L243.3,350.8 L244.1,350.5 L244.9,351.3 L245.8,351.0 L246.6,352.1 L247.5,352.1 L248.3,351.5 L249.1,351.5 L250.0,351.5 L250.8,351.3 L251.7,351.3 L252.5,351.3 L253.4,351.3 L254.2,351.5 L255.0,351.5 L255.9,351.5 L256.7,351.3 L257.6,351.0 L258.4,351.0 L259.2,350.8 L260.1,351.3 L260.9,351.0 L261.8,350.8 L262.6,350.8 L263.5,350.2 L264.3,350.5 L265.1,350.5 L266.0,350.0 L266.8,350.2 L267.7,350.5 L268.5,351.0 L269.3,351.0 L270.2,350.8 L271.0,351.0 L271.9,350.5 L272.7,351.0 L273.5,351.0 L274.4,351.0 L275.2,350.8 L276.1,351.0 L276.9,351.3 L277.8,350.8 L278.6,349.7 L279.4,349.7 L280.3,349.5 L281.1,349.5 L282.0,349.2 L282.8,348.7 L283.6,347.9 L284.5,348.4 L285.3,347.9 L286.2,347.9 L287.0,347.1 L287.9,347.1 L288.7,347.7 L289.5,347.1 L290.4,347.4 L291.2,347.4 L292.1,348.2 L292.9,348.4 L293.7,348.2 L294.6,348.4 L295.4,347.9 L296.3,349.0 L297.1,349.0 L298.0,349.2 L298.8,349.2 L299.6,349.2 L300.5,349.2 L301.3,349.2 L302.2,348.4 L303.0,348.2 L303.8,348.4 L304.7,348.7 L305.5,348.2 L306.4,347.4 L307.2,346.6 L308.1,346.9 L308.9,346.1 L309.7,346.6 L310.6,346.4 L311.4,346.4 L312.3,346.4 L313.1,346.4 L313.9,346.1 L314.8,347.7 L315.6,347.9 L316.5,348.2 L317.3,347.9 L318.1,346.9 L319.0,347.1 L319.8,346.4 L320.7,345.3 L321.5,345.8 L322.4,345.3 L323.2,345.8 L324.0,345.1 L324.9,344.0 L325.7,344.5 L326.6,343.2 L327.4,343.2 L328.2,343.8 L329.1,343.8 L329.9,344.3 L330.8,349.5 L331.6,350.8 L332.5,354.4 L333.3,356.5 L334.1,356.0 L335.0,357.0 L335.8,356.2 L336.7,357.0 L337.5,358.0 L338.3,357.3 L339.2,355.7 L340.0,355.2 L340.9,355.2 L341.7,353.6 L342.6,353.6 L343.4,353.4 L344.2,353.6 L345.1,353.4 L345.9,353.4 L346.8,353.6 L347.6,353.6 L348.4,353.9 L349.3,354.1 L350.1,354.1 L351.0,355.4 L351.8,355.2 L352.7,358.0 L353.5,359.3 L354.3,359.3 L355.2,359.6 L356.0,360.9 L356.9,361.4 L357.7,361.4 L358.5,361.7 L359.4,364.0 L360.2,375.9 L361.1,376.2 L361.9,362.7 L362.7,362.7 L363.6,362.4 L364.4,362.2 L365.3,362.4 L366.1,363.2 L367.0,362.7 L367.8,363.2 L368.6,363.2 L369.5,361.4 L370.3,360.9 L371.2,360.9 L372.0,359.3 L372.8,358.3 L373.7,355.4 L374.5,355.2 L375.4,355.7 L376.2,355.7 L377.1,356.0 L377.9,354.4 L378.7,354.1 L379.6,354.4 L380.4,351.5 L381.3,351.5 L382.1,352.3 L382.9,350.0 L383.8,349.7 L384.6,350.2 L385.5,348.7 L386.3,348.4 L387.2,346.9 L388.0,347.7 L388.8,346.9 L389.7,347.4 L390.5,347.1 L391.4,346.9 L392.2,346.9 L393.0,346.6 L393.9,346.6 L394.7,346.9 L395.6,346.6 L396.4,346.6 L397.3,346.1 L398.1,346.1 L398.9,347.7 L399.8,347.4 L400.6,345.8 L401.5,345.1 L402.3,344.8 L403.1,342.5 L404.0,342.2 L404.8,342.5 L405.7,342.0 L406.5,342.2 L407.3,342.2 L408.2,341.7 L409.0,341.7 L409.9,341.7 L410.7,341.7 L411.6,341.7 L412.4,342.0 L413.2,342.2 L414.1,342.0 L414.9,342.0 L415.8,342.7 L416.6,342.5 L417.4,343.2 L418.3,341.7 L419.1,342.2 L420.0,342.5 L420.8,342.7 L421.7,342.7 L422.5,342.5 L423.3,341.7 L424.2,341.4 L425.0,341.7 L425.9,341.7 L426.7,341.7 L427.5,341.2 L428.4,340.9 L429.2,340.7 L430.1,340.9 L430.9,340.9 L431.8,339.9 L432.6,339.6 L433.4,339.6 L434.3,339.6 L435.1,339.9 L436.0,339.4 L436.8,339.6 L437.6,339.9 L438.5,340.4 L439.3,340.4 L440.2,340.1 L441.0,340.4 L441.9,341.2 L442.7,339.9 L443.5,338.8 L444.4,338.6 L445.2,338.8 L446.1,337.8 L446.9,338.3 L447.7,338.3 L448.6,337.8 L449.4,338.3 L450.3,338.6 L451.1,338.6 L451.9,338.1 L452.8,338.1 L453.6,337.8 L454.5,338.3 L455.3,338.1 L456.2,338.8 L457.0,340.1 L457.8,340.7 L458.7,340.9 L459.5,340.7 L460.4,340.4 L461.2,340.7 L462.0,340.4 L462.9,340.4 L463.7,339.9 L464.6,340.4 L465.4,338.6 L466.3,338.8 L467.1,338.6 L467.9,337.5 L468.8,338.3 L469.6,338.1 L470.5,338.1 L471.3,338.3 L472.1,338.3 L473.0,339.1 L473.8,340.1 L474.7,340.4 L475.5,340.7 L476.4,340.4 L477.2,341.2 L478.0,341.2 L478.9,341.2 L479.7,341.4 L480.6,342.5 L481.4,343.5 L482.2,344.5 L483.1,342.0 L483.9,342.7 L484.8,343.2 L485.6,343.0 L486.5,342.7 L487.3,343.5 L488.1,343.2 L489.0,343.2 L489.8,343.2 L490.7,343.5 L491.5,343.0 L492.3,342.7 L493.2,342.0 L494.0,342.2 L494.9,342.2 L495.7,342.0 L496.5,342.7 L497.4,342.7 L498.2,343.0 L499.1,344.0 L499.9,346.1 L500.8,345.6 L501.6,347.1 L502.4,347.4 L503.3,349.7 L504.1,350.0 L505.0,349.5 L505.8,349.7 L506.6,350.8 L507.5,351.0 L508.3,351.0 L509.2,351.8 L510.0,352.6 L510.9,351.5 L511.7,351.5 L512.5,351.5 L513.4,351.8 L514.2,351.8 L515.1,352.8 L515.9,353.9 L516.7,355.2 L517.6,354.9 L518.4,354.7 L519.3,355.2 L520.1,354.9 L521.0,354.9 L521.8,355.4 L522.6,354.9 L523.5,354.7 L524.3,354.9 L525.2,354.9 L526.0,355.2 L526.8,354.9 L527.7,355.4 L528.5,355.4 L529.4,355.2 L530.2,355.2 L531.1,354.9 L531.9,354.9 L532.7,355.2 L533.6,355.2 L534.4,355.2 L535.3,355.4 L536.1,355.7 L536.9,356.5 L537.8,356.0 L538.6,356.5 L539.5,356.2 L540.3,356.0 L541.2,356.0 L542.0,355.7 L542.8,355.7 L543.7,356.0 L544.5,356.0 L545.4,356.2 L546.2,356.0 L547.0,356.0 L547.9,356.0 L548.7,356.0 L549.6,356.2 L550.4,356.2 L551.2,355.4 L552.1,356.0 L552.9,355.4 L553.8,355.4 L554.6,355.4 L555.5,354.7 L556.3,354.9 L557.1,354.9 L558.0,354.9 L558.8,354.4 L559.7,354.7 L560.5,354.4 L561.3,355.4 L562.2,356.2 L563.0,355.2 L563.9,355.2 L564.7,355.7 L565.6,356.5 L566.4,357.3 L567.2,357.8 L568.1,357.8 L568.9,357.8 L569.8,357.8 L570.6,356.7 L571.4,356.5 L572.3,356.5 L573.1,355.7 L574.0,355.4 L574.8,355.2 L575.7,354.9 L576.5,355.2 L577.3,354.1 L578.2,354.1 L579.0,354.1 L579.9,354.1 L580.7,354.1 L581.5,353.9 L582.4,353.9 L583.2,353.4 L584.1,353.4 L584.9,353.6 L585.8,353.6 L586.6,352.8 L587.4,353.4 L588.3,353.4 L589.1,353.1 L590.0,353.1 L590.8,353.1 L591.6,354.1 L592.5,354.4 L593.3,354.1 L594.2,353.9 L595.0,353.9 L595.8,353.9 L596.7,353.9 L597.5,353.9 L598.4,353.9 L599.2,353.4 L600.1,353.1 L600.9,353.4 L601.7,353.9 L602.6,355.4 L603.4,352.3 L604.3,352.1 L605.1,352.1 L605.9,352.1 L606.8,352.1 L607.6,352.1 L608.5,353.4 L609.3,353.1 L610.2,352.8 L611.0,353.1 L611.8,353.9 L612.7,354.4 L613.5,353.9 L614.4,354.1 L615.2,353.9 L616.0,353.9 L616.9,353.6 L617.7,353.4 L618.6,352.8 L619.4,351.5 L620.3,352.8 L621.1,352.6 L621.9,352.1 L622.8,351.5 L623.6,351.3 L624.5,352.3 L625.3,353.1 L626.1,352.3 L627.0,352.3 L627.8,353.1 L628.7,353.4 L629.5,353.1 L630.4,353.4 L631.2,353.4 L632.0,354.1 L632.9,353.4 L633.7,353.6 L634.6,352.8 L635.4,352.3 L636.2,352.3 L637.1,352.3 L637.9,352.8 L638.8,353.4 L639.6,352.8 L640.4,353.4 L641.3,356.5 L642.1,356.5 L643.0,357.5 L643.8,359.1 L644.7,357.5 L645.5,357.3 L646.3,357.8 L647.2,358.0 L648.0,356.7 L648.9,356.7 L649.7,357.3 L650.5,357.0 L651.4,356.5 L652.2,356.7 L653.1,356.7 L653.9,356.7 L654.8,357.0 L655.6,357.0 L656.4,357.0 L657.3,357.3 L658.1,357.0 L659.0,357.0 L659.8,358.0 L660.6,357.3 L661.5,357.8 L662.3,356.5 L663.2,357.0 L664.0,357.3 L664.9,357.0 L665.7,357.3 L666.5,357.3 L667.4,357.0 L668.2,357.0 L669.1,357.5 L669.9,357.3 L670.7,357.0 L671.6,357.3 L672.4,357.0 L673.3,356.7 L675.0,357.0 L675.8,357.3 L676.6,357.3 L677.5,357.0 L678.3,357.3 L679.2,357.3 L680.0,357.5" stroke="#ff7f0e" stroke-width="2" fill="none" opacity="0.8"/>
<!-- Thermal Generation -->
<path d="M80.0,303.6 L80.8,261.3 L81.7,263.9 L82.5,259.2 L83.4,259.2 L84.2,279.2 L85.0,320.7 L85.9,321.7 L86.7,347.4 L87.6,362.4 L88.4,362.4 L89.3,373.1 L90.1,372.8 L90.9,363.0 L91.8,362.4 L92.6,362.7 L93.5,363.0 L94.3,373.3 L95.1,372.8 L96.0,372.5 L96.8,370.2 L97.7,370.0 L98.5,365.5 L99.4,364.0 L100.2,364.0 L101.0,329.5 L101.9,330.5 L102.7,357.0 L103.6,354.1 L104.4,353.9 L105.2,351.5 L106.1,354.1 L106.9,354.4 L107.8,364.5 L108.6,364.0 L109.5,364.0 L110.3,363.7 L111.1,364.3 L112.0,364.3 L112.8,364.3 L113.7,349.0 L114.5,349.0 L115.3,348.7 L116.2,348.7 L117.0,348.2 L117.9,349.2 L118.7,349.0 L119.6,348.7 L120.4,324.8 L121.2,267.3 L122.1,286.7 L122.9,286.5 L123.8,286.5 L124.6,286.2 L125.4,286.2 L126.3,286.5 L127.1,287.0 L128.0,307.2 L128.8,305.4 L129.6,306.4 L130.5,305.4 L131.3,292.4 L132.2,286.7 L133.0,296.3 L133.9,296.6 L134.7,298.1 L135.5,287.0 L136.4,285.4 L137.2,284.4 L138.1,286.7 L138.9,286.5 L139.7,286.7 L140.6,268.8 L141.4,255.3 L142.3,252.0 L143.1,254.3 L144.0,255.1 L144.8,265.2 L145.6,261.6 L146.5,287.0 L147.3,286.5 L148.2,246.8 L149.0,242.4 L149.8,242.4 L150.7,249.9 L151.5,256.6 L152.4,259.2 L153.2,259.0 L154.1,266.2 L154.9,261.6 L155.7,259.8 L156.6,258.7 L157.4,301.0 L158.3,290.6 L159.1,315.0 L159.9,317.1 L160.8,263.4 L161.6,250.2 L162.5,244.7 L163.3,243.2 L164.2,242.9 L165.0,241.6 L165.8,242.1 L166.7,241.9 L167.5,241.6 L168.4,269.6 L169.2,272.5 L170.0,272.5 L170.9,260.0 L171.7,244.7 L172.6,245.2 L173.4,245.2 L174.2,247.1 L175.1,246.8 L175.9,263.9 L176.8,270.1 L177.6,278.2 L178.5,297.9 L179.3,297.6 L180.1,292.4 L181.0,247.8 L181.8,246.8 L182.7,262.9 L183.5,259.0 L184.3,259.0 L185.2,271.7 L186.0,269.6 L186.9,310.3 L187.7,327.4 L188.6,262.1 L189.4,264.4 L190.2,262.3 L191.1,254.8 L191.9,262.1 L192.8,262.1 L193.6,265.5 L194.4,263.1 L195.3,299.7 L196.1,272.5 L197.0,290.6 L197.8,304.4 L198.7,299.4 L199.5,328.0 L200.3,303.3 L201.2,287.2 L202.0,262.9 L202.9,259.5 L203.7,243.4 L204.5,243.2 L205.4,242.6 L206.2,242.9 L207.1,242.1 L207.9,250.2 L208.8,257.4 L209.6,267.5 L210.4,257.2 L211.3,242.4 L212.1,262.3 L213.0,242.9 L213.8,242.9 L214.6,243.2 L215.5,267.3 L216.3,281.5 L217.2,288.0 L218.0,272.2 L218.8,270.1 L219.7,248.6 L220.5,256.9 L221.4,252.5 L222.2,242.9 L223.1,242.9 L223.9,241.9 L224.7,242.1 L225.6,242.1 L226.4,242.1 L227.3,244.7 L228.1,261.8 L228.9,247.6 L229.8,259.5 L230.6,284.1 L231.5,283.9 L232.3,286.5 L233.2,286.5 L234.0,287.8 L234.8,287.2 L235.7,305.7 L236.5,325.6 L237.4,352.1 L238.2,352.1 L239.0,352.3 L239.9,357.3 L240.7,357.3 L241.6,342.0 L242.4,267.0 L243.3,244.7 L244.1,247.3 L244.9,268.1 L245.8,262.3 L246.6,287.2 L247.5,286.2 L248.3,281.8 L249.1,286.2 L250.0,287.0 L250.8,303.3 L251.7,286.5 L252.5,286.7 L253.4,287.5 L254.2,287.8 L255.0,288.8 L255.9,287.8 L256.7,287.5 L257.6,287.2 L258.4,301.2 L259.2,306.9 L260.1,307.2 L260.9,317.1 L261.8,301.5 L262.6,254.6 L263.5,242.1 L264.3,241.9 L265.1,242.4 L266.0,249.9 L266.8,258.2 L267.7,267.5 L268.5,274.8 L269.3,276.9 L270.2,246.0 L271.0,247.3 L271.9,243.2 L272.7,241.6 L273.5,242.9 L274.4,250.4 L275.2,277.6 L276.1,250.2 L276.9,290.1 L277.8,296.6 L278.6,295.5 L279.4,297.1 L280.3,297.1 L281.1,273.5 L282.0,242.4 L282.8,242.6 L283.6,243.4 L284.5,243.4 L285.3,242.6 L286.2,242.4 L287.0,272.7 L287.9,287.2 L288.7,287.2 L289.5,331.8 L290.4,344.3 L291.2,338.3 L292.1,333.9 L292.9,323.3 L293.7,307.7 L294.6,330.5 L295.4,318.9 L296.3,320.2 L297.1,322.2 L298.0,343.8 L298.8,345.1 L299.6,344.0 L300.5,344.5 L301.3,345.1 L302.2,344.5 L303.0,306.9 L303.8,304.6 L304.7,305.1 L305.5,308.0 L306.4,304.4 L307.2,335.0 L308.1,334.4 L308.9,339.1 L309.7,342.2 L310.6,341.7 L311.4,342.0 L312.3,339.6 L313.1,335.0 L313.9,326.7 L314.8,335.2 L315.6,335.7 L316.5,341.7 L317.3,342.2 L318.1,341.2 L319.0,341.4 L319.8,341.7 L320.7,341.2 L321.5,341.2 L322.4,341.7 L323.2,297.1 L324.0,300.7 L324.9,303.1 L325.7,300.2 L326.6,299.9 L327.4,303.1 L328.2,312.4 L329.1,317.1 L329.9,299.4 L330.8,299.7 L331.6,300.2 L332.5,300.2 L333.3,300.5 L334.1,302.5 L335.0,305.4 L335.8,313.2 L336.7,310.3 L337.5,324.3 L338.3,308.5 L339.2,306.4 L340.0,330.0 L340.9,324.8 L341.7,331.8 L342.6,326.1 L343.4,303.8 L344.2,304.9 L345.1,301.8 L345.9,303.1 L346.8,302.8 L347.6,302.3 L348.4,302.0 L349.3,302.0 L350.1,302.3 L351.0,307.5 L351.8,304.9 L352.7,302.8 L353.5,302.5 L354.3,302.3 L355.2,302.5 L356.0,303.8 L356.9,314.5 L357.7,333.9 L358.5,344.0 L359.4,344.0 L360.2,363.5 L361.1,371.3 L361.9,363.2 L362.7,343.0 L363.6,299.4 L364.4,298.9 L365.3,300.2 L366.1,302.5 L367.0,314.2 L367.8,316.3 L368.6,298.7 L369.5,299.7 L370.3,299.2 L371.2,299.4 L372.0,303.3 L372.8,301.5 L373.7,301.0 L374.5,298.9 L375.4,304.9 L376.2,320.7 L377.1,325.9 L377.9,333.1 L378.7,343.8 L379.6,364.0 L380.4,364.3 L381.3,363.2 L382.1,363.5 L382.9,363.7 L383.8,301.8 L384.6,298.9 L385.5,299.4 L386.3,304.9 L387.2,299.4 L388.0,298.9 L388.8,302.5 L389.7,299.4 L390.5,299.2 L391.4,301.2 L392.2,300.7 L393.0,299.7 L393.9,299.2 L394.7,301.5 L395.6,299.7 L396.4,320.9 L397.3,344.3 L398.1,341.4 L398.9,364.5 L399.8,363.5 L400.6,363.7 L401.5,362.7 L402.3,364.8 L403.1,363.5 L404.0,279.7 L404.8,253.5 L405.7,252.5 L406.5,242.1 L407.3,278.4 L408.2,286.7 L409.0,285.7 L409.9,286.7 L410.7,327.4 L411.6,352.3 L412.4,352.1 L413.2,338.3 L414.1,337.3 L414.9,290.6 L415.8,296.6 L416.6,328.0 L417.4,354.7 L418.3,364.8 L419.1,364.5 L420.0,364.0 L420.8,364.5 L421.7,364.3 L422.5,364.5 L423.3,365.5 L424.2,291.4 L425.0,267.8 L425.9,268.8 L426.7,288.0 L427.5,331.8 L428.4,360.9 L429.2,333.1 L430.1,343.0 L430.9,342.7 L431.8,353.4 L432.6,353.4 L433.4,343.2 L434.3,327.4 L435.1,274.8 L436.0,317.8 L436.8,315.0 L437.6,340.9 L438.5,340.9 L439.3,341.4 L440.2,326.1 L441.0,311.4 L441.9,313.2 L442.7,296.6 L443.5,264.9 L444.4,242.4 L445.2,242.1 L446.1,242.1 L446.9,244.5 L447.7,243.4 L448.6,288.0 L449.4,288.5 L450.3,314.2 L451.1,311.1 L451.9,301.8 L452.8,317.1 L453.6,342.5 L454.5,364.0 L455.3,348.7 L456.2,344.3 L457.0,344.0 L457.8,364.3 L458.7,364.5 L459.5,364.3 L460.4,364.0 L461.2,364.3 L462.0,364.0 L462.9,364.0 L463.7,364.3 L464.6,339.1 L465.4,308.8 L466.3,348.2 L467.1,353.6 L467.9,364.0 L468.8,363.5 L469.6,363.5 L470.5,363.7 L471.3,364.0 L472.1,363.5 L473.0,363.5 L473.8,343.0 L474.7,332.6 L475.5,315.8 L476.4,330.8 L477.2,350.0 L478.0,353.9 L478.9,340.7 L479.7,340.9 L480.6,341.2 L481.4,326.7 L482.2,326.7 L483.1,336.0 L483.9,335.7 L484.8,300.7 L485.6,292.7 L486.5,283.6 L487.3,287.0 L488.1,303.8 L489.0,364.0 L489.8,363.7 L490.7,363.7 L491.5,363.7 L492.3,363.7 L493.2,363.0 L494.0,363.5 L494.9,363.7 L495.7,363.5 L496.5,364.5 L497.4,364.0 L498.2,363.7 L499.1,363.7 L499.9,364.0 L500.8,364.3 L501.6,364.3 L502.4,364.0 L503.3,364.3 L504.1,363.5 L505.0,354.4 L505.8,337.8 L506.6,348.4 L507.5,356.2 L508.3,356.2 L509.2,364.0 L510.0,363.7 L510.9,364.0 L511.7,364.0 L512.5,364.3 L513.4,363.7 L514.2,364.0 L515.1,364.0 L515.9,357.3 L516.7,345.1 L517.6,355.2 L518.4,343.0 L519.3,364.0 L520.1,352.8 L521.0,363.7 L521.8,363.7 L522.6,353.4 L523.5,317.3 L524.3,305.7 L525.2,258.2 L526.0,242.9 L526.8,242.9 L527.7,243.2 L528.5,245.5 L529.4,242.9 L530.2,242.1 L531.1,243.4 L531.9,242.6 L532.7,264.4 L533.6,286.5 L534.4,286.2 L535.3,261.8 L536.1,249.4 L536.9,286.2 L537.8,286.5 L538.6,301.2 L539.5,332.4 L540.3,348.2 L541.2,363.7 L542.0,363.7 L542.8,363.7 L543.7,363.5 L544.5,363.5 L545.4,285.4 L546.2,257.2 L547.0,249.4 L547.9,250.7 L548.7,245.2 L549.6,252.5 L550.4,279.2 L551.2,286.7 L552.1,302.5 L552.9,297.1 L553.8,291.4 L554.6,293.5 L555.5,272.7 L556.3,268.8 L557.1,249.1 L558.0,275.6 L558.8,296.3 L559.7,286.5 L560.5,312.7 L561.3,325.1 L562.2,325.9 L563.0,324.8 L563.9,325.4 L564.7,325.6 L565.6,281.3 L566.4,282.1 L567.2,281.8 L568.1,281.8 L568.9,281.3 L569.8,281.5 L570.6,281.5 L571.4,292.7 L572.3,318.1 L573.1,322.8 L574.0,301.5 L574.8,287.2 L575.7,273.5 L576.5,262.9 L577.3,280.2 L578.2,317.1 L579.0,323.0 L579.9,325.4 L580.7,338.1 L581.5,338.3 L582.4,338.1 L583.2,337.5 L584.1,337.8 L584.9,338.3 L585.8,288.3 L586.6,252.0 L587.4,243.4 L588.3,243.2 L589.1,254.6 L590.0,257.4 L590.8,278.7 L591.6,300.5 L592.5,343.5 L593.3,363.7 L594.2,363.7 L595.0,363.2 L595.8,316.5 L596.7,245.2 L597.5,288.0 L598.4,288.0 L599.2,329.5 L600.1,329.5 L600.9,330.0 L601.7,330.0 L602.6,330.3 L603.4,329.8 L604.3,330.0 L605.1,329.2 L605.9,320.2 L606.8,294.5 L607.6,311.4 L608.5,306.7 L609.3,306.7 L610.2,319.4 L611.0,324.3 L611.8,332.4 L612.7,343.2 L613.5,350.8 L614.4,350.5 L615.2,350.2 L616.0,308.0 L616.9,288.0 L617.7,288.3 L618.6,301.5 L619.4,290.4 L620.3,331.1 L621.1,330.5 L621.9,330.3 L622.8,340.7 L623.6,340.7 L624.5,341.4 L625.3,340.9 L626.1,341.2 L627.0,340.9 L627.8,340.9 L628.7,314.5 L629.5,293.5 L630.4,309.5 L631.2,330.5 L632.0,329.8 L632.9,330.0 L633.7,329.8 L634.6,330.0 L635.4,329.8 L636.2,330.5 L637.1,296.1 L637.9,340.9 L638.8,340.4 L639.6,341.2 L640.4,364.8 L641.3,364.3 L642.1,364.3 L643.0,364.0 L643.8,364.0 L644.7,364.3 L645.5,364.3 L646.3,364.0 L647.2,332.9 L648.0,333.7 L648.9,322.2 L649.7,306.4 L650.5,311.9 L651.4,356.0 L652.2,356.2 L653.1,360.9 L653.9,361.1 L654.8,361.4 L655.6,361.1 L656.4,361.1 L657.3,364.3 L658.1,364.8 L659.0,364.3 L659.8,364.3 L660.6,364.3 L661.5,364.0 L662.3,364.3 L663.2,364.3 L664.0,364.3 L664.9,364.3 L665.7,363.7 L666.5,363.5 L667.4,363.7 L668.2,364.0 L669.1,363.7 L669.9,364.0 L670.7,364.0 L671.6,364.0 L672.4,363.5 L673.3,349.2 L675.0,363.7 L675.8,363.7 L676.6,364.0 L677.5,364.0 L678.3,364.3 L679.2,364.0 L680.0,364.0" stroke="#2ca02c" stroke-width="2" fill="none" opacity="0.8"/>
<!-- Solar Generation -->
<path d="M80.0,416.1 L80.8,420.0 L81.7,420.0 L82.5,420.0 L83.4,420.0 L84.2,420.0 L85.0,420.0 L85.9,420.0 L86.7,420.0 L87.6,420.0 L88.4,420.0 L89.3,420.0 L90.1,420.0 L90.9,420.0 L91.8,420.0 L92.6,420.0 L93.5,417.7 L94.3,392.0 L95.1,399.0 L96.0,395.4 L96.8,394.8 L97.7,395.6 L98.5,392.3 L99.4,394.3 L100.2,410.9 L101.0,420.0 L101.9,420.0 L102.7,420.0 L103.6,420.0 L104.4,420.0 L105.2,420.0 L106.1,420.0 L106.9,420.0 L107.8,420.0 L108.6,420.0 L109.5,420.0 L110.3,420.0 L111.1,420.0 L112.0,420.0 L112.8,419.7 L113.7,417.9 L114.5,412.2 L115.3,411.2 L116.2,409.4 L117.0,405.5 L117.9,412.2 L118.7,412.7 L119.6,416.6 L120.4,419.0 L121.2,420.0 L122.1,420.0 L122.9,420.0 L123.8,420.0 L124.6,420.0 L125.4,420.0 L126.3,420.0 L127.1,420.0 L128.0,420.0 L128.8,420.0 L129.6,420.0 L130.5,420.0 L131.3,420.0 L132.2,420.0 L133.0,420.0 L133.9,409.9 L134.7,414.8 L135.5,411.7 L136.4,410.7 L137.2,399.8 L138.1,401.8 L138.9,411.2 L139.7,408.6 L140.6,413.3 L141.4,420.0 L142.3,420.0 L143.1,420.0 L144.0,420.0 L144.8,420.0 L145.6,420.0 L146.5,420.0 L147.3,420.0 L148.2,420.0 L149.0,420.0 L149.8,420.0 L150.7,420.0 L151.5,420.0 L152.4,420.0 L153.2,419.2 L154.1,401.8 L154.9,392.3 L155.7,394.1 L156.6,395.1 L157.4,394.6 L158.3,391.2 L159.1,396.9 L159.9,398.7 L160.8,408.9 L161.6,420.0 L162.5,420.0 L163.3,420.0 L164.2,420.0 L165.0,420.0 L165.8,420.0 L166.7,420.0 L167.5,420.0 L168.4,420.0 L169.2,420.0 L170.0,420.0 L170.9,420.0 L171.7,420.0 L172.6,420.0 L173.4,419.5 L174.2,414.6 L175.1,410.1 L175.9,396.9 L176.8,389.4 L177.6,394.3 L178.5,399.0 L179.3,395.4 L180.1,397.7 L181.0,408.3 L181.8,420.0 L182.7,420.0 L183.5,420.0 L184.3,420.0 L185.2,420.0 L186.0,420.0 L186.9,420.0 L187.7,420.0 L188.6,420.0 L189.4,420.0 L190.2,420.0 L191.1,420.0 L191.9,420.0 L192.8,420.0 L193.6,419.0 L194.4,401.8 L195.3,390.4 L196.1,391.2 L197.0,393.6 L197.8,394.1 L198.7,392.5 L199.5,390.2 L200.3,390.7 L201.2,407.6 L202.0,419.7 L202.9,420.0 L203.7,420.0 L204.5,420.0 L205.4,420.0 L206.2,420.0 L207.1,420.0 L207.9,420.0 L208.8,420.0 L209.6,420.0 L210.4,420.0 L211.3,420.0 L212.1,420.0 L213.0,420.0 L213.8,418.4 L214.6,408.1 L215.5,389.9 L216.3,392.5 L217.2,393.3 L218.0,393.8 L218.8,391.7 L219.7,398.7 L220.5,396.4 L221.4,412.7 L222.2,420.0 L223.1,420.0 L223.9,420.0 L224.7,420.0 L225.6,420.0 L226.4,420.0 L227.3,420.0 L228.1,420.0 L228.9,420.0 L229.8,420.0 L230.6,420.0 L231.5,420.0 L232.3,420.0 L233.2,420.0 L234.0,419.5 L234.8,409.6 L235.7,399.0 L236.5,394.1 L237.4,394.3 L238.2,397.4 L239.0,394.6 L239.9,406.5 L240.7,404.4 L241.6,415.1 L242.4,419.7 L243.3,420.0 L244.1,420.0 L244.9,420.0 L245.8,420.0 L246.6,420.0 L247.5,420.0 L248.3,420.0 L249.1,420.0 L250.0,420.0 L250.8,420.0 L251.7,420.0 L252.5,420.0 L253.4,420.0 L254.2,419.2 L255.0,407.0 L255.9,402.6 L256.7,398.5 L257.6,403.4 L258.4,391.2 L259.2,399.8 L260.1,403.9 L260.9,408.1 L261.8,415.3 L262.6,419.7 L263.5,420.0 L264.3,420.0 L265.1,420.0 L266.0,420.0 L266.8,420.0 L267.7,420.0 L268.5,420.0 L269.3,420.0 L270.2,420.0 L271.0,420.0 L271.9,420.0 L272.7,420.0 L273.5,420.0 L274.4,418.7 L275.2,399.5 L276.1,398.0 L276.9,390.7 L277.8,390.7 L278.6,389.7 L279.4,395.6 L280.3,394.8 L281.1,395.9 L282.0,413.0 L282.8,419.7 L283.6,420.0 L284.5,420.0 L285.3,420.0 L286.2,420.0 L287.0,420.0 L287.9,420.0 L288.7,420.0 L289.5,420.0 L290.4,420.0 L291.2,420.0 L292.1,420.0 L292.9,420.0 L293.7,420.0 L294.6,419.2 L295.4,417.1 L296.3,414.6 L297.1,412.7 L298.0,401.3 L298.8,400.8 L299.6,400.6 L300.5,404.2 L301.3,408.1 L302.2,410.1 L303.0,419.5 L303.8,420.0 L304.7,420.0 L305.5,420.0 L306.4,420.0 L307.2,420.0 L308.1,420.0 L308.9,420.0 L309.7,420.0 L310.6,420.0 L311.4,420.0 L312.3,420.0 L313.1,420.0 L313.9,420.0 L314.8,419.5 L315.6,412.2 L316.5,413.5 L317.3,409.9 L318.1,406.3 L319.0,403.1 L319.8,406.5 L320.7,409.4 L321.5,415.9 L322.4,418.4 L323.2,420.0 L324.0,420.0 L324.9,420.0 L325.7,420.0 L326.6,420.0 L327.4,420.0 L328.2,420.0 L329.1,420.0 L329.9,420.0 L330.8,420.0 L331.6,420.0 L332.5,420.0 L333.3,420.0 L334.1,420.0 L335.0,419.7 L335.8,417.1 L336.7,414.3 L337.5,409.4 L338.3,405.7 L339.2,401.3 L340.0,398.7 L340.9,394.1 L341.7,391.5 L342.6,405.0 L343.4,419.5 L344.2,420.0 L345.1,420.0 L345.9,420.0 L346.8,420.0 L347.6,420.0 L348.4,420.0 L349.3,420.0 L350.1,420.0 L351.0,420.0 L351.8,420.0 L352.7,420.0 L353.5,420.0 L354.3,420.0 L355.2,416.9 L356.0,408.9 L356.9,399.5 L357.7,387.3 L358.5,388.1 L359.4,390.7 L360.2,386.6 L361.1,387.6 L361.9,394.6 L362.7,414.8 L363.6,419.2 L364.4,420.0 L365.3,420.0 L366.1,420.0 L367.0,420.0 L367.8,420.0 L368.6,420.0 L369.5,420.0 L370.3,420.0 L371.2,420.0 L372.0,420.0 L372.8,420.0 L373.7,420.0 L374.5,420.0 L375.4,418.4 L376.2,413.5 L377.1,405.5 L377.9,392.3 L378.7,389.9 L379.6,388.4 L380.4,387.6 L381.3,385.8 L382.1,405.0 L382.9,401.1 L383.8,419.5 L384.6,420.0 L385.5,420.0 L386.3,420.0 L387.2,420.0 L388.0,420.0 L388.8,420.0 L389.7,420.0 L390.5,420.0 L391.4,420.0 L392.2,420.0 L393.0,420.0 L393.9,420.0 L394.7,420.0 L395.6,418.7 L396.4,406.0 L397.3,404.4 L398.1,404.4 L398.9,405.0 L399.8,405.5 L400.6,403.9 L401.5,406.5 L402.3,405.0 L403.1,412.7 L404.0,418.7 L404.8,420.0 L405.7,420.0 L406.5,420.0 L407.3,420.0 L408.2,420.0 L409.0,420.0 L409.9,420.0 L410.7,420.0 L411.6,420.0 L412.4,420.0 L413.2,420.0 L414.1,420.0 L414.9,420.0 L415.8,418.7 L416.6,407.8 L417.4,395.6 L418.3,395.6 L419.1,392.5 L420.0,392.5 L420.8,396.1 L421.7,409.9 L422.5,415.1 L423.3,416.9 L424.2,419.5 L425.0,420.0 L425.9,420.0 L426.7,420.0 L427.5,420.0 L428.4,420.0 L429.2,420.0 L430.1,420.0 L430.9,420.0 L431.8,420.0 L432.6,420.0 L433.4,420.0 L434.3,420.0 L435.1,420.0 L436.0,419.7 L436.8,417.4 L437.6,415.9 L438.5,413.0 L439.3,408.1 L440.2,405.7 L441.0,409.6 L441.9,411.7 L442.7,413.3 L443.5,416.9 L444.4,419.5 L445.2,420.0 L446.1,420.0 L446.9,420.0 L447.7,420.0 L448.6,420.0 L449.4,420.0 L450.3,420.0 L451.1,420.0 L451.9,420.0 L452.8,420.0 L453.6,420.0 L454.5,420.0 L455.3,420.0 L456.2,417.7 L457.0,393.8 L457.8,394.1 L458.7,392.0 L459.5,396.7 L460.4,389.4 L461.2,405.2 L462.0,404.7 L462.9,408.9 L463.7,406.3 L464.6,418.2 L465.4,420.0 L466.3,420.0 L467.1,420.0 L467.9,420.0 L468.8,420.0 L469.6,420.0 L470.5,420.0 L471.3,420.0 L472.1,420.0 L473.0,420.0 L473.8,420.0 L474.7,420.0 L475.5,420.0 L476.4,417.7 L477.2,400.6 L478.0,403.9 L478.9,409.4 L479.7,406.5 L480.6,407.0 L481.4,405.7 L482.2,404.7 L483.1,405.0 L483.9,416.6 L484.8,419.2 L485.6,420.0 L486.5,420.0 L487.3,420.0 L488.1,420.0 L489.0,420.0 L489.8,420.0 L490.7,420.0 L491.5,420.0 L492.3,420.0 L493.2,420.0 L494.0,420.0 L494.9,420.0 L495.7,420.0 L496.5,413.5 L497.4,398.0 L498.2,398.7 L499.1,406.5 L499.9,405.5 L500.8,410.9 L501.6,413.5 L502.4,410.1 L503.3,415.1 L504.1,418.4 L505.0,420.0 L505.8,420.0 L506.6,420.0 L507.5,420.0 L508.3,420.0 L509.2,420.0 L510.0,420.0 L510.9,420.0 L511.7,420.0 L512.5,420.0 L513.4,420.0 L514.2,420.0 L515.1,420.0 L515.9,420.0 L516.7,415.3 L517.6,406.0 L518.4,405.7 L519.3,405.7 L520.1,406.5 L521.0,407.0 L521.8,405.7 L522.6,405.0 L523.5,405.0 L524.3,414.8 L525.2,419.7 L526.0,420.0 L526.8,420.0 L527.7,420.0 L528.5,420.0 L529.4,420.0 L530.2,420.0 L531.1,420.0 L531.9,420.0 L532.7,420.0 L533.6,420.0 L534.4,420.0 L535.3,420.0 L536.1,420.0 L536.9,416.6 L537.8,399.3 L538.6,399.5 L539.5,401.1 L540.3,401.8 L541.2,396.9 L542.0,400.0 L542.8,401.6 L543.7,407.8 L544.5,414.0 L545.4,419.2 L546.2,420.0 L547.0,420.0 L547.9,420.0 L548.7,420.0 L549.6,420.0 L550.4,420.0 L551.2,420.0 L552.1,420.0 L552.9,420.0 L553.8,420.0 L554.6,420.0 L555.5,420.0 L556.3,420.0 L557.1,417.4 L558.0,407.6 L558.8,404.2 L559.7,401.6 L560.5,398.2 L561.3,400.3 L562.2,395.9 L563.0,406.5 L563.9,406.5 L564.7,408.9 L565.6,418.2 L566.4,420.0 L567.2,420.0 L568.1,420.0 L568.9,420.0 L569.8,420.0 L570.6,420.0 L571.4,420.0 L572.3,420.0 L573.1,420.0 L574.0,420.0 L574.8,420.0 L575.7,420.0 L576.5,420.0 L577.3,410.4 L578.2,388.9 L579.0,385.5 L579.9,387.1 L580.7,388.1 L581.5,389.4 L582.4,392.8 L583.2,391.2 L584.1,394.1 L584.9,402.1 L585.8,417.4 L586.6,420.0 L587.4,420.0 L588.3,420.0 L589.1,420.0 L590.0,420.0 L590.8,420.0 L591.6,420.0 L592.5,420.0 L593.3,420.0 L594.2,420.0 L595.0,420.0 L595.8,420.0 L596.7,420.0 L597.5,417.7 L598.4,412.7 L599.2,410.9 L600.1,404.7 L600.9,405.2 L601.7,411.2 L602.6,410.4 L603.4,413.3 L604.3,413.5 L605.1,416.9 L605.9,417.9 L606.8,420.0 L607.6,420.0 L608.5,420.0 L609.3,420.0 L610.2,420.0 L611.0,420.0 L611.8,420.0 L612.7,420.0 L613.5,420.0 L614.4,420.0 L615.2,420.0 L616.0,420.0 L616.9,420.0 L617.7,418.4 L618.6,415.6 L619.4,417.1 L620.3,415.9 L621.1,412.0 L621.9,409.9 L622.8,414.0 L623.6,408.3 L624.5,416.9 L625.3,416.9 L626.1,418.4 L627.0,420.0 L627.8,420.0 L628.7,420.0 L629.5,420.0 L630.4,420.0 L631.2,420.0 L632.0,420.0 L632.9,420.0 L633.7,420.0 L634.6,420.0 L635.4,420.0 L636.2,420.0 L637.1,420.0 L637.9,411.4 L638.8,401.8 L639.6,406.3 L640.4,403.7 L641.3,404.2 L642.1,406.8 L643.0,411.4 L643.8,408.3 L644.7,412.5 L645.5,411.7 L646.3,415.6 L647.2,420.0 L648.0,420.0 L648.9,420.0 L649.7,420.0 L650.5,420.0 L651.4,420.0 L652.2,420.0 L653.1,420.0 L653.9,420.0 L654.8,420.0 L655.6,420.0 L656.4,420.0 L657.3,420.0 L658.1,411.4 L659.0,414.8 L659.8,409.6 L660.6,413.8 L661.5,412.2 L662.3,408.9 L663.2,405.0 L664.0,407.3 L664.9,410.7 L665.7,412.2 L666.5,418.4 L667.4,420.0 L668.2,420.0 L669.1,420.0 L669.9,420.0 L670.7,420.0 L671.6,420.0 L672.4,420.0 L673.3,420.0 L675.0,420.0 L675.8,420.0 L676.6,420.0 L677.5,420.0 L678.3,420.0 L679.2,410.9 L680.0,412.7" stroke="#d62728" stroke-width="2" fill="none" opacity="0.8"/>
<!-- Forecast -->
<path d="M80.0,194.7 L80.8,182.5 L81.7,175.7 L82.5,176.3 L83.4,187.7 L84.2,200.4 L85.0,219.6 L85.9,224.2 L86.7,252.8 L87.6,257.4 L88.4,260.5 L89.3,262.1 L90.1,259.8 L90.9,247.3 L91.8,222.9 L92.6,196.7 L93.5,183.3 L94.3,182.5 L95.1,185.1 L96.0,188.5 L96.8,191.6 L97.7,195.5 L98.5,199.3 L99.4,200.6 L100.2,195.7 L101.0,183.5 L101.9,176.3 L102.7,176.5 L103.6,187.2 L104.4,202.5 L105.2,219.3 L106.1,246.3 L106.9,252.5 L107.8,260.3 L108.6,265.5 L109.5,268.6 L110.3,270.9 L111.1,268.6 L112.0,252.0 L112.8,236.4 L113.7,221.6 L114.5,215.9 L115.3,212.8 L116.2,215.2 L117.0,217.2 L117.9,224.2 L118.7,227.1 L119.6,226.6 L120.4,224.0 L121.2,214.6 L122.1,206.1 L122.9,203.0 L123.8,207.9 L124.6,217.5 L125.4,233.6 L126.3,238.8 L127.1,250.4 L128.0,258.2 L128.8,262.3 L129.6,263.4 L130.5,261.3 L131.3,249.1 L132.2,224.5 L133.0,198.3 L133.9,183.5 L134.7,181.4 L135.5,183.0 L136.4,185.9 L137.2,189.7 L138.1,192.9 L138.9,195.7 L139.7,196.5 L140.6,190.8 L141.4,178.3 L142.3,171.9 L143.1,173.9 L144.0,183.8 L144.8,198.3 L145.6,216.5 L146.5,231.0 L147.3,245.5 L148.2,252.0 L149.0,254.8 L149.8,255.9 L150.7,252.8 L151.5,240.0 L152.4,215.2 L153.2,187.4 L154.1,175.0 L154.9,175.7 L155.7,179.6 L156.6,182.7 L157.4,187.7 L158.3,191.3 L159.1,193.9 L159.9,194.4 L160.8,187.9 L161.6,173.9 L162.5,167.4 L163.3,170.6 L164.2,178.6 L165.0,191.8 L165.8,211.0 L166.7,229.4 L167.5,241.6 L168.4,247.3 L169.2,250.9 L170.0,252.2 L170.9,249.1 L171.7,236.4 L172.6,209.7 L173.4,183.0 L174.2,171.6 L175.1,173.7 L175.9,177.8 L176.8,181.7 L177.6,186.9 L178.5,190.5 L179.3,193.4 L180.1,193.6 L181.0,187.7 L181.8,173.7 L182.7,166.7 L183.5,169.8 L184.3,177.6 L185.2,190.5 L186.0,210.2 L186.9,215.2 L187.7,241.6 L188.6,247.3 L189.4,250.7 L190.2,251.7 L191.1,248.6 L191.9,236.2 L192.8,209.7 L193.6,183.0 L194.4,171.9 L195.3,173.9 L196.1,178.3 L197.0,182.2 L197.8,187.2 L198.7,191.0 L199.5,194.2 L200.3,194.9 L201.2,189.0 L202.0,175.0 L202.9,168.2 L203.7,170.6 L204.5,178.9 L205.4,192.9 L206.2,212.0 L207.1,232.0 L207.9,242.9 L208.8,249.6 L209.6,253.0 L210.4,254.3 L211.3,251.2 L212.1,238.5 L213.0,213.1 L213.8,186.6 L214.6,174.2 L215.5,175.5 L216.3,179.1 L217.2,183.0 L218.0,187.7 L218.8,191.3 L219.7,194.2 L220.5,195.2 L221.4,189.5 L222.2,176.0 L223.1,169.3 L223.9,171.3 L224.7,180.2 L225.6,194.9 L226.4,213.1 L227.3,238.2 L228.1,245.8 L228.9,251.7 L229.8,256.6 L230.6,260.0 L231.5,260.0 L232.3,256.4 L233.2,243.4 L234.0,228.1 L234.8,213.3 L235.7,207.9 L236.5,204.5 L237.4,206.6 L238.2,208.7 L239.0,214.9 L239.9,218.5 L240.7,218.5 L241.6,214.9 L242.4,203.2 L243.3,195.7 L244.1,194.4 L244.9,200.1 L245.8,210.5 L246.6,225.8 L247.5,238.8 L248.3,249.6 L249.1,255.9 L250.0,259.5 L250.8,259.5 L251.7,257.4 L252.5,253.5 L253.4,244.5 L254.2,232.8 L255.0,220.3 L255.9,210.2 L256.7,201.2 L257.6,197.5 L258.4,203.5 L259.2,208.2 L260.1,213.1 L260.9,211.3 L261.8,209.5 L262.6,191.0 L263.5,184.6 L264.3,189.7 L265.1,198.8 L266.0,206.1 L266.8,221.1 L267.7,235.1 L268.5,245.8 L269.3,252.2 L270.2,255.6 L271.0,257.2 L271.9,254.3 L272.7,241.6 L273.5,217.8 L274.4,190.8 L275.2,177.0 L276.1,177.0 L276.9,180.2 L277.8,183.8 L278.6,187.7 L279.4,191.3 L280.3,194.7 L281.1,196.0 L282.0,190.3 L282.8,177.8 L283.6,170.8 L284.5,172.6 L285.3,182.5 L286.2,198.0 L287.0,215.4 L287.9,219.6 L288.7,244.7 L289.5,252.8 L290.4,256.1 L291.2,257.7 L292.1,254.8 L292.9,241.9 L293.7,217.2 L294.6,189.7 L295.4,175.7 L296.3,175.2 L297.1,178.1 L298.0,181.2 L298.8,186.1 L299.6,189.5 L300.5,191.8 L301.3,192.1 L302.2,186.1 L303.0,172.4 L303.8,166.2 L304.7,169.5 L305.5,177.8 L306.4,192.1 L307.2,211.3 L308.1,374.9 L308.9,232.5 L309.7,238.5 L310.6,241.9 L311.4,242.1 L312.3,238.5 L313.1,224.0 L313.9,197.8 L314.8,346.9 L315.6,392.8 L316.5,392.8 L317.3,393.3 L318.1,215.4 L319.0,166.9 L319.8,174.2 L320.7,178.6 L321.5,178.1 L322.4,170.3 L323.2,340.9 L324.0,392.0 L324.9,392.5 L325.7,393.3 L326.6,224.2 L327.4,189.0 L328.2,204.3 L329.1,218.0 L329.9,220.3 L330.8,222.2 L331.6,222.9 L332.5,219.3 L333.3,206.1 L334.1,183.0 L335.0,176.5 L335.8,175.5 L336.7,174.4 L337.5,173.4 L338.3,172.4 L339.2,171.3 L340.0,170.3 L340.9,169.3 L341.7,168.2 L342.6,167.2 L343.4,166.2 L344.2,170.3 L345.1,175.7 L345.9,177.6 L346.8,170.3 L347.6,182.0 L348.4,199.6 L349.3,217.0 L350.1,221.6 L351.0,223.5 L351.8,224.5 L352.7,221.6 L353.5,208.7 L354.3,186.1 L355.2,178.9 L356.0,176.8 L356.9,174.4 L357.7,172.4 L358.5,170.3 L359.4,168.2 L360.2,166.2 L361.1,170.8 L361.9,176.3 L362.7,182.5 L363.6,186.4 L364.4,186.6 L365.3,179.6 L366.1,185.1 L367.0,194.7 L367.8,204.3 L368.6,213.9 L369.5,223.5 L370.3,230.2 L371.2,234.1 L372.0,235.4 L372.8,235.6 L373.7,230.7 L374.5,217.2 L375.4,202.2 L376.2,188.2 L377.1,184.6 L377.9,185.3 L378.7,188.2 L379.6,192.1 L380.4,197.5 L381.3,201.9 L382.1,202.5 L382.9,196.7 L383.8,179.6 L384.6,171.9 L385.5,172.6 L386.3,179.1 L387.2,189.0 L388.0,200.4 L388.8,203.2 L389.7,229.4 L390.5,235.4 L391.4,241.1 L392.2,243.4 L393.0,241.3 L393.9,238.2 L394.7,228.4 L395.6,216.7 L396.4,201.7 L397.3,192.3 L398.1,190.0 L398.9,192.1 L399.8,195.7 L400.6,201.7 L401.5,205.3 L402.3,206.1 L403.1,201.4 L404.0,185.1 L404.8,175.0 L405.7,179.1 L406.5,187.2 L407.3,197.0 L408.2,213.6 L409.0,234.1 L409.9,240.6 L410.7,245.8 L411.6,249.9 L412.4,251.2 L413.2,248.3 L414.1,236.7 L414.9,212.0 L415.8,185.9 L416.6,174.4 L417.4,175.7 L418.3,179.6 L419.1,183.3 L420.0,187.7 L420.8,191.3 L421.7,194.7 L422.5,196.0 L423.3,191.3 L424.2,178.6 L425.0,171.6 L425.9,173.2 L426.7,183.8 L427.5,198.8 L428.4,216.7 L429.2,232.0 L430.1,246.3 L430.9,254.3 L431.8,257.9 L432.6,259.8 L433.4,257.7 L434.3,245.2 L435.1,221.4 L436.0,194.9 L436.8,179.9 L437.6,178.3 L438.5,180.4 L439.3,183.5 L440.2,187.4 L441.0,190.5 L441.9,193.6 L442.7,194.9 L443.5,189.2 L444.4,176.8 L445.2,170.6 L446.1,172.6 L446.9,182.7 L447.7,197.5 L448.6,215.7 L449.4,233.0 L450.3,245.0 L451.1,253.0 L451.9,257.2 L452.8,258.7 L453.6,256.4 L454.5,243.9 L455.3,220.3 L456.2,193.4 L457.0,178.1 L457.8,176.8 L458.7,179.1 L459.5,182.2 L460.4,186.4 L461.2,189.7 L462.0,192.3 L462.9,193.1 L463.7,187.4 L464.6,174.4 L465.4,168.2 L466.3,170.8 L467.1,180.7 L467.9,195.7 L468.8,214.1 L469.6,235.1 L470.5,245.0 L471.3,251.2 L472.1,254.8 L473.0,256.4 L473.8,253.5 L474.7,241.3 L475.5,217.2 L476.4,190.8 L477.2,177.3 L478.0,177.0 L478.9,179.9 L479.7,183.5 L480.6,187.4 L481.4,191.0 L482.2,194.7 L483.1,195.7 L483.9,190.8 L484.8,178.9 L485.6,172.4 L486.5,173.4 L487.3,184.3 L488.1,198.0 L489.0,216.7 L489.8,221.4 L490.7,246.8 L491.5,253.8 L492.3,257.4 L493.2,258.7 L494.0,255.9 L494.9,243.9 L495.7,219.6 L496.5,193.4 L497.4,179.1 L498.2,178.3 L499.1,180.7 L499.9,184.0 L500.8,187.4 L501.6,190.8 L502.4,194.2 L503.3,195.5 L504.1,190.5 L505.0,178.3 L505.8,171.1 L506.6,172.1 L507.5,182.2 L508.3,198.0 L509.2,214.9 L510.0,232.8 L510.9,245.5 L511.7,252.5 L512.5,256.1 L513.4,258.2 L514.2,256.9 L515.1,251.7 L515.9,238.2 L516.7,223.5 L517.6,208.7 L518.4,202.2 L519.3,199.1 L520.1,201.2 L521.0,204.3 L521.8,209.7 L522.6,213.6 L523.5,213.9 L524.3,210.5 L525.2,198.0 L526.0,190.3 L526.8,189.2 L527.7,195.2 L528.5,205.0 L529.4,219.0 L530.2,236.7 L531.1,246.3 L531.9,250.2 L532.7,253.0 L533.6,254.8 L534.4,254.6 L535.3,250.4 L536.1,241.9 L536.9,228.9 L537.8,215.7 L538.6,206.3 L539.5,199.6 L540.3,197.0 L541.2,203.0 L542.0,207.1 L542.8,213.3 L543.7,212.3 L544.5,212.0 L545.4,195.7 L546.2,186.9 L547.0,190.5 L547.9,199.9 L548.7,205.3 L549.6,219.8 L550.4,234.9 L551.2,244.2 L552.1,250.4 L552.9,253.8 L553.8,255.1 L554.6,252.2 L555.5,240.3 L556.3,216.5 L557.1,190.5 L558.0,177.3 L558.8,177.3 L559.7,180.4 L560.5,184.3 L561.3,187.9 L562.2,191.6 L563.0,195.5 L563.9,197.3 L564.7,192.6 L565.6,180.7 L566.4,173.7 L567.2,173.9 L568.1,183.5 L568.9,198.8 L569.8,215.7 L570.6,233.6 L571.4,245.2 L572.3,250.4 L573.1,253.3 L574.0,255.1 L574.8,251.5 L575.7,239.3 L576.5,215.9 L577.3,190.0 L578.2,176.3 L579.0,175.5 L579.9,178.3 L580.7,182.2 L581.5,185.6 L582.4,189.5 L583.2,193.4 L584.1,195.7 L584.9,191.6 L585.8,180.2 L586.6,173.2 L587.4,172.6 L588.3,183.5 L589.1,198.3 L590.0,215.7 L590.8,219.8 L591.6,245.8 L592.5,252.8 L593.3,256.4 L594.2,257.7 L595.0,255.3 L595.8,243.2 L596.7,219.0 L597.5,193.6 L598.4,179.1 L599.2,177.6 L600.1,180.2 L600.9,183.0 L601.7,186.1 L602.6,189.5 L603.4,193.4 L604.3,194.9 L605.1,190.0 L605.9,178.9 L606.8,172.9 L607.6,172.6 L608.5,183.8 L609.3,197.5 L610.2,215.9 L611.0,232.5 L611.8,245.5 L612.7,253.3 L613.5,256.9 L614.4,258.5 L615.2,255.9 L616.0,243.4 L616.9,220.3 L617.7,193.1 L618.6,177.3 L619.4,175.0 L620.3,177.0 L621.1,180.2 L621.9,184.3 L622.8,187.4 L623.6,190.5 L624.5,191.6 L625.3,186.4 L626.1,173.9 L627.0,168.5 L627.8,170.0 L628.7,179.6 L629.5,195.2 L630.4,213.1 L631.2,229.9 L632.0,242.6 L632.9,250.2 L633.7,253.5 L634.6,255.1 L635.4,252.0 L636.2,239.5 L637.1,215.2 L637.9,188.5 L638.8,174.2 L639.6,173.4 L640.4,176.3 L641.3,179.6 L642.1,184.3 L643.0,187.7 L643.8,190.5 L644.7,191.8 L645.5,186.6 L646.3,173.9 L647.2,167.7 L648.0,169.5 L648.9,178.1 L649.7,192.3 L650.5,210.7 L651.4,243.7 L652.2,245.0 L653.1,247.8 L653.9,252.5 L654.8,255.9 L655.6,255.1 L656.4,252.2 L657.3,241.6 L658.1,228.4 L659.0,214.6 L659.8,209.7 L660.6,205.3 L661.5,207.1 L662.3,209.2 L663.2,215.4 L664.0,218.8 L664.9,220.3 L665.7,219.3 L666.5,210.7 L667.4,203.5 L668.2,200.4 L669.1,205.6 L669.9,215.7 L670.7,233.0 L671.6,245.2 L672.4,255.6 L673.3,258.2 L675.0,255.1 L675.8,250.7 L676.6,243.7 L677.5,238.0 L678.3,228.1 L679.2,217.8 L680.0,215.7" stroke="#9467bd" stroke-width="2" fill="none" opacity="0.8"/>
<!-- Total Generation -->
<path d="M80.0,193.4 L80.8,149.3 L81.7,126.5 L82.5,125.4 L83.4,109.9 L84.2,121.8 L85.0,154.7 L85.9,150.1 L86.7,180.2 L87.6,190.3 L88.4,201.4 L89.3,212.3 L90.1,215.9 L90.9,205.8 L91.8,205.3 L92.6,204.0 L93.5,198.6 L94.3,178.1 L95.1,175.7 L96.0,169.0 L96.8,165.1 L97.7,167.4 L98.5,159.7 L99.4,158.1 L100.2,177.8 L101.0,171.3 L101.9,176.5 L102.7,219.8 L103.6,213.6 L104.4,217.0 L105.2,207.6 L106.1,212.6 L106.9,183.0 L107.8,200.4 L108.6,192.6 L109.5,205.0 L110.3,192.9 L111.1,188.7 L112.0,199.3 L112.8,198.3 L113.7,179.1 L114.5,173.4 L115.3,172.6 L116.2,159.7 L117.0,152.4 L117.9,167.4 L118.7,172.9 L119.6,190.8 L120.4,178.1 L121.2,141.5 L122.1,171.3 L122.9,183.3 L123.8,191.6 L124.6,197.0 L125.4,196.5 L126.3,203.0 L127.1,205.8 L128.0,228.1 L128.8,220.3 L129.6,218.3 L130.5,213.3 L131.3,199.1 L132.2,188.5 L133.0,199.1 L133.9,197.8 L134.7,211.0 L135.5,191.8 L136.4,192.3 L137.2,177.8 L138.1,178.6 L138.9,196.7 L139.7,197.0 L140.6,178.9 L141.4,175.0 L142.3,171.9 L143.1,178.3 L144.0,172.6 L144.8,159.7 L145.6,150.3 L146.5,165.1 L147.3,146.2 L148.2,103.1 L149.0,93.3 L149.8,110.1 L150.7,96.1 L151.5,100.0 L152.4,115.8 L153.2,107.8 L154.1,111.4 L154.9,112.7 L155.7,87.8 L156.6,96.7 L157.4,130.6 L158.3,145.4 L159.1,184.0 L159.9,201.9 L160.8,165.1 L161.6,172.4 L162.5,170.8 L163.3,167.2 L164.2,165.4 L165.0,164.1 L165.8,166.2 L166.7,163.3 L167.5,153.4 L168.4,185.3 L169.2,189.7 L170.0,189.2 L170.9,170.3 L171.7,160.2 L172.6,157.6 L173.4,152.7 L174.2,145.7 L175.1,131.7 L175.9,133.2 L176.8,141.8 L177.6,127.3 L178.5,143.9 L179.3,139.4 L180.1,128.6 L181.0,99.5 L181.8,102.1 L182.7,110.9 L183.5,117.9 L184.3,134.5 L185.2,147.0 L186.0,139.4 L186.9,171.9 L187.7,182.5 L188.6,121.8 L189.4,108.1 L190.2,96.9 L191.1,82.4 L191.9,89.4 L192.8,91.0 L193.6,91.5 L194.4,73.1 L195.3,101.3 L196.1,80.6 L197.0,101.8 L197.8,117.4 L198.7,108.6 L199.5,130.9 L200.3,102.4 L201.2,106.3 L202.0,95.9 L202.9,92.0 L203.7,73.8 L204.5,77.5 L205.4,72.8 L206.2,72.5 L207.1,74.1 L207.9,86.5 L208.8,92.5 L209.6,105.2 L210.4,96.7 L211.3,81.9 L212.1,98.0 L213.0,72.0 L213.8,79.5 L214.6,67.6 L215.5,95.6 L216.3,119.2 L217.2,126.5 L218.0,113.0 L218.8,106.3 L219.7,93.8 L220.5,105.0 L221.4,124.9 L222.2,124.4 L223.1,122.8 L223.9,131.7 L224.7,126.2 L225.6,128.3 L226.4,129.3 L227.3,129.6 L228.1,145.9 L228.9,120.8 L229.8,94.8 L230.6,123.9 L231.5,124.4 L232.3,137.1 L233.2,138.9 L234.0,151.6 L234.8,141.3 L235.7,116.9 L236.5,155.5 L237.4,184.0 L238.2,182.5 L239.0,157.6 L239.9,178.9 L240.7,212.0 L241.6,217.8 L242.4,160.7 L243.3,137.1 L244.1,158.1 L244.9,177.3 L245.8,171.9 L246.6,198.3 L247.5,200.1 L248.3,186.4 L249.1,173.2 L250.0,189.0 L250.8,194.4 L251.7,163.6 L252.5,149.0 L253.4,144.1 L254.2,154.7 L255.0,142.6 L255.9,158.1 L256.7,154.7 L257.6,145.9 L258.4,151.4 L259.2,161.7 L260.1,166.4 L260.9,177.0 L261.8,172.1 L262.6,107.0 L263.5,108.1 L264.3,124.4 L265.1,114.3 L266.0,127.0 L266.8,131.4 L267.7,140.7 L268.5,152.1 L269.3,162.8 L270.2,128.8 L271.0,127.3 L271.9,126.2 L272.7,124.4 L273.5,142.6 L274.4,163.8 L275.2,171.6 L276.1,141.8 L276.9,176.3 L277.8,181.7 L278.6,168.5 L279.4,168.7 L280.3,164.6 L281.1,144.1 L282.0,138.9 L282.8,144.6 L283.6,133.0 L284.5,145.4 L285.3,153.4 L286.2,150.1 L287.0,188.5 L287.9,199.1 L288.7,195.2 L289.5,226.0 L290.4,247.1 L291.2,230.7 L292.1,225.0 L292.9,205.8 L293.7,208.4 L294.6,227.1 L295.4,198.8 L296.3,177.8 L297.1,151.1 L298.0,179.1 L298.8,187.9 L299.6,151.4 L300.5,151.6 L301.3,161.2 L302.2,158.6 L303.0,141.5 L303.8,148.5 L304.7,158.4 L305.5,160.4 L306.4,151.6 L307.2,185.9 L308.1,191.0 L308.9,200.6 L309.7,206.3 L310.6,208.2 L311.4,209.5 L312.3,206.3 L313.1,200.4 L313.9,197.3 L314.8,214.4 L315.6,208.4 L316.5,217.8 L317.3,211.8 L318.1,205.3 L319.0,197.3 L319.8,203.0 L320.7,199.9 L321.5,206.6 L322.4,209.7 L323.2,170.8 L324.0,172.9 L324.9,179.4 L325.7,182.7 L326.6,189.0 L327.4,195.2 L328.2,208.2 L329.1,216.7 L329.9,205.8 L330.8,212.8 L331.6,218.3 L332.5,227.3 L333.3,235.9 L334.1,239.0 L335.0,241.9 L335.8,246.5 L336.7,242.1 L337.5,252.2 L338.3,231.5 L339.2,224.0 L340.0,244.2 L340.9,234.3 L341.7,236.9 L342.6,245.0 L343.4,235.4 L344.2,236.9 L345.1,234.3 L345.9,235.4 L346.8,235.9 L347.6,234.6 L348.4,234.3 L349.3,234.1 L350.1,231.5 L351.0,234.9 L351.8,229.2 L352.7,226.8 L353.5,228.1 L354.3,226.8 L355.2,218.5 L356.0,203.5 L356.9,201.4 L357.7,216.2 L358.5,185.3 L359.4,171.3 L360.2,214.1 L361.1,233.3 L361.9,226.8 L362.7,230.5 L363.6,186.4 L364.4,200.4 L365.3,206.3 L366.1,210.7 L367.0,239.5 L367.8,248.6 L368.6,232.3 L369.5,236.9 L370.3,236.2 L371.2,236.7 L372.0,239.3 L372.8,236.4 L373.7,233.6 L374.5,231.5 L375.4,236.7 L376.2,247.3 L377.1,244.5 L377.9,236.9 L378.7,244.5 L379.6,261.1 L380.4,254.8 L381.3,248.1 L382.1,266.8 L382.9,256.1 L383.8,209.2 L384.6,202.5 L385.5,203.5 L386.3,209.5 L387.2,202.7 L388.0,208.9 L388.8,215.7 L389.7,215.4 L390.5,217.5 L391.4,215.4 L392.2,219.6 L393.0,217.5 L393.9,213.1 L394.7,214.9 L395.6,210.2 L396.4,218.3 L397.3,250.4 L398.1,249.9 L398.9,273.8 L399.8,274.5 L400.6,271.9 L401.5,273.2 L402.3,273.2 L403.1,276.6 L404.0,193.6 L404.8,163.8 L405.7,158.6 L406.5,147.7 L407.3,176.8 L408.2,176.3 L409.0,169.3 L409.9,159.4 L410.7,206.3 L411.6,236.7 L412.4,210.2 L413.2,193.4 L414.1,192.1 L414.9,149.6 L415.8,138.1 L416.6,187.7 L417.4,191.8 L418.3,211.0 L419.1,211.5 L420.0,203.0 L420.8,195.5 L421.7,202.7 L422.5,207.6 L423.3,211.0 L424.2,112.7 L425.0,92.8 L425.9,83.7 L426.7,103.9 L427.5,176.8 L428.4,192.9 L429.2,173.7 L430.1,175.2 L430.9,179.1 L431.8,190.5 L432.6,197.3 L433.4,178.1 L434.3,162.0 L435.1,99.5 L436.0,148.0 L436.8,165.6 L437.6,196.2 L438.5,196.2 L439.3,197.3 L440.2,193.4 L441.0,183.8 L441.9,178.6 L442.7,142.8 L443.5,111.4 L444.4,107.6 L445.2,106.5 L446.1,102.4 L446.9,85.0 L447.7,94.1 L448.6,140.7 L449.4,148.3 L450.3,186.6 L451.1,169.0 L451.9,142.8 L452.8,134.8 L453.6,154.2 L454.5,178.3 L455.3,159.9 L456.2,158.1 L457.0,134.0 L457.8,171.6 L458.7,166.2 L459.5,173.7 L460.4,154.5 L461.2,180.9 L462.0,179.4 L462.9,178.1 L463.7,168.5 L464.6,162.5 L465.4,130.4 L466.3,186.1 L467.1,190.3 L467.9,186.9 L468.8,183.3 L469.6,186.6 L470.5,186.9 L471.3,190.5 L472.1,192.3 L473.0,200.4 L473.8,175.5 L474.7,169.5 L475.5,158.1 L476.4,160.4 L477.2,163.8 L478.0,202.7 L478.9,230.7 L479.7,222.4 L480.6,220.1 L481.4,200.4 L482.2,203.0 L483.1,206.3 L483.9,180.2 L484.8,150.9 L485.6,150.6 L486.5,155.0 L487.3,151.4 L488.1,169.5 L489.0,211.8 L489.8,201.4 L490.7,213.1 L491.5,230.7 L492.3,218.5 L493.2,192.6 L494.0,187.7 L494.9,188.5 L495.7,192.3 L496.5,188.2 L497.4,182.0 L498.2,184.0 L499.1,189.2 L499.9,189.5 L500.8,194.2 L501.6,198.3 L502.4,194.4 L503.3,206.1 L504.1,190.5 L505.0,178.9 L505.8,162.5 L506.6,173.9 L507.5,184.0 L508.3,183.3 L509.2,191.0 L510.0,204.5 L510.9,204.0 L511.7,194.9 L512.5,198.8 L513.4,197.5 L514.2,199.9 L515.1,210.5 L515.9,210.5 L516.7,221.4 L517.6,225.5 L518.4,216.2 L519.3,232.0 L520.1,219.3 L521.0,238.8 L521.8,267.3 L522.6,249.9 L523.5,203.2 L524.3,203.0 L525.2,159.4 L526.0,147.0 L526.8,163.3 L527.7,172.6 L528.5,179.6 L529.4,178.1 L530.2,174.7 L531.1,172.6 L531.9,166.9 L532.7,190.0 L533.6,210.5 L534.4,208.4 L535.3,179.9 L536.1,170.3 L536.9,196.7 L537.8,165.1 L538.6,184.0 L539.5,189.2 L540.3,196.0 L541.2,200.9 L542.0,210.5 L542.8,208.9 L543.7,212.6 L544.5,234.3 L545.4,171.1 L546.2,154.0 L547.0,169.8 L547.9,176.3 L548.7,164.9 L549.6,165.4 L550.4,186.4 L551.2,195.5 L552.1,219.0 L552.9,208.7 L553.8,206.1 L554.6,209.5 L555.5,187.2 L556.3,183.5 L557.1,162.3 L558.0,176.5 L558.8,199.3 L559.7,186.9 L560.5,207.4 L561.3,219.6 L562.2,200.1 L563.0,205.0 L563.9,194.7 L564.7,205.3 L565.6,176.5 L566.4,162.5 L567.2,161.7 L568.1,160.7 L568.9,152.4 L569.8,153.2 L570.6,172.4 L571.4,176.0 L572.3,210.7 L573.1,216.7 L574.0,211.3 L574.8,186.1 L575.7,168.7 L576.5,145.9 L577.3,143.6 L578.2,177.8 L579.0,170.3 L579.9,155.5 L580.7,186.9 L581.5,191.0 L582.4,189.2 L583.2,166.2 L584.1,190.5 L584.9,199.3 L585.8,171.1 L586.6,163.3 L587.4,144.4 L588.3,145.4 L589.1,160.4 L590.0,165.1 L590.8,164.9 L591.6,173.9 L592.5,190.8 L593.3,202.7 L594.2,204.3 L595.0,227.3 L595.8,168.5 L596.7,103.9 L597.5,155.5 L598.4,169.3 L599.2,204.8 L600.1,220.9 L600.9,229.2 L601.7,235.6 L602.6,236.7 L603.4,238.0 L604.3,235.4 L605.1,238.2 L605.9,229.2 L606.8,200.6 L607.6,220.6 L608.5,216.7 L609.3,214.1 L610.2,228.4 L611.0,226.6 L611.8,229.2 L612.7,240.0 L613.5,237.5 L614.4,238.8 L615.2,240.3 L616.0,194.4 L616.9,168.0 L617.7,179.9 L618.6,189.7 L619.4,181.7 L620.3,214.9 L621.1,198.8 L621.9,203.2 L622.8,200.4 L623.6,215.2 L624.5,232.3 L625.3,219.0 L626.1,200.1 L627.0,217.5 L627.8,234.9 L628.7,200.1 L629.5,187.2 L630.4,195.2 L631.2,212.6 L632.0,207.6 L632.9,206.9 L633.7,224.5 L634.6,235.4 L635.4,232.3 L636.2,234.6 L637.1,199.1 L637.9,246.3 L638.8,241.9 L639.6,251.2 L640.4,267.8 L641.3,262.9 L642.1,267.8 L643.0,261.1 L643.8,240.6 L644.7,232.5 L645.5,228.1 L646.3,190.0 L647.2,168.5 L648.0,172.4 L648.9,153.7 L649.7,143.3 L650.5,142.8 L651.4,187.4 L652.2,182.7 L653.1,190.0 L653.9,192.6 L654.8,194.4 L655.6,197.0 L656.4,192.6 L657.3,196.7 L658.1,186.6 L659.0,236.9 L659.8,239.0 L660.6,245.0 L661.5,248.3 L662.3,239.3 L663.2,231.5 L664.0,233.0 L664.9,236.2 L665.7,238.5 L666.5,201.7 L667.4,200.1 L668.2,194.4 L669.1,196.2 L669.9,198.0 L670.7,202.2 L671.6,202.5 L672.4,208.4 L673.3,187.9 L675.0,210.5 L675.8,224.0 L676.6,222.9 L677.5,232.3 L678.3,222.9 L679.2,207.4 L680.0,257.9" stroke="#8c564b" stroke-width="2" fill="none" opacity="0.8"/>
<!-- Forecast Difference -->
<path d="M80.0,420.0 L80.8,420.0 L81.7,420.0 L82.5,420.0 L83.4,420.0 L84.2,420.0 L85.0,420.0 L85.9,420.0 L86.7,420.0 L87.6,420.0 L88.4,420.0 L89.3,420.0 L90.1,420.0 L90.9,420.0 L91.8,420.0 L92.6,420.0 L93.5,420.0 L94.3,420.0 L95.1,420.0 L96.0,420.0 L96.8,420.0 L97.7,420.0 L98.5,420.0 L99.4,420.0 L100.2,420.0 L101.0,420.0 L101.9,420.0 L102.7,420.0 L103.6,420.0 L104.4,420.0 L105.2,420.0 L106.1,420.0 L106.9,420.0 L107.8,420.0 L108.6,420.0 L109.5,420.0 L110.3,420.0 L111.1,420.0 L112.0,420.0 L112.8,420.0 L113.7,420.0 L114.5,420.0 L115.3,420.0 L116.2,420.0 L117.0,420.0 L117.9,420.0 L118.7,420.0 L119.6,420.0 L120.4,420.0 L121.2,420.0 L122.1,420.0 L122.9,420.0 L123.8,420.0 L124.6,420.0 L125.4,420.0 L126.3,420.0 L127.1,420.0 L128.0,420.0 L128.8,420.0 L129.6,420.0 L130.5,420.0 L131.3,420.0 L132.2,420.0 L133.0,420.0 L133.9,420.0 L134.7,420.0 L135.5,420.0 L136.4,420.0 L137.2,420.0 L138.1,420.0 L138.9,420.0 L139.7,420.0 L140.6,420.0 L141.4,420.0 L142.3,420.0 L143.1,420.0 L144.0,420.0 L144.8,420.0 L145.6,420.0 L146.5,420.0 L147.3,420.0 L148.2,420.0 L149.0,420.0 L149.8,420.0 L150.7,420.0 L151.5,420.0 L152.4,420.0 L153.2,420.0 L154.1,420.0 L154.9,420.0 L155.7,420.0 L156.6,420.0 L157.4,420.0 L158.3,420.0 L159.1,420.0 L159.9,420.0 L160.8,420.0 L161.6,420.0 L162.5,420.0 L163.3,420.0 L164.2,420.0 L165.0,420.0 L165.8,420.0 L166.7,420.0 L167.5,420.0 L168.4,420.0 L169.2,420.0 L170.0,420.0 L170.9,420.0 L171.7,420.0 L172.6,420.0 L173.4,420.0 L174.2,420.0 L175.1,420.0 L175.9,420.0 L176.8,420.0 L177.6,420.0 L178.5,420.0 L179.3,420.0 L180.1,420.0 L181.0,420.0 L181.8,420.0 L182.7,420.0 L183.5,420.0 L184.3,420.0 L185.2,420.0 L186.0,420.0 L186.9,420.0 L187.7,420.0 L188.6,420.0 L189.4,420.0 L190.2,420.0 L191.1,420.0 L191.9,420.0 L192.8,420.0 L193.6,420.0 L194.4,420.0 L195.3,420.0 L196.1,420.0 L197.0,420.0 L197.8,420.0 L198.7,420.0 L199.5,420.0 L200.3,420.0 L201.2,420.0 L202.0,420.0 L202.9,420.0 L203.7,420.0 L204.5,420.0 L205.4,420.0 L206.2,420.0 L207.1,420.0 L207.9,420.0 L208.8,420.0 L209.6,420.0 L210.4,420.0 L211.3,420.0 L212.1,420.0 L213.0,420.0 L213.8,420.0 L214.6,420.0 L215.5,420.0 L216.3,420.0 L217.2,420.0 L218.0,420.0 L218.8,420.0 L219.7,420.0 L220.5,420.0 L221.4,420.0 L222.2,420.0 L223.1,420.0 L223.9,420.0 L224.7,420.0 L225.6,420.0 L226.4,420.0 L227.3,420.0 L228.1,420.0 L228.9,420.0 L229.8,420.0 L230.6,420.0 L231.5,420.0 L232.3,420.0 L233.2,420.0 L234.0,420.0 L234.8,420.0 L235.7,420.0 L236.5,420.0 L237.4,420.0 L238.2,420.0 L239.0,420.0 L239.9,420.0 L240.7,420.0 L241.6,420.0 L242.4,420.0 L243.3,420.0 L244.1,420.0 L244.9,420.0 L245.8,420.0 L246.6,420.0 L247.5,420.0 L248.3,420.0 L249.1,420.0 L250.0,420.0 L250.8,420.0 L251.7,420.0 L252.5,420.0 L253.4,420.0 L254.2,420.0 L255.0,420.0 L255.9,420.0 L256.7,420.0 L257.6,420.0 L258.4,420.0 L259.2,420.0 L260.1,420.0 L260.9,420.0 L261.8,420.0 L262.6,420.0 L263.5,420.0 L264.3,420.0 L265.1,420.0 L266.0,420.0 L266.8,420.0 L267.7,420.0 L268.5,420.0 L269.3,420.0 L270.2,420.0 L271.0,420.0 L271.9,420.0 L272.7,420.0 L273.5,420.0 L274.4,420.0 L275.2,420.0 L276.1,420.0 L276.9,420.0 L277.8,420.0 L278.6,420.0 L279.4,420.0 L280.3,420.0 L281.1,420.0 L282.0,420.0 L282.8,420.0 L283.6,420.0 L284.5,420.0 L285.3,420.0 L286.2,420.0 L287.0,420.0 L287.9,420.0 L288.7,420.0 L289.5,420.0 L290.4,420.0 L291.2,420.0 L292.1,420.0 L292.9,420.0 L293.7,420.0 L294.6,420.0 L295.4,420.0 L296.3,420.0 L297.1,420.0 L298.0,420.0 L298.8,420.0 L299.6,420.0 L300.5,420.0 L301.3,420.0 L302.2,420.0 L303.0,420.0 L303.8,420.0 L304.7,420.0 L305.5,420.0 L306.4,420.0 L307.2,420.0 L308.1,420.0 L308.9,420.0 L309.7,420.0 L310.6,420.0 L311.4,420.0 L312.3,420.0 L313.1,420.0 L313.9,420.0 L314.8,420.0 L315.6,420.0 L316.5,420.0 L317.3,420.0 L318.1,420.0 L319.0,420.0 L319.8,420.0 L320.7,420.0 L321.5,420.0 L322.4,420.0 L323.2,420.0 L324.0,420.0 L324.9,420.0 L325.7,420.0 L326.6,420.0 L327.4,420.0 L328.2,420.0 L329.1,420.0 L329.9,420.0 L330.8,420.0 L331.6,420.0 L332.5,420.0 L333.3,420.0 L334.1,420.0 L335.0,420.0 L335.8,420.0 L336.7,420.0 L337.5,420.0 L338.3,420.0 L339.2,420.0 L340.0,420.0 L340.9,420.0 L341.7,420.0 L342.6,420.0 L343.4,420.0 L344.2,420.0 L345.1,420.0 L345.9,420.0 L346.8,420.0 L347.6,420.0 L348.4,420.0 L349.3,420.0 L350.1,420.0 L351.0,420.0 L351.8,420.0 L352.7,420.0 L353.5,420.0 L354.3,420.0 L355.2,420.0 L356.0,420.0 L356.9,420.0 L357.7,420.0 L358.5,420.0 L359.4,420.0 L360.2,420.0 L361.1,420.0 L361.9,420.0 L362.7,420.0 L363.6,420.0 L364.4,420.0 L365.3,420.0 L366.1,420.0 L367.0,420.0 L367.8,420.0 L368.6,420.0 L369.5,420.0 L370.3,420.0 L371.2,420.0 L372.0,420.0 L372.8,420.0 L373.7,420.0 L374.5,420.0 L375.4,420.0 L376.2,420.0 L377.1,420.0 L377.9,420.0 L378.7,420.0 L379.6,420.0 L380.4,420.0 L381.3,420.0 L382.1,420.0 L382.9,420.0 L383.8,420.0 L384.6,420.0 L385.5,420.0 L386.3,420.0 L387.2,420.0 L388.0,420.0 L388.8,420.0 L389.7,420.0 L390.5,420.0 L391.4,420.0 L392.2,420.0 L393.0,420.0 L393.9,420.0 L394.7,420.0 L395.6,420.0 L396.4,420.0 L397.3,420.0 L398.1,420.0 L398.9,420.0 L399.8,420.0 L400.6,420.0 L401.5,420.0 L402.3,420.0 L403.1,420.0 L404.0,420.0 L404.8,420.0 L405.7,420.0 L406.5,420.0 L407.3,420.0 L408.2,420.0 L409.0,420.0 L409.9,420.0 L410.7,420.0 L411.6,420.0 L412.4,420.0 L413.2,420.0 L414.1,420.0 L414.9,420.0 L415.8,420.0 L416.6,420.0 L417.4,420.0 L418.3,420.0 L419.1,420.0 L420.0,420.0 L420.8,420.0 L421.7,420.0 L422.5,420.0 L423.3,420.0 L424.2,420.0 L425.0,420.0 L425.9,420.0 L426.7,420.0 L427.5,420.0 L428.4,420.0 L429.2,420.0 L430.1,420.0 L430.9,420.0 L431.8,420.0 L432.6,420.0 L433.4,420.0 L434.3,420.0 L435.1,420.0 L436.0,420.0 L436.8,420.0 L437.6,420.0 L438.5,420.0 L439.3,420.0 L440.2,420.0 L441.0,420.0 L441.9,420.0 L442.7,420.0 L443.5,420.0 L444.4,420.0 L445.2,420.0 L446.1,420.0 L446.9,420.0 L447.7,420.0 L448.6,420.0 L449.4,420.0 L450.3,420.0 L451.1,420.0 L451.9,420.0 L452.8,420.0 L453.6,420.0 L454.5,420.0 L455.3,420.0 L456.2,420.0 L457.0,420.0 L457.8,420.0 L458.7,420.0 L459.5,420.0 L460.4,420.0 L461.2,420.0 L462.0,420.0 L462.9,420.0 L463.7,420.0 L464.6,420.0 L465.4,420.0 L466.3,420.0 L467.1,420.0 L467.9,420.0 L468.8,420.0 L469.6,420.0 L470.5,420.0 L471.3,420.0 L472.1,420.0 L473.0,420.0 L473.8,420.0 L474.7,420.0 L475.5,420.0 L476.4,420.0 L477.2,420.0 L478.0,420.0 L478.9,420.0 L479.7,420.0 L480.6,420.0 L481.4,420.0 L482.2,420.0 L483.1,420.0 L483.9,420.0 L484.8,420.0 L485.6,420.0 L486.5,420.0 L487.3,420.0 L488.1,420.0 L489.0,420.0 L489.8,420.0 L490.7,420.0 L491.5,420.0 L492.3,420.0 L493.2,420.0 L494.0,420.0 L494.9,420.0 L495.7,420.0 L496.5,420.0 L497.4,420.0 L498.2,420.0 L499.1,420.0 L499.9,420.0 L500.8,420.0 L501.6,420.0 L502.4,420.0 L503.3,420.0 L504.1,420.0 L505.0,420.0 L505.8,420.0 L506.6,420.0 L507.5,420.0 L508.3,420.0 L509.2,420.0 L510.0,420.0 L510.9,420.0 L511.7,420.0 L512.5,420.0 L513.4,420.0 L514.2,420.0 L515.1,420.0 L515.9,420.0 L516.7,420.0 L517.6,420.0 L518.4,420.0 L519.3,420.0 L520.1,420.0 L521.0,420.0 L521.8,420.0 L522.6,420.0 L523.5,420.0 L524.3,420.0 L525.2,420.0 L526.0,420.0 L526.8,420.0 L527.7,420.0 L528.5,420.0 L529.4,420.0 L530.2,420.0 L531.1,420.0 L531.9,420.0 L532.7,420.0 L533.6,420.0 L534.4,420.0 L535.3,420.0 L536.1,420.0 L536.9,420.0 L537.8,420.0 L538.6,420.0 L539.5,420.0 L540.3,420.0 L541.2,420.0 L542.0,420.0 L542.8,420.0 L543.7,420.0 L544.5,420.0 L545.4,420.0 L546.2,420.0 L547.0,420.0 L547.9,420.0 L548.7,420.0 L549.6,420.0 L550.4,420.0 L551.2,420.0 L552.1,420.0 L552.9,420.0 L553.8,420.0 L554.6,420.0 L555.5,420.0 L556.3,420.0 L557.1,420.0 L558.0,420.0 L558.8,420.0 L559.7,420.0 L560.5,420.0 L561.3,420.0 L562.2,420.0 L563.0,420.0 L563.9,420.0 L564.7,420.0 L565.6,420.0 L566.4,420.0 L567.2,420.0 L568.1,420.0 L568.9,420.0 L569.8,420.0 L570.6,420.0 L571.4,420.0 L572.3,420.0 L573.1,420.0 L574.0,420.0 L574.8,420.0 L575.7,420.0 L576.5,420.0 L577.3,420.0 L578.2,420.0 L579.0,420.0 L579.9,420.0 L580.7,420.0 L581.5,420.0 L582.4,420.0 L583.2,420.0 L584.1,420.0 L584.9,420.0 L585.8,420.0 L586.6,420.0 L587.4,420.0 L588.3,420.0 L589.1,420.0 L590.0,420.0 L590.8,420.0 L591.6,420.0 L592.5,420.0 L593.3,420.0 L594.2,420.0 L595.0,420.0 L595.8,420.0 L596.7,420.0 L597.5,420.0 L598.4,420.0 L599.2,420.0 L600.1,420.0 L600.9,420.0 L601.7,420.0 L602.6,420.0 L603.4,420.0 L604.3,420.0 L605.1,420.0 L605.9,420.0 L606.8,420.0 L607.6,420.0 L608.5,420.0 L609.3,420.0 L610.2,420.0 L611.0,420.0 L611.8,420.0 L612.7,420.0 L613.5,420.0 L614.4,420.0 L615.2,420.0 L616.0,420.0 L616.9,420.0 L617.7,420.0 L618.6,420.0 L619.4,420.0 L620.3,420.0 L621.1,420.0 L621.9,420.0 L622.8,420.0 L623.6,420.0 L624.5,420.0 L625.3,420.0 L626.1,420.0 L627.0,420.0 L627.8,420.0 L628.7,420.0 L629.5,420.0 L630.4,420.0 L631.2,420.0 L632.0,420.0 L632.9,420.0 L633.7,420.0 L634.6,420.0 L635.4,420.0 L636.2,420.0 L637.1,420.0 L637.9,420.0 L638.8,420.0 L639.6,420.0 L640.4,420.0 L641.3,420.0 L642.1,420.0 L643.0,420.0 L643.8,420.0 L644.7,420.0 L645.5,420.0 L646.3,420.0 L647.2,420.0 L648.0,420.0 L648.9,420.0 L649.7,420.0 L650.5,420.0 L651.4,420.0 L652.2,420.0 L653.1,420.0 L653.9,420.0 L654.8,420.0 L655.6,420.0 L656.4,420.0 L657.3,420.0 L658.1,420.0 L659.0,420.0 L659.8,420.0 L660.6,420.0 L661.5,420.0 L662.3,420.0 L663.2,420.0 L664.0,420.0 L664.9,420.0 L665.7,420.0 L666.5,420.0 L667.4,420.0 L668.2,420.0 L669.1,420.0 L669.9,420.0 L670.7,420.0 L671.6,420.0 L672.4,420.0 L673.3,420.0 L675.0,420.0 L675.8,420.0 L676.6,420.0 L677.5,420.0 L678.3,420.0 L679.2,420.0 L680.0,420.0" stroke="#e377c2" stroke-width="2" fill="none" opacity="0.8"/>

<!-- Legend -->
<line x1="690" y1="70" x2="705" y2="70" stroke="#1f77b4" stroke-width="3"/>
<text x="710" y="74" class="legend">Wind Generation</text>
<line x1="690" y1="88" x2="705" y2="88" stroke="#ff7f0e" stroke-width="3"/>
<text x="710" y="92" class="legend">Hydro Generation</text>
<line x1="690" y1="106" x2="705" y2="106" stroke="#2ca02c" stroke-width="3"/>
<text x="710" y="110" class="legend">Thermal Generation</text>
<line x1="690" y1="124" x2="705" y2="124" stroke="#d62728" stroke-width="3"/>
<text x="710" y="128" class="legend">Solar Generation</text>
<line x1="690" y1="142" x2="705" y2="142" stroke="#9467bd" stroke-width="3"/>
<text x="710" y="146" class="legend">Forecast</text>
<line x1="690" y1="160" x2="705" y2="160" stroke="#8c564b" stroke-width="3"/>
<text x="710" y="164" class="legend">Total Generation</text>
<line x1="690" y1="178" x2="705" y2="178" stroke="#e377c2" stroke-width="3"/>
<text x="710" y="182" class="legend">Forecast Difference</text>

<!-- Date range -->
<text x="80" y="495" class="legend">Range: 02/06 - 03/08/2026 (713 records)</text>
</svg>