<?xml version="1.0" encoding="UTF-8"?>
<svg width="800" height="500" xmlns="http://www.w3.org/2000/svg">
<style>
.axis-line { stroke: #333; stroke-width: 1; }
.grid-line { stroke: #ddd; stroke-width: 0.5; }
.title { font: 16px Arial; text-anchor: middle; fill: #333; }
.axis-label { font: 12px Arial; text-anchor: middle; fill: #666; }
.legend { font: 10px Arial; fill: #333; }
</style>

<!-- Title -->
<text x="400.0" y="25" class="title">Northwestern Energy Generation Data - Past 30 Days</text>

<!-- Plot area background -->
<rect x="80" y="50" width="600" height="370" fill="white" stroke="#ddd"/>

<!-- Y-axis -->
<line x1="80" y1="50" x2="80" y2="420" class="axis-line"/>
<text x="30" y="235.0" class="axis-label" transform="rotate(-90, 30, 235.0)">Generation (MW)</text>

<!-- X-axis -->
<line x1="80" y1="420" x2="680" y2="420" class="axis-line"/>
<text x="380.0" y="480" class="axis-label">Time</text>
<line x1="80" y1="420.0" x2="680" y2="420.0" class="grid-line"/>
<text x="70" y="425.0" class="legend" text-anchor="end">0</text>
<line x1="80" y1="327.5" x2="680" y2="327.5" class="grid-line"/>
<text x="70" y="332.5" class="legend" text-anchor="end">302</text>
<line x1="80" y1="235.0" x2="680" y2="235.0" class="grid-line"/>
<text x="70" y="240.0" class="legend" text-anchor="end">604</text>
<line x1="80" y1="142.5" x2="680" y2="142.5" class="grid-line"/>
<text x="70" y="147.5" class="legend" text-anchor="end">906</text>
<line x1="80" y1="50.0" x2="680" y2="50.0" class="grid-line"/>
<text x="70" y="55.0" class="legend" text-anchor="end">1209</text>
<!-- Wind Generation -->
<path d="M80.0,392.4 L80.8,392.8 L81.7,385.4 L82.5,353.6 L83.4,326.9 L84.2,345.3 L85.0,353.9 L85.9,382.0 L86.7,382.3 L87.6,377.8 L88.4,395.8 L89.3,387.9 L90.1,389.1 L90.9,382.6 L91.8,372.9 L92.6,370.1 L93.5,360.3 L94.3,346.5 L95.1,341.6 L96.0,335.8 L96.8,348.1 L97.7,358.8 L98.5,380.2 L99.4,374.7 L100.2,360.3 L101.0,377.4 L101.9,386.0 L102.7,395.8 L103.6,408.4 L104.4,408.4 L105.2,406.8 L106.1,404.1 L106.9,399.8 L107.8,398.3 L108.6,385.4 L109.5,377.8 L110.3,372.9 L111.1,371.3 L112.0,349.9 L112.8,345.6 L113.7,353.0 L114.5,358.2 L115.3,347.1 L116.2,358.2 L117.0,363.7 L117.9,378.1 L118.7,401.3 L119.6,403.5 L120.4,407.4 L121.2,416.3 L122.1,415.4 L122.9,412.0 L123.8,408.4 L124.6,403.5 L125.4,390.0 L126.3,384.5 L127.1,381.4 L128.0,391.2 L128.8,379.3 L129.6,372.2 L130.5,377.4 L131.3,371.9 L132.2,368.6 L133.0,369.5 L133.9,361.2 L134.7,365.8 L135.5,367.3 L136.4,348.4 L137.2,364.3 L138.1,355.4 L138.9,372.5 L139.7,387.5 L140.6,380.8 L141.4,360.6 L142.3,341.9 L143.1,318.1 L144.0,318.4 L144.8,327.2 L145.6,342.5 L146.5,336.7 L147.3,352.3 L148.2,379.3 L149.0,395.5 L149.8,406.2 L150.7,367.6 L151.5,370.1 L152.4,383.6 L153.2,387.2 L154.1,386.6 L154.9,372.9 L155.7,387.2 L156.6,384.2 L157.4,389.7 L158.3,399.8 L159.1,391.2 L159.9,390.3 L160.8,400.7 L161.6,399.2 L162.5,397.0 L163.3,379.3 L164.2,389.7 L165.0,390.0 L165.8,400.1 L166.7,401.9 L167.5,404.1 L168.4,411.7 L169.2,412.7 L170.0,406.2 L170.9,394.6 L171.7,391.5 L172.6,381.4 L173.4,370.7 L174.2,368.6 L175.1,365.5 L175.9,363.7 L176.8,371.6 L177.6,361.5 L178.5,367.6 L179.3,368.6 L180.1,358.2 L181.0,326.0 L181.8,368.0 L182.7,384.2 L183.5,366.1 L184.3,387.5 L185.2,358.8 L186.0,365.5 L186.9,372.2 L187.7,387.2 L188.6,390.0 L189.4,399.5 L190.2,388.8 L191.1,403.2 L191.9,405.6 L192.8,397.0 L193.6,395.5 L194.4,397.3 L195.3,399.8 L196.1,412.0 L197.0,416.6 L197.8,416.9 L198.7,417.9 L199.5,417.6 L200.3,416.3 L201.2,416.6 L202.0,415.4 L202.9,413.9 L203.7,414.5 L204.5,416.9 L205.4,415.7 L206.2,412.3 L207.1,409.0 L207.9,406.8 L208.8,405.6 L209.6,411.4 L210.4,408.4 L211.3,409.0 L212.1,406.8 L213.0,403.8 L213.8,407.4 L214.6,407.4 L215.5,397.0 L216.3,389.7 L217.2,379.6 L218.0,394.6 L218.8,412.3 L219.7,411.1 L220.5,410.8 L221.4,411.7 L222.2,415.1 L223.1,411.4 L223.9,406.8 L224.7,399.2 L225.6,383.0 L226.4,371.0 L227.3,361.2 L228.1,348.1 L228.9,377.1 L229.8,369.8 L230.6,373.5 L231.5,367.6 L232.3,365.5 L233.2,364.3 L234.0,359.4 L234.8,353.0 L235.7,332.7 L236.5,333.1 L237.4,339.5 L238.2,345.9 L239.0,355.1 L239.9,358.8 L240.7,365.2 L241.6,368.9 L242.4,384.8 L243.3,396.4 L244.1,405.9 L244.9,410.5 L245.8,409.3 L246.6,409.9 L247.5,411.1 L248.3,411.7 L249.1,413.3 L250.0,412.0 L250.8,403.8 L251.7,398.6 L252.5,400.1 L253.4,404.1 L254.2,405.3 L255.0,409.6 L255.9,410.2 L256.7,409.3 L257.6,407.4 L258.4,398.3 L259.2,386.9 L260.1,374.7 L260.9,380.2 L261.8,397.0 L262.6,408.4 L263.5,413.3 L264.3,415.4 L265.1,416.6 L266.0,418.5 L266.8,413.9 L267.7,406.5 L268.5,413.0 L269.3,413.6 L270.2,409.0 L271.0,386.6 L271.9,381.7 L272.7,385.7 L273.5,372.5 L274.4,379.3 L275.2,354.8 L276.1,343.8 L276.9,363.7 L277.8,389.4 L278.6,371.9 L279.4,335.8 L280.3,322.3 L281.1,353.6 L282.0,323.3 L282.8,337.6 L283.6,340.7 L284.5,317.7 L285.3,330.6 L286.2,326.9 L287.0,348.1 L287.9,344.1 L288.7,348.4 L289.5,359.1 L290.4,364.3 L291.2,377.4 L292.1,373.5 L292.9,348.1 L293.7,365.5 L294.6,357.5 L295.4,329.1 L296.3,359.1 L297.1,359.1 L298.0,322.9 L298.8,314.7 L299.6,313.5 L300.5,321.1 L301.3,341.9 L302.2,328.5 L303.0,325.1 L303.8,322.9 L304.7,315.3 L305.5,312.5 L306.4,314.4 L307.2,348.4 L308.1,322.3 L308.9,314.4 L309.7,321.7 L310.6,339.8 L311.4,318.7 L312.3,318.7 L313.1,317.1 L313.9,338.9 L314.8,352.0 L315.6,332.1 L316.5,329.1 L317.3,346.2 L318.1,356.6 L319.0,357.2 L319.8,365.8 L320.7,370.7 L321.5,374.4 L322.4,396.1 L323.2,398.9 L324.0,400.4 L324.9,392.4 L325.7,396.4 L326.6,404.1 L327.4,407.8 L328.2,398.0 L329.1,398.3 L329.9,403.2 L330.8,398.0 L331.6,395.8 L332.5,400.1 L333.3,398.3 L334.1,405.9 L335.0,408.1 L335.8,413.0 L336.7,411.1 L337.5,382.3 L338.3,372.2 L339.2,349.0 L340.0,349.6 L340.9,368.6 L341.7,364.9 L342.6,382.0 L343.4,373.8 L344.2,351.1 L345.1,362.4 L345.9,367.3 L346.8,367.6 L347.6,380.2 L348.4,389.7 L349.3,369.2 L350.1,383.0 L351.0,377.4 L351.8,376.2 L352.7,375.6 L353.5,344.4 L354.3,335.5 L355.2,333.7 L356.0,332.1 L356.9,355.4 L357.7,353.3 L358.5,357.9 L359.4,332.1 L360.2,342.8 L361.1,363.4 L361.9,365.5 L362.7,366.1 L363.6,382.0 L364.4,370.7 L365.3,376.2 L366.1,374.7 L367.0,379.9 L367.8,371.3 L368.6,377.4 L369.5,376.5 L370.3,362.1 L371.2,364.6 L372.0,374.7 L372.8,380.8 L373.7,390.3 L374.5,375.3 L375.4,389.7 L376.2,405.6 L377.1,405.0 L377.9,397.0 L378.7,395.5 L379.6,401.9 L380.4,404.4 L381.3,413.6 L382.1,407.8 L382.9,403.8 L383.8,398.6 L384.6,406.2 L385.5,412.3 L386.3,414.2 L387.2,416.0 L388.0,415.1 L388.8,411.1 L389.7,409.3 L390.5,412.0 L391.4,401.9 L392.2,389.1 L393.0,376.5 L393.9,365.5 L394.7,357.5 L395.6,358.8 L396.4,353.3 L397.3,374.1 L398.1,370.4 L398.9,369.5 L399.8,371.6 L400.6,372.9 L401.5,381.7 L402.3,396.4 L403.1,395.5 L404.0,392.8 L404.8,377.1 L405.7,370.7 L406.5,357.2 L407.3,360.6 L408.2,371.0 L409.0,364.3 L409.9,379.3 L410.7,391.2 L411.6,390.6 L412.4,367.0 L413.2,352.6 L414.1,369.8 L414.9,363.4 L415.8,371.9 L416.6,369.5 L417.4,386.0 L418.3,374.7 L419.1,374.1 L420.0,378.7 L420.8,390.0 L421.7,398.3 L422.5,401.0 L423.3,401.3 L424.2,405.6 L425.0,398.0 L425.9,402.2 L426.7,388.5 L427.5,375.9 L428.4,366.1 L429.2,374.7 L430.1,371.9 L430.9,373.8 L431.8,372.5 L432.6,386.9 L433.4,390.3 L434.3,391.5 L435.1,390.6 L436.0,399.2 L436.8,387.2 L437.6,392.1 L438.5,404.4 L439.3,394.3 L440.2,383.3 L441.0,390.3 L441.9,405.0 L442.7,399.8 L443.5,388.2 L444.4,393.7 L445.2,398.3 L446.1,405.3 L446.9,398.0 L447.7,392.1 L448.6,393.7 L449.4,397.3 L450.3,401.0 L451.1,403.8 L451.9,412.0 L452.8,412.3 L453.6,414.5 L454.5,416.9 L455.3,416.0 L456.2,415.7 L457.0,414.8 L457.8,409.0 L458.7,408.7 L459.5,406.5 L460.4,409.9 L461.2,414.8 L462.0,417.2 L462.9,409.3 L463.7,409.6 L464.6,413.9 L465.4,416.6 L466.3,417.9 L467.1,413.9 L467.9,410.2 L468.8,409.9 L469.6,408.4 L470.5,411.4 L471.3,413.6 L472.1,413.3 L473.0,395.8 L473.8,376.2 L474.7,379.9 L475.5,361.8 L476.4,362.7 L477.2,368.3 L478.0,375.6 L478.9,372.2 L479.7,378.1 L480.6,386.9 L481.4,402.2 L482.2,402.9 L483.1,406.2 L483.9,410.2 L484.8,413.6 L485.6,415.4 L486.5,410.8 L487.3,401.9 L488.1,392.1 L489.0,392.1 L489.8,377.4 L490.7,367.0 L491.5,379.3 L492.3,368.3 L493.2,354.5 L494.0,359.4 L494.9,343.2 L495.7,334.9 L496.5,353.6 L497.4,352.3 L498.2,352.6 L499.1,352.3 L499.9,365.2 L500.8,377.8 L501.6,382.3 L502.4,379.0 L503.3,383.3 L504.1,400.4 L505.0,403.2 L505.8,407.8 L506.6,407.8 L507.5,406.8 L508.3,406.8 L509.2,409.0 L510.0,411.7 L510.9,412.7 L511.7,414.2 L512.5,415.7 L513.4,416.9 L514.2,416.0 L515.1,413.6 L515.9,413.9 L516.7,409.9 L517.6,416.6 L518.4,412.0 L519.3,416.3 L520.1,405.6 L521.0,404.7 L521.8,390.3 L522.6,376.2 L523.5,408.4 L524.3,409.6 L525.2,407.4 L526.0,415.7 L526.8,417.9 L527.7,417.2 L528.5,416.6 L529.4,413.6 L530.2,413.0 L531.1,413.6 L531.9,416.3 L532.7,415.4 L533.6,413.9 L534.4,412.3 L535.3,406.5 L536.1,389.1 L536.9,389.4 L537.8,354.8 L538.6,336.4 L539.5,324.2 L540.3,315.3 L541.2,325.4 L542.0,333.7 L542.8,337.6 L543.7,362.7 L544.5,371.0 L545.4,387.9 L546.2,397.3 L547.0,390.3 L547.9,384.8 L548.7,398.3 L549.6,396.7 L550.4,391.8 L551.2,379.3 L552.1,385.4 L552.9,394.0 L553.8,400.1 L554.6,405.9 L555.5,404.7 L556.3,405.9 L557.1,387.2 L558.0,388.5 L558.8,400.7 L559.7,403.2 L560.5,401.0 L561.3,387.9 L562.2,390.0 L563.0,381.4 L563.9,385.7 L564.7,384.5 L565.6,383.6 L566.4,389.1 L567.2,395.5 L568.1,368.9 L568.9,376.8 L569.8,394.9 L570.6,417.9 L571.4,405.9 L572.3,403.8 L573.1,411.1 L574.0,416.6 L574.8,420.0 L575.7,417.9 L576.5,410.8 L577.3,408.7 L578.2,404.4 L579.0,405.6 L579.9,401.3 L580.7,394.9 L581.5,388.8 L582.4,400.4 L583.2,371.6 L584.1,380.5 L584.9,402.2 L585.8,372.9 L586.6,395.5 L587.4,403.2 L588.3,377.8 L589.1,372.5 L590.0,369.2 L590.8,388.2 L591.6,388.5 L592.5,395.8 L593.3,410.8 L594.2,419.4 L595.0,419.4 L595.8,419.1 L596.7,417.9 L597.5,418.5 L598.4,409.9 L599.2,399.2 L600.1,384.2 L600.9,394.0 L601.7,358.8 L602.6,366.7 L603.4,340.4 L604.3,356.3 L605.1,364.6 L605.9,356.3 L606.8,341.0 L607.6,332.4 L608.5,349.6 L609.3,354.5 L610.2,370.4 L611.0,389.7 L611.8,385.1 L612.7,402.2 L613.5,417.2 L614.4,414.2 L615.2,409.3 L616.0,408.7 L616.9,401.0 L617.7,393.7 L618.6,391.2 L619.4,383.6 L620.3,382.3 L621.1,384.8 L621.9,360.9 L622.8,349.6 L623.6,339.8 L624.5,330.6 L625.3,344.1 L626.1,360.6 L627.0,359.7 L627.8,351.4 L628.7,335.8 L629.5,330.3 L630.4,331.8 L631.2,330.0 L632.0,326.0 L632.9,351.7 L633.7,351.4 L634.6,351.4 L635.4,352.3 L636.2,353.3 L637.1,348.1 L637.9,350.8 L638.8,352.6 L639.6,354.2 L640.4,356.9 L641.3,316.5 L642.1,318.4 L643.0,323.6 L643.8,332.7 L644.7,357.5 L645.5,345.6 L646.3,347.1 L647.2,351.4 L648.0,350.8 L648.9,351.4 L649.7,349.9 L650.5,360.6 L651.4,373.2 L652.2,372.2 L653.1,368.0 L653.9,356.9 L654.8,352.3 L655.6,330.6 L656.4,326.0 L657.3,324.8 L658.1,323.3 L659.0,316.2 L659.8,338.9 L660.6,324.2 L661.5,329.7 L662.3,322.6 L663.2,354.8 L664.0,335.5 L664.9,349.6 L665.7,352.6 L666.5,372.5 L667.4,367.3 L668.2,367.6 L669.1,376.2 L669.9,381.4 L670.7,386.6 L671.6,380.8 L672.4,390.9 L673.3,394.9 L674.1,401.6 L675.0,404.1 L675.8,384.8 L676.6,383.0 L677.5,376.8 L678.3,372.5 L679.2,365.8 L680.0,372.9" stroke="#1f77b4" stroke-width="2" fill="none" opacity="0.8"/>
<!-- Hydro Generation -->
<path d="M80.0,335.8 L80.8,335.8 L81.7,335.8 L82.5,335.8 L83.4,335.8 L84.2,335.8 L85.0,337.0 L85.9,337.0 L86.7,337.0 L87.6,337.0 L88.4,337.0 L89.3,337.0 L90.1,337.0 L90.9,337.0 L91.8,337.0 L92.6,337.3 L93.5,337.0 L94.3,336.7 L95.1,337.3 L96.0,337.0 L96.8,337.0 L97.7,337.0 L98.5,337.0 L99.4,337.0 L100.2,337.6 L101.0,337.6 L101.9,338.0 L102.7,337.6 L103.6,337.6 L104.4,337.6 L105.2,337.3 L106.1,338.0 L106.9,337.3 L107.8,337.3 L108.6,338.3 L109.5,337.6 L110.3,338.0 L111.1,338.0 L112.0,338.3 L112.8,338.0 L113.7,337.6 L114.5,337.3 L115.3,337.3 L116.2,337.6 L117.0,337.6 L117.9,337.6 L118.7,337.6 L119.6,337.6 L120.4,337.6 L121.2,337.6 L122.1,337.6 L122.9,337.6 L123.8,337.6 L124.6,337.3 L125.4,337.3 L126.3,337.0 L127.1,337.0 L128.0,337.3 L128.8,337.3 L129.6,337.3 L130.5,337.0 L131.3,337.0 L132.2,337.0 L133.0,337.3 L133.9,337.3 L134.7,335.8 L135.5,336.1 L136.4,335.2 L137.2,335.2 L138.1,336.4 L138.9,336.4 L139.7,334.9 L140.6,334.3 L141.4,334.6 L142.3,334.6 L143.1,334.6 L144.0,334.9 L144.8,334.9 L145.6,335.5 L146.5,335.8 L147.3,335.8 L148.2,334.6 L149.0,334.6 L149.8,334.3 L150.7,332.7 L151.5,334.3 L152.4,332.4 L153.2,332.7 L154.1,332.4 L154.9,333.4 L155.7,333.1 L156.6,334.0 L157.4,333.4 L158.3,333.7 L159.1,333.7 L159.9,333.7 L160.8,333.7 L161.6,334.0 L162.5,333.7 L163.3,334.0 L164.2,333.4 L165.0,333.4 L165.8,333.1 L166.7,333.4 L167.5,333.4 L168.4,333.4 L169.2,333.4 L170.0,332.7 L170.9,334.0 L171.7,334.0 L172.6,334.0 L173.4,334.0 L174.2,334.0 L175.1,334.3 L175.9,334.3 L176.8,334.0 L177.6,334.0 L178.5,335.5 L179.3,335.5 L180.1,335.5 L181.0,333.7 L181.8,333.7 L182.7,333.7 L183.5,333.7 L184.3,333.7 L185.2,333.1 L186.0,333.1 L186.9,333.1 L187.7,334.3 L188.6,334.6 L189.4,332.7 L190.2,332.7 L191.1,333.4 L191.9,333.4 L192.8,333.7 L193.6,333.4 L194.4,333.7 L195.3,335.8 L196.1,336.1 L197.0,334.3 L197.8,334.6 L198.7,334.6 L199.5,334.6 L200.3,334.0 L201.2,334.0 L202.0,333.4 L202.9,333.1 L203.7,333.4 L204.5,333.4 L205.4,334.3 L206.2,334.3 L207.1,334.6 L207.9,334.3 L208.8,334.6 L209.6,334.3 L210.4,334.6 L211.3,334.6 L212.1,334.6 L213.0,334.3 L213.8,334.3 L214.6,334.3 L215.5,334.3 L216.3,334.6 L217.2,334.9 L218.0,333.7 L218.8,333.7 L219.7,334.0 L220.5,333.7 L221.4,333.7 L222.2,332.7 L223.1,332.4 L223.9,332.4 L224.7,332.7 L225.6,332.7 L226.4,332.7 L227.3,332.7 L228.1,332.4 L228.9,332.4 L229.8,336.4 L230.6,336.1 L231.5,335.2 L232.3,335.5 L233.2,336.4 L234.0,337.0 L234.8,336.4 L235.7,336.7 L236.5,337.3 L237.4,336.4 L238.2,336.7 L239.0,336.7 L239.9,337.0 L240.7,336.7 L241.6,336.7 L242.4,336.7 L243.3,335.5 L244.1,336.1 L244.9,336.4 L245.8,335.2 L246.6,335.2 L247.5,335.5 L248.3,335.5 L249.1,335.5 L250.0,335.2 L250.8,334.9 L251.7,336.1 L252.5,336.4 L253.4,336.7 L254.2,336.7 L255.0,337.0 L255.9,337.0 L256.7,337.3 L257.6,337.3 L258.4,336.7 L259.2,337.0 L260.1,336.7 L260.9,336.7 L261.8,336.7 L262.6,336.7 L263.5,337.0 L264.3,337.0 L265.1,337.0 L266.0,336.7 L266.8,336.7 L267.7,336.4 L268.5,336.7 L269.3,336.7 L270.2,337.3 L271.0,336.7 L271.9,336.7 L272.7,336.4 L273.5,336.7 L274.4,336.4 L275.2,336.7 L276.1,332.1 L276.9,331.5 L277.8,331.2 L278.6,330.6 L279.4,330.6 L280.3,330.9 L281.1,330.6 L282.0,329.7 L282.8,328.5 L283.6,326.9 L284.5,324.5 L285.3,322.0 L286.2,321.7 L287.0,320.5 L287.9,321.7 L288.7,322.0 L289.5,322.3 L290.4,323.9 L291.2,323.6 L292.1,323.9 L292.9,323.9 L293.7,323.6 L294.6,323.3 L295.4,322.9 L296.3,322.3 L297.1,322.0 L298.0,322.3 L298.8,322.6 L299.6,322.0 L300.5,322.0 L301.3,322.9 L302.2,322.3 L303.0,323.3 L303.8,323.3 L304.7,322.9 L305.5,322.9 L306.4,321.7 L307.2,321.1 L308.1,319.0 L308.9,318.4 L309.7,316.8 L310.6,315.6 L311.4,314.1 L312.3,312.8 L313.1,312.8 L313.9,312.5 L314.8,312.5 L315.6,312.8 L316.5,312.2 L317.3,311.9 L318.1,311.9 L319.0,312.2 L319.8,311.9 L320.7,312.2 L321.5,312.2 L322.4,312.5 L323.2,311.9 L324.0,312.2 L324.9,312.2 L325.7,312.2 L326.6,312.2 L327.4,312.2 L328.2,312.5 L329.1,312.2 L329.9,312.2 L330.8,311.6 L331.6,312.8 L332.5,312.5 L333.3,313.8 L334.1,314.4 L335.0,314.4 L335.8,314.4 L336.7,315.0 L337.5,316.8 L338.3,317.7 L339.2,318.4 L340.0,320.2 L340.9,321.1 L341.7,322.0 L342.6,322.9 L343.4,323.9 L344.2,323.9 L345.1,323.9 L345.9,323.9 L346.8,323.3 L347.6,322.6 L348.4,322.9 L349.3,322.9 L350.1,323.3 L351.0,322.9 L351.8,323.3 L352.7,324.5 L353.5,324.5 L354.3,325.7 L355.2,326.0 L356.0,326.3 L356.9,325.7 L357.7,326.9 L358.5,327.8 L359.4,327.2 L360.2,326.3 L361.1,326.9 L361.9,326.6 L362.7,327.2 L363.6,328.5 L364.4,328.2 L365.3,329.1 L366.1,328.8 L367.0,329.1 L367.8,329.4 L368.6,329.4 L369.5,329.7 L370.3,329.4 L371.2,326.3 L372.0,326.3 L372.8,323.6 L373.7,322.3 L374.5,322.0 L375.4,321.7 L376.2,322.0 L377.1,321.7 L377.9,321.7 L378.7,321.7 L379.6,321.7 L380.4,320.8 L381.3,320.8 L382.1,319.6 L382.9,319.6 L383.8,319.6 L384.6,319.6 L385.5,319.6 L386.3,319.9 L387.2,320.2 L388.0,320.2 L388.8,320.2 L389.7,320.2 L390.5,320.2 L391.4,320.5 L392.2,320.2 L393.0,319.3 L393.9,319.6 L394.7,319.9 L395.6,319.6 L396.4,319.6 L397.3,319.3 L398.1,319.3 L398.9,319.6 L399.8,319.9 L400.6,320.2 L401.5,320.5 L402.3,321.1 L403.1,322.6 L404.0,322.3 L404.8,322.3 L405.7,322.3 L406.5,323.6 L407.3,323.3 L408.2,324.8 L409.0,324.8 L409.9,325.1 L410.7,324.8 L411.6,324.8 L412.4,324.5 L413.2,324.8 L414.1,324.8 L414.9,324.5 L415.8,324.2 L416.6,324.5 L417.4,324.5 L418.3,324.5 L419.1,324.5 L420.0,324.5 L420.8,324.8 L421.7,324.5 L422.5,324.8 L423.3,324.5 L424.2,324.8 L425.0,324.8 L425.9,324.5 L426.7,325.4 L427.5,325.7 L428.4,326.3 L429.2,326.3 L430.1,327.5 L430.9,327.5 L431.8,326.6 L432.6,326.6 L433.4,326.9 L434.3,326.6 L435.1,326.9 L436.0,326.6 L436.8,328.2 L437.6,326.9 L438.5,326.6 L439.3,326.3 L440.2,326.0 L441.0,326.6 L441.9,326.6 L442.7,326.0 L443.5,325.4 L444.4,325.7 L445.2,326.0 L446.1,325.4 L446.9,325.7 L447.7,326.6 L448.6,326.6 L449.4,327.2 L450.3,327.2 L451.1,327.2 L451.9,327.2 L452.8,327.2 L453.6,325.4 L454.5,325.7 L455.3,326.0 L456.2,325.7 L457.0,325.7 L457.8,325.4 L458.7,325.4 L459.5,324.8 L460.4,325.1 L461.2,324.2 L462.0,324.8 L462.9,324.8 L463.7,326.0 L464.6,326.0 L465.4,325.7 L466.3,325.7 L467.1,326.6 L467.9,326.9 L468.8,326.9 L469.6,327.8 L470.5,328.5 L471.3,328.2 L472.1,327.8 L473.0,327.8 L473.8,327.5 L474.7,327.2 L475.5,327.8 L476.4,328.5 L477.2,329.1 L478.0,328.5 L478.9,328.2 L479.7,328.2 L480.6,328.8 L481.4,328.5 L482.2,328.2 L483.1,328.2 L483.9,328.2 L484.8,328.2 L485.6,328.2 L486.5,328.2 L487.3,328.2 L488.1,327.8 L489.0,328.2 L489.8,328.2 L490.7,328.5 L491.5,327.8 L492.3,328.2 L493.2,328.5 L494.0,328.5 L494.9,328.8 L495.7,328.5 L496.5,329.7 L497.4,330.0 L498.2,329.7 L499.1,330.6 L499.9,330.6 L500.8,329.7 L501.6,329.4 L502.4,329.7 L503.3,330.0 L504.1,329.7 L505.0,329.7 L505.8,330.0 L506.6,331.5 L507.5,331.2 L508.3,332.7 L509.2,332.4 L510.0,332.4 L510.9,332.7 L511.7,333.4 L512.5,332.4 L513.4,332.7 L514.2,332.4 L515.1,333.7 L515.9,332.4 L516.7,332.7 L517.6,332.7 L518.4,332.1 L519.3,332.1 L520.1,331.8 L521.0,331.5 L521.8,331.5 L522.6,330.6 L523.5,331.2 L524.3,330.9 L525.2,330.6 L526.0,330.6 L526.8,330.0 L527.7,330.0 L528.5,330.3 L529.4,330.0 L530.2,330.0 L531.1,330.3 L531.9,330.9 L532.7,331.2 L533.6,331.5 L534.4,331.5 L535.3,330.0 L536.1,330.3 L536.9,330.0 L537.8,330.0 L538.6,330.0 L539.5,311.9 L540.3,328.5 L541.2,328.8 L542.0,329.7 L542.8,329.7 L543.7,330.9 L544.5,330.9 L545.4,330.6 L546.2,330.6 L547.0,330.6 L547.9,330.6 L548.7,332.7 L549.6,332.7 L550.4,332.7 L551.2,332.7 L552.1,333.1 L552.9,334.6 L553.8,334.6 L554.6,335.8 L555.5,332.7 L556.3,330.3 L557.1,330.0 L558.0,330.0 L558.8,329.7 L559.7,330.3 L560.5,329.4 L561.3,329.4 L562.2,329.1 L563.0,329.1 L563.9,328.8 L564.7,328.5 L565.6,328.5 L566.4,328.5 L567.2,328.2 L568.1,328.5 L568.9,327.8 L569.8,327.2 L570.6,327.2 L571.4,326.3 L572.3,326.6 L573.1,326.9 L574.0,325.7 L574.8,325.7 L575.7,325.7 L576.5,322.6 L577.3,322.6 L578.2,322.6 L579.0,320.5 L579.9,317.4 L580.7,317.4 L581.5,317.4 L582.4,317.4 L583.2,316.8 L584.1,316.8 L584.9,316.8 L585.8,316.8 L586.6,316.8 L587.4,316.8 L588.3,316.8 L589.1,316.2 L590.0,316.5 L590.8,315.6 L591.6,315.3 L592.5,315.0 L593.3,314.7 L594.2,313.5 L595.0,313.5 L595.8,313.5 L596.7,313.2 L597.5,312.5 L598.4,313.2 L599.2,313.8 L600.1,311.6 L600.9,312.2 L601.7,310.4 L602.6,309.8 L603.4,309.8 L604.3,308.9 L605.1,309.2 L605.9,309.2 L606.8,308.9 L607.6,308.9 L608.5,308.9 L609.3,307.9 L610.2,307.3 L611.0,307.6 L611.8,307.6 L612.7,307.6 L613.5,306.4 L614.4,307.6 L615.2,308.6 L616.0,308.6 L616.9,308.9 L617.7,309.2 L618.6,308.9 L619.4,309.5 L620.3,308.3 L621.1,308.3 L621.9,307.0 L622.8,304.3 L623.6,302.7 L624.5,300.3 L625.3,318.7 L626.1,300.0 L627.0,298.5 L627.8,298.8 L628.7,318.4 L629.5,318.4 L630.4,318.4 L631.2,317.7 L632.0,317.4 L632.9,317.1 L633.7,316.8 L634.6,316.8 L635.4,316.8 L636.2,317.1 L637.1,296.9 L637.9,298.5 L638.8,298.5 L639.6,298.8 L640.4,298.5 L641.3,298.8 L642.1,300.0 L643.0,300.3 L643.8,300.0 L644.7,300.0 L645.5,300.0 L646.3,300.6 L647.2,300.3 L648.0,300.6 L648.9,300.3 L649.7,300.0 L650.5,300.3 L651.4,300.6 L652.2,300.3 L653.1,300.6 L653.9,300.6 L654.8,300.9 L655.6,300.6 L656.4,300.6 L657.3,300.6 L658.1,300.6 L659.0,300.6 L659.8,300.0 L660.6,299.7 L661.5,299.7 L662.3,299.1 L663.2,298.8 L664.0,299.1 L664.9,299.1 L665.7,299.1 L666.5,299.4 L667.4,299.4 L668.2,299.4 L669.1,299.4 L669.9,299.4 L670.7,299.7 L671.6,299.7 L672.4,299.7 L673.3,299.4 L674.1,298.8 L675.0,298.2 L675.8,298.2 L676.6,297.8 L677.5,298.8 L678.3,299.4 L679.2,300.0 L680.0,300.9" stroke="#ff7f0e" stroke-width="2" fill="none" opacity="0.8"/>
<!-- Thermal Generation -->
<path d="M80.0,307.0 L80.8,315.9 L81.7,321.1 L82.5,330.0 L83.4,330.3 L84.2,372.5 L85.0,372.9 L85.9,372.9 L86.7,361.2 L87.6,360.9 L88.4,367.0 L89.3,373.2 L90.1,372.2 L90.9,372.9 L91.8,348.7 L92.6,346.5 L93.5,342.5 L94.3,371.6 L95.1,320.2 L96.0,372.5 L96.8,281.9 L97.7,327.8 L98.5,329.7 L99.4,335.8 L100.2,348.4 L101.0,354.2 L101.9,354.2 L102.7,355.4 L103.6,295.7 L104.4,326.9 L105.2,298.8 L106.1,306.4 L106.9,289.6 L107.8,313.5 L108.6,323.6 L109.5,335.5 L110.3,323.6 L111.1,322.9 L112.0,320.5 L112.8,321.7 L113.7,322.9 L114.5,319.9 L115.3,320.2 L116.2,331.5 L117.0,304.0 L117.9,284.7 L118.7,292.9 L119.6,279.2 L120.4,289.3 L121.2,290.8 L122.1,281.3 L122.9,280.7 L123.8,311.0 L124.6,313.8 L125.4,312.8 L126.3,315.9 L127.1,283.5 L128.0,303.4 L128.8,314.1 L129.6,320.8 L130.5,325.4 L131.3,354.2 L132.2,372.2 L133.0,372.2 L133.9,372.5 L134.7,372.5 L135.5,372.2 L136.4,372.2 L137.2,342.2 L138.1,315.9 L138.9,304.3 L139.7,336.4 L140.6,341.9 L141.4,353.6 L142.3,354.2 L143.1,354.5 L144.0,354.5 L144.8,354.8 L145.6,353.9 L146.5,354.2 L147.3,342.5 L148.2,354.2 L149.0,354.5 L149.8,354.5 L150.7,354.2 L151.5,353.9 L152.4,365.8 L153.2,366.4 L154.1,366.1 L154.9,366.4 L155.7,357.5 L156.6,330.3 L157.4,296.3 L158.3,290.2 L159.1,278.9 L159.9,278.6 L160.8,301.8 L161.6,293.9 L162.5,307.3 L163.3,363.7 L164.2,372.5 L165.0,372.5 L165.8,372.2 L166.7,353.9 L167.5,342.8 L168.4,373.5 L169.2,373.5 L170.0,373.8 L170.9,373.5 L171.7,373.8 L172.6,374.1 L173.4,373.8 L174.2,373.5 L175.1,372.9 L175.9,373.2 L176.8,372.5 L177.6,372.5 L178.5,371.9 L179.3,371.9 L180.1,348.1 L181.0,371.9 L181.8,371.9 L182.7,371.9 L183.5,371.6 L184.3,371.9 L185.2,372.2 L186.0,371.9 L186.9,372.2 L187.7,372.5 L188.6,373.5 L189.4,372.9 L190.2,353.6 L191.1,372.9 L191.9,372.5 L192.8,375.3 L193.6,372.9 L194.4,373.2 L195.3,360.3 L196.1,348.1 L197.0,336.1 L197.8,333.7 L198.7,291.7 L199.5,277.9 L200.3,277.6 L201.2,277.6 L202.0,282.8 L202.9,305.2 L203.7,284.1 L204.5,291.7 L205.4,291.7 L206.2,305.5 L207.1,309.2 L207.9,321.1 L208.8,330.3 L209.6,317.7 L210.4,348.4 L211.3,354.2 L212.1,353.9 L213.0,354.5 L213.8,354.2 L214.6,354.2 L215.5,354.2 L216.3,353.9 L217.2,354.2 L218.0,354.8 L218.8,327.5 L219.7,287.1 L220.5,260.8 L221.4,304.6 L222.2,329.7 L223.1,352.6 L223.9,353.9 L224.7,353.9 L225.6,354.2 L226.4,353.9 L227.3,353.3 L228.1,353.9 L228.9,354.2 L229.8,353.9 L230.6,354.5 L231.5,354.2 L232.3,353.6 L233.2,354.5 L234.0,354.2 L234.8,354.8 L235.7,354.5 L236.5,354.8 L237.4,342.2 L238.2,308.3 L239.0,226.5 L239.9,213.3 L240.7,219.8 L241.6,212.4 L242.4,240.3 L243.3,263.6 L244.1,230.8 L244.9,231.4 L245.8,248.9 L246.6,221.0 L247.5,230.2 L248.3,235.4 L249.1,242.1 L250.0,266.6 L250.8,266.3 L251.7,287.7 L252.5,314.4 L253.4,323.3 L254.2,323.6 L255.0,322.9 L255.9,247.3 L256.7,216.7 L257.6,223.8 L258.4,218.2 L259.2,220.7 L260.1,214.0 L260.9,213.7 L261.8,225.9 L262.6,245.5 L263.5,269.1 L264.3,353.9 L265.1,353.6 L266.0,353.6 L266.8,353.0 L267.7,353.0 L268.5,354.2 L269.3,353.9 L270.2,354.2 L271.0,349.9 L271.9,354.5 L272.7,354.8 L273.5,355.4 L274.4,356.0 L275.2,356.3 L276.1,357.5 L276.9,357.5 L277.8,357.9 L278.6,357.5 L279.4,356.3 L280.3,355.4 L281.1,355.4 L282.0,354.8 L282.8,355.1 L283.6,354.8 L284.5,354.8 L285.3,354.5 L286.2,355.1 L287.0,355.1 L287.9,354.8 L288.7,353.9 L289.5,354.8 L290.4,354.8 L291.2,354.5 L292.1,354.5 L292.9,355.4 L293.7,354.8 L294.6,354.5 L295.4,354.5 L296.3,354.5 L297.1,354.8 L298.0,354.5 L298.8,354.2 L299.6,354.2 L300.5,354.8 L301.3,355.1 L302.2,353.9 L303.0,353.9 L303.8,353.9 L304.7,354.5 L305.5,354.5 L306.4,353.6 L307.2,354.5 L308.1,354.5 L308.9,355.1 L309.7,356.6 L310.6,354.5 L311.4,354.5 L312.3,353.9 L313.1,353.9 L313.9,354.2 L314.8,353.9 L315.6,353.9 L316.5,353.6 L317.3,353.6 L318.1,353.9 L319.0,356.0 L319.8,356.3 L320.7,354.5 L321.5,355.7 L322.4,353.6 L323.2,352.6 L324.0,355.1 L324.9,354.8 L325.7,372.9 L326.6,372.5 L327.4,372.5 L328.2,372.2 L329.1,372.5 L329.9,372.9 L330.8,372.5 L331.6,372.5 L332.5,372.2 L333.3,372.9 L334.1,372.5 L335.0,372.5 L335.8,372.5 L336.7,372.5 L337.5,372.2 L338.3,372.9 L339.2,372.5 L340.0,372.5 L340.9,372.9 L341.7,372.5 L342.6,371.9 L343.4,371.6 L344.2,371.9 L345.1,372.2 L345.9,371.9 L346.8,372.2 L347.6,371.9 L348.4,371.9 L349.3,372.2 L350.1,372.5 L351.0,372.5 L351.8,372.9 L352.7,372.5 L353.5,372.2 L354.3,372.5 L355.2,372.5 L356.0,372.9 L356.9,372.5 L357.7,372.5 L358.5,372.5 L359.4,372.2 L360.2,372.9 L361.1,372.9 L361.9,371.9 L362.7,372.5 L363.6,372.2 L364.4,371.9 L365.3,371.9 L366.1,372.2 L367.0,372.2 L367.8,372.2 L368.6,372.2 L369.5,372.9 L370.3,372.5 L371.2,372.2 L372.0,372.2 L372.8,372.2 L373.7,372.2 L374.5,372.2 L375.4,372.2 L376.2,372.5 L377.1,372.2 L377.9,353.9 L378.7,353.6 L379.6,353.9 L380.4,313.5 L381.3,324.2 L382.1,331.5 L382.9,328.8 L383.8,300.6 L384.6,322.3 L385.5,317.1 L386.3,316.2 L387.2,293.6 L388.0,291.4 L388.8,303.7 L389.7,296.3 L390.5,331.2 L391.4,331.8 L392.2,371.9 L393.0,372.2 L393.9,372.2 L394.7,371.9 L395.6,372.2 L396.4,369.2 L397.3,372.5 L398.1,356.9 L398.9,332.4 L399.8,332.4 L400.6,294.8 L401.5,294.2 L402.3,329.4 L403.1,316.8 L404.0,293.9 L404.8,322.9 L405.7,332.1 L406.5,331.8 L407.3,332.1 L408.2,332.7 L409.0,332.4 L409.9,326.6 L410.7,334.0 L411.6,333.4 L412.4,333.1 L413.2,355.4 L414.1,372.5 L414.9,370.4 L415.8,350.2 L416.6,335.8 L417.4,335.2 L418.3,369.5 L419.1,333.1 L420.0,304.9 L420.8,298.2 L421.7,294.8 L422.5,294.2 L423.3,293.9 L424.2,294.8 L425.0,293.3 L425.9,319.0 L426.7,316.8 L427.5,322.0 L428.4,336.1 L429.2,316.5 L430.1,318.4 L430.9,334.6 L431.8,333.4 L432.6,333.7 L433.4,360.6 L434.3,351.1 L435.1,351.4 L436.0,350.2 L436.8,348.1 L437.6,331.8 L438.5,332.7 L439.3,332.7 L440.2,332.4 L441.0,295.7 L441.9,283.2 L442.7,310.4 L443.5,319.3 L444.4,308.6 L445.2,315.9 L446.1,325.4 L446.9,326.6 L447.7,326.0 L448.6,323.3 L449.4,319.9 L450.3,319.9 L451.1,336.7 L451.9,373.2 L452.8,372.2 L453.6,369.2 L454.5,371.6 L455.3,371.9 L456.2,371.9 L457.0,371.6 L457.8,371.9 L458.7,371.9 L459.5,347.7 L460.4,332.4 L461.2,286.5 L462.0,283.2 L462.9,285.9 L463.7,288.4 L464.6,297.8 L465.4,296.0 L466.3,311.9 L467.1,298.2 L467.9,307.6 L468.8,311.0 L469.6,307.6 L470.5,307.3 L471.3,333.4 L472.1,372.5 L473.0,371.9 L473.8,371.9 L474.7,372.5 L475.5,370.7 L476.4,371.9 L477.2,371.9 L478.0,368.6 L478.9,372.5 L479.7,372.5 L480.6,372.5 L481.4,370.7 L482.2,369.8 L483.1,372.5 L483.9,372.5 L484.8,374.4 L485.6,376.8 L486.5,377.1 L487.3,376.8 L488.1,376.8 L489.0,377.1 L489.8,377.1 L490.7,376.8 L491.5,376.8 L492.3,377.1 L493.2,377.1 L494.0,376.8 L494.9,377.1 L495.7,377.4 L496.5,377.8 L497.4,378.4 L498.2,378.1 L499.1,378.1 L499.9,378.1 L500.8,378.4 L501.6,377.8 L502.4,337.0 L503.3,338.0 L504.1,336.7 L505.0,336.7 L505.8,337.0 L506.6,359.1 L507.5,358.8 L508.3,358.2 L509.2,358.2 L510.0,331.5 L510.9,332.4 L511.7,332.1 L512.5,332.7 L513.4,332.4 L514.2,332.7 L515.1,332.7 L515.9,333.1 L516.7,334.0 L517.6,297.2 L518.4,308.6 L519.3,291.7 L520.1,291.4 L521.0,313.8 L521.8,324.8 L522.6,316.5 L523.5,331.8 L524.3,332.4 L525.2,333.1 L526.0,333.4 L526.8,330.0 L527.7,330.0 L528.5,330.3 L529.4,330.0 L530.2,328.8 L531.1,329.7 L531.9,324.2 L532.7,323.6 L533.6,323.6 L534.4,314.7 L535.3,324.5 L536.1,324.2 L536.9,314.4 L537.8,312.2 L538.6,312.5 L539.5,361.5 L540.3,349.3 L541.2,331.2 L542.0,326.9 L542.8,312.5 L543.7,291.7 L544.5,296.0 L545.4,291.7 L546.2,294.2 L547.0,327.8 L547.9,330.6 L548.7,340.4 L549.6,309.5 L550.4,286.5 L551.2,309.5 L552.1,328.8 L552.9,337.0 L553.8,323.6 L554.6,324.5 L555.5,334.9 L556.3,337.0 L557.1,330.9 L558.0,330.9 L558.8,330.9 L559.7,317.4 L560.5,299.7 L561.3,305.8 L562.2,304.6 L563.0,292.0 L563.9,296.6 L564.7,283.2 L565.6,289.3 L566.4,292.0 L567.2,287.1 L568.1,315.3 L568.9,323.3 L569.8,329.1 L570.6,328.8 L571.4,299.1 L572.3,322.0 L573.1,325.4 L574.0,324.8 L574.8,324.5 L575.7,310.1 L576.5,313.8 L577.3,310.7 L578.2,292.3 L579.0,297.8 L579.9,303.4 L580.7,307.0 L581.5,313.5 L582.4,306.7 L583.2,299.1 L584.1,302.7 L584.9,326.9 L585.8,307.6 L586.6,311.9 L587.4,334.9 L588.3,334.9 L589.1,370.7 L590.0,376.8 L590.8,376.2 L591.6,377.4 L592.5,374.4 L593.3,373.5 L594.2,374.1 L595.0,373.8 L595.8,373.8 L596.7,373.5 L597.5,373.8 L598.4,374.4 L599.2,374.4 L600.1,373.8 L600.9,374.1 L601.7,374.4 L602.6,374.7 L603.4,374.1 L604.3,372.9 L605.1,372.5 L605.9,378.1 L606.8,377.8 L607.6,377.4 L608.5,377.1 L609.3,377.1 L610.2,377.4 L611.0,376.8 L611.8,377.4 L612.7,372.9 L613.5,373.2 L614.4,373.5 L615.2,373.2 L616.0,373.2 L616.9,372.9 L617.7,372.9 L618.6,372.9 L619.4,372.9 L620.3,373.2 L621.1,373.5 L621.9,372.9 L622.8,373.2 L623.6,373.2 L624.5,372.5 L625.3,372.5 L626.1,374.4 L627.0,377.1 L627.8,377.1 L628.7,377.4 L629.5,377.4 L630.4,377.4 L631.2,377.8 L632.0,377.8 L632.9,378.1 L633.7,378.4 L634.6,377.4 L635.4,377.8 L636.2,377.4 L637.1,377.8 L637.9,377.4 L638.8,377.8 L639.6,378.1 L640.4,378.1 L641.3,377.4 L642.1,377.4 L643.0,378.1 L643.8,377.4 L644.7,359.1 L645.5,359.1 L646.3,377.1 L647.2,377.4 L648.0,377.4 L648.9,377.4 L649.7,377.1 L650.5,377.8 L651.4,378.4 L652.2,377.1 L653.1,374.7 L653.9,374.7 L654.8,374.7 L655.6,374.7 L656.4,374.1 L657.3,373.8 L658.1,374.4 L659.0,373.8 L659.8,374.4 L660.6,374.4 L661.5,374.7 L662.3,374.4 L663.2,318.4 L664.0,333.4 L664.9,374.7 L665.7,373.5 L666.5,355.4 L667.4,359.1 L668.2,378.4 L669.1,379.0 L669.9,379.0 L670.7,361.5 L671.6,349.6 L672.4,349.6 L673.3,378.1 L674.1,373.8 L675.0,371.0 L675.8,371.3 L676.6,370.1 L677.5,371.0 L678.3,380.2 L679.2,380.2 L680.0,380.8" stroke="#2ca02c" stroke-width="2" fill="none" opacity="0.8"/>
<!-- Solar Generation -->
<path d="M80.0,420.0 L80.8,420.0 L81.7,420.0 L82.5,420.0 L83.4,420.0 L84.2,420.0 L85.0,420.0 L85.9,420.0 L86.7,417.2 L87.6,402.2 L88.4,395.2 L89.3,391.2 L90.1,387.5 L90.9,386.3 L91.8,387.9 L92.6,388.2 L93.5,394.0 L94.3,395.8 L95.1,403.5 L96.0,401.3 L96.8,405.9 L97.7,417.6 L98.5,420.0 L99.4,420.0 L100.2,420.0 L101.0,420.0 L101.9,420.0 L102.7,420.0 L103.6,420.0 L104.4,420.0 L105.2,420.0 L106.1,420.0 L106.9,413.9 L107.8,399.2 L108.6,378.4 L109.5,387.2 L110.3,383.9 L111.1,389.4 L112.0,396.4 L112.8,389.1 L113.7,378.7 L114.5,376.8 L115.3,399.2 L116.2,394.6 L117.0,410.5 L117.9,414.2 L118.7,420.0 L119.6,420.0 L120.4,420.0 L121.2,420.0 L122.1,420.0 L122.9,420.0 L123.8,420.0 L124.6,420.0 L125.4,420.0 L126.3,420.0 L127.1,412.7 L128.0,386.6 L128.8,375.6 L129.6,375.3 L130.5,375.3 L131.3,375.0 L132.2,375.0 L133.0,391.8 L133.9,395.2 L134.7,398.9 L135.5,403.2 L136.4,394.0 L137.2,387.5 L138.1,415.4 L138.9,420.0 L139.7,420.0 L140.6,420.0 L141.4,420.0 L142.3,420.0 L143.1,420.0 L144.0,420.0 L144.8,420.0 L145.6,420.0 L146.5,420.0 L147.3,418.8 L148.2,415.4 L149.0,400.7 L149.8,395.8 L150.7,397.0 L151.5,392.4 L152.4,385.7 L153.2,383.0 L154.1,394.9 L154.9,391.2 L155.7,392.4 L156.6,403.5 L157.4,392.4 L158.3,412.7 L159.1,420.0 L159.9,420.0 L160.8,420.0 L161.6,420.0 L162.5,420.0 L163.3,420.0 L164.2,420.0 L165.0,420.0 L165.8,420.0 L166.7,420.0 L167.5,413.6 L168.4,390.6 L169.2,379.6 L170.0,409.3 L170.9,410.2 L171.7,398.3 L172.6,398.6 L173.4,408.1 L174.2,407.1 L175.1,401.0 L175.9,403.8 L176.8,405.3 L177.6,413.0 L178.5,417.2 L179.3,420.0 L180.1,420.0 L181.0,420.0 L181.8,420.0 L182.7,420.0 L183.5,420.0 L184.3,420.0 L185.2,420.0 L186.0,420.0 L186.9,420.0 L187.7,416.3 L188.6,414.5 L189.4,412.3 L190.2,390.0 L191.1,384.2 L191.9,391.5 L192.8,400.7 L193.6,400.4 L194.4,398.6 L195.3,398.9 L196.1,409.0 L197.0,400.4 L197.8,412.7 L198.7,410.2 L199.5,420.0 L200.3,420.0 L201.2,420.0 L202.0,420.0 L202.9,420.0 L203.7,420.0 L204.5,420.0 L205.4,420.0 L206.2,420.0 L207.1,420.0 L207.9,415.1 L208.8,407.1 L209.6,377.4 L210.4,375.6 L211.3,375.3 L212.1,375.3 L213.0,375.0 L213.8,376.5 L214.6,398.6 L215.5,398.9 L216.3,397.0 L217.2,379.6 L218.0,387.2 L218.8,416.0 L219.7,420.0 L220.5,420.0 L221.4,420.0 L222.2,420.0 L223.1,420.0 L223.9,420.0 L224.7,420.0 L225.6,420.0 L226.4,420.0 L227.3,420.0 L228.1,415.4 L228.9,394.6 L229.8,390.3 L230.6,384.5 L231.5,377.1 L232.3,375.3 L233.2,375.0 L234.0,398.0 L234.8,398.9 L235.7,376.5 L236.5,377.1 L237.4,387.5 L238.2,393.7 L239.0,409.3 L239.9,420.0 L240.7,420.0 L241.6,420.0 L242.4,420.0 L243.3,420.0 L244.1,420.0 L244.9,420.0 L245.8,420.0 L246.6,420.0 L247.5,420.0 L248.3,410.8 L249.1,388.5 L250.0,377.8 L250.8,376.5 L251.7,375.6 L252.5,376.2 L253.4,375.9 L254.2,375.3 L255.0,376.2 L255.9,378.1 L256.7,379.3 L257.6,380.8 L258.4,397.3 L259.2,414.2 L260.1,420.0 L260.9,420.0 L261.8,420.0 L262.6,420.0 L263.5,420.0 L264.3,420.0 L265.1,420.0 L266.0,420.0 L266.8,420.0 L267.7,420.0 L268.5,411.7 L269.3,389.1 L270.2,384.2 L271.0,379.6 L271.9,388.5 L272.7,399.8 L273.5,383.0 L274.4,399.2 L275.2,389.7 L276.1,390.0 L276.9,405.3 L277.8,414.5 L278.6,410.8 L279.4,412.7 L280.3,420.0 L281.1,420.0 L282.0,420.0 L282.8,420.0 L283.6,420.0 L284.5,420.0 L285.3,420.0 L286.2,420.0 L287.0,420.0 L287.9,420.0 L288.7,413.6 L289.5,400.4 L290.4,401.6 L291.2,399.8 L292.1,399.5 L292.9,399.2 L293.7,399.5 L294.6,399.2 L295.4,399.8 L296.3,399.8 L297.1,399.8 L298.0,400.7 L298.8,406.2 L299.6,416.0 L300.5,420.0 L301.3,420.0 L302.2,420.0 L303.0,420.0 L303.8,420.0 L304.7,420.0 L305.5,420.0 L306.4,420.0 L307.2,420.0 L308.1,420.0 L308.9,413.9 L309.7,402.5 L310.6,400.1 L311.4,399.8 L312.3,399.5 L313.1,399.2 L313.9,399.2 L314.8,399.2 L315.6,399.2 L316.5,399.5 L317.3,412.7 L318.1,413.9 L319.0,407.8 L319.8,411.1 L320.7,420.0 L321.5,420.0 L322.4,420.0 L323.2,420.0 L324.0,420.0 L324.9,420.0 L325.7,420.0 L326.6,420.0 L327.4,420.0 L328.2,420.0 L329.1,418.5 L329.9,403.5 L330.8,401.3 L331.6,402.2 L332.5,400.1 L333.3,399.5 L334.1,402.2 L335.0,400.1 L335.8,400.7 L336.7,409.6 L337.5,411.1 L338.3,415.4 L339.2,413.6 L340.0,413.9 L340.9,420.0 L341.7,420.0 L342.6,420.0 L343.4,420.0 L344.2,420.0 L345.1,420.0 L345.9,420.0 L346.8,420.0 L347.6,420.0 L348.4,420.0 L349.3,413.6 L350.1,417.2 L351.0,413.3 L351.8,411.4 L352.7,401.9 L353.5,388.8 L354.3,399.8 L355.2,384.5 L356.0,398.6 L356.9,404.4 L357.7,409.9 L358.5,402.2 L359.4,381.7 L360.2,412.3 L361.1,419.7 L361.9,420.0 L362.7,420.0 L363.6,420.0 L364.4,420.0 L365.3,420.0 L366.1,420.0 L367.0,420.0 L367.8,420.0 L368.6,420.0 L369.5,414.5 L370.3,412.3 L371.2,415.4 L372.0,415.1 L372.8,391.8 L373.7,394.6 L374.5,412.3 L375.4,405.9 L376.2,401.3 L377.1,406.5 L377.9,388.8 L378.7,402.5 L379.6,398.3 L380.4,413.9 L381.3,419.7 L382.1,420.0 L382.9,420.0 L383.8,420.0 L384.6,420.0 L385.5,420.0 L386.3,420.0 L387.2,420.0 L388.0,420.0 L388.8,420.0 L389.7,408.7 L390.5,400.4 L391.4,379.9 L392.2,376.2 L393.0,376.2 L393.9,375.9 L394.7,383.6 L395.6,387.2 L396.4,402.9 L397.3,399.5 L398.1,408.7 L398.9,403.2 L399.8,401.0 L400.6,411.1 L401.5,419.7 L402.3,420.0 L403.1,420.0 L404.0,420.0 L404.8,420.0 L405.7,420.0 L406.5,420.0 L407.3,420.0 L408.2,420.0 L409.0,420.0 L409.9,411.4 L410.7,390.9 L411.6,378.7 L412.4,377.4 L413.2,376.2 L414.1,392.1 L414.9,377.4 L415.8,395.5 L416.6,399.2 L417.4,397.0 L418.3,390.6 L419.1,397.7 L420.0,413.0 L420.8,417.9 L421.7,420.0 L422.5,420.0 L423.3,420.0 L424.2,420.0 L425.0,420.0 L425.9,420.0 L426.7,420.0 L427.5,420.0 L428.4,420.0 L429.2,420.0 L430.1,419.4 L430.9,416.3 L431.8,397.7 L432.6,397.7 L433.4,399.8 L434.3,385.7 L435.1,390.3 L436.0,385.4 L436.8,393.4 L437.6,388.8 L438.5,394.0 L439.3,388.2 L440.2,390.9 L441.0,412.3 L441.9,420.0 L442.7,420.0 L443.5,420.0 L444.4,420.0 L445.2,420.0 L446.1,420.0 L446.9,420.0 L447.7,420.0 L448.6,420.0 L449.4,420.0 L450.3,407.1 L451.1,384.8 L451.9,377.1 L452.8,375.9 L453.6,385.4 L454.5,380.2 L455.3,382.6 L456.2,379.9 L457.0,384.5 L457.8,392.4 L458.7,404.1 L459.5,403.2 L460.4,397.7 L461.2,416.9 L462.0,420.0 L462.9,420.0 L463.7,420.0 L464.6,420.0 L465.4,420.0 L466.3,420.0 L467.1,420.0 L467.9,420.0 L468.8,420.0 L469.6,420.0 L470.5,409.9 L471.3,385.1 L472.1,378.1 L473.0,375.9 L473.8,375.3 L474.7,398.6 L475.5,400.1 L476.4,400.4 L477.2,409.9 L478.0,410.5 L478.9,399.8 L479.7,394.3 L480.6,391.8 L481.4,407.8 L482.2,419.7 L483.1,420.0 L483.9,420.0 L484.8,420.0 L485.6,420.0 L486.5,420.0 L487.3,420.0 L488.1,420.0 L489.0,420.0 L489.8,420.0 L490.7,408.4 L491.5,388.2 L492.3,394.0 L493.2,375.6 L494.0,398.9 L494.9,375.9 L495.7,400.1 L496.5,399.2 L497.4,399.5 L498.2,389.1 L499.1,386.6 L499.9,388.2 L500.8,392.4 L501.6,408.7 L502.4,419.4 L503.3,420.0 L504.1,420.0 L505.0,420.0 L505.8,420.0 L506.6,420.0 L507.5,420.0 L508.3,420.0 L509.2,420.0 L510.0,420.0 L510.9,407.1 L511.7,384.8 L512.5,399.5 L513.4,375.6 L514.2,375.3 L515.1,376.2 L515.9,394.0 L516.7,379.0 L517.6,394.6 L518.4,386.0 L519.3,399.5 L520.1,405.3 L521.0,414.2 L521.8,418.2 L522.6,419.7 L523.5,420.0 L524.3,420.0 L525.2,420.0 L526.0,420.0 L526.8,420.0 L527.7,420.0 L528.5,420.0 L529.4,420.0 L530.2,420.0 L531.1,411.4 L531.9,409.6 L532.7,391.8 L533.6,393.1 L534.4,398.6 L535.3,402.2 L536.1,398.3 L536.9,395.8 L537.8,400.1 L538.6,396.1 L539.5,398.9 L540.3,410.2 L541.2,388.8 L542.0,409.9 L542.8,419.7 L543.7,420.0 L544.5,420.0 L545.4,420.0 L546.2,420.0 L547.0,420.0 L547.9,420.0 L548.7,420.0 L549.6,420.0 L550.4,420.0 L551.2,410.2 L552.1,383.6 L552.9,381.4 L553.8,378.1 L554.6,377.8 L555.5,378.7 L556.3,379.6 L557.1,377.1 L558.0,377.8 L558.8,385.4 L559.7,386.0 L560.5,402.9 L561.3,402.9 L562.2,414.2 L563.0,419.7 L563.9,420.0 L564.7,420.0 L565.6,420.0 L566.4,420.0 L567.2,420.0 L568.1,420.0 L568.9,420.0 L569.8,420.0 L570.6,420.0 L571.4,411.4 L572.3,386.9 L573.1,382.3 L574.0,377.8 L574.8,376.5 L575.7,379.0 L576.5,379.0 L577.3,385.1 L578.2,385.1 L579.0,394.9 L579.9,380.5 L580.7,390.3 L581.5,409.3 L582.4,411.1 L583.2,419.4 L584.1,420.0 L584.9,420.0 L585.8,420.0 L586.6,420.0 L587.4,420.0 L588.3,420.0 L589.1,420.0 L590.0,420.0 L590.8,419.4 L591.6,410.5 L592.5,383.6 L593.3,379.6 L594.2,376.2 L595.0,375.3 L595.8,378.4 L596.7,379.9 L597.5,402.9 L598.4,382.0 L599.2,397.3 L600.1,401.9 L600.9,402.9 L601.7,402.9 L602.6,413.3 L603.4,419.7 L604.3,420.0 L605.1,420.0 L605.9,420.0 L606.8,420.0 L607.6,420.0 L608.5,420.0 L609.3,420.0 L610.2,420.0 L611.0,420.0 L611.8,417.9 L612.7,417.9 L613.5,416.6 L614.4,415.1 L615.2,415.1 L616.0,412.3 L616.9,401.9 L617.7,404.7 L618.6,410.8 L619.4,418.2 L620.3,416.6 L621.1,409.3 L621.9,407.1 L622.8,416.6 L623.6,419.7 L624.5,420.0 L625.3,420.0 L626.1,420.0 L627.0,420.0 L627.8,420.0 L628.7,420.0 L629.5,420.0 L630.4,420.0 L631.2,420.0 L632.0,419.7 L632.9,418.5 L633.7,416.9 L634.6,415.4 L635.4,414.5 L636.2,410.2 L637.1,410.8 L637.9,413.0 L638.8,409.6 L639.6,409.0 L640.4,413.6 L641.3,416.0 L642.1,413.9 L643.0,415.7 L643.8,419.7 L644.7,420.0 L645.5,420.0 L646.3,420.0 L647.2,420.0 L648.0,420.0 L648.9,420.0 L649.7,420.0 L650.5,420.0 L651.4,420.0 L652.2,405.9 L653.1,385.1 L653.9,380.8 L654.8,377.1 L655.6,376.5 L656.4,378.1 L657.3,382.0 L658.1,382.0 L659.0,376.5 L659.8,381.1 L660.6,378.7 L661.5,383.9 L662.3,400.4 L663.2,407.1 L664.0,419.4 L664.9,420.0 L665.7,420.0 L666.5,420.0 L667.4,420.0 L668.2,420.0 L669.1,420.0 L669.9,420.0 L670.7,420.0 L671.6,419.7 L672.4,405.6 L673.3,384.2 L674.1,384.5 L675.0,393.7 L675.8,392.4 L676.6,383.3 L677.5,389.4 L678.3,383.9 L679.2,385.4 L680.0,389.1" stroke="#d62728" stroke-width="2" fill="none" opacity="0.8"/>
<!-- Forecast -->
<path d="M80.0,193.4 L80.8,208.8 L81.7,227.4 L82.5,237.2 L83.4,243.4 L84.2,245.8 L85.0,243.4 L85.9,231.1 L86.7,207.5 L87.6,181.2 L88.4,163.4 L89.3,155.2 L90.1,150.0 L90.9,149.7 L91.8,149.4 L92.6,150.3 L93.5,150.9 L94.3,152.1 L95.1,151.5 L96.0,149.7 L96.8,155.2 L97.7,161.3 L98.5,162.8 L99.4,164.4 L100.2,181.5 L101.0,203.9 L101.9,227.1 L102.7,232.9 L103.6,234.8 L104.4,236.9 L105.2,233.9 L106.1,219.5 L106.9,194.1 L107.8,164.7 L108.6,146.0 L109.5,140.2 L110.3,139.6 L111.1,142.9 L112.0,144.8 L112.8,147.8 L113.7,149.7 L114.5,151.5 L115.3,152.1 L116.2,151.5 L117.0,155.5 L117.9,159.5 L118.7,157.6 L119.6,160.1 L120.4,178.8 L121.2,368.0 L122.1,270.0 L122.9,375.9 L123.8,420.0 L124.6,420.0 L125.4,420.0 L126.3,420.0 L127.1,420.0 L128.0,420.0 L128.8,420.0 L129.6,420.0 L130.5,420.0 L131.3,420.0 L132.2,420.0 L133.0,420.0 L133.9,420.0 L134.7,420.0 L135.5,420.0 L136.4,420.0 L137.2,420.0 L138.1,420.0 L138.9,420.0 L139.7,420.0 L140.6,420.0 L141.4,266.0 L142.3,229.6 L143.1,241.8 L144.0,249.5 L144.8,251.6 L145.6,250.4 L146.5,239.4 L147.3,216.7 L148.2,190.4 L149.0,172.0 L149.8,163.4 L150.7,157.6 L151.5,157.0 L152.4,156.4 L153.2,157.9 L154.1,159.2 L154.9,160.7 L155.7,160.4 L156.6,158.9 L157.4,163.4 L158.3,169.6 L159.1,171.1 L159.9,172.9 L160.8,190.1 L161.6,214.6 L162.5,234.2 L163.3,245.2 L164.2,251.9 L165.0,253.8 L165.8,251.3 L166.7,238.8 L167.5,215.8 L168.4,190.4 L169.2,172.9 L170.0,165.0 L170.9,159.2 L171.7,158.5 L172.6,158.5 L173.4,159.5 L174.2,160.4 L175.1,159.8 L175.9,160.1 L176.8,158.9 L177.6,163.1 L178.5,168.6 L179.3,171.4 L180.1,172.6 L181.0,189.8 L181.8,221.6 L182.7,236.0 L183.5,245.5 L184.3,251.9 L185.2,255.6 L186.0,255.9 L186.9,252.2 L187.7,246.7 L188.6,232.0 L189.4,215.2 L190.2,202.0 L191.1,193.4 L191.9,192.8 L192.8,192.5 L193.6,198.0 L194.4,205.1 L195.3,205.1 L196.1,200.5 L197.0,197.1 L197.8,197.7 L198.7,201.1 L199.5,198.7 L200.3,195.9 L201.2,206.6 L202.0,224.7 L202.9,238.8 L203.7,248.6 L204.5,254.4 L205.4,256.5 L206.2,255.3 L207.1,251.6 L207.9,245.2 L208.8,237.2 L209.6,225.0 L210.4,210.6 L211.3,201.4 L212.1,200.5 L213.0,197.4 L213.8,197.1 L214.6,195.6 L215.5,190.4 L216.3,184.6 L217.2,178.4 L218.0,173.2 L218.8,179.1 L219.7,185.5 L220.5,184.0 L221.4,196.8 L222.2,217.6 L223.1,233.2 L223.9,243.0 L224.7,250.1 L225.6,253.5 L226.4,252.5 L227.3,242.7 L228.1,220.4 L228.9,193.8 L229.8,172.0 L230.6,162.5 L231.5,157.9 L232.3,156.4 L233.2,156.4 L234.0,155.8 L234.8,155.8 L235.7,153.3 L236.5,152.1 L237.4,152.4 L238.2,161.0 L239.0,167.1 L239.9,171.1 L240.7,172.9 L241.6,191.0 L242.4,218.9 L243.3,229.0 L244.1,250.4 L244.9,261.4 L245.8,263.6 L246.6,260.8 L247.5,249.2 L248.3,226.2 L249.1,202.0 L250.0,182.4 L250.8,172.3 L251.7,165.9 L252.5,162.2 L253.4,161.0 L254.2,158.9 L255.0,156.4 L255.9,153.0 L256.7,147.2 L257.6,142.3 L258.4,153.0 L259.2,166.2 L260.1,173.5 L260.9,175.4 L261.8,194.4 L262.6,221.6 L263.5,239.4 L264.3,251.3 L265.1,258.7 L266.0,261.7 L266.8,261.1 L267.7,251.6 L268.5,229.9 L269.3,199.3 L270.2,174.2 L271.0,161.3 L271.9,160.1 L272.7,150.9 L273.5,148.1 L274.4,147.5 L275.2,142.0 L276.1,141.7 L276.9,146.0 L277.8,148.4 L278.6,158.5 L279.4,170.2 L280.3,176.3 L281.1,178.4 L282.0,196.5 L282.8,225.0 L283.6,242.1 L284.5,252.2 L285.3,258.7 L286.2,261.4 L287.0,259.6 L287.9,248.6 L288.7,223.8 L289.5,196.2 L290.4,175.4 L291.2,167.4 L292.1,163.4 L292.9,164.7 L293.7,166.2 L294.6,168.3 L295.4,170.2 L296.3,170.8 L297.1,171.1 L298.0,170.5 L298.8,175.1 L299.6,181.8 L300.5,184.0 L301.3,186.7 L302.2,203.6 L303.0,226.2 L303.8,244.0 L304.7,253.8 L305.5,259.3 L306.4,261.4 L307.2,259.0 L308.1,247.9 L308.9,223.1 L309.7,196.5 L310.6,176.6 L311.4,169.0 L312.3,164.4 L313.1,165.6 L313.9,166.8 L314.8,169.3 L315.6,171.1 L316.5,171.4 L317.3,172.3 L318.1,171.4 L319.0,176.3 L319.8,183.0 L320.7,184.6 L321.5,187.6 L322.4,204.5 L323.2,226.2 L324.0,244.0 L324.9,252.8 L325.7,258.0 L326.6,261.1 L327.4,260.8 L328.2,259.6 L329.1,248.9 L329.9,233.9 L330.8,216.4 L331.6,200.8 L332.5,193.8 L333.3,194.7 L334.1,195.0 L335.0,198.0 L335.8,203.6 L336.7,204.8 L337.5,202.3 L338.3,199.6 L339.2,198.7 L340.0,201.1 L340.9,198.0 L341.7,198.3 L342.6,209.7 L343.4,226.2 L344.2,239.4 L345.1,247.0 L345.9,252.2 L346.8,253.8 L347.6,252.2 L348.4,249.2 L349.3,239.4 L350.1,228.3 L351.0,210.0 L351.8,192.8 L352.7,185.5 L353.5,184.6 L354.3,186.4 L355.2,186.7 L356.0,191.0 L356.9,192.8 L357.7,189.8 L358.5,182.1 L359.4,185.5 L360.2,183.3 L361.1,179.1 L361.9,182.7 L362.7,202.6 L363.6,221.9 L364.4,236.0 L365.3,243.7 L366.1,247.0 L367.0,248.2 L367.8,244.9 L368.6,232.3 L369.5,206.6 L370.3,178.4 L371.2,160.1 L372.0,154.3 L372.8,154.6 L373.7,157.6 L374.5,161.0 L375.4,164.7 L376.2,167.7 L377.1,169.0 L377.9,169.6 L378.7,170.2 L379.6,175.4 L380.4,178.4 L381.3,176.9 L382.1,180.3 L382.9,199.3 L383.8,224.1 L384.6,237.8 L385.5,242.4 L386.3,245.2 L387.2,246.4 L388.0,242.7 L388.8,231.1 L389.7,206.6 L390.5,180.0 L391.4,163.4 L392.2,159.8 L393.0,160.1 L393.9,163.8 L394.7,166.5 L395.6,169.3 L396.4,171.4 L397.3,172.9 L398.1,173.9 L398.9,173.9 L399.8,178.8 L400.6,184.6 L401.5,184.3 L402.3,187.3 L403.1,204.5 L404.0,227.4 L404.8,241.8 L405.7,252.2 L406.5,257.4 L407.3,259.6 L408.2,256.2 L409.0,244.0 L409.9,221.0 L410.7,195.3 L411.6,178.1 L412.4,171.4 L413.2,166.8 L414.1,167.4 L414.9,168.6 L415.8,170.8 L416.6,172.6 L417.4,173.9 L418.3,173.9 L419.1,173.9 L420.0,178.8 L420.8,185.2 L421.7,184.3 L422.5,187.9 L423.3,205.7 L424.2,227.7 L425.0,244.3 L425.9,253.5 L426.7,258.4 L427.5,260.5 L428.4,257.7 L429.2,245.2 L430.1,219.2 L430.9,188.5 L431.8,168.6 L432.6,162.5 L433.4,160.7 L434.3,163.8 L435.1,166.8 L436.0,169.9 L436.8,172.6 L437.6,174.2 L438.5,175.1 L439.3,174.8 L440.2,179.4 L441.0,185.5 L441.9,185.5 L442.7,188.5 L443.5,206.0 L444.4,214.0 L445.2,217.9 L446.1,221.9 L446.9,225.9 L447.7,229.9 L448.6,233.9 L449.4,237.8 L450.3,219.5 L451.1,194.7 L451.9,179.1 L452.8,172.9 L453.6,169.3 L454.5,170.2 L455.3,171.1 L456.2,172.6 L457.0,174.2 L457.8,175.1 L458.7,174.5 L459.5,172.9 L460.4,177.5 L461.2,183.7 L462.0,187.3 L462.9,189.8 L463.7,206.9 L464.6,237.5 L465.4,249.8 L466.3,258.0 L467.1,263.9 L467.9,266.6 L468.8,265.7 L469.6,263.9 L470.5,257.7 L471.3,243.4 L472.1,228.0 L473.0,217.6 L473.8,209.1 L474.7,207.8 L475.5,205.7 L476.4,207.5 L477.2,210.6 L478.0,211.2 L478.9,212.7 L479.7,214.3 L480.6,213.0 L481.4,213.7 L482.2,213.3 L483.1,210.6 L483.9,221.6 L484.8,237.2 L485.6,252.8 L486.5,264.5 L487.3,271.2 L488.1,273.7 L489.0,272.4 L489.8,269.4 L490.7,267.2 L491.5,255.9 L492.3,244.3 L493.2,226.8 L494.0,214.0 L494.9,213.7 L495.7,209.4 L496.5,207.5 L497.4,205.1 L498.2,200.5 L499.1,195.6 L499.9,189.5 L500.8,184.9 L501.6,190.7 L502.4,197.7 L503.3,197.1 L504.1,209.4 L505.0,233.6 L505.8,254.4 L506.6,266.3 L507.5,273.4 L508.3,276.1 L509.2,274.9 L510.0,271.5 L510.9,272.7 L511.7,259.6 L512.5,247.3 L513.4,228.3 L514.2,214.6 L515.1,215.5 L515.9,209.4 L516.7,205.7 L517.6,202.0 L518.4,198.3 L519.3,195.9 L520.1,190.4 L521.0,184.9 L521.8,189.5 L522.6,196.2 L523.5,194.7 L524.3,207.5 L525.2,230.2 L526.0,244.0 L526.8,253.5 L527.7,260.5 L528.5,263.6 L529.4,262.9 L530.2,253.8 L531.1,231.4 L531.9,202.0 L532.7,180.3 L533.6,170.8 L534.4,168.0 L535.3,167.1 L536.1,167.7 L536.9,169.3 L537.8,170.2 L538.6,171.1 L539.5,171.4 L540.3,170.8 L541.2,176.6 L542.0,182.7 L542.8,186.1 L543.7,187.3 L544.5,204.5 L545.4,230.2 L546.2,248.2 L547.0,256.2 L547.9,262.0 L548.7,263.9 L549.6,262.3 L550.4,252.2 L551.2,228.3 L552.1,200.5 L552.9,180.3 L553.8,172.6 L554.6,168.3 L555.5,169.0 L556.3,170.5 L557.1,172.6 L558.0,174.5 L558.8,175.7 L559.7,176.3 L560.5,175.1 L561.3,180.0 L562.2,186.4 L563.0,189.2 L563.9,190.7 L564.7,207.2 L565.6,212.1 L566.4,212.1 L567.2,212.1 L568.1,212.1 L568.9,212.1 L569.8,212.1 L570.6,212.1 L571.4,212.1 L572.3,212.1 L573.1,212.1 L574.0,212.1 L574.8,212.1 L575.7,212.1 L576.5,212.1 L577.3,212.1 L578.2,212.1 L579.0,212.1 L579.9,212.1 L580.7,212.1 L581.5,212.1 L582.4,212.1 L583.2,212.1 L584.1,212.1 L584.9,212.1 L585.8,212.1 L586.6,238.1 L587.4,245.5 L588.3,252.5 L589.1,256.5 L590.0,257.1 L590.8,247.3 L591.6,225.6 L592.5,192.8 L593.3,168.0 L594.2,156.7 L595.0,152.7 L595.8,150.0 L596.7,149.1 L597.5,148.7 L598.4,142.0 L599.2,143.5 L600.1,145.7 L600.9,146.9 L601.7,155.5 L602.6,166.8 L603.4,174.2 L604.3,177.2 L605.1,195.3 L605.9,232.9 L606.8,244.0 L607.6,250.7 L608.5,259.0 L609.3,262.3 L610.2,265.1 L611.0,257.7 L611.8,252.5 L612.7,240.9 L613.5,228.0 L614.4,215.8 L615.2,205.1 L616.0,202.9 L616.9,201.4 L617.7,204.8 L618.6,209.1 L619.4,210.6 L620.3,207.5 L621.1,205.1 L621.9,205.4 L622.8,209.7 L623.6,210.0 L624.5,208.1 L625.3,219.2 L626.1,238.8 L627.0,251.9 L627.8,262.3 L628.7,269.7 L629.5,272.1 L630.4,271.2 L631.2,268.8 L632.0,260.2 L632.9,246.4 L633.7,227.4 L634.6,212.1 L635.4,205.4 L636.2,199.9 L637.1,199.9 L637.9,202.3 L638.8,205.1 L639.6,206.0 L640.4,204.2 L641.3,198.7 L642.1,198.7 L643.0,203.9 L643.8,204.5 L644.7,202.6 L645.5,214.3 L646.3,210.3 L647.2,220.7 L648.0,229.0 L648.9,234.5 L649.7,236.6 L650.5,235.1 L651.4,226.5 L652.2,202.6 L653.1,173.9 L653.9,154.0 L654.8,145.1 L655.6,140.2 L656.4,140.5 L657.3,141.7 L658.1,143.5 L659.0,145.1 L659.8,146.0 L660.6,145.4 L661.5,146.6 L662.3,152.7 L663.2,159.8 L664.0,161.6 L664.9,165.0 L665.7,180.6 L666.5,204.8 L667.4,221.0 L668.2,230.5 L669.1,236.0 L669.9,238.5 L670.7,236.3 L671.6,227.1 L672.4,204.8 L673.3,177.2 L674.1,157.3 L675.0,149.1 L675.8,143.9 L676.6,143.9 L677.5,144.8 L678.3,146.3 L679.2,147.5 L680.0,147.8" stroke="#9467bd" stroke-width="2" fill="none" opacity="0.8"/>
<!-- Total Generation -->
<path d="M80.0,195.3 L80.8,204.8 L81.7,202.6 L82.5,179.7 L83.4,153.3 L84.2,214.0 L85.0,224.1 L85.9,252.2 L86.7,237.8 L87.6,217.9 L88.4,235.1 L89.3,229.3 L90.1,225.9 L90.9,218.9 L91.8,186.4 L92.6,182.1 L93.5,173.9 L94.3,190.7 L95.1,142.6 L96.0,186.7 L96.8,112.9 L97.7,181.2 L98.5,206.9 L99.4,207.8 L100.2,206.6 L101.0,229.6 L101.9,238.5 L102.7,249.2 L103.6,202.0 L104.4,233.2 L105.2,203.2 L106.1,208.8 L106.9,180.6 L107.8,188.2 L108.6,165.6 L109.5,178.1 L110.3,158.2 L111.1,161.6 L112.0,145.1 L112.8,134.4 L113.7,132.2 L114.5,132.2 L115.3,143.9 L116.2,161.9 L117.0,155.8 L117.9,154.6 L118.7,191.9 L119.6,180.3 L120.4,194.4 L121.2,205.1 L122.1,194.4 L122.9,190.4 L123.8,217.0 L124.6,214.6 L125.4,200.2 L126.3,197.4 L127.1,154.6 L128.0,158.5 L128.8,146.3 L129.6,145.7 L130.5,155.2 L131.3,178.1 L132.2,192.8 L133.0,210.9 L133.9,206.3 L134.7,213.0 L135.5,218.9 L136.4,189.8 L137.2,169.3 L138.1,163.1 L138.9,173.2 L139.7,219.2 L140.6,217.3 L141.4,209.1 L142.3,191.0 L143.1,167.4 L144.0,168.0 L144.8,177.2 L145.6,192.2 L146.5,186.7 L147.3,189.5 L148.2,223.5 L149.0,225.3 L149.8,230.8 L150.7,191.6 L151.5,190.7 L152.4,207.5 L153.2,209.4 L154.1,220.1 L154.9,203.9 L155.7,210.3 L156.6,191.9 L157.4,151.8 L158.3,176.3 L159.1,163.8 L159.9,162.5 L160.8,196.5 L161.6,187.3 L162.5,198.0 L163.3,236.9 L164.2,255.6 L165.0,255.9 L165.8,265.4 L166.7,249.2 L167.5,233.9 L168.4,249.2 L169.2,239.1 L170.0,262.0 L170.9,252.2 L171.7,237.5 L172.6,228.0 L173.4,226.5 L174.2,223.1 L175.1,213.7 L175.9,214.9 L176.8,223.5 L177.6,221.0 L178.5,232.3 L179.3,236.0 L180.1,202.0 L181.0,191.9 L181.8,233.9 L182.7,250.1 L183.5,231.7 L184.3,253.5 L185.2,224.4 L186.0,230.8 L186.9,237.5 L187.7,250.4 L188.6,252.5 L189.4,257.4 L190.2,205.1 L191.1,233.6 L191.9,243.0 L192.8,246.7 L193.6,242.1 L194.4,242.7 L195.3,234.8 L196.1,245.2 L197.0,227.4 L197.8,237.8 L198.7,194.4 L199.5,190.1 L200.3,187.9 L201.2,188.2 L202.0,191.6 L202.9,212.1 L203.7,191.9 L204.5,202.0 L205.4,201.7 L206.2,212.1 L207.1,212.7 L207.9,217.3 L208.8,217.6 L209.6,180.9 L210.4,206.9 L211.3,213.0 L212.1,210.6 L213.0,207.5 L213.8,212.4 L214.6,234.5 L215.5,224.4 L216.3,215.2 L217.2,188.2 L218.0,210.3 L218.8,229.6 L219.7,192.2 L220.5,165.6 L221.4,210.3 L222.2,237.8 L223.1,256.5 L223.9,253.1 L224.7,245.8 L225.6,229.9 L226.4,217.6 L227.3,207.2 L228.1,189.8 L228.9,198.3 L229.8,190.4 L230.6,188.5 L231.5,174.2 L232.3,169.9 L233.2,170.2 L234.0,188.5 L234.8,183.0 L235.7,140.5 L236.5,142.3 L237.4,145.7 L238.2,124.6 L239.0,67.6 L239.9,69.1 L240.7,81.7 L241.6,78.0 L242.4,121.8 L243.3,155.5 L244.1,133.1 L244.9,138.6 L245.8,153.6 L246.6,126.4 L247.5,136.8 L248.3,133.4 L249.1,119.4 L250.0,131.6 L250.8,121.5 L251.7,138.0 L252.5,167.1 L253.4,180.0 L254.2,180.9 L255.0,185.8 L255.9,112.6 L256.7,82.6 L257.6,89.4 L258.4,90.6 L259.2,98.8 L260.1,85.4 L260.9,90.9 L261.8,120.0 L262.6,150.9 L263.5,179.7 L264.3,266.6 L265.1,267.2 L266.0,268.8 L266.8,263.6 L267.7,255.9 L268.5,255.6 L269.3,233.2 L270.2,224.7 L271.0,192.8 L271.9,201.4 L272.7,216.7 L273.5,187.6 L274.4,210.9 L275.2,177.5 L276.1,163.4 L276.9,198.0 L277.8,232.9 L278.6,210.9 L279.4,175.4 L280.3,168.6 L281.1,199.9 L282.0,167.7 L282.8,181.2 L283.6,182.4 L284.5,157.0 L285.3,167.1 L286.2,163.8 L287.0,183.7 L287.9,180.6 L288.7,177.8 L289.5,176.6 L290.4,184.6 L291.2,195.3 L292.1,191.3 L292.9,166.5 L293.7,183.3 L294.6,174.5 L295.4,146.3 L296.3,175.7 L297.1,175.7 L298.0,140.5 L298.8,137.7 L299.6,145.7 L300.5,157.9 L301.3,180.0 L302.2,164.7 L303.0,162.2 L303.8,160.1 L304.7,152.7 L305.5,150.0 L306.4,149.7 L307.2,184.3 L308.1,155.8 L308.9,141.7 L309.7,137.7 L310.6,150.0 L311.4,127.0 L312.3,124.9 L313.1,123.0 L313.9,144.8 L314.8,157.6 L315.6,138.0 L316.5,134.4 L317.3,164.4 L318.1,176.3 L319.0,173.2 L319.8,185.2 L320.7,197.4 L321.5,202.6 L322.4,222.5 L323.2,223.8 L324.0,228.0 L324.9,219.8 L325.7,241.8 L326.6,249.2 L327.4,252.8 L328.2,242.7 L329.1,241.5 L329.9,231.7 L330.8,223.5 L331.6,223.5 L332.5,225.0 L333.3,224.4 L334.1,235.1 L335.0,235.1 L335.8,240.6 L336.7,248.2 L337.5,222.5 L338.3,218.2 L339.2,193.4 L340.0,196.2 L340.9,222.5 L341.7,219.5 L342.6,236.9 L343.4,229.6 L344.2,207.2 L345.1,218.9 L345.9,223.5 L346.8,223.5 L347.6,235.1 L348.4,244.9 L349.3,217.9 L350.1,236.0 L351.0,226.2 L351.8,223.8 L352.7,214.6 L353.5,169.9 L354.3,173.5 L355.2,156.7 L356.0,169.9 L356.9,198.0 L357.7,202.6 L358.5,200.5 L359.4,153.3 L360.2,194.4 L361.1,222.8 L361.9,224.1 L362.7,226.2 L363.6,243.0 L364.4,230.8 L365.3,237.2 L366.1,235.7 L367.0,241.2 L367.8,232.9 L368.6,239.1 L369.5,233.6 L370.3,216.4 L371.2,218.6 L372.0,228.3 L372.8,208.4 L373.7,219.5 L374.5,221.9 L375.4,229.6 L376.2,241.5 L377.1,245.5 L377.9,201.4 L378.7,213.3 L379.6,215.8 L380.4,192.5 L381.3,218.2 L382.1,219.2 L382.9,212.1 L383.8,178.8 L384.6,208.1 L385.5,209.1 L386.3,210.3 L387.2,189.8 L388.0,186.7 L388.8,195.0 L389.7,174.5 L390.5,203.9 L391.4,174.2 L392.2,197.4 L393.0,184.3 L393.9,173.2 L394.7,172.9 L395.6,177.8 L396.4,184.9 L397.3,205.4 L398.1,195.3 L398.9,164.7 L399.8,165.0 L400.6,139.0 L401.5,156.1 L402.3,207.2 L403.1,195.3 L404.0,169.3 L404.8,182.7 L405.7,185.2 L406.5,172.6 L407.3,176.0 L408.2,188.5 L409.0,181.5 L409.9,182.4 L410.7,180.9 L411.6,167.4 L412.4,142.0 L413.2,149.1 L414.1,199.3 L414.9,175.7 L415.8,181.8 L416.6,169.0 L417.4,182.7 L418.3,199.3 L419.1,169.3 L420.0,161.0 L420.8,170.8 L421.7,177.5 L422.5,180.3 L423.3,180.0 L424.2,185.5 L425.0,176.3 L425.9,206.0 L426.7,191.0 L427.5,184.0 L428.4,188.9 L429.2,177.5 L430.1,177.2 L430.9,192.2 L431.8,170.2 L432.6,184.9 L433.4,217.6 L434.3,195.0 L435.1,199.3 L436.0,201.4 L436.8,196.8 L437.6,179.7 L438.5,197.7 L439.3,181.5 L440.2,172.6 L441.0,165.0 L441.9,174.8 L442.7,196.5 L443.5,192.8 L444.4,187.9 L445.2,200.2 L446.1,216.1 L446.9,210.3 L447.7,204.8 L448.6,203.6 L449.4,204.5 L450.3,195.3 L451.1,192.5 L451.9,229.6 L452.8,227.7 L453.6,234.5 L454.5,234.5 L455.3,236.6 L456.2,233.2 L457.0,236.6 L457.8,238.8 L458.7,250.1 L459.5,222.2 L460.4,205.1 L461.2,182.4 L462.0,185.2 L462.9,180.3 L463.7,184.3 L464.6,198.0 L465.4,198.7 L466.3,215.8 L467.1,199.0 L467.9,205.1 L468.8,208.1 L469.6,203.9 L470.5,197.1 L471.3,200.2 L472.1,231.7 L473.0,211.5 L473.8,191.0 L474.7,218.2 L475.5,200.5 L476.4,203.6 L477.2,219.2 L478.0,223.1 L478.9,212.7 L479.7,213.0 L480.6,220.1 L481.4,249.2 L482.2,260.5 L483.1,266.9 L483.9,270.9 L484.8,276.1 L485.6,280.4 L486.5,276.1 L487.3,266.9 L488.1,256.8 L489.0,257.4 L489.8,242.7 L490.7,220.7 L491.5,212.1 L492.3,207.5 L493.2,175.7 L494.0,203.6 L494.9,165.0 L495.7,180.9 L496.5,200.2 L497.4,200.2 L498.2,189.5 L499.1,187.6 L499.9,202.0 L500.8,218.2 L501.6,238.1 L502.4,205.1 L503.3,211.5 L504.1,226.8 L505.0,229.6 L505.8,234.8 L506.6,258.4 L507.5,256.8 L508.3,257.7 L509.2,259.6 L510.0,235.7 L510.9,225.0 L511.7,204.5 L512.5,220.4 L513.4,197.7 L514.2,196.5 L515.1,196.2 L515.9,213.3 L516.7,195.6 L517.6,181.2 L518.4,178.8 L519.3,179.7 L520.1,174.2 L521.0,204.2 L521.8,204.8 L522.6,183.0 L523.5,231.7 L524.3,233.2 L525.2,231.4 L526.0,240.0 L526.8,237.8 L527.7,237.2 L528.5,237.2 L529.4,233.6 L530.2,231.7 L531.1,225.0 L531.9,221.0 L532.7,202.0 L533.6,202.0 L534.4,197.1 L535.3,203.2 L536.1,181.8 L536.9,169.6 L537.8,137.1 L538.6,115.1 L539.5,136.5 L540.3,143.2 L541.2,114.2 L542.0,140.2 L542.8,139.6 L543.7,145.7 L544.5,158.2 L545.4,170.5 L546.2,182.4 L547.0,209.1 L547.9,206.3 L548.7,231.7 L549.6,199.3 L550.4,171.1 L551.2,171.7 L552.1,170.8 L552.9,187.0 L553.8,176.3 L554.6,184.0 L555.5,191.0 L556.3,192.8 L557.1,165.3 L558.0,167.1 L558.8,186.7 L559.7,176.9 L560.5,172.9 L561.3,165.9 L562.2,177.8 L563.0,162.2 L563.9,171.4 L564.7,156.4 L565.6,161.6 L566.4,169.9 L567.2,170.8 L568.1,172.6 L568.9,187.9 L569.8,211.2 L570.6,233.9 L571.4,182.7 L572.3,179.4 L573.1,185.8 L574.0,184.9 L574.8,186.7 L575.7,172.6 L576.5,166.2 L577.3,167.1 L578.2,144.5 L579.0,158.9 L579.9,142.6 L580.7,149.7 L581.5,169.0 L582.4,175.7 L583.2,146.9 L584.1,160.4 L584.9,206.3 L585.8,157.6 L586.6,184.6 L587.4,215.2 L588.3,189.8 L589.1,219.8 L590.0,222.8 L590.8,239.4 L591.6,231.7 L592.5,208.8 L593.3,218.6 L594.2,223.1 L595.0,221.9 L595.8,224.7 L596.7,224.4 L597.5,247.6 L598.4,219.5 L599.2,224.7 L600.1,211.5 L600.9,223.1 L601.7,186.4 L602.6,204.5 L603.4,184.0 L604.3,198.3 L605.1,206.6 L605.9,203.9 L606.8,187.9 L607.6,179.1 L608.5,195.9 L609.3,199.9 L610.2,215.5 L611.0,234.2 L611.8,228.0 L612.7,240.6 L613.5,253.5 L614.4,250.4 L615.2,246.1 L616.0,242.7 L616.9,224.7 L617.7,220.4 L618.6,223.8 L619.4,224.1 L620.3,220.4 L621.1,215.8 L621.9,187.9 L622.8,183.7 L623.6,175.4 L624.5,163.8 L625.3,195.6 L626.1,195.3 L627.0,195.6 L627.8,187.6 L628.7,191.9 L629.5,186.4 L630.4,187.9 L631.2,185.5 L632.0,180.9 L632.9,205.4 L633.7,203.6 L634.6,201.1 L635.4,201.4 L636.2,198.0 L637.1,173.5 L637.9,179.7 L638.8,178.4 L639.6,180.0 L640.4,187.0 L641.3,148.7 L642.1,149.7 L643.0,157.6 L643.8,169.9 L644.7,176.6 L645.5,164.7 L646.3,184.9 L647.2,189.2 L648.0,188.9 L648.9,189.2 L649.7,187.0 L650.5,198.7 L651.4,212.1 L652.2,195.6 L653.1,168.3 L653.9,153.0 L654.8,145.1 L655.6,122.4 L656.4,118.7 L657.3,121.2 L658.1,120.3 L659.0,107.1 L659.8,134.4 L660.6,116.9 L661.5,127.9 L662.3,136.5 L663.2,119.1 L664.0,127.3 L664.9,183.3 L665.7,185.2 L666.5,187.3 L667.4,185.8 L668.2,205.4 L669.1,214.6 L669.9,219.8 L670.7,208.1 L671.6,189.8 L672.4,185.8 L673.3,196.5 L674.1,198.7 L675.0,206.9 L675.8,186.7 L676.6,174.2 L677.5,176.0 L678.3,176.0 L679.2,171.4 L680.0,183.7" stroke="#8c564b" stroke-width="2" fill="none" opacity="0.8"/>
<!-- Forecast Difference -->
<path d="M80.0,420.0 L80.8,420.0 L81.7,420.0 L82.5,420.0 L83.4,420.0 L84.2,420.0 L85.0,420.0 L85.9,420.0 L86.7,420.0 L87.6,420.0 L88.4,420.0 L89.3,420.0 L90.1,420.0 L90.9,420.0 L91.8,420.0 L92.6,420.0 L93.5,420.0 L94.3,420.0 L95.1,420.0 L96.0,420.0 L96.8,420.0 L97.7,420.0 L98.5,420.0 L99.4,420.0 L100.2,420.0 L101.0,420.0 L101.9,420.0 L102.7,420.0 L103.6,420.0 L104.4,420.0 L105.2,420.0 L106.1,420.0 L106.9,420.0 L107.8,420.0 L108.6,420.0 L109.5,420.0 L110.3,420.0 L111.1,420.0 L112.0,420.0 L112.8,420.0 L113.7,420.0 L114.5,420.0 L115.3,420.0 L116.2,420.0 L117.0,420.0 L117.9,420.0 L118.7,420.0 L119.6,420.0 L120.4,420.0 L121.2,420.0 L122.1,420.0 L122.9,420.0 L123.8,420.0 L124.6,420.0 L125.4,420.0 L126.3,420.0 L127.1,420.0 L128.0,420.0 L128.8,420.0 L129.6,420.0 L130.5,420.0 L131.3,420.0 L132.2,420.0 L133.0,420.0 L133.9,420.0 L134.7,420.0 L135.5,420.0 L136.4,420.0 L137.2,420.0 L138.1,420.0 L138.9,420.0 L139.7,420.0 L140.6,420.0 L141.4,420.0 L142.3,420.0 L143.1,420.0 L144.0,420.0 L144.8,420.0 L145.6,420.0 L146.5,420.0 L147.3,420.0 L148.2,420.0 L149.0,420.0 L149.8,420.0 L150.7,420.0 L151.5,420.0 L152.4,420.0 L153.2,420.0 L154.1,420.0 L154.9,420.0 L155.7,420.0 L156.6,420.0 L157.4,420.0 L158.3,420.0 L159.1,420.0 L159.9,420.0 L160.8,420.0 L161.6,420.0 L162.5,420.0 L163.3,420.0 L164.2,420.0 L165.0,420.0 L165.8,420.0 L166.7,420.0 L167.5,420.0 L168.4,420.0 L169.2,420.0 L170.0,420.0 L170.9,420.0 L171.7,420.0 L172.6,420.0 L173.4,420.0 L174.2,420.0 L175.1,420.0 L175.9,420.0 L176.8,420.0 L177.6,420.0 L178.5,420.0 L179.3,420.0 L180.1,420.0 L181.0,420.0 L181.8,420.0 L182.7,420.0 L183.5,420.0 L184.3,420.0 L185.2,420.0 L186.0,420.0 L186.9,420.0 L187.7,420.0 L188.6,420.0 L189.4,420.0 L190.2,420.0 L191.1,420.0 L191.9,420.0 L192.8,420.0 L193.6,420.0 L194.4,420.0 L195.3,420.0 L196.1,420.0 L197.0,420.0 L197.8,420.0 L198.7,420.0 L199.5,420.0 L200.3,420.0 L201.2,420.0 L202.0,420.0 L202.9,420.0 L203.7,420.0 L204.5,420.0 L205.4,420.0 L206.2,420.0 L207.1,420.0 L207.9,420.0 L208.8,420.0 L209.6,420.0 L210.4,420.0 L211.3,420.0 L212.1,420.0 L213.0,420.0 L213.8,420.0 L214.6,420.0 L215.5,420.0 L216.3,420.0 L217.2,420.0 L218.0,420.0 L218.8,420.0 L219.7,420.0 L220.5,420.0 L221.4,420.0 L222.2,420.0 L223.1,420.0 L223.9,420.0 L224.7,420.0 L225.6,420.0 L226.4,420.0 L227.3,420.0 L228.1,420.0 L228.9,420.0 L229.8,420.0 L230.6,420.0 L231.5,420.0 L232.3,420.0 L233.2,420.0 L234.0,420.0 L234.8,420.0 L235.7,420.0 L236.5,420.0 L237.4,420.0 L238.2,420.0 L239.0,420.0 L239.9,420.0 L240.7,420.0 L241.6,420.0 L242.4,420.0 L243.3,420.0 L244.1,420.0 L244.9,420.0 L245.8,420.0 L246.6,420.0 L247.5,420.0 L248.3,420.0 L249.1,420.0 L250.0,420.0 L250.8,420.0 L251.7,420.0 L252.5,420.0 L253.4,420.0 L254.2,420.0 L255.0,420.0 L255.9,420.0 L256.7,420.0 L257.6,420.0 L258.4,420.0 L259.2,420.0 L260.1,420.0 L260.9,420.0 L261.8,420.0 L262.6,420.0 L263.5,420.0 L264.3,420.0 L265.1,420.0 L266.0,420.0 L266.8,420.0 L267.7,420.0 L268.5,420.0 L269.3,420.0 L270.2,420.0 L271.0,420.0 L271.9,420.0 L272.7,420.0 L273.5,420.0 L274.4,420.0 L275.2,420.0 L276.1,420.0 L276.9,420.0 L277.8,420.0 L278.6,420.0 L279.4,420.0 L280.3,420.0 L281.1,420.0 L282.0,420.0 L282.8,420.0 L283.6,420.0 L284.5,420.0 L285.3,420.0 L286.2,420.0 L287.0,420.0 L287.9,420.0 L288.7,420.0 L289.5,420.0 L290.4,420.0 L291.2,420.0 L292.1,420.0 L292.9,420.0 L293.7,420.0 L294.6,420.0 L295.4,420.0 L296.3,420.0 L297.1,420.0 L298.0,420.0 L298.8,420.0 L299.6,420.0 L300.5,420.0 L301.3,420.0 L302.2,420.0 L303.0,420.0 L303.8,420.0 L304.7,420.0 L305.5,420.0 L306.4,420.0 L307.2,420.0 L308.1,420.0 L308.9,420.0 L309.7,420.0 L310.6,420.0 L311.4,420.0 L312.3,420.0 L313.1,420.0 L313.9,420.0 L314.8,420.0 L315.6,420.0 L316.5,420.0 L317.3,420.0 L318.1,420.0 L319.0,420.0 L319.8,420.0 L320.7,420.0 L321.5,420.0 L322.4,420.0 L323.2,420.0 L324.0,420.0 L324.9,420.0 L325.7,420.0 L326.6,420.0 L327.4,420.0 L328.2,420.0 L329.1,420.0 L329.9,420.0 L330.8,420.0 L331.6,420.0 L332.5,420.0 L333.3,420.0 L334.1,420.0 L335.0,420.0 L335.8,420.0 L336.7,420.0 L337.5,420.0 L338.3,420.0 L339.2,420.0 L340.0,420.0 L340.9,420.0 L341.7,420.0 L342.6,420.0 L343.4,420.0 L344.2,420.0 L345.1,420.0 L345.9,420.0 L346.8,420.0 L347.6,420.0 L348.4,420.0 L349.3,420.0 L350.1,420.0 L351.0,420.0 L351.8,420.0 L352.7,420.0 L353.5,420.0 L354.3,420.0 L355.2,420.0 L356.0,420.0 L356.9,420.0 L357.7,420.0 L358.5,420.0 L359.4,420.0 L360.2,420.0 L361.1,420.0 L361.9,420.0 L362.7,420.0 L363.6,420.0 L364.4,420.0 L365.3,420.0 L366.1,420.0 L367.0,420.0 L367.8,420.0 L368.6,420.0 L369.5,420.0 L370.3,420.0 L371.2,420.0 L372.0,420.0 L372.8,420.0 L373.7,420.0 L374.5,420.0 L375.4,420.0 L376.2,420.0 L377.1,420.0 L377.9,420.0 L378.7,420.0 L379.6,420.0 L380.4,420.0 L381.3,420.0 L382.1,420.0 L382.9,420.0 L383.8,420.0 L384.6,420.0 L385.5,420.0 L386.3,420.0 L387.2,420.0 L388.0,420.0 L388.8,420.0 L389.7,420.0 L390.5,420.0 L391.4,420.0 L392.2,420.0 L393.0,420.0 L393.9,420.0 L394.7,420.0 L395.6,420.0 L396.4,420.0 L397.3,420.0 L398.1,420.0 L398.9,420.0 L399.8,420.0 L400.6,420.0 L401.5,420.0 L402.3,420.0 L403.1,420.0 L404.0,420.0 L404.8,420.0 L405.7,420.0 L406.5,420.0 L407.3,420.0 L408.2,420.0 L409.0,420.0 L409.9,420.0 L410.7,420.0 L411.6,420.0 L412.4,420.0 L413.2,420.0 L414.1,420.0 L414.9,420.0 L415.8,420.0 L416.6,420.0 L417.4,420.0 L418.3,420.0 L419.1,420.0 L420.0,420.0 L420.8,420.0 L421.7,420.0 L422.5,420.0 L423.3,420.0 L424.2,420.0 L425.0,420.0 L425.9,420.0 L426.7,420.0 L427.5,420.0 L428.4,420.0 L429.2,420.0 L430.1,420.0 L430.9,420.0 L431.8,420.0 L432.6,420.0 L433.4,420.0 L434.3,420.0 L435.1,420.0 L436.0,420.0 L436.8,420.0 L437.6,420.0 L438.5,420.0 L439.3,420.0 L440.2,420.0 L441.0,420.0 L441.9,420.0 L442.7,420.0 L443.5,420.0 L444.4,420.0 L445.2,420.0 L446.1,420.0 L446.9,420.0 L447.7,420.0 L448.6,420.0 L449.4,420.0 L450.3,420.0 L451.1,420.0 L451.9,420.0 L452.8,420.0 L453.6,420.0 L454.5,420.0 L455.3,420.0 L456.2,420.0 L457.0,420.0 L457.8,420.0 L458.7,420.0 L459.5,420.0 L460.4,420.0 L461.2,420.0 L462.0,420.0 L462.9,420.0 L463.7,420.0 L464.6,420.0 L465.4,420.0 L466.3,420.0 L467.1,420.0 L467.9,420.0 L468.8,420.0 L469.6,420.0 L470.5,420.0 L471.3,420.0 L472.1,420.0 L473.0,420.0 L473.8,420.0 L474.7,420.0 L475.5,420.0 L476.4,420.0 L477.2,420.0 L478.0,420.0 L478.9,420.0 L479.7,420.0 L480.6,420.0 L481.4,420.0 L482.2,420.0 L483.1,420.0 L483.9,420.0 L484.8,420.0 L485.6,420.0 L486.5,420.0 L487.3,420.0 L488.1,420.0 L489.0,420.0 L489.8,420.0 L490.7,420.0 L491.5,420.0 L492.3,420.0 L493.2,420.0 L494.0,420.0 L494.9,420.0 L495.7,420.0 L496.5,420.0 L497.4,420.0 L498.2,420.0 L499.1,420.0 L499.9,420.0 L500.8,420.0 L501.6,420.0 L502.4,420.0 L503.3,420.0 L504.1,420.0 L505.0,420.0 L505.8,420.0 L506.6,420.0 L507.5,420.0 L508.3,420.0 L509.2,420.0 L510.0,420.0 L510.9,420.0 L511.7,420.0 L512.5,420.0 L513.4,420.0 L514.2,420.0 L515.1,420.0 L515.9,420.0 L516.7,420.0 L517.6,420.0 L518.4,420.0 L519.3,420.0 L520.1,420.0 L521.0,420.0 L521.8,420.0 L522.6,420.0 L523.5,420.0 L524.3,420.0 L525.2,420.0 L526.0,420.0 L526.8,420.0 L527.7,420.0 L528.5,420.0 L529.4,420.0 L530.2,420.0 L531.1,420.0 L531.9,420.0 L532.7,420.0 L533.6,420.0 L534.4,420.0 L535.3,420.0 L536.1,420.0 L536.9,420.0 L537.8,420.0 L538.6,420.0 L539.5,420.0 L540.3,420.0 L541.2,420.0 L542.0,420.0 L542.8,420.0 L543.7,420.0 L544.5,420.0 L545.4,420.0 L546.2,420.0 L547.0,420.0 L547.9,420.0 L548.7,420.0 L549.6,420.0 L550.4,420.0 L551.2,420.0 L552.1,420.0 L552.9,420.0 L553.8,420.0 L554.6,420.0 L555.5,420.0 L556.3,420.0 L557.1,420.0 L558.0,420.0 L558.8,420.0 L559.7,420.0 L560.5,420.0 L561.3,420.0 L562.2,420.0 L563.0,420.0 L563.9,420.0 L564.7,420.0 L565.6,420.0 L566.4,420.0 L567.2,420.0 L568.1,420.0 L568.9,420.0 L569.8,420.0 L570.6,420.0 L571.4,420.0 L572.3,420.0 L573.1,420.0 L574.0,420.0 L574.8,420.0 L575.7,420.0 L576.5,420.0 L577.3,420.0 L578.2,420.0 L579.0,420.0 L579.9,420.0 L580.7,420.0 L581.5,420.0 L582.4,420.0 L583.2,420.0 L584.1,420.0 L584.9,420.0 L585.8,420.0 L586.6,420.0 L587.4,420.0 L588.3,420.0 L589.1,420.0 L590.0,420.0 L590.8,420.0 L591.6,420.0 L592.5,420.0 L593.3,420.0 L594.2,420.0 L595.0,420.0 L595.8,420.0 L596.7,420.0 L597.5,420.0 L598.4,420.0 L599.2,420.0 L600.1,420.0 L600.9,420.0 L601.7,420.0 L602.6,420.0 L603.4,420.0 L604.3,420.0 L605.1,420.0 L605.9,420.0 L606.8,420.0 L607.6,420.0 L608.5,420.0 L609.3,420.0 L610.2,420.0 L611.0,420.0 L611.8,420.0 L612.7,420.0 L613.5,420.0 L614.4,420.0 L615.2,420.0 L616.0,420.0 L616.9,420.0 L617.7,420.0 L618.6,420.0 L619.4,420.0 L620.3,420.0 L621.1,420.0 L621.9,420.0 L622.8,420.0 L623.6,420.0 L624.5,420.0 L625.3,420.0 L626.1,420.0 L627.0,420.0 L627.8,420.0 L628.7,420.0 L629.5,420.0 L630.4,420.0 L631.2,420.0 L632.0,420.0 L632.9,420.0 L633.7,420.0 L634.6,420.0 L635.4,420.0 L636.2,420.0 L637.1,420.0 L637.9,420.0 L638.8,420.0 L639.6,420.0 L640.4,420.0 L641.3,420.0 L642.1,420.0 L643.0,420.0 L643.8,420.0 L644.7,420.0 L645.5,420.0 L646.3,420.0 L647.2,420.0 L648.0,420.0 L648.9,420.0 L649.7,420.0 L650.5,420.0 L651.4,420.0 L652.2,420.0 L653.1,420.0 L653.9,420.0 L654.8,420.0 L655.6,420.0 L656.4,420.0 L657.3,420.0 L658.1,420.0 L659.0,420.0 L659.8,420.0 L660.6,420.0 L661.5,420.0 L662.3,420.0 L663.2,420.0 L664.0,420.0 L664.9,420.0 L665.7,420.0 L666.5,420.0 L667.4,420.0 L668.2,420.0 L669.1,420.0 L669.9,420.0 L670.7,420.0 L671.6,420.0 L672.4,420.0 L673.3,420.0 L674.1,420.0 L675.0,420.0 L675.8,420.0 L676.6,420.0 L677.5,420.0 L678.3,420.0 L679.2,420.0 L680.0,420.0" stroke="#e377c2" stroke-width="2" fill="none" opacity="0.8"/>

<!-- Legend -->
<line x1="690" y1="70" x2="705" y2="70" stroke="#1f77b4" stroke-width="3"/>
<text x="710" y="74" class="legend">Wind Generation</text>
<line x1="690" y1="88" x2="705" y2="88" stroke="#ff7f0e" stroke-width="3"/>
<text x="710" y="92" class="legend">Hydro Generation</text>
<line x1="690" y1="106" x2="705" y2="106" stroke="#2ca02c" stroke-width="3"/>
<text x="710" y="110" class="legend">Thermal Generation</text>
<line x1="690" y1="124" x2="705" y2="124" stroke="#d62728" stroke-width="3"/>
<text x="710" y="128" class="legend">Solar Generation</text>
<line x1="690" y1="142" x2="705" y2="142" stroke="#9467bd" stroke-width="3"/>
<text x="710" y="146" class="legend">Forecast</text>
<line x1="690" y1="160" x2="705" y2="160" stroke="#8c564b" stroke-width="3"/>
<text x="710" y="164" class="legend">Total Generation</text>
<line x1="690" y1="178" x2="705" y2="178" stroke="#e377c2" stroke-width="3"/>
<text x="710" y="182" class="legend">Forecast Difference</text>

<!-- Date range -->
<text x="80" y="495" class="legend">Range: 05/03 - 06/02/2026 (714 records)</text>
</svg>