<?xml version="1.0" encoding="UTF-8"?>
<svg width="800" height="500" xmlns="http://www.w3.org/2000/svg">
<style>
.axis-line { stroke: #333; stroke-width: 1; }
.grid-line { stroke: #ddd; stroke-width: 0.5; }
.title { font: 16px Arial; text-anchor: middle; fill: #333; }
.axis-label { font: 12px Arial; text-anchor: middle; fill: #666; }
.legend { font: 10px Arial; fill: #333; }
</style>

<!-- Title -->
<text x="400.0" y="25" class="title">Northwestern Energy Generation Data - Past 30 Days</text>

<!-- Plot area background -->
<rect x="80" y="50" width="600" height="370" fill="white" stroke="#ddd"/>

<!-- Y-axis -->
<line x1="80" y1="50" x2="80" y2="420" class="axis-line"/>
<text x="30" y="235.0" class="axis-label" transform="rotate(-90, 30, 235.0)">Generation (MW)</text>

<!-- X-axis -->
<line x1="80" y1="420" x2="680" y2="420" class="axis-line"/>
<text x="380.0" y="480" class="axis-label">Time</text>
<line x1="80" y1="420.0" x2="680" y2="420.0" class="grid-line"/>
<text x="70" y="425.0" class="legend" text-anchor="end">0</text>
<line x1="80" y1="327.5" x2="680" y2="327.5" class="grid-line"/>
<text x="70" y="332.5" class="legend" text-anchor="end">303</text>
<line x1="80" y1="235.0" x2="680" y2="235.0" class="grid-line"/>
<text x="70" y="240.0" class="legend" text-anchor="end">606</text>
<line x1="80" y1="142.5" x2="680" y2="142.5" class="grid-line"/>
<text x="70" y="147.5" class="legend" text-anchor="end">910</text>
<line x1="80" y1="50.0" x2="680" y2="50.0" class="grid-line"/>
<text x="70" y="55.0" class="legend" text-anchor="end">1213</text>
<!-- Wind Generation -->
<path d="M80.0,411.8 L82.1,410.5 L84.3,416.3 L86.4,398.9 L88.6,403.8 L90.7,397.7 L126.0,416.3 L128.2,413.0 L130.3,409.9 L132.5,405.1 L134.6,401.1 L136.8,369.0 L138.9,373.6 L141.1,372.1 L143.2,381.9 L145.4,403.2 L147.5,406.0 L149.7,407.5 L151.8,417.6 L153.9,409.9 L156.1,403.2 L158.2,398.9 L160.4,400.5 L162.5,413.9 L164.7,419.4 L166.8,420.0 L169.0,418.2 L171.1,416.3 L173.3,417.6 L175.4,415.1 L177.6,407.8 L179.7,412.4 L181.9,377.3 L184.0,394.7 L186.2,410.5 L188.3,378.2 L190.5,406.6 L192.6,385.2 L194.8,389.8 L196.9,386.4 L199.1,399.9 L201.2,412.1 L203.4,393.8 L205.5,383.4 L207.7,381.9 L209.8,387.1 L212.0,408.4 L214.1,415.4 L216.3,416.6 L218.4,412.4 L220.6,409.9 L222.7,411.8 L224.9,413.3 L227.0,414.8 L229.1,411.5 L231.3,407.5 L233.4,398.0 L235.6,390.7 L237.7,382.5 L239.9,370.0 L242.0,373.3 L244.2,378.2 L246.3,378.5 L248.5,384.9 L250.6,393.2 L252.8,393.2 L254.9,373.9 L257.1,390.4 L259.2,402.3 L261.4,403.2 L263.5,399.6 L265.7,400.8 L267.8,404.4 L270.0,401.4 L272.1,406.0 L274.3,410.2 L276.4,408.4 L278.6,407.8 L280.7,408.1 L282.9,402.9 L285.0,394.4 L287.2,391.3 L289.3,381.9 L291.5,373.3 L293.6,379.4 L295.8,373.6 L297.9,374.2 L300.1,372.7 L302.2,391.0 L304.4,408.4 L306.5,414.2 L308.6,417.9 L310.8,420.0 L312.9,420.0 L315.1,420.0 L317.2,420.0 L319.4,419.7 L321.5,416.3 L323.7,415.1 L325.8,415.4 L328.0,415.1 L330.1,415.4 L332.3,414.8 L334.4,409.9 L336.6,401.1 L338.7,387.1 L340.9,378.5 L343.0,351.7 L345.2,345.9 L347.3,352.3 L349.5,342.5 L351.6,351.0 L353.8,381.6 L355.9,384.9 L358.1,394.7 L360.2,410.2 L362.4,416.0 L364.5,417.9 L366.7,420.0 L368.8,420.0 L371.0,420.0 L373.1,415.7 L375.3,409.9 L377.4,412.4 L379.6,413.0 L381.7,414.5 L383.8,416.9 L386.0,414.5 L388.1,413.0 L390.3,401.7 L392.4,387.1 L394.6,375.8 L396.7,355.6 L398.9,362.9 L401.0,386.1 L403.2,408.1 L405.3,416.3 L407.5,418.8 L409.6,420.0 L411.8,420.0 L413.9,419.7 L416.1,419.7 L418.2,420.0 L420.4,420.0 L422.5,420.0 L424.7,416.0 L426.8,412.7 L429.0,415.1 L431.1,417.9 L433.3,416.0 L435.4,416.0 L437.6,412.1 L439.7,405.1 L441.9,390.7 L444.0,372.1 L446.2,354.4 L448.3,349.5 L450.5,353.8 L452.6,373.0 L454.4,390.7 L456.5,405.1 L458.7,411.8 L460.8,418.2 L463.0,419.7 L465.1,420.0 L467.3,419.7 L469.4,418.8 L471.6,419.1 L473.7,415.7 L475.9,407.8 L478.0,399.9 L480.2,400.8 L482.3,398.9 L484.5,404.7 L486.6,406.9 L488.8,403.5 L490.9,392.2 L493.1,373.9 L495.2,368.4 L497.4,327.3 L499.5,324.2 L501.7,320.2 L503.8,335.5 L506.0,351.0 L508.1,364.8 L510.3,380.6 L512.4,393.2 L514.6,398.0 L516.7,404.1 L518.9,402.9 L521.0,401.1 L523.2,406.9 L525.3,405.1 L527.4,399.3 L529.6,388.0 L531.7,374.2 L533.9,379.1 L536.0,393.5 L538.2,394.1 L540.3,381.6 L542.5,388.0 L544.6,393.8 L546.8,394.1 L548.9,401.7 L551.1,402.3 L553.2,406.6 L555.4,405.4 L557.5,414.2 L559.7,408.7 L561.8,414.5 L564.0,404.4 L566.1,404.1 L568.3,402.0 L570.4,398.0 L572.6,402.3 L574.7,407.5 L576.9,415.7 L579.0,417.3 L581.2,416.9 L583.3,418.5 L585.5,420.0 L587.6,417.6 L589.8,397.7 L591.9,392.5 L594.1,373.6 L596.2,374.8 L598.4,390.1 L600.5,410.2 L602.6,410.5 L604.8,411.5 L606.9,412.1 L609.1,405.4 L611.2,397.4 L613.4,391.6 L615.5,396.5 L617.7,403.2 L619.8,404.1 L622.0,406.6 L624.1,408.7 L626.3,413.6 L628.4,410.8 L630.6,411.5 L632.7,403.8 L634.9,398.9 L637.0,399.6 L639.2,395.0 L641.3,352.3 L643.5,369.4 L645.6,382.2 L647.8,373.6 L649.9,388.6 L652.1,395.3 L654.2,409.6 L656.4,409.9 L658.5,412.1 L660.7,409.3 L662.8,411.2 L665.0,409.3 L667.1,393.2 L669.3,394.1 L671.4,392.5 L673.6,395.0 L675.7,398.0 L677.9,410.5 L680.0,410.2" stroke="#1f77b4" stroke-width="2" fill="none" opacity="0.8"/>
<!-- Hydro Generation -->
<path d="M80.0,352.6 L82.1,353.5 L84.3,353.2 L86.4,353.8 L88.6,353.8 L90.7,353.5 L126.0,352.9 L128.2,353.5 L130.3,353.2 L132.5,353.2 L134.6,353.5 L136.8,353.5 L138.9,352.6 L141.1,353.2 L143.2,352.6 L145.4,352.6 L147.5,352.6 L149.7,352.3 L151.8,352.9 L153.9,352.6 L156.1,352.6 L158.2,352.9 L160.4,352.3 L162.5,352.6 L164.7,352.6 L166.8,352.3 L169.0,352.6 L171.1,352.9 L173.3,353.5 L175.4,353.5 L177.6,352.9 L179.7,353.5 L181.9,353.2 L184.0,353.2 L186.2,353.2 L188.3,353.2 L190.5,353.2 L192.6,353.2 L194.8,353.5 L196.9,353.5 L199.1,353.2 L201.2,353.2 L203.4,353.2 L205.5,352.9 L207.7,353.5 L209.8,353.2 L212.0,353.2 L214.1,352.6 L216.3,353.2 L218.4,353.5 L220.6,353.5 L222.7,353.8 L224.9,353.8 L227.0,354.1 L229.1,354.7 L231.3,354.4 L233.4,354.4 L235.6,354.1 L237.7,354.1 L239.9,355.3 L242.0,355.0 L244.2,355.3 L246.3,355.3 L248.5,355.3 L250.6,355.6 L252.8,355.3 L254.9,355.9 L257.1,355.6 L259.2,355.3 L261.4,356.2 L263.5,356.2 L265.7,355.6 L267.8,355.9 L270.0,356.8 L272.1,356.8 L274.3,356.8 L276.4,354.1 L278.6,357.2 L280.7,356.8 L282.9,356.8 L285.0,357.5 L287.2,351.7 L289.3,358.1 L291.5,359.0 L293.6,359.0 L295.8,358.7 L297.9,359.0 L300.1,358.7 L302.2,359.0 L304.4,358.7 L306.5,359.0 L308.6,359.0 L310.8,359.0 L312.9,359.3 L315.1,359.6 L317.2,359.6 L319.4,361.1 L321.5,361.1 L323.7,360.8 L325.8,361.4 L328.0,360.5 L330.1,360.5 L332.3,360.8 L334.4,361.1 L336.6,359.3 L338.7,359.6 L340.9,359.6 L343.0,358.7 L345.2,359.0 L347.3,359.0 L349.5,358.1 L351.6,357.8 L353.8,358.1 L355.9,357.8 L358.1,357.8 L360.2,357.5 L362.4,357.5 L364.5,357.8 L366.7,357.8 L368.8,357.5 L371.0,358.1 L373.1,358.4 L375.3,358.1 L377.4,358.7 L379.6,358.1 L381.7,358.4 L383.8,358.1 L386.0,358.7 L388.1,358.4 L390.3,358.4 L392.4,358.7 L394.6,357.2 L396.7,357.2 L398.9,356.5 L401.0,356.2 L403.2,356.2 L405.3,356.2 L407.5,356.5 L409.6,356.2 L411.8,356.2 L413.9,356.2 L416.1,356.2 L418.2,356.8 L420.4,359.3 L422.5,358.4 L424.7,359.0 L426.8,358.7 L429.0,359.3 L431.1,359.0 L433.3,359.0 L435.4,359.3 L437.6,359.9 L439.7,359.6 L441.9,359.6 L444.0,359.3 L446.2,359.0 L448.3,358.1 L450.5,357.8 L452.6,358.1 L454.4,357.8 L456.5,358.4 L458.7,358.1 L460.8,357.8 L463.0,356.8 L465.1,357.2 L467.3,356.5 L469.4,356.2 L471.6,356.2 L473.7,356.5 L475.9,356.5 L478.0,356.2 L480.2,355.9 L482.3,356.2 L484.5,356.5 L486.6,355.9 L488.8,356.2 L490.9,356.2 L493.1,356.5 L495.2,356.5 L497.4,356.8 L499.5,356.5 L501.7,356.5 L503.8,356.2 L506.0,356.8 L508.1,356.2 L510.3,356.5 L512.4,356.2 L514.6,356.2 L516.7,356.8 L518.9,356.5 L521.0,356.8 L523.2,356.2 L525.3,357.2 L527.4,355.9 L529.6,356.8 L531.7,356.2 L533.9,356.8 L536.0,356.5 L538.2,356.2 L540.3,356.5 L542.5,356.8 L544.6,356.5 L546.8,356.5 L548.9,356.5 L551.1,357.2 L553.2,356.5 L555.4,356.8 L557.5,356.8 L559.7,356.5 L561.8,357.2 L564.0,356.5 L566.1,357.2 L568.3,356.8 L570.4,357.2 L572.6,357.5 L574.7,357.5 L576.9,357.2 L579.0,356.8 L581.2,356.2 L583.3,356.5 L585.5,356.8 L587.6,356.8 L589.8,356.5 L591.9,356.5 L594.1,354.7 L596.2,355.0 L598.4,354.4 L600.5,354.1 L602.6,354.1 L604.8,353.8 L606.9,353.5 L609.1,353.5 L611.2,353.5 L613.4,352.9 L615.5,352.9 L617.7,352.9 L619.8,352.6 L622.0,352.3 L624.1,352.6 L626.3,352.9 L628.4,352.9 L630.6,352.6 L632.7,352.6 L634.9,353.2 L637.0,353.5 L639.2,353.5 L641.3,353.2 L643.5,353.5 L645.6,353.5 L647.8,353.2 L649.9,353.5 L652.1,353.5 L654.2,353.8 L656.4,353.8 L658.5,354.1 L660.7,354.7 L662.8,354.7 L665.0,354.4 L667.1,354.7 L669.3,354.4 L671.4,354.4 L673.6,354.7 L675.7,355.0 L677.9,356.5 L680.0,355.9" stroke="#ff7f0e" stroke-width="2" fill="none" opacity="0.8"/>
<!-- Thermal Generation -->
<path d="M80.0,314.7 L82.1,315.0 L84.3,313.8 L86.4,316.3 L88.6,328.8 L90.7,338.8 L126.0,332.4 L128.2,333.0 L130.3,338.8 L132.5,328.8 L134.6,329.1 L136.8,328.5 L138.9,326.3 L141.1,324.8 L143.2,321.5 L145.4,317.2 L147.5,321.2 L149.7,320.5 L151.8,319.9 L153.9,319.0 L156.1,320.5 L158.2,321.5 L160.4,337.9 L162.5,338.2 L164.7,338.2 L166.8,339.5 L169.0,340.7 L171.1,341.6 L173.3,326.6 L175.4,327.9 L177.6,327.9 L179.7,328.2 L181.9,328.5 L184.0,328.5 L186.2,327.9 L188.3,326.9 L190.5,326.3 L192.6,325.1 L194.8,321.8 L196.9,322.1 L199.1,321.2 L201.2,320.5 L203.4,320.2 L205.5,322.4 L207.7,320.5 L209.8,320.8 L212.0,321.8 L214.1,322.4 L216.3,320.5 L218.4,323.3 L220.6,322.7 L222.7,323.6 L224.9,323.9 L227.0,324.5 L229.1,324.2 L231.3,323.9 L233.4,324.2 L235.6,324.5 L237.7,323.0 L239.9,323.0 L242.0,323.3 L244.2,325.7 L246.3,322.1 L248.5,321.2 L250.6,321.5 L252.8,320.5 L254.9,320.5 L257.1,320.8 L259.2,323.6 L261.4,319.9 L263.5,320.8 L265.7,337.9 L267.8,339.5 L270.0,333.0 L272.1,322.1 L274.3,323.3 L276.4,323.0 L278.6,323.6 L280.7,323.9 L282.9,327.3 L285.0,326.3 L287.2,323.3 L289.3,323.3 L291.5,322.4 L293.6,322.4 L295.8,321.8 L297.9,321.8 L300.1,321.8 L302.2,320.5 L304.4,319.6 L306.5,319.3 L308.6,319.6 L310.8,322.1 L312.9,319.3 L315.1,330.6 L317.2,328.2 L319.4,331.2 L321.5,338.8 L323.7,322.4 L325.8,323.3 L328.0,323.6 L330.1,324.2 L332.3,323.6 L334.4,323.3 L336.6,309.9 L338.7,308.9 L340.9,311.1 L343.0,307.1 L345.2,307.4 L347.3,308.3 L349.5,307.4 L351.6,306.5 L353.8,305.6 L355.9,305.9 L358.1,305.0 L360.2,304.4 L362.4,304.1 L364.5,304.7 L366.7,307.7 L368.8,336.7 L371.0,338.2 L373.1,338.8 L375.3,338.5 L377.4,341.0 L379.6,313.5 L381.7,308.3 L383.8,306.8 L386.0,310.5 L388.1,308.9 L390.3,304.4 L392.4,303.8 L394.6,300.4 L396.7,298.3 L398.9,311.4 L401.0,304.7 L403.2,306.5 L405.3,296.7 L407.5,319.6 L409.6,323.0 L411.8,322.4 L413.9,295.8 L416.1,298.6 L418.2,298.6 L420.4,323.3 L422.5,309.9 L424.7,311.1 L426.8,312.6 L429.0,313.2 L431.1,309.3 L433.3,307.7 L435.4,307.4 L437.6,306.5 L439.7,307.1 L441.9,307.1 L444.0,305.3 L446.2,305.0 L448.3,301.6 L450.5,303.8 L452.6,298.3 L454.4,297.4 L456.5,305.9 L458.7,296.1 L460.8,297.4 L463.0,299.8 L465.1,300.7 L467.3,297.4 L469.4,297.7 L471.6,300.7 L473.7,301.0 L475.9,307.7 L478.0,321.2 L480.2,307.4 L482.3,320.2 L484.5,313.8 L486.6,313.2 L488.8,311.4 L490.9,312.6 L493.1,310.8 L495.2,311.4 L497.4,308.6 L499.5,306.2 L501.7,305.3 L503.8,301.9 L506.0,340.7 L508.1,340.1 L510.3,328.2 L512.4,327.6 L514.6,326.9 L516.7,326.6 L518.9,312.3 L521.0,327.3 L523.2,332.4 L525.3,327.6 L527.4,327.9 L529.6,328.5 L531.7,331.8 L533.9,326.9 L536.0,325.4 L538.2,305.0 L540.3,305.6 L542.5,305.9 L544.6,311.1 L546.8,308.0 L548.9,312.6 L551.1,305.9 L553.2,304.7 L555.4,303.5 L557.5,303.5 L559.7,329.1 L561.8,323.3 L564.0,324.2 L566.1,340.7 L568.3,340.4 L570.4,329.1 L572.6,327.3 L574.7,327.6 L576.9,331.2 L579.0,331.5 L581.2,326.9 L583.3,325.7 L585.5,326.0 L587.6,329.1 L589.8,319.9 L591.9,319.6 L594.1,316.3 L596.2,313.8 L598.4,313.5 L600.5,312.3 L602.6,310.8 L604.8,310.8 L606.9,310.8 L609.1,308.3 L611.2,306.2 L613.4,336.4 L615.5,335.2 L617.7,334.9 L619.8,334.3 L622.0,325.7 L624.1,325.1 L626.3,328.2 L628.4,328.2 L630.6,330.0 L632.7,335.2 L634.9,335.8 L637.0,345.6 L639.2,345.9 L641.3,345.3 L643.5,345.3 L645.6,343.7 L647.8,327.3 L649.9,324.2 L652.1,321.2 L654.2,322.4 L656.4,321.8 L658.5,321.5 L660.7,326.9 L662.8,338.2 L665.0,338.5 L667.1,337.6 L669.3,338.2 L671.4,338.8 L673.6,339.2 L675.7,339.5 L677.9,337.9 L680.0,337.9" stroke="#2ca02c" stroke-width="2" fill="none" opacity="0.8"/>
<!-- Solar Generation -->
<path d="M80.0,392.2 L82.1,411.2 L84.3,420.0 L86.4,420.0 L88.6,420.0 L90.7,420.0 L126.0,393.5 L128.2,382.2 L130.3,384.6 L132.5,399.3 L134.6,418.2 L136.8,420.0 L138.9,420.0 L141.1,420.0 L143.2,420.0 L145.4,420.0 L147.5,420.0 L149.7,420.0 L151.8,420.0 L153.9,420.0 L156.1,420.0 L158.2,418.2 L160.4,404.4 L162.5,380.3 L164.7,378.2 L166.8,387.4 L169.0,379.7 L171.1,384.6 L173.3,388.3 L175.4,398.3 L177.6,401.1 L179.7,400.5 L181.9,408.1 L184.0,415.7 L186.2,418.2 L188.3,420.0 L190.5,420.0 L192.6,420.0 L194.8,420.0 L196.9,420.0 L199.1,420.0 L201.2,420.0 L203.4,420.0 L205.5,420.0 L207.7,420.0 L209.8,418.2 L212.0,406.0 L214.1,387.7 L216.3,378.2 L218.4,380.9 L220.6,378.8 L222.7,380.0 L224.9,377.3 L227.0,377.0 L229.1,377.0 L231.3,377.3 L233.4,389.8 L235.6,402.9 L237.7,418.5 L239.9,420.0 L242.0,420.0 L244.2,420.0 L246.3,420.0 L248.5,420.0 L250.6,420.0 L252.8,420.0 L254.9,420.0 L257.1,420.0 L259.2,420.0 L261.4,419.4 L263.5,409.0 L265.7,393.8 L267.8,385.5 L270.0,379.7 L272.1,384.6 L274.3,377.3 L276.4,383.1 L278.6,375.5 L280.7,375.8 L282.9,376.7 L285.0,380.6 L287.2,400.2 L289.3,418.5 L291.5,420.0 L293.6,420.0 L295.8,420.0 L297.9,420.0 L300.1,420.0 L302.2,420.0 L304.4,420.0 L306.5,420.0 L308.6,420.0 L310.8,420.0 L312.9,418.5 L315.1,397.1 L317.2,379.4 L319.4,376.1 L321.5,375.8 L323.7,375.8 L325.8,376.1 L328.0,375.5 L330.1,376.4 L332.3,377.3 L334.4,376.7 L336.6,386.1 L338.7,408.1 L340.9,418.5 L343.0,420.0 L345.2,420.0 L347.3,420.0 L349.5,420.0 L351.6,420.0 L353.8,420.0 L355.9,420.0 L358.1,420.0 L360.2,420.0 L362.4,420.0 L364.5,419.1 L366.7,399.6 L368.8,378.8 L371.0,376.4 L373.1,375.5 L375.3,375.8 L377.4,380.0 L379.6,377.6 L381.7,380.0 L383.8,379.4 L386.0,382.2 L388.1,385.2 L390.3,401.7 L392.4,419.1 L394.6,420.0 L396.7,420.0 L398.9,420.0 L401.0,420.0 L403.2,420.0 L405.3,420.0 L407.5,420.0 L409.6,420.0 L411.8,420.0 L413.9,420.0 L416.1,418.5 L418.2,402.0 L420.4,381.3 L422.5,377.9 L424.7,378.2 L426.8,376.1 L429.0,379.7 L431.1,376.4 L433.3,387.4 L435.4,382.2 L437.6,392.8 L439.7,398.0 L441.9,410.2 L444.0,419.4 L446.2,420.0 L448.3,420.0 L450.5,420.0 L452.6,420.0 L454.4,420.0 L456.5,420.0 L458.7,420.0 L460.8,420.0 L463.0,420.0 L465.1,420.0 L467.3,419.7 L469.4,412.7 L471.6,398.3 L473.7,406.3 L475.9,394.4 L478.0,395.3 L480.2,390.1 L482.3,393.8 L484.5,382.8 L486.6,379.4 L488.8,391.6 L490.9,413.0 L493.1,412.4 L495.2,419.7 L497.4,420.0 L499.5,420.0 L501.7,420.0 L503.8,420.0 L506.0,420.0 L508.1,420.0 L510.3,420.0 L512.4,420.0 L514.6,420.0 L516.7,420.0 L518.9,419.7 L521.0,416.0 L523.2,415.1 L525.3,414.2 L527.4,412.7 L529.6,409.3 L531.7,406.3 L533.9,411.2 L536.0,404.1 L538.2,400.5 L540.3,407.5 L542.5,411.8 L544.6,418.5 L546.8,420.0 L548.9,420.0 L551.1,420.0 L553.2,420.0 L555.4,420.0 L557.5,420.0 L559.7,420.0 L561.8,420.0 L564.0,420.0 L566.1,420.0 L568.3,420.0 L570.4,420.0 L572.6,417.9 L574.7,412.4 L576.9,411.5 L579.0,404.4 L581.2,402.3 L583.3,398.0 L585.5,397.1 L587.6,399.9 L589.8,402.3 L591.9,406.6 L594.1,403.2 L596.2,415.7 L598.4,419.4 L600.5,420.0 L602.6,420.0 L604.8,420.0 L606.9,420.0 L609.1,420.0 L611.2,420.0 L613.4,420.0 L615.5,420.0 L617.7,420.0 L619.8,420.0 L622.0,420.0 L624.1,413.6 L626.3,400.8 L628.4,393.2 L630.6,388.3 L632.7,385.2 L634.9,379.1 L637.0,395.0 L639.2,389.5 L641.3,399.9 L643.5,406.3 L645.6,381.9 L647.8,410.2 L649.9,419.1 L652.1,420.0 L654.2,420.0 L656.4,420.0 L658.5,420.0 L660.7,420.0 L662.8,420.0 L665.0,420.0 L667.1,420.0 L669.3,420.0 L671.4,420.0 L673.6,420.0 L675.7,412.4 L677.9,383.7 L680.0,377.6" stroke="#d62728" stroke-width="2" fill="none" opacity="0.8"/>
<!-- Forecast -->
<path d="M80.0,100.6 L82.1,112.8 L84.3,125.3 L86.4,135.0 L88.6,152.4 L90.7,178.7 L126.0,74.9 L128.2,67.6 L130.3,72.2 L132.5,82.6 L134.6,97.8 L136.8,111.6 L138.9,122.5 L141.1,151.2 L143.2,187.8 L145.4,207.7 L147.5,219.2 L149.7,230.2 L151.8,234.8 L153.9,234.2 L156.1,227.5 L158.2,207.4 L160.4,180.5 L162.5,154.9 L164.7,136.6 L166.8,123.1 L169.0,109.7 L171.1,100.9 L173.3,92.6 L175.4,86.2 L177.6,78.6 L179.7,78.6 L181.9,83.2 L184.0,93.9 L186.2,107.3 L188.3,122.5 L190.5,140.2 L192.6,158.2 L194.8,235.7 L196.9,213.8 L199.1,244.6 L201.2,244.9 L203.4,242.4 L205.5,240.0 L207.7,239.1 L209.8,240.9 L212.0,207.4 L214.1,199.7 L216.3,187.8 L218.4,177.5 L220.6,147.2 L222.7,144.2 L224.9,145.1 L227.0,146.0 L229.1,149.1 L231.3,162.2 L233.4,173.2 L235.6,173.8 L237.7,173.8 L239.9,236.6 L242.0,240.3 L244.2,409.9 L246.3,223.2 L248.5,224.7 L250.6,237.3 L252.8,245.8 L254.9,248.8 L257.1,246.7 L259.2,236.3 L261.4,216.2 L263.5,192.4 L265.7,170.1 L267.8,159.8 L270.0,154.9 L272.1,148.8 L274.3,146.3 L276.4,140.2 L278.6,132.6 L280.7,123.1 L282.9,115.8 L285.0,121.6 L287.2,131.7 L289.3,181.1 L291.5,186.3 L293.6,192.7 L295.8,193.6 L297.9,218.6 L300.1,235.4 L302.2,238.8 L304.4,240.0 L306.5,241.5 L308.6,243.4 L310.8,245.8 L312.9,247.9 L315.1,242.1 L317.2,230.5 L319.4,216.2 L321.5,207.4 L323.7,204.9 L325.8,204.0 L328.0,202.8 L330.1,202.8 L332.3,202.2 L334.4,172.9 L336.6,169.5 L338.7,167.1 L340.9,170.7 L343.0,182.0 L345.2,184.2 L347.3,209.8 L349.5,219.2 L351.6,225.4 L353.8,218.0 L355.9,226.0 L358.1,233.9 L360.2,240.0 L362.4,251.0 L364.5,247.6 L366.7,235.4 L368.8,219.2 L371.0,203.1 L373.1,192.1 L375.3,184.5 L377.4,197.0 L379.6,194.8 L381.7,193.9 L383.8,163.4 L386.0,161.9 L388.1,159.5 L390.3,157.9 L392.4,170.4 L394.6,175.6 L396.7,177.5 L398.9,205.8 L401.0,228.7 L403.2,225.0 L405.3,236.0 L407.5,244.3 L409.6,248.2 L411.8,247.6 L413.9,237.6 L416.1,217.1 L418.2,192.7 L420.4,169.2 L422.5,156.7 L424.7,149.7 L426.8,141.8 L429.0,138.4 L431.1,129.9 L433.3,119.8 L435.4,142.1 L437.6,141.5 L439.7,139.3 L441.9,137.2 L444.0,144.2 L446.2,154.9 L448.3,120.7 L450.5,132.0 L452.6,194.8 L454.4,220.8 L456.5,235.4 L458.7,244.3 L460.8,249.5 L463.0,248.8 L465.1,240.0 L467.3,220.8 L469.4,196.1 L471.6,171.7 L473.7,156.1 L475.9,147.2 L478.0,138.7 L480.2,131.1 L482.3,121.9 L484.5,112.2 L486.6,100.9 L488.8,92.0 L490.9,94.8 L493.1,104.5 L495.2,118.6 L497.4,133.2 L499.5,142.1 L501.7,162.5 L503.8,170.7 L506.0,208.3 L508.1,228.1 L510.3,237.6 L512.4,243.4 L514.6,242.7 L516.7,234.8 L518.9,217.4 L521.0,194.8 L523.2,170.7 L525.3,156.1 L527.4,149.4 L529.6,142.7 L531.7,139.0 L533.9,132.9 L536.0,124.7 L538.2,118.0 L540.3,115.2 L542.5,119.8 L544.6,121.3 L546.8,127.4 L548.9,144.5 L551.1,150.3 L553.2,166.8 L555.4,198.8 L557.5,215.6 L559.7,226.9 L561.8,235.4 L564.0,240.3 L566.1,238.8 L568.3,230.5 L570.4,215.3 L572.6,193.3 L574.7,171.0 L576.9,159.1 L579.0,155.5 L581.2,151.2 L583.3,147.9 L585.5,146.6 L587.6,144.2 L589.8,139.9 L591.9,137.8 L594.1,142.1 L596.2,149.7 L598.4,157.6 L600.5,162.8 L602.6,163.7 L604.8,177.8 L606.9,205.5 L609.1,223.2 L611.2,234.2 L613.4,241.5 L615.5,244.9 L617.7,244.0 L619.8,234.2 L622.0,218.0 L624.1,195.1 L626.3,172.9 L628.4,161.9 L630.6,158.8 L632.7,154.9 L634.9,151.5 L637.0,151.2 L639.2,148.8 L641.3,143.9 L643.5,140.8 L645.6,144.8 L647.8,152.4 L649.9,160.1 L652.1,167.4 L654.2,167.4 L656.4,182.0 L658.5,209.5 L660.7,223.8 L662.8,234.2 L665.0,243.0 L667.1,247.9 L669.3,249.5 L671.4,247.0 L673.6,241.5 L675.7,228.4 L677.9,210.7 L680.0,206.7" stroke="#9467bd" stroke-width="2" fill="none" opacity="0.8"/>
<!-- Total Generation -->
<path d="M80.0,211.3 L82.1,230.2 L84.3,243.4 L86.4,229.0 L88.6,246.4 L90.7,250.1 L126.0,235.1 L128.2,221.7 L130.3,226.6 L132.5,226.3 L134.6,241.8 L136.8,211.0 L138.9,212.5 L141.1,210.4 L143.2,216.2 L145.4,233.3 L147.5,240.0 L149.7,240.6 L151.8,250.7 L153.9,241.8 L156.1,236.6 L158.2,231.5 L160.4,235.1 L162.5,225.0 L164.7,228.4 L166.8,239.4 L169.0,231.1 L171.1,235.4 L173.3,226.0 L175.4,234.8 L177.6,229.6 L179.7,234.5 L181.9,207.0 L184.0,232.1 L186.2,249.8 L188.3,218.3 L190.5,246.1 L192.6,223.5 L194.8,225.0 L196.9,222.0 L199.1,234.2 L201.2,245.8 L203.4,227.2 L205.5,218.6 L207.7,215.9 L209.8,219.2 L212.0,229.3 L214.1,218.0 L216.3,208.6 L218.4,210.1 L220.6,204.9 L222.7,209.2 L224.9,208.3 L227.0,210.4 L229.1,207.4 L231.3,203.1 L233.4,206.4 L235.6,212.2 L237.7,218.0 L239.9,208.3 L242.0,211.6 L244.2,219.2 L246.3,215.9 L248.5,221.4 L250.6,230.2 L252.8,229.0 L254.9,210.4 L257.1,226.9 L259.2,241.2 L261.4,238.8 L263.5,225.7 L265.7,228.1 L267.8,225.4 L270.0,211.0 L272.1,209.5 L274.3,207.7 L276.4,208.6 L278.6,204.0 L280.7,204.6 L282.9,203.7 L285.0,198.8 L287.2,206.4 L289.3,221.7 L291.5,214.7 L293.6,220.8 L295.8,214.1 L297.9,215.0 L300.1,213.1 L302.2,230.5 L304.4,246.7 L306.5,252.5 L308.6,256.8 L310.8,261.0 L312.9,257.4 L315.1,247.9 L317.2,227.8 L319.4,228.1 L321.5,232.1 L323.7,214.1 L325.8,216.2 L328.0,214.7 L330.1,216.5 L332.3,216.5 L334.4,211.0 L336.6,196.4 L338.7,203.7 L340.9,207.7 L343.0,177.5 L345.2,172.3 L347.3,179.6 L349.5,168.0 L351.6,175.3 L353.8,205.2 L355.9,208.6 L358.1,217.4 L360.2,232.1 L362.4,237.6 L364.5,239.4 L366.7,225.4 L368.8,233.6 L371.0,233.6 L373.1,228.4 L375.3,222.3 L377.4,232.1 L379.6,202.2 L381.7,201.2 L383.8,201.2 L386.0,205.8 L388.1,205.5 L390.3,206.1 L392.4,208.6 L394.6,193.3 L396.7,171.0 L398.9,190.9 L401.0,207.0 L403.2,230.8 L405.3,229.3 L407.5,254.9 L409.6,259.8 L411.8,259.2 L413.9,231.8 L416.1,233.0 L418.2,217.4 L420.4,224.1 L422.5,206.7 L424.7,204.3 L426.8,200.0 L429.0,207.4 L431.1,202.5 L433.3,210.1 L435.4,204.9 L437.6,211.3 L439.7,209.8 L441.9,207.7 L444.0,196.1 L446.2,178.7 L448.3,169.5 L450.5,175.6 L452.6,189.7 L454.4,206.1 L456.5,229.3 L458.7,226.0 L460.8,233.3 L463.0,236.3 L465.1,237.9 L467.3,233.3 L469.4,225.4 L471.6,214.4 L473.7,219.6 L475.9,206.4 L478.0,212.5 L480.2,194.2 L482.3,209.2 L484.5,197.9 L486.6,195.5 L488.8,202.8 L490.9,214.1 L493.1,193.6 L495.2,196.1 L497.4,153.0 L499.5,147.2 L501.7,142.4 L503.8,154.0 L506.0,208.9 L508.1,221.1 L510.3,225.4 L512.4,236.9 L514.6,241.2 L516.7,247.6 L518.9,231.5 L521.0,241.2 L523.2,250.7 L525.3,244.0 L527.4,235.7 L529.6,222.6 L531.7,208.6 L533.9,214.1 L536.0,219.6 L538.2,195.8 L540.3,191.2 L542.5,202.5 L544.6,219.9 L546.8,218.6 L548.9,231.1 L551.1,225.7 L553.2,228.1 L555.4,226.0 L557.5,234.8 L559.7,254.6 L561.8,255.3 L564.0,245.5 L566.1,262.0 L568.3,259.2 L570.4,244.3 L572.6,244.9 L574.7,244.9 L576.9,255.6 L579.0,250.1 L581.2,242.4 L583.3,238.8 L585.5,240.0 L587.6,243.4 L589.8,216.5 L591.9,215.3 L594.1,187.8 L596.2,199.4 L598.4,217.4 L600.5,236.6 L602.6,235.4 L604.8,236.0 L606.9,236.3 L609.1,227.2 L611.2,217.1 L613.4,241.2 L615.5,244.6 L617.7,251.0 L619.8,251.0 L622.0,244.6 L624.1,240.0 L626.3,235.4 L628.4,225.0 L630.6,222.3 L632.7,216.8 L634.9,207.0 L637.0,233.6 L639.2,223.8 L641.3,190.6 L643.5,214.4 L645.6,201.2 L647.8,204.3 L649.9,225.4 L652.1,230.2 L654.2,246.1 L656.4,245.8 L658.5,247.9 L660.7,251.3 L662.8,264.4 L665.0,262.6 L667.1,245.8 L669.3,247.0 L671.4,246.1 L673.6,248.8 L675.7,244.9 L677.9,228.7 L680.0,221.7" stroke="#8c564b" stroke-width="2" fill="none" opacity="0.8"/>
<!-- Forecast Difference -->
<path d="M82.1,420.0 L84.3,420.0 L86.4,420.0 L88.6,420.0 L90.7,420.0 L128.2,420.0 L130.3,420.0 L132.5,420.0 L134.6,420.0 L136.8,420.0 L138.9,420.0 L141.1,420.0 L143.2,420.0 L145.4,420.0 L147.5,420.0 L149.7,420.0 L151.8,420.0 L153.9,420.0 L156.1,420.0 L158.2,420.0 L160.4,420.0 L162.5,420.0 L164.7,420.0 L166.8,420.0 L169.0,420.0 L171.1,420.0 L173.3,420.0 L175.4,420.0 L177.6,420.0 L179.7,420.0 L181.9,420.0 L184.0,420.0 L186.2,420.0 L188.3,420.0 L190.5,420.0 L192.6,420.0 L194.8,420.0 L196.9,420.0 L199.1,420.0 L201.2,420.0 L203.4,420.0 L205.5,420.0 L207.7,420.0 L209.8,420.0 L212.0,420.0 L214.1,420.0 L216.3,420.0 L218.4,420.0 L220.6,420.0 L222.7,420.0 L224.9,420.0 L227.0,420.0 L229.1,420.0 L231.3,420.0 L233.4,420.0 L235.6,420.0 L237.7,420.0 L239.9,420.0 L242.0,420.0 L244.2,420.0 L246.3,420.0 L248.5,420.0 L250.6,420.0 L252.8,420.0 L254.9,420.0 L257.1,420.0 L259.2,420.0 L261.4,420.0 L263.5,420.0 L265.7,420.0 L267.8,420.0 L270.0,420.0 L272.1,420.0 L274.3,420.0 L276.4,420.0 L278.6,420.0 L280.7,420.0 L282.9,420.0 L285.0,420.0 L287.2,420.0 L289.3,420.0 L291.5,420.0 L293.6,420.0 L295.8,420.0 L297.9,420.0 L300.1,420.0 L302.2,420.0 L304.4,420.0 L306.5,420.0 L308.6,420.0 L310.8,420.0 L312.9,420.0 L315.1,420.0 L317.2,420.0 L319.4,420.0 L321.5,420.0 L323.7,420.0 L325.8,420.0 L328.0,420.0 L330.1,420.0 L332.3,420.0 L334.4,420.0 L336.6,420.0 L338.7,420.0 L340.9,420.0 L343.0,420.0 L345.2,420.0 L347.3,420.0 L349.5,420.0 L351.6,420.0 L353.8,420.0 L355.9,420.0 L358.1,420.0 L360.2,420.0 L362.4,420.0 L364.5,420.0 L366.7,420.0 L368.8,420.0 L371.0,420.0 L373.1,420.0 L375.3,420.0 L377.4,420.0 L379.6,420.0 L381.7,420.0 L383.8,420.0 L386.0,420.0 L388.1,420.0 L390.3,420.0 L392.4,420.0 L394.6,420.0 L396.7,420.0 L398.9,420.0 L401.0,420.0 L403.2,420.0 L405.3,420.0 L407.5,420.0 L409.6,420.0 L411.8,420.0 L413.9,420.0 L416.1,420.0 L418.2,420.0 L420.4,420.0 L422.5,420.0 L424.7,420.0 L426.8,420.0 L429.0,420.0 L431.1,420.0 L433.3,420.0 L435.4,420.0 L437.6,420.0 L439.7,420.0 L441.9,420.0 L444.0,420.0 L446.2,420.0 L448.3,420.0 L450.5,420.0 L452.6,420.0 L454.4,420.0 L456.5,420.0 L458.7,420.0 L460.8,420.0 L463.0,420.0 L465.1,420.0 L467.3,420.0 L469.4,420.0 L471.6,420.0 L473.7,420.0 L475.9,420.0 L478.0,420.0 L480.2,420.0 L482.3,420.0 L484.5,420.0 L486.6,420.0 L488.8,420.0 L490.9,420.0 L493.1,420.0 L495.2,420.0 L497.4,420.0 L499.5,420.0 L501.7,420.0 L503.8,420.0 L506.0,420.0 L508.1,420.0 L510.3,420.0 L512.4,420.0 L514.6,420.0 L516.7,420.0 L518.9,420.0 L521.0,420.0 L523.2,420.0 L525.3,420.0 L527.4,420.0 L529.6,420.0 L531.7,420.0 L533.9,420.0 L536.0,420.0 L538.2,420.0 L540.3,420.0 L542.5,420.0 L544.6,420.0 L546.8,420.0 L548.9,420.0 L551.1,420.0 L553.2,420.0 L555.4,420.0 L557.5,420.0 L559.7,420.0 L561.8,420.0 L564.0,420.0 L566.1,420.0 L568.3,420.0 L570.4,420.0 L572.6,420.0 L574.7,420.0 L576.9,420.0 L579.0,420.0 L581.2,420.0 L583.3,420.0 L585.5,420.0 L587.6,420.0 L589.8,420.0 L591.9,420.0 L594.1,420.0 L596.2,420.0 L598.4,420.0 L600.5,420.0 L602.6,420.0 L604.8,420.0 L606.9,420.0 L609.1,420.0 L611.2,420.0 L613.4,420.0 L615.5,420.0 L617.7,420.0 L619.8,420.0 L622.0,420.0 L624.1,420.0 L626.3,420.0 L628.4,420.0 L630.6,420.0 L632.7,420.0 L634.9,420.0 L637.0,420.0 L639.2,420.0 L641.3,420.0 L643.5,420.0 L645.6,420.0 L647.8,420.0 L649.9,420.0 L652.1,420.0 L654.2,420.0 L656.4,420.0 L658.5,420.0 L660.7,420.0 L662.8,420.0 L665.0,420.0 L667.1,420.0 L669.3,420.0 L671.4,420.0 L673.6,420.0 L675.7,420.0 L677.9,420.0 L680.0,420.0" stroke="#e377c2" stroke-width="2" fill="none" opacity="0.8"/>

<!-- Legend -->
<line x1="690" y1="70" x2="705" y2="70" stroke="#1f77b4" stroke-width="3"/>
<text x="710" y="74" class="legend">Wind Generation</text>
<line x1="690" y1="88" x2="705" y2="88" stroke="#ff7f0e" stroke-width="3"/>
<text x="710" y="92" class="legend">Hydro Generation</text>
<line x1="690" y1="106" x2="705" y2="106" stroke="#2ca02c" stroke-width="3"/>
<text x="710" y="110" class="legend">Thermal Generation</text>
<line x1="690" y1="124" x2="705" y2="124" stroke="#d62728" stroke-width="3"/>
<text x="710" y="128" class="legend">Solar Generation</text>
<line x1="690" y1="142" x2="705" y2="142" stroke="#9467bd" stroke-width="3"/>
<text x="710" y="146" class="legend">Forecast</text>
<line x1="690" y1="160" x2="705" y2="160" stroke="#8c564b" stroke-width="3"/>
<text x="710" y="164" class="legend">Total Generation</text>
<line x1="690" y1="178" x2="705" y2="178" stroke="#e377c2" stroke-width="3"/>
<text x="710" y="182" class="legend">Forecast Difference</text>

<!-- Date range -->
<text x="80" y="495" class="legend">Range: 08/18 - 08/30/2025 (265 records)</text>
</svg>