<?xml version="1.0" encoding="UTF-8"?>
<svg width="800" height="500" xmlns="http://www.w3.org/2000/svg">
<style>
.axis-line { stroke: #333; stroke-width: 1; }
.grid-line { stroke: #ddd; stroke-width: 0.5; }
.title { font: 16px Arial; text-anchor: middle; fill: #333; }
.axis-label { font: 12px Arial; text-anchor: middle; fill: #666; }
.legend { font: 10px Arial; fill: #333; }
</style>

<!-- Title -->
<text x="400.0" y="25" class="title">Northwestern Energy Generation Data - Past 30 Days</text>

<!-- Plot area background -->
<rect x="80" y="50" width="600" height="370" fill="white" stroke="#ddd"/>

<!-- Y-axis -->
<line x1="80" y1="50" x2="80" y2="420" class="axis-line"/>
<text x="30" y="235.0" class="axis-label" transform="rotate(-90, 30, 235.0)">Generation (MW)</text>

<!-- X-axis -->
<line x1="80" y1="420" x2="680" y2="420" class="axis-line"/>
<text x="380.0" y="480" class="axis-label">Time</text>
<line x1="80" y1="420.0" x2="680" y2="420.0" class="grid-line"/>
<text x="70" y="425.0" class="legend" text-anchor="end">0</text>
<line x1="80" y1="327.5" x2="680" y2="327.5" class="grid-line"/>
<text x="70" y="332.5" class="legend" text-anchor="end">302</text>
<line x1="80" y1="235.0" x2="680" y2="235.0" class="grid-line"/>
<text x="70" y="240.0" class="legend" text-anchor="end">605</text>
<line x1="80" y1="142.5" x2="680" y2="142.5" class="grid-line"/>
<text x="70" y="147.5" class="legend" text-anchor="end">907</text>
<line x1="80" y1="50.0" x2="680" y2="50.0" class="grid-line"/>
<text x="70" y="55.0" class="legend" text-anchor="end">1210</text>
<!-- Wind Generation -->
<path d="M80.0,406.8 L80.8,410.5 L81.7,411.1 L82.5,417.6 L83.4,420.0 L84.2,420.0 L85.0,420.0 L85.9,420.0 L86.7,418.2 L87.6,419.1 L88.4,418.5 L89.3,418.8 L90.1,419.4 L90.9,420.0 L91.8,420.0 L92.6,416.9 L93.5,415.1 L94.3,410.8 L95.1,406.2 L96.0,400.7 L96.8,387.0 L97.7,394.9 L98.5,392.5 L99.4,383.0 L100.2,365.9 L101.0,375.6 L101.9,388.5 L102.7,386.4 L103.6,403.5 L104.4,413.6 L105.2,419.1 L106.1,417.6 L106.9,416.6 L107.8,414.8 L108.6,414.2 L109.5,419.7 L110.3,413.0 L111.1,414.8 L112.0,414.5 L112.8,414.2 L113.7,404.1 L114.5,408.7 L115.3,391.9 L116.2,342.0 L117.0,327.6 L117.9,346.3 L118.7,356.4 L119.6,318.8 L120.4,303.8 L121.2,312.0 L122.1,325.2 L122.9,332.2 L123.8,333.4 L124.6,338.3 L125.4,320.9 L126.3,324.3 L127.1,328.2 L128.0,327.3 L128.8,331.3 L129.6,333.7 L130.5,331.9 L131.3,354.8 L132.2,365.2 L133.0,376.9 L133.9,398.0 L134.7,402.9 L135.5,397.7 L136.4,400.4 L137.2,403.2 L138.1,406.2 L138.9,401.6 L139.7,381.2 L140.6,364.3 L141.4,371.4 L142.3,386.7 L143.1,363.1 L144.0,352.4 L144.8,360.7 L145.6,352.4 L146.5,347.2 L147.3,342.3 L148.2,335.9 L149.0,350.9 L149.8,353.9 L150.7,354.8 L151.5,362.5 L152.4,366.2 L153.2,354.2 L154.1,345.1 L154.9,367.4 L155.7,361.3 L156.6,363.4 L157.4,362.8 L158.3,371.7 L159.1,358.5 L159.9,364.3 L160.8,380.5 L161.6,389.1 L162.5,394.3 L163.3,401.3 L164.2,405.3 L165.0,407.2 L165.8,407.2 L166.7,409.9 L167.5,410.5 L168.4,401.3 L169.2,402.9 L170.0,404.7 L170.9,406.5 L171.7,413.0 L172.6,411.7 L173.4,405.0 L174.2,406.8 L175.1,407.8 L175.9,403.2 L176.8,401.6 L177.6,398.3 L178.5,389.7 L179.3,382.1 L180.1,362.2 L181.0,345.4 L181.8,331.0 L182.7,338.3 L183.5,341.4 L184.3,356.1 L185.2,376.9 L186.0,387.9 L186.9,392.5 L187.7,399.2 L188.6,397.4 L189.4,400.4 L190.2,403.2 L191.1,406.8 L191.9,415.1 L192.8,415.1 L193.6,415.1 L194.4,413.6 L195.3,409.6 L196.1,398.9 L197.0,391.2 L197.8,386.4 L198.7,382.7 L199.5,394.0 L200.3,390.6 L201.2,390.6 L202.0,398.0 L202.9,412.7 L203.7,415.4 L204.5,413.0 L205.4,398.6 L206.2,391.6 L207.1,375.0 L207.9,360.0 L208.8,364.3 L209.6,356.1 L210.4,359.4 L211.3,346.9 L212.1,326.7 L213.0,353.0 L213.8,336.8 L214.6,353.9 L215.5,350.0 L216.3,352.7 L217.2,360.7 L218.0,358.8 L218.8,363.7 L219.7,354.8 L220.5,320.9 L221.4,327.6 L222.2,334.7 L223.1,336.5 L223.9,363.7 L224.7,363.4 L225.6,357.3 L226.4,363.1 L227.3,362.2 L228.1,346.0 L228.9,362.5 L229.8,368.3 L230.6,368.0 L231.5,357.0 L232.3,351.8 L233.2,339.2 L234.0,353.0 L234.8,351.8 L235.7,348.4 L236.5,354.5 L237.4,369.5 L238.2,376.3 L239.0,381.2 L239.9,374.7 L240.7,383.9 L241.6,370.8 L242.4,358.2 L243.3,356.7 L244.1,366.2 L244.9,387.0 L245.8,398.9 L246.6,414.8 L247.5,410.5 L248.3,406.8 L249.1,407.5 L250.0,383.6 L250.8,367.1 L251.7,377.2 L252.5,394.0 L253.4,408.7 L254.2,410.8 L255.0,415.7 L255.9,414.5 L256.7,413.9 L257.6,408.7 L258.4,410.2 L259.2,412.4 L260.1,403.2 L260.9,390.9 L261.8,373.5 L262.6,352.7 L263.5,356.4 L264.3,355.8 L265.1,364.0 L266.0,390.3 L266.8,409.9 L267.7,417.2 L268.5,420.0 L269.3,420.0 L270.2,420.0 L271.0,419.4 L271.9,417.9 L272.7,417.9 L273.5,417.6 L274.4,416.0 L275.2,409.0 L276.1,409.3 L276.9,413.3 L277.8,412.7 L278.6,411.4 L279.4,406.8 L280.3,403.2 L281.1,392.5 L282.0,389.4 L282.8,390.0 L283.6,399.2 L284.5,409.0 L285.3,418.2 L286.2,409.0 L287.0,413.6 L287.9,415.7 L288.7,411.1 L289.5,409.3 L290.4,410.5 L291.2,409.0 L292.1,409.6 L292.9,414.5 L293.7,416.9 L294.6,413.0 L295.4,402.9 L296.3,393.1 L297.1,391.6 L298.0,370.8 L298.8,351.2 L299.6,353.9 L300.5,350.3 L301.3,372.6 L302.2,372.0 L303.0,351.5 L303.8,322.7 L304.7,312.9 L305.5,325.2 L306.4,347.2 L307.2,342.3 L308.1,347.5 L308.9,330.4 L309.7,336.5 L310.6,350.6 L311.4,354.5 L312.3,362.5 L313.1,359.7 L313.9,389.1 L314.8,394.6 L315.6,395.2 L316.5,403.8 L317.3,401.3 L318.1,398.9 L319.0,406.5 L319.8,401.0 L320.7,417.2 L321.5,403.8 L322.4,400.1 L323.2,405.0 L324.0,396.1 L324.9,407.5 L325.7,411.1 L326.6,418.5 L327.4,419.4 L328.2,419.1 L329.1,412.7 L329.9,383.9 L330.8,387.0 L331.6,337.1 L332.5,342.0 L333.3,355.8 L334.1,330.4 L335.0,332.8 L335.8,324.3 L336.7,330.1 L337.5,351.8 L338.3,331.6 L339.2,359.1 L340.0,356.7 L340.9,350.3 L341.7,310.2 L342.6,325.5 L343.4,321.8 L344.2,316.3 L345.1,306.5 L345.9,322.7 L346.8,332.8 L347.6,322.7 L348.4,313.9 L349.3,308.0 L350.1,313.6 L351.0,299.5 L351.8,303.2 L352.7,308.0 L353.5,305.9 L354.3,344.4 L355.2,342.0 L356.0,332.2 L356.9,311.4 L357.7,321.2 L358.5,314.2 L359.4,316.6 L360.2,309.9 L361.1,318.4 L361.9,307.7 L362.7,331.6 L363.6,341.7 L364.4,346.0 L365.3,354.5 L366.1,356.7 L367.0,356.7 L367.8,337.7 L368.6,341.7 L369.5,357.3 L370.3,334.0 L371.2,356.4 L372.0,337.4 L372.8,340.8 L373.7,357.0 L374.5,388.5 L375.4,387.3 L376.2,372.0 L377.1,376.9 L377.9,375.6 L378.7,331.0 L379.6,355.2 L380.4,346.0 L381.3,372.3 L382.1,346.6 L382.9,382.7 L383.8,374.7 L384.6,335.9 L385.5,350.0 L386.3,338.0 L387.2,342.9 L388.0,333.4 L388.8,328.2 L389.7,338.0 L390.5,350.6 L391.4,320.9 L392.2,335.0 L393.0,329.5 L393.9,341.4 L394.7,335.6 L395.6,318.1 L396.4,338.0 L397.3,335.6 L398.1,349.0 L398.9,365.6 L399.8,385.7 L400.6,389.7 L401.5,378.1 L402.3,357.6 L403.1,335.9 L404.0,335.6 L404.8,346.6 L405.7,341.1 L406.5,331.0 L407.3,323.6 L408.2,342.3 L409.0,357.6 L409.9,366.2 L410.7,348.7 L411.6,337.1 L412.4,350.6 L413.2,356.7 L414.1,351.8 L414.9,353.9 L415.8,359.4 L416.6,364.0 L417.4,352.1 L418.3,367.7 L419.1,335.6 L420.0,347.8 L420.8,372.9 L421.7,343.5 L422.5,344.8 L423.3,367.1 L424.2,355.8 L425.0,379.0 L425.9,387.9 L426.7,393.7 L427.5,390.0 L428.4,389.1 L429.2,375.3 L430.1,354.5 L430.9,353.6 L431.8,341.7 L432.6,339.2 L433.4,337.1 L434.3,365.9 L435.1,335.9 L436.0,363.1 L436.8,364.0 L437.6,366.5 L438.5,361.6 L439.3,359.4 L440.2,363.1 L441.0,364.9 L441.9,365.9 L442.7,380.8 L443.5,398.6 L444.4,398.9 L445.2,406.5 L446.1,411.4 L446.9,413.0 L447.7,401.3 L448.6,389.4 L449.4,395.5 L450.3,388.2 L451.1,376.3 L451.9,382.1 L452.8,361.9 L453.6,394.9 L454.5,391.9 L455.3,385.1 L456.2,385.7 L457.0,389.7 L457.8,384.8 L458.7,365.6 L459.5,378.1 L460.4,367.4 L461.2,361.6 L462.0,361.9 L462.9,367.7 L463.7,385.7 L464.6,401.0 L465.4,410.2 L466.3,408.4 L467.1,398.3 L467.9,394.9 L468.8,393.1 L469.6,390.0 L470.5,368.3 L471.3,362.8 L472.1,355.2 L473.0,372.9 L473.8,379.0 L474.7,381.5 L475.5,385.4 L476.4,384.2 L477.2,394.3 L478.0,389.4 L478.9,372.9 L479.7,366.2 L480.6,361.0 L481.4,368.9 L482.2,394.6 L483.1,409.0 L483.9,414.5 L484.8,417.9 L485.6,412.0 L486.5,417.6 L487.3,417.9 L488.1,415.4 L489.0,410.8 L489.8,397.1 L490.7,399.2 L491.5,400.7 L492.3,401.6 L493.2,402.0 L494.0,402.9 L494.9,409.6 L495.7,419.7 L496.5,420.0 L497.4,418.5 L498.2,414.2 L499.1,411.4 L499.9,407.8 L500.8,401.0 L501.6,379.0 L502.4,369.5 L503.3,369.2 L504.1,406.2 L505.0,404.1 L505.8,388.5 L506.6,396.4 L507.5,401.0 L508.3,400.1 L509.2,406.2 L510.0,411.4 L510.9,398.0 L511.7,390.6 L512.5,387.9 L513.4,395.5 L514.2,388.2 L515.1,377.2 L515.9,365.9 L516.7,350.0 L517.6,343.2 L518.4,342.9 L519.3,401.3 L520.1,365.9 L521.0,349.6 L521.8,352.1 L522.6,353.3 L523.5,353.0 L524.3,326.1 L525.2,296.4 L526.0,296.7 L526.8,302.5 L527.7,306.8 L528.5,305.3 L529.4,314.2 L530.2,320.6 L531.1,313.2 L531.9,321.8 L532.7,321.2 L533.6,329.5 L534.4,331.6 L535.3,351.5 L536.1,364.3 L536.9,365.2 L537.8,352.4 L538.6,376.3 L539.5,379.0 L540.3,378.7 L541.2,358.8 L542.0,388.5 L542.8,383.3 L543.7,384.5 L544.5,341.1 L545.4,368.9 L546.2,372.3 L547.0,354.5 L547.9,361.0 L548.7,377.5 L549.6,369.2 L550.4,343.5 L551.2,338.3 L552.1,327.6 L552.9,330.4 L553.8,325.8 L554.6,314.2 L555.5,309.0 L556.3,320.9 L557.1,335.3 L558.0,337.4 L558.8,341.7 L559.7,355.2 L560.5,340.2 L561.3,319.4 L562.2,330.7 L563.0,325.8 L563.9,329.2 L564.7,339.6 L565.6,346.3 L566.4,343.2 L567.2,340.2 L568.1,364.6 L568.9,393.7 L569.8,397.1 L570.6,386.0 L571.4,380.5 L572.3,381.8 L573.1,386.0 L574.0,394.9 L574.8,403.2 L575.7,415.4 L576.5,409.3 L577.3,403.8 L578.2,409.9 L579.0,405.3 L579.9,396.8 L580.7,398.3 L581.5,403.5 L582.4,409.9 L583.2,407.5 L584.1,409.0 L584.9,407.5 L585.8,387.6 L586.6,386.7 L587.4,384.5 L588.3,378.1 L589.1,370.4 L590.0,374.4 L590.8,382.7 L591.6,393.7 L592.5,405.3 L593.3,412.0 L594.2,414.8 L595.0,403.8 L595.8,394.6 L596.7,391.2 L597.5,384.5 L598.4,371.7 L599.2,400.7 L600.1,405.6 L600.9,400.1 L601.7,402.9 L602.6,401.6 L603.4,372.6 L604.3,377.5 L605.1,374.1 L605.9,374.7 L606.8,371.4 L607.6,368.3 L608.5,377.8 L609.3,386.0 L610.2,393.7 L611.0,403.5 L611.8,412.4 L612.7,408.7 L613.5,412.4 L614.4,414.2 L615.2,416.9 L616.0,416.0 L616.9,417.6 L617.7,417.6 L618.6,415.1 L619.4,415.1 L620.3,418.8 L621.1,420.0 L621.9,420.0 L622.8,419.7 L623.6,419.1 L624.5,418.5 L625.3,414.5 L626.1,413.9 L627.0,407.8 L627.8,411.7 L628.7,416.3 L629.5,417.6 L630.4,414.8 L631.2,414.8 L632.0,408.4 L632.9,404.7 L633.7,394.9 L634.6,384.5 L635.4,388.5 L636.2,391.6 L637.1,387.3 L637.9,389.7 L638.8,381.2 L639.6,384.5 L640.4,366.8 L641.3,383.0 L642.1,385.7 L643.0,399.2 L643.8,404.1 L644.7,400.7 L645.5,409.9 L646.3,409.6 L647.2,410.5 L648.0,406.5 L648.9,392.5 L649.7,398.6 L650.5,393.1 L651.4,375.3 L652.2,364.9 L653.1,349.0 L653.9,383.3 L654.8,386.4 L655.6,394.6 L656.4,394.6 L657.3,384.5 L658.1,388.8 L659.0,379.3 L659.8,386.0 L660.6,380.8 L661.5,377.2 L662.3,387.6 L663.2,375.3 L664.0,376.3 L664.9,383.9 L665.7,389.7 L666.5,409.3 L667.4,413.9 L668.2,415.7 L669.1,412.4 L669.9,411.1 L670.7,403.2 L671.6,398.9 L672.4,402.3 L673.3,394.3 L674.1,399.2 L675.0,391.6 L675.8,399.5 L676.6,407.5 L677.5,406.8 L678.3,384.8 L679.2,373.5 L680.0,383.9" stroke="#1f77b4" stroke-width="2" fill="none" opacity="0.8"/>
<!-- Hydro Generation -->
<path d="M80.0,326.7 L80.8,327.0 L81.7,327.3 L82.5,327.0 L83.4,327.0 L84.2,327.3 L85.0,327.3 L85.9,327.3 L86.7,327.3 L87.6,327.0 L88.4,327.3 L89.3,327.3 L90.1,327.3 L90.9,327.3 L91.8,327.0 L92.6,327.0 L93.5,326.4 L94.3,326.1 L95.1,325.2 L96.0,325.5 L96.8,325.2 L97.7,325.2 L98.5,325.5 L99.4,325.2 L100.2,325.5 L101.0,325.5 L101.9,325.2 L102.7,325.8 L103.6,325.5 L104.4,325.5 L105.2,325.5 L106.1,325.2 L106.9,325.5 L107.8,325.5 L108.6,325.5 L109.5,324.9 L110.3,324.9 L111.1,324.6 L112.0,324.3 L112.8,325.8 L113.7,325.8 L114.5,324.9 L115.3,324.6 L116.2,324.0 L117.0,324.6 L117.9,322.4 L118.7,319.7 L119.6,319.7 L120.4,320.0 L121.2,319.7 L122.1,319.1 L122.9,319.7 L123.8,319.7 L124.6,319.4 L125.4,319.7 L126.3,320.9 L127.1,320.9 L128.0,321.8 L128.8,322.4 L129.6,322.7 L130.5,323.0 L131.3,322.1 L132.2,322.1 L133.0,322.1 L133.9,322.1 L134.7,322.1 L135.5,322.1 L136.4,322.1 L137.2,322.4 L138.1,322.7 L138.9,322.7 L139.7,322.4 L140.6,322.7 L141.4,321.8 L142.3,321.5 L143.1,321.5 L144.0,321.8 L144.8,321.8 L145.6,321.8 L146.5,321.8 L147.3,322.7 L148.2,323.6 L149.0,323.6 L149.8,323.3 L150.7,323.3 L151.5,323.3 L152.4,323.6 L153.2,323.3 L154.1,323.6 L154.9,323.3 L155.7,323.3 L156.6,323.0 L157.4,323.3 L158.3,323.6 L159.1,323.6 L159.9,323.6 L160.8,322.7 L161.6,322.7 L162.5,322.7 L163.3,322.7 L164.2,322.7 L165.0,322.7 L165.8,322.7 L166.7,322.7 L167.5,322.7 L168.4,322.7 L169.2,322.7 L170.0,323.6 L170.9,324.0 L171.7,324.0 L172.6,323.6 L173.4,324.3 L174.2,324.0 L175.1,324.0 L175.9,324.0 L176.8,324.3 L177.6,324.3 L178.5,324.3 L179.3,324.3 L180.1,324.3 L181.0,324.3 L181.8,324.3 L182.7,324.3 L183.5,324.0 L184.3,324.3 L185.2,324.0 L186.0,324.3 L186.9,324.3 L187.7,324.0 L188.6,324.0 L189.4,324.3 L190.2,324.0 L191.1,322.1 L191.9,340.2 L192.8,339.9 L193.6,340.2 L194.4,339.9 L195.3,339.9 L196.1,339.2 L197.0,338.9 L197.8,338.6 L198.7,338.9 L199.5,338.6 L200.3,338.6 L201.2,338.3 L202.0,338.6 L202.9,338.6 L203.7,337.7 L204.5,337.7 L205.4,337.7 L206.2,338.0 L207.1,338.0 L207.9,338.0 L208.8,338.6 L209.6,338.3 L210.4,338.0 L211.3,338.3 L212.1,338.9 L213.0,380.8 L213.8,382.1 L214.6,381.8 L215.5,380.8 L216.3,381.2 L217.2,381.2 L218.0,381.2 L218.8,380.8 L219.7,381.2 L220.5,338.9 L221.4,338.6 L222.2,338.6 L223.1,339.9 L223.9,340.2 L224.7,341.4 L225.6,341.4 L226.4,341.4 L227.3,341.4 L228.1,341.4 L228.9,340.8 L229.8,340.2 L230.6,339.6 L231.5,340.2 L232.3,340.5 L233.2,340.2 L234.0,340.5 L234.8,340.2 L235.7,340.2 L236.5,339.9 L237.4,339.9 L238.2,340.2 L239.0,340.2 L239.9,340.5 L240.7,340.5 L241.6,340.5 L242.4,340.8 L243.3,340.5 L244.1,340.8 L244.9,340.8 L245.8,340.8 L246.6,340.8 L247.5,341.1 L248.3,340.8 L249.1,340.8 L250.0,340.5 L250.8,340.5 L251.7,340.5 L252.5,341.4 L253.4,340.8 L254.2,342.0 L255.0,342.0 L255.9,341.4 L256.7,341.4 L257.6,342.0 L258.4,339.9 L259.2,339.9 L260.1,339.9 L260.9,340.2 L261.8,340.2 L262.6,340.2 L263.5,340.2 L264.3,339.9 L265.1,339.9 L266.0,340.2 L266.8,339.9 L267.7,340.5 L268.5,340.5 L269.3,341.1 L270.2,341.1 L271.0,340.2 L271.9,340.5 L272.7,340.5 L273.5,342.6 L274.4,342.3 L275.2,342.3 L276.1,342.3 L276.9,342.9 L277.8,342.9 L278.6,342.9 L279.4,342.3 L280.3,341.4 L281.1,341.7 L282.0,341.1 L282.8,341.1 L283.6,341.4 L284.5,341.1 L285.3,341.1 L286.2,341.1 L287.0,341.1 L287.9,341.1 L288.7,341.1 L289.5,341.4 L290.4,341.1 L291.2,341.4 L292.1,341.7 L292.9,342.6 L293.7,342.6 L294.6,342.3 L295.4,342.0 L296.3,342.3 L297.1,341.7 L298.0,341.1 L298.8,341.4 L299.6,340.2 L300.5,339.9 L301.3,339.9 L302.2,340.5 L303.0,340.5 L303.8,340.5 L304.7,340.5 L305.5,340.5 L306.4,340.5 L307.2,340.5 L308.1,340.2 L308.9,340.5 L309.7,340.2 L310.6,340.2 L311.4,340.5 L312.3,341.4 L313.1,341.7 L313.9,341.7 L314.8,341.7 L315.6,341.4 L316.5,340.2 L317.3,340.2 L318.1,340.2 L319.0,339.2 L319.8,339.6 L320.7,339.2 L321.5,339.2 L322.4,339.6 L323.2,340.2 L324.0,340.5 L324.9,340.5 L325.7,340.5 L326.6,339.2 L327.4,339.2 L328.2,339.6 L329.1,338.6 L329.9,338.6 L330.8,338.6 L331.6,338.3 L332.5,339.9 L333.3,340.2 L334.1,339.9 L335.0,338.9 L335.8,352.1 L336.7,351.8 L337.5,351.5 L338.3,351.5 L339.2,351.5 L340.0,351.8 L340.9,352.1 L341.7,351.5 L342.6,338.3 L343.4,338.6 L344.2,338.6 L345.1,338.9 L345.9,338.6 L346.8,338.6 L347.6,338.9 L348.4,338.6 L349.3,338.6 L350.1,338.6 L351.0,338.9 L351.8,338.0 L352.7,339.9 L353.5,342.6 L354.3,342.6 L355.2,342.6 L356.0,342.9 L356.9,342.0 L357.7,342.3 L358.5,342.0 L359.4,342.6 L360.2,342.9 L361.1,343.2 L361.9,342.9 L362.7,343.2 L363.6,342.9 L364.4,342.6 L365.3,343.2 L366.1,342.3 L367.0,342.0 L367.8,342.0 L368.6,342.3 L369.5,341.7 L370.3,341.7 L371.2,342.0 L372.0,340.8 L372.8,341.1 L373.7,341.4 L374.5,341.7 L375.4,342.0 L376.2,342.0 L377.1,342.3 L377.9,342.0 L378.7,342.6 L379.6,342.0 L380.4,342.9 L381.3,343.2 L382.1,342.9 L382.9,343.5 L383.8,343.2 L384.6,343.5 L385.5,344.8 L386.3,344.4 L387.2,344.8 L388.0,343.2 L388.8,342.9 L389.7,342.6 L390.5,341.7 L391.4,341.7 L392.2,341.1 L393.0,341.1 L393.9,341.4 L394.7,341.1 L395.6,341.1 L396.4,341.1 L397.3,341.1 L398.1,342.3 L398.9,341.7 L399.8,341.7 L400.6,341.7 L401.5,341.7 L402.3,344.4 L403.1,346.0 L404.0,346.0 L404.8,346.6 L405.7,346.6 L406.5,346.3 L407.3,344.8 L408.2,344.1 L409.0,344.4 L409.9,343.8 L410.7,343.8 L411.6,343.8 L412.4,343.5 L413.2,343.8 L414.1,343.5 L414.9,343.2 L415.8,343.2 L416.6,342.0 L417.4,342.0 L418.3,341.7 L419.1,342.3 L420.0,342.0 L420.8,342.3 L421.7,342.6 L422.5,330.1 L423.3,330.4 L424.2,330.7 L425.0,330.1 L425.9,329.8 L426.7,329.8 L427.5,329.5 L428.4,329.5 L429.2,330.1 L430.1,330.1 L430.9,330.1 L431.8,330.1 L432.6,330.4 L433.4,330.4 L434.3,330.1 L435.1,330.1 L436.0,329.8 L436.8,329.8 L437.6,330.1 L438.5,356.4 L439.3,363.1 L440.2,362.8 L441.0,363.1 L441.9,364.0 L442.7,349.6 L443.5,329.8 L444.4,330.4 L445.2,330.7 L446.1,330.7 L446.9,331.0 L447.7,331.0 L448.6,331.0 L449.4,330.4 L450.3,330.1 L451.1,329.5 L451.9,329.5 L452.8,329.5 L453.6,329.8 L454.5,329.8 L455.3,329.8 L456.2,351.5 L457.0,351.5 L457.8,351.8 L458.7,351.5 L459.5,351.8 L460.4,351.8 L461.2,351.8 L462.0,330.7 L462.9,330.4 L463.7,330.4 L464.6,331.3 L465.4,331.3 L466.3,331.0 L467.1,331.3 L467.9,331.3 L468.8,331.3 L469.6,331.3 L470.5,331.3 L471.3,331.3 L472.1,331.3 L473.0,331.3 L473.8,331.9 L474.7,333.1 L475.5,334.7 L476.4,336.5 L477.2,335.0 L478.0,335.0 L478.9,334.7 L479.7,335.0 L480.6,334.4 L481.4,332.8 L482.2,332.8 L483.1,332.5 L483.9,332.8 L484.8,333.4 L485.6,333.1 L486.5,333.4 L487.3,333.4 L488.1,333.4 L489.0,333.4 L489.8,333.4 L490.7,333.4 L491.5,333.4 L492.3,333.1 L493.2,333.4 L494.0,333.4 L494.9,333.1 L495.7,333.1 L496.5,333.1 L497.4,333.7 L498.2,334.4 L499.1,337.7 L499.9,335.0 L500.8,335.0 L501.6,335.0 L502.4,335.0 L503.3,335.0 L504.1,334.4 L505.0,334.4 L505.8,334.4 L506.6,334.7 L507.5,334.7 L508.3,334.7 L509.2,334.7 L510.0,334.4 L510.9,334.4 L511.7,334.4 L512.5,334.0 L513.4,334.7 L514.2,334.4 L515.1,333.1 L515.9,333.1 L516.7,335.6 L517.6,333.7 L518.4,333.4 L519.3,333.4 L520.1,333.7 L521.0,333.4 L521.8,333.7 L522.6,333.7 L523.5,333.4 L524.3,334.0 L525.2,334.0 L526.0,335.3 L526.8,334.4 L527.7,334.7 L528.5,335.6 L529.4,335.6 L530.2,335.6 L531.1,335.6 L531.9,335.9 L532.7,335.9 L533.6,335.3 L534.4,335.3 L535.3,334.7 L536.1,334.4 L536.9,334.4 L537.8,334.4 L538.6,333.7 L539.5,334.4 L540.3,334.4 L541.2,334.4 L542.0,334.4 L542.8,333.1 L543.7,333.1 L544.5,333.1 L545.4,333.1 L546.2,333.1 L547.0,332.8 L547.9,333.1 L548.7,333.1 L549.6,332.8 L550.4,333.1 L551.2,333.1 L552.1,333.1 L552.9,333.7 L553.8,333.7 L554.6,334.4 L555.5,333.7 L556.3,334.0 L557.1,335.9 L558.0,333.7 L558.8,333.7 L559.7,334.0 L560.5,333.4 L561.3,334.0 L562.2,333.7 L563.0,332.5 L563.9,332.2 L564.7,332.5 L565.6,331.6 L566.4,331.6 L567.2,330.1 L568.1,330.4 L568.9,330.1 L569.8,330.1 L570.6,329.2 L571.4,329.5 L572.3,329.2 L573.1,329.2 L574.0,328.8 L574.8,330.4 L575.7,330.7 L576.5,330.4 L577.3,330.4 L578.2,330.1 L579.0,331.3 L579.9,331.0 L580.7,331.3 L581.5,330.7 L582.4,331.3 L583.2,331.9 L584.1,331.9 L584.9,331.3 L585.8,331.6 L586.6,331.6 L587.4,331.6 L588.3,331.6 L589.1,331.6 L590.0,331.6 L590.8,331.6 L591.6,331.6 L592.5,331.6 L593.3,331.6 L594.2,332.2 L595.0,332.2 L595.8,332.2 L596.7,332.2 L597.5,332.2 L598.4,332.2 L599.2,333.1 L600.1,332.5 L600.9,333.1 L601.7,333.1 L602.6,333.1 L603.4,333.7 L604.3,333.4 L605.1,334.0 L605.9,334.0 L606.8,334.4 L607.6,334.0 L608.5,334.0 L609.3,334.0 L610.2,334.0 L611.0,333.1 L611.8,333.1 L612.7,333.4 L613.5,333.4 L614.4,333.1 L615.2,333.1 L616.0,333.4 L616.9,333.4 L617.7,333.4 L618.6,333.1 L619.4,333.1 L620.3,334.7 L621.1,335.0 L621.9,334.0 L622.8,335.0 L623.6,333.7 L624.5,333.1 L625.3,333.1 L626.1,333.4 L627.0,333.7 L627.8,334.7 L628.7,334.7 L629.5,334.7 L630.4,334.4 L631.2,334.0 L632.0,334.0 L632.9,334.4 L633.7,334.0 L634.6,334.0 L635.4,334.0 L636.2,334.0 L637.1,333.7 L637.9,333.7 L638.8,346.3 L639.6,346.3 L640.4,346.6 L641.3,346.3 L642.1,346.6 L643.0,334.4 L643.8,334.4 L644.7,334.0 L645.5,334.0 L646.3,334.0 L647.2,333.4 L648.0,333.7 L648.9,333.7 L649.7,333.7 L650.5,334.0 L651.4,334.0 L652.2,333.7 L653.1,333.7 L653.9,333.7 L654.8,334.0 L655.6,334.0 L656.4,334.4 L657.3,333.7 L658.1,333.7 L659.0,335.0 L659.8,335.0 L660.6,336.2 L661.5,336.5 L662.3,336.5 L663.2,334.4 L664.0,334.7 L664.9,334.7 L665.7,334.7 L666.5,334.7 L667.4,334.7 L668.2,334.4 L669.1,334.4 L669.9,334.4 L670.7,334.0 L671.6,334.4 L672.4,334.7 L673.3,335.0 L674.1,335.0 L675.0,335.6 L675.8,335.6 L676.6,335.6 L677.5,337.4 L678.3,346.3 L679.2,346.6 L680.0,335.0" stroke="#ff7f0e" stroke-width="2" fill="none" opacity="0.8"/>
<!-- Thermal Generation -->
<path d="M80.0,230.4 L80.8,217.2 L81.7,217.2 L82.5,217.8 L83.4,234.6 L84.2,251.5 L85.0,219.3 L85.9,217.5 L86.7,217.2 L87.6,217.5 L88.4,220.0 L89.3,217.2 L90.1,218.4 L90.9,242.9 L91.8,231.6 L92.6,280.5 L93.5,281.4 L94.3,278.4 L95.1,285.1 L96.0,264.9 L96.8,276.5 L97.7,291.5 L98.5,316.6 L99.4,243.2 L100.2,228.8 L101.0,218.1 L101.9,277.5 L102.7,289.1 L103.6,308.4 L104.4,344.8 L105.2,353.6 L106.1,352.1 L106.9,351.8 L107.8,350.6 L108.6,328.8 L109.5,289.7 L110.3,250.8 L111.1,280.8 L112.0,306.5 L112.8,305.3 L113.7,305.0 L114.5,304.4 L115.3,303.8 L116.2,341.4 L117.0,353.9 L117.9,353.9 L118.7,353.3 L119.6,353.0 L120.4,353.3 L121.2,353.6 L122.1,354.2 L122.9,353.9 L123.8,354.2 L124.6,353.9 L125.4,353.9 L126.3,353.6 L127.1,353.3 L128.0,353.0 L128.8,353.9 L129.6,347.8 L130.5,349.3 L131.3,350.3 L132.2,349.3 L133.0,347.2 L133.9,346.6 L134.7,353.9 L135.5,354.2 L136.4,353.9 L137.2,354.2 L138.1,353.9 L138.9,353.9 L139.7,353.9 L140.6,354.5 L141.4,318.4 L142.3,353.9 L143.1,353.6 L144.0,353.9 L144.8,353.9 L145.6,353.9 L146.5,354.2 L147.3,353.6 L148.2,353.6 L149.0,353.9 L149.8,347.8 L150.7,354.2 L151.5,370.1 L152.4,372.9 L153.2,372.9 L154.1,372.9 L154.9,372.9 L155.7,354.2 L156.6,354.2 L157.4,353.9 L158.3,353.9 L159.1,354.2 L159.9,353.6 L160.8,302.5 L161.6,265.5 L162.5,242.6 L163.3,241.7 L164.2,253.3 L165.0,265.8 L165.8,278.1 L166.7,303.8 L167.5,303.2 L168.4,323.6 L169.2,321.2 L170.0,252.4 L170.9,286.9 L171.7,321.2 L172.6,332.8 L173.4,353.9 L174.2,354.2 L175.1,353.9 L175.9,354.2 L176.8,354.2 L177.6,354.2 L178.5,353.9 L179.3,353.6 L180.1,314.5 L181.0,282.0 L181.8,301.9 L182.7,301.9 L183.5,311.7 L184.3,353.9 L185.2,353.6 L186.0,354.5 L186.9,353.9 L187.7,353.9 L188.6,354.2 L189.4,331.9 L190.2,259.1 L191.1,278.1 L191.9,287.6 L192.8,295.5 L193.6,308.0 L194.4,309.3 L195.3,309.3 L196.1,309.0 L197.0,307.4 L197.8,309.0 L198.7,309.0 L199.5,309.0 L200.3,309.3 L201.2,303.2 L202.0,309.0 L202.9,309.3 L203.7,309.0 L204.5,308.7 L205.4,309.3 L206.2,308.7 L207.1,308.4 L207.9,308.4 L208.8,308.7 L209.6,308.4 L210.4,308.7 L211.3,309.6 L212.1,260.3 L213.0,309.0 L213.8,309.0 L214.6,309.6 L215.5,309.9 L216.3,310.8 L217.2,344.1 L218.0,355.2 L218.8,355.2 L219.7,355.8 L220.5,355.8 L221.4,355.2 L222.2,355.5 L223.1,353.9 L223.9,354.5 L224.7,353.9 L225.6,354.5 L226.4,360.4 L227.3,354.2 L228.1,354.5 L228.9,353.9 L229.8,353.6 L230.6,269.5 L231.5,253.6 L232.3,295.8 L233.2,333.4 L234.0,344.8 L234.8,353.9 L235.7,350.9 L236.5,350.0 L237.4,353.9 L238.2,351.2 L239.0,353.9 L239.9,316.9 L240.7,286.9 L241.6,235.6 L242.4,231.9 L243.3,220.6 L244.1,242.9 L244.9,243.8 L245.8,242.9 L246.6,247.5 L247.5,249.9 L248.3,252.7 L249.1,246.9 L250.0,247.5 L250.8,233.7 L251.7,222.1 L252.5,250.8 L253.4,265.5 L254.2,266.8 L255.0,285.7 L255.9,295.8 L256.7,308.4 L257.6,317.5 L258.4,315.7 L259.2,315.4 L260.1,317.8 L260.9,247.2 L261.8,224.5 L262.6,243.5 L263.5,249.6 L264.3,312.6 L265.1,311.4 L266.0,335.6 L266.8,271.3 L267.7,259.4 L268.5,241.4 L269.3,232.2 L270.2,223.6 L271.0,224.2 L271.9,221.5 L272.7,224.2 L273.5,225.8 L274.4,223.9 L275.2,242.0 L276.1,243.8 L276.9,255.7 L277.8,301.9 L278.6,275.6 L279.4,314.2 L280.3,305.6 L281.1,251.2 L282.0,226.4 L282.8,223.3 L283.6,241.1 L284.5,234.6 L285.3,246.0 L286.2,295.5 L287.0,295.8 L287.9,308.0 L288.7,307.4 L289.5,307.7 L290.4,307.4 L291.2,292.8 L292.1,304.7 L292.9,353.9 L293.7,341.7 L294.6,353.3 L295.4,353.9 L296.3,355.2 L297.1,354.8 L298.0,352.1 L298.8,353.3 L299.6,353.9 L300.5,354.2 L301.3,350.6 L302.2,316.6 L303.0,293.4 L303.8,292.8 L304.7,338.6 L305.5,353.3 L306.4,353.3 L307.2,353.0 L308.1,352.4 L308.9,352.7 L309.7,352.4 L310.6,352.7 L311.4,353.6 L312.3,351.8 L313.1,354.2 L313.9,353.0 L314.8,353.9 L315.6,338.9 L316.5,342.0 L317.3,341.7 L318.1,317.5 L319.0,320.6 L319.8,302.8 L320.7,293.1 L321.5,293.1 L322.4,308.0 L323.2,309.9 L324.0,311.1 L324.9,309.9 L325.7,353.6 L326.6,353.6 L327.4,353.9 L328.2,353.3 L329.1,353.9 L329.9,353.0 L330.8,353.0 L331.6,353.9 L332.5,354.2 L333.3,353.9 L334.1,353.3 L335.0,354.8 L335.8,354.2 L336.7,353.9 L337.5,354.2 L338.3,345.7 L339.2,335.6 L340.0,336.2 L340.9,350.0 L341.7,354.2 L342.6,353.6 L343.4,354.2 L344.2,353.6 L345.1,354.2 L345.9,353.9 L346.8,353.9 L347.6,353.6 L348.4,353.3 L349.3,353.3 L350.1,353.0 L351.0,353.0 L351.8,353.6 L352.7,336.8 L353.5,336.2 L354.3,319.1 L355.2,346.0 L356.0,332.5 L356.9,336.8 L357.7,336.5 L358.5,352.4 L359.4,351.8 L360.2,351.8 L361.1,354.2 L361.9,353.9 L362.7,339.9 L363.6,342.3 L364.4,347.2 L365.3,341.7 L366.1,336.2 L367.0,335.9 L367.8,353.9 L368.6,353.6 L369.5,353.6 L370.3,354.2 L371.2,341.7 L372.0,342.3 L372.8,314.5 L373.7,331.9 L374.5,354.2 L375.4,354.2 L376.2,354.5 L377.1,354.8 L377.9,354.5 L378.7,354.5 L379.6,354.2 L380.4,354.2 L381.3,354.2 L382.1,354.2 L382.9,323.0 L383.8,324.6 L384.6,293.4 L385.5,305.9 L386.3,329.8 L387.2,354.2 L388.0,353.9 L388.8,353.9 L389.7,353.9 L390.5,354.5 L391.4,353.9 L392.2,329.5 L393.0,308.7 L393.9,330.4 L394.7,329.8 L395.6,341.7 L396.4,353.6 L397.3,353.9 L398.1,354.2 L398.9,354.2 L399.8,353.9 L400.6,353.9 L401.5,353.9 L402.3,353.9 L403.1,354.8 L404.0,354.8 L404.8,353.9 L405.7,353.9 L406.5,342.3 L407.3,354.5 L408.2,353.9 L409.0,353.6 L409.9,353.6 L410.7,354.2 L411.6,354.5 L412.4,335.6 L413.2,320.9 L414.1,320.6 L414.9,321.2 L415.8,336.2 L416.6,354.5 L417.4,353.9 L418.3,354.8 L419.1,354.2 L420.0,353.9 L420.8,353.9 L421.7,353.9 L422.5,353.6 L423.3,310.2 L424.2,327.6 L425.0,315.7 L425.9,312.0 L426.7,309.3 L427.5,315.1 L428.4,324.3 L429.2,327.9 L430.1,328.2 L430.9,338.9 L431.8,353.9 L432.6,341.7 L433.4,338.0 L434.3,338.6 L435.1,353.9 L436.0,353.6 L436.8,353.9 L437.6,354.2 L438.5,354.5 L439.3,353.9 L440.2,353.9 L441.0,353.6 L441.9,354.5 L442.7,353.9 L443.5,339.6 L444.4,310.5 L445.2,310.8 L446.1,313.6 L446.9,320.6 L447.7,317.5 L448.6,346.3 L449.4,349.6 L450.3,354.2 L451.1,353.6 L451.9,353.6 L452.8,353.9 L453.6,353.3 L454.5,347.2 L455.3,353.6 L456.2,353.3 L457.0,353.6 L457.8,353.0 L458.7,353.3 L459.5,353.0 L460.4,353.6 L461.2,354.2 L462.0,353.9 L462.9,318.4 L463.7,303.2 L464.6,271.3 L465.4,249.9 L466.3,248.4 L467.1,247.5 L467.9,285.1 L468.8,331.6 L469.6,354.2 L470.5,354.2 L471.3,354.2 L472.1,331.0 L473.0,306.8 L473.8,318.8 L474.7,342.6 L475.5,346.6 L476.4,354.5 L477.2,352.1 L478.0,354.5 L478.9,355.2 L479.7,331.0 L480.6,341.4 L481.4,352.1 L482.2,354.5 L483.1,298.3 L483.9,235.6 L484.8,222.1 L485.6,221.8 L486.5,255.7 L487.3,290.0 L488.1,313.6 L489.0,339.6 L489.8,341.7 L490.7,353.9 L491.5,353.3 L492.3,353.3 L493.2,354.5 L494.0,354.2 L494.9,355.5 L495.7,350.9 L496.5,350.3 L497.4,350.9 L498.2,345.4 L499.1,347.5 L499.9,349.3 L500.8,349.6 L501.6,349.6 L502.4,349.0 L503.3,345.4 L504.1,322.4 L505.0,305.6 L505.8,309.0 L506.6,335.9 L507.5,353.6 L508.3,353.9 L509.2,353.6 L510.0,353.3 L510.9,353.9 L511.7,353.6 L512.5,353.6 L513.4,354.2 L514.2,354.5 L515.1,354.5 L515.9,354.5 L516.7,355.5 L517.6,355.8 L518.4,355.2 L519.3,355.5 L520.1,353.9 L521.0,354.2 L521.8,353.9 L522.6,354.2 L523.5,350.9 L524.3,353.3 L525.2,353.6 L526.0,353.9 L526.8,372.0 L527.7,372.3 L528.5,372.0 L529.4,353.6 L530.2,353.3 L531.1,353.0 L531.9,353.9 L532.7,353.6 L533.6,354.5 L534.4,354.8 L535.3,354.8 L536.1,354.2 L536.9,354.2 L537.8,354.2 L538.6,308.7 L539.5,302.2 L540.3,305.3 L541.2,302.2 L542.0,353.9 L542.8,354.2 L543.7,353.3 L544.5,354.2 L545.4,354.2 L546.2,353.9 L547.0,353.6 L547.9,342.9 L548.7,353.9 L549.6,353.3 L550.4,353.3 L551.2,353.3 L552.1,336.8 L552.9,338.3 L553.8,350.6 L554.6,342.0 L555.5,303.5 L556.3,302.2 L557.1,305.6 L558.0,305.0 L558.8,353.6 L559.7,353.6 L560.5,354.2 L561.3,350.9 L562.2,353.9 L563.0,353.6 L563.9,353.6 L564.7,354.2 L565.6,354.5 L566.4,354.2 L567.2,354.2 L568.1,354.2 L568.9,353.9 L569.8,354.2 L570.6,307.7 L571.4,301.9 L572.3,302.8 L573.1,301.6 L574.0,346.6 L574.8,346.3 L575.7,346.9 L576.5,346.3 L577.3,346.3 L578.2,353.6 L579.0,353.6 L579.9,353.3 L580.7,353.6 L581.5,353.3 L582.4,353.0 L583.2,353.3 L584.1,325.2 L584.9,325.5 L585.8,270.1 L586.6,268.6 L587.4,345.1 L588.3,353.3 L589.1,354.2 L590.0,368.3 L590.8,369.2 L591.6,354.2 L592.5,353.6 L593.3,353.9 L594.2,353.9 L595.0,353.0 L595.8,353.3 L596.7,353.6 L597.5,353.9 L598.4,353.6 L599.2,353.9 L600.1,353.6 L600.9,353.9 L601.7,353.6 L602.6,353.6 L603.4,353.6 L604.3,353.9 L605.1,354.2 L605.9,354.2 L606.8,354.2 L607.6,354.2 L608.5,348.7 L609.3,348.4 L610.2,354.2 L611.0,354.2 L611.8,354.2 L612.7,354.2 L613.5,309.3 L614.4,309.3 L615.2,309.3 L616.0,309.9 L616.9,309.3 L617.7,308.7 L618.6,309.6 L619.4,309.6 L620.3,309.6 L621.1,309.6 L621.9,310.2 L622.8,309.0 L623.6,308.7 L624.5,309.3 L625.3,280.8 L626.1,304.7 L627.0,309.3 L627.8,309.0 L628.7,309.6 L629.5,309.6 L630.4,309.3 L631.2,309.6 L632.0,309.6 L632.9,308.7 L633.7,308.4 L634.6,292.4 L635.4,301.6 L636.2,304.4 L637.1,309.0 L637.9,308.7 L638.8,309.3 L639.6,309.6 L640.4,308.4 L641.3,308.4 L642.1,353.9 L643.0,353.6 L643.8,353.6 L644.7,354.2 L645.5,301.3 L646.3,301.6 L647.2,317.2 L648.0,317.8 L648.9,348.4 L649.7,348.7 L650.5,348.1 L651.4,348.4 L652.2,348.1 L653.1,348.4 L653.9,342.3 L654.8,328.5 L655.6,309.9 L656.4,341.4 L657.3,340.8 L658.1,354.2 L659.0,353.6 L659.8,353.9 L660.6,348.7 L661.5,353.9 L662.3,353.9 L663.2,353.9 L664.0,354.5 L664.9,347.8 L665.7,286.9 L666.5,268.9 L667.4,291.2 L668.2,290.6 L669.1,280.8 L669.9,305.0 L670.7,301.9 L671.6,305.0 L672.4,302.2 L673.3,301.9 L674.1,283.0 L675.0,264.9 L675.8,265.2 L676.6,302.2 L677.5,322.1 L678.3,339.9 L679.2,341.7 L680.0,353.9" stroke="#2ca02c" stroke-width="2" fill="none" opacity="0.8"/>
<!-- Solar Generation -->
<path d="M80.0,420.0 L80.8,420.0 L81.7,420.0 L82.5,420.0 L83.4,420.0 L84.2,420.0 L85.0,420.0 L85.9,420.0 L86.7,420.0 L87.6,420.0 L88.4,420.0 L89.3,420.0 L90.1,419.4 L90.9,413.6 L91.8,402.0 L92.6,385.1 L93.5,391.9 L94.3,382.7 L95.1,384.8 L96.0,397.4 L96.8,395.8 L97.7,404.4 L98.5,405.9 L99.4,414.8 L100.2,420.0 L101.0,420.0 L101.9,420.0 L102.7,420.0 L103.6,420.0 L104.4,420.0 L105.2,420.0 L106.1,420.0 L106.9,420.0 L107.8,420.0 L108.6,420.0 L109.5,420.0 L110.3,418.5 L111.1,402.9 L112.0,414.5 L112.8,414.5 L113.7,412.0 L114.5,413.3 L115.3,401.6 L116.2,401.0 L117.0,415.7 L117.9,416.9 L118.7,417.9 L119.6,418.2 L120.4,420.0 L121.2,420.0 L122.1,420.0 L122.9,420.0 L123.8,420.0 L124.6,420.0 L125.4,420.0 L126.3,420.0 L127.1,420.0 L128.0,420.0 L128.8,420.0 L129.6,420.0 L130.5,419.4 L131.3,417.9 L132.2,417.6 L133.0,416.0 L133.9,412.0 L134.7,411.7 L135.5,410.8 L136.4,411.1 L137.2,410.2 L138.1,413.3 L138.9,414.5 L139.7,406.8 L140.6,419.4 L141.4,420.0 L142.3,420.0 L143.1,420.0 L144.0,420.0 L144.8,420.0 L145.6,420.0 L146.5,420.0 L147.3,420.0 L148.2,420.0 L149.0,420.0 L149.8,420.0 L150.7,409.3 L151.5,401.0 L152.4,399.5 L153.2,399.8 L154.1,398.9 L154.9,401.0 L155.7,403.8 L156.6,400.4 L157.4,399.2 L158.3,409.3 L159.1,378.4 L159.9,404.4 L160.8,419.4 L161.6,420.0 L162.5,420.0 L163.3,420.0 L164.2,420.0 L165.0,420.0 L165.8,420.0 L166.7,420.0 L167.5,420.0 L168.4,420.0 L169.2,420.0 L170.0,420.0 L170.9,408.1 L171.7,382.7 L172.6,394.6 L173.4,399.2 L174.2,398.9 L175.1,399.2 L175.9,398.6 L176.8,399.2 L177.6,399.2 L178.5,379.0 L179.3,402.9 L180.1,408.7 L181.0,419.7 L181.8,420.0 L182.7,420.0 L183.5,420.0 L184.3,420.0 L185.2,420.0 L186.0,420.0 L186.9,420.0 L187.7,420.0 L188.6,420.0 L189.4,420.0 L190.2,420.0 L191.1,414.8 L191.9,394.3 L192.8,380.2 L193.6,393.4 L194.4,382.7 L195.3,383.3 L196.1,385.4 L197.0,383.9 L197.8,401.6 L198.7,396.1 L199.5,411.7 L200.3,400.4 L201.2,419.1 L202.0,420.0 L202.9,420.0 L203.7,420.0 L204.5,420.0 L205.4,420.0 L206.2,420.0 L207.1,420.0 L207.9,420.0 L208.8,420.0 L209.6,420.0 L210.4,420.0 L211.3,409.0 L212.1,401.6 L213.0,400.1 L213.8,399.8 L214.6,401.6 L215.5,402.3 L216.3,405.0 L217.2,409.6 L218.0,410.2 L218.8,415.1 L219.7,412.4 L220.5,407.2 L221.4,419.4 L222.2,420.0 L223.1,420.0 L223.9,420.0 L224.7,420.0 L225.6,420.0 L226.4,420.0 L227.3,420.0 L228.1,420.0 L228.9,420.0 L229.8,420.0 L230.6,420.0 L231.5,406.5 L232.3,379.9 L233.2,376.3 L234.0,376.0 L234.8,375.3 L235.7,375.6 L236.5,381.2 L237.4,402.9 L238.2,399.5 L239.0,399.8 L239.9,389.1 L240.7,408.1 L241.6,418.2 L242.4,420.0 L243.3,420.0 L244.1,420.0 L244.9,420.0 L245.8,420.0 L246.6,420.0 L247.5,420.0 L248.3,420.0 L249.1,420.0 L250.0,420.0 L250.8,420.0 L251.7,405.3 L252.5,380.2 L253.4,376.3 L254.2,376.0 L255.0,375.3 L255.9,375.3 L256.7,375.3 L257.6,375.3 L258.4,375.6 L259.2,376.3 L260.1,377.2 L260.9,398.0 L261.8,419.1 L262.6,420.0 L263.5,420.0 L264.3,420.0 L265.1,420.0 L266.0,420.0 L266.8,420.0 L267.7,420.0 L268.5,420.0 L269.3,420.0 L270.2,420.0 L271.0,420.0 L271.9,408.4 L272.7,381.8 L273.5,376.9 L274.4,376.3 L275.2,376.6 L276.1,379.9 L276.9,389.4 L277.8,379.9 L278.6,381.8 L279.4,392.2 L280.3,409.0 L281.1,412.0 L282.0,419.7 L282.8,420.0 L283.6,420.0 L284.5,420.0 L285.3,420.0 L286.2,420.0 L287.0,420.0 L287.9,420.0 L288.7,420.0 L289.5,420.0 L290.4,420.0 L291.2,420.0 L292.1,414.8 L292.9,407.5 L293.7,406.2 L294.6,401.3 L295.4,400.4 L296.3,403.8 L297.1,400.7 L298.0,403.5 L298.8,407.5 L299.6,403.5 L300.5,416.9 L301.3,419.4 L302.2,418.8 L303.0,420.0 L303.8,420.0 L304.7,420.0 L305.5,420.0 L306.4,420.0 L307.2,420.0 L308.1,420.0 L308.9,420.0 L309.7,420.0 L310.6,420.0 L311.4,420.0 L312.3,403.8 L313.1,388.2 L313.9,396.1 L314.8,394.6 L315.6,390.9 L316.5,387.0 L317.3,395.8 L318.1,402.6 L319.0,406.2 L319.8,415.1 L320.7,404.1 L321.5,416.3 L322.4,418.8 L323.2,420.0 L324.0,420.0 L324.9,420.0 L325.7,420.0 L326.6,420.0 L327.4,420.0 L328.2,420.0 L329.1,420.0 L329.9,420.0 L330.8,420.0 L331.6,420.0 L332.5,415.4 L333.3,392.8 L334.1,415.7 L335.0,411.4 L335.8,408.1 L336.7,407.5 L337.5,407.2 L338.3,409.3 L339.2,409.9 L340.0,415.7 L340.9,415.1 L341.7,398.6 L342.6,417.6 L343.4,420.0 L344.2,420.0 L345.1,420.0 L345.9,420.0 L346.8,420.0 L347.6,420.0 L348.4,420.0 L349.3,420.0 L350.1,420.0 L351.0,420.0 L351.8,419.7 L352.7,415.4 L353.5,377.8 L354.3,394.0 L355.2,389.7 L356.0,382.7 L356.9,390.6 L357.7,405.9 L358.5,381.8 L359.4,400.4 L360.2,405.3 L361.1,413.6 L361.9,407.8 L362.7,418.2 L363.6,420.0 L364.4,420.0 L365.3,420.0 L366.1,420.0 L367.0,420.0 L367.8,420.0 L368.6,420.0 L369.5,420.0 L370.3,420.0 L371.2,420.0 L372.0,419.7 L372.8,416.3 L373.7,415.7 L374.5,411.4 L375.4,403.5 L376.2,403.2 L377.1,397.4 L377.9,399.8 L378.7,392.5 L379.6,391.2 L380.4,394.0 L381.3,409.9 L382.1,411.4 L382.9,419.4 L383.8,420.0 L384.6,420.0 L385.5,420.0 L386.3,420.0 L387.2,420.0 L388.0,420.0 L388.8,420.0 L389.7,420.0 L390.5,420.0 L391.4,420.0 L392.2,419.7 L393.0,417.2 L393.9,402.6 L394.7,413.0 L395.6,407.5 L396.4,412.4 L397.3,408.1 L398.1,405.3 L398.9,411.1 L399.8,411.7 L400.6,412.7 L401.5,414.5 L402.3,415.4 L403.1,418.2 L404.0,420.0 L404.8,420.0 L405.7,420.0 L406.5,420.0 L407.3,420.0 L408.2,420.0 L409.0,420.0 L409.9,420.0 L410.7,420.0 L411.6,420.0 L412.4,418.5 L413.2,402.9 L414.1,394.6 L414.9,404.1 L415.8,404.7 L416.6,406.2 L417.4,405.9 L418.3,400.1 L419.1,397.4 L420.0,409.0 L420.8,411.7 L421.7,411.7 L422.5,400.4 L423.3,416.9 L424.2,420.0 L425.0,420.0 L425.9,420.0 L426.7,420.0 L427.5,420.0 L428.4,420.0 L429.2,420.0 L430.1,420.0 L430.9,420.0 L431.8,420.0 L432.6,419.1 L433.4,403.5 L434.3,400.4 L435.1,399.2 L436.0,398.9 L436.8,398.6 L437.6,398.3 L438.5,398.3 L439.3,374.7 L440.2,375.6 L441.0,399.8 L441.9,405.3 L442.7,402.0 L443.5,417.6 L444.4,420.0 L445.2,420.0 L446.1,420.0 L446.9,420.0 L447.7,420.0 L448.6,420.0 L449.4,420.0 L450.3,420.0 L451.1,420.0 L451.9,420.0 L452.8,419.1 L453.6,406.5 L454.5,399.8 L455.3,399.2 L456.2,399.2 L457.0,398.6 L457.8,398.6 L458.7,398.3 L459.5,398.6 L460.4,398.9 L461.2,399.2 L462.0,377.5 L462.9,393.7 L463.7,417.2 L464.6,420.0 L465.4,420.0 L466.3,420.0 L467.1,420.0 L467.9,420.0 L468.8,420.0 L469.6,420.0 L470.5,420.0 L471.3,420.0 L472.1,420.0 L473.0,419.4 L473.8,406.5 L474.7,400.7 L475.5,376.6 L476.4,376.3 L477.2,399.5 L478.0,399.2 L478.9,376.0 L479.7,376.6 L480.6,384.5 L481.4,387.0 L482.2,381.2 L483.1,400.4 L483.9,417.9 L484.8,420.0 L485.6,420.0 L486.5,420.0 L487.3,420.0 L488.1,420.0 L489.0,420.0 L489.8,420.0 L490.7,420.0 L491.5,420.0 L492.3,420.0 L493.2,418.5 L494.0,409.9 L494.9,380.8 L495.7,380.5 L496.5,379.9 L497.4,383.6 L498.2,388.5 L499.1,390.6 L499.9,392.2 L500.8,391.2 L501.6,404.1 L502.4,409.6 L503.3,411.7 L504.1,418.2 L505.0,420.0 L505.8,420.0 L506.6,420.0 L507.5,420.0 L508.3,420.0 L509.2,420.0 L510.0,420.0 L510.9,420.0 L511.7,420.0 L512.5,420.0 L513.4,419.7 L514.2,397.1 L515.1,399.8 L515.9,396.4 L516.7,396.4 L517.6,403.8 L518.4,409.9 L519.3,412.0 L520.1,413.3 L521.0,413.9 L521.8,400.7 L522.6,416.9 L523.5,418.2 L524.3,419.7 L525.2,420.0 L526.0,420.0 L526.8,420.0 L527.7,420.0 L528.5,420.0 L529.4,420.0 L530.2,420.0 L531.1,420.0 L531.9,420.0 L532.7,420.0 L533.6,419.7 L534.4,405.0 L535.3,413.6 L536.1,404.1 L536.9,402.9 L537.8,400.7 L538.6,399.8 L539.5,400.1 L540.3,412.0 L541.2,414.8 L542.0,415.4 L542.8,415.7 L543.7,416.6 L544.5,417.2 L545.4,419.4 L546.2,419.4 L547.0,419.4 L547.9,419.4 L548.7,419.4 L549.6,419.4 L550.4,419.4 L551.2,419.4 L552.1,419.4 L552.9,419.4 L553.8,418.2 L554.6,414.5 L555.5,390.6 L556.3,395.8 L557.1,400.7 L558.0,403.5 L558.8,405.0 L559.7,399.2 L560.5,402.0 L561.3,407.2 L562.2,413.6 L563.0,405.0 L563.9,415.1 L564.7,416.6 L565.6,420.0 L566.4,420.0 L567.2,420.0 L568.1,420.0 L568.9,420.0 L569.8,420.0 L570.6,420.0 L571.4,420.0 L572.3,420.0 L573.1,420.0 L574.0,419.1 L574.8,414.2 L575.7,403.5 L576.5,397.4 L577.3,384.5 L578.2,404.4 L579.0,409.6 L579.9,400.7 L580.7,407.8 L581.5,403.8 L582.4,394.0 L583.2,411.4 L584.1,405.6 L584.9,416.6 L585.8,420.0 L586.6,420.0 L587.4,420.0 L588.3,420.0 L589.1,420.0 L590.0,420.0 L590.8,420.0 L591.6,420.0 L592.5,420.0 L593.3,420.0 L594.2,418.5 L595.0,414.8 L595.8,407.2 L596.7,409.3 L597.5,409.0 L598.4,411.1 L599.2,412.4 L600.1,412.0 L600.9,413.0 L601.7,413.0 L602.6,414.8 L603.4,416.0 L604.3,415.1 L605.1,419.1 L605.9,420.0 L606.8,420.0 L607.6,420.0 L608.5,420.0 L609.3,420.0 L610.2,420.0 L611.0,420.0 L611.8,420.0 L612.7,420.0 L613.5,420.0 L614.4,420.0 L615.2,417.2 L616.0,414.5 L616.9,409.9 L617.7,407.8 L618.6,400.1 L619.4,392.5 L620.3,398.0 L621.1,409.6 L621.9,409.9 L622.8,411.4 L623.6,402.9 L624.5,406.5 L625.3,413.9 L626.1,420.0 L627.0,420.0 L627.8,420.0 L628.7,420.0 L629.5,420.0 L630.4,420.0 L631.2,420.0 L632.0,420.0 L632.9,420.0 L633.7,420.0 L634.6,418.8 L635.4,413.6 L636.2,413.3 L637.1,402.9 L637.9,399.8 L638.8,411.4 L639.6,411.7 L640.4,407.5 L641.3,411.7 L642.1,411.1 L643.0,400.7 L643.8,414.8 L644.7,414.5 L645.5,415.4 L646.3,420.0 L647.2,420.0 L648.0,420.0 L648.9,420.0 L649.7,420.0 L650.5,420.0 L651.4,420.0 L652.2,420.0 L653.1,420.0 L653.9,420.0 L654.8,415.7 L655.6,401.6 L656.4,399.8 L657.3,406.8 L658.1,400.1 L659.0,406.8 L659.8,410.5 L660.6,411.4 L661.5,405.3 L662.3,389.7 L663.2,402.3 L664.0,395.5 L664.9,401.3 L665.7,417.6 L666.5,420.0 L667.4,420.0 L668.2,420.0 L669.1,420.0 L669.9,420.0 L670.7,420.0 L671.6,420.0 L672.4,420.0 L673.3,420.0 L674.1,420.0 L675.0,416.3 L675.8,391.2 L676.6,376.9 L677.5,375.6 L678.3,395.8 L679.2,399.2 L680.0,377.2" stroke="#d62728" stroke-width="2" fill="none" opacity="0.8"/>
<!-- Forecast -->
<path d="M80.0,175.0 L80.8,171.6 L81.7,179.9 L82.5,199.8 L83.4,229.4 L84.2,238.9 L85.0,244.7 L85.9,249.3 L86.7,250.5 L87.6,247.8 L88.4,234.6 L89.3,207.1 L90.1,176.2 L90.9,158.2 L91.8,154.8 L92.6,157.2 L93.5,161.8 L94.3,166.7 L95.1,171.3 L96.0,174.7 L96.8,175.9 L97.7,176.8 L98.5,177.4 L99.4,182.0 L100.2,184.2 L101.0,183.2 L101.9,187.5 L102.7,207.7 L103.6,224.2 L104.4,244.4 L105.2,254.5 L106.1,258.2 L106.9,260.3 L107.8,257.9 L108.6,244.4 L109.5,216.0 L110.3,182.9 L111.1,161.8 L112.0,156.3 L112.8,156.6 L113.7,159.1 L114.5,162.4 L115.3,165.8 L116.2,168.6 L117.0,168.9 L117.9,167.0 L118.7,167.3 L119.6,171.6 L120.4,173.1 L121.2,170.7 L122.1,178.7 L122.9,198.8 L123.8,202.2 L124.6,231.6 L125.4,239.2 L126.3,243.8 L127.1,248.4 L128.0,249.3 L128.8,246.6 L129.6,234.6 L130.5,205.6 L131.3,172.5 L132.2,154.2 L133.0,149.3 L133.9,151.1 L134.7,153.3 L135.5,158.5 L136.4,162.4 L137.2,166.7 L138.1,168.3 L138.9,167.6 L139.7,169.2 L140.6,173.1 L141.4,173.8 L142.3,169.5 L143.1,177.7 L144.0,206.2 L144.8,221.8 L145.6,230.0 L146.5,235.2 L147.3,239.8 L148.2,242.6 L149.0,240.4 L149.8,234.6 L150.7,224.2 L151.5,208.9 L152.4,190.9 L153.2,180.8 L154.1,181.7 L154.9,188.1 L155.7,192.1 L156.6,196.1 L157.4,199.8 L158.3,203.4 L159.1,204.4 L159.9,203.7 L160.8,201.9 L161.6,200.7 L162.5,195.2 L163.3,196.4 L164.2,231.0 L165.0,233.1 L165.8,245.0 L166.7,252.4 L167.5,254.2 L168.4,253.6 L169.2,248.7 L170.0,241.1 L170.9,229.7 L171.7,212.3 L172.6,197.3 L173.4,197.9 L174.2,198.2 L175.1,200.4 L175.9,204.4 L176.8,208.0 L177.6,209.2 L178.5,210.8 L179.3,207.7 L180.1,202.8 L181.0,201.6 L181.8,198.2 L182.7,198.2 L183.5,214.1 L184.3,233.7 L185.2,246.9 L186.0,253.9 L186.9,257.3 L187.7,259.4 L188.6,256.4 L189.4,241.7 L190.2,214.4 L191.1,182.9 L191.9,163.7 L192.8,160.0 L193.6,161.5 L194.4,166.4 L195.3,170.4 L196.1,174.1 L197.0,176.8 L197.8,178.3 L198.7,179.0 L199.5,178.7 L200.3,183.5 L201.2,189.4 L202.0,188.4 L202.9,192.7 L203.7,210.8 L204.5,233.7 L205.4,248.4 L206.2,257.3 L207.1,261.9 L207.9,264.3 L208.8,261.6 L209.6,247.8 L210.4,223.3 L211.3,192.7 L212.1,174.4 L213.0,171.6 L213.8,171.0 L214.6,173.1 L215.5,174.1 L216.3,175.6 L217.2,177.7 L218.0,179.0 L218.8,179.3 L219.7,178.3 L220.5,183.2 L221.4,189.7 L222.2,189.7 L223.1,193.6 L223.9,211.7 L224.7,227.9 L225.6,247.2 L226.4,251.8 L227.3,253.3 L228.1,253.9 L228.9,250.2 L229.8,235.9 L230.6,208.6 L231.5,178.0 L232.3,159.7 L233.2,155.7 L234.0,157.5 L234.8,162.1 L235.7,167.0 L236.5,171.0 L237.4,174.4 L238.2,175.9 L239.0,176.5 L239.9,177.4 L240.7,181.1 L241.6,182.9 L242.4,180.5 L243.3,183.9 L244.1,204.0 L244.9,228.2 L245.8,241.1 L246.6,250.2 L247.5,253.9 L248.3,256.0 L249.1,252.7 L250.0,238.0 L250.8,209.9 L251.7,180.2 L252.5,161.8 L253.4,158.2 L254.2,159.7 L255.0,164.3 L255.9,168.6 L256.7,172.5 L257.6,175.6 L258.4,176.8 L259.2,177.7 L260.1,178.0 L260.9,182.6 L261.8,186.0 L262.6,184.2 L263.5,187.8 L264.3,207.1 L265.1,235.9 L266.0,245.0 L266.8,250.5 L267.7,253.3 L268.5,254.5 L269.3,250.5 L270.2,235.9 L271.0,210.2 L271.9,181.4 L272.7,163.7 L273.5,161.5 L274.4,163.4 L275.2,168.9 L276.1,172.2 L276.9,175.9 L277.8,178.3 L278.6,179.6 L279.4,179.3 L280.3,177.4 L281.1,182.3 L282.0,190.0 L282.8,192.4 L283.6,195.5 L284.5,213.2 L285.3,238.6 L286.2,252.7 L287.0,261.6 L287.9,267.1 L288.7,269.8 L289.5,269.2 L290.4,266.1 L291.2,257.0 L292.1,242.0 L292.9,224.2 L293.7,211.4 L294.6,205.3 L295.4,205.9 L296.3,205.0 L297.1,208.6 L298.0,213.5 L298.8,215.1 L299.6,213.2 L300.5,209.9 L301.3,210.2 L302.2,212.9 L303.0,211.1 L303.8,209.6 L304.7,221.2 L305.5,238.9 L306.4,253.3 L307.2,261.2 L308.1,267.1 L308.9,268.9 L309.7,267.7 L310.6,263.1 L311.4,253.6 L312.3,241.4 L313.1,222.4 L313.9,210.2 L314.8,207.4 L315.6,201.9 L316.5,201.6 L317.3,205.3 L318.1,207.7 L319.0,207.7 L319.8,206.2 L320.7,198.5 L321.5,197.6 L322.4,198.8 L323.2,197.6 L324.0,199.5 L324.9,214.8 L325.7,230.0 L326.6,247.8 L327.4,257.0 L328.2,261.6 L329.1,264.0 L329.9,261.2 L330.8,248.7 L331.6,220.0 L332.5,187.5 L333.3,166.7 L334.1,161.5 L335.0,160.6 L335.8,164.3 L336.7,167.6 L337.5,171.0 L338.3,173.8 L339.2,174.7 L340.0,175.3 L340.9,175.3 L341.7,180.2 L342.6,182.6 L343.4,181.7 L344.2,186.9 L345.1,207.1 L345.9,230.0 L346.8,243.8 L347.6,253.3 L348.4,257.9 L349.3,260.3 L350.1,257.3 L351.0,243.8 L351.8,216.3 L352.7,185.4 L353.5,165.5 L354.3,160.9 L355.2,160.0 L356.0,163.7 L356.9,167.3 L357.7,170.7 L358.5,173.8 L359.4,175.0 L360.2,175.6 L361.1,175.9 L361.9,180.5 L362.7,184.8 L363.6,184.5 L364.4,188.4 L365.3,207.7 L366.1,229.7 L367.0,246.6 L367.8,255.7 L368.6,260.6 L369.5,263.1 L370.3,260.3 L371.2,248.1 L372.0,219.3 L372.8,187.2 L373.7,167.9 L374.5,163.4 L375.4,162.1 L376.2,164.9 L377.1,167.6 L377.9,170.7 L378.7,173.1 L379.6,174.1 L380.4,174.1 L381.3,173.8 L382.1,178.7 L382.9,182.3 L383.8,181.4 L384.6,185.1 L385.5,204.7 L386.3,373.2 L387.2,239.5 L388.0,248.1 L388.8,251.5 L389.7,252.1 L390.5,247.5 L391.4,234.3 L392.2,204.4 L393.0,170.1 L393.9,151.1 L394.7,145.3 L395.6,146.2 L396.4,149.6 L397.3,154.5 L398.1,157.9 L398.9,160.9 L399.8,163.1 L400.6,162.1 L401.5,160.6 L402.3,162.7 L403.1,163.7 L404.0,160.9 L404.8,170.1 L405.7,189.1 L406.5,213.8 L407.3,225.5 L408.2,232.8 L409.0,237.1 L409.9,238.3 L410.7,235.6 L411.6,223.3 L412.4,195.2 L413.2,164.0 L414.1,148.4 L414.9,145.3 L415.8,147.8 L416.6,151.1 L417.4,155.7 L418.3,159.7 L419.1,163.7 L420.0,164.9 L420.8,164.3 L421.7,164.3 L422.5,168.6 L423.3,169.2 L424.2,165.2 L425.0,174.1 L425.9,192.7 L426.7,221.5 L427.5,228.2 L428.4,231.6 L429.2,236.2 L430.1,238.6 L430.9,236.5 L431.8,228.8 L432.6,218.4 L433.4,205.3 L434.3,187.8 L435.1,179.0 L436.0,179.0 L436.8,185.7 L437.6,189.7 L438.5,194.0 L439.3,198.5 L440.2,201.9 L441.0,202.5 L441.9,201.6 L442.7,199.8 L443.5,198.8 L444.4,193.0 L445.2,194.3 L446.1,207.7 L446.9,236.5 L447.7,240.8 L448.6,245.3 L449.4,249.9 L450.3,251.5 L451.1,249.9 L451.9,245.0 L452.8,238.3 L453.6,228.5 L454.5,212.3 L455.3,202.2 L456.2,203.1 L457.0,200.4 L457.8,201.6 L458.7,207.4 L459.5,210.2 L460.4,208.9 L461.2,205.6 L462.0,205.0 L462.9,199.2 L463.7,203.7 L464.6,205.6 L465.4,204.0 L466.3,215.4 L467.1,235.2 L467.9,249.6 L468.8,257.6 L469.6,262.8 L470.5,264.6 L471.3,261.2 L472.1,247.5 L473.0,222.1 L473.8,193.6 L474.7,176.5 L475.5,173.1 L476.4,170.4 L477.2,170.1 L478.0,170.7 L478.9,171.3 L479.7,171.9 L480.6,168.3 L481.4,164.9 L482.2,166.7 L483.1,175.3 L483.9,182.6 L484.8,186.9 L485.6,189.4 L486.5,208.0 L487.3,231.0 L488.1,250.8 L489.0,260.0 L489.8,266.4 L490.7,268.6 L491.5,266.1 L492.3,253.0 L493.2,228.5 L494.0,201.3 L494.9,183.5 L495.7,177.1 L496.5,170.1 L497.4,166.4 L498.2,165.2 L499.1,163.4 L499.9,162.1 L500.8,159.1 L501.6,154.2 L502.4,155.7 L503.3,168.3 L504.1,177.4 L505.0,182.9 L505.8,184.8 L506.6,204.4 L507.5,229.7 L508.3,248.1 L509.2,257.3 L510.0,263.1 L510.9,266.1 L511.7,266.1 L512.5,255.7 L513.4,231.6 L514.2,203.7 L515.1,183.2 L515.9,174.7 L516.7,169.2 L517.6,167.3 L518.4,167.9 L519.3,170.1 L520.1,172.8 L521.0,173.8 L521.8,174.1 L522.6,174.1 L523.5,178.7 L524.3,182.9 L525.2,182.9 L526.0,186.6 L526.8,206.2 L527.7,219.3 L528.5,242.9 L529.4,253.9 L530.2,257.3 L531.1,259.7 L531.9,257.0 L532.7,244.1 L533.6,212.9 L534.4,178.7 L535.3,158.2 L536.1,151.7 L536.9,152.0 L537.8,153.3 L538.6,157.2 L539.5,160.6 L540.3,164.0 L541.2,165.2 L542.0,163.7 L542.8,163.7 L543.7,165.8 L544.5,168.6 L545.4,165.5 L546.2,174.4 L547.0,194.6 L547.9,212.0 L548.7,230.0 L549.6,238.3 L550.4,242.3 L551.2,243.8 L552.1,241.1 L552.9,228.5 L553.8,197.9 L554.6,166.4 L555.5,149.9 L556.3,145.3 L557.1,146.8 L558.0,150.5 L558.8,155.7 L559.7,159.4 L560.5,162.7 L561.3,164.9 L562.2,163.4 L563.0,163.4 L563.9,167.0 L564.7,167.0 L565.6,163.1 L566.4,170.7 L567.2,189.7 L568.1,213.5 L568.9,224.8 L569.8,229.7 L570.6,233.7 L571.4,234.6 L572.3,233.7 L573.1,225.2 L574.0,212.9 L574.8,200.1 L575.7,184.8 L576.5,176.5 L577.3,171.6 L578.2,176.5 L579.0,181.7 L579.9,189.1 L580.7,190.9 L581.5,190.3 L582.4,191.5 L583.2,187.2 L584.1,187.8 L584.9,186.0 L585.8,179.3 L586.6,182.9 L587.4,198.5 L588.3,372.0 L589.1,227.6 L590.0,233.1 L590.8,236.8 L591.6,239.5 L592.5,238.3 L593.3,235.2 L594.2,225.5 L595.0,212.6 L595.8,198.5 L596.7,184.2 L597.5,176.2 L598.4,174.4 L599.2,176.8 L600.1,179.6 L600.9,183.5 L601.7,185.4 L602.6,182.6 L603.4,175.6 L604.3,177.7 L605.1,172.5 L605.9,169.2 L606.8,175.9 L607.6,196.4 L608.5,220.3 L609.3,233.7 L610.2,240.4 L611.0,244.1 L611.8,245.6 L612.7,242.0 L613.5,229.1 L614.4,200.1 L615.2,169.8 L616.0,177.1 L616.9,176.8 L617.7,170.7 L618.6,175.9 L619.4,180.5 L620.3,188.4 L621.1,190.9 L621.9,188.8 L622.8,191.2 L623.6,186.0 L624.5,187.2 L625.3,186.0 L626.1,179.3 L627.0,182.6 L627.8,197.9 L628.7,202.2 L629.5,235.2 L630.4,242.9 L631.2,247.2 L632.0,248.1 L632.9,245.0 L633.7,231.6 L634.6,204.7 L635.4,180.5 L636.2,164.0 L637.1,160.3 L637.9,160.3 L638.8,164.6 L639.6,167.9 L640.4,171.3 L641.3,174.4 L642.1,175.6 L643.0,175.9 L643.8,176.2 L644.7,180.8 L645.5,184.8 L646.3,182.6 L647.2,186.0 L648.0,205.6 L648.9,228.2 L649.7,242.6 L650.5,250.2 L651.4,253.3 L652.2,255.1 L653.1,252.4 L653.9,237.1 L654.8,210.8 L655.6,182.0 L656.4,164.0 L657.3,160.3 L658.1,160.3 L659.0,164.9 L659.8,168.3 L660.6,171.6 L661.5,174.4 L662.3,175.6 L663.2,175.9 L664.0,176.5 L664.9,181.1 L665.7,185.1 L666.5,182.9 L667.4,186.3 L668.2,205.9 L669.1,230.0 L669.9,243.5 L670.7,249.6 L671.6,251.5 L672.4,253.0 L673.3,249.3 L674.1,234.6 L675.0,208.6 L675.8,181.1 L676.6,164.9 L677.5,162.1 L678.3,162.1 L679.2,166.4 L680.0,167.6" stroke="#9467bd" stroke-width="2" fill="none" opacity="0.8"/>
<!-- Total Generation -->
<path d="M80.0,123.9 L80.8,115.0 L81.7,115.9 L82.5,122.7 L83.4,142.3 L84.2,160.0 L85.0,127.3 L85.9,125.4 L86.7,123.0 L87.6,123.9 L88.4,125.7 L89.3,123.3 L90.1,124.5 L90.9,144.1 L91.8,121.1 L92.6,149.6 L93.5,154.8 L94.3,138.0 L95.1,141.3 L96.0,128.5 L96.8,124.5 L97.7,156.0 L98.5,180.5 L99.4,106.2 L100.2,80.2 L101.0,79.5 L101.9,151.4 L102.7,161.5 L103.6,197.6 L104.4,244.1 L105.2,258.5 L106.1,255.1 L106.9,254.2 L107.8,251.2 L108.6,228.8 L109.5,194.6 L110.3,147.1 L111.1,163.1 L112.0,199.8 L112.8,199.8 L113.7,186.9 L114.5,191.2 L115.3,161.8 L116.2,148.4 L117.0,161.8 L117.9,179.6 L118.7,187.2 L119.6,149.6 L120.4,137.1 L121.2,145.3 L122.1,158.5 L122.9,166.1 L123.8,167.6 L124.6,171.9 L125.4,154.8 L126.3,159.1 L127.1,162.7 L128.0,162.4 L128.8,167.6 L129.6,164.3 L130.5,163.7 L131.3,185.1 L132.2,194.3 L133.0,202.2 L133.9,218.7 L134.7,230.7 L135.5,224.8 L136.4,227.6 L137.2,230.0 L138.1,236.2 L138.9,232.8 L139.7,204.4 L140.6,201.0 L141.4,171.6 L142.3,222.1 L143.1,198.2 L144.0,188.1 L144.8,196.4 L145.6,188.1 L146.5,183.2 L147.3,179.0 L148.2,173.1 L149.0,188.4 L149.8,185.1 L150.7,181.7 L151.5,197.0 L152.4,202.2 L153.2,190.3 L154.1,180.5 L154.9,204.7 L155.7,182.6 L156.6,181.1 L157.4,179.3 L158.3,198.5 L159.1,154.8 L159.9,186.0 L160.8,165.2 L161.6,137.4 L162.5,119.6 L163.3,125.7 L164.2,141.3 L165.0,156.0 L165.8,168.3 L166.7,196.7 L167.5,196.7 L168.4,208.0 L169.2,206.8 L170.0,140.7 L170.9,165.5 L171.7,180.8 L172.6,202.8 L173.4,222.4 L174.2,223.9 L175.1,224.8 L175.9,220.0 L176.8,219.3 L177.6,216.0 L178.5,186.9 L179.3,202.8 L180.1,149.6 L181.0,111.4 L181.8,117.5 L182.7,124.8 L183.5,137.4 L184.3,194.6 L185.2,214.8 L186.0,227.0 L186.9,231.0 L187.7,237.4 L188.6,235.9 L189.4,216.6 L190.2,146.2 L191.1,161.8 L191.9,177.1 L192.8,170.7 L193.6,196.7 L194.4,185.4 L195.3,182.0 L196.1,172.5 L197.0,161.5 L197.8,175.6 L198.7,166.7 L199.5,193.3 L200.3,179.0 L201.2,191.2 L202.0,205.9 L202.9,220.9 L203.7,222.4 L204.5,219.6 L205.4,205.9 L206.2,198.5 L207.1,181.7 L207.9,166.7 L208.8,171.6 L209.6,162.7 L210.4,166.1 L211.3,143.8 L212.1,67.6 L213.0,182.9 L213.8,167.6 L214.6,186.9 L215.5,182.9 L216.3,189.7 L217.2,235.6 L218.0,245.3 L218.8,254.8 L219.7,244.1 L220.5,162.7 L221.4,180.8 L222.2,188.8 L223.1,190.3 L223.9,218.4 L224.7,218.7 L225.6,213.2 L226.4,224.8 L227.3,217.8 L228.1,201.9 L228.9,217.2 L229.8,222.1 L230.6,137.1 L231.5,97.3 L232.3,108.0 L233.2,129.1 L234.0,154.2 L234.8,161.2 L235.7,155.1 L236.5,165.5 L237.4,206.2 L238.2,207.1 L239.0,215.1 L239.9,161.2 L240.7,159.4 L241.6,104.9 L242.4,91.2 L243.3,78.0 L244.1,110.1 L244.9,131.9 L245.8,142.9 L246.6,163.4 L247.5,161.8 L248.3,160.6 L249.1,155.4 L250.0,131.5 L250.8,101.3 L251.7,85.1 L252.5,106.5 L253.4,131.2 L254.2,135.5 L255.0,158.8 L255.9,167.0 L256.7,179.0 L257.6,183.5 L258.4,181.4 L259.2,183.9 L260.1,178.0 L260.9,116.3 L261.8,97.3 L262.6,96.7 L263.5,106.5 L264.3,168.6 L265.1,175.6 L266.0,226.4 L266.8,181.4 L267.7,177.4 L268.5,162.7 L269.3,154.2 L270.2,145.3 L271.0,143.8 L271.9,128.2 L272.7,104.3 L273.5,102.8 L274.4,98.5 L275.2,109.8 L276.1,115.3 L276.9,141.3 L277.8,177.4 L278.6,151.7 L279.4,195.5 L280.3,199.2 L281.1,137.4 L282.0,116.6 L282.8,114.4 L283.6,141.9 L284.5,145.0 L285.3,165.5 L286.2,205.9 L287.0,210.8 L287.9,225.2 L288.7,220.0 L289.5,218.7 L290.4,219.3 L291.2,203.1 L292.1,210.8 L292.9,258.5 L293.7,247.5 L294.6,249.9 L295.4,239.2 L296.3,234.3 L297.1,228.8 L298.0,207.4 L298.8,193.3 L299.6,191.5 L300.5,201.3 L301.3,222.4 L302.2,187.8 L303.0,145.3 L303.8,115.9 L304.7,152.3 L305.5,179.3 L306.4,201.3 L307.2,196.1 L308.1,200.4 L308.9,183.9 L309.7,189.4 L310.6,203.7 L311.4,208.6 L312.3,199.5 L313.1,183.9 L313.9,220.0 L314.8,224.8 L315.6,206.5 L316.5,212.9 L317.3,219.0 L318.1,199.2 L319.0,212.6 L319.8,198.5 L320.7,193.6 L321.5,192.4 L322.4,206.5 L323.2,215.1 L324.0,207.7 L324.9,217.8 L325.7,265.2 L326.6,271.3 L327.4,272.9 L328.2,272.3 L329.1,265.5 L329.9,235.9 L330.8,238.6 L331.6,189.4 L332.5,191.5 L333.3,182.6 L334.1,179.3 L335.0,178.0 L335.8,178.7 L336.7,183.2 L337.5,204.7 L338.3,178.0 L339.2,196.1 L340.0,200.4 L340.9,207.4 L341.7,154.5 L342.6,175.0 L343.4,174.7 L344.2,168.9 L345.1,160.0 L345.9,175.6 L346.8,185.7 L347.6,175.6 L348.4,166.1 L349.3,160.3 L350.1,165.5 L351.0,151.7 L351.8,154.5 L352.7,140.1 L353.5,102.5 L354.3,140.1 L355.2,160.3 L356.0,130.3 L356.9,120.8 L357.7,145.9 L358.5,130.3 L359.4,151.4 L360.2,149.9 L361.1,169.5 L361.9,152.3 L362.7,172.8 L363.6,186.9 L364.4,196.1 L365.3,199.8 L366.1,195.5 L367.0,194.9 L367.8,194.0 L368.6,197.9 L369.5,212.9 L370.3,190.3 L371.2,200.1 L372.0,180.2 L372.8,152.7 L373.7,186.0 L374.5,235.9 L375.4,227.0 L376.2,211.7 L377.1,211.4 L377.9,212.0 L378.7,160.6 L379.6,182.6 L380.4,177.1 L381.3,219.6 L382.1,195.2 L382.9,208.6 L383.8,202.8 L384.6,133.1 L385.5,160.9 L386.3,172.5 L387.2,202.2 L388.0,190.9 L388.8,185.4 L389.7,194.9 L390.5,207.1 L391.4,176.5 L392.2,165.2 L393.0,136.4 L393.9,155.7 L394.7,159.4 L395.6,148.4 L396.4,185.1 L397.3,178.7 L398.1,190.9 L398.9,212.6 L399.8,233.1 L400.6,238.0 L401.5,228.2 L402.3,211.4 L403.1,194.9 L404.0,196.4 L404.8,207.4 L405.7,201.9 L406.5,179.9 L407.3,183.2 L408.2,200.7 L409.0,216.0 L409.9,223.9 L410.7,207.1 L411.6,195.5 L412.4,188.1 L413.2,164.3 L414.1,150.5 L414.9,162.4 L415.8,183.5 L416.6,206.8 L417.4,194.0 L418.3,204.4 L419.1,169.5 L420.0,192.7 L420.8,220.9 L421.7,191.8 L422.5,168.9 L423.3,164.6 L424.2,174.1 L425.0,185.1 L425.9,190.0 L426.7,193.0 L427.5,194.9 L428.4,203.1 L429.2,193.6 L430.1,173.1 L430.9,182.9 L431.8,185.7 L432.6,170.4 L433.4,149.0 L434.3,175.0 L435.1,159.1 L436.0,185.4 L436.8,186.3 L437.6,189.1 L438.5,210.8 L439.3,191.2 L440.2,195.5 L441.0,221.5 L441.9,229.7 L442.7,226.4 L443.5,225.5 L444.4,200.1 L445.2,208.3 L446.1,216.0 L446.9,224.8 L447.7,210.2 L448.6,227.0 L449.4,235.9 L450.3,232.8 L451.1,219.3 L451.9,225.2 L452.8,204.4 L453.6,224.5 L454.5,208.6 L455.3,207.7 L456.2,229.7 L457.0,233.4 L457.8,228.2 L458.7,208.6 L459.5,221.5 L460.4,211.7 L461.2,206.8 L462.0,164.0 L462.9,150.2 L463.7,176.5 L464.6,163.7 L465.4,151.4 L466.3,148.1 L467.1,137.4 L467.9,171.6 L468.8,216.3 L469.6,235.9 L470.5,214.1 L471.3,208.6 L472.1,177.7 L473.0,170.4 L473.8,176.2 L474.7,197.9 L475.5,183.2 L476.4,191.5 L477.2,220.9 L478.0,218.1 L478.9,178.7 L479.7,148.7 L480.6,161.2 L481.4,180.8 L482.2,203.1 L483.1,180.2 L483.9,140.7 L484.8,133.4 L485.6,127.0 L486.5,167.0 L487.3,201.6 L488.1,222.7 L489.0,244.1 L489.8,232.5 L490.7,246.9 L491.5,247.8 L492.3,248.4 L493.2,248.4 L494.0,240.4 L494.9,219.0 L495.7,224.2 L496.5,223.9 L497.4,226.7 L498.2,222.4 L499.1,227.3 L499.9,224.2 L500.8,216.9 L501.6,207.7 L502.4,203.1 L503.3,201.3 L504.1,221.2 L505.0,204.0 L505.8,192.1 L506.6,227.3 L507.5,249.6 L508.3,249.0 L509.2,254.8 L510.0,259.4 L510.9,246.6 L511.7,238.9 L512.5,235.6 L513.4,244.1 L514.2,214.1 L515.1,204.7 L515.9,190.0 L516.7,177.4 L517.6,176.5 L518.4,181.4 L519.3,242.3 L520.1,206.8 L521.0,191.2 L521.8,180.5 L522.6,198.2 L523.5,195.5 L524.3,173.1 L525.2,144.4 L526.0,146.2 L526.8,169.2 L527.7,174.1 L528.5,173.1 L529.4,163.7 L530.2,169.8 L531.1,162.1 L531.9,171.9 L532.7,170.7 L533.6,179.0 L534.4,166.7 L535.3,194.6 L536.1,197.0 L536.9,196.7 L537.8,181.7 L538.6,158.5 L539.5,155.7 L540.3,170.4 L541.2,150.2 L542.0,232.2 L542.8,226.4 L543.7,227.6 L544.5,185.7 L545.4,215.7 L546.2,218.7 L547.0,200.4 L547.9,196.4 L548.7,223.9 L549.6,214.8 L550.4,189.4 L551.2,184.2 L552.1,156.9 L552.9,161.8 L553.8,168.3 L554.6,145.0 L555.5,76.8 L556.3,93.0 L557.1,117.5 L558.0,119.6 L558.8,174.1 L559.7,182.0 L560.5,169.8 L561.3,151.4 L562.2,171.9 L563.0,156.9 L563.9,170.1 L564.7,182.9 L565.6,192.4 L566.4,189.1 L567.2,184.5 L568.1,209.2 L568.9,237.7 L569.8,241.4 L570.6,182.9 L571.4,171.9 L572.3,173.8 L573.1,176.8 L574.0,229.4 L574.8,234.0 L575.7,236.5 L576.5,223.3 L577.3,205.0 L578.2,238.0 L579.0,239.8 L579.9,221.8 L580.7,231.0 L581.5,231.3 L582.4,228.2 L583.2,244.1 L584.1,211.7 L584.9,220.9 L585.8,149.3 L586.6,146.8 L587.4,221.2 L588.3,223.0 L589.1,216.3 L590.0,234.3 L590.8,243.5 L591.6,239.5 L592.5,250.5 L593.3,257.6 L594.2,259.4 L595.0,243.8 L595.8,227.3 L596.7,226.4 L597.5,219.6 L598.4,208.6 L599.2,240.1 L600.1,243.8 L600.9,240.1 L601.7,242.6 L602.6,243.2 L603.4,216.0 L604.3,220.0 L605.1,221.5 L605.9,223.0 L606.8,220.3 L607.6,216.9 L608.5,220.9 L609.3,228.8 L610.2,242.3 L611.0,251.2 L611.8,260.0 L612.7,256.7 L613.5,215.1 L614.4,216.6 L615.2,216.6 L616.0,213.8 L616.9,210.2 L617.7,207.4 L618.6,197.9 L619.4,190.3 L620.3,201.0 L621.1,214.4 L621.9,214.1 L622.8,215.1 L623.6,204.4 L624.5,207.4 L625.3,182.3 L626.1,212.0 L627.0,210.8 L627.8,215.4 L628.7,220.9 L629.5,222.1 L630.4,218.7 L631.2,218.7 L632.0,212.3 L632.9,208.0 L633.7,197.6 L634.6,169.8 L635.4,177.7 L636.2,183.2 L637.1,172.8 L637.9,171.9 L638.8,188.1 L639.6,192.1 L640.4,169.2 L641.3,189.4 L642.1,237.4 L643.0,227.9 L643.8,246.9 L644.7,243.5 L645.5,200.7 L646.3,205.3 L647.2,221.2 L648.0,218.1 L648.9,234.6 L649.7,241.4 L650.5,235.6 L651.4,218.1 L652.2,207.1 L653.1,191.2 L653.9,219.3 L654.8,204.7 L655.6,180.2 L656.4,210.2 L657.3,205.9 L658.1,216.9 L659.0,214.8 L659.8,225.5 L660.6,217.2 L661.5,212.9 L662.3,207.7 L663.2,205.9 L664.0,201.0 L664.9,207.7 L665.7,168.9 L666.5,172.8 L667.4,200.1 L668.2,201.0 L669.1,187.8 L669.9,210.8 L670.7,199.5 L671.6,198.5 L672.4,199.5 L673.3,191.5 L674.1,177.1 L675.0,148.4 L675.8,131.5 L676.6,162.1 L677.5,182.0 L678.3,206.8 L679.2,201.0 L680.0,190.0" stroke="#8c564b" stroke-width="2" fill="none" opacity="0.8"/>
<!-- Forecast Difference -->
<path d="M80.0,420.0 L80.8,420.0 L81.7,420.0 L82.5,420.0 L83.4,420.0 L84.2,420.0 L85.0,420.0 L85.9,420.0 L86.7,420.0 L87.6,420.0 L88.4,420.0 L89.3,420.0 L90.1,420.0 L90.9,420.0 L91.8,420.0 L92.6,420.0 L93.5,420.0 L94.3,420.0 L95.1,420.0 L96.0,420.0 L96.8,420.0 L97.7,420.0 L98.5,420.0 L99.4,420.0 L100.2,420.0 L101.0,420.0 L101.9,420.0 L102.7,420.0 L103.6,420.0 L104.4,420.0 L105.2,420.0 L106.1,420.0 L106.9,420.0 L107.8,420.0 L108.6,420.0 L109.5,420.0 L110.3,420.0 L111.1,420.0 L112.0,420.0 L112.8,420.0 L113.7,420.0 L114.5,420.0 L115.3,420.0 L116.2,420.0 L117.0,420.0 L117.9,420.0 L118.7,420.0 L119.6,420.0 L120.4,420.0 L121.2,420.0 L122.1,420.0 L122.9,420.0 L123.8,420.0 L124.6,420.0 L125.4,420.0 L126.3,420.0 L127.1,420.0 L128.0,420.0 L128.8,420.0 L129.6,420.0 L130.5,420.0 L131.3,420.0 L132.2,420.0 L133.0,420.0 L133.9,420.0 L134.7,420.0 L135.5,420.0 L136.4,420.0 L137.2,420.0 L138.1,420.0 L138.9,420.0 L139.7,420.0 L140.6,420.0 L141.4,420.0 L142.3,420.0 L143.1,420.0 L144.0,420.0 L144.8,420.0 L145.6,420.0 L146.5,420.0 L147.3,420.0 L148.2,420.0 L149.0,420.0 L149.8,420.0 L150.7,420.0 L151.5,420.0 L152.4,420.0 L153.2,420.0 L154.1,420.0 L154.9,420.0 L155.7,420.0 L156.6,420.0 L157.4,420.0 L158.3,420.0 L159.1,420.0 L159.9,420.0 L160.8,420.0 L161.6,420.0 L162.5,420.0 L163.3,420.0 L164.2,420.0 L165.0,420.0 L165.8,420.0 L166.7,420.0 L167.5,420.0 L168.4,420.0 L169.2,420.0 L170.0,420.0 L170.9,420.0 L171.7,420.0 L172.6,420.0 L173.4,420.0 L174.2,420.0 L175.1,420.0 L175.9,420.0 L176.8,420.0 L177.6,420.0 L178.5,420.0 L179.3,420.0 L180.1,420.0 L181.0,420.0 L181.8,420.0 L182.7,420.0 L183.5,420.0 L184.3,420.0 L185.2,420.0 L186.0,420.0 L186.9,420.0 L187.7,420.0 L188.6,420.0 L189.4,420.0 L190.2,420.0 L191.1,420.0 L191.9,420.0 L192.8,420.0 L193.6,420.0 L194.4,420.0 L195.3,420.0 L196.1,420.0 L197.0,420.0 L197.8,420.0 L198.7,420.0 L199.5,420.0 L200.3,420.0 L201.2,420.0 L202.0,420.0 L202.9,420.0 L203.7,420.0 L204.5,420.0 L205.4,420.0 L206.2,420.0 L207.1,420.0 L207.9,420.0 L208.8,420.0 L209.6,420.0 L210.4,420.0 L211.3,420.0 L212.1,420.0 L213.0,420.0 L213.8,420.0 L214.6,420.0 L215.5,420.0 L216.3,420.0 L217.2,420.0 L218.0,420.0 L218.8,420.0 L219.7,420.0 L220.5,420.0 L221.4,420.0 L222.2,420.0 L223.1,420.0 L223.9,420.0 L224.7,420.0 L225.6,420.0 L226.4,420.0 L227.3,420.0 L228.1,420.0 L228.9,420.0 L229.8,420.0 L230.6,420.0 L231.5,420.0 L232.3,420.0 L233.2,420.0 L234.0,420.0 L234.8,420.0 L235.7,420.0 L236.5,420.0 L237.4,420.0 L238.2,420.0 L239.0,420.0 L239.9,420.0 L240.7,420.0 L241.6,420.0 L242.4,420.0 L243.3,420.0 L244.1,420.0 L244.9,420.0 L245.8,420.0 L246.6,420.0 L247.5,420.0 L248.3,420.0 L249.1,420.0 L250.0,420.0 L250.8,420.0 L251.7,420.0 L252.5,420.0 L253.4,420.0 L254.2,420.0 L255.0,420.0 L255.9,420.0 L256.7,420.0 L257.6,420.0 L258.4,420.0 L259.2,420.0 L260.1,420.0 L260.9,420.0 L261.8,420.0 L262.6,420.0 L263.5,420.0 L264.3,420.0 L265.1,420.0 L266.0,420.0 L266.8,420.0 L267.7,420.0 L268.5,420.0 L269.3,420.0 L270.2,420.0 L271.0,420.0 L271.9,420.0 L272.7,420.0 L273.5,420.0 L274.4,420.0 L275.2,420.0 L276.1,420.0 L276.9,420.0 L277.8,420.0 L278.6,420.0 L279.4,420.0 L280.3,420.0 L281.1,420.0 L282.0,420.0 L282.8,420.0 L283.6,420.0 L284.5,420.0 L285.3,420.0 L286.2,420.0 L287.0,420.0 L287.9,420.0 L288.7,420.0 L289.5,420.0 L290.4,420.0 L291.2,420.0 L292.1,420.0 L292.9,420.0 L293.7,420.0 L294.6,420.0 L295.4,420.0 L296.3,420.0 L297.1,420.0 L298.0,420.0 L298.8,420.0 L299.6,420.0 L300.5,420.0 L301.3,420.0 L302.2,420.0 L303.0,420.0 L303.8,420.0 L304.7,420.0 L305.5,420.0 L306.4,420.0 L307.2,420.0 L308.1,420.0 L308.9,420.0 L309.7,420.0 L310.6,420.0 L311.4,420.0 L312.3,420.0 L313.1,420.0 L313.9,420.0 L314.8,420.0 L315.6,420.0 L316.5,420.0 L317.3,420.0 L318.1,420.0 L319.0,420.0 L319.8,420.0 L320.7,420.0 L321.5,420.0 L322.4,420.0 L323.2,420.0 L324.0,420.0 L324.9,420.0 L325.7,420.0 L326.6,420.0 L327.4,420.0 L328.2,420.0 L329.1,420.0 L329.9,420.0 L330.8,420.0 L331.6,420.0 L332.5,420.0 L333.3,420.0 L334.1,420.0 L335.0,420.0 L335.8,420.0 L336.7,420.0 L337.5,420.0 L338.3,420.0 L339.2,420.0 L340.0,420.0 L340.9,420.0 L341.7,420.0 L342.6,420.0 L343.4,420.0 L344.2,420.0 L345.1,420.0 L345.9,420.0 L346.8,420.0 L347.6,420.0 L348.4,420.0 L349.3,420.0 L350.1,420.0 L351.0,420.0 L351.8,420.0 L352.7,420.0 L353.5,420.0 L354.3,420.0 L355.2,420.0 L356.0,420.0 L356.9,420.0 L357.7,420.0 L358.5,420.0 L359.4,420.0 L360.2,420.0 L361.1,420.0 L361.9,420.0 L362.7,420.0 L363.6,420.0 L364.4,420.0 L365.3,420.0 L366.1,420.0 L367.0,420.0 L367.8,420.0 L368.6,420.0 L369.5,420.0 L370.3,420.0 L371.2,420.0 L372.0,420.0 L372.8,420.0 L373.7,420.0 L374.5,420.0 L375.4,420.0 L376.2,420.0 L377.1,420.0 L377.9,420.0 L378.7,420.0 L379.6,420.0 L380.4,420.0 L381.3,420.0 L382.1,420.0 L382.9,420.0 L383.8,420.0 L384.6,420.0 L385.5,420.0 L386.3,420.0 L387.2,420.0 L388.0,420.0 L388.8,420.0 L389.7,420.0 L390.5,420.0 L391.4,420.0 L392.2,420.0 L393.0,420.0 L393.9,420.0 L394.7,420.0 L395.6,420.0 L396.4,420.0 L397.3,420.0 L398.1,420.0 L398.9,420.0 L399.8,420.0 L400.6,420.0 L401.5,420.0 L402.3,420.0 L403.1,420.0 L404.0,420.0 L404.8,420.0 L405.7,420.0 L406.5,420.0 L407.3,420.0 L408.2,420.0 L409.0,420.0 L409.9,420.0 L410.7,420.0 L411.6,420.0 L412.4,420.0 L413.2,420.0 L414.1,420.0 L414.9,420.0 L415.8,420.0 L416.6,420.0 L417.4,420.0 L418.3,420.0 L419.1,420.0 L420.0,420.0 L420.8,420.0 L421.7,420.0 L422.5,420.0 L423.3,420.0 L424.2,420.0 L425.0,420.0 L425.9,420.0 L426.7,420.0 L427.5,420.0 L428.4,420.0 L429.2,420.0 L430.1,420.0 L430.9,420.0 L431.8,420.0 L432.6,420.0 L433.4,420.0 L434.3,420.0 L435.1,420.0 L436.0,420.0 L436.8,420.0 L437.6,420.0 L438.5,420.0 L439.3,420.0 L440.2,420.0 L441.0,420.0 L441.9,420.0 L442.7,420.0 L443.5,420.0 L444.4,420.0 L445.2,420.0 L446.1,420.0 L446.9,420.0 L447.7,420.0 L448.6,420.0 L449.4,420.0 L450.3,420.0 L451.1,420.0 L451.9,420.0 L452.8,420.0 L453.6,420.0 L454.5,420.0 L455.3,420.0 L456.2,420.0 L457.0,420.0 L457.8,420.0 L458.7,420.0 L459.5,420.0 L460.4,420.0 L461.2,420.0 L462.0,420.0 L462.9,420.0 L463.7,420.0 L464.6,420.0 L465.4,420.0 L466.3,420.0 L467.1,420.0 L467.9,420.0 L468.8,420.0 L469.6,420.0 L470.5,420.0 L471.3,420.0 L472.1,420.0 L473.0,420.0 L473.8,420.0 L474.7,420.0 L475.5,420.0 L476.4,420.0 L477.2,420.0 L478.0,420.0 L478.9,420.0 L479.7,420.0 L480.6,420.0 L481.4,420.0 L482.2,420.0 L483.1,420.0 L483.9,420.0 L484.8,420.0 L485.6,420.0 L486.5,420.0 L487.3,420.0 L488.1,420.0 L489.0,420.0 L489.8,420.0 L490.7,420.0 L491.5,420.0 L492.3,420.0 L493.2,420.0 L494.0,420.0 L494.9,420.0 L495.7,420.0 L496.5,420.0 L497.4,420.0 L498.2,420.0 L499.1,420.0 L499.9,420.0 L500.8,420.0 L501.6,420.0 L502.4,420.0 L503.3,420.0 L504.1,420.0 L505.0,420.0 L505.8,420.0 L506.6,420.0 L507.5,420.0 L508.3,420.0 L509.2,420.0 L510.0,420.0 L510.9,420.0 L511.7,420.0 L512.5,420.0 L513.4,420.0 L514.2,420.0 L515.1,420.0 L515.9,420.0 L516.7,420.0 L517.6,420.0 L518.4,420.0 L519.3,420.0 L520.1,420.0 L521.0,420.0 L521.8,420.0 L522.6,420.0 L523.5,420.0 L524.3,420.0 L525.2,420.0 L526.0,420.0 L526.8,420.0 L527.7,420.0 L528.5,420.0 L529.4,420.0 L530.2,420.0 L531.1,420.0 L531.9,420.0 L532.7,420.0 L533.6,420.0 L534.4,420.0 L535.3,420.0 L536.1,420.0 L536.9,420.0 L537.8,420.0 L538.6,420.0 L539.5,420.0 L540.3,420.0 L541.2,420.0 L542.0,420.0 L542.8,420.0 L543.7,420.0 L544.5,420.0 L545.4,420.0 L546.2,420.0 L547.0,420.0 L547.9,420.0 L548.7,420.0 L549.6,420.0 L550.4,420.0 L551.2,420.0 L552.1,420.0 L552.9,420.0 L553.8,420.0 L554.6,420.0 L555.5,420.0 L556.3,420.0 L557.1,420.0 L558.0,420.0 L558.8,420.0 L559.7,420.0 L560.5,420.0 L561.3,420.0 L562.2,420.0 L563.0,420.0 L563.9,420.0 L564.7,420.0 L565.6,420.0 L566.4,420.0 L567.2,420.0 L568.1,420.0 L568.9,420.0 L569.8,420.0 L570.6,420.0 L571.4,420.0 L572.3,420.0 L573.1,420.0 L574.0,420.0 L574.8,420.0 L575.7,420.0 L576.5,420.0 L577.3,420.0 L578.2,420.0 L579.0,420.0 L579.9,420.0 L580.7,420.0 L581.5,420.0 L582.4,420.0 L583.2,420.0 L584.1,420.0 L584.9,420.0 L585.8,420.0 L586.6,420.0 L587.4,420.0 L588.3,420.0 L589.1,420.0 L590.0,420.0 L590.8,420.0 L591.6,420.0 L592.5,420.0 L593.3,420.0 L594.2,420.0 L595.0,420.0 L595.8,420.0 L596.7,420.0 L597.5,420.0 L598.4,420.0 L599.2,420.0 L600.1,420.0 L600.9,420.0 L601.7,420.0 L602.6,420.0 L603.4,420.0 L604.3,420.0 L605.1,420.0 L605.9,420.0 L606.8,420.0 L607.6,420.0 L608.5,420.0 L609.3,420.0 L610.2,420.0 L611.0,420.0 L611.8,420.0 L612.7,420.0 L613.5,420.0 L614.4,420.0 L615.2,420.0 L616.0,420.0 L616.9,420.0 L617.7,420.0 L618.6,420.0 L619.4,420.0 L620.3,420.0 L621.1,420.0 L621.9,420.0 L622.8,420.0 L623.6,420.0 L624.5,420.0 L625.3,420.0 L626.1,420.0 L627.0,420.0 L627.8,420.0 L628.7,420.0 L629.5,420.0 L630.4,420.0 L631.2,420.0 L632.0,420.0 L632.9,420.0 L633.7,420.0 L634.6,420.0 L635.4,420.0 L636.2,420.0 L637.1,420.0 L637.9,420.0 L638.8,420.0 L639.6,420.0 L640.4,420.0 L641.3,420.0 L642.1,420.0 L643.0,420.0 L643.8,420.0 L644.7,420.0 L645.5,420.0 L646.3,420.0 L647.2,420.0 L648.0,420.0 L648.9,420.0 L649.7,420.0 L650.5,420.0 L651.4,420.0 L652.2,420.0 L653.1,420.0 L653.9,420.0 L654.8,420.0 L655.6,420.0 L656.4,420.0 L657.3,420.0 L658.1,420.0 L659.0,420.0 L659.8,420.0 L660.6,420.0 L661.5,420.0 L662.3,420.0 L663.2,420.0 L664.0,420.0 L664.9,420.0 L665.7,420.0 L666.5,420.0 L667.4,420.0 L668.2,420.0 L669.1,420.0 L669.9,420.0 L670.7,420.0 L671.6,420.0 L672.4,420.0 L673.3,420.0 L674.1,420.0 L675.0,420.0 L675.8,420.0 L676.6,420.0 L677.5,420.0 L678.3,420.0 L679.2,420.0 L680.0,420.0" stroke="#e377c2" stroke-width="2" fill="none" opacity="0.8"/>

<!-- Legend -->
<line x1="690" y1="70" x2="705" y2="70" stroke="#1f77b4" stroke-width="3"/>
<text x="710" y="74" class="legend">Wind Generation</text>
<line x1="690" y1="88" x2="705" y2="88" stroke="#ff7f0e" stroke-width="3"/>
<text x="710" y="92" class="legend">Hydro Generation</text>
<line x1="690" y1="106" x2="705" y2="106" stroke="#2ca02c" stroke-width="3"/>
<text x="710" y="110" class="legend">Thermal Generation</text>
<line x1="690" y1="124" x2="705" y2="124" stroke="#d62728" stroke-width="3"/>
<text x="710" y="128" class="legend">Solar Generation</text>
<line x1="690" y1="142" x2="705" y2="142" stroke="#9467bd" stroke-width="3"/>
<text x="710" y="146" class="legend">Forecast</text>
<line x1="690" y1="160" x2="705" y2="160" stroke="#8c564b" stroke-width="3"/>
<text x="710" y="164" class="legend">Total Generation</text>
<line x1="690" y1="178" x2="705" y2="178" stroke="#e377c2" stroke-width="3"/>
<text x="710" y="182" class="legend">Forecast Difference</text>

<!-- Date range -->
<text x="80" y="495" class="legend">Range: 03/31 - 04/30/2026 (714 records)</text>
</svg>