<?xml version="1.0" encoding="UTF-8"?>
<svg width="800" height="500" xmlns="http://www.w3.org/2000/svg">
<style>
.axis-line { stroke: #333; stroke-width: 1; }
.grid-line { stroke: #ddd; stroke-width: 0.5; }
.title { font: 16px Arial; text-anchor: middle; fill: #333; }
.axis-label { font: 12px Arial; text-anchor: middle; fill: #666; }
.legend { font: 10px Arial; fill: #333; }
</style>

<!-- Title -->
<text x="400.0" y="25" class="title">Northwestern Energy Generation Data - Past 30 Days</text>

<!-- Plot area background -->
<rect x="80" y="50" width="600" height="370" fill="white" stroke="#ddd"/>

<!-- Y-axis -->
<line x1="80" y1="50" x2="80" y2="420" class="axis-line"/>
<text x="30" y="235.0" class="axis-label" transform="rotate(-90, 30, 235.0)">Generation (MW)</text>

<!-- X-axis -->
<line x1="80" y1="420" x2="680" y2="420" class="axis-line"/>
<text x="380.0" y="480" class="axis-label">Time</text>
<line x1="80" y1="420.0" x2="680" y2="420.0" class="grid-line"/>
<text x="70" y="425.0" class="legend" text-anchor="end">0</text>
<line x1="80" y1="327.5" x2="680" y2="327.5" class="grid-line"/>
<text x="70" y="332.5" class="legend" text-anchor="end">345</text>
<line x1="80" y1="235.0" x2="680" y2="235.0" class="grid-line"/>
<text x="70" y="240.0" class="legend" text-anchor="end">690</text>
<line x1="80" y1="142.5" x2="680" y2="142.5" class="grid-line"/>
<text x="70" y="147.5" class="legend" text-anchor="end">1035</text>
<line x1="80" y1="50.0" x2="680" y2="50.0" class="grid-line"/>
<text x="70" y="55.0" class="legend" text-anchor="end">1380</text>
<!-- Wind Generation -->
<path d="M80.0,325.6 L80.8,329.1 L81.7,317.3 L82.5,327.7 L83.4,327.2 L84.2,321.6 L85.0,314.6 L85.9,321.6 L86.7,319.7 L87.6,336.3 L88.4,335.3 L89.3,322.1 L90.1,318.1 L90.9,321.8 L91.8,321.8 L92.6,325.1 L93.5,327.5 L94.3,335.0 L95.1,329.4 L96.0,333.6 L96.8,339.0 L97.7,328.6 L98.5,329.1 L99.4,361.8 L100.2,398.8 L101.0,392.6 L101.9,388.4 L102.7,383.3 L103.6,385.9 L104.4,382.2 L105.2,342.5 L106.1,345.2 L106.9,352.7 L107.8,366.9 L108.6,358.9 L109.5,360.5 L110.3,342.0 L111.1,331.5 L112.0,343.3 L112.8,362.1 L113.7,349.7 L114.5,324.5 L115.3,318.6 L116.2,319.2 L117.0,323.7 L117.9,324.3 L118.7,334.5 L119.6,335.8 L120.4,332.0 L121.2,331.0 L122.1,330.4 L122.9,330.4 L123.8,329.9 L124.6,334.2 L125.4,315.1 L126.3,311.4 L127.1,311.4 L128.0,311.1 L128.8,313.3 L129.6,312.5 L130.5,311.7 L131.3,325.1 L132.2,325.3 L133.0,315.9 L133.9,319.7 L134.7,318.6 L135.5,320.8 L136.4,330.7 L137.2,336.6 L138.1,364.0 L138.9,367.7 L139.7,371.2 L140.6,365.3 L141.4,363.1 L142.3,371.5 L143.1,401.8 L144.0,395.9 L144.8,385.1 L145.6,386.5 L146.5,385.4 L147.3,387.8 L148.2,405.0 L149.0,413.8 L149.8,418.7 L150.7,420.0 L151.5,417.3 L152.4,414.1 L153.2,409.0 L154.1,410.1 L154.9,408.5 L155.7,406.6 L156.6,402.0 L157.4,404.7 L158.3,396.7 L159.1,382.2 L159.9,385.7 L160.8,357.5 L161.6,347.6 L162.5,341.7 L163.3,348.7 L164.2,345.4 L165.0,342.8 L165.8,358.9 L166.7,368.5 L167.5,379.5 L168.4,403.6 L169.2,409.0 L170.0,402.8 L170.9,395.6 L171.7,389.7 L172.6,392.1 L173.4,399.6 L174.2,395.1 L175.1,398.5 L175.9,399.9 L176.8,399.1 L177.6,399.1 L178.5,400.2 L179.3,397.7 L180.1,403.9 L181.0,403.6 L181.8,401.5 L182.7,398.0 L183.5,380.8 L184.3,377.1 L185.2,365.8 L186.0,373.6 L186.9,379.2 L187.7,361.3 L188.6,360.2 L189.4,358.9 L190.2,350.8 L191.1,351.3 L191.9,372.3 L192.8,364.8 L193.6,374.4 L194.4,376.6 L195.3,393.2 L196.1,382.5 L197.0,379.0 L197.8,366.1 L198.7,356.7 L199.5,376.3 L200.3,365.8 L201.2,346.5 L202.0,364.8 L202.9,367.7 L203.7,362.6 L204.5,341.4 L205.4,363.4 L206.2,363.4 L207.1,370.1 L207.9,397.7 L208.8,386.5 L209.6,387.8 L210.4,391.8 L211.3,393.5 L212.1,371.2 L213.0,357.2 L213.8,329.9 L214.6,321.6 L215.5,323.5 L216.3,347.9 L217.2,335.3 L218.0,342.2 L218.8,353.8 L219.7,373.1 L220.5,369.3 L221.4,392.6 L222.2,399.9 L223.1,399.9 L223.9,399.9 L224.7,402.0 L225.6,399.1 L226.4,399.4 L227.3,398.3 L228.1,393.2 L228.9,396.4 L229.8,395.9 L230.6,393.5 L231.5,395.1 L232.3,387.8 L233.2,381.4 L234.0,380.8 L234.8,370.9 L235.7,372.3 L236.5,374.7 L237.4,370.9 L238.2,364.5 L239.0,378.4 L239.9,378.4 L240.7,381.4 L241.6,373.6 L242.4,361.8 L243.3,369.3 L244.1,351.9 L244.9,373.3 L245.8,380.3 L246.6,366.4 L247.5,345.7 L248.3,362.3 L249.1,379.5 L250.0,370.4 L250.8,379.0 L251.7,370.4 L252.5,366.6 L253.4,361.5 L254.2,361.3 L255.0,379.5 L255.9,391.3 L256.7,388.9 L257.6,390.8 L258.4,389.7 L259.2,400.4 L260.1,405.8 L260.9,410.6 L261.8,405.5 L262.6,397.2 L263.5,399.6 L264.3,387.0 L265.1,367.4 L266.0,356.2 L266.8,352.7 L267.7,309.0 L268.5,314.1 L269.3,318.4 L270.2,310.9 L271.0,315.9 L271.9,310.0 L272.7,311.1 L273.5,305.8 L274.4,308.4 L275.2,310.9 L276.1,312.5 L276.9,315.4 L277.8,310.9 L278.6,311.7 L279.4,309.8 L280.3,358.9 L281.1,365.3 L282.0,368.0 L282.8,372.8 L283.6,368.0 L284.5,363.4 L285.3,362.3 L286.2,362.3 L287.0,363.4 L287.9,319.2 L288.7,315.7 L289.5,309.5 L290.4,311.1 L291.2,313.0 L292.1,317.6 L292.9,317.6 L293.7,324.5 L294.6,317.6 L296.3,326.1 L297.1,340.4 L298.0,338.7 L298.8,348.4 L299.6,338.5 L300.5,332.0 L301.3,382.7 L302.2,395.6 L303.0,395.1 L303.8,401.0 L304.7,402.8 L305.5,408.7 L306.4,407.7 L307.2,398.0 L308.1,385.4 L308.9,346.8 L309.7,328.0 L310.6,318.6 L311.4,325.1 L312.3,340.6 L313.1,348.4 L313.9,359.7 L314.8,366.1 L315.6,372.5 L316.5,378.4 L317.3,391.8 L318.1,398.3 L319.0,409.0 L319.8,417.9 L320.7,419.5 L321.5,420.0 L322.4,416.5 L323.2,404.4 L324.0,399.1 L324.9,393.5 L325.7,388.4 L326.6,377.1 L327.4,392.1 L328.2,388.4 L329.1,379.5 L329.9,387.6 L330.8,398.0 L331.6,400.4 L332.5,404.4 L333.3,412.2 L334.1,415.2 L335.0,415.7 L335.8,415.7 L336.7,414.1 L337.5,414.6 L338.3,410.9 L339.2,406.1 L340.0,393.2 L340.9,394.0 L341.7,386.5 L342.6,391.3 L343.4,373.3 L344.2,366.9 L345.1,362.9 L345.9,353.0 L346.8,364.8 L347.6,381.7 L348.4,347.9 L349.3,359.4 L350.1,366.6 L351.0,353.5 L351.8,379.0 L352.7,383.0 L353.5,372.5 L354.3,354.0 L355.2,337.9 L356.0,358.6 L356.9,337.9 L357.7,351.9 L358.5,364.0 L359.4,361.5 L360.2,355.1 L361.1,331.0 L361.9,326.1 L362.7,341.7 L363.6,310.6 L364.4,312.5 L365.3,309.0 L366.1,330.4 L367.0,348.1 L367.8,330.4 L368.6,342.2 L369.5,384.6 L370.3,384.3 L371.2,325.1 L372.0,314.1 L372.8,305.0 L373.7,308.4 L374.5,314.1 L375.4,321.8 L376.2,344.6 L377.1,353.2 L377.9,385.4 L378.7,401.2 L379.6,405.0 L380.4,396.1 L381.3,397.5 L382.1,405.5 L382.9,400.7 L383.8,408.7 L384.6,409.8 L385.5,400.7 L386.3,391.6 L387.2,388.9 L388.0,376.6 L388.8,373.9 L389.7,350.0 L390.5,356.2 L391.4,357.0 L392.2,366.9 L393.0,388.9 L393.9,402.0 L394.7,403.9 L395.6,408.7 L396.4,403.6 L397.3,401.5 L398.1,407.9 L398.9,412.0 L399.8,414.1 L400.6,413.3 L401.5,416.0 L402.3,417.9 L403.1,418.7 L404.0,418.9 L404.8,414.9 L405.7,412.2 L406.5,406.9 L407.3,410.1 L408.2,405.3 L409.0,406.3 L409.9,406.6 L410.7,406.9 L411.6,407.1 L412.4,406.3 L413.2,401.0 L414.1,403.4 L414.9,402.3 L415.8,403.1 L416.6,406.1 L417.4,410.1 L418.3,410.6 L419.1,416.2 L420.0,420.0 L420.8,420.0 L421.7,420.0 L422.5,418.4 L423.3,408.7 L424.2,398.5 L425.0,394.0 L425.9,370.1 L426.7,358.3 L427.5,356.7 L428.4,357.8 L429.2,356.7 L430.1,318.1 L430.9,312.7 L431.8,331.0 L432.6,327.5 L433.4,331.8 L434.3,347.3 L435.1,350.3 L436.0,358.9 L436.8,361.8 L437.6,379.8 L438.5,384.3 L439.3,399.6 L440.2,409.0 L441.0,412.2 L441.9,413.3 L442.7,411.7 L443.5,413.6 L444.4,411.7 L445.2,406.3 L446.1,400.7 L446.9,400.4 L447.7,403.1 L448.6,405.5 L449.4,405.5 L450.3,402.3 L451.1,401.8 L451.9,405.5 L452.8,408.2 L453.6,405.8 L454.5,403.1 L455.3,405.0 L456.2,404.2 L457.0,394.3 L457.8,382.2 L458.7,356.7 L459.5,331.0 L460.4,323.2 L461.2,319.2 L462.0,317.6 L462.9,315.1 L463.7,312.2 L464.6,312.2 L465.4,314.6 L466.3,313.8 L467.1,313.5 L467.9,307.9 L468.8,323.5 L469.6,310.0 L470.5,310.9 L471.3,308.7 L472.1,313.3 L473.0,328.3 L473.8,337.4 L474.7,354.0 L475.5,379.2 L476.4,373.6 L477.2,379.0 L478.0,378.2 L478.9,351.3 L479.7,357.5 L480.6,348.1 L481.4,371.5 L482.2,343.3 L483.1,361.0 L483.9,346.5 L484.8,387.3 L485.6,378.4 L486.5,374.7 L487.3,380.3 L488.1,380.8 L489.0,373.9 L489.8,331.0 L490.7,311.1 L491.5,321.0 L492.3,333.6 L493.2,318.6 L494.0,318.6 L494.9,309.8 L495.7,315.1 L496.5,310.9 L497.4,315.9 L498.2,335.5 L499.1,333.6 L499.9,347.1 L500.8,353.0 L501.6,335.5 L502.4,347.9 L503.3,361.3 L504.1,347.1 L505.0,330.2 L505.8,309.8 L506.6,309.5 L507.5,310.3 L508.3,318.4 L509.2,319.4 L510.0,334.5 L510.9,341.2 L511.7,343.0 L512.5,322.7 L513.4,340.4 L514.2,332.8 L515.1,328.3 L515.9,351.3 L516.7,336.6 L517.6,337.1 L518.4,330.2 L519.3,328.3 L520.1,348.1 L521.0,338.5 L521.8,330.2 L522.6,328.3 L523.5,360.5 L524.3,343.6 L525.2,350.0 L526.0,335.0 L526.8,324.3 L527.7,326.1 L528.5,321.6 L529.4,330.4 L530.2,327.7 L531.1,331.5 L531.9,343.3 L532.7,345.7 L533.6,351.3 L534.4,344.9 L535.3,353.2 L536.1,335.8 L536.9,325.6 L537.8,319.2 L538.6,326.9 L539.5,341.2 L540.3,372.5 L541.2,345.4 L542.0,336.1 L542.8,337.4 L543.7,353.2 L544.5,324.3 L545.4,326.4 L546.2,317.0 L547.0,323.5 L547.9,322.7 L548.7,321.8 L549.6,317.3 L550.4,317.3 L551.2,321.8 L552.1,335.8 L552.9,362.9 L553.8,350.3 L554.6,344.9 L555.5,354.0 L556.3,347.3 L557.1,345.2 L558.0,356.2 L558.8,365.0 L559.7,383.0 L560.5,397.7 L561.3,394.8 L562.2,399.6 L563.0,402.0 L563.9,401.5 L564.7,388.6 L565.6,393.2 L566.4,388.1 L567.2,354.8 L568.1,362.3 L568.9,340.1 L569.8,355.9 L570.6,362.6 L571.4,366.9 L572.3,364.5 L573.1,371.7 L574.0,377.1 L574.8,380.6 L575.7,396.7 L576.5,411.4 L577.3,413.0 L578.2,410.6 L579.0,404.4 L579.9,395.9 L580.7,391.6 L581.5,365.8 L582.4,353.2 L583.2,373.9 L584.1,367.2 L584.9,345.2 L585.8,331.5 L586.6,336.3 L587.4,325.3 L588.3,323.7 L589.1,328.6 L590.0,329.1 L590.8,346.0 L591.6,366.6 L592.5,373.1 L593.3,395.6 L594.2,394.0 L595.0,396.7 L595.8,394.0 L596.7,391.6 L597.5,393.5 L598.4,387.0 L599.2,387.6 L600.1,401.5 L600.9,401.2 L601.7,405.8 L602.6,412.2 L603.4,416.8 L604.3,418.1 L605.1,419.2 L605.9,419.5 L606.8,416.5 L607.6,417.6 L608.5,416.0 L609.3,412.8 L610.2,411.2 L611.0,404.4 L611.8,394.5 L612.7,378.2 L613.5,369.0 L614.4,375.8 L615.2,383.5 L616.0,409.3 L616.9,418.4 L617.7,419.5 L618.6,418.1 L619.4,412.0 L620.3,406.9 L621.1,407.1 L621.9,401.2 L622.8,371.5 L623.6,377.4 L624.5,387.0 L625.3,379.0 L626.1,375.5 L627.0,337.4 L627.8,348.7 L628.7,329.1 L629.5,350.5 L630.4,315.9 L631.2,329.1 L632.0,351.1 L632.9,369.0 L633.7,375.8 L634.6,376.0 L635.4,360.7 L636.2,336.9 L637.1,337.7 L637.9,318.9 L638.8,345.4 L639.6,348.7 L640.4,367.2 L641.3,355.4 L642.1,347.9 L643.0,338.5 L643.8,369.9 L644.7,351.1 L645.5,344.9 L646.3,361.5 L647.2,362.6 L648.0,360.2 L648.9,359.4 L649.7,358.1 L650.5,364.5 L651.4,364.5 L652.2,342.0 L653.1,339.0 L653.9,338.7 L654.8,341.4 L655.6,344.1 L656.4,349.2 L657.3,355.4 L658.1,384.1 L659.0,395.3 L659.8,410.6 L660.6,413.8 L661.5,414.1 L662.3,414.6 L663.2,390.8 L664.0,391.3 L664.9,387.0 L665.7,385.7 L666.5,376.3 L667.4,359.7 L668.2,355.1 L669.1,363.7 L669.9,363.1 L670.7,338.2 L671.6,346.0 L672.4,350.5 L673.3,362.6 L674.1,368.8 L675.0,376.0 L675.8,401.2 L676.6,399.1 L677.5,408.7 L678.3,406.3 L679.2,410.6 L680.0,414.9" stroke="#1f77b4" stroke-width="2" fill="none" opacity="0.8"/>
<!-- Hydro Generation -->
<path d="M80.0,338.2 L80.8,337.9 L81.7,337.7 L82.5,337.9 L83.4,337.7 L84.2,337.7 L85.0,337.1 L85.9,337.7 L86.7,335.8 L87.6,336.1 L88.4,335.8 L89.3,334.7 L90.1,335.5 L90.9,335.3 L91.8,335.3 L92.6,335.5 L93.5,335.5 L94.3,336.3 L95.1,337.4 L96.0,337.7 L96.8,337.9 L97.7,337.7 L98.5,338.5 L99.4,338.5 L100.2,338.5 L101.0,338.7 L101.9,339.8 L102.7,340.9 L103.6,342.0 L104.4,339.3 L105.2,340.1 L106.1,340.6 L106.9,340.4 L107.8,340.1 L108.6,340.9 L109.5,340.6 L110.3,340.6 L111.1,340.6 L112.0,340.9 L112.8,340.4 L113.7,340.1 L114.5,339.3 L115.3,339.5 L116.2,339.5 L117.0,339.3 L117.9,340.1 L118.7,340.1 L119.6,340.4 L120.4,341.4 L121.2,343.6 L122.1,343.0 L122.9,344.6 L123.8,344.9 L124.6,347.3 L125.4,347.6 L126.3,347.1 L127.1,347.3 L128.0,348.4 L128.8,348.7 L129.6,348.7 L130.5,349.5 L131.3,350.3 L132.2,349.2 L133.0,349.2 L133.9,349.2 L134.7,349.5 L135.5,349.5 L136.4,350.5 L137.2,351.6 L138.1,353.0 L138.9,352.7 L139.7,352.4 L140.6,353.0 L141.4,352.7 L142.3,352.7 L143.1,353.2 L144.0,352.7 L144.8,352.4 L145.6,352.7 L146.5,352.7 L147.3,353.0 L148.2,352.7 L149.0,353.2 L149.8,353.2 L150.7,353.0 L151.5,353.0 L152.4,352.7 L153.2,352.7 L154.1,353.0 L154.9,353.0 L155.7,353.0 L156.6,353.2 L157.4,353.5 L158.3,354.3 L159.1,353.8 L159.9,354.3 L160.8,354.0 L161.6,353.8 L162.5,353.8 L163.3,353.5 L164.2,353.5 L165.0,353.8 L165.8,353.8 L166.7,354.0 L167.5,353.8 L168.4,353.8 L169.2,353.8 L170.0,353.8 L170.9,354.0 L171.7,354.0 L172.6,353.2 L173.4,353.8 L174.2,353.2 L175.1,353.2 L175.9,353.2 L176.8,352.4 L177.6,352.7 L178.5,352.7 L179.3,352.7 L180.1,352.2 L181.0,352.4 L181.8,352.2 L182.7,353.2 L183.5,354.0 L184.3,353.0 L185.2,353.0 L186.0,353.5 L186.9,354.3 L187.7,355.1 L188.6,355.6 L189.4,355.6 L190.2,355.6 L191.1,355.6 L191.9,354.6 L192.8,354.3 L193.6,354.3 L194.4,353.5 L195.3,353.2 L196.1,353.0 L197.0,352.7 L197.8,353.0 L198.7,351.9 L199.5,351.9 L200.3,351.9 L201.2,351.9 L202.0,351.9 L202.9,351.6 L203.7,351.6 L204.5,351.1 L205.4,351.1 L206.2,351.3 L207.1,351.3 L207.9,350.5 L208.8,351.1 L209.6,351.1 L210.4,350.8 L211.3,350.8 L212.1,350.8 L213.0,351.9 L213.8,352.2 L214.6,351.9 L215.5,351.6 L216.3,351.6 L217.2,351.6 L218.0,351.6 L218.8,351.6 L219.7,351.6 L220.5,351.1 L221.4,350.8 L222.2,351.1 L223.1,351.6 L223.9,353.2 L224.7,350.0 L225.6,349.7 L226.4,349.7 L227.3,349.7 L228.1,349.7 L228.9,349.7 L229.8,351.1 L230.6,350.8 L231.5,350.5 L232.3,350.8 L233.2,351.6 L234.0,352.2 L234.8,351.6 L235.7,351.9 L236.5,351.6 L237.4,351.6 L238.2,351.3 L239.0,351.1 L239.9,350.5 L240.7,349.2 L241.6,350.5 L242.4,350.3 L243.3,349.7 L244.1,349.2 L244.9,348.9 L245.8,350.0 L246.6,350.8 L247.5,350.0 L248.3,350.0 L249.1,350.8 L250.0,351.1 L250.8,350.8 L251.7,351.1 L252.5,351.1 L253.4,351.9 L254.2,351.1 L255.0,351.3 L255.9,350.5 L256.7,350.0 L257.6,350.0 L258.4,350.0 L259.2,350.5 L260.1,351.1 L260.9,350.5 L261.8,351.1 L262.6,354.3 L263.5,354.3 L264.3,355.4 L265.1,357.0 L266.0,355.4 L266.8,355.1 L267.7,355.6 L268.5,355.9 L269.3,354.6 L270.2,354.6 L271.0,355.1 L271.9,354.8 L272.7,354.3 L273.5,354.6 L274.4,354.6 L275.2,354.6 L276.1,354.8 L276.9,354.8 L277.8,354.8 L278.6,355.1 L279.4,354.8 L280.3,354.8 L281.1,355.9 L282.0,355.1 L282.8,355.6 L283.6,354.3 L284.5,354.8 L285.3,355.1 L286.2,354.8 L287.0,355.1 L287.9,355.1 L288.7,354.8 L289.5,354.8 L290.4,355.4 L291.2,355.1 L292.1,354.8 L292.9,355.1 L293.7,354.8 L294.6,354.3 L296.3,354.8 L297.1,355.1 L298.0,355.1 L298.8,354.8 L299.6,354.8 L300.5,354.8 L301.3,355.4 L302.2,354.6 L303.0,354.8 L303.8,354.8 L304.7,355.1 L305.5,354.6 L306.4,355.4 L307.2,355.1 L308.1,354.3 L308.9,355.1 L309.7,355.6 L310.6,357.5 L311.4,358.1 L312.3,355.9 L313.1,356.4 L313.9,356.4 L314.8,355.4 L315.6,354.3 L316.5,353.8 L317.3,353.0 L318.1,352.7 L319.0,352.4 L319.8,353.0 L320.7,353.2 L321.5,352.7 L322.4,352.7 L323.2,353.2 L324.0,353.8 L324.9,353.8 L325.7,353.8 L326.6,353.8 L327.4,354.6 L328.2,353.8 L329.1,353.2 L329.9,353.8 L330.8,354.6 L331.6,354.3 L332.5,354.3 L333.3,354.3 L334.1,354.3 L335.0,354.3 L335.8,353.5 L336.7,353.2 L337.5,353.8 L338.3,353.5 L339.2,353.5 L340.0,355.1 L340.9,355.9 L341.7,355.9 L342.6,355.9 L343.4,355.6 L344.2,355.9 L345.1,358.3 L345.9,357.8 L346.8,358.9 L347.6,354.8 L348.4,353.8 L349.3,354.0 L350.1,353.5 L351.0,353.8 L351.8,353.5 L352.7,354.0 L353.5,354.0 L354.3,354.6 L355.2,354.0 L356.0,354.0 L356.9,353.8 L357.7,353.2 L358.5,353.5 L359.4,354.0 L360.2,354.8 L361.1,355.9 L361.9,355.6 L362.7,358.1 L363.6,355.6 L364.4,355.4 L365.3,354.8 L366.1,355.4 L367.0,355.1 L367.8,353.5 L368.6,352.7 L369.5,353.0 L370.3,353.8 L371.2,353.2 L372.0,353.8 L372.8,354.3 L373.7,354.3 L374.5,354.6 L375.4,354.6 L376.2,354.3 L377.1,360.7 L377.9,359.9 L378.7,359.7 L379.6,360.2 L380.4,360.2 L381.3,359.1 L382.1,360.5 L382.9,359.9 L383.8,360.5 L384.6,360.2 L385.5,360.5 L386.3,360.7 L387.2,361.8 L388.0,361.5 L388.8,361.3 L389.7,362.6 L390.5,362.3 L391.4,362.6 L392.2,362.9 L393.0,362.6 L393.9,362.9 L394.7,361.3 L395.6,361.5 L396.4,361.0 L397.3,360.2 L398.1,360.5 L398.9,360.5 L399.8,360.7 L400.6,361.0 L401.5,362.6 L402.3,353.8 L403.1,353.8 L404.0,354.3 L404.8,354.3 L405.7,354.0 L406.5,354.3 L407.3,354.3 L408.2,353.5 L409.0,353.8 L409.9,355.1 L410.7,352.4 L411.6,351.6 L412.4,351.9 L413.2,351.3 L414.1,351.9 L414.9,351.6 L415.8,351.6 L416.6,351.9 L417.4,351.6 L418.3,351.9 L419.1,351.9 L420.0,351.9 L420.8,355.1 L421.7,354.6 L422.5,360.5 L423.3,361.0 L424.2,360.7 L425.0,360.2 L425.9,360.5 L426.7,358.1 L427.5,357.2 L428.4,356.7 L429.2,357.5 L430.1,357.8 L430.9,358.1 L431.8,357.8 L432.6,357.0 L433.4,357.2 L434.3,357.0 L435.1,357.5 L436.0,357.5 L436.8,357.8 L437.6,357.5 L438.5,358.9 L439.3,359.7 L440.2,359.4 L441.0,354.3 L441.9,354.8 L442.7,354.8 L443.5,354.0 L444.4,354.0 L445.2,354.3 L446.1,352.7 L446.9,352.4 L447.7,352.4 L448.6,352.4 L449.4,351.9 L450.3,351.1 L451.1,351.1 L451.9,351.1 L452.8,351.1 L453.6,350.8 L454.5,351.1 L455.3,350.5 L456.2,350.3 L457.0,350.5 L457.8,350.5 L458.7,350.5 L459.5,350.3 L460.4,350.3 L461.2,349.7 L462.0,349.7 L462.9,349.5 L463.7,349.2 L464.6,349.2 L465.4,349.2 L466.3,348.7 L467.1,348.9 L467.9,348.1 L468.8,347.9 L469.6,346.5 L470.5,346.3 L471.3,346.5 L472.1,346.3 L473.0,346.3 L473.8,345.4 L474.7,345.4 L475.5,344.6 L476.4,344.4 L477.2,345.2 L478.0,344.9 L478.9,344.4 L479.7,344.1 L480.6,344.4 L481.4,345.2 L482.2,345.4 L483.1,345.4 L483.9,345.2 L484.8,345.7 L485.6,346.8 L486.5,347.1 L487.3,347.3 L488.1,360.2 L489.0,346.8 L489.8,346.8 L490.7,347.1 L491.5,346.5 L492.3,346.5 L493.2,346.8 L494.0,346.8 L494.9,346.3 L495.7,347.6 L496.5,347.6 L497.4,347.3 L498.2,347.1 L499.1,347.1 L499.9,347.1 L500.8,347.6 L501.6,346.8 L502.4,346.3 L503.3,347.1 L504.1,347.9 L505.0,347.1 L505.8,347.3 L506.6,347.9 L507.5,347.1 L508.3,346.0 L509.2,344.9 L510.0,345.2 L510.9,345.7 L511.7,345.7 L512.5,345.7 L513.4,345.2 L514.2,345.4 L515.1,345.4 L515.9,346.5 L516.7,346.5 L517.6,346.0 L518.4,346.5 L519.3,346.5 L520.1,346.3 L521.0,346.8 L521.8,346.8 L522.6,346.5 L523.5,347.6 L524.3,347.9 L525.2,347.3 L526.0,347.3 L526.8,347.9 L527.7,347.1 L528.5,347.3 L529.4,346.0 L530.2,346.0 L531.1,346.0 L531.9,346.3 L532.7,346.3 L533.6,346.5 L534.4,346.0 L535.3,346.3 L536.1,346.3 L536.9,345.2 L537.8,345.4 L538.6,345.4 L539.5,346.0 L540.3,346.0 L541.2,345.7 L542.0,346.3 L542.8,346.5 L543.7,346.3 L544.5,346.0 L545.4,345.7 L546.2,346.0 L547.0,346.0 L547.9,345.7 L548.7,344.1 L549.6,342.8 L550.4,342.8 L551.2,343.0 L552.1,343.0 L552.9,343.3 L553.8,344.1 L554.6,343.8 L555.5,344.1 L556.3,344.1 L557.1,344.1 L558.0,345.4 L558.8,344.4 L559.7,345.7 L560.5,345.7 L561.3,345.7 L562.2,345.7 L563.0,345.7 L563.9,346.5 L564.7,346.3 L565.6,346.3 L566.4,346.5 L567.2,345.7 L568.1,345.2 L568.9,345.4 L569.8,344.1 L570.6,344.1 L571.4,344.1 L572.3,344.4 L573.1,344.1 L574.0,344.4 L574.8,344.1 L575.7,344.4 L576.5,344.4 L577.3,344.9 L578.2,345.2 L579.0,345.4 L579.9,345.4 L580.7,346.0 L581.5,345.7 L582.4,345.7 L583.2,345.7 L584.1,346.3 L584.9,346.5 L585.8,346.3 L586.6,346.0 L587.4,346.0 L588.3,346.0 L589.1,345.7 L590.0,345.7 L590.8,346.0 L591.6,346.3 L592.5,346.3 L593.3,346.3 L594.2,345.7 L595.0,344.9 L595.8,344.9 L596.7,344.1 L597.5,343.8 L598.4,344.1 L599.2,344.1 L600.1,344.1 L600.9,343.6 L601.7,343.6 L602.6,343.6 L603.4,344.6 L604.3,344.6 L605.1,343.8 L605.9,342.5 L606.8,342.5 L607.6,342.2 L608.5,342.2 L609.3,340.9 L610.2,341.2 L611.0,341.2 L611.8,341.2 L612.7,341.4 L613.5,342.2 L614.4,342.5 L615.2,342.0 L616.0,342.5 L616.9,342.2 L617.7,342.2 L618.6,341.7 L619.4,342.0 L620.3,341.7 L621.1,341.7 L621.9,340.9 L622.8,341.7 L623.6,341.4 L624.5,341.4 L625.3,341.2 L626.1,341.2 L627.0,341.7 L627.8,342.0 L628.7,342.0 L629.5,341.4 L630.4,340.6 L631.2,340.9 L632.0,340.9 L632.9,341.7 L633.7,342.0 L634.6,342.5 L635.4,342.5 L636.2,342.5 L637.1,342.2 L637.9,342.5 L638.8,342.8 L639.6,342.5 L640.4,342.5 L641.3,342.2 L642.1,342.2 L643.0,342.5 L643.8,343.0 L644.7,342.8 L645.5,343.6 L646.3,343.6 L647.2,342.8 L648.0,342.8 L648.9,343.0 L649.7,343.3 L650.5,342.8 L651.4,343.3 L652.2,343.6 L653.1,344.6 L653.9,344.6 L654.8,344.6 L655.6,345.2 L656.4,345.4 L657.3,345.4 L658.1,345.4 L659.0,345.7 L659.8,345.2 L660.6,346.0 L661.5,345.7 L662.3,345.2 L663.2,345.2 L664.0,345.2 L664.9,344.4 L665.7,344.6 L666.5,344.9 L667.4,344.6 L668.2,344.1 L669.1,342.5 L669.9,342.5 L670.7,343.0 L671.6,343.6 L672.4,343.3 L673.3,343.0 L674.1,343.0 L675.0,342.8 L675.8,342.5 L676.6,342.8 L677.5,342.8 L678.3,342.8 L679.2,342.0 L680.0,342.0" stroke="#ff7f0e" stroke-width="2" fill="none" opacity="0.8"/>
<!-- Thermal Generation -->
<path d="M80.0,362.6 L80.8,362.3 L81.7,362.1 L82.5,362.3 L83.4,362.1 L84.2,362.1 L85.0,362.3 L85.9,336.3 L86.7,305.0 L87.6,345.7 L88.4,351.3 L89.3,362.1 L90.1,361.5 L90.9,361.5 L91.8,361.8 L92.6,362.1 L93.5,361.5 L94.3,361.5 L95.1,340.4 L96.0,329.6 L96.8,312.2 L97.7,327.7 L98.5,347.6 L99.4,351.6 L100.2,337.9 L101.0,338.2 L101.9,338.5 L102.7,323.5 L103.6,323.5 L104.4,333.1 L105.2,332.8 L106.1,296.6 L106.9,288.3 L107.8,278.9 L108.6,282.4 L109.5,299.9 L110.3,362.1 L111.1,361.8 L112.0,361.8 L112.8,361.8 L113.7,361.8 L114.5,361.0 L115.3,361.5 L116.2,361.8 L117.0,361.5 L117.9,362.6 L118.7,362.1 L119.6,361.8 L120.4,361.8 L121.2,362.1 L122.1,362.3 L122.9,362.3 L123.8,362.1 L124.6,362.3 L125.4,361.5 L126.3,352.2 L127.1,335.0 L128.0,346.0 L128.8,354.0 L129.6,354.0 L130.5,362.1 L131.3,361.8 L132.2,362.1 L133.0,362.1 L133.9,362.3 L134.7,361.8 L135.5,362.1 L136.4,362.1 L137.2,355.1 L138.1,342.5 L138.9,353.0 L139.7,340.4 L140.6,362.1 L141.4,350.5 L142.3,361.8 L143.1,361.8 L144.0,351.1 L144.8,313.8 L145.6,301.7 L146.5,252.7 L147.3,236.8 L148.2,236.8 L149.0,237.1 L149.8,239.5 L150.7,236.8 L151.5,236.0 L152.4,237.4 L153.2,236.6 L154.1,259.1 L154.9,281.9 L155.7,281.6 L156.6,256.4 L157.4,243.5 L158.3,281.6 L159.1,281.9 L159.9,297.2 L160.8,329.4 L161.6,345.7 L162.5,361.8 L163.3,361.8 L164.2,361.8 L165.0,361.5 L165.8,361.5 L166.7,280.8 L167.5,251.6 L168.4,243.5 L169.2,244.9 L170.0,239.3 L170.9,246.8 L171.7,274.4 L172.6,282.2 L173.4,298.5 L174.2,292.9 L175.1,287.0 L175.9,289.1 L176.8,267.7 L177.6,263.7 L178.5,243.3 L179.3,270.6 L180.1,292.1 L181.0,281.9 L181.8,309.0 L182.7,321.8 L183.5,322.7 L184.3,321.6 L185.2,322.1 L186.0,322.4 L186.9,276.5 L187.7,277.3 L188.6,277.1 L189.4,277.1 L190.2,276.5 L191.1,276.8 L191.9,276.8 L192.8,288.3 L193.6,314.6 L194.4,319.4 L195.3,297.4 L196.1,282.7 L197.0,268.5 L197.8,257.5 L198.7,275.5 L199.5,313.5 L200.3,319.7 L201.2,322.1 L202.0,335.3 L202.9,335.5 L203.7,335.3 L204.5,334.7 L205.4,335.0 L206.2,335.5 L207.1,283.8 L207.9,246.2 L208.8,237.4 L209.6,237.1 L210.4,248.9 L211.3,251.9 L212.1,273.8 L213.0,296.4 L213.8,340.9 L214.6,361.8 L215.5,361.8 L216.3,361.3 L217.2,313.0 L218.0,239.3 L218.8,283.5 L219.7,283.5 L220.5,326.4 L221.4,326.4 L222.2,326.9 L223.1,326.9 L223.9,327.2 L224.7,326.7 L225.6,326.9 L226.4,326.1 L227.3,316.8 L228.1,290.2 L228.9,307.6 L229.8,302.8 L230.6,302.8 L231.5,315.9 L232.3,321.0 L233.2,329.4 L234.0,340.6 L234.8,348.4 L235.7,348.1 L236.5,347.9 L237.4,304.1 L238.2,283.5 L239.0,283.8 L239.9,297.4 L240.7,285.9 L241.6,328.0 L242.4,327.5 L243.3,327.2 L244.1,337.9 L244.9,337.9 L245.8,338.7 L246.6,338.2 L247.5,338.5 L248.3,338.2 L249.1,338.2 L250.0,310.9 L250.8,289.1 L251.7,305.8 L252.5,327.5 L253.4,326.7 L254.2,326.9 L255.0,326.7 L255.9,326.9 L256.7,326.7 L257.6,327.5 L258.4,291.8 L259.2,338.2 L260.1,337.7 L260.9,338.5 L261.8,362.9 L262.6,362.3 L263.5,362.3 L264.3,362.1 L265.1,362.1 L266.0,362.3 L266.8,362.3 L267.7,362.1 L268.5,329.9 L269.3,330.7 L270.2,318.9 L271.0,302.5 L271.9,308.2 L272.7,353.8 L273.5,354.0 L274.4,358.9 L275.2,359.1 L276.1,359.4 L276.9,359.1 L277.8,359.1 L278.6,362.3 L279.4,362.9 L280.3,362.3 L281.1,362.3 L282.0,362.3 L282.8,362.1 L283.6,362.3 L284.5,362.3 L285.3,362.3 L286.2,362.3 L287.0,361.8 L287.9,361.5 L288.7,361.8 L289.5,362.1 L290.4,361.8 L291.2,362.1 L292.1,362.1 L292.9,362.1 L293.7,361.5 L294.6,347.1 L296.3,361.8 L297.1,361.8 L298.0,362.1 L298.8,362.1 L299.6,362.3 L300.5,362.1 L301.3,362.1 L302.2,362.1 L303.0,362.1 L303.8,363.1 L304.7,363.1 L305.5,363.4 L306.4,363.4 L307.2,363.1 L308.1,362.6 L308.9,362.3 L309.7,359.7 L310.6,353.5 L311.4,356.2 L312.3,362.1 L313.1,362.3 L313.9,362.1 L314.8,362.1 L315.6,356.7 L316.5,351.9 L317.3,341.2 L318.1,292.1 L319.0,257.0 L319.8,236.8 L320.7,245.7 L321.5,264.7 L322.4,265.5 L323.2,265.5 L324.0,282.2 L324.9,291.5 L325.7,291.3 L326.6,312.7 L327.4,312.7 L328.2,312.5 L329.1,303.6 L329.9,277.9 L330.8,246.2 L331.6,267.4 L332.5,276.5 L333.3,280.5 L334.1,281.6 L335.0,311.1 L335.8,311.4 L336.7,311.1 L337.5,311.1 L338.3,294.8 L339.2,275.2 L340.0,256.1 L340.9,267.1 L341.7,282.4 L342.6,307.4 L343.4,353.8 L344.2,362.1 L345.1,361.8 L345.9,361.5 L346.8,361.5 L347.6,361.5 L348.4,361.0 L349.3,306.0 L350.1,298.0 L351.0,298.0 L351.8,298.0 L352.7,298.2 L353.5,298.0 L354.3,297.4 L355.2,308.2 L356.0,308.4 L356.9,324.5 L357.7,325.1 L358.5,324.3 L359.4,307.4 L360.2,253.2 L361.1,255.1 L361.9,310.3 L362.7,359.7 L363.6,360.5 L364.4,366.1 L365.3,370.1 L366.1,370.1 L367.0,378.7 L367.8,378.7 L368.6,378.7 L369.5,362.1 L370.3,319.7 L371.2,289.1 L372.0,288.3 L372.8,351.6 L373.7,362.3 L374.5,362.1 L375.4,362.3 L376.2,362.1 L377.1,362.3 L377.9,362.3 L378.7,362.3 L379.6,340.4 L380.4,270.1 L381.3,273.3 L382.1,346.8 L382.9,362.3 L383.8,361.8 L384.6,376.3 L385.5,378.4 L386.3,373.3 L387.2,362.9 L388.0,361.8 L388.8,361.8 L389.7,327.2 L390.5,265.3 L391.4,290.7 L392.2,306.3 L393.0,265.3 L393.9,283.8 L394.7,300.1 L395.6,310.6 L396.4,310.9 L397.3,310.3 L398.1,311.1 L398.9,282.7 L399.8,238.2 L400.6,238.7 L401.5,263.7 L402.3,272.2 L403.1,283.8 L404.0,282.2 L404.8,282.2 L405.7,317.8 L406.5,318.4 L407.3,292.1 L408.2,292.3 L409.0,254.5 L409.9,238.4 L410.7,238.2 L411.6,241.1 L412.4,250.2 L413.2,268.2 L414.1,260.7 L414.9,284.0 L415.8,283.8 L416.6,283.5 L417.4,284.0 L418.3,283.2 L419.1,283.0 L420.0,283.5 L420.8,283.8 L421.7,283.8 L422.5,310.9 L423.3,311.1 L424.2,311.1 L425.0,326.4 L425.9,353.8 L426.7,362.1 L427.5,362.3 L428.4,361.8 L429.2,361.8 L430.1,361.8 L430.9,361.5 L431.8,362.1 L432.6,376.6 L433.4,358.3 L434.3,339.5 L435.1,345.7 L436.0,334.2 L436.8,334.5 L437.6,334.5 L438.5,333.9 L439.3,299.3 L440.2,292.1 L441.0,284.0 L441.9,300.9 L442.7,310.9 L443.5,311.1 L444.4,321.6 L445.2,335.0 L446.1,335.3 L446.9,354.3 L447.7,354.6 L448.6,354.3 L449.4,354.3 L450.3,280.5 L451.1,257.5 L451.9,249.2 L452.8,249.4 L453.6,251.3 L454.5,237.6 L455.3,237.6 L456.2,237.9 L457.0,246.2 L457.8,270.9 L458.7,278.1 L459.5,276.5 L460.4,284.0 L461.2,259.9 L462.0,263.7 L462.9,268.5 L463.7,301.2 L464.6,308.4 L465.4,335.3 L466.3,357.0 L467.1,357.2 L467.9,357.0 L468.8,357.2 L469.6,344.6 L470.5,298.0 L471.3,252.4 L472.1,278.1 L473.0,297.7 L473.8,318.9 L474.7,362.3 L475.5,362.1 L476.4,353.8 L477.2,354.3 L478.0,354.0 L478.9,354.0 L479.7,354.3 L480.6,354.3 L481.4,321.8 L482.2,314.9 L483.1,331.2 L483.9,344.4 L484.8,360.5 L485.6,360.2 L486.5,352.7 L487.3,360.2 L488.1,360.7 L489.0,352.7 L489.8,342.2 L490.7,333.1 L491.5,280.8 L492.3,280.3 L493.2,279.2 L494.0,304.1 L494.9,321.8 L495.7,359.7 L496.5,359.7 L497.4,362.3 L498.2,362.1 L499.1,361.8 L499.9,361.8 L500.8,289.7 L501.6,278.4 L502.4,317.8 L503.3,327.7 L504.1,340.6 L505.0,351.6 L505.8,349.5 L506.6,360.5 L507.5,360.2 L508.3,360.5 L509.2,360.5 L510.0,360.2 L510.9,284.3 L511.7,294.8 L512.5,318.6 L513.4,327.2 L514.2,359.9 L515.1,359.7 L515.9,359.7 L516.7,359.4 L517.6,359.1 L518.4,359.4 L519.3,359.7 L520.1,359.9 L521.0,359.7 L521.8,358.6 L522.6,359.9 L523.5,359.9 L524.3,360.2 L525.2,359.7 L526.0,364.0 L526.8,364.0 L527.7,363.7 L528.5,363.1 L529.4,364.0 L530.2,363.4 L531.1,362.9 L531.9,325.3 L532.7,363.4 L533.6,362.3 L534.4,361.8 L535.3,362.3 L536.1,362.1 L536.9,361.8 L537.8,372.8 L538.6,372.8 L539.5,373.1 L540.3,362.3 L541.2,362.3 L542.0,351.1 L542.8,351.3 L543.7,361.8 L544.5,361.8 L545.4,362.6 L546.2,363.7 L547.0,364.0 L547.9,364.8 L548.7,365.3 L549.6,365.3 L550.4,365.6 L551.2,355.1 L552.1,314.3 L552.9,355.4 L553.8,362.9 L554.6,359.7 L555.5,361.8 L556.3,361.5 L557.1,361.5 L558.0,361.8 L558.8,362.1 L559.7,361.5 L560.5,362.1 L561.3,340.4 L562.2,335.0 L563.0,322.1 L563.9,350.8 L564.7,361.5 L565.6,362.1 L566.4,361.8 L567.2,361.8 L568.1,362.1 L568.9,362.1 L569.8,361.8 L570.6,361.8 L571.4,361.8 L572.3,361.5 L573.1,361.8 L574.0,362.1 L574.8,361.8 L575.7,362.1 L576.5,361.5 L577.3,361.3 L578.2,361.8 L579.0,362.1 L579.9,362.3 L580.7,362.1 L581.5,345.4 L582.4,346.0 L583.2,355.9 L584.1,362.3 L584.9,361.5 L585.8,362.1 L586.6,361.8 L587.4,362.3 L588.3,377.6 L589.1,378.2 L590.0,377.6 L590.8,361.5 L591.6,320.0 L592.5,265.8 L593.3,265.3 L594.2,265.5 L595.0,292.6 L595.8,320.0 L596.7,318.1 L597.5,344.4 L598.4,358.9 L599.2,319.2 L600.1,316.8 L600.9,298.5 L601.7,242.2 L602.6,242.5 L603.4,275.5 L604.3,286.2 L605.1,306.0 L605.9,326.4 L606.8,327.5 L607.6,340.4 L608.5,340.4 L609.3,339.0 L610.2,362.3 L611.0,362.3 L611.8,298.0 L612.7,257.0 L613.5,254.8 L614.4,283.8 L615.2,315.4 L616.0,270.1 L616.9,315.7 L617.7,351.3 L618.6,351.1 L619.4,350.0 L620.3,350.8 L621.1,340.4 L621.9,308.4 L622.8,293.2 L623.6,293.4 L624.5,319.2 L625.3,340.6 L626.1,362.6 L627.0,362.6 L627.8,362.6 L628.7,362.9 L629.5,350.5 L630.4,372.0 L631.2,362.1 L632.0,330.2 L632.9,316.5 L633.7,330.4 L634.6,351.3 L635.4,354.0 L636.2,355.6 L637.1,361.5 L637.9,361.8 L638.8,362.1 L639.6,362.1 L640.4,361.8 L641.3,346.0 L642.1,314.6 L643.0,328.3 L643.8,330.7 L644.7,362.9 L645.5,363.1 L646.3,362.9 L647.2,362.1 L648.0,362.9 L648.9,361.8 L649.7,362.3 L650.5,348.7 L651.4,368.5 L652.2,365.8 L653.1,337.7 L653.9,326.9 L654.8,341.2 L655.6,362.3 L656.4,362.3 L657.3,362.6 L658.1,361.0 L659.0,362.3 L659.8,362.1 L660.6,351.6 L661.5,319.4 L662.3,258.3 L663.2,263.9 L664.0,268.2 L664.9,280.5 L665.7,314.6 L666.5,324.5 L667.4,346.0 L668.2,362.9 L669.1,362.9 L669.9,362.6 L670.7,362.6 L671.6,362.3 L672.4,362.1 L673.3,316.8 L674.1,339.8 L675.0,296.4 L675.8,284.6 L676.6,273.6 L677.5,277.9 L678.3,329.9 L679.2,273.6 L680.0,274.1" stroke="#2ca02c" stroke-width="2" fill="none" opacity="0.8"/>
<!-- Solar Generation -->
<path d="M80.0,391.0 L80.8,395.9 L81.7,388.4 L82.5,404.7 L83.4,404.2 L84.2,408.5 L85.0,405.8 L85.9,418.1 L86.7,420.0 L87.6,420.0 L88.4,420.0 L89.3,420.0 L90.1,420.0 L90.9,420.0 L91.8,420.0 L92.6,420.0 L93.5,420.0 L94.3,420.0 L95.1,420.0 L96.0,420.0 L96.8,420.0 L97.7,417.6 L98.5,399.9 L99.4,403.4 L100.2,409.0 L101.0,406.1 L101.9,406.6 L102.7,405.3 L103.6,404.2 L104.4,404.4 L105.2,416.5 L106.1,419.2 L106.9,420.0 L107.8,420.0 L108.6,420.0 L109.5,420.0 L110.3,420.0 L111.1,420.0 L112.0,420.0 L112.8,420.0 L113.7,420.0 L114.5,420.0 L115.3,420.0 L116.2,420.0 L117.0,420.0 L117.9,413.3 L118.7,397.2 L119.6,398.0 L120.4,406.1 L121.2,405.0 L122.1,410.6 L122.9,413.3 L123.8,409.8 L124.6,414.9 L125.4,418.4 L126.3,420.0 L127.1,420.0 L128.0,420.0 L128.8,420.0 L129.6,420.0 L130.5,420.0 L131.3,420.0 L132.2,420.0 L133.0,420.0 L133.9,420.0 L134.7,420.0 L135.5,420.0 L136.4,420.0 L137.2,420.0 L138.1,415.2 L138.9,405.5 L139.7,405.3 L140.6,405.3 L141.4,406.1 L142.3,406.6 L143.1,405.3 L144.0,404.4 L144.8,404.4 L145.6,414.6 L146.5,419.7 L147.3,420.0 L148.2,420.0 L149.0,420.0 L149.8,420.0 L150.7,420.0 L151.5,420.0 L152.4,420.0 L153.2,420.0 L154.1,420.0 L154.9,420.0 L155.7,420.0 L156.6,420.0 L157.4,420.0 L158.3,416.5 L159.1,398.5 L159.9,398.8 L160.8,400.4 L161.6,401.2 L162.5,396.1 L163.3,399.4 L164.2,401.0 L165.0,407.4 L165.8,413.8 L166.7,419.2 L167.5,420.0 L168.4,420.0 L169.2,420.0 L170.0,420.0 L170.9,420.0 L171.7,420.0 L172.6,420.0 L173.4,420.0 L174.2,420.0 L175.1,420.0 L175.9,420.0 L176.8,420.0 L177.6,420.0 L178.5,417.3 L179.3,407.1 L180.1,403.6 L181.0,401.0 L181.8,397.5 L182.7,399.6 L183.5,395.1 L184.3,406.1 L185.2,406.1 L186.0,408.5 L186.9,418.1 L187.7,420.0 L188.6,420.0 L189.4,420.0 L190.2,420.0 L191.1,420.0 L191.9,420.0 L192.8,420.0 L193.6,420.0 L194.4,420.0 L195.3,420.0 L196.1,420.0 L197.0,420.0 L197.8,420.0 L198.7,410.1 L199.5,387.8 L200.3,384.3 L201.2,385.9 L202.0,387.0 L202.9,388.4 L203.7,391.8 L204.5,390.2 L205.4,393.2 L206.2,401.5 L207.1,417.3 L207.9,420.0 L208.8,420.0 L209.6,420.0 L210.4,420.0 L211.3,420.0 L212.1,420.0 L213.0,420.0 L213.8,420.0 L214.6,420.0 L215.5,420.0 L216.3,420.0 L217.2,420.0 L218.0,420.0 L218.8,417.6 L219.7,412.5 L220.5,410.6 L221.4,404.2 L222.2,404.7 L223.1,410.9 L223.9,410.1 L224.7,413.0 L225.6,413.3 L226.4,416.8 L227.3,417.9 L228.1,420.0 L228.9,420.0 L229.8,420.0 L230.6,420.0 L231.5,420.0 L232.3,420.0 L233.2,420.0 L234.0,420.0 L234.8,420.0 L235.7,420.0 L236.5,420.0 L237.4,420.0 L238.2,420.0 L239.0,418.4 L239.9,415.4 L240.7,417.1 L241.6,415.7 L242.4,411.7 L243.3,409.5 L244.1,413.8 L244.9,407.9 L245.8,416.8 L246.6,416.8 L247.5,418.4 L248.3,420.0 L249.1,420.0 L250.0,420.0 L250.8,420.0 L251.7,420.0 L252.5,420.0 L253.4,420.0 L254.2,420.0 L255.0,420.0 L255.9,420.0 L256.7,420.0 L257.6,420.0 L258.4,420.0 L259.2,411.2 L260.1,401.2 L260.9,405.8 L261.8,403.1 L262.6,403.6 L263.5,406.3 L264.3,411.2 L265.1,407.9 L266.0,412.2 L266.8,411.4 L267.7,415.4 L268.5,420.0 L269.3,420.0 L270.2,420.0 L271.0,420.0 L271.9,420.0 L272.7,420.0 L273.5,420.0 L274.4,420.0 L275.2,420.0 L276.1,420.0 L276.9,420.0 L277.8,420.0 L278.6,420.0 L279.4,411.2 L280.3,414.6 L281.1,409.3 L282.0,413.6 L282.8,412.0 L283.6,408.5 L284.5,404.4 L285.3,406.9 L286.2,410.3 L287.0,412.0 L287.9,418.4 L288.7,420.0 L289.5,420.0 L290.4,420.0 L291.2,420.0 L292.1,420.0 L292.9,420.0 L293.7,420.0 L294.6,420.0 L296.3,420.0 L297.1,420.0 L298.0,420.0 L298.8,420.0 L299.6,420.0 L300.5,410.6 L301.3,412.8 L302.2,407.1 L303.0,404.4 L303.8,406.1 L304.7,410.6 L305.5,407.7 L306.4,407.7 L307.2,414.4 L308.1,412.2 L308.9,418.4 L309.7,419.7 L310.6,420.0 L311.4,420.0 L312.3,420.0 L313.1,420.0 L313.9,420.0 L314.8,420.0 L315.6,420.0 L316.5,420.0 L317.3,420.0 L318.1,420.0 L319.0,420.0 L319.8,419.7 L320.7,415.2 L321.5,416.8 L322.4,416.5 L323.2,404.7 L324.0,413.8 L324.9,411.2 L325.7,413.3 L326.6,413.3 L327.4,416.0 L328.2,415.2 L329.1,418.4 L329.9,420.0 L330.8,420.0 L331.6,420.0 L332.5,420.0 L333.3,420.0 L334.1,420.0 L335.0,420.0 L335.8,420.0 L336.7,420.0 L337.5,420.0 L338.3,420.0 L339.2,420.0 L340.0,420.0 L340.9,415.4 L341.7,397.5 L342.6,403.4 L343.4,406.9 L344.2,407.9 L345.1,408.7 L345.9,411.7 L346.8,411.2 L347.6,406.1 L348.4,405.8 L349.3,415.4 L350.1,420.0 L351.0,420.0 L351.8,420.0 L352.7,420.0 L353.5,420.0 L354.3,420.0 L355.2,420.0 L356.0,420.0 L356.9,420.0 L357.7,420.0 L358.5,420.0 L359.4,420.0 L360.2,419.7 L361.1,405.3 L361.9,405.3 L362.7,403.4 L363.6,399.9 L364.4,385.1 L365.3,387.6 L366.1,403.1 L367.0,407.7 L367.8,412.0 L368.6,412.2 L369.5,418.9 L370.3,420.0 L371.2,420.0 L372.0,420.0 L372.8,420.0 L373.7,420.0 L374.5,420.0 L375.4,420.0 L376.2,420.0 L377.1,420.0 L377.9,420.0 L378.7,420.0 L379.6,420.0 L380.4,420.0 L381.3,417.3 L382.1,416.8 L382.9,415.7 L383.8,412.8 L384.6,415.4 L385.5,413.0 L386.3,414.1 L387.2,413.8 L388.0,416.0 L388.8,407.9 L389.7,418.4 L390.5,420.0 L391.4,420.0 L392.2,420.0 L393.0,420.0 L393.9,420.0 L394.7,420.0 L395.6,420.0 L396.4,420.0 L397.3,420.0 L398.1,420.0 L398.9,420.0 L399.8,420.0 L400.6,420.0 L401.5,418.1 L402.3,417.3 L403.1,404.2 L404.0,402.6 L404.8,396.9 L405.7,391.3 L406.5,400.7 L407.3,405.3 L408.2,410.6 L409.0,414.6 L409.9,418.7 L410.7,420.0 L411.6,420.0 L412.4,420.0 L413.2,420.0 L414.1,420.0 L414.9,420.0 L415.8,420.0 L416.6,420.0 L417.4,420.0 L418.3,420.0 L419.1,420.0 L420.0,420.0 L420.8,420.0 L421.7,418.1 L422.5,417.6 L423.3,415.7 L424.2,414.6 L425.0,411.7 L425.9,407.9 L426.7,409.0 L427.5,412.2 L428.4,412.2 L429.2,416.0 L430.1,412.5 L430.9,420.0 L431.8,420.0 L432.6,420.0 L433.4,420.0 L434.3,420.0 L435.1,420.0 L436.0,420.0 L436.8,420.0 L437.6,420.0 L438.5,420.0 L439.3,420.0 L440.2,420.0 L441.0,419.7 L441.9,414.1 L442.7,407.4 L443.5,412.0 L444.4,410.9 L445.2,406.9 L446.1,403.1 L446.9,401.8 L447.7,401.8 L448.6,401.8 L449.4,398.3 L450.3,416.2 L451.1,420.0 L451.9,420.0 L452.8,420.0 L453.6,420.0 L454.5,420.0 L455.3,420.0 L456.2,420.0 L457.0,420.0 L457.8,420.0 L458.7,420.0 L459.5,420.0 L460.4,420.0 L461.2,419.5 L462.0,415.2 L462.9,407.9 L463.7,405.3 L464.6,390.8 L465.4,396.9 L466.3,395.9 L467.1,402.3 L467.9,410.9 L468.8,413.8 L469.6,412.2 L470.5,416.5 L471.3,420.0 L472.1,420.0 L473.0,420.0 L473.8,420.0 L474.7,420.0 L475.5,420.0 L476.4,420.0 L477.2,420.0 L478.0,420.0 L478.9,420.0 L479.7,420.0 L480.6,420.0 L481.4,419.7 L482.2,415.2 L483.1,412.0 L483.9,398.0 L484.8,407.1 L485.6,405.5 L486.5,411.2 L487.3,409.3 L488.1,408.7 L489.0,415.7 L489.8,416.5 L490.7,417.1 L491.5,420.0 L492.3,420.0 L493.2,420.0 L494.0,420.0 L494.9,420.0 L495.7,420.0 L496.5,420.0 L497.4,420.0 L498.2,420.0 L499.1,420.0 L499.9,420.0 L500.8,420.0 L501.6,419.7 L502.4,413.6 L503.3,413.6 L504.1,392.6 L505.0,393.5 L505.8,389.2 L506.6,391.6 L507.5,392.9 L508.3,392.9 L509.2,396.4 L510.0,409.5 L510.9,415.4 L511.7,420.0 L512.5,420.0 L513.4,420.0 L514.2,420.0 L515.1,420.0 L515.9,420.0 L516.7,420.0 L517.6,420.0 L518.4,420.0 L519.3,420.0 L520.1,420.0 L521.0,420.0 L521.8,418.4 L522.6,405.8 L523.5,413.8 L524.3,403.6 L525.2,384.1 L526.0,387.0 L526.8,391.3 L527.7,393.5 L528.5,394.3 L529.4,394.5 L530.2,415.2 L531.1,412.5 L531.9,420.0 L532.7,420.0 L533.6,420.0 L534.4,420.0 L535.3,420.0 L536.1,420.0 L536.9,420.0 L537.8,420.0 L538.6,420.0 L539.5,420.0 L540.3,420.0 L541.2,420.0 L542.0,418.4 L542.8,400.7 L543.7,403.6 L544.5,385.9 L545.4,385.4 L546.2,384.6 L547.0,386.5 L547.9,395.1 L548.7,389.4 L549.6,390.5 L550.4,396.1 L551.2,415.4 L552.1,420.0 L552.9,420.0 L553.8,420.0 L554.6,420.0 L555.5,420.0 L556.3,420.0 L557.1,420.0 L558.0,420.0 L558.8,420.0 L559.7,420.0 L560.5,420.0 L561.3,420.0 L562.2,418.1 L563.0,413.6 L563.9,402.6 L564.7,398.5 L565.6,409.8 L566.4,390.5 L567.2,399.6 L568.1,396.7 L568.9,407.7 L569.8,406.1 L570.6,396.1 L571.4,416.5 L572.3,420.0 L573.1,420.0 L574.0,420.0 L574.8,420.0 L575.7,420.0 L576.5,420.0 L577.3,420.0 L578.2,420.0 L579.0,420.0 L579.9,420.0 L580.7,420.0 L581.5,420.0 L582.4,418.7 L583.2,397.7 L584.1,381.7 L584.9,381.1 L585.8,381.7 L586.6,382.5 L587.4,382.5 L588.3,381.9 L589.1,381.4 L590.0,384.9 L590.8,399.6 L591.6,416.0 L592.5,420.0 L593.3,420.0 L594.2,420.0 L595.0,420.0 L595.8,420.0 L596.7,420.0 L597.5,420.0 L598.4,420.0 L599.2,420.0 L600.1,420.0 L600.9,420.0 L601.7,420.0 L602.6,418.7 L603.4,402.6 L604.3,384.3 L605.1,384.9 L605.9,385.9 L606.8,394.3 L607.6,387.0 L608.5,396.4 L609.3,396.4 L610.2,404.2 L611.0,400.4 L611.8,414.9 L612.7,420.0 L613.5,420.0 L614.4,420.0 L615.2,420.0 L616.0,420.0 L616.9,420.0 L617.7,420.0 L618.6,420.0 L619.4,420.0 L620.3,420.0 L621.1,420.0 L621.9,420.0 L622.8,419.7 L623.6,417.9 L624.5,412.5 L625.3,389.2 L626.1,384.6 L627.0,402.3 L627.8,392.9 L628.7,401.5 L629.5,403.4 L630.4,413.0 L631.2,413.6 L632.0,416.8 L632.9,420.0 L633.7,420.0 L634.6,420.0 L635.4,420.0 L636.2,420.0 L637.1,420.0 L637.9,420.0 L638.8,420.0 L639.6,420.0 L640.4,420.0 L641.3,420.0 L642.1,420.0 L643.0,419.5 L643.8,406.3 L644.7,414.1 L645.5,414.1 L646.3,411.7 L647.2,409.0 L648.0,411.4 L648.9,412.0 L649.7,403.4 L650.5,414.6 L651.4,417.1 L652.2,417.1 L653.1,420.0 L653.9,420.0 L654.8,420.0 L655.6,420.0 L656.4,420.0 L657.3,420.0 L658.1,420.0 L659.0,420.0 L659.8,420.0 L660.6,420.0 L661.5,420.0 L662.3,420.0 L663.2,418.9 L664.0,415.2 L664.9,408.7 L665.7,409.8 L666.5,405.0 L667.4,406.9 L668.2,405.8 L669.1,404.4 L669.9,408.2 L670.7,402.3 L671.6,400.7 L672.4,406.1 L673.3,419.7 L674.1,420.0 L675.0,420.0 L675.8,420.0 L676.6,420.0 L677.5,420.0 L678.3,420.0 L679.2,420.0 L680.0,420.0" stroke="#d62728" stroke-width="2" fill="none" opacity="0.8"/>
<!-- Forecast -->
<path d="M80.0,170.9 L80.8,174.1 L81.7,178.4 L82.5,181.9 L83.4,184.5 L84.2,185.3 L85.0,179.4 L85.9,166.0 L86.7,159.6 L87.6,162.3 L88.4,172.5 L89.3,188.0 L90.1,207.1 L90.9,228.8 L91.8,239.0 L92.6,245.4 L93.5,249.2 L94.3,250.8 L95.1,247.8 L96.0,235.2 L96.8,210.3 L97.7,182.9 L98.5,169.0 L99.4,168.7 L100.2,171.7 L101.0,175.4 L101.9,179.4 L102.7,183.2 L103.6,187.0 L104.4,188.0 L105.2,182.9 L106.1,170.6 L106.9,163.9 L107.8,165.0 L108.6,176.2 L109.5,190.4 L110.3,209.8 L111.1,214.6 L112.0,240.9 L112.8,248.1 L113.7,251.9 L114.5,253.2 L115.3,250.2 L116.2,237.9 L117.0,212.7 L117.9,185.6 L118.7,170.9 L119.6,170.1 L120.4,172.5 L121.2,176.0 L122.1,179.4 L122.9,182.9 L123.8,186.4 L124.6,187.8 L125.4,182.7 L126.3,170.1 L127.1,162.6 L128.0,163.6 L128.8,174.1 L129.6,190.4 L130.5,207.9 L131.3,226.4 L132.2,239.5 L133.0,246.8 L133.9,250.5 L134.7,252.7 L135.5,251.3 L136.4,246.0 L137.2,232.0 L138.1,216.7 L138.9,201.4 L139.7,194.7 L140.6,191.5 L141.4,193.7 L142.3,196.9 L143.1,202.5 L144.0,206.5 L144.8,206.8 L145.6,203.3 L146.5,190.4 L147.3,182.4 L148.2,181.3 L149.0,187.5 L149.8,197.7 L150.7,212.2 L151.5,230.4 L152.4,240.3 L153.2,244.3 L154.1,247.3 L154.9,249.2 L155.7,248.9 L156.6,244.6 L157.4,235.8 L158.3,222.4 L159.1,208.7 L159.9,199.0 L160.8,192.1 L161.6,189.4 L162.5,195.5 L163.3,199.8 L164.2,206.3 L165.0,205.2 L165.8,204.9 L166.7,188.0 L167.5,178.9 L168.4,182.7 L169.2,192.3 L170.0,198.0 L170.9,213.0 L171.7,228.5 L172.6,238.2 L173.4,244.6 L174.2,248.1 L175.1,249.4 L175.9,246.5 L176.8,234.2 L177.6,209.5 L178.5,182.7 L179.3,169.0 L180.1,169.0 L181.0,172.2 L181.8,176.2 L182.7,180.0 L183.5,183.7 L184.3,187.8 L185.2,189.6 L186.0,184.8 L186.9,172.5 L187.7,165.2 L188.6,165.5 L189.4,175.4 L190.2,191.2 L191.1,208.7 L191.9,227.2 L192.8,239.3 L193.6,244.6 L194.4,247.6 L195.3,249.4 L196.1,245.7 L197.0,233.1 L197.8,208.9 L198.7,182.1 L199.5,167.9 L200.3,167.1 L201.2,170.1 L202.0,174.1 L202.9,177.6 L203.7,181.6 L204.5,185.6 L205.4,188.0 L206.2,183.7 L207.1,171.9 L207.9,164.7 L208.8,164.2 L209.6,175.4 L210.4,190.7 L211.3,208.7 L212.1,213.0 L213.0,239.8 L213.8,247.0 L214.6,250.8 L215.5,252.1 L216.3,249.7 L217.2,237.1 L218.0,212.2 L218.8,185.9 L219.7,170.9 L220.5,169.3 L221.4,171.9 L222.2,174.9 L223.1,178.1 L223.9,181.6 L224.7,185.6 L225.6,187.2 L226.4,182.1 L227.3,170.6 L228.1,164.4 L228.9,164.2 L229.8,175.7 L230.6,189.9 L231.5,208.9 L232.3,226.1 L233.2,239.5 L234.0,247.6 L234.8,251.3 L235.7,252.9 L236.5,250.2 L237.4,237.4 L238.2,213.5 L239.0,185.3 L239.9,169.0 L240.7,166.6 L241.6,168.7 L242.4,171.9 L243.3,176.2 L244.1,179.4 L244.9,182.7 L245.8,183.7 L246.6,178.4 L247.5,165.5 L248.3,159.9 L249.1,161.5 L250.0,171.4 L250.8,187.5 L251.7,206.0 L252.5,223.4 L253.4,236.6 L254.2,244.3 L255.0,247.8 L255.9,249.4 L256.7,246.2 L257.6,233.4 L258.4,208.1 L259.2,180.5 L260.1,165.8 L260.9,165.0 L261.8,167.9 L262.6,171.4 L263.5,176.2 L264.3,179.7 L265.1,182.7 L266.0,184.0 L266.8,178.6 L267.7,165.5 L268.5,159.1 L269.3,160.9 L270.2,169.8 L271.0,184.5 L271.9,203.6 L272.7,237.6 L273.5,239.0 L274.4,241.9 L275.2,246.8 L276.1,250.2 L276.9,249.4 L277.8,246.5 L278.6,235.5 L279.4,221.8 L280.3,207.6 L281.1,202.5 L282.0,198.0 L282.8,199.8 L283.6,202.0 L284.5,208.4 L285.3,211.9 L286.2,213.5 L287.0,212.4 L287.9,203.6 L288.7,196.1 L289.5,192.9 L290.4,198.2 L291.2,208.7 L292.1,226.6 L292.9,239.3 L293.7,250.0 L294.6,252.7 L296.3,249.4 L297.1,244.9 L298.0,237.6 L298.8,231.7 L299.6,221.3 L300.5,210.8 L301.3,199.3 L302.2,167.4 L303.0,166.3 L303.8,184.8 L304.7,208.1 L305.5,209.8 L306.4,214.8 L307.2,185.9 L308.1,190.4 L308.9,167.9 L309.7,164.2 L310.6,199.8 L311.4,216.7 L312.3,230.7 L313.1,231.7 L313.9,243.0 L314.8,250.5 L315.6,255.1 L316.5,255.9 L317.3,253.7 L318.1,240.3 L319.0,215.7 L319.8,188.3 L320.7,171.7 L321.5,169.3 L322.4,171.1 L323.2,174.4 L324.0,178.4 L324.9,182.1 L325.7,185.1 L326.6,187.0 L327.4,182.4 L328.2,171.4 L329.1,165.2 L329.9,165.0 L330.8,175.2 L331.6,191.0 L332.5,208.4 L333.3,222.9 L334.1,236.8 L335.0,243.3 L335.8,246.8 L336.7,247.6 L337.5,244.3 L338.3,231.2 L339.2,204.9 L340.0,176.8 L340.9,162.6 L341.7,162.3 L342.6,166.0 L343.4,169.5 L344.2,175.2 L345.1,178.9 L345.9,181.3 L346.8,182.1 L347.6,176.8 L348.4,164.4 L349.3,158.8 L350.1,160.9 L351.0,168.7 L351.8,181.9 L352.7,201.7 L353.5,243.5 L354.3,251.3 L355.2,250.8 L356.0,254.0 L356.9,255.1 L357.7,254.0 L358.5,243.0 L359.4,218.9 L360.2,189.9 L361.1,176.2 L361.9,173.8 L362.7,177.8 L363.6,181.9 L364.4,187.0 L365.3,191.2 L366.1,195.3 L367.0,196.6 L367.8,196.1 L368.6,196.9 L369.5,200.4 L370.3,200.9 L371.2,199.6 L372.0,207.3 L372.8,227.7 L373.7,247.6 L374.5,262.6 L375.4,272.5 L376.2,278.1 L377.1,281.6 L377.9,281.1 L378.7,272.0 L379.6,248.6 L380.4,217.5 L381.3,195.8 L382.1,190.2 L382.9,188.6 L383.8,190.7 L384.6,193.4 L385.5,196.1 L386.3,198.8 L387.2,199.0 L388.0,198.0 L388.8,198.2 L389.7,201.2 L390.5,200.9 L391.4,200.1 L392.2,207.1 L393.0,226.1 L393.9,244.6 L394.7,259.9 L395.6,267.1 L396.4,270.6 L397.3,272.8 L398.1,271.2 L398.9,260.2 L399.8,234.7 L400.6,205.2 L401.5,186.4 L402.3,180.8 L403.1,181.6 L404.0,183.7 L404.8,187.8 L405.7,191.2 L406.5,194.2 L407.3,195.5 L408.2,195.3 L409.0,194.7 L409.9,195.5 L410.7,195.3 L411.6,193.9 L412.4,202.8 L413.2,222.6 L414.1,231.5 L414.9,251.9 L415.8,262.3 L416.6,266.6 L417.4,269.3 L418.3,271.2 L419.1,268.2 L420.0,257.0 L420.8,239.5 L421.7,217.5 L422.5,207.3 L423.3,203.0 L424.2,206.5 L425.0,208.7 L425.9,215.4 L426.7,217.3 L427.5,214.3 L428.4,210.6 L429.2,206.8 L430.1,202.5 L430.9,196.9 L431.8,199.3 L432.6,206.5 L433.4,216.5 L434.3,235.0 L435.1,240.9 L436.0,239.8 L436.8,241.4 L437.6,243.5 L438.5,241.9 L439.3,238.7 L440.2,232.8 L441.0,218.9 L441.9,210.0 L442.7,202.0 L443.5,193.4 L444.4,188.6 L445.2,191.2 L446.1,197.1 L446.9,198.8 L447.7,200.6 L448.6,199.6 L449.4,194.2 L450.3,191.8 L451.1,189.9 L451.9,190.4 L452.8,198.5 L453.6,213.5 L454.5,249.4 L455.3,252.4 L456.2,254.3 L457.0,259.9 L457.8,262.3 L458.7,261.8 L459.5,252.1 L460.4,228.3 L461.2,200.4 L462.0,184.0 L462.9,180.3 L463.7,182.4 L464.6,185.6 L465.4,189.9 L466.3,194.5 L467.1,198.5 L467.9,199.8 L468.8,200.4 L469.6,200.9 L470.5,204.7 L471.3,205.7 L472.1,206.3 L473.0,212.7 L473.8,232.3 L474.7,256.4 L475.5,269.0 L476.4,277.1 L477.2,282.4 L478.0,285.4 L478.9,284.3 L479.7,274.9 L480.6,251.9 L481.4,222.9 L482.2,202.0 L483.1,197.4 L483.9,195.8 L484.8,198.5 L485.6,200.6 L486.5,203.0 L487.3,204.9 L488.1,206.0 L489.0,206.3 L489.8,205.7 L490.7,210.0 L491.5,214.3 L492.3,215.7 L493.2,220.2 L494.0,236.3 L494.9,257.8 L495.7,272.5 L496.5,279.5 L497.4,285.1 L498.2,287.0 L499.1,285.6 L499.9,275.2 L500.8,252.4 L501.6,224.2 L502.4,203.9 L503.3,199.6 L504.1,198.0 L505.0,200.4 L505.8,202.0 L506.6,203.9 L507.5,205.5 L508.3,205.5 L509.2,206.3 L510.0,206.0 L510.9,210.0 L511.7,214.8 L512.5,216.5 L513.4,221.8 L514.2,237.6 L515.1,258.0 L515.9,272.2 L516.7,279.5 L517.6,285.1 L518.4,287.0 L519.3,285.6 L520.1,275.2 L521.0,252.7 L521.8,224.5 L522.6,204.1 L523.5,199.6 L524.3,198.0 L525.2,200.4 L526.0,202.0 L526.8,203.9 L527.7,205.5 L528.5,205.5 L529.4,206.3 L530.2,206.0 L531.1,209.8 L531.9,214.8 L532.7,216.5 L533.6,221.6 L534.4,237.4 L535.3,257.0 L536.1,272.2 L536.9,280.3 L537.8,285.9 L538.6,287.8 L539.5,286.2 L540.3,276.8 L541.2,255.6 L542.0,230.1 L542.8,211.6 L543.7,206.3 L544.5,201.7 L545.4,201.2 L546.2,200.6 L547.0,201.2 L547.9,201.7 L548.7,199.6 L549.6,199.6 L550.4,199.8 L551.2,206.8 L552.1,212.2 L552.9,215.7 L553.8,218.3 L554.6,234.4 L555.5,256.4 L556.3,269.3 L557.1,279.5 L558.0,285.9 L558.8,287.8 L559.7,286.2 L560.5,276.5 L561.3,255.6 L562.2,229.9 L563.0,211.4 L563.9,206.3 L564.7,201.7 L565.6,201.2 L566.4,200.6 L567.2,201.2 L568.1,201.7 L568.9,199.6 L569.8,199.6 L570.6,199.8 L571.4,207.1 L572.3,212.2 L573.1,215.7 L574.0,218.3 L574.8,234.4 L575.7,252.9 L576.5,268.2 L577.3,269.3 L578.2,271.4 L579.0,273.0 L579.9,272.5 L580.7,268.5 L581.5,261.5 L582.4,250.0 L583.2,233.9 L584.1,219.4 L584.9,215.4 L585.8,217.5 L586.6,220.5 L587.4,222.6 L588.3,227.2 L589.1,228.8 L590.0,227.2 L590.8,221.3 L591.6,221.0 L592.5,216.2 L593.3,211.9 L594.2,215.9 L595.0,233.6 L595.8,255.1 L596.7,264.2 L597.5,269.8 L598.4,272.8 L599.2,274.6 L600.1,272.8 L600.9,259.9 L601.7,236.6 L602.6,209.8 L603.4,192.6 L604.3,189.4 L605.1,190.7 L605.9,195.3 L606.8,199.0 L607.6,202.0 L608.5,204.7 L609.3,205.7 L610.2,206.5 L611.0,206.8 L611.8,210.3 L612.7,212.7 L613.5,212.2 L614.4,217.3 L615.2,234.2 L616.0,258.3 L616.9,269.8 L617.7,274.6 L618.6,277.6 L619.4,279.2 L620.3,277.1 L621.1,265.5 L621.9,239.8 L622.8,213.0 L623.6,195.3 L624.5,192.6 L625.3,193.1 L626.1,197.7 L627.0,200.6 L627.8,203.9 L628.7,206.3 L629.5,207.3 L630.4,207.6 L631.2,207.1 L632.0,211.4 L632.9,215.7 L633.7,217.0 L634.6,221.6 L635.4,237.9 L636.2,381.1 L637.1,273.8 L637.9,280.8 L638.8,286.7 L639.6,288.6 L640.4,287.3 L641.3,277.3 L642.1,254.5 L643.0,227.5 L643.8,208.1 L644.7,202.2 L645.5,199.6 L646.3,200.9 L647.2,202.0 L648.0,203.6 L648.9,205.5 L649.7,206.3 L650.5,206.5 L651.4,206.3 L652.2,210.3 L653.1,213.5 L653.9,213.0 L654.8,217.5 L655.6,233.9 L656.4,244.6 L657.3,263.7 L658.1,273.0 L659.0,276.3 L659.8,277.1 L660.6,274.1 L661.5,261.8 L662.3,236.6 L663.2,206.8 L664.0,189.6 L664.9,185.1 L665.7,186.4 L666.5,188.8 L667.4,192.6 L668.2,196.6 L669.1,199.8 L669.9,200.4 L670.7,200.4 L671.6,200.9 L672.4,203.6 L673.3,202.5 L674.1,198.8 L675.0,206.8 L675.8,223.7 L676.6,249.2 L677.5,257.0 L678.3,258.8 L679.2,262.6 L680.0,263.4" stroke="#9467bd" stroke-width="2" fill="none" opacity="0.8"/>
<!-- Total Generation -->
<path d="M80.0,157.5 L80.8,165.2 L81.7,145.4 L82.5,172.7 L83.4,171.1 L84.2,169.8 L85.0,159.9 L85.9,153.7 L86.7,120.4 L87.6,178.1 L88.4,182.4 L89.3,178.9 L90.1,175.2 L90.9,178.6 L91.8,178.9 L92.6,182.7 L93.5,184.5 L94.3,192.9 L95.1,167.1 L96.0,160.9 L96.8,149.1 L97.7,151.6 L98.5,155.0 L99.4,195.3 L100.2,224.2 L101.0,215.7 L101.9,213.2 L102.7,192.9 L103.6,195.5 L104.4,199.0 L105.2,171.9 L106.1,141.6 L106.9,141.4 L107.8,145.9 L108.6,142.2 L109.5,160.9 L110.3,204.7 L111.1,193.9 L112.0,206.0 L112.8,224.2 L113.7,211.6 L114.5,184.8 L115.3,179.7 L116.2,180.5 L117.0,184.5 L117.9,180.3 L118.7,173.8 L119.6,176.0 L120.4,181.3 L121.2,181.6 L122.1,186.4 L122.9,190.7 L123.8,186.7 L124.6,198.8 L125.4,182.7 L126.3,170.6 L127.1,153.7 L128.0,165.5 L128.8,176.0 L129.6,175.2 L130.5,183.2 L131.3,197.1 L132.2,196.6 L133.0,187.2 L133.9,191.2 L134.7,189.9 L135.5,192.3 L136.4,203.3 L137.2,203.3 L138.1,214.6 L138.9,218.9 L139.7,209.2 L140.6,225.6 L141.4,212.4 L142.3,232.5 L143.1,262.0 L144.0,244.1 L144.8,195.8 L145.6,195.5 L146.5,150.5 L147.3,137.6 L148.2,154.5 L149.0,164.2 L149.8,171.4 L150.7,169.8 L151.5,166.3 L152.4,164.2 L153.2,158.3 L154.1,182.1 L154.9,203.3 L155.7,201.2 L156.6,171.7 L157.4,161.7 L158.3,189.1 L159.1,156.4 L159.9,176.0 L160.8,181.3 L161.6,188.3 L162.5,193.4 L163.3,203.3 L164.2,201.7 L165.0,205.5 L165.8,228.0 L166.7,162.6 L167.5,144.9 L168.4,161.2 L169.2,167.9 L170.0,156.1 L170.9,156.7 L171.7,178.4 L172.6,187.8 L173.4,212.2 L174.2,201.4 L175.1,198.8 L175.9,202.2 L176.8,179.2 L177.6,175.4 L178.5,153.4 L179.3,168.2 L180.1,191.8 L181.0,178.9 L181.8,200.1 L182.7,212.7 L183.5,192.6 L184.3,197.7 L185.2,187.0 L186.0,198.0 L186.9,168.2 L187.7,153.7 L188.6,152.9 L189.4,151.8 L190.2,143.2 L191.1,144.0 L191.9,163.9 L192.8,167.6 L193.6,203.6 L194.4,209.8 L195.3,204.1 L196.1,178.1 L197.0,160.1 L197.8,136.5 L198.7,134.1 L199.5,169.5 L200.3,161.7 L201.2,146.5 L202.0,178.9 L202.9,183.2 L203.7,181.3 L204.5,157.5 L205.4,182.7 L206.2,191.8 L207.1,162.6 L207.9,154.5 L208.8,134.9 L209.6,136.0 L210.4,151.6 L211.3,156.4 L212.1,156.1 L213.0,165.5 L213.8,182.9 L214.6,195.3 L215.5,196.9 L216.3,220.7 L217.2,159.9 L218.0,93.1 L218.8,146.5 L219.7,160.7 L220.5,197.4 L221.4,214.0 L222.2,222.6 L223.1,229.3 L223.9,230.4 L224.7,231.7 L225.6,229.1 L226.4,232.0 L227.3,222.6 L228.1,193.1 L228.9,213.8 L229.8,209.8 L230.6,207.1 L231.5,221.8 L232.3,219.9 L233.2,222.6 L234.0,233.9 L234.8,231.2 L235.7,232.5 L236.5,234.2 L237.4,186.7 L238.2,159.3 L239.0,171.7 L239.9,181.9 L240.7,173.5 L241.6,207.9 L242.4,191.2 L243.3,195.8 L244.1,192.9 L244.9,208.1 L245.8,225.8 L246.6,212.2 L247.5,192.6 L248.3,210.6 L249.1,228.5 L250.0,192.6 L250.8,179.2 L251.7,187.5 L252.5,205.5 L253.4,200.4 L254.2,199.6 L255.0,217.8 L255.9,229.1 L256.7,225.8 L257.6,228.3 L258.4,191.5 L259.2,240.3 L260.1,235.8 L260.9,245.4 L261.8,262.6 L262.6,257.5 L263.5,262.6 L264.3,255.6 L265.1,234.4 L266.0,226.1 L266.8,221.6 L267.7,182.1 L268.5,159.9 L269.3,163.9 L270.2,144.6 L271.0,133.9 L271.9,133.3 L272.7,179.4 L273.5,174.6 L274.4,182.1 L275.2,184.8 L276.1,186.7 L276.9,189.4 L277.8,184.8 L278.6,189.1 L279.4,178.6 L280.3,230.7 L281.1,232.8 L282.0,239.0 L282.8,242.5 L283.6,233.1 L284.5,225.0 L285.3,226.6 L286.2,229.9 L287.0,232.3 L287.9,194.2 L288.7,192.6 L289.5,186.7 L290.4,188.6 L291.2,190.4 L292.1,194.7 L292.9,195.0 L293.7,201.2 L294.6,179.2 L296.3,203.0 L297.1,217.5 L298.0,216.2 L298.8,225.6 L299.6,215.7 L300.5,199.6 L301.3,252.9 L302.2,259.4 L303.0,256.4 L303.8,265.0 L304.7,271.7 L305.5,274.4 L306.4,274.1 L307.2,270.6 L308.1,254.5 L308.9,222.6 L309.7,203.0 L310.6,189.6 L311.4,199.3 L312.3,218.6 L313.1,227.2 L313.9,238.2 L314.8,243.5 L315.6,243.5 L316.5,244.1 L317.3,246.0 L318.1,203.0 L319.0,178.4 L319.8,167.4 L320.7,173.5 L321.5,194.7 L322.4,191.2 L323.2,167.9 L324.0,188.8 L324.9,189.9 L325.7,186.7 L326.6,196.9 L327.4,215.4 L328.2,209.8 L329.1,194.7 L329.9,179.2 L330.8,159.1 L331.6,182.4 L332.5,195.5 L333.3,207.3 L334.1,211.4 L335.0,241.4 L335.8,240.9 L336.7,238.7 L337.5,239.5 L338.3,219.1 L339.2,194.7 L340.0,164.4 L340.9,172.5 L341.7,162.3 L342.6,198.0 L343.4,229.6 L344.2,232.8 L345.1,231.7 L345.9,224.0 L346.8,236.3 L347.6,244.1 L348.4,208.4 L349.3,174.9 L350.1,178.4 L351.0,165.5 L351.8,190.7 L352.7,195.5 L353.5,184.8 L354.3,166.3 L355.2,160.4 L356.0,181.3 L356.9,176.5 L357.7,190.2 L358.5,201.7 L359.4,182.9 L360.2,122.9 L361.1,87.2 L361.9,137.3 L362.7,202.8 L363.6,166.6 L364.4,159.1 L365.3,161.5 L366.1,199.0 L367.0,229.6 L367.8,214.6 L368.6,225.8 L369.5,258.6 L370.3,217.8 L371.2,127.4 L372.0,116.2 L372.8,170.9 L373.7,185.1 L374.5,190.7 L375.4,198.8 L376.2,221.3 L377.1,236.3 L377.9,267.7 L378.7,283.2 L379.6,265.5 L380.4,186.4 L381.3,187.2 L382.1,269.6 L382.9,278.7 L383.8,283.8 L384.6,301.7 L385.5,292.6 L386.3,279.7 L387.2,267.4 L388.0,255.9 L388.8,244.9 L389.7,198.2 L390.5,143.8 L391.4,170.3 L392.2,196.1 L393.0,176.8 L393.9,208.9 L394.7,225.6 L395.6,241.1 L396.4,235.8 L397.3,232.0 L398.1,239.5 L398.9,215.1 L399.8,173.0 L400.6,173.0 L401.5,200.4 L402.3,201.2 L403.1,200.4 L404.0,198.0 L404.8,188.3 L405.7,215.4 L406.5,220.2 L407.3,201.7 L408.2,201.7 L409.0,169.3 L409.9,158.8 L410.7,157.5 L411.6,159.9 L412.4,168.5 L413.2,180.5 L414.1,176.0 L414.9,198.0 L415.8,198.5 L416.6,201.4 L417.4,205.7 L418.3,205.7 L419.1,211.1 L420.0,216.2 L420.8,219.7 L421.7,216.7 L422.5,247.3 L423.3,236.6 L424.2,225.0 L425.0,232.3 L425.9,232.3 L426.7,227.5 L427.5,228.5 L428.4,228.5 L429.2,232.0 L430.1,190.2 L430.9,192.3 L431.8,210.8 L432.6,221.0 L433.4,207.3 L434.3,203.9 L435.1,213.8 L436.0,210.8 L436.8,214.3 L437.6,232.0 L438.5,237.1 L439.3,218.6 L440.2,220.5 L441.0,210.3 L441.9,223.2 L442.7,224.8 L443.5,230.7 L444.4,238.2 L445.2,242.5 L446.1,231.7 L446.9,248.9 L447.7,251.9 L448.6,254.0 L449.4,250.0 L450.3,190.2 L451.1,170.3 L451.9,165.8 L452.8,169.0 L453.6,168.2 L454.5,152.1 L455.3,153.4 L456.2,152.6 L457.0,151.3 L457.8,163.9 L458.7,145.7 L459.5,117.8 L460.4,117.5 L461.2,88.3 L462.0,86.1 L462.9,81.0 L463.7,107.8 L464.6,100.6 L465.4,136.0 L466.3,155.3 L467.1,162.0 L467.9,163.9 L468.8,182.4 L469.6,153.4 L470.5,111.6 L471.3,67.6 L472.1,97.7 L473.0,132.2 L473.8,161.7 L474.7,221.8 L475.5,246.0 L476.4,231.7 L477.2,238.4 L478.0,237.1 L478.9,209.8 L479.7,215.9 L480.6,206.8 L481.4,198.2 L482.2,158.8 L483.1,189.6 L483.9,174.1 L484.8,240.6 L485.6,230.9 L486.5,225.6 L487.3,237.1 L488.1,250.5 L489.0,229.1 L489.8,176.5 L490.7,148.3 L491.5,108.4 L492.3,120.4 L493.2,104.6 L494.0,129.6 L494.9,137.9 L495.7,182.4 L496.5,178.1 L497.4,185.6 L498.2,204.9 L499.1,202.8 L499.9,216.2 L500.8,150.5 L501.6,120.4 L502.4,165.5 L503.3,189.6 L504.1,168.2 L505.0,162.3 L505.8,135.7 L506.6,149.4 L507.5,150.5 L508.3,157.7 L509.2,161.2 L510.0,189.4 L510.9,126.6 L511.7,143.8 L512.5,147.3 L513.4,173.0 L514.2,198.5 L515.1,193.7 L515.9,217.8 L516.7,202.8 L517.6,202.5 L518.4,196.3 L519.3,194.7 L520.1,214.6 L521.0,205.2 L521.8,193.9 L522.6,180.5 L523.5,221.8 L524.3,195.3 L525.2,181.1 L526.0,173.3 L526.8,167.4 L527.7,170.3 L528.5,166.3 L529.4,174.9 L530.2,192.3 L531.1,192.9 L531.9,174.9 L532.7,215.4 L533.6,220.2 L534.4,212.7 L535.3,221.8 L536.1,204.1 L536.9,192.6 L537.8,197.4 L538.6,205.5 L539.5,220.2 L540.3,240.9 L541.2,213.5 L542.0,191.8 L542.8,176.0 L543.7,204.9 L544.5,158.0 L545.4,160.1 L546.2,151.3 L547.0,159.9 L547.9,168.2 L548.7,160.7 L549.6,155.8 L550.4,161.7 L551.2,175.4 L552.1,153.4 L552.9,221.8 L553.8,217.5 L554.6,208.7 L555.5,220.2 L556.3,213.2 L557.1,211.1 L558.0,223.7 L558.8,231.7 L559.7,250.5 L560.5,265.8 L561.3,241.1 L562.2,238.4 L563.0,223.4 L563.9,241.4 L564.7,235.0 L565.6,251.3 L566.4,226.9 L567.2,202.0 L568.1,206.3 L568.9,195.3 L569.8,207.9 L570.6,204.7 L571.4,229.3 L572.3,230.4 L573.1,237.9 L574.0,243.8 L574.8,246.8 L575.7,263.4 L576.5,277.6 L577.3,279.5 L578.2,277.9 L579.0,272.2 L579.9,263.7 L580.7,259.6 L581.5,217.0 L582.4,203.6 L583.2,213.2 L584.1,197.4 L584.9,174.4 L585.8,161.5 L586.6,166.6 L587.4,156.1 L588.3,169.3 L589.1,173.8 L590.0,177.3 L590.8,193.1 L591.6,188.8 L592.5,145.1 L593.3,167.1 L594.2,165.2 L595.0,194.2 L595.8,218.9 L596.7,213.8 L597.5,241.7 L598.4,250.0 L599.2,211.1 L600.1,222.4 L600.9,203.3 L601.7,151.6 L602.6,156.9 L603.4,179.4 L604.3,173.3 L605.1,193.9 L605.9,214.3 L606.8,220.7 L607.6,227.2 L608.5,235.0 L609.3,229.1 L610.2,258.8 L611.0,248.4 L611.8,188.6 L612.7,136.5 L613.5,126.3 L614.4,162.3 L615.2,201.2 L616.0,182.1 L616.9,236.6 L617.7,273.3 L618.6,271.2 L619.4,264.2 L620.3,259.6 L621.1,249.2 L621.9,210.6 L622.8,166.0 L623.6,170.1 L624.5,200.1 L625.3,189.9 L626.1,203.9 L627.0,184.0 L627.8,186.2 L628.7,175.4 L629.5,185.9 L630.4,181.6 L631.2,185.6 L632.0,178.9 L632.9,187.2 L633.7,208.1 L634.6,229.9 L635.4,217.5 L636.2,195.3 L637.1,201.7 L637.9,183.5 L638.8,210.6 L639.6,213.5 L640.4,231.7 L641.3,203.9 L642.1,165.0 L643.0,168.7 L643.8,189.9 L644.7,210.8 L645.5,205.7 L646.3,219.7 L647.2,216.5 L648.0,217.3 L648.9,216.2 L649.7,207.1 L650.5,210.6 L651.4,233.4 L652.2,208.4 L653.1,181.3 L653.9,170.3 L654.8,187.2 L655.6,211.9 L656.4,217.3 L657.3,223.7 L658.1,250.8 L659.0,263.7 L659.8,278.1 L660.6,271.7 L661.5,239.5 L662.3,178.1 L663.2,158.8 L664.0,159.9 L664.9,160.7 L665.7,194.7 L666.5,190.7 L667.4,197.1 L668.2,207.9 L669.1,213.5 L669.9,216.5 L670.7,186.2 L671.6,192.6 L672.4,202.0 L673.3,182.1 L674.1,211.9 L675.0,175.4 L675.8,188.6 L676.6,175.7 L677.5,189.6 L678.3,239.3 L679.2,186.4 L680.0,191.2" stroke="#8c564b" stroke-width="2" fill="none" opacity="0.8"/>
<!-- Forecast Difference -->
<path d="M80.0,420.0 L80.8,420.0 L81.7,420.0 L82.5,420.0 L83.4,420.0 L84.2,420.0 L85.0,420.0 L85.9,420.0 L86.7,420.0 L87.6,420.0 L88.4,420.0 L89.3,420.0 L90.1,420.0 L90.9,420.0 L91.8,420.0 L92.6,420.0 L93.5,420.0 L94.3,420.0 L95.1,420.0 L96.0,420.0 L96.8,420.0 L97.7,420.0 L98.5,420.0 L99.4,420.0 L100.2,420.0 L101.0,420.0 L101.9,420.0 L102.7,420.0 L103.6,420.0 L104.4,420.0 L105.2,420.0 L106.1,420.0 L106.9,420.0 L107.8,420.0 L108.6,420.0 L109.5,420.0 L110.3,420.0 L111.1,420.0 L112.0,420.0 L112.8,420.0 L113.7,420.0 L114.5,420.0 L115.3,420.0 L116.2,420.0 L117.0,420.0 L117.9,420.0 L118.7,420.0 L119.6,420.0 L120.4,420.0 L121.2,420.0 L122.1,420.0 L122.9,420.0 L123.8,420.0 L124.6,420.0 L125.4,420.0 L126.3,420.0 L127.1,420.0 L128.0,420.0 L128.8,420.0 L129.6,420.0 L130.5,420.0 L131.3,420.0 L132.2,420.0 L133.0,420.0 L133.9,420.0 L134.7,420.0 L135.5,420.0 L136.4,420.0 L137.2,420.0 L138.1,420.0 L138.9,420.0 L139.7,420.0 L140.6,420.0 L141.4,420.0 L142.3,420.0 L143.1,420.0 L144.0,420.0 L144.8,420.0 L145.6,420.0 L146.5,420.0 L147.3,420.0 L148.2,420.0 L149.0,420.0 L149.8,420.0 L150.7,420.0 L151.5,420.0 L152.4,420.0 L153.2,420.0 L154.1,420.0 L154.9,420.0 L155.7,420.0 L156.6,420.0 L157.4,420.0 L158.3,420.0 L159.1,420.0 L159.9,420.0 L160.8,420.0 L161.6,420.0 L162.5,420.0 L163.3,420.0 L164.2,420.0 L165.0,420.0 L165.8,420.0 L166.7,420.0 L167.5,420.0 L168.4,420.0 L169.2,420.0 L170.0,420.0 L170.9,420.0 L171.7,420.0 L172.6,420.0 L173.4,420.0 L174.2,420.0 L175.1,420.0 L175.9,420.0 L176.8,420.0 L177.6,420.0 L178.5,420.0 L179.3,420.0 L180.1,420.0 L181.0,420.0 L181.8,420.0 L182.7,420.0 L183.5,420.0 L184.3,420.0 L185.2,420.0 L186.0,420.0 L186.9,420.0 L187.7,420.0 L188.6,420.0 L189.4,420.0 L190.2,420.0 L191.1,420.0 L191.9,420.0 L192.8,420.0 L193.6,420.0 L194.4,420.0 L195.3,420.0 L196.1,420.0 L197.0,420.0 L197.8,420.0 L198.7,420.0 L199.5,420.0 L200.3,420.0 L201.2,420.0 L202.0,420.0 L202.9,420.0 L203.7,420.0 L204.5,420.0 L205.4,420.0 L206.2,420.0 L207.1,420.0 L207.9,420.0 L208.8,420.0 L209.6,420.0 L210.4,420.0 L211.3,420.0 L212.1,420.0 L213.0,420.0 L213.8,420.0 L214.6,420.0 L215.5,420.0 L216.3,420.0 L217.2,420.0 L218.0,420.0 L218.8,420.0 L219.7,420.0 L220.5,420.0 L221.4,420.0 L222.2,420.0 L223.1,420.0 L223.9,420.0 L224.7,420.0 L225.6,420.0 L226.4,420.0 L227.3,420.0 L228.1,420.0 L228.9,420.0 L229.8,420.0 L230.6,420.0 L231.5,420.0 L232.3,420.0 L233.2,420.0 L234.0,420.0 L234.8,420.0 L235.7,420.0 L236.5,420.0 L237.4,420.0 L238.2,420.0 L239.0,420.0 L239.9,420.0 L240.7,420.0 L241.6,420.0 L242.4,420.0 L243.3,420.0 L244.1,420.0 L244.9,420.0 L245.8,420.0 L246.6,420.0 L247.5,420.0 L248.3,420.0 L249.1,420.0 L250.0,420.0 L250.8,420.0 L251.7,420.0 L252.5,420.0 L253.4,420.0 L254.2,420.0 L255.0,420.0 L255.9,420.0 L256.7,420.0 L257.6,420.0 L258.4,420.0 L259.2,420.0 L260.1,420.0 L260.9,420.0 L261.8,420.0 L262.6,420.0 L263.5,420.0 L264.3,420.0 L265.1,420.0 L266.0,420.0 L266.8,420.0 L267.7,420.0 L268.5,420.0 L269.3,420.0 L270.2,420.0 L271.0,420.0 L271.9,420.0 L272.7,420.0 L273.5,420.0 L274.4,420.0 L275.2,420.0 L276.1,420.0 L276.9,420.0 L277.8,420.0 L278.6,420.0 L279.4,420.0 L280.3,420.0 L281.1,420.0 L282.0,420.0 L282.8,420.0 L283.6,420.0 L284.5,420.0 L285.3,420.0 L286.2,420.0 L287.0,420.0 L287.9,420.0 L288.7,420.0 L289.5,420.0 L290.4,420.0 L291.2,420.0 L292.1,420.0 L292.9,420.0 L293.7,420.0 L294.6,420.0 L296.3,420.0 L297.1,420.0 L298.0,420.0 L298.8,420.0 L299.6,420.0 L300.5,420.0 L301.3,420.0 L302.2,420.0 L303.0,420.0 L303.8,420.0 L304.7,420.0 L305.5,420.0 L306.4,420.0 L307.2,420.0 L308.1,420.0 L308.9,420.0 L309.7,420.0 L310.6,420.0 L311.4,420.0 L312.3,420.0 L313.1,420.0 L313.9,420.0 L314.8,420.0 L315.6,420.0 L316.5,420.0 L317.3,420.0 L318.1,420.0 L319.0,420.0 L319.8,420.0 L320.7,420.0 L321.5,420.0 L322.4,420.0 L323.2,420.0 L324.0,420.0 L324.9,420.0 L325.7,420.0 L326.6,420.0 L327.4,420.0 L328.2,420.0 L329.1,420.0 L329.9,420.0 L330.8,420.0 L331.6,420.0 L332.5,420.0 L333.3,420.0 L334.1,420.0 L335.0,420.0 L335.8,420.0 L336.7,420.0 L337.5,420.0 L338.3,420.0 L339.2,420.0 L340.0,420.0 L340.9,420.0 L341.7,420.0 L342.6,420.0 L343.4,420.0 L344.2,420.0 L345.1,420.0 L345.9,420.0 L346.8,420.0 L347.6,420.0 L348.4,420.0 L349.3,420.0 L350.1,420.0 L351.0,420.0 L351.8,420.0 L352.7,420.0 L353.5,420.0 L354.3,420.0 L355.2,420.0 L356.0,420.0 L356.9,420.0 L357.7,420.0 L358.5,420.0 L359.4,420.0 L360.2,420.0 L361.1,420.0 L361.9,420.0 L362.7,420.0 L363.6,420.0 L364.4,420.0 L365.3,420.0 L366.1,420.0 L367.0,420.0 L367.8,420.0 L368.6,420.0 L369.5,420.0 L370.3,420.0 L371.2,420.0 L372.0,420.0 L372.8,420.0 L373.7,420.0 L374.5,420.0 L375.4,420.0 L376.2,420.0 L377.1,420.0 L377.9,420.0 L378.7,420.0 L379.6,420.0 L380.4,420.0 L381.3,420.0 L382.1,420.0 L382.9,420.0 L383.8,420.0 L384.6,420.0 L385.5,420.0 L386.3,420.0 L387.2,420.0 L388.0,420.0 L388.8,420.0 L389.7,420.0 L390.5,420.0 L391.4,420.0 L392.2,420.0 L393.0,420.0 L393.9,420.0 L394.7,420.0 L395.6,420.0 L396.4,420.0 L397.3,420.0 L398.1,420.0 L398.9,420.0 L399.8,420.0 L400.6,420.0 L401.5,420.0 L402.3,420.0 L403.1,420.0 L404.0,420.0 L404.8,420.0 L405.7,420.0 L406.5,420.0 L407.3,420.0 L408.2,420.0 L409.0,420.0 L409.9,420.0 L410.7,420.0 L411.6,420.0 L412.4,420.0 L413.2,420.0 L414.1,420.0 L414.9,420.0 L415.8,420.0 L416.6,420.0 L417.4,420.0 L418.3,420.0 L419.1,420.0 L420.0,420.0 L420.8,420.0 L421.7,420.0 L422.5,420.0 L423.3,420.0 L424.2,420.0 L425.0,420.0 L425.9,420.0 L426.7,420.0 L427.5,420.0 L428.4,420.0 L429.2,420.0 L430.1,420.0 L430.9,420.0 L431.8,420.0 L432.6,420.0 L433.4,420.0 L434.3,420.0 L435.1,420.0 L436.0,420.0 L436.8,420.0 L437.6,420.0 L438.5,420.0 L439.3,420.0 L440.2,420.0 L441.0,420.0 L441.9,420.0 L442.7,420.0 L443.5,420.0 L444.4,420.0 L445.2,420.0 L446.1,420.0 L446.9,420.0 L447.7,420.0 L448.6,420.0 L449.4,420.0 L450.3,420.0 L451.1,420.0 L451.9,420.0 L452.8,420.0 L453.6,420.0 L454.5,420.0 L455.3,420.0 L456.2,420.0 L457.0,420.0 L457.8,420.0 L458.7,420.0 L459.5,420.0 L460.4,420.0 L461.2,420.0 L462.0,420.0 L462.9,420.0 L463.7,420.0 L464.6,420.0 L465.4,420.0 L466.3,420.0 L467.1,420.0 L467.9,420.0 L468.8,420.0 L469.6,420.0 L470.5,420.0 L471.3,420.0 L472.1,420.0 L473.0,420.0 L473.8,420.0 L474.7,420.0 L475.5,420.0 L476.4,420.0 L477.2,420.0 L478.0,420.0 L478.9,420.0 L479.7,420.0 L480.6,420.0 L481.4,420.0 L482.2,420.0 L483.1,420.0 L483.9,420.0 L484.8,420.0 L485.6,420.0 L486.5,420.0 L487.3,420.0 L488.1,420.0 L489.0,420.0 L489.8,420.0 L490.7,420.0 L491.5,420.0 L492.3,420.0 L493.2,420.0 L494.0,420.0 L494.9,420.0 L495.7,420.0 L496.5,420.0 L497.4,420.0 L498.2,420.0 L499.1,420.0 L499.9,420.0 L500.8,420.0 L501.6,420.0 L502.4,420.0 L503.3,420.0 L504.1,420.0 L505.0,420.0 L505.8,420.0 L506.6,420.0 L507.5,420.0 L508.3,420.0 L509.2,420.0 L510.0,420.0 L510.9,420.0 L511.7,420.0 L512.5,420.0 L513.4,420.0 L514.2,420.0 L515.1,420.0 L515.9,420.0 L516.7,420.0 L517.6,420.0 L518.4,420.0 L519.3,420.0 L520.1,420.0 L521.0,420.0 L521.8,420.0 L522.6,420.0 L523.5,420.0 L524.3,420.0 L525.2,420.0 L526.0,420.0 L526.8,420.0 L527.7,420.0 L528.5,420.0 L529.4,420.0 L530.2,420.0 L531.1,420.0 L531.9,420.0 L532.7,420.0 L533.6,420.0 L534.4,420.0 L535.3,420.0 L536.1,420.0 L536.9,420.0 L537.8,420.0 L538.6,420.0 L539.5,420.0 L540.3,420.0 L541.2,420.0 L542.0,420.0 L542.8,420.0 L543.7,420.0 L544.5,420.0 L545.4,420.0 L546.2,420.0 L547.0,420.0 L547.9,420.0 L548.7,420.0 L549.6,420.0 L550.4,420.0 L551.2,420.0 L552.1,420.0 L552.9,420.0 L553.8,420.0 L554.6,420.0 L555.5,420.0 L556.3,420.0 L557.1,420.0 L558.0,420.0 L558.8,420.0 L559.7,420.0 L560.5,420.0 L561.3,420.0 L562.2,420.0 L563.0,420.0 L563.9,420.0 L564.7,420.0 L565.6,420.0 L566.4,420.0 L567.2,420.0 L568.1,420.0 L568.9,420.0 L569.8,420.0 L570.6,420.0 L571.4,420.0 L572.3,420.0 L573.1,420.0 L574.0,420.0 L574.8,420.0 L575.7,420.0 L576.5,420.0 L577.3,420.0 L578.2,420.0 L579.0,420.0 L579.9,420.0 L580.7,420.0 L581.5,420.0 L582.4,420.0 L583.2,420.0 L584.1,420.0 L584.9,420.0 L585.8,420.0 L586.6,420.0 L587.4,420.0 L588.3,420.0 L589.1,420.0 L590.0,420.0 L590.8,420.0 L591.6,420.0 L592.5,420.0 L593.3,420.0 L594.2,420.0 L595.0,420.0 L595.8,420.0 L596.7,420.0 L597.5,420.0 L598.4,420.0 L599.2,420.0 L600.1,420.0 L600.9,420.0 L601.7,420.0 L602.6,420.0 L603.4,420.0 L604.3,420.0 L605.1,420.0 L605.9,420.0 L606.8,420.0 L607.6,420.0 L608.5,420.0 L609.3,420.0 L610.2,420.0 L611.0,420.0 L611.8,420.0 L612.7,420.0 L613.5,420.0 L614.4,420.0 L615.2,420.0 L616.0,420.0 L616.9,420.0 L617.7,420.0 L618.6,420.0 L619.4,420.0 L620.3,420.0 L621.1,420.0 L621.9,420.0 L622.8,420.0 L623.6,420.0 L624.5,420.0 L625.3,420.0 L626.1,420.0 L627.0,420.0 L627.8,420.0 L628.7,420.0 L629.5,420.0 L630.4,420.0 L631.2,420.0 L632.0,420.0 L632.9,420.0 L633.7,420.0 L634.6,420.0 L635.4,420.0 L636.2,420.0 L637.1,420.0 L637.9,420.0 L638.8,420.0 L639.6,420.0 L640.4,420.0 L641.3,420.0 L642.1,420.0 L643.0,420.0 L643.8,420.0 L644.7,420.0 L645.5,420.0 L646.3,420.0 L647.2,420.0 L648.0,420.0 L648.9,420.0 L649.7,420.0 L650.5,420.0 L651.4,420.0 L652.2,420.0 L653.1,420.0 L653.9,420.0 L654.8,420.0 L655.6,420.0 L656.4,420.0 L657.3,420.0 L658.1,420.0 L659.0,420.0 L659.8,420.0 L660.6,420.0 L661.5,420.0 L662.3,420.0 L663.2,420.0 L664.0,420.0 L664.9,420.0 L665.7,420.0 L666.5,420.0 L667.4,420.0 L668.2,420.0 L669.1,420.0 L669.9,420.0 L670.7,420.0 L671.6,420.0 L672.4,420.0 L673.3,420.0 L674.1,420.0 L675.0,420.0 L675.8,420.0 L676.6,420.0 L677.5,420.0 L678.3,420.0 L679.2,420.0 L680.0,420.0" stroke="#e377c2" stroke-width="2" fill="none" opacity="0.8"/>

<!-- Legend -->
<line x1="690" y1="70" x2="705" y2="70" stroke="#1f77b4" stroke-width="3"/>
<text x="710" y="74" class="legend">Wind Generation</text>
<line x1="690" y1="88" x2="705" y2="88" stroke="#ff7f0e" stroke-width="3"/>
<text x="710" y="92" class="legend">Hydro Generation</text>
<line x1="690" y1="106" x2="705" y2="106" stroke="#2ca02c" stroke-width="3"/>
<text x="710" y="110" class="legend">Thermal Generation</text>
<line x1="690" y1="124" x2="705" y2="124" stroke="#d62728" stroke-width="3"/>
<text x="710" y="128" class="legend">Solar Generation</text>
<line x1="690" y1="142" x2="705" y2="142" stroke="#9467bd" stroke-width="3"/>
<text x="710" y="146" class="legend">Forecast</text>
<line x1="690" y1="160" x2="705" y2="160" stroke="#8c564b" stroke-width="3"/>
<text x="710" y="164" class="legend">Total Generation</text>
<line x1="690" y1="178" x2="705" y2="178" stroke="#e377c2" stroke-width="3"/>
<text x="710" y="182" class="legend">Forecast Difference</text>

<!-- Date range -->
<text x="80" y="495" class="legend">Range: 02/25 - 03/27/2026 (713 records)</text>
</svg>