<?xml version="1.0" encoding="UTF-8"?>
<svg width="800" height="500" xmlns="http://www.w3.org/2000/svg">
<style>
.axis-line { stroke: #333; stroke-width: 1; }
.grid-line { stroke: #ddd; stroke-width: 0.5; }
.title { font: 16px Arial; text-anchor: middle; fill: #333; }
.axis-label { font: 12px Arial; text-anchor: middle; fill: #666; }
.legend { font: 10px Arial; fill: #333; }
</style>

<!-- Title -->
<text x="400.0" y="25" class="title">Northwestern Energy Generation Data - Past 30 Days</text>

<!-- Plot area background -->
<rect x="80" y="50" width="600" height="370" fill="white" stroke="#ddd"/>

<!-- Y-axis -->
<line x1="80" y1="50" x2="80" y2="420" class="axis-line"/>
<text x="30" y="235.0" class="axis-label" transform="rotate(-90, 30, 235.0)">Generation (MW)</text>

<!-- X-axis -->
<line x1="80" y1="420" x2="680" y2="420" class="axis-line"/>
<text x="380.0" y="480" class="axis-label">Time</text>
<line x1="80" y1="420.0" x2="680" y2="420.0" class="grid-line"/>
<text x="70" y="425.0" class="legend" text-anchor="end">0</text>
<line x1="80" y1="327.5" x2="680" y2="327.5" class="grid-line"/>
<text x="70" y="332.5" class="legend" text-anchor="end">357</text>
<line x1="80" y1="235.0" x2="680" y2="235.0" class="grid-line"/>
<text x="70" y="240.0" class="legend" text-anchor="end">713</text>
<line x1="80" y1="142.5" x2="680" y2="142.5" class="grid-line"/>
<text x="70" y="147.5" class="legend" text-anchor="end">1070</text>
<line x1="80" y1="50.0" x2="680" y2="50.0" class="grid-line"/>
<text x="70" y="55.0" class="legend" text-anchor="end">1427</text>
<!-- Wind Generation -->
<path d="M80.0,323.3 L80.8,322.8 L81.7,320.7 L82.5,325.4 L83.4,323.8 L84.2,319.1 L85.1,312.7 L85.9,313.9 L86.7,322.2 L87.6,321.5 L88.4,336.0 L89.3,330.3 L90.1,316.3 L91.0,324.3 L91.8,318.1 L92.6,326.1 L93.5,330.0 L94.3,324.3 L95.2,330.8 L96.0,325.9 L96.9,325.9 L97.7,329.5 L98.5,325.9 L99.4,330.3 L100.2,328.2 L101.1,323.8 L101.9,319.7 L102.8,319.9 L103.6,336.5 L104.4,333.4 L105.3,325.1 L106.1,321.2 L107.0,318.1 L107.8,343.0 L108.7,340.4 L109.5,350.5 L110.3,368.4 L111.2,387.3 L112.0,404.4 L112.9,404.7 L113.7,404.7 L114.6,405.0 L115.4,410.9 L116.2,416.9 L117.1,419.2 L117.9,418.7 L118.8,419.0 L119.6,417.1 L120.4,415.3 L121.3,414.6 L122.1,412.5 L123.0,409.4 L123.8,405.2 L124.7,411.2 L125.5,412.7 L126.3,411.2 L127.2,403.9 L128.0,400.8 L128.9,388.1 L129.7,382.9 L130.6,385.3 L131.4,379.8 L132.2,354.1 L133.1,357.5 L133.9,342.0 L134.8,334.2 L135.6,325.4 L136.5,319.9 L137.3,324.1 L138.1,318.4 L139.0,329.8 L139.8,330.3 L140.7,333.9 L141.5,333.9 L142.4,333.9 L143.2,331.8 L144.0,328.2 L144.9,322.0 L145.7,313.2 L146.6,310.6 L147.4,309.0 L148.3,310.6 L149.1,310.8 L149.9,308.5 L150.8,312.4 L151.6,330.8 L152.5,335.0 L153.3,352.1 L154.2,349.0 L155.0,352.6 L155.8,345.6 L156.7,348.2 L157.5,318.1 L158.4,325.9 L159.2,318.4 L160.1,331.1 L160.9,319.4 L161.7,314.5 L162.6,325.4 L163.4,324.8 L164.3,322.5 L165.1,322.0 L166.0,323.0 L166.8,312.1 L167.6,309.5 L168.5,316.3 L169.3,321.5 L170.2,334.7 L171.0,343.5 L171.9,362.2 L172.7,373.3 L173.5,384.0 L174.4,392.8 L175.2,398.7 L176.1,398.5 L176.9,404.4 L177.8,407.6 L178.6,409.6 L179.4,403.7 L180.3,400.8 L181.1,396.9 L182.0,395.6 L182.8,390.7 L183.7,391.7 L184.5,400.3 L185.3,407.0 L186.2,402.6 L187.0,405.7 L187.9,402.9 L188.7,399.8 L189.6,408.9 L190.4,411.4 L191.2,406.5 L192.1,408.9 L192.9,409.1 L193.8,413.8 L194.6,407.3 L195.4,385.5 L196.3,379.3 L197.1,368.7 L198.0,350.8 L198.8,346.1 L199.7,340.9 L200.5,357.5 L201.3,336.2 L202.2,333.9 L203.0,346.6 L203.9,339.6 L204.7,353.1 L205.6,368.7 L206.4,344.0 L207.2,353.4 L208.1,345.3 L208.9,373.6 L209.8,382.4 L210.6,396.4 L211.5,403.1 L212.3,411.7 L213.1,415.6 L214.0,414.0 L214.8,413.5 L215.7,413.0 L216.5,414.8 L217.4,412.2 L218.2,402.6 L219.0,406.8 L219.9,408.3 L220.7,407.3 L221.6,401.3 L222.4,406.3 L223.3,403.7 L224.1,399.3 L224.9,395.6 L225.8,386.0 L226.6,384.0 L227.5,393.6 L228.3,366.3 L229.2,358.5 L230.0,358.8 L230.8,350.8 L231.7,356.0 L232.5,348.2 L233.4,340.9 L234.2,351.5 L235.1,368.7 L235.9,368.1 L236.7,362.7 L237.6,354.1 L238.4,347.9 L239.3,351.0 L240.1,335.7 L241.0,326.7 L241.8,320.4 L242.6,318.9 L243.5,320.9 L244.3,318.9 L245.2,319.9 L246.0,323.0 L246.9,328.5 L247.7,329.2 L248.5,330.8 L249.4,328.7 L250.2,325.1 L251.1,320.2 L251.9,323.0 L252.8,325.1 L253.6,323.3 L254.4,320.9 L255.3,325.1 L256.1,320.4 L257.0,320.2 L257.8,322.2 L258.7,326.9 L259.5,325.6 L260.3,328.2 L261.2,330.5 L262.0,330.3 L262.9,326.4 L263.7,319.4 L264.6,328.5 L265.4,326.4 L266.2,348.4 L267.1,355.2 L267.9,355.2 L268.8,357.3 L269.6,354.1 L270.4,356.5 L271.3,362.4 L272.1,370.5 L273.0,372.3 L273.8,371.0 L274.7,379.8 L275.5,374.1 L276.3,375.9 L277.2,377.5 L278.0,374.6 L278.9,373.8 L279.7,363.2 L280.6,325.1 L281.4,329.8 L282.2,330.3 L283.1,340.7 L283.9,342.2 L284.8,354.1 L285.6,353.9 L286.5,322.0 L287.3,345.6 L288.1,347.4 L289.0,343.0 L289.8,320.4 L290.7,324.3 L291.5,359.3 L292.4,370.2 L293.2,383.2 L294.0,381.6 L294.9,400.3 L295.7,398.0 L296.6,398.5 L297.4,399.0 L298.3,401.8 L299.1,393.0 L299.9,375.1 L300.8,390.4 L301.6,379.8 L302.5,365.8 L303.3,351.0 L304.2,345.3 L305.0,356.2 L305.8,355.2 L306.7,376.2 L307.5,377.5 L308.4,364.3 L309.2,367.9 L310.1,364.3 L310.9,364.0 L311.7,360.9 L312.6,364.5 L313.4,342.0 L314.3,355.7 L315.1,372.0 L316.0,361.4 L316.8,367.1 L317.6,363.0 L318.5,362.4 L319.3,366.1 L320.2,374.6 L321.0,371.8 L321.9,368.7 L322.7,372.5 L323.5,371.8 L324.4,388.6 L325.2,403.7 L326.1,403.7 L326.9,402.6 L327.8,404.2 L328.6,403.7 L329.4,393.6 L330.3,386.3 L331.1,383.2 L332.0,385.3 L332.8,394.3 L333.7,393.6 L334.5,381.4 L335.3,393.3 L336.2,402.6 L337.0,399.5 L337.9,408.3 L338.7,404.4 L339.6,400.0 L340.4,386.8 L341.2,395.1 L342.1,384.7 L342.9,382.7 L343.8,374.1 L344.6,392.5 L345.4,388.9 L346.3,374.9 L347.1,354.1 L348.0,327.2 L348.8,344.8 L349.7,352.8 L350.5,317.6 L351.3,313.7 L352.2,318.9 L353.0,315.5 L353.9,326.9 L354.7,335.5 L355.6,344.5 L356.4,344.3 L357.2,339.6 L358.1,344.0 L358.9,349.5 L359.8,355.2 L360.6,357.3 L361.5,359.8 L362.3,360.9 L363.1,360.1 L364.0,358.8 L364.8,364.5 L365.7,372.0 L366.5,372.5 L367.4,374.4 L368.2,371.8 L369.0,371.0 L369.9,365.5 L370.7,368.4 L371.6,364.0 L372.4,363.7 L373.3,364.3 L374.1,367.9 L374.9,367.1 L375.8,372.3 L376.6,378.0 L377.5,385.8 L378.3,388.9 L379.2,392.0 L380.0,395.9 L380.8,401.8 L381.7,403.7 L382.5,407.3 L383.4,412.7 L384.2,419.0 L385.1,420.0 L385.9,419.7 L386.7,420.0 L387.6,420.0 L388.4,420.0 L389.3,420.0 L390.1,420.0 L391.0,420.0 L391.8,420.0 L392.6,420.0 L393.5,420.0 L394.3,418.7 L395.2,418.4 L396.0,419.2 L396.9,419.0 L397.7,419.5 L398.5,418.7 L399.4,418.4 L400.2,417.9 L401.1,414.8 L401.9,411.7 L402.8,408.9 L403.6,405.7 L404.4,406.0 L405.3,405.0 L406.1,399.5 L407.0,389.9 L407.8,386.0 L408.7,393.6 L409.5,351.5 L410.3,332.6 L411.2,348.2 L412.0,358.3 L412.9,366.3 L413.7,370.0 L414.6,365.3 L415.4,379.3 L416.2,383.7 L417.1,385.0 L417.9,402.6 L418.8,409.1 L419.6,410.4 L420.4,415.9 L421.3,415.9 L422.1,416.4 L423.0,416.6 L423.8,416.6 L424.7,417.1 L425.5,417.4 L426.3,417.7 L427.2,417.4 L428.0,417.1 L428.9,417.1 L429.7,416.6 L430.6,414.3 L431.4,411.4 L432.2,407.6 L433.1,406.0 L433.9,401.3 L434.8,398.2 L435.6,393.3 L436.5,395.4 L437.3,395.9 L438.1,396.1 L439.0,402.1 L439.8,406.0 L440.7,408.3 L441.5,410.9 L442.4,407.0 L443.2,411.7 L444.0,411.2 L444.9,407.3 L445.7,406.5 L446.6,405.2 L447.4,404.7 L448.3,415.6 L449.1,417.9 L449.9,416.6 L450.8,418.2 L451.6,418.4 L452.5,419.0 L453.3,418.7 L454.2,417.9 L455.0,413.0 L455.8,407.8 L456.7,404.2 L457.5,403.4 L458.4,396.1 L459.2,387.6 L460.1,381.6 L460.9,370.7 L461.7,377.0 L462.6,382.4 L463.4,356.0 L464.3,352.6 L465.1,352.6 L466.0,356.7 L466.8,340.1 L467.6,369.4 L468.5,358.3 L469.3,368.9 L470.2,372.3 L471.0,364.0 L471.9,352.1 L472.7,345.8 L473.5,345.6 L474.4,346.9 L475.2,320.4 L476.1,323.3 L476.9,313.2 L477.8,314.2 L478.6,343.8 L479.4,331.1 L480.3,339.9 L481.1,331.3 L482.0,335.5 L482.8,337.3 L483.7,344.3 L484.5,335.2 L485.3,335.0 L486.2,324.8 L487.0,331.1 L487.9,353.6 L488.7,359.6 L489.6,361.9 L490.4,367.4 L491.2,381.4 L492.1,382.4 L492.9,372.5 L493.8,353.1 L494.6,350.8 L495.4,367.1 L496.3,365.5 L497.1,362.2 L498.0,342.0 L498.8,352.1 L499.7,354.7 L500.5,361.1 L501.3,373.6 L502.2,359.1 L503.0,342.7 L503.9,319.4 L504.7,313.9 L505.6,316.0 L506.4,313.2 L507.2,317.3 L508.1,316.0 L508.9,332.6 L509.8,328.7 L510.6,332.1 L511.5,320.7 L512.3,330.8 L513.1,330.3 L514.0,324.8 L514.8,318.1 L515.7,324.8 L516.5,323.0 L517.4,339.1 L518.2,338.1 L519.0,325.4 L519.9,321.5 L520.7,325.1 L521.6,325.1 L522.4,328.2 L523.3,330.5 L524.1,337.8 L524.9,332.4 L525.8,336.5 L526.6,341.7 L527.5,331.6 L528.3,332.1 L529.2,363.7 L530.0,399.5 L530.8,393.6 L531.7,389.4 L532.5,384.5 L533.4,387.1 L534.2,383.4 L535.1,345.1 L535.9,347.7 L536.7,354.9 L537.6,368.7 L538.4,360.9 L539.3,362.4 L540.1,344.5 L541.0,334.4 L541.8,345.8 L542.6,364.0 L543.5,352.1 L544.3,327.7 L545.2,322.0 L546.0,322.5 L546.9,326.9 L547.7,327.4 L548.5,337.3 L549.4,338.6 L550.2,335.0 L551.1,333.9 L551.9,333.4 L552.8,333.4 L553.6,332.9 L554.4,337.0 L555.3,318.6 L556.1,315.0 L557.0,315.0 L557.8,314.7 L558.7,316.8 L559.5,316.0 L560.3,315.2 L561.2,328.2 L562.0,328.5 L562.9,319.4 L563.7,323.0 L564.6,322.0 L565.4,324.1 L566.2,333.7 L567.1,339.4 L567.9,365.8 L568.8,369.4 L569.6,372.8 L570.4,367.1 L571.3,365.0 L572.1,373.1 L573.0,402.4 L573.8,396.7 L574.7,386.3 L575.5,387.6 L576.3,386.6 L577.2,388.9 L578.0,405.5 L578.9,414.0 L579.7,418.7 L580.6,420.0 L581.4,417.4 L582.2,414.3 L583.1,409.4 L583.9,410.4 L584.8,408.9 L585.6,407.0 L586.5,402.6 L587.3,405.2 L588.1,397.4 L589.0,383.4 L589.8,386.8 L590.7,359.6 L591.5,350.0 L592.4,344.3 L593.2,351.0 L594.0,347.9 L594.9,345.3 L595.7,360.9 L596.6,370.2 L597.4,380.8 L598.3,404.2 L599.1,409.4 L599.9,403.4 L600.8,396.4 L601.6,390.7 L602.5,393.0 L603.3,400.3 L604.2,395.9 L605.0,399.3 L605.8,400.6 L606.7,399.8 L607.5,399.8 L608.4,400.8 L609.2,398.5 L610.1,404.4 L610.9,404.2 L611.7,402.1 L612.6,398.7 L613.4,382.1 L614.3,378.5 L615.1,367.6 L616.0,375.1 L616.8,380.6 L617.6,363.2 L618.5,362.2 L619.3,360.9 L620.2,353.1 L621.0,353.6 L621.9,373.8 L622.7,366.6 L623.5,375.9 L624.4,378.0 L625.2,394.1 L626.1,383.7 L626.9,380.3 L627.8,367.9 L628.6,358.8 L629.4,377.7 L630.3,367.6 L631.1,349.0 L632.0,366.6 L632.8,369.4 L633.7,364.5 L634.5,344.0 L635.3,365.3 L636.2,365.3 L637.0,371.8 L637.9,398.5 L638.7,387.6 L639.6,388.9 L640.4,392.8 L641.2,394.3 L642.1,372.8 L642.9,359.3 L643.8,332.9 L644.6,324.8 L645.4,326.7 L646.3,350.2 L647.1,338.1 L648.0,344.8 L648.8,356.0 L649.7,374.6 L650.5,371.0 L651.3,393.6 L652.2,400.6 L653.0,400.6 L653.9,400.6 L654.7,402.6 L655.6,399.8 L656.4,400.0 L657.2,399.0 L658.1,394.1 L658.9,397.2 L659.8,396.7 L660.6,394.3 L661.5,395.9 L662.3,388.9 L663.1,383.2 L664.0,381.9 L664.8,372.5 L665.7,373.8 L666.5,375.9 L667.4,371.8 L668.2,366.3 L669.0,379.6 L669.9,379.3 L670.7,379.3 L671.6,375.7 L672.4,363.7 L673.3,370.2 L674.1,353.4 L674.9,376.2 L675.8,382.7 L676.6,379.0 L677.5,348.2 L678.3,363.7 L679.2,380.1 L680.0,371.5" stroke="#1f77b4" stroke-width="2" fill="none" opacity="0.8"/>
<!-- Hydro Generation -->
<path d="M80.0,347.7 L80.8,346.9 L81.7,347.1 L82.5,347.7 L83.4,346.4 L84.2,347.1 L85.1,346.9 L85.9,347.4 L86.7,347.7 L87.6,346.4 L88.4,346.4 L89.3,346.6 L90.1,346.9 L91.0,346.6 L91.8,347.1 L92.6,347.1 L93.5,347.1 L94.3,346.9 L95.2,347.1 L96.0,347.9 L96.9,347.7 L97.7,347.4 L98.5,347.9 L99.4,347.7 L100.2,348.2 L101.1,348.2 L101.9,348.2 L102.8,348.7 L103.6,347.9 L104.4,348.2 L105.3,347.7 L106.1,348.2 L107.0,348.2 L107.8,347.4 L108.7,347.9 L109.5,348.2 L110.3,347.9 L111.2,347.9 L112.0,348.2 L112.9,347.7 L113.7,347.9 L114.6,347.9 L115.4,347.9 L116.2,348.2 L117.1,352.1 L117.9,348.7 L118.8,348.4 L119.6,348.4 L120.4,348.4 L121.3,348.7 L122.1,348.4 L123.0,349.0 L123.8,348.2 L124.7,348.4 L125.5,348.2 L126.3,348.7 L127.2,349.0 L128.0,348.4 L128.9,348.7 L129.7,349.0 L130.6,348.4 L131.4,348.2 L132.2,348.2 L133.1,348.4 L133.9,348.4 L134.8,348.2 L135.6,348.4 L136.5,348.2 L137.3,348.4 L138.1,349.2 L139.0,349.2 L139.8,349.0 L140.7,349.2 L141.5,349.0 L142.4,349.0 L143.2,349.5 L144.0,349.7 L144.9,350.8 L145.7,350.8 L146.6,350.5 L147.4,351.0 L148.3,351.3 L149.1,351.0 L149.9,351.3 L150.8,350.5 L151.6,351.0 L152.5,351.0 L153.3,350.8 L154.2,350.5 L155.0,350.5 L155.8,350.5 L156.7,350.2 L157.5,350.5 L158.4,349.7 L159.2,350.2 L160.1,350.0 L160.9,349.7 L161.7,350.0 L162.6,349.7 L163.4,349.5 L164.3,349.7 L165.1,350.2 L166.0,349.7 L166.8,349.5 L167.6,349.2 L168.5,349.7 L169.3,349.7 L170.2,350.8 L171.0,350.8 L171.9,352.1 L172.7,351.3 L173.5,352.8 L174.4,352.3 L175.2,351.8 L176.1,351.5 L176.9,351.8 L177.8,351.0 L178.6,351.0 L179.4,351.0 L180.3,350.8 L181.1,351.0 L182.0,351.0 L182.8,351.0 L183.7,351.0 L184.5,351.0 L185.3,351.0 L186.2,350.5 L187.0,350.5 L187.9,350.8 L188.7,350.2 L189.6,350.2 L190.4,350.2 L191.2,350.2 L192.1,350.8 L192.9,350.8 L193.8,350.2 L194.6,350.2 L195.4,349.0 L196.3,349.5 L197.1,349.5 L198.0,349.0 L198.8,350.0 L199.7,350.0 L200.5,350.2 L201.3,350.0 L202.2,349.5 L203.0,350.0 L203.9,350.0 L204.7,350.2 L205.6,350.2 L206.4,350.0 L207.2,349.5 L208.1,349.7 L208.9,350.0 L209.8,349.7 L210.6,349.7 L211.5,349.7 L212.3,350.5 L213.1,350.2 L214.0,349.7 L214.8,348.7 L215.7,349.2 L216.5,349.0 L217.4,349.0 L218.2,349.0 L219.0,348.7 L219.9,348.7 L220.7,349.2 L221.6,349.0 L222.4,349.2 L223.3,348.7 L224.1,348.7 L224.9,348.4 L225.8,348.7 L226.6,348.4 L227.5,348.7 L228.3,348.4 L229.2,348.4 L230.0,347.7 L230.8,347.7 L231.7,347.4 L232.5,347.1 L233.4,347.1 L234.2,347.4 L235.1,346.9 L235.9,347.1 L236.7,347.1 L237.6,347.1 L238.4,347.1 L239.3,348.4 L240.1,347.9 L241.0,347.9 L241.8,347.1 L242.6,348.4 L243.5,347.9 L244.3,348.2 L245.2,348.2 L246.0,348.2 L246.9,348.4 L247.7,348.4 L248.5,348.2 L249.4,347.9 L250.2,347.7 L251.1,348.2 L251.9,348.4 L252.8,348.2 L253.6,349.0 L254.4,349.2 L255.3,349.0 L256.1,349.5 L257.0,349.2 L257.8,349.5 L258.7,349.2 L259.5,349.2 L260.3,349.2 L261.2,349.0 L262.0,349.2 L262.9,349.2 L263.7,349.7 L264.6,349.7 L265.4,350.0 L266.2,350.0 L267.1,350.0 L267.9,350.0 L268.8,349.7 L269.6,350.2 L270.4,350.0 L271.3,349.2 L272.1,349.2 L273.0,349.2 L273.8,348.7 L274.7,349.7 L275.5,349.7 L276.3,350.0 L277.2,349.5 L278.0,350.0 L278.9,350.0 L279.7,349.7 L280.6,350.0 L281.4,350.0 L282.2,350.2 L283.1,350.0 L283.9,350.2 L284.8,350.2 L285.6,350.5 L286.5,350.2 L287.3,350.2 L288.1,350.2 L289.0,350.0 L289.8,350.2 L290.7,350.8 L291.5,351.0 L292.4,350.5 L293.2,350.8 L294.0,350.8 L294.9,350.5 L295.7,351.3 L296.6,351.0 L297.4,352.1 L298.3,352.1 L299.1,351.5 L299.9,351.5 L300.8,351.5 L301.6,351.3 L302.5,351.3 L303.3,351.3 L304.2,351.3 L305.0,351.5 L305.8,351.5 L306.7,351.5 L307.5,351.3 L308.4,351.0 L309.2,351.0 L310.1,350.8 L310.9,351.3 L311.7,351.0 L312.6,350.8 L313.4,350.8 L314.3,350.2 L315.1,350.5 L316.0,350.5 L316.8,350.0 L317.6,350.2 L318.5,350.5 L319.3,351.0 L320.2,351.0 L321.0,350.8 L321.9,351.0 L322.7,350.5 L323.5,351.0 L324.4,351.0 L325.2,351.0 L326.1,350.8 L326.9,351.0 L327.8,351.3 L328.6,350.8 L329.4,349.7 L330.3,349.7 L331.1,349.5 L332.0,349.5 L332.8,349.2 L333.7,348.7 L334.5,347.9 L335.3,348.4 L336.2,347.9 L337.0,347.9 L337.9,347.1 L338.7,347.1 L339.6,347.7 L340.4,347.1 L341.2,347.4 L342.1,347.4 L342.9,348.2 L343.8,348.4 L344.6,348.2 L345.4,348.4 L346.3,347.9 L347.1,349.0 L348.0,349.0 L348.8,349.2 L349.7,349.2 L350.5,349.2 L351.3,349.2 L352.2,349.2 L353.0,348.4 L353.9,348.2 L354.7,348.4 L355.6,348.7 L356.4,348.2 L357.2,347.4 L358.1,346.6 L358.9,346.9 L359.8,346.1 L360.6,346.6 L361.5,346.4 L362.3,346.4 L363.1,346.4 L364.0,346.4 L364.8,346.1 L365.7,347.7 L366.5,347.9 L367.4,348.2 L368.2,347.9 L369.0,346.9 L369.9,347.1 L370.7,346.4 L371.6,345.3 L372.4,345.8 L373.3,345.3 L374.1,345.8 L374.9,345.1 L375.8,344.0 L376.6,344.5 L377.5,343.2 L378.3,343.2 L379.2,343.8 L380.0,343.8 L380.8,344.3 L381.7,349.5 L382.5,350.8 L383.4,354.4 L384.2,356.5 L385.1,356.0 L385.9,357.0 L386.7,356.2 L387.6,357.0 L388.4,358.0 L389.3,357.3 L390.1,355.7 L391.0,355.2 L391.8,355.2 L392.6,353.6 L393.5,353.6 L394.3,353.4 L395.2,353.6 L396.0,353.4 L396.9,353.4 L397.7,353.6 L398.5,353.6 L399.4,353.9 L400.2,354.1 L401.1,354.1 L401.9,355.4 L402.8,355.2 L403.6,358.0 L404.4,359.3 L405.3,359.3 L406.1,359.6 L407.0,360.9 L407.8,361.4 L408.7,361.4 L409.5,361.7 L410.3,364.0 L411.2,375.9 L412.0,376.2 L412.9,362.7 L413.7,362.7 L414.6,362.4 L415.4,362.2 L416.2,362.4 L417.1,363.2 L417.9,362.7 L418.8,363.2 L419.6,363.2 L420.4,361.4 L421.3,360.9 L422.1,360.9 L423.0,359.3 L423.8,358.3 L424.7,355.4 L425.5,355.2 L426.3,355.7 L427.2,355.7 L428.0,356.0 L428.9,354.4 L429.7,354.1 L430.6,354.4 L431.4,351.5 L432.2,351.5 L433.1,352.3 L433.9,350.0 L434.8,349.7 L435.6,350.2 L436.5,348.7 L437.3,348.4 L438.1,346.9 L439.0,347.7 L439.8,346.9 L440.7,347.4 L441.5,347.1 L442.4,346.9 L443.2,346.9 L444.0,346.6 L444.9,346.6 L445.7,346.9 L446.6,346.6 L447.4,346.6 L448.3,346.1 L449.1,346.1 L449.9,347.7 L450.8,347.4 L451.6,345.8 L452.5,345.1 L453.3,344.8 L454.2,342.5 L455.0,342.2 L455.8,342.5 L456.7,342.0 L457.5,342.2 L458.4,342.2 L459.2,341.7 L460.1,341.7 L460.9,341.7 L461.7,341.7 L462.6,341.7 L463.4,342.0 L464.3,342.2 L465.1,342.0 L466.0,342.0 L466.8,342.7 L467.6,342.5 L468.5,343.2 L469.3,341.7 L470.2,342.2 L471.0,342.5 L471.9,342.7 L472.7,342.7 L473.5,342.5 L474.4,341.7 L475.2,341.4 L476.1,341.7 L476.9,341.7 L477.8,341.7 L478.6,341.2 L479.4,340.9 L480.3,340.7 L481.1,340.9 L482.0,340.9 L482.8,339.9 L483.7,339.6 L484.5,339.6 L485.3,339.6 L486.2,339.9 L487.0,339.4 L487.9,339.6 L488.7,339.9 L489.6,340.4 L490.4,340.4 L491.2,340.1 L492.1,340.4 L492.9,341.2 L493.8,339.9 L494.6,338.8 L495.4,338.6 L496.3,338.8 L497.1,337.8 L498.0,338.3 L498.8,338.3 L499.7,337.8 L500.5,338.3 L501.3,338.6 L502.2,338.6 L503.0,338.1 L503.9,338.1 L504.7,337.8 L505.6,338.3 L506.4,338.1 L507.2,338.8 L508.1,340.1 L508.9,340.7 L509.8,340.9 L510.6,340.7 L511.5,340.4 L512.3,340.7 L513.1,340.4 L514.0,340.4 L514.8,339.9 L515.7,340.4 L516.5,338.6 L517.4,338.8 L518.2,338.6 L519.0,337.5 L519.9,338.3 L520.7,338.1 L521.6,338.1 L522.4,338.3 L523.3,338.3 L524.1,339.1 L524.9,340.1 L525.8,340.4 L526.6,340.7 L527.5,340.4 L528.3,341.2 L529.2,341.2 L530.0,341.2 L530.8,341.4 L531.7,342.5 L532.5,343.5 L533.4,344.5 L534.2,342.0 L535.1,342.7 L535.9,343.2 L536.7,343.0 L537.6,342.7 L538.4,343.5 L539.3,343.2 L540.1,343.2 L541.0,343.2 L541.8,343.5 L542.6,343.0 L543.5,342.7 L544.3,342.0 L545.2,342.2 L546.0,342.2 L546.9,342.0 L547.7,342.7 L548.5,342.7 L549.4,343.0 L550.2,344.0 L551.1,346.1 L551.9,345.6 L552.8,347.1 L553.6,347.4 L554.4,349.7 L555.3,350.0 L556.1,349.5 L557.0,349.7 L557.8,350.8 L558.7,351.0 L559.5,351.0 L560.3,351.8 L561.2,352.6 L562.0,351.5 L562.9,351.5 L563.7,351.5 L564.6,351.8 L565.4,351.8 L566.2,352.8 L567.1,353.9 L567.9,355.2 L568.8,354.9 L569.6,354.7 L570.4,355.2 L571.3,354.9 L572.1,354.9 L573.0,355.4 L573.8,354.9 L574.7,354.7 L575.5,354.9 L576.3,354.9 L577.2,355.2 L578.0,354.9 L578.9,355.4 L579.7,355.4 L580.6,355.2 L581.4,355.2 L582.2,354.9 L583.1,354.9 L583.9,355.2 L584.8,355.2 L585.6,355.2 L586.5,355.4 L587.3,355.7 L588.1,356.5 L589.0,356.0 L589.8,356.5 L590.7,356.2 L591.5,356.0 L592.4,356.0 L593.2,355.7 L594.0,355.7 L594.9,356.0 L595.7,356.0 L596.6,356.2 L597.4,356.0 L598.3,356.0 L599.1,356.0 L599.9,356.0 L600.8,356.2 L601.6,356.2 L602.5,355.4 L603.3,356.0 L604.2,355.4 L605.0,355.4 L605.8,355.4 L606.7,354.7 L607.5,354.9 L608.4,354.9 L609.2,354.9 L610.1,354.4 L610.9,354.7 L611.7,354.4 L612.6,355.4 L613.4,356.2 L614.3,355.2 L615.1,355.2 L616.0,355.7 L616.8,356.5 L617.6,357.3 L618.5,357.8 L619.3,357.8 L620.2,357.8 L621.0,357.8 L621.9,356.7 L622.7,356.5 L623.5,356.5 L624.4,355.7 L625.2,355.4 L626.1,355.2 L626.9,354.9 L627.8,355.2 L628.6,354.1 L629.4,354.1 L630.3,354.1 L631.1,354.1 L632.0,354.1 L632.8,353.9 L633.7,353.9 L634.5,353.4 L635.3,353.4 L636.2,353.6 L637.0,353.6 L637.9,352.8 L638.7,353.4 L639.6,353.4 L640.4,353.1 L641.2,353.1 L642.1,353.1 L642.9,354.1 L643.8,354.4 L644.6,354.1 L645.4,353.9 L646.3,353.9 L647.1,353.9 L648.0,353.9 L648.8,353.9 L649.7,353.9 L650.5,353.4 L651.3,353.1 L652.2,353.4 L653.0,353.9 L653.9,355.4 L654.7,352.3 L655.6,352.1 L656.4,352.1 L657.2,352.1 L658.1,352.1 L658.9,352.1 L659.8,353.4 L660.6,353.1 L661.5,352.8 L662.3,353.1 L663.1,353.9 L664.0,354.4 L664.8,353.9 L665.7,354.1 L666.5,353.9 L667.4,353.9 L668.2,353.6 L669.0,353.4 L669.9,352.8 L670.7,352.1 L671.6,352.8 L672.4,352.6 L673.3,352.1 L674.1,351.5 L674.9,351.5 L675.8,351.8 L676.6,353.1 L677.5,352.3 L678.3,352.3 L679.2,353.4 L680.0,353.4" stroke="#ff7f0e" stroke-width="2" fill="none" opacity="0.8"/>
<!-- Thermal Generation -->
<path d="M80.0,263.4 L80.8,257.2 L81.7,258.5 L82.5,258.7 L83.4,303.6 L84.2,295.3 L85.1,294.5 L85.9,292.2 L86.7,314.2 L87.6,322.8 L88.4,322.2 L89.3,332.9 L90.1,297.9 L91.0,256.6 L91.8,255.1 L92.6,269.4 L93.5,254.3 L94.3,254.3 L95.2,260.5 L96.0,297.4 L96.9,296.3 L97.7,302.0 L98.5,301.5 L99.4,326.7 L100.2,326.4 L101.1,316.3 L101.9,261.8 L102.8,261.6 L103.6,296.8 L104.4,323.8 L105.3,329.8 L106.1,336.5 L107.0,345.6 L107.8,345.6 L108.7,345.1 L109.5,315.5 L110.3,304.6 L111.2,285.9 L112.0,276.6 L112.9,276.9 L113.7,269.6 L114.6,269.1 L115.4,269.1 L116.2,269.4 L117.1,272.2 L117.9,268.6 L118.8,269.4 L119.6,268.8 L120.4,268.3 L121.3,271.7 L122.1,274.5 L123.0,271.4 L123.8,277.1 L124.7,279.5 L125.5,281.5 L126.3,282.6 L127.2,282.1 L128.0,289.6 L128.9,299.7 L129.7,303.8 L130.6,303.6 L131.4,261.3 L132.2,263.9 L133.1,259.2 L133.9,259.2 L134.8,279.2 L135.6,320.7 L136.5,321.7 L137.3,347.4 L138.1,362.4 L139.0,362.4 L139.8,373.1 L140.7,372.8 L141.5,363.0 L142.4,362.4 L143.2,362.7 L144.0,363.0 L144.9,373.3 L145.7,372.8 L146.6,372.5 L147.4,370.2 L148.3,370.0 L149.1,365.5 L149.9,364.0 L150.8,364.0 L151.6,329.5 L152.5,330.5 L153.3,357.0 L154.2,354.1 L155.0,353.9 L155.8,351.5 L156.7,354.1 L157.5,354.4 L158.4,364.5 L159.2,364.0 L160.1,364.0 L160.9,363.7 L161.7,364.3 L162.6,364.3 L163.4,364.3 L164.3,349.0 L165.1,349.0 L166.0,348.7 L166.8,348.7 L167.6,348.2 L168.5,349.2 L169.3,349.0 L170.2,348.7 L171.0,324.8 L171.9,267.3 L172.7,286.7 L173.5,286.5 L174.4,286.5 L175.2,286.2 L176.1,286.2 L176.9,286.5 L177.8,287.0 L178.6,307.2 L179.4,305.4 L180.3,306.4 L181.1,305.4 L182.0,292.4 L182.8,286.7 L183.7,296.3 L184.5,296.6 L185.3,298.1 L186.2,287.0 L187.0,285.4 L187.9,284.4 L188.7,286.7 L189.6,286.5 L190.4,286.7 L191.2,268.8 L192.1,255.3 L192.9,252.0 L193.8,254.3 L194.6,255.1 L195.4,265.2 L196.3,261.6 L197.1,287.0 L198.0,286.5 L198.8,246.8 L199.7,242.4 L200.5,242.4 L201.3,249.9 L202.2,256.6 L203.0,259.2 L203.9,259.0 L204.7,266.2 L205.6,261.6 L206.4,259.8 L207.2,258.7 L208.1,301.0 L208.9,290.6 L209.8,315.0 L210.6,317.1 L211.5,263.4 L212.3,250.2 L213.1,244.7 L214.0,243.2 L214.8,242.9 L215.7,241.6 L216.5,242.1 L217.4,241.9 L218.2,241.6 L219.0,269.6 L219.9,272.5 L220.7,272.5 L221.6,260.0 L222.4,244.7 L223.3,245.2 L224.1,245.2 L224.9,247.1 L225.8,246.8 L226.6,263.9 L227.5,270.1 L228.3,278.2 L229.2,297.9 L230.0,297.6 L230.8,292.4 L231.7,247.8 L232.5,246.8 L233.4,262.9 L234.2,259.0 L235.1,259.0 L235.9,271.7 L236.7,269.6 L237.6,310.3 L238.4,327.4 L239.3,262.1 L240.1,264.4 L241.0,262.3 L241.8,254.8 L242.6,262.1 L243.5,262.1 L244.3,265.5 L245.2,263.1 L246.0,299.7 L246.9,272.5 L247.7,290.6 L248.5,304.4 L249.4,299.4 L250.2,328.0 L251.1,303.3 L251.9,287.2 L252.8,262.9 L253.6,259.5 L254.4,243.4 L255.3,243.2 L256.1,242.6 L257.0,242.9 L257.8,242.1 L258.7,250.2 L259.5,257.4 L260.3,267.5 L261.2,257.2 L262.0,242.4 L262.9,262.3 L263.7,242.9 L264.6,242.9 L265.4,243.2 L266.2,267.3 L267.1,281.5 L267.9,288.0 L268.8,272.2 L269.6,270.1 L270.4,248.6 L271.3,256.9 L272.1,252.5 L273.0,242.9 L273.8,242.9 L274.7,241.9 L275.5,242.1 L276.3,242.1 L277.2,242.1 L278.0,244.7 L278.9,261.8 L279.7,247.6 L280.6,259.5 L281.4,284.1 L282.2,283.9 L283.1,286.5 L283.9,286.5 L284.8,287.8 L285.6,287.2 L286.5,305.7 L287.3,325.6 L288.1,352.1 L289.0,352.1 L289.8,352.3 L290.7,357.3 L291.5,357.3 L292.4,342.0 L293.2,267.0 L294.0,244.7 L294.9,247.3 L295.7,268.1 L296.6,262.3 L297.4,287.2 L298.3,286.2 L299.1,281.8 L299.9,286.2 L300.8,287.0 L301.6,303.3 L302.5,286.5 L303.3,286.7 L304.2,287.5 L305.0,287.8 L305.8,288.8 L306.7,287.8 L307.5,287.5 L308.4,287.2 L309.2,301.2 L310.1,306.9 L310.9,307.2 L311.7,317.1 L312.6,301.5 L313.4,254.6 L314.3,242.1 L315.1,241.9 L316.0,242.4 L316.8,249.9 L317.6,258.2 L318.5,267.5 L319.3,274.8 L320.2,276.9 L321.0,246.0 L321.9,247.3 L322.7,243.2 L323.5,241.6 L324.4,242.9 L325.2,250.4 L326.1,277.6 L326.9,250.2 L327.8,290.1 L328.6,296.6 L329.4,295.5 L330.3,297.1 L331.1,297.1 L332.0,273.5 L332.8,242.4 L333.7,242.6 L334.5,243.4 L335.3,243.4 L336.2,242.6 L337.0,242.4 L337.9,272.7 L338.7,287.2 L339.6,287.2 L340.4,331.8 L341.2,344.3 L342.1,338.3 L342.9,333.9 L343.8,323.3 L344.6,307.7 L345.4,330.5 L346.3,318.9 L347.1,320.2 L348.0,322.2 L348.8,343.8 L349.7,345.1 L350.5,344.0 L351.3,344.5 L352.2,345.1 L353.0,344.5 L353.9,306.9 L354.7,304.6 L355.6,305.1 L356.4,308.0 L357.2,304.4 L358.1,335.0 L358.9,334.4 L359.8,339.1 L360.6,342.2 L361.5,341.7 L362.3,342.0 L363.1,339.6 L364.0,335.0 L364.8,326.7 L365.7,335.2 L366.5,335.7 L367.4,341.7 L368.2,342.2 L369.0,341.2 L369.9,341.4 L370.7,341.7 L371.6,341.2 L372.4,341.2 L373.3,341.7 L374.1,297.1 L374.9,300.7 L375.8,303.1 L376.6,300.2 L377.5,299.9 L378.3,303.1 L379.2,312.4 L380.0,317.1 L380.8,299.4 L381.7,299.7 L382.5,300.2 L383.4,300.2 L384.2,300.5 L385.1,302.5 L385.9,305.4 L386.7,313.2 L387.6,310.3 L388.4,324.3 L389.3,308.5 L390.1,306.4 L391.0,330.0 L391.8,324.8 L392.6,331.8 L393.5,326.1 L394.3,303.8 L395.2,304.9 L396.0,301.8 L396.9,303.1 L397.7,302.8 L398.5,302.3 L399.4,302.0 L400.2,302.0 L401.1,302.3 L401.9,307.5 L402.8,304.9 L403.6,302.8 L404.4,302.5 L405.3,302.3 L406.1,302.5 L407.0,303.8 L407.8,314.5 L408.7,333.9 L409.5,344.0 L410.3,344.0 L411.2,363.5 L412.0,371.3 L412.9,363.2 L413.7,343.0 L414.6,299.4 L415.4,298.9 L416.2,300.2 L417.1,302.5 L417.9,314.2 L418.8,316.3 L419.6,298.7 L420.4,299.7 L421.3,299.2 L422.1,299.4 L423.0,303.3 L423.8,301.5 L424.7,301.0 L425.5,298.9 L426.3,304.9 L427.2,320.7 L428.0,325.9 L428.9,333.1 L429.7,343.8 L430.6,364.0 L431.4,364.3 L432.2,363.2 L433.1,363.5 L433.9,363.7 L434.8,301.8 L435.6,298.9 L436.5,299.4 L437.3,304.9 L438.1,299.4 L439.0,298.9 L439.8,302.5 L440.7,299.4 L441.5,299.2 L442.4,301.2 L443.2,300.7 L444.0,299.7 L444.9,299.2 L445.7,301.5 L446.6,299.7 L447.4,320.9 L448.3,344.3 L449.1,341.4 L449.9,364.5 L450.8,363.5 L451.6,363.7 L452.5,362.7 L453.3,364.8 L454.2,363.5 L455.0,279.7 L455.8,253.5 L456.7,252.5 L457.5,242.1 L458.4,278.4 L459.2,286.7 L460.1,285.7 L460.9,286.7 L461.7,327.4 L462.6,352.3 L463.4,352.1 L464.3,338.3 L465.1,337.3 L466.0,290.6 L466.8,296.6 L467.6,328.0 L468.5,354.7 L469.3,364.8 L470.2,364.5 L471.0,364.0 L471.9,364.5 L472.7,364.3 L473.5,364.5 L474.4,365.5 L475.2,291.4 L476.1,267.8 L476.9,268.8 L477.8,288.0 L478.6,331.8 L479.4,360.9 L480.3,333.1 L481.1,343.0 L482.0,342.7 L482.8,353.4 L483.7,353.4 L484.5,343.2 L485.3,327.4 L486.2,274.8 L487.0,317.8 L487.9,315.0 L488.7,340.9 L489.6,340.9 L490.4,341.4 L491.2,326.1 L492.1,311.4 L492.9,313.2 L493.8,296.6 L494.6,264.9 L495.4,242.4 L496.3,242.1 L497.1,242.1 L498.0,244.5 L498.8,243.4 L499.7,288.0 L500.5,288.5 L501.3,314.2 L502.2,311.1 L503.0,301.8 L503.9,317.1 L504.7,342.5 L505.6,364.0 L506.4,348.7 L507.2,344.3 L508.1,344.0 L508.9,364.3 L509.8,364.5 L510.6,364.3 L511.5,364.0 L512.3,364.3 L513.1,364.0 L514.0,364.0 L514.8,364.3 L515.7,339.1 L516.5,308.8 L517.4,348.2 L518.2,353.6 L519.0,364.0 L519.9,363.5 L520.7,363.5 L521.6,363.7 L522.4,364.0 L523.3,363.5 L524.1,363.5 L524.9,343.0 L525.8,332.6 L526.6,315.8 L527.5,330.8 L528.3,350.0 L529.2,353.9 L530.0,340.7 L530.8,340.9 L531.7,341.2 L532.5,326.7 L533.4,326.7 L534.2,336.0 L535.1,335.7 L535.9,300.7 L536.7,292.7 L537.6,283.6 L538.4,287.0 L539.3,303.8 L540.1,364.0 L541.0,363.7 L541.8,363.7 L542.6,363.7 L543.5,363.7 L544.3,363.0 L545.2,363.5 L546.0,363.7 L546.9,363.5 L547.7,364.5 L548.5,364.0 L549.4,363.7 L550.2,363.7 L551.1,364.0 L551.9,364.3 L552.8,364.3 L553.6,364.0 L554.4,364.3 L555.3,363.5 L556.1,354.4 L557.0,337.8 L557.8,348.4 L558.7,356.2 L559.5,356.2 L560.3,364.0 L561.2,363.7 L562.0,364.0 L562.9,364.0 L563.7,364.3 L564.6,363.7 L565.4,364.0 L566.2,364.0 L567.1,357.3 L567.9,345.1 L568.8,355.2 L569.6,343.0 L570.4,364.0 L571.3,352.8 L572.1,363.7 L573.0,363.7 L573.8,353.4 L574.7,317.3 L575.5,305.7 L576.3,258.2 L577.2,242.9 L578.0,242.9 L578.9,243.2 L579.7,245.5 L580.6,242.9 L581.4,242.1 L582.2,243.4 L583.1,242.6 L583.9,264.4 L584.8,286.5 L585.6,286.2 L586.5,261.8 L587.3,249.4 L588.1,286.2 L589.0,286.5 L589.8,301.2 L590.7,332.4 L591.5,348.2 L592.4,363.7 L593.2,363.7 L594.0,363.7 L594.9,363.5 L595.7,363.5 L596.6,285.4 L597.4,257.2 L598.3,249.4 L599.1,250.7 L599.9,245.2 L600.8,252.5 L601.6,279.2 L602.5,286.7 L603.3,302.5 L604.2,297.1 L605.0,291.4 L605.8,293.5 L606.7,272.7 L607.5,268.8 L608.4,249.1 L609.2,275.6 L610.1,296.3 L610.9,286.5 L611.7,312.7 L612.6,325.1 L613.4,325.9 L614.3,324.8 L615.1,325.4 L616.0,325.6 L616.8,281.3 L617.6,282.1 L618.5,281.8 L619.3,281.8 L620.2,281.3 L621.0,281.5 L621.9,281.5 L622.7,292.7 L623.5,318.1 L624.4,322.8 L625.2,301.5 L626.1,287.2 L626.9,273.5 L627.8,262.9 L628.6,280.2 L629.4,317.1 L630.3,323.0 L631.1,325.4 L632.0,338.1 L632.8,338.3 L633.7,338.1 L634.5,337.5 L635.3,337.8 L636.2,338.3 L637.0,288.3 L637.9,252.0 L638.7,243.4 L639.6,243.2 L640.4,254.6 L641.2,257.4 L642.1,278.7 L642.9,300.5 L643.8,343.5 L644.6,363.7 L645.4,363.7 L646.3,363.2 L647.1,316.5 L648.0,245.2 L648.8,288.0 L649.7,288.0 L650.5,329.5 L651.3,329.5 L652.2,330.0 L653.0,330.0 L653.9,330.3 L654.7,329.8 L655.6,330.0 L656.4,329.2 L657.2,320.2 L658.1,294.5 L658.9,311.4 L659.8,306.7 L660.6,306.7 L661.5,319.4 L662.3,324.3 L663.1,332.4 L664.0,343.2 L664.8,350.8 L665.7,350.5 L666.5,350.2 L667.4,308.0 L668.2,288.3 L669.0,288.5 L669.9,301.5 L670.7,289.1 L671.6,331.1 L672.4,330.5 L673.3,330.3 L674.1,340.7 L674.9,340.7 L675.8,341.4 L676.6,340.7 L677.5,341.2 L678.3,341.2 L679.2,340.7 L680.0,314.5" stroke="#2ca02c" stroke-width="2" fill="none" opacity="0.8"/>
<!-- Solar Generation -->
<path d="M80.0,420.0 L80.8,420.0 L81.7,420.0 L82.5,419.7 L83.4,414.3 L84.2,401.8 L85.1,390.2 L85.9,405.0 L86.7,396.9 L87.6,406.0 L88.4,392.3 L89.3,397.2 L90.1,412.7 L91.0,420.0 L91.8,420.0 L92.6,420.0 L93.5,420.0 L94.3,420.0 L95.2,420.0 L96.0,420.0 L96.9,420.0 L97.7,420.0 L98.5,420.0 L99.4,420.0 L100.2,420.0 L101.1,420.0 L101.9,420.0 L102.8,420.0 L103.6,409.6 L104.4,392.3 L105.3,393.3 L106.1,395.6 L107.0,396.4 L107.8,394.8 L108.7,392.8 L109.5,395.1 L110.3,411.7 L111.2,420.0 L112.0,420.0 L112.9,420.0 L113.7,420.0 L114.6,420.0 L115.4,420.0 L116.2,420.0 L117.1,420.0 L117.9,420.0 L118.8,420.0 L119.6,420.0 L120.4,420.0 L121.3,420.0 L122.1,420.0 L123.0,419.7 L123.8,405.0 L124.7,392.3 L125.5,393.3 L126.3,395.4 L127.2,396.1 L128.0,394.6 L128.9,394.1 L129.7,403.7 L130.6,416.1 L131.4,420.0 L132.2,420.0 L133.1,420.0 L133.9,420.0 L134.8,420.0 L135.6,420.0 L136.5,420.0 L137.3,420.0 L138.1,420.0 L139.0,420.0 L139.8,420.0 L140.7,420.0 L141.5,420.0 L142.4,420.0 L143.2,420.0 L144.0,417.7 L144.9,392.0 L145.7,399.0 L146.6,395.4 L147.4,394.8 L148.3,395.6 L149.1,392.3 L149.9,394.3 L150.8,410.9 L151.6,420.0 L152.5,420.0 L153.3,420.0 L154.2,420.0 L155.0,420.0 L155.8,420.0 L156.7,420.0 L157.5,420.0 L158.4,420.0 L159.2,420.0 L160.1,420.0 L160.9,420.0 L161.7,420.0 L162.6,420.0 L163.4,419.7 L164.3,417.9 L165.1,412.2 L166.0,411.2 L166.8,409.4 L167.6,405.5 L168.5,412.2 L169.3,412.7 L170.2,416.6 L171.0,419.0 L171.9,420.0 L172.7,420.0 L173.5,420.0 L174.4,420.0 L175.2,420.0 L176.1,420.0 L176.9,420.0 L177.8,420.0 L178.6,420.0 L179.4,420.0 L180.3,420.0 L181.1,420.0 L182.0,420.0 L182.8,420.0 L183.7,420.0 L184.5,409.9 L185.3,414.8 L186.2,411.7 L187.0,410.7 L187.9,399.8 L188.7,401.8 L189.6,411.2 L190.4,408.6 L191.2,413.3 L192.1,420.0 L192.9,420.0 L193.8,420.0 L194.6,420.0 L195.4,420.0 L196.3,420.0 L197.1,420.0 L198.0,420.0 L198.8,420.0 L199.7,420.0 L200.5,420.0 L201.3,420.0 L202.2,420.0 L203.0,420.0 L203.9,419.2 L204.7,401.8 L205.6,392.3 L206.4,394.1 L207.2,395.1 L208.1,394.6 L208.9,391.2 L209.8,396.9 L210.6,398.7 L211.5,408.9 L212.3,420.0 L213.1,420.0 L214.0,420.0 L214.8,420.0 L215.7,420.0 L216.5,420.0 L217.4,420.0 L218.2,420.0 L219.0,420.0 L219.9,420.0 L220.7,420.0 L221.6,420.0 L222.4,420.0 L223.3,420.0 L224.1,419.5 L224.9,414.6 L225.8,410.1 L226.6,396.9 L227.5,389.4 L228.3,394.3 L229.2,399.0 L230.0,395.4 L230.8,397.7 L231.7,408.3 L232.5,420.0 L233.4,420.0 L234.2,420.0 L235.1,420.0 L235.9,420.0 L236.7,420.0 L237.6,420.0 L238.4,420.0 L239.3,420.0 L240.1,420.0 L241.0,420.0 L241.8,420.0 L242.6,420.0 L243.5,420.0 L244.3,419.0 L245.2,401.8 L246.0,390.4 L246.9,391.2 L247.7,393.6 L248.5,394.1 L249.4,392.5 L250.2,390.2 L251.1,390.7 L251.9,407.6 L252.8,419.7 L253.6,420.0 L254.4,420.0 L255.3,420.0 L256.1,420.0 L257.0,420.0 L257.8,420.0 L258.7,420.0 L259.5,420.0 L260.3,420.0 L261.2,420.0 L262.0,420.0 L262.9,420.0 L263.7,420.0 L264.6,418.4 L265.4,408.1 L266.2,389.9 L267.1,392.5 L267.9,393.3 L268.8,393.8 L269.6,391.7 L270.4,398.7 L271.3,396.4 L272.1,412.7 L273.0,420.0 L273.8,420.0 L274.7,420.0 L275.5,420.0 L276.3,420.0 L277.2,420.0 L278.0,420.0 L278.9,420.0 L279.7,420.0 L280.6,420.0 L281.4,420.0 L282.2,420.0 L283.1,420.0 L283.9,420.0 L284.8,419.5 L285.6,409.6 L286.5,399.0 L287.3,394.1 L288.1,394.3 L289.0,397.4 L289.8,394.6 L290.7,406.5 L291.5,404.4 L292.4,415.1 L293.2,419.7 L294.0,420.0 L294.9,420.0 L295.7,420.0 L296.6,420.0 L297.4,420.0 L298.3,420.0 L299.1,420.0 L299.9,420.0 L300.8,420.0 L301.6,420.0 L302.5,420.0 L303.3,420.0 L304.2,420.0 L305.0,419.2 L305.8,407.0 L306.7,402.6 L307.5,398.5 L308.4,403.4 L309.2,391.2 L310.1,399.8 L310.9,403.9 L311.7,408.1 L312.6,415.3 L313.4,419.7 L314.3,420.0 L315.1,420.0 L316.0,420.0 L316.8,420.0 L317.6,420.0 L318.5,420.0 L319.3,420.0 L320.2,420.0 L321.0,420.0 L321.9,420.0 L322.7,420.0 L323.5,420.0 L324.4,420.0 L325.2,418.7 L326.1,399.5 L326.9,398.0 L327.8,390.7 L328.6,390.7 L329.4,389.7 L330.3,395.6 L331.1,394.8 L332.0,395.9 L332.8,413.0 L333.7,419.7 L334.5,420.0 L335.3,420.0 L336.2,420.0 L337.0,420.0 L337.9,420.0 L338.7,420.0 L339.6,420.0 L340.4,420.0 L341.2,420.0 L342.1,420.0 L342.9,420.0 L343.8,420.0 L344.6,420.0 L345.4,419.2 L346.3,417.1 L347.1,414.6 L348.0,412.7 L348.8,401.3 L349.7,400.8 L350.5,400.6 L351.3,404.2 L352.2,408.1 L353.0,410.1 L353.9,419.5 L354.7,420.0 L355.6,420.0 L356.4,420.0 L357.2,420.0 L358.1,420.0 L358.9,420.0 L359.8,420.0 L360.6,420.0 L361.5,420.0 L362.3,420.0 L363.1,420.0 L364.0,420.0 L364.8,420.0 L365.7,419.5 L366.5,412.2 L367.4,413.5 L368.2,409.9 L369.0,406.3 L369.9,403.1 L370.7,406.5 L371.6,409.4 L372.4,415.9 L373.3,418.4 L374.1,420.0 L374.9,420.0 L375.8,420.0 L376.6,420.0 L377.5,420.0 L378.3,420.0 L379.2,420.0 L380.0,420.0 L380.8,420.0 L381.7,420.0 L382.5,420.0 L383.4,420.0 L384.2,420.0 L385.1,420.0 L385.9,419.7 L386.7,417.1 L387.6,414.3 L388.4,409.4 L389.3,405.7 L390.1,401.3 L391.0,398.7 L391.8,394.1 L392.6,391.5 L393.5,405.0 L394.3,419.5 L395.2,420.0 L396.0,420.0 L396.9,420.0 L397.7,420.0 L398.5,420.0 L399.4,420.0 L400.2,420.0 L401.1,420.0 L401.9,420.0 L402.8,420.0 L403.6,420.0 L404.4,420.0 L405.3,420.0 L406.1,416.9 L407.0,408.9 L407.8,399.5 L408.7,387.3 L409.5,388.1 L410.3,390.7 L411.2,386.6 L412.0,387.6 L412.9,394.6 L413.7,414.8 L414.6,419.2 L415.4,420.0 L416.2,420.0 L417.1,420.0 L417.9,420.0 L418.8,420.0 L419.6,420.0 L420.4,420.0 L421.3,420.0 L422.1,420.0 L423.0,420.0 L423.8,420.0 L424.7,420.0 L425.5,420.0 L426.3,418.4 L427.2,413.5 L428.0,405.5 L428.9,392.3 L429.7,389.9 L430.6,388.4 L431.4,387.6 L432.2,385.8 L433.1,405.0 L433.9,401.1 L434.8,419.5 L435.6,420.0 L436.5,420.0 L437.3,420.0 L438.1,420.0 L439.0,420.0 L439.8,420.0 L440.7,420.0 L441.5,420.0 L442.4,420.0 L443.2,420.0 L444.0,420.0 L444.9,420.0 L445.7,420.0 L446.6,418.7 L447.4,406.0 L448.3,404.4 L449.1,404.4 L449.9,405.0 L450.8,405.5 L451.6,403.9 L452.5,406.5 L453.3,405.0 L454.2,412.7 L455.0,418.7 L455.8,420.0 L456.7,420.0 L457.5,420.0 L458.4,420.0 L459.2,420.0 L460.1,420.0 L460.9,420.0 L461.7,420.0 L462.6,420.0 L463.4,420.0 L464.3,420.0 L465.1,420.0 L466.0,420.0 L466.8,418.7 L467.6,407.8 L468.5,395.6 L469.3,395.6 L470.2,392.5 L471.0,392.5 L471.9,396.1 L472.7,409.9 L473.5,415.1 L474.4,416.9 L475.2,419.5 L476.1,420.0 L476.9,420.0 L477.8,420.0 L478.6,420.0 L479.4,420.0 L480.3,420.0 L481.1,420.0 L482.0,420.0 L482.8,420.0 L483.7,420.0 L484.5,420.0 L485.3,420.0 L486.2,420.0 L487.0,419.7 L487.9,417.4 L488.7,415.9 L489.6,413.0 L490.4,408.1 L491.2,405.7 L492.1,409.6 L492.9,411.7 L493.8,413.3 L494.6,416.9 L495.4,419.5 L496.3,420.0 L497.1,420.0 L498.0,420.0 L498.8,420.0 L499.7,420.0 L500.5,420.0 L501.3,420.0 L502.2,420.0 L503.0,420.0 L503.9,420.0 L504.7,420.0 L505.6,420.0 L506.4,420.0 L507.2,417.7 L508.1,393.8 L508.9,394.1 L509.8,392.0 L510.6,396.7 L511.5,389.4 L512.3,405.2 L513.1,404.7 L514.0,408.9 L514.8,406.3 L515.7,418.2 L516.5,420.0 L517.4,420.0 L518.2,420.0 L519.0,420.0 L519.9,420.0 L520.7,420.0 L521.6,420.0 L522.4,420.0 L523.3,420.0 L524.1,420.0 L524.9,420.0 L525.8,420.0 L526.6,420.0 L527.5,417.7 L528.3,400.6 L529.2,403.9 L530.0,409.4 L530.8,406.5 L531.7,407.0 L532.5,405.7 L533.4,404.7 L534.2,405.0 L535.1,416.6 L535.9,419.2 L536.7,420.0 L537.6,420.0 L538.4,420.0 L539.3,420.0 L540.1,420.0 L541.0,420.0 L541.8,420.0 L542.6,420.0 L543.5,420.0 L544.3,420.0 L545.2,420.0 L546.0,420.0 L546.9,420.0 L547.7,413.5 L548.5,398.0 L549.4,398.7 L550.2,406.5 L551.1,405.5 L551.9,410.9 L552.8,413.5 L553.6,410.1 L554.4,415.1 L555.3,418.4 L556.1,420.0 L557.0,420.0 L557.8,420.0 L558.7,420.0 L559.5,420.0 L560.3,420.0 L561.2,420.0 L562.0,420.0 L562.9,420.0 L563.7,420.0 L564.6,420.0 L565.4,420.0 L566.2,420.0 L567.1,420.0 L567.9,415.3 L568.8,406.0 L569.6,405.7 L570.4,405.7 L571.3,406.5 L572.1,407.0 L573.0,405.7 L573.8,405.0 L574.7,405.0 L575.5,414.8 L576.3,419.7 L577.2,420.0 L578.0,420.0 L578.9,420.0 L579.7,420.0 L580.6,420.0 L581.4,420.0 L582.2,420.0 L583.1,420.0 L583.9,420.0 L584.8,420.0 L585.6,420.0 L586.5,420.0 L587.3,420.0 L588.1,416.6 L589.0,399.3 L589.8,399.5 L590.7,401.1 L591.5,401.8 L592.4,396.9 L593.2,400.0 L594.0,401.6 L594.9,407.8 L595.7,414.0 L596.6,419.2 L597.4,420.0 L598.3,420.0 L599.1,420.0 L599.9,420.0 L600.8,420.0 L601.6,420.0 L602.5,420.0 L603.3,420.0 L604.2,420.0 L605.0,420.0 L605.8,420.0 L606.7,420.0 L607.5,420.0 L608.4,417.4 L609.2,407.6 L610.1,404.2 L610.9,401.6 L611.7,398.2 L612.6,400.3 L613.4,395.9 L614.3,406.5 L615.1,406.5 L616.0,408.9 L616.8,418.2 L617.6,420.0 L618.5,420.0 L619.3,420.0 L620.2,420.0 L621.0,420.0 L621.9,420.0 L622.7,420.0 L623.5,420.0 L624.4,420.0 L625.2,420.0 L626.1,420.0 L626.9,420.0 L627.8,420.0 L628.6,410.4 L629.4,388.9 L630.3,385.5 L631.1,387.1 L632.0,388.1 L632.8,389.4 L633.7,392.8 L634.5,391.2 L635.3,394.1 L636.2,402.1 L637.0,417.4 L637.9,420.0 L638.7,420.0 L639.6,420.0 L640.4,420.0 L641.2,420.0 L642.1,420.0 L642.9,420.0 L643.8,420.0 L644.6,420.0 L645.4,420.0 L646.3,420.0 L647.1,420.0 L648.0,420.0 L648.8,417.7 L649.7,412.7 L650.5,410.9 L651.3,404.7 L652.2,405.2 L653.0,411.2 L653.9,410.4 L654.7,413.3 L655.6,413.5 L656.4,416.9 L657.2,417.9 L658.1,420.0 L658.9,420.0 L659.8,420.0 L660.6,420.0 L661.5,420.0 L662.3,420.0 L663.1,420.0 L664.0,420.0 L664.8,420.0 L665.7,420.0 L666.5,420.0 L667.4,420.0 L668.2,420.0 L669.0,418.4 L669.9,415.6 L670.7,416.9 L671.6,415.6 L672.4,412.7 L673.3,409.9 L674.1,414.3 L674.9,410.4 L675.8,416.9 L676.6,416.9 L677.5,418.4 L678.3,420.0 L679.2,420.0 L680.0,420.0" stroke="#d62728" stroke-width="2" fill="none" opacity="0.8"/>
<!-- Forecast -->
<path d="M80.0,256.6 L80.8,244.7 L81.7,220.6 L82.5,194.7 L83.4,181.2 L84.2,181.2 L85.1,184.0 L85.9,187.7 L86.7,191.3 L87.6,195.2 L88.4,199.1 L89.3,200.4 L90.1,194.9 L91.0,183.0 L91.8,176.5 L92.6,177.3 L93.5,188.5 L94.3,201.4 L95.2,220.1 L96.0,237.5 L96.9,249.6 L97.7,256.6 L98.5,260.5 L99.4,262.1 L100.2,259.8 L101.1,247.3 L101.9,222.9 L102.8,196.7 L103.6,183.3 L104.4,182.5 L105.3,185.1 L106.1,188.5 L107.0,191.6 L107.8,195.5 L108.7,199.3 L109.5,200.6 L110.3,195.7 L111.2,183.5 L112.0,176.3 L112.9,176.5 L113.7,187.2 L114.6,202.5 L115.4,219.3 L116.2,237.7 L117.1,249.9 L117.9,255.3 L118.8,258.5 L119.6,260.0 L120.4,256.9 L121.3,244.5 L122.1,220.3 L123.0,193.1 L123.8,180.4 L124.7,180.4 L125.5,183.3 L126.3,187.2 L127.2,190.8 L128.0,194.7 L128.9,198.8 L129.7,200.1 L130.6,194.7 L131.4,182.5 L132.2,175.7 L133.1,176.3 L133.9,187.7 L134.8,200.4 L135.6,219.6 L136.5,224.2 L137.3,252.8 L138.1,257.4 L139.0,260.5 L139.8,262.1 L140.7,259.8 L141.5,247.3 L142.4,222.9 L143.2,196.7 L144.0,183.3 L144.9,182.5 L145.7,185.1 L146.6,188.5 L147.4,191.6 L148.3,195.5 L149.1,199.3 L149.9,200.6 L150.8,195.7 L151.6,183.5 L152.5,176.3 L153.3,176.5 L154.2,187.2 L155.0,202.5 L155.8,219.3 L156.7,246.3 L157.5,252.5 L158.4,260.3 L159.2,265.5 L160.1,268.6 L160.9,270.9 L161.7,268.6 L162.6,252.0 L163.4,236.4 L164.3,221.6 L165.1,215.9 L166.0,212.8 L166.8,215.2 L167.6,217.2 L168.5,224.2 L169.3,227.1 L170.2,226.6 L171.0,224.0 L171.9,214.6 L172.7,206.1 L173.5,203.0 L174.4,207.9 L175.2,217.5 L176.1,233.6 L176.9,238.8 L177.8,250.4 L178.6,258.2 L179.4,262.3 L180.3,263.4 L181.1,261.3 L182.0,249.1 L182.8,224.5 L183.7,198.3 L184.5,183.5 L185.3,181.4 L186.2,183.0 L187.0,185.9 L187.9,189.7 L188.7,192.9 L189.6,195.7 L190.4,196.5 L191.2,190.8 L192.1,178.3 L192.9,171.9 L193.8,173.9 L194.6,183.8 L195.4,198.3 L196.3,216.5 L197.1,231.0 L198.0,245.5 L198.8,252.0 L199.7,254.8 L200.5,255.9 L201.3,252.8 L202.2,240.0 L203.0,215.2 L203.9,187.4 L204.7,175.0 L205.6,175.7 L206.4,179.6 L207.2,182.7 L208.1,187.7 L208.9,191.3 L209.8,193.9 L210.6,194.4 L211.5,187.9 L212.3,173.9 L213.1,167.4 L214.0,170.6 L214.8,178.6 L215.7,191.8 L216.5,211.0 L217.4,229.4 L218.2,241.6 L219.0,247.3 L219.9,250.9 L220.7,252.2 L221.6,249.1 L222.4,236.4 L223.3,209.7 L224.1,183.0 L224.9,171.6 L225.8,173.7 L226.6,177.8 L227.5,181.7 L228.3,186.9 L229.2,190.5 L230.0,193.4 L230.8,193.6 L231.7,187.7 L232.5,173.7 L233.4,166.7 L234.2,169.8 L235.1,177.6 L235.9,190.5 L236.7,210.2 L237.6,215.2 L238.4,241.6 L239.3,247.3 L240.1,250.7 L241.0,251.7 L241.8,248.6 L242.6,236.2 L243.5,209.7 L244.3,183.0 L245.2,171.9 L246.0,173.9 L246.9,178.3 L247.7,182.2 L248.5,187.2 L249.4,191.0 L250.2,194.2 L251.1,194.9 L251.9,189.0 L252.8,175.0 L253.6,168.2 L254.4,170.6 L255.3,178.9 L256.1,192.9 L257.0,212.0 L257.8,232.0 L258.7,242.9 L259.5,249.6 L260.3,253.0 L261.2,254.3 L262.0,251.2 L262.9,238.5 L263.7,213.1 L264.6,186.6 L265.4,174.2 L266.2,175.5 L267.1,179.1 L267.9,183.0 L268.8,187.7 L269.6,191.3 L270.4,194.2 L271.3,195.2 L272.1,189.5 L273.0,176.0 L273.8,169.3 L274.7,171.3 L275.5,180.2 L276.3,194.9 L277.2,213.1 L278.0,238.2 L278.9,245.8 L279.7,251.7 L280.6,256.6 L281.4,260.0 L282.2,260.0 L283.1,256.4 L283.9,243.4 L284.8,228.1 L285.6,213.3 L286.5,207.9 L287.3,204.5 L288.1,206.6 L289.0,208.7 L289.8,214.9 L290.7,218.5 L291.5,218.5 L292.4,214.9 L293.2,203.2 L294.0,195.7 L294.9,194.4 L295.7,200.1 L296.6,210.5 L297.4,225.8 L298.3,238.8 L299.1,249.6 L299.9,255.9 L300.8,259.5 L301.6,259.5 L302.5,257.4 L303.3,253.5 L304.2,244.5 L305.0,232.8 L305.8,220.3 L306.7,210.2 L307.5,201.2 L308.4,197.5 L309.2,203.5 L310.1,208.2 L310.9,213.1 L311.7,211.3 L312.6,209.5 L313.4,191.0 L314.3,184.6 L315.1,189.7 L316.0,198.8 L316.8,206.1 L317.6,221.1 L318.5,235.1 L319.3,245.8 L320.2,252.2 L321.0,255.6 L321.9,257.2 L322.7,254.3 L323.5,241.6 L324.4,217.8 L325.2,190.8 L326.1,177.0 L326.9,177.0 L327.8,180.2 L328.6,183.8 L329.4,187.7 L330.3,191.3 L331.1,194.7 L332.0,196.0 L332.8,190.3 L333.7,177.8 L334.5,170.8 L335.3,172.6 L336.2,182.5 L337.0,198.0 L337.9,215.4 L338.7,219.6 L339.6,244.7 L340.4,252.8 L341.2,256.1 L342.1,257.7 L342.9,254.8 L343.8,241.9 L344.6,217.2 L345.4,189.7 L346.3,175.7 L347.1,175.2 L348.0,178.1 L348.8,181.2 L349.7,186.1 L350.5,189.5 L351.3,191.8 L352.2,192.1 L353.0,186.1 L353.9,172.4 L354.7,166.2 L355.6,169.5 L356.4,177.8 L357.2,192.1 L358.1,211.3 L358.9,374.9 L359.8,232.5 L360.6,238.5 L361.5,241.9 L362.3,242.1 L363.1,238.5 L364.0,224.0 L364.8,197.8 L365.7,346.9 L366.5,392.8 L367.4,392.8 L368.2,393.3 L369.0,215.4 L369.9,166.9 L370.7,174.2 L371.6,178.6 L372.4,178.1 L373.3,170.3 L374.1,340.9 L374.9,392.0 L375.8,392.5 L376.6,393.3 L377.5,224.2 L378.3,189.0 L379.2,204.3 L380.0,218.0 L380.8,220.3 L381.7,222.2 L382.5,222.9 L383.4,219.3 L384.2,206.1 L385.1,183.0 L385.9,176.5 L386.7,175.5 L387.6,174.4 L388.4,173.4 L389.3,172.4 L390.1,171.3 L391.0,170.3 L391.8,169.3 L392.6,168.2 L393.5,167.2 L394.3,166.2 L395.2,170.3 L396.0,175.7 L396.9,177.6 L397.7,170.3 L398.5,182.0 L399.4,199.6 L400.2,217.0 L401.1,221.6 L401.9,223.5 L402.8,224.5 L403.6,221.6 L404.4,208.7 L405.3,186.1 L406.1,178.9 L407.0,176.8 L407.8,174.4 L408.7,172.4 L409.5,170.3 L410.3,168.2 L411.2,166.2 L412.0,170.8 L412.9,176.3 L413.7,182.5 L414.6,186.4 L415.4,186.6 L416.2,179.6 L417.1,185.1 L417.9,194.7 L418.8,204.3 L419.6,213.9 L420.4,223.5 L421.3,230.2 L422.1,234.1 L423.0,235.4 L423.8,235.6 L424.7,230.7 L425.5,217.2 L426.3,202.2 L427.2,188.2 L428.0,184.6 L428.9,185.3 L429.7,188.2 L430.6,192.1 L431.4,197.5 L432.2,201.9 L433.1,202.5 L433.9,196.7 L434.8,179.6 L435.6,171.9 L436.5,172.6 L437.3,179.1 L438.1,189.0 L439.0,200.4 L439.8,203.2 L440.7,229.4 L441.5,235.4 L442.4,241.1 L443.2,243.4 L444.0,241.3 L444.9,238.2 L445.7,228.4 L446.6,216.7 L447.4,201.7 L448.3,192.3 L449.1,190.0 L449.9,192.1 L450.8,195.7 L451.6,201.7 L452.5,205.3 L453.3,206.1 L454.2,201.4 L455.0,185.1 L455.8,175.0 L456.7,179.1 L457.5,187.2 L458.4,197.0 L459.2,213.6 L460.1,234.1 L460.9,240.6 L461.7,245.8 L462.6,249.9 L463.4,251.2 L464.3,248.3 L465.1,236.7 L466.0,212.0 L466.8,185.9 L467.6,174.4 L468.5,175.7 L469.3,179.6 L470.2,183.3 L471.0,187.7 L471.9,191.3 L472.7,194.7 L473.5,196.0 L474.4,191.3 L475.2,178.6 L476.1,171.6 L476.9,173.2 L477.8,183.8 L478.6,198.8 L479.4,216.7 L480.3,232.0 L481.1,246.3 L482.0,254.3 L482.8,257.9 L483.7,259.8 L484.5,257.7 L485.3,245.2 L486.2,221.4 L487.0,194.9 L487.9,179.9 L488.7,178.3 L489.6,180.4 L490.4,183.5 L491.2,187.4 L492.1,190.5 L492.9,193.6 L493.8,194.9 L494.6,189.2 L495.4,176.8 L496.3,170.6 L497.1,172.6 L498.0,182.7 L498.8,197.5 L499.7,215.7 L500.5,233.0 L501.3,245.0 L502.2,253.0 L503.0,257.2 L503.9,258.7 L504.7,256.4 L505.6,243.9 L506.4,220.3 L507.2,193.4 L508.1,178.1 L508.9,176.8 L509.8,179.1 L510.6,182.2 L511.5,186.4 L512.3,189.7 L513.1,192.3 L514.0,193.1 L514.8,187.4 L515.7,174.4 L516.5,168.2 L517.4,170.8 L518.2,180.7 L519.0,195.7 L519.9,214.1 L520.7,235.1 L521.6,245.0 L522.4,251.2 L523.3,254.8 L524.1,256.4 L524.9,253.5 L525.8,241.3 L526.6,217.2 L527.5,190.8 L528.3,177.3 L529.2,177.0 L530.0,179.9 L530.8,183.5 L531.7,187.4 L532.5,191.0 L533.4,194.7 L534.2,195.7 L535.1,190.8 L535.9,178.9 L536.7,172.4 L537.6,173.4 L538.4,184.3 L539.3,198.0 L540.1,216.7 L541.0,221.4 L541.8,246.8 L542.6,253.8 L543.5,257.4 L544.3,258.7 L545.2,255.9 L546.0,243.9 L546.9,219.6 L547.7,193.4 L548.5,179.1 L549.4,178.3 L550.2,180.7 L551.1,184.0 L551.9,187.4 L552.8,190.8 L553.6,194.2 L554.4,195.5 L555.3,190.5 L556.1,178.3 L557.0,171.1 L557.8,172.1 L558.7,182.2 L559.5,198.0 L560.3,214.9 L561.2,232.8 L562.0,245.5 L562.9,252.5 L563.7,256.1 L564.6,258.2 L565.4,256.9 L566.2,251.7 L567.1,238.2 L567.9,223.5 L568.8,208.7 L569.6,202.2 L570.4,199.1 L571.3,201.2 L572.1,204.3 L573.0,209.7 L573.8,213.6 L574.7,213.9 L575.5,210.5 L576.3,198.0 L577.2,190.3 L578.0,189.2 L578.9,195.2 L579.7,205.0 L580.6,219.0 L581.4,236.7 L582.2,246.3 L583.1,250.2 L583.9,253.0 L584.8,254.8 L585.6,254.6 L586.5,250.4 L587.3,241.9 L588.1,228.9 L589.0,215.7 L589.8,206.3 L590.7,199.6 L591.5,197.0 L592.4,203.0 L593.2,207.1 L594.0,213.3 L594.9,212.3 L595.7,212.0 L596.6,195.7 L597.4,186.9 L598.3,190.5 L599.1,199.9 L599.9,205.3 L600.8,219.8 L601.6,234.9 L602.5,244.2 L603.3,250.4 L604.2,253.8 L605.0,255.1 L605.8,252.2 L606.7,240.3 L607.5,216.5 L608.4,190.5 L609.2,177.3 L610.1,177.3 L610.9,180.4 L611.7,184.3 L612.6,187.9 L613.4,191.6 L614.3,195.5 L615.1,197.3 L616.0,192.6 L616.8,180.7 L617.6,173.7 L618.5,173.9 L619.3,183.5 L620.2,198.8 L621.0,215.7 L621.9,233.6 L622.7,245.2 L623.5,250.4 L624.4,253.3 L625.2,255.1 L626.1,251.5 L626.9,239.3 L627.8,215.9 L628.6,190.0 L629.4,176.3 L630.3,175.5 L631.1,178.3 L632.0,182.2 L632.8,185.6 L633.7,189.5 L634.5,193.4 L635.3,195.7 L636.2,191.6 L637.0,180.2 L637.9,173.2 L638.7,172.6 L639.6,183.5 L640.4,198.3 L641.2,215.7 L642.1,219.8 L642.9,245.8 L643.8,252.8 L644.6,256.4 L645.4,257.7 L646.3,255.3 L647.1,243.2 L648.0,219.0 L648.8,193.6 L649.7,179.1 L650.5,177.6 L651.3,180.2 L652.2,183.0 L653.0,186.1 L653.9,189.5 L654.7,193.4 L655.6,194.9 L656.4,190.0 L657.2,178.9 L658.1,172.9 L658.9,172.6 L659.8,183.8 L660.6,197.5 L661.5,215.9 L662.3,232.5 L663.1,245.8 L664.0,253.5 L664.8,257.2 L665.7,258.5 L666.5,255.9 L667.4,243.4 L668.2,219.8 L669.0,192.6 L669.9,177.0 L670.7,175.0 L671.6,177.0 L672.4,180.2 L673.3,184.3 L674.1,187.7 L674.9,190.5 L675.8,191.6 L676.6,186.4 L677.5,173.9 L678.3,168.5 L679.2,170.0 L680.0,170.8" stroke="#9467bd" stroke-width="2" fill="none" opacity="0.8"/>
<!-- Total Generation -->
<path d="M80.0,94.3 L80.8,86.8 L81.7,86.3 L82.5,91.5 L83.4,128.0 L84.2,103.4 L85.1,84.2 L85.9,98.5 L86.7,121.0 L87.6,136.6 L88.4,136.9 L89.3,147.0 L90.1,113.8 L91.0,87.6 L91.8,80.3 L92.6,102.6 L93.5,91.5 L94.3,85.8 L95.2,98.7 L96.0,131.4 L96.9,130.1 L97.7,139.2 L98.5,135.6 L99.4,164.9 L100.2,163.0 L101.1,148.3 L101.9,89.7 L102.8,90.2 L103.6,130.9 L104.4,137.6 L105.3,135.8 L106.1,141.5 L107.0,148.3 L107.8,170.8 L108.7,166.2 L109.5,149.3 L110.3,172.6 L111.2,181.2 L112.0,189.5 L112.9,189.5 L113.7,182.5 L114.6,182.2 L115.4,188.2 L116.2,194.7 L117.1,203.7 L117.9,196.2 L118.8,197.0 L119.6,194.7 L120.4,192.3 L121.3,194.9 L122.1,195.5 L123.0,189.5 L123.8,175.5 L124.7,171.3 L125.5,175.7 L126.3,177.8 L127.2,171.1 L128.0,173.4 L128.9,170.6 L129.7,179.4 L130.6,193.4 L131.4,149.3 L132.2,126.5 L133.1,125.4 L133.9,109.9 L134.8,121.8 L135.6,154.7 L136.5,150.1 L137.3,180.2 L138.1,190.3 L139.0,201.4 L139.8,212.3 L140.7,215.9 L141.5,205.8 L142.4,205.3 L143.2,204.0 L144.0,198.6 L144.9,178.1 L145.7,175.7 L146.6,169.0 L147.4,165.1 L148.3,167.4 L149.1,159.7 L149.9,158.1 L150.8,177.8 L151.6,171.3 L152.5,176.5 L153.3,219.8 L154.2,213.6 L155.0,217.0 L155.8,207.6 L156.7,212.6 L157.5,183.0 L158.4,200.4 L159.2,192.6 L160.1,205.0 L160.9,192.9 L161.7,188.7 L162.6,199.3 L163.4,198.3 L164.3,179.1 L165.1,173.4 L166.0,172.6 L166.8,159.7 L167.6,152.4 L168.5,167.4 L169.3,172.9 L170.2,190.8 L171.0,178.1 L171.9,141.5 L172.7,171.3 L173.5,183.3 L174.4,191.6 L175.2,197.0 L176.1,196.5 L176.9,203.0 L177.8,205.8 L178.6,228.1 L179.4,220.3 L180.3,218.3 L181.1,213.3 L182.0,199.1 L182.8,188.5 L183.7,199.1 L184.5,197.8 L185.3,211.0 L186.2,191.8 L187.0,192.3 L187.9,177.8 L188.7,178.6 L189.6,196.7 L190.4,197.0 L191.2,178.9 L192.1,175.0 L192.9,171.9 L193.8,178.3 L194.6,172.6 L195.4,159.7 L196.3,150.3 L197.1,165.1 L198.0,146.2 L198.8,103.1 L199.7,93.3 L200.5,110.1 L201.3,96.1 L202.2,100.0 L203.0,115.8 L203.9,107.8 L204.7,111.4 L205.6,112.7 L206.4,87.8 L207.2,96.7 L208.1,130.6 L208.9,145.4 L209.8,184.0 L210.6,201.9 L211.5,165.1 L212.3,172.4 L213.1,170.8 L214.0,167.2 L214.8,165.4 L215.7,164.1 L216.5,166.2 L217.4,163.3 L218.2,153.4 L219.0,185.3 L219.9,189.7 L220.7,189.2 L221.6,170.3 L222.4,160.2 L223.3,157.6 L224.1,152.7 L224.9,145.7 L225.8,131.7 L226.6,133.2 L227.5,141.8 L228.3,127.3 L229.2,143.9 L230.0,139.4 L230.8,128.6 L231.7,99.5 L232.5,102.1 L233.4,110.9 L234.2,117.9 L235.1,134.5 L235.9,147.0 L236.7,139.4 L237.6,171.9 L238.4,182.5 L239.3,121.8 L240.1,108.1 L241.0,96.9 L241.8,82.4 L242.6,89.4 L243.5,91.0 L244.3,91.5 L245.2,73.1 L246.0,101.3 L246.9,80.6 L247.7,101.8 L248.5,117.4 L249.4,108.6 L250.2,130.9 L251.1,102.4 L251.9,106.3 L252.8,95.9 L253.6,92.0 L254.4,73.8 L255.3,77.5 L256.1,72.8 L257.0,72.5 L257.8,74.1 L258.7,86.5 L259.5,92.5 L260.3,105.2 L261.2,96.7 L262.0,81.9 L262.9,98.0 L263.7,72.0 L264.6,79.5 L265.4,67.6 L266.2,95.6 L267.1,119.2 L267.9,126.5 L268.8,113.0 L269.6,106.3 L270.4,93.8 L271.3,105.0 L272.1,124.9 L273.0,124.4 L273.8,122.8 L274.7,131.7 L275.5,126.2 L276.3,128.3 L277.2,129.3 L278.0,129.6 L278.9,145.9 L279.7,120.8 L280.6,94.8 L281.4,123.9 L282.2,124.4 L283.1,137.1 L283.9,138.9 L284.8,151.6 L285.6,141.3 L286.5,116.9 L287.3,155.5 L288.1,184.0 L289.0,182.5 L289.8,157.6 L290.7,178.9 L291.5,212.0 L292.4,217.8 L293.2,160.7 L294.0,137.1 L294.9,158.1 L295.7,177.3 L296.6,171.9 L297.4,198.3 L298.3,200.1 L299.1,186.4 L299.9,173.2 L300.8,189.0 L301.6,194.4 L302.5,163.6 L303.3,149.0 L304.2,144.1 L305.0,154.7 L305.8,142.6 L306.7,158.1 L307.5,154.7 L308.4,145.9 L309.2,151.4 L310.1,161.7 L310.9,166.4 L311.7,177.0 L312.6,172.1 L313.4,107.0 L314.3,108.1 L315.1,124.4 L316.0,114.3 L316.8,127.0 L317.6,131.4 L318.5,140.7 L319.3,152.1 L320.2,162.8 L321.0,128.8 L321.9,127.3 L322.7,126.2 L323.5,124.4 L324.4,142.6 L325.2,163.8 L326.1,171.6 L326.9,141.8 L327.8,176.3 L328.6,181.7 L329.4,168.5 L330.3,168.7 L331.1,164.6 L332.0,144.1 L332.8,138.9 L333.7,144.6 L334.5,133.0 L335.3,145.4 L336.2,153.4 L337.0,150.1 L337.9,188.5 L338.7,199.1 L339.6,195.2 L340.4,226.0 L341.2,247.1 L342.1,230.7 L342.9,225.0 L343.8,205.8 L344.6,208.4 L345.4,227.1 L346.3,198.8 L347.1,177.8 L348.0,151.1 L348.8,179.1 L349.7,187.9 L350.5,151.4 L351.3,151.6 L352.2,161.2 L353.0,158.6 L353.9,141.5 L354.7,148.5 L355.6,158.4 L356.4,160.4 L357.2,151.6 L358.1,185.9 L358.9,191.0 L359.8,200.6 L360.6,206.3 L361.5,208.2 L362.3,209.5 L363.1,206.3 L364.0,200.4 L364.8,197.3 L365.7,214.4 L366.5,208.4 L367.4,217.8 L368.2,211.8 L369.0,205.3 L369.9,197.3 L370.7,203.0 L371.6,199.9 L372.4,206.6 L373.3,209.7 L374.1,170.8 L374.9,172.9 L375.8,179.4 L376.6,182.7 L377.5,189.0 L378.3,195.2 L379.2,208.2 L380.0,216.7 L380.8,205.8 L381.7,212.8 L382.5,218.3 L383.4,227.3 L384.2,235.9 L385.1,239.0 L385.9,241.9 L386.7,246.5 L387.6,242.1 L388.4,252.2 L389.3,231.5 L390.1,224.0 L391.0,244.2 L391.8,234.3 L392.6,236.9 L393.5,245.0 L394.3,235.4 L395.2,236.9 L396.0,234.3 L396.9,235.4 L397.7,235.9 L398.5,234.6 L399.4,234.3 L400.2,234.1 L401.1,231.5 L401.9,234.9 L402.8,229.2 L403.6,226.8 L404.4,228.1 L405.3,226.8 L406.1,218.5 L407.0,203.5 L407.8,201.4 L408.7,216.2 L409.5,185.3 L410.3,171.3 L411.2,214.1 L412.0,233.3 L412.9,226.8 L413.7,230.5 L414.6,186.4 L415.4,200.4 L416.2,206.3 L417.1,210.7 L417.9,239.5 L418.8,248.6 L419.6,232.3 L420.4,236.9 L421.3,236.2 L422.1,236.7 L423.0,239.3 L423.8,236.4 L424.7,233.6 L425.5,231.5 L426.3,236.7 L427.2,247.3 L428.0,244.5 L428.9,236.9 L429.7,244.5 L430.6,261.1 L431.4,254.8 L432.2,248.1 L433.1,266.8 L433.9,256.1 L434.8,209.2 L435.6,202.5 L436.5,203.5 L437.3,209.5 L438.1,202.7 L439.0,208.9 L439.8,215.7 L440.7,215.4 L441.5,217.5 L442.4,215.4 L443.2,219.6 L444.0,217.5 L444.9,213.1 L445.7,214.9 L446.6,210.2 L447.4,218.3 L448.3,250.4 L449.1,249.9 L449.9,273.8 L450.8,274.5 L451.6,271.9 L452.5,273.2 L453.3,273.2 L454.2,276.6 L455.0,193.6 L455.8,163.8 L456.7,158.6 L457.5,147.7 L458.4,176.8 L459.2,176.3 L460.1,169.3 L460.9,159.4 L461.7,206.3 L462.6,236.7 L463.4,210.2 L464.3,193.4 L465.1,192.1 L466.0,149.6 L466.8,138.1 L467.6,187.7 L468.5,191.8 L469.3,211.0 L470.2,211.5 L471.0,203.0 L471.9,195.5 L472.7,202.7 L473.5,207.6 L474.4,211.0 L475.2,112.7 L476.1,92.8 L476.9,83.7 L477.8,103.9 L478.6,176.8 L479.4,192.9 L480.3,173.7 L481.1,175.2 L482.0,179.1 L482.8,190.5 L483.7,197.3 L484.5,178.1 L485.3,162.0 L486.2,99.5 L487.0,148.0 L487.9,165.6 L488.7,196.2 L489.6,196.2 L490.4,197.3 L491.2,193.4 L492.1,183.8 L492.9,178.6 L493.8,142.8 L494.6,111.4 L495.4,107.6 L496.3,106.5 L497.1,102.4 L498.0,85.0 L498.8,94.1 L499.7,140.7 L500.5,148.3 L501.3,186.6 L502.2,169.0 L503.0,142.8 L503.9,134.8 L504.7,154.2 L505.6,178.3 L506.4,159.9 L507.2,158.1 L508.1,134.0 L508.9,171.6 L509.8,166.2 L510.6,173.7 L511.5,154.5 L512.3,180.9 L513.1,179.4 L514.0,178.1 L514.8,168.5 L515.7,162.5 L516.5,130.4 L517.4,186.1 L518.2,190.3 L519.0,186.9 L519.9,183.3 L520.7,186.6 L521.6,186.9 L522.4,190.5 L523.3,192.3 L524.1,200.4 L524.9,175.5 L525.8,169.5 L526.6,158.1 L527.5,160.4 L528.3,163.8 L529.2,202.7 L530.0,230.7 L530.8,222.4 L531.7,220.1 L532.5,200.4 L533.4,203.0 L534.2,206.3 L535.1,180.2 L535.9,150.9 L536.7,150.6 L537.6,155.0 L538.4,151.4 L539.3,169.5 L540.1,211.8 L541.0,201.4 L541.8,213.1 L542.6,230.7 L543.5,218.5 L544.3,192.6 L545.2,187.7 L546.0,188.5 L546.9,192.3 L547.7,188.2 L548.5,182.0 L549.4,184.0 L550.2,189.2 L551.1,189.5 L551.9,194.2 L552.8,198.3 L553.6,194.4 L554.4,206.1 L555.3,190.5 L556.1,178.9 L557.0,162.5 L557.8,173.9 L558.7,184.0 L559.5,183.3 L560.3,191.0 L561.2,204.5 L562.0,204.0 L562.9,194.9 L563.7,198.8 L564.6,197.5 L565.4,199.9 L566.2,210.5 L567.1,210.5 L567.9,221.4 L568.8,225.5 L569.6,216.2 L570.4,232.0 L571.3,219.3 L572.1,238.8 L573.0,267.3 L573.8,249.9 L574.7,203.2 L575.5,203.0 L576.3,159.4 L577.2,147.0 L578.0,163.3 L578.9,172.6 L579.7,179.6 L580.6,178.1 L581.4,174.7 L582.2,172.6 L583.1,166.9 L583.9,190.0 L584.8,210.5 L585.6,208.4 L586.5,179.9 L587.3,170.3 L588.1,196.7 L589.0,165.1 L589.8,184.0 L590.7,189.2 L591.5,196.0 L592.4,200.9 L593.2,210.5 L594.0,208.9 L594.9,212.6 L595.7,234.3 L596.6,171.1 L597.4,154.0 L598.3,169.8 L599.1,176.3 L599.9,164.9 L600.8,165.4 L601.6,186.4 L602.5,195.5 L603.3,219.0 L604.2,208.7 L605.0,206.1 L605.8,209.5 L606.7,187.2 L607.5,183.5 L608.4,162.3 L609.2,176.5 L610.1,199.3 L610.9,186.9 L611.7,207.4 L612.6,219.6 L613.4,200.1 L614.3,205.0 L615.1,194.7 L616.0,205.3 L616.8,176.5 L617.6,162.5 L618.5,161.7 L619.3,160.7 L620.2,152.4 L621.0,153.2 L621.9,172.4 L622.7,176.0 L623.5,210.7 L624.4,216.7 L625.2,211.3 L626.1,186.1 L626.9,168.7 L627.8,145.9 L628.6,143.6 L629.4,177.8 L630.3,170.3 L631.1,155.5 L632.0,186.9 L632.8,191.0 L633.7,189.2 L634.5,166.2 L635.3,190.5 L636.2,199.3 L637.0,171.1 L637.9,163.3 L638.7,144.4 L639.6,145.4 L640.4,160.4 L641.2,165.1 L642.1,164.9 L642.9,173.9 L643.8,190.8 L644.6,202.7 L645.4,204.3 L646.3,227.3 L647.1,168.5 L648.0,103.9 L648.8,155.5 L649.7,169.3 L650.5,204.8 L651.3,220.9 L652.2,229.2 L653.0,235.6 L653.9,236.7 L654.7,238.0 L655.6,235.4 L656.4,238.2 L657.2,229.2 L658.1,200.6 L658.9,220.6 L659.8,216.7 L660.6,214.1 L661.5,228.4 L662.3,226.6 L663.1,229.7 L664.0,239.8 L664.8,237.5 L665.7,238.8 L666.5,240.0 L667.4,193.6 L668.2,168.2 L669.0,179.9 L669.9,189.2 L670.7,177.3 L671.6,215.2 L672.4,199.6 L673.3,202.5 L674.1,199.9 L674.9,218.8 L675.8,232.8 L676.6,229.7 L677.5,200.1 L678.3,217.2 L679.2,234.1 L680.0,199.6" stroke="#8c564b" stroke-width="2" fill="none" opacity="0.8"/>
<!-- Forecast Difference -->
<path d="M80.0,420.0 L80.8,420.0 L81.7,420.0 L82.5,420.0 L83.4,420.0 L84.2,420.0 L85.1,420.0 L85.9,420.0 L86.7,420.0 L87.6,420.0 L88.4,420.0 L89.3,420.0 L90.1,420.0 L91.0,420.0 L91.8,420.0 L92.6,420.0 L93.5,420.0 L94.3,420.0 L95.2,420.0 L96.0,420.0 L96.9,420.0 L97.7,420.0 L98.5,420.0 L99.4,420.0 L100.2,420.0 L101.1,420.0 L101.9,420.0 L102.8,420.0 L103.6,420.0 L104.4,420.0 L105.3,420.0 L106.1,420.0 L107.0,420.0 L107.8,420.0 L108.7,420.0 L109.5,420.0 L110.3,420.0 L111.2,420.0 L112.0,420.0 L112.9,420.0 L113.7,420.0 L114.6,420.0 L115.4,420.0 L116.2,420.0 L117.1,420.0 L117.9,420.0 L118.8,420.0 L119.6,420.0 L120.4,420.0 L121.3,420.0 L122.1,420.0 L123.0,420.0 L123.8,420.0 L124.7,420.0 L125.5,420.0 L126.3,420.0 L127.2,420.0 L128.0,420.0 L128.9,420.0 L129.7,420.0 L130.6,420.0 L131.4,420.0 L132.2,420.0 L133.1,420.0 L133.9,420.0 L134.8,420.0 L135.6,420.0 L136.5,420.0 L137.3,420.0 L138.1,420.0 L139.0,420.0 L139.8,420.0 L140.7,420.0 L141.5,420.0 L142.4,420.0 L143.2,420.0 L144.0,420.0 L144.9,420.0 L145.7,420.0 L146.6,420.0 L147.4,420.0 L148.3,420.0 L149.1,420.0 L149.9,420.0 L150.8,420.0 L151.6,420.0 L152.5,420.0 L153.3,420.0 L154.2,420.0 L155.0,420.0 L155.8,420.0 L156.7,420.0 L157.5,420.0 L158.4,420.0 L159.2,420.0 L160.1,420.0 L160.9,420.0 L161.7,420.0 L162.6,420.0 L163.4,420.0 L164.3,420.0 L165.1,420.0 L166.0,420.0 L166.8,420.0 L167.6,420.0 L168.5,420.0 L169.3,420.0 L170.2,420.0 L171.0,420.0 L171.9,420.0 L172.7,420.0 L173.5,420.0 L174.4,420.0 L175.2,420.0 L176.1,420.0 L176.9,420.0 L177.8,420.0 L178.6,420.0 L179.4,420.0 L180.3,420.0 L181.1,420.0 L182.0,420.0 L182.8,420.0 L183.7,420.0 L184.5,420.0 L185.3,420.0 L186.2,420.0 L187.0,420.0 L187.9,420.0 L188.7,420.0 L189.6,420.0 L190.4,420.0 L191.2,420.0 L192.1,420.0 L192.9,420.0 L193.8,420.0 L194.6,420.0 L195.4,420.0 L196.3,420.0 L197.1,420.0 L198.0,420.0 L198.8,420.0 L199.7,420.0 L200.5,420.0 L201.3,420.0 L202.2,420.0 L203.0,420.0 L203.9,420.0 L204.7,420.0 L205.6,420.0 L206.4,420.0 L207.2,420.0 L208.1,420.0 L208.9,420.0 L209.8,420.0 L210.6,420.0 L211.5,420.0 L212.3,420.0 L213.1,420.0 L214.0,420.0 L214.8,420.0 L215.7,420.0 L216.5,420.0 L217.4,420.0 L218.2,420.0 L219.0,420.0 L219.9,420.0 L220.7,420.0 L221.6,420.0 L222.4,420.0 L223.3,420.0 L224.1,420.0 L224.9,420.0 L225.8,420.0 L226.6,420.0 L227.5,420.0 L228.3,420.0 L229.2,420.0 L230.0,420.0 L230.8,420.0 L231.7,420.0 L232.5,420.0 L233.4,420.0 L234.2,420.0 L235.1,420.0 L235.9,420.0 L236.7,420.0 L237.6,420.0 L238.4,420.0 L239.3,420.0 L240.1,420.0 L241.0,420.0 L241.8,420.0 L242.6,420.0 L243.5,420.0 L244.3,420.0 L245.2,420.0 L246.0,420.0 L246.9,420.0 L247.7,420.0 L248.5,420.0 L249.4,420.0 L250.2,420.0 L251.1,420.0 L251.9,420.0 L252.8,420.0 L253.6,420.0 L254.4,420.0 L255.3,420.0 L256.1,420.0 L257.0,420.0 L257.8,420.0 L258.7,420.0 L259.5,420.0 L260.3,420.0 L261.2,420.0 L262.0,420.0 L262.9,420.0 L263.7,420.0 L264.6,420.0 L265.4,420.0 L266.2,420.0 L267.1,420.0 L267.9,420.0 L268.8,420.0 L269.6,420.0 L270.4,420.0 L271.3,420.0 L272.1,420.0 L273.0,420.0 L273.8,420.0 L274.7,420.0 L275.5,420.0 L276.3,420.0 L277.2,420.0 L278.0,420.0 L278.9,420.0 L279.7,420.0 L280.6,420.0 L281.4,420.0 L282.2,420.0 L283.1,420.0 L283.9,420.0 L284.8,420.0 L285.6,420.0 L286.5,420.0 L287.3,420.0 L288.1,420.0 L289.0,420.0 L289.8,420.0 L290.7,420.0 L291.5,420.0 L292.4,420.0 L293.2,420.0 L294.0,420.0 L294.9,420.0 L295.7,420.0 L296.6,420.0 L297.4,420.0 L298.3,420.0 L299.1,420.0 L299.9,420.0 L300.8,420.0 L301.6,420.0 L302.5,420.0 L303.3,420.0 L304.2,420.0 L305.0,420.0 L305.8,420.0 L306.7,420.0 L307.5,420.0 L308.4,420.0 L309.2,420.0 L310.1,420.0 L310.9,420.0 L311.7,420.0 L312.6,420.0 L313.4,420.0 L314.3,420.0 L315.1,420.0 L316.0,420.0 L316.8,420.0 L317.6,420.0 L318.5,420.0 L319.3,420.0 L320.2,420.0 L321.0,420.0 L321.9,420.0 L322.7,420.0 L323.5,420.0 L324.4,420.0 L325.2,420.0 L326.1,420.0 L326.9,420.0 L327.8,420.0 L328.6,420.0 L329.4,420.0 L330.3,420.0 L331.1,420.0 L332.0,420.0 L332.8,420.0 L333.7,420.0 L334.5,420.0 L335.3,420.0 L336.2,420.0 L337.0,420.0 L337.9,420.0 L338.7,420.0 L339.6,420.0 L340.4,420.0 L341.2,420.0 L342.1,420.0 L342.9,420.0 L343.8,420.0 L344.6,420.0 L345.4,420.0 L346.3,420.0 L347.1,420.0 L348.0,420.0 L348.8,420.0 L349.7,420.0 L350.5,420.0 L351.3,420.0 L352.2,420.0 L353.0,420.0 L353.9,420.0 L354.7,420.0 L355.6,420.0 L356.4,420.0 L357.2,420.0 L358.1,420.0 L358.9,420.0 L359.8,420.0 L360.6,420.0 L361.5,420.0 L362.3,420.0 L363.1,420.0 L364.0,420.0 L364.8,420.0 L365.7,420.0 L366.5,420.0 L367.4,420.0 L368.2,420.0 L369.0,420.0 L369.9,420.0 L370.7,420.0 L371.6,420.0 L372.4,420.0 L373.3,420.0 L374.1,420.0 L374.9,420.0 L375.8,420.0 L376.6,420.0 L377.5,420.0 L378.3,420.0 L379.2,420.0 L380.0,420.0 L380.8,420.0 L381.7,420.0 L382.5,420.0 L383.4,420.0 L384.2,420.0 L385.1,420.0 L385.9,420.0 L386.7,420.0 L387.6,420.0 L388.4,420.0 L389.3,420.0 L390.1,420.0 L391.0,420.0 L391.8,420.0 L392.6,420.0 L393.5,420.0 L394.3,420.0 L395.2,420.0 L396.0,420.0 L396.9,420.0 L397.7,420.0 L398.5,420.0 L399.4,420.0 L400.2,420.0 L401.1,420.0 L401.9,420.0 L402.8,420.0 L403.6,420.0 L404.4,420.0 L405.3,420.0 L406.1,420.0 L407.0,420.0 L407.8,420.0 L408.7,420.0 L409.5,420.0 L410.3,420.0 L411.2,420.0 L412.0,420.0 L412.9,420.0 L413.7,420.0 L414.6,420.0 L415.4,420.0 L416.2,420.0 L417.1,420.0 L417.9,420.0 L418.8,420.0 L419.6,420.0 L420.4,420.0 L421.3,420.0 L422.1,420.0 L423.0,420.0 L423.8,420.0 L424.7,420.0 L425.5,420.0 L426.3,420.0 L427.2,420.0 L428.0,420.0 L428.9,420.0 L429.7,420.0 L430.6,420.0 L431.4,420.0 L432.2,420.0 L433.1,420.0 L433.9,420.0 L434.8,420.0 L435.6,420.0 L436.5,420.0 L437.3,420.0 L438.1,420.0 L439.0,420.0 L439.8,420.0 L440.7,420.0 L441.5,420.0 L442.4,420.0 L443.2,420.0 L444.0,420.0 L444.9,420.0 L445.7,420.0 L446.6,420.0 L447.4,420.0 L448.3,420.0 L449.1,420.0 L449.9,420.0 L450.8,420.0 L451.6,420.0 L452.5,420.0 L453.3,420.0 L454.2,420.0 L455.0,420.0 L455.8,420.0 L456.7,420.0 L457.5,420.0 L458.4,420.0 L459.2,420.0 L460.1,420.0 L460.9,420.0 L461.7,420.0 L462.6,420.0 L463.4,420.0 L464.3,420.0 L465.1,420.0 L466.0,420.0 L466.8,420.0 L467.6,420.0 L468.5,420.0 L469.3,420.0 L470.2,420.0 L471.0,420.0 L471.9,420.0 L472.7,420.0 L473.5,420.0 L474.4,420.0 L475.2,420.0 L476.1,420.0 L476.9,420.0 L477.8,420.0 L478.6,420.0 L479.4,420.0 L480.3,420.0 L481.1,420.0 L482.0,420.0 L482.8,420.0 L483.7,420.0 L484.5,420.0 L485.3,420.0 L486.2,420.0 L487.0,420.0 L487.9,420.0 L488.7,420.0 L489.6,420.0 L490.4,420.0 L491.2,420.0 L492.1,420.0 L492.9,420.0 L493.8,420.0 L494.6,420.0 L495.4,420.0 L496.3,420.0 L497.1,420.0 L498.0,420.0 L498.8,420.0 L499.7,420.0 L500.5,420.0 L501.3,420.0 L502.2,420.0 L503.0,420.0 L503.9,420.0 L504.7,420.0 L505.6,420.0 L506.4,420.0 L507.2,420.0 L508.1,420.0 L508.9,420.0 L509.8,420.0 L510.6,420.0 L511.5,420.0 L512.3,420.0 L513.1,420.0 L514.0,420.0 L514.8,420.0 L515.7,420.0 L516.5,420.0 L517.4,420.0 L518.2,420.0 L519.0,420.0 L519.9,420.0 L520.7,420.0 L521.6,420.0 L522.4,420.0 L523.3,420.0 L524.1,420.0 L524.9,420.0 L525.8,420.0 L526.6,420.0 L527.5,420.0 L528.3,420.0 L529.2,420.0 L530.0,420.0 L530.8,420.0 L531.7,420.0 L532.5,420.0 L533.4,420.0 L534.2,420.0 L535.1,420.0 L535.9,420.0 L536.7,420.0 L537.6,420.0 L538.4,420.0 L539.3,420.0 L540.1,420.0 L541.0,420.0 L541.8,420.0 L542.6,420.0 L543.5,420.0 L544.3,420.0 L545.2,420.0 L546.0,420.0 L546.9,420.0 L547.7,420.0 L548.5,420.0 L549.4,420.0 L550.2,420.0 L551.1,420.0 L551.9,420.0 L552.8,420.0 L553.6,420.0 L554.4,420.0 L555.3,420.0 L556.1,420.0 L557.0,420.0 L557.8,420.0 L558.7,420.0 L559.5,420.0 L560.3,420.0 L561.2,420.0 L562.0,420.0 L562.9,420.0 L563.7,420.0 L564.6,420.0 L565.4,420.0 L566.2,420.0 L567.1,420.0 L567.9,420.0 L568.8,420.0 L569.6,420.0 L570.4,420.0 L571.3,420.0 L572.1,420.0 L573.0,420.0 L573.8,420.0 L574.7,420.0 L575.5,420.0 L576.3,420.0 L577.2,420.0 L578.0,420.0 L578.9,420.0 L579.7,420.0 L580.6,420.0 L581.4,420.0 L582.2,420.0 L583.1,420.0 L583.9,420.0 L584.8,420.0 L585.6,420.0 L586.5,420.0 L587.3,420.0 L588.1,420.0 L589.0,420.0 L589.8,420.0 L590.7,420.0 L591.5,420.0 L592.4,420.0 L593.2,420.0 L594.0,420.0 L594.9,420.0 L595.7,420.0 L596.6,420.0 L597.4,420.0 L598.3,420.0 L599.1,420.0 L599.9,420.0 L600.8,420.0 L601.6,420.0 L602.5,420.0 L603.3,420.0 L604.2,420.0 L605.0,420.0 L605.8,420.0 L606.7,420.0 L607.5,420.0 L608.4,420.0 L609.2,420.0 L610.1,420.0 L610.9,420.0 L611.7,420.0 L612.6,420.0 L613.4,420.0 L614.3,420.0 L615.1,420.0 L616.0,420.0 L616.8,420.0 L617.6,420.0 L618.5,420.0 L619.3,420.0 L620.2,420.0 L621.0,420.0 L621.9,420.0 L622.7,420.0 L623.5,420.0 L624.4,420.0 L625.2,420.0 L626.1,420.0 L626.9,420.0 L627.8,420.0 L628.6,420.0 L629.4,420.0 L630.3,420.0 L631.1,420.0 L632.0,420.0 L632.8,420.0 L633.7,420.0 L634.5,420.0 L635.3,420.0 L636.2,420.0 L637.0,420.0 L637.9,420.0 L638.7,420.0 L639.6,420.0 L640.4,420.0 L641.2,420.0 L642.1,420.0 L642.9,420.0 L643.8,420.0 L644.6,420.0 L645.4,420.0 L646.3,420.0 L647.1,420.0 L648.0,420.0 L648.8,420.0 L649.7,420.0 L650.5,420.0 L651.3,420.0 L652.2,420.0 L653.0,420.0 L653.9,420.0 L654.7,420.0 L655.6,420.0 L656.4,420.0 L657.2,420.0 L658.1,420.0 L658.9,420.0 L659.8,420.0 L660.6,420.0 L661.5,420.0 L662.3,420.0 L663.1,420.0 L664.0,420.0 L664.8,420.0 L665.7,420.0 L666.5,420.0 L667.4,420.0 L668.2,420.0 L669.0,420.0 L669.9,420.0 L670.7,420.0 L671.6,420.0 L672.4,420.0 L673.3,420.0 L674.1,420.0 L674.9,420.0 L675.8,420.0 L676.6,420.0 L677.5,420.0 L678.3,420.0 L679.2,420.0 L680.0,420.0" stroke="#e377c2" stroke-width="2" fill="none" opacity="0.8"/>

<!-- Legend -->
<line x1="690" y1="70" x2="705" y2="70" stroke="#1f77b4" stroke-width="3"/>
<text x="710" y="74" class="legend">Wind Generation</text>
<line x1="690" y1="88" x2="705" y2="88" stroke="#ff7f0e" stroke-width="3"/>
<text x="710" y="92" class="legend">Hydro Generation</text>
<line x1="690" y1="106" x2="705" y2="106" stroke="#2ca02c" stroke-width="3"/>
<text x="710" y="110" class="legend">Thermal Generation</text>
<line x1="690" y1="124" x2="705" y2="124" stroke="#d62728" stroke-width="3"/>
<text x="710" y="128" class="legend">Solar Generation</text>
<line x1="690" y1="142" x2="705" y2="142" stroke="#9467bd" stroke-width="3"/>
<text x="710" y="146" class="legend">Forecast</text>
<line x1="690" y1="160" x2="705" y2="160" stroke="#8c564b" stroke-width="3"/>
<text x="710" y="164" class="legend">Total Generation</text>
<line x1="690" y1="178" x2="705" y2="178" stroke="#e377c2" stroke-width="3"/>
<text x="710" y="182" class="legend">Forecast Difference</text>

<!-- Date range -->
<text x="80" y="495" class="legend">Range: 02/04 - 03/05/2026 (713 records)</text>
</svg>