<?xml version="1.0" encoding="UTF-8"?>
<svg width="800" height="500" xmlns="http://www.w3.org/2000/svg">
<style>
.axis-line { stroke: #333; stroke-width: 1; }
.grid-line { stroke: #ddd; stroke-width: 0.5; }
.title { font: 16px Arial; text-anchor: middle; fill: #333; }
.axis-label { font: 12px Arial; text-anchor: middle; fill: #666; }
.legend { font: 10px Arial; fill: #333; }
</style>

<!-- Title -->
<text x="400.0" y="25" class="title">Northwestern Energy Generation Data - Past 30 Days</text>

<!-- Plot area background -->
<rect x="80" y="50" width="600" height="370" fill="white" stroke="#ddd"/>

<!-- Y-axis -->
<line x1="80" y1="50" x2="80" y2="420" class="axis-line"/>
<text x="30" y="235.0" class="axis-label" transform="rotate(-90, 30, 235.0)">Generation (MW)</text>

<!-- X-axis -->
<line x1="80" y1="420" x2="680" y2="420" class="axis-line"/>
<text x="380.0" y="480" class="axis-label">Time</text>
<line x1="80" y1="420.0" x2="680" y2="420.0" class="grid-line"/>
<text x="70" y="425.0" class="legend" text-anchor="end">0</text>
<line x1="80" y1="327.5" x2="680" y2="327.5" class="grid-line"/>
<text x="70" y="332.5" class="legend" text-anchor="end">313</text>
<line x1="80" y1="235.0" x2="680" y2="235.0" class="grid-line"/>
<text x="70" y="240.0" class="legend" text-anchor="end">625</text>
<line x1="80" y1="142.5" x2="680" y2="142.5" class="grid-line"/>
<text x="70" y="147.5" class="legend" text-anchor="end">938</text>
<line x1="80" y1="50.0" x2="680" y2="50.0" class="grid-line"/>
<text x="70" y="55.0" class="legend" text-anchor="end">1251</text>
<!-- Wind Generation -->
<path d="M80.0,299.3 L80.8,317.3 L81.7,323.3 L82.5,301.1 L83.4,330.6 L84.2,362.6 L85.1,384.2 L85.9,403.7 L86.7,397.5 L87.6,401.4 L88.4,402.2 L89.3,400.5 L90.1,395.7 L91.0,377.1 L91.8,361.4 L92.6,353.4 L93.5,340.7 L94.3,303.7 L95.2,327.7 L96.0,316.7 L96.9,306.1 L97.7,298.1 L98.5,299.0 L99.4,293.1 L100.2,290.7 L101.1,295.4 L101.9,291.6 L102.8,288.9 L103.6,315.0 L104.4,325.3 L105.3,323.8 L106.1,299.9 L107.0,309.9 L107.8,325.6 L108.7,347.8 L109.5,329.5 L110.3,312.0 L111.2,296.6 L112.0,301.9 L112.9,309.3 L113.7,313.8 L114.6,326.8 L115.4,353.4 L116.2,369.1 L117.1,361.1 L117.9,340.4 L118.8,355.8 L119.6,368.5 L120.4,365.0 L121.3,359.9 L122.1,375.3 L123.0,394.3 L123.8,395.1 L124.7,394.3 L125.5,404.9 L126.3,401.4 L127.2,400.5 L128.0,403.1 L128.9,399.9 L129.7,391.9 L130.6,384.5 L131.4,380.6 L132.2,380.6 L133.1,379.8 L133.9,372.4 L134.8,373.5 L135.6,357.6 L136.5,354.6 L137.3,366.2 L138.1,371.8 L139.0,350.8 L139.8,313.2 L140.7,319.4 L141.5,290.7 L142.4,289.5 L143.2,289.5 L144.0,289.8 L144.9,299.3 L145.7,296.3 L146.6,294.6 L147.4,300.5 L148.3,291.3 L149.1,299.0 L149.9,315.0 L150.8,319.4 L151.6,316.7 L152.5,328.6 L153.3,346.9 L154.2,347.2 L155.0,362.0 L155.8,367.9 L156.7,394.9 L157.5,401.4 L158.4,391.3 L159.2,395.7 L160.1,398.7 L160.9,404.0 L161.7,405.8 L162.6,398.7 L163.4,400.2 L164.3,396.9 L165.1,389.5 L166.0,385.7 L166.8,396.0 L167.6,405.8 L168.5,417.0 L169.3,417.6 L170.2,415.6 L171.0,415.6 L171.9,410.2 L172.7,410.5 L173.5,408.5 L174.4,408.2 L175.2,407.6 L176.1,407.9 L176.9,407.9 L177.8,414.7 L178.6,418.2 L179.4,416.7 L180.3,415.6 L181.1,408.2 L182.0,400.5 L182.8,397.2 L183.7,398.7 L184.5,391.6 L185.3,382.7 L186.2,399.6 L187.0,394.3 L187.9,388.3 L188.7,384.5 L189.6,368.5 L190.4,367.3 L191.2,339.8 L192.1,335.1 L192.9,334.5 L193.8,310.2 L194.6,312.0 L195.4,324.7 L196.3,318.2 L197.1,315.3 L198.0,314.7 L198.8,313.2 L199.7,313.2 L200.5,323.8 L201.3,325.3 L202.2,321.5 L203.0,338.3 L203.9,352.5 L204.7,360.2 L205.6,345.7 L206.4,359.9 L207.2,331.5 L208.1,323.0 L208.9,310.2 L209.8,302.8 L210.6,315.9 L211.5,300.5 L212.3,303.4 L213.1,307.0 L214.0,306.7 L214.8,311.1 L215.7,328.3 L216.5,321.2 L217.4,324.4 L218.2,323.5 L219.0,305.8 L219.9,304.3 L220.7,298.1 L221.6,298.1 L222.4,298.4 L223.3,303.7 L224.1,304.0 L224.9,300.5 L225.8,310.2 L226.6,314.7 L227.5,329.5 L228.3,326.8 L229.2,347.5 L230.0,352.5 L230.8,372.1 L231.7,377.1 L232.5,386.6 L233.4,412.0 L234.2,408.8 L235.1,411.4 L235.9,413.5 L236.7,409.9 L237.6,403.4 L238.4,401.1 L239.3,401.1 L240.1,404.3 L241.0,412.0 L241.8,415.9 L242.6,414.1 L243.5,411.4 L244.3,415.0 L245.2,414.7 L246.0,411.4 L246.9,409.9 L247.7,417.6 L248.5,413.8 L249.4,418.5 L250.2,417.9 L251.1,415.6 L251.9,412.0 L252.8,412.9 L253.6,400.8 L254.4,392.8 L255.3,357.6 L256.1,352.8 L257.0,336.6 L257.8,348.4 L258.7,358.5 L259.5,341.9 L260.3,337.5 L261.2,349.9 L262.0,352.2 L262.9,365.3 L263.7,361.7 L264.6,352.5 L265.4,390.1 L266.2,397.2 L267.1,406.7 L267.9,411.7 L268.8,411.7 L269.6,410.2 L270.4,410.8 L271.3,415.0 L272.1,416.2 L273.0,413.2 L273.8,412.0 L274.7,410.2 L275.5,411.4 L276.3,412.9 L277.2,416.7 L278.0,416.7 L278.9,416.4 L279.7,416.2 L280.6,412.9 L281.4,412.0 L282.2,414.1 L283.1,409.3 L283.9,413.5 L284.8,412.3 L285.6,408.8 L286.5,410.2 L287.3,391.3 L288.1,369.4 L289.0,344.6 L289.8,340.4 L290.7,298.4 L291.5,308.5 L292.4,324.1 L293.2,304.6 L294.0,333.3 L294.9,331.8 L295.7,333.9 L296.6,309.0 L297.4,307.6 L298.3,330.6 L299.1,301.4 L299.9,293.4 L300.8,291.6 L301.6,294.8 L302.5,296.6 L303.3,295.7 L304.2,293.7 L305.0,294.8 L305.8,294.6 L306.7,299.9 L307.5,293.1 L308.4,296.9 L309.2,300.2 L310.1,297.5 L310.9,299.3 L311.7,322.1 L312.6,331.5 L313.4,330.9 L314.3,314.7 L315.1,343.7 L316.0,342.8 L316.8,355.5 L317.6,350.2 L318.5,345.4 L319.3,323.5 L320.2,299.0 L321.0,299.6 L321.9,299.3 L322.7,299.3 L323.5,300.8 L324.4,300.2 L325.2,300.2 L326.1,298.7 L326.9,299.9 L327.8,299.6 L328.6,297.8 L329.4,304.3 L330.3,297.8 L331.1,297.2 L332.0,296.9 L332.8,299.0 L333.7,302.2 L334.5,302.5 L335.3,302.2 L336.2,309.9 L337.0,318.2 L337.9,320.0 L338.7,332.7 L339.6,320.6 L340.4,341.0 L341.2,351.9 L342.1,364.1 L342.9,373.5 L343.8,378.6 L344.6,380.1 L345.4,391.0 L346.3,404.6 L347.1,414.1 L348.0,417.0 L348.8,418.5 L349.7,416.4 L350.5,418.2 L351.3,417.9 L352.2,417.6 L353.0,416.4 L353.9,416.2 L354.7,408.2 L355.6,404.6 L356.4,400.5 L357.2,390.1 L358.1,391.6 L358.9,391.9 L359.8,403.7 L360.6,397.5 L361.5,397.2 L362.3,391.6 L363.1,383.9 L364.0,377.7 L364.8,385.1 L365.7,390.1 L366.5,388.6 L367.4,363.8 L368.2,350.2 L369.0,336.0 L369.9,315.9 L370.7,317.6 L371.6,310.5 L372.4,304.6 L373.3,301.9 L374.1,302.2 L374.9,308.5 L375.8,318.5 L376.6,312.9 L377.5,317.6 L378.3,306.7 L379.2,307.3 L380.0,323.8 L380.8,324.1 L381.7,301.9 L382.5,311.4 L383.4,318.5 L384.2,330.1 L385.1,341.9 L385.9,342.2 L386.7,340.4 L387.6,324.7 L388.4,331.5 L389.3,310.2 L390.1,304.0 L391.0,310.8 L391.8,302.8 L392.6,308.5 L393.5,303.1 L394.3,299.3 L395.2,303.7 L396.0,302.2 L396.9,314.7 L397.7,304.0 L398.5,307.9 L399.4,300.2 L400.2,299.9 L401.1,299.0 L401.9,298.7 L402.8,298.1 L403.6,300.2 L404.4,299.9 L405.3,307.6 L406.1,326.5 L407.0,327.4 L407.8,341.9 L408.7,374.7 L409.5,379.8 L410.3,389.2 L411.2,392.8 L412.0,400.2 L412.9,411.7 L413.7,412.0 L414.6,414.7 L415.4,412.9 L416.2,415.3 L417.1,411.1 L417.9,408.5 L418.8,407.0 L419.6,397.5 L420.4,391.6 L421.3,383.0 L422.1,367.6 L423.0,351.9 L423.8,349.6 L424.7,362.6 L425.5,395.4 L426.3,411.1 L427.2,414.4 L428.0,417.9 L428.9,417.9 L429.7,409.6 L430.6,409.3 L431.4,399.6 L432.2,350.2 L433.1,346.6 L433.9,341.6 L434.8,340.4 L435.6,340.1 L436.5,328.3 L437.3,357.6 L438.1,385.4 L439.0,366.7 L439.8,373.8 L440.7,372.4 L441.5,378.3 L442.4,371.8 L443.2,369.7 L444.0,370.3 L444.9,351.9 L445.7,359.3 L446.6,351.1 L447.4,349.0 L448.3,337.5 L449.1,357.0 L449.9,354.6 L450.8,365.3 L451.6,358.2 L452.5,368.5 L453.3,339.5 L454.2,350.2 L455.0,328.0 L455.8,329.8 L456.7,335.4 L457.5,321.2 L458.4,318.5 L459.2,316.1 L460.1,360.2 L460.9,344.6 L461.7,348.7 L462.6,353.4 L463.4,360.2 L464.3,365.3 L465.1,366.2 L466.0,343.7 L466.8,356.4 L467.6,350.8 L468.5,333.3 L469.3,324.7 L470.2,334.8 L471.0,330.4 L471.9,312.0 L472.7,311.1 L473.5,311.7 L474.4,314.1 L475.2,319.1 L476.1,320.6 L476.9,352.5 L477.8,358.8 L478.6,335.7 L479.4,346.6 L480.3,337.7 L481.1,334.5 L482.0,309.9 L482.8,300.8 L483.7,301.1 L484.5,299.6 L485.3,301.7 L486.2,301.7 L487.0,325.3 L487.9,362.9 L488.7,385.4 L489.6,398.7 L490.4,410.2 L491.2,404.0 L492.1,407.3 L492.9,413.5 L493.8,415.6 L494.6,416.4 L495.4,417.6 L496.3,415.0 L497.1,412.9 L498.0,411.1 L498.8,407.9 L499.7,410.2 L500.5,415.0 L501.3,418.2 L502.2,416.2 L503.0,419.1 L503.9,418.2 L504.7,418.5 L505.6,415.0 L506.4,415.6 L507.2,415.3 L508.1,409.3 L508.9,412.3 L509.8,415.6 L510.6,415.0 L511.5,417.3 L512.3,416.7 L513.1,417.3 L514.0,417.9 L514.8,418.8 L515.7,415.6 L516.5,414.1 L517.4,414.1 L518.2,410.8 L519.0,408.2 L519.9,407.3 L520.7,406.7 L521.6,406.4 L522.4,403.1 L523.3,400.2 L524.1,390.1 L524.9,385.4 L525.8,372.4 L526.6,372.4 L527.5,373.8 L528.3,386.3 L529.2,393.4 L530.0,392.2 L530.8,388.6 L531.7,388.6 L532.5,376.5 L533.4,367.3 L534.2,387.2 L535.1,371.5 L535.9,383.6 L536.7,386.6 L537.6,399.3 L538.4,395.1 L539.3,393.1 L540.1,389.5 L541.0,407.3 L541.8,404.9 L542.6,392.2 L543.5,387.5 L544.3,379.2 L545.2,378.3 L546.0,375.6 L546.9,380.9 L547.7,383.9 L548.5,397.2 L549.4,403.4 L550.2,403.7 L551.1,388.3 L551.9,385.1 L552.8,382.1 L553.6,387.5 L554.4,381.5 L555.3,386.3 L556.1,377.4 L557.0,358.5 L557.8,348.7 L558.7,352.5 L559.5,341.6 L560.3,351.4 L561.2,348.7 L562.0,348.7 L562.9,352.2 L563.7,359.6 L564.6,373.5 L565.4,383.9 L566.2,391.6 L567.1,399.9 L567.9,400.2 L568.8,394.0 L569.6,408.2 L570.4,407.9 L571.3,404.0 L572.1,408.5 L573.0,411.1 L573.8,414.4 L574.7,416.7 L575.5,415.9 L576.3,414.7 L577.2,418.5 L578.0,419.1 L578.9,417.6 L579.7,415.9 L580.6,415.3 L581.4,415.3 L582.2,417.0 L583.1,415.0 L583.9,413.8 L584.8,409.9 L585.6,408.8 L586.5,407.3 L587.3,403.1 L588.1,394.6 L589.0,405.2 L589.8,400.5 L590.7,398.4 L591.5,396.6 L592.4,382.7 L593.2,368.5 L594.0,342.8 L594.9,312.0 L595.7,304.6 L596.6,301.9 L597.4,297.2 L598.3,299.0 L599.1,303.7 L599.9,300.5 L600.8,293.4 L601.6,295.1 L602.5,292.5 L603.3,289.5 L604.2,290.4 L605.0,290.4 L605.8,291.3 L606.7,290.7 L607.5,294.8 L608.4,296.3 L609.2,298.1 L610.1,302.5 L610.9,305.5 L611.7,307.6 L612.6,297.2 L613.4,296.3 L614.3,310.2 L615.1,312.6 L616.0,318.8 L616.8,328.6 L617.6,323.5 L618.5,322.4 L619.3,338.6 L620.2,319.7 L621.0,309.0 L621.9,313.5 L622.7,309.0 L623.5,297.8 L624.4,300.5 L625.2,301.7 L626.1,322.4 L626.9,333.0 L627.8,339.8 L628.6,309.6 L629.4,332.4 L630.3,350.2 L631.1,324.7 L632.0,309.9 L632.8,303.1 L633.7,308.5 L634.5,327.1 L635.3,307.6 L636.2,340.4 L637.0,328.0 L637.9,320.9 L638.7,327.1 L639.6,319.1 L640.4,314.1 L641.2,300.5 L642.1,300.8 L642.9,316.7 L643.8,328.0 L644.6,332.7 L645.4,340.7 L646.3,337.5 L647.1,343.7 L648.0,326.5 L648.8,349.0 L649.7,352.8 L650.5,362.6 L651.3,379.2 L652.2,386.6 L653.0,391.6 L653.9,395.7 L654.7,402.8 L655.6,410.5 L656.4,413.8 L657.2,405.8 L658.1,387.2 L658.9,407.9 L659.8,414.7 L660.6,415.0 L661.5,405.8 L662.3,387.2 L663.1,379.5 L664.0,386.6 L664.8,354.0 L665.7,329.5 L666.5,301.7 L667.4,301.4 L668.2,294.6 L669.0,294.6 L669.9,302.8 L670.7,301.4 L671.6,307.9 L672.4,317.9 L673.3,321.8 L674.1,330.1 L674.9,361.7 L675.8,376.5 L676.6,377.4 L677.5,390.7 L678.3,397.5 L679.2,404.9 L680.0,411.4" stroke="#1f77b4" stroke-width="2" fill="none" opacity="0.8"/>
<!-- Hydro Generation -->
<path d="M80.0,360.5 L80.8,361.1 L81.7,360.5 L82.5,360.8 L83.4,360.2 L84.2,360.8 L85.1,360.8 L85.9,359.9 L86.7,361.4 L87.6,361.4 L88.4,361.1 L89.3,361.1 L90.1,361.7 L91.0,361.7 L91.8,361.7 L92.6,361.1 L93.5,361.7 L94.3,362.3 L95.2,362.3 L96.0,368.8 L96.9,368.8 L97.7,369.4 L98.5,368.5 L99.4,368.8 L100.2,369.1 L101.1,369.4 L101.9,368.2 L102.8,368.5 L103.6,368.2 L104.4,367.9 L105.3,368.2 L106.1,368.2 L107.0,368.2 L107.8,368.2 L108.7,368.2 L109.5,368.2 L110.3,367.6 L111.2,367.6 L112.0,368.2 L112.9,367.9 L113.7,367.6 L114.6,367.9 L115.4,368.2 L116.2,368.5 L117.1,369.7 L117.9,369.4 L118.8,369.1 L119.6,369.1 L120.4,369.4 L121.3,368.8 L122.1,368.8 L123.0,369.1 L123.8,368.8 L124.7,368.8 L125.5,368.8 L126.3,368.8 L127.2,369.4 L128.0,369.7 L128.9,370.0 L129.7,370.6 L130.6,370.3 L131.4,370.0 L132.2,369.4 L133.1,368.2 L133.9,368.8 L134.8,368.5 L135.6,369.1 L136.5,368.8 L137.3,368.5 L138.1,368.8 L139.0,368.5 L139.8,368.2 L140.7,368.2 L141.5,368.5 L142.4,368.5 L143.2,368.2 L144.0,367.9 L144.9,367.6 L145.7,368.8 L146.6,368.8 L147.4,368.8 L148.3,369.7 L149.1,369.7 L149.9,370.0 L150.8,370.3 L151.6,370.0 L152.5,369.4 L153.3,370.3 L154.2,369.7 L155.0,369.7 L155.8,369.7 L156.7,369.7 L157.5,370.0 L158.4,370.0 L159.2,368.8 L160.1,368.5 L160.9,368.8 L161.7,368.8 L162.6,361.7 L163.4,361.1 L164.3,362.3 L165.1,362.3 L166.0,362.3 L166.8,362.6 L167.6,362.3 L168.5,362.0 L169.3,362.0 L170.2,361.4 L171.0,361.4 L171.9,361.4 L172.7,361.7 L173.5,361.7 L174.4,361.4 L175.2,362.0 L176.1,361.4 L176.9,362.6 L177.8,362.3 L178.6,362.3 L179.4,361.7 L180.3,362.0 L181.1,362.6 L182.0,362.3 L182.8,362.0 L183.7,361.1 L184.5,361.4 L185.3,361.7 L186.2,362.0 L187.0,361.7 L187.9,361.7 L188.7,361.4 L189.6,362.3 L190.4,362.3 L191.2,361.4 L192.1,362.0 L192.9,361.4 L193.8,362.0 L194.6,361.7 L195.4,361.4 L196.3,361.4 L197.1,361.7 L198.0,362.0 L198.8,361.4 L199.7,361.1 L200.5,360.5 L201.3,360.5 L202.2,361.1 L203.0,360.8 L203.9,360.5 L204.7,360.8 L205.6,361.1 L206.4,361.7 L207.2,361.7 L208.1,361.4 L208.9,361.1 L209.8,361.4 L210.6,362.0 L211.5,362.3 L212.3,361.7 L213.1,362.0 L214.0,362.0 L214.8,361.4 L215.7,361.7 L216.5,362.0 L217.4,361.7 L218.2,361.4 L219.0,361.1 L219.9,361.1 L220.7,362.0 L221.6,361.7 L222.4,361.1 L223.3,360.8 L224.1,361.4 L224.9,361.4 L225.8,361.7 L226.6,361.7 L227.5,362.0 L228.3,362.0 L229.2,361.7 L230.0,362.0 L230.8,361.7 L231.7,362.0 L232.5,362.0 L233.4,362.0 L234.2,362.0 L235.1,362.0 L235.9,361.7 L236.7,362.0 L237.6,362.3 L238.4,362.3 L239.3,361.7 L240.1,362.6 L241.0,362.3 L241.8,362.0 L242.6,362.3 L243.5,362.6 L244.3,362.6 L245.2,362.6 L246.0,362.6 L246.9,362.3 L247.7,362.9 L248.5,362.0 L249.4,362.6 L250.2,362.6 L251.1,362.6 L251.9,362.0 L252.8,361.7 L253.6,362.3 L254.4,361.7 L255.3,361.7 L256.1,361.7 L257.0,362.0 L257.8,362.0 L258.7,362.0 L259.5,361.7 L260.3,362.0 L261.2,361.7 L262.0,362.3 L262.9,362.6 L263.7,362.0 L264.6,361.4 L265.4,362.0 L266.2,361.4 L267.1,361.4 L267.9,362.0 L268.8,362.3 L269.6,362.0 L270.4,361.7 L271.3,362.0 L272.1,361.7 L273.0,361.7 L273.8,361.4 L274.7,361.7 L275.5,361.4 L276.3,362.0 L277.2,361.7 L278.0,362.0 L278.9,361.4 L279.7,361.1 L280.6,361.4 L281.4,360.8 L282.2,360.8 L283.1,361.1 L283.9,361.4 L284.8,361.7 L285.6,362.0 L286.5,362.0 L287.3,362.3 L288.1,360.5 L289.0,361.1 L289.8,361.4 L290.7,361.1 L291.5,360.5 L292.4,360.8 L293.2,361.1 L294.0,360.8 L294.9,360.5 L295.7,360.5 L296.6,360.5 L297.4,361.1 L298.3,360.8 L299.1,354.6 L299.9,360.5 L300.8,360.2 L301.6,361.1 L302.5,361.4 L303.3,361.4 L304.2,361.7 L305.0,361.1 L305.8,360.8 L306.7,360.8 L307.5,360.5 L308.4,359.9 L309.2,360.5 L310.1,361.1 L310.9,361.1 L311.7,360.8 L312.6,361.4 L313.4,361.4 L314.3,361.1 L315.1,361.4 L316.0,361.1 L316.8,361.4 L317.6,361.4 L318.5,360.5 L319.3,359.9 L320.2,359.9 L321.0,359.9 L321.9,360.8 L322.7,360.2 L323.5,359.6 L324.4,359.6 L325.2,359.1 L326.1,359.6 L326.9,359.3 L327.8,359.3 L328.6,359.3 L329.4,359.9 L330.3,360.2 L331.1,361.1 L332.0,361.4 L332.8,360.8 L333.7,361.1 L334.5,361.1 L335.3,361.1 L336.2,360.8 L337.0,360.8 L337.9,359.9 L338.7,360.5 L339.6,359.9 L340.4,359.6 L341.2,359.9 L342.1,360.2 L342.9,360.5 L343.8,361.1 L344.6,360.8 L345.4,360.5 L346.3,360.5 L347.1,361.1 L348.0,361.1 L348.8,361.1 L349.7,361.4 L350.5,361.4 L351.3,360.8 L352.2,360.8 L353.0,361.1 L353.9,361.4 L354.7,362.0 L355.6,362.0 L356.4,361.4 L357.2,361.4 L358.1,362.0 L358.9,362.0 L359.8,361.1 L360.6,361.4 L361.5,361.4 L362.3,361.1 L363.1,361.4 L364.0,361.4 L364.8,360.5 L365.7,360.8 L366.5,360.5 L367.4,361.1 L368.2,360.5 L369.0,360.2 L369.9,360.5 L370.7,361.1 L371.6,360.8 L372.4,360.5 L373.3,360.8 L374.1,360.8 L374.9,360.5 L375.8,360.5 L376.6,360.5 L377.5,360.5 L378.3,360.8 L379.2,361.1 L380.0,361.4 L380.8,361.4 L381.7,361.1 L382.5,360.8 L383.4,360.8 L384.2,360.8 L385.1,361.1 L385.9,360.8 L386.7,360.5 L387.6,360.2 L388.4,360.2 L389.3,359.6 L390.1,359.3 L391.0,359.6 L391.8,359.6 L392.6,359.3 L393.5,359.3 L394.3,358.8 L395.2,358.8 L396.0,358.8 L396.9,358.8 L397.7,358.5 L398.5,359.3 L399.4,358.5 L400.2,358.5 L401.1,357.6 L401.9,357.9 L402.8,357.6 L403.6,357.9 L404.4,357.6 L405.3,357.6 L406.1,358.5 L407.0,358.5 L407.8,358.8 L408.7,359.3 L409.5,359.6 L410.3,359.9 L411.2,359.6 L412.0,359.6 L412.9,359.6 L413.7,360.8 L414.6,360.8 L415.4,360.8 L416.2,359.6 L417.1,359.6 L417.9,359.9 L418.8,359.6 L419.6,359.9 L420.4,360.8 L421.3,359.9 L422.1,359.9 L423.0,359.6 L423.8,359.1 L424.7,359.1 L425.5,359.1 L426.3,359.6 L427.2,359.3 L428.0,359.3 L428.9,359.3 L429.7,359.1 L430.6,359.3 L431.4,359.3 L432.2,359.3 L433.1,359.3 L433.9,359.6 L434.8,359.3 L435.6,359.3 L436.5,359.1 L437.3,359.3 L438.1,359.3 L439.0,359.6 L439.8,359.1 L440.7,359.6 L441.5,359.1 L442.4,358.8 L443.2,357.3 L444.0,356.7 L444.9,358.5 L445.7,359.1 L446.6,359.3 L447.4,358.8 L448.3,359.1 L449.1,359.6 L449.9,359.6 L450.8,359.9 L451.6,359.6 L452.5,359.6 L453.3,359.6 L454.2,359.9 L455.0,359.6 L455.8,359.6 L456.7,360.2 L457.5,359.9 L458.4,359.3 L459.2,358.8 L460.1,359.1 L460.9,359.1 L461.7,359.1 L462.6,359.1 L463.4,359.1 L464.3,359.3 L465.1,359.3 L466.0,358.5 L466.8,358.5 L467.6,358.5 L468.5,359.1 L469.3,359.3 L470.2,359.3 L471.0,359.6 L471.9,359.6 L472.7,359.6 L473.5,359.6 L474.4,359.3 L475.2,359.3 L476.1,358.8 L476.9,357.9 L477.8,357.9 L478.6,357.9 L479.4,358.2 L480.3,357.9 L481.1,357.6 L482.0,357.6 L482.8,357.9 L483.7,358.5 L484.5,358.8 L485.3,358.2 L486.2,357.9 L487.0,358.2 L487.9,357.9 L488.7,358.5 L489.6,358.2 L490.4,358.2 L491.2,358.5 L492.1,358.2 L492.9,358.8 L493.8,358.8 L494.6,358.5 L495.4,358.8 L496.3,358.8 L497.1,359.3 L498.0,359.3 L498.8,359.3 L499.7,359.1 L500.5,359.1 L501.3,359.1 L502.2,359.1 L503.0,358.5 L503.9,358.5 L504.7,358.5 L505.6,358.5 L506.4,358.2 L507.2,357.6 L508.1,358.8 L508.9,359.1 L509.8,359.1 L510.6,359.1 L511.5,358.5 L512.3,358.5 L513.1,358.2 L514.0,358.5 L514.8,357.6 L515.7,357.6 L516.5,357.6 L517.4,357.6 L518.2,357.6 L519.0,357.3 L519.9,357.3 L520.7,356.7 L521.6,357.3 L522.4,356.7 L523.3,357.3 L524.1,357.0 L524.9,357.3 L525.8,357.6 L526.6,358.2 L527.5,357.9 L528.3,357.6 L529.2,357.9 L530.0,357.9 L530.8,357.0 L531.7,357.0 L532.5,357.3 L533.4,357.3 L534.2,357.3 L535.1,357.6 L535.9,357.0 L536.7,356.4 L537.6,357.0 L538.4,355.5 L539.3,356.1 L540.1,355.2 L541.0,354.9 L541.8,355.5 L542.6,355.8 L543.5,355.5 L544.3,354.6 L545.2,354.9 L546.0,355.2 L546.9,354.9 L547.7,354.3 L548.5,354.9 L549.4,354.6 L550.2,354.6 L551.1,353.4 L551.9,354.0 L552.8,354.3 L553.6,353.4 L554.4,353.7 L555.3,353.4 L556.1,353.1 L557.0,353.4 L557.8,353.1 L558.7,353.4 L559.5,353.7 L560.3,353.4 L561.2,353.4 L562.0,353.1 L562.9,353.7 L563.7,353.4 L564.6,353.7 L565.4,353.7 L566.2,354.0 L567.1,353.4 L567.9,355.2 L568.8,354.9 L569.6,354.9 L570.4,355.2 L571.3,355.8 L572.1,356.1 L573.0,356.1 L573.8,356.1 L574.7,355.5 L575.5,355.8 L576.3,355.8 L577.2,355.8 L578.0,356.1 L578.9,356.4 L579.7,355.8 L580.6,356.1 L581.4,355.8 L582.2,356.1 L583.1,355.8 L583.9,355.5 L584.8,355.5 L585.6,355.5 L586.5,355.5 L587.3,354.9 L588.1,354.9 L589.0,355.2 L589.8,354.3 L590.7,354.0 L591.5,354.0 L592.4,353.4 L593.2,353.7 L594.0,353.4 L594.9,354.3 L595.7,354.9 L596.6,354.3 L597.4,354.3 L598.3,354.6 L599.1,354.9 L599.9,355.5 L600.8,354.9 L601.6,354.9 L602.5,355.8 L603.3,355.8 L604.2,355.8 L605.0,355.8 L605.8,356.4 L606.7,356.4 L607.5,356.1 L608.4,356.1 L609.2,356.4 L610.1,356.1 L610.9,356.1 L611.7,356.4 L612.6,356.1 L613.4,355.5 L614.3,355.8 L615.1,355.5 L616.0,355.5 L616.8,355.5 L617.6,355.5 L618.5,355.5 L619.3,355.8 L620.2,355.2 L621.0,355.2 L621.9,354.3 L622.7,354.9 L623.5,354.6 L624.4,354.9 L625.2,354.9 L626.1,354.9 L626.9,355.5 L627.8,354.6 L628.6,354.9 L629.4,354.9 L630.3,355.5 L631.1,355.2 L632.0,355.2 L632.8,355.5 L633.7,354.9 L634.5,354.9 L635.3,355.2 L636.2,354.9 L637.0,354.9 L637.9,355.2 L638.7,355.2 L639.6,355.2 L640.4,355.2 L641.2,355.2 L642.1,355.2 L642.9,355.5 L643.8,355.2 L644.6,356.1 L645.4,355.8 L646.3,355.8 L647.1,355.5 L648.0,356.4 L648.8,356.1 L649.7,356.4 L650.5,357.0 L651.3,357.3 L652.2,356.1 L653.0,356.1 L653.9,356.1 L654.7,355.8 L655.6,356.1 L656.4,355.5 L657.2,355.8 L658.1,355.2 L658.9,355.2 L659.8,355.2 L660.6,355.2 L661.5,355.5 L662.3,354.9 L663.1,355.2 L664.0,354.9 L664.8,355.2 L665.7,355.2 L666.5,355.5 L667.4,355.8 L668.2,354.9 L669.0,355.8 L669.9,355.2 L670.7,355.2 L671.6,355.5 L672.4,355.5 L673.3,355.2 L674.1,355.2 L674.9,355.5 L675.8,355.5 L676.6,355.5 L677.5,355.2 L678.3,355.5 L679.2,355.5 L680.0,355.2" stroke="#ff7f0e" stroke-width="2" fill="none" opacity="0.8"/>
<!-- Thermal Generation -->
<path d="M80.0,335.4 L80.8,356.7 L81.7,343.4 L82.5,315.3 L83.4,293.7 L84.2,287.2 L85.1,290.1 L85.9,290.4 L86.7,292.2 L87.6,289.5 L88.4,289.2 L89.3,289.5 L90.1,288.9 L91.0,294.6 L91.8,294.8 L92.6,298.7 L93.5,298.1 L94.3,294.0 L95.2,294.3 L96.0,294.6 L96.9,294.6 L97.7,306.4 L98.5,315.3 L99.4,324.4 L100.2,325.9 L101.1,329.2 L101.9,325.9 L102.8,319.7 L103.6,290.1 L104.4,292.8 L105.3,292.8 L106.1,293.7 L107.0,299.6 L107.8,290.7 L108.7,296.0 L109.5,307.3 L110.3,326.2 L111.2,324.1 L112.0,318.8 L112.9,309.0 L113.7,310.8 L114.6,309.9 L115.4,310.8 L116.2,328.6 L117.1,326.2 L117.9,325.0 L118.8,323.3 L119.6,319.1 L120.4,332.7 L121.3,339.5 L122.1,340.1 L123.0,323.0 L123.8,303.7 L124.7,298.4 L125.5,297.8 L126.3,296.3 L127.2,300.5 L128.0,300.5 L128.9,292.8 L129.7,296.0 L130.6,297.5 L131.4,329.2 L132.2,328.6 L133.1,328.9 L133.9,328.9 L134.8,307.3 L135.6,312.0 L136.5,313.8 L137.3,328.9 L138.1,328.0 L139.0,330.9 L139.8,330.4 L140.7,333.0 L141.5,365.0 L142.4,366.4 L143.2,363.5 L144.0,363.2 L144.9,357.0 L145.7,354.3 L146.6,340.7 L147.4,340.1 L148.3,349.6 L149.1,352.5 L149.9,353.4 L150.8,353.4 L151.6,352.5 L152.5,343.4 L153.3,315.3 L154.2,307.0 L155.0,304.9 L155.8,302.8 L156.7,310.8 L157.5,312.9 L158.4,311.1 L159.2,317.6 L160.1,317.3 L160.9,325.9 L161.7,333.6 L162.6,333.9 L163.4,330.6 L164.3,308.5 L165.1,302.5 L166.0,302.8 L166.8,301.9 L167.6,301.9 L168.5,300.2 L169.3,296.9 L170.2,297.8 L171.0,297.2 L171.9,302.5 L172.7,299.9 L173.5,299.3 L174.4,299.3 L175.2,300.8 L176.1,302.5 L176.9,311.1 L177.8,318.5 L178.6,323.0 L179.4,325.6 L180.3,329.8 L181.1,337.7 L182.0,336.0 L182.8,338.9 L183.7,337.7 L184.5,304.0 L185.3,303.4 L186.2,322.4 L187.0,339.5 L187.9,339.5 L188.7,328.9 L189.6,312.3 L190.4,317.3 L191.2,332.1 L192.1,339.8 L192.9,340.1 L193.8,331.5 L194.6,335.4 L195.4,333.6 L196.3,334.2 L197.1,330.1 L198.0,328.9 L198.8,337.7 L199.7,336.6 L200.5,358.8 L201.3,372.1 L202.2,371.8 L203.0,371.8 L203.9,359.1 L204.7,324.7 L205.6,330.4 L206.4,336.0 L207.2,337.7 L208.1,336.9 L208.9,335.1 L209.8,335.1 L210.6,334.5 L211.5,344.3 L212.3,337.5 L213.1,353.7 L214.0,355.8 L214.8,353.4 L215.7,348.7 L216.5,348.1 L217.4,347.2 L218.2,346.6 L219.0,346.0 L219.9,346.6 L220.7,380.4 L221.6,380.6 L222.4,381.2 L223.3,380.4 L224.1,316.4 L224.9,293.4 L225.8,293.1 L226.6,293.4 L227.5,295.1 L228.3,294.3 L229.2,291.3 L230.0,294.6 L230.8,290.4 L231.7,290.7 L232.5,287.7 L233.4,289.2 L234.2,291.6 L235.1,290.4 L235.9,289.5 L236.7,293.4 L237.6,315.6 L238.4,317.6 L239.3,283.3 L240.1,286.3 L241.0,283.6 L241.8,281.5 L242.6,282.1 L243.5,281.8 L244.3,280.6 L245.2,285.7 L246.0,290.4 L246.9,287.5 L247.7,288.6 L248.5,289.8 L249.4,303.7 L250.2,288.6 L251.1,292.5 L251.9,306.7 L252.8,309.3 L253.6,309.3 L254.4,309.3 L255.3,320.6 L256.1,292.8 L257.0,287.7 L257.8,294.8 L258.7,326.5 L259.5,311.4 L260.3,326.2 L261.2,325.9 L262.0,314.1 L262.9,291.3 L263.7,302.8 L264.6,286.9 L265.4,286.6 L266.2,327.7 L267.1,325.0 L267.9,314.7 L268.8,313.8 L269.6,312.6 L270.4,312.9 L271.3,312.9 L272.1,313.8 L273.0,309.3 L273.8,309.3 L274.7,312.9 L275.5,287.7 L276.3,287.5 L277.2,318.8 L278.0,330.9 L278.9,330.9 L279.7,331.2 L280.6,329.8 L281.4,329.5 L282.2,328.9 L283.1,328.9 L283.9,328.9 L284.8,323.0 L285.6,281.2 L286.5,301.1 L287.3,304.6 L288.1,302.5 L289.0,312.3 L289.8,328.0 L290.7,329.2 L291.5,328.9 L292.4,374.4 L293.2,375.3 L294.0,368.5 L294.9,368.2 L295.7,340.4 L296.6,327.7 L297.4,328.9 L298.3,330.9 L299.1,330.4 L299.9,329.2 L300.8,358.5 L301.6,358.8 L302.5,359.6 L303.3,358.8 L304.2,358.8 L305.0,309.0 L305.8,280.3 L306.7,312.0 L307.5,323.3 L308.4,323.3 L309.2,328.6 L310.1,344.0 L310.9,352.5 L311.7,366.7 L312.6,366.2 L313.4,357.9 L314.3,349.3 L315.1,348.4 L316.0,325.6 L316.8,292.8 L317.6,329.2 L318.5,332.7 L319.3,332.4 L320.2,332.4 L321.0,331.5 L321.9,333.0 L322.7,331.5 L323.5,335.7 L324.4,338.3 L325.2,306.1 L326.1,286.0 L326.9,320.0 L327.8,332.7 L328.6,331.2 L329.4,338.6 L330.3,344.8 L331.1,344.8 L332.0,333.9 L332.8,308.8 L333.7,307.6 L334.5,299.0 L335.3,282.4 L336.2,283.9 L337.0,281.8 L337.9,304.9 L338.7,326.2 L339.6,325.6 L340.4,330.9 L341.2,350.5 L342.1,342.2 L342.9,333.6 L343.8,329.5 L344.6,329.5 L345.4,281.5 L346.3,284.2 L347.1,281.8 L348.0,284.2 L348.8,281.5 L349.7,283.6 L350.5,289.8 L351.3,284.2 L352.2,283.6 L353.0,283.3 L353.9,282.7 L354.7,282.1 L355.6,284.5 L356.4,282.4 L357.2,285.4 L358.1,290.7 L358.9,308.2 L359.8,325.0 L360.6,322.7 L361.5,320.0 L362.3,318.8 L363.1,311.4 L364.0,313.5 L364.8,313.8 L365.7,284.5 L366.5,284.2 L367.4,280.9 L368.2,281.5 L369.0,289.8 L369.9,282.4 L370.7,282.1 L371.6,314.1 L372.4,320.0 L373.3,358.2 L374.1,372.4 L374.9,372.7 L375.8,362.3 L376.6,316.1 L377.5,286.0 L378.3,316.4 L379.2,316.7 L380.0,318.8 L380.8,330.4 L381.7,333.0 L382.5,333.9 L383.4,333.6 L384.2,330.4 L385.1,333.9 L385.9,291.9 L386.7,283.9 L387.6,286.0 L388.4,295.1 L389.3,309.3 L390.1,320.6 L391.0,345.1 L391.8,364.4 L392.6,376.2 L393.5,378.0 L394.3,375.3 L395.2,375.0 L396.0,342.2 L396.9,344.6 L397.7,323.8 L398.5,321.5 L399.4,321.8 L400.2,378.0 L401.1,381.5 L401.9,336.9 L402.8,333.6 L403.6,332.7 L404.4,332.7 L405.3,349.9 L406.1,302.2 L407.0,282.7 L407.8,281.2 L408.7,283.3 L409.5,281.5 L410.3,283.6 L411.2,283.0 L412.0,290.7 L412.9,297.5 L413.7,294.6 L414.6,291.3 L415.4,296.9 L416.2,283.0 L417.1,283.3 L417.9,282.4 L418.8,296.6 L419.6,305.5 L420.4,308.8 L421.3,301.7 L422.1,305.2 L423.0,318.8 L423.8,328.9 L424.7,328.0 L425.5,332.4 L426.3,291.6 L427.2,280.9 L428.0,283.0 L428.9,285.4 L429.7,285.1 L430.6,288.3 L431.4,285.4 L432.2,286.3 L433.1,301.7 L433.9,324.7 L434.8,327.4 L435.6,327.7 L436.5,327.7 L437.3,327.4 L438.1,288.9 L439.0,288.3 L439.8,299.3 L440.7,310.5 L441.5,308.8 L442.4,304.9 L443.2,308.8 L444.0,333.9 L444.9,315.9 L445.7,312.6 L446.6,286.9 L447.4,293.1 L448.3,317.9 L449.1,320.3 L449.9,330.4 L450.8,330.1 L451.6,329.5 L452.5,328.9 L453.3,329.2 L454.2,320.3 L455.0,328.3 L455.8,325.6 L456.7,291.9 L457.5,281.2 L458.4,297.2 L459.2,286.0 L460.1,284.8 L460.9,288.9 L461.7,294.0 L462.6,289.2 L463.4,291.6 L464.3,291.9 L465.1,291.3 L466.0,289.5 L466.8,288.6 L467.6,284.2 L468.5,303.4 L469.3,307.6 L470.2,326.8 L471.0,324.4 L471.9,319.1 L472.7,327.4 L473.5,328.3 L474.4,328.3 L475.2,328.6 L476.1,328.6 L476.9,329.8 L477.8,329.5 L478.6,330.1 L479.4,329.8 L480.3,329.8 L481.1,329.5 L482.0,329.5 L482.8,330.4 L483.7,329.8 L484.5,304.0 L485.3,284.8 L486.2,288.3 L487.0,304.6 L487.9,286.9 L488.7,287.2 L489.6,286.3 L490.4,287.7 L491.2,291.0 L492.1,280.6 L492.9,280.1 L493.8,280.6 L494.6,307.9 L495.4,311.1 L496.3,297.2 L497.1,286.3 L498.0,283.9 L498.8,283.9 L499.7,284.5 L500.5,284.8 L501.3,283.0 L502.2,285.1 L503.0,282.1 L503.9,282.4 L504.7,286.6 L505.6,284.8 L506.4,281.5 L507.2,280.9 L508.1,286.0 L508.9,282.7 L509.8,280.6 L510.6,279.5 L511.5,287.2 L512.3,310.5 L513.1,318.5 L514.0,321.5 L514.8,330.1 L515.7,330.4 L516.5,327.1 L517.4,327.4 L518.2,310.5 L519.0,285.4 L519.9,285.7 L520.7,289.2 L521.6,305.5 L522.4,307.3 L523.3,321.5 L524.1,299.0 L524.9,283.0 L525.8,286.0 L526.6,294.6 L527.5,302.8 L528.3,311.7 L529.2,312.3 L530.0,310.2 L530.8,311.7 L531.7,315.9 L532.5,327.7 L533.4,327.1 L534.2,351.1 L535.1,353.1 L535.9,342.8 L536.7,342.8 L537.6,343.1 L538.4,327.7 L539.3,291.6 L540.1,309.9 L541.0,310.5 L541.8,302.5 L542.6,311.1 L543.5,314.7 L544.3,322.1 L545.2,328.9 L546.0,333.0 L546.9,301.7 L547.7,289.2 L548.5,283.0 L549.4,282.4 L550.2,295.7 L551.1,296.3 L551.9,296.3 L552.8,297.5 L553.6,301.9 L554.4,301.4 L555.3,301.1 L556.1,301.4 L557.0,289.2 L557.8,289.5 L558.7,289.2 L559.5,283.3 L560.3,296.9 L561.2,304.9 L562.0,298.4 L562.9,305.2 L563.7,312.3 L564.6,311.4 L565.4,310.5 L566.2,311.7 L567.1,309.3 L567.9,287.2 L568.8,284.5 L569.6,284.2 L570.4,285.7 L571.3,287.7 L572.1,284.5 L573.0,284.2 L573.8,284.5 L574.7,284.2 L575.5,283.9 L576.3,283.6 L577.2,286.0 L578.0,287.2 L578.9,286.3 L579.7,288.6 L580.6,285.4 L581.4,288.6 L582.2,285.7 L583.1,288.0 L583.9,285.4 L584.8,288.0 L585.6,285.4 L586.5,304.9 L587.3,287.5 L588.1,285.4 L589.0,286.3 L589.8,283.9 L590.7,285.1 L591.5,286.3 L592.4,283.6 L593.2,284.5 L594.0,289.8 L594.9,294.6 L595.7,293.4 L596.6,295.7 L597.4,286.9 L598.3,282.7 L599.1,286.0 L599.9,284.2 L600.8,289.5 L601.6,286.3 L602.5,288.9 L603.3,289.5 L604.2,297.2 L605.0,318.8 L605.8,319.7 L606.7,332.7 L607.5,333.0 L608.4,327.7 L609.2,287.7 L610.1,304.0 L610.9,303.4 L611.7,309.0 L612.6,319.7 L613.4,330.4 L614.3,330.6 L615.1,330.6 L616.0,331.5 L616.8,333.6 L617.6,331.8 L618.5,330.6 L619.3,314.4 L620.2,293.4 L621.0,299.3 L621.9,313.5 L622.7,319.4 L623.5,323.5 L624.4,327.4 L625.2,330.9 L626.1,331.2 L626.9,330.6 L627.8,330.6 L628.6,289.8 L629.4,299.0 L630.3,299.6 L631.1,299.9 L632.0,291.3 L632.8,330.4 L633.7,330.6 L634.5,329.2 L635.3,329.8 L636.2,330.1 L637.0,329.8 L637.9,330.4 L638.7,330.9 L639.6,330.1 L640.4,328.9 L641.2,329.5 L642.1,329.2 L642.9,329.8 L643.8,328.9 L644.6,329.8 L645.4,327.1 L646.3,329.2 L647.1,328.9 L648.0,329.5 L648.8,290.1 L649.7,294.0 L650.5,291.0 L651.3,283.6 L652.2,286.0 L653.0,281.8 L653.9,281.2 L654.7,286.9 L655.6,298.1 L656.4,323.8 L657.2,324.4 L658.1,324.4 L658.9,319.1 L659.8,319.7 L660.6,284.2 L661.5,281.5 L662.3,303.7 L663.1,299.0 L664.0,305.8 L664.8,309.0 L665.7,315.9 L666.5,320.9 L667.4,331.2 L668.2,327.1 L669.0,297.5 L669.9,294.3 L670.7,302.8 L671.6,300.5 L672.4,312.0 L673.3,312.0 L674.1,310.8 L674.9,324.7 L675.8,325.0 L676.6,325.3 L677.5,325.9 L678.3,325.0 L679.2,299.6 L680.0,281.8" stroke="#2ca02c" stroke-width="2" fill="none" opacity="0.8"/>
<!-- Solar Generation -->
<path d="M80.0,388.9 L80.8,394.3 L81.7,396.6 L82.5,412.0 L83.4,414.1 L84.2,420.0 L85.1,420.0 L85.9,420.0 L86.7,420.0 L87.6,420.0 L88.4,420.0 L89.3,420.0 L90.1,420.0 L91.0,420.0 L91.8,420.0 L92.6,420.0 L93.5,420.0 L94.3,420.0 L95.2,420.0 L96.0,418.2 L96.9,398.4 L97.7,399.6 L98.5,401.1 L99.4,399.3 L100.2,391.6 L101.1,394.6 L101.9,399.0 L102.8,402.5 L103.6,417.6 L104.4,420.0 L105.3,420.0 L106.1,420.0 L107.0,420.0 L107.8,420.0 L108.7,420.0 L109.5,420.0 L110.3,420.0 L111.2,420.0 L112.0,420.0 L112.9,420.0 L113.7,420.0 L114.6,420.0 L115.4,420.0 L116.2,410.5 L117.1,386.0 L117.9,391.0 L118.8,383.9 L119.6,389.5 L120.4,387.5 L121.3,384.5 L122.1,399.9 L123.0,394.0 L123.8,418.8 L124.7,420.0 L125.5,420.0 L126.3,420.0 L127.2,420.0 L128.0,420.0 L128.9,420.0 L129.7,420.0 L130.6,420.0 L131.4,420.0 L132.2,420.0 L133.1,420.0 L133.9,420.0 L134.8,420.0 L135.6,420.0 L136.5,416.2 L137.3,408.5 L138.1,407.9 L139.0,408.8 L139.8,394.3 L140.7,389.8 L141.5,397.5 L142.4,393.1 L143.2,399.3 L144.0,416.2 L144.9,420.0 L145.7,420.0 L146.6,420.0 L147.4,420.0 L148.3,420.0 L149.1,420.0 L149.9,420.0 L150.8,420.0 L151.6,420.0 L152.5,420.0 L153.3,420.0 L154.2,420.0 L155.0,420.0 L155.8,420.0 L156.7,411.4 L157.5,387.8 L158.4,385.4 L159.2,388.0 L160.1,390.4 L160.9,388.9 L161.7,383.9 L162.6,383.6 L163.4,393.7 L164.3,417.6 L165.1,420.0 L166.0,420.0 L166.8,420.0 L167.6,420.0 L168.5,420.0 L169.3,420.0 L170.2,420.0 L171.0,420.0 L171.9,420.0 L172.7,420.0 L173.5,420.0 L174.4,420.0 L175.2,420.0 L176.1,420.0 L176.9,411.7 L177.8,388.9 L178.6,385.1 L179.4,388.9 L180.3,394.9 L181.1,389.2 L182.0,386.6 L182.8,394.3 L183.7,409.9 L184.5,418.8 L185.3,420.0 L186.2,420.0 L187.0,420.0 L187.9,420.0 L188.7,420.0 L189.6,420.0 L190.4,420.0 L191.2,420.0 L192.1,420.0 L192.9,420.0 L193.8,420.0 L194.6,420.0 L195.4,420.0 L196.3,420.0 L197.1,417.6 L198.0,405.8 L198.8,402.2 L199.7,402.0 L200.5,399.3 L201.3,391.3 L202.2,393.4 L203.0,400.2 L203.9,411.4 L204.7,418.8 L205.6,420.0 L206.4,420.0 L207.2,420.0 L208.1,420.0 L208.9,420.0 L209.8,420.0 L210.6,420.0 L211.5,420.0 L212.3,420.0 L213.1,420.0 L214.0,420.0 L214.8,420.0 L215.7,420.0 L216.5,418.8 L217.4,414.4 L218.2,416.4 L219.0,416.4 L219.9,400.2 L220.7,399.3 L221.6,404.9 L222.4,397.8 L223.3,410.5 L224.1,418.8 L224.9,420.0 L225.8,420.0 L226.6,420.0 L227.5,420.0 L228.3,420.0 L229.2,420.0 L230.0,420.0 L230.8,420.0 L231.7,420.0 L232.5,420.0 L233.4,420.0 L234.2,420.0 L235.1,420.0 L235.9,420.0 L236.7,413.2 L237.6,391.6 L238.4,386.0 L239.3,389.5 L240.1,392.2 L241.0,392.2 L241.8,389.2 L242.6,391.9 L243.5,410.8 L244.3,419.1 L245.2,420.0 L246.0,420.0 L246.9,420.0 L247.7,420.0 L248.5,420.0 L249.4,420.0 L250.2,420.0 L251.1,420.0 L251.9,420.0 L252.8,420.0 L253.6,420.0 L254.4,420.0 L255.3,420.0 L256.1,420.0 L257.0,419.1 L257.8,416.2 L258.7,413.5 L259.5,406.4 L260.3,412.6 L261.2,412.6 L262.0,401.4 L262.9,412.6 L263.7,415.3 L264.6,419.7 L265.4,420.0 L266.2,420.0 L267.1,420.0 L267.9,420.0 L268.8,420.0 L269.6,420.0 L270.4,420.0 L271.3,420.0 L272.1,420.0 L273.0,420.0 L273.8,420.0 L274.7,420.0 L275.5,420.0 L276.3,420.0 L277.2,419.1 L278.0,411.4 L278.9,402.8 L279.7,411.4 L280.6,404.3 L281.4,400.5 L282.2,408.5 L283.1,415.3 L283.9,414.1 L284.8,419.4 L285.6,420.0 L286.5,420.0 L287.3,420.0 L288.1,420.0 L289.0,420.0 L289.8,420.0 L290.7,420.0 L291.5,420.0 L292.4,420.0 L293.2,420.0 L294.0,420.0 L294.9,420.0 L295.7,420.0 L296.6,420.0 L297.4,418.2 L298.3,414.1 L299.1,396.3 L299.9,401.7 L300.8,398.7 L301.6,394.6 L302.5,387.5 L303.3,390.7 L304.2,405.5 L305.0,418.8 L305.8,420.0 L306.7,420.0 L307.5,420.0 L308.4,420.0 L309.2,420.0 L310.1,420.0 L310.9,420.0 L311.7,420.0 L312.6,420.0 L313.4,420.0 L314.3,420.0 L315.1,420.0 L316.0,420.0 L316.8,420.0 L317.6,418.2 L318.5,416.4 L319.3,410.8 L320.2,409.3 L321.0,407.9 L321.9,412.9 L322.7,402.8 L323.5,405.8 L324.4,408.8 L325.2,419.4 L326.1,420.0 L326.9,420.0 L327.8,420.0 L328.6,420.0 L329.4,420.0 L330.3,420.0 L331.1,420.0 L332.0,420.0 L332.8,420.0 L333.7,420.0 L334.5,420.0 L335.3,420.0 L336.2,420.0 L337.0,420.0 L337.9,417.9 L338.7,402.0 L339.6,386.0 L340.4,391.0 L341.2,392.8 L342.1,390.4 L342.9,391.0 L343.8,390.7 L344.6,403.4 L345.4,418.8 L346.3,420.0 L347.1,420.0 L348.0,420.0 L348.8,420.0 L349.7,420.0 L350.5,420.0 L351.3,420.0 L352.2,420.0 L353.0,420.0 L353.9,420.0 L354.7,420.0 L355.6,420.0 L356.4,420.0 L357.2,420.0 L358.1,415.9 L358.9,396.6 L359.8,391.3 L360.6,392.5 L361.5,397.5 L362.3,392.8 L363.1,390.4 L364.0,393.1 L364.8,408.5 L365.7,419.1 L366.5,420.0 L367.4,420.0 L368.2,420.0 L369.0,420.0 L369.9,420.0 L370.7,420.0 L371.6,420.0 L372.4,420.0 L373.3,420.0 L374.1,420.0 L374.9,420.0 L375.8,420.0 L376.6,420.0 L377.5,420.0 L378.3,419.1 L379.2,412.0 L380.0,405.2 L380.8,403.4 L381.7,402.5 L382.5,402.2 L383.4,400.8 L384.2,404.3 L385.1,413.2 L385.9,419.4 L386.7,420.0 L387.6,420.0 L388.4,420.0 L389.3,420.0 L390.1,420.0 L391.0,420.0 L391.8,420.0 L392.6,420.0 L393.5,420.0 L394.3,420.0 L395.2,420.0 L396.0,420.0 L396.9,420.0 L397.7,420.0 L398.5,417.9 L399.4,406.1 L400.2,389.8 L401.1,396.9 L401.9,396.9 L402.8,396.0 L403.6,391.9 L404.4,390.1 L405.3,401.1 L406.1,419.4 L407.0,420.0 L407.8,420.0 L408.7,420.0 L409.5,420.0 L410.3,420.0 L411.2,420.0 L412.0,420.0 L412.9,420.0 L413.7,420.0 L414.6,420.0 L415.4,420.0 L416.2,420.0 L417.1,420.0 L417.9,420.0 L418.8,419.4 L419.6,412.6 L420.4,396.0 L421.3,390.7 L422.1,394.3 L423.0,392.5 L423.8,393.1 L424.7,392.5 L425.5,412.3 L426.3,419.7 L427.2,420.0 L428.0,420.0 L428.9,420.0 L429.7,420.0 L430.6,420.0 L431.4,420.0 L432.2,420.0 L433.1,420.0 L433.9,420.0 L434.8,420.0 L435.6,420.0 L436.5,420.0 L437.3,420.0 L438.1,420.0 L439.0,418.5 L439.8,411.1 L440.7,403.4 L441.5,391.9 L442.4,395.1 L443.2,397.8 L444.0,393.7 L444.9,398.4 L445.7,413.8 L446.6,419.7 L447.4,420.0 L448.3,420.0 L449.1,420.0 L449.9,420.0 L450.8,420.0 L451.6,420.0 L452.5,420.0 L453.3,420.0 L454.2,420.0 L455.0,420.0 L455.8,420.0 L456.7,420.0 L457.5,420.0 L458.4,420.0 L459.2,419.4 L460.1,417.3 L460.9,414.4 L461.7,413.5 L462.6,410.2 L463.4,411.1 L464.3,400.8 L465.1,407.9 L466.0,415.3 L466.8,419.1 L467.6,420.0 L468.5,420.0 L469.3,420.0 L470.2,420.0 L471.0,420.0 L471.9,420.0 L472.7,420.0 L473.5,420.0 L474.4,420.0 L475.2,420.0 L476.1,420.0 L476.9,420.0 L477.8,420.0 L478.6,420.0 L479.4,419.7 L480.3,415.3 L481.1,415.6 L482.0,407.6 L482.8,412.0 L483.7,396.9 L484.5,397.5 L485.3,391.3 L486.2,405.5 L487.0,419.7 L487.9,420.0 L488.7,420.0 L489.6,420.0 L490.4,420.0 L491.2,420.0 L492.1,420.0 L492.9,420.0 L493.8,420.0 L494.6,420.0 L495.4,420.0 L496.3,420.0 L497.1,420.0 L498.0,420.0 L498.8,420.0 L499.7,419.7 L500.5,416.7 L501.3,413.5 L502.2,410.8 L503.0,406.7 L503.9,404.0 L504.7,390.7 L505.6,412.9 L506.4,415.9 L507.2,420.0 L508.1,420.0 L508.9,420.0 L509.8,420.0 L510.6,420.0 L511.5,420.0 L512.3,420.0 L513.1,420.0 L514.0,420.0 L514.8,420.0 L515.7,420.0 L516.5,420.0 L517.4,420.0 L518.2,420.0 L519.0,420.0 L519.9,419.1 L520.7,406.7 L521.6,405.2 L522.4,400.5 L523.3,400.2 L524.1,398.7 L524.9,396.9 L525.8,396.6 L526.6,415.3 L527.5,419.7 L528.3,420.0 L529.2,420.0 L530.0,420.0 L530.8,420.0 L531.7,420.0 L532.5,420.0 L533.4,420.0 L534.2,420.0 L535.1,420.0 L535.9,420.0 L536.7,420.0 L537.6,420.0 L538.4,420.0 L539.3,420.0 L540.1,420.0 L541.0,415.9 L541.8,409.3 L542.6,408.5 L543.5,402.2 L544.3,405.2 L545.2,403.1 L546.0,406.7 L546.9,416.4 L547.7,420.0 L548.5,420.0 L549.4,420.0 L550.2,420.0 L551.1,420.0 L551.9,420.0 L552.8,420.0 L553.6,420.0 L554.4,420.0 L555.3,420.0 L556.1,420.0 L557.0,420.0 L557.8,420.0 L558.7,420.0 L559.5,420.0 L560.3,420.0 L561.2,415.3 L562.0,412.9 L562.9,407.6 L563.7,404.6 L564.6,401.4 L565.4,400.8 L566.2,402.2 L567.1,414.7 L567.9,420.0 L568.8,420.0 L569.6,420.0 L570.4,420.0 L571.3,420.0 L572.1,420.0 L573.0,420.0 L573.8,420.0 L574.7,420.0 L575.5,420.0 L576.3,420.0 L577.2,420.0 L578.0,420.0 L578.9,420.0 L579.7,420.0 L580.6,419.4 L581.4,411.7 L582.2,405.5 L583.1,405.8 L583.9,405.8 L584.8,396.9 L585.6,392.8 L586.5,391.3 L587.3,406.7 L588.1,419.7 L589.0,420.0 L589.8,420.0 L590.7,420.0 L591.5,420.0 L592.4,420.0 L593.2,420.0 L594.0,420.0 L594.9,420.0 L595.7,420.0 L596.6,420.0 L597.4,420.0 L598.3,420.0 L599.1,420.0 L599.9,420.0 L600.8,419.1 L601.6,401.7 L602.5,390.4 L603.3,393.7 L604.2,396.6 L605.0,395.7 L605.8,391.6 L606.7,390.1 L607.5,411.7 L608.4,419.7 L609.2,420.0 L610.1,420.0 L610.9,420.0 L611.7,420.0 L612.6,420.0 L613.4,420.0 L614.3,420.0 L615.1,420.0 L616.0,420.0 L616.8,420.0 L617.6,420.0 L618.5,420.0 L619.3,420.0 L620.2,420.0 L621.0,419.4 L621.9,402.2 L622.7,391.3 L623.5,394.9 L624.4,402.5 L625.2,394.6 L626.1,391.6 L626.9,394.3 L627.8,407.9 L628.6,419.7 L629.4,420.0 L630.3,420.0 L631.1,420.0 L632.0,420.0 L632.8,420.0 L633.7,420.0 L634.5,420.0 L635.3,420.0 L636.2,420.0 L637.0,420.0 L637.9,420.0 L638.7,420.0 L639.6,420.0 L640.4,420.0 L641.2,419.7 L642.1,417.0 L642.9,406.1 L643.8,404.3 L644.6,404.6 L645.4,397.2 L646.3,408.2 L647.1,413.8 L648.0,411.4 L648.8,419.7 L649.7,420.0 L650.5,420.0 L651.3,420.0 L652.2,420.0 L653.0,420.0 L653.9,420.0 L654.7,420.0 L655.6,420.0 L656.4,420.0 L657.2,420.0 L658.1,420.0 L658.9,420.0 L659.8,420.0 L660.6,420.0 L661.5,420.0 L662.3,417.9 L663.1,399.0 L664.0,393.4 L664.8,408.5 L665.7,414.1 L666.5,405.8 L667.4,410.5 L668.2,416.2 L669.0,420.0 L669.9,420.0 L670.7,420.0 L671.6,420.0 L672.4,420.0 L673.3,420.0 L674.1,420.0 L674.9,420.0 L675.8,420.0 L676.6,420.0 L677.5,420.0 L678.3,420.0 L679.2,420.0 L680.0,420.0" stroke="#d62728" stroke-width="2" fill="none" opacity="0.8"/>
<!-- Forecast -->
<path d="M80.0,420.0 L80.8,420.0 L81.7,420.0 L82.5,420.0 L83.4,420.0 L84.2,420.0 L85.1,420.0 L85.9,420.0 L86.7,420.0 L87.6,420.0 L88.4,274.7 L89.3,377.4 L90.1,294.0 L91.0,260.8 L91.8,261.4 L92.6,259.6 L93.5,247.2 L94.3,219.4 L95.2,183.9 L96.0,169.1 L96.9,165.8 L97.7,167.9 L98.5,170.0 L99.4,173.8 L100.2,176.8 L101.1,180.0 L101.9,180.0 L102.8,175.6 L103.6,167.0 L104.4,163.2 L105.3,162.0 L106.1,169.1 L107.0,184.8 L107.8,208.2 L108.7,232.4 L109.5,242.8 L110.3,247.5 L111.2,252.8 L112.0,253.1 L112.9,250.5 L113.7,236.6 L114.6,207.6 L115.4,174.1 L116.2,161.7 L117.1,161.1 L117.9,165.0 L118.8,169.1 L119.6,173.8 L120.4,177.7 L121.3,181.5 L122.1,182.4 L123.0,178.3 L123.8,170.6 L124.7,166.1 L125.5,165.0 L126.3,171.8 L127.2,187.7 L128.0,211.1 L128.9,232.7 L129.7,248.4 L130.6,250.8 L131.4,255.2 L132.2,256.1 L133.1,255.5 L133.9,243.4 L134.8,216.4 L135.6,184.2 L136.5,170.3 L137.3,169.7 L138.1,173.5 L139.0,178.0 L139.8,183.3 L140.7,187.2 L141.5,189.2 L142.4,189.2 L143.2,186.6 L144.0,180.9 L144.9,176.8 L145.7,172.9 L146.6,180.0 L147.4,193.1 L148.3,215.0 L149.1,231.8 L149.9,246.9 L150.8,255.8 L151.6,260.2 L152.5,260.2 L153.3,257.3 L154.2,243.7 L155.0,215.8 L155.8,180.9 L156.7,166.1 L157.5,164.7 L158.4,169.1 L159.2,172.9 L160.1,178.0 L160.9,181.2 L161.7,184.8 L162.6,185.7 L163.4,181.2 L164.3,173.8 L165.1,168.5 L166.0,166.4 L166.8,173.5 L167.6,188.0 L168.5,210.8 L169.3,238.0 L170.2,247.5 L171.0,252.2 L171.9,257.0 L172.7,257.9 L173.5,255.2 L174.4,241.9 L175.2,213.5 L176.1,178.9 L176.9,165.3 L177.8,164.4 L178.6,168.8 L179.4,173.2 L180.3,178.6 L181.1,182.7 L182.0,186.9 L182.8,187.2 L183.7,183.9 L184.5,177.4 L185.3,174.4 L186.2,172.9 L187.0,182.1 L187.9,196.9 L188.7,220.3 L189.6,249.9 L190.4,254.6 L191.2,258.8 L192.1,264.7 L192.9,267.6 L193.8,269.4 L194.6,266.4 L195.4,255.5 L196.3,238.6 L197.1,221.8 L198.0,213.5 L198.8,208.7 L199.7,209.0 L200.5,215.0 L201.3,217.3 L202.2,219.1 L203.0,220.3 L203.9,219.4 L204.7,215.0 L205.6,211.4 L206.4,208.7 L207.2,212.6 L208.1,220.6 L208.9,236.3 L209.8,228.0 L210.6,240.4 L211.5,261.4 L212.3,273.5 L213.1,277.1 L214.0,279.5 L214.8,278.6 L215.7,274.4 L216.5,264.1 L217.4,250.8 L218.2,236.9 L219.0,220.6 L219.9,212.9 L220.7,209.6 L221.6,207.9 L222.4,210.5 L223.3,211.7 L224.1,211.7 L224.9,204.0 L225.8,189.5 L226.6,177.7 L227.5,179.8 L228.3,189.2 L229.2,203.7 L230.0,236.9 L230.8,251.7 L231.7,257.9 L232.5,263.2 L233.4,264.7 L234.2,262.6 L235.1,248.7 L235.9,220.9 L236.7,194.5 L237.6,180.3 L238.4,177.1 L239.3,177.7 L240.1,179.8 L241.0,183.3 L241.8,186.6 L242.6,187.7 L243.5,186.9 L244.3,181.2 L245.2,172.9 L246.0,171.2 L246.9,173.2 L247.7,183.3 L248.5,199.0 L249.4,221.5 L250.2,227.1 L251.1,256.4 L251.9,265.6 L252.8,272.1 L253.6,274.4 L254.4,273.5 L255.3,262.0 L256.1,233.3 L257.0,204.3 L257.8,188.9 L258.7,183.0 L259.5,181.5 L260.3,181.8 L261.2,184.8 L262.0,187.2 L262.9,188.0 L263.7,187.7 L264.6,182.1 L265.4,173.5 L266.2,170.9 L267.1,173.2 L267.9,182.7 L268.8,197.5 L269.6,222.4 L270.4,248.4 L271.3,258.5 L272.1,262.9 L273.0,268.8 L273.8,271.2 L274.7,270.6 L275.5,259.0 L276.3,230.6 L277.2,202.8 L278.0,187.4 L278.9,182.7 L279.7,182.7 L280.6,185.7 L281.4,190.1 L282.2,193.7 L283.1,194.0 L283.9,193.4 L284.8,189.5 L285.6,184.2 L286.5,183.6 L287.3,184.8 L288.1,193.7 L289.0,207.3 L289.8,228.9 L290.7,242.2 L291.5,261.1 L292.4,270.9 L293.2,275.9 L294.0,277.4 L294.9,275.6 L295.7,263.5 L296.6,235.4 L297.4,205.5 L298.3,191.3 L299.1,186.9 L299.9,185.7 L300.8,186.9 L301.6,188.9 L302.5,191.0 L303.3,191.0 L304.2,190.1 L305.0,185.4 L305.8,176.5 L306.7,172.9 L307.5,173.8 L308.4,183.0 L309.2,197.8 L310.1,219.7 L310.9,236.3 L311.7,253.7 L312.6,263.2 L313.4,269.1 L314.3,270.9 L315.1,270.0 L316.0,257.9 L316.8,230.1 L317.6,201.4 L318.5,186.9 L319.3,183.0 L320.2,182.4 L321.0,183.0 L321.9,184.8 L322.7,186.9 L323.5,187.2 L324.4,185.7 L325.2,179.5 L326.1,168.5 L326.9,165.3 L327.8,168.8 L328.6,176.8 L329.4,193.1 L330.3,215.6 L331.1,227.7 L332.0,245.4 L332.8,254.6 L333.7,259.9 L334.5,261.4 L335.3,260.8 L336.2,253.7 L337.0,241.6 L337.9,225.9 L338.7,211.1 L339.6,204.6 L340.4,199.0 L341.2,200.2 L342.1,201.9 L342.9,208.2 L343.8,212.3 L344.6,211.7 L345.4,192.5 L346.3,179.2 L347.1,179.8 L348.0,176.5 L348.8,183.3 L349.7,193.1 L350.5,212.0 L351.3,216.7 L352.2,239.2 L353.0,243.1 L353.9,247.5 L354.7,250.2 L355.6,247.2 L356.4,240.1 L357.2,225.3 L358.1,213.5 L358.9,210.5 L359.8,203.7 L360.6,196.9 L361.5,200.2 L362.3,201.9 L363.1,209.9 L364.0,211.7 L364.8,211.4 L365.7,203.4 L366.5,186.6 L367.4,175.0 L368.2,178.9 L369.0,191.0 L369.9,206.1 L370.7,223.5 L371.6,249.3 L372.4,258.2 L373.3,264.7 L374.1,271.2 L374.9,273.5 L375.8,272.1 L376.6,260.2 L377.5,231.8 L378.3,204.0 L379.2,190.1 L380.0,188.3 L380.8,188.6 L381.7,189.8 L382.5,193.1 L383.4,196.6 L384.2,196.3 L385.1,195.7 L385.9,193.1 L386.7,188.6 L387.6,186.9 L388.4,186.6 L389.3,194.3 L390.1,208.5 L391.0,229.8 L391.8,238.9 L392.6,259.9 L393.5,267.9 L394.3,271.8 L395.2,271.8 L396.0,269.1 L396.9,259.3 L397.7,233.3 L398.5,201.9 L399.4,183.6 L400.2,177.4 L401.1,179.2 L401.9,184.5 L402.8,187.2 L403.6,190.1 L404.4,191.6 L405.3,192.5 L406.1,189.5 L407.0,183.9 L407.8,180.3 L408.7,178.0 L409.5,183.0 L410.3,195.1 L411.2,216.4 L412.0,243.4 L412.9,257.9 L413.7,265.3 L414.6,270.6 L415.4,272.4 L416.2,270.9 L417.1,259.0 L417.9,231.8 L418.8,204.9 L419.6,189.5 L420.4,185.4 L421.3,185.1 L422.1,186.6 L423.0,190.1 L423.8,193.7 L424.7,193.7 L425.5,193.1 L426.3,189.2 L427.2,181.5 L428.0,179.5 L428.9,180.0 L429.7,190.1 L430.6,203.7 L431.4,225.6 L432.2,251.7 L433.1,262.3 L433.9,269.4 L434.8,274.7 L435.6,276.5 L436.5,274.7 L437.3,262.6 L438.1,234.8 L439.0,205.5 L439.8,192.2 L440.7,190.7 L441.5,191.3 L442.4,193.1 L443.2,195.1 L444.0,198.4 L444.9,198.7 L445.7,198.1 L446.6,195.1 L447.4,191.0 L448.3,190.1 L449.1,190.7 L449.9,196.9 L450.8,210.8 L451.6,232.7 L452.5,237.7 L453.3,265.9 L454.2,274.4 L455.0,279.5 L455.8,280.9 L456.7,279.2 L457.5,268.5 L458.4,241.6 L459.2,212.0 L460.1,196.6 L460.9,192.5 L461.7,191.6 L462.6,191.9 L463.4,192.5 L464.3,194.0 L465.1,194.0 L466.0,193.4 L466.8,188.9 L467.6,182.1 L468.5,181.2 L469.3,182.7 L470.2,191.6 L471.0,205.8 L471.9,227.4 L472.7,249.3 L473.5,257.6 L474.4,263.8 L475.2,268.8 L476.1,271.5 L476.9,272.7 L477.8,268.2 L478.6,256.1 L479.4,241.0 L480.3,225.6 L481.1,216.1 L482.0,209.6 L482.8,208.7 L483.7,212.3 L484.5,215.8 L485.3,218.8 L486.2,220.0 L487.0,217.6 L487.9,208.7 L488.7,202.5 L489.6,201.6 L490.4,208.5 L491.2,218.2 L492.1,232.4 L492.9,246.3 L493.8,259.9 L494.6,265.0 L495.4,267.9 L496.3,270.3 L497.1,272.1 L498.0,265.0 L498.8,251.4 L499.7,237.7 L500.5,224.1 L501.3,211.4 L502.2,204.9 L503.0,205.8 L503.9,206.7 L504.7,211.4 L505.6,213.5 L506.4,213.8 L507.2,204.6 L508.1,191.0 L508.9,183.3 L509.8,185.7 L510.6,194.8 L511.5,209.6 L512.3,228.3 L513.1,240.7 L514.0,259.3 L514.8,269.7 L515.7,275.3 L516.5,277.4 L517.4,275.6 L518.2,263.5 L519.0,234.8 L519.9,205.2 L520.7,188.0 L521.6,181.8 L522.4,180.3 L523.3,181.5 L524.1,184.8 L524.9,187.2 L525.8,189.2 L526.6,188.0 L527.5,181.2 L528.3,171.8 L529.2,170.3 L530.0,173.2 L530.8,183.6 L531.7,199.3 L532.5,222.1 L533.4,236.6 L534.2,252.2 L535.1,265.0 L535.9,271.2 L536.7,273.0 L537.6,271.5 L538.4,259.0 L539.3,230.3 L540.1,200.2 L541.0,183.0 L541.8,177.7 L542.6,176.8 L543.5,178.3 L544.3,182.1 L545.2,184.8 L546.0,187.2 L546.9,186.3 L547.7,178.9 L548.5,168.5 L549.4,166.7 L550.2,169.7 L551.1,179.2 L551.9,195.1 L552.8,217.6 L553.6,223.0 L554.4,248.7 L555.3,262.9 L556.1,269.4 L557.0,270.9 L557.8,269.1 L558.7,256.1 L559.5,227.7 L560.3,196.0 L561.2,180.3 L562.0,175.3 L562.9,175.0 L563.7,177.1 L564.6,180.9 L565.4,183.3 L566.2,185.7 L567.1,184.2 L567.9,176.8 L568.8,164.4 L569.6,160.2 L570.4,163.5 L571.3,170.9 L572.1,187.4 L573.0,210.2 L573.8,232.4 L574.7,245.4 L575.5,251.4 L576.3,256.7 L577.2,257.9 L578.0,255.8 L578.9,241.0 L579.7,212.3 L580.6,182.7 L581.4,170.9 L582.2,170.0 L583.1,172.7 L583.9,176.5 L584.8,181.8 L585.6,186.0 L586.5,187.4 L587.3,185.7 L588.1,177.4 L589.0,165.6 L589.8,164.1 L590.7,165.8 L591.5,173.5 L592.4,189.8 L593.2,213.2 L594.0,219.1 L594.9,241.0 L595.7,238.0 L596.6,238.3 L597.4,240.1 L598.3,237.4 L599.1,223.2 L599.9,195.7 L600.8,166.1 L601.6,151.9 L602.5,152.2 L603.3,155.5 L604.2,159.3 L605.0,163.5 L605.8,167.3 L606.7,170.9 L607.5,171.5 L608.4,164.7 L609.2,149.6 L610.1,143.4 L610.9,146.9 L611.7,158.5 L612.6,175.6 L613.4,194.8 L614.3,223.2 L615.1,232.1 L616.0,238.3 L616.8,243.4 L617.6,246.9 L618.5,249.0 L619.3,245.1 L620.2,227.7 L621.0,211.4 L621.9,196.6 L622.7,192.8 L623.5,186.9 L624.4,188.0 L625.2,190.4 L626.1,197.8 L626.9,200.5 L627.8,198.7 L628.6,193.4 L629.4,180.3 L630.3,173.5 L631.1,172.9 L632.0,179.8 L632.8,191.0 L633.7,208.7 L634.5,220.6 L635.3,234.2 L636.2,239.2 L637.0,242.5 L637.9,242.2 L638.7,239.5 L639.6,235.4 L640.4,225.6 L641.2,213.5 L642.1,202.5 L642.9,192.8 L643.8,182.1 L644.6,176.2 L645.4,177.1 L646.3,183.3 L647.1,194.0 L648.0,191.9 L648.8,189.5 L649.7,167.0 L650.5,162.3 L651.3,163.8 L652.2,171.5 L653.0,185.7 L653.9,201.6 L654.7,205.2 L655.6,228.6 L656.4,237.2 L657.2,241.3 L658.1,243.1 L658.9,240.7 L659.8,226.2 L660.6,199.0 L661.5,170.0 L662.3,153.7 L663.1,151.9 L664.0,154.0 L664.8,157.3 L665.7,161.7 L666.5,165.3 L667.4,167.6 L668.2,167.6 L669.0,160.5 L669.9,144.5 L670.7,138.6 L671.6,143.7 L672.4,153.1 L673.3,169.1 L674.1,189.8 L674.9,205.5 L675.8,222.4 L676.6,228.6 L677.5,231.8 L678.3,233.0 L679.2,229.8 L680.0,228.9" stroke="#9467bd" stroke-width="2" fill="none" opacity="0.8"/>
<!-- Total Generation -->
<path d="M80.0,124.1 L80.8,169.4 L81.7,163.8 L82.5,129.2 L83.4,138.6 L84.2,170.6 L85.1,195.1 L85.9,214.1 L86.7,211.1 L87.6,212.3 L88.4,212.6 L89.3,211.1 L90.1,206.4 L91.0,193.7 L91.8,178.0 L92.6,173.2 L93.5,160.5 L94.3,120.0 L95.2,144.2 L96.0,138.3 L96.9,107.9 L97.7,113.5 L98.5,123.8 L99.4,125.6 L100.2,117.3 L101.1,128.6 L101.9,124.7 L102.8,119.7 L103.6,130.9 L104.4,146.0 L105.3,144.8 L106.1,121.8 L107.0,137.7 L107.8,144.5 L108.7,172.1 L109.5,165.0 L110.3,165.8 L111.2,148.4 L112.0,149.0 L112.9,146.3 L113.7,152.2 L114.6,164.7 L115.4,192.5 L116.2,216.7 L117.1,183.0 L117.9,165.8 L118.8,172.1 L119.6,186.3 L120.4,194.5 L121.3,192.8 L122.1,224.1 L123.0,220.3 L123.8,226.5 L124.7,221.8 L125.5,231.8 L126.3,226.5 L127.2,230.3 L128.0,233.3 L128.9,222.7 L129.7,218.5 L130.6,212.3 L131.4,239.8 L132.2,238.6 L133.1,236.9 L133.9,230.1 L134.8,209.3 L135.6,198.7 L136.5,193.4 L137.3,212.0 L138.1,216.4 L139.0,199.0 L139.8,146.0 L140.7,150.5 L141.5,161.7 L142.4,157.6 L143.2,160.5 L144.0,177.1 L144.9,184.2 L145.7,179.8 L146.6,164.4 L147.4,169.7 L148.3,170.9 L149.1,181.5 L149.9,198.7 L150.8,203.4 L151.6,199.6 L152.5,201.6 L153.3,192.8 L154.2,184.2 L155.0,196.6 L155.8,200.5 L156.7,226.8 L157.5,212.0 L158.4,197.8 L159.2,210.2 L160.1,215.0 L160.9,227.7 L161.7,232.1 L162.6,217.9 L163.4,225.6 L164.3,225.3 L165.1,214.4 L166.0,210.8 L166.8,220.6 L167.6,230.1 L168.5,239.2 L169.3,236.6 L170.2,234.8 L171.0,234.5 L171.9,234.5 L172.7,232.1 L173.5,229.5 L174.4,228.9 L175.2,230.3 L176.1,231.8 L176.9,233.3 L177.8,224.4 L178.6,228.6 L179.4,233.0 L180.3,242.2 L181.1,237.7 L182.0,225.3 L182.8,232.4 L183.7,247.5 L184.5,215.8 L185.3,207.9 L186.2,244.0 L187.0,255.5 L187.9,249.6 L188.7,234.8 L189.6,203.1 L190.4,207.0 L191.2,193.4 L192.1,196.9 L192.9,196.0 L193.8,163.8 L194.6,169.1 L195.4,179.8 L196.3,173.8 L197.1,164.7 L198.0,151.4 L198.8,154.6 L199.7,152.8 L200.5,182.4 L201.3,189.2 L202.2,187.7 L203.0,211.1 L203.9,223.5 L204.7,204.6 L205.6,197.2 L206.4,217.6 L207.2,191.0 L208.1,181.2 L208.9,166.4 L209.8,159.3 L210.6,172.4 L211.5,167.0 L212.3,162.9 L213.1,183.0 L214.0,184.8 L214.8,186.3 L215.7,199.0 L216.5,190.1 L217.4,187.7 L218.2,188.0 L219.0,169.4 L219.9,152.2 L220.7,179.8 L221.6,185.4 L222.4,178.6 L223.3,195.4 L224.1,140.7 L224.9,115.3 L225.8,125.0 L226.6,129.8 L227.5,146.6 L228.3,143.1 L229.2,160.5 L230.0,169.1 L230.8,184.2 L231.7,189.8 L232.5,196.3 L233.4,223.2 L234.2,222.4 L235.1,223.8 L235.9,224.7 L236.7,218.5 L237.6,212.9 L238.4,207.0 L239.3,175.6 L240.1,185.4 L241.0,190.1 L241.8,188.6 L242.6,190.4 L243.5,206.7 L244.3,217.3 L245.2,223.0 L246.0,224.4 L246.9,219.7 L247.7,229.2 L248.5,225.6 L249.4,244.8 L250.2,229.5 L251.1,230.9 L251.9,241.0 L252.8,244.3 L253.6,232.7 L254.4,223.8 L255.3,199.9 L256.1,167.3 L257.0,145.4 L257.8,161.4 L258.7,200.5 L259.5,161.4 L260.3,178.3 L261.2,190.1 L262.0,170.0 L262.9,171.8 L263.7,181.8 L264.6,160.5 L265.4,198.7 L266.2,246.3 L267.1,253.1 L267.9,248.7 L268.8,248.1 L269.6,245.1 L270.4,245.7 L271.3,250.2 L272.1,251.9 L273.0,244.5 L273.8,243.1 L274.7,244.8 L275.5,220.6 L276.3,222.4 L277.2,256.4 L278.0,261.1 L278.9,251.7 L279.7,259.9 L280.6,248.4 L281.4,242.8 L282.2,252.2 L283.1,254.6 L283.9,257.9 L284.8,256.4 L285.6,212.0 L286.5,233.3 L287.3,218.2 L288.1,192.5 L289.0,178.3 L289.8,190.1 L290.7,149.0 L291.5,158.2 L292.4,219.7 L293.2,201.4 L294.0,222.7 L294.9,220.6 L295.7,194.8 L296.6,157.3 L297.4,155.8 L298.3,176.5 L299.1,122.7 L299.9,124.7 L300.8,149.0 L301.6,149.3 L302.5,145.1 L303.3,146.6 L304.2,159.6 L305.0,123.8 L305.8,95.7 L306.7,132.7 L307.5,136.9 L308.4,140.1 L309.2,149.3 L310.1,162.6 L310.9,172.9 L311.7,209.6 L312.6,219.4 L313.4,210.2 L314.3,185.1 L315.1,213.5 L316.0,189.5 L316.8,169.7 L317.6,199.0 L318.5,195.1 L319.3,166.7 L320.2,140.7 L321.0,138.9 L321.9,146.0 L322.7,133.9 L323.5,141.9 L324.4,146.9 L325.2,124.7 L326.1,104.3 L326.9,139.2 L327.8,151.6 L328.6,148.4 L329.4,162.9 L330.3,162.9 L331.1,163.2 L332.0,152.2 L332.8,128.9 L333.7,130.9 L334.5,122.7 L335.3,105.8 L336.2,114.7 L337.0,120.9 L337.9,142.8 L338.7,161.4 L339.6,132.1 L340.4,162.6 L341.2,195.1 L342.1,196.9 L342.9,198.7 L343.8,199.9 L344.6,213.8 L345.4,191.9 L346.3,209.3 L347.1,217.0 L348.0,222.4 L348.8,221.2 L349.7,221.5 L350.5,229.5 L351.3,223.2 L352.2,222.4 L353.0,221.2 L353.9,220.3 L354.7,212.3 L355.6,211.1 L356.4,204.3 L357.2,196.9 L358.1,200.2 L358.9,198.7 L359.8,221.2 L360.6,214.1 L361.5,216.1 L362.3,204.3 L363.1,187.2 L364.0,185.7 L364.8,207.9 L365.7,194.5 L366.5,193.4 L367.4,165.8 L368.2,152.2 L369.0,146.0 L369.9,118.8 L370.7,120.9 L371.6,145.4 L372.4,145.1 L373.3,181.2 L374.1,195.4 L374.9,201.6 L375.8,201.4 L376.6,149.6 L377.5,124.1 L378.3,143.1 L379.2,137.1 L380.0,149.3 L380.8,159.3 L381.7,138.6 L382.5,148.4 L383.4,153.7 L384.2,165.6 L385.1,190.1 L385.9,154.3 L386.7,144.8 L387.6,130.9 L388.4,146.9 L389.3,139.2 L390.1,144.2 L391.0,175.9 L391.8,187.2 L392.6,204.3 L393.5,200.8 L394.3,193.7 L395.2,197.5 L396.0,163.2 L396.9,178.0 L397.7,146.3 L398.5,146.6 L399.4,126.5 L400.2,166.1 L401.1,175.0 L401.9,130.3 L402.8,125.3 L403.6,122.7 L404.4,120.3 L405.3,156.1 L406.1,146.6 L407.0,128.6 L407.8,141.9 L408.7,177.4 L409.5,180.9 L410.3,192.8 L411.2,195.7 L412.0,210.8 L412.9,229.2 L413.7,227.7 L414.6,227.1 L415.4,230.9 L416.2,217.9 L417.1,214.1 L417.9,210.8 L418.8,222.7 L419.6,215.6 L420.4,197.2 L421.3,175.3 L422.1,167.0 L423.0,162.9 L423.8,170.6 L424.7,182.1 L425.5,239.2 L426.3,222.1 L427.2,214.7 L428.0,220.3 L428.9,222.7 L429.7,213.8 L430.6,217.0 L431.4,204.6 L432.2,156.1 L433.1,167.9 L433.9,186.3 L434.8,187.4 L435.6,187.4 L436.5,175.0 L437.3,204.3 L438.1,193.7 L439.0,173.2 L439.8,183.3 L440.7,186.0 L441.5,178.0 L442.4,170.6 L443.2,173.5 L444.0,194.5 L444.9,164.7 L445.7,184.8 L446.6,157.0 L447.4,160.8 L448.3,174.4 L449.1,196.9 L449.9,204.6 L450.8,215.3 L451.6,207.3 L452.5,217.3 L453.3,188.3 L454.2,190.4 L455.0,175.9 L455.8,175.0 L456.7,147.5 L457.5,122.4 L458.4,135.1 L459.2,120.3 L460.1,161.4 L460.9,146.9 L461.7,155.2 L462.6,151.9 L463.4,162.0 L464.3,157.3 L465.1,164.7 L466.0,146.9 L466.8,162.6 L467.6,153.4 L468.5,155.8 L469.3,151.6 L470.2,181.2 L471.0,174.7 L471.9,151.1 L472.7,158.5 L473.5,159.9 L474.4,162.0 L475.2,167.3 L476.1,168.2 L476.9,200.5 L477.8,206.4 L478.6,183.9 L479.4,194.3 L480.3,180.6 L481.1,177.1 L482.0,144.5 L482.8,141.0 L483.7,126.2 L484.5,99.9 L485.3,75.9 L486.2,93.4 L487.0,147.8 L487.9,167.9 L488.7,191.3 L489.6,203.4 L490.4,216.4 L491.2,213.8 L492.1,206.4 L492.9,212.6 L493.8,215.3 L494.6,243.1 L495.4,247.8 L496.3,230.9 L497.1,218.5 L498.0,214.4 L498.8,211.1 L499.7,213.5 L500.5,215.6 L501.3,213.8 L502.2,211.1 L503.0,206.4 L503.9,203.1 L504.7,194.3 L505.6,211.1 L506.4,211.1 L507.2,213.8 L508.1,214.4 L508.9,214.4 L509.8,215.6 L510.6,213.8 L511.5,223.2 L512.3,246.0 L513.1,254.3 L514.0,258.2 L514.8,266.7 L515.7,263.8 L516.5,259.0 L517.4,259.0 L518.2,238.9 L519.0,210.8 L519.9,209.3 L520.7,199.3 L521.6,214.4 L522.4,207.6 L523.3,219.1 L524.1,184.8 L524.9,162.6 L525.8,152.5 L526.6,180.3 L527.5,194.3 L528.3,215.6 L529.2,223.5 L530.0,220.3 L530.8,217.3 L531.7,221.5 L532.5,221.5 L533.4,211.7 L534.2,255.5 L535.1,242.2 L535.9,243.4 L536.7,245.7 L537.6,259.3 L538.4,238.3 L539.3,200.8 L540.1,214.7 L541.0,228.6 L541.8,212.3 L542.6,207.6 L543.5,199.9 L544.3,201.1 L545.2,205.2 L546.0,210.5 L546.9,194.0 L547.7,187.4 L548.5,195.1 L549.4,200.5 L550.2,214.1 L551.1,198.1 L551.9,195.4 L552.8,194.0 L553.6,203.1 L554.4,196.6 L555.3,200.8 L556.1,191.9 L557.0,161.1 L557.8,151.4 L558.7,155.2 L559.5,138.6 L560.3,161.7 L561.2,162.3 L562.0,153.1 L562.9,158.7 L563.7,170.0 L564.6,180.0 L565.4,188.9 L566.2,199.6 L567.1,217.3 L567.9,202.5 L568.8,193.7 L569.6,207.6 L570.4,209.0 L571.3,207.9 L572.1,209.3 L573.0,211.7 L573.8,215.3 L574.7,216.7 L575.5,215.6 L576.3,214.1 L577.2,220.3 L578.0,222.4 L578.9,220.3 L579.7,220.3 L580.6,216.1 L581.4,211.4 L582.2,204.3 L583.1,204.6 L583.9,200.5 L584.8,190.4 L585.6,182.4 L586.5,199.0 L587.3,192.2 L588.1,194.5 L589.0,206.7 L589.8,198.7 L590.7,197.5 L591.5,196.9 L592.4,179.8 L593.2,166.7 L594.0,146.0 L594.9,121.2 L595.7,113.2 L596.6,112.0 L597.4,98.4 L598.3,96.3 L599.1,104.6 L599.9,100.2 L600.8,96.9 L601.6,78.0 L602.5,67.6 L603.3,68.5 L604.2,80.0 L605.0,100.8 L605.8,99.0 L606.7,109.9 L607.5,135.7 L608.4,139.8 L609.2,102.5 L610.1,122.9 L610.9,125.3 L611.7,133.3 L612.6,133.3 L613.4,142.5 L614.3,157.0 L615.1,159.0 L616.0,165.8 L616.8,177.7 L617.6,170.9 L618.5,168.5 L619.3,168.8 L620.2,128.3 L621.0,122.9 L621.9,123.5 L622.7,114.7 L623.5,110.8 L624.4,125.3 L625.2,122.1 L626.1,140.1 L626.9,153.4 L627.8,172.9 L628.6,114.1 L629.4,146.3 L630.3,165.3 L631.1,139.8 L632.0,116.4 L632.8,149.0 L633.7,154.0 L634.5,171.2 L635.3,152.5 L636.2,185.4 L637.0,172.7 L637.9,166.4 L638.7,173.2 L639.6,164.4 L640.4,158.2 L641.2,144.8 L642.1,142.2 L642.9,148.1 L643.8,156.4 L644.6,163.2 L645.4,160.8 L646.3,170.6 L647.1,181.8 L648.0,163.8 L648.8,154.9 L649.7,163.2 L650.5,170.6 L651.3,180.0 L652.2,188.6 L653.0,189.5 L653.9,193.1 L654.7,205.8 L655.6,225.0 L656.4,253.4 L657.2,246.3 L658.1,226.8 L658.9,242.2 L659.8,249.6 L660.6,214.4 L661.5,202.8 L662.3,203.7 L663.1,172.7 L664.0,180.6 L664.8,166.7 L665.7,154.6 L666.5,123.8 L667.4,138.9 L668.2,132.7 L669.0,107.9 L669.9,112.3 L670.7,119.4 L671.6,123.8 L672.4,145.4 L673.3,149.0 L674.1,156.1 L674.9,201.9 L675.8,217.0 L676.6,218.5 L677.5,232.1 L678.3,238.3 L679.2,220.3 L680.0,208.7" stroke="#8c564b" stroke-width="2" fill="none" opacity="0.8"/>
<!-- Forecast Difference -->
<path d="M80.0,420.0 L80.8,420.0 L81.7,420.0 L82.5,420.0 L83.4,420.0 L84.2,420.0 L85.1,420.0 L85.9,420.0 L86.7,420.0 L87.6,420.0 L88.4,420.0 L89.3,420.0 L90.1,420.0 L91.0,420.0 L91.8,420.0 L92.6,420.0 L93.5,420.0 L94.3,420.0 L95.2,420.0 L96.0,420.0 L96.9,420.0 L97.7,420.0 L98.5,420.0 L99.4,420.0 L100.2,420.0 L101.1,420.0 L101.9,420.0 L102.8,420.0 L103.6,420.0 L104.4,420.0 L105.3,420.0 L106.1,420.0 L107.0,420.0 L107.8,420.0 L108.7,420.0 L109.5,420.0 L110.3,420.0 L111.2,420.0 L112.0,420.0 L112.9,420.0 L113.7,420.0 L114.6,420.0 L115.4,420.0 L116.2,420.0 L117.1,420.0 L117.9,420.0 L118.8,420.0 L119.6,420.0 L120.4,420.0 L121.3,420.0 L122.1,420.0 L123.0,420.0 L123.8,420.0 L124.7,420.0 L125.5,420.0 L126.3,420.0 L127.2,420.0 L128.0,420.0 L128.9,420.0 L129.7,420.0 L130.6,420.0 L131.4,420.0 L132.2,420.0 L133.1,420.0 L133.9,420.0 L134.8,420.0 L135.6,420.0 L136.5,420.0 L137.3,420.0 L138.1,420.0 L139.0,420.0 L139.8,420.0 L140.7,420.0 L141.5,420.0 L142.4,420.0 L143.2,420.0 L144.0,420.0 L144.9,420.0 L145.7,420.0 L146.6,420.0 L147.4,420.0 L148.3,420.0 L149.1,420.0 L149.9,420.0 L150.8,420.0 L151.6,420.0 L152.5,420.0 L153.3,420.0 L154.2,420.0 L155.0,420.0 L155.8,420.0 L156.7,420.0 L157.5,420.0 L158.4,420.0 L159.2,420.0 L160.1,420.0 L160.9,420.0 L161.7,420.0 L162.6,420.0 L163.4,420.0 L164.3,420.0 L165.1,420.0 L166.0,420.0 L166.8,420.0 L167.6,420.0 L168.5,420.0 L169.3,420.0 L170.2,420.0 L171.0,420.0 L171.9,420.0 L172.7,420.0 L173.5,420.0 L174.4,420.0 L175.2,420.0 L176.1,420.0 L176.9,420.0 L177.8,420.0 L178.6,420.0 L179.4,420.0 L180.3,420.0 L181.1,420.0 L182.0,420.0 L182.8,420.0 L183.7,420.0 L184.5,420.0 L185.3,420.0 L186.2,420.0 L187.0,420.0 L187.9,420.0 L188.7,420.0 L189.6,420.0 L190.4,420.0 L191.2,420.0 L192.1,420.0 L192.9,420.0 L193.8,420.0 L194.6,420.0 L195.4,420.0 L196.3,420.0 L197.1,420.0 L198.0,420.0 L198.8,420.0 L199.7,420.0 L200.5,420.0 L201.3,420.0 L202.2,420.0 L203.0,420.0 L203.9,420.0 L204.7,420.0 L205.6,420.0 L206.4,420.0 L207.2,420.0 L208.1,420.0 L208.9,420.0 L209.8,420.0 L210.6,420.0 L211.5,420.0 L212.3,420.0 L213.1,420.0 L214.0,420.0 L214.8,420.0 L215.7,420.0 L216.5,420.0 L217.4,420.0 L218.2,420.0 L219.0,420.0 L219.9,420.0 L220.7,420.0 L221.6,420.0 L222.4,420.0 L223.3,420.0 L224.1,420.0 L224.9,420.0 L225.8,420.0 L226.6,420.0 L227.5,420.0 L228.3,420.0 L229.2,420.0 L230.0,420.0 L230.8,420.0 L231.7,420.0 L232.5,420.0 L233.4,420.0 L234.2,420.0 L235.1,420.0 L235.9,420.0 L236.7,420.0 L237.6,420.0 L238.4,420.0 L239.3,420.0 L240.1,420.0 L241.0,420.0 L241.8,420.0 L242.6,420.0 L243.5,420.0 L244.3,420.0 L245.2,420.0 L246.0,420.0 L246.9,420.0 L247.7,420.0 L248.5,420.0 L249.4,420.0 L250.2,420.0 L251.1,420.0 L251.9,420.0 L252.8,420.0 L253.6,420.0 L254.4,420.0 L255.3,420.0 L256.1,420.0 L257.0,420.0 L257.8,420.0 L258.7,420.0 L259.5,420.0 L260.3,420.0 L261.2,420.0 L262.0,420.0 L262.9,420.0 L263.7,420.0 L264.6,420.0 L265.4,420.0 L266.2,420.0 L267.1,420.0 L267.9,420.0 L268.8,420.0 L269.6,420.0 L270.4,420.0 L271.3,420.0 L272.1,420.0 L273.0,420.0 L273.8,420.0 L274.7,420.0 L275.5,420.0 L276.3,420.0 L277.2,420.0 L278.0,420.0 L278.9,420.0 L279.7,420.0 L280.6,420.0 L281.4,420.0 L282.2,420.0 L283.1,420.0 L283.9,420.0 L284.8,420.0 L285.6,420.0 L286.5,420.0 L287.3,420.0 L288.1,420.0 L289.0,420.0 L289.8,420.0 L290.7,420.0 L291.5,420.0 L292.4,420.0 L293.2,420.0 L294.0,420.0 L294.9,420.0 L295.7,420.0 L296.6,420.0 L297.4,420.0 L298.3,420.0 L299.1,420.0 L299.9,420.0 L300.8,420.0 L301.6,420.0 L302.5,420.0 L303.3,420.0 L304.2,420.0 L305.0,420.0 L305.8,420.0 L306.7,420.0 L307.5,420.0 L308.4,420.0 L309.2,420.0 L310.1,420.0 L310.9,420.0 L311.7,420.0 L312.6,420.0 L313.4,420.0 L314.3,420.0 L315.1,420.0 L316.0,420.0 L316.8,420.0 L317.6,420.0 L318.5,420.0 L319.3,420.0 L320.2,420.0 L321.0,420.0 L321.9,420.0 L322.7,420.0 L323.5,420.0 L324.4,420.0 L325.2,420.0 L326.1,420.0 L326.9,420.0 L327.8,420.0 L328.6,420.0 L329.4,420.0 L330.3,420.0 L331.1,420.0 L332.0,420.0 L332.8,420.0 L333.7,420.0 L334.5,420.0 L335.3,420.0 L336.2,420.0 L337.0,420.0 L337.9,420.0 L338.7,420.0 L339.6,420.0 L340.4,420.0 L341.2,420.0 L342.1,420.0 L342.9,420.0 L343.8,420.0 L344.6,420.0 L345.4,420.0 L346.3,420.0 L347.1,420.0 L348.0,420.0 L348.8,420.0 L349.7,420.0 L350.5,420.0 L351.3,420.0 L352.2,420.0 L353.0,420.0 L353.9,420.0 L354.7,420.0 L355.6,420.0 L356.4,420.0 L357.2,420.0 L358.1,420.0 L358.9,420.0 L359.8,420.0 L360.6,420.0 L361.5,420.0 L362.3,420.0 L363.1,420.0 L364.0,420.0 L364.8,420.0 L365.7,420.0 L366.5,420.0 L367.4,420.0 L368.2,420.0 L369.0,420.0 L369.9,420.0 L370.7,420.0 L371.6,420.0 L372.4,420.0 L373.3,420.0 L374.1,420.0 L374.9,420.0 L375.8,420.0 L376.6,420.0 L377.5,420.0 L378.3,420.0 L379.2,420.0 L380.0,420.0 L380.8,420.0 L381.7,420.0 L382.5,420.0 L383.4,420.0 L384.2,420.0 L385.1,420.0 L385.9,420.0 L386.7,420.0 L387.6,420.0 L388.4,420.0 L389.3,420.0 L390.1,420.0 L391.0,420.0 L391.8,420.0 L392.6,420.0 L393.5,420.0 L394.3,420.0 L395.2,420.0 L396.0,420.0 L396.9,420.0 L397.7,420.0 L398.5,420.0 L399.4,420.0 L400.2,420.0 L401.1,420.0 L401.9,420.0 L402.8,420.0 L403.6,420.0 L404.4,420.0 L405.3,420.0 L406.1,420.0 L407.0,420.0 L407.8,420.0 L408.7,420.0 L409.5,420.0 L410.3,420.0 L411.2,420.0 L412.0,420.0 L412.9,420.0 L413.7,420.0 L414.6,420.0 L415.4,420.0 L416.2,420.0 L417.1,420.0 L417.9,420.0 L418.8,420.0 L419.6,420.0 L420.4,420.0 L421.3,420.0 L422.1,420.0 L423.0,420.0 L423.8,420.0 L424.7,420.0 L425.5,420.0 L426.3,420.0 L427.2,420.0 L428.0,420.0 L428.9,420.0 L429.7,420.0 L430.6,420.0 L431.4,420.0 L432.2,420.0 L433.1,420.0 L433.9,420.0 L434.8,420.0 L435.6,420.0 L436.5,420.0 L437.3,420.0 L438.1,420.0 L439.0,420.0 L439.8,420.0 L440.7,420.0 L441.5,420.0 L442.4,420.0 L443.2,420.0 L444.0,420.0 L444.9,420.0 L445.7,420.0 L446.6,420.0 L447.4,420.0 L448.3,420.0 L449.1,420.0 L449.9,420.0 L450.8,420.0 L451.6,420.0 L452.5,420.0 L453.3,420.0 L454.2,420.0 L455.0,420.0 L455.8,420.0 L456.7,420.0 L457.5,420.0 L458.4,420.0 L459.2,420.0 L460.1,420.0 L460.9,420.0 L461.7,420.0 L462.6,420.0 L463.4,420.0 L464.3,420.0 L465.1,420.0 L466.0,420.0 L466.8,420.0 L467.6,420.0 L468.5,420.0 L469.3,420.0 L470.2,420.0 L471.0,420.0 L471.9,420.0 L472.7,420.0 L473.5,420.0 L474.4,420.0 L475.2,420.0 L476.1,420.0 L476.9,420.0 L477.8,420.0 L478.6,420.0 L479.4,420.0 L480.3,420.0 L481.1,420.0 L482.0,420.0 L482.8,420.0 L483.7,420.0 L484.5,420.0 L485.3,420.0 L486.2,420.0 L487.0,420.0 L487.9,420.0 L488.7,420.0 L489.6,420.0 L490.4,420.0 L491.2,420.0 L492.1,420.0 L492.9,420.0 L493.8,420.0 L494.6,420.0 L495.4,420.0 L496.3,420.0 L497.1,420.0 L498.0,420.0 L498.8,420.0 L499.7,420.0 L500.5,420.0 L501.3,420.0 L502.2,420.0 L503.0,420.0 L503.9,420.0 L504.7,420.0 L505.6,420.0 L506.4,420.0 L507.2,420.0 L508.1,420.0 L508.9,420.0 L509.8,420.0 L510.6,420.0 L511.5,420.0 L512.3,420.0 L513.1,420.0 L514.0,420.0 L514.8,420.0 L515.7,420.0 L516.5,420.0 L517.4,420.0 L518.2,420.0 L519.0,420.0 L519.9,420.0 L520.7,420.0 L521.6,420.0 L522.4,420.0 L523.3,420.0 L524.1,420.0 L524.9,420.0 L525.8,420.0 L526.6,420.0 L527.5,420.0 L528.3,420.0 L529.2,420.0 L530.0,420.0 L530.8,420.0 L531.7,420.0 L532.5,420.0 L533.4,420.0 L534.2,420.0 L535.1,420.0 L535.9,420.0 L536.7,420.0 L537.6,420.0 L538.4,420.0 L539.3,420.0 L540.1,420.0 L541.0,420.0 L541.8,420.0 L542.6,420.0 L543.5,420.0 L544.3,420.0 L545.2,420.0 L546.0,420.0 L546.9,420.0 L547.7,420.0 L548.5,420.0 L549.4,420.0 L550.2,420.0 L551.1,420.0 L551.9,420.0 L552.8,420.0 L553.6,420.0 L554.4,420.0 L555.3,420.0 L556.1,420.0 L557.0,420.0 L557.8,420.0 L558.7,420.0 L559.5,420.0 L560.3,420.0 L561.2,420.0 L562.0,420.0 L562.9,420.0 L563.7,420.0 L564.6,420.0 L565.4,420.0 L566.2,420.0 L567.1,420.0 L567.9,420.0 L568.8,420.0 L569.6,420.0 L570.4,420.0 L571.3,420.0 L572.1,420.0 L573.0,420.0 L573.8,420.0 L574.7,420.0 L575.5,420.0 L576.3,420.0 L577.2,420.0 L578.0,420.0 L578.9,420.0 L579.7,420.0 L580.6,420.0 L581.4,420.0 L582.2,420.0 L583.1,420.0 L583.9,420.0 L584.8,420.0 L585.6,420.0 L586.5,420.0 L587.3,420.0 L588.1,420.0 L589.0,420.0 L589.8,420.0 L590.7,420.0 L591.5,420.0 L592.4,420.0 L593.2,420.0 L594.0,420.0 L594.9,420.0 L595.7,420.0 L596.6,420.0 L597.4,420.0 L598.3,420.0 L599.1,420.0 L599.9,420.0 L600.8,420.0 L601.6,420.0 L602.5,420.0 L603.3,420.0 L604.2,420.0 L605.0,420.0 L605.8,420.0 L606.7,420.0 L607.5,420.0 L608.4,420.0 L609.2,420.0 L610.1,420.0 L610.9,420.0 L611.7,420.0 L612.6,420.0 L613.4,420.0 L614.3,420.0 L615.1,420.0 L616.0,420.0 L616.8,420.0 L617.6,420.0 L618.5,420.0 L619.3,420.0 L620.2,420.0 L621.0,420.0 L621.9,420.0 L622.7,420.0 L623.5,420.0 L624.4,420.0 L625.2,420.0 L626.1,420.0 L626.9,420.0 L627.8,420.0 L628.6,420.0 L629.4,420.0 L630.3,420.0 L631.1,420.0 L632.0,420.0 L632.8,420.0 L633.7,420.0 L634.5,420.0 L635.3,420.0 L636.2,420.0 L637.0,420.0 L637.9,420.0 L638.7,420.0 L639.6,420.0 L640.4,420.0 L641.2,420.0 L642.1,420.0 L642.9,420.0 L643.8,420.0 L644.6,420.0 L645.4,420.0 L646.3,420.0 L647.1,420.0 L648.0,420.0 L648.8,420.0 L649.7,420.0 L650.5,420.0 L651.3,420.0 L652.2,420.0 L653.0,420.0 L653.9,420.0 L654.7,420.0 L655.6,420.0 L656.4,420.0 L657.2,420.0 L658.1,420.0 L658.9,420.0 L659.8,420.0 L660.6,420.0 L661.5,420.0 L662.3,420.0 L663.1,420.0 L664.0,420.0 L664.8,420.0 L665.7,420.0 L666.5,420.0 L667.4,420.0 L668.2,420.0 L669.0,420.0 L669.9,420.0 L670.7,420.0 L671.6,420.0 L672.4,420.0 L673.3,420.0 L674.1,420.0 L674.9,420.0 L675.8,420.0 L676.6,420.0 L677.5,420.0 L678.3,420.0 L679.2,420.0 L680.0,420.0" stroke="#e377c2" stroke-width="2" fill="none" opacity="0.8"/>

<!-- Legend -->
<line x1="690" y1="70" x2="705" y2="70" stroke="#1f77b4" stroke-width="3"/>
<text x="710" y="74" class="legend">Wind Generation</text>
<line x1="690" y1="88" x2="705" y2="88" stroke="#ff7f0e" stroke-width="3"/>
<text x="710" y="92" class="legend">Hydro Generation</text>
<line x1="690" y1="106" x2="705" y2="106" stroke="#2ca02c" stroke-width="3"/>
<text x="710" y="110" class="legend">Thermal Generation</text>
<line x1="690" y1="124" x2="705" y2="124" stroke="#d62728" stroke-width="3"/>
<text x="710" y="128" class="legend">Solar Generation</text>
<line x1="690" y1="142" x2="705" y2="142" stroke="#9467bd" stroke-width="3"/>
<text x="710" y="146" class="legend">Forecast</text>
<line x1="690" y1="160" x2="705" y2="160" stroke="#8c564b" stroke-width="3"/>
<text x="710" y="164" class="legend">Total Generation</text>
<line x1="690" y1="178" x2="705" y2="178" stroke="#e377c2" stroke-width="3"/>
<text x="710" y="182" class="legend">Forecast Difference</text>

<!-- Date range -->
<text x="80" y="495" class="legend">Range: 10/26 - 11/25/2025 (713 records)</text>
</svg>