<?xml version="1.0" encoding="UTF-8"?>
<svg width="800" height="500" xmlns="http://www.w3.org/2000/svg">
<style>
.axis-line { stroke: #333; stroke-width: 1; }
.grid-line { stroke: #ddd; stroke-width: 0.5; }
.title { font: 16px Arial; text-anchor: middle; fill: #333; }
.axis-label { font: 12px Arial; text-anchor: middle; fill: #666; }
.legend { font: 10px Arial; fill: #333; }
</style>

<!-- Title -->
<text x="400.0" y="25" class="title">Northwestern Energy Generation Data - Past 30 Days</text>

<!-- Plot area background -->
<rect x="80" y="50" width="600" height="370" fill="white" stroke="#ddd"/>

<!-- Y-axis -->
<line x1="80" y1="50" x2="80" y2="420" class="axis-line"/>
<text x="30" y="235.0" class="axis-label" transform="rotate(-90, 30, 235.0)">Generation (MW)</text>

<!-- X-axis -->
<line x1="80" y1="420" x2="680" y2="420" class="axis-line"/>
<text x="380.0" y="480" class="axis-label">Time</text>
<line x1="80" y1="420.0" x2="680" y2="420.0" class="grid-line"/>
<text x="70" y="425.0" class="legend" text-anchor="end">0</text>
<line x1="80" y1="327.5" x2="680" y2="327.5" class="grid-line"/>
<text x="70" y="332.5" class="legend" text-anchor="end">356</text>
<line x1="80" y1="235.0" x2="680" y2="235.0" class="grid-line"/>
<text x="70" y="240.0" class="legend" text-anchor="end">712</text>
<line x1="80" y1="142.5" x2="680" y2="142.5" class="grid-line"/>
<text x="70" y="147.5" class="legend" text-anchor="end">1068</text>
<line x1="80" y1="50.0" x2="680" y2="50.0" class="grid-line"/>
<text x="70" y="55.0" class="legend" text-anchor="end">1424</text>
<!-- Wind Generation -->
<path d="M80.0,362.6 L80.8,360.0 L81.7,356.1 L82.5,357.1 L83.4,364.1 L84.2,380.2 L85.1,380.2 L85.9,378.7 L86.7,367.0 L87.6,362.6 L88.4,377.9 L89.3,351.4 L90.1,337.4 L91.0,319.4 L91.8,365.7 L92.6,364.4 L93.5,352.4 L94.3,382.3 L95.2,385.2 L96.0,386.0 L96.9,380.0 L97.7,376.6 L98.5,374.5 L99.4,374.0 L100.2,329.0 L101.1,342.6 L101.9,350.9 L102.8,315.8 L103.6,310.3 L104.4,324.1 L105.3,327.2 L106.1,323.8 L107.0,316.1 L107.8,322.8 L108.7,344.1 L109.5,355.8 L110.3,358.7 L111.2,364.4 L112.0,372.4 L112.9,353.5 L113.7,344.1 L114.6,352.4 L115.4,320.7 L116.2,319.7 L117.1,324.1 L117.9,344.9 L118.8,348.0 L119.6,353.2 L120.4,354.8 L121.3,354.0 L122.1,341.3 L123.0,338.7 L123.8,351.4 L124.7,348.0 L125.5,331.9 L126.3,336.8 L127.2,344.6 L128.0,360.5 L128.9,364.9 L129.7,371.1 L130.6,369.1 L131.4,365.2 L132.2,360.2 L133.1,362.6 L133.9,357.4 L134.8,354.8 L135.6,336.3 L136.5,326.4 L137.3,321.0 L138.1,321.3 L139.0,322.0 L139.8,318.4 L140.7,318.7 L141.5,315.8 L142.4,316.3 L143.2,319.7 L144.0,318.9 L144.9,318.9 L145.7,322.3 L146.6,325.7 L147.4,321.3 L148.3,320.0 L149.1,322.0 L149.9,320.5 L150.8,317.4 L151.6,323.8 L152.5,320.2 L153.3,321.0 L154.2,318.4 L155.0,321.0 L155.8,326.2 L156.7,327.5 L157.5,335.3 L158.4,317.1 L159.2,315.5 L160.1,317.6 L160.9,314.5 L161.7,315.8 L162.6,313.5 L163.4,314.0 L164.3,320.5 L165.1,331.1 L166.0,327.7 L166.8,327.5 L167.6,329.0 L168.5,331.9 L169.3,330.9 L170.2,336.6 L171.0,334.2 L171.9,344.4 L172.7,342.0 L173.5,337.6 L174.4,351.9 L175.2,360.0 L176.1,346.2 L176.9,344.9 L177.8,346.2 L178.6,346.5 L179.4,335.0 L180.3,333.7 L181.1,331.9 L182.0,333.2 L182.8,331.6 L183.7,330.3 L184.5,327.5 L185.3,339.7 L186.2,338.1 L187.0,336.3 L187.9,334.0 L188.7,341.5 L189.6,337.1 L190.4,331.1 L191.2,332.2 L192.1,332.4 L192.9,336.1 L193.8,339.7 L194.6,334.8 L195.4,336.3 L196.3,343.3 L197.1,338.1 L198.0,344.9 L198.8,342.8 L199.7,340.2 L200.5,324.4 L201.3,327.0 L202.2,328.8 L203.0,324.6 L203.9,323.6 L204.7,324.6 L205.6,320.5 L206.4,317.4 L207.2,312.4 L208.1,309.8 L208.9,309.0 L209.8,317.6 L210.6,324.4 L211.5,363.3 L212.3,371.4 L213.1,374.8 L214.0,386.2 L214.8,399.0 L215.7,390.9 L216.5,402.8 L217.4,409.9 L218.2,411.2 L219.0,413.0 L219.9,415.3 L220.7,415.1 L221.6,409.3 L222.4,403.9 L223.3,400.5 L224.1,370.9 L224.9,337.6 L225.8,328.0 L226.6,328.3 L227.5,333.5 L228.3,332.7 L229.2,324.1 L230.0,325.7 L230.8,332.9 L231.7,328.3 L232.5,333.7 L233.4,330.1 L234.2,344.1 L235.1,336.1 L235.9,327.5 L236.7,330.9 L237.6,324.9 L238.4,317.4 L239.3,314.0 L240.1,311.6 L241.0,307.5 L241.8,331.1 L242.6,339.4 L243.5,327.7 L244.3,336.8 L245.2,322.0 L246.0,313.2 L246.9,314.0 L247.7,315.3 L248.5,317.9 L249.4,317.1 L250.2,345.7 L251.1,355.3 L251.9,358.2 L252.8,375.3 L253.6,402.8 L254.4,412.5 L255.3,415.8 L256.1,415.8 L257.0,416.9 L257.8,410.4 L258.7,409.1 L259.5,397.4 L260.3,382.6 L261.2,374.0 L262.0,374.5 L262.9,378.9 L263.7,378.7 L264.6,370.1 L265.4,375.8 L266.2,373.2 L267.1,374.8 L267.9,340.7 L268.8,365.4 L269.6,375.0 L270.4,374.8 L271.3,374.8 L272.1,362.0 L273.0,334.5 L273.8,323.1 L274.7,344.4 L275.5,339.7 L276.3,336.6 L277.2,337.6 L278.0,348.8 L278.9,363.1 L279.7,347.0 L280.6,311.1 L281.4,314.0 L282.2,334.8 L283.1,327.7 L283.9,325.9 L284.8,352.2 L285.6,356.6 L286.5,359.5 L287.3,361.8 L288.1,370.9 L289.0,357.6 L289.8,354.0 L290.7,330.6 L291.5,319.7 L292.4,321.8 L293.2,336.8 L294.0,349.1 L294.9,353.2 L295.7,363.1 L296.6,377.1 L297.4,373.0 L298.3,374.8 L299.1,347.2 L299.9,347.2 L300.8,319.2 L301.6,312.9 L302.5,310.9 L303.3,315.3 L304.2,329.3 L305.0,340.0 L305.8,333.2 L306.7,345.4 L307.5,342.0 L308.4,360.0 L309.2,360.0 L310.1,338.9 L310.9,311.1 L311.7,311.4 L312.6,315.8 L313.4,310.1 L314.3,309.6 L315.1,308.8 L316.0,308.8 L316.8,313.5 L317.6,321.0 L318.5,325.1 L319.3,325.9 L320.2,334.0 L321.0,332.7 L321.9,335.0 L322.7,325.4 L323.5,335.5 L324.4,349.3 L325.2,349.3 L326.1,319.7 L326.9,323.6 L327.8,327.7 L328.6,321.0 L329.4,324.1 L330.3,314.0 L331.1,335.8 L332.0,340.2 L332.8,344.9 L333.7,328.8 L334.5,318.7 L335.3,356.6 L336.2,330.6 L337.0,356.9 L337.9,323.8 L338.7,320.0 L339.6,317.4 L340.4,312.4 L341.2,310.3 L342.1,313.2 L342.9,320.5 L343.8,313.5 L344.6,313.2 L345.4,311.4 L346.3,315.5 L347.1,326.7 L348.0,368.5 L348.8,362.3 L349.7,390.6 L350.5,388.6 L351.3,384.4 L352.2,380.5 L353.0,399.7 L353.9,411.2 L354.7,409.6 L355.6,403.1 L356.4,397.1 L357.2,394.3 L358.1,380.2 L358.9,379.2 L359.8,366.5 L360.6,341.5 L361.5,327.7 L362.3,317.6 L363.1,316.3 L364.0,310.1 L364.8,314.8 L365.7,312.7 L366.5,319.4 L367.4,317.4 L368.2,325.7 L369.0,317.4 L369.9,317.4 L370.7,310.9 L371.6,309.0 L372.4,309.0 L373.3,319.7 L374.1,321.5 L374.9,341.8 L375.8,347.8 L376.6,344.4 L377.5,342.8 L378.3,333.2 L379.2,327.7 L380.0,329.3 L380.8,322.0 L381.7,306.2 L382.5,307.7 L383.4,307.7 L384.2,320.0 L385.1,319.7 L385.9,307.2 L386.7,307.0 L387.6,306.4 L388.4,305.9 L389.3,306.4 L390.1,309.3 L391.0,305.7 L391.8,306.2 L392.6,306.2 L393.5,307.0 L394.3,308.5 L395.2,312.7 L396.0,315.0 L396.9,312.9 L397.7,314.2 L398.5,310.9 L399.4,313.7 L400.2,316.6 L401.1,312.2 L401.9,307.0 L402.8,306.7 L403.6,305.9 L404.4,306.4 L405.3,306.7 L406.1,308.5 L407.0,317.6 L407.8,324.1 L408.7,327.0 L409.5,320.2 L410.3,320.7 L411.2,314.8 L412.0,312.9 L412.9,313.2 L413.7,313.2 L414.6,316.1 L415.4,315.0 L416.2,314.8 L417.1,316.8 L417.9,316.3 L418.8,315.5 L419.6,318.9 L420.4,315.5 L421.3,319.7 L422.1,337.6 L423.0,330.9 L423.8,340.2 L424.7,334.8 L425.5,317.4 L426.3,336.3 L427.2,321.3 L428.0,310.9 L428.9,311.4 L429.7,309.8 L430.6,310.1 L431.4,314.5 L432.2,308.8 L433.1,324.6 L433.9,327.7 L434.8,327.2 L435.6,345.4 L436.5,325.7 L437.3,324.9 L438.1,326.7 L439.0,338.1 L439.8,357.4 L440.7,340.0 L441.5,335.8 L442.4,341.5 L443.2,349.6 L444.0,355.6 L444.9,345.9 L445.7,320.5 L446.6,312.4 L447.4,316.3 L448.3,317.9 L449.1,312.9 L449.9,319.7 L450.8,322.5 L451.6,323.8 L452.5,315.5 L453.3,312.9 L454.2,312.4 L455.0,314.5 L455.8,324.4 L456.7,314.0 L457.5,316.6 L458.4,320.2 L459.2,318.1 L460.1,348.3 L460.9,344.4 L461.7,343.9 L462.6,340.7 L463.4,342.8 L464.3,342.8 L465.1,343.6 L466.0,353.7 L466.8,347.2 L467.6,350.6 L468.5,348.3 L469.3,354.0 L470.2,360.2 L471.0,364.4 L471.9,370.4 L472.7,375.6 L473.5,377.9 L474.4,373.7 L475.2,343.9 L476.1,337.1 L476.9,330.1 L477.8,322.5 L478.6,310.3 L479.4,312.7 L480.3,342.3 L481.1,342.8 L482.0,344.1 L482.8,338.4 L483.7,338.9 L484.5,341.5 L485.3,336.1 L486.2,353.2 L487.0,342.3 L487.9,347.0 L488.7,316.3 L489.6,316.6 L490.4,311.1 L491.2,313.7 L492.1,310.9 L492.9,323.1 L493.8,320.0 L494.6,317.4 L495.4,321.5 L496.3,318.7 L497.1,325.4 L498.0,317.6 L498.8,320.7 L499.7,310.6 L500.5,343.9 L501.3,344.4 L502.2,344.1 L503.0,354.8 L503.9,356.6 L504.7,368.8 L505.6,352.7 L506.4,356.3 L507.2,364.4 L508.1,360.8 L508.9,337.4 L509.8,333.2 L510.6,331.6 L511.5,328.5 L512.3,329.0 L513.1,330.1 L514.0,332.2 L514.8,335.5 L515.7,329.8 L516.5,331.9 L517.4,330.3 L518.2,330.3 L519.0,329.3 L519.9,324.6 L520.7,326.4 L521.6,333.5 L522.4,335.5 L523.3,335.8 L524.1,337.9 L524.9,348.5 L525.8,333.2 L526.6,327.2 L527.5,326.7 L528.3,328.3 L529.2,326.4 L530.0,335.5 L530.8,335.8 L531.7,340.5 L532.5,337.1 L533.4,337.4 L534.2,370.9 L535.1,354.3 L535.9,364.4 L536.7,376.1 L537.6,379.7 L538.4,369.3 L539.3,371.9 L540.1,363.3 L541.0,360.5 L541.8,334.2 L542.6,331.6 L543.5,311.4 L544.3,309.8 L545.2,309.3 L546.0,312.9 L546.9,312.9 L547.7,312.2 L548.5,312.2 L549.4,311.9 L550.2,318.9 L551.1,338.7 L551.9,343.6 L552.8,349.8 L553.6,358.2 L554.4,355.0 L555.3,356.6 L556.1,346.7 L557.0,332.4 L557.8,333.7 L558.7,328.0 L559.5,334.0 L560.3,343.3 L561.2,341.5 L562.0,364.1 L562.9,365.7 L563.7,373.2 L564.6,374.8 L565.4,380.8 L566.2,370.6 L567.1,386.2 L567.9,388.0 L568.8,369.3 L569.6,374.3 L570.4,374.0 L571.3,370.9 L572.1,385.2 L573.0,391.2 L573.8,388.0 L574.7,395.3 L575.5,391.9 L576.3,378.9 L577.2,373.0 L578.0,358.9 L578.9,338.9 L579.7,323.3 L580.6,319.4 L581.4,323.6 L582.2,326.7 L583.1,318.1 L583.9,320.2 L584.8,323.3 L585.6,318.7 L586.5,318.1 L587.3,318.4 L588.1,320.2 L589.0,315.3 L589.8,327.5 L590.7,322.0 L591.5,320.2 L592.4,315.8 L593.2,317.1 L594.0,317.9 L594.9,322.3 L595.7,322.8 L596.6,322.3 L597.4,325.7 L598.3,338.7 L599.1,341.5 L599.9,325.4 L600.8,321.5 L601.6,314.2 L602.5,315.0 L603.3,336.1 L604.2,335.0 L605.0,323.3 L605.8,328.5 L606.7,318.9 L607.5,323.6 L608.4,343.6 L609.2,338.9 L610.1,324.6 L610.9,314.8 L611.7,318.9 L612.6,317.6 L613.4,312.4 L614.3,312.7 L615.1,310.9 L616.0,318.7 L616.8,320.2 L617.6,319.2 L618.5,317.4 L619.3,326.4 L620.2,343.9 L621.0,357.4 L621.9,370.1 L622.7,369.3 L623.5,387.8 L624.4,399.2 L625.2,384.1 L626.1,374.5 L626.9,377.6 L627.8,379.5 L628.6,378.9 L629.4,375.6 L630.3,397.7 L631.1,394.0 L632.0,407.5 L632.8,394.0 L633.7,383.6 L634.5,379.5 L635.3,376.3 L636.2,364.9 L637.0,355.3 L637.9,351.4 L638.7,353.0 L639.6,356.3 L640.4,359.5 L641.2,376.9 L642.1,390.6 L642.9,392.7 L643.8,406.0 L644.6,392.7 L645.4,381.8 L646.3,377.6 L647.1,374.5 L648.0,363.9 L648.8,358.4 L649.7,363.1 L650.5,383.4 L651.3,391.2 L652.2,392.7 L653.0,400.3 L653.9,407.5 L654.7,410.9 L655.6,413.2 L656.4,416.1 L657.2,418.7 L658.1,419.5 L658.9,419.2 L659.8,420.0 L660.6,420.0 L661.5,420.0 L662.3,420.0 L663.1,419.2 L664.0,419.5 L664.8,418.7 L665.7,415.3 L666.5,409.9 L667.4,402.6 L668.2,406.0 L669.0,408.3 L669.9,413.8 L670.7,410.6 L671.6,404.1 L672.4,400.0 L673.3,391.4 L674.1,388.3 L674.9,376.9 L675.8,362.6 L676.6,337.9 L677.5,326.7 L678.3,330.1 L679.2,329.8 L680.0,331.1" stroke="#1f77b4" stroke-width="2" fill="none" opacity="0.8"/>
<!-- Hydro Generation -->
<path d="M80.0,349.6 L80.8,349.3 L81.7,349.6 L82.5,349.3 L83.4,349.3 L84.2,349.6 L85.1,349.3 L85.9,349.1 L86.7,349.3 L87.6,349.1 L88.4,349.1 L89.3,349.3 L90.1,349.1 L91.0,349.3 L91.8,347.8 L92.6,347.8 L93.5,347.8 L94.3,347.8 L95.2,347.8 L96.0,347.8 L96.9,347.0 L97.7,346.7 L98.5,347.0 L99.4,346.7 L100.2,346.7 L101.1,345.9 L101.9,346.2 L102.8,345.7 L103.6,345.9 L104.4,345.7 L105.3,345.7 L106.1,345.7 L107.0,347.2 L107.8,347.5 L108.7,347.5 L109.5,347.5 L110.3,347.5 L111.2,347.5 L112.0,347.5 L112.9,347.5 L113.7,347.5 L114.6,347.8 L115.4,347.8 L116.2,348.8 L117.1,349.3 L117.9,349.6 L118.8,350.6 L119.6,349.8 L120.4,350.6 L121.3,350.6 L122.1,350.6 L123.0,351.7 L123.8,351.7 L124.7,351.4 L125.5,351.7 L126.3,351.7 L127.2,351.9 L128.0,351.4 L128.9,350.9 L129.7,351.4 L130.6,351.7 L131.4,350.9 L132.2,351.4 L133.1,351.4 L133.9,351.7 L134.8,351.7 L135.6,351.9 L136.5,352.2 L137.3,352.7 L138.1,354.3 L139.0,354.0 L139.8,354.0 L140.7,354.3 L141.5,357.1 L142.4,357.4 L143.2,357.9 L144.0,358.7 L144.9,360.0 L145.7,360.0 L146.6,360.2 L147.4,360.2 L148.3,360.8 L149.1,360.5 L149.9,361.3 L150.8,362.6 L151.6,364.1 L152.5,365.4 L153.3,366.2 L154.2,370.1 L155.0,372.4 L155.8,371.9 L156.7,372.4 L157.5,372.7 L158.4,372.7 L159.2,372.4 L160.1,372.7 L160.9,372.4 L161.7,372.4 L162.6,371.1 L163.4,365.2 L164.3,363.3 L165.1,362.8 L166.0,362.6 L166.8,362.8 L167.6,362.8 L168.5,363.1 L169.3,363.1 L170.2,362.8 L171.0,363.1 L171.9,362.6 L172.7,362.8 L173.5,362.8 L174.4,363.1 L175.2,362.6 L176.1,362.8 L176.9,361.5 L177.8,360.0 L178.6,358.4 L179.4,357.1 L180.3,356.3 L181.1,355.3 L182.0,353.2 L182.8,352.2 L183.7,350.9 L184.5,349.8 L185.3,349.6 L186.2,348.8 L187.0,347.5 L187.9,346.5 L188.7,345.4 L189.6,344.4 L190.4,343.1 L191.2,343.3 L192.1,343.9 L192.9,344.1 L193.8,344.6 L194.6,344.9 L195.4,344.9 L196.3,345.4 L197.1,345.4 L198.0,345.2 L198.8,345.4 L199.7,344.1 L200.5,344.1 L201.3,342.8 L202.2,343.1 L203.0,341.8 L203.9,342.3 L204.7,342.0 L205.6,341.5 L206.4,341.8 L207.2,341.3 L208.1,341.0 L208.9,341.5 L209.8,341.0 L210.6,341.3 L211.5,341.5 L212.3,341.8 L213.1,341.8 L214.0,341.8 L214.8,341.8 L215.7,341.5 L216.5,342.0 L217.4,342.6 L218.2,343.3 L219.0,344.1 L219.9,343.9 L220.7,344.1 L221.6,344.4 L222.4,344.1 L223.3,343.6 L224.1,342.6 L224.9,342.3 L225.8,341.8 L226.6,342.0 L227.5,342.0 L228.3,342.0 L229.2,342.3 L230.0,341.5 L230.8,341.8 L231.7,342.3 L232.5,342.6 L233.4,343.3 L234.2,343.9 L235.1,343.6 L235.9,344.1 L236.7,344.4 L237.6,344.6 L238.4,344.9 L239.3,344.6 L240.1,344.9 L241.0,345.2 L241.8,345.2 L242.6,345.2 L243.5,344.6 L244.3,346.2 L245.2,346.7 L246.0,346.5 L246.9,346.5 L247.7,347.8 L248.5,349.1 L249.4,349.1 L250.2,349.8 L251.1,349.6 L251.9,349.6 L252.8,349.6 L253.6,350.1 L254.4,349.3 L255.3,349.3 L256.1,349.3 L257.0,349.3 L257.8,348.8 L258.7,348.8 L259.5,349.1 L260.3,349.1 L261.2,348.8 L262.0,349.1 L262.9,348.8 L263.7,348.8 L264.6,349.1 L265.4,349.1 L266.2,348.8 L267.1,349.1 L267.9,348.8 L268.8,348.8 L269.6,348.0 L270.4,348.0 L271.3,348.0 L272.1,348.0 L273.0,347.2 L273.8,347.8 L274.7,347.8 L275.5,347.8 L276.3,347.8 L277.2,348.0 L278.0,347.8 L278.9,347.5 L279.7,347.5 L280.6,347.8 L281.4,348.0 L282.2,347.8 L283.1,348.0 L283.9,347.8 L284.8,348.0 L285.6,347.8 L286.5,348.5 L287.3,348.8 L288.1,349.8 L289.0,349.8 L289.8,349.1 L290.7,350.9 L291.5,350.9 L292.4,350.4 L293.2,350.4 L294.0,350.4 L294.9,350.4 L295.7,349.3 L296.6,350.1 L297.4,349.6 L298.3,350.1 L299.1,350.1 L299.9,349.3 L300.8,349.6 L301.6,349.8 L302.5,349.8 L303.3,349.6 L304.2,349.1 L305.0,349.8 L305.8,349.6 L306.7,350.1 L307.5,349.8 L308.4,349.1 L309.2,348.8 L310.1,348.5 L310.9,348.8 L311.7,348.8 L312.6,348.5 L313.4,348.5 L314.3,348.3 L315.1,349.1 L316.0,349.1 L316.8,348.8 L317.6,350.4 L318.5,350.1 L319.3,349.3 L320.2,349.3 L321.0,349.3 L321.9,350.1 L322.7,349.8 L323.5,349.6 L324.4,350.1 L325.2,349.8 L326.1,350.1 L326.9,350.4 L327.8,350.4 L328.6,350.4 L329.4,350.1 L330.3,350.4 L331.1,350.4 L332.0,351.4 L332.8,351.9 L333.7,351.9 L334.5,352.2 L335.3,352.2 L336.2,352.4 L337.0,352.2 L337.9,353.7 L338.7,353.7 L339.6,353.7 L340.4,354.3 L341.2,353.7 L342.1,354.3 L342.9,354.0 L343.8,354.0 L344.6,354.3 L345.4,354.0 L346.3,353.5 L347.1,353.0 L348.0,353.2 L348.8,353.0 L349.7,353.0 L350.5,353.2 L351.3,353.2 L352.2,353.5 L353.0,353.0 L353.9,353.0 L354.7,353.0 L355.6,353.5 L356.4,353.7 L357.2,353.7 L358.1,353.2 L358.9,353.0 L359.8,353.7 L360.6,353.0 L361.5,353.0 L362.3,353.5 L363.1,353.2 L364.0,353.7 L364.8,353.5 L365.7,354.0 L366.5,354.0 L367.4,353.7 L368.2,354.5 L369.0,355.0 L369.9,355.3 L370.7,355.3 L371.6,354.8 L372.4,355.0 L373.3,354.8 L374.1,354.5 L374.9,354.5 L375.8,354.5 L376.6,354.5 L377.5,354.3 L378.3,354.8 L379.2,354.5 L380.0,354.8 L380.8,355.3 L381.7,354.5 L382.5,355.6 L383.4,356.3 L384.2,356.1 L385.1,356.1 L385.9,355.8 L386.7,356.6 L387.6,355.8 L388.4,356.1 L389.3,356.1 L390.1,356.3 L391.0,356.1 L391.8,355.6 L392.6,355.3 L393.5,355.3 L394.3,355.3 L395.2,355.3 L396.0,355.6 L396.9,354.8 L397.7,353.5 L398.5,354.8 L399.4,354.5 L400.2,356.1 L401.1,357.6 L401.9,358.7 L402.8,357.9 L403.6,356.3 L404.4,356.3 L405.3,354.5 L406.1,354.5 L407.0,353.7 L407.8,354.0 L408.7,354.0 L409.5,354.3 L410.3,353.7 L411.2,354.0 L412.0,353.2 L412.9,353.2 L413.7,353.7 L414.6,353.5 L415.4,353.2 L416.2,353.0 L417.1,353.0 L417.9,352.2 L418.8,351.1 L419.6,351.9 L420.4,350.6 L421.3,350.9 L422.1,350.6 L423.0,351.4 L423.8,351.7 L424.7,351.9 L425.5,351.4 L426.3,353.0 L427.2,352.7 L428.0,352.4 L428.9,353.0 L429.7,354.0 L430.6,354.0 L431.4,353.5 L432.2,353.5 L433.1,352.2 L433.9,352.2 L434.8,352.4 L435.6,352.4 L436.5,351.7 L437.3,350.9 L438.1,350.6 L439.0,350.1 L439.8,349.8 L440.7,350.1 L441.5,349.6 L442.4,350.4 L443.2,350.6 L444.0,350.6 L444.9,350.6 L445.7,350.4 L446.6,351.4 L447.4,351.1 L448.3,352.4 L449.1,352.2 L449.9,350.4 L450.8,350.6 L451.6,350.9 L452.5,351.1 L453.3,350.6 L454.2,350.6 L455.0,350.6 L455.8,349.3 L456.7,349.1 L457.5,347.8 L458.4,347.2 L459.2,349.1 L460.1,349.1 L460.9,349.8 L461.7,349.8 L462.6,350.1 L463.4,350.4 L464.3,350.4 L465.1,351.7 L466.0,352.2 L466.8,351.7 L467.6,352.4 L468.5,352.7 L469.3,352.4 L470.2,354.3 L471.0,353.2 L471.9,352.2 L472.7,351.7 L473.5,350.9 L474.4,351.1 L475.2,350.9 L476.1,350.6 L476.9,350.4 L477.8,350.6 L478.6,351.1 L479.4,350.9 L480.3,351.1 L481.1,350.9 L482.0,351.1 L482.8,350.9 L483.7,350.9 L484.5,350.9 L485.3,350.9 L486.2,350.9 L487.0,350.6 L487.9,350.9 L488.7,351.1 L489.6,351.4 L490.4,350.4 L491.2,350.1 L492.1,350.4 L492.9,349.8 L493.8,350.4 L494.6,349.8 L495.4,350.9 L496.3,350.6 L497.1,351.1 L498.0,350.9 L498.8,350.4 L499.7,351.9 L500.5,351.9 L501.3,351.4 L502.2,351.7 L503.0,351.7 L503.9,351.4 L504.7,351.9 L505.6,351.1 L506.4,351.7 L507.2,350.6 L508.1,351.1 L508.9,351.4 L509.8,350.6 L510.6,350.9 L511.5,351.1 L512.3,351.1 L513.1,351.4 L514.0,350.9 L514.8,350.9 L515.7,350.9 L516.5,351.1 L517.4,351.1 L518.2,351.1 L519.0,350.9 L519.9,351.7 L520.7,351.1 L521.6,351.7 L522.4,351.1 L523.3,350.9 L524.1,350.6 L524.9,350.9 L525.8,351.1 L526.6,350.9 L527.5,350.9 L528.3,350.6 L529.2,350.9 L530.0,350.6 L530.8,350.6 L531.7,350.4 L532.5,351.1 L533.4,350.6 L534.2,350.6 L535.1,350.4 L535.9,351.1 L536.7,351.1 L537.6,351.1 L538.4,351.1 L539.3,351.1 L540.1,351.4 L541.0,351.4 L541.8,351.4 L542.6,351.4 L543.5,351.9 L544.3,351.7 L545.2,351.9 L546.0,351.7 L546.9,351.7 L547.7,351.4 L548.5,351.4 L549.4,351.9 L550.2,351.9 L551.1,351.9 L551.9,350.9 L552.8,350.4 L553.6,350.4 L554.4,350.1 L555.3,350.1 L556.1,349.1 L557.0,349.1 L557.8,349.1 L558.7,348.3 L559.5,348.5 L560.3,349.1 L561.2,348.8 L562.0,349.1 L562.9,350.4 L563.7,350.1 L564.6,350.4 L565.4,350.4 L566.2,350.1 L567.1,350.6 L567.9,350.4 L568.8,350.4 L569.6,350.1 L570.4,350.4 L571.3,350.4 L572.1,350.1 L573.0,349.6 L573.8,348.8 L574.7,348.8 L575.5,349.6 L576.3,349.3 L577.2,349.6 L578.0,348.8 L578.9,349.1 L579.7,348.5 L580.6,348.5 L581.4,349.8 L582.2,349.6 L583.1,349.1 L583.9,349.6 L584.8,349.6 L585.6,349.6 L586.5,349.6 L587.3,349.3 L588.1,349.3 L589.0,349.6 L589.8,349.3 L590.7,349.8 L591.5,349.6 L592.4,349.3 L593.2,349.6 L594.0,349.8 L594.9,349.6 L595.7,349.8 L596.6,348.8 L597.4,349.1 L598.3,349.1 L599.1,348.8 L599.9,348.5 L600.8,348.8 L601.6,349.1 L602.5,348.8 L603.3,349.6 L604.2,349.3 L605.0,349.6 L605.8,350.4 L606.7,350.1 L607.5,349.8 L608.4,350.9 L609.2,350.9 L610.1,351.1 L610.9,350.6 L611.7,350.6 L612.6,350.6 L613.4,350.4 L614.3,350.6 L615.1,350.1 L616.0,350.1 L616.8,349.8 L617.6,350.1 L618.5,350.1 L619.3,350.1 L620.2,350.1 L621.0,350.4 L621.9,351.1 L622.7,351.9 L623.5,353.5 L624.4,355.0 L625.2,355.0 L626.1,353.0 L626.9,351.4 L627.8,350.9 L628.6,350.9 L629.4,349.3 L630.3,349.1 L631.1,349.1 L632.0,349.1 L632.8,349.3 L633.7,349.1 L634.5,348.8 L635.3,348.8 L636.2,348.8 L637.0,348.5 L637.9,348.8 L638.7,349.3 L639.6,349.6 L640.4,350.4 L641.2,351.9 L642.1,353.5 L642.9,355.3 L643.8,356.3 L644.6,357.4 L645.4,357.4 L646.3,357.4 L647.1,356.3 L648.0,354.5 L648.8,350.9 L649.7,349.6 L650.5,349.8 L651.3,349.6 L652.2,350.1 L653.0,350.1 L653.9,352.7 L654.7,354.0 L655.6,353.2 L656.4,356.1 L657.2,357.6 L658.1,358.7 L658.9,360.5 L659.8,361.5 L660.6,364.1 L661.5,365.2 L662.3,365.2 L663.1,366.5 L664.0,366.2 L664.8,367.8 L665.7,368.3 L666.5,369.3 L667.4,369.3 L668.2,370.1 L669.0,369.8 L669.9,369.8 L670.7,370.1 L671.6,369.3 L672.4,368.5 L673.3,368.5 L674.1,369.3 L674.9,369.1 L675.8,368.5 L676.6,368.0 L677.5,367.8 L678.3,367.2 L679.2,366.7 L680.0,366.5" stroke="#ff7f0e" stroke-width="2" fill="none" opacity="0.8"/>
<!-- Thermal Generation -->
<path d="M80.0,395.6 L80.8,395.3 L81.7,395.1 L82.5,394.8 L83.4,395.3 L84.2,394.8 L85.1,394.5 L85.9,394.8 L86.7,395.6 L87.6,395.1 L88.4,394.8 L89.3,394.8 L90.1,395.6 L91.0,395.3 L91.8,395.3 L92.6,394.8 L93.5,394.8 L94.3,395.3 L95.2,394.8 L96.0,395.3 L96.9,394.8 L97.7,395.1 L98.5,395.3 L99.4,395.8 L100.2,395.3 L101.1,395.6 L101.9,395.6 L102.8,394.8 L103.6,386.0 L104.4,388.0 L105.3,395.1 L106.1,393.8 L107.0,394.3 L107.8,394.0 L108.7,394.3 L109.5,394.5 L110.3,394.8 L111.2,394.5 L112.0,394.5 L112.9,394.8 L113.7,394.5 L114.6,394.5 L115.4,395.1 L116.2,394.8 L117.1,395.6 L117.9,395.1 L118.8,394.8 L119.6,394.8 L120.4,394.5 L121.3,394.3 L122.1,394.8 L123.0,395.1 L123.8,382.8 L124.7,382.1 L125.5,379.5 L126.3,373.5 L127.2,374.5 L128.0,382.8 L128.9,380.8 L129.7,383.1 L130.6,395.1 L131.4,394.5 L132.2,394.5 L133.1,395.3 L133.9,389.6 L134.8,371.7 L135.6,352.4 L136.5,372.4 L137.3,369.6 L138.1,386.0 L139.0,394.3 L139.8,395.3 L140.7,395.3 L141.5,395.1 L142.4,395.1 L143.2,389.6 L144.0,352.2 L144.9,350.4 L145.7,353.0 L146.6,350.1 L147.4,368.3 L148.3,354.0 L149.1,386.5 L149.9,386.0 L150.8,378.7 L151.6,380.2 L152.5,371.1 L153.3,371.4 L154.2,361.3 L155.0,325.9 L155.8,321.5 L156.7,361.8 L157.5,361.3 L158.4,358.7 L159.2,359.5 L160.1,362.0 L160.9,365.7 L161.7,364.1 L162.6,365.2 L163.4,324.1 L164.3,324.9 L165.1,354.3 L166.0,349.8 L166.8,357.6 L167.6,357.1 L168.5,357.1 L169.3,365.2 L170.2,367.5 L171.0,365.9 L171.9,366.5 L172.7,366.5 L173.5,366.2 L174.4,366.2 L175.2,367.0 L176.1,354.5 L176.9,350.6 L177.8,362.3 L178.6,344.9 L179.4,349.1 L180.3,362.3 L181.1,321.8 L182.0,353.0 L182.8,350.9 L183.7,300.5 L184.5,301.2 L185.3,316.3 L186.2,303.8 L187.0,302.8 L187.9,304.9 L188.7,325.9 L189.6,336.6 L190.4,336.8 L191.2,337.6 L192.1,337.9 L192.9,337.9 L193.8,342.8 L194.6,337.4 L195.4,336.8 L196.3,340.5 L197.1,341.8 L198.0,343.1 L198.8,343.1 L199.7,342.8 L200.5,343.1 L201.3,335.3 L202.2,337.1 L203.0,302.8 L203.9,298.6 L204.7,304.4 L205.6,307.0 L206.4,329.8 L207.2,337.4 L208.1,337.1 L208.9,336.6 L209.8,336.6 L210.6,334.5 L211.5,368.0 L212.3,369.1 L213.1,361.5 L214.0,354.8 L214.8,351.4 L215.7,342.3 L216.5,342.6 L217.4,340.7 L218.2,324.9 L219.0,320.2 L219.9,317.1 L220.7,317.6 L221.6,322.0 L222.4,330.1 L223.3,338.7 L224.1,327.2 L224.9,299.4 L225.8,342.0 L226.6,341.5 L227.5,341.5 L228.3,348.3 L229.2,347.8 L230.0,354.3 L230.8,361.0 L231.7,361.3 L232.5,361.8 L233.4,361.5 L234.2,362.3 L235.1,362.0 L235.9,348.8 L236.7,337.1 L237.6,341.5 L238.4,341.3 L239.3,341.0 L240.1,349.8 L241.0,362.8 L241.8,363.1 L242.6,362.0 L243.5,358.2 L244.3,334.8 L245.2,335.0 L246.0,338.1 L246.9,342.0 L247.7,342.3 L248.5,342.3 L249.4,347.0 L250.2,353.2 L251.1,358.4 L251.9,352.4 L252.8,358.9 L253.6,358.9 L254.4,349.1 L255.3,342.3 L256.1,341.5 L257.0,340.7 L257.8,342.0 L258.7,341.5 L259.5,341.5 L260.3,340.5 L261.2,342.6 L262.0,341.3 L262.9,341.8 L263.7,342.3 L264.6,338.9 L265.4,338.9 L266.2,341.3 L267.1,341.8 L267.9,344.4 L268.8,341.3 L269.6,350.9 L270.4,351.1 L271.3,349.6 L272.1,351.4 L273.0,351.1 L273.8,356.1 L274.7,356.1 L275.5,356.1 L276.3,356.1 L277.2,355.3 L278.0,355.3 L278.9,355.0 L279.7,348.0 L280.6,347.8 L281.4,362.3 L282.2,362.3 L283.1,356.3 L283.9,347.5 L284.8,342.6 L285.6,340.7 L286.5,333.7 L287.3,334.5 L288.1,342.0 L289.0,342.0 L289.8,337.1 L290.7,342.0 L291.5,347.8 L292.4,356.1 L293.2,361.8 L294.0,362.0 L294.9,362.0 L295.7,351.4 L296.6,342.0 L297.4,342.6 L298.3,341.8 L299.1,342.8 L299.9,343.1 L300.8,354.3 L301.6,354.3 L302.5,374.3 L303.3,374.3 L304.2,373.7 L305.0,361.5 L305.8,340.5 L306.7,337.4 L307.5,342.3 L308.4,342.3 L309.2,342.0 L310.1,349.6 L310.9,349.6 L311.7,369.6 L312.6,380.2 L313.4,380.2 L314.3,380.0 L315.1,380.2 L316.0,380.0 L316.8,369.6 L317.6,320.2 L318.5,349.3 L319.3,349.1 L320.2,344.1 L321.0,342.3 L321.9,342.8 L322.7,343.1 L323.5,342.8 L324.4,342.8 L325.2,342.6 L326.1,322.8 L326.9,320.5 L327.8,337.4 L328.6,340.0 L329.4,348.0 L330.3,356.3 L331.1,379.5 L332.0,379.7 L332.8,379.5 L333.7,380.2 L334.5,380.5 L335.3,380.0 L336.2,379.5 L337.0,319.7 L337.9,322.3 L338.7,348.8 L339.6,364.4 L340.4,372.2 L341.2,372.2 L342.1,380.0 L342.9,380.0 L343.8,380.0 L344.6,380.0 L345.4,371.9 L346.3,356.9 L347.1,356.6 L348.0,356.3 L348.8,349.8 L349.7,341.3 L350.5,346.5 L351.3,347.5 L352.2,347.2 L353.0,374.0 L353.9,373.5 L354.7,373.7 L355.6,371.1 L356.4,370.9 L357.2,351.9 L358.1,297.9 L358.9,332.7 L359.8,341.8 L360.6,342.3 L361.5,342.0 L362.3,356.3 L363.1,364.1 L364.0,371.9 L364.8,371.9 L365.7,363.3 L366.5,338.7 L367.4,336.3 L368.2,338.9 L369.0,341.3 L369.9,349.8 L370.7,362.0 L371.6,368.8 L372.4,368.5 L373.3,368.3 L374.1,343.6 L374.9,333.7 L375.8,331.4 L376.6,320.7 L377.5,301.8 L378.3,299.4 L379.2,342.3 L380.0,287.2 L380.8,288.0 L381.7,308.0 L382.5,318.4 L383.4,323.6 L384.2,328.5 L385.1,328.5 L385.9,319.2 L386.7,272.4 L387.6,283.6 L388.4,305.4 L389.3,292.7 L390.1,305.1 L391.0,322.5 L391.8,327.7 L392.6,309.8 L393.5,290.6 L394.3,311.1 L395.2,288.2 L396.0,285.4 L396.9,277.9 L397.7,259.7 L398.5,267.5 L399.4,299.9 L400.2,315.3 L401.1,330.1 L401.9,340.7 L402.8,356.1 L403.6,355.8 L404.4,366.2 L405.3,367.5 L406.1,361.3 L407.0,315.8 L407.8,329.3 L408.7,318.1 L409.5,318.4 L410.3,343.6 L411.2,343.6 L412.0,283.0 L412.9,278.9 L413.7,357.9 L414.6,363.6 L415.4,351.4 L416.2,332.9 L417.1,319.4 L417.9,321.8 L418.8,291.4 L419.6,329.8 L420.4,343.6 L421.3,353.2 L422.1,359.2 L423.0,364.4 L423.8,364.6 L424.7,364.1 L425.5,365.2 L426.3,332.7 L427.2,253.4 L428.0,245.6 L428.9,243.3 L429.7,268.2 L430.6,245.6 L431.4,317.4 L432.2,342.6 L433.1,363.9 L433.9,363.9 L434.8,364.4 L435.6,331.6 L436.5,324.1 L437.3,311.6 L438.1,309.0 L439.0,301.5 L439.8,332.2 L440.7,330.9 L441.5,327.7 L442.4,340.5 L443.2,345.7 L444.0,356.1 L444.9,356.1 L445.7,356.6 L446.6,354.3 L447.4,314.2 L448.3,314.5 L449.1,318.9 L449.9,328.8 L450.8,361.5 L451.6,361.5 L452.5,356.6 L453.3,361.5 L454.2,361.8 L455.0,361.5 L455.8,362.0 L456.7,361.8 L457.5,356.6 L458.4,299.2 L459.2,290.6 L460.1,311.6 L460.9,314.0 L461.7,348.5 L462.6,363.9 L463.4,364.1 L464.3,363.9 L465.1,363.9 L466.0,364.1 L466.8,362.0 L467.6,301.8 L468.5,317.4 L469.3,317.4 L470.2,291.9 L471.0,291.9 L471.9,317.9 L472.7,317.6 L473.5,332.7 L474.4,333.2 L475.2,317.6 L476.1,333.2 L476.9,348.8 L477.8,348.8 L478.6,287.2 L479.4,275.8 L480.3,318.7 L481.1,351.4 L482.0,364.4 L482.8,361.8 L483.7,364.4 L484.5,364.6 L485.3,364.9 L486.2,364.6 L487.0,349.3 L487.9,291.9 L488.7,290.1 L489.6,332.7 L490.4,332.4 L491.2,348.3 L492.1,361.0 L492.9,358.9 L493.8,364.4 L494.6,364.4 L495.4,364.1 L496.3,363.9 L497.1,363.9 L498.0,363.3 L498.8,363.9 L499.7,333.7 L500.5,333.5 L501.3,333.5 L502.2,365.2 L503.0,364.6 L503.9,365.4 L504.7,364.4 L505.6,364.1 L506.4,343.1 L507.2,343.1 L508.1,343.9 L508.9,343.9 L509.8,328.3 L510.6,328.5 L511.5,328.3 L512.3,329.8 L513.1,319.4 L514.0,349.3 L514.8,364.6 L515.7,364.6 L516.5,364.4 L517.4,364.4 L518.2,349.6 L519.0,334.0 L519.9,314.0 L520.7,281.8 L521.6,330.9 L522.4,345.2 L523.3,364.9 L524.1,364.6 L524.9,364.4 L525.8,364.4 L526.6,364.4 L527.5,364.6 L528.3,343.9 L529.2,331.1 L530.0,338.4 L530.8,343.6 L531.7,344.1 L532.5,343.6 L533.4,344.1 L534.2,343.6 L535.1,354.5 L535.9,332.9 L536.7,343.1 L537.6,333.2 L538.4,317.4 L539.3,295.5 L540.1,302.8 L541.0,336.6 L541.8,343.3 L542.6,356.1 L543.5,364.1 L544.3,364.6 L545.2,375.3 L546.0,375.3 L546.9,375.6 L547.7,364.6 L548.5,350.9 L549.4,308.8 L550.2,311.1 L551.1,316.8 L551.9,316.1 L552.8,294.7 L553.6,306.2 L554.4,318.9 L555.3,326.2 L556.1,338.7 L557.0,338.4 L557.8,343.9 L558.7,355.3 L559.5,332.9 L560.3,310.6 L561.2,320.0 L562.0,321.3 L562.9,352.4 L563.7,351.7 L564.6,351.9 L565.4,351.9 L566.2,344.4 L567.1,343.9 L567.9,319.2 L568.8,261.7 L569.6,258.6 L570.4,254.7 L571.3,253.4 L572.1,243.8 L573.0,243.5 L573.8,248.2 L574.7,243.3 L575.5,243.5 L576.3,243.3 L577.2,243.8 L578.0,243.5 L578.9,243.5 L579.7,243.8 L580.6,247.4 L581.4,289.8 L582.2,293.4 L583.1,266.9 L583.9,282.3 L584.8,293.2 L585.6,280.7 L586.5,287.5 L587.3,296.0 L588.1,255.8 L589.0,253.4 L589.8,253.2 L590.7,256.0 L591.5,255.8 L592.4,257.6 L593.2,257.8 L594.0,254.5 L594.9,257.1 L595.7,266.2 L596.6,259.9 L597.4,259.7 L598.3,258.1 L599.1,262.5 L599.9,264.3 L600.8,265.1 L601.6,268.5 L602.5,290.6 L603.3,294.7 L604.2,261.7 L605.0,295.3 L605.8,298.4 L606.7,296.8 L607.5,297.9 L608.4,255.8 L609.2,255.8 L610.1,258.1 L610.9,256.0 L611.7,255.2 L612.6,255.5 L613.4,256.8 L614.3,267.2 L615.1,284.1 L616.0,294.0 L616.8,270.6 L617.6,272.7 L618.5,269.0 L619.3,280.5 L620.2,274.0 L621.0,275.5 L621.9,278.4 L622.7,278.6 L623.5,275.3 L624.4,274.5 L625.2,321.3 L626.1,323.8 L626.9,323.1 L627.8,323.1 L628.6,282.8 L629.4,282.8 L630.3,282.8 L631.1,280.5 L632.0,281.8 L632.8,279.4 L633.7,282.0 L634.5,279.4 L635.3,279.2 L636.2,321.8 L637.0,304.4 L637.9,298.9 L638.7,262.5 L639.6,262.3 L640.4,262.3 L641.2,263.3 L642.1,261.0 L642.9,260.4 L643.8,277.6 L644.6,261.0 L645.4,276.8 L646.3,265.1 L647.1,270.3 L648.0,259.9 L648.8,256.3 L649.7,257.1 L650.5,253.9 L651.3,254.2 L652.2,258.9 L653.0,253.9 L653.9,256.3 L654.7,253.7 L655.6,256.5 L656.4,297.6 L657.2,290.1 L658.1,292.7 L658.9,291.4 L659.8,288.0 L660.6,259.7 L661.5,259.7 L662.3,256.3 L663.1,263.6 L664.0,261.5 L664.8,258.6 L665.7,259.9 L666.5,264.1 L667.4,260.7 L668.2,272.4 L669.0,259.4 L669.9,256.3 L670.7,256.3 L671.6,253.9 L672.4,266.7 L673.3,280.5 L674.1,271.1 L674.9,264.9 L675.8,285.6 L676.6,297.3 L677.5,298.1 L678.3,298.4 L679.2,298.9 L680.0,298.1" stroke="#2ca02c" stroke-width="2" fill="none" opacity="0.8"/>
<!-- Solar Generation -->
<path d="M80.0,410.4 L80.8,410.4 L81.7,416.6 L82.5,420.0 L83.4,420.0 L84.2,420.0 L85.1,420.0 L85.9,420.0 L86.7,420.0 L87.6,420.0 L88.4,420.0 L89.3,420.0 L90.1,420.0 L91.0,420.0 L91.8,420.0 L92.6,420.0 L93.5,420.0 L94.3,420.0 L95.2,420.0 L96.0,420.0 L96.9,409.3 L97.7,410.6 L98.5,411.9 L99.4,414.5 L100.2,411.2 L101.1,410.6 L101.9,415.3 L102.8,420.0 L103.6,420.0 L104.4,420.0 L105.3,420.0 L106.1,420.0 L107.0,420.0 L107.8,420.0 L108.7,420.0 L109.5,420.0 L110.3,420.0 L111.2,420.0 L112.0,420.0 L112.9,420.0 L113.7,420.0 L114.6,420.0 L115.4,420.0 L116.2,419.5 L117.1,410.6 L117.9,417.9 L118.8,417.4 L119.6,417.1 L120.4,416.9 L121.3,417.9 L122.1,418.4 L123.0,419.7 L123.8,420.0 L124.7,420.0 L125.5,420.0 L126.3,420.0 L127.2,420.0 L128.0,420.0 L128.9,420.0 L129.7,420.0 L130.6,420.0 L131.4,420.0 L132.2,420.0 L133.1,420.0 L133.9,420.0 L134.8,420.0 L135.6,420.0 L136.5,415.3 L137.3,398.4 L138.1,399.0 L139.0,402.1 L139.8,402.3 L140.7,399.0 L141.5,396.6 L142.4,409.6 L143.2,419.5 L144.0,420.0 L144.9,420.0 L145.7,420.0 L146.6,420.0 L147.4,420.0 L148.3,420.0 L149.1,420.0 L149.9,420.0 L150.8,420.0 L151.6,420.0 L152.5,420.0 L153.3,420.0 L154.2,420.0 L155.0,420.0 L155.8,420.0 L156.7,415.6 L157.5,397.9 L158.4,399.0 L159.2,402.1 L160.1,404.1 L160.9,402.6 L161.7,400.0 L162.6,410.6 L163.4,419.7 L164.3,420.0 L165.1,420.0 L166.0,420.0 L166.8,420.0 L167.6,420.0 L168.5,420.0 L169.3,420.0 L170.2,420.0 L171.0,420.0 L171.9,420.0 L172.7,420.0 L173.5,420.0 L174.4,420.0 L175.2,420.0 L176.1,420.0 L176.9,415.6 L177.8,398.7 L178.6,400.0 L179.4,402.1 L180.3,402.3 L181.1,399.2 L182.0,398.7 L182.8,409.3 L183.7,419.7 L184.5,420.0 L185.3,420.0 L186.2,420.0 L187.0,420.0 L187.9,420.0 L188.7,420.0 L189.6,420.0 L190.4,420.0 L191.2,420.0 L192.1,420.0 L192.9,420.0 L193.8,420.0 L194.6,420.0 L195.4,420.0 L196.3,420.0 L197.1,415.1 L198.0,399.2 L198.8,399.5 L199.7,401.3 L200.5,402.8 L201.3,398.4 L202.2,405.4 L203.0,414.8 L203.9,419.7 L204.7,420.0 L205.6,420.0 L206.4,420.0 L207.2,420.0 L208.1,420.0 L208.9,420.0 L209.8,420.0 L210.6,420.0 L211.5,420.0 L212.3,420.0 L213.1,420.0 L214.0,420.0 L214.8,420.0 L215.7,420.0 L216.5,420.0 L217.4,418.4 L218.2,409.1 L219.0,408.6 L219.9,410.1 L220.7,412.5 L221.6,411.7 L222.4,415.1 L223.3,417.9 L224.1,420.0 L224.9,420.0 L225.8,420.0 L226.6,420.0 L227.5,420.0 L228.3,420.0 L229.2,420.0 L230.0,420.0 L230.8,420.0 L231.7,420.0 L232.5,420.0 L233.4,420.0 L234.2,420.0 L235.1,420.0 L235.9,420.0 L236.7,420.0 L237.6,418.7 L238.4,416.4 L239.3,413.2 L240.1,410.4 L241.0,413.0 L241.8,406.2 L242.6,415.1 L243.5,418.2 L244.3,419.7 L245.2,420.0 L246.0,420.0 L246.9,420.0 L247.7,420.0 L248.5,420.0 L249.4,420.0 L250.2,420.0 L251.1,420.0 L251.9,420.0 L252.8,420.0 L253.6,420.0 L254.4,420.0 L255.3,420.0 L256.1,420.0 L257.0,420.0 L257.8,416.9 L258.7,402.3 L259.5,398.2 L260.3,402.1 L261.2,402.3 L262.0,402.6 L262.9,397.4 L263.7,413.2 L264.6,419.7 L265.4,420.0 L266.2,420.0 L267.1,420.0 L267.9,420.0 L268.8,420.0 L269.6,420.0 L270.4,420.0 L271.3,420.0 L272.1,420.0 L273.0,420.0 L273.8,420.0 L274.7,420.0 L275.5,420.0 L276.3,420.0 L277.2,420.0 L278.0,416.4 L278.9,409.9 L279.7,410.9 L280.6,411.2 L281.4,410.9 L282.2,411.4 L283.1,413.5 L283.9,416.4 L284.8,419.7 L285.6,420.0 L286.5,420.0 L287.3,420.0 L288.1,420.0 L289.0,420.0 L289.8,420.0 L290.7,420.0 L291.5,420.0 L292.4,420.0 L293.2,420.0 L294.0,420.0 L294.9,420.0 L295.7,420.0 L296.6,420.0 L297.4,420.0 L298.3,419.2 L299.1,411.9 L299.9,405.2 L300.8,400.3 L301.6,402.6 L302.5,401.3 L303.3,396.4 L304.2,415.6 L305.0,419.7 L305.8,420.0 L306.7,420.0 L307.5,420.0 L308.4,420.0 L309.2,420.0 L310.1,420.0 L310.9,420.0 L311.7,420.0 L312.6,420.0 L313.4,420.0 L314.3,420.0 L315.1,420.0 L316.0,420.0 L316.8,420.0 L317.6,420.0 L318.5,418.4 L319.3,415.3 L320.2,412.7 L321.0,411.9 L321.9,413.2 L322.7,415.1 L323.5,416.1 L324.4,418.2 L325.2,419.7 L326.1,420.0 L326.9,420.0 L327.8,420.0 L328.6,420.0 L329.4,420.0 L330.3,420.0 L331.1,420.0 L332.0,420.0 L332.8,420.0 L333.7,420.0 L334.5,420.0 L335.3,420.0 L336.2,420.0 L337.0,420.0 L337.9,420.0 L338.7,415.3 L339.6,407.5 L340.4,408.6 L341.2,405.7 L342.1,407.0 L342.9,405.7 L343.8,402.8 L344.6,418.2 L345.4,419.7 L346.3,420.0 L347.1,420.0 L348.0,420.0 L348.8,420.0 L349.7,420.0 L350.5,420.0 L351.3,420.0 L352.2,420.0 L353.0,420.0 L353.9,420.0 L354.7,420.0 L355.6,420.0 L356.4,420.0 L357.2,420.0 L358.1,420.0 L358.9,419.0 L359.8,416.1 L360.6,411.9 L361.5,402.3 L362.3,404.1 L363.1,405.2 L364.0,403.6 L364.8,407.0 L365.7,419.5 L366.5,420.0 L367.4,420.0 L368.2,420.0 L369.0,420.0 L369.9,420.0 L370.7,420.0 L371.6,420.0 L372.4,420.0 L373.3,420.0 L374.1,420.0 L374.9,420.0 L375.8,420.0 L376.6,420.0 L377.5,420.0 L378.3,420.0 L379.2,417.1 L380.0,407.0 L380.8,409.9 L381.7,405.4 L382.5,408.0 L383.4,405.2 L384.2,415.3 L385.1,416.1 L385.9,419.7 L386.7,420.0 L387.6,420.0 L388.4,420.0 L389.3,420.0 L390.1,420.0 L391.0,420.0 L391.8,420.0 L392.6,420.0 L393.5,420.0 L394.3,420.0 L395.2,420.0 L396.0,420.0 L396.9,420.0 L397.7,420.0 L398.5,420.0 L399.4,417.4 L400.2,410.4 L401.1,407.8 L401.9,399.2 L402.8,401.0 L403.6,404.4 L404.4,406.5 L405.3,412.5 L406.1,419.5 L407.0,420.0 L407.8,420.0 L408.7,420.0 L409.5,420.0 L410.3,420.0 L411.2,420.0 L412.0,420.0 L412.9,420.0 L413.7,420.0 L414.6,420.0 L415.4,420.0 L416.2,420.0 L417.1,420.0 L417.9,420.0 L418.8,420.0 L419.6,414.8 L420.4,412.2 L421.3,416.1 L422.1,410.1 L423.0,412.5 L423.8,413.0 L424.7,410.9 L425.5,416.4 L426.3,419.5 L427.2,420.0 L428.0,420.0 L428.9,420.0 L429.7,420.0 L430.6,420.0 L431.4,420.0 L432.2,420.0 L433.1,420.0 L433.9,420.0 L434.8,420.0 L435.6,420.0 L436.5,420.0 L437.3,420.0 L438.1,420.0 L439.0,420.0 L439.8,419.0 L440.7,416.9 L441.5,408.6 L442.4,407.5 L443.2,401.0 L444.0,403.9 L444.9,416.4 L445.7,417.4 L446.6,419.2 L447.4,420.0 L448.3,420.0 L449.1,420.0 L449.9,420.0 L450.8,420.0 L451.6,420.0 L452.5,420.0 L453.3,420.0 L454.2,420.0 L455.0,420.0 L455.8,420.0 L456.7,420.0 L457.5,420.0 L458.4,420.0 L459.2,420.0 L460.1,418.4 L460.9,417.9 L461.7,416.1 L462.6,412.7 L463.4,408.8 L464.3,406.5 L465.1,406.2 L466.0,415.8 L466.8,419.2 L467.6,420.0 L468.5,420.0 L469.3,420.0 L470.2,420.0 L471.0,420.0 L471.9,420.0 L472.7,420.0 L473.5,420.0 L474.4,420.0 L475.2,420.0 L476.1,420.0 L476.9,420.0 L477.8,420.0 L478.6,420.0 L479.4,420.0 L480.3,414.5 L481.1,397.1 L482.0,397.4 L482.8,400.3 L483.7,401.0 L484.5,398.2 L485.3,395.6 L486.2,403.4 L487.0,418.2 L487.9,420.0 L488.7,420.0 L489.6,420.0 L490.4,420.0 L491.2,420.0 L492.1,420.0 L492.9,420.0 L493.8,420.0 L494.6,420.0 L495.4,420.0 L496.3,420.0 L497.1,420.0 L498.0,420.0 L498.8,420.0 L499.7,420.0 L500.5,413.8 L501.3,396.6 L502.2,396.9 L503.0,400.3 L503.9,401.5 L504.7,400.5 L505.6,410.4 L506.4,415.1 L507.2,419.2 L508.1,420.0 L508.9,420.0 L509.8,420.0 L510.6,420.0 L511.5,420.0 L512.3,420.0 L513.1,420.0 L514.0,420.0 L514.8,420.0 L515.7,420.0 L516.5,420.0 L517.4,420.0 L518.2,420.0 L519.0,420.0 L519.9,420.0 L520.7,417.7 L521.6,405.2 L522.4,403.9 L523.3,403.4 L524.1,403.9 L524.9,403.9 L525.8,410.1 L526.6,407.0 L527.5,418.7 L528.3,420.0 L529.2,420.0 L530.0,420.0 L530.8,420.0 L531.7,420.0 L532.5,420.0 L533.4,420.0 L534.2,420.0 L535.1,420.0 L535.9,420.0 L536.7,420.0 L537.6,420.0 L538.4,420.0 L539.3,420.0 L540.1,420.0 L541.0,415.6 L541.8,395.8 L542.6,396.4 L543.5,399.5 L544.3,400.3 L545.2,397.4 L546.0,395.8 L546.9,416.1 L547.7,417.9 L548.5,420.0 L549.4,420.0 L550.2,420.0 L551.1,420.0 L551.9,420.0 L552.8,420.0 L553.6,420.0 L554.4,420.0 L555.3,420.0 L556.1,420.0 L557.0,420.0 L557.8,420.0 L558.7,420.0 L559.5,420.0 L560.3,420.0 L561.2,416.4 L562.0,406.0 L562.9,404.9 L563.7,401.5 L564.6,405.7 L565.4,396.9 L566.2,396.6 L567.1,406.7 L567.9,417.7 L568.8,420.0 L569.6,420.0 L570.4,420.0 L571.3,420.0 L572.1,420.0 L573.0,420.0 L573.8,420.0 L574.7,420.0 L575.5,420.0 L576.3,420.0 L577.2,420.0 L578.0,420.0 L578.9,420.0 L579.7,420.0 L580.6,420.0 L581.4,412.2 L582.2,395.1 L583.1,395.3 L583.9,398.7 L584.8,399.2 L585.6,398.7 L586.5,401.8 L587.3,404.7 L588.1,417.7 L589.0,420.0 L589.8,420.0 L590.7,420.0 L591.5,420.0 L592.4,420.0 L593.2,420.0 L594.0,420.0 L594.9,420.0 L595.7,420.0 L596.6,420.0 L597.4,420.0 L598.3,420.0 L599.1,420.0 L599.9,420.0 L600.8,420.0 L601.6,419.0 L602.5,416.9 L603.3,414.5 L604.2,406.0 L605.0,401.0 L605.8,398.2 L606.7,394.0 L607.5,400.8 L608.4,417.4 L609.2,420.0 L610.1,420.0 L610.9,420.0 L611.7,420.0 L612.6,420.0 L613.4,420.0 L614.3,420.0 L615.1,420.0 L616.0,420.0 L616.8,420.0 L617.6,420.0 L618.5,420.0 L619.3,420.0 L620.2,420.0 L621.0,420.0 L621.9,415.6 L622.7,404.7 L623.5,402.6 L624.4,402.8 L625.2,401.3 L626.1,399.2 L626.9,397.4 L627.8,404.7 L628.6,418.7 L629.4,420.0 L630.3,420.0 L631.1,420.0 L632.0,420.0 L632.8,420.0 L633.7,420.0 L634.5,420.0 L635.3,420.0 L636.2,420.0 L637.0,420.0 L637.9,420.0 L638.7,420.0 L639.6,420.0 L640.4,420.0 L641.2,420.0 L642.1,416.1 L642.9,411.2 L643.8,403.4 L644.6,400.5 L645.4,403.6 L646.3,400.8 L647.1,397.9 L648.0,406.7 L648.8,417.4 L649.7,420.0 L650.5,420.0 L651.3,420.0 L652.2,420.0 L653.0,420.0 L653.9,420.0 L654.7,420.0 L655.6,420.0 L656.4,420.0 L657.2,420.0 L658.1,420.0 L658.9,420.0 L659.8,420.0 L660.6,420.0 L661.5,420.0 L662.3,418.4 L663.1,416.4 L664.0,413.5 L664.8,411.9 L665.7,410.9 L666.5,410.1 L667.4,410.6 L668.2,413.0 L669.0,419.0 L669.9,420.0 L670.7,420.0 L671.6,420.0 L672.4,420.0 L673.3,420.0 L674.1,420.0 L674.9,420.0 L675.8,420.0 L676.6,420.0 L677.5,420.0 L678.3,420.0 L679.2,420.0 L680.0,420.0" stroke="#d62728" stroke-width="2" fill="none" opacity="0.8"/>
<!-- Forecast -->
<path d="M80.0,212.9 L80.8,213.4 L81.7,211.1 L82.5,207.2 L83.4,191.6 L84.2,185.1 L85.1,193.4 L85.9,204.0 L86.7,209.8 L87.6,224.3 L88.4,236.3 L89.3,248.5 L90.1,256.0 L91.0,259.9 L91.8,262.0 L92.6,259.9 L93.5,248.0 L94.3,225.1 L95.2,198.1 L96.0,183.3 L96.9,181.2 L97.7,183.0 L98.5,185.6 L99.4,189.5 L100.2,192.6 L101.1,194.7 L101.9,194.7 L102.8,189.0 L103.6,175.5 L104.4,171.0 L105.3,174.7 L106.1,184.6 L107.0,199.6 L107.8,217.3 L108.7,234.2 L109.5,246.1 L110.3,253.4 L111.2,257.3 L112.0,259.9 L112.9,258.9 L113.7,254.2 L114.6,242.0 L115.4,225.4 L116.2,209.2 L117.1,199.6 L117.9,196.5 L118.8,197.0 L119.6,198.6 L120.4,203.3 L121.3,205.6 L122.1,205.1 L123.0,198.9 L123.8,185.1 L124.7,182.5 L125.5,185.9 L126.3,193.4 L127.2,204.8 L128.0,219.4 L128.9,236.8 L129.7,245.9 L130.6,246.9 L131.4,250.3 L132.2,253.9 L133.1,254.2 L133.9,251.1 L134.8,243.0 L135.6,228.5 L136.5,213.9 L137.3,203.0 L138.1,197.3 L139.0,197.6 L139.8,199.6 L140.7,203.8 L141.5,206.4 L142.4,206.4 L143.2,199.4 L144.0,184.6 L144.9,177.3 L145.7,184.0 L146.6,193.4 L147.4,203.0 L148.3,219.1 L149.1,223.0 L149.9,244.8 L150.8,251.1 L151.6,255.0 L152.5,256.8 L153.3,253.9 L154.2,242.3 L155.0,218.6 L155.8,191.8 L156.7,178.3 L157.5,177.8 L158.4,180.7 L159.2,183.5 L160.1,188.5 L160.9,191.8 L161.7,193.7 L162.6,193.7 L163.4,187.9 L164.3,174.4 L165.1,169.7 L166.0,174.2 L166.8,183.5 L167.6,198.3 L168.5,216.8 L169.3,235.5 L170.2,244.8 L171.0,252.9 L171.9,257.1 L172.7,258.9 L173.5,256.3 L174.4,244.3 L175.2,220.4 L176.1,193.7 L176.9,179.9 L177.8,179.1 L178.6,181.4 L179.4,184.3 L180.3,188.7 L181.1,192.1 L182.0,193.9 L182.8,193.7 L183.7,187.7 L184.5,174.4 L185.3,169.7 L186.2,174.2 L187.0,183.5 L187.9,198.3 L188.7,216.8 L189.6,235.5 L190.4,246.9 L191.2,252.9 L192.1,256.3 L192.9,257.8 L193.8,255.5 L194.6,243.3 L195.4,219.4 L196.3,191.8 L197.1,178.6 L198.0,178.3 L198.8,181.2 L199.7,184.3 L200.5,189.0 L201.3,192.4 L202.2,194.4 L203.0,194.2 L203.9,188.5 L204.7,174.7 L205.6,170.0 L206.4,173.9 L207.2,183.3 L208.1,198.3 L208.9,216.5 L209.8,374.5 L210.6,288.2 L211.5,383.1 L212.3,420.0 L213.1,420.0 L214.0,420.0 L214.8,420.0 L215.7,420.0 L216.5,420.0 L217.4,420.0 L218.2,420.0 L219.0,420.0 L219.9,420.0 L220.7,420.0 L221.6,420.0 L222.4,420.0 L223.3,420.0 L224.1,420.0 L224.9,420.0 L225.8,420.0 L226.6,420.0 L227.5,420.0 L228.3,420.0 L229.2,420.0 L230.0,281.0 L230.8,248.0 L231.7,254.7 L232.5,258.6 L233.4,260.7 L234.2,258.9 L235.1,246.9 L235.9,223.8 L236.7,196.8 L237.6,182.2 L238.4,180.4 L239.3,182.5 L240.1,185.6 L241.0,189.5 L241.8,193.1 L242.6,195.2 L243.5,195.7 L244.3,190.0 L245.2,177.8 L246.0,173.1 L246.9,176.2 L247.7,186.9 L248.5,203.3 L249.4,220.2 L250.2,224.1 L251.1,255.2 L251.9,260.2 L252.8,264.6 L253.6,268.0 L254.4,271.1 L255.3,268.5 L256.1,252.1 L257.0,235.2 L257.8,220.9 L258.7,214.7 L259.5,208.7 L260.3,209.5 L261.2,211.1 L262.0,217.3 L262.9,218.9 L263.7,217.8 L264.6,213.4 L265.4,203.3 L266.2,198.6 L267.1,199.1 L267.9,205.9 L268.8,216.3 L269.6,232.4 L270.4,242.5 L271.3,255.5 L272.1,261.2 L273.0,265.1 L273.8,262.5 L274.7,258.9 L275.5,254.7 L276.3,246.9 L277.2,238.9 L278.0,229.3 L278.9,218.3 L279.7,207.4 L280.6,198.3 L281.4,204.8 L282.2,210.3 L283.1,214.4 L283.9,212.9 L284.8,209.5 L285.6,193.7 L286.5,187.9 L287.3,193.4 L288.1,203.3 L289.0,210.5 L289.8,224.6 L290.7,236.8 L291.5,248.0 L292.4,255.0 L293.2,258.6 L294.0,260.2 L294.9,257.6 L295.7,245.4 L296.6,222.5 L297.4,195.2 L298.3,180.7 L299.1,179.4 L299.9,181.7 L300.8,184.6 L301.6,189.0 L302.5,192.1 L303.3,193.9 L304.2,193.9 L305.0,187.9 L305.8,174.9 L306.7,170.3 L307.5,174.2 L308.4,183.3 L309.2,198.3 L310.1,217.0 L310.9,376.3 L311.7,245.9 L312.6,256.3 L313.4,261.5 L314.3,262.8 L315.1,261.0 L316.0,248.7 L316.8,224.6 L317.6,197.8 L318.5,182.5 L319.3,179.9 L320.2,181.4 L321.0,184.0 L321.9,188.2 L322.7,191.1 L323.5,192.9 L324.4,192.6 L325.2,185.6 L326.1,171.6 L326.9,166.6 L327.8,170.3 L328.6,178.8 L329.4,192.1 L330.3,211.3 L331.1,230.8 L332.0,248.2 L332.8,257.1 L333.7,261.5 L334.5,263.0 L335.3,261.2 L336.2,249.0 L337.0,224.6 L337.9,197.8 L338.7,182.5 L339.6,179.9 L340.4,181.4 L341.2,184.0 L342.1,188.2 L342.9,191.3 L343.8,193.1 L344.6,192.6 L345.4,185.9 L346.3,171.8 L347.1,166.9 L348.0,170.5 L348.8,179.1 L349.7,192.4 L350.5,211.8 L351.3,216.3 L352.2,242.5 L353.0,249.0 L353.9,252.4 L354.7,253.7 L355.6,251.1 L356.4,239.1 L357.2,214.4 L358.1,186.9 L358.9,173.9 L359.8,174.2 L360.6,177.5 L361.5,180.7 L362.3,185.3 L363.1,189.0 L364.0,190.8 L364.8,190.0 L365.7,183.0 L366.5,168.4 L367.4,163.8 L368.2,166.6 L369.0,176.2 L369.9,189.5 L370.7,209.8 L371.6,233.4 L372.4,242.8 L373.3,249.0 L374.1,253.4 L374.9,254.7 L375.8,252.1 L376.6,240.4 L377.5,215.7 L378.3,187.9 L379.2,175.2 L380.0,175.2 L380.8,178.3 L381.7,181.2 L382.5,186.6 L383.4,190.0 L384.2,191.8 L385.1,191.8 L385.9,185.9 L386.7,172.9 L387.6,168.2 L388.4,172.9 L389.3,182.2 L390.1,197.3 L391.0,215.7 L391.8,239.1 L392.6,248.2 L393.5,254.2 L394.3,259.1 L395.2,262.0 L396.0,263.0 L396.9,259.7 L397.7,245.6 L398.5,228.7 L399.4,213.9 L400.2,206.6 L401.1,203.0 L401.9,204.6 L402.8,206.9 L403.6,213.1 L404.4,215.0 L405.3,213.7 L406.1,208.7 L407.0,197.6 L407.8,192.6 L408.7,193.4 L409.5,199.6 L410.3,210.5 L411.2,225.6 L412.0,240.2 L412.9,250.0 L413.7,255.8 L414.6,259.4 L415.4,259.7 L416.2,258.1 L417.1,253.9 L417.9,245.4 L418.8,233.7 L419.6,222.0 L420.4,211.6 L421.3,202.8 L422.1,197.6 L423.0,203.3 L423.8,208.5 L424.7,213.4 L425.5,211.3 L426.3,208.2 L427.2,192.1 L428.0,186.4 L428.9,190.0 L429.7,198.6 L430.6,209.0 L431.4,223.3 L432.2,239.9 L433.1,249.3 L433.9,255.5 L434.8,259.9 L435.6,261.7 L436.5,259.7 L437.3,247.7 L438.1,223.3 L439.0,197.3 L439.8,182.7 L440.7,180.9 L441.5,182.5 L442.4,185.6 L443.2,189.2 L444.0,192.6 L444.9,195.7 L445.7,196.8 L446.6,191.6 L447.4,180.7 L448.3,175.7 L449.1,177.5 L449.9,190.3 L450.8,198.1 L451.6,221.2 L452.5,227.2 L453.3,251.6 L454.2,259.1 L455.0,263.8 L455.8,265.4 L456.7,264.1 L457.5,252.4 L458.4,225.6 L459.2,199.9 L460.1,186.1 L460.9,183.5 L461.7,184.6 L462.6,187.4 L463.4,190.5 L464.3,193.7 L465.1,196.8 L466.0,198.1 L466.8,193.1 L467.6,181.7 L468.5,176.5 L469.3,177.8 L470.2,189.8 L471.0,198.3 L471.9,220.4 L472.7,238.9 L473.5,250.8 L474.4,256.8 L475.2,260.2 L476.1,261.5 L476.9,259.1 L477.8,246.9 L478.6,222.8 L479.4,195.0 L480.3,182.0 L481.1,181.2 L482.0,183.3 L482.8,186.9 L483.7,190.3 L484.5,193.9 L485.3,197.0 L486.2,198.1 L487.0,192.4 L487.9,180.7 L488.7,175.2 L489.6,176.8 L490.4,187.9 L491.2,195.7 L492.1,218.3 L492.9,233.9 L493.8,248.5 L494.6,256.0 L495.4,259.9 L496.3,261.2 L497.1,258.6 L498.0,246.1 L498.8,221.2 L499.7,193.7 L500.5,180.1 L501.3,179.6 L502.2,182.2 L503.0,185.1 L503.9,189.0 L504.7,192.4 L505.6,195.0 L506.4,195.0 L507.2,188.5 L508.1,175.2 L508.9,169.5 L509.8,173.1 L510.6,181.7 L511.5,196.0 L512.3,214.4 L513.1,231.1 L514.0,243.8 L514.8,250.6 L515.7,254.2 L516.5,255.2 L517.4,252.4 L518.2,240.2 L519.0,215.0 L519.9,186.9 L520.7,174.7 L521.6,175.2 L522.4,178.8 L523.3,182.2 L524.1,187.4 L524.9,190.8 L525.8,192.9 L526.6,192.9 L527.5,185.9 L528.3,171.8 L529.2,166.6 L530.0,171.0 L530.8,178.6 L531.7,191.8 L532.5,211.1 L533.4,236.0 L534.2,242.3 L535.1,246.9 L535.9,251.9 L536.7,253.7 L537.6,252.9 L538.4,248.5 L539.3,236.8 L540.1,222.0 L541.0,207.4 L541.8,200.4 L542.6,199.4 L543.5,202.0 L544.3,205.1 L545.2,211.6 L546.0,214.7 L546.9,213.7 L547.7,208.7 L548.5,196.8 L549.4,191.6 L550.2,192.1 L551.1,198.3 L551.9,209.0 L552.8,223.5 L553.6,226.9 L554.4,247.4 L555.3,253.7 L556.1,257.3 L557.0,258.6 L557.8,257.6 L558.7,253.9 L559.5,244.6 L560.3,230.6 L561.2,217.6 L562.0,206.9 L562.9,199.9 L563.7,198.9 L564.6,203.0 L565.4,209.0 L566.2,210.3 L567.1,208.5 L567.9,202.8 L568.8,188.2 L569.6,179.1 L570.4,184.8 L571.3,193.1 L572.1,201.7 L573.0,217.6 L573.8,232.9 L574.7,243.0 L575.5,248.0 L576.3,251.6 L577.2,252.4 L578.0,249.0 L578.9,236.5 L579.7,211.8 L580.6,184.0 L581.4,172.3 L582.2,173.9 L583.1,177.8 L583.9,181.4 L584.8,186.6 L585.6,190.3 L586.5,192.6 L587.3,192.6 L588.1,186.4 L589.0,172.6 L589.8,167.4 L590.7,171.8 L591.5,180.4 L592.4,194.4 L593.2,213.4 L594.0,233.2 L594.9,244.3 L595.7,250.8 L596.6,254.5 L597.4,256.0 L598.3,253.4 L599.1,241.5 L599.9,217.6 L600.8,190.5 L601.6,177.5 L602.5,177.0 L603.3,180.1 L604.2,183.3 L605.0,187.7 L605.8,191.1 L606.7,193.7 L607.5,193.7 L608.4,187.7 L609.2,174.4 L610.1,169.0 L610.9,172.6 L611.7,181.4 L612.6,195.7 L613.4,214.2 L614.3,224.8 L615.1,242.3 L616.0,247.2 L616.8,249.8 L617.6,250.8 L618.5,247.7 L619.3,234.7 L620.2,209.5 L621.0,181.2 L621.9,168.2 L622.7,169.5 L623.5,173.6 L624.4,177.8 L625.2,182.5 L626.1,187.4 L626.9,189.8 L627.8,189.0 L628.6,181.7 L629.4,166.4 L630.3,161.2 L631.1,163.0 L632.0,172.1 L632.8,184.6 L633.7,204.0 L634.5,172.9 L635.3,171.8 L636.2,171.8 L637.0,171.8 L637.9,171.8 L638.7,171.8 L639.6,171.8 L640.4,171.8 L641.2,171.8 L642.1,171.8 L642.9,171.8 L643.8,171.8 L644.6,171.8 L645.4,171.8 L646.3,171.8 L647.1,171.8 L648.0,171.8 L648.8,171.8 L649.7,171.8 L650.5,171.8 L651.3,171.8 L652.2,171.8 L653.0,171.8 L653.9,171.8 L654.7,171.8 L655.6,219.4 L656.4,225.6 L657.2,228.2 L658.1,228.2 L658.9,224.6 L659.8,211.3 L660.6,187.9 L661.5,181.2 L662.3,179.9 L663.1,178.3 L664.0,177.0 L664.8,175.7 L665.7,174.4 L666.5,173.1 L667.4,171.6 L668.2,170.3 L669.0,169.0 L669.9,167.7 L670.7,166.1 L671.6,164.8 L672.4,165.1 L673.3,163.3 L674.1,183.5 L674.9,210.3 L675.8,213.4 L676.6,217.6 L677.5,222.8 L678.3,225.4 L679.2,227.2 L680.0,227.7" stroke="#9467bd" stroke-width="2" fill="none" opacity="0.8"/>
<!-- Total Generation -->
<path d="M80.0,258.1 L80.8,255.0 L81.7,257.3 L82.5,261.2 L83.4,268.8 L84.2,284.6 L85.1,284.1 L85.9,282.5 L86.7,271.9 L87.6,266.7 L88.4,281.8 L89.3,255.8 L90.1,242.3 L91.0,224.1 L91.8,268.8 L92.6,266.9 L93.5,255.0 L94.3,285.4 L95.2,287.7 L96.0,289.0 L96.9,271.1 L97.7,269.0 L98.5,268.8 L99.4,271.1 L100.2,222.2 L101.1,234.7 L101.9,248.0 L102.8,216.3 L103.6,202.2 L104.4,217.8 L105.3,228.0 L106.1,223.3 L107.0,217.6 L107.8,224.3 L108.7,245.9 L109.5,258.1 L110.3,261.0 L111.2,266.4 L112.0,274.5 L112.9,255.8 L113.7,246.1 L114.6,254.7 L115.4,223.5 L116.2,222.8 L117.1,219.6 L117.9,247.4 L118.8,250.8 L119.6,255.0 L120.4,256.8 L121.3,256.8 L122.1,245.1 L123.0,245.1 L123.8,245.9 L124.7,241.5 L125.5,223.0 L126.3,222.0 L127.2,231.1 L128.0,254.7 L128.9,256.5 L129.7,265.6 L130.6,275.8 L131.4,270.6 L132.2,266.2 L133.1,269.3 L133.9,258.6 L134.8,238.1 L135.6,200.7 L136.5,206.4 L137.3,181.7 L138.1,200.4 L139.0,212.4 L139.8,210.0 L140.7,207.2 L141.5,204.6 L142.4,218.3 L143.2,226.7 L144.0,189.8 L144.9,189.2 L145.7,195.2 L146.6,196.0 L147.4,209.8 L148.3,194.7 L149.1,229.0 L149.9,227.7 L150.8,218.6 L151.6,228.2 L152.5,216.8 L153.3,218.6 L154.2,209.8 L155.0,179.4 L155.8,179.6 L156.7,217.3 L157.5,207.2 L158.4,187.4 L159.2,189.5 L160.1,196.5 L160.9,195.2 L161.7,192.4 L162.6,200.4 L163.4,163.0 L164.3,168.7 L165.1,208.2 L166.0,200.2 L166.8,207.9 L167.6,209.0 L168.5,212.1 L169.3,219.1 L170.2,226.9 L171.0,223.3 L171.9,233.4 L172.7,231.3 L173.5,226.7 L174.4,241.2 L175.2,249.5 L176.1,223.5 L176.9,212.6 L177.8,207.2 L178.6,189.8 L179.4,183.3 L180.3,194.7 L181.1,148.2 L182.0,178.1 L182.8,184.0 L183.7,141.4 L184.5,138.6 L185.3,165.6 L186.2,150.8 L187.0,146.6 L187.9,145.3 L188.7,172.9 L189.6,178.1 L190.4,171.0 L191.2,173.1 L192.1,174.2 L192.9,178.1 L193.8,187.2 L194.6,177.0 L195.4,178.1 L196.3,189.2 L197.1,180.4 L198.0,172.3 L198.8,170.8 L199.7,168.4 L200.5,154.4 L201.3,143.5 L202.2,154.4 L203.0,124.0 L203.9,124.3 L204.7,131.3 L205.6,128.9 L206.4,149.0 L207.2,151.0 L208.1,147.9 L208.9,147.1 L209.8,155.2 L210.6,160.1 L211.5,232.9 L212.3,242.3 L213.1,238.1 L214.0,242.8 L214.8,252.1 L215.7,234.7 L216.5,247.4 L217.4,251.6 L218.2,228.5 L219.0,225.9 L219.9,226.4 L220.7,229.3 L221.6,227.4 L222.4,233.2 L223.3,240.7 L224.1,200.7 L224.9,139.3 L225.8,171.8 L226.6,171.8 L227.5,177.0 L228.3,183.0 L229.2,174.2 L230.0,181.4 L230.8,196.0 L231.7,191.8 L232.5,198.1 L233.4,195.0 L234.2,210.3 L235.1,201.7 L235.9,180.4 L236.7,172.3 L237.6,169.7 L238.4,159.9 L239.3,152.9 L240.1,156.8 L241.0,168.4 L241.8,185.6 L242.6,201.7 L243.5,188.7 L244.3,177.5 L245.2,163.8 L246.0,157.8 L246.9,162.5 L247.7,165.3 L248.5,169.2 L249.4,173.1 L250.2,208.7 L251.1,223.5 L251.9,220.2 L252.8,243.8 L253.6,271.9 L254.4,270.8 L255.3,267.5 L256.1,266.7 L257.0,266.9 L257.8,258.1 L258.7,241.7 L259.5,226.1 L260.3,214.2 L261.2,207.7 L262.0,207.4 L262.9,206.9 L263.7,223.0 L264.6,217.8 L265.4,223.8 L266.2,223.3 L267.1,225.6 L267.9,193.9 L268.8,215.5 L269.6,233.9 L270.4,233.9 L271.3,232.4 L272.1,221.5 L273.0,192.9 L273.8,186.9 L274.7,208.2 L275.5,203.5 L276.3,200.4 L277.2,200.9 L278.0,208.2 L278.9,215.5 L279.7,193.4 L280.6,157.8 L281.4,175.2 L282.2,196.3 L283.1,185.6 L283.9,177.5 L284.8,202.5 L285.6,205.1 L286.5,201.7 L287.3,205.1 L288.1,222.8 L289.0,209.5 L289.8,200.2 L290.7,183.5 L291.5,178.3 L292.4,188.2 L293.2,209.0 L294.0,221.5 L294.9,225.6 L295.7,223.8 L296.6,229.3 L297.4,225.1 L298.3,225.9 L299.1,192.1 L299.9,184.8 L300.8,163.3 L301.6,159.6 L302.5,176.2 L303.3,175.5 L304.2,207.7 L305.0,211.1 L305.8,183.3 L306.7,192.9 L307.5,194.2 L308.4,211.3 L309.2,210.8 L310.1,197.0 L310.9,169.5 L311.7,189.8 L312.6,204.6 L313.4,198.9 L314.3,197.8 L315.1,198.1 L316.0,197.8 L316.8,191.8 L317.6,151.6 L318.5,183.0 L319.3,179.6 L320.2,180.1 L321.0,176.2 L321.9,181.2 L322.7,173.4 L323.5,184.0 L324.4,200.4 L325.2,201.5 L326.1,152.6 L326.9,154.4 L327.8,175.5 L328.6,171.3 L329.4,182.2 L330.3,180.7 L331.1,225.6 L332.0,231.3 L332.8,236.3 L333.7,220.9 L334.5,211.3 L335.3,248.7 L336.2,222.5 L337.0,188.7 L337.9,159.9 L338.7,177.8 L339.6,183.0 L340.4,187.4 L341.2,182.0 L342.1,194.4 L342.9,200.2 L343.8,190.3 L344.6,205.6 L345.4,197.0 L346.3,185.9 L347.1,196.3 L348.0,238.1 L348.8,225.1 L349.7,244.8 L350.5,248.2 L351.3,245.1 L352.2,241.2 L353.0,286.7 L353.9,297.6 L354.7,296.3 L355.6,287.7 L356.4,281.8 L357.2,259.9 L358.1,191.3 L358.9,223.8 L359.8,218.1 L360.6,188.7 L361.5,165.1 L362.3,171.6 L363.1,178.8 L364.0,179.4 L364.8,187.2 L365.7,189.5 L366.5,172.1 L367.4,167.4 L368.2,179.1 L369.0,173.6 L369.9,182.5 L370.7,188.2 L371.6,192.6 L372.4,192.6 L373.3,202.8 L374.1,179.6 L374.9,190.0 L375.8,193.7 L376.6,179.6 L377.5,158.8 L378.3,147.4 L379.2,181.7 L380.0,118.3 L380.8,115.2 L381.7,114.1 L382.5,129.7 L383.4,132.8 L384.2,159.9 L385.1,160.4 L385.9,141.9 L386.7,95.9 L387.6,105.8 L388.4,127.4 L389.3,115.2 L390.1,130.8 L391.0,144.3 L391.8,149.5 L392.6,131.3 L393.5,112.8 L394.3,134.9 L395.2,116.2 L396.0,116.0 L396.9,105.6 L397.7,87.4 L398.5,93.1 L399.4,125.6 L400.2,138.3 L401.1,147.7 L401.9,145.6 L402.8,161.7 L403.6,162.5 L404.4,175.5 L405.3,181.2 L406.1,183.8 L407.0,147.1 L407.8,167.4 L408.7,159.1 L409.5,152.9 L410.3,178.1 L411.2,172.3 L412.0,109.2 L412.9,105.3 L413.7,184.8 L414.6,193.1 L415.4,179.6 L416.2,160.7 L417.1,149.2 L417.9,150.3 L418.8,118.0 L419.6,155.5 L420.4,162.0 L421.3,179.9 L422.1,197.6 L423.0,199.1 L423.8,209.5 L424.7,201.7 L425.5,190.3 L426.3,181.4 L427.2,87.4 L428.0,68.9 L428.9,67.6 L429.7,92.0 L430.6,69.7 L431.4,145.3 L432.2,164.8 L433.1,200.7 L433.9,203.8 L434.8,204.0 L435.6,189.5 L436.5,161.4 L437.3,147.4 L438.1,146.4 L439.0,149.7 L439.8,198.3 L440.7,177.8 L441.5,161.7 L442.4,179.9 L443.2,186.9 L444.0,206.1 L444.9,209.0 L445.7,184.8 L446.6,177.3 L447.4,141.7 L448.3,144.8 L449.1,144.0 L449.9,158.8 L450.8,194.7 L451.6,196.3 L452.5,183.3 L453.3,185.1 L454.2,184.8 L455.0,186.6 L455.8,195.7 L456.7,184.8 L457.5,180.9 L458.4,126.6 L459.2,117.8 L460.1,167.4 L460.9,166.1 L461.7,198.3 L462.6,207.4 L463.4,206.1 L464.3,203.5 L465.1,205.3 L466.0,225.9 L466.8,220.2 L467.6,164.8 L468.5,178.3 L469.3,183.8 L470.2,166.4 L471.0,169.5 L471.9,200.4 L472.7,204.8 L473.5,221.5 L474.4,218.1 L475.2,172.3 L476.1,180.9 L476.9,189.2 L477.8,182.0 L478.6,108.7 L479.4,99.3 L480.3,166.6 L481.1,182.2 L482.0,197.0 L482.8,191.3 L483.7,195.2 L484.5,195.2 L485.3,187.4 L486.2,212.1 L487.0,200.4 L487.9,149.7 L488.7,117.5 L489.6,160.7 L490.4,153.9 L491.2,172.1 L492.1,182.2 L492.9,191.8 L493.8,194.7 L494.6,191.6 L495.4,196.5 L496.3,193.1 L497.1,200.4 L498.0,191.8 L498.8,195.0 L499.7,156.2 L500.5,183.0 L501.3,165.8 L502.2,197.8 L503.0,211.3 L503.9,215.0 L504.7,225.6 L505.6,218.3 L506.4,206.1 L507.2,217.3 L508.1,215.7 L508.9,192.6 L509.8,172.1 L510.6,171.0 L511.5,167.9 L512.3,170.0 L513.1,160.9 L514.0,192.4 L514.8,211.3 L515.7,205.6 L516.5,207.7 L517.4,206.1 L518.2,191.3 L519.0,174.4 L519.9,150.3 L520.7,117.0 L521.6,161.2 L522.4,175.7 L523.3,195.0 L524.1,197.0 L524.9,207.7 L525.8,198.9 L526.6,189.5 L527.5,200.9 L528.3,182.7 L529.2,168.7 L530.0,184.8 L530.8,190.3 L531.7,195.2 L532.5,192.1 L533.4,192.4 L534.2,225.4 L535.1,219.4 L535.9,208.7 L536.7,230.6 L537.6,224.3 L538.4,197.8 L539.3,178.6 L540.1,177.5 L541.0,204.0 L541.8,164.8 L542.6,175.5 L543.5,166.9 L544.3,166.4 L545.2,173.9 L546.0,175.7 L546.9,196.3 L547.7,186.1 L548.5,174.4 L549.4,132.8 L550.2,142.2 L551.1,167.7 L551.9,170.8 L552.8,155.2 L553.6,174.9 L554.4,184.3 L555.3,193.1 L556.1,194.4 L557.0,179.9 L557.8,186.6 L558.7,191.6 L559.5,175.5 L560.3,163.0 L561.2,166.6 L562.0,180.4 L562.9,213.4 L563.7,216.5 L564.6,222.8 L565.4,219.9 L566.2,201.7 L567.1,227.4 L567.9,215.2 L568.8,141.4 L569.6,143.2 L570.4,139.3 L571.3,134.9 L572.1,139.3 L573.0,144.5 L573.8,145.3 L574.7,147.7 L575.5,145.3 L576.3,131.8 L577.2,126.6 L578.0,111.3 L578.9,91.5 L579.7,75.7 L580.6,75.4 L581.4,115.4 L582.2,104.8 L583.1,69.4 L583.9,90.7 L584.8,105.3 L585.6,87.6 L586.5,97.0 L587.3,108.4 L588.1,83.0 L589.0,78.3 L589.8,90.2 L590.7,88.1 L591.5,85.8 L592.4,83.0 L593.2,84.8 L594.0,82.4 L594.9,89.2 L595.7,99.1 L596.6,91.0 L597.4,94.4 L598.3,105.8 L599.1,112.8 L599.9,98.3 L600.8,95.4 L601.6,90.7 L602.5,111.3 L603.3,134.9 L604.2,92.0 L605.0,109.2 L605.8,115.4 L606.7,99.8 L607.5,112.1 L608.4,107.6 L609.2,105.6 L610.1,94.1 L610.9,81.7 L611.7,85.0 L612.6,84.0 L613.4,79.8 L614.3,90.7 L615.1,105.3 L616.0,123.0 L616.8,100.6 L617.6,101.9 L618.5,96.5 L619.3,117.0 L620.2,127.9 L621.0,143.2 L621.9,155.2 L622.7,144.5 L623.5,159.1 L624.4,171.6 L625.2,201.7 L626.1,190.5 L626.9,189.5 L627.8,198.1 L628.6,171.3 L629.4,167.7 L630.3,189.8 L631.1,183.8 L632.0,198.6 L632.8,183.0 L633.7,174.9 L634.5,167.9 L635.3,164.5 L636.2,195.7 L637.0,168.2 L637.9,159.1 L638.7,124.8 L639.6,128.2 L640.4,132.1 L641.2,152.1 L642.1,161.2 L642.9,159.6 L643.8,183.3 L644.6,151.6 L645.4,159.6 L646.3,140.9 L647.1,139.1 L648.0,125.0 L648.8,123.0 L649.7,129.7 L650.5,147.4 L651.3,155.2 L652.2,162.0 L653.0,164.5 L653.9,176.8 L654.7,178.8 L655.6,183.3 L656.4,230.0 L657.2,226.7 L658.1,231.1 L658.9,231.3 L659.8,230.0 L660.6,204.3 L661.5,204.8 L662.3,199.9 L663.1,205.6 L664.0,200.7 L664.8,197.0 L665.7,194.4 L666.5,193.4 L667.4,183.3 L668.2,201.5 L669.0,196.5 L669.9,199.9 L670.7,197.3 L671.6,187.7 L672.4,195.5 L673.3,200.7 L674.1,189.0 L674.9,171.0 L675.8,177.0 L676.6,163.5 L677.5,152.9 L678.3,156.0 L679.2,155.7 L680.0,156.0" stroke="#8c564b" stroke-width="2" fill="none" opacity="0.8"/>
<!-- Forecast Difference -->
<path d="M80.0,420.0 L80.8,420.0 L81.7,420.0 L82.5,420.0 L83.4,420.0 L84.2,420.0 L85.1,420.0 L85.9,420.0 L86.7,420.0 L87.6,420.0 L88.4,420.0 L89.3,420.0 L90.1,420.0 L91.0,420.0 L91.8,420.0 L92.6,420.0 L93.5,420.0 L94.3,420.0 L95.2,420.0 L96.0,420.0 L96.9,420.0 L97.7,420.0 L98.5,420.0 L99.4,420.0 L100.2,420.0 L101.1,420.0 L101.9,420.0 L102.8,420.0 L103.6,420.0 L104.4,420.0 L105.3,420.0 L106.1,420.0 L107.0,420.0 L107.8,420.0 L108.7,420.0 L109.5,420.0 L110.3,420.0 L111.2,420.0 L112.0,420.0 L112.9,420.0 L113.7,420.0 L114.6,420.0 L115.4,420.0 L116.2,420.0 L117.1,420.0 L117.9,420.0 L118.8,420.0 L119.6,420.0 L120.4,420.0 L121.3,420.0 L122.1,420.0 L123.0,420.0 L123.8,420.0 L124.7,420.0 L125.5,420.0 L126.3,420.0 L127.2,420.0 L128.0,420.0 L128.9,420.0 L129.7,420.0 L130.6,420.0 L131.4,420.0 L132.2,420.0 L133.1,420.0 L133.9,420.0 L134.8,420.0 L135.6,420.0 L136.5,420.0 L137.3,420.0 L138.1,420.0 L139.0,420.0 L139.8,420.0 L140.7,420.0 L141.5,420.0 L142.4,420.0 L143.2,420.0 L144.0,420.0 L144.9,420.0 L145.7,420.0 L146.6,420.0 L147.4,420.0 L148.3,420.0 L149.1,420.0 L149.9,420.0 L150.8,420.0 L151.6,420.0 L152.5,420.0 L153.3,420.0 L154.2,420.0 L155.0,420.0 L155.8,420.0 L156.7,420.0 L157.5,420.0 L158.4,420.0 L159.2,420.0 L160.1,420.0 L160.9,420.0 L161.7,420.0 L162.6,420.0 L163.4,420.0 L164.3,420.0 L165.1,420.0 L166.0,420.0 L166.8,420.0 L167.6,420.0 L168.5,420.0 L169.3,420.0 L170.2,420.0 L171.0,420.0 L171.9,420.0 L172.7,420.0 L173.5,420.0 L174.4,420.0 L175.2,420.0 L176.1,420.0 L176.9,420.0 L177.8,420.0 L178.6,420.0 L179.4,420.0 L180.3,420.0 L181.1,420.0 L182.0,420.0 L182.8,420.0 L183.7,420.0 L184.5,420.0 L185.3,420.0 L186.2,420.0 L187.0,420.0 L187.9,420.0 L188.7,420.0 L189.6,420.0 L190.4,420.0 L191.2,420.0 L192.1,420.0 L192.9,420.0 L193.8,420.0 L194.6,420.0 L195.4,420.0 L196.3,420.0 L197.1,420.0 L198.0,420.0 L198.8,420.0 L199.7,420.0 L200.5,420.0 L201.3,420.0 L202.2,420.0 L203.0,420.0 L203.9,420.0 L204.7,420.0 L205.6,420.0 L206.4,420.0 L207.2,420.0 L208.1,420.0 L208.9,420.0 L209.8,420.0 L210.6,420.0 L211.5,420.0 L212.3,420.0 L213.1,420.0 L214.0,420.0 L214.8,420.0 L215.7,420.0 L216.5,420.0 L217.4,420.0 L218.2,420.0 L219.0,420.0 L219.9,420.0 L220.7,420.0 L221.6,420.0 L222.4,420.0 L223.3,420.0 L224.1,420.0 L224.9,420.0 L225.8,420.0 L226.6,420.0 L227.5,420.0 L228.3,420.0 L229.2,420.0 L230.0,420.0 L230.8,420.0 L231.7,420.0 L232.5,420.0 L233.4,420.0 L234.2,420.0 L235.1,420.0 L235.9,420.0 L236.7,420.0 L237.6,420.0 L238.4,420.0 L239.3,420.0 L240.1,420.0 L241.0,420.0 L241.8,420.0 L242.6,420.0 L243.5,420.0 L244.3,420.0 L245.2,420.0 L246.0,420.0 L246.9,420.0 L247.7,420.0 L248.5,420.0 L249.4,420.0 L250.2,420.0 L251.1,420.0 L251.9,420.0 L252.8,420.0 L253.6,420.0 L254.4,420.0 L255.3,420.0 L256.1,420.0 L257.0,420.0 L257.8,420.0 L258.7,420.0 L259.5,420.0 L260.3,420.0 L261.2,420.0 L262.0,420.0 L262.9,420.0 L263.7,420.0 L264.6,420.0 L265.4,420.0 L266.2,420.0 L267.1,420.0 L267.9,420.0 L268.8,420.0 L269.6,420.0 L270.4,420.0 L271.3,420.0 L272.1,420.0 L273.0,420.0 L273.8,420.0 L274.7,420.0 L275.5,420.0 L276.3,420.0 L277.2,420.0 L278.0,420.0 L278.9,420.0 L279.7,420.0 L280.6,420.0 L281.4,420.0 L282.2,420.0 L283.1,420.0 L283.9,420.0 L284.8,420.0 L285.6,420.0 L286.5,420.0 L287.3,420.0 L288.1,420.0 L289.0,420.0 L289.8,420.0 L290.7,420.0 L291.5,420.0 L292.4,420.0 L293.2,420.0 L294.0,420.0 L294.9,420.0 L295.7,420.0 L296.6,420.0 L297.4,420.0 L298.3,420.0 L299.1,420.0 L299.9,420.0 L300.8,420.0 L301.6,420.0 L302.5,420.0 L303.3,420.0 L304.2,420.0 L305.0,420.0 L305.8,420.0 L306.7,420.0 L307.5,420.0 L308.4,420.0 L309.2,420.0 L310.1,420.0 L310.9,420.0 L311.7,420.0 L312.6,420.0 L313.4,420.0 L314.3,420.0 L315.1,420.0 L316.0,420.0 L316.8,420.0 L317.6,420.0 L318.5,420.0 L319.3,420.0 L320.2,420.0 L321.0,420.0 L321.9,420.0 L322.7,420.0 L323.5,420.0 L324.4,420.0 L325.2,420.0 L326.1,420.0 L326.9,420.0 L327.8,420.0 L328.6,420.0 L329.4,420.0 L330.3,420.0 L331.1,420.0 L332.0,420.0 L332.8,420.0 L333.7,420.0 L334.5,420.0 L335.3,420.0 L336.2,420.0 L337.0,420.0 L337.9,420.0 L338.7,420.0 L339.6,420.0 L340.4,420.0 L341.2,420.0 L342.1,420.0 L342.9,420.0 L343.8,420.0 L344.6,420.0 L345.4,420.0 L346.3,420.0 L347.1,420.0 L348.0,420.0 L348.8,420.0 L349.7,420.0 L350.5,420.0 L351.3,420.0 L352.2,420.0 L353.0,420.0 L353.9,420.0 L354.7,420.0 L355.6,420.0 L356.4,420.0 L357.2,420.0 L358.1,420.0 L358.9,420.0 L359.8,420.0 L360.6,420.0 L361.5,420.0 L362.3,420.0 L363.1,420.0 L364.0,420.0 L364.8,420.0 L365.7,420.0 L366.5,420.0 L367.4,420.0 L368.2,420.0 L369.0,420.0 L369.9,420.0 L370.7,420.0 L371.6,420.0 L372.4,420.0 L373.3,420.0 L374.1,420.0 L374.9,420.0 L375.8,420.0 L376.6,420.0 L377.5,420.0 L378.3,420.0 L379.2,420.0 L380.0,420.0 L380.8,420.0 L381.7,420.0 L382.5,420.0 L383.4,420.0 L384.2,420.0 L385.1,420.0 L385.9,420.0 L386.7,420.0 L387.6,420.0 L388.4,420.0 L389.3,420.0 L390.1,420.0 L391.0,420.0 L391.8,420.0 L392.6,420.0 L393.5,420.0 L394.3,420.0 L395.2,420.0 L396.0,420.0 L396.9,420.0 L397.7,420.0 L398.5,420.0 L399.4,420.0 L400.2,420.0 L401.1,420.0 L401.9,420.0 L402.8,420.0 L403.6,420.0 L404.4,420.0 L405.3,420.0 L406.1,420.0 L407.0,420.0 L407.8,420.0 L408.7,420.0 L409.5,420.0 L410.3,420.0 L411.2,420.0 L412.0,420.0 L412.9,420.0 L413.7,420.0 L414.6,420.0 L415.4,420.0 L416.2,420.0 L417.1,420.0 L417.9,420.0 L418.8,420.0 L419.6,420.0 L420.4,420.0 L421.3,420.0 L422.1,420.0 L423.0,420.0 L423.8,420.0 L424.7,420.0 L425.5,420.0 L426.3,420.0 L427.2,420.0 L428.0,420.0 L428.9,420.0 L429.7,420.0 L430.6,420.0 L431.4,420.0 L432.2,420.0 L433.1,420.0 L433.9,420.0 L434.8,420.0 L435.6,420.0 L436.5,420.0 L437.3,420.0 L438.1,420.0 L439.0,420.0 L439.8,420.0 L440.7,420.0 L441.5,420.0 L442.4,420.0 L443.2,420.0 L444.0,420.0 L444.9,420.0 L445.7,420.0 L446.6,420.0 L447.4,420.0 L448.3,420.0 L449.1,420.0 L449.9,420.0 L450.8,420.0 L451.6,420.0 L452.5,420.0 L453.3,420.0 L454.2,420.0 L455.0,420.0 L455.8,420.0 L456.7,420.0 L457.5,420.0 L458.4,420.0 L459.2,420.0 L460.1,420.0 L460.9,420.0 L461.7,420.0 L462.6,420.0 L463.4,420.0 L464.3,420.0 L465.1,420.0 L466.0,420.0 L466.8,420.0 L467.6,420.0 L468.5,420.0 L469.3,420.0 L470.2,420.0 L471.0,420.0 L471.9,420.0 L472.7,420.0 L473.5,420.0 L474.4,420.0 L475.2,420.0 L476.1,420.0 L476.9,420.0 L477.8,420.0 L478.6,420.0 L479.4,420.0 L480.3,420.0 L481.1,420.0 L482.0,420.0 L482.8,420.0 L483.7,420.0 L484.5,420.0 L485.3,420.0 L486.2,420.0 L487.0,420.0 L487.9,420.0 L488.7,420.0 L489.6,420.0 L490.4,420.0 L491.2,420.0 L492.1,420.0 L492.9,420.0 L493.8,420.0 L494.6,420.0 L495.4,420.0 L496.3,420.0 L497.1,420.0 L498.0,420.0 L498.8,420.0 L499.7,420.0 L500.5,420.0 L501.3,420.0 L502.2,420.0 L503.0,420.0 L503.9,420.0 L504.7,420.0 L505.6,420.0 L506.4,420.0 L507.2,420.0 L508.1,420.0 L508.9,420.0 L509.8,420.0 L510.6,420.0 L511.5,420.0 L512.3,420.0 L513.1,420.0 L514.0,420.0 L514.8,420.0 L515.7,420.0 L516.5,420.0 L517.4,420.0 L518.2,420.0 L519.0,420.0 L519.9,420.0 L520.7,420.0 L521.6,420.0 L522.4,420.0 L523.3,420.0 L524.1,420.0 L524.9,420.0 L525.8,420.0 L526.6,420.0 L527.5,420.0 L528.3,420.0 L529.2,420.0 L530.0,420.0 L530.8,420.0 L531.7,420.0 L532.5,420.0 L533.4,420.0 L534.2,420.0 L535.1,420.0 L535.9,420.0 L536.7,420.0 L537.6,420.0 L538.4,420.0 L539.3,420.0 L540.1,420.0 L541.0,420.0 L541.8,420.0 L542.6,420.0 L543.5,420.0 L544.3,420.0 L545.2,420.0 L546.0,420.0 L546.9,420.0 L547.7,420.0 L548.5,420.0 L549.4,420.0 L550.2,420.0 L551.1,420.0 L551.9,420.0 L552.8,420.0 L553.6,420.0 L554.4,420.0 L555.3,420.0 L556.1,420.0 L557.0,420.0 L557.8,420.0 L558.7,420.0 L559.5,420.0 L560.3,420.0 L561.2,420.0 L562.0,420.0 L562.9,420.0 L563.7,420.0 L564.6,420.0 L565.4,420.0 L566.2,420.0 L567.1,420.0 L567.9,420.0 L568.8,420.0 L569.6,420.0 L570.4,420.0 L571.3,420.0 L572.1,420.0 L573.0,420.0 L573.8,420.0 L574.7,420.0 L575.5,420.0 L576.3,420.0 L577.2,420.0 L578.0,420.0 L578.9,420.0 L579.7,420.0 L580.6,420.0 L581.4,420.0 L582.2,420.0 L583.1,420.0 L583.9,420.0 L584.8,420.0 L585.6,420.0 L586.5,420.0 L587.3,420.0 L588.1,420.0 L589.0,420.0 L589.8,420.0 L590.7,420.0 L591.5,420.0 L592.4,420.0 L593.2,420.0 L594.0,420.0 L594.9,420.0 L595.7,420.0 L596.6,420.0 L597.4,420.0 L598.3,420.0 L599.1,420.0 L599.9,420.0 L600.8,420.0 L601.6,420.0 L602.5,420.0 L603.3,420.0 L604.2,420.0 L605.0,420.0 L605.8,420.0 L606.7,420.0 L607.5,420.0 L608.4,420.0 L609.2,420.0 L610.1,420.0 L610.9,420.0 L611.7,420.0 L612.6,420.0 L613.4,420.0 L614.3,420.0 L615.1,420.0 L616.0,420.0 L616.8,420.0 L617.6,420.0 L618.5,420.0 L619.3,420.0 L620.2,420.0 L621.0,420.0 L621.9,420.0 L622.7,420.0 L623.5,420.0 L624.4,420.0 L625.2,420.0 L626.1,420.0 L626.9,420.0 L627.8,420.0 L628.6,420.0 L629.4,420.0 L630.3,420.0 L631.1,420.0 L632.0,420.0 L632.8,420.0 L633.7,420.0 L634.5,420.0 L635.3,420.0 L636.2,420.0 L637.0,420.0 L637.9,420.0 L638.7,420.0 L639.6,420.0 L640.4,420.0 L641.2,420.0 L642.1,420.0 L642.9,420.0 L643.8,420.0 L644.6,420.0 L645.4,420.0 L646.3,420.0 L647.1,420.0 L648.0,420.0 L648.8,420.0 L649.7,420.0 L650.5,420.0 L651.3,420.0 L652.2,420.0 L653.0,420.0 L653.9,420.0 L654.7,420.0 L655.6,420.0 L656.4,420.0 L657.2,420.0 L658.1,420.0 L658.9,420.0 L659.8,420.0 L660.6,420.0 L661.5,420.0 L662.3,420.0 L663.1,420.0 L664.0,420.0 L664.8,420.0 L665.7,420.0 L666.5,420.0 L667.4,420.0 L668.2,420.0 L669.0,420.0 L669.9,420.0 L670.7,420.0 L671.6,420.0 L672.4,420.0 L673.3,420.0 L674.1,420.0 L674.9,420.0 L675.8,420.0 L676.6,420.0 L677.5,420.0 L678.3,420.0 L679.2,420.0 L680.0,420.0" stroke="#e377c2" stroke-width="2" fill="none" opacity="0.8"/>

<!-- Legend -->
<line x1="690" y1="70" x2="705" y2="70" stroke="#1f77b4" stroke-width="3"/>
<text x="710" y="74" class="legend">Wind Generation</text>
<line x1="690" y1="88" x2="705" y2="88" stroke="#ff7f0e" stroke-width="3"/>
<text x="710" y="92" class="legend">Hydro Generation</text>
<line x1="690" y1="106" x2="705" y2="106" stroke="#2ca02c" stroke-width="3"/>
<text x="710" y="110" class="legend">Thermal Generation</text>
<line x1="690" y1="124" x2="705" y2="124" stroke="#d62728" stroke-width="3"/>
<text x="710" y="128" class="legend">Solar Generation</text>
<line x1="690" y1="142" x2="705" y2="142" stroke="#9467bd" stroke-width="3"/>
<text x="710" y="146" class="legend">Forecast</text>
<line x1="690" y1="160" x2="705" y2="160" stroke="#8c564b" stroke-width="3"/>
<text x="710" y="164" class="legend">Total Generation</text>
<line x1="690" y1="178" x2="705" y2="178" stroke="#e377c2" stroke-width="3"/>
<text x="710" y="182" class="legend">Forecast Difference</text>

<!-- Date range -->
<text x="80" y="495" class="legend">Range: 12/25 - 01/24/2026 (713 records)</text>
</svg>