<?xml version="1.0" encoding="UTF-8"?>
<svg width="800" height="500" xmlns="http://www.w3.org/2000/svg">
<style>
.axis-line { stroke: #333; stroke-width: 1; }
.grid-line { stroke: #ddd; stroke-width: 0.5; }
.title { font: 16px Arial; text-anchor: middle; fill: #333; }
.axis-label { font: 12px Arial; text-anchor: middle; fill: #666; }
.legend { font: 10px Arial; fill: #333; }
</style>

<!-- Title -->
<text x="400.0" y="25" class="title">Northwestern Energy Generation Data - Past 30 Days</text>

<!-- Plot area background -->
<rect x="80" y="50" width="600" height="370" fill="white" stroke="#ddd"/>

<!-- Y-axis -->
<line x1="80" y1="50" x2="80" y2="420" class="axis-line"/>
<text x="30" y="235.0" class="axis-label" transform="rotate(-90, 30, 235.0)">Generation (MW)</text>

<!-- X-axis -->
<line x1="80" y1="420" x2="680" y2="420" class="axis-line"/>
<text x="380.0" y="480" class="axis-label">Time</text>
<line x1="80" y1="420.0" x2="680" y2="420.0" class="grid-line"/>
<text x="70" y="425.0" class="legend" text-anchor="end">0</text>
<line x1="80" y1="327.5" x2="680" y2="327.5" class="grid-line"/>
<text x="70" y="332.5" class="legend" text-anchor="end">302</text>
<line x1="80" y1="235.0" x2="680" y2="235.0" class="grid-line"/>
<text x="70" y="240.0" class="legend" text-anchor="end">604</text>
<line x1="80" y1="142.5" x2="680" y2="142.5" class="grid-line"/>
<text x="70" y="147.5" class="legend" text-anchor="end">906</text>
<line x1="80" y1="50.0" x2="680" y2="50.0" class="grid-line"/>
<text x="70" y="55.0" class="legend" text-anchor="end">1209</text>
<!-- Wind Generation -->
<path d="M80.0,395.5 L80.8,397.3 L81.7,399.8 L82.5,412.0 L83.4,416.6 L84.2,416.9 L85.0,417.9 L85.9,417.6 L86.7,416.3 L87.6,416.6 L88.4,415.4 L89.3,413.9 L90.1,414.5 L90.9,416.9 L91.8,415.7 L92.6,412.3 L93.5,409.0 L94.3,406.8 L95.1,405.6 L96.0,411.4 L96.8,408.4 L97.7,409.0 L98.5,406.8 L99.4,403.8 L100.2,407.4 L101.0,407.4 L101.9,397.0 L102.7,389.7 L103.6,379.6 L104.4,394.6 L105.2,412.3 L106.1,411.1 L106.9,410.8 L107.8,411.7 L108.6,415.1 L109.5,411.4 L110.3,406.8 L111.1,399.2 L112.0,383.0 L112.8,371.0 L113.7,361.2 L114.5,348.1 L115.3,377.1 L116.2,369.8 L117.0,373.5 L117.9,367.6 L118.7,365.5 L119.6,364.3 L120.4,359.4 L121.2,353.0 L122.1,332.7 L122.9,333.1 L123.8,339.5 L124.6,345.9 L125.4,355.1 L126.3,358.8 L127.1,365.2 L128.0,368.9 L128.8,384.8 L129.6,396.4 L130.5,405.9 L131.3,410.5 L132.2,409.3 L133.0,409.9 L133.9,411.1 L134.7,411.7 L135.5,413.3 L136.4,412.0 L137.2,403.8 L138.1,398.6 L138.9,400.1 L139.7,404.1 L140.6,405.3 L141.4,409.6 L142.3,410.2 L143.1,409.3 L144.0,407.4 L144.8,398.3 L145.6,386.9 L146.5,374.7 L147.3,380.2 L148.2,397.0 L149.0,408.4 L149.8,413.3 L150.7,415.4 L151.5,416.6 L152.4,418.5 L153.2,413.9 L154.1,406.5 L154.9,413.0 L155.7,413.6 L156.6,409.0 L157.4,386.6 L158.3,381.7 L159.1,385.7 L159.9,372.5 L160.8,379.3 L161.6,354.8 L162.5,343.8 L163.3,363.7 L164.2,389.4 L165.0,371.9 L165.8,335.8 L166.7,322.3 L167.5,353.6 L168.4,323.3 L169.2,337.6 L170.0,340.7 L170.9,317.7 L171.7,330.6 L172.6,326.9 L173.4,348.1 L174.2,344.1 L175.1,348.4 L175.9,359.1 L176.8,364.3 L177.6,377.4 L178.5,373.5 L179.3,348.1 L180.1,365.5 L181.0,357.5 L181.8,329.1 L182.7,359.1 L183.5,359.1 L184.3,322.9 L185.2,314.7 L186.0,313.5 L186.9,321.1 L187.7,341.9 L188.6,328.5 L189.4,325.1 L190.2,322.9 L191.1,315.3 L191.9,312.5 L192.8,314.4 L193.6,348.4 L194.4,322.3 L195.3,314.4 L196.1,321.7 L197.0,339.8 L197.8,318.7 L198.7,318.7 L199.5,317.1 L200.3,338.9 L201.2,352.0 L202.0,332.1 L202.9,329.1 L203.7,346.2 L204.5,356.6 L205.4,357.2 L206.2,365.8 L207.1,370.7 L207.9,374.4 L208.8,396.1 L209.6,398.9 L210.4,400.4 L211.3,392.4 L212.1,396.4 L213.0,404.1 L213.8,407.8 L214.6,398.0 L215.5,398.3 L216.3,403.2 L217.2,398.0 L218.0,395.8 L218.8,400.1 L219.7,398.3 L220.5,405.9 L221.4,408.1 L222.2,413.0 L223.1,411.1 L223.9,382.3 L224.7,372.2 L225.6,349.0 L226.4,349.6 L227.3,368.6 L228.1,364.9 L228.9,382.0 L229.8,373.8 L230.6,351.1 L231.5,362.4 L232.3,367.3 L233.2,367.6 L234.0,380.2 L234.8,389.7 L235.7,369.2 L236.5,383.0 L237.4,377.4 L238.2,376.2 L239.0,375.6 L239.9,344.4 L240.7,335.5 L241.6,333.7 L242.4,332.1 L243.3,355.4 L244.1,353.3 L244.9,357.9 L245.8,332.1 L246.6,342.8 L247.5,363.4 L248.3,365.5 L249.1,366.1 L250.0,382.0 L250.8,370.7 L251.7,376.2 L252.5,374.7 L253.4,379.9 L254.2,371.3 L255.0,377.4 L255.9,376.5 L256.7,362.1 L257.6,364.6 L258.4,374.7 L259.2,380.8 L260.1,390.3 L260.9,375.3 L261.8,389.7 L262.6,405.6 L263.5,405.0 L264.3,397.0 L265.1,395.5 L266.0,401.9 L266.8,404.4 L267.7,413.6 L268.5,407.8 L269.3,403.8 L270.2,398.6 L271.0,406.2 L271.9,412.3 L272.7,414.2 L273.5,416.0 L274.4,415.1 L275.2,411.1 L276.1,409.3 L276.9,412.0 L277.8,401.9 L278.6,389.1 L279.4,376.5 L280.3,365.5 L281.1,357.5 L282.0,358.8 L282.8,353.3 L283.6,374.1 L284.5,370.4 L285.3,369.5 L286.2,371.6 L287.0,372.9 L287.9,381.7 L288.7,396.4 L289.5,395.5 L290.4,392.8 L291.2,377.1 L292.1,370.7 L292.9,357.2 L293.7,360.6 L294.6,371.0 L295.4,364.3 L296.3,379.3 L297.1,391.2 L298.0,390.6 L298.8,367.0 L299.6,352.6 L300.5,369.8 L301.3,363.4 L302.2,371.9 L303.0,369.5 L303.8,386.0 L304.7,374.7 L305.5,374.1 L306.4,378.7 L307.2,390.0 L308.1,398.3 L308.9,401.0 L309.7,401.3 L310.6,405.6 L311.4,398.0 L312.3,402.2 L313.1,388.5 L313.9,375.9 L314.8,366.1 L315.6,374.7 L316.5,371.9 L317.3,373.8 L318.1,372.5 L319.0,386.9 L319.8,390.3 L320.7,391.5 L321.5,390.6 L322.4,399.2 L323.2,387.2 L324.0,392.1 L324.9,404.4 L325.7,394.3 L326.6,383.3 L327.4,390.3 L328.2,405.0 L329.1,399.8 L329.9,388.2 L330.8,393.7 L331.6,398.3 L332.5,405.3 L333.3,398.0 L334.1,392.1 L335.0,393.7 L335.8,397.3 L336.7,401.0 L337.5,403.8 L338.3,412.0 L339.2,412.3 L340.0,414.5 L340.9,416.9 L341.7,416.0 L342.6,415.7 L343.4,414.8 L344.2,409.0 L345.1,408.7 L345.9,406.5 L346.8,409.9 L347.6,414.8 L348.4,417.2 L349.3,409.3 L350.1,409.6 L351.0,413.9 L351.8,416.6 L352.7,417.9 L353.5,413.9 L354.3,410.2 L355.2,409.9 L356.0,408.4 L356.9,411.4 L357.7,413.6 L358.5,413.3 L359.4,395.8 L360.2,376.2 L361.1,379.9 L361.9,361.8 L362.7,362.7 L363.6,368.3 L364.4,375.6 L365.3,372.2 L366.1,378.1 L367.0,386.9 L367.8,402.2 L368.6,402.9 L369.5,406.2 L370.3,410.2 L371.2,413.6 L372.0,415.4 L372.8,410.8 L373.7,401.9 L374.5,392.1 L375.4,392.1 L376.2,377.4 L377.1,367.0 L377.9,379.3 L378.7,368.3 L379.6,354.5 L380.4,359.4 L381.3,343.2 L382.1,334.9 L382.9,353.6 L383.8,352.3 L384.6,352.6 L385.5,352.3 L386.3,365.2 L387.2,377.8 L388.0,382.3 L388.8,379.0 L389.7,383.3 L390.5,400.4 L391.4,403.2 L392.2,407.8 L393.0,407.8 L393.9,406.8 L394.7,406.8 L395.6,409.0 L396.4,411.7 L397.3,412.7 L398.1,414.2 L398.9,415.7 L399.8,416.9 L400.6,416.0 L401.5,413.6 L402.3,413.9 L403.1,409.9 L404.0,416.6 L404.8,412.0 L405.7,416.3 L406.5,405.6 L407.3,404.7 L408.2,390.3 L409.0,376.2 L409.9,408.4 L410.7,409.6 L411.6,407.4 L412.4,415.7 L413.2,417.9 L414.1,417.2 L414.9,416.6 L415.8,413.6 L416.6,413.0 L417.4,413.6 L418.3,416.3 L419.1,415.4 L420.0,413.9 L420.8,412.3 L421.7,406.5 L422.5,389.1 L423.3,389.4 L424.2,354.8 L425.0,336.4 L425.9,324.2 L426.7,315.3 L427.5,325.4 L428.4,333.7 L429.2,337.6 L430.1,362.7 L430.9,371.0 L431.8,387.9 L432.6,397.3 L433.4,390.3 L434.3,384.8 L435.1,398.3 L436.0,396.7 L436.8,391.8 L437.6,379.3 L438.5,385.4 L439.3,394.0 L440.2,400.1 L441.0,405.9 L441.9,404.7 L442.7,405.9 L443.5,387.2 L444.4,388.5 L445.2,400.7 L446.1,403.2 L446.9,401.0 L447.7,387.9 L448.6,390.0 L449.4,381.4 L450.3,385.7 L451.1,384.5 L451.9,383.6 L452.8,389.1 L453.6,395.5 L454.5,368.9 L455.3,376.8 L456.2,394.9 L457.0,417.9 L457.8,405.9 L458.7,403.8 L459.5,411.1 L460.4,416.6 L461.2,420.0 L462.0,417.9 L462.9,410.8 L463.7,408.7 L464.6,404.4 L465.4,405.6 L466.3,401.3 L467.1,394.9 L467.9,388.8 L468.8,400.4 L469.6,371.6 L470.5,380.5 L471.3,402.2 L472.1,372.9 L473.0,395.5 L473.8,403.2 L474.7,377.8 L475.5,372.5 L476.4,369.2 L477.2,388.2 L478.0,388.5 L478.9,395.8 L479.7,410.8 L480.6,419.4 L481.4,419.4 L482.2,419.1 L483.1,417.9 L483.9,418.5 L484.8,409.9 L485.6,399.2 L486.5,384.2 L487.3,394.0 L488.1,358.8 L489.0,366.7 L489.8,340.4 L490.7,356.3 L491.5,364.6 L492.3,356.3 L493.2,341.0 L494.0,332.4 L494.9,349.6 L495.7,354.5 L496.5,370.4 L497.4,389.7 L498.2,385.1 L499.1,402.2 L499.9,417.2 L500.8,414.2 L501.6,409.3 L502.4,408.7 L503.3,401.0 L504.1,393.7 L505.0,391.2 L505.8,383.6 L506.6,382.3 L507.5,384.8 L508.3,360.9 L509.2,349.6 L510.0,339.8 L510.9,330.6 L511.7,344.1 L512.5,360.6 L513.4,359.7 L514.2,351.4 L515.1,335.8 L515.9,330.3 L516.7,331.8 L517.6,330.0 L518.4,326.0 L519.3,351.7 L520.1,351.4 L521.0,351.4 L521.8,352.3 L522.6,353.3 L523.5,348.1 L524.3,350.8 L525.2,352.6 L526.0,354.2 L526.8,356.9 L527.7,316.5 L528.5,318.4 L529.4,323.6 L530.2,332.7 L531.1,357.5 L531.9,345.6 L532.7,347.1 L533.6,351.4 L534.4,350.8 L535.3,351.4 L536.1,349.9 L536.9,360.6 L537.8,373.2 L538.6,372.2 L539.5,368.0 L540.3,356.9 L541.2,352.3 L542.0,330.6 L542.8,326.0 L543.7,324.8 L544.5,323.3 L545.4,316.2 L546.2,338.9 L547.0,324.2 L547.9,329.7 L548.7,322.6 L549.6,354.8 L550.4,335.5 L551.2,349.6 L552.1,352.6 L552.9,372.5 L553.8,367.3 L554.6,368.0 L555.5,376.2 L556.3,381.4 L557.1,386.9 L558.0,380.8 L558.8,390.9 L559.7,394.9 L560.5,401.6 L561.3,403.8 L562.2,384.8 L563.0,383.0 L563.9,376.8 L564.7,372.9 L565.6,365.5 L566.4,372.9 L567.2,381.7 L568.1,365.5 L568.9,359.4 L569.8,376.5 L570.6,385.4 L571.4,391.2 L572.3,388.8 L573.1,394.3 L574.0,404.1 L574.8,406.8 L575.7,409.9 L576.5,406.8 L577.3,400.4 L578.2,404.7 L579.0,403.8 L579.9,410.2 L580.7,414.8 L581.5,418.5 L582.4,420.0 L583.2,420.0 L584.1,418.5 L584.9,417.9 L585.8,416.3 L586.6,413.6 L587.4,413.0 L588.3,409.3 L589.1,398.6 L590.0,378.7 L590.8,381.4 L591.6,385.1 L592.5,395.2 L593.3,397.3 L594.2,405.3 L595.0,406.2 L595.8,416.3 L596.7,416.9 L597.5,416.0 L598.4,405.3 L599.2,396.4 L600.1,395.2 L600.9,399.8 L601.7,391.5 L602.6,374.1 L603.4,353.9 L604.3,347.1 L605.1,337.6 L605.9,342.2 L606.8,340.1 L607.6,347.1 L608.5,344.1 L609.3,347.4 L610.2,362.1 L611.0,369.8 L611.8,380.8 L612.7,390.9 L613.5,407.8 L614.4,417.9 L615.2,417.6 L616.0,419.4 L616.9,419.4 L617.7,418.8 L618.6,416.0 L619.4,415.1 L620.3,415.1 L621.1,412.3 L621.9,411.1 L622.8,392.1 L623.6,381.7 L624.5,391.8 L625.3,389.4 L626.1,386.6 L627.0,388.8 L627.8,398.6 L628.7,405.3 L629.5,407.4 L630.4,407.4 L631.2,401.6 L632.0,368.0 L632.9,387.9 L633.7,392.8 L634.6,377.8 L635.4,368.9 L636.2,368.0 L637.1,373.2 L637.9,370.4 L638.8,358.8 L639.6,364.9 L640.4,379.3 L641.3,396.1 L642.1,385.7 L643.0,388.5 L643.8,391.2 L644.7,408.4 L645.5,415.7 L646.3,413.9 L647.2,394.0 L648.0,384.8 L648.9,389.1 L649.7,394.3 L650.5,364.9 L651.4,376.8 L652.2,369.5 L653.1,345.9 L653.9,352.6 L654.8,368.0 L655.6,355.7 L656.4,393.7 L657.3,401.6 L658.1,377.8 L659.0,375.9 L659.8,373.2 L660.6,364.0 L661.5,409.6 L662.3,405.6 L663.2,403.2 L664.0,407.4 L664.9,391.8 L665.7,387.9 L666.5,363.7 L667.4,353.0 L668.2,354.2 L669.1,323.6 L669.9,327.2 L670.7,330.0 L671.6,310.7 L672.4,306.1 L673.3,317.4 L674.1,316.8 L675.0,310.4 L675.8,307.6 L676.6,308.6 L677.5,332.1 L678.3,360.9 L679.2,354.8 L680.0,366.4" stroke="#1f77b4" stroke-width="2" fill="none" opacity="0.8"/>
<!-- Hydro Generation -->
<path d="M80.0,333.4 L80.8,333.7 L81.7,335.8 L82.5,336.1 L83.4,334.3 L84.2,334.6 L85.0,334.6 L85.9,334.6 L86.7,334.0 L87.6,334.0 L88.4,333.4 L89.3,333.1 L90.1,333.4 L90.9,333.4 L91.8,334.3 L92.6,334.3 L93.5,334.6 L94.3,334.3 L95.1,334.6 L96.0,334.3 L96.8,334.6 L97.7,334.6 L98.5,334.6 L99.4,334.3 L100.2,334.3 L101.0,334.3 L101.9,334.3 L102.7,334.6 L103.6,334.9 L104.4,333.7 L105.2,333.7 L106.1,334.0 L106.9,333.7 L107.8,333.7 L108.6,332.7 L109.5,332.4 L110.3,332.4 L111.1,332.7 L112.0,332.7 L112.8,332.7 L113.7,332.7 L114.5,332.4 L115.3,332.4 L116.2,336.4 L117.0,336.1 L117.9,335.2 L118.7,335.5 L119.6,336.4 L120.4,337.0 L121.2,336.4 L122.1,336.7 L122.9,337.3 L123.8,336.4 L124.6,336.7 L125.4,336.7 L126.3,337.0 L127.1,336.7 L128.0,336.7 L128.8,336.7 L129.6,335.5 L130.5,336.1 L131.3,336.4 L132.2,335.2 L133.0,335.2 L133.9,335.5 L134.7,335.5 L135.5,335.5 L136.4,335.2 L137.2,334.9 L138.1,336.1 L138.9,336.4 L139.7,336.7 L140.6,336.7 L141.4,337.0 L142.3,337.0 L143.1,337.3 L144.0,337.3 L144.8,336.7 L145.6,337.0 L146.5,336.7 L147.3,336.7 L148.2,336.7 L149.0,336.7 L149.8,337.0 L150.7,337.0 L151.5,337.0 L152.4,336.7 L153.2,336.7 L154.1,336.4 L154.9,336.7 L155.7,336.7 L156.6,337.3 L157.4,336.7 L158.3,336.7 L159.1,336.4 L159.9,336.7 L160.8,336.4 L161.6,336.7 L162.5,332.1 L163.3,331.5 L164.2,331.2 L165.0,330.6 L165.8,330.6 L166.7,330.9 L167.5,330.6 L168.4,329.7 L169.2,328.5 L170.0,326.9 L170.9,324.5 L171.7,322.0 L172.6,321.7 L173.4,320.5 L174.2,321.7 L175.1,322.0 L175.9,322.3 L176.8,323.9 L177.6,323.6 L178.5,323.9 L179.3,323.9 L180.1,323.6 L181.0,323.3 L181.8,322.9 L182.7,322.3 L183.5,322.0 L184.3,322.3 L185.2,322.6 L186.0,322.0 L186.9,322.0 L187.7,322.9 L188.6,322.3 L189.4,323.3 L190.2,323.3 L191.1,322.9 L191.9,322.9 L192.8,321.7 L193.6,321.1 L194.4,319.0 L195.3,318.4 L196.1,316.8 L197.0,315.6 L197.8,314.1 L198.7,312.8 L199.5,312.8 L200.3,312.5 L201.2,312.5 L202.0,312.8 L202.9,312.2 L203.7,311.9 L204.5,311.9 L205.4,312.2 L206.2,311.9 L207.1,312.2 L207.9,312.2 L208.8,312.5 L209.6,311.9 L210.4,312.2 L211.3,312.2 L212.1,312.2 L213.0,312.2 L213.8,312.2 L214.6,312.5 L215.5,312.2 L216.3,312.2 L217.2,311.6 L218.0,312.8 L218.8,312.5 L219.7,313.8 L220.5,314.4 L221.4,314.4 L222.2,314.4 L223.1,315.0 L223.9,316.8 L224.7,317.7 L225.6,318.4 L226.4,320.2 L227.3,321.1 L228.1,322.0 L228.9,322.9 L229.8,323.9 L230.6,323.9 L231.5,323.9 L232.3,323.9 L233.2,323.3 L234.0,322.6 L234.8,322.9 L235.7,322.9 L236.5,323.3 L237.4,322.9 L238.2,323.3 L239.0,324.5 L239.9,324.5 L240.7,325.7 L241.6,326.0 L242.4,326.3 L243.3,325.7 L244.1,326.9 L244.9,327.8 L245.8,327.2 L246.6,326.3 L247.5,326.9 L248.3,326.6 L249.1,327.2 L250.0,328.5 L250.8,328.2 L251.7,329.1 L252.5,328.8 L253.4,329.1 L254.2,329.4 L255.0,329.4 L255.9,329.7 L256.7,329.4 L257.6,326.3 L258.4,326.3 L259.2,323.6 L260.1,322.3 L260.9,322.0 L261.8,321.7 L262.6,322.0 L263.5,321.7 L264.3,321.7 L265.1,321.7 L266.0,321.7 L266.8,320.8 L267.7,320.8 L268.5,319.6 L269.3,319.6 L270.2,319.6 L271.0,319.6 L271.9,319.6 L272.7,319.9 L273.5,320.2 L274.4,320.2 L275.2,320.2 L276.1,320.2 L276.9,320.2 L277.8,320.5 L278.6,320.2 L279.4,319.3 L280.3,319.6 L281.1,319.9 L282.0,319.6 L282.8,319.6 L283.6,319.3 L284.5,319.3 L285.3,319.6 L286.2,319.9 L287.0,320.2 L287.9,320.5 L288.7,321.1 L289.5,322.6 L290.4,322.3 L291.2,322.3 L292.1,322.3 L292.9,323.6 L293.7,323.3 L294.6,324.8 L295.4,324.8 L296.3,325.1 L297.1,324.8 L298.0,324.8 L298.8,324.5 L299.6,324.8 L300.5,324.8 L301.3,324.5 L302.2,324.2 L303.0,324.5 L303.8,324.5 L304.7,324.5 L305.5,324.5 L306.4,324.5 L307.2,324.8 L308.1,324.5 L308.9,324.8 L309.7,324.5 L310.6,324.8 L311.4,324.8 L312.3,324.5 L313.1,325.4 L313.9,325.7 L314.8,326.3 L315.6,326.3 L316.5,327.5 L317.3,327.5 L318.1,326.6 L319.0,326.6 L319.8,326.9 L320.7,326.6 L321.5,326.9 L322.4,326.6 L323.2,328.2 L324.0,326.9 L324.9,326.6 L325.7,326.3 L326.6,326.0 L327.4,326.6 L328.2,326.6 L329.1,326.0 L329.9,325.4 L330.8,325.7 L331.6,326.0 L332.5,325.4 L333.3,325.7 L334.1,326.6 L335.0,326.6 L335.8,327.2 L336.7,327.2 L337.5,327.2 L338.3,327.2 L339.2,327.2 L340.0,325.4 L340.9,325.7 L341.7,326.0 L342.6,325.7 L343.4,325.7 L344.2,325.4 L345.1,325.4 L345.9,324.8 L346.8,325.1 L347.6,324.2 L348.4,324.8 L349.3,324.8 L350.1,326.0 L351.0,326.0 L351.8,325.7 L352.7,325.7 L353.5,326.6 L354.3,326.9 L355.2,326.9 L356.0,327.8 L356.9,328.5 L357.7,328.2 L358.5,327.8 L359.4,327.8 L360.2,327.5 L361.1,327.2 L361.9,327.8 L362.7,328.5 L363.6,329.1 L364.4,328.5 L365.3,328.2 L366.1,328.2 L367.0,328.8 L367.8,328.5 L368.6,328.2 L369.5,328.2 L370.3,328.2 L371.2,328.2 L372.0,328.2 L372.8,328.2 L373.7,328.2 L374.5,327.8 L375.4,328.2 L376.2,328.2 L377.1,328.5 L377.9,327.8 L378.7,328.2 L379.6,328.5 L380.4,328.5 L381.3,328.8 L382.1,328.5 L382.9,329.7 L383.8,330.0 L384.6,329.7 L385.5,330.6 L386.3,330.6 L387.2,329.7 L388.0,329.4 L388.8,329.7 L389.7,330.0 L390.5,329.7 L391.4,329.7 L392.2,330.0 L393.0,331.5 L393.9,331.2 L394.7,332.7 L395.6,332.4 L396.4,332.4 L397.3,332.7 L398.1,333.4 L398.9,332.4 L399.8,332.7 L400.6,332.4 L401.5,333.7 L402.3,332.4 L403.1,332.7 L404.0,332.7 L404.8,332.1 L405.7,332.1 L406.5,331.8 L407.3,331.5 L408.2,331.5 L409.0,330.6 L409.9,331.2 L410.7,330.9 L411.6,330.6 L412.4,330.6 L413.2,330.0 L414.1,330.0 L414.9,330.3 L415.8,330.0 L416.6,330.0 L417.4,330.3 L418.3,330.9 L419.1,331.2 L420.0,331.5 L420.8,331.5 L421.7,330.0 L422.5,330.3 L423.3,330.0 L424.2,330.0 L425.0,330.0 L425.9,311.9 L426.7,328.5 L427.5,328.8 L428.4,329.7 L429.2,329.7 L430.1,330.9 L430.9,330.9 L431.8,330.6 L432.6,330.6 L433.4,330.6 L434.3,330.6 L435.1,332.7 L436.0,332.7 L436.8,332.7 L437.6,332.7 L438.5,333.1 L439.3,334.6 L440.2,334.6 L441.0,335.8 L441.9,332.7 L442.7,330.3 L443.5,330.0 L444.4,330.0 L445.2,329.7 L446.1,330.3 L446.9,329.4 L447.7,329.4 L448.6,329.1 L449.4,329.1 L450.3,328.8 L451.1,328.5 L451.9,328.5 L452.8,328.5 L453.6,328.2 L454.5,328.5 L455.3,327.8 L456.2,327.2 L457.0,327.2 L457.8,326.3 L458.7,326.6 L459.5,326.9 L460.4,325.7 L461.2,325.7 L462.0,325.7 L462.9,322.6 L463.7,322.6 L464.6,322.6 L465.4,320.5 L466.3,317.4 L467.1,317.4 L467.9,317.4 L468.8,317.4 L469.6,316.8 L470.5,316.8 L471.3,316.8 L472.1,316.8 L473.0,316.8 L473.8,316.8 L474.7,316.8 L475.5,316.2 L476.4,316.5 L477.2,315.6 L478.0,315.3 L478.9,315.0 L479.7,314.7 L480.6,313.5 L481.4,313.5 L482.2,313.5 L483.1,313.2 L483.9,312.5 L484.8,313.2 L485.6,313.8 L486.5,311.6 L487.3,312.2 L488.1,310.4 L489.0,309.8 L489.8,309.8 L490.7,308.9 L491.5,309.2 L492.3,309.2 L493.2,308.9 L494.0,308.9 L494.9,308.9 L495.7,307.9 L496.5,307.3 L497.4,307.6 L498.2,307.6 L499.1,307.6 L499.9,306.4 L500.8,307.6 L501.6,308.6 L502.4,308.6 L503.3,308.9 L504.1,309.2 L505.0,308.9 L505.8,309.5 L506.6,308.3 L507.5,308.3 L508.3,307.0 L509.2,304.3 L510.0,302.7 L510.9,300.3 L511.7,318.7 L512.5,300.0 L513.4,298.5 L514.2,298.8 L515.1,318.4 L515.9,318.4 L516.7,318.4 L517.6,317.7 L518.4,317.4 L519.3,317.1 L520.1,316.8 L521.0,316.8 L521.8,316.8 L522.6,317.1 L523.5,296.9 L524.3,298.5 L525.2,298.5 L526.0,298.8 L526.8,298.5 L527.7,298.8 L528.5,300.0 L529.4,300.3 L530.2,300.0 L531.1,300.0 L531.9,300.0 L532.7,300.6 L533.6,300.3 L534.4,300.6 L535.3,300.3 L536.1,300.0 L536.9,300.3 L537.8,300.6 L538.6,300.3 L539.5,300.6 L540.3,300.6 L541.2,300.9 L542.0,300.6 L542.8,300.6 L543.7,300.6 L544.5,300.6 L545.4,300.6 L546.2,300.0 L547.0,299.7 L547.9,299.7 L548.7,299.1 L549.6,298.8 L550.4,299.1 L551.2,299.1 L552.1,299.1 L552.9,299.4 L553.8,299.4 L554.6,299.4 L555.5,299.4 L556.3,299.4 L557.1,299.7 L558.0,299.7 L558.8,299.7 L559.7,299.4 L560.5,298.5 L561.3,298.2 L562.2,298.2 L563.0,297.8 L563.9,298.8 L564.7,299.1 L565.6,300.0 L566.4,300.9 L567.2,300.9 L568.1,300.9 L568.9,301.5 L569.8,301.2 L570.6,300.9 L571.4,300.0 L572.3,300.0 L573.1,300.0 L574.0,300.0 L574.8,300.0 L575.7,300.3 L576.5,300.6 L577.3,300.3 L578.2,300.6 L579.0,300.9 L579.9,300.3 L580.7,300.3 L581.5,300.9 L582.4,301.8 L583.2,300.9 L584.1,301.8 L584.9,301.8 L585.8,301.8 L586.6,301.8 L587.4,301.5 L588.3,302.1 L589.1,302.1 L590.0,302.1 L590.8,301.8 L591.6,302.1 L592.5,301.8 L593.3,301.5 L594.2,301.5 L595.0,301.5 L595.8,301.8 L596.7,301.8 L597.5,302.1 L598.4,302.4 L599.2,302.1 L600.1,302.4 L600.9,301.8 L601.7,302.1 L602.6,302.1 L603.4,301.2 L604.3,302.1 L605.1,302.1 L605.9,302.4 L606.8,303.4 L607.6,303.4 L608.5,303.7 L609.3,303.7 L610.2,303.4 L611.0,303.4 L611.8,303.7 L612.7,304.0 L613.5,304.3 L614.4,304.3 L615.2,304.0 L616.0,304.3 L616.9,304.0 L617.7,304.0 L618.6,304.3 L619.4,304.3 L620.3,302.7 L621.1,302.7 L621.9,302.4 L622.8,302.7 L623.6,302.7 L624.5,305.5 L625.3,303.7 L626.1,302.7 L627.0,302.4 L627.8,302.7 L628.7,302.4 L629.5,302.4 L630.4,302.7 L631.2,303.0 L632.0,303.0 L632.9,303.4 L633.7,303.0 L634.6,303.0 L635.4,303.4 L636.2,303.4 L637.1,303.7 L637.9,304.0 L638.8,304.3 L639.6,304.0 L640.4,304.3 L641.3,304.0 L642.1,304.9 L643.0,304.9 L643.8,304.9 L644.7,304.9 L645.5,304.9 L646.3,304.9 L647.2,305.2 L648.0,305.2 L648.9,305.2 L649.7,304.9 L650.5,305.2 L651.4,304.9 L652.2,304.6 L653.1,305.8 L653.9,306.1 L654.8,306.7 L655.6,306.4 L656.4,306.7 L657.3,307.3 L658.1,307.3 L659.0,307.0 L659.8,307.3 L660.6,307.3 L661.5,306.7 L662.3,307.6 L663.2,307.6 L664.0,307.3 L664.9,307.3 L665.7,307.6 L666.5,307.9 L667.4,307.6 L668.2,307.3 L669.1,307.3 L669.9,307.3 L670.7,307.3 L671.6,306.7 L672.4,307.3 L673.3,307.3 L674.1,307.3 L675.0,307.3 L675.8,307.3 L676.6,306.7 L677.5,306.7 L678.3,306.7 L679.2,307.3 L680.0,307.6" stroke="#ff7f0e" stroke-width="2" fill="none" opacity="0.8"/>
<!-- Thermal Generation -->
<path d="M80.0,372.9 L80.8,373.2 L81.7,360.3 L82.5,348.1 L83.4,336.1 L84.2,333.7 L85.0,291.7 L85.9,277.9 L86.7,277.6 L87.6,277.6 L88.4,282.8 L89.3,305.2 L90.1,284.1 L90.9,291.7 L91.8,291.7 L92.6,305.5 L93.5,309.2 L94.3,321.1 L95.1,330.3 L96.0,317.7 L96.8,348.4 L97.7,354.2 L98.5,353.9 L99.4,354.5 L100.2,354.2 L101.0,354.2 L101.9,354.2 L102.7,353.9 L103.6,354.2 L104.4,354.8 L105.2,327.5 L106.1,287.1 L106.9,260.8 L107.8,304.6 L108.6,329.7 L109.5,352.6 L110.3,353.9 L111.1,353.9 L112.0,354.2 L112.8,353.9 L113.7,353.3 L114.5,353.9 L115.3,354.2 L116.2,353.9 L117.0,354.5 L117.9,354.2 L118.7,353.6 L119.6,354.5 L120.4,354.2 L121.2,354.8 L122.1,354.5 L122.9,354.8 L123.8,342.2 L124.6,308.3 L125.4,226.5 L126.3,213.3 L127.1,219.8 L128.0,212.4 L128.8,240.3 L129.6,263.6 L130.5,230.8 L131.3,231.4 L132.2,248.9 L133.0,221.0 L133.9,230.2 L134.7,235.4 L135.5,242.1 L136.4,266.6 L137.2,266.3 L138.1,287.7 L138.9,314.4 L139.7,323.3 L140.6,323.6 L141.4,322.9 L142.3,247.3 L143.1,216.7 L144.0,223.8 L144.8,218.2 L145.6,220.7 L146.5,214.0 L147.3,213.7 L148.2,225.9 L149.0,245.5 L149.8,269.1 L150.7,353.9 L151.5,353.6 L152.4,353.6 L153.2,353.0 L154.1,353.0 L154.9,354.2 L155.7,353.9 L156.6,354.2 L157.4,349.9 L158.3,354.5 L159.1,354.8 L159.9,355.4 L160.8,356.0 L161.6,356.3 L162.5,357.5 L163.3,357.5 L164.2,357.9 L165.0,357.5 L165.8,356.3 L166.7,355.4 L167.5,355.4 L168.4,354.8 L169.2,355.1 L170.0,354.8 L170.9,354.8 L171.7,354.5 L172.6,355.1 L173.4,355.1 L174.2,354.8 L175.1,353.9 L175.9,354.8 L176.8,354.8 L177.6,354.5 L178.5,354.5 L179.3,355.4 L180.1,354.8 L181.0,354.5 L181.8,354.5 L182.7,354.5 L183.5,354.8 L184.3,354.5 L185.2,354.2 L186.0,354.2 L186.9,354.8 L187.7,355.1 L188.6,353.9 L189.4,353.9 L190.2,353.9 L191.1,354.5 L191.9,354.5 L192.8,353.6 L193.6,354.5 L194.4,354.5 L195.3,355.1 L196.1,356.6 L197.0,354.5 L197.8,354.5 L198.7,353.9 L199.5,353.9 L200.3,354.2 L201.2,353.9 L202.0,353.9 L202.9,353.6 L203.7,353.6 L204.5,353.9 L205.4,356.0 L206.2,356.3 L207.1,354.5 L207.9,355.7 L208.8,353.6 L209.6,352.6 L210.4,355.1 L211.3,354.8 L212.1,372.9 L213.0,372.5 L213.8,372.5 L214.6,372.2 L215.5,372.5 L216.3,372.9 L217.2,372.5 L218.0,372.5 L218.8,372.2 L219.7,372.9 L220.5,372.5 L221.4,372.5 L222.2,372.5 L223.1,372.5 L223.9,372.2 L224.7,372.9 L225.6,372.5 L226.4,372.5 L227.3,372.9 L228.1,372.5 L228.9,371.9 L229.8,371.6 L230.6,371.9 L231.5,372.2 L232.3,371.9 L233.2,372.2 L234.0,371.9 L234.8,371.9 L235.7,372.2 L236.5,372.5 L237.4,372.5 L238.2,372.9 L239.0,372.5 L239.9,372.2 L240.7,372.5 L241.6,372.5 L242.4,372.9 L243.3,372.5 L244.1,372.5 L244.9,372.5 L245.8,372.2 L246.6,372.9 L247.5,372.9 L248.3,371.9 L249.1,372.5 L250.0,372.2 L250.8,371.9 L251.7,371.9 L252.5,372.2 L253.4,372.2 L254.2,372.2 L255.0,372.2 L255.9,372.9 L256.7,372.5 L257.6,372.2 L258.4,372.2 L259.2,372.2 L260.1,372.2 L260.9,372.2 L261.8,372.2 L262.6,372.5 L263.5,372.2 L264.3,353.9 L265.1,353.6 L266.0,353.9 L266.8,313.5 L267.7,324.2 L268.5,331.5 L269.3,328.8 L270.2,300.6 L271.0,322.3 L271.9,317.1 L272.7,316.2 L273.5,293.6 L274.4,291.4 L275.2,303.7 L276.1,296.3 L276.9,331.2 L277.8,331.8 L278.6,371.9 L279.4,372.2 L280.3,372.2 L281.1,371.9 L282.0,372.2 L282.8,369.2 L283.6,372.5 L284.5,356.9 L285.3,332.4 L286.2,332.4 L287.0,294.8 L287.9,294.2 L288.7,329.4 L289.5,316.8 L290.4,293.9 L291.2,322.9 L292.1,332.1 L292.9,331.8 L293.7,332.1 L294.6,332.7 L295.4,332.4 L296.3,326.6 L297.1,334.0 L298.0,333.4 L298.8,333.1 L299.6,355.4 L300.5,372.5 L301.3,370.4 L302.2,350.2 L303.0,335.8 L303.8,335.2 L304.7,369.5 L305.5,333.1 L306.4,304.9 L307.2,298.2 L308.1,294.8 L308.9,294.2 L309.7,293.9 L310.6,294.8 L311.4,293.3 L312.3,319.0 L313.1,316.8 L313.9,322.0 L314.8,336.1 L315.6,316.5 L316.5,318.4 L317.3,334.6 L318.1,333.4 L319.0,333.7 L319.8,360.6 L320.7,351.1 L321.5,351.4 L322.4,350.2 L323.2,348.1 L324.0,331.8 L324.9,332.7 L325.7,332.7 L326.6,332.4 L327.4,295.7 L328.2,283.2 L329.1,310.4 L329.9,319.3 L330.8,308.6 L331.6,315.9 L332.5,325.4 L333.3,326.6 L334.1,326.0 L335.0,323.3 L335.8,319.9 L336.7,319.9 L337.5,336.7 L338.3,373.2 L339.2,372.2 L340.0,369.2 L340.9,371.6 L341.7,371.9 L342.6,371.9 L343.4,371.6 L344.2,371.9 L345.1,371.9 L345.9,347.7 L346.8,332.4 L347.6,286.5 L348.4,283.2 L349.3,285.9 L350.1,288.4 L351.0,297.8 L351.8,296.0 L352.7,311.9 L353.5,298.2 L354.3,307.6 L355.2,311.0 L356.0,307.6 L356.9,307.3 L357.7,333.4 L358.5,372.5 L359.4,371.9 L360.2,371.9 L361.1,372.5 L361.9,370.7 L362.7,371.9 L363.6,371.9 L364.4,368.6 L365.3,372.5 L366.1,372.5 L367.0,372.5 L367.8,370.7 L368.6,369.8 L369.5,372.5 L370.3,372.5 L371.2,374.4 L372.0,376.8 L372.8,377.1 L373.7,376.8 L374.5,376.8 L375.4,377.1 L376.2,377.1 L377.1,376.8 L377.9,376.8 L378.7,377.1 L379.6,377.1 L380.4,376.8 L381.3,377.1 L382.1,377.4 L382.9,377.8 L383.8,378.4 L384.6,378.1 L385.5,378.1 L386.3,378.1 L387.2,378.4 L388.0,377.8 L388.8,337.0 L389.7,338.0 L390.5,336.7 L391.4,336.7 L392.2,337.0 L393.0,359.1 L393.9,358.8 L394.7,358.2 L395.6,358.2 L396.4,331.5 L397.3,332.4 L398.1,332.1 L398.9,332.7 L399.8,332.4 L400.6,332.7 L401.5,332.7 L402.3,333.1 L403.1,334.0 L404.0,297.2 L404.8,308.6 L405.7,291.7 L406.5,291.4 L407.3,313.8 L408.2,324.8 L409.0,316.5 L409.9,331.8 L410.7,332.4 L411.6,333.1 L412.4,333.4 L413.2,330.0 L414.1,330.0 L414.9,330.3 L415.8,330.0 L416.6,328.8 L417.4,329.7 L418.3,324.2 L419.1,323.6 L420.0,323.6 L420.8,314.7 L421.7,324.5 L422.5,324.2 L423.3,314.4 L424.2,312.2 L425.0,312.5 L425.9,361.5 L426.7,349.3 L427.5,331.2 L428.4,326.9 L429.2,312.5 L430.1,291.7 L430.9,296.0 L431.8,291.7 L432.6,294.2 L433.4,327.8 L434.3,330.6 L435.1,340.4 L436.0,309.5 L436.8,286.5 L437.6,309.5 L438.5,328.8 L439.3,337.0 L440.2,323.6 L441.0,324.5 L441.9,334.9 L442.7,337.0 L443.5,330.9 L444.4,330.9 L445.2,330.9 L446.1,317.4 L446.9,299.7 L447.7,305.8 L448.6,304.6 L449.4,292.0 L450.3,296.6 L451.1,283.2 L451.9,289.3 L452.8,292.0 L453.6,287.1 L454.5,315.3 L455.3,323.3 L456.2,329.1 L457.0,328.8 L457.8,299.1 L458.7,322.0 L459.5,325.4 L460.4,324.8 L461.2,324.5 L462.0,310.1 L462.9,313.8 L463.7,310.7 L464.6,292.3 L465.4,297.8 L466.3,303.4 L467.1,307.0 L467.9,313.5 L468.8,306.7 L469.6,299.1 L470.5,302.7 L471.3,326.9 L472.1,307.6 L473.0,311.9 L473.8,334.9 L474.7,334.9 L475.5,370.7 L476.4,376.8 L477.2,376.2 L478.0,377.4 L478.9,374.4 L479.7,373.5 L480.6,374.1 L481.4,373.8 L482.2,373.8 L483.1,373.5 L483.9,373.8 L484.8,374.4 L485.6,374.4 L486.5,373.8 L487.3,374.1 L488.1,374.4 L489.0,374.7 L489.8,374.1 L490.7,372.9 L491.5,372.5 L492.3,378.1 L493.2,377.8 L494.0,377.4 L494.9,377.1 L495.7,377.1 L496.5,377.4 L497.4,376.8 L498.2,377.4 L499.1,372.9 L499.9,373.2 L500.8,373.5 L501.6,373.2 L502.4,373.2 L503.3,372.9 L504.1,372.9 L505.0,372.9 L505.8,372.9 L506.6,373.2 L507.5,373.5 L508.3,372.9 L509.2,373.2 L510.0,373.2 L510.9,372.5 L511.7,372.5 L512.5,374.4 L513.4,377.1 L514.2,377.1 L515.1,377.4 L515.9,377.4 L516.7,377.4 L517.6,377.8 L518.4,377.8 L519.3,378.1 L520.1,378.4 L521.0,377.4 L521.8,377.8 L522.6,377.4 L523.5,377.8 L524.3,377.4 L525.2,377.8 L526.0,378.1 L526.8,378.1 L527.7,377.4 L528.5,377.4 L529.4,378.1 L530.2,377.4 L531.1,359.1 L531.9,359.1 L532.7,377.1 L533.6,377.4 L534.4,377.4 L535.3,377.4 L536.1,377.1 L536.9,377.8 L537.8,378.4 L538.6,377.1 L539.5,374.7 L540.3,374.7 L541.2,374.7 L542.0,374.7 L542.8,374.1 L543.7,373.8 L544.5,374.4 L545.4,373.8 L546.2,374.4 L547.0,374.4 L547.9,374.7 L548.7,374.4 L549.6,318.4 L550.4,333.4 L551.2,374.7 L552.1,373.5 L552.9,355.4 L553.8,359.1 L554.6,378.4 L555.5,379.0 L556.3,379.0 L557.1,361.5 L558.0,349.6 L558.8,349.6 L559.7,378.1 L560.5,373.8 L561.3,371.0 L562.2,371.3 L563.0,370.1 L563.9,371.0 L564.7,380.2 L565.6,380.2 L566.4,381.1 L567.2,374.7 L568.1,368.9 L568.9,335.8 L569.8,328.8 L570.6,336.1 L571.4,319.0 L572.3,309.5 L573.1,298.5 L574.0,312.2 L574.8,368.0 L575.7,368.3 L576.5,365.8 L577.3,350.5 L578.2,353.3 L579.0,353.3 L579.9,365.2 L580.7,377.8 L581.5,371.3 L582.4,374.7 L583.2,374.4 L584.1,368.0 L584.9,302.7 L585.8,304.0 L586.6,356.0 L587.4,356.0 L588.3,355.7 L589.1,356.3 L590.0,319.0 L590.8,286.8 L591.6,299.7 L592.5,362.4 L593.3,365.2 L594.2,377.8 L595.0,377.1 L595.8,377.4 L596.7,377.8 L597.5,377.4 L598.4,377.8 L599.2,377.4 L600.1,377.4 L600.9,375.6 L601.7,374.7 L602.6,375.0 L603.4,374.4 L604.3,374.4 L605.1,374.4 L605.9,373.8 L606.8,374.4 L607.6,374.7 L608.5,374.7 L609.3,357.5 L610.2,356.9 L611.0,345.0 L611.8,336.1 L612.7,342.2 L613.5,353.3 L614.4,353.0 L615.2,353.0 L616.0,343.5 L616.9,343.5 L617.7,343.8 L618.6,338.9 L619.4,352.6 L620.3,363.1 L621.1,374.7 L621.9,375.3 L622.8,375.3 L623.6,374.7 L624.5,374.4 L625.3,374.7 L626.1,375.0 L627.0,375.0 L627.8,373.8 L628.7,356.3 L629.5,356.3 L630.4,338.0 L631.2,331.2 L632.0,310.1 L632.9,304.0 L633.7,334.3 L634.6,346.8 L635.4,358.5 L636.2,359.1 L637.1,358.5 L637.9,358.5 L638.8,358.2 L639.6,358.5 L640.4,356.3 L641.3,356.3 L642.1,356.3 L643.0,356.6 L643.8,355.7 L644.7,355.4 L645.5,356.6 L646.3,356.0 L647.2,356.3 L648.0,356.6 L648.9,356.0 L649.7,355.7 L650.5,350.8 L651.4,354.8 L652.2,354.8 L653.1,355.1 L653.9,357.9 L654.8,357.9 L655.6,358.8 L656.4,358.5 L657.3,358.2 L658.1,357.9 L659.0,358.2 L659.8,358.8 L660.6,359.1 L661.5,358.8 L662.3,359.4 L663.2,358.8 L664.0,359.1 L664.9,359.1 L665.7,358.5 L666.5,358.2 L667.4,358.8 L668.2,358.5 L669.1,358.2 L669.9,358.2 L670.7,358.2 L671.6,357.5 L672.4,358.2 L673.3,357.5 L674.1,357.9 L675.0,358.8 L675.8,358.5 L676.6,358.8 L677.5,351.4 L678.3,355.1 L679.2,358.8 L680.0,359.4" stroke="#2ca02c" stroke-width="2" fill="none" opacity="0.8"/>
<!-- Solar Generation -->
<path d="M80.0,400.4 L80.8,398.6 L81.7,398.9 L82.5,409.0 L83.4,400.4 L84.2,412.7 L85.0,410.2 L85.9,420.0 L86.7,420.0 L87.6,420.0 L88.4,420.0 L89.3,420.0 L90.1,420.0 L90.9,420.0 L91.8,420.0 L92.6,420.0 L93.5,420.0 L94.3,415.1 L95.1,407.1 L96.0,377.4 L96.8,375.6 L97.7,375.3 L98.5,375.3 L99.4,375.0 L100.2,376.5 L101.0,398.6 L101.9,398.9 L102.7,397.0 L103.6,379.6 L104.4,387.2 L105.2,416.0 L106.1,420.0 L106.9,420.0 L107.8,420.0 L108.6,420.0 L109.5,420.0 L110.3,420.0 L111.1,420.0 L112.0,420.0 L112.8,420.0 L113.7,420.0 L114.5,415.4 L115.3,394.6 L116.2,390.3 L117.0,384.5 L117.9,377.1 L118.7,375.3 L119.6,375.0 L120.4,398.0 L121.2,398.9 L122.1,376.5 L122.9,377.1 L123.8,387.5 L124.6,393.7 L125.4,409.3 L126.3,420.0 L127.1,420.0 L128.0,420.0 L128.8,420.0 L129.6,420.0 L130.5,420.0 L131.3,420.0 L132.2,420.0 L133.0,420.0 L133.9,420.0 L134.7,410.8 L135.5,388.5 L136.4,377.8 L137.2,376.5 L138.1,375.6 L138.9,376.2 L139.7,375.9 L140.6,375.3 L141.4,376.2 L142.3,378.1 L143.1,379.3 L144.0,380.8 L144.8,397.3 L145.6,414.2 L146.5,420.0 L147.3,420.0 L148.2,420.0 L149.0,420.0 L149.8,420.0 L150.7,420.0 L151.5,420.0 L152.4,420.0 L153.2,420.0 L154.1,420.0 L154.9,411.7 L155.7,389.1 L156.6,384.2 L157.4,379.6 L158.3,388.5 L159.1,399.8 L159.9,383.0 L160.8,399.2 L161.6,389.7 L162.5,390.0 L163.3,405.3 L164.2,414.5 L165.0,410.8 L165.8,412.7 L166.7,420.0 L167.5,420.0 L168.4,420.0 L169.2,420.0 L170.0,420.0 L170.9,420.0 L171.7,420.0 L172.6,420.0 L173.4,420.0 L174.2,420.0 L175.1,413.6 L175.9,400.4 L176.8,401.6 L177.6,399.8 L178.5,399.5 L179.3,399.2 L180.1,399.5 L181.0,399.2 L181.8,399.8 L182.7,399.8 L183.5,399.8 L184.3,400.7 L185.2,406.2 L186.0,416.0 L186.9,420.0 L187.7,420.0 L188.6,420.0 L189.4,420.0 L190.2,420.0 L191.1,420.0 L191.9,420.0 L192.8,420.0 L193.6,420.0 L194.4,420.0 L195.3,413.9 L196.1,402.5 L197.0,400.1 L197.8,399.8 L198.7,399.5 L199.5,399.2 L200.3,399.2 L201.2,399.2 L202.0,399.2 L202.9,399.5 L203.7,412.7 L204.5,413.9 L205.4,407.8 L206.2,411.1 L207.1,420.0 L207.9,420.0 L208.8,420.0 L209.6,420.0 L210.4,420.0 L211.3,420.0 L212.1,420.0 L213.0,420.0 L213.8,420.0 L214.6,420.0 L215.5,418.5 L216.3,403.5 L217.2,401.3 L218.0,402.2 L218.8,400.1 L219.7,399.5 L220.5,402.2 L221.4,400.1 L222.2,400.7 L223.1,409.6 L223.9,411.1 L224.7,415.4 L225.6,413.6 L226.4,413.9 L227.3,420.0 L228.1,420.0 L228.9,420.0 L229.8,420.0 L230.6,420.0 L231.5,420.0 L232.3,420.0 L233.2,420.0 L234.0,420.0 L234.8,420.0 L235.7,413.6 L236.5,417.2 L237.4,413.3 L238.2,411.4 L239.0,401.9 L239.9,388.8 L240.7,399.8 L241.6,384.5 L242.4,398.6 L243.3,404.4 L244.1,409.9 L244.9,402.2 L245.8,381.7 L246.6,412.3 L247.5,419.7 L248.3,420.0 L249.1,420.0 L250.0,420.0 L250.8,420.0 L251.7,420.0 L252.5,420.0 L253.4,420.0 L254.2,420.0 L255.0,420.0 L255.9,414.5 L256.7,412.3 L257.6,415.4 L258.4,415.1 L259.2,391.8 L260.1,394.6 L260.9,412.3 L261.8,405.9 L262.6,401.3 L263.5,406.5 L264.3,388.8 L265.1,402.5 L266.0,398.3 L266.8,413.9 L267.7,419.7 L268.5,420.0 L269.3,420.0 L270.2,420.0 L271.0,420.0 L271.9,420.0 L272.7,420.0 L273.5,420.0 L274.4,420.0 L275.2,420.0 L276.1,408.7 L276.9,400.4 L277.8,379.9 L278.6,376.2 L279.4,376.2 L280.3,375.9 L281.1,383.6 L282.0,387.2 L282.8,402.9 L283.6,399.5 L284.5,408.7 L285.3,403.2 L286.2,401.0 L287.0,411.1 L287.9,419.7 L288.7,420.0 L289.5,420.0 L290.4,420.0 L291.2,420.0 L292.1,420.0 L292.9,420.0 L293.7,420.0 L294.6,420.0 L295.4,420.0 L296.3,411.4 L297.1,390.9 L298.0,378.7 L298.8,377.4 L299.6,376.2 L300.5,392.1 L301.3,377.4 L302.2,395.5 L303.0,399.2 L303.8,397.0 L304.7,390.6 L305.5,397.7 L306.4,413.0 L307.2,417.9 L308.1,420.0 L308.9,420.0 L309.7,420.0 L310.6,420.0 L311.4,420.0 L312.3,420.0 L313.1,420.0 L313.9,420.0 L314.8,420.0 L315.6,420.0 L316.5,419.4 L317.3,416.3 L318.1,397.7 L319.0,397.7 L319.8,399.8 L320.7,385.7 L321.5,390.3 L322.4,385.4 L323.2,393.4 L324.0,388.8 L324.9,394.0 L325.7,388.2 L326.6,390.9 L327.4,412.3 L328.2,420.0 L329.1,420.0 L329.9,420.0 L330.8,420.0 L331.6,420.0 L332.5,420.0 L333.3,420.0 L334.1,420.0 L335.0,420.0 L335.8,420.0 L336.7,407.1 L337.5,384.8 L338.3,377.1 L339.2,375.9 L340.0,385.4 L340.9,380.2 L341.7,382.6 L342.6,379.9 L343.4,384.5 L344.2,392.4 L345.1,404.1 L345.9,403.2 L346.8,397.7 L347.6,416.9 L348.4,420.0 L349.3,420.0 L350.1,420.0 L351.0,420.0 L351.8,420.0 L352.7,420.0 L353.5,420.0 L354.3,420.0 L355.2,420.0 L356.0,420.0 L356.9,409.9 L357.7,385.1 L358.5,378.1 L359.4,375.9 L360.2,375.3 L361.1,398.6 L361.9,400.1 L362.7,400.4 L363.6,409.9 L364.4,410.5 L365.3,399.8 L366.1,394.3 L367.0,391.8 L367.8,407.8 L368.6,419.7 L369.5,420.0 L370.3,420.0 L371.2,420.0 L372.0,420.0 L372.8,420.0 L373.7,420.0 L374.5,420.0 L375.4,420.0 L376.2,420.0 L377.1,408.4 L377.9,388.2 L378.7,394.0 L379.6,375.6 L380.4,398.9 L381.3,375.9 L382.1,400.1 L382.9,399.2 L383.8,399.5 L384.6,389.1 L385.5,386.6 L386.3,388.2 L387.2,392.4 L388.0,408.7 L388.8,419.4 L389.7,420.0 L390.5,420.0 L391.4,420.0 L392.2,420.0 L393.0,420.0 L393.9,420.0 L394.7,420.0 L395.6,420.0 L396.4,420.0 L397.3,407.1 L398.1,384.8 L398.9,399.5 L399.8,375.6 L400.6,375.3 L401.5,376.2 L402.3,394.0 L403.1,379.0 L404.0,394.6 L404.8,386.0 L405.7,399.5 L406.5,405.3 L407.3,414.2 L408.2,418.2 L409.0,419.7 L409.9,420.0 L410.7,420.0 L411.6,420.0 L412.4,420.0 L413.2,420.0 L414.1,420.0 L414.9,420.0 L415.8,420.0 L416.6,420.0 L417.4,411.4 L418.3,409.6 L419.1,391.8 L420.0,393.1 L420.8,398.6 L421.7,402.2 L422.5,398.3 L423.3,395.8 L424.2,400.1 L425.0,396.1 L425.9,398.9 L426.7,410.2 L427.5,388.8 L428.4,409.9 L429.2,419.7 L430.1,420.0 L430.9,420.0 L431.8,420.0 L432.6,420.0 L433.4,420.0 L434.3,420.0 L435.1,420.0 L436.0,420.0 L436.8,420.0 L437.6,410.2 L438.5,383.6 L439.3,381.4 L440.2,378.1 L441.0,377.8 L441.9,378.7 L442.7,379.6 L443.5,377.1 L444.4,377.8 L445.2,385.4 L446.1,386.0 L446.9,402.9 L447.7,402.9 L448.6,414.2 L449.4,419.7 L450.3,420.0 L451.1,420.0 L451.9,420.0 L452.8,420.0 L453.6,420.0 L454.5,420.0 L455.3,420.0 L456.2,420.0 L457.0,420.0 L457.8,411.4 L458.7,386.9 L459.5,382.3 L460.4,377.8 L461.2,376.5 L462.0,379.0 L462.9,379.0 L463.7,385.1 L464.6,385.1 L465.4,394.9 L466.3,380.5 L467.1,390.3 L467.9,409.3 L468.8,411.1 L469.6,419.4 L470.5,420.0 L471.3,420.0 L472.1,420.0 L473.0,420.0 L473.8,420.0 L474.7,420.0 L475.5,420.0 L476.4,420.0 L477.2,419.4 L478.0,410.5 L478.9,383.6 L479.7,379.6 L480.6,376.2 L481.4,375.3 L482.2,378.4 L483.1,379.9 L483.9,402.9 L484.8,382.0 L485.6,397.3 L486.5,401.9 L487.3,402.9 L488.1,402.9 L489.0,413.3 L489.8,419.7 L490.7,420.0 L491.5,420.0 L492.3,420.0 L493.2,420.0 L494.0,420.0 L494.9,420.0 L495.7,420.0 L496.5,420.0 L497.4,420.0 L498.2,417.9 L499.1,417.9 L499.9,416.6 L500.8,415.1 L501.6,415.1 L502.4,412.3 L503.3,401.9 L504.1,404.7 L505.0,410.8 L505.8,418.2 L506.6,416.6 L507.5,409.3 L508.3,407.1 L509.2,416.6 L510.0,419.7 L510.9,420.0 L511.7,420.0 L512.5,420.0 L513.4,420.0 L514.2,420.0 L515.1,420.0 L515.9,420.0 L516.7,420.0 L517.6,420.0 L518.4,419.7 L519.3,418.5 L520.1,416.9 L521.0,415.4 L521.8,414.5 L522.6,410.2 L523.5,410.8 L524.3,413.0 L525.2,409.6 L526.0,409.0 L526.8,413.6 L527.7,416.0 L528.5,413.9 L529.4,415.7 L530.2,419.7 L531.1,420.0 L531.9,420.0 L532.7,420.0 L533.6,420.0 L534.4,420.0 L535.3,420.0 L536.1,420.0 L536.9,420.0 L537.8,420.0 L538.6,405.9 L539.5,385.1 L540.3,380.8 L541.2,377.1 L542.0,376.5 L542.8,378.1 L543.7,382.0 L544.5,382.0 L545.4,376.5 L546.2,381.1 L547.0,378.7 L547.9,383.9 L548.7,400.4 L549.6,407.1 L550.4,419.4 L551.2,420.0 L552.1,420.0 L552.9,420.0 L553.8,420.0 L554.6,420.0 L555.5,420.0 L556.3,420.0 L557.1,420.0 L558.0,419.7 L558.8,405.3 L559.7,384.2 L560.5,384.5 L561.3,393.7 L562.2,392.1 L563.0,383.3 L563.9,389.1 L564.7,384.2 L565.6,385.7 L566.4,388.8 L567.2,387.5 L568.1,406.2 L568.9,398.3 L569.8,414.8 L570.6,418.8 L571.4,420.0 L572.3,420.0 L573.1,420.0 L574.0,420.0 L574.8,420.0 L575.7,420.0 L576.5,420.0 L577.3,420.0 L578.2,420.0 L579.0,412.3 L579.9,393.1 L580.7,377.4 L581.5,376.5 L582.4,376.8 L583.2,375.3 L584.1,375.3 L584.9,375.3 L585.8,375.6 L586.6,390.0 L587.4,387.5 L588.3,388.2 L589.1,402.5 L590.0,416.0 L590.8,419.7 L591.6,420.0 L592.5,420.0 L593.3,420.0 L594.2,420.0 L595.0,420.0 L595.8,420.0 L596.7,420.0 L597.5,420.0 L598.4,420.0 L599.2,417.9 L600.1,400.1 L600.9,384.2 L601.7,383.9 L602.6,394.6 L603.4,386.6 L604.3,383.6 L605.1,378.4 L605.9,382.0 L606.8,382.3 L607.6,387.2 L608.5,385.4 L609.3,388.2 L610.2,405.0 L611.0,418.8 L611.8,420.0 L612.7,420.0 L613.5,420.0 L614.4,420.0 L615.2,420.0 L616.0,420.0 L616.9,420.0 L617.7,420.0 L618.6,419.7 L619.4,407.8 L620.3,382.0 L621.1,377.1 L621.9,375.9 L622.8,376.2 L623.6,378.1 L624.5,377.8 L625.3,375.0 L626.1,375.3 L627.0,383.6 L627.8,380.2 L628.7,381.4 L629.5,390.3 L630.4,405.0 L631.2,419.1 L632.0,420.0 L632.9,420.0 L633.7,420.0 L634.6,420.0 L635.4,420.0 L636.2,420.0 L637.1,420.0 L637.9,420.0 L638.8,419.7 L639.6,407.4 L640.4,412.7 L641.3,408.1 L642.1,403.8 L643.0,400.1 L643.8,392.1 L644.7,381.4 L645.5,384.8 L646.3,405.3 L647.2,390.9 L648.0,403.8 L648.9,414.2 L649.7,404.7 L650.5,418.5 L651.4,419.1 L652.2,420.0 L653.1,420.0 L653.9,420.0 L654.8,420.0 L655.6,420.0 L656.4,420.0 L657.3,420.0 L658.1,420.0 L659.0,420.0 L659.8,418.8 L660.6,415.7 L661.5,413.6 L662.3,413.6 L663.2,406.2 L664.0,405.3 L664.9,400.4 L665.7,403.2 L666.5,405.9 L667.4,415.1 L668.2,414.8 L669.1,413.0 L669.9,390.9 L670.7,396.7 L671.6,418.2 L672.4,420.0 L673.3,420.0 L674.1,420.0 L675.0,420.0 L675.8,420.0 L676.6,420.0 L677.5,420.0 L678.3,420.0 L679.2,419.7 L680.0,416.0" stroke="#d62728" stroke-width="2" fill="none" opacity="0.8"/>
<!-- Forecast -->
<path d="M80.0,198.0 L80.8,205.1 L81.7,205.1 L82.5,200.5 L83.4,197.1 L84.2,197.7 L85.0,201.1 L85.9,198.7 L86.7,195.9 L87.6,206.6 L88.4,224.7 L89.3,238.8 L90.1,248.6 L90.9,254.4 L91.8,256.5 L92.6,255.3 L93.5,251.6 L94.3,245.2 L95.1,237.2 L96.0,225.0 L96.8,210.6 L97.7,201.4 L98.5,200.5 L99.4,197.4 L100.2,197.1 L101.0,195.6 L101.9,190.4 L102.7,184.6 L103.6,178.4 L104.4,173.2 L105.2,179.1 L106.1,185.5 L106.9,184.0 L107.8,196.8 L108.6,217.6 L109.5,233.2 L110.3,243.0 L111.1,250.1 L112.0,253.5 L112.8,252.5 L113.7,242.7 L114.5,220.4 L115.3,193.8 L116.2,172.0 L117.0,162.5 L117.9,157.9 L118.7,156.4 L119.6,156.4 L120.4,155.8 L121.2,155.8 L122.1,153.3 L122.9,152.1 L123.8,152.4 L124.6,161.0 L125.4,167.1 L126.3,171.1 L127.1,172.9 L128.0,191.0 L128.8,218.9 L129.6,229.0 L130.5,250.4 L131.3,261.4 L132.2,263.6 L133.0,260.8 L133.9,249.2 L134.7,226.2 L135.5,202.0 L136.4,182.4 L137.2,172.3 L138.1,165.9 L138.9,162.2 L139.7,161.0 L140.6,158.9 L141.4,156.4 L142.3,153.0 L143.1,147.2 L144.0,142.3 L144.8,153.0 L145.6,166.2 L146.5,173.5 L147.3,175.4 L148.2,194.4 L149.0,221.6 L149.8,239.4 L150.7,251.3 L151.5,258.7 L152.4,261.7 L153.2,261.1 L154.1,251.6 L154.9,229.9 L155.7,199.3 L156.6,174.2 L157.4,161.3 L158.3,160.1 L159.1,150.9 L159.9,148.1 L160.8,147.5 L161.6,142.0 L162.5,141.7 L163.3,146.0 L164.2,148.4 L165.0,158.5 L165.8,170.2 L166.7,176.3 L167.5,178.4 L168.4,196.5 L169.2,225.0 L170.0,242.1 L170.9,252.2 L171.7,258.7 L172.6,261.4 L173.4,259.6 L174.2,248.6 L175.1,223.8 L175.9,196.2 L176.8,175.4 L177.6,167.4 L178.5,163.4 L179.3,164.7 L180.1,166.2 L181.0,168.3 L181.8,170.2 L182.7,170.8 L183.5,171.1 L184.3,170.5 L185.2,175.1 L186.0,181.8 L186.9,184.0 L187.7,186.7 L188.6,203.6 L189.4,226.2 L190.2,244.0 L191.1,253.8 L191.9,259.3 L192.8,261.4 L193.6,259.0 L194.4,247.9 L195.3,223.1 L196.1,196.5 L197.0,176.6 L197.8,169.0 L198.7,164.4 L199.5,165.6 L200.3,166.8 L201.2,169.3 L202.0,171.1 L202.9,171.4 L203.7,172.3 L204.5,171.4 L205.4,176.3 L206.2,183.0 L207.1,184.6 L207.9,187.6 L208.8,204.5 L209.6,226.2 L210.4,244.0 L211.3,252.8 L212.1,258.0 L213.0,261.1 L213.8,260.8 L214.6,259.6 L215.5,248.9 L216.3,233.9 L217.2,216.4 L218.0,200.8 L218.8,193.8 L219.7,194.7 L220.5,195.0 L221.4,198.0 L222.2,203.6 L223.1,204.8 L223.9,202.3 L224.7,199.6 L225.6,198.7 L226.4,201.1 L227.3,198.0 L228.1,198.3 L228.9,209.7 L229.8,226.2 L230.6,239.4 L231.5,247.0 L232.3,252.2 L233.2,253.8 L234.0,252.2 L234.8,249.2 L235.7,239.4 L236.5,228.3 L237.4,210.0 L238.2,192.8 L239.0,185.5 L239.9,184.6 L240.7,186.4 L241.6,186.7 L242.4,191.0 L243.3,192.8 L244.1,189.8 L244.9,182.1 L245.8,185.5 L246.6,183.3 L247.5,179.1 L248.3,182.7 L249.1,202.6 L250.0,221.9 L250.8,236.0 L251.7,243.7 L252.5,247.0 L253.4,248.2 L254.2,244.9 L255.0,232.3 L255.9,206.6 L256.7,178.4 L257.6,160.1 L258.4,154.3 L259.2,154.6 L260.1,157.6 L260.9,161.0 L261.8,164.7 L262.6,167.7 L263.5,169.0 L264.3,169.6 L265.1,170.2 L266.0,175.4 L266.8,178.4 L267.7,176.9 L268.5,180.3 L269.3,199.3 L270.2,224.1 L271.0,237.8 L271.9,242.4 L272.7,245.2 L273.5,246.4 L274.4,242.7 L275.2,231.1 L276.1,206.6 L276.9,180.0 L277.8,163.4 L278.6,159.8 L279.4,160.1 L280.3,163.8 L281.1,166.5 L282.0,169.3 L282.8,171.4 L283.6,172.9 L284.5,173.9 L285.3,173.9 L286.2,178.8 L287.0,184.6 L287.9,184.3 L288.7,187.3 L289.5,204.5 L290.4,227.4 L291.2,241.8 L292.1,252.2 L292.9,257.4 L293.7,259.6 L294.6,256.2 L295.4,244.0 L296.3,221.0 L297.1,195.3 L298.0,178.1 L298.8,171.4 L299.6,166.8 L300.5,167.4 L301.3,168.6 L302.2,170.8 L303.0,172.6 L303.8,173.9 L304.7,173.9 L305.5,173.9 L306.4,178.8 L307.2,185.2 L308.1,184.3 L308.9,187.9 L309.7,205.7 L310.6,227.7 L311.4,244.3 L312.3,253.5 L313.1,258.4 L313.9,260.5 L314.8,257.7 L315.6,245.2 L316.5,219.2 L317.3,188.5 L318.1,168.6 L319.0,162.5 L319.8,160.7 L320.7,163.8 L321.5,166.8 L322.4,169.9 L323.2,172.6 L324.0,174.2 L324.9,175.1 L325.7,174.8 L326.6,179.4 L327.4,185.5 L328.2,185.5 L329.1,188.5 L329.9,206.0 L330.8,214.0 L331.6,217.9 L332.5,221.9 L333.3,225.9 L334.1,229.9 L335.0,233.9 L335.8,237.8 L336.7,219.5 L337.5,194.7 L338.3,179.1 L339.2,172.9 L340.0,169.3 L340.9,170.2 L341.7,171.1 L342.6,172.6 L343.4,174.2 L344.2,175.1 L345.1,174.5 L345.9,172.9 L346.8,177.5 L347.6,183.7 L348.4,187.3 L349.3,189.8 L350.1,206.9 L351.0,237.5 L351.8,249.8 L352.7,258.0 L353.5,263.9 L354.3,266.6 L355.2,265.7 L356.0,263.9 L356.9,257.7 L357.7,243.4 L358.5,228.0 L359.4,217.6 L360.2,209.1 L361.1,207.8 L361.9,205.7 L362.7,207.5 L363.6,210.6 L364.4,211.2 L365.3,212.7 L366.1,214.3 L367.0,213.0 L367.8,213.7 L368.6,213.3 L369.5,210.6 L370.3,221.6 L371.2,237.2 L372.0,252.8 L372.8,264.5 L373.7,271.2 L374.5,273.7 L375.4,272.4 L376.2,269.4 L377.1,267.2 L377.9,255.9 L378.7,244.3 L379.6,226.8 L380.4,214.0 L381.3,213.7 L382.1,209.4 L382.9,207.5 L383.8,205.1 L384.6,200.5 L385.5,195.6 L386.3,189.5 L387.2,184.9 L388.0,190.7 L388.8,197.7 L389.7,197.1 L390.5,209.4 L391.4,233.6 L392.2,254.4 L393.0,266.3 L393.9,273.4 L394.7,276.1 L395.6,274.9 L396.4,271.5 L397.3,272.7 L398.1,259.6 L398.9,247.3 L399.8,228.3 L400.6,214.6 L401.5,215.5 L402.3,209.4 L403.1,205.7 L404.0,202.0 L404.8,198.3 L405.7,195.9 L406.5,190.4 L407.3,184.9 L408.2,189.5 L409.0,196.2 L409.9,194.7 L410.7,207.5 L411.6,230.2 L412.4,244.0 L413.2,253.5 L414.1,260.5 L414.9,263.6 L415.8,262.9 L416.6,253.8 L417.4,231.4 L418.3,202.0 L419.1,180.3 L420.0,170.8 L420.8,168.0 L421.7,167.1 L422.5,167.7 L423.3,169.3 L424.2,170.2 L425.0,171.1 L425.9,171.4 L426.7,170.8 L427.5,176.6 L428.4,182.7 L429.2,186.1 L430.1,187.3 L430.9,204.5 L431.8,230.2 L432.6,248.2 L433.4,256.2 L434.3,262.0 L435.1,263.9 L436.0,262.3 L436.8,252.2 L437.6,228.3 L438.5,200.5 L439.3,180.3 L440.2,172.6 L441.0,168.3 L441.9,169.0 L442.7,170.5 L443.5,172.6 L444.4,174.5 L445.2,175.7 L446.1,176.3 L446.9,175.1 L447.7,180.0 L448.6,186.4 L449.4,189.2 L450.3,190.7 L451.1,207.2 L451.9,212.1 L452.8,212.1 L453.6,212.1 L454.5,212.1 L455.3,212.1 L456.2,212.1 L457.0,212.1 L457.8,212.1 L458.7,212.1 L459.5,212.1 L460.4,212.1 L461.2,212.1 L462.0,212.1 L462.9,212.1 L463.7,212.1 L464.6,212.1 L465.4,212.1 L466.3,212.1 L467.1,212.1 L467.9,212.1 L468.8,212.1 L469.6,212.1 L470.5,212.1 L471.3,212.1 L472.1,212.1 L473.0,238.1 L473.8,245.5 L474.7,252.5 L475.5,256.5 L476.4,257.1 L477.2,247.3 L478.0,225.6 L478.9,192.8 L479.7,168.0 L480.6,156.7 L481.4,152.7 L482.2,150.0 L483.1,149.1 L483.9,148.7 L484.8,142.0 L485.6,143.5 L486.5,145.7 L487.3,146.9 L488.1,155.5 L489.0,166.8 L489.8,174.2 L490.7,177.2 L491.5,195.3 L492.3,232.9 L493.2,244.0 L494.0,250.7 L494.9,259.0 L495.7,262.3 L496.5,265.1 L497.4,257.7 L498.2,252.5 L499.1,240.9 L499.9,228.0 L500.8,215.8 L501.6,205.1 L502.4,202.9 L503.3,201.4 L504.1,204.8 L505.0,209.1 L505.8,210.6 L506.6,207.5 L507.5,205.1 L508.3,205.4 L509.2,209.7 L510.0,210.0 L510.9,208.1 L511.7,219.2 L512.5,238.8 L513.4,251.9 L514.2,262.3 L515.1,269.7 L515.9,272.1 L516.7,271.2 L517.6,268.8 L518.4,260.2 L519.3,246.4 L520.1,227.4 L521.0,212.1 L521.8,205.4 L522.6,199.9 L523.5,199.9 L524.3,202.3 L525.2,205.1 L526.0,206.0 L526.8,204.2 L527.7,198.7 L528.5,198.7 L529.4,203.9 L530.2,204.5 L531.1,202.6 L531.9,214.3 L532.7,210.3 L533.6,220.7 L534.4,229.0 L535.3,234.5 L536.1,236.6 L536.9,235.1 L537.8,226.5 L538.6,202.6 L539.5,173.9 L540.3,154.0 L541.2,145.1 L542.0,140.2 L542.8,140.5 L543.7,141.7 L544.5,143.5 L545.4,145.1 L546.2,146.0 L547.0,145.4 L547.9,146.6 L548.7,152.7 L549.6,159.8 L550.4,161.6 L551.2,165.0 L552.1,180.6 L552.9,204.8 L553.8,221.0 L554.6,230.5 L555.5,236.0 L556.3,238.5 L557.1,236.3 L558.0,227.1 L558.8,204.5 L559.7,177.2 L560.5,157.3 L561.3,149.1 L562.2,143.9 L563.0,143.9 L563.9,144.8 L564.7,146.3 L565.6,147.5 L566.4,147.8 L567.2,146.9 L568.1,147.5 L568.9,153.0 L569.8,159.5 L570.6,162.5 L571.4,165.3 L572.3,181.2 L573.1,201.7 L574.0,221.9 L574.8,231.1 L575.7,237.2 L576.5,239.4 L577.3,237.5 L578.2,227.7 L579.0,206.3 L579.9,180.3 L580.7,161.3 L581.5,153.0 L582.4,146.6 L583.2,145.7 L584.1,145.4 L584.9,146.0 L585.8,146.0 L586.6,142.3 L587.4,139.6 L588.3,140.8 L589.1,148.4 L590.0,153.6 L590.8,157.6 L591.6,160.1 L592.5,176.9 L593.3,207.5 L594.2,224.1 L595.0,234.2 L595.8,240.9 L596.7,244.3 L597.5,243.7 L598.4,235.7 L599.2,215.2 L600.1,189.5 L600.9,167.7 L601.7,158.5 L602.6,152.4 L603.4,151.2 L604.3,151.2 L605.1,151.8 L605.9,151.5 L606.8,152.7 L607.6,152.4 L608.5,152.4 L609.3,157.3 L610.2,162.5 L611.0,166.2 L611.8,168.3 L612.7,184.9 L613.5,203.2 L614.4,226.5 L615.2,236.9 L616.0,243.4 L616.9,245.5 L617.7,244.0 L618.6,232.9 L619.4,212.4 L620.3,186.7 L621.1,165.6 L621.9,155.2 L622.8,149.4 L623.6,146.3 L624.5,144.8 L625.3,142.3 L626.1,139.0 L627.0,133.4 L627.8,129.2 L628.7,125.5 L629.5,135.6 L630.4,147.2 L631.2,154.6 L632.0,158.2 L632.9,176.3 L633.7,215.5 L634.6,224.4 L635.4,231.4 L636.2,239.1 L637.1,242.4 L637.9,244.9 L638.8,242.1 L639.6,235.7 L640.4,222.2 L641.3,210.3 L642.1,201.1 L643.0,190.4 L643.8,186.7 L644.7,184.3 L645.5,186.1 L646.3,186.1 L647.2,189.5 L648.0,191.3 L648.9,189.2 L649.7,191.0 L650.5,193.4 L651.4,194.4 L652.2,192.2 L653.1,202.3 L653.9,218.2 L654.8,231.1 L655.6,242.1 L656.4,248.6 L657.3,250.4 L658.1,249.5 L659.0,247.6 L659.8,240.6 L660.6,226.8 L661.5,209.4 L662.3,194.1 L663.2,186.4 L664.0,180.6 L664.9,180.0 L665.7,183.0 L666.5,185.5 L667.4,185.8 L668.2,185.5 L669.1,182.7 L669.9,180.6 L670.7,185.2 L671.6,186.1 L672.4,184.3 L673.3,195.3 L674.1,208.4 L675.0,224.1 L675.8,233.6 L676.6,238.1 L677.5,240.6 L678.3,237.5 L679.2,227.7 L680.0,225.3" stroke="#9467bd" stroke-width="2" fill="none" opacity="0.8"/>
<!-- Total Generation -->
<path d="M80.0,242.1 L80.8,242.7 L81.7,234.8 L82.5,245.2 L83.4,227.4 L84.2,237.8 L85.0,194.4 L85.9,190.1 L86.7,187.9 L87.6,188.2 L88.4,191.6 L89.3,212.1 L90.1,191.9 L90.9,202.0 L91.8,201.7 L92.6,212.1 L93.5,212.7 L94.3,217.3 L95.1,217.6 L96.0,180.9 L96.8,206.9 L97.7,213.0 L98.5,210.6 L99.4,207.5 L100.2,212.4 L101.0,234.5 L101.9,224.4 L102.7,215.2 L103.6,188.2 L104.4,210.3 L105.2,229.6 L106.1,192.2 L106.9,165.6 L107.8,210.3 L108.6,237.8 L109.5,256.5 L110.3,253.1 L111.1,245.8 L112.0,229.9 L112.8,217.6 L113.7,207.2 L114.5,189.8 L115.3,198.3 L116.2,190.4 L117.0,188.5 L117.9,174.2 L118.7,169.9 L119.6,170.2 L120.4,188.5 L121.2,183.0 L122.1,140.5 L122.9,142.3 L123.8,145.7 L124.6,124.6 L125.4,67.6 L126.3,69.1 L127.1,81.7 L128.0,78.0 L128.8,121.8 L129.6,155.5 L130.5,133.1 L131.3,138.6 L132.2,153.6 L133.0,126.4 L133.9,136.8 L134.7,133.4 L135.5,119.4 L136.4,131.6 L137.2,121.5 L138.1,138.0 L138.9,167.1 L139.7,180.0 L140.6,180.9 L141.4,185.8 L142.3,112.6 L143.1,82.6 L144.0,89.4 L144.8,90.6 L145.6,98.8 L146.5,85.4 L147.3,90.9 L148.2,120.0 L149.0,150.9 L149.8,179.7 L150.7,266.6 L151.5,267.2 L152.4,268.8 L153.2,263.6 L154.1,255.9 L154.9,255.6 L155.7,233.2 L156.6,224.7 L157.4,192.8 L158.3,201.4 L159.1,216.7 L159.9,187.6 L160.8,210.9 L161.6,177.5 L162.5,163.4 L163.3,198.0 L164.2,232.9 L165.0,210.9 L165.8,175.4 L166.7,168.6 L167.5,199.9 L168.4,167.7 L169.2,181.2 L170.0,182.4 L170.9,157.0 L171.7,167.1 L172.6,163.8 L173.4,183.7 L174.2,180.6 L175.1,177.8 L175.9,176.6 L176.8,184.6 L177.6,195.3 L178.5,191.3 L179.3,166.5 L180.1,183.3 L181.0,174.5 L181.8,146.3 L182.7,175.7 L183.5,175.7 L184.3,140.5 L185.2,137.7 L186.0,145.7 L186.9,157.9 L187.7,180.0 L188.6,164.7 L189.4,162.2 L190.2,160.1 L191.1,152.7 L191.9,150.0 L192.8,149.7 L193.6,184.3 L194.4,155.8 L195.3,141.7 L196.1,137.7 L197.0,150.0 L197.8,127.0 L198.7,124.9 L199.5,123.0 L200.3,144.8 L201.2,157.6 L202.0,138.0 L202.9,134.4 L203.7,164.4 L204.5,176.3 L205.4,173.2 L206.2,185.2 L207.1,197.4 L207.9,202.6 L208.8,222.5 L209.6,223.8 L210.4,228.0 L211.3,219.8 L212.1,241.8 L213.0,249.2 L213.8,252.8 L214.6,242.7 L215.5,241.5 L216.3,231.7 L217.2,223.5 L218.0,223.5 L218.8,225.0 L219.7,224.4 L220.5,235.1 L221.4,235.1 L222.2,240.6 L223.1,248.2 L223.9,222.5 L224.7,218.2 L225.6,193.4 L226.4,196.2 L227.3,222.5 L228.1,219.5 L228.9,236.9 L229.8,229.6 L230.6,207.2 L231.5,218.9 L232.3,223.5 L233.2,223.5 L234.0,235.1 L234.8,244.9 L235.7,217.9 L236.5,236.0 L237.4,226.2 L238.2,223.8 L239.0,214.6 L239.9,169.9 L240.7,173.5 L241.6,156.7 L242.4,169.9 L243.3,198.0 L244.1,202.6 L244.9,200.5 L245.8,153.3 L246.6,194.4 L247.5,222.8 L248.3,224.1 L249.1,226.2 L250.0,243.0 L250.8,230.8 L251.7,237.2 L252.5,235.7 L253.4,241.2 L254.2,232.9 L255.0,239.1 L255.9,233.6 L256.7,216.4 L257.6,218.6 L258.4,228.3 L259.2,208.4 L260.1,219.5 L260.9,221.9 L261.8,229.6 L262.6,241.5 L263.5,245.5 L264.3,201.4 L265.1,213.3 L266.0,215.8 L266.8,192.5 L267.7,218.2 L268.5,219.2 L269.3,212.1 L270.2,178.8 L271.0,208.1 L271.9,209.1 L272.7,210.3 L273.5,189.8 L274.4,186.7 L275.2,195.0 L276.1,174.5 L276.9,203.9 L277.8,174.2 L278.6,197.4 L279.4,184.3 L280.3,173.2 L281.1,172.9 L282.0,177.8 L282.8,184.9 L283.6,205.4 L284.5,195.3 L285.3,164.7 L286.2,165.0 L287.0,139.0 L287.9,156.1 L288.7,207.2 L289.5,195.3 L290.4,169.3 L291.2,182.7 L292.1,185.2 L292.9,172.6 L293.7,176.0 L294.6,188.5 L295.4,181.5 L296.3,182.4 L297.1,180.9 L298.0,167.4 L298.8,142.0 L299.6,149.1 L300.5,199.3 L301.3,175.7 L302.2,181.8 L303.0,169.0 L303.8,182.7 L304.7,199.3 L305.5,169.3 L306.4,161.0 L307.2,170.8 L308.1,177.5 L308.9,180.3 L309.7,180.0 L310.6,185.5 L311.4,176.3 L312.3,206.0 L313.1,191.0 L313.9,184.0 L314.8,188.9 L315.6,177.5 L316.5,177.2 L317.3,192.2 L318.1,170.2 L319.0,184.9 L319.8,217.6 L320.7,195.0 L321.5,199.3 L322.4,201.4 L323.2,196.8 L324.0,179.7 L324.9,197.7 L325.7,181.5 L326.6,172.6 L327.4,165.0 L328.2,174.8 L329.1,196.5 L329.9,192.8 L330.8,187.9 L331.6,200.2 L332.5,216.1 L333.3,210.3 L334.1,204.8 L335.0,203.6 L335.8,204.5 L336.7,195.3 L337.5,192.5 L338.3,229.6 L339.2,227.7 L340.0,234.5 L340.9,234.5 L341.7,236.6 L342.6,233.2 L343.4,236.6 L344.2,238.8 L345.1,250.1 L345.9,222.2 L346.8,205.1 L347.6,182.4 L348.4,185.2 L349.3,180.3 L350.1,184.3 L351.0,198.0 L351.8,198.7 L352.7,215.8 L353.5,199.0 L354.3,205.1 L355.2,208.1 L356.0,203.9 L356.9,197.1 L357.7,200.2 L358.5,231.7 L359.4,211.5 L360.2,191.0 L361.1,218.2 L361.9,200.5 L362.7,203.6 L363.6,219.2 L364.4,223.1 L365.3,212.7 L366.1,213.0 L367.0,220.1 L367.8,249.2 L368.6,260.5 L369.5,266.9 L370.3,270.9 L371.2,276.1 L372.0,280.4 L372.8,276.1 L373.7,266.9 L374.5,256.8 L375.4,257.4 L376.2,242.7 L377.1,220.7 L377.9,212.1 L378.7,207.5 L379.6,175.7 L380.4,203.6 L381.3,165.0 L382.1,180.9 L382.9,200.2 L383.8,200.2 L384.6,189.5 L385.5,187.6 L386.3,202.0 L387.2,218.2 L388.0,238.1 L388.8,205.1 L389.7,211.5 L390.5,226.8 L391.4,229.6 L392.2,234.8 L393.0,258.4 L393.9,256.8 L394.7,257.7 L395.6,259.6 L396.4,235.7 L397.3,225.0 L398.1,204.5 L398.9,220.4 L399.8,197.7 L400.6,196.5 L401.5,196.2 L402.3,213.3 L403.1,195.6 L404.0,181.2 L404.8,178.8 L405.7,179.7 L406.5,174.2 L407.3,204.2 L408.2,204.8 L409.0,183.0 L409.9,231.7 L410.7,233.2 L411.6,231.4 L412.4,240.0 L413.2,237.8 L414.1,237.2 L414.9,237.2 L415.8,233.6 L416.6,231.7 L417.4,225.0 L418.3,221.0 L419.1,202.0 L420.0,202.0 L420.8,197.1 L421.7,203.2 L422.5,181.8 L423.3,169.6 L424.2,137.1 L425.0,115.1 L425.9,136.5 L426.7,143.2 L427.5,114.2 L428.4,140.2 L429.2,139.6 L430.1,145.7 L430.9,158.2 L431.8,170.5 L432.6,182.4 L433.4,209.1 L434.3,206.3 L435.1,231.7 L436.0,199.3 L436.8,171.1 L437.6,171.7 L438.5,170.8 L439.3,187.0 L440.2,176.3 L441.0,184.0 L441.9,191.0 L442.7,192.8 L443.5,165.3 L444.4,167.1 L445.2,186.7 L446.1,176.9 L446.9,172.9 L447.7,165.9 L448.6,177.8 L449.4,162.2 L450.3,171.4 L451.1,156.4 L451.9,161.6 L452.8,169.9 L453.6,170.8 L454.5,172.6 L455.3,187.9 L456.2,211.2 L457.0,233.9 L457.8,182.7 L458.7,179.4 L459.5,185.8 L460.4,184.9 L461.2,186.7 L462.0,172.6 L462.9,166.2 L463.7,167.1 L464.6,144.5 L465.4,158.9 L466.3,142.6 L467.1,149.7 L467.9,169.0 L468.8,175.7 L469.6,146.9 L470.5,160.4 L471.3,206.3 L472.1,157.6 L473.0,184.6 L473.8,215.2 L474.7,189.8 L475.5,219.8 L476.4,222.8 L477.2,239.4 L478.0,231.7 L478.9,208.8 L479.7,218.6 L480.6,223.1 L481.4,221.9 L482.2,224.7 L483.1,224.4 L483.9,247.6 L484.8,219.5 L485.6,224.7 L486.5,211.5 L487.3,223.1 L488.1,186.4 L489.0,204.5 L489.8,184.0 L490.7,198.3 L491.5,206.6 L492.3,203.9 L493.2,187.9 L494.0,179.1 L494.9,195.9 L495.7,199.9 L496.5,215.5 L497.4,234.2 L498.2,228.0 L499.1,240.6 L499.9,253.5 L500.8,250.4 L501.6,246.1 L502.4,242.7 L503.3,224.7 L504.1,220.4 L505.0,223.8 L505.8,224.1 L506.6,220.4 L507.5,215.8 L508.3,187.9 L509.2,183.7 L510.0,175.4 L510.9,163.8 L511.7,195.6 L512.5,195.3 L513.4,195.6 L514.2,187.6 L515.1,191.9 L515.9,186.4 L516.7,187.9 L517.6,185.5 L518.4,180.9 L519.3,205.4 L520.1,203.6 L521.0,201.1 L521.8,201.4 L522.6,198.0 L523.5,173.5 L524.3,179.7 L525.2,178.4 L526.0,180.0 L526.8,187.0 L527.7,148.7 L528.5,149.7 L529.4,157.6 L530.2,169.9 L531.1,176.6 L531.9,164.7 L532.7,184.9 L533.6,189.2 L534.4,188.9 L535.3,189.2 L536.1,187.0 L536.9,198.7 L537.8,212.1 L538.6,195.6 L539.5,168.3 L540.3,153.0 L541.2,145.1 L542.0,122.4 L542.8,118.7 L543.7,121.2 L544.5,120.3 L545.4,107.1 L546.2,134.4 L547.0,116.9 L547.9,127.9 L548.7,136.5 L549.6,119.1 L550.4,127.3 L551.2,183.3 L552.1,185.2 L552.9,187.3 L553.8,185.8 L554.6,205.7 L555.5,214.6 L556.3,219.8 L557.1,208.4 L558.0,189.8 L558.8,185.5 L559.7,196.5 L560.5,198.3 L561.3,206.6 L562.2,186.4 L563.0,174.2 L563.9,175.7 L564.7,176.3 L565.6,171.4 L566.4,183.7 L567.2,184.9 L568.1,181.5 L568.9,135.0 L569.8,161.3 L570.6,181.2 L571.4,170.2 L572.3,158.2 L573.1,152.7 L574.0,176.3 L574.8,234.8 L575.7,238.5 L576.5,233.2 L577.3,211.2 L578.2,218.6 L579.0,210.3 L579.9,208.8 L580.7,210.3 L581.5,207.2 L582.4,213.3 L583.2,210.6 L584.1,203.6 L584.9,137.7 L585.8,137.7 L586.6,201.4 L587.4,198.0 L588.3,195.3 L589.1,199.6 L590.0,155.8 L590.8,129.8 L591.6,147.2 L592.5,219.5 L593.3,224.1 L594.2,244.6 L595.0,244.9 L595.8,255.6 L596.7,256.5 L597.5,255.6 L598.4,245.5 L599.2,233.9 L600.1,215.2 L600.9,201.4 L601.7,192.2 L602.6,185.8 L603.4,156.1 L604.3,147.2 L605.1,132.5 L605.9,140.5 L606.8,140.2 L607.6,152.4 L608.5,147.8 L609.3,136.8 L610.2,167.4 L611.0,176.9 L611.8,180.6 L612.7,197.4 L613.5,225.6 L614.4,235.1 L615.2,234.5 L616.0,227.1 L616.9,226.8 L617.7,226.5 L618.6,218.9 L619.4,219.8 L620.3,202.9 L621.1,206.9 L621.9,204.8 L622.8,186.4 L623.6,177.2 L624.5,189.5 L625.3,182.7 L626.1,179.7 L627.0,189.8 L627.8,195.3 L628.7,185.5 L629.5,196.5 L630.4,193.1 L631.2,195.0 L632.0,141.4 L632.9,155.5 L633.7,190.4 L634.6,187.9 L635.4,191.0 L636.2,190.7 L637.1,195.6 L637.9,192.8 L638.8,180.9 L639.6,174.8 L640.4,192.5 L641.3,204.5 L642.1,190.7 L643.0,190.1 L643.8,184.0 L644.7,190.1 L645.5,202.0 L646.3,220.1 L647.2,186.4 L648.0,190.4 L648.9,204.5 L649.7,199.6 L650.5,179.4 L651.4,195.6 L652.2,188.9 L653.1,167.1 L653.9,176.9 L654.8,192.5 L655.6,180.9 L656.4,218.9 L657.3,227.1 L658.1,202.9 L659.0,201.1 L659.8,198.0 L660.6,186.1 L661.5,228.7 L662.3,226.2 L663.2,215.8 L664.0,219.2 L664.9,198.7 L665.7,197.1 L666.5,175.7 L667.4,174.5 L668.2,174.8 L669.1,142.0 L669.9,123.6 L670.7,132.2 L671.6,133.1 L672.4,131.6 L673.3,142.3 L674.1,142.0 L675.0,136.5 L675.8,133.4 L676.6,134.1 L677.5,150.3 L678.3,182.7 L679.2,180.6 L680.0,189.5" stroke="#8c564b" stroke-width="2" fill="none" opacity="0.8"/>
<!-- Forecast Difference -->
<path d="M80.0,420.0 L80.8,420.0 L81.7,420.0 L82.5,420.0 L83.4,420.0 L84.2,420.0 L85.0,420.0 L85.9,420.0 L86.7,420.0 L87.6,420.0 L88.4,420.0 L89.3,420.0 L90.1,420.0 L90.9,420.0 L91.8,420.0 L92.6,420.0 L93.5,420.0 L94.3,420.0 L95.1,420.0 L96.0,420.0 L96.8,420.0 L97.7,420.0 L98.5,420.0 L99.4,420.0 L100.2,420.0 L101.0,420.0 L101.9,420.0 L102.7,420.0 L103.6,420.0 L104.4,420.0 L105.2,420.0 L106.1,420.0 L106.9,420.0 L107.8,420.0 L108.6,420.0 L109.5,420.0 L110.3,420.0 L111.1,420.0 L112.0,420.0 L112.8,420.0 L113.7,420.0 L114.5,420.0 L115.3,420.0 L116.2,420.0 L117.0,420.0 L117.9,420.0 L118.7,420.0 L119.6,420.0 L120.4,420.0 L121.2,420.0 L122.1,420.0 L122.9,420.0 L123.8,420.0 L124.6,420.0 L125.4,420.0 L126.3,420.0 L127.1,420.0 L128.0,420.0 L128.8,420.0 L129.6,420.0 L130.5,420.0 L131.3,420.0 L132.2,420.0 L133.0,420.0 L133.9,420.0 L134.7,420.0 L135.5,420.0 L136.4,420.0 L137.2,420.0 L138.1,420.0 L138.9,420.0 L139.7,420.0 L140.6,420.0 L141.4,420.0 L142.3,420.0 L143.1,420.0 L144.0,420.0 L144.8,420.0 L145.6,420.0 L146.5,420.0 L147.3,420.0 L148.2,420.0 L149.0,420.0 L149.8,420.0 L150.7,420.0 L151.5,420.0 L152.4,420.0 L153.2,420.0 L154.1,420.0 L154.9,420.0 L155.7,420.0 L156.6,420.0 L157.4,420.0 L158.3,420.0 L159.1,420.0 L159.9,420.0 L160.8,420.0 L161.6,420.0 L162.5,420.0 L163.3,420.0 L164.2,420.0 L165.0,420.0 L165.8,420.0 L166.7,420.0 L167.5,420.0 L168.4,420.0 L169.2,420.0 L170.0,420.0 L170.9,420.0 L171.7,420.0 L172.6,420.0 L173.4,420.0 L174.2,420.0 L175.1,420.0 L175.9,420.0 L176.8,420.0 L177.6,420.0 L178.5,420.0 L179.3,420.0 L180.1,420.0 L181.0,420.0 L181.8,420.0 L182.7,420.0 L183.5,420.0 L184.3,420.0 L185.2,420.0 L186.0,420.0 L186.9,420.0 L187.7,420.0 L188.6,420.0 L189.4,420.0 L190.2,420.0 L191.1,420.0 L191.9,420.0 L192.8,420.0 L193.6,420.0 L194.4,420.0 L195.3,420.0 L196.1,420.0 L197.0,420.0 L197.8,420.0 L198.7,420.0 L199.5,420.0 L200.3,420.0 L201.2,420.0 L202.0,420.0 L202.9,420.0 L203.7,420.0 L204.5,420.0 L205.4,420.0 L206.2,420.0 L207.1,420.0 L207.9,420.0 L208.8,420.0 L209.6,420.0 L210.4,420.0 L211.3,420.0 L212.1,420.0 L213.0,420.0 L213.8,420.0 L214.6,420.0 L215.5,420.0 L216.3,420.0 L217.2,420.0 L218.0,420.0 L218.8,420.0 L219.7,420.0 L220.5,420.0 L221.4,420.0 L222.2,420.0 L223.1,420.0 L223.9,420.0 L224.7,420.0 L225.6,420.0 L226.4,420.0 L227.3,420.0 L228.1,420.0 L228.9,420.0 L229.8,420.0 L230.6,420.0 L231.5,420.0 L232.3,420.0 L233.2,420.0 L234.0,420.0 L234.8,420.0 L235.7,420.0 L236.5,420.0 L237.4,420.0 L238.2,420.0 L239.0,420.0 L239.9,420.0 L240.7,420.0 L241.6,420.0 L242.4,420.0 L243.3,420.0 L244.1,420.0 L244.9,420.0 L245.8,420.0 L246.6,420.0 L247.5,420.0 L248.3,420.0 L249.1,420.0 L250.0,420.0 L250.8,420.0 L251.7,420.0 L252.5,420.0 L253.4,420.0 L254.2,420.0 L255.0,420.0 L255.9,420.0 L256.7,420.0 L257.6,420.0 L258.4,420.0 L259.2,420.0 L260.1,420.0 L260.9,420.0 L261.8,420.0 L262.6,420.0 L263.5,420.0 L264.3,420.0 L265.1,420.0 L266.0,420.0 L266.8,420.0 L267.7,420.0 L268.5,420.0 L269.3,420.0 L270.2,420.0 L271.0,420.0 L271.9,420.0 L272.7,420.0 L273.5,420.0 L274.4,420.0 L275.2,420.0 L276.1,420.0 L276.9,420.0 L277.8,420.0 L278.6,420.0 L279.4,420.0 L280.3,420.0 L281.1,420.0 L282.0,420.0 L282.8,420.0 L283.6,420.0 L284.5,420.0 L285.3,420.0 L286.2,420.0 L287.0,420.0 L287.9,420.0 L288.7,420.0 L289.5,420.0 L290.4,420.0 L291.2,420.0 L292.1,420.0 L292.9,420.0 L293.7,420.0 L294.6,420.0 L295.4,420.0 L296.3,420.0 L297.1,420.0 L298.0,420.0 L298.8,420.0 L299.6,420.0 L300.5,420.0 L301.3,420.0 L302.2,420.0 L303.0,420.0 L303.8,420.0 L304.7,420.0 L305.5,420.0 L306.4,420.0 L307.2,420.0 L308.1,420.0 L308.9,420.0 L309.7,420.0 L310.6,420.0 L311.4,420.0 L312.3,420.0 L313.1,420.0 L313.9,420.0 L314.8,420.0 L315.6,420.0 L316.5,420.0 L317.3,420.0 L318.1,420.0 L319.0,420.0 L319.8,420.0 L320.7,420.0 L321.5,420.0 L322.4,420.0 L323.2,420.0 L324.0,420.0 L324.9,420.0 L325.7,420.0 L326.6,420.0 L327.4,420.0 L328.2,420.0 L329.1,420.0 L329.9,420.0 L330.8,420.0 L331.6,420.0 L332.5,420.0 L333.3,420.0 L334.1,420.0 L335.0,420.0 L335.8,420.0 L336.7,420.0 L337.5,420.0 L338.3,420.0 L339.2,420.0 L340.0,420.0 L340.9,420.0 L341.7,420.0 L342.6,420.0 L343.4,420.0 L344.2,420.0 L345.1,420.0 L345.9,420.0 L346.8,420.0 L347.6,420.0 L348.4,420.0 L349.3,420.0 L350.1,420.0 L351.0,420.0 L351.8,420.0 L352.7,420.0 L353.5,420.0 L354.3,420.0 L355.2,420.0 L356.0,420.0 L356.9,420.0 L357.7,420.0 L358.5,420.0 L359.4,420.0 L360.2,420.0 L361.1,420.0 L361.9,420.0 L362.7,420.0 L363.6,420.0 L364.4,420.0 L365.3,420.0 L366.1,420.0 L367.0,420.0 L367.8,420.0 L368.6,420.0 L369.5,420.0 L370.3,420.0 L371.2,420.0 L372.0,420.0 L372.8,420.0 L373.7,420.0 L374.5,420.0 L375.4,420.0 L376.2,420.0 L377.1,420.0 L377.9,420.0 L378.7,420.0 L379.6,420.0 L380.4,420.0 L381.3,420.0 L382.1,420.0 L382.9,420.0 L383.8,420.0 L384.6,420.0 L385.5,420.0 L386.3,420.0 L387.2,420.0 L388.0,420.0 L388.8,420.0 L389.7,420.0 L390.5,420.0 L391.4,420.0 L392.2,420.0 L393.0,420.0 L393.9,420.0 L394.7,420.0 L395.6,420.0 L396.4,420.0 L397.3,420.0 L398.1,420.0 L398.9,420.0 L399.8,420.0 L400.6,420.0 L401.5,420.0 L402.3,420.0 L403.1,420.0 L404.0,420.0 L404.8,420.0 L405.7,420.0 L406.5,420.0 L407.3,420.0 L408.2,420.0 L409.0,420.0 L409.9,420.0 L410.7,420.0 L411.6,420.0 L412.4,420.0 L413.2,420.0 L414.1,420.0 L414.9,420.0 L415.8,420.0 L416.6,420.0 L417.4,420.0 L418.3,420.0 L419.1,420.0 L420.0,420.0 L420.8,420.0 L421.7,420.0 L422.5,420.0 L423.3,420.0 L424.2,420.0 L425.0,420.0 L425.9,420.0 L426.7,420.0 L427.5,420.0 L428.4,420.0 L429.2,420.0 L430.1,420.0 L430.9,420.0 L431.8,420.0 L432.6,420.0 L433.4,420.0 L434.3,420.0 L435.1,420.0 L436.0,420.0 L436.8,420.0 L437.6,420.0 L438.5,420.0 L439.3,420.0 L440.2,420.0 L441.0,420.0 L441.9,420.0 L442.7,420.0 L443.5,420.0 L444.4,420.0 L445.2,420.0 L446.1,420.0 L446.9,420.0 L447.7,420.0 L448.6,420.0 L449.4,420.0 L450.3,420.0 L451.1,420.0 L451.9,420.0 L452.8,420.0 L453.6,420.0 L454.5,420.0 L455.3,420.0 L456.2,420.0 L457.0,420.0 L457.8,420.0 L458.7,420.0 L459.5,420.0 L460.4,420.0 L461.2,420.0 L462.0,420.0 L462.9,420.0 L463.7,420.0 L464.6,420.0 L465.4,420.0 L466.3,420.0 L467.1,420.0 L467.9,420.0 L468.8,420.0 L469.6,420.0 L470.5,420.0 L471.3,420.0 L472.1,420.0 L473.0,420.0 L473.8,420.0 L474.7,420.0 L475.5,420.0 L476.4,420.0 L477.2,420.0 L478.0,420.0 L478.9,420.0 L479.7,420.0 L480.6,420.0 L481.4,420.0 L482.2,420.0 L483.1,420.0 L483.9,420.0 L484.8,420.0 L485.6,420.0 L486.5,420.0 L487.3,420.0 L488.1,420.0 L489.0,420.0 L489.8,420.0 L490.7,420.0 L491.5,420.0 L492.3,420.0 L493.2,420.0 L494.0,420.0 L494.9,420.0 L495.7,420.0 L496.5,420.0 L497.4,420.0 L498.2,420.0 L499.1,420.0 L499.9,420.0 L500.8,420.0 L501.6,420.0 L502.4,420.0 L503.3,420.0 L504.1,420.0 L505.0,420.0 L505.8,420.0 L506.6,420.0 L507.5,420.0 L508.3,420.0 L509.2,420.0 L510.0,420.0 L510.9,420.0 L511.7,420.0 L512.5,420.0 L513.4,420.0 L514.2,420.0 L515.1,420.0 L515.9,420.0 L516.7,420.0 L517.6,420.0 L518.4,420.0 L519.3,420.0 L520.1,420.0 L521.0,420.0 L521.8,420.0 L522.6,420.0 L523.5,420.0 L524.3,420.0 L525.2,420.0 L526.0,420.0 L526.8,420.0 L527.7,420.0 L528.5,420.0 L529.4,420.0 L530.2,420.0 L531.1,420.0 L531.9,420.0 L532.7,420.0 L533.6,420.0 L534.4,420.0 L535.3,420.0 L536.1,420.0 L536.9,420.0 L537.8,420.0 L538.6,420.0 L539.5,420.0 L540.3,420.0 L541.2,420.0 L542.0,420.0 L542.8,420.0 L543.7,420.0 L544.5,420.0 L545.4,420.0 L546.2,420.0 L547.0,420.0 L547.9,420.0 L548.7,420.0 L549.6,420.0 L550.4,420.0 L551.2,420.0 L552.1,420.0 L552.9,420.0 L553.8,420.0 L554.6,420.0 L555.5,420.0 L556.3,420.0 L557.1,420.0 L558.0,420.0 L558.8,420.0 L559.7,420.0 L560.5,420.0 L561.3,420.0 L562.2,420.0 L563.0,420.0 L563.9,420.0 L564.7,420.0 L565.6,420.0 L566.4,420.0 L567.2,420.0 L568.1,420.0 L568.9,420.0 L569.8,420.0 L570.6,420.0 L571.4,420.0 L572.3,420.0 L573.1,420.0 L574.0,420.0 L574.8,420.0 L575.7,420.0 L576.5,420.0 L577.3,420.0 L578.2,420.0 L579.0,420.0 L579.9,420.0 L580.7,420.0 L581.5,420.0 L582.4,420.0 L583.2,420.0 L584.1,420.0 L584.9,420.0 L585.8,420.0 L586.6,420.0 L587.4,420.0 L588.3,420.0 L589.1,420.0 L590.0,420.0 L590.8,420.0 L591.6,420.0 L592.5,420.0 L593.3,420.0 L594.2,420.0 L595.0,420.0 L595.8,420.0 L596.7,420.0 L597.5,420.0 L598.4,420.0 L599.2,420.0 L600.1,420.0 L600.9,420.0 L601.7,420.0 L602.6,420.0 L603.4,420.0 L604.3,420.0 L605.1,420.0 L605.9,420.0 L606.8,420.0 L607.6,420.0 L608.5,420.0 L609.3,420.0 L610.2,420.0 L611.0,420.0 L611.8,420.0 L612.7,420.0 L613.5,420.0 L614.4,420.0 L615.2,420.0 L616.0,420.0 L616.9,420.0 L617.7,420.0 L618.6,420.0 L619.4,420.0 L620.3,420.0 L621.1,420.0 L621.9,420.0 L622.8,420.0 L623.6,420.0 L624.5,420.0 L625.3,420.0 L626.1,420.0 L627.0,420.0 L627.8,420.0 L628.7,420.0 L629.5,420.0 L630.4,420.0 L631.2,420.0 L632.0,420.0 L632.9,420.0 L633.7,420.0 L634.6,420.0 L635.4,420.0 L636.2,420.0 L637.1,420.0 L637.9,420.0 L638.8,420.0 L639.6,420.0 L640.4,420.0 L641.3,420.0 L642.1,420.0 L643.0,420.0 L643.8,420.0 L644.7,420.0 L645.5,420.0 L646.3,420.0 L647.2,420.0 L648.0,420.0 L648.9,420.0 L649.7,420.0 L650.5,420.0 L651.4,420.0 L652.2,420.0 L653.1,420.0 L653.9,420.0 L654.8,420.0 L655.6,420.0 L656.4,420.0 L657.3,420.0 L658.1,420.0 L659.0,420.0 L659.8,420.0 L660.6,420.0 L661.5,420.0 L662.3,420.0 L663.2,420.0 L664.0,420.0 L664.9,420.0 L665.7,420.0 L666.5,420.0 L667.4,420.0 L668.2,420.0 L669.1,420.0 L669.9,420.0 L670.7,420.0 L671.6,420.0 L672.4,420.0 L673.3,420.0 L674.1,420.0 L675.0,420.0 L675.8,420.0 L676.6,420.0 L677.5,420.0 L678.3,420.0 L679.2,420.0 L680.0,420.0" stroke="#e377c2" stroke-width="2" fill="none" opacity="0.8"/>

<!-- Legend -->
<line x1="690" y1="70" x2="705" y2="70" stroke="#1f77b4" stroke-width="3"/>
<text x="710" y="74" class="legend">Wind Generation</text>
<line x1="690" y1="88" x2="705" y2="88" stroke="#ff7f0e" stroke-width="3"/>
<text x="710" y="92" class="legend">Hydro Generation</text>
<line x1="690" y1="106" x2="705" y2="106" stroke="#2ca02c" stroke-width="3"/>
<text x="710" y="110" class="legend">Thermal Generation</text>
<line x1="690" y1="124" x2="705" y2="124" stroke="#d62728" stroke-width="3"/>
<text x="710" y="128" class="legend">Solar Generation</text>
<line x1="690" y1="142" x2="705" y2="142" stroke="#9467bd" stroke-width="3"/>
<text x="710" y="146" class="legend">Forecast</text>
<line x1="690" y1="160" x2="705" y2="160" stroke="#8c564b" stroke-width="3"/>
<text x="710" y="164" class="legend">Total Generation</text>
<line x1="690" y1="178" x2="705" y2="178" stroke="#e377c2" stroke-width="3"/>
<text x="710" y="182" class="legend">Forecast Difference</text>

<!-- Date range -->
<text x="80" y="495" class="legend">Range: 05/09 - 06/08/2026 (714 records)</text>
</svg>