<?xml version="1.0" encoding="UTF-8"?>
<svg width="800" height="500" xmlns="http://www.w3.org/2000/svg">
<style>
.axis-line { stroke: #333; stroke-width: 1; }
.grid-line { stroke: #ddd; stroke-width: 0.5; }
.title { font: 16px Arial; text-anchor: middle; fill: #333; }
.axis-label { font: 12px Arial; text-anchor: middle; fill: #666; }
.legend { font: 10px Arial; fill: #333; }
</style>

<!-- Title -->
<text x="400.0" y="25" class="title">Northwestern Energy Generation Data - Past 30 Days</text>

<!-- Plot area background -->
<rect x="80" y="50" width="600" height="370" fill="white" stroke="#ddd"/>

<!-- Y-axis -->
<line x1="80" y1="50" x2="80" y2="420" class="axis-line"/>
<text x="30" y="235.0" class="axis-label" transform="rotate(-90, 30, 235.0)">Generation (MW)</text>

<!-- X-axis -->
<line x1="80" y1="420" x2="680" y2="420" class="axis-line"/>
<text x="380.0" y="480" class="axis-label">Time</text>
<line x1="80" y1="420.0" x2="680" y2="420.0" class="grid-line"/>
<text x="70" y="425.0" class="legend" text-anchor="end">0</text>
<line x1="80" y1="327.5" x2="680" y2="327.5" class="grid-line"/>
<text x="70" y="332.5" class="legend" text-anchor="end">345</text>
<line x1="80" y1="235.0" x2="680" y2="235.0" class="grid-line"/>
<text x="70" y="240.0" class="legend" text-anchor="end">690</text>
<line x1="80" y1="142.5" x2="680" y2="142.5" class="grid-line"/>
<text x="70" y="147.5" class="legend" text-anchor="end">1035</text>
<line x1="80" y1="50.0" x2="680" y2="50.0" class="grid-line"/>
<text x="70" y="55.0" class="legend" text-anchor="end">1380</text>
<!-- Wind Generation -->
<path d="M80.0,341.4 L80.8,347.1 L81.7,353.0 L82.5,355.1 L83.4,357.8 L84.2,358.9 L85.0,358.1 L85.9,356.7 L86.7,362.6 L87.6,370.4 L88.4,370.9 L89.3,372.8 L90.1,370.1 L90.9,369.3 L91.8,363.7 L92.6,366.6 L93.5,362.1 L94.3,361.8 L95.1,362.3 L96.0,366.1 L96.8,365.3 L97.7,370.7 L98.5,376.6 L99.4,384.6 L100.2,387.8 L101.0,391.0 L101.9,395.1 L102.7,401.2 L103.6,403.1 L104.4,406.9 L105.2,412.5 L106.1,418.9 L106.9,420.0 L107.8,419.7 L108.6,420.0 L109.5,420.0 L110.3,420.0 L111.1,420.0 L112.0,420.0 L112.8,420.0 L113.7,420.0 L114.5,420.0 L115.3,420.0 L116.2,418.7 L117.0,418.4 L117.9,419.2 L118.7,418.9 L119.6,419.5 L120.4,418.7 L121.2,418.4 L122.1,417.9 L122.9,414.6 L123.8,411.4 L124.6,408.5 L125.4,405.3 L126.3,405.5 L127.1,404.4 L128.0,398.8 L128.8,388.9 L129.6,384.9 L130.5,392.6 L131.3,349.2 L132.2,329.6 L133.0,345.7 L133.9,356.2 L134.7,364.5 L135.5,368.2 L136.4,363.4 L137.2,377.9 L138.1,382.5 L138.9,383.8 L139.7,402.0 L140.6,408.7 L141.4,410.1 L142.3,415.7 L143.1,415.7 L144.0,416.2 L144.8,416.5 L145.6,416.5 L146.5,417.1 L147.3,417.3 L148.2,417.6 L149.0,417.3 L149.8,417.1 L150.7,417.1 L151.5,416.5 L152.4,414.1 L153.2,411.2 L154.1,407.1 L154.9,405.5 L155.7,400.7 L156.6,397.5 L157.4,392.4 L158.3,394.5 L159.1,395.1 L159.9,395.3 L160.8,401.5 L161.6,405.5 L162.5,407.9 L163.3,410.6 L164.2,406.6 L165.0,411.4 L165.8,410.9 L166.7,406.9 L167.5,406.1 L168.4,404.7 L169.2,404.2 L170.0,415.4 L170.9,417.9 L171.7,416.5 L172.6,418.1 L173.4,418.4 L174.2,418.9 L175.1,418.7 L175.9,417.9 L176.8,412.8 L177.6,407.4 L178.5,403.6 L179.3,402.8 L180.1,395.3 L181.0,386.5 L181.8,380.3 L182.7,369.0 L183.5,375.5 L184.3,381.1 L185.2,353.8 L186.0,350.3 L186.9,350.3 L187.7,354.6 L188.6,337.4 L189.4,367.7 L190.2,356.2 L191.1,367.2 L191.9,370.7 L192.8,362.1 L193.6,349.7 L194.4,343.3 L195.3,343.0 L196.1,344.4 L197.0,317.0 L197.8,320.0 L198.7,309.5 L199.5,310.6 L200.3,341.2 L201.2,328.0 L202.0,337.1 L202.9,328.3 L203.7,332.6 L204.5,334.5 L205.4,341.7 L206.2,332.3 L207.1,332.0 L207.9,321.6 L208.8,328.0 L209.6,351.3 L210.4,357.5 L211.3,359.9 L212.1,365.6 L213.0,380.0 L213.8,381.1 L214.6,370.9 L215.5,350.8 L216.3,348.4 L217.2,365.3 L218.0,363.7 L218.8,360.2 L219.7,339.3 L220.5,349.7 L221.4,352.4 L222.2,359.1 L223.1,372.0 L223.9,357.0 L224.7,340.1 L225.6,315.9 L226.4,310.3 L227.3,312.5 L228.1,309.5 L228.9,313.8 L229.8,312.5 L230.6,329.6 L231.5,325.6 L232.3,329.1 L233.2,317.3 L234.0,327.7 L234.8,327.2 L235.7,321.6 L236.5,314.6 L237.4,321.6 L238.2,319.7 L239.0,336.3 L239.9,335.3 L240.7,322.1 L241.6,318.1 L242.4,321.8 L243.3,321.8 L244.1,325.1 L244.9,327.5 L245.8,335.0 L246.6,329.4 L247.5,333.6 L248.3,339.0 L249.1,328.6 L250.0,329.1 L250.8,361.8 L251.7,398.8 L252.5,392.6 L253.4,388.4 L254.2,383.3 L255.0,385.9 L255.9,382.2 L256.7,342.5 L257.6,345.2 L258.4,352.7 L259.2,366.9 L260.1,358.9 L260.9,360.5 L261.8,342.0 L262.6,331.5 L263.5,343.3 L264.3,362.1 L265.1,349.7 L266.0,324.5 L266.8,318.6 L267.7,319.2 L268.5,323.7 L269.3,324.3 L270.2,334.5 L271.0,335.8 L271.9,332.0 L272.7,331.0 L273.5,330.4 L274.4,330.4 L275.2,329.9 L276.1,334.2 L276.9,315.1 L277.8,311.4 L278.6,311.4 L279.4,311.1 L280.3,313.3 L281.1,312.5 L282.0,311.7 L282.8,325.1 L283.6,325.3 L284.5,315.9 L285.3,319.7 L286.2,318.6 L287.0,320.8 L287.9,330.7 L288.7,336.6 L289.5,364.0 L290.4,367.7 L291.2,371.2 L292.1,365.3 L292.9,363.1 L293.7,371.5 L294.6,401.8 L295.4,395.9 L296.3,385.1 L297.1,386.5 L298.0,385.4 L298.8,387.8 L299.6,405.0 L300.5,413.8 L301.3,418.7 L302.2,420.0 L303.0,417.3 L303.8,414.1 L304.7,409.0 L305.5,410.1 L306.4,408.5 L307.2,406.6 L308.1,402.0 L308.9,404.7 L309.7,396.7 L310.6,382.2 L311.4,385.7 L312.3,357.5 L313.1,347.6 L313.9,341.7 L314.8,348.7 L315.6,345.4 L316.5,342.8 L317.3,358.9 L318.1,368.5 L319.0,379.5 L319.8,403.6 L320.7,409.0 L321.5,402.8 L322.4,395.6 L323.2,389.7 L324.0,392.1 L324.9,399.6 L325.7,395.1 L326.6,398.5 L327.4,399.9 L328.2,399.1 L329.1,399.1 L329.9,400.2 L330.8,397.7 L331.6,403.9 L332.5,403.6 L333.3,401.5 L334.1,398.0 L335.0,380.8 L335.8,377.1 L336.7,365.8 L337.5,373.6 L338.3,379.2 L339.2,361.3 L340.0,360.2 L340.9,358.9 L341.7,350.8 L342.6,351.3 L343.4,372.3 L344.2,364.8 L345.1,374.4 L345.9,376.6 L346.8,393.2 L347.6,382.5 L348.4,379.0 L349.3,366.1 L350.1,356.7 L351.0,376.3 L351.8,365.8 L352.7,346.5 L353.5,364.8 L354.3,367.7 L355.2,362.6 L356.0,341.4 L356.9,363.4 L357.7,363.4 L358.5,370.1 L359.4,397.7 L360.2,386.5 L361.1,387.8 L361.9,391.8 L362.7,393.5 L363.6,371.2 L364.4,357.2 L365.3,329.9 L366.1,321.6 L367.0,323.5 L367.8,347.9 L368.6,335.3 L369.5,342.2 L370.3,353.8 L371.2,373.1 L372.0,369.3 L372.8,392.6 L373.7,399.9 L374.5,399.9 L375.4,399.9 L376.2,402.0 L377.1,399.1 L377.9,399.4 L378.7,398.3 L379.6,393.2 L380.4,396.4 L381.3,395.9 L382.1,393.5 L382.9,395.1 L383.8,387.8 L384.6,381.4 L385.5,380.8 L386.3,370.9 L387.2,372.3 L388.0,374.7 L388.8,370.9 L389.7,364.5 L390.5,378.4 L391.4,378.4 L392.2,381.4 L393.0,373.6 L393.9,361.8 L394.7,369.3 L395.6,351.9 L396.4,373.3 L397.3,380.3 L398.1,366.4 L398.9,345.7 L399.8,362.3 L400.6,379.5 L401.5,370.4 L402.3,379.0 L403.1,370.4 L404.0,366.6 L404.8,361.5 L405.7,361.3 L406.5,379.5 L407.3,391.3 L408.2,388.9 L409.0,390.8 L409.9,389.7 L410.7,400.4 L411.6,405.8 L412.4,410.6 L413.2,405.5 L414.1,397.2 L414.9,399.6 L415.8,387.0 L416.6,367.4 L417.4,356.2 L418.3,352.7 L419.1,309.0 L420.0,314.1 L420.8,318.4 L421.7,310.9 L422.5,315.9 L423.3,310.0 L424.2,311.1 L425.0,305.8 L425.9,308.4 L426.7,310.9 L427.5,312.5 L428.4,315.4 L429.2,310.9 L430.1,311.7 L430.9,309.8 L431.8,358.9 L432.6,365.3 L433.4,368.0 L434.3,372.8 L435.1,368.0 L436.0,363.4 L436.8,362.3 L437.6,362.3 L438.5,363.4 L439.3,319.2 L440.2,315.7 L441.0,309.5 L441.9,311.1 L442.7,313.0 L443.5,317.6 L444.4,317.6 L445.2,324.5 L446.1,317.6 L447.7,326.1 L448.6,340.4 L449.4,338.7 L450.3,348.4 L451.1,338.5 L451.9,332.0 L452.8,382.7 L453.6,395.6 L454.5,395.1 L455.3,401.0 L456.2,402.8 L457.0,408.7 L457.8,407.7 L458.7,398.0 L459.5,385.4 L460.4,346.8 L461.2,328.0 L462.0,318.6 L462.9,325.1 L463.7,340.6 L464.6,348.4 L465.4,359.7 L466.3,366.1 L467.1,372.5 L467.9,378.4 L468.8,391.8 L469.6,398.3 L470.5,409.0 L471.3,417.9 L472.1,419.5 L473.0,420.0 L473.8,416.5 L474.7,404.4 L475.5,399.1 L476.4,393.5 L477.2,388.4 L478.0,377.1 L478.9,392.1 L479.7,388.4 L480.6,379.5 L481.4,387.6 L482.2,398.0 L483.1,400.4 L483.9,404.4 L484.8,412.2 L485.6,415.2 L486.5,415.7 L487.3,415.7 L488.1,414.1 L489.0,414.6 L489.8,410.9 L490.7,406.1 L491.5,393.2 L492.3,394.0 L493.2,386.5 L494.0,391.3 L494.9,373.3 L495.7,366.9 L496.5,362.9 L497.4,353.0 L498.2,364.8 L499.1,381.7 L499.9,347.9 L500.8,359.4 L501.6,366.6 L502.4,353.5 L503.3,379.0 L504.1,383.0 L505.0,372.5 L505.8,354.0 L506.6,337.9 L507.5,358.6 L508.3,337.9 L509.2,351.9 L510.0,364.0 L510.9,361.5 L511.7,355.1 L512.5,331.0 L513.4,326.1 L514.2,341.7 L515.1,310.6 L515.9,312.5 L516.7,309.0 L517.6,330.4 L518.4,348.1 L519.3,330.4 L520.1,342.2 L521.0,384.6 L521.8,384.3 L522.6,325.1 L523.5,314.1 L524.3,305.0 L525.2,308.4 L526.0,314.1 L526.8,321.8 L527.7,344.6 L528.5,353.2 L529.4,385.4 L530.2,401.2 L531.1,405.0 L531.9,396.1 L532.7,397.5 L533.6,405.5 L534.4,400.7 L535.3,408.7 L536.1,409.8 L536.9,400.7 L537.8,391.6 L538.6,388.9 L539.5,376.6 L540.3,373.9 L541.2,350.0 L542.0,356.2 L542.8,357.0 L543.7,366.9 L544.5,388.9 L545.4,402.0 L546.2,403.9 L547.0,408.7 L547.9,403.6 L548.7,401.5 L549.6,407.9 L550.4,412.0 L551.2,414.1 L552.1,413.3 L552.9,416.0 L553.8,417.9 L554.6,418.7 L555.5,418.9 L556.3,414.9 L557.1,412.2 L558.0,406.9 L558.8,410.1 L559.7,405.3 L560.5,406.3 L561.3,406.6 L562.2,406.9 L563.0,407.1 L563.9,406.3 L564.7,401.0 L565.6,403.4 L566.4,402.3 L567.2,403.1 L568.1,406.1 L568.9,410.1 L569.8,410.6 L570.6,416.2 L571.4,420.0 L572.3,420.0 L573.1,420.0 L574.0,418.4 L574.8,408.7 L575.7,398.5 L576.5,394.0 L577.3,370.1 L578.2,358.3 L579.0,356.7 L579.9,357.8 L580.7,356.7 L581.5,318.1 L582.4,312.7 L583.2,331.0 L584.1,327.5 L584.9,331.8 L585.8,347.3 L586.6,350.3 L587.4,358.9 L588.3,361.8 L589.1,379.8 L590.0,384.3 L590.8,399.6 L591.6,409.0 L592.5,412.2 L593.3,413.3 L594.2,411.7 L595.0,413.6 L595.8,411.7 L596.7,406.3 L597.5,400.7 L598.4,400.4 L599.2,403.1 L600.1,405.5 L600.9,405.5 L601.7,402.3 L602.6,401.8 L603.4,405.5 L604.3,408.2 L605.1,405.8 L605.9,403.1 L606.8,405.0 L607.6,404.2 L608.5,394.3 L609.3,382.2 L610.2,356.7 L611.0,331.0 L611.8,323.2 L612.7,319.2 L613.5,317.6 L614.4,315.1 L615.2,312.2 L616.0,312.2 L616.9,314.6 L617.7,313.8 L618.6,313.5 L619.4,307.9 L620.3,323.5 L621.1,310.0 L621.9,310.9 L622.8,308.7 L623.6,313.3 L624.5,328.3 L625.3,337.4 L626.1,354.0 L627.0,379.2 L627.8,373.6 L628.7,379.0 L629.5,378.2 L630.4,351.3 L631.2,357.5 L632.0,348.1 L632.9,371.5 L633.7,343.3 L634.6,361.0 L635.4,346.5 L636.2,387.3 L637.1,378.4 L637.9,374.7 L638.8,380.3 L639.6,380.8 L640.4,373.9 L641.3,331.0 L642.1,311.1 L643.0,321.0 L643.8,333.6 L644.7,318.6 L645.5,318.6 L646.3,309.8 L647.2,315.1 L648.0,310.9 L648.9,315.9 L649.7,335.5 L650.5,333.6 L651.4,347.1 L652.2,353.0 L653.1,335.5 L653.9,347.9 L654.8,361.3 L655.6,347.1 L656.4,330.2 L657.3,309.8 L658.1,309.5 L659.0,310.3 L659.8,318.4 L660.6,319.4 L661.5,334.5 L662.3,341.2 L663.2,343.0 L664.0,322.7 L664.9,340.4 L665.7,332.8 L666.5,328.3 L667.4,351.3 L668.2,336.3 L669.1,337.1 L669.9,329.6 L670.7,328.3 L671.6,347.6 L672.4,338.2 L673.3,330.4 L674.1,328.0 L675.0,360.2 L675.8,343.3 L676.6,350.0 L677.5,335.0 L678.3,325.3 L679.2,326.4 L680.0,321.6" stroke="#1f77b4" stroke-width="2" fill="none" opacity="0.8"/>
<!-- Hydro Generation -->
<path d="M80.0,344.1 L80.8,344.4 L81.7,343.6 L82.5,344.1 L83.4,343.8 L84.2,343.8 L85.0,343.8 L85.9,343.8 L86.7,343.6 L87.6,345.2 L88.4,345.4 L89.3,345.7 L90.1,345.4 L90.9,344.4 L91.8,344.6 L92.6,343.8 L93.5,342.8 L94.3,343.3 L95.1,342.8 L96.0,343.3 L96.8,342.5 L97.7,341.4 L98.5,342.0 L99.4,340.6 L100.2,340.6 L101.0,341.2 L101.9,341.2 L102.7,341.7 L103.6,347.1 L104.4,348.4 L105.2,352.2 L106.1,354.3 L106.9,353.8 L107.8,354.8 L108.6,354.0 L109.5,354.8 L110.3,355.9 L111.1,355.1 L112.0,353.5 L112.8,353.0 L113.7,353.0 L114.5,351.3 L115.3,351.3 L116.2,351.1 L117.0,351.3 L117.9,351.1 L118.7,351.1 L119.6,351.3 L120.4,351.3 L121.2,351.6 L122.1,351.9 L122.9,351.9 L123.8,353.2 L124.6,353.0 L125.4,355.9 L126.3,357.2 L127.1,357.2 L128.0,357.5 L128.8,358.9 L129.6,359.4 L130.5,359.4 L131.3,359.7 L132.2,362.1 L133.0,374.4 L133.9,374.7 L134.7,360.7 L135.5,360.7 L136.4,360.5 L137.2,360.2 L138.1,360.5 L138.9,361.3 L139.7,360.7 L140.6,361.3 L141.4,361.3 L142.3,359.4 L143.1,358.9 L144.0,358.9 L144.8,357.2 L145.6,356.2 L146.5,353.2 L147.3,353.0 L148.2,353.5 L149.0,353.5 L149.8,353.8 L150.7,352.2 L151.5,351.9 L152.4,352.2 L153.2,349.2 L154.1,349.2 L154.9,350.0 L155.7,347.6 L156.6,347.3 L157.4,347.9 L158.3,346.3 L159.1,346.0 L159.9,344.4 L160.8,345.2 L161.6,344.4 L162.5,344.9 L163.3,344.6 L164.2,344.4 L165.0,344.4 L165.8,344.1 L166.7,344.1 L167.5,344.4 L168.4,344.1 L169.2,344.1 L170.0,343.6 L170.9,343.6 L171.7,345.2 L172.6,344.9 L173.4,343.3 L174.2,342.5 L175.1,342.2 L175.9,339.8 L176.8,339.5 L177.6,339.8 L178.5,339.3 L179.3,339.5 L180.1,339.5 L181.0,339.0 L181.8,339.0 L182.7,339.0 L183.5,339.0 L184.3,339.0 L185.2,339.3 L186.0,339.5 L186.9,339.3 L187.7,339.3 L188.6,340.1 L189.4,339.8 L190.2,340.6 L191.1,339.0 L191.9,339.5 L192.8,339.8 L193.6,340.1 L194.4,340.1 L195.3,339.8 L196.1,339.0 L197.0,338.7 L197.8,339.0 L198.7,339.0 L199.5,339.0 L200.3,338.5 L201.2,338.2 L202.0,337.9 L202.9,338.2 L203.7,338.2 L204.5,337.1 L205.4,336.9 L206.2,336.9 L207.1,336.9 L207.9,337.1 L208.8,336.6 L209.6,336.9 L210.4,337.1 L211.3,337.7 L212.1,337.7 L213.0,337.4 L213.8,337.7 L214.6,338.5 L215.5,337.1 L216.3,336.1 L217.2,335.8 L218.0,336.1 L218.8,335.0 L219.7,335.5 L220.5,335.5 L221.4,335.0 L222.2,335.5 L223.1,335.8 L223.9,335.8 L224.7,335.3 L225.6,335.3 L226.4,335.0 L227.3,335.5 L228.1,335.3 L228.9,336.1 L229.8,337.4 L230.6,337.9 L231.5,338.2 L232.3,337.9 L233.2,337.7 L234.0,337.9 L234.8,337.7 L235.7,337.7 L236.5,337.1 L237.4,337.7 L238.2,335.8 L239.0,336.1 L239.9,335.8 L240.7,334.7 L241.6,335.5 L242.4,335.3 L243.3,335.3 L244.1,335.5 L244.9,335.5 L245.8,336.3 L246.6,337.4 L247.5,337.7 L248.3,337.9 L249.1,337.7 L250.0,338.5 L250.8,338.5 L251.7,338.5 L252.5,338.7 L253.4,339.8 L254.2,340.9 L255.0,342.0 L255.9,339.3 L256.7,340.1 L257.6,340.6 L258.4,340.4 L259.2,340.1 L260.1,340.9 L260.9,340.6 L261.8,340.6 L262.6,340.6 L263.5,340.9 L264.3,340.4 L265.1,340.1 L266.0,339.3 L266.8,339.5 L267.7,339.5 L268.5,339.3 L269.3,340.1 L270.2,340.1 L271.0,340.4 L271.9,341.4 L272.7,343.6 L273.5,343.0 L274.4,344.6 L275.2,344.9 L276.1,347.3 L276.9,347.6 L277.8,347.1 L278.6,347.3 L279.4,348.4 L280.3,348.7 L281.1,348.7 L282.0,349.5 L282.8,350.3 L283.6,349.2 L284.5,349.2 L285.3,349.2 L286.2,349.5 L287.0,349.5 L287.9,350.5 L288.7,351.6 L289.5,353.0 L290.4,352.7 L291.2,352.4 L292.1,353.0 L292.9,352.7 L293.7,352.7 L294.6,353.2 L295.4,352.7 L296.3,352.4 L297.1,352.7 L298.0,352.7 L298.8,353.0 L299.6,352.7 L300.5,353.2 L301.3,353.2 L302.2,353.0 L303.0,353.0 L303.8,352.7 L304.7,352.7 L305.5,353.0 L306.4,353.0 L307.2,353.0 L308.1,353.2 L308.9,353.5 L309.7,354.3 L310.6,353.8 L311.4,354.3 L312.3,354.0 L313.1,353.8 L313.9,353.8 L314.8,353.5 L315.6,353.5 L316.5,353.8 L317.3,353.8 L318.1,354.0 L319.0,353.8 L319.8,353.8 L320.7,353.8 L321.5,353.8 L322.4,354.0 L323.2,354.0 L324.0,353.2 L324.9,353.8 L325.7,353.2 L326.6,353.2 L327.4,353.2 L328.2,352.4 L329.1,352.7 L329.9,352.7 L330.8,352.7 L331.6,352.2 L332.5,352.4 L333.3,352.2 L334.1,353.2 L335.0,354.0 L335.8,353.0 L336.7,353.0 L337.5,353.5 L338.3,354.3 L339.2,355.1 L340.0,355.6 L340.9,355.6 L341.7,355.6 L342.6,355.6 L343.4,354.6 L344.2,354.3 L345.1,354.3 L345.9,353.5 L346.8,353.2 L347.6,353.0 L348.4,352.7 L349.3,353.0 L350.1,351.9 L351.0,351.9 L351.8,351.9 L352.7,351.9 L353.5,351.9 L354.3,351.6 L355.2,351.6 L356.0,351.1 L356.9,351.1 L357.7,351.3 L358.5,351.3 L359.4,350.5 L360.2,351.1 L361.1,351.1 L361.9,350.8 L362.7,350.8 L363.6,350.8 L364.4,351.9 L365.3,352.2 L366.1,351.9 L367.0,351.6 L367.8,351.6 L368.6,351.6 L369.5,351.6 L370.3,351.6 L371.2,351.6 L372.0,351.1 L372.8,350.8 L373.7,351.1 L374.5,351.6 L375.4,353.2 L376.2,350.0 L377.1,349.7 L377.9,349.7 L378.7,349.7 L379.6,349.7 L380.4,349.7 L381.3,351.1 L382.1,350.8 L382.9,350.5 L383.8,350.8 L384.6,351.6 L385.5,352.2 L386.3,351.6 L387.2,351.9 L388.0,351.6 L388.8,351.6 L389.7,351.3 L390.5,351.1 L391.4,350.5 L392.2,349.2 L393.0,350.5 L393.9,350.3 L394.7,349.7 L395.6,349.2 L396.4,348.9 L397.3,350.0 L398.1,350.8 L398.9,350.0 L399.8,350.0 L400.6,350.8 L401.5,351.1 L402.3,350.8 L403.1,351.1 L404.0,351.1 L404.8,351.9 L405.7,351.1 L406.5,351.3 L407.3,350.5 L408.2,350.0 L409.0,350.0 L409.9,350.0 L410.7,350.5 L411.6,351.1 L412.4,350.5 L413.2,351.1 L414.1,354.3 L414.9,354.3 L415.8,355.4 L416.6,357.0 L417.4,355.4 L418.3,355.1 L419.1,355.6 L420.0,355.9 L420.8,354.6 L421.7,354.6 L422.5,355.1 L423.3,354.8 L424.2,354.3 L425.0,354.6 L425.9,354.6 L426.7,354.6 L427.5,354.8 L428.4,354.8 L429.2,354.8 L430.1,355.1 L430.9,354.8 L431.8,354.8 L432.6,355.9 L433.4,355.1 L434.3,355.6 L435.1,354.3 L436.0,354.8 L436.8,355.1 L437.6,354.8 L438.5,355.1 L439.3,355.1 L440.2,354.8 L441.0,354.8 L441.9,355.4 L442.7,355.1 L443.5,354.8 L444.4,355.1 L445.2,354.8 L446.1,354.3 L447.7,354.8 L448.6,355.1 L449.4,355.1 L450.3,354.8 L451.1,354.8 L451.9,354.8 L452.8,355.4 L453.6,354.6 L454.5,354.8 L455.3,354.8 L456.2,355.1 L457.0,354.6 L457.8,355.4 L458.7,355.1 L459.5,354.3 L460.4,355.1 L461.2,355.6 L462.0,357.5 L462.9,358.1 L463.7,355.9 L464.6,356.4 L465.4,356.4 L466.3,355.4 L467.1,354.3 L467.9,353.8 L468.8,353.0 L469.6,352.7 L470.5,352.4 L471.3,353.0 L472.1,353.2 L473.0,352.7 L473.8,352.7 L474.7,353.2 L475.5,353.8 L476.4,353.8 L477.2,353.8 L478.0,353.8 L478.9,354.6 L479.7,353.8 L480.6,353.2 L481.4,353.8 L482.2,354.6 L483.1,354.3 L483.9,354.3 L484.8,354.3 L485.6,354.3 L486.5,354.3 L487.3,353.5 L488.1,353.2 L489.0,353.8 L489.8,353.5 L490.7,353.5 L491.5,355.1 L492.3,355.9 L493.2,355.9 L494.0,355.9 L494.9,355.6 L495.7,355.9 L496.5,358.3 L497.4,357.8 L498.2,358.9 L499.1,354.8 L499.9,353.8 L500.8,354.0 L501.6,353.5 L502.4,353.8 L503.3,353.5 L504.1,354.0 L505.0,354.0 L505.8,354.6 L506.6,354.0 L507.5,354.0 L508.3,353.8 L509.2,353.2 L510.0,353.5 L510.9,354.0 L511.7,354.8 L512.5,355.9 L513.4,355.6 L514.2,358.1 L515.1,355.6 L515.9,355.4 L516.7,354.8 L517.6,355.4 L518.4,355.1 L519.3,353.5 L520.1,352.7 L521.0,353.0 L521.8,353.8 L522.6,353.2 L523.5,353.8 L524.3,354.3 L525.2,354.3 L526.0,354.6 L526.8,354.6 L527.7,354.3 L528.5,360.7 L529.4,359.9 L530.2,359.7 L531.1,360.2 L531.9,360.2 L532.7,359.1 L533.6,360.5 L534.4,359.9 L535.3,360.5 L536.1,360.2 L536.9,360.5 L537.8,360.7 L538.6,361.8 L539.5,361.5 L540.3,361.3 L541.2,362.6 L542.0,362.3 L542.8,362.6 L543.7,362.9 L544.5,362.6 L545.4,362.9 L546.2,361.3 L547.0,361.5 L547.9,361.0 L548.7,360.2 L549.6,360.5 L550.4,360.5 L551.2,360.7 L552.1,361.0 L552.9,362.6 L553.8,353.8 L554.6,353.8 L555.5,354.3 L556.3,354.3 L557.1,354.0 L558.0,354.3 L558.8,354.3 L559.7,353.5 L560.5,353.8 L561.3,355.1 L562.2,352.4 L563.0,351.6 L563.9,351.9 L564.7,351.3 L565.6,351.9 L566.4,351.6 L567.2,351.6 L568.1,351.9 L568.9,351.6 L569.8,351.9 L570.6,351.9 L571.4,351.9 L572.3,355.1 L573.1,354.6 L574.0,360.5 L574.8,361.0 L575.7,360.7 L576.5,360.2 L577.3,360.5 L578.2,358.1 L579.0,357.2 L579.9,356.7 L580.7,357.5 L581.5,357.8 L582.4,358.1 L583.2,357.8 L584.1,357.0 L584.9,357.2 L585.8,357.0 L586.6,357.5 L587.4,357.5 L588.3,357.8 L589.1,357.5 L590.0,358.9 L590.8,359.7 L591.6,359.4 L592.5,354.3 L593.3,354.8 L594.2,354.8 L595.0,354.0 L595.8,354.0 L596.7,354.3 L597.5,352.7 L598.4,352.4 L599.2,352.4 L600.1,352.4 L600.9,351.9 L601.7,351.1 L602.6,351.1 L603.4,351.1 L604.3,351.1 L605.1,350.8 L605.9,351.1 L606.8,350.5 L607.6,350.3 L608.5,350.5 L609.3,350.5 L610.2,350.5 L611.0,350.3 L611.8,350.3 L612.7,349.7 L613.5,349.7 L614.4,349.5 L615.2,349.2 L616.0,349.2 L616.9,349.2 L617.7,348.7 L618.6,348.9 L619.4,348.1 L620.3,347.9 L621.1,346.5 L621.9,346.3 L622.8,346.5 L623.6,346.3 L624.5,346.3 L625.3,345.4 L626.1,345.4 L627.0,344.6 L627.8,344.4 L628.7,345.2 L629.5,344.9 L630.4,344.4 L631.2,344.1 L632.0,344.4 L632.9,345.2 L633.7,345.4 L634.6,345.4 L635.4,345.2 L636.2,345.7 L637.1,346.8 L637.9,347.1 L638.8,347.3 L639.6,360.2 L640.4,346.8 L641.3,346.8 L642.1,347.1 L643.0,346.5 L643.8,346.5 L644.7,346.8 L645.5,346.8 L646.3,346.3 L647.2,347.6 L648.0,347.6 L648.9,347.3 L649.7,347.1 L650.5,347.1 L651.4,347.1 L652.2,347.6 L653.1,346.8 L653.9,346.3 L654.8,347.1 L655.6,347.9 L656.4,347.1 L657.3,347.3 L658.1,347.9 L659.0,347.1 L659.8,346.0 L660.6,344.9 L661.5,345.2 L662.3,345.7 L663.2,345.7 L664.0,345.7 L664.9,345.2 L665.7,345.4 L666.5,345.4 L667.4,346.5 L668.2,346.5 L669.1,346.0 L669.9,346.5 L670.7,346.5 L671.6,346.3 L672.4,346.8 L673.3,346.8 L674.1,346.5 L675.0,347.6 L675.8,347.6 L676.6,347.3 L677.5,347.3 L678.3,347.9 L679.2,347.1 L680.0,347.1" stroke="#ff7f0e" stroke-width="2" fill="none" opacity="0.8"/>
<!-- Thermal Generation -->
<path d="M80.0,332.0 L80.8,331.5 L81.7,336.3 L82.5,339.5 L83.4,339.0 L84.2,339.3 L85.0,336.9 L85.9,332.0 L86.7,323.5 L87.6,332.3 L88.4,332.8 L89.3,339.0 L90.1,339.5 L90.9,338.5 L91.8,338.7 L92.6,339.0 L93.5,338.5 L94.3,338.5 L95.1,339.0 L96.0,292.9 L96.8,296.6 L97.7,299.1 L98.5,296.1 L99.4,295.8 L100.2,299.1 L101.0,308.7 L101.9,313.5 L102.7,295.3 L103.6,295.6 L104.4,296.1 L105.2,296.1 L106.1,296.4 L106.9,298.5 L107.8,301.5 L108.6,309.5 L109.5,306.6 L110.3,321.0 L111.1,304.7 L112.0,302.5 L112.8,326.9 L113.7,321.6 L114.5,328.8 L115.3,322.9 L116.2,299.9 L117.0,300.9 L117.9,297.7 L118.7,299.1 L119.6,298.8 L120.4,298.2 L121.2,298.0 L122.1,298.0 L122.9,298.2 L123.8,303.6 L124.6,300.9 L125.4,298.8 L126.3,298.5 L127.1,298.2 L128.0,298.5 L128.8,299.9 L129.6,310.9 L130.5,331.0 L131.3,341.4 L132.2,341.4 L133.0,361.5 L133.9,369.6 L134.7,361.3 L135.5,340.4 L136.4,295.3 L137.2,294.8 L138.1,296.1 L138.9,298.5 L139.7,310.6 L140.6,312.7 L141.4,294.5 L142.3,295.6 L143.1,295.0 L144.0,295.3 L144.8,299.3 L145.6,297.4 L146.5,296.9 L147.3,294.8 L148.2,300.9 L149.0,317.3 L149.8,322.7 L150.7,330.2 L151.5,341.2 L152.4,362.1 L153.2,362.3 L154.1,361.3 L154.9,361.5 L155.7,361.8 L156.6,297.7 L157.4,294.8 L158.3,295.3 L159.1,300.9 L159.9,295.3 L160.8,294.8 L161.6,298.5 L162.5,295.3 L163.3,295.0 L164.2,297.2 L165.0,296.6 L165.8,295.6 L166.7,295.0 L167.5,297.4 L168.4,295.6 L169.2,317.6 L170.0,341.7 L170.9,338.7 L171.7,362.6 L172.6,361.5 L173.4,361.8 L174.2,360.7 L175.1,362.9 L175.9,361.5 L176.8,274.9 L177.6,247.8 L178.5,246.8 L179.3,236.0 L180.1,273.6 L181.0,282.2 L181.8,281.1 L182.7,282.2 L183.5,324.3 L184.3,350.0 L185.2,349.7 L186.0,335.5 L186.9,334.5 L187.7,286.2 L188.6,292.3 L189.4,324.8 L190.2,352.4 L191.1,362.9 L191.9,362.6 L192.8,362.1 L193.6,362.6 L194.4,362.3 L195.3,362.6 L196.1,363.7 L197.0,287.0 L197.8,262.6 L198.7,263.7 L199.5,283.5 L200.3,328.8 L201.2,358.9 L202.0,330.2 L202.9,340.4 L203.7,340.1 L204.5,351.1 L205.4,351.1 L206.2,340.6 L207.1,324.3 L207.9,269.8 L208.8,314.3 L209.6,311.4 L210.4,338.2 L211.3,338.2 L212.1,338.7 L213.0,322.9 L213.8,307.6 L214.6,309.5 L215.5,292.3 L216.3,259.6 L217.2,236.3 L218.0,236.0 L218.8,236.0 L219.7,238.4 L220.5,237.4 L221.4,283.5 L222.2,284.0 L223.1,310.6 L223.9,307.4 L224.7,297.7 L225.6,313.5 L226.4,339.8 L227.3,362.1 L228.1,346.3 L228.9,341.7 L229.8,341.4 L230.6,362.3 L231.5,362.6 L232.3,362.3 L233.2,362.1 L234.0,362.3 L234.8,362.1 L235.7,362.1 L236.5,362.3 L237.4,336.3 L238.2,305.0 L239.0,345.7 L239.9,351.3 L240.7,362.1 L241.6,361.5 L242.4,361.5 L243.3,361.8 L244.1,362.1 L244.9,361.5 L245.8,361.5 L246.6,340.4 L247.5,329.6 L248.3,312.2 L249.1,327.7 L250.0,347.6 L250.8,351.6 L251.7,337.9 L252.5,338.2 L253.4,338.5 L254.2,323.5 L255.0,323.5 L255.9,333.1 L256.7,332.8 L257.6,296.6 L258.4,288.3 L259.2,278.9 L260.1,282.4 L260.9,299.9 L261.8,362.1 L262.6,361.8 L263.5,361.8 L264.3,361.8 L265.1,361.8 L266.0,361.0 L266.8,361.5 L267.7,361.8 L268.5,361.5 L269.3,362.6 L270.2,362.1 L271.0,361.8 L271.9,361.8 L272.7,362.1 L273.5,362.3 L274.4,362.3 L275.2,362.1 L276.1,362.3 L276.9,361.5 L277.8,352.2 L278.6,335.0 L279.4,346.0 L280.3,354.0 L281.1,354.0 L282.0,362.1 L282.8,361.8 L283.6,362.1 L284.5,362.1 L285.3,362.3 L286.2,361.8 L287.0,362.1 L287.9,362.1 L288.7,355.1 L289.5,342.5 L290.4,353.0 L291.2,340.4 L292.1,362.1 L292.9,350.5 L293.7,361.8 L294.6,361.8 L295.4,351.1 L296.3,313.8 L297.1,301.7 L298.0,252.7 L298.8,236.8 L299.6,236.8 L300.5,237.1 L301.3,239.5 L302.2,236.8 L303.0,236.0 L303.8,237.4 L304.7,236.6 L305.5,259.1 L306.4,281.9 L307.2,281.6 L308.1,256.4 L308.9,243.5 L309.7,281.6 L310.6,281.9 L311.4,297.2 L312.3,329.4 L313.1,345.7 L313.9,361.8 L314.8,361.8 L315.6,361.8 L316.5,361.5 L317.3,361.5 L318.1,280.8 L319.0,251.6 L319.8,243.5 L320.7,244.9 L321.5,239.3 L322.4,246.8 L323.2,274.4 L324.0,282.2 L324.9,298.5 L325.7,292.9 L326.6,287.0 L327.4,289.1 L328.2,267.7 L329.1,263.7 L329.9,243.3 L330.8,270.6 L331.6,292.1 L332.5,281.9 L333.3,309.0 L334.1,321.8 L335.0,322.7 L335.8,321.6 L336.7,322.1 L337.5,322.4 L338.3,276.5 L339.2,277.3 L340.0,277.1 L340.9,277.1 L341.7,276.5 L342.6,276.8 L343.4,276.8 L344.2,288.3 L345.1,314.6 L345.9,319.4 L346.8,297.4 L347.6,282.7 L348.4,268.5 L349.3,257.5 L350.1,275.5 L351.0,313.5 L351.8,319.7 L352.7,322.1 L353.5,335.3 L354.3,335.5 L355.2,335.3 L356.0,334.7 L356.9,335.0 L357.7,335.5 L358.5,283.8 L359.4,246.2 L360.2,237.4 L361.1,237.1 L361.9,248.9 L362.7,251.9 L363.6,273.8 L364.4,296.4 L365.3,340.9 L366.1,361.8 L367.0,361.8 L367.8,361.3 L368.6,313.0 L369.5,239.3 L370.3,283.5 L371.2,283.5 L372.0,326.4 L372.8,326.4 L373.7,326.9 L374.5,326.9 L375.4,327.2 L376.2,326.7 L377.1,326.9 L377.9,326.1 L378.7,316.8 L379.6,290.2 L380.4,307.6 L381.3,302.8 L382.1,302.8 L382.9,315.9 L383.8,321.0 L384.6,329.4 L385.5,340.6 L386.3,348.4 L387.2,348.1 L388.0,347.9 L388.8,304.1 L389.7,283.5 L390.5,283.8 L391.4,297.4 L392.2,285.9 L393.0,328.0 L393.9,327.5 L394.7,327.2 L395.6,337.9 L396.4,337.9 L397.3,338.7 L398.1,338.2 L398.9,338.5 L399.8,338.2 L400.6,338.2 L401.5,310.9 L402.3,289.1 L403.1,305.8 L404.0,327.5 L404.8,326.7 L405.7,326.9 L406.5,326.7 L407.3,326.9 L408.2,326.7 L409.0,327.5 L409.9,291.8 L410.7,338.2 L411.6,337.7 L412.4,338.5 L413.2,362.9 L414.1,362.3 L414.9,362.3 L415.8,362.1 L416.6,362.1 L417.4,362.3 L418.3,362.3 L419.1,362.1 L420.0,329.9 L420.8,330.7 L421.7,318.9 L422.5,302.5 L423.3,308.2 L424.2,353.8 L425.0,354.0 L425.9,358.9 L426.7,359.1 L427.5,359.4 L428.4,359.1 L429.2,359.1 L430.1,362.3 L430.9,362.9 L431.8,362.3 L432.6,362.3 L433.4,362.3 L434.3,362.1 L435.1,362.3 L436.0,362.3 L436.8,362.3 L437.6,362.3 L438.5,361.8 L439.3,361.5 L440.2,361.8 L441.0,362.1 L441.9,361.8 L442.7,362.1 L443.5,362.1 L444.4,362.1 L445.2,361.5 L446.1,347.1 L447.7,361.8 L448.6,361.8 L449.4,362.1 L450.3,362.1 L451.1,362.3 L451.9,362.1 L452.8,362.1 L453.6,362.1 L454.5,362.1 L455.3,363.1 L456.2,363.1 L457.0,363.4 L457.8,363.4 L458.7,363.1 L459.5,362.6 L460.4,362.3 L461.2,359.7 L462.0,353.5 L462.9,356.2 L463.7,362.1 L464.6,362.3 L465.4,362.1 L466.3,362.1 L467.1,356.7 L467.9,351.9 L468.8,341.2 L469.6,292.1 L470.5,257.0 L471.3,236.8 L472.1,245.7 L473.0,264.7 L473.8,265.5 L474.7,265.5 L475.5,282.2 L476.4,291.5 L477.2,291.3 L478.0,312.7 L478.9,312.7 L479.7,312.5 L480.6,303.6 L481.4,277.9 L482.2,246.2 L483.1,267.4 L483.9,276.5 L484.8,280.5 L485.6,281.6 L486.5,311.1 L487.3,311.4 L488.1,311.1 L489.0,311.1 L489.8,294.8 L490.7,275.2 L491.5,256.1 L492.3,267.1 L493.2,282.4 L494.0,307.4 L494.9,353.8 L495.7,362.1 L496.5,361.8 L497.4,361.5 L498.2,361.5 L499.1,361.5 L499.9,361.0 L500.8,306.0 L501.6,298.0 L502.4,298.0 L503.3,298.0 L504.1,298.2 L505.0,298.0 L505.8,297.4 L506.6,308.2 L507.5,308.4 L508.3,324.5 L509.2,325.1 L510.0,324.3 L510.9,307.4 L511.7,253.2 L512.5,255.1 L513.4,310.3 L514.2,359.7 L515.1,360.5 L515.9,366.1 L516.7,370.1 L517.6,370.1 L518.4,378.7 L519.3,378.7 L520.1,378.7 L521.0,362.1 L521.8,319.7 L522.6,289.1 L523.5,288.3 L524.3,351.6 L525.2,362.3 L526.0,362.1 L526.8,362.3 L527.7,362.1 L528.5,362.3 L529.4,362.3 L530.2,362.3 L531.1,340.4 L531.9,270.1 L532.7,273.3 L533.6,346.8 L534.4,362.3 L535.3,361.8 L536.1,376.3 L536.9,378.4 L537.8,373.3 L538.6,362.9 L539.5,361.8 L540.3,361.8 L541.2,327.2 L542.0,265.3 L542.8,290.7 L543.7,306.3 L544.5,265.3 L545.4,283.8 L546.2,300.1 L547.0,310.6 L547.9,310.9 L548.7,310.3 L549.6,311.1 L550.4,282.7 L551.2,238.2 L552.1,238.7 L552.9,263.7 L553.8,272.2 L554.6,283.8 L555.5,282.2 L556.3,282.2 L557.1,317.8 L558.0,318.4 L558.8,292.1 L559.7,292.3 L560.5,254.5 L561.3,238.4 L562.2,238.2 L563.0,241.1 L563.9,250.2 L564.7,268.2 L565.6,260.7 L566.4,284.0 L567.2,283.8 L568.1,283.5 L568.9,284.0 L569.8,283.2 L570.6,283.0 L571.4,283.5 L572.3,283.8 L573.1,283.8 L574.0,310.9 L574.8,311.1 L575.7,311.1 L576.5,326.4 L577.3,353.8 L578.2,362.1 L579.0,362.3 L579.9,361.8 L580.7,361.8 L581.5,361.8 L582.4,361.5 L583.2,362.1 L584.1,376.6 L584.9,358.3 L585.8,339.5 L586.6,345.7 L587.4,334.2 L588.3,334.5 L589.1,334.5 L590.0,333.9 L590.8,299.3 L591.6,292.1 L592.5,284.0 L593.3,300.9 L594.2,310.9 L595.0,311.1 L595.8,321.6 L596.7,335.0 L597.5,335.3 L598.4,354.3 L599.2,354.6 L600.1,354.3 L600.9,354.3 L601.7,280.5 L602.6,257.5 L603.4,249.2 L604.3,249.4 L605.1,251.3 L605.9,237.6 L606.8,237.6 L607.6,237.9 L608.5,246.2 L609.3,270.9 L610.2,278.1 L611.0,276.5 L611.8,284.0 L612.7,259.9 L613.5,263.7 L614.4,268.5 L615.2,301.2 L616.0,308.4 L616.9,335.3 L617.7,357.0 L618.6,357.2 L619.4,357.0 L620.3,357.2 L621.1,344.6 L621.9,298.0 L622.8,252.4 L623.6,278.1 L624.5,297.7 L625.3,318.9 L626.1,362.3 L627.0,362.1 L627.8,353.8 L628.7,354.3 L629.5,354.0 L630.4,354.0 L631.2,354.3 L632.0,354.3 L632.9,321.8 L633.7,314.9 L634.6,331.2 L635.4,344.4 L636.2,360.5 L637.1,360.2 L637.9,352.7 L638.8,360.2 L639.6,360.7 L640.4,352.7 L641.3,342.2 L642.1,333.1 L643.0,280.8 L643.8,280.3 L644.7,279.2 L645.5,304.1 L646.3,321.8 L647.2,359.7 L648.0,359.7 L648.9,362.3 L649.7,362.1 L650.5,361.8 L651.4,361.8 L652.2,289.7 L653.1,278.4 L653.9,317.8 L654.8,327.7 L655.6,340.6 L656.4,351.6 L657.3,349.5 L658.1,360.5 L659.0,360.2 L659.8,360.5 L660.6,360.5 L661.5,360.2 L662.3,284.3 L663.2,294.8 L664.0,318.6 L664.9,327.2 L665.7,359.9 L666.5,359.7 L667.4,359.7 L668.2,359.4 L669.1,359.1 L669.9,359.4 L670.7,359.7 L671.6,359.9 L672.4,359.7 L673.3,358.6 L674.1,359.9 L675.0,359.9 L675.8,360.2 L676.6,359.7 L677.5,364.0 L678.3,364.0 L679.2,363.7 L680.0,363.1" stroke="#2ca02c" stroke-width="2" fill="none" opacity="0.8"/>
<!-- Solar Generation -->
<path d="M80.0,420.0 L80.8,420.0 L81.7,420.0 L82.5,420.0 L83.4,420.0 L84.2,420.0 L85.0,420.0 L85.9,420.0 L86.7,420.0 L87.6,419.5 L88.4,412.0 L89.3,413.3 L90.1,409.5 L90.9,405.8 L91.8,402.6 L92.6,406.1 L93.5,409.0 L94.3,415.7 L95.1,418.4 L96.0,420.0 L96.8,420.0 L97.7,420.0 L98.5,420.0 L99.4,420.0 L100.2,420.0 L101.0,420.0 L101.9,420.0 L102.7,420.0 L103.6,420.0 L104.4,420.0 L105.2,420.0 L106.1,420.0 L106.9,420.0 L107.8,419.7 L108.6,417.1 L109.5,414.1 L110.3,409.0 L111.1,405.3 L112.0,400.7 L112.8,398.0 L113.7,393.2 L114.5,390.5 L115.3,404.4 L116.2,419.5 L117.0,420.0 L117.9,420.0 L118.7,420.0 L119.6,420.0 L120.4,420.0 L121.2,420.0 L122.1,420.0 L122.9,420.0 L123.8,420.0 L124.6,420.0 L125.4,420.0 L126.3,420.0 L127.1,420.0 L128.0,416.8 L128.8,408.5 L129.6,398.8 L130.5,386.2 L131.3,387.0 L132.2,389.7 L133.0,385.4 L133.9,386.5 L134.7,393.7 L135.5,414.6 L136.4,419.2 L137.2,420.0 L138.1,420.0 L138.9,420.0 L139.7,420.0 L140.6,420.0 L141.4,420.0 L142.3,420.0 L143.1,420.0 L144.0,420.0 L144.8,420.0 L145.6,420.0 L146.5,420.0 L147.3,420.0 L148.2,418.4 L149.0,413.3 L149.8,405.0 L150.7,391.3 L151.5,388.9 L152.4,387.3 L153.2,386.5 L154.1,384.6 L154.9,404.4 L155.7,400.4 L156.6,419.5 L157.4,420.0 L158.3,420.0 L159.1,420.0 L159.9,420.0 L160.8,420.0 L161.6,420.0 L162.5,420.0 L163.3,420.0 L164.2,420.0 L165.0,420.0 L165.8,420.0 L166.7,420.0 L167.5,420.0 L168.4,418.7 L169.2,405.5 L170.0,403.9 L170.9,403.9 L171.7,404.4 L172.6,405.0 L173.4,403.4 L174.2,406.1 L175.1,404.4 L175.9,412.5 L176.8,418.7 L177.6,420.0 L178.5,420.0 L179.3,420.0 L180.1,420.0 L181.0,420.0 L181.8,420.0 L182.7,420.0 L183.5,420.0 L184.3,420.0 L185.2,420.0 L186.0,420.0 L186.9,420.0 L187.7,420.0 L188.6,418.7 L189.4,407.4 L190.2,394.8 L191.1,394.8 L191.9,391.6 L192.8,391.6 L193.6,395.3 L194.4,409.5 L195.3,414.9 L196.1,416.8 L197.0,419.5 L197.8,420.0 L198.7,420.0 L199.5,420.0 L200.3,420.0 L201.2,420.0 L202.0,420.0 L202.9,420.0 L203.7,420.0 L204.5,420.0 L205.4,420.0 L206.2,420.0 L207.1,420.0 L207.9,420.0 L208.8,419.7 L209.6,417.3 L210.4,415.7 L211.3,412.8 L212.1,407.7 L213.0,405.3 L213.8,409.3 L214.6,411.4 L215.5,413.0 L216.3,416.8 L217.2,419.5 L218.0,420.0 L218.8,420.0 L219.7,420.0 L220.5,420.0 L221.4,420.0 L222.2,420.0 L223.1,420.0 L223.9,420.0 L224.7,420.0 L225.6,420.0 L226.4,420.0 L227.3,420.0 L228.1,420.0 L228.9,417.6 L229.8,392.9 L230.6,393.2 L231.5,391.0 L232.3,395.9 L233.2,388.4 L234.0,404.7 L234.8,404.2 L235.7,408.5 L236.5,405.8 L237.4,418.1 L238.2,420.0 L239.0,420.0 L239.9,420.0 L240.7,420.0 L241.6,420.0 L242.4,420.0 L243.3,420.0 L244.1,420.0 L244.9,420.0 L245.8,420.0 L246.6,420.0 L247.5,420.0 L248.3,420.0 L249.1,417.6 L250.0,399.9 L250.8,403.4 L251.7,409.0 L252.5,406.1 L253.4,406.6 L254.2,405.3 L255.0,404.2 L255.9,404.4 L256.7,416.5 L257.6,419.2 L258.4,420.0 L259.2,420.0 L260.1,420.0 L260.9,420.0 L261.8,420.0 L262.6,420.0 L263.5,420.0 L264.3,420.0 L265.1,420.0 L266.0,420.0 L266.8,420.0 L267.7,420.0 L268.5,420.0 L269.3,413.3 L270.2,397.2 L271.0,398.0 L271.9,406.1 L272.7,405.0 L273.5,410.6 L274.4,413.3 L275.2,409.8 L276.1,414.9 L276.9,418.4 L277.8,420.0 L278.6,420.0 L279.4,420.0 L280.3,420.0 L281.1,420.0 L282.0,420.0 L282.8,420.0 L283.6,420.0 L284.5,420.0 L285.3,420.0 L286.2,420.0 L287.0,420.0 L287.9,420.0 L288.7,420.0 L289.5,415.2 L290.4,405.5 L291.2,405.3 L292.1,405.3 L292.9,406.1 L293.7,406.6 L294.6,405.3 L295.4,404.4 L296.3,404.4 L297.1,414.6 L298.0,419.7 L298.8,420.0 L299.6,420.0 L300.5,420.0 L301.3,420.0 L302.2,420.0 L303.0,420.0 L303.8,420.0 L304.7,420.0 L305.5,420.0 L306.4,420.0 L307.2,420.0 L308.1,420.0 L308.9,420.0 L309.7,416.5 L310.6,398.5 L311.4,398.8 L312.3,400.4 L313.1,401.2 L313.9,396.1 L314.8,399.4 L315.6,401.0 L316.5,407.4 L317.3,413.8 L318.1,419.2 L319.0,420.0 L319.8,420.0 L320.7,420.0 L321.5,420.0 L322.4,420.0 L323.2,420.0 L324.0,420.0 L324.9,420.0 L325.7,420.0 L326.6,420.0 L327.4,420.0 L328.2,420.0 L329.1,420.0 L329.9,417.3 L330.8,407.1 L331.6,403.6 L332.5,401.0 L333.3,397.5 L334.1,399.6 L335.0,395.1 L335.8,406.1 L336.7,406.1 L337.5,408.5 L338.3,418.1 L339.2,420.0 L340.0,420.0 L340.9,420.0 L341.7,420.0 L342.6,420.0 L343.4,420.0 L344.2,420.0 L345.1,420.0 L345.9,420.0 L346.8,420.0 L347.6,420.0 L348.4,420.0 L349.3,420.0 L350.1,410.1 L351.0,387.8 L351.8,384.3 L352.7,385.9 L353.5,387.0 L354.3,388.4 L355.2,391.8 L356.0,390.2 L356.9,393.2 L357.7,401.5 L358.5,417.3 L359.4,420.0 L360.2,420.0 L361.1,420.0 L361.9,420.0 L362.7,420.0 L363.6,420.0 L364.4,420.0 L365.3,420.0 L366.1,420.0 L367.0,420.0 L367.8,420.0 L368.6,420.0 L369.5,420.0 L370.3,417.6 L371.2,412.5 L372.0,410.6 L372.8,404.2 L373.7,404.7 L374.5,410.9 L375.4,410.1 L376.2,413.0 L377.1,413.3 L377.9,416.8 L378.7,417.9 L379.6,420.0 L380.4,420.0 L381.3,420.0 L382.1,420.0 L382.9,420.0 L383.8,420.0 L384.6,420.0 L385.5,420.0 L386.3,420.0 L387.2,420.0 L388.0,420.0 L388.8,420.0 L389.7,420.0 L390.5,418.4 L391.4,415.4 L392.2,417.1 L393.0,415.7 L393.9,411.7 L394.7,409.5 L395.6,413.8 L396.4,407.9 L397.3,416.8 L398.1,416.8 L398.9,418.4 L399.8,420.0 L400.6,420.0 L401.5,420.0 L402.3,420.0 L403.1,420.0 L404.0,420.0 L404.8,420.0 L405.7,420.0 L406.5,420.0 L407.3,420.0 L408.2,420.0 L409.0,420.0 L409.9,420.0 L410.7,411.2 L411.6,401.2 L412.4,405.8 L413.2,403.1 L414.1,403.6 L414.9,406.3 L415.8,411.2 L416.6,407.9 L417.4,412.2 L418.3,411.4 L419.1,415.4 L420.0,420.0 L420.8,420.0 L421.7,420.0 L422.5,420.0 L423.3,420.0 L424.2,420.0 L425.0,420.0 L425.9,420.0 L426.7,420.0 L427.5,420.0 L428.4,420.0 L429.2,420.0 L430.1,420.0 L430.9,411.2 L431.8,414.6 L432.6,409.3 L433.4,413.6 L434.3,412.0 L435.1,408.5 L436.0,404.4 L436.8,406.9 L437.6,410.3 L438.5,412.0 L439.3,418.4 L440.2,420.0 L441.0,420.0 L441.9,420.0 L442.7,420.0 L443.5,420.0 L444.4,420.0 L445.2,420.0 L446.1,420.0 L447.7,420.0 L448.6,420.0 L449.4,420.0 L450.3,420.0 L451.1,420.0 L451.9,410.6 L452.8,412.8 L453.6,407.1 L454.5,404.4 L455.3,406.1 L456.2,410.6 L457.0,407.7 L457.8,407.7 L458.7,414.4 L459.5,412.2 L460.4,418.4 L461.2,419.7 L462.0,420.0 L462.9,420.0 L463.7,420.0 L464.6,420.0 L465.4,420.0 L466.3,420.0 L467.1,420.0 L467.9,420.0 L468.8,420.0 L469.6,420.0 L470.5,420.0 L471.3,419.7 L472.1,415.2 L473.0,416.8 L473.8,416.5 L474.7,404.7 L475.5,413.8 L476.4,411.2 L477.2,413.3 L478.0,413.3 L478.9,416.0 L479.7,415.2 L480.6,418.4 L481.4,420.0 L482.2,420.0 L483.1,420.0 L483.9,420.0 L484.8,420.0 L485.6,420.0 L486.5,420.0 L487.3,420.0 L488.1,420.0 L489.0,420.0 L489.8,420.0 L490.7,420.0 L491.5,420.0 L492.3,415.4 L493.2,397.5 L494.0,403.4 L494.9,406.9 L495.7,407.9 L496.5,408.7 L497.4,411.7 L498.2,411.2 L499.1,406.1 L499.9,405.8 L500.8,415.4 L501.6,420.0 L502.4,420.0 L503.3,420.0 L504.1,420.0 L505.0,420.0 L505.8,420.0 L506.6,420.0 L507.5,420.0 L508.3,420.0 L509.2,420.0 L510.0,420.0 L510.9,420.0 L511.7,419.7 L512.5,405.3 L513.4,405.3 L514.2,403.4 L515.1,399.9 L515.9,385.1 L516.7,387.6 L517.6,403.1 L518.4,407.7 L519.3,412.0 L520.1,412.2 L521.0,418.9 L521.8,420.0 L522.6,420.0 L523.5,420.0 L524.3,420.0 L525.2,420.0 L526.0,420.0 L526.8,420.0 L527.7,420.0 L528.5,420.0 L529.4,420.0 L530.2,420.0 L531.1,420.0 L531.9,420.0 L532.7,417.3 L533.6,416.8 L534.4,415.7 L535.3,412.8 L536.1,415.4 L536.9,413.0 L537.8,414.1 L538.6,413.8 L539.5,416.0 L540.3,407.9 L541.2,418.4 L542.0,420.0 L542.8,420.0 L543.7,420.0 L544.5,420.0 L545.4,420.0 L546.2,420.0 L547.0,420.0 L547.9,420.0 L548.7,420.0 L549.6,420.0 L550.4,420.0 L551.2,420.0 L552.1,420.0 L552.9,418.1 L553.8,417.3 L554.6,404.2 L555.5,402.6 L556.3,396.9 L557.1,391.3 L558.0,400.7 L558.8,405.3 L559.7,410.6 L560.5,414.6 L561.3,418.7 L562.2,420.0 L563.0,420.0 L563.9,420.0 L564.7,420.0 L565.6,420.0 L566.4,420.0 L567.2,420.0 L568.1,420.0 L568.9,420.0 L569.8,420.0 L570.6,420.0 L571.4,420.0 L572.3,420.0 L573.1,418.1 L574.0,417.6 L574.8,415.7 L575.7,414.6 L576.5,411.7 L577.3,407.9 L578.2,409.0 L579.0,412.2 L579.9,412.2 L580.7,416.0 L581.5,412.5 L582.4,420.0 L583.2,420.0 L584.1,420.0 L584.9,420.0 L585.8,420.0 L586.6,420.0 L587.4,420.0 L588.3,420.0 L589.1,420.0 L590.0,420.0 L590.8,420.0 L591.6,420.0 L592.5,419.7 L593.3,414.1 L594.2,407.4 L595.0,412.0 L595.8,410.9 L596.7,406.9 L597.5,403.1 L598.4,401.8 L599.2,401.8 L600.1,401.8 L600.9,398.3 L601.7,416.2 L602.6,420.0 L603.4,420.0 L604.3,420.0 L605.1,420.0 L605.9,420.0 L606.8,420.0 L607.6,420.0 L608.5,420.0 L609.3,420.0 L610.2,420.0 L611.0,420.0 L611.8,420.0 L612.7,419.5 L613.5,415.2 L614.4,407.9 L615.2,405.3 L616.0,390.8 L616.9,396.9 L617.7,395.9 L618.6,402.3 L619.4,410.9 L620.3,413.8 L621.1,412.2 L621.9,416.5 L622.8,420.0 L623.6,420.0 L624.5,420.0 L625.3,420.0 L626.1,420.0 L627.0,420.0 L627.8,420.0 L628.7,420.0 L629.5,420.0 L630.4,420.0 L631.2,420.0 L632.0,420.0 L632.9,419.7 L633.7,415.2 L634.6,412.0 L635.4,398.0 L636.2,407.1 L637.1,405.5 L637.9,411.2 L638.8,409.3 L639.6,408.7 L640.4,415.7 L641.3,416.5 L642.1,417.1 L643.0,420.0 L643.8,420.0 L644.7,420.0 L645.5,420.0 L646.3,420.0 L647.2,420.0 L648.0,420.0 L648.9,420.0 L649.7,420.0 L650.5,420.0 L651.4,420.0 L652.2,420.0 L653.1,419.7 L653.9,413.6 L654.8,413.6 L655.6,392.6 L656.4,393.5 L657.3,389.2 L658.1,391.6 L659.0,392.9 L659.8,392.9 L660.6,396.4 L661.5,409.5 L662.3,415.4 L663.2,420.0 L664.0,420.0 L664.9,420.0 L665.7,420.0 L666.5,420.0 L667.4,420.0 L668.2,420.0 L669.1,420.0 L669.9,420.0 L670.7,420.0 L671.6,420.0 L672.4,420.0 L673.3,418.4 L674.1,405.8 L675.0,414.1 L675.8,403.6 L676.6,383.8 L677.5,387.3 L678.3,391.3 L679.2,393.5 L680.0,394.5" stroke="#d62728" stroke-width="2" fill="none" opacity="0.8"/>
<!-- Forecast -->
<path d="M80.0,204.1 L80.8,373.3 L81.7,226.1 L82.5,232.3 L83.4,235.8 L84.2,236.0 L85.0,232.3 L85.9,217.3 L86.7,190.2 L87.6,344.4 L88.4,391.8 L89.3,391.8 L90.1,392.4 L90.9,208.4 L91.8,158.3 L92.6,165.8 L93.5,170.3 L94.3,169.8 L95.1,161.7 L96.0,338.2 L96.8,391.0 L97.7,391.6 L98.5,392.4 L99.4,217.5 L100.2,181.1 L101.0,196.9 L101.9,211.1 L102.7,213.5 L103.6,215.4 L104.4,216.2 L105.2,212.4 L106.1,198.8 L106.9,174.9 L107.8,168.2 L108.6,167.1 L109.5,166.0 L110.3,165.0 L111.1,163.9 L112.0,162.8 L112.8,161.7 L113.7,160.7 L114.5,159.6 L115.3,158.5 L116.2,157.5 L117.0,161.7 L117.9,167.4 L118.7,169.3 L119.6,161.7 L120.4,173.8 L121.2,192.1 L122.1,210.0 L122.9,214.8 L123.8,216.7 L124.6,217.8 L125.4,214.8 L126.3,201.4 L127.1,178.1 L128.0,170.6 L128.8,168.5 L129.6,166.0 L130.5,163.9 L131.3,161.7 L132.2,159.6 L133.0,157.5 L133.9,162.3 L134.7,167.9 L135.5,174.4 L136.4,178.4 L137.2,178.6 L138.1,171.4 L138.9,177.0 L139.7,187.0 L140.6,196.9 L141.4,206.8 L142.3,216.7 L143.1,223.7 L144.0,227.7 L144.8,229.1 L145.6,229.3 L146.5,224.2 L147.3,210.3 L148.2,194.7 L149.0,180.3 L149.8,176.5 L150.7,177.3 L151.5,180.3 L152.4,184.3 L153.2,189.9 L154.1,194.5 L154.9,195.0 L155.7,189.1 L156.6,171.4 L157.4,163.4 L158.3,164.2 L159.1,170.9 L159.9,181.1 L160.8,192.9 L161.6,195.8 L162.5,222.9 L163.3,229.1 L164.2,235.0 L165.0,237.4 L165.8,235.2 L166.7,232.0 L167.5,221.8 L168.4,209.8 L169.2,194.2 L170.0,184.5 L170.9,182.1 L171.7,184.3 L172.6,188.0 L173.4,194.2 L174.2,198.0 L175.1,198.8 L175.9,193.9 L176.8,177.0 L177.6,166.6 L178.5,170.9 L179.3,179.2 L180.1,189.4 L181.0,206.5 L181.8,227.7 L182.7,234.4 L183.5,239.8 L184.3,244.1 L185.2,245.4 L186.0,242.5 L186.9,230.4 L187.7,204.9 L188.6,177.8 L189.4,166.0 L190.2,167.4 L191.1,171.4 L191.9,175.2 L192.8,179.7 L193.6,183.5 L194.4,187.0 L195.3,188.3 L196.1,183.5 L197.0,170.3 L197.8,163.1 L198.7,164.7 L199.5,175.7 L200.3,191.2 L201.2,209.8 L202.0,225.6 L202.9,240.3 L203.7,248.6 L204.5,252.4 L205.4,254.3 L206.2,252.1 L207.1,239.3 L207.9,214.6 L208.8,187.2 L209.6,171.7 L210.4,170.1 L211.3,172.2 L212.1,175.4 L213.0,179.4 L213.8,182.7 L214.6,185.9 L215.5,187.2 L216.3,181.3 L217.2,168.5 L218.0,162.0 L218.8,164.2 L219.7,174.6 L220.5,189.9 L221.4,208.7 L222.2,226.6 L223.1,239.0 L223.9,247.3 L224.7,251.6 L225.6,253.2 L226.4,250.8 L227.3,237.9 L228.1,213.5 L228.9,185.6 L229.8,169.8 L230.6,168.5 L231.5,170.9 L232.3,174.1 L233.2,178.4 L234.0,181.9 L234.8,184.5 L235.7,185.3 L236.5,179.4 L237.4,166.0 L238.2,159.6 L239.0,162.3 L239.9,172.5 L240.7,188.0 L241.6,207.1 L242.4,228.8 L243.3,239.0 L244.1,245.4 L244.9,249.2 L245.8,250.8 L246.6,247.8 L247.5,235.2 L248.3,210.3 L249.1,182.9 L250.0,169.0 L250.8,168.7 L251.7,171.7 L252.5,175.4 L253.4,179.4 L254.2,183.2 L255.0,187.0 L255.9,188.0 L256.7,182.9 L257.6,170.6 L258.4,163.9 L259.2,165.0 L260.1,176.2 L260.9,190.4 L261.8,209.8 L262.6,214.6 L263.5,240.9 L264.3,248.1 L265.1,251.9 L266.0,253.2 L266.8,250.2 L267.7,237.9 L268.5,212.7 L269.3,185.6 L270.2,170.9 L271.0,170.1 L271.9,172.5 L272.7,176.0 L273.5,179.4 L274.4,182.9 L275.2,186.4 L276.1,187.8 L276.9,182.7 L277.8,170.1 L278.6,162.6 L279.4,163.6 L280.3,174.1 L281.1,190.4 L282.0,207.9 L282.8,226.4 L283.6,239.5 L284.5,246.8 L285.3,250.5 L286.2,252.7 L287.0,251.3 L287.9,246.0 L288.7,232.0 L289.5,216.7 L290.4,201.4 L291.2,194.7 L292.1,191.5 L292.9,193.7 L293.7,196.9 L294.6,202.5 L295.4,206.5 L296.3,206.8 L297.1,203.3 L298.0,190.4 L298.8,182.4 L299.6,181.3 L300.5,187.5 L301.3,197.7 L302.2,212.2 L303.0,230.4 L303.8,240.3 L304.7,244.3 L305.5,247.3 L306.4,249.2 L307.2,248.9 L308.1,244.6 L308.9,235.8 L309.7,222.4 L310.6,208.7 L311.4,199.0 L312.3,192.1 L313.1,189.4 L313.9,195.5 L314.8,199.8 L315.6,206.3 L316.5,205.2 L317.3,204.9 L318.1,188.0 L319.0,178.9 L319.8,182.7 L320.7,192.3 L321.5,198.0 L322.4,213.0 L323.2,228.5 L324.0,238.2 L324.9,244.6 L325.7,248.1 L326.6,249.4 L327.4,246.5 L328.2,234.2 L329.1,209.5 L329.9,182.7 L330.8,169.0 L331.6,169.0 L332.5,172.2 L333.3,176.2 L334.1,180.0 L335.0,183.7 L335.8,187.8 L336.7,189.6 L337.5,184.8 L338.3,172.5 L339.2,165.2 L340.0,165.5 L340.9,175.4 L341.7,191.2 L342.6,208.7 L343.4,227.2 L344.2,239.3 L345.1,244.6 L345.9,247.6 L346.8,249.4 L347.6,245.7 L348.4,233.1 L349.3,208.9 L350.1,182.1 L351.0,167.9 L351.8,167.1 L352.7,170.1 L353.5,174.1 L354.3,177.6 L355.2,181.6 L356.0,185.6 L356.9,188.0 L357.7,183.7 L358.5,171.9 L359.4,164.7 L360.2,164.2 L361.1,175.4 L361.9,190.7 L362.7,208.7 L363.6,213.0 L364.4,239.8 L365.3,247.0 L366.1,250.8 L367.0,252.1 L367.8,249.7 L368.6,237.1 L369.5,212.2 L370.3,185.9 L371.2,170.9 L372.0,169.3 L372.8,171.9 L373.7,174.9 L374.5,178.1 L375.4,181.6 L376.2,185.6 L377.1,187.2 L377.9,182.1 L378.7,170.6 L379.6,164.4 L380.4,164.2 L381.3,175.7 L382.1,189.9 L382.9,208.9 L383.8,226.1 L384.6,239.5 L385.5,247.6 L386.3,251.3 L387.2,252.9 L388.0,250.2 L388.8,237.4 L389.7,213.5 L390.5,185.3 L391.4,169.0 L392.2,166.6 L393.0,168.7 L393.9,171.9 L394.7,176.2 L395.6,179.4 L396.4,182.7 L397.3,183.7 L398.1,178.4 L398.9,165.5 L399.8,159.9 L400.6,161.5 L401.5,171.4 L402.3,187.5 L403.1,206.0 L404.0,223.4 L404.8,236.6 L405.7,244.3 L406.5,247.8 L407.3,249.4 L408.2,246.2 L409.0,233.4 L409.9,208.1 L410.7,180.5 L411.6,165.8 L412.4,165.0 L413.2,167.9 L414.1,171.4 L414.9,176.2 L415.8,179.7 L416.6,182.7 L417.4,184.0 L418.3,178.6 L419.1,165.5 L420.0,159.1 L420.8,160.9 L421.7,169.8 L422.5,184.5 L423.3,203.6 L424.2,237.6 L425.0,239.0 L425.9,241.9 L426.7,246.8 L427.5,250.2 L428.4,249.4 L429.2,246.5 L430.1,235.5 L430.9,221.8 L431.8,207.6 L432.6,202.5 L433.4,198.0 L434.3,199.8 L435.1,202.0 L436.0,208.4 L436.8,211.9 L437.6,213.5 L438.5,212.4 L439.3,203.6 L440.2,196.1 L441.0,192.9 L441.9,198.2 L442.7,208.7 L443.5,226.6 L444.4,239.3 L445.2,250.0 L446.1,252.7 L447.7,249.4 L448.6,244.9 L449.4,237.6 L450.3,231.7 L451.1,221.3 L451.9,210.8 L452.8,199.3 L453.6,167.4 L454.5,166.3 L455.3,184.8 L456.2,208.1 L457.0,209.8 L457.8,214.8 L458.7,185.9 L459.5,190.4 L460.4,167.9 L461.2,164.2 L462.0,199.8 L462.9,216.7 L463.7,230.7 L464.6,231.7 L465.4,243.0 L466.3,250.5 L467.1,255.1 L467.9,255.9 L468.8,253.7 L469.6,240.3 L470.5,215.7 L471.3,188.3 L472.1,171.7 L473.0,169.3 L473.8,171.1 L474.7,174.4 L475.5,178.4 L476.4,182.1 L477.2,185.1 L478.0,187.0 L478.9,182.4 L479.7,171.4 L480.6,165.2 L481.4,165.0 L482.2,175.2 L483.1,191.0 L483.9,208.4 L484.8,222.9 L485.6,236.8 L486.5,243.3 L487.3,246.8 L488.1,247.6 L489.0,244.3 L489.8,231.2 L490.7,204.9 L491.5,176.8 L492.3,162.6 L493.2,162.3 L494.0,166.0 L494.9,169.5 L495.7,175.2 L496.5,178.9 L497.4,181.3 L498.2,182.1 L499.1,176.8 L499.9,164.4 L500.8,158.8 L501.6,160.9 L502.4,168.7 L503.3,181.9 L504.1,201.7 L505.0,243.5 L505.8,251.3 L506.6,250.8 L507.5,254.0 L508.3,255.1 L509.2,254.0 L510.0,243.0 L510.9,218.9 L511.7,189.9 L512.5,176.2 L513.4,173.8 L514.2,177.8 L515.1,181.9 L515.9,187.0 L516.7,191.2 L517.6,195.3 L518.4,196.6 L519.3,196.1 L520.1,196.9 L521.0,200.4 L521.8,200.9 L522.6,199.6 L523.5,207.3 L524.3,227.7 L525.2,247.6 L526.0,262.6 L526.8,272.5 L527.7,278.1 L528.5,281.6 L529.4,281.1 L530.2,272.0 L531.1,248.6 L531.9,217.5 L532.7,195.8 L533.6,190.2 L534.4,188.6 L535.3,190.7 L536.1,193.4 L536.9,196.1 L537.8,198.8 L538.6,199.0 L539.5,198.0 L540.3,198.2 L541.2,201.2 L542.0,200.9 L542.8,200.1 L543.7,207.1 L544.5,226.1 L545.4,244.6 L546.2,259.9 L547.0,267.1 L547.9,270.6 L548.7,272.8 L549.6,271.2 L550.4,260.2 L551.2,234.7 L552.1,205.2 L552.9,186.4 L553.8,180.8 L554.6,181.6 L555.5,183.7 L556.3,187.8 L557.1,191.2 L558.0,194.2 L558.8,195.5 L559.7,195.3 L560.5,194.7 L561.3,195.5 L562.2,195.3 L563.0,193.9 L563.9,202.8 L564.7,222.6 L565.6,231.5 L566.4,251.9 L567.2,262.3 L568.1,266.6 L568.9,269.3 L569.8,271.2 L570.6,268.2 L571.4,257.0 L572.3,239.5 L573.1,217.5 L574.0,207.3 L574.8,203.0 L575.7,206.5 L576.5,208.7 L577.3,215.4 L578.2,217.3 L579.0,214.3 L579.9,210.6 L580.7,206.8 L581.5,202.5 L582.4,196.9 L583.2,199.3 L584.1,206.5 L584.9,216.5 L585.8,235.0 L586.6,240.9 L587.4,239.8 L588.3,241.4 L589.1,243.5 L590.0,241.9 L590.8,238.7 L591.6,232.8 L592.5,218.9 L593.3,210.0 L594.2,202.0 L595.0,193.4 L595.8,188.6 L596.7,191.2 L597.5,197.1 L598.4,198.8 L599.2,200.6 L600.1,199.6 L600.9,194.2 L601.7,191.8 L602.6,189.9 L603.4,190.4 L604.3,198.5 L605.1,213.5 L605.9,249.4 L606.8,252.4 L607.6,254.3 L608.5,259.9 L609.3,262.3 L610.2,261.8 L611.0,252.1 L611.8,228.3 L612.7,200.4 L613.5,184.0 L614.4,180.3 L615.2,182.4 L616.0,185.6 L616.9,189.9 L617.7,194.5 L618.6,198.5 L619.4,199.8 L620.3,200.4 L621.1,200.9 L621.9,204.7 L622.8,205.7 L623.6,206.3 L624.5,212.7 L625.3,232.3 L626.1,256.4 L627.0,269.0 L627.8,277.1 L628.7,282.4 L629.5,285.4 L630.4,284.3 L631.2,274.9 L632.0,251.9 L632.9,222.9 L633.7,202.0 L634.6,197.4 L635.4,195.8 L636.2,198.5 L637.1,200.6 L637.9,203.0 L638.8,204.9 L639.6,206.0 L640.4,206.3 L641.3,205.7 L642.1,210.0 L643.0,214.3 L643.8,215.7 L644.7,220.2 L645.5,236.3 L646.3,257.8 L647.2,272.5 L648.0,279.5 L648.9,285.1 L649.7,287.0 L650.5,285.6 L651.4,275.2 L652.2,252.4 L653.1,224.2 L653.9,203.9 L654.8,199.6 L655.6,198.0 L656.4,200.4 L657.3,202.0 L658.1,203.9 L659.0,205.5 L659.8,205.5 L660.6,206.3 L661.5,206.0 L662.3,210.0 L663.2,214.8 L664.0,216.5 L664.9,221.8 L665.7,237.6 L666.5,258.0 L667.4,272.2 L668.2,279.5 L669.1,285.1 L669.9,287.0 L670.7,285.6 L671.6,275.2 L672.4,252.7 L673.3,224.5 L674.1,204.1 L675.0,199.6 L675.8,198.0 L676.6,200.4 L677.5,202.0 L678.3,203.9 L679.2,205.5 L680.0,205.7" stroke="#9467bd" stroke-width="2" fill="none" opacity="0.8"/>
<!-- Total Generation -->
<path d="M80.0,177.8 L80.8,183.2 L81.7,193.1 L82.5,199.0 L83.4,200.9 L84.2,202.2 L85.0,199.0 L85.9,192.9 L86.7,189.6 L87.6,207.3 L88.4,201.2 L89.3,210.8 L90.1,204.7 L90.9,198.0 L91.8,189.6 L92.6,195.5 L93.5,192.3 L94.3,199.3 L95.1,202.5 L96.0,162.3 L96.8,164.4 L97.7,171.1 L98.5,174.6 L99.4,181.1 L100.2,187.5 L101.0,200.9 L101.9,209.8 L102.7,198.5 L103.6,205.7 L104.4,211.4 L105.2,220.7 L106.1,229.6 L106.9,232.8 L107.8,235.8 L108.6,240.6 L109.5,236.0 L110.3,246.5 L111.1,225.0 L112.0,217.3 L112.8,238.2 L113.7,228.0 L114.5,230.7 L115.3,239.0 L116.2,229.1 L117.0,230.7 L117.9,228.0 L118.7,229.1 L119.6,229.6 L120.4,228.3 L121.2,228.0 L122.1,227.7 L122.9,225.0 L123.8,228.5 L124.6,222.6 L125.4,220.2 L126.3,221.6 L127.1,220.2 L128.0,211.6 L128.8,196.1 L129.6,193.9 L130.5,209.2 L131.3,177.3 L132.2,162.8 L133.0,207.1 L133.9,226.9 L134.7,220.2 L135.5,224.0 L136.4,178.4 L137.2,192.9 L138.1,199.0 L138.9,203.6 L139.7,233.4 L140.6,242.7 L141.4,225.8 L142.3,230.7 L143.1,229.9 L144.0,230.4 L144.8,233.1 L145.6,230.1 L146.5,227.2 L147.3,225.0 L148.2,230.4 L149.0,241.4 L149.8,238.4 L150.7,230.7 L151.5,238.4 L152.4,255.6 L153.2,249.2 L154.1,242.2 L154.9,261.5 L155.7,250.5 L156.6,202.0 L157.4,195.0 L158.3,196.1 L159.1,202.2 L159.9,195.3 L160.8,201.7 L161.6,208.7 L162.5,208.4 L163.3,210.6 L164.2,208.4 L165.0,212.7 L165.8,210.6 L166.7,206.0 L167.5,207.9 L168.4,203.0 L169.2,211.4 L170.0,244.6 L170.9,244.1 L171.7,268.7 L172.6,269.6 L173.4,266.9 L174.2,268.2 L175.1,268.2 L175.9,271.7 L176.8,185.9 L177.6,155.0 L178.5,149.7 L179.3,138.4 L180.1,168.5 L181.0,167.9 L181.8,160.7 L182.7,150.5 L183.5,199.0 L184.3,230.4 L185.2,203.0 L186.0,185.6 L186.9,184.3 L187.7,140.3 L188.6,128.5 L189.4,179.7 L190.2,184.0 L191.1,203.9 L191.9,204.4 L192.8,195.5 L193.6,187.8 L194.4,195.3 L195.3,200.4 L196.1,203.9 L197.0,102.2 L197.8,81.6 L198.7,72.2 L199.5,93.1 L200.3,168.5 L201.2,185.1 L202.0,165.2 L202.9,166.8 L203.7,170.9 L204.5,182.7 L205.4,189.6 L206.2,169.8 L207.1,153.2 L207.9,88.5 L208.8,138.7 L209.6,156.9 L210.4,188.6 L211.3,188.6 L212.1,189.6 L213.0,185.6 L213.8,175.7 L214.6,170.3 L215.5,133.3 L216.3,100.9 L217.2,96.9 L218.0,95.8 L218.8,91.5 L219.7,73.5 L220.5,82.9 L221.4,131.2 L222.2,139.0 L223.1,178.6 L223.9,160.4 L224.7,133.3 L225.6,125.0 L226.4,145.1 L227.3,170.1 L228.1,151.0 L228.9,149.1 L229.8,124.2 L230.6,163.1 L231.5,157.5 L232.3,165.2 L233.2,145.4 L234.0,172.7 L234.8,171.1 L235.7,169.8 L236.5,159.9 L237.4,153.7 L238.2,120.4 L239.0,178.1 L239.9,182.4 L240.7,178.9 L241.6,175.2 L242.4,178.6 L243.3,178.9 L244.1,182.7 L244.9,184.5 L245.8,192.9 L246.6,167.1 L247.5,160.9 L248.3,149.1 L249.1,151.6 L250.0,155.0 L250.8,195.3 L251.7,224.2 L252.5,215.7 L253.4,213.2 L254.2,192.9 L255.0,195.5 L255.9,199.0 L256.7,171.9 L257.6,141.6 L258.4,141.4 L259.2,145.9 L260.1,142.2 L260.9,160.9 L261.8,204.7 L262.6,193.9 L263.5,206.0 L264.3,224.2 L265.1,211.6 L266.0,184.8 L266.8,179.7 L267.7,180.5 L268.5,184.5 L269.3,180.3 L270.2,173.8 L271.0,176.0 L271.9,181.3 L272.7,181.6 L273.5,186.4 L274.4,190.7 L275.2,186.7 L276.1,198.8 L276.9,182.7 L277.8,170.6 L278.6,153.7 L279.4,165.5 L280.3,176.0 L281.1,175.2 L282.0,183.2 L282.8,197.1 L283.6,196.6 L284.5,187.2 L285.3,191.2 L286.2,189.9 L287.0,192.3 L287.9,203.3 L288.7,203.3 L289.5,214.6 L290.4,218.9 L291.2,209.2 L292.1,225.6 L292.9,212.4 L293.7,232.5 L294.6,262.0 L295.4,244.1 L296.3,195.8 L297.1,195.5 L298.0,150.5 L298.8,137.6 L299.6,154.5 L300.5,164.2 L301.3,171.4 L302.2,169.8 L303.0,166.3 L303.8,164.2 L304.7,158.3 L305.5,182.1 L306.4,203.3 L307.2,201.2 L308.1,171.7 L308.9,161.7 L309.7,189.1 L310.6,156.4 L311.4,176.0 L312.3,181.3 L313.1,188.3 L313.9,193.4 L314.8,203.3 L315.6,201.7 L316.5,205.5 L317.3,228.0 L318.1,162.6 L319.0,144.9 L319.8,161.2 L320.7,167.9 L321.5,156.1 L322.4,156.7 L323.2,178.4 L324.0,187.8 L324.9,212.2 L325.7,201.4 L326.6,198.8 L327.4,202.2 L328.2,179.2 L329.1,175.4 L329.9,153.4 L330.8,168.2 L331.6,191.8 L332.5,178.9 L333.3,200.1 L334.1,212.7 L335.0,192.6 L335.8,197.7 L336.7,187.0 L337.5,198.0 L338.3,168.2 L339.2,153.7 L340.0,152.9 L340.9,151.8 L341.7,143.2 L342.6,144.0 L343.4,163.9 L344.2,167.6 L345.1,203.6 L345.9,209.8 L346.8,204.1 L347.6,178.1 L348.4,160.1 L349.3,136.5 L350.1,134.1 L351.0,169.5 L351.8,161.7 L352.7,146.5 L353.5,178.9 L354.3,183.2 L355.2,181.3 L356.0,157.5 L356.9,182.7 L357.7,191.8 L358.5,162.6 L359.4,154.5 L360.2,134.9 L361.1,136.0 L361.9,151.6 L362.7,156.4 L363.6,156.1 L364.4,165.5 L365.3,182.9 L366.1,195.3 L367.0,196.9 L367.8,220.7 L368.6,159.9 L369.5,93.1 L370.3,146.5 L371.2,160.7 L372.0,197.4 L372.8,214.0 L373.7,222.6 L374.5,229.3 L375.4,230.4 L376.2,231.7 L377.1,229.1 L377.9,232.0 L378.7,222.6 L379.6,193.1 L380.4,213.8 L381.3,209.8 L382.1,207.1 L382.9,221.8 L383.8,219.9 L384.6,222.6 L385.5,233.9 L386.3,231.2 L387.2,232.5 L388.0,234.2 L388.8,186.7 L389.7,159.3 L390.5,171.7 L391.4,181.9 L392.2,173.5 L393.0,207.9 L393.9,191.2 L394.7,195.8 L395.6,192.9 L396.4,208.1 L397.3,225.8 L398.1,212.2 L398.9,192.6 L399.8,210.6 L400.6,228.5 L401.5,192.6 L402.3,179.2 L403.1,187.5 L404.0,205.5 L404.8,200.4 L405.7,199.6 L406.5,217.8 L407.3,229.1 L408.2,225.8 L409.0,228.3 L409.9,191.5 L410.7,240.3 L411.6,235.8 L412.4,245.4 L413.2,262.6 L414.1,257.5 L414.9,262.6 L415.8,255.6 L416.6,234.4 L417.4,226.1 L418.3,221.6 L419.1,182.1 L420.0,159.9 L420.8,163.9 L421.7,144.6 L422.5,133.9 L423.3,133.3 L424.2,179.4 L425.0,174.6 L425.9,182.1 L426.7,184.8 L427.5,186.7 L428.4,189.4 L429.2,184.8 L430.1,189.1 L430.9,178.6 L431.8,230.7 L432.6,232.8 L433.4,239.0 L434.3,242.5 L435.1,233.1 L436.0,225.0 L436.8,226.6 L437.6,229.9 L438.5,232.3 L439.3,194.2 L440.2,192.6 L441.0,186.7 L441.9,188.6 L442.7,190.4 L443.5,194.7 L444.4,195.0 L445.2,201.2 L446.1,179.2 L447.7,203.0 L448.6,217.5 L449.4,216.2 L450.3,225.6 L451.1,215.7 L451.9,199.6 L452.8,252.9 L453.6,259.4 L454.5,256.4 L455.3,265.0 L456.2,271.7 L457.0,274.4 L457.8,274.1 L458.7,270.6 L459.5,254.5 L460.4,222.6 L461.2,203.0 L462.0,189.6 L462.9,199.3 L463.7,218.6 L464.6,227.2 L465.4,238.2 L466.3,243.5 L467.1,243.5 L467.9,244.1 L468.8,246.0 L469.6,203.0 L470.5,178.4 L471.3,167.4 L472.1,173.5 L473.0,194.7 L473.8,191.2 L474.7,167.9 L475.5,188.8 L476.4,189.9 L477.2,186.7 L478.0,196.9 L478.9,215.4 L479.7,209.8 L480.6,194.7 L481.4,179.2 L482.2,159.1 L483.1,182.4 L483.9,195.5 L484.8,207.3 L485.6,211.4 L486.5,241.4 L487.3,240.9 L488.1,238.7 L489.0,239.5 L489.8,219.1 L490.7,194.7 L491.5,164.4 L492.3,172.5 L493.2,162.3 L494.0,198.0 L494.9,229.6 L495.7,232.8 L496.5,231.7 L497.4,224.0 L498.2,236.3 L499.1,244.1 L499.9,208.4 L500.8,174.9 L501.6,178.4 L502.4,165.5 L503.3,190.7 L504.1,195.5 L505.0,184.8 L505.8,166.3 L506.6,160.4 L507.5,181.3 L508.3,176.5 L509.2,190.2 L510.0,201.7 L510.9,182.9 L511.7,122.9 L512.5,87.2 L513.4,137.3 L514.2,202.8 L515.1,166.6 L515.9,159.1 L516.7,161.5 L517.6,199.0 L518.4,229.6 L519.3,214.6 L520.1,225.8 L521.0,258.6 L521.8,217.8 L522.6,127.4 L523.5,116.2 L524.3,170.9 L525.2,185.1 L526.0,190.7 L526.8,198.8 L527.7,221.3 L528.5,236.3 L529.4,267.7 L530.2,283.2 L531.1,265.5 L531.9,186.4 L532.7,187.2 L533.6,269.6 L534.4,278.7 L535.3,283.8 L536.1,301.7 L536.9,292.6 L537.8,279.7 L538.6,267.4 L539.5,255.9 L540.3,244.9 L541.2,198.2 L542.0,143.8 L542.8,170.3 L543.7,196.1 L544.5,176.8 L545.4,208.9 L546.2,225.6 L547.0,241.1 L547.9,235.8 L548.7,232.0 L549.6,239.5 L550.4,215.1 L551.2,173.0 L552.1,173.0 L552.9,200.4 L553.8,201.2 L554.6,200.4 L555.5,198.0 L556.3,188.3 L557.1,215.4 L558.0,220.2 L558.8,201.7 L559.7,201.7 L560.5,169.3 L561.3,158.8 L562.2,157.5 L563.0,159.9 L563.9,168.5 L564.7,180.5 L565.6,176.0 L566.4,198.0 L567.2,198.5 L568.1,201.4 L568.9,205.7 L569.8,205.7 L570.6,211.1 L571.4,216.2 L572.3,219.7 L573.1,216.7 L574.0,247.3 L574.8,236.6 L575.7,225.0 L576.5,232.3 L577.3,232.3 L578.2,227.5 L579.0,228.5 L579.9,228.5 L580.7,232.0 L581.5,190.2 L582.4,192.3 L583.2,210.8 L584.1,221.0 L584.9,207.3 L585.8,203.9 L586.6,213.8 L587.4,210.8 L588.3,214.3 L589.1,232.0 L590.0,237.1 L590.8,218.6 L591.6,220.5 L592.5,210.3 L593.3,223.2 L594.2,224.8 L595.0,230.7 L595.8,238.2 L596.7,242.5 L597.5,231.7 L598.4,248.9 L599.2,251.9 L600.1,254.0 L600.9,250.0 L601.7,190.2 L602.6,170.3 L603.4,165.8 L604.3,169.0 L605.1,168.2 L605.9,152.1 L606.8,153.4 L607.6,152.6 L608.5,151.3 L609.3,163.9 L610.2,145.7 L611.0,117.8 L611.8,117.5 L612.7,88.3 L613.5,86.1 L614.4,81.0 L615.2,107.8 L616.0,100.6 L616.9,136.0 L617.7,155.3 L618.6,162.0 L619.4,163.9 L620.3,182.4 L621.1,153.4 L621.9,111.6 L622.8,67.6 L623.6,97.7 L624.5,132.2 L625.3,161.7 L626.1,221.8 L627.0,246.0 L627.8,231.7 L628.7,238.4 L629.5,237.1 L630.4,209.8 L631.2,215.9 L632.0,206.8 L632.9,198.2 L633.7,158.8 L634.6,189.6 L635.4,174.1 L636.2,240.6 L637.1,230.9 L637.9,225.6 L638.8,237.1 L639.6,250.5 L640.4,229.1 L641.3,176.5 L642.1,148.3 L643.0,108.4 L643.8,120.4 L644.7,104.6 L645.5,129.6 L646.3,137.9 L647.2,182.4 L648.0,178.1 L648.9,185.6 L649.7,204.9 L650.5,202.8 L651.4,216.2 L652.2,150.5 L653.1,120.4 L653.9,165.5 L654.8,189.6 L655.6,168.2 L656.4,162.3 L657.3,135.7 L658.1,149.4 L659.0,150.5 L659.8,157.7 L660.6,161.2 L661.5,189.4 L662.3,126.6 L663.2,143.8 L664.0,147.3 L664.9,173.0 L665.7,198.5 L666.5,193.7 L667.4,217.8 L668.2,202.5 L669.1,202.5 L669.9,195.8 L670.7,194.7 L671.6,214.0 L672.4,204.9 L673.3,194.2 L674.1,180.3 L675.0,221.8 L675.8,194.7 L676.6,180.8 L677.5,173.5 L678.3,168.5 L679.2,170.6 L680.0,166.3" stroke="#8c564b" stroke-width="2" fill="none" opacity="0.8"/>
<!-- Forecast Difference -->
<path d="M80.0,420.0 L80.8,420.0 L81.7,420.0 L82.5,420.0 L83.4,420.0 L84.2,420.0 L85.0,420.0 L85.9,420.0 L86.7,420.0 L87.6,420.0 L88.4,420.0 L89.3,420.0 L90.1,420.0 L90.9,420.0 L91.8,420.0 L92.6,420.0 L93.5,420.0 L94.3,420.0 L95.1,420.0 L96.0,420.0 L96.8,420.0 L97.7,420.0 L98.5,420.0 L99.4,420.0 L100.2,420.0 L101.0,420.0 L101.9,420.0 L102.7,420.0 L103.6,420.0 L104.4,420.0 L105.2,420.0 L106.1,420.0 L106.9,420.0 L107.8,420.0 L108.6,420.0 L109.5,420.0 L110.3,420.0 L111.1,420.0 L112.0,420.0 L112.8,420.0 L113.7,420.0 L114.5,420.0 L115.3,420.0 L116.2,420.0 L117.0,420.0 L117.9,420.0 L118.7,420.0 L119.6,420.0 L120.4,420.0 L121.2,420.0 L122.1,420.0 L122.9,420.0 L123.8,420.0 L124.6,420.0 L125.4,420.0 L126.3,420.0 L127.1,420.0 L128.0,420.0 L128.8,420.0 L129.6,420.0 L130.5,420.0 L131.3,420.0 L132.2,420.0 L133.0,420.0 L133.9,420.0 L134.7,420.0 L135.5,420.0 L136.4,420.0 L137.2,420.0 L138.1,420.0 L138.9,420.0 L139.7,420.0 L140.6,420.0 L141.4,420.0 L142.3,420.0 L143.1,420.0 L144.0,420.0 L144.8,420.0 L145.6,420.0 L146.5,420.0 L147.3,420.0 L148.2,420.0 L149.0,420.0 L149.8,420.0 L150.7,420.0 L151.5,420.0 L152.4,420.0 L153.2,420.0 L154.1,420.0 L154.9,420.0 L155.7,420.0 L156.6,420.0 L157.4,420.0 L158.3,420.0 L159.1,420.0 L159.9,420.0 L160.8,420.0 L161.6,420.0 L162.5,420.0 L163.3,420.0 L164.2,420.0 L165.0,420.0 L165.8,420.0 L166.7,420.0 L167.5,420.0 L168.4,420.0 L169.2,420.0 L170.0,420.0 L170.9,420.0 L171.7,420.0 L172.6,420.0 L173.4,420.0 L174.2,420.0 L175.1,420.0 L175.9,420.0 L176.8,420.0 L177.6,420.0 L178.5,420.0 L179.3,420.0 L180.1,420.0 L181.0,420.0 L181.8,420.0 L182.7,420.0 L183.5,420.0 L184.3,420.0 L185.2,420.0 L186.0,420.0 L186.9,420.0 L187.7,420.0 L188.6,420.0 L189.4,420.0 L190.2,420.0 L191.1,420.0 L191.9,420.0 L192.8,420.0 L193.6,420.0 L194.4,420.0 L195.3,420.0 L196.1,420.0 L197.0,420.0 L197.8,420.0 L198.7,420.0 L199.5,420.0 L200.3,420.0 L201.2,420.0 L202.0,420.0 L202.9,420.0 L203.7,420.0 L204.5,420.0 L205.4,420.0 L206.2,420.0 L207.1,420.0 L207.9,420.0 L208.8,420.0 L209.6,420.0 L210.4,420.0 L211.3,420.0 L212.1,420.0 L213.0,420.0 L213.8,420.0 L214.6,420.0 L215.5,420.0 L216.3,420.0 L217.2,420.0 L218.0,420.0 L218.8,420.0 L219.7,420.0 L220.5,420.0 L221.4,420.0 L222.2,420.0 L223.1,420.0 L223.9,420.0 L224.7,420.0 L225.6,420.0 L226.4,420.0 L227.3,420.0 L228.1,420.0 L228.9,420.0 L229.8,420.0 L230.6,420.0 L231.5,420.0 L232.3,420.0 L233.2,420.0 L234.0,420.0 L234.8,420.0 L235.7,420.0 L236.5,420.0 L237.4,420.0 L238.2,420.0 L239.0,420.0 L239.9,420.0 L240.7,420.0 L241.6,420.0 L242.4,420.0 L243.3,420.0 L244.1,420.0 L244.9,420.0 L245.8,420.0 L246.6,420.0 L247.5,420.0 L248.3,420.0 L249.1,420.0 L250.0,420.0 L250.8,420.0 L251.7,420.0 L252.5,420.0 L253.4,420.0 L254.2,420.0 L255.0,420.0 L255.9,420.0 L256.7,420.0 L257.6,420.0 L258.4,420.0 L259.2,420.0 L260.1,420.0 L260.9,420.0 L261.8,420.0 L262.6,420.0 L263.5,420.0 L264.3,420.0 L265.1,420.0 L266.0,420.0 L266.8,420.0 L267.7,420.0 L268.5,420.0 L269.3,420.0 L270.2,420.0 L271.0,420.0 L271.9,420.0 L272.7,420.0 L273.5,420.0 L274.4,420.0 L275.2,420.0 L276.1,420.0 L276.9,420.0 L277.8,420.0 L278.6,420.0 L279.4,420.0 L280.3,420.0 L281.1,420.0 L282.0,420.0 L282.8,420.0 L283.6,420.0 L284.5,420.0 L285.3,420.0 L286.2,420.0 L287.0,420.0 L287.9,420.0 L288.7,420.0 L289.5,420.0 L290.4,420.0 L291.2,420.0 L292.1,420.0 L292.9,420.0 L293.7,420.0 L294.6,420.0 L295.4,420.0 L296.3,420.0 L297.1,420.0 L298.0,420.0 L298.8,420.0 L299.6,420.0 L300.5,420.0 L301.3,420.0 L302.2,420.0 L303.0,420.0 L303.8,420.0 L304.7,420.0 L305.5,420.0 L306.4,420.0 L307.2,420.0 L308.1,420.0 L308.9,420.0 L309.7,420.0 L310.6,420.0 L311.4,420.0 L312.3,420.0 L313.1,420.0 L313.9,420.0 L314.8,420.0 L315.6,420.0 L316.5,420.0 L317.3,420.0 L318.1,420.0 L319.0,420.0 L319.8,420.0 L320.7,420.0 L321.5,420.0 L322.4,420.0 L323.2,420.0 L324.0,420.0 L324.9,420.0 L325.7,420.0 L326.6,420.0 L327.4,420.0 L328.2,420.0 L329.1,420.0 L329.9,420.0 L330.8,420.0 L331.6,420.0 L332.5,420.0 L333.3,420.0 L334.1,420.0 L335.0,420.0 L335.8,420.0 L336.7,420.0 L337.5,420.0 L338.3,420.0 L339.2,420.0 L340.0,420.0 L340.9,420.0 L341.7,420.0 L342.6,420.0 L343.4,420.0 L344.2,420.0 L345.1,420.0 L345.9,420.0 L346.8,420.0 L347.6,420.0 L348.4,420.0 L349.3,420.0 L350.1,420.0 L351.0,420.0 L351.8,420.0 L352.7,420.0 L353.5,420.0 L354.3,420.0 L355.2,420.0 L356.0,420.0 L356.9,420.0 L357.7,420.0 L358.5,420.0 L359.4,420.0 L360.2,420.0 L361.1,420.0 L361.9,420.0 L362.7,420.0 L363.6,420.0 L364.4,420.0 L365.3,420.0 L366.1,420.0 L367.0,420.0 L367.8,420.0 L368.6,420.0 L369.5,420.0 L370.3,420.0 L371.2,420.0 L372.0,420.0 L372.8,420.0 L373.7,420.0 L374.5,420.0 L375.4,420.0 L376.2,420.0 L377.1,420.0 L377.9,420.0 L378.7,420.0 L379.6,420.0 L380.4,420.0 L381.3,420.0 L382.1,420.0 L382.9,420.0 L383.8,420.0 L384.6,420.0 L385.5,420.0 L386.3,420.0 L387.2,420.0 L388.0,420.0 L388.8,420.0 L389.7,420.0 L390.5,420.0 L391.4,420.0 L392.2,420.0 L393.0,420.0 L393.9,420.0 L394.7,420.0 L395.6,420.0 L396.4,420.0 L397.3,420.0 L398.1,420.0 L398.9,420.0 L399.8,420.0 L400.6,420.0 L401.5,420.0 L402.3,420.0 L403.1,420.0 L404.0,420.0 L404.8,420.0 L405.7,420.0 L406.5,420.0 L407.3,420.0 L408.2,420.0 L409.0,420.0 L409.9,420.0 L410.7,420.0 L411.6,420.0 L412.4,420.0 L413.2,420.0 L414.1,420.0 L414.9,420.0 L415.8,420.0 L416.6,420.0 L417.4,420.0 L418.3,420.0 L419.1,420.0 L420.0,420.0 L420.8,420.0 L421.7,420.0 L422.5,420.0 L423.3,420.0 L424.2,420.0 L425.0,420.0 L425.9,420.0 L426.7,420.0 L427.5,420.0 L428.4,420.0 L429.2,420.0 L430.1,420.0 L430.9,420.0 L431.8,420.0 L432.6,420.0 L433.4,420.0 L434.3,420.0 L435.1,420.0 L436.0,420.0 L436.8,420.0 L437.6,420.0 L438.5,420.0 L439.3,420.0 L440.2,420.0 L441.0,420.0 L441.9,420.0 L442.7,420.0 L443.5,420.0 L444.4,420.0 L445.2,420.0 L446.1,420.0 L447.7,420.0 L448.6,420.0 L449.4,420.0 L450.3,420.0 L451.1,420.0 L451.9,420.0 L452.8,420.0 L453.6,420.0 L454.5,420.0 L455.3,420.0 L456.2,420.0 L457.0,420.0 L457.8,420.0 L458.7,420.0 L459.5,420.0 L460.4,420.0 L461.2,420.0 L462.0,420.0 L462.9,420.0 L463.7,420.0 L464.6,420.0 L465.4,420.0 L466.3,420.0 L467.1,420.0 L467.9,420.0 L468.8,420.0 L469.6,420.0 L470.5,420.0 L471.3,420.0 L472.1,420.0 L473.0,420.0 L473.8,420.0 L474.7,420.0 L475.5,420.0 L476.4,420.0 L477.2,420.0 L478.0,420.0 L478.9,420.0 L479.7,420.0 L480.6,420.0 L481.4,420.0 L482.2,420.0 L483.1,420.0 L483.9,420.0 L484.8,420.0 L485.6,420.0 L486.5,420.0 L487.3,420.0 L488.1,420.0 L489.0,420.0 L489.8,420.0 L490.7,420.0 L491.5,420.0 L492.3,420.0 L493.2,420.0 L494.0,420.0 L494.9,420.0 L495.7,420.0 L496.5,420.0 L497.4,420.0 L498.2,420.0 L499.1,420.0 L499.9,420.0 L500.8,420.0 L501.6,420.0 L502.4,420.0 L503.3,420.0 L504.1,420.0 L505.0,420.0 L505.8,420.0 L506.6,420.0 L507.5,420.0 L508.3,420.0 L509.2,420.0 L510.0,420.0 L510.9,420.0 L511.7,420.0 L512.5,420.0 L513.4,420.0 L514.2,420.0 L515.1,420.0 L515.9,420.0 L516.7,420.0 L517.6,420.0 L518.4,420.0 L519.3,420.0 L520.1,420.0 L521.0,420.0 L521.8,420.0 L522.6,420.0 L523.5,420.0 L524.3,420.0 L525.2,420.0 L526.0,420.0 L526.8,420.0 L527.7,420.0 L528.5,420.0 L529.4,420.0 L530.2,420.0 L531.1,420.0 L531.9,420.0 L532.7,420.0 L533.6,420.0 L534.4,420.0 L535.3,420.0 L536.1,420.0 L536.9,420.0 L537.8,420.0 L538.6,420.0 L539.5,420.0 L540.3,420.0 L541.2,420.0 L542.0,420.0 L542.8,420.0 L543.7,420.0 L544.5,420.0 L545.4,420.0 L546.2,420.0 L547.0,420.0 L547.9,420.0 L548.7,420.0 L549.6,420.0 L550.4,420.0 L551.2,420.0 L552.1,420.0 L552.9,420.0 L553.8,420.0 L554.6,420.0 L555.5,420.0 L556.3,420.0 L557.1,420.0 L558.0,420.0 L558.8,420.0 L559.7,420.0 L560.5,420.0 L561.3,420.0 L562.2,420.0 L563.0,420.0 L563.9,420.0 L564.7,420.0 L565.6,420.0 L566.4,420.0 L567.2,420.0 L568.1,420.0 L568.9,420.0 L569.8,420.0 L570.6,420.0 L571.4,420.0 L572.3,420.0 L573.1,420.0 L574.0,420.0 L574.8,420.0 L575.7,420.0 L576.5,420.0 L577.3,420.0 L578.2,420.0 L579.0,420.0 L579.9,420.0 L580.7,420.0 L581.5,420.0 L582.4,420.0 L583.2,420.0 L584.1,420.0 L584.9,420.0 L585.8,420.0 L586.6,420.0 L587.4,420.0 L588.3,420.0 L589.1,420.0 L590.0,420.0 L590.8,420.0 L591.6,420.0 L592.5,420.0 L593.3,420.0 L594.2,420.0 L595.0,420.0 L595.8,420.0 L596.7,420.0 L597.5,420.0 L598.4,420.0 L599.2,420.0 L600.1,420.0 L600.9,420.0 L601.7,420.0 L602.6,420.0 L603.4,420.0 L604.3,420.0 L605.1,420.0 L605.9,420.0 L606.8,420.0 L607.6,420.0 L608.5,420.0 L609.3,420.0 L610.2,420.0 L611.0,420.0 L611.8,420.0 L612.7,420.0 L613.5,420.0 L614.4,420.0 L615.2,420.0 L616.0,420.0 L616.9,420.0 L617.7,420.0 L618.6,420.0 L619.4,420.0 L620.3,420.0 L621.1,420.0 L621.9,420.0 L622.8,420.0 L623.6,420.0 L624.5,420.0 L625.3,420.0 L626.1,420.0 L627.0,420.0 L627.8,420.0 L628.7,420.0 L629.5,420.0 L630.4,420.0 L631.2,420.0 L632.0,420.0 L632.9,420.0 L633.7,420.0 L634.6,420.0 L635.4,420.0 L636.2,420.0 L637.1,420.0 L637.9,420.0 L638.8,420.0 L639.6,420.0 L640.4,420.0 L641.3,420.0 L642.1,420.0 L643.0,420.0 L643.8,420.0 L644.7,420.0 L645.5,420.0 L646.3,420.0 L647.2,420.0 L648.0,420.0 L648.9,420.0 L649.7,420.0 L650.5,420.0 L651.4,420.0 L652.2,420.0 L653.1,420.0 L653.9,420.0 L654.8,420.0 L655.6,420.0 L656.4,420.0 L657.3,420.0 L658.1,420.0 L659.0,420.0 L659.8,420.0 L660.6,420.0 L661.5,420.0 L662.3,420.0 L663.2,420.0 L664.0,420.0 L664.9,420.0 L665.7,420.0 L666.5,420.0 L667.4,420.0 L668.2,420.0 L669.1,420.0 L669.9,420.0 L670.7,420.0 L671.6,420.0 L672.4,420.0 L673.3,420.0 L674.1,420.0 L675.0,420.0 L675.8,420.0 L676.6,420.0 L677.5,420.0 L678.3,420.0 L679.2,420.0 L680.0,420.0" stroke="#e377c2" stroke-width="2" fill="none" opacity="0.8"/>

<!-- Legend -->
<line x1="690" y1="70" x2="705" y2="70" stroke="#1f77b4" stroke-width="3"/>
<text x="710" y="74" class="legend">Wind Generation</text>
<line x1="690" y1="88" x2="705" y2="88" stroke="#ff7f0e" stroke-width="3"/>
<text x="710" y="92" class="legend">Hydro Generation</text>
<line x1="690" y1="106" x2="705" y2="106" stroke="#2ca02c" stroke-width="3"/>
<text x="710" y="110" class="legend">Thermal Generation</text>
<line x1="690" y1="124" x2="705" y2="124" stroke="#d62728" stroke-width="3"/>
<text x="710" y="128" class="legend">Solar Generation</text>
<line x1="690" y1="142" x2="705" y2="142" stroke="#9467bd" stroke-width="3"/>
<text x="710" y="146" class="legend">Forecast</text>
<line x1="690" y1="160" x2="705" y2="160" stroke="#8c564b" stroke-width="3"/>
<text x="710" y="164" class="legend">Total Generation</text>
<line x1="690" y1="178" x2="705" y2="178" stroke="#e377c2" stroke-width="3"/>
<text x="710" y="182" class="legend">Forecast Difference</text>

<!-- Date range -->
<text x="80" y="495" class="legend">Range: 02/17 - 03/19/2026 (713 records)</text>
</svg>