<?xml version="1.0" encoding="UTF-8"?>
<svg width="800" height="500" xmlns="http://www.w3.org/2000/svg">
<style>
.axis-line { stroke: #333; stroke-width: 1; }
.grid-line { stroke: #ddd; stroke-width: 0.5; }
.title { font: 16px Arial; text-anchor: middle; fill: #333; }
.axis-label { font: 12px Arial; text-anchor: middle; fill: #666; }
.legend { font: 10px Arial; fill: #333; }
</style>

<!-- Title -->
<text x="400.0" y="25" class="title">Northwestern Energy Generation Data - Past 30 Days</text>

<!-- Plot area background -->
<rect x="80" y="50" width="600" height="370" fill="white" stroke="#ddd"/>

<!-- Y-axis -->
<line x1="80" y1="50" x2="80" y2="420" class="axis-line"/>
<text x="30" y="235.0" class="axis-label" transform="rotate(-90, 30, 235.0)">Generation (MW)</text>

<!-- X-axis -->
<line x1="80" y1="420" x2="680" y2="420" class="axis-line"/>
<text x="380.0" y="480" class="axis-label">Time</text>
<line x1="80" y1="420.0" x2="680" y2="420.0" class="grid-line"/>
<text x="70" y="425.0" class="legend" text-anchor="end">0</text>
<line x1="80" y1="327.5" x2="680" y2="327.5" class="grid-line"/>
<text x="70" y="332.5" class="legend" text-anchor="end">357</text>
<line x1="80" y1="235.0" x2="680" y2="235.0" class="grid-line"/>
<text x="70" y="240.0" class="legend" text-anchor="end">714</text>
<line x1="80" y1="142.5" x2="680" y2="142.5" class="grid-line"/>
<text x="70" y="147.5" class="legend" text-anchor="end">1071</text>
<line x1="80" y1="50.0" x2="680" y2="50.0" class="grid-line"/>
<text x="70" y="55.0" class="legend" text-anchor="end">1428</text>
<!-- Wind Generation -->
<path d="M80.0,333.5 L80.8,331.9 L81.7,328.8 L82.5,329.3 L83.4,330.4 L84.2,332.4 L85.1,335.8 L85.9,330.1 L86.7,332.2 L87.6,330.6 L88.4,330.6 L89.3,329.6 L90.1,324.9 L91.0,326.7 L91.8,333.7 L92.6,335.8 L93.5,336.1 L94.3,338.1 L95.2,348.7 L96.0,333.5 L96.9,327.5 L97.7,327.0 L98.5,328.5 L99.4,326.7 L100.2,335.8 L101.1,336.1 L101.9,340.7 L102.8,337.3 L103.6,337.6 L104.4,371.0 L105.3,354.4 L106.1,364.6 L107.0,376.2 L107.8,379.8 L108.7,369.5 L109.5,372.1 L110.3,363.5 L111.2,360.7 L112.0,334.5 L112.9,331.9 L113.7,311.7 L114.6,310.1 L115.4,309.6 L116.2,313.2 L117.1,313.2 L117.9,312.5 L118.8,312.5 L119.6,312.2 L120.4,319.2 L121.3,338.9 L122.1,343.8 L123.0,350.0 L123.8,358.3 L124.7,355.2 L125.5,356.8 L126.3,346.9 L127.2,332.7 L128.0,334.0 L128.9,328.3 L129.7,334.2 L130.6,343.6 L131.4,341.8 L132.2,364.3 L133.1,365.8 L133.9,373.4 L134.8,374.9 L135.6,380.9 L136.5,370.8 L137.3,386.3 L138.1,388.1 L139.0,369.5 L139.8,374.4 L140.7,374.1 L141.5,371.0 L142.4,385.3 L143.2,391.2 L144.0,388.1 L144.9,395.4 L145.7,392.0 L146.6,379.1 L147.4,373.1 L148.3,359.1 L149.1,339.2 L149.9,323.6 L150.8,319.7 L151.6,323.9 L152.5,327.0 L153.3,318.4 L154.2,320.5 L155.0,323.6 L155.8,318.9 L156.7,318.4 L157.5,318.7 L158.4,320.5 L159.2,315.6 L160.1,327.8 L160.9,322.3 L161.7,320.5 L162.6,316.1 L163.4,317.4 L164.3,318.2 L165.1,322.6 L166.0,323.1 L166.8,322.6 L167.6,325.9 L168.5,338.9 L169.3,341.8 L170.2,325.7 L171.0,321.8 L171.9,314.5 L172.7,315.3 L173.5,336.3 L174.4,335.3 L175.2,323.6 L176.1,328.8 L176.9,319.2 L177.8,323.9 L178.6,343.8 L179.4,339.2 L180.3,324.9 L181.1,315.1 L182.0,319.2 L182.8,317.9 L183.7,312.7 L184.5,313.0 L185.3,311.2 L186.2,318.9 L187.0,320.5 L187.9,319.5 L188.7,317.7 L189.6,326.7 L190.4,344.1 L191.2,357.6 L192.1,370.3 L192.9,369.5 L193.8,387.9 L194.6,399.3 L195.4,384.2 L196.3,374.7 L197.1,377.8 L198.0,379.6 L198.8,379.1 L199.7,375.7 L200.5,397.7 L201.3,394.1 L202.2,407.6 L203.0,394.1 L203.9,383.7 L204.7,379.6 L205.6,376.5 L206.4,365.1 L207.2,355.5 L208.1,351.6 L208.9,353.2 L209.8,356.5 L210.6,359.6 L211.5,377.0 L212.3,390.7 L213.1,392.8 L214.0,406.0 L214.8,392.8 L215.7,381.9 L216.5,377.8 L217.4,374.7 L218.2,364.0 L219.0,358.6 L219.9,363.3 L220.7,383.5 L221.6,391.2 L222.4,392.8 L223.3,400.3 L224.1,407.6 L224.9,410.9 L225.8,413.3 L226.6,416.1 L227.5,418.7 L228.3,419.5 L229.2,419.2 L230.0,420.0 L230.8,420.0 L231.7,420.0 L232.5,420.0 L233.4,419.2 L234.2,419.5 L235.1,418.7 L235.9,415.3 L236.7,409.9 L237.6,402.6 L238.4,406.0 L239.3,408.3 L240.1,413.8 L241.0,410.7 L241.8,404.2 L242.6,400.0 L243.5,391.5 L244.3,388.4 L245.2,377.0 L246.0,362.7 L246.9,338.1 L247.7,327.8 L248.5,330.6 L249.4,330.4 L250.2,331.1 L251.1,332.7 L251.9,340.7 L252.8,336.8 L253.6,337.1 L254.4,336.6 L255.3,336.6 L256.1,345.6 L257.0,335.3 L257.8,336.3 L258.7,365.3 L259.5,363.8 L260.3,370.5 L261.2,380.6 L262.0,377.2 L262.9,379.3 L263.7,369.0 L264.6,377.0 L265.4,376.0 L266.2,374.4 L267.1,376.2 L267.9,371.3 L268.8,376.7 L269.6,379.3 L270.4,385.3 L271.3,396.2 L272.1,406.8 L273.0,409.4 L273.8,404.5 L274.7,399.0 L275.5,394.1 L276.3,372.1 L277.2,362.0 L278.0,355.0 L278.9,339.9 L279.7,325.7 L280.6,318.9 L281.4,322.3 L282.2,317.7 L283.1,318.2 L283.9,320.8 L284.8,319.5 L285.6,322.3 L286.5,318.9 L287.3,314.8 L288.1,319.7 L289.0,318.2 L289.8,316.1 L290.7,314.8 L291.5,312.0 L292.4,325.4 L293.2,324.9 L294.0,346.2 L294.9,348.2 L295.7,341.8 L296.6,344.1 L297.4,342.8 L298.3,346.9 L299.1,344.9 L299.9,345.9 L300.8,313.8 L301.6,317.7 L302.5,316.4 L303.3,317.1 L304.2,324.6 L305.0,324.4 L305.8,320.8 L306.7,326.7 L307.5,323.6 L308.4,315.8 L309.2,314.3 L310.1,315.3 L310.9,311.4 L311.7,315.3 L312.6,331.1 L313.4,325.9 L314.3,332.2 L315.1,324.4 L316.0,320.0 L316.8,323.1 L317.6,323.6 L318.5,317.1 L319.3,315.6 L320.2,322.1 L321.0,328.0 L321.9,337.1 L322.7,339.7 L323.5,359.4 L324.4,346.9 L325.2,342.0 L326.1,356.3 L326.9,345.6 L327.8,342.0 L328.6,346.4 L329.4,331.1 L330.3,348.5 L331.1,342.5 L332.0,332.9 L332.8,329.8 L333.7,342.5 L334.5,344.9 L335.3,345.1 L336.2,327.2 L337.0,310.4 L337.9,316.4 L338.7,311.2 L339.6,318.4 L340.4,326.7 L341.2,325.7 L342.1,335.0 L342.9,323.6 L343.8,321.5 L344.6,313.2 L345.4,312.0 L346.3,314.3 L347.1,313.5 L348.0,316.6 L348.8,320.0 L349.7,321.5 L350.5,318.7 L351.3,322.3 L352.2,317.1 L353.0,319.7 L353.9,327.2 L354.7,327.0 L355.6,321.3 L356.4,313.2 L357.2,313.2 L358.1,323.4 L358.9,320.0 L359.8,320.0 L360.6,325.7 L361.5,319.7 L362.3,335.5 L363.1,328.0 L364.0,336.3 L364.8,338.4 L365.7,339.2 L366.5,324.9 L367.4,334.2 L368.2,338.1 L369.0,323.6 L369.9,341.2 L370.7,342.3 L371.6,343.8 L372.4,332.4 L373.3,341.8 L374.1,342.0 L374.9,352.4 L375.8,347.5 L376.6,342.8 L377.5,327.0 L378.3,326.7 L379.2,320.2 L380.0,330.6 L380.8,328.3 L381.7,321.8 L382.5,329.3 L383.4,324.9 L384.2,328.3 L385.1,321.5 L385.9,322.3 L386.7,315.1 L387.6,314.0 L388.4,319.7 L389.3,319.7 L390.1,315.6 L391.0,314.8 L391.8,313.5 L392.6,318.2 L393.5,321.3 L394.3,325.2 L395.2,330.6 L396.0,328.0 L396.9,320.5 L397.7,321.5 L398.5,329.8 L399.4,315.3 L400.2,319.5 L401.1,319.5 L401.9,323.1 L402.8,343.8 L403.6,342.3 L404.4,330.9 L405.3,336.1 L406.1,335.3 L407.0,330.1 L407.8,326.7 L408.7,336.3 L409.5,331.1 L410.3,330.1 L411.2,337.9 L412.0,345.6 L412.9,341.5 L413.7,345.4 L414.6,359.9 L415.4,367.7 L416.2,377.2 L417.1,363.3 L417.9,379.8 L418.8,372.3 L419.6,367.4 L420.4,346.4 L421.3,341.8 L422.1,346.2 L423.0,343.3 L423.8,349.8 L424.7,336.8 L425.5,322.1 L426.3,313.8 L427.2,320.0 L428.0,312.7 L428.9,314.3 L429.7,318.2 L430.6,319.2 L431.4,313.2 L432.2,312.2 L433.1,317.7 L433.9,318.9 L434.8,318.4 L435.6,318.4 L436.5,313.0 L437.3,314.0 L438.1,318.2 L439.0,311.7 L439.8,313.0 L440.7,312.2 L441.5,319.7 L442.4,338.1 L443.2,326.5 L444.0,323.9 L444.9,330.9 L445.7,343.3 L446.6,354.2 L447.4,341.8 L448.3,355.5 L449.1,347.2 L449.9,344.6 L450.8,341.8 L451.6,344.6 L452.5,351.9 L453.3,353.7 L454.2,341.2 L455.0,364.0 L455.8,358.9 L456.7,354.7 L457.5,360.1 L458.4,364.6 L459.2,368.2 L460.1,374.7 L460.9,376.0 L461.7,396.4 L462.6,403.9 L463.4,406.0 L464.3,413.3 L465.1,416.1 L466.0,412.5 L466.8,398.2 L467.6,389.2 L468.5,384.0 L469.3,360.9 L470.2,338.4 L471.0,321.3 L471.9,323.4 L472.7,322.8 L473.5,320.8 L474.4,325.4 L475.2,323.9 L476.1,319.2 L476.9,312.7 L477.8,314.0 L478.6,322.3 L479.4,321.5 L480.3,336.1 L481.1,330.4 L482.0,316.4 L482.8,324.4 L483.7,318.2 L484.5,326.2 L485.3,330.1 L486.2,324.4 L487.0,330.9 L487.9,325.9 L488.7,325.9 L489.6,329.6 L490.4,325.9 L491.2,330.4 L492.1,328.3 L492.9,323.9 L493.8,319.7 L494.6,320.0 L495.4,336.6 L496.3,333.5 L497.1,325.2 L498.0,321.3 L498.8,318.2 L499.7,343.0 L500.5,340.5 L501.3,350.6 L502.2,368.4 L503.0,387.4 L503.9,404.5 L504.7,404.7 L505.6,404.7 L506.4,405.0 L507.2,410.9 L508.1,416.9 L508.9,419.2 L509.8,418.7 L510.6,419.0 L511.5,417.1 L512.3,415.3 L513.1,414.6 L514.0,412.5 L514.8,409.4 L515.7,405.2 L516.5,411.2 L517.4,412.7 L518.2,411.2 L519.0,403.9 L519.9,400.8 L520.7,388.1 L521.6,382.9 L522.4,385.3 L523.3,379.8 L524.1,354.2 L524.9,357.6 L525.8,342.0 L526.6,334.2 L527.5,325.4 L528.3,320.0 L529.2,324.1 L530.0,318.4 L530.8,329.8 L531.7,330.4 L532.5,334.0 L533.4,334.0 L534.2,334.0 L535.1,331.9 L535.9,328.3 L536.7,322.1 L537.6,313.2 L538.4,310.7 L539.3,309.1 L540.1,310.7 L541.0,310.9 L541.8,308.6 L542.6,312.5 L543.5,330.9 L544.3,335.0 L545.2,352.1 L546.0,349.0 L546.9,352.6 L547.7,345.6 L548.5,348.2 L549.4,318.2 L550.2,325.9 L551.1,318.4 L551.9,331.1 L552.8,319.5 L553.6,314.5 L554.4,325.4 L555.3,324.9 L556.1,322.6 L557.0,322.1 L557.8,323.1 L558.7,312.2 L559.5,309.6 L560.3,316.4 L561.2,321.5 L562.0,334.8 L562.9,343.6 L563.7,362.2 L564.6,373.4 L565.4,384.0 L566.2,392.8 L567.1,398.8 L567.9,398.5 L568.8,404.5 L569.6,407.6 L570.4,409.6 L571.3,403.7 L572.1,400.8 L573.0,396.9 L573.8,395.6 L574.7,390.7 L575.5,391.8 L576.3,400.3 L577.2,407.0 L578.0,402.6 L578.9,405.7 L579.7,402.9 L580.6,399.8 L581.4,408.9 L582.2,411.4 L583.1,406.5 L583.9,408.9 L584.8,409.1 L585.6,413.8 L586.5,407.3 L587.3,385.5 L588.1,379.3 L589.0,368.7 L589.8,350.8 L590.7,346.2 L591.5,341.0 L592.4,357.6 L593.2,336.3 L594.0,334.0 L594.9,346.7 L595.7,339.7 L596.6,353.2 L597.4,368.7 L598.3,344.1 L599.1,353.4 L599.9,345.4 L600.8,373.6 L601.6,382.4 L602.5,396.4 L603.3,403.2 L604.2,411.7 L605.0,415.6 L605.8,414.0 L606.7,413.5 L607.5,413.0 L608.4,414.8 L609.2,412.2 L610.1,402.6 L610.9,406.8 L611.7,408.3 L612.6,407.3 L613.4,401.3 L614.3,406.3 L615.1,403.7 L616.0,399.3 L616.8,395.6 L617.6,386.1 L618.5,384.0 L619.3,393.6 L620.2,366.4 L621.0,358.6 L621.9,358.9 L622.7,350.8 L623.5,356.0 L624.4,348.2 L625.2,341.0 L626.1,351.6 L626.9,368.7 L627.8,368.2 L628.6,362.7 L629.4,354.2 L630.3,348.0 L631.1,351.1 L632.0,335.8 L632.8,326.7 L633.7,320.5 L634.5,318.9 L635.3,321.0 L636.2,318.9 L637.0,320.0 L637.9,323.1 L638.7,328.5 L639.6,329.3 L640.4,330.9 L641.2,328.8 L642.1,325.2 L642.9,320.2 L643.8,323.1 L644.6,325.2 L645.4,323.4 L646.3,321.0 L647.1,325.2 L648.0,320.5 L648.8,320.2 L649.7,322.3 L650.5,327.0 L651.3,325.7 L652.2,328.3 L653.0,330.6 L653.9,330.4 L654.7,326.5 L655.6,319.5 L656.4,328.5 L657.2,326.5 L658.1,348.5 L658.9,355.2 L659.8,355.2 L660.6,357.3 L661.5,354.2 L662.3,356.5 L663.1,362.5 L664.0,370.5 L664.8,372.3 L665.7,371.0 L666.5,379.8 L667.4,374.1 L668.2,376.0 L669.0,377.5 L669.9,374.7 L670.7,373.9 L671.6,364.3 L672.4,325.4 L673.3,329.8 L674.1,330.4 L674.9,340.5 L675.8,342.3 L676.6,354.4 L677.5,354.2 L678.3,321.5 L679.2,345.9 L680.0,347.5" stroke="#1f77b4" stroke-width="2" fill="none" opacity="0.8"/>
<!-- Hydro Generation -->
<path d="M80.0,350.8 L80.8,351.1 L81.7,351.3 L82.5,351.3 L83.4,351.6 L84.2,351.1 L85.1,351.1 L85.9,351.1 L86.7,351.3 L87.6,351.3 L88.4,351.3 L89.3,351.1 L90.1,351.9 L91.0,351.3 L91.8,351.9 L92.6,351.3 L93.5,351.1 L94.3,350.8 L95.2,351.1 L96.0,351.3 L96.9,351.1 L97.7,351.1 L98.5,350.8 L99.4,351.1 L100.2,350.8 L101.1,350.8 L101.9,350.6 L102.8,351.3 L103.6,350.8 L104.4,350.8 L105.3,350.6 L106.1,351.3 L107.0,351.3 L107.8,351.3 L108.7,351.3 L109.5,351.3 L110.3,351.6 L111.2,351.6 L112.0,351.6 L112.9,351.6 L113.7,352.1 L114.6,351.9 L115.4,352.1 L116.2,351.9 L117.1,351.9 L117.9,351.6 L118.8,351.6 L119.6,352.1 L120.4,352.1 L121.3,352.1 L122.1,351.1 L123.0,350.6 L123.8,350.6 L124.7,350.3 L125.5,350.3 L126.3,349.3 L127.2,349.3 L128.0,349.3 L128.9,348.5 L129.7,348.7 L130.6,349.3 L131.4,349.0 L132.2,349.3 L133.1,350.6 L133.9,350.3 L134.8,350.6 L135.6,350.6 L136.5,350.3 L137.3,350.8 L138.1,350.6 L139.0,350.6 L139.8,350.3 L140.7,350.6 L141.5,350.6 L142.4,350.3 L143.2,349.8 L144.0,349.0 L144.9,349.0 L145.7,349.8 L146.6,349.5 L147.4,349.8 L148.3,349.0 L149.1,349.3 L149.9,348.7 L150.8,348.7 L151.6,350.0 L152.5,349.8 L153.3,349.3 L154.2,349.8 L155.0,349.8 L155.8,349.8 L156.7,349.8 L157.5,349.5 L158.4,349.5 L159.2,349.8 L160.1,349.5 L160.9,350.0 L161.7,349.8 L162.6,349.5 L163.4,349.8 L164.3,350.0 L165.1,349.8 L166.0,350.0 L166.8,349.0 L167.6,349.3 L168.5,349.3 L169.3,349.0 L170.2,348.7 L171.0,349.0 L171.9,349.3 L172.7,349.0 L173.5,349.8 L174.4,349.5 L175.2,349.8 L176.1,350.6 L176.9,350.3 L177.8,350.0 L178.6,351.1 L179.4,351.1 L180.3,351.3 L181.1,350.8 L182.0,350.8 L182.8,350.8 L183.7,350.6 L184.5,350.8 L185.3,350.3 L186.2,350.3 L187.0,350.0 L187.9,350.3 L188.7,350.3 L189.6,350.3 L190.4,350.3 L191.2,350.6 L192.1,351.3 L192.9,352.1 L193.8,353.7 L194.6,355.2 L195.4,355.2 L196.3,353.2 L197.1,351.6 L198.0,351.1 L198.8,351.1 L199.7,349.5 L200.5,349.3 L201.3,349.3 L202.2,349.3 L203.0,349.5 L203.9,349.3 L204.7,349.0 L205.6,349.0 L206.4,349.0 L207.2,348.7 L208.1,349.0 L208.9,349.5 L209.8,349.8 L210.6,350.6 L211.5,352.1 L212.3,353.7 L213.1,355.5 L214.0,356.5 L214.8,357.6 L215.7,357.6 L216.5,357.6 L217.4,356.5 L218.2,354.7 L219.0,351.1 L219.9,349.8 L220.7,350.0 L221.6,349.8 L222.4,350.3 L223.3,350.3 L224.1,352.9 L224.9,354.2 L225.8,353.4 L226.6,356.3 L227.5,357.8 L228.3,358.9 L229.2,360.7 L230.0,361.7 L230.8,364.3 L231.7,365.3 L232.5,365.3 L233.4,366.6 L234.2,366.4 L235.1,367.9 L235.9,368.4 L236.7,369.5 L237.6,369.5 L238.4,370.3 L239.3,370.0 L240.1,370.0 L241.0,370.3 L241.8,369.5 L242.6,368.7 L243.5,368.7 L244.3,369.5 L245.2,369.2 L246.0,368.7 L246.9,368.2 L247.7,367.9 L248.5,367.4 L249.4,366.9 L250.2,366.6 L251.1,364.3 L251.9,364.6 L252.8,365.6 L253.6,366.6 L254.4,366.9 L255.3,367.1 L256.1,368.2 L257.0,368.2 L257.8,368.4 L258.7,368.4 L259.5,368.4 L260.3,367.1 L261.2,367.1 L262.0,367.1 L262.9,367.1 L263.7,367.1 L264.6,367.4 L265.4,367.4 L266.2,367.4 L267.1,367.1 L267.9,367.1 L268.8,367.1 L269.6,366.9 L270.4,366.6 L271.3,367.4 L272.1,367.4 L273.0,367.4 L273.8,367.1 L274.7,367.1 L275.5,367.1 L276.3,365.3 L277.2,364.8 L278.0,363.0 L278.9,362.5 L279.7,362.2 L280.6,362.5 L281.4,362.5 L282.2,362.5 L283.1,362.0 L283.9,362.2 L284.8,362.0 L285.6,362.0 L286.5,361.4 L287.3,360.9 L288.1,360.1 L289.0,360.4 L289.8,359.1 L290.7,359.4 L291.5,359.1 L292.4,359.1 L293.2,359.4 L294.0,359.1 L294.9,359.1 L295.7,357.6 L296.6,356.8 L297.4,355.7 L298.3,355.0 L299.1,353.9 L299.9,355.0 L300.8,355.2 L301.6,355.5 L302.5,356.0 L303.3,356.0 L304.2,355.7 L305.0,356.3 L305.8,356.5 L306.7,356.8 L307.5,356.8 L308.4,356.3 L309.2,356.5 L310.1,356.8 L310.9,356.0 L311.7,355.7 L312.6,356.0 L313.4,356.5 L314.3,356.3 L315.1,355.2 L316.0,354.4 L316.8,354.7 L317.6,354.4 L318.5,354.4 L319.3,353.2 L320.2,352.4 L321.0,352.4 L321.9,351.3 L322.7,350.6 L323.5,349.0 L324.4,349.0 L325.2,348.2 L326.1,347.7 L326.9,347.5 L327.8,347.5 L328.6,346.2 L329.4,345.6 L330.3,345.6 L331.1,345.6 L332.0,345.9 L332.8,346.2 L333.7,345.9 L334.5,345.9 L335.3,345.6 L336.2,344.9 L337.0,345.1 L337.9,345.6 L338.7,344.3 L339.6,343.8 L340.4,343.0 L341.2,343.0 L342.1,342.8 L342.9,343.0 L343.8,342.8 L344.6,343.0 L345.4,343.0 L346.3,342.3 L347.1,342.3 L348.0,342.3 L348.8,342.3 L349.7,341.8 L350.5,341.8 L351.3,341.8 L352.2,342.0 L353.0,342.3 L353.9,343.0 L354.7,343.3 L355.6,343.0 L356.4,343.8 L357.2,343.0 L358.1,342.8 L358.9,343.0 L359.8,343.3 L360.6,343.0 L361.5,343.0 L362.3,343.3 L363.1,342.8 L364.0,341.5 L364.8,341.0 L365.7,340.5 L366.5,341.0 L367.4,339.7 L368.2,339.7 L369.0,340.7 L369.9,340.2 L370.7,341.2 L371.6,341.5 L372.4,341.5 L373.3,341.8 L374.1,341.5 L374.9,341.2 L375.8,341.5 L376.6,341.2 L377.5,341.0 L378.3,341.0 L379.2,341.2 L380.0,341.0 L380.8,341.5 L381.7,341.0 L382.5,341.8 L383.4,341.8 L384.2,341.8 L385.1,341.8 L385.9,341.0 L386.7,341.2 L387.6,341.5 L388.4,341.5 L389.3,341.2 L390.1,341.5 L391.0,341.0 L391.8,340.7 L392.6,341.0 L393.5,342.0 L394.3,342.0 L395.2,342.0 L396.0,341.8 L396.9,342.0 L397.7,342.0 L398.5,342.0 L399.4,341.8 L400.2,342.0 L401.1,342.0 L401.9,341.8 L402.8,341.8 L403.6,342.5 L404.4,342.5 L405.3,342.8 L406.1,342.5 L407.0,342.8 L407.8,343.0 L408.7,342.5 L409.5,342.8 L410.3,342.3 L411.2,342.3 L412.0,342.8 L412.9,342.0 L413.7,342.0 L414.6,342.0 L415.4,342.3 L416.2,342.3 L417.1,342.0 L417.9,343.0 L418.8,342.8 L419.6,343.0 L420.4,343.0 L421.3,342.8 L422.1,342.8 L423.0,343.0 L423.8,342.8 L424.7,343.0 L425.5,341.2 L426.3,341.2 L427.2,340.5 L428.0,340.5 L428.9,339.9 L429.7,340.2 L430.6,340.2 L431.4,341.2 L432.2,341.5 L433.1,341.5 L433.9,341.2 L434.8,341.0 L435.6,341.2 L436.5,341.2 L437.3,341.2 L438.1,342.8 L439.0,343.6 L439.8,343.6 L440.7,344.6 L441.5,346.4 L442.4,347.5 L443.2,347.2 L444.0,347.5 L444.9,348.7 L445.7,349.8 L446.6,350.6 L447.4,351.6 L448.3,350.8 L449.1,350.8 L449.9,350.3 L450.8,349.3 L451.6,348.5 L452.5,348.0 L453.3,347.7 L454.2,348.0 L455.0,348.0 L455.8,348.2 L456.7,348.2 L457.5,348.2 L458.4,348.2 L459.2,348.2 L460.1,349.0 L460.9,349.0 L461.7,348.7 L462.6,348.2 L463.4,348.2 L464.3,348.5 L465.1,347.7 L466.0,347.7 L466.8,347.7 L467.6,347.7 L468.5,348.0 L469.3,348.0 L470.2,347.7 L471.0,347.5 L471.9,347.7 L472.7,346.9 L473.5,347.2 L474.4,347.7 L475.2,346.4 L476.1,347.2 L476.9,346.9 L477.8,347.5 L478.6,347.7 L479.4,346.4 L480.3,346.4 L481.1,346.7 L482.0,346.9 L482.8,346.7 L483.7,347.2 L484.5,347.2 L485.3,347.2 L486.2,346.9 L487.0,347.2 L487.9,348.0 L488.7,347.7 L489.6,347.5 L490.4,348.0 L491.2,347.7 L492.1,348.2 L492.9,348.2 L493.8,348.2 L494.6,348.7 L495.4,348.0 L496.3,348.2 L497.1,347.7 L498.0,348.2 L498.8,348.2 L499.7,347.5 L500.5,348.0 L501.3,348.2 L502.2,348.0 L503.0,348.0 L503.9,348.2 L504.7,347.7 L505.6,348.0 L506.4,348.0 L507.2,348.0 L508.1,348.2 L508.9,352.1 L509.8,348.7 L510.6,348.5 L511.5,348.5 L512.3,348.5 L513.1,348.7 L514.0,348.5 L514.8,349.0 L515.7,348.2 L516.5,348.5 L517.4,348.2 L518.2,348.7 L519.0,349.0 L519.9,348.5 L520.7,348.7 L521.6,349.0 L522.4,348.5 L523.3,348.2 L524.1,348.2 L524.9,348.5 L525.8,348.5 L526.6,348.2 L527.5,348.5 L528.3,348.2 L529.2,348.5 L530.0,349.3 L530.8,349.3 L531.7,349.0 L532.5,349.3 L533.4,349.0 L534.2,349.0 L535.1,349.5 L535.9,349.8 L536.7,350.8 L537.6,350.8 L538.4,350.6 L539.3,351.1 L540.1,351.3 L541.0,351.1 L541.8,351.3 L542.6,350.6 L543.5,351.1 L544.3,351.1 L545.2,350.8 L546.0,350.6 L546.9,350.6 L547.7,350.6 L548.5,350.3 L549.4,350.6 L550.2,349.8 L551.1,350.3 L551.9,350.0 L552.8,349.8 L553.6,350.0 L554.4,349.8 L555.3,349.5 L556.1,349.8 L557.0,350.3 L557.8,349.8 L558.7,349.5 L559.5,349.3 L560.3,349.8 L561.2,349.8 L562.0,350.8 L562.9,350.8 L563.7,352.1 L564.6,351.3 L565.4,352.9 L566.2,352.4 L567.1,351.9 L567.9,351.6 L568.8,351.9 L569.6,351.1 L570.4,351.1 L571.3,351.1 L572.1,350.8 L573.0,351.1 L573.8,351.1 L574.7,351.1 L575.5,351.1 L576.3,351.1 L577.2,351.1 L578.0,350.6 L578.9,350.6 L579.7,350.8 L580.6,350.3 L581.4,350.3 L582.2,350.3 L583.1,350.3 L583.9,350.8 L584.8,350.8 L585.6,350.3 L586.5,350.3 L587.3,349.0 L588.1,349.5 L589.0,349.5 L589.8,349.0 L590.7,350.0 L591.5,350.0 L592.4,350.3 L593.2,350.0 L594.0,349.5 L594.9,350.0 L595.7,350.0 L596.6,350.3 L597.4,350.3 L598.3,350.0 L599.1,349.5 L599.9,349.8 L600.8,350.0 L601.6,349.8 L602.5,349.8 L603.3,349.8 L604.2,350.6 L605.0,350.3 L605.8,349.8 L606.7,348.7 L607.5,349.3 L608.4,349.0 L609.2,349.0 L610.1,349.0 L610.9,348.7 L611.7,348.7 L612.6,349.3 L613.4,349.0 L614.3,349.3 L615.1,348.7 L616.0,348.7 L616.8,348.5 L617.6,348.7 L618.5,348.5 L619.3,348.7 L620.2,348.5 L621.0,348.5 L621.9,347.7 L622.7,347.7 L623.5,347.5 L624.4,347.2 L625.2,347.2 L626.1,347.5 L626.9,346.9 L627.8,347.2 L628.6,347.2 L629.4,347.2 L630.3,347.2 L631.1,348.5 L632.0,348.0 L632.8,348.0 L633.7,347.2 L634.5,348.5 L635.3,348.0 L636.2,348.2 L637.0,348.2 L637.9,348.2 L638.7,348.5 L639.6,348.5 L640.4,348.2 L641.2,348.0 L642.1,347.7 L642.9,348.2 L643.8,348.5 L644.6,348.2 L645.4,349.0 L646.3,349.3 L647.1,349.0 L648.0,349.5 L648.8,349.3 L649.7,349.5 L650.5,349.3 L651.3,349.3 L652.2,349.3 L653.0,349.0 L653.9,349.3 L654.7,349.3 L655.6,349.8 L656.4,349.8 L657.2,350.0 L658.1,350.0 L658.9,350.0 L659.8,350.0 L660.6,349.8 L661.5,350.3 L662.3,350.0 L663.1,349.3 L664.0,349.3 L664.8,349.3 L665.7,348.7 L666.5,349.8 L667.4,349.8 L668.2,350.0 L669.0,349.5 L669.9,350.0 L670.7,350.0 L671.6,350.0 L672.4,350.0 L673.3,350.0 L674.1,350.3 L674.9,350.0 L675.8,350.3 L676.6,350.3 L677.5,350.6 L678.3,350.3 L679.2,350.3 L680.0,350.0" stroke="#ff7f0e" stroke-width="2" fill="none" opacity="0.8"/>
<!-- Thermal Generation -->
<path d="M80.0,328.5 L80.8,328.8 L81.7,328.5 L82.5,330.1 L83.4,319.7 L84.2,349.5 L85.1,364.8 L85.9,364.8 L86.7,364.6 L87.6,364.6 L88.4,349.8 L89.3,334.2 L90.1,314.3 L91.0,282.2 L91.8,331.1 L92.6,345.4 L93.5,365.1 L94.3,364.8 L95.2,364.6 L96.0,364.6 L96.9,364.6 L97.7,364.8 L98.5,344.1 L99.4,331.4 L100.2,338.6 L101.1,343.8 L101.9,344.3 L102.8,343.8 L103.6,344.3 L104.4,343.8 L105.3,354.7 L106.1,333.2 L107.0,343.3 L107.8,333.5 L108.7,317.7 L109.5,295.9 L110.3,303.1 L111.2,336.8 L112.0,343.6 L112.9,356.3 L113.7,364.3 L114.6,364.8 L115.4,375.4 L116.2,375.4 L117.1,375.7 L117.9,364.8 L118.8,351.1 L119.6,309.1 L120.4,311.4 L121.3,317.1 L122.1,316.4 L123.0,295.1 L123.8,306.5 L124.7,319.2 L125.5,326.5 L126.3,338.9 L127.2,338.6 L128.0,344.1 L128.9,355.5 L129.7,333.2 L130.6,310.9 L131.4,320.2 L132.2,321.5 L133.1,352.6 L133.9,351.9 L134.8,352.1 L135.6,352.1 L136.5,344.6 L137.3,344.1 L138.1,319.5 L139.0,262.2 L139.8,259.1 L140.7,255.2 L141.5,253.9 L142.4,244.3 L143.2,244.1 L144.0,248.7 L144.9,243.8 L145.7,244.1 L146.6,243.8 L147.4,244.3 L148.3,244.1 L149.1,244.1 L149.9,244.3 L150.8,248.0 L151.6,290.2 L152.5,293.8 L153.3,267.4 L154.2,282.7 L155.0,293.6 L155.8,281.1 L156.7,287.9 L157.5,296.4 L158.4,256.2 L159.2,253.9 L160.1,253.7 L160.9,256.5 L161.7,256.2 L162.6,258.1 L163.4,258.3 L164.3,255.0 L165.1,257.5 L166.0,266.6 L166.8,260.4 L167.6,260.1 L168.5,258.6 L169.3,263.0 L170.2,264.8 L171.0,265.6 L171.9,268.9 L172.7,291.0 L173.5,295.1 L174.4,262.2 L175.2,295.6 L176.1,298.7 L176.9,297.2 L177.8,298.2 L178.6,256.2 L179.4,256.2 L180.3,258.6 L181.1,256.5 L182.0,255.7 L182.8,256.0 L183.7,257.3 L184.5,267.6 L185.3,284.5 L186.2,294.3 L187.0,271.0 L187.9,273.1 L188.7,269.5 L189.6,280.9 L190.4,274.4 L191.2,275.9 L192.1,278.8 L192.9,279.0 L193.8,275.7 L194.6,274.9 L195.4,321.5 L196.3,324.1 L197.1,323.4 L198.0,323.4 L198.8,283.2 L199.7,283.2 L200.5,283.2 L201.3,280.9 L202.2,282.2 L203.0,279.8 L203.9,282.4 L204.7,279.8 L205.6,279.6 L206.4,322.1 L207.2,304.7 L208.1,299.3 L208.9,263.0 L209.8,262.7 L210.6,262.7 L211.5,263.8 L212.3,261.4 L213.1,260.9 L214.0,278.0 L214.8,261.4 L215.7,277.2 L216.5,265.6 L217.4,270.8 L218.2,260.4 L219.0,256.8 L219.9,257.5 L220.7,254.4 L221.6,254.7 L222.4,259.4 L223.3,254.4 L224.1,256.8 L224.9,254.2 L225.8,257.0 L226.6,298.0 L227.5,290.4 L228.3,293.0 L229.2,291.7 L230.0,288.4 L230.8,260.1 L231.7,260.1 L232.5,256.8 L233.4,264.0 L234.2,261.9 L235.1,259.1 L235.9,260.4 L236.7,264.5 L237.6,261.2 L238.4,272.8 L239.3,259.9 L240.1,256.8 L241.0,256.8 L241.8,254.4 L242.6,267.1 L243.5,280.9 L244.3,271.5 L245.2,265.3 L246.0,286.0 L246.9,298.0 L247.7,298.5 L248.5,298.7 L249.4,299.0 L250.2,298.5 L251.1,299.3 L251.9,299.0 L252.8,299.3 L253.6,296.9 L254.4,296.4 L255.3,299.0 L256.1,296.9 L257.0,296.7 L257.8,298.7 L258.7,297.2 L259.5,296.4 L260.3,299.3 L261.2,299.0 L262.0,298.5 L262.9,300.0 L263.7,299.3 L264.6,298.7 L265.4,301.1 L266.2,299.3 L267.1,299.5 L267.9,299.3 L268.8,299.5 L269.6,299.3 L270.4,298.7 L271.3,298.5 L272.1,299.3 L273.0,299.3 L273.8,299.8 L274.7,298.7 L275.5,299.0 L276.3,299.0 L277.2,299.0 L278.0,299.3 L278.9,298.5 L279.7,299.0 L280.6,299.0 L281.4,298.5 L282.2,299.0 L283.1,299.0 L283.9,299.3 L284.8,299.3 L285.6,298.7 L286.5,299.3 L287.3,299.0 L288.1,299.8 L289.0,298.7 L289.8,299.3 L290.7,299.5 L291.5,299.3 L292.4,299.8 L293.2,299.8 L294.0,299.8 L294.9,300.6 L295.7,300.8 L296.6,300.6 L297.4,301.1 L298.3,300.8 L299.1,301.6 L299.9,301.1 L300.8,301.1 L301.6,301.3 L302.5,301.8 L303.3,301.1 L304.2,301.3 L305.0,300.0 L305.8,299.5 L306.7,299.8 L307.5,299.3 L308.4,299.5 L309.2,300.3 L310.1,299.8 L310.9,299.3 L311.7,299.3 L312.6,299.8 L313.4,300.6 L314.3,300.3 L315.1,298.0 L316.0,296.7 L316.8,295.9 L317.6,309.9 L318.5,305.2 L319.3,303.9 L320.2,300.6 L321.0,289.7 L321.9,289.2 L322.7,289.4 L323.5,288.9 L324.4,290.2 L325.2,290.4 L326.1,291.2 L326.9,289.7 L327.8,290.4 L328.6,290.7 L329.4,290.7 L330.3,291.2 L331.1,290.4 L332.0,291.7 L332.8,292.8 L333.7,292.3 L334.5,292.3 L335.3,291.0 L336.2,291.0 L337.0,290.7 L337.9,290.2 L338.7,290.4 L339.6,289.9 L340.4,290.2 L341.2,289.9 L342.1,290.4 L342.9,290.7 L343.8,290.4 L344.6,290.2 L345.4,289.7 L346.3,289.4 L347.1,288.1 L348.0,255.7 L348.8,256.0 L349.7,258.1 L350.5,250.3 L351.3,253.7 L352.2,248.5 L353.0,250.0 L353.9,289.4 L354.7,289.2 L355.6,284.5 L356.4,288.1 L357.2,287.9 L358.1,303.9 L358.9,300.3 L359.8,298.2 L360.6,287.1 L361.5,245.1 L362.3,244.8 L363.1,244.6 L364.0,245.1 L364.8,247.4 L365.7,249.5 L366.5,244.3 L367.4,256.8 L368.2,263.2 L369.0,280.6 L369.9,286.3 L370.7,254.2 L371.6,254.2 L372.4,254.2 L373.3,255.0 L374.1,271.0 L374.9,275.9 L375.8,282.9 L376.6,282.4 L377.5,282.7 L378.3,282.4 L379.2,283.7 L380.0,280.9 L380.8,282.2 L381.7,257.5 L382.5,283.7 L383.4,285.8 L384.2,286.6 L385.1,286.8 L385.9,301.1 L386.7,301.3 L387.6,327.2 L388.4,332.4 L389.3,348.7 L390.1,348.7 L391.0,348.5 L391.8,348.0 L392.6,342.8 L393.5,299.8 L394.3,304.4 L395.2,364.6 L396.0,363.8 L396.9,359.9 L397.7,359.6 L398.5,361.7 L399.4,361.4 L400.2,359.6 L401.1,330.4 L401.9,282.4 L402.8,314.3 L403.6,307.5 L404.4,307.3 L405.3,307.0 L406.1,309.1 L407.0,287.6 L407.8,290.7 L408.7,309.9 L409.5,309.9 L410.3,297.4 L411.2,297.4 L412.0,288.1 L412.9,288.9 L413.7,281.4 L414.6,300.8 L415.4,320.0 L416.2,296.1 L417.1,322.6 L417.9,327.8 L418.8,342.5 L419.6,353.7 L420.4,350.8 L421.3,319.2 L422.1,308.8 L423.0,309.1 L423.8,293.8 L424.7,293.6 L425.5,292.8 L426.3,303.7 L427.2,303.4 L428.0,321.3 L428.9,371.5 L429.7,371.8 L430.6,371.5 L431.4,371.8 L432.2,350.3 L433.1,326.7 L433.9,310.4 L434.8,309.6 L435.6,335.8 L436.5,351.1 L437.3,342.5 L438.1,343.0 L439.0,349.0 L439.8,341.8 L440.7,339.2 L441.5,324.9 L442.4,264.8 L443.2,255.0 L444.0,251.3 L444.9,258.3 L445.7,256.5 L446.6,253.4 L447.4,267.6 L448.3,253.1 L449.1,253.9 L449.9,281.9 L450.8,300.6 L451.6,287.9 L452.5,271.5 L453.3,267.1 L454.2,267.6 L455.0,303.1 L455.8,301.8 L456.7,303.4 L457.5,301.6 L458.4,304.4 L459.2,337.3 L460.1,335.0 L460.9,332.9 L461.7,306.3 L462.6,256.2 L463.4,259.6 L464.3,257.5 L465.1,253.7 L466.0,253.9 L466.8,255.0 L467.6,254.2 L468.5,253.7 L469.3,253.7 L470.2,253.1 L471.0,253.7 L471.9,263.5 L472.7,257.3 L473.5,258.6 L474.4,258.8 L475.2,303.7 L476.1,295.4 L476.9,294.6 L477.8,292.3 L478.6,314.3 L479.4,322.8 L480.3,322.3 L481.1,332.9 L482.0,298.0 L482.8,256.8 L483.7,255.2 L484.5,269.5 L485.3,254.4 L486.2,254.4 L487.0,260.7 L487.9,297.4 L488.7,296.4 L489.6,302.1 L490.4,301.6 L491.2,326.7 L492.1,326.5 L492.9,316.4 L493.8,261.9 L494.6,261.7 L495.4,296.9 L496.3,323.9 L497.1,329.8 L498.0,336.6 L498.8,345.6 L499.7,345.6 L500.5,345.1 L501.3,315.6 L502.2,304.7 L503.0,286.0 L503.9,276.7 L504.7,277.0 L505.6,269.7 L506.4,269.2 L507.2,269.2 L508.1,269.5 L508.9,272.3 L509.8,268.7 L510.6,269.5 L511.5,268.9 L512.3,268.4 L513.1,271.8 L514.0,274.6 L514.8,271.5 L515.7,277.2 L516.5,279.6 L517.4,281.6 L518.2,282.7 L519.0,282.2 L519.9,289.7 L520.7,299.8 L521.6,303.9 L522.4,303.7 L523.3,261.4 L524.1,264.0 L524.9,259.4 L525.8,259.4 L526.6,279.3 L527.5,320.8 L528.3,321.8 L529.2,347.5 L530.0,362.5 L530.8,362.5 L531.7,373.1 L532.5,372.8 L533.4,363.0 L534.2,362.5 L535.1,362.7 L535.9,363.0 L536.7,373.4 L537.6,372.8 L538.4,372.6 L539.3,370.3 L540.1,370.0 L541.0,365.6 L541.8,364.0 L542.6,364.0 L543.5,329.6 L544.3,330.6 L545.2,357.0 L546.0,354.2 L546.9,353.9 L547.7,351.6 L548.5,354.2 L549.4,354.4 L550.2,364.6 L551.1,364.0 L551.9,364.0 L552.8,363.8 L553.6,364.3 L554.4,364.3 L555.3,364.3 L556.1,349.0 L557.0,349.0 L557.8,348.7 L558.7,348.7 L559.5,348.2 L560.3,349.3 L561.2,349.0 L562.0,348.7 L562.9,324.9 L563.7,267.4 L564.6,286.8 L565.4,286.6 L566.2,286.6 L567.1,286.3 L567.9,286.3 L568.8,286.6 L569.6,287.1 L570.4,307.3 L571.3,305.5 L572.1,306.5 L573.0,305.5 L573.8,292.5 L574.7,286.8 L575.5,296.4 L576.3,296.7 L577.2,298.2 L578.0,287.1 L578.9,285.5 L579.7,284.5 L580.6,286.8 L581.4,286.6 L582.2,286.8 L583.1,268.9 L583.9,255.5 L584.8,252.1 L585.6,254.4 L586.5,255.2 L587.3,265.3 L588.1,261.7 L589.0,287.1 L589.8,286.6 L590.7,246.9 L591.5,242.5 L592.4,242.5 L593.2,250.0 L594.0,256.8 L594.9,259.4 L595.7,259.1 L596.6,266.4 L597.4,261.7 L598.3,259.9 L599.1,258.8 L599.9,301.1 L600.8,290.7 L601.6,315.1 L602.5,317.1 L603.3,263.5 L604.2,250.3 L605.0,244.8 L605.8,243.3 L606.7,243.0 L607.5,241.7 L608.4,242.3 L609.2,242.0 L610.1,241.7 L610.9,269.7 L611.7,272.6 L612.6,272.6 L613.4,260.1 L614.3,244.8 L615.1,245.4 L616.0,245.4 L616.8,247.2 L617.6,246.9 L618.5,264.0 L619.3,270.2 L620.2,278.3 L621.0,298.0 L621.9,297.7 L622.7,292.5 L623.5,248.0 L624.4,246.9 L625.2,263.0 L626.1,259.1 L626.9,259.1 L627.8,271.8 L628.6,269.7 L629.4,310.4 L630.3,327.5 L631.1,262.2 L632.0,264.5 L632.8,262.5 L633.7,255.0 L634.5,262.2 L635.3,262.2 L636.2,265.6 L637.0,263.2 L637.9,299.8 L638.7,272.6 L639.6,290.7 L640.4,304.4 L641.2,299.5 L642.1,328.0 L642.9,303.4 L643.8,287.3 L644.6,263.0 L645.4,259.6 L646.3,243.6 L647.1,243.3 L648.0,242.8 L648.8,243.0 L649.7,242.3 L650.5,250.3 L651.3,257.5 L652.2,267.6 L653.0,257.3 L653.9,242.5 L654.7,262.5 L655.6,243.0 L656.4,243.0 L657.2,243.3 L658.1,267.4 L658.9,281.6 L659.8,288.1 L660.6,272.3 L661.5,270.2 L662.3,248.7 L663.1,257.0 L664.0,252.6 L664.8,243.0 L665.7,243.0 L666.5,242.0 L667.4,242.3 L668.2,242.3 L669.0,242.3 L669.9,244.8 L670.7,262.2 L671.6,248.0 L672.4,257.8 L673.3,284.2 L674.1,284.0 L674.9,286.6 L675.8,286.6 L676.6,287.9 L677.5,287.3 L678.3,305.7 L679.2,325.7 L680.0,351.9" stroke="#2ca02c" stroke-width="2" fill="none" opacity="0.8"/>
<!-- Solar Generation -->
<path d="M80.0,420.0 L80.8,420.0 L81.7,420.0 L82.5,420.0 L83.4,420.0 L84.2,420.0 L85.1,420.0 L85.9,420.0 L86.7,420.0 L87.6,420.0 L88.4,420.0 L89.3,420.0 L90.1,420.0 L91.0,417.7 L91.8,405.2 L92.6,403.9 L93.5,403.4 L94.3,403.9 L95.2,403.9 L96.0,410.2 L96.9,407.0 L97.7,418.7 L98.5,420.0 L99.4,420.0 L100.2,420.0 L101.1,420.0 L101.9,420.0 L102.8,420.0 L103.6,420.0 L104.4,420.0 L105.3,420.0 L106.1,420.0 L107.0,420.0 L107.8,420.0 L108.7,420.0 L109.5,420.0 L110.3,420.0 L111.2,415.6 L112.0,395.9 L112.9,396.4 L113.7,399.5 L114.6,400.3 L115.4,397.5 L116.2,395.9 L117.1,416.1 L117.9,417.9 L118.8,420.0 L119.6,420.0 L120.4,420.0 L121.3,420.0 L122.1,420.0 L123.0,420.0 L123.8,420.0 L124.7,420.0 L125.5,420.0 L126.3,420.0 L127.2,420.0 L128.0,420.0 L128.9,420.0 L129.7,420.0 L130.6,420.0 L131.4,416.4 L132.2,406.0 L133.1,405.0 L133.9,401.6 L134.8,405.7 L135.6,396.9 L136.5,396.7 L137.3,406.8 L138.1,417.7 L139.0,420.0 L139.8,420.0 L140.7,420.0 L141.5,420.0 L142.4,420.0 L143.2,420.0 L144.0,420.0 L144.9,420.0 L145.7,420.0 L146.6,420.0 L147.4,420.0 L148.3,420.0 L149.1,420.0 L149.9,420.0 L150.8,420.0 L151.6,412.2 L152.5,395.1 L153.3,395.4 L154.2,398.8 L155.0,399.3 L155.8,398.8 L156.7,401.9 L157.5,404.7 L158.4,417.7 L159.2,420.0 L160.1,420.0 L160.9,420.0 L161.7,420.0 L162.6,420.0 L163.4,420.0 L164.3,420.0 L165.1,420.0 L166.0,420.0 L166.8,420.0 L167.6,420.0 L168.5,420.0 L169.3,420.0 L170.2,420.0 L171.0,420.0 L171.9,419.0 L172.7,416.9 L173.5,414.6 L174.4,406.0 L175.2,401.1 L176.1,398.2 L176.9,394.1 L177.8,400.8 L178.6,417.4 L179.4,420.0 L180.3,420.0 L181.1,420.0 L182.0,420.0 L182.8,420.0 L183.7,420.0 L184.5,420.0 L185.3,420.0 L186.2,420.0 L187.0,420.0 L187.9,420.0 L188.7,420.0 L189.6,420.0 L190.4,420.0 L191.2,420.0 L192.1,415.6 L192.9,404.7 L193.8,402.6 L194.6,402.9 L195.4,401.3 L196.3,399.3 L197.1,397.5 L198.0,404.7 L198.8,418.7 L199.7,420.0 L200.5,420.0 L201.3,420.0 L202.2,420.0 L203.0,420.0 L203.9,420.0 L204.7,420.0 L205.6,420.0 L206.4,420.0 L207.2,420.0 L208.1,420.0 L208.9,420.0 L209.8,420.0 L210.6,420.0 L211.5,420.0 L212.3,416.1 L213.1,411.2 L214.0,403.4 L214.8,400.6 L215.7,403.7 L216.5,400.8 L217.4,398.0 L218.2,406.8 L219.0,417.4 L219.9,420.0 L220.7,420.0 L221.6,420.0 L222.4,420.0 L223.3,420.0 L224.1,420.0 L224.9,420.0 L225.8,420.0 L226.6,420.0 L227.5,420.0 L228.3,420.0 L229.2,420.0 L230.0,420.0 L230.8,420.0 L231.7,420.0 L232.5,418.4 L233.4,416.4 L234.2,413.5 L235.1,412.0 L235.9,410.9 L236.7,410.2 L237.6,410.7 L238.4,413.0 L239.3,419.0 L240.1,420.0 L241.0,420.0 L241.8,420.0 L242.6,420.0 L243.5,420.0 L244.3,420.0 L245.2,420.0 L246.0,420.0 L246.9,420.0 L247.7,420.0 L248.5,420.0 L249.4,420.0 L250.2,420.0 L251.1,420.0 L251.9,420.0 L252.8,417.7 L253.6,411.2 L254.4,397.7 L255.3,398.8 L256.1,401.6 L257.0,399.3 L257.8,401.9 L258.7,404.7 L259.5,416.4 L260.3,420.0 L261.2,420.0 L262.0,420.0 L262.9,420.0 L263.7,420.0 L264.6,420.0 L265.4,420.0 L266.2,420.0 L267.1,420.0 L267.9,420.0 L268.8,420.0 L269.6,420.0 L270.4,420.0 L271.3,420.0 L272.1,420.0 L273.0,413.8 L273.8,401.6 L274.7,400.8 L275.5,402.1 L276.3,402.6 L277.2,400.8 L278.0,413.0 L278.9,401.9 L279.7,415.6 L280.6,420.0 L281.4,420.0 L282.2,420.0 L283.1,420.0 L283.9,420.0 L284.8,420.0 L285.6,420.0 L286.5,420.0 L287.3,420.0 L288.1,420.0 L289.0,420.0 L289.8,420.0 L290.7,420.0 L291.5,420.0 L292.4,420.0 L293.2,413.3 L294.0,408.6 L294.9,404.5 L295.7,403.2 L296.6,400.0 L297.4,410.4 L298.3,413.8 L299.1,414.0 L299.9,418.7 L300.8,420.0 L301.6,420.0 L302.5,420.0 L303.3,420.0 L304.2,420.0 L305.0,420.0 L305.8,420.0 L306.7,420.0 L307.5,420.0 L308.4,420.0 L309.2,420.0 L310.1,420.0 L310.9,420.0 L311.7,420.0 L312.6,420.0 L313.4,414.3 L314.3,404.2 L315.1,399.3 L316.0,396.2 L316.8,400.3 L317.6,397.7 L318.5,399.8 L319.3,403.7 L320.2,417.7 L321.0,420.0 L321.9,420.0 L322.7,420.0 L323.5,420.0 L324.4,420.0 L325.2,420.0 L326.1,420.0 L326.9,420.0 L327.8,420.0 L328.6,420.0 L329.4,420.0 L330.3,420.0 L331.1,420.0 L332.0,420.0 L332.8,420.0 L333.7,418.7 L334.5,416.6 L335.3,414.3 L336.2,409.9 L337.0,407.0 L337.9,411.2 L338.7,414.6 L339.6,416.1 L340.4,416.4 L341.2,420.0 L342.1,420.0 L342.9,420.0 L343.8,420.0 L344.6,420.0 L345.4,420.0 L346.3,420.0 L347.1,420.0 L348.0,420.0 L348.8,420.0 L349.7,420.0 L350.5,420.0 L351.3,420.0 L352.2,420.0 L353.0,420.0 L353.9,413.0 L354.7,406.3 L355.6,406.0 L356.4,406.8 L357.2,409.4 L358.1,406.3 L358.9,401.9 L359.8,416.1 L360.6,418.7 L361.5,420.0 L362.3,420.0 L363.1,420.0 L364.0,420.0 L364.8,420.0 L365.7,420.0 L366.5,420.0 L367.4,420.0 L368.2,420.0 L369.0,420.0 L369.9,420.0 L370.7,420.0 L371.6,420.0 L372.4,420.0 L373.3,420.0 L374.1,416.6 L374.9,412.0 L375.8,410.7 L376.6,408.1 L377.5,402.1 L378.3,406.0 L379.2,411.7 L380.0,415.3 L380.8,418.7 L381.7,420.0 L382.5,420.0 L383.4,420.0 L384.2,420.0 L385.1,420.0 L385.9,420.0 L386.7,420.0 L387.6,420.0 L388.4,420.0 L389.3,420.0 L390.1,420.0 L391.0,420.0 L391.8,420.0 L392.6,420.0 L393.5,420.0 L394.3,411.7 L395.2,399.5 L396.0,396.9 L396.9,400.0 L397.7,399.3 L398.5,401.3 L399.4,400.8 L400.2,407.3 L401.1,417.7 L401.9,420.0 L402.8,420.0 L403.6,420.0 L404.4,420.0 L405.3,420.0 L406.1,420.0 L407.0,420.0 L407.8,420.0 L408.7,420.0 L409.5,420.0 L410.3,420.0 L411.2,420.0 L412.0,420.0 L412.9,420.0 L413.7,420.0 L414.6,416.9 L415.4,402.9 L416.2,405.0 L417.1,403.2 L417.9,401.6 L418.8,401.6 L419.6,407.8 L420.4,410.7 L421.3,416.6 L422.1,420.0 L423.0,420.0 L423.8,420.0 L424.7,420.0 L425.5,420.0 L426.3,420.0 L427.2,420.0 L428.0,420.0 L428.9,420.0 L429.7,420.0 L430.6,420.0 L431.4,420.0 L432.2,420.0 L433.1,420.0 L433.9,419.7 L434.8,411.4 L435.6,400.3 L436.5,393.3 L437.3,396.9 L438.1,400.6 L439.0,402.4 L439.8,406.5 L440.7,401.9 L441.5,417.4 L442.4,420.0 L443.2,420.0 L444.0,420.0 L444.9,420.0 L445.7,420.0 L446.6,420.0 L447.4,420.0 L448.3,420.0 L449.1,420.0 L449.9,420.0 L450.8,420.0 L451.6,420.0 L452.5,420.0 L453.3,420.0 L454.2,420.0 L455.0,414.8 L455.8,406.8 L456.7,405.2 L457.5,397.7 L458.4,401.3 L459.2,394.1 L460.1,391.8 L460.9,397.7 L461.7,416.6 L462.6,420.0 L463.4,420.0 L464.3,420.0 L465.1,420.0 L466.0,420.0 L466.8,420.0 L467.6,420.0 L468.5,420.0 L469.3,420.0 L470.2,420.0 L471.0,420.0 L471.9,420.0 L472.7,420.0 L473.5,420.0 L474.4,419.7 L475.2,414.3 L476.1,401.9 L476.9,390.2 L477.8,405.0 L478.6,396.9 L479.4,406.0 L480.3,392.3 L481.1,397.2 L482.0,412.7 L482.8,420.0 L483.7,420.0 L484.5,420.0 L485.3,420.0 L486.2,420.0 L487.0,420.0 L487.9,420.0 L488.7,420.0 L489.6,420.0 L490.4,420.0 L491.2,420.0 L492.1,420.0 L492.9,420.0 L493.8,420.0 L494.6,420.0 L495.4,409.6 L496.3,392.3 L497.1,393.3 L498.0,395.6 L498.8,396.4 L499.7,394.9 L500.5,392.8 L501.3,395.1 L502.2,411.7 L503.0,420.0 L503.9,420.0 L504.7,420.0 L505.6,420.0 L506.4,420.0 L507.2,420.0 L508.1,420.0 L508.9,420.0 L509.8,420.0 L510.6,420.0 L511.5,420.0 L512.3,420.0 L513.1,420.0 L514.0,420.0 L514.8,419.7 L515.7,405.0 L516.5,392.3 L517.4,393.3 L518.2,395.4 L519.0,396.2 L519.9,394.6 L520.7,394.1 L521.6,403.7 L522.4,416.1 L523.3,420.0 L524.1,420.0 L524.9,420.0 L525.8,420.0 L526.6,420.0 L527.5,420.0 L528.3,420.0 L529.2,420.0 L530.0,420.0 L530.8,420.0 L531.7,420.0 L532.5,420.0 L533.4,420.0 L534.2,420.0 L535.1,420.0 L535.9,417.7 L536.7,392.0 L537.6,399.0 L538.4,395.4 L539.3,394.9 L540.1,395.6 L541.0,392.3 L541.8,394.3 L542.6,410.9 L543.5,420.0 L544.3,420.0 L545.2,420.0 L546.0,420.0 L546.9,420.0 L547.7,420.0 L548.5,420.0 L549.4,420.0 L550.2,420.0 L551.1,420.0 L551.9,420.0 L552.8,420.0 L553.6,420.0 L554.4,420.0 L555.3,419.7 L556.1,417.9 L557.0,412.2 L557.8,411.2 L558.7,409.4 L559.5,405.5 L560.3,412.2 L561.2,412.7 L562.0,416.6 L562.9,419.0 L563.7,420.0 L564.6,420.0 L565.4,420.0 L566.2,420.0 L567.1,420.0 L567.9,420.0 L568.8,420.0 L569.6,420.0 L570.4,420.0 L571.3,420.0 L572.1,420.0 L573.0,420.0 L573.8,420.0 L574.7,420.0 L575.5,420.0 L576.3,409.9 L577.2,414.8 L578.0,411.7 L578.9,410.7 L579.7,399.8 L580.6,401.9 L581.4,411.2 L582.2,408.6 L583.1,413.3 L583.9,420.0 L584.8,420.0 L585.6,420.0 L586.5,420.0 L587.3,420.0 L588.1,420.0 L589.0,420.0 L589.8,420.0 L590.7,420.0 L591.5,420.0 L592.4,420.0 L593.2,420.0 L594.0,420.0 L594.9,420.0 L595.7,419.2 L596.6,401.9 L597.4,392.3 L598.3,394.1 L599.1,395.1 L599.9,394.6 L600.8,391.2 L601.6,396.9 L602.5,398.8 L603.3,408.9 L604.2,420.0 L605.0,420.0 L605.8,420.0 L606.7,420.0 L607.5,420.0 L608.4,420.0 L609.2,420.0 L610.1,420.0 L610.9,420.0 L611.7,420.0 L612.6,420.0 L613.4,420.0 L614.3,420.0 L615.1,420.0 L616.0,419.5 L616.8,414.6 L617.6,410.2 L618.5,396.9 L619.3,389.4 L620.2,394.3 L621.0,399.0 L621.9,395.4 L622.7,397.7 L623.5,408.3 L624.4,420.0 L625.2,420.0 L626.1,420.0 L626.9,420.0 L627.8,420.0 L628.6,420.0 L629.4,420.0 L630.3,420.0 L631.1,420.0 L632.0,420.0 L632.8,420.0 L633.7,420.0 L634.5,420.0 L635.3,420.0 L636.2,419.0 L637.0,401.9 L637.9,390.5 L638.7,391.2 L639.6,393.6 L640.4,394.1 L641.2,392.5 L642.1,390.2 L642.9,390.7 L643.8,407.6 L644.6,419.7 L645.4,420.0 L646.3,420.0 L647.1,420.0 L648.0,420.0 L648.8,420.0 L649.7,420.0 L650.5,420.0 L651.3,420.0 L652.2,420.0 L653.0,420.0 L653.9,420.0 L654.7,420.0 L655.6,420.0 L656.4,418.4 L657.2,408.1 L658.1,389.9 L658.9,392.5 L659.8,393.3 L660.6,393.8 L661.5,391.8 L662.3,398.8 L663.1,396.4 L664.0,412.7 L664.8,420.0 L665.7,420.0 L666.5,420.0 L667.4,420.0 L668.2,420.0 L669.0,420.0 L669.9,420.0 L670.7,420.0 L671.6,420.0 L672.4,420.0 L673.3,420.0 L674.1,420.0 L674.9,420.0 L675.8,420.0 L676.6,419.5 L677.5,409.9 L678.3,399.0 L679.2,393.8 L680.0,394.3" stroke="#d62728" stroke-width="2" fill="none" opacity="0.8"/>
<!-- Forecast -->
<path d="M80.0,173.9 L80.8,182.4 L81.7,196.7 L82.5,215.0 L83.4,231.6 L84.2,244.3 L85.1,251.1 L85.9,254.7 L86.7,255.7 L87.6,252.9 L88.4,240.7 L89.3,215.6 L90.1,187.6 L91.0,175.4 L91.8,175.9 L92.6,179.6 L93.5,182.9 L94.3,188.1 L95.2,191.5 L96.0,193.5 L96.9,193.5 L97.7,186.5 L98.5,172.6 L99.4,167.4 L100.2,171.8 L101.1,179.3 L101.9,192.5 L102.8,211.7 L103.6,236.6 L104.4,242.8 L105.3,247.4 L106.1,252.4 L107.0,254.2 L107.8,253.4 L108.7,249.0 L109.5,237.3 L110.3,222.6 L111.2,208.1 L112.0,201.1 L112.9,200.0 L113.7,202.6 L114.6,205.7 L115.4,212.2 L116.2,215.3 L117.1,214.3 L117.9,209.3 L118.8,197.4 L119.6,192.2 L120.4,192.8 L121.3,199.0 L122.1,209.6 L123.0,224.1 L123.8,227.5 L124.7,248.0 L125.5,254.2 L126.3,257.8 L127.2,259.1 L128.0,258.1 L128.9,254.4 L129.7,245.1 L130.6,231.1 L131.4,218.2 L132.2,207.5 L133.1,200.5 L133.9,199.5 L134.8,203.6 L135.6,209.6 L136.5,210.9 L137.3,209.1 L138.1,203.4 L139.0,188.9 L139.8,179.8 L140.7,185.5 L141.5,193.8 L142.4,202.4 L143.2,218.2 L144.0,233.4 L144.9,243.6 L145.7,248.5 L146.6,252.1 L147.4,252.9 L148.3,249.5 L149.1,237.1 L149.9,212.5 L150.8,184.7 L151.6,173.1 L152.5,174.6 L153.3,178.5 L154.2,182.1 L155.0,187.3 L155.8,191.0 L156.7,193.3 L157.5,193.3 L158.4,187.1 L159.2,173.3 L160.1,168.2 L160.9,172.6 L161.7,181.1 L162.6,195.1 L163.4,214.0 L164.3,233.7 L165.1,244.8 L166.0,251.3 L166.8,255.0 L167.6,256.5 L168.5,253.9 L169.3,242.0 L170.2,218.2 L171.0,191.2 L171.9,178.3 L172.7,177.7 L173.5,180.8 L174.4,184.0 L175.2,188.4 L176.1,191.7 L176.9,194.3 L177.8,194.3 L178.6,188.4 L179.4,175.1 L180.3,169.7 L181.1,173.3 L182.0,182.1 L182.8,196.4 L183.7,214.8 L184.5,225.4 L185.3,242.8 L186.2,247.7 L187.0,250.3 L187.9,251.3 L188.7,248.2 L189.6,235.3 L190.4,210.1 L191.2,181.9 L192.1,168.9 L192.9,170.2 L193.8,174.4 L194.6,178.5 L195.4,183.2 L196.3,188.1 L197.1,190.4 L198.0,189.7 L198.8,182.4 L199.7,167.1 L200.5,161.9 L201.3,163.7 L202.2,172.8 L203.0,185.3 L203.9,204.7 L204.7,173.6 L205.6,172.6 L206.4,172.6 L207.2,172.6 L208.1,172.6 L208.9,172.6 L209.8,172.6 L210.6,172.6 L211.5,172.6 L212.3,172.6 L213.1,172.6 L214.0,172.6 L214.8,172.6 L215.7,172.6 L216.5,172.6 L217.4,172.6 L218.2,172.6 L219.0,172.6 L219.9,172.6 L220.7,172.6 L221.6,172.6 L222.4,172.6 L223.3,172.6 L224.1,172.6 L224.9,172.6 L225.8,220.0 L226.6,226.2 L227.5,228.8 L228.3,228.8 L229.2,225.2 L230.0,211.9 L230.8,188.6 L231.7,181.9 L232.5,180.6 L233.4,179.0 L234.2,177.7 L235.1,176.4 L235.9,175.1 L236.7,173.9 L237.6,172.3 L238.4,171.0 L239.3,169.7 L240.1,168.4 L241.0,166.9 L241.8,165.6 L242.6,165.8 L243.5,164.0 L244.3,184.2 L245.2,210.9 L246.0,214.0 L246.9,218.2 L247.7,223.3 L248.5,225.9 L249.4,227.7 L250.2,223.9 L251.1,210.9 L251.9,194.1 L252.8,180.1 L253.6,177.5 L254.4,177.0 L255.3,179.0 L256.1,183.2 L257.0,189.1 L257.8,194.3 L258.7,194.8 L259.5,185.8 L260.3,167.9 L261.2,165.0 L262.0,169.7 L262.9,177.7 L263.7,188.1 L264.6,200.3 L265.4,228.3 L266.2,230.3 L267.1,232.9 L267.9,238.4 L268.8,240.2 L269.6,238.4 L270.4,234.2 L271.3,222.8 L272.1,209.6 L273.0,196.1 L273.8,187.1 L274.7,185.8 L275.5,187.3 L276.3,189.1 L277.2,194.6 L278.0,199.8 L278.9,201.3 L279.7,191.0 L280.6,171.3 L281.4,164.3 L282.2,167.9 L283.1,177.2 L283.9,191.7 L284.8,210.1 L285.6,231.9 L286.5,239.1 L287.3,244.3 L288.1,248.2 L289.0,249.8 L289.8,246.1 L290.7,234.5 L291.5,210.9 L292.4,184.0 L293.2,171.8 L294.0,173.6 L294.9,177.7 L295.7,181.4 L296.6,186.5 L297.4,190.4 L298.3,193.0 L299.1,193.0 L299.9,187.1 L300.8,173.1 L301.6,167.6 L302.5,171.5 L303.3,180.3 L304.2,194.3 L305.0,213.5 L305.8,229.8 L306.7,243.6 L307.5,249.3 L308.4,252.9 L309.2,254.2 L310.1,251.3 L310.9,239.1 L311.7,214.3 L312.6,186.0 L313.4,174.4 L314.3,175.1 L315.1,179.0 L316.0,182.1 L316.8,187.6 L317.6,191.2 L318.5,193.5 L319.3,193.5 L320.2,187.3 L321.0,173.1 L321.9,167.1 L322.7,171.3 L323.5,179.3 L324.4,192.0 L325.2,211.2 L326.1,215.8 L326.9,242.5 L327.8,248.7 L328.6,252.6 L329.4,253.9 L330.3,251.1 L331.1,238.6 L332.0,213.2 L332.8,185.5 L333.7,173.6 L334.5,175.4 L335.3,179.3 L336.2,182.7 L337.0,188.1 L337.9,191.5 L338.7,193.8 L339.6,193.8 L340.4,187.8 L341.2,173.9 L342.1,168.4 L342.9,172.6 L343.8,181.6 L344.6,196.1 L345.4,215.0 L346.3,234.7 L347.1,245.4 L348.0,251.6 L348.8,255.2 L349.7,256.5 L350.5,253.7 L351.3,241.0 L352.2,216.3 L353.0,189.1 L353.9,176.4 L354.7,176.7 L355.6,180.3 L356.4,183.7 L357.2,188.6 L358.1,192.2 L358.9,195.1 L359.8,195.1 L360.6,188.6 L361.5,174.9 L362.3,169.4 L363.1,173.1 L364.0,182.4 L364.8,197.4 L365.7,215.8 L366.5,236.8 L367.4,247.2 L368.2,253.7 L369.0,257.3 L369.9,258.6 L370.7,255.7 L371.6,243.6 L372.4,219.2 L373.3,191.0 L374.1,178.0 L374.9,178.3 L375.8,181.4 L376.6,184.7 L377.5,189.4 L378.3,192.8 L379.2,195.9 L380.0,196.7 L380.8,190.4 L381.7,177.5 L382.5,171.8 L383.4,174.9 L384.2,185.5 L385.1,200.8 L385.9,219.2 L386.7,238.9 L387.6,252.6 L388.4,260.4 L389.3,265.3 L390.1,268.4 L391.0,271.0 L391.8,268.7 L392.6,251.8 L393.5,234.5 L394.3,220.0 L395.2,215.6 L396.0,209.9 L396.9,210.9 L397.7,213.0 L398.5,219.5 L399.4,221.8 L400.2,220.7 L401.1,216.6 L401.9,204.4 L402.8,197.2 L403.6,195.6 L404.4,201.6 L405.3,210.9 L406.1,225.4 L407.0,240.7 L407.8,249.8 L408.7,256.2 L409.5,259.9 L410.3,260.9 L411.2,259.4 L412.0,255.5 L412.9,246.7 L413.7,234.2 L414.6,222.0 L415.4,212.7 L416.2,204.4 L417.1,198.7 L417.9,201.3 L418.8,206.5 L419.6,215.8 L420.4,214.8 L421.3,213.0 L422.1,194.3 L423.0,188.9 L423.8,192.2 L424.7,201.3 L425.5,210.1 L426.3,223.9 L427.2,227.5 L428.0,249.0 L428.9,256.2 L429.7,260.1 L430.6,261.7 L431.4,259.4 L432.2,247.2 L433.1,222.8 L433.9,196.4 L434.8,182.1 L435.6,181.4 L436.5,183.7 L437.3,186.5 L438.1,190.4 L439.0,193.8 L439.8,196.9 L440.7,197.7 L441.5,192.0 L442.4,179.0 L443.2,172.8 L444.0,175.1 L444.9,184.5 L445.7,199.8 L446.6,217.4 L447.4,235.5 L448.3,246.9 L449.1,254.7 L449.9,259.1 L450.8,260.9 L451.6,258.3 L452.5,246.1 L453.3,222.0 L454.2,195.6 L455.0,181.9 L455.8,181.1 L456.7,183.7 L457.5,186.8 L458.4,190.7 L459.2,194.3 L460.1,197.4 L460.9,198.7 L461.7,193.0 L462.6,180.6 L463.4,174.1 L464.3,175.7 L465.1,185.8 L466.0,201.3 L466.8,218.4 L467.6,238.1 L468.5,247.7 L469.3,253.9 L470.2,257.5 L471.0,259.6 L471.9,256.8 L472.7,244.8 L473.5,220.7 L474.4,194.8 L475.2,181.4 L476.1,181.4 L476.9,184.2 L477.8,187.8 L478.6,191.5 L479.4,195.4 L480.3,199.2 L481.1,200.5 L482.0,195.1 L482.8,183.2 L483.7,176.7 L484.5,177.5 L485.3,188.6 L486.2,201.6 L487.0,220.2 L487.9,237.6 L488.7,249.8 L489.6,256.8 L490.4,260.7 L491.2,262.2 L492.1,259.9 L492.9,247.4 L493.8,223.1 L494.6,196.9 L495.4,183.4 L496.3,182.7 L497.1,185.3 L498.0,188.6 L498.8,191.7 L499.7,195.6 L500.5,199.5 L501.3,200.8 L502.2,195.9 L503.0,183.7 L503.9,176.4 L504.7,176.7 L505.6,187.3 L506.4,202.6 L507.2,219.5 L508.1,237.9 L508.9,250.0 L509.8,255.5 L510.6,258.6 L511.5,260.1 L512.3,257.0 L513.1,244.6 L514.0,220.5 L514.8,193.3 L515.7,180.6 L516.5,180.6 L517.4,183.4 L518.2,187.3 L519.0,191.0 L519.9,194.8 L520.7,199.0 L521.6,200.3 L522.4,194.8 L523.3,182.7 L524.1,175.9 L524.9,176.4 L525.8,187.8 L526.6,200.5 L527.5,219.7 L528.3,224.4 L529.2,252.9 L530.0,257.5 L530.8,260.7 L531.7,262.2 L532.5,259.9 L533.4,247.4 L534.2,223.1 L535.1,196.9 L535.9,183.4 L536.7,182.7 L537.6,185.3 L538.4,188.6 L539.3,191.7 L540.1,195.6 L541.0,199.5 L541.8,200.8 L542.6,195.9 L543.5,183.7 L544.3,176.4 L545.2,176.7 L546.0,187.3 L546.9,202.6 L547.7,219.5 L548.5,246.4 L549.4,252.6 L550.2,260.4 L551.1,265.6 L551.9,268.7 L552.8,271.0 L553.6,268.7 L554.4,252.1 L555.3,236.6 L556.1,221.8 L557.0,216.1 L557.8,213.0 L558.7,215.3 L559.5,217.4 L560.3,224.4 L561.2,227.2 L562.0,226.7 L562.9,224.1 L563.7,214.8 L564.6,206.2 L565.4,203.1 L566.2,208.1 L567.1,217.6 L567.9,233.7 L568.8,238.9 L569.6,250.5 L570.4,258.3 L571.3,262.5 L572.1,263.5 L573.0,261.4 L573.8,249.3 L574.7,224.6 L575.5,198.5 L576.3,183.7 L577.2,181.6 L578.0,183.2 L578.9,186.0 L579.7,189.9 L580.6,193.0 L581.4,195.9 L582.2,196.7 L583.1,191.0 L583.9,178.5 L584.8,172.0 L585.6,174.1 L586.5,184.0 L587.3,198.5 L588.1,216.6 L589.0,231.1 L589.8,245.6 L590.7,252.1 L591.5,255.0 L592.4,256.0 L593.2,252.9 L594.0,240.2 L594.9,215.3 L595.7,187.6 L596.6,175.1 L597.4,175.9 L598.3,179.8 L599.1,182.9 L599.9,187.8 L600.8,191.5 L601.6,194.1 L602.5,194.6 L603.3,188.1 L604.2,174.1 L605.0,167.6 L605.8,170.7 L606.7,178.8 L607.5,192.0 L608.4,211.2 L609.2,229.6 L610.1,241.7 L610.9,247.4 L611.7,251.1 L612.6,252.4 L613.4,249.3 L614.3,236.6 L615.1,209.9 L616.0,183.2 L616.8,171.8 L617.6,173.9 L618.5,178.0 L619.3,181.9 L620.2,187.1 L621.0,190.7 L621.9,193.5 L622.7,193.8 L623.5,187.8 L624.4,173.9 L625.2,166.9 L626.1,170.0 L626.9,177.7 L627.8,190.7 L628.6,210.4 L629.4,215.3 L630.3,241.7 L631.1,247.4 L632.0,250.8 L632.8,251.8 L633.7,248.7 L634.5,236.3 L635.3,209.9 L636.2,183.2 L637.0,172.0 L637.9,174.1 L638.7,178.5 L639.6,182.4 L640.4,187.3 L641.2,191.2 L642.1,194.3 L642.9,195.1 L643.8,189.1 L644.6,175.1 L645.4,168.4 L646.3,170.7 L647.1,179.0 L648.0,193.0 L648.8,212.2 L649.7,232.1 L650.5,243.0 L651.3,249.8 L652.2,253.1 L653.0,254.4 L653.9,251.3 L654.7,238.6 L655.6,213.2 L656.4,186.8 L657.2,174.4 L658.1,175.7 L658.9,179.3 L659.8,183.2 L660.6,187.8 L661.5,191.5 L662.3,194.3 L663.1,195.4 L664.0,189.7 L664.8,176.2 L665.7,169.4 L666.5,171.5 L667.4,180.3 L668.2,195.1 L669.0,213.2 L669.9,238.4 L670.7,245.9 L671.6,251.8 L672.4,256.8 L673.3,260.1 L674.1,260.1 L674.9,256.5 L675.8,243.6 L676.6,228.3 L677.5,213.5 L678.3,208.1 L679.2,204.7 L680.0,203.9" stroke="#9467bd" stroke-width="2" fill="none" opacity="0.8"/>
<!-- Total Generation -->
<path d="M80.0,172.8 L80.8,171.8 L81.7,168.7 L82.5,170.7 L83.4,161.7 L84.2,193.0 L85.1,211.9 L85.9,206.2 L86.7,208.3 L87.6,206.8 L88.4,192.0 L89.3,175.1 L90.1,151.1 L91.0,117.9 L91.8,161.9 L92.6,176.4 L93.5,195.6 L94.3,197.7 L95.2,208.3 L96.0,199.5 L96.9,190.2 L97.7,201.6 L98.5,183.4 L99.4,169.4 L100.2,185.5 L101.1,191.0 L101.9,195.9 L102.8,192.8 L103.6,193.0 L104.4,225.9 L105.3,220.0 L106.1,209.3 L107.0,231.1 L107.8,224.9 L108.7,198.5 L109.5,179.3 L110.3,178.3 L111.2,204.7 L112.0,165.6 L112.9,176.2 L113.7,167.6 L114.6,167.1 L115.4,174.6 L116.2,176.4 L117.1,196.9 L117.9,186.8 L118.8,175.1 L119.6,133.7 L120.4,143.0 L121.3,168.4 L122.1,171.5 L123.0,156.0 L123.8,175.7 L124.7,185.0 L125.5,193.8 L126.3,195.1 L127.2,180.6 L128.0,187.3 L128.9,192.2 L129.7,176.2 L130.6,163.7 L131.4,167.4 L132.2,181.1 L133.1,214.0 L133.9,217.1 L134.8,223.3 L135.6,220.5 L136.5,202.4 L137.3,228.0 L138.1,215.8 L139.0,142.2 L139.8,144.1 L140.7,140.2 L141.5,135.8 L142.4,140.2 L143.2,145.4 L144.0,146.1 L144.9,148.5 L145.7,146.1 L146.6,132.7 L147.4,127.5 L148.3,112.2 L149.1,92.5 L149.9,76.7 L150.8,76.4 L151.6,116.3 L152.5,105.7 L153.3,70.5 L154.2,91.7 L155.0,106.2 L155.8,88.6 L156.7,97.9 L157.5,109.3 L158.4,83.9 L159.2,79.3 L160.1,91.2 L160.9,89.1 L161.7,86.8 L162.6,83.9 L163.4,85.8 L164.3,83.4 L165.1,90.2 L166.0,100.0 L166.8,92.0 L167.6,95.3 L168.5,106.7 L169.3,113.7 L170.2,99.2 L171.0,96.4 L171.9,91.7 L172.7,112.2 L173.5,135.8 L174.4,93.0 L175.2,110.1 L176.1,116.3 L176.9,100.8 L177.8,113.0 L178.6,108.6 L179.4,106.5 L180.3,95.1 L181.1,82.6 L182.0,86.0 L182.8,85.0 L183.7,80.8 L184.5,91.7 L185.3,106.2 L186.2,123.8 L187.0,101.6 L187.9,102.9 L188.7,97.4 L189.6,117.9 L190.4,128.8 L191.2,144.1 L192.1,156.0 L192.9,145.4 L193.8,159.9 L194.6,172.3 L195.4,202.4 L196.3,191.2 L197.1,190.2 L198.0,198.7 L198.8,172.0 L199.7,168.4 L200.5,190.4 L201.3,184.5 L202.2,199.2 L203.0,183.7 L203.9,175.7 L204.7,168.7 L205.6,165.3 L206.4,196.4 L207.2,168.9 L208.1,159.9 L208.9,125.7 L209.8,129.0 L210.6,132.9 L211.5,152.9 L212.3,161.9 L213.1,160.4 L214.0,184.0 L214.8,152.3 L215.7,160.4 L216.5,141.7 L217.4,139.9 L218.2,125.9 L219.0,123.8 L219.9,130.6 L220.7,148.2 L221.6,156.0 L222.4,162.7 L223.3,165.3 L224.1,177.5 L224.9,179.6 L225.8,184.0 L226.6,230.6 L227.5,227.2 L228.3,231.6 L229.2,231.9 L230.0,230.6 L230.8,204.9 L231.7,205.5 L232.5,200.5 L233.4,206.2 L234.2,201.3 L235.1,197.7 L235.9,195.1 L236.7,194.1 L237.6,184.0 L238.4,202.1 L239.3,197.2 L240.1,200.5 L241.0,197.9 L241.8,188.4 L242.6,196.1 L243.5,201.3 L244.3,189.7 L245.2,171.8 L246.0,177.7 L246.9,164.5 L247.7,154.4 L248.5,157.0 L249.4,156.5 L250.2,156.5 L251.1,156.5 L251.9,164.3 L252.8,159.3 L253.6,151.8 L254.4,137.6 L255.3,141.5 L256.1,152.3 L257.0,139.4 L257.8,145.4 L258.7,175.7 L259.5,185.0 L260.3,196.9 L261.2,206.8 L262.0,202.9 L262.9,206.5 L263.7,195.4 L264.6,203.1 L265.4,204.4 L266.2,201.1 L267.1,203.1 L267.9,197.7 L268.8,203.4 L269.6,205.5 L270.4,210.6 L271.3,222.0 L272.1,233.4 L273.0,229.8 L273.8,213.0 L274.7,205.7 L275.5,202.4 L276.3,179.0 L277.2,166.6 L278.0,170.2 L278.9,142.8 L279.7,142.5 L280.6,140.4 L281.4,143.5 L282.2,139.4 L283.1,139.4 L283.9,142.5 L284.8,140.9 L285.6,143.3 L286.5,139.9 L287.3,135.0 L288.1,139.9 L289.0,137.6 L289.8,134.7 L290.7,133.9 L291.5,130.6 L292.4,144.3 L293.2,137.3 L294.0,153.6 L294.9,152.3 L295.7,143.3 L296.6,141.5 L297.4,150.0 L298.3,156.5 L299.1,154.4 L299.9,160.6 L300.8,130.1 L301.6,134.5 L302.5,134.2 L303.3,134.2 L304.2,141.7 L305.0,140.7 L305.8,136.8 L306.7,143.3 L307.5,139.6 L308.4,131.6 L309.2,131.1 L310.1,131.9 L310.9,126.7 L311.7,130.3 L312.6,146.9 L313.4,137.3 L314.3,132.9 L315.1,116.8 L316.0,107.3 L316.8,114.0 L317.6,125.7 L318.5,116.6 L319.3,116.3 L320.2,132.7 L321.0,130.1 L321.9,137.6 L322.7,139.6 L323.5,157.5 L324.4,146.4 L325.2,140.9 L326.1,155.5 L326.9,143.0 L327.8,140.2 L328.6,143.5 L329.4,127.7 L330.3,145.6 L331.1,138.6 L332.0,130.6 L332.8,128.8 L333.7,139.4 L334.5,139.6 L335.3,136.0 L336.2,113.0 L337.0,93.3 L337.9,103.4 L338.7,100.5 L339.6,108.3 L340.4,116.3 L341.2,118.7 L342.1,128.2 L342.9,117.4 L343.8,114.8 L344.6,106.5 L345.4,104.7 L346.3,106.0 L347.1,103.9 L348.0,74.9 L348.8,78.2 L349.7,81.4 L350.5,70.7 L351.3,77.7 L352.2,67.6 L353.0,72.0 L353.9,112.7 L354.7,105.7 L355.6,94.8 L356.4,92.0 L357.2,93.5 L358.1,116.3 L358.9,105.2 L359.8,117.6 L360.6,114.5 L361.5,67.9 L362.3,83.7 L363.1,75.4 L364.0,82.9 L364.8,86.8 L365.7,89.1 L366.5,70.2 L367.4,90.7 L368.2,101.3 L369.0,105.2 L369.9,128.0 L370.7,97.9 L371.6,99.7 L372.4,88.3 L373.3,98.5 L374.1,111.1 L374.9,121.5 L375.8,122.5 L376.6,114.5 L377.5,92.8 L378.3,96.1 L379.2,96.9 L380.0,107.8 L380.8,110.6 L381.7,80.3 L382.5,114.8 L383.4,112.4 L384.2,116.6 L385.1,110.4 L385.9,124.6 L386.7,117.9 L387.6,143.0 L388.4,153.9 L389.3,170.0 L390.1,165.8 L391.0,164.3 L391.8,162.2 L392.6,161.9 L393.5,123.1 L394.3,123.3 L395.2,176.7 L396.0,170.5 L396.9,162.5 L397.7,162.5 L398.5,174.9 L399.4,159.3 L400.2,168.4 L401.1,149.5 L401.9,107.3 L402.8,160.1 L403.6,152.6 L404.4,140.9 L405.3,146.1 L406.1,147.2 L407.0,120.7 L407.8,120.7 L408.7,149.0 L409.5,143.8 L410.3,129.8 L411.2,137.6 L412.0,136.5 L412.9,132.4 L413.7,128.8 L414.6,159.6 L415.4,172.8 L416.2,160.6 L417.1,171.0 L417.9,192.2 L418.8,199.2 L419.6,211.9 L420.4,191.0 L421.3,160.4 L422.1,157.8 L423.0,155.7 L423.8,146.6 L424.7,133.7 L425.5,116.3 L426.3,118.9 L427.2,124.1 L428.0,134.7 L428.9,186.0 L429.7,190.4 L430.6,191.2 L431.4,186.5 L432.2,164.3 L433.1,146.1 L433.9,130.3 L434.8,120.5 L435.6,135.8 L436.5,138.6 L437.3,134.7 L438.1,144.6 L439.0,146.6 L439.8,144.8 L440.7,137.8 L441.5,148.5 L442.4,110.4 L443.2,88.6 L444.0,82.6 L444.9,97.9 L445.7,109.6 L446.6,118.1 L447.4,121.0 L448.3,119.4 L449.1,112.2 L449.9,136.8 L450.8,151.6 L451.6,140.9 L452.5,131.4 L453.3,128.5 L454.2,116.8 L455.0,170.0 L455.8,155.7 L456.7,151.6 L457.5,147.7 L458.4,158.6 L459.2,187.8 L460.1,190.4 L460.9,195.6 L461.7,208.1 L462.6,168.4 L463.4,174.1 L464.3,179.6 L465.1,177.7 L466.0,174.4 L466.8,161.2 L467.6,151.3 L468.5,145.9 L469.3,122.8 L470.2,99.2 L471.0,82.4 L471.9,94.6 L472.7,87.1 L473.5,86.5 L474.4,91.7 L475.2,128.2 L476.1,103.6 L476.9,84.5 L477.8,98.7 L478.6,121.3 L479.4,136.8 L480.3,137.1 L481.1,147.2 L482.0,114.0 L482.8,87.8 L483.7,80.6 L484.5,102.9 L485.3,91.7 L486.2,86.0 L487.0,99.0 L487.9,131.6 L488.7,130.3 L489.6,139.4 L490.4,135.8 L491.2,165.0 L492.1,163.2 L492.9,148.5 L493.8,89.9 L494.6,90.4 L495.4,131.1 L496.3,137.8 L497.1,136.0 L498.0,141.7 L498.8,148.5 L499.7,171.0 L500.5,166.3 L501.3,149.5 L502.2,172.8 L503.0,181.4 L503.9,189.7 L504.7,189.7 L505.6,182.7 L506.4,182.4 L507.2,188.4 L508.1,194.8 L508.9,203.9 L509.8,196.4 L510.6,197.2 L511.5,194.8 L512.3,192.5 L513.1,195.1 L514.0,195.6 L514.8,189.7 L515.7,175.7 L516.5,171.5 L517.4,175.9 L518.2,178.0 L519.0,171.3 L519.9,173.6 L520.7,170.7 L521.6,179.6 L522.4,193.5 L523.3,149.5 L524.1,126.7 L524.9,125.7 L525.8,110.1 L526.6,122.0 L527.5,154.9 L528.3,150.3 L529.2,180.3 L530.0,190.4 L530.8,201.6 L531.7,212.5 L532.5,216.1 L533.4,206.0 L534.2,205.5 L535.1,204.2 L535.9,198.7 L536.7,178.3 L537.6,175.9 L538.4,169.2 L539.3,165.3 L540.1,167.6 L541.0,159.9 L541.8,158.3 L542.6,178.0 L543.5,171.5 L544.3,176.7 L545.2,220.0 L546.0,213.8 L546.9,217.1 L547.7,207.8 L548.5,212.7 L549.4,183.2 L550.2,200.5 L551.1,192.8 L551.9,205.2 L552.8,193.0 L553.6,188.9 L554.4,199.5 L555.3,198.5 L556.1,179.3 L557.0,173.6 L557.8,172.8 L558.7,159.9 L559.5,152.6 L560.3,167.6 L561.2,173.1 L562.0,191.0 L562.9,178.3 L563.7,141.7 L564.6,171.5 L565.4,183.4 L566.2,191.7 L567.1,197.2 L567.9,196.7 L568.8,203.1 L569.6,206.0 L570.4,228.3 L571.3,220.5 L572.1,218.4 L573.0,213.5 L573.8,199.2 L574.7,188.6 L575.5,199.2 L576.3,197.9 L577.2,211.2 L578.0,192.0 L578.9,192.5 L579.7,178.0 L580.6,178.8 L581.4,196.9 L582.2,197.2 L583.1,179.0 L583.9,175.1 L584.8,172.0 L585.6,178.5 L586.5,172.8 L587.3,159.9 L588.1,150.5 L589.0,165.3 L589.8,146.4 L590.7,103.4 L591.5,93.5 L592.4,110.4 L593.2,96.4 L594.0,100.3 L594.9,116.1 L595.7,108.0 L596.6,111.7 L597.4,113.0 L598.3,88.1 L599.1,96.9 L599.9,130.8 L600.8,145.6 L601.6,184.2 L602.5,202.1 L603.3,165.3 L604.2,172.6 L605.0,171.0 L605.8,167.4 L606.7,165.6 L607.5,164.3 L608.4,166.3 L609.2,163.5 L610.1,153.6 L610.9,185.5 L611.7,189.9 L612.6,189.4 L613.4,170.5 L614.3,160.4 L615.1,157.8 L616.0,152.9 L616.8,145.9 L617.6,131.9 L618.5,133.4 L619.3,142.0 L620.2,127.5 L621.0,144.1 L621.9,139.6 L622.7,128.8 L623.5,99.7 L624.4,102.3 L625.2,111.1 L626.1,118.1 L626.9,134.7 L627.8,147.2 L628.6,139.6 L629.4,172.0 L630.3,182.7 L631.1,122.0 L632.0,108.3 L632.8,97.2 L633.7,82.6 L634.5,89.6 L635.3,91.2 L636.2,91.7 L637.0,73.3 L637.9,101.6 L638.7,80.8 L639.6,102.1 L640.4,117.6 L641.2,108.8 L642.1,131.1 L642.9,102.6 L643.8,106.5 L644.6,96.1 L645.4,92.2 L646.3,74.1 L647.1,77.7 L648.0,73.1 L648.8,72.8 L649.7,74.4 L650.5,86.8 L651.3,92.8 L652.2,105.4 L653.0,96.9 L653.9,82.1 L654.7,98.2 L655.6,72.3 L656.4,79.8 L657.2,67.9 L658.1,95.9 L658.9,119.4 L659.8,126.7 L660.6,113.2 L661.5,106.5 L662.3,94.0 L663.1,105.2 L664.0,125.1 L664.8,124.6 L665.7,123.1 L666.5,131.9 L667.4,126.4 L668.2,128.5 L669.0,129.5 L669.9,129.8 L670.7,146.4 L671.6,122.5 L672.4,93.5 L673.3,124.1 L674.1,124.6 L674.9,137.1 L675.8,139.1 L676.6,152.1 L677.5,142.0 L678.3,116.6 L679.2,155.7 L680.0,183.7" stroke="#8c564b" stroke-width="2" fill="none" opacity="0.8"/>
<!-- Forecast Difference -->
<path d="M80.0,420.0 L80.8,420.0 L81.7,420.0 L82.5,420.0 L83.4,420.0 L84.2,420.0 L85.1,420.0 L85.9,420.0 L86.7,420.0 L87.6,420.0 L88.4,420.0 L89.3,420.0 L90.1,420.0 L91.0,420.0 L91.8,420.0 L92.6,420.0 L93.5,420.0 L94.3,420.0 L95.2,420.0 L96.0,420.0 L96.9,420.0 L97.7,420.0 L98.5,420.0 L99.4,420.0 L100.2,420.0 L101.1,420.0 L101.9,420.0 L102.8,420.0 L103.6,420.0 L104.4,420.0 L105.3,420.0 L106.1,420.0 L107.0,420.0 L107.8,420.0 L108.7,420.0 L109.5,420.0 L110.3,420.0 L111.2,420.0 L112.0,420.0 L112.9,420.0 L113.7,420.0 L114.6,420.0 L115.4,420.0 L116.2,420.0 L117.1,420.0 L117.9,420.0 L118.8,420.0 L119.6,420.0 L120.4,420.0 L121.3,420.0 L122.1,420.0 L123.0,420.0 L123.8,420.0 L124.7,420.0 L125.5,420.0 L126.3,420.0 L127.2,420.0 L128.0,420.0 L128.9,420.0 L129.7,420.0 L130.6,420.0 L131.4,420.0 L132.2,420.0 L133.1,420.0 L133.9,420.0 L134.8,420.0 L135.6,420.0 L136.5,420.0 L137.3,420.0 L138.1,420.0 L139.0,420.0 L139.8,420.0 L140.7,420.0 L141.5,420.0 L142.4,420.0 L143.2,420.0 L144.0,420.0 L144.9,420.0 L145.7,420.0 L146.6,420.0 L147.4,420.0 L148.3,420.0 L149.1,420.0 L149.9,420.0 L150.8,420.0 L151.6,420.0 L152.5,420.0 L153.3,420.0 L154.2,420.0 L155.0,420.0 L155.8,420.0 L156.7,420.0 L157.5,420.0 L158.4,420.0 L159.2,420.0 L160.1,420.0 L160.9,420.0 L161.7,420.0 L162.6,420.0 L163.4,420.0 L164.3,420.0 L165.1,420.0 L166.0,420.0 L166.8,420.0 L167.6,420.0 L168.5,420.0 L169.3,420.0 L170.2,420.0 L171.0,420.0 L171.9,420.0 L172.7,420.0 L173.5,420.0 L174.4,420.0 L175.2,420.0 L176.1,420.0 L176.9,420.0 L177.8,420.0 L178.6,420.0 L179.4,420.0 L180.3,420.0 L181.1,420.0 L182.0,420.0 L182.8,420.0 L183.7,420.0 L184.5,420.0 L185.3,420.0 L186.2,420.0 L187.0,420.0 L187.9,420.0 L188.7,420.0 L189.6,420.0 L190.4,420.0 L191.2,420.0 L192.1,420.0 L192.9,420.0 L193.8,420.0 L194.6,420.0 L195.4,420.0 L196.3,420.0 L197.1,420.0 L198.0,420.0 L198.8,420.0 L199.7,420.0 L200.5,420.0 L201.3,420.0 L202.2,420.0 L203.0,420.0 L203.9,420.0 L204.7,420.0 L205.6,420.0 L206.4,420.0 L207.2,420.0 L208.1,420.0 L208.9,420.0 L209.8,420.0 L210.6,420.0 L211.5,420.0 L212.3,420.0 L213.1,420.0 L214.0,420.0 L214.8,420.0 L215.7,420.0 L216.5,420.0 L217.4,420.0 L218.2,420.0 L219.0,420.0 L219.9,420.0 L220.7,420.0 L221.6,420.0 L222.4,420.0 L223.3,420.0 L224.1,420.0 L224.9,420.0 L225.8,420.0 L226.6,420.0 L227.5,420.0 L228.3,420.0 L229.2,420.0 L230.0,420.0 L230.8,420.0 L231.7,420.0 L232.5,420.0 L233.4,420.0 L234.2,420.0 L235.1,420.0 L235.9,420.0 L236.7,420.0 L237.6,420.0 L238.4,420.0 L239.3,420.0 L240.1,420.0 L241.0,420.0 L241.8,420.0 L242.6,420.0 L243.5,420.0 L244.3,420.0 L245.2,420.0 L246.0,420.0 L246.9,420.0 L247.7,420.0 L248.5,420.0 L249.4,420.0 L250.2,420.0 L251.1,420.0 L251.9,420.0 L252.8,420.0 L253.6,420.0 L254.4,420.0 L255.3,420.0 L256.1,420.0 L257.0,420.0 L257.8,420.0 L258.7,420.0 L259.5,420.0 L260.3,420.0 L261.2,420.0 L262.0,420.0 L262.9,420.0 L263.7,420.0 L264.6,420.0 L265.4,420.0 L266.2,420.0 L267.1,420.0 L267.9,420.0 L268.8,420.0 L269.6,420.0 L270.4,420.0 L271.3,420.0 L272.1,420.0 L273.0,420.0 L273.8,420.0 L274.7,420.0 L275.5,420.0 L276.3,420.0 L277.2,420.0 L278.0,420.0 L278.9,420.0 L279.7,420.0 L280.6,420.0 L281.4,420.0 L282.2,420.0 L283.1,420.0 L283.9,420.0 L284.8,420.0 L285.6,420.0 L286.5,420.0 L287.3,420.0 L288.1,420.0 L289.0,420.0 L289.8,420.0 L290.7,420.0 L291.5,420.0 L292.4,420.0 L293.2,420.0 L294.0,420.0 L294.9,420.0 L295.7,420.0 L296.6,420.0 L297.4,420.0 L298.3,420.0 L299.1,420.0 L299.9,420.0 L300.8,420.0 L301.6,420.0 L302.5,420.0 L303.3,420.0 L304.2,420.0 L305.0,420.0 L305.8,420.0 L306.7,420.0 L307.5,420.0 L308.4,420.0 L309.2,420.0 L310.1,420.0 L310.9,420.0 L311.7,420.0 L312.6,420.0 L313.4,420.0 L314.3,420.0 L315.1,420.0 L316.0,420.0 L316.8,420.0 L317.6,420.0 L318.5,420.0 L319.3,420.0 L320.2,420.0 L321.0,420.0 L321.9,420.0 L322.7,420.0 L323.5,420.0 L324.4,420.0 L325.2,420.0 L326.1,420.0 L326.9,420.0 L327.8,420.0 L328.6,420.0 L329.4,420.0 L330.3,420.0 L331.1,420.0 L332.0,420.0 L332.8,420.0 L333.7,420.0 L334.5,420.0 L335.3,420.0 L336.2,420.0 L337.0,420.0 L337.9,420.0 L338.7,420.0 L339.6,420.0 L340.4,420.0 L341.2,420.0 L342.1,420.0 L342.9,420.0 L343.8,420.0 L344.6,420.0 L345.4,420.0 L346.3,420.0 L347.1,420.0 L348.0,420.0 L348.8,420.0 L349.7,420.0 L350.5,420.0 L351.3,420.0 L352.2,420.0 L353.0,420.0 L353.9,420.0 L354.7,420.0 L355.6,420.0 L356.4,420.0 L357.2,420.0 L358.1,420.0 L358.9,420.0 L359.8,420.0 L360.6,420.0 L361.5,420.0 L362.3,420.0 L363.1,420.0 L364.0,420.0 L364.8,420.0 L365.7,420.0 L366.5,420.0 L367.4,420.0 L368.2,420.0 L369.0,420.0 L369.9,420.0 L370.7,420.0 L371.6,420.0 L372.4,420.0 L373.3,420.0 L374.1,420.0 L374.9,420.0 L375.8,420.0 L376.6,420.0 L377.5,420.0 L378.3,420.0 L379.2,420.0 L380.0,420.0 L380.8,420.0 L381.7,420.0 L382.5,420.0 L383.4,420.0 L384.2,420.0 L385.1,420.0 L385.9,420.0 L386.7,420.0 L387.6,420.0 L388.4,420.0 L389.3,420.0 L390.1,420.0 L391.0,420.0 L391.8,420.0 L392.6,420.0 L393.5,420.0 L394.3,420.0 L395.2,420.0 L396.0,420.0 L396.9,420.0 L397.7,420.0 L398.5,420.0 L399.4,420.0 L400.2,420.0 L401.1,420.0 L401.9,420.0 L402.8,420.0 L403.6,420.0 L404.4,420.0 L405.3,420.0 L406.1,420.0 L407.0,420.0 L407.8,420.0 L408.7,420.0 L409.5,420.0 L410.3,420.0 L411.2,420.0 L412.0,420.0 L412.9,420.0 L413.7,420.0 L414.6,420.0 L415.4,420.0 L416.2,420.0 L417.1,420.0 L417.9,420.0 L418.8,420.0 L419.6,420.0 L420.4,420.0 L421.3,420.0 L422.1,420.0 L423.0,420.0 L423.8,420.0 L424.7,420.0 L425.5,420.0 L426.3,420.0 L427.2,420.0 L428.0,420.0 L428.9,420.0 L429.7,420.0 L430.6,420.0 L431.4,420.0 L432.2,420.0 L433.1,420.0 L433.9,420.0 L434.8,420.0 L435.6,420.0 L436.5,420.0 L437.3,420.0 L438.1,420.0 L439.0,420.0 L439.8,420.0 L440.7,420.0 L441.5,420.0 L442.4,420.0 L443.2,420.0 L444.0,420.0 L444.9,420.0 L445.7,420.0 L446.6,420.0 L447.4,420.0 L448.3,420.0 L449.1,420.0 L449.9,420.0 L450.8,420.0 L451.6,420.0 L452.5,420.0 L453.3,420.0 L454.2,420.0 L455.0,420.0 L455.8,420.0 L456.7,420.0 L457.5,420.0 L458.4,420.0 L459.2,420.0 L460.1,420.0 L460.9,420.0 L461.7,420.0 L462.6,420.0 L463.4,420.0 L464.3,420.0 L465.1,420.0 L466.0,420.0 L466.8,420.0 L467.6,420.0 L468.5,420.0 L469.3,420.0 L470.2,420.0 L471.0,420.0 L471.9,420.0 L472.7,420.0 L473.5,420.0 L474.4,420.0 L475.2,420.0 L476.1,420.0 L476.9,420.0 L477.8,420.0 L478.6,420.0 L479.4,420.0 L480.3,420.0 L481.1,420.0 L482.0,420.0 L482.8,420.0 L483.7,420.0 L484.5,420.0 L485.3,420.0 L486.2,420.0 L487.0,420.0 L487.9,420.0 L488.7,420.0 L489.6,420.0 L490.4,420.0 L491.2,420.0 L492.1,420.0 L492.9,420.0 L493.8,420.0 L494.6,420.0 L495.4,420.0 L496.3,420.0 L497.1,420.0 L498.0,420.0 L498.8,420.0 L499.7,420.0 L500.5,420.0 L501.3,420.0 L502.2,420.0 L503.0,420.0 L503.9,420.0 L504.7,420.0 L505.6,420.0 L506.4,420.0 L507.2,420.0 L508.1,420.0 L508.9,420.0 L509.8,420.0 L510.6,420.0 L511.5,420.0 L512.3,420.0 L513.1,420.0 L514.0,420.0 L514.8,420.0 L515.7,420.0 L516.5,420.0 L517.4,420.0 L518.2,420.0 L519.0,420.0 L519.9,420.0 L520.7,420.0 L521.6,420.0 L522.4,420.0 L523.3,420.0 L524.1,420.0 L524.9,420.0 L525.8,420.0 L526.6,420.0 L527.5,420.0 L528.3,420.0 L529.2,420.0 L530.0,420.0 L530.8,420.0 L531.7,420.0 L532.5,420.0 L533.4,420.0 L534.2,420.0 L535.1,420.0 L535.9,420.0 L536.7,420.0 L537.6,420.0 L538.4,420.0 L539.3,420.0 L540.1,420.0 L541.0,420.0 L541.8,420.0 L542.6,420.0 L543.5,420.0 L544.3,420.0 L545.2,420.0 L546.0,420.0 L546.9,420.0 L547.7,420.0 L548.5,420.0 L549.4,420.0 L550.2,420.0 L551.1,420.0 L551.9,420.0 L552.8,420.0 L553.6,420.0 L554.4,420.0 L555.3,420.0 L556.1,420.0 L557.0,420.0 L557.8,420.0 L558.7,420.0 L559.5,420.0 L560.3,420.0 L561.2,420.0 L562.0,420.0 L562.9,420.0 L563.7,420.0 L564.6,420.0 L565.4,420.0 L566.2,420.0 L567.1,420.0 L567.9,420.0 L568.8,420.0 L569.6,420.0 L570.4,420.0 L571.3,420.0 L572.1,420.0 L573.0,420.0 L573.8,420.0 L574.7,420.0 L575.5,420.0 L576.3,420.0 L577.2,420.0 L578.0,420.0 L578.9,420.0 L579.7,420.0 L580.6,420.0 L581.4,420.0 L582.2,420.0 L583.1,420.0 L583.9,420.0 L584.8,420.0 L585.6,420.0 L586.5,420.0 L587.3,420.0 L588.1,420.0 L589.0,420.0 L589.8,420.0 L590.7,420.0 L591.5,420.0 L592.4,420.0 L593.2,420.0 L594.0,420.0 L594.9,420.0 L595.7,420.0 L596.6,420.0 L597.4,420.0 L598.3,420.0 L599.1,420.0 L599.9,420.0 L600.8,420.0 L601.6,420.0 L602.5,420.0 L603.3,420.0 L604.2,420.0 L605.0,420.0 L605.8,420.0 L606.7,420.0 L607.5,420.0 L608.4,420.0 L609.2,420.0 L610.1,420.0 L610.9,420.0 L611.7,420.0 L612.6,420.0 L613.4,420.0 L614.3,420.0 L615.1,420.0 L616.0,420.0 L616.8,420.0 L617.6,420.0 L618.5,420.0 L619.3,420.0 L620.2,420.0 L621.0,420.0 L621.9,420.0 L622.7,420.0 L623.5,420.0 L624.4,420.0 L625.2,420.0 L626.1,420.0 L626.9,420.0 L627.8,420.0 L628.6,420.0 L629.4,420.0 L630.3,420.0 L631.1,420.0 L632.0,420.0 L632.8,420.0 L633.7,420.0 L634.5,420.0 L635.3,420.0 L636.2,420.0 L637.0,420.0 L637.9,420.0 L638.7,420.0 L639.6,420.0 L640.4,420.0 L641.2,420.0 L642.1,420.0 L642.9,420.0 L643.8,420.0 L644.6,420.0 L645.4,420.0 L646.3,420.0 L647.1,420.0 L648.0,420.0 L648.8,420.0 L649.7,420.0 L650.5,420.0 L651.3,420.0 L652.2,420.0 L653.0,420.0 L653.9,420.0 L654.7,420.0 L655.6,420.0 L656.4,420.0 L657.2,420.0 L658.1,420.0 L658.9,420.0 L659.8,420.0 L660.6,420.0 L661.5,420.0 L662.3,420.0 L663.1,420.0 L664.0,420.0 L664.8,420.0 L665.7,420.0 L666.5,420.0 L667.4,420.0 L668.2,420.0 L669.0,420.0 L669.9,420.0 L670.7,420.0 L671.6,420.0 L672.4,420.0 L673.3,420.0 L674.1,420.0 L674.9,420.0 L675.8,420.0 L676.6,420.0 L677.5,420.0 L678.3,420.0 L679.2,420.0 L680.0,420.0" stroke="#e377c2" stroke-width="2" fill="none" opacity="0.8"/>

<!-- Legend -->
<line x1="690" y1="70" x2="705" y2="70" stroke="#1f77b4" stroke-width="3"/>
<text x="710" y="74" class="legend">Wind Generation</text>
<line x1="690" y1="88" x2="705" y2="88" stroke="#ff7f0e" stroke-width="3"/>
<text x="710" y="92" class="legend">Hydro Generation</text>
<line x1="690" y1="106" x2="705" y2="106" stroke="#2ca02c" stroke-width="3"/>
<text x="710" y="110" class="legend">Thermal Generation</text>
<line x1="690" y1="124" x2="705" y2="124" stroke="#d62728" stroke-width="3"/>
<text x="710" y="128" class="legend">Solar Generation</text>
<line x1="690" y1="142" x2="705" y2="142" stroke="#9467bd" stroke-width="3"/>
<text x="710" y="146" class="legend">Forecast</text>
<line x1="690" y1="160" x2="705" y2="160" stroke="#8c564b" stroke-width="3"/>
<text x="710" y="164" class="legend">Total Generation</text>
<line x1="690" y1="178" x2="705" y2="178" stroke="#e377c2" stroke-width="3"/>
<text x="710" y="182" class="legend">Forecast Difference</text>

<!-- Date range -->
<text x="80" y="495" class="legend">Range: 01/15 - 02/14/2026 (713 records)</text>
</svg>