<?xml version="1.0" encoding="UTF-8"?>
<svg width="800" height="500" xmlns="http://www.w3.org/2000/svg">
<style>
.axis-line { stroke: #333; stroke-width: 1; }
.grid-line { stroke: #ddd; stroke-width: 0.5; }
.title { font: 16px Arial; text-anchor: middle; fill: #333; }
.axis-label { font: 12px Arial; text-anchor: middle; fill: #666; }
.legend { font: 10px Arial; fill: #333; }
</style>

<!-- Title -->
<text x="400.0" y="25" class="title">Northwestern Energy Generation Data - Past 30 Days</text>

<!-- Plot area background -->
<rect x="80" y="50" width="600" height="370" fill="white" stroke="#ddd"/>

<!-- Y-axis -->
<line x1="80" y1="50" x2="80" y2="420" class="axis-line"/>
<text x="30" y="235.0" class="axis-label" transform="rotate(-90, 30, 235.0)">Generation (MW)</text>

<!-- X-axis -->
<line x1="80" y1="420" x2="680" y2="420" class="axis-line"/>
<text x="380.0" y="480" class="axis-label">Time</text>
<line x1="80" y1="420.0" x2="680" y2="420.0" class="grid-line"/>
<text x="70" y="425.0" class="legend" text-anchor="end">0</text>
<line x1="80" y1="327.5" x2="680" y2="327.5" class="grid-line"/>
<text x="70" y="332.5" class="legend" text-anchor="end">318</text>
<line x1="80" y1="235.0" x2="680" y2="235.0" class="grid-line"/>
<text x="70" y="240.0" class="legend" text-anchor="end">636</text>
<line x1="80" y1="142.5" x2="680" y2="142.5" class="grid-line"/>
<text x="70" y="147.5" class="legend" text-anchor="end">954</text>
<line x1="80" y1="50.0" x2="680" y2="50.0" class="grid-line"/>
<text x="70" y="55.0" class="legend" text-anchor="end">1273</text>
<!-- Wind Generation -->
<path d="M80.0,404.0 L80.8,402.0 L81.7,389.5 L82.5,391.5 L83.4,383.4 L84.2,387.4 L85.0,386.3 L85.9,385.4 L86.7,390.6 L87.6,396.7 L88.4,371.4 L89.3,379.0 L90.1,396.2 L90.9,418.0 L91.8,406.6 L92.6,404.6 L93.5,411.6 L94.3,416.8 L95.1,420.0 L96.0,418.0 L96.8,411.3 L97.7,409.2 L98.5,405.2 L99.4,406.3 L100.2,402.3 L101.0,396.2 L101.9,390.3 L102.7,401.4 L103.6,374.1 L104.4,382.5 L105.2,403.1 L106.1,375.2 L106.9,396.7 L107.8,404.0 L108.6,379.9 L109.5,374.9 L110.3,371.7 L111.1,389.8 L112.0,390.1 L112.8,397.0 L113.7,411.3 L114.5,419.4 L115.3,419.4 L116.2,419.1 L117.0,418.0 L117.9,418.5 L118.7,410.4 L119.6,400.2 L120.4,386.0 L121.2,395.3 L122.1,361.9 L122.9,369.4 L123.8,344.4 L124.6,359.5 L125.4,367.4 L126.3,359.5 L127.1,345.0 L128.0,336.8 L128.8,353.1 L129.6,357.8 L130.5,372.9 L131.3,391.2 L132.2,386.9 L133.0,403.1 L133.9,417.4 L134.7,414.5 L135.5,409.8 L136.4,409.2 L137.2,402.0 L138.1,395.0 L138.9,392.7 L139.7,385.4 L140.6,384.2 L141.4,386.6 L142.3,363.9 L143.1,353.1 L144.0,343.8 L144.8,335.1 L145.6,347.9 L146.5,363.6 L147.3,362.7 L148.2,354.9 L149.0,340.0 L149.8,334.8 L150.7,336.3 L151.5,334.5 L152.4,330.7 L153.2,355.2 L154.1,354.9 L154.9,354.9 L155.7,355.7 L156.6,356.6 L157.4,351.7 L158.3,354.3 L159.1,356.0 L159.9,357.5 L160.8,360.1 L161.6,321.7 L162.5,323.5 L163.3,328.4 L164.2,337.1 L165.0,360.7 L165.8,349.3 L166.7,350.8 L167.5,354.9 L168.4,354.3 L169.2,354.9 L170.0,353.4 L170.9,363.6 L171.7,375.5 L172.6,374.6 L173.4,370.6 L174.2,360.1 L175.1,355.7 L175.9,335.1 L176.8,330.7 L177.6,329.6 L178.5,328.1 L179.3,321.4 L180.1,343.0 L181.0,329.0 L181.8,334.2 L182.7,327.5 L183.5,358.1 L184.3,339.8 L185.2,353.1 L186.0,356.0 L186.9,374.9 L187.7,370.0 L188.6,370.6 L189.4,378.4 L190.2,383.4 L191.1,388.6 L191.9,382.8 L192.8,392.4 L193.6,396.2 L194.4,402.6 L195.3,404.6 L196.1,386.6 L197.0,384.8 L197.8,379.0 L198.7,375.2 L199.5,368.2 L200.3,375.2 L201.2,383.7 L202.0,368.2 L202.9,362.4 L203.7,378.7 L204.5,387.1 L205.4,392.7 L206.2,390.3 L207.1,395.6 L207.9,404.9 L208.8,407.5 L209.6,410.4 L210.4,407.5 L211.3,401.4 L212.1,405.5 L213.0,404.6 L213.8,410.7 L214.6,415.1 L215.5,418.5 L216.3,420.0 L217.2,420.0 L218.0,418.5 L218.8,418.0 L219.7,416.5 L220.5,413.9 L221.4,413.3 L222.2,409.8 L223.1,399.6 L223.9,380.7 L224.7,383.4 L225.6,386.9 L226.4,396.4 L227.3,398.5 L228.1,406.0 L228.9,406.9 L229.8,416.5 L230.6,417.1 L231.5,416.2 L232.3,406.0 L233.2,397.6 L234.0,396.4 L234.8,400.8 L235.7,393.0 L236.5,376.4 L237.4,357.2 L238.2,350.8 L239.0,341.8 L239.9,346.2 L240.7,344.1 L241.6,350.8 L242.4,347.9 L243.3,351.1 L244.1,365.0 L244.9,372.3 L245.8,382.8 L246.6,392.4 L247.5,408.4 L248.3,418.0 L249.1,417.7 L250.0,419.4 L250.8,419.4 L251.7,418.8 L252.5,416.2 L253.4,415.3 L254.2,415.3 L255.0,412.7 L255.9,411.6 L256.7,393.5 L257.6,383.7 L258.4,393.3 L259.2,390.9 L260.1,388.3 L260.9,390.3 L261.8,399.6 L262.6,406.0 L263.5,408.1 L264.3,408.1 L265.1,402.6 L266.0,370.6 L266.8,389.5 L267.7,394.1 L268.5,379.9 L269.3,371.4 L270.2,370.6 L271.0,375.5 L271.9,372.9 L272.7,361.9 L273.5,367.7 L274.4,381.3 L275.2,397.3 L276.1,387.4 L276.9,390.1 L277.8,392.7 L278.6,409.0 L279.4,415.9 L280.3,414.2 L281.1,395.3 L282.0,386.6 L282.8,390.6 L283.6,395.6 L284.5,367.7 L285.3,379.0 L286.2,372.0 L287.0,349.6 L287.9,356.0 L288.7,370.6 L289.5,358.9 L290.4,395.0 L291.2,402.6 L292.1,379.9 L292.9,378.1 L293.7,375.5 L294.6,366.8 L295.4,410.1 L296.3,406.3 L297.1,404.0 L298.0,408.1 L298.8,393.3 L299.6,389.5 L300.5,366.5 L301.3,356.3 L302.2,357.5 L303.0,328.4 L303.8,331.9 L304.7,334.5 L305.5,316.2 L306.4,311.8 L307.2,322.6 L308.1,322.0 L308.9,315.6 L309.7,313.3 L310.6,314.2 L311.4,336.6 L312.3,363.0 L313.1,358.4 L313.9,369.1 L314.8,370.6 L315.6,367.1 L316.5,363.6 L317.3,362.4 L318.1,370.9 L319.0,383.9 L319.8,395.3 L320.7,406.3 L321.5,401.1 L322.4,405.8 L323.2,407.8 L324.0,392.1 L324.9,393.3 L325.7,380.7 L326.6,381.9 L327.4,393.8 L328.2,405.2 L329.1,402.8 L329.9,396.4 L330.8,402.8 L331.6,418.0 L332.5,415.6 L333.3,398.8 L334.1,385.1 L335.0,368.5 L335.8,365.9 L336.7,351.4 L337.5,338.3 L338.3,349.6 L339.2,356.0 L340.0,354.0 L340.9,362.4 L341.7,366.2 L342.6,369.1 L343.4,355.5 L344.2,315.6 L345.1,350.2 L345.9,354.3 L346.8,329.6 L347.6,326.7 L348.4,325.2 L349.3,316.5 L350.1,315.6 L351.0,321.1 L351.8,317.7 L352.7,315.6 L353.5,316.2 L354.3,318.5 L355.2,323.8 L356.0,326.7 L356.9,325.5 L357.7,356.3 L358.5,323.2 L359.4,311.6 L360.2,332.5 L361.1,330.5 L361.9,316.5 L362.7,321.7 L363.6,324.6 L364.4,333.4 L365.3,327.3 L366.1,317.9 L367.0,317.9 L367.8,322.0 L368.6,319.7 L369.5,320.0 L370.3,318.2 L371.2,329.6 L372.0,329.9 L372.8,331.3 L373.7,336.0 L374.5,335.4 L375.4,342.4 L376.2,335.1 L377.1,333.6 L377.9,334.2 L378.7,333.4 L379.6,327.3 L380.4,321.4 L381.3,322.6 L382.1,342.7 L382.9,317.9 L383.8,318.2 L384.6,320.3 L385.5,336.6 L386.3,371.7 L387.2,377.8 L388.0,385.1 L388.8,393.8 L389.7,404.0 L390.5,413.0 L391.4,412.4 L392.2,409.0 L393.0,409.0 L393.9,408.1 L394.7,411.3 L395.6,415.3 L396.4,413.0 L397.3,407.2 L398.1,398.2 L398.9,383.7 L399.8,365.9 L400.6,357.5 L401.5,376.4 L402.3,377.8 L403.1,343.5 L404.0,358.1 L404.8,358.1 L405.7,365.3 L406.5,353.1 L407.3,358.9 L408.2,358.1 L409.0,355.2 L409.9,372.6 L410.7,380.2 L411.6,392.4 L412.4,395.0 L413.2,383.4 L414.1,363.3 L414.9,373.2 L415.8,379.6 L416.6,387.7 L417.4,393.5 L418.3,393.3 L419.1,392.7 L420.0,397.6 L420.8,398.2 L421.7,383.7 L422.5,376.4 L423.3,381.3 L424.2,383.1 L425.0,393.3 L425.9,398.5 L426.7,406.9 L427.5,405.8 L428.4,412.7 L429.2,413.3 L430.1,416.2 L430.9,419.1 L431.8,419.7 L432.6,419.7 L433.4,419.1 L434.3,419.7 L435.1,420.0 L436.0,420.0 L436.8,420.0 L437.6,420.0 L438.5,420.0 L439.3,420.0 L440.2,420.0 L441.0,420.0 L441.9,420.0 L442.7,420.0 L443.5,420.0 L444.4,420.0 L445.2,419.4 L446.1,419.1 L446.9,409.2 L447.7,413.3 L448.6,415.1 L449.4,418.5 L450.3,416.8 L451.1,414.8 L451.9,406.0 L452.8,391.5 L453.6,385.4 L454.5,384.2 L455.3,392.7 L456.2,402.8 L457.0,406.6 L457.8,410.1 L458.7,408.4 L459.5,401.4 L460.4,396.7 L461.2,388.3 L462.0,393.3 L462.9,392.1 L463.7,386.0 L464.6,379.3 L465.4,389.5 L466.3,407.2 L467.1,416.8 L467.9,415.1 L468.8,409.8 L469.6,402.6 L470.5,406.6 L471.3,402.0 L472.1,387.1 L473.0,359.8 L473.8,334.8 L474.7,341.5 L475.5,349.1 L476.4,329.0 L477.2,311.0 L478.0,305.4 L478.9,305.7 L479.7,305.7 L480.6,307.5 L481.4,310.1 L482.2,310.4 L483.1,315.6 L483.9,312.4 L484.8,310.4 L485.6,316.5 L486.5,321.1 L487.3,327.5 L488.1,345.9 L489.0,348.5 L489.8,336.0 L490.7,342.4 L491.5,354.0 L492.3,352.8 L493.2,356.0 L494.0,344.4 L494.9,349.6 L495.7,365.6 L496.5,368.5 L497.4,368.8 L498.2,363.3 L499.1,374.6 L499.9,366.2 L500.8,359.8 L501.6,355.2 L502.4,347.6 L503.3,347.0 L504.1,342.1 L505.0,355.2 L505.8,371.2 L506.6,380.7 L507.5,386.0 L508.3,400.8 L509.2,415.9 L510.0,417.4 L510.9,414.2 L511.7,415.9 L512.5,409.0 L513.4,415.9 L514.2,420.0 L515.1,415.6 L515.9,396.4 L516.7,418.8 L517.6,416.2 L518.4,415.9 L519.3,412.4 L520.1,406.3 L521.0,380.5 L521.8,381.9 L522.6,370.3 L523.5,363.9 L524.3,357.2 L525.2,347.0 L526.0,343.5 L526.8,379.0 L527.7,389.8 L528.5,403.7 L529.4,406.6 L530.2,408.7 L531.1,413.3 L531.9,415.1 L532.7,415.3 L533.6,416.8 L534.4,413.9 L535.3,413.0 L536.1,413.6 L536.9,416.2 L537.8,414.5 L538.6,413.0 L539.5,409.0 L540.3,406.0 L541.2,400.2 L542.0,396.7 L542.8,388.9 L543.7,386.3 L544.5,365.0 L545.4,367.7 L546.2,353.1 L547.0,347.3 L547.9,354.0 L548.7,350.8 L549.6,348.2 L550.4,358.9 L551.2,380.7 L552.1,399.4 L552.9,397.0 L553.8,412.7 L554.6,416.2 L555.5,417.1 L556.3,420.0 L557.1,420.0 L558.0,419.4 L558.8,420.0 L559.7,418.8 L560.5,418.5 L561.3,413.0 L562.2,415.1 L563.0,412.1 L563.9,413.0 L564.7,413.9 L565.6,413.0 L566.4,387.4 L567.2,395.0 L568.1,401.1 L568.9,409.8 L569.8,411.3 L570.6,395.6 L571.4,397.6 L572.3,378.4 L573.1,375.8 L574.0,362.1 L574.8,336.8 L575.7,353.7 L576.5,346.4 L577.3,378.7 L578.2,387.7 L579.0,379.3 L579.9,376.4 L580.7,383.4 L581.5,378.1 L582.4,386.9 L583.2,393.3 L584.1,398.8 L584.9,404.3 L585.8,390.3 L586.6,372.0 L587.4,366.2 L588.3,381.0 L589.1,366.5 L590.0,378.7 L590.8,381.3 L591.6,399.4 L592.5,396.7 L593.3,390.3 L594.2,376.4 L595.0,373.8 L595.8,383.7 L596.7,403.4 L597.5,408.7 L598.4,415.3 L599.2,412.7 L600.1,414.5 L600.9,411.3 L601.7,413.6 L602.6,418.8 L603.4,387.1 L604.3,372.6 L605.1,365.6 L605.9,378.4 L606.8,377.6 L607.6,397.0 L608.5,406.3 L609.3,410.4 L610.2,415.9 L611.0,415.6 L611.8,413.3 L612.7,413.6 L613.5,413.0 L614.4,412.1 L615.2,413.0 L616.0,415.3 L616.9,412.7 L617.7,411.0 L618.6,409.5 L619.4,412.4 L620.3,406.6 L621.1,401.4 L621.9,399.1 L622.8,396.7 L623.6,393.8 L624.5,389.2 L625.3,385.4 L626.1,383.4 L627.0,381.6 L627.8,376.1 L628.7,376.7 L629.5,386.6 L630.4,394.4 L631.2,399.4 L632.0,399.9 L632.9,400.5 L633.7,403.1 L634.6,405.8 L635.4,410.4 L636.2,416.5 L637.1,415.3 L637.9,419.7 L638.8,413.6 L639.6,413.6 L640.4,408.1 L641.3,406.9 L642.1,409.5 L643.0,411.0 L643.8,413.0 L644.7,411.9 L645.5,408.1 L646.3,399.4 L647.2,380.7 L648.0,364.5 L648.9,356.3 L649.7,342.1 L650.5,343.5 L651.4,356.0 L652.2,374.9 L653.1,383.9 L653.9,401.1 L654.8,410.7 L655.6,413.0 L656.4,417.4 L657.3,414.2 L658.1,419.4 L659.0,412.7 L659.8,414.5 L660.6,417.7 L661.5,417.7 L662.3,420.0 L663.2,419.4 L664.0,411.9 L664.9,419.4 L665.7,407.5 L666.5,413.6 L667.4,388.9 L668.2,413.6 L669.1,415.6 L669.9,416.8 L670.7,414.8 L671.6,416.2 L672.4,411.0 L673.3,414.8 L674.1,416.2 L675.0,415.9 L675.8,412.1 L676.6,417.7 L677.5,416.5 L678.3,418.0 L679.2,411.9 L680.0,409.0" stroke="#1f77b4" stroke-width="2" fill="none" opacity="0.8"/>
<!-- Hydro Generation -->
<path d="M80.0,334.8 L80.8,333.9 L81.7,333.9 L82.5,333.6 L83.4,333.6 L84.2,333.4 L85.0,333.1 L85.9,333.1 L86.7,333.1 L87.6,332.8 L88.4,333.1 L89.3,332.5 L90.1,331.9 L90.9,331.9 L91.8,331.0 L92.6,331.3 L93.5,331.6 L94.3,330.5 L95.1,330.5 L96.0,330.5 L96.8,327.5 L97.7,327.5 L98.5,327.5 L99.4,325.5 L100.2,322.6 L101.0,322.6 L101.9,322.6 L102.7,322.6 L103.6,322.0 L104.4,322.0 L105.2,322.0 L106.1,322.0 L106.9,322.0 L107.8,322.0 L108.6,322.0 L109.5,321.4 L110.3,321.7 L111.1,320.9 L112.0,320.6 L112.8,320.3 L113.7,320.0 L114.5,318.8 L115.3,318.8 L116.2,318.8 L117.0,318.5 L117.9,317.9 L118.7,318.5 L119.6,319.1 L120.4,317.1 L121.2,317.7 L122.1,315.9 L122.9,315.3 L123.8,315.3 L124.6,314.5 L125.4,314.8 L126.3,314.8 L127.1,314.5 L128.0,314.5 L128.8,314.5 L129.6,313.6 L130.5,313.0 L131.3,313.3 L132.2,313.3 L133.0,313.3 L133.9,312.1 L134.7,313.3 L135.5,314.2 L136.4,314.2 L137.2,314.5 L138.1,314.8 L138.9,314.5 L139.7,315.0 L140.6,313.9 L141.4,313.9 L142.3,312.7 L143.1,310.1 L144.0,308.6 L144.8,306.3 L145.6,323.8 L146.5,306.0 L147.3,304.6 L148.2,304.9 L149.0,323.5 L149.8,323.5 L150.7,323.5 L151.5,322.9 L152.4,322.6 L153.2,322.3 L154.1,322.0 L154.9,322.0 L155.7,322.0 L156.6,322.3 L157.4,303.1 L158.3,304.6 L159.1,304.6 L159.9,304.9 L160.8,304.6 L161.6,304.9 L162.5,306.0 L163.3,306.3 L164.2,306.0 L165.0,306.0 L165.8,306.0 L166.7,306.6 L167.5,306.3 L168.4,306.6 L169.2,306.3 L170.0,306.0 L170.9,306.3 L171.7,306.6 L172.6,306.3 L173.4,306.6 L174.2,306.6 L175.1,306.9 L175.9,306.6 L176.8,306.6 L177.6,306.6 L178.5,306.6 L179.3,306.6 L180.1,306.0 L181.0,305.7 L181.8,305.7 L182.7,305.2 L183.5,304.9 L184.3,305.2 L185.2,305.2 L186.0,305.2 L186.9,305.4 L187.7,305.4 L188.6,305.4 L189.4,305.4 L190.2,305.4 L191.1,305.7 L191.9,305.7 L192.8,305.7 L193.6,305.4 L194.4,304.6 L195.3,304.3 L196.1,304.3 L197.0,304.0 L197.8,304.9 L198.7,305.2 L199.5,306.0 L200.3,306.9 L201.2,306.9 L202.0,306.9 L202.9,307.5 L203.7,307.2 L204.5,306.9 L205.4,306.0 L206.2,306.0 L207.1,306.0 L207.9,306.0 L208.8,306.0 L209.6,306.3 L210.4,306.6 L211.3,306.3 L212.1,306.6 L213.0,306.9 L213.8,306.3 L214.6,306.3 L215.5,306.9 L216.3,307.8 L217.2,306.9 L218.0,307.8 L218.8,307.8 L219.7,307.8 L220.5,307.8 L221.4,307.5 L222.2,308.1 L223.1,308.1 L223.9,308.1 L224.7,307.8 L225.6,308.1 L226.4,307.8 L227.3,307.5 L228.1,307.5 L228.9,307.5 L229.8,307.8 L230.6,307.8 L231.5,308.1 L232.3,308.4 L233.2,308.1 L234.0,308.4 L234.8,307.8 L235.7,308.1 L236.5,308.1 L237.4,307.2 L238.2,308.1 L239.0,308.1 L239.9,308.4 L240.7,309.2 L241.6,309.2 L242.4,309.5 L243.3,309.5 L244.1,309.2 L244.9,309.2 L245.8,309.5 L246.6,309.8 L247.5,310.1 L248.3,310.1 L249.1,309.8 L250.0,310.1 L250.8,309.8 L251.7,309.8 L252.5,310.1 L253.4,310.1 L254.2,308.6 L255.0,308.6 L255.9,308.4 L256.7,308.6 L257.6,308.6 L258.4,311.3 L259.2,309.5 L260.1,308.6 L260.9,308.4 L261.8,308.6 L262.6,308.4 L263.5,308.4 L264.3,308.6 L265.1,308.9 L266.0,308.9 L266.8,309.2 L267.7,308.9 L268.5,308.9 L269.3,309.2 L270.2,309.2 L271.0,309.5 L271.9,309.8 L272.7,310.1 L273.5,309.8 L274.4,310.1 L275.2,309.8 L276.1,310.7 L276.9,310.7 L277.8,310.7 L278.6,310.7 L279.4,310.7 L280.3,310.7 L281.1,311.0 L282.0,311.0 L282.8,311.0 L283.6,310.7 L284.5,311.0 L285.3,310.7 L286.2,310.4 L287.0,311.6 L287.9,311.8 L288.7,312.4 L289.5,312.1 L290.4,312.4 L291.2,313.0 L292.1,313.0 L292.9,312.7 L293.7,313.0 L294.6,313.0 L295.4,312.4 L296.3,313.3 L297.1,313.3 L298.0,313.0 L298.8,313.0 L299.6,313.3 L300.5,313.6 L301.3,313.3 L302.2,313.0 L303.0,313.0 L303.8,313.0 L304.7,313.0 L305.5,312.4 L306.4,313.0 L307.2,313.0 L308.1,313.0 L308.9,313.0 L309.7,313.0 L310.6,312.4 L311.4,312.4 L312.3,312.4 L313.1,313.3 L313.9,313.3 L314.8,314.8 L315.6,314.5 L316.5,313.6 L317.3,313.3 L318.1,313.6 L319.0,313.3 L319.8,313.3 L320.7,313.0 L321.5,312.7 L322.4,313.9 L323.2,313.3 L324.0,313.9 L324.9,313.6 L325.7,313.9 L326.6,313.9 L327.4,314.2 L328.2,314.5 L329.1,315.3 L329.9,315.3 L330.8,315.3 L331.6,315.3 L332.5,315.0 L333.3,315.0 L334.1,314.8 L335.0,315.6 L335.8,315.3 L336.7,318.2 L337.5,318.5 L338.3,317.4 L339.2,318.2 L340.0,317.7 L340.9,317.7 L341.7,318.2 L342.6,317.4 L343.4,317.4 L344.2,317.1 L345.1,316.2 L345.9,316.8 L346.8,316.8 L347.6,317.7 L348.4,317.4 L349.3,320.0 L350.1,321.1 L351.0,321.7 L351.8,322.0 L352.7,321.7 L353.5,322.0 L354.3,321.7 L355.2,322.0 L356.0,322.3 L356.9,322.0 L357.7,322.3 L358.5,322.6 L359.4,322.3 L360.2,322.9 L361.1,322.3 L361.9,322.0 L362.7,322.9 L363.6,322.9 L364.4,322.9 L365.3,323.2 L366.1,323.2 L367.0,322.9 L367.8,322.9 L368.6,322.9 L369.5,323.8 L370.3,325.2 L371.2,327.0 L372.0,327.0 L372.8,327.0 L373.7,327.3 L374.5,327.3 L375.4,328.7 L376.2,328.7 L377.1,328.4 L377.9,327.5 L378.7,327.5 L379.6,327.3 L380.4,327.5 L381.3,326.4 L382.1,324.9 L382.9,324.9 L383.8,323.2 L384.6,322.6 L385.5,322.3 L386.3,322.3 L387.2,322.6 L388.0,322.3 L388.8,322.3 L389.7,322.0 L390.5,322.3 L391.4,322.6 L392.2,322.9 L393.0,322.6 L393.9,322.6 L394.7,322.6 L395.6,323.8 L396.4,323.8 L397.3,323.5 L398.1,324.3 L398.9,324.6 L399.8,324.6 L400.6,324.3 L401.5,324.3 L402.3,324.3 L403.1,324.6 L404.0,324.3 L404.8,324.3 L405.7,324.6 L406.5,325.2 L407.3,325.2 L408.2,324.9 L409.0,324.9 L409.9,325.5 L410.7,325.2 L411.6,324.3 L412.4,324.6 L413.2,324.1 L414.1,324.1 L414.9,324.3 L415.8,324.3 L416.6,324.1 L417.4,325.5 L418.3,326.1 L419.1,326.7 L420.0,326.1 L420.8,326.4 L421.7,326.7 L422.5,327.0 L423.3,326.1 L424.2,326.4 L425.0,326.1 L425.9,326.7 L426.7,325.8 L427.5,325.2 L428.4,324.9 L429.2,325.5 L430.1,325.2 L430.9,325.5 L431.8,326.1 L432.6,325.8 L433.4,327.0 L434.3,326.7 L435.1,327.0 L436.0,327.8 L436.8,327.5 L437.6,328.4 L438.5,328.4 L439.3,328.4 L440.2,328.4 L441.0,328.4 L441.9,328.1 L442.7,328.4 L443.5,328.7 L444.4,328.1 L445.2,328.7 L446.1,328.7 L446.9,327.8 L447.7,327.8 L448.6,327.5 L449.4,327.8 L450.3,328.4 L451.1,328.4 L451.9,328.4 L452.8,328.4 L453.6,328.4 L454.5,329.6 L455.3,329.6 L456.2,329.6 L457.0,329.3 L457.8,328.7 L458.7,330.2 L459.5,330.2 L460.4,330.2 L461.2,329.6 L462.0,329.9 L462.9,330.2 L463.7,329.9 L464.6,329.9 L465.4,329.0 L466.3,329.3 L467.1,329.3 L467.9,329.6 L468.8,329.3 L469.6,329.0 L470.5,329.0 L471.3,328.7 L472.1,330.2 L473.0,329.9 L473.8,329.6 L474.7,329.9 L475.5,330.7 L476.4,330.7 L477.2,330.5 L478.0,330.5 L478.9,330.2 L479.7,330.2 L480.6,330.2 L481.4,330.5 L482.2,330.5 L483.1,330.5 L483.9,330.2 L484.8,331.6 L485.6,336.8 L486.5,341.8 L487.3,342.4 L488.1,334.5 L489.0,335.1 L489.8,335.7 L490.7,335.7 L491.5,335.4 L492.3,334.5 L493.2,334.5 L494.0,333.4 L494.9,332.2 L495.7,331.9 L496.5,332.5 L497.4,331.6 L498.2,332.5 L499.1,332.2 L499.9,331.9 L500.8,331.6 L501.6,331.6 L502.4,331.9 L503.3,331.9 L504.1,331.9 L505.0,331.9 L505.8,332.2 L506.6,332.5 L507.5,332.5 L508.3,332.5 L509.2,332.2 L510.0,332.2 L510.9,331.9 L511.7,332.2 L512.5,331.3 L513.4,331.6 L514.2,331.6 L515.1,330.5 L515.9,331.0 L516.7,331.0 L517.6,331.3 L518.4,332.2 L519.3,331.9 L520.1,331.6 L521.0,331.9 L521.8,330.5 L522.6,330.2 L523.5,330.5 L524.3,329.9 L525.2,329.3 L526.0,329.0 L526.8,329.0 L527.7,329.3 L528.5,329.3 L529.4,329.9 L530.2,330.5 L531.1,330.5 L531.9,330.7 L532.7,330.5 L533.6,331.3 L534.4,331.3 L535.3,331.3 L536.1,331.3 L536.9,332.8 L537.8,332.5 L538.6,332.2 L539.5,332.5 L540.3,332.5 L541.2,333.9 L542.0,333.6 L542.8,333.4 L543.7,333.4 L544.5,333.1 L545.4,333.1 L546.2,332.5 L547.0,332.5 L547.9,332.8 L548.7,332.5 L549.6,331.9 L550.4,331.9 L551.2,331.9 L552.1,332.2 L552.9,332.2 L553.8,332.8 L554.6,333.1 L555.5,332.8 L556.3,333.1 L557.1,333.1 L558.0,333.1 L558.8,333.9 L559.7,333.9 L560.5,333.9 L561.3,333.9 L562.2,333.6 L563.0,333.9 L563.9,333.6 L564.7,333.9 L565.6,333.9 L566.4,333.9 L567.2,333.9 L568.1,333.4 L568.9,333.1 L569.8,332.8 L570.6,347.0 L571.4,347.6 L572.3,333.4 L573.1,333.1 L574.0,333.1 L574.8,333.4 L575.7,333.4 L576.5,333.6 L577.3,333.9 L578.2,333.6 L579.0,334.5 L579.9,334.2 L580.7,334.2 L581.5,334.5 L582.4,334.8 L583.2,334.8 L584.1,334.8 L584.9,334.8 L585.8,335.1 L586.6,335.1 L587.4,334.5 L588.3,334.2 L589.1,334.2 L590.0,333.6 L590.8,333.4 L591.6,333.4 L592.5,333.4 L593.3,332.8 L594.2,332.8 L595.0,332.8 L595.8,332.5 L596.7,332.5 L597.5,333.1 L598.4,333.4 L599.2,333.4 L600.1,333.6 L600.9,333.4 L601.7,334.2 L602.6,334.2 L603.4,333.9 L604.3,334.2 L605.1,333.9 L605.9,334.5 L606.8,333.4 L607.6,333.1 L608.5,333.4 L609.3,333.4 L610.2,333.4 L611.0,333.4 L611.8,333.1 L612.7,332.5 L613.5,332.2 L614.4,332.2 L615.2,332.8 L616.0,333.1 L616.9,332.8 L617.7,333.1 L618.6,332.5 L619.4,332.5 L620.3,331.9 L621.1,331.9 L621.9,332.2 L622.8,331.9 L623.6,320.6 L624.5,332.5 L625.3,332.2 L626.1,332.5 L627.0,331.9 L627.8,332.5 L628.7,332.5 L629.5,332.2 L630.4,332.5 L631.2,332.5 L632.0,332.8 L632.9,332.5 L633.7,333.6 L634.6,333.6 L635.4,333.4 L636.2,333.6 L637.1,333.4 L637.9,333.6 L638.8,334.2 L639.6,334.2 L640.4,333.4 L641.3,332.8 L642.1,332.5 L643.0,333.6 L643.8,333.4 L644.7,334.8 L645.5,334.5 L646.3,333.9 L647.2,333.9 L648.0,333.6 L648.9,333.9 L649.7,334.2 L650.5,334.2 L651.4,334.2 L652.2,333.6 L653.1,334.8 L653.9,335.1 L654.8,335.4 L655.6,336.0 L656.4,336.3 L657.3,336.3 L658.1,335.7 L659.0,334.5 L659.8,335.1 L660.6,334.2 L661.5,334.2 L662.3,334.8 L663.2,334.5 L664.0,337.7 L664.9,334.2 L665.7,334.8 L666.5,334.8 L667.4,334.8 L668.2,334.8 L669.1,334.5 L669.9,333.6 L670.7,333.6 L671.6,333.6 L672.4,333.9 L673.3,333.9 L674.1,332.8 L675.0,333.4 L675.8,333.4 L676.6,333.1 L677.5,333.4 L678.3,333.4 L679.2,333.4 L680.0,333.1" stroke="#ff7f0e" stroke-width="2" fill="none" opacity="0.8"/>
<!-- Thermal Generation -->
<path d="M80.0,322.6 L80.8,305.7 L81.7,311.6 L82.5,310.4 L83.4,298.5 L84.2,302.8 L85.0,290.0 L85.9,295.9 L86.7,298.5 L87.6,293.8 L88.4,320.6 L89.3,328.1 L90.1,333.6 L90.9,333.4 L91.8,305.2 L92.6,327.0 L93.5,330.2 L94.3,329.6 L95.1,329.3 L96.0,315.6 L96.8,319.1 L97.7,316.2 L98.5,298.8 L99.4,304.0 L100.2,309.2 L101.0,312.7 L101.9,318.8 L102.7,312.4 L103.6,305.2 L104.4,308.6 L105.2,331.6 L106.1,313.3 L106.9,317.4 L107.8,339.2 L108.6,339.2 L109.5,373.2 L110.3,379.0 L111.1,378.4 L112.0,379.6 L112.8,376.7 L113.7,375.8 L114.5,376.4 L115.3,376.1 L116.2,376.1 L117.0,375.8 L117.9,376.1 L118.7,376.7 L119.6,376.7 L120.4,376.1 L121.2,376.4 L122.1,376.7 L122.9,377.0 L123.8,376.4 L124.6,375.2 L125.4,374.9 L126.3,380.2 L127.1,379.9 L128.0,379.6 L128.8,379.3 L129.6,379.3 L130.5,379.6 L131.3,379.0 L132.2,379.6 L133.0,375.2 L133.9,375.5 L134.7,375.8 L135.5,375.5 L136.4,375.5 L137.2,375.2 L138.1,375.2 L138.9,375.2 L139.7,375.2 L140.6,375.5 L141.4,375.8 L142.3,375.2 L143.1,375.5 L144.0,375.5 L144.8,374.9 L145.6,374.9 L146.5,376.7 L147.3,379.3 L148.2,379.3 L149.0,379.6 L149.8,379.6 L150.7,379.6 L151.5,379.9 L152.4,379.9 L153.2,380.2 L154.1,380.5 L154.9,379.6 L155.7,379.9 L156.6,379.6 L157.4,379.9 L158.3,379.6 L159.1,379.9 L159.9,380.2 L160.8,380.2 L161.6,379.6 L162.5,379.6 L163.3,380.2 L164.2,379.6 L165.0,362.1 L165.8,362.1 L166.7,379.3 L167.5,379.6 L168.4,379.6 L169.2,379.6 L170.0,379.3 L170.9,379.9 L171.7,380.5 L172.6,379.3 L173.4,377.0 L174.2,377.0 L175.1,377.0 L175.9,377.0 L176.8,376.4 L177.6,376.1 L178.5,376.7 L179.3,376.1 L180.1,376.7 L181.0,376.7 L181.8,377.0 L182.7,376.7 L183.5,323.5 L184.3,337.7 L185.2,377.0 L186.0,375.8 L186.9,358.7 L187.7,362.1 L188.6,380.5 L189.4,381.0 L190.2,381.0 L191.1,364.5 L191.9,353.1 L192.8,353.1 L193.6,380.2 L194.4,376.1 L195.3,373.5 L196.1,373.8 L197.0,372.6 L197.8,373.5 L198.7,382.2 L199.5,382.2 L200.3,383.1 L201.2,377.0 L202.0,371.4 L202.9,340.0 L203.7,333.4 L204.5,340.3 L205.4,324.1 L206.2,315.0 L207.1,304.6 L207.9,317.7 L208.8,370.6 L209.6,370.9 L210.4,368.5 L211.3,354.0 L212.1,356.6 L213.0,356.6 L213.8,368.0 L214.6,379.9 L215.5,373.8 L216.3,377.0 L217.2,376.7 L218.0,370.6 L218.8,308.6 L219.7,309.8 L220.5,359.2 L221.4,359.2 L222.2,358.9 L223.1,359.5 L223.9,324.1 L224.7,293.5 L225.6,305.7 L226.4,365.3 L227.3,368.0 L228.1,379.9 L228.9,379.3 L229.8,379.6 L230.6,379.9 L231.5,379.6 L232.3,379.9 L233.2,379.6 L234.0,379.6 L234.8,377.8 L235.7,377.0 L236.5,377.3 L237.4,376.7 L238.2,376.7 L239.0,376.7 L239.9,376.1 L240.7,376.7 L241.6,377.0 L242.4,377.0 L243.3,360.7 L244.1,360.1 L244.9,348.8 L245.8,340.3 L246.6,346.2 L247.5,356.6 L248.3,356.3 L249.1,356.3 L250.0,347.3 L250.8,347.3 L251.7,347.6 L252.5,343.0 L253.4,356.0 L254.2,365.9 L255.0,377.0 L255.9,377.6 L256.7,377.6 L257.6,377.0 L258.4,376.7 L259.2,377.0 L260.1,377.3 L260.9,377.3 L261.8,376.1 L262.6,359.5 L263.5,359.5 L264.3,342.1 L265.1,335.7 L266.0,315.6 L266.8,309.8 L267.7,338.6 L268.5,350.5 L269.3,361.6 L270.2,362.1 L271.0,361.6 L271.9,361.6 L272.7,361.3 L273.5,361.6 L274.4,359.5 L275.2,359.5 L276.1,359.5 L276.9,359.8 L277.8,358.9 L278.6,358.7 L279.4,359.8 L280.3,359.2 L281.1,359.5 L282.0,359.8 L282.8,359.2 L283.6,358.9 L284.5,354.3 L285.3,358.1 L286.2,358.1 L287.0,358.4 L287.9,361.0 L288.7,361.0 L289.5,361.9 L290.4,361.6 L291.2,361.3 L292.1,361.0 L292.9,361.3 L293.7,361.9 L294.6,362.1 L295.4,361.9 L296.3,362.4 L297.1,361.9 L298.0,362.1 L298.8,362.1 L299.6,361.6 L300.5,361.3 L301.3,361.9 L302.2,361.6 L303.0,361.3 L303.8,361.3 L304.7,361.3 L305.5,360.7 L306.4,361.3 L307.2,360.7 L308.1,361.0 L308.9,361.9 L309.7,361.6 L310.6,361.6 L311.4,354.9 L312.3,359.2 L313.1,361.9 L313.9,362.4 L314.8,360.1 L315.6,361.0 L316.5,359.8 L317.3,360.4 L318.1,360.1 L319.0,359.8 L319.8,360.1 L320.7,360.1 L321.5,359.5 L322.4,359.2 L323.2,307.8 L324.0,278.1 L324.9,274.3 L325.7,274.3 L326.6,301.1 L327.4,306.6 L328.2,319.4 L329.1,322.9 L329.9,338.6 L330.8,350.5 L331.6,361.9 L332.5,339.5 L333.3,339.2 L334.1,345.9 L335.0,363.9 L335.8,359.2 L336.7,360.1 L337.5,360.7 L338.3,360.1 L339.2,360.1 L340.0,360.1 L340.9,360.1 L341.7,360.4 L342.6,359.8 L343.4,360.1 L344.2,360.4 L345.1,360.7 L345.9,360.4 L346.8,360.4 L347.6,361.0 L348.4,364.2 L349.3,363.6 L350.1,363.9 L351.0,363.9 L351.8,363.6 L352.7,363.6 L353.5,363.6 L354.3,364.2 L355.2,363.9 L356.0,361.0 L356.9,364.5 L357.7,361.6 L358.5,359.2 L359.4,361.6 L360.2,359.2 L361.1,373.5 L361.9,361.0 L362.7,361.6 L363.6,360.7 L364.4,360.1 L365.3,360.4 L366.1,359.8 L367.0,360.1 L367.8,359.8 L368.6,363.9 L369.5,363.9 L370.3,363.9 L371.2,364.2 L372.0,363.9 L372.8,364.5 L373.7,364.2 L374.5,364.2 L375.4,364.8 L376.2,365.9 L377.1,372.0 L377.9,377.0 L378.7,377.6 L379.6,378.4 L380.4,378.1 L381.3,377.8 L382.1,377.8 L382.9,377.8 L383.8,378.1 L384.6,377.8 L385.5,365.6 L386.3,285.1 L387.2,281.3 L388.0,269.7 L388.8,283.9 L389.7,377.3 L390.5,379.3 L391.4,379.3 L392.2,379.3 L393.0,356.0 L393.9,356.0 L394.7,356.0 L395.6,356.3 L396.4,353.1 L397.3,364.8 L398.1,364.8 L398.9,350.5 L399.8,352.8 L400.6,326.1 L401.5,327.0 L402.3,331.0 L403.1,286.8 L404.0,269.4 L404.8,295.3 L405.7,246.4 L406.5,247.6 L407.3,268.8 L408.2,274.6 L409.0,270.8 L409.9,290.3 L410.7,349.1 L411.6,321.1 L412.4,338.9 L413.2,338.6 L414.1,351.1 L414.9,379.6 L415.8,377.8 L416.6,376.4 L417.4,376.7 L418.3,376.4 L419.1,376.1 L420.0,376.4 L420.8,376.4 L421.7,378.1 L422.5,376.1 L423.3,345.9 L424.2,317.7 L425.0,288.3 L425.9,242.9 L426.7,242.9 L427.5,242.9 L428.4,242.6 L429.2,243.5 L430.1,243.2 L430.9,246.1 L431.8,260.4 L432.6,283.4 L433.4,295.0 L434.3,324.3 L435.1,324.1 L436.0,340.3 L436.8,370.6 L437.6,370.6 L438.5,374.1 L439.3,376.4 L440.2,376.7 L441.0,376.7 L441.9,376.4 L442.7,352.3 L443.5,326.1 L444.4,294.4 L445.2,255.1 L446.1,242.9 L446.9,247.6 L447.7,249.9 L448.6,247.0 L449.4,246.4 L450.3,247.3 L451.1,247.9 L451.9,299.1 L452.8,304.9 L453.6,304.6 L454.5,278.7 L455.3,317.7 L456.2,332.8 L457.0,333.1 L457.8,333.9 L458.7,332.8 L459.5,332.8 L460.4,316.8 L461.2,317.4 L462.0,288.0 L462.9,247.9 L463.7,244.4 L464.6,246.1 L465.4,248.2 L466.3,245.3 L467.1,246.4 L467.9,249.6 L468.8,249.0 L469.6,251.4 L470.5,298.5 L471.3,379.6 L472.1,379.0 L473.0,379.0 L473.8,379.6 L474.7,379.3 L475.5,379.3 L476.4,377.3 L477.2,375.5 L478.0,375.8 L478.9,375.5 L479.7,375.2 L480.6,375.8 L481.4,375.8 L482.2,375.5 L483.1,375.5 L483.9,376.1 L484.8,375.8 L485.6,346.4 L486.5,335.4 L487.3,277.2 L488.1,295.0 L489.0,299.9 L489.8,301.1 L490.7,346.2 L491.5,379.3 L492.3,378.7 L493.2,378.7 L494.0,378.7 L494.9,378.7 L495.7,378.7 L496.5,377.0 L497.4,375.5 L498.2,376.1 L499.1,376.1 L499.9,375.8 L500.8,375.8 L501.6,376.1 L502.4,376.1 L503.3,376.1 L504.1,375.8 L505.0,352.5 L505.8,327.0 L506.6,311.6 L507.5,298.5 L508.3,300.2 L509.2,306.3 L510.0,294.4 L510.9,293.2 L511.7,324.3 L512.5,333.1 L513.4,333.1 L514.2,332.8 L515.1,332.2 L515.9,303.4 L516.7,343.2 L517.6,340.9 L518.4,335.1 L519.3,335.1 L520.1,335.1 L521.0,335.4 L521.8,323.5 L522.6,323.2 L523.5,323.5 L524.3,323.8 L525.2,307.8 L526.0,309.8 L526.8,250.2 L527.7,244.4 L528.5,244.1 L529.4,244.4 L530.2,237.7 L531.1,289.2 L531.9,293.5 L532.7,293.2 L533.6,293.5 L534.4,293.5 L535.3,293.5 L536.1,293.5 L536.9,284.2 L537.8,290.6 L538.6,290.3 L539.5,303.1 L540.3,311.6 L541.2,290.9 L542.0,272.9 L542.8,270.3 L543.7,257.5 L544.5,244.4 L545.4,243.2 L546.2,243.2 L547.0,254.3 L547.9,262.7 L548.7,290.3 L549.6,290.0 L550.4,289.5 L551.2,347.3 L552.1,355.7 L552.9,379.0 L553.8,378.7 L554.6,378.7 L555.5,378.7 L556.3,379.0 L557.1,375.5 L558.0,375.5 L558.8,375.5 L559.7,375.8 L560.5,375.8 L561.3,364.5 L562.2,353.1 L563.0,353.1 L563.9,353.1 L564.7,335.4 L565.6,335.1 L566.4,340.9 L567.2,340.6 L568.1,351.4 L568.9,364.2 L569.8,364.5 L570.6,372.0 L571.4,379.6 L572.3,379.6 L573.1,379.6 L574.0,370.9 L574.8,370.6 L575.7,370.9 L576.5,379.6 L577.3,379.9 L578.2,379.6 L579.0,379.9 L579.9,379.3 L580.7,379.3 L581.5,379.6 L582.4,379.6 L583.2,379.6 L584.1,379.6 L584.9,308.6 L585.8,326.1 L586.6,293.8 L587.4,268.2 L588.3,255.1 L589.1,252.0 L590.0,269.7 L590.8,277.0 L591.6,292.9 L592.5,295.6 L593.3,295.0 L594.2,295.0 L595.0,294.7 L595.8,295.0 L596.7,295.0 L597.5,293.8 L598.4,293.5 L599.2,291.8 L600.1,266.2 L600.9,267.4 L601.7,267.9 L602.6,282.2 L603.4,271.4 L604.3,265.6 L605.1,266.2 L605.9,291.8 L606.8,274.0 L607.6,267.9 L608.5,267.7 L609.3,270.0 L610.2,279.9 L611.0,269.4 L611.8,290.3 L612.7,290.0 L613.5,288.3 L614.4,285.4 L615.2,281.6 L616.0,275.8 L616.9,276.1 L617.7,292.7 L618.6,292.4 L619.4,293.2 L620.3,293.2 L621.1,293.8 L621.9,293.5 L622.8,268.5 L623.6,292.7 L624.5,270.3 L625.3,279.3 L626.1,268.2 L627.0,268.5 L627.8,268.2 L628.7,284.5 L629.5,292.9 L630.4,292.7 L631.2,295.6 L632.0,296.7 L632.9,296.7 L633.7,274.3 L634.6,274.6 L635.4,271.1 L636.2,271.7 L637.1,274.6 L637.9,293.8 L638.8,293.8 L639.6,290.9 L640.4,292.1 L641.3,270.0 L642.1,267.1 L643.0,267.4 L643.8,267.7 L644.7,268.2 L645.5,266.5 L646.3,266.2 L647.2,265.9 L648.0,265.9 L648.9,265.9 L649.7,270.0 L650.5,268.8 L651.4,290.6 L652.2,317.1 L653.1,316.2 L653.9,316.2 L654.8,310.7 L655.6,296.1 L656.4,296.1 L657.3,299.9 L658.1,299.9 L659.0,300.5 L659.8,296.7 L660.6,333.4 L661.5,333.6 L662.3,333.9 L663.2,319.1 L664.0,333.4 L664.9,334.8 L665.7,335.1 L666.5,333.1 L667.4,295.9 L668.2,292.1 L669.1,285.4 L669.9,270.0 L670.7,269.4 L671.6,296.4 L672.4,293.2 L673.3,272.9 L674.1,295.9 L675.0,296.1 L675.8,296.1 L676.6,296.1 L677.5,295.9 L678.3,296.1 L679.2,291.5 L680.0,291.5" stroke="#2ca02c" stroke-width="2" fill="none" opacity="0.8"/>
<!-- Solar Generation -->
<path d="M80.0,387.7 L80.8,403.7 L81.7,403.7 L82.5,414.5 L83.4,419.7 L84.2,420.0 L85.0,420.0 L85.9,420.0 L86.7,420.0 L87.6,420.0 L88.4,420.0 L89.3,420.0 L90.1,420.0 L90.9,420.0 L91.8,411.9 L92.6,388.6 L93.5,384.2 L94.3,379.9 L95.1,378.7 L96.0,381.0 L96.8,381.0 L97.7,386.9 L98.5,386.9 L99.4,396.2 L100.2,382.5 L101.0,391.8 L101.9,409.8 L102.7,411.6 L103.6,419.4 L104.4,420.0 L105.2,420.0 L106.1,420.0 L106.9,420.0 L107.8,420.0 L108.6,420.0 L109.5,420.0 L110.3,420.0 L111.1,419.4 L112.0,411.0 L112.8,385.4 L113.7,381.6 L114.5,378.4 L115.3,377.6 L116.2,380.5 L117.0,381.9 L117.9,403.7 L118.7,383.9 L119.6,398.5 L120.4,402.8 L121.2,403.7 L122.1,403.7 L122.9,413.6 L123.8,419.7 L124.6,420.0 L125.4,420.0 L126.3,420.0 L127.1,420.0 L128.0,420.0 L128.8,420.0 L129.6,420.0 L130.5,420.0 L131.3,420.0 L132.2,418.0 L133.0,418.0 L133.9,416.8 L134.7,415.3 L135.5,415.3 L136.4,412.7 L137.2,402.8 L138.1,405.5 L138.9,411.3 L139.7,418.3 L140.6,416.8 L141.4,409.8 L142.3,407.8 L143.1,416.8 L144.0,419.7 L144.8,420.0 L145.6,420.0 L146.5,420.0 L147.3,420.0 L148.2,420.0 L149.0,420.0 L149.8,420.0 L150.7,420.0 L151.5,420.0 L152.4,419.7 L153.2,418.5 L154.1,417.1 L154.9,415.6 L155.7,414.8 L156.6,410.7 L157.4,411.3 L158.3,413.3 L159.1,410.1 L159.9,409.5 L160.8,413.9 L161.6,416.2 L162.5,414.2 L163.3,415.9 L164.2,419.7 L165.0,420.0 L165.8,420.0 L166.7,420.0 L167.5,420.0 L168.4,420.0 L169.2,420.0 L170.0,420.0 L170.9,420.0 L171.7,420.0 L172.6,406.6 L173.4,386.9 L174.2,382.8 L175.1,379.3 L175.9,378.7 L176.8,380.2 L177.6,383.9 L178.5,383.9 L179.3,378.7 L180.1,383.1 L181.0,380.7 L181.8,385.7 L182.7,401.4 L183.5,407.8 L184.3,419.4 L185.2,420.0 L186.0,420.0 L186.9,420.0 L187.7,420.0 L188.6,420.0 L189.4,420.0 L190.2,420.0 L191.1,420.0 L191.9,419.7 L192.8,406.0 L193.6,386.0 L194.4,386.3 L195.3,395.0 L196.1,393.5 L197.0,385.1 L197.8,390.6 L198.7,386.0 L199.5,387.4 L200.3,390.3 L201.2,389.2 L202.0,406.9 L202.9,399.4 L203.7,415.1 L204.5,418.8 L205.4,420.0 L206.2,420.0 L207.1,420.0 L207.9,420.0 L208.8,420.0 L209.6,420.0 L210.4,420.0 L211.3,420.0 L212.1,420.0 L213.0,412.7 L213.8,394.4 L214.6,379.6 L215.5,378.7 L216.3,379.0 L217.2,377.6 L218.0,377.6 L218.8,377.6 L219.7,377.8 L220.5,391.5 L221.4,389.2 L222.2,389.8 L223.1,403.4 L223.9,416.2 L224.7,419.7 L225.6,420.0 L226.4,420.0 L227.3,420.0 L228.1,420.0 L228.9,420.0 L229.8,420.0 L230.6,420.0 L231.5,420.0 L232.3,420.0 L233.2,418.0 L234.0,401.1 L234.8,386.0 L235.7,385.7 L236.5,395.9 L237.4,388.3 L238.2,385.4 L239.0,380.5 L239.9,383.9 L240.7,384.2 L241.6,388.9 L242.4,387.1 L243.3,389.8 L244.1,405.8 L244.9,418.8 L245.8,420.0 L246.6,420.0 L247.5,420.0 L248.3,420.0 L249.1,420.0 L250.0,420.0 L250.8,420.0 L251.7,420.0 L252.5,419.7 L253.4,408.4 L254.2,383.9 L255.0,379.3 L255.9,378.1 L256.7,378.4 L257.6,380.2 L258.4,379.9 L259.2,377.3 L260.1,377.6 L260.9,385.4 L261.8,382.2 L262.6,383.4 L263.5,391.8 L264.3,405.8 L265.1,419.1 L266.0,420.0 L266.8,420.0 L267.7,420.0 L268.5,420.0 L269.3,420.0 L270.2,420.0 L271.0,420.0 L271.9,420.0 L272.7,419.7 L273.5,408.1 L274.4,413.0 L275.2,408.7 L276.1,404.6 L276.9,401.1 L277.8,393.5 L278.6,383.4 L279.4,386.6 L280.3,406.0 L281.1,392.4 L282.0,404.6 L282.8,414.5 L283.6,405.5 L284.5,418.5 L285.3,419.1 L286.2,420.0 L287.0,420.0 L287.9,420.0 L288.7,420.0 L289.5,420.0 L290.4,420.0 L291.2,420.0 L292.1,420.0 L292.9,420.0 L293.7,418.8 L294.6,415.9 L295.4,413.9 L296.3,413.9 L297.1,406.9 L298.0,406.0 L298.8,401.4 L299.6,404.0 L300.5,406.6 L301.3,415.3 L302.2,415.1 L303.0,413.3 L303.8,392.4 L304.7,397.9 L305.5,418.3 L306.4,420.0 L307.2,420.0 L308.1,420.0 L308.9,420.0 L309.7,420.0 L310.6,420.0 L311.4,420.0 L312.3,420.0 L313.1,419.7 L313.9,416.2 L314.8,393.0 L315.6,389.2 L316.5,379.6 L317.3,377.6 L318.1,377.3 L319.0,377.3 L319.8,377.3 L320.7,388.0 L321.5,388.9 L322.4,390.6 L323.2,397.0 L324.0,409.0 L324.9,412.1 L325.7,419.4 L326.6,420.0 L327.4,420.0 L328.2,420.0 L329.1,420.0 L329.9,420.0 L330.8,420.0 L331.6,420.0 L332.5,420.0 L333.3,420.0 L334.1,417.1 L335.0,411.0 L335.8,410.4 L336.7,408.1 L337.5,403.4 L338.3,408.1 L339.2,410.1 L340.0,401.4 L340.9,404.0 L341.7,415.1 L342.6,410.7 L343.4,415.3 L344.2,397.9 L345.1,411.0 L345.9,418.3 L346.8,420.0 L347.6,420.0 L348.4,420.0 L349.3,420.0 L350.1,420.0 L351.0,420.0 L351.8,420.0 L352.7,420.0 L353.5,419.4 L354.3,405.2 L355.2,398.8 L356.0,401.7 L356.9,400.5 L357.7,400.5 L358.5,400.8 L359.4,405.8 L360.2,405.2 L361.1,402.0 L361.9,393.3 L362.7,385.4 L363.6,395.0 L364.4,402.8 L365.3,413.6 L366.1,418.3 L367.0,420.0 L367.8,420.0 L368.6,420.0 L369.5,420.0 L370.3,420.0 L371.2,420.0 L372.0,420.0 L372.8,420.0 L373.7,420.0 L374.5,411.9 L375.4,415.3 L376.2,402.0 L377.1,382.5 L377.9,378.1 L378.7,377.6 L379.6,378.7 L380.4,382.8 L381.3,380.2 L382.1,379.3 L382.9,378.1 L383.8,378.4 L384.6,379.9 L385.5,399.1 L386.3,418.3 L387.2,420.0 L388.0,420.0 L388.8,420.0 L389.7,420.0 L390.5,420.0 L391.4,420.0 L392.2,420.0 L393.0,420.0 L393.9,419.7 L394.7,404.6 L395.6,383.1 L396.4,378.7 L397.3,378.1 L398.1,377.6 L398.9,378.1 L399.8,378.1 L400.6,382.5 L401.5,392.1 L402.3,393.8 L403.1,398.2 L404.0,393.8 L404.8,395.9 L405.7,405.5 L406.5,419.4 L407.3,420.0 L408.2,420.0 L409.0,420.0 L409.9,420.0 L410.7,420.0 L411.6,420.0 L412.4,420.0 L413.2,420.0 L414.1,420.0 L414.9,416.8 L415.8,416.2 L416.6,409.8 L417.4,396.7 L418.3,390.1 L419.1,391.8 L420.0,386.6 L420.8,380.5 L421.7,380.7 L422.5,382.5 L423.3,398.8 L424.2,396.4 L425.0,398.8 L425.9,406.6 L426.7,419.1 L427.5,420.0 L428.4,420.0 L429.2,420.0 L430.1,420.0 L430.9,420.0 L431.8,420.0 L432.6,420.0 L433.4,420.0 L434.3,419.7 L435.1,404.6 L436.0,382.8 L436.8,378.1 L437.6,377.8 L438.5,380.7 L439.3,377.6 L440.2,399.4 L441.0,377.3 L441.9,379.0 L442.7,380.2 L443.5,377.8 L444.4,381.3 L445.2,396.4 L446.1,399.4 L446.9,418.0 L447.7,420.0 L448.6,420.0 L449.4,420.0 L450.3,420.0 L451.1,420.0 L451.9,420.0 L452.8,420.0 L453.6,420.0 L454.5,419.7 L455.3,404.3 L456.2,383.7 L457.0,379.9 L457.8,378.1 L458.7,378.1 L459.5,387.4 L460.4,383.1 L461.2,383.7 L462.0,378.1 L462.9,390.6 L463.7,401.4 L464.6,382.8 L465.4,398.8 L466.3,403.7 L467.1,419.1 L467.9,420.0 L468.8,420.0 L469.6,420.0 L470.5,420.0 L471.3,420.0 L472.1,420.0 L473.0,420.0 L473.8,420.0 L474.7,420.0 L475.5,415.9 L476.4,386.6 L477.2,381.9 L478.0,379.3 L478.9,391.2 L479.7,381.6 L480.6,377.6 L481.4,377.8 L482.2,383.7 L483.1,378.7 L483.9,380.2 L484.8,390.9 L485.6,390.1 L486.5,404.3 L487.3,418.0 L488.1,420.0 L489.0,420.0 L489.8,420.0 L490.7,420.0 L491.5,420.0 L492.3,420.0 L493.2,420.0 L494.0,420.0 L494.9,420.0 L495.7,408.4 L496.5,387.1 L497.4,382.8 L498.2,379.9 L499.1,379.9 L499.9,379.6 L500.8,385.4 L501.6,397.6 L502.4,385.1 L503.3,388.6 L504.1,391.2 L505.0,392.4 L505.8,398.2 L506.6,404.9 L507.5,418.3 L508.3,420.0 L509.2,420.0 L510.0,420.0 L510.9,420.0 L511.7,420.0 L512.5,420.0 L513.4,420.0 L514.2,420.0 L515.1,419.4 L515.9,404.6 L516.7,388.6 L517.6,390.3 L518.4,379.3 L519.3,379.0 L520.1,379.9 L521.0,379.9 L521.8,389.2 L522.6,378.7 L523.5,382.8 L524.3,384.5 L525.2,380.5 L526.0,394.4 L526.8,406.0 L527.7,418.5 L528.5,420.0 L529.4,420.0 L530.2,420.0 L531.1,420.0 L531.9,420.0 L532.7,420.0 L533.6,420.0 L534.4,420.0 L535.3,419.7 L536.1,408.4 L536.9,400.8 L537.8,390.3 L538.6,393.5 L539.5,385.4 L540.3,385.1 L541.2,378.1 L542.0,385.4 L542.8,392.4 L543.7,382.5 L544.5,391.5 L545.4,388.6 L546.2,398.8 L547.0,408.1 L547.9,419.1 L548.7,420.0 L549.6,420.0 L550.4,420.0 L551.2,420.0 L552.1,420.0 L552.9,420.0 L553.8,420.0 L554.6,420.0 L555.5,419.7 L556.3,418.5 L557.1,413.6 L558.0,410.1 L558.8,402.8 L559.7,393.5 L560.5,401.7 L561.3,400.5 L562.2,386.3 L563.0,413.9 L563.9,410.1 L564.7,409.2 L565.6,401.7 L566.4,406.6 L567.2,414.5 L568.1,419.1 L568.9,420.0 L569.8,420.0 L570.6,420.0 L571.4,420.0 L572.3,420.0 L573.1,420.0 L574.0,420.0 L574.8,420.0 L575.7,420.0 L576.5,410.7 L577.3,402.8 L578.2,410.4 L579.0,378.4 L579.9,378.1 L580.7,392.7 L581.5,379.9 L582.4,387.1 L583.2,384.2 L584.1,379.9 L584.9,378.7 L585.8,382.5 L586.6,385.4 L587.4,409.2 L588.3,416.8 L589.1,420.0 L590.0,420.0 L590.8,420.0 L591.6,420.0 L592.5,420.0 L593.3,420.0 L594.2,420.0 L595.0,420.0 L595.8,420.0 L596.7,411.6 L597.5,397.6 L598.4,391.8 L599.2,389.8 L600.1,391.8 L600.9,390.1 L601.7,388.0 L602.6,387.7 L603.4,388.9 L604.3,390.1 L605.1,390.1 L605.9,393.5 L606.8,382.8 L607.6,405.5 L608.5,418.5 L609.3,420.0 L610.2,420.0 L611.0,420.0 L611.8,420.0 L612.7,420.0 L613.5,420.0 L614.4,420.0 L615.2,420.0 L616.0,419.7 L616.9,404.9 L617.7,383.9 L618.6,379.0 L619.4,378.4 L620.3,378.1 L621.1,378.7 L621.9,383.4 L622.8,379.0 L623.6,378.4 L624.5,378.4 L625.3,378.7 L626.1,386.6 L627.0,388.9 L627.8,414.5 L628.7,418.8 L629.5,420.0 L630.4,420.0 L631.2,420.0 L632.0,420.0 L632.9,420.0 L633.7,420.0 L634.6,420.0 L635.4,420.0 L636.2,420.0 L637.1,407.5 L637.9,390.9 L638.8,389.8 L639.6,379.3 L640.4,378.4 L641.3,378.7 L642.1,383.9 L643.0,386.0 L643.8,378.7 L644.7,380.7 L645.5,380.7 L646.3,397.0 L647.2,404.3 L648.0,416.2 L648.9,418.3 L649.7,420.0 L650.5,420.0 L651.4,420.0 L652.2,420.0 L653.1,420.0 L653.9,420.0 L654.8,420.0 L655.6,420.0 L656.4,419.7 L657.3,411.6 L658.1,407.2 L659.0,386.9 L659.8,387.7 L660.6,386.9 L661.5,390.9 L662.3,389.8 L663.2,401.7 L664.0,390.1 L664.9,395.0 L665.7,378.4 L666.5,394.4 L667.4,412.7 L668.2,416.5 L669.1,419.4 L669.9,420.0 L670.7,420.0 L671.6,420.0 L672.4,420.0 L673.3,420.0 L674.1,420.0 L675.0,420.0 L675.8,420.0 L676.6,419.7 L677.5,418.3 L678.3,404.9 L679.2,408.7 L680.0,402.0" stroke="#d62728" stroke-width="2" fill="none" opacity="0.8"/>
<!-- Forecast -->
<path d="M80.0,188.6 L80.8,187.4 L81.7,192.1 L82.5,198.2 L83.4,200.8 L84.2,202.2 L85.0,217.9 L85.9,222.6 L86.7,222.6 L87.6,222.6 L88.4,222.6 L89.3,222.6 L90.1,222.6 L90.9,222.6 L91.8,222.6 L92.6,222.6 L93.5,222.6 L94.3,222.6 L95.1,222.6 L96.0,222.6 L96.8,222.6 L97.7,222.6 L98.5,222.6 L99.4,222.6 L100.2,222.6 L101.0,222.6 L101.9,222.6 L102.7,222.6 L103.6,222.6 L104.4,222.6 L105.2,222.6 L106.1,222.6 L106.9,247.3 L107.8,254.3 L108.6,261.0 L109.5,264.7 L110.3,265.3 L111.1,256.0 L112.0,235.4 L112.8,204.3 L113.7,180.7 L114.5,170.0 L115.3,166.2 L116.2,163.6 L117.0,162.7 L117.9,162.4 L118.7,156.0 L119.6,157.5 L120.4,159.5 L121.2,160.7 L122.1,168.8 L122.9,179.6 L123.8,186.5 L124.6,189.4 L125.4,206.6 L126.3,242.4 L127.1,252.8 L128.0,259.2 L128.8,267.1 L129.6,270.3 L130.5,272.9 L131.3,265.9 L132.2,261.0 L133.0,249.9 L133.9,237.7 L134.7,226.1 L135.5,215.9 L136.4,213.9 L137.2,212.4 L138.1,215.6 L138.9,219.7 L139.7,221.1 L140.6,218.2 L141.4,215.9 L142.3,216.2 L143.1,220.3 L144.0,220.6 L144.8,218.8 L145.6,229.3 L146.5,247.9 L147.3,260.4 L148.2,270.3 L149.0,277.2 L149.8,279.6 L150.7,278.7 L151.5,276.4 L152.4,268.2 L153.2,255.1 L154.1,237.1 L154.9,222.6 L155.7,216.2 L156.6,211.0 L157.4,211.0 L158.3,213.3 L159.1,215.9 L159.9,216.8 L160.8,215.0 L161.6,209.8 L162.5,209.8 L163.3,214.7 L164.2,215.3 L165.0,213.6 L165.8,224.6 L166.7,220.8 L167.5,230.7 L168.4,238.6 L169.2,243.8 L170.0,245.8 L170.9,244.4 L171.7,236.3 L172.6,213.6 L173.4,186.2 L174.2,167.3 L175.1,158.9 L175.9,154.3 L176.8,154.6 L177.6,155.7 L178.5,157.5 L179.3,158.9 L180.1,159.8 L181.0,159.2 L181.8,160.4 L182.7,166.2 L183.5,172.9 L184.3,174.6 L185.2,177.8 L186.0,192.6 L186.9,215.6 L187.7,231.0 L188.6,240.0 L189.4,245.3 L190.2,247.6 L191.1,245.6 L191.9,236.8 L192.8,215.3 L193.6,189.4 L194.4,170.5 L195.3,162.7 L196.1,157.7 L197.0,157.7 L197.8,158.6 L198.7,160.1 L199.5,161.2 L200.3,161.5 L201.2,160.7 L202.0,161.2 L202.9,166.5 L203.7,172.6 L204.5,175.5 L205.4,178.1 L206.2,193.2 L207.1,212.7 L207.9,231.9 L208.8,240.6 L209.6,246.4 L210.4,248.5 L211.3,246.7 L212.1,237.4 L213.0,217.1 L213.8,192.3 L214.6,174.3 L215.5,166.5 L216.3,160.4 L217.2,159.5 L218.0,159.2 L218.8,159.8 L219.7,159.8 L220.5,156.3 L221.4,153.7 L222.2,154.8 L223.1,162.1 L223.9,167.1 L224.7,170.8 L225.6,173.2 L226.4,189.1 L227.3,218.2 L228.1,233.9 L228.9,243.5 L229.8,249.9 L230.6,253.1 L231.5,252.5 L232.3,245.0 L233.2,225.5 L234.0,201.1 L234.8,180.4 L235.7,171.7 L236.5,165.9 L237.4,164.7 L238.2,164.7 L239.0,165.3 L239.9,165.0 L240.7,166.2 L241.6,165.9 L242.4,165.9 L243.3,170.5 L244.1,175.5 L244.9,179.0 L245.8,181.0 L246.6,196.7 L247.5,214.2 L248.3,236.3 L249.1,246.1 L250.0,252.2 L250.8,254.3 L251.7,252.8 L252.5,242.4 L253.4,222.9 L254.2,198.5 L255.0,178.4 L255.9,168.5 L256.7,163.0 L257.6,160.1 L258.4,158.6 L259.2,156.3 L260.1,153.1 L260.9,147.9 L261.8,143.8 L262.6,140.3 L263.5,149.9 L264.3,160.9 L265.1,167.9 L266.0,171.4 L266.8,188.6 L267.7,225.8 L268.5,234.2 L269.3,240.9 L270.2,248.2 L271.0,251.4 L271.9,253.7 L272.7,251.1 L273.5,245.0 L274.4,232.2 L275.2,220.8 L276.1,212.1 L276.9,201.9 L277.8,198.5 L278.6,196.1 L279.4,197.9 L280.3,197.9 L281.1,201.1 L282.0,202.8 L282.8,200.8 L283.6,202.5 L284.5,204.8 L285.3,205.7 L286.2,203.7 L287.0,213.3 L287.9,228.4 L288.7,240.6 L289.5,251.1 L290.4,257.2 L291.2,258.9 L292.1,258.1 L292.9,256.3 L293.7,249.6 L294.6,236.5 L295.4,220.0 L296.3,205.4 L297.1,198.2 L298.0,192.6 L298.8,192.1 L299.6,195.0 L300.5,197.3 L301.3,197.6 L302.2,197.3 L303.0,194.7 L303.8,192.6 L304.7,197.0 L305.5,197.9 L306.4,196.1 L307.2,206.6 L308.1,219.1 L308.9,233.9 L309.7,242.9 L310.6,247.3 L311.4,249.6 L312.3,246.7 L313.1,237.4 L313.9,217.4 L314.8,192.6 L315.6,174.9 L316.5,167.6 L317.3,163.0 L318.1,162.1 L319.0,162.4 L319.8,162.7 L320.7,162.7 L321.5,162.1 L322.4,160.4 L323.2,160.9 L324.0,167.1 L324.9,173.4 L325.7,176.6 L326.6,178.7 L327.4,194.1 L328.2,219.7 L329.1,235.7 L329.9,245.3 L330.8,251.7 L331.6,254.3 L332.5,253.4 L333.3,244.4 L334.1,223.5 L335.0,197.6 L335.8,178.1 L336.7,169.4 L337.5,164.4 L338.3,163.0 L339.2,163.0 L340.0,164.1 L340.9,164.7 L341.7,165.3 L342.6,165.0 L343.4,166.5 L344.2,172.6 L345.1,178.7 L345.9,181.3 L346.8,183.3 L347.6,198.5 L348.4,219.7 L349.3,237.7 L350.1,245.8 L351.0,250.5 L351.8,252.5 L352.7,251.1 L353.5,241.5 L354.3,219.7 L355.2,192.3 L356.0,172.0 L356.9,163.9 L357.7,159.5 L358.5,160.1 L359.4,161.2 L360.2,163.3 L361.1,165.3 L361.9,165.9 L362.7,165.6 L363.6,167.1 L364.4,172.3 L365.3,178.1 L366.1,179.3 L367.0,183.0 L367.8,198.7 L368.6,219.1 L369.5,236.3 L370.3,246.7 L371.2,252.2 L372.0,254.9 L372.8,252.8 L373.7,244.4 L374.5,226.1 L375.4,202.8 L376.2,183.9 L377.1,170.5 L377.9,164.1 L378.7,158.3 L379.6,153.1 L380.4,151.4 L381.3,154.8 L382.1,156.6 L382.9,157.5 L383.8,159.8 L384.6,165.0 L385.5,172.0 L386.3,180.1 L387.2,186.0 L388.0,198.5 L388.8,216.5 L389.7,235.4 L390.5,245.8 L391.4,251.4 L392.2,254.0 L393.0,252.5 L393.9,244.4 L394.7,225.5 L395.6,202.5 L396.4,181.3 L397.3,169.7 L398.1,163.3 L398.9,158.0 L399.8,155.7 L400.6,153.4 L401.5,149.6 L402.3,142.6 L403.1,141.5 L404.0,145.5 L404.8,155.1 L405.7,165.9 L406.5,173.2 L407.3,178.7 L408.2,193.5 L409.0,220.0 L409.9,233.3 L410.7,242.1 L411.6,248.8 L412.4,252.8 L413.2,253.7 L414.1,252.2 L414.9,245.8 L415.8,235.4 L416.6,220.8 L417.4,204.6 L418.3,195.5 L419.1,197.0 L420.0,197.3 L420.8,199.6 L421.7,199.9 L422.5,204.3 L423.3,207.5 L424.2,206.6 L425.0,208.6 L425.9,212.1 L426.7,214.4 L427.5,215.0 L428.4,223.7 L429.2,233.1 L430.1,237.7 L430.9,249.9 L431.8,258.3 L432.6,259.5 L433.4,259.5 L434.3,260.4 L435.1,254.6 L436.0,243.5 L436.8,229.0 L437.6,207.5 L438.5,199.6 L439.3,194.4 L440.2,192.3 L441.0,194.7 L441.9,197.3 L442.7,195.3 L443.5,190.0 L444.4,184.5 L445.2,185.7 L446.1,186.8 L446.9,193.5 L447.7,195.8 L448.6,210.7 L449.4,217.1 L450.3,234.2 L451.1,246.1 L451.9,252.0 L452.8,254.6 L453.6,252.8 L454.5,244.7 L455.3,226.4 L456.2,203.4 L457.0,182.2 L457.8,170.5 L458.7,164.1 L459.5,158.9 L460.4,156.6 L461.2,155.1 L462.0,151.4 L462.9,145.2 L463.7,138.3 L464.6,141.2 L465.4,150.8 L466.3,160.9 L467.1,168.5 L467.9,174.0 L468.8,188.9 L469.6,156.0 L470.5,215.6 L471.3,237.1 L472.1,241.8 L473.0,245.3 L473.8,244.7 L474.7,238.6 L475.5,220.0 L476.4,196.4 L477.2,172.6 L478.0,157.2 L478.9,148.4 L479.7,142.9 L480.6,140.6 L481.4,135.9 L482.2,134.8 L483.1,134.8 L483.9,134.8 L484.8,134.8 L485.6,135.1 L486.5,135.1 L487.3,135.1 L488.1,135.1 L489.0,135.1 L489.8,201.7 L490.7,225.5 L491.5,234.8 L492.3,243.2 L493.2,248.5 L494.0,248.8 L494.9,242.9 L495.7,224.3 L496.5,202.2 L497.4,180.4 L498.2,168.8 L499.1,163.3 L499.9,159.8 L500.8,157.2 L501.6,157.2 L502.4,155.1 L503.3,150.8 L504.1,150.2 L505.0,154.3 L505.8,163.0 L506.6,170.5 L507.5,176.6 L508.3,181.9 L509.2,195.3 L510.0,212.1 L510.9,233.6 L511.7,245.3 L512.5,251.4 L513.4,254.0 L514.2,252.8 L515.1,245.0 L515.9,226.1 L516.7,203.1 L517.6,181.9 L518.4,170.0 L519.3,163.6 L520.1,158.3 L521.0,155.7 L521.8,153.7 L522.6,148.7 L523.5,141.8 L524.3,133.0 L525.2,137.1 L526.0,146.7 L526.8,156.9 L527.7,164.1 L528.5,172.0 L529.4,187.1 L530.2,162.1 L531.1,216.2 L531.9,242.6 L532.7,249.3 L533.6,252.8 L534.4,251.7 L535.3,244.4 L536.1,226.4 L536.9,203.1 L537.8,180.7 L538.6,167.3 L539.5,159.5 L540.3,154.3 L541.2,151.6 L542.0,146.1 L542.8,138.9 L543.7,136.8 L544.5,136.5 L545.4,135.9 L546.2,135.7 L547.0,135.4 L547.9,135.1 L548.7,134.5 L549.6,143.2 L550.4,208.0 L551.2,225.5 L552.1,233.3 L552.9,242.1 L553.8,247.0 L554.6,248.8 L555.5,248.8 L556.3,242.4 L557.1,230.7 L558.0,214.7 L558.8,202.8 L559.7,195.3 L560.5,192.3 L561.3,188.6 L562.2,187.1 L563.0,191.2 L563.9,183.9 L564.7,184.2 L565.6,185.7 L566.4,185.4 L567.2,188.9 L568.1,191.8 L568.9,192.9 L569.8,202.8 L570.6,226.7 L571.4,236.3 L572.3,241.5 L573.1,247.0 L574.0,251.7 L574.8,252.8 L575.7,253.7 L576.5,249.6 L577.3,239.7 L578.2,225.8 L579.0,212.4 L579.9,201.4 L580.7,196.1 L581.5,197.0 L582.4,195.5 L583.2,194.4 L584.1,192.1 L584.9,182.2 L585.8,174.6 L586.6,177.5 L587.4,180.1 L588.3,186.2 L589.1,192.3 L590.0,202.8 L590.8,215.0 L591.6,232.8 L592.5,244.1 L593.3,250.5 L594.2,253.1 L595.0,252.0 L595.8,244.4 L596.7,225.8 L597.5,203.4 L598.4,182.5 L599.2,171.4 L600.1,165.9 L600.9,160.7 L601.7,157.7 L602.6,156.0 L603.4,152.8 L604.3,147.3 L605.1,139.4 L605.9,144.7 L606.8,155.1 L607.6,164.1 L608.5,170.0 L609.3,174.9 L610.2,189.7 L611.0,189.1 L611.8,225.8 L612.7,245.0 L613.5,251.4 L614.4,254.0 L615.2,252.5 L616.0,244.7 L616.9,226.1 L617.7,203.1 L618.6,181.9 L619.4,169.4 L620.3,162.7 L621.1,157.2 L621.9,154.6 L622.8,150.5 L623.6,143.8 L624.5,135.7 L625.3,133.3 L626.1,132.5 L627.0,131.9 L627.8,140.0 L628.7,150.2 L629.5,159.2 L630.4,166.8 L631.2,204.0 L632.0,228.7 L632.9,242.1 L633.7,249.0 L634.6,252.2 L635.4,251.4 L636.2,244.4 L637.1,226.7 L637.9,203.4 L638.8,181.0 L639.6,168.2 L640.4,161.8 L641.3,156.6 L642.1,154.6 L643.0,152.2 L643.8,147.9 L644.7,140.6 L645.5,133.9 L646.3,137.7 L647.2,145.2 L648.0,155.1 L648.9,161.5 L649.7,168.5 L650.5,184.8 L651.4,208.0 L652.2,228.4 L653.1,240.3 L653.9,247.9 L654.8,251.7 L655.6,250.5 L656.4,243.8 L657.3,225.8 L658.1,202.8 L659.0,180.4 L659.8,167.9 L660.6,162.4 L661.5,158.3 L662.3,156.9 L663.2,156.3 L664.0,153.7 L664.9,150.2 L665.7,143.8 L666.5,147.9 L667.4,154.3 L668.2,161.2 L669.1,166.5 L669.9,171.4 L670.7,186.0 L671.6,211.8 L672.4,229.6 L673.3,239.2 L674.1,244.4 L675.0,247.9 L675.8,247.6 L676.6,240.6 L677.5,223.5 L678.3,201.9 L679.2,179.8 L680.0,174.9" stroke="#9467bd" stroke-width="2" fill="none" opacity="0.8"/>
<!-- Total Generation -->
<path d="M80.0,189.1 L80.8,185.4 L81.7,178.7 L82.5,190.0 L83.4,175.2 L84.2,183.9 L85.0,169.7 L85.9,174.6 L86.7,182.5 L87.6,183.3 L88.4,185.1 L89.3,199.6 L90.1,221.7 L90.9,243.2 L91.8,194.7 L92.6,191.5 L93.5,197.6 L94.3,196.7 L95.1,198.5 L96.0,185.1 L96.8,179.0 L97.7,179.8 L98.5,158.3 L99.4,172.0 L100.2,156.6 L101.0,163.3 L101.9,181.6 L102.7,188.0 L103.6,160.7 L104.4,173.4 L105.2,217.1 L106.1,170.8 L106.9,196.4 L107.8,225.5 L108.6,201.4 L109.5,229.9 L110.3,232.8 L111.1,248.5 L112.0,241.2 L112.8,219.4 L113.7,228.7 L114.5,233.1 L115.3,231.9 L116.2,234.5 L117.0,234.2 L117.9,256.3 L118.7,229.6 L119.6,234.5 L120.4,222.0 L121.2,233.1 L122.1,198.2 L122.9,215.3 L123.8,195.8 L124.6,209.5 L125.4,217.4 L126.3,214.7 L127.1,199.6 L128.0,191.2 L128.8,207.2 L129.6,211.0 L130.5,225.8 L131.3,243.5 L132.2,237.7 L133.0,249.6 L133.9,261.8 L134.7,258.9 L135.5,254.9 L136.4,251.7 L137.2,234.5 L138.1,230.4 L138.9,233.6 L139.7,233.9 L140.6,230.4 L141.4,226.1 L142.3,199.6 L143.1,195.5 L144.0,187.7 L144.8,176.6 L145.6,206.9 L146.5,206.6 L147.3,206.9 L148.2,199.3 L149.0,203.4 L149.8,198.2 L150.7,199.6 L151.5,197.3 L152.4,192.9 L153.2,216.2 L154.1,214.4 L154.9,212.1 L155.7,212.4 L156.6,209.2 L157.4,186.0 L158.3,191.8 L159.1,190.6 L159.9,192.1 L160.8,198.7 L161.6,162.4 L162.5,163.3 L163.3,170.8 L164.2,182.5 L165.0,188.9 L165.8,177.5 L166.7,196.7 L167.5,200.8 L168.4,200.5 L169.2,200.8 L170.0,198.7 L170.9,209.8 L171.7,222.6 L172.6,206.9 L173.4,181.0 L174.2,166.5 L175.1,158.9 L175.9,137.4 L176.8,133.9 L177.6,136.2 L178.5,135.4 L179.3,122.9 L180.1,148.7 L181.0,132.2 L181.8,142.6 L182.7,150.8 L183.5,134.2 L184.3,142.0 L185.2,195.3 L186.0,197.0 L186.9,199.0 L187.7,197.6 L188.6,216.5 L189.4,224.9 L190.2,229.9 L191.1,219.1 L191.9,201.4 L192.8,197.3 L193.6,207.8 L194.4,209.5 L195.3,217.4 L196.1,198.2 L197.0,186.5 L197.8,188.0 L198.7,188.6 L199.5,183.9 L200.3,195.5 L201.2,196.7 L202.0,193.5 L202.9,149.3 L203.7,174.3 L204.5,193.2 L205.4,182.8 L206.2,171.4 L207.1,166.2 L207.9,188.6 L208.8,244.1 L209.6,247.6 L210.4,242.6 L211.3,221.7 L212.1,228.7 L213.0,220.8 L213.8,219.4 L214.6,220.8 L215.5,217.9 L216.3,223.7 L217.2,221.1 L218.0,214.4 L218.8,151.9 L219.7,151.9 L220.5,212.4 L221.4,209.2 L222.2,206.6 L223.1,210.7 L223.9,169.1 L224.7,144.4 L225.6,160.9 L226.4,229.6 L227.3,233.9 L228.1,253.4 L228.9,253.7 L229.8,263.9 L230.6,264.7 L231.5,263.9 L232.3,254.3 L233.2,243.2 L234.0,225.5 L234.8,212.4 L235.7,203.7 L236.5,197.6 L237.4,169.4 L238.2,160.9 L239.0,147.0 L239.9,154.6 L240.7,154.3 L241.6,165.9 L242.4,161.5 L243.3,151.1 L244.1,180.1 L244.9,189.1 L245.8,192.6 L246.6,208.6 L247.5,235.4 L248.3,244.4 L249.1,243.8 L250.0,236.8 L250.8,236.5 L251.7,236.3 L252.5,229.0 L253.4,229.9 L254.2,213.9 L255.0,217.6 L255.9,215.6 L256.7,198.2 L257.6,189.4 L258.4,201.1 L259.2,194.7 L260.1,191.8 L260.9,201.4 L261.8,206.6 L262.6,197.3 L263.5,207.8 L264.3,204.6 L265.1,206.3 L266.0,155.4 L266.8,168.8 L267.7,201.9 L268.5,199.6 L269.3,202.5 L270.2,202.2 L271.0,206.9 L271.9,204.3 L272.7,192.9 L273.5,187.1 L274.4,204.0 L275.2,215.3 L276.1,202.2 L276.9,201.7 L277.8,195.8 L278.6,201.7 L279.4,213.0 L280.3,230.1 L281.1,198.2 L282.0,201.9 L282.8,215.3 L283.6,210.7 L284.5,191.5 L285.3,206.9 L286.2,200.5 L287.0,179.8 L287.9,189.1 L288.7,204.0 L289.5,192.9 L290.4,229.0 L291.2,236.8 L292.1,213.9 L292.9,212.1 L293.7,209.2 L294.6,197.9 L295.4,238.3 L296.3,236.0 L297.1,226.1 L298.0,229.3 L298.8,209.8 L299.6,208.3 L300.5,188.0 L301.3,186.8 L302.2,187.1 L303.0,156.0 L303.8,138.6 L304.7,146.7 L305.5,147.6 L306.4,146.1 L307.2,156.3 L308.1,156.0 L308.9,150.5 L309.7,147.9 L310.6,148.2 L311.4,163.9 L312.3,194.7 L313.1,193.2 L313.9,201.1 L314.8,178.4 L315.6,171.7 L316.5,156.6 L317.3,153.7 L318.1,161.8 L319.0,174.3 L319.8,186.0 L320.7,207.5 L321.5,202.2 L322.4,209.5 L323.2,165.9 L324.0,133.0 L324.9,133.3 L325.7,128.4 L326.6,157.2 L327.4,174.9 L328.2,199.3 L329.1,201.4 L329.9,210.7 L330.8,229.0 L331.6,255.4 L332.5,230.4 L333.3,213.0 L334.1,202.8 L335.0,199.0 L335.8,190.9 L336.7,177.8 L337.5,160.9 L338.3,175.2 L339.2,184.5 L340.0,173.2 L340.9,184.2 L341.7,199.9 L342.6,197.0 L343.4,188.3 L344.2,131.0 L345.1,178.1 L345.9,189.7 L346.8,166.8 L347.6,165.3 L348.4,167.1 L349.3,160.1 L350.1,160.7 L351.0,166.8 L351.8,163.3 L352.7,160.9 L353.5,161.2 L354.3,149.6 L355.2,148.4 L356.0,151.6 L356.9,152.5 L357.7,180.7 L358.5,145.8 L359.4,141.2 L360.2,159.8 L361.1,168.2 L361.9,132.7 L362.7,131.6 L363.6,143.2 L364.4,159.2 L365.3,164.4 L366.1,159.2 L367.0,160.9 L367.8,164.7 L368.6,166.5 L369.5,167.6 L370.3,167.3 L371.2,180.7 L372.0,180.7 L372.8,182.8 L373.7,187.4 L374.5,178.7 L375.4,191.2 L376.2,171.7 L377.1,156.6 L377.9,156.9 L378.7,156.0 L379.6,151.6 L380.4,149.9 L381.3,147.0 L382.1,164.7 L382.9,138.9 L383.8,138.0 L384.6,140.6 L385.5,163.6 L386.3,137.4 L387.2,142.0 L388.0,137.4 L388.8,160.4 L389.7,263.6 L390.5,274.9 L391.4,274.6 L392.2,271.4 L393.0,247.9 L393.9,246.4 L394.7,234.5 L395.6,218.5 L396.4,208.6 L397.3,213.6 L398.1,204.8 L398.9,176.9 L399.8,161.5 L400.6,130.4 L401.5,159.8 L402.3,167.1 L403.1,93.2 L404.0,85.6 L404.8,113.6 L405.7,81.9 L406.5,85.4 L407.3,113.3 L408.2,117.9 L409.0,111.2 L409.9,148.7 L410.7,214.7 L411.6,198.2 L412.4,218.8 L413.2,206.3 L414.1,198.5 L414.9,233.9 L415.8,238.0 L416.6,238.0 L417.4,232.5 L418.3,225.8 L419.1,227.2 L420.0,226.7 L420.8,221.4 L421.7,209.2 L422.5,201.9 L423.3,192.1 L424.2,163.6 L425.0,146.4 L425.9,114.7 L426.7,134.8 L427.5,133.9 L428.4,140.3 L429.2,142.3 L430.1,144.7 L430.9,150.8 L431.8,166.2 L432.6,188.9 L433.4,201.1 L434.3,230.4 L435.1,215.6 L436.0,211.5 L436.8,237.1 L437.6,237.7 L438.5,243.5 L439.3,242.4 L440.2,264.5 L441.0,242.9 L441.9,244.1 L442.7,221.7 L443.5,192.9 L444.4,164.4 L445.2,139.7 L446.1,130.1 L446.9,142.6 L447.7,151.4 L448.6,149.9 L449.4,153.1 L450.3,152.8 L451.1,151.1 L451.9,193.5 L452.8,184.8 L453.6,178.4 L454.5,152.2 L455.3,184.2 L456.2,188.9 L457.0,188.9 L457.8,190.9 L458.7,189.4 L459.5,191.8 L460.4,166.8 L461.2,158.9 L462.0,129.3 L462.9,100.8 L463.7,101.6 L464.6,78.1 L465.4,105.4 L466.3,125.5 L467.1,151.6 L467.9,154.6 L468.8,148.4 L469.6,143.2 L470.5,194.4 L471.3,270.6 L472.1,256.3 L473.0,228.7 L473.8,204.0 L474.7,210.7 L475.5,215.0 L476.4,163.6 L477.2,138.9 L478.0,131.0 L478.9,142.6 L479.7,132.7 L480.6,131.0 L481.4,134.2 L482.2,140.0 L483.1,140.3 L483.9,138.9 L484.8,148.7 L485.6,129.8 L486.5,142.6 L487.3,105.1 L488.1,135.4 L489.0,143.8 L489.8,133.0 L490.7,184.2 L491.5,228.7 L492.3,226.1 L493.2,229.3 L494.0,216.5 L494.9,220.6 L495.7,224.6 L496.5,205.1 L497.4,198.7 L498.2,191.8 L499.1,202.8 L499.9,193.5 L500.8,192.6 L501.6,200.5 L502.4,180.7 L503.3,183.6 L504.1,181.0 L505.0,172.0 L505.8,168.5 L506.6,169.7 L507.5,175.2 L508.3,193.5 L509.2,214.4 L510.0,204.0 L510.9,199.3 L511.7,232.5 L512.5,233.3 L513.4,240.6 L514.2,244.7 L515.1,237.7 L515.9,175.5 L516.7,221.7 L517.6,218.8 L518.4,202.5 L519.3,198.5 L520.1,192.9 L521.0,167.6 L521.8,165.0 L522.6,142.3 L523.5,140.6 L524.3,135.4 L525.2,104.5 L526.0,116.8 L526.8,104.3 L527.7,122.0 L528.5,137.1 L529.4,140.9 L530.2,136.8 L531.1,192.9 L531.9,199.3 L532.7,199.0 L533.6,201.7 L534.4,198.7 L535.3,197.6 L536.1,186.8 L536.9,174.0 L537.8,167.9 L538.6,169.1 L539.5,170.0 L540.3,175.2 L541.2,143.2 L542.0,128.7 L542.8,124.9 L543.7,99.6 L544.5,74.0 L545.4,72.6 L546.2,67.6 L547.0,82.2 L547.9,108.6 L548.7,133.6 L549.6,130.1 L550.4,140.3 L551.2,220.0 L552.1,247.3 L552.9,268.2 L553.8,284.2 L554.6,288.0 L555.5,288.3 L556.3,290.9 L557.1,282.8 L558.0,278.1 L558.8,272.9 L559.7,262.1 L560.5,270.0 L561.3,252.0 L562.2,228.1 L563.0,253.1 L563.9,249.9 L564.7,232.5 L565.6,223.7 L566.4,208.9 L567.2,224.0 L568.1,245.0 L568.9,267.1 L569.8,268.5 L570.6,274.6 L571.4,284.8 L572.3,251.4 L573.1,248.5 L574.0,226.1 L574.8,200.8 L575.7,217.9 L576.5,210.4 L577.3,235.4 L578.2,251.4 L579.0,212.1 L579.9,208.0 L580.7,229.6 L581.5,212.1 L582.4,228.4 L583.2,231.9 L584.1,233.1 L584.9,166.5 L585.8,174.0 L586.6,126.3 L587.4,118.2 L588.3,127.2 L589.1,113.0 L590.0,142.3 L590.8,151.9 L591.6,185.7 L592.5,185.7 L593.3,178.1 L594.2,164.1 L595.0,161.2 L595.8,171.1 L596.7,182.5 L597.5,173.2 L598.4,174.0 L599.2,167.6 L600.1,146.1 L600.9,142.0 L601.7,143.8 L602.6,163.0 L603.4,121.4 L604.3,102.5 L605.1,95.8 L605.9,138.3 L606.8,107.7 L607.6,143.5 L608.5,165.9 L609.3,173.7 L610.2,189.4 L611.0,178.7 L611.8,197.0 L612.7,196.1 L613.5,193.5 L614.4,189.7 L615.2,187.4 L616.0,183.9 L616.9,166.5 L617.7,160.7 L618.6,153.4 L619.4,156.6 L620.3,149.9 L621.1,145.8 L621.9,148.2 L622.8,116.2 L623.6,125.5 L624.5,110.4 L625.3,115.6 L626.1,110.6 L627.0,110.9 L627.8,131.3 L628.7,152.5 L629.5,171.7 L630.4,179.6 L631.2,187.4 L632.0,189.4 L632.9,189.7 L633.7,171.1 L634.6,174.0 L635.4,174.9 L636.2,181.9 L637.1,170.8 L637.9,178.1 L638.8,171.4 L639.6,158.0 L640.4,151.9 L641.3,128.4 L642.1,133.0 L643.0,138.0 L643.8,132.7 L644.7,135.7 L645.5,129.8 L646.3,136.5 L647.2,124.9 L648.0,120.2 L648.9,114.4 L649.7,106.6 L650.5,106.9 L651.4,141.2 L652.2,185.7 L653.1,195.0 L653.9,212.4 L654.8,216.8 L655.6,205.1 L656.4,209.5 L657.3,201.9 L658.1,202.2 L659.0,174.6 L659.8,174.0 L660.6,212.1 L661.5,216.5 L662.3,218.5 L663.2,214.7 L664.0,213.0 L664.9,223.5 L665.7,195.8 L666.5,215.9 L667.4,172.3 L668.2,197.0 L669.1,195.0 L669.9,180.7 L670.7,177.8 L671.6,206.3 L672.4,198.2 L673.3,181.6 L674.1,204.8 L675.0,205.4 L675.8,201.7 L676.6,206.6 L677.5,204.0 L678.3,192.3 L679.2,185.4 L680.0,175.5" stroke="#8c564b" stroke-width="2" fill="none" opacity="0.8"/>
<!-- Forecast Difference -->
<path d="M80.0,420.0 L80.8,420.0 L81.7,420.0 L82.5,420.0 L83.4,420.0 L84.2,420.0 L85.0,420.0 L85.9,420.0 L86.7,420.0 L87.6,420.0 L88.4,420.0 L89.3,420.0 L90.1,420.0 L90.9,420.0 L91.8,420.0 L92.6,420.0 L93.5,420.0 L94.3,420.0 L95.1,420.0 L96.0,420.0 L96.8,420.0 L97.7,420.0 L98.5,420.0 L99.4,420.0 L100.2,420.0 L101.0,420.0 L101.9,420.0 L102.7,420.0 L103.6,420.0 L104.4,420.0 L105.2,420.0 L106.1,420.0 L106.9,420.0 L107.8,420.0 L108.6,420.0 L109.5,420.0 L110.3,420.0 L111.1,420.0 L112.0,420.0 L112.8,420.0 L113.7,420.0 L114.5,420.0 L115.3,420.0 L116.2,420.0 L117.0,420.0 L117.9,420.0 L118.7,420.0 L119.6,420.0 L120.4,420.0 L121.2,420.0 L122.1,420.0 L122.9,420.0 L123.8,420.0 L124.6,420.0 L125.4,420.0 L126.3,420.0 L127.1,420.0 L128.0,420.0 L128.8,420.0 L129.6,420.0 L130.5,420.0 L131.3,420.0 L132.2,420.0 L133.0,420.0 L133.9,420.0 L134.7,420.0 L135.5,420.0 L136.4,420.0 L137.2,420.0 L138.1,420.0 L138.9,420.0 L139.7,420.0 L140.6,420.0 L141.4,420.0 L142.3,420.0 L143.1,420.0 L144.0,420.0 L144.8,420.0 L145.6,420.0 L146.5,420.0 L147.3,420.0 L148.2,420.0 L149.0,420.0 L149.8,420.0 L150.7,420.0 L151.5,420.0 L152.4,420.0 L153.2,420.0 L154.1,420.0 L154.9,420.0 L155.7,420.0 L156.6,420.0 L157.4,420.0 L158.3,420.0 L159.1,420.0 L159.9,420.0 L160.8,420.0 L161.6,420.0 L162.5,420.0 L163.3,420.0 L164.2,420.0 L165.0,420.0 L165.8,420.0 L166.7,420.0 L167.5,420.0 L168.4,420.0 L169.2,420.0 L170.0,420.0 L170.9,420.0 L171.7,420.0 L172.6,420.0 L173.4,420.0 L174.2,420.0 L175.1,420.0 L175.9,420.0 L176.8,420.0 L177.6,420.0 L178.5,420.0 L179.3,420.0 L180.1,420.0 L181.0,420.0 L181.8,420.0 L182.7,420.0 L183.5,420.0 L184.3,420.0 L185.2,420.0 L186.0,420.0 L186.9,420.0 L187.7,420.0 L188.6,420.0 L189.4,420.0 L190.2,420.0 L191.1,420.0 L191.9,420.0 L192.8,420.0 L193.6,420.0 L194.4,420.0 L195.3,420.0 L196.1,420.0 L197.0,420.0 L197.8,420.0 L198.7,420.0 L199.5,420.0 L200.3,420.0 L201.2,420.0 L202.0,420.0 L202.9,420.0 L203.7,420.0 L204.5,420.0 L205.4,420.0 L206.2,420.0 L207.1,420.0 L207.9,420.0 L208.8,420.0 L209.6,420.0 L210.4,420.0 L211.3,420.0 L212.1,420.0 L213.0,420.0 L213.8,420.0 L214.6,420.0 L215.5,420.0 L216.3,420.0 L217.2,420.0 L218.0,420.0 L218.8,420.0 L219.7,420.0 L220.5,420.0 L221.4,420.0 L222.2,420.0 L223.1,420.0 L223.9,420.0 L224.7,420.0 L225.6,420.0 L226.4,420.0 L227.3,420.0 L228.1,420.0 L228.9,420.0 L229.8,420.0 L230.6,420.0 L231.5,420.0 L232.3,420.0 L233.2,420.0 L234.0,420.0 L234.8,420.0 L235.7,420.0 L236.5,420.0 L237.4,420.0 L238.2,420.0 L239.0,420.0 L239.9,420.0 L240.7,420.0 L241.6,420.0 L242.4,420.0 L243.3,420.0 L244.1,420.0 L244.9,420.0 L245.8,420.0 L246.6,420.0 L247.5,420.0 L248.3,420.0 L249.1,420.0 L250.0,420.0 L250.8,420.0 L251.7,420.0 L252.5,420.0 L253.4,420.0 L254.2,420.0 L255.0,420.0 L255.9,420.0 L256.7,420.0 L257.6,420.0 L258.4,420.0 L259.2,420.0 L260.1,420.0 L260.9,420.0 L261.8,420.0 L262.6,420.0 L263.5,420.0 L264.3,420.0 L265.1,420.0 L266.0,420.0 L266.8,420.0 L267.7,420.0 L268.5,420.0 L269.3,420.0 L270.2,420.0 L271.0,420.0 L271.9,420.0 L272.7,420.0 L273.5,420.0 L274.4,420.0 L275.2,420.0 L276.1,420.0 L276.9,420.0 L277.8,420.0 L278.6,420.0 L279.4,420.0 L280.3,420.0 L281.1,420.0 L282.0,420.0 L282.8,420.0 L283.6,420.0 L284.5,420.0 L285.3,420.0 L286.2,420.0 L287.0,420.0 L287.9,420.0 L288.7,420.0 L289.5,420.0 L290.4,420.0 L291.2,420.0 L292.1,420.0 L292.9,420.0 L293.7,420.0 L294.6,420.0 L295.4,420.0 L296.3,420.0 L297.1,420.0 L298.0,420.0 L298.8,420.0 L299.6,420.0 L300.5,420.0 L301.3,420.0 L302.2,420.0 L303.0,420.0 L303.8,420.0 L304.7,420.0 L305.5,420.0 L306.4,420.0 L307.2,420.0 L308.1,420.0 L308.9,420.0 L309.7,420.0 L310.6,420.0 L311.4,420.0 L312.3,420.0 L313.1,420.0 L313.9,420.0 L314.8,420.0 L315.6,420.0 L316.5,420.0 L317.3,420.0 L318.1,420.0 L319.0,420.0 L319.8,420.0 L320.7,420.0 L321.5,420.0 L322.4,420.0 L323.2,420.0 L324.0,420.0 L324.9,420.0 L325.7,420.0 L326.6,420.0 L327.4,420.0 L328.2,420.0 L329.1,420.0 L329.9,420.0 L330.8,420.0 L331.6,420.0 L332.5,420.0 L333.3,420.0 L334.1,420.0 L335.0,420.0 L335.8,420.0 L336.7,420.0 L337.5,420.0 L338.3,420.0 L339.2,420.0 L340.0,420.0 L340.9,420.0 L341.7,420.0 L342.6,420.0 L343.4,420.0 L344.2,420.0 L345.1,420.0 L345.9,420.0 L346.8,420.0 L347.6,420.0 L348.4,420.0 L349.3,420.0 L350.1,420.0 L351.0,420.0 L351.8,420.0 L352.7,420.0 L353.5,420.0 L354.3,420.0 L355.2,420.0 L356.0,420.0 L356.9,420.0 L357.7,420.0 L358.5,420.0 L359.4,420.0 L360.2,420.0 L361.1,420.0 L361.9,420.0 L362.7,420.0 L363.6,420.0 L364.4,420.0 L365.3,420.0 L366.1,420.0 L367.0,420.0 L367.8,420.0 L368.6,420.0 L369.5,420.0 L370.3,420.0 L371.2,420.0 L372.0,420.0 L372.8,420.0 L373.7,420.0 L374.5,420.0 L375.4,420.0 L376.2,420.0 L377.1,420.0 L377.9,420.0 L378.7,420.0 L379.6,420.0 L380.4,420.0 L381.3,420.0 L382.1,420.0 L382.9,420.0 L383.8,420.0 L384.6,420.0 L385.5,420.0 L386.3,420.0 L387.2,420.0 L388.0,420.0 L388.8,420.0 L389.7,420.0 L390.5,420.0 L391.4,420.0 L392.2,420.0 L393.0,420.0 L393.9,420.0 L394.7,420.0 L395.6,420.0 L396.4,420.0 L397.3,420.0 L398.1,420.0 L398.9,420.0 L399.8,420.0 L400.6,420.0 L401.5,420.0 L402.3,420.0 L403.1,420.0 L404.0,420.0 L404.8,420.0 L405.7,420.0 L406.5,420.0 L407.3,420.0 L408.2,420.0 L409.0,420.0 L409.9,420.0 L410.7,420.0 L411.6,420.0 L412.4,420.0 L413.2,420.0 L414.1,420.0 L414.9,420.0 L415.8,420.0 L416.6,420.0 L417.4,420.0 L418.3,420.0 L419.1,420.0 L420.0,420.0 L420.8,420.0 L421.7,420.0 L422.5,420.0 L423.3,420.0 L424.2,420.0 L425.0,420.0 L425.9,420.0 L426.7,420.0 L427.5,420.0 L428.4,420.0 L429.2,420.0 L430.1,420.0 L430.9,420.0 L431.8,420.0 L432.6,420.0 L433.4,420.0 L434.3,420.0 L435.1,420.0 L436.0,420.0 L436.8,420.0 L437.6,420.0 L438.5,420.0 L439.3,420.0 L440.2,420.0 L441.0,420.0 L441.9,420.0 L442.7,420.0 L443.5,420.0 L444.4,420.0 L445.2,420.0 L446.1,420.0 L446.9,420.0 L447.7,420.0 L448.6,420.0 L449.4,420.0 L450.3,420.0 L451.1,420.0 L451.9,420.0 L452.8,420.0 L453.6,420.0 L454.5,420.0 L455.3,420.0 L456.2,420.0 L457.0,420.0 L457.8,420.0 L458.7,420.0 L459.5,420.0 L460.4,420.0 L461.2,420.0 L462.0,420.0 L462.9,420.0 L463.7,420.0 L464.6,420.0 L465.4,420.0 L466.3,420.0 L467.1,420.0 L467.9,420.0 L468.8,420.0 L469.6,420.0 L470.5,420.0 L471.3,420.0 L472.1,420.0 L473.0,420.0 L473.8,420.0 L474.7,420.0 L475.5,420.0 L476.4,420.0 L477.2,420.0 L478.0,420.0 L478.9,420.0 L479.7,420.0 L480.6,420.0 L481.4,420.0 L482.2,420.0 L483.1,420.0 L483.9,420.0 L484.8,420.0 L485.6,420.0 L486.5,420.0 L487.3,420.0 L488.1,420.0 L489.0,420.0 L489.8,420.0 L490.7,420.0 L491.5,420.0 L492.3,420.0 L493.2,420.0 L494.0,420.0 L494.9,420.0 L495.7,420.0 L496.5,420.0 L497.4,420.0 L498.2,420.0 L499.1,420.0 L499.9,420.0 L500.8,420.0 L501.6,420.0 L502.4,420.0 L503.3,420.0 L504.1,420.0 L505.0,420.0 L505.8,420.0 L506.6,420.0 L507.5,420.0 L508.3,420.0 L509.2,420.0 L510.0,420.0 L510.9,420.0 L511.7,420.0 L512.5,420.0 L513.4,420.0 L514.2,420.0 L515.1,420.0 L515.9,420.0 L516.7,420.0 L517.6,420.0 L518.4,420.0 L519.3,420.0 L520.1,420.0 L521.0,420.0 L521.8,420.0 L522.6,420.0 L523.5,420.0 L524.3,420.0 L525.2,420.0 L526.0,420.0 L526.8,420.0 L527.7,420.0 L528.5,420.0 L529.4,420.0 L530.2,420.0 L531.1,420.0 L531.9,420.0 L532.7,420.0 L533.6,420.0 L534.4,420.0 L535.3,420.0 L536.1,420.0 L536.9,420.0 L537.8,420.0 L538.6,420.0 L539.5,420.0 L540.3,420.0 L541.2,420.0 L542.0,420.0 L542.8,420.0 L543.7,420.0 L544.5,420.0 L545.4,420.0 L546.2,420.0 L547.0,420.0 L547.9,420.0 L548.7,420.0 L549.6,420.0 L550.4,420.0 L551.2,420.0 L552.1,420.0 L552.9,420.0 L553.8,420.0 L554.6,420.0 L555.5,420.0 L556.3,420.0 L557.1,420.0 L558.0,420.0 L558.8,420.0 L559.7,420.0 L560.5,420.0 L561.3,420.0 L562.2,420.0 L563.0,420.0 L563.9,420.0 L564.7,420.0 L565.6,420.0 L566.4,420.0 L567.2,420.0 L568.1,420.0 L568.9,420.0 L569.8,420.0 L570.6,420.0 L571.4,420.0 L572.3,420.0 L573.1,420.0 L574.0,420.0 L574.8,420.0 L575.7,420.0 L576.5,420.0 L577.3,420.0 L578.2,420.0 L579.0,420.0 L579.9,420.0 L580.7,420.0 L581.5,420.0 L582.4,420.0 L583.2,420.0 L584.1,420.0 L584.9,420.0 L585.8,420.0 L586.6,420.0 L587.4,420.0 L588.3,420.0 L589.1,420.0 L590.0,420.0 L590.8,420.0 L591.6,420.0 L592.5,420.0 L593.3,420.0 L594.2,420.0 L595.0,420.0 L595.8,420.0 L596.7,420.0 L597.5,420.0 L598.4,420.0 L599.2,420.0 L600.1,420.0 L600.9,420.0 L601.7,420.0 L602.6,420.0 L603.4,420.0 L604.3,420.0 L605.1,420.0 L605.9,420.0 L606.8,420.0 L607.6,420.0 L608.5,420.0 L609.3,420.0 L610.2,420.0 L611.0,420.0 L611.8,420.0 L612.7,420.0 L613.5,420.0 L614.4,420.0 L615.2,420.0 L616.0,420.0 L616.9,420.0 L617.7,420.0 L618.6,420.0 L619.4,420.0 L620.3,420.0 L621.1,420.0 L621.9,420.0 L622.8,420.0 L623.6,420.0 L624.5,420.0 L625.3,420.0 L626.1,420.0 L627.0,420.0 L627.8,420.0 L628.7,420.0 L629.5,420.0 L630.4,420.0 L631.2,420.0 L632.0,420.0 L632.9,420.0 L633.7,420.0 L634.6,420.0 L635.4,420.0 L636.2,420.0 L637.1,420.0 L637.9,420.0 L638.8,420.0 L639.6,420.0 L640.4,420.0 L641.3,420.0 L642.1,420.0 L643.0,420.0 L643.8,420.0 L644.7,420.0 L645.5,420.0 L646.3,420.0 L647.2,420.0 L648.0,420.0 L648.9,420.0 L649.7,420.0 L650.5,420.0 L651.4,420.0 L652.2,420.0 L653.1,420.0 L653.9,420.0 L654.8,420.0 L655.6,420.0 L656.4,420.0 L657.3,420.0 L658.1,420.0 L659.0,420.0 L659.8,420.0 L660.6,420.0 L661.5,420.0 L662.3,420.0 L663.2,420.0 L664.0,420.0 L664.9,420.0 L665.7,420.0 L666.5,420.0 L667.4,420.0 L668.2,420.0 L669.1,420.0 L669.9,420.0 L670.7,420.0 L671.6,420.0 L672.4,420.0 L673.3,420.0 L674.1,420.0 L675.0,420.0 L675.8,420.0 L676.6,420.0 L677.5,420.0 L678.3,420.0 L679.2,420.0 L680.0,420.0" stroke="#e377c2" stroke-width="2" fill="none" opacity="0.8"/>

<!-- Legend -->
<line x1="690" y1="70" x2="705" y2="70" stroke="#1f77b4" stroke-width="3"/>
<text x="710" y="74" class="legend">Wind Generation</text>
<line x1="690" y1="88" x2="705" y2="88" stroke="#ff7f0e" stroke-width="3"/>
<text x="710" y="92" class="legend">Hydro Generation</text>
<line x1="690" y1="106" x2="705" y2="106" stroke="#2ca02c" stroke-width="3"/>
<text x="710" y="110" class="legend">Thermal Generation</text>
<line x1="690" y1="124" x2="705" y2="124" stroke="#d62728" stroke-width="3"/>
<text x="710" y="128" class="legend">Solar Generation</text>
<line x1="690" y1="142" x2="705" y2="142" stroke="#9467bd" stroke-width="3"/>
<text x="710" y="146" class="legend">Forecast</text>
<line x1="690" y1="160" x2="705" y2="160" stroke="#8c564b" stroke-width="3"/>
<text x="710" y="164" class="legend">Total Generation</text>
<line x1="690" y1="178" x2="705" y2="178" stroke="#e377c2" stroke-width="3"/>
<text x="710" y="182" class="legend">Forecast Difference</text>

<!-- Date range -->
<text x="80" y="495" class="legend">Range: 05/27 - 06/26/2026 (714 records)</text>
</svg>