<?xml version="1.0" encoding="UTF-8"?>
<svg width="800" height="500" xmlns="http://www.w3.org/2000/svg">
<style>
.axis-line { stroke: #333; stroke-width: 1; }
.grid-line { stroke: #ddd; stroke-width: 0.5; }
.title { font: 16px Arial; text-anchor: middle; fill: #333; }
.axis-label { font: 12px Arial; text-anchor: middle; fill: #666; }
.legend { font: 10px Arial; fill: #333; }
</style>

<!-- Title -->
<text x="400.0" y="25" class="title">Northwestern Energy Generation Data - Past 30 Days</text>

<!-- Plot area background -->
<rect x="80" y="50" width="600" height="370" fill="white" stroke="#ddd"/>

<!-- Y-axis -->
<line x1="80" y1="50" x2="80" y2="420" class="axis-line"/>
<text x="30" y="235.0" class="axis-label" transform="rotate(-90, 30, 235.0)">Generation (MW)</text>

<!-- X-axis -->
<line x1="80" y1="420" x2="680" y2="420" class="axis-line"/>
<text x="380.0" y="480" class="axis-label">Time</text>
<line x1="80" y1="420.0" x2="680" y2="420.0" class="grid-line"/>
<text x="70" y="425.0" class="legend" text-anchor="end">0</text>
<line x1="80" y1="327.5" x2="680" y2="327.5" class="grid-line"/>
<text x="70" y="332.5" class="legend" text-anchor="end">333</text>
<line x1="80" y1="235.0" x2="680" y2="235.0" class="grid-line"/>
<text x="70" y="240.0" class="legend" text-anchor="end">667</text>
<line x1="80" y1="142.5" x2="680" y2="142.5" class="grid-line"/>
<text x="70" y="147.5" class="legend" text-anchor="end">1000</text>
<line x1="80" y1="50.0" x2="680" y2="50.0" class="grid-line"/>
<text x="70" y="55.0" class="legend" text-anchor="end">1334</text>
<!-- Wind Generation -->
<path d="M80.0,403.1 L80.8,408.3 L81.7,417.8 L82.5,418.1 L83.4,416.9 L84.2,417.8 L85.0,418.6 L85.9,418.9 L86.7,417.5 L87.6,415.6 L88.4,410.3 L89.3,395.3 L90.1,389.5 L90.9,393.1 L91.8,398.6 L92.6,403.6 L93.5,413.1 L94.3,415.0 L95.1,415.0 L96.0,411.7 L96.8,398.9 L97.7,390.6 L98.5,380.3 L99.4,355.9 L100.2,357.8 L101.0,399.5 L101.9,407.2 L102.7,408.1 L103.6,407.2 L104.4,400.3 L105.2,364.8 L106.1,359.8 L106.9,352.6 L107.8,354.8 L108.6,372.3 L109.5,379.2 L110.3,385.9 L111.1,392.5 L112.0,392.3 L112.8,391.7 L113.7,388.6 L114.5,389.8 L115.3,378.1 L116.2,394.8 L117.0,382.3 L117.9,382.5 L118.7,355.9 L119.6,377.3 L120.4,383.4 L121.2,400.0 L122.1,392.0 L122.9,397.8 L123.8,393.4 L124.6,409.2 L125.4,412.8 L126.3,413.3 L127.1,419.7 L128.0,420.0 L128.8,417.8 L129.6,418.1 L130.5,420.0 L131.3,417.2 L132.2,416.7 L133.0,412.2 L133.9,416.1 L134.7,413.9 L135.5,408.9 L136.4,395.3 L137.2,392.8 L138.1,396.1 L138.9,395.0 L139.7,390.0 L140.6,393.9 L141.4,405.6 L142.3,403.1 L143.1,399.7 L144.0,407.8 L144.8,412.5 L145.6,411.7 L146.5,415.3 L147.3,419.4 L148.2,418.6 L149.0,419.7 L149.8,419.4 L150.7,419.2 L151.5,418.1 L152.4,416.9 L153.2,412.5 L154.1,412.8 L154.9,411.1 L155.7,410.8 L156.6,412.2 L157.4,412.0 L158.3,410.8 L159.1,401.4 L159.9,407.5 L160.8,393.1 L161.6,407.2 L162.5,398.6 L163.3,385.3 L164.2,386.1 L165.0,377.5 L165.8,350.9 L166.7,372.3 L167.5,367.0 L168.4,366.2 L169.2,369.5 L170.0,388.4 L170.9,406.1 L171.7,408.6 L172.6,410.8 L173.4,393.4 L174.2,378.9 L175.1,368.4 L175.9,365.9 L176.8,363.7 L177.6,371.2 L178.5,378.4 L179.3,378.7 L180.1,383.7 L181.0,398.6 L181.8,407.0 L182.7,404.2 L183.5,403.4 L184.3,409.7 L185.2,404.2 L186.0,408.6 L186.9,414.2 L187.7,411.1 L188.6,410.6 L189.4,409.7 L190.2,413.1 L191.1,410.3 L191.9,415.6 L192.8,410.6 L193.6,403.9 L194.4,408.1 L195.3,402.0 L196.1,393.9 L197.0,384.2 L197.8,382.5 L198.7,391.4 L199.5,398.4 L200.3,408.3 L201.2,413.3 L202.0,418.1 L202.9,397.5 L203.7,401.1 L204.5,400.3 L205.4,406.7 L206.2,402.2 L207.1,408.1 L207.9,407.5 L208.8,413.9 L209.6,415.8 L210.4,418.9 L211.3,418.6 L212.1,419.7 L213.0,417.8 L213.8,416.4 L214.6,403.9 L215.5,402.5 L216.3,392.0 L217.2,391.4 L218.0,392.3 L218.8,392.8 L219.7,395.6 L220.5,393.6 L221.4,393.6 L222.2,399.5 L223.1,412.5 L223.9,407.0 L224.7,391.1 L225.6,390.9 L226.4,388.6 L227.3,377.0 L228.1,373.4 L228.9,394.2 L229.8,407.8 L230.6,405.0 L231.5,402.0 L232.3,408.1 L233.2,404.2 L234.0,402.2 L234.8,402.5 L235.7,405.3 L236.5,403.6 L237.4,385.9 L238.2,389.2 L239.0,383.1 L239.9,368.1 L240.7,379.8 L241.6,363.1 L242.4,368.7 L243.3,350.6 L244.1,355.9 L244.9,365.3 L245.8,361.2 L246.6,368.1 L247.5,372.0 L248.3,384.5 L249.1,393.1 L250.0,412.2 L250.8,418.9 L251.7,420.0 L252.5,420.0 L253.4,420.0 L254.2,417.8 L255.0,415.8 L255.9,413.6 L256.7,412.8 L257.6,412.2 L258.4,413.3 L259.2,416.1 L260.1,415.8 L260.9,410.8 L261.8,412.2 L262.6,384.8 L263.5,402.0 L264.3,405.8 L265.1,399.2 L266.0,405.0 L266.8,410.6 L267.7,411.7 L268.5,391.4 L269.3,383.4 L270.2,387.3 L271.0,389.5 L271.9,401.4 L272.7,412.5 L273.5,412.5 L274.4,414.2 L275.2,410.0 L276.1,407.0 L276.9,397.2 L277.8,393.9 L278.6,391.4 L279.4,399.2 L280.3,388.9 L281.1,357.8 L282.0,374.5 L282.8,380.9 L283.6,369.8 L284.5,371.7 L285.3,366.4 L286.2,401.1 L287.0,408.6 L287.9,410.0 L288.7,414.7 L289.5,405.6 L290.4,412.0 L291.2,412.8 L292.1,412.0 L292.9,404.2 L293.7,402.2 L294.6,403.4 L295.4,412.8 L296.3,415.3 L297.1,419.4 L298.0,410.6 L298.8,418.9 L299.6,420.0 L300.5,420.0 L301.3,419.4 L302.2,416.7 L303.0,412.5 L303.8,413.1 L304.7,416.1 L305.5,418.3 L306.4,420.0 L307.2,420.0 L308.1,420.0 L308.9,420.0 L309.7,419.7 L310.6,418.6 L311.4,418.6 L312.3,418.6 L313.1,417.8 L313.9,413.6 L314.8,410.3 L315.6,406.1 L316.5,402.5 L317.3,396.7 L318.1,388.6 L319.0,387.0 L319.8,378.7 L320.7,367.8 L321.5,377.5 L322.4,385.9 L323.2,375.1 L324.0,378.9 L324.9,382.3 L325.7,407.2 L326.6,413.3 L327.4,416.4 L328.2,416.4 L329.1,417.2 L329.9,417.8 L330.8,418.3 L331.6,417.2 L332.5,418.6 L333.3,419.4 L334.1,418.1 L335.0,417.2 L335.8,416.9 L336.7,411.7 L337.5,414.2 L338.3,406.7 L339.2,393.4 L340.0,390.9 L340.9,383.1 L341.7,383.7 L342.6,383.9 L343.4,374.2 L344.2,387.3 L345.1,383.4 L345.9,395.9 L346.8,403.6 L347.6,388.4 L348.4,388.6 L349.3,405.6 L350.1,395.9 L351.0,408.1 L351.8,392.0 L352.7,402.8 L353.5,403.9 L354.3,393.9 L355.2,396.4 L356.0,403.9 L356.9,406.4 L357.7,410.8 L358.5,414.7 L359.4,407.5 L360.2,412.2 L361.1,405.8 L361.9,410.0 L362.7,402.2 L363.6,407.2 L364.4,390.3 L365.3,380.9 L366.1,372.3 L367.0,389.2 L367.8,381.7 L368.6,383.9 L369.5,392.5 L370.3,363.7 L371.2,359.8 L372.0,348.1 L372.8,370.1 L373.7,372.3 L374.5,372.6 L375.4,369.5 L376.2,378.1 L377.1,371.2 L377.9,347.0 L378.7,334.5 L379.6,345.1 L380.4,362.3 L381.3,359.5 L382.1,360.1 L382.9,357.8 L383.8,371.4 L384.6,377.8 L385.5,399.2 L386.3,394.2 L387.2,403.6 L388.0,409.5 L388.8,417.2 L389.7,420.0 L390.5,418.9 L391.4,419.4 L392.2,410.6 L393.0,403.9 L393.9,399.2 L394.7,403.4 L395.6,401.4 L396.4,405.3 L397.3,404.7 L398.1,401.4 L398.9,390.0 L399.8,382.3 L400.6,383.9 L401.5,379.2 L402.3,381.7 L403.1,382.3 L404.0,378.1 L404.8,378.7 L405.7,381.4 L406.5,376.7 L407.3,394.5 L408.2,398.6 L409.0,398.1 L409.9,399.5 L410.7,395.6 L411.6,398.4 L412.4,398.4 L413.2,406.4 L414.1,416.7 L414.9,412.8 L415.8,407.0 L416.6,404.5 L417.4,405.3 L418.3,405.0 L419.1,405.6 L420.0,403.4 L420.8,400.0 L421.7,403.1 L422.5,394.8 L423.3,376.2 L424.2,368.9 L425.0,365.9 L425.9,365.6 L426.7,371.2 L427.5,395.3 L428.4,413.6 L429.2,418.9 L430.1,419.2 L430.9,419.7 L431.8,420.0 L432.6,420.0 L433.4,420.0 L434.3,420.0 L435.1,420.0 L436.0,420.0 L436.8,420.0 L437.6,419.7 L438.5,419.2 L439.3,417.2 L440.2,415.8 L441.0,414.2 L441.9,408.3 L442.7,404.5 L443.5,388.1 L444.4,397.8 L445.2,402.5 L446.1,406.1 L446.9,416.7 L447.7,416.4 L448.6,410.6 L449.4,412.2 L450.3,414.2 L451.1,415.8 L451.9,409.7 L452.8,404.5 L453.6,407.2 L454.5,409.7 L455.3,408.3 L456.2,409.7 L457.0,413.6 L457.8,412.2 L458.7,411.4 L459.5,389.8 L460.4,375.9 L461.2,388.9 L462.0,395.6 L462.9,402.2 L463.7,405.8 L464.6,412.5 L465.4,415.0 L466.3,407.8 L467.1,406.7 L467.9,399.2 L468.8,395.3 L469.6,350.6 L470.5,383.4 L471.3,403.9 L472.1,393.1 L473.0,398.1 L473.8,389.2 L474.7,376.2 L475.5,373.4 L476.4,372.0 L477.2,369.8 L478.0,360.9 L478.9,365.6 L479.7,340.4 L480.6,341.8 L481.4,342.6 L482.2,352.3 L483.1,369.5 L483.9,375.6 L484.8,384.8 L485.6,385.9 L486.5,404.7 L487.3,418.3 L488.1,418.9 L489.0,406.7 L489.8,407.0 L490.7,401.7 L491.5,398.6 L492.3,403.6 L493.2,405.3 L494.0,414.7 L494.9,418.6 L495.7,419.2 L496.5,418.6 L497.4,418.6 L498.2,413.1 L499.1,397.2 L499.9,399.5 L500.8,397.5 L501.6,379.2 L502.4,397.8 L503.3,396.4 L504.1,378.7 L505.0,402.8 L505.8,402.8 L506.6,391.1 L507.5,381.4 L508.3,397.5 L509.2,400.6 L510.0,407.0 L510.9,410.3 L511.7,393.9 L512.5,395.6 L513.4,392.8 L514.2,405.6 L515.1,402.2 L515.9,406.7 L516.7,414.5 L517.6,416.9 L518.4,412.2 L519.3,414.7 L520.1,415.8 L521.0,393.4 L521.8,397.0 L522.6,397.5 L523.5,401.4 L524.3,413.3 L525.2,402.8 L526.0,393.9 L526.8,393.4 L527.7,409.7 L528.5,416.9 L529.4,415.8 L530.2,418.9 L531.1,388.9 L531.9,380.0 L532.7,358.7 L533.6,358.4 L534.4,366.7 L535.3,377.8 L536.1,393.4 L536.9,394.5 L537.8,403.9 L538.6,413.1 L539.5,417.8 L540.3,418.6 L541.2,413.3 L542.0,411.7 L542.8,410.8 L543.7,400.6 L544.5,407.8 L545.4,407.8 L546.2,403.6 L547.0,385.0 L547.9,403.1 L548.7,413.9 L549.6,412.2 L550.4,393.6 L551.2,374.8 L552.1,375.6 L552.9,395.9 L553.8,408.6 L554.6,412.8 L555.5,418.6 L556.3,418.6 L557.1,415.0 L558.0,414.5 L558.8,412.5 L559.7,415.8 L560.5,416.7 L561.3,418.6 L562.2,402.5 L563.0,400.3 L563.9,400.9 L564.7,399.2 L565.6,403.9 L566.4,388.4 L567.2,407.0 L568.1,412.2 L568.9,404.2 L569.8,403.4 L570.6,400.9 L571.4,410.3 L572.3,394.8 L573.1,384.8 L574.0,387.8 L574.8,388.1 L575.7,393.1 L576.5,399.2 L577.3,401.7 L578.2,412.0 L579.0,418.1 L579.9,419.2 L580.7,418.1 L581.5,414.2 L582.4,400.6 L583.2,380.0 L584.1,387.8 L584.9,409.7 L585.8,393.9 L586.6,377.0 L587.4,391.1 L588.3,390.9 L589.1,409.7 L590.0,409.7 L590.8,410.0 L591.6,408.1 L592.5,402.2 L593.3,390.0 L594.2,400.0 L595.0,411.7 L595.8,412.8 L596.7,414.7 L597.5,414.5 L598.4,412.8 L599.2,415.8 L600.1,417.8 L600.9,412.0 L601.7,405.6 L602.6,405.6 L603.4,402.8 L604.3,392.8 L605.1,398.1 L605.9,389.5 L606.8,391.4 L607.6,397.8 L608.5,383.1 L609.3,323.2 L610.2,342.6 L611.0,371.2 L611.8,367.3 L612.7,364.8 L613.5,372.0 L614.4,387.0 L615.2,385.3 L616.0,396.7 L616.9,402.8 L617.7,388.6 L618.6,394.5 L619.4,399.5 L620.3,405.0 L621.1,400.3 L621.9,407.0 L622.8,407.2 L623.6,410.3 L624.5,413.3 L625.3,412.0 L626.1,399.5 L627.0,405.3 L627.8,400.3 L628.7,402.2 L629.5,408.6 L630.4,415.6 L631.2,419.7 L632.0,420.0 L632.9,420.0 L633.7,420.0 L634.6,420.0 L635.4,420.0 L636.2,418.3 L637.1,419.2 L637.9,418.9 L638.8,412.8 L639.6,393.6 L640.4,385.6 L641.3,379.2 L642.1,388.4 L643.0,382.8 L643.8,388.4 L644.7,380.3 L645.5,376.2 L646.3,377.8 L647.2,354.0 L648.0,350.9 L648.9,356.5 L649.7,339.5 L650.5,340.4 L651.4,336.5 L652.2,361.5 L653.1,365.9 L653.9,338.4 L654.8,347.0 L655.6,341.5 L656.4,367.8 L657.3,362.6 L658.1,368.4 L659.0,380.0 L659.8,367.3 L660.6,373.4 L661.5,373.7 L662.3,373.4 L663.2,364.5 L664.0,360.9 L664.9,335.9 L665.7,330.4 L666.5,344.3 L667.4,352.0 L668.2,360.3 L669.1,346.7 L669.9,339.0 L670.7,345.1 L671.6,334.5 L672.4,344.5 L673.3,336.2 L674.1,319.3 L675.0,328.2 L675.8,325.7 L676.6,326.2 L677.5,338.7 L678.3,352.0 L679.2,355.9 L680.0,354.2" stroke="#1f77b4" stroke-width="2" fill="none" opacity="0.8"/>
<!-- Hydro Generation -->
<path d="M80.0,318.4 L80.8,318.4 L81.7,318.2 L82.5,319.6 L83.4,319.8 L84.2,320.1 L85.0,320.9 L85.9,320.9 L86.7,321.8 L87.6,322.6 L88.4,323.2 L89.3,322.9 L90.1,323.2 L90.9,323.4 L91.8,323.4 L92.6,322.1 L93.5,322.6 L94.3,322.1 L95.1,322.3 L96.0,322.3 L96.8,322.1 L97.7,321.8 L98.5,321.5 L99.4,321.8 L100.2,322.1 L101.0,320.4 L101.9,320.4 L102.7,320.4 L103.6,320.9 L104.4,320.7 L105.2,320.7 L106.1,320.9 L106.9,320.7 L107.8,320.9 L108.6,320.9 L109.5,320.7 L110.3,321.5 L111.1,321.2 L112.0,321.2 L112.8,321.2 L113.7,322.1 L114.5,324.0 L115.3,322.9 L116.2,324.0 L117.0,325.1 L117.9,327.0 L118.7,327.6 L119.6,327.3 L120.4,327.0 L121.2,328.4 L122.1,328.4 L122.9,328.2 L123.8,328.4 L124.6,328.2 L125.4,327.3 L126.3,326.8 L127.1,327.0 L128.0,327.0 L128.8,326.2 L129.6,326.2 L130.5,325.4 L131.3,325.7 L132.2,325.7 L133.0,325.4 L133.9,325.7 L134.7,325.7 L135.5,325.1 L136.4,325.4 L137.2,325.9 L138.1,325.9 L138.9,325.9 L139.7,325.9 L140.6,325.9 L141.4,325.1 L142.3,325.4 L143.1,325.1 L144.0,326.5 L144.8,326.5 L145.6,326.2 L146.5,326.5 L147.3,327.6 L148.2,327.6 L149.0,327.3 L149.8,327.3 L150.7,327.3 L151.5,327.0 L152.4,327.3 L153.2,327.0 L154.1,327.0 L154.9,327.3 L155.7,327.0 L156.6,327.0 L157.4,327.0 L158.3,327.0 L159.1,327.0 L159.9,326.5 L160.8,325.9 L161.6,326.2 L162.5,325.9 L163.3,325.9 L164.2,325.7 L165.0,325.7 L165.8,325.7 L166.7,325.9 L167.5,326.8 L168.4,326.8 L169.2,326.8 L170.0,326.8 L170.9,326.5 L171.7,326.8 L172.6,326.8 L173.4,326.8 L174.2,327.3 L175.1,327.6 L175.9,327.6 L176.8,327.3 L177.6,327.6 L178.5,327.6 L179.3,327.0 L180.1,326.8 L181.0,326.8 L181.8,326.8 L182.7,326.8 L183.5,326.2 L184.3,326.5 L185.2,327.3 L186.0,326.8 L186.9,327.6 L187.7,327.9 L188.6,327.9 L189.4,327.6 L190.2,327.6 L191.1,327.9 L191.9,327.9 L192.8,327.3 L193.6,327.6 L194.4,328.2 L195.3,329.0 L196.1,329.0 L197.0,328.7 L197.8,328.7 L198.7,328.7 L199.5,329.0 L200.3,329.0 L201.2,329.0 L202.0,329.0 L202.9,329.3 L203.7,329.3 L204.5,328.7 L205.4,329.5 L206.2,329.5 L207.1,330.9 L207.9,331.2 L208.8,331.8 L209.6,332.0 L210.4,332.3 L211.3,331.8 L212.1,333.7 L213.0,334.3 L213.8,335.1 L214.6,335.4 L215.5,336.2 L216.3,335.9 L217.2,336.2 L218.0,335.7 L218.8,335.7 L219.7,335.4 L220.5,335.7 L221.4,335.4 L222.2,334.3 L223.1,334.0 L223.9,334.3 L224.7,334.0 L225.6,334.0 L226.4,334.3 L227.3,333.7 L228.1,334.0 L228.9,334.0 L229.8,334.5 L230.6,334.0 L231.5,334.0 L232.3,334.3 L233.2,334.8 L234.0,334.8 L234.8,334.8 L235.7,336.8 L236.5,337.0 L237.4,336.8 L238.2,336.5 L239.0,336.5 L239.9,337.0 L240.7,336.8 L241.6,336.2 L242.4,335.7 L243.3,334.8 L244.1,335.4 L244.9,335.4 L245.8,335.1 L246.6,335.4 L247.5,335.7 L248.3,336.2 L249.1,336.2 L250.0,335.4 L250.8,335.7 L251.7,335.1 L252.5,334.8 L253.4,334.8 L254.2,335.1 L255.0,335.1 L255.9,335.9 L256.7,336.5 L257.6,336.5 L258.4,336.5 L259.2,336.2 L260.1,335.7 L260.9,335.9 L261.8,335.9 L262.6,335.9 L263.5,335.4 L264.3,334.5 L265.1,334.3 L266.0,334.8 L266.8,334.5 L267.7,334.5 L268.5,335.9 L269.3,335.9 L270.2,335.1 L271.0,335.4 L271.9,336.8 L272.7,336.5 L273.5,337.6 L274.4,337.0 L275.2,337.0 L276.1,337.9 L276.9,337.6 L277.8,338.1 L278.6,337.9 L279.4,337.6 L280.3,337.9 L281.1,337.3 L282.0,337.9 L282.8,339.3 L283.6,339.5 L284.5,339.3 L285.3,339.0 L286.2,339.5 L287.0,339.3 L287.9,339.3 L288.7,339.0 L289.5,337.3 L290.4,339.0 L291.2,339.3 L292.1,339.3 L292.9,339.8 L293.7,339.8 L294.6,340.1 L295.4,339.8 L296.3,340.4 L297.1,340.1 L298.0,340.4 L298.8,340.1 L299.6,340.4 L300.5,339.8 L301.3,340.1 L302.2,340.1 L303.0,340.4 L303.8,340.4 L304.7,340.4 L305.5,340.6 L306.4,340.9 L307.2,340.6 L308.1,340.9 L308.9,340.4 L309.7,342.0 L310.6,341.5 L311.4,341.8 L312.3,340.6 L313.1,341.2 L313.9,340.4 L314.8,340.9 L315.6,340.9 L316.5,342.0 L317.3,341.8 L318.1,341.5 L319.0,341.8 L319.8,341.5 L320.7,341.5 L321.5,341.2 L322.4,341.5 L323.2,341.8 L324.0,341.8 L324.9,341.5 L325.7,341.8 L326.6,342.0 L327.4,342.0 L328.2,342.3 L329.1,342.6 L329.9,342.3 L330.8,342.0 L331.6,342.3 L332.5,342.6 L333.3,342.3 L334.1,342.9 L335.0,343.4 L335.8,343.7 L336.7,344.8 L337.5,345.1 L338.3,344.8 L339.2,345.4 L340.0,345.6 L340.9,345.6 L341.7,345.9 L342.6,345.9 L343.4,345.9 L344.2,345.9 L345.1,345.9 L345.9,346.2 L346.8,346.2 L347.6,345.9 L348.4,346.5 L349.3,345.4 L350.1,345.6 L351.0,343.4 L351.8,343.7 L352.7,344.0 L353.5,343.4 L354.3,344.0 L355.2,343.4 L356.0,343.7 L356.9,345.1 L357.7,344.8 L358.5,344.3 L359.4,344.5 L360.2,342.9 L361.1,343.1 L361.9,343.7 L362.7,342.9 L363.6,341.8 L364.4,353.1 L365.3,340.9 L366.1,340.6 L367.0,340.6 L367.8,340.4 L368.6,340.4 L369.5,341.2 L370.3,341.2 L371.2,340.4 L372.0,340.6 L372.8,340.6 L373.7,340.6 L374.5,341.8 L375.4,341.5 L376.2,341.2 L377.1,342.3 L377.9,342.3 L378.7,342.6 L379.6,343.1 L380.4,342.9 L381.3,342.6 L382.1,342.9 L382.9,342.6 L383.8,342.0 L384.6,341.8 L385.5,340.9 L386.3,341.2 L387.2,340.6 L388.0,342.0 L388.8,340.4 L389.7,340.1 L390.5,340.4 L391.4,340.1 L392.2,339.8 L393.0,339.8 L393.9,340.9 L394.7,339.8 L395.6,340.1 L396.4,339.8 L397.3,341.2 L398.1,340.6 L398.9,340.4 L399.8,340.4 L400.6,349.2 L401.5,340.1 L402.3,340.4 L403.1,342.3 L404.0,342.0 L404.8,342.0 L405.7,343.7 L406.5,342.9 L407.3,343.4 L408.2,343.1 L409.0,341.8 L409.9,342.3 L410.7,342.9 L411.6,341.8 L412.4,342.0 L413.2,341.8 L414.1,342.0 L414.9,341.2 L415.8,340.6 L416.6,340.9 L417.4,342.3 L418.3,342.6 L419.1,343.1 L420.0,342.6 L420.8,342.3 L421.7,342.0 L422.5,342.6 L423.3,342.3 L424.2,343.4 L425.0,343.1 L425.9,343.1 L426.7,342.9 L427.5,342.0 L428.4,342.6 L429.2,342.9 L430.1,342.9 L430.9,344.0 L431.8,343.1 L432.6,343.1 L433.4,343.4 L434.3,342.3 L435.1,342.3 L436.0,342.0 L436.8,341.8 L437.6,343.1 L438.5,345.1 L439.3,344.5 L440.2,345.4 L441.0,345.9 L441.9,345.1 L442.7,345.4 L443.5,345.6 L444.4,346.2 L445.2,346.2 L446.1,345.6 L446.9,345.9 L447.7,346.2 L448.6,345.4 L449.4,345.4 L450.3,345.1 L451.1,344.8 L451.9,344.3 L452.8,344.5 L453.6,344.8 L454.5,345.4 L455.3,345.9 L456.2,346.2 L457.0,347.0 L457.8,348.4 L458.7,348.1 L459.5,347.6 L460.4,337.9 L461.2,347.3 L462.0,347.0 L462.9,347.6 L463.7,347.0 L464.6,347.3 L465.4,347.9 L466.3,348.7 L467.1,348.4 L467.9,347.6 L468.8,347.9 L469.6,347.3 L470.5,346.7 L471.3,346.7 L472.1,345.9 L473.0,346.2 L473.8,346.7 L474.7,347.0 L475.5,347.3 L476.4,347.6 L477.2,347.0 L478.0,349.2 L478.9,348.7 L479.7,349.2 L480.6,349.0 L481.4,349.2 L482.2,338.4 L483.1,347.9 L483.9,349.2 L484.8,350.4 L485.6,350.6 L486.5,351.2 L487.3,350.6 L488.1,350.6 L489.0,351.2 L489.8,349.2 L490.7,349.5 L491.5,349.2 L492.3,349.0 L493.2,349.0 L494.0,347.6 L494.9,347.9 L495.7,348.7 L496.5,349.0 L497.4,349.2 L498.2,350.4 L499.1,350.1 L499.9,354.5 L500.8,350.6 L501.6,350.9 L502.4,349.8 L503.3,349.0 L504.1,349.5 L505.0,353.7 L505.8,350.6 L506.6,348.7 L507.5,348.7 L508.3,347.3 L509.2,347.6 L510.0,347.3 L510.9,347.0 L511.7,348.4 L512.5,347.9 L513.4,349.0 L514.2,349.0 L515.1,349.0 L515.9,349.8 L516.7,350.6 L517.6,351.2 L518.4,353.7 L519.3,353.1 L520.1,353.4 L521.0,352.6 L521.8,351.7 L522.6,352.3 L523.5,353.4 L524.3,353.4 L525.2,350.6 L526.0,349.8 L526.8,349.2 L527.7,348.7 L528.5,349.0 L529.4,348.7 L530.2,348.7 L531.1,348.4 L531.9,348.4 L532.7,347.0 L533.6,347.3 L534.4,347.0 L535.3,347.6 L536.1,347.0 L536.9,347.0 L537.8,347.3 L538.6,348.4 L539.5,348.7 L540.3,349.8 L541.2,350.9 L542.0,350.6 L542.8,351.2 L543.7,351.2 L544.5,352.3 L545.4,353.4 L546.2,354.2 L547.0,353.1 L547.9,352.3 L548.7,352.3 L549.6,351.7 L550.4,352.3 L551.2,352.3 L552.1,352.3 L552.9,351.5 L553.8,351.5 L554.6,350.9 L555.5,350.1 L556.3,350.1 L557.1,348.4 L558.0,349.0 L558.8,351.5 L559.7,350.9 L560.5,349.5 L561.3,349.0 L562.2,349.2 L563.0,349.2 L563.9,348.1 L564.7,348.4 L565.6,349.0 L566.4,350.1 L567.2,351.5 L568.1,351.7 L568.9,350.9 L569.8,351.2 L570.6,351.5 L571.4,350.9 L572.3,351.5 L573.1,350.9 L574.0,351.2 L574.8,349.8 L575.7,350.1 L576.5,350.1 L577.3,350.1 L578.2,350.6 L579.0,349.2 L579.9,349.2 L580.7,349.2 L581.5,349.2 L582.4,348.7 L583.2,348.4 L584.1,347.9 L584.9,347.9 L585.8,348.1 L586.6,349.2 L587.4,349.2 L588.3,349.8 L589.1,350.6 L590.0,350.1 L590.8,350.6 L591.6,350.9 L592.5,350.9 L593.3,350.6 L594.2,350.6 L595.0,349.5 L595.8,350.1 L596.7,350.4 L597.5,350.9 L598.4,352.3 L599.2,354.0 L600.1,354.5 L600.9,353.4 L601.7,352.6 L602.6,352.3 L603.4,352.0 L604.3,352.0 L605.1,351.7 L605.9,352.3 L606.8,352.6 L607.6,352.9 L608.5,352.3 L609.3,352.3 L610.2,352.9 L611.0,353.1 L611.8,353.4 L612.7,354.0 L613.5,354.2 L614.4,353.4 L615.2,353.1 L616.0,353.4 L616.9,353.1 L617.7,353.1 L618.6,353.1 L619.4,352.9 L620.3,354.0 L621.1,353.7 L621.9,353.4 L622.8,353.1 L623.6,353.4 L624.5,352.6 L625.3,350.1 L626.1,349.5 L627.0,349.5 L627.8,349.5 L628.7,349.5 L629.5,351.2 L630.4,352.0 L631.2,351.7 L632.0,352.0 L632.9,352.0 L633.7,352.9 L634.6,351.2 L635.4,352.0 L636.2,351.7 L637.1,352.0 L637.9,352.0 L638.8,352.0 L639.6,352.3 L640.4,352.6 L641.3,351.7 L642.1,350.9 L643.0,351.5 L643.8,350.6 L644.7,350.9 L645.5,351.5 L646.3,350.4 L647.2,350.9 L648.0,350.9 L648.9,350.4 L649.7,350.9 L650.5,352.0 L651.4,352.0 L652.2,352.6 L653.1,352.6 L653.9,352.9 L654.8,352.0 L655.6,352.3 L656.4,352.3 L657.3,352.0 L658.1,352.9 L659.0,352.3 L659.8,352.9 L660.6,354.0 L661.5,354.2 L662.3,353.7 L663.2,354.2 L664.0,354.8 L664.9,354.0 L665.7,354.5 L666.5,353.7 L667.4,354.2 L668.2,354.5 L669.1,354.5 L669.9,354.2 L670.7,353.7 L671.6,354.0 L672.4,354.0 L673.3,353.7 L674.1,353.1 L675.0,353.1 L675.8,352.9 L676.6,353.4 L677.5,352.9 L678.3,352.6 L679.2,352.9 L680.0,353.1" stroke="#ff7f0e" stroke-width="2" fill="none" opacity="0.8"/>
<!-- Thermal Generation -->
<path d="M80.0,294.3 L80.8,267.7 L81.7,272.9 L82.5,294.6 L83.4,287.6 L84.2,365.3 L85.0,382.0 L85.9,382.0 L86.7,390.3 L87.6,383.1 L88.4,382.0 L89.3,382.0 L90.1,382.0 L90.9,381.4 L91.8,381.7 L92.6,381.7 L93.5,348.7 L94.3,326.5 L95.1,324.3 L96.0,317.6 L96.8,317.1 L97.7,303.5 L98.5,262.1 L99.4,267.7 L100.2,263.8 L101.0,263.5 L101.9,262.4 L102.7,266.3 L103.6,261.0 L104.4,261.0 L105.2,258.5 L106.1,260.2 L106.9,296.3 L107.8,340.6 L108.6,340.6 L109.5,339.5 L110.3,338.7 L111.1,319.8 L112.0,304.9 L112.8,317.3 L113.7,304.6 L114.5,284.3 L115.3,259.1 L116.2,258.8 L117.0,261.3 L117.9,261.3 L118.7,260.2 L119.6,261.0 L120.4,258.0 L121.2,256.9 L122.1,254.4 L122.9,254.4 L123.8,258.5 L124.6,245.2 L125.4,274.9 L126.3,274.1 L127.1,274.3 L128.0,294.3 L128.8,278.5 L129.6,286.3 L130.5,301.0 L131.3,299.0 L132.2,301.8 L133.0,287.1 L133.9,292.6 L134.7,292.4 L135.5,256.9 L136.4,257.1 L137.2,257.4 L138.1,259.3 L138.9,259.9 L139.7,259.6 L140.6,261.0 L141.4,257.4 L142.3,258.0 L143.1,253.8 L144.0,253.2 L144.8,252.1 L145.6,256.3 L146.5,281.5 L147.3,294.3 L148.2,268.5 L149.0,259.1 L149.8,256.9 L150.7,299.3 L151.5,297.6 L152.4,297.9 L153.2,296.8 L154.1,298.7 L154.9,296.8 L155.7,279.9 L156.6,275.2 L157.4,259.9 L158.3,255.7 L159.1,253.5 L159.9,258.0 L160.8,256.3 L161.6,252.1 L162.5,252.1 L163.3,249.9 L164.2,254.1 L165.0,254.1 L165.8,301.2 L166.7,300.7 L167.5,300.7 L168.4,301.0 L169.2,301.8 L170.0,300.4 L170.9,300.7 L171.7,300.4 L172.6,300.7 L173.4,305.4 L174.2,329.8 L175.1,314.6 L175.9,282.9 L176.8,304.3 L177.6,289.6 L178.5,291.0 L179.3,293.5 L180.1,304.3 L181.0,296.3 L181.8,259.9 L182.7,260.7 L183.5,257.1 L184.3,260.7 L185.2,260.7 L186.0,259.1 L186.9,284.0 L187.7,300.7 L188.6,300.7 L189.4,282.4 L190.2,284.9 L191.1,300.4 L191.9,298.7 L192.8,298.2 L193.6,297.9 L194.4,296.5 L195.3,285.7 L196.1,286.0 L197.0,272.1 L197.8,260.5 L198.7,268.5 L199.5,269.9 L200.3,274.9 L201.2,267.7 L202.0,268.5 L202.9,258.2 L203.7,257.7 L204.5,257.7 L205.4,278.5 L206.2,298.2 L207.1,297.1 L207.9,297.6 L208.8,297.4 L209.6,311.5 L210.4,311.5 L211.3,311.2 L212.1,311.5 L213.0,298.7 L213.8,311.2 L214.6,311.2 L215.5,311.0 L216.3,311.2 L217.2,298.2 L218.0,277.4 L218.8,281.0 L219.7,273.5 L220.5,272.9 L221.4,274.3 L222.2,273.8 L223.1,265.2 L223.9,259.3 L224.7,263.5 L225.6,277.1 L226.4,287.9 L227.3,302.6 L228.1,303.2 L228.9,303.2 L229.8,336.8 L230.6,337.3 L231.5,381.4 L232.3,381.4 L233.2,332.3 L234.0,289.9 L234.8,265.5 L235.7,268.8 L236.5,275.2 L237.4,286.3 L238.2,283.5 L239.0,283.5 L239.9,283.5 L240.7,283.8 L241.6,282.4 L242.4,281.3 L243.3,283.8 L244.1,267.7 L244.9,270.2 L245.8,267.9 L246.6,270.2 L247.5,267.1 L248.3,269.9 L249.1,272.1 L250.0,267.1 L250.8,266.0 L251.7,282.1 L252.5,262.4 L253.4,259.9 L254.2,264.9 L255.0,264.3 L255.9,267.9 L256.7,267.7 L257.6,270.7 L258.4,272.9 L259.2,272.9 L260.1,273.2 L260.9,272.1 L261.8,270.4 L262.6,268.5 L263.5,263.0 L264.3,263.0 L265.1,260.7 L266.0,258.0 L266.8,256.3 L267.7,260.2 L268.5,266.8 L269.3,280.7 L270.2,299.3 L271.0,289.9 L271.9,289.9 L272.7,286.5 L273.5,286.8 L274.4,274.6 L275.2,277.9 L276.1,272.1 L276.9,268.8 L277.8,271.8 L278.6,272.7 L279.4,269.1 L280.3,268.5 L281.1,267.9 L282.0,268.5 L282.8,269.9 L283.6,268.5 L284.5,267.7 L285.3,269.6 L286.2,260.7 L287.0,272.4 L287.9,280.7 L288.7,281.0 L289.5,325.9 L290.4,307.9 L291.2,316.2 L292.1,303.7 L292.9,307.6 L293.7,309.0 L294.6,284.0 L295.4,283.2 L296.3,266.3 L297.1,270.2 L298.0,260.2 L298.8,269.6 L299.6,264.9 L300.5,262.7 L301.3,262.4 L302.2,262.4 L303.0,252.1 L303.8,252.1 L304.7,251.6 L305.5,252.4 L306.4,252.1 L307.2,263.2 L308.1,266.6 L308.9,271.3 L309.7,266.0 L310.6,256.0 L311.4,260.2 L312.3,264.3 L313.1,261.8 L313.9,256.6 L314.8,252.4 L315.6,253.0 L316.5,259.1 L317.3,258.8 L318.1,266.8 L319.0,266.3 L319.8,265.5 L320.7,265.5 L321.5,265.5 L322.4,266.0 L323.2,265.5 L324.0,260.7 L324.9,250.5 L325.7,275.2 L326.6,281.8 L327.4,288.8 L328.2,299.3 L329.1,299.3 L329.9,299.3 L330.8,299.6 L331.6,299.3 L332.5,299.9 L333.3,295.1 L334.1,295.1 L335.0,285.7 L335.8,286.8 L336.7,278.8 L337.5,278.2 L338.3,275.2 L339.2,268.8 L340.0,266.8 L340.9,284.6 L341.7,276.0 L342.6,296.3 L343.4,296.3 L344.2,296.5 L345.1,296.3 L345.9,281.3 L346.8,299.6 L347.6,298.7 L348.4,298.7 L349.3,299.3 L350.1,298.7 L351.0,298.7 L351.8,298.5 L352.7,295.4 L353.5,322.6 L354.3,323.2 L355.2,322.9 L356.0,294.6 L356.9,297.4 L357.7,297.1 L358.5,297.6 L359.4,297.1 L360.2,297.6 L361.1,297.4 L361.9,287.6 L362.7,287.9 L363.6,297.1 L364.4,306.5 L365.3,295.4 L366.1,284.0 L367.0,299.9 L367.8,298.5 L368.6,299.3 L369.5,310.1 L370.3,299.3 L371.2,299.0 L372.0,326.5 L372.8,327.0 L373.7,327.0 L374.5,296.8 L375.4,296.5 L376.2,296.3 L377.1,296.5 L377.9,278.5 L378.7,261.8 L379.6,264.9 L380.4,274.1 L381.3,262.4 L382.1,262.4 L382.9,261.6 L383.8,261.8 L384.6,262.4 L385.5,251.3 L386.3,250.5 L387.2,249.9 L388.0,249.6 L388.8,248.2 L389.7,247.4 L390.5,251.9 L391.4,248.2 L392.2,249.9 L393.0,247.7 L393.9,247.7 L394.7,247.7 L395.6,248.8 L396.4,248.2 L397.3,249.1 L398.1,259.3 L398.9,259.3 L399.8,258.5 L400.6,259.9 L401.5,261.6 L402.3,261.3 L403.1,262.1 L404.0,260.5 L404.8,253.8 L405.7,257.4 L406.5,249.6 L407.3,249.4 L408.2,248.8 L409.0,249.1 L409.9,248.8 L410.7,248.8 L411.6,248.8 L412.4,250.2 L413.2,252.7 L414.1,255.2 L414.9,253.8 L415.8,254.6 L416.6,249.6 L417.4,249.9 L418.3,261.3 L419.1,259.6 L420.0,261.0 L420.8,261.3 L421.7,258.2 L422.5,258.5 L423.3,258.8 L424.2,248.2 L425.0,247.4 L425.9,243.3 L426.7,243.3 L427.5,245.2 L428.4,244.4 L429.2,244.1 L430.1,243.0 L430.9,244.1 L431.8,244.1 L432.6,244.6 L433.4,244.4 L434.3,245.5 L435.1,249.9 L436.0,290.4 L436.8,290.7 L437.6,290.1 L438.5,291.0 L439.3,253.8 L440.2,255.5 L441.0,253.2 L441.9,254.9 L442.7,252.7 L443.5,255.7 L444.4,256.3 L445.2,247.4 L446.1,245.5 L446.9,247.1 L447.7,246.6 L448.6,245.8 L449.4,262.4 L450.3,274.6 L451.1,266.0 L451.9,245.5 L452.8,251.6 L453.6,286.8 L454.5,290.7 L455.3,290.1 L456.2,290.7 L457.0,281.0 L457.8,281.3 L458.7,272.9 L459.5,259.1 L460.4,255.5 L461.2,251.6 L462.0,253.5 L462.9,251.3 L463.7,251.6 L464.6,252.4 L465.4,251.3 L466.3,244.4 L467.1,249.1 L467.9,242.7 L468.8,242.1 L469.6,242.4 L470.5,247.4 L471.3,247.1 L472.1,248.2 L473.0,248.2 L473.8,261.8 L474.7,268.5 L475.5,260.2 L476.4,246.6 L477.2,250.7 L478.0,254.9 L478.9,254.6 L479.7,254.6 L480.6,254.4 L481.4,256.6 L482.2,270.4 L483.1,270.2 L483.9,269.9 L484.8,270.4 L485.6,270.4 L486.5,266.8 L487.3,265.2 L488.1,260.2 L489.0,260.7 L489.8,260.7 L490.7,265.7 L491.5,252.4 L492.3,252.1 L493.2,252.1 L494.0,277.4 L494.9,278.2 L495.7,252.7 L496.5,253.5 L497.4,257.4 L498.2,260.5 L499.1,264.6 L499.9,273.2 L500.8,267.9 L501.6,269.6 L502.4,272.4 L503.3,272.1 L504.1,271.0 L505.0,279.6 L505.8,291.3 L506.6,298.5 L507.5,274.9 L508.3,266.6 L509.2,274.6 L510.0,274.1 L510.9,273.8 L511.7,274.1 L512.5,274.6 L513.4,274.1 L514.2,286.5 L515.1,283.8 L515.9,276.6 L516.7,280.7 L517.6,269.1 L518.4,267.7 L519.3,269.1 L520.1,267.7 L521.0,268.8 L521.8,264.9 L522.6,289.6 L523.5,264.9 L524.3,276.8 L525.2,274.1 L526.0,274.9 L526.8,262.7 L527.7,263.0 L528.5,258.8 L529.4,259.3 L530.2,256.0 L531.1,258.0 L531.9,257.7 L532.7,260.7 L533.6,260.7 L534.4,256.0 L535.3,253.2 L536.1,258.5 L536.9,259.1 L537.8,258.8 L538.6,258.8 L539.5,261.0 L540.3,263.5 L541.2,263.2 L542.0,262.4 L542.8,263.0 L543.7,262.7 L544.5,263.2 L545.4,262.1 L546.2,262.7 L547.0,262.4 L547.9,261.3 L548.7,261.6 L549.6,263.0 L550.4,263.5 L551.2,254.1 L552.1,256.3 L552.9,253.8 L553.8,256.3 L554.6,275.2 L555.5,293.2 L556.3,284.3 L557.1,286.8 L558.0,290.1 L558.8,291.0 L559.7,287.6 L560.5,266.0 L561.3,268.8 L562.2,267.9 L563.0,266.6 L563.9,267.1 L564.7,268.8 L565.6,266.0 L566.4,266.3 L567.2,265.7 L568.1,268.2 L568.9,264.6 L569.8,264.3 L570.6,276.3 L571.4,283.5 L572.3,276.0 L573.1,262.4 L574.0,260.2 L574.8,262.1 L575.7,258.8 L576.5,268.2 L577.3,282.4 L578.2,285.7 L579.0,276.8 L579.9,267.1 L580.7,272.1 L581.5,273.5 L582.4,272.9 L583.2,274.3 L584.1,270.4 L584.9,271.0 L585.8,260.2 L586.6,258.8 L587.4,259.1 L588.3,256.0 L589.1,256.3 L590.0,256.0 L590.8,256.0 L591.6,258.0 L592.5,257.4 L593.3,262.1 L594.2,264.9 L595.0,299.0 L595.8,298.2 L596.7,294.0 L597.5,301.0 L598.4,298.2 L599.2,275.4 L600.1,274.9 L600.9,273.5 L601.7,274.9 L602.6,274.9 L603.4,280.2 L604.3,277.1 L605.1,279.6 L605.9,279.3 L606.8,278.2 L607.6,280.2 L608.5,273.2 L609.3,271.0 L610.2,273.5 L611.0,295.1 L611.8,291.8 L612.7,289.0 L613.5,268.8 L614.4,263.8 L615.2,279.9 L616.0,286.8 L616.9,268.2 L617.7,268.8 L618.6,272.1 L619.4,272.4 L620.3,273.2 L621.1,277.4 L621.9,287.1 L622.8,286.3 L623.6,291.8 L624.5,291.8 L625.3,291.8 L626.1,291.8 L627.0,282.9 L627.8,285.2 L628.7,272.4 L629.5,268.5 L630.4,269.6 L631.2,271.0 L632.0,275.2 L632.9,295.7 L633.7,294.6 L634.6,293.2 L635.4,298.5 L636.2,299.3 L637.1,291.3 L637.9,290.7 L638.8,285.7 L639.6,287.4 L640.4,289.0 L641.3,284.9 L642.1,282.1 L643.0,283.2 L643.8,281.8 L644.7,278.5 L645.5,276.8 L646.3,268.5 L647.2,267.1 L648.0,265.5 L648.9,263.8 L649.7,274.1 L650.5,277.7 L651.4,298.2 L652.2,301.0 L653.1,300.7 L653.9,301.2 L654.8,301.2 L655.6,301.2 L656.4,301.2 L657.3,301.2 L658.1,301.2 L659.0,301.0 L659.8,301.0 L660.6,301.8 L661.5,301.8 L662.3,288.2 L663.2,276.8 L664.0,284.6 L664.9,277.1 L665.7,286.3 L666.5,262.1 L667.4,261.8 L668.2,255.2 L669.1,256.3 L669.9,269.6 L670.7,269.9 L671.6,269.6 L672.4,265.2 L673.3,254.9 L674.1,254.6 L675.0,254.6 L675.8,281.8 L676.6,283.2 L677.5,266.0 L678.3,254.6 L679.2,254.1 L680.0,268.5" stroke="#2ca02c" stroke-width="2" fill="none" opacity="0.8"/>
<!-- Solar Generation -->
<path d="M80.0,401.4 L80.8,418.1 L81.7,420.0 L82.5,420.0 L83.4,420.0 L84.2,420.0 L85.0,420.0 L85.9,420.0 L86.7,420.0 L87.6,420.0 L88.4,420.0 L89.3,408.3 L90.1,388.9 L90.9,382.0 L91.8,380.6 L92.6,380.9 L93.5,382.0 L94.3,382.3 L95.1,382.8 L96.0,398.4 L96.8,409.7 L97.7,406.7 L98.5,408.1 L99.4,405.3 L100.2,418.3 L101.0,419.7 L101.9,420.0 L102.7,420.0 L103.6,420.0 L104.4,420.0 L105.2,420.0 L106.1,420.0 L106.9,420.0 L107.8,420.0 L108.6,420.0 L109.5,416.4 L110.3,405.6 L111.1,403.4 L112.0,398.4 L112.8,395.6 L113.7,396.7 L114.5,398.1 L115.3,395.9 L116.2,402.0 L117.0,398.9 L117.9,409.5 L118.7,395.3 L119.6,395.3 L120.4,418.1 L121.2,419.7 L122.1,420.0 L122.9,420.0 L123.8,420.0 L124.6,420.0 L125.4,420.0 L126.3,420.0 L127.1,420.0 L128.0,420.0 L128.8,420.0 L129.6,410.6 L130.5,398.9 L131.3,390.9 L132.2,380.9 L133.0,386.1 L133.9,382.8 L134.7,379.8 L135.5,380.0 L136.4,390.9 L137.2,390.6 L138.1,387.8 L138.9,391.7 L139.7,395.9 L140.6,403.4 L141.4,418.1 L142.3,420.0 L143.1,420.0 L144.0,420.0 L144.8,420.0 L145.6,420.0 L146.5,420.0 L147.3,420.0 L148.2,420.0 L149.0,420.0 L149.8,410.0 L150.7,393.6 L151.5,382.8 L152.4,381.2 L153.2,381.2 L154.1,381.4 L154.9,383.1 L155.7,383.1 L156.6,386.1 L157.4,392.5 L158.3,404.7 L159.1,399.5 L159.9,393.4 L160.8,417.5 L161.6,419.4 L162.5,420.0 L163.3,420.0 L164.2,420.0 L165.0,420.0 L165.8,420.0 L166.7,420.0 L167.5,420.0 L168.4,420.0 L169.2,420.0 L170.0,413.3 L170.9,390.0 L171.7,382.3 L172.6,380.9 L173.4,381.4 L174.2,381.4 L175.1,381.7 L175.9,380.9 L176.8,382.8 L177.6,386.4 L178.5,383.1 L179.3,386.4 L180.1,386.1 L181.0,408.6 L181.8,418.9 L182.7,420.0 L183.5,420.0 L184.3,420.0 L185.2,420.0 L186.0,420.0 L186.9,420.0 L187.7,420.0 L188.6,420.0 L189.4,420.0 L190.2,410.3 L191.1,390.6 L191.9,382.8 L192.8,382.5 L193.6,381.4 L194.4,381.7 L195.3,381.2 L196.1,381.2 L197.0,387.0 L197.8,386.7 L198.7,386.4 L199.5,382.8 L200.3,401.7 L201.2,416.9 L202.0,419.4 L202.9,420.0 L203.7,420.0 L204.5,420.0 L205.4,420.0 L206.2,420.0 L207.1,420.0 L207.9,420.0 L208.8,420.0 L209.6,420.0 L210.4,410.3 L211.3,389.8 L212.1,381.7 L213.0,380.3 L213.8,380.3 L214.6,381.2 L215.5,385.3 L216.3,382.8 L217.2,383.9 L218.0,384.8 L218.8,383.4 L219.7,382.0 L220.5,386.7 L221.4,403.6 L222.2,418.3 L223.1,420.0 L223.9,420.0 L224.7,420.0 L225.6,420.0 L226.4,420.0 L227.3,420.0 L228.1,420.0 L228.9,420.0 L229.8,420.0 L230.6,410.0 L231.5,395.9 L232.3,382.5 L233.2,382.5 L234.0,383.1 L234.8,383.1 L235.7,382.5 L236.5,392.3 L237.4,386.7 L238.2,395.6 L239.0,395.6 L239.9,403.9 L240.7,398.1 L241.6,407.5 L242.4,418.3 L243.3,419.7 L244.1,419.7 L244.9,419.7 L245.8,419.7 L246.6,419.7 L247.5,419.7 L248.3,419.4 L249.1,419.4 L250.0,419.4 L250.8,411.1 L251.7,390.6 L252.5,383.1 L253.4,380.9 L254.2,381.2 L255.0,382.0 L255.9,388.4 L256.7,395.0 L257.6,385.9 L258.4,383.7 L259.2,383.7 L260.1,382.5 L260.9,401.1 L261.8,403.9 L262.6,418.9 L263.5,419.7 L264.3,419.7 L265.1,419.7 L266.0,419.7 L266.8,419.7 L267.7,419.7 L268.5,419.7 L269.3,419.7 L270.2,419.4 L271.0,414.5 L271.9,405.0 L272.7,388.9 L273.5,388.1 L274.4,390.0 L275.2,395.0 L276.1,398.9 L276.9,396.1 L277.8,383.7 L278.6,382.0 L279.4,403.9 L280.3,413.1 L281.1,416.1 L282.0,416.9 L282.8,419.2 L283.6,419.4 L284.5,419.4 L285.3,419.4 L286.2,419.4 L287.0,419.4 L287.9,419.4 L288.7,419.4 L289.5,419.7 L290.4,419.4 L291.2,416.7 L292.1,414.2 L292.9,405.0 L293.7,394.8 L294.6,382.0 L295.4,385.9 L296.3,382.0 L297.1,385.0 L298.0,390.0 L298.8,394.5 L299.6,396.1 L300.5,395.9 L301.3,416.7 L302.2,409.7 L303.0,418.1 L303.8,419.7 L304.7,419.7 L305.5,419.7 L306.4,419.7 L307.2,419.7 L308.1,419.7 L308.9,419.7 L309.7,419.7 L310.6,419.4 L311.4,412.0 L312.3,393.1 L313.1,383.9 L313.9,381.2 L314.8,381.2 L315.6,381.4 L316.5,382.0 L317.3,382.3 L318.1,384.8 L319.0,410.6 L319.8,401.1 L320.7,394.5 L321.5,386.4 L322.4,406.1 L323.2,418.6 L324.0,419.7 L324.9,419.7 L325.7,419.7 L326.6,419.4 L327.4,419.4 L328.2,419.4 L329.1,419.4 L329.9,419.4 L330.8,419.4 L331.6,415.6 L332.5,405.6 L333.3,402.0 L334.1,397.5 L335.0,391.1 L335.8,390.6 L336.7,385.9 L337.5,398.1 L338.3,388.9 L339.2,398.9 L340.0,394.5 L340.9,407.8 L341.7,417.8 L342.6,413.6 L343.4,419.2 L344.2,419.7 L345.1,419.7 L345.9,419.7 L346.8,419.7 L347.6,419.7 L348.4,419.4 L349.3,419.4 L350.1,419.4 L351.0,419.4 L351.8,412.0 L352.7,393.1 L353.5,383.1 L354.3,382.0 L355.2,381.7 L356.0,381.2 L356.9,382.3 L357.7,382.8 L358.5,384.2 L359.4,381.2 L360.2,408.9 L361.1,404.7 L361.9,411.7 L362.7,417.8 L363.6,418.3 L364.4,419.4 L365.3,419.4 L366.1,419.4 L367.0,419.4 L367.8,419.4 L368.6,419.4 L369.5,419.4 L370.3,419.4 L371.2,419.4 L372.0,412.5 L372.8,394.5 L373.7,383.9 L374.5,381.2 L375.4,386.1 L376.2,381.2 L377.1,384.2 L377.9,383.1 L378.7,389.8 L379.6,385.3 L380.4,397.5 L381.3,397.5 L382.1,402.2 L382.9,414.7 L383.8,418.6 L384.6,419.4 L385.5,419.7 L386.3,419.7 L387.2,419.7 L388.0,419.7 L388.8,419.7 L389.7,419.7 L390.5,419.4 L391.4,419.4 L392.2,415.3 L393.0,404.7 L393.9,395.3 L394.7,399.5 L395.6,394.2 L396.4,395.9 L397.3,391.1 L398.1,391.1 L398.9,392.3 L399.8,395.9 L400.6,389.5 L401.5,392.0 L402.3,406.7 L403.1,415.8 L404.0,418.9 L404.8,419.7 L405.7,419.7 L406.5,419.7 L407.3,419.7 L408.2,419.7 L409.0,419.7 L409.9,419.7 L410.7,419.7 L411.6,419.4 L412.4,418.1 L413.2,411.7 L414.1,412.8 L414.9,406.7 L415.8,400.0 L416.6,391.7 L417.4,385.3 L418.3,380.9 L419.1,388.9 L420.0,400.0 L420.8,408.9 L421.7,397.8 L422.5,405.0 L423.3,415.6 L424.2,419.2 L425.0,419.4 L425.9,419.7 L426.7,419.7 L427.5,419.7 L428.4,419.7 L429.2,419.7 L430.1,419.7 L430.9,419.7 L431.8,419.4 L432.6,416.9 L433.4,405.8 L434.3,407.8 L435.1,398.9 L436.0,390.9 L436.8,396.7 L437.6,387.5 L438.5,385.9 L439.3,385.3 L440.2,400.6 L441.0,410.8 L441.9,414.7 L442.7,417.5 L443.5,418.3 L444.4,419.4 L445.2,419.7 L446.1,419.7 L446.9,419.7 L447.7,419.7 L448.6,419.7 L449.4,419.7 L450.3,419.7 L451.1,419.7 L451.9,419.4 L452.8,417.8 L453.6,404.7 L454.5,406.7 L455.3,407.8 L456.2,388.1 L457.0,388.4 L457.8,384.2 L458.7,383.9 L459.5,380.6 L460.4,380.9 L461.2,381.4 L462.0,392.0 L462.9,390.0 L463.7,408.3 L464.6,418.9 L465.4,419.7 L466.3,419.7 L467.1,419.4 L467.9,419.4 L468.8,419.4 L469.6,419.4 L470.5,419.4 L471.3,419.4 L472.1,419.4 L473.0,416.7 L473.8,395.3 L474.7,384.5 L475.5,381.4 L476.4,381.2 L477.2,382.0 L478.0,382.3 L478.9,380.9 L479.7,383.4 L480.6,393.4 L481.4,391.7 L482.2,401.4 L483.1,412.2 L483.9,414.2 L484.8,418.3 L485.6,419.4 L486.5,419.7 L487.3,419.7 L488.1,419.7 L489.0,419.7 L489.8,419.7 L490.7,419.7 L491.5,419.7 L492.3,419.4 L493.2,414.2 L494.0,398.4 L494.9,386.7 L495.7,385.6 L496.5,381.7 L497.4,383.4 L498.2,385.9 L499.1,395.9 L499.9,410.8 L500.8,406.7 L501.6,381.7 L502.4,400.3 L503.3,402.5 L504.1,410.3 L505.0,418.9 L505.8,419.4 L506.6,419.4 L507.5,419.4 L508.3,419.4 L509.2,419.4 L510.0,419.4 L510.9,419.4 L511.7,419.4 L512.5,419.4 L513.4,413.9 L514.2,410.8 L515.1,387.8 L515.9,385.9 L516.7,398.1 L517.6,394.5 L518.4,392.5 L519.3,397.2 L520.1,392.3 L521.0,405.3 L521.8,400.0 L522.6,389.5 L523.5,388.4 L524.3,415.3 L525.2,419.2 L526.0,419.4 L526.8,419.4 L527.7,419.4 L528.5,419.7 L529.4,419.7 L530.2,419.7 L531.1,419.4 L531.9,419.4 L532.7,419.4 L533.6,415.8 L534.4,405.6 L535.3,397.8 L536.1,395.9 L536.9,388.1 L537.8,382.8 L538.6,385.0 L539.5,389.8 L540.3,382.3 L541.2,383.7 L542.0,405.6 L542.8,411.1 L543.7,413.6 L544.5,413.3 L545.4,419.4 L546.2,419.7 L547.0,419.7 L547.9,419.7 L548.7,419.7 L549.6,419.7 L550.4,419.7 L551.2,419.7 L552.1,419.7 L552.9,419.7 L553.8,417.5 L554.6,402.8 L555.5,392.3 L556.3,386.1 L557.1,386.7 L558.0,384.2 L558.8,386.7 L559.7,387.5 L560.5,387.8 L561.3,388.6 L562.2,388.6 L563.0,389.5 L563.9,397.2 L564.7,412.2 L565.6,419.2 L566.4,419.7 L567.2,419.7 L568.1,419.7 L568.9,420.0 L569.8,420.0 L570.6,420.0 L571.4,420.0 L572.3,420.0 L573.1,420.0 L574.0,417.5 L574.8,402.0 L575.7,391.7 L576.5,385.6 L577.3,384.2 L578.2,388.9 L579.0,384.2 L579.9,383.1 L580.7,392.8 L581.5,409.2 L582.4,414.7 L583.2,412.5 L584.1,414.2 L584.9,415.6 L585.8,419.7 L586.6,420.0 L587.4,420.0 L588.3,420.0 L589.1,420.0 L590.0,420.0 L590.8,420.0 L591.6,420.0 L592.5,420.0 L593.3,420.0 L594.2,419.2 L595.0,409.7 L595.8,397.0 L596.7,384.5 L597.5,382.5 L598.4,381.7 L599.2,381.7 L600.1,382.3 L600.9,393.6 L601.7,384.8 L602.6,403.4 L603.4,415.3 L604.3,406.1 L605.1,414.7 L605.9,420.0 L606.8,420.0 L607.6,420.0 L608.5,420.0 L609.3,420.0 L610.2,420.0 L611.0,420.0 L611.8,420.0 L612.7,420.0 L613.5,420.0 L614.4,417.5 L615.2,400.3 L616.0,386.7 L616.9,382.3 L617.7,381.4 L618.6,380.9 L619.4,382.3 L620.3,382.8 L621.1,384.2 L621.9,382.8 L622.8,383.4 L623.6,386.1 L624.5,406.7 L625.3,410.0 L626.1,419.7 L627.0,420.0 L627.8,420.0 L628.7,420.0 L629.5,420.0 L630.4,420.0 L631.2,420.0 L632.0,420.0 L632.9,420.0 L633.7,420.0 L634.6,417.2 L635.4,399.7 L636.2,386.7 L637.1,382.3 L637.9,381.2 L638.8,383.1 L639.6,384.8 L640.4,387.8 L641.3,388.9 L642.1,390.0 L643.0,390.6 L643.8,394.5 L644.7,400.0 L645.5,409.2 L646.3,419.7 L647.2,420.0 L648.0,420.0 L648.9,420.0 L649.7,420.0 L650.5,420.0 L651.4,420.0 L652.2,420.0 L653.1,420.0 L653.9,420.0 L654.8,418.9 L655.6,409.2 L656.4,397.8 L657.3,393.1 L658.1,383.7 L659.0,385.6 L659.8,382.5 L660.6,383.4 L661.5,381.7 L662.3,382.5 L663.2,385.6 L664.0,390.6 L664.9,397.5 L665.7,412.2 L666.5,419.7 L667.4,420.0 L668.2,420.0 L669.1,420.0 L669.9,420.0 L670.7,420.0 L671.6,420.0 L672.4,420.0 L673.3,420.0 L674.1,420.0 L675.0,418.6 L675.8,407.2 L676.6,399.7 L677.5,396.1 L678.3,392.0 L679.2,386.7 L680.0,381.2" stroke="#d62728" stroke-width="2" fill="none" opacity="0.8"/>
<!-- Forecast -->
<path d="M80.0,158.9 L80.8,165.0 L81.7,172.2 L82.5,186.7 L83.4,190.3 L84.2,190.3 L85.0,190.3 L85.9,190.3 L86.7,190.3 L87.6,190.3 L88.4,190.3 L89.3,190.3 L90.1,190.3 L90.9,190.3 L91.8,190.3 L92.6,190.3 L93.5,190.3 L94.3,190.3 L95.1,190.3 L96.0,190.3 L96.8,190.3 L97.7,190.3 L98.5,190.3 L99.4,190.3 L100.2,190.3 L101.0,190.3 L101.9,190.3 L102.7,190.3 L103.6,190.3 L104.4,220.5 L105.2,230.8 L106.1,238.0 L106.9,243.3 L107.8,243.3 L108.6,238.0 L109.5,219.9 L110.3,198.3 L111.1,176.1 L112.0,160.3 L112.8,151.4 L113.7,145.6 L114.5,142.8 L115.3,138.4 L116.2,130.3 L117.0,123.1 L117.9,117.8 L118.7,119.5 L119.6,129.5 L120.4,141.4 L121.2,150.3 L122.1,155.9 L122.9,173.1 L123.8,196.9 L124.6,219.4 L125.4,230.2 L126.3,236.9 L127.1,241.3 L128.0,241.6 L128.8,236.9 L129.6,218.6 L130.5,196.1 L131.3,173.9 L132.2,158.6 L133.0,149.2 L133.9,141.7 L134.7,138.4 L135.5,134.2 L136.4,128.7 L137.2,122.8 L138.1,120.1 L138.9,124.5 L139.7,133.7 L140.6,143.1 L141.4,151.4 L142.3,157.0 L143.1,172.8 L144.0,365.3 L144.8,264.9 L145.6,376.4 L146.5,420.0 L147.3,420.0 L148.2,420.0 L149.0,420.0 L149.8,420.0 L150.7,420.0 L151.5,420.0 L152.4,420.0 L153.2,420.0 L154.1,420.0 L154.9,420.0 L155.7,420.0 L156.6,420.0 L157.4,420.0 L158.3,420.0 L159.1,420.0 L159.9,420.0 L160.8,420.0 L161.6,420.0 L162.5,420.0 L163.3,420.0 L164.2,251.3 L165.0,372.8 L165.8,277.7 L166.7,242.7 L167.5,246.9 L168.4,248.2 L169.2,241.3 L170.0,222.7 L170.9,199.4 L171.7,176.9 L172.6,159.7 L173.4,149.5 L174.2,142.5 L175.1,138.4 L175.9,132.8 L176.8,125.9 L177.6,117.6 L178.5,111.5 L179.3,112.6 L180.1,119.5 L181.0,129.8 L181.8,140.6 L182.7,149.5 L183.5,169.7 L184.3,191.1 L185.2,217.5 L186.0,234.4 L186.9,242.4 L187.7,247.7 L188.6,249.1 L189.4,243.0 L190.2,224.1 L191.1,200.0 L191.9,176.1 L192.8,158.1 L193.6,145.3 L194.4,135.0 L195.3,128.1 L196.1,120.6 L197.0,112.3 L197.8,104.5 L198.7,99.5 L199.5,99.3 L200.3,105.9 L201.2,115.6 L202.0,125.9 L202.9,137.3 L203.7,158.9 L204.5,190.0 L205.4,215.8 L206.2,229.4 L207.1,234.7 L207.9,242.7 L208.8,246.0 L209.6,246.9 L210.4,241.0 L211.3,228.5 L212.1,211.1 L213.0,190.8 L213.8,172.5 L214.6,157.8 L215.5,135.0 L216.3,124.5 L217.2,119.8 L218.0,105.6 L218.8,97.0 L219.7,103.7 L220.5,106.2 L221.4,116.2 L222.2,130.6 L223.1,146.7 L223.9,168.3 L224.7,191.9 L225.6,208.6 L226.4,227.2 L227.3,234.7 L228.1,242.7 L228.9,246.0 L229.8,246.9 L230.6,241.0 L231.5,228.3 L232.3,211.1 L233.2,190.8 L234.0,172.5 L234.8,157.8 L235.7,128.4 L236.5,127.0 L237.4,121.2 L238.2,105.6 L239.0,97.0 L239.9,107.9 L240.7,94.5 L241.6,112.3 L242.4,130.6 L243.3,146.7 L244.1,168.3 L244.9,180.8 L245.8,205.5 L246.6,216.3 L247.5,224.1 L248.3,230.8 L249.1,232.4 L250.0,229.1 L250.8,211.3 L251.7,185.8 L252.5,163.3 L253.4,143.1 L254.2,130.9 L255.0,121.2 L255.9,113.4 L256.7,107.9 L257.6,102.9 L258.4,98.1 L259.2,94.8 L260.1,92.3 L260.9,99.8 L261.8,107.3 L262.6,115.1 L263.5,123.4 L264.3,145.9 L265.1,184.7 L266.0,203.0 L266.8,216.3 L267.7,226.3 L268.5,233.0 L269.3,235.2 L270.2,231.3 L271.0,215.2 L271.9,190.5 L272.7,169.4 L273.5,151.4 L274.4,141.4 L275.2,134.5 L276.1,128.1 L276.9,123.4 L277.8,117.8 L278.6,111.2 L279.4,108.4 L280.3,110.3 L281.1,117.0 L282.0,123.9 L282.8,132.3 L283.6,140.3 L284.5,161.1 L285.3,194.7 L286.2,212.2 L287.0,226.1 L287.9,234.7 L288.7,240.5 L289.5,242.1 L290.4,236.6 L291.2,220.8 L292.1,199.7 L292.9,179.2 L293.7,165.6 L294.6,157.5 L295.4,150.9 L296.3,146.4 L297.1,142.0 L298.0,137.0 L298.8,129.2 L299.6,125.3 L300.5,127.8 L301.3,132.0 L302.2,138.4 L303.0,145.6 L303.8,152.5 L304.7,171.7 L305.5,191.4 L306.4,216.9 L307.2,233.0 L308.1,241.3 L308.9,246.0 L309.7,247.7 L310.6,241.0 L311.4,223.6 L312.3,201.4 L313.1,179.2 L313.9,163.1 L314.8,152.0 L315.6,143.4 L316.5,136.2 L317.3,129.2 L318.1,122.0 L319.0,114.8 L319.8,110.6 L320.7,113.1 L321.5,116.7 L322.4,124.5 L323.2,131.7 L324.0,140.9 L324.9,161.7 L325.7,189.7 L326.6,213.0 L327.4,228.8 L328.2,238.0 L329.1,243.3 L329.9,244.6 L330.8,239.6 L331.6,222.2 L332.5,198.0 L333.3,175.6 L334.1,156.4 L335.0,143.6 L335.8,133.1 L336.7,126.4 L337.5,119.8 L338.3,113.4 L339.2,109.8 L340.0,109.0 L340.9,111.2 L341.7,116.5 L342.6,124.5 L343.4,132.8 L344.2,140.9 L345.1,161.7 L345.9,201.4 L346.8,221.9 L347.6,233.0 L348.4,238.8 L349.3,246.9 L350.1,249.9 L351.0,250.7 L351.8,245.8 L352.7,233.8 L353.5,217.5 L354.3,198.9 L355.2,182.8 L356.0,171.7 L356.9,161.7 L357.7,155.0 L358.5,146.7 L359.4,139.8 L360.2,137.5 L361.1,138.7 L361.9,142.3 L362.7,148.9 L363.6,156.4 L364.4,165.6 L365.3,183.0 L366.1,201.4 L367.0,219.9 L367.8,232.4 L368.6,241.6 L369.5,247.1 L370.3,249.1 L371.2,250.7 L372.0,248.2 L372.8,231.0 L373.7,213.8 L374.5,201.1 L375.4,183.3 L376.2,170.0 L377.1,160.3 L377.9,155.9 L378.7,151.1 L379.6,145.3 L380.4,136.7 L381.3,135.0 L382.1,133.7 L382.9,137.3 L383.8,145.6 L384.6,156.1 L385.5,169.2 L386.3,190.5 L387.2,214.7 L388.0,230.5 L388.8,239.9 L389.7,246.0 L390.5,248.5 L391.4,242.7 L392.2,225.5 L393.0,202.5 L393.9,180.5 L394.7,163.9 L395.6,153.6 L396.4,145.0 L397.3,137.8 L398.1,132.8 L398.9,128.1 L399.8,120.9 L400.6,114.8 L401.5,116.2 L402.3,121.4 L403.1,127.8 L404.0,135.6 L404.8,144.8 L405.7,165.0 L406.5,195.0 L407.3,213.8 L408.2,230.8 L409.0,241.0 L409.9,246.6 L410.7,248.0 L411.6,243.3 L412.4,226.9 L413.2,205.5 L414.1,184.7 L414.9,171.1 L415.8,162.5 L416.6,156.1 L417.4,149.2 L418.3,143.1 L419.1,136.2 L420.0,126.7 L420.8,120.1 L421.7,119.0 L422.5,124.2 L423.3,130.3 L424.2,136.4 L425.0,144.2 L425.9,164.7 L426.7,191.6 L427.5,216.6 L428.4,230.2 L429.2,238.3 L430.1,244.1 L430.9,246.6 L431.8,241.9 L432.6,225.2 L433.4,203.0 L434.3,181.4 L435.1,165.8 L436.0,155.3 L436.8,147.3 L437.6,140.0 L438.5,132.5 L439.3,124.8 L440.2,120.3 L441.0,116.2 L441.9,119.5 L442.7,125.1 L443.5,131.4 L444.4,138.1 L445.2,145.6 L446.1,164.2 L446.9,191.4 L447.7,213.8 L448.6,228.0 L449.4,237.4 L450.3,243.3 L451.1,245.2 L451.9,239.6 L452.8,224.4 L453.6,201.9 L454.5,180.8 L455.3,163.9 L456.2,153.6 L457.0,143.6 L457.8,135.3 L458.7,129.5 L459.5,122.8 L460.4,115.6 L461.2,108.7 L462.0,107.9 L462.9,114.2 L463.7,122.0 L464.6,128.9 L465.4,139.2 L466.3,161.1 L467.1,185.3 L467.9,211.9 L468.8,226.1 L469.6,235.2 L470.5,240.8 L471.3,243.0 L472.1,238.3 L473.0,220.8 L473.8,193.6 L474.7,170.6 L475.5,146.4 L476.4,131.2 L477.2,116.5 L478.0,100.9 L478.9,96.8 L479.7,93.1 L480.6,89.3 L481.4,85.9 L482.2,84.8 L483.1,91.2 L483.9,99.8 L484.8,112.3 L485.6,124.2 L486.5,150.0 L487.3,192.2 L488.1,219.7 L489.0,232.2 L489.8,231.3 L490.7,245.8 L491.5,251.6 L492.3,251.9 L493.2,246.6 L494.0,233.0 L494.9,216.3 L495.7,194.1 L496.5,173.6 L497.4,155.0 L498.2,129.8 L499.1,121.4 L499.9,117.3 L500.8,107.9 L501.6,105.9 L502.4,109.8 L503.3,109.8 L504.1,124.8 L505.0,140.3 L505.8,155.0 L506.6,175.8 L507.5,199.1 L508.3,215.5 L509.2,228.3 L510.0,239.6 L510.9,246.0 L511.7,246.6 L512.5,251.6 L513.4,248.2 L514.2,228.8 L515.1,209.7 L515.9,194.7 L516.7,178.9 L517.6,164.7 L518.4,155.9 L519.3,148.4 L520.1,138.1 L521.0,133.1 L521.8,126.7 L522.6,125.6 L523.5,128.4 L524.3,131.4 L525.2,140.9 L526.0,152.8 L526.8,164.2 L527.7,193.3 L528.5,214.7 L529.4,229.4 L530.2,238.8 L531.1,245.2 L531.9,248.0 L532.7,244.4 L533.6,226.9 L534.4,202.2 L535.3,180.0 L536.1,161.7 L536.9,149.7 L537.8,140.6 L538.6,130.9 L539.5,123.1 L540.3,116.5 L541.2,110.3 L542.0,103.7 L542.8,104.5 L543.7,112.3 L544.5,121.2 L545.4,129.5 L546.2,141.1 L547.0,163.3 L547.9,193.6 L548.7,209.4 L549.6,231.3 L550.4,243.5 L551.2,249.4 L552.1,251.0 L552.9,246.9 L553.8,228.8 L554.6,204.4 L555.5,181.7 L556.3,163.9 L557.1,152.0 L558.0,140.6 L558.8,130.9 L559.7,121.4 L560.5,115.1 L561.3,107.6 L562.2,100.6 L563.0,100.6 L563.9,108.4 L564.7,117.8 L565.6,127.6 L566.4,139.2 L567.2,162.2 L568.1,196.6 L568.9,218.6 L569.8,233.5 L570.6,244.1 L571.4,250.5 L572.3,252.1 L573.1,247.1 L574.0,229.1 L574.8,204.7 L575.7,181.7 L576.5,162.8 L577.3,152.0 L578.2,141.1 L579.0,132.5 L579.9,124.5 L580.7,116.5 L581.5,111.5 L582.4,108.1 L583.2,108.7 L584.1,114.8 L584.9,122.6 L585.8,133.4 L586.6,145.3 L587.4,168.6 L588.3,195.8 L589.1,219.9 L590.0,236.3 L590.8,246.3 L591.6,252.7 L592.5,253.5 L593.3,248.5 L594.2,231.0 L595.0,206.6 L595.8,183.9 L596.7,165.0 L597.5,151.1 L598.4,139.2 L599.2,128.4 L600.1,119.8 L600.9,111.7 L601.7,104.8 L602.6,98.4 L603.4,99.3 L604.3,104.5 L605.1,114.2 L605.9,126.7 L606.8,139.2 L607.6,163.9 L608.5,193.0 L609.3,217.7 L610.2,233.3 L611.0,243.5 L611.8,249.9 L612.7,251.9 L613.5,247.7 L614.4,229.9 L615.2,205.0 L616.0,181.7 L616.9,162.5 L617.7,148.1 L618.6,134.8 L619.4,121.4 L620.3,113.1 L621.1,105.1 L621.9,98.7 L622.8,92.3 L623.6,89.3 L624.5,96.2 L625.3,107.3 L626.1,120.1 L627.0,133.7 L627.8,159.2 L628.7,196.6 L629.5,227.7 L630.4,242.1 L631.2,246.3 L632.0,256.9 L632.9,261.6 L633.7,261.6 L634.6,255.2 L635.4,243.0 L636.2,225.8 L637.1,204.7 L637.9,184.2 L638.8,165.8 L639.6,145.9 L640.4,126.7 L641.3,113.7 L642.1,102.3 L643.0,99.5 L643.8,98.1 L644.7,102.9 L645.5,116.7 L646.3,134.8 L647.2,155.0 L648.0,179.4 L648.9,221.6 L649.7,225.5 L650.5,230.8 L651.4,244.9 L652.2,253.8 L653.1,255.5 L653.9,259.3 L654.8,258.2 L655.6,236.9 L656.4,219.9 L657.3,213.6 L658.1,202.7 L659.0,193.3 L659.8,188.3 L660.6,178.6 L661.5,169.2 L662.3,163.1 L663.2,154.7 L664.0,150.3 L664.9,151.7 L665.7,158.6 L666.5,169.4 L667.4,180.8 L668.2,198.0 L669.1,232.4 L669.9,244.4 L670.7,254.4 L671.6,263.8 L672.4,269.1 L673.3,269.1 L674.1,261.3 L675.0,244.1 L675.8,223.0 L676.6,204.4 L677.5,195.0 L678.3,190.5 L679.2,186.4 L680.0,185.3" stroke="#9467bd" stroke-width="2" fill="none" opacity="0.8"/>
<!-- Total Generation -->
<path d="M80.0,157.2 L80.8,152.5 L81.7,168.9 L82.5,192.2 L83.4,184.4 L84.2,263.2 L85.0,281.5 L85.9,281.8 L86.7,289.6 L87.6,281.3 L88.4,275.4 L89.3,248.5 L90.1,223.6 L90.9,219.9 L91.8,224.4 L92.6,228.3 L93.5,206.4 L94.3,185.8 L95.1,184.4 L96.0,190.0 L96.8,187.8 L97.7,162.5 L98.5,112.0 L99.4,90.6 L100.2,102.0 L101.0,143.1 L101.9,150.0 L102.7,155.0 L103.6,149.5 L104.4,142.3 L105.2,104.2 L106.1,101.2 L106.9,129.8 L107.8,176.7 L108.6,193.9 L109.5,195.8 L110.3,191.6 L111.1,176.9 L112.0,156.7 L112.8,165.8 L113.7,152.0 L114.5,136.2 L115.3,95.9 L116.2,119.5 L117.0,107.6 L117.9,120.3 L118.7,79.0 L119.6,100.9 L120.4,126.4 L121.2,145.0 L122.1,134.8 L122.9,140.3 L123.8,140.6 L124.6,142.8 L125.4,175.3 L126.3,174.4 L127.1,181.1 L128.0,201.6 L128.8,182.5 L129.6,181.1 L130.5,185.3 L131.3,172.8 L132.2,165.0 L133.0,150.9 L133.9,157.2 L134.7,151.7 L135.5,110.9 L136.4,108.7 L137.2,106.7 L138.1,109.2 L138.9,112.6 L139.7,111.5 L140.6,124.2 L141.4,146.1 L142.3,146.4 L143.1,138.7 L144.0,147.5 L144.8,151.1 L145.6,154.2 L146.5,183.3 L147.3,201.4 L148.2,174.7 L149.0,166.1 L149.8,153.6 L150.7,179.4 L151.5,165.6 L152.4,163.3 L153.2,157.5 L154.1,160.0 L154.9,158.4 L155.7,140.9 L156.6,140.6 L157.4,131.4 L158.3,138.4 L159.1,121.4 L159.9,125.3 L160.8,132.8 L161.6,145.0 L162.5,136.7 L163.3,121.2 L164.2,125.9 L165.0,117.3 L165.8,137.8 L166.7,158.9 L167.5,154.5 L168.4,153.9 L169.2,158.1 L170.0,168.9 L170.9,163.3 L171.7,158.1 L172.6,159.2 L173.4,147.0 L174.2,157.5 L175.1,132.3 L175.9,97.3 L176.8,118.1 L177.6,114.8 L178.5,120.1 L179.3,125.6 L180.1,140.9 L181.0,170.3 L181.8,152.5 L182.7,151.7 L183.5,147.0 L184.3,157.2 L185.2,152.2 L186.0,154.5 L186.9,185.8 L187.7,199.7 L188.6,199.1 L189.4,179.7 L190.2,175.8 L191.1,169.2 L191.9,165.0 L192.8,158.6 L193.6,150.9 L194.4,154.5 L195.3,137.8 L196.1,130.0 L197.0,112.0 L197.8,98.4 L198.7,115.1 L199.5,120.1 L200.3,153.9 L201.2,167.0 L202.0,175.0 L202.9,145.3 L203.7,148.4 L204.5,147.0 L205.4,175.0 L206.2,190.3 L207.1,196.1 L207.9,196.4 L208.8,203.0 L209.6,219.4 L210.4,213.0 L211.3,191.4 L212.1,186.7 L213.0,171.1 L213.8,183.0 L214.6,171.7 L215.5,175.0 L216.3,162.0 L217.2,149.7 L218.0,130.0 L218.8,132.8 L219.7,126.4 L220.5,128.9 L221.4,147.0 L222.2,165.8 L223.1,171.9 L223.9,160.8 L224.7,148.9 L225.6,162.2 L226.4,171.1 L227.3,173.6 L228.1,170.8 L228.9,191.6 L229.8,239.1 L230.6,226.3 L231.5,253.2 L232.3,246.3 L233.2,193.9 L234.0,150.0 L234.8,125.9 L235.7,133.4 L236.5,148.1 L237.4,135.6 L238.2,144.8 L239.0,138.7 L239.9,132.5 L240.7,138.4 L241.6,129.2 L242.4,143.9 L243.3,128.9 L244.1,118.7 L244.9,130.6 L245.8,123.9 L246.6,133.4 L247.5,134.5 L248.3,150.0 L249.1,160.8 L250.0,174.2 L250.8,171.7 L251.7,168.1 L252.5,140.6 L253.4,135.9 L254.2,138.9 L255.0,137.3 L255.9,145.9 L256.7,152.0 L257.6,145.3 L258.4,146.4 L259.2,148.9 L260.1,147.3 L260.9,160.0 L261.8,162.5 L262.6,148.1 L263.5,160.0 L264.3,163.1 L265.1,153.9 L266.0,157.5 L266.8,161.1 L267.7,166.1 L268.5,153.9 L269.3,159.7 L270.2,181.1 L271.0,169.2 L271.9,173.1 L272.7,164.5 L273.5,165.0 L274.4,155.9 L275.2,160.0 L276.1,155.9 L276.9,139.8 L277.8,127.6 L278.6,123.9 L279.4,149.7 L280.3,148.4 L281.1,119.2 L282.0,137.8 L282.8,149.2 L283.6,137.3 L284.5,138.1 L285.3,134.5 L286.2,160.8 L287.0,179.7 L287.9,189.4 L288.7,194.1 L289.5,228.5 L290.4,218.3 L291.2,224.9 L292.1,209.1 L292.9,196.6 L293.7,185.8 L294.6,149.5 L295.4,161.7 L296.3,143.9 L297.1,154.7 L298.0,141.1 L298.8,163.1 L299.6,161.7 L300.5,158.4 L301.3,178.6 L302.2,168.9 L303.0,163.1 L303.8,165.3 L304.7,167.8 L305.5,171.1 L306.4,173.3 L307.2,183.9 L308.1,187.8 L308.9,191.4 L309.7,187.5 L310.6,175.6 L311.4,172.5 L312.3,156.7 L313.1,144.8 L313.9,131.7 L314.8,124.8 L315.6,121.4 L316.5,125.6 L317.3,119.5 L318.1,121.7 L319.0,145.6 L319.8,126.7 L320.7,109.2 L321.5,110.6 L322.4,139.5 L323.2,140.9 L324.0,141.1 L324.9,133.9 L325.7,183.9 L326.6,196.6 L327.4,206.6 L328.2,217.5 L329.1,218.6 L329.9,218.8 L330.8,219.4 L331.6,214.4 L332.5,206.6 L333.3,198.9 L334.1,193.6 L335.0,177.5 L335.8,178.1 L336.7,161.1 L337.5,175.6 L338.3,155.6 L339.2,146.4 L340.0,137.8 L340.9,161.1 L341.7,163.3 L342.6,179.7 L343.4,175.6 L344.2,189.4 L345.1,185.3 L345.9,183.0 L346.8,209.1 L347.6,192.8 L348.4,193.3 L349.3,209.7 L350.1,199.7 L351.0,209.7 L351.8,186.1 L352.7,175.3 L353.5,193.0 L354.3,183.0 L355.2,184.4 L356.0,163.3 L356.9,171.1 L357.7,175.6 L358.5,180.8 L359.4,170.3 L360.2,201.6 L361.1,191.1 L361.9,193.0 L362.7,190.8 L363.6,204.4 L364.4,209.4 L365.3,176.7 L366.1,156.4 L367.0,189.1 L367.8,180.0 L368.6,183.0 L369.5,203.3 L370.3,163.6 L371.2,158.6 L372.0,167.8 L372.8,172.2 L373.7,163.9 L374.5,132.3 L375.4,133.7 L376.2,136.7 L377.1,134.2 L377.9,90.9 L378.7,68.7 L379.6,78.4 L380.4,116.7 L381.3,102.0 L382.1,107.6 L382.9,116.7 L383.8,133.9 L384.6,141.4 L385.5,151.1 L386.3,145.6 L387.2,153.9 L388.0,160.8 L388.8,165.6 L389.7,167.2 L390.5,170.6 L391.4,167.2 L392.2,155.6 L393.0,136.2 L393.9,123.1 L394.7,130.3 L395.6,124.5 L396.4,129.2 L397.3,126.2 L398.1,132.5 L398.9,122.0 L399.8,117.0 L400.6,122.6 L401.5,112.8 L402.3,130.0 L403.1,142.5 L404.0,139.5 L404.8,134.2 L405.7,142.3 L406.5,128.9 L407.3,147.0 L408.2,150.3 L409.0,148.6 L409.9,150.3 L410.7,147.0 L411.6,148.4 L412.4,148.6 L413.2,152.5 L414.1,166.7 L414.9,154.5 L415.8,142.3 L416.6,126.7 L417.4,122.8 L418.3,129.8 L419.1,137.3 L420.0,147.0 L420.8,152.5 L421.7,141.1 L422.5,140.9 L423.3,132.8 L424.2,119.8 L425.0,115.9 L425.9,111.7 L426.7,117.0 L427.5,142.3 L428.4,160.3 L429.2,165.6 L430.1,164.7 L430.9,167.5 L431.8,167.0 L432.6,165.0 L433.4,154.2 L434.3,155.6 L435.1,151.7 L436.0,184.2 L436.8,189.7 L437.6,180.5 L438.5,181.1 L439.3,140.9 L440.2,157.2 L441.0,164.2 L441.9,163.1 L442.7,160.0 L443.5,147.8 L444.4,159.7 L445.2,155.9 L446.1,157.0 L446.9,169.4 L447.7,168.9 L448.6,161.4 L449.4,179.7 L450.3,193.6 L451.1,186.4 L451.9,158.9 L452.8,158.4 L453.6,183.6 L454.5,192.5 L455.3,192.2 L456.2,174.7 L457.0,170.0 L457.8,166.1 L458.7,156.4 L459.5,117.0 L460.4,90.1 L461.2,109.2 L462.0,128.1 L462.9,131.2 L463.7,152.8 L464.6,171.1 L465.4,173.9 L466.3,160.6 L467.1,163.6 L467.9,148.9 L468.8,144.8 L469.6,99.8 L470.5,137.0 L471.3,157.2 L472.1,146.7 L473.0,149.2 L473.8,133.1 L474.7,116.2 L475.5,102.3 L476.4,87.3 L477.2,89.5 L478.0,87.3 L478.9,89.8 L479.7,67.6 L480.6,78.4 L481.4,80.1 L482.2,102.6 L483.1,139.8 L483.9,148.9 L484.8,163.9 L485.6,166.4 L486.5,182.5 L487.3,193.9 L488.1,189.4 L489.0,178.3 L489.8,176.7 L490.7,176.7 L491.5,160.0 L492.3,164.2 L493.2,160.6 L494.0,178.1 L494.9,171.4 L495.7,146.1 L496.5,142.8 L497.4,148.6 L498.2,149.7 L499.1,147.8 L499.9,178.1 L500.8,162.8 L501.6,121.4 L502.4,160.3 L503.3,160.0 L504.1,149.5 L505.0,195.0 L505.8,204.1 L506.6,197.8 L507.5,164.5 L508.3,170.8 L509.2,182.2 L510.0,187.8 L510.9,190.5 L511.7,175.8 L512.5,177.5 L513.4,169.7 L514.2,191.9 L515.1,162.8 L515.9,158.9 L516.7,183.9 L517.6,171.7 L518.4,166.1 L519.3,174.2 L520.1,169.2 L521.0,160.0 L521.8,153.6 L522.6,168.9 L523.5,148.1 L524.3,198.9 L525.2,186.7 L526.0,178.1 L526.8,164.7 L527.7,180.8 L528.5,184.4 L529.4,183.6 L530.2,183.3 L531.1,154.7 L531.9,145.6 L532.7,125.9 L533.6,122.3 L534.4,115.3 L535.3,116.5 L536.1,134.8 L536.9,128.7 L537.8,132.8 L538.6,145.3 L539.5,157.2 L540.3,154.2 L541.2,151.1 L542.0,170.3 L542.8,176.1 L543.7,168.1 L544.5,176.7 L545.4,182.8 L546.2,180.3 L547.0,160.3 L547.9,176.4 L548.7,187.5 L549.6,186.7 L550.4,169.2 L551.2,140.9 L552.1,143.9 L552.9,160.8 L553.8,173.9 L554.6,181.7 L555.5,194.1 L556.3,179.2 L557.1,176.9 L558.0,177.8 L558.8,181.7 L559.7,181.9 L560.5,160.0 L561.3,165.0 L562.2,148.4 L563.0,145.6 L563.9,153.4 L564.7,168.6 L565.6,178.1 L566.4,164.5 L567.2,183.9 L568.1,191.9 L568.9,179.7 L569.8,178.9 L570.6,188.6 L571.4,204.7 L572.3,182.2 L573.1,158.1 L574.0,156.7 L574.8,142.0 L575.7,133.7 L576.5,143.1 L577.3,158.4 L578.2,177.2 L579.0,168.3 L579.9,158.6 L580.7,172.2 L581.5,186.1 L582.4,176.9 L583.2,155.3 L584.1,160.3 L584.9,184.2 L585.8,162.0 L586.6,145.3 L587.4,159.7 L588.3,157.0 L589.1,176.9 L590.0,176.1 L590.8,176.9 L591.6,177.2 L592.5,170.8 L593.3,163.1 L594.2,174.7 L595.0,210.0 L595.8,198.0 L596.7,183.6 L597.5,188.9 L598.4,185.0 L599.2,167.0 L600.1,169.4 L600.9,172.5 L601.7,157.8 L602.6,176.1 L603.4,190.3 L604.3,168.1 L605.1,184.2 L605.9,181.1 L606.8,182.2 L607.6,190.8 L608.5,168.6 L609.3,106.5 L610.2,128.9 L611.0,179.4 L611.8,172.5 L612.7,167.8 L613.5,155.0 L614.4,161.7 L615.2,158.6 L616.0,163.6 L616.9,146.4 L617.7,132.0 L618.6,140.6 L619.4,147.0 L620.3,155.0 L621.1,155.6 L621.9,170.3 L622.8,170.0 L623.6,181.7 L624.5,204.4 L625.3,203.9 L626.1,200.5 L627.0,198.0 L627.8,195.3 L628.7,184.4 L629.5,188.6 L630.4,197.5 L631.2,202.7 L632.0,208.0 L632.9,228.5 L633.7,228.0 L634.6,221.9 L635.4,210.2 L636.2,196.1 L637.1,184.7 L637.9,182.8 L638.8,173.6 L639.6,158.1 L640.4,155.0 L641.3,144.8 L642.1,151.4 L643.0,148.1 L643.8,155.3 L644.7,149.7 L645.5,153.6 L646.3,156.4 L647.2,132.0 L648.0,127.6 L648.9,130.9 L649.7,124.8 L650.5,130.3 L651.4,147.0 L652.2,175.3 L653.1,179.4 L653.9,152.8 L654.8,159.2 L655.6,144.2 L656.4,159.2 L657.3,148.9 L658.1,146.1 L659.0,158.9 L659.8,143.6 L660.6,152.5 L661.5,151.4 L662.3,137.8 L663.2,121.2 L664.0,130.9 L664.9,104.5 L665.7,123.4 L666.5,119.8 L667.4,128.1 L668.2,130.0 L669.1,117.6 L669.9,122.8 L670.7,128.7 L671.6,118.1 L672.4,123.9 L673.3,105.1 L674.1,87.0 L675.0,94.5 L675.8,107.6 L676.6,102.6 L677.5,93.7 L678.3,91.2 L679.2,89.5 L680.0,97.0" stroke="#8c564b" stroke-width="2" fill="none" opacity="0.8"/>
<!-- Forecast Difference -->
<path d="M80.0,420.0 L80.8,420.0 L81.7,420.0 L82.5,420.0 L83.4,420.0 L84.2,420.0 L85.0,420.0 L85.9,420.0 L86.7,420.0 L87.6,420.0 L88.4,420.0 L89.3,420.0 L90.1,420.0 L90.9,420.0 L91.8,420.0 L92.6,420.0 L93.5,420.0 L94.3,420.0 L95.1,420.0 L96.0,420.0 L96.8,420.0 L97.7,420.0 L98.5,420.0 L99.4,420.0 L100.2,420.0 L101.0,420.0 L101.9,420.0 L102.7,420.0 L103.6,420.0 L104.4,420.0 L105.2,420.0 L106.1,420.0 L106.9,420.0 L107.8,420.0 L108.6,420.0 L109.5,420.0 L110.3,420.0 L111.1,420.0 L112.0,420.0 L112.8,420.0 L113.7,420.0 L114.5,420.0 L115.3,420.0 L116.2,420.0 L117.0,420.0 L117.9,420.0 L118.7,420.0 L119.6,420.0 L120.4,420.0 L121.2,420.0 L122.1,420.0 L122.9,420.0 L123.8,420.0 L124.6,420.0 L125.4,420.0 L126.3,420.0 L127.1,420.0 L128.0,420.0 L128.8,420.0 L129.6,420.0 L130.5,420.0 L131.3,420.0 L132.2,420.0 L133.0,420.0 L133.9,420.0 L134.7,420.0 L135.5,420.0 L136.4,420.0 L137.2,420.0 L138.1,420.0 L138.9,420.0 L139.7,420.0 L140.6,420.0 L141.4,420.0 L142.3,420.0 L143.1,420.0 L144.0,420.0 L144.8,420.0 L145.6,420.0 L146.5,420.0 L147.3,420.0 L148.2,420.0 L149.0,420.0 L149.8,420.0 L150.7,420.0 L151.5,420.0 L152.4,420.0 L153.2,420.0 L154.1,420.0 L154.9,420.0 L155.7,420.0 L156.6,420.0 L157.4,420.0 L158.3,420.0 L159.1,420.0 L159.9,420.0 L160.8,420.0 L161.6,420.0 L162.5,420.0 L163.3,420.0 L164.2,420.0 L165.0,420.0 L165.8,420.0 L166.7,420.0 L167.5,420.0 L168.4,420.0 L169.2,420.0 L170.0,420.0 L170.9,420.0 L171.7,420.0 L172.6,420.0 L173.4,420.0 L174.2,420.0 L175.1,420.0 L175.9,420.0 L176.8,420.0 L177.6,420.0 L178.5,420.0 L179.3,420.0 L180.1,420.0 L181.0,420.0 L181.8,420.0 L182.7,420.0 L183.5,420.0 L184.3,420.0 L185.2,420.0 L186.0,420.0 L186.9,420.0 L187.7,420.0 L188.6,420.0 L189.4,420.0 L190.2,420.0 L191.1,420.0 L191.9,420.0 L192.8,420.0 L193.6,420.0 L194.4,420.0 L195.3,420.0 L196.1,420.0 L197.0,420.0 L197.8,420.0 L198.7,420.0 L199.5,420.0 L200.3,420.0 L201.2,420.0 L202.0,420.0 L202.9,420.0 L203.7,420.0 L204.5,420.0 L205.4,420.0 L206.2,420.0 L207.1,420.0 L207.9,420.0 L208.8,420.0 L209.6,420.0 L210.4,420.0 L211.3,420.0 L212.1,420.0 L213.0,420.0 L213.8,420.0 L214.6,420.0 L215.5,420.0 L216.3,420.0 L217.2,420.0 L218.0,420.0 L218.8,420.0 L219.7,420.0 L220.5,420.0 L221.4,420.0 L222.2,420.0 L223.1,420.0 L223.9,420.0 L224.7,420.0 L225.6,420.0 L226.4,420.0 L227.3,420.0 L228.1,420.0 L228.9,420.0 L229.8,420.0 L230.6,420.0 L231.5,420.0 L232.3,420.0 L233.2,420.0 L234.0,420.0 L234.8,420.0 L235.7,420.0 L236.5,420.0 L237.4,420.0 L238.2,420.0 L239.0,420.0 L239.9,420.0 L240.7,420.0 L241.6,420.0 L242.4,420.0 L243.3,420.0 L244.1,420.0 L244.9,420.0 L245.8,420.0 L246.6,420.0 L247.5,420.0 L248.3,420.0 L249.1,420.0 L250.0,420.0 L250.8,420.0 L251.7,420.0 L252.5,420.0 L253.4,420.0 L254.2,420.0 L255.0,420.0 L255.9,420.0 L256.7,420.0 L257.6,420.0 L258.4,420.0 L259.2,420.0 L260.1,420.0 L260.9,420.0 L261.8,420.0 L262.6,420.0 L263.5,420.0 L264.3,420.0 L265.1,420.0 L266.0,420.0 L266.8,420.0 L267.7,420.0 L268.5,420.0 L269.3,420.0 L270.2,420.0 L271.0,420.0 L271.9,420.0 L272.7,420.0 L273.5,420.0 L274.4,420.0 L275.2,420.0 L276.1,420.0 L276.9,420.0 L277.8,420.0 L278.6,420.0 L279.4,420.0 L280.3,420.0 L281.1,420.0 L282.0,420.0 L282.8,420.0 L283.6,420.0 L284.5,420.0 L285.3,420.0 L286.2,420.0 L287.0,420.0 L287.9,420.0 L288.7,420.0 L289.5,420.0 L290.4,420.0 L291.2,420.0 L292.1,420.0 L292.9,420.0 L293.7,420.0 L294.6,420.0 L295.4,420.0 L296.3,420.0 L297.1,420.0 L298.0,420.0 L298.8,420.0 L299.6,420.0 L300.5,420.0 L301.3,420.0 L302.2,420.0 L303.0,420.0 L303.8,420.0 L304.7,420.0 L305.5,420.0 L306.4,420.0 L307.2,420.0 L308.1,420.0 L308.9,420.0 L309.7,420.0 L310.6,420.0 L311.4,420.0 L312.3,420.0 L313.1,420.0 L313.9,420.0 L314.8,420.0 L315.6,420.0 L316.5,420.0 L317.3,420.0 L318.1,420.0 L319.0,420.0 L319.8,420.0 L320.7,420.0 L321.5,420.0 L322.4,420.0 L323.2,420.0 L324.0,420.0 L324.9,420.0 L325.7,420.0 L326.6,420.0 L327.4,420.0 L328.2,420.0 L329.1,420.0 L329.9,420.0 L330.8,420.0 L331.6,420.0 L332.5,420.0 L333.3,420.0 L334.1,420.0 L335.0,420.0 L335.8,420.0 L336.7,420.0 L337.5,420.0 L338.3,420.0 L339.2,420.0 L340.0,420.0 L340.9,420.0 L341.7,420.0 L342.6,420.0 L343.4,420.0 L344.2,420.0 L345.1,420.0 L345.9,420.0 L346.8,420.0 L347.6,420.0 L348.4,420.0 L349.3,420.0 L350.1,420.0 L351.0,420.0 L351.8,420.0 L352.7,420.0 L353.5,420.0 L354.3,420.0 L355.2,420.0 L356.0,420.0 L356.9,420.0 L357.7,420.0 L358.5,420.0 L359.4,420.0 L360.2,420.0 L361.1,420.0 L361.9,420.0 L362.7,420.0 L363.6,420.0 L364.4,420.0 L365.3,420.0 L366.1,420.0 L367.0,420.0 L367.8,420.0 L368.6,420.0 L369.5,420.0 L370.3,420.0 L371.2,420.0 L372.0,420.0 L372.8,420.0 L373.7,420.0 L374.5,420.0 L375.4,420.0 L376.2,420.0 L377.1,420.0 L377.9,420.0 L378.7,420.0 L379.6,420.0 L380.4,420.0 L381.3,420.0 L382.1,420.0 L382.9,420.0 L383.8,420.0 L384.6,420.0 L385.5,420.0 L386.3,420.0 L387.2,420.0 L388.0,420.0 L388.8,420.0 L389.7,420.0 L390.5,420.0 L391.4,420.0 L392.2,420.0 L393.0,420.0 L393.9,420.0 L394.7,420.0 L395.6,420.0 L396.4,420.0 L397.3,420.0 L398.1,420.0 L398.9,420.0 L399.8,420.0 L400.6,420.0 L401.5,420.0 L402.3,420.0 L403.1,420.0 L404.0,420.0 L404.8,420.0 L405.7,420.0 L406.5,420.0 L407.3,420.0 L408.2,420.0 L409.0,420.0 L409.9,420.0 L410.7,420.0 L411.6,420.0 L412.4,420.0 L413.2,420.0 L414.1,420.0 L414.9,420.0 L415.8,420.0 L416.6,420.0 L417.4,420.0 L418.3,420.0 L419.1,420.0 L420.0,420.0 L420.8,420.0 L421.7,420.0 L422.5,420.0 L423.3,420.0 L424.2,420.0 L425.0,420.0 L425.9,420.0 L426.7,420.0 L427.5,420.0 L428.4,420.0 L429.2,420.0 L430.1,420.0 L430.9,420.0 L431.8,420.0 L432.6,420.0 L433.4,420.0 L434.3,420.0 L435.1,420.0 L436.0,420.0 L436.8,420.0 L437.6,420.0 L438.5,420.0 L439.3,420.0 L440.2,420.0 L441.0,420.0 L441.9,420.0 L442.7,420.0 L443.5,420.0 L444.4,420.0 L445.2,420.0 L446.1,420.0 L446.9,420.0 L447.7,420.0 L448.6,420.0 L449.4,420.0 L450.3,420.0 L451.1,420.0 L451.9,420.0 L452.8,420.0 L453.6,420.0 L454.5,420.0 L455.3,420.0 L456.2,420.0 L457.0,420.0 L457.8,420.0 L458.7,420.0 L459.5,420.0 L460.4,420.0 L461.2,420.0 L462.0,420.0 L462.9,420.0 L463.7,420.0 L464.6,420.0 L465.4,420.0 L466.3,420.0 L467.1,420.0 L467.9,420.0 L468.8,420.0 L469.6,420.0 L470.5,420.0 L471.3,420.0 L472.1,420.0 L473.0,420.0 L473.8,420.0 L474.7,420.0 L475.5,420.0 L476.4,420.0 L477.2,420.0 L478.0,420.0 L478.9,420.0 L479.7,420.0 L480.6,420.0 L481.4,420.0 L482.2,420.0 L483.1,420.0 L483.9,420.0 L484.8,420.0 L485.6,420.0 L486.5,420.0 L487.3,420.0 L488.1,420.0 L489.0,420.0 L489.8,420.0 L490.7,420.0 L491.5,420.0 L492.3,420.0 L493.2,420.0 L494.0,420.0 L494.9,420.0 L495.7,420.0 L496.5,420.0 L497.4,420.0 L498.2,420.0 L499.1,420.0 L499.9,420.0 L500.8,420.0 L501.6,420.0 L502.4,420.0 L503.3,420.0 L504.1,420.0 L505.0,420.0 L505.8,420.0 L506.6,420.0 L507.5,420.0 L508.3,420.0 L509.2,420.0 L510.0,420.0 L510.9,420.0 L511.7,420.0 L512.5,420.0 L513.4,420.0 L514.2,420.0 L515.1,420.0 L515.9,420.0 L516.7,420.0 L517.6,420.0 L518.4,420.0 L519.3,420.0 L520.1,420.0 L521.0,420.0 L521.8,420.0 L522.6,420.0 L523.5,420.0 L524.3,420.0 L525.2,420.0 L526.0,420.0 L526.8,420.0 L527.7,420.0 L528.5,420.0 L529.4,420.0 L530.2,420.0 L531.1,420.0 L531.9,420.0 L532.7,420.0 L533.6,420.0 L534.4,420.0 L535.3,420.0 L536.1,420.0 L536.9,420.0 L537.8,420.0 L538.6,420.0 L539.5,420.0 L540.3,420.0 L541.2,420.0 L542.0,420.0 L542.8,420.0 L543.7,420.0 L544.5,420.0 L545.4,420.0 L546.2,420.0 L547.0,420.0 L547.9,420.0 L548.7,420.0 L549.6,420.0 L550.4,420.0 L551.2,420.0 L552.1,420.0 L552.9,420.0 L553.8,420.0 L554.6,420.0 L555.5,420.0 L556.3,420.0 L557.1,420.0 L558.0,420.0 L558.8,420.0 L559.7,420.0 L560.5,420.0 L561.3,420.0 L562.2,420.0 L563.0,420.0 L563.9,420.0 L564.7,420.0 L565.6,420.0 L566.4,420.0 L567.2,420.0 L568.1,420.0 L568.9,420.0 L569.8,420.0 L570.6,420.0 L571.4,420.0 L572.3,420.0 L573.1,420.0 L574.0,420.0 L574.8,420.0 L575.7,420.0 L576.5,420.0 L577.3,420.0 L578.2,420.0 L579.0,420.0 L579.9,420.0 L580.7,420.0 L581.5,420.0 L582.4,420.0 L583.2,420.0 L584.1,420.0 L584.9,420.0 L585.8,420.0 L586.6,420.0 L587.4,420.0 L588.3,420.0 L589.1,420.0 L590.0,420.0 L590.8,420.0 L591.6,420.0 L592.5,420.0 L593.3,420.0 L594.2,420.0 L595.0,420.0 L595.8,420.0 L596.7,420.0 L597.5,420.0 L598.4,420.0 L599.2,420.0 L600.1,420.0 L600.9,420.0 L601.7,420.0 L602.6,420.0 L603.4,420.0 L604.3,420.0 L605.1,420.0 L605.9,420.0 L606.8,420.0 L607.6,420.0 L608.5,420.0 L609.3,420.0 L610.2,420.0 L611.0,420.0 L611.8,420.0 L612.7,420.0 L613.5,420.0 L614.4,420.0 L615.2,420.0 L616.0,420.0 L616.9,420.0 L617.7,420.0 L618.6,420.0 L619.4,420.0 L620.3,420.0 L621.1,420.0 L621.9,420.0 L622.8,420.0 L623.6,420.0 L624.5,420.0 L625.3,420.0 L626.1,420.0 L627.0,420.0 L627.8,420.0 L628.7,420.0 L629.5,420.0 L630.4,420.0 L631.2,420.0 L632.0,420.0 L632.9,420.0 L633.7,420.0 L634.6,420.0 L635.4,420.0 L636.2,420.0 L637.1,420.0 L637.9,420.0 L638.8,420.0 L639.6,420.0 L640.4,420.0 L641.3,420.0 L642.1,420.0 L643.0,420.0 L643.8,420.0 L644.7,420.0 L645.5,420.0 L646.3,420.0 L647.2,420.0 L648.0,420.0 L648.9,420.0 L649.7,420.0 L650.5,420.0 L651.4,420.0 L652.2,420.0 L653.1,420.0 L653.9,420.0 L654.8,420.0 L655.6,420.0 L656.4,420.0 L657.3,420.0 L658.1,420.0 L659.0,420.0 L659.8,420.0 L660.6,420.0 L661.5,420.0 L662.3,420.0 L663.2,420.0 L664.0,420.0 L664.9,420.0 L665.7,420.0 L666.5,420.0 L667.4,420.0 L668.2,420.0 L669.1,420.0 L669.9,420.0 L670.7,420.0 L671.6,420.0 L672.4,420.0 L673.3,420.0 L674.1,420.0 L675.0,420.0 L675.8,420.0 L676.6,420.0 L677.5,420.0 L678.3,420.0 L679.2,420.0 L680.0,420.0" stroke="#e377c2" stroke-width="2" fill="none" opacity="0.8"/>

<!-- Legend -->
<line x1="690" y1="70" x2="705" y2="70" stroke="#1f77b4" stroke-width="3"/>
<text x="710" y="74" class="legend">Wind Generation</text>
<line x1="690" y1="88" x2="705" y2="88" stroke="#ff7f0e" stroke-width="3"/>
<text x="710" y="92" class="legend">Hydro Generation</text>
<line x1="690" y1="106" x2="705" y2="106" stroke="#2ca02c" stroke-width="3"/>
<text x="710" y="110" class="legend">Thermal Generation</text>
<line x1="690" y1="124" x2="705" y2="124" stroke="#d62728" stroke-width="3"/>
<text x="710" y="128" class="legend">Solar Generation</text>
<line x1="690" y1="142" x2="705" y2="142" stroke="#9467bd" stroke-width="3"/>
<text x="710" y="146" class="legend">Forecast</text>
<line x1="690" y1="160" x2="705" y2="160" stroke="#8c564b" stroke-width="3"/>
<text x="710" y="164" class="legend">Total Generation</text>
<line x1="690" y1="178" x2="705" y2="178" stroke="#e377c2" stroke-width="3"/>
<text x="710" y="182" class="legend">Forecast Difference</text>

<!-- Date range -->
<text x="80" y="495" class="legend">Range: 07/04 - 08/03/2026 (714 records)</text>
</svg>