<?xml version="1.0" encoding="UTF-8"?>
<svg width="800" height="500" xmlns="http://www.w3.org/2000/svg">
<style>
.axis-line { stroke: #333; stroke-width: 1; }
.grid-line { stroke: #ddd; stroke-width: 0.5; }
.title { font: 16px Arial; text-anchor: middle; fill: #333; }
.axis-label { font: 12px Arial; text-anchor: middle; fill: #666; }
.legend { font: 10px Arial; fill: #333; }
</style>

<!-- Title -->
<text x="400.0" y="25" class="title">Northwestern Energy Generation Data - Past 30 Days</text>

<!-- Plot area background -->
<rect x="80" y="50" width="600" height="370" fill="white" stroke="#ddd"/>

<!-- Y-axis -->
<line x1="80" y1="50" x2="80" y2="420" class="axis-line"/>
<text x="30" y="235.0" class="axis-label" transform="rotate(-90, 30, 235.0)">Generation (MW)</text>

<!-- X-axis -->
<line x1="80" y1="420" x2="680" y2="420" class="axis-line"/>
<text x="380.0" y="480" class="axis-label">Time</text>
<line x1="80" y1="420.0" x2="680" y2="420.0" class="grid-line"/>
<text x="70" y="425.0" class="legend" text-anchor="end">0</text>
<line x1="80" y1="327.5" x2="680" y2="327.5" class="grid-line"/>
<text x="70" y="332.5" class="legend" text-anchor="end">318</text>
<line x1="80" y1="235.0" x2="680" y2="235.0" class="grid-line"/>
<text x="70" y="240.0" class="legend" text-anchor="end">636</text>
<line x1="80" y1="142.5" x2="680" y2="142.5" class="grid-line"/>
<text x="70" y="147.5" class="legend" text-anchor="end">954</text>
<line x1="80" y1="50.0" x2="680" y2="50.0" class="grid-line"/>
<text x="70" y="55.0" class="legend" text-anchor="end">1273</text>
<!-- Wind Generation -->
<path d="M80.0,390.3 L80.8,395.6 L81.7,404.9 L82.5,407.5 L83.4,410.4 L84.2,407.5 L85.0,401.4 L85.9,405.5 L86.7,404.6 L87.6,410.7 L88.4,415.1 L89.3,418.5 L90.1,420.0 L90.9,420.0 L91.8,418.5 L92.6,418.0 L93.5,416.5 L94.3,413.9 L95.1,413.3 L96.0,409.8 L96.8,399.6 L97.7,380.7 L98.5,383.4 L99.4,386.9 L100.2,396.4 L101.0,398.5 L101.9,406.0 L102.7,406.9 L103.6,416.5 L104.4,417.1 L105.2,416.2 L106.1,406.0 L106.9,397.6 L107.8,396.4 L108.6,400.8 L109.5,393.0 L110.3,376.4 L111.1,357.2 L112.0,350.8 L112.8,341.8 L113.7,346.2 L114.5,344.1 L115.3,350.8 L116.2,347.9 L117.0,351.1 L117.9,365.0 L118.7,372.3 L119.6,382.8 L120.4,392.4 L121.2,408.4 L122.1,418.0 L122.9,417.7 L123.8,419.4 L124.6,419.4 L125.4,418.8 L126.3,416.2 L127.1,415.3 L128.0,415.3 L128.8,412.7 L129.6,411.6 L130.5,393.5 L131.3,383.7 L132.2,393.3 L133.0,390.9 L133.9,388.3 L134.7,390.3 L135.5,399.6 L136.4,406.0 L137.2,408.1 L138.1,408.1 L138.9,402.6 L139.7,370.6 L140.6,389.5 L141.4,394.1 L142.3,379.9 L143.1,371.4 L144.0,370.6 L144.8,375.5 L145.6,372.9 L146.5,361.9 L147.3,367.7 L148.2,381.3 L149.0,397.3 L149.8,387.4 L150.7,390.1 L151.5,392.7 L152.4,409.0 L153.2,415.9 L154.1,414.2 L154.9,395.3 L155.7,386.6 L156.6,390.6 L157.4,395.6 L158.3,367.7 L159.1,379.0 L159.9,372.0 L160.8,349.6 L161.6,356.0 L162.5,370.6 L163.3,358.9 L164.2,395.0 L165.0,402.6 L165.8,379.9 L166.7,378.1 L167.5,375.5 L168.4,366.8 L169.2,410.1 L170.0,406.3 L170.9,404.0 L171.7,408.1 L172.6,393.3 L173.4,389.5 L174.2,366.5 L175.1,356.3 L175.9,357.5 L176.8,328.4 L177.6,331.9 L178.5,334.5 L179.3,316.2 L180.1,311.8 L181.0,322.6 L181.8,322.0 L182.7,315.6 L183.5,313.3 L184.3,314.2 L185.2,336.6 L186.0,363.0 L186.9,358.4 L187.7,369.1 L188.6,370.6 L189.4,367.1 L190.2,363.6 L191.1,362.4 L191.9,370.9 L192.8,383.9 L193.6,395.3 L194.4,406.3 L195.3,401.1 L196.1,405.8 L197.0,407.8 L197.8,392.1 L198.7,393.3 L199.5,380.7 L200.3,381.9 L201.2,393.8 L202.0,405.2 L202.9,402.8 L203.7,396.4 L204.5,402.8 L205.4,418.0 L206.2,415.6 L207.1,398.8 L207.9,385.1 L208.8,368.5 L209.6,365.9 L210.4,351.4 L211.3,338.3 L212.1,349.6 L213.0,356.0 L213.8,354.0 L214.6,362.4 L215.5,366.2 L216.3,369.1 L217.2,355.5 L218.0,315.6 L218.8,350.2 L219.7,354.3 L220.5,329.6 L221.4,326.7 L222.2,325.2 L223.1,316.5 L223.9,315.6 L224.7,321.1 L225.6,317.7 L226.4,315.6 L227.3,316.2 L228.1,318.5 L228.9,323.8 L229.8,326.7 L230.6,325.5 L231.5,356.3 L232.3,323.2 L233.2,311.6 L234.0,332.5 L234.8,330.5 L235.7,316.5 L236.5,321.7 L237.4,324.6 L238.2,333.4 L239.0,327.3 L239.9,317.9 L240.7,317.9 L241.6,322.0 L242.4,319.7 L243.3,320.0 L244.1,318.2 L244.9,329.6 L245.8,329.9 L246.6,331.3 L247.5,336.0 L248.3,335.4 L249.1,342.4 L250.0,335.1 L250.8,333.6 L251.7,334.2 L252.5,333.4 L253.4,327.3 L254.2,321.4 L255.0,322.6 L255.9,342.7 L256.7,317.9 L257.6,318.2 L258.4,320.3 L259.2,336.6 L260.1,371.7 L260.9,377.8 L261.8,385.1 L262.6,393.8 L263.5,404.0 L264.3,413.0 L265.1,412.4 L266.0,409.0 L266.8,409.0 L267.7,408.1 L268.5,411.3 L269.3,415.3 L270.2,413.0 L271.0,407.2 L271.9,398.2 L272.7,383.7 L273.5,365.9 L274.4,357.5 L275.2,376.4 L276.1,377.8 L276.9,343.5 L277.8,358.1 L278.6,358.1 L279.4,365.3 L280.3,353.1 L281.1,358.9 L282.0,358.1 L282.8,355.2 L283.6,372.6 L284.5,380.2 L285.3,392.4 L286.2,395.0 L287.0,383.4 L287.9,363.3 L288.7,373.2 L289.5,379.6 L290.4,387.7 L291.2,393.5 L292.1,393.3 L292.9,392.7 L293.7,397.6 L294.6,398.2 L295.4,383.7 L296.3,376.4 L297.1,381.3 L298.0,383.1 L298.8,393.3 L299.6,398.5 L300.5,406.9 L301.3,405.8 L302.2,412.7 L303.0,413.3 L303.8,416.2 L304.7,419.1 L305.5,419.7 L306.4,419.7 L307.2,419.1 L308.1,419.7 L308.9,420.0 L309.7,420.0 L310.6,420.0 L311.4,420.0 L312.3,420.0 L313.1,420.0 L313.9,420.0 L314.8,420.0 L315.6,420.0 L316.5,420.0 L317.3,420.0 L318.1,420.0 L319.0,419.4 L319.8,419.1 L320.7,409.2 L321.5,413.3 L322.4,415.1 L323.2,418.5 L324.0,416.8 L324.9,414.8 L325.7,406.0 L326.6,391.5 L327.4,385.4 L328.2,384.2 L329.1,392.7 L329.9,402.8 L330.8,406.6 L331.6,410.1 L332.5,408.4 L333.3,401.4 L334.1,396.7 L335.0,388.3 L335.8,393.3 L336.7,392.1 L337.5,386.0 L338.3,379.3 L339.2,389.5 L340.0,407.2 L340.9,416.8 L341.7,415.1 L342.6,409.8 L343.4,402.6 L344.2,406.6 L345.1,402.0 L345.9,387.1 L346.8,359.8 L347.6,334.8 L348.4,341.5 L349.3,349.1 L350.1,329.0 L351.0,311.0 L351.8,305.4 L352.7,305.7 L353.5,305.7 L354.3,307.5 L355.2,310.1 L356.0,310.4 L356.9,315.6 L357.7,312.4 L358.5,310.4 L359.4,316.5 L360.2,321.1 L361.1,327.5 L361.9,345.9 L362.7,348.5 L363.6,336.0 L364.4,342.4 L365.3,354.0 L366.1,352.8 L367.0,356.0 L367.8,344.4 L368.6,349.6 L369.5,365.6 L370.3,368.5 L371.2,368.8 L372.0,363.3 L372.8,374.6 L373.7,366.2 L374.5,359.8 L375.4,355.2 L376.2,347.6 L377.1,347.0 L377.9,342.1 L378.7,355.2 L379.6,371.2 L380.4,380.7 L381.3,386.0 L382.1,400.8 L382.9,415.9 L383.8,417.4 L384.6,414.2 L385.5,415.9 L386.3,409.0 L387.2,415.9 L388.0,420.0 L388.8,415.6 L389.7,396.4 L390.5,418.8 L391.4,416.2 L392.2,415.9 L393.0,412.4 L393.9,406.3 L394.7,380.5 L395.6,381.9 L396.4,370.3 L397.3,363.9 L398.1,357.2 L398.9,347.0 L399.8,343.5 L400.6,379.0 L401.5,389.8 L402.3,403.7 L403.1,406.6 L404.0,408.7 L404.8,413.3 L405.7,415.1 L406.5,415.3 L407.3,416.8 L408.2,413.9 L409.0,413.0 L409.9,413.6 L410.7,416.2 L411.6,414.5 L412.4,413.0 L413.2,409.0 L414.1,406.0 L414.9,400.2 L415.8,396.7 L416.6,388.9 L417.4,386.3 L418.3,365.0 L419.1,367.7 L420.0,353.1 L420.8,347.3 L421.7,354.0 L422.5,350.8 L423.3,348.2 L424.2,358.9 L425.0,380.7 L425.9,399.4 L426.7,397.0 L427.5,412.7 L428.4,416.2 L429.2,417.1 L430.1,420.0 L430.9,420.0 L431.8,419.4 L432.6,420.0 L433.4,418.8 L434.3,418.5 L435.1,413.0 L436.0,415.1 L436.8,412.1 L437.6,413.0 L438.5,413.9 L439.3,413.0 L440.2,387.4 L441.0,395.0 L441.9,401.1 L442.7,409.8 L443.5,411.3 L444.4,395.6 L445.2,397.6 L446.1,378.4 L446.9,375.8 L447.7,362.1 L448.6,336.8 L449.4,353.7 L450.3,346.4 L451.1,378.7 L451.9,387.7 L452.8,379.3 L453.6,376.4 L454.5,383.4 L455.3,378.1 L456.2,386.9 L457.0,393.3 L457.8,398.8 L458.7,404.3 L459.5,390.3 L460.4,372.0 L461.2,366.2 L462.0,381.0 L462.9,366.5 L463.7,378.7 L464.6,381.3 L465.4,399.4 L466.3,396.7 L467.1,390.3 L467.9,376.4 L468.8,373.8 L469.6,383.7 L470.5,403.4 L471.3,408.7 L472.1,415.3 L473.0,412.7 L473.8,414.5 L474.7,411.3 L475.5,413.6 L476.4,418.8 L477.2,387.1 L478.0,372.6 L478.9,365.6 L479.7,378.4 L480.6,377.6 L481.4,397.0 L482.2,406.3 L483.1,410.4 L483.9,415.9 L484.8,415.6 L485.6,413.3 L486.5,413.6 L487.3,413.0 L488.1,412.1 L489.0,413.0 L489.8,415.3 L490.7,412.7 L491.5,411.0 L492.3,409.5 L493.2,412.4 L494.0,406.6 L494.9,401.4 L495.7,399.1 L496.5,396.7 L497.4,393.8 L498.2,389.2 L499.1,385.4 L499.9,383.4 L500.8,381.6 L501.6,376.1 L502.4,376.7 L503.3,386.6 L504.1,394.4 L505.0,399.4 L505.8,399.9 L506.6,400.5 L507.5,403.1 L508.3,405.8 L509.2,410.4 L510.0,416.5 L510.9,415.3 L511.7,419.7 L512.5,413.6 L513.4,413.6 L514.2,408.1 L515.1,406.9 L515.9,409.5 L516.7,411.0 L517.6,413.0 L518.4,411.9 L519.3,408.1 L520.1,399.4 L521.0,380.7 L521.8,364.5 L522.6,356.3 L523.5,342.1 L524.3,343.5 L525.2,356.0 L526.0,374.9 L526.8,383.9 L527.7,401.1 L528.5,410.7 L529.4,413.0 L530.2,417.4 L531.1,414.2 L531.9,419.4 L532.7,412.7 L533.6,414.5 L534.4,417.7 L535.3,417.7 L536.1,420.0 L536.9,419.4 L537.8,411.9 L538.6,419.4 L539.5,407.5 L540.3,413.6 L541.2,388.9 L542.0,413.6 L542.8,415.6 L543.7,416.8 L544.5,414.8 L545.4,416.2 L546.2,411.0 L547.0,414.8 L547.9,416.2 L548.7,415.9 L549.6,412.1 L550.4,417.7 L551.2,416.5 L552.1,418.0 L552.9,411.9 L553.8,409.0 L554.6,408.7 L555.5,409.2 L556.3,400.5 L557.1,393.8 L558.0,379.9 L558.8,377.0 L559.7,353.1 L560.5,394.4 L561.3,391.5 L562.2,400.8 L563.0,395.6 L563.9,415.3 L564.7,417.1 L565.6,418.5 L566.4,411.0 L567.2,394.7 L568.1,378.1 L568.9,386.9 L569.8,372.3 L570.6,368.8 L571.4,382.8 L572.3,397.6 L573.1,404.6 L574.0,393.3 L574.8,396.7 L575.7,397.9 L576.5,387.1 L577.3,403.4 L578.2,383.7 L579.0,399.6 L579.9,402.6 L580.7,403.1 L581.5,416.2 L582.4,413.9 L583.2,404.3 L584.1,391.8 L584.9,393.5 L585.8,381.6 L586.6,367.4 L587.4,351.7 L588.3,356.3 L589.1,369.7 L590.0,365.0 L590.8,364.5 L591.6,357.2 L592.5,325.8 L593.3,355.2 L594.2,356.0 L595.0,355.5 L595.8,361.6 L596.7,356.0 L597.5,352.0 L598.4,354.0 L599.2,356.0 L600.1,355.7 L600.9,357.8 L601.7,329.9 L602.6,318.5 L603.4,328.1 L604.3,330.2 L605.1,331.3 L605.9,323.5 L606.8,322.0 L607.6,317.1 L608.5,322.3 L609.3,324.6 L610.2,324.6 L611.0,322.0 L611.8,322.3 L612.7,317.7 L613.5,339.2 L614.4,329.9 L615.2,333.9 L616.0,331.0 L616.9,335.1 L617.7,343.2 L618.6,349.3 L619.4,338.0 L620.3,347.9 L621.1,354.6 L621.9,332.5 L622.8,320.3 L623.6,309.8 L624.5,316.2 L625.3,312.1 L626.1,314.5 L627.0,313.9 L627.8,317.7 L628.7,315.0 L629.5,315.9 L630.4,314.5 L631.2,328.4 L632.0,333.1 L632.9,338.6 L633.7,329.3 L634.6,321.4 L635.4,330.5 L636.2,343.2 L637.1,355.5 L637.9,349.9 L638.8,357.2 L639.6,348.8 L640.4,345.9 L641.3,373.2 L642.1,384.8 L643.0,391.8 L643.8,405.5 L644.7,401.4 L645.5,409.5 L646.3,411.6 L647.2,410.1 L648.0,412.1 L648.9,397.6 L649.7,409.8 L650.5,412.7 L651.4,413.0 L652.2,408.7 L653.1,409.2 L653.9,402.8 L654.8,406.0 L655.6,399.1 L656.4,386.6 L657.3,383.4 L658.1,391.8 L659.0,398.5 L659.8,397.6 L660.6,400.8 L661.5,379.6 L662.3,397.6 L663.2,383.4 L664.0,394.7 L664.9,416.5 L665.7,412.7 L666.5,408.7 L667.4,408.4 L668.2,412.7 L669.1,413.6 L669.9,407.8 L670.7,402.0 L671.6,390.1 L672.4,388.6 L673.3,398.8 L674.1,400.5 L675.0,398.8 L675.8,399.4 L676.6,400.8 L677.5,405.8 L678.3,402.0 L679.2,393.5 L680.0,389.2" stroke="#1f77b4" stroke-width="2" fill="none" opacity="0.8"/>
<!-- Hydro Generation -->
<path d="M80.0,306.0 L80.8,306.0 L81.7,306.0 L82.5,306.0 L83.4,306.3 L84.2,306.6 L85.0,306.3 L85.9,306.6 L86.7,306.9 L87.6,306.3 L88.4,306.3 L89.3,306.9 L90.1,307.8 L90.9,306.9 L91.8,307.8 L92.6,307.8 L93.5,307.8 L94.3,307.8 L95.1,307.5 L96.0,308.1 L96.8,308.1 L97.7,308.1 L98.5,307.8 L99.4,308.1 L100.2,307.8 L101.0,307.5 L101.9,307.5 L102.7,307.5 L103.6,307.8 L104.4,307.8 L105.2,308.1 L106.1,308.4 L106.9,308.1 L107.8,308.4 L108.6,307.8 L109.5,308.1 L110.3,308.1 L111.1,307.2 L112.0,308.1 L112.8,308.1 L113.7,308.4 L114.5,309.2 L115.3,309.2 L116.2,309.5 L117.0,309.5 L117.9,309.2 L118.7,309.2 L119.6,309.5 L120.4,309.8 L121.2,310.1 L122.1,310.1 L122.9,309.8 L123.8,310.1 L124.6,309.8 L125.4,309.8 L126.3,310.1 L127.1,310.1 L128.0,308.6 L128.8,308.6 L129.6,308.4 L130.5,308.6 L131.3,308.6 L132.2,311.3 L133.0,309.5 L133.9,308.6 L134.7,308.4 L135.5,308.6 L136.4,308.4 L137.2,308.4 L138.1,308.6 L138.9,308.9 L139.7,308.9 L140.6,309.2 L141.4,308.9 L142.3,308.9 L143.1,309.2 L144.0,309.2 L144.8,309.5 L145.6,309.8 L146.5,310.1 L147.3,309.8 L148.2,310.1 L149.0,309.8 L149.8,310.7 L150.7,310.7 L151.5,310.7 L152.4,310.7 L153.2,310.7 L154.1,310.7 L154.9,311.0 L155.7,311.0 L156.6,311.0 L157.4,310.7 L158.3,311.0 L159.1,310.7 L159.9,310.4 L160.8,311.6 L161.6,311.8 L162.5,312.4 L163.3,312.1 L164.2,312.4 L165.0,313.0 L165.8,313.0 L166.7,312.7 L167.5,313.0 L168.4,313.0 L169.2,312.4 L170.0,313.3 L170.9,313.3 L171.7,313.0 L172.6,313.0 L173.4,313.3 L174.2,313.6 L175.1,313.3 L175.9,313.0 L176.8,313.0 L177.6,313.0 L178.5,313.0 L179.3,312.4 L180.1,313.0 L181.0,313.0 L181.8,313.0 L182.7,313.0 L183.5,313.0 L184.3,312.4 L185.2,312.4 L186.0,312.4 L186.9,313.3 L187.7,313.3 L188.6,314.8 L189.4,314.5 L190.2,313.6 L191.1,313.3 L191.9,313.6 L192.8,313.3 L193.6,313.3 L194.4,313.0 L195.3,312.7 L196.1,313.9 L197.0,313.3 L197.8,313.9 L198.7,313.6 L199.5,313.9 L200.3,313.9 L201.2,314.2 L202.0,314.5 L202.9,315.3 L203.7,315.3 L204.5,315.3 L205.4,315.3 L206.2,315.0 L207.1,315.0 L207.9,314.8 L208.8,315.6 L209.6,315.3 L210.4,318.2 L211.3,318.5 L212.1,317.4 L213.0,318.2 L213.8,317.7 L214.6,317.7 L215.5,318.2 L216.3,317.4 L217.2,317.4 L218.0,317.1 L218.8,316.2 L219.7,316.8 L220.5,316.8 L221.4,317.7 L222.2,317.4 L223.1,320.0 L223.9,321.1 L224.7,321.7 L225.6,322.0 L226.4,321.7 L227.3,322.0 L228.1,321.7 L228.9,322.0 L229.8,322.3 L230.6,322.0 L231.5,322.3 L232.3,322.6 L233.2,322.3 L234.0,322.9 L234.8,322.3 L235.7,322.0 L236.5,322.9 L237.4,322.9 L238.2,322.9 L239.0,323.2 L239.9,323.2 L240.7,322.9 L241.6,322.9 L242.4,322.9 L243.3,323.8 L244.1,325.2 L244.9,327.0 L245.8,327.0 L246.6,327.0 L247.5,327.3 L248.3,327.3 L249.1,328.7 L250.0,328.7 L250.8,328.4 L251.7,327.5 L252.5,327.5 L253.4,327.3 L254.2,327.5 L255.0,326.4 L255.9,324.9 L256.7,324.9 L257.6,323.2 L258.4,322.6 L259.2,322.3 L260.1,322.3 L260.9,322.6 L261.8,322.3 L262.6,322.3 L263.5,322.0 L264.3,322.3 L265.1,322.6 L266.0,322.9 L266.8,322.6 L267.7,322.6 L268.5,322.6 L269.3,323.8 L270.2,323.8 L271.0,323.5 L271.9,324.3 L272.7,324.6 L273.5,324.6 L274.4,324.3 L275.2,324.3 L276.1,324.3 L276.9,324.6 L277.8,324.3 L278.6,324.3 L279.4,324.6 L280.3,325.2 L281.1,325.2 L282.0,324.9 L282.8,324.9 L283.6,325.5 L284.5,325.2 L285.3,324.3 L286.2,324.6 L287.0,324.1 L287.9,324.1 L288.7,324.3 L289.5,324.3 L290.4,324.1 L291.2,325.5 L292.1,326.1 L292.9,326.7 L293.7,326.1 L294.6,326.4 L295.4,326.7 L296.3,327.0 L297.1,326.1 L298.0,326.4 L298.8,326.1 L299.6,326.7 L300.5,325.8 L301.3,325.2 L302.2,324.9 L303.0,325.5 L303.8,325.2 L304.7,325.5 L305.5,326.1 L306.4,325.8 L307.2,327.0 L308.1,326.7 L308.9,327.0 L309.7,327.8 L310.6,327.5 L311.4,328.4 L312.3,328.4 L313.1,328.4 L313.9,328.4 L314.8,328.4 L315.6,328.1 L316.5,328.4 L317.3,328.7 L318.1,328.1 L319.0,328.7 L319.8,328.7 L320.7,327.8 L321.5,327.8 L322.4,327.5 L323.2,327.8 L324.0,328.4 L324.9,328.4 L325.7,328.4 L326.6,328.4 L327.4,328.4 L328.2,329.6 L329.1,329.6 L329.9,329.6 L330.8,329.3 L331.6,328.7 L332.5,330.2 L333.3,330.2 L334.1,330.2 L335.0,329.6 L335.8,329.9 L336.7,330.2 L337.5,329.9 L338.3,329.9 L339.2,329.0 L340.0,329.3 L340.9,329.3 L341.7,329.6 L342.6,329.3 L343.4,329.0 L344.2,329.0 L345.1,328.7 L345.9,330.2 L346.8,329.9 L347.6,329.6 L348.4,329.9 L349.3,330.7 L350.1,330.7 L351.0,330.5 L351.8,330.5 L352.7,330.2 L353.5,330.2 L354.3,330.2 L355.2,330.5 L356.0,330.5 L356.9,330.5 L357.7,330.2 L358.5,331.6 L359.4,336.8 L360.2,341.8 L361.1,342.4 L361.9,334.5 L362.7,335.1 L363.6,335.7 L364.4,335.7 L365.3,335.4 L366.1,334.5 L367.0,334.5 L367.8,333.4 L368.6,332.2 L369.5,331.9 L370.3,332.5 L371.2,331.6 L372.0,332.5 L372.8,332.2 L373.7,331.9 L374.5,331.6 L375.4,331.6 L376.2,331.9 L377.1,331.9 L377.9,331.9 L378.7,331.9 L379.6,332.2 L380.4,332.5 L381.3,332.5 L382.1,332.5 L382.9,332.2 L383.8,332.2 L384.6,331.9 L385.5,332.2 L386.3,331.3 L387.2,331.6 L388.0,331.6 L388.8,330.5 L389.7,331.0 L390.5,331.0 L391.4,331.3 L392.2,332.2 L393.0,331.9 L393.9,331.6 L394.7,331.9 L395.6,330.5 L396.4,330.2 L397.3,330.5 L398.1,329.9 L398.9,329.3 L399.8,329.0 L400.6,329.0 L401.5,329.3 L402.3,329.3 L403.1,329.9 L404.0,330.5 L404.8,330.5 L405.7,330.7 L406.5,330.5 L407.3,331.3 L408.2,331.3 L409.0,331.3 L409.9,331.3 L410.7,332.8 L411.6,332.5 L412.4,332.2 L413.2,332.5 L414.1,332.5 L414.9,333.9 L415.8,333.6 L416.6,333.4 L417.4,333.4 L418.3,333.1 L419.1,333.1 L420.0,332.5 L420.8,332.5 L421.7,332.8 L422.5,332.5 L423.3,331.9 L424.2,331.9 L425.0,331.9 L425.9,332.2 L426.7,332.2 L427.5,332.8 L428.4,333.1 L429.2,332.8 L430.1,333.1 L430.9,333.1 L431.8,333.1 L432.6,333.9 L433.4,333.9 L434.3,333.9 L435.1,333.9 L436.0,333.6 L436.8,333.9 L437.6,333.6 L438.5,333.9 L439.3,333.9 L440.2,333.9 L441.0,333.9 L441.9,333.4 L442.7,333.1 L443.5,332.8 L444.4,347.0 L445.2,347.6 L446.1,333.4 L446.9,333.1 L447.7,333.1 L448.6,333.4 L449.4,333.4 L450.3,333.6 L451.1,333.9 L451.9,333.6 L452.8,334.5 L453.6,334.2 L454.5,334.2 L455.3,334.5 L456.2,334.8 L457.0,334.8 L457.8,334.8 L458.7,334.8 L459.5,335.1 L460.4,335.1 L461.2,334.5 L462.0,334.2 L462.9,334.2 L463.7,333.6 L464.6,333.4 L465.4,333.4 L466.3,333.4 L467.1,332.8 L467.9,332.8 L468.8,332.8 L469.6,332.5 L470.5,332.5 L471.3,333.1 L472.1,333.4 L473.0,333.4 L473.8,333.6 L474.7,333.4 L475.5,334.2 L476.4,334.2 L477.2,333.9 L478.0,334.2 L478.9,333.9 L479.7,334.5 L480.6,333.4 L481.4,333.1 L482.2,333.4 L483.1,333.4 L483.9,333.4 L484.8,333.4 L485.6,333.1 L486.5,332.5 L487.3,332.2 L488.1,332.2 L489.0,332.8 L489.8,333.1 L490.7,332.8 L491.5,333.1 L492.3,332.5 L493.2,332.5 L494.0,331.9 L494.9,331.9 L495.7,332.2 L496.5,331.9 L497.4,320.6 L498.2,332.5 L499.1,332.2 L499.9,332.5 L500.8,331.9 L501.6,332.5 L502.4,332.5 L503.3,332.2 L504.1,332.5 L505.0,332.5 L505.8,332.8 L506.6,332.5 L507.5,333.6 L508.3,333.6 L509.2,333.4 L510.0,333.6 L510.9,333.4 L511.7,333.6 L512.5,334.2 L513.4,334.2 L514.2,333.4 L515.1,332.8 L515.9,332.5 L516.7,333.6 L517.6,333.4 L518.4,334.8 L519.3,334.5 L520.1,333.9 L521.0,333.9 L521.8,333.6 L522.6,333.9 L523.5,334.2 L524.3,334.2 L525.2,334.2 L526.0,333.6 L526.8,334.8 L527.7,335.1 L528.5,335.4 L529.4,336.0 L530.2,336.3 L531.1,336.3 L531.9,335.7 L532.7,334.5 L533.6,335.1 L534.4,334.2 L535.3,334.2 L536.1,334.8 L536.9,334.5 L537.8,337.7 L538.6,334.2 L539.5,334.8 L540.3,334.8 L541.2,334.8 L542.0,334.8 L542.8,334.5 L543.7,333.6 L544.5,333.6 L545.4,333.6 L546.2,333.9 L547.0,333.9 L547.9,333.1 L548.7,333.4 L549.6,333.4 L550.4,333.1 L551.2,333.4 L552.1,333.4 L552.9,333.4 L553.8,333.1 L554.6,333.4 L555.5,333.1 L556.3,333.4 L557.1,333.4 L558.0,333.4 L558.8,333.4 L559.7,333.4 L560.5,333.1 L561.3,332.8 L562.2,332.8 L563.0,333.6 L563.9,333.6 L564.7,333.6 L565.6,333.6 L566.4,333.6 L567.2,333.6 L568.1,333.6 L568.9,333.6 L569.8,333.6 L570.6,333.9 L571.4,333.9 L572.3,334.2 L573.1,334.2 L574.0,334.8 L574.8,334.8 L575.7,335.1 L576.5,335.7 L577.3,335.4 L578.2,335.4 L579.0,335.7 L579.9,335.7 L580.7,335.7 L581.5,335.7 L582.4,335.4 L583.2,334.2 L584.1,334.5 L584.9,333.9 L585.8,333.9 L586.6,333.1 L587.4,333.4 L588.3,332.5 L589.1,331.0 L590.0,329.9 L590.8,329.9 L591.6,329.0 L592.5,341.2 L593.3,352.0 L594.2,352.0 L595.0,351.7 L595.8,351.7 L596.7,352.0 L597.5,351.7 L598.4,351.7 L599.2,352.0 L600.1,351.7 L600.9,351.7 L601.7,352.0 L602.6,329.9 L603.4,326.4 L604.3,325.2 L605.1,324.1 L605.9,323.5 L606.8,324.6 L607.6,325.2 L608.5,325.2 L609.3,325.8 L610.2,325.8 L611.0,325.8 L611.8,325.2 L612.7,325.2 L613.5,325.5 L614.4,324.3 L615.2,323.8 L616.0,322.6 L616.9,322.6 L617.7,322.6 L618.6,322.9 L619.4,322.6 L620.3,322.9 L621.1,322.6 L621.9,322.6 L622.8,322.9 L623.6,321.1 L624.5,321.7 L625.3,320.0 L626.1,320.0 L627.0,318.2 L627.8,319.1 L628.7,319.1 L629.5,319.1 L630.4,319.4 L631.2,319.1 L632.0,319.7 L632.9,318.5 L633.7,317.7 L634.6,317.1 L635.4,318.2 L636.2,317.9 L637.1,316.8 L637.9,316.2 L638.8,314.8 L639.6,315.0 L640.4,314.8 L641.3,313.6 L642.1,313.6 L643.0,312.4 L643.8,310.7 L644.7,311.0 L645.5,311.0 L646.3,310.4 L647.2,309.2 L648.0,308.9 L648.9,309.2 L649.7,309.2 L650.5,308.9 L651.4,308.9 L652.2,307.8 L653.1,307.8 L653.9,307.8 L654.8,307.2 L655.6,308.1 L656.4,307.8 L657.3,306.3 L658.1,306.0 L659.0,307.2 L659.8,307.2 L660.6,307.2 L661.5,308.1 L662.3,308.1 L663.2,307.5 L664.0,307.2 L664.9,306.9 L665.7,306.9 L666.5,306.0 L667.4,305.7 L668.2,306.0 L669.1,305.7 L669.9,305.7 L670.7,305.7 L671.6,305.7 L672.4,305.4 L673.3,305.2 L674.1,305.4 L675.0,305.4 L675.8,306.0 L676.6,305.7 L677.5,305.7 L678.3,306.3 L679.2,306.0 L680.0,306.0" stroke="#ff7f0e" stroke-width="2" fill="none" opacity="0.8"/>
<!-- Thermal Generation -->
<path d="M80.0,315.0 L80.8,304.6 L81.7,317.7 L82.5,370.6 L83.4,370.9 L84.2,368.5 L85.0,354.0 L85.9,356.6 L86.7,356.6 L87.6,368.0 L88.4,379.9 L89.3,373.8 L90.1,377.0 L90.9,376.7 L91.8,370.6 L92.6,308.6 L93.5,309.8 L94.3,359.2 L95.1,359.2 L96.0,358.9 L96.8,359.5 L97.7,324.1 L98.5,293.5 L99.4,305.7 L100.2,365.3 L101.0,368.0 L101.9,379.9 L102.7,379.3 L103.6,379.6 L104.4,379.9 L105.2,379.6 L106.1,379.9 L106.9,379.6 L107.8,379.6 L108.6,377.8 L109.5,377.0 L110.3,377.3 L111.1,376.7 L112.0,376.7 L112.8,376.7 L113.7,376.1 L114.5,376.7 L115.3,377.0 L116.2,377.0 L117.0,360.7 L117.9,360.1 L118.7,348.8 L119.6,340.3 L120.4,346.2 L121.2,356.6 L122.1,356.3 L122.9,356.3 L123.8,347.3 L124.6,347.3 L125.4,347.6 L126.3,343.0 L127.1,356.0 L128.0,365.9 L128.8,377.0 L129.6,377.6 L130.5,377.6 L131.3,377.0 L132.2,376.7 L133.0,377.0 L133.9,377.3 L134.7,377.3 L135.5,376.1 L136.4,359.5 L137.2,359.5 L138.1,342.1 L138.9,335.7 L139.7,315.6 L140.6,309.8 L141.4,338.6 L142.3,350.5 L143.1,361.6 L144.0,362.1 L144.8,361.6 L145.6,361.6 L146.5,361.3 L147.3,361.6 L148.2,359.5 L149.0,359.5 L149.8,359.5 L150.7,359.8 L151.5,358.9 L152.4,358.7 L153.2,359.8 L154.1,359.2 L154.9,359.5 L155.7,359.8 L156.6,359.2 L157.4,358.9 L158.3,354.3 L159.1,358.1 L159.9,358.1 L160.8,358.4 L161.6,361.0 L162.5,361.0 L163.3,361.9 L164.2,361.6 L165.0,361.3 L165.8,361.0 L166.7,361.3 L167.5,361.9 L168.4,362.1 L169.2,361.9 L170.0,362.4 L170.9,361.9 L171.7,362.1 L172.6,362.1 L173.4,361.6 L174.2,361.3 L175.1,361.9 L175.9,361.6 L176.8,361.3 L177.6,361.3 L178.5,361.3 L179.3,360.7 L180.1,361.3 L181.0,360.7 L181.8,361.0 L182.7,361.9 L183.5,361.6 L184.3,361.6 L185.2,354.9 L186.0,359.2 L186.9,361.9 L187.7,362.4 L188.6,360.1 L189.4,361.0 L190.2,359.8 L191.1,360.4 L191.9,360.1 L192.8,359.8 L193.6,360.1 L194.4,360.1 L195.3,359.5 L196.1,359.2 L197.0,307.8 L197.8,278.1 L198.7,274.3 L199.5,274.3 L200.3,301.1 L201.2,306.6 L202.0,319.4 L202.9,322.9 L203.7,338.6 L204.5,350.5 L205.4,361.9 L206.2,339.5 L207.1,339.2 L207.9,345.9 L208.8,363.9 L209.6,359.2 L210.4,360.1 L211.3,360.7 L212.1,360.1 L213.0,360.1 L213.8,360.1 L214.6,360.1 L215.5,360.4 L216.3,359.8 L217.2,360.1 L218.0,360.4 L218.8,360.7 L219.7,360.4 L220.5,360.4 L221.4,361.0 L222.2,364.2 L223.1,363.6 L223.9,363.9 L224.7,363.9 L225.6,363.6 L226.4,363.6 L227.3,363.6 L228.1,364.2 L228.9,363.9 L229.8,361.0 L230.6,364.5 L231.5,361.6 L232.3,359.2 L233.2,361.6 L234.0,359.2 L234.8,373.5 L235.7,361.0 L236.5,361.6 L237.4,360.7 L238.2,360.1 L239.0,360.4 L239.9,359.8 L240.7,360.1 L241.6,359.8 L242.4,363.9 L243.3,363.9 L244.1,363.9 L244.9,364.2 L245.8,363.9 L246.6,364.5 L247.5,364.2 L248.3,364.2 L249.1,364.8 L250.0,365.9 L250.8,372.0 L251.7,377.0 L252.5,377.6 L253.4,378.4 L254.2,378.1 L255.0,377.8 L255.9,377.8 L256.7,377.8 L257.6,378.1 L258.4,377.8 L259.2,365.6 L260.1,285.1 L260.9,281.3 L261.8,269.7 L262.6,283.9 L263.5,377.3 L264.3,379.3 L265.1,379.3 L266.0,379.3 L266.8,356.0 L267.7,356.0 L268.5,356.0 L269.3,356.3 L270.2,353.1 L271.0,364.8 L271.9,364.8 L272.7,350.5 L273.5,352.8 L274.4,326.1 L275.2,327.0 L276.1,331.0 L276.9,286.8 L277.8,269.4 L278.6,295.3 L279.4,246.4 L280.3,247.6 L281.1,268.8 L282.0,274.6 L282.8,270.8 L283.6,290.3 L284.5,349.1 L285.3,321.1 L286.2,338.9 L287.0,338.6 L287.9,351.1 L288.7,379.6 L289.5,377.8 L290.4,376.4 L291.2,376.7 L292.1,376.4 L292.9,376.1 L293.7,376.4 L294.6,376.4 L295.4,378.1 L296.3,376.1 L297.1,345.9 L298.0,317.7 L298.8,288.3 L299.6,242.9 L300.5,242.9 L301.3,242.9 L302.2,242.6 L303.0,243.5 L303.8,243.2 L304.7,246.1 L305.5,260.4 L306.4,283.4 L307.2,295.0 L308.1,324.3 L308.9,324.1 L309.7,340.3 L310.6,370.6 L311.4,370.6 L312.3,374.1 L313.1,376.4 L313.9,376.7 L314.8,376.7 L315.6,376.4 L316.5,352.3 L317.3,326.1 L318.1,294.4 L319.0,255.1 L319.8,242.9 L320.7,247.6 L321.5,249.9 L322.4,247.0 L323.2,246.4 L324.0,247.3 L324.9,247.9 L325.7,299.1 L326.6,304.9 L327.4,304.6 L328.2,278.7 L329.1,317.7 L329.9,332.8 L330.8,333.1 L331.6,333.9 L332.5,332.8 L333.3,332.8 L334.1,316.8 L335.0,317.4 L335.8,288.0 L336.7,247.9 L337.5,244.4 L338.3,246.1 L339.2,248.2 L340.0,245.3 L340.9,246.4 L341.7,249.6 L342.6,249.0 L343.4,251.4 L344.2,298.5 L345.1,379.6 L345.9,379.0 L346.8,379.0 L347.6,379.6 L348.4,379.3 L349.3,379.3 L350.1,377.3 L351.0,375.5 L351.8,375.8 L352.7,375.5 L353.5,375.2 L354.3,375.8 L355.2,375.8 L356.0,375.5 L356.9,375.5 L357.7,376.1 L358.5,375.8 L359.4,346.4 L360.2,335.4 L361.1,277.2 L361.9,295.0 L362.7,299.9 L363.6,301.1 L364.4,346.2 L365.3,379.3 L366.1,378.7 L367.0,378.7 L367.8,378.7 L368.6,378.7 L369.5,378.7 L370.3,377.0 L371.2,375.5 L372.0,376.1 L372.8,376.1 L373.7,375.8 L374.5,375.8 L375.4,376.1 L376.2,376.1 L377.1,376.1 L377.9,375.8 L378.7,352.5 L379.6,327.0 L380.4,311.6 L381.3,298.5 L382.1,300.2 L382.9,306.3 L383.8,294.4 L384.6,293.2 L385.5,324.3 L386.3,333.1 L387.2,333.1 L388.0,332.8 L388.8,332.2 L389.7,303.4 L390.5,343.2 L391.4,340.9 L392.2,335.1 L393.0,335.1 L393.9,335.1 L394.7,335.4 L395.6,323.5 L396.4,323.2 L397.3,323.5 L398.1,323.8 L398.9,307.8 L399.8,309.8 L400.6,250.2 L401.5,244.4 L402.3,244.1 L403.1,244.4 L404.0,237.7 L404.8,289.2 L405.7,293.5 L406.5,293.2 L407.3,293.5 L408.2,293.5 L409.0,293.5 L409.9,293.5 L410.7,284.2 L411.6,290.6 L412.4,290.3 L413.2,303.1 L414.1,311.6 L414.9,290.9 L415.8,272.9 L416.6,270.3 L417.4,257.5 L418.3,244.4 L419.1,243.2 L420.0,243.2 L420.8,254.3 L421.7,262.7 L422.5,290.3 L423.3,290.0 L424.2,289.5 L425.0,347.3 L425.9,355.7 L426.7,379.0 L427.5,378.7 L428.4,378.7 L429.2,378.7 L430.1,379.0 L430.9,375.5 L431.8,375.5 L432.6,375.5 L433.4,375.8 L434.3,375.8 L435.1,364.5 L436.0,353.1 L436.8,353.1 L437.6,353.1 L438.5,335.4 L439.3,335.1 L440.2,340.9 L441.0,340.6 L441.9,351.4 L442.7,364.2 L443.5,364.5 L444.4,372.0 L445.2,379.6 L446.1,379.6 L446.9,379.6 L447.7,370.9 L448.6,370.6 L449.4,370.9 L450.3,379.6 L451.1,379.9 L451.9,379.6 L452.8,379.9 L453.6,379.3 L454.5,379.3 L455.3,379.6 L456.2,379.6 L457.0,379.6 L457.8,379.6 L458.7,308.6 L459.5,326.1 L460.4,293.8 L461.2,268.2 L462.0,255.1 L462.9,252.0 L463.7,269.7 L464.6,277.0 L465.4,292.9 L466.3,295.6 L467.1,295.0 L467.9,295.0 L468.8,294.7 L469.6,295.0 L470.5,295.0 L471.3,293.8 L472.1,293.5 L473.0,291.8 L473.8,266.2 L474.7,267.4 L475.5,267.9 L476.4,282.2 L477.2,271.4 L478.0,265.6 L478.9,266.2 L479.7,291.8 L480.6,274.0 L481.4,267.9 L482.2,267.7 L483.1,270.0 L483.9,279.9 L484.8,269.4 L485.6,290.3 L486.5,290.0 L487.3,288.3 L488.1,285.4 L489.0,281.6 L489.8,275.8 L490.7,276.1 L491.5,292.7 L492.3,292.4 L493.2,293.2 L494.0,293.2 L494.9,293.8 L495.7,293.5 L496.5,268.5 L497.4,292.7 L498.2,270.3 L499.1,279.3 L499.9,268.2 L500.8,268.5 L501.6,268.2 L502.4,284.5 L503.3,292.9 L504.1,292.7 L505.0,295.6 L505.8,296.7 L506.6,296.7 L507.5,274.3 L508.3,274.6 L509.2,271.1 L510.0,271.7 L510.9,274.6 L511.7,293.8 L512.5,293.8 L513.4,290.9 L514.2,292.1 L515.1,270.0 L515.9,267.1 L516.7,267.4 L517.6,267.7 L518.4,268.2 L519.3,266.5 L520.1,266.2 L521.0,265.9 L521.8,265.9 L522.6,265.9 L523.5,270.0 L524.3,268.8 L525.2,290.6 L526.0,317.1 L526.8,316.2 L527.7,316.2 L528.5,310.7 L529.4,296.1 L530.2,296.1 L531.1,299.9 L531.9,299.9 L532.7,300.5 L533.6,296.7 L534.4,333.4 L535.3,333.6 L536.1,333.9 L536.9,319.1 L537.8,333.4 L538.6,334.8 L539.5,335.1 L540.3,333.1 L541.2,295.9 L542.0,292.1 L542.8,285.4 L543.7,270.0 L544.5,269.4 L545.4,296.4 L546.2,293.2 L547.0,273.2 L547.9,295.9 L548.7,296.1 L549.6,296.1 L550.4,296.1 L551.2,295.9 L552.1,296.1 L552.9,291.5 L553.8,291.5 L554.6,291.8 L555.5,292.1 L556.3,292.4 L557.1,349.6 L558.0,374.1 L558.8,371.2 L559.7,373.8 L560.5,376.4 L561.3,376.4 L562.2,376.4 L563.0,376.4 L563.9,376.7 L564.7,376.7 L565.6,380.2 L566.4,380.2 L567.2,380.5 L568.1,380.5 L568.9,380.5 L569.8,380.5 L570.6,380.5 L571.4,380.5 L572.3,380.5 L573.1,376.4 L574.0,376.7 L574.8,376.7 L575.7,374.1 L576.5,373.8 L577.3,373.5 L578.2,376.4 L579.0,376.4 L579.9,376.7 L580.7,376.7 L581.5,376.4 L582.4,376.4 L583.2,376.7 L584.1,376.4 L584.9,375.5 L585.8,379.6 L586.6,380.5 L587.4,380.7 L588.3,380.5 L589.1,380.5 L590.0,380.7 L590.8,380.7 L591.6,380.5 L592.5,380.2 L593.3,380.2 L594.2,380.2 L595.0,380.5 L595.8,380.5 L596.7,379.9 L597.5,380.2 L598.4,380.2 L599.2,377.3 L600.1,378.1 L600.9,378.4 L601.7,379.9 L602.6,380.2 L603.4,380.2 L604.3,380.2 L605.1,380.5 L605.9,380.2 L606.8,380.2 L607.6,380.2 L608.5,380.2 L609.3,380.2 L610.2,380.2 L611.0,380.5 L611.8,380.5 L612.7,380.7 L613.5,376.4 L614.4,376.4 L615.2,376.4 L616.0,376.4 L616.9,376.4 L617.7,376.4 L618.6,376.1 L619.4,376.1 L620.3,373.5 L621.1,376.4 L621.9,373.5 L622.8,375.2 L623.6,360.7 L624.5,376.7 L625.3,376.1 L626.1,376.4 L627.0,380.2 L627.8,380.2 L628.7,380.5 L629.5,380.5 L630.4,380.2 L631.2,380.2 L632.0,380.2 L632.9,376.4 L633.7,376.7 L634.6,376.4 L635.4,376.1 L636.2,376.1 L637.1,376.1 L637.9,376.1 L638.8,376.1 L639.6,376.1 L640.4,376.1 L641.3,375.5 L642.1,374.1 L643.0,376.7 L643.8,376.7 L644.7,376.7 L645.5,376.7 L646.3,378.7 L647.2,380.5 L648.0,380.5 L648.9,380.5 L649.7,380.2 L650.5,380.5 L651.4,380.2 L652.2,380.2 L653.1,380.5 L653.9,376.7 L654.8,376.7 L655.6,376.4 L656.4,376.4 L657.3,376.1 L658.1,376.4 L659.0,376.7 L659.8,353.4 L660.6,352.5 L661.5,353.4 L662.3,338.9 L663.2,333.9 L664.0,354.9 L664.9,362.1 L665.7,354.0 L666.5,331.3 L667.4,359.2 L668.2,376.4 L669.1,376.4 L669.9,376.4 L670.7,376.4 L671.6,371.7 L672.4,380.2 L673.3,374.4 L674.1,365.0 L675.0,376.4 L675.8,375.8 L676.6,376.4 L677.5,376.1 L678.3,370.9 L679.2,332.8 L680.0,359.5" stroke="#2ca02c" stroke-width="2" fill="none" opacity="0.8"/>
<!-- Solar Generation -->
<path d="M80.0,420.0 L80.8,420.0 L81.7,420.0 L82.5,420.0 L83.4,420.0 L84.2,420.0 L85.0,420.0 L85.9,420.0 L86.7,412.7 L87.6,394.4 L88.4,379.6 L89.3,378.7 L90.1,379.0 L90.9,377.6 L91.8,377.6 L92.6,377.6 L93.5,377.8 L94.3,391.5 L95.1,389.2 L96.0,389.8 L96.8,403.4 L97.7,416.2 L98.5,419.7 L99.4,420.0 L100.2,420.0 L101.0,420.0 L101.9,420.0 L102.7,420.0 L103.6,420.0 L104.4,420.0 L105.2,420.0 L106.1,420.0 L106.9,418.0 L107.8,401.1 L108.6,386.0 L109.5,385.7 L110.3,395.9 L111.1,388.3 L112.0,385.4 L112.8,380.5 L113.7,383.9 L114.5,384.2 L115.3,388.9 L116.2,387.1 L117.0,389.8 L117.9,405.8 L118.7,418.8 L119.6,420.0 L120.4,420.0 L121.2,420.0 L122.1,420.0 L122.9,420.0 L123.8,420.0 L124.6,420.0 L125.4,420.0 L126.3,419.7 L127.1,408.4 L128.0,383.9 L128.8,379.3 L129.6,378.1 L130.5,378.4 L131.3,380.2 L132.2,379.9 L133.0,377.3 L133.9,377.6 L134.7,385.4 L135.5,382.2 L136.4,383.4 L137.2,391.8 L138.1,405.8 L138.9,419.1 L139.7,420.0 L140.6,420.0 L141.4,420.0 L142.3,420.0 L143.1,420.0 L144.0,420.0 L144.8,420.0 L145.6,420.0 L146.5,419.7 L147.3,408.1 L148.2,413.0 L149.0,408.7 L149.8,404.6 L150.7,401.1 L151.5,393.5 L152.4,383.4 L153.2,386.6 L154.1,406.0 L154.9,392.4 L155.7,404.6 L156.6,414.5 L157.4,405.5 L158.3,418.5 L159.1,419.1 L159.9,420.0 L160.8,420.0 L161.6,420.0 L162.5,420.0 L163.3,420.0 L164.2,420.0 L165.0,420.0 L165.8,420.0 L166.7,420.0 L167.5,418.8 L168.4,415.9 L169.2,413.9 L170.0,413.9 L170.9,406.9 L171.7,406.0 L172.6,401.4 L173.4,404.0 L174.2,406.6 L175.1,415.3 L175.9,415.1 L176.8,413.3 L177.6,392.4 L178.5,397.9 L179.3,418.3 L180.1,420.0 L181.0,420.0 L181.8,420.0 L182.7,420.0 L183.5,420.0 L184.3,420.0 L185.2,420.0 L186.0,420.0 L186.9,419.7 L187.7,416.2 L188.6,393.0 L189.4,389.2 L190.2,379.6 L191.1,377.6 L191.9,377.3 L192.8,377.3 L193.6,377.3 L194.4,388.0 L195.3,388.9 L196.1,390.6 L197.0,397.0 L197.8,409.0 L198.7,412.1 L199.5,419.4 L200.3,420.0 L201.2,420.0 L202.0,420.0 L202.9,420.0 L203.7,420.0 L204.5,420.0 L205.4,420.0 L206.2,420.0 L207.1,420.0 L207.9,417.1 L208.8,411.0 L209.6,410.4 L210.4,408.1 L211.3,403.4 L212.1,408.1 L213.0,410.1 L213.8,401.4 L214.6,404.0 L215.5,415.1 L216.3,410.7 L217.2,415.3 L218.0,397.9 L218.8,411.0 L219.7,418.3 L220.5,420.0 L221.4,420.0 L222.2,420.0 L223.1,420.0 L223.9,420.0 L224.7,420.0 L225.6,420.0 L226.4,420.0 L227.3,419.4 L228.1,405.2 L228.9,398.8 L229.8,401.7 L230.6,400.5 L231.5,400.5 L232.3,400.8 L233.2,405.8 L234.0,405.2 L234.8,402.0 L235.7,393.3 L236.5,385.4 L237.4,395.0 L238.2,402.8 L239.0,413.6 L239.9,418.3 L240.7,420.0 L241.6,420.0 L242.4,420.0 L243.3,420.0 L244.1,420.0 L244.9,420.0 L245.8,420.0 L246.6,420.0 L247.5,420.0 L248.3,411.9 L249.1,415.3 L250.0,402.0 L250.8,382.5 L251.7,378.1 L252.5,377.6 L253.4,378.7 L254.2,382.8 L255.0,380.2 L255.9,379.3 L256.7,378.1 L257.6,378.4 L258.4,379.9 L259.2,399.1 L260.1,418.3 L260.9,420.0 L261.8,420.0 L262.6,420.0 L263.5,420.0 L264.3,420.0 L265.1,420.0 L266.0,420.0 L266.8,420.0 L267.7,419.7 L268.5,404.6 L269.3,383.1 L270.2,378.7 L271.0,378.1 L271.9,377.6 L272.7,378.1 L273.5,378.1 L274.4,382.5 L275.2,392.1 L276.1,393.8 L276.9,398.2 L277.8,393.8 L278.6,395.9 L279.4,405.5 L280.3,419.4 L281.1,420.0 L282.0,420.0 L282.8,420.0 L283.6,420.0 L284.5,420.0 L285.3,420.0 L286.2,420.0 L287.0,420.0 L287.9,420.0 L288.7,416.8 L289.5,416.2 L290.4,409.8 L291.2,396.7 L292.1,390.1 L292.9,391.8 L293.7,386.6 L294.6,380.5 L295.4,380.7 L296.3,382.5 L297.1,398.8 L298.0,396.4 L298.8,398.8 L299.6,406.6 L300.5,419.1 L301.3,420.0 L302.2,420.0 L303.0,420.0 L303.8,420.0 L304.7,420.0 L305.5,420.0 L306.4,420.0 L307.2,420.0 L308.1,419.7 L308.9,404.6 L309.7,382.8 L310.6,378.1 L311.4,377.8 L312.3,380.7 L313.1,377.6 L313.9,399.4 L314.8,377.3 L315.6,379.0 L316.5,380.2 L317.3,377.8 L318.1,381.3 L319.0,396.4 L319.8,399.4 L320.7,418.0 L321.5,420.0 L322.4,420.0 L323.2,420.0 L324.0,420.0 L324.9,420.0 L325.7,420.0 L326.6,420.0 L327.4,420.0 L328.2,419.7 L329.1,404.3 L329.9,383.7 L330.8,379.9 L331.6,378.1 L332.5,378.1 L333.3,387.4 L334.1,383.1 L335.0,383.7 L335.8,378.1 L336.7,390.6 L337.5,401.4 L338.3,382.8 L339.2,398.8 L340.0,403.7 L340.9,419.1 L341.7,420.0 L342.6,420.0 L343.4,420.0 L344.2,420.0 L345.1,420.0 L345.9,420.0 L346.8,420.0 L347.6,420.0 L348.4,420.0 L349.3,415.9 L350.1,386.6 L351.0,381.9 L351.8,379.3 L352.7,391.2 L353.5,381.6 L354.3,377.6 L355.2,377.8 L356.0,383.7 L356.9,378.7 L357.7,380.2 L358.5,390.9 L359.4,390.1 L360.2,404.3 L361.1,418.0 L361.9,420.0 L362.7,420.0 L363.6,420.0 L364.4,420.0 L365.3,420.0 L366.1,420.0 L367.0,420.0 L367.8,420.0 L368.6,420.0 L369.5,408.4 L370.3,387.1 L371.2,382.8 L372.0,379.9 L372.8,379.9 L373.7,379.6 L374.5,385.4 L375.4,397.6 L376.2,385.1 L377.1,388.6 L377.9,391.2 L378.7,392.4 L379.6,398.2 L380.4,404.9 L381.3,418.3 L382.1,420.0 L382.9,420.0 L383.8,420.0 L384.6,420.0 L385.5,420.0 L386.3,420.0 L387.2,420.0 L388.0,420.0 L388.8,419.4 L389.7,404.6 L390.5,388.6 L391.4,390.3 L392.2,379.3 L393.0,379.0 L393.9,379.9 L394.7,379.9 L395.6,389.2 L396.4,378.7 L397.3,382.8 L398.1,384.5 L398.9,380.5 L399.8,394.4 L400.6,406.0 L401.5,418.5 L402.3,420.0 L403.1,420.0 L404.0,420.0 L404.8,420.0 L405.7,420.0 L406.5,420.0 L407.3,420.0 L408.2,420.0 L409.0,419.7 L409.9,408.4 L410.7,400.8 L411.6,390.3 L412.4,393.5 L413.2,385.4 L414.1,385.1 L414.9,378.1 L415.8,385.4 L416.6,392.4 L417.4,382.5 L418.3,391.5 L419.1,388.6 L420.0,398.8 L420.8,408.1 L421.7,419.1 L422.5,420.0 L423.3,420.0 L424.2,420.0 L425.0,420.0 L425.9,420.0 L426.7,420.0 L427.5,420.0 L428.4,420.0 L429.2,419.7 L430.1,418.5 L430.9,413.6 L431.8,410.1 L432.6,402.8 L433.4,393.5 L434.3,401.7 L435.1,400.5 L436.0,386.3 L436.8,413.9 L437.6,410.1 L438.5,409.2 L439.3,401.7 L440.2,406.6 L441.0,414.5 L441.9,419.1 L442.7,420.0 L443.5,420.0 L444.4,420.0 L445.2,420.0 L446.1,420.0 L446.9,420.0 L447.7,420.0 L448.6,420.0 L449.4,420.0 L450.3,410.7 L451.1,402.8 L451.9,410.4 L452.8,378.4 L453.6,378.1 L454.5,392.7 L455.3,379.9 L456.2,387.1 L457.0,384.2 L457.8,379.9 L458.7,378.7 L459.5,382.5 L460.4,385.4 L461.2,409.2 L462.0,416.8 L462.9,420.0 L463.7,420.0 L464.6,420.0 L465.4,420.0 L466.3,420.0 L467.1,420.0 L467.9,420.0 L468.8,420.0 L469.6,420.0 L470.5,411.6 L471.3,397.6 L472.1,391.8 L473.0,389.8 L473.8,391.8 L474.7,390.1 L475.5,388.0 L476.4,387.7 L477.2,388.9 L478.0,390.1 L478.9,390.1 L479.7,393.5 L480.6,382.8 L481.4,405.5 L482.2,418.5 L483.1,420.0 L483.9,420.0 L484.8,420.0 L485.6,420.0 L486.5,420.0 L487.3,420.0 L488.1,420.0 L489.0,420.0 L489.8,419.7 L490.7,404.9 L491.5,383.9 L492.3,379.0 L493.2,378.4 L494.0,378.1 L494.9,378.7 L495.7,383.4 L496.5,379.0 L497.4,378.4 L498.2,378.4 L499.1,378.7 L499.9,386.6 L500.8,388.9 L501.6,414.5 L502.4,418.8 L503.3,420.0 L504.1,420.0 L505.0,420.0 L505.8,420.0 L506.6,420.0 L507.5,420.0 L508.3,420.0 L509.2,420.0 L510.0,420.0 L510.9,407.5 L511.7,390.9 L512.5,389.8 L513.4,379.3 L514.2,378.4 L515.1,378.7 L515.9,383.9 L516.7,386.0 L517.6,378.7 L518.4,380.7 L519.3,380.7 L520.1,397.0 L521.0,404.3 L521.8,416.2 L522.6,418.3 L523.5,420.0 L524.3,420.0 L525.2,420.0 L526.0,420.0 L526.8,420.0 L527.7,420.0 L528.5,420.0 L529.4,420.0 L530.2,419.7 L531.1,411.6 L531.9,407.2 L532.7,386.9 L533.6,387.7 L534.4,386.9 L535.3,390.9 L536.1,389.8 L536.9,401.7 L537.8,390.1 L538.6,395.0 L539.5,378.4 L540.3,394.4 L541.2,412.7 L542.0,416.5 L542.8,419.4 L543.7,420.0 L544.5,420.0 L545.4,420.0 L546.2,420.0 L547.0,420.0 L547.9,420.0 L548.7,420.0 L549.6,420.0 L550.4,419.7 L551.2,418.3 L552.1,404.9 L552.9,408.7 L553.8,402.3 L554.6,402.6 L555.5,404.3 L556.3,393.3 L557.1,386.9 L558.0,407.8 L558.8,407.8 L559.7,410.7 L560.5,412.1 L561.3,411.0 L562.2,417.7 L563.0,419.4 L563.9,420.0 L564.7,420.0 L565.6,420.0 L566.4,420.0 L567.2,420.0 L568.1,420.0 L568.9,420.0 L569.8,420.0 L570.6,420.0 L571.4,412.4 L572.3,410.1 L573.1,397.3 L574.0,402.8 L574.8,411.0 L575.7,402.6 L576.5,404.3 L577.3,416.5 L578.2,417.1 L579.0,412.4 L579.9,415.6 L580.7,415.3 L581.5,416.8 L582.4,417.1 L583.2,420.0 L584.1,420.0 L584.9,420.0 L585.8,420.0 L586.6,420.0 L587.4,420.0 L588.3,420.0 L589.1,420.0 L590.0,420.0 L590.8,420.0 L591.6,418.8 L592.5,415.3 L593.3,407.5 L594.2,412.4 L595.0,413.0 L595.8,411.3 L596.7,407.8 L597.5,409.0 L598.4,402.8 L599.2,402.0 L600.1,411.9 L600.9,407.5 L601.7,412.1 L602.6,415.3 L603.4,419.7 L604.3,420.0 L605.1,420.0 L605.9,420.0 L606.8,420.0 L607.6,420.0 L608.5,420.0 L609.3,420.0 L610.2,420.0 L611.0,419.7 L611.8,411.9 L612.7,416.8 L613.5,415.9 L614.4,414.8 L615.2,413.6 L616.0,414.8 L616.9,413.0 L617.7,411.6 L618.6,411.9 L619.4,409.8 L620.3,409.5 L621.1,413.0 L621.9,411.0 L622.8,412.1 L623.6,419.4 L624.5,420.0 L625.3,420.0 L626.1,420.0 L627.0,420.0 L627.8,420.0 L628.7,420.0 L629.5,420.0 L630.4,420.0 L631.2,419.7 L632.0,414.8 L632.9,401.1 L633.7,401.1 L634.6,386.6 L635.4,379.3 L636.2,383.7 L637.1,393.0 L637.9,393.5 L638.8,388.9 L639.6,384.2 L640.4,398.8 L641.3,402.6 L642.1,406.0 L643.0,413.0 L643.8,419.4 L644.7,420.0 L645.5,420.0 L646.3,420.0 L647.2,420.0 L648.0,420.0 L648.9,420.0 L649.7,420.0 L650.5,420.0 L651.4,419.7 L652.2,407.8 L653.1,388.6 L653.9,397.3 L654.8,378.1 L655.6,378.1 L656.4,379.0 L657.3,378.4 L658.1,400.8 L659.0,403.1 L659.8,400.5 L660.6,416.2 L661.5,397.0 L662.3,415.6 L663.2,414.8 L664.0,420.0 L664.9,420.0 L665.7,420.0 L666.5,420.0 L667.4,420.0 L668.2,420.0 L669.1,420.0 L669.9,420.0 L670.7,420.0 L671.6,420.0 L672.4,411.0 L673.3,388.3 L674.1,379.3 L675.0,378.4 L675.8,378.1 L676.6,381.0 L677.5,384.2 L678.3,378.1 L679.2,377.8 L680.0,395.3" stroke="#d62728" stroke-width="2" fill="none" opacity="0.8"/>
<!-- Forecast -->
<path d="M80.0,193.2 L80.8,212.7 L81.7,231.9 L82.5,240.6 L83.4,246.4 L84.2,248.5 L85.0,246.7 L85.9,237.4 L86.7,217.1 L87.6,192.3 L88.4,174.3 L89.3,166.5 L90.1,160.4 L90.9,159.5 L91.8,159.2 L92.6,159.8 L93.5,159.8 L94.3,156.3 L95.1,153.7 L96.0,154.8 L96.8,162.1 L97.7,167.1 L98.5,170.8 L99.4,173.2 L100.2,189.1 L101.0,218.2 L101.9,233.9 L102.7,243.5 L103.6,249.9 L104.4,253.1 L105.2,252.5 L106.1,245.0 L106.9,225.5 L107.8,201.1 L108.6,180.4 L109.5,171.7 L110.3,165.9 L111.1,164.7 L112.0,164.7 L112.8,165.3 L113.7,165.0 L114.5,166.2 L115.3,165.9 L116.2,165.9 L117.0,170.5 L117.9,175.5 L118.7,179.0 L119.6,181.0 L120.4,196.7 L121.2,214.2 L122.1,236.3 L122.9,246.1 L123.8,252.2 L124.6,254.3 L125.4,252.8 L126.3,242.4 L127.1,222.9 L128.0,198.5 L128.8,178.4 L129.6,168.5 L130.5,163.0 L131.3,160.1 L132.2,158.6 L133.0,156.3 L133.9,153.1 L134.7,147.9 L135.5,143.8 L136.4,140.3 L137.2,149.9 L138.1,160.9 L138.9,167.9 L139.7,171.4 L140.6,188.6 L141.4,225.8 L142.3,234.2 L143.1,240.9 L144.0,248.2 L144.8,251.4 L145.6,253.7 L146.5,251.1 L147.3,245.0 L148.2,232.2 L149.0,220.8 L149.8,212.1 L150.7,201.9 L151.5,198.5 L152.4,196.1 L153.2,197.9 L154.1,197.9 L154.9,201.1 L155.7,202.8 L156.6,200.8 L157.4,202.5 L158.3,204.8 L159.1,205.7 L159.9,203.7 L160.8,213.3 L161.6,228.4 L162.5,240.6 L163.3,251.1 L164.2,257.2 L165.0,258.9 L165.8,258.1 L166.7,256.3 L167.5,249.6 L168.4,236.5 L169.2,220.0 L170.0,205.4 L170.9,198.2 L171.7,192.6 L172.6,192.1 L173.4,195.0 L174.2,197.3 L175.1,197.6 L175.9,197.3 L176.8,194.7 L177.6,192.6 L178.5,197.0 L179.3,197.9 L180.1,196.1 L181.0,206.6 L181.8,219.1 L182.7,233.9 L183.5,242.9 L184.3,247.3 L185.2,249.6 L186.0,246.7 L186.9,237.4 L187.7,217.4 L188.6,192.6 L189.4,174.9 L190.2,167.6 L191.1,163.0 L191.9,162.1 L192.8,162.4 L193.6,162.7 L194.4,162.7 L195.3,162.1 L196.1,160.4 L197.0,160.9 L197.8,167.1 L198.7,173.4 L199.5,176.6 L200.3,178.7 L201.2,194.1 L202.0,219.7 L202.9,235.7 L203.7,245.3 L204.5,251.7 L205.4,254.3 L206.2,253.4 L207.1,244.4 L207.9,223.5 L208.8,197.6 L209.6,178.1 L210.4,169.4 L211.3,164.4 L212.1,163.0 L213.0,163.0 L213.8,164.1 L214.6,164.7 L215.5,165.3 L216.3,165.0 L217.2,166.5 L218.0,172.6 L218.8,178.7 L219.7,181.3 L220.5,183.3 L221.4,198.5 L222.2,219.7 L223.1,237.7 L223.9,245.8 L224.7,250.5 L225.6,252.5 L226.4,251.1 L227.3,241.5 L228.1,219.7 L228.9,192.3 L229.8,172.0 L230.6,163.9 L231.5,159.5 L232.3,160.1 L233.2,161.2 L234.0,163.3 L234.8,165.3 L235.7,165.9 L236.5,165.6 L237.4,167.1 L238.2,172.3 L239.0,178.1 L239.9,179.3 L240.7,183.0 L241.6,198.7 L242.4,219.1 L243.3,236.3 L244.1,246.7 L244.9,252.2 L245.8,254.9 L246.6,252.8 L247.5,244.4 L248.3,226.1 L249.1,202.8 L250.0,183.9 L250.8,170.5 L251.7,164.1 L252.5,158.3 L253.4,153.1 L254.2,151.4 L255.0,154.8 L255.9,156.6 L256.7,157.5 L257.6,159.8 L258.4,165.0 L259.2,172.0 L260.1,180.1 L260.9,186.0 L261.8,198.5 L262.6,216.5 L263.5,235.4 L264.3,245.8 L265.1,251.4 L266.0,254.0 L266.8,252.5 L267.7,244.4 L268.5,225.5 L269.3,202.5 L270.2,181.3 L271.0,169.7 L271.9,163.3 L272.7,158.0 L273.5,155.7 L274.4,153.4 L275.2,149.6 L276.1,142.6 L276.9,141.5 L277.8,145.5 L278.6,155.1 L279.4,165.9 L280.3,173.2 L281.1,178.7 L282.0,193.5 L282.8,220.0 L283.6,233.3 L284.5,242.1 L285.3,248.8 L286.2,252.8 L287.0,253.7 L287.9,252.2 L288.7,245.8 L289.5,235.4 L290.4,220.8 L291.2,204.6 L292.1,195.5 L292.9,197.0 L293.7,197.3 L294.6,199.6 L295.4,199.9 L296.3,204.3 L297.1,207.5 L298.0,206.6 L298.8,208.6 L299.6,212.1 L300.5,214.4 L301.3,215.0 L302.2,223.7 L303.0,233.1 L303.8,237.7 L304.7,249.9 L305.5,258.3 L306.4,259.5 L307.2,259.5 L308.1,260.4 L308.9,254.6 L309.7,243.5 L310.6,229.0 L311.4,207.5 L312.3,199.6 L313.1,194.4 L313.9,192.3 L314.8,194.7 L315.6,197.3 L316.5,195.3 L317.3,190.0 L318.1,184.5 L319.0,185.7 L319.8,186.8 L320.7,193.5 L321.5,195.8 L322.4,210.7 L323.2,217.1 L324.0,234.2 L324.9,246.1 L325.7,252.0 L326.6,254.6 L327.4,252.8 L328.2,244.7 L329.1,226.4 L329.9,203.4 L330.8,182.2 L331.6,170.5 L332.5,164.1 L333.3,158.9 L334.1,156.6 L335.0,155.1 L335.8,151.4 L336.7,145.2 L337.5,138.3 L338.3,141.2 L339.2,150.8 L340.0,160.9 L340.9,168.5 L341.7,174.0 L342.6,188.9 L343.4,156.0 L344.2,215.6 L345.1,237.1 L345.9,241.8 L346.8,245.3 L347.6,244.7 L348.4,238.6 L349.3,220.0 L350.1,196.4 L351.0,172.6 L351.8,157.2 L352.7,148.4 L353.5,142.9 L354.3,140.6 L355.2,135.9 L356.0,134.8 L356.9,134.8 L357.7,134.8 L358.5,134.8 L359.4,135.1 L360.2,135.1 L361.1,135.1 L361.9,135.1 L362.7,135.1 L363.6,201.7 L364.4,225.5 L365.3,234.8 L366.1,243.2 L367.0,248.5 L367.8,248.8 L368.6,242.9 L369.5,224.3 L370.3,202.2 L371.2,180.4 L372.0,168.8 L372.8,163.3 L373.7,159.8 L374.5,157.2 L375.4,157.2 L376.2,155.1 L377.1,150.8 L377.9,150.2 L378.7,154.3 L379.6,163.0 L380.4,170.5 L381.3,176.6 L382.1,181.9 L382.9,195.3 L383.8,212.1 L384.6,233.6 L385.5,245.3 L386.3,251.4 L387.2,254.0 L388.0,252.8 L388.8,245.0 L389.7,226.1 L390.5,203.1 L391.4,181.9 L392.2,170.0 L393.0,163.6 L393.9,158.3 L394.7,155.7 L395.6,153.7 L396.4,148.7 L397.3,141.8 L398.1,133.0 L398.9,137.1 L399.8,146.7 L400.6,156.9 L401.5,164.1 L402.3,172.0 L403.1,187.1 L404.0,162.1 L404.8,216.2 L405.7,242.6 L406.5,249.3 L407.3,252.8 L408.2,251.7 L409.0,244.4 L409.9,226.4 L410.7,203.1 L411.6,180.7 L412.4,167.3 L413.2,159.5 L414.1,154.3 L414.9,151.6 L415.8,146.1 L416.6,138.9 L417.4,136.8 L418.3,136.5 L419.1,135.9 L420.0,135.7 L420.8,135.4 L421.7,135.1 L422.5,134.5 L423.3,143.2 L424.2,208.0 L425.0,225.5 L425.9,233.3 L426.7,242.1 L427.5,247.0 L428.4,248.8 L429.2,248.8 L430.1,242.4 L430.9,230.7 L431.8,214.7 L432.6,202.8 L433.4,195.3 L434.3,192.3 L435.1,188.6 L436.0,187.1 L436.8,191.2 L437.6,183.9 L438.5,184.2 L439.3,185.7 L440.2,185.4 L441.0,188.9 L441.9,191.8 L442.7,192.9 L443.5,202.8 L444.4,226.7 L445.2,236.3 L446.1,241.5 L446.9,247.0 L447.7,251.7 L448.6,252.8 L449.4,253.7 L450.3,249.6 L451.1,239.7 L451.9,225.8 L452.8,212.4 L453.6,201.4 L454.5,196.1 L455.3,197.0 L456.2,195.5 L457.0,194.4 L457.8,192.1 L458.7,182.2 L459.5,174.6 L460.4,177.5 L461.2,180.1 L462.0,186.2 L462.9,192.3 L463.7,202.8 L464.6,215.0 L465.4,232.8 L466.3,244.1 L467.1,250.5 L467.9,253.1 L468.8,252.0 L469.6,244.4 L470.5,225.8 L471.3,203.4 L472.1,182.5 L473.0,171.4 L473.8,165.9 L474.7,160.7 L475.5,157.7 L476.4,156.0 L477.2,152.8 L478.0,147.3 L478.9,139.4 L479.7,144.7 L480.6,155.1 L481.4,164.1 L482.2,170.0 L483.1,174.9 L483.9,189.7 L484.8,189.1 L485.6,225.8 L486.5,245.0 L487.3,251.4 L488.1,254.0 L489.0,252.5 L489.8,244.7 L490.7,226.1 L491.5,203.1 L492.3,181.9 L493.2,169.4 L494.0,162.7 L494.9,157.2 L495.7,154.6 L496.5,150.5 L497.4,143.8 L498.2,135.7 L499.1,133.3 L499.9,132.5 L500.8,131.9 L501.6,140.0 L502.4,150.2 L503.3,159.2 L504.1,166.8 L505.0,204.0 L505.8,228.7 L506.6,242.1 L507.5,249.0 L508.3,252.2 L509.2,251.4 L510.0,244.4 L510.9,226.7 L511.7,203.4 L512.5,181.0 L513.4,168.2 L514.2,161.8 L515.1,156.6 L515.9,154.6 L516.7,152.2 L517.6,147.9 L518.4,140.6 L519.3,133.9 L520.1,137.7 L521.0,145.2 L521.8,155.1 L522.6,161.5 L523.5,168.5 L524.3,184.8 L525.2,208.0 L526.0,228.4 L526.8,240.3 L527.7,247.9 L528.5,251.7 L529.4,250.5 L530.2,243.8 L531.1,225.8 L531.9,202.8 L532.7,180.4 L533.6,167.9 L534.4,162.4 L535.3,158.3 L536.1,156.9 L536.9,156.3 L537.8,153.7 L538.6,150.2 L539.5,143.8 L540.3,147.9 L541.2,154.3 L542.0,161.2 L542.8,166.5 L543.7,171.4 L544.5,186.0 L545.4,211.8 L546.2,229.9 L547.0,239.2 L547.9,244.4 L548.7,247.9 L549.6,247.6 L550.4,240.6 L551.2,223.5 L552.1,201.9 L552.9,179.8 L553.8,167.6 L554.6,163.0 L555.5,158.0 L556.3,155.4 L557.1,152.2 L558.0,152.2 L558.8,152.8 L559.7,152.8 L560.5,154.8 L561.3,163.6 L562.2,171.7 L563.0,178.7 L563.9,181.9 L564.7,194.1 L565.6,222.0 L566.4,232.5 L567.2,240.3 L568.1,247.3 L568.9,251.4 L569.8,252.5 L570.6,252.0 L571.4,245.6 L572.3,233.9 L573.1,219.1 L574.0,205.7 L574.8,198.2 L575.7,197.9 L576.5,198.7 L577.3,199.9 L578.2,202.5 L579.0,203.4 L579.9,209.2 L580.7,211.2 L581.5,212.7 L582.4,210.4 L583.2,206.3 L584.1,208.3 L584.9,216.5 L585.8,232.8 L586.6,239.4 L587.4,248.2 L588.3,254.0 L589.1,257.2 L590.0,257.8 L590.8,258.3 L591.6,254.0 L592.5,244.7 L593.3,231.3 L594.2,213.0 L595.0,202.2 L595.8,194.7 L596.7,188.9 L597.5,190.3 L598.4,193.2 L599.2,195.8 L600.1,200.5 L600.9,203.1 L601.7,204.0 L602.6,204.8 L603.4,204.3 L604.3,206.6 L605.1,217.4 L605.9,223.7 L606.8,237.4 L607.6,248.2 L608.5,253.7 L609.3,256.3 L610.2,254.3 L611.0,246.4 L611.8,227.8 L612.7,204.8 L613.5,186.2 L614.4,167.3 L615.2,158.6 L616.0,153.7 L616.9,145.0 L617.7,139.7 L618.6,145.2 L619.4,155.1 L620.3,160.1 L621.1,161.5 L621.9,170.5 L622.8,174.3 L623.6,181.6 L624.5,188.3 L625.3,201.1 L626.1,216.8 L627.0,236.0 L627.8,247.3 L628.7,252.8 L629.5,255.1 L630.4,254.0 L631.2,245.8 L632.0,227.2 L632.9,204.3 L633.7,183.6 L634.6,172.3 L635.4,167.9 L636.2,162.7 L637.1,157.5 L637.9,155.7 L638.8,156.0 L639.6,155.1 L640.4,150.5 L641.3,153.4 L642.1,162.4 L643.0,170.3 L643.8,176.9 L644.7,181.6 L645.5,194.4 L646.3,206.6 L647.2,224.3 L648.0,235.4 L648.9,241.2 L649.7,244.7 L650.5,243.8 L651.4,236.0 L652.2,217.1 L653.1,194.1 L653.9,172.0 L654.8,159.2 L655.6,151.6 L656.4,147.0 L657.3,144.7 L658.1,144.7 L659.0,143.2 L659.8,140.0 L660.6,138.3 L661.5,140.3 L662.3,149.6 L663.2,159.8 L664.0,166.8 L664.9,169.4 L665.7,182.2 L666.5,181.6 L667.4,217.9 L668.2,235.4 L669.1,241.5 L669.9,244.7 L670.7,243.5 L671.6,236.0 L672.4,217.1 L673.3,194.1 L674.1,171.4 L675.0,157.5 L675.8,149.3 L676.6,143.8 L677.5,142.3 L678.3,140.9 L679.2,137.1 L680.0,135.9" stroke="#9467bd" stroke-width="2" fill="none" opacity="0.8"/>
<!-- Total Generation -->
<path d="M80.0,171.4 L80.8,166.2 L81.7,188.6 L82.5,244.1 L83.4,247.6 L84.2,242.6 L85.0,221.7 L85.9,228.7 L86.7,220.8 L87.6,219.4 L88.4,220.8 L89.3,217.9 L90.1,223.7 L90.9,221.1 L91.8,214.4 L92.6,151.9 L93.5,151.9 L94.3,212.4 L95.1,209.2 L96.0,206.6 L96.8,210.7 L97.7,169.1 L98.5,144.4 L99.4,160.9 L100.2,229.6 L101.0,233.9 L101.9,253.4 L102.7,253.7 L103.6,263.9 L104.4,264.7 L105.2,263.9 L106.1,254.3 L106.9,243.2 L107.8,225.5 L108.6,212.4 L109.5,203.7 L110.3,197.6 L111.1,169.4 L112.0,160.9 L112.8,147.0 L113.7,154.6 L114.5,154.3 L115.3,165.9 L116.2,161.5 L117.0,151.1 L117.9,180.1 L118.7,189.1 L119.6,192.6 L120.4,208.6 L121.2,235.4 L122.1,244.4 L122.9,243.8 L123.8,236.8 L124.6,236.5 L125.4,236.3 L126.3,229.0 L127.1,229.9 L128.0,213.9 L128.8,217.6 L129.6,215.6 L130.5,198.2 L131.3,189.4 L132.2,201.1 L133.0,194.7 L133.9,191.8 L134.7,201.4 L135.5,206.6 L136.4,197.3 L137.2,207.8 L138.1,204.6 L138.9,206.3 L139.7,155.4 L140.6,168.8 L141.4,201.9 L142.3,199.6 L143.1,202.5 L144.0,202.2 L144.8,206.9 L145.6,204.3 L146.5,192.9 L147.3,187.1 L148.2,204.0 L149.0,215.3 L149.8,202.2 L150.7,201.7 L151.5,195.8 L152.4,201.7 L153.2,213.0 L154.1,230.1 L154.9,198.2 L155.7,201.9 L156.6,215.3 L157.4,210.7 L158.3,191.5 L159.1,206.9 L159.9,200.5 L160.8,179.8 L161.6,189.1 L162.5,204.0 L163.3,192.9 L164.2,229.0 L165.0,236.8 L165.8,213.9 L166.7,212.1 L167.5,209.2 L168.4,197.9 L169.2,238.3 L170.0,236.0 L170.9,226.1 L171.7,229.3 L172.6,209.8 L173.4,208.3 L174.2,188.0 L175.1,186.8 L175.9,187.1 L176.8,156.0 L177.6,138.6 L178.5,146.7 L179.3,147.6 L180.1,146.1 L181.0,156.3 L181.8,156.0 L182.7,150.5 L183.5,147.9 L184.3,148.2 L185.2,163.9 L186.0,194.7 L186.9,193.2 L187.7,201.1 L188.6,178.4 L189.4,171.7 L190.2,156.6 L191.1,153.7 L191.9,161.8 L192.8,174.3 L193.6,186.0 L194.4,207.5 L195.3,202.2 L196.1,209.5 L197.0,165.9 L197.8,133.0 L198.7,133.3 L199.5,128.4 L200.3,157.2 L201.2,174.9 L202.0,199.3 L202.9,201.4 L203.7,210.7 L204.5,229.0 L205.4,255.4 L206.2,230.4 L207.1,213.0 L207.9,202.8 L208.8,199.0 L209.6,190.9 L210.4,177.8 L211.3,160.9 L212.1,175.2 L213.0,184.5 L213.8,173.2 L214.6,184.2 L215.5,199.9 L216.3,197.0 L217.2,188.3 L218.0,131.0 L218.8,178.1 L219.7,189.7 L220.5,166.8 L221.4,165.3 L222.2,167.1 L223.1,160.1 L223.9,160.7 L224.7,166.8 L225.6,163.3 L226.4,160.9 L227.3,161.2 L228.1,149.6 L228.9,148.4 L229.8,151.6 L230.6,152.5 L231.5,180.7 L232.3,145.8 L233.2,141.2 L234.0,159.8 L234.8,168.2 L235.7,132.7 L236.5,131.6 L237.4,143.2 L238.2,159.2 L239.0,164.4 L239.9,159.2 L240.7,160.9 L241.6,164.7 L242.4,166.5 L243.3,167.6 L244.1,167.3 L244.9,180.7 L245.8,180.7 L246.6,182.8 L247.5,187.4 L248.3,178.7 L249.1,191.2 L250.0,171.7 L250.8,156.6 L251.7,156.9 L252.5,156.0 L253.4,151.6 L254.2,149.9 L255.0,147.0 L255.9,164.7 L256.7,138.9 L257.6,138.0 L258.4,140.6 L259.2,163.6 L260.1,137.4 L260.9,142.0 L261.8,137.4 L262.6,160.4 L263.5,263.6 L264.3,274.9 L265.1,274.6 L266.0,271.4 L266.8,247.9 L267.7,246.4 L268.5,234.5 L269.3,218.5 L270.2,208.6 L271.0,213.6 L271.9,204.8 L272.7,176.9 L273.5,161.5 L274.4,130.4 L275.2,159.8 L276.1,167.1 L276.9,93.2 L277.8,85.6 L278.6,113.6 L279.4,81.9 L280.3,85.4 L281.1,113.3 L282.0,117.9 L282.8,111.2 L283.6,148.7 L284.5,214.7 L285.3,198.2 L286.2,218.8 L287.0,206.3 L287.9,198.5 L288.7,233.9 L289.5,238.0 L290.4,238.0 L291.2,232.5 L292.1,225.8 L292.9,227.2 L293.7,226.7 L294.6,221.4 L295.4,209.2 L296.3,201.9 L297.1,192.1 L298.0,163.6 L298.8,146.4 L299.6,114.7 L300.5,134.8 L301.3,133.9 L302.2,140.3 L303.0,142.3 L303.8,144.7 L304.7,150.8 L305.5,166.2 L306.4,188.9 L307.2,201.1 L308.1,230.4 L308.9,215.6 L309.7,211.5 L310.6,237.1 L311.4,237.7 L312.3,243.5 L313.1,242.4 L313.9,264.5 L314.8,242.9 L315.6,244.1 L316.5,221.7 L317.3,192.9 L318.1,164.4 L319.0,139.7 L319.8,130.1 L320.7,142.6 L321.5,151.4 L322.4,149.9 L323.2,153.1 L324.0,152.8 L324.9,151.1 L325.7,193.5 L326.6,184.8 L327.4,178.4 L328.2,152.2 L329.1,184.2 L329.9,188.9 L330.8,188.9 L331.6,190.9 L332.5,189.4 L333.3,191.8 L334.1,166.8 L335.0,158.9 L335.8,129.3 L336.7,100.8 L337.5,101.6 L338.3,78.1 L339.2,105.4 L340.0,125.5 L340.9,151.6 L341.7,154.6 L342.6,148.4 L343.4,143.2 L344.2,194.4 L345.1,270.6 L345.9,256.3 L346.8,228.7 L347.6,204.0 L348.4,210.7 L349.3,215.0 L350.1,163.6 L351.0,138.9 L351.8,131.0 L352.7,142.6 L353.5,132.7 L354.3,131.0 L355.2,134.2 L356.0,140.0 L356.9,140.3 L357.7,138.9 L358.5,148.7 L359.4,129.8 L360.2,142.6 L361.1,105.1 L361.9,135.4 L362.7,143.8 L363.6,133.0 L364.4,184.2 L365.3,228.7 L366.1,226.1 L367.0,229.3 L367.8,216.5 L368.6,220.6 L369.5,224.6 L370.3,205.1 L371.2,198.7 L372.0,191.8 L372.8,202.8 L373.7,193.5 L374.5,192.6 L375.4,200.5 L376.2,180.7 L377.1,183.6 L377.9,181.0 L378.7,172.0 L379.6,168.5 L380.4,169.7 L381.3,175.2 L382.1,193.5 L382.9,214.4 L383.8,204.0 L384.6,199.3 L385.5,232.5 L386.3,233.3 L387.2,240.6 L388.0,244.7 L388.8,237.7 L389.7,175.5 L390.5,221.7 L391.4,218.8 L392.2,202.5 L393.0,198.5 L393.9,192.9 L394.7,167.6 L395.6,165.0 L396.4,142.3 L397.3,140.6 L398.1,135.4 L398.9,104.5 L399.8,116.8 L400.6,104.3 L401.5,122.0 L402.3,137.1 L403.1,140.9 L404.0,136.8 L404.8,192.9 L405.7,199.3 L406.5,199.0 L407.3,201.7 L408.2,198.7 L409.0,197.6 L409.9,186.8 L410.7,174.0 L411.6,167.9 L412.4,169.1 L413.2,170.0 L414.1,175.2 L414.9,143.2 L415.8,128.7 L416.6,124.9 L417.4,99.6 L418.3,74.0 L419.1,72.6 L420.0,67.6 L420.8,82.2 L421.7,108.6 L422.5,133.6 L423.3,130.1 L424.2,140.3 L425.0,220.0 L425.9,247.3 L426.7,268.2 L427.5,284.2 L428.4,288.0 L429.2,288.3 L430.1,290.9 L430.9,282.8 L431.8,278.1 L432.6,272.9 L433.4,262.1 L434.3,270.0 L435.1,252.0 L436.0,228.1 L436.8,253.1 L437.6,249.9 L438.5,232.5 L439.3,223.7 L440.2,208.9 L441.0,224.0 L441.9,245.0 L442.7,267.1 L443.5,268.5 L444.4,274.6 L445.2,284.8 L446.1,251.4 L446.9,248.5 L447.7,226.1 L448.6,200.8 L449.4,217.9 L450.3,210.4 L451.1,235.4 L451.9,251.4 L452.8,212.1 L453.6,208.0 L454.5,229.6 L455.3,212.1 L456.2,228.4 L457.0,231.9 L457.8,233.1 L458.7,166.5 L459.5,174.0 L460.4,126.3 L461.2,118.2 L462.0,127.2 L462.9,113.0 L463.7,142.3 L464.6,151.9 L465.4,185.7 L466.3,185.7 L467.1,178.1 L467.9,164.1 L468.8,161.2 L469.6,171.1 L470.5,182.5 L471.3,173.2 L472.1,174.0 L473.0,167.6 L473.8,146.1 L474.7,142.0 L475.5,143.8 L476.4,163.0 L477.2,121.4 L478.0,102.5 L478.9,95.8 L479.7,138.3 L480.6,107.7 L481.4,143.5 L482.2,165.9 L483.1,173.7 L483.9,189.4 L484.8,178.7 L485.6,197.0 L486.5,196.1 L487.3,193.5 L488.1,189.7 L489.0,187.4 L489.8,183.9 L490.7,166.5 L491.5,160.7 L492.3,153.4 L493.2,156.6 L494.0,149.9 L494.9,145.8 L495.7,148.2 L496.5,116.2 L497.4,125.5 L498.2,110.4 L499.1,115.6 L499.9,110.6 L500.8,110.9 L501.6,131.3 L502.4,152.5 L503.3,171.7 L504.1,179.6 L505.0,187.4 L505.8,189.4 L506.6,189.7 L507.5,171.1 L508.3,174.0 L509.2,174.9 L510.0,181.9 L510.9,170.8 L511.7,178.1 L512.5,171.4 L513.4,158.0 L514.2,151.9 L515.1,128.4 L515.9,133.0 L516.7,138.0 L517.6,132.7 L518.4,135.7 L519.3,129.8 L520.1,136.5 L521.0,124.9 L521.8,120.2 L522.6,114.4 L523.5,106.6 L524.3,106.9 L525.2,141.2 L526.0,185.7 L526.8,195.0 L527.7,212.4 L528.5,216.8 L529.4,205.1 L530.2,209.5 L531.1,201.9 L531.9,202.2 L532.7,174.6 L533.6,174.0 L534.4,212.1 L535.3,216.5 L536.1,218.5 L536.9,214.7 L537.8,213.0 L538.6,223.5 L539.5,195.8 L540.3,215.9 L541.2,172.3 L542.0,197.0 L542.8,195.0 L543.7,180.7 L544.5,177.8 L545.4,206.3 L546.2,198.2 L547.0,181.9 L547.9,205.1 L548.7,205.4 L549.6,201.7 L550.4,206.6 L551.2,204.0 L552.1,192.3 L552.9,185.4 L553.8,175.8 L554.6,176.4 L555.5,178.7 L556.3,159.5 L557.1,203.7 L558.0,235.1 L558.8,229.3 L559.7,211.0 L560.5,256.0 L561.3,251.7 L562.2,267.7 L563.0,265.0 L563.9,285.7 L564.7,287.4 L565.6,292.4 L566.4,284.8 L567.2,268.8 L568.1,252.2 L568.9,261.0 L569.8,246.4 L570.6,243.2 L571.4,249.6 L572.3,262.4 L573.1,252.5 L574.0,247.6 L574.8,259.2 L575.7,249.6 L576.5,240.9 L577.3,268.8 L578.2,252.5 L579.0,264.2 L579.9,270.6 L580.7,270.8 L581.5,285.1 L582.4,282.8 L583.2,275.2 L584.1,263.0 L584.9,263.3 L585.8,255.4 L586.6,241.2 L587.4,226.1 L588.3,229.6 L589.1,241.5 L590.0,236.0 L590.8,235.1 L591.6,225.5 L592.5,202.5 L593.3,234.8 L594.2,240.6 L595.0,240.6 L595.8,245.0 L596.7,235.7 L597.5,232.8 L598.4,228.7 L599.2,227.2 L600.1,237.4 L600.9,235.4 L601.7,213.9 L602.6,183.9 L603.4,194.4 L604.3,195.8 L605.1,195.8 L605.9,187.1 L606.8,186.8 L607.6,182.5 L608.5,187.7 L609.3,190.6 L610.2,190.6 L611.0,188.0 L611.8,179.8 L612.7,180.4 L613.5,197.0 L614.4,185.4 L615.2,187.7 L616.0,184.8 L616.9,187.1 L617.7,193.8 L618.6,200.2 L619.4,186.5 L620.3,193.8 L621.1,206.6 L621.9,179.6 L622.8,170.5 L623.6,151.1 L624.5,174.6 L625.3,168.5 L626.1,171.1 L627.0,172.3 L627.8,176.9 L628.7,174.6 L629.5,175.5 L630.4,174.0 L631.2,187.4 L632.0,187.7 L632.9,174.6 L633.7,164.7 L634.6,141.5 L635.4,144.1 L636.2,160.9 L637.1,181.3 L637.9,175.8 L638.8,176.9 L639.6,164.1 L640.4,175.5 L641.3,204.8 L642.1,218.5 L643.0,233.9 L643.8,252.2 L644.7,249.0 L645.5,257.2 L646.3,260.7 L647.2,259.8 L648.0,261.5 L648.9,247.3 L649.7,259.2 L650.5,262.1 L651.4,261.8 L652.2,244.4 L653.1,226.1 L653.9,224.6 L654.8,208.0 L655.6,201.7 L656.4,189.7 L657.3,184.2 L658.1,215.0 L659.0,225.5 L659.8,198.7 L660.6,216.8 L661.5,178.1 L662.3,200.2 L663.2,179.6 L664.0,216.8 L664.9,245.8 L665.7,233.9 L666.5,206.3 L667.4,233.6 L668.2,255.4 L669.1,256.0 L669.9,250.2 L670.7,244.4 L671.6,227.5 L672.4,225.2 L673.3,206.6 L674.1,190.3 L675.0,199.0 L675.8,199.3 L676.6,204.0 L677.5,211.8 L678.3,197.3 L679.2,150.2 L680.0,190.0" stroke="#8c564b" stroke-width="2" fill="none" opacity="0.8"/>
<!-- Forecast Difference -->
<path d="M80.0,420.0 L80.8,420.0 L81.7,420.0 L82.5,420.0 L83.4,420.0 L84.2,420.0 L85.0,420.0 L85.9,420.0 L86.7,420.0 L87.6,420.0 L88.4,420.0 L89.3,420.0 L90.1,420.0 L90.9,420.0 L91.8,420.0 L92.6,420.0 L93.5,420.0 L94.3,420.0 L95.1,420.0 L96.0,420.0 L96.8,420.0 L97.7,420.0 L98.5,420.0 L99.4,420.0 L100.2,420.0 L101.0,420.0 L101.9,420.0 L102.7,420.0 L103.6,420.0 L104.4,420.0 L105.2,420.0 L106.1,420.0 L106.9,420.0 L107.8,420.0 L108.6,420.0 L109.5,420.0 L110.3,420.0 L111.1,420.0 L112.0,420.0 L112.8,420.0 L113.7,420.0 L114.5,420.0 L115.3,420.0 L116.2,420.0 L117.0,420.0 L117.9,420.0 L118.7,420.0 L119.6,420.0 L120.4,420.0 L121.2,420.0 L122.1,420.0 L122.9,420.0 L123.8,420.0 L124.6,420.0 L125.4,420.0 L126.3,420.0 L127.1,420.0 L128.0,420.0 L128.8,420.0 L129.6,420.0 L130.5,420.0 L131.3,420.0 L132.2,420.0 L133.0,420.0 L133.9,420.0 L134.7,420.0 L135.5,420.0 L136.4,420.0 L137.2,420.0 L138.1,420.0 L138.9,420.0 L139.7,420.0 L140.6,420.0 L141.4,420.0 L142.3,420.0 L143.1,420.0 L144.0,420.0 L144.8,420.0 L145.6,420.0 L146.5,420.0 L147.3,420.0 L148.2,420.0 L149.0,420.0 L149.8,420.0 L150.7,420.0 L151.5,420.0 L152.4,420.0 L153.2,420.0 L154.1,420.0 L154.9,420.0 L155.7,420.0 L156.6,420.0 L157.4,420.0 L158.3,420.0 L159.1,420.0 L159.9,420.0 L160.8,420.0 L161.6,420.0 L162.5,420.0 L163.3,420.0 L164.2,420.0 L165.0,420.0 L165.8,420.0 L166.7,420.0 L167.5,420.0 L168.4,420.0 L169.2,420.0 L170.0,420.0 L170.9,420.0 L171.7,420.0 L172.6,420.0 L173.4,420.0 L174.2,420.0 L175.1,420.0 L175.9,420.0 L176.8,420.0 L177.6,420.0 L178.5,420.0 L179.3,420.0 L180.1,420.0 L181.0,420.0 L181.8,420.0 L182.7,420.0 L183.5,420.0 L184.3,420.0 L185.2,420.0 L186.0,420.0 L186.9,420.0 L187.7,420.0 L188.6,420.0 L189.4,420.0 L190.2,420.0 L191.1,420.0 L191.9,420.0 L192.8,420.0 L193.6,420.0 L194.4,420.0 L195.3,420.0 L196.1,420.0 L197.0,420.0 L197.8,420.0 L198.7,420.0 L199.5,420.0 L200.3,420.0 L201.2,420.0 L202.0,420.0 L202.9,420.0 L203.7,420.0 L204.5,420.0 L205.4,420.0 L206.2,420.0 L207.1,420.0 L207.9,420.0 L208.8,420.0 L209.6,420.0 L210.4,420.0 L211.3,420.0 L212.1,420.0 L213.0,420.0 L213.8,420.0 L214.6,420.0 L215.5,420.0 L216.3,420.0 L217.2,420.0 L218.0,420.0 L218.8,420.0 L219.7,420.0 L220.5,420.0 L221.4,420.0 L222.2,420.0 L223.1,420.0 L223.9,420.0 L224.7,420.0 L225.6,420.0 L226.4,420.0 L227.3,420.0 L228.1,420.0 L228.9,420.0 L229.8,420.0 L230.6,420.0 L231.5,420.0 L232.3,420.0 L233.2,420.0 L234.0,420.0 L234.8,420.0 L235.7,420.0 L236.5,420.0 L237.4,420.0 L238.2,420.0 L239.0,420.0 L239.9,420.0 L240.7,420.0 L241.6,420.0 L242.4,420.0 L243.3,420.0 L244.1,420.0 L244.9,420.0 L245.8,420.0 L246.6,420.0 L247.5,420.0 L248.3,420.0 L249.1,420.0 L250.0,420.0 L250.8,420.0 L251.7,420.0 L252.5,420.0 L253.4,420.0 L254.2,420.0 L255.0,420.0 L255.9,420.0 L256.7,420.0 L257.6,420.0 L258.4,420.0 L259.2,420.0 L260.1,420.0 L260.9,420.0 L261.8,420.0 L262.6,420.0 L263.5,420.0 L264.3,420.0 L265.1,420.0 L266.0,420.0 L266.8,420.0 L267.7,420.0 L268.5,420.0 L269.3,420.0 L270.2,420.0 L271.0,420.0 L271.9,420.0 L272.7,420.0 L273.5,420.0 L274.4,420.0 L275.2,420.0 L276.1,420.0 L276.9,420.0 L277.8,420.0 L278.6,420.0 L279.4,420.0 L280.3,420.0 L281.1,420.0 L282.0,420.0 L282.8,420.0 L283.6,420.0 L284.5,420.0 L285.3,420.0 L286.2,420.0 L287.0,420.0 L287.9,420.0 L288.7,420.0 L289.5,420.0 L290.4,420.0 L291.2,420.0 L292.1,420.0 L292.9,420.0 L293.7,420.0 L294.6,420.0 L295.4,420.0 L296.3,420.0 L297.1,420.0 L298.0,420.0 L298.8,420.0 L299.6,420.0 L300.5,420.0 L301.3,420.0 L302.2,420.0 L303.0,420.0 L303.8,420.0 L304.7,420.0 L305.5,420.0 L306.4,420.0 L307.2,420.0 L308.1,420.0 L308.9,420.0 L309.7,420.0 L310.6,420.0 L311.4,420.0 L312.3,420.0 L313.1,420.0 L313.9,420.0 L314.8,420.0 L315.6,420.0 L316.5,420.0 L317.3,420.0 L318.1,420.0 L319.0,420.0 L319.8,420.0 L320.7,420.0 L321.5,420.0 L322.4,420.0 L323.2,420.0 L324.0,420.0 L324.9,420.0 L325.7,420.0 L326.6,420.0 L327.4,420.0 L328.2,420.0 L329.1,420.0 L329.9,420.0 L330.8,420.0 L331.6,420.0 L332.5,420.0 L333.3,420.0 L334.1,420.0 L335.0,420.0 L335.8,420.0 L336.7,420.0 L337.5,420.0 L338.3,420.0 L339.2,420.0 L340.0,420.0 L340.9,420.0 L341.7,420.0 L342.6,420.0 L343.4,420.0 L344.2,420.0 L345.1,420.0 L345.9,420.0 L346.8,420.0 L347.6,420.0 L348.4,420.0 L349.3,420.0 L350.1,420.0 L351.0,420.0 L351.8,420.0 L352.7,420.0 L353.5,420.0 L354.3,420.0 L355.2,420.0 L356.0,420.0 L356.9,420.0 L357.7,420.0 L358.5,420.0 L359.4,420.0 L360.2,420.0 L361.1,420.0 L361.9,420.0 L362.7,420.0 L363.6,420.0 L364.4,420.0 L365.3,420.0 L366.1,420.0 L367.0,420.0 L367.8,420.0 L368.6,420.0 L369.5,420.0 L370.3,420.0 L371.2,420.0 L372.0,420.0 L372.8,420.0 L373.7,420.0 L374.5,420.0 L375.4,420.0 L376.2,420.0 L377.1,420.0 L377.9,420.0 L378.7,420.0 L379.6,420.0 L380.4,420.0 L381.3,420.0 L382.1,420.0 L382.9,420.0 L383.8,420.0 L384.6,420.0 L385.5,420.0 L386.3,420.0 L387.2,420.0 L388.0,420.0 L388.8,420.0 L389.7,420.0 L390.5,420.0 L391.4,420.0 L392.2,420.0 L393.0,420.0 L393.9,420.0 L394.7,420.0 L395.6,420.0 L396.4,420.0 L397.3,420.0 L398.1,420.0 L398.9,420.0 L399.8,420.0 L400.6,420.0 L401.5,420.0 L402.3,420.0 L403.1,420.0 L404.0,420.0 L404.8,420.0 L405.7,420.0 L406.5,420.0 L407.3,420.0 L408.2,420.0 L409.0,420.0 L409.9,420.0 L410.7,420.0 L411.6,420.0 L412.4,420.0 L413.2,420.0 L414.1,420.0 L414.9,420.0 L415.8,420.0 L416.6,420.0 L417.4,420.0 L418.3,420.0 L419.1,420.0 L420.0,420.0 L420.8,420.0 L421.7,420.0 L422.5,420.0 L423.3,420.0 L424.2,420.0 L425.0,420.0 L425.9,420.0 L426.7,420.0 L427.5,420.0 L428.4,420.0 L429.2,420.0 L430.1,420.0 L430.9,420.0 L431.8,420.0 L432.6,420.0 L433.4,420.0 L434.3,420.0 L435.1,420.0 L436.0,420.0 L436.8,420.0 L437.6,420.0 L438.5,420.0 L439.3,420.0 L440.2,420.0 L441.0,420.0 L441.9,420.0 L442.7,420.0 L443.5,420.0 L444.4,420.0 L445.2,420.0 L446.1,420.0 L446.9,420.0 L447.7,420.0 L448.6,420.0 L449.4,420.0 L450.3,420.0 L451.1,420.0 L451.9,420.0 L452.8,420.0 L453.6,420.0 L454.5,420.0 L455.3,420.0 L456.2,420.0 L457.0,420.0 L457.8,420.0 L458.7,420.0 L459.5,420.0 L460.4,420.0 L461.2,420.0 L462.0,420.0 L462.9,420.0 L463.7,420.0 L464.6,420.0 L465.4,420.0 L466.3,420.0 L467.1,420.0 L467.9,420.0 L468.8,420.0 L469.6,420.0 L470.5,420.0 L471.3,420.0 L472.1,420.0 L473.0,420.0 L473.8,420.0 L474.7,420.0 L475.5,420.0 L476.4,420.0 L477.2,420.0 L478.0,420.0 L478.9,420.0 L479.7,420.0 L480.6,420.0 L481.4,420.0 L482.2,420.0 L483.1,420.0 L483.9,420.0 L484.8,420.0 L485.6,420.0 L486.5,420.0 L487.3,420.0 L488.1,420.0 L489.0,420.0 L489.8,420.0 L490.7,420.0 L491.5,420.0 L492.3,420.0 L493.2,420.0 L494.0,420.0 L494.9,420.0 L495.7,420.0 L496.5,420.0 L497.4,420.0 L498.2,420.0 L499.1,420.0 L499.9,420.0 L500.8,420.0 L501.6,420.0 L502.4,420.0 L503.3,420.0 L504.1,420.0 L505.0,420.0 L505.8,420.0 L506.6,420.0 L507.5,420.0 L508.3,420.0 L509.2,420.0 L510.0,420.0 L510.9,420.0 L511.7,420.0 L512.5,420.0 L513.4,420.0 L514.2,420.0 L515.1,420.0 L515.9,420.0 L516.7,420.0 L517.6,420.0 L518.4,420.0 L519.3,420.0 L520.1,420.0 L521.0,420.0 L521.8,420.0 L522.6,420.0 L523.5,420.0 L524.3,420.0 L525.2,420.0 L526.0,420.0 L526.8,420.0 L527.7,420.0 L528.5,420.0 L529.4,420.0 L530.2,420.0 L531.1,420.0 L531.9,420.0 L532.7,420.0 L533.6,420.0 L534.4,420.0 L535.3,420.0 L536.1,420.0 L536.9,420.0 L537.8,420.0 L538.6,420.0 L539.5,420.0 L540.3,420.0 L541.2,420.0 L542.0,420.0 L542.8,420.0 L543.7,420.0 L544.5,420.0 L545.4,420.0 L546.2,420.0 L547.0,420.0 L547.9,420.0 L548.7,420.0 L549.6,420.0 L550.4,420.0 L551.2,420.0 L552.1,420.0 L552.9,420.0 L553.8,420.0 L554.6,420.0 L555.5,420.0 L556.3,420.0 L557.1,420.0 L558.0,420.0 L558.8,420.0 L559.7,420.0 L560.5,420.0 L561.3,420.0 L562.2,420.0 L563.0,420.0 L563.9,420.0 L564.7,420.0 L565.6,420.0 L566.4,420.0 L567.2,420.0 L568.1,420.0 L568.9,420.0 L569.8,420.0 L570.6,420.0 L571.4,420.0 L572.3,420.0 L573.1,420.0 L574.0,420.0 L574.8,420.0 L575.7,420.0 L576.5,420.0 L577.3,420.0 L578.2,420.0 L579.0,420.0 L579.9,420.0 L580.7,420.0 L581.5,420.0 L582.4,420.0 L583.2,420.0 L584.1,420.0 L584.9,420.0 L585.8,420.0 L586.6,420.0 L587.4,420.0 L588.3,420.0 L589.1,420.0 L590.0,420.0 L590.8,420.0 L591.6,420.0 L592.5,420.0 L593.3,420.0 L594.2,420.0 L595.0,420.0 L595.8,420.0 L596.7,420.0 L597.5,420.0 L598.4,420.0 L599.2,420.0 L600.1,420.0 L600.9,420.0 L601.7,420.0 L602.6,420.0 L603.4,420.0 L604.3,420.0 L605.1,420.0 L605.9,420.0 L606.8,420.0 L607.6,420.0 L608.5,420.0 L609.3,420.0 L610.2,420.0 L611.0,420.0 L611.8,420.0 L612.7,420.0 L613.5,420.0 L614.4,420.0 L615.2,420.0 L616.0,420.0 L616.9,420.0 L617.7,420.0 L618.6,420.0 L619.4,420.0 L620.3,420.0 L621.1,420.0 L621.9,420.0 L622.8,420.0 L623.6,420.0 L624.5,420.0 L625.3,420.0 L626.1,420.0 L627.0,420.0 L627.8,420.0 L628.7,420.0 L629.5,420.0 L630.4,420.0 L631.2,420.0 L632.0,420.0 L632.9,420.0 L633.7,420.0 L634.6,420.0 L635.4,420.0 L636.2,420.0 L637.1,420.0 L637.9,420.0 L638.8,420.0 L639.6,420.0 L640.4,420.0 L641.3,420.0 L642.1,420.0 L643.0,420.0 L643.8,420.0 L644.7,420.0 L645.5,420.0 L646.3,420.0 L647.2,420.0 L648.0,420.0 L648.9,420.0 L649.7,420.0 L650.5,420.0 L651.4,420.0 L652.2,420.0 L653.1,420.0 L653.9,420.0 L654.8,420.0 L655.6,420.0 L656.4,420.0 L657.3,420.0 L658.1,420.0 L659.0,420.0 L659.8,420.0 L660.6,420.0 L661.5,420.0 L662.3,420.0 L663.2,420.0 L664.0,420.0 L664.9,420.0 L665.7,420.0 L666.5,420.0 L667.4,420.0 L668.2,420.0 L669.1,420.0 L669.9,420.0 L670.7,420.0 L671.6,420.0 L672.4,420.0 L673.3,420.0 L674.1,420.0 L675.0,420.0 L675.8,420.0 L676.6,420.0 L677.5,420.0 L678.3,420.0 L679.2,420.0 L680.0,420.0" stroke="#e377c2" stroke-width="2" fill="none" opacity="0.8"/>

<!-- Legend -->
<line x1="690" y1="70" x2="705" y2="70" stroke="#1f77b4" stroke-width="3"/>
<text x="710" y="74" class="legend">Wind Generation</text>
<line x1="690" y1="88" x2="705" y2="88" stroke="#ff7f0e" stroke-width="3"/>
<text x="710" y="92" class="legend">Hydro Generation</text>
<line x1="690" y1="106" x2="705" y2="106" stroke="#2ca02c" stroke-width="3"/>
<text x="710" y="110" class="legend">Thermal Generation</text>
<line x1="690" y1="124" x2="705" y2="124" stroke="#d62728" stroke-width="3"/>
<text x="710" y="128" class="legend">Solar Generation</text>
<line x1="690" y1="142" x2="705" y2="142" stroke="#9467bd" stroke-width="3"/>
<text x="710" y="146" class="legend">Forecast</text>
<line x1="690" y1="160" x2="705" y2="160" stroke="#8c564b" stroke-width="3"/>
<text x="710" y="164" class="legend">Total Generation</text>
<line x1="690" y1="178" x2="705" y2="178" stroke="#e377c2" stroke-width="3"/>
<text x="710" y="182" class="legend">Forecast Difference</text>

<!-- Date range -->
<text x="80" y="495" class="legend">Range: 06/02 - 07/02/2026 (714 records)</text>
</svg>