<?xml version="1.0" encoding="UTF-8"?>
<svg width="800" height="500" xmlns="http://www.w3.org/2000/svg">
<style>
.axis-line { stroke: #333; stroke-width: 1; }
.grid-line { stroke: #ddd; stroke-width: 0.5; }
.title { font: 16px Arial; text-anchor: middle; fill: #333; }
.axis-label { font: 12px Arial; text-anchor: middle; fill: #666; }
.legend { font: 10px Arial; fill: #333; }
</style>

<!-- Title -->
<text x="400.0" y="25" class="title">Northwestern Energy Generation Data - Past 30 Days</text>

<!-- Plot area background -->
<rect x="80" y="50" width="600" height="370" fill="white" stroke="#ddd"/>

<!-- Y-axis -->
<line x1="80" y1="50" x2="80" y2="420" class="axis-line"/>
<text x="30" y="235.0" class="axis-label" transform="rotate(-90, 30, 235.0)">Generation (MW)</text>

<!-- X-axis -->
<line x1="80" y1="420" x2="680" y2="420" class="axis-line"/>
<text x="380.0" y="480" class="axis-label">Time</text>
<line x1="80" y1="420.0" x2="680" y2="420.0" class="grid-line"/>
<text x="70" y="425.0" class="legend" text-anchor="end">0</text>
<line x1="80" y1="327.5" x2="680" y2="327.5" class="grid-line"/>
<text x="70" y="332.5" class="legend" text-anchor="end">303</text>
<line x1="80" y1="235.0" x2="680" y2="235.0" class="grid-line"/>
<text x="70" y="240.0" class="legend" text-anchor="end">606</text>
<line x1="80" y1="142.5" x2="680" y2="142.5" class="grid-line"/>
<text x="70" y="147.5" class="legend" text-anchor="end">910</text>
<line x1="80" y1="50.0" x2="680" y2="50.0" class="grid-line"/>
<text x="70" y="55.0" class="legend" text-anchor="end">1213</text>
<!-- Wind Generation -->
<path d="M80.0,411.8 L81.6,410.5 L83.1,416.3 L84.7,398.9 L86.2,403.8 L87.8,397.7 L113.4,416.3 L115.0,413.0 L116.6,409.9 L118.1,405.1 L119.7,401.1 L121.2,369.0 L122.8,373.6 L124.4,372.1 L125.9,381.9 L127.5,403.2 L129.1,406.0 L130.6,407.5 L132.2,417.6 L133.7,409.9 L135.3,403.2 L136.9,398.9 L138.4,400.5 L140.0,413.9 L141.5,419.4 L143.1,420.0 L144.7,418.2 L146.2,416.3 L147.8,417.6 L149.4,415.1 L150.9,407.8 L152.5,412.4 L154.0,377.3 L155.6,394.7 L157.2,410.5 L158.7,378.2 L160.3,406.6 L161.8,385.2 L163.4,389.8 L165.0,386.4 L166.5,399.9 L168.1,412.1 L169.7,393.8 L171.2,383.4 L172.8,381.9 L174.3,387.1 L175.9,408.4 L177.5,415.4 L179.0,416.6 L180.6,412.4 L182.1,409.9 L183.7,411.8 L185.3,413.3 L186.8,414.8 L188.4,411.5 L190.0,407.5 L191.5,398.0 L193.1,390.7 L194.6,382.5 L196.2,370.0 L197.8,373.3 L199.3,378.2 L200.9,378.5 L202.4,384.9 L204.0,393.2 L205.6,393.2 L207.1,373.9 L208.7,390.4 L210.3,402.3 L211.8,403.2 L213.4,399.6 L214.9,400.8 L216.5,404.4 L218.1,401.4 L219.6,406.0 L221.2,410.2 L222.7,408.4 L224.3,407.8 L225.9,408.1 L227.4,402.9 L229.0,394.4 L230.6,391.3 L232.1,381.9 L233.7,373.3 L235.2,379.4 L236.8,373.6 L238.4,374.2 L239.9,372.7 L241.5,391.0 L243.0,408.4 L244.6,414.2 L246.2,417.9 L247.7,420.0 L249.3,420.0 L250.9,420.0 L252.4,420.0 L254.0,419.7 L255.5,416.3 L257.1,415.1 L258.7,415.4 L260.2,415.1 L261.8,415.4 L263.3,414.8 L264.9,409.9 L266.5,401.1 L268.0,387.1 L269.6,378.5 L271.2,351.7 L272.7,345.9 L274.3,352.3 L275.8,342.5 L277.4,351.0 L279.0,381.6 L280.5,384.9 L282.1,394.7 L283.6,410.2 L285.2,416.0 L286.8,417.9 L288.3,420.0 L289.9,420.0 L291.5,420.0 L293.0,415.7 L294.6,409.9 L296.1,412.4 L297.7,413.0 L299.3,414.5 L300.8,416.9 L302.4,414.5 L303.9,413.0 L305.5,401.7 L307.1,387.1 L308.6,375.8 L310.2,355.6 L311.8,362.9 L313.3,386.1 L314.9,408.1 L316.4,416.3 L318.0,418.8 L319.6,420.0 L321.1,420.0 L322.7,419.7 L324.2,419.7 L325.8,420.0 L327.4,420.0 L328.9,420.0 L330.5,416.0 L332.0,412.7 L333.6,415.1 L335.2,417.9 L336.7,416.0 L338.3,416.0 L339.9,412.1 L341.4,405.1 L343.0,390.7 L344.5,372.1 L346.1,354.4 L347.7,349.5 L349.2,353.8 L350.8,373.0 L352.1,390.7 L353.6,405.1 L355.2,411.8 L356.8,418.2 L358.3,419.7 L359.9,420.0 L361.5,419.7 L363.0,418.8 L364.6,419.1 L366.1,415.7 L367.7,407.8 L369.3,399.9 L370.8,400.8 L372.4,398.9 L373.9,404.7 L375.5,406.9 L377.1,403.5 L378.6,392.2 L380.2,373.9 L381.8,368.4 L383.3,327.3 L384.9,324.2 L386.4,320.2 L388.0,335.5 L389.6,351.0 L391.1,364.8 L392.7,380.6 L394.2,393.2 L395.8,398.0 L397.4,404.1 L398.9,402.9 L400.5,401.1 L402.1,406.9 L403.6,405.1 L405.2,399.3 L406.7,388.0 L408.3,374.2 L409.9,379.1 L411.4,393.5 L413.0,394.1 L414.5,381.6 L416.1,388.0 L417.7,393.8 L419.2,394.1 L420.8,401.7 L422.4,402.3 L423.9,406.6 L425.5,405.4 L427.0,414.2 L428.6,408.7 L430.2,414.5 L431.7,404.4 L433.3,404.1 L434.8,402.0 L436.4,398.0 L438.0,402.3 L439.5,407.5 L441.1,415.7 L442.7,417.3 L444.2,416.9 L445.8,418.5 L447.3,420.0 L448.9,417.6 L450.5,397.7 L452.0,392.5 L453.6,373.6 L455.1,374.8 L456.7,390.1 L458.3,410.2 L459.8,410.5 L461.4,411.5 L463.0,412.1 L464.5,405.4 L466.1,397.4 L467.6,391.6 L469.2,396.5 L470.8,403.2 L472.3,404.1 L473.9,406.6 L475.4,408.7 L477.0,413.6 L478.6,410.8 L480.1,411.5 L481.7,403.8 L483.3,398.9 L484.8,399.6 L486.4,395.0 L487.9,352.3 L489.5,369.4 L491.1,382.2 L492.6,373.6 L494.2,388.6 L495.7,395.3 L497.3,409.6 L498.9,409.9 L500.4,412.1 L502.0,408.7 L503.6,411.2 L505.1,409.3 L506.7,393.5 L508.2,394.4 L509.8,393.8 L511.4,394.7 L512.9,398.9 L514.5,409.9 L516.0,410.5 L517.6,402.9 L519.2,396.5 L520.7,398.9 L522.3,388.9 L523.9,395.0 L525.4,399.3 L527.0,405.1 L528.5,402.3 L530.1,410.8 L531.7,409.6 L533.2,403.5 L534.8,404.7 L536.3,415.4 L537.9,417.3 L539.5,414.5 L541.0,412.1 L542.6,411.8 L544.2,406.3 L545.7,404.4 L547.3,398.9 L548.8,403.5 L550.4,403.8 L552.0,409.9 L553.5,413.3 L555.1,414.2 L556.6,412.4 L558.2,405.7 L559.8,400.8 L561.3,403.2 L562.9,407.5 L564.5,407.5 L566.0,407.8 L567.6,413.9 L569.1,413.6 L570.7,413.3 L572.3,410.5 L573.8,415.7 L575.4,418.2 L576.9,419.4 L578.5,420.0 L580.1,419.7 L581.6,420.0 L583.2,420.0 L584.7,419.4 L586.3,418.5 L587.9,417.9 L589.4,418.5 L591.0,420.0 L592.6,419.1 L594.1,415.4 L595.7,413.9 L597.2,410.8 L598.8,414.2 L600.4,404.4 L601.9,392.8 L603.5,398.6 L605.0,395.6 L606.6,366.0 L608.2,367.2 L609.7,362.9 L611.3,368.1 L612.9,388.9 L614.4,398.3 L616.0,405.4 L617.5,409.6 L619.1,412.7 L620.7,418.2 L622.2,412.4 L623.8,415.4 L625.3,406.6 L626.9,412.1 L628.5,415.7 L630.0,413.0 L631.6,409.0 L633.2,407.8 L634.7,403.8 L636.3,403.8 L637.8,391.9 L639.4,396.2 L641.0,390.7 L642.5,388.0 L644.1,384.6 L645.6,379.7 L647.2,386.7 L648.8,385.5 L650.3,392.2 L651.9,404.1 L653.5,407.2 L655.0,416.0 L656.6,417.6 L658.1,419.4 L659.7,420.0 L661.3,420.0 L662.8,420.0 L664.4,420.0 L665.9,419.1 L667.5,419.4 L669.1,418.5 L670.6,414.5 L672.2,402.3 L673.8,392.8 L675.3,373.9 L676.9,366.9 L678.4,380.3 L680.0,374.5" stroke="#1f77b4" stroke-width="2" fill="none" opacity="0.8"/>
<!-- Hydro Generation -->
<path d="M80.0,352.6 L81.6,353.5 L83.1,353.2 L84.7,353.8 L86.2,353.8 L87.8,353.5 L113.4,352.9 L115.0,353.5 L116.6,353.2 L118.1,353.2 L119.7,353.5 L121.2,353.5 L122.8,352.6 L124.4,353.2 L125.9,352.6 L127.5,352.6 L129.1,352.6 L130.6,352.3 L132.2,352.9 L133.7,352.6 L135.3,352.6 L136.9,352.9 L138.4,352.3 L140.0,352.6 L141.5,352.6 L143.1,352.3 L144.7,352.6 L146.2,352.9 L147.8,353.5 L149.4,353.5 L150.9,352.9 L152.5,353.5 L154.0,353.2 L155.6,353.2 L157.2,353.2 L158.7,353.2 L160.3,353.2 L161.8,353.2 L163.4,353.5 L165.0,353.5 L166.5,353.2 L168.1,353.2 L169.7,353.2 L171.2,352.9 L172.8,353.5 L174.3,353.2 L175.9,353.2 L177.5,352.6 L179.0,353.2 L180.6,353.5 L182.1,353.5 L183.7,353.8 L185.3,353.8 L186.8,354.1 L188.4,354.7 L190.0,354.4 L191.5,354.4 L193.1,354.1 L194.6,354.1 L196.2,355.3 L197.8,355.0 L199.3,355.3 L200.9,355.3 L202.4,355.3 L204.0,355.6 L205.6,355.3 L207.1,355.9 L208.7,355.6 L210.3,355.3 L211.8,356.2 L213.4,356.2 L214.9,355.6 L216.5,355.9 L218.1,356.8 L219.6,356.8 L221.2,356.8 L222.7,354.1 L224.3,357.2 L225.9,356.8 L227.4,356.8 L229.0,357.5 L230.6,351.7 L232.1,358.1 L233.7,359.0 L235.2,359.0 L236.8,358.7 L238.4,359.0 L239.9,358.7 L241.5,359.0 L243.0,358.7 L244.6,359.0 L246.2,359.0 L247.7,359.0 L249.3,359.3 L250.9,359.6 L252.4,359.6 L254.0,361.1 L255.5,361.1 L257.1,360.8 L258.7,361.4 L260.2,360.5 L261.8,360.5 L263.3,360.8 L264.9,361.1 L266.5,359.3 L268.0,359.6 L269.6,359.6 L271.2,358.7 L272.7,359.0 L274.3,359.0 L275.8,358.1 L277.4,357.8 L279.0,358.1 L280.5,357.8 L282.1,357.8 L283.6,357.5 L285.2,357.5 L286.8,357.8 L288.3,357.8 L289.9,357.5 L291.5,358.1 L293.0,358.4 L294.6,358.1 L296.1,358.7 L297.7,358.1 L299.3,358.4 L300.8,358.1 L302.4,358.7 L303.9,358.4 L305.5,358.4 L307.1,358.7 L308.6,357.2 L310.2,357.2 L311.8,356.5 L313.3,356.2 L314.9,356.2 L316.4,356.2 L318.0,356.5 L319.6,356.2 L321.1,356.2 L322.7,356.2 L324.2,356.2 L325.8,356.8 L327.4,359.3 L328.9,358.4 L330.5,359.0 L332.0,358.7 L333.6,359.3 L335.2,359.0 L336.7,359.0 L338.3,359.3 L339.9,359.9 L341.4,359.6 L343.0,359.6 L344.5,359.3 L346.1,359.0 L347.7,358.1 L349.2,357.8 L350.8,358.1 L352.1,357.8 L353.6,358.4 L355.2,358.1 L356.8,357.8 L358.3,356.8 L359.9,357.2 L361.5,356.5 L363.0,356.2 L364.6,356.2 L366.1,356.5 L367.7,356.5 L369.3,356.2 L370.8,355.9 L372.4,356.2 L373.9,356.5 L375.5,355.9 L377.1,356.2 L378.6,356.2 L380.2,356.5 L381.8,356.5 L383.3,356.8 L384.9,356.5 L386.4,356.5 L388.0,356.2 L389.6,356.8 L391.1,356.2 L392.7,356.5 L394.2,356.2 L395.8,356.2 L397.4,356.8 L398.9,356.5 L400.5,356.8 L402.1,356.2 L403.6,357.2 L405.2,355.9 L406.7,356.8 L408.3,356.2 L409.9,356.8 L411.4,356.5 L413.0,356.2 L414.5,356.5 L416.1,356.8 L417.7,356.5 L419.2,356.5 L420.8,356.5 L422.4,357.2 L423.9,356.5 L425.5,356.8 L427.0,356.8 L428.6,356.5 L430.2,357.2 L431.7,356.5 L433.3,357.2 L434.8,356.8 L436.4,357.2 L438.0,357.5 L439.5,357.5 L441.1,357.2 L442.7,356.8 L444.2,356.2 L445.8,356.5 L447.3,356.8 L448.9,356.8 L450.5,356.5 L452.0,356.5 L453.6,354.7 L455.1,355.0 L456.7,354.4 L458.3,354.1 L459.8,354.1 L461.4,353.8 L463.0,353.5 L464.5,353.5 L466.1,353.5 L467.6,352.9 L469.2,352.9 L470.8,352.9 L472.3,352.6 L473.9,352.3 L475.4,352.6 L477.0,352.9 L478.6,352.9 L480.1,352.6 L481.7,352.6 L483.3,353.2 L484.8,353.5 L486.4,353.5 L487.9,353.2 L489.5,353.5 L491.1,353.5 L492.6,353.2 L494.2,353.5 L495.7,353.5 L497.3,353.8 L498.9,353.8 L500.4,354.1 L502.0,354.7 L503.6,354.7 L505.1,354.4 L506.7,354.4 L508.2,354.7 L509.8,354.4 L511.4,354.7 L512.9,355.0 L514.5,356.2 L516.0,355.9 L517.6,356.2 L519.2,356.2 L520.7,355.9 L522.3,356.2 L523.9,355.6 L525.4,355.6 L527.0,355.6 L528.5,355.6 L530.1,355.3 L531.7,355.3 L533.2,353.2 L534.8,353.2 L536.3,352.9 L537.9,353.2 L539.5,353.2 L541.0,353.2 L542.6,352.6 L544.2,352.3 L545.7,352.3 L547.3,352.0 L548.8,352.6 L550.4,352.9 L552.0,354.1 L553.5,353.8 L555.1,354.1 L556.6,354.1 L558.2,353.8 L559.8,353.8 L561.3,353.8 L562.9,354.4 L564.5,353.8 L566.0,353.8 L567.6,354.1 L569.1,354.4 L570.7,354.4 L572.3,353.8 L573.8,353.8 L575.4,353.8 L576.9,353.5 L578.5,353.8 L580.1,353.5 L581.6,353.2 L583.2,353.2 L584.7,353.2 L586.3,353.2 L587.9,353.2 L589.4,355.0 L591.0,355.3 L592.6,355.0 L594.1,355.0 L595.7,355.0 L597.2,355.0 L598.8,355.0 L600.4,355.0 L601.9,354.7 L603.5,354.7 L605.0,354.7 L606.6,354.7 L608.2,355.0 L609.7,354.1 L611.3,353.8 L612.9,354.1 L614.4,353.8 L616.0,352.6 L617.5,352.6 L619.1,350.4 L620.7,351.4 L622.2,350.4 L623.8,350.1 L625.3,349.8 L626.9,349.8 L628.5,350.4 L630.0,350.7 L631.6,350.7 L633.2,351.4 L634.7,351.7 L636.3,351.7 L637.8,352.0 L639.4,352.6 L641.0,352.6 L642.5,353.8 L644.1,353.8 L645.6,353.8 L647.2,355.0 L648.8,354.7 L650.3,354.4 L651.9,355.0 L653.5,354.7 L655.0,354.7 L656.6,354.7 L658.1,354.7 L659.7,355.0 L661.3,355.0 L662.8,355.3 L664.4,355.3 L665.9,355.9 L667.5,355.6 L669.1,355.6 L670.6,355.3 L672.2,355.0 L673.8,359.3 L675.3,359.6 L676.9,355.0 L678.4,354.1 L680.0,354.7" stroke="#ff7f0e" stroke-width="2" fill="none" opacity="0.8"/>
<!-- Thermal Generation -->
<path d="M80.0,314.7 L81.6,315.0 L83.1,313.8 L84.7,316.3 L86.2,328.8 L87.8,338.8 L113.4,332.4 L115.0,333.0 L116.6,338.8 L118.1,328.8 L119.7,329.1 L121.2,328.5 L122.8,326.3 L124.4,324.8 L125.9,321.5 L127.5,317.2 L129.1,321.2 L130.6,320.5 L132.2,319.9 L133.7,319.0 L135.3,320.5 L136.9,321.5 L138.4,337.9 L140.0,338.2 L141.5,338.2 L143.1,339.5 L144.7,340.7 L146.2,341.6 L147.8,326.6 L149.4,327.9 L150.9,327.9 L152.5,328.2 L154.0,328.5 L155.6,328.5 L157.2,327.9 L158.7,326.9 L160.3,326.3 L161.8,325.1 L163.4,321.8 L165.0,322.1 L166.5,321.2 L168.1,320.5 L169.7,320.2 L171.2,322.4 L172.8,320.5 L174.3,320.8 L175.9,321.8 L177.5,322.4 L179.0,320.5 L180.6,323.3 L182.1,322.7 L183.7,323.6 L185.3,323.9 L186.8,324.5 L188.4,324.2 L190.0,323.9 L191.5,324.2 L193.1,324.5 L194.6,323.0 L196.2,323.0 L197.8,323.3 L199.3,325.7 L200.9,322.1 L202.4,321.2 L204.0,321.5 L205.6,320.5 L207.1,320.5 L208.7,320.8 L210.3,323.6 L211.8,319.9 L213.4,320.8 L214.9,337.9 L216.5,339.5 L218.1,333.0 L219.6,322.1 L221.2,323.3 L222.7,323.0 L224.3,323.6 L225.9,323.9 L227.4,327.3 L229.0,326.3 L230.6,323.3 L232.1,323.3 L233.7,322.4 L235.2,322.4 L236.8,321.8 L238.4,321.8 L239.9,321.8 L241.5,320.5 L243.0,319.6 L244.6,319.3 L246.2,319.6 L247.7,322.1 L249.3,319.3 L250.9,330.6 L252.4,328.2 L254.0,331.2 L255.5,338.8 L257.1,322.4 L258.7,323.3 L260.2,323.6 L261.8,324.2 L263.3,323.6 L264.9,323.3 L266.5,309.9 L268.0,308.9 L269.6,311.1 L271.2,307.1 L272.7,307.4 L274.3,308.3 L275.8,307.4 L277.4,306.5 L279.0,305.6 L280.5,305.9 L282.1,305.0 L283.6,304.4 L285.2,304.1 L286.8,304.7 L288.3,307.7 L289.9,336.7 L291.5,338.2 L293.0,338.8 L294.6,338.5 L296.1,341.0 L297.7,313.5 L299.3,308.3 L300.8,306.8 L302.4,310.5 L303.9,308.9 L305.5,304.4 L307.1,303.8 L308.6,300.4 L310.2,298.3 L311.8,311.4 L313.3,304.7 L314.9,306.5 L316.4,296.7 L318.0,319.6 L319.6,323.0 L321.1,322.4 L322.7,295.8 L324.2,298.6 L325.8,298.6 L327.4,323.3 L328.9,309.9 L330.5,311.1 L332.0,312.6 L333.6,313.2 L335.2,309.3 L336.7,307.7 L338.3,307.4 L339.9,306.5 L341.4,307.1 L343.0,307.1 L344.5,305.3 L346.1,305.0 L347.7,301.6 L349.2,303.8 L350.8,298.3 L352.1,297.4 L353.6,305.9 L355.2,296.1 L356.8,297.4 L358.3,299.8 L359.9,300.7 L361.5,297.4 L363.0,297.7 L364.6,300.7 L366.1,301.0 L367.7,307.7 L369.3,321.2 L370.8,307.4 L372.4,320.2 L373.9,313.8 L375.5,313.2 L377.1,311.4 L378.6,312.6 L380.2,310.8 L381.8,311.4 L383.3,308.6 L384.9,306.2 L386.4,305.3 L388.0,301.9 L389.6,340.7 L391.1,340.1 L392.7,328.2 L394.2,327.6 L395.8,326.9 L397.4,326.6 L398.9,312.3 L400.5,327.3 L402.1,332.4 L403.6,327.6 L405.2,327.9 L406.7,328.5 L408.3,331.8 L409.9,326.9 L411.4,325.4 L413.0,305.0 L414.5,305.6 L416.1,305.9 L417.7,311.1 L419.2,308.0 L420.8,312.6 L422.4,305.9 L423.9,304.7 L425.5,303.5 L427.0,303.5 L428.6,329.1 L430.2,323.3 L431.7,324.2 L433.3,340.7 L434.8,340.4 L436.4,329.1 L438.0,327.3 L439.5,327.6 L441.1,331.2 L442.7,331.5 L444.2,326.9 L445.8,325.7 L447.3,326.0 L448.9,329.1 L450.5,319.9 L452.0,319.6 L453.6,316.3 L455.1,313.8 L456.7,313.5 L458.3,312.3 L459.8,310.8 L461.4,310.8 L463.0,310.8 L464.5,308.3 L466.1,306.2 L467.6,336.4 L469.2,335.2 L470.8,334.9 L472.3,334.3 L473.9,325.7 L475.4,325.1 L477.0,328.2 L478.6,328.2 L480.1,330.0 L481.7,335.2 L483.3,335.8 L484.8,345.6 L486.4,345.9 L487.9,345.3 L489.5,345.3 L491.1,343.7 L492.6,327.3 L494.2,324.2 L495.7,321.2 L497.3,322.4 L498.9,321.8 L500.4,321.5 L502.0,326.6 L503.6,337.9 L505.1,338.2 L506.7,337.9 L508.2,338.2 L509.8,338.5 L511.4,338.5 L512.9,339.2 L514.5,338.2 L516.0,337.9 L517.6,340.7 L519.2,341.3 L520.7,341.3 L522.3,341.9 L523.9,339.2 L525.4,341.9 L527.0,341.6 L528.5,312.3 L530.1,312.0 L531.7,313.5 L533.2,312.9 L534.8,312.3 L536.3,322.1 L537.9,321.5 L539.5,319.6 L541.0,335.5 L542.6,330.0 L544.2,327.9 L545.7,327.9 L547.3,327.6 L548.8,327.3 L550.4,327.6 L552.0,328.2 L553.5,329.4 L555.1,330.6 L556.6,330.9 L558.2,331.5 L559.8,332.1 L561.3,332.4 L562.9,312.3 L564.5,304.4 L566.0,304.1 L567.6,303.5 L569.1,302.8 L570.7,315.0 L572.3,301.6 L573.8,300.4 L575.4,310.8 L576.9,311.1 L578.5,327.3 L580.1,326.9 L581.6,327.6 L583.2,326.6 L584.7,326.6 L586.3,326.3 L587.9,328.2 L589.4,328.8 L591.0,330.0 L592.6,332.4 L594.1,331.8 L595.7,332.7 L597.2,333.0 L598.8,315.7 L600.4,309.3 L601.9,308.3 L603.5,308.0 L605.0,307.4 L606.6,306.8 L608.2,303.5 L609.7,301.9 L611.3,301.6 L612.9,303.8 L614.4,300.1 L616.0,299.5 L617.5,304.1 L619.1,303.8 L620.7,303.1 L622.2,303.1 L623.8,302.8 L625.3,309.3 L626.9,303.8 L628.5,305.0 L630.0,307.1 L631.6,307.7 L633.2,309.3 L634.7,336.1 L636.3,348.3 L637.8,349.2 L639.4,350.1 L641.0,349.2 L642.5,348.3 L644.1,346.8 L645.6,345.3 L647.2,343.7 L648.8,343.1 L650.3,341.9 L651.9,342.2 L653.5,342.5 L655.0,341.3 L656.6,341.0 L658.1,343.7 L659.7,339.8 L661.3,340.4 L662.8,343.7 L664.4,344.0 L665.9,342.8 L667.5,342.5 L669.1,345.3 L670.6,334.9 L672.2,335.5 L673.8,336.7 L675.3,337.0 L676.9,335.5 L678.4,335.5 L680.0,334.6" stroke="#2ca02c" stroke-width="2" fill="none" opacity="0.8"/>
<!-- Solar Generation -->
<path d="M80.0,392.2 L81.6,411.2 L83.1,420.0 L84.7,420.0 L86.2,420.0 L87.8,420.0 L113.4,393.5 L115.0,382.2 L116.6,384.6 L118.1,399.3 L119.7,418.2 L121.2,420.0 L122.8,420.0 L124.4,420.0 L125.9,420.0 L127.5,420.0 L129.1,420.0 L130.6,420.0 L132.2,420.0 L133.7,420.0 L135.3,420.0 L136.9,418.2 L138.4,404.4 L140.0,380.3 L141.5,378.2 L143.1,387.4 L144.7,379.7 L146.2,384.6 L147.8,388.3 L149.4,398.3 L150.9,401.1 L152.5,400.5 L154.0,408.1 L155.6,415.7 L157.2,418.2 L158.7,420.0 L160.3,420.0 L161.8,420.0 L163.4,420.0 L165.0,420.0 L166.5,420.0 L168.1,420.0 L169.7,420.0 L171.2,420.0 L172.8,420.0 L174.3,418.2 L175.9,406.0 L177.5,387.7 L179.0,378.2 L180.6,380.9 L182.1,378.8 L183.7,380.0 L185.3,377.3 L186.8,377.0 L188.4,377.0 L190.0,377.3 L191.5,389.8 L193.1,402.9 L194.6,418.5 L196.2,420.0 L197.8,420.0 L199.3,420.0 L200.9,420.0 L202.4,420.0 L204.0,420.0 L205.6,420.0 L207.1,420.0 L208.7,420.0 L210.3,420.0 L211.8,419.4 L213.4,409.0 L214.9,393.8 L216.5,385.5 L218.1,379.7 L219.6,384.6 L221.2,377.3 L222.7,383.1 L224.3,375.5 L225.9,375.8 L227.4,376.7 L229.0,380.6 L230.6,400.2 L232.1,418.5 L233.7,420.0 L235.2,420.0 L236.8,420.0 L238.4,420.0 L239.9,420.0 L241.5,420.0 L243.0,420.0 L244.6,420.0 L246.2,420.0 L247.7,420.0 L249.3,418.5 L250.9,397.1 L252.4,379.4 L254.0,376.1 L255.5,375.8 L257.1,375.8 L258.7,376.1 L260.2,375.5 L261.8,376.4 L263.3,377.3 L264.9,376.7 L266.5,386.1 L268.0,408.1 L269.6,418.5 L271.2,420.0 L272.7,420.0 L274.3,420.0 L275.8,420.0 L277.4,420.0 L279.0,420.0 L280.5,420.0 L282.1,420.0 L283.6,420.0 L285.2,420.0 L286.8,419.1 L288.3,399.6 L289.9,378.8 L291.5,376.4 L293.0,375.5 L294.6,375.8 L296.1,380.0 L297.7,377.6 L299.3,380.0 L300.8,379.4 L302.4,382.2 L303.9,385.2 L305.5,401.7 L307.1,419.1 L308.6,420.0 L310.2,420.0 L311.8,420.0 L313.3,420.0 L314.9,420.0 L316.4,420.0 L318.0,420.0 L319.6,420.0 L321.1,420.0 L322.7,420.0 L324.2,418.5 L325.8,402.0 L327.4,381.3 L328.9,377.9 L330.5,378.2 L332.0,376.1 L333.6,379.7 L335.2,376.4 L336.7,387.4 L338.3,382.2 L339.9,392.8 L341.4,398.0 L343.0,410.2 L344.5,419.4 L346.1,420.0 L347.7,420.0 L349.2,420.0 L350.8,420.0 L352.1,420.0 L353.6,420.0 L355.2,420.0 L356.8,420.0 L358.3,420.0 L359.9,420.0 L361.5,419.7 L363.0,412.7 L364.6,398.3 L366.1,406.3 L367.7,394.4 L369.3,395.3 L370.8,390.1 L372.4,393.8 L373.9,382.8 L375.5,379.4 L377.1,391.6 L378.6,413.0 L380.2,412.4 L381.8,419.7 L383.3,420.0 L384.9,420.0 L386.4,420.0 L388.0,420.0 L389.6,420.0 L391.1,420.0 L392.7,420.0 L394.2,420.0 L395.8,420.0 L397.4,420.0 L398.9,419.7 L400.5,416.0 L402.1,415.1 L403.6,414.2 L405.2,412.7 L406.7,409.3 L408.3,406.3 L409.9,411.2 L411.4,404.1 L413.0,400.5 L414.5,407.5 L416.1,411.8 L417.7,418.5 L419.2,420.0 L420.8,420.0 L422.4,420.0 L423.9,420.0 L425.5,420.0 L427.0,420.0 L428.6,420.0 L430.2,420.0 L431.7,420.0 L433.3,420.0 L434.8,420.0 L436.4,420.0 L438.0,417.9 L439.5,412.4 L441.1,411.5 L442.7,404.4 L444.2,402.3 L445.8,398.0 L447.3,397.1 L448.9,399.9 L450.5,402.3 L452.0,406.6 L453.6,403.2 L455.1,415.7 L456.7,419.4 L458.3,420.0 L459.8,420.0 L461.4,420.0 L463.0,420.0 L464.5,420.0 L466.1,420.0 L467.6,420.0 L469.2,420.0 L470.8,420.0 L472.3,420.0 L473.9,420.0 L475.4,413.6 L477.0,400.8 L478.6,393.2 L480.1,388.3 L481.7,385.2 L483.3,379.1 L484.8,395.0 L486.4,389.5 L487.9,399.9 L489.5,406.3 L491.1,381.9 L492.6,410.2 L494.2,419.1 L495.7,420.0 L497.3,420.0 L498.9,420.0 L500.4,420.0 L502.0,420.0 L503.6,420.0 L505.1,420.0 L506.7,420.0 L508.2,420.0 L509.8,420.0 L511.4,420.0 L512.9,412.7 L514.5,382.5 L516.0,377.6 L517.6,376.4 L519.2,376.7 L520.7,383.7 L522.3,376.1 L523.9,376.1 L525.4,380.9 L527.0,376.4 L528.5,394.7 L530.1,402.0 L531.7,419.1 L533.2,420.0 L534.8,420.0 L536.3,420.0 L537.9,420.0 L539.5,420.0 L541.0,420.0 L542.6,420.0 L544.2,420.0 L545.7,420.0 L547.3,420.0 L548.8,419.7 L550.4,407.5 L552.0,384.6 L553.5,377.9 L555.1,376.7 L556.6,377.3 L558.2,377.9 L559.8,377.9 L561.3,379.4 L562.9,376.4 L564.5,378.8 L566.0,384.3 L567.6,402.0 L569.1,419.1 L570.7,420.0 L572.3,420.0 L573.8,420.0 L575.4,420.0 L576.9,420.0 L578.5,420.0 L580.1,420.0 L581.6,420.0 L583.2,420.0 L584.7,420.0 L586.3,420.0 L587.9,407.5 L589.4,386.1 L591.0,377.6 L592.6,378.8 L594.1,377.3 L595.7,378.2 L597.2,380.3 L598.8,377.6 L600.4,378.8 L601.9,378.2 L603.5,383.1 L605.0,402.3 L606.6,419.1 L608.2,420.0 L609.7,420.0 L611.3,420.0 L612.9,420.0 L614.4,420.0 L616.0,420.0 L617.5,420.0 L619.1,420.0 L620.7,420.0 L622.2,420.0 L623.8,420.0 L625.3,408.1 L626.9,385.2 L628.5,378.8 L630.0,378.8 L631.6,379.1 L633.2,378.5 L634.7,387.7 L636.3,397.1 L637.8,393.2 L639.4,395.6 L641.0,396.2 L642.5,409.3 L644.1,419.4 L645.6,420.0 L647.2,420.0 L648.8,420.0 L650.3,420.0 L651.9,420.0 L653.5,420.0 L655.0,420.0 L656.6,420.0 L658.1,420.0 L659.7,420.0 L661.3,420.0 L662.8,409.9 L664.4,390.1 L665.9,381.3 L667.5,384.6 L669.1,378.5 L670.6,379.4 L672.2,383.4 L673.8,378.5 L675.3,379.1 L676.9,380.6 L678.4,387.4 L680.0,405.7" stroke="#d62728" stroke-width="2" fill="none" opacity="0.8"/>
<!-- Forecast -->
<path d="M80.0,100.6 L81.6,112.8 L83.1,125.3 L84.7,135.0 L86.2,152.4 L87.8,178.7 L113.4,74.9 L115.0,67.6 L116.6,72.2 L118.1,82.6 L119.7,97.8 L121.2,111.6 L122.8,122.5 L124.4,151.2 L125.9,187.8 L127.5,207.7 L129.1,219.2 L130.6,230.2 L132.2,234.8 L133.7,234.2 L135.3,227.5 L136.9,207.4 L138.4,180.5 L140.0,154.9 L141.5,136.6 L143.1,123.1 L144.7,109.7 L146.2,100.9 L147.8,92.6 L149.4,86.2 L150.9,78.6 L152.5,78.6 L154.0,83.2 L155.6,93.9 L157.2,107.3 L158.7,122.5 L160.3,140.2 L161.8,158.2 L163.4,235.7 L165.0,213.8 L166.5,244.6 L168.1,244.9 L169.7,242.4 L171.2,240.0 L172.8,239.1 L174.3,240.9 L175.9,207.4 L177.5,199.7 L179.0,187.8 L180.6,177.5 L182.1,147.2 L183.7,144.2 L185.3,145.1 L186.8,146.0 L188.4,149.1 L190.0,162.2 L191.5,173.2 L193.1,173.8 L194.6,173.8 L196.2,236.6 L197.8,240.3 L199.3,409.9 L200.9,223.2 L202.4,224.7 L204.0,237.3 L205.6,245.8 L207.1,248.8 L208.7,246.7 L210.3,236.3 L211.8,216.2 L213.4,192.4 L214.9,170.1 L216.5,159.8 L218.1,154.9 L219.6,148.8 L221.2,146.3 L222.7,140.2 L224.3,132.6 L225.9,123.1 L227.4,115.8 L229.0,121.6 L230.6,131.7 L232.1,181.1 L233.7,186.3 L235.2,192.7 L236.8,193.6 L238.4,218.6 L239.9,235.4 L241.5,238.8 L243.0,240.0 L244.6,241.5 L246.2,243.4 L247.7,245.8 L249.3,247.9 L250.9,242.1 L252.4,230.5 L254.0,216.2 L255.5,207.4 L257.1,204.9 L258.7,204.0 L260.2,202.8 L261.8,202.8 L263.3,202.2 L264.9,172.9 L266.5,169.5 L268.0,167.1 L269.6,170.7 L271.2,182.0 L272.7,184.2 L274.3,209.8 L275.8,219.2 L277.4,225.4 L279.0,218.0 L280.5,226.0 L282.1,233.9 L283.6,240.0 L285.2,251.0 L286.8,247.6 L288.3,235.4 L289.9,219.2 L291.5,203.1 L293.0,192.1 L294.6,184.5 L296.1,197.0 L297.7,194.8 L299.3,193.9 L300.8,163.4 L302.4,161.9 L303.9,159.5 L305.5,157.9 L307.1,170.4 L308.6,175.6 L310.2,177.5 L311.8,205.8 L313.3,228.7 L314.9,225.0 L316.4,236.0 L318.0,244.3 L319.6,248.2 L321.1,247.6 L322.7,237.6 L324.2,217.1 L325.8,192.7 L327.4,169.2 L328.9,156.7 L330.5,149.7 L332.0,141.8 L333.6,138.4 L335.2,129.9 L336.7,119.8 L338.3,142.1 L339.9,141.5 L341.4,139.3 L343.0,137.2 L344.5,144.2 L346.1,154.9 L347.7,120.7 L349.2,132.0 L350.8,194.8 L352.1,220.8 L353.6,235.4 L355.2,244.3 L356.8,249.5 L358.3,248.8 L359.9,240.0 L361.5,220.8 L363.0,196.1 L364.6,171.7 L366.1,156.1 L367.7,147.2 L369.3,138.7 L370.8,131.1 L372.4,121.9 L373.9,112.2 L375.5,100.9 L377.1,92.0 L378.6,94.8 L380.2,104.5 L381.8,118.6 L383.3,133.2 L384.9,142.1 L386.4,162.5 L388.0,170.7 L389.6,208.3 L391.1,228.1 L392.7,237.6 L394.2,243.4 L395.8,242.7 L397.4,234.8 L398.9,217.4 L400.5,194.8 L402.1,170.7 L403.6,156.1 L405.2,149.4 L406.7,142.7 L408.3,139.0 L409.9,132.9 L411.4,124.7 L413.0,118.0 L414.5,115.2 L416.1,119.8 L417.7,121.3 L419.2,127.4 L420.8,144.5 L422.4,150.3 L423.9,166.8 L425.5,198.8 L427.0,215.6 L428.6,226.9 L430.2,235.4 L431.7,240.3 L433.3,238.8 L434.8,230.5 L436.4,215.3 L438.0,193.3 L439.5,171.0 L441.1,159.1 L442.7,155.5 L444.2,151.2 L445.8,147.9 L447.3,146.6 L448.9,144.2 L450.5,139.9 L452.0,137.8 L453.6,142.1 L455.1,149.7 L456.7,157.6 L458.3,162.8 L459.8,163.7 L461.4,177.8 L463.0,205.5 L464.5,223.2 L466.1,234.2 L467.6,241.5 L469.2,244.9 L470.8,244.0 L472.3,234.2 L473.9,218.0 L475.4,195.1 L477.0,172.9 L478.6,161.9 L480.1,158.8 L481.7,154.9 L483.3,151.5 L484.8,151.2 L486.4,148.8 L487.9,143.9 L489.5,140.8 L491.1,144.8 L492.6,152.4 L494.2,160.1 L495.7,167.4 L497.3,167.4 L498.9,182.0 L500.4,209.5 L502.0,223.8 L503.6,234.2 L505.1,243.0 L506.7,247.9 L508.2,249.5 L509.8,247.0 L511.4,241.5 L512.9,228.4 L514.5,211.0 L516.0,198.5 L517.6,192.4 L519.2,187.8 L520.7,179.6 L522.3,174.7 L523.9,174.1 L525.4,165.9 L527.0,158.2 L528.5,159.1 L530.1,157.3 L531.7,165.9 L533.2,174.4 L534.8,173.5 L536.3,186.9 L537.9,206.1 L539.5,226.0 L541.0,238.2 L542.6,245.8 L544.2,250.7 L545.7,251.6 L547.3,250.4 L548.8,247.0 L550.4,236.0 L552.0,219.2 L553.5,200.0 L555.1,188.1 L556.6,178.1 L558.2,170.7 L559.8,162.8 L561.3,153.7 L562.9,143.0 L564.5,137.8 L566.0,127.1 L567.6,130.8 L569.1,140.5 L570.7,152.7 L572.3,159.8 L573.8,177.8 L575.4,203.4 L576.9,225.7 L578.5,239.1 L580.1,233.0 L581.6,248.5 L583.2,254.0 L584.7,252.5 L586.3,248.5 L587.9,239.1 L589.4,222.0 L591.0,202.2 L592.6,190.3 L594.1,179.9 L595.7,172.3 L597.2,161.9 L598.8,151.5 L600.4,140.8 L601.9,132.6 L603.5,125.6 L605.0,128.0 L606.6,136.6 L608.2,148.8 L609.7,157.6 L611.3,177.1 L612.9,155.8 L614.4,206.1 L616.0,232.4 L617.5,226.0 L619.1,242.7 L620.7,247.3 L622.2,239.4 L623.8,219.9 L625.3,197.3 L626.9,173.2 L628.5,157.9 L630.0,150.6 L631.6,142.4 L633.2,137.2 L634.7,130.2 L636.3,122.2 L637.8,120.7 L639.4,120.7 L641.0,121.0 L642.5,121.3 L644.1,121.3 L645.6,121.6 L647.2,121.9 L648.8,134.4 L650.3,198.5 L651.9,226.6 L653.5,240.6 L655.0,250.1 L656.6,254.9 L658.1,254.0 L659.7,244.9 L661.3,223.5 L662.8,200.3 L664.4,177.8 L665.9,165.6 L667.5,160.1 L669.1,154.0 L670.6,149.7 L672.2,145.4 L673.8,138.1 L675.3,128.3 L676.9,119.2 L678.4,121.6 L680.0,122.8" stroke="#9467bd" stroke-width="2" fill="none" opacity="0.8"/>
<!-- Total Generation -->
<path d="M80.0,211.3 L81.6,230.2 L83.1,243.4 L84.7,229.0 L86.2,246.4 L87.8,250.1 L113.4,235.1 L115.0,221.7 L116.6,226.6 L118.1,226.3 L119.7,241.8 L121.2,211.0 L122.8,212.5 L124.4,210.4 L125.9,216.2 L127.5,233.3 L129.1,240.0 L130.6,240.6 L132.2,250.7 L133.7,241.8 L135.3,236.6 L136.9,231.5 L138.4,235.1 L140.0,225.0 L141.5,228.4 L143.1,239.4 L144.7,231.1 L146.2,235.4 L147.8,226.0 L149.4,234.8 L150.9,229.6 L152.5,234.5 L154.0,207.0 L155.6,232.1 L157.2,249.8 L158.7,218.3 L160.3,246.1 L161.8,223.5 L163.4,225.0 L165.0,222.0 L166.5,234.2 L168.1,245.8 L169.7,227.2 L171.2,218.6 L172.8,215.9 L174.3,219.2 L175.9,229.3 L177.5,218.0 L179.0,208.6 L180.6,210.1 L182.1,204.9 L183.7,209.2 L185.3,208.3 L186.8,210.4 L188.4,207.4 L190.0,203.1 L191.5,206.4 L193.1,212.2 L194.6,218.0 L196.2,208.3 L197.8,211.6 L199.3,219.2 L200.9,215.9 L202.4,221.4 L204.0,230.2 L205.6,229.0 L207.1,210.4 L208.7,226.9 L210.3,241.2 L211.8,238.8 L213.4,225.7 L214.9,228.1 L216.5,225.4 L218.1,211.0 L219.6,209.5 L221.2,207.7 L222.7,208.6 L224.3,204.0 L225.9,204.6 L227.4,203.7 L229.0,198.8 L230.6,206.4 L232.1,221.7 L233.7,214.7 L235.2,220.8 L236.8,214.1 L238.4,215.0 L239.9,213.1 L241.5,230.5 L243.0,246.7 L244.6,252.5 L246.2,256.8 L247.7,261.0 L249.3,257.4 L250.9,247.9 L252.4,227.8 L254.0,228.1 L255.5,232.1 L257.1,214.1 L258.7,216.2 L260.2,214.7 L261.8,216.5 L263.3,216.5 L264.9,211.0 L266.5,196.4 L268.0,203.7 L269.6,207.7 L271.2,177.5 L272.7,172.3 L274.3,179.6 L275.8,168.0 L277.4,175.3 L279.0,205.2 L280.5,208.6 L282.1,217.4 L283.6,232.1 L285.2,237.6 L286.8,239.4 L288.3,225.4 L289.9,233.6 L291.5,233.6 L293.0,228.4 L294.6,222.3 L296.1,232.1 L297.7,202.2 L299.3,201.2 L300.8,201.2 L302.4,205.8 L303.9,205.5 L305.5,206.1 L307.1,208.6 L308.6,193.3 L310.2,171.0 L311.8,190.9 L313.3,207.0 L314.9,230.8 L316.4,229.3 L318.0,254.9 L319.6,259.8 L321.1,259.2 L322.7,231.8 L324.2,233.0 L325.8,217.4 L327.4,224.1 L328.9,206.7 L330.5,204.3 L332.0,200.0 L333.6,207.4 L335.2,202.5 L336.7,210.1 L338.3,204.9 L339.9,211.3 L341.4,209.8 L343.0,207.7 L344.5,196.1 L346.1,178.7 L347.7,169.5 L349.2,175.6 L350.8,189.7 L352.1,206.1 L353.6,229.3 L355.2,226.0 L356.8,233.3 L358.3,236.3 L359.9,237.9 L361.5,233.3 L363.0,225.4 L364.6,214.4 L366.1,219.6 L367.7,206.4 L369.3,212.5 L370.8,194.2 L372.4,209.2 L373.9,197.9 L375.5,195.5 L377.1,202.8 L378.6,214.1 L380.2,193.6 L381.8,196.1 L383.3,153.0 L384.9,147.2 L386.4,142.4 L388.0,154.0 L389.6,208.9 L391.1,221.1 L392.7,225.4 L394.2,236.9 L395.8,241.2 L397.4,247.6 L398.9,231.5 L400.5,241.2 L402.1,250.7 L403.6,244.0 L405.2,235.7 L406.7,222.6 L408.3,208.6 L409.9,214.1 L411.4,219.6 L413.0,195.8 L414.5,191.2 L416.1,202.5 L417.7,219.9 L419.2,218.6 L420.8,231.1 L422.4,225.7 L423.9,228.1 L425.5,226.0 L427.0,234.8 L428.6,254.6 L430.2,255.3 L431.7,245.5 L433.3,262.0 L434.8,259.2 L436.4,244.3 L438.0,244.9 L439.5,244.9 L441.1,255.6 L442.7,250.1 L444.2,242.4 L445.8,238.8 L447.3,240.0 L448.9,243.4 L450.5,216.5 L452.0,215.3 L453.6,187.8 L455.1,199.4 L456.7,217.4 L458.3,236.6 L459.8,235.4 L461.4,236.0 L463.0,236.3 L464.5,227.2 L466.1,217.1 L467.6,241.2 L469.2,244.6 L470.8,251.0 L472.3,251.0 L473.9,244.6 L475.4,240.0 L477.0,235.4 L478.6,225.0 L480.1,222.3 L481.7,216.8 L483.3,207.0 L484.8,233.6 L486.4,223.8 L487.9,190.6 L489.5,214.4 L491.1,201.2 L492.6,204.3 L494.2,225.4 L495.7,230.2 L497.3,246.1 L498.9,245.8 L500.4,247.9 L502.0,250.4 L503.6,264.1 L505.1,262.3 L506.7,246.1 L508.2,247.6 L509.8,247.0 L511.4,247.9 L512.9,245.8 L514.5,226.9 L516.0,222.0 L517.6,216.2 L519.2,210.7 L520.7,219.9 L522.3,203.1 L523.9,205.8 L525.4,217.7 L527.0,218.6 L528.5,204.9 L530.1,220.2 L531.7,237.6 L533.2,229.6 L534.8,230.2 L536.3,250.7 L537.9,252.2 L539.5,247.6 L541.0,261.0 L542.6,254.6 L544.2,246.7 L545.7,244.9 L547.3,238.8 L548.8,243.0 L550.4,231.8 L552.0,216.8 L553.5,214.4 L555.1,215.6 L556.6,214.7 L558.2,208.9 L559.8,204.6 L561.3,208.9 L562.9,190.6 L564.5,184.5 L566.0,190.0 L567.6,213.5 L569.1,229.9 L570.7,242.7 L572.3,226.0 L573.8,229.9 L575.4,242.7 L576.9,244.0 L578.5,261.0 L580.1,260.4 L581.6,260.7 L583.2,260.1 L584.7,259.2 L586.3,258.0 L587.9,246.7 L589.4,228.4 L591.0,223.2 L592.6,225.4 L594.1,219.6 L595.7,219.9 L597.2,219.2 L598.8,202.5 L600.4,187.5 L601.9,174.1 L603.5,184.5 L605.0,200.0 L606.6,186.6 L608.2,185.7 L609.7,179.3 L611.3,183.9 L612.9,207.0 L614.4,212.5 L616.0,217.7 L617.5,226.6 L619.1,227.2 L620.7,233.0 L622.2,226.0 L623.8,228.4 L625.3,213.8 L626.9,190.9 L628.5,190.0 L630.0,189.7 L631.6,186.6 L633.2,186.9 L634.7,219.2 L636.3,240.9 L637.8,226.3 L639.4,234.5 L641.0,228.7 L642.5,239.4 L644.1,244.6 L645.6,238.8 L647.2,245.5 L648.8,243.7 L650.3,248.8 L651.9,261.4 L653.5,264.4 L655.0,272.0 L656.6,273.3 L658.1,277.8 L659.7,274.8 L661.3,276.0 L662.8,269.6 L664.4,249.5 L665.9,239.1 L667.5,242.1 L669.1,237.9 L670.6,224.1 L672.2,216.2 L673.8,207.4 L675.3,189.7 L676.9,178.1 L678.4,197.3 L680.0,209.5" stroke="#8c564b" stroke-width="2" fill="none" opacity="0.8"/>
<!-- Forecast Difference -->
<path d="M81.6,420.0 L83.1,420.0 L84.7,420.0 L86.2,420.0 L87.8,420.0 L115.0,420.0 L116.6,420.0 L118.1,420.0 L119.7,420.0 L121.2,420.0 L122.8,420.0 L124.4,420.0 L125.9,420.0 L127.5,420.0 L129.1,420.0 L130.6,420.0 L132.2,420.0 L133.7,420.0 L135.3,420.0 L136.9,420.0 L138.4,420.0 L140.0,420.0 L141.5,420.0 L143.1,420.0 L144.7,420.0 L146.2,420.0 L147.8,420.0 L149.4,420.0 L150.9,420.0 L152.5,420.0 L154.0,420.0 L155.6,420.0 L157.2,420.0 L158.7,420.0 L160.3,420.0 L161.8,420.0 L163.4,420.0 L165.0,420.0 L166.5,420.0 L168.1,420.0 L169.7,420.0 L171.2,420.0 L172.8,420.0 L174.3,420.0 L175.9,420.0 L177.5,420.0 L179.0,420.0 L180.6,420.0 L182.1,420.0 L183.7,420.0 L185.3,420.0 L186.8,420.0 L188.4,420.0 L190.0,420.0 L191.5,420.0 L193.1,420.0 L194.6,420.0 L196.2,420.0 L197.8,420.0 L199.3,420.0 L200.9,420.0 L202.4,420.0 L204.0,420.0 L205.6,420.0 L207.1,420.0 L208.7,420.0 L210.3,420.0 L211.8,420.0 L213.4,420.0 L214.9,420.0 L216.5,420.0 L218.1,420.0 L219.6,420.0 L221.2,420.0 L222.7,420.0 L224.3,420.0 L225.9,420.0 L227.4,420.0 L229.0,420.0 L230.6,420.0 L232.1,420.0 L233.7,420.0 L235.2,420.0 L236.8,420.0 L238.4,420.0 L239.9,420.0 L241.5,420.0 L243.0,420.0 L244.6,420.0 L246.2,420.0 L247.7,420.0 L249.3,420.0 L250.9,420.0 L252.4,420.0 L254.0,420.0 L255.5,420.0 L257.1,420.0 L258.7,420.0 L260.2,420.0 L261.8,420.0 L263.3,420.0 L264.9,420.0 L266.5,420.0 L268.0,420.0 L269.6,420.0 L271.2,420.0 L272.7,420.0 L274.3,420.0 L275.8,420.0 L277.4,420.0 L279.0,420.0 L280.5,420.0 L282.1,420.0 L283.6,420.0 L285.2,420.0 L286.8,420.0 L288.3,420.0 L289.9,420.0 L291.5,420.0 L293.0,420.0 L294.6,420.0 L296.1,420.0 L297.7,420.0 L299.3,420.0 L300.8,420.0 L302.4,420.0 L303.9,420.0 L305.5,420.0 L307.1,420.0 L308.6,420.0 L310.2,420.0 L311.8,420.0 L313.3,420.0 L314.9,420.0 L316.4,420.0 L318.0,420.0 L319.6,420.0 L321.1,420.0 L322.7,420.0 L324.2,420.0 L325.8,420.0 L327.4,420.0 L328.9,420.0 L330.5,420.0 L332.0,420.0 L333.6,420.0 L335.2,420.0 L336.7,420.0 L338.3,420.0 L339.9,420.0 L341.4,420.0 L343.0,420.0 L344.5,420.0 L346.1,420.0 L347.7,420.0 L349.2,420.0 L350.8,420.0 L352.1,420.0 L353.6,420.0 L355.2,420.0 L356.8,420.0 L358.3,420.0 L359.9,420.0 L361.5,420.0 L363.0,420.0 L364.6,420.0 L366.1,420.0 L367.7,420.0 L369.3,420.0 L370.8,420.0 L372.4,420.0 L373.9,420.0 L375.5,420.0 L377.1,420.0 L378.6,420.0 L380.2,420.0 L381.8,420.0 L383.3,420.0 L384.9,420.0 L386.4,420.0 L388.0,420.0 L389.6,420.0 L391.1,420.0 L392.7,420.0 L394.2,420.0 L395.8,420.0 L397.4,420.0 L398.9,420.0 L400.5,420.0 L402.1,420.0 L403.6,420.0 L405.2,420.0 L406.7,420.0 L408.3,420.0 L409.9,420.0 L411.4,420.0 L413.0,420.0 L414.5,420.0 L416.1,420.0 L417.7,420.0 L419.2,420.0 L420.8,420.0 L422.4,420.0 L423.9,420.0 L425.5,420.0 L427.0,420.0 L428.6,420.0 L430.2,420.0 L431.7,420.0 L433.3,420.0 L434.8,420.0 L436.4,420.0 L438.0,420.0 L439.5,420.0 L441.1,420.0 L442.7,420.0 L444.2,420.0 L445.8,420.0 L447.3,420.0 L448.9,420.0 L450.5,420.0 L452.0,420.0 L453.6,420.0 L455.1,420.0 L456.7,420.0 L458.3,420.0 L459.8,420.0 L461.4,420.0 L463.0,420.0 L464.5,420.0 L466.1,420.0 L467.6,420.0 L469.2,420.0 L470.8,420.0 L472.3,420.0 L473.9,420.0 L475.4,420.0 L477.0,420.0 L478.6,420.0 L480.1,420.0 L481.7,420.0 L483.3,420.0 L484.8,420.0 L486.4,420.0 L487.9,420.0 L489.5,420.0 L491.1,420.0 L492.6,420.0 L494.2,420.0 L495.7,420.0 L497.3,420.0 L498.9,420.0 L500.4,420.0 L502.0,420.0 L503.6,420.0 L505.1,420.0 L506.7,420.0 L508.2,420.0 L509.8,420.0 L511.4,420.0 L512.9,420.0 L514.5,420.0 L516.0,420.0 L517.6,420.0 L519.2,420.0 L520.7,420.0 L522.3,420.0 L523.9,420.0 L525.4,420.0 L527.0,420.0 L528.5,420.0 L530.1,420.0 L531.7,420.0 L533.2,420.0 L534.8,420.0 L536.3,420.0 L537.9,420.0 L539.5,420.0 L541.0,420.0 L542.6,420.0 L544.2,420.0 L545.7,420.0 L547.3,420.0 L548.8,420.0 L550.4,420.0 L552.0,420.0 L553.5,420.0 L555.1,420.0 L556.6,420.0 L558.2,420.0 L559.8,420.0 L561.3,420.0 L562.9,420.0 L564.5,420.0 L566.0,420.0 L567.6,420.0 L569.1,420.0 L570.7,420.0 L572.3,420.0 L573.8,420.0 L575.4,420.0 L576.9,420.0 L578.5,420.0 L580.1,420.0 L581.6,420.0 L583.2,420.0 L584.7,420.0 L586.3,420.0 L587.9,420.0 L589.4,420.0 L591.0,420.0 L592.6,420.0 L594.1,420.0 L595.7,420.0 L597.2,420.0 L598.8,420.0 L600.4,420.0 L601.9,420.0 L603.5,420.0 L605.0,420.0 L606.6,420.0 L608.2,420.0 L609.7,420.0 L611.3,420.0 L612.9,420.0 L614.4,420.0 L616.0,420.0 L617.5,420.0 L619.1,420.0 L620.7,420.0 L622.2,420.0 L623.8,420.0 L625.3,420.0 L626.9,420.0 L628.5,420.0 L630.0,420.0 L631.6,420.0 L633.2,420.0 L634.7,420.0 L636.3,420.0 L637.8,420.0 L639.4,420.0 L641.0,420.0 L642.5,420.0 L644.1,420.0 L645.6,420.0 L647.2,420.0 L648.8,420.0 L650.3,420.0 L651.9,420.0 L653.5,420.0 L655.0,420.0 L656.6,420.0 L658.1,420.0 L659.7,420.0 L661.3,420.0 L662.8,420.0 L664.4,420.0 L665.9,420.0 L667.5,420.0 L669.1,420.0 L670.6,420.0 L672.2,420.0 L673.8,420.0 L675.3,420.0 L676.9,420.0 L678.4,420.0 L680.0,420.0" stroke="#e377c2" stroke-width="2" fill="none" opacity="0.8"/>

<!-- Legend -->
<line x1="690" y1="70" x2="705" y2="70" stroke="#1f77b4" stroke-width="3"/>
<text x="710" y="74" class="legend">Wind Generation</text>
<line x1="690" y1="88" x2="705" y2="88" stroke="#ff7f0e" stroke-width="3"/>
<text x="710" y="92" class="legend">Hydro Generation</text>
<line x1="690" y1="106" x2="705" y2="106" stroke="#2ca02c" stroke-width="3"/>
<text x="710" y="110" class="legend">Thermal Generation</text>
<line x1="690" y1="124" x2="705" y2="124" stroke="#d62728" stroke-width="3"/>
<text x="710" y="128" class="legend">Solar Generation</text>
<line x1="690" y1="142" x2="705" y2="142" stroke="#9467bd" stroke-width="3"/>
<text x="710" y="146" class="legend">Forecast</text>
<line x1="690" y1="160" x2="705" y2="160" stroke="#8c564b" stroke-width="3"/>
<text x="710" y="164" class="legend">Total Generation</text>
<line x1="690" y1="178" x2="705" y2="178" stroke="#e377c2" stroke-width="3"/>
<text x="710" y="182" class="legend">Forecast Difference</text>

<!-- Date range -->
<text x="80" y="495" class="legend">Range: 08/18 - 09/03/2025 (370 records)</text>
</svg>