<?xml version="1.0" encoding="UTF-8"?>
<svg width="800" height="500" xmlns="http://www.w3.org/2000/svg">
<style>
.axis-line { stroke: #333; stroke-width: 1; }
.grid-line { stroke: #ddd; stroke-width: 0.5; }
.title { font: 16px Arial; text-anchor: middle; fill: #333; }
.axis-label { font: 12px Arial; text-anchor: middle; fill: #666; }
.legend { font: 10px Arial; fill: #333; }
</style>

<!-- Title -->
<text x="400.0" y="25" class="title">Northwestern Energy Generation Data - Past 30 Days</text>

<!-- Plot area background -->
<rect x="80" y="50" width="600" height="370" fill="white" stroke="#ddd"/>

<!-- Y-axis -->
<line x1="80" y1="50" x2="80" y2="420" class="axis-line"/>
<text x="30" y="235.0" class="axis-label" transform="rotate(-90, 30, 235.0)">Generation (MW)</text>

<!-- X-axis -->
<line x1="80" y1="420" x2="680" y2="420" class="axis-line"/>
<text x="380.0" y="480" class="axis-label">Time</text>
<line x1="80" y1="420.0" x2="680" y2="420.0" class="grid-line"/>
<text x="70" y="425.0" class="legend" text-anchor="end">0</text>
<line x1="80" y1="327.5" x2="680" y2="327.5" class="grid-line"/>
<text x="70" y="332.5" class="legend" text-anchor="end">345</text>
<line x1="80" y1="235.0" x2="680" y2="235.0" class="grid-line"/>
<text x="70" y="240.0" class="legend" text-anchor="end">690</text>
<line x1="80" y1="142.5" x2="680" y2="142.5" class="grid-line"/>
<text x="70" y="147.5" class="legend" text-anchor="end">1035</text>
<line x1="80" y1="50.0" x2="680" y2="50.0" class="grid-line"/>
<text x="70" y="55.0" class="legend" text-anchor="end">1380</text>
<!-- Wind Generation -->
<path d="M80.0,325.1 L80.8,327.5 L81.7,335.0 L82.5,329.4 L83.4,333.6 L84.2,339.0 L85.0,328.6 L85.9,329.1 L86.7,361.8 L87.6,398.8 L88.4,392.6 L89.3,388.4 L90.1,383.3 L90.9,385.9 L91.8,382.2 L92.6,342.5 L93.5,345.2 L94.3,352.7 L95.1,366.9 L96.0,358.9 L96.8,360.5 L97.7,342.0 L98.5,331.5 L99.4,343.3 L100.2,362.1 L101.0,349.7 L101.9,324.5 L102.7,318.6 L103.6,319.2 L104.4,323.7 L105.2,324.3 L106.1,334.5 L106.9,335.8 L107.8,332.0 L108.6,331.0 L109.5,330.4 L110.3,330.4 L111.1,329.9 L112.0,334.2 L112.8,315.1 L113.7,311.4 L114.5,311.4 L115.3,311.1 L116.2,313.3 L117.0,312.5 L117.9,311.7 L118.7,325.1 L119.6,325.3 L120.4,315.9 L121.2,319.7 L122.1,318.6 L122.9,320.8 L123.8,330.7 L124.6,336.6 L125.4,364.0 L126.3,367.7 L127.1,371.2 L128.0,365.3 L128.8,363.1 L129.6,371.5 L130.5,401.8 L131.3,395.9 L132.2,385.1 L133.0,386.5 L133.9,385.4 L134.7,387.8 L135.5,405.0 L136.4,413.8 L137.2,418.7 L138.1,420.0 L138.9,417.3 L139.7,414.1 L140.6,409.0 L141.4,410.1 L142.3,408.5 L143.1,406.6 L144.0,402.0 L144.8,404.7 L145.6,396.7 L146.5,382.2 L147.3,385.7 L148.2,357.5 L149.0,347.6 L149.8,341.7 L150.7,348.7 L151.5,345.4 L152.4,342.8 L153.2,358.9 L154.1,368.5 L154.9,379.5 L155.7,403.6 L156.6,409.0 L157.4,402.8 L158.3,395.6 L159.1,389.7 L159.9,392.1 L160.8,399.6 L161.6,395.1 L162.5,398.5 L163.3,399.9 L164.2,399.1 L165.0,399.1 L165.8,400.2 L166.7,397.7 L167.5,403.9 L168.4,403.6 L169.2,401.5 L170.0,398.0 L170.9,380.8 L171.7,377.1 L172.6,365.8 L173.4,373.6 L174.2,379.2 L175.1,361.3 L175.9,360.2 L176.8,358.9 L177.6,350.8 L178.5,351.3 L179.3,372.3 L180.1,364.8 L181.0,374.4 L181.8,376.6 L182.7,393.2 L183.5,382.5 L184.3,379.0 L185.2,366.1 L186.0,356.7 L186.9,376.3 L187.7,365.8 L188.6,346.5 L189.4,364.8 L190.2,367.7 L191.1,362.6 L191.9,341.4 L192.8,363.4 L193.6,363.4 L194.4,370.1 L195.3,397.7 L196.1,386.5 L197.0,387.8 L197.8,391.8 L198.7,393.5 L199.5,371.2 L200.3,357.2 L201.2,329.9 L202.0,321.6 L202.9,323.5 L203.7,347.9 L204.5,335.3 L205.4,342.2 L206.2,353.8 L207.1,373.1 L207.9,369.3 L208.8,392.6 L209.6,399.9 L210.4,399.9 L211.3,399.9 L212.1,402.0 L213.0,399.1 L213.8,399.4 L214.6,398.3 L215.5,393.2 L216.3,396.4 L217.2,395.9 L218.0,393.5 L218.8,395.1 L219.7,387.8 L220.5,381.4 L221.4,380.8 L222.2,370.9 L223.1,372.3 L223.9,374.7 L224.7,370.9 L225.6,364.5 L226.4,378.4 L227.3,378.4 L228.1,381.4 L228.9,373.6 L229.8,361.8 L230.6,369.3 L231.5,351.9 L232.3,373.3 L233.2,380.3 L234.0,366.4 L234.8,345.7 L235.7,362.3 L236.5,379.5 L237.4,370.4 L238.2,379.0 L239.0,370.4 L239.9,366.6 L240.7,361.5 L241.6,361.3 L242.4,379.5 L243.3,391.3 L244.1,388.9 L244.9,390.8 L245.8,389.7 L246.6,400.4 L247.5,405.8 L248.3,410.6 L249.1,405.5 L250.0,397.2 L250.8,399.6 L251.7,387.0 L252.5,367.4 L253.4,356.2 L254.2,352.7 L255.0,309.0 L255.9,314.1 L256.7,318.4 L257.6,310.9 L258.4,315.9 L259.2,310.0 L260.1,311.1 L260.9,305.8 L261.8,308.4 L262.6,310.9 L263.5,312.5 L264.3,315.4 L265.1,310.9 L266.0,311.7 L266.8,309.8 L267.7,358.9 L268.5,365.3 L269.3,368.0 L270.2,372.8 L271.0,368.0 L271.9,363.4 L272.7,362.3 L273.5,362.3 L274.4,363.4 L275.2,319.2 L276.1,315.7 L276.9,309.5 L277.8,311.1 L278.6,313.0 L279.4,317.6 L280.3,317.6 L281.1,324.5 L282.0,317.6 L283.6,326.1 L284.5,340.4 L285.3,338.7 L286.2,348.4 L287.0,338.5 L287.9,332.0 L288.7,382.7 L289.5,395.6 L290.4,395.1 L291.2,401.0 L292.1,402.8 L292.9,408.7 L293.7,407.7 L294.6,398.0 L295.4,385.4 L296.3,346.8 L297.1,328.0 L298.0,318.6 L298.8,325.1 L299.6,340.6 L300.5,348.4 L301.3,359.7 L302.2,366.1 L303.0,372.5 L303.8,378.4 L304.7,391.8 L305.5,398.3 L306.4,409.0 L307.2,417.9 L308.1,419.5 L308.9,420.0 L309.7,416.5 L310.6,404.4 L311.4,399.1 L312.3,393.5 L313.1,388.4 L313.9,377.1 L314.8,392.1 L315.6,388.4 L316.5,379.5 L317.3,387.6 L318.1,398.0 L319.0,400.4 L319.8,404.4 L320.7,412.2 L321.5,415.2 L322.4,415.7 L323.2,415.7 L324.0,414.1 L324.9,414.6 L325.7,410.9 L326.6,406.1 L327.4,393.2 L328.2,394.0 L329.1,386.5 L329.9,391.3 L330.8,373.3 L331.6,366.9 L332.5,362.9 L333.3,353.0 L334.1,364.8 L335.0,381.7 L335.8,347.9 L336.7,359.4 L337.5,366.6 L338.3,353.5 L339.2,379.0 L340.0,383.0 L340.9,372.5 L341.7,354.0 L342.6,337.9 L343.4,358.6 L344.2,337.9 L345.1,351.9 L345.9,364.0 L346.8,361.5 L347.6,355.1 L348.4,331.0 L349.3,326.1 L350.1,341.7 L351.0,310.6 L351.8,312.5 L352.7,309.0 L353.5,330.4 L354.3,348.1 L355.2,330.4 L356.0,342.2 L356.9,384.6 L357.7,384.3 L358.5,325.1 L359.4,314.1 L360.2,305.0 L361.1,308.4 L361.9,314.1 L362.7,321.8 L363.6,344.6 L364.4,353.2 L365.3,385.4 L366.1,401.2 L367.0,405.0 L367.8,396.1 L368.6,397.5 L369.5,405.5 L370.3,400.7 L371.2,408.7 L372.0,409.8 L372.8,400.7 L373.7,391.6 L374.5,388.9 L375.4,376.6 L376.2,373.9 L377.1,350.0 L377.9,356.2 L378.7,357.0 L379.6,366.9 L380.4,388.9 L381.3,402.0 L382.1,403.9 L382.9,408.7 L383.8,403.6 L384.6,401.5 L385.5,407.9 L386.3,412.0 L387.2,414.1 L388.0,413.3 L388.8,416.0 L389.7,417.9 L390.5,418.7 L391.4,418.9 L392.2,414.9 L393.0,412.2 L393.9,406.9 L394.7,410.1 L395.6,405.3 L396.4,406.3 L397.3,406.6 L398.1,406.9 L398.9,407.1 L399.8,406.3 L400.6,401.0 L401.5,403.4 L402.3,402.3 L403.1,403.1 L404.0,406.1 L404.8,410.1 L405.7,410.6 L406.5,416.2 L407.3,420.0 L408.2,420.0 L409.0,420.0 L409.9,418.4 L410.7,408.7 L411.6,398.5 L412.4,394.0 L413.2,370.1 L414.1,358.3 L414.9,356.7 L415.8,357.8 L416.6,356.7 L417.4,318.1 L418.3,312.7 L419.1,331.0 L420.0,327.5 L420.8,331.8 L421.7,347.3 L422.5,350.3 L423.3,358.9 L424.2,361.8 L425.0,379.8 L425.9,384.3 L426.7,399.6 L427.5,409.0 L428.4,412.2 L429.2,413.3 L430.1,411.7 L430.9,413.6 L431.8,411.7 L432.6,406.3 L433.4,400.7 L434.3,400.4 L435.1,403.1 L436.0,405.5 L436.8,405.5 L437.6,402.3 L438.5,401.8 L439.3,405.5 L440.2,408.2 L441.0,405.8 L441.9,403.1 L442.7,405.0 L443.5,404.2 L444.4,394.3 L445.2,382.2 L446.1,356.7 L446.9,331.0 L447.7,323.2 L448.6,319.2 L449.4,317.6 L450.3,315.1 L451.1,312.2 L451.9,312.2 L452.8,314.6 L453.6,313.8 L454.5,313.5 L455.3,307.9 L456.2,323.5 L457.0,310.0 L457.8,310.9 L458.7,308.7 L459.5,313.3 L460.4,328.3 L461.2,337.4 L462.0,354.0 L462.9,379.2 L463.7,373.6 L464.6,379.0 L465.4,378.2 L466.3,351.3 L467.1,357.5 L467.9,348.1 L468.8,371.5 L469.6,343.3 L470.5,361.0 L471.3,346.5 L472.1,387.3 L473.0,378.4 L473.8,374.7 L474.7,380.3 L475.5,380.8 L476.4,373.9 L477.2,331.0 L478.0,311.1 L478.9,321.0 L479.7,333.6 L480.6,318.6 L481.4,318.6 L482.2,309.8 L483.1,315.1 L483.9,310.9 L484.8,315.9 L485.6,335.5 L486.5,333.6 L487.3,347.1 L488.1,353.0 L489.0,335.5 L489.8,347.9 L490.7,361.3 L491.5,347.1 L492.3,330.2 L493.2,309.8 L494.0,309.5 L494.9,310.3 L495.7,318.4 L496.5,319.4 L497.4,334.5 L498.2,341.2 L499.1,343.0 L499.9,322.7 L500.8,340.4 L501.6,332.8 L502.4,328.3 L503.3,351.3 L504.1,336.6 L505.0,337.1 L505.8,330.2 L506.6,328.3 L507.5,348.1 L508.3,338.5 L509.2,330.2 L510.0,328.3 L510.9,360.5 L511.7,343.6 L512.5,350.0 L513.4,335.0 L514.2,324.3 L515.1,326.1 L515.9,321.6 L516.7,330.4 L517.6,327.7 L518.4,331.5 L519.3,343.3 L520.1,345.7 L521.0,351.3 L521.8,344.9 L522.6,353.2 L523.5,335.8 L524.3,325.6 L525.2,319.2 L526.0,326.9 L526.8,341.2 L527.7,372.5 L528.5,345.4 L529.4,336.1 L530.2,337.4 L531.1,353.2 L531.9,324.3 L532.7,326.4 L533.6,317.0 L534.4,323.5 L535.3,322.7 L536.1,321.8 L536.9,317.3 L537.8,317.3 L538.6,321.8 L539.5,335.8 L540.3,362.9 L541.2,350.3 L542.0,344.9 L542.8,354.0 L543.7,347.3 L544.5,345.2 L545.4,356.2 L546.2,365.0 L547.0,383.0 L547.9,397.7 L548.7,394.8 L549.6,399.6 L550.4,402.0 L551.2,401.5 L552.1,388.6 L552.9,393.2 L553.8,388.1 L554.6,354.8 L555.5,362.3 L556.3,340.1 L557.1,355.9 L558.0,362.6 L558.8,366.9 L559.7,364.5 L560.5,371.7 L561.3,377.1 L562.2,380.6 L563.0,396.7 L563.9,411.4 L564.7,413.0 L565.6,410.6 L566.4,404.4 L567.2,395.9 L568.1,391.6 L568.9,365.8 L569.8,353.2 L570.6,373.9 L571.4,367.2 L572.3,345.2 L573.1,331.5 L574.0,336.3 L574.8,325.3 L575.7,323.7 L576.5,328.6 L577.3,329.1 L578.2,346.0 L579.0,366.6 L579.9,373.1 L580.7,395.6 L581.5,394.0 L582.4,396.7 L583.2,394.0 L584.1,391.6 L584.9,393.5 L585.8,387.0 L586.6,387.6 L587.4,401.5 L588.3,401.2 L589.1,405.8 L590.0,412.2 L590.8,416.8 L591.6,418.1 L592.5,419.2 L593.3,419.5 L594.2,416.5 L595.0,417.6 L595.8,416.0 L596.7,412.8 L597.5,411.2 L598.4,404.4 L599.2,394.5 L600.1,378.2 L600.9,369.0 L601.7,375.8 L602.6,383.5 L603.4,409.3 L604.3,418.4 L605.1,419.5 L605.9,418.1 L606.8,412.0 L607.6,406.9 L608.5,407.1 L609.3,401.2 L610.2,371.5 L611.0,377.4 L611.8,387.0 L612.7,379.0 L613.5,375.5 L614.4,337.4 L615.2,348.7 L616.0,329.1 L616.9,350.5 L617.7,315.9 L618.6,329.1 L619.4,351.1 L620.3,369.0 L621.1,375.8 L621.9,376.0 L622.8,360.7 L623.6,336.9 L624.5,337.7 L625.3,318.9 L626.1,345.4 L627.0,348.7 L627.8,367.2 L628.7,355.4 L629.5,347.9 L630.4,338.5 L631.2,369.9 L632.0,351.1 L632.9,344.9 L633.7,361.5 L634.6,362.6 L635.4,360.2 L636.2,359.4 L637.1,358.1 L637.9,364.5 L638.8,364.5 L639.6,342.0 L640.4,339.0 L641.3,338.7 L642.1,341.4 L643.0,344.1 L643.8,349.2 L644.7,355.4 L645.5,384.1 L646.3,395.3 L647.2,410.6 L648.0,413.8 L648.9,414.1 L649.7,414.6 L650.5,390.8 L651.4,391.3 L652.2,387.0 L653.1,385.7 L653.9,376.3 L654.8,359.7 L655.6,355.1 L656.4,363.7 L657.3,363.1 L658.1,338.2 L659.0,346.0 L659.8,350.5 L660.6,362.6 L661.5,368.8 L662.3,376.0 L663.2,401.2 L664.0,399.1 L664.9,408.7 L665.7,406.1 L666.5,410.6 L667.4,414.9 L668.2,416.8 L669.1,418.1 L669.9,416.5 L670.7,415.4 L671.6,416.5 L672.4,414.6 L673.3,409.8 L674.1,403.9 L675.0,396.4 L675.8,401.5 L676.6,399.1 L677.5,396.1 L678.3,384.3 L679.2,380.3 L680.0,391.3" stroke="#1f77b4" stroke-width="2" fill="none" opacity="0.8"/>
<!-- Hydro Generation -->
<path d="M80.0,335.5 L80.8,335.5 L81.7,336.3 L82.5,337.4 L83.4,337.7 L84.2,337.9 L85.0,337.7 L85.9,338.5 L86.7,338.5 L87.6,338.5 L88.4,338.7 L89.3,339.8 L90.1,340.9 L90.9,342.0 L91.8,339.3 L92.6,340.1 L93.5,340.6 L94.3,340.4 L95.1,340.1 L96.0,340.9 L96.8,340.6 L97.7,340.6 L98.5,340.6 L99.4,340.9 L100.2,340.4 L101.0,340.1 L101.9,339.3 L102.7,339.5 L103.6,339.5 L104.4,339.3 L105.2,340.1 L106.1,340.1 L106.9,340.4 L107.8,341.4 L108.6,343.6 L109.5,343.0 L110.3,344.6 L111.1,344.9 L112.0,347.3 L112.8,347.6 L113.7,347.1 L114.5,347.3 L115.3,348.4 L116.2,348.7 L117.0,348.7 L117.9,349.5 L118.7,350.3 L119.6,349.2 L120.4,349.2 L121.2,349.2 L122.1,349.5 L122.9,349.5 L123.8,350.5 L124.6,351.6 L125.4,353.0 L126.3,352.7 L127.1,352.4 L128.0,353.0 L128.8,352.7 L129.6,352.7 L130.5,353.2 L131.3,352.7 L132.2,352.4 L133.0,352.7 L133.9,352.7 L134.7,353.0 L135.5,352.7 L136.4,353.2 L137.2,353.2 L138.1,353.0 L138.9,353.0 L139.7,352.7 L140.6,352.7 L141.4,353.0 L142.3,353.0 L143.1,353.0 L144.0,353.2 L144.8,353.5 L145.6,354.3 L146.5,353.8 L147.3,354.3 L148.2,354.0 L149.0,353.8 L149.8,353.8 L150.7,353.5 L151.5,353.5 L152.4,353.8 L153.2,353.8 L154.1,354.0 L154.9,353.8 L155.7,353.8 L156.6,353.8 L157.4,353.8 L158.3,354.0 L159.1,354.0 L159.9,353.2 L160.8,353.8 L161.6,353.2 L162.5,353.2 L163.3,353.2 L164.2,352.4 L165.0,352.7 L165.8,352.7 L166.7,352.7 L167.5,352.2 L168.4,352.4 L169.2,352.2 L170.0,353.2 L170.9,354.0 L171.7,353.0 L172.6,353.0 L173.4,353.5 L174.2,354.3 L175.1,355.1 L175.9,355.6 L176.8,355.6 L177.6,355.6 L178.5,355.6 L179.3,354.6 L180.1,354.3 L181.0,354.3 L181.8,353.5 L182.7,353.2 L183.5,353.0 L184.3,352.7 L185.2,353.0 L186.0,351.9 L186.9,351.9 L187.7,351.9 L188.6,351.9 L189.4,351.9 L190.2,351.6 L191.1,351.6 L191.9,351.1 L192.8,351.1 L193.6,351.3 L194.4,351.3 L195.3,350.5 L196.1,351.1 L197.0,351.1 L197.8,350.8 L198.7,350.8 L199.5,350.8 L200.3,351.9 L201.2,352.2 L202.0,351.9 L202.9,351.6 L203.7,351.6 L204.5,351.6 L205.4,351.6 L206.2,351.6 L207.1,351.6 L207.9,351.1 L208.8,350.8 L209.6,351.1 L210.4,351.6 L211.3,353.2 L212.1,350.0 L213.0,349.7 L213.8,349.7 L214.6,349.7 L215.5,349.7 L216.3,349.7 L217.2,351.1 L218.0,350.8 L218.8,350.5 L219.7,350.8 L220.5,351.6 L221.4,352.2 L222.2,351.6 L223.1,351.9 L223.9,351.6 L224.7,351.6 L225.6,351.3 L226.4,351.1 L227.3,350.5 L228.1,349.2 L228.9,350.5 L229.8,350.3 L230.6,349.7 L231.5,349.2 L232.3,348.9 L233.2,350.0 L234.0,350.8 L234.8,350.0 L235.7,350.0 L236.5,350.8 L237.4,351.1 L238.2,350.8 L239.0,351.1 L239.9,351.1 L240.7,351.9 L241.6,351.1 L242.4,351.3 L243.3,350.5 L244.1,350.0 L244.9,350.0 L245.8,350.0 L246.6,350.5 L247.5,351.1 L248.3,350.5 L249.1,351.1 L250.0,354.3 L250.8,354.3 L251.7,355.4 L252.5,357.0 L253.4,355.4 L254.2,355.1 L255.0,355.6 L255.9,355.9 L256.7,354.6 L257.6,354.6 L258.4,355.1 L259.2,354.8 L260.1,354.3 L260.9,354.6 L261.8,354.6 L262.6,354.6 L263.5,354.8 L264.3,354.8 L265.1,354.8 L266.0,355.1 L266.8,354.8 L267.7,354.8 L268.5,355.9 L269.3,355.1 L270.2,355.6 L271.0,354.3 L271.9,354.8 L272.7,355.1 L273.5,354.8 L274.4,355.1 L275.2,355.1 L276.1,354.8 L276.9,354.8 L277.8,355.4 L278.6,355.1 L279.4,354.8 L280.3,355.1 L281.1,354.8 L282.0,354.3 L283.6,354.8 L284.5,355.1 L285.3,355.1 L286.2,354.8 L287.0,354.8 L287.9,354.8 L288.7,355.4 L289.5,354.6 L290.4,354.8 L291.2,354.8 L292.1,355.1 L292.9,354.6 L293.7,355.4 L294.6,355.1 L295.4,354.3 L296.3,355.1 L297.1,355.6 L298.0,357.5 L298.8,358.1 L299.6,355.9 L300.5,356.4 L301.3,356.4 L302.2,355.4 L303.0,354.3 L303.8,353.8 L304.7,353.0 L305.5,352.7 L306.4,352.4 L307.2,353.0 L308.1,353.2 L308.9,352.7 L309.7,352.7 L310.6,353.2 L311.4,353.8 L312.3,353.8 L313.1,353.8 L313.9,353.8 L314.8,354.6 L315.6,353.8 L316.5,353.2 L317.3,353.8 L318.1,354.6 L319.0,354.3 L319.8,354.3 L320.7,354.3 L321.5,354.3 L322.4,354.3 L323.2,353.5 L324.0,353.2 L324.9,353.8 L325.7,353.5 L326.6,353.5 L327.4,355.1 L328.2,355.9 L329.1,355.9 L329.9,355.9 L330.8,355.6 L331.6,355.9 L332.5,358.3 L333.3,357.8 L334.1,358.9 L335.0,354.8 L335.8,353.8 L336.7,354.0 L337.5,353.5 L338.3,353.8 L339.2,353.5 L340.0,354.0 L340.9,354.0 L341.7,354.6 L342.6,354.0 L343.4,354.0 L344.2,353.8 L345.1,353.2 L345.9,353.5 L346.8,354.0 L347.6,354.8 L348.4,355.9 L349.3,355.6 L350.1,358.1 L351.0,355.6 L351.8,355.4 L352.7,354.8 L353.5,355.4 L354.3,355.1 L355.2,353.5 L356.0,352.7 L356.9,353.0 L357.7,353.8 L358.5,353.2 L359.4,353.8 L360.2,354.3 L361.1,354.3 L361.9,354.6 L362.7,354.6 L363.6,354.3 L364.4,360.7 L365.3,359.9 L366.1,359.7 L367.0,360.2 L367.8,360.2 L368.6,359.1 L369.5,360.5 L370.3,359.9 L371.2,360.5 L372.0,360.2 L372.8,360.5 L373.7,360.7 L374.5,361.8 L375.4,361.5 L376.2,361.3 L377.1,362.6 L377.9,362.3 L378.7,362.6 L379.6,362.9 L380.4,362.6 L381.3,362.9 L382.1,361.3 L382.9,361.5 L383.8,361.0 L384.6,360.2 L385.5,360.5 L386.3,360.5 L387.2,360.7 L388.0,361.0 L388.8,362.6 L389.7,353.8 L390.5,353.8 L391.4,354.3 L392.2,354.3 L393.0,354.0 L393.9,354.3 L394.7,354.3 L395.6,353.5 L396.4,353.8 L397.3,355.1 L398.1,352.4 L398.9,351.6 L399.8,351.9 L400.6,351.3 L401.5,351.9 L402.3,351.6 L403.1,351.6 L404.0,351.9 L404.8,351.6 L405.7,351.9 L406.5,351.9 L407.3,351.9 L408.2,355.1 L409.0,354.6 L409.9,360.5 L410.7,361.0 L411.6,360.7 L412.4,360.2 L413.2,360.5 L414.1,358.1 L414.9,357.2 L415.8,356.7 L416.6,357.5 L417.4,357.8 L418.3,358.1 L419.1,357.8 L420.0,357.0 L420.8,357.2 L421.7,357.0 L422.5,357.5 L423.3,357.5 L424.2,357.8 L425.0,357.5 L425.9,358.9 L426.7,359.7 L427.5,359.4 L428.4,354.3 L429.2,354.8 L430.1,354.8 L430.9,354.0 L431.8,354.0 L432.6,354.3 L433.4,352.7 L434.3,352.4 L435.1,352.4 L436.0,352.4 L436.8,351.9 L437.6,351.1 L438.5,351.1 L439.3,351.1 L440.2,351.1 L441.0,350.8 L441.9,351.1 L442.7,350.5 L443.5,350.3 L444.4,350.5 L445.2,350.5 L446.1,350.5 L446.9,350.3 L447.7,350.3 L448.6,349.7 L449.4,349.7 L450.3,349.5 L451.1,349.2 L451.9,349.2 L452.8,349.2 L453.6,348.7 L454.5,348.9 L455.3,348.1 L456.2,347.9 L457.0,346.5 L457.8,346.3 L458.7,346.5 L459.5,346.3 L460.4,346.3 L461.2,345.4 L462.0,345.4 L462.9,344.6 L463.7,344.4 L464.6,345.2 L465.4,344.9 L466.3,344.4 L467.1,344.1 L467.9,344.4 L468.8,345.2 L469.6,345.4 L470.5,345.4 L471.3,345.2 L472.1,345.7 L473.0,346.8 L473.8,347.1 L474.7,347.3 L475.5,360.2 L476.4,346.8 L477.2,346.8 L478.0,347.1 L478.9,346.5 L479.7,346.5 L480.6,346.8 L481.4,346.8 L482.2,346.3 L483.1,347.6 L483.9,347.6 L484.8,347.3 L485.6,347.1 L486.5,347.1 L487.3,347.1 L488.1,347.6 L489.0,346.8 L489.8,346.3 L490.7,347.1 L491.5,347.9 L492.3,347.1 L493.2,347.3 L494.0,347.9 L494.9,347.1 L495.7,346.0 L496.5,344.9 L497.4,345.2 L498.2,345.7 L499.1,345.7 L499.9,345.7 L500.8,345.2 L501.6,345.4 L502.4,345.4 L503.3,346.5 L504.1,346.5 L505.0,346.0 L505.8,346.5 L506.6,346.5 L507.5,346.3 L508.3,346.8 L509.2,346.8 L510.0,346.5 L510.9,347.6 L511.7,347.9 L512.5,347.3 L513.4,347.3 L514.2,347.9 L515.1,347.1 L515.9,347.3 L516.7,346.0 L517.6,346.0 L518.4,346.0 L519.3,346.3 L520.1,346.3 L521.0,346.5 L521.8,346.0 L522.6,346.3 L523.5,346.3 L524.3,345.2 L525.2,345.4 L526.0,345.4 L526.8,346.0 L527.7,346.0 L528.5,345.7 L529.4,346.3 L530.2,346.5 L531.1,346.3 L531.9,346.0 L532.7,345.7 L533.6,346.0 L534.4,346.0 L535.3,345.7 L536.1,344.1 L536.9,342.8 L537.8,342.8 L538.6,343.0 L539.5,343.0 L540.3,343.3 L541.2,344.1 L542.0,343.8 L542.8,344.1 L543.7,344.1 L544.5,344.1 L545.4,345.4 L546.2,344.4 L547.0,345.7 L547.9,345.7 L548.7,345.7 L549.6,345.7 L550.4,345.7 L551.2,346.5 L552.1,346.3 L552.9,346.3 L553.8,346.5 L554.6,345.7 L555.5,345.2 L556.3,345.4 L557.1,344.1 L558.0,344.1 L558.8,344.1 L559.7,344.4 L560.5,344.1 L561.3,344.4 L562.2,344.1 L563.0,344.4 L563.9,344.4 L564.7,344.9 L565.6,345.2 L566.4,345.4 L567.2,345.4 L568.1,346.0 L568.9,345.7 L569.8,345.7 L570.6,345.7 L571.4,346.3 L572.3,346.5 L573.1,346.3 L574.0,346.0 L574.8,346.0 L575.7,346.0 L576.5,345.7 L577.3,345.7 L578.2,346.0 L579.0,346.3 L579.9,346.3 L580.7,346.3 L581.5,345.7 L582.4,344.9 L583.2,344.9 L584.1,344.1 L584.9,343.8 L585.8,344.1 L586.6,344.1 L587.4,344.1 L588.3,343.6 L589.1,343.6 L590.0,343.6 L590.8,344.6 L591.6,344.6 L592.5,343.8 L593.3,342.5 L594.2,342.5 L595.0,342.2 L595.8,342.2 L596.7,340.9 L597.5,341.2 L598.4,341.2 L599.2,341.2 L600.1,341.4 L600.9,342.2 L601.7,342.5 L602.6,342.0 L603.4,342.5 L604.3,342.2 L605.1,342.2 L605.9,341.7 L606.8,342.0 L607.6,341.7 L608.5,341.7 L609.3,340.9 L610.2,341.7 L611.0,341.4 L611.8,341.4 L612.7,341.2 L613.5,341.2 L614.4,341.7 L615.2,342.0 L616.0,342.0 L616.9,341.4 L617.7,340.6 L618.6,340.9 L619.4,340.9 L620.3,341.7 L621.1,342.0 L621.9,342.5 L622.8,342.5 L623.6,342.5 L624.5,342.2 L625.3,342.5 L626.1,342.8 L627.0,342.5 L627.8,342.5 L628.7,342.2 L629.5,342.2 L630.4,342.5 L631.2,343.0 L632.0,342.8 L632.9,343.6 L633.7,343.6 L634.6,342.8 L635.4,342.8 L636.2,343.0 L637.1,343.3 L637.9,342.8 L638.8,343.3 L639.6,343.6 L640.4,344.6 L641.3,344.6 L642.1,344.6 L643.0,345.2 L643.8,345.4 L644.7,345.4 L645.5,345.4 L646.3,345.7 L647.2,345.2 L648.0,346.0 L648.9,345.7 L649.7,345.2 L650.5,345.2 L651.4,345.2 L652.2,344.4 L653.1,344.6 L653.9,344.9 L654.8,344.6 L655.6,344.1 L656.4,342.5 L657.3,342.5 L658.1,343.0 L659.0,343.6 L659.8,343.3 L660.6,343.0 L661.5,343.0 L662.3,342.8 L663.2,342.5 L664.0,342.8 L664.9,342.8 L665.7,342.8 L666.5,342.0 L667.4,342.0 L668.2,342.0 L669.1,342.0 L669.9,341.7 L670.7,341.7 L671.6,341.7 L672.4,342.0 L673.3,341.7 L674.1,341.4 L675.0,342.0 L675.8,342.2 L676.6,341.2 L677.5,340.4 L678.3,340.6 L679.2,340.4 L680.0,339.5" stroke="#ff7f0e" stroke-width="2" fill="none" opacity="0.8"/>
<!-- Thermal Generation -->
<path d="M80.0,362.1 L80.8,361.5 L81.7,361.5 L82.5,340.4 L83.4,329.6 L84.2,312.2 L85.0,327.7 L85.9,347.6 L86.7,351.6 L87.6,337.9 L88.4,338.2 L89.3,338.5 L90.1,323.5 L90.9,323.5 L91.8,333.1 L92.6,332.8 L93.5,296.6 L94.3,288.3 L95.1,278.9 L96.0,282.4 L96.8,299.9 L97.7,362.1 L98.5,361.8 L99.4,361.8 L100.2,361.8 L101.0,361.8 L101.9,361.0 L102.7,361.5 L103.6,361.8 L104.4,361.5 L105.2,362.6 L106.1,362.1 L106.9,361.8 L107.8,361.8 L108.6,362.1 L109.5,362.3 L110.3,362.3 L111.1,362.1 L112.0,362.3 L112.8,361.5 L113.7,352.2 L114.5,335.0 L115.3,346.0 L116.2,354.0 L117.0,354.0 L117.9,362.1 L118.7,361.8 L119.6,362.1 L120.4,362.1 L121.2,362.3 L122.1,361.8 L122.9,362.1 L123.8,362.1 L124.6,355.1 L125.4,342.5 L126.3,353.0 L127.1,340.4 L128.0,362.1 L128.8,350.5 L129.6,361.8 L130.5,361.8 L131.3,351.1 L132.2,313.8 L133.0,301.7 L133.9,252.7 L134.7,236.8 L135.5,236.8 L136.4,237.1 L137.2,239.5 L138.1,236.8 L138.9,236.0 L139.7,237.4 L140.6,236.6 L141.4,259.1 L142.3,281.9 L143.1,281.6 L144.0,256.4 L144.8,243.5 L145.6,281.6 L146.5,281.9 L147.3,297.2 L148.2,329.4 L149.0,345.7 L149.8,361.8 L150.7,361.8 L151.5,361.8 L152.4,361.5 L153.2,361.5 L154.1,280.8 L154.9,251.6 L155.7,243.5 L156.6,244.9 L157.4,239.3 L158.3,246.8 L159.1,274.4 L159.9,282.2 L160.8,298.5 L161.6,292.9 L162.5,287.0 L163.3,289.1 L164.2,267.7 L165.0,263.7 L165.8,243.3 L166.7,270.6 L167.5,292.1 L168.4,281.9 L169.2,309.0 L170.0,321.8 L170.9,322.7 L171.7,321.6 L172.6,322.1 L173.4,322.4 L174.2,276.5 L175.1,277.3 L175.9,277.1 L176.8,277.1 L177.6,276.5 L178.5,276.8 L179.3,276.8 L180.1,288.3 L181.0,314.6 L181.8,319.4 L182.7,297.4 L183.5,282.7 L184.3,268.5 L185.2,257.5 L186.0,275.5 L186.9,313.5 L187.7,319.7 L188.6,322.1 L189.4,335.3 L190.2,335.5 L191.1,335.3 L191.9,334.7 L192.8,335.0 L193.6,335.5 L194.4,283.8 L195.3,246.2 L196.1,237.4 L197.0,237.1 L197.8,248.9 L198.7,251.9 L199.5,273.8 L200.3,296.4 L201.2,340.9 L202.0,361.8 L202.9,361.8 L203.7,361.3 L204.5,313.0 L205.4,239.3 L206.2,283.5 L207.1,283.5 L207.9,326.4 L208.8,326.4 L209.6,326.9 L210.4,326.9 L211.3,327.2 L212.1,326.7 L213.0,326.9 L213.8,326.1 L214.6,316.8 L215.5,290.2 L216.3,307.6 L217.2,302.8 L218.0,302.8 L218.8,315.9 L219.7,321.0 L220.5,329.4 L221.4,340.6 L222.2,348.4 L223.1,348.1 L223.9,347.9 L224.7,304.1 L225.6,283.5 L226.4,283.8 L227.3,297.4 L228.1,285.9 L228.9,328.0 L229.8,327.5 L230.6,327.2 L231.5,337.9 L232.3,337.9 L233.2,338.7 L234.0,338.2 L234.8,338.5 L235.7,338.2 L236.5,338.2 L237.4,310.9 L238.2,289.1 L239.0,305.8 L239.9,327.5 L240.7,326.7 L241.6,326.9 L242.4,326.7 L243.3,326.9 L244.1,326.7 L244.9,327.5 L245.8,291.8 L246.6,338.2 L247.5,337.7 L248.3,338.5 L249.1,362.9 L250.0,362.3 L250.8,362.3 L251.7,362.1 L252.5,362.1 L253.4,362.3 L254.2,362.3 L255.0,362.1 L255.9,329.9 L256.7,330.7 L257.6,318.9 L258.4,302.5 L259.2,308.2 L260.1,353.8 L260.9,354.0 L261.8,358.9 L262.6,359.1 L263.5,359.4 L264.3,359.1 L265.1,359.1 L266.0,362.3 L266.8,362.9 L267.7,362.3 L268.5,362.3 L269.3,362.3 L270.2,362.1 L271.0,362.3 L271.9,362.3 L272.7,362.3 L273.5,362.3 L274.4,361.8 L275.2,361.5 L276.1,361.8 L276.9,362.1 L277.8,361.8 L278.6,362.1 L279.4,362.1 L280.3,362.1 L281.1,361.5 L282.0,347.1 L283.6,361.8 L284.5,361.8 L285.3,362.1 L286.2,362.1 L287.0,362.3 L287.9,362.1 L288.7,362.1 L289.5,362.1 L290.4,362.1 L291.2,363.1 L292.1,363.1 L292.9,363.4 L293.7,363.4 L294.6,363.1 L295.4,362.6 L296.3,362.3 L297.1,359.7 L298.0,353.5 L298.8,356.2 L299.6,362.1 L300.5,362.3 L301.3,362.1 L302.2,362.1 L303.0,356.7 L303.8,351.9 L304.7,341.2 L305.5,292.1 L306.4,257.0 L307.2,236.8 L308.1,245.7 L308.9,264.7 L309.7,265.5 L310.6,265.5 L311.4,282.2 L312.3,291.5 L313.1,291.3 L313.9,312.7 L314.8,312.7 L315.6,312.5 L316.5,303.6 L317.3,277.9 L318.1,246.2 L319.0,267.4 L319.8,276.5 L320.7,280.5 L321.5,281.6 L322.4,311.1 L323.2,311.4 L324.0,311.1 L324.9,311.1 L325.7,294.8 L326.6,275.2 L327.4,256.1 L328.2,267.1 L329.1,282.4 L329.9,307.4 L330.8,353.8 L331.6,362.1 L332.5,361.8 L333.3,361.5 L334.1,361.5 L335.0,361.5 L335.8,361.0 L336.7,306.0 L337.5,298.0 L338.3,298.0 L339.2,298.0 L340.0,298.2 L340.9,298.0 L341.7,297.4 L342.6,308.2 L343.4,308.4 L344.2,324.5 L345.1,325.1 L345.9,324.3 L346.8,307.4 L347.6,253.2 L348.4,255.1 L349.3,310.3 L350.1,359.7 L351.0,360.5 L351.8,366.1 L352.7,370.1 L353.5,370.1 L354.3,378.7 L355.2,378.7 L356.0,378.7 L356.9,362.1 L357.7,319.7 L358.5,289.1 L359.4,288.3 L360.2,351.6 L361.1,362.3 L361.9,362.1 L362.7,362.3 L363.6,362.1 L364.4,362.3 L365.3,362.3 L366.1,362.3 L367.0,340.4 L367.8,270.1 L368.6,273.3 L369.5,346.8 L370.3,362.3 L371.2,361.8 L372.0,376.3 L372.8,378.4 L373.7,373.3 L374.5,362.9 L375.4,361.8 L376.2,361.8 L377.1,327.2 L377.9,265.3 L378.7,290.7 L379.6,306.3 L380.4,265.3 L381.3,283.8 L382.1,300.1 L382.9,310.6 L383.8,310.9 L384.6,310.3 L385.5,311.1 L386.3,282.7 L387.2,238.2 L388.0,238.7 L388.8,263.7 L389.7,272.2 L390.5,283.8 L391.4,282.2 L392.2,282.2 L393.0,317.8 L393.9,318.4 L394.7,292.1 L395.6,292.3 L396.4,254.5 L397.3,238.4 L398.1,238.2 L398.9,241.1 L399.8,250.2 L400.6,268.2 L401.5,260.7 L402.3,284.0 L403.1,283.8 L404.0,283.5 L404.8,284.0 L405.7,283.2 L406.5,283.0 L407.3,283.5 L408.2,283.8 L409.0,283.8 L409.9,310.9 L410.7,311.1 L411.6,311.1 L412.4,326.4 L413.2,353.8 L414.1,362.1 L414.9,362.3 L415.8,361.8 L416.6,361.8 L417.4,361.8 L418.3,361.5 L419.1,362.1 L420.0,376.6 L420.8,358.3 L421.7,339.5 L422.5,345.7 L423.3,334.2 L424.2,334.5 L425.0,334.5 L425.9,333.9 L426.7,299.3 L427.5,292.1 L428.4,284.0 L429.2,300.9 L430.1,310.9 L430.9,311.1 L431.8,321.6 L432.6,335.0 L433.4,335.3 L434.3,354.3 L435.1,354.6 L436.0,354.3 L436.8,354.3 L437.6,280.5 L438.5,257.5 L439.3,249.2 L440.2,249.4 L441.0,251.3 L441.9,237.6 L442.7,237.6 L443.5,237.9 L444.4,246.2 L445.2,270.9 L446.1,278.1 L446.9,276.5 L447.7,284.0 L448.6,259.9 L449.4,263.7 L450.3,268.5 L451.1,301.2 L451.9,308.4 L452.8,335.3 L453.6,357.0 L454.5,357.2 L455.3,357.0 L456.2,357.2 L457.0,344.6 L457.8,298.0 L458.7,252.4 L459.5,278.1 L460.4,297.7 L461.2,318.9 L462.0,362.3 L462.9,362.1 L463.7,353.8 L464.6,354.3 L465.4,354.0 L466.3,354.0 L467.1,354.3 L467.9,354.3 L468.8,321.8 L469.6,314.9 L470.5,331.2 L471.3,344.4 L472.1,360.5 L473.0,360.2 L473.8,352.7 L474.7,360.2 L475.5,360.7 L476.4,352.7 L477.2,342.2 L478.0,333.1 L478.9,280.8 L479.7,280.3 L480.6,279.2 L481.4,304.1 L482.2,321.8 L483.1,359.7 L483.9,359.7 L484.8,362.3 L485.6,362.1 L486.5,361.8 L487.3,361.8 L488.1,289.7 L489.0,278.4 L489.8,317.8 L490.7,327.7 L491.5,340.6 L492.3,351.6 L493.2,349.5 L494.0,360.5 L494.9,360.2 L495.7,360.5 L496.5,360.5 L497.4,360.2 L498.2,284.3 L499.1,294.8 L499.9,318.6 L500.8,327.2 L501.6,359.9 L502.4,359.7 L503.3,359.7 L504.1,359.4 L505.0,359.1 L505.8,359.4 L506.6,359.7 L507.5,359.9 L508.3,359.7 L509.2,358.6 L510.0,359.9 L510.9,359.9 L511.7,360.2 L512.5,359.7 L513.4,364.0 L514.2,364.0 L515.1,363.7 L515.9,363.1 L516.7,364.0 L517.6,363.4 L518.4,362.9 L519.3,325.3 L520.1,363.4 L521.0,362.3 L521.8,361.8 L522.6,362.3 L523.5,362.1 L524.3,361.8 L525.2,372.8 L526.0,372.8 L526.8,373.1 L527.7,362.3 L528.5,362.3 L529.4,351.1 L530.2,351.3 L531.1,361.8 L531.9,361.8 L532.7,362.6 L533.6,363.7 L534.4,364.0 L535.3,364.8 L536.1,365.3 L536.9,365.3 L537.8,365.6 L538.6,355.1 L539.5,314.3 L540.3,355.4 L541.2,362.9 L542.0,359.7 L542.8,361.8 L543.7,361.5 L544.5,361.5 L545.4,361.8 L546.2,362.1 L547.0,361.5 L547.9,362.1 L548.7,340.4 L549.6,335.0 L550.4,322.1 L551.2,350.8 L552.1,361.5 L552.9,362.1 L553.8,361.8 L554.6,361.8 L555.5,362.1 L556.3,362.1 L557.1,361.8 L558.0,361.8 L558.8,361.8 L559.7,361.5 L560.5,361.8 L561.3,362.1 L562.2,361.8 L563.0,362.1 L563.9,361.5 L564.7,361.3 L565.6,361.8 L566.4,362.1 L567.2,362.3 L568.1,362.1 L568.9,345.4 L569.8,346.0 L570.6,355.9 L571.4,362.3 L572.3,361.5 L573.1,362.1 L574.0,361.8 L574.8,362.3 L575.7,377.6 L576.5,378.2 L577.3,377.6 L578.2,361.5 L579.0,320.0 L579.9,265.8 L580.7,265.3 L581.5,265.5 L582.4,292.6 L583.2,320.0 L584.1,318.1 L584.9,344.4 L585.8,358.9 L586.6,319.2 L587.4,316.8 L588.3,298.5 L589.1,242.2 L590.0,242.5 L590.8,275.5 L591.6,286.2 L592.5,306.0 L593.3,326.4 L594.2,327.5 L595.0,340.4 L595.8,340.4 L596.7,339.0 L597.5,362.3 L598.4,362.3 L599.2,298.0 L600.1,257.0 L600.9,254.8 L601.7,283.8 L602.6,315.4 L603.4,270.1 L604.3,315.7 L605.1,351.3 L605.9,351.1 L606.8,350.0 L607.6,350.8 L608.5,340.4 L609.3,308.4 L610.2,293.2 L611.0,293.4 L611.8,319.2 L612.7,340.6 L613.5,362.6 L614.4,362.6 L615.2,362.6 L616.0,362.9 L616.9,350.5 L617.7,372.0 L618.6,362.1 L619.4,330.2 L620.3,316.5 L621.1,330.4 L621.9,351.3 L622.8,354.0 L623.6,355.6 L624.5,361.5 L625.3,361.8 L626.1,362.1 L627.0,362.1 L627.8,361.8 L628.7,346.0 L629.5,314.6 L630.4,328.3 L631.2,330.7 L632.0,362.9 L632.9,363.1 L633.7,362.9 L634.6,362.1 L635.4,362.9 L636.2,361.8 L637.1,362.3 L637.9,348.7 L638.8,368.5 L639.6,365.8 L640.4,337.7 L641.3,326.9 L642.1,341.2 L643.0,362.3 L643.8,362.3 L644.7,362.6 L645.5,361.0 L646.3,362.3 L647.2,362.1 L648.0,351.6 L648.9,319.4 L649.7,258.3 L650.5,263.9 L651.4,268.2 L652.2,280.5 L653.1,314.6 L653.9,324.5 L654.8,346.0 L655.6,362.9 L656.4,362.9 L657.3,362.6 L658.1,362.6 L659.0,362.3 L659.8,362.1 L660.6,316.8 L661.5,339.8 L662.3,296.4 L663.2,284.6 L664.0,273.6 L664.9,278.9 L665.7,329.9 L666.5,273.6 L667.4,273.6 L668.2,270.4 L669.1,267.7 L669.9,245.2 L670.7,242.7 L671.6,276.3 L672.4,294.5 L673.3,318.9 L674.1,330.2 L675.0,362.3 L675.8,362.1 L676.6,361.8 L677.5,362.3 L678.3,362.3 L679.2,362.1 L680.0,321.0" stroke="#2ca02c" stroke-width="2" fill="none" opacity="0.8"/>
<!-- Solar Generation -->
<path d="M80.0,420.0 L80.8,420.0 L81.7,420.0 L82.5,420.0 L83.4,420.0 L84.2,420.0 L85.0,417.6 L85.9,399.9 L86.7,403.4 L87.6,409.0 L88.4,406.1 L89.3,406.6 L90.1,405.3 L90.9,404.2 L91.8,404.4 L92.6,416.5 L93.5,419.2 L94.3,420.0 L95.1,420.0 L96.0,420.0 L96.8,420.0 L97.7,420.0 L98.5,420.0 L99.4,420.0 L100.2,420.0 L101.0,420.0 L101.9,420.0 L102.7,420.0 L103.6,420.0 L104.4,420.0 L105.2,413.3 L106.1,397.2 L106.9,398.0 L107.8,406.1 L108.6,405.0 L109.5,410.6 L110.3,413.3 L111.1,409.8 L112.0,414.9 L112.8,418.4 L113.7,420.0 L114.5,420.0 L115.3,420.0 L116.2,420.0 L117.0,420.0 L117.9,420.0 L118.7,420.0 L119.6,420.0 L120.4,420.0 L121.2,420.0 L122.1,420.0 L122.9,420.0 L123.8,420.0 L124.6,420.0 L125.4,415.2 L126.3,405.5 L127.1,405.3 L128.0,405.3 L128.8,406.1 L129.6,406.6 L130.5,405.3 L131.3,404.4 L132.2,404.4 L133.0,414.6 L133.9,419.7 L134.7,420.0 L135.5,420.0 L136.4,420.0 L137.2,420.0 L138.1,420.0 L138.9,420.0 L139.7,420.0 L140.6,420.0 L141.4,420.0 L142.3,420.0 L143.1,420.0 L144.0,420.0 L144.8,420.0 L145.6,416.5 L146.5,398.5 L147.3,398.8 L148.2,400.4 L149.0,401.2 L149.8,396.1 L150.7,399.4 L151.5,401.0 L152.4,407.4 L153.2,413.8 L154.1,419.2 L154.9,420.0 L155.7,420.0 L156.6,420.0 L157.4,420.0 L158.3,420.0 L159.1,420.0 L159.9,420.0 L160.8,420.0 L161.6,420.0 L162.5,420.0 L163.3,420.0 L164.2,420.0 L165.0,420.0 L165.8,417.3 L166.7,407.1 L167.5,403.6 L168.4,401.0 L169.2,397.5 L170.0,399.6 L170.9,395.1 L171.7,406.1 L172.6,406.1 L173.4,408.5 L174.2,418.1 L175.1,420.0 L175.9,420.0 L176.8,420.0 L177.6,420.0 L178.5,420.0 L179.3,420.0 L180.1,420.0 L181.0,420.0 L181.8,420.0 L182.7,420.0 L183.5,420.0 L184.3,420.0 L185.2,420.0 L186.0,410.1 L186.9,387.8 L187.7,384.3 L188.6,385.9 L189.4,387.0 L190.2,388.4 L191.1,391.8 L191.9,390.2 L192.8,393.2 L193.6,401.5 L194.4,417.3 L195.3,420.0 L196.1,420.0 L197.0,420.0 L197.8,420.0 L198.7,420.0 L199.5,420.0 L200.3,420.0 L201.2,420.0 L202.0,420.0 L202.9,420.0 L203.7,420.0 L204.5,420.0 L205.4,420.0 L206.2,417.6 L207.1,412.5 L207.9,410.6 L208.8,404.2 L209.6,404.7 L210.4,410.9 L211.3,410.1 L212.1,413.0 L213.0,413.3 L213.8,416.8 L214.6,417.9 L215.5,420.0 L216.3,420.0 L217.2,420.0 L218.0,420.0 L218.8,420.0 L219.7,420.0 L220.5,420.0 L221.4,420.0 L222.2,420.0 L223.1,420.0 L223.9,420.0 L224.7,420.0 L225.6,420.0 L226.4,418.4 L227.3,415.4 L228.1,417.1 L228.9,415.7 L229.8,411.7 L230.6,409.5 L231.5,413.8 L232.3,407.9 L233.2,416.8 L234.0,416.8 L234.8,418.4 L235.7,420.0 L236.5,420.0 L237.4,420.0 L238.2,420.0 L239.0,420.0 L239.9,420.0 L240.7,420.0 L241.6,420.0 L242.4,420.0 L243.3,420.0 L244.1,420.0 L244.9,420.0 L245.8,420.0 L246.6,411.2 L247.5,401.2 L248.3,405.8 L249.1,403.1 L250.0,403.6 L250.8,406.3 L251.7,411.2 L252.5,407.9 L253.4,412.2 L254.2,411.4 L255.0,415.4 L255.9,420.0 L256.7,420.0 L257.6,420.0 L258.4,420.0 L259.2,420.0 L260.1,420.0 L260.9,420.0 L261.8,420.0 L262.6,420.0 L263.5,420.0 L264.3,420.0 L265.1,420.0 L266.0,420.0 L266.8,411.2 L267.7,414.6 L268.5,409.3 L269.3,413.6 L270.2,412.0 L271.0,408.5 L271.9,404.4 L272.7,406.9 L273.5,410.3 L274.4,412.0 L275.2,418.4 L276.1,420.0 L276.9,420.0 L277.8,420.0 L278.6,420.0 L279.4,420.0 L280.3,420.0 L281.1,420.0 L282.0,420.0 L283.6,420.0 L284.5,420.0 L285.3,420.0 L286.2,420.0 L287.0,420.0 L287.9,410.6 L288.7,412.8 L289.5,407.1 L290.4,404.4 L291.2,406.1 L292.1,410.6 L292.9,407.7 L293.7,407.7 L294.6,414.4 L295.4,412.2 L296.3,418.4 L297.1,419.7 L298.0,420.0 L298.8,420.0 L299.6,420.0 L300.5,420.0 L301.3,420.0 L302.2,420.0 L303.0,420.0 L303.8,420.0 L304.7,420.0 L305.5,420.0 L306.4,420.0 L307.2,419.7 L308.1,415.2 L308.9,416.8 L309.7,416.5 L310.6,404.7 L311.4,413.8 L312.3,411.2 L313.1,413.3 L313.9,413.3 L314.8,416.0 L315.6,415.2 L316.5,418.4 L317.3,420.0 L318.1,420.0 L319.0,420.0 L319.8,420.0 L320.7,420.0 L321.5,420.0 L322.4,420.0 L323.2,420.0 L324.0,420.0 L324.9,420.0 L325.7,420.0 L326.6,420.0 L327.4,420.0 L328.2,415.4 L329.1,397.5 L329.9,403.4 L330.8,406.9 L331.6,407.9 L332.5,408.7 L333.3,411.7 L334.1,411.2 L335.0,406.1 L335.8,405.8 L336.7,415.4 L337.5,420.0 L338.3,420.0 L339.2,420.0 L340.0,420.0 L340.9,420.0 L341.7,420.0 L342.6,420.0 L343.4,420.0 L344.2,420.0 L345.1,420.0 L345.9,420.0 L346.8,420.0 L347.6,419.7 L348.4,405.3 L349.3,405.3 L350.1,403.4 L351.0,399.9 L351.8,385.1 L352.7,387.6 L353.5,403.1 L354.3,407.7 L355.2,412.0 L356.0,412.2 L356.9,418.9 L357.7,420.0 L358.5,420.0 L359.4,420.0 L360.2,420.0 L361.1,420.0 L361.9,420.0 L362.7,420.0 L363.6,420.0 L364.4,420.0 L365.3,420.0 L366.1,420.0 L367.0,420.0 L367.8,420.0 L368.6,417.3 L369.5,416.8 L370.3,415.7 L371.2,412.8 L372.0,415.4 L372.8,413.0 L373.7,414.1 L374.5,413.8 L375.4,416.0 L376.2,407.9 L377.1,418.4 L377.9,420.0 L378.7,420.0 L379.6,420.0 L380.4,420.0 L381.3,420.0 L382.1,420.0 L382.9,420.0 L383.8,420.0 L384.6,420.0 L385.5,420.0 L386.3,420.0 L387.2,420.0 L388.0,420.0 L388.8,418.1 L389.7,417.3 L390.5,404.2 L391.4,402.6 L392.2,396.9 L393.0,391.3 L393.9,400.7 L394.7,405.3 L395.6,410.6 L396.4,414.6 L397.3,418.7 L398.1,420.0 L398.9,420.0 L399.8,420.0 L400.6,420.0 L401.5,420.0 L402.3,420.0 L403.1,420.0 L404.0,420.0 L404.8,420.0 L405.7,420.0 L406.5,420.0 L407.3,420.0 L408.2,420.0 L409.0,418.1 L409.9,417.6 L410.7,415.7 L411.6,414.6 L412.4,411.7 L413.2,407.9 L414.1,409.0 L414.9,412.2 L415.8,412.2 L416.6,416.0 L417.4,412.5 L418.3,420.0 L419.1,420.0 L420.0,420.0 L420.8,420.0 L421.7,420.0 L422.5,420.0 L423.3,420.0 L424.2,420.0 L425.0,420.0 L425.9,420.0 L426.7,420.0 L427.5,420.0 L428.4,419.7 L429.2,414.1 L430.1,407.4 L430.9,412.0 L431.8,410.9 L432.6,406.9 L433.4,403.1 L434.3,401.8 L435.1,401.8 L436.0,401.8 L436.8,398.3 L437.6,416.2 L438.5,420.0 L439.3,420.0 L440.2,420.0 L441.0,420.0 L441.9,420.0 L442.7,420.0 L443.5,420.0 L444.4,420.0 L445.2,420.0 L446.1,420.0 L446.9,420.0 L447.7,420.0 L448.6,419.5 L449.4,415.2 L450.3,407.9 L451.1,405.3 L451.9,390.8 L452.8,396.9 L453.6,395.9 L454.5,402.3 L455.3,410.9 L456.2,413.8 L457.0,412.2 L457.8,416.5 L458.7,420.0 L459.5,420.0 L460.4,420.0 L461.2,420.0 L462.0,420.0 L462.9,420.0 L463.7,420.0 L464.6,420.0 L465.4,420.0 L466.3,420.0 L467.1,420.0 L467.9,420.0 L468.8,419.7 L469.6,415.2 L470.5,412.0 L471.3,398.0 L472.1,407.1 L473.0,405.5 L473.8,411.2 L474.7,409.3 L475.5,408.7 L476.4,415.7 L477.2,416.5 L478.0,417.1 L478.9,420.0 L479.7,420.0 L480.6,420.0 L481.4,420.0 L482.2,420.0 L483.1,420.0 L483.9,420.0 L484.8,420.0 L485.6,420.0 L486.5,420.0 L487.3,420.0 L488.1,420.0 L489.0,419.7 L489.8,413.6 L490.7,413.6 L491.5,392.6 L492.3,393.5 L493.2,389.2 L494.0,391.6 L494.9,392.9 L495.7,392.9 L496.5,396.4 L497.4,409.5 L498.2,415.4 L499.1,420.0 L499.9,420.0 L500.8,420.0 L501.6,420.0 L502.4,420.0 L503.3,420.0 L504.1,420.0 L505.0,420.0 L505.8,420.0 L506.6,420.0 L507.5,420.0 L508.3,420.0 L509.2,418.4 L510.0,405.8 L510.9,413.8 L511.7,403.6 L512.5,384.1 L513.4,387.0 L514.2,391.3 L515.1,393.5 L515.9,394.3 L516.7,394.5 L517.6,415.2 L518.4,412.5 L519.3,420.0 L520.1,420.0 L521.0,420.0 L521.8,420.0 L522.6,420.0 L523.5,420.0 L524.3,420.0 L525.2,420.0 L526.0,420.0 L526.8,420.0 L527.7,420.0 L528.5,420.0 L529.4,418.4 L530.2,400.7 L531.1,403.6 L531.9,385.9 L532.7,385.4 L533.6,384.6 L534.4,386.5 L535.3,395.1 L536.1,389.4 L536.9,390.5 L537.8,396.1 L538.6,415.4 L539.5,420.0 L540.3,420.0 L541.2,420.0 L542.0,420.0 L542.8,420.0 L543.7,420.0 L544.5,420.0 L545.4,420.0 L546.2,420.0 L547.0,420.0 L547.9,420.0 L548.7,420.0 L549.6,418.1 L550.4,413.6 L551.2,402.6 L552.1,398.5 L552.9,409.8 L553.8,390.5 L554.6,399.6 L555.5,396.7 L556.3,407.7 L557.1,406.1 L558.0,396.1 L558.8,416.5 L559.7,420.0 L560.5,420.0 L561.3,420.0 L562.2,420.0 L563.0,420.0 L563.9,420.0 L564.7,420.0 L565.6,420.0 L566.4,420.0 L567.2,420.0 L568.1,420.0 L568.9,420.0 L569.8,418.7 L570.6,397.7 L571.4,381.7 L572.3,381.1 L573.1,381.7 L574.0,382.5 L574.8,382.5 L575.7,381.9 L576.5,381.4 L577.3,384.9 L578.2,399.6 L579.0,416.0 L579.9,420.0 L580.7,420.0 L581.5,420.0 L582.4,420.0 L583.2,420.0 L584.1,420.0 L584.9,420.0 L585.8,420.0 L586.6,420.0 L587.4,420.0 L588.3,420.0 L589.1,420.0 L590.0,418.7 L590.8,402.6 L591.6,384.3 L592.5,384.9 L593.3,385.9 L594.2,394.3 L595.0,387.0 L595.8,396.4 L596.7,396.4 L597.5,404.2 L598.4,400.4 L599.2,414.9 L600.1,420.0 L600.9,420.0 L601.7,420.0 L602.6,420.0 L603.4,420.0 L604.3,420.0 L605.1,420.0 L605.9,420.0 L606.8,420.0 L607.6,420.0 L608.5,420.0 L609.3,420.0 L610.2,419.7 L611.0,417.9 L611.8,412.5 L612.7,389.2 L613.5,384.6 L614.4,402.3 L615.2,392.9 L616.0,401.5 L616.9,403.4 L617.7,413.0 L618.6,413.6 L619.4,416.8 L620.3,420.0 L621.1,420.0 L621.9,420.0 L622.8,420.0 L623.6,420.0 L624.5,420.0 L625.3,420.0 L626.1,420.0 L627.0,420.0 L627.8,420.0 L628.7,420.0 L629.5,420.0 L630.4,419.5 L631.2,406.3 L632.0,414.1 L632.9,414.1 L633.7,411.7 L634.6,409.0 L635.4,411.4 L636.2,412.0 L637.1,403.4 L637.9,414.6 L638.8,417.1 L639.6,417.1 L640.4,420.0 L641.3,420.0 L642.1,420.0 L643.0,420.0 L643.8,420.0 L644.7,420.0 L645.5,420.0 L646.3,420.0 L647.2,420.0 L648.0,420.0 L648.9,420.0 L649.7,420.0 L650.5,418.9 L651.4,415.2 L652.2,408.7 L653.1,409.8 L653.9,405.0 L654.8,406.9 L655.6,405.8 L656.4,404.4 L657.3,408.2 L658.1,402.3 L659.0,400.7 L659.8,406.1 L660.6,419.7 L661.5,420.0 L662.3,420.0 L663.2,420.0 L664.0,420.0 L664.9,420.0 L665.7,420.0 L666.5,420.0 L667.4,420.0 L668.2,420.0 L669.1,420.0 L669.9,420.0 L670.7,415.2 L671.6,391.3 L672.4,381.7 L673.3,401.8 L674.1,381.1 L675.0,402.0 L675.8,381.9 L676.6,401.8 L677.5,401.8 L678.3,402.0 L679.2,404.7 L680.0,406.3" stroke="#d62728" stroke-width="2" fill="none" opacity="0.8"/>
<!-- Forecast -->
<path d="M80.0,245.4 L80.8,249.2 L81.7,250.8 L82.5,247.8 L83.4,235.2 L84.2,210.3 L85.0,182.9 L85.9,169.0 L86.7,168.7 L87.6,171.7 L88.4,175.4 L89.3,179.4 L90.1,183.2 L90.9,187.0 L91.8,188.0 L92.6,182.9 L93.5,170.6 L94.3,163.9 L95.1,165.0 L96.0,176.2 L96.8,190.4 L97.7,209.8 L98.5,214.6 L99.4,240.9 L100.2,248.1 L101.0,251.9 L101.9,253.2 L102.7,250.2 L103.6,237.9 L104.4,212.7 L105.2,185.6 L106.1,170.9 L106.9,170.1 L107.8,172.5 L108.6,176.0 L109.5,179.4 L110.3,182.9 L111.1,186.4 L112.0,187.8 L112.8,182.7 L113.7,170.1 L114.5,162.6 L115.3,163.6 L116.2,174.1 L117.0,190.4 L117.9,207.9 L118.7,226.4 L119.6,239.5 L120.4,246.8 L121.2,250.5 L122.1,252.7 L122.9,251.3 L123.8,246.0 L124.6,232.0 L125.4,216.7 L126.3,201.4 L127.1,194.7 L128.0,191.5 L128.8,193.7 L129.6,196.9 L130.5,202.5 L131.3,206.5 L132.2,206.8 L133.0,203.3 L133.9,190.4 L134.7,182.4 L135.5,181.3 L136.4,187.5 L137.2,197.7 L138.1,212.2 L138.9,230.4 L139.7,240.3 L140.6,244.3 L141.4,247.3 L142.3,249.2 L143.1,248.9 L144.0,244.6 L144.8,235.8 L145.6,222.4 L146.5,208.7 L147.3,199.0 L148.2,192.1 L149.0,189.4 L149.8,195.5 L150.7,199.8 L151.5,206.3 L152.4,205.2 L153.2,204.9 L154.1,188.0 L154.9,178.9 L155.7,182.7 L156.6,192.3 L157.4,198.0 L158.3,213.0 L159.1,228.5 L159.9,238.2 L160.8,244.6 L161.6,248.1 L162.5,249.4 L163.3,246.5 L164.2,234.2 L165.0,209.5 L165.8,182.7 L166.7,169.0 L167.5,169.0 L168.4,172.2 L169.2,176.2 L170.0,180.0 L170.9,183.7 L171.7,187.8 L172.6,189.6 L173.4,184.8 L174.2,172.5 L175.1,165.2 L175.9,165.5 L176.8,175.4 L177.6,191.2 L178.5,208.7 L179.3,227.2 L180.1,239.3 L181.0,244.6 L181.8,247.6 L182.7,249.4 L183.5,245.7 L184.3,233.1 L185.2,208.9 L186.0,182.1 L186.9,167.9 L187.7,167.1 L188.6,170.1 L189.4,174.1 L190.2,177.6 L191.1,181.6 L191.9,185.6 L192.8,188.0 L193.6,183.7 L194.4,171.9 L195.3,164.7 L196.1,164.2 L197.0,175.4 L197.8,190.7 L198.7,208.7 L199.5,213.0 L200.3,239.8 L201.2,247.0 L202.0,250.8 L202.9,252.1 L203.7,249.7 L204.5,237.1 L205.4,212.2 L206.2,185.9 L207.1,170.9 L207.9,169.3 L208.8,171.9 L209.6,174.9 L210.4,178.1 L211.3,181.6 L212.1,185.6 L213.0,187.2 L213.8,182.1 L214.6,170.6 L215.5,164.4 L216.3,164.2 L217.2,175.7 L218.0,189.9 L218.8,208.9 L219.7,226.1 L220.5,239.5 L221.4,247.6 L222.2,251.3 L223.1,252.9 L223.9,250.2 L224.7,237.4 L225.6,213.5 L226.4,185.3 L227.3,169.0 L228.1,166.6 L228.9,168.7 L229.8,171.9 L230.6,176.2 L231.5,179.4 L232.3,182.7 L233.2,183.7 L234.0,178.4 L234.8,165.5 L235.7,159.9 L236.5,161.5 L237.4,171.4 L238.2,187.5 L239.0,206.0 L239.9,223.4 L240.7,236.6 L241.6,244.3 L242.4,247.8 L243.3,249.4 L244.1,246.2 L244.9,233.4 L245.8,208.1 L246.6,180.5 L247.5,165.8 L248.3,165.0 L249.1,167.9 L250.0,171.4 L250.8,176.2 L251.7,179.7 L252.5,182.7 L253.4,184.0 L254.2,178.6 L255.0,165.5 L255.9,159.1 L256.7,160.9 L257.6,169.8 L258.4,184.5 L259.2,203.6 L260.1,237.6 L260.9,239.0 L261.8,241.9 L262.6,246.8 L263.5,250.2 L264.3,249.4 L265.1,246.5 L266.0,235.5 L266.8,221.8 L267.7,207.6 L268.5,202.5 L269.3,198.0 L270.2,199.8 L271.0,202.0 L271.9,208.4 L272.7,211.9 L273.5,213.5 L274.4,212.4 L275.2,203.6 L276.1,196.1 L276.9,192.9 L277.8,198.2 L278.6,208.7 L279.4,226.6 L280.3,239.3 L281.1,250.0 L282.0,252.7 L283.6,249.4 L284.5,244.9 L285.3,237.6 L286.2,231.7 L287.0,221.3 L287.9,210.8 L288.7,199.3 L289.5,167.4 L290.4,166.3 L291.2,184.8 L292.1,208.1 L292.9,209.8 L293.7,214.8 L294.6,185.9 L295.4,190.4 L296.3,167.9 L297.1,164.2 L298.0,199.8 L298.8,216.7 L299.6,230.7 L300.5,231.7 L301.3,243.0 L302.2,250.5 L303.0,255.1 L303.8,255.9 L304.7,253.7 L305.5,240.3 L306.4,215.7 L307.2,188.3 L308.1,171.7 L308.9,169.3 L309.7,171.1 L310.6,174.4 L311.4,178.4 L312.3,182.1 L313.1,185.1 L313.9,187.0 L314.8,182.4 L315.6,171.4 L316.5,165.2 L317.3,165.0 L318.1,175.2 L319.0,191.0 L319.8,208.4 L320.7,222.9 L321.5,236.8 L322.4,243.3 L323.2,246.8 L324.0,247.6 L324.9,244.3 L325.7,231.2 L326.6,204.9 L327.4,176.8 L328.2,162.6 L329.1,162.3 L329.9,166.0 L330.8,169.5 L331.6,175.2 L332.5,178.9 L333.3,181.3 L334.1,182.1 L335.0,176.8 L335.8,164.4 L336.7,158.8 L337.5,160.9 L338.3,168.7 L339.2,181.9 L340.0,201.7 L340.9,243.5 L341.7,251.3 L342.6,250.8 L343.4,254.0 L344.2,255.1 L345.1,254.0 L345.9,243.0 L346.8,218.9 L347.6,189.9 L348.4,176.2 L349.3,173.8 L350.1,177.8 L351.0,181.9 L351.8,187.0 L352.7,191.2 L353.5,195.3 L354.3,196.6 L355.2,196.1 L356.0,196.9 L356.9,200.4 L357.7,200.9 L358.5,199.6 L359.4,207.3 L360.2,227.7 L361.1,247.6 L361.9,262.6 L362.7,272.5 L363.6,278.1 L364.4,281.6 L365.3,281.1 L366.1,272.0 L367.0,248.6 L367.8,217.5 L368.6,195.8 L369.5,190.2 L370.3,188.6 L371.2,190.7 L372.0,193.4 L372.8,196.1 L373.7,198.8 L374.5,199.0 L375.4,198.0 L376.2,198.2 L377.1,201.2 L377.9,200.9 L378.7,200.1 L379.6,207.1 L380.4,226.1 L381.3,244.6 L382.1,259.9 L382.9,267.1 L383.8,270.6 L384.6,272.8 L385.5,271.2 L386.3,260.2 L387.2,234.7 L388.0,205.2 L388.8,186.4 L389.7,180.8 L390.5,181.6 L391.4,183.7 L392.2,187.8 L393.0,191.2 L393.9,194.2 L394.7,195.5 L395.6,195.3 L396.4,194.7 L397.3,195.5 L398.1,195.3 L398.9,193.9 L399.8,202.8 L400.6,222.6 L401.5,231.5 L402.3,251.9 L403.1,262.3 L404.0,266.6 L404.8,269.3 L405.7,271.2 L406.5,268.2 L407.3,257.0 L408.2,239.5 L409.0,217.5 L409.9,207.3 L410.7,203.0 L411.6,206.5 L412.4,208.7 L413.2,215.4 L414.1,217.3 L414.9,214.3 L415.8,210.6 L416.6,206.8 L417.4,202.5 L418.3,196.9 L419.1,199.3 L420.0,206.5 L420.8,216.5 L421.7,235.0 L422.5,240.9 L423.3,239.8 L424.2,241.4 L425.0,243.5 L425.9,241.9 L426.7,238.7 L427.5,232.8 L428.4,218.9 L429.2,210.0 L430.1,202.0 L430.9,193.4 L431.8,188.6 L432.6,191.2 L433.4,197.1 L434.3,198.8 L435.1,200.6 L436.0,199.6 L436.8,194.2 L437.6,191.8 L438.5,189.9 L439.3,190.4 L440.2,198.5 L441.0,213.5 L441.9,249.4 L442.7,252.4 L443.5,254.3 L444.4,259.9 L445.2,262.3 L446.1,261.8 L446.9,252.1 L447.7,228.3 L448.6,200.4 L449.4,184.0 L450.3,180.3 L451.1,182.4 L451.9,185.6 L452.8,189.9 L453.6,194.5 L454.5,198.5 L455.3,199.8 L456.2,200.4 L457.0,200.9 L457.8,204.7 L458.7,205.7 L459.5,206.3 L460.4,212.7 L461.2,232.3 L462.0,256.4 L462.9,269.0 L463.7,277.1 L464.6,282.4 L465.4,285.4 L466.3,284.3 L467.1,274.9 L467.9,251.9 L468.8,222.9 L469.6,202.0 L470.5,197.4 L471.3,195.8 L472.1,198.5 L473.0,200.6 L473.8,203.0 L474.7,204.9 L475.5,206.0 L476.4,206.3 L477.2,205.7 L478.0,210.0 L478.9,214.3 L479.7,215.7 L480.6,220.2 L481.4,236.3 L482.2,257.8 L483.1,272.5 L483.9,279.5 L484.8,285.1 L485.6,287.0 L486.5,285.6 L487.3,275.2 L488.1,252.4 L489.0,224.2 L489.8,203.9 L490.7,199.6 L491.5,198.0 L492.3,200.4 L493.2,202.0 L494.0,203.9 L494.9,205.5 L495.7,205.5 L496.5,206.3 L497.4,206.0 L498.2,210.0 L499.1,214.8 L499.9,216.5 L500.8,221.8 L501.6,237.6 L502.4,258.0 L503.3,272.2 L504.1,279.5 L505.0,285.1 L505.8,287.0 L506.6,285.6 L507.5,275.2 L508.3,252.7 L509.2,224.5 L510.0,204.1 L510.9,199.6 L511.7,198.0 L512.5,200.4 L513.4,202.0 L514.2,203.9 L515.1,205.5 L515.9,205.5 L516.7,206.3 L517.6,206.0 L518.4,209.8 L519.3,214.8 L520.1,216.5 L521.0,221.6 L521.8,237.4 L522.6,257.0 L523.5,272.2 L524.3,280.3 L525.2,285.9 L526.0,287.8 L526.8,286.2 L527.7,276.8 L528.5,255.6 L529.4,230.1 L530.2,211.6 L531.1,206.3 L531.9,201.7 L532.7,201.2 L533.6,200.6 L534.4,201.2 L535.3,201.7 L536.1,199.6 L536.9,199.6 L537.8,199.8 L538.6,206.8 L539.5,212.2 L540.3,215.7 L541.2,218.3 L542.0,234.4 L542.8,256.4 L543.7,269.3 L544.5,279.5 L545.4,285.9 L546.2,287.8 L547.0,286.2 L547.9,276.5 L548.7,255.6 L549.6,229.9 L550.4,211.4 L551.2,206.3 L552.1,201.7 L552.9,201.2 L553.8,200.6 L554.6,201.2 L555.5,201.7 L556.3,199.6 L557.1,199.6 L558.0,199.8 L558.8,207.1 L559.7,212.2 L560.5,215.7 L561.3,218.3 L562.2,234.4 L563.0,252.9 L563.9,268.2 L564.7,269.3 L565.6,271.4 L566.4,273.0 L567.2,272.5 L568.1,268.5 L568.9,261.5 L569.8,250.0 L570.6,233.9 L571.4,219.4 L572.3,215.4 L573.1,217.5 L574.0,220.5 L574.8,222.6 L575.7,227.2 L576.5,228.8 L577.3,227.2 L578.2,221.3 L579.0,221.0 L579.9,216.2 L580.7,211.9 L581.5,215.9 L582.4,233.6 L583.2,255.1 L584.1,264.2 L584.9,269.8 L585.8,272.8 L586.6,274.6 L587.4,272.8 L588.3,259.9 L589.1,236.6 L590.0,209.8 L590.8,192.6 L591.6,189.4 L592.5,190.7 L593.3,195.3 L594.2,199.0 L595.0,202.0 L595.8,204.7 L596.7,205.7 L597.5,206.5 L598.4,206.8 L599.2,210.3 L600.1,212.7 L600.9,212.2 L601.7,217.3 L602.6,234.2 L603.4,258.3 L604.3,269.8 L605.1,274.6 L605.9,277.6 L606.8,279.2 L607.6,277.1 L608.5,265.5 L609.3,239.8 L610.2,213.0 L611.0,195.3 L611.8,192.6 L612.7,193.1 L613.5,197.7 L614.4,200.6 L615.2,203.9 L616.0,206.3 L616.9,207.3 L617.7,207.6 L618.6,207.1 L619.4,211.4 L620.3,215.7 L621.1,217.0 L621.9,221.6 L622.8,237.9 L623.6,381.1 L624.5,273.8 L625.3,280.8 L626.1,286.7 L627.0,288.6 L627.8,287.3 L628.7,277.3 L629.5,254.5 L630.4,227.5 L631.2,208.1 L632.0,202.2 L632.9,199.6 L633.7,200.9 L634.6,202.0 L635.4,203.6 L636.2,205.5 L637.1,206.3 L637.9,206.5 L638.8,206.3 L639.6,210.3 L640.4,213.5 L641.3,213.0 L642.1,217.5 L643.0,233.9 L643.8,244.6 L644.7,263.7 L645.5,273.0 L646.3,276.3 L647.2,277.1 L648.0,274.1 L648.9,261.8 L649.7,236.6 L650.5,206.8 L651.4,189.6 L652.2,185.1 L653.1,186.4 L653.9,188.8 L654.8,192.6 L655.6,196.6 L656.4,199.8 L657.3,200.4 L658.1,200.4 L659.0,200.9 L659.8,203.6 L660.6,202.5 L661.5,198.8 L662.3,206.8 L663.2,223.7 L664.0,249.2 L664.9,257.0 L665.7,258.8 L666.5,262.6 L667.4,263.1 L668.2,261.0 L669.1,249.7 L669.9,225.8 L670.7,199.6 L671.6,185.6 L672.4,184.0 L673.3,187.5 L674.1,192.3 L675.0,197.7 L675.8,202.0 L676.6,205.2 L677.5,206.5 L678.3,207.6 L679.2,208.1 L680.0,208.1" stroke="#9467bd" stroke-width="2" fill="none" opacity="0.8"/>
<!-- Total Generation -->
<path d="M80.0,182.7 L80.8,184.5 L81.7,192.9 L82.5,167.1 L83.4,160.9 L84.2,149.1 L85.0,151.6 L85.9,155.0 L86.7,195.3 L87.6,224.2 L88.4,215.7 L89.3,213.2 L90.1,192.9 L90.9,195.5 L91.8,199.0 L92.6,171.9 L93.5,141.6 L94.3,141.4 L95.1,145.9 L96.0,142.2 L96.8,160.9 L97.7,204.7 L98.5,193.9 L99.4,206.0 L100.2,224.2 L101.0,211.6 L101.9,184.8 L102.7,179.7 L103.6,180.5 L104.4,184.5 L105.2,180.3 L106.1,173.8 L106.9,176.0 L107.8,181.3 L108.6,181.6 L109.5,186.4 L110.3,190.7 L111.1,186.7 L112.0,198.8 L112.8,182.7 L113.7,170.6 L114.5,153.7 L115.3,165.5 L116.2,176.0 L117.0,175.2 L117.9,183.2 L118.7,197.1 L119.6,196.6 L120.4,187.2 L121.2,191.2 L122.1,189.9 L122.9,192.3 L123.8,203.3 L124.6,203.3 L125.4,214.6 L126.3,218.9 L127.1,209.2 L128.0,225.6 L128.8,212.4 L129.6,232.5 L130.5,262.0 L131.3,244.1 L132.2,195.8 L133.0,195.5 L133.9,150.5 L134.7,137.6 L135.5,154.5 L136.4,164.2 L137.2,171.4 L138.1,169.8 L138.9,166.3 L139.7,164.2 L140.6,158.3 L141.4,182.1 L142.3,203.3 L143.1,201.2 L144.0,171.7 L144.8,161.7 L145.6,189.1 L146.5,156.4 L147.3,176.0 L148.2,181.3 L149.0,188.3 L149.8,193.4 L150.7,203.3 L151.5,201.7 L152.4,205.5 L153.2,228.0 L154.1,162.6 L154.9,144.9 L155.7,161.2 L156.6,167.9 L157.4,156.1 L158.3,156.7 L159.1,178.4 L159.9,187.8 L160.8,212.2 L161.6,201.4 L162.5,198.8 L163.3,202.2 L164.2,179.2 L165.0,175.4 L165.8,153.4 L166.7,168.2 L167.5,191.8 L168.4,178.9 L169.2,200.1 L170.0,212.7 L170.9,192.6 L171.7,197.7 L172.6,187.0 L173.4,198.0 L174.2,168.2 L175.1,153.7 L175.9,152.9 L176.8,151.8 L177.6,143.2 L178.5,144.0 L179.3,163.9 L180.1,167.6 L181.0,203.6 L181.8,209.8 L182.7,204.1 L183.5,178.1 L184.3,160.1 L185.2,136.5 L186.0,134.1 L186.9,169.5 L187.7,161.7 L188.6,146.5 L189.4,178.9 L190.2,183.2 L191.1,181.3 L191.9,157.5 L192.8,182.7 L193.6,191.8 L194.4,162.6 L195.3,154.5 L196.1,134.9 L197.0,136.0 L197.8,151.6 L198.7,156.4 L199.5,156.1 L200.3,165.5 L201.2,182.9 L202.0,195.3 L202.9,196.9 L203.7,220.7 L204.5,159.9 L205.4,93.1 L206.2,146.5 L207.1,160.7 L207.9,197.4 L208.8,214.0 L209.6,222.6 L210.4,229.3 L211.3,230.4 L212.1,231.7 L213.0,229.1 L213.8,232.0 L214.6,222.6 L215.5,193.1 L216.3,213.8 L217.2,209.8 L218.0,207.1 L218.8,221.8 L219.7,219.9 L220.5,222.6 L221.4,233.9 L222.2,231.2 L223.1,232.5 L223.9,234.2 L224.7,186.7 L225.6,159.3 L226.4,171.7 L227.3,181.9 L228.1,173.5 L228.9,207.9 L229.8,191.2 L230.6,195.8 L231.5,192.9 L232.3,208.1 L233.2,225.8 L234.0,212.2 L234.8,192.6 L235.7,210.6 L236.5,228.5 L237.4,192.6 L238.2,179.2 L239.0,187.5 L239.9,205.5 L240.7,200.4 L241.6,199.6 L242.4,217.8 L243.3,229.1 L244.1,225.8 L244.9,228.3 L245.8,191.5 L246.6,240.3 L247.5,235.8 L248.3,245.4 L249.1,262.6 L250.0,257.5 L250.8,262.6 L251.7,255.6 L252.5,234.4 L253.4,226.1 L254.2,221.6 L255.0,182.1 L255.9,159.9 L256.7,163.9 L257.6,144.6 L258.4,133.9 L259.2,133.3 L260.1,179.4 L260.9,174.6 L261.8,182.1 L262.6,184.8 L263.5,186.7 L264.3,189.4 L265.1,184.8 L266.0,189.1 L266.8,178.6 L267.7,230.7 L268.5,232.8 L269.3,239.0 L270.2,242.5 L271.0,233.1 L271.9,225.0 L272.7,226.6 L273.5,229.9 L274.4,232.3 L275.2,194.2 L276.1,192.6 L276.9,186.7 L277.8,188.6 L278.6,190.4 L279.4,194.7 L280.3,195.0 L281.1,201.2 L282.0,179.2 L283.6,203.0 L284.5,217.5 L285.3,216.2 L286.2,225.6 L287.0,215.7 L287.9,199.6 L288.7,252.9 L289.5,259.4 L290.4,256.4 L291.2,265.0 L292.1,271.7 L292.9,274.4 L293.7,274.1 L294.6,270.6 L295.4,254.5 L296.3,222.6 L297.1,203.0 L298.0,189.6 L298.8,199.3 L299.6,218.6 L300.5,227.2 L301.3,238.2 L302.2,243.5 L303.0,243.5 L303.8,244.1 L304.7,246.0 L305.5,203.0 L306.4,178.4 L307.2,167.4 L308.1,173.5 L308.9,194.7 L309.7,191.2 L310.6,167.9 L311.4,188.8 L312.3,189.9 L313.1,186.7 L313.9,196.9 L314.8,215.4 L315.6,209.8 L316.5,194.7 L317.3,179.2 L318.1,159.1 L319.0,182.4 L319.8,195.5 L320.7,207.3 L321.5,211.4 L322.4,241.4 L323.2,240.9 L324.0,238.7 L324.9,239.5 L325.7,219.1 L326.6,194.7 L327.4,164.4 L328.2,172.5 L329.1,162.3 L329.9,198.0 L330.8,229.6 L331.6,232.8 L332.5,231.7 L333.3,224.0 L334.1,236.3 L335.0,244.1 L335.8,208.4 L336.7,174.9 L337.5,178.4 L338.3,165.5 L339.2,190.7 L340.0,195.5 L340.9,184.8 L341.7,166.3 L342.6,160.4 L343.4,181.3 L344.2,176.5 L345.1,190.2 L345.9,201.7 L346.8,182.9 L347.6,122.9 L348.4,87.2 L349.3,137.3 L350.1,202.8 L351.0,166.6 L351.8,159.1 L352.7,161.5 L353.5,199.0 L354.3,229.6 L355.2,214.6 L356.0,225.8 L356.9,258.6 L357.7,217.8 L358.5,127.4 L359.4,116.2 L360.2,170.9 L361.1,185.1 L361.9,190.7 L362.7,198.8 L363.6,221.3 L364.4,236.3 L365.3,267.7 L366.1,283.2 L367.0,265.5 L367.8,186.4 L368.6,187.2 L369.5,269.6 L370.3,278.7 L371.2,283.8 L372.0,301.7 L372.8,292.6 L373.7,279.7 L374.5,267.4 L375.4,255.9 L376.2,244.9 L377.1,198.2 L377.9,143.8 L378.7,170.3 L379.6,196.1 L380.4,176.8 L381.3,208.9 L382.1,225.6 L382.9,241.1 L383.8,235.8 L384.6,232.0 L385.5,239.5 L386.3,215.1 L387.2,173.0 L388.0,173.0 L388.8,200.4 L389.7,201.2 L390.5,200.4 L391.4,198.0 L392.2,188.3 L393.0,215.4 L393.9,220.2 L394.7,201.7 L395.6,201.7 L396.4,169.3 L397.3,158.8 L398.1,157.5 L398.9,159.9 L399.8,168.5 L400.6,180.5 L401.5,176.0 L402.3,198.0 L403.1,198.5 L404.0,201.4 L404.8,205.7 L405.7,205.7 L406.5,211.1 L407.3,216.2 L408.2,219.7 L409.0,216.7 L409.9,247.3 L410.7,236.6 L411.6,225.0 L412.4,232.3 L413.2,232.3 L414.1,227.5 L414.9,228.5 L415.8,228.5 L416.6,232.0 L417.4,190.2 L418.3,192.3 L419.1,210.8 L420.0,221.0 L420.8,207.3 L421.7,203.9 L422.5,213.8 L423.3,210.8 L424.2,214.3 L425.0,232.0 L425.9,237.1 L426.7,218.6 L427.5,220.5 L428.4,210.3 L429.2,223.2 L430.1,224.8 L430.9,230.7 L431.8,238.2 L432.6,242.5 L433.4,231.7 L434.3,248.9 L435.1,251.9 L436.0,254.0 L436.8,250.0 L437.6,190.2 L438.5,170.3 L439.3,165.8 L440.2,169.0 L441.0,168.2 L441.9,152.1 L442.7,153.4 L443.5,152.6 L444.4,151.3 L445.2,163.9 L446.1,145.7 L446.9,117.8 L447.7,117.5 L448.6,88.3 L449.4,86.1 L450.3,81.0 L451.1,107.8 L451.9,100.6 L452.8,136.0 L453.6,155.3 L454.5,162.0 L455.3,163.9 L456.2,182.4 L457.0,153.4 L457.8,111.6 L458.7,67.6 L459.5,97.7 L460.4,132.2 L461.2,161.7 L462.0,221.8 L462.9,246.0 L463.7,231.7 L464.6,238.4 L465.4,237.1 L466.3,209.8 L467.1,215.9 L467.9,206.8 L468.8,198.2 L469.6,158.8 L470.5,189.6 L471.3,174.1 L472.1,240.6 L473.0,230.9 L473.8,225.6 L474.7,237.1 L475.5,250.5 L476.4,229.1 L477.2,176.5 L478.0,148.3 L478.9,108.4 L479.7,120.4 L480.6,104.6 L481.4,129.6 L482.2,137.9 L483.1,182.4 L483.9,178.1 L484.8,185.6 L485.6,204.9 L486.5,202.8 L487.3,216.2 L488.1,150.5 L489.0,120.4 L489.8,165.5 L490.7,189.6 L491.5,168.2 L492.3,162.3 L493.2,135.7 L494.0,149.4 L494.9,150.5 L495.7,157.7 L496.5,161.2 L497.4,189.4 L498.2,126.6 L499.1,143.8 L499.9,147.3 L500.8,173.0 L501.6,198.5 L502.4,193.7 L503.3,217.8 L504.1,202.8 L505.0,202.5 L505.8,196.3 L506.6,194.7 L507.5,214.6 L508.3,205.2 L509.2,193.9 L510.0,180.5 L510.9,221.8 L511.7,195.3 L512.5,181.1 L513.4,173.3 L514.2,167.4 L515.1,170.3 L515.9,166.3 L516.7,174.9 L517.6,192.3 L518.4,192.9 L519.3,174.9 L520.1,215.4 L521.0,220.2 L521.8,212.7 L522.6,221.8 L523.5,204.1 L524.3,192.6 L525.2,197.4 L526.0,205.5 L526.8,220.2 L527.7,240.9 L528.5,213.5 L529.4,191.8 L530.2,176.0 L531.1,204.9 L531.9,158.0 L532.7,160.1 L533.6,151.3 L534.4,159.9 L535.3,168.2 L536.1,160.7 L536.9,155.8 L537.8,161.7 L538.6,175.4 L539.5,153.4 L540.3,221.8 L541.2,217.5 L542.0,208.7 L542.8,220.2 L543.7,213.2 L544.5,211.1 L545.4,223.7 L546.2,231.7 L547.0,250.5 L547.9,265.8 L548.7,241.1 L549.6,238.4 L550.4,223.4 L551.2,241.4 L552.1,235.0 L552.9,251.3 L553.8,226.9 L554.6,202.0 L555.5,206.3 L556.3,195.3 L557.1,207.9 L558.0,204.7 L558.8,229.3 L559.7,230.4 L560.5,237.9 L561.3,243.8 L562.2,246.8 L563.0,263.4 L563.9,277.6 L564.7,279.5 L565.6,277.9 L566.4,272.2 L567.2,263.7 L568.1,259.6 L568.9,217.0 L569.8,203.6 L570.6,213.2 L571.4,197.4 L572.3,174.4 L573.1,161.5 L574.0,166.6 L574.8,156.1 L575.7,169.3 L576.5,173.8 L577.3,177.3 L578.2,193.1 L579.0,188.8 L579.9,145.1 L580.7,167.1 L581.5,165.2 L582.4,194.2 L583.2,218.9 L584.1,213.8 L584.9,241.7 L585.8,250.0 L586.6,211.1 L587.4,222.4 L588.3,203.3 L589.1,151.6 L590.0,156.9 L590.8,179.4 L591.6,173.3 L592.5,193.9 L593.3,214.3 L594.2,220.7 L595.0,227.2 L595.8,235.0 L596.7,229.1 L597.5,258.8 L598.4,248.4 L599.2,188.6 L600.1,136.5 L600.9,126.3 L601.7,162.3 L602.6,201.2 L603.4,182.1 L604.3,236.6 L605.1,273.3 L605.9,271.2 L606.8,264.2 L607.6,259.6 L608.5,249.2 L609.3,210.6 L610.2,166.0 L611.0,170.1 L611.8,200.1 L612.7,189.9 L613.5,203.9 L614.4,184.0 L615.2,186.2 L616.0,175.4 L616.9,185.9 L617.7,181.6 L618.6,185.6 L619.4,178.9 L620.3,187.2 L621.1,208.1 L621.9,229.9 L622.8,217.5 L623.6,195.3 L624.5,201.7 L625.3,183.5 L626.1,210.6 L627.0,213.5 L627.8,231.7 L628.7,203.9 L629.5,165.0 L630.4,168.7 L631.2,189.9 L632.0,210.8 L632.9,205.7 L633.7,219.7 L634.6,216.5 L635.4,217.3 L636.2,216.2 L637.1,207.1 L637.9,210.6 L638.8,233.4 L639.6,208.4 L640.4,181.3 L641.3,170.3 L642.1,187.2 L643.0,211.9 L643.8,217.3 L644.7,223.7 L645.5,250.8 L646.3,263.7 L647.2,278.1 L648.0,271.7 L648.9,239.5 L649.7,178.1 L650.5,158.8 L651.4,159.9 L652.2,160.7 L653.1,194.7 L653.9,190.7 L654.8,197.1 L655.6,207.9 L656.4,213.5 L657.3,216.5 L658.1,186.2 L659.0,192.6 L659.8,202.0 L660.6,182.1 L661.5,211.9 L662.3,175.4 L663.2,188.6 L664.0,175.7 L664.9,190.7 L665.7,239.0 L666.5,186.4 L667.4,190.7 L668.2,189.1 L669.1,187.8 L669.9,163.4 L670.7,155.0 L671.6,165.8 L672.4,172.7 L673.3,212.2 L674.1,196.6 L675.0,242.7 L675.8,227.7 L676.6,243.8 L677.5,240.6 L678.3,229.3 L679.2,227.5 L680.0,198.2" stroke="#8c564b" stroke-width="2" fill="none" opacity="0.8"/>
<!-- Forecast Difference -->
<path d="M80.0,420.0 L80.8,420.0 L81.7,420.0 L82.5,420.0 L83.4,420.0 L84.2,420.0 L85.0,420.0 L85.9,420.0 L86.7,420.0 L87.6,420.0 L88.4,420.0 L89.3,420.0 L90.1,420.0 L90.9,420.0 L91.8,420.0 L92.6,420.0 L93.5,420.0 L94.3,420.0 L95.1,420.0 L96.0,420.0 L96.8,420.0 L97.7,420.0 L98.5,420.0 L99.4,420.0 L100.2,420.0 L101.0,420.0 L101.9,420.0 L102.7,420.0 L103.6,420.0 L104.4,420.0 L105.2,420.0 L106.1,420.0 L106.9,420.0 L107.8,420.0 L108.6,420.0 L109.5,420.0 L110.3,420.0 L111.1,420.0 L112.0,420.0 L112.8,420.0 L113.7,420.0 L114.5,420.0 L115.3,420.0 L116.2,420.0 L117.0,420.0 L117.9,420.0 L118.7,420.0 L119.6,420.0 L120.4,420.0 L121.2,420.0 L122.1,420.0 L122.9,420.0 L123.8,420.0 L124.6,420.0 L125.4,420.0 L126.3,420.0 L127.1,420.0 L128.0,420.0 L128.8,420.0 L129.6,420.0 L130.5,420.0 L131.3,420.0 L132.2,420.0 L133.0,420.0 L133.9,420.0 L134.7,420.0 L135.5,420.0 L136.4,420.0 L137.2,420.0 L138.1,420.0 L138.9,420.0 L139.7,420.0 L140.6,420.0 L141.4,420.0 L142.3,420.0 L143.1,420.0 L144.0,420.0 L144.8,420.0 L145.6,420.0 L146.5,420.0 L147.3,420.0 L148.2,420.0 L149.0,420.0 L149.8,420.0 L150.7,420.0 L151.5,420.0 L152.4,420.0 L153.2,420.0 L154.1,420.0 L154.9,420.0 L155.7,420.0 L156.6,420.0 L157.4,420.0 L158.3,420.0 L159.1,420.0 L159.9,420.0 L160.8,420.0 L161.6,420.0 L162.5,420.0 L163.3,420.0 L164.2,420.0 L165.0,420.0 L165.8,420.0 L166.7,420.0 L167.5,420.0 L168.4,420.0 L169.2,420.0 L170.0,420.0 L170.9,420.0 L171.7,420.0 L172.6,420.0 L173.4,420.0 L174.2,420.0 L175.1,420.0 L175.9,420.0 L176.8,420.0 L177.6,420.0 L178.5,420.0 L179.3,420.0 L180.1,420.0 L181.0,420.0 L181.8,420.0 L182.7,420.0 L183.5,420.0 L184.3,420.0 L185.2,420.0 L186.0,420.0 L186.9,420.0 L187.7,420.0 L188.6,420.0 L189.4,420.0 L190.2,420.0 L191.1,420.0 L191.9,420.0 L192.8,420.0 L193.6,420.0 L194.4,420.0 L195.3,420.0 L196.1,420.0 L197.0,420.0 L197.8,420.0 L198.7,420.0 L199.5,420.0 L200.3,420.0 L201.2,420.0 L202.0,420.0 L202.9,420.0 L203.7,420.0 L204.5,420.0 L205.4,420.0 L206.2,420.0 L207.1,420.0 L207.9,420.0 L208.8,420.0 L209.6,420.0 L210.4,420.0 L211.3,420.0 L212.1,420.0 L213.0,420.0 L213.8,420.0 L214.6,420.0 L215.5,420.0 L216.3,420.0 L217.2,420.0 L218.0,420.0 L218.8,420.0 L219.7,420.0 L220.5,420.0 L221.4,420.0 L222.2,420.0 L223.1,420.0 L223.9,420.0 L224.7,420.0 L225.6,420.0 L226.4,420.0 L227.3,420.0 L228.1,420.0 L228.9,420.0 L229.8,420.0 L230.6,420.0 L231.5,420.0 L232.3,420.0 L233.2,420.0 L234.0,420.0 L234.8,420.0 L235.7,420.0 L236.5,420.0 L237.4,420.0 L238.2,420.0 L239.0,420.0 L239.9,420.0 L240.7,420.0 L241.6,420.0 L242.4,420.0 L243.3,420.0 L244.1,420.0 L244.9,420.0 L245.8,420.0 L246.6,420.0 L247.5,420.0 L248.3,420.0 L249.1,420.0 L250.0,420.0 L250.8,420.0 L251.7,420.0 L252.5,420.0 L253.4,420.0 L254.2,420.0 L255.0,420.0 L255.9,420.0 L256.7,420.0 L257.6,420.0 L258.4,420.0 L259.2,420.0 L260.1,420.0 L260.9,420.0 L261.8,420.0 L262.6,420.0 L263.5,420.0 L264.3,420.0 L265.1,420.0 L266.0,420.0 L266.8,420.0 L267.7,420.0 L268.5,420.0 L269.3,420.0 L270.2,420.0 L271.0,420.0 L271.9,420.0 L272.7,420.0 L273.5,420.0 L274.4,420.0 L275.2,420.0 L276.1,420.0 L276.9,420.0 L277.8,420.0 L278.6,420.0 L279.4,420.0 L280.3,420.0 L281.1,420.0 L282.0,420.0 L283.6,420.0 L284.5,420.0 L285.3,420.0 L286.2,420.0 L287.0,420.0 L287.9,420.0 L288.7,420.0 L289.5,420.0 L290.4,420.0 L291.2,420.0 L292.1,420.0 L292.9,420.0 L293.7,420.0 L294.6,420.0 L295.4,420.0 L296.3,420.0 L297.1,420.0 L298.0,420.0 L298.8,420.0 L299.6,420.0 L300.5,420.0 L301.3,420.0 L302.2,420.0 L303.0,420.0 L303.8,420.0 L304.7,420.0 L305.5,420.0 L306.4,420.0 L307.2,420.0 L308.1,420.0 L308.9,420.0 L309.7,420.0 L310.6,420.0 L311.4,420.0 L312.3,420.0 L313.1,420.0 L313.9,420.0 L314.8,420.0 L315.6,420.0 L316.5,420.0 L317.3,420.0 L318.1,420.0 L319.0,420.0 L319.8,420.0 L320.7,420.0 L321.5,420.0 L322.4,420.0 L323.2,420.0 L324.0,420.0 L324.9,420.0 L325.7,420.0 L326.6,420.0 L327.4,420.0 L328.2,420.0 L329.1,420.0 L329.9,420.0 L330.8,420.0 L331.6,420.0 L332.5,420.0 L333.3,420.0 L334.1,420.0 L335.0,420.0 L335.8,420.0 L336.7,420.0 L337.5,420.0 L338.3,420.0 L339.2,420.0 L340.0,420.0 L340.9,420.0 L341.7,420.0 L342.6,420.0 L343.4,420.0 L344.2,420.0 L345.1,420.0 L345.9,420.0 L346.8,420.0 L347.6,420.0 L348.4,420.0 L349.3,420.0 L350.1,420.0 L351.0,420.0 L351.8,420.0 L352.7,420.0 L353.5,420.0 L354.3,420.0 L355.2,420.0 L356.0,420.0 L356.9,420.0 L357.7,420.0 L358.5,420.0 L359.4,420.0 L360.2,420.0 L361.1,420.0 L361.9,420.0 L362.7,420.0 L363.6,420.0 L364.4,420.0 L365.3,420.0 L366.1,420.0 L367.0,420.0 L367.8,420.0 L368.6,420.0 L369.5,420.0 L370.3,420.0 L371.2,420.0 L372.0,420.0 L372.8,420.0 L373.7,420.0 L374.5,420.0 L375.4,420.0 L376.2,420.0 L377.1,420.0 L377.9,420.0 L378.7,420.0 L379.6,420.0 L380.4,420.0 L381.3,420.0 L382.1,420.0 L382.9,420.0 L383.8,420.0 L384.6,420.0 L385.5,420.0 L386.3,420.0 L387.2,420.0 L388.0,420.0 L388.8,420.0 L389.7,420.0 L390.5,420.0 L391.4,420.0 L392.2,420.0 L393.0,420.0 L393.9,420.0 L394.7,420.0 L395.6,420.0 L396.4,420.0 L397.3,420.0 L398.1,420.0 L398.9,420.0 L399.8,420.0 L400.6,420.0 L401.5,420.0 L402.3,420.0 L403.1,420.0 L404.0,420.0 L404.8,420.0 L405.7,420.0 L406.5,420.0 L407.3,420.0 L408.2,420.0 L409.0,420.0 L409.9,420.0 L410.7,420.0 L411.6,420.0 L412.4,420.0 L413.2,420.0 L414.1,420.0 L414.9,420.0 L415.8,420.0 L416.6,420.0 L417.4,420.0 L418.3,420.0 L419.1,420.0 L420.0,420.0 L420.8,420.0 L421.7,420.0 L422.5,420.0 L423.3,420.0 L424.2,420.0 L425.0,420.0 L425.9,420.0 L426.7,420.0 L427.5,420.0 L428.4,420.0 L429.2,420.0 L430.1,420.0 L430.9,420.0 L431.8,420.0 L432.6,420.0 L433.4,420.0 L434.3,420.0 L435.1,420.0 L436.0,420.0 L436.8,420.0 L437.6,420.0 L438.5,420.0 L439.3,420.0 L440.2,420.0 L441.0,420.0 L441.9,420.0 L442.7,420.0 L443.5,420.0 L444.4,420.0 L445.2,420.0 L446.1,420.0 L446.9,420.0 L447.7,420.0 L448.6,420.0 L449.4,420.0 L450.3,420.0 L451.1,420.0 L451.9,420.0 L452.8,420.0 L453.6,420.0 L454.5,420.0 L455.3,420.0 L456.2,420.0 L457.0,420.0 L457.8,420.0 L458.7,420.0 L459.5,420.0 L460.4,420.0 L461.2,420.0 L462.0,420.0 L462.9,420.0 L463.7,420.0 L464.6,420.0 L465.4,420.0 L466.3,420.0 L467.1,420.0 L467.9,420.0 L468.8,420.0 L469.6,420.0 L470.5,420.0 L471.3,420.0 L472.1,420.0 L473.0,420.0 L473.8,420.0 L474.7,420.0 L475.5,420.0 L476.4,420.0 L477.2,420.0 L478.0,420.0 L478.9,420.0 L479.7,420.0 L480.6,420.0 L481.4,420.0 L482.2,420.0 L483.1,420.0 L483.9,420.0 L484.8,420.0 L485.6,420.0 L486.5,420.0 L487.3,420.0 L488.1,420.0 L489.0,420.0 L489.8,420.0 L490.7,420.0 L491.5,420.0 L492.3,420.0 L493.2,420.0 L494.0,420.0 L494.9,420.0 L495.7,420.0 L496.5,420.0 L497.4,420.0 L498.2,420.0 L499.1,420.0 L499.9,420.0 L500.8,420.0 L501.6,420.0 L502.4,420.0 L503.3,420.0 L504.1,420.0 L505.0,420.0 L505.8,420.0 L506.6,420.0 L507.5,420.0 L508.3,420.0 L509.2,420.0 L510.0,420.0 L510.9,420.0 L511.7,420.0 L512.5,420.0 L513.4,420.0 L514.2,420.0 L515.1,420.0 L515.9,420.0 L516.7,420.0 L517.6,420.0 L518.4,420.0 L519.3,420.0 L520.1,420.0 L521.0,420.0 L521.8,420.0 L522.6,420.0 L523.5,420.0 L524.3,420.0 L525.2,420.0 L526.0,420.0 L526.8,420.0 L527.7,420.0 L528.5,420.0 L529.4,420.0 L530.2,420.0 L531.1,420.0 L531.9,420.0 L532.7,420.0 L533.6,420.0 L534.4,420.0 L535.3,420.0 L536.1,420.0 L536.9,420.0 L537.8,420.0 L538.6,420.0 L539.5,420.0 L540.3,420.0 L541.2,420.0 L542.0,420.0 L542.8,420.0 L543.7,420.0 L544.5,420.0 L545.4,420.0 L546.2,420.0 L547.0,420.0 L547.9,420.0 L548.7,420.0 L549.6,420.0 L550.4,420.0 L551.2,420.0 L552.1,420.0 L552.9,420.0 L553.8,420.0 L554.6,420.0 L555.5,420.0 L556.3,420.0 L557.1,420.0 L558.0,420.0 L558.8,420.0 L559.7,420.0 L560.5,420.0 L561.3,420.0 L562.2,420.0 L563.0,420.0 L563.9,420.0 L564.7,420.0 L565.6,420.0 L566.4,420.0 L567.2,420.0 L568.1,420.0 L568.9,420.0 L569.8,420.0 L570.6,420.0 L571.4,420.0 L572.3,420.0 L573.1,420.0 L574.0,420.0 L574.8,420.0 L575.7,420.0 L576.5,420.0 L577.3,420.0 L578.2,420.0 L579.0,420.0 L579.9,420.0 L580.7,420.0 L581.5,420.0 L582.4,420.0 L583.2,420.0 L584.1,420.0 L584.9,420.0 L585.8,420.0 L586.6,420.0 L587.4,420.0 L588.3,420.0 L589.1,420.0 L590.0,420.0 L590.8,420.0 L591.6,420.0 L592.5,420.0 L593.3,420.0 L594.2,420.0 L595.0,420.0 L595.8,420.0 L596.7,420.0 L597.5,420.0 L598.4,420.0 L599.2,420.0 L600.1,420.0 L600.9,420.0 L601.7,420.0 L602.6,420.0 L603.4,420.0 L604.3,420.0 L605.1,420.0 L605.9,420.0 L606.8,420.0 L607.6,420.0 L608.5,420.0 L609.3,420.0 L610.2,420.0 L611.0,420.0 L611.8,420.0 L612.7,420.0 L613.5,420.0 L614.4,420.0 L615.2,420.0 L616.0,420.0 L616.9,420.0 L617.7,420.0 L618.6,420.0 L619.4,420.0 L620.3,420.0 L621.1,420.0 L621.9,420.0 L622.8,420.0 L623.6,420.0 L624.5,420.0 L625.3,420.0 L626.1,420.0 L627.0,420.0 L627.8,420.0 L628.7,420.0 L629.5,420.0 L630.4,420.0 L631.2,420.0 L632.0,420.0 L632.9,420.0 L633.7,420.0 L634.6,420.0 L635.4,420.0 L636.2,420.0 L637.1,420.0 L637.9,420.0 L638.8,420.0 L639.6,420.0 L640.4,420.0 L641.3,420.0 L642.1,420.0 L643.0,420.0 L643.8,420.0 L644.7,420.0 L645.5,420.0 L646.3,420.0 L647.2,420.0 L648.0,420.0 L648.9,420.0 L649.7,420.0 L650.5,420.0 L651.4,420.0 L652.2,420.0 L653.1,420.0 L653.9,420.0 L654.8,420.0 L655.6,420.0 L656.4,420.0 L657.3,420.0 L658.1,420.0 L659.0,420.0 L659.8,420.0 L660.6,420.0 L661.5,420.0 L662.3,420.0 L663.2,420.0 L664.0,420.0 L664.9,420.0 L665.7,420.0 L666.5,420.0 L667.4,420.0 L668.2,420.0 L669.1,420.0 L669.9,420.0 L670.7,420.0 L671.6,420.0 L672.4,420.0 L673.3,420.0 L674.1,420.0 L675.0,420.0 L675.8,420.0 L676.6,420.0 L677.5,420.0 L678.3,420.0 L679.2,420.0 L680.0,420.0" stroke="#e377c2" stroke-width="2" fill="none" opacity="0.8"/>

<!-- Legend -->
<line x1="690" y1="70" x2="705" y2="70" stroke="#1f77b4" stroke-width="3"/>
<text x="710" y="74" class="legend">Wind Generation</text>
<line x1="690" y1="88" x2="705" y2="88" stroke="#ff7f0e" stroke-width="3"/>
<text x="710" y="92" class="legend">Hydro Generation</text>
<line x1="690" y1="106" x2="705" y2="106" stroke="#2ca02c" stroke-width="3"/>
<text x="710" y="110" class="legend">Thermal Generation</text>
<line x1="690" y1="124" x2="705" y2="124" stroke="#d62728" stroke-width="3"/>
<text x="710" y="128" class="legend">Solar Generation</text>
<line x1="690" y1="142" x2="705" y2="142" stroke="#9467bd" stroke-width="3"/>
<text x="710" y="146" class="legend">Forecast</text>
<line x1="690" y1="160" x2="705" y2="160" stroke="#8c564b" stroke-width="3"/>
<text x="710" y="164" class="legend">Total Generation</text>
<line x1="690" y1="178" x2="705" y2="178" stroke="#e377c2" stroke-width="3"/>
<text x="710" y="182" class="legend">Forecast Difference</text>

<!-- Date range -->
<text x="80" y="495" class="legend">Range: 02/26 - 03/27/2026 (713 records)</text>
</svg>