<?xml version="1.0" encoding="UTF-8"?>
<svg width="800" height="500" xmlns="http://www.w3.org/2000/svg">
<style>
.axis-line { stroke: #333; stroke-width: 1; }
.grid-line { stroke: #ddd; stroke-width: 0.5; }
.title { font: 16px Arial; text-anchor: middle; fill: #333; }
.axis-label { font: 12px Arial; text-anchor: middle; fill: #666; }
.legend { font: 10px Arial; fill: #333; }
</style>

<!-- Title -->
<text x="400.0" y="25" class="title">Northwestern Energy Generation Data - Past 30 Days</text>

<!-- Plot area background -->
<rect x="80" y="50" width="600" height="370" fill="white" stroke="#ddd"/>

<!-- Y-axis -->
<line x1="80" y1="50" x2="80" y2="420" class="axis-line"/>
<text x="30" y="235.0" class="axis-label" transform="rotate(-90, 30, 235.0)">Generation (MW)</text>

<!-- X-axis -->
<line x1="80" y1="420" x2="680" y2="420" class="axis-line"/>
<text x="380.0" y="480" class="axis-label">Time</text>
<line x1="80" y1="420.0" x2="680" y2="420.0" class="grid-line"/>
<text x="70" y="425.0" class="legend" text-anchor="end">0</text>
<line x1="80" y1="327.5" x2="680" y2="327.5" class="grid-line"/>
<text x="70" y="332.5" class="legend" text-anchor="end">277</text>
<line x1="80" y1="235.0" x2="680" y2="235.0" class="grid-line"/>
<text x="70" y="240.0" class="legend" text-anchor="end">554</text>
<line x1="80" y1="142.5" x2="680" y2="142.5" class="grid-line"/>
<text x="70" y="147.5" class="legend" text-anchor="end">831</text>
<line x1="80" y1="50.0" x2="680" y2="50.0" class="grid-line"/>
<text x="70" y="55.0" class="legend" text-anchor="end">1108</text>
<!-- Wind Generation -->
<path d="M80.0,373.9 L80.8,358.9 L81.7,364.2 L82.5,349.9 L83.4,368.6 L84.2,361.9 L85.0,363.9 L85.9,364.6 L86.7,352.2 L87.6,346.2 L88.4,348.5 L89.3,318.8 L92.6,335.8 L93.5,321.8 L94.3,336.8 L95.1,370.2 L96.0,389.3 L96.8,403.6 L97.7,412.7 L98.5,418.0 L99.4,418.7 L100.2,416.0 L101.0,407.6 L101.9,410.3 L102.7,411.6 L103.6,415.3 L104.4,401.0 L105.2,410.6 L106.1,403.3 L106.9,406.0 L107.8,403.3 L108.6,406.0 L109.5,401.3 L110.3,398.3 L111.1,408.0 L112.0,400.3 L112.8,412.3 L113.7,419.7 L114.5,420.0 L115.3,416.0 L116.2,410.3 L117.0,415.0 L117.9,400.6 L118.7,395.3 L119.6,403.0 L120.4,402.6 L121.2,409.0 L122.1,416.7 L122.9,416.0 L123.8,416.7 L124.6,414.0 L125.4,411.0 L126.3,392.9 L127.1,411.3 L128.0,405.0 L128.8,381.6 L129.6,381.6 L130.5,370.6 L131.3,379.3 L132.2,389.3 L133.0,380.9 L133.9,378.9 L134.7,380.3 L135.5,350.9 L136.4,344.8 L137.2,360.5 L138.1,357.5 L138.9,355.5 L139.7,383.3 L140.6,378.6 L141.4,387.6 L142.3,379.9 L143.1,393.9 L144.0,405.3 L144.8,401.6 L145.6,382.3 L146.5,380.3 L147.3,363.2 L148.2,367.6 L149.0,377.9 L149.8,377.2 L150.7,382.9 L151.5,380.6 L152.4,382.9 L153.2,386.6 L154.1,391.6 L154.9,407.0 L155.7,410.3 L156.6,403.3 L157.4,392.9 L158.3,394.3 L159.1,394.3 L159.9,370.6 L160.8,357.2 L161.6,350.9 L162.5,349.9 L163.3,351.9 L164.2,359.9 L165.0,358.2 L165.8,344.5 L166.7,334.5 L167.5,323.8 L168.4,331.2 L169.2,341.2 L170.0,355.2 L170.9,360.5 L171.7,364.6 L172.6,369.6 L173.4,365.9 L174.2,371.9 L175.1,381.6 L175.9,394.6 L176.8,400.6 L177.6,412.3 L178.5,417.3 L179.3,418.7 L180.1,418.7 L181.0,416.7 L181.8,413.3 L182.7,411.0 L183.5,408.6 L184.3,406.3 L185.2,404.3 L186.0,403.6 L186.9,394.9 L187.7,383.9 L188.6,374.2 L189.4,389.3 L190.2,382.6 L191.1,380.3 L191.9,355.2 L192.8,332.8 L193.6,341.2 L194.4,350.5 L195.3,355.2 L196.1,347.2 L197.0,342.5 L197.8,381.9 L198.7,397.6 L199.5,407.6 L200.3,417.0 L201.2,413.7 L202.0,414.0 L202.9,412.3 L203.7,405.6 L204.5,402.0 L205.4,401.6 L206.2,394.9 L207.1,390.3 L207.9,390.3 L208.8,388.3 L209.6,397.0 L210.4,395.3 L211.3,401.0 L212.1,404.6 L213.0,409.3 L213.8,407.0 L214.6,407.0 L215.5,404.0 L216.3,404.6 L217.2,397.0 L218.0,386.3 L218.8,381.6 L219.7,391.3 L220.5,394.3 L221.4,392.6 L222.2,395.3 L223.1,393.6 L223.9,388.9 L224.7,394.3 L225.6,399.0 L226.4,387.9 L227.3,393.6 L228.1,372.9 L228.9,366.9 L229.8,363.2 L230.6,368.2 L231.5,355.2 L232.3,356.2 L233.2,367.2 L234.0,383.9 L234.8,394.6 L235.7,408.0 L236.5,411.3 L237.4,413.7 L238.2,415.3 L239.0,411.6 L239.9,400.3 L240.7,396.3 L241.6,398.6 L242.4,397.3 L243.3,395.6 L244.1,384.9 L244.9,388.6 L245.8,390.6 L246.6,385.6 L247.5,396.3 L248.3,395.3 L249.1,368.2 L250.0,377.9 L250.8,400.0 L251.7,409.6 L252.5,411.6 L253.4,407.0 L254.2,402.6 L255.0,386.6 L255.9,379.9 L256.7,380.9 L257.6,372.9 L258.4,364.9 L259.2,356.2 L260.1,364.6 L260.9,369.6 L261.8,388.6 L262.6,405.3 L263.5,411.6 L264.3,418.0 L265.1,420.0 L266.0,420.0 L266.8,420.0 L267.7,413.3 L268.5,409.3 L269.3,418.7 L270.2,419.0 L271.0,411.3 L271.9,392.9 L272.7,407.3 L273.5,402.6 L274.4,409.3 L275.2,409.3 L276.1,387.9 L276.9,385.3 L277.8,369.6 L278.6,387.6 L279.4,389.9 L280.3,401.3 L281.1,387.9 L282.0,393.6 L282.8,392.9 L283.6,398.0 L284.5,402.3 L285.3,400.3 L286.2,401.6 L287.0,400.0 L287.9,370.9 L288.7,374.6 L289.5,394.3 L290.4,401.6 L291.2,394.9 L292.1,386.3 L292.9,368.9 L293.7,387.6 L294.6,403.3 L295.4,384.6 L296.3,377.9 L297.1,373.6 L298.0,376.6 L298.8,388.6 L299.6,325.8 L300.5,305.8 L301.3,306.8 L302.2,324.8 L303.0,339.2 L303.8,329.5 L304.7,318.5 L305.5,327.5 L306.4,320.1 L307.2,298.8 L308.1,281.4 L308.9,284.7 L309.7,287.4 L310.6,307.8 L311.4,309.4 L312.3,306.8 L313.1,314.1 L313.9,317.1 L314.8,330.5 L315.6,342.2 L316.5,356.2 L317.3,354.9 L318.1,353.2 L319.0,358.9 L319.8,368.2 L320.7,370.6 L321.5,377.9 L322.4,370.6 L323.2,373.2 L324.0,382.3 L324.9,382.9 L325.7,389.3 L326.6,399.6 L327.4,400.3 L328.2,401.0 L329.1,396.0 L329.9,393.3 L330.8,389.9 L331.6,393.9 L332.5,400.3 L333.3,406.6 L334.1,409.0 L335.0,410.0 L335.8,412.7 L336.7,413.3 L337.5,413.7 L338.3,413.0 L339.2,415.0 L340.0,415.7 L340.9,416.3 L341.7,417.3 L342.6,416.7 L343.4,418.0 L344.2,418.7 L345.1,420.0 L345.9,420.0 L346.8,420.0 L347.6,420.0 L348.4,420.0 L349.3,420.0 L350.1,420.0 L351.0,420.0 L351.8,420.0 L352.7,420.0 L353.5,420.0 L354.3,420.0 L355.2,420.0 L356.0,420.0 L356.9,420.0 L357.7,420.0 L358.5,420.0 L359.4,420.0 L360.2,420.0 L361.1,420.0 L361.9,419.7 L362.7,416.0 L363.6,417.3 L364.4,418.7 L365.3,420.0 L366.1,418.3 L367.0,420.0 L367.8,418.7 L368.6,418.0 L369.5,420.0 L370.3,420.0 L371.2,416.0 L372.0,420.0 L372.8,420.0 L373.7,420.0 L374.5,420.0 L375.4,420.0 L376.2,420.0 L377.1,419.7 L377.9,416.3 L378.7,417.7 L379.6,418.7 L380.4,419.7 L381.3,419.3 L382.1,411.6 L382.9,403.0 L383.8,410.6 L384.6,402.3 L385.5,387.6 L386.3,399.0 L387.2,370.9 L388.0,348.2 L388.8,341.8 L389.7,332.5 L390.5,324.8 L391.4,349.9 L392.2,355.9 L393.0,365.2 L393.9,360.5 L394.7,357.9 L395.6,354.5 L396.4,364.9 L397.3,353.9 L398.1,335.2 L398.9,323.1 L399.8,322.5 L400.6,308.4 L401.5,317.8 L402.3,297.8 L403.1,287.1 L404.0,284.1 L404.8,283.4 L405.7,288.1 L406.5,291.7 L407.3,291.7 L408.2,281.7 L409.0,285.4 L409.9,291.1 L410.7,283.4 L411.6,282.4 L412.4,281.1 L413.2,278.0 L414.1,278.0 L414.9,285.4 L415.8,283.7 L416.6,285.4 L417.4,281.7 L418.3,307.4 L419.1,297.4 L420.0,279.0 L420.8,303.4 L421.7,334.8 L422.5,314.5 L423.3,343.5 L424.2,337.8 L425.0,328.5 L425.9,304.4 L426.7,342.2 L427.5,344.2 L428.4,351.2 L429.2,346.9 L430.1,362.9 L430.9,362.9 L431.8,346.9 L432.6,350.5 L433.4,316.1 L434.3,313.8 L435.1,299.4 L436.0,292.7 L436.8,286.7 L437.6,284.4 L438.5,289.4 L439.3,333.8 L440.2,365.9 L441.0,377.2 L441.9,355.9 L442.7,356.5 L443.5,360.9 L444.4,355.9 L445.2,347.9 L446.1,334.2 L446.9,339.2 L447.7,362.6 L448.6,351.2 L449.4,350.9 L450.3,372.9 L451.1,375.9 L451.9,382.6 L452.8,375.9 L453.6,361.9 L454.5,362.9 L455.3,347.9 L456.2,291.7 L457.0,310.8 L457.8,302.1 L458.7,279.7 L459.5,315.8 L460.4,298.1 L461.2,292.4 L462.0,308.4 L462.9,286.4 L463.7,292.7 L464.6,288.1 L465.4,297.8 L466.3,285.4 L467.1,285.1 L467.9,285.4 L468.8,290.4 L469.6,287.7 L470.5,288.4 L471.3,298.8 L472.1,297.1 L473.0,295.7 L473.8,299.8 L474.7,314.5 L475.5,305.4 L476.4,293.1 L477.2,326.1 L478.0,335.8 L478.9,316.8 L479.7,273.0 L480.6,286.7 L481.4,284.4 L482.2,287.4 L483.1,272.7 L483.9,278.7 L484.8,276.4 L485.6,278.7 L486.5,278.7 L487.3,288.7 L488.1,286.1 L489.0,288.4 L489.8,284.7 L490.7,280.4 L491.5,287.4 L492.3,288.7 L493.2,295.4 L494.0,308.1 L494.9,293.1 L495.7,300.1 L496.5,285.4 L497.4,280.7 L498.2,282.4 L499.1,287.4 L499.9,302.4 L500.8,340.5 L501.6,354.5 L502.4,373.2 L503.3,392.9 L504.1,402.0 L505.0,409.6 L505.8,405.6 L506.6,401.3 L507.5,384.6 L508.3,383.3 L509.2,380.9 L510.0,381.9 L510.9,384.9 L511.7,386.3 L512.5,382.6 L513.4,397.3 L514.2,399.3 L515.1,397.0 L515.9,394.9 L516.7,399.3 L517.6,404.6 L518.4,403.6 L519.3,402.0 L520.1,398.3 L521.0,400.0 L521.8,396.3 L522.6,410.6 L523.5,407.6 L524.3,407.6 L525.2,400.3 L526.0,387.9 L526.8,376.2 L527.7,350.5 L528.5,327.5 L529.4,309.1 L530.2,319.5 L531.1,311.1 L531.9,285.1 L532.7,290.1 L533.6,302.1 L534.4,334.5 L535.3,348.9 L536.1,359.5 L536.9,338.5 L537.8,325.1 L538.6,325.1 L539.5,301.8 L540.3,328.1 L541.2,318.8 L542.0,351.9 L542.8,334.2 L543.7,324.1 L544.5,321.5 L545.4,349.2 L546.2,349.5 L547.0,335.8 L547.9,305.1 L548.7,305.1 L549.6,301.4 L550.4,312.1 L551.2,306.8 L552.1,297.8 L552.9,304.4 L553.8,317.8 L554.6,302.4 L555.5,316.8 L556.3,329.8 L557.1,339.5 L558.0,367.6 L558.8,387.6 L559.7,390.6 L560.5,389.3 L561.3,394.3 L562.2,392.6 L563.0,390.6 L563.9,385.3 L564.7,363.2 L565.6,363.6 L566.4,362.2 L567.2,366.2 L568.1,372.9 L568.9,374.2 L569.8,375.2 L570.6,377.2 L571.4,385.3 L572.3,388.6 L573.1,377.2 L574.0,378.9 L574.8,397.3 L575.7,409.0 L576.5,415.0 L577.3,409.3 L578.2,388.3 L579.0,403.0 L579.9,368.2 L580.7,368.9 L581.5,404.3 L582.4,407.0 L583.2,387.6 L584.1,365.6 L584.9,350.5 L585.8,353.5 L586.6,321.1 L587.4,324.5 L588.3,301.1 L589.1,290.4 L590.0,303.1 L590.8,295.4 L591.6,288.4 L592.5,298.8 L593.3,306.8 L594.2,304.4 L595.0,277.4 L595.8,272.7 L596.7,284.7 L597.5,283.7 L598.4,304.1 L599.2,310.8 L600.1,285.7 L600.9,319.1 L601.7,355.2 L602.6,379.6 L603.4,401.6 L604.3,394.6 L605.1,399.0 L605.9,400.0 L606.8,398.0 L607.6,392.6 L608.5,371.6 L609.3,353.9 L610.2,344.8 L611.0,330.5 L611.8,288.7 L612.7,315.8 L613.5,303.4 L614.4,291.4 L615.2,282.4 L616.0,283.4 L616.9,276.7 L617.7,274.0 L618.6,279.4 L619.4,275.0 L620.3,272.0 L621.1,301.4 L621.9,313.1 L622.8,311.4 L623.6,284.4 L624.5,295.7 L625.3,313.5 L626.1,338.5 L627.0,317.8 L627.8,298.1 L628.7,280.7 L629.5,286.7 L630.4,295.1 L631.2,300.1 L632.0,314.8 L632.9,344.8 L633.7,362.6 L634.6,353.5 L635.4,330.2 L636.2,347.5 L637.1,361.9 L637.9,357.9 L638.8,352.2 L639.6,369.6 L640.4,390.9 L641.3,391.9 L642.1,390.9 L643.0,403.0 L643.8,399.0 L644.7,398.0 L645.5,401.0 L646.3,397.3 L647.2,388.3 L648.0,379.9 L648.9,375.6 L649.7,375.6 L650.5,374.6 L651.4,366.2 L652.2,367.6 L653.1,349.5 L653.9,346.2 L654.8,359.2 L655.6,365.6 L656.4,341.8 L657.3,299.4 L658.1,306.4 L659.0,274.0 L659.8,272.7 L660.6,272.7 L661.5,273.0 L662.3,283.7 L663.2,280.4 L664.0,278.4 L664.9,285.1 L665.7,274.7 L666.5,283.4 L667.4,302.4 L668.2,306.4 L669.1,304.8 L669.9,316.8 L670.7,338.2 L671.6,338.2 L672.4,353.9 L673.3,361.5 L674.1,391.9 L675.0,398.3 L675.8,387.6 L676.6,393.3 L677.5,395.6 L678.3,401.3 L679.2,404.0 L680.0,395.6" stroke="#1f77b4" stroke-width="2" fill="none" opacity="0.8"/>
<!-- Hydro Generation -->
<path d="M80.0,362.9 L80.8,362.9 L81.7,362.6 L82.5,362.9 L83.4,362.9 L84.2,362.6 L85.0,362.9 L85.9,363.6 L86.7,362.9 L87.6,362.6 L88.4,362.6 L89.3,361.9 L92.6,361.5 L93.5,361.2 L94.3,360.9 L95.1,361.2 L96.0,360.9 L96.8,360.5 L97.7,360.5 L98.5,360.9 L99.4,360.9 L100.2,361.2 L101.0,360.9 L101.9,360.9 L102.7,360.9 L103.6,360.9 L104.4,361.2 L105.2,360.9 L106.1,361.9 L106.9,361.2 L107.8,361.5 L108.6,361.5 L109.5,362.2 L110.3,362.9 L111.1,362.9 L112.0,362.6 L112.8,362.9 L113.7,362.6 L114.5,362.2 L115.3,362.9 L116.2,362.2 L117.0,362.6 L117.9,362.6 L118.7,362.6 L119.6,362.9 L120.4,362.6 L121.2,362.6 L122.1,362.2 L122.9,362.2 L123.8,362.2 L124.6,362.6 L125.4,362.2 L126.3,361.9 L127.1,361.9 L128.0,362.6 L128.8,361.9 L129.6,362.2 L130.5,362.6 L131.3,361.2 L132.2,361.2 L133.0,361.2 L133.9,360.9 L134.7,360.9 L135.5,360.5 L136.4,360.5 L137.2,361.2 L138.1,361.2 L138.9,361.5 L139.7,361.5 L140.6,361.5 L141.4,361.5 L142.3,361.2 L143.1,361.2 L144.0,361.2 L144.8,361.2 L145.6,361.2 L146.5,361.2 L147.3,360.9 L148.2,361.2 L149.0,361.5 L149.8,361.2 L150.7,361.2 L151.5,361.5 L152.4,361.5 L153.2,361.9 L154.1,361.9 L154.9,361.5 L155.7,361.9 L156.6,362.2 L157.4,362.6 L158.3,361.9 L159.1,362.2 L159.9,362.2 L160.8,362.2 L161.6,362.2 L162.5,362.2 L163.3,361.5 L164.2,361.9 L165.0,361.9 L165.8,361.5 L166.7,361.5 L167.5,361.5 L168.4,361.5 L169.2,360.2 L170.0,359.9 L170.9,358.9 L171.7,358.9 L172.6,359.2 L173.4,359.2 L174.2,359.2 L175.1,359.5 L175.9,360.5 L176.8,361.5 L177.6,361.5 L178.5,361.2 L179.3,360.9 L180.1,360.9 L181.0,360.9 L181.8,360.9 L182.7,361.2 L183.5,361.5 L184.3,360.9 L185.2,360.5 L186.0,360.2 L186.9,360.2 L187.7,360.2 L188.6,360.5 L189.4,359.5 L190.2,359.2 L191.1,359.2 L191.9,359.9 L192.8,359.5 L193.6,359.5 L194.4,359.2 L195.3,359.5 L196.1,359.5 L197.0,359.2 L197.8,359.9 L198.7,359.5 L199.5,360.2 L200.3,359.9 L201.2,359.9 L202.0,360.5 L202.9,360.9 L203.7,360.5 L204.5,360.5 L205.4,360.2 L206.2,360.9 L207.1,360.5 L207.9,361.2 L208.8,360.9 L209.6,361.2 L210.4,361.2 L211.3,360.5 L212.1,360.5 L213.0,360.2 L213.8,359.9 L214.6,359.9 L215.5,359.2 L216.3,359.2 L217.2,358.5 L218.0,359.2 L218.8,358.9 L219.7,358.9 L220.5,359.2 L221.4,359.5 L222.2,359.2 L223.1,359.2 L223.9,359.5 L224.7,360.2 L225.6,359.9 L226.4,360.2 L227.3,360.2 L228.1,360.2 L228.9,360.5 L229.8,360.5 L230.6,360.9 L231.5,360.9 L232.3,359.5 L233.2,359.5 L234.0,358.9 L234.8,360.9 L235.7,359.9 L236.5,360.5 L237.4,354.9 L238.2,355.2 L239.0,355.2 L239.9,355.9 L240.7,355.9 L241.6,356.9 L242.4,356.5 L243.3,356.9 L244.1,356.9 L244.9,356.2 L245.8,356.5 L246.6,356.5 L247.5,356.9 L248.3,356.2 L249.1,356.2 L250.0,356.5 L250.8,356.2 L251.7,356.9 L252.5,355.5 L253.4,355.5 L254.2,355.2 L255.0,354.2 L255.9,354.9 L256.7,354.5 L257.6,355.2 L258.4,355.2 L259.2,355.2 L260.1,355.5 L260.9,355.5 L261.8,355.5 L262.6,355.2 L263.5,355.5 L264.3,356.2 L265.1,355.9 L266.0,355.9 L266.8,354.9 L267.7,354.9 L268.5,355.2 L269.3,354.5 L270.2,354.9 L271.0,354.5 L271.9,354.9 L272.7,354.5 L273.5,354.5 L274.4,354.5 L275.2,354.5 L276.1,354.9 L276.9,354.9 L277.8,354.5 L278.6,354.9 L279.4,355.2 L280.3,355.5 L281.1,355.5 L282.0,355.2 L282.8,355.5 L283.6,355.9 L284.5,354.9 L285.3,356.2 L286.2,355.9 L287.0,356.2 L287.9,356.5 L288.7,356.5 L289.5,356.5 L290.4,356.5 L291.2,356.2 L292.1,356.5 L292.9,356.2 L293.7,356.2 L294.6,355.9 L295.4,356.5 L296.3,356.2 L297.1,355.2 L298.0,355.5 L298.8,356.2 L299.6,355.5 L300.5,355.9 L301.3,355.5 L302.2,355.5 L303.0,355.5 L303.8,355.2 L304.7,355.5 L305.5,355.5 L306.4,355.5 L307.2,355.2 L308.1,355.5 L308.9,355.2 L309.7,355.5 L310.6,355.2 L311.4,355.5 L312.3,355.2 L313.1,355.2 L313.9,355.2 L314.8,354.9 L315.6,354.9 L316.5,355.2 L317.3,355.2 L318.1,355.5 L319.0,355.2 L319.8,355.5 L320.7,355.9 L321.5,355.9 L322.4,356.2 L323.2,355.9 L324.0,355.9 L324.9,356.2 L325.7,355.5 L326.6,355.2 L327.4,354.9 L328.2,355.2 L329.1,355.2 L329.9,355.5 L330.8,355.5 L331.6,355.2 L332.5,355.9 L333.3,355.2 L334.1,355.9 L335.0,355.5 L335.8,355.9 L336.7,355.9 L337.5,355.5 L338.3,355.5 L339.2,354.9 L340.0,353.9 L340.9,354.2 L341.7,353.5 L342.6,353.9 L343.4,353.9 L344.2,352.5 L345.1,353.2 L345.9,352.5 L346.8,352.9 L347.6,352.9 L348.4,352.9 L349.3,352.2 L350.1,352.2 L351.0,352.5 L351.8,351.9 L352.7,351.9 L353.5,352.9 L354.3,352.9 L355.2,352.9 L356.0,352.2 L356.9,353.9 L357.7,355.2 L358.5,355.2 L359.4,355.5 L360.2,355.2 L361.1,355.5 L361.9,355.2 L362.7,355.2 L363.6,355.2 L364.4,355.2 L365.3,355.2 L366.1,355.2 L367.0,355.2 L367.8,355.5 L368.6,355.5 L369.5,354.9 L370.3,355.2 L371.2,355.2 L372.0,355.2 L372.8,354.9 L373.7,354.5 L374.5,353.5 L375.4,353.5 L376.2,353.9 L377.1,352.5 L377.9,352.5 L378.7,352.9 L379.6,352.9 L380.4,352.9 L381.3,352.5 L382.1,352.2 L382.9,351.9 L383.8,351.5 L384.6,351.5 L385.5,351.9 L386.3,351.5 L387.2,350.9 L388.0,350.9 L388.8,351.2 L389.7,351.5 L390.5,351.2 L391.4,351.2 L392.2,351.2 L393.0,350.5 L393.9,351.5 L394.7,350.9 L395.6,345.8 L396.4,349.2 L397.3,351.2 L398.1,351.2 L398.9,351.5 L399.8,352.2 L400.6,351.9 L401.5,351.9 L402.3,352.5 L403.1,352.2 L404.0,351.9 L404.8,350.9 L405.7,350.2 L406.5,350.5 L407.3,350.9 L408.2,350.9 L409.0,350.5 L409.9,351.2 L410.7,352.5 L411.6,352.9 L412.4,352.5 L413.2,353.9 L414.1,352.9 L414.9,352.5 L415.8,352.5 L416.6,353.2 L417.4,352.9 L418.3,353.5 L419.1,353.5 L420.0,353.5 L420.8,353.9 L421.7,353.5 L422.5,353.5 L423.3,353.9 L424.2,353.2 L425.0,352.5 L425.9,352.2 L426.7,352.2 L427.5,352.5 L428.4,352.5 L429.2,352.2 L430.1,352.5 L430.9,353.2 L431.8,353.2 L432.6,353.2 L433.4,353.2 L434.3,352.5 L435.1,352.5 L436.0,352.9 L436.8,352.9 L437.6,353.2 L438.5,352.5 L439.3,352.2 L440.2,352.5 L441.0,352.5 L441.9,352.5 L442.7,352.2 L443.5,352.2 L444.4,352.2 L445.2,352.2 L446.1,352.2 L446.9,351.9 L447.7,351.9 L448.6,351.9 L449.4,352.2 L450.3,351.9 L451.1,351.5 L451.9,352.2 L452.8,352.5 L453.6,352.5 L454.5,352.9 L455.3,352.2 L456.2,352.5 L457.0,352.9 L457.8,353.2 L458.7,352.9 L459.5,354.2 L460.4,354.5 L461.2,355.5 L462.0,355.9 L462.9,356.5 L463.7,357.5 L464.6,357.2 L465.4,357.2 L466.3,357.2 L467.1,356.9 L467.9,356.5 L468.8,356.2 L469.6,355.5 L470.5,355.9 L471.3,356.2 L472.1,355.2 L473.0,354.2 L473.8,354.2 L474.7,354.9 L475.5,354.9 L476.4,354.9 L477.2,354.9 L478.0,357.2 L478.9,353.5 L479.7,353.2 L480.6,353.9 L481.4,354.2 L482.2,353.2 L483.1,353.5 L483.9,353.5 L484.8,354.2 L485.6,354.2 L486.5,354.9 L487.3,354.2 L488.1,354.5 L489.0,354.5 L489.8,353.2 L490.7,352.2 L491.5,352.5 L492.3,362.6 L493.2,362.6 L494.0,362.9 L494.9,362.6 L495.7,362.2 L496.5,362.2 L497.4,362.6 L498.2,354.9 L499.1,352.5 L499.9,352.5 L500.8,352.9 L501.6,352.5 L502.4,352.5 L503.3,352.9 L504.1,352.5 L505.0,353.2 L505.8,352.5 L506.6,352.5 L507.5,353.2 L508.3,352.9 L509.2,353.2 L510.0,353.2 L510.9,352.9 L511.7,355.5 L512.5,355.2 L513.4,355.2 L514.2,353.9 L515.1,354.2 L515.9,353.9 L516.7,353.9 L517.6,353.9 L518.4,353.2 L519.3,354.2 L520.1,353.9 L521.0,354.2 L521.8,354.9 L522.6,355.2 L523.5,356.5 L524.3,356.9 L525.2,356.5 L526.0,356.2 L526.8,357.2 L527.7,355.5 L528.5,355.2 L529.4,355.2 L530.2,355.5 L531.1,355.2 L531.9,355.2 L532.7,355.2 L533.6,355.2 L534.4,355.2 L535.3,354.5 L536.1,354.2 L536.9,354.9 L537.8,354.9 L538.6,354.5 L539.5,354.9 L540.3,354.2 L541.2,355.5 L542.0,354.9 L542.8,354.9 L543.7,354.9 L544.5,355.2 L545.4,354.9 L546.2,355.5 L547.0,355.2 L547.9,355.9 L548.7,355.5 L549.6,355.2 L550.4,355.2 L551.2,355.9 L552.1,355.9 L552.9,356.2 L553.8,355.9 L554.6,355.9 L555.5,355.5 L556.3,355.5 L557.1,355.2 L558.0,355.9 L558.8,355.9 L559.7,355.5 L560.5,354.9 L561.3,355.2 L562.2,355.5 L563.0,355.5 L563.9,355.2 L564.7,355.2 L565.6,355.2 L566.4,355.9 L567.2,355.9 L568.1,356.2 L568.9,355.9 L569.8,356.5 L570.6,355.9 L571.4,355.9 L572.3,356.2 L573.1,355.5 L574.0,355.9 L574.8,356.2 L575.7,352.5 L576.5,337.8 L577.3,355.5 L578.2,355.5 L579.0,355.5 L579.9,354.9 L580.7,355.5 L581.5,355.2 L582.4,355.5 L583.2,355.5 L584.1,355.5 L584.9,355.2 L585.8,355.5 L586.6,355.2 L587.4,355.2 L588.3,355.9 L589.1,354.9 L590.0,356.2 L590.8,354.9 L591.6,354.2 L592.5,354.9 L593.3,354.9 L594.2,354.9 L595.0,354.9 L595.8,353.2 L596.7,353.2 L597.5,352.9 L598.4,353.5 L599.2,352.9 L600.1,353.2 L600.9,352.5 L601.7,353.2 L602.6,353.2 L603.4,352.2 L604.3,353.9 L605.1,353.9 L605.9,353.5 L606.8,353.5 L607.6,354.2 L608.5,354.2 L609.3,354.2 L610.2,353.5 L611.0,354.2 L611.8,354.9 L612.7,354.9 L613.5,362.2 L614.4,362.2 L615.2,362.9 L616.0,361.9 L616.9,362.2 L617.7,362.6 L618.6,362.9 L619.4,361.5 L620.3,361.9 L621.1,361.5 L621.9,361.2 L622.8,361.5 L623.6,361.5 L624.5,361.5 L625.3,361.5 L626.1,361.5 L627.0,361.5 L627.8,360.9 L628.7,360.9 L629.5,361.5 L630.4,361.2 L631.2,360.9 L632.0,361.2 L632.9,361.5 L633.7,361.9 L634.6,363.2 L635.4,362.9 L636.2,362.6 L637.1,362.6 L637.9,362.9 L638.8,362.2 L639.6,362.2 L640.4,362.6 L641.3,362.2 L642.1,362.2 L643.0,362.2 L643.8,362.2 L644.7,362.9 L645.5,363.2 L646.3,363.6 L647.2,364.2 L648.0,363.9 L648.9,363.6 L649.7,362.9 L650.5,361.5 L651.4,362.2 L652.2,361.9 L653.1,362.6 L653.9,362.2 L654.8,361.9 L655.6,362.2 L656.4,361.9 L657.3,361.5 L658.1,361.5 L659.0,361.9 L659.8,361.9 L660.6,361.5 L661.5,361.2 L662.3,360.9 L663.2,362.2 L664.0,362.2 L664.9,362.2 L665.7,363.2 L666.5,363.2 L667.4,363.6 L668.2,363.9 L669.1,363.6 L669.9,363.2 L670.7,363.2 L671.6,362.9 L672.4,363.2 L673.3,363.2 L674.1,363.6 L675.0,363.6 L675.8,362.9 L676.6,362.2 L677.5,362.2 L678.3,362.2 L679.2,361.9 L680.0,353.9" stroke="#ff7f0e" stroke-width="2" fill="none" opacity="0.8"/>
<!-- Thermal Generation -->
<path d="M80.0,331.2 L80.8,331.5 L81.7,329.1 L82.5,329.5 L83.4,329.8 L84.2,330.2 L85.0,329.8 L85.9,330.2 L86.7,323.8 L87.6,330.8 L88.4,331.2 L89.3,330.5 L92.6,381.9 L93.5,372.2 L94.3,358.9 L95.1,328.8 L96.0,328.5 L96.8,293.4 L97.7,292.7 L98.5,291.1 L99.4,290.7 L100.2,290.7 L101.0,294.1 L101.9,292.4 L102.7,301.1 L103.6,317.1 L104.4,317.1 L105.2,317.1 L106.1,324.1 L106.9,291.7 L107.8,291.4 L108.6,329.8 L109.5,329.5 L110.3,308.8 L111.1,316.1 L112.0,321.5 L112.8,307.8 L113.7,309.8 L114.5,314.5 L115.3,312.4 L116.2,291.7 L117.0,288.1 L117.9,288.4 L118.7,288.7 L119.6,289.4 L120.4,293.4 L121.2,301.4 L122.1,287.4 L122.9,293.1 L123.8,316.5 L124.6,319.5 L125.4,310.8 L126.3,304.1 L127.1,288.1 L128.0,295.1 L128.8,305.1 L129.6,304.1 L130.5,316.1 L131.3,298.4 L132.2,308.4 L133.0,326.1 L133.9,328.8 L134.7,329.5 L135.5,322.1 L136.4,328.5 L137.2,288.4 L138.1,305.4 L138.9,323.1 L139.7,313.8 L140.6,310.4 L141.4,317.5 L142.3,318.8 L143.1,297.8 L144.0,298.1 L144.8,317.1 L145.6,314.8 L146.5,316.8 L147.3,307.1 L148.2,302.4 L149.0,331.5 L149.8,299.8 L150.7,312.8 L151.5,317.5 L152.4,299.1 L153.2,309.4 L154.1,307.8 L154.9,305.1 L155.7,298.4 L156.6,296.8 L157.4,295.4 L158.3,295.7 L159.1,298.8 L159.9,304.4 L160.8,312.8 L161.6,294.4 L162.5,293.4 L163.3,315.5 L164.2,315.8 L165.0,295.7 L165.8,312.1 L166.7,294.4 L167.5,286.1 L168.4,289.1 L169.2,285.1 L170.0,329.1 L170.9,331.2 L171.7,324.5 L172.6,317.8 L173.4,326.1 L174.2,329.8 L175.1,314.8 L175.9,289.7 L176.8,283.1 L177.6,285.1 L178.5,287.4 L179.3,285.1 L180.1,283.7 L181.0,284.1 L181.8,288.1 L182.7,284.7 L183.5,289.4 L184.3,287.7 L185.2,287.4 L186.0,293.1 L186.9,285.1 L187.7,285.7 L188.6,285.1 L189.4,302.8 L190.2,332.5 L191.1,331.5 L191.9,332.8 L192.8,331.5 L193.6,332.8 L194.4,332.8 L195.3,332.8 L196.1,313.5 L197.0,292.7 L197.8,284.1 L198.7,284.1 L199.5,284.7 L200.3,288.4 L201.2,284.1 L202.0,284.7 L202.9,283.1 L203.7,284.1 L204.5,299.1 L205.4,303.8 L206.2,299.8 L207.1,282.1 L207.9,284.7 L208.8,281.7 L209.6,311.8 L210.4,326.5 L211.3,329.8 L212.1,329.5 L213.0,330.8 L213.8,330.2 L214.6,330.5 L215.5,330.2 L216.3,327.1 L217.2,282.7 L218.0,281.7 L218.8,281.7 L219.7,281.7 L220.5,281.7 L221.4,288.7 L222.2,308.4 L223.1,316.5 L223.9,317.5 L224.7,324.1 L225.6,327.5 L226.4,317.8 L227.3,311.4 L228.1,295.7 L228.9,293.1 L229.8,315.8 L230.6,323.8 L231.5,328.1 L232.3,328.5 L233.2,352.9 L234.0,353.5 L234.8,346.5 L235.7,331.2 L236.5,331.2 L237.4,322.5 L238.2,284.4 L239.0,283.1 L239.9,283.1 L240.7,285.1 L241.6,284.4 L242.4,284.4 L243.3,285.4 L244.1,330.5 L244.9,328.8 L245.8,328.8 L246.6,322.5 L247.5,319.5 L248.3,316.1 L249.1,287.4 L250.0,304.4 L250.8,328.8 L251.7,319.1 L252.5,317.8 L253.4,308.4 L254.2,308.8 L255.0,283.7 L255.9,297.4 L256.7,314.8 L257.6,301.8 L258.4,300.1 L259.2,303.4 L260.1,301.4 L260.9,304.4 L261.8,286.4 L262.6,283.7 L263.5,284.4 L264.3,284.4 L265.1,311.1 L266.0,305.1 L266.8,298.8 L267.7,293.1 L268.5,297.8 L269.3,286.7 L270.2,292.4 L271.0,288.1 L271.9,286.7 L272.7,285.7 L273.5,286.1 L274.4,286.4 L275.2,302.4 L276.1,316.5 L276.9,307.4 L277.8,287.4 L278.6,287.7 L279.4,290.1 L280.3,292.1 L281.1,312.1 L282.0,315.8 L282.8,319.1 L283.6,321.1 L284.5,321.5 L285.3,315.1 L286.2,314.8 L287.0,317.1 L287.9,317.5 L288.7,317.8 L289.5,289.4 L290.4,309.1 L291.2,305.4 L292.1,320.8 L292.9,316.8 L293.7,323.8 L294.6,341.8 L295.4,326.1 L296.3,325.8 L297.1,324.1 L298.0,330.5 L298.8,294.1 L299.6,306.1 L300.5,312.1 L301.3,334.8 L302.2,344.5 L303.0,340.2 L303.8,343.5 L304.7,340.2 L305.5,340.2 L306.4,339.5 L307.2,343.2 L308.1,342.2 L308.9,338.8 L309.7,352.9 L310.6,365.9 L311.4,374.9 L312.3,363.9 L313.1,336.2 L313.9,335.8 L314.8,356.9 L315.6,353.2 L316.5,336.2 L317.3,304.8 L318.1,312.4 L319.0,296.1 L319.8,296.8 L320.7,297.1 L321.5,296.8 L322.4,297.8 L323.2,296.8 L324.0,296.8 L324.9,299.1 L325.7,314.1 L326.6,313.1 L327.4,313.1 L328.2,297.1 L329.1,297.4 L329.9,297.8 L330.8,319.5 L331.6,327.5 L332.5,328.1 L333.3,326.8 L334.1,330.2 L335.0,329.1 L335.8,325.5 L336.7,325.5 L337.5,325.5 L338.3,311.8 L339.2,314.1 L340.0,315.5 L340.9,326.8 L341.7,330.5 L342.6,327.1 L343.4,326.5 L344.2,329.8 L345.1,330.2 L345.9,330.5 L346.8,330.8 L347.6,330.5 L348.4,332.8 L349.3,332.5 L350.1,329.1 L351.0,331.5 L351.8,327.8 L352.7,330.2 L353.5,329.1 L354.3,326.5 L355.2,324.8 L356.0,325.1 L356.9,324.8 L357.7,321.5 L358.5,318.5 L359.4,317.8 L360.2,320.5 L361.1,312.4 L361.9,319.1 L362.7,319.8 L363.6,303.1 L364.4,285.7 L365.3,285.1 L366.1,285.1 L367.0,285.4 L367.8,285.4 L368.6,284.7 L369.5,286.7 L370.3,284.1 L371.2,355.2 L372.0,355.9 L372.8,354.9 L373.7,354.5 L374.5,354.5 L375.4,354.9 L376.2,355.2 L377.1,355.5 L377.9,355.2 L378.7,329.1 L379.6,329.1 L380.4,328.8 L381.3,285.4 L382.1,283.4 L382.9,283.1 L383.8,283.1 L384.6,281.7 L385.5,286.7 L386.3,282.7 L387.2,287.1 L388.0,283.7 L388.8,283.7 L389.7,286.4 L390.5,290.7 L391.4,332.2 L392.2,338.8 L393.0,333.5 L393.9,336.5 L394.7,330.8 L395.6,330.5 L396.4,330.5 L397.3,332.2 L398.1,334.5 L398.9,325.5 L399.8,284.1 L400.6,296.8 L401.5,324.1 L402.3,325.5 L403.1,327.8 L404.0,328.8 L404.8,332.5 L405.7,355.5 L406.5,355.9 L407.3,355.5 L408.2,348.2 L409.0,336.8 L409.9,289.4 L410.7,290.7 L411.6,346.2 L412.4,352.9 L413.2,349.2 L414.1,352.2 L414.9,356.9 L415.8,356.2 L416.6,354.2 L417.4,352.9 L418.3,355.2 L419.1,328.1 L420.0,289.7 L420.8,301.8 L421.7,328.5 L422.5,329.1 L423.3,328.8 L424.2,291.4 L425.0,293.1 L425.9,293.1 L426.7,292.4 L427.5,292.1 L428.4,291.4 L429.2,290.7 L430.1,287.1 L430.9,285.1 L431.8,288.4 L432.6,288.7 L433.4,322.5 L434.3,323.5 L435.1,356.9 L436.0,362.9 L436.8,379.9 L437.6,380.9 L438.5,353.2 L439.3,292.4 L440.2,298.1 L441.0,298.8 L441.9,295.4 L442.7,293.7 L443.5,294.1 L444.4,293.7 L445.2,291.4 L446.1,291.4 L446.9,287.7 L447.7,285.4 L448.6,288.4 L449.4,284.4 L450.3,288.1 L451.1,287.7 L451.9,295.1 L452.8,305.8 L453.6,306.1 L454.5,306.4 L455.3,312.1 L456.2,310.8 L457.0,330.8 L457.8,347.2 L458.7,328.1 L459.5,298.4 L460.4,285.7 L461.2,286.4 L462.0,286.4 L462.9,293.4 L463.7,320.8 L464.6,326.1 L465.4,326.5 L466.3,335.8 L467.1,336.8 L467.9,356.9 L468.8,344.8 L469.6,325.1 L470.5,286.1 L471.3,285.4 L472.1,282.1 L473.0,310.8 L473.8,307.1 L474.7,318.1 L475.5,322.1 L476.4,319.8 L477.2,321.8 L478.0,319.1 L478.9,327.8 L479.7,300.8 L480.6,283.1 L481.4,284.1 L482.2,285.1 L483.1,285.7 L483.9,283.4 L484.8,300.1 L485.6,337.8 L486.5,360.9 L487.3,361.2 L488.1,357.9 L489.0,351.5 L489.8,319.8 L490.7,284.4 L491.5,288.1 L492.3,307.1 L493.2,318.1 L494.0,324.1 L494.9,329.8 L495.7,331.5 L496.5,345.2 L497.4,342.2 L498.2,344.8 L499.1,340.8 L499.9,282.1 L500.8,284.7 L501.6,284.4 L502.4,285.1 L503.3,283.1 L504.1,283.4 L505.0,284.1 L505.8,283.7 L506.6,284.1 L507.5,284.4 L508.3,284.7 L509.2,284.7 L510.0,284.4 L510.9,287.1 L511.7,285.4 L512.5,300.8 L513.4,291.4 L514.2,287.4 L515.1,297.4 L515.9,290.1 L516.7,292.7 L517.6,284.4 L518.4,280.7 L519.3,314.8 L520.1,280.4 L521.0,281.7 L521.8,282.1 L522.6,279.4 L523.5,276.0 L524.3,278.4 L525.2,278.7 L526.0,278.7 L526.8,282.1 L527.7,274.0 L528.5,279.0 L529.4,274.0 L530.2,274.4 L531.1,274.4 L531.9,279.7 L532.7,279.7 L533.6,294.4 L534.4,295.4 L535.3,292.4 L536.1,293.7 L536.9,318.8 L537.8,316.5 L538.6,314.1 L539.5,318.5 L540.3,290.4 L541.2,277.0 L542.0,274.4 L542.8,270.7 L543.7,271.0 L544.5,276.4 L545.4,272.0 L546.2,272.0 L547.0,274.4 L547.9,278.0 L548.7,276.7 L549.6,276.4 L550.4,273.7 L551.2,272.7 L552.1,271.4 L552.9,291.4 L553.8,301.1 L554.6,300.8 L555.5,310.8 L556.3,312.4 L557.1,303.1 L558.0,287.4 L558.8,278.4 L559.7,274.4 L560.5,271.4 L561.3,270.4 L562.2,272.7 L563.0,290.4 L563.9,295.4 L564.7,284.1 L565.6,272.7 L566.4,273.7 L567.2,271.7 L568.1,271.7 L568.9,275.7 L569.8,271.4 L570.6,272.0 L571.4,272.7 L572.3,273.0 L573.1,295.4 L574.0,278.4 L574.8,271.7 L575.7,271.7 L576.5,275.7 L577.3,278.7 L578.2,292.1 L579.0,278.4 L579.9,273.4 L580.7,271.4 L581.5,269.7 L582.4,284.7 L583.2,283.7 L584.1,281.1 L584.9,270.4 L585.8,275.7 L586.6,311.8 L587.4,313.5 L588.3,314.8 L589.1,339.8 L590.0,339.8 L590.8,338.8 L591.6,311.8 L592.5,296.8 L593.3,290.7 L594.2,300.8 L595.0,310.1 L595.8,311.1 L596.7,323.5 L597.5,324.5 L598.4,348.5 L599.2,333.5 L600.1,301.8 L600.9,277.4 L601.7,270.0 L602.6,273.4 L603.4,273.7 L604.3,275.7 L605.1,272.7 L605.9,272.4 L606.8,272.7 L607.6,272.0 L608.5,278.4 L609.3,278.7 L610.2,283.1 L611.0,282.4 L611.8,277.7 L612.7,278.0 L613.5,278.4 L614.4,278.4 L615.2,291.7 L616.0,301.8 L616.9,312.1 L617.7,313.8 L618.6,317.5 L619.4,313.8 L620.3,306.8 L621.1,273.4 L621.9,276.4 L622.8,276.4 L623.6,277.4 L624.5,284.1 L625.3,274.0 L626.1,280.0 L627.0,292.7 L627.8,314.1 L628.7,311.8 L629.5,305.8 L630.4,294.7 L631.2,296.8 L632.0,295.7 L632.9,296.8 L633.7,316.8 L634.6,314.1 L635.4,312.8 L636.2,310.8 L637.1,306.1 L637.9,321.5 L638.8,329.1 L639.6,329.8 L640.4,310.4 L641.3,288.7 L642.1,282.7 L643.0,282.1 L643.8,280.4 L644.7,285.1 L645.5,285.1 L646.3,276.4 L647.2,280.0 L648.0,281.7 L648.9,317.5 L649.7,316.8 L650.5,317.1 L651.4,317.1 L652.2,292.7 L653.1,298.1 L653.9,300.1 L654.8,317.1 L655.6,316.1 L656.4,319.5 L657.3,318.8 L658.1,321.8 L659.0,357.9 L659.8,359.5 L660.6,356.2 L661.5,355.9 L662.3,348.9 L663.2,345.8 L664.0,330.5 L664.9,329.8 L665.7,340.5 L666.5,343.8 L667.4,344.5 L668.2,344.5 L669.1,343.8 L669.9,333.5 L670.7,301.8 L671.6,292.1 L672.4,289.7 L673.3,287.7 L674.1,296.8 L675.0,300.8 L675.8,301.4 L676.6,304.4 L677.5,303.1 L678.3,319.8 L679.2,322.8 L680.0,322.8" stroke="#2ca02c" stroke-width="2" fill="none" opacity="0.8"/>
<!-- Solar Generation -->
<path d="M80.0,420.0 L80.8,420.0 L81.7,420.0 L82.5,420.0 L83.4,420.0 L84.2,420.0 L85.0,420.0 L85.9,420.0 L86.7,420.0 L87.6,419.3 L88.4,401.3 L89.3,409.3 L90.1,420.0 L90.9,420.0 L91.8,420.0 L92.6,394.3 L93.5,381.6 L94.3,381.6 L95.1,401.0 L96.0,408.0 L96.8,419.3 L97.7,420.0 L98.5,420.0 L99.4,420.0 L100.2,420.0 L101.0,420.0 L101.9,420.0 L102.7,420.0 L103.6,420.0 L104.4,420.0 L105.2,420.0 L106.1,420.0 L106.9,420.0 L107.8,418.0 L108.6,403.0 L109.5,398.6 L110.3,405.0 L111.1,408.0 L112.0,410.6 L112.8,397.6 L113.7,396.0 L114.5,415.0 L115.3,405.3 L116.2,403.0 L117.0,419.7 L117.9,420.0 L118.7,420.0 L119.6,420.0 L120.4,420.0 L121.2,420.0 L122.1,420.0 L122.9,420.0 L123.8,420.0 L124.6,420.0 L125.4,420.0 L126.3,420.0 L127.1,420.0 L128.0,418.7 L128.8,412.0 L129.6,408.0 L130.5,399.6 L131.3,396.3 L132.2,389.6 L133.0,383.9 L133.9,397.6 L134.7,408.3 L135.5,416.7 L136.4,416.7 L137.2,419.7 L138.1,420.0 L138.9,420.0 L139.7,420.0 L140.6,420.0 L141.4,420.0 L142.3,420.0 L143.1,420.0 L144.0,420.0 L144.8,420.0 L145.6,420.0 L146.5,420.0 L147.3,420.0 L148.2,420.0 L149.0,418.3 L149.8,415.7 L150.7,411.6 L151.5,412.7 L152.4,406.3 L153.2,406.3 L154.1,408.0 L154.9,408.3 L155.7,416.3 L156.6,418.7 L157.4,419.7 L158.3,420.0 L159.1,420.0 L159.9,420.0 L160.8,420.0 L161.6,420.0 L162.5,420.0 L163.3,420.0 L164.2,420.0 L165.0,420.0 L165.8,420.0 L166.7,420.0 L167.5,420.0 L168.4,420.0 L169.2,418.3 L170.0,417.0 L170.9,406.0 L171.7,408.0 L172.6,403.6 L173.4,402.3 L174.2,406.0 L175.1,409.6 L175.9,410.3 L176.8,415.3 L177.6,419.7 L178.5,420.0 L179.3,420.0 L180.1,420.0 L181.0,420.0 L181.8,420.0 L182.7,420.0 L183.5,420.0 L184.3,420.0 L185.2,420.0 L186.0,420.0 L186.9,420.0 L187.7,420.0 L188.6,418.3 L189.4,392.6 L190.2,374.9 L191.1,374.2 L191.9,378.2 L192.8,378.9 L193.6,377.6 L194.4,375.2 L195.3,373.6 L196.1,374.9 L197.0,398.3 L197.8,419.3 L198.7,420.0 L199.5,420.0 L200.3,420.0 L201.2,420.0 L202.0,420.0 L202.9,420.0 L203.7,420.0 L204.5,420.0 L205.4,420.0 L206.2,420.0 L207.1,420.0 L207.9,420.0 L208.8,418.3 L209.6,393.3 L210.4,375.2 L211.3,375.2 L212.1,377.9 L213.0,379.9 L213.8,379.6 L214.6,377.2 L215.5,375.2 L216.3,376.9 L217.2,400.3 L218.0,419.7 L218.8,420.0 L219.7,420.0 L220.5,420.0 L221.4,420.0 L222.2,420.0 L223.1,420.0 L223.9,420.0 L224.7,420.0 L225.6,420.0 L226.4,420.0 L227.3,420.0 L228.1,420.0 L228.9,419.0 L229.8,394.3 L230.6,375.9 L231.5,375.9 L232.3,377.9 L233.2,380.3 L234.0,379.6 L234.8,377.2 L235.7,375.2 L236.5,377.2 L237.4,401.0 L238.2,419.7 L239.0,420.0 L239.9,420.0 L240.7,420.0 L241.6,420.0 L242.4,420.0 L243.3,420.0 L244.1,420.0 L244.9,420.0 L245.8,420.0 L246.6,420.0 L247.5,420.0 L248.3,420.0 L249.1,419.3 L250.0,395.6 L250.8,376.2 L251.7,376.9 L252.5,379.3 L253.4,388.9 L254.2,380.3 L255.0,377.6 L255.9,375.6 L256.7,377.9 L257.6,402.3 L258.4,419.7 L259.2,420.0 L260.1,420.0 L260.9,420.0 L261.8,420.0 L262.6,420.0 L263.5,420.0 L264.3,420.0 L265.1,420.0 L266.0,420.0 L266.8,420.0 L267.7,420.0 L268.5,420.0 L269.3,419.0 L270.2,411.0 L271.0,409.0 L271.9,392.3 L272.7,390.9 L273.5,390.9 L274.4,388.9 L275.2,395.3 L276.1,384.3 L276.9,391.6 L277.8,407.0 L278.6,420.0 L279.4,420.0 L280.3,420.0 L281.1,420.0 L282.0,420.0 L282.8,420.0 L283.6,420.0 L284.5,420.0 L285.3,420.0 L286.2,420.0 L287.0,420.0 L287.9,420.0 L288.7,420.0 L289.5,420.0 L290.4,416.0 L291.2,417.0 L292.1,413.3 L292.9,410.3 L293.7,404.3 L294.6,406.0 L295.4,410.6 L296.3,413.3 L297.1,418.7 L298.0,418.0 L298.8,420.0 L299.6,420.0 L300.5,420.0 L301.3,420.0 L302.2,420.0 L303.0,420.0 L303.8,420.0 L304.7,420.0 L305.5,420.0 L306.4,420.0 L307.2,420.0 L308.1,420.0 L308.9,420.0 L309.7,419.7 L310.6,413.7 L311.4,411.6 L312.3,389.6 L313.1,394.3 L313.9,381.6 L314.8,403.6 L315.6,393.3 L316.5,394.6 L317.3,415.3 L318.1,418.3 L319.0,420.0 L319.8,420.0 L320.7,420.0 L321.5,420.0 L322.4,420.0 L323.2,420.0 L324.0,420.0 L324.9,420.0 L325.7,420.0 L326.6,420.0 L327.4,420.0 L328.2,420.0 L329.1,420.0 L329.9,420.0 L330.8,418.0 L331.6,416.7 L332.5,414.7 L333.3,412.0 L334.1,408.3 L335.0,404.0 L335.8,405.3 L336.7,412.3 L337.5,415.3 L338.3,417.7 L339.2,420.0 L340.0,420.0 L340.9,420.0 L341.7,420.0 L342.6,420.0 L343.4,420.0 L344.2,420.0 L345.1,420.0 L345.9,420.0 L346.8,420.0 L347.6,420.0 L348.4,420.0 L349.3,420.0 L350.1,420.0 L351.0,419.0 L351.8,417.3 L352.7,406.6 L353.5,406.0 L354.3,406.0 L355.2,403.6 L356.0,403.3 L356.9,402.3 L357.7,411.0 L358.5,418.0 L359.4,420.0 L360.2,420.0 L361.1,420.0 L361.9,420.0 L362.7,420.0 L363.6,420.0 L364.4,420.0 L365.3,420.0 L366.1,420.0 L367.0,420.0 L367.8,420.0 L368.6,420.0 L369.5,420.0 L370.3,420.0 L371.2,418.3 L372.0,416.0 L372.8,415.0 L373.7,411.6 L374.5,405.3 L375.4,410.3 L376.2,411.0 L377.1,413.7 L377.9,416.7 L378.7,418.0 L379.6,420.0 L380.4,420.0 L381.3,420.0 L382.1,420.0 L382.9,420.0 L383.8,420.0 L384.6,420.0 L385.5,420.0 L386.3,420.0 L387.2,420.0 L388.0,420.0 L388.8,420.0 L389.7,420.0 L390.5,420.0 L391.4,418.0 L392.2,413.3 L393.0,412.7 L393.9,407.3 L394.7,401.6 L395.6,409.6 L396.4,415.0 L397.3,415.3 L398.1,409.3 L398.9,409.6 L399.8,420.0 L400.6,420.0 L401.5,420.0 L402.3,420.0 L403.1,420.0 L404.0,420.0 L404.8,420.0 L405.7,420.0 L406.5,420.0 L407.3,420.0 L408.2,420.0 L409.0,420.0 L409.9,420.0 L410.7,419.7 L411.6,412.7 L412.4,413.0 L413.2,388.6 L414.1,382.3 L414.9,385.3 L415.8,402.3 L416.6,400.6 L417.4,400.3 L418.3,414.7 L419.1,416.7 L420.0,420.0 L420.8,420.0 L421.7,420.0 L422.5,420.0 L423.3,420.0 L424.2,420.0 L425.0,420.0 L425.9,420.0 L426.7,420.0 L427.5,420.0 L428.4,420.0 L429.2,420.0 L430.1,420.0 L430.9,420.0 L431.8,404.6 L432.6,378.6 L433.4,377.9 L434.3,384.6 L435.1,381.9 L436.0,380.9 L436.8,379.3 L437.6,374.2 L438.5,396.3 L439.3,411.6 L440.2,420.0 L441.0,420.0 L441.9,420.0 L442.7,420.0 L443.5,420.0 L444.4,420.0 L445.2,420.0 L446.1,420.0 L446.9,420.0 L447.7,420.0 L448.6,420.0 L449.4,420.0 L450.3,420.0 L451.1,420.0 L451.9,415.3 L452.8,393.9 L453.6,396.6 L454.5,399.6 L455.3,404.6 L456.2,411.6 L457.0,415.3 L457.8,417.3 L458.7,417.3 L459.5,419.7 L460.4,420.0 L461.2,420.0 L462.0,420.0 L462.9,420.0 L463.7,420.0 L464.6,420.0 L465.4,420.0 L466.3,420.0 L467.1,420.0 L467.9,420.0 L468.8,420.0 L469.6,420.0 L470.5,420.0 L471.3,420.0 L472.1,415.3 L473.0,412.7 L473.8,386.3 L474.7,381.3 L475.5,382.3 L476.4,396.3 L477.2,401.3 L478.0,397.6 L478.9,404.0 L479.7,412.7 L480.6,420.0 L481.4,420.0 L482.2,420.0 L483.1,420.0 L483.9,420.0 L484.8,420.0 L485.6,420.0 L486.5,420.0 L487.3,420.0 L488.1,420.0 L489.0,420.0 L489.8,420.0 L490.7,420.0 L491.5,420.0 L492.3,404.6 L493.2,401.0 L494.0,400.6 L494.9,398.3 L495.7,398.6 L496.5,382.3 L497.4,379.3 L498.2,392.3 L499.1,384.9 L499.9,414.0 L500.8,420.0 L501.6,420.0 L502.4,420.0 L503.3,420.0 L504.1,420.0 L505.0,420.0 L505.8,420.0 L506.6,420.0 L507.5,420.0 L508.3,420.0 L509.2,420.0 L510.0,420.0 L510.9,420.0 L511.7,420.0 L512.5,404.0 L513.4,379.3 L514.2,378.2 L515.1,381.9 L515.9,383.9 L516.7,383.3 L517.6,380.3 L518.4,377.9 L519.3,384.9 L520.1,413.3 L521.0,420.0 L521.8,420.0 L522.6,420.0 L523.5,420.0 L524.3,420.0 L525.2,420.0 L526.0,420.0 L526.8,420.0 L527.7,420.0 L528.5,420.0 L529.4,420.0 L530.2,420.0 L531.1,420.0 L531.9,420.0 L532.7,405.0 L533.6,380.9 L534.4,387.3 L535.3,382.6 L536.1,384.3 L536.9,384.3 L537.8,380.9 L538.6,377.9 L539.5,385.9 L540.3,412.3 L541.2,420.0 L542.0,420.0 L542.8,420.0 L543.7,420.0 L544.5,420.0 L545.4,420.0 L546.2,420.0 L547.0,420.0 L547.9,420.0 L548.7,420.0 L549.6,420.0 L550.4,420.0 L551.2,420.0 L552.1,420.0 L552.9,407.3 L553.8,385.9 L554.6,380.3 L555.5,383.9 L556.3,385.9 L557.1,383.3 L558.0,377.2 L558.8,386.9 L559.7,392.6 L560.5,417.7 L561.3,420.0 L562.2,420.0 L563.0,420.0 L563.9,420.0 L564.7,420.0 L565.6,420.0 L566.4,420.0 L567.2,420.0 L568.1,420.0 L568.9,420.0 L569.8,420.0 L570.6,420.0 L571.4,420.0 L572.3,420.0 L573.1,416.3 L574.0,411.3 L574.8,400.3 L575.7,405.0 L576.5,396.0 L577.3,413.3 L578.2,410.3 L579.0,414.0 L579.9,414.7 L580.7,418.7 L581.5,420.0 L582.4,420.0 L583.2,420.0 L584.1,420.0 L584.9,420.0 L585.8,420.0 L586.6,420.0 L587.4,420.0 L588.3,420.0 L589.1,420.0 L590.0,420.0 L590.8,420.0 L591.6,420.0 L592.5,420.0 L593.3,409.0 L594.2,391.6 L595.0,391.9 L595.8,405.0 L596.7,382.6 L597.5,384.9 L598.4,390.9 L599.2,393.6 L600.1,411.0 L600.9,413.3 L601.7,420.0 L602.6,420.0 L603.4,420.0 L604.3,420.0 L605.1,420.0 L605.9,420.0 L606.8,420.0 L607.6,420.0 L608.5,420.0 L609.3,420.0 L610.2,420.0 L611.0,420.0 L611.8,420.0 L612.7,420.0 L613.5,418.0 L614.4,395.6 L615.2,397.0 L616.0,398.6 L616.9,396.6 L617.7,387.9 L618.6,391.3 L619.4,396.3 L620.3,400.3 L621.1,417.3 L621.9,420.0 L622.8,420.0 L623.6,420.0 L624.5,420.0 L625.3,420.0 L626.1,420.0 L627.0,420.0 L627.8,420.0 L628.7,420.0 L629.5,420.0 L630.4,420.0 L631.2,420.0 L632.0,420.0 L632.9,420.0 L633.7,409.3 L634.6,381.6 L635.4,387.3 L636.2,379.3 L637.1,385.6 L637.9,383.3 L638.8,379.9 L639.6,397.3 L640.4,390.6 L641.3,418.7 L642.1,420.0 L643.0,420.0 L643.8,420.0 L644.7,420.0 L645.5,420.0 L646.3,420.0 L647.2,420.0 L648.0,420.0 L648.9,420.0 L649.7,420.0 L650.5,420.0 L651.4,420.0 L652.2,420.0 L653.1,420.0 L653.9,415.7 L654.8,407.0 L655.6,406.3 L656.4,407.3 L657.3,390.9 L658.1,385.9 L659.0,394.6 L659.8,389.6 L660.6,396.6 L661.5,415.7 L662.3,420.0 L663.2,420.0 L664.0,420.0 L664.9,420.0 L665.7,420.0 L666.5,420.0 L667.4,420.0 L668.2,420.0 L669.1,420.0 L669.9,420.0 L670.7,420.0 L671.6,420.0 L672.4,420.0 L673.3,420.0 L674.1,409.3 L675.0,383.6 L675.8,380.6 L676.6,384.3 L677.5,386.6 L678.3,385.3 L679.2,378.6 L680.0,378.9" stroke="#d62728" stroke-width="2" fill="none" opacity="0.8"/>
<!-- Forecast -->
<path d="M80.0,185.9 L80.8,234.3 L81.7,239.0 L82.5,244.3 L83.4,244.0 L84.2,240.6 L85.0,237.6 L85.9,232.6 L86.7,227.3 L87.6,193.2 L88.4,180.2 L89.3,163.5 L90.1,142.1 L90.9,127.7 L91.8,120.7 L92.6,116.7 L93.5,121.1 L94.3,128.1 L95.1,143.1 L96.0,156.5 L96.8,154.5 L97.7,170.5 L98.5,187.2 L99.4,197.9 L100.2,204.6 L101.0,220.9 L101.9,235.0 L102.7,245.6 L103.6,252.0 L104.4,254.0 L105.2,251.7 L106.1,239.0 L106.9,206.9 L107.8,170.8 L108.6,154.1 L109.5,151.1 L110.3,151.8 L111.1,152.8 L112.0,152.1 L112.8,154.1 L113.7,172.2 L114.5,177.8 L115.3,164.1 L116.2,165.5 L117.0,175.5 L117.9,186.9 L118.7,194.5 L119.6,197.5 L120.4,199.9 L121.2,220.9 L122.1,256.0 L122.9,251.7 L123.8,252.3 L124.6,254.3 L125.4,252.3 L126.3,239.6 L127.1,207.9 L128.0,171.2 L128.8,155.1 L129.6,151.5 L130.5,150.5 L131.3,150.1 L132.2,153.1 L133.0,156.5 L133.9,157.1 L134.7,157.5 L135.5,155.1 L136.4,153.8 L137.2,152.5 L138.1,149.1 L138.9,151.5 L139.7,169.5 L140.6,194.9 L141.4,219.3 L142.3,232.0 L143.1,240.6 L144.0,246.0 L144.8,248.7 L145.6,250.0 L146.5,246.3 L147.3,231.3 L148.2,210.9 L149.0,191.2 L149.8,178.8 L150.7,170.5 L151.5,169.2 L152.4,173.2 L153.2,177.5 L154.1,180.8 L154.9,183.2 L155.7,184.2 L156.6,178.2 L157.4,173.5 L158.3,168.5 L159.1,173.5 L159.9,182.9 L160.8,200.2 L161.6,211.2 L162.5,229.3 L163.3,240.0 L164.2,244.3 L165.0,247.0 L165.8,247.0 L166.7,242.0 L167.5,226.6 L168.4,204.2 L169.2,185.2 L170.0,167.8 L170.9,154.1 L171.7,154.1 L172.6,155.1 L173.4,163.5 L174.2,168.2 L175.1,171.5 L175.9,164.8 L176.8,152.1 L177.6,144.8 L178.5,140.1 L179.3,149.1 L180.1,165.5 L181.0,185.9 L181.8,209.9 L182.7,222.9 L183.5,230.3 L184.3,235.6 L185.2,235.6 L186.0,232.3 L186.9,215.9 L187.7,181.2 L188.6,145.1 L189.4,131.1 L190.2,129.7 L191.1,133.4 L191.9,137.4 L192.8,144.4 L193.6,150.1 L194.4,152.8 L195.3,154.8 L196.1,153.5 L197.0,152.1 L197.8,150.5 L198.7,144.1 L199.5,150.5 L200.3,163.8 L201.2,188.2 L202.0,217.3 L202.9,229.3 L203.7,236.6 L204.5,242.6 L205.4,243.0 L206.2,239.6 L207.1,224.9 L207.9,191.5 L208.8,157.5 L209.6,142.8 L210.4,142.1 L211.3,145.1 L212.1,150.1 L213.0,154.5 L213.8,158.8 L214.6,159.8 L215.5,160.8 L216.3,157.1 L217.2,155.5 L218.0,154.1 L218.8,151.1 L219.7,155.8 L220.5,171.8 L221.4,196.2 L222.2,222.9 L223.1,235.3 L223.9,245.0 L224.7,251.0 L225.6,252.0 L226.4,249.3 L227.3,235.6 L228.1,202.2 L228.9,168.2 L229.8,182.5 L230.6,172.5 L231.5,152.1 L232.3,143.1 L233.2,143.8 L234.0,150.8 L234.8,160.8 L235.7,171.2 L236.5,185.2 L237.4,168.8 L238.2,179.8 L239.0,202.9 L239.9,210.6 L240.7,210.9 L241.6,210.2 L242.4,233.3 L243.3,251.3 L244.1,257.3 L244.9,255.0 L245.8,250.3 L246.6,247.3 L247.5,245.3 L248.3,219.6 L249.1,204.2 L250.0,204.2 L250.8,195.2 L251.7,181.5 L252.5,174.8 L253.4,173.5 L254.2,194.9 L255.0,197.5 L255.9,189.5 L256.7,185.5 L257.6,180.8 L258.4,162.5 L259.2,171.8 L260.1,177.5 L260.9,180.5 L261.8,211.9 L262.6,244.0 L263.5,248.7 L264.3,248.7 L265.1,253.7 L266.0,258.0 L266.8,261.0 L267.7,262.7 L268.5,238.0 L269.3,222.3 L270.2,219.3 L271.0,212.6 L271.9,167.2 L272.7,155.8 L273.5,155.1 L274.4,156.8 L275.2,158.1 L276.1,153.1 L276.9,151.8 L277.8,151.8 L278.6,153.5 L279.4,150.5 L280.3,150.5 L281.1,170.5 L282.0,197.9 L282.8,223.6 L283.6,236.3 L284.5,245.3 L285.3,251.0 L286.2,253.7 L287.0,255.3 L287.9,252.7 L288.7,239.3 L289.5,220.6 L290.4,203.2 L291.2,189.9 L292.1,183.2 L292.9,181.2 L293.7,186.5 L294.6,192.2 L295.4,191.5 L296.3,190.9 L297.1,198.9 L298.0,206.2 L298.8,215.9 L299.6,226.6 L300.5,228.3 L301.3,223.9 L302.2,216.3 L303.0,223.6 L303.8,211.2 L304.7,180.5 L305.5,169.8 L306.4,167.2 L307.2,166.2 L308.1,166.2 L308.9,165.5 L309.7,163.8 L310.6,161.1 L311.4,155.1 L312.3,143.8 L313.1,136.1 L313.9,132.8 L314.8,127.1 L315.6,128.1 L316.5,133.4 L317.3,145.4 L318.1,158.1 L319.0,150.1 L319.8,161.5 L320.7,173.2 L321.5,180.5 L322.4,211.9 L323.2,232.6 L324.0,231.0 L324.9,231.3 L325.7,232.3 L326.6,233.3 L327.4,235.0 L328.2,235.6 L329.1,209.9 L329.9,167.5 L330.8,157.1 L331.6,151.5 L332.5,139.8 L333.3,158.8 L334.1,164.5 L335.0,164.5 L335.8,164.8 L336.7,165.8 L337.5,170.2 L338.3,147.8 L339.2,145.4 L340.0,151.8 L340.9,152.5 L341.7,178.8 L342.6,187.5 L343.4,228.6 L344.2,240.6 L345.1,229.9 L345.9,230.3 L346.8,234.0 L347.6,237.6 L348.4,241.3 L349.3,236.0 L350.1,192.5 L351.0,182.2 L351.8,179.2 L352.7,173.5 L353.5,159.8 L354.3,153.5 L355.2,144.1 L356.0,150.8 L356.9,151.5 L357.7,150.1 L358.5,154.1 L359.4,141.1 L360.2,132.4 L361.1,141.1 L361.9,157.5 L362.7,182.5 L363.6,366.6 L364.4,233.6 L365.3,234.6 L366.1,237.0 L367.0,238.3 L367.8,236.0 L368.6,222.3 L369.5,187.9 L370.3,149.8 L371.2,133.4 L372.0,129.4 L372.8,130.4 L373.7,133.1 L374.5,139.1 L375.4,143.8 L376.2,147.8 L377.1,146.8 L377.9,142.8 L378.7,141.4 L379.6,137.8 L380.4,147.4 L381.3,163.5 L382.1,189.5 L382.9,212.6 L383.8,216.6 L384.6,228.9 L385.5,238.6 L386.3,244.3 L387.2,246.3 L388.0,243.6 L388.8,229.9 L389.7,196.9 L390.5,157.8 L391.4,139.1 L392.2,133.8 L393.0,134.1 L393.9,136.1 L394.7,141.8 L395.6,146.1 L396.4,149.8 L397.3,151.5 L398.1,149.8 L398.9,145.1 L399.8,142.8 L400.6,138.4 L401.5,147.4 L402.3,163.1 L403.1,188.5 L404.0,213.6 L404.8,228.6 L405.7,238.0 L406.5,244.0 L407.3,246.6 L408.2,244.0 L409.0,229.9 L409.9,197.9 L410.7,160.5 L411.6,143.4 L412.4,141.1 L413.2,142.8 L414.1,145.1 L414.9,150.8 L415.8,155.5 L416.6,157.1 L417.4,157.5 L418.3,155.8 L419.1,153.8 L420.0,150.8 L420.8,145.1 L421.7,152.8 L422.5,167.2 L423.3,191.5 L424.2,220.3 L425.0,226.9 L425.9,233.0 L426.7,238.3 L427.5,240.0 L428.4,240.3 L429.2,233.6 L430.1,219.6 L430.9,197.2 L431.8,179.2 L432.6,172.2 L433.4,165.8 L434.3,166.8 L435.1,172.8 L436.0,179.5 L436.8,184.2 L437.6,187.2 L438.5,188.9 L439.3,182.5 L440.2,175.2 L441.0,170.8 L441.9,176.2 L442.7,186.2 L443.5,203.2 L444.4,218.6 L445.2,226.3 L446.1,240.0 L446.9,246.6 L447.7,250.7 L448.6,251.3 L449.4,247.3 L450.3,235.0 L451.1,216.6 L451.9,199.6 L452.8,182.2 L453.6,175.2 L454.5,173.8 L455.3,174.2 L456.2,177.8 L457.0,179.5 L457.8,179.5 L458.7,172.2 L459.5,159.8 L460.4,153.1 L461.2,149.1 L462.0,156.8 L462.9,172.8 L463.7,194.9 L464.6,208.2 L465.4,229.3 L466.3,240.3 L467.1,246.3 L467.9,248.0 L468.8,245.3 L469.6,231.6 L470.5,198.6 L471.3,160.1 L472.1,141.8 L473.0,135.8 L473.8,135.8 L474.7,137.4 L475.5,142.1 L476.4,145.8 L477.2,149.1 L478.0,150.5 L478.9,147.1 L479.7,140.8 L480.6,138.1 L481.4,132.8 L482.2,140.8 L483.1,156.8 L483.9,181.9 L484.8,244.6 L485.6,233.6 L486.5,233.0 L487.3,240.3 L488.1,241.6 L489.0,238.0 L489.8,223.3 L490.7,191.9 L491.5,186.9 L492.3,187.5 L493.2,178.8 L494.0,161.1 L494.9,149.1 L495.7,146.1 L496.5,145.4 L497.4,147.1 L498.2,150.5 L499.1,159.5 L499.9,175.8 L500.8,176.8 L501.6,200.9 L502.4,170.5 L503.3,171.8 L504.1,195.9 L505.0,218.9 L505.8,234.0 L506.6,238.0 L507.5,241.3 L508.3,242.3 L509.2,239.6 L510.0,224.9 L510.9,192.5 L511.7,155.1 L512.5,139.1 L513.4,138.4 L514.2,143.1 L515.1,148.4 L515.9,155.1 L516.7,160.1 L517.6,161.8 L518.4,162.5 L519.3,159.5 L520.1,157.5 L521.0,155.1 L521.8,156.8 L522.6,160.1 L523.5,172.2 L524.3,196.2 L525.2,219.9 L526.0,235.6 L526.8,244.0 L527.7,249.7 L528.5,251.3 L529.4,249.7 L530.2,236.3 L531.1,224.9 L531.9,199.9 L532.7,192.5 L533.6,184.9 L534.4,167.8 L535.3,154.8 L536.1,150.8 L536.9,150.8 L537.8,150.5 L538.6,160.1 L539.5,160.5 L540.3,157.8 L541.2,154.8 L542.0,151.1 L542.8,158.1 L543.7,172.5 L544.5,197.2 L545.4,224.9 L546.2,237.6 L547.0,245.6 L547.9,251.3 L548.7,253.3 L549.6,251.0 L550.4,238.3 L551.2,206.9 L552.1,169.8 L552.9,152.8 L553.8,150.1 L554.6,151.8 L555.5,154.5 L556.3,159.1 L557.1,163.1 L558.0,164.8 L558.8,165.8 L559.7,162.1 L560.5,159.8 L561.3,158.8 L562.2,156.8 L563.0,162.1 L563.9,177.2 L564.7,200.9 L565.6,225.9 L566.4,234.6 L567.2,242.0 L568.1,248.3 L568.9,251.0 L569.8,252.3 L570.6,249.3 L571.4,236.0 L572.3,215.6 L573.1,197.2 L574.0,186.5 L574.8,180.8 L575.7,180.5 L576.5,186.2 L577.3,188.5 L578.2,189.9 L579.0,191.5 L579.9,189.9 L580.7,185.2 L581.5,181.5 L582.4,177.5 L583.2,181.5 L584.1,190.5 L584.9,207.9 L585.8,374.6 L586.6,282.4 L587.4,379.3 L588.3,420.0 L589.1,420.0 L590.0,420.0 L590.8,420.0 L591.6,420.0 L592.5,420.0 L593.3,420.0 L594.2,420.0 L595.0,420.0 L595.8,420.0 L596.7,420.0 L597.5,420.0 L598.4,420.0 L599.2,420.0 L600.1,420.0 L600.9,420.0 L601.7,420.0 L602.6,420.0 L603.4,420.0 L604.3,420.0 L605.1,420.0 L605.9,256.0 L606.8,371.9 L607.6,277.7 L608.5,240.3 L609.3,241.0 L610.2,239.0 L611.0,224.9 L611.8,193.5 L612.7,153.5 L613.5,136.8 L614.4,133.1 L615.2,135.4 L616.0,137.8 L616.9,142.1 L617.7,145.4 L618.6,149.1 L619.4,149.1 L620.3,144.1 L621.1,134.4 L621.9,130.1 L622.8,128.7 L623.6,136.8 L624.5,154.5 L625.3,180.8 L626.1,208.2 L627.0,219.9 L627.8,225.3 L628.7,231.3 L629.5,231.6 L630.4,228.6 L631.2,212.9 L632.0,180.2 L632.9,142.4 L633.7,128.4 L634.6,127.7 L635.4,132.1 L636.2,136.8 L637.1,142.1 L637.9,146.4 L638.8,150.8 L639.6,151.8 L640.4,147.1 L641.3,138.4 L642.1,133.4 L643.0,132.1 L643.8,139.8 L644.7,157.8 L645.5,184.2 L646.3,208.6 L647.2,226.3 L648.0,228.9 L648.9,234.0 L649.7,235.0 L650.5,234.3 L651.4,220.6 L652.2,190.2 L653.1,153.8 L653.9,138.1 L654.8,137.4 L655.6,141.8 L656.4,146.8 L657.3,152.8 L658.1,157.1 L659.0,159.5 L659.8,159.5 L660.6,156.5 L661.5,150.1 L662.3,145.4 L663.2,141.1 L664.0,149.1 L664.9,163.8 L665.7,188.5 L666.5,207.6 L667.4,224.9 L668.2,234.6 L669.1,239.6 L669.9,239.6 L670.7,236.3 L671.6,220.6 L672.4,189.2 L673.3,149.5 L674.1,133.1 L675.0,131.7 L675.8,136.8 L676.6,141.1 L677.5,146.8 L678.3,150.5 L679.2,154.5 L680.0,155.5" stroke="#9467bd" stroke-width="2" fill="none" opacity="0.8"/>
<!-- Total Generation -->
<path d="M80.0,228.3 L80.8,213.6 L81.7,215.9 L82.5,202.2 L83.4,221.3 L84.2,214.6 L85.0,216.6 L85.9,218.3 L86.7,198.9 L87.6,198.9 L88.4,183.5 L89.3,160.5 L92.6,213.6 L93.5,176.8 L94.3,178.2 L95.1,201.2 L96.0,226.6 L96.8,216.9 L97.7,226.3 L98.5,230.3 L99.4,230.6 L100.2,228.3 L101.0,222.9 L101.9,223.9 L102.7,234.0 L103.6,253.7 L104.4,239.6 L105.2,249.0 L106.1,249.3 L106.9,218.9 L107.8,214.2 L108.6,240.3 L109.5,231.6 L110.3,214.9 L111.1,235.0 L112.0,235.0 L112.8,220.6 L113.7,227.9 L114.5,251.7 L115.3,236.6 L116.2,207.2 L117.0,225.3 L117.9,211.6 L118.7,206.6 L119.6,215.3 L120.4,218.9 L121.2,233.3 L122.1,226.6 L122.9,231.6 L123.8,255.7 L124.6,256.3 L125.4,244.3 L126.3,219.3 L127.1,221.6 L128.0,221.3 L128.8,200.6 L129.6,195.9 L130.5,188.9 L131.3,175.2 L132.2,188.5 L133.0,192.2 L133.9,206.2 L134.7,218.9 L135.5,190.2 L136.4,190.5 L137.2,169.8 L138.1,184.2 L138.9,200.2 L139.7,218.6 L140.6,210.6 L141.4,226.9 L142.3,220.3 L143.1,213.2 L144.0,224.9 L144.8,240.3 L145.6,218.6 L146.5,218.6 L147.3,191.5 L148.2,191.2 L149.0,229.3 L149.8,193.9 L150.7,208.6 L151.5,212.2 L152.4,189.9 L153.2,204.2 L154.1,209.2 L154.9,221.9 L155.7,226.9 L156.6,220.9 L157.4,210.6 L158.3,211.9 L159.1,215.3 L159.9,197.5 L160.8,192.5 L161.6,167.8 L162.5,165.5 L163.3,188.9 L164.2,197.9 L165.0,176.2 L165.8,178.5 L166.7,150.8 L167.5,131.7 L168.4,141.8 L169.2,144.8 L170.0,201.2 L170.9,196.5 L171.7,195.9 L172.6,190.2 L173.4,193.5 L174.2,206.9 L175.1,205.6 L175.9,195.2 L176.8,200.6 L177.6,218.6 L178.5,225.9 L179.3,224.6 L180.1,223.3 L181.0,221.6 L181.8,222.6 L182.7,217.3 L183.5,219.9 L184.3,215.3 L185.2,212.6 L186.0,217.3 L186.9,200.2 L187.7,189.9 L188.6,178.2 L189.4,184.2 L190.2,189.2 L191.1,185.2 L191.9,166.2 L192.8,142.8 L193.6,151.1 L194.4,157.8 L195.3,161.1 L196.1,135.1 L197.0,132.8 L197.8,185.2 L198.7,201.2 L199.5,212.9 L200.3,225.6 L201.2,217.9 L202.0,219.6 L202.9,216.6 L203.7,210.6 L204.5,221.9 L205.4,225.9 L206.2,215.6 L207.1,192.9 L207.9,196.2 L208.8,189.2 L209.6,203.2 L210.4,198.2 L211.3,206.6 L212.1,212.6 L213.0,220.3 L213.8,216.6 L214.6,214.6 L215.5,208.6 L216.3,207.9 L217.2,178.5 L218.0,186.9 L218.8,182.5 L219.7,192.2 L220.5,195.5 L221.4,201.2 L222.2,223.3 L223.1,229.6 L223.9,226.3 L224.7,239.0 L225.6,246.6 L226.4,225.9 L227.3,225.3 L228.1,188.9 L228.9,179.5 L229.8,173.8 L230.6,168.8 L231.5,160.1 L232.3,162.1 L233.2,199.9 L234.0,215.9 L234.8,219.3 L235.7,214.2 L236.5,220.3 L237.4,232.0 L238.2,214.6 L239.0,209.9 L239.9,199.2 L240.7,197.2 L241.6,199.9 L242.4,198.6 L243.3,198.2 L244.1,232.6 L244.9,234.0 L245.8,236.3 L246.6,224.9 L247.5,232.6 L248.3,227.6 L249.1,171.2 L250.0,174.5 L250.8,201.2 L251.7,202.6 L252.5,204.2 L253.4,199.9 L254.2,186.9 L255.0,142.1 L255.9,147.8 L256.7,168.2 L257.6,172.2 L258.4,179.8 L259.2,175.2 L260.1,181.9 L260.9,189.9 L261.8,190.9 L262.6,204.6 L263.5,211.9 L264.3,218.9 L265.1,247.3 L266.0,241.6 L266.8,234.0 L267.7,221.3 L268.5,222.3 L269.3,218.9 L270.2,217.3 L271.0,202.9 L271.9,166.8 L272.7,178.5 L273.5,174.2 L274.4,179.2 L275.2,201.6 L276.1,183.5 L276.9,179.2 L277.8,158.5 L278.6,190.2 L279.4,195.2 L280.3,208.9 L281.1,215.6 L282.0,224.6 L282.8,227.9 L283.6,235.3 L284.5,239.0 L285.3,232.0 L286.2,232.6 L287.0,233.3 L287.9,204.9 L288.7,208.9 L289.5,200.2 L290.4,223.3 L291.2,213.6 L292.1,216.9 L292.9,192.2 L293.7,211.9 L294.6,247.0 L295.4,217.9 L296.3,213.2 L297.1,211.6 L298.0,220.6 L298.8,198.9 L299.6,147.4 L300.5,133.8 L301.3,157.1 L302.2,184.9 L303.0,194.9 L303.8,188.2 L304.7,174.2 L305.5,183.2 L306.4,175.2 L307.2,157.1 L308.1,139.1 L308.9,138.8 L309.7,155.5 L310.6,182.5 L311.4,191.5 L312.3,155.5 L313.1,139.8 L313.9,129.7 L314.8,185.9 L315.6,183.5 L316.5,182.2 L317.3,170.2 L318.1,179.5 L319.0,170.2 L319.8,180.5 L320.7,183.5 L321.5,190.5 L322.4,184.5 L323.2,185.9 L324.0,194.9 L324.9,198.2 L325.7,219.3 L326.6,227.9 L327.4,228.3 L328.2,213.2 L329.1,208.6 L329.9,206.6 L330.8,222.9 L331.6,233.3 L332.5,239.0 L333.3,240.6 L334.1,243.3 L335.0,238.6 L335.8,239.3 L336.7,247.0 L337.5,250.0 L338.3,238.0 L339.2,244.0 L340.0,245.0 L340.9,257.3 L341.7,261.3 L342.6,257.7 L343.4,258.7 L344.2,261.3 L345.1,264.0 L345.9,264.4 L346.8,265.0 L347.6,264.7 L348.4,267.0 L349.3,265.7 L350.1,262.3 L351.0,264.0 L351.8,258.0 L352.7,249.7 L353.5,249.0 L354.3,246.3 L355.2,241.3 L356.0,241.6 L356.9,242.0 L357.7,248.7 L358.5,252.7 L359.4,254.0 L360.2,255.7 L361.1,248.0 L361.9,254.0 L362.7,251.3 L363.6,236.0 L364.4,219.9 L365.3,220.9 L366.1,218.9 L367.0,221.6 L367.8,219.9 L368.6,218.3 L369.5,222.6 L370.3,219.3 L371.2,284.7 L372.0,287.4 L372.8,285.1 L373.7,281.1 L374.5,274.0 L375.4,278.7 L376.2,280.7 L377.1,281.4 L377.9,280.7 L378.7,257.7 L379.6,260.7 L380.4,261.3 L381.3,217.3 L382.1,207.2 L382.9,197.9 L383.8,205.2 L384.6,195.5 L385.5,186.2 L386.3,193.5 L387.2,168.8 L388.0,142.8 L388.8,136.8 L389.7,130.4 L390.5,126.7 L391.4,191.2 L392.2,199.2 L393.0,201.9 L393.9,195.9 L394.7,181.2 L395.6,180.5 L396.4,199.6 L397.3,192.5 L398.1,170.2 L398.9,149.8 L399.8,118.7 L400.6,117.1 L401.5,153.8 L402.3,135.8 L403.1,127.1 L404.0,124.7 L404.8,126.7 L405.7,153.8 L406.5,158.1 L407.3,158.1 L408.2,140.8 L409.0,132.8 L409.9,91.7 L410.7,86.3 L411.6,134.1 L412.4,139.4 L413.2,109.7 L414.1,105.4 L414.9,120.1 L415.8,134.8 L416.6,133.4 L417.4,127.7 L418.3,170.8 L419.1,135.8 L420.0,82.3 L420.8,119.1 L421.7,176.8 L422.5,157.1 L423.3,186.2 L424.2,142.4 L425.0,134.4 L425.9,110.0 L426.7,147.1 L427.5,149.1 L428.4,155.5 L429.2,150.1 L430.1,162.5 L430.9,161.1 L431.8,133.1 L432.6,111.0 L433.4,109.7 L434.3,114.4 L435.1,130.7 L436.0,129.4 L436.8,138.8 L437.6,132.8 L438.5,131.4 L439.3,130.1 L440.2,176.5 L441.0,188.9 L441.9,164.1 L442.7,162.8 L443.5,167.5 L444.4,162.1 L445.2,151.8 L446.1,138.1 L446.9,139.1 L447.7,159.8 L448.6,151.5 L449.4,147.4 L450.3,172.8 L451.1,175.2 L451.9,185.2 L452.8,168.2 L453.6,157.1 L454.5,161.8 L455.3,156.8 L456.2,106.7 L457.0,149.8 L457.8,159.8 L458.7,118.1 L459.5,128.1 L460.4,98.3 L461.2,94.3 L462.0,110.7 L462.9,96.3 L463.7,131.4 L464.6,131.7 L465.4,141.4 L466.3,138.4 L467.1,138.8 L467.9,159.1 L468.8,151.5 L469.6,128.4 L470.5,90.3 L471.3,100.4 L472.1,89.7 L473.0,113.4 L473.8,87.3 L474.7,108.7 L475.5,104.7 L476.4,104.0 L477.2,144.1 L478.0,149.8 L478.9,142.1 L479.7,79.6 L480.6,83.7 L481.4,82.6 L482.2,85.7 L483.1,72.0 L483.9,75.6 L484.8,91.0 L485.6,131.1 L486.5,154.8 L487.3,164.1 L488.1,158.5 L489.0,154.5 L489.8,117.7 L490.7,77.0 L491.5,88.0 L492.3,103.0 L493.2,117.1 L494.0,135.8 L494.9,123.7 L495.7,132.4 L496.5,115.0 L497.4,104.7 L498.2,114.4 L499.1,105.7 L499.9,91.0 L500.8,138.1 L501.6,151.5 L502.4,170.8 L503.3,188.9 L504.1,197.9 L505.0,206.9 L505.8,201.9 L506.6,197.9 L507.5,182.5 L508.3,180.8 L509.2,178.8 L510.0,179.5 L510.9,184.9 L511.7,187.2 L512.5,182.5 L513.4,163.1 L514.2,158.8 L515.1,170.5 L515.9,162.8 L516.7,169.2 L517.6,163.1 L518.4,155.5 L519.3,195.9 L520.1,185.9 L521.0,195.9 L521.8,193.2 L522.6,205.2 L523.5,200.2 L524.3,202.9 L525.2,195.5 L526.0,182.9 L526.8,175.5 L527.7,140.1 L528.5,121.7 L529.4,98.3 L530.2,109.4 L531.1,100.7 L531.9,80.0 L532.7,70.0 L533.6,72.6 L534.4,112.4 L535.3,118.4 L536.1,131.7 L536.9,136.4 L537.8,117.4 L538.6,111.7 L539.5,101.0 L540.3,125.1 L541.2,111.4 L542.0,141.1 L542.8,119.7 L543.7,110.0 L544.5,113.0 L545.4,136.1 L546.2,137.1 L547.0,125.4 L547.9,99.0 L548.7,97.3 L549.6,93.0 L550.4,101.0 L551.2,95.3 L552.1,85.0 L552.9,99.4 L553.8,100.7 L554.6,79.3 L555.5,107.0 L556.3,123.7 L557.1,121.1 L558.0,128.1 L558.8,148.8 L559.7,153.1 L560.5,173.2 L561.3,179.8 L562.2,180.8 L563.0,196.5 L563.9,195.9 L564.7,162.5 L565.6,151.5 L566.4,152.1 L567.2,154.1 L568.1,161.1 L568.9,166.2 L569.8,163.5 L570.6,165.5 L571.4,174.2 L572.3,177.8 L573.1,184.5 L574.0,164.5 L574.8,165.5 L575.7,178.2 L576.5,164.5 L577.3,196.9 L578.2,186.2 L579.0,190.9 L579.9,151.1 L580.7,154.5 L581.5,189.2 L582.4,207.2 L583.2,186.9 L584.1,162.1 L584.9,136.1 L585.8,144.8 L586.6,148.1 L587.4,153.1 L588.3,131.7 L589.1,145.1 L590.0,159.1 L590.8,149.1 L591.6,114.4 L592.5,110.4 L593.3,101.4 L594.2,91.7 L595.0,74.3 L595.8,82.0 L596.7,84.0 L597.5,86.0 L598.4,137.1 L599.2,130.7 L600.1,91.7 L600.9,102.4 L601.7,138.4 L602.6,166.2 L603.4,187.5 L604.3,184.2 L605.1,185.5 L605.9,185.9 L606.8,184.2 L607.6,178.8 L608.5,164.5 L609.3,146.8 L610.2,141.4 L611.0,127.1 L611.8,81.3 L612.7,108.7 L613.5,102.0 L614.4,67.6 L615.2,74.0 L616.0,85.7 L616.9,87.7 L617.7,78.3 L618.6,91.0 L619.4,86.7 L620.3,81.0 L621.1,93.7 L621.9,110.7 L622.8,109.4 L623.6,83.3 L624.5,101.4 L625.3,109.0 L626.1,140.1 L627.0,132.1 L627.8,133.1 L628.7,113.4 L629.5,114.0 L630.4,111.0 L631.2,117.7 L632.0,131.7 L632.9,163.1 L633.7,190.5 L634.6,152.5 L635.4,133.1 L636.2,140.1 L637.1,156.1 L637.9,165.5 L638.8,163.5 L639.6,198.9 L640.4,194.5 L641.3,201.6 L642.1,196.2 L643.0,207.6 L643.8,201.6 L644.7,205.9 L645.5,209.2 L646.3,197.2 L647.2,192.5 L648.0,185.5 L648.9,216.6 L649.7,215.3 L650.5,213.2 L651.4,205.6 L652.2,182.2 L653.1,170.2 L653.9,164.1 L654.8,185.2 L655.6,190.2 L656.4,170.5 L657.3,110.7 L658.1,115.7 L659.0,128.4 L659.8,123.7 L660.6,127.1 L661.5,145.8 L662.3,153.8 L663.2,148.8 L664.0,131.4 L664.9,137.4 L665.7,138.8 L666.5,150.8 L667.4,170.8 L668.2,175.2 L669.1,172.5 L669.9,173.8 L670.7,163.5 L671.6,153.5 L672.4,166.8 L673.3,172.5 L674.1,201.6 L675.0,186.2 L675.8,172.5 L676.6,184.2 L677.5,187.5 L678.3,208.6 L679.2,207.2 L680.0,191.2" stroke="#8c564b" stroke-width="2" fill="none" opacity="0.8"/>
<!-- Forecast Difference -->
<path d="M80.0,420.0 L80.8,420.0 L81.7,420.0 L82.5,420.0 L83.4,420.0 L84.2,420.0 L85.0,420.0 L85.9,420.0 L86.7,420.0 L87.6,420.0 L88.4,420.0 L89.3,420.0 L90.1,420.0 L90.9,420.0 L91.8,420.0 L92.6,420.0 L93.5,420.0 L94.3,420.0 L95.1,420.0 L96.0,420.0 L96.8,420.0 L97.7,420.0 L98.5,420.0 L99.4,420.0 L100.2,420.0 L101.0,420.0 L101.9,420.0 L102.7,420.0 L103.6,420.0 L104.4,420.0 L105.2,420.0 L106.1,420.0 L106.9,420.0 L107.8,420.0 L108.6,420.0 L109.5,420.0 L110.3,420.0 L111.1,420.0 L112.0,420.0 L112.8,420.0 L113.7,420.0 L114.5,420.0 L115.3,420.0 L116.2,420.0 L117.0,420.0 L117.9,420.0 L118.7,420.0 L119.6,420.0 L120.4,420.0 L121.2,420.0 L122.1,420.0 L122.9,420.0 L123.8,420.0 L124.6,420.0 L125.4,420.0 L126.3,420.0 L127.1,420.0 L128.0,420.0 L128.8,420.0 L129.6,420.0 L130.5,420.0 L131.3,420.0 L132.2,420.0 L133.0,420.0 L133.9,420.0 L134.7,420.0 L135.5,420.0 L136.4,420.0 L137.2,420.0 L138.1,420.0 L138.9,420.0 L139.7,420.0 L140.6,420.0 L141.4,420.0 L142.3,420.0 L143.1,420.0 L144.0,420.0 L144.8,420.0 L145.6,420.0 L146.5,420.0 L147.3,420.0 L148.2,420.0 L149.0,420.0 L149.8,420.0 L150.7,420.0 L151.5,420.0 L152.4,420.0 L153.2,420.0 L154.1,420.0 L154.9,420.0 L155.7,420.0 L156.6,420.0 L157.4,420.0 L158.3,420.0 L159.1,420.0 L159.9,420.0 L160.8,420.0 L161.6,420.0 L162.5,420.0 L163.3,420.0 L164.2,420.0 L165.0,420.0 L165.8,420.0 L166.7,420.0 L167.5,420.0 L168.4,420.0 L169.2,420.0 L170.0,420.0 L170.9,420.0 L171.7,420.0 L172.6,420.0 L173.4,420.0 L174.2,420.0 L175.1,420.0 L175.9,420.0 L176.8,420.0 L177.6,420.0 L178.5,420.0 L179.3,420.0 L180.1,420.0 L181.0,420.0 L181.8,420.0 L182.7,420.0 L183.5,420.0 L184.3,420.0 L185.2,420.0 L186.0,420.0 L186.9,420.0 L187.7,420.0 L188.6,420.0 L189.4,420.0 L190.2,420.0 L191.1,420.0 L191.9,420.0 L192.8,420.0 L193.6,420.0 L194.4,420.0 L195.3,420.0 L196.1,420.0 L197.0,420.0 L197.8,420.0 L198.7,420.0 L199.5,420.0 L200.3,420.0 L201.2,420.0 L202.0,420.0 L202.9,420.0 L203.7,420.0 L204.5,420.0 L205.4,420.0 L206.2,420.0 L207.1,420.0 L207.9,420.0 L208.8,420.0 L209.6,420.0 L210.4,420.0 L211.3,420.0 L212.1,420.0 L213.0,420.0 L213.8,420.0 L214.6,420.0 L215.5,420.0 L216.3,420.0 L217.2,420.0 L218.0,420.0 L218.8,420.0 L219.7,420.0 L220.5,420.0 L221.4,420.0 L222.2,420.0 L223.1,420.0 L223.9,420.0 L224.7,420.0 L225.6,420.0 L226.4,420.0 L227.3,420.0 L228.1,420.0 L228.9,420.0 L229.8,420.0 L230.6,420.0 L231.5,420.0 L232.3,420.0 L233.2,420.0 L234.0,420.0 L234.8,420.0 L235.7,420.0 L236.5,420.0 L237.4,420.0 L238.2,420.0 L239.0,420.0 L239.9,420.0 L240.7,420.0 L241.6,420.0 L242.4,420.0 L243.3,420.0 L244.1,420.0 L244.9,420.0 L245.8,420.0 L246.6,420.0 L247.5,420.0 L248.3,420.0 L249.1,420.0 L250.0,420.0 L250.8,420.0 L251.7,420.0 L252.5,420.0 L253.4,420.0 L254.2,420.0 L255.0,420.0 L255.9,420.0 L256.7,420.0 L257.6,420.0 L258.4,420.0 L259.2,420.0 L260.1,420.0 L260.9,420.0 L261.8,420.0 L262.6,420.0 L263.5,420.0 L264.3,420.0 L265.1,420.0 L266.0,420.0 L266.8,420.0 L267.7,420.0 L268.5,420.0 L269.3,420.0 L270.2,420.0 L271.0,420.0 L271.9,420.0 L272.7,420.0 L273.5,420.0 L274.4,420.0 L275.2,420.0 L276.1,420.0 L276.9,420.0 L277.8,420.0 L278.6,420.0 L279.4,420.0 L280.3,420.0 L281.1,420.0 L282.0,420.0 L282.8,420.0 L283.6,420.0 L284.5,420.0 L285.3,420.0 L286.2,420.0 L287.0,420.0 L287.9,420.0 L288.7,420.0 L289.5,420.0 L290.4,420.0 L291.2,420.0 L292.1,420.0 L292.9,420.0 L293.7,420.0 L294.6,420.0 L295.4,420.0 L296.3,420.0 L297.1,420.0 L298.0,420.0 L298.8,420.0 L299.6,420.0 L300.5,420.0 L301.3,420.0 L302.2,420.0 L303.0,420.0 L303.8,420.0 L304.7,420.0 L305.5,420.0 L306.4,420.0 L307.2,420.0 L308.1,420.0 L308.9,420.0 L309.7,420.0 L310.6,420.0 L311.4,420.0 L312.3,420.0 L313.1,420.0 L313.9,420.0 L314.8,420.0 L315.6,420.0 L316.5,420.0 L317.3,420.0 L318.1,420.0 L319.0,420.0 L319.8,420.0 L320.7,420.0 L321.5,420.0 L322.4,420.0 L323.2,420.0 L324.0,420.0 L324.9,420.0 L325.7,420.0 L326.6,420.0 L327.4,420.0 L328.2,420.0 L329.1,420.0 L329.9,420.0 L330.8,420.0 L331.6,420.0 L332.5,420.0 L333.3,420.0 L334.1,420.0 L335.0,420.0 L335.8,420.0 L336.7,420.0 L337.5,420.0 L338.3,420.0 L339.2,420.0 L340.0,420.0 L340.9,420.0 L341.7,420.0 L342.6,420.0 L343.4,420.0 L344.2,420.0 L345.1,420.0 L345.9,420.0 L346.8,420.0 L347.6,420.0 L348.4,420.0 L349.3,420.0 L350.1,420.0 L351.0,420.0 L351.8,420.0 L352.7,420.0 L353.5,420.0 L354.3,420.0 L355.2,420.0 L356.0,420.0 L356.9,420.0 L357.7,420.0 L358.5,420.0 L359.4,420.0 L360.2,420.0 L361.1,420.0 L361.9,420.0 L362.7,420.0 L363.6,420.0 L364.4,420.0 L365.3,420.0 L366.1,420.0 L367.0,420.0 L367.8,420.0 L368.6,420.0 L369.5,420.0 L370.3,420.0 L371.2,420.0 L372.0,420.0 L372.8,420.0 L373.7,420.0 L374.5,420.0 L375.4,420.0 L376.2,420.0 L377.1,420.0 L377.9,420.0 L378.7,420.0 L379.6,420.0 L380.4,420.0 L381.3,420.0 L382.1,420.0 L382.9,420.0 L383.8,420.0 L384.6,420.0 L385.5,420.0 L386.3,420.0 L387.2,420.0 L388.0,420.0 L388.8,420.0 L389.7,420.0 L390.5,420.0 L391.4,420.0 L392.2,420.0 L393.0,420.0 L393.9,420.0 L394.7,420.0 L395.6,420.0 L396.4,420.0 L397.3,420.0 L398.1,420.0 L398.9,420.0 L399.8,420.0 L400.6,420.0 L401.5,420.0 L402.3,420.0 L403.1,420.0 L404.0,420.0 L404.8,420.0 L405.7,420.0 L406.5,420.0 L407.3,420.0 L408.2,420.0 L409.0,420.0 L409.9,420.0 L410.7,420.0 L411.6,420.0 L412.4,420.0 L413.2,420.0 L414.1,420.0 L414.9,420.0 L415.8,420.0 L416.6,420.0 L417.4,420.0 L418.3,420.0 L419.1,420.0 L420.0,420.0 L420.8,420.0 L421.7,420.0 L422.5,420.0 L423.3,420.0 L424.2,420.0 L425.0,420.0 L425.9,420.0 L426.7,420.0 L427.5,420.0 L428.4,420.0 L429.2,420.0 L430.1,420.0 L430.9,420.0 L431.8,420.0 L432.6,420.0 L433.4,420.0 L434.3,420.0 L435.1,420.0 L436.0,420.0 L436.8,420.0 L437.6,420.0 L438.5,420.0 L439.3,420.0 L440.2,420.0 L441.0,420.0 L441.9,420.0 L442.7,420.0 L443.5,420.0 L444.4,420.0 L445.2,420.0 L446.1,420.0 L446.9,420.0 L447.7,420.0 L448.6,420.0 L449.4,420.0 L450.3,420.0 L451.1,420.0 L451.9,420.0 L452.8,420.0 L453.6,420.0 L454.5,420.0 L455.3,420.0 L456.2,420.0 L457.0,420.0 L457.8,420.0 L458.7,420.0 L459.5,420.0 L460.4,420.0 L461.2,420.0 L462.0,420.0 L462.9,420.0 L463.7,420.0 L464.6,420.0 L465.4,420.0 L466.3,420.0 L467.1,420.0 L467.9,420.0 L468.8,420.0 L469.6,420.0 L470.5,420.0 L471.3,420.0 L472.1,420.0 L473.0,420.0 L473.8,420.0 L474.7,420.0 L475.5,420.0 L476.4,420.0 L477.2,420.0 L478.0,420.0 L478.9,420.0 L479.7,420.0 L480.6,420.0 L481.4,420.0 L482.2,420.0 L483.1,420.0 L483.9,420.0 L484.8,420.0 L485.6,420.0 L486.5,420.0 L487.3,420.0 L488.1,420.0 L489.0,420.0 L489.8,420.0 L490.7,420.0 L491.5,420.0 L492.3,420.0 L493.2,420.0 L494.0,420.0 L494.9,420.0 L495.7,420.0 L496.5,420.0 L497.4,420.0 L498.2,420.0 L499.1,420.0 L499.9,420.0 L500.8,420.0 L501.6,420.0 L502.4,420.0 L503.3,420.0 L504.1,420.0 L505.0,420.0 L505.8,420.0 L506.6,420.0 L507.5,420.0 L508.3,420.0 L509.2,420.0 L510.0,420.0 L510.9,420.0 L511.7,420.0 L512.5,420.0 L513.4,420.0 L514.2,420.0 L515.1,420.0 L515.9,420.0 L516.7,420.0 L517.6,420.0 L518.4,420.0 L519.3,420.0 L520.1,420.0 L521.0,420.0 L521.8,420.0 L522.6,420.0 L523.5,420.0 L524.3,420.0 L525.2,420.0 L526.0,420.0 L526.8,420.0 L527.7,420.0 L528.5,420.0 L529.4,420.0 L530.2,420.0 L531.1,420.0 L531.9,420.0 L532.7,420.0 L533.6,420.0 L534.4,420.0 L535.3,420.0 L536.1,420.0 L536.9,420.0 L537.8,420.0 L538.6,420.0 L539.5,420.0 L540.3,420.0 L541.2,420.0 L542.0,420.0 L542.8,420.0 L543.7,420.0 L544.5,420.0 L545.4,420.0 L546.2,420.0 L547.0,420.0 L547.9,420.0 L548.7,420.0 L549.6,420.0 L550.4,420.0 L551.2,420.0 L552.1,420.0 L552.9,420.0 L553.8,420.0 L554.6,420.0 L555.5,420.0 L556.3,420.0 L557.1,420.0 L558.0,420.0 L558.8,420.0 L559.7,420.0 L560.5,420.0 L561.3,420.0 L562.2,420.0 L563.0,420.0 L563.9,420.0 L564.7,420.0 L565.6,420.0 L566.4,420.0 L567.2,420.0 L568.1,420.0 L568.9,420.0 L569.8,420.0 L570.6,420.0 L571.4,420.0 L572.3,420.0 L573.1,420.0 L574.0,420.0 L574.8,420.0 L575.7,420.0 L576.5,420.0 L577.3,420.0 L578.2,420.0 L579.0,420.0 L579.9,420.0 L580.7,420.0 L581.5,420.0 L582.4,420.0 L583.2,420.0 L584.1,420.0 L584.9,420.0 L585.8,420.0 L586.6,420.0 L587.4,420.0 L588.3,420.0 L589.1,420.0 L590.0,420.0 L590.8,420.0 L591.6,420.0 L592.5,420.0 L593.3,420.0 L594.2,420.0 L595.0,420.0 L595.8,420.0 L596.7,420.0 L597.5,420.0 L598.4,420.0 L599.2,420.0 L600.1,420.0 L600.9,420.0 L601.7,420.0 L602.6,420.0 L603.4,420.0 L604.3,420.0 L605.1,420.0 L605.9,420.0 L606.8,420.0 L607.6,420.0 L608.5,420.0 L609.3,420.0 L610.2,420.0 L611.0,420.0 L611.8,420.0 L612.7,420.0 L613.5,420.0 L614.4,420.0 L615.2,420.0 L616.0,420.0 L616.9,420.0 L617.7,420.0 L618.6,420.0 L619.4,420.0 L620.3,420.0 L621.1,420.0 L621.9,420.0 L622.8,420.0 L623.6,420.0 L624.5,420.0 L625.3,420.0 L626.1,420.0 L627.0,420.0 L627.8,420.0 L628.7,420.0 L629.5,420.0 L630.4,420.0 L631.2,420.0 L632.0,420.0 L632.9,420.0 L633.7,420.0 L634.6,420.0 L635.4,420.0 L636.2,420.0 L637.1,420.0 L637.9,420.0 L638.8,420.0 L639.6,420.0 L640.4,420.0 L641.3,420.0 L642.1,420.0 L643.0,420.0 L643.8,420.0 L644.7,420.0 L645.5,420.0 L646.3,420.0 L647.2,420.0 L648.0,420.0 L648.9,420.0 L649.7,420.0 L650.5,420.0 L651.4,420.0 L652.2,420.0 L653.1,420.0 L653.9,420.0 L654.8,420.0 L655.6,420.0 L656.4,420.0 L657.3,420.0 L658.1,420.0 L659.0,420.0 L659.8,420.0 L660.6,420.0 L661.5,420.0 L662.3,420.0 L663.2,420.0 L664.0,420.0 L664.9,420.0 L665.7,420.0 L666.5,420.0 L667.4,420.0 L668.2,420.0 L669.1,420.0 L669.9,420.0 L670.7,420.0 L671.6,420.0 L672.4,420.0 L673.3,420.0 L674.1,420.0 L675.0,420.0 L675.8,420.0 L676.6,420.0 L677.5,420.0 L678.3,420.0 L679.2,420.0 L680.0,420.0" stroke="#e377c2" stroke-width="2" fill="none" opacity="0.8"/>

<!-- Legend -->
<line x1="690" y1="70" x2="705" y2="70" stroke="#1f77b4" stroke-width="3"/>
<text x="710" y="74" class="legend">Wind Generation</text>
<line x1="690" y1="88" x2="705" y2="88" stroke="#ff7f0e" stroke-width="3"/>
<text x="710" y="92" class="legend">Hydro Generation</text>
<line x1="690" y1="106" x2="705" y2="106" stroke="#2ca02c" stroke-width="3"/>
<text x="710" y="110" class="legend">Thermal Generation</text>
<line x1="690" y1="124" x2="705" y2="124" stroke="#d62728" stroke-width="3"/>
<text x="710" y="128" class="legend">Solar Generation</text>
<line x1="690" y1="142" x2="705" y2="142" stroke="#9467bd" stroke-width="3"/>
<text x="710" y="146" class="legend">Forecast</text>
<line x1="690" y1="160" x2="705" y2="160" stroke="#8c564b" stroke-width="3"/>
<text x="710" y="164" class="legend">Total Generation</text>
<line x1="690" y1="178" x2="705" y2="178" stroke="#e377c2" stroke-width="3"/>
<text x="710" y="182" class="legend">Forecast Difference</text>

<!-- Date range -->
<text x="80" y="495" class="legend">Range: 09/30 - 10/30/2025 (714 records)</text>
</svg>