<?xml version="1.0" encoding="UTF-8"?>
<svg width="800" height="500" xmlns="http://www.w3.org/2000/svg">
<style>
.axis-line { stroke: #333; stroke-width: 1; }
.grid-line { stroke: #ddd; stroke-width: 0.5; }
.title { font: 16px Arial; text-anchor: middle; fill: #333; }
.axis-label { font: 12px Arial; text-anchor: middle; fill: #666; }
.legend { font: 10px Arial; fill: #333; }
</style>

<!-- Title -->
<text x="400.0" y="25" class="title">Northwestern Energy Generation Data - Past 30 Days</text>

<!-- Plot area background -->
<rect x="80" y="50" width="600" height="370" fill="white" stroke="#ddd"/>

<!-- Y-axis -->
<line x1="80" y1="50" x2="80" y2="420" class="axis-line"/>
<text x="30" y="235.0" class="axis-label" transform="rotate(-90, 30, 235.0)">Generation (MW)</text>

<!-- X-axis -->
<line x1="80" y1="420" x2="680" y2="420" class="axis-line"/>
<text x="380.0" y="480" class="axis-label">Time</text>
<line x1="80" y1="420.0" x2="680" y2="420.0" class="grid-line"/>
<text x="70" y="425.0" class="legend" text-anchor="end">0</text>
<line x1="80" y1="327.5" x2="680" y2="327.5" class="grid-line"/>
<text x="70" y="332.5" class="legend" text-anchor="end">303</text>
<line x1="80" y1="235.0" x2="680" y2="235.0" class="grid-line"/>
<text x="70" y="240.0" class="legend" text-anchor="end">606</text>
<line x1="80" y1="142.5" x2="680" y2="142.5" class="grid-line"/>
<text x="70" y="147.5" class="legend" text-anchor="end">910</text>
<line x1="80" y1="50.0" x2="680" y2="50.0" class="grid-line"/>
<text x="70" y="55.0" class="legend" text-anchor="end">1213</text>
<!-- Wind Generation -->
<path d="M80.0,411.8 L82.0,410.5 L84.1,416.3 L86.1,398.9 L88.2,403.8 L90.2,397.7 L123.7,416.3 L125.7,413.0 L127.7,409.9 L129.8,405.1 L131.8,401.1 L133.9,369.0 L135.9,373.6 L137.9,372.1 L140.0,381.9 L142.0,403.2 L144.1,406.0 L146.1,407.5 L148.1,417.6 L150.2,409.9 L152.2,403.2 L154.3,398.9 L156.3,400.5 L158.3,413.9 L160.4,419.4 L162.4,420.0 L164.5,418.2 L166.5,416.3 L168.5,417.6 L170.6,415.1 L172.6,407.8 L174.6,412.4 L176.7,377.3 L178.7,394.7 L180.8,410.5 L182.8,378.2 L184.8,406.6 L186.9,385.2 L188.9,389.8 L191.0,386.4 L193.0,399.9 L195.0,412.1 L197.1,393.8 L199.1,383.4 L201.2,381.9 L203.2,387.1 L205.2,408.4 L207.3,415.4 L209.3,416.6 L211.4,412.4 L213.4,409.9 L215.4,411.8 L217.5,413.3 L219.5,414.8 L221.5,411.5 L223.6,407.5 L225.6,398.0 L227.7,390.7 L229.7,382.5 L231.7,370.0 L233.8,373.3 L235.8,378.2 L237.9,378.5 L239.9,384.9 L241.9,393.2 L244.0,393.2 L246.0,373.9 L248.1,390.4 L250.1,402.3 L252.1,403.2 L254.2,399.6 L256.2,400.8 L258.2,404.4 L260.3,401.4 L262.3,406.0 L264.4,410.2 L266.4,408.4 L268.4,407.8 L270.5,408.1 L272.5,402.9 L274.6,394.4 L276.6,391.3 L278.6,381.9 L280.7,373.3 L282.7,379.4 L284.8,373.6 L286.8,374.2 L288.8,372.7 L290.9,391.0 L292.9,408.4 L295.0,414.2 L297.0,417.9 L299.0,420.0 L301.1,420.0 L303.1,420.0 L305.1,420.0 L307.2,419.7 L309.2,416.3 L311.3,415.1 L313.3,415.4 L315.3,415.1 L317.4,415.4 L319.4,414.8 L321.5,409.9 L323.5,401.1 L325.5,387.1 L327.6,378.5 L329.6,351.7 L331.7,345.9 L333.7,352.3 L335.7,342.5 L337.8,351.0 L339.8,381.6 L341.9,384.9 L343.9,394.7 L345.9,410.2 L348.0,416.0 L350.0,417.9 L352.0,420.0 L354.1,420.0 L356.1,420.0 L358.2,415.7 L360.2,409.9 L362.2,412.4 L364.3,413.0 L366.3,414.5 L368.4,416.9 L370.4,414.5 L372.4,413.0 L374.5,401.7 L376.5,387.1 L378.6,375.8 L380.6,355.6 L382.6,362.9 L384.7,386.1 L386.7,408.1 L388.8,416.3 L390.8,418.8 L392.8,420.0 L394.9,420.0 L396.9,419.7 L398.9,419.7 L401.0,420.0 L403.0,420.0 L405.1,420.0 L407.1,416.0 L409.1,412.7 L411.2,415.1 L413.2,417.9 L415.3,416.0 L417.3,416.0 L419.3,412.1 L421.4,405.1 L423.4,390.7 L425.5,372.1 L427.5,354.4 L429.5,349.5 L431.6,353.8 L433.6,373.0 L435.3,390.7 L437.3,405.1 L439.4,411.8 L441.4,418.2 L443.5,419.7 L445.5,420.0 L447.5,419.7 L449.6,418.8 L451.6,419.1 L453.7,415.7 L455.7,407.8 L457.7,399.9 L459.8,400.8 L461.8,398.9 L463.9,404.7 L465.9,406.9 L467.9,403.5 L470.0,392.2 L472.0,373.9 L474.1,368.4 L476.1,327.3 L478.1,324.2 L480.2,320.2 L482.2,335.5 L484.2,351.0 L486.3,364.8 L488.3,380.6 L490.4,393.2 L492.4,398.0 L494.4,404.1 L496.5,402.9 L498.5,401.1 L500.6,406.9 L502.6,405.1 L504.6,399.3 L506.7,388.0 L508.7,374.2 L510.8,379.1 L512.8,393.5 L514.8,394.1 L516.9,381.6 L518.9,388.0 L521.0,393.8 L523.0,394.1 L525.0,401.7 L527.1,402.3 L529.1,406.6 L531.1,405.4 L533.2,414.2 L535.2,408.7 L537.3,414.5 L539.3,404.4 L541.3,404.1 L543.4,402.0 L545.4,398.0 L547.5,402.3 L549.5,407.5 L551.5,415.7 L553.6,417.3 L555.6,416.9 L557.7,418.5 L559.7,420.0 L561.7,417.6 L563.8,397.7 L565.8,392.5 L567.9,373.6 L569.9,374.8 L571.9,390.1 L574.0,410.2 L576.0,410.5 L578.0,411.5 L580.1,412.1 L582.1,405.4 L584.2,397.4 L586.2,391.6 L588.2,396.5 L590.3,403.2 L592.3,404.1 L594.4,406.6 L596.4,408.7 L598.4,413.6 L600.5,410.8 L602.5,411.5 L604.6,403.8 L606.6,398.9 L608.6,399.6 L610.7,395.0 L612.7,352.3 L614.7,369.4 L616.8,382.2 L618.8,373.6 L620.9,388.6 L622.9,395.3 L624.9,409.6 L627.0,409.9 L629.0,412.1 L631.1,408.7 L633.1,411.2 L635.1,409.3 L637.2,393.5 L639.2,394.4 L641.3,393.8 L643.3,394.7 L645.3,398.9 L647.4,409.9 L649.4,410.5 L651.5,402.9 L653.5,396.5 L655.5,398.9 L657.6,388.9 L659.6,395.0 L661.6,399.3 L663.7,405.1 L665.7,402.3 L667.8,410.8 L669.8,409.6 L671.8,403.5 L673.9,404.7 L675.9,415.4 L678.0,417.3 L680.0,414.8" stroke="#1f77b4" stroke-width="2" fill="none" opacity="0.8"/>
<!-- Hydro Generation -->
<path d="M80.0,352.6 L82.0,353.5 L84.1,353.2 L86.1,353.8 L88.2,353.8 L90.2,353.5 L123.7,352.9 L125.7,353.5 L127.7,353.2 L129.8,353.2 L131.8,353.5 L133.9,353.5 L135.9,352.6 L137.9,353.2 L140.0,352.6 L142.0,352.6 L144.1,352.6 L146.1,352.3 L148.1,352.9 L150.2,352.6 L152.2,352.6 L154.3,352.9 L156.3,352.3 L158.3,352.6 L160.4,352.6 L162.4,352.3 L164.5,352.6 L166.5,352.9 L168.5,353.5 L170.6,353.5 L172.6,352.9 L174.6,353.5 L176.7,353.2 L178.7,353.2 L180.8,353.2 L182.8,353.2 L184.8,353.2 L186.9,353.2 L188.9,353.5 L191.0,353.5 L193.0,353.2 L195.0,353.2 L197.1,353.2 L199.1,352.9 L201.2,353.5 L203.2,353.2 L205.2,353.2 L207.3,352.6 L209.3,353.2 L211.4,353.5 L213.4,353.5 L215.4,353.8 L217.5,353.8 L219.5,354.1 L221.5,354.7 L223.6,354.4 L225.6,354.4 L227.7,354.1 L229.7,354.1 L231.7,355.3 L233.8,355.0 L235.8,355.3 L237.9,355.3 L239.9,355.3 L241.9,355.6 L244.0,355.3 L246.0,355.9 L248.1,355.6 L250.1,355.3 L252.1,356.2 L254.2,356.2 L256.2,355.6 L258.2,355.9 L260.3,356.8 L262.3,356.8 L264.4,356.8 L266.4,354.1 L268.4,357.2 L270.5,356.8 L272.5,356.8 L274.6,357.5 L276.6,351.7 L278.6,358.1 L280.7,359.0 L282.7,359.0 L284.8,358.7 L286.8,359.0 L288.8,358.7 L290.9,359.0 L292.9,358.7 L295.0,359.0 L297.0,359.0 L299.0,359.0 L301.1,359.3 L303.1,359.6 L305.1,359.6 L307.2,361.1 L309.2,361.1 L311.3,360.8 L313.3,361.4 L315.3,360.5 L317.4,360.5 L319.4,360.8 L321.5,361.1 L323.5,359.3 L325.5,359.6 L327.6,359.6 L329.6,358.7 L331.7,359.0 L333.7,359.0 L335.7,358.1 L337.8,357.8 L339.8,358.1 L341.9,357.8 L343.9,357.8 L345.9,357.5 L348.0,357.5 L350.0,357.8 L352.0,357.8 L354.1,357.5 L356.1,358.1 L358.2,358.4 L360.2,358.1 L362.2,358.7 L364.3,358.1 L366.3,358.4 L368.4,358.1 L370.4,358.7 L372.4,358.4 L374.5,358.4 L376.5,358.7 L378.6,357.2 L380.6,357.2 L382.6,356.5 L384.7,356.2 L386.7,356.2 L388.8,356.2 L390.8,356.5 L392.8,356.2 L394.9,356.2 L396.9,356.2 L398.9,356.2 L401.0,356.8 L403.0,359.3 L405.1,358.4 L407.1,359.0 L409.1,358.7 L411.2,359.3 L413.2,359.0 L415.3,359.0 L417.3,359.3 L419.3,359.9 L421.4,359.6 L423.4,359.6 L425.5,359.3 L427.5,359.0 L429.5,358.1 L431.6,357.8 L433.6,358.1 L435.3,357.8 L437.3,358.4 L439.4,358.1 L441.4,357.8 L443.5,356.8 L445.5,357.2 L447.5,356.5 L449.6,356.2 L451.6,356.2 L453.7,356.5 L455.7,356.5 L457.7,356.2 L459.8,355.9 L461.8,356.2 L463.9,356.5 L465.9,355.9 L467.9,356.2 L470.0,356.2 L472.0,356.5 L474.1,356.5 L476.1,356.8 L478.1,356.5 L480.2,356.5 L482.2,356.2 L484.2,356.8 L486.3,356.2 L488.3,356.5 L490.4,356.2 L492.4,356.2 L494.4,356.8 L496.5,356.5 L498.5,356.8 L500.6,356.2 L502.6,357.2 L504.6,355.9 L506.7,356.8 L508.7,356.2 L510.8,356.8 L512.8,356.5 L514.8,356.2 L516.9,356.5 L518.9,356.8 L521.0,356.5 L523.0,356.5 L525.0,356.5 L527.1,357.2 L529.1,356.5 L531.1,356.8 L533.2,356.8 L535.2,356.5 L537.3,357.2 L539.3,356.5 L541.3,357.2 L543.4,356.8 L545.4,357.2 L547.5,357.5 L549.5,357.5 L551.5,357.2 L553.6,356.8 L555.6,356.2 L557.7,356.5 L559.7,356.8 L561.7,356.8 L563.8,356.5 L565.8,356.5 L567.9,354.7 L569.9,355.0 L571.9,354.4 L574.0,354.1 L576.0,354.1 L578.0,353.8 L580.1,353.5 L582.1,353.5 L584.2,353.5 L586.2,352.9 L588.2,352.9 L590.3,352.9 L592.3,352.6 L594.4,352.3 L596.4,352.6 L598.4,352.9 L600.5,352.9 L602.5,352.6 L604.6,352.6 L606.6,353.2 L608.6,353.5 L610.7,353.5 L612.7,353.2 L614.7,353.5 L616.8,353.5 L618.8,353.2 L620.9,353.5 L622.9,353.5 L624.9,353.8 L627.0,353.8 L629.0,354.1 L631.1,354.7 L633.1,354.7 L635.1,354.4 L637.2,354.4 L639.2,354.7 L641.3,354.4 L643.3,354.7 L645.3,355.0 L647.4,356.2 L649.4,355.9 L651.5,356.2 L653.5,356.2 L655.5,355.9 L657.6,356.2 L659.6,355.6 L661.6,355.6 L663.7,355.6 L665.7,355.6 L667.8,355.3 L669.8,355.3 L671.8,353.2 L673.9,353.2 L675.9,352.9 L678.0,353.2 L680.0,353.2" stroke="#ff7f0e" stroke-width="2" fill="none" opacity="0.8"/>
<!-- Thermal Generation -->
<path d="M80.0,314.7 L82.0,315.0 L84.1,313.8 L86.1,316.3 L88.2,328.8 L90.2,338.8 L123.7,332.4 L125.7,333.0 L127.7,338.8 L129.8,328.8 L131.8,329.1 L133.9,328.5 L135.9,326.3 L137.9,324.8 L140.0,321.5 L142.0,317.2 L144.1,321.2 L146.1,320.5 L148.1,319.9 L150.2,319.0 L152.2,320.5 L154.3,321.5 L156.3,337.9 L158.3,338.2 L160.4,338.2 L162.4,339.5 L164.5,340.7 L166.5,341.6 L168.5,326.6 L170.6,327.9 L172.6,327.9 L174.6,328.2 L176.7,328.5 L178.7,328.5 L180.8,327.9 L182.8,326.9 L184.8,326.3 L186.9,325.1 L188.9,321.8 L191.0,322.1 L193.0,321.2 L195.0,320.5 L197.1,320.2 L199.1,322.4 L201.2,320.5 L203.2,320.8 L205.2,321.8 L207.3,322.4 L209.3,320.5 L211.4,323.3 L213.4,322.7 L215.4,323.6 L217.5,323.9 L219.5,324.5 L221.5,324.2 L223.6,323.9 L225.6,324.2 L227.7,324.5 L229.7,323.0 L231.7,323.0 L233.8,323.3 L235.8,325.7 L237.9,322.1 L239.9,321.2 L241.9,321.5 L244.0,320.5 L246.0,320.5 L248.1,320.8 L250.1,323.6 L252.1,319.9 L254.2,320.8 L256.2,337.9 L258.2,339.5 L260.3,333.0 L262.3,322.1 L264.4,323.3 L266.4,323.0 L268.4,323.6 L270.5,323.9 L272.5,327.3 L274.6,326.3 L276.6,323.3 L278.6,323.3 L280.7,322.4 L282.7,322.4 L284.8,321.8 L286.8,321.8 L288.8,321.8 L290.9,320.5 L292.9,319.6 L295.0,319.3 L297.0,319.6 L299.0,322.1 L301.1,319.3 L303.1,330.6 L305.1,328.2 L307.2,331.2 L309.2,338.8 L311.3,322.4 L313.3,323.3 L315.3,323.6 L317.4,324.2 L319.4,323.6 L321.5,323.3 L323.5,309.9 L325.5,308.9 L327.6,311.1 L329.6,307.1 L331.7,307.4 L333.7,308.3 L335.7,307.4 L337.8,306.5 L339.8,305.6 L341.9,305.9 L343.9,305.0 L345.9,304.4 L348.0,304.1 L350.0,304.7 L352.0,307.7 L354.1,336.7 L356.1,338.2 L358.2,338.8 L360.2,338.5 L362.2,341.0 L364.3,313.5 L366.3,308.3 L368.4,306.8 L370.4,310.5 L372.4,308.9 L374.5,304.4 L376.5,303.8 L378.6,300.4 L380.6,298.3 L382.6,311.4 L384.7,304.7 L386.7,306.5 L388.8,296.7 L390.8,319.6 L392.8,323.0 L394.9,322.4 L396.9,295.8 L398.9,298.6 L401.0,298.6 L403.0,323.3 L405.1,309.9 L407.1,311.1 L409.1,312.6 L411.2,313.2 L413.2,309.3 L415.3,307.7 L417.3,307.4 L419.3,306.5 L421.4,307.1 L423.4,307.1 L425.5,305.3 L427.5,305.0 L429.5,301.6 L431.6,303.8 L433.6,298.3 L435.3,297.4 L437.3,305.9 L439.4,296.1 L441.4,297.4 L443.5,299.8 L445.5,300.7 L447.5,297.4 L449.6,297.7 L451.6,300.7 L453.7,301.0 L455.7,307.7 L457.7,321.2 L459.8,307.4 L461.8,320.2 L463.9,313.8 L465.9,313.2 L467.9,311.4 L470.0,312.6 L472.0,310.8 L474.1,311.4 L476.1,308.6 L478.1,306.2 L480.2,305.3 L482.2,301.9 L484.2,340.7 L486.3,340.1 L488.3,328.2 L490.4,327.6 L492.4,326.9 L494.4,326.6 L496.5,312.3 L498.5,327.3 L500.6,332.4 L502.6,327.6 L504.6,327.9 L506.7,328.5 L508.7,331.8 L510.8,326.9 L512.8,325.4 L514.8,305.0 L516.9,305.6 L518.9,305.9 L521.0,311.1 L523.0,308.0 L525.0,312.6 L527.1,305.9 L529.1,304.7 L531.1,303.5 L533.2,303.5 L535.2,329.1 L537.3,323.3 L539.3,324.2 L541.3,340.7 L543.4,340.4 L545.4,329.1 L547.5,327.3 L549.5,327.6 L551.5,331.2 L553.6,331.5 L555.6,326.9 L557.7,325.7 L559.7,326.0 L561.7,329.1 L563.8,319.9 L565.8,319.6 L567.9,316.3 L569.9,313.8 L571.9,313.5 L574.0,312.3 L576.0,310.8 L578.0,310.8 L580.1,310.8 L582.1,308.3 L584.2,306.2 L586.2,336.4 L588.2,335.2 L590.3,334.9 L592.3,334.3 L594.4,325.7 L596.4,325.1 L598.4,328.2 L600.5,328.2 L602.5,330.0 L604.6,335.2 L606.6,335.8 L608.6,345.6 L610.7,345.9 L612.7,345.3 L614.7,345.3 L616.8,343.7 L618.8,327.3 L620.9,324.2 L622.9,321.2 L624.9,322.4 L627.0,321.8 L629.0,321.5 L631.1,326.6 L633.1,337.9 L635.1,338.2 L637.2,337.9 L639.2,338.2 L641.3,338.5 L643.3,338.5 L645.3,339.2 L647.4,338.2 L649.4,337.9 L651.5,340.7 L653.5,341.3 L655.5,341.3 L657.6,341.9 L659.6,339.2 L661.6,341.9 L663.7,341.6 L665.7,312.3 L667.8,312.0 L669.8,313.5 L671.8,312.9 L673.9,312.3 L675.9,322.1 L678.0,321.5 L680.0,319.6" stroke="#2ca02c" stroke-width="2" fill="none" opacity="0.8"/>
<!-- Solar Generation -->
<path d="M80.0,392.2 L82.0,411.2 L84.1,420.0 L86.1,420.0 L88.2,420.0 L90.2,420.0 L123.7,393.5 L125.7,382.2 L127.7,384.6 L129.8,399.3 L131.8,418.2 L133.9,420.0 L135.9,420.0 L137.9,420.0 L140.0,420.0 L142.0,420.0 L144.1,420.0 L146.1,420.0 L148.1,420.0 L150.2,420.0 L152.2,420.0 L154.3,418.2 L156.3,404.4 L158.3,380.3 L160.4,378.2 L162.4,387.4 L164.5,379.7 L166.5,384.6 L168.5,388.3 L170.6,398.3 L172.6,401.1 L174.6,400.5 L176.7,408.1 L178.7,415.7 L180.8,418.2 L182.8,420.0 L184.8,420.0 L186.9,420.0 L188.9,420.0 L191.0,420.0 L193.0,420.0 L195.0,420.0 L197.1,420.0 L199.1,420.0 L201.2,420.0 L203.2,418.2 L205.2,406.0 L207.3,387.7 L209.3,378.2 L211.4,380.9 L213.4,378.8 L215.4,380.0 L217.5,377.3 L219.5,377.0 L221.5,377.0 L223.6,377.3 L225.6,389.8 L227.7,402.9 L229.7,418.5 L231.7,420.0 L233.8,420.0 L235.8,420.0 L237.9,420.0 L239.9,420.0 L241.9,420.0 L244.0,420.0 L246.0,420.0 L248.1,420.0 L250.1,420.0 L252.1,419.4 L254.2,409.0 L256.2,393.8 L258.2,385.5 L260.3,379.7 L262.3,384.6 L264.4,377.3 L266.4,383.1 L268.4,375.5 L270.5,375.8 L272.5,376.7 L274.6,380.6 L276.6,400.2 L278.6,418.5 L280.7,420.0 L282.7,420.0 L284.8,420.0 L286.8,420.0 L288.8,420.0 L290.9,420.0 L292.9,420.0 L295.0,420.0 L297.0,420.0 L299.0,420.0 L301.1,418.5 L303.1,397.1 L305.1,379.4 L307.2,376.1 L309.2,375.8 L311.3,375.8 L313.3,376.1 L315.3,375.5 L317.4,376.4 L319.4,377.3 L321.5,376.7 L323.5,386.1 L325.5,408.1 L327.6,418.5 L329.6,420.0 L331.7,420.0 L333.7,420.0 L335.7,420.0 L337.8,420.0 L339.8,420.0 L341.9,420.0 L343.9,420.0 L345.9,420.0 L348.0,420.0 L350.0,419.1 L352.0,399.6 L354.1,378.8 L356.1,376.4 L358.2,375.5 L360.2,375.8 L362.2,380.0 L364.3,377.6 L366.3,380.0 L368.4,379.4 L370.4,382.2 L372.4,385.2 L374.5,401.7 L376.5,419.1 L378.6,420.0 L380.6,420.0 L382.6,420.0 L384.7,420.0 L386.7,420.0 L388.8,420.0 L390.8,420.0 L392.8,420.0 L394.9,420.0 L396.9,420.0 L398.9,418.5 L401.0,402.0 L403.0,381.3 L405.1,377.9 L407.1,378.2 L409.1,376.1 L411.2,379.7 L413.2,376.4 L415.3,387.4 L417.3,382.2 L419.3,392.8 L421.4,398.0 L423.4,410.2 L425.5,419.4 L427.5,420.0 L429.5,420.0 L431.6,420.0 L433.6,420.0 L435.3,420.0 L437.3,420.0 L439.4,420.0 L441.4,420.0 L443.5,420.0 L445.5,420.0 L447.5,419.7 L449.6,412.7 L451.6,398.3 L453.7,406.3 L455.7,394.4 L457.7,395.3 L459.8,390.1 L461.8,393.8 L463.9,382.8 L465.9,379.4 L467.9,391.6 L470.0,413.0 L472.0,412.4 L474.1,419.7 L476.1,420.0 L478.1,420.0 L480.2,420.0 L482.2,420.0 L484.2,420.0 L486.3,420.0 L488.3,420.0 L490.4,420.0 L492.4,420.0 L494.4,420.0 L496.5,419.7 L498.5,416.0 L500.6,415.1 L502.6,414.2 L504.6,412.7 L506.7,409.3 L508.7,406.3 L510.8,411.2 L512.8,404.1 L514.8,400.5 L516.9,407.5 L518.9,411.8 L521.0,418.5 L523.0,420.0 L525.0,420.0 L527.1,420.0 L529.1,420.0 L531.1,420.0 L533.2,420.0 L535.2,420.0 L537.3,420.0 L539.3,420.0 L541.3,420.0 L543.4,420.0 L545.4,420.0 L547.5,417.9 L549.5,412.4 L551.5,411.5 L553.6,404.4 L555.6,402.3 L557.7,398.0 L559.7,397.1 L561.7,399.9 L563.8,402.3 L565.8,406.6 L567.9,403.2 L569.9,415.7 L571.9,419.4 L574.0,420.0 L576.0,420.0 L578.0,420.0 L580.1,420.0 L582.1,420.0 L584.2,420.0 L586.2,420.0 L588.2,420.0 L590.3,420.0 L592.3,420.0 L594.4,420.0 L596.4,413.6 L598.4,400.8 L600.5,393.2 L602.5,388.3 L604.6,385.2 L606.6,379.1 L608.6,395.0 L610.7,389.5 L612.7,399.9 L614.7,406.3 L616.8,381.9 L618.8,410.2 L620.9,419.1 L622.9,420.0 L624.9,420.0 L627.0,420.0 L629.0,420.0 L631.1,420.0 L633.1,420.0 L635.1,420.0 L637.2,420.0 L639.2,420.0 L641.3,420.0 L643.3,420.0 L645.3,412.7 L647.4,382.5 L649.4,377.6 L651.5,376.4 L653.5,376.7 L655.5,383.7 L657.6,376.1 L659.6,376.1 L661.6,380.9 L663.7,376.4 L665.7,394.7 L667.8,402.0 L669.8,419.1 L671.8,420.0 L673.9,420.0 L675.9,420.0 L678.0,420.0 L680.0,420.0" stroke="#d62728" stroke-width="2" fill="none" opacity="0.8"/>
<!-- Forecast -->
<path d="M80.0,100.6 L82.0,112.8 L84.1,125.3 L86.1,135.0 L88.2,152.4 L90.2,178.7 L123.7,74.9 L125.7,67.6 L127.7,72.2 L129.8,82.6 L131.8,97.8 L133.9,111.6 L135.9,122.5 L137.9,151.2 L140.0,187.8 L142.0,207.7 L144.1,219.2 L146.1,230.2 L148.1,234.8 L150.2,234.2 L152.2,227.5 L154.3,207.4 L156.3,180.5 L158.3,154.9 L160.4,136.6 L162.4,123.1 L164.5,109.7 L166.5,100.9 L168.5,92.6 L170.6,86.2 L172.6,78.6 L174.6,78.6 L176.7,83.2 L178.7,93.9 L180.8,107.3 L182.8,122.5 L184.8,140.2 L186.9,158.2 L188.9,235.7 L191.0,213.8 L193.0,244.6 L195.0,244.9 L197.1,242.4 L199.1,240.0 L201.2,239.1 L203.2,240.9 L205.2,207.4 L207.3,199.7 L209.3,187.8 L211.4,177.5 L213.4,147.2 L215.4,144.2 L217.5,145.1 L219.5,146.0 L221.5,149.1 L223.6,162.2 L225.6,173.2 L227.7,173.8 L229.7,173.8 L231.7,236.6 L233.8,240.3 L235.8,409.9 L237.9,223.2 L239.9,224.7 L241.9,237.3 L244.0,245.8 L246.0,248.8 L248.1,246.7 L250.1,236.3 L252.1,216.2 L254.2,192.4 L256.2,170.1 L258.2,159.8 L260.3,154.9 L262.3,148.8 L264.4,146.3 L266.4,140.2 L268.4,132.6 L270.5,123.1 L272.5,115.8 L274.6,121.6 L276.6,131.7 L278.6,181.1 L280.7,186.3 L282.7,192.7 L284.8,193.6 L286.8,218.6 L288.8,235.4 L290.9,238.8 L292.9,240.0 L295.0,241.5 L297.0,243.4 L299.0,245.8 L301.1,247.9 L303.1,242.1 L305.1,230.5 L307.2,216.2 L309.2,207.4 L311.3,204.9 L313.3,204.0 L315.3,202.8 L317.4,202.8 L319.4,202.2 L321.5,172.9 L323.5,169.5 L325.5,167.1 L327.6,170.7 L329.6,182.0 L331.7,184.2 L333.7,209.8 L335.7,219.2 L337.8,225.4 L339.8,218.0 L341.9,226.0 L343.9,233.9 L345.9,240.0 L348.0,251.0 L350.0,247.6 L352.0,235.4 L354.1,219.2 L356.1,203.1 L358.2,192.1 L360.2,184.5 L362.2,197.0 L364.3,194.8 L366.3,193.9 L368.4,163.4 L370.4,161.9 L372.4,159.5 L374.5,157.9 L376.5,170.4 L378.6,175.6 L380.6,177.5 L382.6,205.8 L384.7,228.7 L386.7,225.0 L388.8,236.0 L390.8,244.3 L392.8,248.2 L394.9,247.6 L396.9,237.6 L398.9,217.1 L401.0,192.7 L403.0,169.2 L405.1,156.7 L407.1,149.7 L409.1,141.8 L411.2,138.4 L413.2,129.9 L415.3,119.8 L417.3,142.1 L419.3,141.5 L421.4,139.3 L423.4,137.2 L425.5,144.2 L427.5,154.9 L429.5,120.7 L431.6,132.0 L433.6,194.8 L435.3,220.8 L437.3,235.4 L439.4,244.3 L441.4,249.5 L443.5,248.8 L445.5,240.0 L447.5,220.8 L449.6,196.1 L451.6,171.7 L453.7,156.1 L455.7,147.2 L457.7,138.7 L459.8,131.1 L461.8,121.9 L463.9,112.2 L465.9,100.9 L467.9,92.0 L470.0,94.8 L472.0,104.5 L474.1,118.6 L476.1,133.2 L478.1,142.1 L480.2,162.5 L482.2,170.7 L484.2,208.3 L486.3,228.1 L488.3,237.6 L490.4,243.4 L492.4,242.7 L494.4,234.8 L496.5,217.4 L498.5,194.8 L500.6,170.7 L502.6,156.1 L504.6,149.4 L506.7,142.7 L508.7,139.0 L510.8,132.9 L512.8,124.7 L514.8,118.0 L516.9,115.2 L518.9,119.8 L521.0,121.3 L523.0,127.4 L525.0,144.5 L527.1,150.3 L529.1,166.8 L531.1,198.8 L533.2,215.6 L535.2,226.9 L537.3,235.4 L539.3,240.3 L541.3,238.8 L543.4,230.5 L545.4,215.3 L547.5,193.3 L549.5,171.0 L551.5,159.1 L553.6,155.5 L555.6,151.2 L557.7,147.9 L559.7,146.6 L561.7,144.2 L563.8,139.9 L565.8,137.8 L567.9,142.1 L569.9,149.7 L571.9,157.6 L574.0,162.8 L576.0,163.7 L578.0,177.8 L580.1,205.5 L582.1,223.2 L584.2,234.2 L586.2,241.5 L588.2,244.9 L590.3,244.0 L592.3,234.2 L594.4,218.0 L596.4,195.1 L598.4,172.9 L600.5,161.9 L602.5,158.8 L604.6,154.9 L606.6,151.5 L608.6,151.2 L610.7,148.8 L612.7,143.9 L614.7,140.8 L616.8,144.8 L618.8,152.4 L620.9,160.1 L622.9,167.4 L624.9,167.4 L627.0,182.0 L629.0,209.5 L631.1,223.8 L633.1,234.2 L635.1,243.0 L637.2,247.9 L639.2,249.5 L641.3,247.0 L643.3,241.5 L645.3,228.4 L647.4,211.0 L649.4,198.5 L651.5,192.4 L653.5,187.8 L655.5,179.6 L657.6,174.7 L659.6,174.1 L661.6,165.9 L663.7,158.2 L665.7,159.1 L667.8,157.3 L669.8,165.9 L671.8,174.4 L673.9,173.5 L675.9,186.9 L678.0,206.1 L680.0,210.7" stroke="#9467bd" stroke-width="2" fill="none" opacity="0.8"/>
<!-- Total Generation -->
<path d="M80.0,211.3 L82.0,230.2 L84.1,243.4 L86.1,229.0 L88.2,246.4 L90.2,250.1 L123.7,235.1 L125.7,221.7 L127.7,226.6 L129.8,226.3 L131.8,241.8 L133.9,211.0 L135.9,212.5 L137.9,210.4 L140.0,216.2 L142.0,233.3 L144.1,240.0 L146.1,240.6 L148.1,250.7 L150.2,241.8 L152.2,236.6 L154.3,231.5 L156.3,235.1 L158.3,225.0 L160.4,228.4 L162.4,239.4 L164.5,231.1 L166.5,235.4 L168.5,226.0 L170.6,234.8 L172.6,229.6 L174.6,234.5 L176.7,207.0 L178.7,232.1 L180.8,249.8 L182.8,218.3 L184.8,246.1 L186.9,223.5 L188.9,225.0 L191.0,222.0 L193.0,234.2 L195.0,245.8 L197.1,227.2 L199.1,218.6 L201.2,215.9 L203.2,219.2 L205.2,229.3 L207.3,218.0 L209.3,208.6 L211.4,210.1 L213.4,204.9 L215.4,209.2 L217.5,208.3 L219.5,210.4 L221.5,207.4 L223.6,203.1 L225.6,206.4 L227.7,212.2 L229.7,218.0 L231.7,208.3 L233.8,211.6 L235.8,219.2 L237.9,215.9 L239.9,221.4 L241.9,230.2 L244.0,229.0 L246.0,210.4 L248.1,226.9 L250.1,241.2 L252.1,238.8 L254.2,225.7 L256.2,228.1 L258.2,225.4 L260.3,211.0 L262.3,209.5 L264.4,207.7 L266.4,208.6 L268.4,204.0 L270.5,204.6 L272.5,203.7 L274.6,198.8 L276.6,206.4 L278.6,221.7 L280.7,214.7 L282.7,220.8 L284.8,214.1 L286.8,215.0 L288.8,213.1 L290.9,230.5 L292.9,246.7 L295.0,252.5 L297.0,256.8 L299.0,261.0 L301.1,257.4 L303.1,247.9 L305.1,227.8 L307.2,228.1 L309.2,232.1 L311.3,214.1 L313.3,216.2 L315.3,214.7 L317.4,216.5 L319.4,216.5 L321.5,211.0 L323.5,196.4 L325.5,203.7 L327.6,207.7 L329.6,177.5 L331.7,172.3 L333.7,179.6 L335.7,168.0 L337.8,175.3 L339.8,205.2 L341.9,208.6 L343.9,217.4 L345.9,232.1 L348.0,237.6 L350.0,239.4 L352.0,225.4 L354.1,233.6 L356.1,233.6 L358.2,228.4 L360.2,222.3 L362.2,232.1 L364.3,202.2 L366.3,201.2 L368.4,201.2 L370.4,205.8 L372.4,205.5 L374.5,206.1 L376.5,208.6 L378.6,193.3 L380.6,171.0 L382.6,190.9 L384.7,207.0 L386.7,230.8 L388.8,229.3 L390.8,254.9 L392.8,259.8 L394.9,259.2 L396.9,231.8 L398.9,233.0 L401.0,217.4 L403.0,224.1 L405.1,206.7 L407.1,204.3 L409.1,200.0 L411.2,207.4 L413.2,202.5 L415.3,210.1 L417.3,204.9 L419.3,211.3 L421.4,209.8 L423.4,207.7 L425.5,196.1 L427.5,178.7 L429.5,169.5 L431.6,175.6 L433.6,189.7 L435.3,206.1 L437.3,229.3 L439.4,226.0 L441.4,233.3 L443.5,236.3 L445.5,237.9 L447.5,233.3 L449.6,225.4 L451.6,214.4 L453.7,219.6 L455.7,206.4 L457.7,212.5 L459.8,194.2 L461.8,209.2 L463.9,197.9 L465.9,195.5 L467.9,202.8 L470.0,214.1 L472.0,193.6 L474.1,196.1 L476.1,153.0 L478.1,147.2 L480.2,142.4 L482.2,154.0 L484.2,208.9 L486.3,221.1 L488.3,225.4 L490.4,236.9 L492.4,241.2 L494.4,247.6 L496.5,231.5 L498.5,241.2 L500.6,250.7 L502.6,244.0 L504.6,235.7 L506.7,222.6 L508.7,208.6 L510.8,214.1 L512.8,219.6 L514.8,195.8 L516.9,191.2 L518.9,202.5 L521.0,219.9 L523.0,218.6 L525.0,231.1 L527.1,225.7 L529.1,228.1 L531.1,226.0 L533.2,234.8 L535.2,254.6 L537.3,255.3 L539.3,245.5 L541.3,262.0 L543.4,259.2 L545.4,244.3 L547.5,244.9 L549.5,244.9 L551.5,255.6 L553.6,250.1 L555.6,242.4 L557.7,238.8 L559.7,240.0 L561.7,243.4 L563.8,216.5 L565.8,215.3 L567.9,187.8 L569.9,199.4 L571.9,217.4 L574.0,236.6 L576.0,235.4 L578.0,236.0 L580.1,236.3 L582.1,227.2 L584.2,217.1 L586.2,241.2 L588.2,244.6 L590.3,251.0 L592.3,251.0 L594.4,244.6 L596.4,240.0 L598.4,235.4 L600.5,225.0 L602.5,222.3 L604.6,216.8 L606.6,207.0 L608.6,233.6 L610.7,223.8 L612.7,190.6 L614.7,214.4 L616.8,201.2 L618.8,204.3 L620.9,225.4 L622.9,230.2 L624.9,246.1 L627.0,245.8 L629.0,247.9 L631.1,250.4 L633.1,264.1 L635.1,262.3 L637.2,246.1 L639.2,247.6 L641.3,247.0 L643.3,247.9 L645.3,245.8 L647.4,226.9 L649.4,222.0 L651.5,216.2 L653.5,210.7 L655.5,219.9 L657.6,203.1 L659.6,205.8 L661.6,217.7 L663.7,218.6 L665.7,204.9 L667.8,220.2 L669.8,237.6 L671.8,229.6 L673.9,230.2 L675.9,250.7 L678.0,252.2 L680.0,247.9" stroke="#8c564b" stroke-width="2" fill="none" opacity="0.8"/>
<!-- Forecast Difference -->
<path d="M82.0,420.0 L84.1,420.0 L86.1,420.0 L88.2,420.0 L90.2,420.0 L125.7,420.0 L127.7,420.0 L129.8,420.0 L131.8,420.0 L133.9,420.0 L135.9,420.0 L137.9,420.0 L140.0,420.0 L142.0,420.0 L144.1,420.0 L146.1,420.0 L148.1,420.0 L150.2,420.0 L152.2,420.0 L154.3,420.0 L156.3,420.0 L158.3,420.0 L160.4,420.0 L162.4,420.0 L164.5,420.0 L166.5,420.0 L168.5,420.0 L170.6,420.0 L172.6,420.0 L174.6,420.0 L176.7,420.0 L178.7,420.0 L180.8,420.0 L182.8,420.0 L184.8,420.0 L186.9,420.0 L188.9,420.0 L191.0,420.0 L193.0,420.0 L195.0,420.0 L197.1,420.0 L199.1,420.0 L201.2,420.0 L203.2,420.0 L205.2,420.0 L207.3,420.0 L209.3,420.0 L211.4,420.0 L213.4,420.0 L215.4,420.0 L217.5,420.0 L219.5,420.0 L221.5,420.0 L223.6,420.0 L225.6,420.0 L227.7,420.0 L229.7,420.0 L231.7,420.0 L233.8,420.0 L235.8,420.0 L237.9,420.0 L239.9,420.0 L241.9,420.0 L244.0,420.0 L246.0,420.0 L248.1,420.0 L250.1,420.0 L252.1,420.0 L254.2,420.0 L256.2,420.0 L258.2,420.0 L260.3,420.0 L262.3,420.0 L264.4,420.0 L266.4,420.0 L268.4,420.0 L270.5,420.0 L272.5,420.0 L274.6,420.0 L276.6,420.0 L278.6,420.0 L280.7,420.0 L282.7,420.0 L284.8,420.0 L286.8,420.0 L288.8,420.0 L290.9,420.0 L292.9,420.0 L295.0,420.0 L297.0,420.0 L299.0,420.0 L301.1,420.0 L303.1,420.0 L305.1,420.0 L307.2,420.0 L309.2,420.0 L311.3,420.0 L313.3,420.0 L315.3,420.0 L317.4,420.0 L319.4,420.0 L321.5,420.0 L323.5,420.0 L325.5,420.0 L327.6,420.0 L329.6,420.0 L331.7,420.0 L333.7,420.0 L335.7,420.0 L337.8,420.0 L339.8,420.0 L341.9,420.0 L343.9,420.0 L345.9,420.0 L348.0,420.0 L350.0,420.0 L352.0,420.0 L354.1,420.0 L356.1,420.0 L358.2,420.0 L360.2,420.0 L362.2,420.0 L364.3,420.0 L366.3,420.0 L368.4,420.0 L370.4,420.0 L372.4,420.0 L374.5,420.0 L376.5,420.0 L378.6,420.0 L380.6,420.0 L382.6,420.0 L384.7,420.0 L386.7,420.0 L388.8,420.0 L390.8,420.0 L392.8,420.0 L394.9,420.0 L396.9,420.0 L398.9,420.0 L401.0,420.0 L403.0,420.0 L405.1,420.0 L407.1,420.0 L409.1,420.0 L411.2,420.0 L413.2,420.0 L415.3,420.0 L417.3,420.0 L419.3,420.0 L421.4,420.0 L423.4,420.0 L425.5,420.0 L427.5,420.0 L429.5,420.0 L431.6,420.0 L433.6,420.0 L435.3,420.0 L437.3,420.0 L439.4,420.0 L441.4,420.0 L443.5,420.0 L445.5,420.0 L447.5,420.0 L449.6,420.0 L451.6,420.0 L453.7,420.0 L455.7,420.0 L457.7,420.0 L459.8,420.0 L461.8,420.0 L463.9,420.0 L465.9,420.0 L467.9,420.0 L470.0,420.0 L472.0,420.0 L474.1,420.0 L476.1,420.0 L478.1,420.0 L480.2,420.0 L482.2,420.0 L484.2,420.0 L486.3,420.0 L488.3,420.0 L490.4,420.0 L492.4,420.0 L494.4,420.0 L496.5,420.0 L498.5,420.0 L500.6,420.0 L502.6,420.0 L504.6,420.0 L506.7,420.0 L508.7,420.0 L510.8,420.0 L512.8,420.0 L514.8,420.0 L516.9,420.0 L518.9,420.0 L521.0,420.0 L523.0,420.0 L525.0,420.0 L527.1,420.0 L529.1,420.0 L531.1,420.0 L533.2,420.0 L535.2,420.0 L537.3,420.0 L539.3,420.0 L541.3,420.0 L543.4,420.0 L545.4,420.0 L547.5,420.0 L549.5,420.0 L551.5,420.0 L553.6,420.0 L555.6,420.0 L557.7,420.0 L559.7,420.0 L561.7,420.0 L563.8,420.0 L565.8,420.0 L567.9,420.0 L569.9,420.0 L571.9,420.0 L574.0,420.0 L576.0,420.0 L578.0,420.0 L580.1,420.0 L582.1,420.0 L584.2,420.0 L586.2,420.0 L588.2,420.0 L590.3,420.0 L592.3,420.0 L594.4,420.0 L596.4,420.0 L598.4,420.0 L600.5,420.0 L602.5,420.0 L604.6,420.0 L606.6,420.0 L608.6,420.0 L610.7,420.0 L612.7,420.0 L614.7,420.0 L616.8,420.0 L618.8,420.0 L620.9,420.0 L622.9,420.0 L624.9,420.0 L627.0,420.0 L629.0,420.0 L631.1,420.0 L633.1,420.0 L635.1,420.0 L637.2,420.0 L639.2,420.0 L641.3,420.0 L643.3,420.0 L645.3,420.0 L647.4,420.0 L649.4,420.0 L651.5,420.0 L653.5,420.0 L655.5,420.0 L657.6,420.0 L659.6,420.0 L661.6,420.0 L663.7,420.0 L665.7,420.0 L667.8,420.0 L669.8,420.0 L671.8,420.0 L673.9,420.0 L675.9,420.0 L678.0,420.0 L680.0,420.0" stroke="#e377c2" stroke-width="2" fill="none" opacity="0.8"/>

<!-- Legend -->
<line x1="690" y1="70" x2="705" y2="70" stroke="#1f77b4" stroke-width="3"/>
<text x="710" y="74" class="legend">Wind Generation</text>
<line x1="690" y1="88" x2="705" y2="88" stroke="#ff7f0e" stroke-width="3"/>
<text x="710" y="92" class="legend">Hydro Generation</text>
<line x1="690" y1="106" x2="705" y2="106" stroke="#2ca02c" stroke-width="3"/>
<text x="710" y="110" class="legend">Thermal Generation</text>
<line x1="690" y1="124" x2="705" y2="124" stroke="#d62728" stroke-width="3"/>
<text x="710" y="128" class="legend">Solar Generation</text>
<line x1="690" y1="142" x2="705" y2="142" stroke="#9467bd" stroke-width="3"/>
<text x="710" y="146" class="legend">Forecast</text>
<line x1="690" y1="160" x2="705" y2="160" stroke="#8c564b" stroke-width="3"/>
<text x="710" y="164" class="legend">Total Generation</text>
<line x1="690" y1="178" x2="705" y2="178" stroke="#e377c2" stroke-width="3"/>
<text x="710" y="182" class="legend">Forecast Difference</text>

<!-- Date range -->
<text x="80" y="495" class="legend">Range: 08/18 - 08/31/2025 (280 records)</text>
</svg>