<?xml version="1.0" encoding="UTF-8"?>
<svg width="800" height="500" xmlns="http://www.w3.org/2000/svg">
<style>
.axis-line { stroke: #333; stroke-width: 1; }
.grid-line { stroke: #ddd; stroke-width: 0.5; }
.title { font: 16px Arial; text-anchor: middle; fill: #333; }
.axis-label { font: 12px Arial; text-anchor: middle; fill: #666; }
.legend { font: 10px Arial; fill: #333; }
</style>

<!-- Title -->
<text x="400.0" y="25" class="title">Northwestern Energy Generation Data - Past 30 Days</text>

<!-- Plot area background -->
<rect x="80" y="50" width="600" height="370" fill="white" stroke="#ddd"/>

<!-- Y-axis -->
<line x1="80" y1="50" x2="80" y2="420" class="axis-line"/>
<text x="30" y="235.0" class="axis-label" transform="rotate(-90, 30, 235.0)">Generation (MW)</text>

<!-- X-axis -->
<line x1="80" y1="420" x2="680" y2="420" class="axis-line"/>
<text x="380.0" y="480" class="axis-label">Time</text>
<line x1="80" y1="420.0" x2="680" y2="420.0" class="grid-line"/>
<text x="70" y="425.0" class="legend" text-anchor="end">0</text>
<line x1="80" y1="327.5" x2="680" y2="327.5" class="grid-line"/>
<text x="70" y="332.5" class="legend" text-anchor="end">256</text>
<line x1="80" y1="235.0" x2="680" y2="235.0" class="grid-line"/>
<text x="70" y="240.0" class="legend" text-anchor="end">513</text>
<line x1="80" y1="142.5" x2="680" y2="142.5" class="grid-line"/>
<text x="70" y="147.5" class="legend" text-anchor="end">769</text>
<line x1="80" y1="50.0" x2="680" y2="50.0" class="grid-line"/>
<text x="70" y="55.0" class="legend" text-anchor="end">1026</text>
<!-- Wind Generation -->
<path d="M80.0,396.6 L80.8,409.2 L81.7,407.4 L82.5,402.7 L83.4,397.3 L84.2,404.5 L85.0,415.3 L85.9,418.6 L86.7,418.2 L87.6,418.6 L88.4,414.2 L89.3,408.5 L90.1,402.3 L90.9,413.9 L91.8,413.9 L92.6,412.4 L93.5,412.8 L94.3,415.7 L95.1,416.8 L96.0,418.6 L96.8,418.9 L97.7,417.1 L98.5,413.9 L99.4,414.6 L100.2,410.6 L101.0,416.0 L101.9,414.6 L102.7,417.5 L103.6,413.1 L104.4,412.8 L105.2,412.4 L106.1,412.1 L106.9,407.7 L107.8,398.4 L108.6,401.2 L109.5,404.5 L110.3,398.7 L111.1,403.0 L112.0,398.0 L112.8,378.5 L113.7,363.4 L114.5,366.6 L115.3,344.6 L116.2,352.2 L117.0,361.2 L117.9,375.3 L118.7,394.4 L119.6,405.2 L120.4,416.0 L121.2,412.4 L122.1,390.8 L122.9,281.9 L123.8,306.4 L124.6,309.3 L125.4,342.8 L126.3,337.0 L127.1,325.9 L128.0,335.2 L128.8,307.1 L129.6,313.6 L130.5,338.8 L131.3,363.0 L132.2,365.9 L133.0,363.7 L133.9,354.7 L134.7,358.3 L135.5,369.9 L136.4,363.4 L137.2,377.4 L138.1,390.4 L138.9,367.7 L139.7,373.1 L140.6,369.9 L141.4,368.1 L142.3,369.9 L143.1,354.4 L144.0,352.9 L144.8,359.0 L145.6,345.0 L146.5,338.5 L147.3,337.0 L148.2,330.6 L149.0,378.5 L149.8,392.6 L150.7,392.2 L151.5,379.6 L152.4,390.1 L153.2,397.3 L154.1,389.3 L154.9,384.7 L155.7,398.4 L156.6,383.6 L157.4,379.2 L158.3,391.9 L159.1,402.0 L159.9,396.9 L160.8,399.4 L161.6,390.8 L162.5,407.7 L163.3,410.6 L164.2,415.7 L165.0,406.3 L165.8,403.0 L166.7,394.8 L167.5,407.0 L168.4,400.9 L169.2,398.4 L170.0,396.6 L170.9,398.4 L171.7,409.2 L172.6,416.4 L173.4,419.3 L174.2,420.0 L175.1,419.6 L175.9,420.0 L176.8,419.6 L177.6,420.0 L178.5,420.0 L179.3,420.0 L180.1,418.2 L181.0,402.0 L181.8,399.8 L182.7,405.6 L183.5,405.6 L184.3,408.1 L185.2,412.1 L186.0,418.9 L186.9,419.6 L187.7,419.3 L188.6,418.6 L189.4,416.8 L190.2,417.8 L191.1,417.1 L191.9,415.3 L192.8,416.8 L193.6,417.8 L194.4,417.5 L195.3,418.2 L196.1,414.2 L197.0,414.2 L197.8,411.7 L198.7,406.3 L199.5,399.4 L200.3,394.4 L201.2,364.8 L202.0,349.7 L202.9,373.1 L203.7,406.3 L204.5,412.4 L205.4,417.1 L206.2,420.0 L207.1,420.0 L207.9,419.3 L208.8,419.3 L209.6,417.1 L210.4,417.1 L211.3,418.2 L212.1,416.8 L213.0,420.0 L213.8,417.8 L214.6,416.8 L215.5,416.0 L216.3,417.1 L217.2,417.5 L218.0,418.6 L218.8,415.3 L219.7,410.3 L220.5,406.7 L221.4,393.7 L222.2,387.5 L223.1,391.9 L223.9,399.8 L224.7,406.3 L225.6,414.6 L226.4,417.8 L227.3,419.6 L228.1,419.3 L228.9,418.2 L229.8,416.8 L230.6,413.1 L231.5,411.0 L232.3,409.2 L233.2,416.0 L234.0,415.7 L234.8,407.4 L235.7,390.4 L236.5,372.8 L237.4,376.4 L238.2,377.1 L239.0,359.8 L239.9,352.9 L240.7,370.9 L241.6,382.9 L242.4,388.6 L243.3,396.2 L244.1,374.6 L244.9,390.1 L245.8,381.0 L246.6,371.3 L247.5,371.7 L248.3,344.3 L249.1,359.4 L250.0,359.8 L250.8,361.2 L251.7,367.3 L252.5,374.2 L253.4,385.0 L254.2,375.3 L255.0,378.5 L255.9,381.8 L256.7,387.2 L257.6,396.6 L258.4,399.8 L259.2,407.4 L260.1,409.5 L260.9,348.9 L261.8,286.5 L262.6,283.3 L263.5,291.6 L264.3,332.0 L265.1,341.0 L266.0,331.3 L266.8,320.5 L267.7,326.9 L268.5,334.9 L269.3,326.6 L270.2,338.1 L271.0,312.2 L271.9,340.7 L272.7,347.9 L273.5,341.7 L274.4,348.2 L275.2,365.9 L276.1,356.2 L276.9,345.3 L277.8,330.9 L278.6,343.9 L279.4,348.9 L280.3,365.2 L281.1,389.0 L282.0,398.7 L282.8,391.9 L283.6,404.5 L284.5,409.9 L285.3,411.0 L286.2,410.3 L287.0,412.8 L287.9,412.4 L288.7,404.1 L289.5,400.5 L290.4,406.3 L291.2,398.7 L292.1,389.7 L292.9,399.1 L293.7,404.5 L294.6,395.1 L295.4,398.7 L296.3,407.4 L297.1,411.7 L298.0,415.0 L298.8,417.1 L299.6,417.1 L300.5,415.3 L301.3,411.7 L302.2,403.4 L303.0,402.0 L303.8,402.3 L304.7,406.7 L305.5,400.9 L306.4,397.6 L307.2,394.8 L308.1,390.1 L308.9,382.5 L309.7,362.3 L310.6,350.8 L311.4,353.6 L312.3,335.2 L313.1,326.9 L313.9,317.2 L315.6,341.0 L316.5,344.3 L317.3,333.1 L318.1,347.9 L319.0,356.2 L319.8,355.8 L320.7,345.0 L321.5,348.6 L322.4,369.9 L323.2,394.4 L324.0,405.2 L324.9,407.0 L325.7,400.2 L326.6,385.7 L327.4,374.2 L328.2,367.7 L329.1,344.3 L329.9,352.6 L330.8,371.7 L331.6,402.0 L332.5,409.9 L333.3,414.6 L334.1,416.4 L335.0,417.5 L335.8,416.8 L336.7,412.8 L337.5,412.8 L338.3,406.3 L339.2,399.1 L340.0,394.4 L340.9,385.4 L341.7,379.6 L342.6,379.6 L343.4,390.8 L344.2,395.1 L345.1,384.3 L345.9,350.0 L346.8,322.6 L347.6,302.1 L348.4,294.5 L349.3,329.8 L350.1,312.2 L351.0,308.6 L351.8,303.5 L352.7,306.4 L353.5,300.3 L354.3,322.3 L355.2,318.6 L356.0,295.9 L356.9,312.5 L357.7,319.0 L358.5,324.8 L359.4,276.1 L360.2,293.4 L361.1,315.8 L361.9,368.1 L362.7,369.9 L363.6,369.1 L364.4,376.4 L365.3,366.3 L366.1,373.1 L367.0,350.8 L367.8,323.3 L368.6,304.9 L369.5,294.5 L370.3,293.4 L371.2,289.8 L372.0,305.3 L372.8,330.6 L373.7,341.7 L374.5,330.9 L375.4,345.7 L376.2,360.5 L377.1,388.3 L377.9,403.0 L378.7,406.7 L379.6,406.7 L380.4,410.3 L381.3,410.3 L382.1,401.2 L382.9,389.3 L383.8,392.6 L384.6,399.4 L385.5,412.8 L386.3,417.5 L387.2,414.6 L388.0,411.3 L388.8,413.1 L389.7,404.1 L390.5,398.4 L391.4,381.8 L392.2,365.9 L393.0,364.8 L393.9,369.5 L394.7,385.7 L395.6,375.6 L396.4,371.3 L397.3,367.7 L398.1,372.8 L398.9,373.5 L399.8,381.0 L400.6,375.3 L401.5,354.4 L402.3,350.0 L403.1,350.4 L404.0,360.5 L404.8,384.3 L405.7,386.8 L406.5,379.6 L407.3,395.1 L408.2,404.9 L409.0,407.0 L409.9,412.4 L410.7,413.5 L411.6,417.8 L412.4,417.8 L413.2,418.2 L414.1,418.9 L414.9,419.6 L415.8,416.4 L416.6,413.1 L417.4,412.8 L418.3,409.9 L419.1,407.0 L420.0,404.1 L420.8,404.5 L421.7,380.0 L422.5,383.6 L423.3,382.9 L424.2,391.5 L425.0,405.9 L425.9,413.9 L426.7,396.9 L427.5,406.7 L428.4,408.8 L429.2,402.0 L430.1,402.7 L430.9,408.1 L431.8,413.9 L432.6,413.9 L433.4,411.0 L434.3,403.8 L435.1,396.9 L436.0,379.2 L436.8,370.2 L437.6,324.1 L438.5,294.8 L439.3,302.1 L440.2,294.5 L441.0,288.4 L441.9,316.5 L442.7,334.2 L443.5,342.5 L444.4,355.4 L445.2,386.5 L446.1,370.2 L446.9,354.0 L447.7,359.8 L448.6,344.3 L449.4,364.5 L450.3,357.2 L451.1,359.4 L451.9,360.1 L452.8,346.8 L453.6,340.3 L454.5,342.8 L455.3,310.7 L458.7,329.1 L459.5,314.0 L460.4,330.2 L461.2,366.3 L462.0,386.8 L462.9,402.3 L463.7,412.1 L464.6,417.8 L465.4,418.6 L466.3,415.7 L467.1,406.7 L467.9,409.5 L468.8,411.0 L469.6,415.0 L470.5,399.4 L471.3,409.9 L472.1,402.0 L473.0,404.9 L473.8,402.0 L474.7,404.9 L475.5,399.8 L476.4,396.6 L477.2,407.0 L478.0,398.7 L478.9,411.7 L479.7,419.6 L480.6,420.0 L481.4,415.7 L482.2,409.5 L483.1,414.6 L483.9,399.1 L484.8,393.3 L485.6,401.6 L486.5,401.2 L487.3,408.1 L488.1,416.4 L489.0,415.7 L489.8,416.4 L490.7,413.5 L491.5,410.3 L492.3,390.8 L493.2,410.6 L494.0,403.8 L494.9,378.5 L495.7,378.5 L496.5,366.6 L497.4,376.0 L498.2,386.8 L499.1,377.8 L499.9,375.6 L500.8,377.1 L501.6,345.3 L502.4,338.8 L503.3,355.8 L504.1,352.6 L505.0,350.4 L505.8,380.3 L506.6,375.3 L507.5,385.0 L508.3,376.7 L509.2,391.9 L510.0,404.1 L510.9,400.2 L511.7,379.2 L512.5,377.1 L513.4,358.7 L514.2,363.4 L515.1,374.6 L515.9,373.8 L516.7,380.0 L517.6,377.4 L518.4,380.0 L519.3,383.9 L520.1,389.3 L521.0,405.9 L521.8,409.5 L522.6,402.0 L523.5,390.8 L524.3,392.2 L525.2,392.2 L526.0,366.6 L526.8,352.2 L527.7,345.3 L528.5,344.3 L529.4,346.4 L530.2,355.1 L531.1,353.3 L531.9,338.5 L532.7,327.7 L533.6,316.1 L534.4,324.1 L535.3,334.9 L536.1,350.0 L536.9,355.8 L537.8,360.1 L538.6,365.5 L539.5,361.6 L540.3,368.1 L541.2,378.5 L542.0,392.6 L542.8,399.1 L543.7,411.7 L544.5,417.1 L545.4,418.6 L546.2,418.6 L547.0,416.4 L547.9,412.8 L548.7,410.3 L549.6,407.7 L550.4,405.2 L551.2,403.0 L552.1,402.3 L552.9,392.9 L553.8,381.0 L554.6,370.6 L555.5,386.8 L556.3,379.6 L557.1,377.1 L558.0,350.0 L558.8,325.9 L559.7,334.9 L560.5,345.0 L561.3,350.0 L562.2,341.4 L563.0,336.3 L563.9,378.9 L564.7,395.8 L565.6,406.7 L566.4,416.8 L567.2,413.1 L568.1,413.5 L568.9,411.7 L569.8,404.5 L570.6,400.5 L571.4,400.2 L572.3,392.9 L573.1,387.9 L574.0,387.9 L574.8,385.7 L575.7,395.1 L576.5,393.3 L577.3,399.4 L578.2,403.4 L579.0,408.5 L579.9,405.9 L580.7,405.9 L581.5,402.7 L582.4,403.4 L583.2,395.1 L584.1,383.6 L584.9,378.5 L585.8,389.0 L586.6,392.2 L587.4,390.4 L588.3,393.3 L589.1,391.5 L590.0,386.5 L590.8,392.2 L591.6,397.3 L592.5,385.4 L593.3,391.5 L594.2,369.1 L595.0,362.7 L595.8,358.7 L596.7,364.1 L597.5,350.0 L598.4,351.1 L599.2,363.0 L600.1,381.0 L600.9,392.6 L601.7,407.0 L602.6,410.6 L603.4,413.1 L604.3,415.0 L605.1,411.0 L605.9,398.7 L606.8,394.4 L607.6,396.9 L608.5,395.5 L609.3,393.7 L610.2,382.1 L611.0,386.1 L611.8,388.3 L612.7,382.9 L613.5,394.4 L614.4,393.3 L615.2,364.1 L616.0,374.6 L616.9,398.4 L617.7,408.8 L618.6,411.0 L619.4,405.9 L620.3,401.2 L621.1,383.9 L621.9,376.7 L622.8,377.8 L623.6,369.1 L624.5,360.5 L625.3,351.1 L626.1,360.1 L627.0,365.5 L627.8,386.1 L628.7,404.1 L629.5,411.0 L630.4,417.8 L631.2,420.0 L632.0,420.0 L632.9,420.0 L633.7,412.8 L634.6,408.5 L635.4,418.6 L636.2,418.9 L637.1,410.6 L637.9,390.8 L638.8,406.3 L639.6,401.2 L640.4,408.5 L641.3,408.5 L642.1,385.4 L643.0,382.5 L643.8,365.5 L644.7,385.0 L645.5,387.5 L646.3,399.8 L647.2,385.4 L648.0,391.5 L648.9,390.8 L649.7,396.2 L650.5,400.9 L651.4,398.7 L652.2,400.2 L653.1,398.4 L653.9,367.0 L654.8,370.9 L655.6,392.2 L656.4,400.2 L657.3,392.9 L658.1,383.6 L659.0,364.8 L659.8,385.0 L660.6,402.0 L661.5,381.8 L662.3,374.6 L663.2,369.9 L664.0,373.1 L664.9,386.1 L665.7,318.3 L666.5,296.6 L667.4,297.7 L668.2,317.2 L669.1,332.7 L669.9,322.3 L670.7,310.7 L671.6,320.5 L672.4,312.5 L673.3,289.1 L674.1,270.0 L675.0,274.6 L675.8,276.8 L676.6,299.2 L677.5,301.7 L678.3,298.1 L679.2,305.7 L680.0,308.9" stroke="#1f77b4" stroke-width="2" fill="none" opacity="0.8"/>
<!-- Hydro Generation -->
<path d="M80.0,345.3 L80.8,346.8 L81.7,346.8 L82.5,346.8 L83.4,346.8 L84.2,346.8 L85.0,346.8 L85.9,346.8 L86.7,346.8 L87.6,346.8 L88.4,346.4 L89.3,346.4 L90.1,347.5 L90.9,347.5 L91.8,346.8 L92.6,347.1 L93.5,347.1 L94.3,347.5 L95.1,347.5 L96.0,346.8 L96.8,346.8 L97.7,346.1 L98.5,346.1 L99.4,345.7 L100.2,345.3 L101.0,345.3 L101.9,344.3 L102.7,344.3 L103.6,342.8 L104.4,342.8 L105.2,342.5 L106.1,342.5 L106.9,342.8 L107.8,342.8 L108.6,342.1 L109.5,342.1 L110.3,341.4 L111.1,341.0 L112.0,341.4 L112.8,341.0 L113.7,341.0 L114.5,341.4 L115.3,341.7 L116.2,344.3 L117.0,344.3 L117.9,343.9 L118.7,343.5 L119.6,343.2 L120.4,343.5 L121.2,343.5 L122.1,344.3 L122.9,343.5 L123.8,343.5 L124.6,343.5 L125.4,341.4 L126.3,341.4 L127.1,341.4 L128.0,341.4 L128.8,341.0 L129.6,341.4 L130.5,349.7 L131.3,350.0 L132.2,348.6 L133.0,348.9 L133.9,348.9 L134.7,348.9 L135.5,350.0 L136.4,350.0 L137.2,350.4 L138.1,350.4 L138.9,349.3 L139.7,348.9 L140.6,348.6 L141.4,348.6 L142.3,347.9 L143.1,348.6 L144.0,348.6 L144.8,347.5 L145.6,348.2 L146.5,347.1 L147.3,347.5 L148.2,347.5 L149.0,347.9 L149.8,348.2 L150.7,347.9 L151.5,347.9 L152.4,348.9 L153.2,350.8 L154.1,350.0 L154.9,350.4 L155.7,351.1 L156.6,352.9 L157.4,352.9 L158.3,352.9 L159.1,352.2 L159.9,352.2 L160.8,352.6 L161.6,353.3 L162.5,353.3 L163.3,352.9 L164.2,353.6 L165.0,352.9 L165.8,352.6 L166.7,352.2 L167.5,351.1 L168.4,350.8 L169.2,351.5 L170.0,350.4 L170.9,351.5 L171.7,351.5 L172.6,351.5 L173.4,350.4 L174.2,350.8 L175.1,351.1 L175.9,350.4 L176.8,350.8 L177.6,350.4 L178.5,350.4 L179.3,350.4 L180.1,350.4 L181.0,350.4 L181.8,350.4 L182.7,350.8 L183.5,350.4 L184.3,350.8 L185.2,350.8 L186.0,350.8 L186.9,350.4 L187.7,351.1 L188.6,351.5 L189.4,352.2 L190.2,351.8 L191.1,353.3 L191.9,353.3 L192.8,352.9 L193.6,353.3 L194.4,353.6 L195.3,354.7 L196.1,354.7 L197.0,355.4 L197.8,355.8 L198.7,355.8 L199.5,355.8 L200.3,356.2 L201.2,356.5 L202.0,356.5 L202.9,356.5 L203.7,356.5 L204.5,356.2 L205.4,356.5 L206.2,356.5 L207.1,356.5 L207.9,356.5 L208.8,356.5 L209.6,355.8 L210.4,356.2 L211.3,356.2 L212.1,356.2 L213.0,355.1 L213.8,354.7 L214.6,355.1 L215.5,355.1 L216.3,355.1 L217.2,354.0 L218.0,354.4 L218.8,354.4 L219.7,353.6 L220.5,354.0 L221.4,354.4 L222.2,354.0 L223.1,353.6 L223.9,353.6 L224.7,354.0 L225.6,353.6 L226.4,353.3 L227.3,353.3 L228.1,353.3 L228.9,353.6 L229.8,353.3 L230.6,353.6 L231.5,354.7 L232.3,354.4 L233.2,354.4 L234.0,354.7 L234.8,355.1 L235.7,354.7 L236.5,354.7 L237.4,355.1 L238.2,355.1 L239.0,355.8 L239.9,356.5 L240.7,356.9 L241.6,357.2 L242.4,358.0 L243.3,357.6 L244.1,358.0 L244.9,358.0 L245.8,358.3 L246.6,358.3 L247.5,358.3 L248.3,358.3 L249.1,358.3 L250.0,358.0 L250.8,358.3 L251.7,358.7 L252.5,358.7 L253.4,358.3 L254.2,358.7 L255.0,358.0 L255.9,358.0 L256.7,358.0 L257.6,357.2 L258.4,356.9 L259.2,356.5 L260.1,356.2 L260.9,356.9 L261.8,356.9 L262.6,356.9 L263.5,356.9 L264.3,356.9 L265.1,357.2 L266.0,357.2 L266.8,357.6 L267.7,357.6 L268.5,358.3 L269.3,358.3 L270.2,358.3 L271.0,358.7 L271.9,359.4 L272.7,359.4 L273.5,359.4 L274.4,358.7 L275.2,359.0 L276.1,358.7 L276.9,359.4 L277.8,359.4 L278.6,359.0 L279.4,359.4 L280.3,359.0 L281.1,358.7 L282.0,358.7 L282.8,358.0 L283.6,356.5 L284.5,356.2 L285.3,356.5 L286.2,358.3 L287.0,358.3 L287.9,358.3 L288.7,358.0 L289.5,358.3 L290.4,358.3 L291.2,358.3 L292.1,358.3 L292.9,358.3 L293.7,358.0 L294.6,358.0 L295.4,358.0 L296.3,358.0 L297.1,358.3 L298.0,358.3 L298.8,358.0 L299.6,358.0 L300.5,357.6 L301.3,357.2 L302.2,357.6 L303.0,357.6 L303.8,359.0 L304.7,359.0 L305.5,359.4 L306.4,359.0 L307.2,359.0 L308.1,359.0 L308.9,359.0 L309.7,358.7 L310.6,359.0 L311.4,358.7 L312.3,359.4 L313.1,359.0 L313.9,359.0 L315.6,359.4 L316.5,359.0 L317.3,358.7 L318.1,359.4 L319.0,359.4 L319.8,359.4 L320.7,359.4 L321.5,359.4 L322.4,359.8 L323.2,358.3 L324.0,358.3 L324.9,357.2 L325.7,357.2 L326.6,359.0 L327.4,359.0 L328.2,359.0 L329.1,359.0 L329.9,359.0 L330.8,359.0 L331.6,359.0 L332.5,359.0 L333.3,359.4 L334.1,359.4 L335.0,359.0 L335.8,359.4 L336.7,359.4 L337.5,359.0 L338.3,358.7 L339.2,359.4 L340.0,358.7 L340.9,359.0 L341.7,359.0 L342.6,359.0 L343.4,358.3 L344.2,357.2 L345.1,357.2 L345.9,357.2 L346.8,357.6 L347.6,357.2 L348.4,356.9 L349.3,358.0 L350.1,358.0 L351.0,358.3 L351.8,358.0 L352.7,358.3 L353.5,358.3 L354.3,358.7 L355.2,358.3 L356.0,358.7 L356.9,359.4 L357.7,359.8 L358.5,359.8 L359.4,359.8 L360.2,359.4 L361.1,359.0 L361.9,359.4 L362.7,359.8 L363.6,359.4 L364.4,359.4 L365.3,359.4 L366.1,359.8 L367.0,359.8 L367.8,359.8 L368.6,359.4 L369.5,359.4 L370.3,359.4 L371.2,359.4 L372.0,359.8 L372.8,359.4 L373.7,359.8 L374.5,359.4 L375.4,359.8 L376.2,359.8 L377.1,359.4 L377.9,359.4 L378.7,359.4 L379.6,359.8 L380.4,359.4 L381.3,359.4 L382.1,359.4 L382.9,359.8 L383.8,358.3 L384.6,358.0 L385.5,355.1 L386.3,358.0 L387.2,359.4 L388.0,359.4 L388.8,360.8 L389.7,360.5 L390.5,360.5 L391.4,359.8 L392.2,359.4 L393.0,359.8 L393.9,359.4 L394.7,359.4 L395.6,359.8 L396.4,359.8 L397.3,359.4 L398.1,359.4 L398.9,359.0 L399.8,359.0 L400.6,359.4 L401.5,359.0 L402.3,359.4 L403.1,359.4 L404.0,359.4 L404.8,359.8 L405.7,359.8 L406.5,359.8 L407.3,359.8 L408.2,359.4 L409.0,359.4 L409.9,359.8 L410.7,359.4 L411.6,359.4 L412.4,359.0 L413.2,359.8 L414.1,359.4 L414.9,359.0 L415.8,359.0 L416.6,359.0 L417.4,359.0 L418.3,359.4 L419.1,359.0 L420.0,356.2 L420.8,359.4 L421.7,359.8 L422.5,359.0 L423.3,359.4 L424.2,359.8 L425.0,359.4 L425.9,359.4 L426.7,359.8 L427.5,359.4 L428.4,359.4 L429.2,359.4 L430.1,359.4 L430.9,362.7 L431.8,359.0 L432.6,359.0 L433.4,358.7 L434.3,358.7 L435.1,358.3 L436.0,358.7 L436.8,359.0 L437.6,359.0 L438.5,358.0 L439.3,358.7 L440.2,358.3 L441.0,358.3 L441.9,358.3 L442.7,358.3 L443.5,358.0 L444.4,358.3 L445.2,358.7 L446.1,358.3 L446.9,358.3 L447.7,358.0 L448.6,358.3 L449.4,358.3 L450.3,358.0 L451.1,358.3 L451.9,359.0 L452.8,358.3 L453.6,358.0 L454.5,358.0 L455.3,357.2 L458.7,356.9 L459.5,356.5 L460.4,356.2 L461.2,356.5 L462.0,356.2 L462.9,355.8 L463.7,355.8 L464.6,356.2 L465.4,356.2 L466.3,356.5 L467.1,356.2 L467.9,356.2 L468.8,356.2 L469.6,356.2 L470.5,356.5 L471.3,356.2 L472.1,357.2 L473.0,356.5 L473.8,356.9 L474.7,356.9 L475.5,357.6 L476.4,358.3 L477.2,358.3 L478.0,358.0 L478.9,358.3 L479.7,358.0 L480.6,357.6 L481.4,358.3 L482.2,357.6 L483.1,358.0 L483.9,358.0 L484.8,358.0 L485.6,358.3 L486.5,358.0 L487.3,358.0 L488.1,357.6 L489.0,357.6 L489.8,357.6 L490.7,358.0 L491.5,357.6 L492.3,357.2 L493.2,357.2 L494.0,358.0 L494.9,357.2 L495.7,357.6 L496.5,358.0 L497.4,356.5 L498.2,356.5 L499.1,356.5 L499.9,356.2 L500.8,356.2 L501.6,355.8 L502.4,355.8 L503.3,356.5 L504.1,356.5 L505.0,356.9 L505.8,356.9 L506.6,356.9 L507.5,356.9 L508.3,356.5 L509.2,356.5 L510.0,356.5 L510.9,356.5 L511.7,356.5 L512.5,356.5 L513.4,356.2 L514.2,356.5 L515.1,356.9 L515.9,356.5 L516.7,356.5 L517.6,356.9 L518.4,356.9 L519.3,357.2 L520.1,357.2 L521.0,356.9 L521.8,357.2 L522.6,357.6 L523.5,358.0 L524.3,357.2 L525.2,357.6 L526.0,357.6 L526.8,357.6 L527.7,357.6 L528.5,357.6 L529.4,356.9 L530.2,357.2 L531.1,357.2 L531.9,356.9 L532.7,356.9 L533.6,356.9 L534.4,356.9 L535.3,355.4 L536.1,355.1 L536.9,354.0 L537.8,354.0 L538.6,354.4 L539.5,354.4 L540.3,354.4 L541.2,354.7 L542.0,355.8 L542.8,356.9 L543.7,356.9 L544.5,356.5 L545.4,356.2 L546.2,356.2 L547.0,356.2 L547.9,356.2 L548.7,356.5 L549.6,356.9 L550.4,356.2 L551.2,355.8 L552.1,355.4 L552.9,355.4 L553.8,355.4 L554.6,355.8 L555.5,354.7 L556.3,354.4 L557.1,354.4 L558.0,355.1 L558.8,354.7 L559.7,354.7 L560.5,354.4 L561.3,354.7 L562.2,354.7 L563.0,354.4 L563.9,355.1 L564.7,354.7 L565.6,355.4 L566.4,355.1 L567.2,355.1 L568.1,355.8 L568.9,356.2 L569.8,355.8 L570.6,355.8 L571.4,355.4 L572.3,356.2 L573.1,355.8 L574.0,356.5 L574.8,356.2 L575.7,356.5 L576.5,356.5 L577.3,355.8 L578.2,355.8 L579.0,355.4 L579.9,355.1 L580.7,355.1 L581.5,354.4 L582.4,354.4 L583.2,353.6 L584.1,354.4 L584.9,354.0 L585.8,354.0 L586.6,354.4 L587.4,354.7 L588.3,354.4 L589.1,354.4 L590.0,354.7 L590.8,355.4 L591.6,355.1 L592.5,355.4 L593.3,355.4 L594.2,355.4 L595.0,355.8 L595.8,355.8 L596.7,356.2 L597.5,356.2 L598.4,354.7 L599.2,354.7 L600.1,354.0 L600.9,356.2 L601.7,355.1 L602.6,355.8 L603.4,349.7 L604.3,350.0 L605.1,350.0 L605.9,350.8 L606.8,350.8 L607.6,351.8 L608.5,351.5 L609.3,351.8 L610.2,351.8 L611.0,351.1 L611.8,351.5 L612.7,351.5 L613.5,351.8 L614.4,351.1 L615.2,351.1 L616.0,351.5 L616.9,351.1 L617.7,351.8 L618.6,350.4 L619.4,350.4 L620.3,350.0 L621.1,348.9 L621.9,349.7 L622.8,349.3 L623.6,350.0 L624.5,350.0 L625.3,350.0 L626.1,350.4 L627.0,350.4 L627.8,350.4 L628.7,350.0 L629.5,350.4 L630.4,351.1 L631.2,350.8 L632.0,350.8 L632.9,349.7 L633.7,349.7 L634.6,350.0 L635.4,349.3 L636.2,349.7 L637.1,349.3 L637.9,349.7 L638.8,349.3 L639.6,349.3 L640.4,349.3 L641.3,349.3 L642.1,349.7 L643.0,349.7 L643.8,349.3 L644.7,349.7 L645.5,350.0 L646.3,350.4 L647.2,350.4 L648.0,350.0 L648.9,350.4 L649.7,350.8 L650.5,349.7 L651.4,351.1 L652.2,350.8 L653.1,351.1 L653.9,351.5 L654.8,351.5 L655.6,351.5 L656.4,351.5 L657.3,351.1 L658.1,351.5 L659.0,351.1 L659.8,351.1 L660.6,350.8 L661.5,351.5 L662.3,351.1 L663.2,350.0 L664.0,350.4 L664.9,351.1 L665.7,350.4 L666.5,350.8 L667.4,350.4 L668.2,350.4 L669.1,350.4 L669.9,350.0 L670.7,350.0 L671.6,350.0 L672.4,350.4 L673.3,350.0 L674.1,350.4 L675.0,350.0 L675.8,350.4 L676.6,350.0 L677.5,350.4 L678.3,350.0 L679.2,350.0 L680.0,350.0" stroke="#ff7f0e" stroke-width="2" fill="none" opacity="0.8"/>
<!-- Thermal Generation -->
<path d="M80.0,335.2 L80.8,334.5 L81.7,332.7 L82.5,325.9 L83.4,326.2 L84.2,325.9 L85.0,328.7 L85.9,328.4 L86.7,331.6 L87.6,327.7 L88.4,328.0 L89.3,328.4 L90.1,328.4 L90.9,335.2 L91.8,345.3 L92.6,347.9 L93.5,346.8 L94.3,347.9 L95.1,346.8 L96.0,346.1 L96.8,346.1 L97.7,335.2 L98.5,336.7 L99.4,335.2 L100.2,335.2 L101.0,338.8 L101.9,339.9 L102.7,341.4 L103.6,343.2 L104.4,334.5 L105.2,342.5 L106.1,343.9 L106.9,345.7 L107.8,345.0 L108.6,345.0 L109.5,346.4 L110.3,346.4 L111.1,351.5 L112.0,353.3 L112.8,353.6 L113.7,352.9 L114.5,354.7 L115.3,355.8 L116.2,356.5 L117.0,356.5 L117.9,356.5 L118.7,357.2 L119.6,356.5 L120.4,355.8 L121.2,344.6 L122.1,330.6 L122.9,343.5 L123.8,354.7 L124.6,354.0 L125.4,354.4 L126.3,355.1 L127.1,353.3 L128.0,353.3 L128.8,353.3 L129.6,353.3 L130.5,352.6 L131.3,351.5 L132.2,351.8 L133.0,352.9 L133.9,345.3 L134.7,335.2 L135.5,351.8 L136.4,353.6 L137.2,333.4 L138.1,320.5 L138.9,317.9 L139.7,316.5 L140.6,314.7 L141.4,316.1 L142.3,325.1 L143.1,325.1 L144.0,350.8 L144.8,350.0 L145.6,349.7 L146.5,350.4 L147.3,351.1 L148.2,349.7 L149.0,351.1 L149.8,350.4 L150.7,350.4 L151.5,351.1 L152.4,351.5 L153.2,352.2 L154.1,351.5 L154.9,351.5 L155.7,351.5 L156.6,352.2 L157.4,317.9 L158.3,334.9 L159.1,339.2 L159.9,315.0 L160.8,315.0 L161.6,314.7 L162.5,348.6 L163.3,347.5 L164.2,347.9 L165.0,347.9 L165.8,348.2 L166.7,347.9 L167.5,347.9 L168.4,347.5 L169.2,347.5 L170.0,347.9 L170.9,348.2 L171.7,348.2 L172.6,349.3 L173.4,351.5 L174.2,353.3 L175.1,353.6 L175.9,358.3 L176.8,359.4 L177.6,337.4 L178.5,326.2 L179.3,343.2 L180.1,321.5 L181.0,319.7 L181.8,326.2 L182.7,349.7 L183.5,348.9 L184.3,348.6 L185.2,349.3 L186.0,348.2 L186.9,347.5 L187.7,347.9 L188.6,347.9 L189.4,347.1 L190.2,346.8 L191.1,346.8 L191.9,347.9 L192.8,348.9 L193.6,350.0 L194.4,327.3 L195.3,352.2 L196.1,350.0 L197.0,353.3 L197.8,342.8 L198.7,324.1 L199.5,329.8 L200.3,322.6 L201.2,320.1 L202.0,323.3 L202.9,349.3 L203.7,348.6 L204.5,348.6 L205.4,347.9 L206.2,347.5 L207.1,346.4 L207.9,346.1 L208.8,346.4 L209.6,346.1 L210.4,345.7 L211.3,347.9 L212.1,348.2 L213.0,348.6 L213.8,349.7 L214.6,351.1 L215.5,351.5 L216.3,350.0 L217.2,353.3 L218.0,352.9 L218.8,330.2 L219.7,321.9 L220.5,321.5 L221.4,318.3 L222.2,317.6 L223.1,327.3 L223.9,330.6 L224.7,316.5 L225.6,315.4 L226.4,315.0 L227.3,347.9 L228.1,348.9 L228.9,348.6 L229.8,348.2 L230.6,315.8 L231.5,341.7 L232.3,349.3 L233.2,351.5 L234.0,352.6 L234.8,354.0 L235.7,354.4 L236.5,355.1 L237.4,345.3 L238.2,356.5 L239.0,324.4 L239.9,333.8 L240.7,303.5 L241.6,287.6 L242.4,301.0 L243.3,320.1 L244.1,312.5 L244.9,313.2 L245.8,313.2 L246.6,332.4 L247.5,332.0 L248.3,333.1 L249.1,332.4 L250.0,332.4 L250.8,328.0 L251.7,327.7 L252.5,328.7 L253.4,329.5 L254.2,330.9 L255.0,334.9 L255.9,334.2 L256.7,325.9 L257.6,319.4 L258.4,319.7 L259.2,319.7 L260.1,308.9 L260.9,306.0 L261.8,305.3 L262.6,317.2 L263.5,318.3 L264.3,316.5 L265.1,316.8 L266.0,317.9 L266.8,315.4 L267.7,315.4 L268.5,316.1 L269.3,316.5 L270.2,316.1 L271.0,313.6 L271.9,315.4 L272.7,314.3 L273.5,308.2 L274.4,307.1 L275.2,308.2 L276.1,311.8 L276.9,313.6 L277.8,314.7 L278.6,314.0 L279.4,312.9 L280.3,312.9 L281.1,293.4 L282.0,282.2 L282.8,280.4 L283.6,303.9 L284.5,312.2 L285.3,312.5 L286.2,312.2 L287.0,312.9 L287.9,312.5 L288.7,312.2 L289.5,311.4 L290.4,311.1 L291.2,310.7 L292.1,293.0 L292.9,301.3 L293.7,301.0 L294.6,311.4 L295.4,311.8 L296.3,312.9 L297.1,313.6 L298.0,314.3 L298.8,313.2 L299.6,283.3 L300.5,283.3 L301.3,279.0 L302.2,283.3 L303.0,283.3 L303.8,282.6 L304.7,283.3 L305.5,303.5 L306.4,302.1 L307.2,312.2 L308.1,311.8 L308.9,311.8 L309.7,312.5 L310.6,313.6 L311.4,281.9 L312.3,280.8 L313.1,306.4 L313.9,312.2 L315.6,315.8 L316.5,317.6 L317.3,319.0 L318.1,318.3 L319.0,318.6 L319.8,318.3 L320.7,318.3 L321.5,292.3 L322.4,288.4 L323.2,288.4 L324.0,288.4 L324.9,315.0 L325.7,314.3 L326.6,312.9 L327.4,315.0 L328.2,314.7 L329.1,316.8 L329.9,316.1 L330.8,314.7 L331.6,312.5 L332.5,311.1 L333.3,310.4 L334.1,311.1 L335.0,311.1 L335.8,311.1 L336.7,311.8 L337.5,312.9 L338.3,315.0 L339.2,315.4 L340.0,314.7 L340.9,306.0 L341.7,292.0 L342.6,304.2 L343.4,304.6 L344.2,309.3 L345.1,315.0 L345.9,315.8 L346.8,315.0 L347.6,314.7 L348.4,315.0 L349.3,315.0 L350.1,314.3 L351.0,314.7 L351.8,313.6 L352.7,313.6 L353.5,314.0 L354.3,314.7 L355.2,316.5 L356.0,316.8 L356.9,316.1 L357.7,316.8 L358.5,316.5 L359.4,315.4 L360.2,314.0 L361.1,315.8 L361.9,315.0 L362.7,315.8 L363.6,315.4 L364.4,315.0 L365.3,321.9 L366.1,324.1 L367.0,324.4 L367.8,326.6 L368.6,326.9 L369.5,326.6 L370.3,325.5 L371.2,325.1 L372.0,324.8 L372.8,324.8 L373.7,325.5 L374.5,324.4 L375.4,324.8 L376.2,324.8 L377.1,324.4 L377.9,323.3 L378.7,324.8 L379.6,325.1 L380.4,324.8 L381.3,324.1 L382.1,297.0 L382.9,307.5 L383.8,307.1 L384.6,325.9 L385.5,362.7 L386.3,362.3 L387.2,363.0 L388.0,363.0 L388.8,363.0 L389.7,362.3 L390.5,363.0 L391.4,362.7 L392.2,363.7 L393.0,363.7 L393.9,361.2 L394.7,361.9 L395.6,360.8 L396.4,351.5 L397.3,352.6 L398.1,341.4 L398.9,331.3 L399.8,331.6 L400.6,324.4 L401.5,324.1 L402.3,291.2 L403.1,323.0 L404.0,324.8 L404.8,325.9 L405.7,325.5 L406.5,325.1 L407.3,325.1 L408.2,324.1 L409.0,324.4 L409.9,324.4 L410.7,324.8 L411.6,323.7 L412.4,323.0 L413.2,323.7 L414.1,325.5 L414.9,324.4 L415.8,296.3 L416.6,297.0 L417.4,324.8 L418.3,302.1 L419.1,293.8 L420.0,292.3 L420.8,323.7 L421.7,323.0 L422.5,323.7 L423.3,323.3 L424.2,323.3 L425.0,324.1 L425.9,324.8 L426.7,324.8 L427.5,324.8 L428.4,324.1 L429.2,324.4 L430.1,324.4 L430.9,324.4 L431.8,324.1 L432.6,324.1 L433.4,324.4 L434.3,324.8 L435.1,325.9 L436.0,325.9 L436.8,324.1 L437.6,326.2 L438.5,324.8 L439.3,382.9 L440.2,382.1 L441.0,371.3 L441.9,357.2 L442.7,310.7 L443.5,292.7 L444.4,295.6 L445.2,319.0 L446.1,324.1 L446.9,324.4 L447.7,321.9 L448.6,322.3 L449.4,322.6 L450.3,323.0 L451.1,322.6 L451.9,323.0 L452.8,316.1 L453.6,323.7 L454.5,324.1 L455.3,323.3 L458.7,378.9 L459.5,368.4 L460.4,354.0 L461.2,321.5 L462.0,321.2 L462.9,283.3 L463.7,282.6 L464.6,280.8 L465.4,280.4 L466.3,280.4 L467.1,284.0 L467.9,282.2 L468.8,291.6 L469.6,308.9 L470.5,308.9 L471.3,308.9 L472.1,316.5 L473.0,281.5 L473.8,281.1 L474.7,322.6 L475.5,322.3 L476.4,299.9 L477.2,307.8 L478.0,313.6 L478.9,298.8 L479.7,301.0 L480.6,306.0 L481.4,303.9 L482.2,281.5 L483.1,277.5 L483.9,277.9 L484.8,278.3 L485.6,279.0 L486.5,283.3 L487.3,292.0 L488.1,276.8 L489.0,282.9 L489.8,308.2 L490.7,311.4 L491.5,302.1 L492.3,294.8 L493.2,277.5 L494.0,285.1 L494.9,295.9 L495.7,294.8 L496.5,307.8 L497.4,288.7 L498.2,299.5 L499.1,318.6 L499.9,321.5 L500.8,322.3 L501.6,314.3 L502.4,321.2 L503.3,277.9 L504.1,296.3 L505.0,315.4 L505.8,305.3 L506.6,301.7 L507.5,309.3 L508.3,310.7 L509.2,288.0 L510.0,288.4 L510.9,308.9 L511.7,306.4 L512.5,308.6 L513.4,298.1 L514.2,293.0 L515.1,324.4 L515.9,290.2 L516.7,304.2 L517.6,309.3 L518.4,289.4 L519.3,300.6 L520.1,298.8 L521.0,295.9 L521.8,288.7 L522.6,286.9 L523.5,285.5 L524.3,285.8 L525.2,289.1 L526.0,295.2 L526.8,304.2 L527.7,284.4 L528.5,283.3 L529.4,307.1 L530.2,307.5 L531.1,285.8 L531.9,303.5 L532.7,284.4 L533.6,275.4 L534.4,278.6 L535.3,274.3 L536.1,321.9 L536.9,324.1 L537.8,316.8 L538.6,309.6 L539.5,318.6 L540.3,322.6 L541.2,306.4 L542.0,279.3 L542.8,272.1 L543.7,274.3 L544.5,276.8 L545.4,274.3 L546.2,272.8 L547.0,273.2 L547.9,277.5 L548.7,273.9 L549.6,279.0 L550.4,277.2 L551.2,276.8 L552.1,282.9 L552.9,274.3 L553.8,275.0 L554.6,274.3 L555.5,293.4 L556.3,325.5 L557.1,324.4 L558.0,325.9 L558.8,324.4 L559.7,325.9 L560.5,325.9 L561.3,325.9 L562.2,304.9 L563.0,282.6 L563.9,273.2 L564.7,273.2 L565.6,273.9 L566.4,277.9 L567.2,273.2 L568.1,273.9 L568.9,272.1 L569.8,273.2 L570.6,289.4 L571.4,294.5 L572.3,290.2 L573.1,271.0 L574.0,273.9 L574.8,270.7 L575.7,303.1 L576.5,319.0 L577.3,322.6 L578.2,322.3 L579.0,323.7 L579.9,323.0 L580.7,323.3 L581.5,323.0 L582.4,319.7 L583.2,271.8 L584.1,270.7 L584.9,270.7 L585.8,270.7 L586.6,270.7 L587.4,278.3 L588.3,299.5 L589.1,308.2 L590.0,309.3 L590.8,316.5 L591.6,320.1 L592.5,309.6 L593.3,302.8 L594.2,285.8 L595.0,282.9 L595.8,307.5 L596.7,316.1 L597.5,320.8 L598.4,321.2 L599.2,347.5 L600.1,348.2 L600.9,340.7 L601.7,324.1 L602.6,324.1 L603.4,314.7 L604.3,273.6 L605.1,272.1 L605.9,272.1 L606.8,274.3 L607.6,273.6 L608.5,273.6 L609.3,274.6 L610.2,323.3 L611.0,321.5 L611.8,321.5 L612.7,314.7 L613.5,311.4 L614.4,307.8 L615.2,276.8 L616.0,295.2 L616.9,321.5 L617.7,311.1 L618.6,309.6 L619.4,299.5 L620.3,299.9 L621.1,272.8 L621.9,287.6 L622.8,306.4 L623.6,292.3 L624.5,290.5 L625.3,294.1 L626.1,292.0 L627.0,295.2 L627.8,275.7 L628.7,272.8 L629.5,273.6 L630.4,273.6 L631.2,302.4 L632.0,295.9 L632.9,289.1 L633.7,282.9 L634.6,288.0 L635.4,276.1 L636.2,282.2 L637.1,277.5 L637.9,276.1 L638.8,275.0 L639.6,275.4 L640.4,275.7 L641.3,293.0 L642.1,308.2 L643.0,298.5 L643.8,276.8 L644.7,277.2 L645.5,279.7 L646.3,281.9 L647.2,303.5 L648.0,307.5 L648.9,311.1 L649.7,313.2 L650.5,313.6 L651.4,306.7 L652.2,306.4 L653.1,308.9 L653.9,309.3 L654.8,309.6 L655.6,279.0 L656.4,300.3 L657.3,296.3 L658.1,312.9 L659.0,308.6 L659.8,316.1 L660.6,335.6 L661.5,318.6 L662.3,318.3 L663.2,316.5 L664.0,323.3 L664.9,284.0 L665.7,297.0 L666.5,303.5 L667.4,328.0 L668.2,338.5 L669.1,333.8 L669.9,337.0 L670.7,333.8 L671.6,333.8 L672.4,333.1 L673.3,337.0 L674.1,336.0 L675.0,332.4 L675.8,347.5 L676.6,361.6 L677.5,371.3 L678.3,359.4 L679.2,329.5 L680.0,329.5" stroke="#2ca02c" stroke-width="2" fill="none" opacity="0.8"/>
<!-- Solar Generation -->
<path d="M80.0,420.0 L80.8,420.0 L81.7,420.0 L82.5,420.0 L83.4,420.0 L84.2,420.0 L85.0,420.0 L85.9,420.0 L86.7,420.0 L87.6,420.0 L88.4,420.0 L89.3,420.0 L90.1,418.6 L90.9,395.5 L91.8,386.5 L92.6,380.0 L93.5,378.2 L94.3,375.6 L95.1,373.5 L96.0,385.7 L96.8,401.6 L97.7,402.3 L98.5,396.6 L99.4,414.6 L100.2,420.0 L101.0,420.0 L101.9,420.0 L102.7,420.0 L103.6,420.0 L104.4,420.0 L105.2,420.0 L106.1,420.0 L106.9,420.0 L107.8,420.0 L108.6,420.0 L109.5,420.0 L110.3,410.6 L111.1,377.1 L112.0,396.9 L112.8,396.6 L113.7,389.0 L114.5,377.8 L115.3,398.0 L116.2,394.4 L117.0,391.1 L117.9,407.4 L118.7,417.5 L119.6,418.2 L120.4,420.0 L121.2,420.0 L122.1,420.0 L122.9,420.0 L123.8,420.0 L124.6,420.0 L125.4,420.0 L126.3,420.0 L127.1,420.0 L128.0,420.0 L128.8,420.0 L129.6,420.0 L130.5,415.7 L131.3,383.2 L132.2,387.5 L133.0,393.3 L133.9,399.4 L134.7,403.8 L135.5,387.9 L136.4,390.1 L137.2,411.3 L138.1,411.3 L138.9,415.0 L139.7,417.8 L140.6,420.0 L141.4,420.0 L142.3,420.0 L143.1,420.0 L144.0,420.0 L144.8,420.0 L145.6,420.0 L146.5,420.0 L147.3,420.0 L148.2,420.0 L149.0,420.0 L149.8,420.0 L150.7,413.9 L151.5,405.9 L152.4,402.3 L153.2,391.1 L154.1,398.0 L154.9,392.6 L155.7,378.9 L156.6,391.5 L157.4,392.2 L158.3,413.5 L159.1,407.7 L159.9,416.8 L160.8,420.0 L161.6,420.0 L162.5,420.0 L163.3,420.0 L164.2,420.0 L165.0,420.0 L165.8,420.0 L166.7,420.0 L167.5,420.0 L168.4,420.0 L169.2,420.0 L170.0,420.0 L170.9,416.0 L171.7,391.1 L172.6,375.3 L173.4,375.3 L174.2,375.3 L175.1,373.5 L175.9,378.2 L176.8,377.4 L177.6,376.0 L178.5,380.0 L179.3,385.0 L180.1,411.3 L181.0,420.0 L181.8,420.0 L182.7,420.0 L183.5,420.0 L184.3,420.0 L185.2,420.0 L186.0,420.0 L186.9,420.0 L187.7,420.0 L188.6,420.0 L189.4,420.0 L190.2,420.0 L191.1,413.1 L191.9,383.9 L192.8,372.8 L193.6,370.9 L194.4,372.4 L195.3,375.6 L196.1,372.8 L197.0,372.4 L197.8,372.4 L198.7,374.2 L199.5,383.9 L200.3,412.8 L201.2,420.0 L202.0,420.0 L202.9,420.0 L203.7,420.0 L204.5,420.0 L205.4,420.0 L206.2,420.0 L207.1,420.0 L207.9,420.0 L208.8,420.0 L209.6,420.0 L210.4,420.0 L211.3,412.8 L212.1,387.9 L213.0,391.9 L213.8,377.1 L214.6,377.8 L215.5,378.2 L216.3,380.3 L217.2,378.9 L218.0,374.2 L218.8,378.9 L219.7,396.6 L220.5,412.4 L221.4,420.0 L222.2,420.0 L223.1,420.0 L223.9,420.0 L224.7,420.0 L225.6,420.0 L226.4,420.0 L227.3,420.0 L228.1,420.0 L228.9,420.0 L229.8,420.0 L230.6,420.0 L231.5,414.2 L232.3,384.3 L233.2,372.0 L234.0,370.6 L234.8,372.0 L235.7,373.1 L236.5,372.0 L237.4,373.5 L238.2,375.6 L239.0,381.0 L239.9,395.1 L240.7,412.8 L241.6,420.0 L242.4,420.0 L243.3,420.0 L244.1,420.0 L244.9,420.0 L245.8,420.0 L246.6,420.0 L247.5,420.0 L248.3,420.0 L249.1,420.0 L250.0,420.0 L250.8,420.0 L251.7,415.3 L252.5,389.7 L253.4,383.2 L254.2,383.6 L255.0,373.5 L255.9,387.5 L256.7,385.0 L257.6,378.2 L258.4,396.9 L259.2,399.4 L260.1,408.8 L260.9,418.9 L261.8,420.0 L262.6,420.0 L263.5,420.0 L264.3,420.0 L265.1,420.0 L266.0,420.0 L266.8,420.0 L267.7,420.0 L268.5,420.0 L269.3,420.0 L270.2,420.0 L271.0,420.0 L271.9,419.3 L272.7,397.3 L273.5,410.3 L274.4,389.3 L275.2,388.3 L276.1,405.9 L276.9,383.6 L277.8,380.7 L278.6,385.7 L279.4,401.2 L280.3,398.4 L281.1,413.5 L282.0,420.0 L282.8,420.0 L283.6,420.0 L284.5,420.0 L285.3,420.0 L286.2,420.0 L287.0,420.0 L287.9,420.0 L288.7,420.0 L289.5,420.0 L290.4,420.0 L291.2,420.0 L292.1,413.5 L292.9,381.8 L293.7,369.9 L294.6,369.9 L295.4,370.9 L296.3,372.4 L297.1,372.4 L298.0,370.6 L298.8,369.5 L299.6,370.2 L300.5,383.9 L301.3,413.9 L302.2,420.0 L303.0,420.0 L303.8,420.0 L304.7,420.0 L305.5,420.0 L306.4,420.0 L307.2,420.0 L308.1,420.0 L308.9,420.0 L309.7,420.0 L310.6,420.0 L311.4,420.0 L312.3,413.9 L313.1,382.1 L313.9,369.1 L314.8,420.0 L315.6,370.9 L316.5,372.8 L317.3,372.8 L318.1,370.9 L319.0,369.5 L319.8,370.2 L320.7,384.7 L321.5,414.6 L322.4,420.0 L323.2,420.0 L324.0,420.0 L324.9,420.0 L325.7,420.0 L326.6,420.0 L327.4,420.0 L328.2,420.0 L329.1,420.0 L329.9,420.0 L330.8,420.0 L331.6,420.0 L332.5,414.6 L333.3,383.2 L334.1,370.2 L335.0,370.2 L335.8,372.4 L336.7,373.8 L337.5,373.8 L338.3,372.0 L339.2,370.2 L340.0,370.9 L340.9,387.2 L341.7,415.3 L342.6,420.0 L343.4,420.0 L344.2,420.0 L345.1,420.0 L345.9,420.0 L346.8,420.0 L347.6,420.0 L348.4,420.0 L349.3,420.0 L350.1,420.0 L351.0,420.0 L351.8,420.0 L352.7,418.9 L353.5,386.5 L354.3,372.0 L355.2,370.9 L356.0,372.8 L356.9,375.3 L357.7,374.2 L358.5,373.5 L359.4,376.4 L360.2,381.8 L361.1,398.7 L361.9,417.8 L362.7,420.0 L363.6,420.0 L364.4,420.0 L365.3,420.0 L366.1,420.0 L367.0,420.0 L367.8,420.0 L368.6,420.0 L369.5,420.0 L370.3,420.0 L371.2,420.0 L372.0,420.0 L372.8,416.0 L373.7,387.5 L374.5,371.3 L375.4,370.6 L376.2,373.1 L377.1,374.2 L377.9,374.6 L378.7,372.4 L379.6,370.9 L380.4,372.4 L381.3,390.1 L382.1,416.8 L382.9,420.0 L383.8,420.0 L384.6,420.0 L385.5,420.0 L386.3,420.0 L387.2,420.0 L388.0,420.0 L388.8,420.0 L389.7,420.0 L390.5,420.0 L391.4,420.0 L392.2,420.0 L393.0,415.7 L393.9,389.3 L394.7,372.0 L395.6,371.3 L396.4,375.6 L397.3,376.0 L398.1,374.2 L398.9,374.6 L399.8,407.0 L400.6,370.6 L401.5,408.5 L402.3,415.0 L403.1,420.0 L404.0,420.0 L404.8,420.0 L405.7,420.0 L406.5,420.0 L407.3,420.0 L408.2,420.0 L409.0,420.0 L409.9,420.0 L410.7,420.0 L411.6,420.0 L412.4,420.0 L413.2,418.9 L414.1,409.2 L414.9,385.0 L415.8,379.2 L416.6,375.3 L417.4,377.1 L418.3,374.9 L419.1,393.7 L420.0,396.6 L420.8,397.6 L421.7,416.0 L422.5,418.6 L423.3,420.0 L424.2,420.0 L425.0,420.0 L425.9,420.0 L426.7,420.0 L427.5,420.0 L428.4,420.0 L429.2,420.0 L430.1,420.0 L430.9,420.0 L431.8,420.0 L432.6,420.0 L433.4,417.8 L434.3,415.3 L435.1,396.6 L436.0,374.9 L436.8,377.4 L437.6,381.4 L438.5,377.4 L439.3,382.9 L440.2,398.4 L441.0,414.6 L441.9,410.6 L442.7,419.6 L443.5,420.0 L444.4,420.0 L445.2,420.0 L446.1,420.0 L446.9,420.0 L447.7,420.0 L448.6,420.0 L449.4,420.0 L450.3,420.0 L451.1,420.0 L451.9,420.0 L452.8,420.0 L453.6,419.3 L454.5,399.8 L455.3,408.5 L456.2,420.0 L457.0,420.0 L457.8,420.0 L458.7,392.2 L459.5,378.5 L460.4,378.5 L461.2,399.4 L462.0,407.0 L462.9,419.3 L463.7,420.0 L464.6,420.0 L465.4,420.0 L466.3,420.0 L467.1,420.0 L467.9,420.0 L468.8,420.0 L469.6,420.0 L470.5,420.0 L471.3,420.0 L472.1,420.0 L473.0,420.0 L473.8,417.8 L474.7,401.6 L475.5,396.9 L476.4,403.8 L477.2,407.0 L478.0,409.9 L478.9,395.8 L479.7,394.0 L480.6,414.6 L481.4,404.1 L482.2,401.6 L483.1,419.6 L483.9,420.0 L484.8,420.0 L485.6,420.0 L486.5,420.0 L487.3,420.0 L488.1,420.0 L489.0,420.0 L489.8,420.0 L490.7,420.0 L491.5,420.0 L492.3,420.0 L493.2,420.0 L494.0,418.6 L494.9,411.3 L495.7,407.0 L496.5,398.0 L497.4,394.4 L498.2,387.2 L499.1,381.0 L499.9,395.8 L500.8,407.4 L501.6,416.4 L502.4,416.4 L503.3,419.6 L504.1,420.0 L505.0,420.0 L505.8,420.0 L506.6,420.0 L507.5,420.0 L508.3,420.0 L509.2,420.0 L510.0,420.0 L510.9,420.0 L511.7,420.0 L512.5,420.0 L513.4,420.0 L514.2,420.0 L515.1,418.2 L515.9,415.3 L516.7,411.0 L517.6,412.1 L518.4,405.2 L519.3,405.2 L520.1,407.0 L521.0,407.4 L521.8,416.0 L522.6,418.6 L523.5,419.6 L524.3,420.0 L525.2,420.0 L526.0,420.0 L526.8,420.0 L527.7,420.0 L528.5,420.0 L529.4,420.0 L530.2,420.0 L531.1,420.0 L531.9,420.0 L532.7,420.0 L533.6,420.0 L534.4,420.0 L535.3,418.2 L536.1,416.8 L536.9,404.9 L537.8,407.0 L538.6,402.3 L539.5,400.9 L540.3,404.9 L541.2,408.8 L542.0,409.5 L542.8,415.0 L543.7,419.6 L544.5,420.0 L545.4,420.0 L546.2,420.0 L547.0,420.0 L547.9,420.0 L548.7,420.0 L549.6,420.0 L550.4,420.0 L551.2,420.0 L552.1,420.0 L552.9,420.0 L553.8,420.0 L554.6,418.2 L555.5,390.4 L556.3,371.3 L557.1,370.6 L558.0,374.9 L558.8,375.6 L559.7,374.2 L560.5,371.7 L561.3,369.9 L562.2,371.3 L563.0,396.6 L563.9,419.3 L564.7,420.0 L565.6,420.0 L566.4,420.0 L567.2,420.0 L568.1,420.0 L568.9,420.0 L569.8,420.0 L570.6,420.0 L571.4,420.0 L572.3,420.0 L573.1,420.0 L574.0,420.0 L574.8,418.2 L575.7,391.1 L576.5,371.7 L577.3,371.7 L578.2,374.6 L579.0,376.7 L579.9,376.4 L580.7,373.8 L581.5,371.7 L582.4,373.5 L583.2,398.7 L584.1,419.6 L584.9,420.0 L585.8,420.0 L586.6,420.0 L587.4,420.0 L588.3,420.0 L589.1,420.0 L590.0,420.0 L590.8,420.0 L591.6,420.0 L592.5,420.0 L593.3,420.0 L594.2,420.0 L595.0,418.9 L595.8,392.2 L596.7,372.4 L597.5,372.4 L598.4,374.6 L599.2,377.1 L600.1,376.4 L600.9,373.8 L601.7,371.7 L602.6,373.8 L603.4,399.4 L604.3,419.6 L605.1,420.0 L605.9,420.0 L606.8,420.0 L607.6,420.0 L608.5,420.0 L609.3,420.0 L610.2,420.0 L611.0,420.0 L611.8,420.0 L612.7,420.0 L613.5,420.0 L614.4,420.0 L615.2,419.3 L616.0,393.7 L616.9,372.8 L617.7,373.5 L618.6,376.0 L619.4,386.5 L620.3,377.1 L621.1,374.2 L621.9,372.0 L622.8,374.6 L623.6,400.9 L624.5,419.6 L625.3,420.0 L626.1,420.0 L627.0,420.0 L627.8,420.0 L628.7,420.0 L629.5,420.0 L630.4,420.0 L631.2,420.0 L632.0,420.0 L632.9,420.0 L633.7,420.0 L634.6,420.0 L635.4,418.9 L636.2,410.3 L637.1,408.1 L637.9,390.1 L638.8,388.6 L639.6,388.6 L640.4,386.5 L641.3,393.3 L642.1,381.4 L643.0,389.3 L643.8,405.9 L644.7,420.0 L645.5,420.0 L646.3,420.0 L647.2,420.0 L648.0,420.0 L648.9,420.0 L649.7,420.0 L650.5,420.0 L651.4,420.0 L652.2,420.0 L653.1,420.0 L653.9,420.0 L654.8,420.0 L655.6,420.0 L656.4,415.7 L657.3,416.8 L658.1,412.8 L659.0,409.5 L659.8,403.0 L660.6,404.9 L661.5,409.9 L662.3,412.8 L663.2,418.6 L664.0,417.8 L664.9,420.0 L665.7,420.0 L666.5,420.0 L667.4,420.0 L668.2,420.0 L669.1,420.0 L669.9,420.0 L670.7,420.0 L671.6,420.0 L672.4,420.0 L673.3,420.0 L674.1,420.0 L675.0,420.0 L675.8,419.6 L676.6,412.8 L677.5,411.3 L678.3,387.2 L679.2,392.6 L680.0,377.8" stroke="#d62728" stroke-width="2" fill="none" opacity="0.8"/>
<!-- Forecast -->
<path d="M80.0,115.9 L80.8,115.2 L81.7,134.3 L82.5,163.2 L83.4,201.1 L84.2,216.6 L85.0,226.7 L85.9,232.1 L86.7,235.7 L87.6,237.5 L88.4,234.6 L89.3,219.8 L90.1,203.6 L90.9,183.4 L91.8,165.7 L92.6,156.7 L93.5,154.5 L94.3,162.5 L95.1,162.1 L96.0,161.0 L96.8,158.1 L97.7,147.7 L98.5,145.2 L99.4,147.3 L100.2,144.8 L101.0,147.3 L101.9,159.6 L102.7,181.6 L103.6,204.0 L104.4,220.2 L105.2,231.4 L106.1,238.2 L106.9,241.5 L107.8,238.2 L108.6,234.6 L109.5,221.3 L110.3,209.7 L111.1,197.8 L112.0,177.6 L112.8,166.1 L113.7,163.6 L114.5,157.4 L115.3,157.4 L116.2,159.2 L117.0,150.6 L117.9,136.1 L118.7,123.9 L119.6,123.2 L120.4,119.9 L121.2,125.7 L122.1,144.1 L122.9,171.5 L123.8,195.3 L124.6,213.0 L125.4,224.5 L126.3,232.8 L127.1,235.0 L128.0,233.2 L128.8,220.5 L129.6,185.9 L130.5,149.1 L131.3,129.3 L132.2,124.2 L133.0,125.3 L133.9,125.0 L134.7,125.0 L135.5,127.5 L136.4,128.9 L137.2,126.8 L138.1,125.7 L138.9,125.7 L139.7,124.2 L140.6,120.3 L141.4,118.8 L142.3,139.4 L143.1,169.3 L144.0,196.4 L144.8,215.1 L145.6,226.7 L146.5,233.5 L147.3,235.7 L148.2,233.5 L149.0,220.2 L149.8,185.2 L150.7,148.0 L151.5,129.3 L152.4,127.9 L153.2,127.5 L154.1,137.2 L154.9,139.4 L155.7,147.0 L156.6,140.1 L157.4,141.6 L158.3,141.6 L159.1,147.0 L159.9,155.6 L160.8,171.1 L161.6,182.7 L162.5,184.8 L163.3,184.5 L164.2,210.1 L165.0,227.4 L165.8,254.1 L166.7,260.6 L167.5,259.9 L168.4,259.5 L169.2,231.4 L170.0,224.5 L170.9,190.6 L171.7,177.6 L172.6,159.6 L173.4,139.8 L174.2,131.5 L175.1,130.7 L175.9,132.2 L176.8,125.7 L177.6,116.7 L178.5,112.7 L179.3,110.2 L180.1,113.4 L181.0,112.7 L181.8,113.8 L182.7,134.0 L183.5,163.2 L184.3,193.1 L185.2,214.4 L186.0,226.7 L186.9,233.5 L187.7,235.7 L188.6,233.9 L189.4,219.8 L190.2,185.2 L191.1,197.1 L191.9,199.6 L192.8,181.6 L193.6,160.7 L194.4,151.7 L195.3,150.6 L196.1,150.9 L197.0,151.3 L197.8,150.2 L198.7,149.1 L199.5,149.5 L200.3,160.7 L201.2,175.5 L202.0,185.6 L202.9,184.8 L203.7,183.8 L204.5,193.9 L205.4,241.5 L206.2,233.9 L207.1,233.9 L207.9,235.7 L208.8,233.9 L209.6,220.2 L210.4,185.6 L211.3,148.8 L212.1,129.3 L213.0,127.5 L213.8,130.0 L214.6,125.0 L215.5,121.0 L216.3,119.9 L217.2,114.5 L218.0,107.7 L218.8,105.5 L219.7,104.4 L220.5,108.4 L221.4,108.7 L222.2,110.9 L223.1,129.7 L223.9,160.0 L224.7,202.9 L225.6,218.0 L226.4,227.4 L227.3,232.8 L228.1,236.1 L228.9,237.9 L229.8,233.9 L230.6,219.8 L231.5,204.3 L232.3,186.6 L233.2,170.8 L234.0,163.2 L234.8,161.4 L235.7,156.7 L236.5,154.5 L237.4,148.8 L238.2,136.5 L239.0,132.2 L239.9,126.0 L240.7,128.6 L241.6,140.8 L242.4,147.0 L243.3,160.7 L244.1,183.0 L244.9,205.8 L245.8,223.4 L246.6,233.9 L247.5,241.5 L248.3,244.4 L249.1,240.7 L250.0,238.2 L250.8,225.6 L251.7,213.7 L252.5,201.8 L253.4,180.5 L254.2,167.9 L255.0,164.3 L255.9,157.4 L256.7,157.8 L257.6,160.3 L258.4,155.6 L259.2,147.3 L260.1,136.1 L260.9,135.8 L261.8,128.2 L262.6,129.3 L263.5,147.7 L264.3,175.5 L265.1,200.0 L266.0,215.9 L266.8,226.7 L267.7,233.9 L268.5,236.1 L269.3,233.5 L270.2,219.1 L271.0,183.4 L271.9,146.2 L272.7,128.9 L273.5,126.4 L274.4,126.8 L275.2,126.8 L276.1,127.1 L276.9,130.7 L277.8,132.2 L278.6,130.4 L279.4,126.8 L280.3,123.9 L281.1,122.8 L282.0,120.3 L282.8,119.9 L283.6,140.8 L284.5,170.8 L285.3,197.8 L286.2,217.3 L287.0,227.8 L287.9,233.5 L288.7,235.3 L289.5,232.8 L290.4,217.7 L291.2,182.3 L292.1,145.2 L292.9,128.2 L293.7,126.4 L294.6,127.1 L295.4,125.7 L296.3,124.6 L297.1,126.4 L298.0,126.8 L298.8,121.0 L299.6,114.9 L300.5,113.1 L301.3,115.9 L302.2,115.2 L303.0,116.7 L303.8,137.2 L304.7,168.2 L305.5,192.1 L306.4,215.5 L307.2,227.4 L308.1,233.5 L308.9,235.7 L309.7,233.5 L310.6,219.5 L311.4,184.8 L312.3,147.7 L313.1,128.9 L313.9,122.8 L314.8,118.5 L315.6,115.9 L316.5,112.7 L317.3,108.0 L318.1,100.1 L319.0,93.6 L319.8,88.2 L320.7,89.6 L321.5,99.7 L322.4,104.8 L323.2,109.5 L324.0,128.6 L324.9,158.5 L325.7,188.4 L326.6,214.8 L327.4,226.3 L328.2,233.5 L329.1,235.7 L329.9,233.9 L330.8,220.2 L331.6,185.9 L332.5,149.1 L333.3,130.0 L334.1,127.5 L335.0,128.9 L335.8,122.8 L336.7,117.4 L337.5,111.6 L338.3,101.9 L339.2,93.9 L340.0,89.3 L340.9,90.0 L341.7,100.1 L342.6,104.8 L343.4,109.5 L344.2,127.1 L345.1,155.3 L345.9,195.3 L346.8,213.0 L347.6,224.5 L348.4,232.4 L349.3,235.0 L350.1,233.2 L351.0,220.9 L351.8,186.3 L352.7,149.5 L353.5,130.0 L354.3,125.0 L355.2,126.0 L356.0,124.6 L356.9,122.8 L357.7,124.2 L358.5,126.8 L359.4,121.7 L360.2,121.0 L361.1,118.5 L361.9,121.0 L362.7,119.9 L363.6,119.6 L364.4,140.5 L365.3,170.1 L366.1,203.2 L367.0,214.4 L367.8,222.3 L368.6,228.1 L369.5,231.0 L370.3,232.1 L371.2,228.1 L372.0,213.7 L372.8,197.5 L373.7,179.4 L374.5,165.4 L375.4,159.6 L376.2,158.5 L377.1,161.0 L377.9,160.0 L378.7,156.0 L379.6,148.8 L380.4,137.2 L381.3,131.1 L382.1,138.3 L382.9,143.7 L383.8,147.7 L384.6,160.3 L385.5,182.3 L386.3,204.0 L387.2,220.9 L388.0,231.0 L388.8,237.5 L389.7,240.0 L390.5,237.1 L391.4,232.8 L392.2,219.8 L393.0,206.1 L393.9,192.8 L394.7,174.7 L395.6,166.1 L396.4,164.6 L397.3,158.5 L398.1,154.9 L398.9,153.8 L399.8,142.3 L400.6,128.2 L401.5,120.3 L402.3,119.6 L403.1,118.1 L404.0,125.0 L404.8,144.1 L405.7,171.9 L406.5,192.4 L407.3,211.2 L408.2,224.2 L409.0,232.8 L409.9,235.0 L410.7,233.2 L411.6,221.6 L412.4,187.4 L413.2,151.3 L414.1,130.7 L414.9,120.3 L415.8,118.1 L416.6,117.4 L417.4,116.3 L418.3,114.9 L419.1,114.9 L420.0,109.5 L420.8,109.5 L421.7,110.5 L422.5,113.8 L423.3,112.7 L424.2,113.4 L425.0,131.5 L425.9,159.2 L426.7,193.1 L427.5,212.6 L428.4,224.5 L429.2,232.8 L430.1,235.3 L430.9,233.5 L431.8,222.0 L432.6,187.0 L433.4,151.3 L434.3,130.4 L435.1,123.2 L436.0,122.4 L436.8,123.5 L437.6,124.2 L438.5,126.8 L439.3,125.7 L440.2,124.6 L441.0,123.9 L441.9,122.8 L442.7,122.4 L443.5,119.9 L444.4,118.8 L445.2,138.3 L446.1,167.2 L446.9,219.5 L447.7,224.5 L448.6,230.3 L449.4,229.9 L450.3,226.3 L451.1,223.1 L451.9,217.7 L452.8,211.9 L453.6,175.1 L454.5,161.0 L455.3,143.0 L456.2,119.9 L457.0,104.4 L457.8,96.8 L458.7,92.5 L459.5,97.2 L460.4,104.8 L461.2,121.0 L462.0,135.4 L462.9,133.3 L463.7,150.6 L464.6,168.6 L465.4,180.2 L466.3,187.4 L467.1,205.0 L467.9,220.2 L468.8,231.7 L469.6,238.6 L470.5,240.7 L471.3,238.2 L472.1,224.5 L473.0,189.9 L473.8,150.9 L474.7,132.9 L475.5,129.7 L476.4,130.4 L477.2,131.5 L478.0,130.7 L478.9,132.9 L479.7,152.4 L480.6,158.5 L481.4,143.7 L482.2,145.2 L483.1,156.0 L483.9,168.2 L484.8,176.5 L485.6,179.8 L486.5,182.3 L487.3,205.0 L488.1,242.9 L489.0,238.2 L489.8,238.9 L490.7,241.1 L491.5,238.9 L492.3,225.2 L493.2,191.0 L494.0,151.3 L494.9,134.0 L495.7,130.0 L496.5,128.9 L497.4,128.6 L498.2,131.8 L499.1,135.4 L499.9,136.1 L500.8,136.5 L501.6,134.0 L502.4,132.5 L503.3,131.1 L504.1,127.5 L505.0,130.0 L505.8,149.5 L506.6,176.9 L507.5,203.2 L508.3,216.9 L509.2,226.3 L510.0,232.1 L510.9,235.0 L511.7,236.4 L512.5,232.4 L513.4,216.2 L514.2,194.2 L515.1,172.9 L515.9,159.6 L516.7,150.6 L517.6,149.1 L518.4,153.5 L519.3,158.1 L520.1,161.8 L521.0,164.3 L521.8,165.4 L522.6,158.9 L523.5,153.8 L524.3,148.4 L525.2,153.8 L526.0,163.9 L526.8,182.7 L527.7,194.6 L528.5,214.1 L529.4,225.6 L530.2,230.3 L531.1,233.2 L531.9,233.2 L532.7,227.8 L533.6,211.2 L534.4,187.0 L535.3,166.4 L536.1,147.7 L536.9,132.9 L537.8,132.9 L538.6,134.0 L539.5,143.0 L540.3,148.0 L541.2,151.7 L542.0,144.4 L542.8,130.7 L543.7,122.8 L544.5,117.8 L545.4,127.5 L546.2,145.2 L547.0,167.2 L547.9,193.1 L548.7,207.2 L549.6,215.1 L550.4,220.9 L551.2,220.9 L552.1,217.3 L552.9,199.6 L553.8,162.1 L554.6,123.2 L555.5,108.0 L556.3,106.6 L557.1,110.5 L558.0,114.9 L558.8,122.4 L559.7,128.6 L560.5,131.5 L561.3,133.6 L562.2,132.2 L563.0,130.7 L563.9,128.9 L564.7,122.1 L565.6,128.9 L566.4,143.4 L567.2,169.7 L568.1,201.1 L568.9,214.1 L569.8,222.0 L570.6,228.5 L571.4,228.8 L572.3,225.2 L573.1,209.4 L574.0,173.3 L574.8,136.5 L575.7,120.6 L576.5,119.9 L577.3,123.2 L578.2,128.6 L579.0,133.3 L579.9,138.0 L580.7,139.0 L581.5,140.1 L582.4,136.1 L583.2,134.3 L584.1,132.9 L584.9,129.7 L585.8,134.7 L586.6,152.0 L587.4,178.3 L588.3,207.2 L589.1,220.5 L590.0,231.0 L590.8,237.5 L591.6,238.6 L592.5,235.7 L593.3,220.9 L594.2,184.8 L595.0,148.0 L595.8,163.6 L596.7,152.7 L597.5,130.7 L598.4,121.0 L599.2,121.7 L600.1,129.3 L600.9,140.1 L601.7,151.3 L602.6,166.4 L603.4,148.8 L604.3,160.7 L605.1,185.6 L605.9,193.9 L606.8,194.2 L607.6,193.5 L608.5,218.4 L609.3,237.9 L610.2,244.4 L611.0,241.8 L611.8,236.8 L612.7,233.5 L613.5,231.4 L614.4,203.6 L615.2,187.0 L616.0,187.0 L616.9,177.3 L617.7,162.5 L618.6,155.3 L619.4,153.8 L620.3,176.9 L621.1,179.8 L621.9,171.1 L622.8,166.8 L623.6,161.8 L624.5,141.9 L625.3,152.0 L626.1,158.1 L627.0,161.4 L627.8,195.3 L628.7,229.9 L629.5,235.0 L630.4,235.0 L631.2,240.4 L632.0,245.1 L632.9,248.3 L633.7,250.1 L634.6,223.4 L635.4,206.5 L636.2,203.2 L637.1,196.0 L637.9,147.0 L638.8,134.7 L639.6,134.0 L640.4,135.8 L641.3,137.2 L642.1,131.8 L643.0,130.4 L643.8,130.4 L644.7,132.2 L645.5,128.9 L646.3,128.9 L647.2,150.6 L648.0,180.2 L648.9,207.9 L649.7,221.6 L650.5,231.4 L651.4,237.5 L652.2,240.4 L653.1,242.2 L653.9,239.3 L654.8,224.9 L655.6,204.7 L656.4,185.9 L657.3,171.5 L658.1,164.3 L659.0,162.1 L659.8,167.9 L660.6,174.0 L661.5,173.3 L662.3,172.6 L663.2,181.2 L664.0,189.2 L664.9,199.6 L665.7,211.2 L666.5,213.0 L667.4,208.3 L668.2,200.0 L669.1,207.9 L669.9,194.6 L670.7,161.4 L671.6,149.9 L672.4,147.0 L673.3,145.9 L674.1,145.9 L675.0,145.2 L675.8,143.4 L676.6,140.5 L677.5,134.0 L678.3,121.7 L679.2,113.4 L680.0,112.0" stroke="#9467bd" stroke-width="2" fill="none" opacity="0.8"/>
<!-- Total Generation -->
<path d="M80.0,237.1 L80.8,250.5 L81.7,247.2 L82.5,235.7 L83.4,230.6 L84.2,237.5 L85.0,251.2 L85.9,254.1 L86.7,257.0 L87.6,253.4 L88.4,248.7 L89.3,243.3 L90.1,236.8 L90.9,232.1 L91.8,232.4 L92.6,227.4 L93.5,224.9 L94.3,226.7 L95.1,224.5 L96.0,237.1 L96.8,253.4 L97.7,240.7 L98.5,233.2 L99.4,250.1 L100.2,251.2 L101.0,260.2 L101.9,258.8 L102.7,263.5 L103.6,259.5 L104.4,250.5 L105.2,257.7 L106.1,258.8 L106.9,256.6 L107.8,246.5 L108.6,248.7 L109.5,253.4 L110.3,237.1 L111.1,212.6 L112.0,229.6 L112.8,209.7 L113.7,186.3 L114.5,180.5 L115.3,180.2 L116.2,187.4 L117.0,193.1 L117.9,223.1 L118.7,252.6 L119.6,263.1 L120.4,275.4 L121.2,260.9 L122.1,226.0 L122.9,129.3 L123.8,165.0 L124.6,167.2 L125.4,198.9 L126.3,193.9 L127.1,180.9 L128.0,189.9 L128.8,161.4 L129.6,168.2 L130.5,196.7 L131.3,187.7 L132.2,193.9 L133.0,198.9 L133.9,188.4 L134.7,186.3 L135.5,199.6 L136.4,197.1 L137.2,212.6 L138.1,212.6 L138.9,189.9 L139.7,196.4 L140.6,193.1 L141.4,192.8 L142.3,202.9 L143.1,188.1 L144.0,212.3 L144.8,216.6 L145.6,202.9 L146.5,196.0 L147.3,195.7 L148.2,187.7 L149.0,237.5 L149.8,251.6 L150.7,244.4 L151.5,224.5 L152.4,232.8 L153.2,231.4 L154.1,228.8 L154.9,219.1 L155.7,219.8 L156.6,220.2 L157.4,182.3 L158.3,233.2 L159.1,241.1 L159.9,220.9 L160.8,227.0 L161.6,218.7 L162.5,269.6 L163.3,271.0 L164.2,277.2 L165.0,267.1 L165.8,263.8 L166.7,254.8 L167.5,266.0 L168.4,259.1 L169.2,257.3 L170.0,254.8 L170.9,254.1 L171.7,240.0 L172.6,232.4 L173.4,236.4 L174.2,239.3 L175.1,237.9 L175.9,246.9 L176.8,247.2 L177.6,224.2 L178.5,216.9 L179.3,238.6 L180.1,241.5 L181.0,232.1 L181.8,236.4 L182.7,266.0 L183.5,264.9 L184.3,267.4 L185.2,272.1 L186.0,277.9 L186.9,277.5 L187.7,278.3 L188.6,277.9 L189.4,276.1 L190.2,276.5 L191.1,270.3 L191.9,240.4 L192.8,231.4 L193.6,232.1 L194.4,210.8 L195.3,240.7 L196.1,231.7 L197.0,235.3 L197.8,222.7 L198.7,200.3 L199.5,209.0 L200.3,226.0 L201.2,201.4 L202.0,189.9 L202.9,239.3 L203.7,271.8 L204.5,277.5 L205.4,281.9 L206.2,284.7 L207.1,283.7 L207.9,282.2 L208.8,282.2 L209.6,279.0 L210.4,279.0 L211.3,275.0 L212.1,249.0 L213.0,255.5 L213.8,239.3 L214.6,240.7 L215.5,240.7 L216.3,242.5 L217.2,243.6 L218.0,240.0 L218.8,218.7 L219.7,222.3 L220.5,234.6 L221.4,226.3 L222.2,219.1 L223.1,232.8 L223.9,244.0 L224.7,236.8 L225.6,243.6 L226.4,246.2 L227.3,280.8 L228.1,281.9 L228.9,280.4 L229.8,278.3 L230.6,242.5 L231.5,261.7 L232.3,237.1 L233.2,233.9 L234.0,233.5 L234.8,228.5 L235.7,212.6 L236.5,194.6 L237.4,190.2 L238.2,204.3 L239.0,161.0 L239.9,178.3 L240.7,184.1 L241.6,187.7 L242.4,207.9 L243.3,234.3 L244.1,205.4 L244.9,221.6 L245.8,213.0 L246.6,222.3 L247.5,222.3 L248.3,196.0 L249.1,210.1 L250.0,210.1 L250.8,207.6 L251.7,209.0 L252.5,191.3 L253.4,196.0 L254.2,188.4 L255.0,184.8 L255.9,201.4 L256.7,196.0 L257.6,191.3 L258.4,213.3 L259.2,223.1 L260.1,223.4 L260.9,170.8 L261.8,108.7 L262.6,117.4 L263.5,126.8 L264.3,165.4 L265.1,175.1 L266.0,166.4 L266.8,153.5 L267.7,160.0 L268.5,169.3 L269.3,161.4 L270.2,172.6 L271.0,144.4 L271.9,174.7 L272.7,158.9 L273.5,159.6 L274.4,143.4 L275.2,161.4 L276.1,172.6 L276.9,141.9 L277.8,125.7 L278.6,142.6 L279.4,162.5 L280.3,175.5 L281.1,194.6 L282.0,199.6 L282.8,190.2 L283.6,224.9 L284.5,238.2 L285.3,240.0 L286.2,241.1 L287.0,244.4 L287.9,243.6 L288.7,234.6 L289.5,230.6 L290.4,235.7 L291.2,227.8 L292.1,194.6 L292.9,180.5 L293.7,173.3 L294.6,174.4 L295.4,179.4 L296.3,190.6 L297.1,196.0 L298.0,198.2 L298.8,197.8 L299.6,168.6 L300.5,180.2 L301.3,201.8 L302.2,204.3 L303.0,202.9 L303.8,204.0 L304.7,209.0 L305.5,223.8 L306.4,218.7 L307.2,226.0 L308.1,220.9 L308.9,213.7 L309.7,193.5 L310.6,183.4 L311.4,154.2 L312.3,129.3 L313.1,114.5 L313.9,97.6 L315.6,127.1 L316.5,133.6 L317.3,123.5 L318.1,136.5 L319.0,143.7 L319.8,143.7 L320.7,147.3 L321.5,154.9 L322.4,178.0 L323.2,201.1 L324.0,211.9 L324.9,239.3 L325.7,231.7 L326.6,218.0 L327.4,208.6 L328.2,201.8 L329.1,180.5 L329.9,187.7 L330.8,205.4 L331.6,233.5 L332.5,234.6 L333.3,207.6 L334.1,197.1 L335.0,197.8 L335.8,199.6 L336.7,197.8 L337.5,198.5 L338.3,192.1 L339.2,184.1 L340.0,178.7 L340.9,177.6 L341.7,185.9 L342.6,202.9 L343.4,213.7 L344.2,221.6 L345.1,216.6 L345.9,183.0 L346.8,155.6 L347.6,134.3 L348.4,126.8 L349.3,163.2 L350.1,144.8 L351.0,141.6 L351.8,135.1 L352.7,137.2 L353.5,99.0 L354.3,107.7 L355.2,104.4 L356.0,84.2 L356.9,103.3 L357.7,109.8 L358.5,114.5 L359.4,67.6 L360.2,88.5 L361.1,129.3 L361.9,200.3 L362.7,205.4 L363.6,204.3 L364.4,211.2 L365.3,207.9 L366.1,217.3 L367.0,195.3 L367.8,170.1 L368.6,151.7 L369.5,140.8 L370.3,138.3 L371.2,134.3 L372.0,149.9 L372.8,170.8 L373.7,154.5 L374.5,126.0 L375.4,140.8 L376.2,158.1 L377.1,186.3 L377.9,200.3 L378.7,203.2 L379.6,202.5 L380.4,206.8 L381.3,223.8 L382.1,214.4 L382.9,216.6 L383.8,218.0 L384.6,243.3 L385.5,290.5 L386.3,297.7 L387.2,297.0 L388.0,293.8 L388.8,297.0 L389.7,287.3 L390.5,281.9 L391.4,264.2 L392.2,249.0 L393.0,244.0 L393.9,219.5 L394.7,219.1 L395.6,207.6 L396.4,198.2 L397.3,195.7 L398.1,187.7 L398.9,178.3 L399.8,218.7 L400.6,169.7 L401.5,185.9 L402.3,155.6 L403.1,193.1 L404.0,205.0 L404.8,230.3 L405.7,232.4 L406.5,224.9 L407.3,240.4 L408.2,248.7 L409.0,251.2 L409.9,257.0 L410.7,257.7 L411.6,260.9 L412.4,259.9 L413.2,260.6 L414.1,253.0 L414.9,228.1 L415.8,191.0 L416.6,184.5 L417.4,213.7 L418.3,186.3 L419.1,193.5 L420.0,189.2 L420.8,225.2 L421.7,218.7 L422.5,224.9 L423.3,226.0 L424.2,235.0 L425.0,249.8 L425.9,258.4 L426.7,241.8 L427.5,251.2 L428.4,252.6 L429.2,246.2 L430.1,246.5 L430.9,255.2 L431.8,257.0 L432.6,257.0 L433.4,251.9 L434.3,242.5 L435.1,217.7 L436.0,178.7 L436.8,170.8 L437.6,130.7 L438.5,95.0 L439.3,166.4 L440.2,173.3 L441.0,172.6 L441.9,182.7 L442.7,162.8 L443.5,153.5 L444.4,169.7 L445.2,224.5 L446.1,213.0 L446.9,197.1 L447.7,199.6 L448.6,184.8 L449.4,205.4 L450.3,198.2 L451.1,200.3 L451.9,202.2 L452.8,181.2 L453.6,181.2 L454.5,164.6 L455.3,139.8 L458.7,197.1 L459.5,157.4 L460.4,158.9 L461.2,183.8 L462.0,211.2 L462.9,200.7 L463.7,210.8 L464.6,215.1 L465.4,215.5 L466.3,213.0 L467.1,207.2 L467.9,208.3 L468.8,219.1 L469.6,240.4 L470.5,225.2 L471.3,235.3 L472.1,235.7 L473.0,202.9 L473.8,197.8 L474.7,226.0 L475.5,216.6 L476.4,198.5 L477.2,220.2 L478.0,220.2 L478.9,204.7 L479.7,212.6 L480.6,238.2 L481.4,222.0 L482.2,190.2 L483.1,209.7 L483.9,194.9 L484.8,189.5 L485.6,198.9 L486.5,202.9 L487.3,218.4 L488.1,211.2 L489.0,216.6 L489.8,242.5 L490.7,243.3 L491.5,230.3 L492.3,203.2 L493.2,205.8 L494.0,205.4 L494.9,183.0 L495.7,178.0 L496.5,170.4 L497.4,155.6 L498.2,170.1 L499.1,174.0 L499.9,189.2 L500.8,202.9 L501.6,171.9 L502.4,172.2 L503.3,149.9 L504.1,165.4 L505.0,182.7 L505.8,202.5 L506.6,193.9 L507.5,211.5 L508.3,204.3 L509.2,196.7 L510.0,209.4 L510.9,226.0 L511.7,202.5 L512.5,202.5 L513.4,173.3 L514.2,172.9 L515.1,214.1 L515.9,175.8 L516.7,191.7 L517.6,195.7 L518.4,171.5 L519.3,187.0 L520.1,192.4 L521.0,206.1 L521.8,211.5 L522.6,205.0 L523.5,193.9 L524.3,195.3 L525.2,198.9 L526.0,179.8 L526.8,174.4 L527.7,147.7 L528.5,145.2 L529.4,170.4 L530.2,180.2 L531.1,156.7 L531.9,159.2 L532.7,129.3 L533.6,108.7 L534.4,119.6 L535.3,122.8 L536.1,183.8 L536.9,178.7 L537.8,178.0 L538.6,171.9 L539.5,175.5 L540.3,189.9 L541.2,188.4 L542.0,177.3 L542.8,183.0 L543.7,202.5 L544.5,210.4 L545.4,209.0 L546.2,207.6 L547.0,205.8 L547.9,206.8 L548.7,201.1 L549.6,204.0 L550.4,198.9 L551.2,196.0 L552.1,201.1 L552.9,182.7 L553.8,171.5 L554.6,158.9 L555.5,165.4 L556.3,170.8 L557.1,166.4 L558.0,145.9 L558.8,120.6 L559.7,129.7 L560.5,136.9 L561.3,140.5 L562.2,112.3 L563.0,109.8 L563.9,166.4 L564.7,183.8 L565.6,196.4 L566.4,210.1 L567.2,201.8 L568.1,203.6 L568.9,200.3 L569.8,193.9 L570.6,206.1 L571.4,210.4 L572.3,199.3 L573.1,174.7 L574.0,178.3 L574.8,170.8 L575.7,185.9 L576.5,180.5 L577.3,189.5 L578.2,196.0 L579.0,204.3 L579.9,200.3 L580.7,198.2 L581.5,191.7 L582.4,191.0 L583.2,159.2 L584.1,168.2 L584.9,163.6 L585.8,174.0 L586.6,177.6 L587.4,183.8 L588.3,207.6 L589.1,214.4 L590.0,210.8 L590.8,224.5 L591.6,232.8 L592.5,210.4 L593.3,209.7 L594.2,170.4 L595.0,160.3 L595.8,154.2 L596.7,148.8 L597.5,139.4 L598.4,141.6 L599.2,182.3 L600.1,199.6 L600.9,203.2 L601.7,197.8 L602.6,204.3 L603.4,216.9 L604.3,198.2 L605.1,193.1 L605.9,181.6 L606.8,179.4 L607.6,182.3 L608.5,180.9 L609.3,180.5 L610.2,217.7 L611.0,219.1 L611.8,221.6 L612.7,209.4 L613.5,217.7 L614.4,212.3 L615.2,151.3 L616.0,154.9 L616.9,183.8 L617.7,185.2 L618.6,187.0 L619.4,182.3 L620.3,168.2 L621.1,119.9 L621.9,126.0 L622.8,148.0 L623.6,152.4 L624.5,160.7 L625.3,155.6 L626.1,162.8 L627.0,171.5 L627.8,172.6 L628.7,187.4 L629.5,195.3 L630.4,202.9 L631.2,233.5 L632.0,227.4 L632.9,219.1 L633.7,205.4 L634.6,206.5 L635.4,202.9 L636.2,201.1 L637.1,185.6 L637.9,146.6 L638.8,159.2 L639.6,154.5 L640.4,160.0 L641.3,184.1 L642.1,164.6 L643.0,160.0 L643.8,137.6 L644.7,171.9 L645.5,177.3 L646.3,192.1 L647.2,199.3 L648.0,209.0 L648.9,212.6 L649.7,220.5 L650.5,224.5 L651.4,216.9 L652.2,217.7 L653.1,218.4 L653.9,187.7 L654.8,192.1 L655.6,182.7 L656.4,207.6 L657.3,197.1 L658.1,200.7 L659.0,174.0 L659.8,195.3 L660.6,233.2 L661.5,201.8 L662.3,196.7 L663.2,194.9 L664.0,204.7 L664.9,181.2 L665.7,125.7 L666.5,110.9 L667.4,136.1 L668.2,166.1 L669.1,176.9 L669.9,169.3 L670.7,154.5 L671.6,164.3 L672.4,156.0 L673.3,136.1 L674.1,116.3 L675.0,117.0 L675.8,134.3 L676.6,163.6 L677.5,174.7 L678.3,134.7 L679.2,117.8 L680.0,106.2" stroke="#8c564b" stroke-width="2" fill="none" opacity="0.8"/>
<!-- Forecast Difference -->
<path d="M80.0,420.0 L80.8,420.0 L81.7,420.0 L82.5,420.0 L83.4,420.0 L84.2,420.0 L85.0,420.0 L85.9,420.0 L86.7,420.0 L87.6,420.0 L88.4,420.0 L89.3,420.0 L90.1,420.0 L90.9,420.0 L91.8,420.0 L92.6,420.0 L93.5,420.0 L94.3,420.0 L95.1,420.0 L96.0,420.0 L96.8,420.0 L97.7,420.0 L98.5,420.0 L99.4,420.0 L100.2,420.0 L101.0,420.0 L101.9,420.0 L102.7,420.0 L103.6,420.0 L104.4,420.0 L105.2,420.0 L106.1,420.0 L106.9,420.0 L107.8,420.0 L108.6,420.0 L109.5,420.0 L110.3,420.0 L111.1,420.0 L112.0,420.0 L112.8,420.0 L113.7,420.0 L114.5,420.0 L115.3,420.0 L116.2,420.0 L117.0,420.0 L117.9,420.0 L118.7,420.0 L119.6,420.0 L120.4,420.0 L121.2,420.0 L122.1,420.0 L122.9,420.0 L123.8,420.0 L124.6,420.0 L125.4,420.0 L126.3,420.0 L127.1,420.0 L128.0,420.0 L128.8,420.0 L129.6,420.0 L130.5,420.0 L131.3,420.0 L132.2,420.0 L133.0,420.0 L133.9,420.0 L134.7,420.0 L135.5,420.0 L136.4,420.0 L137.2,420.0 L138.1,420.0 L138.9,420.0 L139.7,420.0 L140.6,420.0 L141.4,420.0 L142.3,420.0 L143.1,420.0 L144.0,420.0 L144.8,420.0 L145.6,420.0 L146.5,420.0 L147.3,420.0 L148.2,420.0 L149.0,420.0 L149.8,420.0 L150.7,420.0 L151.5,420.0 L152.4,420.0 L153.2,420.0 L154.1,420.0 L154.9,420.0 L155.7,420.0 L156.6,420.0 L157.4,420.0 L158.3,420.0 L159.1,420.0 L159.9,420.0 L160.8,420.0 L161.6,420.0 L162.5,420.0 L163.3,420.0 L164.2,420.0 L165.0,420.0 L165.8,420.0 L166.7,420.0 L167.5,420.0 L168.4,420.0 L169.2,420.0 L170.0,420.0 L170.9,420.0 L171.7,420.0 L172.6,420.0 L173.4,420.0 L174.2,420.0 L175.1,420.0 L175.9,420.0 L176.8,420.0 L177.6,420.0 L178.5,420.0 L179.3,420.0 L180.1,420.0 L181.0,420.0 L181.8,420.0 L182.7,420.0 L183.5,420.0 L184.3,420.0 L185.2,420.0 L186.0,420.0 L186.9,420.0 L187.7,420.0 L188.6,420.0 L189.4,420.0 L190.2,420.0 L191.1,420.0 L191.9,420.0 L192.8,420.0 L193.6,420.0 L194.4,420.0 L195.3,420.0 L196.1,420.0 L197.0,420.0 L197.8,420.0 L198.7,420.0 L199.5,420.0 L200.3,420.0 L201.2,420.0 L202.0,420.0 L202.9,420.0 L203.7,420.0 L204.5,420.0 L205.4,420.0 L206.2,420.0 L207.1,420.0 L207.9,420.0 L208.8,420.0 L209.6,420.0 L210.4,420.0 L211.3,420.0 L212.1,420.0 L213.0,420.0 L213.8,420.0 L214.6,420.0 L215.5,420.0 L216.3,420.0 L217.2,420.0 L218.0,420.0 L218.8,420.0 L219.7,420.0 L220.5,420.0 L221.4,420.0 L222.2,420.0 L223.1,420.0 L223.9,420.0 L224.7,420.0 L225.6,420.0 L226.4,420.0 L227.3,420.0 L228.1,420.0 L228.9,420.0 L229.8,420.0 L230.6,420.0 L231.5,420.0 L232.3,420.0 L233.2,420.0 L234.0,420.0 L234.8,420.0 L235.7,420.0 L236.5,420.0 L237.4,420.0 L238.2,420.0 L239.0,420.0 L239.9,420.0 L240.7,420.0 L241.6,420.0 L242.4,420.0 L243.3,420.0 L244.1,420.0 L244.9,420.0 L245.8,420.0 L246.6,420.0 L247.5,420.0 L248.3,420.0 L249.1,420.0 L250.0,420.0 L250.8,420.0 L251.7,420.0 L252.5,420.0 L253.4,420.0 L254.2,420.0 L255.0,420.0 L255.9,420.0 L256.7,420.0 L257.6,420.0 L258.4,420.0 L259.2,420.0 L260.1,420.0 L260.9,420.0 L261.8,420.0 L262.6,420.0 L263.5,420.0 L264.3,420.0 L265.1,420.0 L266.0,420.0 L266.8,420.0 L267.7,420.0 L268.5,420.0 L269.3,420.0 L270.2,420.0 L271.0,420.0 L271.9,420.0 L272.7,420.0 L273.5,420.0 L274.4,420.0 L275.2,420.0 L276.1,420.0 L276.9,420.0 L277.8,420.0 L278.6,420.0 L279.4,420.0 L280.3,420.0 L281.1,420.0 L282.0,420.0 L282.8,420.0 L283.6,420.0 L284.5,420.0 L285.3,420.0 L286.2,420.0 L287.0,420.0 L287.9,420.0 L288.7,420.0 L289.5,420.0 L290.4,420.0 L291.2,420.0 L292.1,420.0 L292.9,420.0 L293.7,420.0 L294.6,420.0 L295.4,420.0 L296.3,420.0 L297.1,420.0 L298.0,420.0 L298.8,420.0 L299.6,420.0 L300.5,420.0 L301.3,420.0 L302.2,420.0 L303.0,420.0 L303.8,420.0 L304.7,420.0 L305.5,420.0 L306.4,420.0 L307.2,420.0 L308.1,420.0 L308.9,420.0 L309.7,420.0 L310.6,420.0 L311.4,420.0 L312.3,420.0 L313.1,420.0 L313.9,420.0 L314.8,420.0 L315.6,420.0 L316.5,420.0 L317.3,420.0 L318.1,420.0 L319.0,420.0 L319.8,420.0 L320.7,420.0 L321.5,420.0 L322.4,420.0 L323.2,420.0 L324.0,420.0 L324.9,420.0 L325.7,420.0 L326.6,420.0 L327.4,420.0 L328.2,420.0 L329.1,420.0 L329.9,420.0 L330.8,420.0 L331.6,420.0 L332.5,420.0 L333.3,420.0 L334.1,420.0 L335.0,420.0 L335.8,420.0 L336.7,420.0 L337.5,420.0 L338.3,420.0 L339.2,420.0 L340.0,420.0 L340.9,420.0 L341.7,420.0 L342.6,420.0 L343.4,420.0 L344.2,420.0 L345.1,420.0 L345.9,420.0 L346.8,420.0 L347.6,420.0 L348.4,420.0 L349.3,420.0 L350.1,420.0 L351.0,420.0 L351.8,420.0 L352.7,420.0 L353.5,420.0 L354.3,420.0 L355.2,420.0 L356.0,420.0 L356.9,420.0 L357.7,420.0 L358.5,420.0 L359.4,420.0 L360.2,420.0 L361.1,420.0 L361.9,420.0 L362.7,420.0 L363.6,420.0 L364.4,420.0 L365.3,420.0 L366.1,420.0 L367.0,420.0 L367.8,420.0 L368.6,420.0 L369.5,420.0 L370.3,420.0 L371.2,420.0 L372.0,420.0 L372.8,420.0 L373.7,420.0 L374.5,420.0 L375.4,420.0 L376.2,420.0 L377.1,420.0 L377.9,420.0 L378.7,420.0 L379.6,420.0 L380.4,420.0 L381.3,420.0 L382.1,420.0 L382.9,420.0 L383.8,420.0 L384.6,420.0 L385.5,420.0 L386.3,420.0 L387.2,420.0 L388.0,420.0 L388.8,420.0 L389.7,420.0 L390.5,420.0 L391.4,420.0 L392.2,420.0 L393.0,420.0 L393.9,420.0 L394.7,420.0 L395.6,420.0 L396.4,420.0 L397.3,420.0 L398.1,420.0 L398.9,420.0 L399.8,420.0 L400.6,420.0 L401.5,420.0 L402.3,420.0 L403.1,420.0 L404.0,420.0 L404.8,420.0 L405.7,420.0 L406.5,420.0 L407.3,420.0 L408.2,420.0 L409.0,420.0 L409.9,420.0 L410.7,420.0 L411.6,420.0 L412.4,420.0 L413.2,420.0 L414.1,420.0 L414.9,420.0 L415.8,420.0 L416.6,420.0 L417.4,420.0 L418.3,420.0 L419.1,420.0 L420.0,420.0 L420.8,420.0 L421.7,420.0 L422.5,420.0 L423.3,420.0 L424.2,420.0 L425.0,420.0 L425.9,420.0 L426.7,420.0 L427.5,420.0 L428.4,420.0 L429.2,420.0 L430.1,420.0 L430.9,420.0 L431.8,420.0 L432.6,420.0 L433.4,420.0 L434.3,420.0 L435.1,420.0 L436.0,420.0 L436.8,420.0 L437.6,420.0 L438.5,420.0 L439.3,420.0 L440.2,420.0 L441.0,420.0 L441.9,420.0 L442.7,420.0 L443.5,420.0 L444.4,420.0 L445.2,420.0 L446.1,420.0 L446.9,420.0 L447.7,420.0 L448.6,420.0 L449.4,420.0 L450.3,420.0 L451.1,420.0 L451.9,420.0 L452.8,420.0 L453.6,420.0 L454.5,420.0 L455.3,420.0 L456.2,420.0 L457.0,420.0 L457.8,420.0 L458.7,420.0 L459.5,420.0 L460.4,420.0 L461.2,420.0 L462.0,420.0 L462.9,420.0 L463.7,420.0 L464.6,420.0 L465.4,420.0 L466.3,420.0 L467.1,420.0 L467.9,420.0 L468.8,420.0 L469.6,420.0 L470.5,420.0 L471.3,420.0 L472.1,420.0 L473.0,420.0 L473.8,420.0 L474.7,420.0 L475.5,420.0 L476.4,420.0 L477.2,420.0 L478.0,420.0 L478.9,420.0 L479.7,420.0 L480.6,420.0 L481.4,420.0 L482.2,420.0 L483.1,420.0 L483.9,420.0 L484.8,420.0 L485.6,420.0 L486.5,420.0 L487.3,420.0 L488.1,420.0 L489.0,420.0 L489.8,420.0 L490.7,420.0 L491.5,420.0 L492.3,420.0 L493.2,420.0 L494.0,420.0 L494.9,420.0 L495.7,420.0 L496.5,420.0 L497.4,420.0 L498.2,420.0 L499.1,420.0 L499.9,420.0 L500.8,420.0 L501.6,420.0 L502.4,420.0 L503.3,420.0 L504.1,420.0 L505.0,420.0 L505.8,420.0 L506.6,420.0 L507.5,420.0 L508.3,420.0 L509.2,420.0 L510.0,420.0 L510.9,420.0 L511.7,420.0 L512.5,420.0 L513.4,420.0 L514.2,420.0 L515.1,420.0 L515.9,420.0 L516.7,420.0 L517.6,420.0 L518.4,420.0 L519.3,420.0 L520.1,420.0 L521.0,420.0 L521.8,420.0 L522.6,420.0 L523.5,420.0 L524.3,420.0 L525.2,420.0 L526.0,420.0 L526.8,420.0 L527.7,420.0 L528.5,420.0 L529.4,420.0 L530.2,420.0 L531.1,420.0 L531.9,420.0 L532.7,420.0 L533.6,420.0 L534.4,420.0 L535.3,420.0 L536.1,420.0 L536.9,420.0 L537.8,420.0 L538.6,420.0 L539.5,420.0 L540.3,420.0 L541.2,420.0 L542.0,420.0 L542.8,420.0 L543.7,420.0 L544.5,420.0 L545.4,420.0 L546.2,420.0 L547.0,420.0 L547.9,420.0 L548.7,420.0 L549.6,420.0 L550.4,420.0 L551.2,420.0 L552.1,420.0 L552.9,420.0 L553.8,420.0 L554.6,420.0 L555.5,420.0 L556.3,420.0 L557.1,420.0 L558.0,420.0 L558.8,420.0 L559.7,420.0 L560.5,420.0 L561.3,420.0 L562.2,420.0 L563.0,420.0 L563.9,420.0 L564.7,420.0 L565.6,420.0 L566.4,420.0 L567.2,420.0 L568.1,420.0 L568.9,420.0 L569.8,420.0 L570.6,420.0 L571.4,420.0 L572.3,420.0 L573.1,420.0 L574.0,420.0 L574.8,420.0 L575.7,420.0 L576.5,420.0 L577.3,420.0 L578.2,420.0 L579.0,420.0 L579.9,420.0 L580.7,420.0 L581.5,420.0 L582.4,420.0 L583.2,420.0 L584.1,420.0 L584.9,420.0 L585.8,420.0 L586.6,420.0 L587.4,420.0 L588.3,420.0 L589.1,420.0 L590.0,420.0 L590.8,420.0 L591.6,420.0 L592.5,420.0 L593.3,420.0 L594.2,420.0 L595.0,420.0 L595.8,420.0 L596.7,420.0 L597.5,420.0 L598.4,420.0 L599.2,420.0 L600.1,420.0 L600.9,420.0 L601.7,420.0 L602.6,420.0 L603.4,420.0 L604.3,420.0 L605.1,420.0 L605.9,420.0 L606.8,420.0 L607.6,420.0 L608.5,420.0 L609.3,420.0 L610.2,420.0 L611.0,420.0 L611.8,420.0 L612.7,420.0 L613.5,420.0 L614.4,420.0 L615.2,420.0 L616.0,420.0 L616.9,420.0 L617.7,420.0 L618.6,420.0 L619.4,420.0 L620.3,420.0 L621.1,420.0 L621.9,420.0 L622.8,420.0 L623.6,420.0 L624.5,420.0 L625.3,420.0 L626.1,420.0 L627.0,420.0 L627.8,420.0 L628.7,420.0 L629.5,420.0 L630.4,420.0 L631.2,420.0 L632.0,420.0 L632.9,420.0 L633.7,420.0 L634.6,420.0 L635.4,420.0 L636.2,420.0 L637.1,420.0 L637.9,420.0 L638.8,420.0 L639.6,420.0 L640.4,420.0 L641.3,420.0 L642.1,420.0 L643.0,420.0 L643.8,420.0 L644.7,420.0 L645.5,420.0 L646.3,420.0 L647.2,420.0 L648.0,420.0 L648.9,420.0 L649.7,420.0 L650.5,420.0 L651.4,420.0 L652.2,420.0 L653.1,420.0 L653.9,420.0 L654.8,420.0 L655.6,420.0 L656.4,420.0 L657.3,420.0 L658.1,420.0 L659.0,420.0 L659.8,420.0 L660.6,420.0 L661.5,420.0 L662.3,420.0 L663.2,420.0 L664.0,420.0 L664.9,420.0 L665.7,420.0 L666.5,420.0 L667.4,420.0 L668.2,420.0 L669.1,420.0 L669.9,420.0 L670.7,420.0 L671.6,420.0 L672.4,420.0 L673.3,420.0 L674.1,420.0 L675.0,420.0 L675.8,420.0 L676.6,420.0 L677.5,420.0 L678.3,420.0 L679.2,420.0 L680.0,420.0" stroke="#e377c2" stroke-width="2" fill="none" opacity="0.8"/>

<!-- Legend -->
<line x1="690" y1="70" x2="705" y2="70" stroke="#1f77b4" stroke-width="3"/>
<text x="710" y="74" class="legend">Wind Generation</text>
<line x1="690" y1="88" x2="705" y2="88" stroke="#ff7f0e" stroke-width="3"/>
<text x="710" y="92" class="legend">Hydro Generation</text>
<line x1="690" y1="106" x2="705" y2="106" stroke="#2ca02c" stroke-width="3"/>
<text x="710" y="110" class="legend">Thermal Generation</text>
<line x1="690" y1="124" x2="705" y2="124" stroke="#d62728" stroke-width="3"/>
<text x="710" y="128" class="legend">Solar Generation</text>
<line x1="690" y1="142" x2="705" y2="142" stroke="#9467bd" stroke-width="3"/>
<text x="710" y="146" class="legend">Forecast</text>
<line x1="690" y1="160" x2="705" y2="160" stroke="#8c564b" stroke-width="3"/>
<text x="710" y="164" class="legend">Total Generation</text>
<line x1="690" y1="178" x2="705" y2="178" stroke="#e377c2" stroke-width="3"/>
<text x="710" y="182" class="legend">Forecast Difference</text>

<!-- Date range -->
<text x="80" y="495" class="legend">Range: 09/12 - 10/12/2025 (714 records)</text>
</svg>