<?xml version="1.0" encoding="UTF-8"?>
<svg width="800" height="500" xmlns="http://www.w3.org/2000/svg">
<style>
.axis-line { stroke: #333; stroke-width: 1; }
.grid-line { stroke: #ddd; stroke-width: 0.5; }
.title { font: 16px Arial; text-anchor: middle; fill: #333; }
.axis-label { font: 12px Arial; text-anchor: middle; fill: #666; }
.legend { font: 10px Arial; fill: #333; }
</style>

<!-- Title -->
<text x="400.0" y="25" class="title">Northwestern Energy Generation Data - Past 30 Days</text>

<!-- Plot area background -->
<rect x="80" y="50" width="600" height="370" fill="white" stroke="#ddd"/>

<!-- Y-axis -->
<line x1="80" y1="50" x2="80" y2="420" class="axis-line"/>
<text x="30" y="235.0" class="axis-label" transform="rotate(-90, 30, 235.0)">Generation (MW)</text>

<!-- X-axis -->
<line x1="80" y1="420" x2="680" y2="420" class="axis-line"/>
<text x="380.0" y="480" class="axis-label">Time</text>
<line x1="80" y1="420.0" x2="680" y2="420.0" class="grid-line"/>
<text x="70" y="425.0" class="legend" text-anchor="end">0</text>
<line x1="80" y1="327.5" x2="680" y2="327.5" class="grid-line"/>
<text x="70" y="332.5" class="legend" text-anchor="end">259</text>
<line x1="80" y1="235.0" x2="680" y2="235.0" class="grid-line"/>
<text x="70" y="240.0" class="legend" text-anchor="end">518</text>
<line x1="80" y1="142.5" x2="680" y2="142.5" class="grid-line"/>
<text x="70" y="147.5" class="legend" text-anchor="end">777</text>
<line x1="80" y1="50.0" x2="680" y2="50.0" class="grid-line"/>
<text x="70" y="55.0" class="legend" text-anchor="end">1036</text>
<!-- Wind Generation -->
<path d="M80.0,415.0 L80.8,417.9 L81.7,419.3 L82.5,420.0 L83.4,419.6 L84.2,420.0 L85.0,420.0 L85.9,419.3 L86.7,418.2 L87.6,417.5 L88.4,418.2 L89.3,420.0 L90.1,418.9 L90.9,414.6 L91.8,412.9 L92.6,409.3 L93.5,413.2 L94.3,401.8 L95.1,388.2 L96.0,395.0 L96.8,391.4 L97.7,356.8 L98.5,358.2 L99.4,353.2 L100.2,359.3 L101.0,383.6 L101.9,394.7 L102.7,402.9 L103.6,407.9 L104.4,411.4 L105.2,417.9 L106.1,411.1 L106.9,414.6 L107.8,404.3 L108.6,410.7 L109.5,415.0 L110.3,411.8 L111.1,407.1 L112.0,405.7 L112.8,401.1 L113.7,401.1 L114.5,387.2 L115.3,392.2 L116.2,385.7 L117.0,382.5 L117.9,378.6 L118.7,372.9 L119.6,381.1 L120.4,379.7 L121.2,387.5 L122.1,401.1 L122.9,404.6 L123.8,415.4 L124.6,417.1 L125.4,419.3 L126.3,420.0 L127.1,420.0 L128.0,420.0 L128.8,420.0 L129.6,418.9 L130.5,419.3 L131.3,418.2 L132.2,413.6 L133.0,399.6 L133.9,387.9 L134.7,365.4 L135.5,360.4 L136.4,375.7 L137.2,367.2 L138.1,366.1 L138.9,396.1 L139.7,417.5 L140.6,418.2 L141.4,405.4 L142.3,403.9 L143.1,398.9 L144.0,377.5 L144.8,371.1 L145.6,353.6 L146.5,319.7 L147.3,312.5 L148.2,304.3 L149.0,302.9 L149.8,299.0 L150.7,307.2 L151.5,311.1 L152.4,314.0 L153.2,317.2 L154.1,307.5 L154.9,315.4 L155.7,310.4 L156.6,316.1 L157.4,336.8 L158.3,363.9 L159.1,376.4 L159.9,387.2 L160.8,397.9 L161.6,407.5 L162.5,406.4 L163.3,405.7 L164.2,403.2 L165.0,402.1 L165.8,403.9 L166.7,411.4 L167.5,413.6 L168.4,417.9 L169.2,420.0 L170.0,420.0 L170.9,420.0 L171.7,418.2 L172.6,417.1 L173.4,412.9 L174.2,416.4 L175.1,417.9 L175.9,418.9 L176.8,415.7 L177.6,410.7 L178.5,396.4 L179.3,373.2 L180.1,367.9 L181.0,373.6 L181.8,391.1 L182.7,401.4 L183.5,417.5 L184.3,420.0 L185.2,420.0 L186.0,420.0 L186.9,420.0 L187.7,419.3 L188.6,419.6 L189.4,419.3 L190.2,418.6 L191.1,418.9 L191.9,418.2 L192.8,417.1 L193.6,413.9 L194.4,413.6 L195.3,410.0 L196.1,406.8 L197.0,399.3 L197.8,380.0 L198.7,358.9 L199.5,359.3 L200.3,373.2 L201.2,396.8 L202.0,415.0 L202.9,420.0 L203.7,420.0 L204.5,418.9 L205.4,417.5 L206.2,411.1 L207.1,399.3 L207.9,377.5 L208.8,368.6 L209.6,350.7 L210.4,346.5 L211.3,317.2 L212.1,335.7 L213.0,326.1 L213.8,341.1 L214.6,350.7 L215.5,342.5 L216.3,350.7 L217.2,392.5 L218.0,410.0 L218.8,411.4 L219.7,402.1 L220.5,402.1 L221.4,368.2 L222.2,317.9 L223.1,353.2 L223.9,307.9 L224.7,317.9 L225.6,351.1 L226.4,337.2 L227.3,315.7 L228.1,320.0 L228.9,354.3 L229.8,365.0 L230.6,380.7 L231.5,385.0 L232.3,389.7 L233.2,373.9 L234.0,380.0 L234.8,368.6 L235.7,352.9 L236.5,363.6 L237.4,381.8 L238.2,400.7 L239.0,405.7 L239.9,403.2 L240.7,408.6 L241.6,416.4 L242.4,415.7 L243.3,418.9 L244.1,419.6 L244.9,419.6 L245.8,420.0 L246.6,420.0 L247.5,419.6 L248.3,418.9 L249.1,418.9 L250.0,420.0 L250.8,420.0 L251.7,418.6 L252.5,410.4 L253.4,401.1 L254.2,396.4 L255.0,397.9 L255.9,386.4 L256.7,384.3 L257.6,375.7 L258.4,375.4 L259.2,347.2 L260.1,376.8 L260.9,350.0 L261.8,366.8 L262.6,401.4 L263.5,408.9 L264.3,409.3 L265.1,413.9 L266.0,403.2 L266.8,400.0 L267.7,408.6 L268.5,410.4 L269.3,414.6 L270.2,417.5 L271.0,419.6 L271.9,419.3 L272.7,420.0 L273.5,420.0 L274.4,419.3 L275.2,419.6 L276.1,418.2 L276.9,416.1 L277.8,418.9 L278.6,402.1 L279.4,400.4 L280.3,398.2 L281.1,406.1 L282.0,404.3 L282.8,399.3 L283.6,397.5 L284.5,412.1 L285.3,416.4 L286.2,407.1 L287.0,409.3 L287.9,415.7 L288.7,413.2 L289.5,364.7 L290.4,390.4 L291.2,405.0 L292.1,383.2 L292.9,411.4 L293.7,415.0 L294.6,416.8 L295.4,416.8 L296.3,412.1 L297.1,406.1 L298.0,402.9 L298.8,407.5 L299.6,413.9 L300.5,417.5 L301.3,413.6 L302.2,415.0 L303.0,412.9 L303.8,417.9 L304.7,417.9 L305.5,419.6 L306.4,420.0 L307.2,419.3 L308.1,418.9 L308.9,410.7 L309.7,407.5 L310.6,418.6 L311.4,419.3 L312.3,419.3 L313.1,420.0 L313.9,418.6 L314.8,417.5 L315.6,401.1 L316.5,390.7 L317.3,344.7 L318.1,385.7 L319.0,391.4 L319.8,396.8 L320.7,409.3 L321.5,407.5 L322.4,402.9 L323.2,397.5 L324.0,404.6 L324.9,415.4 L325.7,418.6 L326.6,418.2 L327.4,418.6 L328.2,414.3 L329.1,408.6 L329.9,402.5 L330.8,413.9 L331.6,413.9 L332.5,412.5 L333.3,412.9 L334.1,415.7 L335.0,416.8 L335.8,418.6 L336.7,418.9 L337.5,417.1 L338.3,413.9 L339.2,414.6 L340.0,410.7 L340.9,416.1 L341.7,414.6 L342.6,417.5 L343.4,413.2 L344.2,412.9 L345.1,412.5 L345.9,412.1 L346.8,407.9 L347.6,398.6 L348.4,401.4 L349.3,404.6 L350.1,398.9 L351.0,403.2 L351.8,398.2 L352.7,378.9 L353.5,363.9 L354.3,367.2 L355.2,345.4 L356.0,352.9 L356.9,361.8 L357.7,375.7 L358.5,394.7 L359.4,405.4 L360.2,416.1 L361.1,412.5 L361.9,391.1 L362.7,283.3 L363.6,307.5 L364.4,310.4 L365.3,343.6 L366.1,337.9 L367.0,326.8 L367.8,336.1 L368.6,308.3 L369.5,314.7 L370.3,339.7 L371.2,363.6 L372.0,366.4 L372.8,364.3 L373.7,355.4 L374.5,358.9 L375.4,370.4 L376.2,363.9 L377.1,377.9 L377.9,390.7 L378.7,368.2 L379.6,373.6 L380.4,370.4 L381.3,368.6 L382.1,370.4 L382.9,355.0 L383.8,353.6 L384.6,359.7 L385.5,345.7 L386.3,339.3 L387.2,337.9 L388.0,331.5 L388.8,378.9 L389.7,392.9 L390.5,392.5 L391.4,380.0 L392.2,390.4 L393.0,397.5 L393.9,389.7 L394.7,385.0 L395.6,398.6 L396.4,383.9 L397.3,379.7 L398.1,392.2 L398.9,402.1 L399.8,397.2 L400.6,399.6 L401.5,391.1 L402.3,407.9 L403.1,410.7 L404.0,415.7 L404.8,406.4 L405.7,403.2 L406.5,395.0 L407.3,407.1 L408.2,401.1 L409.0,398.6 L409.9,396.8 L410.7,398.6 L411.6,409.3 L412.4,416.4 L413.2,419.3 L414.1,420.0 L414.9,419.6 L415.8,420.0 L416.6,419.6 L417.4,420.0 L418.3,420.0 L419.1,420.0 L420.0,418.2 L420.8,402.1 L421.7,400.0 L422.5,405.7 L423.3,405.7 L424.2,408.2 L425.0,412.1 L425.9,418.9 L426.7,419.6 L427.5,419.3 L428.4,418.6 L429.2,416.8 L430.1,417.9 L430.9,417.1 L431.8,415.4 L432.6,416.8 L433.4,417.9 L434.3,417.5 L435.1,418.2 L436.0,414.3 L436.8,414.3 L437.6,411.8 L438.5,406.4 L439.3,399.6 L440.2,394.7 L441.0,365.4 L441.9,350.4 L442.7,373.6 L443.5,406.4 L444.4,412.5 L445.2,417.1 L446.1,420.0 L446.9,420.0 L447.7,419.3 L448.6,419.3 L449.4,417.1 L450.3,417.1 L451.1,418.2 L451.9,416.8 L452.8,420.0 L453.6,417.9 L454.5,416.8 L455.3,416.1 L456.2,417.1 L457.0,417.5 L457.8,418.6 L458.7,415.4 L459.5,410.4 L460.4,406.8 L461.2,393.9 L462.0,387.9 L462.9,392.2 L463.7,400.0 L464.6,406.4 L465.4,414.6 L466.3,417.9 L467.1,419.6 L467.9,419.3 L468.8,418.2 L469.6,416.8 L470.5,413.2 L471.3,411.1 L472.1,409.3 L473.0,416.1 L473.8,415.7 L474.7,407.5 L475.5,390.7 L476.4,373.2 L477.2,376.8 L478.0,377.5 L478.9,360.4 L479.7,353.6 L480.6,371.4 L481.4,383.2 L482.2,388.9 L483.1,396.4 L483.9,375.0 L484.8,390.4 L485.6,381.4 L486.5,371.8 L487.3,372.2 L488.1,345.0 L489.0,360.0 L489.8,360.4 L490.7,361.8 L491.5,367.9 L492.3,374.7 L493.2,385.4 L494.0,375.7 L494.9,378.9 L495.7,382.2 L496.5,387.5 L497.4,396.8 L498.2,400.0 L499.1,407.5 L499.9,409.6 L500.8,349.7 L501.6,287.9 L502.4,284.7 L503.3,292.9 L504.1,332.9 L505.0,341.8 L505.8,332.2 L506.6,321.5 L507.5,327.9 L508.3,335.7 L509.2,327.5 L510.0,339.0 L510.9,313.3 L511.7,341.5 L512.5,348.6 L513.4,342.5 L514.2,349.0 L515.1,366.4 L515.9,356.8 L516.7,346.1 L517.6,331.8 L518.4,344.7 L519.3,349.7 L520.1,365.7 L521.0,389.3 L521.8,398.9 L522.6,392.2 L523.5,404.6 L524.3,410.0 L525.2,411.1 L526.0,410.4 L526.8,412.9 L527.7,412.5 L528.5,404.3 L529.4,400.7 L530.2,406.4 L531.1,398.9 L531.9,390.0 L532.7,399.3 L533.6,404.6 L534.4,395.4 L535.3,398.9 L536.1,407.5 L536.9,411.8 L537.8,415.0 L538.6,417.1 L539.5,417.1 L540.3,415.4 L541.2,411.8 L542.0,403.6 L542.8,402.1 L543.7,402.5 L544.5,406.8 L545.4,401.1 L546.2,397.9 L547.0,395.0 L547.9,390.4 L548.7,382.9 L549.6,362.9 L550.4,351.5 L551.2,354.3 L552.1,336.1 L552.9,327.9 L553.8,318.2 L555.5,341.8 L556.3,345.0 L557.1,334.0 L558.0,348.6 L558.8,356.8 L559.7,356.5 L560.5,345.7 L561.3,349.3 L562.2,370.4 L563.0,394.7 L563.9,405.4 L564.7,407.1 L565.6,400.4 L566.4,386.1 L567.2,374.7 L568.1,368.2 L568.9,345.0 L569.8,353.2 L570.6,372.2 L571.4,402.1 L572.3,410.0 L573.1,414.6 L574.0,416.4 L574.8,417.5 L575.7,416.8 L576.5,412.9 L577.3,412.9 L578.2,406.4 L579.0,399.3 L579.9,394.7 L580.7,385.7 L581.5,380.0 L582.4,380.0 L583.2,391.1 L584.1,395.4 L584.9,384.7 L585.8,350.7 L586.6,323.6 L587.4,303.3 L588.3,295.8 L589.1,330.7 L590.0,313.3 L590.8,309.7 L591.6,304.7 L592.5,307.5 L593.3,301.5 L594.2,323.2 L595.0,319.7 L595.8,297.2 L596.7,313.6 L597.5,320.0 L598.4,325.7 L599.2,277.5 L600.1,294.7 L600.9,316.8 L601.7,368.6 L602.6,370.4 L603.4,369.7 L604.3,376.8 L605.1,366.8 L605.9,373.6 L606.8,351.5 L607.6,324.3 L608.5,306.1 L609.3,295.8 L610.2,294.7 L611.0,291.1 L611.8,306.5 L612.7,331.5 L613.5,342.5 L614.4,331.8 L615.2,346.5 L616.0,361.1 L616.9,388.6 L617.7,403.2 L618.6,406.8 L619.4,406.8 L620.3,410.4 L621.1,410.4 L621.9,401.4 L622.8,389.7 L623.6,392.9 L624.5,399.6 L625.3,412.9 L626.1,417.5 L627.0,414.6 L627.8,411.4 L628.7,413.2 L629.5,404.3 L630.4,398.6 L631.2,382.2 L632.0,366.4 L632.9,365.4 L633.7,370.0 L634.6,386.1 L635.4,376.1 L636.2,371.8 L637.1,368.2 L637.9,373.2 L638.8,373.9 L639.6,381.4 L640.4,375.7 L641.3,355.0 L642.1,350.7 L643.0,351.1 L643.8,361.1 L644.7,384.7 L645.5,387.2 L646.3,380.0 L647.2,395.4 L648.0,405.0 L648.9,407.1 L649.7,412.5 L650.5,413.6 L651.4,417.9 L652.2,417.9 L653.1,418.2 L653.9,418.9 L654.8,419.6 L655.6,416.4 L656.4,413.2 L657.3,412.9 L658.1,410.0 L659.0,407.1 L659.8,404.3 L660.6,404.6 L661.5,380.4 L662.3,383.9 L663.2,383.2 L664.0,391.8 L664.9,406.1 L665.7,413.9 L666.5,397.2 L667.4,406.8 L668.2,408.9 L669.1,401.8 L669.9,402.9 L670.7,408.2 L671.6,413.9 L672.4,413.9 L673.3,411.1 L674.1,403.9 L675.0,397.9 L675.8,380.7 L676.6,371.4 L677.5,327.5 L678.3,296.1 L679.2,304.0 L680.0,296.8" stroke="#1f77b4" stroke-width="2" fill="none" opacity="0.8"/>
<!-- Hydro Generation -->
<path d="M80.0,342.5 L80.8,342.5 L81.7,342.2 L82.5,342.5 L83.4,342.2 L84.2,341.8 L85.0,341.8 L85.9,341.8 L86.7,341.8 L87.6,341.8 L88.4,344.0 L89.3,344.3 L90.1,344.0 L90.9,344.0 L91.8,344.0 L92.6,344.0 L93.5,344.0 L94.3,344.0 L95.1,343.6 L96.0,343.6 L96.8,343.6 L97.7,343.6 L98.5,344.0 L99.4,342.9 L100.2,342.5 L101.0,342.9 L101.9,342.5 L102.7,341.1 L103.6,341.1 L104.4,338.6 L105.2,339.7 L106.1,338.6 L106.9,338.2 L107.8,337.9 L108.6,337.9 L109.5,338.6 L110.3,339.0 L111.1,339.0 L112.0,339.7 L112.8,340.0 L113.7,340.0 L114.5,340.4 L115.3,341.1 L116.2,341.1 L117.0,342.5 L117.9,342.5 L118.7,342.5 L119.6,344.0 L120.4,343.6 L121.2,343.2 L122.1,344.0 L122.9,343.6 L123.8,343.6 L124.6,343.6 L125.4,343.6 L126.3,344.0 L127.1,344.0 L128.0,344.3 L128.8,344.3 L129.6,345.0 L130.5,344.7 L131.3,344.3 L132.2,344.7 L133.0,344.0 L133.9,349.0 L134.7,349.3 L135.5,344.0 L136.4,342.9 L137.2,343.6 L138.1,344.0 L138.9,343.6 L139.7,343.6 L140.6,343.6 L141.4,343.6 L142.3,342.9 L143.1,342.9 L144.0,342.5 L144.8,341.8 L145.6,342.2 L146.5,342.2 L147.3,342.5 L148.2,342.9 L149.0,343.2 L149.8,342.9 L150.7,342.9 L151.5,342.9 L152.4,344.3 L153.2,344.3 L154.1,344.3 L154.9,344.7 L155.7,344.7 L156.6,344.3 L157.4,342.2 L158.3,345.4 L159.1,345.0 L159.9,346.5 L160.8,347.2 L161.6,347.2 L162.5,347.2 L163.3,347.2 L164.2,346.8 L165.0,345.0 L165.8,345.0 L166.7,344.7 L167.5,344.7 L168.4,344.3 L169.2,344.3 L170.0,343.6 L170.9,343.2 L171.7,342.2 L172.6,341.8 L173.4,342.2 L174.2,341.8 L175.1,342.9 L175.9,342.5 L176.8,341.8 L177.6,342.5 L178.5,342.5 L179.3,342.2 L180.1,341.8 L181.0,342.9 L181.8,342.9 L182.7,342.9 L183.5,343.2 L184.3,343.2 L185.2,343.6 L186.0,344.3 L186.9,344.3 L187.7,344.3 L188.6,345.0 L189.4,345.4 L190.2,345.0 L191.1,345.0 L191.9,346.1 L192.8,346.5 L193.6,346.1 L194.4,346.5 L195.3,346.5 L196.1,345.7 L197.0,345.4 L197.8,345.7 L198.7,346.1 L199.5,345.4 L200.3,345.0 L201.2,344.3 L202.0,344.3 L202.9,344.3 L203.7,344.7 L204.5,344.3 L205.4,343.2 L206.2,343.2 L207.1,343.2 L207.9,343.2 L208.8,344.3 L209.6,344.3 L210.4,344.0 L211.3,343.2 L212.1,343.6 L213.0,342.2 L213.8,343.2 L214.6,342.5 L215.5,342.5 L216.3,341.8 L217.2,341.8 L218.0,342.2 L218.8,342.5 L219.7,343.2 L220.5,343.6 L221.4,344.0 L222.2,343.6 L223.1,346.8 L223.9,343.2 L224.7,343.2 L225.6,342.9 L226.4,343.2 L227.3,342.5 L228.1,342.5 L228.9,342.5 L229.8,342.9 L230.6,343.6 L231.5,343.2 L232.3,343.6 L233.2,343.2 L234.0,342.9 L234.8,344.0 L235.7,343.2 L236.5,343.2 L237.4,343.6 L238.2,342.9 L239.0,342.5 L239.9,342.5 L240.7,342.5 L241.6,342.9 L242.4,342.5 L243.3,342.9 L244.1,343.6 L244.9,343.6 L245.8,343.6 L246.6,344.0 L247.5,343.2 L248.3,343.2 L249.1,344.0 L250.0,344.0 L250.8,343.6 L251.7,343.2 L252.5,343.2 L253.4,342.9 L254.2,343.6 L255.0,343.2 L255.9,342.5 L256.7,342.2 L257.6,342.2 L258.4,343.2 L259.2,342.9 L260.1,343.2 L260.9,344.0 L261.8,344.7 L262.6,344.7 L263.5,344.7 L264.3,345.0 L265.1,344.7 L266.0,344.7 L266.8,344.7 L267.7,344.3 L268.5,344.0 L269.3,344.0 L270.2,344.0 L271.0,344.0 L271.9,345.7 L272.7,345.7 L273.5,345.0 L274.4,345.4 L275.2,346.1 L276.1,346.5 L276.9,345.7 L277.8,345.7 L278.6,346.1 L279.4,346.5 L280.3,346.1 L281.1,346.8 L282.0,346.8 L282.8,347.5 L283.6,347.2 L284.5,347.2 L285.3,347.2 L286.2,346.8 L287.0,347.5 L287.9,347.2 L288.7,346.8 L289.5,347.5 L290.4,346.8 L291.2,346.1 L292.1,345.7 L292.9,345.7 L293.7,346.5 L294.6,346.1 L295.4,346.5 L296.3,345.4 L297.1,346.1 L298.0,345.4 L298.8,345.7 L299.6,345.7 L300.5,346.5 L301.3,346.5 L302.2,346.5 L303.0,346.1 L303.8,346.5 L304.7,346.5 L305.5,346.5 L306.4,346.8 L307.2,346.5 L308.1,346.8 L308.9,346.8 L309.7,346.8 L310.6,346.5 L311.4,346.5 L312.3,346.5 L313.1,346.1 L313.9,346.5 L314.8,346.5 L315.6,346.1 L316.5,346.1 L317.3,345.7 L318.1,346.1 L319.0,345.7 L319.8,346.1 L320.7,347.5 L321.5,347.5 L322.4,347.5 L323.2,347.5 L324.0,347.5 L324.9,347.5 L325.7,347.5 L326.6,347.5 L327.4,347.5 L328.2,347.2 L329.1,347.2 L329.9,348.2 L330.8,348.2 L331.6,347.5 L332.5,347.9 L333.3,347.9 L334.1,348.2 L335.0,348.2 L335.8,347.5 L336.7,347.5 L337.5,346.8 L338.3,346.8 L339.2,346.5 L340.0,346.1 L340.9,346.1 L341.7,345.0 L342.6,345.0 L343.4,343.6 L344.2,343.6 L345.1,343.2 L345.9,343.2 L346.8,343.6 L347.6,343.6 L348.4,342.9 L349.3,342.9 L350.1,342.2 L351.0,341.8 L351.8,342.2 L352.7,341.8 L353.5,341.8 L354.3,342.2 L355.2,342.5 L356.0,345.0 L356.9,345.0 L357.7,344.7 L358.5,344.3 L359.4,344.0 L360.2,344.3 L361.1,344.3 L361.9,345.0 L362.7,344.3 L363.6,344.3 L364.4,344.3 L365.3,342.2 L366.1,342.2 L367.0,342.2 L367.8,342.2 L368.6,341.8 L369.5,342.2 L370.3,350.4 L371.2,350.7 L372.0,349.3 L372.8,349.7 L373.7,349.7 L374.5,349.7 L375.4,350.7 L376.2,350.7 L377.1,351.1 L377.9,351.1 L378.7,350.0 L379.6,349.7 L380.4,349.3 L381.3,349.3 L382.1,348.6 L382.9,349.3 L383.8,349.3 L384.6,348.2 L385.5,349.0 L386.3,347.9 L387.2,348.2 L388.0,348.2 L388.8,348.6 L389.7,349.0 L390.5,348.6 L391.4,348.6 L392.2,349.7 L393.0,351.5 L393.9,350.7 L394.7,351.1 L395.6,351.8 L396.4,353.6 L397.3,353.6 L398.1,353.6 L398.9,352.9 L399.8,352.9 L400.6,353.2 L401.5,354.0 L402.3,354.0 L403.1,353.6 L404.0,354.3 L404.8,353.6 L405.7,353.2 L406.5,352.9 L407.3,351.8 L408.2,351.5 L409.0,352.2 L409.9,351.1 L410.7,352.2 L411.6,352.2 L412.4,352.2 L413.2,351.1 L414.1,351.5 L414.9,351.8 L415.8,351.1 L416.6,351.5 L417.4,351.1 L418.3,351.1 L419.1,351.1 L420.0,351.1 L420.8,351.1 L421.7,351.1 L422.5,351.5 L423.3,351.1 L424.2,351.5 L425.0,351.5 L425.9,351.5 L426.7,351.1 L427.5,351.8 L428.4,352.2 L429.2,352.9 L430.1,352.5 L430.9,354.0 L431.8,354.0 L432.6,353.6 L433.4,354.0 L434.3,354.3 L435.1,355.4 L436.0,355.4 L436.8,356.1 L437.6,356.5 L438.5,356.5 L439.3,356.5 L440.2,356.8 L441.0,357.2 L441.9,357.2 L442.7,357.2 L443.5,357.2 L444.4,356.8 L445.2,357.2 L446.1,357.2 L446.9,357.2 L447.7,357.2 L448.6,357.2 L449.4,356.5 L450.3,356.8 L451.1,356.8 L451.9,356.8 L452.8,355.7 L453.6,355.4 L454.5,355.7 L455.3,355.7 L456.2,355.7 L457.0,354.7 L457.8,355.0 L458.7,355.0 L459.5,354.3 L460.4,354.7 L461.2,355.0 L462.0,354.7 L462.9,354.3 L463.7,354.3 L464.6,354.7 L465.4,354.3 L466.3,354.0 L467.1,354.0 L467.9,354.0 L468.8,354.3 L469.6,354.0 L470.5,354.3 L471.3,355.4 L472.1,355.0 L473.0,355.0 L473.8,355.4 L474.7,355.7 L475.5,355.4 L476.4,355.4 L477.2,355.7 L478.0,355.7 L478.9,356.5 L479.7,357.2 L480.6,357.5 L481.4,357.9 L482.2,358.6 L483.1,358.2 L483.9,358.6 L484.8,358.6 L485.6,358.9 L486.5,358.9 L487.3,358.9 L488.1,358.9 L489.0,358.9 L489.8,358.6 L490.7,358.9 L491.5,359.3 L492.3,359.3 L493.2,358.9 L494.0,359.3 L494.9,358.6 L495.7,358.6 L496.5,358.6 L497.4,357.9 L498.2,357.5 L499.1,357.2 L499.9,356.8 L500.8,357.5 L501.6,357.5 L502.4,357.5 L503.3,357.5 L504.1,357.5 L505.0,357.9 L505.8,357.9 L506.6,358.2 L507.5,358.2 L508.3,358.9 L509.2,358.9 L510.0,358.9 L510.9,359.3 L511.7,360.0 L512.5,360.0 L513.4,360.0 L514.2,359.3 L515.1,359.7 L515.9,359.3 L516.7,360.0 L517.6,360.0 L518.4,359.7 L519.3,360.0 L520.1,359.7 L521.0,359.3 L521.8,359.3 L522.6,358.6 L523.5,357.2 L524.3,356.8 L525.2,357.2 L526.0,358.9 L526.8,358.9 L527.7,358.9 L528.5,358.6 L529.4,358.9 L530.2,358.9 L531.1,358.9 L531.9,358.9 L532.7,358.9 L533.6,358.6 L534.4,358.6 L535.3,358.6 L536.1,358.6 L536.9,358.9 L537.8,358.9 L538.6,358.6 L539.5,358.6 L540.3,358.2 L541.2,357.9 L542.0,358.2 L542.8,358.2 L543.7,359.7 L544.5,359.7 L545.4,360.0 L546.2,359.7 L547.0,359.7 L547.9,359.7 L548.7,359.7 L549.6,359.3 L550.4,359.7 L551.2,359.3 L552.1,360.0 L552.9,359.7 L553.8,359.7 L555.5,360.0 L556.3,359.7 L557.1,359.3 L558.0,360.0 L558.8,360.0 L559.7,360.0 L560.5,360.0 L561.3,360.0 L562.2,360.4 L563.0,358.9 L563.9,358.9 L564.7,357.9 L565.6,357.9 L566.4,359.7 L567.2,359.7 L568.1,359.7 L568.9,359.7 L569.8,359.7 L570.6,359.7 L571.4,359.7 L572.3,359.7 L573.1,360.0 L574.0,360.0 L574.8,359.7 L575.7,360.0 L576.5,360.0 L577.3,359.7 L578.2,359.3 L579.0,360.0 L579.9,359.3 L580.7,359.7 L581.5,359.7 L582.4,359.7 L583.2,358.9 L584.1,357.9 L584.9,357.9 L585.8,357.9 L586.6,358.2 L587.4,357.9 L588.3,357.5 L589.1,358.6 L590.0,358.6 L590.8,358.9 L591.6,358.6 L592.5,358.9 L593.3,358.9 L594.2,359.3 L595.0,358.9 L595.8,359.3 L596.7,360.0 L597.5,360.4 L598.4,360.4 L599.2,360.4 L600.1,360.0 L600.9,359.7 L601.7,360.0 L602.6,360.4 L603.4,360.0 L604.3,360.0 L605.1,360.0 L605.9,360.4 L606.8,360.4 L607.6,360.4 L608.5,360.0 L609.3,360.0 L610.2,360.0 L611.0,360.0 L611.8,360.4 L612.7,360.0 L613.5,360.4 L614.4,360.0 L615.2,360.4 L616.0,360.4 L616.9,360.0 L617.7,360.0 L618.6,360.0 L619.4,360.4 L620.3,360.0 L621.1,360.0 L621.9,360.0 L622.8,360.4 L623.6,358.9 L624.5,358.6 L625.3,355.7 L626.1,358.6 L627.0,360.0 L627.8,360.0 L628.7,361.4 L629.5,361.1 L630.4,361.1 L631.2,360.4 L632.0,360.0 L632.9,360.4 L633.7,360.0 L634.6,360.0 L635.4,360.4 L636.2,360.4 L637.1,360.0 L637.9,360.0 L638.8,359.7 L639.6,359.7 L640.4,360.0 L641.3,359.7 L642.1,360.0 L643.0,360.0 L643.8,360.0 L644.7,360.4 L645.5,360.4 L646.3,360.4 L647.2,360.4 L648.0,360.0 L648.9,360.0 L649.7,360.4 L650.5,360.0 L651.4,360.0 L652.2,359.7 L653.1,360.4 L653.9,360.0 L654.8,359.7 L655.6,359.7 L656.4,359.7 L657.3,359.7 L658.1,360.0 L659.0,359.7 L659.8,356.8 L660.6,360.0 L661.5,360.4 L662.3,359.7 L663.2,360.0 L664.0,360.4 L664.9,360.0 L665.7,360.0 L666.5,360.4 L667.4,360.0 L668.2,360.0 L669.1,360.0 L669.9,360.0 L670.7,362.9 L671.6,359.7 L672.4,359.7 L673.3,359.7 L674.1,359.3 L675.0,358.9 L675.8,359.3 L676.6,359.7 L677.5,359.7 L678.3,358.9 L679.2,358.9 L680.0,358.9" stroke="#ff7f0e" stroke-width="2" fill="none" opacity="0.8"/>
<!-- Thermal Generation -->
<path d="M80.0,280.0 L80.8,292.2 L81.7,292.5 L82.5,311.5 L83.4,311.1 L84.2,311.8 L85.0,310.8 L85.9,310.8 L86.7,310.4 L87.6,312.5 L88.4,313.3 L89.3,314.7 L90.1,317.5 L90.9,316.8 L91.8,317.9 L92.6,318.2 L93.5,297.9 L94.3,290.4 L95.1,289.3 L96.0,289.0 L96.8,288.3 L97.7,287.5 L98.5,283.6 L99.4,281.8 L100.2,281.5 L101.0,284.0 L101.9,279.7 L102.7,279.0 L103.6,284.3 L104.4,284.0 L105.2,283.3 L106.1,283.3 L106.9,282.9 L107.8,290.4 L108.6,284.0 L109.5,285.4 L110.3,287.9 L111.1,288.6 L112.0,290.4 L112.8,321.8 L113.7,336.1 L114.5,337.2 L115.3,338.2 L116.2,337.2 L117.0,336.1 L117.9,334.3 L118.7,332.5 L119.6,330.7 L120.4,330.0 L121.2,328.6 L122.1,329.0 L122.9,329.0 L123.8,327.9 L124.6,327.5 L125.4,330.4 L126.3,326.1 L127.1,326.5 L128.0,330.7 L128.8,331.1 L129.6,329.3 L130.5,329.3 L131.3,332.2 L132.2,320.4 L133.0,321.8 L133.9,322.5 L134.7,322.5 L135.5,321.1 L136.4,321.1 L137.2,320.0 L138.1,318.6 L138.9,318.6 L139.7,316.5 L140.6,314.7 L141.4,314.7 L142.3,317.2 L143.1,315.4 L144.0,315.4 L144.8,315.4 L145.6,316.1 L146.5,316.5 L147.3,316.5 L148.2,330.7 L149.0,350.0 L149.8,352.5 L150.7,351.8 L151.5,352.9 L152.4,350.7 L153.2,350.4 L154.1,334.0 L154.9,319.7 L155.7,321.8 L156.6,336.5 L157.4,318.6 L158.3,320.4 L159.1,317.2 L159.9,317.2 L160.8,318.2 L161.6,320.7 L162.5,318.6 L163.3,318.6 L164.2,317.2 L165.0,317.2 L165.8,316.8 L166.7,318.2 L167.5,320.0 L168.4,320.4 L169.2,330.4 L170.0,340.0 L170.9,341.1 L171.7,336.5 L172.6,338.2 L173.4,339.0 L174.2,335.7 L175.1,330.4 L175.9,321.8 L176.8,318.6 L177.6,315.4 L178.5,315.0 L179.3,313.6 L180.1,315.0 L181.0,313.6 L181.8,313.3 L182.7,339.0 L183.5,344.7 L184.3,346.1 L185.2,346.1 L186.0,346.5 L186.9,346.1 L187.7,347.5 L188.6,347.2 L189.4,344.0 L190.2,344.0 L191.1,345.7 L191.9,350.0 L192.8,351.5 L193.6,352.9 L194.4,354.0 L195.3,354.7 L196.1,331.5 L197.0,321.1 L197.8,321.1 L198.7,319.0 L199.5,320.0 L200.3,331.8 L201.2,330.0 L202.0,348.2 L202.9,328.2 L203.7,348.2 L204.5,348.2 L205.4,348.2 L206.2,349.3 L207.1,347.9 L207.9,347.5 L208.8,348.2 L209.6,348.6 L210.4,350.0 L211.3,352.2 L212.1,354.0 L213.0,354.7 L213.8,356.5 L214.6,356.5 L215.5,356.8 L216.3,356.1 L217.2,348.2 L218.0,325.0 L218.8,322.9 L219.7,325.0 L220.5,321.8 L221.4,331.1 L222.2,351.8 L223.1,352.9 L223.9,354.0 L224.7,352.5 L225.6,352.5 L226.4,352.2 L227.3,352.2 L228.1,352.5 L228.9,351.5 L229.8,349.0 L230.6,349.0 L231.5,350.7 L232.3,335.7 L233.2,322.9 L234.0,323.6 L234.8,325.7 L235.7,332.5 L236.5,327.5 L237.4,354.3 L238.2,353.2 L239.0,351.8 L239.9,351.5 L240.7,351.1 L241.6,319.3 L242.4,319.3 L243.3,318.2 L244.1,342.5 L244.9,341.5 L245.8,341.5 L246.6,342.5 L247.5,329.0 L248.3,319.7 L249.1,317.9 L250.0,318.2 L250.8,319.7 L251.7,306.5 L252.5,321.1 L253.4,306.5 L254.2,314.0 L255.0,316.1 L255.9,308.3 L256.7,309.0 L257.6,311.1 L258.4,310.4 L259.2,310.0 L260.1,309.0 L260.9,309.0 L261.8,315.0 L262.6,327.5 L263.5,327.9 L264.3,321.1 L265.1,321.5 L266.0,321.5 L266.8,306.8 L267.7,307.9 L268.5,305.8 L269.3,278.6 L270.2,292.2 L271.0,303.3 L271.9,308.3 L272.7,308.6 L273.5,309.0 L274.4,301.1 L275.2,285.8 L276.1,287.2 L276.9,297.9 L277.8,288.3 L278.6,286.8 L279.4,284.3 L280.3,281.1 L281.1,291.8 L282.0,304.7 L282.8,309.3 L283.6,309.3 L284.5,308.6 L285.3,307.9 L286.2,307.5 L287.0,309.0 L287.9,308.6 L288.7,294.7 L289.5,297.9 L290.4,301.8 L291.2,302.9 L292.1,301.5 L292.9,309.3 L293.7,310.8 L294.6,300.0 L295.4,300.4 L296.3,296.8 L297.1,290.8 L298.0,297.9 L298.8,286.5 L299.6,285.4 L300.5,287.9 L301.3,284.3 L302.2,296.5 L303.0,287.9 L303.8,295.0 L304.7,307.2 L305.5,306.8 L306.4,306.1 L307.2,305.4 L308.1,306.1 L308.9,292.2 L309.7,291.5 L310.6,305.4 L311.4,306.8 L312.3,307.9 L313.1,326.5 L313.9,318.6 L314.8,310.4 L315.6,310.0 L316.5,315.7 L317.3,338.6 L318.1,346.5 L319.0,346.1 L319.8,336.1 L320.7,335.4 L321.5,333.6 L322.4,326.8 L323.2,327.2 L324.0,326.8 L324.9,329.7 L325.7,329.3 L326.6,332.5 L327.4,328.6 L328.2,329.0 L329.1,329.3 L329.9,329.3 L330.8,336.1 L331.6,346.1 L332.5,348.6 L333.3,347.5 L334.1,348.6 L335.0,347.5 L335.8,346.8 L336.7,346.8 L337.5,336.1 L338.3,337.5 L339.2,336.1 L340.0,336.1 L340.9,339.7 L341.7,340.7 L342.6,342.2 L343.4,344.0 L344.2,335.4 L345.1,343.2 L345.9,344.7 L346.8,346.5 L347.6,345.7 L348.4,345.7 L349.3,347.2 L350.1,347.2 L351.0,352.2 L351.8,354.0 L352.7,354.3 L353.5,353.6 L354.3,355.4 L355.2,356.5 L356.0,357.2 L356.9,357.2 L357.7,357.2 L358.5,357.9 L359.4,357.2 L360.2,356.5 L361.1,345.4 L361.9,331.5 L362.7,344.3 L363.6,355.4 L364.4,354.7 L365.3,355.0 L366.1,355.7 L367.0,354.0 L367.8,354.0 L368.6,354.0 L369.5,354.0 L370.3,353.2 L371.2,352.2 L372.0,352.5 L372.8,353.6 L373.7,346.1 L374.5,336.1 L375.4,352.5 L376.2,354.3 L377.1,334.3 L377.9,321.5 L378.7,319.0 L379.6,317.5 L380.4,315.7 L381.3,317.2 L382.1,326.1 L382.9,326.1 L383.8,351.5 L384.6,350.7 L385.5,350.4 L386.3,351.1 L387.2,351.8 L388.0,350.4 L388.8,351.8 L389.7,351.1 L390.5,351.1 L391.4,351.8 L392.2,352.2 L393.0,352.9 L393.9,352.2 L394.7,352.2 L395.6,352.2 L396.4,352.9 L397.3,319.0 L398.1,335.7 L398.9,340.0 L399.8,316.1 L400.6,316.1 L401.5,315.7 L402.3,349.3 L403.1,348.2 L404.0,348.6 L404.8,348.6 L405.7,349.0 L406.5,348.6 L407.3,348.6 L408.2,348.2 L409.0,348.2 L409.9,348.6 L410.7,349.0 L411.6,349.0 L412.4,350.0 L413.2,352.2 L414.1,354.0 L414.9,354.3 L415.8,358.9 L416.6,360.0 L417.4,338.2 L418.3,327.2 L419.1,344.0 L420.0,322.5 L420.8,320.7 L421.7,327.2 L422.5,350.4 L423.3,349.7 L424.2,349.3 L425.0,350.0 L425.9,349.0 L426.7,348.2 L427.5,348.6 L428.4,348.6 L429.2,347.9 L430.1,347.5 L430.9,347.5 L431.8,348.6 L432.6,349.7 L433.4,350.7 L434.3,328.2 L435.1,352.9 L436.0,350.7 L436.8,354.0 L437.6,343.6 L438.5,325.0 L439.3,330.7 L440.2,323.6 L441.0,321.1 L441.9,324.3 L442.7,350.0 L443.5,349.3 L444.4,349.3 L445.2,348.6 L446.1,348.2 L446.9,347.2 L447.7,346.8 L448.6,347.2 L449.4,346.8 L450.3,346.5 L451.1,348.6 L451.9,349.0 L452.8,349.3 L453.6,350.4 L454.5,351.8 L455.3,352.2 L456.2,350.7 L457.0,354.0 L457.8,353.6 L458.7,331.1 L459.5,322.9 L460.4,322.5 L461.2,319.3 L462.0,318.6 L462.9,328.2 L463.7,331.5 L464.6,317.5 L465.4,316.5 L466.3,316.1 L467.1,348.6 L467.9,349.7 L468.8,349.3 L469.6,349.0 L470.5,316.8 L471.3,342.5 L472.1,350.0 L473.0,352.2 L473.8,353.2 L474.7,354.7 L475.5,355.0 L476.4,355.7 L477.2,346.1 L478.0,357.2 L478.9,325.4 L479.7,334.7 L480.6,304.7 L481.4,289.0 L482.2,302.2 L483.1,321.1 L483.9,313.6 L484.8,314.3 L485.6,314.3 L486.5,333.2 L487.3,332.9 L488.1,334.0 L489.0,333.2 L489.8,333.2 L490.7,329.0 L491.5,328.6 L492.3,329.7 L493.2,330.4 L494.0,331.8 L494.9,335.7 L495.7,335.0 L496.5,326.8 L497.4,320.4 L498.2,320.7 L499.1,320.7 L499.9,310.0 L500.8,307.2 L501.6,306.5 L502.4,318.2 L503.3,319.3 L504.1,317.5 L505.0,317.9 L505.8,319.0 L506.6,316.5 L507.5,316.5 L508.3,317.2 L509.2,317.5 L510.0,317.2 L510.9,314.7 L511.7,316.5 L512.5,315.4 L513.4,309.3 L514.2,308.3 L515.1,309.3 L515.9,312.9 L516.7,314.7 L517.6,315.7 L518.4,315.0 L519.3,314.0 L520.1,314.0 L521.0,294.7 L521.8,283.6 L522.6,281.8 L523.5,305.0 L524.3,313.3 L525.2,313.6 L526.0,313.3 L526.8,314.0 L527.7,313.6 L528.5,313.3 L529.4,312.5 L530.2,312.2 L531.1,311.8 L531.9,294.3 L532.7,302.5 L533.6,302.2 L534.4,312.5 L535.3,312.9 L536.1,314.0 L536.9,314.7 L537.8,315.4 L538.6,314.3 L539.5,284.7 L540.3,284.7 L541.2,280.4 L542.0,284.7 L542.8,284.7 L543.7,284.0 L544.5,284.7 L545.4,304.7 L546.2,303.3 L547.0,313.3 L547.9,312.9 L548.7,312.9 L549.6,313.6 L550.4,314.7 L551.2,283.3 L552.1,282.2 L552.9,307.5 L553.8,313.3 L555.5,316.8 L556.3,318.6 L557.1,320.0 L558.0,319.3 L558.8,319.7 L559.7,319.3 L560.5,319.3 L561.3,293.6 L562.2,289.7 L563.0,289.7 L563.9,289.7 L564.7,316.1 L565.6,315.4 L566.4,314.0 L567.2,316.1 L568.1,315.7 L568.9,317.9 L569.8,317.2 L570.6,315.7 L571.4,313.6 L572.3,312.2 L573.1,311.5 L574.0,312.2 L574.8,312.2 L575.7,312.2 L576.5,312.9 L577.3,314.0 L578.2,316.1 L579.0,316.5 L579.9,315.7 L580.7,307.2 L581.5,293.3 L582.4,305.4 L583.2,305.8 L584.1,310.4 L584.9,316.1 L585.8,316.8 L586.6,316.1 L587.4,315.7 L588.3,316.1 L589.1,316.1 L590.0,315.4 L590.8,315.7 L591.6,314.7 L592.5,314.7 L593.3,315.0 L594.2,315.7 L595.0,317.5 L595.8,317.9 L596.7,317.2 L597.5,317.9 L598.4,317.5 L599.2,316.5 L600.1,315.0 L600.9,316.8 L601.7,316.1 L602.6,316.8 L603.4,316.5 L604.3,316.1 L605.1,322.9 L605.9,325.0 L606.8,325.4 L607.6,327.5 L608.5,327.9 L609.3,327.5 L610.2,326.5 L611.0,326.1 L611.8,325.7 L612.7,325.7 L613.5,326.5 L614.4,325.4 L615.2,325.7 L616.0,325.7 L616.9,325.4 L617.7,324.3 L618.6,325.7 L619.4,326.1 L620.3,325.7 L621.1,325.0 L621.9,298.3 L622.8,308.6 L623.6,308.3 L624.5,326.8 L625.3,363.2 L626.1,362.9 L627.0,363.6 L627.8,363.6 L628.7,363.6 L629.5,362.9 L630.4,363.6 L631.2,363.2 L632.0,364.3 L632.9,364.3 L633.7,361.8 L634.6,362.5 L635.4,361.4 L636.2,352.2 L637.1,353.2 L637.9,342.2 L638.8,332.2 L639.6,332.5 L640.4,325.4 L641.3,325.0 L642.1,292.5 L643.0,324.0 L643.8,325.7 L644.7,326.8 L645.5,326.5 L646.3,326.1 L647.2,326.1 L648.0,325.0 L648.9,325.4 L649.7,325.4 L650.5,325.7 L651.4,324.7 L652.2,324.0 L653.1,324.7 L653.9,326.5 L654.8,325.4 L655.6,297.5 L656.4,298.3 L657.3,325.7 L658.1,303.3 L659.0,295.0 L659.8,293.6 L660.6,324.7 L661.5,324.0 L662.3,324.7 L663.2,324.3 L664.0,324.3 L664.9,325.0 L665.7,325.7 L666.5,325.7 L667.4,325.7 L668.2,325.0 L669.1,325.4 L669.9,325.4 L670.7,325.4 L671.6,325.4 L672.4,325.0 L673.3,325.4 L674.1,325.7 L675.0,326.8 L675.8,326.8 L676.6,325.0 L677.5,327.2 L678.3,325.7 L679.2,383.2 L680.0,382.5" stroke="#2ca02c" stroke-width="2" fill="none" opacity="0.8"/>
<!-- Solar Generation -->
<path d="M80.0,420.0 L80.8,420.0 L81.7,420.0 L82.5,420.0 L83.4,420.0 L84.2,420.0 L85.0,420.0 L85.9,420.0 L86.7,420.0 L87.6,405.4 L88.4,380.4 L89.3,370.4 L90.1,371.8 L90.9,370.0 L91.8,371.1 L92.6,373.6 L93.5,370.4 L94.3,371.8 L95.1,371.1 L96.0,376.8 L96.8,399.3 L97.7,418.9 L98.5,420.0 L99.4,420.0 L100.2,420.0 L101.0,420.0 L101.9,420.0 L102.7,420.0 L103.6,420.0 L104.4,420.0 L105.2,420.0 L106.1,420.0 L106.9,420.0 L107.8,406.1 L108.6,379.3 L109.5,371.8 L110.3,371.8 L111.1,372.2 L112.0,371.4 L112.8,382.2 L113.7,393.2 L114.5,388.6 L115.3,391.4 L116.2,392.2 L117.0,407.5 L117.9,419.3 L118.7,420.0 L119.6,420.0 L120.4,420.0 L121.2,420.0 L122.1,420.0 L122.9,420.0 L123.8,420.0 L124.6,420.0 L125.4,420.0 L126.3,420.0 L127.1,420.0 L128.0,408.6 L128.8,383.9 L129.6,374.7 L130.5,377.9 L131.3,371.4 L132.2,372.5 L133.0,378.9 L133.9,371.4 L134.7,372.2 L135.5,373.9 L136.4,381.4 L137.2,403.2 L138.1,419.3 L138.9,420.0 L139.7,420.0 L140.6,420.0 L141.4,420.0 L142.3,420.0 L143.1,420.0 L144.0,420.0 L144.8,420.0 L145.6,420.0 L146.5,420.0 L147.3,420.0 L148.2,414.6 L149.0,396.4 L149.8,388.9 L150.7,386.8 L151.5,390.4 L152.4,385.4 L153.2,381.8 L154.1,378.2 L154.9,390.7 L155.7,393.2 L156.6,395.4 L157.4,411.1 L158.3,419.6 L159.1,420.0 L159.9,420.0 L160.8,420.0 L161.6,420.0 L162.5,420.0 L163.3,420.0 L164.2,420.0 L165.0,420.0 L165.8,420.0 L166.7,420.0 L167.5,420.0 L168.4,410.7 L169.2,390.7 L170.0,373.9 L170.9,370.4 L171.7,370.0 L172.6,371.1 L173.4,370.7 L174.2,369.3 L175.1,368.9 L175.9,370.4 L176.8,380.4 L177.6,406.1 L178.5,419.6 L179.3,420.0 L180.1,420.0 L181.0,420.0 L181.8,420.0 L182.7,420.0 L183.5,420.0 L184.3,420.0 L185.2,420.0 L186.0,420.0 L186.9,420.0 L187.7,420.0 L188.6,409.6 L189.4,389.3 L190.2,381.8 L191.1,376.4 L191.9,374.7 L192.8,374.3 L193.6,375.4 L194.4,378.2 L195.3,381.8 L196.1,384.3 L197.0,396.4 L197.8,413.2 L198.7,420.0 L199.5,420.0 L200.3,420.0 L201.2,420.0 L202.0,420.0 L202.9,420.0 L203.7,420.0 L204.5,420.0 L205.4,420.0 L206.2,420.0 L207.1,420.0 L207.9,420.0 L208.8,413.6 L209.6,399.3 L210.4,378.6 L211.3,374.3 L212.1,380.7 L213.0,377.2 L213.8,382.5 L214.6,375.7 L215.5,383.9 L216.3,410.7 L217.2,415.0 L218.0,418.2 L218.8,420.0 L219.7,420.0 L220.5,420.0 L221.4,420.0 L222.2,420.0 L223.1,420.0 L223.9,420.0 L224.7,420.0 L225.6,420.0 L226.4,420.0 L227.3,420.0 L228.1,420.0 L228.9,412.9 L229.8,394.7 L230.6,371.1 L231.5,371.1 L232.3,386.8 L233.2,377.5 L234.0,385.4 L234.8,377.2 L235.7,381.8 L236.5,376.8 L237.4,386.8 L238.2,405.4 L239.0,419.6 L239.9,420.0 L240.7,420.0 L241.6,420.0 L242.4,420.0 L243.3,420.0 L244.1,420.0 L244.9,420.0 L245.8,420.0 L246.6,420.0 L247.5,420.0 L248.3,420.0 L249.1,414.6 L250.0,408.2 L250.8,400.0 L251.7,398.2 L252.5,393.6 L253.4,380.4 L254.2,385.7 L255.0,385.0 L255.9,386.4 L256.7,391.8 L257.6,403.2 L258.4,417.5 L259.2,420.0 L260.1,420.0 L260.9,420.0 L261.8,420.0 L262.6,420.0 L263.5,420.0 L264.3,420.0 L265.1,420.0 L266.0,420.0 L266.8,420.0 L267.7,420.0 L268.5,420.0 L269.3,414.3 L270.2,387.5 L271.0,391.1 L271.9,385.0 L272.7,385.4 L273.5,379.7 L274.4,384.3 L275.2,376.1 L276.1,395.0 L276.9,402.9 L277.8,407.1 L278.6,417.1 L279.4,420.0 L280.3,420.0 L281.1,420.0 L282.0,420.0 L282.8,420.0 L283.6,420.0 L284.5,420.0 L285.3,420.0 L286.2,420.0 L287.0,420.0 L287.9,420.0 L288.7,420.0 L289.5,417.5 L290.4,413.6 L291.2,395.0 L292.1,391.1 L292.9,391.1 L293.7,390.4 L294.6,387.5 L295.4,394.3 L296.3,403.9 L297.1,410.4 L298.0,412.5 L298.8,417.1 L299.6,420.0 L300.5,420.0 L301.3,420.0 L302.2,420.0 L303.0,420.0 L303.8,420.0 L304.7,420.0 L305.5,420.0 L306.4,420.0 L307.2,420.0 L308.1,420.0 L308.9,420.0 L309.7,410.7 L310.6,386.8 L311.4,373.9 L312.3,371.1 L313.1,373.2 L313.9,381.4 L314.8,373.2 L315.6,383.6 L316.5,392.2 L317.3,382.9 L318.1,405.0 L319.0,416.1 L319.8,420.0 L320.7,420.0 L321.5,420.0 L322.4,420.0 L323.2,420.0 L324.0,420.0 L324.9,420.0 L325.7,420.0 L326.6,420.0 L327.4,420.0 L328.2,420.0 L329.1,420.0 L329.9,418.6 L330.8,395.7 L331.6,386.8 L332.5,380.4 L333.3,378.6 L334.1,376.1 L335.0,373.9 L335.8,386.1 L336.7,401.8 L337.5,402.5 L338.3,396.8 L339.2,414.6 L340.0,420.0 L340.9,420.0 L341.7,420.0 L342.6,420.0 L343.4,420.0 L344.2,420.0 L345.1,420.0 L345.9,420.0 L346.8,420.0 L347.6,420.0 L348.4,420.0 L349.3,420.0 L350.1,410.7 L351.0,377.5 L351.8,397.2 L352.7,396.8 L353.5,389.3 L354.3,378.2 L355.2,398.2 L356.0,394.7 L356.9,391.4 L357.7,407.5 L358.5,417.5 L359.4,418.2 L360.2,420.0 L361.1,420.0 L361.9,420.0 L362.7,420.0 L363.6,420.0 L364.4,420.0 L365.3,420.0 L366.1,420.0 L367.0,420.0 L367.8,420.0 L368.6,420.0 L369.5,420.0 L370.3,415.7 L371.2,383.6 L372.0,387.9 L372.8,393.6 L373.7,399.6 L374.5,403.9 L375.4,388.2 L376.2,390.4 L377.1,411.4 L377.9,411.4 L378.7,415.0 L379.6,417.9 L380.4,420.0 L381.3,420.0 L382.1,420.0 L382.9,420.0 L383.8,420.0 L384.6,420.0 L385.5,420.0 L386.3,420.0 L387.2,420.0 L388.0,420.0 L388.8,420.0 L389.7,420.0 L390.5,413.9 L391.4,406.1 L392.2,402.5 L393.0,391.4 L393.9,398.2 L394.7,392.9 L395.6,379.3 L396.4,391.8 L397.3,392.5 L398.1,413.6 L398.9,407.9 L399.8,416.8 L400.6,420.0 L401.5,420.0 L402.3,420.0 L403.1,420.0 L404.0,420.0 L404.8,420.0 L405.7,420.0 L406.5,420.0 L407.3,420.0 L408.2,420.0 L409.0,420.0 L409.9,420.0 L410.7,416.1 L411.6,391.4 L412.4,375.7 L413.2,375.7 L414.1,375.7 L414.9,373.9 L415.8,378.6 L416.6,377.9 L417.4,376.4 L418.3,380.4 L419.1,385.4 L420.0,411.4 L420.8,420.0 L421.7,420.0 L422.5,420.0 L423.3,420.0 L424.2,420.0 L425.0,420.0 L425.9,420.0 L426.7,420.0 L427.5,420.0 L428.4,420.0 L429.2,420.0 L430.1,420.0 L430.9,413.2 L431.8,384.3 L432.6,373.2 L433.4,371.4 L434.3,372.9 L435.1,376.1 L436.0,373.2 L436.8,372.9 L437.6,372.9 L438.5,374.7 L439.3,384.3 L440.2,412.9 L441.0,420.0 L441.9,420.0 L442.7,420.0 L443.5,420.0 L444.4,420.0 L445.2,420.0 L446.1,420.0 L446.9,420.0 L447.7,420.0 L448.6,420.0 L449.4,420.0 L450.3,420.0 L451.1,412.9 L451.9,388.2 L452.8,392.2 L453.6,377.5 L454.5,378.2 L455.3,378.6 L456.2,380.7 L457.0,379.3 L457.8,374.7 L458.7,379.3 L459.5,396.8 L460.4,412.5 L461.2,420.0 L462.0,420.0 L462.9,420.0 L463.7,420.0 L464.6,420.0 L465.4,420.0 L466.3,420.0 L467.1,420.0 L467.9,420.0 L468.8,420.0 L469.6,420.0 L470.5,420.0 L471.3,414.3 L472.1,384.7 L473.0,372.5 L473.8,371.1 L474.7,372.5 L475.5,373.6 L476.4,372.5 L477.2,373.9 L478.0,376.1 L478.9,381.4 L479.7,395.4 L480.6,412.9 L481.4,420.0 L482.2,420.0 L483.1,420.0 L483.9,420.0 L484.8,420.0 L485.6,420.0 L486.5,420.0 L487.3,420.0 L488.1,420.0 L489.0,420.0 L489.8,420.0 L490.7,420.0 L491.5,415.4 L492.3,390.0 L493.2,383.6 L494.0,383.9 L494.9,373.9 L495.7,387.9 L496.5,385.4 L497.4,378.6 L498.2,397.2 L499.1,399.6 L499.9,408.9 L500.8,418.9 L501.6,420.0 L502.4,420.0 L503.3,420.0 L504.1,420.0 L505.0,420.0 L505.8,420.0 L506.6,420.0 L507.5,420.0 L508.3,420.0 L509.2,420.0 L510.0,420.0 L510.9,420.0 L511.7,419.3 L512.5,397.5 L513.4,410.4 L514.2,389.7 L515.1,388.6 L515.9,406.1 L516.7,383.9 L517.6,381.1 L518.4,386.1 L519.3,401.4 L520.1,398.6 L521.0,413.6 L521.8,420.0 L522.6,420.0 L523.5,420.0 L524.3,420.0 L525.2,420.0 L526.0,420.0 L526.8,420.0 L527.7,420.0 L528.5,420.0 L529.4,420.0 L530.2,420.0 L531.1,420.0 L531.9,413.6 L532.7,382.2 L533.6,370.4 L534.4,370.4 L535.3,371.4 L536.1,372.9 L536.9,372.9 L537.8,371.1 L538.6,370.0 L539.5,370.7 L540.3,384.3 L541.2,413.9 L542.0,420.0 L542.8,420.0 L543.7,420.0 L544.5,420.0 L545.4,420.0 L546.2,420.0 L547.0,420.0 L547.9,420.0 L548.7,420.0 L549.6,420.0 L550.4,420.0 L551.2,420.0 L552.1,413.9 L552.9,382.5 L553.8,369.7 L554.6,420.0 L555.5,371.4 L556.3,373.2 L557.1,373.2 L558.0,371.4 L558.8,370.0 L559.7,370.7 L560.5,385.0 L561.3,414.6 L562.2,420.0 L563.0,420.0 L563.9,420.0 L564.7,420.0 L565.6,420.0 L566.4,420.0 L567.2,420.0 L568.1,420.0 L568.9,420.0 L569.8,420.0 L570.6,420.0 L571.4,420.0 L572.3,414.6 L573.1,383.6 L574.0,370.7 L574.8,370.7 L575.7,372.9 L576.5,374.3 L577.3,374.3 L578.2,372.5 L579.0,370.7 L579.9,371.4 L580.7,387.5 L581.5,415.4 L582.4,420.0 L583.2,420.0 L584.1,420.0 L584.9,420.0 L585.8,420.0 L586.6,420.0 L587.4,420.0 L588.3,420.0 L589.1,420.0 L590.0,420.0 L590.8,420.0 L591.6,420.0 L592.5,418.9 L593.3,386.8 L594.2,372.5 L595.0,371.4 L595.8,373.2 L596.7,375.7 L597.5,374.7 L598.4,373.9 L599.2,376.8 L600.1,382.2 L600.9,398.9 L601.7,417.9 L602.6,420.0 L603.4,420.0 L604.3,420.0 L605.1,420.0 L605.9,420.0 L606.8,420.0 L607.6,420.0 L608.5,420.0 L609.3,420.0 L610.2,420.0 L611.0,420.0 L611.8,420.0 L612.7,416.1 L613.5,387.9 L614.4,371.8 L615.2,371.1 L616.0,373.6 L616.9,374.7 L617.7,375.0 L618.6,372.9 L619.4,371.4 L620.3,372.9 L621.1,390.4 L621.9,416.8 L622.8,420.0 L623.6,420.0 L624.5,420.0 L625.3,420.0 L626.1,420.0 L627.0,420.0 L627.8,420.0 L628.7,420.0 L629.5,420.0 L630.4,420.0 L631.2,420.0 L632.0,420.0 L632.9,415.7 L633.7,389.7 L634.6,372.5 L635.4,371.8 L636.2,376.1 L637.1,376.4 L637.9,374.7 L638.8,375.0 L639.6,407.1 L640.4,371.1 L641.3,408.6 L642.1,415.0 L643.0,420.0 L643.8,420.0 L644.7,420.0 L645.5,420.0 L646.3,420.0 L647.2,420.0 L648.0,420.0 L648.9,420.0 L649.7,420.0 L650.5,420.0 L651.4,420.0 L652.2,420.0 L653.1,418.9 L653.9,409.3 L654.8,385.4 L655.6,379.7 L656.4,375.7 L657.3,377.5 L658.1,375.4 L659.0,393.9 L659.8,396.8 L660.6,397.9 L661.5,416.1 L662.3,418.6 L663.2,420.0 L664.0,420.0 L664.9,420.0 L665.7,420.0 L666.5,420.0 L667.4,420.0 L668.2,420.0 L669.1,420.0 L669.9,420.0 L670.7,420.0 L671.6,420.0 L672.4,420.0 L673.3,417.9 L674.1,415.4 L675.0,396.8 L675.8,375.0 L676.6,377.5 L677.5,381.8 L678.3,378.2 L679.2,383.6 L680.0,398.2" stroke="#d62728" stroke-width="2" fill="none" opacity="0.8"/>
<!-- Forecast -->
<path d="M80.0,136.5 L80.8,166.5 L81.7,192.6 L82.5,208.3 L83.4,201.1 L84.2,219.4 L85.0,225.8 L85.9,224.0 L86.7,219.4 L87.6,208.3 L88.4,188.3 L89.3,165.1 L90.1,151.2 L90.9,139.0 L91.8,130.1 L92.6,118.0 L93.5,105.8 L94.3,93.3 L95.1,83.7 L96.0,75.5 L96.8,78.3 L97.7,88.3 L98.5,102.6 L99.4,113.0 L100.2,135.8 L101.0,110.8 L101.9,169.7 L102.7,200.4 L103.6,192.9 L104.4,212.6 L105.2,217.9 L106.1,208.6 L106.9,185.8 L107.8,159.4 L108.6,131.2 L109.5,113.3 L110.3,104.7 L111.1,95.1 L112.0,89.0 L112.8,80.8 L113.7,71.5 L114.5,69.8 L115.3,69.8 L116.2,70.1 L117.0,70.5 L117.9,70.5 L118.7,70.8 L119.6,71.2 L120.4,85.8 L121.2,160.8 L122.1,193.3 L122.9,210.1 L123.8,221.1 L124.6,226.9 L125.4,225.8 L126.3,215.1 L127.1,190.4 L128.0,163.3 L128.8,136.9 L129.6,122.2 L130.5,115.8 L131.3,108.7 L132.2,104.0 L133.0,98.7 L133.9,90.5 L134.7,79.0 L135.5,68.3 L136.4,70.8 L137.2,81.5 L138.1,99.4 L138.9,112.6 L139.7,120.1 L140.6,142.2 L141.4,177.2 L142.3,200.8 L143.1,204.7 L144.0,211.5 L144.8,217.9 L145.6,217.2 L146.5,207.2 L147.3,185.4 L148.2,159.0 L149.0,131.2 L149.8,115.1 L150.7,108.0 L151.5,101.5 L152.4,98.3 L153.2,94.0 L154.1,89.8 L154.9,82.3 L155.7,79.8 L156.6,86.2 L157.4,96.2 L158.3,110.5 L159.1,121.5 L159.9,127.2 L160.8,148.3 L161.6,190.4 L162.5,206.5 L163.3,238.3 L164.2,250.8 L165.0,254.3 L165.8,256.8 L166.7,230.4 L167.5,222.9 L168.4,201.1 L169.2,186.5 L170.0,164.4 L170.9,148.7 L171.7,142.6 L172.6,141.2 L173.4,141.2 L174.2,141.5 L175.1,141.2 L175.9,140.8 L176.8,141.2 L177.6,141.2 L178.5,125.1 L179.3,128.3 L180.1,135.8 L181.0,164.0 L181.8,191.9 L182.7,231.5 L183.5,245.4 L184.3,250.1 L185.2,252.6 L186.0,254.3 L186.9,255.1 L187.7,241.8 L188.6,216.9 L189.4,186.2 L190.2,165.8 L191.1,158.3 L191.9,157.9 L192.8,148.7 L193.6,141.2 L194.4,140.1 L195.3,128.0 L196.1,120.1 L197.0,119.4 L197.8,118.3 L198.7,129.7 L199.5,138.0 L200.3,140.1 L201.2,156.2 L202.0,179.7 L202.9,201.9 L203.7,217.9 L204.5,227.2 L205.4,232.2 L206.2,234.0 L207.1,232.2 L207.9,224.7 L208.8,212.2 L209.6,194.4 L210.4,175.8 L211.3,160.4 L212.1,152.6 L213.0,148.7 L213.8,139.4 L214.6,130.1 L215.5,118.7 L216.3,108.7 L217.2,95.8 L218.0,134.4 L218.8,159.4 L219.7,167.9 L220.5,168.7 L221.4,167.2 L222.2,182.9 L223.1,193.6 L223.9,192.2 L224.7,189.0 L225.6,186.5 L226.4,185.8 L227.3,186.9 L228.1,188.3 L228.9,190.4 L229.8,159.0 L230.6,138.0 L231.5,121.2 L232.3,113.0 L233.2,111.2 L234.0,110.8 L234.8,111.2 L235.7,111.9 L236.5,116.2 L237.4,123.0 L238.2,135.1 L239.0,159.0 L239.9,175.4 L240.7,95.8 L241.6,160.4 L242.4,180.4 L243.3,199.7 L244.1,211.1 L244.9,219.0 L245.8,224.7 L246.6,223.6 L247.5,212.6 L248.3,189.4 L249.1,162.6 L250.0,136.2 L250.8,122.2 L251.7,115.8 L252.5,108.7 L253.4,104.0 L254.2,100.1 L255.0,93.7 L255.9,84.4 L256.7,80.8 L257.6,84.4 L258.4,92.3 L259.2,107.6 L260.1,119.4 L260.9,123.3 L261.8,141.5 L262.6,170.8 L263.5,196.9 L264.3,210.4 L265.1,219.7 L266.0,224.7 L266.8,224.0 L267.7,212.9 L268.5,189.0 L269.3,161.9 L270.2,136.5 L271.0,123.0 L271.9,116.2 L272.7,108.7 L273.5,102.3 L274.4,94.8 L275.2,84.8 L276.1,71.9 L276.9,67.6 L277.8,73.0 L278.6,85.5 L279.4,105.5 L280.3,114.7 L281.1,119.4 L282.0,140.5 L282.8,188.3 L283.6,211.9 L284.5,223.6 L285.3,232.9 L286.2,235.1 L287.0,233.6 L287.9,222.9 L288.7,187.9 L289.5,153.7 L290.4,132.2 L291.2,122.2 L292.1,124.7 L292.9,124.0 L293.7,122.2 L294.6,123.7 L295.4,125.8 L296.3,120.5 L297.1,122.2 L298.0,124.0 L298.8,122.2 L299.6,117.2 L300.5,117.2 L301.3,136.5 L302.2,165.4 L303.0,194.7 L303.8,214.7 L304.7,226.9 L305.5,234.7 L306.4,236.8 L307.2,235.1 L308.1,222.6 L308.9,188.3 L309.7,152.6 L310.6,132.6 L311.4,128.3 L312.3,131.2 L313.1,128.7 L313.9,126.5 L314.8,128.7 L315.6,130.5 L316.5,126.2 L317.3,125.5 L318.1,125.1 L319.0,123.7 L319.8,119.0 L320.7,118.3 L321.5,137.2 L322.4,165.8 L323.2,203.3 L324.0,218.6 L324.9,228.6 L325.7,234.0 L326.6,237.6 L327.4,239.3 L328.2,236.5 L329.1,221.9 L329.9,205.8 L330.8,185.8 L331.6,168.3 L332.5,159.4 L333.3,157.2 L334.1,165.1 L335.0,164.7 L335.8,163.7 L336.7,160.8 L337.5,150.4 L338.3,147.9 L339.2,150.1 L340.0,147.6 L340.9,150.1 L341.7,162.2 L342.6,184.0 L343.4,206.1 L344.2,222.2 L345.1,233.3 L345.9,240.1 L346.8,243.3 L347.6,240.1 L348.4,236.5 L349.3,223.3 L350.1,211.9 L351.0,200.1 L351.8,180.1 L352.7,168.7 L353.5,166.2 L354.3,160.1 L355.2,160.1 L356.0,161.9 L356.9,153.3 L357.7,139.0 L358.5,126.9 L359.4,126.2 L360.2,123.0 L361.1,128.7 L361.9,146.9 L362.7,174.0 L363.6,197.6 L364.4,215.1 L365.3,226.5 L366.1,234.7 L367.0,236.8 L367.8,235.1 L368.6,222.6 L369.5,188.3 L370.3,151.9 L371.2,132.2 L372.0,127.2 L372.8,128.3 L373.7,128.0 L374.5,128.0 L375.4,130.5 L376.2,131.9 L377.1,129.7 L377.9,128.7 L378.7,128.7 L379.6,127.2 L380.4,123.3 L381.3,121.9 L382.1,142.2 L382.9,171.9 L383.8,198.6 L384.6,217.2 L385.5,228.6 L386.3,235.4 L387.2,237.6 L388.0,235.4 L388.8,222.2 L389.7,187.6 L390.5,150.8 L391.4,132.2 L392.2,130.8 L393.0,130.5 L393.9,140.1 L394.7,142.2 L395.6,149.7 L396.4,143.0 L397.3,144.4 L398.1,144.4 L398.9,149.7 L399.8,158.3 L400.6,173.7 L401.5,185.1 L402.3,187.2 L403.1,186.9 L404.0,212.2 L404.8,229.4 L405.7,255.8 L406.5,262.2 L407.3,261.5 L408.2,261.1 L409.0,233.3 L409.9,226.5 L410.7,192.9 L411.6,180.1 L412.4,162.2 L413.2,142.6 L414.1,134.4 L414.9,133.7 L415.8,135.1 L416.6,128.7 L417.4,119.7 L418.3,115.8 L419.1,113.3 L420.0,116.5 L420.8,115.8 L421.7,116.9 L422.5,136.9 L423.3,165.8 L424.2,195.4 L425.0,216.5 L425.9,228.6 L426.7,235.4 L427.5,237.6 L428.4,235.8 L429.2,221.9 L430.1,187.6 L430.9,199.4 L431.8,201.9 L432.6,184.0 L433.4,163.3 L434.3,154.4 L435.1,153.3 L436.0,153.7 L436.8,154.0 L437.6,152.9 L438.5,151.9 L439.3,152.2 L440.2,163.3 L441.0,177.9 L441.9,187.9 L442.7,187.2 L443.5,186.2 L444.4,196.1 L445.2,243.3 L446.1,235.8 L446.9,235.8 L447.7,237.6 L448.6,235.8 L449.4,222.2 L450.3,187.9 L451.1,151.5 L451.9,132.2 L452.8,130.5 L453.6,133.0 L454.5,128.0 L455.3,124.0 L456.2,123.0 L457.0,117.6 L457.8,110.8 L458.7,108.7 L459.5,107.6 L460.4,111.5 L461.2,111.9 L462.0,114.0 L462.9,132.6 L463.7,162.6 L464.6,205.1 L465.4,220.1 L466.3,229.4 L467.1,234.7 L467.9,237.9 L468.8,239.7 L469.6,235.8 L470.5,221.9 L471.3,206.5 L472.1,189.0 L473.0,173.3 L473.8,165.8 L474.7,164.0 L475.5,159.4 L476.4,157.2 L477.2,151.5 L478.0,139.4 L478.9,135.1 L479.7,129.0 L480.6,131.5 L481.4,143.7 L482.2,149.7 L483.1,163.3 L483.9,185.4 L484.8,207.9 L485.6,225.4 L486.5,235.8 L487.3,243.3 L488.1,246.1 L489.0,242.6 L489.8,240.1 L490.7,227.6 L491.5,215.8 L492.3,204.0 L493.2,182.9 L494.0,170.4 L494.9,166.9 L495.7,160.1 L496.5,160.4 L497.4,162.9 L498.2,158.3 L499.1,150.1 L499.9,139.0 L500.8,138.7 L501.6,131.2 L502.4,132.2 L503.3,150.4 L504.1,177.9 L505.0,202.2 L505.8,217.9 L506.6,228.6 L507.5,235.8 L508.3,237.9 L509.2,235.4 L510.0,221.1 L510.9,185.8 L511.7,149.0 L512.5,131.9 L513.4,129.4 L514.2,129.7 L515.1,129.7 L515.9,130.1 L516.7,133.7 L517.6,135.1 L518.4,133.3 L519.3,129.7 L520.1,126.9 L521.0,125.8 L521.8,123.3 L522.6,123.0 L523.5,143.7 L524.3,173.3 L525.2,200.1 L526.0,219.4 L526.8,229.7 L527.7,235.4 L528.5,237.2 L529.4,234.7 L530.2,219.7 L531.1,184.7 L531.9,147.9 L532.7,131.2 L533.6,129.4 L534.4,130.1 L535.3,128.7 L536.1,127.6 L536.9,129.4 L537.8,129.7 L538.6,124.0 L539.5,118.0 L540.3,116.2 L541.2,119.0 L542.0,118.3 L542.8,119.7 L543.7,140.1 L544.5,170.8 L545.4,194.4 L546.2,217.6 L547.0,229.4 L547.9,235.4 L548.7,237.6 L549.6,235.4 L550.4,221.5 L551.2,187.2 L552.1,150.4 L552.9,131.9 L553.8,125.8 L554.6,121.5 L555.5,119.0 L556.3,115.8 L557.1,111.2 L558.0,103.3 L558.8,96.9 L559.7,91.5 L560.5,93.0 L561.3,103.0 L562.2,108.0 L563.0,112.6 L563.9,131.5 L564.7,161.2 L565.6,190.8 L566.4,216.9 L567.2,228.3 L568.1,235.4 L568.9,237.6 L569.8,235.8 L570.6,222.2 L571.4,188.3 L572.3,151.9 L573.1,133.0 L574.0,130.5 L574.8,131.9 L575.7,125.8 L576.5,120.5 L577.3,114.7 L578.2,105.1 L579.0,97.3 L579.9,92.6 L580.7,93.3 L581.5,103.3 L582.4,108.0 L583.2,112.6 L584.1,130.1 L584.9,157.9 L585.8,197.6 L586.6,215.1 L587.4,226.5 L588.3,234.3 L589.1,236.8 L590.0,235.1 L590.8,222.9 L591.6,188.6 L592.5,152.2 L593.3,133.0 L594.2,128.0 L595.0,129.0 L595.8,127.6 L596.7,125.8 L597.5,127.2 L598.4,129.7 L599.2,124.7 L600.1,124.0 L600.9,121.5 L601.7,124.0 L602.6,123.0 L603.4,122.6 L604.3,143.3 L605.1,172.6 L605.9,205.4 L606.8,216.5 L607.6,224.4 L608.5,230.1 L609.3,232.9 L610.2,234.0 L611.0,230.1 L611.8,215.8 L612.7,199.7 L613.5,181.9 L614.4,167.9 L615.2,162.2 L616.0,161.2 L616.9,163.7 L617.7,162.6 L618.6,158.7 L619.4,151.5 L620.3,140.1 L621.1,134.0 L621.9,141.2 L622.8,146.5 L623.6,150.4 L624.5,162.9 L625.3,184.7 L626.1,206.1 L627.0,222.9 L627.8,232.9 L628.7,239.3 L629.5,241.8 L630.4,239.0 L631.2,234.7 L632.0,221.9 L632.9,208.3 L633.7,195.1 L634.6,177.2 L635.4,168.7 L636.2,167.2 L637.1,161.2 L637.9,157.6 L638.8,156.5 L639.6,145.1 L640.4,131.2 L641.3,123.3 L642.1,122.6 L643.0,121.2 L643.8,128.0 L644.7,146.9 L645.5,174.4 L646.3,194.7 L647.2,213.3 L648.0,226.1 L648.9,234.7 L649.7,236.8 L650.5,235.1 L651.4,223.6 L652.2,189.7 L653.1,154.0 L653.9,133.7 L654.8,123.3 L655.6,121.2 L656.4,120.5 L657.3,119.4 L658.1,118.0 L659.0,118.0 L659.8,112.6 L660.6,112.6 L661.5,113.7 L662.3,116.9 L663.2,115.8 L664.0,116.5 L664.9,134.4 L665.7,161.9 L666.5,195.4 L667.4,214.7 L668.2,226.5 L669.1,234.7 L669.9,237.2 L670.7,235.4 L671.6,224.0 L672.4,189.7 L673.3,154.0 L674.1,133.7 L675.0,126.2 L675.8,125.5 L676.6,126.5 L677.5,127.2 L678.3,129.7 L679.2,128.7 L680.0,128.0" stroke="#9467bd" stroke-width="2" fill="none" opacity="0.8"/>
<!-- Total Generation -->
<path d="M80.0,197.6 L80.8,212.6 L81.7,214.0 L82.5,234.0 L83.4,233.3 L84.2,233.6 L85.0,232.9 L85.9,231.8 L86.7,230.4 L87.6,217.2 L88.4,195.8 L89.3,189.7 L90.1,192.2 L90.9,185.4 L91.8,185.8 L92.6,185.1 L93.5,165.4 L94.3,147.9 L95.1,132.2 L96.0,144.4 L96.8,162.6 L97.7,146.9 L98.5,145.8 L99.4,138.3 L100.2,143.7 L101.0,170.8 L101.9,177.2 L102.7,183.3 L103.6,193.6 L104.4,194.4 L105.2,201.1 L106.1,192.9 L106.9,195.8 L107.8,178.7 L108.6,151.9 L109.5,150.8 L110.3,150.4 L111.1,146.9 L112.0,147.2 L112.8,185.1 L113.7,210.4 L114.5,193.3 L115.3,202.9 L116.2,196.1 L117.0,208.6 L117.9,214.7 L118.7,207.9 L119.6,215.8 L120.4,213.6 L121.2,219.7 L122.1,234.0 L122.9,237.2 L123.8,246.8 L124.6,248.3 L125.4,253.3 L126.3,250.1 L127.1,251.1 L128.0,244.3 L128.8,219.4 L129.6,207.9 L130.5,211.1 L131.3,206.1 L132.2,191.1 L133.0,184.4 L133.9,170.8 L134.7,149.4 L135.5,139.4 L136.4,161.2 L137.2,174.0 L138.1,187.9 L138.9,218.6 L139.7,237.6 L140.6,236.5 L141.4,223.6 L142.3,224.0 L143.1,217.2 L144.0,195.4 L144.8,188.3 L145.6,171.9 L146.5,138.3 L147.3,131.5 L148.2,132.6 L149.0,132.6 L149.8,123.3 L150.7,128.7 L151.5,137.2 L152.4,134.4 L153.2,133.7 L154.1,104.0 L154.9,110.5 L155.7,110.1 L156.6,132.2 L157.4,148.7 L158.3,189.4 L159.1,198.6 L159.9,210.8 L160.8,223.3 L161.6,235.4 L162.5,232.2 L163.3,231.5 L164.2,227.2 L165.0,224.4 L165.8,225.8 L166.7,234.3 L167.5,238.3 L168.4,233.3 L169.2,226.1 L170.0,218.6 L170.9,214.7 L171.7,206.9 L172.6,208.3 L173.4,204.7 L174.2,203.3 L175.1,200.1 L175.9,193.6 L176.8,196.5 L177.6,214.7 L178.5,213.6 L179.3,189.4 L180.1,185.1 L181.0,190.4 L181.8,207.6 L182.7,243.6 L183.5,265.8 L184.3,269.7 L185.2,270.8 L186.0,271.1 L186.9,270.4 L187.7,271.1 L188.6,261.5 L189.4,237.9 L190.2,229.4 L191.1,226.1 L191.9,229.0 L192.8,229.4 L193.6,228.3 L194.4,232.2 L195.3,232.9 L196.1,208.3 L197.0,202.2 L197.8,200.1 L198.7,184.0 L199.5,184.7 L200.3,210.1 L201.2,231.1 L202.0,267.6 L202.9,253.3 L203.7,273.3 L204.5,271.8 L205.4,269.3 L206.2,264.0 L207.1,250.8 L207.9,228.3 L208.8,214.7 L209.6,182.9 L210.4,159.0 L211.3,126.9 L212.1,154.0 L213.0,140.1 L213.8,163.3 L214.6,165.4 L215.5,165.8 L216.3,199.4 L217.2,237.6 L218.0,235.4 L218.8,236.8 L219.7,230.4 L220.5,227.6 L221.4,203.3 L222.2,173.3 L223.1,212.9 L223.9,165.1 L224.7,173.7 L225.6,206.9 L226.4,192.6 L227.3,170.4 L228.1,175.1 L228.9,201.1 L229.8,191.5 L230.6,184.4 L231.5,190.1 L232.3,195.8 L233.2,157.6 L234.0,171.9 L234.8,155.4 L235.7,150.4 L236.5,151.2 L237.4,206.5 L238.2,242.2 L239.0,259.7 L239.9,257.6 L240.7,262.6 L241.6,239.0 L242.4,237.9 L243.3,240.4 L244.1,266.1 L244.9,265.1 L245.8,265.4 L246.6,266.5 L247.5,251.8 L248.3,241.8 L249.1,235.4 L250.0,230.4 L250.8,223.6 L251.7,206.5 L252.5,208.3 L253.4,170.8 L254.2,179.7 L255.0,182.2 L255.9,163.7 L256.7,167.2 L257.6,172.2 L258.4,186.5 L259.2,160.1 L260.1,189.4 L260.9,163.3 L261.8,186.9 L262.6,234.0 L263.5,241.8 L264.3,235.8 L265.1,240.4 L266.0,229.4 L266.8,211.5 L267.7,220.8 L268.5,220.1 L269.3,191.5 L270.2,181.2 L271.0,197.9 L271.9,198.3 L272.7,200.1 L273.5,193.6 L274.4,190.1 L275.2,167.6 L276.1,186.9 L276.9,202.6 L277.8,200.1 L278.6,192.2 L279.4,191.1 L280.3,185.4 L281.1,204.7 L282.0,215.8 L282.8,216.1 L283.6,214.0 L284.5,227.9 L285.3,231.5 L286.2,221.9 L287.0,225.8 L287.9,231.5 L288.7,214.7 L289.5,167.6 L290.4,192.6 L291.2,189.0 L292.1,161.5 L292.9,197.6 L293.7,202.6 L294.6,190.4 L295.4,197.9 L296.3,198.3 L297.1,193.3 L298.0,198.6 L298.8,196.9 L299.6,205.1 L300.5,212.2 L301.3,204.7 L302.2,218.3 L303.0,207.2 L303.8,219.7 L304.7,231.8 L305.5,233.3 L306.4,234.0 L307.2,231.5 L308.1,232.2 L308.9,210.1 L309.7,196.5 L310.6,197.2 L311.4,186.5 L312.3,184.7 L313.1,205.8 L313.9,205.1 L314.8,187.6 L315.6,180.8 L316.5,184.7 L317.3,151.9 L318.1,223.3 L319.0,239.3 L319.8,239.0 L320.7,252.2 L321.5,249.0 L322.4,237.6 L323.2,232.6 L324.0,239.3 L324.9,252.9 L325.7,255.8 L326.6,258.6 L327.4,255.1 L328.2,250.4 L329.1,245.1 L329.9,238.6 L330.8,234.0 L331.6,234.3 L332.5,229.4 L333.3,226.9 L334.1,228.6 L335.0,226.5 L335.8,239.0 L336.7,255.1 L337.5,242.6 L338.3,235.1 L339.2,251.8 L340.0,252.9 L340.9,261.8 L341.7,260.4 L342.6,265.1 L343.4,261.1 L344.2,252.2 L345.1,259.3 L345.9,260.4 L346.8,258.3 L347.6,248.3 L348.4,250.4 L349.3,255.1 L350.1,239.0 L351.0,214.7 L351.8,231.5 L352.7,211.9 L353.5,188.6 L354.3,182.9 L355.2,182.6 L356.0,189.7 L356.9,195.4 L357.7,225.1 L358.5,254.3 L359.4,264.7 L360.2,276.8 L361.1,262.6 L361.9,227.9 L362.7,132.2 L363.6,167.6 L364.4,169.7 L365.3,201.1 L366.1,196.1 L367.0,183.3 L367.8,192.2 L368.6,164.0 L369.5,170.8 L370.3,199.0 L371.2,190.1 L372.0,196.1 L372.8,201.1 L373.7,190.8 L374.5,188.6 L375.4,201.9 L376.2,199.4 L377.1,214.7 L377.9,214.7 L378.7,192.2 L379.6,198.6 L380.4,195.4 L381.3,195.1 L382.1,205.1 L382.9,190.4 L383.8,214.4 L384.6,218.6 L385.5,205.1 L386.3,198.3 L387.2,197.9 L388.0,190.1 L388.8,239.3 L389.7,253.3 L390.5,246.1 L391.4,226.5 L392.2,234.7 L393.0,233.3 L393.9,230.8 L394.7,221.1 L395.6,221.9 L396.4,222.2 L397.3,184.7 L398.1,235.1 L398.9,242.9 L399.8,222.9 L400.6,229.0 L401.5,220.8 L402.3,271.1 L403.1,272.5 L404.0,278.6 L404.8,268.6 L405.7,265.4 L406.5,256.5 L407.3,267.6 L408.2,260.8 L409.0,259.0 L409.9,256.5 L410.7,255.8 L411.6,241.8 L412.4,234.3 L413.2,238.3 L414.1,241.1 L414.9,239.7 L415.8,248.6 L416.6,249.0 L417.4,226.1 L418.3,219.0 L419.1,240.4 L420.0,243.3 L420.8,234.0 L421.7,238.3 L422.5,267.6 L423.3,266.5 L424.2,269.0 L425.0,273.6 L425.9,279.3 L426.7,279.0 L427.5,279.7 L428.4,279.3 L429.2,277.5 L430.1,277.9 L430.9,271.8 L431.8,242.2 L432.6,233.3 L433.4,234.0 L434.3,212.9 L435.1,242.6 L436.0,233.6 L436.8,237.2 L437.6,224.7 L438.5,202.6 L439.3,211.1 L440.2,227.9 L441.0,203.6 L441.9,192.2 L442.7,241.1 L443.5,273.3 L444.4,279.0 L445.2,283.3 L446.1,286.1 L446.9,285.0 L447.7,283.6 L448.6,283.6 L449.4,280.4 L450.3,280.4 L451.1,276.5 L451.9,250.8 L452.8,257.2 L453.6,241.1 L454.5,242.6 L455.3,242.6 L456.2,244.3 L457.0,245.4 L457.8,241.8 L458.7,220.8 L459.5,224.4 L460.4,236.5 L461.2,228.3 L462.0,221.1 L462.9,234.7 L463.7,245.8 L464.6,238.6 L465.4,245.4 L466.3,247.9 L467.1,282.2 L467.9,283.3 L468.8,281.8 L469.6,279.7 L470.5,244.3 L471.3,263.3 L472.1,239.0 L473.0,235.8 L473.8,235.4 L474.7,230.4 L475.5,214.7 L476.4,196.9 L477.2,192.6 L478.0,206.5 L478.9,163.7 L479.7,180.8 L480.6,186.5 L481.4,190.1 L482.2,210.1 L483.1,236.1 L483.9,207.6 L484.8,223.6 L485.6,215.1 L486.5,224.4 L487.3,224.4 L488.1,198.3 L489.0,212.2 L489.8,212.2 L490.7,209.7 L491.5,211.1 L492.3,193.6 L493.2,198.3 L494.0,190.8 L494.9,187.2 L495.7,203.6 L496.5,198.3 L497.4,193.6 L498.2,215.4 L499.1,225.1 L499.9,225.4 L500.8,173.3 L501.6,111.9 L502.4,120.5 L503.3,129.7 L504.1,167.9 L505.0,177.6 L505.8,169.0 L506.6,156.2 L507.5,162.6 L508.3,171.9 L509.2,164.0 L510.0,175.1 L510.9,147.2 L511.7,177.2 L512.5,161.5 L513.4,162.2 L514.2,146.2 L515.1,164.0 L515.9,175.1 L516.7,144.7 L517.6,128.7 L518.4,145.4 L519.3,165.1 L520.1,177.9 L521.0,196.9 L521.8,201.9 L522.6,192.6 L523.5,226.9 L524.3,240.1 L525.2,241.8 L526.0,242.9 L526.8,246.1 L527.7,245.4 L528.5,236.5 L529.4,232.6 L530.2,237.6 L531.1,229.7 L531.9,196.9 L532.7,182.9 L533.6,175.8 L534.4,176.9 L535.3,181.9 L536.1,192.9 L536.9,198.3 L537.8,200.4 L538.6,200.1 L539.5,171.2 L540.3,182.6 L541.2,204.0 L542.0,206.5 L542.8,205.1 L543.7,206.1 L544.5,211.1 L545.4,225.8 L546.2,220.8 L547.0,227.9 L547.9,222.9 L548.7,215.8 L549.6,195.8 L550.4,185.8 L551.2,156.9 L552.1,132.2 L552.9,117.6 L553.8,100.8 L555.5,130.1 L556.3,136.5 L557.1,126.5 L558.0,139.4 L558.8,146.5 L559.7,146.5 L560.5,150.1 L561.3,157.6 L562.2,180.4 L563.0,203.3 L563.9,214.0 L564.7,241.1 L565.6,233.6 L566.4,220.1 L567.2,210.8 L568.1,204.0 L568.9,182.9 L569.8,190.1 L570.6,207.6 L571.4,235.4 L572.3,236.5 L573.1,209.7 L574.0,199.4 L574.8,200.1 L575.7,201.9 L576.5,200.1 L577.3,200.8 L578.2,194.4 L579.0,186.5 L579.9,181.2 L580.7,180.1 L581.5,188.3 L582.4,205.1 L583.2,215.8 L584.1,223.6 L584.9,218.6 L585.8,185.4 L586.6,158.3 L587.4,137.2 L588.3,129.7 L589.1,165.8 L590.0,147.6 L590.8,144.4 L591.6,138.0 L592.5,140.1 L593.3,102.3 L594.2,110.8 L595.0,107.6 L595.8,87.6 L596.7,106.5 L597.5,113.0 L598.4,117.6 L599.2,71.2 L600.1,91.9 L600.9,132.2 L601.7,202.6 L602.6,207.6 L603.4,206.5 L604.3,213.3 L605.1,210.1 L605.9,219.4 L606.8,197.6 L607.6,172.6 L608.5,154.4 L609.3,143.7 L610.2,141.2 L611.0,137.2 L611.8,152.6 L612.7,173.3 L613.5,157.2 L614.4,129.0 L615.2,143.7 L616.0,160.8 L616.9,188.6 L617.7,202.6 L618.6,205.4 L619.4,204.7 L620.3,209.0 L621.1,225.8 L621.9,216.5 L622.8,218.6 L623.6,220.1 L624.5,245.1 L625.3,291.8 L626.1,299.0 L627.0,298.3 L627.8,295.0 L628.7,298.3 L629.5,288.6 L630.4,283.3 L631.2,265.8 L632.0,250.8 L632.9,245.8 L633.7,221.5 L634.6,221.1 L635.4,209.7 L636.2,200.4 L637.1,197.9 L637.9,190.1 L638.8,180.8 L639.6,220.8 L640.4,172.2 L641.3,188.3 L642.1,158.3 L643.0,195.4 L643.8,207.2 L644.7,232.2 L645.5,234.3 L646.3,226.9 L647.2,242.2 L648.0,250.4 L648.9,252.9 L649.7,258.6 L650.5,259.3 L651.4,262.6 L652.2,261.5 L653.1,262.2 L653.9,254.7 L654.8,230.1 L655.6,193.3 L656.4,186.9 L657.3,215.8 L658.1,188.6 L659.0,195.8 L659.8,191.5 L660.6,227.2 L661.5,220.8 L662.3,226.9 L663.2,227.9 L664.0,236.8 L664.9,251.5 L665.7,260.1 L666.5,243.6 L667.4,252.9 L668.2,254.3 L669.1,247.6 L669.9,248.3 L670.7,256.5 L671.6,259.0 L672.4,258.6 L673.3,254.0 L674.1,244.3 L675.0,220.4 L675.8,181.9 L676.6,173.7 L677.5,136.2 L678.3,99.0 L679.2,169.7 L680.0,176.5" stroke="#8c564b" stroke-width="2" fill="none" opacity="0.8"/>
<!-- Forecast Difference -->
<path d="M80.0,420.0 L80.8,420.0 L81.7,420.0 L82.5,420.0 L83.4,420.0 L84.2,420.0 L85.0,420.0 L85.9,420.0 L86.7,420.0 L87.6,420.0 L88.4,420.0 L89.3,420.0 L90.1,420.0 L90.9,420.0 L91.8,420.0 L92.6,420.0 L93.5,420.0 L94.3,420.0 L95.1,420.0 L96.0,420.0 L96.8,420.0 L97.7,420.0 L98.5,420.0 L99.4,420.0 L100.2,420.0 L101.0,420.0 L101.9,420.0 L102.7,420.0 L103.6,420.0 L104.4,420.0 L105.2,420.0 L106.1,420.0 L106.9,420.0 L107.8,420.0 L108.6,420.0 L109.5,420.0 L110.3,420.0 L111.1,420.0 L112.0,420.0 L112.8,420.0 L113.7,420.0 L114.5,420.0 L115.3,420.0 L116.2,420.0 L117.0,420.0 L117.9,420.0 L118.7,420.0 L119.6,420.0 L120.4,420.0 L121.2,420.0 L122.1,420.0 L122.9,420.0 L123.8,420.0 L124.6,420.0 L125.4,420.0 L126.3,420.0 L127.1,420.0 L128.0,420.0 L128.8,420.0 L129.6,420.0 L130.5,420.0 L131.3,420.0 L132.2,420.0 L133.0,420.0 L133.9,420.0 L134.7,420.0 L135.5,420.0 L136.4,420.0 L137.2,420.0 L138.1,420.0 L138.9,420.0 L139.7,420.0 L140.6,420.0 L141.4,420.0 L142.3,420.0 L143.1,420.0 L144.0,420.0 L144.8,420.0 L145.6,420.0 L146.5,420.0 L147.3,420.0 L148.2,420.0 L149.0,420.0 L149.8,420.0 L150.7,420.0 L151.5,420.0 L152.4,420.0 L153.2,420.0 L154.1,420.0 L154.9,420.0 L155.7,420.0 L156.6,420.0 L157.4,420.0 L158.3,420.0 L159.1,420.0 L159.9,420.0 L160.8,420.0 L161.6,420.0 L162.5,420.0 L163.3,420.0 L164.2,420.0 L165.0,420.0 L165.8,420.0 L166.7,420.0 L167.5,420.0 L168.4,420.0 L169.2,420.0 L170.0,420.0 L170.9,420.0 L171.7,420.0 L172.6,420.0 L173.4,420.0 L174.2,420.0 L175.1,420.0 L175.9,420.0 L176.8,420.0 L177.6,420.0 L178.5,420.0 L179.3,420.0 L180.1,420.0 L181.0,420.0 L181.8,420.0 L182.7,420.0 L183.5,420.0 L184.3,420.0 L185.2,420.0 L186.0,420.0 L186.9,420.0 L187.7,420.0 L188.6,420.0 L189.4,420.0 L190.2,420.0 L191.1,420.0 L191.9,420.0 L192.8,420.0 L193.6,420.0 L194.4,420.0 L195.3,420.0 L196.1,420.0 L197.0,420.0 L197.8,420.0 L198.7,420.0 L199.5,420.0 L200.3,420.0 L201.2,420.0 L202.0,420.0 L202.9,420.0 L203.7,420.0 L204.5,420.0 L205.4,420.0 L206.2,420.0 L207.1,420.0 L207.9,420.0 L208.8,420.0 L209.6,420.0 L210.4,420.0 L211.3,420.0 L212.1,420.0 L213.0,420.0 L213.8,420.0 L214.6,420.0 L215.5,420.0 L216.3,420.0 L217.2,420.0 L218.0,420.0 L218.8,420.0 L219.7,420.0 L220.5,420.0 L221.4,420.0 L222.2,420.0 L223.1,420.0 L223.9,420.0 L224.7,420.0 L225.6,420.0 L226.4,420.0 L227.3,420.0 L228.1,420.0 L228.9,420.0 L229.8,420.0 L230.6,420.0 L231.5,420.0 L232.3,420.0 L233.2,420.0 L234.0,420.0 L234.8,420.0 L235.7,420.0 L236.5,420.0 L237.4,420.0 L238.2,420.0 L239.0,420.0 L239.9,420.0 L240.7,420.0 L241.6,420.0 L242.4,420.0 L243.3,420.0 L244.1,420.0 L244.9,420.0 L245.8,420.0 L246.6,420.0 L247.5,420.0 L248.3,420.0 L249.1,420.0 L250.0,420.0 L250.8,420.0 L251.7,420.0 L252.5,420.0 L253.4,420.0 L254.2,420.0 L255.0,420.0 L255.9,420.0 L256.7,420.0 L257.6,420.0 L258.4,420.0 L259.2,420.0 L260.1,420.0 L260.9,420.0 L261.8,420.0 L262.6,420.0 L263.5,420.0 L264.3,420.0 L265.1,420.0 L266.0,420.0 L266.8,420.0 L267.7,420.0 L268.5,420.0 L269.3,420.0 L270.2,420.0 L271.0,420.0 L271.9,420.0 L272.7,420.0 L273.5,420.0 L274.4,420.0 L275.2,420.0 L276.1,420.0 L276.9,420.0 L277.8,420.0 L278.6,420.0 L279.4,420.0 L280.3,420.0 L281.1,420.0 L282.0,420.0 L282.8,420.0 L283.6,420.0 L284.5,420.0 L285.3,420.0 L286.2,420.0 L287.0,420.0 L287.9,420.0 L288.7,420.0 L289.5,420.0 L290.4,420.0 L291.2,420.0 L292.1,420.0 L292.9,420.0 L293.7,420.0 L294.6,420.0 L295.4,420.0 L296.3,420.0 L297.1,420.0 L298.0,420.0 L298.8,420.0 L299.6,420.0 L300.5,420.0 L301.3,420.0 L302.2,420.0 L303.0,420.0 L303.8,420.0 L304.7,420.0 L305.5,420.0 L306.4,420.0 L307.2,420.0 L308.1,420.0 L308.9,420.0 L309.7,420.0 L310.6,420.0 L311.4,420.0 L312.3,420.0 L313.1,420.0 L313.9,420.0 L314.8,420.0 L315.6,420.0 L316.5,420.0 L317.3,420.0 L318.1,420.0 L319.0,420.0 L319.8,420.0 L320.7,420.0 L321.5,420.0 L322.4,420.0 L323.2,420.0 L324.0,420.0 L324.9,420.0 L325.7,420.0 L326.6,420.0 L327.4,420.0 L328.2,420.0 L329.1,420.0 L329.9,420.0 L330.8,420.0 L331.6,420.0 L332.5,420.0 L333.3,420.0 L334.1,420.0 L335.0,420.0 L335.8,420.0 L336.7,420.0 L337.5,420.0 L338.3,420.0 L339.2,420.0 L340.0,420.0 L340.9,420.0 L341.7,420.0 L342.6,420.0 L343.4,420.0 L344.2,420.0 L345.1,420.0 L345.9,420.0 L346.8,420.0 L347.6,420.0 L348.4,420.0 L349.3,420.0 L350.1,420.0 L351.0,420.0 L351.8,420.0 L352.7,420.0 L353.5,420.0 L354.3,420.0 L355.2,420.0 L356.0,420.0 L356.9,420.0 L357.7,420.0 L358.5,420.0 L359.4,420.0 L360.2,420.0 L361.1,420.0 L361.9,420.0 L362.7,420.0 L363.6,420.0 L364.4,420.0 L365.3,420.0 L366.1,420.0 L367.0,420.0 L367.8,420.0 L368.6,420.0 L369.5,420.0 L370.3,420.0 L371.2,420.0 L372.0,420.0 L372.8,420.0 L373.7,420.0 L374.5,420.0 L375.4,420.0 L376.2,420.0 L377.1,420.0 L377.9,420.0 L378.7,420.0 L379.6,420.0 L380.4,420.0 L381.3,420.0 L382.1,420.0 L382.9,420.0 L383.8,420.0 L384.6,420.0 L385.5,420.0 L386.3,420.0 L387.2,420.0 L388.0,420.0 L388.8,420.0 L389.7,420.0 L390.5,420.0 L391.4,420.0 L392.2,420.0 L393.0,420.0 L393.9,420.0 L394.7,420.0 L395.6,420.0 L396.4,420.0 L397.3,420.0 L398.1,420.0 L398.9,420.0 L399.8,420.0 L400.6,420.0 L401.5,420.0 L402.3,420.0 L403.1,420.0 L404.0,420.0 L404.8,420.0 L405.7,420.0 L406.5,420.0 L407.3,420.0 L408.2,420.0 L409.0,420.0 L409.9,420.0 L410.7,420.0 L411.6,420.0 L412.4,420.0 L413.2,420.0 L414.1,420.0 L414.9,420.0 L415.8,420.0 L416.6,420.0 L417.4,420.0 L418.3,420.0 L419.1,420.0 L420.0,420.0 L420.8,420.0 L421.7,420.0 L422.5,420.0 L423.3,420.0 L424.2,420.0 L425.0,420.0 L425.9,420.0 L426.7,420.0 L427.5,420.0 L428.4,420.0 L429.2,420.0 L430.1,420.0 L430.9,420.0 L431.8,420.0 L432.6,420.0 L433.4,420.0 L434.3,420.0 L435.1,420.0 L436.0,420.0 L436.8,420.0 L437.6,420.0 L438.5,420.0 L439.3,420.0 L440.2,420.0 L441.0,420.0 L441.9,420.0 L442.7,420.0 L443.5,420.0 L444.4,420.0 L445.2,420.0 L446.1,420.0 L446.9,420.0 L447.7,420.0 L448.6,420.0 L449.4,420.0 L450.3,420.0 L451.1,420.0 L451.9,420.0 L452.8,420.0 L453.6,420.0 L454.5,420.0 L455.3,420.0 L456.2,420.0 L457.0,420.0 L457.8,420.0 L458.7,420.0 L459.5,420.0 L460.4,420.0 L461.2,420.0 L462.0,420.0 L462.9,420.0 L463.7,420.0 L464.6,420.0 L465.4,420.0 L466.3,420.0 L467.1,420.0 L467.9,420.0 L468.8,420.0 L469.6,420.0 L470.5,420.0 L471.3,420.0 L472.1,420.0 L473.0,420.0 L473.8,420.0 L474.7,420.0 L475.5,420.0 L476.4,420.0 L477.2,420.0 L478.0,420.0 L478.9,420.0 L479.7,420.0 L480.6,420.0 L481.4,420.0 L482.2,420.0 L483.1,420.0 L483.9,420.0 L484.8,420.0 L485.6,420.0 L486.5,420.0 L487.3,420.0 L488.1,420.0 L489.0,420.0 L489.8,420.0 L490.7,420.0 L491.5,420.0 L492.3,420.0 L493.2,420.0 L494.0,420.0 L494.9,420.0 L495.7,420.0 L496.5,420.0 L497.4,420.0 L498.2,420.0 L499.1,420.0 L499.9,420.0 L500.8,420.0 L501.6,420.0 L502.4,420.0 L503.3,420.0 L504.1,420.0 L505.0,420.0 L505.8,420.0 L506.6,420.0 L507.5,420.0 L508.3,420.0 L509.2,420.0 L510.0,420.0 L510.9,420.0 L511.7,420.0 L512.5,420.0 L513.4,420.0 L514.2,420.0 L515.1,420.0 L515.9,420.0 L516.7,420.0 L517.6,420.0 L518.4,420.0 L519.3,420.0 L520.1,420.0 L521.0,420.0 L521.8,420.0 L522.6,420.0 L523.5,420.0 L524.3,420.0 L525.2,420.0 L526.0,420.0 L526.8,420.0 L527.7,420.0 L528.5,420.0 L529.4,420.0 L530.2,420.0 L531.1,420.0 L531.9,420.0 L532.7,420.0 L533.6,420.0 L534.4,420.0 L535.3,420.0 L536.1,420.0 L536.9,420.0 L537.8,420.0 L538.6,420.0 L539.5,420.0 L540.3,420.0 L541.2,420.0 L542.0,420.0 L542.8,420.0 L543.7,420.0 L544.5,420.0 L545.4,420.0 L546.2,420.0 L547.0,420.0 L547.9,420.0 L548.7,420.0 L549.6,420.0 L550.4,420.0 L551.2,420.0 L552.1,420.0 L552.9,420.0 L553.8,420.0 L554.6,420.0 L555.5,420.0 L556.3,420.0 L557.1,420.0 L558.0,420.0 L558.8,420.0 L559.7,420.0 L560.5,420.0 L561.3,420.0 L562.2,420.0 L563.0,420.0 L563.9,420.0 L564.7,420.0 L565.6,420.0 L566.4,420.0 L567.2,420.0 L568.1,420.0 L568.9,420.0 L569.8,420.0 L570.6,420.0 L571.4,420.0 L572.3,420.0 L573.1,420.0 L574.0,420.0 L574.8,420.0 L575.7,420.0 L576.5,420.0 L577.3,420.0 L578.2,420.0 L579.0,420.0 L579.9,420.0 L580.7,420.0 L581.5,420.0 L582.4,420.0 L583.2,420.0 L584.1,420.0 L584.9,420.0 L585.8,420.0 L586.6,420.0 L587.4,420.0 L588.3,420.0 L589.1,420.0 L590.0,420.0 L590.8,420.0 L591.6,420.0 L592.5,420.0 L593.3,420.0 L594.2,420.0 L595.0,420.0 L595.8,420.0 L596.7,420.0 L597.5,420.0 L598.4,420.0 L599.2,420.0 L600.1,420.0 L600.9,420.0 L601.7,420.0 L602.6,420.0 L603.4,420.0 L604.3,420.0 L605.1,420.0 L605.9,420.0 L606.8,420.0 L607.6,420.0 L608.5,420.0 L609.3,420.0 L610.2,420.0 L611.0,420.0 L611.8,420.0 L612.7,420.0 L613.5,420.0 L614.4,420.0 L615.2,420.0 L616.0,420.0 L616.9,420.0 L617.7,420.0 L618.6,420.0 L619.4,420.0 L620.3,420.0 L621.1,420.0 L621.9,420.0 L622.8,420.0 L623.6,420.0 L624.5,420.0 L625.3,420.0 L626.1,420.0 L627.0,420.0 L627.8,420.0 L628.7,420.0 L629.5,420.0 L630.4,420.0 L631.2,420.0 L632.0,420.0 L632.9,420.0 L633.7,420.0 L634.6,420.0 L635.4,420.0 L636.2,420.0 L637.1,420.0 L637.9,420.0 L638.8,420.0 L639.6,420.0 L640.4,420.0 L641.3,420.0 L642.1,420.0 L643.0,420.0 L643.8,420.0 L644.7,420.0 L645.5,420.0 L646.3,420.0 L647.2,420.0 L648.0,420.0 L648.9,420.0 L649.7,420.0 L650.5,420.0 L651.4,420.0 L652.2,420.0 L653.1,420.0 L653.9,420.0 L654.8,420.0 L655.6,420.0 L656.4,420.0 L657.3,420.0 L658.1,420.0 L659.0,420.0 L659.8,420.0 L660.6,420.0 L661.5,420.0 L662.3,420.0 L663.2,420.0 L664.0,420.0 L664.9,420.0 L665.7,420.0 L666.5,420.0 L667.4,420.0 L668.2,420.0 L669.1,420.0 L669.9,420.0 L670.7,420.0 L671.6,420.0 L672.4,420.0 L673.3,420.0 L674.1,420.0 L675.0,420.0 L675.8,420.0 L676.6,420.0 L677.5,420.0 L678.3,420.0 L679.2,420.0 L680.0,420.0" stroke="#e377c2" stroke-width="2" fill="none" opacity="0.8"/>

<!-- Legend -->
<line x1="690" y1="70" x2="705" y2="70" stroke="#1f77b4" stroke-width="3"/>
<text x="710" y="74" class="legend">Wind Generation</text>
<line x1="690" y1="88" x2="705" y2="88" stroke="#ff7f0e" stroke-width="3"/>
<text x="710" y="92" class="legend">Hydro Generation</text>
<line x1="690" y1="106" x2="705" y2="106" stroke="#2ca02c" stroke-width="3"/>
<text x="710" y="110" class="legend">Thermal Generation</text>
<line x1="690" y1="124" x2="705" y2="124" stroke="#d62728" stroke-width="3"/>
<text x="710" y="128" class="legend">Solar Generation</text>
<line x1="690" y1="142" x2="705" y2="142" stroke="#9467bd" stroke-width="3"/>
<text x="710" y="146" class="legend">Forecast</text>
<line x1="690" y1="160" x2="705" y2="160" stroke="#8c564b" stroke-width="3"/>
<text x="710" y="164" class="legend">Total Generation</text>
<line x1="690" y1="178" x2="705" y2="178" stroke="#e377c2" stroke-width="3"/>
<text x="710" y="182" class="legend">Forecast Difference</text>

<!-- Date range -->
<text x="80" y="495" class="legend">Range: 08/31 - 09/30/2025 (714 records)</text>
</svg>