<?xml version="1.0" encoding="UTF-8"?>
<svg width="800" height="500" xmlns="http://www.w3.org/2000/svg">
<style>
.axis-line { stroke: #333; stroke-width: 1; }
.grid-line { stroke: #ddd; stroke-width: 0.5; }
.title { font: 16px Arial; text-anchor: middle; fill: #333; }
.axis-label { font: 12px Arial; text-anchor: middle; fill: #666; }
.legend { font: 10px Arial; fill: #333; }
</style>

<!-- Title -->
<text x="400.0" y="25" class="title">Northwestern Energy Generation Data - Past 30 Days</text>

<!-- Plot area background -->
<rect x="80" y="50" width="600" height="370" fill="white" stroke="#ddd"/>

<!-- Y-axis -->
<line x1="80" y1="50" x2="80" y2="420" class="axis-line"/>
<text x="30" y="235.0" class="axis-label" transform="rotate(-90, 30, 235.0)">Generation (MW)</text>

<!-- X-axis -->
<line x1="80" y1="420" x2="680" y2="420" class="axis-line"/>
<text x="380.0" y="480" class="axis-label">Time</text>
<line x1="80" y1="420.0" x2="680" y2="420.0" class="grid-line"/>
<text x="70" y="425.0" class="legend" text-anchor="end">0</text>
<line x1="80" y1="327.5" x2="680" y2="327.5" class="grid-line"/>
<text x="70" y="332.5" class="legend" text-anchor="end">259</text>
<line x1="80" y1="235.0" x2="680" y2="235.0" class="grid-line"/>
<text x="70" y="240.0" class="legend" text-anchor="end">518</text>
<line x1="80" y1="142.5" x2="680" y2="142.5" class="grid-line"/>
<text x="70" y="147.5" class="legend" text-anchor="end">777</text>
<line x1="80" y1="50.0" x2="680" y2="50.0" class="grid-line"/>
<text x="70" y="55.0" class="legend" text-anchor="end">1036</text>
<!-- Wind Generation -->
<path d="M80.0,402.5 L80.8,399.3 L81.7,409.3 L82.5,407.9 L83.4,400.7 L84.2,402.1 L85.0,414.6 L85.9,416.8 L86.7,413.6 L87.6,410.7 L88.4,410.4 L89.3,403.9 L90.1,401.8 L90.9,395.4 L91.8,400.7 L92.6,401.1 L93.5,408.2 L94.3,412.1 L95.1,413.2 L96.0,411.1 L96.8,403.2 L97.7,397.5 L98.5,400.4 L99.4,405.4 L100.2,405.4 L101.0,405.7 L101.9,412.9 L102.7,412.5 L103.6,412.1 L104.4,408.9 L105.2,415.0 L106.1,417.9 L106.9,419.3 L107.8,420.0 L108.6,419.6 L109.5,420.0 L110.3,420.0 L111.1,419.3 L112.0,418.2 L112.8,417.5 L113.7,418.2 L114.5,420.0 L115.3,418.9 L116.2,414.6 L117.0,412.9 L117.9,409.3 L118.7,413.2 L119.6,401.8 L120.4,388.2 L121.2,395.0 L122.1,391.4 L122.9,356.8 L123.8,358.2 L124.6,353.2 L125.4,359.3 L126.3,383.6 L127.1,394.7 L128.0,402.9 L128.8,407.9 L129.6,411.4 L130.5,417.9 L131.3,411.1 L132.2,414.6 L133.0,404.3 L133.9,410.7 L134.7,415.0 L135.5,411.8 L136.4,407.1 L137.2,405.7 L138.1,401.1 L138.9,401.1 L139.7,387.2 L140.6,392.2 L141.4,385.7 L142.3,382.5 L143.1,378.6 L144.0,372.9 L144.8,381.1 L145.6,379.7 L146.5,387.5 L147.3,401.1 L148.2,404.6 L149.0,415.4 L149.8,417.1 L150.7,419.3 L151.5,420.0 L152.4,420.0 L153.2,420.0 L154.1,420.0 L154.9,418.9 L155.7,419.3 L156.6,418.2 L157.4,413.6 L158.3,399.6 L159.1,387.9 L159.9,365.4 L160.8,360.4 L161.6,375.7 L162.5,367.2 L163.3,366.1 L164.2,396.1 L165.0,417.5 L165.8,418.2 L166.7,405.4 L167.5,403.9 L168.4,398.9 L169.2,377.5 L170.0,371.1 L170.9,353.6 L171.7,319.7 L172.6,312.5 L173.4,304.3 L174.2,302.9 L175.1,299.0 L175.9,307.2 L176.8,311.1 L177.6,314.0 L178.5,317.2 L179.3,307.5 L180.1,315.4 L181.0,310.4 L181.8,316.1 L182.7,336.8 L183.5,363.9 L184.3,376.4 L185.2,387.2 L186.0,397.9 L186.9,407.5 L187.7,406.4 L188.6,405.7 L189.4,403.2 L190.2,402.1 L191.1,403.9 L191.9,411.4 L192.8,413.6 L193.6,417.9 L194.4,420.0 L195.3,420.0 L196.1,420.0 L197.0,418.2 L197.8,417.1 L198.7,412.9 L199.5,416.4 L200.3,417.9 L201.2,418.9 L202.0,415.7 L202.9,410.7 L203.7,396.4 L204.5,373.2 L205.4,367.9 L206.2,373.6 L207.1,391.1 L207.9,401.4 L208.8,417.5 L209.6,420.0 L210.4,420.0 L211.3,420.0 L212.1,420.0 L213.0,419.3 L213.8,419.6 L214.6,419.3 L215.5,418.6 L216.3,418.9 L217.2,418.2 L218.0,417.1 L218.8,413.9 L219.7,413.6 L220.5,410.0 L221.4,406.8 L222.2,399.3 L223.1,380.0 L223.9,358.9 L224.7,359.3 L225.6,373.2 L226.4,396.8 L227.3,415.0 L228.1,420.0 L228.9,420.0 L229.8,418.9 L230.6,417.5 L231.5,411.1 L232.3,399.3 L233.2,377.5 L234.0,368.6 L234.8,350.7 L235.7,346.5 L236.5,317.2 L237.4,335.7 L238.2,326.1 L239.0,341.1 L239.9,350.7 L240.7,342.5 L241.6,350.7 L242.4,392.5 L243.3,410.0 L244.1,411.4 L244.9,402.1 L245.8,402.1 L246.6,368.2 L247.5,317.9 L248.3,353.2 L249.1,307.9 L250.0,317.9 L250.8,351.1 L251.7,337.2 L252.5,315.7 L253.4,320.0 L254.2,354.3 L255.0,365.0 L255.9,380.7 L256.7,385.0 L257.6,389.7 L258.4,373.9 L259.2,380.0 L260.1,368.6 L260.9,352.9 L261.8,363.6 L262.6,381.8 L263.5,400.7 L264.3,405.7 L265.1,403.2 L266.0,408.6 L266.8,416.4 L267.7,415.7 L268.5,418.9 L269.3,419.6 L270.2,419.6 L271.0,420.0 L271.9,420.0 L272.7,419.6 L273.5,418.9 L274.4,418.9 L275.2,420.0 L276.1,420.0 L276.9,418.6 L277.8,410.4 L278.6,401.1 L279.4,396.4 L280.3,397.9 L281.1,386.4 L282.0,384.3 L282.8,375.7 L283.6,375.4 L284.5,347.2 L285.3,376.8 L286.2,350.0 L287.0,366.8 L287.9,401.4 L288.7,408.9 L289.5,409.3 L290.4,413.9 L291.2,403.2 L292.1,400.0 L292.9,408.6 L293.7,410.4 L294.6,414.6 L295.4,417.5 L296.3,419.6 L297.1,419.3 L298.0,420.0 L298.8,420.0 L299.6,419.3 L300.5,419.6 L301.3,418.2 L302.2,416.1 L303.0,418.9 L303.8,402.1 L304.7,400.4 L305.5,398.2 L306.4,406.1 L307.2,404.3 L308.1,399.3 L308.9,397.5 L309.7,412.1 L310.6,416.4 L311.4,407.1 L312.3,409.3 L313.1,415.7 L313.9,413.2 L314.8,364.7 L315.6,390.4 L316.5,405.0 L317.3,383.2 L318.1,411.4 L319.0,415.0 L319.8,416.8 L320.7,416.8 L321.5,412.1 L322.4,406.1 L323.2,402.9 L324.0,407.5 L324.9,413.9 L325.7,417.5 L326.6,413.6 L327.4,415.0 L328.2,412.9 L329.1,417.9 L329.9,417.9 L330.8,419.6 L331.6,420.0 L332.5,419.3 L333.3,418.9 L334.1,410.7 L335.0,407.5 L335.8,418.6 L336.7,419.3 L337.5,419.3 L338.3,420.0 L339.2,418.6 L340.0,417.5 L340.9,401.1 L341.7,390.7 L342.6,344.7 L343.4,385.7 L344.2,391.4 L345.1,396.8 L345.9,409.3 L346.8,407.5 L347.6,402.9 L348.4,397.5 L349.3,404.6 L350.1,415.4 L351.0,418.6 L351.8,418.2 L352.7,418.6 L353.5,414.3 L354.3,408.6 L355.2,402.5 L356.0,413.9 L356.9,413.9 L357.7,412.5 L358.5,412.9 L359.4,415.7 L360.2,416.8 L361.1,418.6 L361.9,418.9 L362.7,417.1 L363.6,413.9 L364.4,414.6 L365.3,410.7 L366.1,416.1 L367.0,414.6 L367.8,417.5 L368.6,413.2 L369.5,412.9 L370.3,412.5 L371.2,412.1 L372.0,407.9 L372.8,398.6 L373.7,401.4 L374.5,404.6 L375.4,398.9 L376.2,403.2 L377.1,398.2 L377.9,378.9 L378.7,363.9 L379.6,367.2 L380.4,345.4 L381.3,352.9 L382.1,361.8 L382.9,375.7 L383.8,394.7 L384.6,405.4 L385.5,416.1 L386.3,412.5 L387.2,391.1 L388.0,283.3 L388.8,307.5 L389.7,310.4 L390.5,343.6 L391.4,337.9 L392.2,326.8 L393.0,336.1 L393.9,308.3 L394.7,314.7 L395.6,339.7 L396.4,363.6 L397.3,366.4 L398.1,364.3 L398.9,355.4 L399.8,358.9 L400.6,370.4 L401.5,363.9 L402.3,377.9 L403.1,390.7 L404.0,368.2 L404.8,373.6 L405.7,370.4 L406.5,368.6 L407.3,370.4 L408.2,355.0 L409.0,353.6 L409.9,359.7 L410.7,345.7 L411.6,339.3 L412.4,337.9 L413.2,331.5 L414.1,378.9 L414.9,392.9 L415.8,392.5 L416.6,380.0 L417.4,390.4 L418.3,397.5 L419.1,389.7 L420.0,385.0 L420.8,398.6 L421.7,383.9 L422.5,379.7 L423.3,392.2 L424.2,402.1 L425.0,397.2 L425.9,399.6 L426.7,391.1 L427.5,407.9 L428.4,410.7 L429.2,415.7 L430.1,406.4 L430.9,403.2 L431.8,395.0 L432.6,407.1 L433.4,401.1 L434.3,398.6 L435.1,396.8 L436.0,398.6 L436.8,409.3 L437.6,416.4 L438.5,419.3 L439.3,420.0 L440.2,419.6 L441.0,420.0 L441.9,419.6 L442.7,420.0 L443.5,420.0 L444.4,420.0 L445.2,418.2 L446.1,402.1 L446.9,400.0 L447.7,405.7 L448.6,405.7 L449.4,408.2 L450.3,412.1 L451.1,418.9 L451.9,419.6 L452.8,419.3 L453.6,418.6 L454.5,416.8 L455.3,417.9 L456.2,417.1 L457.0,415.4 L457.8,416.8 L458.7,417.9 L459.5,417.5 L460.4,418.2 L461.2,414.3 L462.0,414.3 L462.9,411.8 L463.7,406.4 L464.6,399.6 L465.4,394.7 L466.3,365.4 L467.1,350.4 L467.9,373.6 L468.8,406.4 L469.6,412.5 L470.5,417.1 L471.3,420.0 L472.1,420.0 L473.0,419.3 L473.8,419.3 L474.7,417.1 L475.5,417.1 L476.4,418.2 L477.2,416.8 L478.0,420.0 L478.9,417.9 L479.7,416.8 L480.6,416.1 L481.4,417.1 L482.2,417.5 L483.1,418.6 L483.9,415.4 L484.8,410.4 L485.6,406.8 L486.5,393.9 L487.3,387.9 L488.1,392.2 L489.0,400.0 L489.8,406.4 L490.7,414.6 L491.5,417.9 L492.3,419.6 L493.2,419.3 L494.0,418.2 L494.9,416.8 L495.7,413.2 L496.5,411.1 L497.4,409.3 L498.2,416.1 L499.1,415.7 L499.9,407.5 L500.8,390.7 L501.6,373.2 L502.4,376.8 L503.3,377.5 L504.1,360.4 L505.0,353.6 L505.8,371.4 L506.6,383.2 L507.5,388.9 L508.3,396.4 L509.2,375.0 L510.0,390.4 L510.9,381.4 L511.7,371.8 L512.5,372.2 L513.4,345.0 L514.2,360.0 L515.1,360.4 L515.9,361.8 L516.7,367.9 L517.6,374.7 L518.4,385.4 L519.3,375.7 L520.1,378.9 L521.0,382.2 L521.8,387.5 L522.6,396.8 L523.5,400.0 L524.3,407.5 L525.2,409.6 L526.0,349.7 L526.8,287.9 L527.7,284.7 L528.5,292.9 L529.4,332.9 L530.2,341.8 L531.1,332.2 L531.9,321.5 L532.7,327.9 L533.6,335.7 L534.4,327.5 L535.3,339.0 L536.1,313.3 L536.9,341.5 L537.8,348.6 L538.6,342.5 L539.5,349.0 L540.3,366.4 L541.2,356.8 L542.0,346.1 L542.8,331.8 L543.7,344.7 L544.5,349.7 L545.4,365.7 L546.2,389.3 L547.0,398.9 L547.9,392.2 L548.7,404.6 L549.6,410.0 L550.4,411.1 L551.2,410.4 L552.1,412.9 L552.9,412.5 L553.8,404.3 L554.6,400.7 L555.5,406.4 L556.3,398.9 L557.1,390.0 L558.0,399.3 L558.8,404.6 L559.7,395.4 L560.5,398.9 L561.3,407.5 L562.2,411.8 L563.0,415.0 L563.9,417.1 L564.7,417.1 L565.6,415.4 L566.4,411.8 L567.2,403.6 L568.1,402.1 L568.9,402.5 L569.8,406.8 L570.6,401.1 L571.4,397.9 L572.3,395.0 L573.1,390.4 L574.0,382.9 L574.8,362.9 L575.7,351.5 L576.5,354.3 L577.3,336.1 L578.2,327.9 L579.0,318.2 L580.7,341.8 L581.5,345.0 L582.4,334.0 L583.2,348.6 L584.1,356.8 L584.9,356.5 L585.8,345.7 L586.6,349.3 L587.4,370.4 L588.3,394.7 L589.1,405.4 L590.0,407.1 L590.8,400.4 L591.6,386.1 L592.5,374.7 L593.3,368.2 L594.2,345.0 L595.0,353.2 L595.8,372.2 L596.7,402.1 L597.5,410.0 L598.4,414.6 L599.2,416.4 L600.1,417.5 L600.9,416.8 L601.7,412.9 L602.6,412.9 L603.4,406.4 L604.3,399.3 L605.1,394.7 L605.9,385.7 L606.8,380.0 L607.6,380.0 L608.5,391.1 L609.3,395.4 L610.2,384.7 L611.0,350.7 L611.8,323.6 L612.7,303.3 L613.5,295.8 L614.4,330.7 L615.2,313.3 L616.0,309.7 L616.9,304.7 L617.7,307.5 L618.6,301.5 L619.4,323.2 L620.3,319.7 L621.1,297.2 L621.9,313.6 L622.8,320.0 L623.6,325.7 L624.5,277.5 L625.3,294.7 L626.1,316.8 L627.0,368.6 L627.8,370.4 L628.7,369.7 L629.5,376.8 L630.4,366.8 L631.2,373.6 L632.0,351.5 L632.9,324.3 L633.7,306.1 L634.6,295.8 L635.4,294.7 L636.2,291.1 L637.1,306.5 L637.9,331.5 L638.8,342.5 L639.6,331.8 L640.4,346.5 L641.3,361.1 L642.1,388.6 L643.0,403.2 L643.8,406.8 L644.7,406.8 L645.5,410.4 L646.3,410.4 L647.2,401.4 L648.0,389.7 L648.9,392.9 L649.7,399.6 L650.5,412.9 L651.4,417.5 L652.2,414.6 L653.1,411.4 L653.9,413.2 L654.8,404.3 L655.6,398.6 L656.4,382.2 L657.3,366.4 L658.1,365.4 L659.0,370.0 L659.8,386.1 L660.6,376.1 L661.5,371.8 L662.3,368.2 L663.2,373.2 L664.0,373.9 L664.9,381.4 L665.7,375.7 L666.5,355.0 L667.4,350.7 L668.2,351.1 L669.1,361.1 L669.9,384.7 L670.7,387.2 L671.6,380.0 L672.4,395.4 L673.3,405.4 L674.1,407.1 L675.0,412.5 L675.8,413.6 L676.6,417.9 L677.5,417.9 L678.3,418.6 L679.2,419.3 L680.0,419.6" stroke="#1f77b4" stroke-width="2" fill="none" opacity="0.8"/>
<!-- Hydro Generation -->
<path d="M80.0,344.7 L80.8,344.7 L81.7,344.3 L82.5,344.3 L83.4,341.8 L84.2,341.8 L85.0,341.5 L85.9,341.8 L86.7,341.8 L87.6,341.8 L88.4,341.1 L89.3,340.7 L90.1,340.7 L90.9,340.4 L91.8,341.1 L92.6,341.5 L93.5,342.9 L94.3,342.5 L95.1,342.9 L96.0,342.9 L96.8,342.5 L97.7,342.5 L98.5,342.5 L99.4,343.2 L100.2,342.5 L101.0,342.5 L101.9,342.9 L102.7,343.2 L103.6,343.2 L104.4,342.5 L105.2,342.5 L106.1,342.5 L106.9,342.2 L107.8,342.5 L108.6,342.2 L109.5,341.8 L110.3,341.8 L111.1,341.8 L112.0,341.8 L112.8,341.8 L113.7,344.0 L114.5,344.3 L115.3,344.0 L116.2,344.0 L117.0,344.0 L117.9,344.0 L118.7,344.0 L119.6,344.0 L120.4,343.6 L121.2,343.6 L122.1,343.6 L122.9,343.6 L123.8,344.0 L124.6,342.9 L125.4,342.5 L126.3,342.9 L127.1,342.5 L128.0,341.1 L128.8,341.1 L129.6,338.6 L130.5,339.7 L131.3,338.6 L132.2,338.2 L133.0,337.9 L133.9,337.9 L134.7,338.6 L135.5,339.0 L136.4,339.0 L137.2,339.7 L138.1,340.0 L138.9,340.0 L139.7,340.4 L140.6,341.1 L141.4,341.1 L142.3,342.5 L143.1,342.5 L144.0,342.5 L144.8,344.0 L145.6,343.6 L146.5,343.2 L147.3,344.0 L148.2,343.6 L149.0,343.6 L149.8,343.6 L150.7,343.6 L151.5,344.0 L152.4,344.0 L153.2,344.3 L154.1,344.3 L154.9,345.0 L155.7,344.7 L156.6,344.3 L157.4,344.7 L158.3,344.0 L159.1,349.0 L159.9,349.3 L160.8,344.0 L161.6,342.9 L162.5,343.6 L163.3,344.0 L164.2,343.6 L165.0,343.6 L165.8,343.6 L166.7,343.6 L167.5,342.9 L168.4,342.9 L169.2,342.5 L170.0,341.8 L170.9,342.2 L171.7,342.2 L172.6,342.5 L173.4,342.9 L174.2,343.2 L175.1,342.9 L175.9,342.9 L176.8,342.9 L177.6,344.3 L178.5,344.3 L179.3,344.3 L180.1,344.7 L181.0,344.7 L181.8,344.3 L182.7,342.2 L183.5,345.4 L184.3,345.0 L185.2,346.5 L186.0,347.2 L186.9,347.2 L187.7,347.2 L188.6,347.2 L189.4,346.8 L190.2,345.0 L191.1,345.0 L191.9,344.7 L192.8,344.7 L193.6,344.3 L194.4,344.3 L195.3,343.6 L196.1,343.2 L197.0,342.2 L197.8,341.8 L198.7,342.2 L199.5,341.8 L200.3,342.9 L201.2,342.5 L202.0,341.8 L202.9,342.5 L203.7,342.5 L204.5,342.2 L205.4,341.8 L206.2,342.9 L207.1,342.9 L207.9,342.9 L208.8,343.2 L209.6,343.2 L210.4,343.6 L211.3,344.3 L212.1,344.3 L213.0,344.3 L213.8,345.0 L214.6,345.4 L215.5,345.0 L216.3,345.0 L217.2,346.1 L218.0,346.5 L218.8,346.1 L219.7,346.5 L220.5,346.5 L221.4,345.7 L222.2,345.4 L223.1,345.7 L223.9,346.1 L224.7,345.4 L225.6,345.0 L226.4,344.3 L227.3,344.3 L228.1,344.3 L228.9,344.7 L229.8,344.3 L230.6,343.2 L231.5,343.2 L232.3,343.2 L233.2,343.2 L234.0,344.3 L234.8,344.3 L235.7,344.0 L236.5,343.2 L237.4,343.6 L238.2,342.2 L239.0,343.2 L239.9,342.5 L240.7,342.5 L241.6,341.8 L242.4,341.8 L243.3,342.2 L244.1,342.5 L244.9,343.2 L245.8,343.6 L246.6,344.0 L247.5,343.6 L248.3,346.8 L249.1,343.2 L250.0,343.2 L250.8,342.9 L251.7,343.2 L252.5,342.5 L253.4,342.5 L254.2,342.5 L255.0,342.9 L255.9,343.6 L256.7,343.2 L257.6,343.6 L258.4,343.2 L259.2,342.9 L260.1,344.0 L260.9,343.2 L261.8,343.2 L262.6,343.6 L263.5,342.9 L264.3,342.5 L265.1,342.5 L266.0,342.5 L266.8,342.9 L267.7,342.5 L268.5,342.9 L269.3,343.6 L270.2,343.6 L271.0,343.6 L271.9,344.0 L272.7,343.2 L273.5,343.2 L274.4,344.0 L275.2,344.0 L276.1,343.6 L276.9,343.2 L277.8,343.2 L278.6,342.9 L279.4,343.6 L280.3,343.2 L281.1,342.5 L282.0,342.2 L282.8,342.2 L283.6,343.2 L284.5,342.9 L285.3,343.2 L286.2,344.0 L287.0,344.7 L287.9,344.7 L288.7,344.7 L289.5,345.0 L290.4,344.7 L291.2,344.7 L292.1,344.7 L292.9,344.3 L293.7,344.0 L294.6,344.0 L295.4,344.0 L296.3,344.0 L297.1,345.7 L298.0,345.7 L298.8,345.0 L299.6,345.4 L300.5,346.1 L301.3,346.5 L302.2,345.7 L303.0,345.7 L303.8,346.1 L304.7,346.5 L305.5,346.1 L306.4,346.8 L307.2,346.8 L308.1,347.5 L308.9,347.2 L309.7,347.2 L310.6,347.2 L311.4,346.8 L312.3,347.5 L313.1,347.2 L313.9,346.8 L314.8,347.5 L315.6,346.8 L316.5,346.1 L317.3,345.7 L318.1,345.7 L319.0,346.5 L319.8,346.1 L320.7,346.5 L321.5,345.4 L322.4,346.1 L323.2,345.4 L324.0,345.7 L324.9,345.7 L325.7,346.5 L326.6,346.5 L327.4,346.5 L328.2,346.1 L329.1,346.5 L329.9,346.5 L330.8,346.5 L331.6,346.8 L332.5,346.5 L333.3,346.8 L334.1,346.8 L335.0,346.8 L335.8,346.5 L336.7,346.5 L337.5,346.5 L338.3,346.1 L339.2,346.5 L340.0,346.5 L340.9,346.1 L341.7,346.1 L342.6,345.7 L343.4,346.1 L344.2,345.7 L345.1,346.1 L345.9,347.5 L346.8,347.5 L347.6,347.5 L348.4,347.5 L349.3,347.5 L350.1,347.5 L351.0,347.5 L351.8,347.5 L352.7,347.5 L353.5,347.2 L354.3,347.2 L355.2,348.2 L356.0,348.2 L356.9,347.5 L357.7,347.9 L358.5,347.9 L359.4,348.2 L360.2,348.2 L361.1,347.5 L361.9,347.5 L362.7,346.8 L363.6,346.8 L364.4,346.5 L365.3,346.1 L366.1,346.1 L367.0,345.0 L367.8,345.0 L368.6,343.6 L369.5,343.6 L370.3,343.2 L371.2,343.2 L372.0,343.6 L372.8,343.6 L373.7,342.9 L374.5,342.9 L375.4,342.2 L376.2,341.8 L377.1,342.2 L377.9,341.8 L378.7,341.8 L379.6,342.2 L380.4,342.5 L381.3,345.0 L382.1,345.0 L382.9,344.7 L383.8,344.3 L384.6,344.0 L385.5,344.3 L386.3,344.3 L387.2,345.0 L388.0,344.3 L388.8,344.3 L389.7,344.3 L390.5,342.2 L391.4,342.2 L392.2,342.2 L393.0,342.2 L393.9,341.8 L394.7,342.2 L395.6,350.4 L396.4,350.7 L397.3,349.3 L398.1,349.7 L398.9,349.7 L399.8,349.7 L400.6,350.7 L401.5,350.7 L402.3,351.1 L403.1,351.1 L404.0,350.0 L404.8,349.7 L405.7,349.3 L406.5,349.3 L407.3,348.6 L408.2,349.3 L409.0,349.3 L409.9,348.2 L410.7,349.0 L411.6,347.9 L412.4,348.2 L413.2,348.2 L414.1,348.6 L414.9,349.0 L415.8,348.6 L416.6,348.6 L417.4,349.7 L418.3,351.5 L419.1,350.7 L420.0,351.1 L420.8,351.8 L421.7,353.6 L422.5,353.6 L423.3,353.6 L424.2,352.9 L425.0,352.9 L425.9,353.2 L426.7,354.0 L427.5,354.0 L428.4,353.6 L429.2,354.3 L430.1,353.6 L430.9,353.2 L431.8,352.9 L432.6,351.8 L433.4,351.5 L434.3,352.2 L435.1,351.1 L436.0,352.2 L436.8,352.2 L437.6,352.2 L438.5,351.1 L439.3,351.5 L440.2,351.8 L441.0,351.1 L441.9,351.5 L442.7,351.1 L443.5,351.1 L444.4,351.1 L445.2,351.1 L446.1,351.1 L446.9,351.1 L447.7,351.5 L448.6,351.1 L449.4,351.5 L450.3,351.5 L451.1,351.5 L451.9,351.1 L452.8,351.8 L453.6,352.2 L454.5,352.9 L455.3,352.5 L456.2,354.0 L457.0,354.0 L457.8,353.6 L458.7,354.0 L459.5,354.3 L460.4,355.4 L461.2,355.4 L462.0,356.1 L462.9,356.5 L463.7,356.5 L464.6,356.5 L465.4,356.8 L466.3,357.2 L467.1,357.2 L467.9,357.2 L468.8,357.2 L469.6,356.8 L470.5,357.2 L471.3,357.2 L472.1,357.2 L473.0,357.2 L473.8,357.2 L474.7,356.5 L475.5,356.8 L476.4,356.8 L477.2,356.8 L478.0,355.7 L478.9,355.4 L479.7,355.7 L480.6,355.7 L481.4,355.7 L482.2,354.7 L483.1,355.0 L483.9,355.0 L484.8,354.3 L485.6,354.7 L486.5,355.0 L487.3,354.7 L488.1,354.3 L489.0,354.3 L489.8,354.7 L490.7,354.3 L491.5,354.0 L492.3,354.0 L493.2,354.0 L494.0,354.3 L494.9,354.0 L495.7,354.3 L496.5,355.4 L497.4,355.0 L498.2,355.0 L499.1,355.4 L499.9,355.7 L500.8,355.4 L501.6,355.4 L502.4,355.7 L503.3,355.7 L504.1,356.5 L505.0,357.2 L505.8,357.5 L506.6,357.9 L507.5,358.6 L508.3,358.2 L509.2,358.6 L510.0,358.6 L510.9,358.9 L511.7,358.9 L512.5,358.9 L513.4,358.9 L514.2,358.9 L515.1,358.6 L515.9,358.9 L516.7,359.3 L517.6,359.3 L518.4,358.9 L519.3,359.3 L520.1,358.6 L521.0,358.6 L521.8,358.6 L522.6,357.9 L523.5,357.5 L524.3,357.2 L525.2,356.8 L526.0,357.5 L526.8,357.5 L527.7,357.5 L528.5,357.5 L529.4,357.5 L530.2,357.9 L531.1,357.9 L531.9,358.2 L532.7,358.2 L533.6,358.9 L534.4,358.9 L535.3,358.9 L536.1,359.3 L536.9,360.0 L537.8,360.0 L538.6,360.0 L539.5,359.3 L540.3,359.7 L541.2,359.3 L542.0,360.0 L542.8,360.0 L543.7,359.7 L544.5,360.0 L545.4,359.7 L546.2,359.3 L547.0,359.3 L547.9,358.6 L548.7,357.2 L549.6,356.8 L550.4,357.2 L551.2,358.9 L552.1,358.9 L552.9,358.9 L553.8,358.6 L554.6,358.9 L555.5,358.9 L556.3,358.9 L557.1,358.9 L558.0,358.9 L558.8,358.6 L559.7,358.6 L560.5,358.6 L561.3,358.6 L562.2,358.9 L563.0,358.9 L563.9,358.6 L564.7,358.6 L565.6,358.2 L566.4,357.9 L567.2,358.2 L568.1,358.2 L568.9,359.7 L569.8,359.7 L570.6,360.0 L571.4,359.7 L572.3,359.7 L573.1,359.7 L574.0,359.7 L574.8,359.3 L575.7,359.7 L576.5,359.3 L577.3,360.0 L578.2,359.7 L579.0,359.7 L580.7,360.0 L581.5,359.7 L582.4,359.3 L583.2,360.0 L584.1,360.0 L584.9,360.0 L585.8,360.0 L586.6,360.0 L587.4,360.4 L588.3,358.9 L589.1,358.9 L590.0,357.9 L590.8,357.9 L591.6,359.7 L592.5,359.7 L593.3,359.7 L594.2,359.7 L595.0,359.7 L595.8,359.7 L596.7,359.7 L597.5,359.7 L598.4,360.0 L599.2,360.0 L600.1,359.7 L600.9,360.0 L601.7,360.0 L602.6,359.7 L603.4,359.3 L604.3,360.0 L605.1,359.3 L605.9,359.7 L606.8,359.7 L607.6,359.7 L608.5,358.9 L609.3,357.9 L610.2,357.9 L611.0,357.9 L611.8,358.2 L612.7,357.9 L613.5,357.5 L614.4,358.6 L615.2,358.6 L616.0,358.9 L616.9,358.6 L617.7,358.9 L618.6,358.9 L619.4,359.3 L620.3,358.9 L621.1,359.3 L621.9,360.0 L622.8,360.4 L623.6,360.4 L624.5,360.4 L625.3,360.0 L626.1,359.7 L627.0,360.0 L627.8,360.4 L628.7,360.0 L629.5,360.0 L630.4,360.0 L631.2,360.4 L632.0,360.4 L632.9,360.4 L633.7,360.0 L634.6,360.0 L635.4,360.0 L636.2,360.0 L637.1,360.4 L637.9,360.0 L638.8,360.4 L639.6,360.0 L640.4,360.4 L641.3,360.4 L642.1,360.0 L643.0,360.0 L643.8,360.0 L644.7,360.4 L645.5,360.0 L646.3,360.0 L647.2,360.0 L648.0,360.4 L648.9,358.9 L649.7,358.6 L650.5,355.7 L651.4,358.6 L652.2,360.0 L653.1,360.0 L653.9,361.4 L654.8,361.1 L655.6,361.1 L656.4,360.4 L657.3,360.0 L658.1,360.4 L659.0,360.0 L659.8,360.0 L660.6,360.4 L661.5,360.4 L662.3,360.0 L663.2,360.0 L664.0,359.7 L664.9,359.7 L665.7,360.0 L666.5,359.7 L667.4,360.0 L668.2,360.0 L669.1,360.0 L669.9,360.4 L670.7,360.4 L671.6,360.4 L672.4,360.0 L673.3,360.4 L674.1,360.0 L675.0,360.0 L675.8,360.0 L676.6,360.0 L677.5,360.0 L678.3,360.7 L679.2,360.0 L680.0,359.7" stroke="#ff7f0e" stroke-width="2" fill="none" opacity="0.8"/>
<!-- Thermal Generation -->
<path d="M80.0,328.2 L80.8,294.0 L81.7,293.6 L82.5,295.4 L83.4,294.7 L84.2,294.0 L85.0,305.4 L85.9,304.7 L86.7,302.5 L87.6,321.1 L88.4,314.7 L89.3,312.2 L90.1,312.2 L90.9,311.8 L91.8,311.5 L92.6,311.8 L93.5,312.5 L94.3,314.0 L95.1,315.4 L96.0,315.7 L96.8,316.5 L97.7,317.2 L98.5,317.5 L99.4,294.0 L100.2,284.7 L101.0,284.3 L101.9,283.6 L102.7,282.9 L103.6,297.2 L104.4,281.5 L105.2,280.0 L106.1,292.2 L106.9,292.5 L107.8,311.5 L108.6,311.1 L109.5,311.8 L110.3,310.8 L111.1,310.8 L112.0,310.4 L112.8,312.5 L113.7,313.3 L114.5,314.7 L115.3,317.5 L116.2,316.8 L117.0,317.9 L117.9,318.2 L118.7,297.9 L119.6,290.4 L120.4,289.3 L121.2,289.0 L122.1,288.3 L122.9,287.5 L123.8,283.6 L124.6,281.8 L125.4,281.5 L126.3,284.0 L127.1,279.7 L128.0,279.0 L128.8,284.3 L129.6,284.0 L130.5,283.3 L131.3,283.3 L132.2,282.9 L133.0,290.4 L133.9,284.0 L134.7,285.4 L135.5,287.9 L136.4,288.6 L137.2,290.4 L138.1,321.8 L138.9,336.1 L139.7,337.2 L140.6,338.2 L141.4,337.2 L142.3,336.1 L143.1,334.3 L144.0,332.5 L144.8,330.7 L145.6,330.0 L146.5,328.6 L147.3,329.0 L148.2,329.0 L149.0,327.9 L149.8,327.5 L150.7,330.4 L151.5,326.1 L152.4,326.5 L153.2,330.7 L154.1,331.1 L154.9,329.3 L155.7,329.3 L156.6,332.2 L157.4,320.4 L158.3,321.8 L159.1,322.5 L159.9,322.5 L160.8,321.1 L161.6,321.1 L162.5,320.0 L163.3,318.6 L164.2,318.6 L165.0,316.5 L165.8,314.7 L166.7,314.7 L167.5,317.2 L168.4,315.4 L169.2,315.4 L170.0,315.4 L170.9,316.1 L171.7,316.5 L172.6,316.5 L173.4,330.7 L174.2,350.0 L175.1,352.5 L175.9,351.8 L176.8,352.9 L177.6,350.7 L178.5,350.4 L179.3,334.0 L180.1,319.7 L181.0,321.8 L181.8,336.5 L182.7,318.6 L183.5,320.4 L184.3,317.2 L185.2,317.2 L186.0,318.2 L186.9,320.7 L187.7,318.6 L188.6,318.6 L189.4,317.2 L190.2,317.2 L191.1,316.8 L191.9,318.2 L192.8,320.0 L193.6,320.4 L194.4,330.4 L195.3,340.0 L196.1,341.1 L197.0,336.5 L197.8,338.2 L198.7,339.0 L199.5,335.7 L200.3,330.4 L201.2,321.8 L202.0,318.6 L202.9,315.4 L203.7,315.0 L204.5,313.6 L205.4,315.0 L206.2,313.6 L207.1,313.3 L207.9,339.0 L208.8,344.7 L209.6,346.1 L210.4,346.1 L211.3,346.5 L212.1,346.1 L213.0,347.5 L213.8,347.2 L214.6,344.0 L215.5,344.0 L216.3,345.7 L217.2,350.0 L218.0,351.5 L218.8,352.9 L219.7,354.0 L220.5,354.7 L221.4,331.5 L222.2,321.1 L223.1,321.1 L223.9,319.0 L224.7,320.0 L225.6,331.8 L226.4,330.0 L227.3,348.2 L228.1,328.2 L228.9,348.2 L229.8,348.2 L230.6,348.2 L231.5,349.3 L232.3,347.9 L233.2,347.5 L234.0,348.2 L234.8,348.6 L235.7,350.0 L236.5,352.2 L237.4,354.0 L238.2,354.7 L239.0,356.5 L239.9,356.5 L240.7,356.8 L241.6,356.1 L242.4,348.2 L243.3,325.0 L244.1,322.9 L244.9,325.0 L245.8,321.8 L246.6,331.1 L247.5,351.8 L248.3,352.9 L249.1,354.0 L250.0,352.5 L250.8,352.5 L251.7,352.2 L252.5,352.2 L253.4,352.5 L254.2,351.5 L255.0,349.0 L255.9,349.0 L256.7,350.7 L257.6,335.7 L258.4,322.9 L259.2,323.6 L260.1,325.7 L260.9,332.5 L261.8,327.5 L262.6,354.3 L263.5,353.2 L264.3,351.8 L265.1,351.5 L266.0,351.1 L266.8,319.3 L267.7,319.3 L268.5,318.2 L269.3,342.5 L270.2,341.5 L271.0,341.5 L271.9,342.5 L272.7,329.0 L273.5,319.7 L274.4,317.9 L275.2,318.2 L276.1,319.7 L276.9,306.5 L277.8,321.1 L278.6,306.5 L279.4,314.0 L280.3,316.1 L281.1,308.3 L282.0,309.0 L282.8,311.1 L283.6,310.4 L284.5,310.0 L285.3,309.0 L286.2,309.0 L287.0,315.0 L287.9,327.5 L288.7,327.9 L289.5,321.1 L290.4,321.5 L291.2,321.5 L292.1,306.8 L292.9,307.9 L293.7,305.8 L294.6,278.6 L295.4,292.2 L296.3,303.3 L297.1,308.3 L298.0,308.6 L298.8,309.0 L299.6,301.1 L300.5,285.8 L301.3,287.2 L302.2,297.9 L303.0,288.3 L303.8,286.8 L304.7,284.3 L305.5,281.1 L306.4,291.8 L307.2,304.7 L308.1,309.3 L308.9,309.3 L309.7,308.6 L310.6,307.9 L311.4,307.5 L312.3,309.0 L313.1,308.6 L313.9,294.7 L314.8,297.9 L315.6,301.8 L316.5,302.9 L317.3,301.5 L318.1,309.3 L319.0,310.8 L319.8,300.0 L320.7,300.4 L321.5,296.8 L322.4,290.8 L323.2,297.9 L324.0,286.5 L324.9,285.4 L325.7,287.9 L326.6,284.3 L327.4,296.5 L328.2,287.9 L329.1,295.0 L329.9,307.2 L330.8,306.8 L331.6,306.1 L332.5,305.4 L333.3,306.1 L334.1,292.2 L335.0,291.5 L335.8,305.4 L336.7,306.8 L337.5,307.9 L338.3,326.5 L339.2,318.6 L340.0,310.4 L340.9,310.0 L341.7,315.7 L342.6,338.6 L343.4,346.5 L344.2,346.1 L345.1,336.1 L345.9,335.4 L346.8,333.6 L347.6,326.8 L348.4,327.2 L349.3,326.8 L350.1,329.7 L351.0,329.3 L351.8,332.5 L352.7,328.6 L353.5,329.0 L354.3,329.3 L355.2,329.3 L356.0,336.1 L356.9,346.1 L357.7,348.6 L358.5,347.5 L359.4,348.6 L360.2,347.5 L361.1,346.8 L361.9,346.8 L362.7,336.1 L363.6,337.5 L364.4,336.1 L365.3,336.1 L366.1,339.7 L367.0,340.7 L367.8,342.2 L368.6,344.0 L369.5,335.4 L370.3,343.2 L371.2,344.7 L372.0,346.5 L372.8,345.7 L373.7,345.7 L374.5,347.2 L375.4,347.2 L376.2,352.2 L377.1,354.0 L377.9,354.3 L378.7,353.6 L379.6,355.4 L380.4,356.5 L381.3,357.2 L382.1,357.2 L382.9,357.2 L383.8,357.9 L384.6,357.2 L385.5,356.5 L386.3,345.4 L387.2,331.5 L388.0,344.3 L388.8,355.4 L389.7,354.7 L390.5,355.0 L391.4,355.7 L392.2,354.0 L393.0,354.0 L393.9,354.0 L394.7,354.0 L395.6,353.2 L396.4,352.2 L397.3,352.5 L398.1,353.6 L398.9,346.1 L399.8,336.1 L400.6,352.5 L401.5,354.3 L402.3,334.3 L403.1,321.5 L404.0,319.0 L404.8,317.5 L405.7,315.7 L406.5,317.2 L407.3,326.1 L408.2,326.1 L409.0,351.5 L409.9,350.7 L410.7,350.4 L411.6,351.1 L412.4,351.8 L413.2,350.4 L414.1,351.8 L414.9,351.1 L415.8,351.1 L416.6,351.8 L417.4,352.2 L418.3,352.9 L419.1,352.2 L420.0,352.2 L420.8,352.2 L421.7,352.9 L422.5,319.0 L423.3,335.7 L424.2,340.0 L425.0,316.1 L425.9,316.1 L426.7,315.7 L427.5,349.3 L428.4,348.2 L429.2,348.6 L430.1,348.6 L430.9,349.0 L431.8,348.6 L432.6,348.6 L433.4,348.2 L434.3,348.2 L435.1,348.6 L436.0,349.0 L436.8,349.0 L437.6,350.0 L438.5,352.2 L439.3,354.0 L440.2,354.3 L441.0,358.9 L441.9,360.0 L442.7,338.2 L443.5,327.2 L444.4,344.0 L445.2,322.5 L446.1,320.7 L446.9,327.2 L447.7,350.4 L448.6,349.7 L449.4,349.3 L450.3,350.0 L451.1,349.0 L451.9,348.2 L452.8,348.6 L453.6,348.6 L454.5,347.9 L455.3,347.5 L456.2,347.5 L457.0,348.6 L457.8,349.7 L458.7,350.7 L459.5,328.2 L460.4,352.9 L461.2,350.7 L462.0,354.0 L462.9,343.6 L463.7,325.0 L464.6,330.7 L465.4,323.6 L466.3,321.1 L467.1,324.3 L467.9,350.0 L468.8,349.3 L469.6,349.3 L470.5,348.6 L471.3,348.2 L472.1,347.2 L473.0,346.8 L473.8,347.2 L474.7,346.8 L475.5,346.5 L476.4,348.6 L477.2,349.0 L478.0,349.3 L478.9,350.4 L479.7,351.8 L480.6,352.2 L481.4,350.7 L482.2,354.0 L483.1,353.6 L483.9,331.1 L484.8,322.9 L485.6,322.5 L486.5,319.3 L487.3,318.6 L488.1,328.2 L489.0,331.5 L489.8,317.5 L490.7,316.5 L491.5,316.1 L492.3,348.6 L493.2,349.7 L494.0,349.3 L494.9,349.0 L495.7,316.8 L496.5,342.5 L497.4,350.0 L498.2,352.2 L499.1,353.2 L499.9,354.7 L500.8,355.0 L501.6,355.7 L502.4,346.1 L503.3,357.2 L504.1,325.4 L505.0,334.7 L505.8,304.7 L506.6,289.0 L507.5,302.2 L508.3,321.1 L509.2,313.6 L510.0,314.3 L510.9,314.3 L511.7,333.2 L512.5,332.9 L513.4,334.0 L514.2,333.2 L515.1,333.2 L515.9,329.0 L516.7,328.6 L517.6,329.7 L518.4,330.4 L519.3,331.8 L520.1,335.7 L521.0,335.0 L521.8,326.8 L522.6,320.4 L523.5,320.7 L524.3,320.7 L525.2,310.0 L526.0,307.2 L526.8,306.5 L527.7,318.2 L528.5,319.3 L529.4,317.5 L530.2,317.9 L531.1,319.0 L531.9,316.5 L532.7,316.5 L533.6,317.2 L534.4,317.5 L535.3,317.2 L536.1,314.7 L536.9,316.5 L537.8,315.4 L538.6,309.3 L539.5,308.3 L540.3,309.3 L541.2,312.9 L542.0,314.7 L542.8,315.7 L543.7,315.0 L544.5,314.0 L545.4,314.0 L546.2,294.7 L547.0,283.6 L547.9,281.8 L548.7,305.0 L549.6,313.3 L550.4,313.6 L551.2,313.3 L552.1,314.0 L552.9,313.6 L553.8,313.3 L554.6,312.5 L555.5,312.2 L556.3,311.8 L557.1,294.3 L558.0,302.5 L558.8,302.2 L559.7,312.5 L560.5,312.9 L561.3,314.0 L562.2,314.7 L563.0,315.4 L563.9,314.3 L564.7,284.7 L565.6,284.7 L566.4,280.4 L567.2,284.7 L568.1,284.7 L568.9,284.0 L569.8,284.7 L570.6,304.7 L571.4,303.3 L572.3,313.3 L573.1,312.9 L574.0,312.9 L574.8,313.6 L575.7,314.7 L576.5,283.3 L577.3,282.2 L578.2,307.5 L579.0,313.3 L580.7,316.8 L581.5,318.6 L582.4,320.0 L583.2,319.3 L584.1,319.7 L584.9,319.3 L585.8,319.3 L586.6,293.6 L587.4,289.7 L588.3,289.7 L589.1,289.7 L590.0,316.1 L590.8,315.4 L591.6,314.0 L592.5,316.1 L593.3,315.7 L594.2,317.9 L595.0,317.2 L595.8,315.7 L596.7,313.6 L597.5,312.2 L598.4,311.5 L599.2,312.2 L600.1,312.2 L600.9,312.2 L601.7,312.9 L602.6,314.0 L603.4,316.1 L604.3,316.5 L605.1,315.7 L605.9,307.2 L606.8,293.3 L607.6,305.4 L608.5,305.8 L609.3,310.4 L610.2,316.1 L611.0,316.8 L611.8,316.1 L612.7,315.7 L613.5,316.1 L614.4,316.1 L615.2,315.4 L616.0,315.7 L616.9,314.7 L617.7,314.7 L618.6,315.0 L619.4,315.7 L620.3,317.5 L621.1,317.9 L621.9,317.2 L622.8,317.9 L623.6,317.5 L624.5,316.5 L625.3,315.0 L626.1,316.8 L627.0,316.1 L627.8,316.8 L628.7,316.5 L629.5,316.1 L630.4,322.9 L631.2,325.0 L632.0,325.4 L632.9,327.5 L633.7,327.9 L634.6,327.5 L635.4,326.5 L636.2,326.1 L637.1,325.7 L637.9,325.7 L638.8,326.5 L639.6,325.4 L640.4,325.7 L641.3,325.7 L642.1,325.4 L643.0,324.3 L643.8,325.7 L644.7,326.1 L645.5,325.7 L646.3,325.0 L647.2,298.3 L648.0,308.6 L648.9,308.3 L649.7,326.8 L650.5,363.2 L651.4,362.9 L652.2,363.6 L653.1,363.6 L653.9,363.6 L654.8,362.9 L655.6,363.6 L656.4,363.2 L657.3,364.3 L658.1,364.3 L659.0,361.8 L659.8,362.5 L660.6,361.4 L661.5,352.2 L662.3,353.2 L663.2,342.2 L664.0,332.2 L664.9,332.5 L665.7,325.4 L666.5,325.0 L667.4,292.5 L668.2,324.0 L669.1,325.7 L669.9,326.8 L670.7,326.5 L671.6,326.1 L672.4,325.7 L673.3,325.0 L674.1,325.4 L675.0,325.4 L675.8,325.7 L676.6,324.7 L677.5,323.6 L678.3,324.7 L679.2,326.5 L680.0,325.4" stroke="#2ca02c" stroke-width="2" fill="none" opacity="0.8"/>
<!-- Solar Generation -->
<path d="M80.0,368.9 L80.8,390.4 L81.7,398.9 L82.5,418.9 L83.4,420.0 L84.2,420.0 L85.0,420.0 L85.9,420.0 L86.7,420.0 L87.6,420.0 L88.4,420.0 L89.3,420.0 L90.1,420.0 L90.9,420.0 L91.8,419.6 L92.6,405.4 L93.5,378.6 L94.3,370.7 L95.1,369.3 L96.0,370.0 L96.8,370.7 L97.7,370.7 L98.5,372.5 L99.4,368.9 L100.2,371.8 L101.0,378.2 L101.9,398.9 L102.7,418.9 L103.6,420.0 L104.4,420.0 L105.2,420.0 L106.1,420.0 L106.9,420.0 L107.8,420.0 L108.6,420.0 L109.5,420.0 L110.3,420.0 L111.1,420.0 L112.0,420.0 L112.8,405.4 L113.7,380.4 L114.5,370.4 L115.3,371.8 L116.2,370.0 L117.0,371.1 L117.9,373.6 L118.7,370.4 L119.6,371.8 L120.4,371.1 L121.2,376.8 L122.1,399.3 L122.9,418.9 L123.8,420.0 L124.6,420.0 L125.4,420.0 L126.3,420.0 L127.1,420.0 L128.0,420.0 L128.8,420.0 L129.6,420.0 L130.5,420.0 L131.3,420.0 L132.2,420.0 L133.0,406.1 L133.9,379.3 L134.7,371.8 L135.5,371.8 L136.4,372.2 L137.2,371.4 L138.1,382.2 L138.9,393.2 L139.7,388.6 L140.6,391.4 L141.4,392.2 L142.3,407.5 L143.1,419.3 L144.0,420.0 L144.8,420.0 L145.6,420.0 L146.5,420.0 L147.3,420.0 L148.2,420.0 L149.0,420.0 L149.8,420.0 L150.7,420.0 L151.5,420.0 L152.4,420.0 L153.2,408.6 L154.1,383.9 L154.9,374.7 L155.7,377.9 L156.6,371.4 L157.4,372.5 L158.3,378.9 L159.1,371.4 L159.9,372.2 L160.8,373.9 L161.6,381.4 L162.5,403.2 L163.3,419.3 L164.2,420.0 L165.0,420.0 L165.8,420.0 L166.7,420.0 L167.5,420.0 L168.4,420.0 L169.2,420.0 L170.0,420.0 L170.9,420.0 L171.7,420.0 L172.6,420.0 L173.4,414.6 L174.2,396.4 L175.1,388.9 L175.9,386.8 L176.8,390.4 L177.6,385.4 L178.5,381.8 L179.3,378.2 L180.1,390.7 L181.0,393.2 L181.8,395.4 L182.7,411.1 L183.5,419.6 L184.3,420.0 L185.2,420.0 L186.0,420.0 L186.9,420.0 L187.7,420.0 L188.6,420.0 L189.4,420.0 L190.2,420.0 L191.1,420.0 L191.9,420.0 L192.8,420.0 L193.6,410.7 L194.4,390.7 L195.3,373.9 L196.1,370.4 L197.0,370.0 L197.8,371.1 L198.7,370.7 L199.5,369.3 L200.3,368.9 L201.2,370.4 L202.0,380.4 L202.9,406.1 L203.7,419.6 L204.5,420.0 L205.4,420.0 L206.2,420.0 L207.1,420.0 L207.9,420.0 L208.8,420.0 L209.6,420.0 L210.4,420.0 L211.3,420.0 L212.1,420.0 L213.0,420.0 L213.8,409.6 L214.6,389.3 L215.5,381.8 L216.3,376.4 L217.2,374.7 L218.0,374.3 L218.8,375.4 L219.7,378.2 L220.5,381.8 L221.4,384.3 L222.2,396.4 L223.1,413.2 L223.9,420.0 L224.7,420.0 L225.6,420.0 L226.4,420.0 L227.3,420.0 L228.1,420.0 L228.9,420.0 L229.8,420.0 L230.6,420.0 L231.5,420.0 L232.3,420.0 L233.2,420.0 L234.0,413.6 L234.8,399.3 L235.7,378.6 L236.5,374.3 L237.4,380.7 L238.2,377.2 L239.0,382.5 L239.9,375.7 L240.7,383.9 L241.6,410.7 L242.4,415.0 L243.3,418.2 L244.1,420.0 L244.9,420.0 L245.8,420.0 L246.6,420.0 L247.5,420.0 L248.3,420.0 L249.1,420.0 L250.0,420.0 L250.8,420.0 L251.7,420.0 L252.5,420.0 L253.4,420.0 L254.2,412.9 L255.0,394.7 L255.9,371.1 L256.7,371.1 L257.6,386.8 L258.4,377.5 L259.2,385.4 L260.1,377.2 L260.9,381.8 L261.8,376.8 L262.6,386.8 L263.5,405.4 L264.3,419.6 L265.1,420.0 L266.0,420.0 L266.8,420.0 L267.7,420.0 L268.5,420.0 L269.3,420.0 L270.2,420.0 L271.0,420.0 L271.9,420.0 L272.7,420.0 L273.5,420.0 L274.4,414.6 L275.2,408.2 L276.1,400.0 L276.9,398.2 L277.8,393.6 L278.6,380.4 L279.4,385.7 L280.3,385.0 L281.1,386.4 L282.0,391.8 L282.8,403.2 L283.6,417.5 L284.5,420.0 L285.3,420.0 L286.2,420.0 L287.0,420.0 L287.9,420.0 L288.7,420.0 L289.5,420.0 L290.4,420.0 L291.2,420.0 L292.1,420.0 L292.9,420.0 L293.7,420.0 L294.6,414.3 L295.4,387.5 L296.3,391.1 L297.1,385.0 L298.0,385.4 L298.8,379.7 L299.6,384.3 L300.5,376.1 L301.3,395.0 L302.2,402.9 L303.0,407.1 L303.8,417.1 L304.7,420.0 L305.5,420.0 L306.4,420.0 L307.2,420.0 L308.1,420.0 L308.9,420.0 L309.7,420.0 L310.6,420.0 L311.4,420.0 L312.3,420.0 L313.1,420.0 L313.9,420.0 L314.8,417.5 L315.6,413.6 L316.5,395.0 L317.3,391.1 L318.1,391.1 L319.0,390.4 L319.8,387.5 L320.7,394.3 L321.5,403.9 L322.4,410.4 L323.2,412.5 L324.0,417.1 L324.9,420.0 L325.7,420.0 L326.6,420.0 L327.4,420.0 L328.2,420.0 L329.1,420.0 L329.9,420.0 L330.8,420.0 L331.6,420.0 L332.5,420.0 L333.3,420.0 L334.1,420.0 L335.0,410.7 L335.8,386.8 L336.7,373.9 L337.5,371.1 L338.3,373.2 L339.2,381.4 L340.0,373.2 L340.9,383.6 L341.7,392.2 L342.6,382.9 L343.4,405.0 L344.2,416.1 L345.1,420.0 L345.9,420.0 L346.8,420.0 L347.6,420.0 L348.4,420.0 L349.3,420.0 L350.1,420.0 L351.0,420.0 L351.8,420.0 L352.7,420.0 L353.5,420.0 L354.3,420.0 L355.2,418.6 L356.0,395.7 L356.9,386.8 L357.7,380.4 L358.5,378.6 L359.4,376.1 L360.2,373.9 L361.1,386.1 L361.9,401.8 L362.7,402.5 L363.6,396.8 L364.4,414.6 L365.3,420.0 L366.1,420.0 L367.0,420.0 L367.8,420.0 L368.6,420.0 L369.5,420.0 L370.3,420.0 L371.2,420.0 L372.0,420.0 L372.8,420.0 L373.7,420.0 L374.5,420.0 L375.4,410.7 L376.2,377.5 L377.1,397.2 L377.9,396.8 L378.7,389.3 L379.6,378.2 L380.4,398.2 L381.3,394.7 L382.1,391.4 L382.9,407.5 L383.8,417.5 L384.6,418.2 L385.5,420.0 L386.3,420.0 L387.2,420.0 L388.0,420.0 L388.8,420.0 L389.7,420.0 L390.5,420.0 L391.4,420.0 L392.2,420.0 L393.0,420.0 L393.9,420.0 L394.7,420.0 L395.6,415.7 L396.4,383.6 L397.3,387.9 L398.1,393.6 L398.9,399.6 L399.8,403.9 L400.6,388.2 L401.5,390.4 L402.3,411.4 L403.1,411.4 L404.0,415.0 L404.8,417.9 L405.7,420.0 L406.5,420.0 L407.3,420.0 L408.2,420.0 L409.0,420.0 L409.9,420.0 L410.7,420.0 L411.6,420.0 L412.4,420.0 L413.2,420.0 L414.1,420.0 L414.9,420.0 L415.8,413.9 L416.6,406.1 L417.4,402.5 L418.3,391.4 L419.1,398.2 L420.0,392.9 L420.8,379.3 L421.7,391.8 L422.5,392.5 L423.3,413.6 L424.2,407.9 L425.0,416.8 L425.9,420.0 L426.7,420.0 L427.5,420.0 L428.4,420.0 L429.2,420.0 L430.1,420.0 L430.9,420.0 L431.8,420.0 L432.6,420.0 L433.4,420.0 L434.3,420.0 L435.1,420.0 L436.0,416.1 L436.8,391.4 L437.6,375.7 L438.5,375.7 L439.3,375.7 L440.2,373.9 L441.0,378.6 L441.9,377.9 L442.7,376.4 L443.5,380.4 L444.4,385.4 L445.2,411.4 L446.1,420.0 L446.9,420.0 L447.7,420.0 L448.6,420.0 L449.4,420.0 L450.3,420.0 L451.1,420.0 L451.9,420.0 L452.8,420.0 L453.6,420.0 L454.5,420.0 L455.3,420.0 L456.2,413.2 L457.0,384.3 L457.8,373.2 L458.7,371.4 L459.5,372.9 L460.4,376.1 L461.2,373.2 L462.0,372.9 L462.9,372.9 L463.7,374.7 L464.6,384.3 L465.4,412.9 L466.3,420.0 L467.1,420.0 L467.9,420.0 L468.8,420.0 L469.6,420.0 L470.5,420.0 L471.3,420.0 L472.1,420.0 L473.0,420.0 L473.8,420.0 L474.7,420.0 L475.5,420.0 L476.4,412.9 L477.2,388.2 L478.0,392.2 L478.9,377.5 L479.7,378.2 L480.6,378.6 L481.4,380.7 L482.2,379.3 L483.1,374.7 L483.9,379.3 L484.8,396.8 L485.6,412.5 L486.5,420.0 L487.3,420.0 L488.1,420.0 L489.0,420.0 L489.8,420.0 L490.7,420.0 L491.5,420.0 L492.3,420.0 L493.2,420.0 L494.0,420.0 L494.9,420.0 L495.7,420.0 L496.5,414.3 L497.4,384.7 L498.2,372.5 L499.1,371.1 L499.9,372.5 L500.8,373.6 L501.6,372.5 L502.4,373.9 L503.3,376.1 L504.1,381.4 L505.0,395.4 L505.8,412.9 L506.6,420.0 L507.5,420.0 L508.3,420.0 L509.2,420.0 L510.0,420.0 L510.9,420.0 L511.7,420.0 L512.5,420.0 L513.4,420.0 L514.2,420.0 L515.1,420.0 L515.9,420.0 L516.7,415.4 L517.6,390.0 L518.4,383.6 L519.3,383.9 L520.1,373.9 L521.0,387.9 L521.8,385.4 L522.6,378.6 L523.5,397.2 L524.3,399.6 L525.2,408.9 L526.0,418.9 L526.8,420.0 L527.7,420.0 L528.5,420.0 L529.4,420.0 L530.2,420.0 L531.1,420.0 L531.9,420.0 L532.7,420.0 L533.6,420.0 L534.4,420.0 L535.3,420.0 L536.1,420.0 L536.9,419.3 L537.8,397.5 L538.6,410.4 L539.5,389.7 L540.3,388.6 L541.2,406.1 L542.0,383.9 L542.8,381.1 L543.7,386.1 L544.5,401.4 L545.4,398.6 L546.2,413.6 L547.0,420.0 L547.9,420.0 L548.7,420.0 L549.6,420.0 L550.4,420.0 L551.2,420.0 L552.1,420.0 L552.9,420.0 L553.8,420.0 L554.6,420.0 L555.5,420.0 L556.3,420.0 L557.1,413.6 L558.0,382.2 L558.8,370.4 L559.7,370.4 L560.5,371.4 L561.3,372.9 L562.2,372.9 L563.0,371.1 L563.9,370.0 L564.7,370.7 L565.6,384.3 L566.4,413.9 L567.2,420.0 L568.1,420.0 L568.9,420.0 L569.8,420.0 L570.6,420.0 L571.4,420.0 L572.3,420.0 L573.1,420.0 L574.0,420.0 L574.8,420.0 L575.7,420.0 L576.5,420.0 L577.3,413.9 L578.2,382.5 L579.0,369.7 L579.9,420.0 L580.7,371.4 L581.5,373.2 L582.4,373.2 L583.2,371.4 L584.1,370.0 L584.9,370.7 L585.8,385.0 L586.6,414.6 L587.4,420.0 L588.3,420.0 L589.1,420.0 L590.0,420.0 L590.8,420.0 L591.6,420.0 L592.5,420.0 L593.3,420.0 L594.2,420.0 L595.0,420.0 L595.8,420.0 L596.7,420.0 L597.5,414.6 L598.4,383.6 L599.2,370.7 L600.1,370.7 L600.9,372.9 L601.7,374.3 L602.6,374.3 L603.4,372.5 L604.3,370.7 L605.1,371.4 L605.9,387.5 L606.8,415.4 L607.6,420.0 L608.5,420.0 L609.3,420.0 L610.2,420.0 L611.0,420.0 L611.8,420.0 L612.7,420.0 L613.5,420.0 L614.4,420.0 L615.2,420.0 L616.0,420.0 L616.9,420.0 L617.7,418.9 L618.6,386.8 L619.4,372.5 L620.3,371.4 L621.1,373.2 L621.9,375.7 L622.8,374.7 L623.6,373.9 L624.5,376.8 L625.3,382.2 L626.1,398.9 L627.0,417.9 L627.8,420.0 L628.7,420.0 L629.5,420.0 L630.4,420.0 L631.2,420.0 L632.0,420.0 L632.9,420.0 L633.7,420.0 L634.6,420.0 L635.4,420.0 L636.2,420.0 L637.1,420.0 L637.9,416.1 L638.8,387.9 L639.6,371.8 L640.4,371.1 L641.3,373.6 L642.1,374.7 L643.0,375.0 L643.8,372.9 L644.7,371.4 L645.5,372.9 L646.3,390.4 L647.2,416.8 L648.0,420.0 L648.9,420.0 L649.7,420.0 L650.5,420.0 L651.4,420.0 L652.2,420.0 L653.1,420.0 L653.9,420.0 L654.8,420.0 L655.6,420.0 L656.4,420.0 L657.3,420.0 L658.1,415.7 L659.0,389.7 L659.8,372.5 L660.6,371.8 L661.5,376.1 L662.3,376.4 L663.2,374.7 L664.0,375.0 L664.9,407.1 L665.7,371.1 L666.5,408.6 L667.4,415.0 L668.2,420.0 L669.1,420.0 L669.9,420.0 L670.7,420.0 L671.6,420.0 L672.4,420.0 L673.3,420.0 L674.1,420.0 L675.0,420.0 L675.8,420.0 L676.6,420.0 L677.5,420.0 L678.3,418.9 L679.2,407.9 L680.0,385.4" stroke="#d62728" stroke-width="2" fill="none" opacity="0.8"/>
<!-- Forecast -->
<path d="M80.0,113.7 L80.8,114.7 L81.7,112.6 L82.5,122.6 L83.4,132.6 L84.2,131.5 L85.0,147.2 L85.9,169.7 L86.7,192.9 L87.6,207.2 L88.4,216.1 L89.3,221.9 L90.1,222.9 L90.9,221.5 L91.8,217.6 L92.6,204.7 L93.5,185.1 L94.3,162.6 L95.1,148.7 L96.0,136.9 L96.8,128.3 L97.7,119.0 L98.5,108.3 L99.4,95.8 L100.2,89.8 L101.0,77.3 L101.9,81.5 L102.7,93.0 L103.6,107.2 L104.4,115.5 L105.2,136.5 L106.1,166.5 L106.9,192.6 L107.8,208.3 L108.6,201.1 L109.5,219.4 L110.3,225.8 L111.1,224.0 L112.0,219.4 L112.8,208.3 L113.7,188.3 L114.5,165.1 L115.3,151.2 L116.2,139.0 L117.0,130.1 L117.9,118.0 L118.7,105.8 L119.6,93.3 L120.4,83.7 L121.2,75.5 L122.1,78.3 L122.9,88.3 L123.8,102.6 L124.6,113.0 L125.4,135.8 L126.3,110.8 L127.1,169.7 L128.0,200.4 L128.8,192.9 L129.6,212.6 L130.5,217.9 L131.3,208.6 L132.2,185.8 L133.0,159.4 L133.9,131.2 L134.7,113.3 L135.5,104.7 L136.4,95.1 L137.2,89.0 L138.1,80.8 L138.9,71.5 L139.7,69.8 L140.6,69.8 L141.4,70.1 L142.3,70.5 L143.1,70.5 L144.0,70.8 L144.8,71.2 L145.6,85.8 L146.5,160.8 L147.3,193.3 L148.2,210.1 L149.0,221.1 L149.8,226.9 L150.7,225.8 L151.5,215.1 L152.4,190.4 L153.2,163.3 L154.1,136.9 L154.9,122.2 L155.7,115.8 L156.6,108.7 L157.4,104.0 L158.3,98.7 L159.1,90.5 L159.9,79.0 L160.8,68.3 L161.6,70.8 L162.5,81.5 L163.3,99.4 L164.2,112.6 L165.0,120.1 L165.8,142.2 L166.7,177.2 L167.5,200.8 L168.4,204.7 L169.2,211.5 L170.0,217.9 L170.9,217.2 L171.7,207.2 L172.6,185.4 L173.4,159.0 L174.2,131.2 L175.1,115.1 L175.9,108.0 L176.8,101.5 L177.6,98.3 L178.5,94.0 L179.3,89.8 L180.1,82.3 L181.0,79.8 L181.8,86.2 L182.7,96.2 L183.5,110.5 L184.3,121.5 L185.2,127.2 L186.0,148.3 L186.9,190.4 L187.7,206.5 L188.6,238.3 L189.4,250.8 L190.2,254.3 L191.1,256.8 L191.9,230.4 L192.8,222.9 L193.6,201.1 L194.4,186.5 L195.3,164.4 L196.1,148.7 L197.0,142.6 L197.8,141.2 L198.7,141.2 L199.5,141.5 L200.3,141.2 L201.2,140.8 L202.0,141.2 L202.9,141.2 L203.7,125.1 L204.5,128.3 L205.4,135.8 L206.2,164.0 L207.1,191.9 L207.9,231.5 L208.8,245.4 L209.6,250.1 L210.4,252.6 L211.3,254.3 L212.1,255.1 L213.0,241.8 L213.8,216.9 L214.6,186.2 L215.5,165.8 L216.3,158.3 L217.2,157.9 L218.0,148.7 L218.8,141.2 L219.7,140.1 L220.5,128.0 L221.4,120.1 L222.2,119.4 L223.1,118.3 L223.9,129.7 L224.7,138.0 L225.6,140.1 L226.4,156.2 L227.3,179.7 L228.1,201.9 L228.9,217.9 L229.8,227.2 L230.6,232.2 L231.5,234.0 L232.3,232.2 L233.2,224.7 L234.0,212.2 L234.8,194.4 L235.7,175.8 L236.5,160.4 L237.4,152.6 L238.2,148.7 L239.0,139.4 L239.9,130.1 L240.7,118.7 L241.6,108.7 L242.4,95.8 L243.3,134.4 L244.1,159.4 L244.9,167.9 L245.8,168.7 L246.6,167.2 L247.5,182.9 L248.3,193.6 L249.1,192.2 L250.0,189.0 L250.8,186.5 L251.7,185.8 L252.5,186.9 L253.4,188.3 L254.2,190.4 L255.0,159.0 L255.9,138.0 L256.7,121.2 L257.6,113.0 L258.4,111.2 L259.2,110.8 L260.1,111.2 L260.9,111.9 L261.8,116.2 L262.6,123.0 L263.5,135.1 L264.3,159.0 L265.1,175.4 L266.0,95.8 L266.8,160.4 L267.7,180.4 L268.5,199.7 L269.3,211.1 L270.2,219.0 L271.0,224.7 L271.9,223.6 L272.7,212.6 L273.5,189.4 L274.4,162.6 L275.2,136.2 L276.1,122.2 L276.9,115.8 L277.8,108.7 L278.6,104.0 L279.4,100.1 L280.3,93.7 L281.1,84.4 L282.0,80.8 L282.8,84.4 L283.6,92.3 L284.5,107.6 L285.3,119.4 L286.2,123.3 L287.0,141.5 L287.9,170.8 L288.7,196.9 L289.5,210.4 L290.4,219.7 L291.2,224.7 L292.1,224.0 L292.9,212.9 L293.7,189.0 L294.6,161.9 L295.4,136.5 L296.3,123.0 L297.1,116.2 L298.0,108.7 L298.8,102.3 L299.6,94.8 L300.5,84.8 L301.3,71.9 L302.2,67.6 L303.0,73.0 L303.8,85.5 L304.7,105.5 L305.5,114.7 L306.4,119.4 L307.2,140.5 L308.1,188.3 L308.9,211.9 L309.7,223.6 L310.6,232.9 L311.4,235.1 L312.3,233.6 L313.1,222.9 L313.9,187.9 L314.8,153.7 L315.6,132.2 L316.5,122.2 L317.3,124.7 L318.1,124.0 L319.0,122.2 L319.8,123.7 L320.7,125.8 L321.5,120.5 L322.4,122.2 L323.2,124.0 L324.0,122.2 L324.9,117.2 L325.7,117.2 L326.6,136.5 L327.4,165.4 L328.2,194.7 L329.1,214.7 L329.9,226.9 L330.8,234.7 L331.6,236.8 L332.5,235.1 L333.3,222.6 L334.1,188.3 L335.0,152.6 L335.8,132.6 L336.7,128.3 L337.5,131.2 L338.3,128.7 L339.2,126.5 L340.0,128.7 L340.9,130.5 L341.7,126.2 L342.6,125.5 L343.4,125.1 L344.2,123.7 L345.1,119.0 L345.9,118.3 L346.8,137.2 L347.6,165.8 L348.4,203.3 L349.3,218.6 L350.1,228.6 L351.0,234.0 L351.8,237.6 L352.7,239.3 L353.5,236.5 L354.3,221.9 L355.2,205.8 L356.0,185.8 L356.9,168.3 L357.7,159.4 L358.5,157.2 L359.4,165.1 L360.2,164.7 L361.1,163.7 L361.9,160.8 L362.7,150.4 L363.6,147.9 L364.4,150.1 L365.3,147.6 L366.1,150.1 L367.0,162.2 L367.8,184.0 L368.6,206.1 L369.5,222.2 L370.3,233.3 L371.2,240.1 L372.0,243.3 L372.8,240.1 L373.7,236.5 L374.5,223.3 L375.4,211.9 L376.2,200.1 L377.1,180.1 L377.9,168.7 L378.7,166.2 L379.6,160.1 L380.4,160.1 L381.3,161.9 L382.1,153.3 L382.9,139.0 L383.8,126.9 L384.6,126.2 L385.5,123.0 L386.3,128.7 L387.2,146.9 L388.0,174.0 L388.8,197.6 L389.7,215.1 L390.5,226.5 L391.4,234.7 L392.2,236.8 L393.0,235.1 L393.9,222.6 L394.7,188.3 L395.6,151.9 L396.4,132.2 L397.3,127.2 L398.1,128.3 L398.9,128.0 L399.8,128.0 L400.6,130.5 L401.5,131.9 L402.3,129.7 L403.1,128.7 L404.0,128.7 L404.8,127.2 L405.7,123.3 L406.5,121.9 L407.3,142.2 L408.2,171.9 L409.0,198.6 L409.9,217.2 L410.7,228.6 L411.6,235.4 L412.4,237.6 L413.2,235.4 L414.1,222.2 L414.9,187.6 L415.8,150.8 L416.6,132.2 L417.4,130.8 L418.3,130.5 L419.1,140.1 L420.0,142.2 L420.8,149.7 L421.7,143.0 L422.5,144.4 L423.3,144.4 L424.2,149.7 L425.0,158.3 L425.9,173.7 L426.7,185.1 L427.5,187.2 L428.4,186.9 L429.2,212.2 L430.1,229.4 L430.9,255.8 L431.8,262.2 L432.6,261.5 L433.4,261.1 L434.3,233.3 L435.1,226.5 L436.0,192.9 L436.8,180.1 L437.6,162.2 L438.5,142.6 L439.3,134.4 L440.2,133.7 L441.0,135.1 L441.9,128.7 L442.7,119.7 L443.5,115.8 L444.4,113.3 L445.2,116.5 L446.1,115.8 L446.9,116.9 L447.7,136.9 L448.6,165.8 L449.4,195.4 L450.3,216.5 L451.1,228.6 L451.9,235.4 L452.8,237.6 L453.6,235.8 L454.5,221.9 L455.3,187.6 L456.2,199.4 L457.0,201.9 L457.8,184.0 L458.7,163.3 L459.5,154.4 L460.4,153.3 L461.2,153.7 L462.0,154.0 L462.9,152.9 L463.7,151.9 L464.6,152.2 L465.4,163.3 L466.3,177.9 L467.1,187.9 L467.9,187.2 L468.8,186.2 L469.6,196.1 L470.5,243.3 L471.3,235.8 L472.1,235.8 L473.0,237.6 L473.8,235.8 L474.7,222.2 L475.5,187.9 L476.4,151.5 L477.2,132.2 L478.0,130.5 L478.9,133.0 L479.7,128.0 L480.6,124.0 L481.4,123.0 L482.2,117.6 L483.1,110.8 L483.9,108.7 L484.8,107.6 L485.6,111.5 L486.5,111.9 L487.3,114.0 L488.1,132.6 L489.0,162.6 L489.8,205.1 L490.7,220.1 L491.5,229.4 L492.3,234.7 L493.2,237.9 L494.0,239.7 L494.9,235.8 L495.7,221.9 L496.5,206.5 L497.4,189.0 L498.2,173.3 L499.1,165.8 L499.9,164.0 L500.8,159.4 L501.6,157.2 L502.4,151.5 L503.3,139.4 L504.1,135.1 L505.0,129.0 L505.8,131.5 L506.6,143.7 L507.5,149.7 L508.3,163.3 L509.2,185.4 L510.0,207.9 L510.9,225.4 L511.7,235.8 L512.5,243.3 L513.4,246.1 L514.2,242.6 L515.1,240.1 L515.9,227.6 L516.7,215.8 L517.6,204.0 L518.4,182.9 L519.3,170.4 L520.1,166.9 L521.0,160.1 L521.8,160.4 L522.6,162.9 L523.5,158.3 L524.3,150.1 L525.2,139.0 L526.0,138.7 L526.8,131.2 L527.7,132.2 L528.5,150.4 L529.4,177.9 L530.2,202.2 L531.1,217.9 L531.9,228.6 L532.7,235.8 L533.6,237.9 L534.4,235.4 L535.3,221.1 L536.1,185.8 L536.9,149.0 L537.8,131.9 L538.6,129.4 L539.5,129.7 L540.3,129.7 L541.2,130.1 L542.0,133.7 L542.8,135.1 L543.7,133.3 L544.5,129.7 L545.4,126.9 L546.2,125.8 L547.0,123.3 L547.9,123.0 L548.7,143.7 L549.6,173.3 L550.4,200.1 L551.2,219.4 L552.1,229.7 L552.9,235.4 L553.8,237.2 L554.6,234.7 L555.5,219.7 L556.3,184.7 L557.1,147.9 L558.0,131.2 L558.8,129.4 L559.7,130.1 L560.5,128.7 L561.3,127.6 L562.2,129.4 L563.0,129.7 L563.9,124.0 L564.7,118.0 L565.6,116.2 L566.4,119.0 L567.2,118.3 L568.1,119.7 L568.9,140.1 L569.8,170.8 L570.6,194.4 L571.4,217.6 L572.3,229.4 L573.1,235.4 L574.0,237.6 L574.8,235.4 L575.7,221.5 L576.5,187.2 L577.3,150.4 L578.2,131.9 L579.0,125.8 L579.9,121.5 L580.7,119.0 L581.5,115.8 L582.4,111.2 L583.2,103.3 L584.1,96.9 L584.9,91.5 L585.8,93.0 L586.6,103.0 L587.4,108.0 L588.3,112.6 L589.1,131.5 L590.0,161.2 L590.8,190.8 L591.6,216.9 L592.5,228.3 L593.3,235.4 L594.2,237.6 L595.0,235.8 L595.8,222.2 L596.7,188.3 L597.5,151.9 L598.4,133.0 L599.2,130.5 L600.1,131.9 L600.9,125.8 L601.7,120.5 L602.6,114.7 L603.4,105.1 L604.3,97.3 L605.1,92.6 L605.9,93.3 L606.8,103.3 L607.6,108.0 L608.5,112.6 L609.3,130.1 L610.2,157.9 L611.0,197.6 L611.8,215.1 L612.7,226.5 L613.5,234.3 L614.4,236.8 L615.2,235.1 L616.0,222.9 L616.9,188.6 L617.7,152.2 L618.6,133.0 L619.4,128.0 L620.3,129.0 L621.1,127.6 L621.9,125.8 L622.8,127.2 L623.6,129.7 L624.5,124.7 L625.3,124.0 L626.1,121.5 L627.0,124.0 L627.8,123.0 L628.7,122.6 L629.5,143.3 L630.4,172.6 L631.2,205.4 L632.0,216.5 L632.9,224.4 L633.7,230.1 L634.6,232.9 L635.4,234.0 L636.2,230.1 L637.1,215.8 L637.9,199.7 L638.8,181.9 L639.6,167.9 L640.4,162.2 L641.3,161.2 L642.1,163.7 L643.0,162.6 L643.8,158.7 L644.7,151.5 L645.5,140.1 L646.3,134.0 L647.2,141.2 L648.0,146.5 L648.9,150.4 L649.7,162.9 L650.5,184.7 L651.4,206.1 L652.2,222.9 L653.1,232.9 L653.9,239.3 L654.8,241.8 L655.6,239.0 L656.4,234.7 L657.3,221.9 L658.1,208.3 L659.0,195.1 L659.8,177.2 L660.6,168.7 L661.5,167.2 L662.3,161.2 L663.2,157.6 L664.0,156.5 L664.9,145.1 L665.7,131.2 L666.5,123.3 L667.4,122.6 L668.2,121.2 L669.1,128.0 L669.9,146.9 L670.7,174.4 L671.6,194.7 L672.4,213.6 L673.3,226.1 L674.1,234.7 L675.0,236.8 L675.8,235.1 L676.6,223.3 L677.5,189.0 L678.3,153.7 L679.2,133.3 L680.0,129.7" stroke="#9467bd" stroke-width="2" fill="none" opacity="0.8"/>
<!-- Total Generation -->
<path d="M80.0,184.4 L80.8,168.3 L81.7,186.2 L82.5,206.5 L83.4,197.2 L84.2,197.9 L85.0,221.9 L85.9,223.6 L86.7,218.3 L87.6,234.0 L88.4,226.5 L89.3,217.2 L90.1,215.1 L90.9,207.9 L91.8,212.9 L92.6,199.7 L93.5,182.2 L94.3,179.4 L95.1,180.8 L96.0,179.7 L96.8,172.9 L97.7,167.9 L98.5,172.9 L99.4,151.5 L100.2,144.4 L101.0,150.8 L101.9,178.3 L102.7,197.6 L103.6,212.6 L104.4,192.9 L105.2,197.6 L106.1,212.6 L106.9,214.0 L107.8,234.0 L108.6,233.3 L109.5,233.6 L110.3,232.9 L111.1,231.8 L112.0,230.4 L112.8,217.2 L113.7,195.8 L114.5,189.7 L115.3,192.2 L116.2,185.4 L117.0,185.8 L117.9,185.1 L118.7,165.4 L119.6,147.9 L120.4,132.2 L121.2,144.4 L122.1,162.6 L122.9,146.9 L123.8,145.8 L124.6,138.3 L125.4,143.7 L126.3,170.8 L127.1,177.2 L128.0,183.3 L128.8,193.6 L129.6,194.4 L130.5,201.1 L131.3,192.9 L132.2,195.8 L133.0,178.7 L133.9,151.9 L134.7,150.8 L135.5,150.4 L136.4,146.9 L137.2,147.2 L138.1,185.1 L138.9,210.4 L139.7,193.3 L140.6,202.9 L141.4,196.1 L142.3,208.6 L143.1,214.7 L144.0,207.9 L144.8,215.8 L145.6,213.6 L146.5,219.7 L147.3,234.0 L148.2,237.2 L149.0,246.8 L149.8,248.3 L150.7,253.3 L151.5,250.1 L152.4,251.1 L153.2,244.3 L154.1,219.4 L154.9,207.9 L155.7,211.1 L156.6,206.1 L157.4,191.1 L158.3,184.4 L159.1,170.8 L159.9,149.4 L160.8,139.4 L161.6,161.2 L162.5,174.0 L163.3,187.9 L164.2,218.6 L165.0,237.6 L165.8,236.5 L166.7,223.6 L167.5,224.0 L168.4,217.2 L169.2,195.4 L170.0,188.3 L170.9,171.9 L171.7,138.3 L172.6,131.5 L173.4,132.6 L174.2,132.6 L175.1,123.3 L175.9,128.7 L176.8,137.2 L177.6,134.4 L178.5,133.7 L179.3,104.0 L180.1,110.5 L181.0,110.1 L181.8,132.2 L182.7,148.7 L183.5,189.4 L184.3,198.6 L185.2,210.8 L186.0,223.3 L186.9,235.4 L187.7,232.2 L188.6,231.5 L189.4,227.2 L190.2,224.4 L191.1,225.8 L191.9,234.3 L192.8,238.3 L193.6,233.3 L194.4,226.1 L195.3,218.6 L196.1,214.7 L197.0,206.9 L197.8,208.3 L198.7,204.7 L199.5,203.3 L200.3,200.1 L201.2,193.6 L202.0,196.5 L202.9,214.7 L203.7,213.6 L204.5,189.4 L205.4,185.1 L206.2,190.4 L207.1,207.6 L207.9,243.6 L208.8,265.8 L209.6,269.7 L210.4,270.8 L211.3,271.1 L212.1,270.4 L213.0,271.1 L213.8,261.5 L214.6,237.9 L215.5,229.4 L216.3,226.1 L217.2,229.0 L218.0,229.4 L218.8,228.3 L219.7,232.2 L220.5,232.9 L221.4,208.3 L222.2,202.2 L223.1,200.1 L223.9,184.0 L224.7,184.7 L225.6,210.1 L226.4,231.1 L227.3,267.6 L228.1,253.3 L228.9,273.3 L229.8,271.8 L230.6,269.3 L231.5,264.0 L232.3,250.8 L233.2,228.3 L234.0,214.7 L234.8,182.9 L235.7,159.0 L236.5,126.9 L237.4,154.0 L238.2,140.1 L239.0,163.3 L239.9,165.4 L240.7,165.8 L241.6,199.4 L242.4,237.6 L243.3,235.4 L244.1,236.8 L244.9,230.4 L245.8,227.6 L246.6,203.3 L247.5,173.3 L248.3,212.9 L249.1,165.1 L250.0,173.7 L250.8,206.9 L251.7,192.6 L252.5,170.4 L253.4,175.1 L254.2,201.1 L255.0,191.5 L255.9,184.4 L256.7,190.1 L257.6,195.8 L258.4,157.6 L259.2,171.9 L260.1,155.4 L260.9,150.4 L261.8,151.2 L262.6,206.5 L263.5,242.2 L264.3,259.7 L265.1,257.6 L266.0,262.6 L266.8,239.0 L267.7,237.9 L268.5,240.4 L269.3,266.1 L270.2,265.1 L271.0,265.4 L271.9,266.5 L272.7,251.8 L273.5,241.8 L274.4,235.4 L275.2,230.4 L276.1,223.6 L276.9,206.5 L277.8,208.3 L278.6,170.8 L279.4,179.7 L280.3,182.2 L281.1,163.7 L282.0,167.2 L282.8,172.2 L283.6,186.5 L284.5,160.1 L285.3,189.4 L286.2,163.3 L287.0,186.9 L287.9,234.0 L288.7,241.8 L289.5,235.8 L290.4,240.4 L291.2,229.4 L292.1,211.5 L292.9,220.8 L293.7,220.1 L294.6,191.5 L295.4,181.2 L296.3,197.9 L297.1,198.3 L298.0,200.1 L298.8,193.6 L299.6,190.1 L300.5,167.6 L301.3,186.9 L302.2,202.6 L303.0,200.1 L303.8,192.2 L304.7,191.1 L305.5,185.4 L306.4,204.7 L307.2,215.8 L308.1,216.1 L308.9,214.0 L309.7,227.9 L310.6,231.5 L311.4,221.9 L312.3,225.8 L313.1,231.5 L313.9,214.7 L314.8,167.6 L315.6,192.6 L316.5,189.0 L317.3,161.5 L318.1,197.6 L319.0,202.6 L319.8,190.4 L320.7,197.9 L321.5,198.3 L322.4,193.3 L323.2,198.6 L324.0,196.9 L324.9,205.1 L325.7,212.2 L326.6,204.7 L327.4,218.3 L328.2,207.2 L329.1,219.7 L329.9,231.8 L330.8,233.3 L331.6,234.0 L332.5,231.5 L333.3,232.2 L334.1,210.1 L335.0,196.5 L335.8,197.2 L336.7,186.5 L337.5,184.7 L338.3,205.8 L339.2,205.1 L340.0,187.6 L340.9,180.8 L341.7,184.7 L342.6,151.9 L343.4,223.3 L344.2,239.3 L345.1,239.0 L345.9,252.2 L346.8,249.0 L347.6,237.6 L348.4,232.6 L349.3,239.3 L350.1,252.9 L351.0,255.8 L351.8,258.6 L352.7,255.1 L353.5,250.4 L354.3,245.1 L355.2,238.6 L356.0,234.0 L356.9,234.3 L357.7,229.4 L358.5,226.9 L359.4,228.6 L360.2,226.5 L361.1,239.0 L361.9,255.1 L362.7,242.6 L363.6,235.1 L364.4,251.8 L365.3,252.9 L366.1,261.8 L367.0,260.4 L367.8,265.1 L368.6,261.1 L369.5,252.2 L370.3,259.3 L371.2,260.4 L372.0,258.3 L372.8,248.3 L373.7,250.4 L374.5,255.1 L375.4,239.0 L376.2,214.7 L377.1,231.5 L377.9,211.9 L378.7,188.6 L379.6,182.9 L380.4,182.6 L381.3,189.7 L382.1,195.4 L382.9,225.1 L383.8,254.3 L384.6,264.7 L385.5,276.8 L386.3,262.6 L387.2,227.9 L388.0,132.2 L388.8,167.6 L389.7,169.7 L390.5,201.1 L391.4,196.1 L392.2,183.3 L393.0,192.2 L393.9,164.0 L394.7,170.8 L395.6,199.0 L396.4,190.1 L397.3,196.1 L398.1,201.1 L398.9,190.8 L399.8,188.6 L400.6,201.9 L401.5,199.4 L402.3,214.7 L403.1,214.7 L404.0,192.2 L404.8,198.6 L405.7,195.4 L406.5,195.1 L407.3,205.1 L408.2,190.4 L409.0,214.4 L409.9,218.6 L410.7,205.1 L411.6,198.3 L412.4,197.9 L413.2,190.1 L414.1,239.3 L414.9,253.3 L415.8,246.1 L416.6,226.5 L417.4,234.7 L418.3,233.3 L419.1,230.8 L420.0,221.1 L420.8,221.9 L421.7,222.2 L422.5,184.7 L423.3,235.1 L424.2,242.9 L425.0,222.9 L425.9,229.0 L426.7,220.8 L427.5,271.1 L428.4,272.5 L429.2,278.6 L430.1,268.6 L430.9,265.4 L431.8,256.5 L432.6,267.6 L433.4,260.8 L434.3,259.0 L435.1,256.5 L436.0,255.8 L436.8,241.8 L437.6,234.3 L438.5,238.3 L439.3,241.1 L440.2,239.7 L441.0,248.6 L441.9,249.0 L442.7,226.1 L443.5,219.0 L444.4,240.4 L445.2,243.3 L446.1,234.0 L446.9,238.3 L447.7,267.6 L448.6,266.5 L449.4,269.0 L450.3,273.6 L451.1,279.3 L451.9,279.0 L452.8,279.7 L453.6,279.3 L454.5,277.5 L455.3,277.9 L456.2,271.8 L457.0,242.2 L457.8,233.3 L458.7,234.0 L459.5,212.9 L460.4,242.6 L461.2,233.6 L462.0,237.2 L462.9,224.7 L463.7,202.6 L464.6,211.1 L465.4,227.9 L466.3,203.6 L467.1,192.2 L467.9,241.1 L468.8,273.3 L469.6,279.0 L470.5,283.3 L471.3,286.1 L472.1,285.0 L473.0,283.6 L473.8,283.6 L474.7,280.4 L475.5,280.4 L476.4,276.5 L477.2,250.8 L478.0,257.2 L478.9,241.1 L479.7,242.6 L480.6,242.6 L481.4,244.3 L482.2,245.4 L483.1,241.8 L483.9,220.8 L484.8,224.4 L485.6,236.5 L486.5,228.3 L487.3,221.1 L488.1,234.7 L489.0,245.8 L489.8,238.6 L490.7,245.4 L491.5,247.9 L492.3,282.2 L493.2,283.3 L494.0,281.8 L494.9,279.7 L495.7,244.3 L496.5,263.3 L497.4,239.0 L498.2,235.8 L499.1,235.4 L499.9,230.4 L500.8,214.7 L501.6,196.9 L502.4,192.6 L503.3,206.5 L504.1,163.7 L505.0,180.8 L505.8,186.5 L506.6,190.1 L507.5,210.1 L508.3,236.1 L509.2,207.6 L510.0,223.6 L510.9,215.1 L511.7,224.4 L512.5,224.4 L513.4,198.3 L514.2,212.2 L515.1,212.2 L515.9,209.7 L516.7,211.1 L517.6,193.6 L518.4,198.3 L519.3,190.8 L520.1,187.2 L521.0,203.6 L521.8,198.3 L522.6,193.6 L523.5,215.4 L524.3,225.1 L525.2,225.4 L526.0,173.3 L526.8,111.9 L527.7,120.5 L528.5,129.7 L529.4,167.9 L530.2,177.6 L531.1,169.0 L531.9,156.2 L532.7,162.6 L533.6,171.9 L534.4,164.0 L535.3,175.1 L536.1,147.2 L536.9,177.2 L537.8,161.5 L538.6,162.2 L539.5,146.2 L540.3,164.0 L541.2,175.1 L542.0,144.7 L542.8,128.7 L543.7,145.4 L544.5,165.1 L545.4,177.9 L546.2,196.9 L547.0,201.9 L547.9,192.6 L548.7,226.9 L549.6,240.1 L550.4,241.8 L551.2,242.9 L552.1,246.1 L552.9,245.4 L553.8,236.5 L554.6,232.6 L555.5,237.6 L556.3,229.7 L557.1,196.9 L558.0,182.9 L558.8,175.8 L559.7,176.9 L560.5,181.9 L561.3,192.9 L562.2,198.3 L563.0,200.4 L563.9,200.1 L564.7,171.2 L565.6,182.6 L566.4,204.0 L567.2,206.5 L568.1,205.1 L568.9,206.1 L569.8,211.1 L570.6,225.8 L571.4,220.8 L572.3,227.9 L573.1,222.9 L574.0,215.8 L574.8,195.8 L575.7,185.8 L576.5,156.9 L577.3,132.2 L578.2,117.6 L579.0,100.8 L580.7,130.1 L581.5,136.5 L582.4,126.5 L583.2,139.4 L584.1,146.5 L584.9,146.5 L585.8,150.1 L586.6,157.6 L587.4,180.4 L588.3,203.3 L589.1,214.0 L590.0,241.1 L590.8,233.6 L591.6,220.1 L592.5,210.8 L593.3,204.0 L594.2,182.9 L595.0,190.1 L595.8,207.6 L596.7,235.4 L597.5,236.5 L598.4,209.7 L599.2,199.4 L600.1,200.1 L600.9,201.9 L601.7,200.1 L602.6,200.8 L603.4,194.4 L604.3,186.5 L605.1,181.2 L605.9,180.1 L606.8,188.3 L607.6,205.1 L608.5,215.8 L609.3,223.6 L610.2,218.6 L611.0,185.4 L611.8,158.3 L612.7,137.2 L613.5,129.7 L614.4,165.8 L615.2,147.6 L616.0,144.4 L616.9,138.0 L617.7,140.1 L618.6,102.3 L619.4,110.8 L620.3,107.6 L621.1,87.6 L621.9,106.5 L622.8,113.0 L623.6,117.6 L624.5,71.2 L625.3,91.9 L626.1,132.2 L627.0,202.6 L627.8,207.6 L628.7,206.5 L629.5,213.3 L630.4,210.1 L631.2,219.4 L632.0,197.6 L632.9,172.6 L633.7,154.4 L634.6,143.7 L635.4,141.2 L636.2,137.2 L637.1,152.6 L637.9,173.3 L638.8,157.2 L639.6,129.0 L640.4,143.7 L641.3,160.8 L642.1,188.6 L643.0,202.6 L643.8,205.4 L644.7,204.7 L645.5,209.0 L646.3,225.8 L647.2,216.5 L648.0,218.6 L648.9,220.1 L649.7,245.1 L650.5,291.8 L651.4,299.0 L652.2,298.3 L653.1,295.0 L653.9,298.3 L654.8,288.6 L655.6,283.3 L656.4,265.8 L657.3,250.8 L658.1,245.8 L659.0,221.5 L659.8,221.1 L660.6,209.7 L661.5,200.4 L662.3,197.9 L663.2,190.1 L664.0,180.8 L664.9,220.8 L665.7,172.2 L666.5,188.3 L667.4,158.3 L668.2,195.4 L669.1,207.2 L669.9,232.2 L670.7,234.3 L671.6,226.9 L672.4,241.5 L673.3,251.1 L674.1,252.9 L675.0,258.3 L675.8,259.3 L676.6,262.6 L677.5,261.5 L678.3,262.9 L679.2,253.6 L680.0,230.1" stroke="#8c564b" stroke-width="2" fill="none" opacity="0.8"/>
<!-- Forecast Difference -->
<path d="M80.0,420.0 L80.8,420.0 L81.7,420.0 L82.5,420.0 L83.4,420.0 L84.2,420.0 L85.0,420.0 L85.9,420.0 L86.7,420.0 L87.6,420.0 L88.4,420.0 L89.3,420.0 L90.1,420.0 L90.9,420.0 L91.8,420.0 L92.6,420.0 L93.5,420.0 L94.3,420.0 L95.1,420.0 L96.0,420.0 L96.8,420.0 L97.7,420.0 L98.5,420.0 L99.4,420.0 L100.2,420.0 L101.0,420.0 L101.9,420.0 L102.7,420.0 L103.6,420.0 L104.4,420.0 L105.2,420.0 L106.1,420.0 L106.9,420.0 L107.8,420.0 L108.6,420.0 L109.5,420.0 L110.3,420.0 L111.1,420.0 L112.0,420.0 L112.8,420.0 L113.7,420.0 L114.5,420.0 L115.3,420.0 L116.2,420.0 L117.0,420.0 L117.9,420.0 L118.7,420.0 L119.6,420.0 L120.4,420.0 L121.2,420.0 L122.1,420.0 L122.9,420.0 L123.8,420.0 L124.6,420.0 L125.4,420.0 L126.3,420.0 L127.1,420.0 L128.0,420.0 L128.8,420.0 L129.6,420.0 L130.5,420.0 L131.3,420.0 L132.2,420.0 L133.0,420.0 L133.9,420.0 L134.7,420.0 L135.5,420.0 L136.4,420.0 L137.2,420.0 L138.1,420.0 L138.9,420.0 L139.7,420.0 L140.6,420.0 L141.4,420.0 L142.3,420.0 L143.1,420.0 L144.0,420.0 L144.8,420.0 L145.6,420.0 L146.5,420.0 L147.3,420.0 L148.2,420.0 L149.0,420.0 L149.8,420.0 L150.7,420.0 L151.5,420.0 L152.4,420.0 L153.2,420.0 L154.1,420.0 L154.9,420.0 L155.7,420.0 L156.6,420.0 L157.4,420.0 L158.3,420.0 L159.1,420.0 L159.9,420.0 L160.8,420.0 L161.6,420.0 L162.5,420.0 L163.3,420.0 L164.2,420.0 L165.0,420.0 L165.8,420.0 L166.7,420.0 L167.5,420.0 L168.4,420.0 L169.2,420.0 L170.0,420.0 L170.9,420.0 L171.7,420.0 L172.6,420.0 L173.4,420.0 L174.2,420.0 L175.1,420.0 L175.9,420.0 L176.8,420.0 L177.6,420.0 L178.5,420.0 L179.3,420.0 L180.1,420.0 L181.0,420.0 L181.8,420.0 L182.7,420.0 L183.5,420.0 L184.3,420.0 L185.2,420.0 L186.0,420.0 L186.9,420.0 L187.7,420.0 L188.6,420.0 L189.4,420.0 L190.2,420.0 L191.1,420.0 L191.9,420.0 L192.8,420.0 L193.6,420.0 L194.4,420.0 L195.3,420.0 L196.1,420.0 L197.0,420.0 L197.8,420.0 L198.7,420.0 L199.5,420.0 L200.3,420.0 L201.2,420.0 L202.0,420.0 L202.9,420.0 L203.7,420.0 L204.5,420.0 L205.4,420.0 L206.2,420.0 L207.1,420.0 L207.9,420.0 L208.8,420.0 L209.6,420.0 L210.4,420.0 L211.3,420.0 L212.1,420.0 L213.0,420.0 L213.8,420.0 L214.6,420.0 L215.5,420.0 L216.3,420.0 L217.2,420.0 L218.0,420.0 L218.8,420.0 L219.7,420.0 L220.5,420.0 L221.4,420.0 L222.2,420.0 L223.1,420.0 L223.9,420.0 L224.7,420.0 L225.6,420.0 L226.4,420.0 L227.3,420.0 L228.1,420.0 L228.9,420.0 L229.8,420.0 L230.6,420.0 L231.5,420.0 L232.3,420.0 L233.2,420.0 L234.0,420.0 L234.8,420.0 L235.7,420.0 L236.5,420.0 L237.4,420.0 L238.2,420.0 L239.0,420.0 L239.9,420.0 L240.7,420.0 L241.6,420.0 L242.4,420.0 L243.3,420.0 L244.1,420.0 L244.9,420.0 L245.8,420.0 L246.6,420.0 L247.5,420.0 L248.3,420.0 L249.1,420.0 L250.0,420.0 L250.8,420.0 L251.7,420.0 L252.5,420.0 L253.4,420.0 L254.2,420.0 L255.0,420.0 L255.9,420.0 L256.7,420.0 L257.6,420.0 L258.4,420.0 L259.2,420.0 L260.1,420.0 L260.9,420.0 L261.8,420.0 L262.6,420.0 L263.5,420.0 L264.3,420.0 L265.1,420.0 L266.0,420.0 L266.8,420.0 L267.7,420.0 L268.5,420.0 L269.3,420.0 L270.2,420.0 L271.0,420.0 L271.9,420.0 L272.7,420.0 L273.5,420.0 L274.4,420.0 L275.2,420.0 L276.1,420.0 L276.9,420.0 L277.8,420.0 L278.6,420.0 L279.4,420.0 L280.3,420.0 L281.1,420.0 L282.0,420.0 L282.8,420.0 L283.6,420.0 L284.5,420.0 L285.3,420.0 L286.2,420.0 L287.0,420.0 L287.9,420.0 L288.7,420.0 L289.5,420.0 L290.4,420.0 L291.2,420.0 L292.1,420.0 L292.9,420.0 L293.7,420.0 L294.6,420.0 L295.4,420.0 L296.3,420.0 L297.1,420.0 L298.0,420.0 L298.8,420.0 L299.6,420.0 L300.5,420.0 L301.3,420.0 L302.2,420.0 L303.0,420.0 L303.8,420.0 L304.7,420.0 L305.5,420.0 L306.4,420.0 L307.2,420.0 L308.1,420.0 L308.9,420.0 L309.7,420.0 L310.6,420.0 L311.4,420.0 L312.3,420.0 L313.1,420.0 L313.9,420.0 L314.8,420.0 L315.6,420.0 L316.5,420.0 L317.3,420.0 L318.1,420.0 L319.0,420.0 L319.8,420.0 L320.7,420.0 L321.5,420.0 L322.4,420.0 L323.2,420.0 L324.0,420.0 L324.9,420.0 L325.7,420.0 L326.6,420.0 L327.4,420.0 L328.2,420.0 L329.1,420.0 L329.9,420.0 L330.8,420.0 L331.6,420.0 L332.5,420.0 L333.3,420.0 L334.1,420.0 L335.0,420.0 L335.8,420.0 L336.7,420.0 L337.5,420.0 L338.3,420.0 L339.2,420.0 L340.0,420.0 L340.9,420.0 L341.7,420.0 L342.6,420.0 L343.4,420.0 L344.2,420.0 L345.1,420.0 L345.9,420.0 L346.8,420.0 L347.6,420.0 L348.4,420.0 L349.3,420.0 L350.1,420.0 L351.0,420.0 L351.8,420.0 L352.7,420.0 L353.5,420.0 L354.3,420.0 L355.2,420.0 L356.0,420.0 L356.9,420.0 L357.7,420.0 L358.5,420.0 L359.4,420.0 L360.2,420.0 L361.1,420.0 L361.9,420.0 L362.7,420.0 L363.6,420.0 L364.4,420.0 L365.3,420.0 L366.1,420.0 L367.0,420.0 L367.8,420.0 L368.6,420.0 L369.5,420.0 L370.3,420.0 L371.2,420.0 L372.0,420.0 L372.8,420.0 L373.7,420.0 L374.5,420.0 L375.4,420.0 L376.2,420.0 L377.1,420.0 L377.9,420.0 L378.7,420.0 L379.6,420.0 L380.4,420.0 L381.3,420.0 L382.1,420.0 L382.9,420.0 L383.8,420.0 L384.6,420.0 L385.5,420.0 L386.3,420.0 L387.2,420.0 L388.0,420.0 L388.8,420.0 L389.7,420.0 L390.5,420.0 L391.4,420.0 L392.2,420.0 L393.0,420.0 L393.9,420.0 L394.7,420.0 L395.6,420.0 L396.4,420.0 L397.3,420.0 L398.1,420.0 L398.9,420.0 L399.8,420.0 L400.6,420.0 L401.5,420.0 L402.3,420.0 L403.1,420.0 L404.0,420.0 L404.8,420.0 L405.7,420.0 L406.5,420.0 L407.3,420.0 L408.2,420.0 L409.0,420.0 L409.9,420.0 L410.7,420.0 L411.6,420.0 L412.4,420.0 L413.2,420.0 L414.1,420.0 L414.9,420.0 L415.8,420.0 L416.6,420.0 L417.4,420.0 L418.3,420.0 L419.1,420.0 L420.0,420.0 L420.8,420.0 L421.7,420.0 L422.5,420.0 L423.3,420.0 L424.2,420.0 L425.0,420.0 L425.9,420.0 L426.7,420.0 L427.5,420.0 L428.4,420.0 L429.2,420.0 L430.1,420.0 L430.9,420.0 L431.8,420.0 L432.6,420.0 L433.4,420.0 L434.3,420.0 L435.1,420.0 L436.0,420.0 L436.8,420.0 L437.6,420.0 L438.5,420.0 L439.3,420.0 L440.2,420.0 L441.0,420.0 L441.9,420.0 L442.7,420.0 L443.5,420.0 L444.4,420.0 L445.2,420.0 L446.1,420.0 L446.9,420.0 L447.7,420.0 L448.6,420.0 L449.4,420.0 L450.3,420.0 L451.1,420.0 L451.9,420.0 L452.8,420.0 L453.6,420.0 L454.5,420.0 L455.3,420.0 L456.2,420.0 L457.0,420.0 L457.8,420.0 L458.7,420.0 L459.5,420.0 L460.4,420.0 L461.2,420.0 L462.0,420.0 L462.9,420.0 L463.7,420.0 L464.6,420.0 L465.4,420.0 L466.3,420.0 L467.1,420.0 L467.9,420.0 L468.8,420.0 L469.6,420.0 L470.5,420.0 L471.3,420.0 L472.1,420.0 L473.0,420.0 L473.8,420.0 L474.7,420.0 L475.5,420.0 L476.4,420.0 L477.2,420.0 L478.0,420.0 L478.9,420.0 L479.7,420.0 L480.6,420.0 L481.4,420.0 L482.2,420.0 L483.1,420.0 L483.9,420.0 L484.8,420.0 L485.6,420.0 L486.5,420.0 L487.3,420.0 L488.1,420.0 L489.0,420.0 L489.8,420.0 L490.7,420.0 L491.5,420.0 L492.3,420.0 L493.2,420.0 L494.0,420.0 L494.9,420.0 L495.7,420.0 L496.5,420.0 L497.4,420.0 L498.2,420.0 L499.1,420.0 L499.9,420.0 L500.8,420.0 L501.6,420.0 L502.4,420.0 L503.3,420.0 L504.1,420.0 L505.0,420.0 L505.8,420.0 L506.6,420.0 L507.5,420.0 L508.3,420.0 L509.2,420.0 L510.0,420.0 L510.9,420.0 L511.7,420.0 L512.5,420.0 L513.4,420.0 L514.2,420.0 L515.1,420.0 L515.9,420.0 L516.7,420.0 L517.6,420.0 L518.4,420.0 L519.3,420.0 L520.1,420.0 L521.0,420.0 L521.8,420.0 L522.6,420.0 L523.5,420.0 L524.3,420.0 L525.2,420.0 L526.0,420.0 L526.8,420.0 L527.7,420.0 L528.5,420.0 L529.4,420.0 L530.2,420.0 L531.1,420.0 L531.9,420.0 L532.7,420.0 L533.6,420.0 L534.4,420.0 L535.3,420.0 L536.1,420.0 L536.9,420.0 L537.8,420.0 L538.6,420.0 L539.5,420.0 L540.3,420.0 L541.2,420.0 L542.0,420.0 L542.8,420.0 L543.7,420.0 L544.5,420.0 L545.4,420.0 L546.2,420.0 L547.0,420.0 L547.9,420.0 L548.7,420.0 L549.6,420.0 L550.4,420.0 L551.2,420.0 L552.1,420.0 L552.9,420.0 L553.8,420.0 L554.6,420.0 L555.5,420.0 L556.3,420.0 L557.1,420.0 L558.0,420.0 L558.8,420.0 L559.7,420.0 L560.5,420.0 L561.3,420.0 L562.2,420.0 L563.0,420.0 L563.9,420.0 L564.7,420.0 L565.6,420.0 L566.4,420.0 L567.2,420.0 L568.1,420.0 L568.9,420.0 L569.8,420.0 L570.6,420.0 L571.4,420.0 L572.3,420.0 L573.1,420.0 L574.0,420.0 L574.8,420.0 L575.7,420.0 L576.5,420.0 L577.3,420.0 L578.2,420.0 L579.0,420.0 L579.9,420.0 L580.7,420.0 L581.5,420.0 L582.4,420.0 L583.2,420.0 L584.1,420.0 L584.9,420.0 L585.8,420.0 L586.6,420.0 L587.4,420.0 L588.3,420.0 L589.1,420.0 L590.0,420.0 L590.8,420.0 L591.6,420.0 L592.5,420.0 L593.3,420.0 L594.2,420.0 L595.0,420.0 L595.8,420.0 L596.7,420.0 L597.5,420.0 L598.4,420.0 L599.2,420.0 L600.1,420.0 L600.9,420.0 L601.7,420.0 L602.6,420.0 L603.4,420.0 L604.3,420.0 L605.1,420.0 L605.9,420.0 L606.8,420.0 L607.6,420.0 L608.5,420.0 L609.3,420.0 L610.2,420.0 L611.0,420.0 L611.8,420.0 L612.7,420.0 L613.5,420.0 L614.4,420.0 L615.2,420.0 L616.0,420.0 L616.9,420.0 L617.7,420.0 L618.6,420.0 L619.4,420.0 L620.3,420.0 L621.1,420.0 L621.9,420.0 L622.8,420.0 L623.6,420.0 L624.5,420.0 L625.3,420.0 L626.1,420.0 L627.0,420.0 L627.8,420.0 L628.7,420.0 L629.5,420.0 L630.4,420.0 L631.2,420.0 L632.0,420.0 L632.9,420.0 L633.7,420.0 L634.6,420.0 L635.4,420.0 L636.2,420.0 L637.1,420.0 L637.9,420.0 L638.8,420.0 L639.6,420.0 L640.4,420.0 L641.3,420.0 L642.1,420.0 L643.0,420.0 L643.8,420.0 L644.7,420.0 L645.5,420.0 L646.3,420.0 L647.2,420.0 L648.0,420.0 L648.9,420.0 L649.7,420.0 L650.5,420.0 L651.4,420.0 L652.2,420.0 L653.1,420.0 L653.9,420.0 L654.8,420.0 L655.6,420.0 L656.4,420.0 L657.3,420.0 L658.1,420.0 L659.0,420.0 L659.8,420.0 L660.6,420.0 L661.5,420.0 L662.3,420.0 L663.2,420.0 L664.0,420.0 L664.9,420.0 L665.7,420.0 L666.5,420.0 L667.4,420.0 L668.2,420.0 L669.1,420.0 L669.9,420.0 L670.7,420.0 L671.6,420.0 L672.4,420.0 L673.3,420.0 L674.1,420.0 L675.0,420.0 L675.8,420.0 L676.6,420.0 L677.5,420.0 L678.3,420.0 L679.2,420.0 L680.0,420.0" stroke="#e377c2" stroke-width="2" fill="none" opacity="0.8"/>

<!-- Legend -->
<line x1="690" y1="70" x2="705" y2="70" stroke="#1f77b4" stroke-width="3"/>
<text x="710" y="74" class="legend">Wind Generation</text>
<line x1="690" y1="88" x2="705" y2="88" stroke="#ff7f0e" stroke-width="3"/>
<text x="710" y="92" class="legend">Hydro Generation</text>
<line x1="690" y1="106" x2="705" y2="106" stroke="#2ca02c" stroke-width="3"/>
<text x="710" y="110" class="legend">Thermal Generation</text>
<line x1="690" y1="124" x2="705" y2="124" stroke="#d62728" stroke-width="3"/>
<text x="710" y="128" class="legend">Solar Generation</text>
<line x1="690" y1="142" x2="705" y2="142" stroke="#9467bd" stroke-width="3"/>
<text x="710" y="146" class="legend">Forecast</text>
<line x1="690" y1="160" x2="705" y2="160" stroke="#8c564b" stroke-width="3"/>
<text x="710" y="164" class="legend">Total Generation</text>
<line x1="690" y1="178" x2="705" y2="178" stroke="#e377c2" stroke-width="3"/>
<text x="710" y="182" class="legend">Forecast Difference</text>

<!-- Date range -->
<text x="80" y="495" class="legend">Range: 08/30 - 09/29/2025 (714 records)</text>
</svg>