<?xml version="1.0" encoding="UTF-8"?>
<svg width="800" height="500" xmlns="http://www.w3.org/2000/svg">
<style>
.axis-line { stroke: #333; stroke-width: 1; }
.grid-line { stroke: #ddd; stroke-width: 0.5; }
.title { font: 16px Arial; text-anchor: middle; fill: #333; }
.axis-label { font: 12px Arial; text-anchor: middle; fill: #666; }
.legend { font: 10px Arial; fill: #333; }
</style>

<!-- Title -->
<text x="400.0" y="25" class="title">Northwestern Energy Generation Data - Past 30 Days</text>

<!-- Plot area background -->
<rect x="80" y="50" width="600" height="370" fill="white" stroke="#ddd"/>

<!-- Y-axis -->
<line x1="80" y1="50" x2="80" y2="420" class="axis-line"/>
<text x="30" y="235.0" class="axis-label" transform="rotate(-90, 30, 235.0)">Generation (MW)</text>

<!-- X-axis -->
<line x1="80" y1="420" x2="680" y2="420" class="axis-line"/>
<text x="380.0" y="480" class="axis-label">Time</text>
<line x1="80" y1="420.0" x2="680" y2="420.0" class="grid-line"/>
<text x="70" y="425.0" class="legend" text-anchor="end">0</text>
<line x1="80" y1="327.5" x2="680" y2="327.5" class="grid-line"/>
<text x="70" y="332.5" class="legend" text-anchor="end">302</text>
<line x1="80" y1="235.0" x2="680" y2="235.0" class="grid-line"/>
<text x="70" y="240.0" class="legend" text-anchor="end">604</text>
<line x1="80" y1="142.5" x2="680" y2="142.5" class="grid-line"/>
<text x="70" y="147.5" class="legend" text-anchor="end">906</text>
<line x1="80" y1="50.0" x2="680" y2="50.0" class="grid-line"/>
<text x="70" y="55.0" class="legend" text-anchor="end">1209</text>
<!-- Wind Generation -->
<path d="M80.0,406.8 L80.8,404.1 L81.7,399.8 L82.5,398.3 L83.4,385.4 L84.2,377.8 L85.0,372.9 L85.9,371.3 L86.7,349.9 L87.6,345.6 L88.4,353.0 L89.3,358.2 L90.1,347.1 L90.9,358.2 L91.8,363.7 L92.6,378.1 L93.5,401.3 L94.3,403.5 L95.1,407.4 L96.0,416.3 L96.8,415.4 L97.7,412.0 L98.5,408.4 L99.4,403.5 L100.2,390.0 L101.0,384.5 L101.9,381.4 L102.7,391.2 L103.6,379.3 L104.4,372.2 L105.2,377.4 L106.1,371.9 L106.9,368.6 L107.8,369.5 L108.6,361.2 L109.5,365.8 L110.3,367.3 L111.1,348.4 L112.0,364.3 L112.8,355.4 L113.7,372.5 L114.5,387.5 L115.3,380.8 L116.2,360.6 L117.0,341.9 L117.9,318.1 L118.7,318.4 L119.6,327.2 L120.4,342.5 L121.2,336.7 L122.1,352.3 L122.9,379.3 L123.8,395.5 L124.6,406.2 L125.4,367.6 L126.3,370.1 L127.1,383.6 L128.0,387.2 L128.8,386.6 L129.6,372.9 L130.5,387.2 L131.3,384.2 L132.2,389.7 L133.0,399.8 L133.9,391.2 L134.7,390.3 L135.5,400.7 L136.4,399.2 L137.2,397.0 L138.1,379.3 L138.9,389.7 L139.7,390.0 L140.6,400.1 L141.4,401.9 L142.3,404.1 L143.1,411.7 L144.0,412.7 L144.8,406.2 L145.6,394.6 L146.5,391.5 L147.3,381.4 L148.2,370.7 L149.0,368.6 L149.8,365.5 L150.7,363.7 L151.5,371.6 L152.4,361.5 L153.2,367.6 L154.1,368.6 L154.9,358.2 L155.7,326.0 L156.6,368.0 L157.4,384.2 L158.3,366.1 L159.1,387.5 L159.9,358.8 L160.8,365.5 L161.6,372.2 L162.5,387.2 L163.3,390.0 L164.2,399.5 L165.0,388.8 L165.8,403.2 L166.7,405.6 L167.5,397.0 L168.4,395.5 L169.2,397.3 L170.0,399.8 L170.9,412.0 L171.7,416.6 L172.6,416.9 L173.4,417.9 L174.2,417.6 L175.1,416.3 L175.9,416.6 L176.8,415.4 L177.6,413.9 L178.5,414.5 L179.3,416.9 L180.1,415.7 L181.0,412.3 L181.8,409.0 L182.7,406.8 L183.5,405.6 L184.3,411.4 L185.2,408.4 L186.0,409.0 L186.9,406.8 L187.7,403.8 L188.6,407.4 L189.4,407.4 L190.2,397.0 L191.1,389.7 L191.9,379.6 L192.8,394.6 L193.6,412.3 L194.4,411.1 L195.3,410.8 L196.1,411.7 L197.0,415.1 L197.8,411.4 L198.7,406.8 L199.5,399.2 L200.3,383.0 L201.2,371.0 L202.0,361.2 L202.9,348.1 L203.7,377.1 L204.5,369.8 L205.4,373.5 L206.2,367.6 L207.1,365.5 L207.9,364.3 L208.8,359.4 L209.6,353.0 L210.4,332.7 L211.3,333.1 L212.1,339.5 L213.0,345.9 L213.8,355.1 L214.6,358.8 L215.5,365.2 L216.3,368.9 L217.2,384.8 L218.0,396.4 L218.8,405.9 L219.7,410.5 L220.5,409.3 L221.4,409.9 L222.2,411.1 L223.1,411.7 L223.9,413.3 L224.7,412.0 L225.6,403.8 L226.4,398.6 L227.3,400.1 L228.1,404.1 L228.9,405.3 L229.8,409.6 L230.6,410.2 L231.5,409.3 L232.3,407.4 L233.2,398.3 L234.0,386.9 L234.8,374.7 L235.7,380.2 L236.5,397.0 L237.4,408.4 L238.2,413.3 L239.0,415.4 L239.9,416.6 L240.7,418.5 L241.6,413.9 L242.4,406.5 L243.3,413.0 L244.1,413.6 L244.9,409.0 L245.8,386.6 L246.6,381.7 L247.5,385.7 L248.3,372.5 L249.1,379.3 L250.0,354.8 L250.8,343.8 L251.7,363.7 L252.5,389.4 L253.4,371.9 L254.2,335.8 L255.0,322.3 L255.9,353.6 L256.7,323.3 L257.6,337.6 L258.4,340.7 L259.2,317.7 L260.1,330.6 L260.9,326.9 L261.8,348.1 L262.6,344.1 L263.5,348.4 L264.3,359.1 L265.1,364.3 L266.0,377.4 L266.8,373.5 L267.7,348.1 L268.5,365.5 L269.3,357.5 L270.2,329.1 L271.0,359.1 L271.9,359.1 L272.7,322.9 L273.5,314.7 L274.4,313.5 L275.2,321.1 L276.1,341.9 L276.9,328.5 L277.8,325.1 L278.6,322.9 L279.4,315.3 L280.3,312.5 L281.1,314.4 L282.0,348.4 L282.8,322.3 L283.6,314.4 L284.5,321.7 L285.3,339.8 L286.2,318.7 L287.0,318.7 L287.9,317.1 L288.7,338.9 L289.5,352.0 L290.4,332.1 L291.2,329.1 L292.1,346.2 L292.9,356.6 L293.7,357.2 L294.6,365.8 L295.4,370.7 L296.3,374.4 L297.1,396.1 L298.0,398.9 L298.8,400.4 L299.6,392.4 L300.5,396.4 L301.3,404.1 L302.2,407.8 L303.0,398.0 L303.8,398.3 L304.7,403.2 L305.5,398.0 L306.4,395.8 L307.2,400.1 L308.1,398.3 L308.9,405.9 L309.7,408.1 L310.6,413.0 L311.4,411.1 L312.3,382.3 L313.1,372.2 L313.9,349.0 L314.8,349.6 L315.6,368.6 L316.5,364.9 L317.3,382.0 L318.1,373.8 L319.0,351.1 L319.8,362.4 L320.7,367.3 L321.5,367.6 L322.4,380.2 L323.2,389.7 L324.0,369.2 L324.9,383.0 L325.7,377.4 L326.6,376.2 L327.4,375.6 L328.2,344.4 L329.1,335.5 L329.9,333.7 L330.8,332.1 L331.6,355.4 L332.5,353.3 L333.3,357.9 L334.1,332.1 L335.0,342.8 L335.8,363.4 L336.7,365.5 L337.5,366.1 L338.3,382.0 L339.2,370.7 L340.0,376.2 L340.9,374.7 L341.7,379.9 L342.6,371.3 L343.4,377.4 L344.2,376.5 L345.1,362.1 L345.9,364.6 L346.8,374.7 L347.6,380.8 L348.4,390.3 L349.3,375.3 L350.1,389.7 L351.0,405.6 L351.8,405.0 L352.7,397.0 L353.5,395.5 L354.3,401.9 L355.2,404.4 L356.0,413.6 L356.9,407.8 L357.7,403.8 L358.5,398.6 L359.4,406.2 L360.2,412.3 L361.1,414.2 L361.9,416.0 L362.7,415.1 L363.6,411.1 L364.4,409.3 L365.3,412.0 L366.1,401.9 L367.0,389.1 L367.8,376.5 L368.6,365.5 L369.5,357.5 L370.3,358.8 L371.2,353.3 L372.0,374.1 L372.8,370.4 L373.7,369.5 L374.5,371.6 L375.4,372.9 L376.2,381.7 L377.1,396.4 L377.9,395.5 L378.7,392.8 L379.6,377.1 L380.4,370.7 L381.3,357.2 L382.1,360.6 L382.9,371.0 L383.8,364.3 L384.6,379.3 L385.5,391.2 L386.3,390.6 L387.2,367.0 L388.0,352.6 L388.8,369.8 L389.7,363.4 L390.5,371.9 L391.4,369.5 L392.2,386.0 L393.0,374.7 L393.9,374.1 L394.7,378.7 L395.6,390.0 L396.4,398.3 L397.3,401.0 L398.1,401.3 L398.9,405.6 L399.8,398.0 L400.6,402.2 L401.5,388.5 L402.3,375.9 L403.1,366.1 L404.0,374.7 L404.8,371.9 L405.7,373.8 L406.5,372.5 L407.3,386.9 L408.2,390.3 L409.0,391.5 L409.9,390.6 L410.7,399.2 L411.6,387.2 L412.4,392.1 L413.2,404.4 L414.1,394.3 L414.9,383.3 L415.8,390.3 L416.6,405.0 L417.4,399.8 L418.3,388.2 L419.1,393.7 L420.0,398.3 L420.8,405.3 L421.7,398.0 L422.5,392.1 L423.3,393.7 L424.2,397.3 L425.0,401.0 L425.9,403.8 L426.7,412.0 L427.5,412.3 L428.4,414.5 L429.2,416.9 L430.1,416.0 L430.9,415.7 L431.8,414.8 L432.6,409.0 L433.4,408.7 L434.3,406.5 L435.1,409.9 L436.0,414.8 L436.8,417.2 L437.6,409.3 L438.5,409.6 L439.3,413.9 L440.2,416.6 L441.0,417.9 L441.9,413.9 L442.7,410.2 L443.5,409.9 L444.4,408.4 L445.2,411.4 L446.1,413.6 L446.9,413.3 L447.7,395.8 L448.6,376.2 L449.4,379.9 L450.3,361.8 L451.1,362.7 L451.9,368.3 L452.8,375.6 L453.6,372.2 L454.5,378.1 L455.3,386.9 L456.2,402.2 L457.0,402.9 L457.8,406.2 L458.7,410.2 L459.5,413.6 L460.4,415.4 L461.2,410.8 L462.0,401.9 L462.9,392.1 L463.7,392.1 L464.6,377.4 L465.4,367.0 L466.3,379.3 L467.1,368.3 L467.9,354.5 L468.8,359.4 L469.6,343.2 L470.5,334.9 L471.3,353.6 L472.1,352.3 L473.0,352.6 L473.8,352.3 L474.7,365.2 L475.5,377.8 L476.4,382.3 L477.2,379.0 L478.0,383.3 L478.9,400.4 L479.7,403.2 L480.6,407.8 L481.4,407.8 L482.2,406.8 L483.1,406.8 L483.9,409.0 L484.8,411.7 L485.6,412.7 L486.5,414.2 L487.3,415.7 L488.1,416.9 L489.0,416.0 L489.8,413.6 L490.7,413.9 L491.5,409.9 L492.3,416.6 L493.2,412.0 L494.0,416.3 L494.9,405.6 L495.7,404.7 L496.5,390.3 L497.4,376.2 L498.2,408.4 L499.1,409.6 L499.9,407.4 L500.8,415.7 L501.6,417.9 L502.4,417.2 L503.3,416.6 L504.1,413.6 L505.0,413.0 L505.8,413.6 L506.6,416.3 L507.5,415.4 L508.3,413.9 L509.2,412.3 L510.0,406.5 L510.9,389.1 L511.7,389.4 L512.5,354.8 L513.4,336.4 L514.2,324.2 L515.1,315.3 L515.9,325.4 L516.7,333.7 L517.6,337.6 L518.4,362.7 L519.3,371.0 L520.1,387.9 L521.0,397.3 L521.8,390.3 L522.6,384.8 L523.5,398.3 L524.3,396.7 L525.2,391.8 L526.0,379.3 L526.8,385.4 L527.7,394.0 L528.5,400.1 L529.4,405.9 L530.2,404.7 L531.1,405.9 L531.9,387.2 L532.7,388.5 L533.6,400.7 L534.4,403.2 L535.3,401.0 L536.1,387.9 L536.9,390.0 L537.8,381.4 L538.6,385.7 L539.5,384.5 L540.3,383.6 L541.2,389.1 L542.0,395.5 L542.8,368.9 L543.7,376.8 L544.5,394.9 L545.4,417.9 L546.2,405.9 L547.0,403.8 L547.9,411.1 L548.7,416.6 L549.6,420.0 L550.4,417.9 L551.2,410.8 L552.1,408.7 L552.9,404.4 L553.8,405.6 L554.6,401.3 L555.5,394.9 L556.3,388.8 L557.1,400.4 L558.0,371.6 L558.8,380.5 L559.7,402.2 L560.5,372.9 L561.3,395.5 L562.2,403.2 L563.0,377.8 L563.9,372.5 L564.7,369.2 L565.6,388.2 L566.4,388.5 L567.2,395.8 L568.1,410.8 L568.9,419.4 L569.8,419.4 L570.6,419.1 L571.4,417.9 L572.3,418.5 L573.1,409.9 L574.0,399.2 L574.8,384.2 L575.7,394.0 L576.5,358.8 L577.3,366.7 L578.2,340.4 L579.0,356.3 L579.9,364.6 L580.7,356.3 L581.5,341.0 L582.4,332.4 L583.2,349.6 L584.1,354.5 L584.9,370.4 L585.8,389.7 L586.6,385.1 L587.4,402.2 L588.3,417.2 L589.1,414.2 L590.0,409.3 L590.8,408.7 L591.6,401.0 L592.5,393.7 L593.3,391.2 L594.2,383.6 L595.0,382.3 L595.8,384.8 L596.7,360.9 L597.5,349.6 L598.4,339.8 L599.2,330.6 L600.1,344.1 L600.9,360.6 L601.7,359.7 L602.6,351.4 L603.4,335.8 L604.3,330.3 L605.1,331.8 L605.9,330.0 L606.8,326.0 L607.6,351.7 L608.5,351.4 L609.3,351.4 L610.2,352.3 L611.0,353.3 L611.8,348.1 L612.7,350.8 L613.5,352.6 L614.4,354.2 L615.2,356.9 L616.0,316.5 L616.9,318.4 L617.7,323.6 L618.6,332.7 L619.4,357.5 L620.3,345.6 L621.1,347.1 L621.9,351.4 L622.8,350.8 L623.6,351.4 L624.5,349.9 L625.3,360.6 L626.1,373.2 L627.0,372.2 L627.8,368.0 L628.7,356.9 L629.5,352.3 L630.4,330.6 L631.2,326.0 L632.0,324.8 L632.9,323.3 L633.7,316.2 L634.6,338.9 L635.4,324.2 L636.2,329.7 L637.1,322.6 L637.9,354.8 L638.8,335.5 L639.6,349.6 L640.4,352.6 L641.3,372.5 L642.1,367.3 L643.0,368.0 L643.8,376.2 L644.7,381.4 L645.5,386.9 L646.3,380.8 L647.2,390.9 L648.0,394.9 L648.9,401.6 L649.7,403.8 L650.5,384.8 L651.4,383.0 L652.2,376.8 L653.1,372.9 L653.9,365.5 L654.8,372.9 L655.6,381.7 L656.4,365.5 L657.3,359.4 L658.1,376.5 L659.0,385.4 L659.8,391.2 L660.6,388.8 L661.5,394.3 L662.3,404.1 L663.2,406.8 L664.0,409.9 L664.9,406.8 L665.7,400.4 L666.5,404.4 L667.4,403.8 L668.2,410.2 L669.1,414.5 L669.9,418.5 L670.7,420.0 L671.6,420.0 L672.4,418.5 L673.3,417.9 L674.1,416.3 L675.0,414.2 L675.8,413.0 L676.6,409.3 L677.5,398.6 L678.3,379.0 L679.2,381.1 L680.0,385.1" stroke="#1f77b4" stroke-width="2" fill="none" opacity="0.8"/>
<!-- Hydro Generation -->
<path d="M80.0,337.3 L80.8,338.0 L81.7,337.3 L82.5,337.3 L83.4,338.3 L84.2,337.6 L85.0,338.0 L85.9,338.0 L86.7,338.3 L87.6,338.0 L88.4,337.6 L89.3,337.3 L90.1,337.3 L90.9,337.6 L91.8,337.6 L92.6,337.6 L93.5,337.6 L94.3,337.6 L95.1,337.6 L96.0,337.6 L96.8,337.6 L97.7,337.6 L98.5,337.6 L99.4,337.3 L100.2,337.3 L101.0,337.0 L101.9,337.0 L102.7,337.3 L103.6,337.3 L104.4,337.3 L105.2,337.0 L106.1,337.0 L106.9,337.0 L107.8,337.3 L108.6,337.3 L109.5,335.8 L110.3,336.1 L111.1,335.2 L112.0,335.2 L112.8,336.4 L113.7,336.4 L114.5,334.9 L115.3,334.3 L116.2,334.6 L117.0,334.6 L117.9,334.6 L118.7,334.9 L119.6,334.9 L120.4,335.5 L121.2,335.8 L122.1,335.8 L122.9,334.6 L123.8,334.6 L124.6,334.3 L125.4,332.7 L126.3,334.3 L127.1,332.4 L128.0,332.7 L128.8,332.4 L129.6,333.4 L130.5,333.1 L131.3,334.0 L132.2,333.4 L133.0,333.7 L133.9,333.7 L134.7,333.7 L135.5,333.7 L136.4,334.0 L137.2,333.7 L138.1,334.0 L138.9,333.4 L139.7,333.4 L140.6,333.1 L141.4,333.4 L142.3,333.4 L143.1,333.4 L144.0,333.4 L144.8,332.7 L145.6,334.0 L146.5,334.0 L147.3,334.0 L148.2,334.0 L149.0,334.0 L149.8,334.3 L150.7,334.3 L151.5,334.0 L152.4,334.0 L153.2,335.5 L154.1,335.5 L154.9,335.5 L155.7,333.7 L156.6,333.7 L157.4,333.7 L158.3,333.7 L159.1,333.7 L159.9,333.1 L160.8,333.1 L161.6,333.1 L162.5,334.3 L163.3,334.6 L164.2,332.7 L165.0,332.7 L165.8,333.4 L166.7,333.4 L167.5,333.7 L168.4,333.4 L169.2,333.7 L170.0,335.8 L170.9,336.1 L171.7,334.3 L172.6,334.6 L173.4,334.6 L174.2,334.6 L175.1,334.0 L175.9,334.0 L176.8,333.4 L177.6,333.1 L178.5,333.4 L179.3,333.4 L180.1,334.3 L181.0,334.3 L181.8,334.6 L182.7,334.3 L183.5,334.6 L184.3,334.3 L185.2,334.6 L186.0,334.6 L186.9,334.6 L187.7,334.3 L188.6,334.3 L189.4,334.3 L190.2,334.3 L191.1,334.6 L191.9,334.9 L192.8,333.7 L193.6,333.7 L194.4,334.0 L195.3,333.7 L196.1,333.7 L197.0,332.7 L197.8,332.4 L198.7,332.4 L199.5,332.7 L200.3,332.7 L201.2,332.7 L202.0,332.7 L202.9,332.4 L203.7,332.4 L204.5,336.4 L205.4,336.1 L206.2,335.2 L207.1,335.5 L207.9,336.4 L208.8,337.0 L209.6,336.4 L210.4,336.7 L211.3,337.3 L212.1,336.4 L213.0,336.7 L213.8,336.7 L214.6,337.0 L215.5,336.7 L216.3,336.7 L217.2,336.7 L218.0,335.5 L218.8,336.1 L219.7,336.4 L220.5,335.2 L221.4,335.2 L222.2,335.5 L223.1,335.5 L223.9,335.5 L224.7,335.2 L225.6,334.9 L226.4,336.1 L227.3,336.4 L228.1,336.7 L228.9,336.7 L229.8,337.0 L230.6,337.0 L231.5,337.3 L232.3,337.3 L233.2,336.7 L234.0,337.0 L234.8,336.7 L235.7,336.7 L236.5,336.7 L237.4,336.7 L238.2,337.0 L239.0,337.0 L239.9,337.0 L240.7,336.7 L241.6,336.7 L242.4,336.4 L243.3,336.7 L244.1,336.7 L244.9,337.3 L245.8,336.7 L246.6,336.7 L247.5,336.4 L248.3,336.7 L249.1,336.4 L250.0,336.7 L250.8,332.1 L251.7,331.5 L252.5,331.2 L253.4,330.6 L254.2,330.6 L255.0,330.9 L255.9,330.6 L256.7,329.7 L257.6,328.5 L258.4,326.9 L259.2,324.5 L260.1,322.0 L260.9,321.7 L261.8,320.5 L262.6,321.7 L263.5,322.0 L264.3,322.3 L265.1,323.9 L266.0,323.6 L266.8,323.9 L267.7,323.9 L268.5,323.6 L269.3,323.3 L270.2,322.9 L271.0,322.3 L271.9,322.0 L272.7,322.3 L273.5,322.6 L274.4,322.0 L275.2,322.0 L276.1,322.9 L276.9,322.3 L277.8,323.3 L278.6,323.3 L279.4,322.9 L280.3,322.9 L281.1,321.7 L282.0,321.1 L282.8,319.0 L283.6,318.4 L284.5,316.8 L285.3,315.6 L286.2,314.1 L287.0,312.8 L287.9,312.8 L288.7,312.5 L289.5,312.5 L290.4,312.8 L291.2,312.2 L292.1,311.9 L292.9,311.9 L293.7,312.2 L294.6,311.9 L295.4,312.2 L296.3,312.2 L297.1,312.5 L298.0,311.9 L298.8,312.2 L299.6,312.2 L300.5,312.2 L301.3,312.2 L302.2,312.2 L303.0,312.5 L303.8,312.2 L304.7,312.2 L305.5,311.6 L306.4,312.8 L307.2,312.5 L308.1,313.8 L308.9,314.4 L309.7,314.4 L310.6,314.4 L311.4,315.0 L312.3,316.8 L313.1,317.7 L313.9,318.4 L314.8,320.2 L315.6,321.1 L316.5,322.0 L317.3,322.9 L318.1,323.9 L319.0,323.9 L319.8,323.9 L320.7,323.9 L321.5,323.3 L322.4,322.6 L323.2,322.9 L324.0,322.9 L324.9,323.3 L325.7,322.9 L326.6,323.3 L327.4,324.5 L328.2,324.5 L329.1,325.7 L329.9,326.0 L330.8,326.3 L331.6,325.7 L332.5,326.9 L333.3,327.8 L334.1,327.2 L335.0,326.3 L335.8,326.9 L336.7,326.6 L337.5,327.2 L338.3,328.5 L339.2,328.2 L340.0,329.1 L340.9,328.8 L341.7,329.1 L342.6,329.4 L343.4,329.4 L344.2,329.7 L345.1,329.4 L345.9,326.3 L346.8,326.3 L347.6,323.6 L348.4,322.3 L349.3,322.0 L350.1,321.7 L351.0,322.0 L351.8,321.7 L352.7,321.7 L353.5,321.7 L354.3,321.7 L355.2,320.8 L356.0,320.8 L356.9,319.6 L357.7,319.6 L358.5,319.6 L359.4,319.6 L360.2,319.6 L361.1,319.9 L361.9,320.2 L362.7,320.2 L363.6,320.2 L364.4,320.2 L365.3,320.2 L366.1,320.5 L367.0,320.2 L367.8,319.3 L368.6,319.6 L369.5,319.9 L370.3,319.6 L371.2,319.6 L372.0,319.3 L372.8,319.3 L373.7,319.6 L374.5,319.9 L375.4,320.2 L376.2,320.5 L377.1,321.1 L377.9,322.6 L378.7,322.3 L379.6,322.3 L380.4,322.3 L381.3,323.6 L382.1,323.3 L382.9,324.8 L383.8,324.8 L384.6,325.1 L385.5,324.8 L386.3,324.8 L387.2,324.5 L388.0,324.8 L388.8,324.8 L389.7,324.5 L390.5,324.2 L391.4,324.5 L392.2,324.5 L393.0,324.5 L393.9,324.5 L394.7,324.5 L395.6,324.8 L396.4,324.5 L397.3,324.8 L398.1,324.5 L398.9,324.8 L399.8,324.8 L400.6,324.5 L401.5,325.4 L402.3,325.7 L403.1,326.3 L404.0,326.3 L404.8,327.5 L405.7,327.5 L406.5,326.6 L407.3,326.6 L408.2,326.9 L409.0,326.6 L409.9,326.9 L410.7,326.6 L411.6,328.2 L412.4,326.9 L413.2,326.6 L414.1,326.3 L414.9,326.0 L415.8,326.6 L416.6,326.6 L417.4,326.0 L418.3,325.4 L419.1,325.7 L420.0,326.0 L420.8,325.4 L421.7,325.7 L422.5,326.6 L423.3,326.6 L424.2,327.2 L425.0,327.2 L425.9,327.2 L426.7,327.2 L427.5,327.2 L428.4,325.4 L429.2,325.7 L430.1,326.0 L430.9,325.7 L431.8,325.7 L432.6,325.4 L433.4,325.4 L434.3,324.8 L435.1,325.1 L436.0,324.2 L436.8,324.8 L437.6,324.8 L438.5,326.0 L439.3,326.0 L440.2,325.7 L441.0,325.7 L441.9,326.6 L442.7,326.9 L443.5,326.9 L444.4,327.8 L445.2,328.5 L446.1,328.2 L446.9,327.8 L447.7,327.8 L448.6,327.5 L449.4,327.2 L450.3,327.8 L451.1,328.5 L451.9,329.1 L452.8,328.5 L453.6,328.2 L454.5,328.2 L455.3,328.8 L456.2,328.5 L457.0,328.2 L457.8,328.2 L458.7,328.2 L459.5,328.2 L460.4,328.2 L461.2,328.2 L462.0,328.2 L462.9,327.8 L463.7,328.2 L464.6,328.2 L465.4,328.5 L466.3,327.8 L467.1,328.2 L467.9,328.5 L468.8,328.5 L469.6,328.8 L470.5,328.5 L471.3,329.7 L472.1,330.0 L473.0,329.7 L473.8,330.6 L474.7,330.6 L475.5,329.7 L476.4,329.4 L477.2,329.7 L478.0,330.0 L478.9,329.7 L479.7,329.7 L480.6,330.0 L481.4,331.5 L482.2,331.2 L483.1,332.7 L483.9,332.4 L484.8,332.4 L485.6,332.7 L486.5,333.4 L487.3,332.4 L488.1,332.7 L489.0,332.4 L489.8,333.7 L490.7,332.4 L491.5,332.7 L492.3,332.7 L493.2,332.1 L494.0,332.1 L494.9,331.8 L495.7,331.5 L496.5,331.5 L497.4,330.6 L498.2,331.2 L499.1,330.9 L499.9,330.6 L500.8,330.6 L501.6,330.0 L502.4,330.0 L503.3,330.3 L504.1,330.0 L505.0,330.0 L505.8,330.3 L506.6,330.9 L507.5,331.2 L508.3,331.5 L509.2,331.5 L510.0,330.0 L510.9,330.3 L511.7,330.0 L512.5,330.0 L513.4,330.0 L514.2,311.9 L515.1,328.5 L515.9,328.8 L516.7,329.7 L517.6,329.7 L518.4,330.9 L519.3,330.9 L520.1,330.6 L521.0,330.6 L521.8,330.6 L522.6,330.6 L523.5,332.7 L524.3,332.7 L525.2,332.7 L526.0,332.7 L526.8,333.1 L527.7,334.6 L528.5,334.6 L529.4,335.8 L530.2,332.7 L531.1,330.3 L531.9,330.0 L532.7,330.0 L533.6,329.7 L534.4,330.3 L535.3,329.4 L536.1,329.4 L536.9,329.1 L537.8,329.1 L538.6,328.8 L539.5,328.5 L540.3,328.5 L541.2,328.5 L542.0,328.2 L542.8,328.5 L543.7,327.8 L544.5,327.2 L545.4,327.2 L546.2,326.3 L547.0,326.6 L547.9,326.9 L548.7,325.7 L549.6,325.7 L550.4,325.7 L551.2,322.6 L552.1,322.6 L552.9,322.6 L553.8,320.5 L554.6,317.4 L555.5,317.4 L556.3,317.4 L557.1,317.4 L558.0,316.8 L558.8,316.8 L559.7,316.8 L560.5,316.8 L561.3,316.8 L562.2,316.8 L563.0,316.8 L563.9,316.2 L564.7,316.5 L565.6,315.6 L566.4,315.3 L567.2,315.0 L568.1,314.7 L568.9,313.5 L569.8,313.5 L570.6,313.5 L571.4,313.2 L572.3,312.5 L573.1,313.2 L574.0,313.8 L574.8,311.6 L575.7,312.2 L576.5,310.4 L577.3,309.8 L578.2,309.8 L579.0,308.9 L579.9,309.2 L580.7,309.2 L581.5,308.9 L582.4,308.9 L583.2,308.9 L584.1,307.9 L584.9,307.3 L585.8,307.6 L586.6,307.6 L587.4,307.6 L588.3,306.4 L589.1,307.6 L590.0,308.6 L590.8,308.6 L591.6,308.9 L592.5,309.2 L593.3,308.9 L594.2,309.5 L595.0,308.3 L595.8,308.3 L596.7,307.0 L597.5,304.3 L598.4,302.7 L599.2,300.3 L600.1,318.7 L600.9,300.0 L601.7,298.5 L602.6,298.8 L603.4,318.4 L604.3,318.4 L605.1,318.4 L605.9,317.7 L606.8,317.4 L607.6,317.1 L608.5,316.8 L609.3,316.8 L610.2,316.8 L611.0,317.1 L611.8,296.9 L612.7,298.5 L613.5,298.5 L614.4,298.8 L615.2,298.5 L616.0,298.8 L616.9,300.0 L617.7,300.3 L618.6,300.0 L619.4,300.0 L620.3,300.0 L621.1,300.6 L621.9,300.3 L622.8,300.6 L623.6,300.3 L624.5,300.0 L625.3,300.3 L626.1,300.6 L627.0,300.3 L627.8,300.6 L628.7,300.6 L629.5,300.9 L630.4,300.6 L631.2,300.6 L632.0,300.6 L632.9,300.6 L633.7,300.6 L634.6,300.0 L635.4,299.7 L636.2,299.7 L637.1,299.1 L637.9,298.8 L638.8,299.1 L639.6,299.1 L640.4,299.1 L641.3,299.4 L642.1,299.4 L643.0,299.4 L643.8,299.4 L644.7,299.4 L645.5,299.7 L646.3,299.7 L647.2,299.7 L648.0,299.4 L648.9,298.5 L649.7,298.2 L650.5,298.2 L651.4,297.8 L652.2,298.8 L653.1,299.1 L653.9,300.0 L654.8,300.9 L655.6,300.9 L656.4,300.9 L657.3,301.5 L658.1,301.2 L659.0,300.9 L659.8,300.0 L660.6,300.0 L661.5,300.0 L662.3,300.3 L663.2,300.3 L664.0,300.3 L664.9,300.3 L665.7,300.3 L666.5,300.6 L667.4,300.9 L668.2,300.3 L669.1,300.6 L669.9,300.6 L670.7,301.8 L671.6,300.9 L672.4,301.8 L673.3,301.8 L674.1,301.8 L675.0,301.8 L675.8,301.8 L676.6,302.1 L677.5,302.1 L678.3,301.8 L679.2,301.8 L680.0,302.1" stroke="#ff7f0e" stroke-width="2" fill="none" opacity="0.8"/>
<!-- Thermal Generation -->
<path d="M80.0,298.8 L80.8,306.4 L81.7,289.6 L82.5,313.5 L83.4,323.6 L84.2,335.5 L85.0,323.6 L85.9,322.9 L86.7,320.5 L87.6,321.7 L88.4,322.9 L89.3,319.9 L90.1,320.2 L90.9,331.5 L91.8,304.0 L92.6,284.7 L93.5,292.9 L94.3,279.2 L95.1,289.3 L96.0,290.8 L96.8,281.3 L97.7,280.7 L98.5,311.0 L99.4,313.8 L100.2,312.8 L101.0,315.9 L101.9,283.5 L102.7,303.4 L103.6,314.1 L104.4,320.8 L105.2,325.4 L106.1,354.2 L106.9,372.2 L107.8,372.2 L108.6,372.5 L109.5,372.5 L110.3,372.2 L111.1,372.2 L112.0,342.2 L112.8,315.9 L113.7,304.3 L114.5,336.4 L115.3,341.9 L116.2,353.6 L117.0,354.2 L117.9,354.5 L118.7,354.5 L119.6,354.8 L120.4,353.9 L121.2,354.2 L122.1,342.5 L122.9,354.2 L123.8,354.5 L124.6,354.5 L125.4,354.2 L126.3,353.9 L127.1,365.8 L128.0,366.4 L128.8,366.1 L129.6,366.4 L130.5,357.5 L131.3,330.3 L132.2,296.3 L133.0,290.2 L133.9,278.9 L134.7,278.6 L135.5,301.8 L136.4,293.9 L137.2,307.3 L138.1,363.7 L138.9,372.5 L139.7,372.5 L140.6,372.2 L141.4,353.9 L142.3,342.8 L143.1,373.5 L144.0,373.5 L144.8,373.8 L145.6,373.5 L146.5,373.8 L147.3,374.1 L148.2,373.8 L149.0,373.5 L149.8,372.9 L150.7,373.2 L151.5,372.5 L152.4,372.5 L153.2,371.9 L154.1,371.9 L154.9,348.1 L155.7,371.9 L156.6,371.9 L157.4,371.9 L158.3,371.6 L159.1,371.9 L159.9,372.2 L160.8,371.9 L161.6,372.2 L162.5,372.5 L163.3,373.5 L164.2,372.9 L165.0,353.6 L165.8,372.9 L166.7,372.5 L167.5,375.3 L168.4,372.9 L169.2,373.2 L170.0,360.3 L170.9,348.1 L171.7,336.1 L172.6,333.7 L173.4,291.7 L174.2,277.9 L175.1,277.6 L175.9,277.6 L176.8,282.8 L177.6,305.2 L178.5,284.1 L179.3,291.7 L180.1,291.7 L181.0,305.5 L181.8,309.2 L182.7,321.1 L183.5,330.3 L184.3,317.7 L185.2,348.4 L186.0,354.2 L186.9,353.9 L187.7,354.5 L188.6,354.2 L189.4,354.2 L190.2,354.2 L191.1,353.9 L191.9,354.2 L192.8,354.8 L193.6,327.5 L194.4,287.1 L195.3,260.8 L196.1,304.6 L197.0,329.7 L197.8,352.6 L198.7,353.9 L199.5,353.9 L200.3,354.2 L201.2,353.9 L202.0,353.3 L202.9,353.9 L203.7,354.2 L204.5,353.9 L205.4,354.5 L206.2,354.2 L207.1,353.6 L207.9,354.5 L208.8,354.2 L209.6,354.8 L210.4,354.5 L211.3,354.8 L212.1,342.2 L213.0,308.3 L213.8,226.5 L214.6,213.3 L215.5,219.8 L216.3,212.4 L217.2,240.3 L218.0,263.6 L218.8,230.8 L219.7,231.4 L220.5,248.9 L221.4,221.0 L222.2,230.2 L223.1,235.4 L223.9,242.1 L224.7,266.6 L225.6,266.3 L226.4,287.7 L227.3,314.4 L228.1,323.3 L228.9,323.6 L229.8,322.9 L230.6,247.3 L231.5,216.7 L232.3,223.8 L233.2,218.2 L234.0,220.7 L234.8,214.0 L235.7,213.7 L236.5,225.9 L237.4,245.5 L238.2,269.1 L239.0,353.9 L239.9,353.6 L240.7,353.6 L241.6,353.0 L242.4,353.0 L243.3,354.2 L244.1,353.9 L244.9,354.2 L245.8,349.9 L246.6,354.5 L247.5,354.8 L248.3,355.4 L249.1,356.0 L250.0,356.3 L250.8,357.5 L251.7,357.5 L252.5,357.9 L253.4,357.5 L254.2,356.3 L255.0,355.4 L255.9,355.4 L256.7,354.8 L257.6,355.1 L258.4,354.8 L259.2,354.8 L260.1,354.5 L260.9,355.1 L261.8,355.1 L262.6,354.8 L263.5,353.9 L264.3,354.8 L265.1,354.8 L266.0,354.5 L266.8,354.5 L267.7,355.4 L268.5,354.8 L269.3,354.5 L270.2,354.5 L271.0,354.5 L271.9,354.8 L272.7,354.5 L273.5,354.2 L274.4,354.2 L275.2,354.8 L276.1,355.1 L276.9,353.9 L277.8,353.9 L278.6,353.9 L279.4,354.5 L280.3,354.5 L281.1,353.6 L282.0,354.5 L282.8,354.5 L283.6,355.1 L284.5,356.6 L285.3,354.5 L286.2,354.5 L287.0,353.9 L287.9,353.9 L288.7,354.2 L289.5,353.9 L290.4,353.9 L291.2,353.6 L292.1,353.6 L292.9,353.9 L293.7,356.0 L294.6,356.3 L295.4,354.5 L296.3,355.7 L297.1,353.6 L298.0,352.6 L298.8,355.1 L299.6,354.8 L300.5,372.9 L301.3,372.5 L302.2,372.5 L303.0,372.2 L303.8,372.5 L304.7,372.9 L305.5,372.5 L306.4,372.5 L307.2,372.2 L308.1,372.9 L308.9,372.5 L309.7,372.5 L310.6,372.5 L311.4,372.5 L312.3,372.2 L313.1,372.9 L313.9,372.5 L314.8,372.5 L315.6,372.9 L316.5,372.5 L317.3,371.9 L318.1,371.6 L319.0,371.9 L319.8,372.2 L320.7,371.9 L321.5,372.2 L322.4,371.9 L323.2,371.9 L324.0,372.2 L324.9,372.5 L325.7,372.5 L326.6,372.9 L327.4,372.5 L328.2,372.2 L329.1,372.5 L329.9,372.5 L330.8,372.9 L331.6,372.5 L332.5,372.5 L333.3,372.5 L334.1,372.2 L335.0,372.9 L335.8,372.9 L336.7,371.9 L337.5,372.5 L338.3,372.2 L339.2,371.9 L340.0,371.9 L340.9,372.2 L341.7,372.2 L342.6,372.2 L343.4,372.2 L344.2,372.9 L345.1,372.5 L345.9,372.2 L346.8,372.2 L347.6,372.2 L348.4,372.2 L349.3,372.2 L350.1,372.2 L351.0,372.5 L351.8,372.2 L352.7,353.9 L353.5,353.6 L354.3,353.9 L355.2,313.5 L356.0,324.2 L356.9,331.5 L357.7,328.8 L358.5,300.6 L359.4,322.3 L360.2,317.1 L361.1,316.2 L361.9,293.6 L362.7,291.4 L363.6,303.7 L364.4,296.3 L365.3,331.2 L366.1,331.8 L367.0,371.9 L367.8,372.2 L368.6,372.2 L369.5,371.9 L370.3,372.2 L371.2,369.2 L372.0,372.5 L372.8,356.9 L373.7,332.4 L374.5,332.4 L375.4,294.8 L376.2,294.2 L377.1,329.4 L377.9,316.8 L378.7,293.9 L379.6,322.9 L380.4,332.1 L381.3,331.8 L382.1,332.1 L382.9,332.7 L383.8,332.4 L384.6,326.6 L385.5,334.0 L386.3,333.4 L387.2,333.1 L388.0,355.4 L388.8,372.5 L389.7,370.4 L390.5,350.2 L391.4,335.8 L392.2,335.2 L393.0,369.5 L393.9,333.1 L394.7,304.9 L395.6,298.2 L396.4,294.8 L397.3,294.2 L398.1,293.9 L398.9,294.8 L399.8,293.3 L400.6,319.0 L401.5,316.8 L402.3,322.0 L403.1,336.1 L404.0,316.5 L404.8,318.4 L405.7,334.6 L406.5,333.4 L407.3,333.7 L408.2,360.6 L409.0,351.1 L409.9,351.4 L410.7,350.2 L411.6,348.1 L412.4,331.8 L413.2,332.7 L414.1,332.7 L414.9,332.4 L415.8,295.7 L416.6,283.2 L417.4,310.4 L418.3,319.3 L419.1,308.6 L420.0,315.9 L420.8,325.4 L421.7,326.6 L422.5,326.0 L423.3,323.3 L424.2,319.9 L425.0,319.9 L425.9,336.7 L426.7,373.2 L427.5,372.2 L428.4,369.2 L429.2,371.6 L430.1,371.9 L430.9,371.9 L431.8,371.6 L432.6,371.9 L433.4,371.9 L434.3,347.7 L435.1,332.4 L436.0,286.5 L436.8,283.2 L437.6,285.9 L438.5,288.4 L439.3,297.8 L440.2,296.0 L441.0,311.9 L441.9,298.2 L442.7,307.6 L443.5,311.0 L444.4,307.6 L445.2,307.3 L446.1,333.4 L446.9,372.5 L447.7,371.9 L448.6,371.9 L449.4,372.5 L450.3,370.7 L451.1,371.9 L451.9,371.9 L452.8,368.6 L453.6,372.5 L454.5,372.5 L455.3,372.5 L456.2,370.7 L457.0,369.8 L457.8,372.5 L458.7,372.5 L459.5,374.4 L460.4,376.8 L461.2,377.1 L462.0,376.8 L462.9,376.8 L463.7,377.1 L464.6,377.1 L465.4,376.8 L466.3,376.8 L467.1,377.1 L467.9,377.1 L468.8,376.8 L469.6,377.1 L470.5,377.4 L471.3,377.8 L472.1,378.4 L473.0,378.1 L473.8,378.1 L474.7,378.1 L475.5,378.4 L476.4,377.8 L477.2,337.0 L478.0,338.0 L478.9,336.7 L479.7,336.7 L480.6,337.0 L481.4,359.1 L482.2,358.8 L483.1,358.2 L483.9,358.2 L484.8,331.5 L485.6,332.4 L486.5,332.1 L487.3,332.7 L488.1,332.4 L489.0,332.7 L489.8,332.7 L490.7,333.1 L491.5,334.0 L492.3,297.2 L493.2,308.6 L494.0,291.7 L494.9,291.4 L495.7,313.8 L496.5,324.8 L497.4,316.5 L498.2,331.8 L499.1,332.4 L499.9,333.1 L500.8,333.4 L501.6,330.0 L502.4,330.0 L503.3,330.3 L504.1,330.0 L505.0,328.8 L505.8,329.7 L506.6,324.2 L507.5,323.6 L508.3,323.6 L509.2,314.7 L510.0,324.5 L510.9,324.2 L511.7,314.4 L512.5,312.2 L513.4,312.5 L514.2,361.5 L515.1,349.3 L515.9,331.2 L516.7,326.9 L517.6,312.5 L518.4,291.7 L519.3,296.0 L520.1,291.7 L521.0,294.2 L521.8,327.8 L522.6,330.6 L523.5,340.4 L524.3,309.5 L525.2,286.5 L526.0,309.5 L526.8,328.8 L527.7,337.0 L528.5,323.6 L529.4,324.5 L530.2,334.9 L531.1,337.0 L531.9,330.9 L532.7,330.9 L533.6,330.9 L534.4,317.4 L535.3,299.7 L536.1,305.8 L536.9,304.6 L537.8,292.0 L538.6,296.6 L539.5,283.2 L540.3,289.3 L541.2,292.0 L542.0,287.1 L542.8,315.3 L543.7,323.3 L544.5,329.1 L545.4,328.8 L546.2,299.1 L547.0,322.0 L547.9,325.4 L548.7,324.8 L549.6,324.5 L550.4,310.1 L551.2,313.8 L552.1,310.7 L552.9,292.3 L553.8,297.8 L554.6,303.4 L555.5,307.0 L556.3,313.5 L557.1,306.7 L558.0,299.1 L558.8,302.7 L559.7,326.9 L560.5,307.6 L561.3,311.9 L562.2,334.9 L563.0,334.9 L563.9,370.7 L564.7,376.8 L565.6,376.2 L566.4,377.4 L567.2,374.4 L568.1,373.5 L568.9,374.1 L569.8,373.8 L570.6,373.8 L571.4,373.5 L572.3,373.8 L573.1,374.4 L574.0,374.4 L574.8,373.8 L575.7,374.1 L576.5,374.4 L577.3,374.7 L578.2,374.1 L579.0,372.9 L579.9,372.5 L580.7,378.1 L581.5,377.8 L582.4,377.4 L583.2,377.1 L584.1,377.1 L584.9,377.4 L585.8,376.8 L586.6,377.4 L587.4,372.9 L588.3,373.2 L589.1,373.5 L590.0,373.2 L590.8,373.2 L591.6,372.9 L592.5,372.9 L593.3,372.9 L594.2,372.9 L595.0,373.2 L595.8,373.5 L596.7,372.9 L597.5,373.2 L598.4,373.2 L599.2,372.5 L600.1,372.5 L600.9,374.4 L601.7,377.1 L602.6,377.1 L603.4,377.4 L604.3,377.4 L605.1,377.4 L605.9,377.8 L606.8,377.8 L607.6,378.1 L608.5,378.4 L609.3,377.4 L610.2,377.8 L611.0,377.4 L611.8,377.8 L612.7,377.4 L613.5,377.8 L614.4,378.1 L615.2,378.1 L616.0,377.4 L616.9,377.4 L617.7,378.1 L618.6,377.4 L619.4,359.1 L620.3,359.1 L621.1,377.1 L621.9,377.4 L622.8,377.4 L623.6,377.4 L624.5,377.1 L625.3,377.8 L626.1,378.4 L627.0,377.1 L627.8,374.7 L628.7,374.7 L629.5,374.7 L630.4,374.7 L631.2,374.1 L632.0,373.8 L632.9,374.4 L633.7,373.8 L634.6,374.4 L635.4,374.4 L636.2,374.7 L637.1,374.4 L637.9,318.4 L638.8,333.4 L639.6,374.7 L640.4,373.5 L641.3,355.4 L642.1,359.1 L643.0,378.4 L643.8,379.0 L644.7,379.0 L645.5,361.5 L646.3,349.6 L647.2,349.6 L648.0,378.1 L648.9,373.8 L649.7,371.0 L650.5,371.3 L651.4,370.1 L652.2,371.0 L653.1,380.2 L653.9,380.2 L654.8,381.1 L655.6,374.7 L656.4,368.9 L657.3,335.8 L658.1,328.8 L659.0,336.1 L659.8,319.0 L660.6,309.5 L661.5,298.5 L662.3,312.2 L663.2,368.0 L664.0,368.3 L664.9,365.8 L665.7,350.5 L666.5,353.3 L667.4,353.3 L668.2,365.2 L669.1,377.4 L669.9,371.3 L670.7,374.7 L671.6,374.4 L672.4,368.0 L673.3,302.7 L674.1,304.0 L675.0,356.0 L675.8,356.0 L676.6,355.7 L677.5,356.3 L678.3,319.0 L679.2,286.8 L680.0,297.8" stroke="#2ca02c" stroke-width="2" fill="none" opacity="0.8"/>
<!-- Solar Generation -->
<path d="M80.0,420.0 L80.8,420.0 L81.7,413.9 L82.5,399.2 L83.4,378.4 L84.2,387.2 L85.0,383.9 L85.9,389.4 L86.7,396.4 L87.6,389.1 L88.4,378.7 L89.3,376.8 L90.1,399.2 L90.9,394.6 L91.8,410.5 L92.6,414.2 L93.5,420.0 L94.3,420.0 L95.1,420.0 L96.0,420.0 L96.8,420.0 L97.7,420.0 L98.5,420.0 L99.4,420.0 L100.2,420.0 L101.0,420.0 L101.9,412.7 L102.7,386.6 L103.6,375.6 L104.4,375.3 L105.2,375.3 L106.1,375.0 L106.9,375.0 L107.8,391.8 L108.6,395.2 L109.5,398.9 L110.3,403.2 L111.1,394.0 L112.0,387.5 L112.8,415.4 L113.7,420.0 L114.5,420.0 L115.3,420.0 L116.2,420.0 L117.0,420.0 L117.9,420.0 L118.7,420.0 L119.6,420.0 L120.4,420.0 L121.2,420.0 L122.1,418.8 L122.9,415.4 L123.8,400.7 L124.6,395.8 L125.4,397.0 L126.3,392.4 L127.1,385.7 L128.0,383.0 L128.8,394.9 L129.6,391.2 L130.5,392.4 L131.3,403.5 L132.2,392.4 L133.0,412.7 L133.9,420.0 L134.7,420.0 L135.5,420.0 L136.4,420.0 L137.2,420.0 L138.1,420.0 L138.9,420.0 L139.7,420.0 L140.6,420.0 L141.4,420.0 L142.3,413.6 L143.1,390.6 L144.0,379.6 L144.8,409.3 L145.6,410.2 L146.5,398.3 L147.3,398.6 L148.2,408.1 L149.0,407.1 L149.8,401.0 L150.7,403.8 L151.5,405.3 L152.4,413.0 L153.2,417.2 L154.1,420.0 L154.9,420.0 L155.7,420.0 L156.6,420.0 L157.4,420.0 L158.3,420.0 L159.1,420.0 L159.9,420.0 L160.8,420.0 L161.6,420.0 L162.5,416.3 L163.3,414.5 L164.2,412.3 L165.0,390.0 L165.8,384.2 L166.7,391.5 L167.5,400.7 L168.4,400.4 L169.2,398.6 L170.0,398.9 L170.9,409.0 L171.7,400.4 L172.6,412.7 L173.4,410.2 L174.2,420.0 L175.1,420.0 L175.9,420.0 L176.8,420.0 L177.6,420.0 L178.5,420.0 L179.3,420.0 L180.1,420.0 L181.0,420.0 L181.8,420.0 L182.7,415.1 L183.5,407.1 L184.3,377.4 L185.2,375.6 L186.0,375.3 L186.9,375.3 L187.7,375.0 L188.6,376.5 L189.4,398.6 L190.2,398.9 L191.1,397.0 L191.9,379.6 L192.8,387.2 L193.6,416.0 L194.4,420.0 L195.3,420.0 L196.1,420.0 L197.0,420.0 L197.8,420.0 L198.7,420.0 L199.5,420.0 L200.3,420.0 L201.2,420.0 L202.0,420.0 L202.9,415.4 L203.7,394.6 L204.5,390.3 L205.4,384.5 L206.2,377.1 L207.1,375.3 L207.9,375.0 L208.8,398.0 L209.6,398.9 L210.4,376.5 L211.3,377.1 L212.1,387.5 L213.0,393.7 L213.8,409.3 L214.6,420.0 L215.5,420.0 L216.3,420.0 L217.2,420.0 L218.0,420.0 L218.8,420.0 L219.7,420.0 L220.5,420.0 L221.4,420.0 L222.2,420.0 L223.1,410.8 L223.9,388.5 L224.7,377.8 L225.6,376.5 L226.4,375.6 L227.3,376.2 L228.1,375.9 L228.9,375.3 L229.8,376.2 L230.6,378.1 L231.5,379.3 L232.3,380.8 L233.2,397.3 L234.0,414.2 L234.8,420.0 L235.7,420.0 L236.5,420.0 L237.4,420.0 L238.2,420.0 L239.0,420.0 L239.9,420.0 L240.7,420.0 L241.6,420.0 L242.4,420.0 L243.3,411.7 L244.1,389.1 L244.9,384.2 L245.8,379.6 L246.6,388.5 L247.5,399.8 L248.3,383.0 L249.1,399.2 L250.0,389.7 L250.8,390.0 L251.7,405.3 L252.5,414.5 L253.4,410.8 L254.2,412.7 L255.0,420.0 L255.9,420.0 L256.7,420.0 L257.6,420.0 L258.4,420.0 L259.2,420.0 L260.1,420.0 L260.9,420.0 L261.8,420.0 L262.6,420.0 L263.5,413.6 L264.3,400.4 L265.1,401.6 L266.0,399.8 L266.8,399.5 L267.7,399.2 L268.5,399.5 L269.3,399.2 L270.2,399.8 L271.0,399.8 L271.9,399.8 L272.7,400.7 L273.5,406.2 L274.4,416.0 L275.2,420.0 L276.1,420.0 L276.9,420.0 L277.8,420.0 L278.6,420.0 L279.4,420.0 L280.3,420.0 L281.1,420.0 L282.0,420.0 L282.8,420.0 L283.6,413.9 L284.5,402.5 L285.3,400.1 L286.2,399.8 L287.0,399.5 L287.9,399.2 L288.7,399.2 L289.5,399.2 L290.4,399.2 L291.2,399.5 L292.1,412.7 L292.9,413.9 L293.7,407.8 L294.6,411.1 L295.4,420.0 L296.3,420.0 L297.1,420.0 L298.0,420.0 L298.8,420.0 L299.6,420.0 L300.5,420.0 L301.3,420.0 L302.2,420.0 L303.0,420.0 L303.8,418.5 L304.7,403.5 L305.5,401.3 L306.4,402.2 L307.2,400.1 L308.1,399.5 L308.9,402.2 L309.7,400.1 L310.6,400.7 L311.4,409.6 L312.3,411.1 L313.1,415.4 L313.9,413.6 L314.8,413.9 L315.6,420.0 L316.5,420.0 L317.3,420.0 L318.1,420.0 L319.0,420.0 L319.8,420.0 L320.7,420.0 L321.5,420.0 L322.4,420.0 L323.2,420.0 L324.0,413.6 L324.9,417.2 L325.7,413.3 L326.6,411.4 L327.4,401.9 L328.2,388.8 L329.1,399.8 L329.9,384.5 L330.8,398.6 L331.6,404.4 L332.5,409.9 L333.3,402.2 L334.1,381.7 L335.0,412.3 L335.8,419.7 L336.7,420.0 L337.5,420.0 L338.3,420.0 L339.2,420.0 L340.0,420.0 L340.9,420.0 L341.7,420.0 L342.6,420.0 L343.4,420.0 L344.2,414.5 L345.1,412.3 L345.9,415.4 L346.8,415.1 L347.6,391.8 L348.4,394.6 L349.3,412.3 L350.1,405.9 L351.0,401.3 L351.8,406.5 L352.7,388.8 L353.5,402.5 L354.3,398.3 L355.2,413.9 L356.0,419.7 L356.9,420.0 L357.7,420.0 L358.5,420.0 L359.4,420.0 L360.2,420.0 L361.1,420.0 L361.9,420.0 L362.7,420.0 L363.6,420.0 L364.4,408.7 L365.3,400.4 L366.1,379.9 L367.0,376.2 L367.8,376.2 L368.6,375.9 L369.5,383.6 L370.3,387.2 L371.2,402.9 L372.0,399.5 L372.8,408.7 L373.7,403.2 L374.5,401.0 L375.4,411.1 L376.2,419.7 L377.1,420.0 L377.9,420.0 L378.7,420.0 L379.6,420.0 L380.4,420.0 L381.3,420.0 L382.1,420.0 L382.9,420.0 L383.8,420.0 L384.6,411.4 L385.5,390.9 L386.3,378.7 L387.2,377.4 L388.0,376.2 L388.8,392.1 L389.7,377.4 L390.5,395.5 L391.4,399.2 L392.2,397.0 L393.0,390.6 L393.9,397.7 L394.7,413.0 L395.6,417.9 L396.4,420.0 L397.3,420.0 L398.1,420.0 L398.9,420.0 L399.8,420.0 L400.6,420.0 L401.5,420.0 L402.3,420.0 L403.1,420.0 L404.0,420.0 L404.8,419.4 L405.7,416.3 L406.5,397.7 L407.3,397.7 L408.2,399.8 L409.0,385.7 L409.9,390.3 L410.7,385.4 L411.6,393.4 L412.4,388.8 L413.2,394.0 L414.1,388.2 L414.9,390.9 L415.8,412.3 L416.6,420.0 L417.4,420.0 L418.3,420.0 L419.1,420.0 L420.0,420.0 L420.8,420.0 L421.7,420.0 L422.5,420.0 L423.3,420.0 L424.2,420.0 L425.0,407.1 L425.9,384.8 L426.7,377.1 L427.5,375.9 L428.4,385.4 L429.2,380.2 L430.1,382.6 L430.9,379.9 L431.8,384.5 L432.6,392.4 L433.4,404.1 L434.3,403.2 L435.1,397.7 L436.0,416.9 L436.8,420.0 L437.6,420.0 L438.5,420.0 L439.3,420.0 L440.2,420.0 L441.0,420.0 L441.9,420.0 L442.7,420.0 L443.5,420.0 L444.4,420.0 L445.2,409.9 L446.1,385.1 L446.9,378.1 L447.7,375.9 L448.6,375.3 L449.4,398.6 L450.3,400.1 L451.1,400.4 L451.9,409.9 L452.8,410.5 L453.6,399.8 L454.5,394.3 L455.3,391.8 L456.2,407.8 L457.0,419.7 L457.8,420.0 L458.7,420.0 L459.5,420.0 L460.4,420.0 L461.2,420.0 L462.0,420.0 L462.9,420.0 L463.7,420.0 L464.6,420.0 L465.4,408.4 L466.3,388.2 L467.1,394.0 L467.9,375.6 L468.8,398.9 L469.6,375.9 L470.5,400.1 L471.3,399.2 L472.1,399.5 L473.0,389.1 L473.8,386.6 L474.7,388.2 L475.5,392.4 L476.4,408.7 L477.2,419.4 L478.0,420.0 L478.9,420.0 L479.7,420.0 L480.6,420.0 L481.4,420.0 L482.2,420.0 L483.1,420.0 L483.9,420.0 L484.8,420.0 L485.6,407.1 L486.5,384.8 L487.3,399.5 L488.1,375.6 L489.0,375.3 L489.8,376.2 L490.7,394.0 L491.5,379.0 L492.3,394.6 L493.2,386.0 L494.0,399.5 L494.9,405.3 L495.7,414.2 L496.5,418.2 L497.4,419.7 L498.2,420.0 L499.1,420.0 L499.9,420.0 L500.8,420.0 L501.6,420.0 L502.4,420.0 L503.3,420.0 L504.1,420.0 L505.0,420.0 L505.8,411.4 L506.6,409.6 L507.5,391.8 L508.3,393.1 L509.2,398.6 L510.0,402.2 L510.9,398.3 L511.7,395.8 L512.5,400.1 L513.4,396.1 L514.2,398.9 L515.1,410.2 L515.9,388.8 L516.7,409.9 L517.6,419.7 L518.4,420.0 L519.3,420.0 L520.1,420.0 L521.0,420.0 L521.8,420.0 L522.6,420.0 L523.5,420.0 L524.3,420.0 L525.2,420.0 L526.0,410.2 L526.8,383.6 L527.7,381.4 L528.5,378.1 L529.4,377.8 L530.2,378.7 L531.1,379.6 L531.9,377.1 L532.7,377.8 L533.6,385.4 L534.4,386.0 L535.3,402.9 L536.1,402.9 L536.9,414.2 L537.8,419.7 L538.6,420.0 L539.5,420.0 L540.3,420.0 L541.2,420.0 L542.0,420.0 L542.8,420.0 L543.7,420.0 L544.5,420.0 L545.4,420.0 L546.2,411.4 L547.0,386.9 L547.9,382.3 L548.7,377.8 L549.6,376.5 L550.4,379.0 L551.2,379.0 L552.1,385.1 L552.9,385.1 L553.8,394.9 L554.6,380.5 L555.5,390.3 L556.3,409.3 L557.1,411.1 L558.0,419.4 L558.8,420.0 L559.7,420.0 L560.5,420.0 L561.3,420.0 L562.2,420.0 L563.0,420.0 L563.9,420.0 L564.7,420.0 L565.6,419.4 L566.4,410.5 L567.2,383.6 L568.1,379.6 L568.9,376.2 L569.8,375.3 L570.6,378.4 L571.4,379.9 L572.3,402.9 L573.1,382.0 L574.0,397.3 L574.8,401.9 L575.7,402.9 L576.5,402.9 L577.3,413.3 L578.2,419.7 L579.0,420.0 L579.9,420.0 L580.7,420.0 L581.5,420.0 L582.4,420.0 L583.2,420.0 L584.1,420.0 L584.9,420.0 L585.8,420.0 L586.6,417.9 L587.4,417.9 L588.3,416.6 L589.1,415.1 L590.0,415.1 L590.8,412.3 L591.6,401.9 L592.5,404.7 L593.3,410.8 L594.2,418.2 L595.0,416.6 L595.8,409.3 L596.7,407.1 L597.5,416.6 L598.4,419.7 L599.2,420.0 L600.1,420.0 L600.9,420.0 L601.7,420.0 L602.6,420.0 L603.4,420.0 L604.3,420.0 L605.1,420.0 L605.9,420.0 L606.8,419.7 L607.6,418.5 L608.5,416.9 L609.3,415.4 L610.2,414.5 L611.0,410.2 L611.8,410.8 L612.7,413.0 L613.5,409.6 L614.4,409.0 L615.2,413.6 L616.0,416.0 L616.9,413.9 L617.7,415.7 L618.6,419.7 L619.4,420.0 L620.3,420.0 L621.1,420.0 L621.9,420.0 L622.8,420.0 L623.6,420.0 L624.5,420.0 L625.3,420.0 L626.1,420.0 L627.0,405.9 L627.8,385.1 L628.7,380.8 L629.5,377.1 L630.4,376.5 L631.2,378.1 L632.0,382.0 L632.9,382.0 L633.7,376.5 L634.6,381.1 L635.4,378.7 L636.2,383.9 L637.1,400.4 L637.9,407.1 L638.8,419.4 L639.6,420.0 L640.4,420.0 L641.3,420.0 L642.1,420.0 L643.0,420.0 L643.8,420.0 L644.7,420.0 L645.5,420.0 L646.3,419.7 L647.2,405.3 L648.0,384.2 L648.9,384.5 L649.7,393.7 L650.5,392.1 L651.4,383.3 L652.2,389.1 L653.1,384.2 L653.9,385.7 L654.8,388.8 L655.6,387.5 L656.4,406.2 L657.3,398.3 L658.1,414.8 L659.0,418.8 L659.8,420.0 L660.6,420.0 L661.5,420.0 L662.3,420.0 L663.2,420.0 L664.0,420.0 L664.9,420.0 L665.7,420.0 L666.5,420.0 L667.4,412.3 L668.2,393.1 L669.1,377.4 L669.9,376.5 L670.7,376.8 L671.6,375.3 L672.4,375.3 L673.3,375.3 L674.1,375.6 L675.0,390.3 L675.8,387.5 L676.6,388.5 L677.5,402.5 L678.3,416.0 L679.2,419.7 L680.0,420.0" stroke="#d62728" stroke-width="2" fill="none" opacity="0.8"/>
<!-- Forecast -->
<path d="M80.0,233.9 L80.8,219.5 L81.7,194.1 L82.5,164.7 L83.4,146.0 L84.2,140.2 L85.0,139.6 L85.9,142.9 L86.7,144.8 L87.6,147.8 L88.4,149.7 L89.3,151.5 L90.1,152.1 L90.9,151.5 L91.8,155.5 L92.6,159.5 L93.5,157.6 L94.3,160.1 L95.1,178.8 L96.0,368.0 L96.8,270.0 L97.7,375.9 L98.5,420.0 L99.4,420.0 L100.2,420.0 L101.0,420.0 L101.9,420.0 L102.7,420.0 L103.6,420.0 L104.4,420.0 L105.2,420.0 L106.1,420.0 L106.9,420.0 L107.8,420.0 L108.6,420.0 L109.5,420.0 L110.3,420.0 L111.1,420.0 L112.0,420.0 L112.8,420.0 L113.7,420.0 L114.5,420.0 L115.3,420.0 L116.2,266.0 L117.0,229.6 L117.9,241.8 L118.7,249.5 L119.6,251.6 L120.4,250.4 L121.2,239.4 L122.1,216.7 L122.9,190.4 L123.8,172.0 L124.6,163.4 L125.4,157.6 L126.3,157.0 L127.1,156.4 L128.0,157.9 L128.8,159.2 L129.6,160.7 L130.5,160.4 L131.3,158.9 L132.2,163.4 L133.0,169.6 L133.9,171.1 L134.7,172.9 L135.5,190.1 L136.4,214.6 L137.2,234.2 L138.1,245.2 L138.9,251.9 L139.7,253.8 L140.6,251.3 L141.4,238.8 L142.3,215.8 L143.1,190.4 L144.0,172.9 L144.8,165.0 L145.6,159.2 L146.5,158.5 L147.3,158.5 L148.2,159.5 L149.0,160.4 L149.8,159.8 L150.7,160.1 L151.5,158.9 L152.4,163.1 L153.2,168.6 L154.1,171.4 L154.9,172.6 L155.7,189.8 L156.6,221.6 L157.4,236.0 L158.3,245.5 L159.1,251.9 L159.9,255.6 L160.8,255.9 L161.6,252.2 L162.5,246.7 L163.3,232.0 L164.2,215.2 L165.0,202.0 L165.8,193.4 L166.7,192.8 L167.5,192.5 L168.4,198.0 L169.2,205.1 L170.0,205.1 L170.9,200.5 L171.7,197.1 L172.6,197.7 L173.4,201.1 L174.2,198.7 L175.1,195.9 L175.9,206.6 L176.8,224.7 L177.6,238.8 L178.5,248.6 L179.3,254.4 L180.1,256.5 L181.0,255.3 L181.8,251.6 L182.7,245.2 L183.5,237.2 L184.3,225.0 L185.2,210.6 L186.0,201.4 L186.9,200.5 L187.7,197.4 L188.6,197.1 L189.4,195.6 L190.2,190.4 L191.1,184.6 L191.9,178.4 L192.8,173.2 L193.6,179.1 L194.4,185.5 L195.3,184.0 L196.1,196.8 L197.0,217.6 L197.8,233.2 L198.7,243.0 L199.5,250.1 L200.3,253.5 L201.2,252.5 L202.0,242.7 L202.9,220.4 L203.7,193.8 L204.5,172.0 L205.4,162.5 L206.2,157.9 L207.1,156.4 L207.9,156.4 L208.8,155.8 L209.6,155.8 L210.4,153.3 L211.3,152.1 L212.1,152.4 L213.0,161.0 L213.8,167.1 L214.6,171.1 L215.5,172.9 L216.3,191.0 L217.2,218.9 L218.0,229.0 L218.8,250.4 L219.7,261.4 L220.5,263.6 L221.4,260.8 L222.2,249.2 L223.1,226.2 L223.9,202.0 L224.7,182.4 L225.6,172.3 L226.4,165.9 L227.3,162.2 L228.1,161.0 L228.9,158.9 L229.8,156.4 L230.6,153.0 L231.5,147.2 L232.3,142.3 L233.2,153.0 L234.0,166.2 L234.8,173.5 L235.7,175.4 L236.5,194.4 L237.4,221.6 L238.2,239.4 L239.0,251.3 L239.9,258.7 L240.7,261.7 L241.6,261.1 L242.4,251.6 L243.3,229.9 L244.1,199.3 L244.9,174.2 L245.8,161.3 L246.6,160.1 L247.5,150.9 L248.3,148.1 L249.1,147.5 L250.0,142.0 L250.8,141.7 L251.7,146.0 L252.5,148.4 L253.4,158.5 L254.2,170.2 L255.0,176.3 L255.9,178.4 L256.7,196.5 L257.6,225.0 L258.4,242.1 L259.2,252.2 L260.1,258.7 L260.9,261.4 L261.8,259.6 L262.6,248.6 L263.5,223.8 L264.3,196.2 L265.1,175.4 L266.0,167.4 L266.8,163.4 L267.7,164.7 L268.5,166.2 L269.3,168.3 L270.2,170.2 L271.0,170.8 L271.9,171.1 L272.7,170.5 L273.5,175.1 L274.4,181.8 L275.2,184.0 L276.1,186.7 L276.9,203.6 L277.8,226.2 L278.6,244.0 L279.4,253.8 L280.3,259.3 L281.1,261.4 L282.0,259.0 L282.8,247.9 L283.6,223.1 L284.5,196.5 L285.3,176.6 L286.2,169.0 L287.0,164.4 L287.9,165.6 L288.7,166.8 L289.5,169.3 L290.4,171.1 L291.2,171.4 L292.1,172.3 L292.9,171.4 L293.7,176.3 L294.6,183.0 L295.4,184.6 L296.3,187.6 L297.1,204.5 L298.0,226.2 L298.8,244.0 L299.6,252.8 L300.5,258.0 L301.3,261.1 L302.2,260.8 L303.0,259.6 L303.8,248.9 L304.7,233.9 L305.5,216.4 L306.4,200.8 L307.2,193.8 L308.1,194.7 L308.9,195.0 L309.7,198.0 L310.6,203.6 L311.4,204.8 L312.3,202.3 L313.1,199.6 L313.9,198.7 L314.8,201.1 L315.6,198.0 L316.5,198.3 L317.3,209.7 L318.1,226.2 L319.0,239.4 L319.8,247.0 L320.7,252.2 L321.5,253.8 L322.4,252.2 L323.2,249.2 L324.0,239.4 L324.9,228.3 L325.7,210.0 L326.6,192.8 L327.4,185.5 L328.2,184.6 L329.1,186.4 L329.9,186.7 L330.8,191.0 L331.6,192.8 L332.5,189.8 L333.3,182.1 L334.1,185.5 L335.0,183.3 L335.8,179.1 L336.7,182.7 L337.5,202.6 L338.3,221.9 L339.2,236.0 L340.0,243.7 L340.9,247.0 L341.7,248.2 L342.6,244.9 L343.4,232.3 L344.2,206.6 L345.1,178.4 L345.9,160.1 L346.8,154.3 L347.6,154.6 L348.4,157.6 L349.3,161.0 L350.1,164.7 L351.0,167.7 L351.8,169.0 L352.7,169.6 L353.5,170.2 L354.3,175.4 L355.2,178.4 L356.0,176.9 L356.9,180.3 L357.7,199.3 L358.5,224.1 L359.4,237.8 L360.2,242.4 L361.1,245.2 L361.9,246.4 L362.7,242.7 L363.6,231.1 L364.4,206.6 L365.3,180.0 L366.1,163.4 L367.0,159.8 L367.8,160.1 L368.6,163.8 L369.5,166.5 L370.3,169.3 L371.2,171.4 L372.0,172.9 L372.8,173.9 L373.7,173.9 L374.5,178.8 L375.4,184.6 L376.2,184.3 L377.1,187.3 L377.9,204.5 L378.7,227.4 L379.6,241.8 L380.4,252.2 L381.3,257.4 L382.1,259.6 L382.9,256.2 L383.8,244.0 L384.6,221.0 L385.5,195.3 L386.3,178.1 L387.2,171.4 L388.0,166.8 L388.8,167.4 L389.7,168.6 L390.5,170.8 L391.4,172.6 L392.2,173.9 L393.0,173.9 L393.9,173.9 L394.7,178.8 L395.6,185.2 L396.4,184.3 L397.3,187.9 L398.1,205.7 L398.9,227.7 L399.8,244.3 L400.6,253.5 L401.5,258.4 L402.3,260.5 L403.1,257.7 L404.0,245.2 L404.8,219.2 L405.7,188.5 L406.5,168.6 L407.3,162.5 L408.2,160.7 L409.0,163.8 L409.9,166.8 L410.7,169.9 L411.6,172.6 L412.4,174.2 L413.2,175.1 L414.1,174.8 L414.9,179.4 L415.8,185.5 L416.6,185.5 L417.4,188.5 L418.3,206.0 L419.1,214.0 L420.0,217.9 L420.8,221.9 L421.7,225.9 L422.5,229.9 L423.3,233.9 L424.2,237.8 L425.0,219.5 L425.9,194.7 L426.7,179.1 L427.5,172.9 L428.4,169.3 L429.2,170.2 L430.1,171.1 L430.9,172.6 L431.8,174.2 L432.6,175.1 L433.4,174.5 L434.3,172.9 L435.1,177.5 L436.0,183.7 L436.8,187.3 L437.6,189.8 L438.5,206.9 L439.3,237.5 L440.2,249.8 L441.0,258.0 L441.9,263.9 L442.7,266.6 L443.5,265.7 L444.4,263.9 L445.2,257.7 L446.1,243.4 L446.9,228.0 L447.7,217.6 L448.6,209.1 L449.4,207.8 L450.3,205.7 L451.1,207.5 L451.9,210.6 L452.8,211.2 L453.6,212.7 L454.5,214.3 L455.3,213.0 L456.2,213.7 L457.0,213.3 L457.8,210.6 L458.7,221.6 L459.5,237.2 L460.4,252.8 L461.2,264.5 L462.0,271.2 L462.9,273.7 L463.7,272.4 L464.6,269.4 L465.4,267.2 L466.3,255.9 L467.1,244.3 L467.9,226.8 L468.8,214.0 L469.6,213.7 L470.5,209.4 L471.3,207.5 L472.1,205.1 L473.0,200.5 L473.8,195.6 L474.7,189.5 L475.5,184.9 L476.4,190.7 L477.2,197.7 L478.0,197.1 L478.9,209.4 L479.7,233.6 L480.6,254.4 L481.4,266.3 L482.2,273.4 L483.1,276.1 L483.9,274.9 L484.8,271.5 L485.6,272.7 L486.5,259.6 L487.3,247.3 L488.1,228.3 L489.0,214.6 L489.8,215.5 L490.7,209.4 L491.5,205.7 L492.3,202.0 L493.2,198.3 L494.0,195.9 L494.9,190.4 L495.7,184.9 L496.5,189.5 L497.4,196.2 L498.2,194.7 L499.1,207.5 L499.9,230.2 L500.8,244.0 L501.6,253.5 L502.4,260.5 L503.3,263.6 L504.1,262.9 L505.0,253.8 L505.8,231.4 L506.6,202.0 L507.5,180.3 L508.3,170.8 L509.2,168.0 L510.0,167.1 L510.9,167.7 L511.7,169.3 L512.5,170.2 L513.4,171.1 L514.2,171.4 L515.1,170.8 L515.9,176.6 L516.7,182.7 L517.6,186.1 L518.4,187.3 L519.3,204.5 L520.1,230.2 L521.0,248.2 L521.8,256.2 L522.6,262.0 L523.5,263.9 L524.3,262.3 L525.2,252.2 L526.0,228.3 L526.8,200.5 L527.7,180.3 L528.5,172.6 L529.4,168.3 L530.2,169.0 L531.1,170.5 L531.9,172.6 L532.7,174.5 L533.6,175.7 L534.4,176.3 L535.3,175.1 L536.1,180.0 L536.9,186.4 L537.8,189.2 L538.6,190.7 L539.5,207.2 L540.3,212.1 L541.2,212.1 L542.0,212.1 L542.8,212.1 L543.7,212.1 L544.5,212.1 L545.4,212.1 L546.2,212.1 L547.0,212.1 L547.9,212.1 L548.7,212.1 L549.6,212.1 L550.4,212.1 L551.2,212.1 L552.1,212.1 L552.9,212.1 L553.8,212.1 L554.6,212.1 L555.5,212.1 L556.3,212.1 L557.1,212.1 L558.0,212.1 L558.8,212.1 L559.7,212.1 L560.5,212.1 L561.3,238.1 L562.2,245.5 L563.0,252.5 L563.9,256.5 L564.7,257.1 L565.6,247.3 L566.4,225.6 L567.2,192.8 L568.1,168.0 L568.9,156.7 L569.8,152.7 L570.6,150.0 L571.4,149.1 L572.3,148.7 L573.1,142.0 L574.0,143.5 L574.8,145.7 L575.7,146.9 L576.5,155.5 L577.3,166.8 L578.2,174.2 L579.0,177.2 L579.9,195.3 L580.7,232.9 L581.5,244.0 L582.4,250.7 L583.2,259.0 L584.1,262.3 L584.9,265.1 L585.8,257.7 L586.6,252.5 L587.4,240.9 L588.3,228.0 L589.1,215.8 L590.0,205.1 L590.8,202.9 L591.6,201.4 L592.5,204.8 L593.3,209.1 L594.2,210.6 L595.0,207.5 L595.8,205.1 L596.7,205.4 L597.5,209.7 L598.4,210.0 L599.2,208.1 L600.1,219.2 L600.9,238.8 L601.7,251.9 L602.6,262.3 L603.4,269.7 L604.3,272.1 L605.1,271.2 L605.9,268.8 L606.8,260.2 L607.6,246.4 L608.5,227.4 L609.3,212.1 L610.2,205.4 L611.0,199.9 L611.8,199.9 L612.7,202.3 L613.5,205.1 L614.4,206.0 L615.2,204.2 L616.0,198.7 L616.9,198.7 L617.7,203.9 L618.6,204.5 L619.4,202.6 L620.3,214.3 L621.1,210.3 L621.9,220.7 L622.8,229.0 L623.6,234.5 L624.5,236.6 L625.3,235.1 L626.1,226.5 L627.0,202.6 L627.8,173.9 L628.7,154.0 L629.5,145.1 L630.4,140.2 L631.2,140.5 L632.0,141.7 L632.9,143.5 L633.7,145.1 L634.6,146.0 L635.4,145.4 L636.2,146.6 L637.1,152.7 L637.9,159.8 L638.8,161.6 L639.6,165.0 L640.4,180.6 L641.3,204.8 L642.1,221.0 L643.0,230.5 L643.8,236.0 L644.7,238.5 L645.5,236.3 L646.3,227.1 L647.2,204.5 L648.0,177.2 L648.9,157.3 L649.7,149.1 L650.5,143.9 L651.4,143.9 L652.2,144.8 L653.1,146.3 L653.9,147.5 L654.8,147.8 L655.6,146.9 L656.4,147.5 L657.3,153.0 L658.1,159.5 L659.0,162.5 L659.8,165.3 L660.6,181.2 L661.5,201.7 L662.3,221.6 L663.2,231.1 L664.0,237.2 L664.9,239.4 L665.7,237.5 L666.5,227.7 L667.4,206.3 L668.2,180.6 L669.1,161.6 L669.9,153.0 L670.7,146.6 L671.6,145.7 L672.4,145.4 L673.3,146.0 L674.1,146.0 L675.0,142.3 L675.8,139.6 L676.6,140.8 L677.5,148.4 L678.3,153.6 L679.2,157.6 L680.0,158.5" stroke="#9467bd" stroke-width="2" fill="none" opacity="0.8"/>
<!-- Total Generation -->
<path d="M80.0,203.2 L80.8,208.8 L81.7,180.6 L82.5,188.2 L83.4,165.6 L84.2,178.1 L85.0,158.2 L85.9,161.6 L86.7,145.1 L87.6,134.4 L88.4,132.2 L89.3,132.2 L90.1,143.9 L90.9,161.9 L91.8,155.8 L92.6,154.6 L93.5,191.9 L94.3,180.3 L95.1,194.4 L96.0,205.1 L96.8,194.4 L97.7,190.4 L98.5,217.0 L99.4,214.6 L100.2,200.2 L101.0,197.4 L101.9,154.6 L102.7,158.5 L103.6,146.3 L104.4,145.7 L105.2,155.2 L106.1,178.1 L106.9,192.8 L107.8,210.9 L108.6,206.3 L109.5,213.0 L110.3,218.9 L111.1,189.8 L112.0,169.3 L112.8,163.1 L113.7,173.2 L114.5,219.2 L115.3,217.3 L116.2,209.1 L117.0,191.0 L117.9,167.4 L118.7,168.0 L119.6,177.2 L120.4,192.2 L121.2,186.7 L122.1,189.5 L122.9,223.5 L123.8,225.3 L124.6,230.8 L125.4,191.6 L126.3,190.7 L127.1,207.5 L128.0,209.4 L128.8,220.1 L129.6,203.9 L130.5,210.3 L131.3,191.9 L132.2,151.8 L133.0,176.3 L133.9,163.8 L134.7,162.5 L135.5,196.5 L136.4,187.3 L137.2,198.0 L138.1,236.9 L138.9,255.6 L139.7,255.9 L140.6,265.4 L141.4,249.2 L142.3,233.9 L143.1,249.2 L144.0,239.1 L144.8,262.0 L145.6,252.2 L146.5,237.5 L147.3,228.0 L148.2,226.5 L149.0,223.1 L149.8,213.7 L150.7,214.9 L151.5,223.5 L152.4,221.0 L153.2,232.3 L154.1,236.0 L154.9,202.0 L155.7,191.9 L156.6,233.9 L157.4,250.1 L158.3,231.7 L159.1,253.5 L159.9,224.4 L160.8,230.8 L161.6,237.5 L162.5,250.4 L163.3,252.5 L164.2,257.4 L165.0,205.1 L165.8,233.6 L166.7,243.0 L167.5,246.7 L168.4,242.1 L169.2,242.7 L170.0,234.8 L170.9,245.2 L171.7,227.4 L172.6,237.8 L173.4,194.4 L174.2,190.1 L175.1,187.9 L175.9,188.2 L176.8,191.6 L177.6,212.1 L178.5,191.9 L179.3,202.0 L180.1,201.7 L181.0,212.1 L181.8,212.7 L182.7,217.3 L183.5,217.6 L184.3,180.9 L185.2,206.9 L186.0,213.0 L186.9,210.6 L187.7,207.5 L188.6,212.4 L189.4,234.5 L190.2,224.4 L191.1,215.2 L191.9,188.2 L192.8,210.3 L193.6,229.6 L194.4,192.2 L195.3,165.6 L196.1,210.3 L197.0,237.8 L197.8,256.5 L198.7,253.1 L199.5,245.8 L200.3,229.9 L201.2,217.6 L202.0,207.2 L202.9,189.8 L203.7,198.3 L204.5,190.4 L205.4,188.5 L206.2,174.2 L207.1,169.9 L207.9,170.2 L208.8,188.5 L209.6,183.0 L210.4,140.5 L211.3,142.3 L212.1,145.7 L213.0,124.6 L213.8,67.6 L214.6,69.1 L215.5,81.7 L216.3,78.0 L217.2,121.8 L218.0,155.5 L218.8,133.1 L219.7,138.6 L220.5,153.6 L221.4,126.4 L222.2,136.8 L223.1,133.4 L223.9,119.4 L224.7,131.6 L225.6,121.5 L226.4,138.0 L227.3,167.1 L228.1,180.0 L228.9,180.9 L229.8,185.8 L230.6,112.6 L231.5,82.6 L232.3,89.4 L233.2,90.6 L234.0,98.8 L234.8,85.4 L235.7,90.9 L236.5,120.0 L237.4,150.9 L238.2,179.7 L239.0,266.6 L239.9,267.2 L240.7,268.8 L241.6,263.6 L242.4,255.9 L243.3,255.6 L244.1,233.2 L244.9,224.7 L245.8,192.8 L246.6,201.4 L247.5,216.7 L248.3,187.6 L249.1,210.9 L250.0,177.5 L250.8,163.4 L251.7,198.0 L252.5,232.9 L253.4,210.9 L254.2,175.4 L255.0,168.6 L255.9,199.9 L256.7,167.7 L257.6,181.2 L258.4,182.4 L259.2,157.0 L260.1,167.1 L260.9,163.8 L261.8,183.7 L262.6,180.6 L263.5,177.8 L264.3,176.6 L265.1,184.6 L266.0,195.3 L266.8,191.3 L267.7,166.5 L268.5,183.3 L269.3,174.5 L270.2,146.3 L271.0,175.7 L271.9,175.7 L272.7,140.5 L273.5,137.7 L274.4,145.7 L275.2,157.9 L276.1,180.0 L276.9,164.7 L277.8,162.2 L278.6,160.1 L279.4,152.7 L280.3,150.0 L281.1,149.7 L282.0,184.3 L282.8,155.8 L283.6,141.7 L284.5,137.7 L285.3,150.0 L286.2,127.0 L287.0,124.9 L287.9,123.0 L288.7,144.8 L289.5,157.6 L290.4,138.0 L291.2,134.4 L292.1,164.4 L292.9,176.3 L293.7,173.2 L294.6,185.2 L295.4,197.4 L296.3,202.6 L297.1,222.5 L298.0,223.8 L298.8,228.0 L299.6,219.8 L300.5,241.8 L301.3,249.2 L302.2,252.8 L303.0,242.7 L303.8,241.5 L304.7,231.7 L305.5,223.5 L306.4,223.5 L307.2,225.0 L308.1,224.4 L308.9,235.1 L309.7,235.1 L310.6,240.6 L311.4,248.2 L312.3,222.5 L313.1,218.2 L313.9,193.4 L314.8,196.2 L315.6,222.5 L316.5,219.5 L317.3,236.9 L318.1,229.6 L319.0,207.2 L319.8,218.9 L320.7,223.5 L321.5,223.5 L322.4,235.1 L323.2,244.9 L324.0,217.9 L324.9,236.0 L325.7,226.2 L326.6,223.8 L327.4,214.6 L328.2,169.9 L329.1,173.5 L329.9,156.7 L330.8,169.9 L331.6,198.0 L332.5,202.6 L333.3,200.5 L334.1,153.3 L335.0,194.4 L335.8,222.8 L336.7,224.1 L337.5,226.2 L338.3,243.0 L339.2,230.8 L340.0,237.2 L340.9,235.7 L341.7,241.2 L342.6,232.9 L343.4,239.1 L344.2,233.6 L345.1,216.4 L345.9,218.6 L346.8,228.3 L347.6,208.4 L348.4,219.5 L349.3,221.9 L350.1,229.6 L351.0,241.5 L351.8,245.5 L352.7,201.4 L353.5,213.3 L354.3,215.8 L355.2,192.5 L356.0,218.2 L356.9,219.2 L357.7,212.1 L358.5,178.8 L359.4,208.1 L360.2,209.1 L361.1,210.3 L361.9,189.8 L362.7,186.7 L363.6,195.0 L364.4,174.5 L365.3,203.9 L366.1,174.2 L367.0,197.4 L367.8,184.3 L368.6,173.2 L369.5,172.9 L370.3,177.8 L371.2,184.9 L372.0,205.4 L372.8,195.3 L373.7,164.7 L374.5,165.0 L375.4,139.0 L376.2,156.1 L377.1,207.2 L377.9,195.3 L378.7,169.3 L379.6,182.7 L380.4,185.2 L381.3,172.6 L382.1,176.0 L382.9,188.5 L383.8,181.5 L384.6,182.4 L385.5,180.9 L386.3,167.4 L387.2,142.0 L388.0,149.1 L388.8,199.3 L389.7,175.7 L390.5,181.8 L391.4,169.0 L392.2,182.7 L393.0,199.3 L393.9,169.3 L394.7,161.0 L395.6,170.8 L396.4,177.5 L397.3,180.3 L398.1,180.0 L398.9,185.5 L399.8,176.3 L400.6,206.0 L401.5,191.0 L402.3,184.0 L403.1,188.9 L404.0,177.5 L404.8,177.2 L405.7,192.2 L406.5,170.2 L407.3,184.9 L408.2,217.6 L409.0,195.0 L409.9,199.3 L410.7,201.4 L411.6,196.8 L412.4,179.7 L413.2,197.7 L414.1,181.5 L414.9,172.6 L415.8,165.0 L416.6,174.8 L417.4,196.5 L418.3,192.8 L419.1,187.9 L420.0,200.2 L420.8,216.1 L421.7,210.3 L422.5,204.8 L423.3,203.6 L424.2,204.5 L425.0,195.3 L425.9,192.5 L426.7,229.6 L427.5,227.7 L428.4,234.5 L429.2,234.5 L430.1,236.6 L430.9,233.2 L431.8,236.6 L432.6,238.8 L433.4,250.1 L434.3,222.2 L435.1,205.1 L436.0,182.4 L436.8,185.2 L437.6,180.3 L438.5,184.3 L439.3,198.0 L440.2,198.7 L441.0,215.8 L441.9,199.0 L442.7,205.1 L443.5,208.1 L444.4,203.9 L445.2,197.1 L446.1,200.2 L446.9,231.7 L447.7,211.5 L448.6,191.0 L449.4,218.2 L450.3,200.5 L451.1,203.6 L451.9,219.2 L452.8,223.1 L453.6,212.7 L454.5,213.0 L455.3,220.1 L456.2,249.2 L457.0,260.5 L457.8,266.9 L458.7,270.9 L459.5,276.1 L460.4,280.4 L461.2,276.1 L462.0,266.9 L462.9,256.8 L463.7,257.4 L464.6,242.7 L465.4,220.7 L466.3,212.1 L467.1,207.5 L467.9,175.7 L468.8,203.6 L469.6,165.0 L470.5,180.9 L471.3,200.2 L472.1,200.2 L473.0,189.5 L473.8,187.6 L474.7,202.0 L475.5,218.2 L476.4,238.1 L477.2,205.1 L478.0,211.5 L478.9,226.8 L479.7,229.6 L480.6,234.8 L481.4,258.4 L482.2,256.8 L483.1,257.7 L483.9,259.6 L484.8,235.7 L485.6,225.0 L486.5,204.5 L487.3,220.4 L488.1,197.7 L489.0,196.5 L489.8,196.2 L490.7,213.3 L491.5,195.6 L492.3,181.2 L493.2,178.8 L494.0,179.7 L494.9,174.2 L495.7,204.2 L496.5,204.8 L497.4,183.0 L498.2,231.7 L499.1,233.2 L499.9,231.4 L500.8,240.0 L501.6,237.8 L502.4,237.2 L503.3,237.2 L504.1,233.6 L505.0,231.7 L505.8,225.0 L506.6,221.0 L507.5,202.0 L508.3,202.0 L509.2,197.1 L510.0,203.2 L510.9,181.8 L511.7,169.6 L512.5,137.1 L513.4,115.1 L514.2,136.5 L515.1,143.2 L515.9,114.2 L516.7,140.2 L517.6,139.6 L518.4,145.7 L519.3,158.2 L520.1,170.5 L521.0,182.4 L521.8,209.1 L522.6,206.3 L523.5,231.7 L524.3,199.3 L525.2,171.1 L526.0,171.7 L526.8,170.8 L527.7,187.0 L528.5,176.3 L529.4,184.0 L530.2,191.0 L531.1,192.8 L531.9,165.3 L532.7,167.1 L533.6,186.7 L534.4,176.9 L535.3,172.9 L536.1,165.9 L536.9,177.8 L537.8,162.2 L538.6,171.4 L539.5,156.4 L540.3,161.6 L541.2,169.9 L542.0,170.8 L542.8,172.6 L543.7,187.9 L544.5,211.2 L545.4,233.9 L546.2,182.7 L547.0,179.4 L547.9,185.8 L548.7,184.9 L549.6,186.7 L550.4,172.6 L551.2,166.2 L552.1,167.1 L552.9,144.5 L553.8,158.9 L554.6,142.6 L555.5,149.7 L556.3,169.0 L557.1,175.7 L558.0,146.9 L558.8,160.4 L559.7,206.3 L560.5,157.6 L561.3,184.6 L562.2,215.2 L563.0,189.8 L563.9,219.8 L564.7,222.8 L565.6,239.4 L566.4,231.7 L567.2,208.8 L568.1,218.6 L568.9,223.1 L569.8,221.9 L570.6,224.7 L571.4,224.4 L572.3,247.6 L573.1,219.5 L574.0,224.7 L574.8,211.5 L575.7,223.1 L576.5,186.4 L577.3,204.5 L578.2,184.0 L579.0,198.3 L579.9,206.6 L580.7,203.9 L581.5,187.9 L582.4,179.1 L583.2,195.9 L584.1,199.9 L584.9,215.5 L585.8,234.2 L586.6,228.0 L587.4,240.6 L588.3,253.5 L589.1,250.4 L590.0,246.1 L590.8,242.7 L591.6,224.7 L592.5,220.4 L593.3,223.8 L594.2,224.1 L595.0,220.4 L595.8,215.8 L596.7,187.9 L597.5,183.7 L598.4,175.4 L599.2,163.8 L600.1,195.6 L600.9,195.3 L601.7,195.6 L602.6,187.6 L603.4,191.9 L604.3,186.4 L605.1,187.9 L605.9,185.5 L606.8,180.9 L607.6,205.4 L608.5,203.6 L609.3,201.1 L610.2,201.4 L611.0,198.0 L611.8,173.5 L612.7,179.7 L613.5,178.4 L614.4,180.0 L615.2,187.0 L616.0,148.7 L616.9,149.7 L617.7,157.6 L618.6,169.9 L619.4,176.6 L620.3,164.7 L621.1,184.9 L621.9,189.2 L622.8,188.9 L623.6,189.2 L624.5,187.0 L625.3,198.7 L626.1,212.1 L627.0,195.6 L627.8,168.3 L628.7,153.0 L629.5,145.1 L630.4,122.4 L631.2,118.7 L632.0,121.2 L632.9,120.3 L633.7,107.1 L634.6,134.4 L635.4,116.9 L636.2,127.9 L637.1,136.5 L637.9,119.1 L638.8,127.3 L639.6,183.3 L640.4,185.2 L641.3,187.3 L642.1,185.8 L643.0,205.7 L643.8,214.6 L644.7,219.8 L645.5,208.4 L646.3,189.8 L647.2,185.5 L648.0,196.5 L648.9,198.3 L649.7,206.6 L650.5,186.4 L651.4,174.2 L652.2,175.7 L653.1,176.3 L653.9,171.4 L654.8,183.7 L655.6,184.9 L656.4,181.5 L657.3,135.0 L658.1,161.3 L659.0,181.2 L659.8,170.2 L660.6,158.2 L661.5,152.7 L662.3,176.6 L663.2,235.1 L664.0,238.5 L664.9,232.9 L665.7,211.2 L666.5,218.2 L667.4,210.3 L668.2,208.8 L669.1,210.0 L669.9,206.9 L670.7,213.3 L671.6,210.6 L672.4,203.6 L673.3,137.7 L674.1,137.7 L675.0,202.3 L675.8,198.3 L676.6,195.6 L677.5,199.6 L678.3,155.8 L679.2,129.5 L680.0,145.4" stroke="#8c564b" stroke-width="2" fill="none" opacity="0.8"/>
<!-- Forecast Difference -->
<path d="M80.0,420.0 L80.8,420.0 L81.7,420.0 L82.5,420.0 L83.4,420.0 L84.2,420.0 L85.0,420.0 L85.9,420.0 L86.7,420.0 L87.6,420.0 L88.4,420.0 L89.3,420.0 L90.1,420.0 L90.9,420.0 L91.8,420.0 L92.6,420.0 L93.5,420.0 L94.3,420.0 L95.1,420.0 L96.0,420.0 L96.8,420.0 L97.7,420.0 L98.5,420.0 L99.4,420.0 L100.2,420.0 L101.0,420.0 L101.9,420.0 L102.7,420.0 L103.6,420.0 L104.4,420.0 L105.2,420.0 L106.1,420.0 L106.9,420.0 L107.8,420.0 L108.6,420.0 L109.5,420.0 L110.3,420.0 L111.1,420.0 L112.0,420.0 L112.8,420.0 L113.7,420.0 L114.5,420.0 L115.3,420.0 L116.2,420.0 L117.0,420.0 L117.9,420.0 L118.7,420.0 L119.6,420.0 L120.4,420.0 L121.2,420.0 L122.1,420.0 L122.9,420.0 L123.8,420.0 L124.6,420.0 L125.4,420.0 L126.3,420.0 L127.1,420.0 L128.0,420.0 L128.8,420.0 L129.6,420.0 L130.5,420.0 L131.3,420.0 L132.2,420.0 L133.0,420.0 L133.9,420.0 L134.7,420.0 L135.5,420.0 L136.4,420.0 L137.2,420.0 L138.1,420.0 L138.9,420.0 L139.7,420.0 L140.6,420.0 L141.4,420.0 L142.3,420.0 L143.1,420.0 L144.0,420.0 L144.8,420.0 L145.6,420.0 L146.5,420.0 L147.3,420.0 L148.2,420.0 L149.0,420.0 L149.8,420.0 L150.7,420.0 L151.5,420.0 L152.4,420.0 L153.2,420.0 L154.1,420.0 L154.9,420.0 L155.7,420.0 L156.6,420.0 L157.4,420.0 L158.3,420.0 L159.1,420.0 L159.9,420.0 L160.8,420.0 L161.6,420.0 L162.5,420.0 L163.3,420.0 L164.2,420.0 L165.0,420.0 L165.8,420.0 L166.7,420.0 L167.5,420.0 L168.4,420.0 L169.2,420.0 L170.0,420.0 L170.9,420.0 L171.7,420.0 L172.6,420.0 L173.4,420.0 L174.2,420.0 L175.1,420.0 L175.9,420.0 L176.8,420.0 L177.6,420.0 L178.5,420.0 L179.3,420.0 L180.1,420.0 L181.0,420.0 L181.8,420.0 L182.7,420.0 L183.5,420.0 L184.3,420.0 L185.2,420.0 L186.0,420.0 L186.9,420.0 L187.7,420.0 L188.6,420.0 L189.4,420.0 L190.2,420.0 L191.1,420.0 L191.9,420.0 L192.8,420.0 L193.6,420.0 L194.4,420.0 L195.3,420.0 L196.1,420.0 L197.0,420.0 L197.8,420.0 L198.7,420.0 L199.5,420.0 L200.3,420.0 L201.2,420.0 L202.0,420.0 L202.9,420.0 L203.7,420.0 L204.5,420.0 L205.4,420.0 L206.2,420.0 L207.1,420.0 L207.9,420.0 L208.8,420.0 L209.6,420.0 L210.4,420.0 L211.3,420.0 L212.1,420.0 L213.0,420.0 L213.8,420.0 L214.6,420.0 L215.5,420.0 L216.3,420.0 L217.2,420.0 L218.0,420.0 L218.8,420.0 L219.7,420.0 L220.5,420.0 L221.4,420.0 L222.2,420.0 L223.1,420.0 L223.9,420.0 L224.7,420.0 L225.6,420.0 L226.4,420.0 L227.3,420.0 L228.1,420.0 L228.9,420.0 L229.8,420.0 L230.6,420.0 L231.5,420.0 L232.3,420.0 L233.2,420.0 L234.0,420.0 L234.8,420.0 L235.7,420.0 L236.5,420.0 L237.4,420.0 L238.2,420.0 L239.0,420.0 L239.9,420.0 L240.7,420.0 L241.6,420.0 L242.4,420.0 L243.3,420.0 L244.1,420.0 L244.9,420.0 L245.8,420.0 L246.6,420.0 L247.5,420.0 L248.3,420.0 L249.1,420.0 L250.0,420.0 L250.8,420.0 L251.7,420.0 L252.5,420.0 L253.4,420.0 L254.2,420.0 L255.0,420.0 L255.9,420.0 L256.7,420.0 L257.6,420.0 L258.4,420.0 L259.2,420.0 L260.1,420.0 L260.9,420.0 L261.8,420.0 L262.6,420.0 L263.5,420.0 L264.3,420.0 L265.1,420.0 L266.0,420.0 L266.8,420.0 L267.7,420.0 L268.5,420.0 L269.3,420.0 L270.2,420.0 L271.0,420.0 L271.9,420.0 L272.7,420.0 L273.5,420.0 L274.4,420.0 L275.2,420.0 L276.1,420.0 L276.9,420.0 L277.8,420.0 L278.6,420.0 L279.4,420.0 L280.3,420.0 L281.1,420.0 L282.0,420.0 L282.8,420.0 L283.6,420.0 L284.5,420.0 L285.3,420.0 L286.2,420.0 L287.0,420.0 L287.9,420.0 L288.7,420.0 L289.5,420.0 L290.4,420.0 L291.2,420.0 L292.1,420.0 L292.9,420.0 L293.7,420.0 L294.6,420.0 L295.4,420.0 L296.3,420.0 L297.1,420.0 L298.0,420.0 L298.8,420.0 L299.6,420.0 L300.5,420.0 L301.3,420.0 L302.2,420.0 L303.0,420.0 L303.8,420.0 L304.7,420.0 L305.5,420.0 L306.4,420.0 L307.2,420.0 L308.1,420.0 L308.9,420.0 L309.7,420.0 L310.6,420.0 L311.4,420.0 L312.3,420.0 L313.1,420.0 L313.9,420.0 L314.8,420.0 L315.6,420.0 L316.5,420.0 L317.3,420.0 L318.1,420.0 L319.0,420.0 L319.8,420.0 L320.7,420.0 L321.5,420.0 L322.4,420.0 L323.2,420.0 L324.0,420.0 L324.9,420.0 L325.7,420.0 L326.6,420.0 L327.4,420.0 L328.2,420.0 L329.1,420.0 L329.9,420.0 L330.8,420.0 L331.6,420.0 L332.5,420.0 L333.3,420.0 L334.1,420.0 L335.0,420.0 L335.8,420.0 L336.7,420.0 L337.5,420.0 L338.3,420.0 L339.2,420.0 L340.0,420.0 L340.9,420.0 L341.7,420.0 L342.6,420.0 L343.4,420.0 L344.2,420.0 L345.1,420.0 L345.9,420.0 L346.8,420.0 L347.6,420.0 L348.4,420.0 L349.3,420.0 L350.1,420.0 L351.0,420.0 L351.8,420.0 L352.7,420.0 L353.5,420.0 L354.3,420.0 L355.2,420.0 L356.0,420.0 L356.9,420.0 L357.7,420.0 L358.5,420.0 L359.4,420.0 L360.2,420.0 L361.1,420.0 L361.9,420.0 L362.7,420.0 L363.6,420.0 L364.4,420.0 L365.3,420.0 L366.1,420.0 L367.0,420.0 L367.8,420.0 L368.6,420.0 L369.5,420.0 L370.3,420.0 L371.2,420.0 L372.0,420.0 L372.8,420.0 L373.7,420.0 L374.5,420.0 L375.4,420.0 L376.2,420.0 L377.1,420.0 L377.9,420.0 L378.7,420.0 L379.6,420.0 L380.4,420.0 L381.3,420.0 L382.1,420.0 L382.9,420.0 L383.8,420.0 L384.6,420.0 L385.5,420.0 L386.3,420.0 L387.2,420.0 L388.0,420.0 L388.8,420.0 L389.7,420.0 L390.5,420.0 L391.4,420.0 L392.2,420.0 L393.0,420.0 L393.9,420.0 L394.7,420.0 L395.6,420.0 L396.4,420.0 L397.3,420.0 L398.1,420.0 L398.9,420.0 L399.8,420.0 L400.6,420.0 L401.5,420.0 L402.3,420.0 L403.1,420.0 L404.0,420.0 L404.8,420.0 L405.7,420.0 L406.5,420.0 L407.3,420.0 L408.2,420.0 L409.0,420.0 L409.9,420.0 L410.7,420.0 L411.6,420.0 L412.4,420.0 L413.2,420.0 L414.1,420.0 L414.9,420.0 L415.8,420.0 L416.6,420.0 L417.4,420.0 L418.3,420.0 L419.1,420.0 L420.0,420.0 L420.8,420.0 L421.7,420.0 L422.5,420.0 L423.3,420.0 L424.2,420.0 L425.0,420.0 L425.9,420.0 L426.7,420.0 L427.5,420.0 L428.4,420.0 L429.2,420.0 L430.1,420.0 L430.9,420.0 L431.8,420.0 L432.6,420.0 L433.4,420.0 L434.3,420.0 L435.1,420.0 L436.0,420.0 L436.8,420.0 L437.6,420.0 L438.5,420.0 L439.3,420.0 L440.2,420.0 L441.0,420.0 L441.9,420.0 L442.7,420.0 L443.5,420.0 L444.4,420.0 L445.2,420.0 L446.1,420.0 L446.9,420.0 L447.7,420.0 L448.6,420.0 L449.4,420.0 L450.3,420.0 L451.1,420.0 L451.9,420.0 L452.8,420.0 L453.6,420.0 L454.5,420.0 L455.3,420.0 L456.2,420.0 L457.0,420.0 L457.8,420.0 L458.7,420.0 L459.5,420.0 L460.4,420.0 L461.2,420.0 L462.0,420.0 L462.9,420.0 L463.7,420.0 L464.6,420.0 L465.4,420.0 L466.3,420.0 L467.1,420.0 L467.9,420.0 L468.8,420.0 L469.6,420.0 L470.5,420.0 L471.3,420.0 L472.1,420.0 L473.0,420.0 L473.8,420.0 L474.7,420.0 L475.5,420.0 L476.4,420.0 L477.2,420.0 L478.0,420.0 L478.9,420.0 L479.7,420.0 L480.6,420.0 L481.4,420.0 L482.2,420.0 L483.1,420.0 L483.9,420.0 L484.8,420.0 L485.6,420.0 L486.5,420.0 L487.3,420.0 L488.1,420.0 L489.0,420.0 L489.8,420.0 L490.7,420.0 L491.5,420.0 L492.3,420.0 L493.2,420.0 L494.0,420.0 L494.9,420.0 L495.7,420.0 L496.5,420.0 L497.4,420.0 L498.2,420.0 L499.1,420.0 L499.9,420.0 L500.8,420.0 L501.6,420.0 L502.4,420.0 L503.3,420.0 L504.1,420.0 L505.0,420.0 L505.8,420.0 L506.6,420.0 L507.5,420.0 L508.3,420.0 L509.2,420.0 L510.0,420.0 L510.9,420.0 L511.7,420.0 L512.5,420.0 L513.4,420.0 L514.2,420.0 L515.1,420.0 L515.9,420.0 L516.7,420.0 L517.6,420.0 L518.4,420.0 L519.3,420.0 L520.1,420.0 L521.0,420.0 L521.8,420.0 L522.6,420.0 L523.5,420.0 L524.3,420.0 L525.2,420.0 L526.0,420.0 L526.8,420.0 L527.7,420.0 L528.5,420.0 L529.4,420.0 L530.2,420.0 L531.1,420.0 L531.9,420.0 L532.7,420.0 L533.6,420.0 L534.4,420.0 L535.3,420.0 L536.1,420.0 L536.9,420.0 L537.8,420.0 L538.6,420.0 L539.5,420.0 L540.3,420.0 L541.2,420.0 L542.0,420.0 L542.8,420.0 L543.7,420.0 L544.5,420.0 L545.4,420.0 L546.2,420.0 L547.0,420.0 L547.9,420.0 L548.7,420.0 L549.6,420.0 L550.4,420.0 L551.2,420.0 L552.1,420.0 L552.9,420.0 L553.8,420.0 L554.6,420.0 L555.5,420.0 L556.3,420.0 L557.1,420.0 L558.0,420.0 L558.8,420.0 L559.7,420.0 L560.5,420.0 L561.3,420.0 L562.2,420.0 L563.0,420.0 L563.9,420.0 L564.7,420.0 L565.6,420.0 L566.4,420.0 L567.2,420.0 L568.1,420.0 L568.9,420.0 L569.8,420.0 L570.6,420.0 L571.4,420.0 L572.3,420.0 L573.1,420.0 L574.0,420.0 L574.8,420.0 L575.7,420.0 L576.5,420.0 L577.3,420.0 L578.2,420.0 L579.0,420.0 L579.9,420.0 L580.7,420.0 L581.5,420.0 L582.4,420.0 L583.2,420.0 L584.1,420.0 L584.9,420.0 L585.8,420.0 L586.6,420.0 L587.4,420.0 L588.3,420.0 L589.1,420.0 L590.0,420.0 L590.8,420.0 L591.6,420.0 L592.5,420.0 L593.3,420.0 L594.2,420.0 L595.0,420.0 L595.8,420.0 L596.7,420.0 L597.5,420.0 L598.4,420.0 L599.2,420.0 L600.1,420.0 L600.9,420.0 L601.7,420.0 L602.6,420.0 L603.4,420.0 L604.3,420.0 L605.1,420.0 L605.9,420.0 L606.8,420.0 L607.6,420.0 L608.5,420.0 L609.3,420.0 L610.2,420.0 L611.0,420.0 L611.8,420.0 L612.7,420.0 L613.5,420.0 L614.4,420.0 L615.2,420.0 L616.0,420.0 L616.9,420.0 L617.7,420.0 L618.6,420.0 L619.4,420.0 L620.3,420.0 L621.1,420.0 L621.9,420.0 L622.8,420.0 L623.6,420.0 L624.5,420.0 L625.3,420.0 L626.1,420.0 L627.0,420.0 L627.8,420.0 L628.7,420.0 L629.5,420.0 L630.4,420.0 L631.2,420.0 L632.0,420.0 L632.9,420.0 L633.7,420.0 L634.6,420.0 L635.4,420.0 L636.2,420.0 L637.1,420.0 L637.9,420.0 L638.8,420.0 L639.6,420.0 L640.4,420.0 L641.3,420.0 L642.1,420.0 L643.0,420.0 L643.8,420.0 L644.7,420.0 L645.5,420.0 L646.3,420.0 L647.2,420.0 L648.0,420.0 L648.9,420.0 L649.7,420.0 L650.5,420.0 L651.4,420.0 L652.2,420.0 L653.1,420.0 L653.9,420.0 L654.8,420.0 L655.6,420.0 L656.4,420.0 L657.3,420.0 L658.1,420.0 L659.0,420.0 L659.8,420.0 L660.6,420.0 L661.5,420.0 L662.3,420.0 L663.2,420.0 L664.0,420.0 L664.9,420.0 L665.7,420.0 L666.5,420.0 L667.4,420.0 L668.2,420.0 L669.1,420.0 L669.9,420.0 L670.7,420.0 L671.6,420.0 L672.4,420.0 L673.3,420.0 L674.1,420.0 L675.0,420.0 L675.8,420.0 L676.6,420.0 L677.5,420.0 L678.3,420.0 L679.2,420.0 L680.0,420.0" stroke="#e377c2" stroke-width="2" fill="none" opacity="0.8"/>

<!-- Legend -->
<line x1="690" y1="70" x2="705" y2="70" stroke="#1f77b4" stroke-width="3"/>
<text x="710" y="74" class="legend">Wind Generation</text>
<line x1="690" y1="88" x2="705" y2="88" stroke="#ff7f0e" stroke-width="3"/>
<text x="710" y="92" class="legend">Hydro Generation</text>
<line x1="690" y1="106" x2="705" y2="106" stroke="#2ca02c" stroke-width="3"/>
<text x="710" y="110" class="legend">Thermal Generation</text>
<line x1="690" y1="124" x2="705" y2="124" stroke="#d62728" stroke-width="3"/>
<text x="710" y="128" class="legend">Solar Generation</text>
<line x1="690" y1="142" x2="705" y2="142" stroke="#9467bd" stroke-width="3"/>
<text x="710" y="146" class="legend">Forecast</text>
<line x1="690" y1="160" x2="705" y2="160" stroke="#8c564b" stroke-width="3"/>
<text x="710" y="164" class="legend">Total Generation</text>
<line x1="690" y1="178" x2="705" y2="178" stroke="#e377c2" stroke-width="3"/>
<text x="710" y="182" class="legend">Forecast Difference</text>

<!-- Date range -->
<text x="80" y="495" class="legend">Range: 05/05 - 06/03/2026 (714 records)</text>
</svg>