<?xml version="1.0" encoding="UTF-8"?>
<svg width="800" height="500" xmlns="http://www.w3.org/2000/svg">
<style>
.axis-line { stroke: #333; stroke-width: 1; }
.grid-line { stroke: #ddd; stroke-width: 0.5; }
.title { font: 16px Arial; text-anchor: middle; fill: #333; }
.axis-label { font: 12px Arial; text-anchor: middle; fill: #666; }
.legend { font: 10px Arial; fill: #333; }
</style>

<!-- Title -->
<text x="400.0" y="25" class="title">Northwestern Energy Generation Data - Past 30 Days</text>

<!-- Plot area background -->
<rect x="80" y="50" width="600" height="370" fill="white" stroke="#ddd"/>

<!-- Y-axis -->
<line x1="80" y1="50" x2="80" y2="420" class="axis-line"/>
<text x="30" y="235.0" class="axis-label" transform="rotate(-90, 30, 235.0)">Generation (MW)</text>

<!-- X-axis -->
<line x1="80" y1="420" x2="680" y2="420" class="axis-line"/>
<text x="380.0" y="480" class="axis-label">Time</text>
<line x1="80" y1="420.0" x2="680" y2="420.0" class="grid-line"/>
<text x="70" y="425.0" class="legend" text-anchor="end">0</text>
<line x1="80" y1="327.5" x2="680" y2="327.5" class="grid-line"/>
<text x="70" y="332.5" class="legend" text-anchor="end">313</text>
<line x1="80" y1="235.0" x2="680" y2="235.0" class="grid-line"/>
<text x="70" y="240.0" class="legend" text-anchor="end">625</text>
<line x1="80" y1="142.5" x2="680" y2="142.5" class="grid-line"/>
<text x="70" y="147.5" class="legend" text-anchor="end">938</text>
<line x1="80" y1="50.0" x2="680" y2="50.0" class="grid-line"/>
<text x="70" y="55.0" class="legend" text-anchor="end">1251</text>
<!-- Wind Generation -->
<path d="M80.0,299.0 L80.8,303.7 L81.7,300.5 L82.5,293.4 L83.4,295.1 L84.2,292.5 L85.1,289.5 L85.9,290.4 L86.7,290.4 L87.6,291.3 L88.4,290.7 L89.3,294.8 L90.1,296.3 L91.0,298.1 L91.8,302.5 L92.6,305.5 L93.5,307.6 L94.3,297.2 L95.2,296.3 L96.0,310.2 L96.9,312.6 L97.7,318.8 L98.5,328.6 L99.4,323.5 L100.2,322.4 L101.1,338.6 L101.9,319.7 L102.8,309.0 L103.6,313.5 L104.4,309.0 L105.3,297.8 L106.1,300.5 L107.0,301.7 L107.8,322.4 L108.7,333.0 L109.5,339.8 L110.3,309.6 L111.2,332.4 L112.0,350.2 L112.9,324.7 L113.7,309.9 L114.6,303.1 L115.4,308.5 L116.2,327.1 L117.1,307.6 L117.9,340.4 L118.8,328.0 L119.6,320.9 L120.4,327.1 L121.3,319.1 L122.1,314.1 L123.0,300.5 L123.8,300.8 L124.7,316.7 L125.5,328.0 L126.3,332.7 L127.2,340.7 L128.0,337.5 L128.9,343.7 L129.7,326.5 L130.6,349.0 L131.4,352.8 L132.2,362.6 L133.1,379.2 L133.9,386.6 L134.8,391.6 L135.6,395.7 L136.5,402.8 L137.3,410.5 L138.1,413.8 L139.0,405.8 L139.8,387.2 L140.7,407.9 L141.5,414.7 L142.4,415.0 L143.2,405.8 L144.0,387.2 L144.9,379.5 L145.7,386.6 L146.6,354.0 L147.4,329.5 L148.3,301.7 L149.1,301.4 L149.9,294.6 L150.8,294.6 L151.6,302.8 L152.5,301.4 L153.3,307.9 L154.2,317.9 L155.0,321.8 L155.8,330.1 L156.7,361.7 L157.5,378.3 L158.4,377.4 L159.2,390.4 L160.1,397.2 L160.9,405.2 L161.7,411.1 L162.6,410.8 L163.4,407.9 L164.3,409.1 L165.1,405.5 L166.0,397.2 L166.8,399.0 L167.6,383.9 L168.5,386.9 L169.3,375.6 L170.2,380.6 L171.0,370.0 L171.9,407.3 L172.7,415.0 L173.5,416.4 L174.4,414.4 L175.2,414.1 L176.1,406.4 L176.9,397.5 L177.8,391.6 L178.6,362.6 L179.4,364.4 L180.3,359.9 L181.1,364.4 L182.0,353.7 L182.8,346.0 L183.7,341.9 L184.5,343.7 L185.3,359.6 L186.2,344.3 L187.0,335.7 L187.9,317.3 L188.7,321.2 L189.6,349.9 L190.4,375.9 L191.2,384.5 L192.1,399.3 L192.9,400.8 L193.8,397.5 L194.6,384.8 L195.4,400.2 L196.3,399.6 L197.1,404.6 L198.0,411.1 L198.8,418.5 L199.7,418.5 L200.5,415.6 L201.3,418.2 L202.2,418.5 L203.0,418.2 L203.9,414.1 L204.7,408.8 L205.6,404.9 L206.4,407.0 L207.2,401.1 L208.1,400.2 L208.9,396.6 L209.8,390.4 L210.6,387.2 L211.5,390.7 L212.3,397.2 L213.1,402.0 L214.0,410.2 L214.8,416.2 L215.7,420.0 L216.5,419.7 L217.4,415.0 L218.2,407.0 L219.0,390.7 L219.9,380.6 L220.7,378.0 L221.6,341.9 L222.4,345.1 L223.3,350.8 L224.1,340.7 L224.9,340.1 L225.8,337.7 L226.6,333.9 L227.5,322.7 L228.3,307.6 L229.2,306.1 L230.0,300.2 L230.8,305.5 L231.7,304.9 L232.5,304.9 L233.4,313.2 L234.2,315.6 L235.1,316.4 L235.9,325.6 L236.7,331.5 L237.6,352.2 L238.4,329.8 L239.3,362.6 L240.1,359.1 L241.0,372.4 L241.8,378.9 L242.6,376.8 L243.5,378.0 L244.3,375.6 L245.2,377.1 L246.0,385.7 L246.9,392.2 L247.7,395.1 L248.5,396.3 L249.4,399.0 L250.2,405.5 L251.1,403.4 L251.9,410.8 L252.8,414.7 L253.6,415.9 L254.4,416.7 L255.3,419.4 L256.1,418.2 L257.0,417.9 L257.8,417.9 L258.7,417.9 L259.5,415.0 L260.3,413.5 L261.2,415.3 L262.0,417.0 L262.9,419.7 L263.7,420.0 L264.6,420.0 L265.4,419.4 L266.2,419.1 L267.1,417.3 L267.9,413.8 L268.8,413.2 L269.6,411.7 L270.4,398.7 L271.3,392.5 L272.1,383.0 L273.0,375.9 L273.8,362.0 L274.7,364.1 L275.5,353.7 L276.3,348.1 L277.2,342.8 L278.0,325.3 L278.9,321.8 L279.7,316.4 L280.6,317.6 L281.4,317.9 L282.2,312.0 L283.1,308.8 L283.9,309.3 L284.8,306.1 L285.6,309.0 L286.5,304.0 L287.3,307.0 L288.1,305.5 L289.0,301.7 L289.8,303.1 L290.7,309.3 L291.5,314.7 L292.4,310.8 L293.2,309.6 L294.0,310.8 L294.9,316.4 L295.7,304.9 L296.6,325.3 L297.4,325.0 L298.3,317.6 L299.1,302.8 L299.9,302.2 L300.8,316.4 L301.6,318.2 L302.5,309.9 L303.3,304.6 L304.2,314.4 L305.0,309.6 L305.8,336.3 L306.7,364.7 L307.5,379.2 L308.4,368.2 L309.2,371.2 L310.1,383.0 L310.9,362.9 L311.7,365.0 L312.6,350.5 L313.4,330.4 L314.3,340.7 L315.1,365.9 L316.0,345.1 L316.8,351.9 L317.6,360.2 L318.5,347.5 L319.3,355.8 L320.2,367.9 L321.0,371.2 L321.9,369.7 L322.7,387.5 L323.5,402.0 L324.4,402.0 L325.2,405.5 L326.1,411.1 L326.9,403.4 L327.8,399.0 L328.6,387.2 L329.4,361.4 L330.3,350.8 L331.1,345.4 L332.0,351.4 L332.8,353.4 L333.7,348.4 L334.5,345.1 L335.3,345.7 L336.2,343.7 L337.0,340.1 L337.9,334.5 L338.7,346.9 L339.6,338.3 L340.4,342.2 L341.2,346.9 L342.1,332.7 L342.9,334.5 L343.8,332.4 L344.6,331.2 L345.4,329.2 L346.3,336.6 L347.1,336.9 L348.0,337.5 L348.8,332.4 L349.7,341.0 L350.5,337.2 L351.3,337.2 L352.2,335.1 L353.0,336.6 L353.9,336.0 L354.7,311.1 L355.6,324.7 L356.4,326.8 L357.2,323.8 L358.1,334.2 L358.9,348.7 L359.8,352.8 L360.6,356.4 L361.5,341.9 L362.3,351.1 L363.1,373.8 L364.0,387.2 L364.8,384.8 L365.7,400.5 L366.5,402.8 L367.4,401.1 L368.2,382.7 L369.0,361.1 L369.9,351.1 L370.7,339.2 L371.6,335.1 L372.4,334.8 L373.3,361.1 L374.1,388.0 L374.9,372.1 L375.8,372.1 L376.6,415.3 L377.5,411.4 L378.3,410.5 L379.2,399.9 L380.0,382.1 L380.8,346.3 L381.7,333.9 L382.5,328.9 L383.4,347.2 L384.2,362.0 L385.1,361.4 L385.9,365.9 L386.7,368.2 L387.6,363.5 L388.4,363.8 L389.3,354.0 L390.1,347.5 L391.0,365.0 L391.8,380.1 L392.6,405.8 L393.5,383.3 L394.3,380.6 L395.2,360.5 L396.0,338.9 L396.9,312.9 L397.7,295.4 L398.5,289.8 L399.4,300.8 L400.2,290.4 L401.1,292.5 L401.9,294.3 L402.8,294.6 L403.6,293.7 L404.4,293.4 L405.3,294.0 L406.1,294.0 L407.0,306.1 L407.8,296.6 L408.7,294.3 L409.5,323.8 L410.3,326.8 L411.2,290.4 L412.0,289.5 L412.9,304.0 L413.7,313.2 L414.6,316.4 L415.4,326.5 L416.2,312.0 L417.1,302.2 L417.9,301.9 L418.8,320.3 L419.6,293.1 L420.4,303.4 L421.3,307.3 L422.1,304.3 L423.0,305.2 L423.8,303.1 L424.7,304.6 L425.5,311.4 L426.3,315.9 L427.2,315.6 L428.0,311.7 L428.9,316.1 L429.7,303.1 L430.6,320.3 L431.4,309.9 L432.2,323.3 L433.1,314.7 L433.9,297.5 L434.8,321.8 L435.6,294.0 L436.5,299.0 L437.3,296.6 L438.1,300.8 L439.0,315.0 L439.8,306.7 L440.7,331.2 L441.5,337.7 L442.4,342.8 L443.2,376.5 L444.0,378.6 L444.9,358.5 L445.7,358.2 L446.6,351.1 L447.4,335.1 L448.3,323.5 L449.1,347.8 L449.9,344.3 L450.8,355.8 L451.6,333.6 L452.5,337.5 L453.3,355.2 L454.2,361.4 L455.0,337.7 L455.8,309.0 L456.7,328.0 L457.5,345.4 L458.4,339.5 L459.2,376.2 L460.1,369.7 L460.9,388.6 L461.7,394.9 L462.6,380.9 L463.4,378.3 L464.3,383.6 L465.1,402.2 L466.0,390.1 L466.8,367.9 L467.6,367.6 L468.5,358.8 L469.3,360.8 L470.2,339.8 L471.0,317.0 L471.9,322.4 L472.7,340.7 L473.5,329.5 L474.4,317.6 L475.2,318.2 L476.1,305.5 L476.9,309.9 L477.8,308.2 L478.6,309.9 L479.4,314.4 L480.3,309.9 L481.1,310.8 L482.0,317.6 L482.8,314.1 L483.7,317.0 L484.5,328.9 L485.3,333.6 L486.2,325.9 L487.0,325.3 L487.9,307.3 L488.7,306.7 L489.6,299.9 L490.4,297.8 L491.2,303.4 L492.1,309.6 L492.9,321.5 L493.8,320.0 L494.6,319.4 L495.4,329.8 L496.3,352.2 L497.1,344.6 L498.0,339.8 L498.8,352.2 L499.7,347.2 L500.5,358.5 L501.3,384.2 L502.2,392.2 L503.0,401.4 L503.9,410.5 L504.7,416.4 L505.6,419.1 L506.4,419.4 L507.2,419.7 L508.1,416.4 L508.9,409.3 L509.8,408.8 L510.6,406.1 L511.5,407.6 L512.3,404.9 L513.1,405.2 L514.0,404.0 L514.8,411.4 L515.7,413.5 L516.5,409.9 L517.4,401.7 L518.2,386.3 L519.0,345.4 L519.9,338.9 L520.7,345.4 L521.6,337.7 L522.4,323.5 L523.3,327.1 L524.1,336.9 L524.9,349.0 L525.8,354.3 L526.6,397.5 L527.5,412.9 L528.3,409.1 L529.2,407.0 L530.0,407.0 L530.8,411.1 L531.7,414.4 L532.5,413.2 L533.4,406.4 L534.2,393.4 L535.1,385.1 L535.9,371.5 L536.7,359.6 L537.6,350.5 L538.4,303.1 L539.3,300.5 L540.1,310.2 L541.0,316.7 L541.8,312.3 L542.6,333.6 L543.5,349.9 L544.3,333.3 L545.2,312.3 L546.0,305.8 L546.9,315.3 L547.7,326.5 L548.5,327.1 L549.4,333.6 L550.2,335.1 L551.1,334.5 L551.9,327.4 L552.8,338.0 L553.6,345.1 L554.4,346.3 L555.3,348.7 L556.1,354.3 L557.0,357.9 L557.8,332.1 L558.7,309.3 L559.5,304.9 L560.3,303.7 L561.2,309.0 L562.0,298.4 L562.9,300.2 L563.7,321.5 L564.6,323.3 L565.4,319.1 L566.2,308.8 L567.1,306.4 L567.9,326.5 L568.8,328.9 L569.6,332.4 L570.4,332.7 L571.3,327.7 L572.1,349.6 L573.0,338.0 L573.8,322.7 L574.7,301.1 L575.5,315.9 L576.3,302.5 L577.2,302.5 L578.0,313.5 L578.9,310.2 L579.7,337.2 L580.6,319.4 L581.4,317.6 L582.2,314.7 L583.1,323.3 L583.9,325.3 L584.8,342.2 L585.6,335.7 L586.5,349.0 L587.3,362.0 L588.1,342.2 L589.0,319.7 L589.8,331.2 L590.7,323.0 L591.5,314.4 L592.4,315.0 L593.2,304.0 L594.0,297.8 L594.9,315.9 L595.7,346.6 L596.6,363.5 L597.4,351.1 L598.3,345.1 L599.1,322.1 L599.9,315.6 L600.8,327.1 L601.6,368.8 L602.5,386.0 L603.3,388.6 L604.2,370.0 L605.0,361.1 L605.8,336.3 L606.7,305.5 L607.5,305.2 L608.4,319.4 L609.2,326.8 L610.1,317.9 L610.9,336.9 L611.7,370.9 L612.6,405.5 L613.4,416.2 L614.3,411.1 L615.1,409.9 L616.0,407.6 L616.8,402.2 L617.6,394.6 L618.5,379.2 L619.3,380.1 L620.2,376.8 L621.0,388.9 L621.9,384.2 L622.7,374.4 L623.5,367.0 L624.4,362.3 L625.2,357.9 L626.1,357.6 L626.9,358.8 L627.8,357.6 L628.6,358.8 L629.4,378.3 L630.3,384.5 L631.1,392.2 L632.0,378.9 L632.8,375.0 L633.7,380.9 L634.5,370.0 L635.3,376.2 L636.2,368.8 L637.0,376.8 L637.9,374.7 L638.7,344.3 L639.6,341.6 L640.4,339.2 L641.2,329.5 L642.1,326.2 L642.9,318.2 L643.8,331.8 L644.6,314.7 L645.4,315.6 L646.3,346.3 L647.1,348.1 L648.0,357.6 L648.8,358.5 L649.7,360.5 L650.5,341.9 L651.3,338.0 L652.2,341.0 L653.0,341.3 L653.9,340.1 L654.7,339.8 L655.6,338.3 L656.4,362.3 L657.2,345.7 L658.1,353.4 L658.9,340.4 L659.8,333.9 L660.6,334.5 L661.5,337.2 L662.3,348.7 L663.1,345.4 L664.0,339.2 L664.8,344.3 L665.7,341.0 L666.5,338.6 L667.4,340.4 L668.2,348.7 L669.0,338.6 L669.9,341.6 L670.7,341.3 L671.6,336.9 L672.4,336.9 L673.3,333.9 L674.1,332.7 L674.9,333.3 L675.8,333.9 L676.6,335.7 L677.5,341.3 L678.3,343.1 L679.2,346.9 L680.0,344.8" stroke="#1f77b4" stroke-width="2" fill="none" opacity="0.8"/>
<!-- Hydro Generation -->
<path d="M80.0,354.6 L80.8,354.9 L81.7,355.5 L82.5,354.9 L83.4,354.9 L84.2,355.8 L85.1,355.8 L85.9,355.8 L86.7,355.8 L87.6,356.4 L88.4,356.4 L89.3,356.1 L90.1,356.1 L91.0,356.4 L91.8,356.1 L92.6,356.1 L93.5,356.4 L94.3,356.1 L95.2,355.5 L96.0,355.8 L96.9,355.5 L97.7,355.5 L98.5,355.5 L99.4,355.5 L100.2,355.5 L101.1,355.8 L101.9,355.2 L102.8,355.2 L103.6,354.3 L104.4,354.9 L105.3,354.6 L106.1,354.9 L107.0,354.9 L107.8,354.9 L108.7,355.5 L109.5,354.6 L110.3,354.9 L111.2,354.9 L112.0,355.5 L112.9,355.2 L113.7,355.2 L114.6,355.5 L115.4,354.9 L116.2,354.9 L117.1,355.2 L117.9,354.9 L118.8,354.9 L119.6,355.2 L120.4,355.2 L121.3,355.2 L122.1,355.2 L123.0,355.2 L123.8,355.2 L124.7,355.5 L125.5,355.2 L126.3,356.1 L127.2,355.8 L128.0,355.8 L128.9,355.5 L129.7,356.4 L130.6,356.1 L131.4,356.4 L132.2,357.0 L133.1,357.3 L133.9,356.1 L134.8,356.1 L135.6,356.1 L136.5,355.8 L137.3,356.1 L138.1,355.5 L139.0,355.8 L139.8,355.2 L140.7,355.2 L141.5,355.2 L142.4,355.2 L143.2,355.5 L144.0,354.9 L144.9,355.2 L145.7,354.9 L146.6,355.2 L147.4,355.2 L148.3,355.5 L149.1,355.8 L149.9,354.9 L150.8,355.8 L151.6,355.2 L152.5,355.2 L153.3,355.5 L154.2,355.5 L155.0,355.2 L155.8,355.2 L156.7,355.5 L157.5,355.5 L158.4,355.5 L159.2,355.2 L160.1,355.5 L160.9,355.5 L161.7,354.9 L162.6,355.5 L163.4,355.2 L164.3,355.2 L165.1,355.2 L166.0,355.5 L166.8,354.6 L167.6,355.5 L168.5,354.9 L169.3,355.5 L170.2,354.6 L171.0,354.9 L171.9,354.9 L172.7,354.9 L173.5,354.9 L174.4,354.6 L175.2,354.6 L176.1,354.9 L176.9,354.6 L177.8,355.2 L178.6,354.6 L179.4,354.6 L180.3,355.2 L181.1,354.6 L182.0,354.6 L182.8,354.6 L183.7,354.6 L184.5,354.0 L185.3,354.9 L186.2,354.3 L187.0,354.3 L187.9,354.3 L188.7,354.0 L189.6,354.6 L190.4,354.0 L191.2,354.3 L192.1,354.9 L192.9,354.0 L193.8,354.3 L194.6,355.2 L195.4,354.3 L196.3,354.3 L197.1,354.9 L198.0,354.3 L198.8,355.2 L199.7,354.6 L200.5,354.9 L201.3,354.6 L202.2,354.6 L203.0,354.3 L203.9,354.0 L204.7,354.6 L205.6,354.6 L206.4,354.9 L207.2,354.3 L208.1,354.9 L208.9,354.6 L209.8,354.9 L210.6,353.7 L211.5,354.9 L212.3,353.4 L213.1,353.7 L214.0,353.4 L214.8,353.4 L215.7,353.7 L216.5,352.8 L217.4,352.8 L218.2,353.1 L219.0,353.1 L219.9,354.0 L220.7,353.4 L221.6,353.4 L222.4,353.7 L223.3,353.1 L224.1,353.1 L224.9,353.1 L225.8,352.5 L226.6,352.8 L227.5,353.1 L228.3,353.4 L229.2,352.8 L230.0,353.1 L230.8,352.5 L231.7,351.9 L232.5,352.5 L233.4,352.5 L234.2,351.9 L235.1,352.2 L235.9,352.5 L236.7,352.2 L237.6,352.2 L238.4,351.9 L239.3,352.2 L240.1,351.9 L241.0,352.2 L241.8,351.7 L242.6,352.5 L243.5,352.2 L244.3,353.1 L245.2,353.4 L246.0,354.0 L246.9,354.6 L247.7,355.5 L248.5,355.5 L249.4,354.9 L250.2,354.9 L251.1,354.3 L251.9,354.0 L252.8,353.7 L253.6,354.0 L254.4,354.3 L255.3,354.3 L256.1,354.0 L257.0,353.7 L257.8,354.0 L258.7,354.0 L259.5,353.7 L260.3,353.7 L261.2,354.0 L262.0,353.7 L262.9,353.7 L263.7,353.4 L264.6,353.4 L265.4,352.8 L266.2,353.1 L267.1,353.1 L267.9,353.1 L268.8,354.0 L269.6,353.4 L270.4,354.0 L271.3,354.3 L272.1,354.0 L273.0,353.7 L273.8,353.7 L274.7,353.4 L275.5,354.0 L276.3,354.0 L277.2,354.0 L278.0,353.7 L278.9,354.0 L279.7,354.6 L280.6,354.6 L281.4,355.8 L282.2,356.7 L283.1,358.5 L283.9,358.8 L284.8,360.5 L285.6,362.9 L286.5,364.1 L287.3,365.6 L288.1,367.3 L289.0,367.0 L289.8,366.4 L290.7,364.4 L291.5,362.9 L292.4,362.0 L293.2,359.1 L294.0,357.9 L294.9,356.1 L295.7,356.4 L296.6,356.1 L297.4,354.9 L298.3,354.6 L299.1,353.4 L299.9,354.3 L300.8,354.0 L301.6,352.5 L302.5,352.2 L303.3,352.2 L304.2,352.5 L305.0,352.5 L305.8,352.2 L306.7,351.7 L307.5,351.9 L308.4,352.2 L309.2,352.5 L310.1,352.2 L310.9,351.9 L311.7,350.5 L312.6,350.5 L313.4,349.3 L314.3,349.0 L315.1,349.6 L316.0,349.0 L316.8,349.6 L317.6,349.0 L318.5,349.0 L319.3,349.0 L320.2,348.7 L321.0,349.0 L321.9,349.0 L322.7,348.4 L323.5,349.0 L324.4,348.7 L325.2,349.3 L326.1,349.9 L326.9,351.4 L327.8,350.8 L328.6,352.2 L329.4,348.4 L330.3,349.0 L331.1,353.4 L332.0,354.6 L332.8,352.2 L333.7,352.5 L334.5,352.5 L335.3,354.0 L336.2,354.0 L337.0,355.2 L337.9,355.2 L338.7,354.0 L339.6,354.3 L340.4,354.3 L341.2,353.7 L342.1,354.3 L342.9,353.7 L343.8,353.7 L344.6,353.4 L345.4,353.4 L346.3,354.6 L347.1,351.7 L348.0,353.4 L348.8,353.7 L349.7,353.1 L350.5,353.4 L351.3,354.0 L352.2,354.0 L353.0,354.0 L353.9,353.4 L354.7,354.3 L355.6,354.6 L356.4,355.2 L357.2,354.6 L358.1,355.2 L358.9,354.9 L359.8,355.2 L360.6,354.6 L361.5,354.9 L362.3,354.3 L363.1,354.9 L364.0,354.9 L364.8,353.4 L365.7,353.7 L366.5,353.4 L367.4,353.7 L368.2,353.7 L369.0,353.1 L369.9,353.7 L370.7,353.7 L371.6,353.7 L372.4,353.7 L373.3,353.1 L374.1,353.7 L374.9,353.4 L375.8,353.4 L376.6,353.7 L377.5,353.7 L378.3,353.7 L379.2,353.7 L380.0,353.1 L380.8,353.4 L381.7,353.1 L382.5,353.7 L383.4,353.7 L384.2,353.4 L385.1,353.7 L385.9,353.4 L386.7,353.7 L387.6,353.1 L388.4,353.4 L389.3,353.1 L390.1,353.7 L391.0,353.4 L391.8,353.7 L392.6,353.4 L393.5,353.1 L394.3,353.1 L395.2,353.4 L396.0,353.4 L396.9,353.1 L397.7,353.1 L398.5,354.0 L399.4,353.7 L400.2,353.7 L401.1,353.4 L401.9,354.0 L402.8,353.7 L403.6,353.4 L404.4,353.4 L405.3,353.4 L406.1,354.0 L407.0,353.1 L407.8,353.1 L408.7,353.1 L409.5,353.1 L410.3,353.7 L411.2,354.0 L412.0,353.7 L412.9,352.5 L413.7,352.5 L414.6,353.1 L415.4,352.8 L416.2,352.8 L417.1,354.0 L417.9,354.6 L418.8,354.0 L419.6,354.0 L420.4,353.7 L421.3,353.7 L422.1,352.8 L423.0,353.7 L423.8,353.7 L424.7,353.7 L425.5,354.0 L426.3,353.4 L427.2,353.4 L428.0,353.7 L428.9,353.4 L429.7,353.1 L430.6,352.8 L431.4,353.1 L432.2,352.8 L433.1,352.8 L433.9,352.8 L434.8,352.5 L435.6,352.8 L436.5,352.5 L437.3,352.8 L438.1,352.8 L439.0,351.4 L439.8,351.9 L440.7,351.4 L441.5,351.9 L442.4,351.9 L443.2,351.7 L444.0,351.4 L444.9,351.4 L445.7,349.9 L446.6,350.2 L447.4,350.2 L448.3,350.2 L449.1,349.9 L449.9,351.1 L450.8,352.2 L451.6,351.4 L452.5,352.2 L453.3,351.7 L454.2,351.9 L455.0,351.4 L455.8,351.1 L456.7,349.6 L457.5,350.5 L458.4,350.8 L459.2,349.9 L460.1,349.9 L460.9,349.6 L461.7,350.2 L462.6,349.9 L463.4,349.9 L464.3,349.0 L465.1,349.3 L466.0,348.7 L466.8,348.7 L467.6,348.1 L468.5,357.0 L469.3,357.0 L470.2,356.7 L471.0,357.0 L471.9,347.8 L472.7,347.8 L473.5,347.2 L474.4,347.8 L475.2,347.8 L476.1,347.8 L476.9,347.5 L477.8,347.5 L478.6,347.5 L479.4,348.1 L480.3,348.1 L481.1,347.8 L482.0,347.5 L482.8,347.5 L483.7,347.5 L484.5,347.5 L485.3,347.8 L486.2,347.5 L487.0,346.9 L487.9,346.0 L488.7,346.3 L489.6,346.3 L490.4,344.6 L491.2,345.1 L492.1,343.4 L492.9,342.5 L493.8,342.5 L494.6,342.5 L495.4,342.5 L496.3,343.1 L497.1,344.0 L498.0,343.7 L498.8,344.0 L499.7,344.3 L500.5,344.0 L501.3,344.3 L502.2,344.3 L503.0,344.3 L503.9,344.8 L504.7,344.6 L505.6,344.3 L506.4,344.6 L507.2,344.3 L508.1,344.3 L508.9,344.0 L509.8,344.0 L510.6,344.0 L511.5,344.0 L512.3,343.7 L513.1,344.0 L514.0,344.3 L514.8,344.3 L515.7,344.6 L516.5,344.3 L517.4,344.6 L518.2,344.8 L519.0,344.3 L519.9,344.0 L520.7,344.3 L521.6,344.3 L522.4,344.3 L523.3,344.0 L524.1,344.8 L524.9,343.1 L525.8,343.1 L526.6,343.4 L527.5,343.4 L528.3,343.7 L529.2,343.1 L530.0,343.4 L530.8,343.1 L531.7,343.7 L532.5,344.0 L533.4,343.4 L534.2,343.1 L535.1,343.1 L535.9,344.3 L536.7,344.8 L537.6,344.8 L538.4,344.3 L539.3,344.6 L540.1,344.3 L541.0,344.6 L541.8,343.7 L542.6,344.0 L543.5,343.7 L544.3,343.7 L545.2,343.4 L546.0,343.7 L546.9,343.7 L547.7,343.4 L548.5,343.4 L549.4,343.4 L550.2,343.4 L551.1,343.4 L551.9,342.2 L552.8,341.9 L553.6,342.2 L554.4,342.2 L555.3,342.5 L556.1,342.5 L557.0,342.2 L557.8,343.7 L558.7,343.7 L559.5,343.7 L560.3,343.7 L561.2,343.7 L562.0,344.3 L562.9,343.7 L563.7,344.3 L564.6,342.5 L565.4,342.8 L566.2,342.8 L567.1,342.2 L567.9,342.8 L568.8,343.1 L569.6,343.1 L570.4,342.8 L571.3,342.8 L572.1,341.9 L573.0,341.9 L573.8,340.1 L574.7,339.8 L575.5,338.6 L576.3,339.2 L577.2,339.8 L578.0,339.8 L578.9,340.1 L579.7,340.1 L580.6,339.8 L581.4,339.8 L582.2,339.5 L583.1,340.1 L583.9,338.3 L584.8,337.7 L585.6,338.0 L586.5,338.3 L587.3,338.0 L588.1,337.7 L589.0,338.3 L589.8,338.0 L590.7,338.0 L591.5,338.0 L592.4,337.7 L593.2,338.3 L594.0,338.3 L594.9,338.6 L595.7,338.3 L596.6,338.3 L597.4,338.3 L598.3,338.3 L599.1,339.5 L599.9,339.5 L600.8,339.5 L601.6,339.8 L602.5,339.8 L603.3,340.1 L604.2,340.7 L605.0,340.7 L605.8,341.0 L606.7,340.4 L607.5,340.4 L608.4,364.7 L609.2,365.0 L610.1,366.2 L610.9,368.2 L611.7,367.3 L612.6,367.6 L613.4,366.7 L614.3,350.5 L615.1,371.8 L616.0,370.6 L616.8,352.8 L617.6,357.0 L618.5,349.9 L619.3,349.0 L620.2,348.4 L621.0,348.4 L621.9,348.4 L622.7,349.3 L623.5,348.4 L624.4,348.1 L625.2,348.4 L626.1,348.7 L626.9,348.1 L627.8,348.4 L628.6,345.4 L629.4,345.1 L630.3,346.3 L631.1,346.6 L632.0,345.1 L632.8,345.7 L633.7,345.7 L634.5,345.7 L635.3,345.7 L636.2,345.4 L637.0,346.0 L637.9,341.9 L638.7,340.7 L639.6,340.7 L640.4,340.4 L641.2,340.4 L642.1,340.4 L642.9,340.1 L643.8,339.8 L644.6,340.1 L645.4,339.8 L646.3,340.1 L647.1,340.1 L648.0,340.1 L648.8,340.4 L649.7,341.0 L650.5,339.8 L651.3,341.0 L652.2,341.9 L653.0,341.3 L653.9,341.6 L654.7,341.9 L655.6,341.6 L656.4,341.3 L657.2,341.6 L658.1,341.9 L658.9,341.6 L659.8,341.6 L660.6,341.6 L661.5,341.0 L662.3,341.0 L663.1,340.4 L664.0,340.7 L664.8,340.1 L665.7,340.1 L666.5,340.7 L667.4,340.4 L668.2,340.4 L669.0,340.4 L669.9,340.7 L670.7,340.7 L671.6,342.8 L672.4,342.8 L673.3,342.5 L674.1,342.2 L674.9,342.2 L675.8,342.5 L676.6,342.2 L677.5,342.2 L678.3,342.5 L679.2,342.5 L680.0,342.2" stroke="#ff7f0e" stroke-width="2" fill="none" opacity="0.8"/>
<!-- Thermal Generation -->
<path d="M80.0,282.7 L80.8,286.0 L81.7,284.2 L82.5,289.5 L83.4,286.3 L84.2,288.9 L85.1,289.5 L85.9,297.2 L86.7,318.8 L87.6,319.7 L88.4,332.7 L89.3,333.0 L90.1,327.7 L91.0,287.7 L91.8,304.0 L92.6,303.4 L93.5,309.0 L94.3,319.7 L95.2,330.4 L96.0,330.6 L96.9,330.6 L97.7,331.5 L98.5,333.6 L99.4,331.8 L100.2,330.6 L101.1,314.4 L101.9,293.4 L102.8,299.3 L103.6,313.5 L104.4,319.4 L105.3,323.5 L106.1,327.4 L107.0,330.9 L107.8,331.2 L108.7,330.6 L109.5,330.6 L110.3,289.8 L111.2,299.0 L112.0,299.6 L112.9,299.9 L113.7,291.3 L114.6,330.4 L115.4,330.6 L116.2,329.2 L117.1,329.8 L117.9,330.1 L118.8,329.8 L119.6,330.4 L120.4,330.9 L121.3,330.1 L122.1,328.9 L123.0,329.5 L123.8,329.2 L124.7,329.8 L125.5,328.9 L126.3,329.8 L127.2,327.1 L128.0,329.2 L128.9,328.9 L129.7,329.5 L130.6,290.1 L131.4,294.0 L132.2,291.0 L133.1,283.6 L133.9,286.0 L134.8,281.8 L135.6,281.2 L136.5,286.9 L137.3,298.1 L138.1,323.8 L139.0,324.4 L139.8,324.4 L140.7,319.1 L141.5,319.7 L142.4,284.2 L143.2,281.5 L144.0,303.7 L144.9,299.0 L145.7,305.8 L146.6,309.0 L147.4,315.9 L148.3,320.9 L149.1,331.2 L149.9,327.1 L150.8,297.5 L151.6,294.3 L152.5,302.8 L153.3,300.5 L154.2,312.0 L155.0,312.0 L155.8,310.8 L156.7,324.7 L157.5,325.0 L158.4,325.3 L159.2,325.9 L160.1,324.7 L160.9,299.6 L161.7,282.1 L162.6,284.8 L163.4,284.5 L164.3,293.4 L165.1,297.2 L166.0,288.9 L166.8,288.9 L167.6,291.6 L168.5,292.8 L169.3,306.7 L170.2,280.9 L171.0,283.6 L171.9,288.6 L172.7,287.5 L173.5,281.2 L174.4,280.1 L175.2,280.6 L176.1,283.9 L176.9,280.3 L177.8,284.5 L178.6,297.2 L179.4,288.0 L180.3,313.8 L181.1,317.6 L182.0,300.5 L182.8,296.0 L183.7,296.0 L184.5,305.8 L185.3,300.8 L186.2,294.6 L187.0,304.9 L187.9,310.2 L188.7,310.5 L189.6,337.5 L190.4,323.3 L191.2,300.2 L192.1,296.3 L192.9,299.6 L193.8,296.9 L194.6,300.2 L195.4,308.8 L196.3,307.9 L197.1,307.6 L198.0,307.9 L198.8,321.5 L199.7,319.7 L200.5,304.9 L201.3,303.1 L202.2,302.2 L203.0,302.5 L203.9,310.5 L204.7,322.1 L205.6,327.4 L206.4,327.7 L207.2,305.5 L208.1,304.0 L208.9,306.1 L209.8,303.1 L210.6,308.2 L211.5,306.1 L212.3,315.3 L213.1,320.6 L214.0,320.9 L214.8,321.8 L215.7,320.6 L216.5,320.6 L217.4,317.0 L218.2,320.6 L219.0,340.1 L219.9,340.7 L220.7,340.4 L221.6,341.6 L222.4,342.2 L223.3,343.1 L224.1,344.0 L224.9,344.0 L225.8,343.4 L226.6,342.8 L227.5,342.8 L228.3,342.8 L229.2,339.8 L230.0,343.1 L230.8,341.9 L231.7,341.9 L232.5,341.9 L233.4,341.9 L234.2,340.4 L235.1,341.6 L235.9,339.5 L236.7,340.4 L237.6,340.1 L238.4,343.1 L239.3,340.7 L240.1,339.8 L241.0,339.8 L241.8,340.1 L242.6,340.1 L243.5,339.5 L244.3,339.2 L245.2,341.3 L246.0,325.3 L246.9,329.5 L247.7,313.8 L248.5,312.0 L249.4,312.9 L250.2,312.6 L251.1,311.7 L251.9,298.1 L252.8,294.3 L253.6,296.3 L254.4,298.4 L255.3,295.4 L256.1,297.8 L257.0,303.4 L257.8,301.9 L258.7,304.3 L259.5,303.4 L260.3,303.4 L261.2,300.5 L262.0,304.9 L262.9,304.9 L263.7,305.2 L264.6,312.3 L265.4,321.5 L266.2,318.5 L267.1,318.5 L267.9,318.5 L268.8,318.5 L269.6,303.1 L270.4,303.4 L271.3,304.3 L272.1,300.8 L273.0,299.6 L273.8,305.8 L274.7,306.4 L275.5,306.4 L276.3,307.0 L277.2,307.6 L278.0,307.3 L278.9,316.4 L279.7,340.1 L280.6,340.4 L281.4,339.5 L282.2,308.8 L283.1,306.1 L283.9,308.5 L284.8,305.2 L285.6,312.6 L286.5,307.9 L287.3,304.0 L288.1,309.0 L289.0,306.1 L289.8,298.7 L290.7,305.8 L291.5,308.8 L292.4,293.7 L293.2,293.4 L294.0,299.9 L294.9,301.1 L295.7,304.0 L296.6,299.9 L297.4,319.1 L298.3,341.0 L299.1,341.0 L299.9,341.3 L300.8,341.0 L301.6,339.8 L302.5,340.4 L303.3,341.6 L304.2,313.2 L305.0,304.9 L305.8,327.1 L306.7,318.5 L307.5,323.3 L308.4,311.7 L309.2,295.4 L310.1,315.9 L310.9,315.3 L311.7,318.5 L312.6,299.0 L313.4,308.5 L314.3,335.7 L315.1,330.6 L316.0,330.6 L316.8,331.2 L317.6,322.4 L318.5,323.3 L319.3,334.5 L320.2,340.1 L321.0,340.1 L321.9,340.4 L322.7,341.0 L323.5,311.1 L324.4,304.0 L325.2,301.7 L326.1,295.7 L326.9,316.1 L327.8,327.4 L328.6,313.8 L329.4,328.3 L330.3,335.4 L331.1,327.4 L332.0,311.7 L332.8,294.8 L333.7,296.0 L334.5,299.3 L335.3,299.9 L336.2,300.5 L337.0,306.7 L337.9,324.4 L338.7,340.4 L339.6,340.7 L340.4,340.4 L341.2,341.6 L342.1,341.6 L342.9,340.4 L343.8,340.7 L344.6,311.7 L345.4,314.1 L346.3,326.2 L347.1,344.8 L348.0,345.1 L348.8,344.8 L349.7,343.4 L350.5,340.7 L351.3,330.9 L352.2,327.7 L353.0,295.1 L353.9,320.6 L354.7,326.5 L355.6,320.6 L356.4,328.0 L357.2,328.0 L358.1,327.4 L358.9,327.1 L359.8,327.4 L360.6,327.7 L361.5,328.0 L362.3,327.4 L363.1,327.4 L364.0,326.2 L364.8,325.9 L365.7,326.5 L366.5,326.5 L367.4,326.2 L368.2,323.8 L369.0,328.9 L369.9,328.6 L370.7,329.2 L371.6,329.2 L372.4,328.9 L373.3,318.2 L374.1,335.4 L374.9,350.8 L375.8,351.9 L376.6,357.6 L377.5,362.9 L378.3,362.6 L379.2,364.1 L380.0,363.5 L380.8,362.6 L381.7,362.0 L382.5,362.9 L383.4,362.3 L384.2,361.1 L385.1,360.5 L385.9,360.2 L386.7,360.2 L387.6,359.6 L388.4,359.9 L389.3,360.2 L390.1,360.5 L391.0,361.4 L391.8,360.8 L392.6,361.1 L393.5,362.3 L394.3,362.0 L395.2,362.9 L396.0,362.6 L396.9,360.8 L397.7,361.1 L398.5,360.8 L399.4,361.4 L400.2,360.5 L401.1,361.4 L401.9,361.7 L402.8,360.8 L403.6,360.8 L404.4,360.8 L405.3,359.9 L406.1,346.6 L407.0,361.4 L407.8,360.5 L408.7,360.2 L409.5,360.2 L410.3,360.2 L411.2,360.5 L412.0,360.5 L412.9,361.1 L413.7,318.5 L414.6,315.0 L415.4,350.5 L416.2,351.1 L417.1,359.9 L417.9,361.1 L418.8,354.3 L419.6,360.5 L420.4,360.2 L421.3,360.2 L422.1,360.2 L423.0,360.8 L423.8,360.2 L424.7,360.5 L425.5,322.4 L426.3,327.7 L427.2,361.1 L428.0,357.9 L428.9,361.7 L429.7,362.3 L430.6,360.8 L431.4,361.1 L432.2,360.2 L433.1,359.9 L433.9,324.4 L434.8,327.1 L435.6,356.1 L436.5,361.4 L437.3,361.7 L438.1,360.8 L439.0,361.1 L439.8,360.2 L440.7,359.6 L441.5,359.9 L442.4,361.1 L443.2,360.8 L444.0,355.5 L444.9,320.3 L445.7,315.0 L446.6,317.6 L447.4,332.1 L448.3,359.9 L449.1,354.9 L449.9,362.3 L450.8,338.9 L451.6,361.7 L452.5,356.7 L453.3,365.3 L454.2,329.2 L455.0,312.9 L455.8,315.9 L456.7,343.1 L457.5,335.1 L458.4,335.7 L459.2,331.5 L460.1,340.7 L460.9,350.2 L461.7,353.7 L462.6,357.9 L463.4,358.5 L464.3,351.9 L465.1,343.4 L466.0,325.3 L466.8,328.3 L467.6,355.8 L468.5,363.2 L469.3,361.7 L470.2,361.4 L471.0,360.8 L471.9,361.1 L472.7,361.4 L473.5,362.0 L474.4,365.3 L475.2,363.2 L476.1,362.3 L476.9,362.9 L477.8,362.0 L478.6,361.7 L479.4,361.1 L480.3,363.5 L481.1,362.6 L482.0,362.0 L482.8,365.6 L483.7,365.3 L484.5,363.2 L485.3,343.7 L486.2,318.2 L487.0,310.8 L487.9,359.1 L488.7,344.8 L489.6,344.8 L490.4,337.7 L491.2,337.7 L492.1,338.9 L492.9,337.5 L493.8,331.5 L494.6,307.9 L495.4,328.6 L496.3,331.5 L497.1,323.8 L498.0,331.2 L498.8,332.7 L499.7,331.5 L500.5,342.2 L501.3,350.2 L502.2,351.7 L503.0,352.5 L503.9,339.5 L504.7,322.1 L505.6,296.9 L506.4,286.9 L507.2,282.1 L508.1,319.1 L508.9,320.6 L509.8,322.4 L510.6,328.6 L511.5,327.7 L512.3,329.2 L513.1,328.3 L514.0,327.4 L514.8,278.9 L515.7,278.0 L516.5,288.3 L517.4,307.0 L518.2,318.2 L519.0,317.6 L519.9,327.7 L520.7,328.0 L521.6,327.4 L522.4,328.0 L523.3,328.3 L524.1,328.9 L524.9,328.9 L525.8,326.5 L526.6,326.2 L527.5,325.9 L528.3,329.2 L529.2,328.9 L530.0,329.2 L530.8,329.2 L531.7,328.9 L532.5,328.6 L533.4,328.9 L534.2,328.6 L535.1,298.1 L535.9,280.1 L536.7,312.0 L537.6,326.8 L538.4,328.3 L539.3,327.7 L540.1,327.1 L541.0,326.8 L541.8,327.7 L542.6,326.5 L543.5,326.8 L544.3,327.4 L545.2,326.8 L546.0,310.5 L546.9,300.8 L547.7,305.5 L548.5,327.1 L549.4,326.8 L550.2,327.1 L551.1,325.9 L551.9,326.2 L552.8,326.5 L553.6,327.1 L554.4,326.8 L555.3,307.0 L556.1,285.4 L557.0,324.7 L557.8,325.9 L558.7,325.9 L559.5,325.9 L560.3,325.9 L561.2,326.2 L562.0,325.6 L562.9,373.8 L563.7,374.4 L564.6,374.4 L565.4,363.5 L566.2,350.5 L567.1,326.5 L567.9,324.4 L568.8,325.9 L569.6,322.7 L570.4,321.2 L571.3,322.4 L572.1,322.4 L573.0,322.4 L573.8,323.0 L574.7,323.5 L575.5,324.1 L576.3,315.6 L577.2,324.4 L578.0,324.7 L578.9,356.7 L579.7,362.9 L580.6,370.9 L581.4,370.6 L582.2,371.2 L583.1,371.8 L583.9,371.5 L584.8,371.2 L585.6,370.9 L586.5,369.7 L587.3,362.3 L588.1,362.0 L589.0,362.0 L589.8,362.3 L590.7,374.1 L591.5,370.9 L592.4,374.1 L593.2,374.1 L594.0,374.4 L594.9,374.1 L595.7,374.4 L596.6,374.1 L597.4,357.9 L598.3,358.8 L599.1,357.6 L599.9,373.5 L600.8,374.1 L601.6,373.5 L602.5,373.5 L603.3,373.5 L604.2,374.1 L605.0,374.4 L605.8,374.4 L606.7,373.8 L607.5,374.4 L608.4,373.5 L609.2,374.4 L610.1,353.1 L610.9,353.7 L611.7,379.2 L612.6,352.8 L613.4,359.6 L614.3,360.2 L615.1,420.0 L616.0,420.0 L616.8,409.6 L617.6,410.2 L618.5,410.2 L619.3,407.9 L620.2,407.3 L621.0,399.3 L621.9,397.5 L622.7,402.2 L623.5,402.8 L624.4,402.8 L625.2,402.8 L626.1,402.5 L626.9,402.8 L627.8,402.5 L628.6,402.0 L629.4,402.2 L630.3,401.7 L631.1,402.2 L632.0,402.2 L632.8,395.7 L633.7,395.1 L634.5,397.5 L635.3,394.6 L636.2,394.6 L637.0,396.9 L637.9,389.5 L638.7,388.9 L639.6,390.7 L640.4,396.3 L641.2,396.3 L642.1,396.9 L642.9,402.8 L643.8,392.8 L644.6,391.6 L645.4,393.4 L646.3,393.4 L647.1,393.7 L648.0,393.7 L648.8,379.2 L649.7,366.7 L650.5,363.8 L651.3,349.3 L652.2,350.5 L653.0,347.5 L653.9,345.4 L654.7,357.0 L655.6,337.7 L656.4,330.9 L657.2,330.9 L658.1,331.2 L658.9,332.4 L659.8,333.6 L660.6,333.0 L661.5,364.7 L662.3,336.6 L663.1,347.2 L664.0,381.5 L664.8,381.5 L665.7,381.5 L666.5,382.1 L667.4,381.5 L668.2,367.3 L669.0,368.2 L669.9,362.9 L670.7,352.2 L671.6,350.8 L672.4,348.4 L673.3,364.1 L674.1,366.7 L674.9,369.4 L675.8,369.4 L676.6,346.9 L677.5,332.7 L678.3,351.9 L679.2,354.6 L680.0,349.0" stroke="#2ca02c" stroke-width="2" fill="none" opacity="0.8"/>
<!-- Solar Generation -->
<path d="M80.0,420.0 L80.8,420.0 L81.7,420.0 L82.5,419.1 L83.4,401.7 L84.2,390.4 L85.1,393.7 L85.9,396.6 L86.7,395.7 L87.6,391.6 L88.4,390.1 L89.3,411.7 L90.1,419.7 L91.0,420.0 L91.8,420.0 L92.6,420.0 L93.5,420.0 L94.3,420.0 L95.2,420.0 L96.0,420.0 L96.9,420.0 L97.7,420.0 L98.5,420.0 L99.4,420.0 L100.2,420.0 L101.1,420.0 L101.9,420.0 L102.8,419.4 L103.6,402.2 L104.4,391.3 L105.3,394.9 L106.1,402.5 L107.0,394.6 L107.8,391.6 L108.7,394.3 L109.5,407.9 L110.3,419.7 L111.2,420.0 L112.0,420.0 L112.9,420.0 L113.7,420.0 L114.6,420.0 L115.4,420.0 L116.2,420.0 L117.1,420.0 L117.9,420.0 L118.8,420.0 L119.6,420.0 L120.4,420.0 L121.3,420.0 L122.1,420.0 L123.0,419.7 L123.8,417.0 L124.7,406.1 L125.5,404.3 L126.3,404.6 L127.2,397.2 L128.0,408.2 L128.9,413.8 L129.7,411.4 L130.6,419.7 L131.4,420.0 L132.2,420.0 L133.1,420.0 L133.9,420.0 L134.8,420.0 L135.6,420.0 L136.5,420.0 L137.3,420.0 L138.1,420.0 L139.0,420.0 L139.8,420.0 L140.7,420.0 L141.5,420.0 L142.4,420.0 L143.2,420.0 L144.0,417.9 L144.9,399.0 L145.7,393.4 L146.6,408.5 L147.4,414.1 L148.3,405.8 L149.1,410.5 L149.9,416.2 L150.8,420.0 L151.6,420.0 L152.5,420.0 L153.3,420.0 L154.2,420.0 L155.0,420.0 L155.8,420.0 L156.7,420.0 L157.5,420.0 L158.4,420.0 L159.2,420.0 L160.1,420.0 L160.9,420.0 L161.7,420.0 L162.6,420.0 L163.4,419.7 L164.3,409.6 L165.1,397.8 L166.0,396.3 L166.8,401.1 L167.6,399.6 L168.5,399.9 L169.3,405.2 L170.2,416.4 L171.0,419.7 L171.9,420.0 L172.7,420.0 L173.5,420.0 L174.4,420.0 L175.2,420.0 L176.1,420.0 L176.9,420.0 L177.8,420.0 L178.6,420.0 L179.4,420.0 L180.3,420.0 L181.1,420.0 L182.0,420.0 L182.8,420.0 L183.7,420.0 L184.5,417.6 L185.3,409.9 L186.2,413.5 L187.0,406.4 L187.9,403.1 L188.7,411.7 L189.6,416.2 L190.4,416.4 L191.2,420.0 L192.1,420.0 L192.9,420.0 L193.8,420.0 L194.6,420.0 L195.4,420.0 L196.3,420.0 L197.1,420.0 L198.0,420.0 L198.8,420.0 L199.7,420.0 L200.5,420.0 L201.3,420.0 L202.2,420.0 L203.0,420.0 L203.9,419.7 L204.7,417.0 L205.6,402.0 L206.4,412.3 L207.2,406.4 L208.1,404.3 L208.9,402.0 L209.8,415.6 L210.6,418.8 L211.5,420.0 L212.3,420.0 L213.1,420.0 L214.0,420.0 L214.8,420.0 L215.7,420.0 L216.5,420.0 L217.4,420.0 L218.2,420.0 L219.0,420.0 L219.9,420.0 L220.7,420.0 L221.6,420.0 L222.4,420.0 L223.3,420.0 L224.1,420.0 L224.9,417.6 L225.8,417.0 L226.6,416.2 L227.5,413.8 L228.3,414.7 L229.2,415.0 L230.0,417.6 L230.8,419.4 L231.7,420.0 L232.5,420.0 L233.4,420.0 L234.2,420.0 L235.1,420.0 L235.9,420.0 L236.7,420.0 L237.6,420.0 L238.4,420.0 L239.3,420.0 L240.1,420.0 L241.0,420.0 L241.8,420.0 L242.6,420.0 L243.5,420.0 L244.3,420.0 L245.2,414.4 L246.0,407.0 L246.9,403.4 L247.7,403.7 L248.5,402.0 L249.4,397.2 L250.2,394.9 L251.1,414.1 L251.9,420.0 L252.8,420.0 L253.6,420.0 L254.4,420.0 L255.3,420.0 L256.1,420.0 L257.0,420.0 L257.8,420.0 L258.7,420.0 L259.5,420.0 L260.3,420.0 L261.2,420.0 L262.0,420.0 L262.9,420.0 L263.7,420.0 L264.6,420.0 L265.4,414.4 L266.2,407.6 L267.1,398.4 L267.9,399.0 L268.8,397.5 L269.6,397.8 L270.4,393.4 L271.3,409.1 L272.1,419.7 L273.0,420.0 L273.8,420.0 L274.7,420.0 L275.5,420.0 L276.3,420.0 L277.2,420.0 L278.0,420.0 L278.9,420.0 L279.7,420.0 L280.6,420.0 L281.4,420.0 L282.2,420.0 L283.1,420.0 L283.9,420.0 L284.8,419.7 L285.6,410.8 L286.5,405.2 L287.3,401.1 L288.1,404.0 L289.0,404.9 L289.8,405.5 L290.7,411.7 L291.5,417.9 L292.4,420.0 L293.2,420.0 L294.0,420.0 L294.9,420.0 L295.7,420.0 L296.6,420.0 L297.4,420.0 L298.3,420.0 L299.1,420.0 L299.9,420.0 L300.8,420.0 L301.6,420.0 L302.5,420.0 L303.3,420.0 L304.2,420.0 L305.0,420.0 L305.8,417.9 L306.7,414.1 L307.5,412.0 L308.4,409.9 L309.2,401.7 L310.1,407.3 L310.9,412.6 L311.7,417.9 L312.6,420.0 L313.4,420.0 L314.3,420.0 L315.1,420.0 L316.0,420.0 L316.8,420.0 L317.6,420.0 L318.5,420.0 L319.3,420.0 L320.2,420.0 L321.0,420.0 L321.9,420.0 L322.7,420.0 L323.5,420.0 L324.4,420.0 L325.2,420.0 L326.1,414.1 L326.9,406.4 L327.8,400.2 L328.6,398.4 L329.4,396.6 L330.3,395.1 L331.1,397.2 L332.0,411.1 L332.8,420.0 L333.7,420.0 L334.5,420.0 L335.3,420.0 L336.2,420.0 L337.0,420.0 L337.9,420.0 L338.7,420.0 L339.6,420.0 L340.4,420.0 L341.2,420.0 L342.1,420.0 L342.9,420.0 L343.8,420.0 L344.6,420.0 L345.4,420.0 L346.3,413.8 L347.1,407.0 L348.0,407.9 L348.8,407.6 L349.7,412.3 L350.5,411.7 L351.3,413.8 L352.2,417.3 L353.0,420.0 L353.9,420.0 L354.7,420.0 L355.6,420.0 L356.4,420.0 L357.2,420.0 L358.1,420.0 L358.9,420.0 L359.8,420.0 L360.6,420.0 L361.5,420.0 L362.3,420.0 L363.1,420.0 L364.0,420.0 L364.8,420.0 L365.7,420.0 L366.5,415.0 L367.4,397.2 L368.2,405.8 L369.0,406.4 L369.9,410.2 L370.7,401.4 L371.6,412.0 L372.4,417.9 L373.3,420.0 L374.1,420.0 L374.9,420.0 L375.8,420.0 L376.6,420.0 L377.5,420.0 L378.3,420.0 L379.2,420.0 L380.0,420.0 L380.8,420.0 L381.7,420.0 L382.5,420.0 L383.4,420.0 L384.2,420.0 L385.1,420.0 L385.9,420.0 L386.7,417.9 L387.6,410.8 L388.4,415.3 L389.3,414.4 L390.1,415.6 L391.0,413.2 L391.8,416.7 L392.6,418.5 L393.5,420.0 L394.3,420.0 L395.2,420.0 L396.0,420.0 L396.9,420.0 L397.7,420.0 L398.5,420.0 L399.4,420.0 L400.2,420.0 L401.1,420.0 L401.9,420.0 L402.8,420.0 L403.6,420.0 L404.4,420.0 L405.3,420.0 L406.1,420.0 L407.0,418.8 L407.8,415.0 L408.7,411.7 L409.5,407.9 L410.3,411.4 L411.2,412.6 L412.0,414.1 L412.9,417.3 L413.7,420.0 L414.6,420.0 L415.4,420.0 L416.2,420.0 L417.1,420.0 L417.9,420.0 L418.8,420.0 L419.6,420.0 L420.4,420.0 L421.3,420.0 L422.1,420.0 L423.0,420.0 L423.8,420.0 L424.7,420.0 L425.5,420.0 L426.3,420.0 L427.2,419.1 L428.0,408.8 L428.9,412.3 L429.7,404.9 L430.6,408.5 L431.4,415.0 L432.2,412.9 L433.1,417.9 L433.9,420.0 L434.8,420.0 L435.6,420.0 L436.5,420.0 L437.3,420.0 L438.1,420.0 L439.0,420.0 L439.8,420.0 L440.7,420.0 L441.5,420.0 L442.4,420.0 L443.2,420.0 L444.0,420.0 L444.9,420.0 L445.7,420.0 L446.6,420.0 L447.4,418.2 L448.3,413.5 L449.1,409.1 L449.9,407.6 L450.8,407.9 L451.6,405.5 L452.5,413.2 L453.3,416.2 L454.2,420.0 L455.0,420.0 L455.8,420.0 L456.7,420.0 L457.5,420.0 L458.4,420.0 L459.2,420.0 L460.1,420.0 L460.9,420.0 L461.7,420.0 L462.6,420.0 L463.4,420.0 L464.3,420.0 L465.1,420.0 L466.0,420.0 L466.8,420.0 L467.6,419.4 L468.5,417.0 L469.3,417.9 L470.2,414.7 L471.0,415.0 L471.9,406.1 L472.7,413.2 L473.5,418.2 L474.4,420.0 L475.2,420.0 L476.1,420.0 L476.9,420.0 L477.8,420.0 L478.6,420.0 L479.4,420.0 L480.3,420.0 L481.1,420.0 L482.0,420.0 L482.8,420.0 L483.7,420.0 L484.5,420.0 L485.3,420.0 L486.2,420.0 L487.0,420.0 L487.9,417.3 L488.7,415.3 L489.6,413.2 L490.4,412.0 L491.2,413.8 L492.1,413.5 L492.9,417.3 L493.8,418.8 L494.6,420.0 L495.4,420.0 L496.3,420.0 L497.1,420.0 L498.0,420.0 L498.8,420.0 L499.7,420.0 L500.5,420.0 L501.3,420.0 L502.2,420.0 L503.0,420.0 L503.9,420.0 L504.7,420.0 L505.6,420.0 L506.4,420.0 L507.2,420.0 L508.1,419.1 L508.9,417.6 L509.8,415.6 L510.6,410.8 L511.5,409.1 L512.3,411.4 L513.1,406.7 L514.0,415.9 L514.8,420.0 L515.7,420.0 L516.5,420.0 L517.4,420.0 L518.2,420.0 L519.0,420.0 L519.9,420.0 L520.7,420.0 L521.6,420.0 L522.4,420.0 L523.3,420.0 L524.1,420.0 L524.9,420.0 L525.8,420.0 L526.6,420.0 L527.5,420.0 L528.3,416.2 L529.2,410.8 L530.0,411.1 L530.8,413.2 L531.7,414.7 L532.5,407.3 L533.4,410.5 L534.2,411.1 L535.1,420.0 L535.9,420.0 L536.7,420.0 L537.6,420.0 L538.4,420.0 L539.3,420.0 L540.1,420.0 L541.0,420.0 L541.8,420.0 L542.6,420.0 L543.5,420.0 L544.3,420.0 L545.2,420.0 L546.0,420.0 L546.9,420.0 L547.7,419.7 L548.5,415.3 L549.4,402.0 L550.2,404.3 L551.1,402.5 L551.9,399.3 L552.8,396.6 L553.6,404.6 L554.4,409.3 L555.3,419.7 L556.1,420.0 L557.0,420.0 L557.8,420.0 L558.7,420.0 L559.5,420.0 L560.3,420.0 L561.2,420.0 L562.0,420.0 L562.9,420.0 L563.7,420.0 L564.6,420.0 L565.4,420.0 L566.2,420.0 L567.1,420.0 L567.9,420.0 L568.8,416.2 L569.6,396.9 L570.4,398.7 L571.3,406.4 L572.1,399.6 L573.0,399.6 L573.8,407.3 L574.7,418.2 L575.5,420.0 L576.3,420.0 L577.2,420.0 L578.0,420.0 L578.9,420.0 L579.7,420.0 L580.6,420.0 L581.4,420.0 L582.2,420.0 L583.1,420.0 L583.9,420.0 L584.8,420.0 L585.6,420.0 L586.5,420.0 L587.3,420.0 L588.1,420.0 L589.0,417.9 L589.8,412.0 L590.7,410.8 L591.5,410.5 L592.4,403.1 L593.2,398.4 L594.0,411.1 L594.9,415.9 L595.7,420.0 L596.6,420.0 L597.4,420.0 L598.3,420.0 L599.1,420.0 L599.9,420.0 L600.8,420.0 L601.6,420.0 L602.5,420.0 L603.3,420.0 L604.2,420.0 L605.0,420.0 L605.8,420.0 L606.7,420.0 L607.5,420.0 L608.4,420.0 L609.2,419.4 L610.1,418.8 L610.9,417.3 L611.7,417.6 L612.6,417.0 L613.4,409.6 L614.3,410.2 L615.1,418.5 L616.0,420.0 L616.8,420.0 L617.6,420.0 L618.5,420.0 L619.3,420.0 L620.2,420.0 L621.0,420.0 L621.9,420.0 L622.7,420.0 L623.5,420.0 L624.4,420.0 L625.2,420.0 L626.1,420.0 L626.9,420.0 L627.8,420.0 L628.6,420.0 L629.4,419.1 L630.3,417.3 L631.1,416.2 L632.0,415.0 L632.8,416.4 L633.7,416.2 L634.5,417.3 L635.3,419.1 L636.2,420.0 L637.0,420.0 L637.9,420.0 L638.7,420.0 L639.6,420.0 L640.4,420.0 L641.2,420.0 L642.1,420.0 L642.9,420.0 L643.8,420.0 L644.6,420.0 L645.4,420.0 L646.3,420.0 L647.1,420.0 L648.0,420.0 L648.8,420.0 L649.7,417.0 L650.5,415.3 L651.3,409.3 L652.2,413.5 L653.0,413.8 L653.9,416.4 L654.7,415.9 L655.6,419.1 L656.4,420.0 L657.2,420.0 L658.1,420.0 L658.9,420.0 L659.8,420.0 L660.6,420.0 L661.5,420.0 L662.3,420.0 L663.1,420.0 L664.0,420.0 L664.8,420.0 L665.7,420.0 L666.5,420.0 L667.4,420.0 L668.2,420.0 L669.0,420.0 L669.9,417.6 L670.7,404.3 L671.6,402.5 L672.4,402.2 L673.3,401.4 L674.1,400.2 L674.9,409.3 L675.8,415.9 L676.6,420.0 L677.5,420.0 L678.3,420.0 L679.2,420.0 L680.0,420.0" stroke="#d62728" stroke-width="2" fill="none" opacity="0.8"/>
<!-- Forecast -->
<path d="M80.0,237.4 L80.8,223.2 L81.7,195.7 L82.5,166.1 L83.4,151.9 L84.2,152.2 L85.1,155.5 L85.9,159.3 L86.7,163.5 L87.6,167.3 L88.4,170.9 L89.3,171.5 L90.1,164.7 L91.0,149.6 L91.8,143.4 L92.6,146.9 L93.5,158.5 L94.3,175.6 L95.2,194.8 L96.0,223.2 L96.9,232.1 L97.7,238.3 L98.5,243.4 L99.4,246.9 L100.2,249.0 L101.1,245.1 L101.9,227.7 L102.8,211.4 L103.6,196.6 L104.4,192.8 L105.3,186.9 L106.1,188.0 L107.0,190.4 L107.8,197.8 L108.7,200.5 L109.5,198.7 L110.3,193.4 L111.2,180.3 L112.0,173.5 L112.9,172.9 L113.7,179.8 L114.6,191.0 L115.4,208.7 L116.2,220.6 L117.1,234.2 L117.9,239.2 L118.8,242.5 L119.6,242.2 L120.4,239.5 L121.3,235.4 L122.1,225.6 L123.0,213.5 L123.8,202.5 L124.7,192.8 L125.5,182.1 L126.3,176.2 L127.2,177.1 L128.0,183.3 L128.9,194.0 L129.7,191.9 L130.6,189.5 L131.4,167.0 L132.2,162.3 L133.1,163.8 L133.9,171.5 L134.8,185.7 L135.6,201.6 L136.5,205.2 L137.3,228.6 L138.1,237.2 L139.0,241.3 L139.8,243.1 L140.7,240.7 L141.5,226.2 L142.4,199.0 L143.2,170.0 L144.0,153.7 L144.9,151.9 L145.7,154.0 L146.6,157.3 L147.4,161.7 L148.3,165.3 L149.1,167.6 L149.9,167.6 L150.8,160.5 L151.6,144.5 L152.5,138.6 L153.3,143.7 L154.2,153.1 L155.0,169.1 L155.8,189.8 L156.7,205.5 L157.5,222.4 L158.4,228.6 L159.2,231.8 L160.1,233.0 L160.9,229.8 L161.7,215.3 L162.6,185.4 L163.4,155.8 L164.3,142.8 L165.1,144.2 L166.0,148.7 L166.8,152.5 L167.6,158.5 L168.5,162.6 L169.3,164.4 L170.2,163.5 L171.0,155.5 L171.9,138.6 L172.7,133.0 L173.5,136.9 L174.4,146.6 L175.2,161.4 L176.1,183.6 L176.9,209.6 L177.8,219.7 L178.6,225.3 L179.4,229.8 L180.3,231.5 L181.1,229.2 L182.0,215.0 L182.8,186.6 L183.7,157.0 L184.5,144.0 L185.3,144.8 L186.2,149.3 L187.0,152.8 L187.9,158.7 L188.7,162.6 L189.6,165.0 L190.4,165.0 L191.2,154.3 L192.1,141.0 L192.9,136.6 L193.8,142.2 L194.6,151.6 L195.4,167.3 L196.3,188.9 L197.1,215.6 L198.0,226.2 L198.8,233.3 L199.7,236.9 L200.5,239.8 L201.3,239.2 L202.2,235.1 L203.0,224.4 L203.9,209.3 L204.7,194.5 L205.6,182.7 L206.4,174.4 L207.2,178.0 L208.1,187.2 L208.9,188.3 L209.8,187.4 L210.6,184.8 L211.5,178.6 L212.3,162.9 L213.1,153.7 L214.0,162.3 L214.8,172.9 L215.7,180.9 L216.5,198.4 L217.4,206.1 L218.2,222.1 L219.0,233.0 L219.9,237.4 L220.7,238.9 L221.6,235.7 L222.4,221.2 L223.3,193.1 L224.1,162.0 L224.9,146.6 L225.8,145.7 L226.6,149.0 L227.5,152.2 L228.3,157.0 L229.2,160.8 L230.0,162.9 L230.8,162.3 L231.7,153.7 L232.5,136.3 L233.4,130.6 L234.2,135.4 L235.1,144.8 L235.9,159.3 L236.7,180.9 L237.6,186.3 L238.4,209.9 L239.3,220.3 L240.1,224.4 L241.0,226.5 L241.8,226.2 L242.6,220.0 L243.5,205.2 L244.3,187.7 L245.2,169.4 L246.0,161.4 L246.9,159.0 L247.7,159.6 L248.5,162.0 L249.4,166.7 L250.2,170.3 L251.1,169.4 L251.9,159.6 L252.8,139.5 L253.6,135.4 L254.4,141.0 L255.3,149.9 L256.1,161.4 L257.0,175.0 L257.8,163.2 L258.7,194.8 L259.5,209.9 L260.3,214.7 L261.2,216.4 L262.0,213.8 L262.9,207.9 L263.7,192.8 L264.6,178.3 L265.4,165.6 L266.2,155.2 L267.1,149.6 L267.9,149.0 L268.8,153.7 L269.6,157.9 L270.4,161.4 L271.3,161.7 L272.1,150.8 L273.0,144.5 L273.8,140.7 L274.7,136.6 L275.5,132.7 L276.3,128.9 L277.2,137.4 L278.0,193.1 L278.9,204.9 L279.7,210.8 L280.6,216.1 L281.4,217.6 L282.2,215.8 L283.1,200.2 L283.9,172.7 L284.8,145.1 L285.6,132.4 L286.5,134.8 L287.3,139.5 L288.1,145.1 L289.0,150.2 L289.8,156.7 L290.7,160.5 L291.5,159.0 L292.4,149.0 L293.2,130.9 L294.0,125.9 L294.9,131.8 L295.7,143.7 L296.6,159.0 L297.4,182.1 L298.3,209.0 L299.1,207.0 L299.9,226.5 L300.8,235.7 L301.6,237.7 L302.5,234.5 L303.3,220.9 L304.2,193.1 L305.0,161.7 L305.8,147.8 L306.7,147.2 L307.5,150.5 L308.4,153.7 L309.2,159.3 L310.1,162.9 L310.9,165.3 L311.7,165.3 L312.6,157.9 L313.4,141.9 L314.3,136.9 L315.1,142.2 L316.0,151.9 L316.8,167.6 L317.6,189.2 L318.5,204.9 L319.3,222.1 L320.2,227.7 L321.0,230.9 L321.9,231.8 L322.7,228.0 L323.5,213.8 L324.4,184.2 L325.2,152.5 L326.1,139.2 L326.9,141.0 L327.8,144.8 L328.6,149.6 L329.4,154.6 L330.3,159.6 L331.1,161.7 L332.0,160.5 L332.8,150.8 L333.7,132.1 L334.5,127.1 L335.3,132.7 L336.2,143.1 L337.0,158.2 L337.9,181.2 L338.7,186.6 L339.6,219.4 L340.4,226.2 L341.2,231.2 L342.1,233.0 L342.9,230.6 L343.8,217.0 L344.6,188.0 L345.4,156.1 L346.3,142.5 L347.1,143.4 L348.0,147.5 L348.8,151.1 L349.7,157.0 L350.5,161.1 L351.3,163.2 L352.2,163.2 L353.0,156.1 L353.9,140.4 L354.7,136.0 L355.6,141.3 L356.4,151.4 L357.2,167.9 L358.1,189.2 L358.9,369.4 L359.8,222.4 L360.6,231.5 L361.5,235.4 L362.3,237.4 L363.1,234.5 L364.0,220.0 L364.8,191.9 L365.7,159.0 L366.5,144.8 L367.4,144.8 L368.2,148.1 L369.0,151.4 L369.9,157.0 L370.7,160.8 L371.6,162.9 L372.4,162.6 L373.3,155.2 L374.1,139.5 L374.9,135.1 L375.8,140.7 L376.6,151.9 L377.5,169.1 L378.3,190.1 L379.2,209.9 L380.0,224.1 L380.8,232.7 L381.7,237.4 L382.5,240.1 L383.4,240.1 L384.2,234.2 L385.1,219.4 L385.9,200.5 L386.7,182.4 L387.6,172.4 L388.4,168.8 L389.3,170.0 L390.1,172.1 L391.0,177.1 L391.8,180.6 L392.6,179.8 L393.5,172.7 L394.3,157.0 L395.2,153.4 L396.0,157.0 L396.9,165.3 L397.7,178.0 L398.5,194.3 L399.4,216.1 L400.2,223.5 L401.1,232.4 L401.9,237.2 L402.8,238.6 L403.6,237.4 L404.4,233.3 L405.3,222.7 L406.1,206.7 L407.0,192.2 L407.8,180.6 L408.7,172.4 L409.5,175.3 L410.3,180.3 L411.2,183.3 L412.0,183.9 L412.9,182.1 L413.7,175.9 L414.6,160.5 L415.4,153.1 L416.2,162.9 L417.1,174.4 L417.9,183.0 L418.8,199.0 L419.6,215.3 L420.4,227.1 L421.3,234.8 L422.1,238.9 L423.0,240.7 L423.8,237.7 L424.7,223.8 L425.5,196.9 L426.3,165.8 L427.2,149.6 L428.0,148.1 L428.9,150.5 L429.7,153.7 L430.6,158.7 L431.4,162.3 L432.2,164.7 L433.1,165.0 L433.9,158.2 L434.8,143.7 L435.6,138.9 L436.5,143.7 L437.3,156.1 L438.1,175.0 L439.0,194.5 L439.8,198.7 L440.7,227.7 L441.5,237.4 L442.4,243.7 L443.2,245.4 L444.0,244.5 L444.9,230.3 L445.7,200.5 L446.6,171.8 L447.4,155.5 L448.3,151.9 L449.1,152.8 L449.9,155.8 L450.8,159.9 L451.6,163.2 L452.5,165.8 L453.3,166.7 L454.2,160.2 L455.0,145.7 L455.8,140.4 L456.7,144.0 L457.5,156.1 L458.4,175.0 L459.2,194.0 L460.1,217.3 L460.9,227.4 L461.7,234.8 L462.6,239.8 L463.4,241.9 L464.3,239.8 L465.1,226.8 L466.0,199.6 L466.8,170.3 L467.6,154.0 L468.5,151.6 L469.3,153.1 L470.2,156.1 L471.0,160.5 L471.9,164.1 L472.7,167.6 L473.5,169.1 L474.4,163.5 L475.2,150.5 L476.1,145.4 L476.9,147.5 L477.8,162.0 L478.6,178.9 L479.4,198.7 L480.3,210.5 L481.1,229.5 L482.0,241.0 L482.8,246.9 L483.7,248.1 L484.5,247.5 L485.3,233.6 L486.2,201.4 L487.0,173.8 L487.9,159.0 L488.7,155.5 L489.6,155.8 L490.4,158.5 L491.2,161.1 L492.1,164.4 L492.9,167.0 L493.8,167.0 L494.6,159.3 L495.4,143.7 L496.3,137.4 L497.1,140.7 L498.0,152.2 L498.8,167.3 L499.7,188.0 L500.5,206.7 L501.3,220.9 L502.2,230.3 L503.0,235.4 L503.9,236.9 L504.7,234.2 L505.6,220.0 L506.4,191.0 L507.2,160.5 L508.1,144.2 L508.9,141.3 L509.8,142.2 L510.6,145.1 L511.5,149.3 L512.3,153.4 L513.1,155.5 L514.0,155.2 L514.8,149.3 L515.7,133.9 L516.5,128.9 L517.4,134.2 L518.2,146.9 L519.0,163.8 L519.9,185.4 L520.7,214.1 L521.6,225.0 L522.4,231.8 L523.3,236.9 L524.1,239.8 L524.9,244.0 L525.8,240.4 L526.6,221.5 L527.5,201.4 L528.3,183.6 L529.2,176.5 L530.0,170.3 L530.8,171.5 L531.7,173.8 L532.5,180.3 L533.4,183.3 L534.2,182.4 L535.1,176.5 L535.9,161.7 L536.7,157.9 L537.6,160.5 L538.4,168.8 L539.3,181.2 L540.1,199.0 L541.0,203.1 L541.8,228.3 L542.6,233.6 L543.5,238.0 L544.3,238.6 L545.2,236.9 L546.0,232.4 L546.9,223.2 L547.7,211.1 L548.5,199.6 L549.4,188.3 L550.2,177.1 L551.1,170.3 L551.9,175.6 L552.8,180.9 L553.6,187.7 L554.4,186.3 L555.3,183.3 L556.1,167.3 L557.0,159.6 L557.8,161.1 L558.7,172.4 L559.5,183.9 L560.3,199.0 L561.2,217.3 L562.0,228.0 L562.9,234.5 L563.7,238.9 L564.6,241.0 L565.4,238.3 L566.2,224.7 L567.1,198.7 L567.9,168.2 L568.8,151.6 L569.6,149.6 L570.4,151.6 L571.3,154.9 L572.1,159.3 L573.0,163.2 L573.8,166.4 L574.7,167.3 L575.5,161.4 L576.3,147.5 L577.2,142.5 L578.0,145.4 L578.9,159.0 L579.7,174.1 L580.6,196.0 L581.4,216.7 L582.2,230.3 L583.1,238.6 L583.9,244.5 L584.8,246.0 L585.6,244.8 L586.5,231.2 L587.3,199.9 L588.1,171.5 L589.0,156.4 L589.8,153.1 L590.7,153.7 L591.5,156.7 L592.4,159.9 L593.2,163.5 L594.0,167.0 L594.9,168.2 L595.7,162.6 L596.6,149.0 L597.4,144.0 L598.3,146.3 L599.1,160.5 L599.9,169.4 L600.8,195.1 L601.6,210.8 L602.5,228.0 L603.3,237.2 L604.2,242.5 L605.0,244.3 L605.8,244.0 L606.7,230.3 L607.5,199.6 L608.4,171.2 L609.2,155.2 L610.1,150.8 L610.9,151.1 L611.7,153.4 L612.6,157.6 L613.4,160.5 L614.3,162.3 L615.1,162.0 L616.0,154.9 L616.8,138.9 L617.6,133.6 L618.5,138.9 L619.3,149.3 L620.2,165.8 L621.0,186.9 L621.9,214.1 L622.7,223.2 L623.5,230.3 L624.4,234.8 L625.2,236.3 L626.1,233.0 L626.9,219.1 L627.8,191.9 L628.6,159.6 L629.4,144.8 L630.3,144.2 L631.1,147.5 L632.0,151.1 L632.8,156.4 L633.7,160.2 L634.5,162.3 L635.3,162.3 L636.2,155.8 L637.0,141.3 L637.9,140.1 L638.7,143.4 L639.6,155.5 L640.4,174.4 L641.2,195.4 L642.1,200.2 L642.9,228.3 L643.8,238.0 L644.6,243.7 L645.4,245.4 L646.3,245.1 L647.1,231.5 L648.0,200.2 L648.8,171.8 L649.7,156.1 L650.5,152.5 L651.3,152.8 L652.2,155.5 L653.0,159.0 L653.9,162.3 L654.7,164.4 L655.6,164.1 L656.4,156.7 L657.2,141.0 L658.1,135.7 L658.9,140.1 L659.8,150.2 L660.6,166.4 L661.5,187.4 L662.3,208.5 L663.1,221.8 L664.0,229.5 L664.8,234.5 L665.7,237.2 L666.5,236.3 L667.4,231.2 L668.2,217.9 L669.0,199.3 L669.9,182.7 L670.7,172.9 L671.6,170.0 L672.4,171.2 L673.3,173.5 L674.1,178.9 L674.9,180.9 L675.8,180.0 L676.6,172.9 L677.5,157.3 L678.3,152.8 L679.2,155.5 L680.0,156.4" stroke="#9467bd" stroke-width="2" fill="none" opacity="0.8"/>
<!-- Total Generation -->
<path d="M80.0,96.3 L80.8,104.6 L81.7,100.2 L82.5,96.9 L83.4,78.0 L84.2,67.6 L85.1,68.5 L85.9,80.0 L86.7,100.8 L87.6,99.0 L88.4,109.9 L89.3,135.7 L90.1,139.8 L91.0,102.5 L91.8,122.9 L92.6,125.3 L93.5,133.3 L94.3,133.3 L95.2,142.5 L96.0,157.0 L96.9,159.0 L97.7,165.8 L98.5,177.7 L99.4,170.9 L100.2,168.5 L101.1,168.8 L101.9,128.3 L102.8,122.9 L103.6,123.5 L104.4,114.7 L105.3,110.8 L106.1,125.3 L107.0,122.1 L107.8,140.1 L108.7,153.4 L109.5,172.9 L110.3,114.1 L111.2,146.3 L112.0,165.3 L112.9,139.8 L113.7,116.4 L114.6,149.0 L115.4,154.0 L116.2,171.2 L117.1,152.5 L117.9,185.4 L118.8,172.7 L119.6,166.4 L120.4,173.2 L121.3,164.4 L122.1,158.2 L123.0,144.8 L123.8,142.2 L124.7,148.1 L125.5,156.4 L126.3,163.2 L127.2,160.8 L128.0,170.6 L128.9,181.8 L129.7,163.8 L130.6,154.9 L131.4,163.2 L132.2,170.6 L133.1,180.0 L133.9,188.6 L134.8,189.5 L135.6,193.1 L136.5,205.8 L137.3,225.0 L138.1,253.4 L139.0,246.3 L139.8,226.8 L140.7,242.2 L141.5,249.6 L142.4,214.4 L143.2,202.8 L144.0,203.7 L144.9,172.7 L145.7,180.6 L146.6,166.7 L147.4,154.6 L148.3,123.8 L149.1,138.9 L149.9,132.7 L150.8,107.9 L151.6,112.3 L152.5,119.4 L153.3,123.8 L154.2,145.4 L155.0,149.0 L155.8,156.1 L156.7,201.9 L157.5,218.8 L158.4,218.2 L159.2,231.5 L160.1,237.4 L160.9,220.3 L161.7,208.2 L162.6,211.1 L163.4,207.3 L164.3,207.3 L165.1,195.7 L166.0,178.0 L166.8,183.6 L167.6,170.6 L168.5,174.4 L169.3,183.0 L170.2,172.7 L171.0,168.2 L171.9,211.1 L172.7,217.6 L173.5,212.9 L174.4,209.3 L175.2,209.6 L176.1,205.5 L176.9,192.8 L177.8,191.6 L178.6,174.7 L179.4,167.0 L180.3,188.9 L181.1,196.6 L182.0,168.8 L182.8,156.7 L183.7,152.5 L184.5,161.1 L185.3,165.3 L186.2,146.6 L187.0,141.3 L187.9,125.0 L188.7,137.4 L189.6,198.1 L190.4,209.6 L191.2,199.0 L192.1,210.5 L192.9,214.4 L193.8,208.7 L194.6,200.2 L195.4,223.2 L196.3,222.1 L197.1,227.4 L198.0,233.6 L198.8,255.5 L199.7,253.1 L200.5,235.7 L201.3,236.3 L202.2,235.7 L203.0,235.4 L203.9,238.3 L204.7,242.5 L205.6,228.9 L206.4,241.9 L207.2,207.3 L208.1,203.4 L208.9,199.3 L209.8,204.0 L210.6,207.9 L211.5,211.7 L212.3,225.9 L213.1,236.3 L214.0,244.5 L214.8,251.4 L215.7,254.6 L216.5,253.4 L217.4,245.1 L218.2,241.0 L219.0,244.3 L219.9,235.7 L220.7,231.8 L221.6,196.9 L222.4,201.1 L223.3,207.0 L224.1,197.8 L224.9,194.8 L225.8,190.7 L226.6,185.7 L227.5,172.4 L228.3,158.5 L229.2,153.7 L230.0,154.0 L230.8,159.3 L231.7,158.7 L232.5,159.3 L233.4,167.6 L234.2,167.9 L235.1,170.3 L235.9,177.7 L236.7,184.2 L237.6,204.6 L238.4,184.8 L239.3,215.6 L240.1,210.8 L241.0,224.4 L241.8,230.6 L242.6,229.5 L243.5,229.8 L244.3,228.0 L245.2,226.2 L246.0,212.0 L246.9,219.7 L247.7,208.2 L248.5,205.8 L249.4,204.0 L250.2,207.9 L251.1,223.5 L251.9,223.0 L252.8,223.0 L253.6,226.2 L254.4,229.5 L255.3,229.2 L256.1,230.1 L257.0,235.1 L257.8,233.9 L258.7,236.3 L259.5,232.1 L260.3,230.6 L261.2,229.8 L262.0,235.7 L262.9,238.3 L263.7,239.5 L264.6,245.7 L265.4,248.1 L266.2,238.3 L267.1,227.4 L267.9,224.4 L268.8,223.2 L269.6,206.1 L270.4,189.5 L271.3,200.2 L272.1,197.5 L273.0,189.2 L273.8,181.5 L274.7,183.9 L275.5,174.1 L276.3,169.1 L277.2,164.4 L278.0,146.3 L278.9,152.2 L279.7,171.2 L280.6,172.7 L281.4,173.2 L282.2,137.4 L283.1,133.3 L283.9,136.6 L284.8,131.5 L285.6,135.4 L286.5,121.2 L287.3,117.6 L288.1,125.9 L289.0,119.7 L289.8,113.8 L290.7,131.2 L291.5,144.2 L292.4,126.5 L293.2,122.1 L294.0,128.6 L294.9,133.6 L295.7,125.3 L296.6,141.3 L297.4,159.0 L298.3,173.2 L299.1,157.3 L299.9,157.9 L300.8,171.5 L301.6,170.6 L302.5,162.6 L303.3,158.5 L304.2,140.1 L305.0,127.1 L305.8,173.5 L306.7,188.9 L307.5,206.4 L308.4,182.1 L309.2,160.8 L310.1,198.4 L310.9,182.7 L311.7,191.9 L312.6,159.9 L313.4,148.1 L314.3,185.4 L315.1,206.1 L316.0,184.8 L316.8,192.8 L317.6,191.6 L318.5,179.8 L319.3,199.6 L320.2,216.7 L321.0,220.3 L321.9,219.1 L322.7,236.9 L323.5,222.1 L324.4,214.7 L325.2,216.4 L326.1,210.8 L326.9,217.3 L327.8,217.3 L328.6,191.6 L329.4,174.7 L330.3,170.3 L331.1,163.5 L332.0,168.8 L332.8,160.5 L333.7,157.0 L334.5,157.0 L335.3,159.6 L336.2,158.2 L337.0,162.0 L337.9,174.1 L338.7,201.4 L339.6,193.4 L340.4,196.9 L341.2,202.2 L342.1,188.6 L342.9,188.6 L343.8,186.9 L344.6,156.4 L345.4,156.7 L346.3,171.2 L347.1,180.3 L348.0,183.9 L348.8,178.6 L349.7,189.8 L350.5,183.0 L351.3,175.9 L352.2,174.1 L353.0,145.7 L353.9,170.0 L354.7,151.9 L355.6,159.9 L356.4,170.0 L357.2,166.4 L358.1,176.8 L358.9,190.7 L359.8,195.7 L360.6,198.7 L361.5,184.8 L362.3,192.8 L363.1,216.1 L364.0,228.3 L364.8,224.1 L365.7,240.7 L366.5,237.7 L367.4,218.2 L368.2,206.1 L369.0,189.5 L369.9,183.6 L370.7,163.5 L371.6,170.0 L372.4,175.3 L373.3,192.5 L374.1,237.2 L374.9,236.3 L375.8,237.4 L376.6,286.6 L377.5,288.0 L378.3,286.9 L379.2,277.7 L380.0,258.8 L380.8,222.4 L381.7,209.0 L382.5,205.5 L383.4,223.2 L384.2,236.6 L385.1,235.7 L385.9,239.5 L386.7,240.1 L387.6,227.1 L388.4,232.4 L389.3,221.8 L390.1,217.3 L391.0,233.0 L391.8,251.4 L392.6,278.9 L393.5,258.8 L394.3,255.8 L395.2,236.9 L396.0,215.0 L396.9,187.2 L397.7,170.0 L398.5,165.0 L399.4,176.2 L400.2,165.0 L401.1,167.6 L401.9,170.3 L402.8,169.4 L403.6,168.2 L404.4,167.6 L405.3,167.3 L406.1,154.6 L407.0,179.5 L407.8,165.3 L408.7,159.3 L409.5,185.1 L410.3,192.2 L411.2,157.6 L412.0,157.9 L412.9,175.0 L413.7,144.2 L414.6,144.5 L415.4,189.8 L416.2,175.9 L417.1,176.2 L417.9,177.7 L418.8,188.6 L419.6,167.6 L420.4,177.4 L421.3,181.2 L422.1,177.4 L423.0,179.8 L423.8,177.1 L424.7,178.9 L425.5,147.8 L426.3,157.0 L427.2,189.2 L428.0,172.1 L428.9,183.6 L429.7,163.5 L430.6,182.4 L431.4,179.2 L432.2,189.2 L433.1,185.4 L433.9,134.8 L434.8,161.4 L435.6,162.9 L436.5,172.9 L437.3,171.2 L438.1,174.4 L439.0,187.4 L439.8,179.2 L440.7,202.5 L441.5,209.9 L442.4,216.1 L443.2,249.0 L444.0,245.4 L444.9,190.1 L445.7,183.0 L446.6,178.9 L447.4,175.6 L448.3,187.2 L449.1,201.6 L449.9,205.2 L450.8,194.8 L451.6,192.2 L452.5,199.6 L453.3,228.3 L454.2,202.5 L455.0,162.0 L455.8,136.0 L456.7,180.6 L457.5,191.0 L458.4,186.0 L459.2,217.6 L460.1,220.3 L460.9,248.7 L461.7,258.8 L462.6,248.7 L463.4,246.6 L464.3,244.5 L465.1,254.9 L466.0,224.1 L466.8,204.9 L467.6,230.9 L468.5,236.0 L469.3,237.4 L470.2,212.6 L471.0,189.8 L471.9,177.4 L472.7,203.1 L473.5,196.9 L474.4,190.7 L475.2,189.2 L476.1,175.6 L476.9,180.3 L477.8,177.7 L478.6,179.2 L479.4,183.6 L480.3,181.5 L481.1,181.5 L482.0,187.2 L482.8,187.2 L483.7,189.8 L484.5,199.6 L485.3,185.1 L486.2,151.6 L487.0,143.1 L487.9,169.7 L488.7,153.1 L489.6,144.2 L490.4,132.1 L491.2,140.1 L492.1,145.4 L492.9,158.7 L493.8,152.8 L494.6,129.8 L495.4,160.8 L496.3,186.9 L497.1,172.4 L498.0,174.7 L498.8,188.9 L499.7,183.0 L500.5,204.6 L501.3,238.6 L502.2,248.1 L503.0,258.2 L503.9,254.9 L504.7,243.1 L505.6,220.3 L506.4,210.8 L507.2,206.1 L508.1,238.9 L508.9,231.5 L509.8,230.6 L510.6,229.5 L511.5,228.3 L512.3,229.2 L513.1,224.1 L514.0,231.5 L514.8,194.5 L515.7,196.0 L516.5,202.5 L517.4,213.2 L518.2,209.3 L519.0,167.3 L519.9,170.6 L520.7,177.7 L521.6,169.4 L522.4,155.8 L523.3,159.3 L524.1,170.6 L524.9,180.9 L525.8,183.9 L526.6,227.1 L527.5,242.2 L528.3,238.0 L529.2,229.8 L530.0,230.6 L530.8,236.6 L531.7,241.6 L532.5,233.0 L533.4,229.2 L534.2,216.1 L535.1,186.3 L535.9,155.8 L536.7,176.5 L537.6,182.1 L538.4,135.7 L539.3,132.7 L540.1,141.6 L541.0,148.1 L541.8,143.7 L542.6,164.1 L543.5,180.3 L544.3,164.4 L545.2,142.5 L546.0,120.0 L546.9,119.7 L547.7,135.1 L548.5,152.8 L549.4,145.7 L550.2,149.9 L551.1,146.3 L551.9,135.1 L552.8,143.1 L553.6,159.0 L554.4,164.7 L555.3,157.9 L556.1,142.2 L557.0,184.8 L557.8,161.7 L558.7,138.9 L559.5,134.5 L560.3,133.3 L561.2,138.9 L562.0,128.3 L562.9,177.7 L563.7,200.2 L564.6,200.2 L565.4,185.4 L566.2,162.0 L567.1,135.1 L567.9,153.7 L568.8,154.0 L569.6,135.1 L570.4,135.4 L571.3,139.2 L572.1,153.4 L573.0,141.9 L573.8,133.0 L574.7,122.7 L575.5,138.6 L576.3,117.3 L577.2,126.8 L578.0,138.0 L578.9,167.0 L579.7,200.2 L580.6,190.1 L581.4,188.0 L582.2,185.4 L583.1,195.1 L583.9,195.1 L584.8,211.1 L585.6,204.6 L586.5,217.0 L587.3,222.4 L588.1,201.9 L589.0,178.0 L589.8,183.6 L590.7,186.0 L591.5,173.8 L592.4,170.0 L593.2,154.9 L594.0,161.7 L594.9,184.5 L595.7,219.4 L596.6,236.0 L597.4,207.3 L598.3,202.2 L599.1,179.2 L599.9,188.6 L600.8,200.8 L601.6,242.2 L602.5,259.3 L603.3,262.3 L604.2,244.8 L605.0,236.3 L605.8,211.7 L606.7,179.8 L607.5,180.0 L608.4,217.6 L609.2,225.6 L610.1,196.0 L610.9,216.1 L611.7,275.0 L612.6,283.0 L613.4,292.2 L614.3,272.1 L615.1,360.5 L616.0,359.3 L616.8,324.7 L617.6,321.8 L618.5,299.3 L619.3,296.9 L620.2,292.5 L621.0,296.6 L621.9,290.1 L622.7,286.3 L623.5,278.3 L624.4,273.2 L625.2,269.1 L626.1,268.8 L626.9,269.7 L627.8,268.5 L628.6,266.1 L629.4,284.8 L630.3,289.8 L631.1,297.2 L632.0,281.2 L632.8,273.0 L633.7,278.0 L634.5,270.6 L635.3,275.6 L636.2,268.8 L637.0,279.8 L637.9,266.1 L638.7,233.9 L639.6,233.0 L640.4,236.0 L641.2,226.2 L642.1,223.5 L642.9,221.2 L643.8,224.4 L644.6,206.4 L645.4,208.7 L646.3,239.8 L647.1,241.9 L648.0,251.4 L648.8,238.0 L649.7,225.3 L650.5,200.8 L651.3,177.7 L652.2,186.9 L653.0,183.9 L653.9,183.6 L654.7,194.5 L655.6,176.8 L656.4,194.5 L657.2,178.3 L658.1,186.6 L658.9,174.4 L659.8,169.1 L660.6,169.1 L661.5,202.8 L662.3,186.3 L663.1,193.4 L664.0,221.5 L664.8,225.9 L665.7,222.7 L666.5,221.5 L667.4,222.4 L668.2,216.4 L669.0,207.3 L669.9,202.8 L670.7,178.6 L671.6,172.9 L672.4,170.3 L673.3,181.8 L674.1,181.8 L674.9,194.3 L675.8,201.6 L676.6,184.8 L677.5,176.2 L678.3,197.5 L679.2,204.0 L680.0,196.0" stroke="#8c564b" stroke-width="2" fill="none" opacity="0.8"/>
<!-- Forecast Difference -->
<path d="M80.0,420.0 L80.8,420.0 L81.7,420.0 L82.5,420.0 L83.4,420.0 L84.2,420.0 L85.1,420.0 L85.9,420.0 L86.7,420.0 L87.6,420.0 L88.4,420.0 L89.3,420.0 L90.1,420.0 L91.0,420.0 L91.8,420.0 L92.6,420.0 L93.5,420.0 L94.3,420.0 L95.2,420.0 L96.0,420.0 L96.9,420.0 L97.7,420.0 L98.5,420.0 L99.4,420.0 L100.2,420.0 L101.1,420.0 L101.9,420.0 L102.8,420.0 L103.6,420.0 L104.4,420.0 L105.3,420.0 L106.1,420.0 L107.0,420.0 L107.8,420.0 L108.7,420.0 L109.5,420.0 L110.3,420.0 L111.2,420.0 L112.0,420.0 L112.9,420.0 L113.7,420.0 L114.6,420.0 L115.4,420.0 L116.2,420.0 L117.1,420.0 L117.9,420.0 L118.8,420.0 L119.6,420.0 L120.4,420.0 L121.3,420.0 L122.1,420.0 L123.0,420.0 L123.8,420.0 L124.7,420.0 L125.5,420.0 L126.3,420.0 L127.2,420.0 L128.0,420.0 L128.9,420.0 L129.7,420.0 L130.6,420.0 L131.4,420.0 L132.2,420.0 L133.1,420.0 L133.9,420.0 L134.8,420.0 L135.6,420.0 L136.5,420.0 L137.3,420.0 L138.1,420.0 L139.0,420.0 L139.8,420.0 L140.7,420.0 L141.5,420.0 L142.4,420.0 L143.2,420.0 L144.0,420.0 L144.9,420.0 L145.7,420.0 L146.6,420.0 L147.4,420.0 L148.3,420.0 L149.1,420.0 L149.9,420.0 L150.8,420.0 L151.6,420.0 L152.5,420.0 L153.3,420.0 L154.2,420.0 L155.0,420.0 L155.8,420.0 L156.7,420.0 L157.5,420.0 L158.4,420.0 L159.2,420.0 L160.1,420.0 L160.9,420.0 L161.7,420.0 L162.6,420.0 L163.4,420.0 L164.3,420.0 L165.1,420.0 L166.0,420.0 L166.8,420.0 L167.6,420.0 L168.5,420.0 L169.3,420.0 L170.2,420.0 L171.0,420.0 L171.9,420.0 L172.7,420.0 L173.5,420.0 L174.4,420.0 L175.2,420.0 L176.1,420.0 L176.9,420.0 L177.8,420.0 L178.6,420.0 L179.4,420.0 L180.3,420.0 L181.1,420.0 L182.0,420.0 L182.8,420.0 L183.7,420.0 L184.5,420.0 L185.3,420.0 L186.2,420.0 L187.0,420.0 L187.9,420.0 L188.7,420.0 L189.6,420.0 L190.4,420.0 L191.2,420.0 L192.1,420.0 L192.9,420.0 L193.8,420.0 L194.6,420.0 L195.4,420.0 L196.3,420.0 L197.1,420.0 L198.0,420.0 L198.8,420.0 L199.7,420.0 L200.5,420.0 L201.3,420.0 L202.2,420.0 L203.0,420.0 L203.9,420.0 L204.7,420.0 L205.6,420.0 L206.4,420.0 L207.2,420.0 L208.1,420.0 L208.9,420.0 L209.8,420.0 L210.6,420.0 L211.5,420.0 L212.3,420.0 L213.1,420.0 L214.0,420.0 L214.8,420.0 L215.7,420.0 L216.5,420.0 L217.4,420.0 L218.2,420.0 L219.0,420.0 L219.9,420.0 L220.7,420.0 L221.6,420.0 L222.4,420.0 L223.3,420.0 L224.1,420.0 L224.9,420.0 L225.8,420.0 L226.6,420.0 L227.5,420.0 L228.3,420.0 L229.2,420.0 L230.0,420.0 L230.8,420.0 L231.7,420.0 L232.5,420.0 L233.4,420.0 L234.2,420.0 L235.1,420.0 L235.9,420.0 L236.7,420.0 L237.6,420.0 L238.4,420.0 L239.3,420.0 L240.1,420.0 L241.0,420.0 L241.8,420.0 L242.6,420.0 L243.5,420.0 L244.3,420.0 L245.2,420.0 L246.0,420.0 L246.9,420.0 L247.7,420.0 L248.5,420.0 L249.4,420.0 L250.2,420.0 L251.1,420.0 L251.9,420.0 L252.8,420.0 L253.6,420.0 L254.4,420.0 L255.3,420.0 L256.1,420.0 L257.0,420.0 L257.8,420.0 L258.7,420.0 L259.5,420.0 L260.3,420.0 L261.2,420.0 L262.0,420.0 L262.9,420.0 L263.7,420.0 L264.6,420.0 L265.4,420.0 L266.2,420.0 L267.1,420.0 L267.9,420.0 L268.8,420.0 L269.6,420.0 L270.4,420.0 L271.3,420.0 L272.1,420.0 L273.0,420.0 L273.8,420.0 L274.7,420.0 L275.5,420.0 L276.3,420.0 L277.2,420.0 L278.0,420.0 L278.9,420.0 L279.7,420.0 L280.6,420.0 L281.4,420.0 L282.2,420.0 L283.1,420.0 L283.9,420.0 L284.8,420.0 L285.6,420.0 L286.5,420.0 L287.3,420.0 L288.1,420.0 L289.0,420.0 L289.8,420.0 L290.7,420.0 L291.5,420.0 L292.4,420.0 L293.2,420.0 L294.0,420.0 L294.9,420.0 L295.7,420.0 L296.6,420.0 L297.4,420.0 L298.3,420.0 L299.1,420.0 L299.9,420.0 L300.8,420.0 L301.6,420.0 L302.5,420.0 L303.3,420.0 L304.2,420.0 L305.0,420.0 L305.8,420.0 L306.7,420.0 L307.5,420.0 L308.4,420.0 L309.2,420.0 L310.1,420.0 L310.9,420.0 L311.7,420.0 L312.6,420.0 L313.4,420.0 L314.3,420.0 L315.1,420.0 L316.0,420.0 L316.8,420.0 L317.6,420.0 L318.5,420.0 L319.3,420.0 L320.2,420.0 L321.0,420.0 L321.9,420.0 L322.7,420.0 L323.5,420.0 L324.4,420.0 L325.2,420.0 L326.1,420.0 L326.9,420.0 L327.8,420.0 L328.6,420.0 L329.4,420.0 L330.3,420.0 L331.1,420.0 L332.0,420.0 L332.8,420.0 L333.7,420.0 L334.5,420.0 L335.3,420.0 L336.2,420.0 L337.0,420.0 L337.9,420.0 L338.7,420.0 L339.6,420.0 L340.4,420.0 L341.2,420.0 L342.1,420.0 L342.9,420.0 L343.8,420.0 L344.6,420.0 L345.4,420.0 L346.3,420.0 L347.1,420.0 L348.0,420.0 L348.8,420.0 L349.7,420.0 L350.5,420.0 L351.3,420.0 L352.2,420.0 L353.0,420.0 L353.9,420.0 L354.7,420.0 L355.6,420.0 L356.4,420.0 L357.2,420.0 L358.1,420.0 L358.9,420.0 L359.8,420.0 L360.6,420.0 L361.5,420.0 L362.3,420.0 L363.1,420.0 L364.0,420.0 L364.8,420.0 L365.7,420.0 L366.5,420.0 L367.4,420.0 L368.2,420.0 L369.0,420.0 L369.9,420.0 L370.7,420.0 L371.6,420.0 L372.4,420.0 L373.3,420.0 L374.1,420.0 L374.9,420.0 L375.8,420.0 L376.6,420.0 L377.5,420.0 L378.3,420.0 L379.2,420.0 L380.0,420.0 L380.8,420.0 L381.7,420.0 L382.5,420.0 L383.4,420.0 L384.2,420.0 L385.1,420.0 L385.9,420.0 L386.7,420.0 L387.6,420.0 L388.4,420.0 L389.3,420.0 L390.1,420.0 L391.0,420.0 L391.8,420.0 L392.6,420.0 L393.5,420.0 L394.3,420.0 L395.2,420.0 L396.0,420.0 L396.9,420.0 L397.7,420.0 L398.5,420.0 L399.4,420.0 L400.2,420.0 L401.1,420.0 L401.9,420.0 L402.8,420.0 L403.6,420.0 L404.4,420.0 L405.3,420.0 L406.1,420.0 L407.0,420.0 L407.8,420.0 L408.7,420.0 L409.5,420.0 L410.3,420.0 L411.2,420.0 L412.0,420.0 L412.9,420.0 L413.7,420.0 L414.6,420.0 L415.4,420.0 L416.2,420.0 L417.1,420.0 L417.9,420.0 L418.8,420.0 L419.6,420.0 L420.4,420.0 L421.3,420.0 L422.1,420.0 L423.0,420.0 L423.8,420.0 L424.7,420.0 L425.5,420.0 L426.3,420.0 L427.2,420.0 L428.0,420.0 L428.9,420.0 L429.7,420.0 L430.6,420.0 L431.4,420.0 L432.2,420.0 L433.1,420.0 L433.9,420.0 L434.8,420.0 L435.6,420.0 L436.5,420.0 L437.3,420.0 L438.1,420.0 L439.0,420.0 L439.8,420.0 L440.7,420.0 L441.5,420.0 L442.4,420.0 L443.2,420.0 L444.0,420.0 L444.9,420.0 L445.7,420.0 L446.6,420.0 L447.4,420.0 L448.3,420.0 L449.1,420.0 L449.9,420.0 L450.8,420.0 L451.6,420.0 L452.5,420.0 L453.3,420.0 L454.2,420.0 L455.0,420.0 L455.8,420.0 L456.7,420.0 L457.5,420.0 L458.4,420.0 L459.2,420.0 L460.1,420.0 L460.9,420.0 L461.7,420.0 L462.6,420.0 L463.4,420.0 L464.3,420.0 L465.1,420.0 L466.0,420.0 L466.8,420.0 L467.6,420.0 L468.5,420.0 L469.3,420.0 L470.2,420.0 L471.0,420.0 L471.9,420.0 L472.7,420.0 L473.5,420.0 L474.4,420.0 L475.2,420.0 L476.1,420.0 L476.9,420.0 L477.8,420.0 L478.6,420.0 L479.4,420.0 L480.3,420.0 L481.1,420.0 L482.0,420.0 L482.8,420.0 L483.7,420.0 L484.5,420.0 L485.3,420.0 L486.2,420.0 L487.0,420.0 L487.9,420.0 L488.7,420.0 L489.6,420.0 L490.4,420.0 L491.2,420.0 L492.1,420.0 L492.9,420.0 L493.8,420.0 L494.6,420.0 L495.4,420.0 L496.3,420.0 L497.1,420.0 L498.0,420.0 L498.8,420.0 L499.7,420.0 L500.5,420.0 L501.3,420.0 L502.2,420.0 L503.0,420.0 L503.9,420.0 L504.7,420.0 L505.6,420.0 L506.4,420.0 L507.2,420.0 L508.1,420.0 L508.9,420.0 L509.8,420.0 L510.6,420.0 L511.5,420.0 L512.3,420.0 L513.1,420.0 L514.0,420.0 L514.8,420.0 L515.7,420.0 L516.5,420.0 L517.4,420.0 L518.2,420.0 L519.0,420.0 L519.9,420.0 L520.7,420.0 L521.6,420.0 L522.4,420.0 L523.3,420.0 L524.1,420.0 L524.9,420.0 L525.8,420.0 L526.6,420.0 L527.5,420.0 L528.3,420.0 L529.2,420.0 L530.0,420.0 L530.8,420.0 L531.7,420.0 L532.5,420.0 L533.4,420.0 L534.2,420.0 L535.1,420.0 L535.9,420.0 L536.7,420.0 L537.6,420.0 L538.4,420.0 L539.3,420.0 L540.1,420.0 L541.0,420.0 L541.8,420.0 L542.6,420.0 L543.5,420.0 L544.3,420.0 L545.2,420.0 L546.0,420.0 L546.9,420.0 L547.7,420.0 L548.5,420.0 L549.4,420.0 L550.2,420.0 L551.1,420.0 L551.9,420.0 L552.8,420.0 L553.6,420.0 L554.4,420.0 L555.3,420.0 L556.1,420.0 L557.0,420.0 L557.8,420.0 L558.7,420.0 L559.5,420.0 L560.3,420.0 L561.2,420.0 L562.0,420.0 L562.9,420.0 L563.7,420.0 L564.6,420.0 L565.4,420.0 L566.2,420.0 L567.1,420.0 L567.9,420.0 L568.8,420.0 L569.6,420.0 L570.4,420.0 L571.3,420.0 L572.1,420.0 L573.0,420.0 L573.8,420.0 L574.7,420.0 L575.5,420.0 L576.3,420.0 L577.2,420.0 L578.0,420.0 L578.9,420.0 L579.7,420.0 L580.6,420.0 L581.4,420.0 L582.2,420.0 L583.1,420.0 L583.9,420.0 L584.8,420.0 L585.6,420.0 L586.5,420.0 L587.3,420.0 L588.1,420.0 L589.0,420.0 L589.8,420.0 L590.7,420.0 L591.5,420.0 L592.4,420.0 L593.2,420.0 L594.0,420.0 L594.9,420.0 L595.7,420.0 L596.6,420.0 L597.4,420.0 L598.3,420.0 L599.1,420.0 L599.9,420.0 L600.8,420.0 L601.6,420.0 L602.5,420.0 L603.3,420.0 L604.2,420.0 L605.0,420.0 L605.8,420.0 L606.7,420.0 L607.5,420.0 L608.4,420.0 L609.2,420.0 L610.1,420.0 L610.9,420.0 L611.7,420.0 L612.6,420.0 L613.4,420.0 L614.3,420.0 L615.1,420.0 L616.0,420.0 L616.8,420.0 L617.6,420.0 L618.5,420.0 L619.3,420.0 L620.2,420.0 L621.0,420.0 L621.9,420.0 L622.7,420.0 L623.5,420.0 L624.4,420.0 L625.2,420.0 L626.1,420.0 L626.9,420.0 L627.8,420.0 L628.6,420.0 L629.4,420.0 L630.3,420.0 L631.1,420.0 L632.0,420.0 L632.8,420.0 L633.7,420.0 L634.5,420.0 L635.3,420.0 L636.2,420.0 L637.0,420.0 L637.9,420.0 L638.7,420.0 L639.6,420.0 L640.4,420.0 L641.2,420.0 L642.1,420.0 L642.9,420.0 L643.8,420.0 L644.6,420.0 L645.4,420.0 L646.3,420.0 L647.1,420.0 L648.0,420.0 L648.8,420.0 L649.7,420.0 L650.5,420.0 L651.3,420.0 L652.2,420.0 L653.0,420.0 L653.9,420.0 L654.7,420.0 L655.6,420.0 L656.4,420.0 L657.2,420.0 L658.1,420.0 L658.9,420.0 L659.8,420.0 L660.6,420.0 L661.5,420.0 L662.3,420.0 L663.1,420.0 L664.0,420.0 L664.8,420.0 L665.7,420.0 L666.5,420.0 L667.4,420.0 L668.2,420.0 L669.0,420.0 L669.9,420.0 L670.7,420.0 L671.6,420.0 L672.4,420.0 L673.3,420.0 L674.1,420.0 L674.9,420.0 L675.8,420.0 L676.6,420.0 L677.5,420.0 L678.3,420.0 L679.2,420.0 L680.0,420.0" stroke="#e377c2" stroke-width="2" fill="none" opacity="0.8"/>

<!-- Legend -->
<line x1="690" y1="70" x2="705" y2="70" stroke="#1f77b4" stroke-width="3"/>
<text x="710" y="74" class="legend">Wind Generation</text>
<line x1="690" y1="88" x2="705" y2="88" stroke="#ff7f0e" stroke-width="3"/>
<text x="710" y="92" class="legend">Hydro Generation</text>
<line x1="690" y1="106" x2="705" y2="106" stroke="#2ca02c" stroke-width="3"/>
<text x="710" y="110" class="legend">Thermal Generation</text>
<line x1="690" y1="124" x2="705" y2="124" stroke="#d62728" stroke-width="3"/>
<text x="710" y="128" class="legend">Solar Generation</text>
<line x1="690" y1="142" x2="705" y2="142" stroke="#9467bd" stroke-width="3"/>
<text x="710" y="146" class="legend">Forecast</text>
<line x1="690" y1="160" x2="705" y2="160" stroke="#8c564b" stroke-width="3"/>
<text x="710" y="164" class="legend">Total Generation</text>
<line x1="690" y1="178" x2="705" y2="178" stroke="#e377c2" stroke-width="3"/>
<text x="710" y="182" class="legend">Forecast Difference</text>

<!-- Date range -->
<text x="80" y="495" class="legend">Range: 11/21 - 12/20/2025 (713 records)</text>
</svg>