<?xml version="1.0" encoding="UTF-8"?>
<svg width="800" height="500" xmlns="http://www.w3.org/2000/svg">
<style>
.axis-line { stroke: #333; stroke-width: 1; }
.grid-line { stroke: #ddd; stroke-width: 0.5; }
.title { font: 16px Arial; text-anchor: middle; fill: #333; }
.axis-label { font: 12px Arial; text-anchor: middle; fill: #666; }
.legend { font: 10px Arial; fill: #333; }
</style>

<!-- Title -->
<text x="400.0" y="25" class="title">Northwestern Energy Generation Data - Past 30 Days</text>

<!-- Plot area background -->
<rect x="80" y="50" width="600" height="370" fill="white" stroke="#ddd"/>

<!-- Y-axis -->
<line x1="80" y1="50" x2="80" y2="420" class="axis-line"/>
<text x="30" y="235.0" class="axis-label" transform="rotate(-90, 30, 235.0)">Generation (MW)</text>

<!-- X-axis -->
<line x1="80" y1="420" x2="680" y2="420" class="axis-line"/>
<text x="380.0" y="480" class="axis-label">Time</text>
<line x1="80" y1="420.0" x2="680" y2="420.0" class="grid-line"/>
<text x="70" y="425.0" class="legend" text-anchor="end">0</text>
<line x1="80" y1="327.5" x2="680" y2="327.5" class="grid-line"/>
<text x="70" y="332.5" class="legend" text-anchor="end">313</text>
<line x1="80" y1="235.0" x2="680" y2="235.0" class="grid-line"/>
<text x="70" y="240.0" class="legend" text-anchor="end">625</text>
<line x1="80" y1="142.5" x2="680" y2="142.5" class="grid-line"/>
<text x="70" y="147.5" class="legend" text-anchor="end">938</text>
<line x1="80" y1="50.0" x2="680" y2="50.0" class="grid-line"/>
<text x="70" y="55.0" class="legend" text-anchor="end">1251</text>
<!-- Wind Generation -->
<path d="M80.0,384.5 L80.8,380.6 L81.7,380.6 L82.5,379.8 L83.4,372.4 L84.2,373.5 L85.1,357.6 L85.9,354.6 L86.7,366.2 L87.6,371.8 L88.4,350.8 L89.3,313.2 L90.1,319.4 L91.0,290.7 L91.8,289.5 L92.6,289.5 L93.5,289.8 L94.3,299.3 L95.2,296.3 L96.0,294.6 L96.9,300.5 L97.7,291.3 L98.5,299.0 L99.4,315.0 L100.2,319.4 L101.1,316.7 L101.9,328.6 L102.8,346.9 L103.6,347.2 L104.4,362.0 L105.3,367.9 L106.1,394.9 L107.0,401.4 L107.8,391.3 L108.7,395.7 L109.5,398.7 L110.3,404.0 L111.2,405.8 L112.0,398.7 L112.9,400.2 L113.7,396.9 L114.6,389.5 L115.4,385.7 L116.2,396.0 L117.1,405.8 L117.9,417.0 L118.8,417.6 L119.6,415.6 L120.4,415.6 L121.3,410.2 L122.1,410.5 L123.0,408.5 L123.8,408.2 L124.7,407.6 L125.5,407.9 L126.3,407.9 L127.2,414.7 L128.0,418.2 L128.9,416.7 L129.7,415.6 L130.6,408.2 L131.4,400.5 L132.2,397.2 L133.1,398.7 L133.9,391.6 L134.8,382.7 L135.6,399.6 L136.5,394.3 L137.3,388.3 L138.1,384.5 L139.0,368.5 L139.8,367.3 L140.7,339.8 L141.5,335.1 L142.4,334.5 L143.2,310.2 L144.0,312.0 L144.9,324.7 L145.7,318.2 L146.6,315.3 L147.4,314.7 L148.3,313.2 L149.1,313.2 L149.9,323.8 L150.8,325.3 L151.6,321.5 L152.5,338.3 L153.3,352.5 L154.2,360.2 L155.0,345.7 L155.8,359.9 L156.7,331.5 L157.5,323.0 L158.4,310.2 L159.2,302.8 L160.1,315.9 L160.9,300.5 L161.7,303.4 L162.6,307.0 L163.4,306.7 L164.3,311.1 L165.1,328.3 L166.0,321.2 L166.8,324.4 L167.6,323.5 L168.5,305.8 L169.3,304.3 L170.2,298.1 L171.0,298.1 L171.9,298.4 L172.7,303.7 L173.5,304.0 L174.4,300.5 L175.2,310.2 L176.1,314.7 L176.9,329.5 L177.8,326.8 L178.6,347.5 L179.4,352.5 L180.3,372.1 L181.1,377.1 L182.0,386.6 L182.8,412.0 L183.7,408.8 L184.5,411.4 L185.3,413.5 L186.2,409.9 L187.0,403.4 L187.9,401.1 L188.7,401.1 L189.6,404.3 L190.4,412.0 L191.2,415.9 L192.1,414.1 L192.9,411.4 L193.8,415.0 L194.6,414.7 L195.4,411.4 L196.3,409.9 L197.1,417.6 L198.0,413.8 L198.8,418.5 L199.7,417.9 L200.5,415.6 L201.3,412.0 L202.2,412.9 L203.0,400.8 L203.9,392.8 L204.7,357.6 L205.6,352.8 L206.4,336.6 L207.2,348.4 L208.1,358.5 L208.9,341.9 L209.8,337.5 L210.6,349.9 L211.5,352.2 L212.3,365.3 L213.1,361.7 L214.0,352.5 L214.8,390.1 L215.7,397.2 L216.5,406.7 L217.4,411.7 L218.2,411.7 L219.0,410.2 L219.9,410.8 L220.7,415.0 L221.6,416.2 L222.4,413.2 L223.3,412.0 L224.1,410.2 L224.9,411.4 L225.8,412.9 L226.6,416.7 L227.5,416.7 L228.3,416.4 L229.2,416.2 L230.0,412.9 L230.8,412.0 L231.7,414.1 L232.5,409.3 L233.4,413.5 L234.2,412.3 L235.1,408.8 L235.9,410.2 L236.7,391.3 L237.6,369.4 L238.4,344.6 L239.3,340.4 L240.1,298.4 L241.0,308.5 L241.8,324.1 L242.6,304.6 L243.5,333.3 L244.3,331.8 L245.2,333.9 L246.0,309.0 L246.9,307.6 L247.7,330.6 L248.5,301.4 L249.4,293.4 L250.2,291.6 L251.1,294.8 L251.9,296.6 L252.8,295.7 L253.6,293.7 L254.4,294.8 L255.3,294.6 L256.1,299.9 L257.0,293.1 L257.8,296.9 L258.7,300.2 L259.5,297.5 L260.3,299.3 L261.2,322.1 L262.0,331.5 L262.9,330.9 L263.7,314.7 L264.6,343.7 L265.4,342.8 L266.2,355.5 L267.1,350.2 L267.9,345.4 L268.8,323.5 L269.6,299.0 L270.4,299.6 L271.3,299.3 L272.1,299.3 L273.0,300.8 L273.8,300.2 L274.7,300.2 L275.5,298.7 L276.3,299.9 L277.2,299.6 L278.0,297.8 L278.9,304.3 L279.7,297.8 L280.6,297.2 L281.4,296.9 L282.2,299.0 L283.1,302.2 L283.9,302.5 L284.8,302.2 L285.6,309.9 L286.5,318.2 L287.3,320.0 L288.1,332.7 L289.0,320.6 L289.8,341.0 L290.7,351.9 L291.5,364.1 L292.4,373.5 L293.2,378.6 L294.0,380.1 L294.9,391.0 L295.7,404.6 L296.6,414.1 L297.4,417.0 L298.3,418.5 L299.1,416.4 L299.9,418.2 L300.8,417.9 L301.6,417.6 L302.5,416.4 L303.3,416.2 L304.2,408.2 L305.0,404.6 L305.8,400.5 L306.7,390.1 L307.5,391.6 L308.4,391.9 L309.2,403.7 L310.1,397.5 L310.9,397.2 L311.7,391.6 L312.6,383.9 L313.4,377.7 L314.3,385.1 L315.1,390.1 L316.0,388.6 L316.8,363.8 L317.6,350.2 L318.5,336.0 L319.3,315.9 L320.2,317.6 L321.0,310.5 L321.9,304.6 L322.7,301.9 L323.5,302.2 L324.4,308.5 L325.2,318.5 L326.1,312.9 L326.9,317.6 L327.8,306.7 L328.6,307.3 L329.4,323.8 L330.3,324.1 L331.1,301.9 L332.0,311.4 L332.8,318.5 L333.7,330.1 L334.5,341.9 L335.3,342.2 L336.2,340.4 L337.0,324.7 L337.9,331.5 L338.7,310.2 L339.6,304.0 L340.4,310.8 L341.2,302.8 L342.1,308.5 L342.9,303.1 L343.8,299.3 L344.6,303.7 L345.4,302.2 L346.3,314.7 L347.1,304.0 L348.0,307.9 L348.8,300.2 L349.7,299.9 L350.5,299.0 L351.3,298.7 L352.2,298.1 L353.0,300.2 L353.9,299.9 L354.7,307.6 L355.6,326.5 L356.4,327.4 L357.2,341.9 L358.1,374.7 L358.9,379.8 L359.8,389.2 L360.6,392.8 L361.5,400.2 L362.3,411.7 L363.1,412.0 L364.0,414.7 L364.8,412.9 L365.7,415.3 L366.5,411.1 L367.4,408.5 L368.2,407.0 L369.0,397.5 L369.9,391.6 L370.7,383.0 L371.6,367.6 L372.4,351.9 L373.3,349.6 L374.1,362.6 L374.9,395.4 L375.8,411.1 L376.6,414.4 L377.5,417.9 L378.3,417.9 L379.2,409.6 L380.0,409.3 L380.8,399.6 L381.7,350.2 L382.5,346.6 L383.4,341.6 L384.2,340.4 L385.1,340.1 L385.9,328.3 L386.7,357.6 L387.6,385.4 L388.4,366.7 L389.3,373.8 L390.1,372.4 L391.0,378.3 L391.8,371.8 L392.6,369.7 L393.5,370.3 L394.3,351.9 L395.2,359.3 L396.0,351.1 L396.9,349.0 L397.7,337.5 L398.5,357.0 L399.4,354.6 L400.2,365.3 L401.1,358.2 L401.9,368.5 L402.8,339.5 L403.6,350.2 L404.4,328.0 L405.3,329.8 L406.1,335.4 L407.0,321.2 L407.8,318.5 L408.7,316.1 L409.5,360.2 L410.3,344.6 L411.2,348.7 L412.0,353.4 L412.9,360.2 L413.7,365.3 L414.6,366.2 L415.4,343.7 L416.2,356.4 L417.1,350.8 L417.9,333.3 L418.8,324.7 L419.6,334.8 L420.4,330.4 L421.3,312.0 L422.1,311.1 L423.0,311.7 L423.8,314.1 L424.7,319.1 L425.5,320.6 L426.3,352.5 L427.2,358.8 L428.0,335.7 L428.9,346.6 L429.7,337.7 L430.6,334.5 L431.4,309.9 L432.2,300.8 L433.1,301.1 L433.9,299.6 L434.8,301.7 L435.6,301.7 L436.5,325.3 L437.3,362.9 L438.1,385.4 L439.0,398.7 L439.8,410.2 L440.7,404.0 L441.5,407.3 L442.4,413.5 L443.2,415.6 L444.0,416.4 L444.9,417.6 L445.7,415.0 L446.6,412.9 L447.4,411.1 L448.3,407.9 L449.1,410.2 L449.9,415.0 L450.8,418.2 L451.6,416.2 L452.5,419.1 L453.3,418.2 L454.2,418.5 L455.0,415.0 L455.8,415.6 L456.7,415.3 L457.5,409.3 L458.4,412.3 L459.2,415.6 L460.1,415.0 L460.9,417.3 L461.7,416.7 L462.6,417.3 L463.4,417.9 L464.3,418.8 L465.1,415.6 L466.0,414.1 L466.8,414.1 L467.6,410.8 L468.5,408.2 L469.3,407.3 L470.2,406.7 L471.0,406.4 L471.9,403.1 L472.7,400.2 L473.5,390.1 L474.4,385.4 L475.2,372.4 L476.1,372.4 L476.9,373.8 L477.8,386.3 L478.6,393.4 L479.4,392.2 L480.3,388.6 L481.1,388.6 L482.0,376.5 L482.8,367.3 L483.7,387.2 L484.5,371.5 L485.3,383.6 L486.2,386.6 L487.0,399.3 L487.9,395.1 L488.7,393.1 L489.6,389.5 L490.4,407.3 L491.2,404.9 L492.1,392.2 L492.9,387.5 L493.8,379.2 L494.6,378.3 L495.4,375.6 L496.3,380.9 L497.1,383.9 L498.0,397.2 L498.8,403.4 L499.7,403.7 L500.5,388.3 L501.3,385.1 L502.2,382.1 L503.0,387.5 L503.9,381.5 L504.7,386.3 L505.6,377.4 L506.4,358.5 L507.2,348.7 L508.1,352.5 L508.9,341.6 L509.8,351.4 L510.6,348.7 L511.5,348.7 L512.3,352.2 L513.1,359.6 L514.0,373.5 L514.8,383.9 L515.7,391.6 L516.5,399.9 L517.4,400.2 L518.2,394.0 L519.0,408.2 L519.9,407.9 L520.7,404.0 L521.6,408.5 L522.4,411.1 L523.3,414.4 L524.1,416.7 L524.9,415.9 L525.8,414.7 L526.6,418.5 L527.5,419.1 L528.3,417.6 L529.2,415.9 L530.0,415.3 L530.8,415.3 L531.7,417.0 L532.5,415.0 L533.4,413.8 L534.2,409.9 L535.1,408.8 L535.9,407.3 L536.7,403.1 L537.6,394.6 L538.4,405.2 L539.3,400.5 L540.1,398.4 L541.0,396.6 L541.8,382.7 L542.6,368.5 L543.5,342.8 L544.3,312.0 L545.2,304.6 L546.0,301.9 L546.9,297.2 L547.7,299.0 L548.5,303.7 L549.4,300.5 L550.2,293.4 L551.1,295.1 L551.9,292.5 L552.8,289.5 L553.6,290.4 L554.4,290.4 L555.3,291.3 L556.1,290.7 L557.0,294.8 L557.8,296.3 L558.7,298.1 L559.5,302.5 L560.3,305.5 L561.2,307.6 L562.0,297.2 L562.9,296.3 L563.7,310.2 L564.6,312.6 L565.4,318.8 L566.2,328.6 L567.1,323.5 L567.9,322.4 L568.8,338.6 L569.6,319.7 L570.4,309.0 L571.3,313.5 L572.1,309.0 L573.0,297.8 L573.8,300.5 L574.7,301.7 L575.5,322.4 L576.3,333.0 L577.2,339.8 L578.0,309.6 L578.9,332.4 L579.7,350.2 L580.6,324.7 L581.4,309.9 L582.2,303.1 L583.1,308.5 L583.9,327.1 L584.8,307.6 L585.6,340.4 L586.5,328.0 L587.3,320.9 L588.1,327.1 L589.0,319.1 L589.8,314.1 L590.7,300.5 L591.5,300.8 L592.4,316.7 L593.2,328.0 L594.0,332.7 L594.9,340.7 L595.7,337.5 L596.6,343.7 L597.4,326.5 L598.3,349.0 L599.1,352.8 L599.9,362.6 L600.8,379.2 L601.6,386.6 L602.5,391.6 L603.3,395.7 L604.2,402.8 L605.0,410.5 L605.8,413.8 L606.7,405.8 L607.5,387.2 L608.4,407.9 L609.2,414.7 L610.1,415.0 L610.9,405.8 L611.7,387.2 L612.6,379.5 L613.4,386.6 L614.3,354.0 L615.1,329.5 L616.0,301.7 L616.8,301.4 L617.6,294.6 L618.5,294.6 L619.3,302.8 L620.2,301.4 L621.0,307.9 L621.9,317.9 L622.7,321.8 L623.5,330.1 L624.4,361.7 L625.2,378.3 L626.1,377.4 L626.9,390.4 L627.8,397.2 L628.6,405.2 L629.4,411.1 L630.3,410.8 L631.1,407.9 L632.0,409.1 L632.8,405.5 L633.7,397.2 L634.5,399.0 L635.3,383.9 L636.2,386.9 L637.0,375.6 L637.9,380.6 L638.7,370.0 L639.6,407.3 L640.4,415.0 L641.2,416.4 L642.1,414.4 L642.9,414.1 L643.8,406.4 L644.6,397.5 L645.4,391.6 L646.3,362.6 L647.1,364.4 L648.0,359.9 L648.8,364.4 L649.7,353.7 L650.5,346.0 L651.3,341.9 L652.2,343.7 L653.0,359.6 L653.9,344.3 L654.7,335.7 L655.6,317.3 L656.4,321.2 L657.2,349.9 L658.1,375.9 L658.9,384.5 L659.8,399.3 L660.6,400.8 L661.5,397.5 L662.3,384.8 L663.1,400.2 L664.0,399.6 L664.8,404.6 L665.7,411.1 L666.5,418.5 L667.4,418.5 L668.2,415.6 L669.0,418.2 L669.9,418.5 L670.7,418.2 L671.6,413.8 L672.4,408.8 L673.3,404.9 L674.1,407.0 L674.9,401.4 L675.8,400.5 L676.6,396.0 L677.5,390.7 L678.3,387.5 L679.2,390.4 L680.0,397.5" stroke="#1f77b4" stroke-width="2" fill="none" opacity="0.8"/>
<!-- Hydro Generation -->
<path d="M80.0,370.3 L80.8,370.0 L81.7,369.4 L82.5,368.2 L83.4,368.8 L84.2,368.5 L85.1,369.1 L85.9,368.8 L86.7,368.5 L87.6,368.8 L88.4,368.5 L89.3,368.2 L90.1,368.2 L91.0,368.5 L91.8,368.5 L92.6,368.2 L93.5,367.9 L94.3,367.6 L95.2,368.8 L96.0,368.8 L96.9,368.8 L97.7,369.7 L98.5,369.7 L99.4,370.0 L100.2,370.3 L101.1,370.0 L101.9,369.4 L102.8,370.3 L103.6,369.7 L104.4,369.7 L105.3,369.7 L106.1,369.7 L107.0,370.0 L107.8,370.0 L108.7,368.8 L109.5,368.5 L110.3,368.8 L111.2,368.8 L112.0,361.7 L112.9,361.1 L113.7,362.3 L114.6,362.3 L115.4,362.3 L116.2,362.6 L117.1,362.3 L117.9,362.0 L118.8,362.0 L119.6,361.4 L120.4,361.4 L121.3,361.4 L122.1,361.7 L123.0,361.7 L123.8,361.4 L124.7,362.0 L125.5,361.4 L126.3,362.6 L127.2,362.3 L128.0,362.3 L128.9,361.7 L129.7,362.0 L130.6,362.6 L131.4,362.3 L132.2,362.0 L133.1,361.1 L133.9,361.4 L134.8,361.7 L135.6,362.0 L136.5,361.7 L137.3,361.7 L138.1,361.4 L139.0,362.3 L139.8,362.3 L140.7,361.4 L141.5,362.0 L142.4,361.4 L143.2,362.0 L144.0,361.7 L144.9,361.4 L145.7,361.4 L146.6,361.7 L147.4,362.0 L148.3,361.4 L149.1,361.1 L149.9,360.5 L150.8,360.5 L151.6,361.1 L152.5,360.8 L153.3,360.5 L154.2,360.8 L155.0,361.1 L155.8,361.7 L156.7,361.7 L157.5,361.4 L158.4,361.1 L159.2,361.4 L160.1,362.0 L160.9,362.3 L161.7,361.7 L162.6,362.0 L163.4,362.0 L164.3,361.4 L165.1,361.7 L166.0,362.0 L166.8,361.7 L167.6,361.4 L168.5,361.1 L169.3,361.1 L170.2,362.0 L171.0,361.7 L171.9,361.1 L172.7,360.8 L173.5,361.4 L174.4,361.4 L175.2,361.7 L176.1,361.7 L176.9,362.0 L177.8,362.0 L178.6,361.7 L179.4,362.0 L180.3,361.7 L181.1,362.0 L182.0,362.0 L182.8,362.0 L183.7,362.0 L184.5,362.0 L185.3,361.7 L186.2,362.0 L187.0,362.3 L187.9,362.3 L188.7,361.7 L189.6,362.6 L190.4,362.3 L191.2,362.0 L192.1,362.3 L192.9,362.6 L193.8,362.6 L194.6,362.6 L195.4,362.6 L196.3,362.3 L197.1,362.9 L198.0,362.0 L198.8,362.6 L199.7,362.6 L200.5,362.6 L201.3,362.0 L202.2,361.7 L203.0,362.3 L203.9,361.7 L204.7,361.7 L205.6,361.7 L206.4,362.0 L207.2,362.0 L208.1,362.0 L208.9,361.7 L209.8,362.0 L210.6,361.7 L211.5,362.3 L212.3,362.6 L213.1,362.0 L214.0,361.4 L214.8,362.0 L215.7,361.4 L216.5,361.4 L217.4,362.0 L218.2,362.3 L219.0,362.0 L219.9,361.7 L220.7,362.0 L221.6,361.7 L222.4,361.7 L223.3,361.4 L224.1,361.7 L224.9,361.4 L225.8,362.0 L226.6,361.7 L227.5,362.0 L228.3,361.4 L229.2,361.1 L230.0,361.4 L230.8,360.8 L231.7,360.8 L232.5,361.1 L233.4,361.4 L234.2,361.7 L235.1,362.0 L235.9,362.0 L236.7,362.3 L237.6,360.5 L238.4,361.1 L239.3,361.4 L240.1,361.1 L241.0,360.5 L241.8,360.8 L242.6,361.1 L243.5,360.8 L244.3,360.5 L245.2,360.5 L246.0,360.5 L246.9,361.1 L247.7,360.8 L248.5,354.6 L249.4,360.5 L250.2,360.2 L251.1,361.1 L251.9,361.4 L252.8,361.4 L253.6,361.7 L254.4,361.1 L255.3,360.8 L256.1,360.8 L257.0,360.5 L257.8,359.9 L258.7,360.5 L259.5,361.1 L260.3,361.1 L261.2,360.8 L262.0,361.4 L262.9,361.4 L263.7,361.1 L264.6,361.4 L265.4,361.1 L266.2,361.4 L267.1,361.4 L267.9,360.5 L268.8,359.9 L269.6,359.9 L270.4,359.9 L271.3,360.8 L272.1,360.2 L273.0,359.6 L273.8,359.6 L274.7,359.1 L275.5,359.6 L276.3,359.3 L277.2,359.3 L278.0,359.3 L278.9,359.9 L279.7,360.2 L280.6,361.1 L281.4,361.4 L282.2,360.8 L283.1,361.1 L283.9,361.1 L284.8,361.1 L285.6,360.8 L286.5,360.8 L287.3,359.9 L288.1,360.5 L289.0,359.9 L289.8,359.6 L290.7,359.9 L291.5,360.2 L292.4,360.5 L293.2,361.1 L294.0,360.8 L294.9,360.5 L295.7,360.5 L296.6,361.1 L297.4,361.1 L298.3,361.1 L299.1,361.4 L299.9,361.4 L300.8,360.8 L301.6,360.8 L302.5,361.1 L303.3,361.4 L304.2,362.0 L305.0,362.0 L305.8,361.4 L306.7,361.4 L307.5,362.0 L308.4,362.0 L309.2,361.1 L310.1,361.4 L310.9,361.4 L311.7,361.1 L312.6,361.4 L313.4,361.4 L314.3,360.5 L315.1,360.8 L316.0,360.5 L316.8,361.1 L317.6,360.5 L318.5,360.2 L319.3,360.5 L320.2,361.1 L321.0,360.8 L321.9,360.5 L322.7,360.8 L323.5,360.8 L324.4,360.5 L325.2,360.5 L326.1,360.5 L326.9,360.5 L327.8,360.8 L328.6,361.1 L329.4,361.4 L330.3,361.4 L331.1,361.1 L332.0,360.8 L332.8,360.8 L333.7,360.8 L334.5,361.1 L335.3,360.8 L336.2,360.5 L337.0,360.2 L337.9,360.2 L338.7,359.6 L339.6,359.3 L340.4,359.6 L341.2,359.6 L342.1,359.3 L342.9,359.3 L343.8,358.8 L344.6,358.8 L345.4,358.8 L346.3,358.8 L347.1,358.5 L348.0,359.3 L348.8,358.5 L349.7,358.5 L350.5,357.6 L351.3,357.9 L352.2,357.6 L353.0,357.9 L353.9,357.6 L354.7,357.6 L355.6,358.5 L356.4,358.5 L357.2,358.8 L358.1,359.3 L358.9,359.6 L359.8,359.9 L360.6,359.6 L361.5,359.6 L362.3,359.6 L363.1,360.8 L364.0,360.8 L364.8,360.8 L365.7,359.6 L366.5,359.6 L367.4,359.9 L368.2,359.6 L369.0,359.9 L369.9,360.8 L370.7,359.9 L371.6,359.9 L372.4,359.6 L373.3,359.1 L374.1,359.1 L374.9,359.1 L375.8,359.6 L376.6,359.3 L377.5,359.3 L378.3,359.3 L379.2,359.1 L380.0,359.3 L380.8,359.3 L381.7,359.3 L382.5,359.3 L383.4,359.6 L384.2,359.3 L385.1,359.3 L385.9,359.1 L386.7,359.3 L387.6,359.3 L388.4,359.6 L389.3,359.1 L390.1,359.6 L391.0,359.1 L391.8,358.8 L392.6,357.3 L393.5,356.7 L394.3,358.5 L395.2,359.1 L396.0,359.3 L396.9,358.8 L397.7,359.1 L398.5,359.6 L399.4,359.6 L400.2,359.9 L401.1,359.6 L401.9,359.6 L402.8,359.6 L403.6,359.9 L404.4,359.6 L405.3,359.6 L406.1,360.2 L407.0,359.9 L407.8,359.3 L408.7,358.8 L409.5,359.1 L410.3,359.1 L411.2,359.1 L412.0,359.1 L412.9,359.1 L413.7,359.3 L414.6,359.3 L415.4,358.5 L416.2,358.5 L417.1,358.5 L417.9,359.1 L418.8,359.3 L419.6,359.3 L420.4,359.6 L421.3,359.6 L422.1,359.6 L423.0,359.6 L423.8,359.3 L424.7,359.3 L425.5,358.8 L426.3,357.9 L427.2,357.9 L428.0,357.9 L428.9,358.2 L429.7,357.9 L430.6,357.6 L431.4,357.6 L432.2,357.9 L433.1,358.5 L433.9,358.8 L434.8,358.2 L435.6,357.9 L436.5,358.2 L437.3,357.9 L438.1,358.5 L439.0,358.2 L439.8,358.2 L440.7,358.5 L441.5,358.2 L442.4,358.8 L443.2,358.8 L444.0,358.5 L444.9,358.8 L445.7,358.8 L446.6,359.3 L447.4,359.3 L448.3,359.3 L449.1,359.1 L449.9,359.1 L450.8,359.1 L451.6,359.1 L452.5,358.5 L453.3,358.5 L454.2,358.5 L455.0,358.5 L455.8,358.2 L456.7,357.6 L457.5,358.8 L458.4,359.1 L459.2,359.1 L460.1,359.1 L460.9,358.5 L461.7,358.5 L462.6,358.2 L463.4,358.5 L464.3,357.6 L465.1,357.6 L466.0,357.6 L466.8,357.6 L467.6,357.6 L468.5,357.3 L469.3,357.3 L470.2,356.7 L471.0,357.3 L471.9,356.7 L472.7,357.3 L473.5,357.0 L474.4,357.3 L475.2,357.6 L476.1,358.2 L476.9,357.9 L477.8,357.6 L478.6,357.9 L479.4,357.9 L480.3,357.0 L481.1,357.0 L482.0,357.3 L482.8,357.3 L483.7,357.3 L484.5,357.6 L485.3,357.0 L486.2,356.4 L487.0,357.0 L487.9,355.5 L488.7,356.1 L489.6,355.2 L490.4,354.9 L491.2,355.5 L492.1,355.8 L492.9,355.5 L493.8,354.6 L494.6,354.9 L495.4,355.2 L496.3,354.9 L497.1,354.3 L498.0,354.9 L498.8,354.6 L499.7,354.6 L500.5,353.4 L501.3,354.0 L502.2,354.3 L503.0,353.4 L503.9,353.7 L504.7,353.4 L505.6,353.1 L506.4,353.4 L507.2,353.1 L508.1,353.4 L508.9,353.7 L509.8,353.4 L510.6,353.4 L511.5,353.1 L512.3,353.7 L513.1,353.4 L514.0,353.7 L514.8,353.7 L515.7,354.0 L516.5,353.4 L517.4,355.2 L518.2,354.9 L519.0,354.9 L519.9,355.2 L520.7,355.8 L521.6,356.1 L522.4,356.1 L523.3,356.1 L524.1,355.5 L524.9,355.8 L525.8,355.8 L526.6,355.8 L527.5,356.1 L528.3,356.4 L529.2,355.8 L530.0,356.1 L530.8,355.8 L531.7,356.1 L532.5,355.8 L533.4,355.5 L534.2,355.5 L535.1,355.5 L535.9,355.5 L536.7,354.9 L537.6,354.9 L538.4,355.2 L539.3,354.3 L540.1,354.0 L541.0,354.0 L541.8,353.4 L542.6,353.7 L543.5,353.4 L544.3,354.3 L545.2,354.9 L546.0,354.3 L546.9,354.3 L547.7,354.6 L548.5,354.9 L549.4,355.5 L550.2,354.9 L551.1,354.9 L551.9,355.8 L552.8,355.8 L553.6,355.8 L554.4,355.8 L555.3,356.4 L556.1,356.4 L557.0,356.1 L557.8,356.1 L558.7,356.4 L559.5,356.1 L560.3,356.1 L561.2,356.4 L562.0,356.1 L562.9,355.5 L563.7,355.8 L564.6,355.5 L565.4,355.5 L566.2,355.5 L567.1,355.5 L567.9,355.5 L568.8,355.8 L569.6,355.2 L570.4,355.2 L571.3,354.3 L572.1,354.9 L573.0,354.6 L573.8,354.9 L574.7,354.9 L575.5,354.9 L576.3,355.5 L577.2,354.6 L578.0,354.9 L578.9,354.9 L579.7,355.5 L580.6,355.2 L581.4,355.2 L582.2,355.5 L583.1,354.9 L583.9,354.9 L584.8,355.2 L585.6,354.9 L586.5,354.9 L587.3,355.2 L588.1,355.2 L589.0,355.2 L589.8,355.2 L590.7,355.2 L591.5,355.2 L592.4,355.5 L593.2,355.2 L594.0,356.1 L594.9,355.8 L595.7,355.8 L596.6,355.5 L597.4,356.4 L598.3,356.1 L599.1,356.4 L599.9,357.0 L600.8,357.3 L601.6,356.1 L602.5,356.1 L603.3,356.1 L604.2,355.8 L605.0,356.1 L605.8,355.5 L606.7,355.8 L607.5,355.2 L608.4,355.2 L609.2,355.2 L610.1,355.2 L610.9,355.5 L611.7,354.9 L612.6,355.2 L613.4,354.9 L614.3,355.2 L615.1,355.2 L616.0,355.5 L616.8,355.8 L617.6,354.9 L618.5,355.8 L619.3,355.2 L620.2,355.2 L621.0,355.5 L621.9,355.5 L622.7,355.2 L623.5,355.2 L624.4,355.5 L625.2,355.5 L626.1,355.5 L626.9,355.2 L627.8,355.5 L628.6,355.5 L629.4,354.9 L630.3,355.5 L631.1,355.2 L632.0,355.2 L632.8,355.2 L633.7,355.5 L634.5,354.6 L635.3,355.5 L636.2,354.9 L637.0,355.5 L637.9,354.6 L638.7,354.9 L639.6,354.9 L640.4,354.9 L641.2,354.9 L642.1,354.6 L642.9,354.6 L643.8,354.9 L644.6,354.6 L645.4,355.2 L646.3,354.6 L647.1,354.6 L648.0,355.2 L648.8,354.6 L649.7,354.6 L650.5,354.6 L651.3,354.6 L652.2,354.0 L653.0,354.9 L653.9,354.3 L654.7,354.3 L655.6,354.3 L656.4,354.0 L657.2,354.6 L658.1,354.0 L658.9,354.3 L659.8,354.9 L660.6,354.0 L661.5,354.3 L662.3,355.2 L663.1,354.3 L664.0,354.3 L664.8,354.9 L665.7,354.3 L666.5,354.9 L667.4,354.6 L668.2,354.9 L669.0,354.3 L669.9,354.6 L670.7,354.3 L671.6,354.3 L672.4,354.9 L673.3,354.6 L674.1,354.9 L674.9,354.3 L675.8,354.9 L676.6,354.6 L677.5,354.6 L678.3,353.7 L679.2,354.6 L680.0,353.1" stroke="#ff7f0e" stroke-width="2" fill="none" opacity="0.8"/>
<!-- Thermal Generation -->
<path d="M80.0,297.5 L80.8,329.2 L81.7,328.6 L82.5,328.9 L83.4,328.9 L84.2,307.3 L85.1,312.0 L85.9,313.8 L86.7,328.9 L87.6,328.0 L88.4,330.9 L89.3,330.4 L90.1,333.0 L91.0,365.0 L91.8,366.4 L92.6,363.5 L93.5,363.2 L94.3,357.0 L95.2,354.3 L96.0,340.7 L96.9,340.1 L97.7,349.6 L98.5,352.5 L99.4,353.4 L100.2,353.4 L101.1,352.5 L101.9,343.4 L102.8,315.3 L103.6,307.0 L104.4,304.9 L105.3,302.8 L106.1,310.8 L107.0,312.9 L107.8,311.1 L108.7,317.6 L109.5,317.3 L110.3,325.9 L111.2,333.6 L112.0,333.9 L112.9,330.6 L113.7,308.5 L114.6,302.5 L115.4,302.8 L116.2,301.9 L117.1,301.9 L117.9,300.2 L118.8,296.9 L119.6,297.8 L120.4,297.2 L121.3,302.5 L122.1,299.9 L123.0,299.3 L123.8,299.3 L124.7,300.8 L125.5,302.5 L126.3,311.1 L127.2,318.5 L128.0,323.0 L128.9,325.6 L129.7,329.8 L130.6,337.7 L131.4,336.0 L132.2,338.9 L133.1,337.7 L133.9,304.0 L134.8,303.4 L135.6,322.4 L136.5,339.5 L137.3,339.5 L138.1,328.9 L139.0,312.3 L139.8,317.3 L140.7,332.1 L141.5,339.8 L142.4,340.1 L143.2,331.5 L144.0,335.4 L144.9,333.6 L145.7,334.2 L146.6,330.1 L147.4,328.9 L148.3,337.7 L149.1,336.6 L149.9,358.8 L150.8,372.1 L151.6,371.8 L152.5,371.8 L153.3,359.1 L154.2,324.7 L155.0,330.4 L155.8,336.0 L156.7,337.7 L157.5,336.9 L158.4,335.1 L159.2,335.1 L160.1,334.5 L160.9,344.3 L161.7,337.5 L162.6,353.7 L163.4,355.8 L164.3,353.4 L165.1,348.7 L166.0,348.1 L166.8,347.2 L167.6,346.6 L168.5,346.0 L169.3,346.6 L170.2,380.4 L171.0,380.6 L171.9,381.2 L172.7,380.4 L173.5,316.4 L174.4,293.4 L175.2,293.1 L176.1,293.4 L176.9,295.1 L177.8,294.3 L178.6,291.3 L179.4,294.6 L180.3,290.4 L181.1,290.7 L182.0,287.7 L182.8,289.2 L183.7,291.6 L184.5,290.4 L185.3,289.5 L186.2,293.4 L187.0,315.6 L187.9,317.6 L188.7,283.3 L189.6,286.3 L190.4,283.6 L191.2,281.5 L192.1,282.1 L192.9,281.8 L193.8,280.6 L194.6,285.7 L195.4,290.4 L196.3,287.5 L197.1,288.6 L198.0,289.8 L198.8,303.7 L199.7,288.6 L200.5,292.5 L201.3,306.7 L202.2,309.3 L203.0,309.3 L203.9,309.3 L204.7,320.6 L205.6,292.8 L206.4,287.7 L207.2,294.8 L208.1,326.5 L208.9,311.4 L209.8,326.2 L210.6,325.9 L211.5,314.1 L212.3,291.3 L213.1,302.8 L214.0,286.9 L214.8,286.6 L215.7,327.7 L216.5,325.0 L217.4,314.7 L218.2,313.8 L219.0,312.6 L219.9,312.9 L220.7,312.9 L221.6,313.8 L222.4,309.3 L223.3,309.3 L224.1,312.9 L224.9,287.7 L225.8,287.5 L226.6,318.8 L227.5,330.9 L228.3,330.9 L229.2,331.2 L230.0,329.8 L230.8,329.5 L231.7,328.9 L232.5,328.9 L233.4,328.9 L234.2,323.0 L235.1,281.2 L235.9,301.1 L236.7,304.6 L237.6,302.5 L238.4,312.3 L239.3,328.0 L240.1,329.2 L241.0,328.9 L241.8,374.4 L242.6,375.3 L243.5,368.5 L244.3,368.2 L245.2,340.4 L246.0,327.7 L246.9,328.9 L247.7,330.9 L248.5,330.4 L249.4,329.2 L250.2,358.5 L251.1,358.8 L251.9,359.6 L252.8,358.8 L253.6,358.8 L254.4,309.0 L255.3,280.3 L256.1,312.0 L257.0,323.3 L257.8,323.3 L258.7,328.6 L259.5,344.0 L260.3,352.5 L261.2,366.7 L262.0,366.2 L262.9,357.9 L263.7,349.3 L264.6,348.4 L265.4,325.6 L266.2,292.8 L267.1,329.2 L267.9,332.7 L268.8,332.4 L269.6,332.4 L270.4,331.5 L271.3,333.0 L272.1,331.5 L273.0,335.7 L273.8,338.3 L274.7,306.1 L275.5,286.0 L276.3,320.0 L277.2,332.7 L278.0,331.2 L278.9,338.6 L279.7,344.8 L280.6,344.8 L281.4,333.9 L282.2,308.8 L283.1,307.6 L283.9,299.0 L284.8,282.4 L285.6,283.9 L286.5,281.8 L287.3,304.9 L288.1,326.2 L289.0,325.6 L289.8,330.9 L290.7,350.5 L291.5,342.2 L292.4,333.6 L293.2,329.5 L294.0,329.5 L294.9,281.5 L295.7,284.2 L296.6,281.8 L297.4,284.2 L298.3,281.5 L299.1,283.6 L299.9,289.8 L300.8,284.2 L301.6,283.6 L302.5,283.3 L303.3,282.7 L304.2,282.1 L305.0,284.5 L305.8,282.4 L306.7,285.4 L307.5,290.7 L308.4,308.2 L309.2,325.0 L310.1,322.7 L310.9,320.0 L311.7,318.8 L312.6,311.4 L313.4,313.5 L314.3,313.8 L315.1,284.5 L316.0,284.2 L316.8,280.9 L317.6,281.5 L318.5,289.8 L319.3,282.4 L320.2,282.1 L321.0,314.1 L321.9,320.0 L322.7,358.2 L323.5,372.4 L324.4,372.7 L325.2,362.3 L326.1,316.1 L326.9,286.0 L327.8,316.4 L328.6,316.7 L329.4,318.8 L330.3,330.4 L331.1,333.0 L332.0,333.9 L332.8,333.6 L333.7,330.4 L334.5,333.9 L335.3,291.9 L336.2,283.9 L337.0,286.0 L337.9,295.1 L338.7,309.3 L339.6,320.6 L340.4,345.1 L341.2,364.4 L342.1,376.2 L342.9,378.0 L343.8,375.3 L344.6,375.0 L345.4,342.2 L346.3,344.6 L347.1,323.8 L348.0,321.5 L348.8,321.8 L349.7,378.0 L350.5,381.5 L351.3,336.9 L352.2,333.6 L353.0,332.7 L353.9,332.7 L354.7,349.9 L355.6,302.2 L356.4,282.7 L357.2,281.2 L358.1,283.3 L358.9,281.5 L359.8,283.6 L360.6,283.0 L361.5,290.7 L362.3,297.5 L363.1,294.6 L364.0,291.3 L364.8,296.9 L365.7,283.0 L366.5,283.3 L367.4,282.4 L368.2,296.6 L369.0,305.5 L369.9,308.8 L370.7,301.7 L371.6,305.2 L372.4,318.8 L373.3,328.9 L374.1,328.0 L374.9,332.4 L375.8,291.6 L376.6,280.9 L377.5,283.0 L378.3,285.4 L379.2,285.1 L380.0,288.3 L380.8,285.4 L381.7,286.3 L382.5,301.7 L383.4,324.7 L384.2,327.4 L385.1,327.7 L385.9,327.7 L386.7,327.4 L387.6,288.9 L388.4,288.3 L389.3,299.3 L390.1,310.5 L391.0,308.8 L391.8,304.9 L392.6,308.8 L393.5,333.9 L394.3,315.9 L395.2,312.6 L396.0,286.9 L396.9,293.1 L397.7,317.9 L398.5,320.3 L399.4,330.4 L400.2,330.1 L401.1,329.5 L401.9,328.9 L402.8,329.2 L403.6,320.3 L404.4,328.3 L405.3,325.6 L406.1,291.9 L407.0,281.2 L407.8,297.2 L408.7,286.0 L409.5,284.8 L410.3,288.9 L411.2,294.0 L412.0,289.2 L412.9,291.6 L413.7,291.9 L414.6,291.3 L415.4,289.5 L416.2,288.6 L417.1,284.2 L417.9,303.4 L418.8,307.6 L419.6,326.8 L420.4,324.4 L421.3,319.1 L422.1,327.4 L423.0,328.3 L423.8,328.3 L424.7,328.6 L425.5,328.6 L426.3,329.8 L427.2,329.5 L428.0,330.1 L428.9,329.8 L429.7,329.8 L430.6,329.5 L431.4,329.5 L432.2,330.4 L433.1,329.8 L433.9,304.0 L434.8,284.8 L435.6,288.3 L436.5,304.6 L437.3,286.9 L438.1,287.2 L439.0,286.3 L439.8,287.7 L440.7,291.0 L441.5,280.6 L442.4,280.1 L443.2,280.6 L444.0,307.9 L444.9,311.1 L445.7,297.2 L446.6,286.3 L447.4,283.9 L448.3,283.9 L449.1,284.5 L449.9,284.8 L450.8,283.0 L451.6,285.1 L452.5,282.1 L453.3,282.4 L454.2,286.6 L455.0,284.8 L455.8,281.5 L456.7,280.9 L457.5,286.0 L458.4,282.7 L459.2,280.6 L460.1,279.5 L460.9,287.2 L461.7,310.5 L462.6,318.5 L463.4,321.5 L464.3,330.1 L465.1,330.4 L466.0,327.1 L466.8,327.4 L467.6,310.5 L468.5,285.4 L469.3,285.7 L470.2,289.2 L471.0,305.5 L471.9,307.3 L472.7,321.5 L473.5,299.0 L474.4,283.0 L475.2,286.0 L476.1,294.6 L476.9,302.8 L477.8,311.7 L478.6,312.3 L479.4,310.2 L480.3,311.7 L481.1,315.9 L482.0,327.7 L482.8,327.1 L483.7,351.1 L484.5,353.1 L485.3,342.8 L486.2,342.8 L487.0,343.1 L487.9,327.7 L488.7,291.6 L489.6,309.9 L490.4,310.5 L491.2,302.5 L492.1,311.1 L492.9,314.7 L493.8,322.1 L494.6,328.9 L495.4,333.0 L496.3,301.7 L497.1,289.2 L498.0,283.0 L498.8,282.4 L499.7,295.7 L500.5,296.3 L501.3,296.3 L502.2,297.5 L503.0,301.9 L503.9,301.4 L504.7,301.1 L505.6,301.4 L506.4,289.2 L507.2,289.5 L508.1,289.2 L508.9,283.3 L509.8,296.9 L510.6,304.9 L511.5,298.4 L512.3,305.2 L513.1,312.3 L514.0,311.4 L514.8,310.5 L515.7,311.7 L516.5,309.3 L517.4,287.2 L518.2,284.5 L519.0,284.2 L519.9,285.7 L520.7,287.7 L521.6,284.5 L522.4,284.2 L523.3,284.5 L524.1,284.2 L524.9,283.9 L525.8,283.6 L526.6,286.0 L527.5,287.2 L528.3,286.3 L529.2,288.6 L530.0,285.4 L530.8,288.6 L531.7,285.7 L532.5,288.0 L533.4,285.4 L534.2,288.0 L535.1,285.4 L535.9,304.9 L536.7,287.5 L537.6,285.4 L538.4,286.3 L539.3,283.9 L540.1,285.1 L541.0,286.3 L541.8,283.6 L542.6,284.5 L543.5,289.8 L544.3,294.6 L545.2,293.4 L546.0,295.7 L546.9,286.9 L547.7,282.7 L548.5,286.0 L549.4,284.2 L550.2,289.5 L551.1,286.3 L551.9,288.9 L552.8,289.5 L553.6,297.2 L554.4,318.8 L555.3,319.7 L556.1,332.7 L557.0,333.0 L557.8,327.7 L558.7,287.7 L559.5,304.0 L560.3,303.4 L561.2,309.0 L562.0,319.7 L562.9,330.4 L563.7,330.6 L564.6,330.6 L565.4,331.5 L566.2,333.6 L567.1,331.8 L567.9,330.6 L568.8,314.4 L569.6,293.4 L570.4,299.3 L571.3,313.5 L572.1,319.4 L573.0,323.5 L573.8,327.4 L574.7,330.9 L575.5,331.2 L576.3,330.6 L577.2,330.6 L578.0,289.8 L578.9,299.0 L579.7,299.6 L580.6,299.9 L581.4,291.3 L582.2,330.4 L583.1,330.6 L583.9,329.2 L584.8,329.8 L585.6,330.1 L586.5,329.8 L587.3,330.4 L588.1,330.9 L589.0,330.1 L589.8,328.9 L590.7,329.5 L591.5,329.2 L592.4,329.8 L593.2,328.9 L594.0,329.8 L594.9,327.1 L595.7,329.2 L596.6,328.9 L597.4,329.5 L598.3,290.1 L599.1,294.0 L599.9,291.0 L600.8,283.6 L601.6,286.0 L602.5,281.8 L603.3,281.2 L604.2,286.9 L605.0,298.1 L605.8,323.8 L606.7,324.4 L607.5,324.4 L608.4,319.1 L609.2,319.7 L610.1,284.2 L610.9,281.5 L611.7,303.7 L612.6,299.0 L613.4,305.8 L614.3,309.0 L615.1,315.9 L616.0,320.9 L616.8,331.2 L617.6,327.1 L618.5,297.5 L619.3,294.3 L620.2,302.8 L621.0,300.5 L621.9,312.0 L622.7,312.0 L623.5,310.8 L624.4,324.7 L625.2,325.0 L626.1,325.3 L626.9,325.9 L627.8,324.7 L628.6,299.6 L629.4,282.1 L630.3,284.8 L631.1,284.5 L632.0,293.4 L632.8,297.2 L633.7,288.9 L634.5,288.9 L635.3,291.6 L636.2,292.8 L637.0,306.7 L637.9,280.9 L638.7,283.6 L639.6,288.6 L640.4,287.5 L641.2,281.2 L642.1,280.1 L642.9,280.6 L643.8,283.9 L644.6,280.3 L645.4,284.5 L646.3,297.2 L647.1,288.0 L648.0,313.8 L648.8,317.6 L649.7,300.5 L650.5,296.0 L651.3,296.0 L652.2,305.8 L653.0,300.8 L653.9,294.6 L654.7,304.9 L655.6,310.2 L656.4,310.5 L657.2,337.5 L658.1,323.3 L658.9,300.2 L659.8,296.3 L660.6,299.6 L661.5,296.9 L662.3,300.2 L663.1,308.8 L664.0,307.9 L664.8,307.6 L665.7,307.9 L666.5,321.5 L667.4,319.7 L668.2,304.9 L669.0,303.1 L669.9,302.2 L670.7,302.5 L671.6,310.5 L672.4,322.7 L673.3,327.4 L674.1,327.7 L674.9,305.5 L675.8,304.0 L676.6,306.1 L677.5,303.1 L678.3,308.2 L679.2,305.8 L680.0,315.0" stroke="#2ca02c" stroke-width="2" fill="none" opacity="0.8"/>
<!-- Solar Generation -->
<path d="M80.0,420.0 L80.8,420.0 L81.7,420.0 L82.5,420.0 L83.4,420.0 L84.2,420.0 L85.1,420.0 L85.9,416.2 L86.7,408.5 L87.6,407.9 L88.4,408.8 L89.3,394.3 L90.1,389.8 L91.0,397.5 L91.8,393.1 L92.6,399.3 L93.5,416.2 L94.3,420.0 L95.2,420.0 L96.0,420.0 L96.9,420.0 L97.7,420.0 L98.5,420.0 L99.4,420.0 L100.2,420.0 L101.1,420.0 L101.9,420.0 L102.8,420.0 L103.6,420.0 L104.4,420.0 L105.3,420.0 L106.1,411.4 L107.0,387.8 L107.8,385.4 L108.7,388.0 L109.5,390.4 L110.3,388.9 L111.2,383.9 L112.0,383.6 L112.9,393.7 L113.7,417.6 L114.6,420.0 L115.4,420.0 L116.2,420.0 L117.1,420.0 L117.9,420.0 L118.8,420.0 L119.6,420.0 L120.4,420.0 L121.3,420.0 L122.1,420.0 L123.0,420.0 L123.8,420.0 L124.7,420.0 L125.5,420.0 L126.3,411.7 L127.2,388.9 L128.0,385.1 L128.9,388.9 L129.7,394.9 L130.6,389.2 L131.4,386.6 L132.2,394.3 L133.1,409.9 L133.9,418.8 L134.8,420.0 L135.6,420.0 L136.5,420.0 L137.3,420.0 L138.1,420.0 L139.0,420.0 L139.8,420.0 L140.7,420.0 L141.5,420.0 L142.4,420.0 L143.2,420.0 L144.0,420.0 L144.9,420.0 L145.7,420.0 L146.6,417.6 L147.4,405.8 L148.3,402.2 L149.1,402.0 L149.9,399.3 L150.8,391.3 L151.6,393.4 L152.5,400.2 L153.3,411.4 L154.2,418.8 L155.0,420.0 L155.8,420.0 L156.7,420.0 L157.5,420.0 L158.4,420.0 L159.2,420.0 L160.1,420.0 L160.9,420.0 L161.7,420.0 L162.6,420.0 L163.4,420.0 L164.3,420.0 L165.1,420.0 L166.0,418.8 L166.8,414.4 L167.6,416.4 L168.5,416.4 L169.3,400.2 L170.2,399.3 L171.0,404.9 L171.9,397.8 L172.7,410.5 L173.5,418.8 L174.4,420.0 L175.2,420.0 L176.1,420.0 L176.9,420.0 L177.8,420.0 L178.6,420.0 L179.4,420.0 L180.3,420.0 L181.1,420.0 L182.0,420.0 L182.8,420.0 L183.7,420.0 L184.5,420.0 L185.3,420.0 L186.2,413.2 L187.0,391.6 L187.9,386.0 L188.7,389.5 L189.6,392.2 L190.4,392.2 L191.2,389.2 L192.1,391.9 L192.9,410.8 L193.8,419.1 L194.6,420.0 L195.4,420.0 L196.3,420.0 L197.1,420.0 L198.0,420.0 L198.8,420.0 L199.7,420.0 L200.5,420.0 L201.3,420.0 L202.2,420.0 L203.0,420.0 L203.9,420.0 L204.7,420.0 L205.6,420.0 L206.4,419.1 L207.2,416.2 L208.1,413.5 L208.9,406.4 L209.8,412.6 L210.6,412.6 L211.5,401.4 L212.3,412.6 L213.1,415.3 L214.0,419.7 L214.8,420.0 L215.7,420.0 L216.5,420.0 L217.4,420.0 L218.2,420.0 L219.0,420.0 L219.9,420.0 L220.7,420.0 L221.6,420.0 L222.4,420.0 L223.3,420.0 L224.1,420.0 L224.9,420.0 L225.8,420.0 L226.6,419.1 L227.5,411.4 L228.3,402.8 L229.2,411.4 L230.0,404.3 L230.8,400.5 L231.7,408.5 L232.5,415.3 L233.4,414.1 L234.2,419.4 L235.1,420.0 L235.9,420.0 L236.7,420.0 L237.6,420.0 L238.4,420.0 L239.3,420.0 L240.1,420.0 L241.0,420.0 L241.8,420.0 L242.6,420.0 L243.5,420.0 L244.3,420.0 L245.2,420.0 L246.0,420.0 L246.9,418.2 L247.7,414.1 L248.5,396.3 L249.4,401.7 L250.2,398.7 L251.1,394.6 L251.9,387.5 L252.8,390.7 L253.6,405.5 L254.4,418.8 L255.3,420.0 L256.1,420.0 L257.0,420.0 L257.8,420.0 L258.7,420.0 L259.5,420.0 L260.3,420.0 L261.2,420.0 L262.0,420.0 L262.9,420.0 L263.7,420.0 L264.6,420.0 L265.4,420.0 L266.2,420.0 L267.1,418.2 L267.9,416.4 L268.8,410.8 L269.6,409.3 L270.4,407.9 L271.3,412.9 L272.1,402.8 L273.0,405.8 L273.8,408.8 L274.7,419.4 L275.5,420.0 L276.3,420.0 L277.2,420.0 L278.0,420.0 L278.9,420.0 L279.7,420.0 L280.6,420.0 L281.4,420.0 L282.2,420.0 L283.1,420.0 L283.9,420.0 L284.8,420.0 L285.6,420.0 L286.5,420.0 L287.3,417.9 L288.1,402.0 L289.0,386.0 L289.8,391.0 L290.7,392.8 L291.5,390.4 L292.4,391.0 L293.2,390.7 L294.0,403.4 L294.9,418.8 L295.7,420.0 L296.6,420.0 L297.4,420.0 L298.3,420.0 L299.1,420.0 L299.9,420.0 L300.8,420.0 L301.6,420.0 L302.5,420.0 L303.3,420.0 L304.2,420.0 L305.0,420.0 L305.8,420.0 L306.7,420.0 L307.5,415.9 L308.4,396.6 L309.2,391.3 L310.1,392.5 L310.9,397.5 L311.7,392.8 L312.6,390.4 L313.4,393.1 L314.3,408.5 L315.1,419.1 L316.0,420.0 L316.8,420.0 L317.6,420.0 L318.5,420.0 L319.3,420.0 L320.2,420.0 L321.0,420.0 L321.9,420.0 L322.7,420.0 L323.5,420.0 L324.4,420.0 L325.2,420.0 L326.1,420.0 L326.9,420.0 L327.8,419.1 L328.6,412.0 L329.4,405.2 L330.3,403.4 L331.1,402.5 L332.0,402.2 L332.8,400.8 L333.7,404.3 L334.5,413.2 L335.3,419.4 L336.2,420.0 L337.0,420.0 L337.9,420.0 L338.7,420.0 L339.6,420.0 L340.4,420.0 L341.2,420.0 L342.1,420.0 L342.9,420.0 L343.8,420.0 L344.6,420.0 L345.4,420.0 L346.3,420.0 L347.1,420.0 L348.0,417.9 L348.8,406.1 L349.7,389.8 L350.5,396.9 L351.3,396.9 L352.2,396.0 L353.0,391.9 L353.9,390.1 L354.7,401.1 L355.6,419.4 L356.4,420.0 L357.2,420.0 L358.1,420.0 L358.9,420.0 L359.8,420.0 L360.6,420.0 L361.5,420.0 L362.3,420.0 L363.1,420.0 L364.0,420.0 L364.8,420.0 L365.7,420.0 L366.5,420.0 L367.4,420.0 L368.2,419.4 L369.0,412.6 L369.9,396.0 L370.7,390.7 L371.6,394.3 L372.4,392.5 L373.3,393.1 L374.1,392.5 L374.9,412.3 L375.8,419.7 L376.6,420.0 L377.5,420.0 L378.3,420.0 L379.2,420.0 L380.0,420.0 L380.8,420.0 L381.7,420.0 L382.5,420.0 L383.4,420.0 L384.2,420.0 L385.1,420.0 L385.9,420.0 L386.7,420.0 L387.6,420.0 L388.4,418.5 L389.3,411.1 L390.1,403.4 L391.0,391.9 L391.8,395.1 L392.6,397.8 L393.5,393.7 L394.3,398.4 L395.2,413.8 L396.0,419.7 L396.9,420.0 L397.7,420.0 L398.5,420.0 L399.4,420.0 L400.2,420.0 L401.1,420.0 L401.9,420.0 L402.8,420.0 L403.6,420.0 L404.4,420.0 L405.3,420.0 L406.1,420.0 L407.0,420.0 L407.8,420.0 L408.7,419.4 L409.5,417.3 L410.3,414.4 L411.2,413.5 L412.0,410.2 L412.9,411.1 L413.7,400.8 L414.6,407.9 L415.4,415.3 L416.2,419.1 L417.1,420.0 L417.9,420.0 L418.8,420.0 L419.6,420.0 L420.4,420.0 L421.3,420.0 L422.1,420.0 L423.0,420.0 L423.8,420.0 L424.7,420.0 L425.5,420.0 L426.3,420.0 L427.2,420.0 L428.0,420.0 L428.9,419.7 L429.7,415.3 L430.6,415.6 L431.4,407.6 L432.2,412.0 L433.1,396.9 L433.9,397.5 L434.8,391.3 L435.6,405.5 L436.5,419.7 L437.3,420.0 L438.1,420.0 L439.0,420.0 L439.8,420.0 L440.7,420.0 L441.5,420.0 L442.4,420.0 L443.2,420.0 L444.0,420.0 L444.9,420.0 L445.7,420.0 L446.6,420.0 L447.4,420.0 L448.3,420.0 L449.1,419.7 L449.9,416.7 L450.8,413.5 L451.6,410.8 L452.5,406.7 L453.3,404.0 L454.2,390.7 L455.0,412.9 L455.8,415.9 L456.7,420.0 L457.5,420.0 L458.4,420.0 L459.2,420.0 L460.1,420.0 L460.9,420.0 L461.7,420.0 L462.6,420.0 L463.4,420.0 L464.3,420.0 L465.1,420.0 L466.0,420.0 L466.8,420.0 L467.6,420.0 L468.5,420.0 L469.3,419.1 L470.2,406.7 L471.0,405.2 L471.9,400.5 L472.7,400.2 L473.5,398.7 L474.4,396.9 L475.2,396.6 L476.1,415.3 L476.9,419.7 L477.8,420.0 L478.6,420.0 L479.4,420.0 L480.3,420.0 L481.1,420.0 L482.0,420.0 L482.8,420.0 L483.7,420.0 L484.5,420.0 L485.3,420.0 L486.2,420.0 L487.0,420.0 L487.9,420.0 L488.7,420.0 L489.6,420.0 L490.4,415.9 L491.2,409.3 L492.1,408.5 L492.9,402.2 L493.8,405.2 L494.6,403.1 L495.4,406.7 L496.3,416.4 L497.1,420.0 L498.0,420.0 L498.8,420.0 L499.7,420.0 L500.5,420.0 L501.3,420.0 L502.2,420.0 L503.0,420.0 L503.9,420.0 L504.7,420.0 L505.6,420.0 L506.4,420.0 L507.2,420.0 L508.1,420.0 L508.9,420.0 L509.8,420.0 L510.6,415.3 L511.5,412.9 L512.3,407.6 L513.1,404.6 L514.0,401.4 L514.8,400.8 L515.7,402.2 L516.5,414.7 L517.4,420.0 L518.2,420.0 L519.0,420.0 L519.9,420.0 L520.7,420.0 L521.6,420.0 L522.4,420.0 L523.3,420.0 L524.1,420.0 L524.9,420.0 L525.8,420.0 L526.6,420.0 L527.5,420.0 L528.3,420.0 L529.2,420.0 L530.0,419.4 L530.8,411.7 L531.7,405.5 L532.5,405.8 L533.4,405.8 L534.2,396.9 L535.1,392.8 L535.9,391.3 L536.7,406.7 L537.6,419.7 L538.4,420.0 L539.3,420.0 L540.1,420.0 L541.0,420.0 L541.8,420.0 L542.6,420.0 L543.5,420.0 L544.3,420.0 L545.2,420.0 L546.0,420.0 L546.9,420.0 L547.7,420.0 L548.5,420.0 L549.4,420.0 L550.2,419.1 L551.1,401.7 L551.9,390.4 L552.8,393.7 L553.6,396.6 L554.4,395.7 L555.3,391.6 L556.1,390.1 L557.0,411.7 L557.8,419.7 L558.7,420.0 L559.5,420.0 L560.3,420.0 L561.2,420.0 L562.0,420.0 L562.9,420.0 L563.7,420.0 L564.6,420.0 L565.4,420.0 L566.2,420.0 L567.1,420.0 L567.9,420.0 L568.8,420.0 L569.6,420.0 L570.4,419.4 L571.3,402.2 L572.1,391.3 L573.0,394.9 L573.8,402.5 L574.7,394.6 L575.5,391.6 L576.3,394.3 L577.2,407.9 L578.0,419.7 L578.9,420.0 L579.7,420.0 L580.6,420.0 L581.4,420.0 L582.2,420.0 L583.1,420.0 L583.9,420.0 L584.8,420.0 L585.6,420.0 L586.5,420.0 L587.3,420.0 L588.1,420.0 L589.0,420.0 L589.8,420.0 L590.7,419.7 L591.5,417.0 L592.4,406.1 L593.2,404.3 L594.0,404.6 L594.9,397.2 L595.7,408.2 L596.6,413.8 L597.4,411.4 L598.3,419.7 L599.1,420.0 L599.9,420.0 L600.8,420.0 L601.6,420.0 L602.5,420.0 L603.3,420.0 L604.2,420.0 L605.0,420.0 L605.8,420.0 L606.7,420.0 L607.5,420.0 L608.4,420.0 L609.2,420.0 L610.1,420.0 L610.9,420.0 L611.7,417.9 L612.6,399.0 L613.4,393.4 L614.3,408.5 L615.1,414.1 L616.0,405.8 L616.8,410.5 L617.6,416.2 L618.5,420.0 L619.3,420.0 L620.2,420.0 L621.0,420.0 L621.9,420.0 L622.7,420.0 L623.5,420.0 L624.4,420.0 L625.2,420.0 L626.1,420.0 L626.9,420.0 L627.8,420.0 L628.6,420.0 L629.4,420.0 L630.3,420.0 L631.1,419.7 L632.0,409.6 L632.8,397.8 L633.7,396.3 L634.5,401.1 L635.3,399.6 L636.2,399.9 L637.0,405.2 L637.9,416.4 L638.7,419.7 L639.6,420.0 L640.4,420.0 L641.2,420.0 L642.1,420.0 L642.9,420.0 L643.8,420.0 L644.6,420.0 L645.4,420.0 L646.3,420.0 L647.1,420.0 L648.0,420.0 L648.8,420.0 L649.7,420.0 L650.5,420.0 L651.3,420.0 L652.2,417.6 L653.0,409.9 L653.9,413.5 L654.7,406.4 L655.6,403.1 L656.4,411.7 L657.2,416.2 L658.1,416.4 L658.9,420.0 L659.8,420.0 L660.6,420.0 L661.5,420.0 L662.3,420.0 L663.1,420.0 L664.0,420.0 L664.8,420.0 L665.7,420.0 L666.5,420.0 L667.4,420.0 L668.2,420.0 L669.0,420.0 L669.9,420.0 L670.7,420.0 L671.6,419.7 L672.4,417.0 L673.3,402.0 L674.1,412.3 L674.9,406.4 L675.8,404.3 L676.6,402.0 L677.5,415.6 L678.3,418.8 L679.2,420.0 L680.0,420.0" stroke="#d62728" stroke-width="2" fill="none" opacity="0.8"/>
<!-- Forecast -->
<path d="M80.0,250.8 L80.8,255.2 L81.7,256.1 L82.5,255.5 L83.4,243.4 L84.2,216.4 L85.1,184.2 L85.9,170.3 L86.7,169.7 L87.6,173.5 L88.4,178.0 L89.3,183.3 L90.1,187.2 L91.0,189.2 L91.8,189.2 L92.6,186.6 L93.5,180.9 L94.3,176.8 L95.2,172.9 L96.0,180.0 L96.9,193.1 L97.7,215.0 L98.5,231.8 L99.4,246.9 L100.2,255.8 L101.1,260.2 L101.9,260.2 L102.8,257.3 L103.6,243.7 L104.4,215.8 L105.3,180.9 L106.1,166.1 L107.0,164.7 L107.8,169.1 L108.7,172.9 L109.5,178.0 L110.3,181.2 L111.2,184.8 L112.0,185.7 L112.9,181.2 L113.7,173.8 L114.6,168.5 L115.4,166.4 L116.2,173.5 L117.1,188.0 L117.9,210.8 L118.8,238.0 L119.6,247.5 L120.4,252.2 L121.3,257.0 L122.1,257.9 L123.0,255.2 L123.8,241.9 L124.7,213.5 L125.5,178.9 L126.3,165.3 L127.2,164.4 L128.0,168.8 L128.9,173.2 L129.7,178.6 L130.6,182.7 L131.4,186.9 L132.2,187.2 L133.1,183.9 L133.9,177.4 L134.8,174.4 L135.6,172.9 L136.5,182.1 L137.3,196.9 L138.1,220.3 L139.0,249.9 L139.8,254.6 L140.7,258.8 L141.5,264.7 L142.4,267.6 L143.2,269.4 L144.0,266.4 L144.9,255.5 L145.7,238.6 L146.6,221.8 L147.4,213.5 L148.3,208.7 L149.1,209.0 L149.9,215.0 L150.8,217.3 L151.6,219.1 L152.5,220.3 L153.3,219.4 L154.2,215.0 L155.0,211.4 L155.8,208.7 L156.7,212.6 L157.5,220.6 L158.4,236.3 L159.2,228.0 L160.1,240.4 L160.9,261.4 L161.7,273.5 L162.6,277.1 L163.4,279.5 L164.3,278.6 L165.1,274.4 L166.0,264.1 L166.8,250.8 L167.6,236.9 L168.5,220.6 L169.3,212.9 L170.2,209.6 L171.0,207.9 L171.9,210.5 L172.7,211.7 L173.5,211.7 L174.4,204.0 L175.2,189.5 L176.1,177.7 L176.9,179.8 L177.8,189.2 L178.6,203.7 L179.4,236.9 L180.3,251.7 L181.1,257.9 L182.0,263.2 L182.8,264.7 L183.7,262.6 L184.5,248.7 L185.3,220.9 L186.2,194.5 L187.0,180.3 L187.9,177.1 L188.7,177.7 L189.6,179.8 L190.4,183.3 L191.2,186.6 L192.1,187.7 L192.9,186.9 L193.8,181.2 L194.6,172.9 L195.4,171.2 L196.3,173.2 L197.1,183.3 L198.0,199.0 L198.8,221.5 L199.7,227.1 L200.5,256.4 L201.3,265.6 L202.2,272.1 L203.0,274.4 L203.9,273.5 L204.7,262.0 L205.6,233.3 L206.4,204.3 L207.2,188.9 L208.1,183.0 L208.9,181.5 L209.8,181.8 L210.6,184.8 L211.5,187.2 L212.3,188.0 L213.1,187.7 L214.0,182.1 L214.8,173.5 L215.7,170.9 L216.5,173.2 L217.4,182.7 L218.2,197.5 L219.0,222.4 L219.9,248.4 L220.7,258.5 L221.6,262.9 L222.4,268.8 L223.3,271.2 L224.1,270.6 L224.9,259.0 L225.8,230.6 L226.6,202.8 L227.5,187.4 L228.3,182.7 L229.2,182.7 L230.0,185.7 L230.8,190.1 L231.7,193.7 L232.5,194.0 L233.4,193.4 L234.2,189.5 L235.1,184.2 L235.9,183.6 L236.7,184.8 L237.6,193.7 L238.4,207.3 L239.3,228.9 L240.1,242.2 L241.0,261.1 L241.8,270.9 L242.6,275.9 L243.5,277.4 L244.3,275.6 L245.2,263.5 L246.0,235.4 L246.9,205.5 L247.7,191.3 L248.5,186.9 L249.4,185.7 L250.2,186.9 L251.1,188.9 L251.9,191.0 L252.8,191.0 L253.6,190.1 L254.4,185.4 L255.3,176.5 L256.1,172.9 L257.0,173.8 L257.8,183.0 L258.7,197.8 L259.5,219.7 L260.3,236.3 L261.2,253.7 L262.0,263.2 L262.9,269.1 L263.7,270.9 L264.6,270.0 L265.4,257.9 L266.2,230.1 L267.1,201.4 L267.9,186.9 L268.8,183.0 L269.6,182.4 L270.4,183.0 L271.3,184.8 L272.1,186.9 L273.0,187.2 L273.8,185.7 L274.7,179.5 L275.5,168.5 L276.3,165.3 L277.2,168.8 L278.0,176.8 L278.9,193.1 L279.7,215.6 L280.6,227.7 L281.4,245.4 L282.2,254.6 L283.1,259.9 L283.9,261.4 L284.8,260.8 L285.6,253.7 L286.5,241.6 L287.3,225.9 L288.1,211.1 L289.0,204.6 L289.8,199.0 L290.7,200.2 L291.5,201.9 L292.4,208.2 L293.2,212.3 L294.0,211.7 L294.9,192.5 L295.7,179.2 L296.6,179.8 L297.4,176.5 L298.3,183.3 L299.1,193.1 L299.9,212.0 L300.8,216.7 L301.6,239.2 L302.5,243.1 L303.3,247.5 L304.2,250.2 L305.0,247.2 L305.8,240.1 L306.7,225.3 L307.5,213.5 L308.4,210.5 L309.2,203.7 L310.1,196.9 L310.9,200.2 L311.7,201.9 L312.6,209.9 L313.4,211.7 L314.3,211.4 L315.1,203.4 L316.0,186.6 L316.8,175.0 L317.6,178.9 L318.5,191.0 L319.3,206.1 L320.2,223.5 L321.0,249.3 L321.9,258.2 L322.7,264.7 L323.5,271.2 L324.4,273.5 L325.2,272.1 L326.1,260.2 L326.9,231.8 L327.8,204.0 L328.6,190.1 L329.4,188.3 L330.3,188.6 L331.1,189.8 L332.0,193.1 L332.8,196.6 L333.7,196.3 L334.5,195.7 L335.3,193.1 L336.2,188.6 L337.0,186.9 L337.9,186.6 L338.7,194.3 L339.6,208.5 L340.4,229.8 L341.2,238.9 L342.1,259.9 L342.9,267.9 L343.8,271.8 L344.6,271.8 L345.4,269.1 L346.3,259.3 L347.1,233.3 L348.0,201.9 L348.8,183.6 L349.7,177.4 L350.5,179.2 L351.3,184.5 L352.2,187.2 L353.0,190.1 L353.9,191.6 L354.7,192.5 L355.6,189.5 L356.4,183.9 L357.2,180.3 L358.1,178.0 L358.9,183.0 L359.8,195.1 L360.6,216.4 L361.5,243.4 L362.3,257.9 L363.1,265.3 L364.0,270.6 L364.8,272.4 L365.7,270.9 L366.5,259.0 L367.4,231.8 L368.2,204.9 L369.0,189.5 L369.9,185.4 L370.7,185.1 L371.6,186.6 L372.4,190.1 L373.3,193.7 L374.1,193.7 L374.9,193.1 L375.8,189.2 L376.6,181.5 L377.5,179.5 L378.3,180.0 L379.2,190.1 L380.0,203.7 L380.8,225.6 L381.7,251.7 L382.5,262.3 L383.4,269.4 L384.2,274.7 L385.1,276.5 L385.9,274.7 L386.7,262.6 L387.6,234.8 L388.4,205.5 L389.3,192.2 L390.1,190.7 L391.0,191.3 L391.8,193.1 L392.6,195.1 L393.5,198.4 L394.3,198.7 L395.2,198.1 L396.0,195.1 L396.9,191.0 L397.7,190.1 L398.5,190.7 L399.4,196.9 L400.2,210.8 L401.1,232.7 L401.9,237.7 L402.8,265.9 L403.6,274.4 L404.4,279.5 L405.3,280.9 L406.1,279.2 L407.0,268.5 L407.8,241.6 L408.7,212.0 L409.5,196.6 L410.3,192.5 L411.2,191.6 L412.0,191.9 L412.9,192.5 L413.7,194.0 L414.6,194.0 L415.4,193.4 L416.2,188.9 L417.1,182.1 L417.9,181.2 L418.8,182.7 L419.6,191.6 L420.4,205.8 L421.3,227.4 L422.1,249.3 L423.0,257.6 L423.8,263.8 L424.7,268.8 L425.5,271.5 L426.3,272.7 L427.2,268.2 L428.0,256.1 L428.9,241.0 L429.7,225.6 L430.6,216.1 L431.4,209.6 L432.2,208.7 L433.1,212.3 L433.9,215.8 L434.8,218.8 L435.6,220.0 L436.5,217.6 L437.3,208.7 L438.1,202.5 L439.0,201.6 L439.8,208.5 L440.7,218.2 L441.5,232.4 L442.4,246.3 L443.2,259.9 L444.0,265.0 L444.9,267.9 L445.7,270.3 L446.6,272.1 L447.4,265.0 L448.3,251.4 L449.1,237.7 L449.9,224.1 L450.8,211.4 L451.6,204.9 L452.5,205.8 L453.3,206.7 L454.2,211.4 L455.0,213.5 L455.8,213.8 L456.7,204.6 L457.5,191.0 L458.4,183.3 L459.2,185.7 L460.1,194.8 L460.9,209.6 L461.7,228.3 L462.6,240.7 L463.4,259.3 L464.3,269.7 L465.1,275.3 L466.0,277.4 L466.8,275.6 L467.6,263.5 L468.5,234.8 L469.3,205.2 L470.2,188.0 L471.0,181.8 L471.9,180.3 L472.7,181.5 L473.5,184.8 L474.4,187.2 L475.2,189.2 L476.1,188.0 L476.9,181.2 L477.8,171.8 L478.6,170.3 L479.4,173.2 L480.3,183.6 L481.1,199.3 L482.0,222.1 L482.8,236.6 L483.7,252.2 L484.5,265.0 L485.3,271.2 L486.2,273.0 L487.0,271.5 L487.9,259.0 L488.7,230.3 L489.6,200.2 L490.4,183.0 L491.2,177.7 L492.1,176.8 L492.9,178.3 L493.8,182.1 L494.6,184.8 L495.4,187.2 L496.3,186.3 L497.1,178.9 L498.0,168.5 L498.8,166.7 L499.7,169.7 L500.5,179.2 L501.3,195.1 L502.2,217.6 L503.0,223.0 L503.9,248.7 L504.7,262.9 L505.6,269.4 L506.4,270.9 L507.2,269.1 L508.1,256.1 L508.9,227.7 L509.8,196.0 L510.6,180.3 L511.5,175.3 L512.3,175.0 L513.1,177.1 L514.0,180.9 L514.8,183.3 L515.7,185.7 L516.5,184.2 L517.4,176.8 L518.2,164.4 L519.0,160.2 L519.9,163.5 L520.7,170.9 L521.6,187.4 L522.4,210.2 L523.3,232.4 L524.1,245.4 L524.9,251.4 L525.8,256.7 L526.6,257.9 L527.5,255.8 L528.3,241.0 L529.2,212.3 L530.0,182.7 L530.8,170.9 L531.7,170.0 L532.5,172.7 L533.4,176.5 L534.2,181.8 L535.1,186.0 L535.9,187.4 L536.7,185.7 L537.6,177.4 L538.4,165.6 L539.3,164.1 L540.1,165.8 L541.0,173.5 L541.8,189.8 L542.6,213.2 L543.5,219.1 L544.3,241.0 L545.2,238.0 L546.0,238.3 L546.9,240.1 L547.7,237.4 L548.5,223.2 L549.4,195.7 L550.2,166.1 L551.1,151.9 L551.9,152.2 L552.8,155.5 L553.6,159.3 L554.4,163.5 L555.3,167.3 L556.1,170.9 L557.0,171.5 L557.8,164.7 L558.7,149.6 L559.5,143.4 L560.3,146.9 L561.2,158.5 L562.0,175.6 L562.9,194.8 L563.7,223.2 L564.6,232.1 L565.4,238.3 L566.2,243.4 L567.1,246.9 L567.9,249.0 L568.8,245.1 L569.6,227.7 L570.4,211.4 L571.3,196.6 L572.1,192.8 L573.0,186.9 L573.8,188.0 L574.7,190.4 L575.5,197.8 L576.3,200.5 L577.2,198.7 L578.0,193.4 L578.9,180.3 L579.7,173.5 L580.6,172.9 L581.4,179.8 L582.2,191.0 L583.1,208.7 L583.9,220.6 L584.8,234.2 L585.6,239.2 L586.5,242.5 L587.3,242.2 L588.1,239.5 L589.0,235.4 L589.8,225.6 L590.7,213.5 L591.5,202.5 L592.4,192.8 L593.2,182.1 L594.0,176.2 L594.9,177.1 L595.7,183.3 L596.6,194.0 L597.4,191.9 L598.3,189.5 L599.1,167.0 L599.9,162.3 L600.8,163.8 L601.6,171.5 L602.5,185.7 L603.3,201.6 L604.2,205.2 L605.0,228.6 L605.8,237.2 L606.7,241.3 L607.5,243.1 L608.4,240.7 L609.2,226.2 L610.1,199.0 L610.9,170.0 L611.7,153.7 L612.6,151.9 L613.4,154.0 L614.3,157.3 L615.1,161.7 L616.0,165.3 L616.8,167.6 L617.6,167.6 L618.5,160.5 L619.3,144.5 L620.2,138.6 L621.0,143.7 L621.9,153.1 L622.7,169.1 L623.5,189.8 L624.4,205.5 L625.2,222.4 L626.1,228.6 L626.9,231.8 L627.8,233.0 L628.6,229.8 L629.4,215.3 L630.3,185.4 L631.1,155.8 L632.0,142.8 L632.8,144.2 L633.7,148.7 L634.5,152.5 L635.3,158.5 L636.2,162.6 L637.0,164.4 L637.9,163.5 L638.7,155.5 L639.6,138.6 L640.4,133.0 L641.2,136.9 L642.1,146.6 L642.9,161.4 L643.8,183.6 L644.6,209.6 L645.4,219.7 L646.3,225.3 L647.1,229.8 L648.0,231.5 L648.8,229.2 L649.7,215.0 L650.5,186.6 L651.3,157.0 L652.2,144.0 L653.0,144.8 L653.9,149.3 L654.7,152.8 L655.6,158.7 L656.4,162.6 L657.2,165.0 L658.1,165.0 L658.9,154.3 L659.8,141.0 L660.6,136.6 L661.5,142.2 L662.3,151.6 L663.1,167.3 L664.0,188.9 L664.8,215.6 L665.7,226.2 L666.5,233.3 L667.4,236.9 L668.2,239.8 L669.0,239.2 L669.9,235.1 L670.7,224.4 L671.6,209.3 L672.4,194.5 L673.3,182.7 L674.1,174.4 L674.9,178.0 L675.8,186.9 L676.6,188.3 L677.5,187.4 L678.3,184.8 L679.2,178.6 L680.0,177.1" stroke="#9467bd" stroke-width="2" fill="none" opacity="0.8"/>
<!-- Total Generation -->
<path d="M80.0,212.3 L80.8,239.8 L81.7,238.6 L82.5,236.9 L83.4,230.1 L84.2,209.3 L85.1,198.7 L85.9,193.4 L86.7,212.0 L87.6,216.4 L88.4,199.0 L89.3,146.0 L90.1,150.5 L91.0,161.7 L91.8,157.6 L92.6,160.5 L93.5,177.1 L94.3,184.2 L95.2,179.8 L96.0,164.4 L96.9,169.7 L97.7,170.9 L98.5,181.5 L99.4,198.7 L100.2,203.4 L101.1,199.6 L101.9,201.6 L102.8,192.8 L103.6,184.2 L104.4,196.6 L105.3,200.5 L106.1,226.8 L107.0,212.0 L107.8,197.8 L108.7,210.2 L109.5,215.0 L110.3,227.7 L111.2,232.1 L112.0,217.9 L112.9,225.6 L113.7,225.3 L114.6,214.4 L115.4,210.8 L116.2,220.6 L117.1,230.1 L117.9,239.2 L118.8,236.6 L119.6,234.8 L120.4,234.5 L121.3,234.5 L122.1,232.1 L123.0,229.5 L123.8,228.9 L124.7,230.3 L125.5,231.8 L126.3,233.3 L127.2,224.4 L128.0,228.6 L128.9,233.0 L129.7,242.2 L130.6,237.7 L131.4,225.3 L132.2,232.4 L133.1,247.5 L133.9,215.8 L134.8,207.9 L135.6,244.0 L136.5,255.5 L137.3,249.6 L138.1,234.8 L139.0,203.1 L139.8,207.0 L140.7,193.4 L141.5,196.9 L142.4,196.0 L143.2,163.8 L144.0,169.1 L144.9,179.8 L145.7,173.8 L146.6,164.7 L147.4,151.4 L148.3,154.6 L149.1,152.8 L149.9,182.4 L150.8,189.2 L151.6,187.7 L152.5,211.1 L153.3,223.5 L154.2,204.6 L155.0,197.2 L155.8,217.6 L156.7,191.0 L157.5,181.2 L158.4,166.4 L159.2,159.3 L160.1,172.4 L160.9,167.0 L161.7,162.9 L162.6,183.0 L163.4,184.8 L164.3,186.3 L165.1,199.0 L166.0,190.1 L166.8,187.7 L167.6,188.0 L168.5,169.4 L169.3,152.2 L170.2,179.8 L171.0,185.4 L171.9,178.6 L172.7,195.4 L173.5,140.7 L174.4,115.3 L175.2,125.0 L176.1,129.8 L176.9,146.6 L177.8,143.1 L178.6,160.5 L179.4,169.1 L180.3,184.2 L181.1,189.8 L182.0,196.3 L182.8,223.2 L183.7,222.4 L184.5,223.8 L185.3,224.7 L186.2,218.5 L187.0,212.9 L187.9,207.0 L188.7,175.6 L189.6,185.4 L190.4,190.1 L191.2,188.6 L192.1,190.4 L192.9,206.7 L193.8,217.3 L194.6,223.0 L195.4,224.4 L196.3,219.7 L197.1,229.2 L198.0,225.6 L198.8,244.8 L199.7,229.5 L200.5,230.9 L201.3,241.0 L202.2,244.3 L203.0,232.7 L203.9,223.8 L204.7,199.9 L205.6,167.3 L206.4,145.4 L207.2,161.4 L208.1,200.5 L208.9,161.4 L209.8,178.3 L210.6,190.1 L211.5,170.0 L212.3,171.8 L213.1,181.8 L214.0,160.5 L214.8,198.7 L215.7,246.3 L216.5,253.1 L217.4,248.7 L218.2,248.1 L219.0,245.1 L219.9,245.7 L220.7,250.2 L221.6,251.9 L222.4,244.5 L223.3,243.1 L224.1,244.8 L224.9,220.6 L225.8,222.4 L226.6,256.4 L227.5,261.1 L228.3,251.7 L229.2,259.9 L230.0,248.4 L230.8,242.8 L231.7,252.2 L232.5,254.6 L233.4,257.9 L234.2,256.4 L235.1,212.0 L235.9,233.3 L236.7,218.2 L237.6,192.5 L238.4,178.3 L239.3,190.1 L240.1,149.0 L241.0,158.2 L241.8,219.7 L242.6,201.4 L243.5,222.7 L244.3,220.6 L245.2,194.8 L246.0,157.3 L246.9,155.8 L247.7,176.5 L248.5,122.7 L249.4,124.7 L250.2,149.0 L251.1,149.3 L251.9,145.1 L252.8,146.6 L253.6,159.6 L254.4,123.8 L255.3,95.7 L256.1,132.7 L257.0,136.9 L257.8,140.1 L258.7,149.3 L259.5,162.6 L260.3,172.9 L261.2,209.6 L262.0,219.4 L262.9,210.2 L263.7,185.1 L264.6,213.5 L265.4,189.5 L266.2,169.7 L267.1,199.0 L267.9,195.1 L268.8,166.7 L269.6,140.7 L270.4,138.9 L271.3,146.0 L272.1,133.9 L273.0,141.9 L273.8,146.9 L274.7,124.7 L275.5,104.3 L276.3,139.2 L277.2,151.6 L278.0,148.4 L278.9,162.9 L279.7,162.9 L280.6,163.2 L281.4,152.2 L282.2,128.9 L283.1,130.9 L283.9,122.7 L284.8,105.8 L285.6,114.7 L286.5,120.9 L287.3,142.8 L288.1,161.4 L289.0,132.1 L289.8,162.6 L290.7,195.1 L291.5,196.9 L292.4,198.7 L293.2,199.9 L294.0,213.8 L294.9,191.9 L295.7,209.3 L296.6,217.0 L297.4,222.4 L298.3,221.2 L299.1,221.5 L299.9,229.5 L300.8,223.2 L301.6,222.4 L302.5,221.2 L303.3,220.3 L304.2,212.3 L305.0,211.1 L305.8,204.3 L306.7,196.9 L307.5,200.2 L308.4,198.7 L309.2,221.2 L310.1,214.1 L310.9,216.1 L311.7,204.3 L312.6,187.2 L313.4,185.7 L314.3,207.9 L315.1,194.5 L316.0,193.4 L316.8,165.8 L317.6,152.2 L318.5,146.0 L319.3,118.8 L320.2,120.9 L321.0,145.4 L321.9,145.1 L322.7,181.2 L323.5,195.4 L324.4,201.6 L325.2,201.4 L326.1,149.6 L326.9,124.1 L327.8,143.1 L328.6,137.1 L329.4,149.3 L330.3,159.3 L331.1,138.6 L332.0,148.4 L332.8,153.7 L333.7,165.6 L334.5,190.1 L335.3,154.3 L336.2,144.8 L337.0,130.9 L337.9,146.9 L338.7,139.2 L339.6,144.2 L340.4,175.9 L341.2,187.2 L342.1,204.3 L342.9,200.8 L343.8,193.7 L344.6,197.5 L345.4,163.2 L346.3,178.0 L347.1,146.3 L348.0,146.6 L348.8,126.5 L349.7,166.1 L350.5,175.0 L351.3,130.3 L352.2,125.3 L353.0,122.7 L353.9,120.3 L354.7,156.1 L355.6,146.6 L356.4,128.6 L357.2,141.9 L358.1,177.4 L358.9,180.9 L359.8,192.8 L360.6,195.7 L361.5,210.8 L362.3,229.2 L363.1,227.7 L364.0,227.1 L364.8,230.9 L365.7,217.9 L366.5,214.1 L367.4,210.8 L368.2,222.7 L369.0,215.6 L369.9,197.2 L370.7,175.3 L371.6,167.0 L372.4,162.9 L373.3,170.6 L374.1,182.1 L374.9,239.2 L375.8,222.1 L376.6,214.7 L377.5,220.3 L378.3,222.7 L379.2,213.8 L380.0,217.0 L380.8,204.6 L381.7,156.1 L382.5,167.9 L383.4,186.3 L384.2,187.4 L385.1,187.4 L385.9,175.0 L386.7,204.3 L387.6,193.7 L388.4,173.2 L389.3,183.3 L390.1,186.0 L391.0,178.0 L391.8,170.6 L392.6,173.5 L393.5,194.5 L394.3,164.7 L395.2,184.8 L396.0,157.0 L396.9,160.8 L397.7,174.4 L398.5,196.9 L399.4,204.6 L400.2,215.3 L401.1,207.3 L401.9,217.3 L402.8,188.3 L403.6,190.4 L404.4,175.9 L405.3,175.0 L406.1,147.5 L407.0,122.4 L407.8,135.1 L408.7,120.3 L409.5,161.4 L410.3,146.9 L411.2,155.2 L412.0,151.9 L412.9,162.0 L413.7,157.3 L414.6,164.7 L415.4,146.9 L416.2,162.6 L417.1,153.4 L417.9,155.8 L418.8,151.6 L419.6,181.2 L420.4,174.7 L421.3,151.1 L422.1,158.5 L423.0,159.9 L423.8,162.0 L424.7,167.3 L425.5,168.2 L426.3,200.5 L427.2,206.4 L428.0,183.9 L428.9,194.3 L429.7,180.6 L430.6,177.1 L431.4,144.5 L432.2,141.0 L433.1,126.2 L433.9,99.9 L434.8,75.9 L435.6,93.4 L436.5,147.8 L437.3,167.9 L438.1,191.3 L439.0,203.4 L439.8,216.4 L440.7,213.8 L441.5,206.4 L442.4,212.6 L443.2,215.3 L444.0,243.1 L444.9,247.8 L445.7,230.9 L446.6,218.5 L447.4,214.4 L448.3,211.1 L449.1,213.5 L449.9,215.6 L450.8,213.8 L451.6,211.1 L452.5,206.4 L453.3,203.1 L454.2,194.3 L455.0,211.1 L455.8,211.1 L456.7,213.8 L457.5,214.4 L458.4,214.4 L459.2,215.6 L460.1,213.8 L460.9,223.2 L461.7,246.0 L462.6,254.3 L463.4,258.2 L464.3,266.7 L465.1,263.8 L466.0,259.0 L466.8,259.0 L467.6,238.9 L468.5,210.8 L469.3,209.3 L470.2,199.3 L471.0,214.4 L471.9,207.6 L472.7,219.1 L473.5,184.8 L474.4,162.6 L475.2,152.5 L476.1,180.3 L476.9,194.3 L477.8,215.6 L478.6,223.5 L479.4,220.3 L480.3,217.3 L481.1,221.5 L482.0,221.5 L482.8,211.7 L483.7,255.5 L484.5,242.2 L485.3,243.4 L486.2,245.7 L487.0,259.3 L487.9,238.3 L488.7,200.8 L489.6,214.7 L490.4,228.6 L491.2,212.3 L492.1,207.6 L492.9,199.9 L493.8,201.1 L494.6,205.2 L495.4,210.5 L496.3,194.0 L497.1,187.4 L498.0,195.1 L498.8,200.5 L499.7,214.1 L500.5,198.1 L501.3,195.4 L502.2,194.0 L503.0,203.1 L503.9,196.6 L504.7,200.8 L505.6,191.9 L506.4,161.1 L507.2,151.4 L508.1,155.2 L508.9,138.6 L509.8,161.7 L510.6,162.3 L511.5,153.1 L512.3,158.7 L513.1,170.0 L514.0,180.0 L514.8,188.9 L515.7,199.6 L516.5,217.3 L517.4,202.5 L518.2,193.7 L519.0,207.6 L519.9,209.0 L520.7,207.9 L521.6,209.3 L522.4,211.7 L523.3,215.3 L524.1,216.7 L524.9,215.6 L525.8,214.1 L526.6,220.3 L527.5,222.4 L528.3,220.3 L529.2,220.3 L530.0,216.1 L530.8,211.4 L531.7,204.3 L532.5,204.6 L533.4,200.5 L534.2,190.4 L535.1,182.4 L535.9,199.0 L536.7,192.2 L537.6,194.5 L538.4,206.7 L539.3,198.7 L540.1,197.5 L541.0,196.9 L541.8,179.8 L542.6,166.7 L543.5,146.0 L544.3,121.2 L545.2,113.2 L546.0,112.0 L546.9,98.4 L547.7,96.3 L548.5,104.6 L549.4,100.2 L550.2,96.9 L551.1,78.0 L551.9,67.6 L552.8,68.5 L553.6,80.0 L554.4,100.8 L555.3,99.0 L556.1,109.9 L557.0,135.7 L557.8,139.8 L558.7,102.5 L559.5,122.9 L560.3,125.3 L561.2,133.3 L562.0,133.3 L562.9,142.5 L563.7,157.0 L564.6,159.0 L565.4,165.8 L566.2,177.7 L567.1,170.9 L567.9,168.5 L568.8,168.8 L569.6,128.3 L570.4,122.9 L571.3,123.5 L572.1,114.7 L573.0,110.8 L573.8,125.3 L574.7,122.1 L575.5,140.1 L576.3,153.4 L577.2,172.9 L578.0,114.1 L578.9,146.3 L579.7,165.3 L580.6,139.8 L581.4,116.4 L582.2,149.0 L583.1,154.0 L583.9,171.2 L584.8,152.5 L585.6,185.4 L586.5,172.7 L587.3,166.4 L588.1,173.2 L589.0,164.4 L589.8,158.2 L590.7,144.8 L591.5,142.2 L592.4,148.1 L593.2,156.4 L594.0,163.2 L594.9,160.8 L595.7,170.6 L596.6,181.8 L597.4,163.8 L598.3,154.9 L599.1,163.2 L599.9,170.6 L600.8,180.0 L601.6,188.6 L602.5,189.5 L603.3,193.1 L604.2,205.8 L605.0,225.0 L605.8,253.4 L606.7,246.3 L607.5,226.8 L608.4,242.2 L609.2,249.6 L610.1,214.4 L610.9,202.8 L611.7,203.7 L612.6,172.7 L613.4,180.6 L614.3,166.7 L615.1,154.6 L616.0,123.8 L616.8,138.9 L617.6,132.7 L618.5,107.9 L619.3,112.3 L620.2,119.4 L621.0,123.8 L621.9,145.4 L622.7,149.0 L623.5,156.1 L624.4,201.9 L625.2,218.8 L626.1,218.2 L626.9,231.5 L627.8,237.4 L628.6,220.3 L629.4,208.2 L630.3,211.1 L631.1,207.3 L632.0,207.3 L632.8,195.7 L633.7,178.0 L634.5,183.6 L635.3,170.6 L636.2,174.4 L637.0,183.0 L637.9,172.7 L638.7,168.2 L639.6,211.1 L640.4,217.6 L641.2,212.9 L642.1,209.3 L642.9,209.6 L643.8,205.5 L644.6,192.8 L645.4,191.6 L646.3,174.7 L647.1,167.0 L648.0,188.9 L648.8,196.6 L649.7,168.8 L650.5,156.7 L651.3,152.5 L652.2,161.1 L653.0,165.3 L653.9,146.6 L654.7,141.3 L655.6,125.0 L656.4,137.4 L657.2,198.1 L658.1,209.6 L658.9,199.0 L659.8,210.5 L660.6,214.4 L661.5,208.7 L662.3,200.2 L663.1,223.2 L664.0,222.1 L664.8,227.4 L665.7,233.6 L666.5,255.2 L667.4,253.1 L668.2,235.7 L669.0,236.0 L669.9,235.7 L670.7,235.4 L671.6,238.3 L672.4,243.4 L673.3,228.9 L674.1,241.9 L674.9,207.6 L675.8,203.7 L676.6,198.7 L677.5,204.0 L678.3,208.2 L679.2,210.8 L680.0,225.9" stroke="#8c564b" stroke-width="2" fill="none" opacity="0.8"/>
<!-- Forecast Difference -->
<path d="M80.0,420.0 L80.8,420.0 L81.7,420.0 L82.5,420.0 L83.4,420.0 L84.2,420.0 L85.1,420.0 L85.9,420.0 L86.7,420.0 L87.6,420.0 L88.4,420.0 L89.3,420.0 L90.1,420.0 L91.0,420.0 L91.8,420.0 L92.6,420.0 L93.5,420.0 L94.3,420.0 L95.2,420.0 L96.0,420.0 L96.9,420.0 L97.7,420.0 L98.5,420.0 L99.4,420.0 L100.2,420.0 L101.1,420.0 L101.9,420.0 L102.8,420.0 L103.6,420.0 L104.4,420.0 L105.3,420.0 L106.1,420.0 L107.0,420.0 L107.8,420.0 L108.7,420.0 L109.5,420.0 L110.3,420.0 L111.2,420.0 L112.0,420.0 L112.9,420.0 L113.7,420.0 L114.6,420.0 L115.4,420.0 L116.2,420.0 L117.1,420.0 L117.9,420.0 L118.8,420.0 L119.6,420.0 L120.4,420.0 L121.3,420.0 L122.1,420.0 L123.0,420.0 L123.8,420.0 L124.7,420.0 L125.5,420.0 L126.3,420.0 L127.2,420.0 L128.0,420.0 L128.9,420.0 L129.7,420.0 L130.6,420.0 L131.4,420.0 L132.2,420.0 L133.1,420.0 L133.9,420.0 L134.8,420.0 L135.6,420.0 L136.5,420.0 L137.3,420.0 L138.1,420.0 L139.0,420.0 L139.8,420.0 L140.7,420.0 L141.5,420.0 L142.4,420.0 L143.2,420.0 L144.0,420.0 L144.9,420.0 L145.7,420.0 L146.6,420.0 L147.4,420.0 L148.3,420.0 L149.1,420.0 L149.9,420.0 L150.8,420.0 L151.6,420.0 L152.5,420.0 L153.3,420.0 L154.2,420.0 L155.0,420.0 L155.8,420.0 L156.7,420.0 L157.5,420.0 L158.4,420.0 L159.2,420.0 L160.1,420.0 L160.9,420.0 L161.7,420.0 L162.6,420.0 L163.4,420.0 L164.3,420.0 L165.1,420.0 L166.0,420.0 L166.8,420.0 L167.6,420.0 L168.5,420.0 L169.3,420.0 L170.2,420.0 L171.0,420.0 L171.9,420.0 L172.7,420.0 L173.5,420.0 L174.4,420.0 L175.2,420.0 L176.1,420.0 L176.9,420.0 L177.8,420.0 L178.6,420.0 L179.4,420.0 L180.3,420.0 L181.1,420.0 L182.0,420.0 L182.8,420.0 L183.7,420.0 L184.5,420.0 L185.3,420.0 L186.2,420.0 L187.0,420.0 L187.9,420.0 L188.7,420.0 L189.6,420.0 L190.4,420.0 L191.2,420.0 L192.1,420.0 L192.9,420.0 L193.8,420.0 L194.6,420.0 L195.4,420.0 L196.3,420.0 L197.1,420.0 L198.0,420.0 L198.8,420.0 L199.7,420.0 L200.5,420.0 L201.3,420.0 L202.2,420.0 L203.0,420.0 L203.9,420.0 L204.7,420.0 L205.6,420.0 L206.4,420.0 L207.2,420.0 L208.1,420.0 L208.9,420.0 L209.8,420.0 L210.6,420.0 L211.5,420.0 L212.3,420.0 L213.1,420.0 L214.0,420.0 L214.8,420.0 L215.7,420.0 L216.5,420.0 L217.4,420.0 L218.2,420.0 L219.0,420.0 L219.9,420.0 L220.7,420.0 L221.6,420.0 L222.4,420.0 L223.3,420.0 L224.1,420.0 L224.9,420.0 L225.8,420.0 L226.6,420.0 L227.5,420.0 L228.3,420.0 L229.2,420.0 L230.0,420.0 L230.8,420.0 L231.7,420.0 L232.5,420.0 L233.4,420.0 L234.2,420.0 L235.1,420.0 L235.9,420.0 L236.7,420.0 L237.6,420.0 L238.4,420.0 L239.3,420.0 L240.1,420.0 L241.0,420.0 L241.8,420.0 L242.6,420.0 L243.5,420.0 L244.3,420.0 L245.2,420.0 L246.0,420.0 L246.9,420.0 L247.7,420.0 L248.5,420.0 L249.4,420.0 L250.2,420.0 L251.1,420.0 L251.9,420.0 L252.8,420.0 L253.6,420.0 L254.4,420.0 L255.3,420.0 L256.1,420.0 L257.0,420.0 L257.8,420.0 L258.7,420.0 L259.5,420.0 L260.3,420.0 L261.2,420.0 L262.0,420.0 L262.9,420.0 L263.7,420.0 L264.6,420.0 L265.4,420.0 L266.2,420.0 L267.1,420.0 L267.9,420.0 L268.8,420.0 L269.6,420.0 L270.4,420.0 L271.3,420.0 L272.1,420.0 L273.0,420.0 L273.8,420.0 L274.7,420.0 L275.5,420.0 L276.3,420.0 L277.2,420.0 L278.0,420.0 L278.9,420.0 L279.7,420.0 L280.6,420.0 L281.4,420.0 L282.2,420.0 L283.1,420.0 L283.9,420.0 L284.8,420.0 L285.6,420.0 L286.5,420.0 L287.3,420.0 L288.1,420.0 L289.0,420.0 L289.8,420.0 L290.7,420.0 L291.5,420.0 L292.4,420.0 L293.2,420.0 L294.0,420.0 L294.9,420.0 L295.7,420.0 L296.6,420.0 L297.4,420.0 L298.3,420.0 L299.1,420.0 L299.9,420.0 L300.8,420.0 L301.6,420.0 L302.5,420.0 L303.3,420.0 L304.2,420.0 L305.0,420.0 L305.8,420.0 L306.7,420.0 L307.5,420.0 L308.4,420.0 L309.2,420.0 L310.1,420.0 L310.9,420.0 L311.7,420.0 L312.6,420.0 L313.4,420.0 L314.3,420.0 L315.1,420.0 L316.0,420.0 L316.8,420.0 L317.6,420.0 L318.5,420.0 L319.3,420.0 L320.2,420.0 L321.0,420.0 L321.9,420.0 L322.7,420.0 L323.5,420.0 L324.4,420.0 L325.2,420.0 L326.1,420.0 L326.9,420.0 L327.8,420.0 L328.6,420.0 L329.4,420.0 L330.3,420.0 L331.1,420.0 L332.0,420.0 L332.8,420.0 L333.7,420.0 L334.5,420.0 L335.3,420.0 L336.2,420.0 L337.0,420.0 L337.9,420.0 L338.7,420.0 L339.6,420.0 L340.4,420.0 L341.2,420.0 L342.1,420.0 L342.9,420.0 L343.8,420.0 L344.6,420.0 L345.4,420.0 L346.3,420.0 L347.1,420.0 L348.0,420.0 L348.8,420.0 L349.7,420.0 L350.5,420.0 L351.3,420.0 L352.2,420.0 L353.0,420.0 L353.9,420.0 L354.7,420.0 L355.6,420.0 L356.4,420.0 L357.2,420.0 L358.1,420.0 L358.9,420.0 L359.8,420.0 L360.6,420.0 L361.5,420.0 L362.3,420.0 L363.1,420.0 L364.0,420.0 L364.8,420.0 L365.7,420.0 L366.5,420.0 L367.4,420.0 L368.2,420.0 L369.0,420.0 L369.9,420.0 L370.7,420.0 L371.6,420.0 L372.4,420.0 L373.3,420.0 L374.1,420.0 L374.9,420.0 L375.8,420.0 L376.6,420.0 L377.5,420.0 L378.3,420.0 L379.2,420.0 L380.0,420.0 L380.8,420.0 L381.7,420.0 L382.5,420.0 L383.4,420.0 L384.2,420.0 L385.1,420.0 L385.9,420.0 L386.7,420.0 L387.6,420.0 L388.4,420.0 L389.3,420.0 L390.1,420.0 L391.0,420.0 L391.8,420.0 L392.6,420.0 L393.5,420.0 L394.3,420.0 L395.2,420.0 L396.0,420.0 L396.9,420.0 L397.7,420.0 L398.5,420.0 L399.4,420.0 L400.2,420.0 L401.1,420.0 L401.9,420.0 L402.8,420.0 L403.6,420.0 L404.4,420.0 L405.3,420.0 L406.1,420.0 L407.0,420.0 L407.8,420.0 L408.7,420.0 L409.5,420.0 L410.3,420.0 L411.2,420.0 L412.0,420.0 L412.9,420.0 L413.7,420.0 L414.6,420.0 L415.4,420.0 L416.2,420.0 L417.1,420.0 L417.9,420.0 L418.8,420.0 L419.6,420.0 L420.4,420.0 L421.3,420.0 L422.1,420.0 L423.0,420.0 L423.8,420.0 L424.7,420.0 L425.5,420.0 L426.3,420.0 L427.2,420.0 L428.0,420.0 L428.9,420.0 L429.7,420.0 L430.6,420.0 L431.4,420.0 L432.2,420.0 L433.1,420.0 L433.9,420.0 L434.8,420.0 L435.6,420.0 L436.5,420.0 L437.3,420.0 L438.1,420.0 L439.0,420.0 L439.8,420.0 L440.7,420.0 L441.5,420.0 L442.4,420.0 L443.2,420.0 L444.0,420.0 L444.9,420.0 L445.7,420.0 L446.6,420.0 L447.4,420.0 L448.3,420.0 L449.1,420.0 L449.9,420.0 L450.8,420.0 L451.6,420.0 L452.5,420.0 L453.3,420.0 L454.2,420.0 L455.0,420.0 L455.8,420.0 L456.7,420.0 L457.5,420.0 L458.4,420.0 L459.2,420.0 L460.1,420.0 L460.9,420.0 L461.7,420.0 L462.6,420.0 L463.4,420.0 L464.3,420.0 L465.1,420.0 L466.0,420.0 L466.8,420.0 L467.6,420.0 L468.5,420.0 L469.3,420.0 L470.2,420.0 L471.0,420.0 L471.9,420.0 L472.7,420.0 L473.5,420.0 L474.4,420.0 L475.2,420.0 L476.1,420.0 L476.9,420.0 L477.8,420.0 L478.6,420.0 L479.4,420.0 L480.3,420.0 L481.1,420.0 L482.0,420.0 L482.8,420.0 L483.7,420.0 L484.5,420.0 L485.3,420.0 L486.2,420.0 L487.0,420.0 L487.9,420.0 L488.7,420.0 L489.6,420.0 L490.4,420.0 L491.2,420.0 L492.1,420.0 L492.9,420.0 L493.8,420.0 L494.6,420.0 L495.4,420.0 L496.3,420.0 L497.1,420.0 L498.0,420.0 L498.8,420.0 L499.7,420.0 L500.5,420.0 L501.3,420.0 L502.2,420.0 L503.0,420.0 L503.9,420.0 L504.7,420.0 L505.6,420.0 L506.4,420.0 L507.2,420.0 L508.1,420.0 L508.9,420.0 L509.8,420.0 L510.6,420.0 L511.5,420.0 L512.3,420.0 L513.1,420.0 L514.0,420.0 L514.8,420.0 L515.7,420.0 L516.5,420.0 L517.4,420.0 L518.2,420.0 L519.0,420.0 L519.9,420.0 L520.7,420.0 L521.6,420.0 L522.4,420.0 L523.3,420.0 L524.1,420.0 L524.9,420.0 L525.8,420.0 L526.6,420.0 L527.5,420.0 L528.3,420.0 L529.2,420.0 L530.0,420.0 L530.8,420.0 L531.7,420.0 L532.5,420.0 L533.4,420.0 L534.2,420.0 L535.1,420.0 L535.9,420.0 L536.7,420.0 L537.6,420.0 L538.4,420.0 L539.3,420.0 L540.1,420.0 L541.0,420.0 L541.8,420.0 L542.6,420.0 L543.5,420.0 L544.3,420.0 L545.2,420.0 L546.0,420.0 L546.9,420.0 L547.7,420.0 L548.5,420.0 L549.4,420.0 L550.2,420.0 L551.1,420.0 L551.9,420.0 L552.8,420.0 L553.6,420.0 L554.4,420.0 L555.3,420.0 L556.1,420.0 L557.0,420.0 L557.8,420.0 L558.7,420.0 L559.5,420.0 L560.3,420.0 L561.2,420.0 L562.0,420.0 L562.9,420.0 L563.7,420.0 L564.6,420.0 L565.4,420.0 L566.2,420.0 L567.1,420.0 L567.9,420.0 L568.8,420.0 L569.6,420.0 L570.4,420.0 L571.3,420.0 L572.1,420.0 L573.0,420.0 L573.8,420.0 L574.7,420.0 L575.5,420.0 L576.3,420.0 L577.2,420.0 L578.0,420.0 L578.9,420.0 L579.7,420.0 L580.6,420.0 L581.4,420.0 L582.2,420.0 L583.1,420.0 L583.9,420.0 L584.8,420.0 L585.6,420.0 L586.5,420.0 L587.3,420.0 L588.1,420.0 L589.0,420.0 L589.8,420.0 L590.7,420.0 L591.5,420.0 L592.4,420.0 L593.2,420.0 L594.0,420.0 L594.9,420.0 L595.7,420.0 L596.6,420.0 L597.4,420.0 L598.3,420.0 L599.1,420.0 L599.9,420.0 L600.8,420.0 L601.6,420.0 L602.5,420.0 L603.3,420.0 L604.2,420.0 L605.0,420.0 L605.8,420.0 L606.7,420.0 L607.5,420.0 L608.4,420.0 L609.2,420.0 L610.1,420.0 L610.9,420.0 L611.7,420.0 L612.6,420.0 L613.4,420.0 L614.3,420.0 L615.1,420.0 L616.0,420.0 L616.8,420.0 L617.6,420.0 L618.5,420.0 L619.3,420.0 L620.2,420.0 L621.0,420.0 L621.9,420.0 L622.7,420.0 L623.5,420.0 L624.4,420.0 L625.2,420.0 L626.1,420.0 L626.9,420.0 L627.8,420.0 L628.6,420.0 L629.4,420.0 L630.3,420.0 L631.1,420.0 L632.0,420.0 L632.8,420.0 L633.7,420.0 L634.5,420.0 L635.3,420.0 L636.2,420.0 L637.0,420.0 L637.9,420.0 L638.7,420.0 L639.6,420.0 L640.4,420.0 L641.2,420.0 L642.1,420.0 L642.9,420.0 L643.8,420.0 L644.6,420.0 L645.4,420.0 L646.3,420.0 L647.1,420.0 L648.0,420.0 L648.8,420.0 L649.7,420.0 L650.5,420.0 L651.3,420.0 L652.2,420.0 L653.0,420.0 L653.9,420.0 L654.7,420.0 L655.6,420.0 L656.4,420.0 L657.2,420.0 L658.1,420.0 L658.9,420.0 L659.8,420.0 L660.6,420.0 L661.5,420.0 L662.3,420.0 L663.1,420.0 L664.0,420.0 L664.8,420.0 L665.7,420.0 L666.5,420.0 L667.4,420.0 L668.2,420.0 L669.0,420.0 L669.9,420.0 L670.7,420.0 L671.6,420.0 L672.4,420.0 L673.3,420.0 L674.1,420.0 L674.9,420.0 L675.8,420.0 L676.6,420.0 L677.5,420.0 L678.3,420.0 L679.2,420.0 L680.0,420.0" stroke="#e377c2" stroke-width="2" fill="none" opacity="0.8"/>

<!-- Legend -->
<line x1="690" y1="70" x2="705" y2="70" stroke="#1f77b4" stroke-width="3"/>
<text x="710" y="74" class="legend">Wind Generation</text>
<line x1="690" y1="88" x2="705" y2="88" stroke="#ff7f0e" stroke-width="3"/>
<text x="710" y="92" class="legend">Hydro Generation</text>
<line x1="690" y1="106" x2="705" y2="106" stroke="#2ca02c" stroke-width="3"/>
<text x="710" y="110" class="legend">Thermal Generation</text>
<line x1="690" y1="124" x2="705" y2="124" stroke="#d62728" stroke-width="3"/>
<text x="710" y="128" class="legend">Solar Generation</text>
<line x1="690" y1="142" x2="705" y2="142" stroke="#9467bd" stroke-width="3"/>
<text x="710" y="146" class="legend">Forecast</text>
<line x1="690" y1="160" x2="705" y2="160" stroke="#8c564b" stroke-width="3"/>
<text x="710" y="164" class="legend">Total Generation</text>
<line x1="690" y1="178" x2="705" y2="178" stroke="#e377c2" stroke-width="3"/>
<text x="710" y="182" class="legend">Forecast Difference</text>

<!-- Date range -->
<text x="80" y="495" class="legend">Range: 10/29 - 11/27/2025 (713 records)</text>
</svg>