<?xml version="1.0" encoding="UTF-8"?>
<svg width="800" height="500" xmlns="http://www.w3.org/2000/svg">
<style>
.axis-line { stroke: #333; stroke-width: 1; }
.grid-line { stroke: #ddd; stroke-width: 0.5; }
.title { font: 16px Arial; text-anchor: middle; fill: #333; }
.axis-label { font: 12px Arial; text-anchor: middle; fill: #666; }
.legend { font: 10px Arial; fill: #333; }
</style>

<!-- Title -->
<text x="400.0" y="25" class="title">Northwestern Energy Generation Data - Past 30 Days</text>

<!-- Plot area background -->
<rect x="80" y="50" width="600" height="370" fill="white" stroke="#ddd"/>

<!-- Y-axis -->
<line x1="80" y1="50" x2="80" y2="420" class="axis-line"/>
<text x="30" y="235.0" class="axis-label" transform="rotate(-90, 30, 235.0)">Generation (MW)</text>

<!-- X-axis -->
<line x1="80" y1="420" x2="680" y2="420" class="axis-line"/>
<text x="380.0" y="480" class="axis-label">Time</text>
<line x1="80" y1="420.0" x2="680" y2="420.0" class="grid-line"/>
<text x="70" y="425.0" class="legend" text-anchor="end">0</text>
<line x1="80" y1="327.5" x2="680" y2="327.5" class="grid-line"/>
<text x="70" y="332.5" class="legend" text-anchor="end">303</text>
<line x1="80" y1="235.0" x2="680" y2="235.0" class="grid-line"/>
<text x="70" y="240.0" class="legend" text-anchor="end">606</text>
<line x1="80" y1="142.5" x2="680" y2="142.5" class="grid-line"/>
<text x="70" y="147.5" class="legend" text-anchor="end">910</text>
<line x1="80" y1="50.0" x2="680" y2="50.0" class="grid-line"/>
<text x="70" y="55.0" class="legend" text-anchor="end">1213</text>
<!-- Wind Generation -->
<path d="M80.0,411.8 L81.2,410.5 L82.3,416.3 L83.5,398.9 L84.6,403.8 L85.8,397.7 L104.7,416.3 L105.9,413.0 L107.1,409.9 L108.2,405.1 L109.4,401.1 L110.5,369.0 L111.7,373.6 L112.8,372.1 L114.0,381.9 L115.1,403.2 L116.3,406.0 L117.5,407.5 L118.6,417.6 L119.8,409.9 L120.9,403.2 L122.1,398.9 L123.2,400.5 L124.4,413.9 L125.5,419.4 L126.7,420.0 L127.9,418.2 L129.0,416.3 L130.2,417.6 L131.3,415.1 L132.5,407.8 L133.6,412.4 L134.8,377.3 L135.9,394.7 L137.1,410.5 L138.3,378.2 L139.4,406.6 L140.6,385.2 L141.7,389.8 L142.9,386.4 L144.0,399.9 L145.2,412.1 L146.3,393.8 L147.5,383.4 L148.7,381.9 L149.8,387.1 L151.0,408.4 L152.1,415.4 L153.3,416.6 L154.4,412.4 L155.6,409.9 L156.7,411.8 L157.9,413.3 L159.1,414.8 L160.2,411.5 L161.4,407.5 L162.5,398.0 L163.7,390.7 L164.8,382.5 L166.0,370.0 L167.1,373.3 L168.3,378.2 L169.5,378.5 L170.6,384.9 L171.8,393.2 L172.9,393.2 L174.1,373.9 L175.2,390.4 L176.4,402.3 L177.5,403.2 L178.7,399.6 L179.9,400.8 L181.0,404.4 L182.2,401.4 L183.3,406.0 L184.5,410.2 L185.6,408.4 L186.8,407.8 L187.9,408.1 L189.1,402.9 L190.3,394.4 L191.4,391.3 L192.6,381.9 L193.7,373.3 L194.9,379.4 L196.0,373.6 L197.2,374.2 L198.3,372.7 L199.5,391.0 L200.7,408.4 L201.8,414.2 L203.0,417.9 L204.1,420.0 L205.3,420.0 L206.4,420.0 L207.6,420.0 L208.7,419.7 L209.9,416.3 L211.1,415.1 L212.2,415.4 L213.4,415.1 L214.5,415.4 L215.7,414.8 L216.8,409.9 L218.0,401.1 L219.1,387.1 L220.3,378.5 L221.5,351.7 L222.6,345.9 L223.8,352.3 L224.9,342.5 L226.1,351.0 L227.2,381.6 L228.4,384.9 L229.5,394.7 L230.7,410.2 L231.9,416.0 L233.0,417.9 L234.2,420.0 L235.3,420.0 L236.5,420.0 L237.6,415.7 L238.8,409.9 L239.9,412.4 L241.1,413.0 L242.3,414.5 L243.4,416.9 L244.6,414.5 L245.7,413.0 L246.9,401.7 L248.0,387.1 L249.2,375.8 L250.3,355.6 L251.5,362.9 L252.7,386.1 L253.8,408.1 L255.0,416.3 L256.1,418.8 L257.3,420.0 L258.4,420.0 L259.6,419.7 L260.7,419.7 L261.9,420.0 L263.1,420.0 L264.2,420.0 L265.4,416.0 L266.5,412.7 L267.7,415.1 L268.8,417.9 L270.0,416.0 L271.1,416.0 L272.3,412.1 L273.5,405.1 L274.6,390.7 L275.8,372.1 L276.9,354.4 L278.1,349.5 L279.2,353.8 L280.4,373.0 L281.3,390.7 L282.5,405.1 L283.7,411.8 L284.8,418.2 L286.0,419.7 L287.1,420.0 L288.3,419.7 L289.4,418.8 L290.6,419.1 L291.7,415.7 L292.9,407.8 L294.1,399.9 L295.2,400.8 L296.4,398.9 L297.5,404.7 L298.7,406.9 L299.8,403.5 L301.0,392.2 L302.1,373.9 L303.3,368.4 L304.5,327.3 L305.6,324.2 L306.8,320.2 L307.9,335.5 L309.1,351.0 L310.2,364.8 L311.4,380.6 L312.5,393.2 L313.7,398.0 L314.9,404.1 L316.0,402.9 L317.2,401.1 L318.3,406.9 L319.5,405.1 L320.6,399.3 L321.8,388.0 L322.9,374.2 L324.1,379.1 L325.3,393.5 L326.4,394.1 L327.6,381.6 L328.7,388.0 L329.9,393.8 L331.0,394.1 L332.2,401.7 L333.3,402.3 L334.5,406.6 L335.7,405.4 L336.8,414.2 L338.0,408.7 L339.1,414.5 L340.3,404.4 L341.4,404.1 L342.6,402.0 L343.7,398.0 L344.9,402.3 L346.1,407.5 L347.2,415.7 L348.4,417.3 L349.5,416.9 L350.7,418.5 L351.8,420.0 L353.0,417.6 L354.1,397.7 L355.3,392.5 L356.5,373.6 L357.6,374.8 L358.8,390.1 L359.9,410.2 L361.1,410.5 L362.2,411.5 L363.4,412.1 L364.5,405.4 L365.7,397.4 L366.9,391.6 L368.0,396.5 L369.2,403.2 L370.3,404.1 L371.5,406.6 L372.6,408.7 L373.8,413.6 L374.9,410.8 L376.1,411.5 L377.3,403.8 L378.4,398.9 L379.6,399.6 L380.7,395.0 L381.9,352.3 L383.0,369.4 L384.2,382.2 L385.3,373.6 L386.5,388.6 L387.7,395.3 L388.8,409.6 L390.0,409.9 L391.1,412.1 L392.3,408.7 L393.4,411.2 L394.6,409.3 L395.7,393.5 L396.9,394.4 L398.1,393.8 L399.2,394.7 L400.4,398.9 L401.5,409.9 L402.7,410.5 L403.8,402.9 L405.0,396.5 L406.1,398.9 L407.3,388.9 L408.5,395.0 L409.6,399.3 L410.8,405.1 L411.9,402.3 L413.1,410.8 L414.2,409.6 L415.4,403.5 L416.5,404.7 L417.7,415.4 L418.9,417.3 L420.0,414.5 L421.2,412.1 L422.3,411.8 L423.5,406.3 L424.6,404.4 L425.8,398.9 L426.9,403.5 L428.1,403.8 L429.3,409.9 L430.4,413.3 L431.6,414.2 L432.7,412.4 L433.9,405.7 L435.0,400.8 L436.2,403.2 L437.3,407.5 L438.5,407.5 L439.7,407.8 L440.8,413.9 L442.0,413.6 L443.1,413.3 L444.3,410.5 L445.4,415.7 L446.6,418.2 L447.7,419.4 L448.9,420.0 L450.1,419.7 L451.2,420.0 L452.4,420.0 L453.5,419.4 L454.7,418.5 L455.8,417.9 L457.0,418.5 L458.1,420.0 L459.3,419.1 L460.5,415.4 L461.6,413.9 L462.8,410.8 L463.9,414.2 L465.1,404.4 L466.2,392.8 L467.4,398.6 L468.5,395.6 L469.7,366.0 L470.9,367.2 L472.0,362.9 L473.2,368.1 L474.3,388.9 L475.5,398.3 L476.6,405.4 L477.8,409.6 L478.9,412.7 L480.1,418.2 L481.3,412.4 L482.4,415.4 L483.6,406.6 L484.7,412.1 L485.9,415.7 L487.0,413.0 L488.2,409.0 L489.3,407.8 L490.5,403.8 L491.7,403.8 L492.8,391.9 L494.0,396.2 L495.1,390.7 L496.3,388.0 L497.4,384.6 L498.6,379.7 L499.7,386.7 L500.9,385.5 L502.1,392.2 L503.2,403.8 L504.4,406.9 L505.5,416.0 L506.7,417.6 L507.8,419.4 L509.0,420.0 L510.1,420.0 L511.3,420.0 L512.5,420.0 L513.6,419.1 L514.8,419.4 L515.9,418.5 L517.1,414.5 L518.2,402.6 L519.4,392.5 L520.5,373.3 L521.7,369.0 L522.9,382.2 L524.0,374.8 L525.2,373.9 L526.3,399.6 L527.5,417.9 L528.6,418.5 L529.8,407.5 L530.9,406.3 L532.1,402.0 L533.2,383.7 L534.4,378.2 L535.6,363.3 L536.7,334.3 L537.9,328.2 L539.0,321.2 L540.2,319.9 L541.3,316.6 L542.5,323.6 L543.6,326.9 L544.8,329.4 L546.0,332.1 L547.1,323.9 L548.3,330.6 L549.4,326.3 L550.6,331.2 L551.7,348.9 L552.9,372.1 L554.0,382.8 L555.2,391.9 L556.4,401.1 L557.5,409.3 L558.7,408.4 L559.8,407.8 L561.0,405.7 L562.1,404.7 L563.3,406.3 L564.4,412.7 L565.6,414.5 L566.8,418.2 L567.9,420.0 L569.1,420.0 L570.2,420.0 L571.4,418.5 L572.5,417.6 L573.7,413.9 L574.8,416.9 L576.0,418.2 L577.2,419.1 L578.3,416.3 L579.5,412.1 L580.6,399.9 L581.8,380.0 L582.9,375.5 L584.1,380.3 L585.2,395.3 L586.4,404.1 L587.6,417.9 L588.7,420.0 L589.9,420.0 L591.0,420.0 L592.2,420.0 L593.3,419.4 L594.5,419.7 L595.6,419.4 L596.8,418.8 L598.0,419.1 L599.1,418.5 L600.3,417.6 L601.4,414.8 L602.6,414.5 L603.7,411.5 L604.9,408.7 L606.0,402.3 L607.2,385.8 L608.4,367.8 L609.5,368.1 L610.7,380.0 L611.8,400.2 L613.0,415.7 L614.1,420.0 L615.3,420.0 L616.4,419.1 L617.6,417.9 L618.8,412.4 L619.9,402.3 L621.1,383.7 L622.2,376.1 L623.4,360.8 L624.5,357.2 L625.7,332.1 L626.8,348.0 L628.0,339.8 L629.2,352.6 L630.3,360.8 L631.5,353.8 L632.6,360.8 L633.8,396.5 L634.9,411.5 L636.1,412.7 L637.2,404.7 L638.4,404.7 L639.6,375.8 L640.7,332.7 L641.9,362.9 L643.0,324.2 L644.2,332.7 L645.3,361.1 L646.5,349.2 L647.6,330.9 L648.8,334.6 L650.0,363.9 L651.1,373.0 L652.3,386.4 L653.4,390.1 L654.6,394.1 L655.7,380.6 L656.9,385.8 L658.0,376.1 L659.2,362.6 L660.4,371.8 L661.5,387.4 L662.7,403.5 L663.8,407.8 L665.0,405.7 L666.1,410.2 L667.3,416.9 L668.4,416.3 L669.6,419.1 L670.8,419.7 L671.9,419.7 L673.1,420.0 L674.2,420.0 L675.4,419.7 L676.5,419.1 L677.7,419.1 L678.8,420.0 L680.0,420.0" stroke="#1f77b4" stroke-width="2" fill="none" opacity="0.8"/>
<!-- Hydro Generation -->
<path d="M80.0,352.6 L81.2,353.5 L82.3,353.2 L83.5,353.8 L84.6,353.8 L85.8,353.5 L104.7,352.9 L105.9,353.5 L107.1,353.2 L108.2,353.2 L109.4,353.5 L110.5,353.5 L111.7,352.6 L112.8,353.2 L114.0,352.6 L115.1,352.6 L116.3,352.6 L117.5,352.3 L118.6,352.9 L119.8,352.6 L120.9,352.6 L122.1,352.9 L123.2,352.3 L124.4,352.6 L125.5,352.6 L126.7,352.3 L127.9,352.6 L129.0,352.9 L130.2,353.5 L131.3,353.5 L132.5,352.9 L133.6,353.5 L134.8,353.2 L135.9,353.2 L137.1,353.2 L138.3,353.2 L139.4,353.2 L140.6,353.2 L141.7,353.5 L142.9,353.5 L144.0,353.2 L145.2,353.2 L146.3,353.2 L147.5,352.9 L148.7,353.5 L149.8,353.2 L151.0,353.2 L152.1,352.6 L153.3,353.2 L154.4,353.5 L155.6,353.5 L156.7,353.8 L157.9,353.8 L159.1,354.1 L160.2,354.7 L161.4,354.4 L162.5,354.4 L163.7,354.1 L164.8,354.1 L166.0,355.3 L167.1,355.0 L168.3,355.3 L169.5,355.3 L170.6,355.3 L171.8,355.6 L172.9,355.3 L174.1,355.9 L175.2,355.6 L176.4,355.3 L177.5,356.2 L178.7,356.2 L179.9,355.6 L181.0,355.9 L182.2,356.8 L183.3,356.8 L184.5,356.8 L185.6,354.1 L186.8,357.2 L187.9,356.8 L189.1,356.8 L190.3,357.5 L191.4,351.7 L192.6,358.1 L193.7,359.0 L194.9,359.0 L196.0,358.7 L197.2,359.0 L198.3,358.7 L199.5,359.0 L200.7,358.7 L201.8,359.0 L203.0,359.0 L204.1,359.0 L205.3,359.3 L206.4,359.6 L207.6,359.6 L208.7,361.1 L209.9,361.1 L211.1,360.8 L212.2,361.4 L213.4,360.5 L214.5,360.5 L215.7,360.8 L216.8,361.1 L218.0,359.3 L219.1,359.6 L220.3,359.6 L221.5,358.7 L222.6,359.0 L223.8,359.0 L224.9,358.1 L226.1,357.8 L227.2,358.1 L228.4,357.8 L229.5,357.8 L230.7,357.5 L231.9,357.5 L233.0,357.8 L234.2,357.8 L235.3,357.5 L236.5,358.1 L237.6,358.4 L238.8,358.1 L239.9,358.7 L241.1,358.1 L242.3,358.4 L243.4,358.1 L244.6,358.7 L245.7,358.4 L246.9,358.4 L248.0,358.7 L249.2,357.2 L250.3,357.2 L251.5,356.5 L252.7,356.2 L253.8,356.2 L255.0,356.2 L256.1,356.5 L257.3,356.2 L258.4,356.2 L259.6,356.2 L260.7,356.2 L261.9,356.8 L263.1,359.3 L264.2,358.4 L265.4,359.0 L266.5,358.7 L267.7,359.3 L268.8,359.0 L270.0,359.0 L271.1,359.3 L272.3,359.9 L273.5,359.6 L274.6,359.6 L275.8,359.3 L276.9,359.0 L278.1,358.1 L279.2,357.8 L280.4,358.1 L281.3,357.8 L282.5,358.4 L283.7,358.1 L284.8,357.8 L286.0,356.8 L287.1,357.2 L288.3,356.5 L289.4,356.2 L290.6,356.2 L291.7,356.5 L292.9,356.5 L294.1,356.2 L295.2,355.9 L296.4,356.2 L297.5,356.5 L298.7,355.9 L299.8,356.2 L301.0,356.2 L302.1,356.5 L303.3,356.5 L304.5,356.8 L305.6,356.5 L306.8,356.5 L307.9,356.2 L309.1,356.8 L310.2,356.2 L311.4,356.5 L312.5,356.2 L313.7,356.2 L314.9,356.8 L316.0,356.5 L317.2,356.8 L318.3,356.2 L319.5,357.2 L320.6,355.9 L321.8,356.8 L322.9,356.2 L324.1,356.8 L325.3,356.5 L326.4,356.2 L327.6,356.5 L328.7,356.8 L329.9,356.5 L331.0,356.5 L332.2,356.5 L333.3,357.2 L334.5,356.5 L335.7,356.8 L336.8,356.8 L338.0,356.5 L339.1,357.2 L340.3,356.5 L341.4,357.2 L342.6,356.8 L343.7,357.2 L344.9,357.5 L346.1,357.5 L347.2,357.2 L348.4,356.8 L349.5,356.2 L350.7,356.5 L351.8,356.8 L353.0,356.8 L354.1,356.5 L355.3,356.5 L356.5,354.7 L357.6,355.0 L358.8,354.4 L359.9,354.1 L361.1,354.1 L362.2,353.8 L363.4,353.5 L364.5,353.5 L365.7,353.5 L366.9,352.9 L368.0,352.9 L369.2,352.9 L370.3,352.6 L371.5,352.3 L372.6,352.6 L373.8,352.9 L374.9,352.9 L376.1,352.6 L377.3,352.6 L378.4,353.2 L379.6,353.5 L380.7,353.5 L381.9,353.2 L383.0,353.5 L384.2,353.5 L385.3,353.2 L386.5,353.5 L387.7,353.5 L388.8,353.8 L390.0,353.8 L391.1,354.1 L392.3,354.7 L393.4,354.7 L394.6,354.4 L395.7,354.4 L396.9,354.7 L398.1,354.4 L399.2,354.7 L400.4,355.0 L401.5,356.2 L402.7,355.9 L403.8,356.2 L405.0,356.2 L406.1,355.9 L407.3,356.2 L408.5,355.6 L409.6,355.6 L410.8,355.6 L411.9,355.6 L413.1,355.3 L414.2,355.3 L415.4,353.2 L416.5,353.2 L417.7,352.9 L418.9,353.2 L420.0,353.2 L421.2,353.2 L422.3,352.6 L423.5,352.3 L424.6,352.3 L425.8,352.0 L426.9,352.6 L428.1,352.9 L429.3,354.1 L430.4,353.8 L431.6,354.1 L432.7,354.1 L433.9,353.8 L435.0,353.8 L436.2,353.8 L437.3,354.4 L438.5,353.8 L439.7,353.8 L440.8,354.1 L442.0,354.4 L443.1,354.4 L444.3,353.8 L445.4,353.8 L446.6,353.8 L447.7,353.5 L448.9,353.8 L450.1,353.5 L451.2,353.2 L452.4,353.2 L453.5,353.2 L454.7,353.2 L455.8,353.2 L457.0,355.0 L458.1,355.3 L459.3,355.0 L460.5,355.0 L461.6,355.0 L462.8,355.0 L463.9,355.0 L465.1,355.0 L466.2,354.7 L467.4,354.7 L468.5,354.7 L469.7,354.7 L470.9,355.0 L472.0,354.1 L473.2,353.8 L474.3,354.1 L475.5,353.8 L476.6,352.6 L477.8,352.6 L478.9,350.4 L480.1,351.4 L481.3,350.4 L482.4,350.1 L483.6,349.8 L484.7,349.8 L485.9,350.4 L487.0,350.7 L488.2,350.7 L489.3,351.4 L490.5,351.7 L491.7,351.7 L492.8,352.0 L494.0,352.6 L495.1,352.6 L496.3,353.8 L497.4,353.8 L498.6,353.8 L499.7,355.0 L500.9,354.7 L502.1,354.4 L503.2,355.0 L504.4,354.7 L505.5,354.7 L506.7,354.7 L507.8,354.7 L509.0,355.0 L510.1,355.0 L511.3,355.3 L512.5,355.3 L513.6,355.9 L514.8,355.6 L515.9,355.3 L517.1,355.6 L518.2,355.0 L519.4,359.3 L520.5,359.6 L521.7,355.0 L522.9,354.1 L524.0,354.7 L525.2,355.0 L526.3,354.7 L527.5,354.7 L528.6,354.7 L529.8,354.7 L530.9,354.1 L532.1,354.1 L533.2,353.8 L534.4,353.2 L535.6,353.5 L536.7,353.5 L537.9,353.8 L539.0,354.1 L540.2,354.4 L541.3,354.1 L542.5,354.1 L543.6,354.1 L544.8,355.3 L546.0,355.3 L547.1,355.3 L548.3,355.6 L549.4,355.6 L550.6,355.3 L551.7,353.5 L552.9,356.2 L554.0,355.9 L555.2,357.2 L556.4,357.8 L557.5,357.8 L558.7,357.8 L559.8,357.8 L561.0,357.5 L562.1,355.9 L563.3,355.9 L564.4,355.6 L565.6,355.6 L566.8,355.3 L567.9,355.3 L569.1,354.7 L570.2,354.4 L571.4,353.5 L572.5,353.2 L573.7,353.5 L574.8,353.2 L576.0,354.1 L577.2,353.8 L578.3,353.2 L579.5,353.8 L580.6,353.8 L581.8,353.5 L582.9,353.2 L584.1,354.1 L585.2,354.1 L586.4,354.1 L587.6,354.4 L588.7,354.4 L589.9,354.7 L591.0,355.3 L592.2,355.3 L593.3,355.3 L594.5,355.9 L595.6,356.2 L596.8,355.9 L598.0,355.9 L599.1,356.8 L600.3,357.2 L601.4,356.8 L602.6,357.2 L603.7,357.2 L604.9,356.5 L606.0,356.2 L607.2,356.5 L608.4,356.8 L609.5,356.2 L610.7,355.9 L611.8,355.3 L613.0,355.3 L614.1,355.3 L615.3,355.6 L616.4,355.3 L617.6,354.4 L618.8,354.4 L619.9,354.4 L621.1,354.4 L622.2,355.3 L623.4,355.3 L624.5,355.0 L625.7,354.4 L626.8,354.7 L628.0,353.5 L629.2,354.4 L630.3,353.8 L631.5,353.8 L632.6,353.2 L633.8,353.2 L634.9,353.5 L636.1,353.8 L637.2,354.4 L638.4,354.7 L639.6,355.0 L640.7,354.7 L641.9,357.5 L643.0,354.4 L644.2,354.4 L645.3,354.1 L646.5,354.4 L647.6,353.8 L648.8,353.8 L650.0,353.8 L651.1,354.1 L652.3,354.7 L653.4,354.4 L654.6,354.7 L655.7,354.4 L656.9,354.1 L658.0,355.0 L659.2,354.4 L660.4,354.4 L661.5,354.7 L662.7,354.1 L663.8,353.8 L665.0,353.8 L666.1,353.8 L667.3,354.1 L668.4,353.8 L669.6,354.1 L670.8,354.7 L671.9,354.4 L673.1,354.7 L674.2,355.0 L675.4,354.4 L676.5,354.4 L677.7,355.0 L678.8,354.7 L680.0,354.7" stroke="#ff7f0e" stroke-width="2" fill="none" opacity="0.8"/>
<!-- Thermal Generation -->
<path d="M80.0,314.7 L81.2,315.0 L82.3,313.8 L83.5,316.3 L84.6,328.8 L85.8,338.8 L104.7,332.4 L105.9,333.0 L107.1,338.8 L108.2,328.8 L109.4,329.1 L110.5,328.5 L111.7,326.3 L112.8,324.8 L114.0,321.5 L115.1,317.2 L116.3,321.2 L117.5,320.5 L118.6,319.9 L119.8,319.0 L120.9,320.5 L122.1,321.5 L123.2,337.9 L124.4,338.2 L125.5,338.2 L126.7,339.5 L127.9,340.7 L129.0,341.6 L130.2,326.6 L131.3,327.9 L132.5,327.9 L133.6,328.2 L134.8,328.5 L135.9,328.5 L137.1,327.9 L138.3,326.9 L139.4,326.3 L140.6,325.1 L141.7,321.8 L142.9,322.1 L144.0,321.2 L145.2,320.5 L146.3,320.2 L147.5,322.4 L148.7,320.5 L149.8,320.8 L151.0,321.8 L152.1,322.4 L153.3,320.5 L154.4,323.3 L155.6,322.7 L156.7,323.6 L157.9,323.9 L159.1,324.5 L160.2,324.2 L161.4,323.9 L162.5,324.2 L163.7,324.5 L164.8,323.0 L166.0,323.0 L167.1,323.3 L168.3,325.7 L169.5,322.1 L170.6,321.2 L171.8,321.5 L172.9,320.5 L174.1,320.5 L175.2,320.8 L176.4,323.6 L177.5,319.9 L178.7,320.8 L179.9,337.9 L181.0,339.5 L182.2,333.0 L183.3,322.1 L184.5,323.3 L185.6,323.0 L186.8,323.6 L187.9,323.9 L189.1,327.3 L190.3,326.3 L191.4,323.3 L192.6,323.3 L193.7,322.4 L194.9,322.4 L196.0,321.8 L197.2,321.8 L198.3,321.8 L199.5,320.5 L200.7,319.6 L201.8,319.3 L203.0,319.6 L204.1,322.1 L205.3,319.3 L206.4,330.6 L207.6,328.2 L208.7,331.2 L209.9,338.8 L211.1,322.4 L212.2,323.3 L213.4,323.6 L214.5,324.2 L215.7,323.6 L216.8,323.3 L218.0,309.9 L219.1,308.9 L220.3,311.1 L221.5,307.1 L222.6,307.4 L223.8,308.3 L224.9,307.4 L226.1,306.5 L227.2,305.6 L228.4,305.9 L229.5,305.0 L230.7,304.4 L231.9,304.1 L233.0,304.7 L234.2,307.7 L235.3,336.7 L236.5,338.2 L237.6,338.8 L238.8,338.5 L239.9,341.0 L241.1,313.5 L242.3,308.3 L243.4,306.8 L244.6,310.5 L245.7,308.9 L246.9,304.4 L248.0,303.8 L249.2,300.4 L250.3,298.3 L251.5,311.4 L252.7,304.7 L253.8,306.5 L255.0,296.7 L256.1,319.6 L257.3,323.0 L258.4,322.4 L259.6,295.8 L260.7,298.6 L261.9,298.6 L263.1,323.3 L264.2,309.9 L265.4,311.1 L266.5,312.6 L267.7,313.2 L268.8,309.3 L270.0,307.7 L271.1,307.4 L272.3,306.5 L273.5,307.1 L274.6,307.1 L275.8,305.3 L276.9,305.0 L278.1,301.6 L279.2,303.8 L280.4,298.3 L281.3,297.4 L282.5,305.9 L283.7,296.1 L284.8,297.4 L286.0,299.8 L287.1,300.7 L288.3,297.4 L289.4,297.7 L290.6,300.7 L291.7,301.0 L292.9,307.7 L294.1,321.2 L295.2,307.4 L296.4,320.2 L297.5,313.8 L298.7,313.2 L299.8,311.4 L301.0,312.6 L302.1,310.8 L303.3,311.4 L304.5,308.6 L305.6,306.2 L306.8,305.3 L307.9,301.9 L309.1,340.7 L310.2,340.1 L311.4,328.2 L312.5,327.6 L313.7,326.9 L314.9,326.6 L316.0,312.3 L317.2,327.3 L318.3,332.4 L319.5,327.6 L320.6,327.9 L321.8,328.5 L322.9,331.8 L324.1,326.9 L325.3,325.4 L326.4,305.0 L327.6,305.6 L328.7,305.9 L329.9,311.1 L331.0,308.0 L332.2,312.6 L333.3,305.9 L334.5,304.7 L335.7,303.5 L336.8,303.5 L338.0,329.1 L339.1,323.3 L340.3,324.2 L341.4,340.7 L342.6,340.4 L343.7,329.1 L344.9,327.3 L346.1,327.6 L347.2,331.2 L348.4,331.5 L349.5,326.9 L350.7,325.7 L351.8,326.0 L353.0,329.1 L354.1,319.9 L355.3,319.6 L356.5,316.3 L357.6,313.8 L358.8,313.5 L359.9,312.3 L361.1,310.8 L362.2,310.8 L363.4,310.8 L364.5,308.3 L365.7,306.2 L366.9,336.4 L368.0,335.2 L369.2,334.9 L370.3,334.3 L371.5,325.7 L372.6,325.1 L373.8,328.2 L374.9,328.2 L376.1,330.0 L377.3,335.2 L378.4,335.8 L379.6,345.6 L380.7,345.9 L381.9,345.3 L383.0,345.3 L384.2,343.7 L385.3,327.3 L386.5,324.2 L387.7,321.2 L388.8,322.4 L390.0,321.8 L391.1,321.5 L392.3,326.6 L393.4,337.9 L394.6,338.2 L395.7,337.9 L396.9,338.2 L398.1,338.5 L399.2,338.5 L400.4,339.2 L401.5,338.2 L402.7,337.9 L403.8,340.7 L405.0,341.3 L406.1,341.3 L407.3,341.9 L408.5,339.2 L409.6,341.9 L410.8,341.6 L411.9,312.3 L413.1,312.0 L414.2,313.5 L415.4,312.9 L416.5,312.3 L417.7,322.1 L418.9,321.5 L420.0,319.6 L421.2,335.5 L422.3,330.0 L423.5,327.9 L424.6,327.9 L425.8,327.6 L426.9,327.3 L428.1,327.6 L429.3,328.2 L430.4,329.4 L431.6,330.6 L432.7,330.9 L433.9,331.5 L435.0,332.1 L436.2,332.4 L437.3,312.3 L438.5,304.4 L439.7,304.1 L440.8,303.5 L442.0,302.8 L443.1,315.0 L444.3,301.6 L445.4,300.4 L446.6,310.8 L447.7,311.1 L448.9,327.3 L450.1,326.9 L451.2,327.6 L452.4,326.6 L453.5,326.6 L454.7,326.3 L455.8,328.2 L457.0,328.8 L458.1,330.0 L459.3,332.4 L460.5,331.8 L461.6,332.7 L462.8,333.0 L463.9,315.7 L465.1,309.3 L466.2,308.3 L467.4,308.0 L468.5,307.4 L469.7,306.8 L470.9,303.5 L472.0,301.9 L473.2,301.6 L474.3,303.8 L475.5,300.1 L476.6,299.5 L477.8,304.1 L478.9,303.8 L480.1,303.1 L481.3,303.1 L482.4,302.8 L483.6,309.3 L484.7,303.8 L485.9,305.0 L487.0,307.1 L488.2,307.7 L489.3,309.3 L490.5,336.1 L491.7,348.3 L492.8,349.2 L494.0,350.1 L495.1,349.2 L496.3,348.3 L497.4,346.8 L498.6,345.3 L499.7,343.7 L500.9,343.1 L502.1,341.9 L503.2,342.2 L504.4,342.2 L505.5,341.3 L506.7,341.0 L507.8,343.4 L509.0,339.8 L510.1,340.1 L511.3,343.7 L512.5,344.0 L513.6,342.5 L514.8,342.5 L515.9,344.9 L517.1,334.9 L518.2,336.1 L519.4,336.7 L520.5,336.7 L521.7,335.5 L522.9,335.5 L524.0,334.6 L525.2,333.4 L526.3,333.4 L527.5,331.5 L528.6,330.0 L529.8,330.0 L530.9,332.1 L532.1,330.6 L533.2,330.6 L534.4,330.6 L535.6,331.2 L536.7,331.5 L537.9,331.5 L539.0,343.7 L540.2,360.2 L541.3,362.3 L542.5,361.7 L543.6,362.6 L544.8,360.8 L546.0,360.5 L547.1,346.5 L548.3,334.3 L549.4,336.1 L550.6,348.6 L551.7,333.4 L552.9,334.9 L554.0,332.1 L555.2,332.1 L556.4,333.0 L557.5,335.2 L558.7,333.4 L559.8,333.4 L561.0,332.1 L562.1,332.1 L563.3,331.8 L564.4,333.0 L565.6,334.6 L566.8,334.9 L567.9,343.4 L569.1,351.7 L570.2,352.6 L571.4,348.6 L572.5,350.1 L573.7,350.7 L574.8,348.0 L576.0,343.4 L577.2,336.1 L578.3,333.4 L579.5,330.6 L580.6,330.3 L581.8,329.1 L582.9,330.3 L584.1,329.1 L585.2,328.8 L586.4,350.7 L587.6,355.6 L588.7,356.8 L589.9,356.8 L591.0,357.2 L592.2,356.8 L593.3,358.1 L594.5,357.8 L595.6,355.0 L596.8,355.0 L598.0,356.5 L599.1,360.2 L600.3,361.4 L601.4,362.6 L602.6,363.6 L603.7,364.2 L604.9,344.3 L606.0,335.5 L607.2,335.5 L608.4,333.7 L609.5,334.6 L610.7,344.6 L611.8,343.1 L613.0,358.7 L614.1,341.6 L615.3,358.7 L616.4,358.7 L617.6,358.7 L618.8,359.6 L619.9,358.4 L621.1,358.1 L622.2,358.7 L623.4,359.0 L624.5,360.2 L625.7,362.0 L626.8,363.6 L628.0,364.2 L629.2,365.7 L630.3,365.7 L631.5,366.0 L632.6,365.4 L633.8,358.7 L634.9,338.8 L636.1,337.0 L637.2,338.8 L638.4,336.1 L639.6,344.0 L640.7,361.7 L641.9,362.6 L643.0,363.6 L644.2,362.3 L645.3,362.3 L646.5,362.0 L647.6,362.0 L648.8,362.3 L650.0,361.4 L651.1,359.3 L652.3,359.3 L653.4,360.8 L654.6,348.0 L655.7,337.0 L656.9,337.6 L658.0,339.5 L659.2,345.3 L660.4,341.0 L661.5,363.9 L662.7,362.9 L663.8,361.7 L665.0,361.4 L666.1,361.1 L667.3,334.0 L668.4,334.0 L669.6,332.7 L670.8,353.5 L671.9,353.2 L673.1,352.9 L674.2,353.5 L675.4,341.9 L676.5,334.6 L677.7,332.7 L678.8,332.4 L680.0,334.0" stroke="#2ca02c" stroke-width="2" fill="none" opacity="0.8"/>
<!-- Solar Generation -->
<path d="M80.0,392.2 L81.2,411.2 L82.3,420.0 L83.5,420.0 L84.6,420.0 L85.8,420.0 L104.7,393.5 L105.9,382.2 L107.1,384.6 L108.2,399.3 L109.4,418.2 L110.5,420.0 L111.7,420.0 L112.8,420.0 L114.0,420.0 L115.1,420.0 L116.3,420.0 L117.5,420.0 L118.6,420.0 L119.8,420.0 L120.9,420.0 L122.1,418.2 L123.2,404.4 L124.4,380.3 L125.5,378.2 L126.7,387.4 L127.9,379.7 L129.0,384.6 L130.2,388.3 L131.3,398.3 L132.5,401.1 L133.6,400.5 L134.8,408.1 L135.9,415.7 L137.1,418.2 L138.3,420.0 L139.4,420.0 L140.6,420.0 L141.7,420.0 L142.9,420.0 L144.0,420.0 L145.2,420.0 L146.3,420.0 L147.5,420.0 L148.7,420.0 L149.8,418.2 L151.0,406.0 L152.1,387.7 L153.3,378.2 L154.4,380.9 L155.6,378.8 L156.7,380.0 L157.9,377.3 L159.1,377.0 L160.2,377.0 L161.4,377.3 L162.5,389.8 L163.7,402.9 L164.8,418.5 L166.0,420.0 L167.1,420.0 L168.3,420.0 L169.5,420.0 L170.6,420.0 L171.8,420.0 L172.9,420.0 L174.1,420.0 L175.2,420.0 L176.4,420.0 L177.5,419.4 L178.7,409.0 L179.9,393.8 L181.0,385.5 L182.2,379.7 L183.3,384.6 L184.5,377.3 L185.6,383.1 L186.8,375.5 L187.9,375.8 L189.1,376.7 L190.3,380.6 L191.4,400.2 L192.6,418.5 L193.7,420.0 L194.9,420.0 L196.0,420.0 L197.2,420.0 L198.3,420.0 L199.5,420.0 L200.7,420.0 L201.8,420.0 L203.0,420.0 L204.1,420.0 L205.3,418.5 L206.4,397.1 L207.6,379.4 L208.7,376.1 L209.9,375.8 L211.1,375.8 L212.2,376.1 L213.4,375.5 L214.5,376.4 L215.7,377.3 L216.8,376.7 L218.0,386.1 L219.1,408.1 L220.3,418.5 L221.5,420.0 L222.6,420.0 L223.8,420.0 L224.9,420.0 L226.1,420.0 L227.2,420.0 L228.4,420.0 L229.5,420.0 L230.7,420.0 L231.9,420.0 L233.0,419.1 L234.2,399.6 L235.3,378.8 L236.5,376.4 L237.6,375.5 L238.8,375.8 L239.9,380.0 L241.1,377.6 L242.3,380.0 L243.4,379.4 L244.6,382.2 L245.7,385.2 L246.9,401.7 L248.0,419.1 L249.2,420.0 L250.3,420.0 L251.5,420.0 L252.7,420.0 L253.8,420.0 L255.0,420.0 L256.1,420.0 L257.3,420.0 L258.4,420.0 L259.6,420.0 L260.7,418.5 L261.9,402.0 L263.1,381.3 L264.2,377.9 L265.4,378.2 L266.5,376.1 L267.7,379.7 L268.8,376.4 L270.0,387.4 L271.1,382.2 L272.3,392.8 L273.5,398.0 L274.6,410.2 L275.8,419.4 L276.9,420.0 L278.1,420.0 L279.2,420.0 L280.4,420.0 L281.3,420.0 L282.5,420.0 L283.7,420.0 L284.8,420.0 L286.0,420.0 L287.1,420.0 L288.3,419.7 L289.4,412.7 L290.6,398.3 L291.7,406.3 L292.9,394.4 L294.1,395.3 L295.2,390.1 L296.4,393.8 L297.5,382.8 L298.7,379.4 L299.8,391.6 L301.0,413.0 L302.1,412.4 L303.3,419.7 L304.5,420.0 L305.6,420.0 L306.8,420.0 L307.9,420.0 L309.1,420.0 L310.2,420.0 L311.4,420.0 L312.5,420.0 L313.7,420.0 L314.9,420.0 L316.0,419.7 L317.2,416.0 L318.3,415.1 L319.5,414.2 L320.6,412.7 L321.8,409.3 L322.9,406.3 L324.1,411.2 L325.3,404.1 L326.4,400.5 L327.6,407.5 L328.7,411.8 L329.9,418.5 L331.0,420.0 L332.2,420.0 L333.3,420.0 L334.5,420.0 L335.7,420.0 L336.8,420.0 L338.0,420.0 L339.1,420.0 L340.3,420.0 L341.4,420.0 L342.6,420.0 L343.7,420.0 L344.9,417.9 L346.1,412.4 L347.2,411.5 L348.4,404.4 L349.5,402.3 L350.7,398.0 L351.8,397.1 L353.0,399.9 L354.1,402.3 L355.3,406.6 L356.5,403.2 L357.6,415.7 L358.8,419.4 L359.9,420.0 L361.1,420.0 L362.2,420.0 L363.4,420.0 L364.5,420.0 L365.7,420.0 L366.9,420.0 L368.0,420.0 L369.2,420.0 L370.3,420.0 L371.5,420.0 L372.6,413.6 L373.8,400.8 L374.9,393.2 L376.1,388.3 L377.3,385.2 L378.4,379.1 L379.6,395.0 L380.7,389.5 L381.9,399.9 L383.0,406.3 L384.2,381.9 L385.3,410.2 L386.5,419.1 L387.7,420.0 L388.8,420.0 L390.0,420.0 L391.1,420.0 L392.3,420.0 L393.4,420.0 L394.6,420.0 L395.7,420.0 L396.9,420.0 L398.1,420.0 L399.2,420.0 L400.4,412.7 L401.5,382.5 L402.7,377.6 L403.8,376.4 L405.0,376.7 L406.1,383.7 L407.3,376.1 L408.5,376.1 L409.6,380.9 L410.8,376.4 L411.9,394.7 L413.1,402.0 L414.2,419.1 L415.4,420.0 L416.5,420.0 L417.7,420.0 L418.9,420.0 L420.0,420.0 L421.2,420.0 L422.3,420.0 L423.5,420.0 L424.6,420.0 L425.8,420.0 L426.9,419.7 L428.1,407.5 L429.3,384.6 L430.4,377.9 L431.6,376.7 L432.7,377.3 L433.9,377.9 L435.0,377.9 L436.2,379.4 L437.3,376.4 L438.5,378.8 L439.7,384.3 L440.8,402.0 L442.0,419.1 L443.1,420.0 L444.3,420.0 L445.4,420.0 L446.6,420.0 L447.7,420.0 L448.9,420.0 L450.1,420.0 L451.2,420.0 L452.4,420.0 L453.5,420.0 L454.7,420.0 L455.8,407.5 L457.0,386.1 L458.1,377.6 L459.3,378.8 L460.5,377.3 L461.6,378.2 L462.8,380.3 L463.9,377.6 L465.1,378.8 L466.2,378.2 L467.4,383.1 L468.5,402.3 L469.7,419.1 L470.9,420.0 L472.0,420.0 L473.2,420.0 L474.3,420.0 L475.5,420.0 L476.6,420.0 L477.8,420.0 L478.9,420.0 L480.1,420.0 L481.3,420.0 L482.4,420.0 L483.6,408.1 L484.7,385.2 L485.9,378.8 L487.0,378.8 L488.2,379.1 L489.3,378.5 L490.5,387.7 L491.7,397.1 L492.8,393.2 L494.0,395.6 L495.1,396.2 L496.3,409.3 L497.4,419.4 L498.6,420.0 L499.7,420.0 L500.9,420.0 L502.1,420.0 L503.2,420.0 L504.4,420.0 L505.5,420.0 L506.7,420.0 L507.8,420.0 L509.0,420.0 L510.1,420.0 L511.3,410.2 L512.5,389.2 L513.6,381.3 L514.8,384.0 L515.9,378.5 L517.1,379.4 L518.2,384.9 L519.4,378.5 L520.5,379.1 L521.7,380.6 L522.9,387.1 L524.0,405.7 L525.2,419.4 L526.3,420.0 L527.5,420.0 L528.6,420.0 L529.8,420.0 L530.9,420.0 L532.1,420.0 L533.2,420.0 L534.4,420.0 L535.6,420.0 L536.7,420.0 L537.9,420.0 L539.0,415.4 L540.2,399.9 L541.3,393.5 L542.5,391.6 L543.6,394.7 L544.8,390.4 L546.0,387.4 L547.1,384.3 L548.3,395.0 L549.4,397.1 L550.6,398.9 L551.7,412.4 L552.9,419.7 L554.0,420.0 L555.2,420.0 L556.4,420.0 L557.5,420.0 L558.7,420.0 L559.8,420.0 L561.0,420.0 L562.1,420.0 L563.3,420.0 L564.4,420.0 L565.6,420.0 L566.8,412.1 L567.9,395.0 L569.1,380.6 L570.2,377.6 L571.4,377.3 L572.5,378.2 L573.7,377.9 L574.8,376.7 L576.0,376.4 L577.2,377.6 L578.3,386.1 L579.5,408.1 L580.6,419.7 L581.8,420.0 L582.9,420.0 L584.1,420.0 L585.2,420.0 L586.4,420.0 L587.6,420.0 L588.7,420.0 L589.9,420.0 L591.0,420.0 L592.2,420.0 L593.3,420.0 L594.5,411.2 L595.6,393.8 L596.8,387.4 L598.0,382.8 L599.1,381.3 L600.3,380.9 L601.4,381.9 L602.6,384.3 L603.7,387.4 L604.9,389.5 L606.0,399.9 L607.2,414.2 L608.4,420.0 L609.5,420.0 L610.7,420.0 L611.8,420.0 L613.0,420.0 L614.1,420.0 L615.3,420.0 L616.4,420.0 L617.6,420.0 L618.8,420.0 L619.9,420.0 L621.1,420.0 L622.2,414.5 L623.4,402.3 L624.5,384.6 L625.7,380.9 L626.8,386.4 L628.0,383.4 L629.2,388.0 L630.3,382.2 L631.5,389.2 L632.6,412.1 L633.8,415.7 L634.9,418.5 L636.1,420.0 L637.2,420.0 L638.4,420.0 L639.6,420.0 L640.7,420.0 L641.9,420.0 L643.0,420.0 L644.2,420.0 L645.3,420.0 L646.5,420.0 L647.6,420.0 L648.8,420.0 L650.0,413.9 L651.1,398.3 L652.3,378.2 L653.4,378.2 L654.6,391.6 L655.7,383.7 L656.9,390.4 L658.0,383.4 L659.2,387.4 L660.4,383.1 L661.5,391.6 L662.7,407.5 L663.8,419.7 L665.0,420.0 L666.1,420.0 L667.3,420.0 L668.4,420.0 L669.6,420.0 L670.8,420.0 L671.9,420.0 L673.1,420.0 L674.2,420.0 L675.4,420.0 L676.5,420.0 L677.7,414.8 L678.8,409.6 L680.0,402.9" stroke="#d62728" stroke-width="2" fill="none" opacity="0.8"/>
<!-- Forecast -->
<path d="M80.0,100.6 L81.2,112.8 L82.3,125.3 L83.5,135.0 L84.6,152.4 L85.8,178.7 L104.7,74.9 L105.9,67.6 L107.1,72.2 L108.2,82.6 L109.4,97.8 L110.5,111.6 L111.7,122.5 L112.8,151.2 L114.0,187.8 L115.1,207.7 L116.3,219.2 L117.5,230.2 L118.6,234.8 L119.8,234.2 L120.9,227.5 L122.1,207.4 L123.2,180.5 L124.4,154.9 L125.5,136.6 L126.7,123.1 L127.9,109.7 L129.0,100.9 L130.2,92.6 L131.3,86.2 L132.5,78.6 L133.6,78.6 L134.8,83.2 L135.9,93.9 L137.1,107.3 L138.3,122.5 L139.4,140.2 L140.6,158.2 L141.7,235.7 L142.9,213.8 L144.0,244.6 L145.2,244.9 L146.3,242.4 L147.5,240.0 L148.7,239.1 L149.8,240.9 L151.0,207.4 L152.1,199.7 L153.3,187.8 L154.4,177.5 L155.6,147.2 L156.7,144.2 L157.9,145.1 L159.1,146.0 L160.2,149.1 L161.4,162.2 L162.5,173.2 L163.7,173.8 L164.8,173.8 L166.0,236.6 L167.1,240.3 L168.3,409.9 L169.5,223.2 L170.6,224.7 L171.8,237.3 L172.9,245.8 L174.1,248.8 L175.2,246.7 L176.4,236.3 L177.5,216.2 L178.7,192.4 L179.9,170.1 L181.0,159.8 L182.2,154.9 L183.3,148.8 L184.5,146.3 L185.6,140.2 L186.8,132.6 L187.9,123.1 L189.1,115.8 L190.3,121.6 L191.4,131.7 L192.6,181.1 L193.7,186.3 L194.9,192.7 L196.0,193.6 L197.2,218.6 L198.3,235.4 L199.5,238.8 L200.7,240.0 L201.8,241.5 L203.0,243.4 L204.1,245.8 L205.3,247.9 L206.4,242.1 L207.6,230.5 L208.7,216.2 L209.9,207.4 L211.1,204.9 L212.2,204.0 L213.4,202.8 L214.5,202.8 L215.7,202.2 L216.8,172.9 L218.0,169.5 L219.1,167.1 L220.3,170.7 L221.5,182.0 L222.6,184.2 L223.8,209.8 L224.9,219.2 L226.1,225.4 L227.2,218.0 L228.4,226.0 L229.5,233.9 L230.7,240.0 L231.9,251.0 L233.0,247.6 L234.2,235.4 L235.3,219.2 L236.5,203.1 L237.6,192.1 L238.8,184.5 L239.9,197.0 L241.1,194.8 L242.3,193.9 L243.4,163.4 L244.6,161.9 L245.7,159.5 L246.9,157.9 L248.0,170.4 L249.2,175.6 L250.3,177.5 L251.5,205.8 L252.7,228.7 L253.8,225.0 L255.0,236.0 L256.1,244.3 L257.3,248.2 L258.4,247.6 L259.6,237.6 L260.7,217.1 L261.9,192.7 L263.1,169.2 L264.2,156.7 L265.4,149.7 L266.5,141.8 L267.7,138.4 L268.8,129.9 L270.0,119.8 L271.1,142.1 L272.3,141.5 L273.5,139.3 L274.6,137.2 L275.8,144.2 L276.9,154.9 L278.1,120.7 L279.2,132.0 L280.4,194.8 L281.3,220.8 L282.5,235.4 L283.7,244.3 L284.8,249.5 L286.0,248.8 L287.1,240.0 L288.3,220.8 L289.4,196.1 L290.6,171.7 L291.7,156.1 L292.9,147.2 L294.1,138.7 L295.2,131.1 L296.4,121.9 L297.5,112.2 L298.7,100.9 L299.8,92.0 L301.0,94.8 L302.1,104.5 L303.3,118.6 L304.5,133.2 L305.6,142.1 L306.8,162.5 L307.9,170.7 L309.1,208.3 L310.2,228.1 L311.4,237.6 L312.5,243.4 L313.7,242.7 L314.9,234.8 L316.0,217.4 L317.2,194.8 L318.3,170.7 L319.5,156.1 L320.6,149.4 L321.8,142.7 L322.9,139.0 L324.1,132.9 L325.3,124.7 L326.4,118.0 L327.6,115.2 L328.7,119.8 L329.9,121.3 L331.0,127.4 L332.2,144.5 L333.3,150.3 L334.5,166.8 L335.7,198.8 L336.8,215.6 L338.0,226.9 L339.1,235.4 L340.3,240.3 L341.4,238.8 L342.6,230.5 L343.7,215.3 L344.9,193.3 L346.1,171.0 L347.2,159.1 L348.4,155.5 L349.5,151.2 L350.7,147.9 L351.8,146.6 L353.0,144.2 L354.1,139.9 L355.3,137.8 L356.5,142.1 L357.6,149.7 L358.8,157.6 L359.9,162.8 L361.1,163.7 L362.2,177.8 L363.4,205.5 L364.5,223.2 L365.7,234.2 L366.9,241.5 L368.0,244.9 L369.2,244.0 L370.3,234.2 L371.5,218.0 L372.6,195.1 L373.8,172.9 L374.9,161.9 L376.1,158.8 L377.3,154.9 L378.4,151.5 L379.6,151.2 L380.7,148.8 L381.9,143.9 L383.0,140.8 L384.2,144.8 L385.3,152.4 L386.5,160.1 L387.7,167.4 L388.8,167.4 L390.0,182.0 L391.1,209.5 L392.3,223.8 L393.4,234.2 L394.6,243.0 L395.7,247.9 L396.9,249.5 L398.1,247.0 L399.2,241.5 L400.4,228.4 L401.5,211.0 L402.7,198.5 L403.8,192.4 L405.0,187.8 L406.1,179.6 L407.3,174.7 L408.5,174.1 L409.6,165.9 L410.8,158.2 L411.9,159.1 L413.1,157.3 L414.2,165.9 L415.4,174.4 L416.5,173.5 L417.7,186.9 L418.9,206.1 L420.0,226.0 L421.2,238.2 L422.3,245.8 L423.5,250.7 L424.6,251.6 L425.8,250.4 L426.9,247.0 L428.1,236.0 L429.3,219.2 L430.4,200.0 L431.6,188.1 L432.7,178.1 L433.9,170.7 L435.0,162.8 L436.2,153.7 L437.3,143.0 L438.5,137.8 L439.7,127.1 L440.8,130.8 L442.0,140.5 L443.1,152.7 L444.3,159.8 L445.4,177.8 L446.6,203.4 L447.7,225.7 L448.9,239.1 L450.1,233.0 L451.2,248.5 L452.4,254.0 L453.5,252.5 L454.7,248.5 L455.8,239.1 L457.0,222.0 L458.1,202.2 L459.3,190.3 L460.5,179.9 L461.6,172.3 L462.8,161.9 L463.9,151.5 L465.1,140.8 L466.2,132.6 L467.4,125.6 L468.5,128.0 L469.7,136.6 L470.9,148.8 L472.0,157.6 L473.2,177.1 L474.3,155.8 L475.5,206.1 L476.6,232.4 L477.8,226.0 L478.9,242.7 L480.1,247.3 L481.3,239.4 L482.4,219.9 L483.6,197.3 L484.7,173.2 L485.9,157.9 L487.0,150.6 L488.2,142.4 L489.3,137.2 L490.5,130.2 L491.7,122.2 L492.8,120.7 L494.0,120.7 L495.1,121.0 L496.3,121.3 L497.4,121.3 L498.6,121.6 L499.7,121.9 L500.9,134.4 L502.1,198.5 L503.2,226.3 L504.4,240.6 L505.5,250.1 L506.7,254.9 L507.8,254.0 L509.0,244.9 L510.1,223.8 L511.3,200.6 L512.5,178.1 L513.6,165.6 L514.8,160.1 L515.9,154.0 L517.1,150.0 L518.2,145.4 L519.4,138.4 L520.5,128.6 L521.7,119.5 L522.9,121.6 L524.0,130.8 L525.2,146.0 L526.3,157.3 L527.5,163.7 L528.6,182.6 L529.8,212.5 L530.9,232.7 L532.1,236.0 L533.2,241.8 L534.4,247.3 L535.6,246.7 L536.7,238.2 L537.9,219.6 L539.0,197.0 L540.2,173.2 L541.3,159.5 L542.5,153.3 L543.6,147.9 L544.8,145.1 L546.0,141.5 L547.1,137.8 L548.3,131.4 L549.4,129.2 L550.6,134.7 L551.7,143.3 L552.9,155.5 L554.0,164.9 L555.2,169.8 L556.4,187.8 L557.5,223.8 L558.7,237.6 L559.8,264.7 L561.0,275.4 L562.1,278.4 L563.3,280.6 L564.4,258.0 L565.6,251.6 L566.8,233.0 L567.9,220.5 L569.1,201.6 L570.2,188.1 L571.4,182.9 L572.5,181.7 L573.7,181.7 L574.8,182.0 L576.0,181.7 L577.2,181.4 L578.3,181.7 L579.5,181.7 L580.6,168.0 L581.8,170.7 L582.9,177.1 L584.1,201.2 L585.2,225.0 L586.4,258.9 L587.6,270.8 L588.7,274.8 L589.9,276.9 L591.0,278.4 L592.2,279.0 L593.3,267.8 L594.5,246.4 L595.6,220.2 L596.8,202.8 L598.0,196.4 L599.1,196.1 L600.3,188.1 L601.4,181.7 L602.6,180.8 L603.7,170.4 L604.9,163.7 L606.0,163.1 L607.2,162.2 L608.4,172.0 L609.5,179.0 L610.7,180.8 L611.8,194.5 L613.0,214.7 L614.1,233.6 L615.3,247.3 L616.4,255.3 L617.6,259.5 L618.8,261.0 L619.9,259.5 L621.1,253.1 L622.2,242.4 L623.4,227.2 L624.5,211.3 L625.7,198.2 L626.8,191.5 L628.0,188.1 L629.2,180.2 L630.3,172.3 L631.5,162.5 L632.6,154.0 L633.8,143.0 L634.9,175.9 L636.1,197.3 L637.2,204.6 L638.4,205.2 L639.6,204.0 L640.7,217.4 L641.9,226.6 L643.0,225.4 L644.2,222.6 L645.3,220.5 L646.5,219.9 L647.6,220.8 L648.8,222.0 L650.0,223.8 L651.1,197.0 L652.3,179.0 L653.4,164.6 L654.6,157.6 L655.7,156.1 L656.9,155.8 L658.0,156.1 L659.2,156.7 L660.4,160.4 L661.5,166.2 L662.7,176.5 L663.8,197.0 L665.0,211.0 L666.1,143.0 L667.3,198.2 L668.4,215.3 L669.6,232.1 L670.8,241.5 L671.9,248.2 L673.1,253.1 L674.2,252.2 L675.4,242.4 L676.5,222.9 L677.7,199.7 L678.8,177.5 L680.0,172.6" stroke="#9467bd" stroke-width="2" fill="none" opacity="0.8"/>
<!-- Total Generation -->
<path d="M80.0,211.3 L81.2,230.2 L82.3,243.4 L83.5,229.0 L84.6,246.4 L85.8,250.1 L104.7,235.1 L105.9,221.7 L107.1,226.6 L108.2,226.3 L109.4,241.8 L110.5,211.0 L111.7,212.5 L112.8,210.4 L114.0,216.2 L115.1,233.3 L116.3,240.0 L117.5,240.6 L118.6,250.7 L119.8,241.8 L120.9,236.6 L122.1,231.5 L123.2,235.1 L124.4,225.0 L125.5,228.4 L126.7,239.4 L127.9,231.1 L129.0,235.4 L130.2,226.0 L131.3,234.8 L132.5,229.6 L133.6,234.5 L134.8,207.0 L135.9,232.1 L137.1,249.8 L138.3,218.3 L139.4,246.1 L140.6,223.5 L141.7,225.0 L142.9,222.0 L144.0,234.2 L145.2,245.8 L146.3,227.2 L147.5,218.6 L148.7,215.9 L149.8,219.2 L151.0,229.3 L152.1,218.0 L153.3,208.6 L154.4,210.1 L155.6,204.9 L156.7,209.2 L157.9,208.3 L159.1,210.4 L160.2,207.4 L161.4,203.1 L162.5,206.4 L163.7,212.2 L164.8,218.0 L166.0,208.3 L167.1,211.6 L168.3,219.2 L169.5,215.9 L170.6,221.4 L171.8,230.2 L172.9,229.0 L174.1,210.4 L175.2,226.9 L176.4,241.2 L177.5,238.8 L178.7,225.7 L179.9,228.1 L181.0,225.4 L182.2,211.0 L183.3,209.5 L184.5,207.7 L185.6,208.6 L186.8,204.0 L187.9,204.6 L189.1,203.7 L190.3,198.8 L191.4,206.4 L192.6,221.7 L193.7,214.7 L194.9,220.8 L196.0,214.1 L197.2,215.0 L198.3,213.1 L199.5,230.5 L200.7,246.7 L201.8,252.5 L203.0,256.8 L204.1,261.0 L205.3,257.4 L206.4,247.9 L207.6,227.8 L208.7,228.1 L209.9,232.1 L211.1,214.1 L212.2,216.2 L213.4,214.7 L214.5,216.5 L215.7,216.5 L216.8,211.0 L218.0,196.4 L219.1,203.7 L220.3,207.7 L221.5,177.5 L222.6,172.3 L223.8,179.6 L224.9,168.0 L226.1,175.3 L227.2,205.2 L228.4,208.6 L229.5,217.4 L230.7,232.1 L231.9,237.6 L233.0,239.4 L234.2,225.4 L235.3,233.6 L236.5,233.6 L237.6,228.4 L238.8,222.3 L239.9,232.1 L241.1,202.2 L242.3,201.2 L243.4,201.2 L244.6,205.8 L245.7,205.5 L246.9,206.1 L248.0,208.6 L249.2,193.3 L250.3,171.0 L251.5,190.9 L252.7,207.0 L253.8,230.8 L255.0,229.3 L256.1,254.9 L257.3,259.8 L258.4,259.2 L259.6,231.8 L260.7,233.0 L261.9,217.4 L263.1,224.1 L264.2,206.7 L265.4,204.3 L266.5,200.0 L267.7,207.4 L268.8,202.5 L270.0,210.1 L271.1,204.9 L272.3,211.3 L273.5,209.8 L274.6,207.7 L275.8,196.1 L276.9,178.7 L278.1,169.5 L279.2,175.6 L280.4,189.7 L281.3,206.1 L282.5,229.3 L283.7,226.0 L284.8,233.3 L286.0,236.3 L287.1,237.9 L288.3,233.3 L289.4,225.4 L290.6,214.4 L291.7,219.6 L292.9,206.4 L294.1,212.5 L295.2,194.2 L296.4,209.2 L297.5,197.9 L298.7,195.5 L299.8,202.8 L301.0,214.1 L302.1,193.6 L303.3,196.1 L304.5,153.0 L305.6,147.2 L306.8,142.4 L307.9,154.0 L309.1,208.9 L310.2,221.1 L311.4,225.4 L312.5,236.9 L313.7,241.2 L314.9,247.6 L316.0,231.5 L317.2,241.2 L318.3,250.7 L319.5,244.0 L320.6,235.7 L321.8,222.6 L322.9,208.6 L324.1,214.1 L325.3,219.6 L326.4,195.8 L327.6,191.2 L328.7,202.5 L329.9,219.9 L331.0,218.6 L332.2,231.1 L333.3,225.7 L334.5,228.1 L335.7,226.0 L336.8,234.8 L338.0,254.6 L339.1,255.3 L340.3,245.5 L341.4,262.0 L342.6,259.2 L343.7,244.3 L344.9,244.9 L346.1,244.9 L347.2,255.6 L348.4,250.1 L349.5,242.4 L350.7,238.8 L351.8,240.0 L353.0,243.4 L354.1,216.5 L355.3,215.3 L356.5,187.8 L357.6,199.4 L358.8,217.4 L359.9,236.6 L361.1,235.4 L362.2,236.0 L363.4,236.3 L364.5,227.2 L365.7,217.1 L366.9,241.2 L368.0,244.6 L369.2,251.0 L370.3,251.0 L371.5,244.6 L372.6,240.0 L373.8,235.4 L374.9,225.0 L376.1,222.3 L377.3,216.8 L378.4,207.0 L379.6,233.6 L380.7,223.8 L381.9,190.6 L383.0,214.4 L384.2,201.2 L385.3,204.3 L386.5,225.4 L387.7,230.2 L388.8,246.1 L390.0,245.8 L391.1,247.9 L392.3,250.4 L393.4,264.1 L394.6,262.3 L395.7,246.1 L396.9,247.6 L398.1,247.0 L399.2,247.9 L400.4,245.8 L401.5,226.9 L402.7,222.0 L403.8,216.2 L405.0,210.7 L406.1,219.9 L407.3,203.1 L408.5,205.8 L409.6,217.7 L410.8,218.6 L411.9,204.9 L413.1,220.2 L414.2,237.6 L415.4,229.6 L416.5,230.2 L417.7,250.7 L418.9,252.2 L420.0,247.6 L421.2,261.0 L422.3,254.6 L423.5,246.7 L424.6,244.9 L425.8,238.8 L426.9,243.0 L428.1,231.8 L429.3,216.8 L430.4,214.4 L431.6,215.6 L432.7,214.7 L433.9,208.9 L435.0,204.6 L436.2,208.9 L437.3,190.6 L438.5,184.5 L439.7,190.0 L440.8,213.5 L442.0,229.9 L443.1,242.7 L444.3,226.0 L445.4,229.9 L446.6,242.7 L447.7,244.0 L448.9,261.0 L450.1,260.4 L451.2,260.7 L452.4,260.1 L453.5,259.2 L454.7,258.0 L455.8,246.7 L457.0,228.4 L458.1,223.2 L459.3,225.4 L460.5,219.6 L461.6,219.9 L462.8,219.2 L463.9,202.5 L465.1,187.5 L466.2,174.1 L467.4,184.5 L468.5,200.0 L469.7,186.6 L470.9,185.7 L472.0,179.3 L473.2,183.9 L474.3,207.0 L475.5,212.5 L476.6,217.7 L477.8,226.6 L478.9,227.2 L480.1,233.0 L481.3,226.0 L482.4,228.4 L483.6,213.8 L484.7,190.9 L485.9,190.0 L487.0,189.7 L488.2,186.6 L489.3,186.9 L490.5,219.2 L491.7,240.9 L492.8,226.3 L494.0,234.5 L495.1,228.7 L496.3,239.4 L497.4,244.6 L498.6,238.8 L499.7,245.5 L500.9,243.7 L502.1,248.8 L503.2,261.0 L504.4,263.8 L505.5,272.0 L506.7,273.3 L507.8,277.5 L509.0,274.8 L510.1,275.7 L511.3,269.9 L512.5,248.5 L513.6,238.8 L514.8,241.5 L515.9,237.3 L517.1,224.4 L518.2,218.6 L519.4,207.0 L520.5,188.7 L521.7,180.2 L522.9,198.8 L524.0,209.8 L525.2,221.7 L526.3,247.9 L527.5,264.1 L528.6,263.2 L529.8,252.2 L530.9,252.5 L532.1,246.7 L533.2,228.1 L534.4,222.0 L535.6,208.0 L536.7,179.3 L537.9,173.5 L539.0,174.4 L540.2,174.4 L541.3,166.5 L542.5,171.0 L543.6,178.4 L544.8,175.9 L546.0,175.3 L547.1,150.0 L548.3,155.5 L549.4,155.2 L550.6,174.1 L551.7,188.1 L552.9,222.9 L554.0,230.8 L555.2,241.2 L556.4,251.9 L557.5,262.3 L558.7,259.5 L559.8,258.9 L561.0,255.3 L562.1,252.8 L563.3,254.0 L564.4,261.4 L565.6,264.7 L566.8,260.4 L567.9,254.3 L569.1,247.9 L570.2,244.6 L571.4,237.9 L572.5,239.1 L573.7,236.0 L574.8,234.8 L576.0,232.1 L577.2,226.6 L578.3,229.0 L579.5,244.6 L580.6,243.7 L581.8,222.9 L582.9,219.2 L584.1,223.8 L585.2,238.5 L586.4,269.3 L587.6,288.2 L588.7,291.6 L589.9,292.5 L591.0,292.8 L592.2,292.2 L593.3,292.8 L594.5,284.5 L595.6,264.4 L596.8,257.1 L598.0,254.3 L599.1,256.8 L600.3,257.1 L601.4,256.2 L602.6,259.5 L603.7,260.1 L604.9,239.1 L606.0,233.9 L607.2,232.1 L608.4,218.3 L609.5,218.9 L610.7,240.6 L611.8,258.6 L613.0,289.7 L614.1,277.5 L615.3,294.6 L616.4,293.4 L617.6,291.3 L618.8,286.7 L619.9,275.4 L621.1,256.2 L622.2,244.6 L623.4,217.4 L624.5,197.0 L625.7,169.5 L626.8,192.7 L628.0,180.8 L629.2,200.6 L630.3,202.5 L631.5,202.8 L632.6,231.5 L633.8,264.1 L634.9,262.3 L636.1,263.5 L637.2,258.0 L638.4,255.6 L639.6,234.8 L640.7,209.2 L641.9,243.0 L643.0,202.2 L644.2,209.5 L645.3,237.9 L646.5,225.7 L647.6,206.7 L648.8,210.7 L650.0,233.0 L651.1,224.7 L652.3,218.6 L653.4,223.5 L654.6,228.4 L655.7,195.8 L656.9,208.0 L658.0,193.9 L659.2,189.7 L660.4,190.3 L661.5,237.6 L662.7,268.1 L663.8,283.0 L665.0,281.2 L666.1,285.5 L667.3,265.3 L668.4,264.4 L669.6,266.2 L670.8,288.2 L671.9,287.6 L673.1,287.9 L674.2,288.5 L675.4,276.0 L676.5,268.1 L677.7,261.7 L678.8,256.8 L680.0,251.9" stroke="#8c564b" stroke-width="2" fill="none" opacity="0.8"/>
<!-- Forecast Difference -->
<path d="M81.2,420.0 L82.3,420.0 L83.5,420.0 L84.6,420.0 L85.8,420.0 L105.9,420.0 L107.1,420.0 L108.2,420.0 L109.4,420.0 L110.5,420.0 L111.7,420.0 L112.8,420.0 L114.0,420.0 L115.1,420.0 L116.3,420.0 L117.5,420.0 L118.6,420.0 L119.8,420.0 L120.9,420.0 L122.1,420.0 L123.2,420.0 L124.4,420.0 L125.5,420.0 L126.7,420.0 L127.9,420.0 L129.0,420.0 L130.2,420.0 L131.3,420.0 L132.5,420.0 L133.6,420.0 L134.8,420.0 L135.9,420.0 L137.1,420.0 L138.3,420.0 L139.4,420.0 L140.6,420.0 L141.7,420.0 L142.9,420.0 L144.0,420.0 L145.2,420.0 L146.3,420.0 L147.5,420.0 L148.7,420.0 L149.8,420.0 L151.0,420.0 L152.1,420.0 L153.3,420.0 L154.4,420.0 L155.6,420.0 L156.7,420.0 L157.9,420.0 L159.1,420.0 L160.2,420.0 L161.4,420.0 L162.5,420.0 L163.7,420.0 L164.8,420.0 L166.0,420.0 L167.1,420.0 L168.3,420.0 L169.5,420.0 L170.6,420.0 L171.8,420.0 L172.9,420.0 L174.1,420.0 L175.2,420.0 L176.4,420.0 L177.5,420.0 L178.7,420.0 L179.9,420.0 L181.0,420.0 L182.2,420.0 L183.3,420.0 L184.5,420.0 L185.6,420.0 L186.8,420.0 L187.9,420.0 L189.1,420.0 L190.3,420.0 L191.4,420.0 L192.6,420.0 L193.7,420.0 L194.9,420.0 L196.0,420.0 L197.2,420.0 L198.3,420.0 L199.5,420.0 L200.7,420.0 L201.8,420.0 L203.0,420.0 L204.1,420.0 L205.3,420.0 L206.4,420.0 L207.6,420.0 L208.7,420.0 L209.9,420.0 L211.1,420.0 L212.2,420.0 L213.4,420.0 L214.5,420.0 L215.7,420.0 L216.8,420.0 L218.0,420.0 L219.1,420.0 L220.3,420.0 L221.5,420.0 L222.6,420.0 L223.8,420.0 L224.9,420.0 L226.1,420.0 L227.2,420.0 L228.4,420.0 L229.5,420.0 L230.7,420.0 L231.9,420.0 L233.0,420.0 L234.2,420.0 L235.3,420.0 L236.5,420.0 L237.6,420.0 L238.8,420.0 L239.9,420.0 L241.1,420.0 L242.3,420.0 L243.4,420.0 L244.6,420.0 L245.7,420.0 L246.9,420.0 L248.0,420.0 L249.2,420.0 L250.3,420.0 L251.5,420.0 L252.7,420.0 L253.8,420.0 L255.0,420.0 L256.1,420.0 L257.3,420.0 L258.4,420.0 L259.6,420.0 L260.7,420.0 L261.9,420.0 L263.1,420.0 L264.2,420.0 L265.4,420.0 L266.5,420.0 L267.7,420.0 L268.8,420.0 L270.0,420.0 L271.1,420.0 L272.3,420.0 L273.5,420.0 L274.6,420.0 L275.8,420.0 L276.9,420.0 L278.1,420.0 L279.2,420.0 L280.4,420.0 L281.3,420.0 L282.5,420.0 L283.7,420.0 L284.8,420.0 L286.0,420.0 L287.1,420.0 L288.3,420.0 L289.4,420.0 L290.6,420.0 L291.7,420.0 L292.9,420.0 L294.1,420.0 L295.2,420.0 L296.4,420.0 L297.5,420.0 L298.7,420.0 L299.8,420.0 L301.0,420.0 L302.1,420.0 L303.3,420.0 L304.5,420.0 L305.6,420.0 L306.8,420.0 L307.9,420.0 L309.1,420.0 L310.2,420.0 L311.4,420.0 L312.5,420.0 L313.7,420.0 L314.9,420.0 L316.0,420.0 L317.2,420.0 L318.3,420.0 L319.5,420.0 L320.6,420.0 L321.8,420.0 L322.9,420.0 L324.1,420.0 L325.3,420.0 L326.4,420.0 L327.6,420.0 L328.7,420.0 L329.9,420.0 L331.0,420.0 L332.2,420.0 L333.3,420.0 L334.5,420.0 L335.7,420.0 L336.8,420.0 L338.0,420.0 L339.1,420.0 L340.3,420.0 L341.4,420.0 L342.6,420.0 L343.7,420.0 L344.9,420.0 L346.1,420.0 L347.2,420.0 L348.4,420.0 L349.5,420.0 L350.7,420.0 L351.8,420.0 L353.0,420.0 L354.1,420.0 L355.3,420.0 L356.5,420.0 L357.6,420.0 L358.8,420.0 L359.9,420.0 L361.1,420.0 L362.2,420.0 L363.4,420.0 L364.5,420.0 L365.7,420.0 L366.9,420.0 L368.0,420.0 L369.2,420.0 L370.3,420.0 L371.5,420.0 L372.6,420.0 L373.8,420.0 L374.9,420.0 L376.1,420.0 L377.3,420.0 L378.4,420.0 L379.6,420.0 L380.7,420.0 L381.9,420.0 L383.0,420.0 L384.2,420.0 L385.3,420.0 L386.5,420.0 L387.7,420.0 L388.8,420.0 L390.0,420.0 L391.1,420.0 L392.3,420.0 L393.4,420.0 L394.6,420.0 L395.7,420.0 L396.9,420.0 L398.1,420.0 L399.2,420.0 L400.4,420.0 L401.5,420.0 L402.7,420.0 L403.8,420.0 L405.0,420.0 L406.1,420.0 L407.3,420.0 L408.5,420.0 L409.6,420.0 L410.8,420.0 L411.9,420.0 L413.1,420.0 L414.2,420.0 L415.4,420.0 L416.5,420.0 L417.7,420.0 L418.9,420.0 L420.0,420.0 L421.2,420.0 L422.3,420.0 L423.5,420.0 L424.6,420.0 L425.8,420.0 L426.9,420.0 L428.1,420.0 L429.3,420.0 L430.4,420.0 L431.6,420.0 L432.7,420.0 L433.9,420.0 L435.0,420.0 L436.2,420.0 L437.3,420.0 L438.5,420.0 L439.7,420.0 L440.8,420.0 L442.0,420.0 L443.1,420.0 L444.3,420.0 L445.4,420.0 L446.6,420.0 L447.7,420.0 L448.9,420.0 L450.1,420.0 L451.2,420.0 L452.4,420.0 L453.5,420.0 L454.7,420.0 L455.8,420.0 L457.0,420.0 L458.1,420.0 L459.3,420.0 L460.5,420.0 L461.6,420.0 L462.8,420.0 L463.9,420.0 L465.1,420.0 L466.2,420.0 L467.4,420.0 L468.5,420.0 L469.7,420.0 L470.9,420.0 L472.0,420.0 L473.2,420.0 L474.3,420.0 L475.5,420.0 L476.6,420.0 L477.8,420.0 L478.9,420.0 L480.1,420.0 L481.3,420.0 L482.4,420.0 L483.6,420.0 L484.7,420.0 L485.9,420.0 L487.0,420.0 L488.2,420.0 L489.3,420.0 L490.5,420.0 L491.7,420.0 L492.8,420.0 L494.0,420.0 L495.1,420.0 L496.3,420.0 L497.4,420.0 L498.6,420.0 L499.7,420.0 L500.9,420.0 L502.1,420.0 L503.2,420.0 L504.4,420.0 L505.5,420.0 L506.7,420.0 L507.8,420.0 L509.0,420.0 L510.1,420.0 L511.3,420.0 L512.5,420.0 L513.6,420.0 L514.8,420.0 L515.9,420.0 L517.1,420.0 L518.2,420.0 L519.4,420.0 L520.5,420.0 L521.7,420.0 L522.9,420.0 L524.0,420.0 L525.2,420.0 L526.3,420.0 L527.5,420.0 L528.6,420.0 L529.8,420.0 L530.9,420.0 L532.1,420.0 L533.2,420.0 L534.4,420.0 L535.6,420.0 L536.7,420.0 L537.9,420.0 L539.0,420.0 L540.2,420.0 L541.3,420.0 L542.5,420.0 L543.6,420.0 L544.8,420.0 L546.0,420.0 L547.1,420.0 L548.3,420.0 L549.4,420.0 L550.6,420.0 L551.7,420.0 L552.9,420.0 L554.0,420.0 L555.2,420.0 L556.4,420.0 L557.5,420.0 L558.7,420.0 L559.8,420.0 L561.0,420.0 L562.1,420.0 L563.3,420.0 L564.4,420.0 L565.6,420.0 L566.8,420.0 L567.9,420.0 L569.1,420.0 L570.2,420.0 L571.4,420.0 L572.5,420.0 L573.7,420.0 L574.8,420.0 L576.0,420.0 L577.2,420.0 L578.3,420.0 L579.5,420.0 L580.6,420.0 L581.8,420.0 L582.9,420.0 L584.1,420.0 L585.2,420.0 L586.4,420.0 L587.6,420.0 L588.7,420.0 L589.9,420.0 L591.0,420.0 L592.2,420.0 L593.3,420.0 L594.5,420.0 L595.6,420.0 L596.8,420.0 L598.0,420.0 L599.1,420.0 L600.3,420.0 L601.4,420.0 L602.6,420.0 L603.7,420.0 L604.9,420.0 L606.0,420.0 L607.2,420.0 L608.4,420.0 L609.5,420.0 L610.7,420.0 L611.8,420.0 L613.0,420.0 L614.1,420.0 L615.3,420.0 L616.4,420.0 L617.6,420.0 L618.8,420.0 L619.9,420.0 L621.1,420.0 L622.2,420.0 L623.4,420.0 L624.5,420.0 L625.7,420.0 L626.8,420.0 L628.0,420.0 L629.2,420.0 L630.3,420.0 L631.5,420.0 L632.6,420.0 L633.8,420.0 L634.9,420.0 L636.1,420.0 L637.2,420.0 L638.4,420.0 L639.6,420.0 L640.7,420.0 L641.9,420.0 L643.0,420.0 L644.2,420.0 L645.3,420.0 L646.5,420.0 L647.6,420.0 L648.8,420.0 L650.0,420.0 L651.1,420.0 L652.3,420.0 L653.4,420.0 L654.6,420.0 L655.7,420.0 L656.9,420.0 L658.0,420.0 L659.2,420.0 L660.4,420.0 L661.5,420.0 L662.7,420.0 L663.8,420.0 L665.0,420.0 L666.1,420.0 L667.3,420.0 L668.4,420.0 L669.6,420.0 L670.8,420.0 L671.9,420.0 L673.1,420.0 L674.2,420.0 L675.4,420.0 L676.5,420.0 L677.7,420.0 L678.8,420.0 L680.0,420.0" stroke="#e377c2" stroke-width="2" fill="none" opacity="0.8"/>

<!-- Legend -->
<line x1="690" y1="70" x2="705" y2="70" stroke="#1f77b4" stroke-width="3"/>
<text x="710" y="74" class="legend">Wind Generation</text>
<line x1="690" y1="88" x2="705" y2="88" stroke="#ff7f0e" stroke-width="3"/>
<text x="710" y="92" class="legend">Hydro Generation</text>
<line x1="690" y1="106" x2="705" y2="106" stroke="#2ca02c" stroke-width="3"/>
<text x="710" y="110" class="legend">Thermal Generation</text>
<line x1="690" y1="124" x2="705" y2="124" stroke="#d62728" stroke-width="3"/>
<text x="710" y="128" class="legend">Solar Generation</text>
<line x1="690" y1="142" x2="705" y2="142" stroke="#9467bd" stroke-width="3"/>
<text x="710" y="146" class="legend">Forecast</text>
<line x1="690" y1="160" x2="705" y2="160" stroke="#8c564b" stroke-width="3"/>
<text x="710" y="164" class="legend">Total Generation</text>
<line x1="690" y1="178" x2="705" y2="178" stroke="#e377c2" stroke-width="3"/>
<text x="710" y="182" class="legend">Forecast Difference</text>

<!-- Date range -->
<text x="80" y="495" class="legend">Range: 08/18 - 09/09/2025 (505 records)</text>
</svg>