<?xml version="1.0" encoding="UTF-8"?>
<svg width="800" height="500" xmlns="http://www.w3.org/2000/svg">
<style>
.axis-line { stroke: #333; stroke-width: 1; }
.grid-line { stroke: #ddd; stroke-width: 0.5; }
.title { font: 16px Arial; text-anchor: middle; fill: #333; }
.axis-label { font: 12px Arial; text-anchor: middle; fill: #666; }
.legend { font: 10px Arial; fill: #333; }
</style>

<!-- Title -->
<text x="400.0" y="25" class="title">Northwestern Energy Generation Data - Past 30 Days</text>

<!-- Plot area background -->
<rect x="80" y="50" width="600" height="370" fill="white" stroke="#ddd"/>

<!-- Y-axis -->
<line x1="80" y1="50" x2="80" y2="420" class="axis-line"/>
<text x="30" y="235.0" class="axis-label" transform="rotate(-90, 30, 235.0)">Generation (MW)</text>

<!-- X-axis -->
<line x1="80" y1="420" x2="680" y2="420" class="axis-line"/>
<text x="380.0" y="480" class="axis-label">Time</text>
<line x1="80" y1="420.0" x2="680" y2="420.0" class="grid-line"/>
<text x="70" y="425.0" class="legend" text-anchor="end">0</text>
<line x1="80" y1="327.5" x2="680" y2="327.5" class="grid-line"/>
<text x="70" y="332.5" class="legend" text-anchor="end">277</text>
<line x1="80" y1="235.0" x2="680" y2="235.0" class="grid-line"/>
<text x="70" y="240.0" class="legend" text-anchor="end">554</text>
<line x1="80" y1="142.5" x2="680" y2="142.5" class="grid-line"/>
<text x="70" y="147.5" class="legend" text-anchor="end">831</text>
<line x1="80" y1="50.0" x2="680" y2="50.0" class="grid-line"/>
<text x="70" y="55.0" class="legend" text-anchor="end">1108</text>
<!-- Wind Generation -->
<path d="M80.0,404.0 L80.8,382.9 L81.7,374.2 L82.5,382.3 L83.4,345.5 L84.2,317.8 L85.1,286.4 L85.9,286.1 L86.7,278.4 L87.6,278.4 L88.4,287.7 L89.3,286.1 L90.1,293.4 L91.0,304.8 L91.8,309.1 L92.6,318.5 L93.5,354.2 L94.3,372.9 L95.2,371.9 L96.0,386.6 L96.9,394.3 L97.7,403.3 L98.5,410.0 L99.4,409.6 L100.2,406.3 L101.1,407.6 L101.9,403.6 L102.8,394.3 L103.6,396.3 L104.4,379.3 L105.3,382.6 L106.1,369.9 L107.0,375.6 L107.8,363.6 L108.7,405.6 L109.5,414.3 L110.3,416.0 L111.2,413.7 L112.0,413.3 L112.9,404.6 L113.7,394.6 L114.6,387.9 L115.4,355.2 L116.2,357.2 L117.1,352.2 L117.9,357.2 L118.8,345.2 L119.6,336.5 L120.4,331.8 L121.3,333.8 L122.1,351.9 L123.0,334.5 L123.8,324.8 L124.7,304.1 L125.5,308.4 L126.3,340.8 L127.2,370.2 L128.0,379.9 L128.9,396.6 L129.7,398.3 L130.6,394.6 L131.4,380.3 L132.2,397.6 L133.1,397.0 L133.9,402.6 L134.8,410.0 L135.6,418.3 L136.5,418.3 L137.3,415.0 L138.1,418.0 L139.0,418.3 L139.8,418.0 L140.7,413.3 L141.5,407.3 L142.4,403.0 L143.2,405.3 L144.0,398.6 L144.9,397.6 L145.7,393.6 L146.6,386.6 L147.4,382.9 L148.3,386.9 L149.1,394.3 L149.9,399.6 L150.8,409.0 L151.6,415.7 L152.5,420.0 L153.3,419.7 L154.2,414.3 L155.0,405.3 L155.8,386.9 L156.7,375.6 L157.5,372.6 L158.4,331.8 L159.2,335.5 L160.1,341.8 L160.9,330.5 L161.7,329.8 L162.6,327.1 L163.4,322.8 L164.3,310.1 L165.1,293.1 L166.0,291.4 L166.8,284.7 L167.6,290.7 L168.5,290.1 L169.3,290.1 L170.2,299.4 L171.0,302.1 L171.9,303.1 L172.7,313.5 L173.5,320.1 L174.4,343.5 L175.2,318.1 L176.1,355.2 L176.9,351.2 L177.8,366.2 L178.6,373.6 L179.4,371.2 L180.3,372.6 L181.1,369.9 L182.0,371.6 L182.8,381.3 L183.7,388.6 L184.5,391.9 L185.3,393.3 L186.2,396.3 L187.0,403.6 L187.9,401.3 L188.7,409.6 L189.6,414.0 L190.4,415.3 L191.2,416.3 L192.1,419.3 L192.9,418.0 L193.8,417.7 L194.6,417.7 L195.4,417.7 L196.3,414.3 L197.1,412.7 L198.0,414.7 L198.8,416.7 L199.7,419.7 L200.5,420.0 L201.3,420.0 L202.2,419.3 L203.0,419.0 L203.9,417.0 L204.7,413.0 L205.6,412.3 L206.4,410.6 L207.2,396.0 L208.1,388.9 L208.9,378.2 L209.8,370.2 L210.6,354.5 L211.5,356.9 L212.3,345.2 L213.1,338.8 L214.0,332.8 L214.8,313.1 L215.7,309.1 L216.5,303.1 L217.4,304.4 L218.2,304.8 L219.0,298.1 L219.9,294.4 L220.7,295.1 L221.6,291.4 L222.4,294.7 L223.3,289.1 L224.1,292.4 L224.9,290.7 L225.8,286.4 L226.6,288.1 L227.5,295.1 L228.3,301.1 L229.2,296.8 L230.0,295.4 L230.8,296.8 L231.7,303.1 L232.5,290.1 L233.4,313.1 L234.2,312.8 L235.1,304.4 L235.9,287.7 L236.7,287.1 L237.6,303.1 L238.4,305.1 L239.3,295.7 L240.1,289.7 L241.0,300.8 L241.8,295.4 L242.6,325.5 L243.5,357.5 L244.3,373.9 L245.2,361.5 L246.0,364.9 L246.9,378.2 L247.7,355.5 L248.5,357.9 L249.4,341.5 L250.2,318.8 L251.1,330.5 L251.9,358.9 L252.8,335.5 L253.6,343.2 L254.4,352.5 L255.3,338.2 L256.1,347.5 L257.0,361.2 L257.8,364.9 L258.7,363.2 L259.5,383.3 L260.3,399.6 L261.2,399.6 L262.0,403.6 L262.9,410.0 L263.7,401.3 L264.6,396.3 L265.4,382.9 L266.2,353.9 L267.1,341.8 L267.9,335.8 L268.8,342.5 L269.6,344.8 L270.4,339.2 L271.3,335.5 L272.1,336.2 L273.0,333.8 L273.8,329.8 L274.7,323.5 L275.5,337.5 L276.3,327.8 L277.2,332.2 L278.0,337.5 L278.9,321.5 L279.7,323.5 L280.6,321.1 L281.4,319.8 L282.2,317.5 L283.1,325.8 L283.9,326.1 L284.8,326.8 L285.6,321.1 L286.5,330.8 L287.3,326.5 L288.1,326.5 L289.0,324.1 L289.8,325.8 L290.7,325.1 L291.5,297.1 L292.4,312.4 L293.2,314.8 L294.0,311.4 L294.9,323.1 L295.7,339.5 L296.6,344.2 L297.4,348.2 L298.3,331.8 L299.1,342.2 L299.9,367.9 L300.8,382.9 L301.6,380.3 L302.5,398.0 L303.3,400.6 L304.2,398.6 L305.0,377.9 L305.8,353.5 L306.7,342.2 L307.5,328.8 L308.4,324.1 L309.2,323.8 L310.1,353.5 L310.9,383.9 L311.7,365.9 L312.6,365.9 L313.4,414.7 L314.3,410.3 L315.1,409.3 L316.0,397.3 L316.8,377.2 L317.6,336.8 L318.5,322.8 L319.3,317.1 L320.2,337.8 L321.0,354.5 L321.9,353.9 L322.7,358.9 L323.5,361.5 L324.4,356.2 L325.2,356.5 L326.1,345.5 L326.9,338.2 L327.8,357.9 L328.6,374.9 L329.4,404.0 L330.3,378.6 L331.1,375.6 L332.0,352.9 L332.8,328.5 L333.7,299.1 L334.5,279.4 L335.3,273.0 L336.2,285.4 L337.0,273.7 L337.9,276.0 L338.7,278.0 L339.6,278.4 L340.4,277.4 L341.2,277.0 L342.1,277.7 L342.9,277.7 L343.8,291.4 L344.6,280.7 L345.4,278.0 L346.3,311.4 L347.1,314.8 L348.0,273.7 L348.8,272.7 L349.7,289.1 L350.5,299.4 L351.3,303.1 L352.2,314.5 L353.0,298.1 L353.9,287.1 L354.7,286.7 L355.6,307.4 L356.4,276.7 L357.2,288.4 L358.1,292.7 L358.9,289.4 L359.8,290.4 L360.6,288.1 L361.5,289.7 L362.3,297.4 L363.1,302.4 L364.0,302.1 L364.8,297.8 L365.7,302.8 L366.5,288.1 L367.4,307.4 L368.2,295.7 L369.0,310.8 L369.9,301.1 L370.7,281.7 L371.6,309.1 L372.4,277.7 L373.3,283.4 L374.1,280.7 L374.9,285.4 L375.8,301.4 L376.6,292.1 L377.5,319.8 L378.3,327.1 L379.2,332.8 L380.0,370.9 L380.8,373.2 L381.7,350.5 L382.5,350.2 L383.4,342.2 L384.2,324.1 L385.1,311.1 L385.9,338.5 L386.7,334.5 L387.6,347.5 L388.4,322.5 L389.3,326.8 L390.1,346.9 L391.0,353.9 L391.8,327.1 L392.6,294.7 L393.5,316.1 L394.3,335.8 L395.2,329.1 L396.0,370.6 L396.9,363.2 L397.7,384.6 L398.5,391.6 L399.4,375.9 L400.2,372.9 L401.1,378.9 L401.9,400.0 L402.8,386.3 L403.6,361.2 L404.4,360.9 L405.3,350.9 L406.1,353.2 L407.0,329.5 L407.8,303.8 L408.7,309.8 L409.5,330.5 L410.3,317.8 L411.2,304.4 L412.0,305.1 L412.9,290.7 L413.7,295.7 L414.6,293.7 L415.4,295.7 L416.2,300.8 L417.1,295.7 L417.9,296.8 L418.8,304.4 L419.6,300.4 L420.4,303.8 L421.3,317.1 L422.1,322.5 L423.0,313.8 L423.8,313.1 L424.7,292.7 L425.5,292.1 L426.3,284.4 L427.2,282.1 L428.0,288.4 L428.9,295.4 L429.7,308.8 L430.6,307.1 L431.4,306.4 L432.2,318.1 L433.1,343.5 L433.9,334.8 L434.8,329.5 L435.6,343.5 L436.5,337.8 L437.3,350.5 L438.1,379.6 L439.0,388.6 L439.8,399.0 L440.7,409.3 L441.5,416.0 L442.4,419.0 L443.2,419.3 L444.0,419.7 L444.9,416.0 L445.7,408.0 L446.6,407.3 L447.4,404.3 L448.3,406.0 L449.1,403.0 L449.9,403.3 L450.8,402.0 L451.6,410.3 L452.5,412.7 L453.3,408.6 L454.2,399.3 L455.0,381.9 L455.8,335.8 L456.7,328.5 L457.5,335.8 L458.4,327.1 L459.2,311.1 L460.1,315.1 L460.9,326.1 L461.7,339.8 L462.6,345.8 L463.4,394.6 L464.3,412.0 L465.1,407.6 L466.0,405.3 L466.8,405.3 L467.6,410.0 L468.5,413.7 L469.3,412.3 L470.2,404.6 L471.0,389.9 L471.9,380.6 L472.7,365.2 L473.5,351.9 L474.4,341.5 L475.2,288.1 L476.1,285.1 L476.9,296.1 L477.8,303.4 L478.6,298.4 L479.4,322.5 L480.3,340.8 L481.1,322.1 L482.0,298.4 L482.8,291.1 L483.7,301.8 L484.5,314.5 L485.3,315.1 L486.2,322.5 L487.0,324.1 L487.9,323.5 L488.7,315.5 L489.6,327.5 L490.4,335.5 L491.2,336.8 L492.1,339.5 L492.9,345.8 L493.8,349.9 L494.6,320.8 L495.4,295.1 L496.3,290.1 L497.1,288.7 L498.0,294.7 L498.8,282.7 L499.7,284.7 L500.5,308.8 L501.3,310.8 L502.2,306.1 L503.0,294.4 L503.9,291.7 L504.7,314.5 L505.6,317.1 L506.4,321.1 L507.2,321.5 L508.1,315.8 L508.9,340.5 L509.8,327.5 L510.6,310.1 L511.5,285.7 L512.3,302.4 L513.1,287.4 L514.0,287.4 L514.8,299.8 L515.7,296.1 L516.5,326.5 L517.4,306.4 L518.2,304.4 L519.0,301.1 L519.9,310.8 L520.7,313.1 L521.6,332.2 L522.4,324.8 L523.3,339.8 L524.1,354.5 L524.9,332.2 L525.8,306.8 L526.6,319.8 L527.5,310.4 L528.3,300.8 L529.2,301.4 L530.0,289.1 L530.8,282.1 L531.7,302.4 L532.5,337.2 L533.4,356.2 L534.2,342.2 L535.1,335.5 L535.9,309.4 L536.7,302.1 L537.6,315.1 L538.4,362.2 L539.3,381.6 L540.1,384.6 L541.0,363.6 L541.8,353.5 L542.6,325.5 L543.5,290.7 L544.3,290.4 L545.2,306.4 L546.0,314.8 L546.9,304.8 L547.7,326.1 L548.5,364.6 L549.4,403.6 L550.2,415.7 L551.1,410.0 L551.9,408.6 L552.8,406.0 L553.6,400.0 L554.4,391.3 L555.3,373.9 L556.1,374.9 L557.0,371.2 L557.8,384.9 L558.7,379.6 L559.5,368.6 L560.3,360.2 L561.2,354.9 L562.0,349.9 L562.9,349.5 L563.7,350.9 L564.6,349.5 L565.4,350.9 L566.2,372.9 L567.1,379.9 L567.9,388.6 L568.8,373.6 L569.6,369.2 L570.4,375.9 L571.3,363.6 L572.1,370.6 L573.0,362.2 L573.8,371.2 L574.7,368.9 L575.5,334.5 L576.3,331.5 L577.2,328.8 L578.0,317.8 L578.9,314.1 L579.7,305.1 L580.6,320.5 L581.4,301.1 L582.2,302.1 L583.1,336.8 L583.9,338.8 L584.8,349.5 L585.6,350.5 L586.5,352.9 L587.3,331.8 L588.1,327.5 L589.0,330.8 L589.8,331.2 L590.7,329.8 L591.5,329.5 L592.4,327.8 L593.2,354.9 L594.0,336.2 L594.9,344.8 L595.7,330.2 L596.6,322.8 L597.4,323.5 L598.3,326.5 L599.1,339.5 L599.9,335.8 L600.8,329.1 L601.6,334.8 L602.5,331.2 L603.3,327.5 L604.2,331.2 L605.0,339.5 L605.8,328.1 L606.7,332.2 L607.5,331.8 L608.4,326.8 L609.2,327.8 L610.1,322.5 L610.9,321.8 L611.7,321.5 L612.6,323.1 L613.4,325.5 L614.3,331.2 L615.1,332.8 L616.0,337.5 L616.8,335.8 L617.6,362.9 L618.5,356.2 L619.3,360.2 L620.2,356.5 L621.0,394.6 L621.9,404.6 L622.7,397.3 L623.5,394.9 L624.4,394.6 L625.2,409.6 L626.1,408.6 L626.9,413.0 L627.8,415.7 L628.6,417.3 L629.4,415.0 L630.3,416.7 L631.1,416.0 L632.0,412.0 L632.8,401.3 L633.7,401.0 L634.5,412.7 L635.3,414.7 L636.2,409.3 L637.0,408.6 L637.9,404.6 L638.7,401.6 L639.6,404.0 L640.4,399.3 L641.2,402.0 L642.1,396.0 L642.9,377.6 L643.8,349.9 L644.6,350.2 L645.4,363.2 L646.3,351.5 L647.1,369.6 L648.0,357.2 L648.8,326.1 L649.7,325.8 L650.5,305.1 L651.3,335.8 L652.2,319.5 L653.0,335.8 L653.9,342.8 L654.7,362.6 L655.6,393.6 L656.4,402.6 L657.2,412.0 L658.1,407.0 L658.9,412.3 L659.8,412.3 L660.6,414.0 L661.5,415.0 L662.3,407.0 L663.1,403.6 L664.0,402.3 L664.8,391.9 L665.7,384.9 L666.5,390.3 L667.4,398.3 L668.2,398.0 L669.0,387.6 L669.9,400.0 L670.7,393.6 L671.6,368.6 L672.4,368.6 L673.3,391.3 L674.1,396.3 L674.9,409.0 L675.8,406.0 L676.6,396.0 L677.5,410.6 L678.3,418.0 L679.2,414.0 L680.0,402.0" stroke="#1f77b4" stroke-width="2" fill="none" opacity="0.8"/>
<!-- Hydro Generation -->
<path d="M80.0,347.2 L80.8,346.5 L81.7,346.9 L82.5,346.5 L83.4,346.9 L84.2,346.9 L85.1,347.2 L85.9,347.5 L86.7,346.5 L87.6,347.5 L88.4,346.9 L89.3,346.9 L90.1,347.2 L91.0,347.2 L91.8,346.9 L92.6,346.9 L93.5,347.2 L94.3,347.2 L95.2,347.2 L96.0,346.9 L96.9,347.2 L97.7,347.2 L98.5,346.5 L99.4,347.2 L100.2,346.9 L101.1,346.9 L101.9,346.9 L102.8,347.2 L103.6,346.2 L104.4,347.2 L105.3,346.5 L106.1,347.2 L107.0,346.2 L107.8,346.5 L108.7,346.5 L109.5,346.5 L110.3,346.5 L111.2,346.2 L112.0,346.2 L112.9,346.5 L113.7,346.2 L114.6,346.9 L115.4,346.2 L116.2,346.2 L117.1,346.9 L117.9,346.2 L118.8,346.2 L119.6,346.2 L120.4,346.2 L121.3,345.5 L122.1,346.5 L123.0,345.8 L123.8,345.8 L124.7,345.8 L125.5,345.5 L126.3,346.2 L127.2,345.5 L128.0,345.8 L128.9,346.5 L129.7,345.5 L130.6,345.8 L131.4,346.9 L132.2,345.8 L133.1,345.8 L133.9,346.5 L134.8,345.8 L135.6,346.9 L136.5,346.2 L137.3,346.5 L138.1,346.2 L139.0,346.2 L139.8,345.8 L140.7,345.5 L141.5,346.2 L142.4,346.2 L143.2,346.5 L144.0,345.8 L144.9,346.5 L145.7,346.2 L146.6,346.5 L147.4,345.2 L148.3,346.5 L149.1,344.8 L149.9,345.2 L150.8,344.8 L151.6,344.8 L152.5,345.2 L153.3,344.2 L154.2,344.2 L155.0,344.5 L155.8,344.5 L156.7,345.5 L157.5,344.8 L158.4,344.8 L159.2,345.2 L160.1,344.5 L160.9,344.5 L161.7,344.5 L162.6,343.8 L163.4,344.2 L164.3,344.5 L165.1,344.8 L166.0,344.2 L166.8,344.5 L167.6,343.8 L168.5,343.2 L169.3,343.8 L170.2,343.8 L171.0,343.2 L171.9,343.5 L172.7,343.8 L173.5,343.5 L174.4,343.5 L175.2,343.2 L176.1,343.5 L176.9,343.2 L177.8,343.5 L178.6,342.8 L179.4,343.8 L180.3,343.5 L181.1,344.5 L182.0,344.8 L182.8,345.5 L183.7,346.2 L184.5,347.2 L185.3,347.2 L186.2,346.5 L187.0,346.5 L187.9,345.8 L188.7,345.5 L189.6,345.2 L190.4,345.5 L191.2,345.8 L192.1,345.8 L192.9,345.5 L193.8,345.2 L194.6,345.5 L195.4,345.5 L196.3,345.2 L197.1,345.2 L198.0,345.5 L198.8,345.2 L199.7,345.2 L200.5,344.8 L201.3,344.8 L202.2,344.2 L203.0,344.5 L203.9,344.5 L204.7,344.5 L205.6,345.5 L206.4,344.8 L207.2,345.5 L208.1,345.8 L208.9,345.5 L209.8,345.2 L210.6,345.2 L211.5,344.8 L212.3,345.5 L213.1,345.5 L214.0,345.5 L214.8,345.2 L215.7,345.5 L216.5,346.2 L217.4,346.2 L218.2,347.5 L219.0,348.5 L219.9,350.5 L220.7,350.9 L221.6,352.9 L222.4,355.5 L223.3,356.9 L224.1,358.5 L224.9,360.5 L225.8,360.2 L226.6,359.5 L227.5,357.2 L228.3,355.5 L229.2,354.5 L230.0,351.2 L230.8,349.9 L231.7,347.9 L232.5,348.2 L233.4,347.9 L234.2,346.5 L235.1,346.2 L235.9,344.8 L236.7,345.8 L237.6,345.5 L238.4,343.8 L239.3,343.5 L240.1,343.5 L241.0,343.8 L241.8,343.8 L242.6,343.5 L243.5,342.8 L244.3,343.2 L245.2,343.5 L246.0,343.8 L246.9,343.5 L247.7,343.2 L248.5,341.5 L249.4,341.5 L250.2,340.2 L251.1,339.8 L251.9,340.5 L252.8,339.8 L253.6,340.5 L254.4,339.8 L255.3,339.8 L256.1,339.8 L257.0,339.5 L257.8,339.8 L258.7,339.8 L259.5,339.2 L260.3,339.8 L261.2,339.5 L262.0,340.2 L262.9,340.8 L263.7,342.5 L264.6,341.8 L265.4,343.5 L266.2,339.2 L267.1,339.8 L267.9,344.8 L268.8,346.2 L269.6,343.5 L270.4,343.8 L271.3,343.8 L272.1,345.5 L273.0,345.5 L273.8,346.9 L274.7,346.9 L275.5,345.5 L276.3,345.8 L277.2,345.8 L278.0,345.2 L278.9,345.8 L279.7,345.2 L280.6,345.2 L281.4,344.8 L282.2,344.8 L283.1,346.2 L283.9,342.8 L284.8,344.8 L285.6,345.2 L286.5,344.5 L287.3,344.8 L288.1,345.5 L289.0,345.5 L289.8,345.5 L290.7,344.8 L291.5,345.8 L292.4,346.2 L293.2,346.9 L294.0,346.2 L294.9,346.9 L295.7,346.5 L296.6,346.9 L297.4,346.2 L298.3,346.5 L299.1,345.8 L299.9,346.5 L300.8,346.5 L301.6,344.8 L302.5,345.2 L303.3,344.8 L304.2,345.2 L305.0,345.2 L305.8,344.5 L306.7,345.2 L307.5,345.2 L308.4,345.2 L309.2,345.2 L310.1,344.5 L310.9,345.2 L311.7,344.8 L312.6,344.8 L313.4,345.2 L314.3,345.2 L315.1,345.2 L316.0,345.2 L316.8,344.5 L317.6,344.8 L318.5,344.5 L319.3,345.2 L320.2,345.2 L321.0,344.8 L321.9,345.2 L322.7,344.8 L323.5,345.2 L324.4,344.5 L325.2,344.8 L326.1,344.5 L326.9,345.2 L327.8,344.8 L328.6,345.2 L329.4,344.8 L330.3,344.5 L331.1,344.5 L332.0,344.8 L332.8,344.8 L333.7,344.5 L334.5,344.5 L335.3,345.5 L336.2,345.2 L337.0,345.2 L337.9,344.8 L338.7,345.5 L339.6,345.2 L340.4,344.8 L341.2,344.8 L342.1,344.8 L342.9,345.5 L343.8,344.5 L344.6,344.5 L345.4,344.5 L346.3,344.5 L347.1,345.2 L348.0,345.5 L348.8,345.2 L349.7,343.8 L350.5,343.8 L351.3,344.5 L352.2,344.2 L353.0,344.2 L353.9,345.5 L354.7,346.2 L355.6,345.5 L356.4,345.5 L357.2,345.2 L358.1,345.2 L358.9,344.2 L359.8,345.2 L360.6,345.2 L361.5,345.2 L362.3,345.5 L363.1,344.8 L364.0,344.8 L364.8,345.2 L365.7,344.8 L366.5,344.5 L367.4,344.2 L368.2,344.5 L369.0,344.2 L369.9,344.2 L370.7,344.2 L371.6,343.8 L372.4,344.2 L373.3,343.8 L374.1,344.2 L374.9,344.2 L375.8,342.5 L376.6,343.2 L377.5,342.5 L378.3,343.2 L379.2,343.2 L380.0,342.8 L380.8,342.5 L381.7,342.5 L382.5,340.8 L383.4,341.2 L384.2,341.2 L385.1,341.2 L385.9,340.8 L386.7,342.2 L387.6,343.5 L388.4,342.5 L389.3,343.5 L390.1,342.8 L391.0,343.2 L391.8,342.5 L392.6,342.2 L393.5,340.5 L394.3,341.5 L395.2,341.8 L396.0,340.8 L396.9,340.8 L397.7,340.5 L398.5,341.2 L399.4,340.8 L400.2,340.8 L401.1,339.8 L401.9,340.2 L402.8,339.5 L403.6,339.5 L404.4,338.8 L405.3,348.9 L406.1,348.9 L407.0,348.5 L407.8,348.9 L408.7,338.5 L409.5,338.5 L410.3,337.8 L411.2,338.5 L412.0,338.5 L412.9,338.5 L413.7,338.2 L414.6,338.2 L415.4,338.2 L416.2,338.8 L417.1,338.8 L417.9,338.5 L418.8,338.2 L419.6,338.2 L420.4,338.2 L421.3,338.2 L422.1,338.5 L423.0,338.2 L423.8,337.5 L424.7,336.5 L425.5,336.8 L426.3,336.8 L427.2,334.8 L428.0,335.5 L428.9,333.5 L429.7,332.5 L430.6,332.5 L431.4,332.5 L432.2,332.5 L433.1,333.2 L433.9,334.2 L434.8,333.8 L435.6,334.2 L436.5,334.5 L437.3,334.2 L438.1,334.5 L439.0,334.5 L439.8,334.5 L440.7,335.2 L441.5,334.8 L442.4,334.5 L443.2,334.8 L444.0,334.5 L444.9,334.5 L445.7,334.2 L446.6,334.2 L447.4,334.2 L448.3,334.2 L449.1,333.8 L449.9,334.2 L450.8,334.5 L451.6,334.5 L452.5,334.8 L453.3,334.5 L454.2,334.8 L455.0,335.2 L455.8,334.5 L456.7,334.2 L457.5,334.5 L458.4,334.5 L459.2,334.5 L460.1,334.2 L460.9,335.2 L461.7,333.2 L462.6,333.2 L463.4,333.5 L464.3,333.5 L465.1,333.8 L466.0,333.2 L466.8,333.5 L467.6,333.2 L468.5,333.8 L469.3,334.2 L470.2,333.5 L471.0,333.2 L471.9,333.2 L472.7,334.5 L473.5,335.2 L474.4,335.2 L475.2,334.5 L476.1,334.8 L476.9,334.5 L477.8,334.8 L478.6,333.8 L479.4,334.2 L480.3,333.8 L481.1,333.8 L482.0,333.5 L482.8,333.8 L483.7,333.8 L484.5,333.5 L485.3,333.5 L486.2,333.5 L487.0,333.5 L487.9,333.5 L488.7,332.2 L489.6,331.8 L490.4,332.2 L491.2,332.2 L492.1,332.5 L492.9,332.5 L493.8,332.2 L494.6,333.8 L495.4,333.8 L496.3,333.8 L497.1,333.8 L498.0,333.8 L498.8,334.5 L499.7,333.8 L500.5,334.5 L501.3,332.5 L502.2,332.8 L503.0,332.8 L503.9,332.2 L504.7,332.8 L505.6,333.2 L506.4,333.2 L507.2,332.8 L508.1,332.8 L508.9,331.8 L509.8,331.8 L510.6,329.8 L511.5,329.5 L512.3,328.1 L513.1,328.8 L514.0,329.5 L514.8,329.5 L515.7,329.8 L516.5,329.8 L517.4,329.5 L518.2,329.5 L519.0,329.1 L519.9,329.8 L520.7,327.8 L521.6,327.1 L522.4,327.5 L523.3,327.8 L524.1,327.5 L524.9,327.1 L525.8,327.8 L526.6,327.5 L527.5,327.5 L528.3,327.5 L529.2,327.1 L530.0,327.8 L530.8,327.8 L531.7,328.1 L532.5,327.8 L533.4,327.8 L534.2,327.8 L535.1,327.8 L535.9,329.1 L536.7,329.1 L537.6,329.1 L538.4,329.5 L539.3,329.5 L540.1,329.8 L541.0,330.5 L541.8,330.5 L542.6,330.8 L543.5,330.2 L544.3,330.2 L545.2,357.5 L546.0,357.9 L546.9,359.2 L547.7,361.5 L548.5,360.5 L549.4,360.9 L550.2,359.9 L551.1,341.5 L551.9,365.6 L552.8,364.2 L553.6,344.2 L554.4,348.9 L555.3,340.8 L556.1,339.8 L557.0,339.2 L557.8,339.2 L558.7,339.2 L559.5,340.2 L560.3,339.2 L561.2,338.8 L562.0,339.2 L562.9,339.5 L563.7,338.8 L564.6,339.2 L565.4,335.8 L566.2,335.5 L567.1,336.8 L567.9,337.2 L568.8,335.5 L569.6,336.2 L570.4,336.2 L571.3,336.2 L572.1,336.2 L573.0,335.8 L573.8,336.5 L574.7,331.8 L575.5,330.5 L576.3,330.5 L577.2,330.2 L578.0,330.2 L578.9,330.2 L579.7,329.8 L580.6,329.5 L581.4,329.8 L582.2,329.5 L583.1,329.8 L583.9,329.8 L584.8,329.8 L585.6,330.2 L586.5,330.8 L587.3,329.5 L588.1,330.8 L589.0,331.8 L589.8,331.2 L590.7,331.5 L591.5,331.8 L592.4,331.5 L593.2,331.2 L594.0,331.5 L594.9,331.8 L595.7,331.5 L596.6,331.5 L597.4,331.5 L598.3,330.8 L599.1,330.8 L599.9,330.2 L600.8,330.5 L601.6,329.8 L602.5,330.2 L603.3,330.2 L604.2,330.2 L605.0,330.2 L605.8,330.5 L606.7,330.8 L607.5,331.2 L608.4,332.8 L609.2,332.5 L610.1,332.2 L610.9,332.5 L611.7,332.2 L612.6,332.5 L613.4,331.8 L614.3,332.2 L615.1,332.8 L616.0,332.5 L616.8,332.2 L617.6,331.8 L618.5,331.8 L619.3,332.5 L620.2,331.8 L621.0,332.5 L621.9,332.2 L622.7,332.2 L623.5,332.5 L624.4,332.2 L625.2,333.2 L626.1,333.2 L626.9,334.5 L627.8,334.5 L628.6,334.2 L629.4,334.5 L630.3,334.8 L631.1,334.8 L632.0,334.2 L632.8,334.5 L633.7,335.2 L634.5,335.2 L635.3,335.8 L636.2,335.8 L637.0,335.5 L637.9,335.8 L638.7,333.5 L639.6,333.2 L640.4,332.8 L641.2,331.5 L642.1,330.8 L642.9,330.8 L643.8,330.2 L644.6,329.5 L645.4,329.5 L646.3,329.8 L647.1,329.5 L648.0,330.5 L648.8,329.8 L649.7,329.5 L650.5,329.5 L651.3,329.1 L652.2,329.8 L653.0,329.8 L653.9,329.1 L654.7,329.5 L655.6,329.5 L656.4,329.1 L657.2,329.1 L658.1,329.5 L658.9,329.5 L659.8,331.2 L660.6,329.1 L661.5,329.5 L662.3,329.5 L663.1,328.1 L664.0,328.8 L664.8,329.1 L665.7,329.1 L666.5,329.8 L667.4,329.8 L668.2,330.8 L669.0,330.8 L669.9,331.2 L670.7,330.8 L671.6,330.8 L672.4,331.5 L673.3,332.2 L674.1,332.5 L674.9,333.5 L675.8,333.2 L676.6,333.2 L677.5,333.5 L678.3,333.5 L679.2,333.2 L680.0,333.2" stroke="#ff7f0e" stroke-width="2" fill="none" opacity="0.8"/>
<!-- Thermal Generation -->
<path d="M80.0,263.7 L80.8,288.7 L81.7,283.4 L82.5,291.1 L83.4,294.7 L84.2,302.4 L85.1,308.1 L85.9,319.8 L86.7,315.1 L87.6,281.7 L88.4,278.0 L89.3,287.7 L90.1,285.1 L91.0,298.1 L91.8,298.1 L92.6,296.8 L93.5,312.4 L94.3,312.8 L95.2,313.1 L96.0,313.8 L96.9,312.4 L97.7,284.1 L98.5,264.4 L99.4,267.4 L100.2,267.0 L101.1,277.0 L101.9,281.4 L102.8,272.0 L103.6,272.0 L104.4,275.0 L105.3,276.4 L106.1,292.1 L107.0,263.0 L107.8,266.0 L108.7,271.7 L109.5,270.4 L110.3,263.3 L111.2,262.0 L112.0,262.7 L112.9,266.4 L113.7,262.3 L114.6,267.0 L115.4,281.4 L116.2,271.0 L117.1,300.1 L117.9,304.4 L118.8,285.1 L119.6,280.0 L120.4,280.0 L121.3,291.1 L122.1,285.4 L123.0,278.4 L123.8,290.1 L124.7,296.1 L125.5,296.4 L126.3,326.8 L127.2,310.8 L128.0,284.7 L128.9,280.4 L129.7,284.1 L130.6,281.1 L131.4,284.7 L132.2,294.4 L133.1,293.4 L133.9,293.1 L134.8,293.4 L135.6,308.8 L136.5,306.8 L137.3,290.1 L138.1,288.1 L139.0,287.1 L139.8,287.4 L140.7,296.4 L141.5,309.4 L142.4,315.5 L143.2,315.8 L144.0,290.7 L144.9,289.1 L145.7,291.4 L146.6,288.1 L147.4,293.7 L148.3,291.4 L149.1,301.8 L149.9,307.8 L150.8,308.1 L151.6,309.1 L152.5,307.8 L153.3,307.8 L154.2,303.8 L155.0,307.8 L155.8,329.8 L156.7,330.5 L157.5,330.2 L158.4,331.5 L159.2,332.2 L160.1,333.2 L160.9,334.2 L161.7,334.2 L162.6,333.5 L163.4,332.8 L164.3,332.8 L165.1,332.8 L166.0,329.5 L166.8,333.2 L167.6,331.8 L168.5,331.8 L169.3,331.8 L170.2,331.8 L171.0,330.2 L171.9,331.5 L172.7,329.1 L173.5,330.2 L174.4,329.8 L175.2,333.2 L176.1,330.5 L176.9,329.5 L177.8,329.5 L178.6,329.8 L179.4,329.8 L180.3,329.1 L181.1,328.8 L182.0,331.2 L182.8,313.1 L183.7,317.8 L184.5,300.1 L185.3,298.1 L186.2,299.1 L187.0,298.8 L187.9,297.8 L188.7,282.4 L189.6,278.0 L190.4,280.4 L191.2,282.7 L192.1,279.4 L192.9,282.1 L193.8,288.4 L194.6,286.7 L195.4,289.4 L196.3,288.4 L197.1,288.4 L198.0,285.1 L198.8,290.1 L199.7,290.1 L200.5,290.4 L201.3,298.4 L202.2,308.8 L203.0,305.4 L203.9,305.4 L204.7,305.4 L205.6,305.4 L206.4,288.1 L207.2,288.4 L208.1,289.4 L208.9,285.4 L209.8,284.1 L210.6,291.1 L211.5,291.7 L212.3,291.7 L213.1,292.4 L214.0,293.1 L214.8,292.7 L215.7,303.1 L216.5,329.8 L217.4,330.2 L218.2,329.1 L219.0,294.4 L219.9,291.4 L220.7,294.1 L221.6,290.4 L222.4,298.8 L223.3,293.4 L224.1,289.1 L224.9,294.7 L225.8,291.4 L226.6,283.1 L227.5,291.1 L228.3,294.4 L229.2,277.4 L230.0,277.0 L230.8,284.4 L231.7,285.7 L232.5,289.1 L233.4,284.4 L234.2,306.1 L235.1,330.8 L235.9,330.8 L236.7,331.2 L237.6,330.8 L238.4,329.5 L239.3,330.2 L240.1,331.5 L241.0,299.4 L241.8,290.1 L242.6,315.1 L243.5,305.4 L244.3,310.8 L245.2,297.8 L246.0,279.4 L246.9,302.4 L247.7,301.8 L248.5,305.4 L249.4,283.4 L250.2,294.1 L251.1,324.8 L251.9,319.1 L252.8,319.1 L253.6,319.8 L254.4,309.8 L255.3,310.8 L256.1,323.5 L257.0,329.8 L257.8,329.8 L258.7,330.2 L259.5,330.8 L260.3,297.1 L261.2,289.1 L262.0,286.4 L262.9,279.7 L263.7,302.8 L264.6,315.5 L265.4,300.1 L266.2,316.5 L267.1,324.5 L267.9,315.5 L268.8,297.8 L269.6,278.7 L270.4,280.0 L271.3,283.7 L272.1,284.4 L273.0,285.1 L273.8,292.1 L274.7,312.1 L275.5,330.2 L276.3,330.5 L277.2,330.2 L278.0,331.5 L278.9,331.5 L279.7,330.2 L280.6,330.5 L281.4,297.8 L282.2,300.4 L283.1,314.1 L283.9,335.2 L284.8,335.5 L285.6,335.2 L286.5,333.5 L287.3,330.5 L288.1,319.5 L289.0,315.8 L289.8,279.0 L290.7,307.8 L291.5,314.5 L292.4,307.8 L293.2,316.1 L294.0,316.1 L294.9,315.5 L295.7,315.1 L296.6,315.5 L297.4,315.8 L298.3,316.1 L299.1,315.5 L299.9,315.5 L300.8,314.1 L301.6,313.8 L302.5,314.5 L303.3,314.5 L304.2,314.1 L305.0,311.4 L305.8,317.1 L306.7,316.8 L307.5,317.5 L308.4,317.5 L309.2,317.1 L310.1,305.1 L310.9,324.5 L311.7,341.8 L312.6,343.2 L313.4,349.5 L314.3,355.5 L315.1,355.2 L316.0,356.9 L316.8,356.2 L317.6,355.2 L318.5,354.5 L319.3,355.5 L320.2,354.9 L321.0,353.5 L321.9,352.9 L322.7,352.5 L323.5,352.5 L324.4,351.9 L325.2,352.2 L326.1,352.5 L326.9,352.9 L327.8,353.9 L328.6,353.2 L329.4,353.5 L330.3,354.9 L331.1,354.5 L332.0,355.5 L332.8,355.2 L333.7,353.2 L334.5,353.5 L335.3,353.2 L336.2,353.9 L337.0,352.9 L337.9,353.9 L338.7,354.2 L339.6,353.2 L340.4,353.2 L341.2,353.2 L342.1,352.2 L342.9,337.2 L343.8,353.9 L344.6,352.9 L345.4,352.5 L346.3,352.5 L347.1,352.5 L348.0,352.9 L348.8,352.9 L349.7,353.5 L350.5,305.4 L351.3,301.4 L352.2,341.5 L353.0,342.2 L353.9,352.2 L354.7,353.5 L355.6,345.8 L356.4,352.9 L357.2,352.5 L358.1,352.5 L358.9,352.5 L359.8,353.2 L360.6,352.5 L361.5,352.9 L362.3,309.8 L363.1,315.8 L364.0,353.5 L364.8,349.9 L365.7,354.2 L366.5,354.9 L367.4,353.2 L368.2,353.5 L369.0,352.5 L369.9,352.2 L370.7,312.1 L371.6,315.1 L372.4,347.9 L373.3,353.9 L374.1,354.2 L374.9,353.2 L375.8,353.5 L376.6,352.5 L377.5,351.9 L378.3,352.2 L379.2,353.5 L380.0,353.2 L380.8,347.2 L381.7,307.4 L382.5,301.4 L383.4,304.4 L384.2,320.8 L385.1,352.2 L385.9,346.5 L386.7,354.9 L387.6,328.5 L388.4,354.2 L389.3,348.5 L390.1,358.2 L391.0,317.5 L391.8,299.1 L392.6,302.4 L393.5,333.2 L394.3,324.1 L395.2,324.8 L396.0,320.1 L396.9,330.5 L397.7,341.2 L398.5,345.2 L399.4,349.9 L400.2,350.5 L401.1,343.2 L401.9,333.5 L402.8,313.1 L403.6,316.5 L404.4,347.5 L405.3,355.9 L406.1,354.2 L407.0,353.9 L407.8,353.2 L408.7,353.5 L409.5,353.9 L410.3,354.5 L411.2,358.2 L412.0,355.9 L412.9,354.9 L413.7,355.5 L414.6,354.5 L415.4,354.2 L416.2,353.5 L417.1,356.2 L417.9,355.2 L418.8,354.5 L419.6,358.5 L420.4,358.2 L421.3,355.9 L422.1,333.8 L423.0,305.1 L423.8,296.8 L424.7,351.2 L425.5,335.2 L426.3,335.2 L427.2,327.1 L428.0,327.1 L428.9,328.5 L429.7,326.8 L430.6,320.1 L431.4,293.4 L432.2,316.8 L433.1,320.1 L433.9,311.4 L434.8,319.8 L435.6,321.5 L436.5,320.1 L437.3,332.2 L438.1,341.2 L439.0,342.8 L439.8,343.8 L440.7,329.1 L441.5,309.4 L442.4,281.1 L443.2,269.7 L444.0,264.4 L444.9,306.1 L445.7,307.8 L446.6,309.8 L447.4,316.8 L448.3,315.8 L449.1,317.5 L449.9,316.5 L450.8,315.5 L451.6,260.7 L452.5,259.7 L453.3,271.4 L454.2,292.4 L455.0,305.1 L455.8,304.4 L456.7,315.8 L457.5,316.1 L458.4,315.5 L459.2,316.1 L460.1,316.5 L460.9,317.1 L461.7,317.1 L462.6,314.5 L463.4,314.1 L464.3,313.8 L465.1,317.5 L466.0,317.1 L466.8,317.5 L467.6,317.5 L468.5,317.1 L469.3,316.8 L470.2,317.1 L471.0,316.8 L471.9,282.4 L472.7,262.0 L473.5,298.1 L474.4,314.8 L475.2,316.5 L476.1,315.8 L476.9,315.1 L477.8,314.8 L478.6,315.8 L479.4,314.5 L480.3,314.8 L481.1,315.5 L482.0,314.8 L482.8,296.4 L483.7,285.4 L484.5,290.7 L485.3,315.1 L486.2,314.8 L487.0,315.1 L487.9,313.8 L488.7,314.1 L489.6,314.5 L490.4,315.1 L491.2,314.8 L492.1,292.4 L492.9,268.0 L493.8,312.4 L494.6,313.8 L495.4,313.8 L496.3,313.8 L497.1,313.8 L498.0,314.1 L498.8,313.5 L499.7,367.9 L500.5,368.6 L501.3,368.6 L502.2,356.2 L503.0,341.5 L503.9,314.5 L504.7,312.1 L505.6,313.8 L506.4,310.1 L507.2,308.4 L508.1,309.8 L508.9,309.8 L509.8,309.8 L510.6,310.4 L511.5,311.1 L512.3,311.8 L513.1,302.1 L514.0,312.1 L514.8,312.4 L515.7,348.5 L516.5,355.5 L517.4,364.6 L518.2,364.2 L519.0,364.9 L519.9,365.6 L520.7,365.2 L521.6,364.9 L522.4,364.6 L523.3,363.2 L524.1,354.9 L524.9,354.5 L525.8,354.5 L526.6,354.9 L527.5,368.2 L528.3,364.6 L529.2,368.2 L530.0,368.2 L530.8,368.6 L531.7,368.2 L532.5,368.6 L533.4,368.2 L534.2,349.9 L535.1,350.9 L535.9,349.5 L536.7,367.6 L537.6,368.2 L538.4,367.6 L539.3,367.6 L540.1,367.6 L541.0,368.2 L541.8,368.6 L542.6,368.6 L543.5,367.9 L544.3,368.6 L545.2,367.6 L546.0,368.6 L546.9,344.5 L547.7,345.2 L548.5,373.9 L549.4,344.2 L550.2,351.9 L551.1,352.5 L551.9,420.0 L552.8,420.0 L553.6,408.3 L554.4,409.0 L555.3,409.0 L556.1,406.3 L557.0,405.6 L557.8,396.6 L558.7,394.6 L559.5,400.0 L560.3,400.6 L561.2,400.6 L562.0,400.6 L562.9,400.3 L563.7,400.6 L564.6,400.3 L565.4,399.6 L566.2,400.0 L567.1,399.3 L567.9,400.0 L568.8,400.0 L569.6,392.6 L570.4,391.9 L571.3,394.6 L572.1,391.3 L573.0,391.3 L573.8,393.9 L574.7,385.6 L575.5,384.9 L576.3,386.9 L577.2,393.3 L578.0,393.3 L578.9,393.9 L579.7,400.6 L580.6,389.3 L581.4,387.9 L582.2,389.9 L583.1,389.9 L583.9,390.3 L584.8,390.3 L585.6,373.9 L586.5,359.9 L587.3,356.5 L588.1,340.2 L589.0,341.5 L589.8,338.2 L590.7,335.8 L591.5,348.9 L592.4,327.1 L593.2,319.5 L594.0,319.5 L594.9,319.8 L595.7,321.1 L596.6,322.5 L597.4,321.8 L598.3,357.5 L599.1,325.8 L599.9,338.2 L600.8,376.9 L601.6,376.6 L602.5,376.9 L603.3,377.2 L604.2,376.6 L605.0,360.5 L605.8,361.5 L606.7,354.5 L607.5,343.5 L608.4,341.8 L609.2,339.2 L610.1,356.9 L610.9,359.9 L611.7,362.9 L612.6,362.9 L613.4,339.5 L614.3,321.1 L615.1,341.2 L616.0,346.2 L616.8,340.2 L617.6,317.8 L618.5,351.2 L619.3,342.5 L620.2,356.9 L621.0,363.6 L621.9,363.6 L622.7,363.9 L623.5,355.5 L624.4,354.9 L625.2,343.2 L626.1,342.8 L626.9,345.5 L627.8,320.1 L628.6,325.8 L629.4,331.8 L630.3,330.8 L631.1,323.8 L632.0,328.8 L632.8,329.5 L633.7,300.4 L634.5,300.4 L635.3,307.8 L636.2,304.4 L637.0,320.5 L637.9,320.5 L638.7,320.1 L639.6,323.1 L640.4,333.2 L641.2,350.5 L642.1,370.6 L642.9,370.9 L643.8,371.6 L644.6,364.9 L645.4,350.9 L646.3,351.9 L647.1,343.8 L648.0,335.8 L648.8,323.8 L649.7,324.5 L650.5,339.5 L651.3,339.2 L652.2,351.9 L653.0,351.5 L653.9,337.2 L654.7,323.5 L655.6,307.4 L656.4,294.7 L657.2,298.1 L658.1,308.8 L658.9,333.5 L659.8,332.8 L660.6,333.8 L661.5,333.5 L662.3,332.5 L663.1,352.5 L664.0,336.5 L664.8,329.8 L665.7,330.5 L666.5,330.8 L667.4,332.5 L668.2,337.2 L669.0,332.5 L669.9,349.2 L670.7,358.2 L671.6,359.5 L672.4,331.5 L673.3,331.5 L674.1,331.8 L674.9,333.8 L675.8,331.5 L676.6,353.2 L677.5,331.2 L678.3,358.9 L679.2,359.5 L680.0,357.5" stroke="#2ca02c" stroke-width="2" fill="none" opacity="0.8"/>
<!-- Solar Generation -->
<path d="M80.0,420.0 L80.8,417.7 L81.7,396.3 L82.5,389.9 L83.4,407.0 L84.2,413.3 L85.1,404.0 L85.9,409.3 L86.7,415.7 L87.6,420.0 L88.4,420.0 L89.3,420.0 L90.1,420.0 L91.0,420.0 L91.8,420.0 L92.6,420.0 L93.5,420.0 L94.3,420.0 L95.2,420.0 L96.0,420.0 L96.9,420.0 L97.7,420.0 L98.5,420.0 L99.4,420.0 L100.2,419.7 L101.1,408.3 L101.9,394.9 L102.8,393.3 L103.6,398.6 L104.4,397.0 L105.3,397.3 L106.1,403.3 L107.0,416.0 L107.8,419.7 L108.7,420.0 L109.5,420.0 L110.3,420.0 L111.2,420.0 L112.0,420.0 L112.9,420.0 L113.7,420.0 L114.6,420.0 L115.4,420.0 L116.2,420.0 L117.1,420.0 L117.9,420.0 L118.8,420.0 L119.6,420.0 L120.4,420.0 L121.3,417.3 L122.1,408.6 L123.0,412.7 L123.8,404.6 L124.7,401.0 L125.5,410.6 L126.3,415.7 L127.2,416.0 L128.0,420.0 L128.9,420.0 L129.7,420.0 L130.6,420.0 L131.4,420.0 L132.2,420.0 L133.1,420.0 L133.9,420.0 L134.8,420.0 L135.6,420.0 L136.5,420.0 L137.3,420.0 L138.1,420.0 L139.0,420.0 L139.8,420.0 L140.7,419.7 L141.5,416.7 L142.4,399.6 L143.2,411.3 L144.0,404.6 L144.9,402.3 L145.7,399.6 L146.6,415.0 L147.4,418.7 L148.3,420.0 L149.1,420.0 L149.9,420.0 L150.8,420.0 L151.6,420.0 L152.5,420.0 L153.3,420.0 L154.2,420.0 L155.0,420.0 L155.8,420.0 L156.7,420.0 L157.5,420.0 L158.4,420.0 L159.2,420.0 L160.1,420.0 L160.9,420.0 L161.7,417.3 L162.6,416.7 L163.4,415.7 L164.3,413.0 L165.1,414.0 L166.0,414.3 L166.8,417.3 L167.6,419.3 L168.5,420.0 L169.3,420.0 L170.2,420.0 L171.0,420.0 L171.9,420.0 L172.7,420.0 L173.5,420.0 L174.4,420.0 L175.2,420.0 L176.1,420.0 L176.9,420.0 L177.8,420.0 L178.6,420.0 L179.4,420.0 L180.3,420.0 L181.1,420.0 L182.0,413.7 L182.8,405.3 L183.7,401.3 L184.5,401.6 L185.3,399.6 L186.2,394.3 L187.0,391.6 L187.9,413.3 L188.7,420.0 L189.6,420.0 L190.4,420.0 L191.2,420.0 L192.1,420.0 L192.9,420.0 L193.8,420.0 L194.6,420.0 L195.4,420.0 L196.3,420.0 L197.1,420.0 L198.0,420.0 L198.8,420.0 L199.7,420.0 L200.5,420.0 L201.3,420.0 L202.2,413.7 L203.0,406.0 L203.9,395.6 L204.7,396.3 L205.6,394.6 L206.4,394.9 L207.2,389.9 L208.1,407.6 L208.9,419.7 L209.8,420.0 L210.6,420.0 L211.5,420.0 L212.3,420.0 L213.1,420.0 L214.0,420.0 L214.8,420.0 L215.7,420.0 L216.5,420.0 L217.4,420.0 L218.2,420.0 L219.0,420.0 L219.9,420.0 L220.7,420.0 L221.6,419.7 L222.4,409.6 L223.3,403.3 L224.1,398.6 L224.9,402.0 L225.8,403.0 L226.6,403.6 L227.5,410.6 L228.3,417.7 L229.2,420.0 L230.0,420.0 L230.8,420.0 L231.7,420.0 L232.5,420.0 L233.4,420.0 L234.2,420.0 L235.1,420.0 L235.9,420.0 L236.7,420.0 L237.6,420.0 L238.4,420.0 L239.3,420.0 L240.1,420.0 L241.0,420.0 L241.8,420.0 L242.6,417.7 L243.5,413.3 L244.3,411.0 L245.2,408.6 L246.0,399.3 L246.9,405.6 L247.7,411.6 L248.5,417.7 L249.4,420.0 L250.2,420.0 L251.1,420.0 L251.9,420.0 L252.8,420.0 L253.6,420.0 L254.4,420.0 L255.3,420.0 L256.1,420.0 L257.0,420.0 L257.8,420.0 L258.7,420.0 L259.5,420.0 L260.3,420.0 L261.2,420.0 L262.0,420.0 L262.9,413.3 L263.7,404.6 L264.6,397.6 L265.4,395.6 L266.2,393.6 L267.1,391.9 L267.9,394.3 L268.8,410.0 L269.6,420.0 L270.4,420.0 L271.3,420.0 L272.1,420.0 L273.0,420.0 L273.8,420.0 L274.7,420.0 L275.5,420.0 L276.3,420.0 L277.2,420.0 L278.0,420.0 L278.9,420.0 L279.7,420.0 L280.6,420.0 L281.4,420.0 L282.2,420.0 L283.1,413.0 L283.9,405.3 L284.8,406.3 L285.6,406.0 L286.5,411.3 L287.3,410.6 L288.1,413.0 L289.0,417.0 L289.8,420.0 L290.7,420.0 L291.5,420.0 L292.4,420.0 L293.2,420.0 L294.0,420.0 L294.9,420.0 L295.7,420.0 L296.6,420.0 L297.4,420.0 L298.3,420.0 L299.1,420.0 L299.9,420.0 L300.8,420.0 L301.6,420.0 L302.5,420.0 L303.3,414.3 L304.2,394.3 L305.0,404.0 L305.8,404.6 L306.7,409.0 L307.5,399.0 L308.4,411.0 L309.2,417.7 L310.1,420.0 L310.9,420.0 L311.7,420.0 L312.6,420.0 L313.4,420.0 L314.3,420.0 L315.1,420.0 L316.0,420.0 L316.8,420.0 L317.6,420.0 L318.5,420.0 L319.3,420.0 L320.2,420.0 L321.0,420.0 L321.9,420.0 L322.7,420.0 L323.5,417.7 L324.4,409.6 L325.2,414.7 L326.1,413.7 L326.9,415.0 L327.8,412.3 L328.6,416.3 L329.4,418.3 L330.3,420.0 L331.1,420.0 L332.0,420.0 L332.8,420.0 L333.7,420.0 L334.5,420.0 L335.3,420.0 L336.2,420.0 L337.0,420.0 L337.9,420.0 L338.7,420.0 L339.6,420.0 L340.4,420.0 L341.2,420.0 L342.1,420.0 L342.9,420.0 L343.8,418.7 L344.6,414.3 L345.4,410.6 L346.3,406.3 L347.1,410.3 L348.0,411.6 L348.8,413.3 L349.7,417.0 L350.5,420.0 L351.3,420.0 L352.2,420.0 L353.0,420.0 L353.9,420.0 L354.7,420.0 L355.6,420.0 L356.4,420.0 L357.2,420.0 L358.1,420.0 L358.9,420.0 L359.8,420.0 L360.6,420.0 L361.5,420.0 L362.3,420.0 L363.1,420.0 L364.0,419.0 L364.8,407.3 L365.7,411.3 L366.5,403.0 L367.4,407.0 L368.2,414.3 L369.0,412.0 L369.9,417.7 L370.7,420.0 L371.6,420.0 L372.4,420.0 L373.3,420.0 L374.1,420.0 L374.9,420.0 L375.8,420.0 L376.6,420.0 L377.5,420.0 L378.3,420.0 L379.2,420.0 L380.0,420.0 L380.8,420.0 L381.7,420.0 L382.5,420.0 L383.4,420.0 L384.2,418.0 L385.1,412.7 L385.9,407.6 L386.7,406.0 L387.6,406.3 L388.4,403.6 L389.3,412.3 L390.1,415.7 L391.0,420.0 L391.8,420.0 L392.6,420.0 L393.5,420.0 L394.3,420.0 L395.2,420.0 L396.0,420.0 L396.9,420.0 L397.7,420.0 L398.5,420.0 L399.4,420.0 L400.2,420.0 L401.1,420.0 L401.9,420.0 L402.8,420.0 L403.6,420.0 L404.4,419.3 L405.3,416.7 L406.1,417.7 L407.0,414.0 L407.8,414.3 L408.7,404.3 L409.5,412.3 L410.3,418.0 L411.2,420.0 L412.0,420.0 L412.9,420.0 L413.7,420.0 L414.6,420.0 L415.4,420.0 L416.2,420.0 L417.1,420.0 L417.9,420.0 L418.8,420.0 L419.6,420.0 L420.4,420.0 L421.3,420.0 L422.1,420.0 L423.0,420.0 L423.8,420.0 L424.7,417.0 L425.5,414.7 L426.3,412.3 L427.2,411.0 L428.0,413.0 L428.9,412.7 L429.7,417.0 L430.6,418.7 L431.4,420.0 L432.2,420.0 L433.1,420.0 L433.9,420.0 L434.8,420.0 L435.6,420.0 L436.5,420.0 L437.3,420.0 L438.1,420.0 L439.0,420.0 L439.8,420.0 L440.7,420.0 L441.5,420.0 L442.4,420.0 L443.2,420.0 L444.0,420.0 L444.9,419.0 L445.7,417.3 L446.6,415.0 L447.4,409.6 L448.3,407.6 L449.1,410.3 L449.9,405.0 L450.8,415.3 L451.6,420.0 L452.5,420.0 L453.3,420.0 L454.2,420.0 L455.0,420.0 L455.8,420.0 L456.7,420.0 L457.5,420.0 L458.4,420.0 L459.2,420.0 L460.1,420.0 L460.9,420.0 L461.7,420.0 L462.6,420.0 L463.4,420.0 L464.3,420.0 L465.1,415.7 L466.0,409.6 L466.8,410.0 L467.6,412.3 L468.5,414.0 L469.3,405.6 L470.2,409.3 L471.0,410.0 L471.9,420.0 L472.7,420.0 L473.5,420.0 L474.4,420.0 L475.2,420.0 L476.1,420.0 L476.9,420.0 L477.8,420.0 L478.6,420.0 L479.4,420.0 L480.3,420.0 L481.1,420.0 L482.0,420.0 L482.8,420.0 L483.7,420.0 L484.5,419.7 L485.3,414.7 L486.2,399.6 L487.0,402.3 L487.9,400.3 L488.7,396.6 L489.6,393.6 L490.4,402.6 L491.2,408.0 L492.1,419.7 L492.9,420.0 L493.8,420.0 L494.6,420.0 L495.4,420.0 L496.3,420.0 L497.1,420.0 L498.0,420.0 L498.8,420.0 L499.7,420.0 L500.5,420.0 L501.3,420.0 L502.2,420.0 L503.0,420.0 L503.9,420.0 L504.7,420.0 L505.6,415.7 L506.4,393.9 L507.2,396.0 L508.1,404.6 L508.9,397.0 L509.8,397.0 L510.6,405.6 L511.5,418.0 L512.3,420.0 L513.1,420.0 L514.0,420.0 L514.8,420.0 L515.7,420.0 L516.5,420.0 L517.4,420.0 L518.2,420.0 L519.0,420.0 L519.9,420.0 L520.7,420.0 L521.6,420.0 L522.4,420.0 L523.3,420.0 L524.1,420.0 L524.9,420.0 L525.8,417.7 L526.6,411.0 L527.5,409.6 L528.3,409.3 L529.2,401.0 L530.0,395.6 L530.8,410.0 L531.7,415.3 L532.5,420.0 L533.4,420.0 L534.2,420.0 L535.1,420.0 L535.9,420.0 L536.7,420.0 L537.6,420.0 L538.4,420.0 L539.3,420.0 L540.1,420.0 L541.0,420.0 L541.8,420.0 L542.6,420.0 L543.5,420.0 L544.3,420.0 L545.2,420.0 L546.0,419.3 L546.9,418.7 L547.7,417.0 L548.5,417.3 L549.4,416.7 L550.2,408.3 L551.1,409.0 L551.9,418.3 L552.8,420.0 L553.6,420.0 L554.4,420.0 L555.3,420.0 L556.1,420.0 L557.0,420.0 L557.8,420.0 L558.7,420.0 L559.5,420.0 L560.3,420.0 L561.2,420.0 L562.0,420.0 L562.9,420.0 L563.7,420.0 L564.6,420.0 L565.4,420.0 L566.2,419.0 L567.1,417.0 L567.9,415.7 L568.8,414.3 L569.6,416.0 L570.4,415.7 L571.3,417.0 L572.1,419.0 L573.0,420.0 L573.8,420.0 L574.7,420.0 L575.5,420.0 L576.3,420.0 L577.2,420.0 L578.0,420.0 L578.9,420.0 L579.7,420.0 L580.6,420.0 L581.4,420.0 L582.2,420.0 L583.1,420.0 L583.9,420.0 L584.8,420.0 L585.6,420.0 L586.5,416.7 L587.3,414.7 L588.1,408.0 L589.0,412.7 L589.8,413.0 L590.7,416.0 L591.5,415.3 L592.4,419.0 L593.2,420.0 L594.0,420.0 L594.9,420.0 L595.7,420.0 L596.6,420.0 L597.4,420.0 L598.3,420.0 L599.1,420.0 L599.9,420.0 L600.8,420.0 L601.6,420.0 L602.5,420.0 L603.3,420.0 L604.2,420.0 L605.0,420.0 L605.8,420.0 L606.7,417.3 L607.5,402.6 L608.4,400.3 L609.2,400.0 L610.1,399.0 L610.9,397.6 L611.7,407.6 L612.6,414.7 L613.4,420.0 L614.3,420.0 L615.1,420.0 L616.0,420.0 L616.8,420.0 L617.6,420.0 L618.5,420.0 L619.3,420.0 L620.2,420.0 L621.0,420.0 L621.9,420.0 L622.7,420.0 L623.5,420.0 L624.4,420.0 L625.2,420.0 L626.1,420.0 L626.9,419.0 L627.8,417.0 L628.6,415.0 L629.4,412.3 L630.3,412.0 L631.1,415.3 L632.0,416.7 L632.8,418.7 L633.7,420.0 L634.5,420.0 L635.3,420.0 L636.2,420.0 L637.0,420.0 L637.9,420.0 L638.7,420.0 L639.6,420.0 L640.4,420.0 L641.2,420.0 L642.1,420.0 L642.9,420.0 L643.8,420.0 L644.6,420.0 L645.4,420.0 L646.3,420.0 L647.1,419.3 L648.0,416.7 L648.8,411.6 L649.7,410.3 L650.5,404.0 L651.3,401.3 L652.2,412.7 L653.0,416.0 L653.9,420.0 L654.7,420.0 L655.6,420.0 L656.4,420.0 L657.2,420.0 L658.1,420.0 L658.9,420.0 L659.8,420.0 L660.6,420.0 L661.5,420.0 L662.3,420.0 L663.1,420.0 L664.0,420.0 L664.8,420.0 L665.7,420.0 L666.5,420.0 L667.4,417.3 L668.2,406.3 L669.0,411.0 L669.9,409.6 L670.7,405.0 L671.6,409.6 L672.4,412.7 L673.3,416.7 L674.1,420.0 L674.9,420.0 L675.8,420.0 L676.6,420.0 L677.5,420.0 L678.3,420.0 L679.2,420.0 L680.0,420.0" stroke="#d62728" stroke-width="2" fill="none" opacity="0.8"/>
<!-- Forecast -->
<path d="M80.0,137.8 L80.8,119.4 L81.7,117.4 L82.5,119.7 L83.4,123.4 L84.2,128.4 L85.1,132.4 L85.9,135.1 L86.7,135.1 L87.6,127.1 L88.4,109.0 L89.3,102.4 L90.1,108.0 L91.0,118.7 L91.8,136.8 L92.6,160.1 L93.5,177.8 L94.3,196.9 L95.2,203.9 L96.0,207.6 L96.9,208.9 L97.7,205.2 L98.5,188.9 L99.4,155.1 L100.2,121.7 L101.1,107.0 L101.9,108.7 L102.8,113.7 L103.6,118.1 L104.4,124.7 L105.3,129.4 L106.1,131.4 L107.0,130.4 L107.8,121.4 L108.7,102.4 L109.5,96.0 L110.3,100.4 L111.2,111.4 L112.0,128.1 L112.9,153.1 L113.7,182.5 L114.6,193.9 L115.4,200.2 L116.2,205.2 L117.1,207.2 L117.9,204.6 L118.8,188.5 L119.6,156.5 L120.4,123.1 L121.3,108.4 L122.1,109.4 L123.0,114.4 L123.8,118.4 L124.7,125.1 L125.5,129.4 L126.3,132.1 L127.2,132.1 L128.0,120.1 L128.9,105.0 L129.7,100.0 L130.6,106.4 L131.4,117.1 L132.2,134.8 L133.1,159.1 L133.9,189.2 L134.8,201.2 L135.6,209.2 L136.5,213.2 L137.3,216.6 L138.1,215.9 L139.0,211.2 L139.8,199.2 L140.7,182.2 L141.5,165.5 L142.4,152.1 L143.2,142.8 L144.0,146.8 L144.9,157.1 L145.7,158.5 L146.6,157.5 L147.4,154.5 L148.3,147.4 L149.1,129.7 L149.9,119.4 L150.8,129.1 L151.6,141.1 L152.5,150.1 L153.3,169.8 L154.2,178.5 L155.0,196.5 L155.8,208.9 L156.7,213.9 L157.5,215.6 L158.4,211.9 L159.2,195.5 L160.1,163.8 L160.9,128.7 L161.7,111.4 L162.6,110.4 L163.4,114.0 L164.3,117.7 L165.1,123.1 L166.0,127.4 L166.8,129.7 L167.6,129.1 L168.5,119.4 L169.3,99.7 L170.2,93.3 L171.0,98.7 L171.9,109.4 L172.7,125.7 L173.5,150.1 L174.4,156.1 L175.2,182.9 L176.1,194.5 L176.9,199.2 L177.8,201.6 L178.6,201.2 L179.4,194.2 L180.3,177.5 L181.1,157.8 L182.0,137.1 L182.8,128.1 L183.7,125.4 L184.5,126.1 L185.3,128.7 L186.2,134.1 L187.0,138.1 L187.9,137.1 L188.7,126.1 L189.6,103.4 L190.4,98.7 L191.2,105.0 L192.1,115.0 L192.9,128.1 L193.8,143.4 L194.6,130.1 L195.4,165.8 L196.3,182.9 L197.1,188.2 L198.0,190.2 L198.8,187.2 L199.7,180.5 L200.5,163.5 L201.3,147.1 L202.2,132.8 L203.0,121.1 L203.9,114.7 L204.7,114.0 L205.6,119.4 L206.4,124.1 L207.2,128.1 L208.1,128.4 L208.9,116.1 L209.8,109.0 L210.6,104.7 L211.5,100.0 L212.3,95.7 L213.1,91.3 L214.0,101.0 L214.8,163.8 L215.7,177.2 L216.5,183.9 L217.4,189.9 L218.2,191.5 L219.0,189.5 L219.9,171.8 L220.7,140.8 L221.6,109.7 L222.4,95.3 L223.3,98.0 L224.1,103.4 L224.9,109.7 L225.8,115.4 L226.6,122.7 L227.5,127.1 L228.3,125.4 L229.2,114.0 L230.0,93.7 L230.8,88.0 L231.7,94.7 L232.5,108.0 L233.4,125.4 L234.2,151.5 L235.1,181.9 L235.9,179.5 L236.7,201.6 L237.6,211.9 L238.4,214.2 L239.3,210.6 L240.1,195.2 L241.0,163.8 L241.8,128.4 L242.6,112.7 L243.5,112.0 L244.3,115.7 L245.2,119.4 L246.0,125.7 L246.9,129.7 L247.7,132.4 L248.5,132.4 L249.4,124.1 L250.2,106.0 L251.1,100.4 L251.9,106.4 L252.8,117.4 L253.6,135.1 L254.4,159.5 L255.3,177.2 L256.1,196.5 L257.0,202.9 L257.8,206.6 L258.7,207.6 L259.5,203.2 L260.3,187.2 L261.2,153.8 L262.0,118.1 L262.9,103.0 L263.7,105.0 L264.6,109.4 L265.4,114.7 L266.2,120.4 L267.1,126.1 L267.9,128.4 L268.8,127.1 L269.6,116.1 L270.4,95.0 L271.3,89.3 L272.1,95.7 L273.0,107.4 L273.8,124.4 L274.7,150.5 L275.5,156.5 L276.3,193.5 L277.2,201.2 L278.0,206.9 L278.9,208.9 L279.7,206.2 L280.6,190.9 L281.4,158.1 L282.2,122.1 L283.1,106.7 L283.9,107.7 L284.8,112.4 L285.6,116.4 L286.5,123.1 L287.3,127.7 L288.1,130.1 L289.0,130.1 L289.8,122.1 L290.7,104.4 L291.5,99.4 L292.4,105.4 L293.2,116.7 L294.0,135.4 L294.9,159.5 L295.7,362.9 L296.6,196.9 L297.4,207.2 L298.3,211.6 L299.1,213.9 L299.9,210.6 L300.8,194.2 L301.6,162.5 L302.5,125.4 L303.3,109.4 L304.2,109.4 L305.0,113.0 L305.8,116.7 L306.7,123.1 L307.5,127.4 L308.4,129.7 L309.2,129.4 L310.1,121.1 L310.9,103.4 L311.7,98.3 L312.6,104.7 L313.4,117.4 L314.3,136.8 L315.1,160.5 L316.0,182.9 L316.8,198.9 L317.6,208.6 L318.5,213.9 L319.3,216.9 L320.2,216.9 L321.0,210.2 L321.9,193.5 L322.7,172.2 L323.5,151.8 L324.4,140.4 L325.2,136.4 L326.1,137.8 L326.9,140.1 L327.8,145.8 L328.6,149.8 L329.4,148.8 L330.3,140.8 L331.1,123.1 L332.0,119.1 L332.8,123.1 L333.7,132.4 L334.5,146.8 L335.3,165.2 L336.2,189.9 L337.0,198.2 L337.9,208.2 L338.7,213.6 L339.6,215.3 L340.4,213.9 L341.2,209.2 L342.1,197.2 L342.9,179.2 L343.8,162.8 L344.6,149.8 L345.4,140.4 L346.3,143.8 L347.1,149.5 L348.0,152.8 L348.8,153.5 L349.7,151.5 L350.5,144.4 L351.3,127.1 L352.2,118.7 L353.0,129.7 L353.9,142.8 L354.7,152.5 L355.6,170.5 L356.4,188.9 L357.2,202.2 L358.1,210.9 L358.9,215.6 L359.8,217.6 L360.6,214.2 L361.5,198.6 L362.3,168.2 L363.1,133.1 L364.0,114.7 L364.8,113.0 L365.7,115.7 L366.5,119.4 L367.4,125.1 L368.2,129.1 L369.0,131.7 L369.9,132.1 L370.7,124.4 L371.6,108.0 L372.4,102.7 L373.3,108.0 L374.1,122.1 L374.9,143.4 L375.8,165.5 L376.6,170.2 L377.5,202.9 L378.3,213.9 L379.2,220.9 L380.0,222.9 L380.8,221.9 L381.7,205.9 L382.5,172.2 L383.4,139.8 L384.2,121.4 L385.1,117.4 L385.9,118.4 L386.7,121.7 L387.6,126.4 L388.4,130.1 L389.3,133.1 L390.1,134.1 L391.0,126.7 L391.8,110.4 L392.6,104.4 L393.5,108.4 L394.3,122.1 L395.2,143.4 L396.0,164.8 L396.9,191.2 L397.7,202.6 L398.5,210.9 L399.4,216.6 L400.2,218.9 L401.1,216.6 L401.9,201.9 L402.8,171.2 L403.6,138.1 L404.4,119.7 L405.3,117.1 L406.1,118.7 L407.0,122.1 L407.8,127.1 L408.7,131.1 L409.5,135.1 L410.3,136.8 L411.2,130.4 L412.0,115.7 L412.9,110.0 L413.7,112.4 L414.6,128.7 L415.4,147.8 L416.2,170.2 L417.1,183.5 L417.9,204.9 L418.8,217.9 L419.6,224.6 L420.4,225.9 L421.3,225.3 L422.1,209.6 L423.0,173.2 L423.8,142.1 L424.7,125.4 L425.5,121.4 L426.3,121.7 L427.2,124.7 L428.0,127.7 L428.9,131.4 L429.7,134.4 L430.6,134.4 L431.4,125.7 L432.2,108.0 L433.1,101.0 L433.9,104.7 L434.8,117.7 L435.6,134.8 L436.5,158.1 L437.3,179.2 L438.1,195.2 L439.0,205.9 L439.8,211.6 L440.7,213.2 L441.5,210.2 L442.4,194.2 L443.2,161.5 L444.0,127.1 L444.9,108.7 L445.7,105.4 L446.6,106.4 L447.4,109.7 L448.3,114.4 L449.1,119.1 L449.9,121.4 L450.8,121.1 L451.6,114.4 L452.5,97.0 L453.3,91.3 L454.2,97.3 L455.0,111.7 L455.8,130.7 L456.7,155.1 L457.5,187.5 L458.4,199.9 L459.2,207.6 L460.1,213.2 L460.9,216.6 L461.7,221.3 L462.6,217.3 L463.4,195.9 L464.3,173.2 L465.1,153.1 L466.0,145.1 L466.8,138.1 L467.6,139.4 L468.5,142.1 L469.3,149.5 L470.2,152.8 L471.0,151.8 L471.9,145.1 L472.7,128.4 L473.5,124.1 L474.4,127.1 L475.2,136.4 L476.1,150.5 L476.9,170.5 L477.8,175.2 L478.6,203.6 L479.4,209.6 L480.3,214.6 L481.1,215.3 L482.0,213.2 L482.8,208.2 L483.7,197.9 L484.5,184.2 L485.3,171.2 L486.2,158.5 L487.0,145.8 L487.9,138.1 L488.7,144.1 L489.6,150.1 L490.4,157.8 L491.2,156.1 L492.1,152.8 L492.9,134.8 L493.8,126.1 L494.6,127.7 L495.4,140.4 L496.3,153.5 L497.1,170.5 L498.0,191.2 L498.8,203.2 L499.7,210.6 L500.5,215.6 L501.3,217.9 L502.2,214.9 L503.0,199.6 L503.9,170.2 L504.7,135.8 L505.6,117.1 L506.4,114.7 L507.2,117.1 L508.1,120.7 L508.9,125.7 L509.8,130.1 L510.6,133.8 L511.5,134.8 L512.3,128.1 L513.1,112.4 L514.0,106.7 L514.8,110.0 L515.7,125.4 L516.5,142.4 L517.4,167.2 L518.2,190.5 L519.0,205.9 L519.9,215.3 L520.7,221.9 L521.6,223.6 L522.4,222.3 L523.3,206.9 L524.1,171.5 L524.9,139.4 L525.8,122.4 L526.6,118.7 L527.5,119.4 L528.3,122.7 L529.2,126.4 L530.0,130.4 L530.8,134.4 L531.7,135.8 L532.5,129.4 L533.4,114.0 L534.2,108.4 L535.1,111.0 L535.9,127.1 L536.7,137.1 L537.6,166.2 L538.4,183.9 L539.3,203.2 L540.1,213.6 L541.0,219.6 L541.8,221.6 L542.6,221.3 L543.5,205.9 L544.3,171.2 L545.2,139.1 L546.0,121.1 L546.9,116.1 L547.7,116.4 L548.5,119.1 L549.4,123.7 L550.2,127.1 L551.1,129.1 L551.9,128.7 L552.8,120.7 L553.6,102.7 L554.4,96.7 L555.3,102.7 L556.1,114.4 L557.0,133.1 L557.8,156.8 L558.7,187.5 L559.5,197.9 L560.3,205.9 L561.2,210.9 L562.0,212.6 L562.9,208.9 L563.7,193.2 L564.6,162.5 L565.4,126.1 L566.2,109.4 L567.1,108.7 L567.9,112.4 L568.8,116.4 L569.6,122.4 L570.4,126.7 L571.3,129.1 L572.1,129.1 L573.0,121.7 L573.8,105.4 L574.7,104.0 L575.5,107.7 L576.3,121.4 L577.2,142.8 L578.0,166.5 L578.9,171.8 L579.7,203.6 L580.6,214.6 L581.4,220.9 L582.2,222.9 L583.1,222.6 L583.9,207.2 L584.8,171.8 L585.6,139.8 L586.5,122.1 L587.3,118.1 L588.1,118.4 L589.0,121.4 L589.8,125.4 L590.7,129.1 L591.5,131.4 L592.4,131.1 L593.2,122.7 L594.0,105.0 L594.9,99.0 L595.7,104.0 L596.6,115.4 L597.4,133.8 L598.3,157.5 L599.1,181.2 L599.9,195.9 L600.8,204.9 L601.6,210.6 L602.5,213.6 L603.3,212.6 L604.2,207.2 L605.0,192.2 L605.8,171.2 L606.7,152.1 L607.5,141.1 L608.4,137.8 L609.2,139.1 L610.1,141.8 L610.9,147.8 L611.7,150.1 L612.6,149.1 L613.4,141.4 L614.3,123.7 L615.1,118.4 L616.0,121.4 L616.8,130.7 L617.6,145.1 L618.5,162.8 L619.3,188.9 L620.2,196.9 L621.0,204.9 L621.9,209.6 L622.7,212.9 L623.5,212.9 L624.4,208.9 L625.2,197.2 L626.1,178.2 L626.9,160.8 L627.8,147.1 L628.6,138.1 L629.4,142.1 L630.3,149.8 L631.1,153.8 L632.0,152.5 L632.8,150.1 L633.7,143.8 L634.5,127.1 L635.3,118.1 L636.2,130.1 L637.0,143.8 L637.9,151.8 L638.7,169.8 L639.6,186.5 L640.4,201.6 L641.2,211.2 L642.1,216.6 L642.9,218.9 L643.8,216.6 L644.6,200.9 L645.4,170.8 L646.3,136.4 L647.1,117.7 L648.0,115.0 L648.8,116.7 L649.7,120.4 L650.5,125.1 L651.3,129.1 L652.2,131.7 L653.0,132.1 L653.9,124.7 L654.7,108.0 L655.6,102.4 L656.4,106.4 L657.2,119.7 L658.1,140.8 L658.9,162.8 L659.8,186.2 L660.6,199.9 L661.5,207.6 L662.3,212.2 L663.1,214.9 L664.0,211.2 L664.8,195.9 L665.7,165.5 L666.5,131.1 L667.4,112.4 L668.2,111.0 L669.0,114.0 L669.9,117.4 L670.7,123.4 L671.6,127.7 L672.4,130.4 L673.3,130.7 L674.1,123.7 L674.9,107.4 L675.8,101.4 L676.6,106.0 L677.5,119.4 L678.3,140.1 L679.2,162.5 L680.0,167.5" stroke="#9467bd" stroke-width="2" fill="none" opacity="0.8"/>
<!-- Total Generation -->
<path d="M80.0,174.8 L80.8,175.8 L81.7,140.8 L82.5,149.8 L83.4,134.1 L84.2,120.4 L85.1,85.7 L85.9,102.7 L86.7,95.7 L87.6,67.6 L88.4,72.6 L89.3,80.6 L90.1,85.7 L91.0,110.0 L91.8,114.0 L92.6,122.1 L93.5,173.8 L94.3,192.9 L95.2,192.2 L96.0,207.2 L96.9,213.9 L97.7,194.5 L98.5,180.8 L99.4,184.2 L100.2,179.8 L101.1,179.8 L101.9,166.8 L102.8,146.8 L103.6,153.1 L104.4,138.4 L105.3,142.8 L106.1,152.5 L107.0,140.8 L107.8,135.8 L108.7,184.2 L109.5,191.5 L110.3,186.2 L111.2,182.2 L112.0,182.5 L112.9,177.8 L113.7,163.5 L114.6,162.1 L115.4,143.1 L116.2,134.4 L117.1,159.1 L117.9,167.8 L118.8,136.4 L119.6,122.7 L120.4,118.1 L121.3,127.7 L122.1,132.4 L123.0,111.4 L123.8,105.4 L124.7,87.0 L125.5,101.0 L126.3,169.5 L127.2,182.5 L128.0,170.5 L128.9,183.5 L129.7,187.9 L130.6,181.5 L131.4,171.8 L132.2,197.9 L133.1,196.5 L133.9,202.6 L134.8,209.6 L135.6,234.3 L136.5,231.6 L137.3,211.9 L138.1,212.6 L139.0,211.9 L139.8,211.6 L140.7,214.9 L141.5,219.6 L142.4,204.2 L143.2,218.9 L144.0,179.8 L144.9,175.5 L145.7,170.8 L146.6,176.2 L147.4,180.5 L148.3,184.9 L149.1,200.9 L149.9,212.6 L150.8,221.9 L151.6,229.6 L152.5,233.3 L153.3,232.0 L154.2,222.6 L155.0,217.9 L155.8,221.6 L156.7,211.9 L157.5,207.6 L158.4,168.2 L159.2,172.8 L160.1,179.5 L160.9,169.2 L161.7,165.8 L162.6,161.1 L163.4,155.5 L164.3,140.4 L165.1,124.7 L166.0,119.4 L166.8,119.7 L167.6,125.7 L168.5,125.1 L169.3,125.7 L170.2,135.1 L171.0,135.4 L171.9,138.1 L172.7,146.4 L173.5,153.8 L174.4,176.8 L175.2,154.5 L176.1,189.2 L176.9,183.9 L177.8,199.2 L178.6,206.2 L179.4,204.9 L180.3,205.2 L181.1,203.2 L182.0,201.2 L182.8,185.2 L183.7,193.9 L184.5,180.8 L185.3,178.2 L186.2,176.2 L187.0,180.5 L187.9,198.2 L188.7,197.5 L189.6,197.5 L190.4,201.2 L191.2,204.9 L192.1,204.6 L192.9,205.6 L193.8,211.2 L194.6,209.9 L195.4,212.6 L196.3,207.9 L197.1,206.2 L198.0,205.2 L198.8,211.9 L199.7,214.9 L200.5,216.3 L201.3,223.3 L202.2,225.9 L203.0,214.9 L203.9,202.6 L204.7,199.2 L205.6,197.9 L206.4,178.5 L207.2,159.8 L208.1,171.8 L208.9,168.8 L209.8,159.5 L210.6,150.8 L211.5,153.5 L212.3,142.4 L213.1,136.8 L214.0,131.4 L214.8,111.0 L215.7,117.7 L216.5,139.1 L217.4,140.8 L218.2,141.4 L219.0,101.0 L219.9,96.3 L220.7,100.0 L221.6,94.3 L222.4,98.7 L223.3,82.6 L224.1,78.6 L224.9,88.0 L225.8,81.0 L226.6,74.3 L227.5,94.0 L228.3,108.7 L229.2,88.7 L230.0,83.7 L230.8,91.0 L231.7,96.7 L232.5,87.3 L233.4,105.4 L234.2,125.4 L235.1,141.4 L235.9,123.4 L236.7,124.1 L237.6,139.4 L238.4,138.4 L239.3,129.4 L240.1,124.7 L241.0,104.0 L241.8,89.3 L242.6,141.8 L243.5,159.1 L244.3,178.8 L245.2,151.5 L246.0,127.4 L246.9,169.8 L247.7,152.1 L248.5,162.5 L249.4,126.4 L250.2,113.0 L251.1,155.1 L251.9,178.5 L252.8,154.5 L253.6,163.5 L254.4,162.1 L255.3,148.8 L256.1,171.2 L257.0,190.5 L257.8,194.5 L258.7,193.2 L259.5,213.2 L260.3,196.5 L261.2,188.2 L262.0,190.2 L262.9,183.9 L263.7,191.2 L264.6,191.2 L265.4,162.1 L266.2,143.1 L267.1,138.1 L267.9,130.4 L268.8,136.4 L269.6,127.1 L270.4,123.1 L271.3,123.1 L272.1,126.1 L273.0,124.4 L273.8,128.7 L274.7,142.4 L275.5,173.2 L276.3,164.1 L277.2,168.2 L278.0,174.2 L278.9,158.8 L279.7,158.8 L280.6,156.8 L281.4,122.4 L282.2,122.7 L283.1,139.1 L283.9,149.5 L284.8,153.5 L285.6,147.4 L286.5,160.1 L287.3,152.5 L288.1,144.4 L289.0,142.4 L289.8,110.4 L290.7,137.8 L291.5,117.4 L292.4,126.4 L293.2,137.8 L294.0,133.8 L294.9,145.4 L295.7,161.1 L296.6,166.8 L297.4,170.2 L298.3,154.5 L299.1,163.5 L299.9,189.9 L300.8,203.6 L301.6,198.9 L302.5,217.6 L303.3,214.2 L304.2,192.2 L305.0,178.5 L305.8,159.8 L306.7,153.1 L307.5,130.4 L308.4,137.8 L309.2,143.8 L310.1,163.1 L310.9,213.6 L311.7,212.6 L312.6,213.9 L313.4,269.4 L314.3,271.0 L315.1,269.7 L316.0,259.3 L316.8,238.0 L317.6,196.9 L318.5,181.9 L319.3,177.8 L320.2,197.9 L321.0,212.9 L321.9,211.9 L322.7,216.3 L323.5,216.9 L324.4,202.2 L325.2,208.2 L326.1,196.2 L326.9,191.2 L327.8,208.9 L328.6,229.6 L329.4,260.7 L330.3,238.0 L331.1,234.6 L332.0,213.2 L332.8,188.5 L333.7,157.1 L334.5,137.8 L335.3,132.1 L336.2,144.8 L337.0,132.1 L337.9,135.1 L338.7,138.1 L339.6,137.1 L340.4,135.8 L341.2,135.1 L342.1,134.8 L342.9,120.4 L343.8,148.4 L344.6,132.4 L345.4,125.7 L346.3,154.8 L347.1,162.8 L348.0,123.7 L348.8,124.1 L349.7,143.4 L350.5,108.7 L351.3,109.0 L352.2,160.1 L353.0,144.4 L353.9,144.8 L354.7,146.4 L355.6,158.8 L356.4,135.1 L357.2,146.1 L358.1,150.5 L358.9,146.1 L359.8,148.8 L360.6,145.8 L361.5,147.8 L362.3,112.7 L363.1,123.1 L364.0,159.5 L364.8,140.1 L365.7,153.1 L366.5,130.4 L367.4,151.8 L368.2,148.1 L369.0,159.5 L369.9,155.1 L370.7,98.0 L371.6,128.1 L372.4,129.7 L373.3,141.1 L374.1,139.1 L374.9,142.8 L375.8,157.5 L376.6,148.1 L377.5,174.5 L378.3,182.9 L379.2,189.9 L380.0,226.9 L380.8,222.9 L381.7,160.5 L382.5,152.5 L383.4,147.8 L384.2,144.1 L385.1,157.1 L385.9,173.5 L386.7,177.5 L387.6,165.8 L388.4,162.8 L389.3,171.2 L390.1,203.6 L391.0,174.5 L391.8,128.7 L392.6,99.4 L393.5,149.8 L394.3,161.5 L395.2,155.8 L396.0,191.5 L396.9,194.5 L397.7,226.6 L398.5,238.0 L399.4,226.6 L400.2,224.3 L401.1,221.9 L401.9,233.6 L402.8,198.9 L403.6,177.2 L404.4,206.6 L405.3,212.2 L406.1,213.9 L407.0,185.9 L407.8,160.1 L408.7,146.1 L409.5,175.2 L410.3,168.2 L411.2,161.1 L412.0,159.5 L412.9,144.1 L413.7,149.5 L414.6,146.4 L415.4,148.1 L416.2,153.1 L417.1,150.8 L417.9,150.8 L418.8,157.1 L419.6,157.1 L420.4,160.1 L421.3,171.2 L422.1,154.8 L423.0,117.1 L423.8,107.4 L424.7,137.4 L425.5,118.7 L426.3,108.7 L427.2,95.0 L428.0,104.0 L428.9,110.0 L429.7,125.1 L430.6,118.4 L431.4,92.3 L432.2,127.4 L433.1,156.8 L433.9,140.4 L434.8,143.1 L435.6,159.1 L436.5,152.5 L437.3,176.8 L438.1,215.3 L439.0,225.9 L439.8,237.3 L440.7,233.6 L441.5,220.3 L442.4,194.5 L443.2,183.9 L444.0,178.5 L444.9,215.6 L445.7,207.2 L446.6,206.2 L447.4,204.9 L448.3,203.6 L449.1,204.6 L449.9,198.9 L450.8,207.2 L451.6,165.5 L452.5,167.2 L453.3,174.5 L454.2,186.5 L455.0,182.2 L455.8,134.8 L456.7,138.4 L457.5,146.4 L458.4,137.1 L459.2,121.7 L460.1,125.7 L460.9,138.4 L461.7,150.1 L462.6,153.5 L463.4,202.2 L464.3,219.3 L465.1,214.6 L466.0,205.2 L466.8,206.2 L467.6,212.9 L468.5,218.6 L469.3,208.9 L470.2,204.6 L471.0,189.9 L471.9,156.1 L472.7,121.7 L473.5,145.1 L474.4,151.5 L475.2,99.0 L476.1,95.7 L476.9,105.7 L477.8,113.0 L478.6,108.0 L479.4,131.1 L480.3,149.5 L481.1,131.4 L482.0,106.7 L482.8,81.3 L483.7,81.0 L484.5,98.3 L485.3,118.4 L486.2,110.4 L487.0,115.0 L487.9,111.0 L488.7,98.3 L489.6,107.4 L490.4,125.4 L491.2,131.7 L492.1,124.1 L492.9,106.4 L493.8,154.5 L494.6,128.4 L495.4,102.7 L496.3,97.7 L497.1,96.3 L498.0,102.7 L498.8,90.7 L499.7,146.4 L500.5,171.8 L501.3,171.8 L502.2,155.1 L503.0,128.7 L503.9,98.3 L504.7,119.4 L505.6,119.7 L506.4,98.3 L507.2,98.7 L508.1,103.0 L508.9,119.1 L509.8,106.0 L510.6,96.0 L511.5,84.3 L512.3,102.4 L513.1,78.3 L514.0,89.0 L514.8,101.7 L515.7,134.4 L516.5,171.8 L517.4,160.5 L518.2,158.1 L519.0,155.1 L519.9,166.2 L520.7,166.2 L521.6,184.2 L522.4,176.8 L523.3,190.9 L524.1,196.9 L524.9,173.8 L525.8,146.8 L526.6,153.1 L527.5,155.8 L528.3,142.1 L529.2,137.8 L530.0,120.7 L530.8,128.4 L531.7,154.1 L532.5,193.5 L533.4,212.2 L534.2,179.8 L535.1,174.2 L535.9,148.1 L536.7,158.8 L537.6,172.5 L538.4,219.3 L539.3,238.6 L540.1,242.0 L541.0,222.3 L541.8,212.6 L542.6,184.9 L543.5,148.8 L544.3,149.1 L545.2,191.5 L546.0,200.6 L546.9,167.2 L547.7,189.9 L548.5,256.3 L549.4,265.4 L550.2,275.7 L551.1,253.0 L551.9,352.9 L552.8,351.5 L553.6,312.4 L554.4,309.1 L555.3,283.7 L556.1,281.1 L557.0,276.0 L557.8,280.7 L558.7,273.4 L559.5,269.0 L560.3,260.0 L561.2,254.3 L562.0,249.7 L562.9,249.3 L563.7,250.3 L564.6,249.0 L565.4,246.3 L566.2,267.4 L567.1,273.0 L567.9,281.4 L568.8,263.3 L569.6,254.0 L570.4,259.7 L571.3,251.3 L572.1,257.0 L573.0,249.3 L573.8,261.7 L574.7,246.3 L575.5,209.9 L576.3,208.9 L577.2,212.2 L578.0,201.2 L578.9,198.2 L579.7,195.5 L580.6,199.2 L581.4,178.8 L582.2,181.5 L583.1,216.6 L583.9,218.9 L584.8,229.6 L585.6,214.6 L586.5,200.2 L587.3,172.5 L588.1,146.4 L589.0,156.8 L589.8,153.5 L590.7,153.1 L591.5,165.5 L592.4,145.4 L593.2,165.5 L594.0,147.1 L594.9,156.5 L595.7,142.8 L596.6,136.8 L597.4,136.8 L598.3,174.8 L599.1,156.1 L599.9,164.5 L600.8,196.5 L601.6,201.2 L602.5,198.2 L603.3,194.9 L604.2,197.9 L605.0,190.2 L605.8,180.2 L606.7,174.8 L607.5,149.1 L608.4,141.8 L609.2,139.4 L610.1,150.5 L610.9,151.8 L611.7,164.1 L612.6,173.2 L613.4,156.8 L614.3,144.4 L615.1,166.8 L616.0,176.2 L616.8,168.2 L617.6,172.5 L618.5,199.2 L619.3,195.2 L620.2,205.2 L621.0,250.7 L621.9,260.3 L622.7,253.3 L623.5,243.0 L624.4,241.6 L625.2,246.0 L626.1,244.6 L626.9,252.0 L627.8,227.3 L628.6,232.3 L629.4,233.6 L630.3,234.3 L631.1,229.9 L632.0,231.6 L632.8,223.9 L633.7,196.5 L634.5,208.2 L635.3,218.3 L636.2,209.6 L637.0,224.6 L637.9,220.9 L638.7,215.3 L639.6,220.3 L640.4,225.3 L641.2,244.0 L642.1,257.3 L642.9,239.3 L643.8,211.6 L644.6,204.6 L645.4,203.6 L646.3,193.2 L647.1,202.2 L648.0,180.2 L648.8,131.4 L649.7,130.1 L650.5,118.1 L651.3,145.4 L652.2,153.8 L653.0,173.2 L653.9,169.2 L654.7,175.5 L655.6,190.5 L656.4,186.5 L657.2,199.2 L658.1,205.2 L658.9,235.3 L659.8,236.3 L660.6,237.0 L661.5,238.0 L662.3,228.9 L663.1,244.3 L664.0,227.6 L664.8,210.9 L665.7,204.6 L666.5,210.9 L667.4,217.9 L668.2,212.2 L669.0,201.9 L669.9,229.9 L670.7,227.6 L671.6,208.6 L672.4,184.2 L673.3,211.6 L674.1,220.6 L674.9,236.3 L675.8,230.6 L676.6,242.3 L677.5,235.3 L678.3,270.4 L679.2,266.7 L680.0,253.0" stroke="#8c564b" stroke-width="2" fill="none" opacity="0.8"/>
<!-- Forecast Difference -->
<path d="M80.0,420.0 L80.8,420.0 L81.7,420.0 L82.5,420.0 L83.4,420.0 L84.2,420.0 L85.1,420.0 L85.9,420.0 L86.7,420.0 L87.6,420.0 L88.4,420.0 L89.3,420.0 L90.1,420.0 L91.0,420.0 L91.8,420.0 L92.6,420.0 L93.5,420.0 L94.3,420.0 L95.2,420.0 L96.0,420.0 L96.9,420.0 L97.7,420.0 L98.5,420.0 L99.4,420.0 L100.2,420.0 L101.1,420.0 L101.9,420.0 L102.8,420.0 L103.6,420.0 L104.4,420.0 L105.3,420.0 L106.1,420.0 L107.0,420.0 L107.8,420.0 L108.7,420.0 L109.5,420.0 L110.3,420.0 L111.2,420.0 L112.0,420.0 L112.9,420.0 L113.7,420.0 L114.6,420.0 L115.4,420.0 L116.2,420.0 L117.1,420.0 L117.9,420.0 L118.8,420.0 L119.6,420.0 L120.4,420.0 L121.3,420.0 L122.1,420.0 L123.0,420.0 L123.8,420.0 L124.7,420.0 L125.5,420.0 L126.3,420.0 L127.2,420.0 L128.0,420.0 L128.9,420.0 L129.7,420.0 L130.6,420.0 L131.4,420.0 L132.2,420.0 L133.1,420.0 L133.9,420.0 L134.8,420.0 L135.6,420.0 L136.5,420.0 L137.3,420.0 L138.1,420.0 L139.0,420.0 L139.8,420.0 L140.7,420.0 L141.5,420.0 L142.4,420.0 L143.2,420.0 L144.0,420.0 L144.9,420.0 L145.7,420.0 L146.6,420.0 L147.4,420.0 L148.3,420.0 L149.1,420.0 L149.9,420.0 L150.8,420.0 L151.6,420.0 L152.5,420.0 L153.3,420.0 L154.2,420.0 L155.0,420.0 L155.8,420.0 L156.7,420.0 L157.5,420.0 L158.4,420.0 L159.2,420.0 L160.1,420.0 L160.9,420.0 L161.7,420.0 L162.6,420.0 L163.4,420.0 L164.3,420.0 L165.1,420.0 L166.0,420.0 L166.8,420.0 L167.6,420.0 L168.5,420.0 L169.3,420.0 L170.2,420.0 L171.0,420.0 L171.9,420.0 L172.7,420.0 L173.5,420.0 L174.4,420.0 L175.2,420.0 L176.1,420.0 L176.9,420.0 L177.8,420.0 L178.6,420.0 L179.4,420.0 L180.3,420.0 L181.1,420.0 L182.0,420.0 L182.8,420.0 L183.7,420.0 L184.5,420.0 L185.3,420.0 L186.2,420.0 L187.0,420.0 L187.9,420.0 L188.7,420.0 L189.6,420.0 L190.4,420.0 L191.2,420.0 L192.1,420.0 L192.9,420.0 L193.8,420.0 L194.6,420.0 L195.4,420.0 L196.3,420.0 L197.1,420.0 L198.0,420.0 L198.8,420.0 L199.7,420.0 L200.5,420.0 L201.3,420.0 L202.2,420.0 L203.0,420.0 L203.9,420.0 L204.7,420.0 L205.6,420.0 L206.4,420.0 L207.2,420.0 L208.1,420.0 L208.9,420.0 L209.8,420.0 L210.6,420.0 L211.5,420.0 L212.3,420.0 L213.1,420.0 L214.0,420.0 L214.8,420.0 L215.7,420.0 L216.5,420.0 L217.4,420.0 L218.2,420.0 L219.0,420.0 L219.9,420.0 L220.7,420.0 L221.6,420.0 L222.4,420.0 L223.3,420.0 L224.1,420.0 L224.9,420.0 L225.8,420.0 L226.6,420.0 L227.5,420.0 L228.3,420.0 L229.2,420.0 L230.0,420.0 L230.8,420.0 L231.7,420.0 L232.5,420.0 L233.4,420.0 L234.2,420.0 L235.1,420.0 L235.9,420.0 L236.7,420.0 L237.6,420.0 L238.4,420.0 L239.3,420.0 L240.1,420.0 L241.0,420.0 L241.8,420.0 L242.6,420.0 L243.5,420.0 L244.3,420.0 L245.2,420.0 L246.0,420.0 L246.9,420.0 L247.7,420.0 L248.5,420.0 L249.4,420.0 L250.2,420.0 L251.1,420.0 L251.9,420.0 L252.8,420.0 L253.6,420.0 L254.4,420.0 L255.3,420.0 L256.1,420.0 L257.0,420.0 L257.8,420.0 L258.7,420.0 L259.5,420.0 L260.3,420.0 L261.2,420.0 L262.0,420.0 L262.9,420.0 L263.7,420.0 L264.6,420.0 L265.4,420.0 L266.2,420.0 L267.1,420.0 L267.9,420.0 L268.8,420.0 L269.6,420.0 L270.4,420.0 L271.3,420.0 L272.1,420.0 L273.0,420.0 L273.8,420.0 L274.7,420.0 L275.5,420.0 L276.3,420.0 L277.2,420.0 L278.0,420.0 L278.9,420.0 L279.7,420.0 L280.6,420.0 L281.4,420.0 L282.2,420.0 L283.1,420.0 L283.9,420.0 L284.8,420.0 L285.6,420.0 L286.5,420.0 L287.3,420.0 L288.1,420.0 L289.0,420.0 L289.8,420.0 L290.7,420.0 L291.5,420.0 L292.4,420.0 L293.2,420.0 L294.0,420.0 L294.9,420.0 L295.7,420.0 L296.6,420.0 L297.4,420.0 L298.3,420.0 L299.1,420.0 L299.9,420.0 L300.8,420.0 L301.6,420.0 L302.5,420.0 L303.3,420.0 L304.2,420.0 L305.0,420.0 L305.8,420.0 L306.7,420.0 L307.5,420.0 L308.4,420.0 L309.2,420.0 L310.1,420.0 L310.9,420.0 L311.7,420.0 L312.6,420.0 L313.4,420.0 L314.3,420.0 L315.1,420.0 L316.0,420.0 L316.8,420.0 L317.6,420.0 L318.5,420.0 L319.3,420.0 L320.2,420.0 L321.0,420.0 L321.9,420.0 L322.7,420.0 L323.5,420.0 L324.4,420.0 L325.2,420.0 L326.1,420.0 L326.9,420.0 L327.8,420.0 L328.6,420.0 L329.4,420.0 L330.3,420.0 L331.1,420.0 L332.0,420.0 L332.8,420.0 L333.7,420.0 L334.5,420.0 L335.3,420.0 L336.2,420.0 L337.0,420.0 L337.9,420.0 L338.7,420.0 L339.6,420.0 L340.4,420.0 L341.2,420.0 L342.1,420.0 L342.9,420.0 L343.8,420.0 L344.6,420.0 L345.4,420.0 L346.3,420.0 L347.1,420.0 L348.0,420.0 L348.8,420.0 L349.7,420.0 L350.5,420.0 L351.3,420.0 L352.2,420.0 L353.0,420.0 L353.9,420.0 L354.7,420.0 L355.6,420.0 L356.4,420.0 L357.2,420.0 L358.1,420.0 L358.9,420.0 L359.8,420.0 L360.6,420.0 L361.5,420.0 L362.3,420.0 L363.1,420.0 L364.0,420.0 L364.8,420.0 L365.7,420.0 L366.5,420.0 L367.4,420.0 L368.2,420.0 L369.0,420.0 L369.9,420.0 L370.7,420.0 L371.6,420.0 L372.4,420.0 L373.3,420.0 L374.1,420.0 L374.9,420.0 L375.8,420.0 L376.6,420.0 L377.5,420.0 L378.3,420.0 L379.2,420.0 L380.0,420.0 L380.8,420.0 L381.7,420.0 L382.5,420.0 L383.4,420.0 L384.2,420.0 L385.1,420.0 L385.9,420.0 L386.7,420.0 L387.6,420.0 L388.4,420.0 L389.3,420.0 L390.1,420.0 L391.0,420.0 L391.8,420.0 L392.6,420.0 L393.5,420.0 L394.3,420.0 L395.2,420.0 L396.0,420.0 L396.9,420.0 L397.7,420.0 L398.5,420.0 L399.4,420.0 L400.2,420.0 L401.1,420.0 L401.9,420.0 L402.8,420.0 L403.6,420.0 L404.4,420.0 L405.3,420.0 L406.1,420.0 L407.0,420.0 L407.8,420.0 L408.7,420.0 L409.5,420.0 L410.3,420.0 L411.2,420.0 L412.0,420.0 L412.9,420.0 L413.7,420.0 L414.6,420.0 L415.4,420.0 L416.2,420.0 L417.1,420.0 L417.9,420.0 L418.8,420.0 L419.6,420.0 L420.4,420.0 L421.3,420.0 L422.1,420.0 L423.0,420.0 L423.8,420.0 L424.7,420.0 L425.5,420.0 L426.3,420.0 L427.2,420.0 L428.0,420.0 L428.9,420.0 L429.7,420.0 L430.6,420.0 L431.4,420.0 L432.2,420.0 L433.1,420.0 L433.9,420.0 L434.8,420.0 L435.6,420.0 L436.5,420.0 L437.3,420.0 L438.1,420.0 L439.0,420.0 L439.8,420.0 L440.7,420.0 L441.5,420.0 L442.4,420.0 L443.2,420.0 L444.0,420.0 L444.9,420.0 L445.7,420.0 L446.6,420.0 L447.4,420.0 L448.3,420.0 L449.1,420.0 L449.9,420.0 L450.8,420.0 L451.6,420.0 L452.5,420.0 L453.3,420.0 L454.2,420.0 L455.0,420.0 L455.8,420.0 L456.7,420.0 L457.5,420.0 L458.4,420.0 L459.2,420.0 L460.1,420.0 L460.9,420.0 L461.7,420.0 L462.6,420.0 L463.4,420.0 L464.3,420.0 L465.1,420.0 L466.0,420.0 L466.8,420.0 L467.6,420.0 L468.5,420.0 L469.3,420.0 L470.2,420.0 L471.0,420.0 L471.9,420.0 L472.7,420.0 L473.5,420.0 L474.4,420.0 L475.2,420.0 L476.1,420.0 L476.9,420.0 L477.8,420.0 L478.6,420.0 L479.4,420.0 L480.3,420.0 L481.1,420.0 L482.0,420.0 L482.8,420.0 L483.7,420.0 L484.5,420.0 L485.3,420.0 L486.2,420.0 L487.0,420.0 L487.9,420.0 L488.7,420.0 L489.6,420.0 L490.4,420.0 L491.2,420.0 L492.1,420.0 L492.9,420.0 L493.8,420.0 L494.6,420.0 L495.4,420.0 L496.3,420.0 L497.1,420.0 L498.0,420.0 L498.8,420.0 L499.7,420.0 L500.5,420.0 L501.3,420.0 L502.2,420.0 L503.0,420.0 L503.9,420.0 L504.7,420.0 L505.6,420.0 L506.4,420.0 L507.2,420.0 L508.1,420.0 L508.9,420.0 L509.8,420.0 L510.6,420.0 L511.5,420.0 L512.3,420.0 L513.1,420.0 L514.0,420.0 L514.8,420.0 L515.7,420.0 L516.5,420.0 L517.4,420.0 L518.2,420.0 L519.0,420.0 L519.9,420.0 L520.7,420.0 L521.6,420.0 L522.4,420.0 L523.3,420.0 L524.1,420.0 L524.9,420.0 L525.8,420.0 L526.6,420.0 L527.5,420.0 L528.3,420.0 L529.2,420.0 L530.0,420.0 L530.8,420.0 L531.7,420.0 L532.5,420.0 L533.4,420.0 L534.2,420.0 L535.1,420.0 L535.9,420.0 L536.7,420.0 L537.6,420.0 L538.4,420.0 L539.3,420.0 L540.1,420.0 L541.0,420.0 L541.8,420.0 L542.6,420.0 L543.5,420.0 L544.3,420.0 L545.2,420.0 L546.0,420.0 L546.9,420.0 L547.7,420.0 L548.5,420.0 L549.4,420.0 L550.2,420.0 L551.1,420.0 L551.9,420.0 L552.8,420.0 L553.6,420.0 L554.4,420.0 L555.3,420.0 L556.1,420.0 L557.0,420.0 L557.8,420.0 L558.7,420.0 L559.5,420.0 L560.3,420.0 L561.2,420.0 L562.0,420.0 L562.9,420.0 L563.7,420.0 L564.6,420.0 L565.4,420.0 L566.2,420.0 L567.1,420.0 L567.9,420.0 L568.8,420.0 L569.6,420.0 L570.4,420.0 L571.3,420.0 L572.1,420.0 L573.0,420.0 L573.8,420.0 L574.7,420.0 L575.5,420.0 L576.3,420.0 L577.2,420.0 L578.0,420.0 L578.9,420.0 L579.7,420.0 L580.6,420.0 L581.4,420.0 L582.2,420.0 L583.1,420.0 L583.9,420.0 L584.8,420.0 L585.6,420.0 L586.5,420.0 L587.3,420.0 L588.1,420.0 L589.0,420.0 L589.8,420.0 L590.7,420.0 L591.5,420.0 L592.4,420.0 L593.2,420.0 L594.0,420.0 L594.9,420.0 L595.7,420.0 L596.6,420.0 L597.4,420.0 L598.3,420.0 L599.1,420.0 L599.9,420.0 L600.8,420.0 L601.6,420.0 L602.5,420.0 L603.3,420.0 L604.2,420.0 L605.0,420.0 L605.8,420.0 L606.7,420.0 L607.5,420.0 L608.4,420.0 L609.2,420.0 L610.1,420.0 L610.9,420.0 L611.7,420.0 L612.6,420.0 L613.4,420.0 L614.3,420.0 L615.1,420.0 L616.0,420.0 L616.8,420.0 L617.6,420.0 L618.5,420.0 L619.3,420.0 L620.2,420.0 L621.0,420.0 L621.9,420.0 L622.7,420.0 L623.5,420.0 L624.4,420.0 L625.2,420.0 L626.1,420.0 L626.9,420.0 L627.8,420.0 L628.6,420.0 L629.4,420.0 L630.3,420.0 L631.1,420.0 L632.0,420.0 L632.8,420.0 L633.7,420.0 L634.5,420.0 L635.3,420.0 L636.2,420.0 L637.0,420.0 L637.9,420.0 L638.7,420.0 L639.6,420.0 L640.4,420.0 L641.2,420.0 L642.1,420.0 L642.9,420.0 L643.8,420.0 L644.6,420.0 L645.4,420.0 L646.3,420.0 L647.1,420.0 L648.0,420.0 L648.8,420.0 L649.7,420.0 L650.5,420.0 L651.3,420.0 L652.2,420.0 L653.0,420.0 L653.9,420.0 L654.7,420.0 L655.6,420.0 L656.4,420.0 L657.2,420.0 L658.1,420.0 L658.9,420.0 L659.8,420.0 L660.6,420.0 L661.5,420.0 L662.3,420.0 L663.1,420.0 L664.0,420.0 L664.8,420.0 L665.7,420.0 L666.5,420.0 L667.4,420.0 L668.2,420.0 L669.0,420.0 L669.9,420.0 L670.7,420.0 L671.6,420.0 L672.4,420.0 L673.3,420.0 L674.1,420.0 L674.9,420.0 L675.8,420.0 L676.6,420.0 L677.5,420.0 L678.3,420.0 L679.2,420.0 L680.0,420.0" stroke="#e377c2" stroke-width="2" fill="none" opacity="0.8"/>

<!-- Legend -->
<line x1="690" y1="70" x2="705" y2="70" stroke="#1f77b4" stroke-width="3"/>
<text x="710" y="74" class="legend">Wind Generation</text>
<line x1="690" y1="88" x2="705" y2="88" stroke="#ff7f0e" stroke-width="3"/>
<text x="710" y="92" class="legend">Hydro Generation</text>
<line x1="690" y1="106" x2="705" y2="106" stroke="#2ca02c" stroke-width="3"/>
<text x="710" y="110" class="legend">Thermal Generation</text>
<line x1="690" y1="124" x2="705" y2="124" stroke="#d62728" stroke-width="3"/>
<text x="710" y="128" class="legend">Solar Generation</text>
<line x1="690" y1="142" x2="705" y2="142" stroke="#9467bd" stroke-width="3"/>
<text x="710" y="146" class="legend">Forecast</text>
<line x1="690" y1="160" x2="705" y2="160" stroke="#8c564b" stroke-width="3"/>
<text x="710" y="164" class="legend">Total Generation</text>
<line x1="690" y1="178" x2="705" y2="178" stroke="#e377c2" stroke-width="3"/>
<text x="710" y="182" class="legend">Forecast Difference</text>

<!-- Date range -->
<text x="80" y="495" class="legend">Range: 11/24 - 12/23/2025 (713 records)</text>
</svg>