<?xml version="1.0" encoding="UTF-8"?>
<svg width="800" height="500" xmlns="http://www.w3.org/2000/svg">
<style>
.axis-line { stroke: #333; stroke-width: 1; }
.grid-line { stroke: #ddd; stroke-width: 0.5; }
.title { font: 16px Arial; text-anchor: middle; fill: #333; }
.axis-label { font: 12px Arial; text-anchor: middle; fill: #666; }
.legend { font: 10px Arial; fill: #333; }
</style>

<!-- Title -->
<text x="400.0" y="25" class="title">Northwestern Energy Generation Data - Past 30 Days</text>

<!-- Plot area background -->
<rect x="80" y="50" width="600" height="370" fill="white" stroke="#ddd"/>

<!-- Y-axis -->
<line x1="80" y1="50" x2="80" y2="420" class="axis-line"/>
<text x="30" y="235.0" class="axis-label" transform="rotate(-90, 30, 235.0)">Generation (MW)</text>

<!-- X-axis -->
<line x1="80" y1="420" x2="680" y2="420" class="axis-line"/>
<text x="380.0" y="480" class="axis-label">Time</text>
<line x1="80" y1="420.0" x2="680" y2="420.0" class="grid-line"/>
<text x="70" y="425.0" class="legend" text-anchor="end">0</text>
<line x1="80" y1="327.5" x2="680" y2="327.5" class="grid-line"/>
<text x="70" y="332.5" class="legend" text-anchor="end">303</text>
<line x1="80" y1="235.0" x2="680" y2="235.0" class="grid-line"/>
<text x="70" y="240.0" class="legend" text-anchor="end">606</text>
<line x1="80" y1="142.5" x2="680" y2="142.5" class="grid-line"/>
<text x="70" y="147.5" class="legend" text-anchor="end">910</text>
<line x1="80" y1="50.0" x2="680" y2="50.0" class="grid-line"/>
<text x="70" y="55.0" class="legend" text-anchor="end">1213</text>
<!-- Wind Generation -->
<path d="M80.0,411.8 L80.9,410.5 L81.9,416.3 L82.8,398.9 L83.8,403.8 L84.7,397.7 L100.1,416.3 L101.0,413.0 L102.0,409.9 L102.9,405.1 L103.9,401.1 L104.8,369.0 L105.7,373.6 L106.7,372.1 L107.6,381.9 L108.5,403.2 L109.5,406.0 L110.4,407.5 L111.4,417.6 L112.3,409.9 L113.2,403.2 L114.2,398.9 L115.1,400.5 L116.1,413.9 L117.0,419.4 L117.9,420.0 L118.9,418.2 L119.8,416.3 L120.8,417.6 L121.7,415.1 L122.6,407.8 L123.6,412.4 L124.5,377.3 L125.4,394.7 L126.4,410.5 L127.3,378.2 L128.3,406.6 L129.2,385.2 L130.1,389.8 L131.1,386.4 L132.0,399.9 L133.0,412.1 L133.9,393.8 L134.8,383.4 L135.8,381.9 L136.7,387.1 L137.6,408.4 L138.6,415.4 L139.5,416.6 L140.5,412.4 L141.4,409.9 L142.3,411.8 L143.3,413.3 L144.2,414.8 L145.2,411.5 L146.1,407.5 L147.0,398.0 L148.0,390.7 L148.9,382.5 L149.8,370.0 L150.8,373.3 L151.7,378.2 L152.7,378.5 L153.6,384.9 L154.5,393.2 L155.5,393.2 L156.4,373.9 L157.4,390.4 L158.3,402.3 L159.2,403.2 L160.2,399.6 L161.1,400.8 L162.0,404.4 L163.0,401.4 L163.9,406.0 L164.9,410.2 L165.8,408.4 L166.7,407.8 L167.7,408.1 L168.6,402.9 L169.6,394.4 L170.5,391.3 L171.4,381.9 L172.4,373.3 L173.3,379.4 L174.3,373.6 L175.2,374.2 L176.1,372.7 L177.1,391.0 L178.0,408.4 L178.9,414.2 L179.9,417.9 L180.8,420.0 L181.8,420.0 L182.7,420.0 L183.6,420.0 L184.6,419.7 L185.5,416.3 L186.5,415.1 L187.4,415.4 L188.3,415.1 L189.3,415.4 L190.2,414.8 L191.1,409.9 L192.1,401.1 L193.0,387.1 L194.0,378.5 L194.9,351.7 L195.8,345.9 L196.8,352.3 L197.7,342.5 L198.7,351.0 L199.6,381.6 L200.5,384.9 L201.5,394.7 L202.4,410.2 L203.3,416.0 L204.3,417.9 L205.2,420.0 L206.2,420.0 L207.1,420.0 L208.0,415.7 L209.0,409.9 L209.9,412.4 L210.9,413.0 L211.8,414.5 L212.7,416.9 L213.7,414.5 L214.6,413.0 L215.5,401.7 L216.5,387.1 L217.4,375.8 L218.4,355.6 L219.3,362.9 L220.2,386.1 L221.2,408.1 L222.1,416.3 L223.1,418.8 L224.0,420.0 L224.9,420.0 L225.9,419.7 L226.8,419.7 L227.8,420.0 L228.7,420.0 L229.6,420.0 L230.6,416.0 L231.5,412.7 L232.4,415.1 L233.4,417.9 L234.3,416.0 L235.3,416.0 L236.2,412.1 L237.1,405.1 L238.1,390.7 L239.0,372.1 L240.0,354.4 L240.9,349.5 L241.8,353.8 L242.8,373.0 L243.6,390.7 L244.5,405.1 L245.4,411.8 L246.4,418.2 L247.3,419.7 L248.2,420.0 L249.2,419.7 L250.1,418.8 L251.1,419.1 L252.0,415.7 L252.9,407.8 L253.9,399.9 L254.8,400.8 L255.8,398.9 L256.7,404.7 L257.6,406.9 L258.6,403.5 L259.5,392.2 L260.4,373.9 L261.4,368.4 L262.3,327.3 L263.3,324.2 L264.2,320.2 L265.1,335.5 L266.1,351.0 L267.0,364.8 L268.0,380.6 L268.9,393.2 L269.8,398.0 L270.8,404.1 L271.7,402.9 L272.6,401.1 L273.6,406.9 L274.5,405.1 L275.5,399.3 L276.4,388.0 L277.3,374.2 L278.3,379.1 L279.2,393.5 L280.2,394.1 L281.1,381.6 L282.0,388.0 L283.0,393.8 L283.9,394.1 L284.8,401.7 L285.8,402.3 L286.7,406.6 L287.7,405.4 L288.6,414.2 L289.5,408.7 L290.5,414.5 L291.4,404.4 L292.4,404.1 L293.3,402.0 L294.2,398.0 L295.2,402.3 L296.1,407.5 L297.1,415.7 L298.0,417.3 L298.9,416.9 L299.9,418.5 L300.8,420.0 L301.7,417.6 L302.7,397.7 L303.6,392.5 L304.6,373.6 L305.5,374.8 L306.4,390.1 L307.4,410.2 L308.3,410.5 L309.3,411.5 L310.2,412.1 L311.1,405.4 L312.1,397.4 L313.0,391.6 L313.9,396.5 L314.9,403.2 L315.8,404.1 L316.8,406.6 L317.7,408.7 L318.6,413.6 L319.6,410.8 L320.5,411.5 L321.5,403.8 L322.4,398.9 L323.3,399.6 L324.3,395.0 L325.2,352.3 L326.1,369.4 L327.1,382.2 L328.0,373.6 L329.0,388.6 L329.9,395.3 L330.8,409.6 L331.8,409.9 L332.7,412.1 L333.7,408.7 L334.6,411.2 L335.5,409.3 L336.5,393.5 L337.4,394.4 L338.3,393.8 L339.3,394.7 L340.2,398.9 L341.2,409.9 L342.1,410.5 L343.0,402.9 L344.0,396.5 L344.9,398.9 L345.9,388.9 L346.8,395.0 L347.7,399.3 L348.7,405.1 L349.6,402.3 L350.6,410.8 L351.5,409.6 L352.4,403.5 L353.4,404.7 L354.3,415.4 L355.2,417.3 L356.2,414.5 L357.1,412.1 L358.1,411.8 L359.0,406.3 L359.9,404.4 L360.9,398.9 L361.8,403.5 L362.8,403.8 L363.7,409.9 L364.6,413.3 L365.6,414.2 L366.5,412.4 L367.4,405.7 L368.4,400.8 L369.3,403.2 L370.3,407.5 L371.2,407.5 L372.1,407.8 L373.1,413.9 L374.0,413.6 L375.0,413.3 L375.9,410.5 L376.8,415.7 L377.8,418.2 L378.7,419.4 L379.6,420.0 L380.6,419.7 L381.5,420.0 L382.5,420.0 L383.4,419.4 L384.3,418.5 L385.3,417.9 L386.2,418.5 L387.2,420.0 L388.1,419.1 L389.0,415.4 L390.0,413.9 L390.9,410.8 L391.8,414.2 L392.8,404.4 L393.7,392.8 L394.7,398.6 L395.6,395.6 L396.5,366.0 L397.5,367.2 L398.4,362.9 L399.4,368.1 L400.3,388.9 L401.2,398.3 L402.2,405.4 L403.1,409.6 L404.1,412.7 L405.0,418.2 L405.9,412.4 L406.9,415.4 L407.8,406.6 L408.7,412.1 L409.7,415.7 L410.6,413.0 L411.6,409.0 L412.5,407.8 L413.4,403.8 L414.4,403.8 L415.3,391.9 L416.3,396.2 L417.2,390.7 L418.1,388.0 L419.1,384.6 L420.0,379.7 L420.9,386.7 L421.9,385.5 L422.8,392.2 L423.8,403.8 L424.7,406.9 L425.6,416.0 L426.6,417.6 L427.5,419.4 L428.5,420.0 L429.4,420.0 L430.3,420.0 L431.3,420.0 L432.2,419.1 L433.1,419.4 L434.1,418.5 L435.0,414.5 L436.0,402.6 L436.9,392.5 L437.8,373.3 L438.8,369.0 L439.7,382.2 L440.7,374.8 L441.6,373.9 L442.5,399.6 L443.5,417.9 L444.4,418.5 L445.4,407.5 L446.3,406.3 L447.2,402.0 L448.2,383.7 L449.1,378.2 L450.0,363.3 L451.0,334.3 L451.9,328.2 L452.9,321.2 L453.8,319.9 L454.7,316.6 L455.7,323.6 L456.6,326.9 L457.6,329.4 L458.5,332.1 L459.4,323.9 L460.4,330.6 L461.3,326.3 L462.2,331.2 L463.2,348.9 L464.1,372.1 L465.1,382.8 L466.0,391.9 L466.9,401.1 L467.9,409.3 L468.8,408.4 L469.8,407.8 L470.7,405.7 L471.6,404.7 L472.6,406.3 L473.5,412.7 L474.4,414.5 L475.4,418.2 L476.3,420.0 L477.3,420.0 L478.2,420.0 L479.1,418.5 L480.1,417.6 L481.0,413.9 L482.0,416.9 L482.9,418.2 L483.8,419.1 L484.8,416.3 L485.7,412.1 L486.6,399.9 L487.6,380.0 L488.5,375.5 L489.5,380.3 L490.4,395.3 L491.3,404.1 L492.3,417.9 L493.2,420.0 L494.2,420.0 L495.1,420.0 L496.0,420.0 L497.0,419.4 L497.9,419.7 L498.9,419.4 L499.8,418.8 L500.7,419.1 L501.7,418.5 L502.6,417.6 L503.5,414.8 L504.5,414.5 L505.4,411.5 L506.4,408.7 L507.3,402.3 L508.2,385.8 L509.2,367.8 L510.1,368.1 L511.1,380.0 L512.0,400.2 L512.9,415.7 L513.9,420.0 L514.8,420.0 L515.7,419.1 L516.7,417.9 L517.6,412.4 L518.6,402.3 L519.5,383.7 L520.4,376.1 L521.4,360.8 L522.3,357.2 L523.3,332.1 L524.2,348.0 L525.1,339.8 L526.1,352.6 L527.0,360.8 L527.9,353.8 L528.9,360.8 L529.8,396.5 L530.8,411.5 L531.7,412.7 L532.6,404.7 L533.6,404.7 L534.5,375.8 L535.5,332.7 L536.4,362.9 L537.3,324.2 L538.3,332.7 L539.2,361.1 L540.1,349.2 L541.1,330.9 L542.0,334.6 L543.0,363.9 L543.9,373.0 L544.8,386.4 L545.8,390.1 L546.7,394.1 L547.7,380.6 L548.6,385.8 L549.5,376.1 L550.5,362.6 L551.4,371.8 L552.4,387.4 L553.3,403.5 L554.2,407.8 L555.2,405.7 L556.1,410.2 L557.0,416.9 L558.0,416.3 L558.9,419.1 L559.9,419.7 L560.8,419.7 L561.7,420.0 L562.7,420.0 L563.6,419.7 L564.6,419.1 L565.5,419.1 L566.4,420.0 L567.4,420.0 L568.3,418.8 L569.2,411.8 L570.2,403.8 L571.1,399.9 L572.1,401.1 L573.0,391.3 L573.9,389.5 L574.9,382.2 L575.8,381.9 L576.8,357.8 L577.7,383.1 L578.6,360.2 L579.6,374.5 L580.5,404.1 L581.4,410.5 L582.4,410.8 L583.3,414.8 L584.3,405.7 L585.2,402.9 L586.1,410.2 L587.1,411.8 L588.0,415.4 L589.0,417.9 L589.9,419.7 L590.8,419.4 L591.8,420.0 L592.7,420.0 L593.6,419.4 L594.6,419.7 L595.5,418.5 L596.5,416.6 L597.4,419.1 L598.3,404.7 L599.3,403.2 L600.2,401.4 L601.2,408.1 L602.1,406.6 L603.0,402.3 L604.0,400.8 L604.9,413.3 L605.9,416.9 L606.8,409.0 L607.7,410.8 L608.7,416.3 L609.6,414.2 L610.5,372.7 L611.5,394.7 L612.4,407.2 L613.4,388.6 L614.3,412.7 L615.2,415.7 L616.2,417.3 L617.1,417.3 L618.1,413.3 L619.0,408.1 L619.9,405.4 L620.9,409.3 L621.8,414.8 L622.7,417.9 L623.7,414.5 L624.6,415.7 L625.6,413.9 L626.5,418.2 L627.4,418.2 L628.4,419.7 L629.3,420.0 L630.3,419.4 L631.2,419.1 L632.1,412.1 L633.1,409.3 L634.0,418.8 L634.9,419.4 L635.9,419.4 L636.8,420.0 L637.8,418.8 L638.7,417.9 L639.6,403.8 L640.6,395.0 L641.5,355.6 L642.5,390.7 L643.4,395.6 L644.3,400.2 L645.3,410.8 L646.2,409.3 L647.1,405.4 L648.1,400.8 L649.0,406.9 L650.0,416.0 L650.9,418.8 L651.8,418.5 L652.8,418.8 L653.7,415.1 L654.7,410.2 L655.6,405.1 L656.5,414.8 L657.5,414.8 L658.4,413.6 L659.4,413.9 L660.3,416.3 L661.2,417.3 L662.2,418.8 L663.1,419.1 L664.0,417.6 L665.0,414.8 L665.9,415.4 L666.9,412.1 L667.8,416.6 L668.7,415.4 L669.7,417.9 L670.6,414.2 L671.6,413.9 L672.5,413.6 L673.4,413.3 L674.4,409.6 L675.3,402.0 L676.2,404.1 L677.2,406.6 L678.1,402.0 L679.1,405.7 L680.0,401.7" stroke="#1f77b4" stroke-width="2" fill="none" opacity="0.8"/>
<!-- Hydro Generation -->
<path d="M80.0,352.6 L80.9,353.5 L81.9,353.2 L82.8,353.8 L83.8,353.8 L84.7,353.5 L100.1,352.9 L101.0,353.5 L102.0,353.2 L102.9,353.2 L103.9,353.5 L104.8,353.5 L105.7,352.6 L106.7,353.2 L107.6,352.6 L108.5,352.6 L109.5,352.6 L110.4,352.3 L111.4,352.9 L112.3,352.6 L113.2,352.6 L114.2,352.9 L115.1,352.3 L116.1,352.6 L117.0,352.6 L117.9,352.3 L118.9,352.6 L119.8,352.9 L120.8,353.5 L121.7,353.5 L122.6,352.9 L123.6,353.5 L124.5,353.2 L125.4,353.2 L126.4,353.2 L127.3,353.2 L128.3,353.2 L129.2,353.2 L130.1,353.5 L131.1,353.5 L132.0,353.2 L133.0,353.2 L133.9,353.2 L134.8,352.9 L135.8,353.5 L136.7,353.2 L137.6,353.2 L138.6,352.6 L139.5,353.2 L140.5,353.5 L141.4,353.5 L142.3,353.8 L143.3,353.8 L144.2,354.1 L145.2,354.7 L146.1,354.4 L147.0,354.4 L148.0,354.1 L148.9,354.1 L149.8,355.3 L150.8,355.0 L151.7,355.3 L152.7,355.3 L153.6,355.3 L154.5,355.6 L155.5,355.3 L156.4,355.9 L157.4,355.6 L158.3,355.3 L159.2,356.2 L160.2,356.2 L161.1,355.6 L162.0,355.9 L163.0,356.8 L163.9,356.8 L164.9,356.8 L165.8,354.1 L166.7,357.2 L167.7,356.8 L168.6,356.8 L169.6,357.5 L170.5,351.7 L171.4,358.1 L172.4,359.0 L173.3,359.0 L174.3,358.7 L175.2,359.0 L176.1,358.7 L177.1,359.0 L178.0,358.7 L178.9,359.0 L179.9,359.0 L180.8,359.0 L181.8,359.3 L182.7,359.6 L183.6,359.6 L184.6,361.1 L185.5,361.1 L186.5,360.8 L187.4,361.4 L188.3,360.5 L189.3,360.5 L190.2,360.8 L191.1,361.1 L192.1,359.3 L193.0,359.6 L194.0,359.6 L194.9,358.7 L195.8,359.0 L196.8,359.0 L197.7,358.1 L198.7,357.8 L199.6,358.1 L200.5,357.8 L201.5,357.8 L202.4,357.5 L203.3,357.5 L204.3,357.8 L205.2,357.8 L206.2,357.5 L207.1,358.1 L208.0,358.4 L209.0,358.1 L209.9,358.7 L210.9,358.1 L211.8,358.4 L212.7,358.1 L213.7,358.7 L214.6,358.4 L215.5,358.4 L216.5,358.7 L217.4,357.2 L218.4,357.2 L219.3,356.5 L220.2,356.2 L221.2,356.2 L222.1,356.2 L223.1,356.5 L224.0,356.2 L224.9,356.2 L225.9,356.2 L226.8,356.2 L227.8,356.8 L228.7,359.3 L229.6,358.4 L230.6,359.0 L231.5,358.7 L232.4,359.3 L233.4,359.0 L234.3,359.0 L235.3,359.3 L236.2,359.9 L237.1,359.6 L238.1,359.6 L239.0,359.3 L240.0,359.0 L240.9,358.1 L241.8,357.8 L242.8,358.1 L243.6,357.8 L244.5,358.4 L245.4,358.1 L246.4,357.8 L247.3,356.8 L248.2,357.2 L249.2,356.5 L250.1,356.2 L251.1,356.2 L252.0,356.5 L252.9,356.5 L253.9,356.2 L254.8,355.9 L255.8,356.2 L256.7,356.5 L257.6,355.9 L258.6,356.2 L259.5,356.2 L260.4,356.5 L261.4,356.5 L262.3,356.8 L263.3,356.5 L264.2,356.5 L265.1,356.2 L266.1,356.8 L267.0,356.2 L268.0,356.5 L268.9,356.2 L269.8,356.2 L270.8,356.8 L271.7,356.5 L272.6,356.8 L273.6,356.2 L274.5,357.2 L275.5,355.9 L276.4,356.8 L277.3,356.2 L278.3,356.8 L279.2,356.5 L280.2,356.2 L281.1,356.5 L282.0,356.8 L283.0,356.5 L283.9,356.5 L284.8,356.5 L285.8,357.2 L286.7,356.5 L287.7,356.8 L288.6,356.8 L289.5,356.5 L290.5,357.2 L291.4,356.5 L292.4,357.2 L293.3,356.8 L294.2,357.2 L295.2,357.5 L296.1,357.5 L297.1,357.2 L298.0,356.8 L298.9,356.2 L299.9,356.5 L300.8,356.8 L301.7,356.8 L302.7,356.5 L303.6,356.5 L304.6,354.7 L305.5,355.0 L306.4,354.4 L307.4,354.1 L308.3,354.1 L309.3,353.8 L310.2,353.5 L311.1,353.5 L312.1,353.5 L313.0,352.9 L313.9,352.9 L314.9,352.9 L315.8,352.6 L316.8,352.3 L317.7,352.6 L318.6,352.9 L319.6,352.9 L320.5,352.6 L321.5,352.6 L322.4,353.2 L323.3,353.5 L324.3,353.5 L325.2,353.2 L326.1,353.5 L327.1,353.5 L328.0,353.2 L329.0,353.5 L329.9,353.5 L330.8,353.8 L331.8,353.8 L332.7,354.1 L333.7,354.7 L334.6,354.7 L335.5,354.4 L336.5,354.4 L337.4,354.7 L338.3,354.4 L339.3,354.7 L340.2,355.0 L341.2,356.2 L342.1,355.9 L343.0,356.2 L344.0,356.2 L344.9,355.9 L345.9,356.2 L346.8,355.6 L347.7,355.6 L348.7,355.6 L349.6,355.6 L350.6,355.3 L351.5,355.3 L352.4,353.2 L353.4,353.2 L354.3,352.9 L355.2,353.2 L356.2,353.2 L357.1,353.2 L358.1,352.6 L359.0,352.3 L359.9,352.3 L360.9,352.0 L361.8,352.6 L362.8,352.9 L363.7,354.1 L364.6,353.8 L365.6,354.1 L366.5,354.1 L367.4,353.8 L368.4,353.8 L369.3,353.8 L370.3,354.4 L371.2,353.8 L372.1,353.8 L373.1,354.1 L374.0,354.4 L375.0,354.4 L375.9,353.8 L376.8,353.8 L377.8,353.8 L378.7,353.5 L379.6,353.8 L380.6,353.5 L381.5,353.2 L382.5,353.2 L383.4,353.2 L384.3,353.2 L385.3,353.2 L386.2,355.0 L387.2,355.3 L388.1,355.0 L389.0,355.0 L390.0,355.0 L390.9,355.0 L391.8,355.0 L392.8,355.0 L393.7,354.7 L394.7,354.7 L395.6,354.7 L396.5,354.7 L397.5,355.0 L398.4,354.1 L399.4,353.8 L400.3,354.1 L401.2,353.8 L402.2,352.6 L403.1,352.6 L404.1,350.4 L405.0,351.4 L405.9,350.4 L406.9,350.1 L407.8,349.8 L408.7,349.8 L409.7,350.4 L410.6,350.7 L411.6,350.7 L412.5,351.4 L413.4,351.7 L414.4,351.7 L415.3,352.0 L416.3,352.6 L417.2,352.6 L418.1,353.8 L419.1,353.8 L420.0,353.8 L420.9,355.0 L421.9,354.7 L422.8,354.4 L423.8,355.0 L424.7,354.7 L425.6,354.7 L426.6,354.7 L427.5,354.7 L428.5,355.0 L429.4,355.0 L430.3,355.3 L431.3,355.3 L432.2,355.9 L433.1,355.6 L434.1,355.3 L435.0,355.6 L436.0,355.0 L436.9,359.3 L437.8,359.6 L438.8,355.0 L439.7,354.1 L440.7,354.7 L441.6,355.0 L442.5,354.7 L443.5,354.7 L444.4,354.7 L445.4,354.7 L446.3,354.1 L447.2,354.1 L448.2,353.8 L449.1,353.2 L450.0,353.5 L451.0,353.5 L451.9,353.8 L452.9,354.1 L453.8,354.4 L454.7,354.1 L455.7,354.1 L456.6,354.1 L457.6,355.3 L458.5,355.3 L459.4,355.3 L460.4,355.6 L461.3,355.6 L462.2,355.3 L463.2,353.5 L464.1,356.2 L465.1,355.9 L466.0,357.2 L466.9,357.8 L467.9,357.8 L468.8,357.8 L469.8,357.8 L470.7,357.5 L471.6,355.9 L472.6,355.9 L473.5,355.6 L474.4,355.6 L475.4,355.3 L476.3,355.3 L477.3,354.7 L478.2,354.4 L479.1,353.5 L480.1,353.2 L481.0,353.5 L482.0,353.2 L482.9,354.1 L483.8,353.8 L484.8,353.2 L485.7,353.8 L486.6,353.8 L487.6,353.5 L488.5,353.2 L489.5,354.1 L490.4,354.1 L491.3,354.1 L492.3,354.4 L493.2,354.4 L494.2,354.7 L495.1,355.3 L496.0,355.3 L497.0,355.3 L497.9,355.9 L498.9,356.2 L499.8,355.9 L500.7,355.9 L501.7,356.8 L502.6,357.2 L503.5,356.8 L504.5,357.2 L505.4,357.2 L506.4,356.5 L507.3,356.2 L508.2,356.5 L509.2,356.8 L510.1,356.2 L511.1,355.9 L512.0,355.3 L512.9,355.3 L513.9,355.3 L514.8,355.6 L515.7,355.3 L516.7,354.4 L517.6,354.4 L518.6,354.4 L519.5,354.4 L520.4,355.3 L521.4,355.3 L522.3,355.0 L523.3,354.4 L524.2,354.7 L525.1,353.5 L526.1,354.4 L527.0,353.8 L527.9,353.8 L528.9,353.2 L529.8,353.2 L530.8,353.5 L531.7,353.8 L532.6,354.4 L533.6,354.7 L534.5,355.0 L535.5,354.7 L536.4,357.5 L537.3,354.4 L538.3,354.4 L539.2,354.1 L540.1,354.4 L541.1,353.8 L542.0,353.8 L543.0,353.8 L543.9,354.1 L544.8,354.7 L545.8,354.4 L546.7,354.7 L547.7,354.4 L548.6,354.1 L549.5,355.0 L550.5,354.4 L551.4,354.4 L552.4,354.7 L553.3,354.1 L554.2,353.8 L555.2,353.8 L556.1,353.8 L557.0,354.1 L558.0,353.8 L558.9,354.1 L559.9,354.7 L560.8,354.7 L561.7,354.7 L562.7,355.0 L563.6,354.4 L564.6,354.4 L565.5,355.0 L566.4,355.0 L567.4,354.7 L568.3,354.4 L569.2,354.4 L570.2,354.1 L571.1,354.7 L572.1,354.4 L573.0,353.8 L573.9,353.5 L574.9,353.5 L575.8,354.4 L576.8,354.1 L577.7,354.4 L578.6,355.0 L579.6,355.6 L580.5,355.6 L581.4,355.6 L582.4,355.9 L583.3,355.6 L584.3,355.6 L585.2,355.6 L586.1,355.3 L587.1,355.0 L588.0,355.0 L589.0,355.0 L589.9,355.0 L590.8,356.5 L591.8,356.5 L592.7,355.9 L593.6,356.2 L594.6,356.8 L595.5,357.2 L596.5,356.5 L597.4,356.5 L598.3,356.8 L599.3,357.2 L600.2,356.8 L601.2,357.5 L602.1,357.5 L603.0,358.1 L604.0,357.8 L604.9,357.8 L605.9,357.8 L606.8,357.5 L607.7,358.1 L608.7,357.8 L609.6,357.5 L610.5,358.1 L611.5,357.5 L612.4,356.8 L613.4,356.5 L614.3,356.5 L615.2,357.2 L616.2,356.8 L617.1,357.2 L618.1,356.2 L619.0,356.8 L619.9,356.2 L620.9,356.5 L621.8,356.5 L622.7,357.2 L623.7,357.2 L624.6,357.2 L625.6,356.8 L626.5,357.2 L627.4,357.2 L628.4,357.2 L629.3,357.5 L630.3,357.2 L631.2,357.5 L632.1,357.5 L633.1,357.5 L634.0,357.2 L634.9,357.2 L635.9,357.2 L636.8,356.8 L637.8,357.2 L638.7,357.2 L639.6,356.8 L640.6,356.8 L641.5,356.5 L642.5,356.8 L643.4,356.5 L644.3,356.8 L645.3,358.1 L646.2,358.1 L647.1,358.1 L648.1,358.1 L649.0,358.1 L650.0,358.1 L650.9,358.1 L651.8,358.1 L652.8,358.1 L653.7,357.8 L654.7,357.8 L655.6,358.7 L656.5,358.7 L657.5,358.1 L658.4,358.4 L659.4,358.4 L660.3,358.7 L661.2,358.7 L662.2,358.1 L663.1,358.1 L664.0,357.5 L665.0,357.5 L665.9,357.2 L666.9,356.8 L667.8,356.8 L668.7,355.9 L669.7,355.9 L670.6,354.7 L671.6,354.7 L672.5,354.4 L673.4,354.7 L674.4,354.4 L675.3,354.4 L676.2,354.1 L677.2,354.1 L678.1,353.5 L679.1,353.5 L680.0,353.2" stroke="#ff7f0e" stroke-width="2" fill="none" opacity="0.8"/>
<!-- Thermal Generation -->
<path d="M80.0,314.7 L80.9,315.0 L81.9,313.8 L82.8,316.3 L83.8,328.8 L84.7,338.8 L100.1,332.4 L101.0,333.0 L102.0,338.8 L102.9,328.8 L103.9,329.1 L104.8,328.5 L105.7,326.3 L106.7,324.8 L107.6,321.5 L108.5,317.2 L109.5,321.2 L110.4,320.5 L111.4,319.9 L112.3,319.0 L113.2,320.5 L114.2,321.5 L115.1,337.9 L116.1,338.2 L117.0,338.2 L117.9,339.5 L118.9,340.7 L119.8,341.6 L120.8,326.6 L121.7,327.9 L122.6,327.9 L123.6,328.2 L124.5,328.5 L125.4,328.5 L126.4,327.9 L127.3,326.9 L128.3,326.3 L129.2,325.1 L130.1,321.8 L131.1,322.1 L132.0,321.2 L133.0,320.5 L133.9,320.2 L134.8,322.4 L135.8,320.5 L136.7,320.8 L137.6,321.8 L138.6,322.4 L139.5,320.5 L140.5,323.3 L141.4,322.7 L142.3,323.6 L143.3,323.9 L144.2,324.5 L145.2,324.2 L146.1,323.9 L147.0,324.2 L148.0,324.5 L148.9,323.0 L149.8,323.0 L150.8,323.3 L151.7,325.7 L152.7,322.1 L153.6,321.2 L154.5,321.5 L155.5,320.5 L156.4,320.5 L157.4,320.8 L158.3,323.6 L159.2,319.9 L160.2,320.8 L161.1,337.9 L162.0,339.5 L163.0,333.0 L163.9,322.1 L164.9,323.3 L165.8,323.0 L166.7,323.6 L167.7,323.9 L168.6,327.3 L169.6,326.3 L170.5,323.3 L171.4,323.3 L172.4,322.4 L173.3,322.4 L174.3,321.8 L175.2,321.8 L176.1,321.8 L177.1,320.5 L178.0,319.6 L178.9,319.3 L179.9,319.6 L180.8,322.1 L181.8,319.3 L182.7,330.6 L183.6,328.2 L184.6,331.2 L185.5,338.8 L186.5,322.4 L187.4,323.3 L188.3,323.6 L189.3,324.2 L190.2,323.6 L191.1,323.3 L192.1,309.9 L193.0,308.9 L194.0,311.1 L194.9,307.1 L195.8,307.4 L196.8,308.3 L197.7,307.4 L198.7,306.5 L199.6,305.6 L200.5,305.9 L201.5,305.0 L202.4,304.4 L203.3,304.1 L204.3,304.7 L205.2,307.7 L206.2,336.7 L207.1,338.2 L208.0,338.8 L209.0,338.5 L209.9,341.0 L210.9,313.5 L211.8,308.3 L212.7,306.8 L213.7,310.5 L214.6,308.9 L215.5,304.4 L216.5,303.8 L217.4,300.4 L218.4,298.3 L219.3,311.4 L220.2,304.7 L221.2,306.5 L222.1,296.7 L223.1,319.6 L224.0,323.0 L224.9,322.4 L225.9,295.8 L226.8,298.6 L227.8,298.6 L228.7,323.3 L229.6,309.9 L230.6,311.1 L231.5,312.6 L232.4,313.2 L233.4,309.3 L234.3,307.7 L235.3,307.4 L236.2,306.5 L237.1,307.1 L238.1,307.1 L239.0,305.3 L240.0,305.0 L240.9,301.6 L241.8,303.8 L242.8,298.3 L243.6,297.4 L244.5,305.9 L245.4,296.1 L246.4,297.4 L247.3,299.8 L248.2,300.7 L249.2,297.4 L250.1,297.7 L251.1,300.7 L252.0,301.0 L252.9,307.7 L253.9,321.2 L254.8,307.4 L255.8,320.2 L256.7,313.8 L257.6,313.2 L258.6,311.4 L259.5,312.6 L260.4,310.8 L261.4,311.4 L262.3,308.6 L263.3,306.2 L264.2,305.3 L265.1,301.9 L266.1,340.7 L267.0,340.1 L268.0,328.2 L268.9,327.6 L269.8,326.9 L270.8,326.6 L271.7,312.3 L272.6,327.3 L273.6,332.4 L274.5,327.6 L275.5,327.9 L276.4,328.5 L277.3,331.8 L278.3,326.9 L279.2,325.4 L280.2,305.0 L281.1,305.6 L282.0,305.9 L283.0,311.1 L283.9,308.0 L284.8,312.6 L285.8,305.9 L286.7,304.7 L287.7,303.5 L288.6,303.5 L289.5,329.1 L290.5,323.3 L291.4,324.2 L292.4,340.7 L293.3,340.4 L294.2,329.1 L295.2,327.3 L296.1,327.6 L297.1,331.2 L298.0,331.5 L298.9,326.9 L299.9,325.7 L300.8,326.0 L301.7,329.1 L302.7,319.9 L303.6,319.6 L304.6,316.3 L305.5,313.8 L306.4,313.5 L307.4,312.3 L308.3,310.8 L309.3,310.8 L310.2,310.8 L311.1,308.3 L312.1,306.2 L313.0,336.4 L313.9,335.2 L314.9,334.9 L315.8,334.3 L316.8,325.7 L317.7,325.1 L318.6,328.2 L319.6,328.2 L320.5,330.0 L321.5,335.2 L322.4,335.8 L323.3,345.6 L324.3,345.9 L325.2,345.3 L326.1,345.3 L327.1,343.7 L328.0,327.3 L329.0,324.2 L329.9,321.2 L330.8,322.4 L331.8,321.8 L332.7,321.5 L333.7,326.6 L334.6,337.9 L335.5,338.2 L336.5,337.9 L337.4,338.2 L338.3,338.5 L339.3,338.5 L340.2,339.2 L341.2,338.2 L342.1,337.9 L343.0,340.7 L344.0,341.3 L344.9,341.3 L345.9,341.9 L346.8,339.2 L347.7,341.9 L348.7,341.6 L349.6,312.3 L350.6,312.0 L351.5,313.5 L352.4,312.9 L353.4,312.3 L354.3,322.1 L355.2,321.5 L356.2,319.6 L357.1,335.5 L358.1,330.0 L359.0,327.9 L359.9,327.9 L360.9,327.6 L361.8,327.3 L362.8,327.6 L363.7,328.2 L364.6,329.4 L365.6,330.6 L366.5,330.9 L367.4,331.5 L368.4,332.1 L369.3,332.4 L370.3,312.3 L371.2,304.4 L372.1,304.1 L373.1,303.5 L374.0,302.8 L375.0,315.0 L375.9,301.6 L376.8,300.4 L377.8,310.8 L378.7,311.1 L379.6,327.3 L380.6,326.9 L381.5,327.6 L382.5,326.6 L383.4,326.6 L384.3,326.3 L385.3,328.2 L386.2,328.8 L387.2,330.0 L388.1,332.4 L389.0,331.8 L390.0,332.7 L390.9,333.0 L391.8,315.7 L392.8,309.3 L393.7,308.3 L394.7,308.0 L395.6,307.4 L396.5,306.8 L397.5,303.5 L398.4,301.9 L399.4,301.6 L400.3,303.8 L401.2,300.1 L402.2,299.5 L403.1,304.1 L404.1,303.8 L405.0,303.1 L405.9,303.1 L406.9,302.8 L407.8,309.3 L408.7,303.8 L409.7,305.0 L410.6,307.1 L411.6,307.7 L412.5,309.3 L413.4,336.1 L414.4,348.3 L415.3,349.2 L416.3,350.1 L417.2,349.2 L418.1,348.3 L419.1,346.8 L420.0,345.3 L420.9,343.7 L421.9,343.1 L422.8,341.9 L423.8,342.2 L424.7,342.2 L425.6,341.3 L426.6,341.0 L427.5,343.4 L428.5,339.8 L429.4,340.1 L430.3,343.7 L431.3,344.0 L432.2,342.5 L433.1,342.5 L434.1,344.9 L435.0,334.9 L436.0,336.1 L436.9,336.7 L437.8,336.7 L438.8,335.5 L439.7,335.5 L440.7,334.6 L441.6,333.4 L442.5,333.4 L443.5,331.5 L444.4,330.0 L445.4,330.0 L446.3,332.1 L447.2,330.6 L448.2,330.6 L449.1,330.6 L450.0,331.2 L451.0,331.5 L451.9,331.5 L452.9,343.7 L453.8,360.2 L454.7,362.3 L455.7,361.7 L456.6,362.6 L457.6,360.8 L458.5,360.5 L459.4,346.5 L460.4,334.3 L461.3,336.1 L462.2,348.6 L463.2,333.4 L464.1,334.9 L465.1,332.1 L466.0,332.1 L466.9,333.0 L467.9,335.2 L468.8,333.4 L469.8,333.4 L470.7,332.1 L471.6,332.1 L472.6,331.8 L473.5,333.0 L474.4,334.6 L475.4,334.9 L476.3,343.4 L477.3,351.7 L478.2,352.6 L479.1,348.6 L480.1,350.1 L481.0,350.7 L482.0,348.0 L482.9,343.4 L483.8,336.1 L484.8,333.4 L485.7,330.6 L486.6,330.3 L487.6,329.1 L488.5,330.3 L489.5,329.1 L490.4,328.8 L491.3,350.7 L492.3,355.6 L493.2,356.8 L494.2,356.8 L495.1,357.2 L496.0,356.8 L497.0,358.1 L497.9,357.8 L498.9,355.0 L499.8,355.0 L500.7,356.5 L501.7,360.2 L502.6,361.4 L503.5,362.6 L504.5,363.6 L505.4,364.2 L506.4,344.3 L507.3,335.5 L508.2,335.5 L509.2,333.7 L510.1,334.6 L511.1,344.6 L512.0,343.1 L512.9,358.7 L513.9,341.6 L514.8,358.7 L515.7,358.7 L516.7,358.7 L517.6,359.6 L518.6,358.4 L519.5,358.1 L520.4,358.7 L521.4,359.0 L522.3,360.2 L523.3,362.0 L524.2,363.6 L525.1,364.2 L526.1,365.7 L527.0,365.7 L527.9,366.0 L528.9,365.4 L529.8,358.7 L530.8,338.8 L531.7,337.0 L532.6,338.8 L533.6,336.1 L534.5,344.0 L535.5,361.7 L536.4,362.6 L537.3,363.6 L538.3,362.3 L539.2,362.3 L540.1,362.0 L541.1,362.0 L542.0,362.3 L543.0,361.4 L543.9,359.3 L544.8,359.3 L545.8,360.8 L546.7,348.0 L547.7,337.0 L548.6,337.6 L549.5,339.5 L550.5,345.3 L551.4,341.0 L552.4,363.9 L553.3,362.9 L554.2,361.7 L555.2,361.4 L556.1,361.1 L557.0,334.0 L558.0,334.0 L558.9,333.0 L559.9,353.8 L560.8,352.9 L561.7,352.9 L562.7,353.8 L563.6,342.2 L564.6,334.3 L565.5,332.7 L566.4,333.0 L567.4,334.3 L568.3,323.0 L569.2,335.5 L570.2,323.0 L571.1,329.4 L572.1,331.2 L573.0,324.5 L573.9,325.1 L574.9,326.9 L575.8,326.3 L576.8,326.0 L577.7,325.1 L578.6,325.1 L579.6,330.3 L580.5,341.0 L581.4,341.3 L582.4,335.5 L583.3,335.8 L584.3,335.8 L585.2,323.3 L586.1,324.2 L587.1,322.4 L588.0,299.2 L589.0,310.8 L589.9,320.2 L590.8,324.5 L591.8,324.8 L592.7,325.1 L593.6,318.4 L594.6,305.3 L595.5,306.5 L596.5,315.7 L597.4,307.4 L598.3,306.2 L599.3,304.1 L600.2,301.3 L601.2,310.5 L602.1,321.5 L603.0,325.4 L604.0,325.4 L604.9,324.8 L605.9,324.2 L606.8,323.9 L607.7,325.1 L608.7,324.8 L609.6,312.9 L610.5,315.7 L611.5,319.0 L612.4,319.9 L613.4,318.7 L614.3,325.4 L615.2,326.6 L616.2,317.5 L617.1,317.8 L618.1,314.7 L619.0,309.6 L619.9,315.7 L620.9,305.9 L621.8,305.0 L622.7,307.1 L623.7,304.1 L624.6,314.4 L625.6,307.1 L626.5,313.2 L627.4,323.6 L628.4,323.3 L629.3,322.7 L630.3,322.1 L631.2,322.7 L632.1,310.8 L633.1,310.2 L634.0,322.1 L634.9,323.3 L635.9,324.2 L636.8,340.1 L637.8,333.4 L638.7,326.3 L639.6,326.0 L640.6,330.9 L641.5,350.4 L642.5,357.2 L643.4,356.8 L644.3,348.3 L645.3,347.7 L646.2,346.2 L647.1,340.4 L648.1,340.7 L649.0,340.4 L650.0,342.8 L650.9,342.5 L651.8,345.3 L652.8,341.9 L653.7,342.2 L654.7,342.5 L655.6,342.5 L656.5,348.3 L657.5,356.8 L658.4,359.0 L659.4,358.1 L660.3,359.0 L661.2,358.1 L662.2,357.5 L663.1,357.5 L664.0,348.3 L665.0,349.5 L665.9,348.3 L666.9,348.3 L667.8,351.4 L668.7,352.3 L669.7,353.5 L670.6,355.0 L671.6,348.0 L672.5,354.1 L673.4,355.6 L674.4,357.2 L675.3,356.8 L676.2,356.5 L677.2,358.4 L678.1,358.1 L679.1,361.7 L680.0,363.6" stroke="#2ca02c" stroke-width="2" fill="none" opacity="0.8"/>
<!-- Solar Generation -->
<path d="M80.0,392.2 L80.9,411.2 L81.9,420.0 L82.8,420.0 L83.8,420.0 L84.7,420.0 L100.1,393.5 L101.0,382.2 L102.0,384.6 L102.9,399.3 L103.9,418.2 L104.8,420.0 L105.7,420.0 L106.7,420.0 L107.6,420.0 L108.5,420.0 L109.5,420.0 L110.4,420.0 L111.4,420.0 L112.3,420.0 L113.2,420.0 L114.2,418.2 L115.1,404.4 L116.1,380.3 L117.0,378.2 L117.9,387.4 L118.9,379.7 L119.8,384.6 L120.8,388.3 L121.7,398.3 L122.6,401.1 L123.6,400.5 L124.5,408.1 L125.4,415.7 L126.4,418.2 L127.3,420.0 L128.3,420.0 L129.2,420.0 L130.1,420.0 L131.1,420.0 L132.0,420.0 L133.0,420.0 L133.9,420.0 L134.8,420.0 L135.8,420.0 L136.7,418.2 L137.6,406.0 L138.6,387.7 L139.5,378.2 L140.5,380.9 L141.4,378.8 L142.3,380.0 L143.3,377.3 L144.2,377.0 L145.2,377.0 L146.1,377.3 L147.0,389.8 L148.0,402.9 L148.9,418.5 L149.8,420.0 L150.8,420.0 L151.7,420.0 L152.7,420.0 L153.6,420.0 L154.5,420.0 L155.5,420.0 L156.4,420.0 L157.4,420.0 L158.3,420.0 L159.2,419.4 L160.2,409.0 L161.1,393.8 L162.0,385.5 L163.0,379.7 L163.9,384.6 L164.9,377.3 L165.8,383.1 L166.7,375.5 L167.7,375.8 L168.6,376.7 L169.6,380.6 L170.5,400.2 L171.4,418.5 L172.4,420.0 L173.3,420.0 L174.3,420.0 L175.2,420.0 L176.1,420.0 L177.1,420.0 L178.0,420.0 L178.9,420.0 L179.9,420.0 L180.8,420.0 L181.8,418.5 L182.7,397.1 L183.6,379.4 L184.6,376.1 L185.5,375.8 L186.5,375.8 L187.4,376.1 L188.3,375.5 L189.3,376.4 L190.2,377.3 L191.1,376.7 L192.1,386.1 L193.0,408.1 L194.0,418.5 L194.9,420.0 L195.8,420.0 L196.8,420.0 L197.7,420.0 L198.7,420.0 L199.6,420.0 L200.5,420.0 L201.5,420.0 L202.4,420.0 L203.3,420.0 L204.3,419.1 L205.2,399.6 L206.2,378.8 L207.1,376.4 L208.0,375.5 L209.0,375.8 L209.9,380.0 L210.9,377.6 L211.8,380.0 L212.7,379.4 L213.7,382.2 L214.6,385.2 L215.5,401.7 L216.5,419.1 L217.4,420.0 L218.4,420.0 L219.3,420.0 L220.2,420.0 L221.2,420.0 L222.1,420.0 L223.1,420.0 L224.0,420.0 L224.9,420.0 L225.9,420.0 L226.8,418.5 L227.8,402.0 L228.7,381.3 L229.6,377.9 L230.6,378.2 L231.5,376.1 L232.4,379.7 L233.4,376.4 L234.3,387.4 L235.3,382.2 L236.2,392.8 L237.1,398.0 L238.1,410.2 L239.0,419.4 L240.0,420.0 L240.9,420.0 L241.8,420.0 L242.8,420.0 L243.6,420.0 L244.5,420.0 L245.4,420.0 L246.4,420.0 L247.3,420.0 L248.2,420.0 L249.2,419.7 L250.1,412.7 L251.1,398.3 L252.0,406.3 L252.9,394.4 L253.9,395.3 L254.8,390.1 L255.8,393.8 L256.7,382.8 L257.6,379.4 L258.6,391.6 L259.5,413.0 L260.4,412.4 L261.4,419.7 L262.3,420.0 L263.3,420.0 L264.2,420.0 L265.1,420.0 L266.1,420.0 L267.0,420.0 L268.0,420.0 L268.9,420.0 L269.8,420.0 L270.8,420.0 L271.7,419.7 L272.6,416.0 L273.6,415.1 L274.5,414.2 L275.5,412.7 L276.4,409.3 L277.3,406.3 L278.3,411.2 L279.2,404.1 L280.2,400.5 L281.1,407.5 L282.0,411.8 L283.0,418.5 L283.9,420.0 L284.8,420.0 L285.8,420.0 L286.7,420.0 L287.7,420.0 L288.6,420.0 L289.5,420.0 L290.5,420.0 L291.4,420.0 L292.4,420.0 L293.3,420.0 L294.2,420.0 L295.2,417.9 L296.1,412.4 L297.1,411.5 L298.0,404.4 L298.9,402.3 L299.9,398.0 L300.8,397.1 L301.7,399.9 L302.7,402.3 L303.6,406.6 L304.6,403.2 L305.5,415.7 L306.4,419.4 L307.4,420.0 L308.3,420.0 L309.3,420.0 L310.2,420.0 L311.1,420.0 L312.1,420.0 L313.0,420.0 L313.9,420.0 L314.9,420.0 L315.8,420.0 L316.8,420.0 L317.7,413.6 L318.6,400.8 L319.6,393.2 L320.5,388.3 L321.5,385.2 L322.4,379.1 L323.3,395.0 L324.3,389.5 L325.2,399.9 L326.1,406.3 L327.1,381.9 L328.0,410.2 L329.0,419.1 L329.9,420.0 L330.8,420.0 L331.8,420.0 L332.7,420.0 L333.7,420.0 L334.6,420.0 L335.5,420.0 L336.5,420.0 L337.4,420.0 L338.3,420.0 L339.3,420.0 L340.2,412.7 L341.2,382.5 L342.1,377.6 L343.0,376.4 L344.0,376.7 L344.9,383.7 L345.9,376.1 L346.8,376.1 L347.7,380.9 L348.7,376.4 L349.6,394.7 L350.6,402.0 L351.5,419.1 L352.4,420.0 L353.4,420.0 L354.3,420.0 L355.2,420.0 L356.2,420.0 L357.1,420.0 L358.1,420.0 L359.0,420.0 L359.9,420.0 L360.9,420.0 L361.8,419.7 L362.8,407.5 L363.7,384.6 L364.6,377.9 L365.6,376.7 L366.5,377.3 L367.4,377.9 L368.4,377.9 L369.3,379.4 L370.3,376.4 L371.2,378.8 L372.1,384.3 L373.1,402.0 L374.0,419.1 L375.0,420.0 L375.9,420.0 L376.8,420.0 L377.8,420.0 L378.7,420.0 L379.6,420.0 L380.6,420.0 L381.5,420.0 L382.5,420.0 L383.4,420.0 L384.3,420.0 L385.3,407.5 L386.2,386.1 L387.2,377.6 L388.1,378.8 L389.0,377.3 L390.0,378.2 L390.9,380.3 L391.8,377.6 L392.8,378.8 L393.7,378.2 L394.7,383.1 L395.6,402.3 L396.5,419.1 L397.5,420.0 L398.4,420.0 L399.4,420.0 L400.3,420.0 L401.2,420.0 L402.2,420.0 L403.1,420.0 L404.1,420.0 L405.0,420.0 L405.9,420.0 L406.9,420.0 L407.8,408.1 L408.7,385.2 L409.7,378.8 L410.6,378.8 L411.6,379.1 L412.5,378.5 L413.4,387.7 L414.4,397.1 L415.3,393.2 L416.3,395.6 L417.2,396.2 L418.1,409.3 L419.1,419.4 L420.0,420.0 L420.9,420.0 L421.9,420.0 L422.8,420.0 L423.8,420.0 L424.7,420.0 L425.6,420.0 L426.6,420.0 L427.5,420.0 L428.5,420.0 L429.4,420.0 L430.3,410.2 L431.3,389.2 L432.2,381.3 L433.1,384.0 L434.1,378.5 L435.0,379.4 L436.0,384.9 L436.9,378.5 L437.8,379.1 L438.8,380.6 L439.7,387.1 L440.7,405.7 L441.6,419.4 L442.5,420.0 L443.5,420.0 L444.4,420.0 L445.4,420.0 L446.3,420.0 L447.2,420.0 L448.2,420.0 L449.1,420.0 L450.0,420.0 L451.0,420.0 L451.9,420.0 L452.9,415.4 L453.8,399.9 L454.7,393.5 L455.7,391.6 L456.6,394.7 L457.6,390.4 L458.5,387.4 L459.4,384.3 L460.4,395.0 L461.3,397.1 L462.2,398.9 L463.2,412.4 L464.1,419.7 L465.1,420.0 L466.0,420.0 L466.9,420.0 L467.9,420.0 L468.8,420.0 L469.8,420.0 L470.7,420.0 L471.6,420.0 L472.6,420.0 L473.5,420.0 L474.4,420.0 L475.4,412.1 L476.3,395.0 L477.3,380.6 L478.2,377.6 L479.1,377.3 L480.1,378.2 L481.0,377.9 L482.0,376.7 L482.9,376.4 L483.8,377.6 L484.8,386.1 L485.7,408.1 L486.6,419.7 L487.6,420.0 L488.5,420.0 L489.5,420.0 L490.4,420.0 L491.3,420.0 L492.3,420.0 L493.2,420.0 L494.2,420.0 L495.1,420.0 L496.0,420.0 L497.0,420.0 L497.9,411.2 L498.9,393.8 L499.8,387.4 L500.7,382.8 L501.7,381.3 L502.6,380.9 L503.5,381.9 L504.5,384.3 L505.4,387.4 L506.4,389.5 L507.3,399.9 L508.2,414.2 L509.2,420.0 L510.1,420.0 L511.1,420.0 L512.0,420.0 L512.9,420.0 L513.9,420.0 L514.8,420.0 L515.7,420.0 L516.7,420.0 L517.6,420.0 L518.6,420.0 L519.5,420.0 L520.4,414.5 L521.4,402.3 L522.3,384.6 L523.3,380.9 L524.2,386.4 L525.1,383.4 L526.1,388.0 L527.0,382.2 L527.9,389.2 L528.9,412.1 L529.8,415.7 L530.8,418.5 L531.7,420.0 L532.6,420.0 L533.6,420.0 L534.5,420.0 L535.5,420.0 L536.4,420.0 L537.3,420.0 L538.3,420.0 L539.2,420.0 L540.1,420.0 L541.1,420.0 L542.0,420.0 L543.0,413.9 L543.9,398.3 L544.8,378.2 L545.8,378.2 L546.7,391.6 L547.7,383.7 L548.6,390.4 L549.5,383.4 L550.5,387.4 L551.4,383.1 L552.4,391.6 L553.3,407.5 L554.2,419.7 L555.2,420.0 L556.1,420.0 L557.0,420.0 L558.0,420.0 L558.9,420.0 L559.9,420.0 L560.8,420.0 L561.7,420.0 L562.7,420.0 L563.6,420.0 L564.6,420.0 L565.5,415.4 L566.4,409.9 L567.4,402.9 L568.3,401.4 L569.2,397.4 L570.2,386.1 L571.1,390.7 L572.1,390.1 L573.0,391.3 L573.9,395.9 L574.9,405.7 L575.8,417.9 L576.8,420.0 L577.7,420.0 L578.6,420.0 L579.6,420.0 L580.5,420.0 L581.4,420.0 L582.4,420.0 L583.3,420.0 L584.3,420.0 L585.2,420.0 L586.1,420.0 L587.1,420.0 L588.0,415.1 L589.0,392.2 L589.9,395.3 L590.8,390.1 L591.8,390.4 L592.7,385.5 L593.6,389.5 L594.6,382.5 L595.5,398.6 L596.5,405.4 L597.4,409.0 L598.3,417.6 L599.3,420.0 L600.2,420.0 L601.2,420.0 L602.1,420.0 L603.0,420.0 L604.0,420.0 L604.9,420.0 L605.9,420.0 L606.8,420.0 L607.7,420.0 L608.7,420.0 L609.6,420.0 L610.5,417.9 L611.5,414.5 L612.4,398.6 L613.4,395.3 L614.3,395.3 L615.2,394.7 L616.2,392.2 L617.1,398.0 L618.1,406.3 L619.0,411.8 L619.9,413.6 L620.9,417.6 L621.8,420.0 L622.7,420.0 L623.7,420.0 L624.6,420.0 L625.6,420.0 L626.5,420.0 L627.4,420.0 L628.4,420.0 L629.3,420.0 L630.3,420.0 L631.2,420.0 L632.1,420.0 L633.1,412.1 L634.0,391.6 L634.9,380.6 L635.9,378.2 L636.8,380.0 L637.8,387.1 L638.7,380.0 L639.6,388.9 L640.6,396.2 L641.5,388.3 L642.5,407.2 L643.4,416.6 L644.3,420.0 L645.3,420.0 L646.2,420.0 L647.1,420.0 L648.1,420.0 L649.0,420.0 L650.0,420.0 L650.9,420.0 L651.8,420.0 L652.8,420.0 L653.7,420.0 L654.7,420.0 L655.6,418.8 L656.5,399.3 L657.5,391.6 L658.4,386.1 L659.4,384.6 L660.3,382.5 L661.2,380.6 L662.2,391.0 L663.1,404.4 L664.0,405.1 L665.0,400.2 L665.9,415.4 L666.9,420.0 L667.8,420.0 L668.7,420.0 L669.7,420.0 L670.6,420.0 L671.6,420.0 L672.5,420.0 L673.4,420.0 L674.4,420.0 L675.3,420.0 L676.2,420.0 L677.2,420.0 L678.1,411.8 L679.1,383.4 L680.0,400.8" stroke="#d62728" stroke-width="2" fill="none" opacity="0.8"/>
<!-- Forecast -->
<path d="M80.0,100.6 L80.9,112.8 L81.9,125.3 L82.8,135.0 L83.8,152.4 L84.7,178.7 L100.1,74.9 L101.0,67.6 L102.0,72.2 L102.9,82.6 L103.9,97.8 L104.8,111.6 L105.7,122.5 L106.7,151.2 L107.6,187.8 L108.5,207.7 L109.5,219.2 L110.4,230.2 L111.4,234.8 L112.3,234.2 L113.2,227.5 L114.2,207.4 L115.1,180.5 L116.1,154.9 L117.0,136.6 L117.9,123.1 L118.9,109.7 L119.8,100.9 L120.8,92.6 L121.7,86.2 L122.6,78.6 L123.6,78.6 L124.5,83.2 L125.4,93.9 L126.4,107.3 L127.3,122.5 L128.3,140.2 L129.2,158.2 L130.1,235.7 L131.1,213.8 L132.0,244.6 L133.0,244.9 L133.9,242.4 L134.8,240.0 L135.8,239.1 L136.7,240.9 L137.6,207.4 L138.6,199.7 L139.5,187.8 L140.5,177.5 L141.4,147.2 L142.3,144.2 L143.3,145.1 L144.2,146.0 L145.2,149.1 L146.1,162.2 L147.0,173.2 L148.0,173.8 L148.9,173.8 L149.8,236.6 L150.8,240.3 L151.7,409.9 L152.7,223.2 L153.6,224.7 L154.5,237.3 L155.5,245.8 L156.4,248.8 L157.4,246.7 L158.3,236.3 L159.2,216.2 L160.2,192.4 L161.1,170.1 L162.0,159.8 L163.0,154.9 L163.9,148.8 L164.9,146.3 L165.8,140.2 L166.7,132.6 L167.7,123.1 L168.6,115.8 L169.6,121.6 L170.5,131.7 L171.4,181.1 L172.4,186.3 L173.3,192.7 L174.3,193.6 L175.2,218.6 L176.1,235.4 L177.1,238.8 L178.0,240.0 L178.9,241.5 L179.9,243.4 L180.8,245.8 L181.8,247.9 L182.7,242.1 L183.6,230.5 L184.6,216.2 L185.5,207.4 L186.5,204.9 L187.4,204.0 L188.3,202.8 L189.3,202.8 L190.2,202.2 L191.1,172.9 L192.1,169.5 L193.0,167.1 L194.0,170.7 L194.9,182.0 L195.8,184.2 L196.8,209.8 L197.7,219.2 L198.7,225.4 L199.6,218.0 L200.5,226.0 L201.5,233.9 L202.4,240.0 L203.3,251.0 L204.3,247.6 L205.2,235.4 L206.2,219.2 L207.1,203.1 L208.0,192.1 L209.0,184.5 L209.9,197.0 L210.9,194.8 L211.8,193.9 L212.7,163.4 L213.7,161.9 L214.6,159.5 L215.5,157.9 L216.5,170.4 L217.4,175.6 L218.4,177.5 L219.3,205.8 L220.2,228.7 L221.2,225.0 L222.1,236.0 L223.1,244.3 L224.0,248.2 L224.9,247.6 L225.9,237.6 L226.8,217.1 L227.8,192.7 L228.7,169.2 L229.6,156.7 L230.6,149.7 L231.5,141.8 L232.4,138.4 L233.4,129.9 L234.3,119.8 L235.3,142.1 L236.2,141.5 L237.1,139.3 L238.1,137.2 L239.0,144.2 L240.0,154.9 L240.9,120.7 L241.8,132.0 L242.8,194.8 L243.6,220.8 L244.5,235.4 L245.4,244.3 L246.4,249.5 L247.3,248.8 L248.2,240.0 L249.2,220.8 L250.1,196.1 L251.1,171.7 L252.0,156.1 L252.9,147.2 L253.9,138.7 L254.8,131.1 L255.8,121.9 L256.7,112.2 L257.6,100.9 L258.6,92.0 L259.5,94.8 L260.4,104.5 L261.4,118.6 L262.3,133.2 L263.3,142.1 L264.2,162.5 L265.1,170.7 L266.1,208.3 L267.0,228.1 L268.0,237.6 L268.9,243.4 L269.8,242.7 L270.8,234.8 L271.7,217.4 L272.6,194.8 L273.6,170.7 L274.5,156.1 L275.5,149.4 L276.4,142.7 L277.3,139.0 L278.3,132.9 L279.2,124.7 L280.2,118.0 L281.1,115.2 L282.0,119.8 L283.0,121.3 L283.9,127.4 L284.8,144.5 L285.8,150.3 L286.7,166.8 L287.7,198.8 L288.6,215.6 L289.5,226.9 L290.5,235.4 L291.4,240.3 L292.4,238.8 L293.3,230.5 L294.2,215.3 L295.2,193.3 L296.1,171.0 L297.1,159.1 L298.0,155.5 L298.9,151.2 L299.9,147.9 L300.8,146.6 L301.7,144.2 L302.7,139.9 L303.6,137.8 L304.6,142.1 L305.5,149.7 L306.4,157.6 L307.4,162.8 L308.3,163.7 L309.3,177.8 L310.2,205.5 L311.1,223.2 L312.1,234.2 L313.0,241.5 L313.9,244.9 L314.9,244.0 L315.8,234.2 L316.8,218.0 L317.7,195.1 L318.6,172.9 L319.6,161.9 L320.5,158.8 L321.5,154.9 L322.4,151.5 L323.3,151.2 L324.3,148.8 L325.2,143.9 L326.1,140.8 L327.1,144.8 L328.0,152.4 L329.0,160.1 L329.9,167.4 L330.8,167.4 L331.8,182.0 L332.7,209.5 L333.7,223.8 L334.6,234.2 L335.5,243.0 L336.5,247.9 L337.4,249.5 L338.3,247.0 L339.3,241.5 L340.2,228.4 L341.2,211.0 L342.1,198.5 L343.0,192.4 L344.0,187.8 L344.9,179.6 L345.9,174.7 L346.8,174.1 L347.7,165.9 L348.7,158.2 L349.6,159.1 L350.6,157.3 L351.5,165.9 L352.4,174.4 L353.4,173.5 L354.3,186.9 L355.2,206.1 L356.2,226.0 L357.1,238.2 L358.1,245.8 L359.0,250.7 L359.9,251.6 L360.9,250.4 L361.8,247.0 L362.8,236.0 L363.7,219.2 L364.6,200.0 L365.6,188.1 L366.5,178.1 L367.4,170.7 L368.4,162.8 L369.3,153.7 L370.3,143.0 L371.2,137.8 L372.1,127.1 L373.1,130.8 L374.0,140.5 L375.0,152.7 L375.9,159.8 L376.8,177.8 L377.8,203.4 L378.7,225.7 L379.6,239.1 L380.6,233.0 L381.5,248.5 L382.5,254.0 L383.4,252.5 L384.3,248.5 L385.3,239.1 L386.2,222.0 L387.2,202.2 L388.1,190.3 L389.0,179.9 L390.0,172.3 L390.9,161.9 L391.8,151.5 L392.8,140.8 L393.7,132.6 L394.7,125.6 L395.6,128.0 L396.5,136.6 L397.5,148.8 L398.4,157.6 L399.4,177.1 L400.3,155.8 L401.2,206.1 L402.2,232.4 L403.1,226.0 L404.1,242.7 L405.0,247.3 L405.9,239.4 L406.9,219.9 L407.8,197.3 L408.7,173.2 L409.7,157.9 L410.6,150.6 L411.6,142.4 L412.5,137.2 L413.4,130.2 L414.4,122.2 L415.3,120.7 L416.3,120.7 L417.2,121.0 L418.1,121.3 L419.1,121.3 L420.0,121.6 L420.9,121.9 L421.9,134.4 L422.8,198.5 L423.8,226.3 L424.7,240.6 L425.6,250.1 L426.6,254.9 L427.5,254.0 L428.5,244.9 L429.4,223.8 L430.3,200.6 L431.3,178.1 L432.2,165.6 L433.1,160.1 L434.1,154.0 L435.0,150.0 L436.0,145.4 L436.9,138.4 L437.8,128.6 L438.8,119.5 L439.7,121.6 L440.7,130.8 L441.6,146.0 L442.5,157.3 L443.5,163.7 L444.4,182.6 L445.4,212.5 L446.3,232.7 L447.2,236.0 L448.2,241.8 L449.1,247.3 L450.0,246.7 L451.0,238.2 L451.9,219.6 L452.9,197.0 L453.8,173.2 L454.7,159.5 L455.7,153.3 L456.6,147.9 L457.6,145.1 L458.5,141.5 L459.4,137.8 L460.4,131.4 L461.3,129.2 L462.2,134.7 L463.2,143.3 L464.1,155.5 L465.1,164.9 L466.0,169.8 L466.9,187.8 L467.9,223.8 L468.8,237.6 L469.8,264.7 L470.7,275.4 L471.6,278.4 L472.6,280.6 L473.5,258.0 L474.4,251.6 L475.4,233.0 L476.3,220.5 L477.3,201.6 L478.2,188.1 L479.1,182.9 L480.1,181.7 L481.0,181.7 L482.0,182.0 L482.9,181.7 L483.8,181.4 L484.8,181.7 L485.7,181.7 L486.6,168.0 L487.6,170.7 L488.5,177.1 L489.5,201.2 L490.4,225.0 L491.3,258.9 L492.3,270.8 L493.2,274.8 L494.2,276.9 L495.1,278.4 L496.0,279.0 L497.0,267.8 L497.9,246.4 L498.9,220.2 L499.8,202.8 L500.7,196.4 L501.7,196.1 L502.6,188.1 L503.5,181.7 L504.5,180.8 L505.4,170.4 L506.4,163.7 L507.3,163.1 L508.2,162.2 L509.2,172.0 L510.1,179.0 L511.1,180.8 L512.0,194.5 L512.9,214.7 L513.9,233.6 L514.8,247.3 L515.7,255.3 L516.7,259.5 L517.6,261.0 L518.6,259.5 L519.5,253.1 L520.4,242.4 L521.4,227.2 L522.3,211.3 L523.3,198.2 L524.2,191.5 L525.1,188.1 L526.1,180.2 L527.0,172.3 L527.9,162.5 L528.9,154.0 L529.8,143.0 L530.8,175.9 L531.7,197.3 L532.6,204.6 L533.6,205.2 L534.5,204.0 L535.5,217.4 L536.4,226.6 L537.3,225.4 L538.3,222.6 L539.2,220.5 L540.1,219.9 L541.1,220.8 L542.0,222.0 L543.0,223.8 L543.9,197.0 L544.8,179.0 L545.8,164.6 L546.7,157.6 L547.7,156.1 L548.6,155.8 L549.5,156.1 L550.5,156.7 L551.4,160.4 L552.4,166.2 L553.3,176.5 L554.2,197.0 L555.2,211.0 L556.1,143.0 L557.0,198.2 L558.0,215.3 L558.9,231.8 L559.9,241.5 L560.8,248.2 L561.7,253.1 L562.7,252.2 L563.6,242.7 L564.6,222.9 L565.5,200.0 L566.4,177.5 L567.4,165.6 L568.3,160.1 L569.2,154.0 L570.2,150.0 L571.1,146.6 L572.1,141.1 L573.0,133.2 L573.9,130.2 L574.9,133.2 L575.8,139.9 L576.8,153.0 L577.7,163.1 L578.6,166.5 L579.6,182.0 L580.5,207.0 L581.4,229.3 L582.4,240.9 L583.3,248.8 L584.3,253.1 L585.2,252.5 L586.1,243.0 L587.1,222.6 L588.0,199.4 L589.0,177.8 L589.9,166.2 L590.8,160.4 L591.8,154.0 L592.7,148.5 L593.6,142.1 L594.6,133.5 L595.5,122.5 L596.5,118.9 L597.4,123.5 L598.3,134.1 L599.3,151.2 L600.2,159.1 L601.2,163.1 L602.1,181.1 L603.0,222.0 L604.0,242.1 L604.9,252.2 L605.9,260.1 L606.8,262.0 L607.7,260.7 L608.7,251.6 L609.6,221.7 L610.5,192.4 L611.5,174.1 L612.4,165.6 L613.4,167.7 L614.3,167.1 L615.2,165.6 L616.2,166.8 L617.1,168.6 L618.1,164.0 L619.0,165.6 L619.9,167.1 L620.9,165.6 L621.8,161.3 L622.7,161.3 L623.7,177.8 L624.6,202.5 L625.6,227.5 L626.5,244.6 L627.4,254.9 L628.4,261.7 L629.3,263.5 L630.3,262.0 L631.2,251.3 L632.1,222.0 L633.1,191.5 L634.0,174.4 L634.9,170.7 L635.9,173.2 L636.8,171.0 L637.8,169.2 L638.7,171.0 L639.6,172.6 L640.6,168.9 L641.5,168.3 L642.5,168.0 L643.4,166.8 L644.3,162.8 L645.3,162.2 L646.2,178.4 L647.1,202.8 L648.1,234.8 L649.0,247.9 L650.0,256.5 L650.9,261.0 L651.8,264.1 L652.8,265.6 L653.7,263.2 L654.7,250.7 L655.6,236.9 L656.5,219.9 L657.5,204.9 L658.4,197.3 L659.4,195.5 L660.3,202.2 L661.2,201.9 L662.2,200.9 L663.1,198.5 L664.0,189.7 L665.0,187.5 L665.9,189.4 L666.9,187.2 L667.8,189.4 L668.7,199.7 L669.7,218.3 L670.6,237.3 L671.6,251.3 L672.5,260.4 L673.4,266.2 L674.4,269.0 L675.3,266.2 L676.2,263.2 L677.2,251.9 L678.1,241.8 L679.1,231.8 L680.0,229.6" stroke="#9467bd" stroke-width="2" fill="none" opacity="0.8"/>
<!-- Total Generation -->
<path d="M80.0,211.3 L80.9,230.2 L81.9,243.4 L82.8,229.0 L83.8,246.4 L84.7,250.1 L100.1,235.1 L101.0,221.7 L102.0,226.6 L102.9,226.3 L103.9,241.8 L104.8,211.0 L105.7,212.5 L106.7,210.4 L107.6,216.2 L108.5,233.3 L109.5,240.0 L110.4,240.6 L111.4,250.7 L112.3,241.8 L113.2,236.6 L114.2,231.5 L115.1,235.1 L116.1,225.0 L117.0,228.4 L117.9,239.4 L118.9,231.1 L119.8,235.4 L120.8,226.0 L121.7,234.8 L122.6,229.6 L123.6,234.5 L124.5,207.0 L125.4,232.1 L126.4,249.8 L127.3,218.3 L128.3,246.1 L129.2,223.5 L130.1,225.0 L131.1,222.0 L132.0,234.2 L133.0,245.8 L133.9,227.2 L134.8,218.6 L135.8,215.9 L136.7,219.2 L137.6,229.3 L138.6,218.0 L139.5,208.6 L140.5,210.1 L141.4,204.9 L142.3,209.2 L143.3,208.3 L144.2,210.4 L145.2,207.4 L146.1,203.1 L147.0,206.4 L148.0,212.2 L148.9,218.0 L149.8,208.3 L150.8,211.6 L151.7,219.2 L152.7,215.9 L153.6,221.4 L154.5,230.2 L155.5,229.0 L156.4,210.4 L157.4,226.9 L158.3,241.2 L159.2,238.8 L160.2,225.7 L161.1,228.1 L162.0,225.4 L163.0,211.0 L163.9,209.5 L164.9,207.7 L165.8,208.6 L166.7,204.0 L167.7,204.6 L168.6,203.7 L169.6,198.8 L170.5,206.4 L171.4,221.7 L172.4,214.7 L173.3,220.8 L174.3,214.1 L175.2,215.0 L176.1,213.1 L177.1,230.5 L178.0,246.7 L178.9,252.5 L179.9,256.8 L180.8,261.0 L181.8,257.4 L182.7,247.9 L183.6,227.8 L184.6,228.1 L185.5,232.1 L186.5,214.1 L187.4,216.2 L188.3,214.7 L189.3,216.5 L190.2,216.5 L191.1,211.0 L192.1,196.4 L193.0,203.7 L194.0,207.7 L194.9,177.5 L195.8,172.3 L196.8,179.6 L197.7,168.0 L198.7,175.3 L199.6,205.2 L200.5,208.6 L201.5,217.4 L202.4,232.1 L203.3,237.6 L204.3,239.4 L205.2,225.4 L206.2,233.6 L207.1,233.6 L208.0,228.4 L209.0,222.3 L209.9,232.1 L210.9,202.2 L211.8,201.2 L212.7,201.2 L213.7,205.8 L214.6,205.5 L215.5,206.1 L216.5,208.6 L217.4,193.3 L218.4,171.0 L219.3,190.9 L220.2,207.0 L221.2,230.8 L222.1,229.3 L223.1,254.9 L224.0,259.8 L224.9,259.2 L225.9,231.8 L226.8,233.0 L227.8,217.4 L228.7,224.1 L229.6,206.7 L230.6,204.3 L231.5,200.0 L232.4,207.4 L233.4,202.5 L234.3,210.1 L235.3,204.9 L236.2,211.3 L237.1,209.8 L238.1,207.7 L239.0,196.1 L240.0,178.7 L240.9,169.5 L241.8,175.6 L242.8,189.7 L243.6,206.1 L244.5,229.3 L245.4,226.0 L246.4,233.3 L247.3,236.3 L248.2,237.9 L249.2,233.3 L250.1,225.4 L251.1,214.4 L252.0,219.6 L252.9,206.4 L253.9,212.5 L254.8,194.2 L255.8,209.2 L256.7,197.9 L257.6,195.5 L258.6,202.8 L259.5,214.1 L260.4,193.6 L261.4,196.1 L262.3,153.0 L263.3,147.2 L264.2,142.4 L265.1,154.0 L266.1,208.9 L267.0,221.1 L268.0,225.4 L268.9,236.9 L269.8,241.2 L270.8,247.6 L271.7,231.5 L272.6,241.2 L273.6,250.7 L274.5,244.0 L275.5,235.7 L276.4,222.6 L277.3,208.6 L278.3,214.1 L279.2,219.6 L280.2,195.8 L281.1,191.2 L282.0,202.5 L283.0,219.9 L283.9,218.6 L284.8,231.1 L285.8,225.7 L286.7,228.1 L287.7,226.0 L288.6,234.8 L289.5,254.6 L290.5,255.3 L291.4,245.5 L292.4,262.0 L293.3,259.2 L294.2,244.3 L295.2,244.9 L296.1,244.9 L297.1,255.6 L298.0,250.1 L298.9,242.4 L299.9,238.8 L300.8,240.0 L301.7,243.4 L302.7,216.5 L303.6,215.3 L304.6,187.8 L305.5,199.4 L306.4,217.4 L307.4,236.6 L308.3,235.4 L309.3,236.0 L310.2,236.3 L311.1,227.2 L312.1,217.1 L313.0,241.2 L313.9,244.6 L314.9,251.0 L315.8,251.0 L316.8,244.6 L317.7,240.0 L318.6,235.4 L319.6,225.0 L320.5,222.3 L321.5,216.8 L322.4,207.0 L323.3,233.6 L324.3,223.8 L325.2,190.6 L326.1,214.4 L327.1,201.2 L328.0,204.3 L329.0,225.4 L329.9,230.2 L330.8,246.1 L331.8,245.8 L332.7,247.9 L333.7,250.4 L334.6,264.1 L335.5,262.3 L336.5,246.1 L337.4,247.6 L338.3,247.0 L339.3,247.9 L340.2,245.8 L341.2,226.9 L342.1,222.0 L343.0,216.2 L344.0,210.7 L344.9,219.9 L345.9,203.1 L346.8,205.8 L347.7,217.7 L348.7,218.6 L349.6,204.9 L350.6,220.2 L351.5,237.6 L352.4,229.6 L353.4,230.2 L354.3,250.7 L355.2,252.2 L356.2,247.6 L357.1,261.0 L358.1,254.6 L359.0,246.7 L359.9,244.9 L360.9,238.8 L361.8,243.0 L362.8,231.8 L363.7,216.8 L364.6,214.4 L365.6,215.6 L366.5,214.7 L367.4,208.9 L368.4,204.6 L369.3,208.9 L370.3,190.6 L371.2,184.5 L372.1,190.0 L373.1,213.5 L374.0,229.9 L375.0,242.7 L375.9,226.0 L376.8,229.9 L377.8,242.7 L378.7,244.0 L379.6,261.0 L380.6,260.4 L381.5,260.7 L382.5,260.1 L383.4,259.2 L384.3,258.0 L385.3,246.7 L386.2,228.4 L387.2,223.2 L388.1,225.4 L389.0,219.6 L390.0,219.9 L390.9,219.2 L391.8,202.5 L392.8,187.5 L393.7,174.1 L394.7,184.5 L395.6,200.0 L396.5,186.6 L397.5,185.7 L398.4,179.3 L399.4,183.9 L400.3,207.0 L401.2,212.5 L402.2,217.7 L403.1,226.6 L404.1,227.2 L405.0,233.0 L405.9,226.0 L406.9,228.4 L407.8,213.8 L408.7,190.9 L409.7,190.0 L410.6,189.7 L411.6,186.6 L412.5,186.9 L413.4,219.2 L414.4,240.9 L415.3,226.3 L416.3,234.5 L417.2,228.7 L418.1,239.4 L419.1,244.6 L420.0,238.8 L420.9,245.5 L421.9,243.7 L422.8,248.8 L423.8,261.0 L424.7,263.8 L425.6,272.0 L426.6,273.3 L427.5,277.5 L428.5,274.8 L429.4,275.7 L430.3,269.9 L431.3,248.5 L432.2,238.8 L433.1,241.5 L434.1,237.3 L435.0,224.4 L436.0,218.6 L436.9,207.0 L437.8,188.7 L438.8,180.2 L439.7,198.8 L440.7,209.8 L441.6,221.7 L442.5,247.9 L443.5,264.1 L444.4,263.2 L445.4,252.2 L446.3,252.5 L447.2,246.7 L448.2,228.1 L449.1,222.0 L450.0,208.0 L451.0,179.3 L451.9,173.5 L452.9,174.4 L453.8,174.4 L454.7,166.5 L455.7,171.0 L456.6,178.4 L457.6,175.9 L458.5,175.3 L459.4,150.0 L460.4,155.5 L461.3,155.2 L462.2,174.1 L463.2,188.1 L464.1,222.9 L465.1,230.8 L466.0,241.2 L466.9,251.9 L467.9,262.3 L468.8,259.5 L469.8,258.9 L470.7,255.3 L471.6,252.8 L472.6,254.0 L473.5,261.4 L474.4,264.7 L475.4,260.4 L476.3,254.3 L477.3,247.9 L478.2,244.6 L479.1,237.9 L480.1,239.1 L481.0,236.0 L482.0,234.8 L482.9,232.1 L483.8,226.6 L484.8,229.0 L485.7,244.6 L486.6,243.7 L487.6,222.9 L488.5,219.2 L489.5,223.8 L490.4,238.5 L491.3,269.3 L492.3,288.2 L493.2,291.6 L494.2,292.5 L495.1,292.8 L496.0,292.2 L497.0,292.8 L497.9,284.5 L498.9,264.4 L499.8,257.1 L500.7,254.3 L501.7,256.8 L502.6,257.1 L503.5,256.2 L504.5,259.5 L505.4,260.1 L506.4,239.1 L507.3,233.9 L508.2,232.1 L509.2,218.3 L510.1,218.9 L511.1,240.6 L512.0,258.6 L512.9,289.7 L513.9,277.5 L514.8,294.6 L515.7,293.4 L516.7,291.3 L517.6,286.7 L518.6,275.4 L519.5,256.2 L520.4,244.6 L521.4,217.4 L522.3,197.0 L523.3,169.5 L524.2,192.7 L525.1,180.8 L526.1,200.6 L527.0,202.5 L527.9,202.8 L528.9,231.5 L529.8,264.1 L530.8,262.3 L531.7,263.5 L532.6,258.0 L533.6,255.6 L534.5,234.8 L535.5,209.2 L536.4,243.0 L537.3,202.2 L538.3,209.5 L539.2,237.9 L540.1,225.7 L541.1,206.7 L542.0,210.7 L543.0,233.0 L543.9,224.7 L544.8,218.6 L545.8,223.5 L546.7,228.4 L547.7,195.8 L548.6,208.0 L549.5,193.9 L550.5,189.7 L551.4,190.3 L552.4,237.6 L553.3,268.1 L554.2,283.0 L555.2,281.2 L556.1,285.5 L557.0,265.3 L558.0,264.4 L558.9,266.5 L559.9,288.5 L560.8,287.6 L561.7,287.9 L562.7,288.8 L563.6,276.3 L564.6,267.8 L565.5,262.3 L566.4,258.0 L567.4,252.2 L568.3,237.6 L569.2,239.1 L570.2,207.0 L571.1,214.7 L572.1,216.8 L573.0,200.9 L573.9,204.0 L574.9,208.3 L575.8,220.5 L576.8,197.9 L577.7,222.9 L578.6,200.6 L579.6,220.8 L580.5,261.0 L581.4,267.8 L582.4,262.6 L583.3,266.5 L584.3,257.1 L585.2,241.8 L586.1,249.8 L587.1,249.1 L588.0,224.7 L589.0,215.9 L589.9,230.2 L590.8,230.5 L591.8,232.1 L592.7,226.6 L593.6,223.5 L594.6,204.3 L595.5,220.8 L596.5,234.2 L597.4,232.1 L598.3,225.4 L599.3,224.4 L600.2,219.6 L601.2,236.0 L602.1,245.5 L603.0,245.8 L604.0,244.0 L604.9,255.9 L605.9,258.9 L606.8,250.7 L607.7,254.0 L608.7,258.9 L609.6,244.6 L610.5,204.3 L611.5,225.7 L612.4,222.6 L613.4,199.1 L614.3,229.9 L615.2,234.2 L616.2,223.8 L617.1,230.2 L618.1,230.5 L619.0,226.3 L619.9,230.8 L620.9,229.3 L621.8,236.3 L622.7,242.4 L623.7,236.0 L624.6,247.6 L625.6,238.2 L626.5,248.8 L627.4,259.2 L628.4,260.4 L629.3,261.0 L630.3,258.9 L631.2,259.5 L632.1,240.6 L633.1,229.0 L634.0,229.6 L634.9,220.5 L635.9,218.9 L636.8,236.9 L637.8,236.3 L638.7,221.4 L639.6,215.6 L640.6,218.9 L641.5,190.9 L642.5,251.9 L643.4,265.6 L644.3,265.3 L645.3,276.6 L646.2,273.9 L647.1,264.1 L648.1,259.8 L649.0,265.6 L650.0,277.2 L650.9,279.7 L651.8,282.1 L652.8,279.0 L653.7,275.1 L654.7,270.5 L655.6,265.0 L656.5,261.0 L657.5,261.4 L658.4,257.1 L659.4,254.9 L660.3,256.5 L661.2,254.6 L662.2,265.3 L663.1,279.0 L664.0,268.4 L665.0,262.0 L665.9,276.3 L666.9,277.2 L667.8,284.8 L668.7,283.6 L669.7,287.6 L670.6,284.2 L671.6,276.9 L672.5,282.4 L673.4,283.9 L674.4,281.5 L675.3,273.6 L676.2,275.1 L677.2,279.4 L678.1,265.3 L679.1,244.3 L680.0,259.2" stroke="#8c564b" stroke-width="2" fill="none" opacity="0.8"/>
<!-- Forecast Difference -->
<path d="M80.9,420.0 L81.9,420.0 L82.8,420.0 L83.8,420.0 L84.7,420.0 L101.0,420.0 L102.0,420.0 L102.9,420.0 L103.9,420.0 L104.8,420.0 L105.7,420.0 L106.7,420.0 L107.6,420.0 L108.5,420.0 L109.5,420.0 L110.4,420.0 L111.4,420.0 L112.3,420.0 L113.2,420.0 L114.2,420.0 L115.1,420.0 L116.1,420.0 L117.0,420.0 L117.9,420.0 L118.9,420.0 L119.8,420.0 L120.8,420.0 L121.7,420.0 L122.6,420.0 L123.6,420.0 L124.5,420.0 L125.4,420.0 L126.4,420.0 L127.3,420.0 L128.3,420.0 L129.2,420.0 L130.1,420.0 L131.1,420.0 L132.0,420.0 L133.0,420.0 L133.9,420.0 L134.8,420.0 L135.8,420.0 L136.7,420.0 L137.6,420.0 L138.6,420.0 L139.5,420.0 L140.5,420.0 L141.4,420.0 L142.3,420.0 L143.3,420.0 L144.2,420.0 L145.2,420.0 L146.1,420.0 L147.0,420.0 L148.0,420.0 L148.9,420.0 L149.8,420.0 L150.8,420.0 L151.7,420.0 L152.7,420.0 L153.6,420.0 L154.5,420.0 L155.5,420.0 L156.4,420.0 L157.4,420.0 L158.3,420.0 L159.2,420.0 L160.2,420.0 L161.1,420.0 L162.0,420.0 L163.0,420.0 L163.9,420.0 L164.9,420.0 L165.8,420.0 L166.7,420.0 L167.7,420.0 L168.6,420.0 L169.6,420.0 L170.5,420.0 L171.4,420.0 L172.4,420.0 L173.3,420.0 L174.3,420.0 L175.2,420.0 L176.1,420.0 L177.1,420.0 L178.0,420.0 L178.9,420.0 L179.9,420.0 L180.8,420.0 L181.8,420.0 L182.7,420.0 L183.6,420.0 L184.6,420.0 L185.5,420.0 L186.5,420.0 L187.4,420.0 L188.3,420.0 L189.3,420.0 L190.2,420.0 L191.1,420.0 L192.1,420.0 L193.0,420.0 L194.0,420.0 L194.9,420.0 L195.8,420.0 L196.8,420.0 L197.7,420.0 L198.7,420.0 L199.6,420.0 L200.5,420.0 L201.5,420.0 L202.4,420.0 L203.3,420.0 L204.3,420.0 L205.2,420.0 L206.2,420.0 L207.1,420.0 L208.0,420.0 L209.0,420.0 L209.9,420.0 L210.9,420.0 L211.8,420.0 L212.7,420.0 L213.7,420.0 L214.6,420.0 L215.5,420.0 L216.5,420.0 L217.4,420.0 L218.4,420.0 L219.3,420.0 L220.2,420.0 L221.2,420.0 L222.1,420.0 L223.1,420.0 L224.0,420.0 L224.9,420.0 L225.9,420.0 L226.8,420.0 L227.8,420.0 L228.7,420.0 L229.6,420.0 L230.6,420.0 L231.5,420.0 L232.4,420.0 L233.4,420.0 L234.3,420.0 L235.3,420.0 L236.2,420.0 L237.1,420.0 L238.1,420.0 L239.0,420.0 L240.0,420.0 L240.9,420.0 L241.8,420.0 L242.8,420.0 L243.6,420.0 L244.5,420.0 L245.4,420.0 L246.4,420.0 L247.3,420.0 L248.2,420.0 L249.2,420.0 L250.1,420.0 L251.1,420.0 L252.0,420.0 L252.9,420.0 L253.9,420.0 L254.8,420.0 L255.8,420.0 L256.7,420.0 L257.6,420.0 L258.6,420.0 L259.5,420.0 L260.4,420.0 L261.4,420.0 L262.3,420.0 L263.3,420.0 L264.2,420.0 L265.1,420.0 L266.1,420.0 L267.0,420.0 L268.0,420.0 L268.9,420.0 L269.8,420.0 L270.8,420.0 L271.7,420.0 L272.6,420.0 L273.6,420.0 L274.5,420.0 L275.5,420.0 L276.4,420.0 L277.3,420.0 L278.3,420.0 L279.2,420.0 L280.2,420.0 L281.1,420.0 L282.0,420.0 L283.0,420.0 L283.9,420.0 L284.8,420.0 L285.8,420.0 L286.7,420.0 L287.7,420.0 L288.6,420.0 L289.5,420.0 L290.5,420.0 L291.4,420.0 L292.4,420.0 L293.3,420.0 L294.2,420.0 L295.2,420.0 L296.1,420.0 L297.1,420.0 L298.0,420.0 L298.9,420.0 L299.9,420.0 L300.8,420.0 L301.7,420.0 L302.7,420.0 L303.6,420.0 L304.6,420.0 L305.5,420.0 L306.4,420.0 L307.4,420.0 L308.3,420.0 L309.3,420.0 L310.2,420.0 L311.1,420.0 L312.1,420.0 L313.0,420.0 L313.9,420.0 L314.9,420.0 L315.8,420.0 L316.8,420.0 L317.7,420.0 L318.6,420.0 L319.6,420.0 L320.5,420.0 L321.5,420.0 L322.4,420.0 L323.3,420.0 L324.3,420.0 L325.2,420.0 L326.1,420.0 L327.1,420.0 L328.0,420.0 L329.0,420.0 L329.9,420.0 L330.8,420.0 L331.8,420.0 L332.7,420.0 L333.7,420.0 L334.6,420.0 L335.5,420.0 L336.5,420.0 L337.4,420.0 L338.3,420.0 L339.3,420.0 L340.2,420.0 L341.2,420.0 L342.1,420.0 L343.0,420.0 L344.0,420.0 L344.9,420.0 L345.9,420.0 L346.8,420.0 L347.7,420.0 L348.7,420.0 L349.6,420.0 L350.6,420.0 L351.5,420.0 L352.4,420.0 L353.4,420.0 L354.3,420.0 L355.2,420.0 L356.2,420.0 L357.1,420.0 L358.1,420.0 L359.0,420.0 L359.9,420.0 L360.9,420.0 L361.8,420.0 L362.8,420.0 L363.7,420.0 L364.6,420.0 L365.6,420.0 L366.5,420.0 L367.4,420.0 L368.4,420.0 L369.3,420.0 L370.3,420.0 L371.2,420.0 L372.1,420.0 L373.1,420.0 L374.0,420.0 L375.0,420.0 L375.9,420.0 L376.8,420.0 L377.8,420.0 L378.7,420.0 L379.6,420.0 L380.6,420.0 L381.5,420.0 L382.5,420.0 L383.4,420.0 L384.3,420.0 L385.3,420.0 L386.2,420.0 L387.2,420.0 L388.1,420.0 L389.0,420.0 L390.0,420.0 L390.9,420.0 L391.8,420.0 L392.8,420.0 L393.7,420.0 L394.7,420.0 L395.6,420.0 L396.5,420.0 L397.5,420.0 L398.4,420.0 L399.4,420.0 L400.3,420.0 L401.2,420.0 L402.2,420.0 L403.1,420.0 L404.1,420.0 L405.0,420.0 L405.9,420.0 L406.9,420.0 L407.8,420.0 L408.7,420.0 L409.7,420.0 L410.6,420.0 L411.6,420.0 L412.5,420.0 L413.4,420.0 L414.4,420.0 L415.3,420.0 L416.3,420.0 L417.2,420.0 L418.1,420.0 L419.1,420.0 L420.0,420.0 L420.9,420.0 L421.9,420.0 L422.8,420.0 L423.8,420.0 L424.7,420.0 L425.6,420.0 L426.6,420.0 L427.5,420.0 L428.5,420.0 L429.4,420.0 L430.3,420.0 L431.3,420.0 L432.2,420.0 L433.1,420.0 L434.1,420.0 L435.0,420.0 L436.0,420.0 L436.9,420.0 L437.8,420.0 L438.8,420.0 L439.7,420.0 L440.7,420.0 L441.6,420.0 L442.5,420.0 L443.5,420.0 L444.4,420.0 L445.4,420.0 L446.3,420.0 L447.2,420.0 L448.2,420.0 L449.1,420.0 L450.0,420.0 L451.0,420.0 L451.9,420.0 L452.9,420.0 L453.8,420.0 L454.7,420.0 L455.7,420.0 L456.6,420.0 L457.6,420.0 L458.5,420.0 L459.4,420.0 L460.4,420.0 L461.3,420.0 L462.2,420.0 L463.2,420.0 L464.1,420.0 L465.1,420.0 L466.0,420.0 L466.9,420.0 L467.9,420.0 L468.8,420.0 L469.8,420.0 L470.7,420.0 L471.6,420.0 L472.6,420.0 L473.5,420.0 L474.4,420.0 L475.4,420.0 L476.3,420.0 L477.3,420.0 L478.2,420.0 L479.1,420.0 L480.1,420.0 L481.0,420.0 L482.0,420.0 L482.9,420.0 L483.8,420.0 L484.8,420.0 L485.7,420.0 L486.6,420.0 L487.6,420.0 L488.5,420.0 L489.5,420.0 L490.4,420.0 L491.3,420.0 L492.3,420.0 L493.2,420.0 L494.2,420.0 L495.1,420.0 L496.0,420.0 L497.0,420.0 L497.9,420.0 L498.9,420.0 L499.8,420.0 L500.7,420.0 L501.7,420.0 L502.6,420.0 L503.5,420.0 L504.5,420.0 L505.4,420.0 L506.4,420.0 L507.3,420.0 L508.2,420.0 L509.2,420.0 L510.1,420.0 L511.1,420.0 L512.0,420.0 L512.9,420.0 L513.9,420.0 L514.8,420.0 L515.7,420.0 L516.7,420.0 L517.6,420.0 L518.6,420.0 L519.5,420.0 L520.4,420.0 L521.4,420.0 L522.3,420.0 L523.3,420.0 L524.2,420.0 L525.1,420.0 L526.1,420.0 L527.0,420.0 L527.9,420.0 L528.9,420.0 L529.8,420.0 L530.8,420.0 L531.7,420.0 L532.6,420.0 L533.6,420.0 L534.5,420.0 L535.5,420.0 L536.4,420.0 L537.3,420.0 L538.3,420.0 L539.2,420.0 L540.1,420.0 L541.1,420.0 L542.0,420.0 L543.0,420.0 L543.9,420.0 L544.8,420.0 L545.8,420.0 L546.7,420.0 L547.7,420.0 L548.6,420.0 L549.5,420.0 L550.5,420.0 L551.4,420.0 L552.4,420.0 L553.3,420.0 L554.2,420.0 L555.2,420.0 L556.1,420.0 L557.0,420.0 L558.0,420.0 L558.9,420.0 L559.9,420.0 L560.8,420.0 L561.7,420.0 L562.7,420.0 L563.6,420.0 L564.6,420.0 L565.5,420.0 L566.4,420.0 L567.4,420.0 L568.3,420.0 L569.2,420.0 L570.2,420.0 L571.1,420.0 L572.1,420.0 L573.0,420.0 L573.9,420.0 L574.9,420.0 L575.8,420.0 L576.8,420.0 L577.7,420.0 L578.6,420.0 L579.6,420.0 L580.5,420.0 L581.4,420.0 L582.4,420.0 L583.3,420.0 L584.3,420.0 L585.2,420.0 L586.1,420.0 L587.1,420.0 L588.0,420.0 L589.0,420.0 L589.9,420.0 L590.8,420.0 L591.8,420.0 L592.7,420.0 L593.6,420.0 L594.6,420.0 L595.5,420.0 L596.5,420.0 L597.4,420.0 L598.3,420.0 L599.3,420.0 L600.2,420.0 L601.2,420.0 L602.1,420.0 L603.0,420.0 L604.0,420.0 L604.9,420.0 L605.9,420.0 L606.8,420.0 L607.7,420.0 L608.7,420.0 L609.6,420.0 L610.5,420.0 L611.5,420.0 L612.4,420.0 L613.4,420.0 L614.3,420.0 L615.2,420.0 L616.2,420.0 L617.1,420.0 L618.1,420.0 L619.0,420.0 L619.9,420.0 L620.9,420.0 L621.8,420.0 L622.7,420.0 L623.7,420.0 L624.6,420.0 L625.6,420.0 L626.5,420.0 L627.4,420.0 L628.4,420.0 L629.3,420.0 L630.3,420.0 L631.2,420.0 L632.1,420.0 L633.1,420.0 L634.0,420.0 L634.9,420.0 L635.9,420.0 L636.8,420.0 L637.8,420.0 L638.7,420.0 L639.6,420.0 L640.6,420.0 L641.5,420.0 L642.5,420.0 L643.4,420.0 L644.3,420.0 L645.3,420.0 L646.2,420.0 L647.1,420.0 L648.1,420.0 L649.0,420.0 L650.0,420.0 L650.9,420.0 L651.8,420.0 L652.8,420.0 L653.7,420.0 L654.7,420.0 L655.6,420.0 L656.5,420.0 L657.5,420.0 L658.4,420.0 L659.4,420.0 L660.3,420.0 L661.2,420.0 L662.2,420.0 L663.1,420.0 L664.0,420.0 L665.0,420.0 L665.9,420.0 L666.9,420.0 L667.8,420.0 L668.7,420.0 L669.7,420.0 L670.6,420.0 L671.6,420.0 L672.5,420.0 L673.4,420.0 L674.4,420.0 L675.3,420.0 L676.2,420.0 L677.2,420.0 L678.1,420.0 L679.1,420.0 L680.0,420.0" stroke="#e377c2" stroke-width="2" fill="none" opacity="0.8"/>

<!-- Legend -->
<line x1="690" y1="70" x2="705" y2="70" stroke="#1f77b4" stroke-width="3"/>
<text x="710" y="74" class="legend">Wind Generation</text>
<line x1="690" y1="88" x2="705" y2="88" stroke="#ff7f0e" stroke-width="3"/>
<text x="710" y="92" class="legend">Hydro Generation</text>
<line x1="690" y1="106" x2="705" y2="106" stroke="#2ca02c" stroke-width="3"/>
<text x="710" y="110" class="legend">Thermal Generation</text>
<line x1="690" y1="124" x2="705" y2="124" stroke="#d62728" stroke-width="3"/>
<text x="710" y="128" class="legend">Solar Generation</text>
<line x1="690" y1="142" x2="705" y2="142" stroke="#9467bd" stroke-width="3"/>
<text x="710" y="146" class="legend">Forecast</text>
<line x1="690" y1="160" x2="705" y2="160" stroke="#8c564b" stroke-width="3"/>
<text x="710" y="164" class="legend">Total Generation</text>
<line x1="690" y1="178" x2="705" y2="178" stroke="#e377c2" stroke-width="3"/>
<text x="710" y="182" class="legend">Forecast Difference</text>

<!-- Date range -->
<text x="80" y="495" class="legend">Range: 08/18 - 09/14/2025 (625 records)</text>
</svg>