<?xml version="1.0" encoding="UTF-8"?>
<svg width="800" height="500" xmlns="http://www.w3.org/2000/svg">
<style>
.axis-line { stroke: #333; stroke-width: 1; }
.grid-line { stroke: #ddd; stroke-width: 0.5; }
.title { font: 16px Arial; text-anchor: middle; fill: #333; }
.axis-label { font: 12px Arial; text-anchor: middle; fill: #666; }
.legend { font: 10px Arial; fill: #333; }
</style>

<!-- Title -->
<text x="400.0" y="25" class="title">Northwestern Energy Generation Data - Past 30 Days</text>

<!-- Plot area background -->
<rect x="80" y="50" width="600" height="370" fill="white" stroke="#ddd"/>

<!-- Y-axis -->
<line x1="80" y1="50" x2="80" y2="420" class="axis-line"/>
<text x="30" y="235.0" class="axis-label" transform="rotate(-90, 30, 235.0)">Generation (MW)</text>

<!-- X-axis -->
<line x1="80" y1="420" x2="680" y2="420" class="axis-line"/>
<text x="380.0" y="480" class="axis-label">Time</text>
<line x1="80" y1="420.0" x2="680" y2="420.0" class="grid-line"/>
<text x="70" y="425.0" class="legend" text-anchor="end">0</text>
<line x1="80" y1="327.5" x2="680" y2="327.5" class="grid-line"/>
<text x="70" y="332.5" class="legend" text-anchor="end">311</text>
<line x1="80" y1="235.0" x2="680" y2="235.0" class="grid-line"/>
<text x="70" y="240.0" class="legend" text-anchor="end">622</text>
<line x1="80" y1="142.5" x2="680" y2="142.5" class="grid-line"/>
<text x="70" y="147.5" class="legend" text-anchor="end">933</text>
<line x1="80" y1="50.0" x2="680" y2="50.0" class="grid-line"/>
<text x="70" y="55.0" class="legend" text-anchor="end">1244</text>
<!-- Wind Generation -->
<path d="M80.0,378.4 L80.8,391.5 L81.7,408.7 L82.5,388.8 L83.4,396.5 L84.2,386.1 L85.0,407.5 L85.9,408.1 L86.7,409.0 L87.6,402.5 L88.4,393.5 L89.3,391.2 L90.1,389.1 L90.9,388.2 L91.8,392.6 L92.6,394.4 L93.5,389.7 L94.3,398.0 L95.1,393.2 L96.0,404.2 L96.8,401.9 L97.7,396.8 L98.5,399.5 L99.4,400.7 L100.2,398.9 L101.0,374.5 L101.9,375.1 L102.7,380.5 L103.6,374.2 L104.4,378.1 L105.2,384.0 L106.1,391.8 L106.9,397.7 L107.8,406.6 L108.6,408.1 L109.5,392.3 L110.3,384.6 L111.1,379.3 L112.0,387.9 L112.8,393.5 L113.7,395.0 L114.5,386.1 L115.3,391.2 L116.2,395.9 L117.0,379.6 L117.9,374.5 L118.7,331.7 L119.6,326.6 L120.4,330.2 L121.2,340.0 L122.1,347.4 L122.9,346.0 L123.8,351.0 L124.6,366.8 L125.4,373.9 L126.3,370.9 L127.1,371.5 L128.0,388.8 L128.8,394.1 L129.6,392.6 L130.5,384.9 L131.3,383.4 L132.2,376.3 L133.0,384.0 L133.9,379.6 L134.7,377.5 L135.5,370.9 L136.4,383.1 L137.2,385.8 L138.1,387.3 L138.9,399.5 L139.7,406.9 L140.6,409.9 L141.4,402.8 L142.3,403.6 L143.1,407.2 L144.0,410.8 L144.8,411.4 L145.6,417.6 L146.5,420.0 L147.3,420.0 L148.2,420.0 L149.0,420.0 L149.8,418.2 L150.7,419.1 L151.5,418.5 L152.4,418.8 L153.2,419.4 L154.1,420.0 L154.9,420.0 L155.7,417.0 L156.6,415.2 L157.4,411.1 L158.3,406.6 L159.1,401.3 L159.9,387.9 L160.8,395.6 L161.6,393.2 L162.5,384.0 L163.3,367.4 L164.2,376.9 L165.0,389.4 L165.8,387.3 L166.7,403.9 L167.5,413.8 L168.4,419.1 L169.2,417.6 L170.0,416.7 L170.9,414.9 L171.7,414.4 L172.6,419.7 L173.4,413.2 L174.2,414.9 L175.1,414.6 L175.9,414.4 L176.8,404.5 L177.6,409.0 L178.5,392.6 L179.3,344.2 L180.1,330.2 L181.0,348.3 L181.8,358.1 L182.7,321.6 L183.5,307.0 L184.3,315.0 L185.2,327.8 L186.0,334.7 L186.9,335.8 L187.7,340.6 L188.6,323.7 L189.4,326.9 L190.2,330.8 L191.1,329.9 L191.9,333.8 L192.8,336.1 L193.6,334.4 L194.4,356.7 L195.3,366.8 L196.1,378.1 L197.0,398.6 L197.8,403.3 L198.7,398.3 L199.5,401.0 L200.3,403.6 L201.2,406.6 L202.0,402.2 L202.9,382.2 L203.7,365.9 L204.5,372.7 L205.4,387.6 L206.2,364.7 L207.1,354.3 L207.9,362.3 L208.8,354.3 L209.6,349.2 L210.4,344.5 L211.3,338.2 L212.1,352.8 L213.0,355.8 L213.8,356.7 L214.6,364.1 L215.5,367.7 L216.3,356.1 L217.2,347.1 L218.0,368.9 L218.8,362.9 L219.7,365.0 L220.5,364.4 L221.4,373.0 L222.2,360.2 L223.1,365.9 L223.9,381.6 L224.7,390.0 L225.6,395.0 L226.4,401.9 L227.3,405.7 L228.1,407.5 L228.9,407.5 L229.8,410.2 L230.6,410.8 L231.5,401.9 L232.3,403.3 L233.2,405.1 L234.0,406.9 L234.8,413.2 L235.7,412.0 L236.5,405.4 L237.4,407.2 L238.2,408.1 L239.0,403.6 L239.9,402.2 L240.7,398.9 L241.6,390.6 L242.4,383.1 L243.3,363.8 L244.1,347.4 L244.9,333.5 L245.8,340.6 L246.6,343.6 L247.5,357.9 L248.3,378.1 L249.1,388.8 L250.0,393.2 L250.8,399.8 L251.7,398.0 L252.5,401.0 L253.4,403.6 L254.2,407.2 L255.0,415.2 L255.9,415.2 L256.7,415.2 L257.6,413.8 L258.4,409.9 L259.2,399.5 L260.1,392.0 L260.9,387.3 L261.8,383.7 L262.6,394.7 L263.5,391.5 L264.3,391.5 L265.1,398.6 L266.0,412.9 L266.8,415.5 L267.7,413.2 L268.5,399.2 L269.3,392.3 L270.2,376.3 L271.0,361.7 L271.9,365.9 L272.7,357.9 L273.5,361.1 L274.4,348.9 L275.2,329.3 L276.1,354.9 L276.9,339.1 L277.8,355.8 L278.6,351.9 L279.4,354.6 L280.3,362.3 L281.1,360.5 L282.0,365.3 L282.8,356.7 L283.6,323.7 L284.5,330.2 L285.3,337.0 L286.2,338.8 L287.0,365.3 L287.9,365.0 L288.7,359.0 L289.5,364.7 L290.4,363.8 L291.2,348.0 L292.1,364.1 L292.9,369.7 L293.7,369.4 L294.6,358.7 L295.4,353.7 L296.3,341.5 L297.1,354.9 L298.0,353.7 L298.8,350.4 L299.6,356.4 L300.5,370.9 L301.3,377.5 L302.2,382.2 L303.0,376.0 L303.8,384.9 L304.7,372.1 L305.5,359.9 L306.4,358.4 L307.2,367.7 L308.1,387.9 L308.9,399.5 L309.7,414.9 L310.6,410.8 L311.4,407.2 L312.3,407.8 L313.1,384.6 L313.9,368.6 L314.8,378.4 L315.6,394.7 L316.5,409.0 L317.3,411.1 L318.1,415.8 L319.0,414.6 L319.8,414.1 L320.7,409.0 L321.5,410.5 L322.4,412.6 L323.2,403.6 L324.0,391.8 L324.9,374.8 L325.7,354.6 L326.6,358.1 L327.4,357.6 L328.2,365.6 L329.1,391.2 L329.9,410.2 L330.8,417.3 L331.6,420.0 L332.5,420.0 L333.3,420.0 L334.1,419.4 L335.0,417.9 L335.8,417.9 L336.7,417.6 L337.5,416.1 L338.3,409.3 L339.2,409.6 L340.0,413.5 L340.9,412.9 L341.7,411.7 L342.6,407.2 L343.4,403.6 L344.2,393.2 L345.1,390.3 L345.9,390.9 L346.8,399.8 L347.6,409.3 L348.4,418.2 L349.3,409.3 L350.1,413.8 L351.0,415.8 L351.8,411.4 L352.7,409.6 L353.5,410.8 L354.3,409.3 L355.2,409.9 L356.0,414.6 L356.9,417.0 L357.7,413.2 L358.5,403.3 L359.4,393.8 L360.2,392.3 L361.1,372.1 L361.9,353.1 L362.7,355.8 L363.6,352.2 L364.4,373.9 L365.3,373.3 L366.1,353.4 L367.0,325.4 L367.8,315.9 L368.6,327.8 L369.5,349.2 L370.3,344.5 L371.2,349.5 L372.0,332.9 L372.8,338.8 L373.7,352.5 L374.5,356.4 L375.4,364.1 L376.2,361.4 L377.1,390.0 L377.9,395.3 L378.7,395.9 L379.6,404.2 L380.4,401.9 L381.3,399.5 L382.1,406.9 L382.9,401.6 L383.8,417.3 L384.6,404.2 L385.5,400.7 L386.3,405.4 L387.2,396.8 L388.0,407.8 L388.8,411.4 L389.7,418.5 L390.5,419.4 L391.4,419.1 L392.2,412.9 L393.0,384.9 L393.9,387.9 L394.7,339.4 L395.6,344.2 L396.4,357.6 L397.3,332.9 L398.1,335.3 L398.9,326.9 L399.8,332.6 L400.6,353.7 L401.5,334.1 L402.3,360.8 L403.1,358.4 L404.0,352.2 L404.8,313.2 L405.7,328.1 L406.5,324.5 L407.3,319.2 L408.2,309.7 L409.0,325.4 L409.9,335.3 L410.7,325.4 L411.6,316.8 L412.4,311.2 L413.2,316.5 L414.1,302.8 L414.9,306.4 L415.8,311.2 L416.6,309.1 L417.4,346.6 L418.3,344.2 L419.1,334.7 L420.0,314.4 L420.8,324.0 L421.7,317.1 L422.5,319.5 L423.3,312.9 L424.2,321.3 L425.0,310.9 L425.9,334.1 L426.7,343.9 L427.5,348.0 L428.4,356.4 L429.2,358.4 L430.1,358.4 L430.9,340.0 L431.8,343.9 L432.6,359.0 L433.4,336.4 L434.3,358.1 L435.1,339.7 L436.0,343.0 L436.8,358.7 L437.6,389.4 L438.5,388.2 L439.3,373.3 L440.2,378.1 L441.0,376.9 L441.9,333.5 L442.7,357.0 L443.5,348.0 L444.4,373.6 L445.2,348.6 L446.1,383.7 L446.9,376.0 L447.7,338.2 L448.6,351.9 L449.4,340.3 L450.3,345.1 L451.1,335.8 L451.9,330.8 L452.8,340.3 L453.6,352.5 L454.5,323.7 L455.3,337.3 L456.2,332.0 L457.0,343.6 L457.8,337.9 L458.7,321.0 L459.5,340.3 L460.4,337.9 L461.2,351.0 L462.0,367.1 L462.9,386.7 L463.7,390.6 L464.6,379.3 L465.4,359.3 L466.3,338.2 L467.1,337.9 L467.9,348.6 L468.8,343.3 L469.6,333.5 L470.5,326.3 L471.3,344.5 L472.1,359.3 L473.0,367.7 L473.8,350.7 L474.7,339.4 L475.5,352.5 L476.4,358.4 L477.2,353.7 L478.0,355.8 L478.9,361.1 L479.7,365.6 L480.6,354.0 L481.4,369.2 L482.2,337.9 L483.1,349.8 L483.9,374.2 L484.8,345.7 L485.6,346.8 L486.5,368.6 L487.3,357.6 L488.1,380.2 L489.0,388.8 L489.8,394.4 L490.7,390.9 L491.5,390.0 L492.3,376.6 L493.2,356.4 L494.0,355.5 L494.9,343.9 L495.7,341.5 L496.5,339.4 L497.4,367.4 L498.2,338.2 L499.1,364.7 L499.9,365.6 L500.8,368.0 L501.6,363.2 L502.4,361.1 L503.3,364.7 L504.1,366.5 L505.0,367.4 L505.8,381.9 L506.6,399.2 L507.5,399.5 L508.3,406.9 L509.2,411.7 L510.0,413.2 L510.9,401.9 L511.7,390.3 L512.5,396.2 L513.4,389.1 L514.2,377.5 L515.1,383.1 L515.9,363.5 L516.7,395.6 L517.6,392.6 L518.4,386.1 L519.3,386.7 L520.1,390.6 L521.0,385.8 L521.8,367.1 L522.6,379.3 L523.5,368.9 L524.3,363.2 L525.2,363.5 L526.0,369.2 L526.8,386.7 L527.7,401.6 L528.5,410.5 L529.4,408.7 L530.2,398.9 L531.1,395.6 L531.9,393.8 L532.7,390.9 L533.6,369.7 L534.4,364.4 L535.3,357.0 L536.1,374.2 L536.9,380.2 L537.8,382.5 L538.6,386.4 L539.5,385.2 L540.3,395.0 L541.2,390.3 L542.0,374.2 L542.8,367.7 L543.7,362.6 L544.5,370.3 L545.4,395.3 L546.2,409.3 L547.0,414.6 L547.9,417.9 L548.7,412.3 L549.6,417.6 L550.4,417.9 L551.2,415.5 L552.1,411.1 L552.9,397.7 L553.8,399.8 L554.6,401.3 L555.5,402.2 L556.3,402.5 L557.1,403.3 L558.0,409.9 L558.8,419.7 L559.7,420.0 L560.5,418.5 L561.3,414.4 L562.2,411.7 L563.0,408.1 L563.9,401.6 L564.7,380.2 L565.6,370.9 L566.4,370.6 L567.2,406.6 L568.1,404.5 L568.9,389.4 L569.8,397.1 L570.6,401.6 L571.4,400.7 L572.3,406.6 L573.1,411.7 L574.0,398.6 L574.8,391.5 L575.7,388.8 L576.5,396.2 L577.3,389.1 L578.2,378.4 L579.0,367.4 L579.9,351.9 L580.7,345.4 L581.5,345.1 L582.4,401.9 L583.2,367.4 L584.1,351.6 L584.9,354.0 L585.8,355.2 L586.6,354.9 L587.4,328.7 L588.3,299.9 L589.1,300.2 L590.0,305.8 L590.8,310.0 L591.6,308.5 L592.5,317.1 L593.3,323.4 L594.2,316.2 L595.0,324.5 L595.8,324.0 L596.7,332.0 L597.5,334.1 L598.4,353.4 L599.2,365.9 L600.1,366.8 L600.9,354.3 L601.7,377.5 L602.6,380.2 L603.4,379.9 L604.3,360.5 L605.1,389.4 L605.9,384.3 L606.8,385.5 L607.6,343.3 L608.5,370.3 L609.3,373.6 L610.2,356.4 L611.0,362.6 L611.8,378.7 L612.7,370.6 L613.5,345.7 L614.4,340.6 L615.2,330.2 L616.0,332.9 L616.9,328.4 L617.7,317.1 L618.6,312.1 L619.4,323.7 L620.3,337.6 L621.1,339.7 L621.9,343.9 L622.8,357.0 L623.6,342.4 L624.5,322.2 L625.3,333.2 L626.1,328.4 L627.0,331.7 L627.8,341.8 L628.7,348.3 L629.5,345.4 L630.4,342.4 L631.2,366.2 L632.0,394.4 L632.9,397.7 L633.7,387.0 L634.6,381.6 L635.4,382.8 L636.2,387.0 L637.1,395.6 L637.9,403.6 L638.8,415.5 L639.6,409.6 L640.4,404.2 L641.3,410.2 L642.1,405.7 L643.0,397.4 L643.8,398.9 L644.7,403.9 L645.5,410.2 L646.3,407.8 L647.2,409.3 L648.0,407.8 L648.9,388.5 L649.7,387.6 L650.5,385.5 L651.4,379.3 L652.2,371.8 L653.1,375.7 L653.9,383.7 L654.8,394.4 L655.6,405.7 L656.4,412.3 L657.3,414.9 L658.1,404.2 L659.0,395.3 L659.8,392.0 L660.6,385.5 L661.5,373.0 L662.3,401.3 L663.2,406.0 L664.0,400.7 L664.9,403.3 L665.7,402.2 L666.5,373.9 L667.4,378.7 L668.2,375.4 L669.1,376.0 L669.9,372.7 L670.7,369.7 L671.6,379.0 L672.4,387.0 L673.3,394.7 L674.1,404.2 L675.0,412.3 L675.8,409.0 L676.6,412.6 L677.5,414.4 L678.3,417.0 L679.2,416.4 L680.0,417.6" stroke="#1f77b4" stroke-width="2" fill="none" opacity="0.8"/>
<!-- Hydro Generation -->
<path d="M80.0,343.0 L80.8,332.3 L81.7,332.3 L82.5,333.8 L83.4,331.7 L84.2,331.4 L85.0,330.5 L85.9,329.9 L86.7,329.6 L87.6,330.5 L88.4,330.8 L89.3,330.2 L90.1,330.5 L90.9,330.5 L91.8,330.2 L92.6,330.2 L93.5,330.2 L94.3,330.2 L95.1,330.5 L96.0,330.2 L96.8,330.5 L97.7,329.3 L98.5,329.6 L99.4,328.4 L100.2,328.7 L101.0,327.5 L101.9,328.1 L102.7,327.8 L103.6,327.8 L104.4,327.5 L105.2,327.2 L106.1,327.8 L106.9,328.1 L107.8,328.1 L108.6,328.1 L109.5,328.4 L110.3,329.0 L111.1,328.7 L112.0,329.0 L112.8,329.0 L113.7,329.0 L114.5,329.6 L115.3,329.6 L116.2,330.2 L117.0,330.2 L117.9,331.1 L118.7,330.8 L119.6,330.8 L120.4,331.1 L121.2,330.8 L122.1,331.4 L122.9,331.4 L123.8,331.7 L124.6,331.7 L125.4,331.4 L126.3,331.7 L127.1,331.1 L128.0,330.8 L128.8,331.1 L129.6,329.9 L130.5,330.2 L131.3,330.2 L132.2,330.2 L133.0,330.2 L133.9,320.4 L134.7,329.0 L135.5,328.7 L136.4,332.0 L137.2,328.7 L138.1,328.4 L138.9,328.4 L139.7,329.0 L140.6,329.0 L141.4,330.2 L142.3,329.9 L143.1,329.3 L144.0,329.6 L144.8,329.9 L145.6,329.6 L146.5,329.6 L147.3,329.9 L148.2,329.9 L149.0,329.9 L149.8,329.9 L150.7,329.6 L151.5,329.9 L152.4,329.9 L153.2,329.9 L154.1,329.9 L154.9,329.6 L155.7,329.6 L156.6,329.0 L157.4,328.7 L158.3,327.8 L159.1,328.1 L159.9,327.8 L160.8,327.8 L161.6,328.1 L162.5,327.8 L163.3,328.1 L164.2,328.1 L165.0,327.8 L165.8,328.4 L166.7,328.1 L167.5,328.1 L168.4,328.1 L169.2,327.8 L170.0,328.1 L170.9,328.1 L171.7,328.1 L172.6,327.5 L173.4,327.5 L174.2,327.2 L175.1,326.9 L175.9,328.4 L176.8,328.4 L177.6,327.5 L178.5,327.2 L179.3,326.6 L180.1,327.2 L181.0,325.1 L181.8,322.5 L182.7,322.5 L183.5,322.8 L184.3,322.5 L185.2,321.9 L186.0,322.5 L186.9,322.5 L187.7,322.2 L188.6,322.5 L189.4,323.7 L190.2,323.7 L191.1,324.5 L191.9,325.1 L192.8,325.4 L193.6,325.7 L194.4,324.8 L195.3,324.8 L196.1,324.8 L197.0,324.8 L197.8,324.8 L198.7,324.8 L199.5,324.8 L200.3,325.1 L201.2,325.4 L202.0,325.4 L202.9,325.1 L203.7,325.4 L204.5,324.5 L205.4,324.2 L206.2,324.2 L207.1,324.5 L207.9,324.5 L208.8,324.5 L209.6,324.5 L210.4,325.4 L211.3,326.3 L212.1,326.3 L213.0,326.0 L213.8,326.0 L214.6,326.0 L215.5,326.3 L216.3,326.0 L217.2,326.3 L218.0,326.0 L218.8,326.0 L219.7,325.7 L220.5,326.0 L221.4,326.3 L222.2,326.3 L223.1,326.3 L223.9,325.4 L224.7,325.4 L225.6,325.4 L226.4,325.4 L227.3,325.4 L228.1,325.4 L228.9,325.4 L229.8,325.4 L230.6,325.4 L231.5,325.4 L232.3,325.4 L233.2,326.3 L234.0,326.6 L234.8,326.6 L235.7,326.3 L236.5,326.9 L237.4,326.6 L238.2,326.6 L239.0,326.6 L239.9,326.9 L240.7,326.9 L241.6,326.9 L242.4,326.9 L243.3,326.9 L244.1,326.9 L244.9,326.9 L245.8,326.9 L246.6,326.6 L247.5,326.9 L248.3,326.6 L249.1,326.9 L250.0,326.9 L250.8,326.6 L251.7,326.6 L252.5,326.9 L253.4,326.6 L254.2,324.8 L255.0,342.4 L255.9,342.1 L256.7,342.4 L257.6,342.1 L258.4,342.1 L259.2,341.5 L260.1,341.2 L260.9,340.9 L261.8,341.2 L262.6,340.9 L263.5,340.9 L264.3,340.6 L265.1,340.9 L266.0,340.9 L266.8,340.0 L267.7,340.0 L268.5,340.0 L269.3,340.3 L270.2,340.3 L271.0,340.3 L271.9,340.9 L272.7,340.6 L273.5,340.3 L274.4,340.6 L275.2,341.2 L276.1,381.9 L276.9,383.1 L277.8,382.8 L278.6,381.9 L279.4,382.2 L280.3,382.2 L281.1,382.2 L282.0,381.9 L282.8,382.2 L283.6,341.2 L284.5,340.9 L285.3,340.9 L286.2,342.1 L287.0,342.4 L287.9,343.6 L288.7,343.6 L289.5,343.6 L290.4,343.6 L291.2,343.6 L292.1,343.0 L292.9,342.4 L293.7,341.8 L294.6,342.4 L295.4,342.7 L296.3,342.4 L297.1,342.7 L298.0,342.4 L298.8,342.4 L299.6,342.1 L300.5,342.1 L301.3,342.4 L302.2,342.4 L303.0,342.7 L303.8,342.7 L304.7,342.7 L305.5,343.0 L306.4,342.7 L307.2,343.0 L308.1,343.0 L308.9,343.0 L309.7,343.0 L310.6,343.3 L311.4,343.0 L312.3,343.0 L313.1,342.7 L313.9,342.7 L314.8,342.7 L315.6,343.6 L316.5,343.0 L317.3,344.2 L318.1,344.2 L319.0,343.6 L319.8,343.6 L320.7,344.2 L321.5,342.1 L322.4,342.1 L323.2,342.1 L324.0,342.4 L324.9,342.4 L325.7,342.4 L326.6,342.4 L327.4,342.1 L328.2,342.1 L329.1,342.4 L329.9,342.1 L330.8,342.7 L331.6,342.7 L332.5,343.3 L333.3,343.3 L334.1,342.4 L335.0,342.7 L335.8,342.7 L336.7,344.8 L337.5,344.5 L338.3,344.5 L339.2,344.5 L340.0,345.1 L340.9,345.1 L341.7,345.1 L342.6,344.5 L343.4,343.6 L344.2,343.9 L345.1,343.3 L345.9,343.3 L346.8,343.6 L347.6,343.3 L348.4,343.3 L349.3,343.3 L350.1,343.3 L351.0,343.3 L351.8,343.3 L352.7,343.6 L353.5,343.3 L354.3,343.6 L355.2,343.9 L356.0,344.8 L356.9,344.8 L357.7,344.5 L358.5,344.2 L359.4,344.5 L360.2,343.9 L361.1,343.3 L361.9,343.6 L362.7,342.4 L363.6,342.1 L364.4,342.1 L365.3,342.7 L366.1,342.7 L367.0,342.7 L367.8,342.7 L368.6,342.7 L369.5,342.7 L370.3,342.7 L371.2,342.4 L372.0,342.7 L372.8,342.4 L373.7,342.4 L374.5,342.7 L375.4,343.6 L376.2,343.9 L377.1,343.9 L377.9,343.9 L378.7,343.6 L379.6,342.4 L380.4,342.4 L381.3,342.4 L382.1,341.5 L382.9,341.8 L383.8,341.5 L384.6,341.5 L385.5,341.8 L386.3,342.4 L387.2,342.7 L388.0,342.7 L388.8,342.7 L389.7,341.5 L390.5,341.5 L391.4,341.8 L392.2,340.9 L393.0,340.9 L393.9,340.9 L394.7,340.6 L395.6,342.1 L396.4,342.4 L397.3,342.1 L398.1,341.2 L398.9,354.0 L399.8,353.7 L400.6,353.4 L401.5,353.4 L402.3,353.4 L403.1,353.7 L404.0,354.0 L404.8,353.4 L405.7,340.6 L406.5,340.9 L407.3,340.9 L408.2,341.2 L409.0,340.9 L409.9,340.9 L410.7,341.2 L411.6,340.9 L412.4,340.9 L413.2,340.9 L414.1,341.2 L414.9,340.3 L415.8,342.1 L416.6,344.8 L417.4,344.8 L418.3,344.8 L419.1,345.1 L420.0,344.2 L420.8,344.5 L421.7,344.2 L422.5,344.8 L423.3,345.1 L424.2,345.4 L425.0,345.1 L425.9,345.4 L426.7,345.1 L427.5,344.8 L428.4,345.4 L429.2,344.5 L430.1,344.2 L430.9,344.2 L431.8,344.5 L432.6,343.9 L433.4,343.9 L434.3,344.2 L435.1,343.0 L436.0,343.3 L436.8,343.6 L437.6,343.9 L438.5,344.2 L439.3,344.2 L440.2,344.5 L441.0,344.2 L441.9,344.8 L442.7,344.2 L443.5,345.1 L444.4,345.4 L445.2,345.1 L446.1,345.7 L446.9,345.4 L447.7,345.7 L448.6,346.8 L449.4,346.6 L450.3,346.8 L451.1,345.4 L451.9,345.1 L452.8,344.8 L453.6,343.9 L454.5,343.9 L455.3,343.3 L456.2,343.3 L457.0,343.6 L457.8,343.3 L458.7,343.3 L459.5,343.3 L460.4,343.3 L461.2,344.5 L462.0,343.9 L462.9,343.9 L463.7,343.9 L464.6,343.9 L465.4,346.6 L466.3,348.0 L467.1,348.0 L467.9,348.6 L468.8,348.6 L469.6,348.3 L470.5,346.8 L471.3,346.3 L472.1,346.6 L473.0,346.0 L473.8,346.0 L474.7,346.0 L475.5,345.7 L476.4,346.0 L477.2,345.7 L478.0,345.4 L478.9,345.4 L479.7,344.2 L480.6,344.2 L481.4,343.9 L482.2,344.5 L483.1,344.2 L483.9,344.5 L484.8,344.8 L485.6,332.6 L486.5,332.9 L487.3,333.2 L488.1,332.6 L489.0,332.3 L489.8,332.3 L490.7,332.0 L491.5,332.0 L492.3,332.6 L493.2,332.6 L494.0,332.6 L494.9,332.6 L495.7,332.9 L496.5,332.9 L497.4,332.6 L498.2,332.6 L499.1,332.3 L499.9,332.3 L500.8,332.6 L501.6,358.1 L502.4,364.7 L503.3,364.4 L504.1,364.7 L505.0,365.6 L505.8,351.6 L506.6,332.3 L507.5,332.9 L508.3,333.2 L509.2,333.2 L510.0,333.5 L510.9,333.5 L511.7,333.5 L512.5,332.9 L513.4,332.6 L514.2,332.0 L515.1,332.0 L515.9,332.0 L516.7,332.3 L517.6,332.3 L518.4,332.3 L519.3,353.4 L520.1,353.4 L521.0,353.7 L521.8,353.4 L522.6,353.7 L523.5,353.7 L524.3,353.7 L525.2,333.2 L526.0,332.9 L526.8,332.9 L527.7,333.8 L528.5,333.8 L529.4,333.5 L530.2,333.8 L531.1,333.8 L531.9,333.8 L532.7,333.8 L533.6,333.8 L534.4,333.8 L535.3,333.8 L536.1,333.8 L536.9,334.4 L537.8,335.5 L538.6,337.0 L539.5,338.8 L540.3,337.3 L541.2,337.3 L542.0,337.0 L542.8,337.3 L543.7,336.7 L544.5,335.3 L545.4,335.3 L546.2,335.0 L547.0,335.3 L547.9,335.8 L548.7,335.5 L549.6,335.8 L550.4,335.8 L551.2,335.8 L552.1,335.8 L552.9,335.8 L553.8,335.8 L554.6,335.8 L555.5,335.5 L556.3,335.8 L557.1,335.8 L558.0,335.5 L558.8,335.5 L559.7,335.5 L560.5,336.1 L561.3,336.7 L562.2,340.0 L563.0,337.3 L563.9,337.3 L564.7,337.3 L565.6,337.3 L566.4,337.3 L567.2,336.7 L568.1,336.7 L568.9,336.7 L569.8,337.0 L570.6,337.0 L571.4,337.0 L572.3,337.0 L573.1,336.7 L574.0,336.7 L574.8,336.7 L575.7,336.4 L576.5,337.0 L577.3,336.7 L578.2,335.5 L579.0,335.5 L579.9,337.9 L580.7,336.1 L581.5,335.8 L582.4,335.8 L583.2,336.1 L584.1,335.8 L584.9,336.1 L585.8,336.1 L586.6,335.8 L587.4,336.4 L588.3,336.4 L589.1,337.6 L590.0,336.7 L590.8,337.0 L591.6,337.9 L592.5,337.9 L593.3,337.9 L594.2,337.9 L595.0,338.2 L595.8,338.2 L596.7,337.6 L597.5,337.6 L598.4,337.0 L599.2,336.7 L600.1,336.7 L600.9,336.7 L601.7,336.1 L602.6,336.7 L603.4,336.7 L604.3,336.7 L605.1,336.7 L605.9,335.5 L606.8,335.5 L607.6,335.5 L608.5,335.5 L609.3,335.5 L610.2,335.3 L611.0,335.5 L611.8,335.5 L612.7,335.3 L613.5,335.5 L614.4,335.5 L615.2,335.5 L616.0,336.1 L616.9,336.1 L617.7,336.7 L618.6,336.1 L619.4,336.4 L620.3,338.2 L621.1,336.1 L621.9,336.1 L622.8,336.4 L623.6,335.8 L624.5,336.4 L625.3,336.1 L626.1,335.0 L627.0,334.7 L627.8,335.0 L628.7,334.1 L629.5,334.1 L630.4,332.6 L631.2,332.9 L632.0,332.6 L632.9,332.6 L633.7,331.7 L634.6,332.0 L635.4,331.7 L636.2,331.7 L637.1,331.4 L637.9,332.9 L638.8,333.2 L639.6,332.9 L640.4,332.9 L641.3,332.6 L642.1,333.8 L643.0,333.5 L643.8,333.8 L644.7,333.2 L645.5,333.8 L646.3,334.4 L647.2,334.4 L648.0,333.8 L648.9,334.1 L649.7,334.1 L650.5,334.1 L651.4,334.1 L652.2,334.1 L653.1,334.1 L653.9,334.1 L654.8,334.1 L655.6,334.1 L656.4,334.1 L657.3,334.7 L658.1,334.7 L659.0,334.7 L659.8,334.7 L660.6,334.7 L661.5,334.7 L662.3,335.5 L663.2,335.0 L664.0,335.5 L664.9,335.5 L665.7,335.5 L666.5,336.1 L667.4,335.8 L668.2,336.4 L669.1,336.4 L669.9,336.7 L670.7,336.4 L671.6,336.4 L672.4,336.4 L673.3,336.7 L674.1,335.5 L675.0,335.5 L675.8,335.8 L676.6,335.8 L677.5,335.8 L678.3,335.5 L679.2,335.8 L680.0,335.8" stroke="#ff7f0e" stroke-width="2" fill="none" opacity="0.8"/>
<!-- Thermal Generation -->
<path d="M80.0,356.4 L80.8,356.1 L81.7,356.1 L82.5,355.8 L83.4,320.4 L84.2,311.8 L85.0,344.2 L85.9,356.1 L86.7,355.8 L87.6,355.8 L88.4,356.1 L89.3,356.4 L90.1,356.1 L90.9,356.1 L91.8,356.1 L92.6,356.1 L93.5,356.7 L94.3,365.0 L95.1,365.3 L96.0,355.5 L96.8,355.8 L97.7,355.5 L98.5,355.2 L99.4,355.8 L100.2,355.5 L101.0,355.5 L101.9,356.1 L102.7,355.8 L103.6,356.1 L104.4,355.8 L105.2,355.8 L106.1,356.4 L106.9,356.7 L107.8,356.4 L108.6,356.1 L109.5,356.1 L110.3,337.6 L111.1,337.6 L112.0,296.6 L112.8,226.1 L113.7,273.7 L114.5,265.4 L115.3,283.2 L116.2,282.9 L117.0,273.1 L117.9,273.7 L118.7,315.3 L119.6,356.4 L120.4,355.8 L121.2,355.8 L122.1,332.6 L122.9,264.5 L123.8,239.2 L124.6,231.2 L125.4,253.8 L126.3,251.1 L127.1,224.0 L128.0,355.8 L128.8,355.5 L129.6,338.8 L130.5,283.2 L131.3,263.9 L132.2,223.7 L133.0,223.7 L133.9,223.4 L134.7,223.1 L135.5,222.3 L136.4,223.7 L137.2,223.1 L138.1,227.6 L138.9,223.7 L139.7,221.7 L140.6,221.4 L141.4,222.0 L142.3,222.5 L143.1,235.6 L144.0,222.8 L144.8,222.8 L145.6,223.4 L146.5,239.8 L147.3,256.2 L148.2,224.9 L149.0,223.1 L149.8,222.8 L150.7,223.1 L151.5,225.5 L152.4,222.8 L153.2,224.0 L154.1,247.8 L154.9,236.8 L155.7,284.4 L156.6,285.3 L157.4,282.3 L158.3,288.9 L159.1,269.2 L159.9,280.5 L160.8,295.1 L161.6,319.5 L162.5,248.1 L163.3,234.1 L164.2,223.7 L165.0,281.4 L165.8,292.7 L166.7,311.5 L167.5,346.8 L168.4,355.5 L169.2,354.0 L170.0,353.7 L170.9,352.5 L171.7,331.4 L172.6,293.3 L173.4,255.6 L174.2,284.7 L175.1,309.7 L175.9,308.5 L176.8,308.2 L177.6,307.6 L178.5,307.0 L179.3,343.6 L180.1,355.8 L181.0,355.8 L181.8,355.2 L182.7,354.9 L183.5,355.2 L184.3,355.5 L185.2,356.1 L186.0,355.8 L186.9,356.1 L187.7,355.8 L188.6,355.8 L189.4,355.5 L190.2,355.2 L191.1,354.9 L191.9,355.8 L192.8,349.8 L193.6,351.3 L194.4,352.2 L195.3,351.3 L196.1,349.2 L197.0,348.6 L197.8,355.8 L198.7,356.1 L199.5,355.8 L200.3,356.1 L201.2,355.8 L202.0,355.8 L202.9,355.8 L203.7,356.4 L204.5,321.3 L205.4,355.8 L206.2,355.5 L207.1,355.8 L207.9,355.8 L208.8,355.8 L209.6,356.1 L210.4,355.5 L211.3,355.5 L212.1,355.8 L213.0,349.8 L213.8,356.1 L214.6,371.5 L215.5,374.2 L216.3,374.2 L217.2,374.2 L218.0,374.2 L218.8,356.1 L219.7,356.1 L220.5,355.8 L221.4,355.8 L222.2,356.1 L223.1,355.5 L223.9,305.8 L224.7,269.8 L225.6,247.5 L226.4,246.6 L227.3,257.9 L228.1,270.1 L228.9,282.0 L229.8,307.0 L230.6,306.4 L231.5,326.3 L232.3,324.0 L233.2,257.0 L234.0,290.6 L234.8,324.0 L235.7,335.3 L236.5,355.8 L237.4,356.1 L238.2,355.8 L239.0,356.1 L239.9,356.1 L240.7,356.1 L241.6,355.8 L242.4,355.5 L243.3,317.4 L244.1,285.9 L244.9,305.2 L245.8,305.2 L246.6,314.7 L247.5,355.8 L248.3,355.5 L249.1,356.4 L250.0,355.8 L250.8,355.8 L251.7,356.1 L252.5,334.4 L253.4,263.6 L254.2,282.0 L255.0,291.2 L255.9,299.0 L256.7,311.2 L257.6,312.4 L258.4,312.4 L259.2,312.1 L260.1,310.6 L260.9,312.1 L261.8,312.1 L262.6,312.1 L263.5,312.4 L264.3,306.4 L265.1,312.1 L266.0,312.4 L266.8,312.1 L267.7,311.8 L268.5,312.4 L269.3,311.8 L270.2,311.5 L271.0,311.5 L271.9,311.8 L272.7,311.5 L273.5,311.8 L274.4,312.7 L275.2,264.8 L276.1,312.1 L276.9,312.1 L277.8,312.7 L278.6,312.9 L279.4,313.8 L280.3,346.3 L281.1,357.0 L282.0,357.0 L282.8,357.6 L283.6,357.6 L284.5,357.0 L285.3,357.3 L286.2,355.8 L287.0,356.4 L287.9,355.8 L288.7,356.4 L289.5,362.0 L290.4,356.1 L291.2,356.4 L292.1,355.8 L292.9,355.5 L293.7,273.7 L294.6,258.2 L295.4,299.3 L296.3,335.8 L297.1,346.8 L298.0,355.8 L298.8,352.8 L299.6,351.9 L300.5,355.8 L301.3,353.1 L302.2,355.8 L303.0,319.8 L303.8,290.6 L304.7,240.7 L305.5,237.1 L306.4,226.1 L307.2,247.8 L308.1,248.7 L308.9,247.8 L309.7,252.3 L310.6,254.7 L311.4,257.3 L312.3,251.7 L313.1,252.3 L313.9,238.9 L314.8,227.6 L315.6,255.6 L316.5,269.8 L317.3,271.0 L318.1,289.5 L319.0,299.3 L319.8,311.5 L320.7,320.4 L321.5,318.6 L322.4,318.3 L323.2,320.7 L324.0,252.0 L324.9,230.0 L325.7,248.4 L326.6,254.4 L327.4,315.6 L328.2,314.4 L329.1,337.9 L329.9,275.5 L330.8,263.9 L331.6,246.3 L332.5,237.4 L333.3,229.1 L334.1,229.7 L335.0,227.0 L335.8,229.7 L336.7,231.2 L337.5,229.4 L338.3,246.9 L339.2,248.7 L340.0,260.3 L340.9,305.2 L341.7,279.6 L342.6,317.1 L343.4,308.8 L344.2,255.9 L345.1,231.8 L345.9,228.8 L346.8,246.0 L347.6,239.8 L348.4,250.8 L349.3,299.0 L350.1,299.3 L351.0,311.2 L351.8,310.6 L352.7,310.9 L353.5,310.6 L354.3,296.3 L355.2,307.9 L356.0,355.8 L356.9,343.9 L357.7,355.2 L358.5,355.8 L359.4,357.0 L360.2,356.7 L361.1,354.0 L361.9,355.2 L362.7,355.8 L363.6,356.1 L364.4,352.5 L365.3,319.5 L366.1,296.9 L367.0,296.3 L367.8,340.9 L368.6,355.2 L369.5,355.2 L370.3,354.9 L371.2,354.3 L372.0,354.6 L372.8,354.3 L373.7,354.6 L374.5,355.5 L375.4,353.7 L376.2,356.1 L377.1,354.9 L377.9,355.8 L378.7,341.2 L379.6,344.2 L380.4,343.9 L381.3,320.4 L382.1,323.4 L382.9,306.1 L383.8,296.6 L384.6,296.6 L385.5,311.2 L386.3,312.9 L387.2,314.1 L388.0,312.9 L388.8,355.5 L389.7,355.5 L390.5,355.8 L391.4,355.2 L392.2,355.8 L393.0,354.9 L393.9,354.9 L394.7,355.8 L395.6,356.1 L396.4,355.8 L397.3,355.2 L398.1,356.7 L398.9,356.1 L399.8,355.8 L400.6,356.1 L401.5,347.7 L402.3,337.9 L403.1,338.5 L404.0,351.9 L404.8,356.1 L405.7,355.5 L406.5,356.1 L407.3,355.5 L408.2,356.1 L409.0,355.8 L409.9,355.8 L410.7,355.5 L411.6,355.2 L412.4,355.2 L413.2,354.9 L414.1,354.9 L414.9,355.5 L415.8,339.1 L416.6,338.5 L417.4,321.9 L418.3,348.0 L419.1,335.0 L420.0,339.1 L420.8,338.8 L421.7,354.3 L422.5,353.7 L423.3,353.7 L424.2,356.1 L425.0,355.8 L425.9,342.1 L426.7,344.5 L427.5,349.2 L428.4,343.9 L429.2,338.5 L430.1,338.2 L430.9,355.8 L431.8,355.5 L432.6,355.5 L433.4,356.1 L434.3,343.9 L435.1,344.5 L436.0,317.4 L436.8,334.4 L437.6,356.1 L438.5,356.1 L439.3,356.4 L440.2,356.7 L441.0,356.4 L441.9,356.4 L442.7,356.1 L443.5,356.1 L444.4,356.1 L445.2,356.1 L446.1,325.7 L446.9,327.2 L447.7,296.9 L448.6,309.1 L449.4,332.3 L450.3,356.1 L451.1,355.8 L451.9,355.8 L452.8,355.8 L453.6,356.4 L454.5,355.8 L455.3,332.0 L456.2,311.8 L457.0,332.9 L457.8,332.3 L458.7,343.9 L459.5,355.5 L460.4,355.8 L461.2,356.1 L462.0,356.1 L462.9,355.8 L463.7,355.8 L464.6,355.8 L465.4,355.8 L466.3,356.7 L467.1,356.7 L467.9,355.8 L468.8,355.8 L469.6,344.5 L470.5,356.4 L471.3,355.8 L472.1,355.5 L473.0,355.5 L473.8,356.1 L474.7,356.4 L475.5,337.9 L476.4,323.7 L477.2,323.4 L478.0,324.0 L478.9,338.5 L479.7,356.4 L480.6,355.8 L481.4,356.7 L482.2,356.1 L483.1,355.8 L483.9,355.8 L484.8,355.8 L485.6,355.5 L486.5,313.2 L487.3,330.2 L488.1,318.6 L489.0,315.0 L489.8,312.4 L490.7,318.0 L491.5,326.9 L492.3,330.5 L493.2,330.8 L494.0,341.2 L494.9,355.8 L495.7,343.9 L496.5,340.3 L497.4,340.9 L498.2,355.8 L499.1,355.5 L499.9,355.8 L500.8,356.1 L501.6,356.4 L502.4,355.8 L503.3,355.8 L504.1,355.5 L505.0,356.4 L505.8,355.8 L506.6,341.8 L507.5,313.5 L508.3,313.8 L509.2,316.5 L510.0,323.4 L510.9,320.4 L511.7,348.3 L512.5,351.6 L513.4,356.1 L514.2,355.5 L515.1,355.5 L515.9,355.8 L516.7,355.2 L517.6,349.2 L518.4,355.5 L519.3,355.2 L520.1,355.5 L521.0,354.9 L521.8,355.2 L522.6,354.9 L523.5,355.5 L524.3,356.1 L525.2,355.8 L526.0,321.3 L526.8,306.4 L527.7,275.5 L528.5,254.7 L529.4,253.2 L530.2,252.3 L531.1,288.9 L531.9,334.1 L532.7,356.1 L533.6,356.1 L534.4,356.1 L535.3,333.5 L536.1,310.0 L536.9,321.6 L537.8,344.8 L538.6,348.6 L539.5,356.4 L540.3,354.0 L541.2,356.4 L542.0,357.0 L542.8,333.5 L543.7,343.6 L544.5,354.0 L545.4,356.4 L546.2,301.6 L547.0,240.7 L547.9,227.6 L548.7,227.3 L549.6,260.3 L550.4,293.6 L551.2,316.5 L552.1,341.8 L552.9,343.9 L553.8,355.8 L554.6,355.2 L555.5,355.2 L556.3,356.4 L557.1,356.1 L558.0,357.3 L558.8,352.8 L559.7,352.2 L560.5,352.8 L561.3,347.4 L562.2,349.5 L563.0,351.3 L563.9,351.6 L564.7,351.6 L565.6,351.0 L566.4,347.4 L567.2,325.1 L568.1,308.8 L568.9,312.1 L569.8,338.2 L570.6,355.5 L571.4,355.8 L572.3,355.5 L573.1,355.2 L574.0,355.8 L574.8,355.5 L575.7,355.5 L576.5,356.1 L577.3,356.4 L578.2,356.4 L579.0,356.4 L579.9,357.3 L580.7,357.6 L581.5,357.0 L582.4,357.3 L583.2,355.8 L584.1,356.1 L584.9,355.8 L585.8,356.1 L586.6,352.8 L587.4,355.2 L588.3,355.5 L589.1,355.8 L590.0,373.3 L590.8,373.6 L591.6,373.3 L592.5,355.5 L593.3,355.2 L594.2,354.9 L595.0,355.8 L595.8,355.5 L596.7,356.4 L597.5,356.7 L598.4,356.7 L599.2,356.1 L600.1,356.1 L600.9,356.1 L601.7,311.8 L602.6,305.5 L603.4,308.5 L604.3,305.5 L605.1,355.8 L605.9,356.1 L606.8,355.2 L607.6,356.1 L608.5,356.1 L609.3,355.8 L610.2,355.5 L611.0,345.1 L611.8,355.8 L612.7,355.2 L613.5,355.2 L614.4,355.2 L615.2,339.1 L616.0,340.6 L616.9,352.5 L617.7,344.2 L618.6,306.7 L619.4,305.5 L620.3,308.8 L621.1,308.2 L621.9,355.5 L622.8,355.5 L623.6,356.1 L624.5,352.8 L625.3,355.8 L626.1,355.5 L627.0,355.5 L627.8,356.1 L628.7,356.4 L629.5,356.1 L630.4,356.1 L631.2,356.1 L632.0,355.8 L632.9,356.1 L633.7,310.9 L634.6,305.2 L635.4,306.1 L636.2,304.9 L637.1,348.6 L637.9,348.3 L638.8,348.9 L639.6,348.3 L640.4,348.3 L641.3,355.5 L642.1,355.5 L643.0,355.2 L643.8,355.5 L644.7,355.2 L645.5,354.9 L646.3,355.2 L647.2,327.8 L648.0,328.1 L648.9,274.3 L649.7,272.8 L650.5,347.1 L651.4,355.2 L652.2,356.1 L653.1,369.7 L653.9,370.6 L654.8,356.1 L655.6,355.5 L656.4,355.8 L657.3,355.8 L658.1,354.9 L659.0,355.2 L659.8,355.5 L660.6,355.8 L661.5,355.5 L662.3,355.8 L663.2,355.5 L664.0,355.8 L664.9,355.5 L665.7,355.5 L666.5,355.5 L667.4,355.8 L668.2,356.1 L669.1,356.1 L669.9,356.1 L670.7,356.1 L671.6,350.7 L672.4,350.4 L673.3,356.1 L674.1,356.1 L675.0,355.8 L675.8,356.1 L676.6,312.4 L677.5,312.4 L678.3,312.4 L679.2,312.9 L680.0,312.7" stroke="#2ca02c" stroke-width="2" fill="none" opacity="0.8"/>
<!-- Solar Generation -->
<path d="M80.0,411.1 L80.8,415.2 L81.7,417.6 L82.5,420.0 L83.4,420.0 L84.2,420.0 L85.0,420.0 L85.9,420.0 L86.7,420.0 L87.6,420.0 L88.4,420.0 L89.3,420.0 L90.1,420.0 L90.9,420.0 L91.8,420.0 L92.6,414.4 L93.5,403.6 L94.3,400.7 L95.1,400.4 L96.0,401.6 L96.8,401.3 L97.7,401.6 L98.5,403.3 L99.4,400.4 L100.2,401.0 L101.0,416.4 L101.9,417.9 L102.7,420.0 L103.6,420.0 L104.4,420.0 L105.2,420.0 L106.1,420.0 L106.9,420.0 L107.8,420.0 L108.6,420.0 L109.5,420.0 L110.3,420.0 L111.1,420.0 L112.0,420.0 L112.8,417.9 L113.7,397.1 L114.5,408.4 L115.3,387.9 L116.2,383.7 L117.0,386.4 L117.9,378.4 L118.7,400.7 L119.6,399.5 L120.4,409.9 L121.2,414.4 L122.1,418.5 L122.9,420.0 L123.8,420.0 L124.6,420.0 L125.4,420.0 L126.3,420.0 L127.1,420.0 L128.0,420.0 L128.8,420.0 L129.6,420.0 L130.5,420.0 L131.3,420.0 L132.2,420.0 L133.0,419.4 L133.9,415.8 L134.7,412.9 L135.5,405.7 L136.4,397.4 L137.2,401.9 L138.1,388.5 L138.9,402.8 L139.7,401.6 L140.6,413.8 L141.4,416.1 L142.3,416.1 L143.1,420.0 L144.0,420.0 L144.8,420.0 L145.6,420.0 L146.5,420.0 L147.3,420.0 L148.2,420.0 L149.0,420.0 L149.8,420.0 L150.7,420.0 L151.5,420.0 L152.4,420.0 L153.2,419.4 L154.1,413.8 L154.9,402.5 L155.7,386.1 L156.6,392.6 L157.4,383.7 L158.3,385.8 L159.1,398.0 L159.9,396.5 L160.8,404.8 L161.6,406.3 L162.5,414.9 L163.3,420.0 L164.2,420.0 L165.0,420.0 L165.8,420.0 L166.7,420.0 L167.5,420.0 L168.4,420.0 L169.2,420.0 L170.0,420.0 L170.9,420.0 L171.7,420.0 L172.6,420.0 L173.4,418.5 L174.2,403.3 L175.1,414.6 L175.9,414.6 L176.8,412.3 L177.6,413.5 L178.5,402.2 L179.3,401.6 L180.1,415.8 L181.0,417.0 L181.8,417.9 L182.7,418.2 L183.5,420.0 L184.3,420.0 L185.2,420.0 L186.0,420.0 L186.9,420.0 L187.7,420.0 L188.6,420.0 L189.4,420.0 L190.2,420.0 L191.1,420.0 L191.9,420.0 L192.8,420.0 L193.6,419.4 L194.4,417.9 L195.3,417.6 L196.1,416.1 L197.0,412.3 L197.8,412.0 L198.7,411.1 L199.5,411.4 L200.3,410.5 L201.2,413.5 L202.0,414.6 L202.9,407.2 L203.7,419.4 L204.5,420.0 L205.4,420.0 L206.2,420.0 L207.1,420.0 L207.9,420.0 L208.8,420.0 L209.6,420.0 L210.4,420.0 L211.3,420.0 L212.1,420.0 L213.0,420.0 L213.8,409.6 L214.6,401.6 L215.5,400.1 L216.3,400.4 L217.2,399.5 L218.0,401.6 L218.8,404.2 L219.7,401.0 L220.5,399.8 L221.4,409.6 L222.2,379.6 L223.1,404.8 L223.9,419.4 L224.7,420.0 L225.6,420.0 L226.4,420.0 L227.3,420.0 L228.1,420.0 L228.9,420.0 L229.8,420.0 L230.6,420.0 L231.5,420.0 L232.3,420.0 L233.2,420.0 L234.0,408.4 L234.8,383.7 L235.7,395.3 L236.5,399.8 L237.4,399.5 L238.2,399.8 L239.0,399.2 L239.9,399.8 L240.7,399.8 L241.6,380.2 L242.4,403.3 L243.3,409.0 L244.1,419.7 L244.9,420.0 L245.8,420.0 L246.6,420.0 L247.5,420.0 L248.3,420.0 L249.1,420.0 L250.0,420.0 L250.8,420.0 L251.7,420.0 L252.5,420.0 L253.4,420.0 L254.2,414.9 L255.0,395.0 L255.9,381.3 L256.7,394.1 L257.6,383.7 L258.4,384.3 L259.2,386.4 L260.1,384.9 L260.9,402.2 L261.8,396.8 L262.6,412.0 L263.5,401.0 L264.3,419.1 L265.1,420.0 L266.0,420.0 L266.8,420.0 L267.7,420.0 L268.5,420.0 L269.3,420.0 L270.2,420.0 L271.0,420.0 L271.9,420.0 L272.7,420.0 L273.5,420.0 L274.4,409.3 L275.2,402.2 L276.1,400.7 L276.9,400.4 L277.8,402.2 L278.6,402.8 L279.4,405.4 L280.3,409.9 L281.1,410.5 L282.0,415.2 L282.8,412.6 L283.6,407.5 L284.5,419.4 L285.3,420.0 L286.2,420.0 L287.0,420.0 L287.9,420.0 L288.7,420.0 L289.5,420.0 L290.4,420.0 L291.2,420.0 L292.1,420.0 L292.9,420.0 L293.7,420.0 L294.6,406.9 L295.4,381.0 L296.3,377.5 L297.1,377.2 L298.0,376.6 L298.8,376.9 L299.6,382.2 L300.5,403.3 L301.3,400.1 L302.2,400.4 L303.0,390.0 L303.8,408.4 L304.7,418.2 L305.5,420.0 L306.4,420.0 L307.2,420.0 L308.1,420.0 L308.9,420.0 L309.7,420.0 L310.6,420.0 L311.4,420.0 L312.3,420.0 L313.1,420.0 L313.9,420.0 L314.8,405.7 L315.6,381.3 L316.5,377.5 L317.3,377.2 L318.1,376.6 L319.0,376.6 L319.8,376.6 L320.7,376.6 L321.5,376.9 L322.4,377.5 L323.2,378.4 L324.0,398.6 L324.9,419.1 L325.7,420.0 L326.6,420.0 L327.4,420.0 L328.2,420.0 L329.1,420.0 L329.9,420.0 L330.8,420.0 L331.6,420.0 L332.5,420.0 L333.3,420.0 L334.1,420.0 L335.0,408.7 L335.8,382.8 L336.7,378.1 L337.5,377.5 L338.3,377.8 L339.2,381.0 L340.0,390.3 L340.9,381.0 L341.7,382.8 L342.6,392.9 L343.4,409.3 L344.2,412.3 L345.1,419.7 L345.9,420.0 L346.8,420.0 L347.6,420.0 L348.4,420.0 L349.3,420.0 L350.1,420.0 L351.0,420.0 L351.8,420.0 L352.7,420.0 L353.5,420.0 L354.3,420.0 L355.2,414.9 L356.0,407.8 L356.9,406.6 L357.7,401.9 L358.5,401.0 L359.4,404.2 L360.2,401.3 L361.1,403.9 L361.9,407.8 L362.7,403.9 L363.6,417.0 L364.4,419.4 L365.3,418.8 L366.1,420.0 L367.0,420.0 L367.8,420.0 L368.6,420.0 L369.5,420.0 L370.3,420.0 L371.2,420.0 L372.0,420.0 L372.8,420.0 L373.7,420.0 L374.5,420.0 L375.4,404.2 L376.2,389.1 L377.1,396.8 L377.9,395.3 L378.7,391.8 L379.6,387.9 L380.4,396.5 L381.3,403.1 L382.1,406.6 L382.9,415.2 L383.8,404.5 L384.6,416.4 L385.5,418.8 L386.3,420.0 L387.2,420.0 L388.0,420.0 L388.8,420.0 L389.7,420.0 L390.5,420.0 L391.4,420.0 L392.2,420.0 L393.0,420.0 L393.9,420.0 L394.7,420.0 L395.6,415.5 L396.4,393.5 L397.3,415.8 L398.1,411.7 L398.9,408.4 L399.8,407.8 L400.6,407.5 L401.5,409.6 L402.3,410.2 L403.1,415.8 L404.0,415.2 L404.8,399.2 L405.7,417.6 L406.5,420.0 L407.3,420.0 L408.2,420.0 L409.0,420.0 L409.9,420.0 L410.7,420.0 L411.6,420.0 L412.4,420.0 L413.2,420.0 L414.1,420.0 L414.9,419.7 L415.8,415.5 L416.6,379.0 L417.4,394.7 L418.3,390.6 L419.1,383.7 L420.0,391.5 L420.8,406.3 L421.7,382.8 L422.5,401.0 L423.3,405.7 L424.2,413.8 L425.0,408.1 L425.9,418.2 L426.7,420.0 L427.5,420.0 L428.4,420.0 L429.2,420.0 L430.1,420.0 L430.9,420.0 L431.8,420.0 L432.6,420.0 L433.4,420.0 L434.3,420.0 L435.1,419.7 L436.0,416.4 L436.8,415.8 L437.6,411.7 L438.5,403.9 L439.3,403.6 L440.2,398.0 L441.0,400.4 L441.9,393.2 L442.7,392.0 L443.5,394.7 L444.4,410.2 L445.2,411.7 L446.1,419.4 L446.9,420.0 L447.7,420.0 L448.6,420.0 L449.4,420.0 L450.3,420.0 L451.1,420.0 L451.9,420.0 L452.8,420.0 L453.6,420.0 L454.5,420.0 L455.3,419.7 L456.2,417.3 L457.0,403.1 L457.8,413.2 L458.7,407.8 L459.5,412.6 L460.4,408.4 L461.2,405.7 L462.0,411.4 L462.9,412.0 L463.7,412.9 L464.6,414.6 L465.4,415.5 L466.3,418.2 L467.1,420.0 L467.9,420.0 L468.8,420.0 L469.6,420.0 L470.5,420.0 L471.3,420.0 L472.1,420.0 L473.0,420.0 L473.8,420.0 L474.7,420.0 L475.5,418.5 L476.4,403.3 L477.2,395.3 L478.0,404.5 L478.9,405.1 L479.7,406.6 L480.6,406.3 L481.4,400.7 L482.2,398.0 L483.1,409.3 L483.9,412.0 L484.8,412.0 L485.6,401.0 L486.5,417.0 L487.3,420.0 L488.1,420.0 L489.0,420.0 L489.8,420.0 L490.7,420.0 L491.5,420.0 L492.3,420.0 L493.2,420.0 L494.0,420.0 L494.9,420.0 L495.7,419.1 L496.5,403.9 L497.4,401.0 L498.2,399.8 L499.1,399.5 L499.9,399.2 L500.8,398.9 L501.6,398.9 L502.4,376.0 L503.3,376.9 L504.1,400.4 L505.0,405.7 L505.8,402.5 L506.6,417.6 L507.5,420.0 L508.3,420.0 L509.2,420.0 L510.0,420.0 L510.9,420.0 L511.7,420.0 L512.5,420.0 L513.4,420.0 L514.2,420.0 L515.1,420.0 L515.9,419.1 L516.7,406.9 L517.6,400.4 L518.4,399.8 L519.3,399.8 L520.1,399.2 L521.0,399.2 L521.8,398.9 L522.6,399.2 L523.5,399.5 L524.3,399.8 L525.2,378.7 L526.0,394.4 L526.8,417.3 L527.7,420.0 L528.5,420.0 L529.4,420.0 L530.2,420.0 L531.1,420.0 L531.9,420.0 L532.7,420.0 L533.6,420.0 L534.4,420.0 L535.3,420.0 L536.1,419.4 L536.9,406.9 L537.8,401.3 L538.6,377.8 L539.5,377.5 L540.3,400.1 L541.2,399.8 L542.0,377.2 L542.8,377.8 L543.7,385.5 L544.5,387.9 L545.4,382.2 L546.2,401.0 L547.0,417.9 L547.9,420.0 L548.7,420.0 L549.6,420.0 L550.4,420.0 L551.2,420.0 L552.1,420.0 L552.9,420.0 L553.8,420.0 L554.6,420.0 L555.5,420.0 L556.3,418.5 L557.1,410.2 L558.0,381.9 L558.8,381.6 L559.7,381.0 L560.5,384.6 L561.3,389.4 L562.2,391.5 L563.0,392.9 L563.9,392.0 L564.7,404.5 L565.6,409.9 L566.4,412.0 L567.2,418.2 L568.1,420.0 L568.9,420.0 L569.8,420.0 L570.6,420.0 L571.4,420.0 L572.3,420.0 L573.1,420.0 L574.0,420.0 L574.8,420.0 L575.7,420.0 L576.5,419.7 L577.3,397.7 L578.2,400.4 L579.0,397.1 L579.9,397.1 L580.7,404.2 L581.5,410.2 L582.4,412.3 L583.2,413.5 L584.1,414.1 L584.9,401.3 L585.8,417.0 L586.6,418.2 L587.4,419.7 L588.3,420.0 L589.1,420.0 L590.0,420.0 L590.8,420.0 L591.6,420.0 L592.5,420.0 L593.3,420.0 L594.2,420.0 L595.0,420.0 L595.8,420.0 L596.7,419.7 L597.5,405.4 L598.4,413.8 L599.2,404.5 L600.1,403.3 L600.9,401.3 L601.7,400.4 L602.6,400.7 L603.4,412.3 L604.3,414.9 L605.1,415.5 L605.9,415.8 L606.8,416.7 L607.6,417.3 L608.5,419.4 L609.3,419.4 L610.2,419.4 L611.0,419.4 L611.8,419.4 L612.7,419.4 L613.5,419.4 L614.4,419.4 L615.2,419.4 L616.0,419.4 L616.9,418.2 L617.7,414.6 L618.6,391.5 L619.4,396.5 L620.3,401.3 L621.1,403.9 L621.9,405.4 L622.8,399.8 L623.6,402.5 L624.5,407.5 L625.3,413.8 L626.1,405.4 L627.0,415.2 L627.8,416.7 L628.7,420.0 L629.5,420.0 L630.4,420.0 L631.2,420.0 L632.0,420.0 L632.9,420.0 L633.7,420.0 L634.6,420.0 L635.4,420.0 L636.2,420.0 L637.1,419.1 L637.9,414.4 L638.8,403.9 L639.6,398.0 L640.4,385.5 L641.3,404.8 L642.1,409.9 L643.0,401.3 L643.8,408.1 L644.7,404.2 L645.5,394.7 L646.3,411.7 L647.2,406.0 L648.0,416.7 L648.9,420.0 L649.7,420.0 L650.5,420.0 L651.4,420.0 L652.2,420.0 L653.1,420.0 L653.9,420.0 L654.8,420.0 L655.6,420.0 L656.4,420.0 L657.3,418.5 L658.1,414.9 L659.0,407.5 L659.8,409.6 L660.6,409.3 L661.5,411.4 L662.3,412.6 L663.2,412.3 L664.0,413.2 L664.9,413.2 L665.7,414.9 L666.5,416.1 L667.4,415.2 L668.2,419.1 L669.1,420.0 L669.9,420.0 L670.7,420.0 L671.6,420.0 L672.4,420.0 L673.3,420.0 L674.1,420.0 L675.0,420.0 L675.8,420.0 L676.6,420.0 L677.5,420.0 L678.3,417.3 L679.2,414.6 L680.0,410.2" stroke="#d62728" stroke-width="2" fill="none" opacity="0.8"/>
<!-- Forecast -->
<path d="M80.0,218.1 L80.8,215.1 L81.7,214.5 L82.5,214.5 L83.4,213.0 L84.2,213.3 L85.0,224.9 L85.9,244.6 L86.7,255.3 L87.6,261.8 L88.4,266.6 L89.3,267.5 L90.1,266.3 L90.9,261.2 L91.8,252.0 L92.6,239.8 L93.5,221.4 L94.3,209.8 L95.1,208.0 L96.0,205.9 L96.8,207.4 L97.7,211.5 L98.5,214.8 L99.4,214.8 L100.2,214.2 L101.0,211.8 L101.9,207.4 L102.7,206.8 L103.6,207.4 L104.4,208.9 L105.2,222.0 L106.1,239.5 L106.9,254.1 L107.8,262.1 L108.6,266.6 L109.5,268.0 L110.3,266.0 L111.1,253.8 L112.0,226.4 L112.8,195.5 L113.7,176.2 L114.5,172.9 L115.3,173.2 L116.2,176.8 L117.0,179.1 L117.9,181.5 L118.7,183.6 L119.6,184.5 L120.4,184.8 L121.2,184.5 L122.1,188.9 L122.9,191.6 L123.8,191.6 L124.6,196.7 L125.4,215.1 L126.3,230.0 L127.1,250.8 L128.0,249.9 L128.8,250.8 L129.6,250.8 L130.5,247.5 L131.3,235.0 L132.2,207.4 L133.0,175.6 L133.9,158.9 L134.7,155.9 L135.5,158.9 L136.4,162.2 L137.2,167.2 L138.1,172.0 L138.9,176.5 L139.7,177.9 L140.6,177.6 L141.4,179.1 L142.3,182.4 L143.1,181.8 L144.0,178.5 L144.8,186.6 L145.6,205.9 L146.5,234.7 L147.3,244.0 L148.2,249.6 L149.0,254.1 L149.8,255.3 L150.7,252.6 L151.5,239.8 L152.4,213.0 L153.2,183.0 L154.1,165.5 L154.9,162.2 L155.7,164.6 L156.6,169.0 L157.4,173.8 L158.3,178.2 L159.1,181.5 L159.9,182.7 L160.8,183.6 L161.6,184.2 L162.5,188.6 L163.3,190.7 L164.2,189.8 L165.0,194.0 L165.8,213.6 L166.7,229.7 L167.5,249.3 L168.4,259.1 L169.2,262.7 L170.0,264.8 L170.9,262.4 L171.7,249.3 L172.6,221.7 L173.4,189.5 L174.2,169.0 L175.1,163.7 L175.9,164.0 L176.8,166.3 L177.6,169.6 L178.5,172.9 L179.3,175.6 L180.1,175.9 L181.0,174.1 L181.8,174.4 L182.7,178.5 L183.5,180.0 L184.3,177.6 L185.2,185.4 L186.0,205.0 L186.9,208.3 L187.7,236.8 L188.6,244.3 L189.4,248.7 L190.2,253.2 L191.1,254.1 L191.9,251.4 L192.8,239.8 L193.6,211.5 L194.4,179.4 L195.3,161.6 L196.1,156.8 L197.0,158.6 L197.8,160.7 L198.7,165.8 L199.5,169.6 L200.3,173.8 L201.2,175.3 L202.0,174.7 L202.9,176.2 L203.7,180.0 L204.5,180.6 L205.4,176.5 L206.2,184.5 L207.1,212.1 L207.9,227.3 L208.8,235.3 L209.6,240.4 L210.4,244.9 L211.3,247.5 L212.1,245.4 L213.0,239.8 L213.8,229.7 L214.6,214.8 L215.5,197.3 L216.3,187.5 L217.2,188.4 L218.0,194.6 L218.8,198.5 L219.7,202.3 L220.5,205.9 L221.4,209.5 L222.2,210.4 L223.1,209.8 L223.9,208.0 L224.7,206.8 L225.6,201.4 L226.4,202.6 L227.3,236.2 L228.1,238.3 L228.9,249.9 L229.8,257.0 L230.6,258.8 L231.5,258.2 L232.3,253.5 L233.2,246.0 L234.0,235.0 L234.8,218.1 L235.7,203.5 L236.5,204.1 L237.4,204.4 L238.2,206.5 L239.0,210.4 L239.9,213.9 L240.7,215.1 L241.6,216.6 L242.4,213.6 L243.3,208.9 L244.1,207.7 L244.9,204.4 L245.8,204.4 L246.6,219.9 L247.5,238.9 L248.3,251.7 L249.1,258.5 L250.0,261.8 L250.8,263.9 L251.7,260.9 L252.5,246.6 L253.4,220.2 L254.2,189.5 L255.0,170.8 L255.9,167.2 L256.7,168.7 L257.6,173.5 L258.4,177.3 L259.2,180.9 L260.1,183.6 L260.9,185.1 L261.8,185.7 L262.6,185.4 L263.5,190.1 L264.3,195.8 L265.1,194.9 L266.0,199.1 L266.8,216.6 L267.7,238.9 L268.5,253.2 L269.3,261.8 L270.2,266.3 L271.0,268.6 L271.9,266.0 L272.7,252.6 L273.5,228.8 L274.4,199.1 L275.2,181.2 L276.1,178.5 L276.9,177.9 L277.8,180.0 L278.6,180.9 L279.4,182.4 L280.3,184.5 L281.1,185.7 L282.0,186.0 L282.8,185.1 L283.6,189.8 L284.5,196.1 L285.3,196.1 L286.2,199.9 L287.0,217.5 L287.9,233.3 L288.7,252.0 L289.5,256.4 L290.4,257.9 L291.2,258.5 L292.1,255.0 L292.9,241.0 L293.7,214.5 L294.6,184.8 L295.4,166.9 L296.3,163.1 L297.1,164.9 L298.0,169.3 L298.8,174.1 L299.6,177.9 L300.5,181.2 L301.3,182.7 L302.2,183.3 L303.0,184.2 L303.8,187.8 L304.7,189.5 L305.5,187.2 L306.4,190.4 L307.2,210.1 L308.1,233.6 L308.9,246.0 L309.7,255.0 L310.6,258.5 L311.4,260.6 L312.3,257.3 L313.1,243.1 L313.9,215.7 L314.8,186.9 L315.6,169.0 L316.5,165.5 L317.3,166.9 L318.1,171.4 L319.0,175.6 L319.8,179.4 L320.7,182.4 L321.5,183.6 L322.4,184.5 L323.2,184.8 L324.0,189.2 L324.9,192.5 L325.7,190.7 L326.6,194.3 L327.4,213.0 L328.2,241.0 L329.1,249.9 L329.9,255.3 L330.8,257.9 L331.6,259.1 L332.5,255.3 L333.3,241.0 L334.1,216.0 L335.0,188.1 L335.8,170.8 L336.7,168.7 L337.5,170.5 L338.3,175.9 L339.2,179.1 L340.0,182.7 L340.9,185.1 L341.7,186.3 L342.6,186.0 L343.4,184.2 L344.2,188.9 L345.1,196.4 L345.9,198.8 L346.8,201.7 L347.6,219.0 L348.4,243.7 L349.3,257.3 L350.1,266.0 L351.0,271.3 L351.8,274.0 L352.7,273.4 L353.5,270.4 L354.3,261.5 L355.2,246.9 L356.0,229.7 L356.9,217.2 L357.7,211.2 L358.5,211.8 L359.4,211.0 L360.2,214.5 L361.1,219.3 L361.9,220.8 L362.7,219.0 L363.6,215.7 L364.4,216.0 L365.3,218.7 L366.1,216.9 L367.0,215.4 L367.8,226.7 L368.6,244.0 L369.5,257.9 L370.3,265.7 L371.2,271.3 L372.0,273.1 L372.8,271.9 L373.7,267.5 L374.5,258.2 L375.4,246.3 L376.2,227.9 L377.1,216.0 L377.9,213.3 L378.7,208.0 L379.6,207.7 L380.4,211.2 L381.3,213.6 L382.1,213.6 L382.9,212.1 L383.8,204.7 L384.6,203.8 L385.5,205.0 L386.3,203.8 L387.2,205.6 L388.0,220.5 L388.8,235.3 L389.7,252.6 L390.5,261.5 L391.4,266.0 L392.2,268.3 L393.0,265.7 L393.9,253.5 L394.7,225.5 L395.6,194.0 L396.4,173.8 L397.3,168.7 L398.1,167.8 L398.9,171.4 L399.8,174.7 L400.6,177.9 L401.5,180.6 L402.3,181.5 L403.1,182.1 L404.0,182.1 L404.8,186.9 L405.7,189.2 L406.5,188.4 L407.3,193.4 L408.2,213.0 L409.0,235.3 L409.9,248.7 L410.7,257.9 L411.6,262.4 L412.4,264.8 L413.2,261.8 L414.1,248.7 L414.9,222.0 L415.8,191.9 L416.6,172.6 L417.4,168.1 L418.3,167.2 L419.1,170.8 L420.0,174.4 L420.8,177.6 L421.7,180.6 L422.5,181.8 L423.3,182.4 L424.2,182.7 L425.0,187.2 L425.9,191.3 L426.7,191.0 L427.5,194.9 L428.4,213.6 L429.2,235.0 L430.1,251.4 L430.9,260.3 L431.8,265.1 L432.6,267.5 L433.4,264.8 L434.3,252.9 L435.1,224.9 L436.0,193.7 L436.8,175.0 L437.6,170.5 L438.5,169.3 L439.3,172.0 L440.2,174.7 L441.0,177.6 L441.9,180.0 L442.7,180.9 L443.5,180.9 L444.4,180.6 L445.2,185.4 L446.1,188.9 L446.9,188.1 L447.7,191.6 L448.6,210.7 L449.4,374.5 L450.3,244.6 L451.1,252.9 L451.9,256.2 L452.8,256.7 L453.6,252.3 L454.5,239.5 L455.3,210.4 L456.2,177.1 L457.0,158.6 L457.8,153.0 L458.7,153.9 L459.5,157.1 L460.4,161.9 L461.2,165.2 L462.0,168.1 L462.9,170.2 L463.7,169.3 L464.6,167.8 L465.4,169.9 L466.3,170.8 L467.1,168.1 L467.9,177.1 L468.8,195.5 L469.6,219.6 L470.5,230.9 L471.3,238.0 L472.1,242.2 L473.0,243.4 L473.8,240.7 L474.7,228.8 L475.5,201.4 L476.4,171.1 L477.2,155.9 L478.0,153.0 L478.9,155.3 L479.7,158.6 L480.6,163.1 L481.4,166.9 L482.2,170.8 L483.1,172.0 L483.9,171.4 L484.8,171.4 L485.6,175.6 L486.5,176.2 L487.3,172.3 L488.1,180.9 L489.0,199.1 L489.8,227.0 L490.7,233.6 L491.5,236.8 L492.3,241.3 L493.2,243.7 L494.0,241.6 L494.9,234.1 L495.7,224.0 L496.5,211.2 L497.4,194.3 L498.2,185.7 L499.1,185.7 L499.9,192.2 L500.8,196.1 L501.6,200.2 L502.4,204.7 L503.3,208.0 L504.1,208.6 L505.0,207.7 L505.8,205.9 L506.6,205.0 L507.5,199.4 L508.3,200.5 L509.2,213.6 L510.0,241.6 L510.9,245.7 L511.7,250.2 L512.5,254.7 L513.4,256.2 L514.2,254.7 L515.1,249.9 L515.9,243.4 L516.7,233.8 L517.6,218.1 L518.4,208.3 L519.3,209.2 L520.1,206.5 L521.0,207.7 L521.8,213.3 L522.6,216.0 L523.5,214.8 L524.3,211.5 L525.2,211.0 L526.0,205.3 L526.8,209.8 L527.7,211.5 L528.5,210.1 L529.4,221.1 L530.2,240.4 L531.1,254.4 L531.9,262.1 L532.7,267.2 L533.6,268.9 L534.4,265.7 L535.3,252.3 L536.1,227.6 L536.9,199.9 L537.8,183.3 L538.6,180.0 L539.5,177.3 L540.3,177.1 L541.2,177.6 L542.0,178.2 L542.8,178.8 L543.7,175.3 L544.5,172.0 L545.4,173.8 L546.2,182.1 L547.0,189.2 L547.9,193.4 L548.7,195.8 L549.6,213.9 L550.4,236.2 L551.2,255.6 L552.1,264.5 L552.9,270.7 L553.8,272.8 L554.6,270.4 L555.5,257.6 L556.3,233.8 L557.1,207.4 L558.0,190.1 L558.8,183.9 L559.7,177.1 L560.5,173.5 L561.3,172.3 L562.2,170.5 L563.0,169.3 L563.9,166.3 L564.7,161.6 L565.6,163.1 L566.4,175.3 L567.2,184.2 L568.1,189.5 L568.9,191.3 L569.8,210.4 L570.6,235.0 L571.4,252.9 L572.3,261.8 L573.1,267.5 L574.0,270.4 L574.8,270.4 L575.7,260.3 L576.5,236.8 L577.3,209.8 L578.2,189.8 L579.0,181.5 L579.9,176.2 L580.7,174.4 L581.5,175.0 L582.4,177.1 L583.2,179.7 L584.1,180.6 L584.9,180.9 L585.8,180.9 L586.6,185.4 L587.4,189.5 L588.3,189.5 L589.1,193.1 L590.0,212.1 L590.8,224.9 L591.6,247.8 L592.5,258.5 L593.3,261.8 L594.2,264.2 L595.0,261.5 L595.8,249.0 L596.7,218.7 L597.5,185.4 L598.4,165.5 L599.2,159.2 L600.1,159.5 L600.9,160.7 L601.7,164.6 L602.6,167.8 L603.4,171.1 L604.3,172.3 L605.1,170.8 L605.9,170.8 L606.8,172.9 L607.6,175.6 L608.5,172.6 L609.3,181.2 L610.2,200.8 L611.0,217.8 L611.8,235.3 L612.7,243.4 L613.5,247.2 L614.4,248.7 L615.2,246.0 L616.0,233.8 L616.9,204.1 L617.7,173.5 L618.6,157.4 L619.4,153.0 L620.3,154.5 L621.1,158.0 L621.9,163.1 L622.8,166.6 L623.6,169.9 L624.5,172.0 L625.3,170.5 L626.1,170.5 L627.0,174.1 L627.8,174.1 L628.7,170.2 L629.5,177.6 L630.4,196.1 L631.2,219.3 L632.0,230.3 L632.9,235.0 L633.7,238.9 L634.6,239.8 L635.4,238.9 L636.2,230.6 L637.1,218.7 L637.9,206.2 L638.8,191.3 L639.6,183.3 L640.4,178.5 L641.3,183.3 L642.1,188.4 L643.0,195.5 L643.8,197.3 L644.7,196.7 L645.5,197.9 L646.3,193.7 L647.2,194.3 L648.0,192.5 L648.9,186.0 L649.7,189.5 L650.5,204.7 L651.4,373.3 L652.2,233.0 L653.1,238.3 L653.9,241.9 L654.8,244.6 L655.6,243.4 L656.4,240.4 L657.3,230.9 L658.1,218.4 L659.0,204.7 L659.8,190.7 L660.6,183.0 L661.5,181.2 L662.3,183.6 L663.2,186.3 L664.0,190.1 L664.9,191.9 L665.7,189.2 L666.5,182.4 L667.4,184.5 L668.2,179.4 L669.1,176.2 L669.9,182.7 L670.7,202.6 L671.6,225.8 L672.4,238.9 L673.3,245.4 L674.1,249.3 L675.0,250.5 L675.8,246.9 L676.6,234.4 L677.5,205.9 L678.3,176.8 L679.2,183.9 L680.0,188.1" stroke="#9467bd" stroke-width="2" fill="none" opacity="0.8"/>
<!-- Total Generation -->
<path d="M80.0,228.8 L80.8,235.0 L81.7,254.7 L82.5,238.3 L83.4,208.9 L84.2,189.5 L85.0,242.5 L85.9,254.4 L86.7,254.7 L87.6,249.0 L88.4,240.7 L89.3,238.0 L90.1,235.9 L90.9,235.0 L91.8,239.2 L92.6,235.0 L93.5,220.2 L94.3,233.8 L95.1,229.4 L96.0,231.5 L96.8,229.4 L97.7,223.1 L98.5,227.6 L99.4,225.2 L100.2,224.0 L101.0,213.9 L101.9,217.2 L102.7,224.0 L103.6,218.1 L104.4,221.4 L105.2,227.0 L106.1,236.2 L106.9,242.8 L107.8,251.4 L108.6,252.6 L109.5,237.1 L110.3,211.5 L111.1,205.6 L112.0,173.5 L112.8,106.6 L113.7,134.8 L114.5,129.5 L115.3,131.9 L116.2,132.7 L117.0,109.3 L117.9,97.7 L118.7,118.5 L119.6,153.3 L120.4,166.9 L121.2,180.9 L122.1,169.9 L122.9,101.8 L123.8,81.9 L124.6,89.6 L125.4,119.4 L126.3,114.0 L127.1,86.9 L128.0,235.6 L128.8,241.0 L129.6,221.7 L130.5,158.6 L131.3,137.8 L132.2,90.2 L133.0,97.4 L133.9,79.2 L134.7,82.5 L135.5,67.6 L136.4,76.2 L137.2,79.5 L138.1,71.8 L138.9,94.4 L139.7,99.1 L140.6,114.0 L141.4,111.0 L142.3,112.2 L143.1,132.1 L144.0,123.5 L144.8,124.4 L145.6,131.0 L146.5,150.0 L147.3,167.2 L148.2,135.4 L149.0,133.6 L149.8,131.3 L150.7,132.1 L151.5,133.9 L152.4,131.6 L153.2,132.7 L154.1,151.8 L154.9,129.5 L155.7,157.1 L156.6,162.2 L157.4,145.8 L158.3,149.1 L159.1,136.6 L159.9,132.7 L160.8,163.4 L161.6,187.2 L162.5,114.9 L163.3,89.6 L164.2,89.0 L165.0,158.9 L165.8,168.7 L166.7,203.8 L167.5,249.0 L168.4,263.0 L169.2,259.7 L170.0,258.8 L170.9,255.9 L171.7,234.1 L172.6,200.8 L173.4,154.7 L174.2,170.2 L175.1,205.9 L175.9,205.9 L176.8,193.4 L177.6,197.6 L178.5,169.0 L179.3,155.9 L180.1,169.0 L181.0,186.3 L181.8,193.7 L182.7,157.1 L183.5,144.9 L184.3,153.0 L185.2,165.8 L186.0,173.2 L186.9,174.7 L187.7,178.8 L188.6,162.2 L189.4,166.3 L190.2,169.9 L191.1,169.6 L191.9,174.7 L192.8,171.4 L193.6,170.8 L194.4,191.6 L195.3,200.5 L196.1,208.3 L197.0,224.3 L197.8,235.9 L198.7,230.3 L199.5,233.0 L200.3,235.3 L201.2,241.3 L202.0,238.0 L202.9,210.4 L203.7,207.1 L204.5,178.5 L205.4,227.6 L206.2,204.4 L207.1,194.6 L207.9,202.6 L208.8,194.6 L209.6,189.8 L210.4,185.7 L211.3,180.0 L212.1,194.9 L213.0,191.6 L213.8,188.4 L214.6,203.2 L215.5,208.3 L216.3,196.7 L217.2,187.2 L218.0,210.7 L218.8,189.2 L219.7,187.8 L220.5,186.0 L221.4,204.7 L222.2,162.2 L223.1,192.5 L223.9,172.3 L224.7,145.2 L225.6,128.0 L226.4,133.9 L227.3,149.1 L228.1,163.4 L228.9,175.3 L229.8,202.9 L230.6,202.9 L231.5,213.9 L232.3,212.7 L233.2,148.5 L234.0,172.6 L234.8,187.5 L235.7,208.9 L236.5,227.9 L237.4,229.4 L238.2,230.3 L239.0,225.5 L239.9,224.9 L240.7,221.7 L241.6,193.4 L242.4,208.9 L243.3,157.1 L244.1,120.0 L244.9,125.9 L245.8,133.0 L246.6,145.2 L247.5,200.8 L248.3,220.5 L249.1,232.4 L250.0,236.2 L250.8,242.5 L251.7,241.0 L252.5,222.3 L253.4,153.9 L254.2,169.0 L255.0,183.9 L255.9,177.6 L256.7,202.9 L257.6,191.9 L258.4,188.6 L259.2,179.4 L260.1,168.7 L260.9,182.4 L261.8,173.8 L262.6,199.7 L263.5,185.7 L264.3,197.6 L265.1,211.8 L266.0,226.4 L266.8,227.9 L267.7,225.2 L268.5,211.8 L269.3,204.7 L270.2,188.4 L271.0,173.8 L271.9,178.5 L272.7,169.9 L273.5,173.2 L274.4,151.5 L275.2,77.4 L276.1,189.5 L276.9,174.7 L277.8,193.4 L278.6,189.5 L279.4,196.1 L280.3,240.7 L281.1,250.2 L282.0,259.4 L282.8,249.0 L283.6,169.9 L284.5,187.5 L285.3,195.2 L286.2,196.7 L287.0,224.0 L287.9,224.3 L288.7,219.0 L289.5,230.3 L290.4,223.4 L291.2,208.0 L292.1,222.8 L292.9,227.6 L293.7,144.9 L294.6,106.3 L295.4,116.7 L296.3,137.2 L297.1,161.6 L298.0,168.4 L298.8,162.5 L299.6,172.6 L300.5,212.1 L301.3,213.0 L302.2,220.8 L303.0,168.4 L303.8,166.6 L304.7,113.7 L305.5,100.3 L306.4,87.5 L307.2,118.8 L308.1,139.9 L308.9,150.6 L309.7,170.5 L310.6,169.0 L311.4,167.8 L312.3,162.8 L313.1,139.6 L313.9,110.1 L314.8,94.4 L315.6,115.2 L316.5,139.3 L317.3,143.4 L318.1,166.0 L319.0,174.1 L319.8,185.7 L320.7,190.1 L321.5,188.1 L322.4,190.4 L323.2,184.8 L324.0,124.7 L324.9,106.3 L325.7,105.7 L326.6,115.2 L327.4,175.6 L328.2,182.4 L329.1,231.8 L329.9,188.1 L330.8,184.2 L331.6,169.9 L332.5,161.6 L333.3,153.0 L334.1,151.5 L335.0,136.3 L335.8,113.1 L336.7,111.6 L337.5,107.5 L338.3,118.5 L339.2,123.8 L340.0,149.1 L340.9,184.2 L341.7,159.2 L342.6,201.7 L343.4,205.3 L344.2,145.2 L345.1,125.0 L345.9,122.9 L346.8,149.7 L347.6,152.7 L348.4,172.6 L349.3,211.8 L350.1,216.6 L351.0,230.6 L351.8,225.5 L352.7,224.3 L353.5,224.9 L354.3,209.2 L355.2,216.6 L356.0,263.0 L356.9,252.3 L357.7,254.7 L358.5,244.3 L359.4,239.5 L360.2,234.1 L361.1,213.3 L361.9,199.7 L362.7,197.9 L363.6,207.4 L364.4,227.9 L365.3,194.3 L366.1,153.0 L367.0,124.4 L367.8,159.8 L368.6,186.0 L369.5,207.4 L370.3,202.3 L371.2,206.5 L372.0,190.4 L372.8,195.8 L373.7,209.8 L374.5,214.5 L375.4,205.6 L376.2,190.4 L377.1,225.5 L377.9,230.3 L378.7,212.4 L379.6,218.7 L380.4,224.6 L381.3,205.3 L382.1,218.4 L382.9,204.7 L383.8,199.9 L384.6,198.8 L385.5,212.4 L386.3,220.8 L387.2,213.6 L388.0,223.4 L388.8,269.5 L389.7,275.5 L390.5,277.0 L391.4,276.4 L392.2,269.8 L393.0,241.0 L393.9,243.7 L394.7,195.8 L395.6,197.9 L396.4,189.2 L397.3,186.0 L398.1,184.8 L398.9,185.4 L399.8,189.8 L400.6,210.7 L401.5,184.8 L402.3,202.3 L403.1,206.5 L404.0,213.3 L404.8,161.9 L405.7,181.8 L406.5,181.5 L407.3,175.9 L408.2,167.2 L409.0,182.4 L409.9,192.2 L410.7,182.4 L411.6,173.2 L412.4,167.5 L413.2,172.6 L414.1,159.2 L414.9,161.9 L415.8,147.9 L416.6,111.3 L417.4,147.9 L418.3,167.5 L419.1,138.4 L420.0,129.2 L420.8,153.6 L421.7,138.4 L422.5,158.9 L423.3,157.4 L424.2,176.5 L425.0,159.8 L425.9,179.7 L426.7,193.4 L427.5,202.3 L428.4,205.9 L429.2,201.7 L430.1,201.1 L430.9,200.2 L431.8,204.1 L432.6,218.7 L433.4,196.7 L434.3,206.2 L435.1,186.9 L436.0,160.1 L436.8,192.5 L437.6,241.0 L438.5,232.4 L439.3,217.5 L440.2,217.2 L441.0,217.8 L441.9,167.8 L442.7,189.2 L443.5,183.9 L444.4,225.2 L445.2,201.4 L446.1,214.5 L446.9,208.9 L447.7,141.1 L448.6,168.1 L449.4,179.4 L450.3,208.3 L451.1,197.3 L451.9,191.9 L452.8,201.1 L453.6,213.0 L454.5,183.3 L455.3,172.3 L456.2,144.3 L457.0,163.1 L457.8,166.6 L458.7,155.9 L459.5,191.6 L460.4,185.4 L461.2,197.3 L462.0,218.4 L462.9,238.3 L463.7,243.1 L464.6,233.6 L465.4,217.2 L466.3,201.1 L467.1,202.6 L467.9,213.3 L468.8,208.0 L469.6,186.6 L470.5,189.8 L471.3,206.8 L472.1,221.7 L473.0,229.4 L473.8,213.0 L474.7,201.7 L475.5,194.6 L476.4,171.4 L477.2,158.0 L478.0,169.6 L478.9,190.1 L479.7,212.7 L480.6,200.2 L481.4,210.4 L482.2,176.5 L483.1,199.1 L483.9,226.4 L484.8,198.2 L485.6,175.9 L486.5,171.7 L487.3,180.9 L488.1,191.6 L489.0,196.4 L489.8,199.4 L490.7,201.1 L491.5,209.2 L492.3,199.9 L493.2,180.0 L494.0,189.5 L494.9,192.2 L495.7,177.3 L496.5,156.5 L497.4,181.8 L498.2,166.3 L499.1,191.9 L499.9,192.8 L500.8,195.5 L501.6,216.6 L502.4,197.6 L503.3,201.7 L504.1,227.0 L505.0,235.0 L505.8,231.8 L506.6,230.9 L507.5,206.2 L508.3,214.2 L509.2,221.7 L510.0,230.3 L510.9,216.0 L511.7,232.4 L512.5,241.0 L513.4,238.0 L514.2,224.9 L515.1,230.6 L515.9,210.4 L516.7,230.0 L517.6,214.5 L518.4,213.6 L519.3,235.0 L520.1,238.6 L521.0,233.6 L521.8,214.5 L522.6,227.0 L523.5,217.5 L524.3,212.7 L525.2,171.1 L526.0,157.7 L526.8,183.3 L527.7,170.8 L528.5,158.9 L529.4,155.6 L530.2,145.2 L531.1,178.5 L531.9,222.0 L532.7,241.0 L533.6,219.9 L534.4,214.5 L535.3,184.5 L536.1,177.3 L536.9,183.0 L537.8,204.1 L538.6,189.8 L539.5,197.9 L540.3,226.4 L541.2,223.7 L542.0,185.4 L542.8,156.2 L543.7,168.4 L544.5,187.5 L545.4,209.2 L546.2,186.9 L547.0,148.5 L547.9,141.4 L548.7,135.1 L549.6,174.1 L550.4,207.7 L551.2,228.2 L552.1,249.0 L552.9,237.7 L553.8,251.7 L554.6,252.6 L555.5,253.2 L556.3,253.2 L557.1,245.4 L558.0,224.6 L558.8,229.7 L559.7,229.4 L560.5,232.1 L561.3,227.9 L562.2,232.7 L563.0,229.7 L563.9,222.5 L564.7,213.6 L565.6,209.2 L566.4,207.4 L567.2,226.7 L568.1,210.1 L568.9,198.5 L569.8,232.7 L570.6,254.4 L571.4,253.8 L572.3,259.4 L573.1,263.9 L574.0,251.4 L574.8,244.0 L575.7,240.7 L576.5,249.0 L577.3,219.9 L578.2,210.7 L579.0,196.4 L579.9,184.2 L580.7,183.3 L581.5,188.1 L582.4,247.2 L583.2,212.7 L584.1,197.6 L584.9,187.2 L585.8,204.4 L586.6,201.7 L587.4,180.0 L588.3,152.1 L589.1,153.9 L590.0,176.2 L590.8,180.9 L591.6,180.0 L592.5,170.8 L593.3,176.8 L594.2,169.3 L595.0,178.8 L595.8,177.6 L596.7,185.7 L597.5,173.8 L598.4,200.8 L599.2,203.2 L600.1,202.9 L600.9,188.4 L601.7,165.8 L602.6,163.1 L603.4,177.3 L604.3,157.7 L605.1,237.4 L605.9,231.8 L606.8,233.0 L607.6,192.2 L608.5,221.4 L609.3,224.3 L610.2,206.5 L611.0,202.6 L611.8,229.4 L612.7,220.5 L613.5,195.8 L614.4,190.7 L615.2,164.3 L616.0,169.0 L616.9,175.3 L617.7,152.7 L618.6,86.4 L619.4,102.1 L620.3,125.9 L621.1,128.0 L621.9,180.9 L622.8,188.6 L623.6,176.8 L624.5,158.9 L625.3,178.8 L626.1,164.3 L627.0,177.1 L627.8,189.5 L628.7,198.8 L629.5,195.5 L630.4,191.0 L631.2,215.1 L632.0,242.8 L632.9,246.3 L633.7,189.5 L634.6,178.8 L635.4,180.6 L636.2,183.6 L637.1,234.7 L637.9,239.2 L638.8,241.6 L639.6,228.8 L640.4,211.0 L641.3,243.1 L642.1,244.9 L643.0,227.3 L643.8,236.2 L644.7,236.5 L645.5,233.6 L646.3,249.0 L647.2,217.5 L648.0,226.4 L648.9,156.8 L649.7,154.5 L650.5,226.7 L651.4,228.5 L652.2,222.0 L653.1,239.5 L653.9,248.4 L654.8,244.6 L655.6,255.3 L656.4,262.1 L657.3,263.9 L658.1,248.7 L659.0,232.7 L659.8,231.8 L660.6,225.2 L661.5,214.5 L662.3,245.1 L663.2,248.7 L664.0,245.1 L664.9,247.5 L665.7,248.1 L666.5,221.7 L667.4,225.5 L668.2,227.0 L669.1,228.5 L669.9,225.8 L670.7,222.5 L671.6,226.4 L672.4,234.1 L673.3,247.8 L674.1,256.2 L675.0,263.9 L675.8,261.2 L676.6,220.8 L677.5,222.5 L678.3,222.3 L679.2,219.9 L680.0,216.3" stroke="#8c564b" stroke-width="2" fill="none" opacity="0.8"/>
<!-- Forecast Difference -->
<path d="M80.0,420.0 L80.8,420.0 L81.7,420.0 L82.5,420.0 L83.4,420.0 L84.2,420.0 L85.0,420.0 L85.9,420.0 L86.7,420.0 L87.6,420.0 L88.4,420.0 L89.3,420.0 L90.1,420.0 L90.9,420.0 L91.8,420.0 L92.6,420.0 L93.5,420.0 L94.3,420.0 L95.1,420.0 L96.0,420.0 L96.8,420.0 L97.7,420.0 L98.5,420.0 L99.4,420.0 L100.2,420.0 L101.0,420.0 L101.9,420.0 L102.7,420.0 L103.6,420.0 L104.4,420.0 L105.2,420.0 L106.1,420.0 L106.9,420.0 L107.8,420.0 L108.6,420.0 L109.5,420.0 L110.3,420.0 L111.1,420.0 L112.0,420.0 L112.8,420.0 L113.7,420.0 L114.5,420.0 L115.3,420.0 L116.2,420.0 L117.0,420.0 L117.9,420.0 L118.7,420.0 L119.6,420.0 L120.4,420.0 L121.2,420.0 L122.1,420.0 L122.9,420.0 L123.8,420.0 L124.6,420.0 L125.4,420.0 L126.3,420.0 L127.1,420.0 L128.0,420.0 L128.8,420.0 L129.6,420.0 L130.5,420.0 L131.3,420.0 L132.2,420.0 L133.0,420.0 L133.9,420.0 L134.7,420.0 L135.5,420.0 L136.4,420.0 L137.2,420.0 L138.1,420.0 L138.9,420.0 L139.7,420.0 L140.6,420.0 L141.4,420.0 L142.3,420.0 L143.1,420.0 L144.0,420.0 L144.8,420.0 L145.6,420.0 L146.5,420.0 L147.3,420.0 L148.2,420.0 L149.0,420.0 L149.8,420.0 L150.7,420.0 L151.5,420.0 L152.4,420.0 L153.2,420.0 L154.1,420.0 L154.9,420.0 L155.7,420.0 L156.6,420.0 L157.4,420.0 L158.3,420.0 L159.1,420.0 L159.9,420.0 L160.8,420.0 L161.6,420.0 L162.5,420.0 L163.3,420.0 L164.2,420.0 L165.0,420.0 L165.8,420.0 L166.7,420.0 L167.5,420.0 L168.4,420.0 L169.2,420.0 L170.0,420.0 L170.9,420.0 L171.7,420.0 L172.6,420.0 L173.4,420.0 L174.2,420.0 L175.1,420.0 L175.9,420.0 L176.8,420.0 L177.6,420.0 L178.5,420.0 L179.3,420.0 L180.1,420.0 L181.0,420.0 L181.8,420.0 L182.7,420.0 L183.5,420.0 L184.3,420.0 L185.2,420.0 L186.0,420.0 L186.9,420.0 L187.7,420.0 L188.6,420.0 L189.4,420.0 L190.2,420.0 L191.1,420.0 L191.9,420.0 L192.8,420.0 L193.6,420.0 L194.4,420.0 L195.3,420.0 L196.1,420.0 L197.0,420.0 L197.8,420.0 L198.7,420.0 L199.5,420.0 L200.3,420.0 L201.2,420.0 L202.0,420.0 L202.9,420.0 L203.7,420.0 L204.5,420.0 L205.4,420.0 L206.2,420.0 L207.1,420.0 L207.9,420.0 L208.8,420.0 L209.6,420.0 L210.4,420.0 L211.3,420.0 L212.1,420.0 L213.0,420.0 L213.8,420.0 L214.6,420.0 L215.5,420.0 L216.3,420.0 L217.2,420.0 L218.0,420.0 L218.8,420.0 L219.7,420.0 L220.5,420.0 L221.4,420.0 L222.2,420.0 L223.1,420.0 L223.9,420.0 L224.7,420.0 L225.6,420.0 L226.4,420.0 L227.3,420.0 L228.1,420.0 L228.9,420.0 L229.8,420.0 L230.6,420.0 L231.5,420.0 L232.3,420.0 L233.2,420.0 L234.0,420.0 L234.8,420.0 L235.7,420.0 L236.5,420.0 L237.4,420.0 L238.2,420.0 L239.0,420.0 L239.9,420.0 L240.7,420.0 L241.6,420.0 L242.4,420.0 L243.3,420.0 L244.1,420.0 L244.9,420.0 L245.8,420.0 L246.6,420.0 L247.5,420.0 L248.3,420.0 L249.1,420.0 L250.0,420.0 L250.8,420.0 L251.7,420.0 L252.5,420.0 L253.4,420.0 L254.2,420.0 L255.0,420.0 L255.9,420.0 L256.7,420.0 L257.6,420.0 L258.4,420.0 L259.2,420.0 L260.1,420.0 L260.9,420.0 L261.8,420.0 L262.6,420.0 L263.5,420.0 L264.3,420.0 L265.1,420.0 L266.0,420.0 L266.8,420.0 L267.7,420.0 L268.5,420.0 L269.3,420.0 L270.2,420.0 L271.0,420.0 L271.9,420.0 L272.7,420.0 L273.5,420.0 L274.4,420.0 L275.2,420.0 L276.1,420.0 L276.9,420.0 L277.8,420.0 L278.6,420.0 L279.4,420.0 L280.3,420.0 L281.1,420.0 L282.0,420.0 L282.8,420.0 L283.6,420.0 L284.5,420.0 L285.3,420.0 L286.2,420.0 L287.0,420.0 L287.9,420.0 L288.7,420.0 L289.5,420.0 L290.4,420.0 L291.2,420.0 L292.1,420.0 L292.9,420.0 L293.7,420.0 L294.6,420.0 L295.4,420.0 L296.3,420.0 L297.1,420.0 L298.0,420.0 L298.8,420.0 L299.6,420.0 L300.5,420.0 L301.3,420.0 L302.2,420.0 L303.0,420.0 L303.8,420.0 L304.7,420.0 L305.5,420.0 L306.4,420.0 L307.2,420.0 L308.1,420.0 L308.9,420.0 L309.7,420.0 L310.6,420.0 L311.4,420.0 L312.3,420.0 L313.1,420.0 L313.9,420.0 L314.8,420.0 L315.6,420.0 L316.5,420.0 L317.3,420.0 L318.1,420.0 L319.0,420.0 L319.8,420.0 L320.7,420.0 L321.5,420.0 L322.4,420.0 L323.2,420.0 L324.0,420.0 L324.9,420.0 L325.7,420.0 L326.6,420.0 L327.4,420.0 L328.2,420.0 L329.1,420.0 L329.9,420.0 L330.8,420.0 L331.6,420.0 L332.5,420.0 L333.3,420.0 L334.1,420.0 L335.0,420.0 L335.8,420.0 L336.7,420.0 L337.5,420.0 L338.3,420.0 L339.2,420.0 L340.0,420.0 L340.9,420.0 L341.7,420.0 L342.6,420.0 L343.4,420.0 L344.2,420.0 L345.1,420.0 L345.9,420.0 L346.8,420.0 L347.6,420.0 L348.4,420.0 L349.3,420.0 L350.1,420.0 L351.0,420.0 L351.8,420.0 L352.7,420.0 L353.5,420.0 L354.3,420.0 L355.2,420.0 L356.0,420.0 L356.9,420.0 L357.7,420.0 L358.5,420.0 L359.4,420.0 L360.2,420.0 L361.1,420.0 L361.9,420.0 L362.7,420.0 L363.6,420.0 L364.4,420.0 L365.3,420.0 L366.1,420.0 L367.0,420.0 L367.8,420.0 L368.6,420.0 L369.5,420.0 L370.3,420.0 L371.2,420.0 L372.0,420.0 L372.8,420.0 L373.7,420.0 L374.5,420.0 L375.4,420.0 L376.2,420.0 L377.1,420.0 L377.9,420.0 L378.7,420.0 L379.6,420.0 L380.4,420.0 L381.3,420.0 L382.1,420.0 L382.9,420.0 L383.8,420.0 L384.6,420.0 L385.5,420.0 L386.3,420.0 L387.2,420.0 L388.0,420.0 L388.8,420.0 L389.7,420.0 L390.5,420.0 L391.4,420.0 L392.2,420.0 L393.0,420.0 L393.9,420.0 L394.7,420.0 L395.6,420.0 L396.4,420.0 L397.3,420.0 L398.1,420.0 L398.9,420.0 L399.8,420.0 L400.6,420.0 L401.5,420.0 L402.3,420.0 L403.1,420.0 L404.0,420.0 L404.8,420.0 L405.7,420.0 L406.5,420.0 L407.3,420.0 L408.2,420.0 L409.0,420.0 L409.9,420.0 L410.7,420.0 L411.6,420.0 L412.4,420.0 L413.2,420.0 L414.1,420.0 L414.9,420.0 L415.8,420.0 L416.6,420.0 L417.4,420.0 L418.3,420.0 L419.1,420.0 L420.0,420.0 L420.8,420.0 L421.7,420.0 L422.5,420.0 L423.3,420.0 L424.2,420.0 L425.0,420.0 L425.9,420.0 L426.7,420.0 L427.5,420.0 L428.4,420.0 L429.2,420.0 L430.1,420.0 L430.9,420.0 L431.8,420.0 L432.6,420.0 L433.4,420.0 L434.3,420.0 L435.1,420.0 L436.0,420.0 L436.8,420.0 L437.6,420.0 L438.5,420.0 L439.3,420.0 L440.2,420.0 L441.0,420.0 L441.9,420.0 L442.7,420.0 L443.5,420.0 L444.4,420.0 L445.2,420.0 L446.1,420.0 L446.9,420.0 L447.7,420.0 L448.6,420.0 L449.4,420.0 L450.3,420.0 L451.1,420.0 L451.9,420.0 L452.8,420.0 L453.6,420.0 L454.5,420.0 L455.3,420.0 L456.2,420.0 L457.0,420.0 L457.8,420.0 L458.7,420.0 L459.5,420.0 L460.4,420.0 L461.2,420.0 L462.0,420.0 L462.9,420.0 L463.7,420.0 L464.6,420.0 L465.4,420.0 L466.3,420.0 L467.1,420.0 L467.9,420.0 L468.8,420.0 L469.6,420.0 L470.5,420.0 L471.3,420.0 L472.1,420.0 L473.0,420.0 L473.8,420.0 L474.7,420.0 L475.5,420.0 L476.4,420.0 L477.2,420.0 L478.0,420.0 L478.9,420.0 L479.7,420.0 L480.6,420.0 L481.4,420.0 L482.2,420.0 L483.1,420.0 L483.9,420.0 L484.8,420.0 L485.6,420.0 L486.5,420.0 L487.3,420.0 L488.1,420.0 L489.0,420.0 L489.8,420.0 L490.7,420.0 L491.5,420.0 L492.3,420.0 L493.2,420.0 L494.0,420.0 L494.9,420.0 L495.7,420.0 L496.5,420.0 L497.4,420.0 L498.2,420.0 L499.1,420.0 L499.9,420.0 L500.8,420.0 L501.6,420.0 L502.4,420.0 L503.3,420.0 L504.1,420.0 L505.0,420.0 L505.8,420.0 L506.6,420.0 L507.5,420.0 L508.3,420.0 L509.2,420.0 L510.0,420.0 L510.9,420.0 L511.7,420.0 L512.5,420.0 L513.4,420.0 L514.2,420.0 L515.1,420.0 L515.9,420.0 L516.7,420.0 L517.6,420.0 L518.4,420.0 L519.3,420.0 L520.1,420.0 L521.0,420.0 L521.8,420.0 L522.6,420.0 L523.5,420.0 L524.3,420.0 L525.2,420.0 L526.0,420.0 L526.8,420.0 L527.7,420.0 L528.5,420.0 L529.4,420.0 L530.2,420.0 L531.1,420.0 L531.9,420.0 L532.7,420.0 L533.6,420.0 L534.4,420.0 L535.3,420.0 L536.1,420.0 L536.9,420.0 L537.8,420.0 L538.6,420.0 L539.5,420.0 L540.3,420.0 L541.2,420.0 L542.0,420.0 L542.8,420.0 L543.7,420.0 L544.5,420.0 L545.4,420.0 L546.2,420.0 L547.0,420.0 L547.9,420.0 L548.7,420.0 L549.6,420.0 L550.4,420.0 L551.2,420.0 L552.1,420.0 L552.9,420.0 L553.8,420.0 L554.6,420.0 L555.5,420.0 L556.3,420.0 L557.1,420.0 L558.0,420.0 L558.8,420.0 L559.7,420.0 L560.5,420.0 L561.3,420.0 L562.2,420.0 L563.0,420.0 L563.9,420.0 L564.7,420.0 L565.6,420.0 L566.4,420.0 L567.2,420.0 L568.1,420.0 L568.9,420.0 L569.8,420.0 L570.6,420.0 L571.4,420.0 L572.3,420.0 L573.1,420.0 L574.0,420.0 L574.8,420.0 L575.7,420.0 L576.5,420.0 L577.3,420.0 L578.2,420.0 L579.0,420.0 L579.9,420.0 L580.7,420.0 L581.5,420.0 L582.4,420.0 L583.2,420.0 L584.1,420.0 L584.9,420.0 L585.8,420.0 L586.6,420.0 L587.4,420.0 L588.3,420.0 L589.1,420.0 L590.0,420.0 L590.8,420.0 L591.6,420.0 L592.5,420.0 L593.3,420.0 L594.2,420.0 L595.0,420.0 L595.8,420.0 L596.7,420.0 L597.5,420.0 L598.4,420.0 L599.2,420.0 L600.1,420.0 L600.9,420.0 L601.7,420.0 L602.6,420.0 L603.4,420.0 L604.3,420.0 L605.1,420.0 L605.9,420.0 L606.8,420.0 L607.6,420.0 L608.5,420.0 L609.3,420.0 L610.2,420.0 L611.0,420.0 L611.8,420.0 L612.7,420.0 L613.5,420.0 L614.4,420.0 L615.2,420.0 L616.0,420.0 L616.9,420.0 L617.7,420.0 L618.6,420.0 L619.4,420.0 L620.3,420.0 L621.1,420.0 L621.9,420.0 L622.8,420.0 L623.6,420.0 L624.5,420.0 L625.3,420.0 L626.1,420.0 L627.0,420.0 L627.8,420.0 L628.7,420.0 L629.5,420.0 L630.4,420.0 L631.2,420.0 L632.0,420.0 L632.9,420.0 L633.7,420.0 L634.6,420.0 L635.4,420.0 L636.2,420.0 L637.1,420.0 L637.9,420.0 L638.8,420.0 L639.6,420.0 L640.4,420.0 L641.3,420.0 L642.1,420.0 L643.0,420.0 L643.8,420.0 L644.7,420.0 L645.5,420.0 L646.3,420.0 L647.2,420.0 L648.0,420.0 L648.9,420.0 L649.7,420.0 L650.5,420.0 L651.4,420.0 L652.2,420.0 L653.1,420.0 L653.9,420.0 L654.8,420.0 L655.6,420.0 L656.4,420.0 L657.3,420.0 L658.1,420.0 L659.0,420.0 L659.8,420.0 L660.6,420.0 L661.5,420.0 L662.3,420.0 L663.2,420.0 L664.0,420.0 L664.9,420.0 L665.7,420.0 L666.5,420.0 L667.4,420.0 L668.2,420.0 L669.1,420.0 L669.9,420.0 L670.7,420.0 L671.6,420.0 L672.4,420.0 L673.3,420.0 L674.1,420.0 L675.0,420.0 L675.8,420.0 L676.6,420.0 L677.5,420.0 L678.3,420.0 L679.2,420.0 L680.0,420.0" stroke="#e377c2" stroke-width="2" fill="none" opacity="0.8"/>

<!-- Legend -->
<line x1="690" y1="70" x2="705" y2="70" stroke="#1f77b4" stroke-width="3"/>
<text x="710" y="74" class="legend">Wind Generation</text>
<line x1="690" y1="88" x2="705" y2="88" stroke="#ff7f0e" stroke-width="3"/>
<text x="710" y="92" class="legend">Hydro Generation</text>
<line x1="690" y1="106" x2="705" y2="106" stroke="#2ca02c" stroke-width="3"/>
<text x="710" y="110" class="legend">Thermal Generation</text>
<line x1="690" y1="124" x2="705" y2="124" stroke="#d62728" stroke-width="3"/>
<text x="710" y="128" class="legend">Solar Generation</text>
<line x1="690" y1="142" x2="705" y2="142" stroke="#9467bd" stroke-width="3"/>
<text x="710" y="146" class="legend">Forecast</text>
<line x1="690" y1="160" x2="705" y2="160" stroke="#8c564b" stroke-width="3"/>
<text x="710" y="164" class="legend">Total Generation</text>
<line x1="690" y1="178" x2="705" y2="178" stroke="#e377c2" stroke-width="3"/>
<text x="710" y="182" class="legend">Forecast Difference</text>

<!-- Date range -->
<text x="80" y="495" class="legend">Range: 03/28 - 04/27/2026 (714 records)</text>
</svg>