<?xml version="1.0" encoding="UTF-8"?>
<svg width="800" height="500" xmlns="http://www.w3.org/2000/svg">
<style>
.axis-line { stroke: #333; stroke-width: 1; }
.grid-line { stroke: #ddd; stroke-width: 0.5; }
.title { font: 16px Arial; text-anchor: middle; fill: #333; }
.axis-label { font: 12px Arial; text-anchor: middle; fill: #666; }
.legend { font: 10px Arial; fill: #333; }
</style>

<!-- Title -->
<text x="400.0" y="25" class="title">Northwestern Energy Generation Data - Past 30 Days</text>

<!-- Plot area background -->
<rect x="80" y="50" width="600" height="370" fill="white" stroke="#ddd"/>

<!-- Y-axis -->
<line x1="80" y1="50" x2="80" y2="420" class="axis-line"/>
<text x="30" y="235.0" class="axis-label" transform="rotate(-90, 30, 235.0)">Generation (MW)</text>

<!-- X-axis -->
<line x1="80" y1="420" x2="680" y2="420" class="axis-line"/>
<text x="380.0" y="480" class="axis-label">Time</text>
<line x1="80" y1="420.0" x2="680" y2="420.0" class="grid-line"/>
<text x="70" y="425.0" class="legend" text-anchor="end">0</text>
<line x1="80" y1="327.5" x2="680" y2="327.5" class="grid-line"/>
<text x="70" y="332.5" class="legend" text-anchor="end">299</text>
<line x1="80" y1="235.0" x2="680" y2="235.0" class="grid-line"/>
<text x="70" y="240.0" class="legend" text-anchor="end">598</text>
<line x1="80" y1="142.5" x2="680" y2="142.5" class="grid-line"/>
<text x="70" y="147.5" class="legend" text-anchor="end">897</text>
<line x1="80" y1="50.0" x2="680" y2="50.0" class="grid-line"/>
<text x="70" y="55.0" class="legend" text-anchor="end">1196</text>
<!-- Wind Generation -->
<path d="M80.0,374.2 L80.8,367.4 L81.7,387.2 L82.5,393.7 L83.4,379.2 L84.2,376.4 L85.1,381.9 L85.9,401.4 L86.7,388.8 L87.6,365.5 L88.4,365.2 L89.3,356.0 L90.1,358.1 L91.0,336.2 L91.8,312.3 L92.6,317.9 L93.5,337.1 L94.3,325.3 L95.2,313.0 L96.0,313.6 L96.9,300.3 L97.7,304.9 L98.5,303.1 L99.4,304.9 L100.2,309.6 L101.1,304.9 L101.9,305.8 L102.8,313.0 L103.6,309.2 L104.4,312.3 L105.3,324.7 L106.1,329.7 L107.0,321.6 L107.8,321.0 L108.7,302.1 L109.5,301.5 L110.3,294.4 L111.2,292.2 L112.0,298.1 L112.9,304.6 L113.7,317.0 L114.6,315.4 L115.4,314.8 L116.2,325.6 L117.1,349.2 L117.9,341.1 L118.8,336.2 L119.6,349.2 L120.4,343.9 L121.3,355.6 L122.1,382.6 L123.0,390.9 L123.8,400.5 L124.7,410.1 L125.5,416.3 L126.3,419.1 L127.2,419.4 L128.0,419.7 L128.9,416.3 L129.7,408.9 L130.6,408.2 L131.4,405.5 L132.2,407.0 L133.1,404.2 L133.9,404.5 L134.8,403.3 L135.6,411.0 L136.5,413.2 L137.3,409.5 L138.1,400.8 L139.0,384.7 L139.8,342.0 L140.7,335.2 L141.5,342.0 L142.4,334.0 L143.2,319.1 L144.0,322.9 L144.9,333.1 L145.7,345.7 L146.6,351.3 L147.4,396.5 L148.3,412.6 L149.1,408.6 L149.9,406.4 L150.8,406.4 L151.6,410.7 L152.5,414.1 L153.3,412.9 L154.2,405.8 L155.0,392.2 L155.8,383.5 L156.7,369.3 L157.5,356.9 L158.4,347.3 L159.2,297.8 L160.1,295.0 L160.9,305.2 L161.7,312.0 L162.6,307.4 L163.4,329.7 L164.3,346.7 L165.1,329.4 L166.0,307.4 L166.8,300.6 L167.6,310.5 L168.5,322.2 L169.3,322.9 L170.2,329.7 L171.0,331.2 L171.9,330.6 L172.7,323.2 L173.5,334.3 L174.4,341.7 L175.2,343.0 L176.1,345.4 L176.9,351.3 L177.8,355.0 L178.6,328.1 L179.4,304.3 L180.3,299.7 L181.1,298.4 L182.0,304.0 L182.8,292.8 L183.7,294.7 L184.5,317.0 L185.3,318.8 L186.2,314.5 L187.0,303.7 L187.9,301.2 L188.7,322.2 L189.6,324.7 L190.4,328.4 L191.2,328.7 L192.1,323.5 L192.9,346.4 L193.8,334.3 L194.6,318.2 L195.4,295.6 L196.3,311.1 L197.1,297.2 L198.0,297.2 L198.8,308.6 L199.7,305.2 L200.5,333.4 L201.3,314.8 L202.2,313.0 L203.0,309.9 L203.9,318.8 L204.7,321.0 L205.6,338.6 L206.4,331.8 L207.2,345.7 L208.1,359.4 L208.9,338.6 L209.8,315.1 L210.6,327.2 L211.5,318.5 L212.3,309.6 L213.1,310.2 L214.0,298.7 L214.8,292.2 L215.7,311.1 L216.5,343.3 L217.4,360.9 L218.2,347.9 L219.0,341.7 L219.9,317.6 L220.7,310.8 L221.6,322.9 L222.4,366.5 L223.3,384.4 L224.1,387.2 L224.9,367.7 L225.8,358.4 L226.6,332.4 L227.5,300.3 L228.3,300.0 L229.2,314.8 L230.0,322.5 L230.8,313.3 L231.7,333.1 L232.5,368.6 L233.4,404.8 L234.2,416.0 L235.1,410.7 L235.9,409.5 L236.7,407.0 L237.6,401.4 L238.4,393.4 L239.3,377.3 L240.1,378.2 L241.0,374.8 L241.8,387.5 L242.6,382.6 L243.5,372.4 L244.3,364.6 L245.2,359.7 L246.0,355.0 L246.9,354.7 L247.7,356.0 L248.5,354.7 L249.4,356.0 L250.2,376.4 L251.1,382.9 L251.9,390.9 L252.8,377.0 L253.6,373.0 L254.4,379.2 L255.3,367.7 L256.1,374.2 L257.0,366.5 L257.8,374.8 L258.7,372.7 L259.5,340.8 L260.3,338.0 L261.2,335.5 L262.0,325.3 L262.9,321.9 L263.7,313.6 L264.6,327.8 L265.4,309.9 L266.2,310.8 L267.1,343.0 L267.9,344.8 L268.8,354.7 L269.6,355.6 L270.4,357.8 L271.3,338.3 L272.1,334.3 L273.0,337.4 L273.8,337.7 L274.7,336.5 L275.5,336.2 L276.3,334.6 L277.2,359.7 L278.0,342.3 L278.9,350.4 L279.7,336.8 L280.6,330.0 L281.4,330.6 L282.2,333.4 L283.1,345.4 L283.9,342.0 L284.8,335.8 L285.6,341.1 L286.5,337.7 L287.3,334.3 L288.1,337.7 L289.0,345.4 L289.8,334.9 L290.7,338.6 L291.5,338.3 L292.4,333.7 L293.2,334.6 L294.0,329.7 L294.9,329.0 L295.7,328.7 L296.6,330.3 L297.4,332.4 L298.3,337.7 L299.1,339.3 L299.9,343.6 L300.8,342.0 L301.6,367.1 L302.5,360.9 L303.3,364.6 L304.2,361.2 L305.0,396.5 L305.8,405.8 L306.7,399.0 L307.5,396.8 L308.4,396.5 L309.2,410.4 L310.1,409.5 L310.9,413.5 L311.7,416.0 L312.6,417.5 L313.4,415.4 L314.3,416.9 L315.1,416.3 L316.0,412.6 L316.8,402.7 L317.6,402.4 L318.5,413.2 L319.3,415.0 L320.2,410.1 L321.0,409.5 L321.9,405.8 L322.7,403.0 L323.5,405.1 L324.4,400.8 L325.2,403.3 L326.1,397.7 L326.9,380.7 L327.8,355.0 L328.6,355.3 L329.4,367.4 L330.3,356.6 L331.1,373.3 L332.0,361.8 L332.8,333.1 L333.7,332.8 L334.5,313.6 L335.3,342.0 L336.2,326.9 L337.0,342.0 L337.9,348.5 L338.7,366.8 L339.6,395.6 L340.4,403.9 L341.2,412.6 L342.1,407.9 L342.9,412.9 L343.8,412.9 L344.6,414.4 L345.4,415.4 L346.3,407.9 L347.1,404.8 L348.0,403.6 L348.8,394.0 L349.7,387.5 L350.5,392.5 L351.3,399.9 L352.2,399.6 L353.0,390.0 L353.9,401.4 L354.7,395.6 L355.6,372.4 L356.4,372.4 L357.2,393.4 L358.1,398.0 L358.9,409.8 L359.8,407.0 L360.6,397.7 L361.5,411.3 L362.3,418.1 L363.1,414.4 L364.0,403.3 L364.8,403.6 L365.7,415.0 L366.5,418.5 L367.4,418.1 L368.2,417.5 L369.0,418.5 L369.9,416.3 L370.7,416.3 L371.6,415.4 L372.4,408.6 L373.3,407.3 L374.1,416.3 L374.9,413.8 L375.8,413.2 L376.6,411.0 L377.5,406.4 L378.3,402.1 L379.2,409.2 L380.0,412.0 L380.8,415.7 L381.7,411.6 L382.5,417.5 L383.4,416.3 L384.2,415.4 L385.1,399.6 L385.9,382.9 L386.7,370.5 L387.6,366.5 L388.4,362.5 L389.3,365.9 L390.1,340.8 L391.0,316.7 L391.8,335.2 L392.6,341.7 L393.5,338.6 L394.3,317.0 L395.2,318.8 L396.0,351.6 L396.9,348.5 L397.7,343.9 L398.5,345.1 L399.4,353.5 L400.2,372.7 L401.1,372.7 L401.9,370.8 L402.8,356.9 L403.6,351.6 L404.4,369.9 L405.3,338.3 L406.1,321.6 L407.0,300.3 L407.8,355.3 L408.7,353.8 L409.5,339.6 L410.3,375.1 L411.2,378.5 L412.0,379.5 L412.9,372.4 L413.7,368.3 L414.6,365.9 L415.4,365.2 L416.2,311.7 L417.1,327.8 L417.9,337.7 L418.8,295.9 L419.6,289.4 L420.4,305.8 L421.3,309.6 L422.1,305.5 L423.0,296.2 L423.8,304.3 L424.7,329.7 L425.5,343.6 L426.3,347.0 L427.2,353.8 L428.0,363.4 L428.9,340.8 L429.7,329.7 L430.6,339.6 L431.4,301.8 L432.2,300.6 L433.1,305.8 L433.9,330.6 L434.8,334.3 L435.6,340.5 L436.5,342.3 L437.3,341.4 L438.1,326.3 L439.0,323.2 L439.8,338.3 L440.7,334.3 L441.5,315.1 L442.4,321.0 L443.2,330.3 L444.0,349.2 L444.9,354.4 L445.7,361.8 L446.6,359.4 L447.4,354.7 L448.3,348.8 L449.1,351.6 L449.9,345.4 L450.8,342.3 L451.6,320.4 L452.5,308.6 L453.3,302.1 L454.2,302.4 L455.0,303.4 L455.8,299.0 L456.7,299.3 L457.5,295.9 L458.4,296.6 L459.2,300.6 L460.1,299.7 L460.9,299.7 L461.7,303.7 L462.6,307.7 L463.4,302.4 L464.3,300.9 L465.1,303.4 L466.0,301.5 L466.8,297.8 L467.6,305.5 L468.5,301.2 L469.3,302.1 L470.2,299.0 L471.0,302.1 L471.9,308.3 L472.7,309.9 L473.5,319.1 L474.4,297.5 L475.2,295.6 L476.1,298.1 L476.9,294.4 L477.8,295.9 L478.6,293.2 L479.4,293.8 L480.3,301.5 L481.1,314.2 L482.0,310.2 L482.8,309.9 L483.7,311.7 L484.5,315.1 L485.3,313.9 L486.2,320.7 L487.0,317.9 L487.9,330.0 L488.7,327.2 L489.6,321.9 L490.4,338.9 L491.2,348.5 L492.1,332.1 L492.9,330.6 L493.8,332.1 L494.6,332.4 L495.4,318.8 L496.3,317.3 L497.1,315.1 L498.0,316.7 L498.8,314.8 L499.7,313.3 L500.5,309.9 L501.3,324.4 L502.2,322.5 L503.0,320.4 L503.9,317.6 L504.7,326.6 L505.6,321.3 L506.4,314.2 L507.2,315.4 L508.1,315.7 L508.9,320.1 L509.8,324.4 L510.6,318.5 L511.5,320.4 L512.3,328.7 L513.1,322.5 L514.0,330.6 L514.8,328.1 L515.7,325.0 L516.5,306.1 L517.4,309.2 L518.2,311.4 L519.0,306.5 L519.9,305.2 L520.7,306.5 L521.6,301.5 L522.4,297.8 L523.3,291.9 L524.1,288.8 L524.9,287.9 L525.8,298.1 L526.6,306.1 L527.5,352.6 L528.3,362.1 L529.2,366.2 L530.0,379.8 L530.8,394.9 L531.7,385.3 L532.5,399.6 L533.4,407.9 L534.2,409.5 L535.1,411.6 L535.9,414.4 L536.7,414.1 L537.6,407.3 L538.4,400.8 L539.3,396.8 L540.1,361.5 L541.0,321.9 L541.8,310.5 L542.6,310.8 L543.5,317.0 L544.3,316.0 L545.2,305.8 L546.0,307.7 L546.9,316.4 L547.7,310.8 L548.5,317.3 L549.4,313.0 L550.2,329.7 L551.1,320.1 L551.9,309.9 L552.8,313.9 L553.6,306.8 L554.4,297.8 L555.3,293.8 L556.1,291.0 L557.0,286.0 L557.8,314.2 L558.7,324.1 L559.5,310.2 L560.3,321.0 L561.2,303.4 L562.0,292.8 L562.9,293.8 L563.7,295.3 L564.6,298.4 L565.4,297.5 L566.2,331.5 L567.1,343.0 L567.9,346.4 L568.8,366.8 L569.6,399.6 L570.4,411.0 L571.3,415.0 L572.1,415.0 L573.0,416.3 L573.8,408.6 L574.7,407.0 L575.5,393.1 L576.3,375.4 L577.2,365.2 L578.0,365.9 L578.9,371.1 L579.7,370.8 L580.6,360.6 L581.4,367.4 L582.2,364.3 L583.1,366.2 L583.9,325.6 L584.8,355.0 L585.6,366.5 L586.5,366.2 L587.3,366.2 L588.1,351.0 L589.0,318.2 L589.8,304.6 L590.7,330.0 L591.5,324.4 L592.4,320.7 L593.2,321.9 L594.0,335.2 L594.9,352.2 L595.7,333.1 L596.6,290.4 L597.4,293.8 L598.3,318.5 L599.1,310.2 L599.9,308.0 L600.8,339.3 L601.6,344.5 L602.5,347.9 L603.3,350.7 L604.2,361.5 L605.0,345.7 L605.8,341.4 L606.7,313.6 L607.5,300.6 L608.4,303.1 L609.2,321.0 L610.1,335.5 L610.9,340.5 L611.7,352.2 L612.6,369.0 L613.4,364.0 L614.3,366.2 L615.1,333.4 L616.0,333.4 L616.8,300.0 L617.6,292.5 L618.5,290.1 L619.3,295.3 L620.2,312.0 L621.0,324.7 L621.9,316.7 L622.7,331.2 L623.5,327.2 L624.4,348.5 L625.2,348.5 L626.1,323.5 L626.9,290.4 L627.8,290.7 L628.6,295.9 L629.4,289.1 L630.3,288.5 L631.1,287.6 L632.0,287.6 L632.8,293.2 L633.7,302.1 L634.5,307.1 L635.3,308.0 L636.2,317.6 L637.0,316.0 L637.9,318.8 L638.7,307.4 L639.6,319.5 L640.4,335.8 L641.2,335.8 L642.1,300.6 L642.9,305.2 L643.8,310.2 L644.6,302.1 L645.4,305.8 L646.3,293.8 L647.1,319.8 L648.0,325.0 L648.8,330.6 L649.7,311.4 L650.5,299.3 L651.3,344.5 L652.2,313.6 L653.0,344.8 L653.9,305.5 L654.7,300.9 L655.6,297.8 L656.4,291.9 L657.2,289.4 L658.1,292.8 L658.9,301.5 L659.8,293.2 L660.6,292.8 L661.5,290.7 L662.3,295.6 L663.1,308.9 L664.0,358.7 L664.8,351.3 L665.7,385.0 L666.5,382.6 L667.4,377.6 L668.2,372.7 L669.0,395.6 L669.9,409.8 L670.7,407.6 L671.6,399.9 L672.4,392.8 L673.3,389.7 L674.1,373.9 L674.9,372.4 L675.8,356.3 L676.6,326.6 L677.5,309.9 L678.3,298.7 L679.2,297.5 L680.0,289.4" stroke="#1f77b4" stroke-width="2" fill="none" opacity="0.8"/>
<!-- Hydro Generation -->
<path d="M80.0,346.7 L80.8,346.7 L81.7,346.4 L82.5,347.0 L83.4,346.7 L84.2,346.7 L85.1,345.7 L85.9,346.1 L86.7,345.4 L87.6,345.4 L88.4,344.8 L89.3,354.1 L90.1,354.1 L91.0,353.8 L91.8,354.1 L92.6,344.5 L93.5,344.5 L94.3,343.9 L95.2,344.5 L96.0,344.5 L96.9,344.5 L97.7,344.2 L98.5,344.2 L99.4,344.2 L100.2,344.8 L101.1,344.8 L101.9,344.5 L102.8,344.2 L103.6,344.2 L104.4,344.2 L105.3,344.2 L106.1,344.5 L107.0,344.2 L107.8,343.6 L108.7,342.7 L109.5,343.0 L110.3,343.0 L111.2,341.1 L112.0,341.7 L112.9,339.9 L113.7,338.9 L114.6,338.9 L115.4,338.9 L116.2,338.9 L117.1,339.6 L117.9,340.5 L118.8,340.2 L119.6,340.5 L120.4,340.8 L121.3,340.5 L122.1,340.8 L123.0,340.8 L123.8,340.8 L124.7,341.4 L125.5,341.1 L126.3,340.8 L127.2,341.1 L128.0,340.8 L128.9,340.8 L129.7,340.5 L130.6,340.5 L131.4,340.5 L132.2,340.5 L133.1,340.2 L133.9,340.5 L134.8,340.8 L135.6,340.8 L136.5,341.1 L137.3,340.8 L138.1,341.1 L139.0,341.4 L139.8,340.8 L140.7,340.5 L141.5,340.8 L142.4,340.8 L143.2,340.8 L144.0,340.5 L144.9,341.4 L145.7,339.6 L146.6,339.6 L147.4,339.9 L148.3,339.9 L149.1,340.2 L149.9,339.6 L150.8,339.9 L151.6,339.6 L152.5,340.2 L153.3,340.5 L154.2,339.9 L155.0,339.6 L155.8,339.6 L156.7,340.8 L157.5,341.4 L158.4,341.4 L159.2,340.8 L160.1,341.1 L160.9,340.8 L161.7,341.1 L162.6,340.2 L163.4,340.5 L164.3,340.2 L165.1,340.2 L166.0,339.9 L166.8,340.2 L167.6,340.2 L168.5,339.9 L169.3,339.9 L170.2,339.9 L171.0,339.9 L171.9,339.9 L172.7,338.6 L173.5,338.3 L174.4,338.6 L175.2,338.6 L176.1,338.9 L176.9,338.9 L177.8,338.6 L178.6,340.2 L179.4,340.2 L180.3,340.2 L181.1,340.2 L182.0,340.2 L182.8,340.8 L183.7,340.2 L184.5,340.8 L185.3,338.9 L186.2,339.3 L187.0,339.3 L187.9,338.6 L188.7,339.3 L189.6,339.6 L190.4,339.6 L191.2,339.3 L192.1,339.3 L192.9,338.3 L193.8,338.3 L194.6,336.5 L195.4,336.2 L196.3,334.9 L197.1,335.5 L198.0,336.2 L198.8,336.2 L199.7,336.5 L200.5,336.5 L201.3,336.2 L202.2,336.2 L203.0,335.8 L203.9,336.5 L204.7,334.6 L205.6,334.0 L206.4,334.3 L207.2,334.6 L208.1,334.3 L208.9,334.0 L209.8,334.6 L210.6,334.3 L211.5,334.3 L212.3,334.3 L213.1,334.0 L214.0,334.6 L214.8,334.6 L215.7,334.9 L216.5,334.6 L217.4,334.6 L218.2,334.6 L219.0,334.6 L219.9,335.8 L220.7,335.8 L221.6,335.8 L222.4,336.2 L223.3,336.2 L224.1,336.5 L224.9,337.1 L225.8,337.1 L226.6,337.4 L227.5,336.8 L228.3,336.8 L229.2,362.1 L230.0,362.5 L230.8,363.7 L231.7,365.9 L232.5,364.9 L233.4,365.2 L234.2,364.3 L235.1,347.3 L235.9,369.6 L236.7,368.3 L237.6,349.8 L238.4,354.1 L239.3,346.7 L240.1,345.7 L241.0,345.1 L241.8,345.1 L242.6,345.1 L243.5,346.1 L244.3,345.1 L245.2,344.8 L246.0,345.1 L246.9,345.4 L247.7,344.8 L248.5,345.1 L249.4,342.0 L250.2,341.7 L251.1,343.0 L251.9,343.3 L252.8,341.7 L253.6,342.3 L254.4,342.3 L255.3,342.3 L256.1,342.3 L257.0,342.0 L257.8,342.7 L258.7,338.3 L259.5,337.1 L260.3,337.1 L261.2,336.8 L262.0,336.8 L262.9,336.8 L263.7,336.5 L264.6,336.2 L265.4,336.5 L266.2,336.2 L267.1,336.5 L267.9,336.5 L268.8,336.5 L269.6,336.8 L270.4,337.4 L271.3,336.2 L272.1,337.4 L273.0,338.3 L273.8,337.7 L274.7,338.0 L275.5,338.3 L276.3,338.0 L277.2,337.7 L278.0,338.0 L278.9,338.3 L279.7,338.0 L280.6,338.0 L281.4,338.0 L282.2,337.4 L283.1,337.4 L283.9,336.8 L284.8,337.1 L285.6,336.5 L286.5,336.8 L287.3,336.8 L288.1,336.8 L289.0,336.8 L289.8,337.1 L290.7,337.4 L291.5,337.7 L292.4,339.3 L293.2,338.9 L294.0,338.6 L294.9,338.9 L295.7,338.6 L296.6,338.9 L297.4,338.3 L298.3,338.6 L299.1,339.3 L299.9,338.9 L300.8,338.6 L301.6,338.3 L302.5,338.3 L303.3,338.9 L304.2,338.3 L305.0,338.9 L305.8,338.6 L306.7,338.6 L307.5,338.9 L308.4,338.6 L309.2,339.6 L310.1,339.6 L310.9,340.8 L311.7,340.8 L312.6,340.5 L313.4,340.8 L314.3,341.1 L315.1,341.1 L316.0,340.5 L316.8,340.8 L317.6,341.4 L318.5,341.4 L319.3,342.0 L320.2,342.0 L321.0,341.7 L321.9,342.0 L322.7,339.9 L323.5,339.6 L324.4,339.3 L325.2,338.0 L326.1,337.4 L326.9,337.4 L327.8,336.8 L328.6,336.2 L329.4,336.2 L330.3,336.5 L331.1,336.2 L332.0,337.1 L332.8,336.5 L333.7,336.2 L334.5,336.2 L335.3,335.8 L336.2,336.5 L337.0,336.5 L337.9,335.8 L338.7,336.2 L339.6,336.2 L340.4,335.8 L341.2,335.8 L342.1,336.2 L342.9,336.2 L343.8,337.7 L344.6,335.8 L345.4,336.2 L346.3,336.2 L347.1,334.9 L348.0,335.5 L348.8,335.8 L349.7,335.8 L350.5,336.5 L351.3,336.5 L352.2,337.4 L353.0,337.4 L353.9,337.7 L354.7,337.4 L355.6,337.4 L356.4,338.0 L357.2,338.6 L358.1,338.9 L358.9,339.9 L359.8,339.6 L360.6,339.6 L361.5,339.9 L362.3,339.9 L363.1,339.6 L364.0,339.6 L364.8,337.7 L365.7,338.6 L366.5,336.5 L367.4,336.5 L368.2,336.8 L369.0,336.8 L369.9,336.5 L370.7,337.1 L371.6,336.8 L372.4,336.8 L373.3,336.2 L374.1,336.2 L374.9,336.2 L375.8,336.2 L376.6,336.2 L377.5,335.8 L378.3,336.2 L379.2,335.5 L380.0,336.2 L380.8,336.2 L381.7,335.8 L382.5,335.8 L383.4,335.5 L384.2,335.5 L385.1,335.8 L385.9,335.8 L386.7,335.8 L387.6,335.5 L388.4,335.5 L389.3,335.8 L390.1,335.8 L391.0,335.8 L391.8,335.8 L392.6,336.5 L393.5,335.8 L394.3,335.8 L395.2,335.5 L396.0,336.2 L396.9,335.8 L397.7,336.2 L398.5,335.8 L399.4,335.8 L400.2,336.2 L401.1,335.8 L401.9,335.5 L402.8,335.8 L403.6,335.5 L404.4,335.5 L405.3,335.8 L406.1,335.5 L407.0,335.8 L407.8,334.0 L408.7,334.0 L409.5,334.0 L410.3,334.0 L411.2,334.0 L412.0,334.0 L412.9,333.1 L413.7,332.8 L414.6,333.1 L415.4,332.8 L416.2,332.8 L417.1,331.8 L417.9,332.1 L418.8,331.5 L419.6,331.8 L420.4,331.5 L421.3,331.5 L422.1,331.5 L423.0,333.4 L423.8,333.7 L424.7,333.7 L425.5,333.7 L426.3,333.7 L427.2,333.7 L428.0,333.7 L428.9,333.7 L429.7,333.7 L430.6,334.0 L431.4,334.0 L432.2,335.2 L433.1,335.8 L433.9,336.2 L434.8,337.4 L435.6,336.5 L436.5,337.4 L437.3,337.4 L438.1,337.4 L439.0,338.6 L439.8,338.6 L440.7,338.3 L441.5,338.6 L442.4,338.6 L443.2,338.9 L444.0,338.3 L444.9,337.7 L445.7,338.3 L446.6,338.6 L447.4,337.7 L448.3,338.3 L449.1,338.3 L449.9,338.6 L450.8,338.6 L451.6,338.9 L452.5,339.3 L453.3,339.9 L454.2,341.7 L455.0,341.4 L455.8,341.4 L456.7,341.7 L457.5,345.1 L458.4,345.4 L459.2,346.1 L460.1,347.0 L460.9,348.5 L461.7,348.5 L462.6,348.8 L463.4,348.8 L464.3,349.5 L465.1,349.2 L466.0,350.1 L466.8,351.6 L467.6,353.5 L468.5,355.0 L469.3,356.0 L470.2,360.6 L471.0,363.4 L471.9,362.8 L472.7,363.4 L473.5,363.7 L474.4,363.7 L475.2,363.4 L476.1,363.7 L476.9,363.4 L477.8,363.4 L478.6,361.8 L479.4,354.7 L480.3,352.6 L481.1,351.9 L482.0,351.6 L482.8,351.9 L483.7,351.9 L484.5,352.2 L485.3,352.2 L486.2,351.9 L487.0,352.2 L487.9,351.6 L488.7,351.9 L489.6,351.9 L490.4,352.2 L491.2,351.6 L492.1,351.9 L492.9,350.4 L493.8,348.5 L494.6,346.7 L495.4,345.1 L496.3,344.2 L497.1,343.0 L498.0,340.5 L498.8,339.3 L499.7,337.7 L500.5,336.5 L501.3,336.2 L502.2,335.2 L503.0,333.7 L503.9,332.4 L504.7,331.2 L505.6,330.0 L506.4,328.4 L507.2,328.7 L508.1,329.4 L508.9,329.7 L509.8,330.3 L510.6,330.6 L511.5,330.6 L512.3,331.2 L513.1,331.2 L514.0,330.9 L514.8,331.2 L515.7,329.7 L516.5,329.7 L517.4,328.1 L518.2,328.4 L519.0,326.9 L519.9,327.5 L520.7,327.2 L521.6,326.6 L522.4,326.9 L523.3,326.3 L524.1,325.9 L524.9,326.6 L525.8,325.9 L526.6,326.3 L527.5,326.6 L528.3,326.9 L529.2,326.9 L530.0,326.9 L530.8,326.9 L531.7,326.6 L532.5,327.2 L533.4,327.8 L534.2,328.7 L535.1,329.7 L535.9,329.4 L536.7,329.7 L537.6,330.0 L538.4,329.7 L539.3,329.0 L540.1,327.8 L541.0,327.5 L541.8,326.9 L542.6,327.2 L543.5,327.2 L544.3,327.2 L545.2,327.5 L546.0,326.6 L546.9,326.9 L547.7,327.5 L548.5,327.8 L549.4,328.7 L550.2,329.4 L551.1,329.0 L551.9,329.7 L552.8,330.0 L553.6,330.3 L554.4,330.6 L555.3,330.3 L556.1,330.6 L557.0,330.9 L557.8,330.9 L558.7,330.9 L559.5,330.3 L560.3,332.1 L561.2,332.8 L562.0,332.4 L562.9,332.4 L563.7,334.0 L564.6,335.5 L565.4,335.5 L566.2,336.5 L567.1,336.2 L567.9,336.2 L568.8,336.2 L569.6,336.8 L570.4,335.8 L571.3,335.8 L572.1,335.8 L573.0,335.8 L573.8,335.2 L574.7,335.2 L575.5,335.5 L576.3,335.5 L577.2,335.2 L578.0,335.5 L578.9,335.2 L579.7,335.2 L580.6,335.5 L581.4,335.5 L582.2,335.2 L583.1,335.5 L583.9,335.2 L584.8,335.2 L585.6,334.3 L586.5,334.3 L587.3,334.3 L588.1,334.3 L589.0,333.4 L589.8,334.0 L590.7,334.0 L591.5,334.0 L592.4,334.0 L593.2,334.3 L594.0,334.0 L594.9,333.7 L595.7,333.7 L596.6,334.0 L597.4,334.3 L598.3,334.0 L599.1,334.3 L599.9,334.0 L600.8,334.3 L601.6,334.0 L602.5,334.9 L603.3,335.2 L604.2,336.5 L605.0,336.5 L605.8,335.5 L606.7,337.7 L607.5,337.7 L608.4,337.1 L609.2,337.1 L610.1,337.1 L610.9,337.1 L611.7,335.8 L612.6,336.8 L613.4,336.2 L614.3,336.8 L615.1,336.8 L616.0,335.8 L616.8,336.2 L617.6,336.5 L618.5,336.5 L619.3,336.2 L620.2,335.5 L621.0,336.5 L621.9,336.2 L622.7,336.8 L623.5,336.5 L624.4,335.5 L625.2,335.2 L626.1,334.9 L626.9,335.2 L627.8,335.2 L628.6,334.9 L629.4,334.9 L630.3,334.6 L631.1,335.5 L632.0,335.5 L632.8,335.2 L633.7,337.1 L634.5,336.8 L635.3,335.8 L636.2,335.8 L637.0,335.8 L637.9,336.8 L638.7,336.5 L639.6,336.2 L640.4,336.8 L641.2,336.5 L642.1,336.8 L642.9,337.1 L643.8,337.1 L644.6,337.1 L645.4,336.8 L646.3,337.1 L647.1,337.1 L648.0,338.3 L648.8,338.9 L649.7,338.9 L650.5,339.3 L651.3,339.3 L652.2,339.6 L653.0,339.3 L653.9,341.1 L654.7,341.1 L655.6,341.1 L656.4,341.7 L657.2,341.1 L658.1,341.7 L658.9,341.4 L659.8,341.4 L660.6,341.7 L661.5,341.4 L662.3,340.8 L663.1,340.2 L664.0,340.5 L664.8,340.2 L665.7,340.2 L666.5,340.5 L667.4,340.5 L668.2,340.5 L669.0,340.2 L669.9,340.5 L670.7,340.5 L671.6,340.8 L672.4,341.1 L673.3,341.1 L674.1,340.5 L674.9,340.2 L675.8,341.1 L676.6,340.2 L677.5,340.2 L678.3,340.8 L679.2,340.5 L680.0,341.1" stroke="#ff7f0e" stroke-width="2" fill="none" opacity="0.8"/>
<!-- Thermal Generation -->
<path d="M80.0,327.5 L80.8,337.1 L81.7,347.0 L82.5,350.7 L83.4,355.0 L84.2,355.6 L85.1,348.8 L85.9,339.9 L86.7,321.0 L87.6,324.1 L88.4,352.9 L89.3,360.6 L90.1,359.1 L91.0,358.7 L91.8,358.1 L92.6,358.4 L93.5,358.7 L94.3,359.4 L95.2,362.8 L96.0,360.6 L96.9,359.7 L97.7,360.3 L98.5,359.4 L99.4,359.1 L100.2,358.4 L101.1,360.9 L101.9,360.0 L102.8,359.4 L103.6,363.1 L104.4,362.8 L105.3,360.6 L106.1,340.2 L107.0,313.6 L107.8,305.8 L108.7,356.3 L109.5,341.4 L110.3,341.4 L111.2,334.0 L112.0,334.0 L112.9,335.2 L113.7,333.7 L114.6,327.5 L115.4,302.7 L116.2,324.4 L117.1,327.5 L117.9,319.5 L118.8,327.2 L119.6,328.7 L120.4,327.5 L121.3,338.6 L122.1,347.0 L123.0,348.5 L123.8,349.5 L124.7,335.8 L125.5,317.6 L126.3,291.3 L127.2,280.8 L128.0,275.8 L128.9,314.5 L129.7,316.0 L130.6,317.9 L131.4,324.4 L132.2,323.5 L133.1,325.0 L133.9,324.1 L134.8,323.2 L135.6,272.4 L136.5,271.5 L137.3,282.3 L138.1,301.8 L139.0,313.6 L139.8,313.0 L140.7,323.5 L141.5,323.8 L142.4,323.2 L143.2,323.8 L144.0,324.1 L144.9,324.7 L145.7,324.7 L146.6,322.2 L147.4,321.9 L148.3,321.6 L149.1,325.0 L149.9,324.7 L150.8,325.0 L151.6,325.0 L152.5,324.7 L153.3,324.4 L154.2,324.7 L155.0,324.4 L155.8,292.5 L156.7,273.7 L157.5,307.1 L158.4,322.5 L159.2,324.1 L160.1,323.5 L160.9,322.9 L161.7,322.5 L162.6,323.5 L163.4,322.2 L164.3,322.5 L165.1,323.2 L166.0,322.5 L166.8,305.5 L167.6,295.3 L168.5,300.3 L169.3,322.9 L170.2,322.5 L171.0,322.9 L171.9,321.6 L172.7,321.9 L173.5,322.2 L174.4,322.9 L175.2,322.5 L176.1,301.8 L176.9,279.2 L177.8,320.4 L178.6,321.6 L179.4,321.6 L180.3,321.6 L181.1,321.6 L182.0,321.9 L182.8,321.3 L183.7,371.7 L184.5,372.4 L185.3,372.4 L186.2,360.9 L187.0,347.3 L187.9,322.2 L188.7,320.1 L189.6,321.6 L190.4,318.2 L191.2,316.7 L192.1,317.9 L192.9,317.9 L193.8,317.9 L194.6,318.5 L195.4,319.1 L196.3,319.8 L197.1,310.8 L198.0,320.1 L198.8,320.4 L199.7,353.8 L200.5,360.3 L201.3,368.6 L202.2,368.3 L203.0,369.0 L203.9,369.6 L204.7,369.3 L205.6,369.0 L206.4,368.6 L207.2,367.4 L208.1,359.7 L208.9,359.4 L209.8,359.4 L210.6,359.7 L211.5,372.0 L212.3,368.6 L213.1,372.0 L214.0,372.0 L214.8,372.4 L215.7,372.0 L216.5,372.4 L217.4,372.0 L218.2,355.0 L219.0,356.0 L219.9,354.7 L220.7,371.4 L221.6,372.0 L222.4,371.4 L223.3,371.4 L224.1,371.4 L224.9,372.0 L225.8,372.4 L226.6,372.4 L227.5,371.7 L228.3,372.4 L229.2,371.4 L230.0,372.4 L230.8,350.1 L231.7,350.7 L232.5,377.3 L233.4,349.8 L234.2,356.9 L235.1,357.5 L235.9,420.0 L236.7,420.0 L237.6,409.2 L238.4,409.8 L239.3,409.8 L240.1,407.3 L241.0,406.7 L241.8,398.3 L242.6,396.5 L243.5,401.4 L244.3,402.1 L245.2,402.1 L246.0,402.1 L246.9,401.7 L247.7,402.1 L248.5,401.7 L249.4,401.1 L250.2,401.4 L251.1,400.8 L251.9,401.4 L252.8,401.4 L253.6,394.6 L254.4,394.0 L255.3,396.5 L256.1,393.4 L257.0,393.4 L257.8,395.9 L258.7,388.1 L259.5,387.5 L260.3,389.4 L261.2,395.2 L262.0,395.2 L262.9,395.9 L263.7,402.1 L264.6,391.5 L265.4,390.3 L266.2,392.2 L267.1,392.2 L267.9,392.5 L268.8,392.5 L269.6,377.3 L270.4,364.3 L271.3,361.2 L272.1,346.1 L273.0,347.3 L273.8,344.2 L274.7,342.0 L275.5,354.1 L276.3,334.0 L277.2,326.9 L278.0,326.9 L278.9,327.2 L279.7,328.4 L280.6,329.7 L281.4,329.0 L282.2,362.1 L283.1,332.8 L283.9,344.2 L284.8,380.1 L285.6,379.8 L286.5,380.1 L287.3,380.4 L288.1,379.8 L289.0,364.9 L289.8,365.9 L290.7,359.4 L291.5,349.2 L292.4,347.6 L293.2,345.1 L294.0,361.5 L294.9,364.3 L295.7,367.1 L296.6,367.1 L297.4,345.4 L298.3,328.4 L299.1,347.0 L299.9,351.6 L300.8,346.1 L301.6,325.3 L302.5,356.3 L303.3,348.2 L304.2,361.5 L305.0,367.7 L305.8,367.7 L306.7,368.0 L307.5,360.3 L308.4,359.7 L309.2,348.8 L310.1,348.5 L310.9,351.0 L311.7,327.5 L312.6,332.8 L313.4,338.3 L314.3,337.4 L315.1,330.9 L316.0,335.5 L316.8,336.2 L317.6,309.2 L318.5,309.2 L319.3,316.0 L320.2,313.0 L321.0,327.8 L321.9,327.8 L322.7,327.5 L323.5,330.3 L324.4,339.6 L325.2,355.6 L326.1,374.2 L326.9,374.5 L327.8,375.1 L328.6,369.0 L329.4,356.0 L330.3,356.9 L331.1,349.5 L332.0,342.0 L332.8,330.9 L333.7,331.5 L334.5,345.4 L335.3,345.1 L336.2,356.9 L337.0,356.6 L337.9,343.3 L338.7,330.6 L339.6,315.7 L340.4,304.0 L341.2,307.1 L342.1,317.0 L342.9,339.9 L343.8,339.3 L344.6,340.2 L345.4,339.9 L346.3,338.9 L347.1,357.5 L348.0,342.7 L348.8,336.5 L349.7,337.1 L350.5,337.4 L351.3,338.9 L352.2,343.3 L353.0,338.9 L353.9,354.4 L354.7,362.8 L355.6,364.0 L356.4,338.0 L357.2,338.0 L358.1,338.3 L358.9,340.2 L359.8,338.0 L360.6,358.1 L361.5,337.7 L362.3,363.4 L363.1,364.0 L364.0,362.1 L364.8,362.5 L365.7,360.0 L366.5,362.5 L367.4,363.1 L368.2,362.5 L369.0,362.8 L369.9,339.3 L370.7,336.8 L371.6,336.8 L372.4,336.5 L373.3,337.1 L374.1,337.4 L374.9,340.2 L375.8,340.2 L376.6,357.8 L377.5,337.1 L378.3,337.4 L379.2,337.4 L380.0,362.1 L380.8,362.1 L381.7,362.8 L382.5,362.1 L383.4,362.1 L384.2,362.5 L385.1,362.5 L385.9,368.0 L386.7,383.2 L387.6,390.6 L388.4,390.6 L389.3,390.3 L390.1,390.3 L391.0,391.5 L391.8,390.9 L392.6,389.4 L393.5,390.0 L394.3,390.0 L395.2,390.9 L396.0,390.9 L396.9,390.6 L397.7,390.3 L398.5,390.0 L399.4,390.6 L400.2,390.0 L401.1,389.7 L401.9,390.0 L402.8,390.9 L403.6,390.3 L404.4,390.0 L405.3,390.0 L406.1,390.9 L407.0,390.6 L407.8,390.6 L408.7,390.0 L409.5,390.0 L410.3,390.6 L411.2,390.0 L412.0,390.6 L412.9,390.0 L413.7,390.3 L414.6,390.6 L415.4,391.2 L416.2,390.6 L417.1,390.9 L417.9,390.9 L418.8,390.0 L419.6,379.5 L420.4,381.9 L421.3,390.3 L422.1,388.8 L423.0,389.4 L423.8,389.1 L424.7,389.4 L425.5,389.7 L426.3,390.0 L427.2,389.7 L428.0,389.7 L428.9,390.0 L429.7,389.7 L430.6,389.7 L431.4,390.3 L432.2,390.0 L433.1,390.9 L433.9,390.3 L434.8,390.0 L435.6,390.0 L436.5,389.7 L437.3,389.4 L438.1,390.0 L439.0,390.3 L439.8,375.8 L440.7,374.8 L441.5,371.7 L442.4,364.6 L443.2,365.9 L444.0,375.8 L444.9,373.3 L445.7,376.1 L446.6,390.3 L447.4,389.7 L448.3,389.7 L449.1,390.6 L449.9,383.8 L450.8,362.5 L451.6,339.6 L452.5,363.4 L453.3,360.0 L454.2,379.5 L455.0,389.4 L455.8,390.6 L456.7,390.6 L457.5,390.3 L458.4,390.3 L459.2,383.8 L460.1,339.3 L460.9,337.1 L461.7,340.2 L462.6,336.8 L463.4,358.4 L464.3,341.4 L465.1,380.1 L466.0,379.5 L466.8,370.8 L467.6,372.7 L468.5,361.8 L469.3,362.1 L470.2,350.1 L471.0,308.0 L471.9,302.7 L472.7,350.7 L473.5,350.1 L474.4,347.0 L475.2,347.9 L476.1,351.0 L476.9,355.3 L477.8,353.5 L478.6,354.7 L479.4,305.8 L480.3,306.8 L481.1,341.7 L482.0,336.5 L482.8,345.7 L483.7,345.1 L484.5,345.1 L485.3,354.7 L486.2,357.5 L487.0,355.6 L487.9,356.3 L488.7,356.3 L489.6,356.0 L490.4,356.0 L491.2,356.9 L492.1,342.0 L492.9,337.4 L493.8,351.3 L494.6,330.6 L495.4,335.5 L496.3,351.3 L497.1,303.1 L498.0,340.2 L498.8,337.7 L499.7,277.7 L500.5,278.6 L501.3,296.6 L502.2,281.7 L503.0,280.5 L503.9,282.9 L504.7,308.0 L505.6,320.7 L506.4,321.0 L507.2,321.9 L508.1,322.2 L508.9,322.2 L509.8,328.1 L510.6,321.6 L511.5,321.0 L512.3,325.3 L513.1,326.9 L514.0,328.4 L514.8,328.4 L515.7,328.1 L516.5,328.4 L517.4,319.1 L518.2,321.3 L519.0,280.5 L519.9,275.5 L520.7,282.3 L521.6,285.4 L522.4,312.6 L523.3,321.6 L524.1,321.3 L524.9,320.7 L525.8,320.7 L526.6,318.2 L527.5,358.1 L528.3,359.4 L529.2,350.4 L530.0,342.3 L530.8,338.3 L531.7,327.5 L532.5,327.8 L533.4,325.6 L534.2,306.8 L535.1,301.2 L535.9,297.5 L536.7,298.1 L537.6,303.4 L538.4,313.0 L539.3,323.2 L540.1,309.6 L541.0,276.4 L541.8,327.2 L542.6,326.6 L543.5,326.6 L544.3,334.6 L545.2,334.0 L546.0,341.7 L546.9,349.8 L547.7,350.1 L548.5,350.7 L549.4,350.4 L550.2,351.3 L551.1,351.0 L551.9,335.2 L552.8,321.3 L553.6,326.6 L554.4,326.3 L555.3,325.9 L556.1,336.5 L557.0,351.9 L557.8,352.2 L558.7,351.0 L559.5,346.4 L560.3,318.5 L561.2,318.8 L562.0,322.5 L562.9,327.2 L563.7,327.5 L564.6,327.5 L565.4,333.1 L566.2,340.5 L567.1,346.7 L567.9,339.6 L568.8,347.3 L569.6,347.3 L570.4,335.5 L571.3,327.5 L572.1,326.6 L573.0,325.6 L573.8,327.2 L574.7,326.6 L575.5,326.6 L576.3,325.3 L577.2,327.8 L578.0,326.3 L578.9,326.9 L579.7,327.5 L580.6,323.5 L581.4,323.5 L582.2,326.3 L583.1,326.9 L583.9,330.0 L584.8,326.3 L585.6,337.7 L586.5,338.0 L587.3,336.2 L588.1,338.3 L589.0,338.0 L589.8,343.9 L590.7,343.9 L591.5,343.9 L592.4,343.9 L593.2,343.0 L594.0,343.0 L594.9,342.7 L595.7,334.3 L596.6,334.0 L597.4,351.3 L598.3,351.3 L599.1,344.2 L599.9,333.7 L600.8,327.8 L601.6,325.6 L602.5,317.3 L603.3,318.2 L604.2,327.2 L605.0,327.2 L605.8,321.3 L606.7,327.2 L607.5,334.0 L608.4,343.9 L609.2,350.7 L610.1,351.0 L610.9,351.0 L611.7,338.3 L612.6,327.2 L613.4,327.8 L614.3,326.9 L615.1,328.1 L616.0,328.4 L616.8,341.7 L617.6,341.7 L618.5,365.5 L619.3,365.5 L620.2,364.9 L621.0,350.4 L621.9,325.3 L622.7,321.6 L623.5,327.5 L624.4,327.5 L625.2,327.2 L626.1,336.2 L626.9,336.2 L627.8,360.0 L628.6,372.7 L629.4,372.7 L630.3,372.4 L631.1,372.7 L632.0,372.4 L632.8,360.0 L633.7,301.2 L634.5,335.8 L635.3,335.5 L636.2,329.7 L637.0,327.5 L637.9,328.1 L638.7,328.4 L639.6,328.1 L640.4,328.1 L641.2,327.8 L642.1,304.3 L642.9,301.5 L643.8,321.6 L644.6,324.7 L645.4,334.3 L646.3,344.2 L647.1,371.7 L648.0,372.0 L648.8,371.7 L649.7,372.7 L650.5,373.0 L651.3,372.4 L652.2,371.7 L653.0,300.6 L653.9,303.7 L654.7,335.2 L655.6,353.8 L656.4,363.1 L657.2,363.1 L658.1,372.4 L658.9,372.4 L659.8,372.4 L660.6,372.4 L661.5,362.8 L662.3,344.8 L663.1,344.5 L664.0,344.2 L664.8,336.5 L665.7,326.3 L666.5,332.4 L667.4,333.7 L668.2,333.4 L669.0,365.2 L669.9,364.9 L670.7,364.9 L671.6,362.1 L672.4,361.5 L673.3,338.9 L674.1,274.6 L674.9,311.4 L675.8,326.9 L676.6,327.5 L677.5,327.2 L678.3,344.2 L679.2,353.8 L680.0,362.8" stroke="#2ca02c" stroke-width="2" fill="none" opacity="0.8"/>
<!-- Solar Generation -->
<path d="M80.0,420.0 L80.8,420.0 L81.7,420.0 L82.5,420.0 L83.4,420.0 L84.2,420.0 L85.1,420.0 L85.9,420.0 L86.7,420.0 L87.6,420.0 L88.4,419.4 L89.3,416.9 L90.1,417.8 L91.0,414.4 L91.8,414.7 L92.6,405.5 L93.5,412.9 L94.3,418.1 L95.2,420.0 L96.0,420.0 L96.9,420.0 L97.7,420.0 L98.5,420.0 L99.4,420.0 L100.2,420.0 L101.1,420.0 L101.9,420.0 L102.8,420.0 L103.6,420.0 L104.4,420.0 L105.3,420.0 L106.1,420.0 L107.0,420.0 L107.8,420.0 L108.7,417.2 L109.5,415.0 L110.3,412.9 L111.2,411.6 L112.0,413.5 L112.9,413.2 L113.7,417.2 L114.6,418.8 L115.4,420.0 L116.2,420.0 L117.1,420.0 L117.9,420.0 L118.8,420.0 L119.6,420.0 L120.4,420.0 L121.3,420.0 L122.1,420.0 L123.0,420.0 L123.8,420.0 L124.7,420.0 L125.5,420.0 L126.3,420.0 L127.2,420.0 L128.0,420.0 L128.9,419.1 L129.7,417.5 L130.6,415.4 L131.4,410.4 L132.2,408.6 L133.1,411.0 L133.9,406.1 L134.8,415.7 L135.6,420.0 L136.5,420.0 L137.3,420.0 L138.1,420.0 L139.0,420.0 L139.8,420.0 L140.7,420.0 L141.5,420.0 L142.4,420.0 L143.2,420.0 L144.0,420.0 L144.9,420.0 L145.7,420.0 L146.6,420.0 L147.4,420.0 L148.3,420.0 L149.1,416.0 L149.9,410.4 L150.8,410.7 L151.6,412.9 L152.5,414.4 L153.3,406.7 L154.2,410.1 L155.0,410.7 L155.8,420.0 L156.7,420.0 L157.5,420.0 L158.4,420.0 L159.2,420.0 L160.1,420.0 L160.9,420.0 L161.7,420.0 L162.6,420.0 L163.4,420.0 L164.3,420.0 L165.1,420.0 L166.0,420.0 L166.8,420.0 L167.6,420.0 L168.5,419.7 L169.3,415.0 L170.2,401.1 L171.0,403.6 L171.9,401.7 L172.7,398.3 L173.5,395.6 L174.4,403.9 L175.2,408.9 L176.1,419.7 L176.9,420.0 L177.8,420.0 L178.6,420.0 L179.4,420.0 L180.3,420.0 L181.1,420.0 L182.0,420.0 L182.8,420.0 L183.7,420.0 L184.5,420.0 L185.3,420.0 L186.2,420.0 L187.0,420.0 L187.9,420.0 L188.7,420.0 L189.6,416.0 L190.4,395.9 L191.2,397.7 L192.1,405.8 L192.9,398.7 L193.8,398.7 L194.6,406.7 L195.4,418.1 L196.3,420.0 L197.1,420.0 L198.0,420.0 L198.8,420.0 L199.7,420.0 L200.5,420.0 L201.3,420.0 L202.2,420.0 L203.0,420.0 L203.9,420.0 L204.7,420.0 L205.6,420.0 L206.4,420.0 L207.2,420.0 L208.1,420.0 L208.9,420.0 L209.8,417.8 L210.6,411.6 L211.5,410.4 L212.3,410.1 L213.1,402.4 L214.0,397.4 L214.8,410.7 L215.7,415.7 L216.5,420.0 L217.4,420.0 L218.2,420.0 L219.0,420.0 L219.9,420.0 L220.7,420.0 L221.6,420.0 L222.4,420.0 L223.3,420.0 L224.1,420.0 L224.9,420.0 L225.8,420.0 L226.6,420.0 L227.5,420.0 L228.3,420.0 L229.2,420.0 L230.0,419.4 L230.8,418.8 L231.7,417.2 L232.5,417.5 L233.4,416.9 L234.2,409.2 L235.1,409.8 L235.9,418.5 L236.7,420.0 L237.6,420.0 L238.4,420.0 L239.3,420.0 L240.1,420.0 L241.0,420.0 L241.8,420.0 L242.6,420.0 L243.5,420.0 L244.3,420.0 L245.2,420.0 L246.0,420.0 L246.9,420.0 L247.7,420.0 L248.5,420.0 L249.4,420.0 L250.2,419.1 L251.1,417.2 L251.9,416.0 L252.8,414.7 L253.6,416.3 L254.4,416.0 L255.3,417.2 L256.1,419.1 L257.0,420.0 L257.8,420.0 L258.7,420.0 L259.5,420.0 L260.3,420.0 L261.2,420.0 L262.0,420.0 L262.9,420.0 L263.7,420.0 L264.6,420.0 L265.4,420.0 L266.2,420.0 L267.1,420.0 L267.9,420.0 L268.8,420.0 L269.6,420.0 L270.4,416.9 L271.3,415.0 L272.1,408.9 L273.0,413.2 L273.8,413.5 L274.7,416.3 L275.5,415.7 L276.3,419.1 L277.2,420.0 L278.0,420.0 L278.9,420.0 L279.7,420.0 L280.6,420.0 L281.4,420.0 L282.2,420.0 L283.1,420.0 L283.9,420.0 L284.8,420.0 L285.6,420.0 L286.5,420.0 L287.3,420.0 L288.1,420.0 L289.0,420.0 L289.8,420.0 L290.7,417.5 L291.5,403.9 L292.4,401.7 L293.2,401.4 L294.0,400.5 L294.9,399.3 L295.7,408.6 L296.6,415.0 L297.4,420.0 L298.3,420.0 L299.1,420.0 L299.9,420.0 L300.8,420.0 L301.6,420.0 L302.5,420.0 L303.3,420.0 L304.2,420.0 L305.0,420.0 L305.8,420.0 L306.7,420.0 L307.5,420.0 L308.4,420.0 L309.2,420.0 L310.1,420.0 L310.9,419.1 L311.7,417.2 L312.6,415.4 L313.4,412.9 L314.3,412.6 L315.1,415.7 L316.0,416.9 L316.8,418.8 L317.6,420.0 L318.5,420.0 L319.3,420.0 L320.2,420.0 L321.0,420.0 L321.9,420.0 L322.7,420.0 L323.5,420.0 L324.4,420.0 L325.2,420.0 L326.1,420.0 L326.9,420.0 L327.8,420.0 L328.6,420.0 L329.4,420.0 L330.3,420.0 L331.1,419.4 L332.0,416.9 L332.8,412.3 L333.7,411.0 L334.5,405.1 L335.3,402.7 L336.2,413.2 L337.0,416.3 L337.9,420.0 L338.7,420.0 L339.6,420.0 L340.4,420.0 L341.2,420.0 L342.1,420.0 L342.9,420.0 L343.8,420.0 L344.6,420.0 L345.4,420.0 L346.3,420.0 L347.1,420.0 L348.0,420.0 L348.8,420.0 L349.7,420.0 L350.5,420.0 L351.3,417.5 L352.2,407.3 L353.0,411.6 L353.9,410.4 L354.7,406.1 L355.6,410.4 L356.4,413.2 L357.2,416.9 L358.1,420.0 L358.9,420.0 L359.8,420.0 L360.6,420.0 L361.5,420.0 L362.3,420.0 L363.1,420.0 L364.0,420.0 L364.8,420.0 L365.7,420.0 L366.5,420.0 L367.4,420.0 L368.2,420.0 L369.0,420.0 L369.9,420.0 L370.7,420.0 L371.6,418.5 L372.4,413.5 L373.3,407.3 L374.1,406.1 L374.9,409.8 L375.8,405.8 L376.6,409.5 L377.5,418.1 L378.3,420.0 L379.2,420.0 L380.0,420.0 L380.8,420.0 L381.7,420.0 L382.5,420.0 L383.4,420.0 L384.2,420.0 L385.1,420.0 L385.9,420.0 L386.7,420.0 L387.6,420.0 L388.4,420.0 L389.3,420.0 L390.1,420.0 L391.0,420.0 L391.8,419.4 L392.6,400.8 L393.5,413.8 L394.3,402.7 L395.2,409.2 L396.0,408.6 L396.9,408.6 L397.7,416.0 L398.5,420.0 L399.4,420.0 L400.2,420.0 L401.1,420.0 L401.9,420.0 L402.8,420.0 L403.6,420.0 L404.4,420.0 L405.3,420.0 L406.1,420.0 L407.0,420.0 L407.8,420.0 L408.7,420.0 L409.5,420.0 L410.3,420.0 L411.2,420.0 L412.0,420.0 L412.9,407.3 L413.7,408.9 L414.6,410.4 L415.4,413.5 L416.2,409.5 L417.1,408.9 L417.9,414.4 L418.8,420.0 L419.6,420.0 L420.4,420.0 L421.3,420.0 L422.1,420.0 L423.0,420.0 L423.8,420.0 L424.7,420.0 L425.5,420.0 L426.3,420.0 L427.2,420.0 L428.0,420.0 L428.9,420.0 L429.7,420.0 L430.6,420.0 L431.4,420.0 L432.2,419.4 L433.1,408.9 L433.9,417.5 L434.8,416.9 L435.6,416.6 L436.5,416.3 L437.3,417.5 L438.1,418.1 L439.0,419.7 L439.8,420.0 L440.7,420.0 L441.5,420.0 L442.4,420.0 L443.2,420.0 L444.0,420.0 L444.9,420.0 L445.7,420.0 L446.6,420.0 L447.4,420.0 L448.3,420.0 L449.1,420.0 L449.9,420.0 L450.8,420.0 L451.6,420.0 L452.5,414.4 L453.3,394.3 L454.2,394.9 L455.0,398.7 L455.8,399.0 L456.7,394.9 L457.5,392.2 L458.4,407.6 L459.2,419.4 L460.1,420.0 L460.9,420.0 L461.7,420.0 L462.6,420.0 L463.4,420.0 L464.3,420.0 L465.1,420.0 L466.0,420.0 L466.8,420.0 L467.6,420.0 L468.5,420.0 L469.3,420.0 L470.2,420.0 L471.0,420.0 L471.9,420.0 L472.7,414.7 L473.5,393.7 L474.4,394.9 L475.2,398.7 L476.1,401.1 L476.9,399.3 L477.8,396.2 L478.6,408.9 L479.4,419.7 L480.3,420.0 L481.1,420.0 L482.0,420.0 L482.8,420.0 L483.7,420.0 L484.5,420.0 L485.3,420.0 L486.2,420.0 L487.0,420.0 L487.9,420.0 L488.7,420.0 L489.6,420.0 L490.4,420.0 L491.2,420.0 L492.1,420.0 L492.9,414.7 L493.8,394.6 L494.6,396.2 L495.4,398.7 L496.3,399.0 L497.1,395.2 L498.0,394.6 L498.8,407.3 L499.7,419.7 L500.5,420.0 L501.3,420.0 L502.2,420.0 L503.0,420.0 L503.9,420.0 L504.7,420.0 L505.6,420.0 L506.4,420.0 L507.2,420.0 L508.1,420.0 L508.9,420.0 L509.8,420.0 L510.6,420.0 L511.5,420.0 L512.3,420.0 L513.1,414.1 L514.0,395.2 L514.8,395.6 L515.7,397.7 L516.5,399.6 L517.4,394.3 L518.2,402.7 L519.0,413.8 L519.9,419.7 L520.7,420.0 L521.6,420.0 L522.4,420.0 L523.3,420.0 L524.1,420.0 L524.9,420.0 L525.8,420.0 L526.6,420.0 L527.5,420.0 L528.3,420.0 L529.2,420.0 L530.0,420.0 L530.8,420.0 L531.7,420.0 L532.5,420.0 L533.4,418.1 L534.2,407.0 L535.1,406.4 L535.9,408.2 L536.7,411.0 L537.6,410.1 L538.4,414.1 L539.3,417.5 L540.1,420.0 L541.0,420.0 L541.8,420.0 L542.6,420.0 L543.5,420.0 L544.3,420.0 L545.2,420.0 L546.0,420.0 L546.9,420.0 L547.7,420.0 L548.5,420.0 L549.4,420.0 L550.2,420.0 L551.1,420.0 L551.9,420.0 L552.8,420.0 L553.6,418.5 L554.4,415.7 L555.3,412.0 L556.1,408.6 L557.0,411.6 L557.8,403.6 L558.7,414.1 L559.5,417.8 L560.3,419.7 L561.2,420.0 L562.0,420.0 L562.9,420.0 L563.7,420.0 L564.6,420.0 L565.4,420.0 L566.2,420.0 L567.1,420.0 L567.9,420.0 L568.8,420.0 L569.6,420.0 L570.4,420.0 L571.3,420.0 L572.1,420.0 L573.0,420.0 L573.8,416.3 L574.7,399.0 L575.5,394.0 L576.3,398.7 L577.2,399.0 L578.0,399.3 L578.9,393.1 L579.7,412.0 L580.6,419.7 L581.4,420.0 L582.2,420.0 L583.1,420.0 L583.9,420.0 L584.8,420.0 L585.6,420.0 L586.5,420.0 L587.3,420.0 L588.1,420.0 L589.0,420.0 L589.8,420.0 L590.7,420.0 L591.5,420.0 L592.4,420.0 L593.2,420.0 L594.0,415.7 L594.9,407.9 L595.7,409.2 L596.6,409.5 L597.4,409.2 L598.3,409.8 L599.1,412.3 L599.9,415.7 L600.8,419.7 L601.6,420.0 L602.5,420.0 L603.3,420.0 L604.2,420.0 L605.0,420.0 L605.8,420.0 L606.7,420.0 L607.5,420.0 L608.4,420.0 L609.2,420.0 L610.1,420.0 L610.9,420.0 L611.7,420.0 L612.6,420.0 L613.4,420.0 L614.3,419.1 L615.1,410.4 L616.0,402.4 L616.8,396.5 L617.6,399.3 L618.5,397.7 L619.3,391.8 L620.2,414.7 L621.0,419.7 L621.9,420.0 L622.7,420.0 L623.5,420.0 L624.4,420.0 L625.2,420.0 L626.1,420.0 L626.9,420.0 L627.8,420.0 L628.6,420.0 L629.4,420.0 L630.3,420.0 L631.1,420.0 L632.0,420.0 L632.8,420.0 L633.7,420.0 L634.5,418.1 L635.3,414.4 L636.2,411.3 L637.0,410.4 L637.9,412.0 L638.7,414.1 L639.6,415.4 L640.4,417.8 L641.2,419.7 L642.1,420.0 L642.9,420.0 L643.8,420.0 L644.6,420.0 L645.4,420.0 L646.3,420.0 L647.1,420.0 L648.0,420.0 L648.8,420.0 L649.7,420.0 L650.5,420.0 L651.3,420.0 L652.2,420.0 L653.0,420.0 L653.9,420.0 L654.7,414.4 L655.6,405.1 L656.4,406.4 L657.2,403.0 L658.1,404.5 L658.9,403.0 L659.8,399.6 L660.6,417.8 L661.5,419.7 L662.3,420.0 L663.1,420.0 L664.0,420.0 L664.8,420.0 L665.7,420.0 L666.5,420.0 L667.4,420.0 L668.2,420.0 L669.0,420.0 L669.9,420.0 L670.7,420.0 L671.6,420.0 L672.4,420.0 L673.3,420.0 L674.1,420.0 L674.9,418.8 L675.8,415.4 L676.6,410.4 L677.5,398.7 L678.3,401.1 L679.2,402.4 L680.0,401.7" stroke="#d62728" stroke-width="2" fill="none" opacity="0.8"/>
<!-- Forecast -->
<path d="M80.0,183.6 L80.8,208.1 L81.7,218.6 L82.5,226.3 L83.4,231.6 L84.2,233.8 L85.1,231.6 L85.9,218.0 L86.7,189.5 L87.6,158.9 L88.4,141.9 L89.3,139.4 L90.1,140.9 L91.0,144.0 L91.8,148.7 L92.6,152.4 L93.5,156.1 L94.3,157.6 L95.2,151.8 L96.0,138.2 L96.9,132.9 L97.7,135.1 L98.5,150.2 L99.4,167.9 L100.2,188.6 L101.1,201.0 L101.9,220.8 L102.8,232.8 L103.6,239.0 L104.4,240.3 L105.3,239.6 L106.1,225.1 L107.0,191.4 L107.8,162.6 L108.7,147.1 L109.5,143.4 L110.3,143.7 L111.2,146.5 L112.0,149.3 L112.9,152.7 L113.7,155.5 L114.6,155.5 L115.4,147.4 L116.2,131.0 L117.1,124.5 L117.9,127.9 L118.8,140.0 L119.6,155.8 L120.4,177.4 L121.3,196.9 L122.1,211.8 L123.0,221.7 L123.8,226.9 L124.7,228.5 L125.5,225.7 L126.3,210.9 L127.2,180.5 L128.0,148.7 L128.9,131.7 L129.7,128.6 L130.6,129.5 L131.4,132.6 L132.2,136.9 L133.1,141.3 L133.9,143.4 L134.8,143.1 L135.6,136.9 L136.5,120.8 L137.3,115.6 L138.1,121.1 L139.0,134.4 L139.8,152.1 L140.7,174.7 L141.5,204.7 L142.4,216.1 L143.2,223.2 L144.0,228.5 L144.9,231.6 L145.7,235.9 L146.6,232.2 L147.4,212.4 L148.3,191.4 L149.1,172.8 L149.9,165.4 L150.8,158.9 L151.6,160.1 L152.5,162.6 L153.3,169.4 L154.2,172.5 L155.0,171.6 L155.8,165.4 L156.7,149.9 L157.5,145.9 L158.4,148.7 L159.2,157.3 L160.1,170.3 L160.9,188.9 L161.7,193.2 L162.6,219.5 L163.4,225.1 L164.3,229.7 L165.1,230.4 L166.0,228.5 L166.8,223.9 L167.6,214.3 L168.5,201.6 L169.3,189.5 L170.2,177.8 L171.0,166.0 L171.9,158.9 L172.7,164.5 L173.5,170.0 L174.4,177.1 L175.2,175.6 L176.1,172.5 L176.9,155.8 L177.8,147.7 L178.6,149.3 L179.4,161.1 L180.3,173.1 L181.1,188.9 L182.0,208.1 L182.8,219.2 L183.7,226.0 L184.5,230.7 L185.3,232.8 L186.2,230.0 L187.0,215.8 L187.9,188.6 L188.7,156.7 L189.6,139.4 L190.4,137.2 L191.2,139.4 L192.1,142.8 L192.9,147.4 L193.8,151.5 L194.6,154.9 L195.4,155.8 L196.3,149.6 L197.1,135.1 L198.0,129.8 L198.8,132.9 L199.7,147.1 L200.5,162.9 L201.3,185.8 L202.2,207.5 L203.0,221.7 L203.9,230.4 L204.7,236.5 L205.6,238.1 L206.4,236.8 L207.2,222.6 L208.1,189.8 L208.9,160.1 L209.8,144.3 L210.6,140.9 L211.5,141.6 L212.3,144.7 L213.1,148.1 L214.0,151.8 L214.8,155.5 L215.7,156.7 L216.5,150.8 L217.4,136.6 L218.2,131.4 L219.0,133.8 L219.9,148.7 L220.7,158.0 L221.6,184.9 L222.4,201.3 L223.3,219.2 L224.1,228.8 L224.9,234.4 L225.8,236.2 L226.6,235.9 L227.5,221.7 L228.3,189.5 L229.2,159.8 L230.0,143.1 L230.8,138.5 L231.7,138.8 L232.5,141.3 L233.4,145.6 L234.2,148.7 L235.1,150.5 L235.9,150.2 L236.7,142.8 L237.6,126.1 L238.4,120.5 L239.3,126.1 L240.1,136.9 L241.0,154.2 L241.8,176.2 L242.6,204.7 L243.5,214.3 L244.3,221.7 L245.2,226.3 L246.0,227.9 L246.9,224.5 L247.7,209.9 L248.5,181.5 L249.4,147.7 L250.2,132.3 L251.1,131.7 L251.9,135.1 L252.8,138.8 L253.6,144.3 L254.4,148.4 L255.3,150.5 L256.1,150.5 L257.0,143.7 L257.8,128.6 L258.7,127.3 L259.5,130.7 L260.3,143.4 L261.2,163.2 L262.0,185.2 L262.9,190.1 L263.7,219.5 L264.6,229.7 L265.4,235.6 L266.2,237.5 L267.1,237.2 L267.9,222.9 L268.8,190.1 L269.6,160.4 L270.4,144.0 L271.3,140.3 L272.1,140.6 L273.0,143.4 L273.8,147.1 L274.7,150.5 L275.5,152.7 L276.3,152.4 L277.2,144.7 L278.0,128.3 L278.9,122.7 L279.7,127.3 L280.6,137.8 L281.4,154.9 L282.2,176.8 L283.1,198.8 L283.9,212.4 L284.8,220.8 L285.6,226.0 L286.5,228.8 L287.3,227.9 L288.1,222.9 L289.0,209.0 L289.8,189.5 L290.7,171.9 L291.5,161.7 L292.4,158.6 L293.2,159.8 L294.0,162.3 L294.9,167.9 L295.7,170.0 L296.6,169.1 L297.4,162.0 L298.3,145.6 L299.1,140.6 L299.9,143.4 L300.8,152.1 L301.6,165.4 L302.5,181.8 L303.3,205.9 L304.2,213.3 L305.0,220.8 L305.8,225.1 L306.7,228.2 L307.5,228.2 L308.4,224.5 L309.2,213.6 L310.1,196.0 L310.9,179.9 L311.7,167.2 L312.6,158.9 L313.4,162.6 L314.3,169.7 L315.1,173.4 L316.0,172.2 L316.8,170.0 L317.6,164.1 L318.5,148.7 L319.3,140.3 L320.2,151.5 L321.0,164.1 L321.9,171.6 L322.7,188.3 L323.5,203.7 L324.4,217.7 L325.2,226.6 L326.1,231.6 L326.9,233.8 L327.8,231.6 L328.6,217.0 L329.4,189.2 L330.3,157.3 L331.1,140.0 L332.0,137.5 L332.8,139.1 L333.7,142.5 L334.5,146.8 L335.3,150.5 L336.2,153.0 L337.0,153.3 L337.9,146.5 L338.7,131.0 L339.6,125.8 L340.4,129.5 L341.2,141.9 L342.1,161.4 L342.9,181.8 L343.8,203.4 L344.6,216.1 L345.4,223.2 L346.3,227.6 L347.1,230.0 L348.0,226.6 L348.8,212.4 L349.7,184.3 L350.5,152.4 L351.3,135.1 L352.2,133.8 L353.0,136.6 L353.9,139.7 L354.7,145.3 L355.6,149.3 L356.4,151.8 L357.2,152.1 L358.1,145.6 L358.9,130.4 L359.8,124.9 L360.6,129.2 L361.5,141.6 L362.3,160.7 L363.1,181.5 L364.0,186.1 L364.8,217.4 L365.7,225.7 L366.5,231.0 L367.4,232.8 L368.2,230.4 L369.0,216.4 L369.9,188.6 L370.7,157.3 L371.6,140.0 L372.4,137.5 L373.3,139.1 L374.1,142.2 L374.9,146.5 L375.8,150.5 L376.6,153.3 L377.5,153.9 L378.3,147.4 L379.2,132.3 L380.0,126.7 L380.8,130.7 L381.7,143.1 L382.5,161.7 L383.4,182.1 L384.2,205.6 L385.1,222.0 L385.9,230.0 L386.7,235.3 L387.6,232.2 L388.4,227.9 L389.3,222.9 L390.1,213.6 L391.0,203.1 L391.8,190.4 L392.6,176.8 L393.5,164.5 L394.3,163.5 L395.2,170.6 L396.0,173.4 L396.9,174.0 L397.7,171.3 L398.5,166.6 L399.4,148.1 L400.2,140.3 L401.1,150.2 L401.9,162.9 L402.8,169.7 L403.6,187.0 L404.4,201.3 L405.3,215.8 L406.1,224.8 L407.0,229.4 L407.8,231.9 L408.7,229.4 L409.5,215.2 L410.3,188.0 L411.2,155.8 L412.0,138.2 L412.9,135.7 L413.7,137.8 L414.6,140.9 L415.4,145.6 L416.2,149.3 L417.1,151.8 L417.9,151.8 L418.8,145.0 L419.6,128.9 L420.4,123.6 L421.3,127.9 L422.1,139.7 L423.0,157.6 L423.8,178.7 L424.7,198.8 L425.5,213.0 L426.3,221.7 L427.2,226.3 L428.0,229.4 L428.9,228.2 L429.7,222.6 L430.6,208.1 L431.4,188.3 L432.2,169.1 L433.1,157.6 L433.9,153.9 L434.8,154.6 L435.6,156.4 L436.5,162.0 L437.3,164.8 L438.1,164.1 L439.0,156.7 L439.8,140.3 L440.7,137.2 L441.5,141.3 L442.4,150.2 L443.2,163.8 L444.0,181.2 L444.9,201.9 L445.7,212.7 L446.6,214.0 L447.4,218.0 L448.3,222.3 L449.1,222.6 L449.9,218.9 L450.8,209.3 L451.6,192.0 L452.5,174.7 L453.3,161.7 L454.2,154.9 L455.0,155.2 L455.8,157.6 L456.7,162.6 L457.5,165.7 L458.4,165.7 L459.2,157.3 L460.1,139.7 L460.9,131.0 L461.7,139.1 L462.6,150.2 L463.4,161.7 L464.3,180.9 L465.1,185.5 L466.0,211.5 L466.8,218.9 L467.6,223.5 L468.5,225.7 L469.3,222.3 L470.2,208.4 L471.0,180.2 L471.9,148.4 L472.7,132.3 L473.5,131.7 L474.4,135.1 L475.2,138.5 L476.1,144.3 L476.9,148.4 L477.8,150.5 L478.6,150.5 L479.4,143.7 L480.3,127.6 L481.1,122.1 L482.0,127.3 L482.8,138.5 L483.7,156.1 L484.5,178.1 L485.3,200.3 L486.2,211.5 L487.0,221.1 L487.9,226.0 L488.7,228.2 L489.6,225.1 L490.4,210.9 L491.2,182.4 L492.1,150.5 L492.9,134.1 L493.8,133.2 L494.6,136.0 L495.4,139.4 L496.3,144.7 L497.1,148.7 L498.0,150.8 L498.8,150.5 L499.7,143.4 L500.5,127.6 L501.3,122.1 L502.2,127.3 L503.0,138.5 L503.9,156.1 L504.7,178.1 L505.6,200.3 L506.4,214.0 L507.2,221.1 L508.1,225.1 L508.9,226.9 L509.8,224.2 L510.6,209.6 L511.5,181.2 L512.3,148.4 L513.1,132.6 L514.0,132.3 L514.8,135.7 L515.7,139.4 L516.5,145.0 L517.4,149.0 L518.2,151.5 L519.0,151.2 L519.9,144.3 L520.7,127.9 L521.6,122.4 L522.4,127.0 L523.3,138.2 L524.1,156.1 L524.9,177.8 L525.8,365.9 L526.6,263.1 L527.5,376.1 L528.3,420.0 L529.2,420.0 L530.0,420.0 L530.8,420.0 L531.7,420.0 L532.5,420.0 L533.4,420.0 L534.2,420.0 L535.1,420.0 L535.9,420.0 L536.7,420.0 L537.6,420.0 L538.4,420.0 L539.3,420.0 L540.1,420.0 L541.0,420.0 L541.8,420.0 L542.6,420.0 L543.5,420.0 L544.3,420.0 L545.2,420.0 L546.0,254.5 L546.9,215.2 L547.7,223.2 L548.5,227.9 L549.4,230.4 L550.2,228.2 L551.1,214.0 L551.9,186.4 L552.8,154.2 L553.6,136.9 L554.4,134.8 L555.3,137.2 L556.1,140.9 L557.0,145.6 L557.8,149.9 L558.7,152.4 L559.5,153.0 L560.3,146.2 L561.2,131.7 L562.0,126.1 L562.9,129.8 L563.7,142.5 L564.6,162.0 L565.4,182.1 L566.2,186.7 L567.1,223.9 L567.9,229.7 L568.8,235.0 L569.6,239.0 L570.4,242.7 L571.3,239.6 L572.1,220.1 L573.0,200.0 L573.8,183.0 L574.7,175.6 L575.5,168.5 L576.3,169.4 L577.2,171.3 L578.0,178.7 L578.9,180.5 L579.7,179.3 L580.6,174.0 L581.4,162.0 L582.2,156.4 L583.1,157.0 L583.9,165.1 L584.8,177.4 L585.6,196.6 L586.5,208.7 L587.3,224.2 L588.1,231.0 L589.0,235.6 L589.8,232.5 L590.7,228.2 L591.5,223.2 L592.4,214.0 L593.2,204.4 L594.0,192.9 L594.9,179.9 L595.7,166.9 L596.6,156.1 L597.4,163.8 L598.3,170.3 L599.1,175.3 L599.9,173.4 L600.8,169.4 L601.6,150.5 L602.5,143.7 L603.3,150.2 L604.2,162.0 L605.0,170.6 L605.8,187.3 L606.7,201.9 L607.5,215.2 L608.4,223.5 L609.2,227.9 L610.1,229.7 L610.9,226.6 L611.7,212.1 L612.6,184.9 L613.4,152.4 L614.3,135.1 L615.1,133.5 L616.0,136.3 L616.8,139.7 L617.6,145.0 L618.5,148.7 L619.3,150.8 L620.2,150.8 L621.0,143.7 L621.9,128.3 L622.7,122.7 L623.5,127.3 L624.4,138.2 L625.2,156.1 L626.1,178.4 L626.9,368.0 L627.8,212.7 L628.6,225.1 L629.4,231.3 L630.3,232.8 L631.1,230.7 L632.0,216.1 L632.8,187.3 L633.7,155.5 L634.5,137.2 L635.3,134.1 L636.2,136.0 L637.0,139.1 L637.9,144.0 L638.7,147.4 L639.6,149.6 L640.4,149.3 L641.2,140.9 L642.1,124.2 L642.9,118.4 L643.8,122.7 L644.6,132.9 L645.4,148.7 L646.3,171.6 L647.1,194.8 L648.0,215.5 L648.8,226.0 L649.7,231.3 L650.5,233.1 L651.3,231.0 L652.2,216.4 L653.0,187.3 L653.9,155.5 L654.7,137.2 L655.6,134.1 L656.4,136.0 L657.2,139.1 L658.1,144.0 L658.9,147.7 L659.8,149.9 L660.6,149.3 L661.5,141.3 L662.3,124.5 L663.1,118.7 L664.0,123.0 L664.8,133.2 L665.7,149.0 L666.5,172.2 L667.4,177.4 L668.2,208.7 L669.0,216.4 L669.9,220.5 L670.7,222.0 L671.6,218.9 L672.4,205.0 L673.3,175.3 L674.1,142.5 L674.9,127.3 L675.8,127.3 L676.6,131.4 L677.5,134.8 L678.3,140.3 L679.2,145.0 L680.0,145.9" stroke="#9467bd" stroke-width="2" fill="none" opacity="0.8"/>
<!-- Total Generation -->
<path d="M80.0,208.4 L80.8,211.2 L81.7,240.9 L82.5,251.4 L83.4,240.9 L84.2,238.7 L85.1,236.5 L85.9,247.4 L86.7,215.2 L87.6,195.1 L88.4,222.3 L89.3,227.6 L90.1,229.1 L91.0,203.1 L91.8,179.3 L92.6,166.3 L93.5,193.2 L94.3,186.7 L95.2,180.2 L96.0,178.7 L96.9,164.5 L97.7,169.4 L98.5,166.6 L99.4,168.2 L100.2,172.8 L101.1,170.6 L101.9,170.6 L102.8,176.5 L103.6,176.5 L104.4,179.3 L105.3,189.5 L106.1,174.4 L107.0,139.4 L107.8,130.4 L108.7,158.3 L109.5,140.9 L110.3,131.7 L111.2,119.0 L112.0,127.3 L112.9,132.9 L113.7,146.8 L114.6,140.6 L115.4,116.5 L116.2,149.0 L117.1,176.2 L117.9,161.1 L118.8,163.5 L119.6,178.4 L120.4,172.2 L121.3,194.8 L122.1,230.4 L123.0,240.3 L123.8,250.8 L124.7,247.4 L125.5,235.0 L126.3,211.2 L127.2,201.3 L128.0,196.3 L128.9,230.7 L129.7,222.9 L130.6,222.0 L131.4,220.8 L132.2,219.5 L133.1,220.5 L133.9,215.2 L134.8,222.9 L135.6,184.3 L136.5,185.8 L137.3,192.6 L138.1,203.7 L139.0,199.7 L139.8,155.8 L140.7,159.2 L141.5,166.6 L142.4,158.0 L143.2,143.7 L144.0,147.4 L144.9,159.2 L145.7,170.0 L146.6,173.1 L147.4,218.3 L148.3,234.1 L149.1,229.7 L149.9,221.1 L150.8,222.0 L151.6,228.2 L152.5,233.4 L153.3,224.5 L154.2,220.5 L155.0,206.8 L155.8,175.6 L156.7,143.7 L157.5,165.4 L158.4,171.3 L159.2,122.7 L160.1,119.6 L160.9,128.9 L161.7,135.7 L162.6,131.0 L163.4,152.4 L164.3,169.4 L165.1,152.7 L166.0,129.8 L166.8,106.3 L167.6,106.0 L168.5,122.1 L169.3,140.6 L170.2,133.2 L171.0,137.5 L171.9,133.8 L172.7,122.1 L173.5,130.4 L174.4,147.1 L175.2,153.0 L176.1,145.9 L176.9,129.5 L177.8,174.0 L178.6,149.9 L179.4,126.1 L180.3,121.5 L181.1,120.2 L182.0,126.1 L182.8,115.0 L183.7,166.6 L184.5,190.1 L185.3,190.1 L186.2,174.7 L187.0,150.2 L187.9,122.1 L188.7,141.6 L189.6,141.9 L190.4,122.1 L191.2,122.4 L192.1,126.4 L192.9,141.3 L193.8,129.2 L194.6,119.9 L195.4,109.1 L196.3,125.8 L197.1,103.5 L198.0,113.4 L198.8,125.2 L199.7,155.5 L200.5,190.1 L201.3,179.6 L202.2,177.4 L203.0,174.7 L203.9,184.9 L204.7,184.9 L205.6,201.6 L206.4,194.8 L207.2,207.8 L208.1,213.3 L208.9,192.0 L209.8,166.9 L210.6,172.8 L211.5,175.3 L212.3,162.6 L213.1,158.6 L214.0,142.8 L214.8,149.9 L215.7,173.7 L216.5,210.2 L217.4,227.6 L218.2,197.6 L219.0,192.3 L219.9,168.2 L220.7,178.1 L221.6,190.8 L222.4,234.1 L223.3,252.0 L224.1,255.1 L224.9,236.8 L225.8,227.9 L226.6,202.2 L227.5,168.8 L228.3,169.1 L229.2,208.4 L230.0,216.7 L230.8,185.8 L231.7,206.8 L232.5,268.4 L233.4,276.8 L234.2,286.3 L235.1,265.3 L235.9,357.8 L236.7,356.6 L237.6,320.4 L238.4,317.3 L239.3,293.8 L240.1,291.3 L241.0,286.7 L241.8,291.0 L242.6,284.2 L243.5,280.2 L244.3,271.8 L245.2,266.5 L246.0,262.2 L246.9,261.9 L247.7,262.8 L248.5,261.6 L249.4,259.1 L250.2,278.6 L251.1,283.9 L251.9,291.6 L252.8,274.9 L253.6,266.2 L254.4,271.5 L255.3,263.8 L256.1,269.0 L257.0,261.9 L257.8,273.4 L258.7,259.1 L259.5,225.4 L260.3,224.5 L261.2,227.6 L262.0,217.4 L262.9,214.6 L263.7,212.1 L264.6,215.5 L265.4,196.6 L266.2,199.1 L267.1,231.6 L267.9,233.8 L268.8,243.7 L269.6,229.7 L270.4,216.4 L271.3,190.8 L272.1,166.6 L273.0,176.2 L273.8,173.1 L274.7,172.8 L275.5,184.3 L276.3,165.7 L277.2,184.3 L278.0,167.2 L278.9,175.9 L279.7,163.2 L280.6,157.6 L281.4,157.6 L282.2,192.9 L283.1,175.6 L283.9,183.3 L284.8,213.0 L285.6,217.4 L286.5,214.6 L287.3,211.5 L288.1,214.3 L289.0,207.1 L289.8,197.9 L290.7,192.9 L291.5,169.1 L292.4,162.3 L293.2,160.1 L294.0,170.3 L294.9,171.6 L295.7,183.0 L296.6,191.4 L297.4,176.2 L298.3,164.8 L299.1,185.5 L299.9,194.2 L300.8,186.7 L301.6,190.8 L302.5,215.5 L303.3,211.8 L304.2,221.1 L305.0,263.1 L305.8,272.1 L306.7,265.6 L307.5,256.0 L308.4,254.8 L309.2,258.8 L310.1,257.6 L310.9,264.4 L311.7,241.5 L312.6,246.1 L313.4,247.4 L314.3,248.0 L315.1,244.0 L316.0,245.5 L316.8,238.4 L317.6,213.0 L318.5,223.9 L319.3,233.1 L320.2,225.1 L321.0,239.0 L321.9,235.6 L322.7,230.4 L323.5,235.0 L324.4,239.6 L325.2,257.0 L326.1,269.3 L326.9,252.6 L327.8,226.9 L328.6,220.5 L329.4,219.5 L330.3,209.9 L331.1,218.3 L332.0,197.9 L332.8,152.7 L333.7,151.5 L334.5,140.3 L335.3,165.7 L336.2,173.4 L337.0,191.4 L337.9,187.7 L338.7,193.5 L339.6,207.5 L340.4,203.7 L341.2,215.5 L342.1,221.1 L342.9,248.9 L343.8,249.8 L344.6,250.5 L345.4,251.4 L346.3,243.0 L347.1,257.3 L348.0,241.8 L348.8,226.3 L349.7,220.5 L350.5,226.3 L351.3,232.8 L352.2,227.6 L353.0,218.0 L353.9,244.0 L354.7,241.8 L355.6,224.2 L356.4,201.6 L357.2,226.9 L358.1,235.3 L358.9,249.8 L359.8,244.6 L360.6,255.4 L361.5,248.9 L362.3,281.4 L363.1,278.0 L364.0,265.3 L364.8,263.8 L365.7,274.0 L366.5,277.4 L367.4,277.7 L368.2,276.8 L369.0,278.0 L369.9,252.0 L370.7,250.2 L371.6,247.4 L372.4,235.3 L373.3,227.9 L374.1,235.9 L374.9,239.9 L375.8,235.3 L376.6,254.5 L377.5,237.5 L378.3,235.6 L379.2,242.1 L380.0,270.3 L380.8,274.0 L381.7,270.3 L382.5,275.5 L383.4,274.0 L384.2,273.4 L385.1,257.9 L385.9,246.7 L386.7,249.5 L387.6,252.6 L388.4,248.6 L389.3,252.0 L390.1,226.9 L391.0,204.1 L391.8,221.4 L392.6,208.4 L393.5,218.3 L394.3,185.5 L395.2,194.5 L396.0,227.3 L396.9,223.5 L397.7,226.3 L398.5,231.0 L399.4,239.9 L400.2,258.8 L401.1,258.2 L401.9,256.3 L402.8,243.7 L403.6,237.5 L404.4,255.4 L405.3,224.5 L406.1,208.4 L407.0,186.7 L407.8,239.9 L408.7,237.8 L409.5,223.5 L410.3,259.7 L411.2,262.5 L412.0,264.1 L412.9,242.7 L413.7,240.3 L414.6,239.9 L415.4,242.7 L416.2,184.6 L417.1,199.4 L417.9,215.2 L418.8,177.4 L419.6,160.7 L420.4,179.3 L421.3,191.4 L422.1,185.8 L423.0,179.0 L423.8,187.0 L424.7,212.7 L425.5,227.3 L426.3,230.7 L427.2,237.2 L428.0,246.7 L428.9,224.5 L429.7,213.0 L430.6,223.2 L431.4,186.1 L432.2,185.2 L433.1,181.5 L433.9,214.6 L434.8,218.6 L435.6,223.5 L436.5,225.7 L437.3,225.7 L438.1,211.8 L439.0,211.8 L439.8,212.7 L440.7,207.5 L441.5,185.5 L442.4,184.3 L443.2,195.1 L444.0,223.2 L444.9,225.4 L445.7,236.2 L446.6,248.3 L447.4,242.1 L448.3,236.8 L449.1,240.6 L449.9,227.9 L450.8,203.4 L451.6,158.9 L452.5,165.7 L453.3,136.3 L454.2,158.6 L455.0,172.8 L455.8,170.0 L456.7,166.6 L457.5,163.5 L458.4,179.9 L459.2,189.8 L460.1,145.9 L460.9,145.3 L461.7,152.4 L462.6,153.3 L463.4,169.7 L464.3,151.8 L465.1,192.6 L466.0,191.1 L466.8,180.2 L467.6,191.7 L468.5,178.1 L469.3,180.2 L470.2,169.7 L471.0,133.5 L471.9,133.8 L472.7,178.7 L473.5,166.6 L474.4,143.1 L475.2,145.6 L476.1,153.9 L476.9,152.4 L477.8,149.0 L478.6,158.6 L479.4,114.0 L480.3,120.8 L481.1,167.9 L482.0,158.3 L482.8,167.5 L483.7,168.8 L484.5,172.5 L485.3,180.9 L486.2,190.1 L487.0,185.8 L487.9,197.9 L488.7,195.4 L489.6,189.8 L490.4,207.1 L491.2,217.0 L492.1,186.1 L492.9,173.1 L493.8,166.6 L494.6,145.9 L495.4,138.2 L496.3,151.8 L497.1,96.4 L498.0,132.0 L498.8,139.1 L499.7,88.3 L500.5,84.9 L501.3,117.1 L502.2,99.5 L503.0,94.5 L503.9,93.0 L504.7,125.8 L505.6,132.0 L506.4,123.6 L507.2,126.1 L508.1,127.3 L508.9,132.0 L509.8,142.8 L510.6,130.7 L511.5,132.0 L512.3,145.3 L513.1,134.8 L514.0,125.2 L514.8,123.3 L515.7,120.5 L516.5,103.8 L517.4,90.8 L518.2,103.8 L519.0,67.6 L519.9,67.9 L520.7,76.3 L521.6,73.5 L522.4,97.3 L523.3,99.8 L524.1,96.1 L524.9,95.2 L525.8,104.7 L526.6,110.6 L527.5,197.2 L528.3,208.4 L529.2,203.4 L530.0,209.0 L530.8,220.1 L531.7,199.4 L532.5,214.6 L533.4,219.5 L534.2,192.0 L535.1,188.9 L535.9,189.5 L536.7,192.9 L537.6,190.8 L538.4,197.6 L539.3,206.5 L540.1,158.9 L541.0,85.9 L541.8,124.5 L542.6,124.5 L543.5,130.7 L544.3,137.8 L545.2,127.3 L546.0,136.0 L546.9,153.3 L547.7,148.4 L548.5,155.8 L549.4,152.1 L550.2,170.3 L551.1,160.1 L551.9,134.8 L552.8,125.2 L553.6,122.1 L554.4,110.3 L555.3,102.0 L556.1,106.6 L557.0,120.5 L557.8,140.9 L558.7,160.1 L559.5,144.7 L560.3,131.4 L561.2,115.0 L562.0,107.8 L562.9,113.4 L563.7,116.8 L564.6,121.5 L565.4,126.1 L566.2,168.5 L567.1,186.1 L567.9,182.1 L568.8,210.2 L569.6,243.7 L570.4,242.4 L571.3,238.4 L572.1,237.5 L573.0,237.8 L573.8,227.3 L574.7,207.8 L575.5,189.2 L576.3,175.0 L577.2,167.2 L578.0,166.9 L578.9,166.3 L579.7,185.5 L580.6,179.3 L581.4,186.4 L582.2,185.8 L583.1,188.6 L583.9,150.8 L584.8,176.5 L585.6,198.5 L586.5,198.5 L587.3,196.6 L588.1,183.6 L589.0,149.6 L589.8,142.5 L590.7,167.9 L591.5,162.3 L592.4,158.6 L593.2,159.2 L594.0,167.9 L594.9,176.5 L595.7,150.2 L596.6,107.8 L597.4,128.6 L598.3,153.6 L599.1,140.9 L599.9,131.4 L600.8,161.1 L601.6,164.1 L602.5,160.1 L603.3,164.1 L604.2,185.2 L605.0,169.4 L605.8,158.3 L606.7,138.5 L607.5,132.3 L608.4,144.0 L609.2,168.8 L610.1,183.6 L610.9,188.6 L611.7,186.4 L612.6,192.9 L613.4,188.0 L614.3,188.9 L615.1,148.7 L616.0,140.0 L616.8,114.3 L617.6,110.0 L618.5,129.8 L619.3,128.9 L620.2,167.2 L621.0,171.3 L621.9,138.2 L622.7,149.6 L623.5,151.2 L624.4,171.6 L625.2,171.0 L626.1,154.6 L626.9,121.8 L627.8,145.9 L628.6,163.5 L629.4,156.7 L630.3,155.5 L631.1,155.8 L632.0,155.5 L632.8,148.4 L633.7,100.4 L634.5,137.8 L635.3,133.8 L636.2,134.4 L637.0,129.8 L637.9,135.7 L638.7,126.4 L639.6,139.1 L640.4,158.6 L641.2,159.8 L642.1,101.7 L642.9,103.8 L643.8,128.9 L644.6,123.9 L645.4,136.9 L646.3,135.1 L647.1,188.6 L648.0,195.4 L648.8,201.3 L649.7,183.0 L650.5,171.6 L651.3,216.1 L652.2,184.9 L653.0,144.7 L653.9,110.3 L654.7,131.7 L655.6,137.8 L656.4,143.1 L657.2,136.6 L658.1,151.5 L658.9,158.3 L659.8,146.5 L660.6,164.8 L661.5,154.6 L662.3,141.3 L663.1,153.6 L664.0,203.4 L664.8,188.0 L665.7,211.5 L666.5,215.5 L667.4,211.8 L668.2,206.5 L669.0,261.0 L669.9,275.2 L670.7,273.0 L671.6,262.8 L672.4,255.4 L673.3,229.7 L674.1,149.0 L674.9,182.7 L675.8,179.6 L676.6,144.7 L677.5,115.9 L678.3,124.9 L679.2,134.1 L680.0,135.1" stroke="#8c564b" stroke-width="2" fill="none" opacity="0.8"/>
<!-- Forecast Difference -->
<path d="M80.0,420.0 L80.8,420.0 L81.7,420.0 L82.5,420.0 L83.4,420.0 L84.2,420.0 L85.1,420.0 L85.9,420.0 L86.7,420.0 L87.6,420.0 L88.4,420.0 L89.3,420.0 L90.1,420.0 L91.0,420.0 L91.8,420.0 L92.6,420.0 L93.5,420.0 L94.3,420.0 L95.2,420.0 L96.0,420.0 L96.9,420.0 L97.7,420.0 L98.5,420.0 L99.4,420.0 L100.2,420.0 L101.1,420.0 L101.9,420.0 L102.8,420.0 L103.6,420.0 L104.4,420.0 L105.3,420.0 L106.1,420.0 L107.0,420.0 L107.8,420.0 L108.7,420.0 L109.5,420.0 L110.3,420.0 L111.2,420.0 L112.0,420.0 L112.9,420.0 L113.7,420.0 L114.6,420.0 L115.4,420.0 L116.2,420.0 L117.1,420.0 L117.9,420.0 L118.8,420.0 L119.6,420.0 L120.4,420.0 L121.3,420.0 L122.1,420.0 L123.0,420.0 L123.8,420.0 L124.7,420.0 L125.5,420.0 L126.3,420.0 L127.2,420.0 L128.0,420.0 L128.9,420.0 L129.7,420.0 L130.6,420.0 L131.4,420.0 L132.2,420.0 L133.1,420.0 L133.9,420.0 L134.8,420.0 L135.6,420.0 L136.5,420.0 L137.3,420.0 L138.1,420.0 L139.0,420.0 L139.8,420.0 L140.7,420.0 L141.5,420.0 L142.4,420.0 L143.2,420.0 L144.0,420.0 L144.9,420.0 L145.7,420.0 L146.6,420.0 L147.4,420.0 L148.3,420.0 L149.1,420.0 L149.9,420.0 L150.8,420.0 L151.6,420.0 L152.5,420.0 L153.3,420.0 L154.2,420.0 L155.0,420.0 L155.8,420.0 L156.7,420.0 L157.5,420.0 L158.4,420.0 L159.2,420.0 L160.1,420.0 L160.9,420.0 L161.7,420.0 L162.6,420.0 L163.4,420.0 L164.3,420.0 L165.1,420.0 L166.0,420.0 L166.8,420.0 L167.6,420.0 L168.5,420.0 L169.3,420.0 L170.2,420.0 L171.0,420.0 L171.9,420.0 L172.7,420.0 L173.5,420.0 L174.4,420.0 L175.2,420.0 L176.1,420.0 L176.9,420.0 L177.8,420.0 L178.6,420.0 L179.4,420.0 L180.3,420.0 L181.1,420.0 L182.0,420.0 L182.8,420.0 L183.7,420.0 L184.5,420.0 L185.3,420.0 L186.2,420.0 L187.0,420.0 L187.9,420.0 L188.7,420.0 L189.6,420.0 L190.4,420.0 L191.2,420.0 L192.1,420.0 L192.9,420.0 L193.8,420.0 L194.6,420.0 L195.4,420.0 L196.3,420.0 L197.1,420.0 L198.0,420.0 L198.8,420.0 L199.7,420.0 L200.5,420.0 L201.3,420.0 L202.2,420.0 L203.0,420.0 L203.9,420.0 L204.7,420.0 L205.6,420.0 L206.4,420.0 L207.2,420.0 L208.1,420.0 L208.9,420.0 L209.8,420.0 L210.6,420.0 L211.5,420.0 L212.3,420.0 L213.1,420.0 L214.0,420.0 L214.8,420.0 L215.7,420.0 L216.5,420.0 L217.4,420.0 L218.2,420.0 L219.0,420.0 L219.9,420.0 L220.7,420.0 L221.6,420.0 L222.4,420.0 L223.3,420.0 L224.1,420.0 L224.9,420.0 L225.8,420.0 L226.6,420.0 L227.5,420.0 L228.3,420.0 L229.2,420.0 L230.0,420.0 L230.8,420.0 L231.7,420.0 L232.5,420.0 L233.4,420.0 L234.2,420.0 L235.1,420.0 L235.9,420.0 L236.7,420.0 L237.6,420.0 L238.4,420.0 L239.3,420.0 L240.1,420.0 L241.0,420.0 L241.8,420.0 L242.6,420.0 L243.5,420.0 L244.3,420.0 L245.2,420.0 L246.0,420.0 L246.9,420.0 L247.7,420.0 L248.5,420.0 L249.4,420.0 L250.2,420.0 L251.1,420.0 L251.9,420.0 L252.8,420.0 L253.6,420.0 L254.4,420.0 L255.3,420.0 L256.1,420.0 L257.0,420.0 L257.8,420.0 L258.7,420.0 L259.5,420.0 L260.3,420.0 L261.2,420.0 L262.0,420.0 L262.9,420.0 L263.7,420.0 L264.6,420.0 L265.4,420.0 L266.2,420.0 L267.1,420.0 L267.9,420.0 L268.8,420.0 L269.6,420.0 L270.4,420.0 L271.3,420.0 L272.1,420.0 L273.0,420.0 L273.8,420.0 L274.7,420.0 L275.5,420.0 L276.3,420.0 L277.2,420.0 L278.0,420.0 L278.9,420.0 L279.7,420.0 L280.6,420.0 L281.4,420.0 L282.2,420.0 L283.1,420.0 L283.9,420.0 L284.8,420.0 L285.6,420.0 L286.5,420.0 L287.3,420.0 L288.1,420.0 L289.0,420.0 L289.8,420.0 L290.7,420.0 L291.5,420.0 L292.4,420.0 L293.2,420.0 L294.0,420.0 L294.9,420.0 L295.7,420.0 L296.6,420.0 L297.4,420.0 L298.3,420.0 L299.1,420.0 L299.9,420.0 L300.8,420.0 L301.6,420.0 L302.5,420.0 L303.3,420.0 L304.2,420.0 L305.0,420.0 L305.8,420.0 L306.7,420.0 L307.5,420.0 L308.4,420.0 L309.2,420.0 L310.1,420.0 L310.9,420.0 L311.7,420.0 L312.6,420.0 L313.4,420.0 L314.3,420.0 L315.1,420.0 L316.0,420.0 L316.8,420.0 L317.6,420.0 L318.5,420.0 L319.3,420.0 L320.2,420.0 L321.0,420.0 L321.9,420.0 L322.7,420.0 L323.5,420.0 L324.4,420.0 L325.2,420.0 L326.1,420.0 L326.9,420.0 L327.8,420.0 L328.6,420.0 L329.4,420.0 L330.3,420.0 L331.1,420.0 L332.0,420.0 L332.8,420.0 L333.7,420.0 L334.5,420.0 L335.3,420.0 L336.2,420.0 L337.0,420.0 L337.9,420.0 L338.7,420.0 L339.6,420.0 L340.4,420.0 L341.2,420.0 L342.1,420.0 L342.9,420.0 L343.8,420.0 L344.6,420.0 L345.4,420.0 L346.3,420.0 L347.1,420.0 L348.0,420.0 L348.8,420.0 L349.7,420.0 L350.5,420.0 L351.3,420.0 L352.2,420.0 L353.0,420.0 L353.9,420.0 L354.7,420.0 L355.6,420.0 L356.4,420.0 L357.2,420.0 L358.1,420.0 L358.9,420.0 L359.8,420.0 L360.6,420.0 L361.5,420.0 L362.3,420.0 L363.1,420.0 L364.0,420.0 L364.8,420.0 L365.7,420.0 L366.5,420.0 L367.4,420.0 L368.2,420.0 L369.0,420.0 L369.9,420.0 L370.7,420.0 L371.6,420.0 L372.4,420.0 L373.3,420.0 L374.1,420.0 L374.9,420.0 L375.8,420.0 L376.6,420.0 L377.5,420.0 L378.3,420.0 L379.2,420.0 L380.0,420.0 L380.8,420.0 L381.7,420.0 L382.5,420.0 L383.4,420.0 L384.2,420.0 L385.1,420.0 L385.9,420.0 L386.7,420.0 L387.6,420.0 L388.4,420.0 L389.3,420.0 L390.1,420.0 L391.0,420.0 L391.8,420.0 L392.6,420.0 L393.5,420.0 L394.3,420.0 L395.2,420.0 L396.0,420.0 L396.9,420.0 L397.7,420.0 L398.5,420.0 L399.4,420.0 L400.2,420.0 L401.1,420.0 L401.9,420.0 L402.8,420.0 L403.6,420.0 L404.4,420.0 L405.3,420.0 L406.1,420.0 L407.0,420.0 L407.8,420.0 L408.7,420.0 L409.5,420.0 L410.3,420.0 L411.2,420.0 L412.0,420.0 L412.9,420.0 L413.7,420.0 L414.6,420.0 L415.4,420.0 L416.2,420.0 L417.1,420.0 L417.9,420.0 L418.8,420.0 L419.6,420.0 L420.4,420.0 L421.3,420.0 L422.1,420.0 L423.0,420.0 L423.8,420.0 L424.7,420.0 L425.5,420.0 L426.3,420.0 L427.2,420.0 L428.0,420.0 L428.9,420.0 L429.7,420.0 L430.6,420.0 L431.4,420.0 L432.2,420.0 L433.1,420.0 L433.9,420.0 L434.8,420.0 L435.6,420.0 L436.5,420.0 L437.3,420.0 L438.1,420.0 L439.0,420.0 L439.8,420.0 L440.7,420.0 L441.5,420.0 L442.4,420.0 L443.2,420.0 L444.0,420.0 L444.9,420.0 L445.7,420.0 L446.6,420.0 L447.4,420.0 L448.3,420.0 L449.1,420.0 L449.9,420.0 L450.8,420.0 L451.6,420.0 L452.5,420.0 L453.3,420.0 L454.2,420.0 L455.0,420.0 L455.8,420.0 L456.7,420.0 L457.5,420.0 L458.4,420.0 L459.2,420.0 L460.1,420.0 L460.9,420.0 L461.7,420.0 L462.6,420.0 L463.4,420.0 L464.3,420.0 L465.1,420.0 L466.0,420.0 L466.8,420.0 L467.6,420.0 L468.5,420.0 L469.3,420.0 L470.2,420.0 L471.0,420.0 L471.9,420.0 L472.7,420.0 L473.5,420.0 L474.4,420.0 L475.2,420.0 L476.1,420.0 L476.9,420.0 L477.8,420.0 L478.6,420.0 L479.4,420.0 L480.3,420.0 L481.1,420.0 L482.0,420.0 L482.8,420.0 L483.7,420.0 L484.5,420.0 L485.3,420.0 L486.2,420.0 L487.0,420.0 L487.9,420.0 L488.7,420.0 L489.6,420.0 L490.4,420.0 L491.2,420.0 L492.1,420.0 L492.9,420.0 L493.8,420.0 L494.6,420.0 L495.4,420.0 L496.3,420.0 L497.1,420.0 L498.0,420.0 L498.8,420.0 L499.7,420.0 L500.5,420.0 L501.3,420.0 L502.2,420.0 L503.0,420.0 L503.9,420.0 L504.7,420.0 L505.6,420.0 L506.4,420.0 L507.2,420.0 L508.1,420.0 L508.9,420.0 L509.8,420.0 L510.6,420.0 L511.5,420.0 L512.3,420.0 L513.1,420.0 L514.0,420.0 L514.8,420.0 L515.7,420.0 L516.5,420.0 L517.4,420.0 L518.2,420.0 L519.0,420.0 L519.9,420.0 L520.7,420.0 L521.6,420.0 L522.4,420.0 L523.3,420.0 L524.1,420.0 L524.9,420.0 L525.8,420.0 L526.6,420.0 L527.5,420.0 L528.3,420.0 L529.2,420.0 L530.0,420.0 L530.8,420.0 L531.7,420.0 L532.5,420.0 L533.4,420.0 L534.2,420.0 L535.1,420.0 L535.9,420.0 L536.7,420.0 L537.6,420.0 L538.4,420.0 L539.3,420.0 L540.1,420.0 L541.0,420.0 L541.8,420.0 L542.6,420.0 L543.5,420.0 L544.3,420.0 L545.2,420.0 L546.0,420.0 L546.9,420.0 L547.7,420.0 L548.5,420.0 L549.4,420.0 L550.2,420.0 L551.1,420.0 L551.9,420.0 L552.8,420.0 L553.6,420.0 L554.4,420.0 L555.3,420.0 L556.1,420.0 L557.0,420.0 L557.8,420.0 L558.7,420.0 L559.5,420.0 L560.3,420.0 L561.2,420.0 L562.0,420.0 L562.9,420.0 L563.7,420.0 L564.6,420.0 L565.4,420.0 L566.2,420.0 L567.1,420.0 L567.9,420.0 L568.8,420.0 L569.6,420.0 L570.4,420.0 L571.3,420.0 L572.1,420.0 L573.0,420.0 L573.8,420.0 L574.7,420.0 L575.5,420.0 L576.3,420.0 L577.2,420.0 L578.0,420.0 L578.9,420.0 L579.7,420.0 L580.6,420.0 L581.4,420.0 L582.2,420.0 L583.1,420.0 L583.9,420.0 L584.8,420.0 L585.6,420.0 L586.5,420.0 L587.3,420.0 L588.1,420.0 L589.0,420.0 L589.8,420.0 L590.7,420.0 L591.5,420.0 L592.4,420.0 L593.2,420.0 L594.0,420.0 L594.9,420.0 L595.7,420.0 L596.6,420.0 L597.4,420.0 L598.3,420.0 L599.1,420.0 L599.9,420.0 L600.8,420.0 L601.6,420.0 L602.5,420.0 L603.3,420.0 L604.2,420.0 L605.0,420.0 L605.8,420.0 L606.7,420.0 L607.5,420.0 L608.4,420.0 L609.2,420.0 L610.1,420.0 L610.9,420.0 L611.7,420.0 L612.6,420.0 L613.4,420.0 L614.3,420.0 L615.1,420.0 L616.0,420.0 L616.8,420.0 L617.6,420.0 L618.5,420.0 L619.3,420.0 L620.2,420.0 L621.0,420.0 L621.9,420.0 L622.7,420.0 L623.5,420.0 L624.4,420.0 L625.2,420.0 L626.1,420.0 L626.9,420.0 L627.8,420.0 L628.6,420.0 L629.4,420.0 L630.3,420.0 L631.1,420.0 L632.0,420.0 L632.8,420.0 L633.7,420.0 L634.5,420.0 L635.3,420.0 L636.2,420.0 L637.0,420.0 L637.9,420.0 L638.7,420.0 L639.6,420.0 L640.4,420.0 L641.2,420.0 L642.1,420.0 L642.9,420.0 L643.8,420.0 L644.6,420.0 L645.4,420.0 L646.3,420.0 L647.1,420.0 L648.0,420.0 L648.8,420.0 L649.7,420.0 L650.5,420.0 L651.3,420.0 L652.2,420.0 L653.0,420.0 L653.9,420.0 L654.7,420.0 L655.6,420.0 L656.4,420.0 L657.2,420.0 L658.1,420.0 L658.9,420.0 L659.8,420.0 L660.6,420.0 L661.5,420.0 L662.3,420.0 L663.1,420.0 L664.0,420.0 L664.8,420.0 L665.7,420.0 L666.5,420.0 L667.4,420.0 L668.2,420.0 L669.0,420.0 L669.9,420.0 L670.7,420.0 L671.6,420.0 L672.4,420.0 L673.3,420.0 L674.1,420.0 L674.9,420.0 L675.8,420.0 L676.6,420.0 L677.5,420.0 L678.3,420.0 L679.2,420.0 L680.0,420.0" stroke="#e377c2" stroke-width="2" fill="none" opacity="0.8"/>

<!-- Legend -->
<line x1="690" y1="70" x2="705" y2="70" stroke="#1f77b4" stroke-width="3"/>
<text x="710" y="74" class="legend">Wind Generation</text>
<line x1="690" y1="88" x2="705" y2="88" stroke="#ff7f0e" stroke-width="3"/>
<text x="710" y="92" class="legend">Hydro Generation</text>
<line x1="690" y1="106" x2="705" y2="106" stroke="#2ca02c" stroke-width="3"/>
<text x="710" y="110" class="legend">Thermal Generation</text>
<line x1="690" y1="124" x2="705" y2="124" stroke="#d62728" stroke-width="3"/>
<text x="710" y="128" class="legend">Solar Generation</text>
<line x1="690" y1="142" x2="705" y2="142" stroke="#9467bd" stroke-width="3"/>
<text x="710" y="146" class="legend">Forecast</text>
<line x1="690" y1="160" x2="705" y2="160" stroke="#8c564b" stroke-width="3"/>
<text x="710" y="164" class="legend">Total Generation</text>
<line x1="690" y1="178" x2="705" y2="178" stroke="#e377c2" stroke-width="3"/>
<text x="710" y="182" class="legend">Forecast Difference</text>

<!-- Date range -->
<text x="80" y="495" class="legend">Range: 12/09 - 01/08/2026 (713 records)</text>
</svg>