<?xml version="1.0" encoding="UTF-8"?>
<svg width="800" height="500" xmlns="http://www.w3.org/2000/svg">
<style>
.axis-line { stroke: #333; stroke-width: 1; }
.grid-line { stroke: #ddd; stroke-width: 0.5; }
.title { font: 16px Arial; text-anchor: middle; fill: #333; }
.axis-label { font: 12px Arial; text-anchor: middle; fill: #666; }
.legend { font: 10px Arial; fill: #333; }
</style>

<!-- Title -->
<text x="400.0" y="25" class="title">Northwestern Energy Generation Data - Past 30 Days</text>

<!-- Plot area background -->
<rect x="80" y="50" width="600" height="370" fill="white" stroke="#ddd"/>

<!-- Y-axis -->
<line x1="80" y1="50" x2="80" y2="420" class="axis-line"/>
<text x="30" y="235.0" class="axis-label" transform="rotate(-90, 30, 235.0)">Generation (MW)</text>

<!-- X-axis -->
<line x1="80" y1="420" x2="680" y2="420" class="axis-line"/>
<text x="380.0" y="480" class="axis-label">Time</text>
<line x1="80" y1="420.0" x2="680" y2="420.0" class="grid-line"/>
<text x="70" y="425.0" class="legend" text-anchor="end">0</text>
<line x1="80" y1="327.5" x2="680" y2="327.5" class="grid-line"/>
<text x="70" y="332.5" class="legend" text-anchor="end">295</text>
<line x1="80" y1="235.0" x2="680" y2="235.0" class="grid-line"/>
<text x="70" y="240.0" class="legend" text-anchor="end">589</text>
<line x1="80" y1="142.5" x2="680" y2="142.5" class="grid-line"/>
<text x="70" y="147.5" class="legend" text-anchor="end">884</text>
<line x1="80" y1="50.0" x2="680" y2="50.0" class="grid-line"/>
<text x="70" y="55.0" class="legend" text-anchor="end">1178</text>
<!-- Wind Generation -->
<path d="M80.0,362.2 L80.8,353.1 L81.7,318.2 L82.5,325.2 L83.4,332.4 L84.2,334.3 L85.0,362.2 L85.9,361.9 L86.7,355.6 L87.6,361.6 L88.4,360.6 L89.3,344.0 L90.1,361.0 L90.9,366.9 L91.8,366.6 L92.6,355.3 L93.5,350.0 L94.3,337.1 L95.1,351.2 L96.0,350.0 L96.8,346.5 L97.7,352.8 L98.5,368.2 L99.4,375.1 L100.2,380.1 L101.0,373.5 L101.9,382.9 L102.7,369.4 L103.6,356.6 L104.4,355.0 L105.2,364.7 L106.1,386.1 L106.9,398.3 L107.8,414.7 L108.6,410.3 L109.5,406.5 L110.3,407.1 L111.1,382.6 L112.0,365.7 L112.8,376.0 L113.7,393.3 L114.5,408.4 L115.3,410.6 L116.2,415.6 L117.0,414.3 L117.9,413.7 L118.7,408.4 L119.6,409.9 L120.4,412.1 L121.2,402.7 L122.1,390.2 L122.9,372.3 L123.8,350.9 L124.6,354.7 L125.4,354.0 L126.3,362.5 L127.1,389.5 L128.0,409.6 L128.8,417.2 L129.6,420.0 L130.5,420.0 L131.3,420.0 L132.2,419.4 L133.0,417.8 L133.9,417.8 L134.7,417.5 L135.5,415.9 L136.4,408.7 L137.2,409.0 L138.1,413.1 L138.9,412.5 L139.7,411.2 L140.6,406.5 L141.4,402.7 L142.3,391.7 L143.1,388.6 L144.0,389.2 L144.8,398.6 L145.6,408.7 L146.5,418.1 L147.3,408.7 L148.2,413.4 L149.0,415.6 L149.8,410.9 L150.7,409.0 L151.5,410.3 L152.4,408.7 L153.2,409.3 L154.1,414.3 L154.9,416.9 L155.7,412.8 L156.6,402.4 L157.4,392.4 L158.3,390.8 L159.1,369.4 L159.9,349.3 L160.8,352.2 L161.6,348.4 L162.5,371.3 L163.3,370.7 L164.2,349.6 L165.0,320.1 L165.8,310.1 L166.7,322.6 L167.5,345.3 L168.4,340.2 L169.2,345.6 L170.0,328.0 L170.9,334.3 L171.7,348.7 L172.6,352.8 L173.4,361.0 L174.2,358.1 L175.1,388.3 L175.9,393.9 L176.8,394.6 L177.6,403.4 L178.5,400.8 L179.3,398.3 L180.1,406.2 L181.0,400.5 L181.8,417.2 L182.7,403.4 L183.5,399.6 L184.3,404.6 L185.2,395.5 L186.0,407.1 L186.9,410.9 L187.7,418.4 L188.6,419.4 L189.4,419.1 L190.2,412.5 L191.1,382.9 L191.9,386.1 L192.8,334.9 L193.6,339.9 L194.4,354.0 L195.3,328.0 L196.1,330.5 L197.0,321.7 L197.8,327.7 L198.7,350.0 L199.5,329.2 L200.3,357.5 L201.2,355.0 L202.0,348.4 L202.9,307.3 L203.7,323.0 L204.5,319.2 L205.4,313.5 L206.2,303.5 L207.1,320.1 L207.9,330.5 L208.8,320.1 L209.6,311.0 L210.4,305.1 L211.3,310.7 L212.1,296.3 L213.0,300.0 L213.8,305.1 L214.6,302.9 L215.5,342.4 L216.3,339.9 L217.2,329.9 L218.0,308.5 L218.8,318.6 L219.7,311.3 L220.5,313.8 L221.4,306.9 L222.2,315.7 L223.1,304.7 L223.9,329.2 L224.7,339.6 L225.6,344.0 L226.4,352.8 L227.3,355.0 L228.1,355.0 L228.9,335.5 L229.8,339.6 L230.6,355.6 L231.5,331.7 L232.3,354.7 L233.2,335.2 L234.0,338.7 L234.8,355.3 L235.7,387.7 L236.5,386.4 L237.4,370.7 L238.2,375.7 L239.0,374.5 L239.9,328.6 L240.7,353.4 L241.6,344.0 L242.4,371.0 L243.3,344.6 L244.1,381.7 L244.9,373.5 L245.8,333.6 L246.6,348.1 L247.5,335.8 L248.3,340.9 L249.1,331.1 L250.0,325.8 L250.8,335.8 L251.7,348.7 L252.5,318.2 L253.4,332.7 L254.2,327.0 L255.0,339.3 L255.9,333.3 L256.7,315.4 L257.6,335.8 L258.4,333.3 L259.2,347.1 L260.1,364.1 L260.9,384.8 L261.8,388.9 L262.6,377.0 L263.5,355.9 L264.3,333.6 L265.1,333.3 L266.0,344.6 L266.8,339.0 L267.7,328.6 L268.5,321.1 L269.3,340.2 L270.2,355.9 L271.0,364.7 L271.9,346.8 L272.7,334.9 L273.5,348.7 L274.4,355.0 L275.2,350.0 L276.1,352.2 L276.9,357.8 L277.8,362.5 L278.6,350.3 L279.4,366.3 L280.3,333.3 L281.1,345.9 L282.0,371.6 L282.8,341.5 L283.6,342.7 L284.5,365.7 L285.3,354.0 L286.2,377.9 L287.0,387.0 L287.9,393.0 L288.7,389.2 L289.5,388.3 L290.4,374.1 L291.2,352.8 L292.1,351.8 L292.9,339.6 L293.7,337.1 L294.6,334.9 L295.4,364.4 L296.3,333.6 L297.1,361.6 L298.0,362.5 L298.8,365.0 L299.6,360.0 L300.5,357.8 L301.3,361.6 L302.2,363.5 L303.0,364.4 L303.8,379.8 L304.7,398.0 L305.5,398.3 L306.4,406.2 L307.2,411.2 L308.1,412.8 L308.9,400.8 L309.7,388.6 L310.6,394.9 L311.4,387.3 L312.3,375.1 L313.1,381.1 L313.9,360.3 L314.8,394.2 L315.6,391.1 L316.5,384.2 L317.3,384.8 L318.1,388.9 L319.0,383.9 L319.8,364.1 L320.7,377.0 L321.5,366.0 L322.4,360.0 L323.2,360.3 L324.0,366.3 L324.9,384.8 L325.7,400.5 L326.6,409.9 L327.4,408.1 L328.2,397.7 L329.1,394.2 L329.9,392.4 L330.8,389.2 L331.6,366.9 L332.5,361.3 L333.3,353.4 L334.1,371.6 L335.0,377.9 L335.8,380.4 L336.7,384.5 L337.5,383.3 L338.3,393.6 L339.2,388.6 L340.0,371.6 L340.9,364.7 L341.7,359.4 L342.6,367.6 L343.4,393.9 L344.2,408.7 L345.1,414.3 L345.9,417.8 L346.8,411.8 L347.6,417.5 L348.4,417.8 L349.3,415.3 L350.1,410.6 L351.0,396.4 L351.8,398.6 L352.7,400.2 L353.5,401.2 L354.3,401.5 L355.2,402.4 L356.0,409.3 L356.9,419.7 L357.7,420.0 L358.5,418.4 L359.4,414.0 L360.2,411.2 L361.1,407.4 L361.9,400.5 L362.7,377.9 L363.6,368.2 L364.4,367.9 L365.3,405.9 L366.1,403.7 L367.0,387.7 L367.8,395.8 L368.6,400.5 L369.5,399.6 L370.3,405.9 L371.2,411.2 L372.0,397.4 L372.8,389.8 L373.7,387.0 L374.5,394.9 L375.4,387.3 L376.2,376.0 L377.1,364.4 L377.9,348.1 L378.7,341.2 L379.6,340.9 L380.4,400.8 L381.3,364.4 L382.1,347.8 L382.9,350.3 L383.8,351.5 L384.6,351.2 L385.5,323.6 L386.3,293.1 L387.2,293.4 L388.0,299.4 L388.8,303.8 L389.7,302.2 L390.5,311.3 L391.4,317.9 L392.2,310.4 L393.0,319.2 L393.9,318.6 L394.7,327.0 L395.6,329.2 L396.4,349.6 L397.3,362.8 L398.1,363.8 L398.9,350.6 L399.8,375.1 L400.6,377.9 L401.5,377.6 L402.3,357.2 L403.1,387.7 L404.0,382.3 L404.8,383.6 L405.7,339.0 L406.5,367.6 L407.3,371.0 L408.2,352.8 L409.0,359.4 L409.9,376.3 L410.7,367.9 L411.6,341.5 L412.4,336.1 L413.2,325.2 L414.1,328.0 L414.9,323.3 L415.8,311.3 L416.6,306.0 L417.4,318.2 L418.3,333.0 L419.1,335.2 L420.0,339.6 L420.8,353.4 L421.7,338.0 L422.5,316.7 L423.3,328.3 L424.2,323.3 L425.0,326.7 L425.9,337.4 L426.7,344.3 L427.5,341.2 L428.4,338.0 L429.2,363.2 L430.1,393.0 L430.9,396.4 L431.8,385.1 L432.6,379.5 L433.4,380.7 L434.3,385.1 L435.1,394.2 L436.0,402.7 L436.8,415.3 L437.6,409.0 L438.5,403.4 L439.3,409.6 L440.2,404.9 L441.0,396.1 L441.9,397.7 L442.7,403.0 L443.5,409.6 L444.4,407.1 L445.2,408.7 L446.1,407.1 L446.9,386.7 L447.7,385.8 L448.6,383.6 L449.4,377.0 L450.3,369.1 L451.1,373.2 L451.9,381.7 L452.8,393.0 L453.6,404.9 L454.5,411.8 L455.3,414.7 L456.2,403.4 L457.0,393.9 L457.8,390.5 L458.7,383.6 L459.5,370.4 L460.4,400.2 L461.2,405.2 L462.0,399.6 L462.9,402.4 L463.7,401.2 L464.6,371.3 L465.4,376.3 L466.3,372.9 L467.1,373.5 L467.9,370.1 L468.8,366.9 L469.6,376.7 L470.5,385.1 L471.3,393.0 L472.1,403.0 L473.0,412.1 L473.8,408.4 L474.7,412.1 L475.5,414.0 L476.4,416.9 L477.2,415.9 L478.0,417.5 L478.9,417.5 L479.7,415.0 L480.6,415.0 L481.4,418.7 L482.2,420.0 L483.1,420.0 L483.9,419.7 L484.8,419.1 L485.6,418.4 L486.5,414.3 L487.3,413.7 L488.1,407.4 L489.0,411.5 L489.8,416.2 L490.7,417.5 L491.5,414.7 L492.3,414.7 L493.2,408.1 L494.0,404.3 L494.9,394.2 L495.7,383.6 L496.5,387.7 L497.4,390.8 L498.2,386.4 L499.1,388.9 L499.9,380.1 L500.8,383.6 L501.6,365.4 L502.4,382.0 L503.3,384.8 L504.1,398.6 L505.0,403.7 L505.8,400.2 L506.6,409.6 L507.5,409.3 L508.3,410.3 L509.2,406.2 L510.0,391.7 L510.9,398.0 L511.7,392.4 L512.5,374.1 L513.4,363.5 L514.2,347.1 L515.1,382.3 L515.9,385.5 L516.7,393.9 L517.6,393.9 L518.4,383.6 L519.3,388.0 L520.1,378.2 L521.0,385.1 L521.8,379.8 L522.6,376.0 L523.5,386.7 L524.3,374.1 L525.2,375.1 L526.0,382.9 L526.8,388.9 L527.7,409.0 L528.5,413.7 L529.4,415.6 L530.2,412.1 L531.1,411.2 L531.9,403.4 L532.7,398.6 L533.6,401.8 L534.4,393.6 L535.3,399.3 L536.1,391.7 L536.9,399.0 L537.8,407.4 L538.6,407.1 L539.5,382.9 L540.3,372.9 L541.2,381.4 L542.0,381.1 L542.8,394.9 L543.7,392.7 L544.5,391.4 L545.4,397.1 L546.2,397.7 L547.0,408.1 L547.9,413.1 L548.7,416.2 L549.6,412.1 L550.4,408.1 L551.2,407.1 L552.1,405.2 L552.9,400.2 L553.8,389.5 L554.6,376.0 L555.5,371.9 L556.3,374.5 L557.1,379.8 L558.0,384.5 L558.8,382.6 L559.7,392.0 L560.5,396.1 L561.3,399.0 L562.2,399.0 L563.0,401.5 L563.9,402.4 L564.7,400.8 L565.6,398.3 L566.4,394.9 L567.2,403.0 L568.1,408.4 L568.9,406.2 L569.8,407.1 L570.6,390.8 L571.4,397.1 L572.3,392.7 L573.1,388.3 L574.0,386.7 L574.8,353.4 L575.7,358.8 L576.5,348.1 L577.3,369.4 L578.2,378.9 L579.0,386.7 L579.9,396.4 L580.7,403.4 L581.5,406.8 L582.4,403.4 L583.2,389.5 L584.1,398.0 L584.9,392.0 L585.8,391.1 L586.6,394.9 L587.4,398.3 L588.3,398.0 L589.1,392.7 L590.0,402.7 L590.8,388.0 L591.6,416.9 L592.5,415.6 L593.3,416.9 L594.2,416.9 L595.0,415.9 L595.8,412.8 L596.7,413.1 L597.5,415.6 L598.4,416.9 L599.2,413.7 L600.1,408.4 L600.9,396.8 L601.7,379.2 L602.6,388.3 L603.4,377.3 L604.3,366.9 L605.1,369.4 L605.9,359.1 L606.8,355.0 L607.6,377.6 L608.5,364.7 L609.3,376.3 L610.2,391.7 L611.0,392.0 L611.8,384.5 L612.7,351.8 L613.5,324.5 L614.4,343.4 L615.2,352.2 L616.0,381.1 L616.9,381.4 L617.7,376.7 L618.6,395.2 L619.4,387.0 L620.3,388.3 L621.1,381.7 L621.9,371.6 L622.8,368.8 L623.6,358.8 L624.5,344.6 L625.3,339.6 L626.1,333.6 L627.0,346.2 L627.8,357.2 L628.7,379.2 L629.5,373.5 L630.4,358.8 L631.2,376.3 L632.0,385.1 L632.9,395.2 L633.7,408.1 L634.6,408.1 L635.4,406.5 L636.2,403.7 L637.1,399.3 L637.9,397.7 L638.8,384.5 L639.6,376.7 L640.4,371.6 L641.3,370.1 L642.1,348.1 L643.0,343.7 L643.8,351.2 L644.7,356.6 L645.5,345.3 L646.3,356.6 L647.2,362.2 L648.0,377.0 L648.9,400.8 L649.7,403.0 L650.5,407.1 L651.4,416.2 L652.2,415.3 L653.1,411.8 L653.9,408.1 L654.8,403.0 L655.6,389.2 L656.4,383.6 L657.3,380.4 L658.1,390.5 L659.0,378.2 L659.8,371.0 L660.6,376.3 L661.5,370.7 L662.3,367.2 L663.2,368.2 L664.0,359.7 L664.9,364.4 L665.7,366.0 L666.5,346.5 L667.4,362.8 L668.2,353.7 L669.1,371.3 L669.9,386.7 L670.7,379.8 L671.6,359.1 L672.4,339.6 L673.3,315.4 L674.1,316.0 L675.0,324.5 L675.8,340.2 L676.6,334.3 L677.5,349.6 L678.3,378.5 L679.2,394.6 L680.0,405.6" stroke="#1f77b4" stroke-width="2" fill="none" opacity="0.8"/>
<!-- Hydro Generation -->
<path d="M80.0,379.8 L80.8,380.1 L81.7,336.8 L82.5,336.5 L83.4,336.5 L84.2,337.7 L85.0,338.0 L85.9,339.3 L86.7,339.3 L87.6,339.3 L88.4,339.3 L89.3,339.3 L90.1,338.7 L90.9,338.0 L91.8,337.4 L92.6,338.0 L93.5,338.3 L94.3,338.0 L95.1,338.3 L96.0,338.0 L96.8,338.0 L97.7,337.7 L98.5,337.7 L99.4,338.0 L100.2,338.0 L101.0,338.3 L101.9,338.3 L102.7,338.3 L103.6,338.7 L104.4,338.3 L105.2,338.7 L106.1,338.7 L106.9,338.7 L107.8,338.7 L108.6,339.0 L109.5,338.7 L110.3,338.7 L111.1,338.3 L112.0,338.3 L112.8,338.3 L113.7,339.3 L114.5,338.7 L115.3,339.9 L116.2,339.9 L117.0,339.3 L117.9,339.3 L118.7,339.9 L119.6,337.7 L120.4,337.7 L121.2,337.7 L122.1,338.0 L122.9,338.0 L123.8,338.0 L124.6,338.0 L125.4,337.7 L126.3,337.7 L127.1,338.0 L128.0,337.7 L128.8,338.3 L129.6,338.3 L130.5,339.0 L131.3,339.0 L132.2,338.0 L133.0,338.3 L133.9,338.3 L134.7,340.5 L135.5,340.2 L136.4,340.2 L137.2,340.2 L138.1,340.9 L138.9,340.9 L139.7,340.9 L140.6,340.2 L141.4,339.3 L142.3,339.6 L143.1,339.0 L144.0,339.0 L144.8,339.3 L145.6,339.0 L146.5,339.0 L147.3,339.0 L148.2,339.0 L149.0,339.0 L149.8,339.0 L150.7,339.3 L151.5,339.0 L152.4,339.3 L153.2,339.6 L154.1,340.5 L154.9,340.5 L155.7,340.2 L156.6,339.9 L157.4,340.2 L158.3,339.6 L159.1,339.0 L159.9,339.3 L160.8,338.0 L161.6,337.7 L162.5,337.7 L163.3,338.3 L164.2,338.3 L165.0,338.3 L165.8,338.3 L166.7,338.3 L167.5,338.3 L168.4,338.3 L169.2,338.0 L170.0,338.3 L170.9,338.0 L171.7,338.0 L172.6,338.3 L173.4,339.3 L174.2,339.6 L175.1,339.6 L175.9,339.6 L176.8,339.3 L177.6,338.0 L178.5,338.0 L179.3,338.0 L180.1,337.1 L181.0,337.4 L181.8,337.1 L182.7,337.1 L183.5,337.4 L184.3,338.0 L185.2,338.3 L186.0,338.3 L186.9,338.3 L187.7,337.1 L188.6,337.1 L189.4,337.4 L190.2,336.5 L191.1,336.5 L191.9,336.5 L192.8,336.1 L193.6,337.7 L194.4,338.0 L195.3,337.7 L196.1,336.8 L197.0,350.3 L197.8,350.0 L198.7,349.6 L199.5,349.6 L200.3,349.6 L201.2,350.0 L202.0,350.3 L202.9,349.6 L203.7,336.1 L204.5,336.5 L205.4,336.5 L206.2,336.8 L207.1,336.5 L207.9,336.5 L208.8,336.8 L209.6,336.5 L210.4,336.5 L211.3,336.5 L212.1,336.8 L213.0,335.8 L213.8,337.7 L214.6,340.5 L215.5,340.5 L216.3,340.5 L217.2,340.9 L218.0,339.9 L218.8,340.2 L219.7,339.9 L220.5,340.5 L221.4,340.9 L222.2,341.2 L223.1,340.9 L223.9,341.2 L224.7,340.9 L225.6,340.5 L226.4,341.2 L227.3,340.2 L228.1,339.9 L228.9,339.9 L229.8,340.2 L230.6,339.6 L231.5,339.6 L232.3,339.9 L233.2,338.7 L234.0,339.0 L234.8,339.3 L235.7,339.6 L236.5,339.9 L237.4,339.9 L238.2,340.2 L239.0,339.9 L239.9,340.5 L240.7,339.9 L241.6,340.9 L242.4,341.2 L243.3,340.9 L244.1,341.5 L244.9,341.2 L245.8,341.5 L246.6,342.7 L247.5,342.4 L248.3,342.7 L249.1,341.2 L250.0,340.9 L250.8,340.5 L251.7,339.6 L252.5,339.6 L253.4,339.0 L254.2,339.0 L255.0,339.3 L255.9,339.0 L256.7,339.0 L257.6,339.0 L258.4,339.0 L259.2,340.2 L260.1,339.6 L260.9,339.6 L261.8,339.6 L262.6,339.6 L263.5,342.4 L264.3,344.0 L265.1,344.0 L266.0,344.6 L266.8,344.6 L267.7,344.3 L268.5,342.7 L269.3,342.1 L270.2,342.4 L271.0,341.8 L271.9,341.8 L272.7,341.8 L273.5,341.5 L274.4,341.8 L275.2,341.5 L276.1,341.2 L276.9,341.2 L277.8,339.9 L278.6,339.9 L279.4,339.6 L280.3,340.2 L281.1,339.9 L282.0,340.2 L282.8,340.5 L283.6,327.7 L284.5,328.0 L285.3,328.3 L286.2,327.7 L287.0,327.4 L287.9,327.4 L288.7,327.0 L289.5,327.0 L290.4,327.7 L291.2,327.7 L292.1,327.7 L292.9,327.7 L293.7,328.0 L294.6,328.0 L295.4,327.7 L296.3,327.7 L297.1,327.4 L298.0,327.4 L298.8,327.7 L299.6,354.7 L300.5,361.6 L301.3,361.3 L302.2,361.6 L303.0,362.5 L303.8,347.8 L304.7,327.4 L305.5,328.0 L306.4,328.3 L307.2,328.3 L308.1,328.6 L308.9,328.6 L309.7,328.6 L310.6,328.0 L311.4,327.7 L312.3,327.0 L313.1,327.0 L313.9,327.0 L314.8,327.4 L315.6,327.4 L316.5,327.4 L317.3,349.6 L318.1,349.6 L319.0,350.0 L319.8,349.6 L320.7,350.0 L321.5,350.0 L322.4,350.0 L323.2,328.3 L324.0,328.0 L324.9,328.0 L325.7,328.9 L326.6,328.9 L327.4,328.6 L328.2,328.9 L329.1,328.9 L329.9,328.9 L330.8,328.9 L331.6,328.9 L332.5,328.9 L333.3,328.9 L334.1,328.9 L335.0,329.5 L335.8,330.8 L336.7,332.4 L337.5,334.3 L338.3,332.7 L339.2,332.7 L340.0,332.4 L340.9,332.7 L341.7,332.1 L342.6,330.5 L343.4,330.5 L344.2,330.2 L345.1,330.5 L345.9,331.1 L346.8,330.8 L347.6,331.1 L348.4,331.1 L349.3,331.1 L350.1,331.1 L351.0,331.1 L351.8,331.1 L352.7,331.1 L353.5,330.8 L354.3,331.1 L355.2,331.1 L356.0,330.8 L356.9,330.8 L357.7,330.8 L358.5,331.4 L359.4,332.1 L360.2,335.5 L361.1,332.7 L361.9,332.7 L362.7,332.7 L363.6,332.7 L364.4,332.7 L365.3,332.1 L366.1,332.1 L367.0,332.1 L367.8,332.4 L368.6,332.4 L369.5,332.4 L370.3,332.4 L371.2,332.1 L372.0,332.1 L372.8,332.1 L373.7,331.7 L374.5,332.4 L375.4,332.1 L376.2,330.8 L377.1,330.8 L377.9,333.3 L378.7,331.4 L379.6,331.1 L380.4,331.1 L381.3,331.4 L382.1,331.1 L382.9,331.4 L383.8,331.4 L384.6,331.1 L385.5,331.7 L386.3,331.7 L387.2,333.0 L388.0,332.1 L388.8,332.4 L389.7,333.3 L390.5,333.3 L391.4,333.3 L392.2,333.3 L393.0,333.6 L393.9,333.6 L394.7,333.0 L395.6,333.0 L396.4,332.4 L397.3,332.1 L398.1,332.1 L398.9,332.1 L399.8,331.4 L400.6,332.1 L401.5,332.1 L402.3,332.1 L403.1,332.1 L404.0,330.8 L404.8,330.8 L405.7,330.8 L406.5,330.8 L407.3,330.8 L408.2,330.5 L409.0,330.8 L409.9,330.8 L410.7,330.5 L411.6,330.8 L412.4,330.8 L413.2,330.8 L414.1,331.4 L414.9,331.4 L415.8,332.1 L416.6,331.4 L417.4,331.7 L418.3,333.6 L419.1,331.4 L420.0,331.4 L420.8,331.7 L421.7,331.1 L422.5,331.7 L423.3,331.4 L424.2,330.2 L425.0,329.9 L425.9,330.2 L426.7,329.2 L427.5,329.2 L428.4,327.7 L429.2,328.0 L430.1,327.7 L430.9,327.7 L431.8,326.7 L432.6,327.0 L433.4,326.7 L434.3,326.7 L435.1,326.4 L436.0,328.0 L436.8,328.3 L437.6,328.0 L438.5,328.0 L439.3,327.7 L440.2,328.9 L441.0,328.6 L441.9,328.9 L442.7,328.3 L443.5,328.9 L444.4,329.5 L445.2,329.5 L446.1,328.9 L446.9,329.2 L447.7,329.2 L448.6,329.2 L449.4,329.2 L450.3,329.2 L451.1,329.2 L451.9,329.2 L452.8,329.2 L453.6,329.2 L454.5,329.2 L455.3,329.9 L456.2,329.9 L457.0,329.9 L457.8,329.9 L458.7,329.9 L459.5,329.9 L460.4,330.8 L461.2,330.2 L462.0,330.8 L462.9,330.8 L463.7,330.8 L464.6,331.4 L465.4,331.1 L466.3,331.7 L467.1,331.7 L467.9,332.1 L468.8,331.7 L469.6,331.7 L470.5,331.7 L471.3,331.7 L472.1,330.8 L473.0,330.8 L473.8,331.1 L474.7,331.1 L475.5,330.8 L476.4,330.8 L477.2,331.1 L478.0,331.1 L478.9,331.1 L479.7,330.8 L480.6,330.8 L481.4,332.4 L482.2,332.7 L483.1,331.7 L483.9,332.7 L484.8,331.4 L485.6,330.8 L486.5,330.8 L487.3,331.1 L488.1,331.4 L489.0,332.4 L489.8,332.4 L490.7,332.4 L491.5,332.1 L492.3,331.7 L493.2,331.7 L494.0,332.1 L494.9,331.7 L495.7,331.7 L496.5,331.7 L497.4,331.7 L498.2,331.4 L499.1,331.4 L499.9,344.3 L500.8,344.3 L501.6,344.6 L502.4,344.3 L503.3,344.6 L504.1,332.1 L505.0,332.1 L505.8,331.7 L506.6,331.7 L507.5,331.7 L508.3,331.1 L509.2,331.4 L510.0,331.4 L510.9,331.4 L511.7,331.7 L512.5,331.7 L513.4,331.4 L514.2,331.4 L515.1,331.4 L515.9,331.7 L516.7,331.7 L517.6,332.1 L518.4,331.4 L519.3,331.4 L520.1,332.7 L521.0,332.7 L521.8,333.9 L522.6,334.3 L523.5,334.3 L524.3,332.1 L525.2,332.4 L526.0,332.4 L526.8,332.4 L527.7,332.4 L528.5,332.4 L529.4,332.1 L530.2,332.1 L531.1,332.1 L531.9,331.7 L532.7,331.7 L533.6,332.4 L534.4,332.7 L535.3,332.7 L536.1,333.3 L536.9,333.3 L537.8,333.3 L538.6,335.2 L539.5,344.6 L540.3,344.6 L541.2,332.7 L542.0,333.3 L542.8,334.6 L543.7,333.3 L544.5,333.3 L545.4,333.0 L546.2,333.0 L547.0,332.7 L547.9,332.7 L548.7,332.7 L549.6,332.7 L550.4,332.4 L551.2,332.7 L552.1,332.7 L552.9,334.3 L553.8,345.3 L554.6,332.7 L555.5,333.0 L556.3,331.4 L557.1,331.1 L558.0,331.1 L558.8,331.1 L559.7,331.1 L560.5,330.8 L561.3,331.4 L562.2,331.7 L563.0,333.0 L563.9,332.7 L564.7,333.0 L565.6,333.9 L566.4,333.9 L567.2,334.9 L568.1,334.9 L568.9,335.8 L569.8,335.8 L570.6,335.8 L571.4,335.8 L572.3,335.8 L573.1,335.8 L574.0,336.1 L574.8,335.8 L575.7,335.8 L576.5,335.8 L577.3,335.8 L578.2,335.8 L579.0,336.1 L579.9,336.1 L580.7,336.1 L581.5,336.1 L582.4,335.8 L583.2,336.1 L584.1,335.8 L584.9,335.8 L585.8,335.8 L586.6,334.9 L587.4,333.6 L588.3,333.6 L589.1,333.6 L590.0,332.7 L590.8,332.7 L591.6,332.7 L592.5,333.0 L593.3,333.0 L594.2,332.7 L595.0,333.6 L595.8,333.6 L596.7,334.6 L597.5,334.6 L598.4,334.3 L599.2,333.9 L600.1,333.9 L600.9,333.9 L601.7,330.8 L602.6,333.9 L603.4,333.9 L604.3,334.3 L605.1,334.3 L605.9,333.9 L606.8,333.9 L607.6,334.3 L608.5,334.6 L609.3,333.6 L610.2,333.6 L611.0,333.6 L611.8,333.6 L612.7,333.6 L613.5,333.6 L614.4,333.6 L615.2,334.9 L616.0,334.9 L616.9,334.9 L617.7,334.9 L618.6,334.9 L619.4,334.9 L620.3,334.9 L621.1,334.9 L621.9,334.9 L622.8,335.2 L623.6,334.9 L624.5,334.6 L625.3,335.2 L626.1,334.9 L627.0,334.9 L627.8,334.9 L628.7,334.9 L629.5,334.9 L630.4,335.5 L631.2,335.5 L632.0,335.8 L632.9,335.5 L633.7,335.5 L634.6,335.5 L635.4,335.2 L636.2,335.8 L637.1,335.2 L637.9,335.2 L638.8,336.1 L639.6,335.5 L640.4,335.8 L641.3,335.8 L642.1,336.1 L643.0,335.8 L643.8,335.5 L644.7,335.2 L645.5,335.2 L646.3,335.5 L647.2,335.5 L648.0,335.5 L648.9,335.5 L649.7,335.5 L650.5,335.5 L651.4,335.5 L652.2,335.5 L653.1,335.5 L653.9,335.5 L654.8,335.2 L655.6,335.2 L656.4,334.9 L657.3,334.9 L658.1,335.2 L659.0,335.2 L659.8,335.2 L660.6,334.9 L661.5,334.9 L662.3,334.9 L663.2,335.2 L664.0,335.2 L664.9,333.6 L665.7,333.9 L666.5,333.0 L667.4,333.0 L668.2,334.3 L669.1,334.3 L669.9,332.7 L670.7,332.1 L671.6,332.4 L672.4,332.7 L673.3,332.4 L674.1,332.7 L675.0,333.0 L675.8,333.3 L676.6,333.6 L677.5,333.6 L678.3,332.4 L679.2,332.4 L680.0,332.1" stroke="#ff7f0e" stroke-width="2" fill="none" opacity="0.8"/>
<!-- Thermal Generation -->
<path d="M80.0,353.4 L80.8,354.0 L81.7,354.0 L82.5,353.4 L83.4,353.7 L84.2,352.2 L85.0,352.8 L85.9,352.2 L86.7,352.8 L87.6,358.8 L88.4,352.5 L89.3,352.8 L90.1,352.2 L90.9,351.8 L91.8,265.5 L92.6,249.1 L93.5,292.5 L94.3,331.1 L95.1,342.7 L96.0,352.2 L96.8,349.0 L97.7,348.1 L98.5,352.2 L99.4,349.3 L100.2,352.2 L101.0,314.2 L101.9,283.4 L102.7,230.6 L103.6,226.9 L104.4,215.2 L105.2,238.2 L106.1,239.1 L106.9,238.2 L107.8,242.9 L108.6,245.4 L109.5,248.2 L110.3,242.2 L111.1,242.9 L112.0,228.7 L112.8,216.8 L113.7,246.3 L114.5,261.4 L115.3,262.7 L116.2,282.1 L117.0,292.5 L117.9,305.4 L118.7,314.8 L119.6,312.9 L120.4,312.6 L121.2,315.1 L122.1,242.6 L122.9,219.3 L123.8,238.8 L124.6,245.1 L125.4,309.8 L126.3,308.5 L127.1,333.3 L128.0,267.4 L128.8,255.1 L129.6,236.6 L130.5,227.2 L131.3,218.4 L132.2,219.0 L133.0,216.2 L133.9,219.0 L134.7,220.6 L135.5,218.7 L136.4,237.2 L137.2,239.1 L138.1,251.3 L138.9,298.8 L139.7,271.8 L140.6,311.3 L141.4,302.5 L142.3,246.6 L143.1,221.2 L144.0,218.1 L144.8,236.3 L145.6,229.7 L146.5,241.3 L147.3,292.2 L148.2,292.5 L149.0,305.1 L149.8,304.4 L150.7,304.7 L151.5,304.4 L152.4,289.3 L153.2,301.6 L154.1,352.2 L154.9,339.6 L155.7,351.5 L156.6,352.2 L157.4,353.4 L158.3,353.1 L159.1,350.3 L159.9,351.5 L160.8,352.2 L161.6,352.5 L162.5,348.7 L163.3,313.8 L164.2,290.0 L165.0,289.3 L165.8,336.5 L166.7,351.5 L167.5,351.5 L168.4,351.2 L169.2,350.6 L170.0,350.9 L170.9,350.6 L171.7,350.9 L172.6,351.8 L173.4,350.0 L174.2,352.5 L175.1,351.2 L175.9,352.2 L176.8,336.8 L177.6,339.9 L178.5,339.6 L179.3,314.8 L180.1,317.9 L181.0,299.7 L181.8,289.7 L182.7,289.7 L183.5,305.1 L184.3,306.9 L185.2,308.2 L186.0,306.9 L186.9,351.8 L187.7,351.8 L188.6,352.2 L189.4,351.5 L190.2,352.2 L191.1,351.2 L191.9,351.2 L192.8,352.2 L193.6,352.5 L194.4,352.2 L195.3,351.5 L196.1,353.1 L197.0,352.5 L197.8,352.2 L198.7,352.5 L199.5,343.7 L200.3,333.3 L201.2,333.9 L202.0,348.1 L202.9,352.5 L203.7,351.8 L204.5,352.5 L205.4,351.8 L206.2,352.5 L207.1,352.2 L207.9,352.2 L208.8,351.8 L209.6,351.5 L210.4,351.5 L211.3,351.2 L212.1,351.2 L213.0,351.8 L213.8,334.6 L214.6,333.9 L215.5,316.4 L216.3,344.0 L217.2,330.2 L218.0,334.6 L218.8,334.3 L219.7,350.6 L220.5,350.0 L221.4,350.0 L222.2,352.5 L223.1,352.2 L223.9,337.7 L224.7,340.2 L225.6,345.3 L226.4,339.6 L227.3,333.9 L228.1,333.6 L228.9,352.2 L229.8,351.8 L230.6,351.8 L231.5,352.5 L232.3,339.6 L233.2,340.2 L234.0,311.6 L234.8,329.5 L235.7,352.5 L236.5,352.5 L237.4,352.8 L238.2,353.1 L239.0,352.8 L239.9,352.8 L240.7,352.5 L241.6,352.5 L242.4,352.5 L243.3,352.5 L244.1,320.4 L244.9,322.0 L245.8,290.0 L246.6,302.9 L247.5,327.4 L248.3,352.5 L249.1,352.2 L250.0,352.2 L250.8,352.2 L251.7,352.8 L252.5,352.2 L253.4,327.0 L254.2,305.7 L255.0,328.0 L255.9,327.4 L256.7,339.6 L257.6,351.8 L258.4,352.2 L259.2,352.5 L260.1,352.5 L260.9,352.2 L261.8,352.2 L262.6,352.2 L263.5,352.2 L264.3,353.1 L265.1,353.1 L266.0,352.2 L266.8,352.2 L267.7,340.2 L268.5,352.8 L269.3,352.2 L270.2,351.8 L271.0,351.8 L271.9,352.5 L272.7,352.8 L273.5,333.3 L274.4,318.2 L275.2,317.9 L276.1,318.6 L276.9,333.9 L277.8,352.8 L278.6,352.2 L279.4,353.1 L280.3,352.5 L281.1,352.2 L282.0,352.2 L282.8,352.2 L283.6,351.8 L284.5,307.3 L285.3,325.2 L286.2,312.9 L287.0,309.1 L287.9,306.3 L288.7,312.3 L289.5,321.7 L290.4,325.5 L291.2,325.8 L292.1,336.8 L292.9,352.2 L293.7,339.6 L294.6,335.8 L295.4,336.5 L296.3,352.2 L297.1,351.8 L298.0,352.2 L298.8,352.5 L299.6,352.8 L300.5,352.2 L301.3,352.2 L302.2,351.8 L303.0,352.8 L303.8,352.2 L304.7,337.4 L305.5,307.6 L306.4,307.9 L307.2,310.7 L308.1,317.9 L308.9,314.8 L309.7,344.3 L310.6,347.8 L311.4,352.5 L312.3,351.8 L313.1,351.8 L313.9,352.2 L314.8,351.5 L315.6,345.3 L316.5,351.8 L317.3,351.5 L318.1,351.8 L319.0,351.2 L319.8,351.5 L320.7,351.2 L321.5,351.8 L322.4,352.5 L323.2,352.2 L324.0,315.7 L324.9,300.0 L325.7,267.4 L326.6,245.4 L327.4,243.8 L328.2,242.9 L329.1,281.5 L329.9,329.2 L330.8,352.5 L331.6,352.5 L332.5,352.5 L333.3,328.6 L334.1,303.8 L335.0,316.0 L335.8,340.5 L336.7,344.6 L337.5,352.8 L338.3,350.3 L339.2,352.8 L340.0,353.4 L340.9,328.6 L341.7,339.3 L342.6,350.3 L343.4,352.8 L344.2,295.0 L345.1,230.6 L345.9,216.8 L346.8,216.5 L347.6,251.3 L348.4,286.5 L349.3,310.7 L350.1,337.4 L351.0,339.6 L351.8,352.2 L352.7,351.5 L353.5,351.5 L354.3,352.8 L355.2,352.5 L356.0,353.7 L356.9,349.0 L357.7,348.4 L358.5,349.0 L359.4,343.4 L360.2,345.6 L361.1,347.5 L361.9,347.8 L362.7,347.8 L363.6,347.1 L364.4,343.4 L365.3,319.8 L366.1,302.5 L367.0,306.0 L367.8,333.6 L368.6,351.8 L369.5,352.2 L370.3,351.8 L371.2,351.5 L372.0,352.2 L372.8,351.8 L373.7,351.8 L374.5,352.5 L375.4,352.8 L376.2,352.8 L377.1,352.8 L377.9,353.7 L378.7,354.0 L379.6,353.4 L380.4,353.7 L381.3,352.2 L382.1,352.5 L382.9,352.2 L383.8,352.5 L384.6,349.0 L385.5,351.5 L386.3,351.8 L387.2,352.2 L388.0,370.7 L388.8,371.0 L389.7,370.7 L390.5,351.8 L391.4,351.5 L392.2,351.2 L393.0,352.2 L393.9,351.8 L394.7,352.8 L395.6,353.1 L396.4,353.1 L397.3,352.5 L398.1,352.5 L398.9,352.5 L399.8,305.7 L400.6,299.1 L401.5,302.2 L402.3,299.1 L403.1,352.2 L404.0,352.5 L404.8,351.5 L405.7,352.5 L406.5,352.5 L407.3,352.2 L408.2,351.8 L409.0,340.9 L409.9,352.2 L410.7,351.5 L411.6,351.5 L412.4,351.5 L413.2,334.6 L414.1,336.1 L414.9,348.7 L415.8,339.9 L416.6,300.3 L417.4,299.1 L418.3,302.5 L419.1,301.9 L420.0,351.8 L420.8,351.8 L421.7,352.5 L422.5,349.0 L423.3,352.2 L424.2,351.8 L425.0,351.8 L425.9,352.5 L426.7,352.8 L427.5,352.5 L428.4,352.5 L429.2,352.5 L430.1,352.2 L430.9,352.5 L431.8,304.7 L432.6,298.8 L433.4,299.7 L434.3,298.5 L435.1,344.6 L436.0,344.3 L436.8,344.9 L437.6,344.3 L438.5,344.3 L439.3,351.8 L440.2,351.8 L441.0,351.5 L441.9,351.8 L442.7,351.5 L443.5,351.2 L444.4,351.5 L445.2,322.6 L446.1,323.0 L446.9,266.1 L447.7,264.5 L448.6,343.1 L449.4,351.5 L450.3,352.5 L451.1,366.9 L451.9,367.9 L452.8,352.5 L453.6,351.8 L454.5,352.2 L455.3,352.2 L456.2,351.2 L457.0,351.5 L457.8,351.8 L458.7,352.2 L459.5,351.8 L460.4,352.2 L461.2,351.8 L462.0,352.2 L462.9,351.8 L463.7,351.8 L464.6,351.8 L465.4,352.2 L466.3,352.5 L467.1,352.5 L467.9,352.5 L468.8,352.5 L469.6,346.8 L470.5,346.5 L471.3,352.5 L472.1,352.5 L473.0,352.5 L473.8,352.5 L474.7,306.3 L475.5,306.3 L476.4,306.3 L477.2,306.9 L478.0,306.3 L478.9,305.7 L479.7,306.6 L480.6,306.6 L481.4,306.6 L482.2,306.6 L483.1,307.3 L483.9,306.0 L484.8,305.7 L485.6,306.3 L486.5,277.1 L487.3,301.6 L488.1,306.3 L489.0,306.0 L489.8,306.6 L490.7,306.6 L491.5,306.3 L492.3,306.6 L493.2,306.6 L494.0,305.7 L494.9,305.4 L495.7,289.0 L496.5,298.5 L497.4,301.3 L498.2,306.0 L499.1,305.7 L499.9,306.3 L500.8,306.6 L501.6,305.4 L502.4,305.4 L503.3,352.2 L504.1,351.8 L505.0,351.8 L505.8,352.5 L506.6,298.1 L507.5,298.5 L508.3,314.5 L509.2,315.1 L510.0,346.5 L510.9,346.8 L511.7,346.2 L512.5,346.5 L513.4,346.2 L514.2,346.5 L515.1,340.2 L515.9,326.1 L516.7,306.9 L517.6,339.3 L518.4,338.7 L519.3,352.5 L520.1,351.8 L521.0,352.2 L521.8,346.8 L522.6,352.2 L523.5,352.2 L524.3,352.2 L525.2,352.8 L526.0,345.9 L526.8,283.4 L527.7,264.9 L528.5,287.8 L529.4,287.2 L530.2,277.1 L531.1,301.9 L531.9,298.8 L532.7,301.9 L533.6,299.1 L534.4,298.8 L535.3,279.6 L536.1,260.8 L536.9,261.1 L537.8,299.4 L538.6,319.5 L539.5,337.7 L540.3,339.6 L541.2,352.2 L542.0,352.5 L542.8,351.8 L543.7,352.2 L544.5,351.5 L545.4,352.5 L546.2,285.6 L547.0,241.9 L547.9,238.5 L548.7,226.2 L549.6,237.8 L550.4,268.9 L551.2,283.1 L552.1,284.3 L552.9,278.4 L553.8,297.5 L554.6,280.2 L555.5,279.6 L556.3,261.7 L557.1,292.8 L558.0,316.0 L558.8,352.8 L559.7,352.5 L560.5,352.5 L561.3,352.8 L562.2,352.5 L563.0,352.5 L563.9,317.3 L564.7,353.7 L565.6,352.8 L566.4,303.5 L567.2,237.5 L568.1,239.4 L568.9,234.7 L569.8,243.8 L570.6,268.3 L571.4,274.6 L572.3,274.0 L573.1,285.6 L574.0,286.8 L574.8,286.8 L575.7,312.9 L576.5,289.3 L577.3,341.2 L578.2,372.3 L579.0,371.6 L579.9,371.6 L580.7,371.6 L581.5,371.9 L582.4,371.3 L583.2,371.6 L584.1,371.6 L584.9,371.9 L585.8,371.6 L586.6,359.7 L587.4,299.4 L588.3,293.1 L589.1,286.5 L590.0,295.9 L590.8,286.8 L591.6,286.2 L592.5,290.9 L593.3,325.5 L594.2,332.1 L595.0,327.4 L595.8,321.7 L596.7,316.4 L597.5,353.7 L598.4,371.9 L599.2,368.8 L600.1,371.3 L600.9,371.9 L601.7,371.3 L602.6,372.3 L603.4,372.6 L604.3,372.6 L605.1,371.9 L605.9,372.6 L606.8,372.3 L607.6,312.3 L608.5,292.2 L609.3,283.7 L610.2,304.1 L611.0,313.2 L611.8,318.6 L612.7,327.7 L613.5,328.0 L614.4,371.3 L615.2,371.6 L616.0,371.6 L616.9,359.7 L617.7,359.4 L618.6,365.7 L619.4,371.9 L620.3,371.0 L621.1,371.6 L621.9,346.8 L622.8,344.6 L623.6,340.5 L624.5,370.4 L625.3,317.6 L626.1,371.3 L627.0,278.4 L627.8,325.5 L628.7,327.4 L629.5,333.6 L630.4,346.5 L631.2,352.5 L632.0,352.5 L632.9,353.7 L633.7,292.5 L634.6,324.5 L635.4,295.6 L636.2,303.5 L637.1,286.2 L637.9,310.7 L638.8,321.1 L639.6,333.3 L640.4,321.1 L641.3,320.4 L642.1,317.9 L643.0,319.2 L643.8,320.4 L644.7,317.3 L645.5,317.6 L646.3,329.2 L647.2,301.0 L648.0,281.2 L648.9,289.7 L649.7,275.5 L650.5,285.9 L651.4,287.5 L652.2,277.7 L653.1,277.1 L653.9,308.2 L654.8,311.0 L655.6,310.1 L656.4,313.2 L657.3,279.9 L658.1,300.3 L659.0,311.3 L659.8,318.2 L660.6,323.0 L661.5,352.5 L662.3,371.0 L663.2,371.0 L664.0,371.3 L664.9,371.3 L665.7,371.0 L666.5,371.0 L667.4,340.2 L668.2,313.2 L669.1,301.3 L669.9,334.3 L670.7,339.9 L671.6,351.8 L672.4,352.5 L673.3,352.8 L674.1,352.8 L675.0,353.1 L675.8,352.5 L676.6,352.5 L677.5,340.2 L678.3,352.5 L679.2,352.8 L680.0,352.5" stroke="#2ca02c" stroke-width="2" fill="none" opacity="0.8"/>
<!-- Solar Generation -->
<path d="M80.0,415.0 L80.8,412.1 L81.7,406.8 L82.5,419.4 L83.4,420.0 L84.2,420.0 L85.0,420.0 L85.9,420.0 L86.7,420.0 L87.6,420.0 L88.4,420.0 L89.3,420.0 L90.1,420.0 L90.9,420.0 L91.8,420.0 L92.6,406.2 L93.5,378.9 L94.3,375.1 L95.1,374.8 L96.0,374.1 L96.8,374.5 L97.7,380.1 L98.5,402.4 L99.4,399.0 L100.2,399.3 L101.0,388.3 L101.9,407.8 L102.7,418.1 L103.6,420.0 L104.4,420.0 L105.2,420.0 L106.1,420.0 L106.9,420.0 L107.8,420.0 L108.6,420.0 L109.5,420.0 L110.3,420.0 L111.1,420.0 L112.0,420.0 L112.8,404.9 L113.7,379.2 L114.5,375.1 L115.3,374.8 L116.2,374.1 L117.0,374.1 L117.9,374.1 L118.7,374.1 L119.6,374.5 L120.4,375.1 L121.2,376.0 L122.1,397.4 L122.9,419.1 L123.8,420.0 L124.6,420.0 L125.4,420.0 L126.3,420.0 L127.1,420.0 L128.0,420.0 L128.8,420.0 L129.6,420.0 L130.5,420.0 L131.3,420.0 L132.2,420.0 L133.0,408.1 L133.9,380.7 L134.7,375.7 L135.5,375.1 L136.4,375.4 L137.2,378.9 L138.1,388.6 L138.9,378.9 L139.7,380.7 L140.6,391.4 L141.4,408.7 L142.3,411.8 L143.1,419.7 L144.0,420.0 L144.8,420.0 L145.6,420.0 L146.5,420.0 L147.3,420.0 L148.2,420.0 L149.0,420.0 L149.8,420.0 L150.7,420.0 L151.5,420.0 L152.4,420.0 L153.2,414.7 L154.1,407.1 L154.9,405.9 L155.7,400.8 L156.6,399.9 L157.4,403.4 L158.3,400.2 L159.1,403.0 L159.9,407.1 L160.8,403.0 L161.6,416.9 L162.5,419.4 L163.3,418.7 L164.2,420.0 L165.0,420.0 L165.8,420.0 L166.7,420.0 L167.5,420.0 L168.4,420.0 L169.2,420.0 L170.0,420.0 L170.9,420.0 L171.7,420.0 L172.6,420.0 L173.4,403.4 L174.2,387.3 L175.1,395.5 L175.9,393.9 L176.8,390.2 L177.6,386.1 L178.5,395.2 L179.3,402.1 L180.1,405.9 L181.0,415.0 L181.8,403.7 L182.7,416.2 L183.5,418.7 L184.3,420.0 L185.2,420.0 L186.0,420.0 L186.9,420.0 L187.7,420.0 L188.6,420.0 L189.4,420.0 L190.2,420.0 L191.1,420.0 L191.9,420.0 L192.8,420.0 L193.6,415.3 L194.4,392.0 L195.3,415.6 L196.1,411.2 L197.0,407.8 L197.8,407.1 L198.7,406.8 L199.5,409.0 L200.3,409.6 L201.2,415.6 L202.0,415.0 L202.9,398.0 L203.7,417.5 L204.5,420.0 L205.4,420.0 L206.2,420.0 L207.1,420.0 L207.9,420.0 L208.8,420.0 L209.6,420.0 L210.4,420.0 L211.3,420.0 L212.1,420.0 L213.0,419.7 L213.8,415.3 L214.6,376.7 L215.5,393.3 L216.3,388.9 L217.2,381.7 L218.0,389.8 L218.8,405.6 L219.7,380.7 L220.5,399.9 L221.4,404.9 L222.2,413.4 L223.1,407.4 L223.9,418.1 L224.7,420.0 L225.6,420.0 L226.4,420.0 L227.3,420.0 L228.1,420.0 L228.9,420.0 L229.8,420.0 L230.6,420.0 L231.5,420.0 L232.3,420.0 L233.2,419.7 L234.0,416.2 L234.8,415.6 L235.7,411.2 L236.5,403.0 L237.4,402.7 L238.2,396.8 L239.0,399.3 L239.9,391.7 L240.7,390.5 L241.6,393.3 L242.4,409.6 L243.3,411.2 L244.1,419.4 L244.9,420.0 L245.8,420.0 L246.6,420.0 L247.5,420.0 L248.3,420.0 L249.1,420.0 L250.0,420.0 L250.8,420.0 L251.7,420.0 L252.5,420.0 L253.4,419.7 L254.2,417.2 L255.0,402.1 L255.9,412.8 L256.7,407.1 L257.6,412.1 L258.4,407.8 L259.2,404.9 L260.1,410.9 L260.9,411.5 L261.8,412.5 L262.6,414.3 L263.5,415.3 L264.3,418.1 L265.1,420.0 L266.0,420.0 L266.8,420.0 L267.7,420.0 L268.5,420.0 L269.3,420.0 L270.2,420.0 L271.0,420.0 L271.9,420.0 L272.7,420.0 L273.5,418.4 L274.4,402.4 L275.2,393.9 L276.1,403.7 L276.9,404.3 L277.8,405.9 L278.6,405.6 L279.4,399.6 L280.3,396.8 L281.1,408.7 L282.0,411.5 L282.8,411.5 L283.6,399.9 L284.5,416.9 L285.3,420.0 L286.2,420.0 L287.0,420.0 L287.9,420.0 L288.7,420.0 L289.5,420.0 L290.4,420.0 L291.2,420.0 L292.1,420.0 L292.9,420.0 L293.7,419.1 L294.6,403.0 L295.4,399.9 L296.3,398.6 L297.1,398.3 L298.0,398.0 L298.8,397.7 L299.6,397.7 L300.5,373.5 L301.3,374.5 L302.2,399.3 L303.0,404.9 L303.8,401.5 L304.7,417.5 L305.5,420.0 L306.4,420.0 L307.2,420.0 L308.1,420.0 L308.9,420.0 L309.7,420.0 L310.6,420.0 L311.4,420.0 L312.3,420.0 L313.1,420.0 L313.9,419.1 L314.8,406.2 L315.6,399.3 L316.5,398.6 L317.3,398.6 L318.1,398.0 L319.0,398.0 L319.8,397.7 L320.7,398.0 L321.5,398.3 L322.4,398.6 L323.2,376.3 L324.0,393.0 L324.9,417.2 L325.7,420.0 L326.6,420.0 L327.4,420.0 L328.2,420.0 L329.1,420.0 L329.9,420.0 L330.8,420.0 L331.6,420.0 L332.5,420.0 L333.3,420.0 L334.1,419.4 L335.0,406.2 L335.8,400.2 L336.7,375.4 L337.5,375.1 L338.3,399.0 L339.2,398.6 L340.0,374.8 L340.9,375.4 L341.7,383.6 L342.6,386.1 L343.4,380.1 L344.2,399.9 L345.1,417.8 L345.9,420.0 L346.8,420.0 L347.6,420.0 L348.4,420.0 L349.3,420.0 L350.1,420.0 L351.0,420.0 L351.8,420.0 L352.7,420.0 L353.5,420.0 L354.3,418.4 L355.2,409.6 L356.0,379.8 L356.9,379.5 L357.7,378.9 L358.5,382.6 L359.4,387.7 L360.2,389.8 L361.1,391.4 L361.9,390.5 L362.7,403.7 L363.6,409.3 L364.4,411.5 L365.3,418.1 L366.1,420.0 L367.0,420.0 L367.8,420.0 L368.6,420.0 L369.5,420.0 L370.3,420.0 L371.2,420.0 L372.0,420.0 L372.8,420.0 L373.7,420.0 L374.5,419.7 L375.4,396.4 L376.2,399.3 L377.1,395.8 L377.9,395.8 L378.7,403.4 L379.6,409.6 L380.4,411.8 L381.3,413.1 L382.1,413.7 L382.9,400.2 L383.8,416.9 L384.6,418.1 L385.5,419.7 L386.3,420.0 L387.2,420.0 L388.0,420.0 L388.8,420.0 L389.7,420.0 L390.5,420.0 L391.4,420.0 L392.2,420.0 L393.0,420.0 L393.9,420.0 L394.7,419.7 L395.6,404.6 L396.4,413.4 L397.3,403.7 L398.1,402.4 L398.9,400.2 L399.8,399.3 L400.6,399.6 L401.5,411.8 L402.3,414.7 L403.1,415.3 L404.0,415.6 L404.8,416.5 L405.7,417.2 L406.5,419.4 L407.3,419.4 L408.2,419.4 L409.0,419.4 L409.9,419.4 L410.7,419.4 L411.6,419.4 L412.4,419.4 L413.2,419.4 L414.1,419.4 L414.9,418.1 L415.8,414.3 L416.6,389.8 L417.4,395.2 L418.3,400.2 L419.1,403.0 L420.0,404.6 L420.8,398.6 L421.7,401.5 L422.5,406.8 L423.3,413.4 L424.2,404.6 L425.0,415.0 L425.9,416.5 L426.7,420.0 L427.5,420.0 L428.4,420.0 L429.2,420.0 L430.1,420.0 L430.9,420.0 L431.8,420.0 L432.6,420.0 L433.4,420.0 L434.3,420.0 L435.1,419.1 L436.0,414.0 L436.8,403.0 L437.6,396.8 L438.5,383.6 L439.3,404.0 L440.2,409.3 L441.0,400.2 L441.9,407.4 L442.7,403.4 L443.5,393.3 L444.4,411.2 L445.2,405.2 L446.1,416.5 L446.9,420.0 L447.7,420.0 L448.6,420.0 L449.4,420.0 L450.3,420.0 L451.1,420.0 L451.9,420.0 L452.8,420.0 L453.6,420.0 L454.5,420.0 L455.3,418.4 L456.2,414.7 L457.0,406.8 L457.8,409.0 L458.7,408.7 L459.5,410.9 L460.4,412.1 L461.2,411.8 L462.0,412.8 L462.9,412.8 L463.7,414.7 L464.6,415.9 L465.4,415.0 L466.3,419.1 L467.1,420.0 L467.9,420.0 L468.8,420.0 L469.6,420.0 L470.5,420.0 L471.3,420.0 L472.1,420.0 L473.0,420.0 L473.8,420.0 L474.7,420.0 L475.5,420.0 L476.4,417.2 L477.2,414.3 L478.0,409.6 L478.9,407.4 L479.7,399.6 L480.6,391.7 L481.4,397.4 L482.2,409.3 L483.1,409.6 L483.9,411.2 L484.8,402.4 L485.6,406.2 L486.5,413.7 L487.3,420.0 L488.1,420.0 L489.0,420.0 L489.8,420.0 L490.7,420.0 L491.5,420.0 L492.3,420.0 L493.2,420.0 L494.0,420.0 L494.9,420.0 L495.7,418.7 L496.5,413.4 L497.4,413.1 L498.2,402.4 L499.1,399.3 L499.9,411.2 L500.8,411.5 L501.6,407.1 L502.4,411.5 L503.3,410.9 L504.1,400.2 L505.0,414.7 L505.8,414.3 L506.6,415.3 L507.5,420.0 L508.3,420.0 L509.2,420.0 L510.0,420.0 L510.9,420.0 L511.7,420.0 L512.5,420.0 L513.4,420.0 L514.2,420.0 L515.1,420.0 L515.9,415.6 L516.7,401.2 L517.6,399.3 L518.4,406.5 L519.3,399.6 L520.1,406.5 L521.0,410.3 L521.8,411.2 L522.6,404.9 L523.5,388.9 L524.3,401.8 L525.2,394.9 L526.0,400.8 L526.8,417.5 L527.7,420.0 L528.5,420.0 L529.4,420.0 L530.2,420.0 L531.1,420.0 L531.9,420.0 L532.7,420.0 L533.6,420.0 L534.4,420.0 L535.3,420.0 L536.1,417.2 L536.9,390.8 L537.8,375.7 L538.6,374.5 L539.5,392.7 L540.3,398.3 L541.2,376.3 L542.0,374.1 L542.8,374.5 L543.7,375.1 L544.5,375.4 L545.4,375.1 L546.2,386.7 L547.0,413.1 L547.9,420.0 L548.7,420.0 L549.6,420.0 L550.4,420.0 L551.2,420.0 L552.1,420.0 L552.9,420.0 L553.8,420.0 L554.6,420.0 L555.5,420.0 L556.3,415.9 L557.1,389.2 L558.0,374.5 L558.8,374.5 L559.7,374.1 L560.5,373.8 L561.3,373.8 L562.2,374.8 L563.0,373.8 L563.9,374.1 L564.7,375.1 L565.6,375.1 L566.4,386.7 L567.2,412.1 L568.1,420.0 L568.9,420.0 L569.8,420.0 L570.6,420.0 L571.4,420.0 L572.3,420.0 L573.1,420.0 L574.0,420.0 L574.8,420.0 L575.7,420.0 L576.5,415.3 L577.3,390.2 L578.2,401.8 L579.0,394.2 L579.9,379.2 L580.7,375.1 L581.5,374.8 L582.4,398.6 L583.2,398.6 L584.1,401.5 L584.9,403.4 L585.8,398.3 L586.6,408.7 L587.4,414.0 L588.3,420.0 L589.1,420.0 L590.0,420.0 L590.8,420.0 L591.6,420.0 L592.5,420.0 L593.3,420.0 L594.2,420.0 L595.0,420.0 L595.8,420.0 L596.7,417.5 L597.5,389.2 L598.4,398.6 L599.2,398.3 L600.1,398.0 L600.9,397.7 L601.7,378.9 L602.6,401.2 L603.4,397.7 L604.3,396.4 L605.1,381.4 L605.9,375.1 L606.8,390.8 L607.6,411.8 L608.5,420.0 L609.3,420.0 L610.2,420.0 L611.0,420.0 L611.8,420.0 L612.7,420.0 L613.5,420.0 L614.4,420.0 L615.2,420.0 L616.0,420.0 L616.9,417.2 L617.7,401.8 L618.6,394.6 L619.4,390.5 L620.3,386.7 L621.1,385.5 L621.9,387.0 L622.8,387.3 L623.6,393.3 L624.5,395.2 L625.3,403.0 L626.1,400.8 L627.0,405.6 L627.8,417.5 L628.7,420.0 L629.5,420.0 L630.4,420.0 L631.2,420.0 L632.0,420.0 L632.9,420.0 L633.7,420.0 L634.6,420.0 L635.4,420.0 L636.2,420.0 L637.1,413.7 L637.9,398.6 L638.8,377.3 L639.6,386.4 L640.4,382.9 L641.3,388.6 L642.1,395.8 L643.0,388.3 L643.8,377.6 L644.7,375.7 L645.5,398.6 L646.3,393.9 L647.2,410.3 L648.0,414.0 L648.9,420.0 L649.7,420.0 L650.5,420.0 L651.4,420.0 L652.2,420.0 L653.1,420.0 L653.9,420.0 L654.8,420.0 L655.6,420.0 L656.4,420.0 L657.3,412.5 L658.1,385.8 L659.0,374.5 L659.8,374.1 L660.6,374.1 L661.5,373.8 L662.3,373.8 L663.2,391.1 L664.0,394.6 L664.9,398.3 L665.7,402.7 L666.5,393.3 L667.4,386.7 L668.2,415.3 L669.1,420.0 L669.9,420.0 L670.7,420.0 L671.6,420.0 L672.4,420.0 L673.3,420.0 L674.1,420.0 L675.0,420.0 L675.8,420.0 L676.6,420.0 L677.5,418.7 L678.3,415.0 L679.2,400.2 L680.0,395.8" stroke="#d62728" stroke-width="2" fill="none" opacity="0.8"/>
<!-- Forecast -->
<path d="M80.0,172.8 L80.8,171.9 L81.7,176.9 L82.5,183.5 L83.4,183.5 L84.2,187.6 L85.0,206.1 L85.9,222.8 L86.7,242.6 L87.6,247.3 L88.4,248.8 L89.3,249.5 L90.1,245.7 L90.9,230.9 L91.8,203.0 L92.6,171.6 L93.5,152.7 L94.3,148.6 L95.1,150.5 L96.0,155.2 L96.8,160.3 L97.7,164.4 L98.5,167.8 L99.4,169.4 L100.2,170.0 L101.0,170.9 L101.9,174.7 L102.7,176.6 L103.6,174.1 L104.4,177.5 L105.2,198.3 L106.1,223.1 L106.9,236.3 L107.8,245.7 L108.6,249.5 L109.5,251.7 L110.3,248.2 L111.1,233.1 L112.0,204.2 L112.8,173.8 L113.7,154.9 L114.5,151.2 L115.3,152.7 L116.2,157.4 L117.0,161.8 L117.9,165.9 L118.7,169.1 L119.6,170.3 L120.4,171.3 L121.2,171.6 L122.1,176.3 L122.9,179.7 L123.8,177.9 L124.6,181.6 L125.4,201.4 L126.3,230.9 L127.1,240.4 L128.0,246.0 L128.8,248.8 L129.6,250.1 L130.5,246.0 L131.3,230.9 L132.2,204.6 L133.0,175.0 L133.9,156.8 L134.7,154.6 L135.5,156.5 L136.4,162.2 L137.2,165.6 L138.1,169.4 L138.9,171.9 L139.7,173.1 L140.6,172.8 L141.4,170.9 L142.3,176.0 L143.1,183.8 L144.0,186.3 L144.8,189.5 L145.6,207.7 L146.5,233.8 L147.3,248.2 L148.2,257.3 L149.0,263.0 L149.8,265.8 L150.7,265.2 L151.5,262.0 L152.4,252.6 L153.2,237.2 L154.1,219.0 L154.9,205.8 L155.7,199.5 L156.6,200.2 L157.4,199.2 L158.3,203.0 L159.1,208.0 L159.9,209.6 L160.8,207.7 L161.6,204.2 L162.5,204.6 L163.3,207.4 L164.2,205.5 L165.0,203.9 L165.8,215.9 L166.7,234.1 L167.5,248.8 L168.4,257.0 L169.2,263.0 L170.0,264.9 L170.9,263.6 L171.7,258.9 L172.6,249.1 L173.4,236.6 L174.2,217.1 L175.1,204.6 L175.9,201.7 L176.8,196.1 L177.6,195.8 L178.5,199.5 L179.3,202.0 L180.1,202.0 L181.0,200.5 L181.8,192.6 L182.7,191.7 L183.5,192.9 L184.3,191.7 L185.2,193.6 L186.0,209.3 L186.9,225.0 L187.7,243.2 L188.6,252.6 L189.4,257.3 L190.2,259.8 L191.1,257.0 L191.9,244.1 L192.8,214.6 L193.6,181.3 L194.4,160.0 L195.3,154.6 L196.1,153.7 L197.0,157.4 L197.8,160.9 L198.7,164.4 L199.5,167.2 L200.3,168.1 L201.2,168.7 L202.0,168.7 L202.9,173.8 L203.7,176.3 L204.5,175.3 L205.4,180.7 L206.2,201.4 L207.1,225.0 L207.9,239.1 L208.8,248.8 L209.6,253.5 L210.4,256.1 L211.3,252.9 L212.1,239.1 L213.0,210.8 L213.8,179.1 L214.6,158.7 L215.5,154.0 L216.3,153.0 L217.2,156.8 L218.0,160.6 L218.8,164.0 L219.7,167.2 L220.5,168.4 L221.4,169.1 L222.2,169.4 L223.1,174.1 L223.9,178.5 L224.7,178.2 L225.6,182.3 L226.4,202.0 L227.3,224.7 L228.1,241.9 L228.9,251.3 L229.8,256.4 L230.6,258.9 L231.5,256.1 L232.3,243.5 L233.2,214.0 L234.0,181.0 L234.8,161.2 L235.7,156.5 L236.5,155.2 L237.4,158.1 L238.2,160.9 L239.0,164.0 L239.9,166.5 L240.7,167.5 L241.6,167.5 L242.4,167.2 L243.3,172.2 L244.1,176.0 L244.9,175.0 L245.8,178.8 L246.6,198.9 L247.5,371.9 L248.3,234.7 L249.1,243.5 L250.0,247.0 L250.8,247.6 L251.7,242.9 L252.5,229.4 L253.4,198.6 L254.2,163.4 L255.0,143.9 L255.9,138.0 L256.7,138.9 L257.6,142.4 L258.4,147.4 L259.2,150.8 L260.1,154.0 L260.9,156.2 L261.8,155.2 L262.6,153.7 L263.5,155.9 L264.3,156.8 L265.1,154.0 L266.0,163.4 L266.8,182.9 L267.7,208.3 L268.5,220.3 L269.3,227.8 L270.2,232.2 L271.0,233.4 L271.9,230.6 L272.7,218.1 L273.5,189.2 L274.4,157.1 L275.2,141.1 L276.1,138.0 L276.9,140.5 L277.8,143.9 L278.6,148.6 L279.4,152.7 L280.3,156.8 L281.1,158.1 L282.0,157.4 L282.8,157.4 L283.6,161.8 L284.5,162.5 L285.3,158.4 L286.2,167.5 L287.0,186.6 L287.9,216.2 L288.7,223.1 L289.5,226.5 L290.4,231.2 L291.2,233.8 L292.1,231.6 L292.9,223.7 L293.7,213.0 L294.6,199.5 L295.4,181.6 L296.3,172.5 L297.1,172.5 L298.0,179.4 L298.8,183.5 L299.6,187.9 L300.5,192.6 L301.3,196.1 L302.2,196.7 L303.0,195.8 L303.8,193.9 L304.7,192.9 L305.5,187.0 L306.4,188.2 L307.2,202.0 L308.1,231.6 L308.9,236.0 L309.7,240.7 L310.6,245.4 L311.4,247.0 L312.3,245.4 L313.1,240.4 L313.9,233.4 L314.8,223.4 L315.6,206.7 L316.5,196.4 L317.3,197.3 L318.1,194.5 L319.0,195.8 L319.8,201.7 L320.7,204.6 L321.5,203.3 L322.4,199.8 L323.2,199.2 L324.0,193.2 L324.9,198.0 L325.7,199.8 L326.6,198.3 L327.4,209.9 L328.2,230.3 L329.1,245.1 L329.9,253.2 L330.8,258.6 L331.6,260.5 L332.5,257.0 L333.3,242.9 L334.1,216.8 L335.0,187.6 L335.8,170.0 L336.7,166.5 L337.5,163.7 L338.3,163.4 L339.2,164.0 L340.0,164.7 L340.9,165.3 L341.7,161.5 L342.6,158.1 L343.4,160.0 L344.2,168.7 L345.1,176.3 L345.9,180.7 L346.8,183.2 L347.6,202.4 L348.4,225.9 L349.3,246.3 L350.1,255.7 L351.0,262.3 L351.8,264.5 L352.7,262.0 L353.5,248.5 L354.3,223.4 L355.2,195.4 L356.0,177.2 L356.9,170.6 L357.7,163.4 L358.5,159.6 L359.4,158.4 L360.2,156.5 L361.1,155.2 L361.9,152.1 L362.7,147.1 L363.6,148.6 L364.4,161.5 L365.3,170.9 L366.1,176.6 L367.0,178.5 L367.8,198.6 L368.6,224.7 L369.5,243.5 L370.3,252.9 L371.2,258.9 L372.0,262.0 L372.8,262.0 L373.7,251.3 L374.5,226.5 L375.4,198.0 L376.2,176.9 L377.1,168.1 L377.9,162.5 L378.7,160.6 L379.6,161.2 L380.4,163.4 L381.3,166.2 L382.1,167.2 L382.9,167.5 L383.8,167.5 L384.6,172.2 L385.5,176.6 L386.3,176.6 L387.2,180.4 L388.0,200.5 L388.8,214.0 L389.7,238.2 L390.5,249.5 L391.4,252.9 L392.2,255.4 L393.0,252.6 L393.9,239.4 L394.7,207.4 L395.6,172.2 L396.4,151.2 L397.3,144.6 L398.1,144.9 L398.9,146.1 L399.8,150.2 L400.6,153.7 L401.5,157.1 L402.3,158.4 L403.1,156.8 L404.0,156.8 L404.8,159.0 L405.7,161.8 L406.5,158.7 L407.3,167.8 L408.2,188.5 L409.0,206.4 L409.9,225.0 L410.7,233.4 L411.6,237.5 L412.4,239.1 L413.2,236.3 L414.1,223.4 L414.9,192.0 L415.8,159.6 L416.6,142.7 L417.4,138.0 L418.3,139.5 L419.1,143.3 L420.0,148.6 L420.8,152.4 L421.7,155.9 L422.5,158.1 L423.3,156.5 L424.2,156.5 L425.0,160.3 L425.9,160.3 L426.7,156.2 L427.5,164.0 L428.4,183.5 L429.2,208.0 L430.1,219.6 L430.9,224.7 L431.8,228.7 L432.6,229.7 L433.4,228.7 L434.3,219.9 L435.1,207.4 L436.0,194.2 L436.8,178.5 L437.6,170.0 L438.5,165.0 L439.3,170.0 L440.2,175.3 L441.0,182.9 L441.9,184.8 L442.7,184.1 L443.5,185.4 L444.4,181.0 L445.2,181.6 L446.1,179.7 L446.9,172.8 L447.7,176.6 L448.6,192.6 L449.4,370.7 L450.3,222.5 L451.1,228.1 L451.9,231.9 L452.8,234.7 L453.6,233.4 L454.5,230.3 L455.3,220.3 L456.2,207.1 L457.0,192.6 L457.8,177.9 L458.7,169.7 L459.5,167.8 L460.4,170.3 L461.2,173.1 L462.0,177.2 L462.9,179.1 L463.7,176.3 L464.6,169.1 L465.4,171.3 L466.3,165.9 L467.1,162.5 L467.9,169.4 L468.8,190.4 L469.6,214.9 L470.5,228.7 L471.3,235.6 L472.1,239.4 L473.0,241.0 L473.8,237.2 L474.7,224.0 L475.5,194.2 L476.4,163.1 L477.2,170.6 L478.0,170.3 L478.9,164.0 L479.7,169.4 L480.6,174.1 L481.4,182.3 L482.2,184.8 L483.1,182.6 L483.9,185.1 L484.8,179.7 L485.6,181.0 L486.5,179.7 L487.3,172.8 L488.1,176.3 L489.0,192.0 L489.8,196.4 L490.7,230.3 L491.5,238.2 L492.3,242.6 L493.2,243.5 L494.0,240.4 L494.9,226.5 L495.7,198.9 L496.5,174.1 L497.4,157.1 L498.2,153.4 L499.1,153.4 L499.9,157.8 L500.8,161.2 L501.6,164.7 L502.4,167.8 L503.3,169.1 L504.1,169.4 L505.0,169.7 L505.8,174.4 L506.6,178.5 L507.5,176.3 L508.3,179.7 L509.2,199.8 L510.0,223.1 L510.9,237.8 L511.7,245.7 L512.5,248.8 L513.4,250.7 L514.2,247.9 L515.1,232.2 L515.9,205.2 L516.7,175.7 L517.6,157.1 L518.4,153.4 L519.3,153.4 L520.1,158.1 L521.0,161.5 L521.8,165.0 L522.6,167.8 L523.5,169.1 L524.3,169.4 L525.2,170.0 L526.0,174.7 L526.8,178.8 L527.7,176.6 L528.5,180.1 L529.4,200.2 L530.2,225.0 L531.1,238.8 L531.9,245.1 L532.7,247.0 L533.6,248.5 L534.4,245.1 L535.3,229.7 L536.1,203.3 L536.9,175.3 L537.8,158.4 L538.6,155.2 L539.5,155.2 L540.3,159.6 L541.2,162.8 L542.0,166.2 L542.8,169.1 L543.7,170.3 L544.5,170.9 L545.4,170.3 L546.2,175.0 L547.0,180.4 L547.9,180.1 L548.7,190.1 L549.6,204.2 L550.4,225.0 L551.2,221.5 L552.1,239.7 L552.9,247.0 L553.8,248.5 L554.6,245.1 L555.5,229.7 L556.3,203.3 L557.1,175.0 L558.0,158.4 L558.8,155.2 L559.7,155.2 L560.5,159.6 L561.3,162.8 L562.2,166.2 L563.0,169.1 L563.9,170.3 L564.7,170.9 L565.6,170.3 L566.4,175.0 L567.2,180.4 L568.1,180.1 L568.9,183.2 L569.8,202.0 L570.6,225.0 L571.4,221.5 L572.3,240.0 L573.1,247.0 L574.0,248.5 L574.8,245.1 L575.7,229.7 L576.5,203.3 L577.3,175.0 L578.2,158.4 L579.0,155.2 L579.9,155.2 L580.7,159.6 L581.5,162.8 L582.4,166.2 L583.2,169.1 L584.1,170.3 L584.9,170.9 L585.8,170.3 L586.6,175.0 L587.4,180.4 L588.3,180.1 L589.1,183.2 L590.0,202.0 L590.8,216.2 L591.6,219.0 L592.5,235.3 L593.3,244.8 L594.2,247.6 L595.0,246.6 L595.8,241.9 L596.7,235.0 L597.5,223.7 L598.4,208.6 L599.2,193.9 L600.1,186.0 L600.9,181.9 L601.7,181.6 L602.6,186.0 L603.4,187.0 L604.3,184.1 L605.1,180.4 L605.9,179.1 L606.8,171.9 L607.6,176.6 L608.5,180.7 L609.3,177.5 L610.2,187.6 L611.0,203.3 L611.8,222.5 L612.7,232.5 L613.5,238.8 L614.4,241.3 L615.2,238.8 L616.0,226.2 L616.9,202.0 L617.7,175.0 L618.6,156.8 L619.4,148.3 L620.3,143.0 L621.1,142.7 L621.9,142.4 L622.8,143.3 L623.6,143.9 L624.5,145.2 L625.3,144.6 L626.1,142.7 L627.0,148.3 L627.8,154.6 L628.7,156.2 L629.5,157.8 L630.4,175.3 L631.2,198.3 L632.0,222.1 L632.9,228.1 L633.7,230.0 L634.6,232.2 L635.4,229.0 L636.2,214.3 L637.1,188.2 L637.9,158.1 L638.8,138.9 L639.6,132.9 L640.4,132.3 L641.3,135.8 L642.1,137.7 L643.0,140.8 L643.8,142.7 L644.7,144.6 L645.5,145.2 L646.3,144.6 L647.2,148.6 L648.0,152.7 L648.9,150.8 L649.7,153.4 L650.5,172.5 L651.4,366.6 L652.2,266.1 L653.1,374.8 L653.9,420.0 L654.8,420.0 L655.6,420.0 L656.4,420.0 L657.3,420.0 L658.1,420.0 L659.0,420.0 L659.8,420.0 L660.6,420.0 L661.5,420.0 L662.3,420.0 L663.2,420.0 L664.0,420.0 L664.9,420.0 L665.7,420.0 L666.5,420.0 L667.4,420.0 L668.2,420.0 L669.1,420.0 L669.9,420.0 L670.7,420.0 L671.6,262.0 L672.4,224.7 L673.3,237.2 L674.1,245.1 L675.0,247.3 L675.8,246.0 L676.6,234.7 L677.5,211.5 L678.3,184.8 L679.2,165.6 L680.0,161.8" stroke="#9467bd" stroke-width="2" fill="none" opacity="0.8"/>
<!-- Total Generation -->
<path d="M80.0,250.4 L80.8,239.4 L81.7,155.9 L82.5,174.4 L83.4,182.6 L84.2,184.1 L85.0,213.0 L85.9,213.3 L86.7,207.7 L87.6,219.6 L88.4,212.4 L89.3,196.1 L90.1,211.8 L90.9,216.8 L91.8,129.5 L92.6,88.7 L93.5,99.7 L94.3,121.3 L95.1,147.1 L96.0,154.3 L96.8,148.0 L97.7,158.7 L98.5,200.5 L99.4,201.4 L100.2,209.6 L101.0,154.3 L101.9,152.4 L102.7,96.5 L103.6,82.4 L104.4,68.9 L105.2,101.9 L106.1,124.2 L106.9,135.5 L107.8,156.5 L108.6,154.9 L109.5,153.7 L110.3,148.3 L111.1,123.8 L112.0,92.7 L112.8,76.1 L113.7,98.1 L114.5,123.5 L115.3,127.9 L116.2,151.8 L117.0,160.3 L117.9,172.5 L118.7,177.2 L119.6,175.0 L120.4,177.5 L121.2,171.6 L122.1,108.1 L122.9,88.7 L123.8,88.0 L124.6,98.1 L125.4,161.8 L126.3,169.1 L127.1,221.2 L128.0,175.0 L128.8,170.9 L129.6,155.9 L130.5,147.1 L131.3,138.0 L132.2,136.4 L133.0,120.4 L133.9,95.9 L134.7,94.3 L135.5,89.9 L136.4,101.5 L137.2,107.2 L138.1,133.9 L138.9,170.9 L139.7,144.6 L140.6,189.5 L141.4,193.2 L142.3,129.8 L143.1,108.4 L144.0,106.2 L144.8,134.5 L145.6,137.7 L146.5,158.7 L147.3,200.2 L148.2,205.2 L149.0,219.9 L149.8,214.6 L150.7,213.3 L151.5,214.0 L152.4,197.3 L153.2,205.2 L154.1,254.2 L154.9,242.9 L155.7,245.4 L156.6,234.4 L157.4,229.4 L158.3,223.7 L159.1,201.7 L159.9,187.3 L160.8,185.4 L161.6,195.4 L162.5,217.1 L163.3,181.6 L164.2,138.0 L165.0,107.8 L165.8,145.2 L166.7,172.8 L167.5,195.4 L168.4,190.1 L169.2,194.5 L170.0,177.5 L170.9,183.2 L171.7,198.0 L172.6,203.0 L173.4,193.6 L174.2,177.5 L175.1,214.6 L175.9,219.6 L176.8,200.8 L177.6,207.4 L178.5,213.7 L179.3,193.2 L180.1,207.1 L181.0,192.6 L181.8,187.6 L182.7,186.3 L183.5,200.8 L184.3,209.6 L185.2,202.0 L186.0,212.4 L186.9,261.1 L187.7,267.4 L188.6,268.9 L189.4,268.3 L190.2,261.4 L191.1,230.9 L191.9,233.8 L192.8,183.2 L193.6,185.4 L194.4,176.3 L195.3,172.8 L196.1,171.6 L197.0,172.2 L197.8,176.9 L198.7,198.9 L199.5,171.6 L200.3,190.1 L201.2,194.5 L202.0,201.7 L202.9,147.4 L203.7,168.4 L204.5,168.1 L205.4,162.2 L206.2,153.0 L207.1,169.1 L207.9,179.4 L208.8,169.1 L209.6,159.3 L210.4,153.4 L211.3,158.7 L212.1,144.6 L213.0,147.4 L213.8,132.6 L214.6,94.0 L215.5,132.6 L216.3,153.4 L217.2,122.6 L218.0,112.8 L218.8,138.6 L219.7,122.6 L220.5,144.3 L221.4,142.7 L222.2,162.8 L223.1,145.2 L223.9,166.2 L224.7,180.7 L225.6,190.1 L226.4,193.9 L227.3,189.5 L228.1,188.8 L228.9,187.9 L229.8,192.0 L230.6,207.4 L231.5,184.1 L232.3,194.2 L233.2,173.8 L234.0,145.5 L234.8,179.7 L235.7,230.9 L236.5,221.8 L237.4,206.1 L238.2,205.8 L239.0,206.4 L239.9,153.7 L240.7,176.3 L241.6,170.6 L242.4,214.3 L243.3,189.2 L244.1,203.0 L244.9,197.0 L245.8,125.4 L246.6,154.0 L247.5,165.9 L248.3,196.4 L249.1,184.8 L250.0,179.1 L250.8,188.8 L251.7,201.4 L252.5,170.0 L253.4,158.4 L254.2,128.9 L255.0,148.6 L255.9,152.4 L256.7,141.1 L257.6,178.8 L258.4,172.2 L259.2,184.8 L260.1,207.1 L260.9,228.1 L261.8,233.1 L262.6,223.1 L263.5,205.8 L264.3,188.8 L265.1,190.4 L266.0,201.7 L266.8,196.1 L267.7,173.5 L268.5,176.9 L269.3,194.8 L270.2,210.5 L271.0,218.7 L271.9,201.4 L272.7,189.5 L273.5,181.9 L274.4,157.4 L275.2,143.3 L276.1,155.6 L276.9,177.2 L277.8,201.1 L278.6,187.9 L279.4,198.6 L280.3,162.8 L281.1,186.6 L282.0,215.5 L282.8,185.7 L283.6,162.2 L284.5,157.8 L285.3,167.5 L286.2,178.8 L287.0,183.8 L287.9,187.0 L288.7,188.8 L289.5,197.3 L290.4,187.6 L291.2,166.5 L292.1,176.6 L292.9,179.4 L293.7,163.7 L294.6,141.7 L295.4,168.4 L296.3,152.1 L297.1,179.1 L298.0,180.1 L298.8,182.9 L299.6,205.2 L300.5,185.1 L301.3,189.5 L302.2,216.2 L303.0,224.7 L303.8,221.2 L304.7,220.3 L305.5,194.2 L306.4,202.7 L307.2,210.5 L308.1,219.6 L308.9,204.6 L309.7,221.8 L310.6,230.9 L311.4,227.8 L312.3,214.0 L313.1,219.9 L313.9,198.6 L314.8,219.3 L315.6,203.0 L316.5,202.0 L317.3,224.7 L318.1,228.4 L319.0,223.1 L319.8,203.0 L320.7,216.2 L321.5,206.1 L322.4,201.1 L323.2,157.1 L324.0,143.0 L324.9,170.0 L325.7,156.8 L326.6,144.3 L327.4,140.8 L328.2,129.8 L329.1,165.0 L329.9,210.8 L330.8,230.9 L331.6,208.6 L332.5,203.0 L333.3,171.3 L334.1,163.7 L335.0,169.7 L335.8,192.0 L336.7,176.9 L337.5,185.4 L338.3,215.5 L339.2,212.7 L340.0,172.2 L340.9,141.4 L341.7,154.3 L342.6,174.4 L343.4,197.3 L344.2,173.8 L345.1,133.3 L345.9,125.7 L346.8,119.1 L347.6,160.3 L348.4,195.8 L349.3,217.4 L350.1,239.4 L351.0,227.5 L351.8,242.2 L352.7,243.2 L353.5,243.8 L354.3,243.8 L355.2,235.6 L356.0,213.7 L356.9,219.0 L357.7,218.7 L358.5,221.5 L359.4,217.1 L360.2,222.1 L361.1,219.0 L361.9,211.5 L362.7,202.0 L363.6,197.3 L364.4,195.4 L365.3,215.9 L366.1,198.3 L367.0,186.0 L367.8,222.1 L368.6,245.1 L369.5,244.4 L370.3,250.4 L371.2,255.1 L372.0,241.9 L372.8,234.1 L373.7,230.6 L374.5,239.4 L375.4,208.6 L376.2,198.9 L377.1,183.8 L377.9,170.9 L378.7,170.0 L379.6,175.0 L380.4,237.5 L381.3,201.1 L382.1,185.1 L382.9,174.1 L383.8,192.3 L384.6,189.5 L385.5,166.5 L386.3,137.0 L387.2,138.9 L388.0,162.5 L388.8,167.5 L389.7,166.5 L390.5,156.8 L391.4,163.1 L392.2,155.2 L393.0,165.3 L393.9,164.0 L394.7,172.5 L395.6,160.0 L396.4,188.5 L397.3,191.0 L398.1,190.7 L398.9,175.3 L399.8,151.5 L400.6,148.6 L401.5,163.7 L402.3,143.0 L403.1,227.2 L404.0,221.2 L404.8,222.5 L405.7,179.4 L406.5,210.2 L407.3,213.3 L408.2,194.5 L409.0,190.4 L409.9,218.7 L410.7,209.3 L411.6,183.2 L412.4,177.9 L413.2,149.9 L414.1,154.9 L414.9,161.5 L415.8,137.7 L416.6,67.6 L417.4,84.3 L418.3,109.4 L419.1,111.6 L420.0,167.5 L420.8,175.7 L421.7,163.1 L422.5,144.3 L423.3,165.3 L424.2,149.9 L425.0,163.4 L425.9,176.6 L426.7,186.3 L427.5,182.9 L428.4,178.2 L429.2,203.6 L430.1,232.8 L430.9,236.6 L431.8,176.6 L432.6,165.3 L433.4,167.2 L434.3,170.3 L435.1,224.3 L436.0,229.0 L436.8,231.6 L437.6,218.1 L438.5,199.2 L439.3,233.1 L440.2,235.0 L441.0,216.5 L441.9,225.9 L442.7,226.2 L443.5,223.1 L444.4,239.4 L445.2,206.1 L446.1,215.5 L446.9,142.1 L447.7,139.5 L448.6,215.9 L449.4,217.7 L450.3,210.8 L451.1,229.4 L451.9,238.8 L452.8,234.7 L453.6,246.0 L454.5,253.2 L455.3,255.1 L456.2,239.1 L457.0,222.1 L457.8,221.2 L458.7,214.3 L459.5,203.0 L460.4,235.3 L461.2,239.1 L462.0,235.3 L462.9,237.8 L463.7,238.5 L464.6,210.5 L465.4,214.6 L466.3,216.2 L467.1,217.7 L467.9,214.9 L468.8,211.5 L469.6,215.5 L470.5,223.7 L471.3,237.5 L472.1,246.6 L473.0,255.7 L473.8,252.3 L474.7,209.6 L475.5,211.1 L476.4,211.1 L477.2,208.3 L478.0,204.6 L478.9,201.7 L479.7,192.0 L480.6,184.1 L481.4,195.1 L482.2,208.9 L483.1,208.6 L483.9,209.6 L484.8,198.6 L485.6,201.7 L486.5,176.0 L487.3,206.4 L488.1,205.2 L489.0,209.9 L489.8,215.5 L490.7,216.8 L491.5,213.3 L492.3,213.3 L493.2,206.7 L494.0,202.4 L494.9,191.7 L495.7,163.1 L496.5,171.3 L497.4,176.9 L498.2,166.2 L499.1,165.3 L499.9,181.9 L500.8,186.0 L501.6,162.5 L502.4,183.2 L503.3,232.5 L504.1,222.8 L505.0,242.2 L505.8,238.8 L506.6,194.8 L507.5,199.5 L508.3,215.9 L509.2,212.7 L510.0,229.7 L510.9,236.6 L511.7,230.6 L512.5,212.7 L513.4,201.4 L514.2,185.1 L515.1,214.0 L515.9,198.9 L516.7,173.8 L517.6,204.6 L518.4,200.2 L519.3,211.5 L520.1,209.3 L521.0,220.3 L521.8,211.8 L522.6,207.4 L523.5,202.0 L524.3,200.2 L525.2,195.1 L526.0,202.0 L526.8,162.2 L527.7,166.2 L528.5,194.2 L529.4,195.1 L530.2,181.6 L531.1,205.5 L531.9,194.2 L532.7,192.6 L533.6,193.6 L534.4,185.4 L535.3,171.6 L536.1,143.0 L536.9,124.2 L537.8,155.9 L538.6,176.3 L539.5,198.0 L540.3,195.4 L541.2,182.6 L542.0,181.0 L542.8,195.8 L543.7,193.2 L544.5,191.7 L545.4,197.6 L546.2,143.0 L547.0,135.8 L547.9,144.3 L548.7,135.1 L549.6,142.7 L550.4,169.4 L551.2,182.9 L552.1,182.3 L552.9,172.8 L553.8,192.3 L554.6,149.3 L555.5,144.6 L556.3,123.5 L557.1,132.9 L558.0,146.1 L558.8,181.0 L559.7,189.8 L560.5,193.2 L561.3,197.0 L562.2,198.0 L563.0,200.8 L563.9,166.5 L564.7,202.7 L565.6,200.2 L566.4,159.0 L567.2,127.6 L568.1,142.7 L568.9,137.0 L569.8,147.1 L570.6,155.2 L571.4,167.8 L572.3,162.8 L573.1,170.0 L574.0,170.0 L574.8,136.4 L575.7,167.5 L576.5,128.5 L577.3,176.6 L578.2,228.7 L579.0,228.7 L579.9,223.4 L580.7,226.2 L581.5,229.7 L582.4,249.1 L583.2,236.0 L584.1,247.0 L584.9,243.2 L585.8,236.9 L586.6,238.2 L587.4,185.4 L588.3,184.8 L589.1,173.1 L590.0,191.7 L590.8,167.8 L591.6,196.1 L592.5,199.8 L593.3,235.6 L594.2,241.9 L595.0,237.2 L595.8,228.1 L596.7,221.5 L597.5,233.1 L598.4,261.7 L599.2,254.8 L600.1,251.7 L600.9,240.4 L601.7,200.2 L602.6,235.6 L603.4,221.5 L604.3,210.2 L605.1,197.0 L605.9,180.7 L606.8,192.0 L607.6,176.0 L608.5,151.5 L609.3,153.7 L610.2,189.5 L611.0,199.2 L611.8,197.0 L612.7,173.5 L613.5,146.4 L614.4,208.6 L615.2,219.0 L616.0,247.9 L616.9,233.1 L617.7,212.7 L618.6,230.3 L619.4,224.3 L620.3,220.9 L621.1,213.7 L621.9,180.4 L622.8,176.0 L623.6,167.5 L624.5,184.8 L625.3,135.5 L626.1,180.7 L627.0,105.0 L627.8,175.0 L628.7,201.4 L629.5,202.4 L630.4,201.1 L631.2,224.7 L632.0,233.8 L632.9,244.8 L633.7,196.4 L634.6,228.4 L635.4,197.6 L636.2,203.3 L637.1,174.4 L637.9,182.3 L638.8,159.0 L639.6,171.9 L640.4,151.5 L641.3,154.9 L642.1,138.0 L643.0,127.0 L643.8,124.8 L644.7,124.8 L645.5,136.7 L646.3,155.2 L647.2,149.0 L648.0,147.7 L648.9,186.0 L649.7,174.1 L650.5,188.5 L651.4,199.5 L652.2,188.5 L653.1,184.5 L653.9,211.8 L654.8,209.3 L655.6,194.5 L656.4,191.7 L657.3,147.7 L658.1,151.8 L659.0,139.2 L659.8,138.6 L660.6,148.3 L661.5,171.9 L662.3,187.0 L663.2,205.5 L664.0,200.8 L664.9,207.7 L665.7,213.7 L666.5,183.8 L667.4,162.8 L668.2,156.5 L669.1,166.9 L669.9,214.0 L670.7,212.1 L671.6,203.6 L672.4,185.1 L673.3,160.9 L674.1,161.8 L675.0,170.9 L675.8,186.3 L676.6,180.4 L677.5,182.3 L678.3,218.4 L679.2,219.9 L680.0,225.9" stroke="#8c564b" stroke-width="2" fill="none" opacity="0.8"/>
<!-- Forecast Difference -->
<path d="M80.0,420.0 L80.8,420.0 L81.7,420.0 L82.5,420.0 L83.4,420.0 L84.2,420.0 L85.0,420.0 L85.9,420.0 L86.7,420.0 L87.6,420.0 L88.4,420.0 L89.3,420.0 L90.1,420.0 L90.9,420.0 L91.8,420.0 L92.6,420.0 L93.5,420.0 L94.3,420.0 L95.1,420.0 L96.0,420.0 L96.8,420.0 L97.7,420.0 L98.5,420.0 L99.4,420.0 L100.2,420.0 L101.0,420.0 L101.9,420.0 L102.7,420.0 L103.6,420.0 L104.4,420.0 L105.2,420.0 L106.1,420.0 L106.9,420.0 L107.8,420.0 L108.6,420.0 L109.5,420.0 L110.3,420.0 L111.1,420.0 L112.0,420.0 L112.8,420.0 L113.7,420.0 L114.5,420.0 L115.3,420.0 L116.2,420.0 L117.0,420.0 L117.9,420.0 L118.7,420.0 L119.6,420.0 L120.4,420.0 L121.2,420.0 L122.1,420.0 L122.9,420.0 L123.8,420.0 L124.6,420.0 L125.4,420.0 L126.3,420.0 L127.1,420.0 L128.0,420.0 L128.8,420.0 L129.6,420.0 L130.5,420.0 L131.3,420.0 L132.2,420.0 L133.0,420.0 L133.9,420.0 L134.7,420.0 L135.5,420.0 L136.4,420.0 L137.2,420.0 L138.1,420.0 L138.9,420.0 L139.7,420.0 L140.6,420.0 L141.4,420.0 L142.3,420.0 L143.1,420.0 L144.0,420.0 L144.8,420.0 L145.6,420.0 L146.5,420.0 L147.3,420.0 L148.2,420.0 L149.0,420.0 L149.8,420.0 L150.7,420.0 L151.5,420.0 L152.4,420.0 L153.2,420.0 L154.1,420.0 L154.9,420.0 L155.7,420.0 L156.6,420.0 L157.4,420.0 L158.3,420.0 L159.1,420.0 L159.9,420.0 L160.8,420.0 L161.6,420.0 L162.5,420.0 L163.3,420.0 L164.2,420.0 L165.0,420.0 L165.8,420.0 L166.7,420.0 L167.5,420.0 L168.4,420.0 L169.2,420.0 L170.0,420.0 L170.9,420.0 L171.7,420.0 L172.6,420.0 L173.4,420.0 L174.2,420.0 L175.1,420.0 L175.9,420.0 L176.8,420.0 L177.6,420.0 L178.5,420.0 L179.3,420.0 L180.1,420.0 L181.0,420.0 L181.8,420.0 L182.7,420.0 L183.5,420.0 L184.3,420.0 L185.2,420.0 L186.0,420.0 L186.9,420.0 L187.7,420.0 L188.6,420.0 L189.4,420.0 L190.2,420.0 L191.1,420.0 L191.9,420.0 L192.8,420.0 L193.6,420.0 L194.4,420.0 L195.3,420.0 L196.1,420.0 L197.0,420.0 L197.8,420.0 L198.7,420.0 L199.5,420.0 L200.3,420.0 L201.2,420.0 L202.0,420.0 L202.9,420.0 L203.7,420.0 L204.5,420.0 L205.4,420.0 L206.2,420.0 L207.1,420.0 L207.9,420.0 L208.8,420.0 L209.6,420.0 L210.4,420.0 L211.3,420.0 L212.1,420.0 L213.0,420.0 L213.8,420.0 L214.6,420.0 L215.5,420.0 L216.3,420.0 L217.2,420.0 L218.0,420.0 L218.8,420.0 L219.7,420.0 L220.5,420.0 L221.4,420.0 L222.2,420.0 L223.1,420.0 L223.9,420.0 L224.7,420.0 L225.6,420.0 L226.4,420.0 L227.3,420.0 L228.1,420.0 L228.9,420.0 L229.8,420.0 L230.6,420.0 L231.5,420.0 L232.3,420.0 L233.2,420.0 L234.0,420.0 L234.8,420.0 L235.7,420.0 L236.5,420.0 L237.4,420.0 L238.2,420.0 L239.0,420.0 L239.9,420.0 L240.7,420.0 L241.6,420.0 L242.4,420.0 L243.3,420.0 L244.1,420.0 L244.9,420.0 L245.8,420.0 L246.6,420.0 L247.5,420.0 L248.3,420.0 L249.1,420.0 L250.0,420.0 L250.8,420.0 L251.7,420.0 L252.5,420.0 L253.4,420.0 L254.2,420.0 L255.0,420.0 L255.9,420.0 L256.7,420.0 L257.6,420.0 L258.4,420.0 L259.2,420.0 L260.1,420.0 L260.9,420.0 L261.8,420.0 L262.6,420.0 L263.5,420.0 L264.3,420.0 L265.1,420.0 L266.0,420.0 L266.8,420.0 L267.7,420.0 L268.5,420.0 L269.3,420.0 L270.2,420.0 L271.0,420.0 L271.9,420.0 L272.7,420.0 L273.5,420.0 L274.4,420.0 L275.2,420.0 L276.1,420.0 L276.9,420.0 L277.8,420.0 L278.6,420.0 L279.4,420.0 L280.3,420.0 L281.1,420.0 L282.0,420.0 L282.8,420.0 L283.6,420.0 L284.5,420.0 L285.3,420.0 L286.2,420.0 L287.0,420.0 L287.9,420.0 L288.7,420.0 L289.5,420.0 L290.4,420.0 L291.2,420.0 L292.1,420.0 L292.9,420.0 L293.7,420.0 L294.6,420.0 L295.4,420.0 L296.3,420.0 L297.1,420.0 L298.0,420.0 L298.8,420.0 L299.6,420.0 L300.5,420.0 L301.3,420.0 L302.2,420.0 L303.0,420.0 L303.8,420.0 L304.7,420.0 L305.5,420.0 L306.4,420.0 L307.2,420.0 L308.1,420.0 L308.9,420.0 L309.7,420.0 L310.6,420.0 L311.4,420.0 L312.3,420.0 L313.1,420.0 L313.9,420.0 L314.8,420.0 L315.6,420.0 L316.5,420.0 L317.3,420.0 L318.1,420.0 L319.0,420.0 L319.8,420.0 L320.7,420.0 L321.5,420.0 L322.4,420.0 L323.2,420.0 L324.0,420.0 L324.9,420.0 L325.7,420.0 L326.6,420.0 L327.4,420.0 L328.2,420.0 L329.1,420.0 L329.9,420.0 L330.8,420.0 L331.6,420.0 L332.5,420.0 L333.3,420.0 L334.1,420.0 L335.0,420.0 L335.8,420.0 L336.7,420.0 L337.5,420.0 L338.3,420.0 L339.2,420.0 L340.0,420.0 L340.9,420.0 L341.7,420.0 L342.6,420.0 L343.4,420.0 L344.2,420.0 L345.1,420.0 L345.9,420.0 L346.8,420.0 L347.6,420.0 L348.4,420.0 L349.3,420.0 L350.1,420.0 L351.0,420.0 L351.8,420.0 L352.7,420.0 L353.5,420.0 L354.3,420.0 L355.2,420.0 L356.0,420.0 L356.9,420.0 L357.7,420.0 L358.5,420.0 L359.4,420.0 L360.2,420.0 L361.1,420.0 L361.9,420.0 L362.7,420.0 L363.6,420.0 L364.4,420.0 L365.3,420.0 L366.1,420.0 L367.0,420.0 L367.8,420.0 L368.6,420.0 L369.5,420.0 L370.3,420.0 L371.2,420.0 L372.0,420.0 L372.8,420.0 L373.7,420.0 L374.5,420.0 L375.4,420.0 L376.2,420.0 L377.1,420.0 L377.9,420.0 L378.7,420.0 L379.6,420.0 L380.4,420.0 L381.3,420.0 L382.1,420.0 L382.9,420.0 L383.8,420.0 L384.6,420.0 L385.5,420.0 L386.3,420.0 L387.2,420.0 L388.0,420.0 L388.8,420.0 L389.7,420.0 L390.5,420.0 L391.4,420.0 L392.2,420.0 L393.0,420.0 L393.9,420.0 L394.7,420.0 L395.6,420.0 L396.4,420.0 L397.3,420.0 L398.1,420.0 L398.9,420.0 L399.8,420.0 L400.6,420.0 L401.5,420.0 L402.3,420.0 L403.1,420.0 L404.0,420.0 L404.8,420.0 L405.7,420.0 L406.5,420.0 L407.3,420.0 L408.2,420.0 L409.0,420.0 L409.9,420.0 L410.7,420.0 L411.6,420.0 L412.4,420.0 L413.2,420.0 L414.1,420.0 L414.9,420.0 L415.8,420.0 L416.6,420.0 L417.4,420.0 L418.3,420.0 L419.1,420.0 L420.0,420.0 L420.8,420.0 L421.7,420.0 L422.5,420.0 L423.3,420.0 L424.2,420.0 L425.0,420.0 L425.9,420.0 L426.7,420.0 L427.5,420.0 L428.4,420.0 L429.2,420.0 L430.1,420.0 L430.9,420.0 L431.8,420.0 L432.6,420.0 L433.4,420.0 L434.3,420.0 L435.1,420.0 L436.0,420.0 L436.8,420.0 L437.6,420.0 L438.5,420.0 L439.3,420.0 L440.2,420.0 L441.0,420.0 L441.9,420.0 L442.7,420.0 L443.5,420.0 L444.4,420.0 L445.2,420.0 L446.1,420.0 L446.9,420.0 L447.7,420.0 L448.6,420.0 L449.4,420.0 L450.3,420.0 L451.1,420.0 L451.9,420.0 L452.8,420.0 L453.6,420.0 L454.5,420.0 L455.3,420.0 L456.2,420.0 L457.0,420.0 L457.8,420.0 L458.7,420.0 L459.5,420.0 L460.4,420.0 L461.2,420.0 L462.0,420.0 L462.9,420.0 L463.7,420.0 L464.6,420.0 L465.4,420.0 L466.3,420.0 L467.1,420.0 L467.9,420.0 L468.8,420.0 L469.6,420.0 L470.5,420.0 L471.3,420.0 L472.1,420.0 L473.0,420.0 L473.8,420.0 L474.7,420.0 L475.5,420.0 L476.4,420.0 L477.2,420.0 L478.0,420.0 L478.9,420.0 L479.7,420.0 L480.6,420.0 L481.4,420.0 L482.2,420.0 L483.1,420.0 L483.9,420.0 L484.8,420.0 L485.6,420.0 L486.5,420.0 L487.3,420.0 L488.1,420.0 L489.0,420.0 L489.8,420.0 L490.7,420.0 L491.5,420.0 L492.3,420.0 L493.2,420.0 L494.0,420.0 L494.9,420.0 L495.7,420.0 L496.5,420.0 L497.4,420.0 L498.2,420.0 L499.1,420.0 L499.9,420.0 L500.8,420.0 L501.6,420.0 L502.4,420.0 L503.3,420.0 L504.1,420.0 L505.0,420.0 L505.8,420.0 L506.6,420.0 L507.5,420.0 L508.3,420.0 L509.2,420.0 L510.0,420.0 L510.9,420.0 L511.7,420.0 L512.5,420.0 L513.4,420.0 L514.2,420.0 L515.1,420.0 L515.9,420.0 L516.7,420.0 L517.6,420.0 L518.4,420.0 L519.3,420.0 L520.1,420.0 L521.0,420.0 L521.8,420.0 L522.6,420.0 L523.5,420.0 L524.3,420.0 L525.2,420.0 L526.0,420.0 L526.8,420.0 L527.7,420.0 L528.5,420.0 L529.4,420.0 L530.2,420.0 L531.1,420.0 L531.9,420.0 L532.7,420.0 L533.6,420.0 L534.4,420.0 L535.3,420.0 L536.1,420.0 L536.9,420.0 L537.8,420.0 L538.6,420.0 L539.5,420.0 L540.3,420.0 L541.2,420.0 L542.0,420.0 L542.8,420.0 L543.7,420.0 L544.5,420.0 L545.4,420.0 L546.2,420.0 L547.0,420.0 L547.9,420.0 L548.7,420.0 L549.6,420.0 L550.4,420.0 L551.2,420.0 L552.1,420.0 L552.9,420.0 L553.8,420.0 L554.6,420.0 L555.5,420.0 L556.3,420.0 L557.1,420.0 L558.0,420.0 L558.8,420.0 L559.7,420.0 L560.5,420.0 L561.3,420.0 L562.2,420.0 L563.0,420.0 L563.9,420.0 L564.7,420.0 L565.6,420.0 L566.4,420.0 L567.2,420.0 L568.1,420.0 L568.9,420.0 L569.8,420.0 L570.6,420.0 L571.4,420.0 L572.3,420.0 L573.1,420.0 L574.0,420.0 L574.8,420.0 L575.7,420.0 L576.5,420.0 L577.3,420.0 L578.2,420.0 L579.0,420.0 L579.9,420.0 L580.7,420.0 L581.5,420.0 L582.4,420.0 L583.2,420.0 L584.1,420.0 L584.9,420.0 L585.8,420.0 L586.6,420.0 L587.4,420.0 L588.3,420.0 L589.1,420.0 L590.0,420.0 L590.8,420.0 L591.6,420.0 L592.5,420.0 L593.3,420.0 L594.2,420.0 L595.0,420.0 L595.8,420.0 L596.7,420.0 L597.5,420.0 L598.4,420.0 L599.2,420.0 L600.1,420.0 L600.9,420.0 L601.7,420.0 L602.6,420.0 L603.4,420.0 L604.3,420.0 L605.1,420.0 L605.9,420.0 L606.8,420.0 L607.6,420.0 L608.5,420.0 L609.3,420.0 L610.2,420.0 L611.0,420.0 L611.8,420.0 L612.7,420.0 L613.5,420.0 L614.4,420.0 L615.2,420.0 L616.0,420.0 L616.9,420.0 L617.7,420.0 L618.6,420.0 L619.4,420.0 L620.3,420.0 L621.1,420.0 L621.9,420.0 L622.8,420.0 L623.6,420.0 L624.5,420.0 L625.3,420.0 L626.1,420.0 L627.0,420.0 L627.8,420.0 L628.7,420.0 L629.5,420.0 L630.4,420.0 L631.2,420.0 L632.0,420.0 L632.9,420.0 L633.7,420.0 L634.6,420.0 L635.4,420.0 L636.2,420.0 L637.1,420.0 L637.9,420.0 L638.8,420.0 L639.6,420.0 L640.4,420.0 L641.3,420.0 L642.1,420.0 L643.0,420.0 L643.8,420.0 L644.7,420.0 L645.5,420.0 L646.3,420.0 L647.2,420.0 L648.0,420.0 L648.9,420.0 L649.7,420.0 L650.5,420.0 L651.4,420.0 L652.2,420.0 L653.1,420.0 L653.9,420.0 L654.8,420.0 L655.6,420.0 L656.4,420.0 L657.3,420.0 L658.1,420.0 L659.0,420.0 L659.8,420.0 L660.6,420.0 L661.5,420.0 L662.3,420.0 L663.2,420.0 L664.0,420.0 L664.9,420.0 L665.7,420.0 L666.5,420.0 L667.4,420.0 L668.2,420.0 L669.1,420.0 L669.9,420.0 L670.7,420.0 L671.6,420.0 L672.4,420.0 L673.3,420.0 L674.1,420.0 L675.0,420.0 L675.8,420.0 L676.6,420.0 L677.5,420.0 L678.3,420.0 L679.2,420.0 L680.0,420.0" stroke="#e377c2" stroke-width="2" fill="none" opacity="0.8"/>

<!-- Legend -->
<line x1="690" y1="70" x2="705" y2="70" stroke="#1f77b4" stroke-width="3"/>
<text x="710" y="74" class="legend">Wind Generation</text>
<line x1="690" y1="88" x2="705" y2="88" stroke="#ff7f0e" stroke-width="3"/>
<text x="710" y="92" class="legend">Hydro Generation</text>
<line x1="690" y1="106" x2="705" y2="106" stroke="#2ca02c" stroke-width="3"/>
<text x="710" y="110" class="legend">Thermal Generation</text>
<line x1="690" y1="124" x2="705" y2="124" stroke="#d62728" stroke-width="3"/>
<text x="710" y="128" class="legend">Solar Generation</text>
<line x1="690" y1="142" x2="705" y2="142" stroke="#9467bd" stroke-width="3"/>
<text x="710" y="146" class="legend">Forecast</text>
<line x1="690" y1="160" x2="705" y2="160" stroke="#8c564b" stroke-width="3"/>
<text x="710" y="164" class="legend">Total Generation</text>
<line x1="690" y1="178" x2="705" y2="178" stroke="#e377c2" stroke-width="3"/>
<text x="710" y="182" class="legend">Forecast Difference</text>

<!-- Date range -->
<text x="80" y="495" class="legend">Range: 04/07 - 05/07/2026 (714 records)</text>
</svg>