<?xml version="1.0" encoding="UTF-8"?>
<svg width="800" height="500" xmlns="http://www.w3.org/2000/svg">
<style>
.axis-line { stroke: #333; stroke-width: 1; }
.grid-line { stroke: #ddd; stroke-width: 0.5; }
.title { font: 16px Arial; text-anchor: middle; fill: #333; }
.axis-label { font: 12px Arial; text-anchor: middle; fill: #666; }
.legend { font: 10px Arial; fill: #333; }
</style>

<!-- Title -->
<text x="400.0" y="25" class="title">Northwestern Energy Generation Data - Past 30 Days</text>

<!-- Plot area background -->
<rect x="80" y="50" width="600" height="370" fill="white" stroke="#ddd"/>

<!-- Y-axis -->
<line x1="80" y1="50" x2="80" y2="420" class="axis-line"/>
<text x="30" y="235.0" class="axis-label" transform="rotate(-90, 30, 235.0)">Generation (MW)</text>

<!-- X-axis -->
<line x1="80" y1="420" x2="680" y2="420" class="axis-line"/>
<text x="380.0" y="480" class="axis-label">Time</text>
<line x1="80" y1="420.0" x2="680" y2="420.0" class="grid-line"/>
<text x="70" y="425.0" class="legend" text-anchor="end">0</text>
<line x1="80" y1="327.5" x2="680" y2="327.5" class="grid-line"/>
<text x="70" y="332.5" class="legend" text-anchor="end">303</text>
<line x1="80" y1="235.0" x2="680" y2="235.0" class="grid-line"/>
<text x="70" y="240.0" class="legend" text-anchor="end">606</text>
<line x1="80" y1="142.5" x2="680" y2="142.5" class="grid-line"/>
<text x="70" y="147.5" class="legend" text-anchor="end">910</text>
<line x1="80" y1="50.0" x2="680" y2="50.0" class="grid-line"/>
<text x="70" y="55.0" class="legend" text-anchor="end">1213</text>
<!-- Wind Generation -->
<path d="M80.0,411.8 L81.4,410.5 L82.9,416.3 L84.3,398.9 L85.8,403.8 L87.2,397.7 L111.0,416.3 L112.5,413.0 L113.9,409.9 L115.4,405.1 L116.8,401.1 L118.3,369.0 L119.7,373.6 L121.2,372.1 L122.6,381.9 L124.1,403.2 L125.5,406.0 L127.0,407.5 L128.4,417.6 L129.8,409.9 L131.3,403.2 L132.7,398.9 L134.2,400.5 L135.6,413.9 L137.1,419.4 L138.5,420.0 L140.0,418.2 L141.4,416.3 L142.9,417.6 L144.3,415.1 L145.8,407.8 L147.2,412.4 L148.7,377.3 L150.1,394.7 L151.6,410.5 L153.0,378.2 L154.5,406.6 L155.9,385.2 L157.4,389.8 L158.8,386.4 L160.3,399.9 L161.7,412.1 L163.2,393.8 L164.6,383.4 L166.1,381.9 L167.5,387.1 L169.0,408.4 L170.4,415.4 L171.9,416.6 L173.3,412.4 L174.7,409.9 L176.2,411.8 L177.6,413.3 L179.1,414.8 L180.5,411.5 L182.0,407.5 L183.4,398.0 L184.9,390.7 L186.3,382.5 L187.8,370.0 L189.2,373.3 L190.7,378.2 L192.1,378.5 L193.6,384.9 L195.0,393.2 L196.5,393.2 L197.9,373.9 L199.4,390.4 L200.8,402.3 L202.3,403.2 L203.7,399.6 L205.2,400.8 L206.6,404.4 L208.1,401.4 L209.5,406.0 L211.0,410.2 L212.4,408.4 L213.9,407.8 L215.3,408.1 L216.8,402.9 L218.2,394.4 L219.6,391.3 L221.1,381.9 L222.5,373.3 L224.0,379.4 L225.4,373.6 L226.9,374.2 L228.3,372.7 L229.8,391.0 L231.2,408.4 L232.7,414.2 L234.1,417.9 L235.6,420.0 L237.0,420.0 L238.5,420.0 L239.9,420.0 L241.4,419.7 L242.8,416.3 L244.3,415.1 L245.7,415.4 L247.2,415.1 L248.6,415.4 L250.1,414.8 L251.5,409.9 L253.0,401.1 L254.4,387.1 L255.9,378.5 L257.3,351.7 L258.8,345.9 L260.2,352.3 L261.7,342.5 L263.1,351.0 L264.6,381.6 L266.0,384.9 L267.4,394.7 L268.9,410.2 L270.3,416.0 L271.8,417.9 L273.2,420.0 L274.7,420.0 L276.1,420.0 L277.6,415.7 L279.0,409.9 L280.5,412.4 L281.9,413.0 L283.4,414.5 L284.8,416.9 L286.3,414.5 L287.7,413.0 L289.2,401.7 L290.6,387.1 L292.1,375.8 L293.5,355.6 L295.0,362.9 L296.4,386.1 L297.9,408.1 L299.3,416.3 L300.8,418.8 L302.2,420.0 L303.7,420.0 L305.1,419.7 L306.6,419.7 L308.0,420.0 L309.5,420.0 L310.9,420.0 L312.3,416.0 L313.8,412.7 L315.2,415.1 L316.7,417.9 L318.1,416.0 L319.6,416.0 L321.0,412.1 L322.5,405.1 L323.9,390.7 L325.4,372.1 L326.8,354.4 L328.3,349.5 L329.7,353.8 L331.2,373.0 L332.4,390.7 L333.8,405.1 L335.3,411.8 L336.7,418.2 L338.2,419.7 L339.6,420.0 L341.1,419.7 L342.5,418.8 L344.0,419.1 L345.4,415.7 L346.9,407.8 L348.3,399.9 L349.8,400.8 L351.2,398.9 L352.7,404.7 L354.1,406.9 L355.6,403.5 L357.0,392.2 L358.5,373.9 L359.9,368.4 L361.4,327.3 L362.8,324.2 L364.2,320.2 L365.7,335.5 L367.1,351.0 L368.6,364.8 L370.0,380.6 L371.5,393.2 L372.9,398.0 L374.4,404.1 L375.8,402.9 L377.3,401.1 L378.7,406.9 L380.2,405.1 L381.6,399.3 L383.1,388.0 L384.5,374.2 L386.0,379.1 L387.4,393.5 L388.9,394.1 L390.3,381.6 L391.8,388.0 L393.2,393.8 L394.7,394.1 L396.1,401.7 L397.6,402.3 L399.0,406.6 L400.5,405.4 L401.9,414.2 L403.4,408.7 L404.8,414.5 L406.3,404.4 L407.7,404.1 L409.1,402.0 L410.6,398.0 L412.0,402.3 L413.5,407.5 L414.9,415.7 L416.4,417.3 L417.8,416.9 L419.3,418.5 L420.7,420.0 L422.2,417.6 L423.6,397.7 L425.1,392.5 L426.5,373.6 L428.0,374.8 L429.4,390.1 L430.9,410.2 L432.3,410.5 L433.8,411.5 L435.2,412.1 L436.7,405.4 L438.1,397.4 L439.6,391.6 L441.0,396.5 L442.5,403.2 L443.9,404.1 L445.4,406.6 L446.8,408.7 L448.3,413.6 L449.7,410.8 L451.2,411.5 L452.6,403.8 L454.0,398.9 L455.5,399.6 L456.9,395.0 L458.4,352.3 L459.8,369.4 L461.3,382.2 L462.7,373.6 L464.2,388.6 L465.6,395.3 L467.1,409.6 L468.5,409.9 L470.0,412.1 L471.4,408.7 L472.9,411.2 L474.3,409.3 L475.8,393.5 L477.2,394.4 L478.7,393.8 L480.1,394.7 L481.6,398.9 L483.0,409.9 L484.5,410.5 L485.9,402.9 L487.4,396.5 L488.8,398.9 L490.3,388.9 L491.7,395.0 L493.2,399.3 L494.6,405.1 L496.1,402.3 L497.5,410.8 L498.9,409.6 L500.4,403.5 L501.8,404.7 L503.3,415.4 L504.7,417.3 L506.2,414.5 L507.6,412.1 L509.1,411.8 L510.5,406.3 L512.0,404.4 L513.4,398.9 L514.9,403.5 L516.3,403.8 L517.8,409.9 L519.2,413.3 L520.7,414.2 L522.1,412.4 L523.6,405.7 L525.0,400.8 L526.5,403.2 L527.9,407.5 L529.4,407.5 L530.8,407.8 L532.3,413.9 L533.7,413.6 L535.2,413.3 L536.6,410.5 L538.1,415.7 L539.5,418.2 L541.0,419.4 L542.4,420.0 L543.9,419.7 L545.3,420.0 L546.7,420.0 L548.2,419.4 L549.6,418.5 L551.1,417.9 L552.5,418.5 L554.0,420.0 L555.4,419.1 L556.9,415.4 L558.3,413.9 L559.8,410.8 L561.2,414.2 L562.7,404.4 L564.1,392.8 L565.6,398.6 L567.0,395.6 L568.5,366.0 L569.9,367.2 L571.4,362.9 L572.8,368.1 L574.3,388.9 L575.7,398.3 L577.2,405.4 L578.6,409.6 L580.1,412.7 L581.5,418.2 L583.0,412.4 L584.4,415.4 L585.9,406.6 L587.3,412.1 L588.8,415.7 L590.2,413.0 L591.6,409.0 L593.1,407.8 L594.5,403.8 L596.0,403.8 L597.4,391.9 L598.9,396.2 L600.3,390.7 L601.8,388.0 L603.2,384.6 L604.7,379.7 L606.1,386.7 L607.6,385.5 L609.0,392.2 L610.5,403.8 L611.9,406.9 L613.4,416.0 L614.8,417.6 L616.3,419.4 L617.7,420.0 L619.2,420.0 L620.6,420.0 L622.1,420.0 L623.5,419.1 L625.0,419.4 L626.4,418.5 L627.9,414.5 L629.3,402.6 L630.8,392.5 L632.2,373.3 L633.7,369.0 L635.1,382.2 L636.5,374.8 L638.0,373.9 L639.4,399.6 L640.9,417.9 L642.3,418.5 L643.8,407.5 L645.2,406.3 L646.7,402.0 L648.1,383.7 L649.6,378.2 L651.0,363.3 L652.5,334.3 L653.9,328.2 L655.4,321.2 L656.8,319.9 L658.3,316.6 L659.7,323.6 L661.2,326.9 L662.6,329.4 L664.1,332.1 L665.5,323.9 L667.0,330.6 L668.4,326.3 L669.9,331.2 L671.3,348.9 L672.8,372.1 L674.2,382.8 L675.7,391.9 L677.1,401.1 L678.6,409.3 L680.0,408.4" stroke="#1f77b4" stroke-width="2" fill="none" opacity="0.8"/>
<!-- Hydro Generation -->
<path d="M80.0,352.6 L81.4,353.5 L82.9,353.2 L84.3,353.8 L85.8,353.8 L87.2,353.5 L111.0,352.9 L112.5,353.5 L113.9,353.2 L115.4,353.2 L116.8,353.5 L118.3,353.5 L119.7,352.6 L121.2,353.2 L122.6,352.6 L124.1,352.6 L125.5,352.6 L127.0,352.3 L128.4,352.9 L129.8,352.6 L131.3,352.6 L132.7,352.9 L134.2,352.3 L135.6,352.6 L137.1,352.6 L138.5,352.3 L140.0,352.6 L141.4,352.9 L142.9,353.5 L144.3,353.5 L145.8,352.9 L147.2,353.5 L148.7,353.2 L150.1,353.2 L151.6,353.2 L153.0,353.2 L154.5,353.2 L155.9,353.2 L157.4,353.5 L158.8,353.5 L160.3,353.2 L161.7,353.2 L163.2,353.2 L164.6,352.9 L166.1,353.5 L167.5,353.2 L169.0,353.2 L170.4,352.6 L171.9,353.2 L173.3,353.5 L174.7,353.5 L176.2,353.8 L177.6,353.8 L179.1,354.1 L180.5,354.7 L182.0,354.4 L183.4,354.4 L184.9,354.1 L186.3,354.1 L187.8,355.3 L189.2,355.0 L190.7,355.3 L192.1,355.3 L193.6,355.3 L195.0,355.6 L196.5,355.3 L197.9,355.9 L199.4,355.6 L200.8,355.3 L202.3,356.2 L203.7,356.2 L205.2,355.6 L206.6,355.9 L208.1,356.8 L209.5,356.8 L211.0,356.8 L212.4,354.1 L213.9,357.2 L215.3,356.8 L216.8,356.8 L218.2,357.5 L219.6,351.7 L221.1,358.1 L222.5,359.0 L224.0,359.0 L225.4,358.7 L226.9,359.0 L228.3,358.7 L229.8,359.0 L231.2,358.7 L232.7,359.0 L234.1,359.0 L235.6,359.0 L237.0,359.3 L238.5,359.6 L239.9,359.6 L241.4,361.1 L242.8,361.1 L244.3,360.8 L245.7,361.4 L247.2,360.5 L248.6,360.5 L250.1,360.8 L251.5,361.1 L253.0,359.3 L254.4,359.6 L255.9,359.6 L257.3,358.7 L258.8,359.0 L260.2,359.0 L261.7,358.1 L263.1,357.8 L264.6,358.1 L266.0,357.8 L267.4,357.8 L268.9,357.5 L270.3,357.5 L271.8,357.8 L273.2,357.8 L274.7,357.5 L276.1,358.1 L277.6,358.4 L279.0,358.1 L280.5,358.7 L281.9,358.1 L283.4,358.4 L284.8,358.1 L286.3,358.7 L287.7,358.4 L289.2,358.4 L290.6,358.7 L292.1,357.2 L293.5,357.2 L295.0,356.5 L296.4,356.2 L297.9,356.2 L299.3,356.2 L300.8,356.5 L302.2,356.2 L303.7,356.2 L305.1,356.2 L306.6,356.2 L308.0,356.8 L309.5,359.3 L310.9,358.4 L312.3,359.0 L313.8,358.7 L315.2,359.3 L316.7,359.0 L318.1,359.0 L319.6,359.3 L321.0,359.9 L322.5,359.6 L323.9,359.6 L325.4,359.3 L326.8,359.0 L328.3,358.1 L329.7,357.8 L331.2,358.1 L332.4,357.8 L333.8,358.4 L335.3,358.1 L336.7,357.8 L338.2,356.8 L339.6,357.2 L341.1,356.5 L342.5,356.2 L344.0,356.2 L345.4,356.5 L346.9,356.5 L348.3,356.2 L349.8,355.9 L351.2,356.2 L352.7,356.5 L354.1,355.9 L355.6,356.2 L357.0,356.2 L358.5,356.5 L359.9,356.5 L361.4,356.8 L362.8,356.5 L364.2,356.5 L365.7,356.2 L367.1,356.8 L368.6,356.2 L370.0,356.5 L371.5,356.2 L372.9,356.2 L374.4,356.8 L375.8,356.5 L377.3,356.8 L378.7,356.2 L380.2,357.2 L381.6,355.9 L383.1,356.8 L384.5,356.2 L386.0,356.8 L387.4,356.5 L388.9,356.2 L390.3,356.5 L391.8,356.8 L393.2,356.5 L394.7,356.5 L396.1,356.5 L397.6,357.2 L399.0,356.5 L400.5,356.8 L401.9,356.8 L403.4,356.5 L404.8,357.2 L406.3,356.5 L407.7,357.2 L409.1,356.8 L410.6,357.2 L412.0,357.5 L413.5,357.5 L414.9,357.2 L416.4,356.8 L417.8,356.2 L419.3,356.5 L420.7,356.8 L422.2,356.8 L423.6,356.5 L425.1,356.5 L426.5,354.7 L428.0,355.0 L429.4,354.4 L430.9,354.1 L432.3,354.1 L433.8,353.8 L435.2,353.5 L436.7,353.5 L438.1,353.5 L439.6,352.9 L441.0,352.9 L442.5,352.9 L443.9,352.6 L445.4,352.3 L446.8,352.6 L448.3,352.9 L449.7,352.9 L451.2,352.6 L452.6,352.6 L454.0,353.2 L455.5,353.5 L456.9,353.5 L458.4,353.2 L459.8,353.5 L461.3,353.5 L462.7,353.2 L464.2,353.5 L465.6,353.5 L467.1,353.8 L468.5,353.8 L470.0,354.1 L471.4,354.7 L472.9,354.7 L474.3,354.4 L475.8,354.4 L477.2,354.7 L478.7,354.4 L480.1,354.7 L481.6,355.0 L483.0,356.2 L484.5,355.9 L485.9,356.2 L487.4,356.2 L488.8,355.9 L490.3,356.2 L491.7,355.6 L493.2,355.6 L494.6,355.6 L496.1,355.6 L497.5,355.3 L498.9,355.3 L500.4,353.2 L501.8,353.2 L503.3,352.9 L504.7,353.2 L506.2,353.2 L507.6,353.2 L509.1,352.6 L510.5,352.3 L512.0,352.3 L513.4,352.0 L514.9,352.6 L516.3,352.9 L517.8,354.1 L519.2,353.8 L520.7,354.1 L522.1,354.1 L523.6,353.8 L525.0,353.8 L526.5,353.8 L527.9,354.4 L529.4,353.8 L530.8,353.8 L532.3,354.1 L533.7,354.4 L535.2,354.4 L536.6,353.8 L538.1,353.8 L539.5,353.8 L541.0,353.5 L542.4,353.8 L543.9,353.5 L545.3,353.2 L546.7,353.2 L548.2,353.2 L549.6,353.2 L551.1,353.2 L552.5,355.0 L554.0,355.3 L555.4,355.0 L556.9,355.0 L558.3,355.0 L559.8,355.0 L561.2,355.0 L562.7,355.0 L564.1,354.7 L565.6,354.7 L567.0,354.7 L568.5,354.7 L569.9,355.0 L571.4,354.1 L572.8,353.8 L574.3,354.1 L575.7,353.8 L577.2,352.6 L578.6,352.6 L580.1,350.4 L581.5,351.4 L583.0,350.4 L584.4,350.1 L585.9,349.8 L587.3,349.8 L588.8,350.4 L590.2,350.7 L591.6,350.7 L593.1,351.4 L594.5,351.7 L596.0,351.7 L597.4,352.0 L598.9,352.6 L600.3,352.6 L601.8,353.8 L603.2,353.8 L604.7,353.8 L606.1,355.0 L607.6,354.7 L609.0,354.4 L610.5,355.0 L611.9,354.7 L613.4,354.7 L614.8,354.7 L616.3,354.7 L617.7,355.0 L619.2,355.0 L620.6,355.3 L622.1,355.3 L623.5,355.9 L625.0,355.6 L626.4,355.3 L627.9,355.6 L629.3,355.0 L630.8,359.3 L632.2,359.6 L633.7,355.0 L635.1,354.1 L636.5,354.7 L638.0,355.0 L639.4,354.7 L640.9,354.7 L642.3,354.7 L643.8,354.7 L645.2,354.1 L646.7,354.1 L648.1,353.8 L649.6,353.2 L651.0,353.5 L652.5,353.5 L653.9,353.8 L655.4,354.1 L656.8,354.4 L658.3,354.1 L659.7,354.1 L661.2,354.1 L662.6,355.3 L664.1,355.3 L665.5,355.3 L667.0,355.6 L668.4,355.6 L669.9,355.3 L671.3,353.5 L672.8,356.2 L674.2,355.9 L675.7,357.2 L677.1,357.8 L678.6,357.8 L680.0,357.8" stroke="#ff7f0e" stroke-width="2" fill="none" opacity="0.8"/>
<!-- Thermal Generation -->
<path d="M80.0,314.7 L81.4,315.0 L82.9,313.8 L84.3,316.3 L85.8,328.8 L87.2,338.8 L111.0,332.4 L112.5,333.0 L113.9,338.8 L115.4,328.8 L116.8,329.1 L118.3,328.5 L119.7,326.3 L121.2,324.8 L122.6,321.5 L124.1,317.2 L125.5,321.2 L127.0,320.5 L128.4,319.9 L129.8,319.0 L131.3,320.5 L132.7,321.5 L134.2,337.9 L135.6,338.2 L137.1,338.2 L138.5,339.5 L140.0,340.7 L141.4,341.6 L142.9,326.6 L144.3,327.9 L145.8,327.9 L147.2,328.2 L148.7,328.5 L150.1,328.5 L151.6,327.9 L153.0,326.9 L154.5,326.3 L155.9,325.1 L157.4,321.8 L158.8,322.1 L160.3,321.2 L161.7,320.5 L163.2,320.2 L164.6,322.4 L166.1,320.5 L167.5,320.8 L169.0,321.8 L170.4,322.4 L171.9,320.5 L173.3,323.3 L174.7,322.7 L176.2,323.6 L177.6,323.9 L179.1,324.5 L180.5,324.2 L182.0,323.9 L183.4,324.2 L184.9,324.5 L186.3,323.0 L187.8,323.0 L189.2,323.3 L190.7,325.7 L192.1,322.1 L193.6,321.2 L195.0,321.5 L196.5,320.5 L197.9,320.5 L199.4,320.8 L200.8,323.6 L202.3,319.9 L203.7,320.8 L205.2,337.9 L206.6,339.5 L208.1,333.0 L209.5,322.1 L211.0,323.3 L212.4,323.0 L213.9,323.6 L215.3,323.9 L216.8,327.3 L218.2,326.3 L219.6,323.3 L221.1,323.3 L222.5,322.4 L224.0,322.4 L225.4,321.8 L226.9,321.8 L228.3,321.8 L229.8,320.5 L231.2,319.6 L232.7,319.3 L234.1,319.6 L235.6,322.1 L237.0,319.3 L238.5,330.6 L239.9,328.2 L241.4,331.2 L242.8,338.8 L244.3,322.4 L245.7,323.3 L247.2,323.6 L248.6,324.2 L250.1,323.6 L251.5,323.3 L253.0,309.9 L254.4,308.9 L255.9,311.1 L257.3,307.1 L258.8,307.4 L260.2,308.3 L261.7,307.4 L263.1,306.5 L264.6,305.6 L266.0,305.9 L267.4,305.0 L268.9,304.4 L270.3,304.1 L271.8,304.7 L273.2,307.7 L274.7,336.7 L276.1,338.2 L277.6,338.8 L279.0,338.5 L280.5,341.0 L281.9,313.5 L283.4,308.3 L284.8,306.8 L286.3,310.5 L287.7,308.9 L289.2,304.4 L290.6,303.8 L292.1,300.4 L293.5,298.3 L295.0,311.4 L296.4,304.7 L297.9,306.5 L299.3,296.7 L300.8,319.6 L302.2,323.0 L303.7,322.4 L305.1,295.8 L306.6,298.6 L308.0,298.6 L309.5,323.3 L310.9,309.9 L312.3,311.1 L313.8,312.6 L315.2,313.2 L316.7,309.3 L318.1,307.7 L319.6,307.4 L321.0,306.5 L322.5,307.1 L323.9,307.1 L325.4,305.3 L326.8,305.0 L328.3,301.6 L329.7,303.8 L331.2,298.3 L332.4,297.4 L333.8,305.9 L335.3,296.1 L336.7,297.4 L338.2,299.8 L339.6,300.7 L341.1,297.4 L342.5,297.7 L344.0,300.7 L345.4,301.0 L346.9,307.7 L348.3,321.2 L349.8,307.4 L351.2,320.2 L352.7,313.8 L354.1,313.2 L355.6,311.4 L357.0,312.6 L358.5,310.8 L359.9,311.4 L361.4,308.6 L362.8,306.2 L364.2,305.3 L365.7,301.9 L367.1,340.7 L368.6,340.1 L370.0,328.2 L371.5,327.6 L372.9,326.9 L374.4,326.6 L375.8,312.3 L377.3,327.3 L378.7,332.4 L380.2,327.6 L381.6,327.9 L383.1,328.5 L384.5,331.8 L386.0,326.9 L387.4,325.4 L388.9,305.0 L390.3,305.6 L391.8,305.9 L393.2,311.1 L394.7,308.0 L396.1,312.6 L397.6,305.9 L399.0,304.7 L400.5,303.5 L401.9,303.5 L403.4,329.1 L404.8,323.3 L406.3,324.2 L407.7,340.7 L409.1,340.4 L410.6,329.1 L412.0,327.3 L413.5,327.6 L414.9,331.2 L416.4,331.5 L417.8,326.9 L419.3,325.7 L420.7,326.0 L422.2,329.1 L423.6,319.9 L425.1,319.6 L426.5,316.3 L428.0,313.8 L429.4,313.5 L430.9,312.3 L432.3,310.8 L433.8,310.8 L435.2,310.8 L436.7,308.3 L438.1,306.2 L439.6,336.4 L441.0,335.2 L442.5,334.9 L443.9,334.3 L445.4,325.7 L446.8,325.1 L448.3,328.2 L449.7,328.2 L451.2,330.0 L452.6,335.2 L454.0,335.8 L455.5,345.6 L456.9,345.9 L458.4,345.3 L459.8,345.3 L461.3,343.7 L462.7,327.3 L464.2,324.2 L465.6,321.2 L467.1,322.4 L468.5,321.8 L470.0,321.5 L471.4,326.6 L472.9,337.9 L474.3,338.2 L475.8,337.9 L477.2,338.2 L478.7,338.5 L480.1,338.5 L481.6,339.2 L483.0,338.2 L484.5,337.9 L485.9,340.7 L487.4,341.3 L488.8,341.3 L490.3,341.9 L491.7,339.2 L493.2,341.9 L494.6,341.6 L496.1,312.3 L497.5,312.0 L498.9,313.5 L500.4,312.9 L501.8,312.3 L503.3,322.1 L504.7,321.5 L506.2,319.6 L507.6,335.5 L509.1,330.0 L510.5,327.9 L512.0,327.9 L513.4,327.6 L514.9,327.3 L516.3,327.6 L517.8,328.2 L519.2,329.4 L520.7,330.6 L522.1,330.9 L523.6,331.5 L525.0,332.1 L526.5,332.4 L527.9,312.3 L529.4,304.4 L530.8,304.1 L532.3,303.5 L533.7,302.8 L535.2,315.0 L536.6,301.6 L538.1,300.4 L539.5,310.8 L541.0,311.1 L542.4,327.3 L543.9,326.9 L545.3,327.6 L546.7,326.6 L548.2,326.6 L549.6,326.3 L551.1,328.2 L552.5,328.8 L554.0,330.0 L555.4,332.4 L556.9,331.8 L558.3,332.7 L559.8,333.0 L561.2,315.7 L562.7,309.3 L564.1,308.3 L565.6,308.0 L567.0,307.4 L568.5,306.8 L569.9,303.5 L571.4,301.9 L572.8,301.6 L574.3,303.8 L575.7,300.1 L577.2,299.5 L578.6,304.1 L580.1,303.8 L581.5,303.1 L583.0,303.1 L584.4,302.8 L585.9,309.3 L587.3,303.8 L588.8,305.0 L590.2,307.1 L591.6,307.7 L593.1,309.3 L594.5,336.1 L596.0,348.3 L597.4,349.2 L598.9,350.1 L600.3,349.2 L601.8,348.3 L603.2,346.8 L604.7,345.3 L606.1,343.7 L607.6,343.1 L609.0,341.9 L610.5,342.2 L611.9,342.2 L613.4,341.3 L614.8,341.0 L616.3,343.4 L617.7,339.8 L619.2,340.1 L620.6,343.7 L622.1,344.0 L623.5,342.5 L625.0,342.5 L626.4,344.9 L627.9,334.9 L629.3,336.1 L630.8,336.7 L632.2,336.7 L633.7,335.5 L635.1,335.5 L636.5,334.6 L638.0,333.4 L639.4,333.4 L640.9,331.5 L642.3,330.0 L643.8,330.0 L645.2,332.1 L646.7,330.6 L648.1,330.6 L649.6,330.6 L651.0,331.2 L652.5,331.5 L653.9,331.5 L655.4,343.7 L656.8,360.2 L658.3,362.3 L659.7,361.7 L661.2,362.6 L662.6,360.8 L664.1,360.5 L665.5,346.5 L667.0,334.3 L668.4,336.1 L669.9,348.6 L671.3,333.4 L672.8,334.9 L674.2,332.1 L675.7,332.1 L677.1,333.0 L678.6,335.2 L680.0,333.4" stroke="#2ca02c" stroke-width="2" fill="none" opacity="0.8"/>
<!-- Solar Generation -->
<path d="M80.0,392.2 L81.4,411.2 L82.9,420.0 L84.3,420.0 L85.8,420.0 L87.2,420.0 L111.0,393.5 L112.5,382.2 L113.9,384.6 L115.4,399.3 L116.8,418.2 L118.3,420.0 L119.7,420.0 L121.2,420.0 L122.6,420.0 L124.1,420.0 L125.5,420.0 L127.0,420.0 L128.4,420.0 L129.8,420.0 L131.3,420.0 L132.7,418.2 L134.2,404.4 L135.6,380.3 L137.1,378.2 L138.5,387.4 L140.0,379.7 L141.4,384.6 L142.9,388.3 L144.3,398.3 L145.8,401.1 L147.2,400.5 L148.7,408.1 L150.1,415.7 L151.6,418.2 L153.0,420.0 L154.5,420.0 L155.9,420.0 L157.4,420.0 L158.8,420.0 L160.3,420.0 L161.7,420.0 L163.2,420.0 L164.6,420.0 L166.1,420.0 L167.5,418.2 L169.0,406.0 L170.4,387.7 L171.9,378.2 L173.3,380.9 L174.7,378.8 L176.2,380.0 L177.6,377.3 L179.1,377.0 L180.5,377.0 L182.0,377.3 L183.4,389.8 L184.9,402.9 L186.3,418.5 L187.8,420.0 L189.2,420.0 L190.7,420.0 L192.1,420.0 L193.6,420.0 L195.0,420.0 L196.5,420.0 L197.9,420.0 L199.4,420.0 L200.8,420.0 L202.3,419.4 L203.7,409.0 L205.2,393.8 L206.6,385.5 L208.1,379.7 L209.5,384.6 L211.0,377.3 L212.4,383.1 L213.9,375.5 L215.3,375.8 L216.8,376.7 L218.2,380.6 L219.6,400.2 L221.1,418.5 L222.5,420.0 L224.0,420.0 L225.4,420.0 L226.9,420.0 L228.3,420.0 L229.8,420.0 L231.2,420.0 L232.7,420.0 L234.1,420.0 L235.6,420.0 L237.0,418.5 L238.5,397.1 L239.9,379.4 L241.4,376.1 L242.8,375.8 L244.3,375.8 L245.7,376.1 L247.2,375.5 L248.6,376.4 L250.1,377.3 L251.5,376.7 L253.0,386.1 L254.4,408.1 L255.9,418.5 L257.3,420.0 L258.8,420.0 L260.2,420.0 L261.7,420.0 L263.1,420.0 L264.6,420.0 L266.0,420.0 L267.4,420.0 L268.9,420.0 L270.3,420.0 L271.8,419.1 L273.2,399.6 L274.7,378.8 L276.1,376.4 L277.6,375.5 L279.0,375.8 L280.5,380.0 L281.9,377.6 L283.4,380.0 L284.8,379.4 L286.3,382.2 L287.7,385.2 L289.2,401.7 L290.6,419.1 L292.1,420.0 L293.5,420.0 L295.0,420.0 L296.4,420.0 L297.9,420.0 L299.3,420.0 L300.8,420.0 L302.2,420.0 L303.7,420.0 L305.1,420.0 L306.6,418.5 L308.0,402.0 L309.5,381.3 L310.9,377.9 L312.3,378.2 L313.8,376.1 L315.2,379.7 L316.7,376.4 L318.1,387.4 L319.6,382.2 L321.0,392.8 L322.5,398.0 L323.9,410.2 L325.4,419.4 L326.8,420.0 L328.3,420.0 L329.7,420.0 L331.2,420.0 L332.4,420.0 L333.8,420.0 L335.3,420.0 L336.7,420.0 L338.2,420.0 L339.6,420.0 L341.1,419.7 L342.5,412.7 L344.0,398.3 L345.4,406.3 L346.9,394.4 L348.3,395.3 L349.8,390.1 L351.2,393.8 L352.7,382.8 L354.1,379.4 L355.6,391.6 L357.0,413.0 L358.5,412.4 L359.9,419.7 L361.4,420.0 L362.8,420.0 L364.2,420.0 L365.7,420.0 L367.1,420.0 L368.6,420.0 L370.0,420.0 L371.5,420.0 L372.9,420.0 L374.4,420.0 L375.8,419.7 L377.3,416.0 L378.7,415.1 L380.2,414.2 L381.6,412.7 L383.1,409.3 L384.5,406.3 L386.0,411.2 L387.4,404.1 L388.9,400.5 L390.3,407.5 L391.8,411.8 L393.2,418.5 L394.7,420.0 L396.1,420.0 L397.6,420.0 L399.0,420.0 L400.5,420.0 L401.9,420.0 L403.4,420.0 L404.8,420.0 L406.3,420.0 L407.7,420.0 L409.1,420.0 L410.6,420.0 L412.0,417.9 L413.5,412.4 L414.9,411.5 L416.4,404.4 L417.8,402.3 L419.3,398.0 L420.7,397.1 L422.2,399.9 L423.6,402.3 L425.1,406.6 L426.5,403.2 L428.0,415.7 L429.4,419.4 L430.9,420.0 L432.3,420.0 L433.8,420.0 L435.2,420.0 L436.7,420.0 L438.1,420.0 L439.6,420.0 L441.0,420.0 L442.5,420.0 L443.9,420.0 L445.4,420.0 L446.8,413.6 L448.3,400.8 L449.7,393.2 L451.2,388.3 L452.6,385.2 L454.0,379.1 L455.5,395.0 L456.9,389.5 L458.4,399.9 L459.8,406.3 L461.3,381.9 L462.7,410.2 L464.2,419.1 L465.6,420.0 L467.1,420.0 L468.5,420.0 L470.0,420.0 L471.4,420.0 L472.9,420.0 L474.3,420.0 L475.8,420.0 L477.2,420.0 L478.7,420.0 L480.1,420.0 L481.6,412.7 L483.0,382.5 L484.5,377.6 L485.9,376.4 L487.4,376.7 L488.8,383.7 L490.3,376.1 L491.7,376.1 L493.2,380.9 L494.6,376.4 L496.1,394.7 L497.5,402.0 L498.9,419.1 L500.4,420.0 L501.8,420.0 L503.3,420.0 L504.7,420.0 L506.2,420.0 L507.6,420.0 L509.1,420.0 L510.5,420.0 L512.0,420.0 L513.4,420.0 L514.9,419.7 L516.3,407.5 L517.8,384.6 L519.2,377.9 L520.7,376.7 L522.1,377.3 L523.6,377.9 L525.0,377.9 L526.5,379.4 L527.9,376.4 L529.4,378.8 L530.8,384.3 L532.3,402.0 L533.7,419.1 L535.2,420.0 L536.6,420.0 L538.1,420.0 L539.5,420.0 L541.0,420.0 L542.4,420.0 L543.9,420.0 L545.3,420.0 L546.7,420.0 L548.2,420.0 L549.6,420.0 L551.1,407.5 L552.5,386.1 L554.0,377.6 L555.4,378.8 L556.9,377.3 L558.3,378.2 L559.8,380.3 L561.2,377.6 L562.7,378.8 L564.1,378.2 L565.6,383.1 L567.0,402.3 L568.5,419.1 L569.9,420.0 L571.4,420.0 L572.8,420.0 L574.3,420.0 L575.7,420.0 L577.2,420.0 L578.6,420.0 L580.1,420.0 L581.5,420.0 L583.0,420.0 L584.4,420.0 L585.9,408.1 L587.3,385.2 L588.8,378.8 L590.2,378.8 L591.6,379.1 L593.1,378.5 L594.5,387.7 L596.0,397.1 L597.4,393.2 L598.9,395.6 L600.3,396.2 L601.8,409.3 L603.2,419.4 L604.7,420.0 L606.1,420.0 L607.6,420.0 L609.0,420.0 L610.5,420.0 L611.9,420.0 L613.4,420.0 L614.8,420.0 L616.3,420.0 L617.7,420.0 L619.2,420.0 L620.6,410.2 L622.1,389.2 L623.5,381.3 L625.0,384.0 L626.4,378.5 L627.9,379.4 L629.3,384.9 L630.8,378.5 L632.2,379.1 L633.7,380.6 L635.1,387.1 L636.5,405.7 L638.0,419.4 L639.4,420.0 L640.9,420.0 L642.3,420.0 L643.8,420.0 L645.2,420.0 L646.7,420.0 L648.1,420.0 L649.6,420.0 L651.0,420.0 L652.5,420.0 L653.9,420.0 L655.4,415.4 L656.8,399.9 L658.3,393.5 L659.7,391.6 L661.2,394.7 L662.6,390.4 L664.1,387.4 L665.5,384.3 L667.0,395.0 L668.4,397.1 L669.9,398.9 L671.3,412.4 L672.8,419.7 L674.2,420.0 L675.7,420.0 L677.1,420.0 L678.6,420.0 L680.0,420.0" stroke="#d62728" stroke-width="2" fill="none" opacity="0.8"/>
<!-- Forecast -->
<path d="M80.0,100.6 L81.4,112.8 L82.9,125.3 L84.3,135.0 L85.8,152.4 L87.2,178.7 L111.0,74.9 L112.5,67.6 L113.9,72.2 L115.4,82.6 L116.8,97.8 L118.3,111.6 L119.7,122.5 L121.2,151.2 L122.6,187.8 L124.1,207.7 L125.5,219.2 L127.0,230.2 L128.4,234.8 L129.8,234.2 L131.3,227.5 L132.7,207.4 L134.2,180.5 L135.6,154.9 L137.1,136.6 L138.5,123.1 L140.0,109.7 L141.4,100.9 L142.9,92.6 L144.3,86.2 L145.8,78.6 L147.2,78.6 L148.7,83.2 L150.1,93.9 L151.6,107.3 L153.0,122.5 L154.5,140.2 L155.9,158.2 L157.4,235.7 L158.8,213.8 L160.3,244.6 L161.7,244.9 L163.2,242.4 L164.6,240.0 L166.1,239.1 L167.5,240.9 L169.0,207.4 L170.4,199.7 L171.9,187.8 L173.3,177.5 L174.7,147.2 L176.2,144.2 L177.6,145.1 L179.1,146.0 L180.5,149.1 L182.0,162.2 L183.4,173.2 L184.9,173.8 L186.3,173.8 L187.8,236.6 L189.2,240.3 L190.7,409.9 L192.1,223.2 L193.6,224.7 L195.0,237.3 L196.5,245.8 L197.9,248.8 L199.4,246.7 L200.8,236.3 L202.3,216.2 L203.7,192.4 L205.2,170.1 L206.6,159.8 L208.1,154.9 L209.5,148.8 L211.0,146.3 L212.4,140.2 L213.9,132.6 L215.3,123.1 L216.8,115.8 L218.2,121.6 L219.6,131.7 L221.1,181.1 L222.5,186.3 L224.0,192.7 L225.4,193.6 L226.9,218.6 L228.3,235.4 L229.8,238.8 L231.2,240.0 L232.7,241.5 L234.1,243.4 L235.6,245.8 L237.0,247.9 L238.5,242.1 L239.9,230.5 L241.4,216.2 L242.8,207.4 L244.3,204.9 L245.7,204.0 L247.2,202.8 L248.6,202.8 L250.1,202.2 L251.5,172.9 L253.0,169.5 L254.4,167.1 L255.9,170.7 L257.3,182.0 L258.8,184.2 L260.2,209.8 L261.7,219.2 L263.1,225.4 L264.6,218.0 L266.0,226.0 L267.4,233.9 L268.9,240.0 L270.3,251.0 L271.8,247.6 L273.2,235.4 L274.7,219.2 L276.1,203.1 L277.6,192.1 L279.0,184.5 L280.5,197.0 L281.9,194.8 L283.4,193.9 L284.8,163.4 L286.3,161.9 L287.7,159.5 L289.2,157.9 L290.6,170.4 L292.1,175.6 L293.5,177.5 L295.0,205.8 L296.4,228.7 L297.9,225.0 L299.3,236.0 L300.8,244.3 L302.2,248.2 L303.7,247.6 L305.1,237.6 L306.6,217.1 L308.0,192.7 L309.5,169.2 L310.9,156.7 L312.3,149.7 L313.8,141.8 L315.2,138.4 L316.7,129.9 L318.1,119.8 L319.6,142.1 L321.0,141.5 L322.5,139.3 L323.9,137.2 L325.4,144.2 L326.8,154.9 L328.3,120.7 L329.7,132.0 L331.2,194.8 L332.4,220.8 L333.8,235.4 L335.3,244.3 L336.7,249.5 L338.2,248.8 L339.6,240.0 L341.1,220.8 L342.5,196.1 L344.0,171.7 L345.4,156.1 L346.9,147.2 L348.3,138.7 L349.8,131.1 L351.2,121.9 L352.7,112.2 L354.1,100.9 L355.6,92.0 L357.0,94.8 L358.5,104.5 L359.9,118.6 L361.4,133.2 L362.8,142.1 L364.2,162.5 L365.7,170.7 L367.1,208.3 L368.6,228.1 L370.0,237.6 L371.5,243.4 L372.9,242.7 L374.4,234.8 L375.8,217.4 L377.3,194.8 L378.7,170.7 L380.2,156.1 L381.6,149.4 L383.1,142.7 L384.5,139.0 L386.0,132.9 L387.4,124.7 L388.9,118.0 L390.3,115.2 L391.8,119.8 L393.2,121.3 L394.7,127.4 L396.1,144.5 L397.6,150.3 L399.0,166.8 L400.5,198.8 L401.9,215.6 L403.4,226.9 L404.8,235.4 L406.3,240.3 L407.7,238.8 L409.1,230.5 L410.6,215.3 L412.0,193.3 L413.5,171.0 L414.9,159.1 L416.4,155.5 L417.8,151.2 L419.3,147.9 L420.7,146.6 L422.2,144.2 L423.6,139.9 L425.1,137.8 L426.5,142.1 L428.0,149.7 L429.4,157.6 L430.9,162.8 L432.3,163.7 L433.8,177.8 L435.2,205.5 L436.7,223.2 L438.1,234.2 L439.6,241.5 L441.0,244.9 L442.5,244.0 L443.9,234.2 L445.4,218.0 L446.8,195.1 L448.3,172.9 L449.7,161.9 L451.2,158.8 L452.6,154.9 L454.0,151.5 L455.5,151.2 L456.9,148.8 L458.4,143.9 L459.8,140.8 L461.3,144.8 L462.7,152.4 L464.2,160.1 L465.6,167.4 L467.1,167.4 L468.5,182.0 L470.0,209.5 L471.4,223.8 L472.9,234.2 L474.3,243.0 L475.8,247.9 L477.2,249.5 L478.7,247.0 L480.1,241.5 L481.6,228.4 L483.0,211.0 L484.5,198.5 L485.9,192.4 L487.4,187.8 L488.8,179.6 L490.3,174.7 L491.7,174.1 L493.2,165.9 L494.6,158.2 L496.1,159.1 L497.5,157.3 L498.9,165.9 L500.4,174.4 L501.8,173.5 L503.3,186.9 L504.7,206.1 L506.2,226.0 L507.6,238.2 L509.1,245.8 L510.5,250.7 L512.0,251.6 L513.4,250.4 L514.9,247.0 L516.3,236.0 L517.8,219.2 L519.2,200.0 L520.7,188.1 L522.1,178.1 L523.6,170.7 L525.0,162.8 L526.5,153.7 L527.9,143.0 L529.4,137.8 L530.8,127.1 L532.3,130.8 L533.7,140.5 L535.2,152.7 L536.6,159.8 L538.1,177.8 L539.5,203.4 L541.0,225.7 L542.4,239.1 L543.9,233.0 L545.3,248.5 L546.7,254.0 L548.2,252.5 L549.6,248.5 L551.1,239.1 L552.5,222.0 L554.0,202.2 L555.4,190.3 L556.9,179.9 L558.3,172.3 L559.8,161.9 L561.2,151.5 L562.7,140.8 L564.1,132.6 L565.6,125.6 L567.0,128.0 L568.5,136.6 L569.9,148.8 L571.4,157.6 L572.8,177.1 L574.3,155.8 L575.7,206.1 L577.2,232.4 L578.6,226.0 L580.1,242.7 L581.5,247.3 L583.0,239.4 L584.4,219.9 L585.9,197.3 L587.3,173.2 L588.8,157.9 L590.2,150.6 L591.6,142.4 L593.1,137.2 L594.5,130.2 L596.0,122.2 L597.4,120.7 L598.9,120.7 L600.3,121.0 L601.8,121.3 L603.2,121.3 L604.7,121.6 L606.1,121.9 L607.6,134.4 L609.0,198.5 L610.5,226.3 L611.9,240.6 L613.4,250.1 L614.8,254.9 L616.3,254.0 L617.7,244.9 L619.2,223.8 L620.6,200.6 L622.1,178.1 L623.5,165.6 L625.0,160.1 L626.4,154.0 L627.9,150.0 L629.3,145.4 L630.8,138.4 L632.2,128.6 L633.7,119.5 L635.1,121.6 L636.5,130.8 L638.0,146.0 L639.4,157.3 L640.9,163.7 L642.3,182.6 L643.8,212.5 L645.2,232.7 L646.7,236.0 L648.1,241.8 L649.6,247.3 L651.0,246.7 L652.5,238.2 L653.9,219.6 L655.4,197.0 L656.8,173.2 L658.3,159.5 L659.7,153.3 L661.2,147.9 L662.6,145.1 L664.1,141.5 L665.5,137.8 L667.0,131.4 L668.4,129.2 L669.9,134.7 L671.3,143.3 L672.8,155.5 L674.2,164.9 L675.7,169.8 L677.1,187.8 L678.6,223.8 L680.0,233.0" stroke="#9467bd" stroke-width="2" fill="none" opacity="0.8"/>
<!-- Total Generation -->
<path d="M80.0,211.3 L81.4,230.2 L82.9,243.4 L84.3,229.0 L85.8,246.4 L87.2,250.1 L111.0,235.1 L112.5,221.7 L113.9,226.6 L115.4,226.3 L116.8,241.8 L118.3,211.0 L119.7,212.5 L121.2,210.4 L122.6,216.2 L124.1,233.3 L125.5,240.0 L127.0,240.6 L128.4,250.7 L129.8,241.8 L131.3,236.6 L132.7,231.5 L134.2,235.1 L135.6,225.0 L137.1,228.4 L138.5,239.4 L140.0,231.1 L141.4,235.4 L142.9,226.0 L144.3,234.8 L145.8,229.6 L147.2,234.5 L148.7,207.0 L150.1,232.1 L151.6,249.8 L153.0,218.3 L154.5,246.1 L155.9,223.5 L157.4,225.0 L158.8,222.0 L160.3,234.2 L161.7,245.8 L163.2,227.2 L164.6,218.6 L166.1,215.9 L167.5,219.2 L169.0,229.3 L170.4,218.0 L171.9,208.6 L173.3,210.1 L174.7,204.9 L176.2,209.2 L177.6,208.3 L179.1,210.4 L180.5,207.4 L182.0,203.1 L183.4,206.4 L184.9,212.2 L186.3,218.0 L187.8,208.3 L189.2,211.6 L190.7,219.2 L192.1,215.9 L193.6,221.4 L195.0,230.2 L196.5,229.0 L197.9,210.4 L199.4,226.9 L200.8,241.2 L202.3,238.8 L203.7,225.7 L205.2,228.1 L206.6,225.4 L208.1,211.0 L209.5,209.5 L211.0,207.7 L212.4,208.6 L213.9,204.0 L215.3,204.6 L216.8,203.7 L218.2,198.8 L219.6,206.4 L221.1,221.7 L222.5,214.7 L224.0,220.8 L225.4,214.1 L226.9,215.0 L228.3,213.1 L229.8,230.5 L231.2,246.7 L232.7,252.5 L234.1,256.8 L235.6,261.0 L237.0,257.4 L238.5,247.9 L239.9,227.8 L241.4,228.1 L242.8,232.1 L244.3,214.1 L245.7,216.2 L247.2,214.7 L248.6,216.5 L250.1,216.5 L251.5,211.0 L253.0,196.4 L254.4,203.7 L255.9,207.7 L257.3,177.5 L258.8,172.3 L260.2,179.6 L261.7,168.0 L263.1,175.3 L264.6,205.2 L266.0,208.6 L267.4,217.4 L268.9,232.1 L270.3,237.6 L271.8,239.4 L273.2,225.4 L274.7,233.6 L276.1,233.6 L277.6,228.4 L279.0,222.3 L280.5,232.1 L281.9,202.2 L283.4,201.2 L284.8,201.2 L286.3,205.8 L287.7,205.5 L289.2,206.1 L290.6,208.6 L292.1,193.3 L293.5,171.0 L295.0,190.9 L296.4,207.0 L297.9,230.8 L299.3,229.3 L300.8,254.9 L302.2,259.8 L303.7,259.2 L305.1,231.8 L306.6,233.0 L308.0,217.4 L309.5,224.1 L310.9,206.7 L312.3,204.3 L313.8,200.0 L315.2,207.4 L316.7,202.5 L318.1,210.1 L319.6,204.9 L321.0,211.3 L322.5,209.8 L323.9,207.7 L325.4,196.1 L326.8,178.7 L328.3,169.5 L329.7,175.6 L331.2,189.7 L332.4,206.1 L333.8,229.3 L335.3,226.0 L336.7,233.3 L338.2,236.3 L339.6,237.9 L341.1,233.3 L342.5,225.4 L344.0,214.4 L345.4,219.6 L346.9,206.4 L348.3,212.5 L349.8,194.2 L351.2,209.2 L352.7,197.9 L354.1,195.5 L355.6,202.8 L357.0,214.1 L358.5,193.6 L359.9,196.1 L361.4,153.0 L362.8,147.2 L364.2,142.4 L365.7,154.0 L367.1,208.9 L368.6,221.1 L370.0,225.4 L371.5,236.9 L372.9,241.2 L374.4,247.6 L375.8,231.5 L377.3,241.2 L378.7,250.7 L380.2,244.0 L381.6,235.7 L383.1,222.6 L384.5,208.6 L386.0,214.1 L387.4,219.6 L388.9,195.8 L390.3,191.2 L391.8,202.5 L393.2,219.9 L394.7,218.6 L396.1,231.1 L397.6,225.7 L399.0,228.1 L400.5,226.0 L401.9,234.8 L403.4,254.6 L404.8,255.3 L406.3,245.5 L407.7,262.0 L409.1,259.2 L410.6,244.3 L412.0,244.9 L413.5,244.9 L414.9,255.6 L416.4,250.1 L417.8,242.4 L419.3,238.8 L420.7,240.0 L422.2,243.4 L423.6,216.5 L425.1,215.3 L426.5,187.8 L428.0,199.4 L429.4,217.4 L430.9,236.6 L432.3,235.4 L433.8,236.0 L435.2,236.3 L436.7,227.2 L438.1,217.1 L439.6,241.2 L441.0,244.6 L442.5,251.0 L443.9,251.0 L445.4,244.6 L446.8,240.0 L448.3,235.4 L449.7,225.0 L451.2,222.3 L452.6,216.8 L454.0,207.0 L455.5,233.6 L456.9,223.8 L458.4,190.6 L459.8,214.4 L461.3,201.2 L462.7,204.3 L464.2,225.4 L465.6,230.2 L467.1,246.1 L468.5,245.8 L470.0,247.9 L471.4,250.4 L472.9,264.1 L474.3,262.3 L475.8,246.1 L477.2,247.6 L478.7,247.0 L480.1,247.9 L481.6,245.8 L483.0,226.9 L484.5,222.0 L485.9,216.2 L487.4,210.7 L488.8,219.9 L490.3,203.1 L491.7,205.8 L493.2,217.7 L494.6,218.6 L496.1,204.9 L497.5,220.2 L498.9,237.6 L500.4,229.6 L501.8,230.2 L503.3,250.7 L504.7,252.2 L506.2,247.6 L507.6,261.0 L509.1,254.6 L510.5,246.7 L512.0,244.9 L513.4,238.8 L514.9,243.0 L516.3,231.8 L517.8,216.8 L519.2,214.4 L520.7,215.6 L522.1,214.7 L523.6,208.9 L525.0,204.6 L526.5,208.9 L527.9,190.6 L529.4,184.5 L530.8,190.0 L532.3,213.5 L533.7,229.9 L535.2,242.7 L536.6,226.0 L538.1,229.9 L539.5,242.7 L541.0,244.0 L542.4,261.0 L543.9,260.4 L545.3,260.7 L546.7,260.1 L548.2,259.2 L549.6,258.0 L551.1,246.7 L552.5,228.4 L554.0,223.2 L555.4,225.4 L556.9,219.6 L558.3,219.9 L559.8,219.2 L561.2,202.5 L562.7,187.5 L564.1,174.1 L565.6,184.5 L567.0,200.0 L568.5,186.6 L569.9,185.7 L571.4,179.3 L572.8,183.9 L574.3,207.0 L575.7,212.5 L577.2,217.7 L578.6,226.6 L580.1,227.2 L581.5,233.0 L583.0,226.0 L584.4,228.4 L585.9,213.8 L587.3,190.9 L588.8,190.0 L590.2,189.7 L591.6,186.6 L593.1,186.9 L594.5,219.2 L596.0,240.9 L597.4,226.3 L598.9,234.5 L600.3,228.7 L601.8,239.4 L603.2,244.6 L604.7,238.8 L606.1,245.5 L607.6,243.7 L609.0,248.8 L610.5,261.0 L611.9,263.8 L613.4,272.0 L614.8,273.3 L616.3,277.5 L617.7,274.8 L619.2,275.7 L620.6,269.9 L622.1,248.5 L623.5,238.8 L625.0,241.5 L626.4,237.3 L627.9,224.4 L629.3,218.6 L630.8,207.0 L632.2,188.7 L633.7,180.2 L635.1,198.8 L636.5,209.8 L638.0,221.7 L639.4,247.9 L640.9,264.1 L642.3,263.2 L643.8,252.2 L645.2,252.5 L646.7,246.7 L648.1,228.1 L649.6,222.0 L651.0,208.0 L652.5,179.3 L653.9,173.5 L655.4,174.4 L656.8,174.4 L658.3,166.5 L659.7,171.0 L661.2,178.4 L662.6,175.9 L664.1,175.3 L665.5,150.0 L667.0,155.5 L668.4,155.2 L669.9,174.1 L671.3,188.1 L672.8,222.9 L674.2,230.8 L675.7,241.2 L677.1,251.9 L678.6,262.3 L680.0,259.8" stroke="#8c564b" stroke-width="2" fill="none" opacity="0.8"/>
<!-- Forecast Difference -->
<path d="M81.4,420.0 L82.9,420.0 L84.3,420.0 L85.8,420.0 L87.2,420.0 L112.5,420.0 L113.9,420.0 L115.4,420.0 L116.8,420.0 L118.3,420.0 L119.7,420.0 L121.2,420.0 L122.6,420.0 L124.1,420.0 L125.5,420.0 L127.0,420.0 L128.4,420.0 L129.8,420.0 L131.3,420.0 L132.7,420.0 L134.2,420.0 L135.6,420.0 L137.1,420.0 L138.5,420.0 L140.0,420.0 L141.4,420.0 L142.9,420.0 L144.3,420.0 L145.8,420.0 L147.2,420.0 L148.7,420.0 L150.1,420.0 L151.6,420.0 L153.0,420.0 L154.5,420.0 L155.9,420.0 L157.4,420.0 L158.8,420.0 L160.3,420.0 L161.7,420.0 L163.2,420.0 L164.6,420.0 L166.1,420.0 L167.5,420.0 L169.0,420.0 L170.4,420.0 L171.9,420.0 L173.3,420.0 L174.7,420.0 L176.2,420.0 L177.6,420.0 L179.1,420.0 L180.5,420.0 L182.0,420.0 L183.4,420.0 L184.9,420.0 L186.3,420.0 L187.8,420.0 L189.2,420.0 L190.7,420.0 L192.1,420.0 L193.6,420.0 L195.0,420.0 L196.5,420.0 L197.9,420.0 L199.4,420.0 L200.8,420.0 L202.3,420.0 L203.7,420.0 L205.2,420.0 L206.6,420.0 L208.1,420.0 L209.5,420.0 L211.0,420.0 L212.4,420.0 L213.9,420.0 L215.3,420.0 L216.8,420.0 L218.2,420.0 L219.6,420.0 L221.1,420.0 L222.5,420.0 L224.0,420.0 L225.4,420.0 L226.9,420.0 L228.3,420.0 L229.8,420.0 L231.2,420.0 L232.7,420.0 L234.1,420.0 L235.6,420.0 L237.0,420.0 L238.5,420.0 L239.9,420.0 L241.4,420.0 L242.8,420.0 L244.3,420.0 L245.7,420.0 L247.2,420.0 L248.6,420.0 L250.1,420.0 L251.5,420.0 L253.0,420.0 L254.4,420.0 L255.9,420.0 L257.3,420.0 L258.8,420.0 L260.2,420.0 L261.7,420.0 L263.1,420.0 L264.6,420.0 L266.0,420.0 L267.4,420.0 L268.9,420.0 L270.3,420.0 L271.8,420.0 L273.2,420.0 L274.7,420.0 L276.1,420.0 L277.6,420.0 L279.0,420.0 L280.5,420.0 L281.9,420.0 L283.4,420.0 L284.8,420.0 L286.3,420.0 L287.7,420.0 L289.2,420.0 L290.6,420.0 L292.1,420.0 L293.5,420.0 L295.0,420.0 L296.4,420.0 L297.9,420.0 L299.3,420.0 L300.8,420.0 L302.2,420.0 L303.7,420.0 L305.1,420.0 L306.6,420.0 L308.0,420.0 L309.5,420.0 L310.9,420.0 L312.3,420.0 L313.8,420.0 L315.2,420.0 L316.7,420.0 L318.1,420.0 L319.6,420.0 L321.0,420.0 L322.5,420.0 L323.9,420.0 L325.4,420.0 L326.8,420.0 L328.3,420.0 L329.7,420.0 L331.2,420.0 L332.4,420.0 L333.8,420.0 L335.3,420.0 L336.7,420.0 L338.2,420.0 L339.6,420.0 L341.1,420.0 L342.5,420.0 L344.0,420.0 L345.4,420.0 L346.9,420.0 L348.3,420.0 L349.8,420.0 L351.2,420.0 L352.7,420.0 L354.1,420.0 L355.6,420.0 L357.0,420.0 L358.5,420.0 L359.9,420.0 L361.4,420.0 L362.8,420.0 L364.2,420.0 L365.7,420.0 L367.1,420.0 L368.6,420.0 L370.0,420.0 L371.5,420.0 L372.9,420.0 L374.4,420.0 L375.8,420.0 L377.3,420.0 L378.7,420.0 L380.2,420.0 L381.6,420.0 L383.1,420.0 L384.5,420.0 L386.0,420.0 L387.4,420.0 L388.9,420.0 L390.3,420.0 L391.8,420.0 L393.2,420.0 L394.7,420.0 L396.1,420.0 L397.6,420.0 L399.0,420.0 L400.5,420.0 L401.9,420.0 L403.4,420.0 L404.8,420.0 L406.3,420.0 L407.7,420.0 L409.1,420.0 L410.6,420.0 L412.0,420.0 L413.5,420.0 L414.9,420.0 L416.4,420.0 L417.8,420.0 L419.3,420.0 L420.7,420.0 L422.2,420.0 L423.6,420.0 L425.1,420.0 L426.5,420.0 L428.0,420.0 L429.4,420.0 L430.9,420.0 L432.3,420.0 L433.8,420.0 L435.2,420.0 L436.7,420.0 L438.1,420.0 L439.6,420.0 L441.0,420.0 L442.5,420.0 L443.9,420.0 L445.4,420.0 L446.8,420.0 L448.3,420.0 L449.7,420.0 L451.2,420.0 L452.6,420.0 L454.0,420.0 L455.5,420.0 L456.9,420.0 L458.4,420.0 L459.8,420.0 L461.3,420.0 L462.7,420.0 L464.2,420.0 L465.6,420.0 L467.1,420.0 L468.5,420.0 L470.0,420.0 L471.4,420.0 L472.9,420.0 L474.3,420.0 L475.8,420.0 L477.2,420.0 L478.7,420.0 L480.1,420.0 L481.6,420.0 L483.0,420.0 L484.5,420.0 L485.9,420.0 L487.4,420.0 L488.8,420.0 L490.3,420.0 L491.7,420.0 L493.2,420.0 L494.6,420.0 L496.1,420.0 L497.5,420.0 L498.9,420.0 L500.4,420.0 L501.8,420.0 L503.3,420.0 L504.7,420.0 L506.2,420.0 L507.6,420.0 L509.1,420.0 L510.5,420.0 L512.0,420.0 L513.4,420.0 L514.9,420.0 L516.3,420.0 L517.8,420.0 L519.2,420.0 L520.7,420.0 L522.1,420.0 L523.6,420.0 L525.0,420.0 L526.5,420.0 L527.9,420.0 L529.4,420.0 L530.8,420.0 L532.3,420.0 L533.7,420.0 L535.2,420.0 L536.6,420.0 L538.1,420.0 L539.5,420.0 L541.0,420.0 L542.4,420.0 L543.9,420.0 L545.3,420.0 L546.7,420.0 L548.2,420.0 L549.6,420.0 L551.1,420.0 L552.5,420.0 L554.0,420.0 L555.4,420.0 L556.9,420.0 L558.3,420.0 L559.8,420.0 L561.2,420.0 L562.7,420.0 L564.1,420.0 L565.6,420.0 L567.0,420.0 L568.5,420.0 L569.9,420.0 L571.4,420.0 L572.8,420.0 L574.3,420.0 L575.7,420.0 L577.2,420.0 L578.6,420.0 L580.1,420.0 L581.5,420.0 L583.0,420.0 L584.4,420.0 L585.9,420.0 L587.3,420.0 L588.8,420.0 L590.2,420.0 L591.6,420.0 L593.1,420.0 L594.5,420.0 L596.0,420.0 L597.4,420.0 L598.9,420.0 L600.3,420.0 L601.8,420.0 L603.2,420.0 L604.7,420.0 L606.1,420.0 L607.6,420.0 L609.0,420.0 L610.5,420.0 L611.9,420.0 L613.4,420.0 L614.8,420.0 L616.3,420.0 L617.7,420.0 L619.2,420.0 L620.6,420.0 L622.1,420.0 L623.5,420.0 L625.0,420.0 L626.4,420.0 L627.9,420.0 L629.3,420.0 L630.8,420.0 L632.2,420.0 L633.7,420.0 L635.1,420.0 L636.5,420.0 L638.0,420.0 L639.4,420.0 L640.9,420.0 L642.3,420.0 L643.8,420.0 L645.2,420.0 L646.7,420.0 L648.1,420.0 L649.6,420.0 L651.0,420.0 L652.5,420.0 L653.9,420.0 L655.4,420.0 L656.8,420.0 L658.3,420.0 L659.7,420.0 L661.2,420.0 L662.6,420.0 L664.1,420.0 L665.5,420.0 L667.0,420.0 L668.4,420.0 L669.9,420.0 L671.3,420.0 L672.8,420.0 L674.2,420.0 L675.7,420.0 L677.1,420.0 L678.6,420.0 L680.0,420.0" stroke="#e377c2" stroke-width="2" fill="none" opacity="0.8"/>

<!-- Legend -->
<line x1="690" y1="70" x2="705" y2="70" stroke="#1f77b4" stroke-width="3"/>
<text x="710" y="74" class="legend">Wind Generation</text>
<line x1="690" y1="88" x2="705" y2="88" stroke="#ff7f0e" stroke-width="3"/>
<text x="710" y="92" class="legend">Hydro Generation</text>
<line x1="690" y1="106" x2="705" y2="106" stroke="#2ca02c" stroke-width="3"/>
<text x="710" y="110" class="legend">Thermal Generation</text>
<line x1="690" y1="124" x2="705" y2="124" stroke="#d62728" stroke-width="3"/>
<text x="710" y="128" class="legend">Solar Generation</text>
<line x1="690" y1="142" x2="705" y2="142" stroke="#9467bd" stroke-width="3"/>
<text x="710" y="146" class="legend">Forecast</text>
<line x1="690" y1="160" x2="705" y2="160" stroke="#8c564b" stroke-width="3"/>
<text x="710" y="164" class="legend">Total Generation</text>
<line x1="690" y1="178" x2="705" y2="178" stroke="#e377c2" stroke-width="3"/>
<text x="710" y="182" class="legend">Forecast Difference</text>

<!-- Date range -->
<text x="80" y="495" class="legend">Range: 08/18 - 09/05/2025 (400 records)</text>
</svg>