<?xml version="1.0" encoding="UTF-8"?>
<svg width="800" height="500" xmlns="http://www.w3.org/2000/svg">
<style>
.axis-line { stroke: #333; stroke-width: 1; }
.grid-line { stroke: #ddd; stroke-width: 0.5; }
.title { font: 16px Arial; text-anchor: middle; fill: #333; }
.axis-label { font: 12px Arial; text-anchor: middle; fill: #666; }
.legend { font: 10px Arial; fill: #333; }
</style>

<!-- Title -->
<text x="400.0" y="25" class="title">Northwestern Energy Generation Data - Past 30 Days</text>

<!-- Plot area background -->
<rect x="80" y="50" width="600" height="370" fill="white" stroke="#ddd"/>

<!-- Y-axis -->
<line x1="80" y1="50" x2="80" y2="420" class="axis-line"/>
<text x="30" y="235.0" class="axis-label" transform="rotate(-90, 30, 235.0)">Generation (MW)</text>

<!-- X-axis -->
<line x1="80" y1="420" x2="680" y2="420" class="axis-line"/>
<text x="380.0" y="480" class="axis-label">Time</text>
<line x1="80" y1="420.0" x2="680" y2="420.0" class="grid-line"/>
<text x="70" y="425.0" class="legend" text-anchor="end">0</text>
<line x1="80" y1="327.5" x2="680" y2="327.5" class="grid-line"/>
<text x="70" y="332.5" class="legend" text-anchor="end">313</text>
<line x1="80" y1="235.0" x2="680" y2="235.0" class="grid-line"/>
<text x="70" y="240.0" class="legend" text-anchor="end">625</text>
<line x1="80" y1="142.5" x2="680" y2="142.5" class="grid-line"/>
<text x="70" y="147.5" class="legend" text-anchor="end">938</text>
<line x1="80" y1="50.0" x2="680" y2="50.0" class="grid-line"/>
<text x="70" y="55.0" class="legend" text-anchor="end">1251</text>
<!-- Wind Generation -->
<path d="M80.0,391.0 L80.8,404.6 L81.7,414.1 L82.5,417.0 L83.4,418.5 L84.2,416.4 L85.1,418.2 L85.9,417.9 L86.7,417.6 L87.6,416.4 L88.4,416.2 L89.3,408.2 L90.1,404.6 L91.0,400.5 L91.8,390.1 L92.6,391.6 L93.5,391.9 L94.3,403.7 L95.2,397.5 L96.0,397.2 L96.9,391.6 L97.7,383.9 L98.5,377.7 L99.4,385.1 L100.2,390.1 L101.1,388.6 L101.9,363.8 L102.8,350.2 L103.6,336.0 L104.4,315.9 L105.3,317.6 L106.1,310.5 L107.0,304.6 L107.8,301.9 L108.7,302.2 L109.5,308.5 L110.3,318.5 L111.2,312.9 L112.0,317.6 L112.9,306.7 L113.7,307.3 L114.6,323.8 L115.4,324.1 L116.2,301.9 L117.1,311.4 L117.9,318.5 L118.8,330.1 L119.6,341.9 L120.4,342.2 L121.3,340.4 L122.1,324.7 L123.0,331.5 L123.8,310.2 L124.7,304.0 L125.5,310.8 L126.3,302.8 L127.2,308.5 L128.0,303.1 L128.9,299.3 L129.7,303.7 L130.6,302.2 L131.4,314.7 L132.2,304.0 L133.1,307.9 L133.9,300.2 L134.8,299.9 L135.6,299.0 L136.5,298.7 L137.3,298.1 L138.1,300.2 L139.0,299.9 L139.8,307.6 L140.7,326.5 L141.5,327.4 L142.4,341.9 L143.2,374.7 L144.0,379.8 L144.9,389.2 L145.7,392.8 L146.6,400.2 L147.4,411.7 L148.3,412.0 L149.1,414.7 L149.9,412.9 L150.8,415.3 L151.6,411.1 L152.5,408.5 L153.3,407.0 L154.2,397.5 L155.0,391.6 L155.8,383.0 L156.7,367.6 L157.5,351.9 L158.4,349.6 L159.2,362.6 L160.1,395.4 L160.9,411.1 L161.7,414.4 L162.6,417.9 L163.4,417.9 L164.3,409.6 L165.1,409.3 L166.0,399.6 L166.8,350.2 L167.6,346.6 L168.5,341.6 L169.3,340.4 L170.2,340.1 L171.0,328.3 L171.9,357.6 L172.7,385.4 L173.5,366.7 L174.4,373.8 L175.2,372.4 L176.1,378.3 L176.9,371.8 L177.8,369.7 L178.6,370.3 L179.4,351.9 L180.3,359.3 L181.1,351.1 L182.0,349.0 L182.8,337.5 L183.7,357.0 L184.5,354.6 L185.3,365.3 L186.2,358.2 L187.0,368.5 L187.9,339.5 L188.7,350.2 L189.6,328.0 L190.4,329.8 L191.2,335.4 L192.1,321.2 L192.9,318.5 L193.8,316.1 L194.6,360.2 L195.4,344.6 L196.3,348.7 L197.1,353.4 L198.0,360.2 L198.8,365.3 L199.7,366.2 L200.5,343.7 L201.3,356.4 L202.2,350.8 L203.0,333.3 L203.9,324.7 L204.7,334.8 L205.6,330.4 L206.4,312.0 L207.2,311.1 L208.1,311.7 L208.9,314.1 L209.8,319.1 L210.6,320.6 L211.5,352.5 L212.3,358.8 L213.1,335.7 L214.0,346.6 L214.8,337.7 L215.7,334.5 L216.5,309.9 L217.4,300.8 L218.2,301.1 L219.0,299.6 L219.9,301.7 L220.7,301.7 L221.6,325.3 L222.4,362.9 L223.3,385.4 L224.1,398.7 L224.9,410.2 L225.8,404.0 L226.6,407.3 L227.5,413.5 L228.3,415.6 L229.2,416.4 L230.0,417.6 L230.8,415.0 L231.7,412.9 L232.5,411.1 L233.4,407.9 L234.2,410.2 L235.1,415.0 L235.9,418.2 L236.7,416.2 L237.6,419.1 L238.4,418.2 L239.3,418.5 L240.1,415.0 L241.0,415.6 L241.8,415.3 L242.6,409.3 L243.5,412.3 L244.3,415.6 L245.2,415.0 L246.0,417.3 L246.9,416.7 L247.7,417.3 L248.5,417.9 L249.4,418.8 L250.2,415.6 L251.1,414.1 L251.9,414.1 L252.8,410.8 L253.6,408.2 L254.4,407.3 L255.3,406.7 L256.1,406.4 L257.0,403.1 L257.8,400.2 L258.7,390.1 L259.5,385.4 L260.3,372.4 L261.2,372.4 L262.0,373.8 L262.9,386.3 L263.7,393.4 L264.6,392.2 L265.4,388.6 L266.2,388.6 L267.1,376.5 L267.9,367.3 L268.8,387.2 L269.6,371.5 L270.4,383.6 L271.3,386.6 L272.1,399.3 L273.0,395.1 L273.8,393.1 L274.7,389.5 L275.5,407.3 L276.3,404.9 L277.2,392.2 L278.0,387.5 L278.9,379.2 L279.7,378.3 L280.6,375.6 L281.4,380.9 L282.2,383.9 L283.1,397.2 L283.9,403.4 L284.8,403.7 L285.6,388.3 L286.5,385.1 L287.3,382.1 L288.1,387.5 L289.0,381.5 L289.8,386.3 L290.7,377.4 L291.5,358.5 L292.4,348.7 L293.2,352.5 L294.0,341.6 L294.9,351.4 L295.7,348.7 L296.6,348.7 L297.4,352.2 L298.3,359.6 L299.1,373.5 L299.9,383.9 L300.8,391.6 L301.6,399.9 L302.5,400.2 L303.3,394.0 L304.2,408.2 L305.0,407.9 L305.8,404.0 L306.7,408.5 L307.5,411.1 L308.4,414.4 L309.2,416.7 L310.1,415.9 L310.9,414.7 L311.7,418.5 L312.6,419.1 L313.4,417.6 L314.3,415.9 L315.1,415.3 L316.0,415.3 L316.8,417.0 L317.6,415.0 L318.5,413.8 L319.3,409.9 L320.2,408.8 L321.0,407.3 L321.9,403.1 L322.7,394.6 L323.5,405.2 L324.4,400.5 L325.2,398.4 L326.1,396.6 L326.9,382.7 L327.8,368.5 L328.6,342.8 L329.4,312.0 L330.3,304.6 L331.1,301.9 L332.0,297.2 L332.8,299.0 L333.7,303.7 L334.5,300.5 L335.3,293.4 L336.2,295.1 L337.0,292.5 L337.9,289.5 L338.7,290.4 L339.6,290.4 L340.4,291.3 L341.2,290.7 L342.1,294.8 L342.9,296.3 L343.8,298.1 L344.6,302.5 L345.4,305.5 L346.3,307.6 L347.1,297.2 L348.0,296.3 L348.8,310.2 L349.7,312.6 L350.5,318.8 L351.3,328.6 L352.2,323.5 L353.0,322.4 L353.9,338.6 L354.7,319.7 L355.6,309.0 L356.4,313.5 L357.2,309.0 L358.1,297.8 L358.9,300.5 L359.8,301.7 L360.6,322.4 L361.5,333.0 L362.3,339.8 L363.1,309.6 L364.0,332.4 L364.8,350.2 L365.7,324.7 L366.5,309.9 L367.4,303.1 L368.2,308.5 L369.0,327.1 L369.9,307.6 L370.7,340.4 L371.6,328.0 L372.4,320.9 L373.3,327.1 L374.1,319.1 L374.9,314.1 L375.8,300.5 L376.6,300.8 L377.5,316.7 L378.3,328.0 L379.2,332.7 L380.0,340.7 L380.8,337.5 L381.7,343.7 L382.5,326.5 L383.4,349.0 L384.2,352.8 L385.1,362.6 L385.9,379.2 L386.7,386.6 L387.6,391.6 L388.4,395.7 L389.3,402.8 L390.1,410.5 L391.0,413.8 L391.8,405.8 L392.6,387.2 L393.5,407.9 L394.3,414.7 L395.2,415.0 L396.0,405.8 L396.9,387.2 L397.7,379.5 L398.5,386.6 L399.4,354.0 L400.2,329.5 L401.1,301.7 L401.9,301.4 L402.8,294.6 L403.6,294.6 L404.4,302.8 L405.3,301.4 L406.1,307.9 L407.0,317.9 L407.8,321.8 L408.7,330.1 L409.5,361.7 L410.3,378.3 L411.2,377.4 L412.0,390.4 L412.9,397.2 L413.7,405.2 L414.6,411.1 L415.4,410.8 L416.2,407.9 L417.1,409.1 L417.9,405.5 L418.8,397.2 L419.6,399.0 L420.4,383.9 L421.3,386.9 L422.1,375.6 L423.0,380.6 L423.8,370.0 L424.7,407.3 L425.5,415.0 L426.3,416.4 L427.2,414.4 L428.0,414.1 L428.9,406.4 L429.7,397.5 L430.6,391.6 L431.4,362.6 L432.2,364.4 L433.1,359.9 L433.9,364.4 L434.8,353.7 L435.6,346.0 L436.5,341.9 L437.3,343.7 L438.1,359.6 L439.0,344.3 L439.8,335.7 L440.7,317.3 L441.5,321.2 L442.4,349.9 L443.2,375.9 L444.0,384.5 L444.9,399.3 L445.7,400.8 L446.6,397.5 L447.4,384.8 L448.3,400.2 L449.1,399.6 L449.9,404.6 L450.8,411.1 L451.6,418.5 L452.5,418.5 L453.3,415.6 L454.2,418.2 L455.0,418.5 L455.8,418.2 L456.7,414.1 L457.5,408.8 L458.4,404.9 L459.2,407.0 L460.1,401.1 L460.9,400.2 L461.7,396.6 L462.6,390.4 L463.4,387.2 L464.3,390.7 L465.1,397.2 L466.0,402.0 L466.8,410.2 L467.6,416.2 L468.5,420.0 L469.3,419.7 L470.2,415.0 L471.0,407.0 L471.9,390.7 L472.7,380.6 L473.5,378.0 L474.4,341.9 L475.2,345.1 L476.1,350.8 L476.9,340.7 L477.8,340.1 L478.6,337.7 L479.4,333.9 L480.3,322.7 L481.1,307.6 L482.0,306.1 L482.8,300.2 L483.7,305.5 L484.5,304.9 L485.3,304.9 L486.2,313.2 L487.0,315.6 L487.9,316.4 L488.7,325.6 L489.6,331.5 L490.4,352.2 L491.2,329.8 L492.1,362.6 L492.9,359.1 L493.8,372.4 L494.6,378.9 L495.4,376.8 L496.3,378.0 L497.1,375.6 L498.0,377.1 L498.8,385.7 L499.7,392.2 L500.5,395.1 L501.3,396.3 L502.2,399.0 L503.0,405.5 L503.9,403.4 L504.7,410.8 L505.6,414.7 L506.4,415.9 L507.2,416.7 L508.1,419.4 L508.9,418.2 L509.8,417.9 L510.6,417.9 L511.5,417.9 L512.3,415.0 L513.1,413.5 L514.0,415.3 L514.8,417.0 L515.7,419.7 L516.5,420.0 L517.4,420.0 L518.2,419.4 L519.0,419.1 L519.9,417.3 L520.7,413.8 L521.6,413.2 L522.4,411.7 L523.3,398.7 L524.1,392.5 L524.9,383.0 L525.8,375.9 L526.6,362.0 L527.5,364.1 L528.3,353.7 L529.2,348.1 L530.0,342.8 L530.8,325.3 L531.7,321.8 L532.5,316.4 L533.4,317.6 L534.2,317.9 L535.1,312.0 L535.9,308.8 L536.7,309.3 L537.6,306.1 L538.4,309.0 L539.3,304.0 L540.1,307.0 L541.0,305.5 L541.8,301.7 L542.6,303.1 L543.5,309.3 L544.3,314.7 L545.2,310.8 L546.0,309.6 L546.9,310.8 L547.7,316.4 L548.5,304.9 L549.4,325.3 L550.2,325.0 L551.1,317.6 L551.9,302.8 L552.8,302.2 L553.6,316.4 L554.4,318.2 L555.3,309.9 L556.1,304.6 L557.0,314.4 L557.8,309.6 L558.7,336.3 L559.5,364.7 L560.3,379.2 L561.2,368.2 L562.0,371.2 L562.9,383.0 L563.7,362.9 L564.6,365.0 L565.4,350.5 L566.2,330.4 L567.1,340.7 L567.9,365.9 L568.8,345.1 L569.6,351.9 L570.4,360.2 L571.3,347.5 L572.1,355.8 L573.0,367.9 L573.8,371.2 L574.7,369.7 L575.5,387.5 L576.3,402.0 L577.2,402.0 L578.0,405.5 L578.9,411.1 L579.7,403.4 L580.6,399.0 L581.4,387.2 L582.2,361.4 L583.1,350.8 L583.9,345.4 L584.8,351.4 L585.6,353.4 L586.5,348.4 L587.3,345.1 L588.1,345.7 L589.0,343.7 L589.8,340.1 L590.7,334.5 L591.5,346.9 L592.4,338.3 L593.2,342.2 L594.0,346.9 L594.9,332.7 L595.7,334.5 L596.6,332.4 L597.4,331.2 L598.3,329.2 L599.1,336.6 L599.9,336.9 L600.8,337.5 L601.6,332.4 L602.5,341.0 L603.3,337.2 L604.2,337.2 L605.0,335.1 L605.8,336.6 L606.7,336.0 L607.5,311.1 L608.4,324.7 L609.2,326.8 L610.1,323.8 L610.9,334.2 L611.7,348.7 L612.6,352.8 L613.4,356.4 L614.3,341.9 L615.1,351.1 L616.0,373.8 L616.8,387.2 L617.6,384.8 L618.5,400.5 L619.3,402.8 L620.2,401.1 L621.0,382.7 L621.9,361.1 L622.7,351.1 L623.5,339.2 L624.4,335.1 L625.2,334.8 L626.1,361.1 L626.9,388.0 L627.8,372.1 L628.6,372.1 L629.4,415.3 L630.3,411.4 L631.1,410.5 L632.0,399.9 L632.8,382.1 L633.7,346.3 L634.5,333.9 L635.3,328.9 L636.2,347.2 L637.0,362.0 L637.9,361.4 L638.7,365.9 L639.6,368.2 L640.4,363.5 L641.2,363.8 L642.1,354.0 L642.9,347.5 L643.8,365.0 L644.6,380.1 L645.4,405.8 L646.3,383.3 L647.1,380.6 L648.0,360.5 L648.8,338.9 L649.7,312.9 L650.5,295.4 L651.3,289.8 L652.2,300.8 L653.0,290.4 L653.9,292.5 L654.7,294.3 L655.6,294.6 L656.4,293.7 L657.2,293.4 L658.1,294.0 L658.9,294.0 L659.8,306.1 L660.6,296.6 L661.5,294.3 L662.3,323.8 L663.1,326.8 L664.0,290.4 L664.8,289.5 L665.7,304.0 L666.5,313.2 L667.4,316.4 L668.2,326.5 L669.0,312.0 L669.9,302.2 L670.7,301.9 L671.6,320.3 L672.4,293.1 L673.3,303.1 L674.1,307.3 L674.9,304.3 L675.8,304.6 L676.6,303.4 L677.5,304.6 L678.3,311.4 L679.2,316.1 L680.0,315.0" stroke="#1f77b4" stroke-width="2" fill="none" opacity="0.8"/>
<!-- Hydro Generation -->
<path d="M80.0,360.5 L80.8,360.5 L81.7,361.1 L82.5,361.1 L83.4,361.1 L84.2,361.4 L85.1,361.4 L85.9,360.8 L86.7,360.8 L87.6,361.1 L88.4,361.4 L89.3,362.0 L90.1,362.0 L91.0,361.4 L91.8,361.4 L92.6,362.0 L93.5,362.0 L94.3,361.1 L95.2,361.4 L96.0,361.4 L96.9,361.1 L97.7,361.4 L98.5,361.4 L99.4,360.5 L100.2,360.8 L101.1,360.5 L101.9,361.1 L102.8,360.5 L103.6,360.2 L104.4,360.5 L105.3,361.1 L106.1,360.8 L107.0,360.5 L107.8,360.8 L108.7,360.8 L109.5,360.5 L110.3,360.5 L111.2,360.5 L112.0,360.5 L112.9,360.8 L113.7,361.1 L114.6,361.4 L115.4,361.4 L116.2,361.1 L117.1,360.8 L117.9,360.8 L118.8,360.8 L119.6,361.1 L120.4,360.8 L121.3,360.5 L122.1,360.2 L123.0,360.2 L123.8,359.6 L124.7,359.3 L125.5,359.6 L126.3,359.6 L127.2,359.3 L128.0,359.3 L128.9,358.8 L129.7,358.8 L130.6,358.8 L131.4,358.8 L132.2,358.5 L133.1,359.3 L133.9,358.5 L134.8,358.5 L135.6,357.6 L136.5,357.9 L137.3,357.6 L138.1,357.9 L139.0,357.6 L139.8,357.6 L140.7,358.5 L141.5,358.5 L142.4,358.8 L143.2,359.3 L144.0,359.6 L144.9,359.9 L145.7,359.6 L146.6,359.6 L147.4,359.6 L148.3,360.8 L149.1,360.8 L149.9,360.8 L150.8,359.6 L151.6,359.6 L152.5,359.9 L153.3,359.6 L154.2,359.9 L155.0,360.8 L155.8,359.9 L156.7,359.9 L157.5,359.6 L158.4,359.1 L159.2,359.1 L160.1,359.1 L160.9,359.6 L161.7,359.3 L162.6,359.3 L163.4,359.3 L164.3,359.1 L165.1,359.3 L166.0,359.3 L166.8,359.3 L167.6,359.3 L168.5,359.6 L169.3,359.3 L170.2,359.3 L171.0,359.1 L171.9,359.3 L172.7,359.3 L173.5,359.6 L174.4,359.1 L175.2,359.6 L176.1,359.1 L176.9,358.8 L177.8,357.3 L178.6,356.7 L179.4,358.5 L180.3,359.1 L181.1,359.3 L182.0,358.8 L182.8,359.1 L183.7,359.6 L184.5,359.6 L185.3,359.9 L186.2,359.6 L187.0,359.6 L187.9,359.6 L188.7,359.9 L189.6,359.6 L190.4,359.6 L191.2,360.2 L192.1,359.9 L192.9,359.3 L193.8,358.8 L194.6,359.1 L195.4,359.1 L196.3,359.1 L197.1,359.1 L198.0,359.1 L198.8,359.3 L199.7,359.3 L200.5,358.5 L201.3,358.5 L202.2,358.5 L203.0,359.1 L203.9,359.3 L204.7,359.3 L205.6,359.6 L206.4,359.6 L207.2,359.6 L208.1,359.6 L208.9,359.3 L209.8,359.3 L210.6,358.8 L211.5,357.9 L212.3,357.9 L213.1,357.9 L214.0,358.2 L214.8,357.9 L215.7,357.6 L216.5,357.6 L217.4,357.9 L218.2,358.5 L219.0,358.8 L219.9,358.2 L220.7,357.9 L221.6,358.2 L222.4,357.9 L223.3,358.5 L224.1,358.2 L224.9,358.2 L225.8,358.5 L226.6,358.2 L227.5,358.8 L228.3,358.8 L229.2,358.5 L230.0,358.8 L230.8,358.8 L231.7,359.3 L232.5,359.3 L233.4,359.3 L234.2,359.1 L235.1,359.1 L235.9,359.1 L236.7,359.1 L237.6,358.5 L238.4,358.5 L239.3,358.5 L240.1,358.5 L241.0,358.2 L241.8,357.6 L242.6,358.8 L243.5,359.1 L244.3,359.1 L245.2,359.1 L246.0,358.5 L246.9,358.5 L247.7,358.2 L248.5,358.5 L249.4,357.6 L250.2,357.6 L251.1,357.6 L251.9,357.6 L252.8,357.6 L253.6,357.3 L254.4,357.3 L255.3,356.7 L256.1,357.3 L257.0,356.7 L257.8,357.3 L258.7,357.0 L259.5,357.3 L260.3,357.6 L261.2,358.2 L262.0,357.9 L262.9,357.6 L263.7,357.9 L264.6,357.9 L265.4,357.0 L266.2,357.0 L267.1,357.3 L267.9,357.3 L268.8,357.3 L269.6,357.6 L270.4,357.0 L271.3,356.4 L272.1,357.0 L273.0,355.5 L273.8,356.1 L274.7,355.2 L275.5,354.9 L276.3,355.5 L277.2,355.8 L278.0,355.5 L278.9,354.6 L279.7,354.9 L280.6,355.2 L281.4,354.9 L282.2,354.3 L283.1,354.9 L283.9,354.6 L284.8,354.6 L285.6,353.4 L286.5,354.0 L287.3,354.3 L288.1,353.4 L289.0,353.7 L289.8,353.4 L290.7,353.1 L291.5,353.4 L292.4,353.1 L293.2,353.4 L294.0,353.7 L294.9,353.4 L295.7,353.4 L296.6,353.1 L297.4,353.7 L298.3,353.4 L299.1,353.7 L299.9,353.7 L300.8,354.0 L301.6,353.4 L302.5,355.2 L303.3,354.9 L304.2,354.9 L305.0,355.2 L305.8,355.8 L306.7,356.1 L307.5,356.1 L308.4,356.1 L309.2,355.5 L310.1,355.8 L310.9,355.8 L311.7,355.8 L312.6,356.1 L313.4,356.4 L314.3,355.8 L315.1,356.1 L316.0,355.8 L316.8,356.1 L317.6,355.8 L318.5,355.5 L319.3,355.5 L320.2,355.5 L321.0,355.5 L321.9,354.9 L322.7,354.9 L323.5,355.2 L324.4,354.3 L325.2,354.0 L326.1,354.0 L326.9,353.4 L327.8,353.7 L328.6,353.4 L329.4,354.3 L330.3,354.9 L331.1,354.3 L332.0,354.3 L332.8,354.6 L333.7,354.9 L334.5,355.5 L335.3,354.9 L336.2,354.9 L337.0,355.8 L337.9,355.8 L338.7,355.8 L339.6,355.8 L340.4,356.4 L341.2,356.4 L342.1,356.1 L342.9,356.1 L343.8,356.4 L344.6,356.1 L345.4,356.1 L346.3,356.4 L347.1,356.1 L348.0,355.5 L348.8,355.8 L349.7,355.5 L350.5,355.5 L351.3,355.5 L352.2,355.5 L353.0,355.5 L353.9,355.8 L354.7,355.2 L355.6,355.2 L356.4,354.3 L357.2,354.9 L358.1,354.6 L358.9,354.9 L359.8,354.9 L360.6,354.9 L361.5,355.5 L362.3,354.6 L363.1,354.9 L364.0,354.9 L364.8,355.5 L365.7,355.2 L366.5,355.2 L367.4,355.5 L368.2,354.9 L369.0,354.9 L369.9,355.2 L370.7,354.9 L371.6,354.9 L372.4,355.2 L373.3,355.2 L374.1,355.2 L374.9,355.2 L375.8,355.2 L376.6,355.2 L377.5,355.5 L378.3,355.2 L379.2,356.1 L380.0,355.8 L380.8,355.8 L381.7,355.5 L382.5,356.4 L383.4,356.1 L384.2,356.4 L385.1,357.0 L385.9,357.3 L386.7,356.1 L387.6,356.1 L388.4,356.1 L389.3,355.8 L390.1,356.1 L391.0,355.5 L391.8,355.8 L392.6,355.2 L393.5,355.2 L394.3,355.2 L395.2,355.2 L396.0,355.5 L396.9,354.9 L397.7,355.2 L398.5,354.9 L399.4,355.2 L400.2,355.2 L401.1,355.5 L401.9,355.8 L402.8,354.9 L403.6,355.8 L404.4,355.2 L405.3,355.2 L406.1,355.5 L407.0,355.5 L407.8,355.2 L408.7,355.2 L409.5,355.5 L410.3,355.5 L411.2,355.5 L412.0,355.2 L412.9,355.5 L413.7,355.5 L414.6,354.9 L415.4,355.5 L416.2,355.2 L417.1,355.2 L417.9,355.2 L418.8,355.5 L419.6,354.6 L420.4,355.5 L421.3,354.9 L422.1,355.5 L423.0,354.6 L423.8,354.9 L424.7,354.9 L425.5,354.9 L426.3,354.9 L427.2,354.6 L428.0,354.6 L428.9,354.9 L429.7,354.6 L430.6,355.2 L431.4,354.6 L432.2,354.6 L433.1,355.2 L433.9,354.6 L434.8,354.6 L435.6,354.6 L436.5,354.6 L437.3,354.0 L438.1,354.9 L439.0,354.3 L439.8,354.3 L440.7,354.3 L441.5,354.0 L442.4,354.6 L443.2,354.0 L444.0,354.3 L444.9,354.9 L445.7,354.0 L446.6,354.3 L447.4,355.2 L448.3,354.3 L449.1,354.3 L449.9,354.9 L450.8,354.3 L451.6,355.2 L452.5,354.6 L453.3,354.9 L454.2,354.6 L455.0,354.6 L455.8,354.3 L456.7,354.0 L457.5,354.6 L458.4,354.6 L459.2,354.9 L460.1,354.3 L460.9,354.9 L461.7,354.6 L462.6,354.9 L463.4,353.7 L464.3,354.9 L465.1,353.4 L466.0,353.7 L466.8,353.4 L467.6,353.4 L468.5,353.7 L469.3,352.8 L470.2,352.8 L471.0,353.1 L471.9,353.1 L472.7,354.0 L473.5,353.4 L474.4,353.4 L475.2,353.7 L476.1,353.1 L476.9,353.1 L477.8,353.1 L478.6,352.5 L479.4,352.8 L480.3,353.1 L481.1,353.4 L482.0,352.8 L482.8,353.1 L483.7,352.5 L484.5,351.9 L485.3,352.5 L486.2,352.5 L487.0,351.9 L487.9,352.2 L488.7,352.5 L489.6,352.2 L490.4,352.2 L491.2,351.9 L492.1,352.2 L492.9,351.9 L493.8,352.2 L494.6,351.7 L495.4,352.5 L496.3,352.2 L497.1,353.1 L498.0,353.4 L498.8,354.0 L499.7,354.6 L500.5,355.5 L501.3,355.5 L502.2,354.9 L503.0,354.9 L503.9,354.3 L504.7,354.0 L505.6,353.7 L506.4,354.0 L507.2,354.3 L508.1,354.3 L508.9,354.0 L509.8,353.7 L510.6,354.0 L511.5,354.0 L512.3,353.7 L513.1,353.7 L514.0,354.0 L514.8,353.7 L515.7,353.7 L516.5,353.4 L517.4,353.4 L518.2,352.8 L519.0,353.1 L519.9,353.1 L520.7,353.1 L521.6,354.0 L522.4,353.4 L523.3,354.0 L524.1,354.3 L524.9,354.0 L525.8,353.7 L526.6,353.7 L527.5,353.4 L528.3,354.0 L529.2,354.0 L530.0,354.0 L530.8,353.7 L531.7,354.0 L532.5,354.6 L533.4,354.6 L534.2,355.8 L535.1,356.7 L535.9,358.5 L536.7,358.8 L537.6,360.5 L538.4,362.9 L539.3,364.1 L540.1,365.6 L541.0,367.3 L541.8,367.0 L542.6,366.4 L543.5,364.4 L544.3,362.9 L545.2,362.0 L546.0,359.1 L546.9,357.9 L547.7,356.1 L548.5,356.4 L549.4,356.1 L550.2,354.9 L551.1,354.6 L551.9,353.4 L552.8,354.3 L553.6,354.0 L554.4,352.5 L555.3,352.2 L556.1,352.2 L557.0,352.5 L557.8,352.5 L558.7,352.2 L559.5,351.7 L560.3,351.9 L561.2,352.2 L562.0,352.5 L562.9,352.2 L563.7,351.9 L564.6,350.5 L565.4,350.5 L566.2,349.3 L567.1,349.0 L567.9,349.6 L568.8,349.0 L569.6,349.6 L570.4,349.0 L571.3,349.0 L572.1,349.0 L573.0,348.7 L573.8,349.0 L574.7,349.0 L575.5,348.4 L576.3,349.0 L577.2,348.7 L578.0,349.3 L578.9,349.9 L579.7,351.4 L580.6,350.8 L581.4,352.2 L582.2,348.4 L583.1,349.0 L583.9,353.4 L584.8,354.6 L585.6,352.2 L586.5,352.5 L587.3,352.5 L588.1,354.0 L589.0,354.0 L589.8,355.2 L590.7,355.2 L591.5,354.0 L592.4,354.3 L593.2,354.3 L594.0,353.7 L594.9,354.3 L595.7,353.7 L596.6,353.7 L597.4,353.4 L598.3,353.4 L599.1,354.6 L599.9,351.7 L600.8,353.4 L601.6,353.7 L602.5,353.1 L603.3,353.4 L604.2,354.0 L605.0,354.0 L605.8,354.0 L606.7,353.4 L607.5,354.3 L608.4,354.6 L609.2,355.2 L610.1,354.6 L610.9,355.2 L611.7,354.9 L612.6,355.2 L613.4,354.6 L614.3,354.9 L615.1,354.3 L616.0,354.9 L616.8,354.9 L617.6,353.4 L618.5,353.7 L619.3,353.4 L620.2,353.7 L621.0,353.7 L621.9,353.1 L622.7,353.7 L623.5,353.7 L624.4,353.7 L625.2,353.7 L626.1,353.1 L626.9,353.7 L627.8,353.4 L628.6,353.4 L629.4,353.7 L630.3,353.7 L631.1,353.7 L632.0,353.7 L632.8,353.1 L633.7,353.4 L634.5,353.1 L635.3,353.7 L636.2,353.7 L637.0,353.4 L637.9,353.7 L638.7,353.4 L639.6,353.7 L640.4,353.1 L641.2,353.4 L642.1,353.1 L642.9,353.7 L643.8,353.4 L644.6,353.7 L645.4,353.4 L646.3,353.1 L647.1,353.1 L648.0,353.4 L648.8,353.4 L649.7,353.1 L650.5,353.1 L651.3,354.0 L652.2,353.7 L653.0,353.7 L653.9,353.4 L654.7,354.0 L655.6,353.7 L656.4,353.4 L657.2,353.4 L658.1,353.4 L658.9,354.0 L659.8,353.1 L660.6,353.1 L661.5,353.1 L662.3,353.1 L663.1,353.7 L664.0,354.0 L664.8,353.7 L665.7,352.5 L666.5,352.5 L667.4,353.1 L668.2,352.8 L669.0,352.8 L669.9,354.0 L670.7,354.6 L671.6,354.0 L672.4,354.0 L673.3,354.0 L674.1,353.7 L674.9,352.8 L675.8,353.4 L676.6,353.7 L677.5,353.7 L678.3,354.0 L679.2,353.4 L680.0,353.4" stroke="#ff7f0e" stroke-width="2" fill="none" opacity="0.8"/>
<!-- Thermal Generation -->
<path d="M80.0,281.5 L80.8,284.2 L81.7,281.8 L82.5,284.2 L83.4,281.5 L84.2,283.6 L85.1,289.8 L85.9,284.2 L86.7,283.6 L87.6,283.3 L88.4,282.7 L89.3,282.1 L90.1,284.5 L91.0,282.4 L91.8,285.4 L92.6,290.7 L93.5,308.2 L94.3,325.0 L95.2,322.7 L96.0,320.0 L96.9,318.8 L97.7,311.4 L98.5,313.5 L99.4,313.8 L100.2,284.5 L101.1,284.2 L101.9,280.9 L102.8,281.5 L103.6,289.8 L104.4,282.4 L105.3,282.1 L106.1,314.1 L107.0,320.0 L107.8,358.2 L108.7,372.4 L109.5,372.7 L110.3,362.3 L111.2,316.1 L112.0,286.0 L112.9,316.4 L113.7,316.7 L114.6,318.8 L115.4,330.4 L116.2,333.0 L117.1,333.9 L117.9,333.6 L118.8,330.4 L119.6,333.9 L120.4,291.9 L121.3,283.9 L122.1,286.0 L123.0,295.1 L123.8,309.3 L124.7,320.6 L125.5,345.1 L126.3,364.4 L127.2,376.2 L128.0,378.0 L128.9,375.3 L129.7,375.0 L130.6,342.2 L131.4,344.6 L132.2,323.8 L133.1,321.5 L133.9,321.8 L134.8,378.0 L135.6,381.5 L136.5,336.9 L137.3,333.6 L138.1,332.7 L139.0,332.7 L139.8,349.9 L140.7,302.2 L141.5,282.7 L142.4,281.2 L143.2,283.3 L144.0,281.5 L144.9,283.6 L145.7,283.0 L146.6,290.7 L147.4,297.5 L148.3,294.6 L149.1,291.3 L149.9,296.9 L150.8,283.0 L151.6,283.3 L152.5,282.4 L153.3,296.6 L154.2,305.5 L155.0,308.8 L155.8,301.7 L156.7,305.2 L157.5,318.8 L158.4,328.9 L159.2,328.0 L160.1,332.4 L160.9,291.6 L161.7,280.9 L162.6,283.0 L163.4,285.4 L164.3,285.1 L165.1,288.3 L166.0,285.4 L166.8,286.3 L167.6,301.7 L168.5,324.7 L169.3,327.4 L170.2,327.7 L171.0,327.7 L171.9,327.4 L172.7,288.9 L173.5,288.3 L174.4,299.3 L175.2,310.5 L176.1,308.8 L176.9,304.9 L177.8,308.8 L178.6,333.9 L179.4,315.9 L180.3,312.6 L181.1,286.9 L182.0,293.1 L182.8,317.9 L183.7,320.3 L184.5,330.4 L185.3,330.1 L186.2,329.5 L187.0,328.9 L187.9,329.2 L188.7,320.3 L189.6,328.3 L190.4,325.6 L191.2,291.9 L192.1,281.2 L192.9,297.2 L193.8,286.0 L194.6,284.8 L195.4,288.9 L196.3,294.0 L197.1,289.2 L198.0,291.6 L198.8,291.9 L199.7,291.3 L200.5,289.5 L201.3,288.6 L202.2,284.2 L203.0,303.4 L203.9,307.6 L204.7,326.8 L205.6,324.4 L206.4,319.1 L207.2,327.4 L208.1,328.3 L208.9,328.3 L209.8,328.6 L210.6,328.6 L211.5,329.8 L212.3,329.5 L213.1,330.1 L214.0,329.8 L214.8,329.8 L215.7,329.5 L216.5,329.5 L217.4,330.4 L218.2,329.8 L219.0,304.0 L219.9,284.8 L220.7,288.3 L221.6,304.6 L222.4,286.9 L223.3,287.2 L224.1,286.3 L224.9,287.7 L225.8,291.0 L226.6,280.6 L227.5,280.1 L228.3,280.6 L229.2,307.9 L230.0,311.1 L230.8,297.2 L231.7,286.3 L232.5,283.9 L233.4,283.9 L234.2,284.5 L235.1,284.8 L235.9,283.0 L236.7,285.1 L237.6,282.1 L238.4,282.4 L239.3,286.6 L240.1,284.8 L241.0,281.5 L241.8,280.9 L242.6,286.0 L243.5,282.7 L244.3,280.6 L245.2,279.5 L246.0,287.2 L246.9,310.5 L247.7,318.5 L248.5,321.5 L249.4,330.1 L250.2,330.4 L251.1,327.1 L251.9,327.4 L252.8,310.5 L253.6,285.4 L254.4,285.7 L255.3,289.2 L256.1,305.5 L257.0,307.3 L257.8,321.5 L258.7,299.0 L259.5,283.0 L260.3,286.0 L261.2,294.6 L262.0,302.8 L262.9,311.7 L263.7,312.3 L264.6,310.2 L265.4,311.7 L266.2,315.9 L267.1,327.7 L267.9,327.1 L268.8,351.1 L269.6,353.1 L270.4,342.8 L271.3,342.8 L272.1,343.1 L273.0,327.7 L273.8,291.6 L274.7,309.9 L275.5,310.5 L276.3,302.5 L277.2,311.1 L278.0,314.7 L278.9,322.1 L279.7,328.9 L280.6,333.0 L281.4,301.7 L282.2,289.2 L283.1,283.0 L283.9,282.4 L284.8,295.7 L285.6,296.3 L286.5,296.3 L287.3,297.5 L288.1,301.9 L289.0,301.4 L289.8,301.1 L290.7,301.4 L291.5,289.2 L292.4,289.5 L293.2,289.2 L294.0,283.3 L294.9,296.9 L295.7,304.9 L296.6,298.4 L297.4,305.2 L298.3,312.3 L299.1,311.4 L299.9,310.5 L300.8,311.7 L301.6,309.3 L302.5,287.2 L303.3,284.5 L304.2,284.2 L305.0,285.7 L305.8,287.7 L306.7,284.5 L307.5,284.2 L308.4,284.5 L309.2,284.2 L310.1,283.9 L310.9,283.6 L311.7,286.0 L312.6,287.2 L313.4,286.3 L314.3,288.6 L315.1,285.4 L316.0,288.6 L316.8,285.7 L317.6,288.0 L318.5,285.4 L319.3,288.0 L320.2,285.4 L321.0,304.9 L321.9,287.5 L322.7,285.4 L323.5,286.3 L324.4,283.9 L325.2,285.1 L326.1,286.3 L326.9,283.6 L327.8,284.5 L328.6,289.8 L329.4,294.6 L330.3,293.4 L331.1,295.7 L332.0,286.9 L332.8,282.7 L333.7,286.0 L334.5,284.2 L335.3,289.5 L336.2,286.3 L337.0,288.9 L337.9,289.5 L338.7,297.2 L339.6,318.8 L340.4,319.7 L341.2,332.7 L342.1,333.0 L342.9,327.7 L343.8,287.7 L344.6,304.0 L345.4,303.4 L346.3,309.0 L347.1,319.7 L348.0,330.4 L348.8,330.6 L349.7,330.6 L350.5,331.5 L351.3,333.6 L352.2,331.8 L353.0,330.6 L353.9,314.4 L354.7,293.4 L355.6,299.3 L356.4,313.5 L357.2,319.4 L358.1,323.5 L358.9,327.4 L359.8,330.9 L360.6,331.2 L361.5,330.6 L362.3,330.6 L363.1,289.8 L364.0,299.0 L364.8,299.6 L365.7,299.9 L366.5,291.3 L367.4,330.4 L368.2,330.6 L369.0,329.2 L369.9,329.8 L370.7,330.1 L371.6,329.8 L372.4,330.4 L373.3,330.9 L374.1,330.1 L374.9,328.9 L375.8,329.5 L376.6,329.2 L377.5,329.8 L378.3,328.9 L379.2,329.8 L380.0,327.1 L380.8,329.2 L381.7,328.9 L382.5,329.5 L383.4,290.1 L384.2,294.0 L385.1,291.0 L385.9,283.6 L386.7,286.0 L387.6,281.8 L388.4,281.2 L389.3,286.9 L390.1,298.1 L391.0,323.8 L391.8,324.4 L392.6,324.4 L393.5,319.1 L394.3,319.7 L395.2,284.2 L396.0,281.5 L396.9,303.7 L397.7,299.0 L398.5,305.8 L399.4,309.0 L400.2,315.9 L401.1,320.9 L401.9,331.2 L402.8,327.1 L403.6,297.5 L404.4,294.3 L405.3,302.8 L406.1,300.5 L407.0,312.0 L407.8,312.0 L408.7,310.8 L409.5,324.7 L410.3,325.0 L411.2,325.3 L412.0,325.9 L412.9,324.7 L413.7,299.6 L414.6,282.1 L415.4,284.8 L416.2,284.5 L417.1,293.4 L417.9,297.2 L418.8,288.9 L419.6,288.9 L420.4,291.6 L421.3,292.8 L422.1,306.7 L423.0,280.9 L423.8,283.6 L424.7,288.6 L425.5,287.5 L426.3,281.2 L427.2,280.1 L428.0,280.6 L428.9,283.9 L429.7,280.3 L430.6,284.5 L431.4,297.2 L432.2,288.0 L433.1,313.8 L433.9,317.6 L434.8,300.5 L435.6,296.0 L436.5,296.0 L437.3,305.8 L438.1,300.8 L439.0,294.6 L439.8,304.9 L440.7,310.2 L441.5,310.5 L442.4,337.5 L443.2,323.3 L444.0,300.2 L444.9,296.3 L445.7,299.6 L446.6,296.9 L447.4,300.2 L448.3,308.8 L449.1,307.9 L449.9,307.6 L450.8,307.9 L451.6,321.5 L452.5,319.7 L453.3,304.9 L454.2,303.1 L455.0,302.2 L455.8,302.5 L456.7,310.5 L457.5,322.1 L458.4,327.4 L459.2,327.7 L460.1,305.5 L460.9,304.0 L461.7,306.1 L462.6,303.1 L463.4,308.2 L464.3,306.1 L465.1,315.3 L466.0,320.6 L466.8,320.9 L467.6,321.8 L468.5,320.6 L469.3,320.6 L470.2,317.0 L471.0,320.6 L471.9,340.1 L472.7,340.7 L473.5,340.4 L474.4,341.6 L475.2,342.2 L476.1,343.1 L476.9,344.0 L477.8,344.0 L478.6,343.4 L479.4,342.8 L480.3,342.8 L481.1,342.8 L482.0,339.8 L482.8,343.1 L483.7,341.9 L484.5,341.9 L485.3,341.9 L486.2,341.9 L487.0,340.4 L487.9,341.6 L488.7,339.5 L489.6,340.4 L490.4,340.1 L491.2,343.1 L492.1,340.7 L492.9,339.8 L493.8,339.8 L494.6,340.1 L495.4,340.1 L496.3,339.5 L497.1,339.2 L498.0,341.3 L498.8,325.3 L499.7,329.5 L500.5,313.8 L501.3,312.0 L502.2,312.9 L503.0,312.6 L503.9,311.7 L504.7,298.1 L505.6,294.3 L506.4,296.3 L507.2,298.4 L508.1,295.4 L508.9,297.8 L509.8,303.4 L510.6,301.9 L511.5,304.3 L512.3,303.4 L513.1,303.4 L514.0,300.5 L514.8,304.9 L515.7,304.9 L516.5,305.2 L517.4,312.3 L518.2,321.5 L519.0,318.5 L519.9,318.5 L520.7,318.5 L521.6,318.5 L522.4,303.1 L523.3,303.4 L524.1,304.3 L524.9,300.8 L525.8,299.6 L526.6,305.8 L527.5,306.4 L528.3,306.4 L529.2,307.0 L530.0,307.6 L530.8,307.3 L531.7,316.4 L532.5,340.1 L533.4,340.4 L534.2,339.5 L535.1,308.8 L535.9,306.1 L536.7,308.5 L537.6,305.2 L538.4,312.6 L539.3,307.9 L540.1,304.0 L541.0,309.0 L541.8,306.1 L542.6,298.7 L543.5,305.8 L544.3,308.8 L545.2,293.7 L546.0,293.4 L546.9,299.9 L547.7,301.1 L548.5,304.0 L549.4,299.9 L550.2,319.1 L551.1,341.0 L551.9,341.0 L552.8,341.3 L553.6,341.0 L554.4,339.8 L555.3,340.4 L556.1,341.6 L557.0,313.2 L557.8,304.9 L558.7,327.1 L559.5,318.5 L560.3,323.3 L561.2,311.7 L562.0,295.4 L562.9,315.9 L563.7,315.3 L564.6,318.5 L565.4,299.0 L566.2,308.5 L567.1,335.7 L567.9,330.6 L568.8,330.6 L569.6,331.2 L570.4,322.4 L571.3,323.3 L572.1,334.5 L573.0,340.1 L573.8,340.1 L574.7,340.4 L575.5,341.0 L576.3,311.1 L577.2,304.0 L578.0,301.7 L578.9,295.7 L579.7,316.1 L580.6,327.4 L581.4,313.8 L582.2,328.3 L583.1,335.4 L583.9,327.4 L584.8,311.7 L585.6,294.8 L586.5,296.0 L587.3,299.3 L588.1,299.9 L589.0,300.5 L589.8,306.7 L590.7,324.4 L591.5,340.4 L592.4,340.7 L593.2,340.4 L594.0,341.6 L594.9,341.6 L595.7,340.4 L596.6,340.7 L597.4,311.7 L598.3,314.1 L599.1,326.2 L599.9,344.8 L600.8,345.1 L601.6,344.8 L602.5,343.4 L603.3,340.7 L604.2,330.9 L605.0,327.7 L605.8,295.1 L606.7,320.6 L607.5,326.5 L608.4,320.6 L609.2,328.0 L610.1,328.0 L610.9,327.4 L611.7,327.1 L612.6,327.4 L613.4,327.7 L614.3,328.0 L615.1,327.4 L616.0,327.4 L616.8,326.2 L617.6,325.9 L618.5,326.5 L619.3,326.5 L620.2,326.2 L621.0,323.8 L621.9,328.9 L622.7,328.6 L623.5,329.2 L624.4,329.2 L625.2,328.9 L626.1,318.2 L626.9,335.4 L627.8,350.8 L628.6,351.9 L629.4,357.6 L630.3,362.9 L631.1,362.6 L632.0,364.1 L632.8,363.5 L633.7,362.6 L634.5,362.0 L635.3,362.9 L636.2,362.3 L637.0,361.1 L637.9,360.5 L638.7,360.2 L639.6,360.2 L640.4,359.6 L641.2,359.9 L642.1,360.2 L642.9,360.5 L643.8,361.4 L644.6,360.8 L645.4,361.1 L646.3,362.3 L647.1,362.0 L648.0,362.9 L648.8,362.6 L649.7,360.8 L650.5,361.1 L651.3,360.8 L652.2,361.4 L653.0,360.5 L653.9,361.4 L654.7,361.7 L655.6,360.8 L656.4,360.8 L657.2,360.8 L658.1,359.9 L658.9,346.6 L659.8,361.4 L660.6,360.5 L661.5,360.2 L662.3,360.2 L663.1,360.2 L664.0,360.5 L664.8,360.5 L665.7,361.1 L666.5,318.5 L667.4,315.0 L668.2,350.5 L669.0,351.1 L669.9,359.9 L670.7,361.1 L671.6,354.3 L672.4,360.5 L673.3,360.2 L674.1,360.2 L674.9,360.2 L675.8,360.8 L676.6,360.2 L677.5,360.5 L678.3,323.0 L679.2,327.7 L680.0,361.1" stroke="#2ca02c" stroke-width="2" fill="none" opacity="0.8"/>
<!-- Solar Generation -->
<path d="M80.0,418.8 L80.8,420.0 L81.7,420.0 L82.5,420.0 L83.4,420.0 L84.2,420.0 L85.1,420.0 L85.9,420.0 L86.7,420.0 L87.6,420.0 L88.4,420.0 L89.3,420.0 L90.1,420.0 L91.0,420.0 L91.8,420.0 L92.6,415.9 L93.5,396.6 L94.3,391.3 L95.2,392.5 L96.0,397.5 L96.9,392.8 L97.7,390.4 L98.5,393.1 L99.4,408.5 L100.2,419.1 L101.1,420.0 L101.9,420.0 L102.8,420.0 L103.6,420.0 L104.4,420.0 L105.3,420.0 L106.1,420.0 L107.0,420.0 L107.8,420.0 L108.7,420.0 L109.5,420.0 L110.3,420.0 L111.2,420.0 L112.0,420.0 L112.9,419.1 L113.7,412.0 L114.6,405.2 L115.4,403.4 L116.2,402.5 L117.1,402.2 L117.9,400.8 L118.8,404.3 L119.6,413.2 L120.4,419.4 L121.3,420.0 L122.1,420.0 L123.0,420.0 L123.8,420.0 L124.7,420.0 L125.5,420.0 L126.3,420.0 L127.2,420.0 L128.0,420.0 L128.9,420.0 L129.7,420.0 L130.6,420.0 L131.4,420.0 L132.2,420.0 L133.1,417.9 L133.9,406.1 L134.8,389.8 L135.6,396.9 L136.5,396.9 L137.3,396.0 L138.1,391.9 L139.0,390.1 L139.8,401.1 L140.7,419.4 L141.5,420.0 L142.4,420.0 L143.2,420.0 L144.0,420.0 L144.9,420.0 L145.7,420.0 L146.6,420.0 L147.4,420.0 L148.3,420.0 L149.1,420.0 L149.9,420.0 L150.8,420.0 L151.6,420.0 L152.5,420.0 L153.3,419.4 L154.2,412.6 L155.0,396.0 L155.8,390.7 L156.7,394.3 L157.5,392.5 L158.4,393.1 L159.2,392.5 L160.1,412.3 L160.9,419.7 L161.7,420.0 L162.6,420.0 L163.4,420.0 L164.3,420.0 L165.1,420.0 L166.0,420.0 L166.8,420.0 L167.6,420.0 L168.5,420.0 L169.3,420.0 L170.2,420.0 L171.0,420.0 L171.9,420.0 L172.7,420.0 L173.5,418.5 L174.4,411.1 L175.2,403.4 L176.1,391.9 L176.9,395.1 L177.8,397.8 L178.6,393.7 L179.4,398.4 L180.3,413.8 L181.1,419.7 L182.0,420.0 L182.8,420.0 L183.7,420.0 L184.5,420.0 L185.3,420.0 L186.2,420.0 L187.0,420.0 L187.9,420.0 L188.7,420.0 L189.6,420.0 L190.4,420.0 L191.2,420.0 L192.1,420.0 L192.9,420.0 L193.8,419.4 L194.6,417.3 L195.4,414.4 L196.3,413.5 L197.1,410.2 L198.0,411.1 L198.8,400.8 L199.7,407.9 L200.5,415.3 L201.3,419.1 L202.2,420.0 L203.0,420.0 L203.9,420.0 L204.7,420.0 L205.6,420.0 L206.4,420.0 L207.2,420.0 L208.1,420.0 L208.9,420.0 L209.8,420.0 L210.6,420.0 L211.5,420.0 L212.3,420.0 L213.1,420.0 L214.0,419.7 L214.8,415.3 L215.7,415.6 L216.5,407.6 L217.4,412.0 L218.2,396.9 L219.0,397.5 L219.9,391.3 L220.7,405.5 L221.6,419.7 L222.4,420.0 L223.3,420.0 L224.1,420.0 L224.9,420.0 L225.8,420.0 L226.6,420.0 L227.5,420.0 L228.3,420.0 L229.2,420.0 L230.0,420.0 L230.8,420.0 L231.7,420.0 L232.5,420.0 L233.4,420.0 L234.2,419.7 L235.1,416.7 L235.9,413.5 L236.7,410.8 L237.6,406.7 L238.4,404.0 L239.3,390.7 L240.1,412.9 L241.0,415.9 L241.8,420.0 L242.6,420.0 L243.5,420.0 L244.3,420.0 L245.2,420.0 L246.0,420.0 L246.9,420.0 L247.7,420.0 L248.5,420.0 L249.4,420.0 L250.2,420.0 L251.1,420.0 L251.9,420.0 L252.8,420.0 L253.6,420.0 L254.4,419.1 L255.3,406.7 L256.1,405.2 L257.0,400.5 L257.8,400.2 L258.7,398.7 L259.5,396.9 L260.3,396.6 L261.2,415.3 L262.0,419.7 L262.9,420.0 L263.7,420.0 L264.6,420.0 L265.4,420.0 L266.2,420.0 L267.1,420.0 L267.9,420.0 L268.8,420.0 L269.6,420.0 L270.4,420.0 L271.3,420.0 L272.1,420.0 L273.0,420.0 L273.8,420.0 L274.7,420.0 L275.5,415.9 L276.3,409.3 L277.2,408.5 L278.0,402.2 L278.9,405.2 L279.7,403.1 L280.6,406.7 L281.4,416.4 L282.2,420.0 L283.1,420.0 L283.9,420.0 L284.8,420.0 L285.6,420.0 L286.5,420.0 L287.3,420.0 L288.1,420.0 L289.0,420.0 L289.8,420.0 L290.7,420.0 L291.5,420.0 L292.4,420.0 L293.2,420.0 L294.0,420.0 L294.9,420.0 L295.7,415.3 L296.6,412.9 L297.4,407.6 L298.3,404.6 L299.1,401.4 L299.9,400.8 L300.8,402.2 L301.6,414.7 L302.5,420.0 L303.3,420.0 L304.2,420.0 L305.0,420.0 L305.8,420.0 L306.7,420.0 L307.5,420.0 L308.4,420.0 L309.2,420.0 L310.1,420.0 L310.9,420.0 L311.7,420.0 L312.6,420.0 L313.4,420.0 L314.3,420.0 L315.1,419.4 L316.0,411.7 L316.8,405.5 L317.6,405.8 L318.5,405.8 L319.3,396.9 L320.2,392.8 L321.0,391.3 L321.9,406.7 L322.7,419.7 L323.5,420.0 L324.4,420.0 L325.2,420.0 L326.1,420.0 L326.9,420.0 L327.8,420.0 L328.6,420.0 L329.4,420.0 L330.3,420.0 L331.1,420.0 L332.0,420.0 L332.8,420.0 L333.7,420.0 L334.5,420.0 L335.3,419.1 L336.2,401.7 L337.0,390.4 L337.9,393.7 L338.7,396.6 L339.6,395.7 L340.4,391.6 L341.2,390.1 L342.1,411.7 L342.9,419.7 L343.8,420.0 L344.6,420.0 L345.4,420.0 L346.3,420.0 L347.1,420.0 L348.0,420.0 L348.8,420.0 L349.7,420.0 L350.5,420.0 L351.3,420.0 L352.2,420.0 L353.0,420.0 L353.9,420.0 L354.7,420.0 L355.6,419.4 L356.4,402.2 L357.2,391.3 L358.1,394.9 L358.9,402.5 L359.8,394.6 L360.6,391.6 L361.5,394.3 L362.3,407.9 L363.1,419.7 L364.0,420.0 L364.8,420.0 L365.7,420.0 L366.5,420.0 L367.4,420.0 L368.2,420.0 L369.0,420.0 L369.9,420.0 L370.7,420.0 L371.6,420.0 L372.4,420.0 L373.3,420.0 L374.1,420.0 L374.9,420.0 L375.8,419.7 L376.6,417.0 L377.5,406.1 L378.3,404.3 L379.2,404.6 L380.0,397.2 L380.8,408.2 L381.7,413.8 L382.5,411.4 L383.4,419.7 L384.2,420.0 L385.1,420.0 L385.9,420.0 L386.7,420.0 L387.6,420.0 L388.4,420.0 L389.3,420.0 L390.1,420.0 L391.0,420.0 L391.8,420.0 L392.6,420.0 L393.5,420.0 L394.3,420.0 L395.2,420.0 L396.0,420.0 L396.9,417.9 L397.7,399.0 L398.5,393.4 L399.4,408.5 L400.2,414.1 L401.1,405.8 L401.9,410.5 L402.8,416.2 L403.6,420.0 L404.4,420.0 L405.3,420.0 L406.1,420.0 L407.0,420.0 L407.8,420.0 L408.7,420.0 L409.5,420.0 L410.3,420.0 L411.2,420.0 L412.0,420.0 L412.9,420.0 L413.7,420.0 L414.6,420.0 L415.4,420.0 L416.2,419.7 L417.1,409.6 L417.9,397.8 L418.8,396.3 L419.6,401.1 L420.4,399.6 L421.3,399.9 L422.1,405.2 L423.0,416.4 L423.8,419.7 L424.7,420.0 L425.5,420.0 L426.3,420.0 L427.2,420.0 L428.0,420.0 L428.9,420.0 L429.7,420.0 L430.6,420.0 L431.4,420.0 L432.2,420.0 L433.1,420.0 L433.9,420.0 L434.8,420.0 L435.6,420.0 L436.5,420.0 L437.3,417.6 L438.1,409.9 L439.0,413.5 L439.8,406.4 L440.7,403.1 L441.5,411.7 L442.4,416.2 L443.2,416.4 L444.0,420.0 L444.9,420.0 L445.7,420.0 L446.6,420.0 L447.4,420.0 L448.3,420.0 L449.1,420.0 L449.9,420.0 L450.8,420.0 L451.6,420.0 L452.5,420.0 L453.3,420.0 L454.2,420.0 L455.0,420.0 L455.8,420.0 L456.7,419.7 L457.5,417.0 L458.4,402.0 L459.2,412.3 L460.1,406.4 L460.9,404.3 L461.7,402.0 L462.6,415.6 L463.4,418.8 L464.3,420.0 L465.1,420.0 L466.0,420.0 L466.8,420.0 L467.6,420.0 L468.5,420.0 L469.3,420.0 L470.2,420.0 L471.0,420.0 L471.9,420.0 L472.7,420.0 L473.5,420.0 L474.4,420.0 L475.2,420.0 L476.1,420.0 L476.9,420.0 L477.8,417.6 L478.6,417.0 L479.4,416.2 L480.3,413.8 L481.1,414.7 L482.0,415.0 L482.8,417.6 L483.7,419.4 L484.5,420.0 L485.3,420.0 L486.2,420.0 L487.0,420.0 L487.9,420.0 L488.7,420.0 L489.6,420.0 L490.4,420.0 L491.2,420.0 L492.1,420.0 L492.9,420.0 L493.8,420.0 L494.6,420.0 L495.4,420.0 L496.3,420.0 L497.1,420.0 L498.0,414.4 L498.8,407.0 L499.7,403.4 L500.5,403.7 L501.3,402.0 L502.2,397.2 L503.0,394.9 L503.9,414.1 L504.7,420.0 L505.6,420.0 L506.4,420.0 L507.2,420.0 L508.1,420.0 L508.9,420.0 L509.8,420.0 L510.6,420.0 L511.5,420.0 L512.3,420.0 L513.1,420.0 L514.0,420.0 L514.8,420.0 L515.7,420.0 L516.5,420.0 L517.4,420.0 L518.2,414.4 L519.0,407.6 L519.9,398.4 L520.7,399.0 L521.6,397.5 L522.4,397.8 L523.3,393.4 L524.1,409.1 L524.9,419.7 L525.8,420.0 L526.6,420.0 L527.5,420.0 L528.3,420.0 L529.2,420.0 L530.0,420.0 L530.8,420.0 L531.7,420.0 L532.5,420.0 L533.4,420.0 L534.2,420.0 L535.1,420.0 L535.9,420.0 L536.7,420.0 L537.6,419.7 L538.4,410.8 L539.3,405.2 L540.1,401.1 L541.0,404.0 L541.8,404.9 L542.6,405.5 L543.5,411.7 L544.3,417.9 L545.2,420.0 L546.0,420.0 L546.9,420.0 L547.7,420.0 L548.5,420.0 L549.4,420.0 L550.2,420.0 L551.1,420.0 L551.9,420.0 L552.8,420.0 L553.6,420.0 L554.4,420.0 L555.3,420.0 L556.1,420.0 L557.0,420.0 L557.8,420.0 L558.7,417.9 L559.5,414.1 L560.3,412.0 L561.2,409.9 L562.0,401.7 L562.9,407.3 L563.7,412.6 L564.6,417.9 L565.4,420.0 L566.2,420.0 L567.1,420.0 L567.9,420.0 L568.8,420.0 L569.6,420.0 L570.4,420.0 L571.3,420.0 L572.1,420.0 L573.0,420.0 L573.8,420.0 L574.7,420.0 L575.5,420.0 L576.3,420.0 L577.2,420.0 L578.0,420.0 L578.9,414.1 L579.7,406.4 L580.6,400.2 L581.4,398.4 L582.2,396.6 L583.1,395.1 L583.9,397.2 L584.8,411.1 L585.6,420.0 L586.5,420.0 L587.3,420.0 L588.1,420.0 L589.0,420.0 L589.8,420.0 L590.7,420.0 L591.5,420.0 L592.4,420.0 L593.2,420.0 L594.0,420.0 L594.9,420.0 L595.7,420.0 L596.6,420.0 L597.4,420.0 L598.3,420.0 L599.1,413.8 L599.9,407.0 L600.8,407.9 L601.6,407.6 L602.5,412.3 L603.3,411.7 L604.2,413.8 L605.0,417.3 L605.8,420.0 L606.7,420.0 L607.5,420.0 L608.4,420.0 L609.2,420.0 L610.1,420.0 L610.9,420.0 L611.7,420.0 L612.6,420.0 L613.4,420.0 L614.3,420.0 L615.1,420.0 L616.0,420.0 L616.8,420.0 L617.6,420.0 L618.5,420.0 L619.3,415.0 L620.2,397.2 L621.0,405.8 L621.9,406.4 L622.7,410.2 L623.5,401.4 L624.4,412.0 L625.2,417.9 L626.1,420.0 L626.9,420.0 L627.8,420.0 L628.6,420.0 L629.4,420.0 L630.3,420.0 L631.1,420.0 L632.0,420.0 L632.8,420.0 L633.7,420.0 L634.5,420.0 L635.3,420.0 L636.2,420.0 L637.0,420.0 L637.9,420.0 L638.7,420.0 L639.6,417.9 L640.4,410.8 L641.2,415.3 L642.1,414.4 L642.9,415.6 L643.8,413.2 L644.6,416.7 L645.4,418.5 L646.3,420.0 L647.1,420.0 L648.0,420.0 L648.8,420.0 L649.7,420.0 L650.5,420.0 L651.3,420.0 L652.2,420.0 L653.0,420.0 L653.9,420.0 L654.7,420.0 L655.6,420.0 L656.4,420.0 L657.2,420.0 L658.1,420.0 L658.9,420.0 L659.8,418.8 L660.6,415.0 L661.5,411.7 L662.3,407.9 L663.1,411.4 L664.0,412.6 L664.8,414.1 L665.7,417.3 L666.5,420.0 L667.4,420.0 L668.2,420.0 L669.0,420.0 L669.9,420.0 L670.7,420.0 L671.6,420.0 L672.4,420.0 L673.3,420.0 L674.1,420.0 L674.9,420.0 L675.8,420.0 L676.6,420.0 L677.5,420.0 L678.3,420.0 L679.2,420.0 L680.0,419.1" stroke="#d62728" stroke-width="2" fill="none" opacity="0.8"/>
<!-- Forecast -->
<path d="M80.0,192.5 L80.8,179.2 L81.7,179.8 L82.5,176.5 L83.4,183.3 L84.2,193.1 L85.1,212.0 L85.9,216.7 L86.7,239.2 L87.6,243.1 L88.4,247.5 L89.3,250.2 L90.1,247.2 L91.0,240.1 L91.8,225.3 L92.6,213.5 L93.5,210.5 L94.3,203.7 L95.2,196.9 L96.0,200.2 L96.9,201.9 L97.7,209.9 L98.5,211.7 L99.4,211.4 L100.2,203.4 L101.1,186.6 L101.9,175.0 L102.8,178.9 L103.6,191.0 L104.4,206.1 L105.3,223.5 L106.1,249.3 L107.0,258.2 L107.8,264.7 L108.7,271.2 L109.5,273.5 L110.3,272.1 L111.2,260.2 L112.0,231.8 L112.9,204.0 L113.7,190.1 L114.6,188.3 L115.4,188.6 L116.2,189.8 L117.1,193.1 L117.9,196.6 L118.8,196.3 L119.6,195.7 L120.4,193.1 L121.3,188.6 L122.1,186.9 L123.0,186.6 L123.8,194.3 L124.7,208.5 L125.5,229.8 L126.3,238.9 L127.2,259.9 L128.0,267.9 L128.9,271.8 L129.7,271.8 L130.6,269.1 L131.4,259.3 L132.2,233.3 L133.1,201.9 L133.9,183.6 L134.8,177.4 L135.6,179.2 L136.5,184.5 L137.3,187.2 L138.1,190.1 L139.0,191.6 L139.8,192.5 L140.7,189.5 L141.5,183.9 L142.4,180.3 L143.2,178.0 L144.0,183.0 L144.9,195.1 L145.7,216.4 L146.6,243.4 L147.4,257.9 L148.3,265.3 L149.1,270.6 L149.9,272.4 L150.8,270.9 L151.6,259.0 L152.5,231.8 L153.3,204.9 L154.2,189.5 L155.0,185.4 L155.8,185.1 L156.7,186.6 L157.5,190.1 L158.4,193.7 L159.2,193.7 L160.1,193.1 L160.9,189.2 L161.7,181.5 L162.6,179.5 L163.4,180.0 L164.3,190.1 L165.1,203.7 L166.0,225.6 L166.8,251.7 L167.6,262.3 L168.5,269.4 L169.3,274.7 L170.2,276.5 L171.0,274.7 L171.9,262.6 L172.7,234.8 L173.5,205.5 L174.4,192.2 L175.2,190.7 L176.1,191.3 L176.9,193.1 L177.8,195.1 L178.6,198.4 L179.4,198.7 L180.3,198.1 L181.1,195.1 L182.0,191.0 L182.8,190.1 L183.7,190.7 L184.5,196.9 L185.3,210.8 L186.2,232.7 L187.0,237.7 L187.9,265.9 L188.7,274.4 L189.6,279.5 L190.4,280.9 L191.2,279.2 L192.1,268.5 L192.9,241.6 L193.8,212.0 L194.6,196.6 L195.4,192.5 L196.3,191.6 L197.1,191.9 L198.0,192.5 L198.8,194.0 L199.7,194.0 L200.5,193.4 L201.3,188.9 L202.2,182.1 L203.0,181.2 L203.9,182.7 L204.7,191.6 L205.6,205.8 L206.4,227.4 L207.2,249.3 L208.1,257.6 L208.9,263.8 L209.8,268.8 L210.6,271.5 L211.5,272.7 L212.3,268.2 L213.1,256.1 L214.0,241.0 L214.8,225.6 L215.7,216.1 L216.5,209.6 L217.4,208.7 L218.2,212.3 L219.0,215.8 L219.9,218.8 L220.7,220.0 L221.6,217.6 L222.4,208.7 L223.3,202.5 L224.1,201.6 L224.9,208.5 L225.8,218.2 L226.6,232.4 L227.5,246.3 L228.3,259.9 L229.2,265.0 L230.0,267.9 L230.8,270.3 L231.7,272.1 L232.5,265.0 L233.4,251.4 L234.2,237.7 L235.1,224.1 L235.9,211.4 L236.7,204.9 L237.6,205.8 L238.4,206.7 L239.3,211.4 L240.1,213.5 L241.0,213.8 L241.8,204.6 L242.6,191.0 L243.5,183.3 L244.3,185.7 L245.2,194.8 L246.0,209.6 L246.9,228.3 L247.7,240.7 L248.5,259.3 L249.4,269.7 L250.2,275.3 L251.1,277.4 L251.9,275.6 L252.8,263.5 L253.6,234.8 L254.4,205.2 L255.3,188.0 L256.1,181.8 L257.0,180.3 L257.8,181.5 L258.7,184.8 L259.5,187.2 L260.3,189.2 L261.2,188.0 L262.0,181.2 L262.9,171.8 L263.7,170.3 L264.6,173.2 L265.4,183.6 L266.2,199.3 L267.1,222.1 L267.9,236.6 L268.8,252.2 L269.6,265.0 L270.4,271.2 L271.3,273.0 L272.1,271.5 L273.0,259.0 L273.8,230.3 L274.7,200.2 L275.5,183.0 L276.3,177.7 L277.2,176.8 L278.0,178.3 L278.9,182.1 L279.7,184.8 L280.6,187.2 L281.4,186.3 L282.2,178.9 L283.1,168.5 L283.9,166.7 L284.8,169.7 L285.6,179.2 L286.5,195.1 L287.3,217.6 L288.1,223.0 L289.0,248.7 L289.8,262.9 L290.7,269.4 L291.5,270.9 L292.4,269.1 L293.2,256.1 L294.0,227.7 L294.9,196.0 L295.7,180.3 L296.6,175.3 L297.4,175.0 L298.3,177.1 L299.1,180.9 L299.9,183.3 L300.8,185.7 L301.6,184.2 L302.5,176.8 L303.3,164.4 L304.2,160.2 L305.0,163.5 L305.8,170.9 L306.7,187.4 L307.5,210.2 L308.4,232.4 L309.2,245.4 L310.1,251.4 L310.9,256.7 L311.7,257.9 L312.6,255.8 L313.4,241.0 L314.3,212.3 L315.1,182.7 L316.0,170.9 L316.8,170.0 L317.6,172.7 L318.5,176.5 L319.3,181.8 L320.2,186.0 L321.0,187.4 L321.9,185.7 L322.7,177.4 L323.5,165.6 L324.4,164.1 L325.2,165.8 L326.1,173.5 L326.9,189.8 L327.8,213.2 L328.6,219.1 L329.4,241.0 L330.3,238.0 L331.1,238.3 L332.0,240.1 L332.8,237.4 L333.7,223.2 L334.5,195.7 L335.3,166.1 L336.2,151.9 L337.0,152.2 L337.9,155.5 L338.7,159.3 L339.6,163.5 L340.4,167.3 L341.2,170.9 L342.1,171.5 L342.9,164.7 L343.8,149.6 L344.6,143.4 L345.4,146.9 L346.3,158.5 L347.1,175.6 L348.0,194.8 L348.8,223.2 L349.7,232.1 L350.5,238.3 L351.3,243.4 L352.2,246.9 L353.0,249.0 L353.9,245.1 L354.7,227.7 L355.6,211.4 L356.4,196.6 L357.2,192.8 L358.1,186.9 L358.9,188.0 L359.8,190.4 L360.6,197.8 L361.5,200.5 L362.3,198.7 L363.1,193.4 L364.0,180.3 L364.8,173.5 L365.7,172.9 L366.5,179.8 L367.4,191.0 L368.2,208.7 L369.0,220.6 L369.9,234.2 L370.7,239.2 L371.6,242.5 L372.4,242.2 L373.3,239.5 L374.1,235.4 L374.9,225.6 L375.8,213.5 L376.6,202.5 L377.5,192.8 L378.3,182.1 L379.2,176.2 L380.0,177.1 L380.8,183.3 L381.7,194.0 L382.5,191.9 L383.4,189.5 L384.2,167.0 L385.1,162.3 L385.9,163.8 L386.7,171.5 L387.6,185.7 L388.4,201.6 L389.3,205.2 L390.1,228.6 L391.0,237.2 L391.8,241.3 L392.6,243.1 L393.5,240.7 L394.3,226.2 L395.2,199.0 L396.0,170.0 L396.9,153.7 L397.7,151.9 L398.5,154.0 L399.4,157.3 L400.2,161.7 L401.1,165.3 L401.9,167.6 L402.8,167.6 L403.6,160.5 L404.4,144.5 L405.3,138.6 L406.1,143.7 L407.0,153.1 L407.8,169.1 L408.7,189.8 L409.5,205.5 L410.3,222.4 L411.2,228.6 L412.0,231.8 L412.9,233.0 L413.7,229.8 L414.6,215.3 L415.4,185.4 L416.2,155.8 L417.1,142.8 L417.9,144.2 L418.8,148.7 L419.6,152.5 L420.4,158.5 L421.3,162.6 L422.1,164.4 L423.0,163.5 L423.8,155.5 L424.7,138.6 L425.5,133.0 L426.3,136.9 L427.2,146.6 L428.0,161.4 L428.9,183.6 L429.7,209.6 L430.6,219.7 L431.4,225.3 L432.2,229.8 L433.1,231.5 L433.9,229.2 L434.8,215.0 L435.6,186.6 L436.5,157.0 L437.3,144.0 L438.1,144.8 L439.0,149.3 L439.8,152.8 L440.7,158.7 L441.5,162.6 L442.4,165.0 L443.2,165.0 L444.0,154.3 L444.9,141.0 L445.7,136.6 L446.6,142.2 L447.4,151.6 L448.3,167.3 L449.1,188.9 L449.9,215.6 L450.8,226.2 L451.6,233.3 L452.5,236.9 L453.3,239.8 L454.2,239.2 L455.0,235.1 L455.8,224.4 L456.7,209.3 L457.5,194.5 L458.4,182.7 L459.2,174.4 L460.1,178.0 L460.9,187.2 L461.7,188.3 L462.6,187.4 L463.4,184.8 L464.3,178.6 L465.1,162.9 L466.0,153.7 L466.8,162.3 L467.6,172.9 L468.5,180.9 L469.3,198.4 L470.2,206.1 L471.0,222.1 L471.9,233.0 L472.7,237.4 L473.5,238.9 L474.4,235.7 L475.2,221.2 L476.1,193.1 L476.9,162.0 L477.8,146.6 L478.6,145.7 L479.4,149.0 L480.3,152.2 L481.1,157.0 L482.0,160.8 L482.8,162.9 L483.7,162.3 L484.5,153.7 L485.3,136.3 L486.2,130.6 L487.0,135.4 L487.9,144.8 L488.7,159.3 L489.6,180.9 L490.4,186.3 L491.2,209.9 L492.1,220.3 L492.9,224.4 L493.8,226.5 L494.6,226.2 L495.4,220.0 L496.3,205.2 L497.1,187.7 L498.0,169.4 L498.8,161.4 L499.7,159.0 L500.5,159.6 L501.3,162.0 L502.2,166.7 L503.0,170.3 L503.9,169.4 L504.7,159.6 L505.6,139.5 L506.4,135.4 L507.2,141.0 L508.1,149.9 L508.9,161.4 L509.8,175.0 L510.6,163.2 L511.5,194.8 L512.3,209.9 L513.1,214.7 L514.0,216.4 L514.8,213.8 L515.7,207.9 L516.5,192.8 L517.4,178.3 L518.2,165.6 L519.0,155.2 L519.9,149.6 L520.7,149.0 L521.6,153.7 L522.4,157.9 L523.3,161.4 L524.1,161.7 L524.9,150.8 L525.8,144.5 L526.6,140.7 L527.5,136.6 L528.3,132.7 L529.2,128.9 L530.0,137.4 L530.8,193.1 L531.7,204.9 L532.5,210.8 L533.4,216.1 L534.2,217.6 L535.1,215.8 L535.9,200.2 L536.7,172.7 L537.6,145.1 L538.4,132.4 L539.3,134.8 L540.1,139.5 L541.0,145.1 L541.8,150.2 L542.6,156.7 L543.5,160.5 L544.3,159.0 L545.2,149.0 L546.0,130.9 L546.9,125.9 L547.7,131.8 L548.5,143.7 L549.4,159.0 L550.2,182.1 L551.1,209.0 L551.9,207.0 L552.8,226.5 L553.6,235.7 L554.4,237.7 L555.3,234.5 L556.1,220.9 L557.0,193.1 L557.8,161.7 L558.7,147.8 L559.5,147.2 L560.3,150.5 L561.2,153.7 L562.0,159.3 L562.9,162.9 L563.7,165.3 L564.6,165.3 L565.4,157.9 L566.2,141.9 L567.1,136.9 L567.9,142.2 L568.8,151.9 L569.6,167.6 L570.4,189.2 L571.3,204.9 L572.1,222.1 L573.0,227.7 L573.8,230.9 L574.7,231.8 L575.5,228.0 L576.3,213.8 L577.2,184.2 L578.0,152.5 L578.9,139.2 L579.7,141.0 L580.6,144.8 L581.4,149.6 L582.2,154.6 L583.1,159.6 L583.9,161.7 L584.8,160.5 L585.6,150.8 L586.5,132.1 L587.3,127.1 L588.1,132.7 L589.0,143.1 L589.8,158.2 L590.7,181.2 L591.5,186.6 L592.4,219.4 L593.2,226.2 L594.0,231.2 L594.9,233.0 L595.7,230.6 L596.6,217.0 L597.4,188.0 L598.3,156.1 L599.1,142.5 L599.9,143.4 L600.8,147.5 L601.6,151.1 L602.5,157.0 L603.3,161.1 L604.2,163.2 L605.0,163.2 L605.8,156.1 L606.7,140.4 L607.5,136.0 L608.4,141.3 L609.2,151.4 L610.1,167.9 L610.9,189.2 L611.7,369.4 L612.6,222.4 L613.4,231.5 L614.3,235.4 L615.1,237.4 L616.0,234.5 L616.8,220.0 L617.6,191.9 L618.5,159.0 L619.3,144.8 L620.2,144.8 L621.0,148.1 L621.9,151.4 L622.7,157.0 L623.5,160.8 L624.4,162.9 L625.2,162.6 L626.1,155.2 L626.9,139.5 L627.8,135.1 L628.6,140.7 L629.4,151.9 L630.3,169.1 L631.1,190.1 L632.0,209.9 L632.8,224.1 L633.7,232.7 L634.5,237.4 L635.3,240.1 L636.2,240.1 L637.0,234.2 L637.9,219.4 L638.7,200.5 L639.6,182.4 L640.4,172.4 L641.2,168.8 L642.1,170.0 L642.9,172.1 L643.8,177.1 L644.6,180.6 L645.4,179.8 L646.3,172.7 L647.1,157.0 L648.0,153.4 L648.8,157.0 L649.7,165.3 L650.5,178.0 L651.3,194.3 L652.2,216.1 L653.0,223.5 L653.9,232.4 L654.7,237.2 L655.6,238.6 L656.4,237.4 L657.2,233.3 L658.1,222.7 L658.9,206.7 L659.8,192.2 L660.6,180.6 L661.5,172.4 L662.3,175.3 L663.1,180.3 L664.0,183.3 L664.8,183.9 L665.7,182.1 L666.5,175.9 L667.4,160.5 L668.2,153.1 L669.0,162.9 L669.9,174.4 L670.7,183.0 L671.6,199.0 L672.4,215.3 L673.3,227.1 L674.1,234.8 L674.9,238.9 L675.8,240.7 L676.6,237.7 L677.5,223.8 L678.3,197.2 L679.2,165.8 L680.0,158.7" stroke="#9467bd" stroke-width="2" fill="none" opacity="0.8"/>
<!-- Total Generation -->
<path d="M80.0,191.9 L80.8,209.3 L81.7,217.0 L82.5,222.4 L83.4,221.2 L84.2,221.5 L85.1,229.5 L85.9,223.2 L86.7,222.4 L87.6,221.2 L88.4,220.3 L89.3,212.3 L90.1,211.1 L91.0,204.3 L91.8,196.9 L92.6,200.2 L93.5,198.7 L94.3,221.2 L95.2,214.1 L96.0,216.1 L96.9,204.3 L97.7,187.2 L98.5,185.7 L99.4,207.9 L100.2,194.5 L101.1,193.4 L101.9,165.8 L102.8,152.2 L103.6,146.0 L104.4,118.8 L105.3,120.9 L106.1,145.4 L107.0,145.1 L107.8,181.2 L108.7,195.4 L109.5,201.6 L110.3,201.4 L111.2,149.6 L112.0,124.1 L112.9,143.1 L113.7,137.1 L114.6,149.3 L115.4,159.3 L116.2,138.6 L117.1,148.4 L117.9,153.7 L118.8,165.6 L119.6,190.1 L120.4,154.3 L121.3,144.8 L122.1,130.9 L123.0,146.9 L123.8,139.2 L124.7,144.2 L125.5,175.9 L126.3,187.2 L127.2,204.3 L128.0,200.8 L128.9,193.7 L129.7,197.5 L130.6,163.2 L131.4,178.0 L132.2,146.3 L133.1,146.6 L133.9,126.5 L134.8,166.1 L135.6,175.0 L136.5,130.3 L137.3,125.3 L138.1,122.7 L139.0,120.3 L139.8,156.1 L140.7,146.6 L141.5,128.6 L142.4,141.9 L143.2,177.4 L144.0,180.9 L144.9,192.8 L145.7,195.7 L146.6,210.8 L147.4,229.2 L148.3,227.7 L149.1,227.1 L149.9,230.9 L150.8,217.9 L151.6,214.1 L152.5,210.8 L153.3,222.7 L154.2,215.6 L155.0,197.2 L155.8,175.3 L156.7,167.0 L157.5,162.9 L158.4,170.6 L159.2,182.1 L160.1,239.2 L160.9,222.1 L161.7,214.7 L162.6,220.3 L163.4,222.7 L164.3,213.8 L165.1,217.0 L166.0,204.6 L166.8,156.1 L167.6,167.9 L168.5,186.3 L169.3,187.4 L170.2,187.4 L171.0,175.0 L171.9,204.3 L172.7,193.7 L173.5,173.2 L174.4,183.3 L175.2,186.0 L176.1,178.0 L176.9,170.6 L177.8,173.5 L178.6,194.5 L179.4,164.7 L180.3,184.8 L181.1,157.0 L182.0,160.8 L182.8,174.4 L183.7,196.9 L184.5,204.6 L185.3,215.3 L186.2,207.3 L187.0,217.3 L187.9,188.3 L188.7,190.4 L189.6,175.9 L190.4,175.0 L191.2,147.5 L192.1,122.4 L192.9,135.1 L193.8,120.3 L194.6,161.4 L195.4,146.9 L196.3,155.2 L197.1,151.9 L198.0,162.0 L198.8,157.3 L199.7,164.7 L200.5,146.9 L201.3,162.6 L202.2,153.4 L203.0,155.8 L203.9,151.6 L204.7,181.2 L205.6,174.7 L206.4,151.1 L207.2,158.5 L208.1,159.9 L208.9,162.0 L209.8,167.3 L210.6,168.2 L211.5,200.5 L212.3,206.4 L213.1,183.9 L214.0,194.3 L214.8,180.6 L215.7,177.1 L216.5,144.5 L217.4,141.0 L218.2,126.2 L219.0,99.9 L219.9,75.9 L220.7,93.4 L221.6,147.8 L222.4,167.9 L223.3,191.3 L224.1,203.4 L224.9,216.4 L225.8,213.8 L226.6,206.4 L227.5,212.6 L228.3,215.3 L229.2,243.1 L230.0,247.8 L230.8,230.9 L231.7,218.5 L232.5,214.4 L233.4,211.1 L234.2,213.5 L235.1,215.6 L235.9,213.8 L236.7,211.1 L237.6,206.4 L238.4,203.1 L239.3,194.3 L240.1,211.1 L241.0,211.1 L241.8,213.8 L242.6,214.4 L243.5,214.4 L244.3,215.6 L245.2,213.8 L246.0,223.2 L246.9,246.0 L247.7,254.3 L248.5,258.2 L249.4,266.7 L250.2,263.8 L251.1,259.0 L251.9,259.0 L252.8,238.9 L253.6,210.8 L254.4,209.3 L255.3,199.3 L256.1,214.4 L257.0,207.6 L257.8,219.1 L258.7,184.8 L259.5,162.6 L260.3,152.5 L261.2,180.3 L262.0,194.3 L262.9,215.6 L263.7,223.5 L264.6,220.3 L265.4,217.3 L266.2,221.5 L267.1,221.5 L267.9,211.7 L268.8,255.5 L269.6,242.2 L270.4,243.4 L271.3,245.7 L272.1,259.3 L273.0,238.3 L273.8,200.8 L274.7,214.7 L275.5,228.6 L276.3,212.3 L277.2,207.6 L278.0,199.9 L278.9,201.1 L279.7,205.2 L280.6,210.5 L281.4,194.0 L282.2,187.4 L283.1,195.1 L283.9,200.5 L284.8,214.1 L285.6,198.1 L286.5,195.4 L287.3,194.0 L288.1,203.1 L289.0,196.6 L289.8,200.8 L290.7,191.9 L291.5,161.1 L292.4,151.4 L293.2,155.2 L294.0,138.6 L294.9,161.7 L295.7,162.3 L296.6,153.1 L297.4,158.7 L298.3,170.0 L299.1,180.0 L299.9,188.9 L300.8,199.6 L301.6,217.3 L302.5,202.5 L303.3,193.7 L304.2,207.6 L305.0,209.0 L305.8,207.9 L306.7,209.3 L307.5,211.7 L308.4,215.3 L309.2,216.7 L310.1,215.6 L310.9,214.1 L311.7,220.3 L312.6,222.4 L313.4,220.3 L314.3,220.3 L315.1,216.1 L316.0,211.4 L316.8,204.3 L317.6,204.6 L318.5,200.5 L319.3,190.4 L320.2,182.4 L321.0,199.0 L321.9,192.2 L322.7,194.5 L323.5,206.7 L324.4,198.7 L325.2,197.5 L326.1,196.9 L326.9,179.8 L327.8,166.7 L328.6,146.0 L329.4,121.2 L330.3,113.2 L331.1,112.0 L332.0,98.4 L332.8,96.3 L333.7,104.6 L334.5,100.2 L335.3,96.9 L336.2,78.0 L337.0,67.6 L337.9,68.5 L338.7,80.0 L339.6,100.8 L340.4,99.0 L341.2,109.9 L342.1,135.7 L342.9,139.8 L343.8,102.5 L344.6,122.9 L345.4,125.3 L346.3,133.3 L347.1,133.3 L348.0,142.5 L348.8,157.0 L349.7,159.0 L350.5,165.8 L351.3,177.7 L352.2,170.9 L353.0,168.5 L353.9,168.8 L354.7,128.3 L355.6,122.9 L356.4,123.5 L357.2,114.7 L358.1,110.8 L358.9,125.3 L359.8,122.1 L360.6,140.1 L361.5,153.4 L362.3,172.9 L363.1,114.1 L364.0,146.3 L364.8,165.3 L365.7,139.8 L366.5,116.4 L367.4,149.0 L368.2,154.0 L369.0,171.2 L369.9,152.5 L370.7,185.4 L371.6,172.7 L372.4,166.4 L373.3,173.2 L374.1,164.4 L374.9,158.2 L375.8,144.8 L376.6,142.2 L377.5,148.1 L378.3,156.4 L379.2,163.2 L380.0,160.8 L380.8,170.6 L381.7,181.8 L382.5,163.8 L383.4,154.9 L384.2,163.2 L385.1,170.6 L385.9,180.0 L386.7,188.6 L387.6,189.5 L388.4,193.1 L389.3,205.8 L390.1,225.0 L391.0,253.4 L391.8,246.3 L392.6,226.8 L393.5,242.2 L394.3,249.6 L395.2,214.4 L396.0,202.8 L396.9,203.7 L397.7,172.7 L398.5,180.6 L399.4,166.7 L400.2,154.6 L401.1,123.8 L401.9,138.9 L402.8,132.7 L403.6,107.9 L404.4,112.3 L405.3,119.4 L406.1,123.8 L407.0,145.4 L407.8,149.0 L408.7,156.1 L409.5,201.9 L410.3,218.8 L411.2,218.2 L412.0,231.5 L412.9,237.4 L413.7,220.3 L414.6,208.2 L415.4,211.1 L416.2,207.3 L417.1,207.3 L417.9,195.7 L418.8,178.0 L419.6,183.6 L420.4,170.6 L421.3,174.4 L422.1,183.0 L423.0,172.7 L423.8,168.2 L424.7,211.1 L425.5,217.6 L426.3,212.9 L427.2,209.3 L428.0,209.6 L428.9,205.5 L429.7,192.8 L430.6,191.6 L431.4,174.7 L432.2,167.0 L433.1,188.9 L433.9,196.6 L434.8,168.8 L435.6,156.7 L436.5,152.5 L437.3,161.1 L438.1,165.3 L439.0,146.6 L439.8,141.3 L440.7,125.0 L441.5,137.4 L442.4,198.1 L443.2,209.6 L444.0,199.0 L444.9,210.5 L445.7,214.4 L446.6,208.7 L447.4,200.2 L448.3,223.2 L449.1,222.1 L449.9,227.4 L450.8,233.6 L451.6,255.5 L452.5,253.1 L453.3,235.7 L454.2,236.3 L455.0,235.7 L455.8,235.4 L456.7,238.3 L457.5,242.5 L458.4,228.9 L459.2,241.9 L460.1,207.3 L460.9,203.4 L461.7,199.3 L462.6,204.0 L463.4,207.9 L464.3,211.7 L465.1,225.9 L466.0,236.3 L466.8,244.5 L467.6,251.4 L468.5,254.6 L469.3,253.4 L470.2,245.1 L471.0,241.0 L471.9,244.3 L472.7,235.7 L473.5,231.8 L474.4,196.9 L475.2,201.1 L476.1,207.0 L476.9,197.8 L477.8,194.8 L478.6,190.7 L479.4,185.7 L480.3,172.4 L481.1,158.5 L482.0,153.7 L482.8,154.0 L483.7,159.3 L484.5,158.7 L485.3,159.3 L486.2,167.6 L487.0,167.9 L487.9,170.3 L488.7,177.7 L489.6,184.2 L490.4,204.6 L491.2,184.8 L492.1,215.6 L492.9,210.8 L493.8,224.4 L494.6,230.6 L495.4,229.5 L496.3,229.8 L497.1,228.0 L498.0,226.2 L498.8,212.0 L499.7,219.7 L500.5,208.2 L501.3,205.8 L502.2,204.0 L503.0,207.9 L503.9,223.5 L504.7,223.0 L505.6,223.0 L506.4,226.2 L507.2,229.5 L508.1,229.2 L508.9,230.1 L509.8,235.1 L510.6,233.9 L511.5,236.3 L512.3,232.1 L513.1,230.6 L514.0,229.8 L514.8,235.7 L515.7,238.3 L516.5,239.5 L517.4,245.7 L518.2,248.1 L519.0,238.3 L519.9,227.4 L520.7,224.4 L521.6,223.2 L522.4,206.1 L523.3,189.5 L524.1,200.2 L524.9,197.5 L525.8,189.2 L526.6,181.5 L527.5,183.9 L528.3,174.1 L529.2,169.1 L530.0,164.4 L530.8,146.3 L531.7,152.2 L532.5,171.2 L533.4,172.7 L534.2,173.2 L535.1,137.4 L535.9,133.3 L536.7,136.6 L537.6,131.5 L538.4,135.4 L539.3,121.2 L540.1,117.6 L541.0,125.9 L541.8,119.7 L542.6,113.8 L543.5,131.2 L544.3,144.2 L545.2,126.5 L546.0,122.1 L546.9,128.6 L547.7,133.6 L548.5,125.3 L549.4,141.3 L550.2,159.0 L551.1,173.2 L551.9,157.3 L552.8,157.9 L553.6,171.5 L554.4,170.6 L555.3,162.6 L556.1,158.5 L557.0,140.1 L557.8,127.1 L558.7,173.5 L559.5,188.9 L560.3,206.4 L561.2,182.1 L562.0,160.8 L562.9,198.4 L563.7,182.7 L564.6,191.9 L565.4,159.9 L566.2,148.1 L567.1,185.4 L567.9,206.1 L568.8,184.8 L569.6,192.8 L570.4,191.6 L571.3,179.8 L572.1,199.6 L573.0,216.7 L573.8,220.3 L574.7,219.1 L575.5,236.9 L576.3,222.1 L577.2,214.7 L578.0,216.4 L578.9,210.8 L579.7,217.3 L580.6,217.3 L581.4,191.6 L582.2,174.7 L583.1,170.3 L583.9,163.5 L584.8,168.8 L585.6,160.5 L586.5,157.0 L587.3,157.0 L588.1,159.6 L589.0,158.2 L589.8,162.0 L590.7,174.1 L591.5,201.4 L592.4,193.4 L593.2,196.9 L594.0,202.2 L594.9,188.6 L595.7,188.6 L596.6,186.9 L597.4,156.4 L598.3,156.7 L599.1,171.2 L599.9,180.3 L600.8,183.9 L601.6,178.6 L602.5,189.8 L603.3,183.0 L604.2,175.9 L605.0,174.1 L605.8,145.7 L606.7,170.0 L607.5,151.9 L608.4,159.9 L609.2,170.0 L610.1,166.4 L610.9,176.8 L611.7,190.7 L612.6,195.7 L613.4,198.7 L614.3,184.8 L615.1,192.8 L616.0,216.1 L616.8,228.3 L617.6,224.1 L618.5,240.7 L619.3,237.7 L620.2,218.2 L621.0,206.1 L621.9,189.5 L622.7,183.6 L623.5,163.5 L624.4,170.0 L625.2,175.3 L626.1,192.5 L626.9,237.2 L627.8,236.3 L628.6,237.4 L629.4,286.6 L630.3,288.0 L631.1,286.9 L632.0,277.7 L632.8,258.8 L633.7,222.4 L634.5,209.0 L635.3,205.5 L636.2,223.2 L637.0,236.6 L637.9,235.7 L638.7,239.5 L639.6,240.1 L640.4,227.1 L641.2,232.4 L642.1,221.8 L642.9,217.3 L643.8,233.0 L644.6,251.4 L645.4,278.9 L646.3,258.8 L647.1,255.8 L648.0,236.9 L648.8,215.0 L649.7,187.2 L650.5,170.0 L651.3,165.0 L652.2,176.2 L653.0,165.0 L653.9,167.6 L654.7,170.3 L655.6,169.4 L656.4,168.2 L657.2,167.6 L658.1,167.3 L658.9,154.6 L659.8,179.5 L660.6,165.3 L661.5,159.3 L662.3,185.1 L663.1,192.2 L664.0,157.6 L664.8,157.9 L665.7,175.0 L666.5,144.2 L667.4,144.5 L668.2,189.8 L669.0,175.9 L669.9,176.2 L670.7,177.7 L671.6,188.6 L672.4,167.6 L673.3,177.4 L674.1,181.2 L674.9,177.4 L675.8,178.9 L676.6,177.4 L677.5,178.9 L678.3,148.4 L679.2,157.3 L680.0,188.6" stroke="#8c564b" stroke-width="2" fill="none" opacity="0.8"/>
<!-- Forecast Difference -->
<path d="M80.0,420.0 L80.8,420.0 L81.7,420.0 L82.5,420.0 L83.4,420.0 L84.2,420.0 L85.1,420.0 L85.9,420.0 L86.7,420.0 L87.6,420.0 L88.4,420.0 L89.3,420.0 L90.1,420.0 L91.0,420.0 L91.8,420.0 L92.6,420.0 L93.5,420.0 L94.3,420.0 L95.2,420.0 L96.0,420.0 L96.9,420.0 L97.7,420.0 L98.5,420.0 L99.4,420.0 L100.2,420.0 L101.1,420.0 L101.9,420.0 L102.8,420.0 L103.6,420.0 L104.4,420.0 L105.3,420.0 L106.1,420.0 L107.0,420.0 L107.8,420.0 L108.7,420.0 L109.5,420.0 L110.3,420.0 L111.2,420.0 L112.0,420.0 L112.9,420.0 L113.7,420.0 L114.6,420.0 L115.4,420.0 L116.2,420.0 L117.1,420.0 L117.9,420.0 L118.8,420.0 L119.6,420.0 L120.4,420.0 L121.3,420.0 L122.1,420.0 L123.0,420.0 L123.8,420.0 L124.7,420.0 L125.5,420.0 L126.3,420.0 L127.2,420.0 L128.0,420.0 L128.9,420.0 L129.7,420.0 L130.6,420.0 L131.4,420.0 L132.2,420.0 L133.1,420.0 L133.9,420.0 L134.8,420.0 L135.6,420.0 L136.5,420.0 L137.3,420.0 L138.1,420.0 L139.0,420.0 L139.8,420.0 L140.7,420.0 L141.5,420.0 L142.4,420.0 L143.2,420.0 L144.0,420.0 L144.9,420.0 L145.7,420.0 L146.6,420.0 L147.4,420.0 L148.3,420.0 L149.1,420.0 L149.9,420.0 L150.8,420.0 L151.6,420.0 L152.5,420.0 L153.3,420.0 L154.2,420.0 L155.0,420.0 L155.8,420.0 L156.7,420.0 L157.5,420.0 L158.4,420.0 L159.2,420.0 L160.1,420.0 L160.9,420.0 L161.7,420.0 L162.6,420.0 L163.4,420.0 L164.3,420.0 L165.1,420.0 L166.0,420.0 L166.8,420.0 L167.6,420.0 L168.5,420.0 L169.3,420.0 L170.2,420.0 L171.0,420.0 L171.9,420.0 L172.7,420.0 L173.5,420.0 L174.4,420.0 L175.2,420.0 L176.1,420.0 L176.9,420.0 L177.8,420.0 L178.6,420.0 L179.4,420.0 L180.3,420.0 L181.1,420.0 L182.0,420.0 L182.8,420.0 L183.7,420.0 L184.5,420.0 L185.3,420.0 L186.2,420.0 L187.0,420.0 L187.9,420.0 L188.7,420.0 L189.6,420.0 L190.4,420.0 L191.2,420.0 L192.1,420.0 L192.9,420.0 L193.8,420.0 L194.6,420.0 L195.4,420.0 L196.3,420.0 L197.1,420.0 L198.0,420.0 L198.8,420.0 L199.7,420.0 L200.5,420.0 L201.3,420.0 L202.2,420.0 L203.0,420.0 L203.9,420.0 L204.7,420.0 L205.6,420.0 L206.4,420.0 L207.2,420.0 L208.1,420.0 L208.9,420.0 L209.8,420.0 L210.6,420.0 L211.5,420.0 L212.3,420.0 L213.1,420.0 L214.0,420.0 L214.8,420.0 L215.7,420.0 L216.5,420.0 L217.4,420.0 L218.2,420.0 L219.0,420.0 L219.9,420.0 L220.7,420.0 L221.6,420.0 L222.4,420.0 L223.3,420.0 L224.1,420.0 L224.9,420.0 L225.8,420.0 L226.6,420.0 L227.5,420.0 L228.3,420.0 L229.2,420.0 L230.0,420.0 L230.8,420.0 L231.7,420.0 L232.5,420.0 L233.4,420.0 L234.2,420.0 L235.1,420.0 L235.9,420.0 L236.7,420.0 L237.6,420.0 L238.4,420.0 L239.3,420.0 L240.1,420.0 L241.0,420.0 L241.8,420.0 L242.6,420.0 L243.5,420.0 L244.3,420.0 L245.2,420.0 L246.0,420.0 L246.9,420.0 L247.7,420.0 L248.5,420.0 L249.4,420.0 L250.2,420.0 L251.1,420.0 L251.9,420.0 L252.8,420.0 L253.6,420.0 L254.4,420.0 L255.3,420.0 L256.1,420.0 L257.0,420.0 L257.8,420.0 L258.7,420.0 L259.5,420.0 L260.3,420.0 L261.2,420.0 L262.0,420.0 L262.9,420.0 L263.7,420.0 L264.6,420.0 L265.4,420.0 L266.2,420.0 L267.1,420.0 L267.9,420.0 L268.8,420.0 L269.6,420.0 L270.4,420.0 L271.3,420.0 L272.1,420.0 L273.0,420.0 L273.8,420.0 L274.7,420.0 L275.5,420.0 L276.3,420.0 L277.2,420.0 L278.0,420.0 L278.9,420.0 L279.7,420.0 L280.6,420.0 L281.4,420.0 L282.2,420.0 L283.1,420.0 L283.9,420.0 L284.8,420.0 L285.6,420.0 L286.5,420.0 L287.3,420.0 L288.1,420.0 L289.0,420.0 L289.8,420.0 L290.7,420.0 L291.5,420.0 L292.4,420.0 L293.2,420.0 L294.0,420.0 L294.9,420.0 L295.7,420.0 L296.6,420.0 L297.4,420.0 L298.3,420.0 L299.1,420.0 L299.9,420.0 L300.8,420.0 L301.6,420.0 L302.5,420.0 L303.3,420.0 L304.2,420.0 L305.0,420.0 L305.8,420.0 L306.7,420.0 L307.5,420.0 L308.4,420.0 L309.2,420.0 L310.1,420.0 L310.9,420.0 L311.7,420.0 L312.6,420.0 L313.4,420.0 L314.3,420.0 L315.1,420.0 L316.0,420.0 L316.8,420.0 L317.6,420.0 L318.5,420.0 L319.3,420.0 L320.2,420.0 L321.0,420.0 L321.9,420.0 L322.7,420.0 L323.5,420.0 L324.4,420.0 L325.2,420.0 L326.1,420.0 L326.9,420.0 L327.8,420.0 L328.6,420.0 L329.4,420.0 L330.3,420.0 L331.1,420.0 L332.0,420.0 L332.8,420.0 L333.7,420.0 L334.5,420.0 L335.3,420.0 L336.2,420.0 L337.0,420.0 L337.9,420.0 L338.7,420.0 L339.6,420.0 L340.4,420.0 L341.2,420.0 L342.1,420.0 L342.9,420.0 L343.8,420.0 L344.6,420.0 L345.4,420.0 L346.3,420.0 L347.1,420.0 L348.0,420.0 L348.8,420.0 L349.7,420.0 L350.5,420.0 L351.3,420.0 L352.2,420.0 L353.0,420.0 L353.9,420.0 L354.7,420.0 L355.6,420.0 L356.4,420.0 L357.2,420.0 L358.1,420.0 L358.9,420.0 L359.8,420.0 L360.6,420.0 L361.5,420.0 L362.3,420.0 L363.1,420.0 L364.0,420.0 L364.8,420.0 L365.7,420.0 L366.5,420.0 L367.4,420.0 L368.2,420.0 L369.0,420.0 L369.9,420.0 L370.7,420.0 L371.6,420.0 L372.4,420.0 L373.3,420.0 L374.1,420.0 L374.9,420.0 L375.8,420.0 L376.6,420.0 L377.5,420.0 L378.3,420.0 L379.2,420.0 L380.0,420.0 L380.8,420.0 L381.7,420.0 L382.5,420.0 L383.4,420.0 L384.2,420.0 L385.1,420.0 L385.9,420.0 L386.7,420.0 L387.6,420.0 L388.4,420.0 L389.3,420.0 L390.1,420.0 L391.0,420.0 L391.8,420.0 L392.6,420.0 L393.5,420.0 L394.3,420.0 L395.2,420.0 L396.0,420.0 L396.9,420.0 L397.7,420.0 L398.5,420.0 L399.4,420.0 L400.2,420.0 L401.1,420.0 L401.9,420.0 L402.8,420.0 L403.6,420.0 L404.4,420.0 L405.3,420.0 L406.1,420.0 L407.0,420.0 L407.8,420.0 L408.7,420.0 L409.5,420.0 L410.3,420.0 L411.2,420.0 L412.0,420.0 L412.9,420.0 L413.7,420.0 L414.6,420.0 L415.4,420.0 L416.2,420.0 L417.1,420.0 L417.9,420.0 L418.8,420.0 L419.6,420.0 L420.4,420.0 L421.3,420.0 L422.1,420.0 L423.0,420.0 L423.8,420.0 L424.7,420.0 L425.5,420.0 L426.3,420.0 L427.2,420.0 L428.0,420.0 L428.9,420.0 L429.7,420.0 L430.6,420.0 L431.4,420.0 L432.2,420.0 L433.1,420.0 L433.9,420.0 L434.8,420.0 L435.6,420.0 L436.5,420.0 L437.3,420.0 L438.1,420.0 L439.0,420.0 L439.8,420.0 L440.7,420.0 L441.5,420.0 L442.4,420.0 L443.2,420.0 L444.0,420.0 L444.9,420.0 L445.7,420.0 L446.6,420.0 L447.4,420.0 L448.3,420.0 L449.1,420.0 L449.9,420.0 L450.8,420.0 L451.6,420.0 L452.5,420.0 L453.3,420.0 L454.2,420.0 L455.0,420.0 L455.8,420.0 L456.7,420.0 L457.5,420.0 L458.4,420.0 L459.2,420.0 L460.1,420.0 L460.9,420.0 L461.7,420.0 L462.6,420.0 L463.4,420.0 L464.3,420.0 L465.1,420.0 L466.0,420.0 L466.8,420.0 L467.6,420.0 L468.5,420.0 L469.3,420.0 L470.2,420.0 L471.0,420.0 L471.9,420.0 L472.7,420.0 L473.5,420.0 L474.4,420.0 L475.2,420.0 L476.1,420.0 L476.9,420.0 L477.8,420.0 L478.6,420.0 L479.4,420.0 L480.3,420.0 L481.1,420.0 L482.0,420.0 L482.8,420.0 L483.7,420.0 L484.5,420.0 L485.3,420.0 L486.2,420.0 L487.0,420.0 L487.9,420.0 L488.7,420.0 L489.6,420.0 L490.4,420.0 L491.2,420.0 L492.1,420.0 L492.9,420.0 L493.8,420.0 L494.6,420.0 L495.4,420.0 L496.3,420.0 L497.1,420.0 L498.0,420.0 L498.8,420.0 L499.7,420.0 L500.5,420.0 L501.3,420.0 L502.2,420.0 L503.0,420.0 L503.9,420.0 L504.7,420.0 L505.6,420.0 L506.4,420.0 L507.2,420.0 L508.1,420.0 L508.9,420.0 L509.8,420.0 L510.6,420.0 L511.5,420.0 L512.3,420.0 L513.1,420.0 L514.0,420.0 L514.8,420.0 L515.7,420.0 L516.5,420.0 L517.4,420.0 L518.2,420.0 L519.0,420.0 L519.9,420.0 L520.7,420.0 L521.6,420.0 L522.4,420.0 L523.3,420.0 L524.1,420.0 L524.9,420.0 L525.8,420.0 L526.6,420.0 L527.5,420.0 L528.3,420.0 L529.2,420.0 L530.0,420.0 L530.8,420.0 L531.7,420.0 L532.5,420.0 L533.4,420.0 L534.2,420.0 L535.1,420.0 L535.9,420.0 L536.7,420.0 L537.6,420.0 L538.4,420.0 L539.3,420.0 L540.1,420.0 L541.0,420.0 L541.8,420.0 L542.6,420.0 L543.5,420.0 L544.3,420.0 L545.2,420.0 L546.0,420.0 L546.9,420.0 L547.7,420.0 L548.5,420.0 L549.4,420.0 L550.2,420.0 L551.1,420.0 L551.9,420.0 L552.8,420.0 L553.6,420.0 L554.4,420.0 L555.3,420.0 L556.1,420.0 L557.0,420.0 L557.8,420.0 L558.7,420.0 L559.5,420.0 L560.3,420.0 L561.2,420.0 L562.0,420.0 L562.9,420.0 L563.7,420.0 L564.6,420.0 L565.4,420.0 L566.2,420.0 L567.1,420.0 L567.9,420.0 L568.8,420.0 L569.6,420.0 L570.4,420.0 L571.3,420.0 L572.1,420.0 L573.0,420.0 L573.8,420.0 L574.7,420.0 L575.5,420.0 L576.3,420.0 L577.2,420.0 L578.0,420.0 L578.9,420.0 L579.7,420.0 L580.6,420.0 L581.4,420.0 L582.2,420.0 L583.1,420.0 L583.9,420.0 L584.8,420.0 L585.6,420.0 L586.5,420.0 L587.3,420.0 L588.1,420.0 L589.0,420.0 L589.8,420.0 L590.7,420.0 L591.5,420.0 L592.4,420.0 L593.2,420.0 L594.0,420.0 L594.9,420.0 L595.7,420.0 L596.6,420.0 L597.4,420.0 L598.3,420.0 L599.1,420.0 L599.9,420.0 L600.8,420.0 L601.6,420.0 L602.5,420.0 L603.3,420.0 L604.2,420.0 L605.0,420.0 L605.8,420.0 L606.7,420.0 L607.5,420.0 L608.4,420.0 L609.2,420.0 L610.1,420.0 L610.9,420.0 L611.7,420.0 L612.6,420.0 L613.4,420.0 L614.3,420.0 L615.1,420.0 L616.0,420.0 L616.8,420.0 L617.6,420.0 L618.5,420.0 L619.3,420.0 L620.2,420.0 L621.0,420.0 L621.9,420.0 L622.7,420.0 L623.5,420.0 L624.4,420.0 L625.2,420.0 L626.1,420.0 L626.9,420.0 L627.8,420.0 L628.6,420.0 L629.4,420.0 L630.3,420.0 L631.1,420.0 L632.0,420.0 L632.8,420.0 L633.7,420.0 L634.5,420.0 L635.3,420.0 L636.2,420.0 L637.0,420.0 L637.9,420.0 L638.7,420.0 L639.6,420.0 L640.4,420.0 L641.2,420.0 L642.1,420.0 L642.9,420.0 L643.8,420.0 L644.6,420.0 L645.4,420.0 L646.3,420.0 L647.1,420.0 L648.0,420.0 L648.8,420.0 L649.7,420.0 L650.5,420.0 L651.3,420.0 L652.2,420.0 L653.0,420.0 L653.9,420.0 L654.7,420.0 L655.6,420.0 L656.4,420.0 L657.2,420.0 L658.1,420.0 L658.9,420.0 L659.8,420.0 L660.6,420.0 L661.5,420.0 L662.3,420.0 L663.1,420.0 L664.0,420.0 L664.8,420.0 L665.7,420.0 L666.5,420.0 L667.4,420.0 L668.2,420.0 L669.0,420.0 L669.9,420.0 L670.7,420.0 L671.6,420.0 L672.4,420.0 L673.3,420.0 L674.1,420.0 L674.9,420.0 L675.8,420.0 L676.6,420.0 L677.5,420.0 L678.3,420.0 L679.2,420.0 L680.0,420.0" stroke="#e377c2" stroke-width="2" fill="none" opacity="0.8"/>

<!-- Legend -->
<line x1="690" y1="70" x2="705" y2="70" stroke="#1f77b4" stroke-width="3"/>
<text x="710" y="74" class="legend">Wind Generation</text>
<line x1="690" y1="88" x2="705" y2="88" stroke="#ff7f0e" stroke-width="3"/>
<text x="710" y="92" class="legend">Hydro Generation</text>
<line x1="690" y1="106" x2="705" y2="106" stroke="#2ca02c" stroke-width="3"/>
<text x="710" y="110" class="legend">Thermal Generation</text>
<line x1="690" y1="124" x2="705" y2="124" stroke="#d62728" stroke-width="3"/>
<text x="710" y="128" class="legend">Solar Generation</text>
<line x1="690" y1="142" x2="705" y2="142" stroke="#9467bd" stroke-width="3"/>
<text x="710" y="146" class="legend">Forecast</text>
<line x1="690" y1="160" x2="705" y2="160" stroke="#8c564b" stroke-width="3"/>
<text x="710" y="164" class="legend">Total Generation</text>
<line x1="690" y1="178" x2="705" y2="178" stroke="#e377c2" stroke-width="3"/>
<text x="710" y="182" class="legend">Forecast Difference</text>

<!-- Date range -->
<text x="80" y="495" class="legend">Range: 11/08 - 12/08/2025 (713 records)</text>
</svg>