<?xml version="1.0" encoding="UTF-8"?>
<svg width="800" height="500" xmlns="http://www.w3.org/2000/svg">
<style>
.axis-line { stroke: #333; stroke-width: 1; }
.grid-line { stroke: #ddd; stroke-width: 0.5; }
.title { font: 16px Arial; text-anchor: middle; fill: #333; }
.axis-label { font: 12px Arial; text-anchor: middle; fill: #666; }
.legend { font: 10px Arial; fill: #333; }
</style>

<!-- Title -->
<text x="400.0" y="25" class="title">Northwestern Energy Generation Data - Past 30 Days</text>

<!-- Plot area background -->
<rect x="80" y="50" width="600" height="370" fill="white" stroke="#ddd"/>

<!-- Y-axis -->
<line x1="80" y1="50" x2="80" y2="420" class="axis-line"/>
<text x="30" y="235.0" class="axis-label" transform="rotate(-90, 30, 235.0)">Generation (MW)</text>

<!-- X-axis -->
<line x1="80" y1="420" x2="680" y2="420" class="axis-line"/>
<text x="380.0" y="480" class="axis-label">Time</text>
<line x1="80" y1="420.0" x2="680" y2="420.0" class="grid-line"/>
<text x="70" y="425.0" class="legend" text-anchor="end">0</text>
<line x1="80" y1="327.5" x2="680" y2="327.5" class="grid-line"/>
<text x="70" y="332.5" class="legend" text-anchor="end">333</text>
<line x1="80" y1="235.0" x2="680" y2="235.0" class="grid-line"/>
<text x="70" y="240.0" class="legend" text-anchor="end">667</text>
<line x1="80" y1="142.5" x2="680" y2="142.5" class="grid-line"/>
<text x="70" y="147.5" class="legend" text-anchor="end">1000</text>
<line x1="80" y1="50.0" x2="680" y2="50.0" class="grid-line"/>
<text x="70" y="55.0" class="legend" text-anchor="end">1334</text>
<!-- Wind Generation -->
<path d="M80.0,417.8 L80.8,417.8 L81.7,420.0 L82.5,419.4 L83.4,412.2 L84.2,419.4 L85.0,408.1 L85.9,413.9 L86.7,390.3 L87.6,413.9 L88.4,415.8 L89.3,416.9 L90.1,415.0 L90.9,416.4 L91.8,411.4 L92.6,415.0 L93.5,416.4 L94.3,416.1 L95.1,412.5 L96.0,417.8 L96.8,416.7 L97.7,418.1 L98.5,412.2 L99.4,409.5 L100.2,409.2 L101.0,409.7 L101.9,401.4 L102.7,395.0 L103.6,381.7 L104.4,378.9 L105.2,356.2 L106.1,395.6 L106.9,392.8 L107.8,401.7 L108.6,396.7 L109.5,415.6 L110.3,417.2 L111.1,418.6 L112.0,411.4 L112.8,395.9 L113.7,380.0 L114.5,388.4 L115.3,374.5 L116.2,371.2 L117.0,384.5 L117.9,398.6 L118.7,405.3 L119.6,394.5 L120.4,397.8 L121.2,398.9 L122.1,388.6 L122.9,404.2 L123.8,385.3 L124.6,400.6 L125.4,403.4 L126.3,403.9 L127.1,416.4 L128.0,414.2 L128.8,405.0 L129.6,393.1 L130.5,394.8 L131.3,383.4 L132.2,369.8 L133.0,354.8 L133.9,359.2 L134.7,372.0 L135.5,367.6 L136.4,367.0 L137.2,360.1 L138.1,330.1 L138.9,358.1 L139.7,359.0 L140.6,358.4 L141.4,364.2 L142.3,359.0 L143.1,355.1 L144.0,357.0 L144.8,359.0 L145.6,358.7 L146.5,360.6 L147.3,334.0 L148.2,323.2 L149.0,332.3 L149.8,334.3 L150.7,335.4 L151.5,327.9 L152.4,326.5 L153.2,321.8 L154.1,326.8 L154.9,329.0 L155.7,329.0 L156.6,326.5 L157.4,326.8 L158.3,322.3 L159.1,342.9 L159.9,334.0 L160.8,337.9 L161.6,335.1 L162.5,339.0 L163.3,346.7 L164.2,352.6 L165.0,341.8 L165.8,351.2 L166.7,357.6 L167.5,336.5 L168.4,324.8 L169.2,314.8 L170.0,320.9 L170.9,317.1 L171.7,319.3 L172.6,318.7 L173.4,322.3 L174.2,319.8 L175.1,320.7 L175.9,319.3 L176.8,332.6 L177.6,337.0 L178.5,342.3 L179.3,333.4 L180.1,325.9 L181.0,334.5 L181.8,346.7 L182.7,358.4 L183.5,353.1 L184.3,360.1 L185.2,352.0 L186.0,349.2 L186.9,375.3 L187.7,386.4 L188.6,393.1 L189.4,406.1 L190.2,402.2 L191.1,410.0 L191.9,412.0 L192.8,410.6 L193.6,412.5 L194.4,398.6 L195.3,410.3 L196.1,413.1 L197.0,413.3 L197.8,409.2 L198.7,409.7 L199.5,403.6 L200.3,406.7 L201.2,400.0 L202.0,388.1 L202.9,385.0 L203.7,393.1 L204.5,399.5 L205.4,398.6 L206.2,401.7 L207.1,381.4 L207.9,398.6 L208.8,385.0 L209.6,395.9 L210.4,416.7 L211.3,413.1 L212.1,409.2 L213.0,408.9 L213.8,413.1 L214.6,413.9 L215.5,408.3 L216.3,402.8 L217.2,392.0 L218.0,390.0 L218.8,399.7 L219.7,401.7 L220.5,399.7 L221.4,400.0 L222.2,401.7 L223.1,406.4 L223.9,402.8 L224.7,395.0 L225.6,390.9 L226.4,383.9 L227.3,395.9 L228.1,405.3 L228.9,407.2 L229.8,406.4 L230.6,411.7 L231.5,410.8 L232.3,414.5 L233.2,413.9 L234.0,417.2 L234.8,415.0 L235.7,416.1 L236.5,416.9 L237.4,415.0 L238.2,404.5 L239.0,410.8 L239.9,409.2 L240.7,398.4 L241.6,402.2 L242.4,402.8 L243.3,395.9 L244.1,381.7 L244.9,376.7 L245.8,378.1 L246.6,370.1 L247.5,360.1 L248.3,367.8 L249.1,383.7 L250.0,392.5 L250.8,403.6 L251.7,415.0 L252.5,417.8 L253.4,418.9 L254.2,416.7 L255.0,418.3 L255.9,418.1 L256.7,417.5 L257.6,418.1 L258.4,415.6 L259.2,411.4 L260.1,413.1 L260.9,411.4 L261.8,396.7 L262.6,389.2 L263.5,377.3 L264.3,372.8 L265.1,370.3 L266.0,382.3 L266.8,379.8 L267.7,383.9 L268.5,395.3 L269.3,403.1 L270.2,408.3 L271.0,417.8 L271.9,418.1 L272.7,416.9 L273.5,417.8 L274.4,418.6 L275.2,418.9 L276.1,417.5 L276.9,415.6 L277.8,410.3 L278.6,395.3 L279.4,389.5 L280.3,393.1 L281.1,398.6 L282.0,403.6 L282.8,413.1 L283.6,415.0 L284.5,415.0 L285.3,411.7 L286.2,398.9 L287.0,390.6 L287.9,380.3 L288.7,355.9 L289.5,357.8 L290.4,399.5 L291.2,407.2 L292.1,408.1 L292.9,407.2 L293.7,400.3 L294.6,364.8 L295.4,359.8 L296.3,352.6 L297.1,354.8 L298.0,372.3 L298.8,379.2 L299.6,385.9 L300.5,392.5 L301.3,392.3 L302.2,391.7 L303.0,388.6 L303.8,389.8 L304.7,378.1 L305.5,394.8 L306.4,382.3 L307.2,382.5 L308.1,355.9 L308.9,377.3 L309.7,383.4 L310.6,400.0 L311.4,392.0 L312.3,397.8 L313.1,393.4 L313.9,409.2 L314.8,412.8 L315.6,413.3 L316.5,419.7 L317.3,420.0 L318.1,417.8 L319.0,418.1 L319.8,420.0 L320.7,417.2 L321.5,416.7 L322.4,412.2 L323.2,416.1 L324.0,413.9 L324.9,408.9 L325.7,395.3 L326.6,392.8 L327.4,396.1 L328.2,395.0 L329.1,390.0 L329.9,393.9 L330.8,405.6 L331.6,403.1 L332.5,399.7 L333.3,407.8 L334.1,412.5 L335.0,411.7 L335.8,415.3 L336.7,419.4 L337.5,418.6 L338.3,419.7 L339.2,419.4 L340.0,419.2 L340.9,418.1 L341.7,416.9 L342.6,412.5 L343.4,412.8 L344.2,411.1 L345.1,410.8 L345.9,412.2 L346.8,412.0 L347.6,410.8 L348.4,401.4 L349.3,407.5 L350.1,393.1 L351.0,407.2 L351.8,398.6 L352.7,385.3 L353.5,386.1 L354.3,377.5 L355.2,350.9 L356.0,372.3 L356.9,367.0 L357.7,366.2 L358.5,369.5 L359.4,388.4 L360.2,406.1 L361.1,408.6 L361.9,410.8 L362.7,393.4 L363.6,378.9 L364.4,368.4 L365.3,365.9 L366.1,363.7 L367.0,371.2 L367.8,378.4 L368.6,378.7 L369.5,383.7 L370.3,398.6 L371.2,407.0 L372.0,404.2 L372.8,403.4 L373.7,409.7 L374.5,404.2 L375.4,408.6 L376.2,414.2 L377.1,411.1 L377.9,410.6 L378.7,409.7 L379.6,413.1 L380.4,410.3 L381.3,415.6 L382.1,410.6 L382.9,403.9 L383.8,408.1 L384.6,402.0 L385.5,393.9 L386.3,384.2 L387.2,382.5 L388.0,391.4 L388.8,398.4 L389.7,408.3 L390.5,413.3 L391.4,418.1 L392.2,397.5 L393.0,401.1 L393.9,400.3 L394.7,406.7 L395.6,402.2 L396.4,408.1 L397.3,407.5 L398.1,413.9 L398.9,415.8 L399.8,418.9 L400.6,418.6 L401.5,419.7 L402.3,417.8 L403.1,416.4 L404.0,403.9 L404.8,402.5 L405.7,392.0 L406.5,391.4 L407.3,392.3 L408.2,392.8 L409.0,395.6 L409.9,393.6 L410.7,393.6 L411.6,399.5 L412.4,412.5 L413.2,407.0 L414.1,391.1 L414.9,390.9 L415.8,388.6 L416.6,377.0 L417.4,373.4 L418.3,394.2 L419.1,407.8 L420.0,405.0 L420.8,402.0 L421.7,408.1 L422.5,404.2 L423.3,402.2 L424.2,402.5 L425.0,405.3 L425.9,403.6 L426.7,385.9 L427.5,389.2 L428.4,383.1 L429.2,368.1 L430.1,379.8 L430.9,363.1 L431.8,368.7 L432.6,350.6 L433.4,355.9 L434.3,365.3 L435.1,361.2 L436.0,368.1 L436.8,372.0 L437.6,384.5 L438.5,393.1 L439.3,412.2 L440.2,418.9 L441.0,420.0 L441.9,420.0 L442.7,420.0 L443.5,417.8 L444.4,415.8 L445.2,413.6 L446.1,412.8 L446.9,412.2 L447.7,413.3 L448.6,416.1 L449.4,415.8 L450.3,410.8 L451.1,412.2 L451.9,384.8 L452.8,402.0 L453.6,405.8 L454.5,399.2 L455.3,405.0 L456.2,410.6 L457.0,411.7 L457.8,391.4 L458.7,383.4 L459.5,387.3 L460.4,389.5 L461.2,401.4 L462.0,412.5 L462.9,412.5 L463.7,414.2 L464.6,410.0 L465.4,407.0 L466.3,397.2 L467.1,393.9 L467.9,391.4 L468.8,399.2 L469.6,388.9 L470.5,357.8 L471.3,374.5 L472.1,380.9 L473.0,369.8 L473.8,371.7 L474.7,366.4 L475.5,401.1 L476.4,408.6 L477.2,410.0 L478.0,414.7 L478.9,405.6 L479.7,412.0 L480.6,412.8 L481.4,412.0 L482.2,404.2 L483.1,402.2 L483.9,403.4 L484.8,412.8 L485.6,415.3 L486.5,419.4 L487.3,410.6 L488.1,418.9 L489.0,420.0 L489.8,420.0 L490.7,419.4 L491.5,416.7 L492.3,412.5 L493.2,413.1 L494.0,416.1 L494.9,418.3 L495.7,420.0 L496.5,420.0 L497.4,420.0 L498.2,420.0 L499.1,419.7 L499.9,418.6 L500.8,418.6 L501.6,418.6 L502.4,417.8 L503.3,413.6 L504.1,410.3 L505.0,406.1 L505.8,402.5 L506.6,396.7 L507.5,388.6 L508.3,387.0 L509.2,378.7 L510.0,367.8 L510.9,377.5 L511.7,385.9 L512.5,375.1 L513.4,378.9 L514.2,382.3 L515.1,407.2 L515.9,413.3 L516.7,416.4 L517.6,416.4 L518.4,417.2 L519.3,417.8 L520.1,418.3 L521.0,417.2 L521.8,418.6 L522.6,419.4 L523.5,418.1 L524.3,417.2 L525.2,416.9 L526.0,411.7 L526.8,414.2 L527.7,406.7 L528.5,393.4 L529.4,390.9 L530.2,383.1 L531.1,383.7 L531.9,383.9 L532.7,374.2 L533.6,387.3 L534.4,383.4 L535.3,395.9 L536.1,403.6 L536.9,388.4 L537.8,388.6 L538.6,405.6 L539.5,395.9 L540.3,408.1 L541.2,392.0 L542.0,402.8 L542.8,403.9 L543.7,393.9 L544.5,396.4 L545.4,403.9 L546.2,406.4 L547.0,410.8 L547.9,414.7 L548.7,407.5 L549.6,412.2 L550.4,405.8 L551.2,410.0 L552.1,402.2 L552.9,407.2 L553.8,390.3 L554.6,380.9 L555.5,372.3 L556.3,389.2 L557.1,381.7 L558.0,383.9 L558.8,392.5 L559.7,363.7 L560.5,359.8 L561.3,348.1 L562.2,370.1 L563.0,372.3 L563.9,372.6 L564.7,369.5 L565.6,378.1 L566.4,371.2 L567.2,347.0 L568.1,334.5 L568.9,345.1 L569.8,362.3 L570.6,359.5 L571.4,360.1 L572.3,357.8 L573.1,371.4 L574.0,377.8 L574.8,399.2 L575.7,394.2 L576.5,403.6 L577.3,409.5 L578.2,417.2 L579.0,420.0 L579.9,418.9 L580.7,419.4 L581.5,410.6 L582.4,403.9 L583.2,399.2 L584.1,403.4 L584.9,401.4 L585.8,405.3 L586.6,404.7 L587.4,401.4 L588.3,390.0 L589.1,382.3 L590.0,383.9 L590.8,379.2 L591.6,381.7 L592.5,382.3 L593.3,378.1 L594.2,378.7 L595.0,381.4 L595.8,376.7 L596.7,394.5 L597.5,398.6 L598.4,398.1 L599.2,399.5 L600.1,395.6 L600.9,398.4 L601.7,398.4 L602.6,406.4 L603.4,416.7 L604.3,412.8 L605.1,407.0 L605.9,404.5 L606.8,405.3 L607.6,405.0 L608.5,405.6 L609.3,403.4 L610.2,400.0 L611.0,403.1 L611.8,394.8 L612.7,376.2 L613.5,368.9 L614.4,365.9 L615.2,365.6 L616.0,371.2 L616.9,395.3 L617.7,413.6 L618.6,418.9 L619.4,419.2 L620.3,419.7 L621.1,420.0 L621.9,420.0 L622.8,420.0 L623.6,420.0 L624.5,420.0 L625.3,420.0 L626.1,420.0 L627.0,419.7 L627.8,419.2 L628.7,417.2 L629.5,415.8 L630.4,414.2 L631.2,408.3 L632.0,404.5 L632.9,388.1 L633.7,397.8 L634.6,402.5 L635.4,406.1 L636.2,416.7 L637.1,416.4 L637.9,410.6 L638.8,412.2 L639.6,414.2 L640.4,415.8 L641.3,409.7 L642.1,404.5 L643.0,407.2 L643.8,409.7 L644.7,408.3 L645.5,409.7 L646.3,413.6 L647.2,412.2 L648.0,411.4 L648.9,389.8 L649.7,375.9 L650.5,388.9 L651.4,395.6 L652.2,402.2 L653.1,405.8 L653.9,412.5 L654.8,415.0 L655.6,407.8 L656.4,406.7 L657.3,399.2 L658.1,395.3 L659.0,350.6 L659.8,383.4 L660.6,403.9 L661.5,393.1 L662.3,398.1 L663.2,389.2 L664.0,376.2 L664.9,373.4 L665.7,372.0 L666.5,369.8 L667.4,360.9 L668.2,365.6 L669.1,340.4 L669.9,341.8 L670.7,342.6 L671.6,352.3 L672.4,369.5 L673.3,375.6 L674.1,384.8 L675.0,385.9 L675.8,404.7 L676.6,418.3 L677.5,418.9 L678.3,407.2 L679.2,407.2 L680.0,402.0" stroke="#1f77b4" stroke-width="2" fill="none" opacity="0.8"/>
<!-- Hydro Generation -->
<path d="M80.0,338.1 L80.8,338.1 L81.7,338.7 L82.5,338.4 L83.4,341.5 L84.2,338.1 L85.0,338.7 L85.9,338.7 L86.7,338.7 L87.6,338.7 L88.4,338.4 L89.3,337.6 L90.1,337.6 L90.9,337.6 L91.8,337.9 L92.6,337.9 L93.5,337.0 L94.3,337.3 L95.1,337.3 L96.0,337.0 L96.8,337.3 L97.7,337.3 L98.5,337.3 L99.4,337.0 L100.2,337.3 L101.0,337.0 L101.9,337.3 L102.7,337.3 L103.6,337.3 L104.4,337.3 L105.2,337.3 L106.1,337.0 L106.9,336.8 L107.8,336.8 L108.6,337.6 L109.5,337.6 L110.3,337.6 L111.1,337.6 L112.0,337.6 L112.8,337.6 L113.7,337.6 L114.5,337.6 L115.3,337.6 L116.2,337.9 L117.0,337.9 L117.9,338.1 L118.7,338.1 L119.6,338.7 L120.4,338.7 L121.2,339.0 L122.1,339.5 L122.9,339.3 L123.8,339.3 L124.6,339.5 L125.4,339.5 L126.3,339.5 L127.1,339.5 L128.0,339.3 L128.8,338.1 L129.6,338.4 L130.5,337.9 L131.3,337.9 L132.2,337.0 L133.0,337.3 L133.9,336.5 L134.7,335.1 L135.5,334.0 L136.4,334.0 L137.2,333.2 L138.1,344.8 L138.9,355.1 L139.7,355.1 L140.6,354.8 L141.4,354.8 L142.3,355.1 L143.1,354.8 L144.0,354.8 L144.8,355.1 L145.6,354.8 L146.5,354.8 L147.3,355.1 L148.2,334.0 L149.0,330.7 L149.8,329.5 L150.7,328.4 L151.5,327.9 L152.4,329.0 L153.2,329.5 L154.1,329.5 L154.9,330.1 L155.7,330.1 L156.6,330.1 L157.4,329.5 L158.3,329.5 L159.1,329.8 L159.9,328.7 L160.8,328.2 L161.6,327.0 L162.5,327.0 L163.3,327.0 L164.2,327.3 L165.0,327.0 L165.8,327.3 L166.7,327.0 L167.5,327.0 L168.4,327.3 L169.2,325.7 L170.0,326.2 L170.9,324.6 L171.7,324.6 L172.6,322.9 L173.4,323.7 L174.2,323.7 L175.1,323.7 L175.9,324.0 L176.8,323.7 L177.6,324.3 L178.5,323.2 L179.3,322.3 L180.1,321.8 L181.0,322.9 L181.8,322.6 L182.7,321.5 L183.5,320.9 L184.3,319.6 L185.2,319.8 L186.0,319.6 L186.9,318.4 L187.7,318.4 L188.6,317.3 L189.4,315.7 L190.2,316.0 L191.1,316.0 L191.9,315.4 L192.8,314.3 L193.6,314.0 L194.4,314.3 L195.3,314.3 L196.1,314.0 L197.0,314.0 L197.8,312.9 L198.7,312.9 L199.5,312.9 L200.3,312.3 L201.2,313.2 L202.0,312.9 L202.9,311.5 L203.7,311.2 L204.5,312.3 L205.4,312.3 L206.2,312.3 L207.1,313.2 L207.9,313.2 L208.8,312.6 L209.6,312.3 L210.4,312.1 L211.3,312.1 L212.1,311.2 L213.0,311.0 L213.8,311.2 L214.6,311.0 L215.5,311.0 L216.3,311.0 L217.2,310.7 L218.0,310.7 L218.8,310.4 L219.7,310.7 L220.5,310.7 L221.4,311.2 L222.2,311.0 L223.1,311.0 L223.9,311.5 L224.7,311.2 L225.6,311.2 L226.4,311.2 L227.3,311.2 L228.1,311.0 L228.9,311.0 L229.8,311.2 L230.6,311.8 L231.5,312.9 L232.3,313.7 L233.2,314.0 L234.0,314.3 L234.8,314.3 L235.7,314.3 L236.5,313.5 L237.4,313.5 L238.2,313.7 L239.0,313.5 L239.9,313.5 L240.7,313.7 L241.6,314.0 L242.4,314.0 L243.3,314.3 L244.1,314.3 L244.9,314.3 L245.8,314.3 L246.6,314.8 L247.5,314.8 L248.3,314.8 L249.1,314.8 L250.0,314.8 L250.8,315.7 L251.7,316.5 L252.5,317.3 L253.4,317.6 L254.2,317.6 L255.0,317.6 L255.9,317.3 L256.7,317.3 L257.6,317.9 L258.4,317.9 L259.2,317.6 L260.1,317.6 L260.9,317.6 L261.8,317.3 L262.6,317.6 L263.5,317.6 L264.3,317.6 L265.1,317.6 L266.0,317.6 L266.8,317.3 L267.7,317.9 L268.5,318.2 L269.3,318.4 L270.2,318.4 L271.0,318.2 L271.9,319.6 L272.7,319.8 L273.5,320.1 L274.4,320.9 L275.2,320.9 L276.1,321.8 L276.9,322.6 L277.8,323.2 L278.6,322.9 L279.4,323.2 L280.3,323.4 L281.1,323.4 L282.0,322.1 L282.8,322.6 L283.6,322.1 L284.5,322.3 L285.3,322.3 L286.2,322.1 L287.0,321.8 L287.9,321.5 L288.7,321.8 L289.5,322.1 L290.4,320.4 L291.2,320.4 L292.1,320.4 L292.9,320.9 L293.7,320.7 L294.6,320.7 L295.4,320.9 L296.3,320.7 L297.1,320.9 L298.0,320.9 L298.8,320.7 L299.6,321.5 L300.5,321.2 L301.3,321.2 L302.2,321.2 L303.0,322.1 L303.8,324.0 L304.7,322.9 L305.5,324.0 L306.4,325.1 L307.2,327.0 L308.1,327.6 L308.9,327.3 L309.7,327.0 L310.6,328.4 L311.4,328.4 L312.3,328.2 L313.1,328.4 L313.9,328.2 L314.8,327.3 L315.6,326.8 L316.5,327.0 L317.3,327.0 L318.1,326.2 L319.0,326.2 L319.8,325.4 L320.7,325.7 L321.5,325.7 L322.4,325.4 L323.2,325.7 L324.0,325.7 L324.9,325.1 L325.7,325.4 L326.6,325.9 L327.4,325.9 L328.2,325.9 L329.1,325.9 L329.9,325.9 L330.8,325.1 L331.6,325.4 L332.5,325.1 L333.3,326.5 L334.1,326.5 L335.0,326.2 L335.8,326.5 L336.7,327.6 L337.5,327.6 L338.3,327.3 L339.2,327.3 L340.0,327.3 L340.9,327.0 L341.7,327.3 L342.6,327.0 L343.4,327.0 L344.2,327.3 L345.1,327.0 L345.9,327.0 L346.8,327.0 L347.6,327.0 L348.4,327.0 L349.3,326.5 L350.1,325.9 L351.0,326.2 L351.8,325.9 L352.7,325.9 L353.5,325.7 L354.3,325.7 L355.2,325.7 L356.0,325.9 L356.9,326.8 L357.7,326.8 L358.5,326.8 L359.4,326.8 L360.2,326.5 L361.1,326.8 L361.9,326.8 L362.7,326.8 L363.6,327.3 L364.4,327.6 L365.3,327.6 L366.1,327.3 L367.0,327.6 L367.8,327.6 L368.6,327.0 L369.5,326.8 L370.3,326.8 L371.2,326.8 L372.0,326.8 L372.8,326.2 L373.7,326.5 L374.5,327.3 L375.4,326.8 L376.2,327.6 L377.1,327.9 L377.9,327.9 L378.7,327.6 L379.6,327.6 L380.4,327.9 L381.3,327.9 L382.1,327.3 L382.9,327.6 L383.8,328.2 L384.6,329.0 L385.5,329.0 L386.3,328.7 L387.2,328.7 L388.0,328.7 L388.8,329.0 L389.7,329.0 L390.5,329.0 L391.4,329.0 L392.2,329.3 L393.0,329.3 L393.9,328.7 L394.7,329.5 L395.6,329.5 L396.4,330.9 L397.3,331.2 L398.1,331.8 L398.9,332.0 L399.8,332.3 L400.6,331.8 L401.5,333.7 L402.3,334.3 L403.1,335.1 L404.0,335.4 L404.8,336.2 L405.7,335.9 L406.5,336.2 L407.3,335.7 L408.2,335.7 L409.0,335.4 L409.9,335.7 L410.7,335.4 L411.6,334.3 L412.4,334.0 L413.2,334.3 L414.1,334.0 L414.9,334.0 L415.8,334.3 L416.6,333.7 L417.4,334.0 L418.3,334.0 L419.1,334.5 L420.0,334.0 L420.8,334.0 L421.7,334.3 L422.5,334.8 L423.3,334.8 L424.2,334.8 L425.0,336.8 L425.9,337.0 L426.7,336.8 L427.5,336.5 L428.4,336.5 L429.2,337.0 L430.1,336.8 L430.9,336.2 L431.8,335.7 L432.6,334.8 L433.4,335.4 L434.3,335.4 L435.1,335.1 L436.0,335.4 L436.8,335.7 L437.6,336.2 L438.5,336.2 L439.3,335.4 L440.2,335.7 L441.0,335.1 L441.9,334.8 L442.7,334.8 L443.5,335.1 L444.4,335.1 L445.2,335.9 L446.1,336.5 L446.9,336.5 L447.7,336.5 L448.6,336.2 L449.4,335.7 L450.3,335.9 L451.1,335.9 L451.9,335.9 L452.8,335.4 L453.6,334.5 L454.5,334.3 L455.3,334.8 L456.2,334.5 L457.0,334.5 L457.8,335.9 L458.7,335.9 L459.5,335.1 L460.4,335.4 L461.2,336.8 L462.0,336.5 L462.9,337.6 L463.7,337.0 L464.6,337.0 L465.4,337.9 L466.3,337.6 L467.1,338.1 L467.9,337.9 L468.8,337.6 L469.6,337.9 L470.5,337.3 L471.3,337.9 L472.1,339.3 L473.0,339.5 L473.8,339.3 L474.7,339.0 L475.5,339.5 L476.4,339.3 L477.2,339.3 L478.0,339.0 L478.9,337.3 L479.7,339.0 L480.6,339.3 L481.4,339.3 L482.2,339.8 L483.1,339.8 L483.9,340.1 L484.8,339.8 L485.6,340.4 L486.5,340.1 L487.3,340.4 L488.1,340.1 L489.0,340.4 L489.8,339.8 L490.7,340.1 L491.5,340.1 L492.3,340.4 L493.2,340.4 L494.0,340.4 L494.9,340.6 L495.7,340.9 L496.5,340.6 L497.4,340.9 L498.2,340.4 L499.1,342.0 L499.9,341.5 L500.8,341.8 L501.6,340.6 L502.4,341.2 L503.3,340.4 L504.1,340.9 L505.0,340.9 L505.8,342.0 L506.6,341.8 L507.5,341.5 L508.3,341.8 L509.2,341.5 L510.0,341.5 L510.9,341.2 L511.7,341.5 L512.5,341.8 L513.4,341.8 L514.2,341.5 L515.1,341.8 L515.9,342.0 L516.7,342.0 L517.6,342.3 L518.4,342.6 L519.3,342.3 L520.1,342.0 L521.0,342.3 L521.8,342.6 L522.6,342.3 L523.5,342.9 L524.3,343.4 L525.2,343.7 L526.0,344.8 L526.8,345.1 L527.7,344.8 L528.5,345.4 L529.4,345.6 L530.2,345.6 L531.1,345.9 L531.9,345.9 L532.7,345.9 L533.6,345.9 L534.4,345.9 L535.3,346.2 L536.1,346.2 L536.9,345.9 L537.8,346.5 L538.6,345.4 L539.5,345.6 L540.3,343.4 L541.2,343.7 L542.0,344.0 L542.8,343.4 L543.7,344.0 L544.5,343.4 L545.4,343.7 L546.2,345.1 L547.0,344.8 L547.9,344.3 L548.7,344.5 L549.6,342.9 L550.4,343.1 L551.2,343.7 L552.1,342.9 L552.9,341.8 L553.8,353.1 L554.6,340.9 L555.5,340.6 L556.3,340.6 L557.1,340.4 L558.0,340.4 L558.8,341.2 L559.7,341.2 L560.5,340.4 L561.3,340.6 L562.2,340.6 L563.0,340.6 L563.9,341.8 L564.7,341.5 L565.6,341.2 L566.4,342.3 L567.2,342.3 L568.1,342.6 L568.9,343.1 L569.8,342.9 L570.6,342.6 L571.4,342.9 L572.3,342.6 L573.1,342.0 L574.0,341.8 L574.8,340.9 L575.7,341.2 L576.5,340.6 L577.3,342.0 L578.2,340.4 L579.0,340.1 L579.9,340.4 L580.7,340.1 L581.5,339.8 L582.4,339.8 L583.2,340.9 L584.1,339.8 L584.9,340.1 L585.8,339.8 L586.6,341.2 L587.4,340.6 L588.3,340.4 L589.1,340.4 L590.0,349.2 L590.8,340.1 L591.6,340.4 L592.5,342.3 L593.3,342.0 L594.2,342.0 L595.0,343.7 L595.8,342.9 L596.7,343.4 L597.5,343.1 L598.4,341.8 L599.2,342.3 L600.1,342.9 L600.9,341.8 L601.7,342.0 L602.6,341.8 L603.4,342.0 L604.3,341.2 L605.1,340.6 L605.9,340.9 L606.8,342.3 L607.6,342.6 L608.5,343.1 L609.3,342.6 L610.2,342.3 L611.0,342.0 L611.8,342.6 L612.7,342.3 L613.5,343.4 L614.4,343.1 L615.2,343.1 L616.0,342.9 L616.9,342.0 L617.7,342.6 L618.6,342.9 L619.4,342.9 L620.3,344.0 L621.1,343.1 L621.9,343.1 L622.8,343.4 L623.6,342.3 L624.5,342.3 L625.3,342.0 L626.1,341.8 L627.0,343.1 L627.8,345.1 L628.7,344.5 L629.5,345.4 L630.4,345.9 L631.2,345.1 L632.0,345.4 L632.9,345.6 L633.7,346.2 L634.6,346.2 L635.4,345.6 L636.2,345.9 L637.1,346.2 L637.9,345.4 L638.8,345.4 L639.6,345.1 L640.4,344.8 L641.3,344.3 L642.1,344.5 L643.0,344.8 L643.8,345.4 L644.7,345.9 L645.5,346.2 L646.3,347.0 L647.2,348.4 L648.0,348.1 L648.9,347.6 L649.7,337.9 L650.5,347.3 L651.4,347.0 L652.2,347.6 L653.1,347.0 L653.9,347.3 L654.8,347.9 L655.6,348.7 L656.4,348.4 L657.3,347.6 L658.1,347.9 L659.0,347.3 L659.8,346.7 L660.6,346.7 L661.5,345.9 L662.3,346.2 L663.2,346.7 L664.0,347.0 L664.9,347.3 L665.7,347.6 L666.5,347.0 L667.4,349.2 L668.2,348.7 L669.1,349.2 L669.9,349.0 L670.7,349.2 L671.6,338.4 L672.4,347.9 L673.3,349.2 L674.1,350.4 L675.0,350.6 L675.8,351.2 L676.6,350.6 L677.5,350.6 L678.3,351.2 L679.2,349.5 L680.0,349.5" stroke="#ff7f0e" stroke-width="2" fill="none" opacity="0.8"/>
<!-- Thermal Generation -->
<path d="M80.0,337.3 L80.8,337.6 L81.7,337.9 L82.5,323.7 L83.4,337.3 L84.2,338.7 L85.0,339.0 L85.9,337.0 L86.7,301.5 L87.6,297.9 L88.4,291.5 L89.3,276.8 L90.1,276.3 L90.9,302.1 L91.8,299.0 L92.6,279.9 L93.5,301.5 L94.3,301.8 L95.1,301.8 L96.0,301.8 L96.8,301.5 L97.7,301.8 L98.5,297.4 L99.4,297.4 L100.2,297.6 L101.0,297.9 L101.9,298.2 L102.7,352.9 L103.6,376.2 L104.4,373.4 L105.2,375.9 L106.1,378.4 L106.9,378.4 L107.8,378.4 L108.6,378.4 L109.5,378.7 L110.3,378.7 L111.1,382.0 L112.0,382.0 L112.8,382.3 L113.7,382.3 L114.5,382.3 L115.3,382.3 L116.2,382.3 L117.0,382.3 L117.9,382.3 L118.7,378.4 L119.6,378.7 L120.4,378.7 L121.2,376.2 L122.1,375.9 L122.9,375.6 L123.8,378.4 L124.6,378.4 L125.4,378.7 L126.3,378.7 L127.1,378.4 L128.0,378.4 L128.8,378.7 L129.6,378.4 L130.5,377.5 L131.3,381.4 L132.2,382.3 L133.0,382.5 L133.9,382.3 L134.7,382.3 L135.5,382.5 L136.4,382.5 L137.2,382.3 L138.1,382.0 L138.9,382.0 L139.7,382.0 L140.6,382.3 L141.4,382.3 L142.3,381.7 L143.1,382.0 L144.0,382.0 L144.8,379.2 L145.6,380.0 L146.5,380.3 L147.3,381.7 L148.2,382.0 L149.0,382.0 L149.8,382.0 L150.7,382.3 L151.5,382.0 L152.4,382.0 L153.2,382.0 L154.1,382.0 L154.9,382.0 L155.7,382.0 L156.6,382.3 L157.4,382.3 L158.3,382.5 L159.1,378.4 L159.9,378.4 L160.8,378.4 L161.6,378.4 L162.5,378.4 L163.3,378.4 L164.2,378.1 L165.0,378.1 L165.8,375.6 L166.7,378.4 L167.5,375.6 L168.4,377.3 L169.2,363.4 L170.0,378.7 L170.9,378.1 L171.7,378.4 L172.6,382.0 L173.4,382.0 L174.2,382.3 L175.1,382.3 L175.9,382.0 L176.8,382.0 L177.6,382.0 L178.5,378.4 L179.3,378.7 L180.1,378.4 L181.0,378.1 L181.8,378.1 L182.7,378.1 L183.5,378.1 L184.3,378.1 L185.2,378.1 L186.0,378.1 L186.9,377.5 L187.7,376.2 L188.6,378.7 L189.4,378.7 L190.2,378.7 L191.1,378.7 L191.9,380.6 L192.8,382.3 L193.6,382.3 L194.4,382.3 L195.3,382.0 L196.1,382.3 L197.0,382.0 L197.8,382.0 L198.7,382.3 L199.5,378.7 L200.3,378.7 L201.2,378.4 L202.0,378.4 L202.9,378.1 L203.7,378.4 L204.5,378.7 L205.4,356.5 L206.2,355.6 L207.1,356.5 L207.9,342.6 L208.8,337.9 L209.6,357.8 L210.4,364.8 L211.3,357.0 L212.1,335.4 L213.0,362.3 L213.8,378.4 L214.6,378.4 L215.5,378.4 L216.3,378.4 L217.2,373.9 L218.0,382.0 L218.8,376.4 L219.7,367.6 L220.5,378.4 L221.4,377.8 L222.2,378.4 L223.1,378.1 L223.9,372.8 L224.7,336.8 L225.6,362.3 L226.4,312.6 L227.3,350.6 L228.1,350.4 L228.9,298.7 L229.8,254.6 L230.6,357.8 L231.5,361.2 L232.3,330.4 L233.2,332.3 L234.0,332.6 L234.8,345.9 L235.7,360.3 L236.5,382.5 L237.4,382.5 L238.2,382.3 L239.0,378.9 L239.9,378.7 L240.7,378.9 L241.6,378.7 L242.4,378.7 L243.3,378.7 L244.1,378.4 L244.9,378.4 L245.8,378.4 L246.6,378.1 L247.5,351.2 L248.3,339.3 L249.1,334.3 L250.0,336.5 L250.8,317.9 L251.7,317.6 L252.5,311.8 L253.4,350.4 L254.2,332.3 L255.0,332.0 L255.9,331.8 L256.7,331.8 L257.6,331.8 L258.4,345.9 L259.2,381.7 L260.1,381.7 L260.9,381.7 L261.8,381.7 L262.6,382.0 L263.5,382.0 L264.3,381.7 L265.1,381.7 L266.0,381.4 L266.8,381.4 L267.7,362.8 L268.5,352.3 L269.3,294.3 L270.2,267.7 L271.0,272.9 L271.9,294.6 L272.7,287.6 L273.5,365.3 L274.4,382.0 L275.2,382.0 L276.1,390.3 L276.9,383.1 L277.8,382.0 L278.6,382.0 L279.4,382.0 L280.3,381.4 L281.1,381.7 L282.0,381.7 L282.8,348.7 L283.6,326.5 L284.5,324.3 L285.3,317.6 L286.2,317.1 L287.0,303.5 L287.9,262.1 L288.7,267.7 L289.5,263.8 L290.4,263.5 L291.2,262.4 L292.1,266.3 L292.9,261.0 L293.7,261.0 L294.6,258.5 L295.4,260.2 L296.3,296.3 L297.1,340.6 L298.0,340.6 L298.8,339.5 L299.6,338.7 L300.5,319.8 L301.3,304.9 L302.2,317.3 L303.0,304.6 L303.8,284.3 L304.7,259.1 L305.5,258.8 L306.4,261.3 L307.2,261.3 L308.1,260.2 L308.9,261.0 L309.7,258.0 L310.6,256.9 L311.4,254.4 L312.3,254.4 L313.1,258.5 L313.9,245.2 L314.8,274.9 L315.6,274.1 L316.5,274.3 L317.3,294.3 L318.1,278.5 L319.0,286.3 L319.8,301.0 L320.7,299.0 L321.5,301.8 L322.4,287.1 L323.2,292.6 L324.0,292.4 L324.9,256.9 L325.7,257.1 L326.6,257.4 L327.4,259.3 L328.2,259.9 L329.1,259.6 L329.9,261.0 L330.8,257.4 L331.6,258.0 L332.5,253.8 L333.3,253.2 L334.1,252.1 L335.0,256.3 L335.8,281.5 L336.7,294.3 L337.5,268.5 L338.3,259.1 L339.2,256.9 L340.0,299.3 L340.9,297.6 L341.7,297.9 L342.6,296.8 L343.4,298.7 L344.2,296.8 L345.1,279.9 L345.9,275.2 L346.8,259.9 L347.6,255.7 L348.4,253.5 L349.3,258.0 L350.1,256.3 L351.0,252.1 L351.8,252.1 L352.7,249.9 L353.5,254.1 L354.3,254.1 L355.2,301.2 L356.0,300.7 L356.9,300.7 L357.7,301.0 L358.5,301.8 L359.4,300.4 L360.2,300.7 L361.1,300.4 L361.9,300.7 L362.7,305.4 L363.6,329.8 L364.4,314.6 L365.3,282.9 L366.1,304.3 L367.0,289.6 L367.8,291.0 L368.6,293.5 L369.5,304.3 L370.3,296.3 L371.2,259.9 L372.0,260.7 L372.8,257.1 L373.7,260.7 L374.5,260.7 L375.4,259.1 L376.2,284.0 L377.1,300.7 L377.9,300.7 L378.7,282.4 L379.6,284.9 L380.4,300.4 L381.3,298.7 L382.1,298.2 L382.9,297.9 L383.8,296.5 L384.6,285.7 L385.5,286.0 L386.3,272.1 L387.2,260.5 L388.0,268.5 L388.8,269.9 L389.7,274.9 L390.5,267.7 L391.4,268.5 L392.2,258.2 L393.0,257.7 L393.9,257.7 L394.7,278.5 L395.6,298.2 L396.4,297.1 L397.3,297.6 L398.1,297.4 L398.9,311.5 L399.8,311.5 L400.6,311.2 L401.5,311.5 L402.3,298.7 L403.1,311.2 L404.0,311.2 L404.8,311.0 L405.7,311.2 L406.5,298.2 L407.3,277.4 L408.2,281.0 L409.0,273.5 L409.9,272.9 L410.7,274.3 L411.6,273.8 L412.4,265.2 L413.2,259.3 L414.1,263.5 L414.9,277.1 L415.8,287.9 L416.6,302.6 L417.4,303.2 L418.3,303.2 L419.1,336.8 L420.0,337.3 L420.8,381.4 L421.7,381.4 L422.5,332.3 L423.3,289.9 L424.2,265.5 L425.0,268.8 L425.9,275.2 L426.7,286.3 L427.5,283.5 L428.4,283.5 L429.2,283.5 L430.1,283.8 L430.9,282.4 L431.8,281.3 L432.6,283.8 L433.4,267.7 L434.3,270.2 L435.1,267.9 L436.0,270.2 L436.8,267.1 L437.6,269.9 L438.5,272.1 L439.3,267.1 L440.2,266.0 L441.0,282.1 L441.9,262.4 L442.7,259.9 L443.5,264.9 L444.4,264.3 L445.2,267.9 L446.1,267.7 L446.9,270.7 L447.7,272.9 L448.6,272.9 L449.4,273.2 L450.3,272.1 L451.1,270.4 L451.9,268.5 L452.8,263.0 L453.6,263.0 L454.5,260.7 L455.3,258.0 L456.2,256.3 L457.0,260.2 L457.8,266.8 L458.7,280.7 L459.5,299.3 L460.4,289.9 L461.2,289.9 L462.0,286.5 L462.9,286.8 L463.7,274.6 L464.6,277.9 L465.4,272.1 L466.3,268.8 L467.1,271.8 L467.9,272.7 L468.8,269.1 L469.6,268.5 L470.5,267.9 L471.3,268.5 L472.1,269.9 L473.0,268.5 L473.8,267.7 L474.7,269.6 L475.5,260.7 L476.4,272.4 L477.2,280.7 L478.0,281.0 L478.9,325.9 L479.7,307.9 L480.6,316.2 L481.4,303.7 L482.2,307.6 L483.1,309.0 L483.9,284.0 L484.8,283.2 L485.6,266.3 L486.5,270.2 L487.3,260.2 L488.1,269.6 L489.0,264.9 L489.8,262.7 L490.7,262.4 L491.5,262.4 L492.3,252.1 L493.2,252.1 L494.0,251.6 L494.9,252.4 L495.7,252.1 L496.5,263.2 L497.4,266.6 L498.2,271.3 L499.1,266.0 L499.9,256.0 L500.8,260.2 L501.6,264.3 L502.4,261.8 L503.3,256.6 L504.1,252.4 L505.0,253.0 L505.8,259.1 L506.6,258.8 L507.5,266.8 L508.3,266.3 L509.2,265.5 L510.0,265.5 L510.9,265.5 L511.7,266.0 L512.5,265.5 L513.4,260.7 L514.2,250.5 L515.1,275.2 L515.9,281.8 L516.7,288.8 L517.6,299.3 L518.4,299.3 L519.3,299.3 L520.1,299.6 L521.0,299.3 L521.8,299.9 L522.6,295.1 L523.5,295.1 L524.3,285.7 L525.2,286.8 L526.0,278.8 L526.8,278.2 L527.7,275.2 L528.5,268.8 L529.4,266.8 L530.2,284.6 L531.1,276.0 L531.9,296.3 L532.7,296.3 L533.6,296.5 L534.4,296.3 L535.3,281.3 L536.1,299.6 L536.9,298.7 L537.8,298.7 L538.6,299.3 L539.5,298.7 L540.3,298.7 L541.2,298.5 L542.0,295.4 L542.8,322.6 L543.7,323.2 L544.5,322.9 L545.4,294.6 L546.2,297.4 L547.0,297.1 L547.9,297.6 L548.7,297.1 L549.6,297.6 L550.4,297.4 L551.2,287.6 L552.1,287.9 L552.9,297.1 L553.8,306.5 L554.6,295.4 L555.5,284.0 L556.3,299.9 L557.1,298.5 L558.0,299.3 L558.8,310.1 L559.7,299.3 L560.5,299.0 L561.3,326.5 L562.2,327.0 L563.0,327.0 L563.9,296.8 L564.7,296.5 L565.6,296.3 L566.4,296.5 L567.2,278.5 L568.1,261.8 L568.9,264.9 L569.8,274.1 L570.6,262.4 L571.4,262.4 L572.3,261.6 L573.1,261.8 L574.0,262.4 L574.8,251.3 L575.7,250.5 L576.5,249.9 L577.3,249.6 L578.2,248.2 L579.0,247.4 L579.9,251.9 L580.7,248.2 L581.5,249.9 L582.4,247.7 L583.2,247.7 L584.1,247.7 L584.9,248.8 L585.8,248.2 L586.6,249.1 L587.4,259.3 L588.3,259.3 L589.1,258.5 L590.0,259.9 L590.8,261.6 L591.6,261.3 L592.5,262.1 L593.3,260.5 L594.2,253.8 L595.0,257.4 L595.8,249.6 L596.7,249.4 L597.5,248.8 L598.4,249.1 L599.2,248.8 L600.1,248.8 L600.9,248.8 L601.7,250.2 L602.6,252.7 L603.4,255.2 L604.3,253.8 L605.1,254.6 L605.9,249.6 L606.8,249.9 L607.6,261.3 L608.5,259.6 L609.3,261.0 L610.2,261.3 L611.0,258.2 L611.8,258.5 L612.7,258.8 L613.5,248.2 L614.4,247.4 L615.2,243.3 L616.0,243.3 L616.9,245.2 L617.7,244.4 L618.6,244.1 L619.4,243.0 L620.3,244.1 L621.1,244.1 L621.9,244.6 L622.8,244.4 L623.6,245.5 L624.5,249.9 L625.3,290.4 L626.1,290.7 L627.0,290.1 L627.8,291.0 L628.7,253.8 L629.5,255.5 L630.4,253.2 L631.2,254.9 L632.0,252.7 L632.9,255.7 L633.7,256.3 L634.6,247.4 L635.4,245.5 L636.2,247.1 L637.1,246.6 L637.9,245.8 L638.8,262.4 L639.6,274.6 L640.4,266.0 L641.3,245.5 L642.1,251.6 L643.0,286.8 L643.8,290.7 L644.7,290.1 L645.5,290.7 L646.3,281.0 L647.2,281.3 L648.0,272.9 L648.9,259.1 L649.7,255.5 L650.5,251.6 L651.4,253.5 L652.2,251.3 L653.1,251.6 L653.9,252.4 L654.8,251.3 L655.6,244.4 L656.4,249.1 L657.3,242.7 L658.1,242.1 L659.0,242.4 L659.8,247.4 L660.6,247.1 L661.5,248.2 L662.3,248.2 L663.2,261.8 L664.0,268.5 L664.9,260.2 L665.7,246.6 L666.5,250.7 L667.4,254.9 L668.2,254.6 L669.1,254.6 L669.9,254.4 L670.7,256.6 L671.6,270.4 L672.4,270.2 L673.3,269.9 L674.1,270.4 L675.0,270.4 L675.8,266.8 L676.6,265.2 L677.5,260.2 L678.3,260.7 L679.2,260.7 L680.0,265.5" stroke="#2ca02c" stroke-width="2" fill="none" opacity="0.8"/>
<!-- Solar Generation -->
<path d="M80.0,388.4 L80.8,392.3 L81.7,391.1 L82.5,402.5 L83.4,391.4 L84.2,396.1 L85.0,380.3 L85.9,395.6 L86.7,413.1 L87.6,416.7 L88.4,419.4 L89.3,420.0 L90.1,420.0 L90.9,420.0 L91.8,420.0 L92.6,420.0 L93.5,420.0 L94.3,420.0 L95.1,420.0 L96.0,419.7 L96.8,418.3 L97.7,405.6 L98.5,409.2 L99.4,403.1 L100.2,403.4 L101.0,405.0 L101.9,394.5 L102.7,388.4 L103.6,408.3 L104.4,408.3 L105.2,411.1 L106.1,412.5 L106.9,411.4 L107.8,417.8 L108.6,419.4 L109.5,420.0 L110.3,420.0 L111.1,420.0 L112.0,420.0 L112.8,420.0 L113.7,420.0 L114.5,420.0 L115.3,420.0 L116.2,420.0 L117.0,412.8 L117.9,410.6 L118.7,398.4 L119.6,403.6 L120.4,411.4 L121.2,403.4 L122.1,405.0 L122.9,416.7 L123.8,417.2 L124.6,412.8 L125.4,415.8 L126.3,415.6 L127.1,416.9 L128.0,417.2 L128.8,420.0 L129.6,420.0 L130.5,420.0 L131.3,420.0 L132.2,420.0 L133.0,420.0 L133.9,420.0 L134.7,420.0 L135.5,420.0 L136.4,420.0 L137.2,418.9 L138.1,415.6 L138.9,408.1 L139.7,412.8 L140.6,413.3 L141.4,411.7 L142.3,408.3 L143.1,409.5 L144.0,403.6 L144.8,402.8 L145.6,412.2 L146.5,408.1 L147.3,412.5 L148.2,415.6 L149.0,419.7 L149.8,420.0 L150.7,420.0 L151.5,420.0 L152.4,420.0 L153.2,420.0 L154.1,420.0 L154.9,420.0 L155.7,420.0 L156.6,419.7 L157.4,412.2 L158.3,416.9 L159.1,416.1 L159.9,415.0 L160.8,413.9 L161.6,415.0 L162.5,413.3 L163.3,412.0 L164.2,412.2 L165.0,410.3 L165.8,410.0 L166.7,413.3 L167.5,411.4 L168.4,412.5 L169.2,419.4 L170.0,420.0 L170.9,420.0 L171.7,420.0 L172.6,420.0 L173.4,420.0 L174.2,420.0 L175.1,420.0 L175.9,420.0 L176.8,419.7 L177.6,415.0 L178.5,402.0 L179.3,402.0 L180.1,388.1 L181.0,381.2 L181.8,385.3 L182.7,394.2 L183.5,394.8 L184.3,390.3 L185.2,385.9 L186.0,399.7 L186.9,403.4 L187.7,406.7 L188.6,413.3 L189.4,419.4 L190.2,420.0 L191.1,420.0 L191.9,420.0 L192.8,420.0 L193.6,420.0 L194.4,420.0 L195.3,420.0 L196.1,420.0 L197.0,419.7 L197.8,408.3 L198.7,390.0 L199.5,398.4 L200.3,380.0 L201.2,380.0 L202.0,380.9 L202.9,380.3 L203.7,401.7 L204.5,403.9 L205.4,401.4 L206.2,416.4 L207.1,398.1 L207.9,415.8 L208.8,415.0 L209.6,420.0 L210.4,420.0 L211.3,420.0 L212.1,420.0 L213.0,420.0 L213.8,420.0 L214.6,420.0 L215.5,420.0 L216.3,420.0 L217.2,420.0 L218.0,411.4 L218.8,389.8 L219.7,381.2 L220.5,380.3 L221.4,380.0 L222.2,382.8 L223.1,386.4 L223.9,380.3 L224.7,379.8 L225.6,395.9 L226.4,386.1 L227.3,396.4 L228.1,397.0 L228.9,404.7 L229.8,417.8 L230.6,420.0 L231.5,420.0 L232.3,420.0 L233.2,420.0 L234.0,420.0 L234.8,420.0 L235.7,420.0 L236.5,420.0 L237.4,419.7 L238.2,408.3 L239.0,394.8 L239.9,396.4 L240.7,388.9 L241.6,380.0 L242.4,380.0 L243.3,379.5 L244.1,385.3 L244.9,394.8 L245.8,380.9 L246.6,387.5 L247.5,381.2 L248.3,396.4 L249.1,406.4 L250.0,416.9 L250.8,420.0 L251.7,420.0 L252.5,420.0 L253.4,420.0 L254.2,420.0 L255.0,420.0 L255.9,420.0 L256.7,420.0 L257.6,420.0 L258.4,408.1 L259.2,388.1 L260.1,380.6 L260.9,381.7 L261.8,380.0 L262.6,379.5 L263.5,380.3 L264.3,379.8 L265.1,386.7 L266.0,382.5 L266.8,385.0 L267.7,382.8 L268.5,386.1 L269.3,401.4 L270.2,418.1 L271.0,420.0 L271.9,420.0 L272.7,420.0 L273.5,420.0 L274.4,420.0 L275.2,420.0 L276.1,420.0 L276.9,420.0 L277.8,420.0 L278.6,408.3 L279.4,388.9 L280.3,382.0 L281.1,380.6 L282.0,380.9 L282.8,382.0 L283.6,382.3 L284.5,382.8 L285.3,398.4 L286.2,409.7 L287.0,406.7 L287.9,408.1 L288.7,405.3 L289.5,418.3 L290.4,419.7 L291.2,420.0 L292.1,420.0 L292.9,420.0 L293.7,420.0 L294.6,420.0 L295.4,420.0 L296.3,420.0 L297.1,420.0 L298.0,420.0 L298.8,416.4 L299.6,405.6 L300.5,403.4 L301.3,398.4 L302.2,395.6 L303.0,396.7 L303.8,398.1 L304.7,395.9 L305.5,402.0 L306.4,398.9 L307.2,409.5 L308.1,395.3 L308.9,395.3 L309.7,418.1 L310.6,419.7 L311.4,420.0 L312.3,420.0 L313.1,420.0 L313.9,420.0 L314.8,420.0 L315.6,420.0 L316.5,420.0 L317.3,420.0 L318.1,420.0 L319.0,410.6 L319.8,398.9 L320.7,390.9 L321.5,380.9 L322.4,386.1 L323.2,382.8 L324.0,379.8 L324.9,380.0 L325.7,390.9 L326.6,390.6 L327.4,387.8 L328.2,391.7 L329.1,395.9 L329.9,403.4 L330.8,418.1 L331.6,420.0 L332.5,420.0 L333.3,420.0 L334.1,420.0 L335.0,420.0 L335.8,420.0 L336.7,420.0 L337.5,420.0 L338.3,420.0 L339.2,410.0 L340.0,393.6 L340.9,382.8 L341.7,381.2 L342.6,381.2 L343.4,381.4 L344.2,383.1 L345.1,383.1 L345.9,386.1 L346.8,392.5 L347.6,404.7 L348.4,399.5 L349.3,393.4 L350.1,417.5 L351.0,419.4 L351.8,420.0 L352.7,420.0 L353.5,420.0 L354.3,420.0 L355.2,420.0 L356.0,420.0 L356.9,420.0 L357.7,420.0 L358.5,420.0 L359.4,413.3 L360.2,390.0 L361.1,382.3 L361.9,380.9 L362.7,381.4 L363.6,381.4 L364.4,381.7 L365.3,380.9 L366.1,382.8 L367.0,386.4 L367.8,383.1 L368.6,386.4 L369.5,386.1 L370.3,408.6 L371.2,418.9 L372.0,420.0 L372.8,420.0 L373.7,420.0 L374.5,420.0 L375.4,420.0 L376.2,420.0 L377.1,420.0 L377.9,420.0 L378.7,420.0 L379.6,410.3 L380.4,390.6 L381.3,382.8 L382.1,382.5 L382.9,381.4 L383.8,381.7 L384.6,381.2 L385.5,381.2 L386.3,387.0 L387.2,386.7 L388.0,386.4 L388.8,382.8 L389.7,401.7 L390.5,416.9 L391.4,419.4 L392.2,420.0 L393.0,420.0 L393.9,420.0 L394.7,420.0 L395.6,420.0 L396.4,420.0 L397.3,420.0 L398.1,420.0 L398.9,420.0 L399.8,410.3 L400.6,389.8 L401.5,381.7 L402.3,380.3 L403.1,380.3 L404.0,381.2 L404.8,385.3 L405.7,382.8 L406.5,383.9 L407.3,384.8 L408.2,383.4 L409.0,382.0 L409.9,386.7 L410.7,403.6 L411.6,418.3 L412.4,420.0 L413.2,420.0 L414.1,420.0 L414.9,420.0 L415.8,420.0 L416.6,420.0 L417.4,420.0 L418.3,420.0 L419.1,420.0 L420.0,410.0 L420.8,395.9 L421.7,382.5 L422.5,382.5 L423.3,383.1 L424.2,383.1 L425.0,382.5 L425.9,392.3 L426.7,386.7 L427.5,395.6 L428.4,395.6 L429.2,403.9 L430.1,398.1 L430.9,407.5 L431.8,418.3 L432.6,419.7 L433.4,419.7 L434.3,419.7 L435.1,419.7 L436.0,419.7 L436.8,419.7 L437.6,419.4 L438.5,419.4 L439.3,419.4 L440.2,411.1 L441.0,390.6 L441.9,383.1 L442.7,380.9 L443.5,381.2 L444.4,382.0 L445.2,388.4 L446.1,395.0 L446.9,385.9 L447.7,383.7 L448.6,383.7 L449.4,382.5 L450.3,401.1 L451.1,403.9 L451.9,418.9 L452.8,419.7 L453.6,419.7 L454.5,419.7 L455.3,419.7 L456.2,419.7 L457.0,419.7 L457.8,419.7 L458.7,419.7 L459.5,419.4 L460.4,414.5 L461.2,405.0 L462.0,388.9 L462.9,388.1 L463.7,390.0 L464.6,395.0 L465.4,398.9 L466.3,396.1 L467.1,383.7 L467.9,382.0 L468.8,403.9 L469.6,413.1 L470.5,416.1 L471.3,416.9 L472.1,419.2 L473.0,419.4 L473.8,419.4 L474.7,419.4 L475.5,419.4 L476.4,419.4 L477.2,419.4 L478.0,419.4 L478.9,419.7 L479.7,419.4 L480.6,416.7 L481.4,414.2 L482.2,405.0 L483.1,394.8 L483.9,382.0 L484.8,385.9 L485.6,382.0 L486.5,385.0 L487.3,390.0 L488.1,394.5 L489.0,396.1 L489.8,395.9 L490.7,416.7 L491.5,409.7 L492.3,418.1 L493.2,419.7 L494.0,419.7 L494.9,419.7 L495.7,419.7 L496.5,419.7 L497.4,419.7 L498.2,419.7 L499.1,419.7 L499.9,419.4 L500.8,412.0 L501.6,393.1 L502.4,383.9 L503.3,381.2 L504.1,381.2 L505.0,381.4 L505.8,382.0 L506.6,382.3 L507.5,384.8 L508.3,410.6 L509.2,401.1 L510.0,394.5 L510.9,386.4 L511.7,406.1 L512.5,418.6 L513.4,419.7 L514.2,419.7 L515.1,419.7 L515.9,419.4 L516.7,419.4 L517.6,419.4 L518.4,419.4 L519.3,419.4 L520.1,419.4 L521.0,415.6 L521.8,405.6 L522.6,402.0 L523.5,397.5 L524.3,391.1 L525.2,390.6 L526.0,385.9 L526.8,398.1 L527.7,388.9 L528.5,398.9 L529.4,394.5 L530.2,407.8 L531.1,417.8 L531.9,413.6 L532.7,419.2 L533.6,419.7 L534.4,419.7 L535.3,419.7 L536.1,419.7 L536.9,419.7 L537.8,419.4 L538.6,419.4 L539.5,419.4 L540.3,419.4 L541.2,412.0 L542.0,393.1 L542.8,383.1 L543.7,382.0 L544.5,381.7 L545.4,381.2 L546.2,382.3 L547.0,382.8 L547.9,384.2 L548.7,381.2 L549.6,408.9 L550.4,404.7 L551.2,411.7 L552.1,417.8 L552.9,418.3 L553.8,419.4 L554.6,419.4 L555.5,419.4 L556.3,419.4 L557.1,419.4 L558.0,419.4 L558.8,419.4 L559.7,419.4 L560.5,419.4 L561.3,412.5 L562.2,394.5 L563.0,383.9 L563.9,381.2 L564.7,386.1 L565.6,381.2 L566.4,384.2 L567.2,383.1 L568.1,389.8 L568.9,385.3 L569.8,397.5 L570.6,397.5 L571.4,402.2 L572.3,414.7 L573.1,418.6 L574.0,419.4 L574.8,419.7 L575.7,419.7 L576.5,419.7 L577.3,419.7 L578.2,419.7 L579.0,419.7 L579.9,419.4 L580.7,419.4 L581.5,415.3 L582.4,404.7 L583.2,395.3 L584.1,399.5 L584.9,394.2 L585.8,395.9 L586.6,391.1 L587.4,391.1 L588.3,392.3 L589.1,395.9 L590.0,389.5 L590.8,392.0 L591.6,406.7 L592.5,415.8 L593.3,418.9 L594.2,419.7 L595.0,419.7 L595.8,419.7 L596.7,419.7 L597.5,419.7 L598.4,419.7 L599.2,419.7 L600.1,419.7 L600.9,419.4 L601.7,418.1 L602.6,411.7 L603.4,412.8 L604.3,406.7 L605.1,400.0 L605.9,391.7 L606.8,385.3 L607.6,380.9 L608.5,388.9 L609.3,400.0 L610.2,408.9 L611.0,397.8 L611.8,405.0 L612.7,415.6 L613.5,419.2 L614.4,419.4 L615.2,419.7 L616.0,419.7 L616.9,419.7 L617.7,419.7 L618.6,419.7 L619.4,419.7 L620.3,419.7 L621.1,419.4 L621.9,416.9 L622.8,405.8 L623.6,407.8 L624.5,398.9 L625.3,390.9 L626.1,396.7 L627.0,387.5 L627.8,385.9 L628.7,385.3 L629.5,400.6 L630.4,410.8 L631.2,414.7 L632.0,417.5 L632.9,418.3 L633.7,419.4 L634.6,419.7 L635.4,419.7 L636.2,419.7 L637.1,419.7 L637.9,419.7 L638.8,419.7 L639.6,419.7 L640.4,419.7 L641.3,419.4 L642.1,417.8 L643.0,404.7 L643.8,406.7 L644.7,407.8 L645.5,388.1 L646.3,388.4 L647.2,384.2 L648.0,383.9 L648.9,380.6 L649.7,380.9 L650.5,381.4 L651.4,392.0 L652.2,390.0 L653.1,408.3 L653.9,418.9 L654.8,419.7 L655.6,419.7 L656.4,419.4 L657.3,419.4 L658.1,419.4 L659.0,419.4 L659.8,419.4 L660.6,419.4 L661.5,419.4 L662.3,416.7 L663.2,395.3 L664.0,384.5 L664.9,381.4 L665.7,381.2 L666.5,382.0 L667.4,382.3 L668.2,380.9 L669.1,383.4 L669.9,393.4 L670.7,391.7 L671.6,401.4 L672.4,412.2 L673.3,414.2 L674.1,418.3 L675.0,419.4 L675.8,419.7 L676.6,419.7 L677.5,419.7 L678.3,419.7 L679.2,419.7 L680.0,419.7" stroke="#d62728" stroke-width="2" fill="none" opacity="0.8"/>
<!-- Forecast -->
<path d="M80.0,174.2 L80.8,170.3 L81.7,168.9 L82.5,168.3 L83.4,165.8 L84.2,162.5 L85.0,156.4 L85.9,160.3 L86.7,166.4 L87.6,173.1 L88.4,178.1 L89.3,182.8 L90.1,196.6 L90.9,221.3 L91.8,238.5 L92.6,247.4 L93.5,252.4 L94.3,255.7 L95.1,255.5 L96.0,248.8 L96.8,232.4 L97.7,211.9 L98.5,190.8 L99.4,179.2 L100.2,174.7 L101.0,170.0 L101.9,167.5 L102.7,164.5 L103.6,164.5 L104.4,165.0 L105.2,165.0 L106.1,167.0 L106.9,175.3 L107.8,183.0 L108.6,189.7 L109.5,192.8 L110.3,204.4 L111.1,231.0 L112.0,241.0 L112.8,248.5 L113.7,255.2 L114.5,259.1 L115.3,260.2 L116.2,259.6 L117.0,253.5 L117.9,242.4 L118.7,228.3 L119.6,215.5 L120.4,208.3 L121.2,208.0 L122.1,208.8 L122.9,210.0 L123.8,212.5 L124.6,213.3 L125.4,218.8 L126.3,220.8 L127.1,222.2 L128.0,219.9 L128.8,216.1 L129.6,218.0 L130.5,225.8 L131.3,241.3 L132.2,247.7 L133.0,256.0 L133.9,261.6 L134.7,264.6 L135.5,265.2 L136.4,265.7 L137.2,261.6 L138.1,252.7 L138.9,239.9 L139.7,222.4 L140.6,212.2 L141.4,205.0 L142.3,199.4 L143.1,200.8 L144.0,203.6 L144.8,206.1 L145.6,210.5 L146.5,213.0 L147.3,213.8 L148.2,214.7 L149.0,214.1 L149.8,216.3 L150.7,226.6 L151.5,232.7 L152.4,245.8 L153.2,256.0 L154.1,261.3 L154.9,263.8 L155.7,261.8 L156.6,254.4 L157.4,236.6 L158.3,214.7 L159.1,196.9 L159.9,178.9 L160.8,170.6 L161.6,165.8 L162.5,157.5 L163.3,152.5 L164.2,157.8 L165.0,167.2 L165.8,171.9 L166.7,173.3 L167.5,181.9 L168.4,185.5 L169.2,192.5 L170.0,198.9 L170.9,211.1 L171.7,226.1 L172.6,244.4 L173.4,255.2 L174.2,260.5 L175.1,262.7 L175.9,261.6 L176.8,253.8 L177.6,236.0 L178.5,214.1 L179.3,194.4 L180.1,183.6 L181.0,179.4 L181.8,174.4 L182.7,169.4 L183.5,167.8 L184.3,168.1 L185.2,167.2 L186.0,162.8 L186.9,165.6 L187.7,174.2 L188.6,181.7 L189.4,188.0 L190.2,192.5 L191.1,204.7 L191.9,216.3 L192.8,233.3 L193.6,243.8 L194.4,249.4 L195.3,252.7 L196.1,251.9 L197.0,244.4 L197.8,226.3 L198.7,204.4 L199.5,183.3 L200.3,171.1 L201.2,163.9 L202.0,159.5 L202.9,157.2 L203.7,157.2 L204.5,155.9 L205.4,152.8 L206.2,151.1 L207.1,153.1 L207.9,162.0 L208.8,171.7 L209.6,178.3 L210.4,180.8 L211.3,193.0 L212.1,192.5 L213.0,227.2 L213.8,243.8 L214.6,249.6 L215.5,252.7 L216.3,251.6 L217.2,244.4 L218.0,226.3 L218.8,204.4 L219.7,182.8 L220.5,169.4 L221.4,161.7 L222.2,156.4 L223.1,155.0 L223.9,153.6 L224.7,149.7 L225.6,146.4 L226.4,145.6 L227.3,145.9 L228.1,145.9 L228.9,153.4 L229.8,163.6 L230.6,169.4 L231.5,173.9 L232.3,209.1 L233.2,231.3 L234.0,243.3 L234.8,249.4 L235.7,252.7 L236.5,251.9 L237.4,244.4 L238.2,226.6 L239.0,204.7 L239.9,183.3 L240.7,171.1 L241.6,163.9 L242.4,159.5 L243.3,157.2 L244.1,157.2 L244.9,155.9 L245.8,152.8 L246.6,151.1 L247.5,153.1 L248.3,161.7 L249.1,171.7 L250.0,178.3 L250.8,180.8 L251.7,192.8 L252.5,210.8 L253.4,232.2 L254.2,238.8 L255.0,244.4 L255.9,248.2 L256.7,249.6 L257.6,249.9 L258.4,247.4 L259.2,236.6 L260.1,219.9 L260.9,204.1 L261.8,193.6 L262.6,185.5 L263.5,181.4 L264.3,177.5 L265.1,173.6 L266.0,169.7 L266.8,161.7 L267.7,151.4 L268.5,153.4 L269.3,158.9 L270.2,165.0 L271.0,172.2 L271.9,186.7 L272.7,190.3 L273.5,190.3 L274.4,190.3 L275.2,190.3 L276.1,190.3 L276.9,190.3 L277.8,190.3 L278.6,190.3 L279.4,190.3 L280.3,190.3 L281.1,190.3 L282.0,190.3 L282.8,190.3 L283.6,190.3 L284.5,190.3 L285.3,190.3 L286.2,190.3 L287.0,190.3 L287.9,190.3 L288.7,190.3 L289.5,190.3 L290.4,190.3 L291.2,190.3 L292.1,190.3 L292.9,190.3 L293.7,220.5 L294.6,230.8 L295.4,238.0 L296.3,243.3 L297.1,243.3 L298.0,238.0 L298.8,219.9 L299.6,198.3 L300.5,176.1 L301.3,160.3 L302.2,151.4 L303.0,145.6 L303.8,142.8 L304.7,138.4 L305.5,130.3 L306.4,123.1 L307.2,117.8 L308.1,119.5 L308.9,129.5 L309.7,141.4 L310.6,150.3 L311.4,155.9 L312.3,173.1 L313.1,196.9 L313.9,219.4 L314.8,230.2 L315.6,236.9 L316.5,241.3 L317.3,241.6 L318.1,236.9 L319.0,218.6 L319.8,196.1 L320.7,173.9 L321.5,158.6 L322.4,149.2 L323.2,141.7 L324.0,138.4 L324.9,134.2 L325.7,128.7 L326.6,122.8 L327.4,120.1 L328.2,124.5 L329.1,133.7 L329.9,143.1 L330.8,151.4 L331.6,157.0 L332.5,172.8 L333.3,365.3 L334.1,264.9 L335.0,376.4 L335.8,420.0 L336.7,420.0 L337.5,420.0 L338.3,420.0 L339.2,420.0 L340.0,420.0 L340.9,420.0 L341.7,420.0 L342.6,420.0 L343.4,420.0 L344.2,420.0 L345.1,420.0 L345.9,420.0 L346.8,420.0 L347.6,420.0 L348.4,420.0 L349.3,420.0 L350.1,420.0 L351.0,420.0 L351.8,420.0 L352.7,420.0 L353.5,251.3 L354.3,372.8 L355.2,277.7 L356.0,242.7 L356.9,246.9 L357.7,248.2 L358.5,241.3 L359.4,222.7 L360.2,199.4 L361.1,176.9 L361.9,159.7 L362.7,149.5 L363.6,142.5 L364.4,138.4 L365.3,132.8 L366.1,125.9 L367.0,117.6 L367.8,111.5 L368.6,112.6 L369.5,119.5 L370.3,129.8 L371.2,140.6 L372.0,149.5 L372.8,169.7 L373.7,191.1 L374.5,217.5 L375.4,234.4 L376.2,242.4 L377.1,247.7 L377.9,249.1 L378.7,243.0 L379.6,224.1 L380.4,200.0 L381.3,176.1 L382.1,158.1 L382.9,145.3 L383.8,135.0 L384.6,128.1 L385.5,120.6 L386.3,112.3 L387.2,104.5 L388.0,99.5 L388.8,99.3 L389.7,105.9 L390.5,115.6 L391.4,125.9 L392.2,137.3 L393.0,158.9 L393.9,190.0 L394.7,215.8 L395.6,229.4 L396.4,234.7 L397.3,242.7 L398.1,246.0 L398.9,246.9 L399.8,241.0 L400.6,228.5 L401.5,211.1 L402.3,190.8 L403.1,172.5 L404.0,157.8 L404.8,135.0 L405.7,124.5 L406.5,119.8 L407.3,105.6 L408.2,97.0 L409.0,103.7 L409.9,106.2 L410.7,116.2 L411.6,130.6 L412.4,146.7 L413.2,168.3 L414.1,191.9 L414.9,208.6 L415.8,227.2 L416.6,234.7 L417.4,242.7 L418.3,246.0 L419.1,246.9 L420.0,241.0 L420.8,228.3 L421.7,211.1 L422.5,190.8 L423.3,172.5 L424.2,157.8 L425.0,128.4 L425.9,127.0 L426.7,121.2 L427.5,105.6 L428.4,97.0 L429.2,107.9 L430.1,94.5 L430.9,112.3 L431.8,130.6 L432.6,146.7 L433.4,168.3 L434.3,180.8 L435.1,205.5 L436.0,216.3 L436.8,224.1 L437.6,230.8 L438.5,232.4 L439.3,229.1 L440.2,211.3 L441.0,185.8 L441.9,163.3 L442.7,143.1 L443.5,130.9 L444.4,121.2 L445.2,113.4 L446.1,107.9 L446.9,102.9 L447.7,98.1 L448.6,94.8 L449.4,92.3 L450.3,99.8 L451.1,107.3 L451.9,115.1 L452.8,123.4 L453.6,145.9 L454.5,184.7 L455.3,203.0 L456.2,216.3 L457.0,226.3 L457.8,233.0 L458.7,235.2 L459.5,231.3 L460.4,215.2 L461.2,190.5 L462.0,169.4 L462.9,151.4 L463.7,141.4 L464.6,134.5 L465.4,128.1 L466.3,123.4 L467.1,117.8 L467.9,111.2 L468.8,108.4 L469.6,110.3 L470.5,117.0 L471.3,123.9 L472.1,132.3 L473.0,140.3 L473.8,161.1 L474.7,194.7 L475.5,212.2 L476.4,226.1 L477.2,234.7 L478.0,240.5 L478.9,242.1 L479.7,236.6 L480.6,220.8 L481.4,199.7 L482.2,179.2 L483.1,165.6 L483.9,157.5 L484.8,150.9 L485.6,146.4 L486.5,142.0 L487.3,137.0 L488.1,129.2 L489.0,125.3 L489.8,127.8 L490.7,132.0 L491.5,138.4 L492.3,145.6 L493.2,152.5 L494.0,171.7 L494.9,191.4 L495.7,216.9 L496.5,233.0 L497.4,241.3 L498.2,246.0 L499.1,247.7 L499.9,241.0 L500.8,223.6 L501.6,201.4 L502.4,179.2 L503.3,163.1 L504.1,152.0 L505.0,143.4 L505.8,136.2 L506.6,129.2 L507.5,122.0 L508.3,114.8 L509.2,110.6 L510.0,113.1 L510.9,116.7 L511.7,124.5 L512.5,131.7 L513.4,140.9 L514.2,161.7 L515.1,189.7 L515.9,213.0 L516.7,228.8 L517.6,238.0 L518.4,243.3 L519.3,244.6 L520.1,239.6 L521.0,222.2 L521.8,198.0 L522.6,175.6 L523.5,156.4 L524.3,143.6 L525.2,133.1 L526.0,126.4 L526.8,119.8 L527.7,113.4 L528.5,109.8 L529.4,109.0 L530.2,111.2 L531.1,116.5 L531.9,124.5 L532.7,132.8 L533.6,140.9 L534.4,161.7 L535.3,201.4 L536.1,221.9 L536.9,233.0 L537.8,238.8 L538.6,246.9 L539.5,249.9 L540.3,250.7 L541.2,245.8 L542.0,233.8 L542.8,217.5 L543.7,198.9 L544.5,182.8 L545.4,171.7 L546.2,161.7 L547.0,155.0 L547.9,146.7 L548.7,139.8 L549.6,137.5 L550.4,138.7 L551.2,142.3 L552.1,148.9 L552.9,156.4 L553.8,165.6 L554.6,183.0 L555.5,201.4 L556.3,219.9 L557.1,232.4 L558.0,241.6 L558.8,247.1 L559.7,249.1 L560.5,250.7 L561.3,248.2 L562.2,231.0 L563.0,213.8 L563.9,201.1 L564.7,183.3 L565.6,170.0 L566.4,160.3 L567.2,155.9 L568.1,151.1 L568.9,145.3 L569.8,136.7 L570.6,135.0 L571.4,133.7 L572.3,137.3 L573.1,145.6 L574.0,156.1 L574.8,169.2 L575.7,190.5 L576.5,214.7 L577.3,230.5 L578.2,239.9 L579.0,246.0 L579.9,248.5 L580.7,242.7 L581.5,225.5 L582.4,202.5 L583.2,180.5 L584.1,163.9 L584.9,153.6 L585.8,145.0 L586.6,137.8 L587.4,132.8 L588.3,128.1 L589.1,120.9 L590.0,114.8 L590.8,116.2 L591.6,121.4 L592.5,127.8 L593.3,135.6 L594.2,144.8 L595.0,165.0 L595.8,195.0 L596.7,213.8 L597.5,230.8 L598.4,241.0 L599.2,246.6 L600.1,248.0 L600.9,243.3 L601.7,226.9 L602.6,205.5 L603.4,184.7 L604.3,171.1 L605.1,162.5 L605.9,156.1 L606.8,149.2 L607.6,143.1 L608.5,136.2 L609.3,126.7 L610.2,120.1 L611.0,119.0 L611.8,124.2 L612.7,130.3 L613.5,136.4 L614.4,144.2 L615.2,164.7 L616.0,191.6 L616.9,216.6 L617.7,230.2 L618.6,238.3 L619.4,244.1 L620.3,246.6 L621.1,241.9 L621.9,225.2 L622.8,203.0 L623.6,181.4 L624.5,165.8 L625.3,155.3 L626.1,147.3 L627.0,140.0 L627.8,132.5 L628.7,124.8 L629.5,120.3 L630.4,116.2 L631.2,119.5 L632.0,125.1 L632.9,131.4 L633.7,138.1 L634.6,145.6 L635.4,164.2 L636.2,191.4 L637.1,213.8 L637.9,228.0 L638.8,237.4 L639.6,243.3 L640.4,245.2 L641.3,239.6 L642.1,224.4 L643.0,201.9 L643.8,180.8 L644.7,163.9 L645.5,153.6 L646.3,143.6 L647.2,135.3 L648.0,129.5 L648.9,122.8 L649.7,115.6 L650.5,108.7 L651.4,107.9 L652.2,114.2 L653.1,122.0 L653.9,128.9 L654.8,139.2 L655.6,161.1 L656.4,185.3 L657.3,211.9 L658.1,226.1 L659.0,235.2 L659.8,240.8 L660.6,243.0 L661.5,238.3 L662.3,220.8 L663.2,193.6 L664.0,170.6 L664.9,146.4 L665.7,131.2 L666.5,116.5 L667.4,100.9 L668.2,96.8 L669.1,93.1 L669.9,89.3 L670.7,85.9 L671.6,84.8 L672.4,91.2 L673.3,99.8 L674.1,112.3 L675.0,124.2 L675.8,150.0 L676.6,192.2 L677.5,219.7 L678.3,232.2 L679.2,231.3 L680.0,230.5" stroke="#9467bd" stroke-width="2" fill="none" opacity="0.8"/>
<!-- Total Generation -->
<path d="M80.0,221.6 L80.8,225.8 L81.7,227.7 L82.5,224.1 L83.4,222.4 L84.2,232.4 L85.0,206.1 L85.9,225.2 L86.7,183.6 L87.6,207.2 L88.4,205.2 L89.3,191.6 L90.1,188.9 L90.9,216.1 L91.8,208.3 L92.6,192.8 L93.5,215.0 L94.3,215.2 L95.1,211.6 L96.0,216.3 L96.8,213.8 L97.7,202.7 L98.5,196.1 L99.4,186.9 L100.2,187.5 L101.0,189.7 L101.9,171.4 L102.7,213.6 L103.6,243.5 L104.4,238.0 L105.2,220.5 L106.1,263.5 L106.9,259.3 L107.8,274.6 L108.6,272.1 L109.5,291.8 L110.3,293.5 L111.1,298.2 L112.0,291.0 L112.8,275.7 L113.7,259.9 L114.5,268.2 L115.3,254.4 L116.2,251.3 L117.0,257.4 L117.9,269.6 L118.7,260.2 L119.6,255.5 L120.4,266.6 L121.2,257.4 L122.1,249.1 L122.9,275.7 L123.8,260.2 L124.6,271.3 L125.4,277.4 L126.3,277.7 L127.1,291.3 L128.0,289.0 L128.8,281.8 L129.6,270.2 L130.5,270.4 L131.3,263.0 L132.2,249.4 L133.0,234.9 L133.9,238.3 L134.7,249.6 L135.5,244.4 L136.4,243.5 L137.2,234.4 L138.1,212.5 L138.9,243.3 L139.7,248.8 L140.6,248.8 L141.4,253.0 L142.3,244.1 L143.1,241.3 L144.0,237.4 L144.8,236.0 L145.6,245.8 L146.5,243.8 L147.3,223.3 L148.2,194.7 L149.0,204.7 L149.8,206.1 L150.7,206.1 L151.5,197.8 L152.4,197.5 L153.2,193.3 L154.1,198.3 L154.9,201.1 L155.7,201.1 L156.6,198.6 L157.4,190.8 L158.3,191.4 L159.1,207.2 L159.9,196.1 L160.8,198.3 L161.6,195.5 L162.5,197.8 L163.3,204.1 L164.2,210.2 L165.0,197.2 L165.8,204.1 L166.7,216.3 L167.5,190.5 L168.4,181.9 L169.2,163.3 L170.0,185.8 L170.9,180.0 L171.7,182.5 L172.6,183.6 L173.4,188.0 L174.2,185.8 L175.1,186.7 L175.9,185.3 L176.8,198.0 L177.6,198.3 L178.5,185.8 L179.3,176.4 L180.1,154.2 L181.0,156.7 L181.8,172.8 L182.7,192.2 L183.5,186.9 L184.3,188.0 L185.2,175.8 L186.0,186.7 L186.9,214.7 L187.7,227.7 L188.6,242.4 L189.4,259.9 L190.2,256.9 L191.1,264.6 L191.9,267.9 L192.8,267.1 L193.6,268.8 L194.4,255.2 L195.3,266.6 L196.1,269.3 L197.0,269.1 L197.8,252.4 L198.7,234.9 L199.5,233.5 L200.3,217.7 L201.2,211.6 L202.0,200.2 L202.9,195.0 L203.7,224.4 L204.5,234.4 L205.4,208.8 L206.2,226.1 L207.1,189.1 L207.9,210.2 L208.8,190.5 L209.6,226.1 L210.4,253.8 L211.3,242.4 L212.1,216.1 L213.0,242.4 L213.8,263.0 L214.6,263.5 L215.5,258.0 L216.3,252.4 L217.2,236.6 L218.0,234.1 L218.8,216.3 L219.7,201.1 L220.5,209.1 L221.4,209.1 L222.2,213.8 L223.1,221.9 L223.9,207.5 L224.7,162.8 L225.6,200.2 L226.4,133.9 L227.3,194.1 L228.1,203.6 L228.9,161.7 L229.8,130.0 L230.6,241.3 L231.5,244.9 L232.3,218.6 L233.2,220.2 L234.0,224.1 L234.8,235.2 L235.7,250.7 L236.5,272.9 L237.4,270.7 L238.2,248.8 L239.0,238.0 L239.9,237.7 L240.7,219.9 L241.6,215.0 L242.4,215.5 L243.3,208.3 L244.1,199.7 L244.9,204.1 L245.8,191.6 L246.6,190.5 L247.5,147.3 L248.3,158.4 L249.1,179.2 L250.0,200.8 L250.8,197.2 L251.7,209.1 L252.5,206.9 L253.4,246.9 L254.2,226.6 L255.0,228.0 L255.9,227.2 L256.7,226.6 L257.6,227.7 L258.4,227.4 L259.2,238.8 L260.1,233.0 L260.9,232.4 L261.8,215.8 L262.6,208.3 L263.5,197.2 L264.3,191.9 L265.1,196.4 L266.0,203.9 L266.8,203.6 L267.7,187.5 L268.5,191.9 L269.3,157.2 L270.2,152.5 L271.0,168.9 L271.9,192.2 L272.7,184.4 L273.5,263.2 L274.4,281.5 L275.2,281.8 L276.1,289.6 L276.9,281.3 L277.8,275.4 L278.6,248.5 L279.4,223.6 L280.3,219.9 L281.1,224.4 L282.0,228.3 L282.8,206.4 L283.6,185.8 L284.5,184.4 L285.3,190.0 L286.2,187.8 L287.0,162.5 L287.9,112.0 L288.7,90.6 L289.5,102.0 L290.4,143.1 L291.2,150.0 L292.1,155.0 L292.9,149.5 L293.7,142.3 L294.6,104.2 L295.4,101.2 L296.3,129.8 L297.1,176.7 L298.0,193.9 L298.8,195.8 L299.6,191.6 L300.5,176.9 L301.3,156.7 L302.2,165.8 L303.0,152.0 L303.8,136.2 L304.7,95.9 L305.5,119.5 L306.4,107.6 L307.2,120.3 L308.1,79.0 L308.9,100.9 L309.7,126.4 L310.6,145.0 L311.4,134.8 L312.3,140.3 L313.1,140.6 L313.9,142.8 L314.8,175.3 L315.6,174.4 L316.5,181.1 L317.3,201.6 L318.1,182.5 L319.0,181.1 L319.8,185.3 L320.7,172.8 L321.5,165.0 L322.4,150.9 L323.2,157.2 L324.0,151.7 L324.9,110.9 L325.7,108.7 L326.6,106.7 L327.4,109.2 L328.2,112.6 L329.1,111.5 L329.9,124.2 L330.8,146.1 L331.6,146.4 L332.5,138.7 L333.3,147.5 L334.1,151.1 L335.0,154.2 L335.8,183.3 L336.7,201.4 L337.5,174.7 L338.3,166.1 L339.2,153.6 L340.0,179.4 L340.9,165.6 L341.7,163.3 L342.6,157.5 L343.4,160.0 L344.2,158.4 L345.1,140.9 L345.9,140.6 L346.8,131.4 L347.6,138.4 L348.4,121.4 L349.3,125.3 L350.1,132.8 L351.0,145.0 L351.8,136.7 L352.7,121.2 L353.5,125.9 L354.3,117.3 L355.2,137.8 L356.0,158.9 L356.9,154.5 L357.7,153.9 L358.5,158.1 L359.4,168.9 L360.2,163.3 L361.1,158.1 L361.9,159.2 L362.7,147.0 L363.6,157.5 L364.4,132.3 L365.3,97.3 L366.1,118.1 L367.0,114.8 L367.8,120.1 L368.6,125.6 L369.5,140.9 L370.3,170.3 L371.2,152.5 L372.0,151.7 L372.8,147.0 L373.7,157.2 L374.5,152.2 L375.4,154.5 L376.2,185.8 L377.1,199.7 L377.9,199.1 L378.7,179.7 L379.6,175.8 L380.4,169.2 L381.3,165.0 L382.1,158.6 L382.9,150.9 L383.8,154.5 L384.6,137.8 L385.5,130.0 L386.3,112.0 L387.2,98.4 L388.0,115.1 L388.8,120.1 L389.7,153.9 L390.5,167.0 L391.4,175.0 L392.2,145.3 L393.0,148.4 L393.9,147.0 L394.7,175.0 L395.6,190.3 L396.4,196.1 L397.3,196.4 L398.1,203.0 L398.9,219.4 L399.8,213.0 L400.6,191.4 L401.5,186.7 L402.3,171.1 L403.1,183.0 L404.0,171.7 L404.8,175.0 L405.7,162.0 L406.5,149.7 L407.3,130.0 L408.2,132.8 L409.0,126.4 L409.9,128.9 L410.7,147.0 L411.6,165.8 L412.4,171.9 L413.2,160.8 L414.1,148.9 L414.9,162.2 L415.8,171.1 L416.6,173.6 L417.4,170.8 L418.3,191.6 L419.1,239.1 L420.0,226.3 L420.8,253.2 L421.7,246.3 L422.5,193.9 L423.3,150.0 L424.2,125.9 L425.0,133.4 L425.9,148.1 L426.7,135.6 L427.5,144.8 L428.4,138.7 L429.2,132.5 L430.1,138.4 L430.9,129.2 L431.8,143.9 L432.6,128.9 L433.4,118.7 L434.3,130.6 L435.1,123.9 L436.0,133.4 L436.8,134.5 L437.6,150.0 L438.5,160.8 L439.3,174.2 L440.2,171.7 L441.0,168.1 L441.9,140.6 L442.7,135.9 L443.5,138.9 L444.4,137.3 L445.2,145.9 L446.1,152.0 L446.9,145.3 L447.7,146.4 L448.6,148.9 L449.4,147.3 L450.3,160.0 L451.1,162.5 L451.9,148.1 L452.8,160.0 L453.6,163.1 L454.5,153.9 L455.3,157.5 L456.2,161.1 L457.0,166.1 L457.8,153.9 L458.7,159.7 L459.5,181.1 L460.4,169.2 L461.2,173.1 L462.0,164.5 L462.9,165.0 L463.7,155.9 L464.6,160.0 L465.4,155.9 L466.3,139.8 L467.1,127.6 L467.9,123.9 L468.8,149.7 L469.6,148.4 L470.5,119.2 L471.3,137.8 L472.1,149.2 L473.0,137.3 L473.8,138.1 L474.7,134.5 L475.5,160.8 L476.4,179.7 L477.2,189.4 L478.0,194.1 L478.9,228.5 L479.7,218.3 L480.6,224.9 L481.4,209.1 L482.2,196.6 L483.1,185.8 L483.9,149.5 L484.8,161.7 L485.6,143.9 L486.5,154.7 L487.3,141.1 L488.1,163.1 L489.0,161.7 L489.8,158.4 L490.7,178.6 L491.5,168.9 L492.3,163.1 L493.2,165.3 L494.0,167.8 L494.9,171.1 L495.7,173.3 L496.5,183.9 L497.4,187.8 L498.2,191.4 L499.1,187.5 L499.9,175.6 L500.8,172.5 L501.6,156.7 L502.4,144.8 L503.3,131.7 L504.1,124.8 L505.0,121.4 L505.8,125.6 L506.6,119.5 L507.5,121.7 L508.3,145.6 L509.2,126.7 L510.0,109.2 L510.9,110.6 L511.7,139.5 L512.5,140.9 L513.4,141.1 L514.2,133.9 L515.1,183.9 L515.9,196.6 L516.7,206.6 L517.6,217.5 L518.4,218.6 L519.3,218.8 L520.1,219.4 L521.0,214.4 L521.8,206.6 L522.6,198.9 L523.5,193.6 L524.3,177.5 L525.2,178.1 L526.0,161.1 L526.8,175.6 L527.7,155.6 L528.5,146.4 L529.4,137.8 L530.2,161.1 L531.1,163.3 L531.9,179.7 L532.7,175.6 L533.6,189.4 L534.4,185.3 L535.3,183.0 L536.1,209.1 L536.9,192.8 L537.8,193.3 L538.6,209.7 L539.5,199.7 L540.3,209.7 L541.2,186.1 L542.0,175.3 L542.8,193.0 L543.7,183.0 L544.5,184.4 L545.4,163.3 L546.2,171.1 L547.0,175.6 L547.9,180.8 L548.7,170.3 L549.6,201.6 L550.4,191.1 L551.2,193.0 L552.1,190.8 L552.9,204.4 L553.8,209.4 L554.6,176.7 L555.5,156.4 L556.3,189.1 L557.1,180.0 L558.0,183.0 L558.8,203.3 L559.7,163.6 L560.5,158.6 L561.3,167.8 L562.2,172.2 L563.0,163.9 L563.9,132.3 L564.7,133.7 L565.6,136.7 L566.4,134.2 L567.2,90.9 L568.1,68.7 L568.9,78.4 L569.8,116.7 L570.6,102.0 L571.4,107.6 L572.3,116.7 L573.1,133.9 L574.0,141.4 L574.8,151.1 L575.7,145.6 L576.5,153.9 L577.3,160.8 L578.2,165.6 L579.0,167.2 L579.9,170.6 L580.7,167.2 L581.5,155.6 L582.4,136.2 L583.2,123.1 L584.1,130.3 L584.9,124.5 L585.8,129.2 L586.6,126.2 L587.4,132.5 L588.3,122.0 L589.1,117.0 L590.0,122.6 L590.8,112.8 L591.6,130.0 L592.5,142.5 L593.3,139.5 L594.2,134.2 L595.0,142.3 L595.8,128.9 L596.7,147.0 L597.5,150.3 L598.4,148.6 L599.2,150.3 L600.1,147.0 L600.9,148.4 L601.7,148.6 L602.6,152.5 L603.4,166.7 L604.3,154.5 L605.1,142.3 L605.9,126.7 L606.8,122.8 L607.6,129.8 L608.5,137.3 L609.3,147.0 L610.2,152.5 L611.0,141.1 L611.8,140.9 L612.7,132.8 L613.5,119.8 L614.4,115.9 L615.2,111.7 L616.0,117.0 L616.9,142.3 L617.7,160.3 L618.6,165.6 L619.4,164.7 L620.3,167.5 L621.1,167.0 L621.9,165.0 L622.8,154.2 L623.6,155.6 L624.5,151.7 L625.3,184.2 L626.1,189.7 L627.0,180.5 L627.8,181.1 L628.7,140.9 L629.5,157.2 L630.4,164.2 L631.2,163.1 L632.0,160.0 L632.9,147.8 L633.7,159.7 L634.6,155.9 L635.4,157.0 L636.2,169.4 L637.1,168.9 L637.9,161.4 L638.8,179.7 L639.6,193.6 L640.4,186.4 L641.3,158.9 L642.1,158.4 L643.0,183.6 L643.8,192.5 L644.7,192.2 L645.5,174.7 L646.3,170.0 L647.2,166.1 L648.0,156.4 L648.9,117.0 L649.7,90.1 L650.5,109.2 L651.4,128.1 L652.2,131.2 L653.1,152.8 L653.9,171.1 L654.8,173.9 L655.6,160.6 L656.4,163.6 L657.3,148.9 L658.1,144.8 L659.0,99.8 L659.8,137.0 L660.6,157.2 L661.5,146.7 L662.3,149.2 L663.2,133.1 L664.0,116.2 L664.9,102.3 L665.7,87.3 L666.5,89.5 L667.4,87.3 L668.2,89.8 L669.1,67.6 L669.9,78.4 L670.7,80.1 L671.6,102.6 L672.4,139.8 L673.3,148.9 L674.1,163.9 L675.0,166.4 L675.8,182.5 L676.6,193.9 L677.5,189.4 L678.3,178.9 L679.2,177.2 L680.0,176.7" stroke="#8c564b" stroke-width="2" fill="none" opacity="0.8"/>
<!-- Forecast Difference -->
<path d="M80.0,420.0 L80.8,420.0 L81.7,420.0 L82.5,420.0 L83.4,420.0 L84.2,420.0 L85.0,420.0 L85.9,420.0 L86.7,420.0 L87.6,420.0 L88.4,420.0 L89.3,420.0 L90.1,420.0 L90.9,420.0 L91.8,420.0 L92.6,420.0 L93.5,420.0 L94.3,420.0 L95.1,420.0 L96.0,420.0 L96.8,420.0 L97.7,420.0 L98.5,420.0 L99.4,420.0 L100.2,420.0 L101.0,420.0 L101.9,420.0 L102.7,420.0 L103.6,420.0 L104.4,420.0 L105.2,420.0 L106.1,420.0 L106.9,420.0 L107.8,420.0 L108.6,420.0 L109.5,420.0 L110.3,420.0 L111.1,420.0 L112.0,420.0 L112.8,420.0 L113.7,420.0 L114.5,420.0 L115.3,420.0 L116.2,420.0 L117.0,420.0 L117.9,420.0 L118.7,420.0 L119.6,420.0 L120.4,420.0 L121.2,420.0 L122.1,420.0 L122.9,420.0 L123.8,420.0 L124.6,420.0 L125.4,420.0 L126.3,420.0 L127.1,420.0 L128.0,420.0 L128.8,420.0 L129.6,420.0 L130.5,420.0 L131.3,420.0 L132.2,420.0 L133.0,420.0 L133.9,420.0 L134.7,420.0 L135.5,420.0 L136.4,420.0 L137.2,420.0 L138.1,420.0 L138.9,420.0 L139.7,420.0 L140.6,420.0 L141.4,420.0 L142.3,420.0 L143.1,420.0 L144.0,420.0 L144.8,420.0 L145.6,420.0 L146.5,420.0 L147.3,420.0 L148.2,420.0 L149.0,420.0 L149.8,420.0 L150.7,420.0 L151.5,420.0 L152.4,420.0 L153.2,420.0 L154.1,420.0 L154.9,420.0 L155.7,420.0 L156.6,420.0 L157.4,420.0 L158.3,420.0 L159.1,420.0 L159.9,420.0 L160.8,420.0 L161.6,420.0 L162.5,420.0 L163.3,420.0 L164.2,420.0 L165.0,420.0 L165.8,420.0 L166.7,420.0 L167.5,420.0 L168.4,420.0 L169.2,420.0 L170.0,420.0 L170.9,420.0 L171.7,420.0 L172.6,420.0 L173.4,420.0 L174.2,420.0 L175.1,420.0 L175.9,420.0 L176.8,420.0 L177.6,420.0 L178.5,420.0 L179.3,420.0 L180.1,420.0 L181.0,420.0 L181.8,420.0 L182.7,420.0 L183.5,420.0 L184.3,420.0 L185.2,420.0 L186.0,420.0 L186.9,420.0 L187.7,420.0 L188.6,420.0 L189.4,420.0 L190.2,420.0 L191.1,420.0 L191.9,420.0 L192.8,420.0 L193.6,420.0 L194.4,420.0 L195.3,420.0 L196.1,420.0 L197.0,420.0 L197.8,420.0 L198.7,420.0 L199.5,420.0 L200.3,420.0 L201.2,420.0 L202.0,420.0 L202.9,420.0 L203.7,420.0 L204.5,420.0 L205.4,420.0 L206.2,420.0 L207.1,420.0 L207.9,420.0 L208.8,420.0 L209.6,420.0 L210.4,420.0 L211.3,420.0 L212.1,420.0 L213.0,420.0 L213.8,420.0 L214.6,420.0 L215.5,420.0 L216.3,420.0 L217.2,420.0 L218.0,420.0 L218.8,420.0 L219.7,420.0 L220.5,420.0 L221.4,420.0 L222.2,420.0 L223.1,420.0 L223.9,420.0 L224.7,420.0 L225.6,420.0 L226.4,420.0 L227.3,420.0 L228.1,420.0 L228.9,420.0 L229.8,420.0 L230.6,420.0 L231.5,420.0 L232.3,420.0 L233.2,420.0 L234.0,420.0 L234.8,420.0 L235.7,420.0 L236.5,420.0 L237.4,420.0 L238.2,420.0 L239.0,420.0 L239.9,420.0 L240.7,420.0 L241.6,420.0 L242.4,420.0 L243.3,420.0 L244.1,420.0 L244.9,420.0 L245.8,420.0 L246.6,420.0 L247.5,420.0 L248.3,420.0 L249.1,420.0 L250.0,420.0 L250.8,420.0 L251.7,420.0 L252.5,420.0 L253.4,420.0 L254.2,420.0 L255.0,420.0 L255.9,420.0 L256.7,420.0 L257.6,420.0 L258.4,420.0 L259.2,420.0 L260.1,420.0 L260.9,420.0 L261.8,420.0 L262.6,420.0 L263.5,420.0 L264.3,420.0 L265.1,420.0 L266.0,420.0 L266.8,420.0 L267.7,420.0 L268.5,420.0 L269.3,420.0 L270.2,420.0 L271.0,420.0 L271.9,420.0 L272.7,420.0 L273.5,420.0 L274.4,420.0 L275.2,420.0 L276.1,420.0 L276.9,420.0 L277.8,420.0 L278.6,420.0 L279.4,420.0 L280.3,420.0 L281.1,420.0 L282.0,420.0 L282.8,420.0 L283.6,420.0 L284.5,420.0 L285.3,420.0 L286.2,420.0 L287.0,420.0 L287.9,420.0 L288.7,420.0 L289.5,420.0 L290.4,420.0 L291.2,420.0 L292.1,420.0 L292.9,420.0 L293.7,420.0 L294.6,420.0 L295.4,420.0 L296.3,420.0 L297.1,420.0 L298.0,420.0 L298.8,420.0 L299.6,420.0 L300.5,420.0 L301.3,420.0 L302.2,420.0 L303.0,420.0 L303.8,420.0 L304.7,420.0 L305.5,420.0 L306.4,420.0 L307.2,420.0 L308.1,420.0 L308.9,420.0 L309.7,420.0 L310.6,420.0 L311.4,420.0 L312.3,420.0 L313.1,420.0 L313.9,420.0 L314.8,420.0 L315.6,420.0 L316.5,420.0 L317.3,420.0 L318.1,420.0 L319.0,420.0 L319.8,420.0 L320.7,420.0 L321.5,420.0 L322.4,420.0 L323.2,420.0 L324.0,420.0 L324.9,420.0 L325.7,420.0 L326.6,420.0 L327.4,420.0 L328.2,420.0 L329.1,420.0 L329.9,420.0 L330.8,420.0 L331.6,420.0 L332.5,420.0 L333.3,420.0 L334.1,420.0 L335.0,420.0 L335.8,420.0 L336.7,420.0 L337.5,420.0 L338.3,420.0 L339.2,420.0 L340.0,420.0 L340.9,420.0 L341.7,420.0 L342.6,420.0 L343.4,420.0 L344.2,420.0 L345.1,420.0 L345.9,420.0 L346.8,420.0 L347.6,420.0 L348.4,420.0 L349.3,420.0 L350.1,420.0 L351.0,420.0 L351.8,420.0 L352.7,420.0 L353.5,420.0 L354.3,420.0 L355.2,420.0 L356.0,420.0 L356.9,420.0 L357.7,420.0 L358.5,420.0 L359.4,420.0 L360.2,420.0 L361.1,420.0 L361.9,420.0 L362.7,420.0 L363.6,420.0 L364.4,420.0 L365.3,420.0 L366.1,420.0 L367.0,420.0 L367.8,420.0 L368.6,420.0 L369.5,420.0 L370.3,420.0 L371.2,420.0 L372.0,420.0 L372.8,420.0 L373.7,420.0 L374.5,420.0 L375.4,420.0 L376.2,420.0 L377.1,420.0 L377.9,420.0 L378.7,420.0 L379.6,420.0 L380.4,420.0 L381.3,420.0 L382.1,420.0 L382.9,420.0 L383.8,420.0 L384.6,420.0 L385.5,420.0 L386.3,420.0 L387.2,420.0 L388.0,420.0 L388.8,420.0 L389.7,420.0 L390.5,420.0 L391.4,420.0 L392.2,420.0 L393.0,420.0 L393.9,420.0 L394.7,420.0 L395.6,420.0 L396.4,420.0 L397.3,420.0 L398.1,420.0 L398.9,420.0 L399.8,420.0 L400.6,420.0 L401.5,420.0 L402.3,420.0 L403.1,420.0 L404.0,420.0 L404.8,420.0 L405.7,420.0 L406.5,420.0 L407.3,420.0 L408.2,420.0 L409.0,420.0 L409.9,420.0 L410.7,420.0 L411.6,420.0 L412.4,420.0 L413.2,420.0 L414.1,420.0 L414.9,420.0 L415.8,420.0 L416.6,420.0 L417.4,420.0 L418.3,420.0 L419.1,420.0 L420.0,420.0 L420.8,420.0 L421.7,420.0 L422.5,420.0 L423.3,420.0 L424.2,420.0 L425.0,420.0 L425.9,420.0 L426.7,420.0 L427.5,420.0 L428.4,420.0 L429.2,420.0 L430.1,420.0 L430.9,420.0 L431.8,420.0 L432.6,420.0 L433.4,420.0 L434.3,420.0 L435.1,420.0 L436.0,420.0 L436.8,420.0 L437.6,420.0 L438.5,420.0 L439.3,420.0 L440.2,420.0 L441.0,420.0 L441.9,420.0 L442.7,420.0 L443.5,420.0 L444.4,420.0 L445.2,420.0 L446.1,420.0 L446.9,420.0 L447.7,420.0 L448.6,420.0 L449.4,420.0 L450.3,420.0 L451.1,420.0 L451.9,420.0 L452.8,420.0 L453.6,420.0 L454.5,420.0 L455.3,420.0 L456.2,420.0 L457.0,420.0 L457.8,420.0 L458.7,420.0 L459.5,420.0 L460.4,420.0 L461.2,420.0 L462.0,420.0 L462.9,420.0 L463.7,420.0 L464.6,420.0 L465.4,420.0 L466.3,420.0 L467.1,420.0 L467.9,420.0 L468.8,420.0 L469.6,420.0 L470.5,420.0 L471.3,420.0 L472.1,420.0 L473.0,420.0 L473.8,420.0 L474.7,420.0 L475.5,420.0 L476.4,420.0 L477.2,420.0 L478.0,420.0 L478.9,420.0 L479.7,420.0 L480.6,420.0 L481.4,420.0 L482.2,420.0 L483.1,420.0 L483.9,420.0 L484.8,420.0 L485.6,420.0 L486.5,420.0 L487.3,420.0 L488.1,420.0 L489.0,420.0 L489.8,420.0 L490.7,420.0 L491.5,420.0 L492.3,420.0 L493.2,420.0 L494.0,420.0 L494.9,420.0 L495.7,420.0 L496.5,420.0 L497.4,420.0 L498.2,420.0 L499.1,420.0 L499.9,420.0 L500.8,420.0 L501.6,420.0 L502.4,420.0 L503.3,420.0 L504.1,420.0 L505.0,420.0 L505.8,420.0 L506.6,420.0 L507.5,420.0 L508.3,420.0 L509.2,420.0 L510.0,420.0 L510.9,420.0 L511.7,420.0 L512.5,420.0 L513.4,420.0 L514.2,420.0 L515.1,420.0 L515.9,420.0 L516.7,420.0 L517.6,420.0 L518.4,420.0 L519.3,420.0 L520.1,420.0 L521.0,420.0 L521.8,420.0 L522.6,420.0 L523.5,420.0 L524.3,420.0 L525.2,420.0 L526.0,420.0 L526.8,420.0 L527.7,420.0 L528.5,420.0 L529.4,420.0 L530.2,420.0 L531.1,420.0 L531.9,420.0 L532.7,420.0 L533.6,420.0 L534.4,420.0 L535.3,420.0 L536.1,420.0 L536.9,420.0 L537.8,420.0 L538.6,420.0 L539.5,420.0 L540.3,420.0 L541.2,420.0 L542.0,420.0 L542.8,420.0 L543.7,420.0 L544.5,420.0 L545.4,420.0 L546.2,420.0 L547.0,420.0 L547.9,420.0 L548.7,420.0 L549.6,420.0 L550.4,420.0 L551.2,420.0 L552.1,420.0 L552.9,420.0 L553.8,420.0 L554.6,420.0 L555.5,420.0 L556.3,420.0 L557.1,420.0 L558.0,420.0 L558.8,420.0 L559.7,420.0 L560.5,420.0 L561.3,420.0 L562.2,420.0 L563.0,420.0 L563.9,420.0 L564.7,420.0 L565.6,420.0 L566.4,420.0 L567.2,420.0 L568.1,420.0 L568.9,420.0 L569.8,420.0 L570.6,420.0 L571.4,420.0 L572.3,420.0 L573.1,420.0 L574.0,420.0 L574.8,420.0 L575.7,420.0 L576.5,420.0 L577.3,420.0 L578.2,420.0 L579.0,420.0 L579.9,420.0 L580.7,420.0 L581.5,420.0 L582.4,420.0 L583.2,420.0 L584.1,420.0 L584.9,420.0 L585.8,420.0 L586.6,420.0 L587.4,420.0 L588.3,420.0 L589.1,420.0 L590.0,420.0 L590.8,420.0 L591.6,420.0 L592.5,420.0 L593.3,420.0 L594.2,420.0 L595.0,420.0 L595.8,420.0 L596.7,420.0 L597.5,420.0 L598.4,420.0 L599.2,420.0 L600.1,420.0 L600.9,420.0 L601.7,420.0 L602.6,420.0 L603.4,420.0 L604.3,420.0 L605.1,420.0 L605.9,420.0 L606.8,420.0 L607.6,420.0 L608.5,420.0 L609.3,420.0 L610.2,420.0 L611.0,420.0 L611.8,420.0 L612.7,420.0 L613.5,420.0 L614.4,420.0 L615.2,420.0 L616.0,420.0 L616.9,420.0 L617.7,420.0 L618.6,420.0 L619.4,420.0 L620.3,420.0 L621.1,420.0 L621.9,420.0 L622.8,420.0 L623.6,420.0 L624.5,420.0 L625.3,420.0 L626.1,420.0 L627.0,420.0 L627.8,420.0 L628.7,420.0 L629.5,420.0 L630.4,420.0 L631.2,420.0 L632.0,420.0 L632.9,420.0 L633.7,420.0 L634.6,420.0 L635.4,420.0 L636.2,420.0 L637.1,420.0 L637.9,420.0 L638.8,420.0 L639.6,420.0 L640.4,420.0 L641.3,420.0 L642.1,420.0 L643.0,420.0 L643.8,420.0 L644.7,420.0 L645.5,420.0 L646.3,420.0 L647.2,420.0 L648.0,420.0 L648.9,420.0 L649.7,420.0 L650.5,420.0 L651.4,420.0 L652.2,420.0 L653.1,420.0 L653.9,420.0 L654.8,420.0 L655.6,420.0 L656.4,420.0 L657.3,420.0 L658.1,420.0 L659.0,420.0 L659.8,420.0 L660.6,420.0 L661.5,420.0 L662.3,420.0 L663.2,420.0 L664.0,420.0 L664.9,420.0 L665.7,420.0 L666.5,420.0 L667.4,420.0 L668.2,420.0 L669.1,420.0 L669.9,420.0 L670.7,420.0 L671.6,420.0 L672.4,420.0 L673.3,420.0 L674.1,420.0 L675.0,420.0 L675.8,420.0 L676.6,420.0 L677.5,420.0 L678.3,420.0 L679.2,420.0 L680.0,420.0" stroke="#e377c2" stroke-width="2" fill="none" opacity="0.8"/>

<!-- Legend -->
<line x1="690" y1="70" x2="705" y2="70" stroke="#1f77b4" stroke-width="3"/>
<text x="710" y="74" class="legend">Wind Generation</text>
<line x1="690" y1="88" x2="705" y2="88" stroke="#ff7f0e" stroke-width="3"/>
<text x="710" y="92" class="legend">Hydro Generation</text>
<line x1="690" y1="106" x2="705" y2="106" stroke="#2ca02c" stroke-width="3"/>
<text x="710" y="110" class="legend">Thermal Generation</text>
<line x1="690" y1="124" x2="705" y2="124" stroke="#d62728" stroke-width="3"/>
<text x="710" y="128" class="legend">Solar Generation</text>
<line x1="690" y1="142" x2="705" y2="142" stroke="#9467bd" stroke-width="3"/>
<text x="710" y="146" class="legend">Forecast</text>
<line x1="690" y1="160" x2="705" y2="160" stroke="#8c564b" stroke-width="3"/>
<text x="710" y="164" class="legend">Total Generation</text>
<line x1="690" y1="178" x2="705" y2="178" stroke="#e377c2" stroke-width="3"/>
<text x="710" y="182" class="legend">Forecast Difference</text>

<!-- Date range -->
<text x="80" y="495" class="legend">Range: 06/25 - 07/25/2026 (714 records)</text>
</svg>