<?xml version="1.0" encoding="UTF-8"?>
<svg width="800" height="500" xmlns="http://www.w3.org/2000/svg">
<style>
.axis-line { stroke: #333; stroke-width: 1; }
.grid-line { stroke: #ddd; stroke-width: 0.5; }
.title { font: 16px Arial; text-anchor: middle; fill: #333; }
.axis-label { font: 12px Arial; text-anchor: middle; fill: #666; }
.legend { font: 10px Arial; fill: #333; }
</style>

<!-- Title -->
<text x="400.0" y="25" class="title">Northwestern Energy Generation Data - Past 30 Days</text>

<!-- Plot area background -->
<rect x="80" y="50" width="600" height="370" fill="white" stroke="#ddd"/>

<!-- Y-axis -->
<line x1="80" y1="50" x2="80" y2="420" class="axis-line"/>
<text x="30" y="235.0" class="axis-label" transform="rotate(-90, 30, 235.0)">Generation (MW)</text>

<!-- X-axis -->
<line x1="80" y1="420" x2="680" y2="420" class="axis-line"/>
<text x="380.0" y="480" class="axis-label">Time</text>
<line x1="80" y1="420.0" x2="680" y2="420.0" class="grid-line"/>
<text x="70" y="425.0" class="legend" text-anchor="end">0</text>
<line x1="80" y1="327.5" x2="680" y2="327.5" class="grid-line"/>
<text x="70" y="332.5" class="legend" text-anchor="end">259</text>
<line x1="80" y1="235.0" x2="680" y2="235.0" class="grid-line"/>
<text x="70" y="240.0" class="legend" text-anchor="end">518</text>
<line x1="80" y1="142.5" x2="680" y2="142.5" class="grid-line"/>
<text x="70" y="147.5" class="legend" text-anchor="end">777</text>
<line x1="80" y1="50.0" x2="680" y2="50.0" class="grid-line"/>
<text x="70" y="55.0" class="legend" text-anchor="end">1036</text>
<!-- Wind Generation -->
<path d="M80.0,417.9 L80.8,420.0 L81.7,420.0 L82.5,420.0 L83.4,418.2 L84.2,417.1 L85.0,412.9 L85.9,416.4 L86.7,417.9 L87.6,418.9 L88.4,415.7 L89.3,410.7 L90.1,396.4 L90.9,373.2 L91.8,367.9 L92.6,373.6 L93.5,391.1 L94.3,401.4 L95.1,417.5 L96.0,420.0 L96.8,420.0 L97.7,420.0 L98.5,420.0 L99.4,419.3 L100.2,419.6 L101.0,419.3 L101.9,418.6 L102.7,418.9 L103.6,418.2 L104.4,417.1 L105.2,413.9 L106.1,413.6 L106.9,410.0 L107.8,406.8 L108.6,399.3 L109.5,380.0 L110.3,358.9 L111.1,359.3 L112.0,373.2 L112.8,396.8 L113.7,415.0 L114.5,420.0 L115.3,420.0 L116.2,418.9 L117.0,417.5 L117.9,411.1 L118.7,399.3 L119.6,377.5 L120.4,368.6 L121.2,350.7 L122.1,346.5 L122.9,317.2 L123.8,335.7 L124.6,326.1 L125.4,341.1 L126.3,350.7 L127.1,342.5 L128.0,350.7 L128.8,392.5 L129.6,410.0 L130.5,411.4 L131.3,402.1 L132.2,402.1 L133.0,368.2 L133.9,317.9 L134.7,353.2 L135.5,307.9 L136.4,317.9 L137.2,351.1 L138.1,337.2 L138.9,315.7 L139.7,320.0 L140.6,354.3 L141.4,365.0 L142.3,380.7 L143.1,385.0 L144.0,389.7 L144.8,373.9 L145.6,380.0 L146.5,368.6 L147.3,352.9 L148.2,363.6 L149.0,381.8 L149.8,400.7 L150.7,405.7 L151.5,403.2 L152.4,408.6 L153.2,416.4 L154.1,415.7 L154.9,418.9 L155.7,419.6 L156.6,419.6 L157.4,420.0 L158.3,420.0 L159.1,419.6 L159.9,418.9 L160.8,418.9 L161.6,420.0 L162.5,420.0 L163.3,418.6 L164.2,410.4 L165.0,401.1 L165.8,396.4 L166.7,397.9 L167.5,386.4 L168.4,384.3 L169.2,375.7 L170.0,375.4 L170.9,347.2 L171.7,376.8 L172.6,350.0 L173.4,366.8 L174.2,401.4 L175.1,408.9 L175.9,409.3 L176.8,413.9 L177.6,403.2 L178.5,400.0 L179.3,408.6 L180.1,410.4 L181.0,414.6 L181.8,417.5 L182.7,419.6 L183.5,419.3 L184.3,420.0 L185.2,420.0 L186.0,419.3 L186.9,419.6 L187.7,418.2 L188.6,416.1 L189.4,418.9 L190.2,402.1 L191.1,400.4 L191.9,398.2 L192.8,406.1 L193.6,404.3 L194.4,399.3 L195.3,397.5 L196.1,412.1 L197.0,416.4 L197.8,407.1 L198.7,409.3 L199.5,415.7 L200.3,413.2 L201.2,364.7 L202.0,390.4 L202.9,405.0 L203.7,383.2 L204.5,411.4 L205.4,415.0 L206.2,416.8 L207.1,416.8 L207.9,412.1 L208.8,406.1 L209.6,402.9 L210.4,407.5 L211.3,413.9 L212.1,417.5 L213.0,413.6 L213.8,415.0 L214.6,412.9 L215.5,417.9 L216.3,417.9 L217.2,419.6 L218.0,420.0 L218.8,419.3 L219.7,418.9 L220.5,410.7 L221.4,407.5 L222.2,418.6 L223.1,419.3 L223.9,419.3 L224.7,420.0 L225.6,418.6 L226.4,417.5 L227.3,401.1 L228.1,390.7 L228.9,344.7 L229.8,385.7 L230.6,391.4 L231.5,396.8 L232.3,409.3 L233.2,407.5 L234.0,402.9 L234.8,397.5 L235.7,404.6 L236.5,415.4 L237.4,418.6 L238.2,418.2 L239.0,418.6 L239.9,414.3 L240.7,408.6 L241.6,402.5 L242.4,413.9 L243.3,413.9 L244.1,412.5 L244.9,412.9 L245.8,415.7 L246.6,416.8 L247.5,418.6 L248.3,418.9 L249.1,417.1 L250.0,413.9 L250.8,414.6 L251.7,410.7 L252.5,416.1 L253.4,414.6 L254.2,417.5 L255.0,413.2 L255.9,412.9 L256.7,412.5 L257.6,412.1 L258.4,407.9 L259.2,398.6 L260.1,401.4 L260.9,404.6 L261.8,398.9 L262.6,403.2 L263.5,398.2 L264.3,378.9 L265.1,363.9 L266.0,367.2 L266.8,345.4 L267.7,352.9 L268.5,361.8 L269.3,375.7 L270.2,394.7 L271.0,405.4 L271.9,416.1 L272.7,412.5 L273.5,391.1 L274.4,283.3 L275.2,307.5 L276.1,310.4 L276.9,343.6 L277.8,337.9 L278.6,326.8 L279.4,336.1 L280.3,308.3 L281.1,314.7 L282.0,339.7 L282.8,363.6 L283.6,366.4 L284.5,364.3 L285.3,355.4 L286.2,358.9 L287.0,370.4 L287.9,363.9 L288.7,377.9 L289.5,390.7 L290.4,368.2 L291.2,373.6 L292.1,370.4 L292.9,368.6 L293.7,370.4 L294.6,355.0 L295.4,353.6 L296.3,359.7 L297.1,345.7 L298.0,339.3 L298.8,337.9 L299.6,331.5 L300.5,378.9 L301.3,392.9 L302.2,392.5 L303.0,380.0 L303.8,390.4 L304.7,397.5 L305.5,389.7 L306.4,385.0 L307.2,398.6 L308.1,383.9 L308.9,379.7 L309.7,392.2 L310.6,402.1 L311.4,397.2 L312.3,399.6 L313.1,391.1 L313.9,407.9 L314.8,410.7 L315.6,415.7 L316.5,406.4 L317.3,403.2 L318.1,395.0 L319.0,407.1 L319.8,401.1 L320.7,398.6 L321.5,396.8 L322.4,398.6 L323.2,409.3 L324.0,416.4 L324.9,419.3 L325.7,420.0 L326.6,419.6 L327.4,420.0 L328.2,419.6 L329.1,420.0 L329.9,420.0 L330.8,420.0 L331.6,418.2 L332.5,402.1 L333.3,400.0 L334.1,405.7 L335.0,405.7 L335.8,408.2 L336.7,412.1 L337.5,418.9 L338.3,419.6 L339.2,419.3 L340.0,418.6 L340.9,416.8 L341.7,417.9 L342.6,417.1 L343.4,415.4 L344.2,416.8 L345.1,417.9 L345.9,417.5 L346.8,418.2 L347.6,414.3 L348.4,414.3 L349.3,411.8 L350.1,406.4 L351.0,399.6 L351.8,394.7 L352.7,365.4 L353.5,350.4 L354.3,373.6 L355.2,406.4 L356.0,412.5 L356.9,417.1 L357.7,420.0 L358.5,420.0 L359.4,419.3 L360.2,419.3 L361.1,417.1 L361.9,417.1 L362.7,418.2 L363.6,416.8 L364.4,420.0 L365.3,417.9 L366.1,416.8 L367.0,416.1 L367.8,417.1 L368.6,417.5 L369.5,418.6 L370.3,415.4 L371.2,410.4 L372.0,406.8 L372.8,393.9 L373.7,387.9 L374.5,392.2 L375.4,400.0 L376.2,406.4 L377.1,414.6 L377.9,417.9 L378.7,419.6 L379.6,419.3 L380.4,418.2 L381.3,416.8 L382.1,413.2 L382.9,411.1 L383.8,409.3 L384.6,416.1 L385.5,415.7 L386.3,407.5 L387.2,390.7 L388.0,373.2 L388.8,376.8 L389.7,377.5 L390.5,360.4 L391.4,353.6 L392.2,371.4 L393.0,383.2 L393.9,388.9 L394.7,396.4 L395.6,375.0 L396.4,390.4 L397.3,381.4 L398.1,371.8 L398.9,372.2 L399.8,345.0 L400.6,360.0 L401.5,360.4 L402.3,361.8 L403.1,367.9 L404.0,374.7 L404.8,385.4 L405.7,375.7 L406.5,378.9 L407.3,382.2 L408.2,387.5 L409.0,396.8 L409.9,400.0 L410.7,407.5 L411.6,409.6 L412.4,349.7 L413.2,287.9 L414.1,284.7 L414.9,292.9 L415.8,332.9 L416.6,341.8 L417.4,332.2 L418.3,321.5 L419.1,327.9 L420.0,335.7 L420.8,327.5 L421.7,339.0 L422.5,313.3 L423.3,341.5 L424.2,348.6 L425.0,342.5 L425.9,349.0 L426.7,366.4 L427.5,356.8 L428.4,346.1 L429.2,331.8 L430.1,344.7 L430.9,349.7 L431.8,365.7 L432.6,389.3 L433.4,398.9 L434.3,392.2 L435.1,404.6 L436.0,410.0 L436.8,411.1 L437.6,410.4 L438.5,412.9 L439.3,412.5 L440.2,404.3 L441.0,400.7 L441.9,406.4 L442.7,398.9 L443.5,390.0 L444.4,399.3 L445.2,404.6 L446.1,395.4 L446.9,398.9 L447.7,407.5 L448.6,411.8 L449.4,415.0 L450.3,417.1 L451.1,417.1 L451.9,415.4 L452.8,411.8 L453.6,403.6 L454.5,402.1 L455.3,402.5 L456.2,406.8 L457.0,401.1 L457.8,397.9 L458.7,395.0 L459.5,390.4 L460.4,382.9 L461.2,362.9 L462.0,351.5 L462.9,354.3 L463.7,336.1 L464.6,327.9 L465.4,318.2 L467.1,341.8 L467.9,345.0 L468.8,334.0 L469.6,348.6 L470.5,356.8 L471.3,356.5 L472.1,345.7 L473.0,349.3 L473.8,370.4 L474.7,394.7 L475.5,405.4 L476.4,407.1 L477.2,400.4 L478.0,386.1 L478.9,374.7 L479.7,368.2 L480.6,345.0 L481.4,353.2 L482.2,372.2 L483.1,402.1 L483.9,410.0 L484.8,414.6 L485.6,416.4 L486.5,417.5 L487.3,416.8 L488.1,412.9 L489.0,412.9 L489.8,406.4 L490.7,399.3 L491.5,394.7 L492.3,385.7 L493.2,380.0 L494.0,380.0 L494.9,391.1 L495.7,395.4 L496.5,384.7 L497.4,350.7 L498.2,323.6 L499.1,303.3 L499.9,295.8 L500.8,330.7 L501.6,313.3 L502.4,309.7 L503.3,304.7 L504.1,307.5 L505.0,301.5 L505.8,323.2 L506.6,319.7 L507.5,297.2 L508.3,313.6 L509.2,320.0 L510.0,325.7 L510.9,277.5 L511.7,294.7 L512.5,316.8 L513.4,368.6 L514.2,370.4 L515.1,369.7 L515.9,376.8 L516.7,366.8 L517.6,373.6 L518.4,351.5 L519.3,324.3 L520.1,306.1 L521.0,295.8 L521.8,294.7 L522.6,291.1 L523.5,306.5 L524.3,331.5 L525.2,342.5 L526.0,331.8 L526.8,346.5 L527.7,361.1 L528.5,388.6 L529.4,403.2 L530.2,406.8 L531.1,406.8 L531.9,410.4 L532.7,410.4 L533.6,401.4 L534.4,389.7 L535.3,392.9 L536.1,399.6 L536.9,412.9 L537.8,417.5 L538.6,414.6 L539.5,411.4 L540.3,413.2 L541.2,404.3 L542.0,398.6 L542.8,382.2 L543.7,366.4 L544.5,365.4 L545.4,370.0 L546.2,386.1 L547.0,376.1 L547.9,371.8 L548.7,368.2 L549.6,373.2 L550.4,373.9 L551.2,381.4 L552.1,375.7 L552.9,355.0 L553.8,350.7 L554.6,351.1 L555.5,361.1 L556.3,384.7 L557.1,387.2 L558.0,380.0 L558.8,395.4 L559.7,405.0 L560.5,407.1 L561.3,412.5 L562.2,413.6 L563.0,417.9 L563.9,417.9 L564.7,418.2 L565.6,418.9 L566.4,419.6 L567.2,416.4 L568.1,413.2 L568.9,412.9 L569.8,410.0 L570.6,407.1 L571.4,404.3 L572.3,404.6 L573.1,380.4 L574.0,383.9 L574.8,383.2 L575.7,391.8 L576.5,406.1 L577.3,413.9 L578.2,397.2 L579.0,406.8 L579.9,408.9 L580.7,402.1 L581.5,402.9 L582.4,408.2 L583.2,413.9 L584.1,413.9 L584.9,411.1 L585.8,403.9 L586.6,397.2 L587.4,379.7 L588.3,370.7 L589.1,325.0 L590.0,296.1 L590.8,303.3 L591.6,295.8 L592.5,289.7 L593.3,317.5 L594.2,335.0 L595.0,343.2 L595.8,356.1 L596.7,386.8 L597.5,370.7 L598.4,354.7 L599.2,360.4 L600.1,345.0 L600.9,365.0 L601.7,357.9 L602.6,360.0 L603.4,360.7 L604.3,347.5 L605.1,341.1 L605.9,343.6 L606.8,311.8 L610.2,330.0 L611.0,315.0 L611.8,331.1 L612.7,366.8 L613.5,387.2 L614.4,402.5 L615.2,412.1 L616.0,417.9 L616.9,418.6 L617.7,415.7 L618.6,406.8 L619.4,409.6 L620.3,411.1 L621.1,415.0 L621.9,399.6 L622.8,410.0 L623.6,402.1 L624.5,405.0 L625.3,402.1 L626.1,405.0 L627.0,400.0 L627.8,396.8 L628.7,407.1 L629.5,398.9 L630.4,411.8 L631.2,419.6 L632.0,420.0 L632.9,415.7 L633.7,409.6 L634.6,414.6 L635.4,399.3 L636.2,393.6 L637.1,401.8 L637.9,401.4 L638.8,408.2 L639.6,416.4 L640.4,415.7 L641.3,416.4 L642.1,413.6 L643.0,410.4 L643.8,391.1 L644.7,410.7 L645.5,403.9 L646.3,378.9 L647.2,378.9 L648.0,367.2 L648.9,376.4 L649.7,387.2 L650.5,378.2 L651.4,376.1 L652.2,377.5 L653.1,346.1 L653.9,339.7 L654.8,356.5 L655.6,353.2 L656.4,351.1 L657.3,380.7 L658.1,375.7 L659.0,385.4 L659.8,377.2 L660.6,392.2 L661.5,404.3 L662.3,400.4 L663.2,379.7 L664.0,377.5 L664.9,359.3 L665.7,363.9 L666.5,375.0 L667.4,374.3 L668.2,380.4 L669.1,377.9 L669.9,380.4 L670.7,384.3 L671.6,389.7 L672.4,406.1 L673.3,409.6 L674.1,402.1 L675.0,391.1 L675.8,392.5 L676.6,392.5 L677.5,367.2 L678.3,352.9 L679.2,346.1 L680.0,345.4" stroke="#1f77b4" stroke-width="2" fill="none" opacity="0.8"/>
<!-- Hydro Generation -->
<path d="M80.0,344.3 L80.8,344.3 L81.7,343.6 L82.5,343.2 L83.4,342.2 L84.2,341.8 L85.0,342.2 L85.9,341.8 L86.7,342.9 L87.6,342.5 L88.4,341.8 L89.3,342.5 L90.1,342.5 L90.9,342.2 L91.8,341.8 L92.6,342.9 L93.5,342.9 L94.3,342.9 L95.1,343.2 L96.0,343.2 L96.8,343.6 L97.7,344.3 L98.5,344.3 L99.4,344.3 L100.2,345.0 L101.0,345.4 L101.9,345.0 L102.7,345.0 L103.6,346.1 L104.4,346.5 L105.2,346.1 L106.1,346.5 L106.9,346.5 L107.8,345.7 L108.6,345.4 L109.5,345.7 L110.3,346.1 L111.1,345.4 L112.0,345.0 L112.8,344.3 L113.7,344.3 L114.5,344.3 L115.3,344.7 L116.2,344.3 L117.0,343.2 L117.9,343.2 L118.7,343.2 L119.6,343.2 L120.4,344.3 L121.2,344.3 L122.1,344.0 L122.9,343.2 L123.8,343.6 L124.6,342.2 L125.4,343.2 L126.3,342.5 L127.1,342.5 L128.0,341.8 L128.8,341.8 L129.6,342.2 L130.5,342.5 L131.3,343.2 L132.2,343.6 L133.0,344.0 L133.9,343.6 L134.7,346.8 L135.5,343.2 L136.4,343.2 L137.2,342.9 L138.1,343.2 L138.9,342.5 L139.7,342.5 L140.6,342.5 L141.4,342.9 L142.3,343.6 L143.1,343.2 L144.0,343.6 L144.8,343.2 L145.6,342.9 L146.5,344.0 L147.3,343.2 L148.2,343.2 L149.0,343.6 L149.8,342.9 L150.7,342.5 L151.5,342.5 L152.4,342.5 L153.2,342.9 L154.1,342.5 L154.9,342.9 L155.7,343.6 L156.6,343.6 L157.4,343.6 L158.3,344.0 L159.1,343.2 L159.9,343.2 L160.8,344.0 L161.6,344.0 L162.5,343.6 L163.3,343.2 L164.2,343.2 L165.0,342.9 L165.8,343.6 L166.7,343.2 L167.5,342.5 L168.4,342.2 L169.2,342.2 L170.0,343.2 L170.9,342.9 L171.7,343.2 L172.6,344.0 L173.4,344.7 L174.2,344.7 L175.1,344.7 L175.9,345.0 L176.8,344.7 L177.6,344.7 L178.5,344.7 L179.3,344.3 L180.1,344.0 L181.0,344.0 L181.8,344.0 L182.7,344.0 L183.5,345.7 L184.3,345.7 L185.2,345.0 L186.0,345.4 L186.9,346.1 L187.7,346.5 L188.6,345.7 L189.4,345.7 L190.2,346.1 L191.1,346.5 L191.9,346.1 L192.8,346.8 L193.6,346.8 L194.4,347.5 L195.3,347.2 L196.1,347.2 L197.0,347.2 L197.8,346.8 L198.7,347.5 L199.5,347.2 L200.3,346.8 L201.2,347.5 L202.0,346.8 L202.9,346.1 L203.7,345.7 L204.5,345.7 L205.4,346.5 L206.2,346.1 L207.1,346.5 L207.9,345.4 L208.8,346.1 L209.6,345.4 L210.4,345.7 L211.3,345.7 L212.1,346.5 L213.0,346.5 L213.8,346.5 L214.6,346.1 L215.5,346.5 L216.3,346.5 L217.2,346.5 L218.0,346.8 L218.8,346.5 L219.7,346.8 L220.5,346.8 L221.4,346.8 L222.2,346.5 L223.1,346.5 L223.9,346.5 L224.7,346.1 L225.6,346.5 L226.4,346.5 L227.3,346.1 L228.1,346.1 L228.9,345.7 L229.8,346.1 L230.6,345.7 L231.5,346.1 L232.3,347.5 L233.2,347.5 L234.0,347.5 L234.8,347.5 L235.7,347.5 L236.5,347.5 L237.4,347.5 L238.2,347.5 L239.0,347.5 L239.9,347.2 L240.7,347.2 L241.6,348.2 L242.4,348.2 L243.3,347.5 L244.1,347.9 L244.9,347.9 L245.8,348.2 L246.6,348.2 L247.5,347.5 L248.3,347.5 L249.1,346.8 L250.0,346.8 L250.8,346.5 L251.7,346.1 L252.5,346.1 L253.4,345.0 L254.2,345.0 L255.0,343.6 L255.9,343.6 L256.7,343.2 L257.6,343.2 L258.4,343.6 L259.2,343.6 L260.1,342.9 L260.9,342.9 L261.8,342.2 L262.6,341.8 L263.5,342.2 L264.3,341.8 L265.1,341.8 L266.0,342.2 L266.8,342.5 L267.7,345.0 L268.5,345.0 L269.3,344.7 L270.2,344.3 L271.0,344.0 L271.9,344.3 L272.7,344.3 L273.5,345.0 L274.4,344.3 L275.2,344.3 L276.1,344.3 L276.9,342.2 L277.8,342.2 L278.6,342.2 L279.4,342.2 L280.3,341.8 L281.1,342.2 L282.0,350.4 L282.8,350.7 L283.6,349.3 L284.5,349.7 L285.3,349.7 L286.2,349.7 L287.0,350.7 L287.9,350.7 L288.7,351.1 L289.5,351.1 L290.4,350.0 L291.2,349.7 L292.1,349.3 L292.9,349.3 L293.7,348.6 L294.6,349.3 L295.4,349.3 L296.3,348.2 L297.1,349.0 L298.0,347.9 L298.8,348.2 L299.6,348.2 L300.5,348.6 L301.3,349.0 L302.2,348.6 L303.0,348.6 L303.8,349.7 L304.7,351.5 L305.5,350.7 L306.4,351.1 L307.2,351.8 L308.1,353.6 L308.9,353.6 L309.7,353.6 L310.6,352.9 L311.4,352.9 L312.3,353.2 L313.1,354.0 L313.9,354.0 L314.8,353.6 L315.6,354.3 L316.5,353.6 L317.3,353.2 L318.1,352.9 L319.0,351.8 L319.8,351.5 L320.7,352.2 L321.5,351.1 L322.4,352.2 L323.2,352.2 L324.0,352.2 L324.9,351.1 L325.7,351.5 L326.6,351.8 L327.4,351.1 L328.2,351.5 L329.1,351.1 L329.9,351.1 L330.8,351.1 L331.6,351.1 L332.5,351.1 L333.3,351.1 L334.1,351.5 L335.0,351.1 L335.8,351.5 L336.7,351.5 L337.5,351.5 L338.3,351.1 L339.2,351.8 L340.0,352.2 L340.9,352.9 L341.7,352.5 L342.6,354.0 L343.4,354.0 L344.2,353.6 L345.1,354.0 L345.9,354.3 L346.8,355.4 L347.6,355.4 L348.4,356.1 L349.3,356.5 L350.1,356.5 L351.0,356.5 L351.8,356.8 L352.7,357.2 L353.5,357.2 L354.3,357.2 L355.2,357.2 L356.0,356.8 L356.9,357.2 L357.7,357.2 L358.5,357.2 L359.4,357.2 L360.2,357.2 L361.1,356.5 L361.9,356.8 L362.7,356.8 L363.6,356.8 L364.4,355.7 L365.3,355.4 L366.1,355.7 L367.0,355.7 L367.8,355.7 L368.6,354.7 L369.5,355.0 L370.3,355.0 L371.2,354.3 L372.0,354.7 L372.8,355.0 L373.7,354.7 L374.5,354.3 L375.4,354.3 L376.2,354.7 L377.1,354.3 L377.9,354.0 L378.7,354.0 L379.6,354.0 L380.4,354.3 L381.3,354.0 L382.1,354.3 L382.9,355.4 L383.8,355.0 L384.6,355.0 L385.5,355.4 L386.3,355.7 L387.2,355.4 L388.0,355.4 L388.8,355.7 L389.7,355.7 L390.5,356.5 L391.4,357.2 L392.2,357.5 L393.0,357.9 L393.9,358.6 L394.7,358.2 L395.6,358.6 L396.4,358.6 L397.3,358.9 L398.1,358.9 L398.9,358.9 L399.8,358.9 L400.6,358.9 L401.5,358.6 L402.3,358.9 L403.1,359.3 L404.0,359.3 L404.8,358.9 L405.7,359.3 L406.5,358.6 L407.3,358.6 L408.2,358.6 L409.0,357.9 L409.9,357.5 L410.7,357.2 L411.6,356.8 L412.4,357.5 L413.2,357.5 L414.1,357.5 L414.9,357.5 L415.8,357.5 L416.6,357.9 L417.4,357.9 L418.3,358.2 L419.1,358.2 L420.0,358.9 L420.8,358.9 L421.7,358.9 L422.5,359.3 L423.3,360.0 L424.2,360.0 L425.0,360.0 L425.9,359.3 L426.7,359.7 L427.5,359.3 L428.4,360.0 L429.2,360.0 L430.1,359.7 L430.9,360.0 L431.8,359.7 L432.6,359.3 L433.4,359.3 L434.3,358.6 L435.1,357.2 L436.0,356.8 L436.8,357.2 L437.6,358.9 L438.5,358.9 L439.3,358.9 L440.2,358.6 L441.0,358.9 L441.9,358.9 L442.7,358.9 L443.5,358.9 L444.4,358.9 L445.2,358.6 L446.1,358.6 L446.9,358.6 L447.7,358.6 L448.6,358.9 L449.4,358.9 L450.3,358.6 L451.1,358.6 L451.9,358.2 L452.8,357.9 L453.6,358.2 L454.5,358.2 L455.3,359.7 L456.2,359.7 L457.0,360.0 L457.8,359.7 L458.7,359.7 L459.5,359.7 L460.4,359.7 L461.2,359.3 L462.0,359.7 L462.9,359.3 L463.7,360.0 L464.6,359.7 L465.4,359.7 L467.1,360.0 L467.9,359.7 L468.8,359.3 L469.6,360.0 L470.5,360.0 L471.3,360.0 L472.1,360.0 L473.0,360.0 L473.8,360.4 L474.7,358.9 L475.5,358.9 L476.4,357.9 L477.2,357.9 L478.0,359.7 L478.9,359.7 L479.7,359.7 L480.6,359.7 L481.4,359.7 L482.2,359.7 L483.1,359.7 L483.9,359.7 L484.8,360.0 L485.6,360.0 L486.5,359.7 L487.3,360.0 L488.1,360.0 L489.0,359.7 L489.8,359.3 L490.7,360.0 L491.5,359.3 L492.3,359.7 L493.2,359.7 L494.0,359.7 L494.9,358.9 L495.7,357.9 L496.5,357.9 L497.4,357.9 L498.2,358.2 L499.1,357.9 L499.9,357.5 L500.8,358.6 L501.6,358.6 L502.4,358.9 L503.3,358.6 L504.1,358.9 L505.0,358.9 L505.8,359.3 L506.6,358.9 L507.5,359.3 L508.3,360.0 L509.2,360.4 L510.0,360.4 L510.9,360.4 L511.7,360.0 L512.5,359.7 L513.4,360.0 L514.2,360.4 L515.1,360.0 L515.9,360.0 L516.7,360.0 L517.6,360.4 L518.4,360.4 L519.3,360.4 L520.1,360.0 L521.0,360.0 L521.8,360.0 L522.6,360.0 L523.5,360.4 L524.3,360.0 L525.2,360.4 L526.0,360.0 L526.8,360.4 L527.7,360.4 L528.5,360.0 L529.4,360.0 L530.2,360.0 L531.1,360.4 L531.9,360.0 L532.7,360.0 L533.6,360.0 L534.4,360.4 L535.3,358.9 L536.1,358.6 L536.9,355.7 L537.8,358.6 L538.6,360.0 L539.5,360.0 L540.3,361.4 L541.2,361.1 L542.0,361.1 L542.8,360.4 L543.7,360.0 L544.5,360.4 L545.4,360.0 L546.2,360.0 L547.0,360.4 L547.9,360.4 L548.7,360.0 L549.6,360.0 L550.4,359.7 L551.2,359.7 L552.1,360.0 L552.9,359.7 L553.8,360.0 L554.6,360.0 L555.5,360.0 L556.3,360.4 L557.1,360.4 L558.0,360.4 L558.8,360.4 L559.7,360.0 L560.5,360.0 L561.3,360.4 L562.2,360.0 L563.0,360.0 L563.9,359.7 L564.7,360.4 L565.6,360.0 L566.4,359.7 L567.2,359.7 L568.1,359.7 L568.9,359.7 L569.8,360.0 L570.6,359.7 L571.4,356.8 L572.3,360.0 L573.1,360.4 L574.0,359.7 L574.8,360.0 L575.7,360.4 L576.5,360.0 L577.3,360.0 L578.2,360.4 L579.0,360.0 L579.9,360.0 L580.7,360.0 L581.5,360.0 L582.4,363.2 L583.2,359.7 L584.1,359.7 L584.9,359.3 L585.8,359.3 L586.6,358.9 L587.4,359.3 L588.3,359.7 L589.1,359.7 L590.0,358.6 L590.8,359.3 L591.6,358.9 L592.5,358.9 L593.3,358.9 L594.2,358.9 L595.0,358.6 L595.8,358.9 L596.7,359.3 L597.5,358.9 L598.4,358.9 L599.2,358.6 L600.1,358.9 L600.9,358.9 L601.7,358.6 L602.6,358.9 L603.4,359.7 L604.3,358.9 L605.1,358.6 L605.9,358.6 L606.8,357.9 L610.2,357.5 L611.0,357.2 L611.8,356.8 L612.7,357.2 L613.5,356.8 L614.4,356.5 L615.2,356.5 L616.0,356.8 L616.9,356.8 L617.7,357.2 L618.6,356.8 L619.4,356.8 L620.3,356.8 L621.1,356.8 L621.9,357.2 L622.8,356.8 L623.6,357.9 L624.5,357.2 L625.3,357.5 L626.1,357.5 L627.0,358.2 L627.8,358.9 L628.7,358.9 L629.5,358.6 L630.4,358.9 L631.2,358.6 L632.0,358.2 L632.9,358.9 L633.7,358.2 L634.6,358.6 L635.4,358.6 L636.2,358.6 L637.1,358.9 L637.9,358.6 L638.8,358.6 L639.6,358.2 L640.4,358.2 L641.3,358.2 L642.1,358.6 L643.0,358.2 L643.8,357.9 L644.7,357.9 L645.5,358.6 L646.3,357.9 L647.2,358.2 L648.0,358.6 L648.9,357.2 L649.7,357.2 L650.5,357.2 L651.4,356.8 L652.2,356.8 L653.1,356.5 L653.9,356.5 L654.8,357.2 L655.6,357.2 L656.4,357.5 L657.3,357.5 L658.1,357.5 L659.0,357.5 L659.8,357.2 L660.6,357.2 L661.5,357.2 L662.3,357.2 L663.2,357.2 L664.0,357.2 L664.9,356.8 L665.7,357.2 L666.5,357.5 L667.4,357.2 L668.2,357.2 L669.1,357.5 L669.9,357.5 L670.7,357.9 L671.6,357.9 L672.4,357.5 L673.3,357.9 L674.1,358.2 L675.0,358.6 L675.8,357.9 L676.6,358.2 L677.5,358.2 L678.3,358.2 L679.2,358.2 L680.0,357.9" stroke="#ff7f0e" stroke-width="2" fill="none" opacity="0.8"/>
<!-- Thermal Generation -->
<path d="M80.0,320.4 L80.8,330.4 L81.7,340.0 L82.5,341.1 L83.4,336.5 L84.2,338.2 L85.0,339.0 L85.9,335.7 L86.7,330.4 L87.6,321.8 L88.4,318.6 L89.3,315.4 L90.1,315.0 L90.9,313.6 L91.8,315.0 L92.6,313.6 L93.5,313.3 L94.3,339.0 L95.1,344.7 L96.0,346.1 L96.8,346.1 L97.7,346.5 L98.5,346.1 L99.4,347.5 L100.2,347.2 L101.0,344.0 L101.9,344.0 L102.7,345.7 L103.6,350.0 L104.4,351.5 L105.2,352.9 L106.1,354.0 L106.9,354.7 L107.8,331.5 L108.6,321.1 L109.5,321.1 L110.3,319.0 L111.1,320.0 L112.0,331.8 L112.8,330.0 L113.7,348.2 L114.5,328.2 L115.3,348.2 L116.2,348.2 L117.0,348.2 L117.9,349.3 L118.7,347.9 L119.6,347.5 L120.4,348.2 L121.2,348.6 L122.1,350.0 L122.9,352.2 L123.8,354.0 L124.6,354.7 L125.4,356.5 L126.3,356.5 L127.1,356.8 L128.0,356.1 L128.8,348.2 L129.6,325.0 L130.5,322.9 L131.3,325.0 L132.2,321.8 L133.0,331.1 L133.9,351.8 L134.7,352.9 L135.5,354.0 L136.4,352.5 L137.2,352.5 L138.1,352.2 L138.9,352.2 L139.7,352.5 L140.6,351.5 L141.4,349.0 L142.3,349.0 L143.1,350.7 L144.0,335.7 L144.8,322.9 L145.6,323.6 L146.5,325.7 L147.3,332.5 L148.2,327.5 L149.0,354.3 L149.8,353.2 L150.7,351.8 L151.5,351.5 L152.4,351.1 L153.2,319.3 L154.1,319.3 L154.9,318.2 L155.7,342.5 L156.6,341.5 L157.4,341.5 L158.3,342.5 L159.1,329.0 L159.9,319.7 L160.8,317.9 L161.6,318.2 L162.5,319.7 L163.3,306.5 L164.2,321.1 L165.0,306.5 L165.8,314.0 L166.7,316.1 L167.5,308.3 L168.4,309.0 L169.2,311.1 L170.0,310.4 L170.9,310.0 L171.7,309.0 L172.6,309.0 L173.4,315.0 L174.2,327.5 L175.1,327.9 L175.9,321.1 L176.8,321.5 L177.6,321.5 L178.5,306.8 L179.3,307.9 L180.1,305.8 L181.0,278.6 L181.8,292.2 L182.7,303.3 L183.5,308.3 L184.3,308.6 L185.2,309.0 L186.0,301.1 L186.9,285.8 L187.7,287.2 L188.6,297.9 L189.4,288.3 L190.2,286.8 L191.1,284.3 L191.9,281.1 L192.8,291.8 L193.6,304.7 L194.4,309.3 L195.3,309.3 L196.1,308.6 L197.0,307.9 L197.8,307.5 L198.7,309.0 L199.5,308.6 L200.3,294.7 L201.2,297.9 L202.0,301.8 L202.9,302.9 L203.7,301.5 L204.5,309.3 L205.4,310.8 L206.2,300.0 L207.1,300.4 L207.9,296.8 L208.8,290.8 L209.6,297.9 L210.4,286.5 L211.3,285.4 L212.1,287.9 L213.0,284.3 L213.8,296.5 L214.6,287.9 L215.5,295.0 L216.3,307.2 L217.2,306.8 L218.0,306.1 L218.8,305.4 L219.7,306.1 L220.5,292.2 L221.4,291.5 L222.2,305.4 L223.1,306.8 L223.9,307.9 L224.7,326.5 L225.6,318.6 L226.4,310.4 L227.3,310.0 L228.1,315.7 L228.9,338.6 L229.8,346.5 L230.6,346.1 L231.5,336.1 L232.3,335.4 L233.2,333.6 L234.0,326.8 L234.8,327.2 L235.7,326.8 L236.5,329.7 L237.4,329.3 L238.2,332.5 L239.0,328.6 L239.9,329.0 L240.7,329.3 L241.6,329.3 L242.4,336.1 L243.3,346.1 L244.1,348.6 L244.9,347.5 L245.8,348.6 L246.6,347.5 L247.5,346.8 L248.3,346.8 L249.1,336.1 L250.0,337.5 L250.8,336.1 L251.7,336.1 L252.5,339.7 L253.4,340.7 L254.2,342.2 L255.0,344.0 L255.9,335.4 L256.7,343.2 L257.6,344.7 L258.4,346.5 L259.2,345.7 L260.1,345.7 L260.9,347.2 L261.8,347.2 L262.6,352.2 L263.5,354.0 L264.3,354.3 L265.1,353.6 L266.0,355.4 L266.8,356.5 L267.7,357.2 L268.5,357.2 L269.3,357.2 L270.2,357.9 L271.0,357.2 L271.9,356.5 L272.7,345.4 L273.5,331.5 L274.4,344.3 L275.2,355.4 L276.1,354.7 L276.9,355.0 L277.8,355.7 L278.6,354.0 L279.4,354.0 L280.3,354.0 L281.1,354.0 L282.0,353.2 L282.8,352.2 L283.6,352.5 L284.5,353.6 L285.3,346.1 L286.2,336.1 L287.0,352.5 L287.9,354.3 L288.7,334.3 L289.5,321.5 L290.4,319.0 L291.2,317.5 L292.1,315.7 L292.9,317.2 L293.7,326.1 L294.6,326.1 L295.4,351.5 L296.3,350.7 L297.1,350.4 L298.0,351.1 L298.8,351.8 L299.6,350.4 L300.5,351.8 L301.3,351.1 L302.2,351.1 L303.0,351.8 L303.8,352.2 L304.7,352.9 L305.5,352.2 L306.4,352.2 L307.2,352.2 L308.1,352.9 L308.9,319.0 L309.7,335.7 L310.6,340.0 L311.4,316.1 L312.3,316.1 L313.1,315.7 L313.9,349.3 L314.8,348.2 L315.6,348.6 L316.5,348.6 L317.3,349.0 L318.1,348.6 L319.0,348.6 L319.8,348.2 L320.7,348.2 L321.5,348.6 L322.4,349.0 L323.2,349.0 L324.0,350.0 L324.9,352.2 L325.7,354.0 L326.6,354.3 L327.4,358.9 L328.2,360.0 L329.1,338.2 L329.9,327.2 L330.8,344.0 L331.6,322.5 L332.5,320.7 L333.3,327.2 L334.1,350.4 L335.0,349.7 L335.8,349.3 L336.7,350.0 L337.5,349.0 L338.3,348.2 L339.2,348.6 L340.0,348.6 L340.9,347.9 L341.7,347.5 L342.6,347.5 L343.4,348.6 L344.2,349.7 L345.1,350.7 L345.9,328.2 L346.8,352.9 L347.6,350.7 L348.4,354.0 L349.3,343.6 L350.1,325.0 L351.0,330.7 L351.8,323.6 L352.7,321.1 L353.5,324.3 L354.3,350.0 L355.2,349.3 L356.0,349.3 L356.9,348.6 L357.7,348.2 L358.5,347.2 L359.4,346.8 L360.2,347.2 L361.1,346.8 L361.9,346.5 L362.7,348.6 L363.6,349.0 L364.4,349.3 L365.3,350.4 L366.1,351.8 L367.0,352.2 L367.8,350.7 L368.6,354.0 L369.5,353.6 L370.3,331.1 L371.2,322.9 L372.0,322.5 L372.8,319.3 L373.7,318.6 L374.5,328.2 L375.4,331.5 L376.2,317.5 L377.1,316.5 L377.9,316.1 L378.7,348.6 L379.6,349.7 L380.4,349.3 L381.3,349.0 L382.1,316.8 L382.9,342.5 L383.8,350.0 L384.6,352.2 L385.5,353.2 L386.3,354.7 L387.2,355.0 L388.0,355.7 L388.8,346.1 L389.7,357.2 L390.5,325.4 L391.4,334.7 L392.2,304.7 L393.0,289.0 L393.9,302.2 L394.7,321.1 L395.6,313.6 L396.4,314.3 L397.3,314.3 L398.1,333.2 L398.9,332.9 L399.8,334.0 L400.6,333.2 L401.5,333.2 L402.3,329.0 L403.1,328.6 L404.0,329.7 L404.8,330.4 L405.7,331.8 L406.5,335.7 L407.3,335.0 L408.2,326.8 L409.0,320.4 L409.9,320.7 L410.7,320.7 L411.6,310.0 L412.4,307.2 L413.2,306.5 L414.1,318.2 L414.9,319.3 L415.8,317.5 L416.6,317.9 L417.4,319.0 L418.3,316.5 L419.1,316.5 L420.0,317.2 L420.8,317.5 L421.7,317.2 L422.5,314.7 L423.3,316.5 L424.2,315.4 L425.0,309.3 L425.9,308.3 L426.7,309.3 L427.5,312.9 L428.4,314.7 L429.2,315.7 L430.1,315.0 L430.9,314.0 L431.8,314.0 L432.6,294.7 L433.4,283.6 L434.3,281.8 L435.1,305.0 L436.0,313.3 L436.8,313.6 L437.6,313.3 L438.5,314.0 L439.3,313.6 L440.2,313.3 L441.0,312.5 L441.9,312.2 L442.7,311.8 L443.5,294.3 L444.4,302.5 L445.2,302.2 L446.1,312.5 L446.9,312.9 L447.7,314.0 L448.6,314.7 L449.4,315.4 L450.3,314.3 L451.1,284.7 L451.9,284.7 L452.8,280.4 L453.6,284.7 L454.5,284.7 L455.3,284.0 L456.2,284.7 L457.0,304.7 L457.8,303.3 L458.7,313.3 L459.5,312.9 L460.4,312.9 L461.2,313.6 L462.0,314.7 L462.9,283.3 L463.7,282.2 L464.6,307.5 L465.4,313.3 L467.1,316.8 L467.9,318.6 L468.8,320.0 L469.6,319.3 L470.5,319.7 L471.3,319.3 L472.1,319.3 L473.0,293.6 L473.8,289.7 L474.7,289.7 L475.5,289.7 L476.4,316.1 L477.2,315.4 L478.0,314.0 L478.9,316.1 L479.7,315.7 L480.6,317.9 L481.4,317.2 L482.2,315.7 L483.1,313.6 L483.9,312.2 L484.8,311.5 L485.6,312.2 L486.5,312.2 L487.3,312.2 L488.1,312.9 L489.0,314.0 L489.8,316.1 L490.7,316.5 L491.5,315.7 L492.3,307.2 L493.2,293.3 L494.0,305.4 L494.9,305.8 L495.7,310.4 L496.5,316.1 L497.4,316.8 L498.2,316.1 L499.1,315.7 L499.9,316.1 L500.8,316.1 L501.6,315.4 L502.4,315.7 L503.3,314.7 L504.1,314.7 L505.0,315.0 L505.8,315.7 L506.6,317.5 L507.5,317.9 L508.3,317.2 L509.2,317.9 L510.0,317.5 L510.9,316.5 L511.7,315.0 L512.5,316.8 L513.4,316.1 L514.2,316.8 L515.1,316.5 L515.9,316.1 L516.7,322.9 L517.6,325.0 L518.4,325.4 L519.3,327.5 L520.1,327.9 L521.0,327.5 L521.8,326.5 L522.6,326.1 L523.5,325.7 L524.3,325.7 L525.2,326.5 L526.0,325.4 L526.8,325.7 L527.7,325.7 L528.5,325.4 L529.4,324.3 L530.2,325.7 L531.1,326.1 L531.9,325.7 L532.7,325.0 L533.6,298.3 L534.4,308.6 L535.3,308.3 L536.1,326.8 L536.9,363.2 L537.8,362.9 L538.6,363.6 L539.5,363.6 L540.3,363.6 L541.2,362.9 L542.0,363.6 L542.8,363.2 L543.7,364.3 L544.5,364.3 L545.4,361.8 L546.2,362.5 L547.0,361.4 L547.9,352.2 L548.7,353.2 L549.6,342.2 L550.4,332.2 L551.2,332.5 L552.1,325.4 L552.9,325.0 L553.8,292.5 L554.6,324.0 L555.5,325.7 L556.3,326.8 L557.1,326.5 L558.0,326.1 L558.8,326.1 L559.7,325.0 L560.5,325.4 L561.3,325.4 L562.2,325.7 L563.0,324.7 L563.9,324.0 L564.7,324.7 L565.6,326.5 L566.4,325.4 L567.2,297.5 L568.1,298.3 L568.9,325.7 L569.8,303.3 L570.6,295.0 L571.4,293.6 L572.3,324.7 L573.1,324.0 L574.0,324.7 L574.8,324.3 L575.7,324.3 L576.5,325.0 L577.3,325.7 L578.2,325.7 L579.0,325.7 L579.9,325.0 L580.7,325.4 L581.5,325.4 L582.4,325.4 L583.2,325.0 L584.1,325.0 L584.9,325.4 L585.8,325.7 L586.6,326.8 L587.4,326.8 L588.3,325.0 L589.1,327.2 L590.0,325.7 L590.8,383.2 L591.6,382.5 L592.5,371.8 L593.3,357.9 L594.2,311.8 L595.0,294.0 L595.8,296.8 L596.7,320.0 L597.5,325.0 L598.4,325.4 L599.2,322.9 L600.1,323.2 L600.9,323.6 L601.7,324.0 L602.6,323.6 L603.4,324.0 L604.3,317.2 L605.1,324.7 L605.9,325.0 L606.8,324.3 L610.2,379.3 L611.0,368.9 L611.8,354.7 L612.7,322.5 L613.5,322.2 L614.4,284.7 L615.2,284.0 L616.0,282.2 L616.9,281.8 L617.7,281.8 L618.6,285.4 L619.4,283.6 L620.3,292.9 L621.1,310.0 L621.9,310.0 L622.8,310.0 L623.6,317.5 L624.5,282.9 L625.3,282.5 L626.1,323.6 L627.0,323.2 L627.8,301.1 L628.7,309.0 L629.5,314.7 L630.4,300.0 L631.2,302.2 L632.0,307.2 L632.9,305.0 L633.7,282.9 L634.6,279.0 L635.4,279.3 L636.2,279.7 L637.1,280.4 L637.9,284.7 L638.8,293.3 L639.6,278.3 L640.4,284.3 L641.3,309.3 L642.1,312.5 L643.0,303.3 L643.8,296.1 L644.7,279.0 L645.5,286.5 L646.3,297.2 L647.2,296.1 L648.0,309.0 L648.9,290.0 L649.7,300.8 L650.5,319.7 L651.4,322.5 L652.2,323.2 L653.1,315.4 L653.9,322.2 L654.8,279.3 L655.6,297.5 L656.4,316.5 L657.3,306.5 L658.1,302.9 L659.0,310.4 L659.8,311.8 L660.6,289.3 L661.5,289.7 L662.3,310.0 L663.2,307.5 L664.0,309.7 L664.9,299.3 L665.7,294.3 L666.5,325.4 L667.4,291.5 L668.2,305.4 L669.1,310.4 L669.9,290.8 L670.7,301.8 L671.6,300.0 L672.4,297.2 L673.3,290.0 L674.1,288.3 L675.0,286.8 L675.8,287.2 L676.6,290.4 L677.5,296.5 L678.3,305.4 L679.2,285.8 L680.0,284.7" stroke="#2ca02c" stroke-width="2" fill="none" opacity="0.8"/>
<!-- Solar Generation -->
<path d="M80.0,410.7 L80.8,390.7 L81.7,373.9 L82.5,370.4 L83.4,370.0 L84.2,371.1 L85.0,370.7 L85.9,369.3 L86.7,368.9 L87.6,370.4 L88.4,380.4 L89.3,406.1 L90.1,419.6 L90.9,420.0 L91.8,420.0 L92.6,420.0 L93.5,420.0 L94.3,420.0 L95.1,420.0 L96.0,420.0 L96.8,420.0 L97.7,420.0 L98.5,420.0 L99.4,420.0 L100.2,409.6 L101.0,389.3 L101.9,381.8 L102.7,376.4 L103.6,374.7 L104.4,374.3 L105.2,375.4 L106.1,378.2 L106.9,381.8 L107.8,384.3 L108.6,396.4 L109.5,413.2 L110.3,420.0 L111.1,420.0 L112.0,420.0 L112.8,420.0 L113.7,420.0 L114.5,420.0 L115.3,420.0 L116.2,420.0 L117.0,420.0 L117.9,420.0 L118.7,420.0 L119.6,420.0 L120.4,413.6 L121.2,399.3 L122.1,378.6 L122.9,374.3 L123.8,380.7 L124.6,377.2 L125.4,382.5 L126.3,375.7 L127.1,383.9 L128.0,410.7 L128.8,415.0 L129.6,418.2 L130.5,420.0 L131.3,420.0 L132.2,420.0 L133.0,420.0 L133.9,420.0 L134.7,420.0 L135.5,420.0 L136.4,420.0 L137.2,420.0 L138.1,420.0 L138.9,420.0 L139.7,420.0 L140.6,412.9 L141.4,394.7 L142.3,371.1 L143.1,371.1 L144.0,386.8 L144.8,377.5 L145.6,385.4 L146.5,377.2 L147.3,381.8 L148.2,376.8 L149.0,386.8 L149.8,405.4 L150.7,419.6 L151.5,420.0 L152.4,420.0 L153.2,420.0 L154.1,420.0 L154.9,420.0 L155.7,420.0 L156.6,420.0 L157.4,420.0 L158.3,420.0 L159.1,420.0 L159.9,420.0 L160.8,414.6 L161.6,408.2 L162.5,400.0 L163.3,398.2 L164.2,393.6 L165.0,380.4 L165.8,385.7 L166.7,385.0 L167.5,386.4 L168.4,391.8 L169.2,403.2 L170.0,417.5 L170.9,420.0 L171.7,420.0 L172.6,420.0 L173.4,420.0 L174.2,420.0 L175.1,420.0 L175.9,420.0 L176.8,420.0 L177.6,420.0 L178.5,420.0 L179.3,420.0 L180.1,420.0 L181.0,414.3 L181.8,387.5 L182.7,391.1 L183.5,385.0 L184.3,385.4 L185.2,379.7 L186.0,384.3 L186.9,376.1 L187.7,395.0 L188.6,402.9 L189.4,407.1 L190.2,417.1 L191.1,420.0 L191.9,420.0 L192.8,420.0 L193.6,420.0 L194.4,420.0 L195.3,420.0 L196.1,420.0 L197.0,420.0 L197.8,420.0 L198.7,420.0 L199.5,420.0 L200.3,420.0 L201.2,417.5 L202.0,413.6 L202.9,395.0 L203.7,391.1 L204.5,391.1 L205.4,390.4 L206.2,387.5 L207.1,394.3 L207.9,403.9 L208.8,410.4 L209.6,412.5 L210.4,417.1 L211.3,420.0 L212.1,420.0 L213.0,420.0 L213.8,420.0 L214.6,420.0 L215.5,420.0 L216.3,420.0 L217.2,420.0 L218.0,420.0 L218.8,420.0 L219.7,420.0 L220.5,420.0 L221.4,410.7 L222.2,386.8 L223.1,373.9 L223.9,371.1 L224.7,373.2 L225.6,381.4 L226.4,373.2 L227.3,383.6 L228.1,392.2 L228.9,382.9 L229.8,405.0 L230.6,416.1 L231.5,420.0 L232.3,420.0 L233.2,420.0 L234.0,420.0 L234.8,420.0 L235.7,420.0 L236.5,420.0 L237.4,420.0 L238.2,420.0 L239.0,420.0 L239.9,420.0 L240.7,420.0 L241.6,418.6 L242.4,395.7 L243.3,386.8 L244.1,380.4 L244.9,378.6 L245.8,376.1 L246.6,373.9 L247.5,386.1 L248.3,401.8 L249.1,402.5 L250.0,396.8 L250.8,414.6 L251.7,420.0 L252.5,420.0 L253.4,420.0 L254.2,420.0 L255.0,420.0 L255.9,420.0 L256.7,420.0 L257.6,420.0 L258.4,420.0 L259.2,420.0 L260.1,420.0 L260.9,420.0 L261.8,410.7 L262.6,377.5 L263.5,397.2 L264.3,396.8 L265.1,389.3 L266.0,378.2 L266.8,398.2 L267.7,394.7 L268.5,391.4 L269.3,407.5 L270.2,417.5 L271.0,418.2 L271.9,420.0 L272.7,420.0 L273.5,420.0 L274.4,420.0 L275.2,420.0 L276.1,420.0 L276.9,420.0 L277.8,420.0 L278.6,420.0 L279.4,420.0 L280.3,420.0 L281.1,420.0 L282.0,415.7 L282.8,383.6 L283.6,387.9 L284.5,393.6 L285.3,399.6 L286.2,403.9 L287.0,388.2 L287.9,390.4 L288.7,411.4 L289.5,411.4 L290.4,415.0 L291.2,417.9 L292.1,420.0 L292.9,420.0 L293.7,420.0 L294.6,420.0 L295.4,420.0 L296.3,420.0 L297.1,420.0 L298.0,420.0 L298.8,420.0 L299.6,420.0 L300.5,420.0 L301.3,420.0 L302.2,413.9 L303.0,406.1 L303.8,402.5 L304.7,391.4 L305.5,398.2 L306.4,392.9 L307.2,379.3 L308.1,391.8 L308.9,392.5 L309.7,413.6 L310.6,407.9 L311.4,416.8 L312.3,420.0 L313.1,420.0 L313.9,420.0 L314.8,420.0 L315.6,420.0 L316.5,420.0 L317.3,420.0 L318.1,420.0 L319.0,420.0 L319.8,420.0 L320.7,420.0 L321.5,420.0 L322.4,416.1 L323.2,391.4 L324.0,375.7 L324.9,375.7 L325.7,375.7 L326.6,373.9 L327.4,378.6 L328.2,377.9 L329.1,376.4 L329.9,380.4 L330.8,385.4 L331.6,411.4 L332.5,420.0 L333.3,420.0 L334.1,420.0 L335.0,420.0 L335.8,420.0 L336.7,420.0 L337.5,420.0 L338.3,420.0 L339.2,420.0 L340.0,420.0 L340.9,420.0 L341.7,420.0 L342.6,413.2 L343.4,384.3 L344.2,373.2 L345.1,371.4 L345.9,372.9 L346.8,376.1 L347.6,373.2 L348.4,372.9 L349.3,372.9 L350.1,374.7 L351.0,384.3 L351.8,412.9 L352.7,420.0 L353.5,420.0 L354.3,420.0 L355.2,420.0 L356.0,420.0 L356.9,420.0 L357.7,420.0 L358.5,420.0 L359.4,420.0 L360.2,420.0 L361.1,420.0 L361.9,420.0 L362.7,412.9 L363.6,388.2 L364.4,392.2 L365.3,377.5 L366.1,378.2 L367.0,378.6 L367.8,380.7 L368.6,379.3 L369.5,374.7 L370.3,379.3 L371.2,396.8 L372.0,412.5 L372.8,420.0 L373.7,420.0 L374.5,420.0 L375.4,420.0 L376.2,420.0 L377.1,420.0 L377.9,420.0 L378.7,420.0 L379.6,420.0 L380.4,420.0 L381.3,420.0 L382.1,420.0 L382.9,414.3 L383.8,384.7 L384.6,372.5 L385.5,371.1 L386.3,372.5 L387.2,373.6 L388.0,372.5 L388.8,373.9 L389.7,376.1 L390.5,381.4 L391.4,395.4 L392.2,412.9 L393.0,420.0 L393.9,420.0 L394.7,420.0 L395.6,420.0 L396.4,420.0 L397.3,420.0 L398.1,420.0 L398.9,420.0 L399.8,420.0 L400.6,420.0 L401.5,420.0 L402.3,420.0 L403.1,415.4 L404.0,390.0 L404.8,383.6 L405.7,383.9 L406.5,373.9 L407.3,387.9 L408.2,385.4 L409.0,378.6 L409.9,397.2 L410.7,399.6 L411.6,408.9 L412.4,418.9 L413.2,420.0 L414.1,420.0 L414.9,420.0 L415.8,420.0 L416.6,420.0 L417.4,420.0 L418.3,420.0 L419.1,420.0 L420.0,420.0 L420.8,420.0 L421.7,420.0 L422.5,420.0 L423.3,419.3 L424.2,397.5 L425.0,410.4 L425.9,389.7 L426.7,388.6 L427.5,406.1 L428.4,383.9 L429.2,381.1 L430.1,386.1 L430.9,401.4 L431.8,398.6 L432.6,413.6 L433.4,420.0 L434.3,420.0 L435.1,420.0 L436.0,420.0 L436.8,420.0 L437.6,420.0 L438.5,420.0 L439.3,420.0 L440.2,420.0 L441.0,420.0 L441.9,420.0 L442.7,420.0 L443.5,413.6 L444.4,382.2 L445.2,370.4 L446.1,370.4 L446.9,371.4 L447.7,372.9 L448.6,372.9 L449.4,371.1 L450.3,370.0 L451.1,370.7 L451.9,384.3 L452.8,413.9 L453.6,420.0 L454.5,420.0 L455.3,420.0 L456.2,420.0 L457.0,420.0 L457.8,420.0 L458.7,420.0 L459.5,420.0 L460.4,420.0 L461.2,420.0 L462.0,420.0 L462.9,420.0 L463.7,413.9 L464.6,382.5 L465.4,369.7 L466.3,420.0 L467.1,371.4 L467.9,373.2 L468.8,373.2 L469.6,371.4 L470.5,370.0 L471.3,370.7 L472.1,385.0 L473.0,414.6 L473.8,420.0 L474.7,420.0 L475.5,420.0 L476.4,420.0 L477.2,420.0 L478.0,420.0 L478.9,420.0 L479.7,420.0 L480.6,420.0 L481.4,420.0 L482.2,420.0 L483.1,420.0 L483.9,414.6 L484.8,383.6 L485.6,370.7 L486.5,370.7 L487.3,372.9 L488.1,374.3 L489.0,374.3 L489.8,372.5 L490.7,370.7 L491.5,371.4 L492.3,387.5 L493.2,415.4 L494.0,420.0 L494.9,420.0 L495.7,420.0 L496.5,420.0 L497.4,420.0 L498.2,420.0 L499.1,420.0 L499.9,420.0 L500.8,420.0 L501.6,420.0 L502.4,420.0 L503.3,420.0 L504.1,418.9 L505.0,386.8 L505.8,372.5 L506.6,371.4 L507.5,373.2 L508.3,375.7 L509.2,374.7 L510.0,373.9 L510.9,376.8 L511.7,382.2 L512.5,398.9 L513.4,417.9 L514.2,420.0 L515.1,420.0 L515.9,420.0 L516.7,420.0 L517.6,420.0 L518.4,420.0 L519.3,420.0 L520.1,420.0 L521.0,420.0 L521.8,420.0 L522.6,420.0 L523.5,420.0 L524.3,416.1 L525.2,387.9 L526.0,371.8 L526.8,371.1 L527.7,373.6 L528.5,374.7 L529.4,375.0 L530.2,372.9 L531.1,371.4 L531.9,372.9 L532.7,390.4 L533.6,416.8 L534.4,420.0 L535.3,420.0 L536.1,420.0 L536.9,420.0 L537.8,420.0 L538.6,420.0 L539.5,420.0 L540.3,420.0 L541.2,420.0 L542.0,420.0 L542.8,420.0 L543.7,420.0 L544.5,415.7 L545.4,389.7 L546.2,372.5 L547.0,371.8 L547.9,376.1 L548.7,376.4 L549.6,374.7 L550.4,375.0 L551.2,407.1 L552.1,371.1 L552.9,408.6 L553.8,415.0 L554.6,420.0 L555.5,420.0 L556.3,420.0 L557.1,420.0 L558.0,420.0 L558.8,420.0 L559.7,420.0 L560.5,420.0 L561.3,420.0 L562.2,420.0 L563.0,420.0 L563.9,420.0 L564.7,418.9 L565.6,409.3 L566.4,385.4 L567.2,379.7 L568.1,375.7 L568.9,377.5 L569.8,375.4 L570.6,393.9 L571.4,396.8 L572.3,397.9 L573.1,416.1 L574.0,418.6 L574.8,420.0 L575.7,420.0 L576.5,420.0 L577.3,420.0 L578.2,420.0 L579.0,420.0 L579.9,420.0 L580.7,420.0 L581.5,420.0 L582.4,420.0 L583.2,420.0 L584.1,420.0 L584.9,417.9 L585.8,415.4 L586.6,396.8 L587.4,375.4 L588.3,377.9 L589.1,381.8 L590.0,377.9 L590.8,383.2 L591.6,398.6 L592.5,414.6 L593.3,410.7 L594.2,419.6 L595.0,420.0 L595.8,420.0 L596.7,420.0 L597.5,420.0 L598.4,420.0 L599.2,420.0 L600.1,420.0 L600.9,420.0 L601.7,420.0 L602.6,420.0 L603.4,420.0 L604.3,420.0 L605.1,419.3 L605.9,400.0 L606.8,408.6 L607.6,420.0 L608.5,420.0 L609.3,420.0 L610.2,392.5 L611.0,378.9 L611.8,378.9 L612.7,399.6 L613.5,407.1 L614.4,419.3 L615.2,420.0 L616.0,420.0 L616.9,420.0 L617.7,420.0 L618.6,420.0 L619.4,420.0 L620.3,420.0 L621.1,420.0 L621.9,420.0 L622.8,420.0 L623.6,420.0 L624.5,420.0 L625.3,417.9 L626.1,401.8 L627.0,397.2 L627.8,403.9 L628.7,407.1 L629.5,410.0 L630.4,396.1 L631.2,394.3 L632.0,414.6 L632.9,404.3 L633.7,401.8 L634.6,419.6 L635.4,420.0 L636.2,420.0 L637.1,420.0 L637.9,420.0 L638.8,420.0 L639.6,420.0 L640.4,420.0 L641.3,420.0 L642.1,420.0 L643.0,420.0 L643.8,420.0 L644.7,420.0 L645.5,418.6 L646.3,411.4 L647.2,407.1 L648.0,398.2 L648.9,394.7 L649.7,387.5 L650.5,381.4 L651.4,396.1 L652.2,407.5 L653.1,416.4 L653.9,416.4 L654.8,419.6 L655.6,420.0 L656.4,420.0 L657.3,420.0 L658.1,420.0 L659.0,420.0 L659.8,420.0 L660.6,420.0 L661.5,420.0 L662.3,420.0 L663.2,420.0 L664.0,420.0 L664.9,420.0 L665.7,420.0 L666.5,418.2 L667.4,415.4 L668.2,411.1 L669.1,412.1 L669.9,405.4 L670.7,405.4 L671.6,407.1 L672.4,407.5 L673.3,416.1 L674.1,418.6 L675.0,419.6 L675.8,420.0 L676.6,420.0 L677.5,420.0 L678.3,420.0 L679.2,420.0 L680.0,420.0" stroke="#d62728" stroke-width="2" fill="none" opacity="0.8"/>
<!-- Forecast -->
<path d="M80.0,201.1 L80.8,186.5 L81.7,164.4 L82.5,148.7 L83.4,142.6 L84.2,141.2 L85.0,141.2 L85.9,141.5 L86.7,141.2 L87.6,140.8 L88.4,141.2 L89.3,141.2 L90.1,125.1 L90.9,128.3 L91.8,135.8 L92.6,164.0 L93.5,191.9 L94.3,231.5 L95.1,245.4 L96.0,250.1 L96.8,252.6 L97.7,254.3 L98.5,255.1 L99.4,241.8 L100.2,216.9 L101.0,186.2 L101.9,165.8 L102.7,158.3 L103.6,157.9 L104.4,148.7 L105.2,141.2 L106.1,140.1 L106.9,128.0 L107.8,120.1 L108.6,119.4 L109.5,118.3 L110.3,129.7 L111.1,138.0 L112.0,140.1 L112.8,156.2 L113.7,179.7 L114.5,201.9 L115.3,217.9 L116.2,227.2 L117.0,232.2 L117.9,234.0 L118.7,232.2 L119.6,224.7 L120.4,212.2 L121.2,194.4 L122.1,175.8 L122.9,160.4 L123.8,152.6 L124.6,148.7 L125.4,139.4 L126.3,130.1 L127.1,118.7 L128.0,108.7 L128.8,95.8 L129.6,134.4 L130.5,159.4 L131.3,167.9 L132.2,168.7 L133.0,167.2 L133.9,182.9 L134.7,193.6 L135.5,192.2 L136.4,189.0 L137.2,186.5 L138.1,185.8 L138.9,186.9 L139.7,188.3 L140.6,190.4 L141.4,159.0 L142.3,138.0 L143.1,121.2 L144.0,113.0 L144.8,111.2 L145.6,110.8 L146.5,111.2 L147.3,111.9 L148.2,116.2 L149.0,123.0 L149.8,135.1 L150.7,159.0 L151.5,175.4 L152.4,95.8 L153.2,160.4 L154.1,180.4 L154.9,199.7 L155.7,211.1 L156.6,219.0 L157.4,224.7 L158.3,223.6 L159.1,212.6 L159.9,189.4 L160.8,162.6 L161.6,136.2 L162.5,122.2 L163.3,115.8 L164.2,108.7 L165.0,104.0 L165.8,100.1 L166.7,93.7 L167.5,84.4 L168.4,80.8 L169.2,84.4 L170.0,92.3 L170.9,107.6 L171.7,119.4 L172.6,123.3 L173.4,141.5 L174.2,170.8 L175.1,196.9 L175.9,210.4 L176.8,219.7 L177.6,224.7 L178.5,224.0 L179.3,212.9 L180.1,189.0 L181.0,161.9 L181.8,136.5 L182.7,123.0 L183.5,116.2 L184.3,108.7 L185.2,102.3 L186.0,94.8 L186.9,84.8 L187.7,71.9 L188.6,67.6 L189.4,73.0 L190.2,85.5 L191.1,105.5 L191.9,114.7 L192.8,119.4 L193.6,140.5 L194.4,188.3 L195.3,211.9 L196.1,223.6 L197.0,232.9 L197.8,235.1 L198.7,233.6 L199.5,222.9 L200.3,187.9 L201.2,153.7 L202.0,132.2 L202.9,122.2 L203.7,124.7 L204.5,124.0 L205.4,122.2 L206.2,123.7 L207.1,125.8 L207.9,120.5 L208.8,122.2 L209.6,124.0 L210.4,122.2 L211.3,117.2 L212.1,117.2 L213.0,136.5 L213.8,165.4 L214.6,194.7 L215.5,214.7 L216.3,226.9 L217.2,234.7 L218.0,236.8 L218.8,235.1 L219.7,222.6 L220.5,188.3 L221.4,152.6 L222.2,132.6 L223.1,128.3 L223.9,131.2 L224.7,128.7 L225.6,126.5 L226.4,128.7 L227.3,130.5 L228.1,126.2 L228.9,125.5 L229.8,125.1 L230.6,123.7 L231.5,119.0 L232.3,118.3 L233.2,137.2 L234.0,165.8 L234.8,203.3 L235.7,218.6 L236.5,228.6 L237.4,234.0 L238.2,237.6 L239.0,239.3 L239.9,236.5 L240.7,221.9 L241.6,205.8 L242.4,185.8 L243.3,168.3 L244.1,159.4 L244.9,157.2 L245.8,165.1 L246.6,164.7 L247.5,163.7 L248.3,160.8 L249.1,150.4 L250.0,147.9 L250.8,150.1 L251.7,147.6 L252.5,150.1 L253.4,162.2 L254.2,184.0 L255.0,206.1 L255.9,222.2 L256.7,233.3 L257.6,240.1 L258.4,243.3 L259.2,240.1 L260.1,236.5 L260.9,223.3 L261.8,211.9 L262.6,200.1 L263.5,180.1 L264.3,168.7 L265.1,166.2 L266.0,160.1 L266.8,160.1 L267.7,161.9 L268.5,153.3 L269.3,139.0 L270.2,126.9 L271.0,126.2 L271.9,123.0 L272.7,128.7 L273.5,146.9 L274.4,174.0 L275.2,197.6 L276.1,215.1 L276.9,226.5 L277.8,234.7 L278.6,236.8 L279.4,235.1 L280.3,222.6 L281.1,188.3 L282.0,151.9 L282.8,132.2 L283.6,127.2 L284.5,128.3 L285.3,128.0 L286.2,128.0 L287.0,130.5 L287.9,131.9 L288.7,129.7 L289.5,128.7 L290.4,128.7 L291.2,127.2 L292.1,123.3 L292.9,121.9 L293.7,142.2 L294.6,171.9 L295.4,198.6 L296.3,217.2 L297.1,228.6 L298.0,235.4 L298.8,237.6 L299.6,235.4 L300.5,222.2 L301.3,187.6 L302.2,150.8 L303.0,132.2 L303.8,130.8 L304.7,130.5 L305.5,140.1 L306.4,142.2 L307.2,149.7 L308.1,143.0 L308.9,144.4 L309.7,144.4 L310.6,149.7 L311.4,158.3 L312.3,173.7 L313.1,185.1 L313.9,187.2 L314.8,186.9 L315.6,212.2 L316.5,229.4 L317.3,255.8 L318.1,262.2 L319.0,261.5 L319.8,261.1 L320.7,233.3 L321.5,226.5 L322.4,192.9 L323.2,180.1 L324.0,162.2 L324.9,142.6 L325.7,134.4 L326.6,133.7 L327.4,135.1 L328.2,128.7 L329.1,119.7 L329.9,115.8 L330.8,113.3 L331.6,116.5 L332.5,115.8 L333.3,116.9 L334.1,136.9 L335.0,165.8 L335.8,195.4 L336.7,216.5 L337.5,228.6 L338.3,235.4 L339.2,237.6 L340.0,235.8 L340.9,221.9 L341.7,187.6 L342.6,199.4 L343.4,201.9 L344.2,184.0 L345.1,163.3 L345.9,154.4 L346.8,153.3 L347.6,153.7 L348.4,154.0 L349.3,152.9 L350.1,151.9 L351.0,152.2 L351.8,163.3 L352.7,177.9 L353.5,187.9 L354.3,187.2 L355.2,186.2 L356.0,196.1 L356.9,243.3 L357.7,235.8 L358.5,235.8 L359.4,237.6 L360.2,235.8 L361.1,222.2 L361.9,187.9 L362.7,151.5 L363.6,132.2 L364.4,130.5 L365.3,133.0 L366.1,128.0 L367.0,124.0 L367.8,123.0 L368.6,117.6 L369.5,110.8 L370.3,108.7 L371.2,107.6 L372.0,111.5 L372.8,111.9 L373.7,114.0 L374.5,132.6 L375.4,162.6 L376.2,205.1 L377.1,220.1 L377.9,229.4 L378.7,234.7 L379.6,237.9 L380.4,239.7 L381.3,235.8 L382.1,221.9 L382.9,206.5 L383.8,189.0 L384.6,173.3 L385.5,165.8 L386.3,164.0 L387.2,159.4 L388.0,157.2 L388.8,151.5 L389.7,139.4 L390.5,135.1 L391.4,129.0 L392.2,131.5 L393.0,143.7 L393.9,149.7 L394.7,163.3 L395.6,185.4 L396.4,207.9 L397.3,225.4 L398.1,235.8 L398.9,243.3 L399.8,246.1 L400.6,242.6 L401.5,240.1 L402.3,227.6 L403.1,215.8 L404.0,204.0 L404.8,182.9 L405.7,170.4 L406.5,166.9 L407.3,160.1 L408.2,160.4 L409.0,162.9 L409.9,158.3 L410.7,150.1 L411.6,139.0 L412.4,138.7 L413.2,131.2 L414.1,132.2 L414.9,150.4 L415.8,177.9 L416.6,202.2 L417.4,217.9 L418.3,228.6 L419.1,235.8 L420.0,237.9 L420.8,235.4 L421.7,221.1 L422.5,185.8 L423.3,149.0 L424.2,131.9 L425.0,129.4 L425.9,129.7 L426.7,129.7 L427.5,130.1 L428.4,133.7 L429.2,135.1 L430.1,133.3 L430.9,129.7 L431.8,126.9 L432.6,125.8 L433.4,123.3 L434.3,123.0 L435.1,143.7 L436.0,173.3 L436.8,200.1 L437.6,219.4 L438.5,229.7 L439.3,235.4 L440.2,237.2 L441.0,234.7 L441.9,219.7 L442.7,184.7 L443.5,147.9 L444.4,131.2 L445.2,129.4 L446.1,130.1 L446.9,128.7 L447.7,127.6 L448.6,129.4 L449.4,129.7 L450.3,124.0 L451.1,118.0 L451.9,116.2 L452.8,119.0 L453.6,118.3 L454.5,119.7 L455.3,140.1 L456.2,170.8 L457.0,194.4 L457.8,217.6 L458.7,229.4 L459.5,235.4 L460.4,237.6 L461.2,235.4 L462.0,221.5 L462.9,187.2 L463.7,150.4 L464.6,131.9 L465.4,125.8 L466.3,121.5 L467.1,119.0 L467.9,115.8 L468.8,111.2 L469.6,103.3 L470.5,96.9 L471.3,91.5 L472.1,93.0 L473.0,103.0 L473.8,108.0 L474.7,112.6 L475.5,131.5 L476.4,161.2 L477.2,190.8 L478.0,216.9 L478.9,228.3 L479.7,235.4 L480.6,237.6 L481.4,235.8 L482.2,222.2 L483.1,188.3 L483.9,151.9 L484.8,133.0 L485.6,130.5 L486.5,131.9 L487.3,125.8 L488.1,120.5 L489.0,114.7 L489.8,105.1 L490.7,97.3 L491.5,92.6 L492.3,93.3 L493.2,103.3 L494.0,108.0 L494.9,112.6 L495.7,130.1 L496.5,157.9 L497.4,197.6 L498.2,215.1 L499.1,226.5 L499.9,234.3 L500.8,236.8 L501.6,235.1 L502.4,222.9 L503.3,188.6 L504.1,152.2 L505.0,133.0 L505.8,128.0 L506.6,129.0 L507.5,127.6 L508.3,125.8 L509.2,127.2 L510.0,129.7 L510.9,124.7 L511.7,124.0 L512.5,121.5 L513.4,124.0 L514.2,123.0 L515.1,122.6 L515.9,143.3 L516.7,172.6 L517.6,205.4 L518.4,216.5 L519.3,224.4 L520.1,230.1 L521.0,232.9 L521.8,234.0 L522.6,230.1 L523.5,215.8 L524.3,199.7 L525.2,181.9 L526.0,167.9 L526.8,162.2 L527.7,161.2 L528.5,163.7 L529.4,162.6 L530.2,158.7 L531.1,151.5 L531.9,140.1 L532.7,134.0 L533.6,141.2 L534.4,146.5 L535.3,150.4 L536.1,162.9 L536.9,184.7 L537.8,206.1 L538.6,222.9 L539.5,232.9 L540.3,239.3 L541.2,241.8 L542.0,239.0 L542.8,234.7 L543.7,221.9 L544.5,208.3 L545.4,195.1 L546.2,177.2 L547.0,168.7 L547.9,167.2 L548.7,161.2 L549.6,157.6 L550.4,156.5 L551.2,145.1 L552.1,131.2 L552.9,123.3 L553.8,122.6 L554.6,121.2 L555.5,128.0 L556.3,146.9 L557.1,174.4 L558.0,194.7 L558.8,213.3 L559.7,226.1 L560.5,234.7 L561.3,236.8 L562.2,235.1 L563.0,223.6 L563.9,189.7 L564.7,154.0 L565.6,133.7 L566.4,123.3 L567.2,121.2 L568.1,120.5 L568.9,119.4 L569.8,118.0 L570.6,118.0 L571.4,112.6 L572.3,112.6 L573.1,113.7 L574.0,116.9 L574.8,115.8 L575.7,116.5 L576.5,134.4 L577.3,161.9 L578.2,195.4 L579.0,214.7 L579.9,226.5 L580.7,234.7 L581.5,237.2 L582.4,235.4 L583.2,224.0 L584.1,189.4 L584.9,154.0 L585.8,133.3 L586.6,126.2 L587.4,125.5 L588.3,126.5 L589.1,127.2 L590.0,129.7 L590.8,128.7 L591.6,127.6 L592.5,126.9 L593.3,125.8 L594.2,125.5 L595.0,123.0 L595.8,121.9 L596.7,141.2 L597.5,169.7 L598.4,221.5 L599.2,226.5 L600.1,232.2 L600.9,231.8 L601.7,228.3 L602.6,225.1 L603.4,219.7 L604.3,214.0 L605.1,177.6 L605.9,163.7 L606.8,145.8 L607.6,123.0 L608.5,107.6 L609.3,100.1 L610.2,95.8 L611.0,100.5 L611.8,108.0 L612.7,124.0 L613.5,138.3 L614.4,136.2 L615.2,153.3 L616.0,171.2 L616.9,182.6 L617.7,189.7 L618.6,207.2 L619.4,222.2 L620.3,233.6 L621.1,240.4 L621.9,242.6 L622.8,240.1 L623.6,226.5 L624.5,192.2 L625.3,153.7 L626.1,135.8 L627.0,132.6 L627.8,133.3 L628.7,134.4 L629.5,133.7 L630.4,135.8 L631.2,155.1 L632.0,161.2 L632.9,146.5 L633.7,147.9 L634.6,158.7 L635.4,170.8 L636.2,179.0 L637.1,182.2 L637.9,184.7 L638.8,207.2 L639.6,244.7 L640.4,240.1 L641.3,240.8 L642.1,242.9 L643.0,240.8 L643.8,227.2 L644.7,193.3 L645.5,154.0 L646.3,136.9 L647.2,133.0 L648.0,131.9 L648.9,131.5 L649.7,134.7 L650.5,138.3 L651.4,139.0 L652.2,139.4 L653.1,136.9 L653.9,135.5 L654.8,134.0 L655.6,130.5 L656.4,133.0 L657.3,152.2 L658.1,179.4 L659.0,205.4 L659.8,219.0 L660.6,228.3 L661.5,234.0 L662.3,236.8 L663.2,238.3 L664.0,234.3 L664.9,218.3 L665.7,196.5 L666.5,175.4 L667.4,162.2 L668.2,153.3 L669.1,151.9 L669.9,156.2 L670.7,160.8 L671.6,164.4 L672.4,166.9 L673.3,167.9 L674.1,161.5 L675.0,156.5 L675.8,151.2 L676.6,156.5 L677.5,166.5 L678.3,185.1 L679.2,196.9 L680.0,199.0" stroke="#9467bd" stroke-width="2" fill="none" opacity="0.8"/>
<!-- Total Generation -->
<path d="M80.0,233.3 L80.8,226.1 L81.7,218.6 L82.5,214.7 L83.4,206.9 L84.2,208.3 L85.0,204.7 L85.9,203.3 L86.7,200.1 L87.6,193.6 L88.4,196.5 L89.3,214.7 L90.1,213.6 L90.9,189.4 L91.8,185.1 L92.6,190.4 L93.5,207.6 L94.3,243.6 L95.1,265.8 L96.0,269.7 L96.8,270.8 L97.7,271.1 L98.5,270.4 L99.4,271.1 L100.2,261.5 L101.0,237.9 L101.9,229.4 L102.7,226.1 L103.6,229.0 L104.4,229.4 L105.2,228.3 L106.1,232.2 L106.9,232.9 L107.8,208.3 L108.6,202.2 L109.5,200.1 L110.3,184.0 L111.1,184.7 L112.0,210.1 L112.8,231.1 L113.7,267.6 L114.5,253.3 L115.3,273.3 L116.2,271.8 L117.0,269.3 L117.9,264.0 L118.7,250.8 L119.6,228.3 L120.4,214.7 L121.2,182.9 L122.1,159.0 L122.9,126.9 L123.8,154.0 L124.6,140.1 L125.4,163.3 L126.3,165.4 L127.1,165.8 L128.0,199.4 L128.8,237.6 L129.6,235.4 L130.5,236.8 L131.3,230.4 L132.2,227.6 L133.0,203.3 L133.9,173.3 L134.7,212.9 L135.5,165.1 L136.4,173.7 L137.2,206.9 L138.1,192.6 L138.9,170.4 L139.7,175.1 L140.6,201.1 L141.4,191.5 L142.3,184.4 L143.1,190.1 L144.0,195.8 L144.8,157.6 L145.6,171.9 L146.5,155.4 L147.3,150.4 L148.2,151.2 L149.0,206.5 L149.8,242.2 L150.7,259.7 L151.5,257.6 L152.4,262.6 L153.2,239.0 L154.1,237.9 L154.9,240.4 L155.7,266.1 L156.6,265.1 L157.4,265.4 L158.3,266.5 L159.1,251.8 L159.9,241.8 L160.8,235.4 L161.6,230.4 L162.5,223.6 L163.3,206.5 L164.2,208.3 L165.0,170.8 L165.8,179.7 L166.7,182.2 L167.5,163.7 L168.4,167.2 L169.2,172.2 L170.0,186.5 L170.9,160.1 L171.7,189.4 L172.6,163.3 L173.4,186.9 L174.2,234.0 L175.1,241.8 L175.9,235.8 L176.8,240.4 L177.6,229.4 L178.5,211.5 L179.3,220.8 L180.1,220.1 L181.0,191.5 L181.8,181.2 L182.7,197.9 L183.5,198.3 L184.3,200.1 L185.2,193.6 L186.0,190.1 L186.9,167.6 L187.7,186.9 L188.6,202.6 L189.4,200.1 L190.2,192.2 L191.1,191.1 L191.9,185.4 L192.8,204.7 L193.6,215.8 L194.4,216.1 L195.3,214.0 L196.1,227.9 L197.0,231.5 L197.8,221.9 L198.7,225.8 L199.5,231.5 L200.3,214.7 L201.2,167.6 L202.0,192.6 L202.9,189.0 L203.7,161.5 L204.5,197.6 L205.4,202.6 L206.2,190.4 L207.1,197.9 L207.9,198.3 L208.8,193.3 L209.6,198.6 L210.4,196.9 L211.3,205.1 L212.1,212.2 L213.0,204.7 L213.8,218.3 L214.6,207.2 L215.5,219.7 L216.3,231.8 L217.2,233.3 L218.0,234.0 L218.8,231.5 L219.7,232.2 L220.5,210.1 L221.4,196.5 L222.2,197.2 L223.1,186.5 L223.9,184.7 L224.7,205.8 L225.6,205.1 L226.4,187.6 L227.3,180.8 L228.1,184.7 L228.9,151.9 L229.8,223.3 L230.6,239.3 L231.5,239.0 L232.3,252.2 L233.2,249.0 L234.0,237.6 L234.8,232.6 L235.7,239.3 L236.5,252.9 L237.4,255.8 L238.2,258.6 L239.0,255.1 L239.9,250.4 L240.7,245.1 L241.6,238.6 L242.4,234.0 L243.3,234.3 L244.1,229.4 L244.9,226.9 L245.8,228.6 L246.6,226.5 L247.5,239.0 L248.3,255.1 L249.1,242.6 L250.0,235.1 L250.8,251.8 L251.7,252.9 L252.5,261.8 L253.4,260.4 L254.2,265.1 L255.0,261.1 L255.9,252.2 L256.7,259.3 L257.6,260.4 L258.4,258.3 L259.2,248.3 L260.1,250.4 L260.9,255.1 L261.8,239.0 L262.6,214.7 L263.5,231.5 L264.3,211.9 L265.1,188.6 L266.0,182.9 L266.8,182.6 L267.7,189.7 L268.5,195.4 L269.3,225.1 L270.2,254.3 L271.0,264.7 L271.9,276.8 L272.7,262.6 L273.5,227.9 L274.4,132.2 L275.2,167.6 L276.1,169.7 L276.9,201.1 L277.8,196.1 L278.6,183.3 L279.4,192.2 L280.3,164.0 L281.1,170.8 L282.0,199.0 L282.8,190.1 L283.6,196.1 L284.5,201.1 L285.3,190.8 L286.2,188.6 L287.0,201.9 L287.9,199.4 L288.7,214.7 L289.5,214.7 L290.4,192.2 L291.2,198.6 L292.1,195.4 L292.9,195.1 L293.7,205.1 L294.6,190.4 L295.4,214.4 L296.3,218.6 L297.1,205.1 L298.0,198.3 L298.8,197.9 L299.6,190.1 L300.5,239.3 L301.3,253.3 L302.2,246.1 L303.0,226.5 L303.8,234.7 L304.7,233.3 L305.5,230.8 L306.4,221.1 L307.2,221.9 L308.1,222.2 L308.9,184.7 L309.7,235.1 L310.6,242.9 L311.4,222.9 L312.3,229.0 L313.1,220.8 L313.9,271.1 L314.8,272.5 L315.6,278.6 L316.5,268.6 L317.3,265.4 L318.1,256.5 L319.0,267.6 L319.8,260.8 L320.7,259.0 L321.5,256.5 L322.4,255.8 L323.2,241.8 L324.0,234.3 L324.9,238.3 L325.7,241.1 L326.6,239.7 L327.4,248.6 L328.2,249.0 L329.1,226.1 L329.9,219.0 L330.8,240.4 L331.6,243.3 L332.5,234.0 L333.3,238.3 L334.1,267.6 L335.0,266.5 L335.8,269.0 L336.7,273.6 L337.5,279.3 L338.3,279.0 L339.2,279.7 L340.0,279.3 L340.9,277.5 L341.7,277.9 L342.6,271.8 L343.4,242.2 L344.2,233.3 L345.1,234.0 L345.9,212.9 L346.8,242.6 L347.6,233.6 L348.4,237.2 L349.3,224.7 L350.1,202.6 L351.0,211.1 L351.8,227.9 L352.7,203.6 L353.5,192.2 L354.3,241.1 L355.2,273.3 L356.0,279.0 L356.9,283.3 L357.7,286.1 L358.5,285.0 L359.4,283.6 L360.2,283.6 L361.1,280.4 L361.9,280.4 L362.7,276.5 L363.6,250.8 L364.4,257.2 L365.3,241.1 L366.1,242.6 L367.0,242.6 L367.8,244.3 L368.6,245.4 L369.5,241.8 L370.3,220.8 L371.2,224.4 L372.0,236.5 L372.8,228.3 L373.7,221.1 L374.5,234.7 L375.4,245.8 L376.2,238.6 L377.1,245.4 L377.9,247.9 L378.7,282.2 L379.6,283.3 L380.4,281.8 L381.3,279.7 L382.1,244.3 L382.9,263.3 L383.8,239.0 L384.6,235.8 L385.5,235.4 L386.3,230.4 L387.2,214.7 L388.0,196.9 L388.8,192.6 L389.7,206.5 L390.5,163.7 L391.4,180.8 L392.2,186.5 L393.0,190.1 L393.9,210.1 L394.7,236.1 L395.6,207.6 L396.4,223.6 L397.3,215.1 L398.1,224.4 L398.9,224.4 L399.8,198.3 L400.6,212.2 L401.5,212.2 L402.3,209.7 L403.1,211.1 L404.0,193.6 L404.8,198.3 L405.7,190.8 L406.5,187.2 L407.3,203.6 L408.2,198.3 L409.0,193.6 L409.9,215.4 L410.7,225.1 L411.6,225.4 L412.4,173.3 L413.2,111.9 L414.1,120.5 L414.9,129.7 L415.8,167.9 L416.6,177.6 L417.4,169.0 L418.3,156.2 L419.1,162.6 L420.0,171.9 L420.8,164.0 L421.7,175.1 L422.5,147.2 L423.3,177.2 L424.2,161.5 L425.0,162.2 L425.9,146.2 L426.7,164.0 L427.5,175.1 L428.4,144.7 L429.2,128.7 L430.1,145.4 L430.9,165.1 L431.8,177.9 L432.6,196.9 L433.4,201.9 L434.3,192.6 L435.1,226.9 L436.0,240.1 L436.8,241.8 L437.6,242.9 L438.5,246.1 L439.3,245.4 L440.2,236.5 L441.0,232.6 L441.9,237.6 L442.7,229.7 L443.5,196.9 L444.4,182.9 L445.2,175.8 L446.1,176.9 L446.9,181.9 L447.7,192.9 L448.6,198.3 L449.4,200.4 L450.3,200.1 L451.1,171.2 L451.9,182.6 L452.8,204.0 L453.6,206.5 L454.5,205.1 L455.3,206.1 L456.2,211.1 L457.0,225.8 L457.8,220.8 L458.7,227.9 L459.5,222.9 L460.4,215.8 L461.2,195.8 L462.0,185.8 L462.9,156.9 L463.7,132.2 L464.6,117.6 L465.4,100.8 L467.1,130.1 L467.9,136.5 L468.8,126.5 L469.6,139.4 L470.5,146.5 L471.3,146.5 L472.1,150.1 L473.0,157.6 L473.8,180.4 L474.7,203.3 L475.5,214.0 L476.4,241.1 L477.2,233.6 L478.0,220.1 L478.9,210.8 L479.7,204.0 L480.6,182.9 L481.4,190.1 L482.2,207.6 L483.1,235.4 L483.9,236.5 L484.8,209.7 L485.6,199.4 L486.5,200.1 L487.3,201.9 L488.1,200.1 L489.0,200.8 L489.8,194.4 L490.7,186.5 L491.5,181.2 L492.3,180.1 L493.2,188.3 L494.0,205.1 L494.9,215.8 L495.7,223.6 L496.5,218.6 L497.4,185.4 L498.2,158.3 L499.1,137.2 L499.9,129.7 L500.8,165.8 L501.6,147.6 L502.4,144.4 L503.3,138.0 L504.1,140.1 L505.0,102.3 L505.8,110.8 L506.6,107.6 L507.5,87.6 L508.3,106.5 L509.2,113.0 L510.0,117.6 L510.9,71.2 L511.7,91.9 L512.5,132.2 L513.4,202.6 L514.2,207.6 L515.1,206.5 L515.9,213.3 L516.7,210.1 L517.6,219.4 L518.4,197.6 L519.3,172.6 L520.1,154.4 L521.0,143.7 L521.8,141.2 L522.6,137.2 L523.5,152.6 L524.3,173.3 L525.2,157.2 L526.0,129.0 L526.8,143.7 L527.7,160.8 L528.5,188.6 L529.4,202.6 L530.2,205.4 L531.1,204.7 L531.9,209.0 L532.7,225.8 L533.6,216.5 L534.4,218.6 L535.3,220.1 L536.1,245.1 L536.9,291.8 L537.8,299.0 L538.6,298.3 L539.5,295.0 L540.3,298.3 L541.2,288.6 L542.0,283.3 L542.8,265.8 L543.7,250.8 L544.5,245.8 L545.4,221.5 L546.2,221.1 L547.0,209.7 L547.9,200.4 L548.7,197.9 L549.6,190.1 L550.4,180.8 L551.2,220.8 L552.1,172.2 L552.9,188.3 L553.8,158.3 L554.6,195.4 L555.5,207.2 L556.3,232.2 L557.1,234.3 L558.0,226.9 L558.8,242.2 L559.7,250.4 L560.5,252.9 L561.3,258.6 L562.2,259.3 L563.0,262.6 L563.9,261.5 L564.7,262.2 L565.6,254.7 L566.4,230.1 L567.2,193.3 L568.1,186.9 L568.9,215.8 L569.8,188.6 L570.6,195.8 L571.4,191.5 L572.3,227.2 L573.1,220.8 L574.0,226.9 L574.8,227.9 L575.7,236.8 L576.5,251.5 L577.3,260.1 L578.2,243.6 L579.0,252.9 L579.9,254.3 L580.7,247.9 L581.5,248.3 L582.4,256.8 L583.2,258.6 L584.1,258.6 L584.9,253.6 L585.8,244.3 L586.6,219.7 L587.4,181.2 L588.3,173.3 L589.1,133.7 L590.0,98.3 L590.8,169.0 L591.6,175.8 L592.5,175.1 L593.3,185.1 L594.2,165.4 L595.0,156.2 L595.8,172.2 L596.7,226.5 L597.5,215.1 L598.4,199.4 L599.2,201.9 L600.1,187.2 L600.9,207.6 L601.7,200.4 L602.6,202.6 L603.4,204.4 L604.3,183.7 L605.1,183.7 L605.9,167.2 L606.8,142.6 L610.2,199.4 L611.0,160.1 L611.8,161.5 L612.7,186.2 L613.5,213.3 L614.4,202.9 L615.2,212.9 L616.0,217.2 L616.9,217.6 L617.7,215.1 L618.6,209.4 L619.4,210.4 L620.3,221.1 L621.1,242.2 L621.9,227.2 L622.8,237.2 L623.6,237.6 L624.5,205.1 L625.3,200.1 L626.1,227.9 L627.0,218.6 L627.8,200.8 L628.7,222.2 L629.5,222.2 L630.4,206.9 L631.2,214.7 L632.0,240.1 L632.9,224.0 L633.7,192.6 L634.6,211.9 L635.4,197.2 L636.2,191.9 L637.1,201.1 L637.9,205.1 L638.8,220.4 L639.6,213.3 L640.4,218.6 L641.3,244.3 L642.1,245.1 L643.0,232.2 L643.8,205.4 L644.7,207.9 L645.5,207.6 L646.3,185.4 L647.2,180.4 L648.0,172.9 L648.9,158.3 L649.7,172.6 L650.5,176.5 L651.4,191.5 L652.2,205.1 L653.1,174.4 L653.9,174.7 L654.8,152.6 L655.6,167.9 L656.4,185.1 L657.3,204.7 L658.1,196.1 L659.0,213.6 L659.8,206.5 L660.6,199.0 L661.5,211.5 L662.3,227.9 L663.2,204.7 L664.0,204.7 L664.9,175.8 L665.7,175.4 L666.5,216.1 L667.4,178.3 L668.2,194.0 L669.1,197.9 L669.9,174.0 L670.7,189.4 L671.6,194.7 L672.4,208.3 L673.3,213.6 L674.1,207.2 L675.0,196.1 L675.8,197.6 L676.6,201.1 L677.5,182.2 L678.3,176.9 L679.2,150.4 L680.0,148.3" stroke="#8c564b" stroke-width="2" fill="none" opacity="0.8"/>
<!-- Forecast Difference -->
<path d="M80.0,420.0 L80.8,420.0 L81.7,420.0 L82.5,420.0 L83.4,420.0 L84.2,420.0 L85.0,420.0 L85.9,420.0 L86.7,420.0 L87.6,420.0 L88.4,420.0 L89.3,420.0 L90.1,420.0 L90.9,420.0 L91.8,420.0 L92.6,420.0 L93.5,420.0 L94.3,420.0 L95.1,420.0 L96.0,420.0 L96.8,420.0 L97.7,420.0 L98.5,420.0 L99.4,420.0 L100.2,420.0 L101.0,420.0 L101.9,420.0 L102.7,420.0 L103.6,420.0 L104.4,420.0 L105.2,420.0 L106.1,420.0 L106.9,420.0 L107.8,420.0 L108.6,420.0 L109.5,420.0 L110.3,420.0 L111.1,420.0 L112.0,420.0 L112.8,420.0 L113.7,420.0 L114.5,420.0 L115.3,420.0 L116.2,420.0 L117.0,420.0 L117.9,420.0 L118.7,420.0 L119.6,420.0 L120.4,420.0 L121.2,420.0 L122.1,420.0 L122.9,420.0 L123.8,420.0 L124.6,420.0 L125.4,420.0 L126.3,420.0 L127.1,420.0 L128.0,420.0 L128.8,420.0 L129.6,420.0 L130.5,420.0 L131.3,420.0 L132.2,420.0 L133.0,420.0 L133.9,420.0 L134.7,420.0 L135.5,420.0 L136.4,420.0 L137.2,420.0 L138.1,420.0 L138.9,420.0 L139.7,420.0 L140.6,420.0 L141.4,420.0 L142.3,420.0 L143.1,420.0 L144.0,420.0 L144.8,420.0 L145.6,420.0 L146.5,420.0 L147.3,420.0 L148.2,420.0 L149.0,420.0 L149.8,420.0 L150.7,420.0 L151.5,420.0 L152.4,420.0 L153.2,420.0 L154.1,420.0 L154.9,420.0 L155.7,420.0 L156.6,420.0 L157.4,420.0 L158.3,420.0 L159.1,420.0 L159.9,420.0 L160.8,420.0 L161.6,420.0 L162.5,420.0 L163.3,420.0 L164.2,420.0 L165.0,420.0 L165.8,420.0 L166.7,420.0 L167.5,420.0 L168.4,420.0 L169.2,420.0 L170.0,420.0 L170.9,420.0 L171.7,420.0 L172.6,420.0 L173.4,420.0 L174.2,420.0 L175.1,420.0 L175.9,420.0 L176.8,420.0 L177.6,420.0 L178.5,420.0 L179.3,420.0 L180.1,420.0 L181.0,420.0 L181.8,420.0 L182.7,420.0 L183.5,420.0 L184.3,420.0 L185.2,420.0 L186.0,420.0 L186.9,420.0 L187.7,420.0 L188.6,420.0 L189.4,420.0 L190.2,420.0 L191.1,420.0 L191.9,420.0 L192.8,420.0 L193.6,420.0 L194.4,420.0 L195.3,420.0 L196.1,420.0 L197.0,420.0 L197.8,420.0 L198.7,420.0 L199.5,420.0 L200.3,420.0 L201.2,420.0 L202.0,420.0 L202.9,420.0 L203.7,420.0 L204.5,420.0 L205.4,420.0 L206.2,420.0 L207.1,420.0 L207.9,420.0 L208.8,420.0 L209.6,420.0 L210.4,420.0 L211.3,420.0 L212.1,420.0 L213.0,420.0 L213.8,420.0 L214.6,420.0 L215.5,420.0 L216.3,420.0 L217.2,420.0 L218.0,420.0 L218.8,420.0 L219.7,420.0 L220.5,420.0 L221.4,420.0 L222.2,420.0 L223.1,420.0 L223.9,420.0 L224.7,420.0 L225.6,420.0 L226.4,420.0 L227.3,420.0 L228.1,420.0 L228.9,420.0 L229.8,420.0 L230.6,420.0 L231.5,420.0 L232.3,420.0 L233.2,420.0 L234.0,420.0 L234.8,420.0 L235.7,420.0 L236.5,420.0 L237.4,420.0 L238.2,420.0 L239.0,420.0 L239.9,420.0 L240.7,420.0 L241.6,420.0 L242.4,420.0 L243.3,420.0 L244.1,420.0 L244.9,420.0 L245.8,420.0 L246.6,420.0 L247.5,420.0 L248.3,420.0 L249.1,420.0 L250.0,420.0 L250.8,420.0 L251.7,420.0 L252.5,420.0 L253.4,420.0 L254.2,420.0 L255.0,420.0 L255.9,420.0 L256.7,420.0 L257.6,420.0 L258.4,420.0 L259.2,420.0 L260.1,420.0 L260.9,420.0 L261.8,420.0 L262.6,420.0 L263.5,420.0 L264.3,420.0 L265.1,420.0 L266.0,420.0 L266.8,420.0 L267.7,420.0 L268.5,420.0 L269.3,420.0 L270.2,420.0 L271.0,420.0 L271.9,420.0 L272.7,420.0 L273.5,420.0 L274.4,420.0 L275.2,420.0 L276.1,420.0 L276.9,420.0 L277.8,420.0 L278.6,420.0 L279.4,420.0 L280.3,420.0 L281.1,420.0 L282.0,420.0 L282.8,420.0 L283.6,420.0 L284.5,420.0 L285.3,420.0 L286.2,420.0 L287.0,420.0 L287.9,420.0 L288.7,420.0 L289.5,420.0 L290.4,420.0 L291.2,420.0 L292.1,420.0 L292.9,420.0 L293.7,420.0 L294.6,420.0 L295.4,420.0 L296.3,420.0 L297.1,420.0 L298.0,420.0 L298.8,420.0 L299.6,420.0 L300.5,420.0 L301.3,420.0 L302.2,420.0 L303.0,420.0 L303.8,420.0 L304.7,420.0 L305.5,420.0 L306.4,420.0 L307.2,420.0 L308.1,420.0 L308.9,420.0 L309.7,420.0 L310.6,420.0 L311.4,420.0 L312.3,420.0 L313.1,420.0 L313.9,420.0 L314.8,420.0 L315.6,420.0 L316.5,420.0 L317.3,420.0 L318.1,420.0 L319.0,420.0 L319.8,420.0 L320.7,420.0 L321.5,420.0 L322.4,420.0 L323.2,420.0 L324.0,420.0 L324.9,420.0 L325.7,420.0 L326.6,420.0 L327.4,420.0 L328.2,420.0 L329.1,420.0 L329.9,420.0 L330.8,420.0 L331.6,420.0 L332.5,420.0 L333.3,420.0 L334.1,420.0 L335.0,420.0 L335.8,420.0 L336.7,420.0 L337.5,420.0 L338.3,420.0 L339.2,420.0 L340.0,420.0 L340.9,420.0 L341.7,420.0 L342.6,420.0 L343.4,420.0 L344.2,420.0 L345.1,420.0 L345.9,420.0 L346.8,420.0 L347.6,420.0 L348.4,420.0 L349.3,420.0 L350.1,420.0 L351.0,420.0 L351.8,420.0 L352.7,420.0 L353.5,420.0 L354.3,420.0 L355.2,420.0 L356.0,420.0 L356.9,420.0 L357.7,420.0 L358.5,420.0 L359.4,420.0 L360.2,420.0 L361.1,420.0 L361.9,420.0 L362.7,420.0 L363.6,420.0 L364.4,420.0 L365.3,420.0 L366.1,420.0 L367.0,420.0 L367.8,420.0 L368.6,420.0 L369.5,420.0 L370.3,420.0 L371.2,420.0 L372.0,420.0 L372.8,420.0 L373.7,420.0 L374.5,420.0 L375.4,420.0 L376.2,420.0 L377.1,420.0 L377.9,420.0 L378.7,420.0 L379.6,420.0 L380.4,420.0 L381.3,420.0 L382.1,420.0 L382.9,420.0 L383.8,420.0 L384.6,420.0 L385.5,420.0 L386.3,420.0 L387.2,420.0 L388.0,420.0 L388.8,420.0 L389.7,420.0 L390.5,420.0 L391.4,420.0 L392.2,420.0 L393.0,420.0 L393.9,420.0 L394.7,420.0 L395.6,420.0 L396.4,420.0 L397.3,420.0 L398.1,420.0 L398.9,420.0 L399.8,420.0 L400.6,420.0 L401.5,420.0 L402.3,420.0 L403.1,420.0 L404.0,420.0 L404.8,420.0 L405.7,420.0 L406.5,420.0 L407.3,420.0 L408.2,420.0 L409.0,420.0 L409.9,420.0 L410.7,420.0 L411.6,420.0 L412.4,420.0 L413.2,420.0 L414.1,420.0 L414.9,420.0 L415.8,420.0 L416.6,420.0 L417.4,420.0 L418.3,420.0 L419.1,420.0 L420.0,420.0 L420.8,420.0 L421.7,420.0 L422.5,420.0 L423.3,420.0 L424.2,420.0 L425.0,420.0 L425.9,420.0 L426.7,420.0 L427.5,420.0 L428.4,420.0 L429.2,420.0 L430.1,420.0 L430.9,420.0 L431.8,420.0 L432.6,420.0 L433.4,420.0 L434.3,420.0 L435.1,420.0 L436.0,420.0 L436.8,420.0 L437.6,420.0 L438.5,420.0 L439.3,420.0 L440.2,420.0 L441.0,420.0 L441.9,420.0 L442.7,420.0 L443.5,420.0 L444.4,420.0 L445.2,420.0 L446.1,420.0 L446.9,420.0 L447.7,420.0 L448.6,420.0 L449.4,420.0 L450.3,420.0 L451.1,420.0 L451.9,420.0 L452.8,420.0 L453.6,420.0 L454.5,420.0 L455.3,420.0 L456.2,420.0 L457.0,420.0 L457.8,420.0 L458.7,420.0 L459.5,420.0 L460.4,420.0 L461.2,420.0 L462.0,420.0 L462.9,420.0 L463.7,420.0 L464.6,420.0 L465.4,420.0 L466.3,420.0 L467.1,420.0 L467.9,420.0 L468.8,420.0 L469.6,420.0 L470.5,420.0 L471.3,420.0 L472.1,420.0 L473.0,420.0 L473.8,420.0 L474.7,420.0 L475.5,420.0 L476.4,420.0 L477.2,420.0 L478.0,420.0 L478.9,420.0 L479.7,420.0 L480.6,420.0 L481.4,420.0 L482.2,420.0 L483.1,420.0 L483.9,420.0 L484.8,420.0 L485.6,420.0 L486.5,420.0 L487.3,420.0 L488.1,420.0 L489.0,420.0 L489.8,420.0 L490.7,420.0 L491.5,420.0 L492.3,420.0 L493.2,420.0 L494.0,420.0 L494.9,420.0 L495.7,420.0 L496.5,420.0 L497.4,420.0 L498.2,420.0 L499.1,420.0 L499.9,420.0 L500.8,420.0 L501.6,420.0 L502.4,420.0 L503.3,420.0 L504.1,420.0 L505.0,420.0 L505.8,420.0 L506.6,420.0 L507.5,420.0 L508.3,420.0 L509.2,420.0 L510.0,420.0 L510.9,420.0 L511.7,420.0 L512.5,420.0 L513.4,420.0 L514.2,420.0 L515.1,420.0 L515.9,420.0 L516.7,420.0 L517.6,420.0 L518.4,420.0 L519.3,420.0 L520.1,420.0 L521.0,420.0 L521.8,420.0 L522.6,420.0 L523.5,420.0 L524.3,420.0 L525.2,420.0 L526.0,420.0 L526.8,420.0 L527.7,420.0 L528.5,420.0 L529.4,420.0 L530.2,420.0 L531.1,420.0 L531.9,420.0 L532.7,420.0 L533.6,420.0 L534.4,420.0 L535.3,420.0 L536.1,420.0 L536.9,420.0 L537.8,420.0 L538.6,420.0 L539.5,420.0 L540.3,420.0 L541.2,420.0 L542.0,420.0 L542.8,420.0 L543.7,420.0 L544.5,420.0 L545.4,420.0 L546.2,420.0 L547.0,420.0 L547.9,420.0 L548.7,420.0 L549.6,420.0 L550.4,420.0 L551.2,420.0 L552.1,420.0 L552.9,420.0 L553.8,420.0 L554.6,420.0 L555.5,420.0 L556.3,420.0 L557.1,420.0 L558.0,420.0 L558.8,420.0 L559.7,420.0 L560.5,420.0 L561.3,420.0 L562.2,420.0 L563.0,420.0 L563.9,420.0 L564.7,420.0 L565.6,420.0 L566.4,420.0 L567.2,420.0 L568.1,420.0 L568.9,420.0 L569.8,420.0 L570.6,420.0 L571.4,420.0 L572.3,420.0 L573.1,420.0 L574.0,420.0 L574.8,420.0 L575.7,420.0 L576.5,420.0 L577.3,420.0 L578.2,420.0 L579.0,420.0 L579.9,420.0 L580.7,420.0 L581.5,420.0 L582.4,420.0 L583.2,420.0 L584.1,420.0 L584.9,420.0 L585.8,420.0 L586.6,420.0 L587.4,420.0 L588.3,420.0 L589.1,420.0 L590.0,420.0 L590.8,420.0 L591.6,420.0 L592.5,420.0 L593.3,420.0 L594.2,420.0 L595.0,420.0 L595.8,420.0 L596.7,420.0 L597.5,420.0 L598.4,420.0 L599.2,420.0 L600.1,420.0 L600.9,420.0 L601.7,420.0 L602.6,420.0 L603.4,420.0 L604.3,420.0 L605.1,420.0 L605.9,420.0 L606.8,420.0 L607.6,420.0 L608.5,420.0 L609.3,420.0 L610.2,420.0 L611.0,420.0 L611.8,420.0 L612.7,420.0 L613.5,420.0 L614.4,420.0 L615.2,420.0 L616.0,420.0 L616.9,420.0 L617.7,420.0 L618.6,420.0 L619.4,420.0 L620.3,420.0 L621.1,420.0 L621.9,420.0 L622.8,420.0 L623.6,420.0 L624.5,420.0 L625.3,420.0 L626.1,420.0 L627.0,420.0 L627.8,420.0 L628.7,420.0 L629.5,420.0 L630.4,420.0 L631.2,420.0 L632.0,420.0 L632.9,420.0 L633.7,420.0 L634.6,420.0 L635.4,420.0 L636.2,420.0 L637.1,420.0 L637.9,420.0 L638.8,420.0 L639.6,420.0 L640.4,420.0 L641.3,420.0 L642.1,420.0 L643.0,420.0 L643.8,420.0 L644.7,420.0 L645.5,420.0 L646.3,420.0 L647.2,420.0 L648.0,420.0 L648.9,420.0 L649.7,420.0 L650.5,420.0 L651.4,420.0 L652.2,420.0 L653.1,420.0 L653.9,420.0 L654.8,420.0 L655.6,420.0 L656.4,420.0 L657.3,420.0 L658.1,420.0 L659.0,420.0 L659.8,420.0 L660.6,420.0 L661.5,420.0 L662.3,420.0 L663.2,420.0 L664.0,420.0 L664.9,420.0 L665.7,420.0 L666.5,420.0 L667.4,420.0 L668.2,420.0 L669.1,420.0 L669.9,420.0 L670.7,420.0 L671.6,420.0 L672.4,420.0 L673.3,420.0 L674.1,420.0 L675.0,420.0 L675.8,420.0 L676.6,420.0 L677.5,420.0 L678.3,420.0 L679.2,420.0 L680.0,420.0" stroke="#e377c2" stroke-width="2" fill="none" opacity="0.8"/>

<!-- Legend -->
<line x1="690" y1="70" x2="705" y2="70" stroke="#1f77b4" stroke-width="3"/>
<text x="710" y="74" class="legend">Wind Generation</text>
<line x1="690" y1="88" x2="705" y2="88" stroke="#ff7f0e" stroke-width="3"/>
<text x="710" y="92" class="legend">Hydro Generation</text>
<line x1="690" y1="106" x2="705" y2="106" stroke="#2ca02c" stroke-width="3"/>
<text x="710" y="110" class="legend">Thermal Generation</text>
<line x1="690" y1="124" x2="705" y2="124" stroke="#d62728" stroke-width="3"/>
<text x="710" y="128" class="legend">Solar Generation</text>
<line x1="690" y1="142" x2="705" y2="142" stroke="#9467bd" stroke-width="3"/>
<text x="710" y="146" class="legend">Forecast</text>
<line x1="690" y1="160" x2="705" y2="160" stroke="#8c564b" stroke-width="3"/>
<text x="710" y="164" class="legend">Total Generation</text>
<line x1="690" y1="178" x2="705" y2="178" stroke="#e377c2" stroke-width="3"/>
<text x="710" y="182" class="legend">Forecast Difference</text>

<!-- Date range -->
<text x="80" y="495" class="legend">Range: 09/05 - 10/05/2025 (714 records)</text>
</svg>