<?xml version="1.0" encoding="UTF-8"?>
<svg width="800" height="500" xmlns="http://www.w3.org/2000/svg">
<style>
.axis-line { stroke: #333; stroke-width: 1; }
.grid-line { stroke: #ddd; stroke-width: 0.5; }
.title { font: 16px Arial; text-anchor: middle; fill: #333; }
.axis-label { font: 12px Arial; text-anchor: middle; fill: #666; }
.legend { font: 10px Arial; fill: #333; }
</style>

<!-- Title -->
<text x="400.0" y="25" class="title">Northwestern Energy Generation Data - Past 30 Days</text>

<!-- Plot area background -->
<rect x="80" y="50" width="600" height="370" fill="white" stroke="#ddd"/>

<!-- Y-axis -->
<line x1="80" y1="50" x2="80" y2="420" class="axis-line"/>
<text x="30" y="235.0" class="axis-label" transform="rotate(-90, 30, 235.0)">Generation (MW)</text>

<!-- X-axis -->
<line x1="80" y1="420" x2="680" y2="420" class="axis-line"/>
<text x="380.0" y="480" class="axis-label">Time</text>
<line x1="80" y1="420.0" x2="680" y2="420.0" class="grid-line"/>
<text x="70" y="425.0" class="legend" text-anchor="end">0</text>
<line x1="80" y1="327.5" x2="680" y2="327.5" class="grid-line"/>
<text x="70" y="332.5" class="legend" text-anchor="end">288</text>
<line x1="80" y1="235.0" x2="680" y2="235.0" class="grid-line"/>
<text x="70" y="240.0" class="legend" text-anchor="end">575</text>
<line x1="80" y1="142.5" x2="680" y2="142.5" class="grid-line"/>
<text x="70" y="147.5" class="legend" text-anchor="end">863</text>
<line x1="80" y1="50.0" x2="680" y2="50.0" class="grid-line"/>
<text x="70" y="55.0" class="legend" text-anchor="end">1151</text>
<!-- Wind Generation -->
<path d="M80.0,420.0 L80.8,420.0 L81.7,420.0 L82.5,420.0 L83.4,420.0 L84.2,420.0 L85.1,420.0 L85.9,420.0 L86.7,420.0 L87.6,420.0 L88.4,420.0 L89.3,420.0 L90.1,420.0 L91.0,420.0 L91.8,420.0 L92.6,420.0 L93.5,420.0 L94.3,420.0 L95.2,420.0 L96.0,420.0 L96.9,419.7 L97.7,416.1 L98.5,417.4 L99.4,418.7 L100.2,420.0 L101.1,418.4 L101.9,420.0 L102.8,418.7 L103.6,418.1 L104.4,420.0 L105.3,420.0 L106.1,416.1 L107.0,420.0 L107.8,420.0 L108.7,420.0 L109.5,420.0 L110.3,420.0 L111.2,420.0 L112.0,419.7 L112.9,416.5 L113.7,417.7 L114.6,418.7 L115.4,419.7 L116.2,419.4 L117.1,412.0 L117.9,403.6 L118.8,411.0 L119.6,403.0 L120.4,388.8 L121.3,399.7 L122.1,372.7 L123.0,350.9 L123.8,344.8 L124.7,335.8 L125.5,328.4 L126.3,352.5 L127.2,358.3 L128.0,367.3 L128.9,362.8 L129.7,360.2 L130.6,357.0 L131.4,366.9 L132.2,356.3 L133.1,338.3 L133.9,326.8 L134.8,326.1 L135.6,312.6 L136.5,321.6 L137.3,302.3 L138.1,292.0 L139.0,289.1 L139.8,288.5 L140.7,293.0 L141.5,296.5 L142.4,296.5 L143.2,286.9 L144.0,290.4 L144.9,295.9 L145.7,288.5 L146.6,287.5 L147.4,286.2 L148.3,283.4 L149.1,283.4 L149.9,290.4 L150.8,288.8 L151.6,290.4 L152.5,286.9 L153.3,311.6 L154.2,302.0 L155.0,284.3 L155.8,307.8 L156.7,338.0 L157.5,318.4 L158.4,346.4 L159.2,340.9 L160.1,331.9 L160.9,308.8 L161.7,345.1 L162.6,347.0 L163.4,353.8 L164.3,349.6 L165.1,365.0 L166.0,365.0 L166.8,349.6 L167.6,353.1 L168.5,320.0 L169.3,317.8 L170.2,303.9 L171.0,297.5 L171.9,291.7 L172.7,289.5 L173.5,294.3 L174.4,337.0 L175.2,367.9 L176.1,378.8 L176.9,358.3 L177.8,358.9 L178.6,363.1 L179.4,358.3 L180.3,350.6 L181.1,337.4 L182.0,342.2 L182.8,364.7 L183.7,353.8 L184.5,353.4 L185.3,374.7 L186.2,377.6 L187.0,384.0 L187.9,377.6 L188.7,364.1 L189.6,365.0 L190.4,350.6 L191.2,296.5 L192.1,314.9 L192.9,306.5 L193.8,285.0 L194.6,319.7 L195.4,302.6 L196.3,297.2 L197.1,312.6 L198.0,291.4 L198.8,297.5 L199.7,293.0 L200.5,302.3 L201.3,290.4 L202.2,290.1 L203.0,290.4 L203.9,295.3 L204.7,292.7 L205.6,293.3 L206.4,303.3 L207.2,301.7 L208.1,300.4 L208.9,304.3 L209.8,318.4 L210.6,309.7 L211.5,297.8 L212.3,329.7 L213.1,339.0 L214.0,320.7 L214.8,278.5 L215.7,291.7 L216.5,289.5 L217.4,292.4 L218.2,278.2 L219.0,284.0 L219.9,281.7 L220.7,284.0 L221.6,284.0 L222.4,293.6 L223.3,291.1 L224.1,293.3 L224.9,289.8 L225.8,285.6 L226.6,292.4 L227.5,293.6 L228.3,300.1 L229.2,312.3 L230.0,297.8 L230.8,304.6 L231.7,290.4 L232.5,285.9 L233.4,287.5 L234.2,292.4 L235.1,306.8 L235.9,343.5 L236.7,357.0 L237.6,375.0 L238.4,394.0 L239.3,402.6 L240.1,410.0 L241.0,406.2 L241.8,402.0 L242.6,385.9 L243.5,384.6 L244.3,382.4 L245.2,383.3 L246.0,386.2 L246.9,387.5 L247.7,384.0 L248.5,398.1 L249.4,400.1 L250.2,397.8 L251.1,395.9 L251.9,400.1 L252.8,405.2 L253.6,404.2 L254.4,402.6 L255.3,399.1 L256.1,400.7 L257.0,397.2 L257.8,411.0 L258.7,408.1 L259.5,408.1 L260.3,401.0 L261.2,389.1 L262.0,377.9 L262.9,353.1 L263.7,330.9 L264.6,313.3 L265.4,323.2 L266.2,315.2 L267.1,290.1 L267.9,294.9 L268.8,306.5 L269.6,337.7 L270.4,351.5 L271.3,361.8 L272.1,341.6 L273.0,328.7 L273.8,328.7 L274.7,306.2 L275.5,331.6 L276.3,322.6 L277.2,354.4 L278.0,337.4 L278.9,327.7 L279.7,325.2 L280.6,351.8 L281.4,352.2 L282.2,339.0 L283.1,309.4 L283.9,309.4 L284.8,305.9 L285.6,316.2 L286.5,311.0 L287.3,302.3 L288.1,308.8 L289.0,321.6 L289.8,306.8 L290.7,320.7 L291.5,333.2 L292.4,342.5 L293.2,369.5 L294.0,388.8 L294.9,391.7 L295.7,390.4 L296.6,395.2 L297.4,393.6 L298.3,391.7 L299.1,386.6 L299.9,365.3 L300.8,365.7 L301.6,364.4 L302.5,368.2 L303.3,374.7 L304.2,376.0 L305.0,376.9 L305.8,378.8 L306.7,386.6 L307.5,389.8 L308.4,378.8 L309.2,380.5 L310.1,398.1 L310.9,409.4 L311.7,415.2 L312.6,409.7 L313.4,389.5 L314.3,403.6 L315.1,370.2 L316.0,370.8 L316.8,404.9 L317.6,407.5 L318.5,388.8 L319.3,367.6 L320.2,353.1 L321.0,356.0 L321.9,324.8 L322.7,328.0 L323.5,305.5 L324.4,295.3 L325.2,307.5 L326.1,300.1 L326.9,293.3 L327.8,303.3 L328.6,311.0 L329.4,308.8 L330.3,282.7 L331.1,278.2 L332.0,289.8 L332.8,288.8 L333.7,308.4 L334.5,314.9 L335.3,290.8 L336.2,322.9 L337.0,357.6 L337.9,381.1 L338.7,402.3 L339.6,395.6 L340.4,399.7 L341.2,400.7 L342.1,398.8 L342.9,393.6 L343.8,373.4 L344.6,356.3 L345.4,347.7 L346.3,333.8 L347.1,293.6 L348.0,319.7 L348.8,307.8 L349.7,296.2 L350.5,287.5 L351.3,288.5 L352.2,282.1 L353.0,279.5 L353.9,284.6 L354.7,280.5 L355.6,277.6 L356.4,305.9 L357.2,317.1 L358.1,315.5 L358.9,289.5 L359.8,300.4 L360.6,317.4 L361.5,341.6 L362.3,321.6 L363.1,302.6 L364.0,285.9 L364.8,291.7 L365.7,299.8 L366.5,304.6 L367.4,318.7 L368.2,347.7 L369.0,364.7 L369.9,356.0 L370.7,333.5 L371.6,350.2 L372.4,364.1 L373.3,360.2 L374.1,354.7 L374.9,371.5 L375.8,392.0 L376.6,393.0 L377.5,392.0 L378.3,403.6 L379.2,399.7 L380.0,398.8 L380.8,401.7 L381.7,398.1 L382.5,389.5 L383.4,381.4 L384.2,377.2 L385.1,377.2 L385.9,376.3 L386.7,368.2 L387.6,369.5 L388.4,352.2 L389.3,348.9 L390.1,361.5 L391.0,367.6 L391.8,344.8 L392.6,303.9 L393.5,310.7 L394.3,279.5 L395.2,278.2 L396.0,278.2 L396.9,278.5 L397.7,288.8 L398.5,285.6 L399.4,283.7 L400.2,290.1 L401.1,280.1 L401.9,288.5 L402.8,305.9 L403.6,310.7 L404.4,307.8 L405.3,320.7 L406.1,340.6 L407.0,340.9 L407.8,357.0 L408.7,363.4 L409.5,392.7 L410.3,399.7 L411.2,388.8 L412.0,393.6 L412.9,396.9 L413.7,402.6 L414.6,404.6 L415.4,396.9 L416.2,398.5 L417.1,394.9 L417.9,386.9 L418.8,382.7 L419.6,394.0 L420.4,404.6 L421.3,416.8 L422.1,417.4 L423.0,415.2 L423.8,415.2 L424.7,409.4 L425.5,409.7 L426.3,407.5 L427.2,407.1 L428.0,406.5 L428.9,406.8 L429.7,406.8 L430.6,414.2 L431.4,418.1 L432.2,416.5 L433.1,415.2 L433.9,407.1 L434.8,398.8 L435.6,395.2 L436.5,396.9 L437.3,389.1 L438.1,379.5 L439.0,397.8 L439.8,392.0 L440.7,385.6 L441.5,381.4 L442.4,364.1 L443.2,362.8 L444.0,332.9 L444.9,327.7 L445.7,327.1 L446.6,300.7 L447.4,302.6 L448.3,316.5 L449.1,309.4 L449.9,306.2 L450.8,305.5 L451.6,303.9 L452.5,303.9 L453.3,315.5 L454.2,317.1 L455.0,312.9 L455.8,331.3 L456.7,346.7 L457.5,355.1 L458.4,339.3 L459.2,354.7 L460.1,323.9 L460.9,314.5 L461.7,300.7 L462.6,292.7 L463.4,306.8 L464.3,290.1 L465.1,293.3 L466.0,297.2 L466.8,296.9 L467.6,301.7 L468.5,320.3 L469.3,312.6 L470.2,316.2 L471.0,315.2 L471.9,295.9 L472.7,294.3 L473.5,287.5 L474.4,287.5 L475.2,287.9 L476.1,293.6 L476.9,294.0 L477.8,290.1 L478.6,300.7 L479.4,305.5 L480.3,321.6 L481.1,318.7 L482.0,341.2 L482.8,346.7 L483.7,367.9 L484.5,373.4 L485.3,383.7 L486.2,411.3 L487.0,407.8 L487.9,410.7 L488.7,412.9 L489.6,409.1 L490.4,402.0 L491.2,399.4 L492.1,399.4 L492.9,403.0 L493.8,411.3 L494.6,415.5 L495.4,413.6 L496.3,410.7 L497.1,414.5 L498.0,414.2 L498.8,410.7 L499.7,409.1 L500.5,417.4 L501.3,413.2 L502.2,418.4 L503.0,417.7 L503.9,415.2 L504.7,411.3 L505.6,412.3 L506.4,399.1 L507.2,390.4 L508.1,352.2 L508.9,347.0 L509.8,329.3 L510.6,342.2 L511.5,353.1 L512.3,335.1 L513.1,330.3 L514.0,343.8 L514.8,346.4 L515.7,360.5 L516.5,356.7 L517.4,346.7 L518.2,387.5 L519.0,395.2 L519.9,405.5 L520.7,411.0 L521.6,411.0 L522.4,409.4 L523.3,410.0 L524.1,414.5 L524.9,415.8 L525.8,412.6 L526.6,411.3 L527.5,409.4 L528.3,410.7 L529.2,412.3 L530.0,416.5 L530.8,416.5 L531.7,416.1 L532.5,415.8 L533.4,412.3 L534.2,411.3 L535.1,413.6 L535.9,408.4 L536.7,412.9 L537.6,411.6 L538.4,407.8 L539.3,409.4 L540.1,388.8 L541.0,365.0 L541.8,338.0 L542.6,333.5 L543.5,287.9 L544.3,298.8 L545.2,315.8 L546.0,294.6 L546.9,325.8 L547.7,324.2 L548.5,326.4 L549.4,299.4 L550.2,297.8 L551.1,322.9 L551.9,291.1 L552.8,282.4 L553.6,280.5 L554.4,284.0 L555.3,285.9 L556.1,285.0 L557.0,282.7 L557.8,284.0 L558.7,283.7 L559.5,289.5 L560.3,282.1 L561.2,286.2 L562.0,289.8 L562.9,286.9 L563.7,288.8 L564.6,313.6 L565.4,323.9 L566.2,323.2 L567.1,305.5 L567.9,337.0 L568.8,336.1 L569.6,349.9 L570.4,344.1 L571.3,339.0 L572.1,315.2 L573.0,288.5 L573.8,289.1 L574.7,288.8 L575.5,288.8 L576.3,290.4 L577.2,289.8 L578.0,289.8 L578.9,288.2 L579.7,289.5 L580.6,289.1 L581.4,287.2 L582.2,294.3 L583.1,287.2 L583.9,286.6 L584.8,286.2 L585.6,288.5 L586.5,292.0 L587.3,292.4 L588.1,292.0 L589.0,300.4 L589.8,309.4 L590.7,311.3 L591.5,325.2 L592.4,312.0 L593.2,334.2 L594.0,346.1 L594.9,359.2 L595.7,369.5 L596.6,375.0 L597.4,376.6 L598.3,388.5 L599.1,403.3 L599.9,413.6 L600.8,416.8 L601.6,418.4 L602.5,416.1 L603.3,418.1 L604.2,417.7 L605.0,417.4 L605.8,416.1 L606.7,415.8 L607.5,407.1 L608.4,403.3 L609.2,398.8 L610.1,387.5 L610.9,389.1 L611.7,389.5 L612.6,402.3 L613.4,395.6 L614.3,395.2 L615.1,389.1 L616.0,380.8 L616.8,374.0 L617.6,382.1 L618.5,387.5 L619.3,385.9 L620.2,358.9 L621.0,344.1 L621.9,328.7 L622.7,306.8 L623.5,308.8 L624.4,301.0 L625.2,294.6 L626.1,291.7 L626.9,292.0 L627.8,298.8 L628.6,309.7 L629.4,303.6 L630.3,308.8 L631.1,296.9 L632.0,297.5 L632.8,315.5 L633.7,315.8 L634.5,291.7 L635.3,302.0 L636.2,309.7 L637.0,322.3 L637.9,335.1 L638.7,335.4 L639.6,333.5 L640.4,316.5 L641.2,323.9 L642.1,300.7 L642.9,294.0 L643.8,301.4 L644.6,292.7 L645.4,298.8 L646.3,293.0 L647.1,288.8 L648.0,293.6 L648.8,292.0 L649.7,305.5 L650.5,294.0 L651.3,298.1 L652.2,289.8 L653.0,289.5 L653.9,288.5 L654.7,288.2 L655.6,287.5 L656.4,289.8 L657.2,289.5 L658.1,297.8 L658.9,318.4 L659.8,319.4 L660.6,335.1 L661.5,370.8 L662.3,376.3 L663.1,386.6 L664.0,390.4 L664.8,398.5 L665.7,411.0 L666.5,411.3 L667.4,414.2 L668.2,412.3 L669.0,414.9 L669.9,410.7 L670.7,407.8 L671.6,405.9 L672.4,395.2 L673.3,389.1 L674.1,379.8 L674.9,363.4 L675.8,345.4 L676.6,343.2 L677.5,357.0 L678.3,392.7 L679.2,409.7 L680.0,413.9" stroke="#1f77b4" stroke-width="2" fill="none" opacity="0.8"/>
<!-- Hydro Generation -->
<path d="M80.0,355.7 L80.8,355.1 L81.7,355.4 L82.5,355.4 L83.4,355.4 L84.2,354.7 L85.1,354.7 L85.9,355.1 L86.7,354.4 L87.6,354.4 L88.4,355.4 L89.3,355.4 L90.1,355.4 L91.0,354.7 L91.8,356.3 L92.6,357.6 L93.5,357.6 L94.3,357.9 L95.2,357.6 L96.0,357.9 L96.9,357.6 L97.7,357.6 L98.5,357.6 L99.4,357.6 L100.2,357.6 L101.1,357.6 L101.9,357.6 L102.8,357.9 L103.6,357.9 L104.4,357.3 L105.3,357.6 L106.1,357.6 L107.0,357.6 L107.8,357.3 L108.7,357.0 L109.5,356.0 L110.3,356.0 L111.2,356.3 L112.0,355.1 L112.9,355.1 L113.7,355.4 L114.6,355.4 L115.4,355.4 L116.2,355.1 L117.1,354.7 L117.9,354.4 L118.8,354.1 L119.6,354.1 L120.4,354.4 L121.3,354.1 L122.1,353.4 L123.0,353.4 L123.8,353.8 L124.7,354.1 L125.5,353.8 L126.3,353.8 L127.2,353.8 L128.0,353.1 L128.9,354.1 L129.7,353.4 L130.6,348.6 L131.4,351.8 L132.2,353.8 L133.1,353.8 L133.9,354.1 L134.8,354.7 L135.6,354.4 L136.5,354.4 L137.3,355.1 L138.1,354.7 L139.0,354.4 L139.8,353.4 L140.7,352.8 L141.5,353.1 L142.4,353.4 L143.2,353.4 L144.0,353.1 L144.9,353.8 L145.7,355.1 L146.6,355.4 L147.4,355.1 L148.3,356.3 L149.1,355.4 L149.9,355.1 L150.8,355.1 L151.6,355.7 L152.5,355.4 L153.3,356.0 L154.2,356.0 L155.0,356.0 L155.8,356.3 L156.7,356.0 L157.5,356.0 L158.4,356.3 L159.2,355.7 L160.1,355.1 L160.9,354.7 L161.7,354.7 L162.6,355.1 L163.4,355.1 L164.3,354.7 L165.1,355.1 L166.0,355.7 L166.8,355.7 L167.6,355.7 L168.5,355.7 L169.3,355.1 L170.2,355.1 L171.0,355.4 L171.9,355.4 L172.7,355.7 L173.5,355.1 L174.4,354.7 L175.2,355.1 L176.1,355.1 L176.9,355.1 L177.8,354.7 L178.6,354.7 L179.4,354.7 L180.3,354.7 L181.1,354.7 L182.0,354.4 L182.8,354.4 L183.7,354.4 L184.5,354.7 L185.3,354.4 L186.2,354.1 L187.0,354.7 L187.9,355.1 L188.7,355.1 L189.6,355.4 L190.4,354.7 L191.2,355.1 L192.1,355.4 L192.9,355.7 L193.8,355.4 L194.6,356.7 L195.4,357.0 L196.3,357.9 L197.1,358.3 L198.0,358.9 L198.8,359.9 L199.7,359.6 L200.5,359.6 L201.3,359.6 L202.2,359.2 L203.0,358.9 L203.9,358.6 L204.7,357.9 L205.6,358.3 L206.4,358.6 L207.2,357.6 L208.1,356.7 L208.9,356.7 L209.8,357.3 L210.6,357.3 L211.5,357.3 L212.3,357.3 L213.1,359.6 L214.0,356.0 L214.8,355.7 L215.7,356.3 L216.5,356.7 L217.4,355.7 L218.2,356.0 L219.0,356.0 L219.9,356.7 L220.7,356.7 L221.6,357.3 L222.4,356.7 L223.3,357.0 L224.1,357.0 L224.9,355.7 L225.8,354.7 L226.6,355.1 L227.5,364.7 L228.3,364.7 L229.2,365.0 L230.0,364.7 L230.8,364.4 L231.7,364.4 L232.5,364.7 L233.4,357.3 L234.2,355.1 L235.1,355.1 L235.9,355.4 L236.7,355.1 L237.6,355.1 L238.4,355.4 L239.3,355.1 L240.1,355.7 L241.0,355.1 L241.8,355.1 L242.6,355.7 L243.5,355.4 L244.3,355.7 L245.2,355.7 L246.0,355.4 L246.9,357.9 L247.7,357.6 L248.5,357.6 L249.4,356.3 L250.2,356.7 L251.1,356.3 L251.9,356.3 L252.8,356.3 L253.6,355.7 L254.4,356.7 L255.3,356.3 L256.1,356.7 L257.0,357.3 L257.8,357.6 L258.7,358.9 L259.5,359.2 L260.3,358.9 L261.2,358.6 L262.0,359.6 L262.9,357.9 L263.7,357.6 L264.6,357.6 L265.4,357.9 L266.2,357.6 L267.1,357.6 L267.9,357.6 L268.8,357.6 L269.6,357.6 L270.4,357.0 L271.3,356.7 L272.1,357.3 L273.0,357.3 L273.8,357.0 L274.7,357.3 L275.5,356.7 L276.3,357.9 L277.2,357.3 L278.0,357.3 L278.9,357.3 L279.7,357.6 L280.6,357.3 L281.4,357.9 L282.2,357.6 L283.1,358.3 L283.9,357.9 L284.8,357.6 L285.6,357.6 L286.5,358.3 L287.3,358.3 L288.1,358.6 L289.0,358.3 L289.8,358.3 L290.7,357.9 L291.5,357.9 L292.4,357.6 L293.2,358.3 L294.0,358.3 L294.9,357.9 L295.7,357.3 L296.6,357.6 L297.4,357.9 L298.3,357.9 L299.1,357.6 L299.9,357.6 L300.8,357.6 L301.6,358.3 L302.5,358.3 L303.3,358.6 L304.2,358.3 L305.0,358.9 L305.8,358.3 L306.7,358.3 L307.5,358.6 L308.4,357.9 L309.2,358.3 L310.1,358.6 L310.9,355.1 L311.7,340.9 L312.6,357.9 L313.4,357.9 L314.3,357.9 L315.1,357.3 L316.0,357.9 L316.8,357.6 L317.6,357.9 L318.5,357.9 L319.3,357.9 L320.2,357.6 L321.0,357.9 L321.9,357.6 L322.7,357.6 L323.5,358.3 L324.4,357.3 L325.2,358.6 L326.1,357.3 L326.9,356.7 L327.8,357.3 L328.6,357.3 L329.4,357.3 L330.3,357.3 L331.1,355.7 L332.0,355.7 L332.8,355.4 L333.7,356.0 L334.5,355.4 L335.3,355.7 L336.2,355.1 L337.0,355.7 L337.9,355.7 L338.7,354.7 L339.6,356.3 L340.4,356.3 L341.2,356.0 L342.1,356.0 L342.9,356.7 L343.8,356.7 L344.6,356.7 L345.4,356.0 L346.3,356.7 L347.1,357.3 L348.0,357.3 L348.8,364.4 L349.7,364.4 L350.5,365.0 L351.3,364.1 L352.2,364.4 L353.0,364.7 L353.9,365.0 L354.7,363.7 L355.6,364.1 L356.4,363.7 L357.2,363.4 L358.1,363.7 L358.9,363.7 L359.8,363.7 L360.6,363.7 L361.5,363.7 L362.3,363.7 L363.1,363.1 L364.0,363.1 L364.8,363.7 L365.7,363.4 L366.5,363.1 L367.4,363.4 L368.2,363.7 L369.0,364.1 L369.9,365.3 L370.7,365.0 L371.6,364.7 L372.4,364.7 L373.3,365.0 L374.1,364.4 L374.9,364.4 L375.8,364.7 L376.6,364.4 L377.5,364.4 L378.3,364.4 L379.2,364.4 L380.0,365.0 L380.8,365.3 L381.7,365.7 L382.5,366.3 L383.4,366.0 L384.2,365.7 L385.1,365.0 L385.9,363.7 L386.7,364.4 L387.6,364.1 L388.4,364.7 L389.3,364.4 L390.1,364.1 L391.0,364.4 L391.8,364.1 L392.6,363.7 L393.5,363.7 L394.3,364.1 L395.2,364.1 L396.0,363.7 L396.9,363.4 L397.7,363.1 L398.5,364.4 L399.4,364.4 L400.2,364.4 L401.1,365.3 L401.9,365.3 L402.8,365.7 L403.6,366.0 L404.4,365.7 L405.3,365.0 L406.1,366.0 L407.0,365.3 L407.8,365.3 L408.7,365.3 L409.5,365.3 L410.3,365.7 L411.2,365.7 L412.0,364.4 L412.9,364.1 L413.7,364.4 L414.6,364.4 L415.4,356.7 L416.2,356.0 L417.1,357.3 L417.9,357.3 L418.8,357.3 L419.6,357.6 L420.4,357.3 L421.3,357.0 L422.1,357.0 L423.0,356.3 L423.8,356.3 L424.7,356.3 L425.5,356.7 L426.3,356.7 L427.2,356.3 L428.0,357.0 L428.9,356.3 L429.7,357.6 L430.6,357.3 L431.4,357.3 L432.2,356.7 L433.1,357.0 L433.9,357.6 L434.8,357.3 L435.6,357.0 L436.5,356.0 L437.3,356.3 L438.1,356.7 L439.0,357.0 L439.8,356.7 L440.7,356.7 L441.5,356.3 L442.4,357.3 L443.2,357.3 L444.0,356.3 L444.9,357.0 L445.7,356.3 L446.6,357.0 L447.4,356.7 L448.3,356.3 L449.1,356.3 L449.9,356.7 L450.8,357.0 L451.6,356.3 L452.5,356.0 L453.3,355.4 L454.2,355.4 L455.0,356.0 L455.8,355.7 L456.7,355.4 L457.5,355.7 L458.4,356.0 L459.2,356.7 L460.1,356.7 L460.9,356.3 L461.7,356.0 L462.6,356.3 L463.4,357.0 L464.3,357.3 L465.1,356.7 L466.0,357.0 L466.8,357.0 L467.6,356.3 L468.5,356.7 L469.3,357.0 L470.2,356.7 L471.0,356.3 L471.9,356.0 L472.7,356.0 L473.5,357.0 L474.4,356.7 L475.2,356.0 L476.1,355.7 L476.9,356.3 L477.8,356.3 L478.6,356.7 L479.4,356.7 L480.3,357.0 L481.1,357.0 L482.0,356.7 L482.8,357.0 L483.7,356.7 L484.5,357.0 L485.3,357.0 L486.2,357.0 L487.0,357.0 L487.9,357.0 L488.7,356.7 L489.6,357.0 L490.4,357.3 L491.2,357.3 L492.1,356.7 L492.9,357.6 L493.8,357.3 L494.6,357.0 L495.4,357.3 L496.3,357.6 L497.1,357.6 L498.0,357.6 L498.8,357.6 L499.7,357.3 L500.5,357.9 L501.3,357.0 L502.2,357.6 L503.0,357.6 L503.9,357.6 L504.7,357.0 L505.6,356.7 L506.4,357.3 L507.2,356.7 L508.1,356.7 L508.9,356.7 L509.8,357.0 L510.6,357.0 L511.5,357.0 L512.3,356.7 L513.1,357.0 L514.0,356.7 L514.8,357.3 L515.7,357.6 L516.5,357.0 L517.4,356.3 L518.2,357.0 L519.0,356.3 L519.9,356.3 L520.7,357.0 L521.6,357.3 L522.4,357.0 L523.3,356.7 L524.1,357.0 L524.9,356.7 L525.8,356.7 L526.6,356.3 L527.5,356.7 L528.3,356.3 L529.2,357.0 L530.0,356.7 L530.8,357.0 L531.7,356.3 L532.5,356.0 L533.4,356.3 L534.2,355.7 L535.1,355.7 L535.9,356.0 L536.7,356.3 L537.6,356.7 L538.4,357.0 L539.3,357.0 L540.1,357.3 L541.0,355.4 L541.8,356.0 L542.6,356.3 L543.5,356.0 L544.3,355.4 L545.2,355.7 L546.0,356.0 L546.9,355.7 L547.7,355.4 L548.5,355.4 L549.4,355.4 L550.2,356.0 L551.1,355.7 L551.9,348.9 L552.8,355.4 L553.6,355.1 L554.4,356.0 L555.3,356.3 L556.1,356.3 L557.0,356.7 L557.8,356.0 L558.7,355.7 L559.5,355.7 L560.3,355.4 L561.2,354.7 L562.0,355.4 L562.9,356.0 L563.7,356.0 L564.6,355.7 L565.4,356.3 L566.2,356.3 L567.1,356.0 L567.9,356.3 L568.8,356.0 L569.6,356.3 L570.4,356.3 L571.3,355.4 L572.1,354.7 L573.0,354.7 L573.8,354.7 L574.7,355.7 L575.5,355.1 L576.3,354.4 L577.2,354.4 L578.0,353.8 L578.9,354.4 L579.7,354.1 L580.6,354.1 L581.4,354.1 L582.2,354.7 L583.1,355.1 L583.9,356.0 L584.8,356.3 L585.6,355.7 L586.5,356.0 L587.3,356.0 L588.1,356.0 L589.0,355.7 L589.8,355.7 L590.7,354.7 L591.5,355.4 L592.4,354.7 L593.2,354.4 L594.0,354.7 L594.9,355.1 L595.7,355.4 L596.6,356.0 L597.4,355.7 L598.3,355.4 L599.1,355.4 L599.9,356.0 L600.8,356.0 L601.6,356.0 L602.5,356.3 L603.3,356.3 L604.2,355.7 L605.0,355.7 L605.8,356.0 L606.7,356.3 L607.5,357.0 L608.4,357.0 L609.2,356.3 L610.1,356.3 L610.9,357.0 L611.7,357.0 L612.6,356.0 L613.4,356.3 L614.3,356.3 L615.1,356.0 L616.0,356.3 L616.8,356.3 L617.6,355.4 L618.5,355.7 L619.3,355.4 L620.2,356.0 L621.0,355.4 L621.9,355.1 L622.7,355.4 L623.5,356.0 L624.4,355.7 L625.2,355.4 L626.1,355.7 L626.9,355.7 L627.8,355.4 L628.6,355.4 L629.4,355.4 L630.3,355.4 L631.1,355.7 L632.0,356.0 L632.8,356.3 L633.7,356.3 L634.5,356.0 L635.3,355.7 L636.2,355.7 L637.0,355.7 L637.9,356.0 L638.7,355.7 L639.6,355.4 L640.4,355.1 L641.2,355.1 L642.1,354.4 L642.9,354.1 L643.8,354.4 L644.6,354.4 L645.4,354.1 L646.3,354.1 L647.1,353.4 L648.0,353.4 L648.8,353.4 L649.7,353.4 L650.5,353.1 L651.3,354.1 L652.2,353.1 L653.0,353.1 L653.9,352.2 L654.7,352.5 L655.6,352.2 L656.4,352.5 L657.2,352.2 L658.1,352.2 L658.9,353.1 L659.8,353.1 L660.6,353.4 L661.5,354.1 L662.3,354.4 L663.1,354.7 L664.0,354.4 L664.8,354.4 L665.7,354.4 L666.5,355.7 L667.4,355.7 L668.2,355.7 L669.0,354.4 L669.9,354.4 L670.7,354.7 L671.6,354.4 L672.4,355.1 L673.3,355.4 L674.1,354.7 L674.9,354.7 L675.8,354.4 L676.6,353.8 L677.5,354.1 L678.3,354.1 L679.2,354.4 L680.0,354.1" stroke="#ff7f0e" stroke-width="2" fill="none" opacity="0.8"/>
<!-- Thermal Generation -->
<path d="M80.0,333.5 L80.8,333.8 L81.7,334.2 L82.5,333.8 L83.4,336.1 L84.2,335.8 L85.1,332.5 L85.9,334.8 L86.7,331.3 L87.6,333.5 L88.4,332.5 L89.3,330.0 L90.1,328.4 L91.0,328.7 L91.8,328.4 L92.6,325.2 L93.5,322.3 L94.3,321.6 L95.2,324.2 L96.0,316.5 L96.9,322.9 L97.7,323.5 L98.5,307.5 L99.4,290.8 L100.2,290.1 L101.1,290.1 L101.9,290.4 L102.8,290.4 L103.6,289.8 L104.4,291.7 L105.3,289.1 L106.1,357.6 L107.0,358.3 L107.8,357.3 L108.7,357.0 L109.5,357.0 L110.3,357.3 L111.2,357.6 L112.0,357.9 L112.9,357.6 L113.7,332.5 L114.6,332.5 L115.4,332.2 L116.2,290.4 L117.1,288.5 L117.9,288.2 L118.8,288.2 L119.6,286.9 L120.4,291.7 L121.3,287.9 L122.1,292.0 L123.0,288.8 L123.8,288.8 L124.7,291.4 L125.5,295.6 L126.3,335.4 L127.2,341.9 L128.0,336.7 L128.9,339.6 L129.7,334.2 L130.6,333.8 L131.4,333.8 L132.2,335.4 L133.1,337.7 L133.9,329.0 L134.8,289.1 L135.6,301.4 L136.5,327.7 L137.3,329.0 L138.1,331.3 L139.0,332.2 L139.8,335.8 L140.7,357.9 L141.5,358.3 L142.4,357.9 L143.2,350.9 L144.0,339.9 L144.9,294.3 L145.7,295.6 L146.6,348.9 L147.4,355.4 L148.3,351.8 L149.1,354.7 L149.9,359.2 L150.8,358.6 L151.6,356.7 L152.5,355.4 L153.3,357.6 L154.2,331.6 L155.0,294.6 L155.8,306.2 L156.7,331.9 L157.5,332.5 L158.4,332.2 L159.2,296.2 L160.1,297.8 L160.9,297.8 L161.7,297.2 L162.6,296.9 L163.4,296.2 L164.3,295.6 L165.1,292.0 L166.0,290.1 L166.8,293.3 L167.6,293.6 L168.5,326.1 L169.3,327.1 L170.2,359.2 L171.0,365.0 L171.9,381.4 L172.7,382.4 L173.5,355.7 L174.4,297.2 L175.2,302.6 L176.1,303.3 L176.9,300.1 L177.8,298.5 L178.6,298.8 L179.4,298.5 L180.3,296.2 L181.1,296.2 L182.0,292.7 L182.8,290.4 L183.7,293.3 L184.5,289.5 L185.3,293.0 L186.2,292.7 L187.0,299.8 L187.9,310.0 L188.7,310.4 L189.6,310.7 L190.4,316.2 L191.2,314.9 L192.1,334.2 L192.9,349.9 L193.8,331.6 L194.6,303.0 L195.4,290.8 L196.3,291.4 L197.1,291.4 L198.0,298.1 L198.8,324.5 L199.7,329.7 L200.5,330.0 L201.3,339.0 L202.2,339.9 L203.0,359.2 L203.9,347.7 L204.7,328.7 L205.6,291.1 L206.4,290.4 L207.2,287.2 L208.1,314.9 L208.9,311.3 L209.8,321.9 L210.6,325.8 L211.5,323.5 L212.3,325.5 L213.1,322.9 L214.0,331.3 L214.8,305.2 L215.7,288.2 L216.5,289.1 L217.4,290.1 L218.2,290.8 L219.0,288.5 L219.9,304.6 L220.7,340.9 L221.6,363.1 L222.4,363.4 L223.3,360.2 L224.1,354.1 L224.9,323.5 L225.8,289.5 L226.6,293.0 L227.5,311.3 L228.3,321.9 L229.2,327.7 L230.0,333.2 L230.8,334.8 L231.7,348.0 L232.5,345.1 L233.4,347.7 L234.2,343.8 L235.1,287.2 L235.9,289.8 L236.7,289.5 L237.6,290.1 L238.4,288.2 L239.3,288.5 L240.1,289.1 L241.0,288.8 L241.8,289.1 L242.6,289.5 L243.5,289.8 L244.3,289.8 L245.2,289.5 L246.0,292.0 L246.9,290.4 L247.7,305.2 L248.5,296.2 L249.4,292.4 L250.2,302.0 L251.1,294.9 L251.9,297.5 L252.8,289.5 L253.6,285.9 L254.4,318.7 L255.3,285.6 L256.1,286.9 L257.0,287.2 L257.8,284.6 L258.7,281.4 L259.5,283.7 L260.3,284.0 L261.2,284.0 L262.0,287.2 L262.9,279.5 L263.7,284.3 L264.6,279.5 L265.4,279.8 L266.2,279.8 L267.1,285.0 L267.9,285.0 L268.8,299.1 L269.6,300.1 L270.4,297.2 L271.3,298.5 L272.1,322.6 L273.0,320.3 L273.8,318.1 L274.7,322.3 L275.5,295.3 L276.3,282.4 L277.2,279.8 L278.0,276.3 L278.9,276.6 L279.7,281.7 L280.6,277.6 L281.4,277.6 L282.2,279.8 L283.1,283.4 L283.9,282.1 L284.8,281.7 L285.6,279.2 L286.5,278.2 L287.3,276.9 L288.1,296.2 L289.0,305.5 L289.8,305.2 L290.7,314.9 L291.5,316.5 L292.4,307.5 L293.2,292.4 L294.0,283.7 L294.9,279.8 L295.7,276.9 L296.6,276.0 L297.4,278.2 L298.3,295.3 L299.1,300.1 L299.9,289.1 L300.8,278.2 L301.6,279.2 L302.5,277.2 L303.3,277.2 L304.2,281.1 L305.0,276.9 L305.8,277.6 L306.7,278.2 L307.5,278.5 L308.4,300.1 L309.2,283.7 L310.1,277.2 L310.9,277.2 L311.7,281.1 L312.6,284.0 L313.4,296.9 L314.3,283.7 L315.1,278.9 L316.0,276.9 L316.8,275.3 L317.6,289.8 L318.5,288.8 L319.3,286.2 L320.2,276.0 L321.0,281.1 L321.9,315.8 L322.7,317.4 L323.5,318.7 L324.4,342.8 L325.2,342.8 L326.1,341.9 L326.9,315.8 L327.8,301.4 L328.6,295.6 L329.4,305.2 L330.3,314.2 L331.1,315.2 L332.0,327.1 L332.8,328.0 L333.7,351.2 L334.5,336.7 L335.3,306.2 L336.2,282.7 L337.0,275.6 L337.9,278.9 L338.7,279.2 L339.6,281.1 L340.4,278.2 L341.2,277.9 L342.1,278.2 L342.9,277.6 L343.8,283.7 L344.6,284.0 L345.4,288.2 L346.3,287.5 L347.1,283.0 L348.0,283.4 L348.8,283.7 L349.7,283.7 L350.5,296.5 L351.3,306.2 L352.2,316.2 L353.0,317.8 L353.9,321.3 L354.7,317.8 L355.6,311.0 L356.4,278.9 L357.2,281.7 L358.1,281.7 L358.9,282.7 L359.8,289.1 L360.6,279.5 L361.5,285.3 L362.3,297.5 L363.1,318.1 L364.0,315.8 L364.8,310.0 L365.7,299.4 L366.5,301.4 L367.4,300.4 L368.2,301.4 L369.0,320.7 L369.9,318.1 L370.7,316.8 L371.6,314.9 L372.4,310.4 L373.3,325.2 L374.1,332.5 L374.9,333.2 L375.8,314.5 L376.6,293.6 L377.5,287.9 L378.3,287.2 L379.2,285.6 L380.0,290.1 L380.8,290.1 L381.7,281.7 L382.5,285.3 L383.4,286.9 L384.2,321.3 L385.1,320.7 L385.9,321.0 L386.7,321.0 L387.6,297.5 L388.4,302.6 L389.3,304.6 L390.1,321.0 L391.0,320.0 L391.8,323.2 L392.6,322.6 L393.5,325.5 L394.3,360.2 L395.2,361.8 L396.0,358.6 L396.9,358.3 L397.7,351.5 L398.5,348.6 L399.4,333.8 L400.2,333.2 L401.1,343.5 L401.9,346.7 L402.8,347.7 L403.6,347.7 L404.4,346.7 L405.3,336.7 L406.1,306.2 L407.0,297.2 L407.8,294.9 L408.7,292.7 L409.5,301.4 L410.3,303.6 L411.2,301.7 L412.0,308.8 L412.9,308.4 L413.7,317.8 L414.6,326.1 L415.4,326.4 L416.2,322.9 L417.1,298.8 L417.9,292.4 L418.8,292.7 L419.6,291.7 L420.4,291.7 L421.3,289.8 L422.1,286.2 L423.0,287.2 L423.8,286.6 L424.7,292.4 L425.5,289.5 L426.3,288.8 L427.2,288.8 L428.0,290.4 L428.9,292.4 L429.7,301.7 L430.6,309.7 L431.4,314.5 L432.2,317.4 L433.1,321.9 L433.9,330.6 L434.8,328.7 L435.6,331.9 L436.5,330.6 L437.3,294.0 L438.1,293.3 L439.0,313.9 L439.8,332.5 L440.7,332.5 L441.5,321.0 L442.4,303.0 L443.2,308.4 L444.0,324.5 L444.9,332.9 L445.7,333.2 L446.6,323.9 L447.4,328.0 L448.3,326.1 L449.1,326.8 L449.9,322.3 L450.8,321.0 L451.6,330.6 L452.5,329.3 L453.3,353.4 L454.2,367.9 L455.0,367.6 L455.8,367.6 L456.7,353.8 L457.5,316.5 L458.4,322.6 L459.2,328.7 L460.1,330.6 L460.9,329.7 L461.7,327.7 L462.6,327.7 L463.4,327.1 L464.3,337.7 L465.1,330.3 L466.0,348.0 L466.8,350.2 L467.6,347.7 L468.5,342.5 L469.3,341.9 L470.2,340.9 L471.0,340.3 L471.9,339.6 L472.7,340.3 L473.5,376.9 L474.4,377.2 L475.2,377.9 L476.1,376.9 L476.9,307.5 L477.8,282.4 L478.6,282.1 L479.4,282.4 L480.3,284.3 L481.1,283.4 L482.0,280.1 L482.8,283.7 L483.7,279.2 L484.5,279.5 L485.3,276.3 L486.2,277.9 L487.0,280.5 L487.9,279.2 L488.7,278.2 L489.6,282.4 L490.4,306.5 L491.2,308.8 L492.1,271.5 L492.9,274.7 L493.8,271.8 L494.6,269.5 L495.4,270.2 L496.3,269.9 L497.1,268.6 L498.0,274.0 L498.8,279.2 L499.7,276.0 L500.5,277.2 L501.3,278.5 L502.2,293.6 L503.0,277.2 L503.9,281.4 L504.7,296.9 L505.6,299.8 L506.4,299.8 L507.2,299.8 L508.1,312.0 L508.9,281.7 L509.8,276.3 L510.6,284.0 L511.5,318.4 L512.3,302.0 L513.1,318.1 L514.0,317.8 L514.8,304.9 L515.7,280.1 L516.5,292.7 L517.4,275.3 L518.2,275.0 L519.0,319.7 L519.9,316.8 L520.7,305.5 L521.6,304.6 L522.4,303.3 L523.3,303.6 L524.1,303.6 L524.9,304.6 L525.8,299.8 L526.6,299.8 L527.5,303.6 L528.3,276.3 L529.2,276.0 L530.0,310.0 L530.8,323.2 L531.7,323.2 L532.5,323.5 L533.4,321.9 L534.2,321.6 L535.1,321.0 L535.9,321.0 L536.7,321.0 L537.6,314.5 L538.4,269.2 L539.3,290.8 L540.1,294.6 L541.0,292.4 L541.8,303.0 L542.6,320.0 L543.5,321.3 L544.3,321.0 L545.2,370.5 L546.0,371.5 L546.9,364.1 L547.7,363.7 L548.5,333.5 L549.4,319.7 L550.2,321.0 L551.1,323.2 L551.9,322.6 L552.8,321.3 L553.6,353.1 L554.4,353.4 L555.3,354.4 L556.1,353.4 L557.0,353.4 L557.8,299.4 L558.7,268.2 L559.5,302.6 L560.3,314.9 L561.2,314.9 L562.0,320.7 L562.9,337.4 L563.7,346.7 L564.6,362.1 L565.4,361.5 L566.2,352.5 L567.1,343.2 L567.9,342.2 L568.8,317.4 L569.6,281.7 L570.4,321.3 L571.3,325.2 L572.1,324.8 L573.0,324.8 L573.8,323.9 L574.7,325.5 L575.5,323.9 L576.3,328.4 L577.2,331.3 L578.0,296.2 L578.9,274.4 L579.7,311.3 L580.6,325.2 L581.4,323.5 L582.2,331.6 L583.1,338.3 L583.9,338.3 L584.8,326.4 L585.6,299.1 L586.5,297.8 L587.3,288.5 L588.1,270.5 L589.0,272.1 L589.8,269.9 L590.7,294.9 L591.5,318.1 L592.4,317.4 L593.2,323.2 L594.0,344.4 L594.9,335.4 L595.7,326.1 L596.6,321.6 L597.4,321.6 L598.3,269.5 L599.1,272.4 L599.9,269.9 L600.8,272.4 L601.6,269.5 L602.5,271.8 L603.3,278.5 L604.2,272.4 L605.0,271.8 L605.8,271.5 L606.7,270.8 L607.5,270.2 L608.4,272.7 L609.2,270.5 L610.1,273.7 L610.9,279.5 L611.7,298.5 L612.6,316.8 L613.4,314.2 L614.3,311.3 L615.1,310.0 L616.0,302.0 L616.8,304.3 L617.6,304.6 L618.5,272.7 L619.3,272.4 L620.2,268.9 L621.0,269.5 L621.9,278.5 L622.7,270.5 L623.5,270.2 L624.4,304.9 L625.2,311.3 L626.1,352.8 L626.9,368.2 L627.8,368.6 L628.6,357.3 L629.4,307.1 L630.3,274.4 L631.1,307.5 L632.0,307.8 L632.8,310.0 L633.7,322.6 L634.5,325.5 L635.3,326.4 L636.2,326.1 L637.0,322.6 L637.9,326.4 L638.7,280.8 L639.6,272.1 L640.4,274.4 L641.2,284.3 L642.1,299.8 L642.9,312.0 L643.8,338.7 L644.6,359.6 L645.4,372.4 L646.3,374.3 L647.1,371.5 L648.0,371.1 L648.8,335.4 L649.7,338.0 L650.5,315.5 L651.3,312.9 L652.2,313.3 L653.0,374.3 L653.9,378.2 L654.7,329.7 L655.6,326.1 L656.4,325.2 L657.2,325.2 L658.1,343.8 L658.9,292.0 L659.8,270.8 L660.6,269.2 L661.5,271.5 L662.3,269.5 L663.1,271.8 L664.0,271.1 L664.8,279.5 L665.7,286.9 L666.5,283.7 L667.4,280.1 L668.2,286.2 L669.0,271.1 L669.9,271.5 L670.7,270.5 L671.6,286.2 L672.4,295.6 L673.3,298.8 L674.1,291.7 L674.9,294.9 L675.8,310.0 L676.6,321.0 L677.5,320.3 L678.3,325.2 L679.2,280.5 L680.0,268.9" stroke="#2ca02c" stroke-width="2" fill="none" opacity="0.8"/>
<!-- Solar Generation -->
<path d="M80.0,420.0 L80.8,420.0 L81.7,420.0 L82.5,420.0 L83.4,420.0 L84.2,420.0 L85.1,420.0 L85.9,419.0 L86.7,417.4 L87.6,407.1 L88.4,406.5 L89.3,406.5 L90.1,404.2 L91.0,403.9 L91.8,403.0 L92.6,411.3 L93.5,418.1 L94.3,420.0 L95.2,420.0 L96.0,420.0 L96.9,420.0 L97.7,420.0 L98.5,420.0 L99.4,420.0 L100.2,420.0 L101.1,420.0 L101.9,420.0 L102.8,420.0 L103.6,420.0 L104.4,420.0 L105.3,420.0 L106.1,418.4 L107.0,416.1 L107.8,415.2 L108.7,412.0 L109.5,405.9 L110.3,410.7 L111.2,411.3 L112.0,413.9 L112.9,416.8 L113.7,418.1 L114.6,420.0 L115.4,420.0 L116.2,420.0 L117.1,420.0 L117.9,420.0 L118.8,420.0 L119.6,420.0 L120.4,420.0 L121.3,420.0 L122.1,420.0 L123.0,420.0 L123.8,420.0 L124.7,420.0 L125.5,420.0 L126.3,418.1 L127.2,413.6 L128.0,412.9 L128.9,407.8 L129.7,402.3 L130.6,410.0 L131.4,415.2 L132.2,415.5 L133.1,409.7 L133.9,410.0 L134.8,420.0 L135.6,420.0 L136.5,420.0 L137.3,420.0 L138.1,420.0 L139.0,420.0 L139.8,420.0 L140.7,420.0 L141.5,420.0 L142.4,420.0 L143.2,420.0 L144.0,420.0 L144.9,420.0 L145.7,419.7 L146.6,412.9 L147.4,413.2 L148.3,389.8 L149.1,383.7 L149.9,386.6 L150.8,403.0 L151.6,401.4 L152.5,401.0 L153.3,414.9 L154.2,416.8 L155.0,420.0 L155.8,420.0 L156.7,420.0 L157.5,420.0 L158.4,420.0 L159.2,420.0 L160.1,420.0 L160.9,420.0 L161.7,420.0 L162.6,420.0 L163.4,420.0 L164.3,420.0 L165.1,420.0 L166.0,420.0 L166.8,405.2 L167.6,380.1 L168.5,379.5 L169.3,385.9 L170.2,383.3 L171.0,382.4 L171.9,380.8 L172.7,376.0 L173.5,397.2 L174.4,412.0 L175.2,420.0 L176.1,420.0 L176.9,420.0 L177.8,420.0 L178.6,420.0 L179.4,420.0 L180.3,420.0 L181.1,420.0 L182.0,420.0 L182.8,420.0 L183.7,420.0 L184.5,420.0 L185.3,420.0 L186.2,420.0 L187.0,415.5 L187.9,394.9 L188.7,397.5 L189.6,400.4 L190.4,405.2 L191.2,412.0 L192.1,415.5 L192.9,417.4 L193.8,417.4 L194.6,419.7 L195.4,420.0 L196.3,420.0 L197.1,420.0 L198.0,420.0 L198.8,420.0 L199.7,420.0 L200.5,420.0 L201.3,420.0 L202.2,420.0 L203.0,420.0 L203.9,420.0 L204.7,420.0 L205.6,420.0 L206.4,420.0 L207.2,415.5 L208.1,412.9 L208.9,387.5 L209.8,382.7 L210.6,383.7 L211.5,397.2 L212.3,402.0 L213.1,398.5 L214.0,404.6 L214.8,412.9 L215.7,420.0 L216.5,420.0 L217.4,420.0 L218.2,420.0 L219.0,420.0 L219.9,420.0 L220.7,420.0 L221.6,420.0 L222.4,420.0 L223.3,420.0 L224.1,420.0 L224.9,420.0 L225.8,420.0 L226.6,420.0 L227.5,405.2 L228.3,401.7 L229.2,401.4 L230.0,399.1 L230.8,399.4 L231.7,383.7 L232.5,380.8 L233.4,393.3 L234.2,386.2 L235.1,414.2 L235.9,420.0 L236.7,420.0 L237.6,420.0 L238.4,420.0 L239.3,420.0 L240.1,420.0 L241.0,420.0 L241.8,420.0 L242.6,420.0 L243.5,420.0 L244.3,420.0 L245.2,420.0 L246.0,420.0 L246.9,420.0 L247.7,404.6 L248.5,380.8 L249.4,379.8 L250.2,383.3 L251.1,385.3 L251.9,384.6 L252.8,381.7 L253.6,379.5 L254.4,386.2 L255.3,413.6 L256.1,420.0 L257.0,420.0 L257.8,420.0 L258.7,420.0 L259.5,420.0 L260.3,420.0 L261.2,420.0 L262.0,420.0 L262.9,420.0 L263.7,420.0 L264.6,420.0 L265.4,420.0 L266.2,420.0 L267.1,420.0 L267.9,405.5 L268.8,382.4 L269.6,388.5 L270.4,384.0 L271.3,385.6 L272.1,385.6 L273.0,382.4 L273.8,379.5 L274.7,387.2 L275.5,412.6 L276.3,420.0 L277.2,420.0 L278.0,420.0 L278.9,420.0 L279.7,420.0 L280.6,420.0 L281.4,420.0 L282.2,420.0 L283.1,420.0 L283.9,420.0 L284.8,420.0 L285.6,420.0 L286.5,420.0 L287.3,420.0 L288.1,407.8 L289.0,387.2 L289.8,381.7 L290.7,385.3 L291.5,387.2 L292.4,384.6 L293.2,378.8 L294.0,388.2 L294.9,393.6 L295.7,417.7 L296.6,420.0 L297.4,420.0 L298.3,420.0 L299.1,420.0 L299.9,420.0 L300.8,420.0 L301.6,420.0 L302.5,420.0 L303.3,420.0 L304.2,420.0 L305.0,420.0 L305.8,420.0 L306.7,420.0 L307.5,420.0 L308.4,416.5 L309.2,411.6 L310.1,401.0 L310.9,405.5 L311.7,396.9 L312.6,413.6 L313.4,410.7 L314.3,414.2 L315.1,414.9 L316.0,418.7 L316.8,420.0 L317.6,420.0 L318.5,420.0 L319.3,420.0 L320.2,420.0 L321.0,420.0 L321.9,420.0 L322.7,420.0 L323.5,420.0 L324.4,420.0 L325.2,420.0 L326.1,420.0 L326.9,420.0 L327.8,420.0 L328.6,409.4 L329.4,392.7 L330.3,393.0 L331.1,405.5 L332.0,384.0 L332.8,386.2 L333.7,392.0 L334.5,394.6 L335.3,411.3 L336.2,413.6 L337.0,420.0 L337.9,420.0 L338.7,420.0 L339.6,420.0 L340.4,420.0 L341.2,420.0 L342.1,420.0 L342.9,420.0 L343.8,420.0 L344.6,420.0 L345.4,420.0 L346.3,420.0 L347.1,420.0 L348.0,420.0 L348.8,418.1 L349.7,396.5 L350.5,397.8 L351.3,399.4 L352.2,397.5 L353.0,389.1 L353.9,392.3 L354.7,397.2 L355.6,401.0 L356.4,417.4 L357.2,420.0 L358.1,420.0 L358.9,420.0 L359.8,420.0 L360.6,420.0 L361.5,420.0 L362.3,420.0 L363.1,420.0 L364.0,420.0 L364.8,420.0 L365.7,420.0 L366.5,420.0 L367.4,420.0 L368.2,420.0 L369.0,409.7 L369.9,383.0 L370.7,388.5 L371.6,380.8 L372.4,386.9 L373.3,384.6 L374.1,381.4 L374.9,398.1 L375.8,391.7 L376.6,418.7 L377.5,420.0 L378.3,420.0 L379.2,420.0 L380.0,420.0 L380.8,420.0 L381.7,420.0 L382.5,420.0 L383.4,420.0 L384.2,420.0 L385.1,420.0 L385.9,420.0 L386.7,420.0 L387.6,420.0 L388.4,420.0 L389.3,415.8 L390.1,407.5 L391.0,406.8 L391.8,407.8 L392.6,392.0 L393.5,387.2 L394.3,395.6 L395.2,390.7 L396.0,397.5 L396.9,415.8 L397.7,420.0 L398.5,420.0 L399.4,420.0 L400.2,420.0 L401.1,420.0 L401.9,420.0 L402.8,420.0 L403.6,420.0 L404.4,420.0 L405.3,420.0 L406.1,420.0 L407.0,420.0 L407.8,420.0 L408.7,420.0 L409.5,410.7 L410.3,385.0 L411.2,382.4 L412.0,385.3 L412.9,387.8 L413.7,386.2 L414.6,380.8 L415.4,380.5 L416.2,391.4 L417.1,417.4 L417.9,420.0 L418.8,420.0 L419.6,420.0 L420.4,420.0 L421.3,420.0 L422.1,420.0 L423.0,420.0 L423.8,420.0 L424.7,420.0 L425.5,420.0 L426.3,420.0 L427.2,420.0 L428.0,420.0 L428.9,420.0 L429.7,411.0 L430.6,386.2 L431.4,382.1 L432.2,386.2 L433.1,392.7 L433.9,386.6 L434.8,383.7 L435.6,392.0 L436.5,409.1 L437.3,418.7 L438.1,420.0 L439.0,420.0 L439.8,420.0 L440.7,420.0 L441.5,420.0 L442.4,420.0 L443.2,420.0 L444.0,420.0 L444.9,420.0 L445.7,420.0 L446.6,420.0 L447.4,420.0 L448.3,420.0 L449.1,420.0 L449.9,417.4 L450.8,404.6 L451.6,400.7 L452.5,400.4 L453.3,397.5 L454.2,388.8 L455.0,391.1 L455.8,398.5 L456.7,410.7 L457.5,418.7 L458.4,420.0 L459.2,420.0 L460.1,420.0 L460.9,420.0 L461.7,420.0 L462.6,420.0 L463.4,420.0 L464.3,420.0 L465.1,420.0 L466.0,420.0 L466.8,420.0 L467.6,420.0 L468.5,420.0 L469.3,418.7 L470.2,413.9 L471.0,416.1 L471.9,416.1 L472.7,398.5 L473.5,397.5 L474.4,403.6 L475.2,395.9 L476.1,409.7 L476.9,418.7 L477.8,420.0 L478.6,420.0 L479.4,420.0 L480.3,420.0 L481.1,420.0 L482.0,420.0 L482.8,420.0 L483.7,420.0 L484.5,420.0 L485.3,420.0 L486.2,420.0 L487.0,420.0 L487.9,420.0 L488.7,420.0 L489.6,412.6 L490.4,389.1 L491.2,383.0 L492.1,386.9 L492.9,389.8 L493.8,389.8 L494.6,386.6 L495.4,389.5 L496.3,410.0 L497.1,419.0 L498.0,420.0 L498.8,420.0 L499.7,420.0 L500.5,420.0 L501.3,420.0 L502.2,420.0 L503.0,420.0 L503.9,420.0 L504.7,420.0 L505.6,420.0 L506.4,420.0 L507.2,420.0 L508.1,420.0 L508.9,420.0 L509.8,419.0 L510.6,415.8 L511.5,412.9 L512.3,405.2 L513.1,412.0 L514.0,412.0 L514.8,399.7 L515.7,412.0 L516.5,414.9 L517.4,419.7 L518.2,420.0 L519.0,420.0 L519.9,420.0 L520.7,420.0 L521.6,420.0 L522.4,420.0 L523.3,420.0 L524.1,420.0 L524.9,420.0 L525.8,420.0 L526.6,420.0 L527.5,420.0 L528.3,420.0 L529.2,420.0 L530.0,419.0 L530.8,410.7 L531.7,401.4 L532.5,410.7 L533.4,403.0 L534.2,398.8 L535.1,407.5 L535.9,414.9 L536.7,413.6 L537.6,419.4 L538.4,420.0 L539.3,420.0 L540.1,420.0 L541.0,420.0 L541.8,420.0 L542.6,420.0 L543.5,420.0 L544.3,420.0 L545.2,420.0 L546.0,420.0 L546.9,420.0 L547.7,420.0 L548.5,420.0 L549.4,420.0 L550.2,418.1 L551.1,413.6 L551.9,394.3 L552.8,400.1 L553.6,396.9 L554.4,392.3 L555.3,384.6 L556.1,388.2 L557.0,404.2 L557.8,418.7 L558.7,420.0 L559.5,420.0 L560.3,420.0 L561.2,420.0 L562.0,420.0 L562.9,420.0 L563.7,420.0 L564.6,420.0 L565.4,420.0 L566.2,420.0 L567.1,420.0 L567.9,420.0 L568.8,420.0 L569.6,420.0 L570.4,418.1 L571.3,416.1 L572.1,410.0 L573.0,408.4 L573.8,406.8 L574.7,412.3 L575.5,401.4 L576.3,404.6 L577.2,407.8 L578.0,419.4 L578.9,420.0 L579.7,420.0 L580.6,420.0 L581.4,420.0 L582.2,420.0 L583.1,420.0 L583.9,420.0 L584.8,420.0 L585.6,420.0 L586.5,420.0 L587.3,420.0 L588.1,420.0 L589.0,420.0 L589.8,420.0 L590.7,417.7 L591.5,400.4 L592.4,383.0 L593.2,388.5 L594.0,390.4 L594.9,387.8 L595.7,388.5 L596.6,388.2 L597.4,402.0 L598.3,418.7 L599.1,420.0 L599.9,420.0 L600.8,420.0 L601.6,420.0 L602.5,420.0 L603.3,420.0 L604.2,420.0 L605.0,420.0 L605.8,420.0 L606.7,420.0 L607.5,420.0 L608.4,420.0 L609.2,420.0 L610.1,420.0 L610.9,415.5 L611.7,394.6 L612.6,388.8 L613.4,390.1 L614.3,395.6 L615.1,390.4 L616.0,387.8 L616.8,390.7 L617.6,407.5 L618.5,419.0 L619.3,420.0 L620.2,420.0 L621.0,420.0 L621.9,420.0 L622.7,420.0 L623.5,420.0 L624.4,420.0 L625.2,420.0 L626.1,420.0 L626.9,420.0 L627.8,420.0 L628.6,420.0 L629.4,420.0 L630.3,420.0 L631.1,419.0 L632.0,411.3 L632.8,403.9 L633.7,402.0 L634.5,401.0 L635.3,400.7 L636.2,399.1 L637.0,403.0 L637.9,412.6 L638.7,419.4 L639.6,420.0 L640.4,420.0 L641.2,420.0 L642.1,420.0 L642.9,420.0 L643.8,420.0 L644.6,420.0 L645.4,420.0 L646.3,420.0 L647.1,420.0 L648.0,420.0 L648.8,420.0 L649.7,420.0 L650.5,420.0 L651.3,417.7 L652.2,404.9 L653.0,387.2 L653.9,394.9 L654.7,394.9 L655.6,394.0 L656.4,389.5 L657.2,387.5 L658.1,399.4 L658.9,419.4 L659.8,420.0 L660.6,420.0 L661.5,420.0 L662.3,420.0 L663.1,420.0 L664.0,420.0 L664.8,420.0 L665.7,420.0 L666.5,420.0 L667.4,420.0 L668.2,420.0 L669.0,420.0 L669.9,420.0 L670.7,420.0 L671.6,419.4 L672.4,411.6 L673.3,394.3 L674.1,388.5 L674.9,391.7 L675.8,390.1 L676.6,390.7 L677.5,390.1 L678.3,411.6 L679.2,419.7 L680.0,420.0" stroke="#d62728" stroke-width="2" fill="none" opacity="0.8"/>
<!-- Forecast -->
<path d="M80.0,237.1 L80.8,237.4 L81.7,240.9 L82.5,244.5 L83.4,248.0 L84.2,242.8 L85.1,201.0 L85.9,191.1 L86.7,188.2 L87.6,182.7 L88.4,169.5 L89.3,163.4 L90.1,154.4 L91.0,160.9 L91.8,161.5 L92.6,160.2 L93.5,164.1 L94.3,151.5 L95.2,143.2 L96.0,151.5 L96.9,167.3 L97.7,191.4 L98.5,368.6 L99.4,240.6 L100.2,241.6 L101.1,243.8 L101.9,245.1 L102.8,242.8 L103.6,229.7 L104.4,196.5 L105.3,159.9 L106.1,144.1 L107.0,140.3 L107.8,141.2 L108.7,143.8 L109.5,149.6 L110.3,154.1 L111.2,158.0 L112.0,157.0 L112.9,153.1 L113.7,151.9 L114.6,148.3 L115.4,157.6 L116.2,173.1 L117.1,198.2 L117.9,220.3 L118.8,224.2 L119.6,236.1 L120.4,245.4 L121.3,250.9 L122.1,252.8 L123.0,250.2 L123.8,237.1 L124.7,205.2 L125.5,167.6 L126.3,149.6 L127.2,144.5 L128.0,144.8 L128.9,146.7 L129.7,152.2 L130.6,156.4 L131.4,159.9 L132.2,161.5 L133.1,159.9 L133.9,155.4 L134.8,153.1 L135.6,149.0 L136.5,157.6 L137.3,172.8 L138.1,197.2 L139.0,221.3 L139.8,235.8 L140.7,244.8 L141.5,250.6 L142.4,253.1 L143.2,250.6 L144.0,237.1 L144.9,206.2 L145.7,170.2 L146.6,153.8 L147.4,151.5 L148.3,153.1 L149.1,155.4 L149.9,160.9 L150.8,165.4 L151.6,167.0 L152.5,167.3 L153.3,165.7 L154.2,163.8 L155.0,160.9 L155.8,155.4 L156.7,162.8 L157.5,176.6 L158.4,200.1 L159.2,227.7 L160.1,234.2 L160.9,240.0 L161.7,245.1 L162.6,246.7 L163.4,247.0 L164.3,240.6 L165.1,227.1 L166.0,205.5 L166.8,188.2 L167.6,181.4 L168.5,175.3 L169.3,176.3 L170.2,182.1 L171.0,188.5 L171.9,193.0 L172.7,195.9 L173.5,197.5 L174.4,191.4 L175.2,184.3 L176.1,180.1 L176.9,185.3 L177.8,194.9 L178.6,211.3 L179.4,226.1 L180.3,233.5 L181.1,246.7 L182.0,253.1 L182.8,257.0 L183.7,257.6 L184.5,253.8 L185.3,241.9 L186.2,224.2 L187.0,207.8 L187.9,191.1 L188.7,184.3 L189.6,183.0 L190.4,183.4 L191.2,186.9 L192.1,188.5 L192.9,188.5 L193.8,181.4 L194.6,169.5 L195.4,163.1 L196.3,159.3 L197.1,166.6 L198.0,182.1 L198.8,203.3 L199.7,216.2 L200.5,236.4 L201.3,247.0 L202.2,252.8 L203.0,254.4 L203.9,251.8 L204.7,238.7 L205.6,206.8 L206.4,169.9 L207.2,152.2 L208.1,146.4 L208.9,146.4 L209.8,148.0 L210.6,152.5 L211.5,156.0 L212.3,159.3 L213.1,160.5 L214.0,157.3 L214.8,151.2 L215.7,148.6 L216.5,143.5 L217.4,151.2 L218.2,166.6 L219.0,190.8 L219.9,251.2 L220.7,240.6 L221.6,240.0 L222.4,247.0 L223.3,248.3 L224.1,244.8 L224.9,230.6 L225.8,200.4 L226.6,195.6 L227.5,196.2 L228.3,187.9 L229.2,170.8 L230.0,159.3 L230.8,156.4 L231.7,155.7 L232.5,157.3 L233.4,160.5 L234.2,169.2 L235.1,185.0 L235.9,185.9 L236.7,209.1 L237.6,179.8 L238.4,181.1 L239.3,204.3 L240.1,226.4 L241.0,240.9 L241.8,244.8 L242.6,248.0 L243.5,249.0 L244.3,246.4 L245.2,232.2 L246.0,201.0 L246.9,165.0 L247.7,149.6 L248.5,149.0 L249.4,153.5 L250.2,158.6 L251.1,165.0 L251.9,169.9 L252.8,171.5 L253.6,172.1 L254.4,169.2 L255.3,167.3 L256.1,165.0 L257.0,166.6 L257.8,169.9 L258.7,181.4 L259.5,204.6 L260.3,227.4 L261.2,242.5 L262.0,250.6 L262.9,256.0 L263.7,257.6 L264.6,256.0 L265.4,243.2 L266.2,232.2 L267.1,208.1 L267.9,201.0 L268.8,193.7 L269.6,177.3 L270.4,164.7 L271.3,160.9 L272.1,160.9 L273.0,160.5 L273.8,169.9 L274.7,170.2 L275.5,167.6 L276.3,164.7 L277.2,161.2 L278.0,167.9 L278.9,181.8 L279.7,205.5 L280.6,232.2 L281.4,244.5 L282.2,252.2 L283.1,257.6 L283.9,259.6 L284.8,257.3 L285.6,245.1 L286.5,214.9 L287.3,179.2 L288.1,162.8 L289.0,160.2 L289.8,161.8 L290.7,164.4 L291.5,168.9 L292.4,172.8 L293.2,174.4 L294.0,175.3 L294.9,171.8 L295.7,169.5 L296.6,168.6 L297.4,166.6 L298.3,171.8 L299.1,186.3 L299.9,209.1 L300.8,233.2 L301.6,241.6 L302.5,248.6 L303.3,254.7 L304.2,257.3 L305.0,258.6 L305.8,255.7 L306.7,242.8 L307.5,223.2 L308.4,205.5 L309.2,195.3 L310.1,189.8 L310.9,189.5 L311.7,194.9 L312.6,197.2 L313.4,198.5 L314.3,200.1 L315.1,198.5 L316.0,194.0 L316.8,190.4 L317.6,186.6 L318.5,190.4 L319.3,199.1 L320.2,215.8 L321.0,376.3 L321.9,287.5 L322.7,380.8 L323.5,420.0 L324.4,420.0 L325.2,420.0 L326.1,420.0 L326.9,420.0 L327.8,420.0 L328.6,420.0 L329.4,420.0 L330.3,420.0 L331.1,420.0 L332.0,420.0 L332.8,420.0 L333.7,420.0 L334.5,420.0 L335.3,420.0 L336.2,420.0 L337.0,420.0 L337.9,420.0 L338.7,420.0 L339.6,420.0 L340.4,420.0 L341.2,262.1 L342.1,373.7 L342.9,283.0 L343.8,247.0 L344.6,247.7 L345.4,245.7 L346.3,232.2 L347.1,202.0 L348.0,163.4 L348.8,147.4 L349.7,143.8 L350.5,146.1 L351.3,148.3 L352.2,152.5 L353.0,155.7 L353.9,159.3 L354.7,159.3 L355.6,154.4 L356.4,145.1 L357.2,140.9 L358.1,139.6 L358.9,147.4 L359.8,164.4 L360.6,189.8 L361.5,216.2 L362.3,227.4 L363.1,232.6 L364.0,238.3 L364.8,238.7 L365.7,235.8 L366.5,220.7 L367.4,189.2 L368.2,152.8 L369.0,139.3 L369.9,138.7 L370.7,142.9 L371.6,147.4 L372.4,152.5 L373.3,156.7 L374.1,160.9 L374.9,161.8 L375.8,157.3 L376.6,149.0 L377.5,144.1 L378.3,142.9 L379.2,150.2 L380.0,167.6 L380.8,193.0 L381.7,216.5 L382.5,233.5 L383.4,236.1 L384.2,240.9 L385.1,241.9 L385.9,241.2 L386.7,228.1 L387.6,198.8 L388.4,163.8 L389.3,148.6 L390.1,148.0 L391.0,152.2 L391.8,157.0 L392.6,162.8 L393.5,167.0 L394.3,169.2 L395.2,169.2 L396.0,166.3 L396.9,160.2 L397.7,155.7 L398.5,151.5 L399.4,159.3 L400.2,173.4 L401.1,197.2 L401.9,215.5 L402.8,231.9 L403.6,241.6 L404.4,246.4 L405.3,246.4 L406.1,243.2 L407.0,228.4 L407.8,198.2 L408.7,160.2 L409.5,144.1 L410.3,142.5 L411.2,147.4 L412.0,151.5 L412.9,157.0 L413.7,160.5 L414.6,164.4 L415.4,165.4 L416.2,160.5 L417.1,152.5 L417.9,146.7 L418.8,144.5 L419.6,152.2 L420.4,167.9 L421.3,192.7 L422.1,222.3 L423.0,232.6 L423.8,237.7 L424.7,242.8 L425.5,243.8 L426.3,240.9 L427.2,226.4 L428.0,195.6 L428.9,158.0 L429.7,143.2 L430.6,142.2 L431.4,147.0 L432.2,151.9 L433.1,157.6 L433.9,162.1 L434.8,166.6 L435.6,167.0 L436.5,163.4 L437.3,156.4 L438.1,153.1 L439.0,151.5 L439.8,161.5 L440.7,177.6 L441.5,203.0 L442.4,235.1 L443.2,240.3 L444.0,244.8 L444.9,251.2 L445.7,254.4 L446.6,256.3 L447.4,253.1 L448.3,241.2 L449.1,222.9 L449.9,204.6 L450.8,195.6 L451.6,190.4 L452.5,190.8 L453.3,197.2 L454.2,199.8 L455.0,201.7 L455.8,203.0 L456.7,202.0 L457.5,197.2 L458.4,193.3 L459.2,190.4 L460.1,194.6 L460.9,203.3 L461.7,220.3 L462.6,211.3 L463.4,224.8 L464.3,247.7 L465.1,260.8 L466.0,264.7 L466.8,267.3 L467.6,266.3 L468.5,261.8 L469.3,250.6 L470.2,236.1 L471.0,221.0 L471.9,203.3 L472.7,194.9 L473.5,191.4 L474.4,189.5 L475.2,192.4 L476.1,193.7 L476.9,193.7 L477.8,185.3 L478.6,169.5 L479.4,156.7 L480.3,158.9 L481.1,169.2 L482.0,185.0 L482.8,221.0 L483.7,237.1 L484.5,243.8 L485.3,249.6 L486.2,251.2 L487.0,249.0 L487.9,233.8 L488.7,203.6 L489.6,175.0 L490.4,159.6 L491.2,156.0 L492.1,156.7 L492.9,158.9 L493.8,162.8 L494.6,166.3 L495.4,167.6 L496.3,166.6 L497.1,160.5 L498.0,151.5 L498.8,149.6 L499.7,151.9 L500.5,162.8 L501.3,179.8 L502.2,204.3 L503.0,210.4 L503.9,242.2 L504.7,252.2 L505.6,259.2 L506.4,261.8 L507.2,260.8 L508.1,248.3 L508.9,217.1 L509.8,185.6 L510.6,168.9 L511.5,162.5 L512.3,160.9 L513.1,161.2 L514.0,164.4 L514.8,167.0 L515.7,167.9 L516.5,167.6 L517.4,161.5 L518.2,152.2 L519.0,149.3 L519.9,151.9 L520.7,162.1 L521.6,178.2 L522.4,205.2 L523.3,233.5 L524.1,244.5 L524.9,249.3 L525.8,255.7 L526.6,258.3 L527.5,257.6 L528.3,245.1 L529.2,214.2 L530.0,184.0 L530.8,167.3 L531.7,162.1 L532.5,162.1 L533.4,165.4 L534.2,170.2 L535.1,174.0 L535.9,174.4 L536.7,173.7 L537.6,169.5 L538.4,163.8 L539.3,163.1 L540.1,164.4 L541.0,174.0 L541.8,188.8 L542.6,212.3 L543.5,226.8 L544.3,247.3 L545.2,258.0 L546.0,263.4 L546.9,265.0 L547.7,263.1 L548.5,249.9 L549.4,219.4 L550.2,186.9 L551.1,171.5 L551.9,166.6 L552.8,165.4 L553.6,166.6 L554.4,168.9 L555.3,171.1 L556.1,171.1 L557.0,170.2 L557.8,165.0 L558.7,155.4 L559.5,151.5 L560.3,152.5 L561.2,162.5 L562.0,178.5 L562.9,202.3 L563.7,220.3 L564.6,239.3 L565.4,249.6 L566.2,256.0 L567.1,258.0 L567.9,257.0 L568.8,243.8 L569.6,213.6 L570.4,182.4 L571.3,166.6 L572.1,162.5 L573.0,161.8 L573.8,162.5 L574.7,164.4 L575.5,166.6 L576.3,167.0 L577.2,165.4 L578.0,158.6 L578.9,146.7 L579.7,143.2 L580.6,147.0 L581.4,155.7 L582.2,173.4 L583.1,197.8 L583.9,211.0 L584.8,230.3 L585.6,240.3 L586.5,246.1 L587.3,247.7 L588.1,247.0 L589.0,239.3 L589.8,226.1 L590.7,209.1 L591.5,193.0 L592.4,185.9 L593.2,179.8 L594.0,181.1 L594.9,183.0 L595.7,189.8 L596.6,194.3 L597.4,193.7 L598.3,172.8 L599.1,158.3 L599.9,158.9 L600.8,155.4 L601.6,162.8 L602.5,173.4 L603.3,194.0 L604.2,199.1 L605.0,223.6 L605.8,227.7 L606.7,232.6 L607.5,235.5 L608.4,232.2 L609.2,224.5 L610.1,208.4 L610.9,195.6 L611.7,192.4 L612.6,185.0 L613.4,177.6 L614.3,181.1 L615.1,183.0 L616.0,191.7 L616.8,193.7 L617.6,193.3 L618.5,184.7 L619.3,166.3 L620.2,153.8 L621.0,158.0 L621.9,171.1 L622.7,187.5 L623.5,206.5 L624.4,234.5 L625.2,244.1 L626.1,251.2 L626.9,258.3 L627.8,260.8 L628.6,259.2 L629.4,246.4 L630.3,215.5 L631.1,185.3 L632.0,170.2 L632.8,168.3 L633.7,168.6 L634.5,169.9 L635.3,173.4 L636.2,177.3 L637.0,176.9 L637.9,176.3 L638.7,173.4 L639.6,168.6 L640.4,166.6 L641.2,166.3 L642.1,174.7 L642.9,190.1 L643.8,213.3 L644.6,223.2 L645.4,246.1 L646.3,254.7 L647.1,258.9 L648.0,258.9 L648.8,256.0 L649.7,245.4 L650.5,217.1 L651.3,183.0 L652.2,163.1 L653.0,156.4 L653.9,158.3 L654.7,164.1 L655.6,167.0 L656.4,170.2 L657.2,171.8 L658.1,172.8 L658.9,169.5 L659.8,163.4 L660.6,159.6 L661.5,157.0 L662.3,162.5 L663.1,175.6 L664.0,198.8 L664.8,228.1 L665.7,243.8 L666.5,251.8 L667.4,257.6 L668.2,259.6 L669.0,258.0 L669.9,245.1 L670.7,215.8 L671.6,186.3 L672.4,169.5 L673.3,165.0 L674.1,164.7 L674.9,166.3 L675.8,170.2 L676.6,173.7 L677.5,174.0 L678.3,173.4 L679.2,169.2 L680.0,167.9" stroke="#9467bd" stroke-width="2" fill="none" opacity="0.8"/>
<!-- Total Generation -->
<path d="M80.0,269.9 L80.8,270.2 L81.7,270.8 L82.5,270.5 L83.4,272.7 L84.2,271.5 L85.1,268.2 L85.9,269.9 L86.7,264.1 L87.6,256.0 L88.4,255.4 L89.3,252.8 L90.1,248.0 L91.0,248.3 L91.8,248.6 L92.6,255.1 L93.5,258.9 L94.3,260.2 L95.2,261.8 L96.0,254.4 L96.9,260.2 L97.7,257.6 L98.5,242.8 L99.4,227.4 L100.2,228.4 L101.1,226.4 L101.9,229.0 L102.8,227.4 L103.6,225.8 L104.4,230.0 L105.3,226.8 L106.1,289.8 L107.0,292.4 L107.8,290.1 L108.7,286.2 L109.5,279.5 L110.3,284.0 L111.2,285.9 L112.0,286.6 L112.9,285.9 L113.7,263.7 L114.6,266.6 L115.4,267.3 L116.2,224.8 L117.1,215.2 L117.9,206.2 L118.8,213.3 L119.6,203.9 L120.4,194.9 L121.3,202.0 L122.1,178.2 L123.0,153.1 L123.8,147.4 L124.7,141.2 L125.5,137.7 L126.3,199.8 L127.2,207.5 L128.0,210.1 L128.9,204.3 L129.7,190.1 L130.6,189.5 L131.4,207.8 L132.2,201.0 L133.1,179.5 L133.9,159.9 L134.8,130.0 L135.6,128.4 L136.5,163.8 L137.3,146.4 L138.1,138.0 L139.0,135.8 L139.8,137.7 L140.7,163.8 L141.5,167.9 L142.4,167.9 L143.2,151.2 L144.0,143.5 L144.9,104.0 L145.7,98.8 L146.6,144.8 L147.4,149.9 L148.3,121.3 L149.1,117.1 L149.9,131.3 L150.8,145.4 L151.6,144.1 L152.5,138.7 L153.3,180.1 L154.2,146.4 L155.0,94.9 L155.8,130.3 L156.7,185.9 L157.5,167.0 L158.4,194.9 L159.2,152.8 L160.1,145.1 L160.9,121.6 L161.7,157.3 L162.6,159.3 L163.4,165.4 L164.3,160.2 L165.1,172.1 L166.0,170.8 L166.8,143.8 L167.6,122.6 L168.5,121.3 L169.3,125.8 L170.2,141.6 L171.0,140.3 L171.9,149.3 L172.7,143.5 L173.5,142.2 L174.4,140.9 L175.2,185.6 L176.1,197.5 L176.9,173.7 L177.8,172.4 L178.6,176.9 L179.4,171.8 L180.3,161.8 L181.1,148.6 L182.0,149.6 L182.8,169.5 L183.7,161.5 L184.5,157.6 L185.3,182.1 L186.2,184.3 L187.0,194.0 L187.9,177.6 L188.7,167.0 L189.6,171.5 L190.4,166.6 L191.2,118.4 L192.1,159.9 L192.9,169.5 L193.8,129.4 L194.6,139.0 L195.4,110.4 L196.3,106.5 L197.1,122.3 L198.0,108.5 L198.8,142.2 L199.7,142.5 L200.5,151.9 L201.3,149.0 L202.2,149.3 L203.0,168.9 L203.9,161.5 L204.7,139.3 L205.6,102.7 L206.4,112.3 L207.2,102.0 L208.1,124.8 L208.9,99.8 L209.8,120.3 L210.6,116.5 L211.5,115.8 L212.3,154.4 L213.1,159.9 L214.0,152.5 L214.8,92.4 L215.7,96.2 L216.5,95.3 L217.4,98.2 L218.2,85.0 L219.0,88.5 L219.9,103.3 L220.7,141.9 L221.6,164.7 L222.4,173.7 L223.3,168.3 L224.1,164.4 L224.9,129.0 L225.8,89.8 L226.6,100.4 L227.5,114.9 L228.3,128.4 L229.2,146.4 L230.0,134.8 L230.8,143.2 L231.7,126.5 L232.5,116.5 L233.4,125.8 L234.2,117.5 L235.1,103.3 L235.9,148.6 L236.7,161.5 L237.6,180.1 L238.4,197.5 L239.3,206.2 L240.1,214.9 L241.0,210.1 L241.8,206.2 L242.6,191.4 L243.5,189.8 L244.3,187.9 L245.2,188.5 L246.0,193.7 L246.9,195.9 L247.7,191.4 L248.5,172.8 L249.4,168.6 L250.2,179.8 L251.1,172.4 L251.9,178.5 L252.8,172.8 L253.6,165.4 L254.4,204.3 L255.3,194.6 L256.1,204.3 L257.0,201.7 L257.8,213.3 L258.7,208.4 L259.5,211.0 L260.3,203.9 L261.2,191.7 L262.0,184.7 L262.9,150.6 L263.7,132.9 L264.6,110.4 L265.4,121.0 L266.2,112.6 L267.1,92.7 L267.9,83.1 L268.8,85.6 L269.6,123.9 L270.4,129.7 L271.3,142.5 L272.1,147.0 L273.0,128.7 L273.8,123.2 L274.7,113.0 L275.5,136.1 L276.3,122.9 L277.2,151.5 L278.0,131.0 L278.9,121.6 L279.7,124.5 L280.6,146.7 L281.4,147.7 L282.2,136.4 L283.1,111.0 L283.9,109.4 L284.8,105.2 L285.6,113.0 L286.5,107.5 L287.3,97.5 L288.1,111.3 L289.0,112.6 L289.8,92.1 L290.7,118.7 L291.5,134.8 L292.4,132.2 L293.2,139.0 L294.0,158.9 L294.9,163.1 L295.7,182.4 L296.6,188.8 L297.4,189.8 L298.3,204.9 L299.1,204.3 L299.9,172.1 L300.8,161.5 L301.6,162.1 L302.5,164.1 L303.3,170.8 L304.2,175.6 L305.0,173.1 L305.8,175.0 L306.7,183.4 L307.5,186.9 L308.4,193.3 L309.2,174.0 L310.1,175.0 L310.9,187.2 L311.7,174.0 L312.6,205.2 L313.4,194.9 L314.3,199.4 L315.1,161.2 L316.0,164.4 L316.8,197.8 L317.6,215.2 L318.5,195.6 L319.3,171.8 L320.2,146.7 L321.0,155.1 L321.9,158.3 L322.7,163.1 L323.5,142.5 L324.4,155.4 L325.2,168.9 L326.1,159.3 L326.9,125.8 L327.8,122.0 L328.6,113.3 L329.4,104.0 L330.3,87.2 L331.1,94.6 L332.0,96.6 L332.8,98.5 L333.7,147.7 L334.5,141.6 L335.3,104.0 L336.2,114.2 L337.0,149.0 L337.9,175.6 L338.7,196.2 L339.6,193.0 L340.4,194.3 L341.2,194.6 L342.1,193.0 L342.9,187.9 L343.8,174.0 L344.6,157.0 L345.4,151.9 L346.3,138.0 L347.1,94.0 L348.0,120.3 L348.8,113.9 L349.7,80.8 L350.5,86.9 L351.3,98.2 L352.2,100.1 L353.0,91.1 L353.9,103.3 L354.7,99.1 L355.6,93.7 L356.4,105.9 L357.2,122.3 L358.1,121.0 L358.9,95.9 L359.8,113.3 L360.6,120.7 L361.5,150.6 L362.3,142.9 L363.1,143.8 L364.0,124.8 L364.8,125.5 L365.7,122.6 L366.5,129.0 L367.4,142.5 L368.2,172.8 L369.0,199.1 L369.9,162.5 L370.7,143.8 L371.6,150.6 L372.4,166.0 L373.3,175.0 L374.1,173.1 L374.9,207.2 L375.8,203.0 L376.6,209.7 L377.5,204.6 L378.3,215.5 L379.2,209.7 L380.0,213.9 L380.8,217.1 L381.7,205.5 L382.5,201.0 L383.4,194.3 L384.2,224.2 L385.1,222.9 L385.9,221.0 L386.7,213.6 L387.6,191.1 L388.4,179.5 L389.3,173.7 L390.1,194.0 L391.0,198.8 L391.8,179.8 L392.6,122.3 L393.5,127.1 L394.3,139.3 L395.2,134.8 L396.0,138.0 L396.9,156.0 L397.7,163.8 L398.5,158.9 L399.4,142.2 L400.2,148.0 L401.1,149.3 L401.9,160.9 L402.8,179.5 L403.6,184.7 L404.4,180.5 L405.3,182.7 L406.1,173.1 L407.0,163.8 L407.8,177.3 L408.7,181.4 L409.5,210.1 L410.3,194.0 L411.2,178.5 L412.0,192.0 L412.9,197.2 L413.7,211.0 L414.6,215.8 L415.4,200.4 L416.2,208.8 L417.1,208.4 L417.9,196.5 L418.8,192.7 L419.6,203.3 L420.4,213.6 L421.3,223.6 L422.1,220.7 L423.0,218.7 L423.8,218.4 L424.7,218.4 L425.5,215.8 L426.3,212.9 L427.2,212.3 L428.0,213.9 L428.9,215.5 L429.7,217.1 L430.6,207.5 L431.4,212.0 L432.2,216.8 L433.1,226.8 L433.9,221.9 L434.8,208.4 L435.6,216.2 L436.5,232.6 L437.3,198.2 L438.1,189.5 L439.0,228.7 L439.8,241.2 L440.7,234.8 L441.5,218.7 L442.4,184.3 L443.2,188.5 L444.0,173.7 L444.9,177.6 L445.7,176.6 L446.6,141.6 L447.4,147.4 L448.3,158.9 L449.1,152.5 L449.9,142.5 L450.8,128.1 L451.6,131.6 L452.5,129.7 L453.3,161.8 L454.2,169.2 L455.0,167.6 L455.8,193.0 L456.7,206.5 L457.5,185.9 L458.4,177.9 L459.2,200.1 L460.1,171.1 L460.9,160.5 L461.7,144.5 L462.6,136.7 L463.4,150.9 L464.3,145.1 L465.1,140.6 L466.0,162.5 L466.8,164.4 L467.6,166.0 L468.5,179.8 L469.3,170.2 L470.2,167.6 L471.0,167.9 L471.9,147.7 L472.7,129.0 L473.5,158.9 L474.4,165.0 L475.2,157.6 L476.1,176.0 L476.9,116.5 L477.8,88.8 L478.6,99.4 L479.4,104.6 L480.3,122.9 L481.1,119.1 L482.0,138.0 L482.8,147.4 L483.7,163.8 L484.5,169.9 L485.3,176.9 L486.2,206.2 L487.0,205.2 L487.9,206.8 L488.7,207.8 L489.6,201.0 L490.4,194.9 L491.2,188.5 L492.1,154.4 L492.9,165.0 L493.8,170.2 L494.6,168.6 L495.4,170.5 L496.3,188.2 L497.1,199.8 L498.0,205.9 L498.8,207.5 L499.7,202.3 L500.5,212.6 L501.3,208.8 L502.2,229.7 L503.0,212.9 L503.9,214.6 L504.7,225.5 L505.6,229.0 L506.4,216.5 L507.2,206.8 L508.1,180.8 L508.9,145.4 L509.8,121.6 L510.6,139.0 L511.5,181.4 L512.3,139.0 L513.1,157.3 L514.0,170.2 L514.8,148.3 L515.7,150.2 L516.5,161.2 L517.4,138.0 L518.2,179.5 L519.0,231.3 L519.9,238.7 L520.7,233.8 L521.6,233.2 L522.4,230.0 L523.3,230.6 L524.1,235.5 L524.9,237.4 L525.8,229.3 L526.6,227.7 L527.5,229.7 L528.3,203.3 L529.2,205.2 L530.0,242.2 L530.8,247.3 L531.7,237.1 L532.5,246.1 L533.4,233.5 L534.2,227.4 L535.1,237.7 L535.9,240.3 L536.7,243.8 L537.6,242.2 L538.4,194.0 L539.3,217.1 L540.1,200.7 L541.0,172.8 L541.8,157.3 L542.6,170.2 L543.5,125.5 L544.3,135.5 L545.2,202.3 L546.0,182.4 L546.9,205.5 L547.7,203.3 L548.5,175.3 L549.4,134.5 L550.2,132.9 L551.1,155.4 L551.9,96.9 L552.8,99.1 L553.6,125.5 L554.4,125.8 L555.3,121.3 L556.1,122.9 L557.0,137.1 L557.8,98.2 L558.7,67.6 L559.5,107.8 L560.3,112.3 L561.2,115.8 L562.0,125.8 L562.9,140.3 L563.7,151.5 L564.6,191.4 L565.4,202.0 L566.2,192.0 L567.1,164.7 L567.9,195.6 L568.8,169.5 L569.6,148.0 L570.4,179.8 L571.3,175.6 L572.1,144.8 L573.0,116.5 L573.8,114.6 L574.7,122.3 L575.5,109.1 L576.3,117.8 L577.2,123.2 L578.0,99.1 L578.9,76.9 L579.7,114.9 L580.6,128.4 L581.4,124.8 L582.2,140.6 L583.1,140.6 L583.9,140.9 L584.8,129.0 L585.6,103.6 L586.5,105.9 L587.3,96.9 L588.1,78.6 L589.0,88.2 L589.8,94.9 L590.7,118.7 L591.5,139.0 L592.4,107.2 L593.2,140.3 L594.0,175.6 L594.9,177.6 L595.7,179.5 L596.6,180.8 L597.4,195.9 L598.3,172.1 L599.1,191.1 L599.9,199.4 L600.8,205.2 L601.6,203.9 L602.5,204.3 L603.3,212.9 L604.2,206.2 L605.0,205.2 L605.8,203.9 L606.7,203.0 L607.5,194.3 L608.4,193.0 L609.2,185.6 L610.1,177.6 L610.9,181.1 L611.7,179.5 L612.6,203.9 L613.4,196.2 L614.3,198.5 L615.1,185.6 L616.0,167.0 L616.8,165.4 L617.6,189.5 L618.5,175.0 L619.3,173.7 L620.2,143.8 L621.0,129.0 L621.9,122.3 L622.7,92.7 L623.5,94.9 L624.4,121.6 L625.2,121.3 L626.1,160.5 L626.9,176.0 L627.8,182.7 L628.6,182.4 L629.4,126.1 L630.3,98.5 L631.1,119.1 L632.0,112.6 L632.8,125.8 L633.7,136.7 L634.5,114.2 L635.3,124.8 L636.2,130.6 L637.0,143.5 L637.9,170.2 L638.7,131.3 L639.6,121.0 L640.4,105.9 L641.2,123.2 L642.1,114.9 L642.9,120.3 L643.8,154.7 L644.6,167.0 L645.4,185.6 L646.3,181.8 L647.1,174.0 L648.0,178.2 L648.8,140.9 L649.7,157.0 L650.5,122.6 L651.3,122.9 L652.2,101.1 L653.0,144.1 L653.9,153.8 L654.7,105.2 L655.6,99.8 L656.4,96.9 L657.2,94.3 L658.1,133.2 L658.9,122.9 L659.8,103.3 L660.6,117.8 L661.5,156.4 L662.3,160.2 L663.1,173.1 L664.0,176.3 L664.8,192.7 L665.7,212.6 L666.5,211.0 L667.4,210.4 L668.2,214.6 L669.0,200.4 L669.9,196.5 L670.7,193.0 L671.6,205.9 L672.4,197.5 L673.3,177.6 L674.1,154.7 L674.9,144.8 L675.8,140.0 L676.6,148.6 L677.5,161.5 L678.3,223.6 L679.2,204.3 L680.0,196.9" stroke="#8c564b" stroke-width="2" fill="none" opacity="0.8"/>
<!-- Forecast Difference -->
<path d="M80.0,420.0 L80.8,420.0 L81.7,420.0 L82.5,420.0 L83.4,420.0 L84.2,420.0 L85.1,420.0 L85.9,420.0 L86.7,420.0 L87.6,420.0 L88.4,420.0 L89.3,420.0 L90.1,420.0 L91.0,420.0 L91.8,420.0 L92.6,420.0 L93.5,420.0 L94.3,420.0 L95.2,420.0 L96.0,420.0 L96.9,420.0 L97.7,420.0 L98.5,420.0 L99.4,420.0 L100.2,420.0 L101.1,420.0 L101.9,420.0 L102.8,420.0 L103.6,420.0 L104.4,420.0 L105.3,420.0 L106.1,420.0 L107.0,420.0 L107.8,420.0 L108.7,420.0 L109.5,420.0 L110.3,420.0 L111.2,420.0 L112.0,420.0 L112.9,420.0 L113.7,420.0 L114.6,420.0 L115.4,420.0 L116.2,420.0 L117.1,420.0 L117.9,420.0 L118.8,420.0 L119.6,420.0 L120.4,420.0 L121.3,420.0 L122.1,420.0 L123.0,420.0 L123.8,420.0 L124.7,420.0 L125.5,420.0 L126.3,420.0 L127.2,420.0 L128.0,420.0 L128.9,420.0 L129.7,420.0 L130.6,420.0 L131.4,420.0 L132.2,420.0 L133.1,420.0 L133.9,420.0 L134.8,420.0 L135.6,420.0 L136.5,420.0 L137.3,420.0 L138.1,420.0 L139.0,420.0 L139.8,420.0 L140.7,420.0 L141.5,420.0 L142.4,420.0 L143.2,420.0 L144.0,420.0 L144.9,420.0 L145.7,420.0 L146.6,420.0 L147.4,420.0 L148.3,420.0 L149.1,420.0 L149.9,420.0 L150.8,420.0 L151.6,420.0 L152.5,420.0 L153.3,420.0 L154.2,420.0 L155.0,420.0 L155.8,420.0 L156.7,420.0 L157.5,420.0 L158.4,420.0 L159.2,420.0 L160.1,420.0 L160.9,420.0 L161.7,420.0 L162.6,420.0 L163.4,420.0 L164.3,420.0 L165.1,420.0 L166.0,420.0 L166.8,420.0 L167.6,420.0 L168.5,420.0 L169.3,420.0 L170.2,420.0 L171.0,420.0 L171.9,420.0 L172.7,420.0 L173.5,420.0 L174.4,420.0 L175.2,420.0 L176.1,420.0 L176.9,420.0 L177.8,420.0 L178.6,420.0 L179.4,420.0 L180.3,420.0 L181.1,420.0 L182.0,420.0 L182.8,420.0 L183.7,420.0 L184.5,420.0 L185.3,420.0 L186.2,420.0 L187.0,420.0 L187.9,420.0 L188.7,420.0 L189.6,420.0 L190.4,420.0 L191.2,420.0 L192.1,420.0 L192.9,420.0 L193.8,420.0 L194.6,420.0 L195.4,420.0 L196.3,420.0 L197.1,420.0 L198.0,420.0 L198.8,420.0 L199.7,420.0 L200.5,420.0 L201.3,420.0 L202.2,420.0 L203.0,420.0 L203.9,420.0 L204.7,420.0 L205.6,420.0 L206.4,420.0 L207.2,420.0 L208.1,420.0 L208.9,420.0 L209.8,420.0 L210.6,420.0 L211.5,420.0 L212.3,420.0 L213.1,420.0 L214.0,420.0 L214.8,420.0 L215.7,420.0 L216.5,420.0 L217.4,420.0 L218.2,420.0 L219.0,420.0 L219.9,420.0 L220.7,420.0 L221.6,420.0 L222.4,420.0 L223.3,420.0 L224.1,420.0 L224.9,420.0 L225.8,420.0 L226.6,420.0 L227.5,420.0 L228.3,420.0 L229.2,420.0 L230.0,420.0 L230.8,420.0 L231.7,420.0 L232.5,420.0 L233.4,420.0 L234.2,420.0 L235.1,420.0 L235.9,420.0 L236.7,420.0 L237.6,420.0 L238.4,420.0 L239.3,420.0 L240.1,420.0 L241.0,420.0 L241.8,420.0 L242.6,420.0 L243.5,420.0 L244.3,420.0 L245.2,420.0 L246.0,420.0 L246.9,420.0 L247.7,420.0 L248.5,420.0 L249.4,420.0 L250.2,420.0 L251.1,420.0 L251.9,420.0 L252.8,420.0 L253.6,420.0 L254.4,420.0 L255.3,420.0 L256.1,420.0 L257.0,420.0 L257.8,420.0 L258.7,420.0 L259.5,420.0 L260.3,420.0 L261.2,420.0 L262.0,420.0 L262.9,420.0 L263.7,420.0 L264.6,420.0 L265.4,420.0 L266.2,420.0 L267.1,420.0 L267.9,420.0 L268.8,420.0 L269.6,420.0 L270.4,420.0 L271.3,420.0 L272.1,420.0 L273.0,420.0 L273.8,420.0 L274.7,420.0 L275.5,420.0 L276.3,420.0 L277.2,420.0 L278.0,420.0 L278.9,420.0 L279.7,420.0 L280.6,420.0 L281.4,420.0 L282.2,420.0 L283.1,420.0 L283.9,420.0 L284.8,420.0 L285.6,420.0 L286.5,420.0 L287.3,420.0 L288.1,420.0 L289.0,420.0 L289.8,420.0 L290.7,420.0 L291.5,420.0 L292.4,420.0 L293.2,420.0 L294.0,420.0 L294.9,420.0 L295.7,420.0 L296.6,420.0 L297.4,420.0 L298.3,420.0 L299.1,420.0 L299.9,420.0 L300.8,420.0 L301.6,420.0 L302.5,420.0 L303.3,420.0 L304.2,420.0 L305.0,420.0 L305.8,420.0 L306.7,420.0 L307.5,420.0 L308.4,420.0 L309.2,420.0 L310.1,420.0 L310.9,420.0 L311.7,420.0 L312.6,420.0 L313.4,420.0 L314.3,420.0 L315.1,420.0 L316.0,420.0 L316.8,420.0 L317.6,420.0 L318.5,420.0 L319.3,420.0 L320.2,420.0 L321.0,420.0 L321.9,420.0 L322.7,420.0 L323.5,420.0 L324.4,420.0 L325.2,420.0 L326.1,420.0 L326.9,420.0 L327.8,420.0 L328.6,420.0 L329.4,420.0 L330.3,420.0 L331.1,420.0 L332.0,420.0 L332.8,420.0 L333.7,420.0 L334.5,420.0 L335.3,420.0 L336.2,420.0 L337.0,420.0 L337.9,420.0 L338.7,420.0 L339.6,420.0 L340.4,420.0 L341.2,420.0 L342.1,420.0 L342.9,420.0 L343.8,420.0 L344.6,420.0 L345.4,420.0 L346.3,420.0 L347.1,420.0 L348.0,420.0 L348.8,420.0 L349.7,420.0 L350.5,420.0 L351.3,420.0 L352.2,420.0 L353.0,420.0 L353.9,420.0 L354.7,420.0 L355.6,420.0 L356.4,420.0 L357.2,420.0 L358.1,420.0 L358.9,420.0 L359.8,420.0 L360.6,420.0 L361.5,420.0 L362.3,420.0 L363.1,420.0 L364.0,420.0 L364.8,420.0 L365.7,420.0 L366.5,420.0 L367.4,420.0 L368.2,420.0 L369.0,420.0 L369.9,420.0 L370.7,420.0 L371.6,420.0 L372.4,420.0 L373.3,420.0 L374.1,420.0 L374.9,420.0 L375.8,420.0 L376.6,420.0 L377.5,420.0 L378.3,420.0 L379.2,420.0 L380.0,420.0 L380.8,420.0 L381.7,420.0 L382.5,420.0 L383.4,420.0 L384.2,420.0 L385.1,420.0 L385.9,420.0 L386.7,420.0 L387.6,420.0 L388.4,420.0 L389.3,420.0 L390.1,420.0 L391.0,420.0 L391.8,420.0 L392.6,420.0 L393.5,420.0 L394.3,420.0 L395.2,420.0 L396.0,420.0 L396.9,420.0 L397.7,420.0 L398.5,420.0 L399.4,420.0 L400.2,420.0 L401.1,420.0 L401.9,420.0 L402.8,420.0 L403.6,420.0 L404.4,420.0 L405.3,420.0 L406.1,420.0 L407.0,420.0 L407.8,420.0 L408.7,420.0 L409.5,420.0 L410.3,420.0 L411.2,420.0 L412.0,420.0 L412.9,420.0 L413.7,420.0 L414.6,420.0 L415.4,420.0 L416.2,420.0 L417.1,420.0 L417.9,420.0 L418.8,420.0 L419.6,420.0 L420.4,420.0 L421.3,420.0 L422.1,420.0 L423.0,420.0 L423.8,420.0 L424.7,420.0 L425.5,420.0 L426.3,420.0 L427.2,420.0 L428.0,420.0 L428.9,420.0 L429.7,420.0 L430.6,420.0 L431.4,420.0 L432.2,420.0 L433.1,420.0 L433.9,420.0 L434.8,420.0 L435.6,420.0 L436.5,420.0 L437.3,420.0 L438.1,420.0 L439.0,420.0 L439.8,420.0 L440.7,420.0 L441.5,420.0 L442.4,420.0 L443.2,420.0 L444.0,420.0 L444.9,420.0 L445.7,420.0 L446.6,420.0 L447.4,420.0 L448.3,420.0 L449.1,420.0 L449.9,420.0 L450.8,420.0 L451.6,420.0 L452.5,420.0 L453.3,420.0 L454.2,420.0 L455.0,420.0 L455.8,420.0 L456.7,420.0 L457.5,420.0 L458.4,420.0 L459.2,420.0 L460.1,420.0 L460.9,420.0 L461.7,420.0 L462.6,420.0 L463.4,420.0 L464.3,420.0 L465.1,420.0 L466.0,420.0 L466.8,420.0 L467.6,420.0 L468.5,420.0 L469.3,420.0 L470.2,420.0 L471.0,420.0 L471.9,420.0 L472.7,420.0 L473.5,420.0 L474.4,420.0 L475.2,420.0 L476.1,420.0 L476.9,420.0 L477.8,420.0 L478.6,420.0 L479.4,420.0 L480.3,420.0 L481.1,420.0 L482.0,420.0 L482.8,420.0 L483.7,420.0 L484.5,420.0 L485.3,420.0 L486.2,420.0 L487.0,420.0 L487.9,420.0 L488.7,420.0 L489.6,420.0 L490.4,420.0 L491.2,420.0 L492.1,420.0 L492.9,420.0 L493.8,420.0 L494.6,420.0 L495.4,420.0 L496.3,420.0 L497.1,420.0 L498.0,420.0 L498.8,420.0 L499.7,420.0 L500.5,420.0 L501.3,420.0 L502.2,420.0 L503.0,420.0 L503.9,420.0 L504.7,420.0 L505.6,420.0 L506.4,420.0 L507.2,420.0 L508.1,420.0 L508.9,420.0 L509.8,420.0 L510.6,420.0 L511.5,420.0 L512.3,420.0 L513.1,420.0 L514.0,420.0 L514.8,420.0 L515.7,420.0 L516.5,420.0 L517.4,420.0 L518.2,420.0 L519.0,420.0 L519.9,420.0 L520.7,420.0 L521.6,420.0 L522.4,420.0 L523.3,420.0 L524.1,420.0 L524.9,420.0 L525.8,420.0 L526.6,420.0 L527.5,420.0 L528.3,420.0 L529.2,420.0 L530.0,420.0 L530.8,420.0 L531.7,420.0 L532.5,420.0 L533.4,420.0 L534.2,420.0 L535.1,420.0 L535.9,420.0 L536.7,420.0 L537.6,420.0 L538.4,420.0 L539.3,420.0 L540.1,420.0 L541.0,420.0 L541.8,420.0 L542.6,420.0 L543.5,420.0 L544.3,420.0 L545.2,420.0 L546.0,420.0 L546.9,420.0 L547.7,420.0 L548.5,420.0 L549.4,420.0 L550.2,420.0 L551.1,420.0 L551.9,420.0 L552.8,420.0 L553.6,420.0 L554.4,420.0 L555.3,420.0 L556.1,420.0 L557.0,420.0 L557.8,420.0 L558.7,420.0 L559.5,420.0 L560.3,420.0 L561.2,420.0 L562.0,420.0 L562.9,420.0 L563.7,420.0 L564.6,420.0 L565.4,420.0 L566.2,420.0 L567.1,420.0 L567.9,420.0 L568.8,420.0 L569.6,420.0 L570.4,420.0 L571.3,420.0 L572.1,420.0 L573.0,420.0 L573.8,420.0 L574.7,420.0 L575.5,420.0 L576.3,420.0 L577.2,420.0 L578.0,420.0 L578.9,420.0 L579.7,420.0 L580.6,420.0 L581.4,420.0 L582.2,420.0 L583.1,420.0 L583.9,420.0 L584.8,420.0 L585.6,420.0 L586.5,420.0 L587.3,420.0 L588.1,420.0 L589.0,420.0 L589.8,420.0 L590.7,420.0 L591.5,420.0 L592.4,420.0 L593.2,420.0 L594.0,420.0 L594.9,420.0 L595.7,420.0 L596.6,420.0 L597.4,420.0 L598.3,420.0 L599.1,420.0 L599.9,420.0 L600.8,420.0 L601.6,420.0 L602.5,420.0 L603.3,420.0 L604.2,420.0 L605.0,420.0 L605.8,420.0 L606.7,420.0 L607.5,420.0 L608.4,420.0 L609.2,420.0 L610.1,420.0 L610.9,420.0 L611.7,420.0 L612.6,420.0 L613.4,420.0 L614.3,420.0 L615.1,420.0 L616.0,420.0 L616.8,420.0 L617.6,420.0 L618.5,420.0 L619.3,420.0 L620.2,420.0 L621.0,420.0 L621.9,420.0 L622.7,420.0 L623.5,420.0 L624.4,420.0 L625.2,420.0 L626.1,420.0 L626.9,420.0 L627.8,420.0 L628.6,420.0 L629.4,420.0 L630.3,420.0 L631.1,420.0 L632.0,420.0 L632.8,420.0 L633.7,420.0 L634.5,420.0 L635.3,420.0 L636.2,420.0 L637.0,420.0 L637.9,420.0 L638.7,420.0 L639.6,420.0 L640.4,420.0 L641.2,420.0 L642.1,420.0 L642.9,420.0 L643.8,420.0 L644.6,420.0 L645.4,420.0 L646.3,420.0 L647.1,420.0 L648.0,420.0 L648.8,420.0 L649.7,420.0 L650.5,420.0 L651.3,420.0 L652.2,420.0 L653.0,420.0 L653.9,420.0 L654.7,420.0 L655.6,420.0 L656.4,420.0 L657.2,420.0 L658.1,420.0 L658.9,420.0 L659.8,420.0 L660.6,420.0 L661.5,420.0 L662.3,420.0 L663.1,420.0 L664.0,420.0 L664.8,420.0 L665.7,420.0 L666.5,420.0 L667.4,420.0 L668.2,420.0 L669.0,420.0 L669.9,420.0 L670.7,420.0 L671.6,420.0 L672.4,420.0 L673.3,420.0 L674.1,420.0 L674.9,420.0 L675.8,420.0 L676.6,420.0 L677.5,420.0 L678.3,420.0 L679.2,420.0 L680.0,420.0" stroke="#e377c2" stroke-width="2" fill="none" opacity="0.8"/>

<!-- Legend -->
<line x1="690" y1="70" x2="705" y2="70" stroke="#1f77b4" stroke-width="3"/>
<text x="710" y="74" class="legend">Wind Generation</text>
<line x1="690" y1="88" x2="705" y2="88" stroke="#ff7f0e" stroke-width="3"/>
<text x="710" y="92" class="legend">Hydro Generation</text>
<line x1="690" y1="106" x2="705" y2="106" stroke="#2ca02c" stroke-width="3"/>
<text x="710" y="110" class="legend">Thermal Generation</text>
<line x1="690" y1="124" x2="705" y2="124" stroke="#d62728" stroke-width="3"/>
<text x="710" y="128" class="legend">Solar Generation</text>
<line x1="690" y1="142" x2="705" y2="142" stroke="#9467bd" stroke-width="3"/>
<text x="710" y="146" class="legend">Forecast</text>
<line x1="690" y1="160" x2="705" y2="160" stroke="#8c564b" stroke-width="3"/>
<text x="710" y="164" class="legend">Total Generation</text>
<line x1="690" y1="178" x2="705" y2="178" stroke="#e377c2" stroke-width="3"/>
<text x="710" y="182" class="legend">Forecast Difference</text>

<!-- Date range -->
<text x="80" y="495" class="legend">Range: 10/14 - 11/12/2025 (713 records)</text>
</svg>