<?xml version="1.0" encoding="UTF-8"?>
<svg width="800" height="500" xmlns="http://www.w3.org/2000/svg">
<style>
.axis-line { stroke: #333; stroke-width: 1; }
.grid-line { stroke: #ddd; stroke-width: 0.5; }
.title { font: 16px Arial; text-anchor: middle; fill: #333; }
.axis-label { font: 12px Arial; text-anchor: middle; fill: #666; }
.legend { font: 10px Arial; fill: #333; }
</style>

<!-- Title -->
<text x="400.0" y="25" class="title">Northwestern Energy Generation Data - Past 30 Days</text>

<!-- Plot area background -->
<rect x="80" y="50" width="600" height="370" fill="white" stroke="#ddd"/>

<!-- Y-axis -->
<line x1="80" y1="50" x2="80" y2="420" class="axis-line"/>
<text x="30" y="235.0" class="axis-label" transform="rotate(-90, 30, 235.0)">Generation (MW)</text>

<!-- X-axis -->
<line x1="80" y1="420" x2="680" y2="420" class="axis-line"/>
<text x="380.0" y="480" class="axis-label">Time</text>
<line x1="80" y1="420.0" x2="680" y2="420.0" class="grid-line"/>
<text x="70" y="425.0" class="legend" text-anchor="end">0</text>
<line x1="80" y1="327.5" x2="680" y2="327.5" class="grid-line"/>
<text x="70" y="332.5" class="legend" text-anchor="end">356</text>
<line x1="80" y1="235.0" x2="680" y2="235.0" class="grid-line"/>
<text x="70" y="240.0" class="legend" text-anchor="end">712</text>
<line x1="80" y1="142.5" x2="680" y2="142.5" class="grid-line"/>
<text x="70" y="147.5" class="legend" text-anchor="end">1068</text>
<line x1="80" y1="50.0" x2="680" y2="50.0" class="grid-line"/>
<text x="70" y="55.0" class="legend" text-anchor="end">1424</text>
<!-- Wind Generation -->
<path d="M80.0,354.3 L80.8,334.0 L81.7,328.3 L82.5,338.4 L83.4,375.0 L84.2,390.1 L85.1,392.5 L85.9,376.1 L86.7,368.3 L87.6,346.5 L88.4,319.4 L89.3,319.2 L90.1,331.6 L91.0,338.1 L91.8,330.3 L92.6,347.0 L93.5,376.9 L94.3,407.3 L95.2,416.6 L96.0,412.2 L96.9,411.2 L97.7,409.1 L98.5,404.4 L99.4,397.7 L100.2,384.1 L101.1,384.9 L101.9,382.1 L102.8,392.7 L103.6,388.6 L104.4,380.0 L105.3,373.5 L106.1,369.3 L107.0,365.4 L107.8,365.2 L108.7,366.2 L109.5,365.2 L110.3,366.2 L111.2,383.4 L112.0,388.8 L112.9,395.6 L113.7,383.9 L114.6,380.5 L115.4,385.7 L116.2,376.1 L117.1,381.5 L117.9,375.0 L118.8,382.1 L119.6,380.2 L120.4,353.5 L121.3,351.1 L122.1,349.1 L123.0,340.5 L123.8,337.6 L124.7,330.6 L125.5,342.6 L126.3,327.5 L127.2,328.3 L128.0,355.3 L128.9,356.9 L129.7,365.2 L130.6,365.9 L131.4,367.8 L132.2,351.4 L133.1,348.0 L133.9,350.6 L134.8,350.9 L135.6,349.8 L136.5,349.6 L137.3,348.3 L138.1,369.3 L139.0,354.8 L139.8,361.5 L140.7,350.1 L141.5,344.4 L142.4,344.9 L143.2,347.2 L144.0,357.4 L144.9,354.5 L145.7,349.3 L146.6,353.7 L147.4,350.9 L148.3,348.0 L149.1,350.9 L149.9,357.4 L150.8,348.5 L151.6,351.7 L152.5,351.4 L153.3,347.5 L154.2,348.3 L155.0,344.1 L155.8,343.6 L156.7,343.3 L157.5,344.6 L158.4,346.5 L159.2,350.9 L160.1,352.2 L160.9,355.8 L161.7,354.5 L162.6,375.6 L163.4,370.4 L164.3,373.5 L165.1,370.6 L166.0,400.3 L166.8,408.0 L167.6,402.3 L168.5,400.5 L169.3,400.3 L170.2,411.9 L171.0,411.2 L171.9,414.5 L172.7,416.6 L173.5,417.9 L174.4,416.1 L175.2,417.4 L176.1,416.9 L176.9,413.8 L177.8,405.4 L178.6,405.2 L179.4,414.3 L180.3,415.8 L181.1,411.7 L182.0,411.2 L182.8,408.0 L183.7,405.7 L184.5,407.5 L185.3,403.9 L186.2,406.0 L187.0,401.3 L187.9,387.0 L188.7,365.4 L189.6,365.7 L190.4,375.8 L191.2,366.7 L192.1,380.8 L192.9,371.1 L193.8,347.0 L194.6,346.7 L195.4,330.6 L196.3,354.5 L197.1,341.8 L198.0,354.5 L198.8,360.0 L199.7,375.3 L200.5,399.5 L201.3,406.5 L202.2,413.8 L203.0,409.9 L203.9,414.0 L204.7,414.0 L205.6,415.3 L206.4,416.1 L207.2,409.9 L208.1,407.3 L208.9,406.2 L209.8,398.2 L210.6,392.7 L211.5,396.9 L212.3,403.1 L213.1,402.8 L214.0,394.8 L214.8,404.4 L215.7,399.5 L216.5,380.0 L217.4,380.0 L218.2,397.7 L219.0,401.5 L219.9,411.4 L220.7,409.1 L221.6,401.3 L222.4,412.7 L223.3,418.4 L224.1,415.3 L224.9,406.0 L225.8,406.2 L226.6,415.8 L227.5,418.7 L228.3,418.4 L229.2,417.9 L230.0,418.7 L230.8,416.9 L231.7,416.9 L232.5,416.1 L233.4,410.4 L234.2,409.3 L235.1,416.9 L235.9,414.8 L236.7,414.3 L237.6,412.5 L238.4,408.6 L239.3,404.9 L240.1,410.9 L241.0,413.2 L241.8,416.4 L242.6,413.0 L243.5,417.9 L244.3,416.9 L245.2,416.1 L246.0,402.8 L246.9,388.8 L247.7,378.4 L248.5,375.0 L249.4,371.7 L250.2,374.5 L251.1,353.5 L251.9,333.2 L252.8,348.8 L253.6,354.3 L254.4,351.7 L255.3,333.5 L256.1,335.0 L257.0,362.6 L257.8,360.0 L258.7,356.1 L259.5,357.1 L260.3,364.1 L261.2,380.2 L262.0,380.2 L262.9,378.7 L263.7,367.0 L264.6,362.6 L265.4,377.9 L266.2,351.4 L267.1,337.4 L267.9,319.4 L268.8,365.7 L269.6,364.4 L270.4,352.4 L271.3,382.3 L272.1,385.2 L273.0,386.0 L273.8,380.0 L274.7,376.6 L275.5,374.5 L276.3,374.0 L277.2,329.0 L278.0,342.6 L278.9,350.9 L279.7,315.8 L280.6,310.3 L281.4,324.1 L282.2,327.2 L283.1,323.8 L283.9,316.1 L284.8,322.8 L285.6,344.1 L286.5,355.8 L287.3,358.7 L288.1,364.4 L289.0,372.4 L289.8,353.5 L290.7,344.1 L291.5,352.4 L292.4,320.7 L293.2,319.7 L294.0,324.1 L294.9,344.9 L295.7,348.0 L296.6,353.2 L297.4,354.8 L298.3,354.0 L299.1,341.3 L299.9,338.7 L300.8,351.4 L301.6,348.0 L302.5,331.9 L303.3,336.8 L304.2,344.6 L305.0,360.5 L305.8,364.9 L306.7,371.1 L307.5,369.1 L308.4,365.2 L309.2,360.2 L310.1,362.6 L310.9,357.4 L311.7,354.8 L312.6,336.3 L313.4,326.4 L314.3,321.0 L315.1,321.3 L316.0,322.0 L316.8,318.4 L317.6,318.7 L318.5,315.8 L319.3,316.3 L320.2,319.7 L321.0,318.9 L321.9,318.9 L322.7,322.3 L323.5,325.7 L324.4,321.3 L325.2,320.0 L326.1,322.0 L326.9,320.5 L327.8,317.4 L328.6,323.8 L329.4,320.2 L330.3,321.0 L331.1,318.4 L332.0,321.0 L332.8,326.2 L333.7,327.5 L334.5,335.3 L335.3,317.1 L336.2,315.5 L337.0,317.6 L337.9,314.5 L338.7,315.8 L339.6,313.5 L340.4,314.0 L341.2,320.5 L342.1,331.1 L342.9,327.7 L343.8,327.5 L344.6,329.0 L345.4,331.9 L346.3,330.9 L347.1,336.6 L348.0,334.2 L348.8,344.4 L349.7,342.0 L350.5,337.6 L351.3,351.9 L352.2,360.0 L353.0,346.2 L353.9,344.9 L354.7,346.2 L355.6,346.5 L356.4,335.0 L357.2,333.7 L358.1,331.9 L358.9,333.2 L359.8,331.6 L360.6,330.3 L361.5,327.5 L362.3,339.7 L363.1,338.1 L364.0,336.3 L364.8,334.0 L365.7,341.5 L366.5,337.1 L367.4,331.1 L368.2,332.2 L369.0,332.4 L369.9,336.1 L370.7,339.7 L371.6,334.8 L372.4,336.3 L373.3,343.3 L374.1,338.1 L374.9,344.9 L375.8,342.8 L376.6,340.2 L377.5,324.4 L378.3,327.0 L379.2,328.8 L380.0,324.6 L380.8,323.6 L381.7,324.6 L382.5,320.5 L383.4,317.4 L384.2,312.4 L385.1,309.8 L385.9,309.0 L386.7,317.6 L387.6,324.4 L388.4,363.3 L389.3,371.4 L390.1,374.8 L391.0,386.2 L391.8,399.0 L392.6,390.9 L393.5,402.8 L394.3,409.9 L395.2,411.2 L396.0,413.0 L396.9,415.3 L397.7,415.1 L398.5,409.3 L399.4,403.9 L400.2,400.5 L401.1,370.9 L401.9,337.6 L402.8,328.0 L403.6,328.3 L404.4,333.5 L405.3,332.7 L406.1,324.1 L407.0,325.7 L407.8,332.9 L408.7,328.3 L409.5,333.7 L410.3,330.1 L411.2,344.1 L412.0,336.1 L412.9,327.5 L413.7,330.9 L414.6,324.9 L415.4,317.4 L416.2,314.0 L417.1,311.6 L417.9,307.5 L418.8,331.1 L419.6,339.4 L420.4,327.7 L421.3,336.8 L422.1,322.0 L423.0,313.2 L423.8,314.0 L424.7,315.3 L425.5,317.9 L426.3,317.1 L427.2,345.7 L428.0,355.3 L428.9,358.2 L429.7,375.3 L430.6,402.8 L431.4,412.5 L432.2,415.8 L433.1,415.8 L433.9,416.9 L434.8,410.4 L435.6,409.1 L436.5,397.4 L437.3,382.6 L438.1,374.0 L439.0,374.5 L439.8,378.9 L440.7,378.7 L441.5,370.1 L442.4,375.8 L443.2,373.2 L444.0,374.8 L444.9,340.7 L445.7,365.4 L446.6,375.0 L447.4,374.8 L448.3,374.8 L449.1,362.0 L449.9,334.5 L450.8,323.1 L451.6,344.4 L452.5,339.7 L453.3,336.6 L454.2,337.6 L455.0,348.8 L455.8,363.1 L456.7,347.0 L457.5,311.1 L458.4,314.0 L459.2,334.8 L460.1,327.7 L460.9,325.9 L461.7,352.2 L462.6,356.6 L463.4,359.5 L464.3,361.8 L465.1,370.9 L466.0,357.6 L466.8,354.0 L467.6,330.6 L468.5,319.7 L469.3,321.8 L470.2,336.8 L471.0,349.1 L471.9,353.2 L472.7,363.1 L473.5,377.1 L474.4,373.0 L475.2,374.8 L476.1,347.2 L476.9,347.2 L477.8,319.2 L478.6,312.9 L479.4,310.9 L480.3,315.3 L481.1,329.3 L482.0,340.0 L482.8,333.2 L483.7,345.4 L484.5,342.0 L485.3,360.0 L486.2,360.0 L487.0,338.9 L487.9,311.1 L488.7,311.4 L489.6,315.8 L490.4,310.1 L491.2,309.6 L492.1,308.8 L492.9,308.8 L493.8,313.5 L494.6,321.0 L495.4,325.1 L496.3,325.9 L497.1,334.0 L498.0,332.7 L498.8,335.0 L499.7,325.4 L500.5,335.5 L501.3,349.3 L502.2,349.3 L503.0,319.7 L503.9,323.6 L504.7,327.7 L505.6,321.0 L506.4,324.1 L507.2,314.0 L508.1,335.8 L508.9,340.2 L509.8,344.9 L510.6,328.8 L511.5,318.7 L512.3,356.6 L513.1,330.6 L514.0,356.9 L514.8,323.8 L515.7,320.0 L516.5,317.4 L517.4,312.4 L518.2,310.3 L519.0,313.2 L519.9,320.5 L520.7,313.5 L521.6,313.2 L522.4,311.4 L523.3,315.5 L524.1,326.7 L524.9,368.5 L525.8,362.3 L526.6,390.6 L527.5,388.6 L528.3,384.4 L529.2,380.5 L530.0,399.7 L530.8,411.2 L531.7,409.6 L532.5,403.1 L533.4,397.1 L534.2,394.3 L535.1,380.2 L535.9,379.2 L536.7,366.5 L537.6,341.5 L538.4,327.7 L539.3,317.6 L540.1,316.3 L541.0,310.1 L541.8,314.8 L542.6,312.7 L543.5,319.4 L544.3,317.4 L545.2,325.7 L546.0,317.4 L546.9,317.4 L547.7,310.9 L548.5,309.0 L549.4,309.0 L550.2,319.7 L551.1,321.5 L551.9,341.8 L552.8,347.8 L553.6,344.4 L554.4,342.8 L555.3,333.2 L556.1,327.7 L557.0,329.3 L557.8,322.0 L558.7,306.2 L559.5,307.7 L560.3,307.7 L561.2,320.0 L562.0,319.7 L562.9,307.2 L563.7,307.0 L564.6,306.4 L565.4,305.9 L566.2,306.4 L567.1,309.3 L567.9,305.7 L568.8,306.2 L569.6,306.2 L570.4,307.0 L571.3,308.5 L572.1,312.7 L573.0,315.0 L573.8,312.9 L574.7,314.2 L575.5,310.9 L576.3,313.7 L577.2,316.6 L578.0,312.2 L578.9,307.0 L579.7,306.7 L580.6,305.9 L581.4,306.4 L582.2,306.7 L583.1,308.5 L583.9,317.6 L584.8,324.1 L585.6,327.0 L586.5,320.2 L587.3,320.7 L588.1,314.8 L589.0,312.9 L589.8,313.2 L590.7,313.2 L591.5,316.1 L592.4,315.0 L593.2,314.8 L594.0,316.8 L594.9,316.3 L595.7,315.5 L596.6,318.9 L597.4,315.5 L598.3,319.7 L599.1,337.6 L599.9,330.9 L600.8,340.2 L601.6,334.8 L602.5,317.4 L603.3,336.3 L604.2,321.3 L605.0,310.9 L605.8,311.4 L606.7,309.8 L607.5,310.1 L608.4,314.5 L609.2,308.8 L610.1,324.6 L610.9,327.7 L611.7,327.2 L612.6,345.4 L613.4,325.7 L614.3,324.9 L615.1,326.7 L616.0,338.1 L616.8,357.4 L617.6,340.0 L618.5,335.8 L619.3,341.5 L620.2,349.6 L621.0,355.6 L621.9,345.9 L622.7,320.5 L623.5,312.4 L624.4,316.3 L625.2,317.9 L626.1,312.9 L626.9,319.7 L627.8,322.5 L628.6,323.8 L629.4,315.5 L630.3,312.9 L631.1,312.4 L632.0,314.5 L632.8,324.4 L633.7,314.0 L634.5,316.6 L635.3,320.2 L636.2,318.1 L637.0,348.3 L637.9,344.4 L638.7,343.9 L639.6,340.7 L640.4,342.8 L641.2,342.8 L642.1,343.6 L642.9,353.7 L643.8,347.2 L644.6,350.6 L645.4,348.3 L646.3,354.0 L647.1,360.2 L648.0,364.4 L648.8,370.4 L649.7,375.6 L650.5,377.9 L651.3,373.7 L652.2,343.9 L653.0,337.1 L653.9,330.1 L654.7,322.5 L655.6,310.3 L656.4,312.7 L657.2,342.3 L658.1,342.8 L658.9,344.1 L659.8,338.4 L660.6,338.9 L661.5,341.5 L662.3,336.1 L663.1,353.2 L664.0,342.3 L664.8,347.0 L665.7,316.3 L666.5,316.6 L667.4,311.1 L668.2,313.7 L669.0,310.9 L669.9,323.1 L670.7,320.0 L671.6,317.1 L672.4,322.5 L673.3,318.9 L674.1,325.1 L674.9,318.4 L675.8,320.7 L676.6,309.8 L677.5,343.6 L678.3,344.4 L679.2,344.6 L680.0,355.3" stroke="#1f77b4" stroke-width="2" fill="none" opacity="0.8"/>
<!-- Hydro Generation -->
<path d="M80.0,348.3 L80.8,349.3 L81.7,349.3 L82.5,349.3 L83.4,349.6 L84.2,349.6 L85.1,349.8 L85.9,350.4 L86.7,350.4 L87.6,350.6 L88.4,350.1 L89.3,350.1 L90.1,371.4 L91.0,371.7 L91.8,372.7 L92.6,374.5 L93.5,373.7 L94.3,374.0 L95.2,373.2 L96.0,358.9 L96.9,377.6 L97.7,376.6 L98.5,361.0 L99.4,364.6 L100.2,358.4 L101.1,357.6 L101.9,357.1 L102.8,357.1 L103.6,357.1 L104.4,357.9 L105.3,357.1 L106.1,356.9 L107.0,357.1 L107.8,357.4 L108.7,356.9 L109.5,357.1 L110.3,354.5 L111.2,354.3 L112.0,355.3 L112.9,355.6 L113.7,354.3 L114.6,354.8 L115.4,354.8 L116.2,354.8 L117.1,354.8 L117.9,354.5 L118.8,355.0 L119.6,351.4 L120.4,350.4 L121.3,350.4 L122.1,350.1 L123.0,350.1 L123.8,350.1 L124.7,349.8 L125.5,349.6 L126.3,349.8 L127.2,349.6 L128.0,349.8 L128.9,349.8 L129.7,349.8 L130.6,350.1 L131.4,350.6 L132.2,349.6 L133.1,350.6 L133.9,351.4 L134.8,350.9 L135.6,351.1 L136.5,351.4 L137.3,351.1 L138.1,350.9 L139.0,351.1 L139.8,351.4 L140.7,351.1 L141.5,351.1 L142.4,351.1 L143.2,350.6 L144.0,350.6 L144.9,350.1 L145.7,350.4 L146.6,349.8 L147.4,350.1 L148.3,350.1 L149.1,350.1 L149.9,350.1 L150.8,350.4 L151.6,350.6 L152.5,350.9 L153.3,352.2 L154.2,351.9 L155.0,351.7 L155.8,351.9 L156.7,351.7 L157.5,351.9 L158.4,351.4 L159.2,351.7 L160.1,352.2 L160.9,351.9 L161.7,351.7 L162.6,351.4 L163.4,351.4 L164.3,351.9 L165.1,351.4 L166.0,351.9 L166.8,351.7 L167.6,351.7 L168.5,351.9 L169.3,351.7 L170.2,352.4 L171.0,352.4 L171.9,353.5 L172.7,353.5 L173.5,353.2 L174.4,353.5 L175.2,353.7 L176.1,353.7 L176.9,353.2 L177.8,353.5 L178.6,354.0 L179.4,354.0 L180.3,354.5 L181.1,354.5 L182.0,354.3 L182.8,354.5 L183.7,352.7 L184.5,352.4 L185.3,352.2 L186.2,351.1 L187.0,350.6 L187.9,350.6 L188.7,350.1 L189.6,349.6 L190.4,349.6 L191.2,349.8 L192.1,349.6 L192.9,350.4 L193.8,349.8 L194.6,349.6 L195.4,349.6 L196.3,349.3 L197.1,349.8 L198.0,349.8 L198.8,349.3 L199.7,349.6 L200.5,349.6 L201.3,349.3 L202.2,349.3 L203.0,349.6 L203.9,349.6 L204.7,350.9 L205.6,349.3 L206.4,349.6 L207.2,349.6 L208.1,348.5 L208.9,349.1 L209.8,349.3 L210.6,349.3 L211.5,349.8 L212.3,349.8 L213.1,350.6 L214.0,350.6 L214.8,350.9 L215.7,350.6 L216.5,350.6 L217.4,351.1 L218.2,351.7 L219.0,351.9 L219.9,352.7 L220.7,352.4 L221.6,352.4 L222.4,352.7 L223.3,352.7 L224.1,352.4 L224.9,352.4 L225.8,350.9 L226.6,351.7 L227.5,349.8 L228.3,349.8 L229.2,350.1 L230.0,350.1 L230.8,349.8 L231.7,350.4 L232.5,350.1 L233.4,350.1 L234.2,349.6 L235.1,349.6 L235.9,349.6 L236.7,349.6 L237.6,349.6 L238.4,349.3 L239.3,349.6 L240.1,349.1 L241.0,349.6 L241.8,349.6 L242.6,349.3 L243.5,349.3 L244.3,349.1 L245.2,349.1 L246.0,349.3 L246.9,349.3 L247.7,349.3 L248.5,349.1 L249.4,349.1 L250.2,349.3 L251.1,349.3 L251.9,349.3 L252.8,349.3 L253.6,349.8 L254.4,349.3 L255.3,349.3 L256.1,349.1 L257.0,349.6 L257.8,349.3 L258.7,349.6 L259.5,349.3 L260.3,349.3 L261.2,349.6 L262.0,349.3 L262.9,349.1 L263.7,349.3 L264.6,349.1 L265.4,349.1 L266.2,349.3 L267.1,349.1 L267.9,349.3 L268.8,347.8 L269.6,347.8 L270.4,347.8 L271.3,347.8 L272.1,347.8 L273.0,347.8 L273.8,347.0 L274.7,346.7 L275.5,347.0 L276.3,346.7 L277.2,346.7 L278.0,345.9 L278.9,346.2 L279.7,345.7 L280.6,345.9 L281.4,345.7 L282.2,345.7 L283.1,345.7 L283.9,347.2 L284.8,347.5 L285.6,347.5 L286.5,347.5 L287.3,347.5 L288.1,347.5 L289.0,347.5 L289.8,347.5 L290.7,347.5 L291.5,347.8 L292.4,347.8 L293.2,348.8 L294.0,349.3 L294.9,349.6 L295.7,350.6 L296.6,349.8 L297.4,350.6 L298.3,350.6 L299.1,350.6 L299.9,351.7 L300.8,351.7 L301.6,351.4 L302.5,351.7 L303.3,351.7 L304.2,351.9 L305.0,351.4 L305.8,350.9 L306.7,351.4 L307.5,351.7 L308.4,350.9 L309.2,351.4 L310.1,351.4 L310.9,351.7 L311.7,351.7 L312.6,351.9 L313.4,352.2 L314.3,352.7 L315.1,354.3 L316.0,354.0 L316.8,354.0 L317.6,354.3 L318.5,357.1 L319.3,357.4 L320.2,357.9 L321.0,358.7 L321.9,360.0 L322.7,360.0 L323.5,360.2 L324.4,360.2 L325.2,360.8 L326.1,360.5 L326.9,361.3 L327.8,362.6 L328.6,364.1 L329.4,365.4 L330.3,366.2 L331.1,370.1 L332.0,372.4 L332.8,371.9 L333.7,372.4 L334.5,372.7 L335.3,372.7 L336.2,372.4 L337.0,372.7 L337.9,372.4 L338.7,372.4 L339.6,371.1 L340.4,365.2 L341.2,363.3 L342.1,362.8 L342.9,362.6 L343.8,362.8 L344.6,362.8 L345.4,363.1 L346.3,363.1 L347.1,362.8 L348.0,363.1 L348.8,362.6 L349.7,362.8 L350.5,362.8 L351.3,363.1 L352.2,362.6 L353.0,362.8 L353.9,361.5 L354.7,360.0 L355.6,358.4 L356.4,357.1 L357.2,356.3 L358.1,355.3 L358.9,353.2 L359.8,352.2 L360.6,350.9 L361.5,349.8 L362.3,349.6 L363.1,348.8 L364.0,347.5 L364.8,346.5 L365.7,345.4 L366.5,344.4 L367.4,343.1 L368.2,343.3 L369.0,343.9 L369.9,344.1 L370.7,344.6 L371.6,344.9 L372.4,344.9 L373.3,345.4 L374.1,345.4 L374.9,345.2 L375.8,345.4 L376.6,344.1 L377.5,344.1 L378.3,342.8 L379.2,343.1 L380.0,341.8 L380.8,342.3 L381.7,342.0 L382.5,341.5 L383.4,341.8 L384.2,341.3 L385.1,341.0 L385.9,341.5 L386.7,341.0 L387.6,341.3 L388.4,341.5 L389.3,341.8 L390.1,341.8 L391.0,341.8 L391.8,341.8 L392.6,341.5 L393.5,342.0 L394.3,342.6 L395.2,343.3 L396.0,344.1 L396.9,343.9 L397.7,344.1 L398.5,344.4 L399.4,344.1 L400.2,343.6 L401.1,342.6 L401.9,342.3 L402.8,341.8 L403.6,342.0 L404.4,342.0 L405.3,342.0 L406.1,342.3 L407.0,341.5 L407.8,341.8 L408.7,342.3 L409.5,342.6 L410.3,343.3 L411.2,343.9 L412.0,343.6 L412.9,344.1 L413.7,344.4 L414.6,344.6 L415.4,344.9 L416.2,344.6 L417.1,344.9 L417.9,345.2 L418.8,345.2 L419.6,345.2 L420.4,344.6 L421.3,346.2 L422.1,346.7 L423.0,346.5 L423.8,346.5 L424.7,347.8 L425.5,349.1 L426.3,349.1 L427.2,349.8 L428.0,349.6 L428.9,349.6 L429.7,349.6 L430.6,350.1 L431.4,349.3 L432.2,349.3 L433.1,349.3 L433.9,349.3 L434.8,348.8 L435.6,348.8 L436.5,349.1 L437.3,349.1 L438.1,348.8 L439.0,349.1 L439.8,348.8 L440.7,348.8 L441.5,349.1 L442.4,349.1 L443.2,348.8 L444.0,349.1 L444.9,348.8 L445.7,348.8 L446.6,348.0 L447.4,348.0 L448.3,348.0 L449.1,348.0 L449.9,347.2 L450.8,347.8 L451.6,347.8 L452.5,347.8 L453.3,347.8 L454.2,348.0 L455.0,347.8 L455.8,347.5 L456.7,347.5 L457.5,347.8 L458.4,348.0 L459.2,347.8 L460.1,348.0 L460.9,347.8 L461.7,348.0 L462.6,347.8 L463.4,348.5 L464.3,348.8 L465.1,349.8 L466.0,349.8 L466.8,349.1 L467.6,350.9 L468.5,350.9 L469.3,350.4 L470.2,350.4 L471.0,350.4 L471.9,350.4 L472.7,349.3 L473.5,350.1 L474.4,349.6 L475.2,350.1 L476.1,350.1 L476.9,349.3 L477.8,349.6 L478.6,349.8 L479.4,349.8 L480.3,349.6 L481.1,349.1 L482.0,349.8 L482.8,349.6 L483.7,350.1 L484.5,349.8 L485.3,349.1 L486.2,348.8 L487.0,348.5 L487.9,348.8 L488.7,348.8 L489.6,348.5 L490.4,348.5 L491.2,348.3 L492.1,349.1 L492.9,349.1 L493.8,348.8 L494.6,350.4 L495.4,350.1 L496.3,349.3 L497.1,349.3 L498.0,349.3 L498.8,350.1 L499.7,349.8 L500.5,349.6 L501.3,350.1 L502.2,349.8 L503.0,350.1 L503.9,350.4 L504.7,350.4 L505.6,350.4 L506.4,350.1 L507.2,350.4 L508.1,350.4 L508.9,351.4 L509.8,351.9 L510.6,351.9 L511.5,352.2 L512.3,352.2 L513.1,352.4 L514.0,352.2 L514.8,353.7 L515.7,353.7 L516.5,353.7 L517.4,354.3 L518.2,353.7 L519.0,354.3 L519.9,354.0 L520.7,354.0 L521.6,354.3 L522.4,354.0 L523.3,353.5 L524.1,353.0 L524.9,353.2 L525.8,353.0 L526.6,353.0 L527.5,353.2 L528.3,353.2 L529.2,353.5 L530.0,353.0 L530.8,353.0 L531.7,353.0 L532.5,353.5 L533.4,353.7 L534.2,353.7 L535.1,353.2 L535.9,353.0 L536.7,353.7 L537.6,353.0 L538.4,353.0 L539.3,353.5 L540.1,353.2 L541.0,353.7 L541.8,353.5 L542.6,354.0 L543.5,354.0 L544.3,353.7 L545.2,354.5 L546.0,355.0 L546.9,355.3 L547.7,355.3 L548.5,354.8 L549.4,355.0 L550.2,354.8 L551.1,354.5 L551.9,354.5 L552.8,354.5 L553.6,354.5 L554.4,354.3 L555.3,354.8 L556.1,354.5 L557.0,354.8 L557.8,355.3 L558.7,354.5 L559.5,355.6 L560.3,356.3 L561.2,356.1 L562.0,356.1 L562.9,355.8 L563.7,356.6 L564.6,355.8 L565.4,356.1 L566.2,356.1 L567.1,356.3 L567.9,356.1 L568.8,355.6 L569.6,355.3 L570.4,355.3 L571.3,355.3 L572.1,355.3 L573.0,355.6 L573.8,354.8 L574.7,353.5 L575.5,354.8 L576.3,354.5 L577.2,356.1 L578.0,357.6 L578.9,358.7 L579.7,357.9 L580.6,356.3 L581.4,356.3 L582.2,354.5 L583.1,354.5 L583.9,353.7 L584.8,354.0 L585.6,354.0 L586.5,354.3 L587.3,353.7 L588.1,354.0 L589.0,353.2 L589.8,353.2 L590.7,353.7 L591.5,353.5 L592.4,353.2 L593.2,353.0 L594.0,353.0 L594.9,352.2 L595.7,351.1 L596.6,351.9 L597.4,350.6 L598.3,350.9 L599.1,350.6 L599.9,351.4 L600.8,351.7 L601.6,351.9 L602.5,351.4 L603.3,353.0 L604.2,352.7 L605.0,352.4 L605.8,353.0 L606.7,354.0 L607.5,354.0 L608.4,353.5 L609.2,353.5 L610.1,352.2 L610.9,352.2 L611.7,352.4 L612.6,352.4 L613.4,351.7 L614.3,350.9 L615.1,350.6 L616.0,350.1 L616.8,349.8 L617.6,350.1 L618.5,349.6 L619.3,350.4 L620.2,350.6 L621.0,350.6 L621.9,350.6 L622.7,350.4 L623.5,351.4 L624.4,351.1 L625.2,352.4 L626.1,352.2 L626.9,350.4 L627.8,350.6 L628.6,350.9 L629.4,351.1 L630.3,350.6 L631.1,350.6 L632.0,350.6 L632.8,349.3 L633.7,349.1 L634.5,347.8 L635.3,347.2 L636.2,349.1 L637.0,349.1 L637.9,349.8 L638.7,349.8 L639.6,350.1 L640.4,350.4 L641.2,350.4 L642.1,351.7 L642.9,352.2 L643.8,351.7 L644.6,352.4 L645.4,352.7 L646.3,352.4 L647.1,354.3 L648.0,353.2 L648.8,352.2 L649.7,351.7 L650.5,350.9 L651.3,351.1 L652.2,350.9 L653.0,350.6 L653.9,350.4 L654.7,350.6 L655.6,351.1 L656.4,350.9 L657.2,351.1 L658.1,350.9 L658.9,351.1 L659.8,350.9 L660.6,350.9 L661.5,350.9 L662.3,350.9 L663.1,350.9 L664.0,350.6 L664.8,350.9 L665.7,351.1 L666.5,351.4 L667.4,350.4 L668.2,350.1 L669.0,350.4 L669.9,349.8 L670.7,350.4 L671.6,349.6 L672.4,351.1 L673.3,350.9 L674.1,350.9 L674.9,350.9 L675.8,350.4 L676.6,351.9 L677.5,351.7 L678.3,351.4 L679.2,351.7 L680.0,351.9" stroke="#ff7f0e" stroke-width="2" fill="none" opacity="0.8"/>
<!-- Thermal Generation -->
<path d="M80.0,366.2 L80.8,365.2 L81.7,379.2 L82.5,379.7 L83.4,379.2 L84.2,379.2 L85.1,379.2 L85.9,379.7 L86.7,380.0 L87.6,380.0 L88.4,379.5 L89.3,380.0 L90.1,379.2 L91.0,380.0 L91.8,361.3 L92.6,361.8 L93.5,384.1 L94.3,361.0 L95.2,367.0 L96.0,367.5 L96.9,420.0 L97.7,420.0 L98.5,410.9 L99.4,411.4 L100.2,411.4 L101.1,409.3 L101.9,408.8 L102.8,401.8 L103.6,400.3 L104.4,404.4 L105.3,404.9 L106.1,404.9 L107.0,404.9 L107.8,404.7 L108.7,404.9 L109.5,404.7 L110.3,404.1 L111.2,404.4 L112.0,403.9 L112.9,404.4 L113.7,404.4 L114.6,398.7 L115.4,398.2 L116.2,400.3 L117.1,397.7 L117.9,397.7 L118.8,399.7 L119.6,393.2 L120.4,392.7 L121.3,394.3 L122.1,399.2 L123.0,399.2 L123.8,399.7 L124.7,404.9 L125.5,396.1 L126.3,395.1 L127.2,396.6 L128.0,396.6 L128.9,396.9 L129.7,396.9 L130.6,384.1 L131.4,373.2 L132.2,370.6 L133.1,357.9 L133.9,358.9 L134.8,356.3 L135.6,354.5 L136.5,364.6 L137.3,347.8 L138.1,341.8 L139.0,341.8 L139.8,342.0 L140.7,343.1 L141.5,344.1 L142.4,343.6 L143.2,371.4 L144.0,346.7 L144.9,356.3 L145.7,386.5 L146.6,386.2 L147.4,386.5 L148.3,386.7 L149.1,386.2 L149.9,373.7 L150.8,374.5 L151.6,369.1 L152.5,360.5 L153.3,359.2 L154.2,357.1 L155.0,370.9 L155.8,373.2 L156.7,375.6 L157.5,375.6 L158.4,357.4 L159.2,343.1 L160.1,358.7 L160.9,362.6 L161.7,357.9 L162.6,340.5 L163.4,366.5 L164.3,359.7 L165.1,370.9 L166.0,376.1 L166.8,376.1 L167.6,376.3 L168.5,369.8 L169.3,369.3 L170.2,360.2 L171.0,360.0 L171.9,362.0 L172.7,342.3 L173.5,346.7 L174.4,351.4 L175.2,350.6 L176.1,345.2 L176.9,349.1 L177.8,349.6 L178.6,327.0 L179.4,327.0 L180.3,332.7 L181.1,330.1 L182.0,342.6 L182.8,342.6 L183.7,342.3 L184.5,344.6 L185.3,352.4 L186.2,365.9 L187.0,381.5 L187.9,381.8 L188.7,382.3 L189.6,377.1 L190.4,366.2 L191.2,367.0 L192.1,360.8 L192.9,354.5 L193.8,345.2 L194.6,345.7 L195.4,357.4 L196.3,357.1 L197.1,367.0 L198.0,366.7 L198.8,355.6 L199.7,344.9 L200.5,332.4 L201.3,322.5 L202.2,325.1 L203.0,333.5 L203.9,352.7 L204.7,352.2 L205.6,353.0 L206.4,352.7 L207.2,351.9 L208.1,367.5 L208.9,355.0 L209.8,349.8 L210.6,350.4 L211.5,350.6 L212.3,351.9 L213.1,355.6 L214.0,351.9 L214.8,364.9 L215.7,371.9 L216.5,373.0 L217.4,351.1 L218.2,351.1 L219.0,351.4 L219.9,353.0 L220.7,351.1 L221.6,368.0 L222.4,350.9 L223.3,372.4 L224.1,373.0 L224.9,371.4 L225.8,371.7 L226.6,369.6 L227.5,371.7 L228.3,372.2 L229.2,371.7 L230.0,371.9 L230.8,352.2 L231.7,350.1 L232.5,350.1 L233.4,349.8 L234.2,350.4 L235.1,350.6 L235.9,353.0 L236.7,353.0 L237.6,367.8 L238.4,350.4 L239.3,350.6 L240.1,350.6 L241.0,371.4 L241.8,371.4 L242.6,371.9 L243.5,371.4 L244.3,371.4 L245.2,371.7 L246.0,371.7 L246.9,376.3 L247.7,389.1 L248.5,395.3 L249.4,395.3 L250.2,395.1 L251.1,395.1 L251.9,396.1 L252.8,395.6 L253.6,394.3 L254.4,394.8 L255.3,394.8 L256.1,395.6 L257.0,395.6 L257.8,395.3 L258.7,395.1 L259.5,394.8 L260.3,395.3 L261.2,394.8 L262.0,394.5 L262.9,394.8 L263.7,395.6 L264.6,395.1 L265.4,394.8 L266.2,394.8 L267.1,395.6 L267.9,395.3 L268.8,395.3 L269.6,394.8 L270.4,394.8 L271.3,395.3 L272.1,394.8 L273.0,395.3 L273.8,394.8 L274.7,395.1 L275.5,395.3 L276.3,395.8 L277.2,395.3 L278.0,395.6 L278.9,395.6 L279.7,394.8 L280.6,386.0 L281.4,388.0 L282.2,395.1 L283.1,393.8 L283.9,394.3 L284.8,394.0 L285.6,394.3 L286.5,394.5 L287.3,394.8 L288.1,394.5 L289.0,394.5 L289.8,394.8 L290.7,394.5 L291.5,394.5 L292.4,395.1 L293.2,394.8 L294.0,395.6 L294.9,395.1 L295.7,394.8 L296.6,394.8 L297.4,394.5 L298.3,394.3 L299.1,394.8 L299.9,395.1 L300.8,382.8 L301.6,382.1 L302.5,379.5 L303.3,373.5 L304.2,374.5 L305.0,382.8 L305.8,380.8 L306.7,383.1 L307.5,395.1 L308.4,394.5 L309.2,394.5 L310.1,395.3 L310.9,389.6 L311.7,371.7 L312.6,352.4 L313.4,372.4 L314.3,369.6 L315.1,386.0 L316.0,394.3 L316.8,395.3 L317.6,395.3 L318.5,395.1 L319.3,395.1 L320.2,389.6 L321.0,352.2 L321.9,350.4 L322.7,353.0 L323.5,350.1 L324.4,368.3 L325.2,354.0 L326.1,386.5 L326.9,386.0 L327.8,378.7 L328.6,380.2 L329.4,371.1 L330.3,371.4 L331.1,361.3 L332.0,325.9 L332.8,321.5 L333.7,361.8 L334.5,361.3 L335.3,358.7 L336.2,359.5 L337.0,362.0 L337.9,365.7 L338.7,364.1 L339.6,365.2 L340.4,324.1 L341.2,324.9 L342.1,354.3 L342.9,349.8 L343.8,357.6 L344.6,357.1 L345.4,357.1 L346.3,365.2 L347.1,367.5 L348.0,365.9 L348.8,366.5 L349.7,366.5 L350.5,366.2 L351.3,366.2 L352.2,367.0 L353.0,354.5 L353.9,350.6 L354.7,362.3 L355.6,344.9 L356.4,349.1 L357.2,362.3 L358.1,321.8 L358.9,353.0 L359.8,350.9 L360.6,300.5 L361.5,301.2 L362.3,316.3 L363.1,303.8 L364.0,302.8 L364.8,304.9 L365.7,325.9 L366.5,336.6 L367.4,336.8 L368.2,337.6 L369.0,337.9 L369.9,337.9 L370.7,342.8 L371.6,337.4 L372.4,336.8 L373.3,340.5 L374.1,341.8 L374.9,343.1 L375.8,343.1 L376.6,342.8 L377.5,343.1 L378.3,335.3 L379.2,337.1 L380.0,302.8 L380.8,298.6 L381.7,304.4 L382.5,307.0 L383.4,329.8 L384.2,337.4 L385.1,337.1 L385.9,336.6 L386.7,336.6 L387.6,334.5 L388.4,368.0 L389.3,369.1 L390.1,361.5 L391.0,354.8 L391.8,351.4 L392.6,342.3 L393.5,342.6 L394.3,340.7 L395.2,324.9 L396.0,320.2 L396.9,317.1 L397.7,317.6 L398.5,322.0 L399.4,330.1 L400.2,338.7 L401.1,327.2 L401.9,299.4 L402.8,342.0 L403.6,341.5 L404.4,341.5 L405.3,348.3 L406.1,347.8 L407.0,354.3 L407.8,361.0 L408.7,361.3 L409.5,361.8 L410.3,361.5 L411.2,362.3 L412.0,362.0 L412.9,348.8 L413.7,337.1 L414.6,341.5 L415.4,341.3 L416.2,341.0 L417.1,349.8 L417.9,362.8 L418.8,363.1 L419.6,362.0 L420.4,358.2 L421.3,334.8 L422.1,335.0 L423.0,338.1 L423.8,342.0 L424.7,342.3 L425.5,342.3 L426.3,347.0 L427.2,353.2 L428.0,358.4 L428.9,352.4 L429.7,358.9 L430.6,358.9 L431.4,349.1 L432.2,342.3 L433.1,341.5 L433.9,340.7 L434.8,342.0 L435.6,341.5 L436.5,341.5 L437.3,340.5 L438.1,342.6 L439.0,341.3 L439.8,341.8 L440.7,342.3 L441.5,338.9 L442.4,338.9 L443.2,341.3 L444.0,341.8 L444.9,344.4 L445.7,341.3 L446.6,350.9 L447.4,351.1 L448.3,349.6 L449.1,351.4 L449.9,351.1 L450.8,356.1 L451.6,356.1 L452.5,356.1 L453.3,356.1 L454.2,355.3 L455.0,355.3 L455.8,355.0 L456.7,348.0 L457.5,347.8 L458.4,362.3 L459.2,362.3 L460.1,356.3 L460.9,347.5 L461.7,342.6 L462.6,340.7 L463.4,333.7 L464.3,334.5 L465.1,342.0 L466.0,342.0 L466.8,337.1 L467.6,342.0 L468.5,347.8 L469.3,356.1 L470.2,361.8 L471.0,362.0 L471.9,362.0 L472.7,351.4 L473.5,342.0 L474.4,342.6 L475.2,341.8 L476.1,342.8 L476.9,343.1 L477.8,354.3 L478.6,354.3 L479.4,374.3 L480.3,374.3 L481.1,373.7 L482.0,361.5 L482.8,340.5 L483.7,337.4 L484.5,342.3 L485.3,342.3 L486.2,342.0 L487.0,349.6 L487.9,349.6 L488.7,369.6 L489.6,380.2 L490.4,380.2 L491.2,380.0 L492.1,380.2 L492.9,380.0 L493.8,369.6 L494.6,320.2 L495.4,349.3 L496.3,349.1 L497.1,344.1 L498.0,342.3 L498.8,342.8 L499.7,343.1 L500.5,342.8 L501.3,342.8 L502.2,342.6 L503.0,322.8 L503.9,320.5 L504.7,337.4 L505.6,340.0 L506.4,348.0 L507.2,356.3 L508.1,379.5 L508.9,379.7 L509.8,379.5 L510.6,380.2 L511.5,380.5 L512.3,380.0 L513.1,379.5 L514.0,319.7 L514.8,322.3 L515.7,348.8 L516.5,364.4 L517.4,372.2 L518.2,372.2 L519.0,380.0 L519.9,380.0 L520.7,380.0 L521.6,380.0 L522.4,371.9 L523.3,356.9 L524.1,356.6 L524.9,356.3 L525.8,349.8 L526.6,341.3 L527.5,346.5 L528.3,347.5 L529.2,347.2 L530.0,374.0 L530.8,373.5 L531.7,373.7 L532.5,371.1 L533.4,370.9 L534.2,351.9 L535.1,297.9 L535.9,332.7 L536.7,341.8 L537.6,342.3 L538.4,342.0 L539.3,356.3 L540.1,364.1 L541.0,371.9 L541.8,371.9 L542.6,363.3 L543.5,338.7 L544.3,336.3 L545.2,338.9 L546.0,341.3 L546.9,349.8 L547.7,362.0 L548.5,368.8 L549.4,368.5 L550.2,368.3 L551.1,343.6 L551.9,333.7 L552.8,331.4 L553.6,320.7 L554.4,301.8 L555.3,299.4 L556.1,342.3 L557.0,287.2 L557.8,288.0 L558.7,308.0 L559.5,318.4 L560.3,323.6 L561.2,328.5 L562.0,328.5 L562.9,319.2 L563.7,272.4 L564.6,283.6 L565.4,305.4 L566.2,292.7 L567.1,305.1 L567.9,322.5 L568.8,327.7 L569.6,309.8 L570.4,290.6 L571.3,311.1 L572.1,288.2 L573.0,285.4 L573.8,277.9 L574.7,259.7 L575.5,267.5 L576.3,299.9 L577.2,315.3 L578.0,330.1 L578.9,340.7 L579.7,356.1 L580.6,355.8 L581.4,366.2 L582.2,367.5 L583.1,361.3 L583.9,315.8 L584.8,329.3 L585.6,318.1 L586.5,318.4 L587.3,343.6 L588.1,343.6 L589.0,283.0 L589.8,278.9 L590.7,357.9 L591.5,363.6 L592.4,351.4 L593.2,332.9 L594.0,319.4 L594.9,321.8 L595.7,291.4 L596.6,329.8 L597.4,343.6 L598.3,353.2 L599.1,359.2 L599.9,364.4 L600.8,364.6 L601.6,364.1 L602.5,365.2 L603.3,332.7 L604.2,253.4 L605.0,245.6 L605.8,243.3 L606.7,268.2 L607.5,245.6 L608.4,317.4 L609.2,342.6 L610.1,363.9 L610.9,363.9 L611.7,364.4 L612.6,331.6 L613.4,324.1 L614.3,311.6 L615.1,309.0 L616.0,301.5 L616.8,332.2 L617.6,330.9 L618.5,327.7 L619.3,340.5 L620.2,345.7 L621.0,356.1 L621.9,356.1 L622.7,356.6 L623.5,354.3 L624.4,314.2 L625.2,314.5 L626.1,318.9 L626.9,328.8 L627.8,361.5 L628.6,361.5 L629.4,356.6 L630.3,361.5 L631.1,361.8 L632.0,361.5 L632.8,362.0 L633.7,361.8 L634.5,356.6 L635.3,299.2 L636.2,290.6 L637.0,311.6 L637.9,314.0 L638.7,348.5 L639.6,363.9 L640.4,364.1 L641.2,363.9 L642.1,363.9 L642.9,364.1 L643.8,362.0 L644.6,301.8 L645.4,317.4 L646.3,317.4 L647.1,291.9 L648.0,291.9 L648.8,317.9 L649.7,317.6 L650.5,332.7 L651.3,333.2 L652.2,317.6 L653.0,333.2 L653.9,348.8 L654.7,348.8 L655.6,287.2 L656.4,275.8 L657.2,318.7 L658.1,351.4 L658.9,364.4 L659.8,361.8 L660.6,364.4 L661.5,364.6 L662.3,364.9 L663.1,364.6 L664.0,349.3 L664.8,291.9 L665.7,290.1 L666.5,332.7 L667.4,332.4 L668.2,348.3 L669.0,361.0 L669.9,358.9 L670.7,364.4 L671.6,364.4 L672.4,364.1 L673.3,363.9 L674.1,363.9 L674.9,363.3 L675.8,363.9 L676.6,333.7 L677.5,333.5 L678.3,333.5 L679.2,365.2 L680.0,364.9" stroke="#2ca02c" stroke-width="2" fill="none" opacity="0.8"/>
<!-- Solar Generation -->
<path d="M80.0,420.0 L80.8,420.0 L81.7,420.0 L82.5,420.0 L83.4,420.0 L84.2,420.0 L85.1,420.0 L85.9,420.0 L86.7,420.0 L87.6,420.0 L88.4,420.0 L89.3,420.0 L90.1,420.0 L91.0,419.5 L91.8,419.0 L92.6,417.7 L93.5,417.9 L94.3,417.4 L95.2,410.9 L96.0,411.4 L96.9,418.7 L97.7,420.0 L98.5,420.0 L99.4,420.0 L100.2,420.0 L101.1,420.0 L101.9,420.0 L102.8,420.0 L103.6,420.0 L104.4,420.0 L105.3,420.0 L106.1,420.0 L107.0,420.0 L107.8,420.0 L108.7,420.0 L109.5,420.0 L110.3,420.0 L111.2,419.2 L112.0,417.7 L112.9,416.6 L113.7,415.6 L114.6,416.9 L115.4,416.6 L116.2,417.7 L117.1,419.2 L117.9,420.0 L118.8,420.0 L119.6,420.0 L120.4,420.0 L121.3,420.0 L122.1,420.0 L123.0,420.0 L123.8,420.0 L124.7,420.0 L125.5,420.0 L126.3,420.0 L127.2,420.0 L128.0,420.0 L128.9,420.0 L129.7,420.0 L130.6,420.0 L131.4,417.4 L132.2,415.8 L133.1,410.6 L133.9,414.3 L134.8,414.5 L135.6,416.9 L136.5,416.4 L137.3,419.2 L138.1,420.0 L139.0,420.0 L139.8,420.0 L140.7,420.0 L141.5,420.0 L142.4,420.0 L143.2,420.0 L144.0,420.0 L144.9,420.0 L145.7,420.0 L146.6,420.0 L147.4,420.0 L148.3,420.0 L149.1,420.0 L149.9,420.0 L150.8,420.0 L151.6,417.9 L152.5,406.5 L153.3,404.7 L154.2,404.4 L155.0,403.6 L155.8,402.6 L156.7,410.4 L157.5,415.8 L158.4,420.0 L159.2,420.0 L160.1,420.0 L160.9,420.0 L161.7,420.0 L162.6,420.0 L163.4,420.0 L164.3,420.0 L165.1,420.0 L166.0,420.0 L166.8,420.0 L167.6,420.0 L168.5,420.0 L169.3,420.0 L170.2,420.0 L171.0,420.0 L171.9,419.2 L172.7,417.7 L173.5,416.1 L174.4,414.0 L175.2,413.8 L176.1,416.4 L176.9,417.4 L177.8,419.0 L178.6,420.0 L179.4,420.0 L180.3,420.0 L181.1,420.0 L182.0,420.0 L182.8,420.0 L183.7,420.0 L184.5,420.0 L185.3,420.0 L186.2,420.0 L187.0,420.0 L187.9,420.0 L188.7,420.0 L189.6,420.0 L190.4,420.0 L191.2,420.0 L192.1,419.5 L192.9,417.4 L193.8,413.5 L194.6,412.5 L195.4,407.5 L196.3,405.4 L197.1,414.3 L198.0,416.9 L198.8,420.0 L199.7,420.0 L200.5,420.0 L201.3,420.0 L202.2,420.0 L203.0,420.0 L203.9,420.0 L204.7,420.0 L205.6,420.0 L206.4,420.0 L207.2,420.0 L208.1,420.0 L208.9,420.0 L209.8,420.0 L210.6,420.0 L211.5,420.0 L212.3,417.9 L213.1,409.3 L214.0,413.0 L214.8,411.9 L215.7,408.3 L216.5,411.9 L217.4,414.3 L218.2,417.4 L219.0,420.0 L219.9,420.0 L220.7,420.0 L221.6,420.0 L222.4,420.0 L223.3,420.0 L224.1,420.0 L224.9,420.0 L225.8,420.0 L226.6,420.0 L227.5,420.0 L228.3,420.0 L229.2,420.0 L230.0,420.0 L230.8,420.0 L231.7,420.0 L232.5,418.7 L233.4,414.5 L234.2,409.3 L235.1,408.3 L235.9,411.4 L236.7,408.0 L237.6,411.2 L238.4,418.4 L239.3,420.0 L240.1,420.0 L241.0,420.0 L241.8,420.0 L242.6,420.0 L243.5,420.0 L244.3,420.0 L245.2,420.0 L246.0,420.0 L246.9,420.0 L247.7,420.0 L248.5,420.0 L249.4,420.0 L250.2,420.0 L251.1,420.0 L251.9,420.0 L252.8,419.5 L253.6,403.9 L254.4,414.8 L255.3,405.4 L256.1,410.9 L257.0,410.4 L257.8,410.4 L258.7,416.6 L259.5,420.0 L260.3,420.0 L261.2,420.0 L262.0,420.0 L262.9,420.0 L263.7,420.0 L264.6,420.0 L265.4,420.0 L266.2,420.0 L267.1,420.0 L267.9,420.0 L268.8,420.0 L269.6,420.0 L270.4,420.0 L271.3,420.0 L272.1,420.0 L273.0,420.0 L273.8,409.3 L274.7,410.6 L275.5,411.9 L276.3,414.5 L277.2,411.2 L278.0,410.6 L278.9,415.3 L279.7,420.0 L280.6,420.0 L281.4,420.0 L282.2,420.0 L283.1,420.0 L283.9,420.0 L284.8,420.0 L285.6,420.0 L286.5,420.0 L287.3,420.0 L288.1,420.0 L289.0,420.0 L289.8,420.0 L290.7,420.0 L291.5,420.0 L292.4,420.0 L293.2,419.5 L294.0,410.6 L294.9,417.9 L295.7,417.4 L296.6,417.1 L297.4,416.9 L298.3,417.9 L299.1,418.4 L299.9,419.7 L300.8,420.0 L301.6,420.0 L302.5,420.0 L303.3,420.0 L304.2,420.0 L305.0,420.0 L305.8,420.0 L306.7,420.0 L307.5,420.0 L308.4,420.0 L309.2,420.0 L310.1,420.0 L310.9,420.0 L311.7,420.0 L312.6,420.0 L313.4,415.3 L314.3,398.4 L315.1,399.0 L316.0,402.1 L316.8,402.3 L317.6,399.0 L318.5,396.6 L319.3,409.6 L320.2,419.5 L321.0,420.0 L321.9,420.0 L322.7,420.0 L323.5,420.0 L324.4,420.0 L325.2,420.0 L326.1,420.0 L326.9,420.0 L327.8,420.0 L328.6,420.0 L329.4,420.0 L330.3,420.0 L331.1,420.0 L332.0,420.0 L332.8,420.0 L333.7,415.6 L334.5,397.9 L335.3,399.0 L336.2,402.1 L337.0,404.1 L337.9,402.6 L338.7,400.0 L339.6,410.6 L340.4,419.7 L341.2,420.0 L342.1,420.0 L342.9,420.0 L343.8,420.0 L344.6,420.0 L345.4,420.0 L346.3,420.0 L347.1,420.0 L348.0,420.0 L348.8,420.0 L349.7,420.0 L350.5,420.0 L351.3,420.0 L352.2,420.0 L353.0,420.0 L353.9,415.6 L354.7,398.7 L355.6,400.0 L356.4,402.1 L357.2,402.3 L358.1,399.2 L358.9,398.7 L359.8,409.3 L360.6,419.7 L361.5,420.0 L362.3,420.0 L363.1,420.0 L364.0,420.0 L364.8,420.0 L365.7,420.0 L366.5,420.0 L367.4,420.0 L368.2,420.0 L369.0,420.0 L369.9,420.0 L370.7,420.0 L371.6,420.0 L372.4,420.0 L373.3,420.0 L374.1,415.1 L374.9,399.2 L375.8,399.5 L376.6,401.3 L377.5,402.8 L378.3,398.4 L379.2,405.4 L380.0,414.8 L380.8,419.7 L381.7,420.0 L382.5,420.0 L383.4,420.0 L384.2,420.0 L385.1,420.0 L385.9,420.0 L386.7,420.0 L387.6,420.0 L388.4,420.0 L389.3,420.0 L390.1,420.0 L391.0,420.0 L391.8,420.0 L392.6,420.0 L393.5,420.0 L394.3,418.4 L395.2,409.1 L396.0,408.6 L396.9,410.1 L397.7,412.5 L398.5,411.7 L399.4,415.1 L400.2,417.9 L401.1,420.0 L401.9,420.0 L402.8,420.0 L403.6,420.0 L404.4,420.0 L405.3,420.0 L406.1,420.0 L407.0,420.0 L407.8,420.0 L408.7,420.0 L409.5,420.0 L410.3,420.0 L411.2,420.0 L412.0,420.0 L412.9,420.0 L413.7,420.0 L414.6,418.7 L415.4,416.4 L416.2,413.2 L417.1,410.4 L417.9,413.0 L418.8,406.2 L419.6,415.1 L420.4,418.2 L421.3,419.7 L422.1,420.0 L423.0,420.0 L423.8,420.0 L424.7,420.0 L425.5,420.0 L426.3,420.0 L427.2,420.0 L428.0,420.0 L428.9,420.0 L429.7,420.0 L430.6,420.0 L431.4,420.0 L432.2,420.0 L433.1,420.0 L433.9,420.0 L434.8,416.9 L435.6,402.3 L436.5,398.2 L437.3,402.1 L438.1,402.3 L439.0,402.6 L439.8,397.4 L440.7,413.2 L441.5,419.7 L442.4,420.0 L443.2,420.0 L444.0,420.0 L444.9,420.0 L445.7,420.0 L446.6,420.0 L447.4,420.0 L448.3,420.0 L449.1,420.0 L449.9,420.0 L450.8,420.0 L451.6,420.0 L452.5,420.0 L453.3,420.0 L454.2,420.0 L455.0,416.4 L455.8,409.9 L456.7,410.9 L457.5,411.2 L458.4,410.9 L459.2,411.4 L460.1,413.5 L460.9,416.4 L461.7,419.7 L462.6,420.0 L463.4,420.0 L464.3,420.0 L465.1,420.0 L466.0,420.0 L466.8,420.0 L467.6,420.0 L468.5,420.0 L469.3,420.0 L470.2,420.0 L471.0,420.0 L471.9,420.0 L472.7,420.0 L473.5,420.0 L474.4,420.0 L475.2,419.2 L476.1,411.9 L476.9,405.2 L477.8,400.3 L478.6,402.6 L479.4,401.3 L480.3,396.4 L481.1,415.6 L482.0,419.7 L482.8,420.0 L483.7,420.0 L484.5,420.0 L485.3,420.0 L486.2,420.0 L487.0,420.0 L487.9,420.0 L488.7,420.0 L489.6,420.0 L490.4,420.0 L491.2,420.0 L492.1,420.0 L492.9,420.0 L493.8,420.0 L494.6,420.0 L495.4,418.4 L496.3,415.3 L497.1,412.7 L498.0,411.9 L498.8,413.2 L499.7,415.1 L500.5,416.1 L501.3,418.2 L502.2,419.7 L503.0,420.0 L503.9,420.0 L504.7,420.0 L505.6,420.0 L506.4,420.0 L507.2,420.0 L508.1,420.0 L508.9,420.0 L509.8,420.0 L510.6,420.0 L511.5,420.0 L512.3,420.0 L513.1,420.0 L514.0,420.0 L514.8,420.0 L515.7,415.3 L516.5,407.5 L517.4,408.6 L518.2,405.7 L519.0,407.0 L519.9,405.7 L520.7,402.8 L521.6,418.2 L522.4,419.7 L523.3,420.0 L524.1,420.0 L524.9,420.0 L525.8,420.0 L526.6,420.0 L527.5,420.0 L528.3,420.0 L529.2,420.0 L530.0,420.0 L530.8,420.0 L531.7,420.0 L532.5,420.0 L533.4,420.0 L534.2,420.0 L535.1,420.0 L535.9,419.0 L536.7,416.1 L537.6,411.9 L538.4,402.3 L539.3,404.1 L540.1,405.2 L541.0,403.6 L541.8,407.0 L542.6,419.5 L543.5,420.0 L544.3,420.0 L545.2,420.0 L546.0,420.0 L546.9,420.0 L547.7,420.0 L548.5,420.0 L549.4,420.0 L550.2,420.0 L551.1,420.0 L551.9,420.0 L552.8,420.0 L553.6,420.0 L554.4,420.0 L555.3,420.0 L556.1,417.1 L557.0,407.0 L557.8,409.9 L558.7,405.4 L559.5,408.0 L560.3,405.2 L561.2,415.3 L562.0,416.1 L562.9,419.7 L563.7,420.0 L564.6,420.0 L565.4,420.0 L566.2,420.0 L567.1,420.0 L567.9,420.0 L568.8,420.0 L569.6,420.0 L570.4,420.0 L571.3,420.0 L572.1,420.0 L573.0,420.0 L573.8,420.0 L574.7,420.0 L575.5,420.0 L576.3,417.4 L577.2,410.4 L578.0,407.8 L578.9,399.2 L579.7,401.0 L580.6,404.4 L581.4,406.5 L582.2,412.5 L583.1,419.5 L583.9,420.0 L584.8,420.0 L585.6,420.0 L586.5,420.0 L587.3,420.0 L588.1,420.0 L589.0,420.0 L589.8,420.0 L590.7,420.0 L591.5,420.0 L592.4,420.0 L593.2,420.0 L594.0,420.0 L594.9,420.0 L595.7,420.0 L596.6,414.8 L597.4,412.2 L598.3,416.1 L599.1,410.1 L599.9,412.5 L600.8,413.0 L601.6,410.9 L602.5,416.4 L603.3,419.5 L604.2,420.0 L605.0,420.0 L605.8,420.0 L606.7,420.0 L607.5,420.0 L608.4,420.0 L609.2,420.0 L610.1,420.0 L610.9,420.0 L611.7,420.0 L612.6,420.0 L613.4,420.0 L614.3,420.0 L615.1,420.0 L616.0,420.0 L616.8,419.0 L617.6,416.9 L618.5,408.6 L619.3,407.5 L620.2,401.0 L621.0,403.9 L621.9,416.4 L622.7,417.4 L623.5,419.2 L624.4,420.0 L625.2,420.0 L626.1,420.0 L626.9,420.0 L627.8,420.0 L628.6,420.0 L629.4,420.0 L630.3,420.0 L631.1,420.0 L632.0,420.0 L632.8,420.0 L633.7,420.0 L634.5,420.0 L635.3,420.0 L636.2,420.0 L637.0,418.4 L637.9,417.9 L638.7,416.1 L639.6,412.7 L640.4,408.8 L641.2,406.5 L642.1,406.2 L642.9,415.8 L643.8,419.2 L644.6,420.0 L645.4,420.0 L646.3,420.0 L647.1,420.0 L648.0,420.0 L648.8,420.0 L649.7,420.0 L650.5,420.0 L651.3,420.0 L652.2,420.0 L653.0,420.0 L653.9,420.0 L654.7,420.0 L655.6,420.0 L656.4,420.0 L657.2,414.5 L658.1,397.1 L658.9,397.4 L659.8,400.3 L660.6,401.0 L661.5,398.2 L662.3,395.6 L663.1,403.4 L664.0,418.2 L664.8,420.0 L665.7,420.0 L666.5,420.0 L667.4,420.0 L668.2,420.0 L669.0,420.0 L669.9,420.0 L670.7,420.0 L671.6,420.0 L672.4,420.0 L673.3,420.0 L674.1,420.0 L674.9,420.0 L675.8,420.0 L676.6,420.0 L677.5,413.8 L678.3,396.6 L679.2,396.9 L680.0,400.3" stroke="#d62728" stroke-width="2" fill="none" opacity="0.8"/>
<!-- Forecast -->
<path d="M80.0,179.6 L80.8,192.1 L81.7,199.9 L82.5,222.5 L83.4,236.3 L84.2,251.3 L85.1,259.4 L85.9,264.1 L86.7,265.6 L87.6,265.4 L88.4,253.4 L89.3,226.4 L90.1,201.5 L91.0,187.4 L91.8,183.5 L92.6,183.8 L93.5,185.9 L94.3,189.5 L95.2,192.1 L96.0,193.7 L96.9,193.4 L97.7,187.2 L98.5,173.1 L99.4,168.4 L100.2,173.1 L101.1,182.2 L101.9,196.8 L102.8,215.2 L103.6,239.1 L104.4,247.2 L105.3,253.4 L106.1,257.3 L107.0,258.6 L107.8,255.8 L108.7,243.5 L109.5,219.6 L110.3,191.3 L111.2,178.3 L112.0,177.8 L112.9,180.7 L113.7,183.8 L114.6,188.5 L115.4,191.8 L116.2,193.7 L117.1,193.7 L117.9,187.9 L118.8,175.2 L119.6,174.2 L120.4,177.0 L121.3,187.7 L122.1,204.3 L123.0,222.8 L123.8,226.9 L124.7,251.6 L125.5,260.2 L126.3,265.1 L127.2,266.7 L128.0,266.4 L128.9,254.5 L129.7,226.9 L130.6,202.0 L131.4,188.2 L132.2,185.1 L133.1,185.3 L133.9,187.7 L134.8,190.8 L135.6,193.7 L136.5,195.5 L137.3,195.2 L138.1,188.7 L139.0,174.9 L139.8,170.3 L140.7,174.2 L141.5,183.0 L142.4,197.3 L143.2,215.7 L144.0,234.2 L144.9,245.6 L145.7,252.6 L146.6,257.1 L147.4,259.4 L148.3,258.6 L149.1,254.5 L149.9,242.8 L150.8,226.4 L151.6,211.6 L152.5,203.0 L153.3,200.4 L154.2,201.5 L155.0,203.5 L155.8,208.2 L156.7,210.0 L157.5,209.2 L158.4,203.3 L159.2,189.5 L160.1,185.3 L160.9,187.7 L161.7,195.0 L162.6,206.1 L163.4,219.9 L164.3,240.2 L165.1,246.4 L166.0,252.6 L166.8,256.3 L167.6,258.9 L168.5,258.9 L169.3,255.8 L170.2,246.7 L171.0,231.9 L171.9,218.3 L172.7,207.7 L173.5,200.7 L174.4,203.8 L175.2,209.8 L176.1,212.9 L176.9,211.8 L177.8,210.0 L178.6,205.1 L179.4,192.1 L180.3,185.1 L181.1,194.4 L182.0,205.1 L182.8,211.3 L183.7,225.4 L184.5,238.4 L185.3,250.0 L186.2,257.6 L187.0,261.7 L187.9,263.6 L188.7,261.7 L189.6,249.5 L190.4,226.1 L191.2,199.4 L192.1,184.8 L192.9,182.7 L193.8,184.0 L194.6,186.9 L195.4,190.5 L196.3,193.7 L197.1,195.7 L198.0,196.0 L198.8,190.3 L199.7,177.3 L200.5,172.9 L201.3,176.0 L202.2,186.4 L203.0,202.8 L203.9,219.9 L204.7,238.1 L205.6,248.7 L206.4,254.7 L207.2,258.4 L208.1,260.4 L208.9,257.6 L209.8,245.6 L210.6,222.0 L211.5,195.2 L212.3,180.7 L213.1,179.6 L214.0,182.0 L214.8,184.6 L215.7,189.2 L216.5,192.6 L217.4,194.7 L218.2,195.0 L219.0,189.5 L219.9,176.8 L220.7,172.1 L221.6,175.7 L222.4,186.1 L223.3,202.2 L224.1,219.6 L224.9,223.5 L225.8,249.8 L226.6,256.8 L227.5,261.2 L228.3,262.8 L229.2,260.7 L230.0,249.0 L230.8,225.6 L231.7,199.4 L232.5,184.8 L233.4,182.7 L234.2,184.0 L235.1,186.6 L235.9,190.3 L236.7,193.7 L237.6,196.0 L238.4,196.5 L239.3,191.1 L240.1,178.3 L241.0,173.6 L241.8,177.0 L242.6,187.4 L243.5,203.0 L244.3,220.2 L245.2,239.9 L246.0,253.7 L246.9,260.4 L247.7,264.9 L248.5,262.3 L249.4,258.6 L250.2,254.5 L251.1,246.7 L251.9,237.8 L252.8,227.2 L253.6,215.7 L254.4,205.3 L255.3,204.6 L256.1,210.5 L257.0,212.9 L257.8,213.4 L258.7,211.1 L259.5,207.2 L260.3,191.6 L261.2,185.1 L262.0,193.4 L262.9,204.0 L263.7,209.8 L264.6,224.3 L265.4,236.3 L266.2,248.5 L267.1,256.0 L267.9,259.9 L268.8,262.0 L269.6,259.9 L270.4,248.0 L271.3,225.1 L272.1,198.1 L273.0,183.3 L273.8,181.2 L274.7,183.0 L275.5,185.6 L276.3,189.5 L277.2,192.6 L278.0,194.7 L278.9,194.7 L279.7,189.0 L280.6,175.5 L281.4,171.0 L282.2,174.7 L283.1,184.6 L283.9,199.6 L284.8,217.3 L285.6,234.2 L286.5,246.1 L287.3,253.4 L288.1,257.3 L289.0,259.9 L289.8,258.9 L290.7,254.2 L291.5,242.0 L292.4,225.4 L293.2,209.2 L294.0,199.6 L294.9,196.5 L295.7,197.0 L296.6,198.6 L297.4,203.3 L298.3,205.6 L299.1,205.1 L299.9,198.9 L300.8,185.1 L301.6,182.5 L302.5,185.9 L303.3,193.4 L304.2,204.8 L305.0,219.4 L305.8,236.8 L306.7,245.9 L307.5,246.9 L308.4,250.3 L309.2,253.9 L310.1,254.2 L310.9,251.1 L311.7,243.0 L312.6,228.5 L313.4,213.9 L314.3,203.0 L315.1,197.3 L316.0,197.6 L316.8,199.6 L317.6,203.8 L318.5,206.4 L319.3,206.4 L320.2,199.4 L321.0,184.6 L321.9,177.3 L322.7,184.0 L323.5,193.4 L324.4,203.0 L325.2,219.1 L326.1,223.0 L326.9,244.8 L327.8,251.1 L328.6,255.0 L329.4,256.8 L330.3,253.9 L331.1,242.3 L332.0,218.6 L332.8,191.8 L333.7,178.3 L334.5,177.8 L335.3,180.7 L336.2,183.5 L337.0,188.5 L337.9,191.8 L338.7,193.7 L339.6,193.7 L340.4,187.9 L341.2,174.4 L342.1,169.7 L342.9,174.2 L343.8,183.5 L344.6,198.3 L345.4,216.8 L346.3,235.5 L347.1,244.8 L348.0,252.9 L348.8,257.1 L349.7,258.9 L350.5,256.3 L351.3,244.3 L352.2,220.4 L353.0,193.7 L353.9,179.9 L354.7,179.1 L355.6,181.4 L356.4,184.3 L357.2,188.7 L358.1,192.1 L358.9,193.9 L359.8,193.7 L360.6,187.7 L361.5,174.4 L362.3,169.7 L363.1,174.2 L364.0,183.5 L364.8,198.3 L365.7,216.8 L366.5,235.5 L367.4,246.9 L368.2,252.9 L369.0,256.3 L369.9,257.8 L370.7,255.5 L371.6,243.3 L372.4,219.4 L373.3,191.8 L374.1,178.6 L374.9,178.3 L375.8,181.2 L376.6,184.3 L377.5,189.0 L378.3,192.4 L379.2,194.4 L380.0,194.2 L380.8,188.5 L381.7,174.7 L382.5,170.0 L383.4,173.9 L384.2,183.3 L385.1,198.3 L385.9,216.5 L386.7,374.5 L387.6,288.2 L388.4,383.1 L389.3,420.0 L390.1,420.0 L391.0,420.0 L391.8,420.0 L392.6,420.0 L393.5,420.0 L394.3,420.0 L395.2,420.0 L396.0,420.0 L396.9,420.0 L397.7,420.0 L398.5,420.0 L399.4,420.0 L400.2,420.0 L401.1,420.0 L401.9,420.0 L402.8,420.0 L403.6,420.0 L404.4,420.0 L405.3,420.0 L406.1,420.0 L407.0,281.0 L407.8,248.0 L408.7,254.7 L409.5,258.6 L410.3,260.7 L411.2,258.9 L412.0,246.9 L412.9,223.8 L413.7,196.8 L414.6,182.2 L415.4,180.4 L416.2,182.5 L417.1,185.6 L417.9,189.5 L418.8,193.1 L419.6,195.2 L420.4,195.7 L421.3,190.0 L422.1,177.8 L423.0,173.1 L423.8,176.2 L424.7,186.9 L425.5,203.3 L426.3,220.2 L427.2,224.1 L428.0,255.2 L428.9,260.2 L429.7,264.6 L430.6,268.0 L431.4,271.1 L432.2,268.5 L433.1,252.1 L433.9,235.2 L434.8,220.9 L435.6,214.7 L436.5,208.7 L437.3,209.5 L438.1,211.1 L439.0,217.3 L439.8,218.9 L440.7,217.8 L441.5,213.4 L442.4,203.3 L443.2,198.6 L444.0,199.1 L444.9,205.9 L445.7,216.3 L446.6,232.4 L447.4,242.5 L448.3,255.5 L449.1,261.2 L449.9,265.1 L450.8,262.5 L451.6,258.9 L452.5,254.7 L453.3,246.9 L454.2,238.9 L455.0,229.3 L455.8,218.3 L456.7,207.4 L457.5,198.3 L458.4,204.8 L459.2,210.3 L460.1,214.4 L460.9,212.9 L461.7,209.5 L462.6,193.7 L463.4,187.9 L464.3,193.4 L465.1,203.3 L466.0,210.5 L466.8,224.6 L467.6,236.8 L468.5,248.0 L469.3,255.0 L470.2,258.6 L471.0,260.2 L471.9,257.6 L472.7,245.4 L473.5,222.5 L474.4,195.2 L475.2,180.7 L476.1,179.4 L476.9,181.7 L477.8,184.6 L478.6,189.0 L479.4,192.1 L480.3,193.9 L481.1,193.9 L482.0,187.9 L482.8,174.9 L483.7,170.3 L484.5,174.2 L485.3,183.3 L486.2,198.3 L487.0,217.0 L487.9,376.3 L488.7,245.9 L489.6,256.3 L490.4,261.5 L491.2,262.8 L492.1,261.0 L492.9,248.7 L493.8,224.6 L494.6,197.8 L495.4,182.5 L496.3,179.9 L497.1,181.4 L498.0,184.0 L498.8,188.2 L499.7,191.1 L500.5,192.9 L501.3,192.6 L502.2,185.6 L503.0,171.6 L503.9,166.6 L504.7,170.3 L505.6,178.8 L506.4,192.1 L507.2,211.3 L508.1,230.8 L508.9,248.2 L509.8,257.1 L510.6,261.5 L511.5,263.0 L512.3,261.2 L513.1,249.0 L514.0,224.6 L514.8,197.8 L515.7,182.5 L516.5,179.9 L517.4,181.4 L518.2,184.0 L519.0,188.2 L519.9,191.3 L520.7,193.1 L521.6,192.6 L522.4,185.9 L523.3,171.8 L524.1,166.9 L524.9,170.5 L525.8,179.1 L526.6,192.4 L527.5,211.8 L528.3,216.3 L529.2,242.5 L530.0,249.0 L530.8,252.4 L531.7,253.7 L532.5,251.1 L533.4,239.1 L534.2,214.4 L535.1,186.9 L535.9,173.9 L536.7,174.2 L537.6,177.5 L538.4,180.7 L539.3,185.3 L540.1,189.0 L541.0,190.8 L541.8,190.0 L542.6,183.0 L543.5,168.4 L544.3,163.8 L545.2,166.6 L546.0,176.2 L546.9,189.5 L547.7,209.8 L548.5,233.4 L549.4,242.8 L550.2,249.0 L551.1,253.4 L551.9,254.7 L552.8,252.1 L553.6,240.4 L554.4,215.7 L555.3,187.9 L556.1,175.2 L557.0,175.2 L557.8,178.3 L558.7,181.2 L559.5,186.6 L560.3,190.0 L561.2,191.8 L562.0,191.8 L562.9,185.9 L563.7,172.9 L564.6,168.2 L565.4,172.9 L566.2,182.2 L567.1,197.3 L567.9,215.7 L568.8,239.1 L569.6,248.2 L570.4,254.2 L571.3,259.1 L572.1,262.0 L573.0,263.0 L573.8,259.7 L574.7,245.6 L575.5,228.7 L576.3,213.9 L577.2,206.6 L578.0,203.0 L578.9,204.6 L579.7,206.9 L580.6,213.1 L581.4,215.0 L582.2,213.7 L583.1,208.7 L583.9,197.6 L584.8,192.6 L585.6,193.4 L586.5,199.6 L587.3,210.5 L588.1,225.6 L589.0,240.2 L589.8,250.0 L590.7,255.8 L591.5,259.4 L592.4,259.7 L593.2,258.1 L594.0,253.9 L594.9,245.4 L595.7,233.7 L596.6,222.0 L597.4,211.6 L598.3,202.8 L599.1,197.6 L599.9,203.3 L600.8,208.5 L601.6,213.4 L602.5,211.3 L603.3,208.2 L604.2,192.1 L605.0,186.4 L605.8,190.0 L606.7,198.6 L607.5,209.0 L608.4,223.3 L609.2,239.9 L610.1,249.3 L610.9,255.5 L611.7,259.9 L612.6,261.7 L613.4,259.7 L614.3,247.7 L615.1,223.3 L616.0,197.3 L616.8,182.7 L617.6,180.9 L618.5,182.5 L619.3,185.6 L620.2,189.2 L621.0,192.6 L621.9,195.7 L622.7,196.8 L623.5,191.6 L624.4,180.7 L625.2,175.7 L626.1,177.5 L626.9,190.3 L627.8,198.1 L628.6,221.2 L629.4,227.2 L630.3,251.6 L631.1,259.1 L632.0,263.8 L632.8,265.4 L633.7,264.1 L634.5,252.4 L635.3,225.6 L636.2,199.9 L637.0,186.1 L637.9,183.5 L638.7,184.6 L639.6,187.4 L640.4,190.5 L641.2,193.7 L642.1,196.8 L642.9,198.1 L643.8,193.1 L644.6,181.7 L645.4,176.5 L646.3,177.8 L647.1,189.8 L648.0,198.3 L648.8,220.4 L649.7,238.9 L650.5,250.8 L651.3,256.8 L652.2,260.2 L653.0,261.5 L653.9,259.1 L654.7,246.9 L655.6,222.8 L656.4,195.0 L657.2,182.0 L658.1,181.2 L658.9,183.3 L659.8,186.9 L660.6,190.3 L661.5,193.9 L662.3,197.0 L663.1,198.1 L664.0,192.4 L664.8,180.7 L665.7,175.2 L666.5,176.8 L667.4,187.9 L668.2,195.7 L669.0,218.3 L669.9,233.9 L670.7,248.5 L671.6,256.0 L672.4,259.9 L673.3,261.2 L674.1,258.6 L674.9,246.1 L675.8,221.5 L676.6,193.9 L677.5,180.1 L678.3,179.6 L679.2,182.2 L680.0,182.7" stroke="#9467bd" stroke-width="2" fill="none" opacity="0.8"/>
<!-- Total Generation -->
<path d="M80.0,228.7 L80.8,208.5 L81.7,216.8 L82.5,227.4 L83.4,263.8 L84.2,278.9 L85.1,281.5 L85.9,266.2 L86.7,258.6 L87.6,237.1 L88.4,209.0 L89.3,209.2 L90.1,242.3 L91.0,249.3 L91.8,223.3 L92.6,241.0 L93.5,292.7 L94.3,299.7 L95.2,307.7 L96.0,290.1 L96.9,367.8 L97.7,366.7 L98.5,336.3 L99.4,333.7 L100.2,314.0 L101.1,311.9 L101.9,308.0 L102.8,311.6 L103.6,305.9 L104.4,302.5 L105.3,295.5 L106.1,291.1 L107.0,287.5 L107.8,287.2 L108.7,288.0 L109.5,286.9 L110.3,284.9 L111.2,301.2 L112.0,305.7 L112.9,312.2 L113.7,298.1 L114.6,290.8 L115.4,295.3 L116.2,288.8 L117.1,293.2 L117.9,287.2 L118.8,296.8 L119.6,284.9 L120.4,256.5 L121.3,255.8 L122.1,258.4 L123.0,249.8 L123.8,247.4 L124.7,245.4 L125.5,248.2 L126.3,232.4 L127.2,234.5 L128.0,261.7 L128.9,263.6 L129.7,271.9 L130.6,260.2 L131.4,249.0 L132.2,227.4 L133.1,207.2 L133.9,215.2 L134.8,212.6 L135.6,212.4 L136.5,222.0 L137.3,206.4 L138.1,222.0 L139.0,207.7 L139.8,215.0 L140.7,204.3 L141.5,199.6 L142.4,199.6 L143.2,229.3 L144.0,214.7 L144.9,221.2 L145.7,246.1 L146.6,249.8 L147.4,247.4 L148.3,244.8 L149.1,247.2 L149.9,241.2 L150.8,233.4 L151.6,229.3 L152.5,209.2 L153.3,203.5 L154.2,201.7 L155.0,210.3 L155.8,211.3 L156.7,220.9 L157.5,228.0 L158.4,215.2 L159.2,205.6 L160.1,223.0 L160.9,230.3 L161.7,224.1 L162.6,227.4 L163.4,248.2 L164.3,245.1 L165.1,252.9 L166.0,288.2 L166.8,295.8 L167.6,290.3 L168.5,282.3 L169.3,281.2 L170.2,284.6 L171.0,283.6 L171.9,289.3 L172.7,270.1 L173.5,274.0 L174.4,275.0 L175.2,275.5 L176.1,272.1 L176.9,273.4 L177.8,267.5 L178.6,246.1 L179.4,255.2 L180.3,263.0 L181.1,256.3 L182.0,268.0 L182.8,265.1 L183.7,260.7 L184.5,264.6 L185.3,268.5 L186.2,283.0 L187.0,293.4 L187.9,279.4 L188.7,257.8 L189.6,252.4 L190.4,251.6 L191.2,243.5 L192.1,250.6 L192.9,233.4 L193.8,195.5 L194.6,194.4 L195.4,185.1 L196.3,206.4 L197.1,212.9 L198.0,228.0 L198.8,224.8 L199.7,229.8 L200.5,241.5 L201.3,238.4 L202.2,248.2 L203.0,252.9 L203.9,276.3 L204.7,277.1 L205.6,277.6 L206.4,278.4 L207.2,271.4 L208.1,283.3 L208.9,270.3 L209.8,257.3 L210.6,252.4 L211.5,257.3 L212.3,262.8 L213.1,258.4 L214.0,250.3 L214.8,272.1 L215.7,270.3 L216.5,255.5 L217.4,236.5 L218.2,257.8 L219.0,264.9 L219.9,277.1 L220.7,272.7 L221.6,281.8 L222.4,276.3 L223.3,303.6 L224.1,300.7 L224.9,290.1 L225.8,288.8 L226.6,297.3 L227.5,300.2 L228.3,300.5 L229.2,299.7 L230.0,300.7 L230.8,278.9 L231.7,277.3 L232.5,275.0 L233.4,264.9 L234.2,258.6 L235.1,265.4 L235.9,268.8 L236.7,264.9 L237.6,281.0 L238.4,266.7 L239.3,265.1 L240.1,270.6 L241.0,294.2 L241.8,297.3 L242.6,294.2 L243.5,298.6 L244.3,297.3 L245.2,296.8 L246.0,283.8 L246.9,274.5 L247.7,276.8 L248.5,279.4 L249.4,276.0 L250.2,278.9 L251.1,257.8 L251.9,238.6 L252.8,253.2 L253.6,242.3 L254.4,250.6 L255.3,223.0 L256.1,230.6 L257.0,258.1 L257.8,255.0 L258.7,257.3 L259.5,261.2 L260.3,268.8 L261.2,284.6 L262.0,284.1 L262.9,282.5 L263.7,271.9 L264.6,266.7 L265.4,281.8 L266.2,255.8 L267.1,242.3 L267.9,224.1 L268.8,268.8 L269.6,266.9 L270.4,255.0 L271.3,285.4 L272.1,287.7 L273.0,289.0 L273.8,271.1 L274.7,269.0 L275.5,268.8 L276.3,271.1 L277.2,222.2 L278.0,234.7 L278.9,248.0 L279.7,216.3 L280.6,202.2 L281.4,217.8 L282.2,228.0 L283.1,223.3 L283.9,217.6 L284.8,224.3 L285.6,245.9 L286.5,258.1 L287.3,261.0 L288.1,266.4 L289.0,274.5 L289.8,255.8 L290.7,246.1 L291.5,254.7 L292.4,223.5 L293.2,222.8 L294.0,219.6 L294.9,247.4 L295.7,250.8 L296.6,255.0 L297.4,256.8 L298.3,256.8 L299.1,245.1 L299.9,245.1 L300.8,245.9 L301.6,241.5 L302.5,223.0 L303.3,222.0 L304.2,231.1 L305.0,254.7 L305.8,256.5 L306.7,265.6 L307.5,275.8 L308.4,270.6 L309.2,266.2 L310.1,269.3 L310.9,258.6 L311.7,238.1 L312.6,200.7 L313.4,206.4 L314.3,181.7 L315.1,200.4 L316.0,212.4 L316.8,210.0 L317.6,207.2 L318.5,204.6 L319.3,218.3 L320.2,226.7 L321.0,189.8 L321.9,189.2 L322.7,195.2 L323.5,196.0 L324.4,209.8 L325.2,194.7 L326.1,229.0 L326.9,227.7 L327.8,218.6 L328.6,228.2 L329.4,216.8 L330.3,218.6 L331.1,209.8 L332.0,179.4 L332.8,179.6 L333.7,217.3 L334.5,207.2 L335.3,187.4 L336.2,189.5 L337.0,196.5 L337.9,195.2 L338.7,192.4 L339.6,200.4 L340.4,163.0 L341.2,168.7 L342.1,208.2 L342.9,200.2 L343.8,207.9 L344.6,209.0 L345.4,212.1 L346.3,219.1 L347.1,226.9 L348.0,223.3 L348.8,233.4 L349.7,231.3 L350.5,226.7 L351.3,241.2 L352.2,249.5 L353.0,223.5 L353.9,212.6 L354.7,207.2 L355.6,189.8 L356.4,183.3 L357.2,194.7 L358.1,148.2 L358.9,178.1 L359.8,184.0 L360.6,141.4 L361.5,138.6 L362.3,165.6 L363.1,150.8 L364.0,146.6 L364.8,145.3 L365.7,172.9 L366.5,178.1 L367.4,171.0 L368.2,173.1 L369.0,174.2 L369.9,178.1 L370.7,187.2 L371.6,177.0 L372.4,178.1 L373.3,189.2 L374.1,180.4 L374.9,172.3 L375.8,170.8 L376.6,168.4 L377.5,154.4 L378.3,143.5 L379.2,154.4 L380.0,124.0 L380.8,124.3 L381.7,131.3 L382.5,128.9 L383.4,149.0 L384.2,151.0 L385.1,147.9 L385.9,147.1 L386.7,155.2 L387.6,160.1 L388.4,232.9 L389.3,242.3 L390.1,238.1 L391.0,242.8 L391.8,252.1 L392.6,234.7 L393.5,247.4 L394.3,251.6 L395.2,228.5 L396.0,225.9 L396.9,226.4 L397.7,229.3 L398.5,227.4 L399.4,233.2 L400.2,240.7 L401.1,200.7 L401.9,139.3 L402.8,171.8 L403.6,171.8 L404.4,177.0 L405.3,183.0 L406.1,174.2 L407.0,181.4 L407.8,196.0 L408.7,191.8 L409.5,198.1 L410.3,195.0 L411.2,210.3 L412.0,201.7 L412.9,180.4 L413.7,172.3 L414.6,169.7 L415.4,159.9 L416.2,152.9 L417.1,156.8 L417.9,168.4 L418.8,185.6 L419.6,201.7 L420.4,188.7 L421.3,177.5 L422.1,163.8 L423.0,157.8 L423.8,162.5 L424.7,165.3 L425.5,169.2 L426.3,173.1 L427.2,208.7 L428.0,223.5 L428.9,220.2 L429.7,243.8 L430.6,271.9 L431.4,270.8 L432.2,267.5 L433.1,266.7 L433.9,266.9 L434.8,258.1 L435.6,241.7 L436.5,226.1 L437.3,214.2 L438.1,207.7 L439.0,207.4 L439.8,206.9 L440.7,223.0 L441.5,217.8 L442.4,223.8 L443.2,223.3 L444.0,225.6 L444.9,193.9 L445.7,215.5 L446.6,233.9 L447.4,233.9 L448.3,232.4 L449.1,221.5 L449.9,192.9 L450.8,186.9 L451.6,208.2 L452.5,203.5 L453.3,200.4 L454.2,200.9 L455.0,208.2 L455.8,215.5 L456.7,193.4 L457.5,157.8 L458.4,175.2 L459.2,196.3 L460.1,185.6 L460.9,177.5 L461.7,202.5 L462.6,205.1 L463.4,201.7 L464.3,205.1 L465.1,222.8 L466.0,209.5 L466.8,200.2 L467.6,183.5 L468.5,178.3 L469.3,188.2 L470.2,209.0 L471.0,221.5 L471.9,225.6 L472.7,223.8 L473.5,229.3 L474.4,225.1 L475.2,225.9 L476.1,192.1 L476.9,184.8 L477.8,163.3 L478.6,159.6 L479.4,176.2 L480.3,175.5 L481.1,207.7 L482.0,211.1 L482.8,183.3 L483.7,192.9 L484.5,194.2 L485.3,211.3 L486.2,210.8 L487.0,197.0 L487.9,169.5 L488.7,189.8 L489.6,204.6 L490.4,198.9 L491.2,197.8 L492.1,198.1 L492.9,197.8 L493.8,191.8 L494.6,151.6 L495.4,183.0 L496.3,179.6 L497.1,180.1 L498.0,176.2 L498.8,181.2 L499.7,173.4 L500.5,184.0 L501.3,200.4 L502.2,201.5 L503.0,152.6 L503.9,154.4 L504.7,175.5 L505.6,171.3 L506.4,182.2 L507.2,180.7 L508.1,225.6 L508.9,231.3 L509.8,236.3 L510.6,220.9 L511.5,211.3 L512.3,248.7 L513.1,222.5 L514.0,188.7 L514.8,159.9 L515.7,177.8 L516.5,183.0 L517.4,187.4 L518.2,182.0 L519.0,194.4 L519.9,200.2 L520.7,190.3 L521.6,205.6 L522.4,197.0 L523.3,185.9 L524.1,196.3 L524.9,238.1 L525.8,225.1 L526.6,244.8 L527.5,248.2 L528.3,245.1 L529.2,241.2 L530.0,286.7 L530.8,297.6 L531.7,296.3 L532.5,287.7 L533.4,281.8 L534.2,259.9 L535.1,191.3 L535.9,223.8 L536.7,218.1 L537.6,188.7 L538.4,165.1 L539.3,171.6 L540.1,178.8 L541.0,179.4 L541.8,187.2 L542.6,189.5 L543.5,172.1 L544.3,167.4 L545.2,179.1 L546.0,173.6 L546.9,182.5 L547.7,188.2 L548.5,192.6 L549.4,192.6 L550.2,202.8 L551.1,179.6 L551.9,190.0 L552.8,193.7 L553.6,179.6 L554.4,158.8 L555.3,147.4 L556.1,181.7 L557.0,118.3 L557.8,115.2 L558.7,114.1 L559.5,129.7 L560.3,132.8 L561.2,159.9 L562.0,160.4 L562.9,141.9 L563.7,95.9 L564.6,105.8 L565.4,127.4 L566.2,115.2 L567.1,130.8 L567.9,144.3 L568.8,149.5 L569.6,131.3 L570.4,112.8 L571.3,134.9 L572.1,116.2 L573.0,116.0 L573.8,105.6 L574.7,87.4 L575.5,93.1 L576.3,125.6 L577.2,138.3 L578.0,147.7 L578.9,145.6 L579.7,161.7 L580.6,162.5 L581.4,175.5 L582.2,181.2 L583.1,183.8 L583.9,147.1 L584.8,167.4 L585.6,159.1 L586.5,152.9 L587.3,178.1 L588.1,172.3 L589.0,109.2 L589.8,105.3 L590.7,184.8 L591.5,193.1 L592.4,179.6 L593.2,160.7 L594.0,149.2 L594.9,150.3 L595.7,118.0 L596.6,155.5 L597.4,162.0 L598.3,179.9 L599.1,197.6 L599.9,199.1 L600.8,209.5 L601.6,201.7 L602.5,190.3 L603.3,181.4 L604.2,87.4 L605.0,68.9 L605.8,67.6 L606.7,92.0 L607.5,69.7 L608.4,145.3 L609.2,164.8 L610.1,200.7 L610.9,203.8 L611.7,204.0 L612.6,189.5 L613.4,161.4 L614.3,147.4 L615.1,146.4 L616.0,149.7 L616.8,198.3 L617.6,177.8 L618.5,161.7 L619.3,179.9 L620.2,186.9 L621.0,206.1 L621.9,209.0 L622.7,184.8 L623.5,177.3 L624.4,141.7 L625.2,144.8 L626.1,144.0 L626.9,158.8 L627.8,194.7 L628.6,196.3 L629.4,183.3 L630.3,185.1 L631.1,184.8 L632.0,186.6 L632.8,195.7 L633.7,184.8 L634.5,180.9 L635.3,126.6 L636.2,117.8 L637.0,167.4 L637.9,166.1 L638.7,198.3 L639.6,207.4 L640.4,206.1 L641.2,203.5 L642.1,205.3 L642.9,225.9 L643.8,220.2 L644.6,164.8 L645.4,178.3 L646.3,183.8 L647.1,166.4 L648.0,169.5 L648.8,200.4 L649.7,204.8 L650.5,221.5 L651.3,218.1 L652.2,172.3 L653.0,180.9 L653.9,189.2 L654.7,182.0 L655.6,108.7 L656.4,99.3 L657.2,166.6 L658.1,182.2 L658.9,197.0 L659.8,191.3 L660.6,195.2 L661.5,195.2 L662.3,187.4 L663.1,212.1 L664.0,200.4 L664.8,149.7 L665.7,117.5 L666.5,160.7 L667.4,153.9 L668.2,172.1 L669.0,182.2 L669.9,191.8 L670.7,194.7 L671.6,191.1 L672.4,197.8 L673.3,193.7 L674.1,199.9 L674.9,192.6 L675.8,195.0 L676.6,155.5 L677.5,182.5 L678.3,165.8 L679.2,198.3 L680.0,212.4" stroke="#8c564b" stroke-width="2" fill="none" opacity="0.8"/>
<!-- Forecast Difference -->
<path d="M80.0,420.0 L80.8,420.0 L81.7,420.0 L82.5,420.0 L83.4,420.0 L84.2,420.0 L85.1,420.0 L85.9,420.0 L86.7,420.0 L87.6,420.0 L88.4,420.0 L89.3,420.0 L90.1,420.0 L91.0,420.0 L91.8,420.0 L92.6,420.0 L93.5,420.0 L94.3,420.0 L95.2,420.0 L96.0,420.0 L96.9,420.0 L97.7,420.0 L98.5,420.0 L99.4,420.0 L100.2,420.0 L101.1,420.0 L101.9,420.0 L102.8,420.0 L103.6,420.0 L104.4,420.0 L105.3,420.0 L106.1,420.0 L107.0,420.0 L107.8,420.0 L108.7,420.0 L109.5,420.0 L110.3,420.0 L111.2,420.0 L112.0,420.0 L112.9,420.0 L113.7,420.0 L114.6,420.0 L115.4,420.0 L116.2,420.0 L117.1,420.0 L117.9,420.0 L118.8,420.0 L119.6,420.0 L120.4,420.0 L121.3,420.0 L122.1,420.0 L123.0,420.0 L123.8,420.0 L124.7,420.0 L125.5,420.0 L126.3,420.0 L127.2,420.0 L128.0,420.0 L128.9,420.0 L129.7,420.0 L130.6,420.0 L131.4,420.0 L132.2,420.0 L133.1,420.0 L133.9,420.0 L134.8,420.0 L135.6,420.0 L136.5,420.0 L137.3,420.0 L138.1,420.0 L139.0,420.0 L139.8,420.0 L140.7,420.0 L141.5,420.0 L142.4,420.0 L143.2,420.0 L144.0,420.0 L144.9,420.0 L145.7,420.0 L146.6,420.0 L147.4,420.0 L148.3,420.0 L149.1,420.0 L149.9,420.0 L150.8,420.0 L151.6,420.0 L152.5,420.0 L153.3,420.0 L154.2,420.0 L155.0,420.0 L155.8,420.0 L156.7,420.0 L157.5,420.0 L158.4,420.0 L159.2,420.0 L160.1,420.0 L160.9,420.0 L161.7,420.0 L162.6,420.0 L163.4,420.0 L164.3,420.0 L165.1,420.0 L166.0,420.0 L166.8,420.0 L167.6,420.0 L168.5,420.0 L169.3,420.0 L170.2,420.0 L171.0,420.0 L171.9,420.0 L172.7,420.0 L173.5,420.0 L174.4,420.0 L175.2,420.0 L176.1,420.0 L176.9,420.0 L177.8,420.0 L178.6,420.0 L179.4,420.0 L180.3,420.0 L181.1,420.0 L182.0,420.0 L182.8,420.0 L183.7,420.0 L184.5,420.0 L185.3,420.0 L186.2,420.0 L187.0,420.0 L187.9,420.0 L188.7,420.0 L189.6,420.0 L190.4,420.0 L191.2,420.0 L192.1,420.0 L192.9,420.0 L193.8,420.0 L194.6,420.0 L195.4,420.0 L196.3,420.0 L197.1,420.0 L198.0,420.0 L198.8,420.0 L199.7,420.0 L200.5,420.0 L201.3,420.0 L202.2,420.0 L203.0,420.0 L203.9,420.0 L204.7,420.0 L205.6,420.0 L206.4,420.0 L207.2,420.0 L208.1,420.0 L208.9,420.0 L209.8,420.0 L210.6,420.0 L211.5,420.0 L212.3,420.0 L213.1,420.0 L214.0,420.0 L214.8,420.0 L215.7,420.0 L216.5,420.0 L217.4,420.0 L218.2,420.0 L219.0,420.0 L219.9,420.0 L220.7,420.0 L221.6,420.0 L222.4,420.0 L223.3,420.0 L224.1,420.0 L224.9,420.0 L225.8,420.0 L226.6,420.0 L227.5,420.0 L228.3,420.0 L229.2,420.0 L230.0,420.0 L230.8,420.0 L231.7,420.0 L232.5,420.0 L233.4,420.0 L234.2,420.0 L235.1,420.0 L235.9,420.0 L236.7,420.0 L237.6,420.0 L238.4,420.0 L239.3,420.0 L240.1,420.0 L241.0,420.0 L241.8,420.0 L242.6,420.0 L243.5,420.0 L244.3,420.0 L245.2,420.0 L246.0,420.0 L246.9,420.0 L247.7,420.0 L248.5,420.0 L249.4,420.0 L250.2,420.0 L251.1,420.0 L251.9,420.0 L252.8,420.0 L253.6,420.0 L254.4,420.0 L255.3,420.0 L256.1,420.0 L257.0,420.0 L257.8,420.0 L258.7,420.0 L259.5,420.0 L260.3,420.0 L261.2,420.0 L262.0,420.0 L262.9,420.0 L263.7,420.0 L264.6,420.0 L265.4,420.0 L266.2,420.0 L267.1,420.0 L267.9,420.0 L268.8,420.0 L269.6,420.0 L270.4,420.0 L271.3,420.0 L272.1,420.0 L273.0,420.0 L273.8,420.0 L274.7,420.0 L275.5,420.0 L276.3,420.0 L277.2,420.0 L278.0,420.0 L278.9,420.0 L279.7,420.0 L280.6,420.0 L281.4,420.0 L282.2,420.0 L283.1,420.0 L283.9,420.0 L284.8,420.0 L285.6,420.0 L286.5,420.0 L287.3,420.0 L288.1,420.0 L289.0,420.0 L289.8,420.0 L290.7,420.0 L291.5,420.0 L292.4,420.0 L293.2,420.0 L294.0,420.0 L294.9,420.0 L295.7,420.0 L296.6,420.0 L297.4,420.0 L298.3,420.0 L299.1,420.0 L299.9,420.0 L300.8,420.0 L301.6,420.0 L302.5,420.0 L303.3,420.0 L304.2,420.0 L305.0,420.0 L305.8,420.0 L306.7,420.0 L307.5,420.0 L308.4,420.0 L309.2,420.0 L310.1,420.0 L310.9,420.0 L311.7,420.0 L312.6,420.0 L313.4,420.0 L314.3,420.0 L315.1,420.0 L316.0,420.0 L316.8,420.0 L317.6,420.0 L318.5,420.0 L319.3,420.0 L320.2,420.0 L321.0,420.0 L321.9,420.0 L322.7,420.0 L323.5,420.0 L324.4,420.0 L325.2,420.0 L326.1,420.0 L326.9,420.0 L327.8,420.0 L328.6,420.0 L329.4,420.0 L330.3,420.0 L331.1,420.0 L332.0,420.0 L332.8,420.0 L333.7,420.0 L334.5,420.0 L335.3,420.0 L336.2,420.0 L337.0,420.0 L337.9,420.0 L338.7,420.0 L339.6,420.0 L340.4,420.0 L341.2,420.0 L342.1,420.0 L342.9,420.0 L343.8,420.0 L344.6,420.0 L345.4,420.0 L346.3,420.0 L347.1,420.0 L348.0,420.0 L348.8,420.0 L349.7,420.0 L350.5,420.0 L351.3,420.0 L352.2,420.0 L353.0,420.0 L353.9,420.0 L354.7,420.0 L355.6,420.0 L356.4,420.0 L357.2,420.0 L358.1,420.0 L358.9,420.0 L359.8,420.0 L360.6,420.0 L361.5,420.0 L362.3,420.0 L363.1,420.0 L364.0,420.0 L364.8,420.0 L365.7,420.0 L366.5,420.0 L367.4,420.0 L368.2,420.0 L369.0,420.0 L369.9,420.0 L370.7,420.0 L371.6,420.0 L372.4,420.0 L373.3,420.0 L374.1,420.0 L374.9,420.0 L375.8,420.0 L376.6,420.0 L377.5,420.0 L378.3,420.0 L379.2,420.0 L380.0,420.0 L380.8,420.0 L381.7,420.0 L382.5,420.0 L383.4,420.0 L384.2,420.0 L385.1,420.0 L385.9,420.0 L386.7,420.0 L387.6,420.0 L388.4,420.0 L389.3,420.0 L390.1,420.0 L391.0,420.0 L391.8,420.0 L392.6,420.0 L393.5,420.0 L394.3,420.0 L395.2,420.0 L396.0,420.0 L396.9,420.0 L397.7,420.0 L398.5,420.0 L399.4,420.0 L400.2,420.0 L401.1,420.0 L401.9,420.0 L402.8,420.0 L403.6,420.0 L404.4,420.0 L405.3,420.0 L406.1,420.0 L407.0,420.0 L407.8,420.0 L408.7,420.0 L409.5,420.0 L410.3,420.0 L411.2,420.0 L412.0,420.0 L412.9,420.0 L413.7,420.0 L414.6,420.0 L415.4,420.0 L416.2,420.0 L417.1,420.0 L417.9,420.0 L418.8,420.0 L419.6,420.0 L420.4,420.0 L421.3,420.0 L422.1,420.0 L423.0,420.0 L423.8,420.0 L424.7,420.0 L425.5,420.0 L426.3,420.0 L427.2,420.0 L428.0,420.0 L428.9,420.0 L429.7,420.0 L430.6,420.0 L431.4,420.0 L432.2,420.0 L433.1,420.0 L433.9,420.0 L434.8,420.0 L435.6,420.0 L436.5,420.0 L437.3,420.0 L438.1,420.0 L439.0,420.0 L439.8,420.0 L440.7,420.0 L441.5,420.0 L442.4,420.0 L443.2,420.0 L444.0,420.0 L444.9,420.0 L445.7,420.0 L446.6,420.0 L447.4,420.0 L448.3,420.0 L449.1,420.0 L449.9,420.0 L450.8,420.0 L451.6,420.0 L452.5,420.0 L453.3,420.0 L454.2,420.0 L455.0,420.0 L455.8,420.0 L456.7,420.0 L457.5,420.0 L458.4,420.0 L459.2,420.0 L460.1,420.0 L460.9,420.0 L461.7,420.0 L462.6,420.0 L463.4,420.0 L464.3,420.0 L465.1,420.0 L466.0,420.0 L466.8,420.0 L467.6,420.0 L468.5,420.0 L469.3,420.0 L470.2,420.0 L471.0,420.0 L471.9,420.0 L472.7,420.0 L473.5,420.0 L474.4,420.0 L475.2,420.0 L476.1,420.0 L476.9,420.0 L477.8,420.0 L478.6,420.0 L479.4,420.0 L480.3,420.0 L481.1,420.0 L482.0,420.0 L482.8,420.0 L483.7,420.0 L484.5,420.0 L485.3,420.0 L486.2,420.0 L487.0,420.0 L487.9,420.0 L488.7,420.0 L489.6,420.0 L490.4,420.0 L491.2,420.0 L492.1,420.0 L492.9,420.0 L493.8,420.0 L494.6,420.0 L495.4,420.0 L496.3,420.0 L497.1,420.0 L498.0,420.0 L498.8,420.0 L499.7,420.0 L500.5,420.0 L501.3,420.0 L502.2,420.0 L503.0,420.0 L503.9,420.0 L504.7,420.0 L505.6,420.0 L506.4,420.0 L507.2,420.0 L508.1,420.0 L508.9,420.0 L509.8,420.0 L510.6,420.0 L511.5,420.0 L512.3,420.0 L513.1,420.0 L514.0,420.0 L514.8,420.0 L515.7,420.0 L516.5,420.0 L517.4,420.0 L518.2,420.0 L519.0,420.0 L519.9,420.0 L520.7,420.0 L521.6,420.0 L522.4,420.0 L523.3,420.0 L524.1,420.0 L524.9,420.0 L525.8,420.0 L526.6,420.0 L527.5,420.0 L528.3,420.0 L529.2,420.0 L530.0,420.0 L530.8,420.0 L531.7,420.0 L532.5,420.0 L533.4,420.0 L534.2,420.0 L535.1,420.0 L535.9,420.0 L536.7,420.0 L537.6,420.0 L538.4,420.0 L539.3,420.0 L540.1,420.0 L541.0,420.0 L541.8,420.0 L542.6,420.0 L543.5,420.0 L544.3,420.0 L545.2,420.0 L546.0,420.0 L546.9,420.0 L547.7,420.0 L548.5,420.0 L549.4,420.0 L550.2,420.0 L551.1,420.0 L551.9,420.0 L552.8,420.0 L553.6,420.0 L554.4,420.0 L555.3,420.0 L556.1,420.0 L557.0,420.0 L557.8,420.0 L558.7,420.0 L559.5,420.0 L560.3,420.0 L561.2,420.0 L562.0,420.0 L562.9,420.0 L563.7,420.0 L564.6,420.0 L565.4,420.0 L566.2,420.0 L567.1,420.0 L567.9,420.0 L568.8,420.0 L569.6,420.0 L570.4,420.0 L571.3,420.0 L572.1,420.0 L573.0,420.0 L573.8,420.0 L574.7,420.0 L575.5,420.0 L576.3,420.0 L577.2,420.0 L578.0,420.0 L578.9,420.0 L579.7,420.0 L580.6,420.0 L581.4,420.0 L582.2,420.0 L583.1,420.0 L583.9,420.0 L584.8,420.0 L585.6,420.0 L586.5,420.0 L587.3,420.0 L588.1,420.0 L589.0,420.0 L589.8,420.0 L590.7,420.0 L591.5,420.0 L592.4,420.0 L593.2,420.0 L594.0,420.0 L594.9,420.0 L595.7,420.0 L596.6,420.0 L597.4,420.0 L598.3,420.0 L599.1,420.0 L599.9,420.0 L600.8,420.0 L601.6,420.0 L602.5,420.0 L603.3,420.0 L604.2,420.0 L605.0,420.0 L605.8,420.0 L606.7,420.0 L607.5,420.0 L608.4,420.0 L609.2,420.0 L610.1,420.0 L610.9,420.0 L611.7,420.0 L612.6,420.0 L613.4,420.0 L614.3,420.0 L615.1,420.0 L616.0,420.0 L616.8,420.0 L617.6,420.0 L618.5,420.0 L619.3,420.0 L620.2,420.0 L621.0,420.0 L621.9,420.0 L622.7,420.0 L623.5,420.0 L624.4,420.0 L625.2,420.0 L626.1,420.0 L626.9,420.0 L627.8,420.0 L628.6,420.0 L629.4,420.0 L630.3,420.0 L631.1,420.0 L632.0,420.0 L632.8,420.0 L633.7,420.0 L634.5,420.0 L635.3,420.0 L636.2,420.0 L637.0,420.0 L637.9,420.0 L638.7,420.0 L639.6,420.0 L640.4,420.0 L641.2,420.0 L642.1,420.0 L642.9,420.0 L643.8,420.0 L644.6,420.0 L645.4,420.0 L646.3,420.0 L647.1,420.0 L648.0,420.0 L648.8,420.0 L649.7,420.0 L650.5,420.0 L651.3,420.0 L652.2,420.0 L653.0,420.0 L653.9,420.0 L654.7,420.0 L655.6,420.0 L656.4,420.0 L657.2,420.0 L658.1,420.0 L658.9,420.0 L659.8,420.0 L660.6,420.0 L661.5,420.0 L662.3,420.0 L663.1,420.0 L664.0,420.0 L664.8,420.0 L665.7,420.0 L666.5,420.0 L667.4,420.0 L668.2,420.0 L669.0,420.0 L669.9,420.0 L670.7,420.0 L671.6,420.0 L672.4,420.0 L673.3,420.0 L674.1,420.0 L674.9,420.0 L675.8,420.0 L676.6,420.0 L677.5,420.0 L678.3,420.0 L679.2,420.0 L680.0,420.0" stroke="#e377c2" stroke-width="2" fill="none" opacity="0.8"/>

<!-- Legend -->
<line x1="690" y1="70" x2="705" y2="70" stroke="#1f77b4" stroke-width="3"/>
<text x="710" y="74" class="legend">Wind Generation</text>
<line x1="690" y1="88" x2="705" y2="88" stroke="#ff7f0e" stroke-width="3"/>
<text x="710" y="92" class="legend">Hydro Generation</text>
<line x1="690" y1="106" x2="705" y2="106" stroke="#2ca02c" stroke-width="3"/>
<text x="710" y="110" class="legend">Thermal Generation</text>
<line x1="690" y1="124" x2="705" y2="124" stroke="#d62728" stroke-width="3"/>
<text x="710" y="128" class="legend">Solar Generation</text>
<line x1="690" y1="142" x2="705" y2="142" stroke="#9467bd" stroke-width="3"/>
<text x="710" y="146" class="legend">Forecast</text>
<line x1="690" y1="160" x2="705" y2="160" stroke="#8c564b" stroke-width="3"/>
<text x="710" y="164" class="legend">Total Generation</text>
<line x1="690" y1="178" x2="705" y2="178" stroke="#e377c2" stroke-width="3"/>
<text x="710" y="182" class="legend">Forecast Difference</text>

<!-- Date range -->
<text x="80" y="495" class="legend">Range: 12/16 - 01/15/2026 (713 records)</text>
</svg>