<?xml version="1.0" encoding="UTF-8"?>
<svg width="800" height="500" xmlns="http://www.w3.org/2000/svg">
<style>
.axis-line { stroke: #333; stroke-width: 1; }
.grid-line { stroke: #ddd; stroke-width: 0.5; }
.title { font: 16px Arial; text-anchor: middle; fill: #333; }
.axis-label { font: 12px Arial; text-anchor: middle; fill: #666; }
.legend { font: 10px Arial; fill: #333; }
</style>

<!-- Title -->
<text x="400.0" y="25" class="title">Northwestern Energy Generation Data - Past 30 Days</text>

<!-- Plot area background -->
<rect x="80" y="50" width="600" height="370" fill="white" stroke="#ddd"/>

<!-- Y-axis -->
<line x1="80" y1="50" x2="80" y2="420" class="axis-line"/>
<text x="30" y="235.0" class="axis-label" transform="rotate(-90, 30, 235.0)">Generation (MW)</text>

<!-- X-axis -->
<line x1="80" y1="420" x2="680" y2="420" class="axis-line"/>
<text x="380.0" y="480" class="axis-label">Time</text>
<line x1="80" y1="420.0" x2="680" y2="420.0" class="grid-line"/>
<text x="70" y="425.0" class="legend" text-anchor="end">0</text>
<line x1="80" y1="327.5" x2="680" y2="327.5" class="grid-line"/>
<text x="70" y="332.5" class="legend" text-anchor="end">305</text>
<line x1="80" y1="235.0" x2="680" y2="235.0" class="grid-line"/>
<text x="70" y="240.0" class="legend" text-anchor="end">611</text>
<line x1="80" y1="142.5" x2="680" y2="142.5" class="grid-line"/>
<text x="70" y="147.5" class="legend" text-anchor="end">916</text>
<line x1="80" y1="50.0" x2="680" y2="50.0" class="grid-line"/>
<text x="70" y="55.0" class="legend" text-anchor="end">1221</text>
<!-- Wind Generation -->
<path d="M80.0,349.1 L80.8,323.3 L81.7,315.5 L82.5,322.7 L83.4,340.6 L84.2,319.7 L85.0,319.7 L85.9,318.2 L86.7,339.7 L87.6,352.7 L88.4,333.0 L89.3,330.0 L90.1,347.0 L90.9,357.3 L91.8,357.9 L92.6,366.4 L93.5,371.2 L94.3,374.9 L95.1,396.4 L96.0,399.1 L96.8,400.6 L97.7,392.7 L98.5,396.7 L99.4,404.2 L100.2,407.9 L101.0,398.2 L101.9,398.5 L102.7,403.3 L103.6,398.2 L104.4,396.1 L105.2,400.3 L106.1,398.5 L106.9,406.1 L107.8,408.2 L108.6,413.0 L109.5,411.2 L110.3,382.7 L111.1,372.7 L112.0,349.7 L112.8,350.3 L113.7,369.1 L114.5,365.5 L115.3,382.4 L116.2,374.2 L117.0,351.8 L117.9,363.0 L118.7,367.9 L119.6,368.2 L120.4,380.6 L121.2,390.0 L122.1,369.7 L122.9,383.3 L123.8,377.9 L124.6,376.7 L125.4,376.1 L126.3,345.2 L127.1,336.4 L128.0,334.6 L128.8,333.0 L129.6,356.1 L130.5,353.9 L131.3,358.5 L132.2,333.0 L133.0,343.6 L133.9,363.9 L134.7,366.1 L135.5,366.7 L136.4,382.4 L137.2,371.2 L138.1,376.7 L138.9,375.2 L139.7,380.3 L140.6,371.8 L141.4,377.9 L142.3,377.0 L143.1,362.7 L144.0,365.2 L144.8,375.2 L145.6,381.2 L146.5,390.6 L147.3,375.8 L148.2,390.0 L149.0,405.8 L149.8,405.2 L150.7,397.3 L151.5,395.8 L152.4,402.1 L153.2,404.5 L154.1,413.6 L154.9,407.9 L155.7,403.9 L156.6,398.8 L157.4,406.4 L158.3,412.4 L159.1,414.2 L159.9,416.1 L160.8,415.2 L161.6,411.2 L162.5,409.4 L163.3,412.1 L164.2,402.1 L165.0,389.4 L165.8,377.0 L166.7,366.1 L167.5,358.2 L168.4,359.4 L169.2,353.9 L170.0,374.6 L170.9,370.9 L171.7,370.0 L172.6,372.1 L173.4,373.3 L174.2,382.1 L175.1,396.7 L175.9,395.8 L176.8,393.0 L177.6,377.6 L178.5,371.2 L179.3,357.9 L180.1,361.2 L181.0,371.5 L181.8,364.9 L182.7,379.7 L183.5,391.5 L184.3,390.9 L185.2,367.6 L186.0,353.3 L186.9,370.3 L187.7,363.9 L188.6,372.4 L189.4,370.0 L190.2,386.4 L191.1,375.2 L191.9,374.6 L192.8,379.1 L193.6,390.3 L194.4,398.5 L195.3,401.2 L196.1,401.5 L197.0,405.8 L197.8,398.2 L198.7,402.4 L199.5,388.8 L200.3,376.4 L201.2,366.7 L202.0,375.2 L202.9,372.4 L203.7,374.2 L204.5,373.0 L205.4,387.3 L206.2,390.6 L207.1,391.8 L207.9,390.9 L208.8,399.4 L209.6,387.6 L210.4,392.4 L211.3,404.5 L212.1,394.5 L213.0,383.6 L213.8,390.6 L214.6,405.2 L215.5,400.0 L216.3,388.5 L217.2,393.9 L218.0,398.5 L218.8,405.5 L219.7,398.2 L220.5,392.4 L221.4,393.9 L222.2,397.6 L223.1,401.2 L223.9,403.9 L224.7,412.1 L225.6,412.4 L226.4,414.5 L227.3,417.0 L228.1,416.1 L228.9,415.8 L229.8,414.8 L230.6,409.1 L231.5,408.8 L232.3,406.7 L233.2,410.0 L234.0,414.8 L234.8,417.3 L235.7,409.4 L236.5,409.7 L237.4,413.9 L238.2,416.7 L239.0,417.9 L239.9,413.9 L240.7,410.3 L241.6,410.0 L242.4,408.5 L243.3,411.5 L244.1,413.6 L244.9,413.3 L245.8,396.1 L246.6,376.7 L247.5,380.3 L248.3,362.4 L249.1,363.3 L250.0,368.8 L250.8,376.1 L251.7,372.7 L252.5,378.5 L253.4,387.3 L254.2,402.4 L255.0,403.0 L255.9,406.4 L256.7,410.3 L257.6,413.6 L258.4,415.5 L259.2,410.9 L260.1,402.1 L260.9,392.4 L261.8,392.4 L262.6,377.9 L263.5,367.6 L264.3,379.7 L265.1,368.8 L266.0,355.2 L266.8,360.0 L267.7,343.9 L268.5,335.8 L269.3,354.3 L270.2,353.0 L271.0,353.3 L271.9,353.0 L272.7,365.8 L273.5,378.2 L274.4,382.7 L275.2,379.4 L276.1,383.6 L276.9,400.6 L277.8,403.3 L278.6,407.9 L279.4,407.9 L280.3,407.0 L281.1,407.0 L282.0,409.1 L282.8,411.8 L283.6,412.7 L284.5,414.2 L285.3,415.8 L286.2,417.0 L287.0,416.1 L287.9,413.6 L288.7,413.9 L289.5,410.0 L290.4,416.7 L291.2,412.1 L292.1,416.4 L292.9,405.8 L293.7,404.9 L294.6,390.6 L295.4,376.7 L296.3,408.5 L297.1,409.7 L298.0,407.6 L298.8,415.8 L299.6,417.9 L300.5,417.3 L301.3,416.7 L302.2,413.6 L303.0,413.0 L303.8,413.6 L304.7,416.4 L305.5,415.5 L306.4,413.9 L307.2,412.4 L308.1,406.7 L308.9,389.4 L309.7,389.7 L310.6,355.5 L311.4,337.3 L312.3,325.2 L313.1,316.4 L313.9,326.4 L314.8,334.6 L315.6,338.5 L316.5,363.3 L317.3,371.5 L318.1,388.2 L319.0,397.6 L319.8,390.6 L320.7,385.2 L321.5,398.5 L322.4,397.0 L323.2,392.1 L324.0,379.7 L324.9,385.8 L325.7,394.2 L326.6,400.3 L327.4,406.1 L328.2,404.9 L329.1,406.1 L329.9,387.6 L330.8,388.8 L331.6,400.9 L332.5,403.3 L333.3,401.2 L334.1,388.2 L335.0,390.3 L335.8,381.8 L336.7,386.1 L337.5,384.9 L338.3,383.9 L339.2,389.4 L340.0,395.8 L340.9,369.4 L341.7,377.3 L342.6,395.2 L343.4,417.9 L344.2,406.1 L345.1,403.9 L345.9,411.2 L346.8,416.7 L347.6,420.0 L348.4,417.9 L349.3,410.9 L350.1,408.8 L351.0,404.5 L351.8,405.8 L352.7,401.5 L353.5,395.2 L354.3,389.1 L355.2,400.6 L356.0,372.1 L356.9,380.9 L357.7,402.4 L358.5,373.3 L359.4,395.8 L360.2,403.3 L361.1,378.2 L361.9,373.0 L362.7,369.7 L363.6,388.5 L364.4,388.8 L365.3,396.1 L366.1,410.9 L367.0,419.4 L367.8,419.4 L368.6,419.1 L369.5,417.9 L370.3,418.5 L371.2,410.0 L372.0,399.4 L372.8,384.5 L373.7,394.2 L374.5,359.4 L375.4,367.3 L376.2,341.2 L377.1,357.0 L377.9,365.2 L378.7,357.0 L379.6,341.8 L380.4,333.3 L381.3,350.3 L382.1,355.2 L382.9,370.9 L383.8,390.0 L384.6,385.5 L385.5,402.4 L386.3,417.3 L387.2,414.2 L388.0,409.4 L388.8,408.8 L389.7,401.2 L390.5,393.9 L391.4,391.5 L392.2,383.9 L393.0,382.7 L393.9,385.2 L394.7,361.5 L395.6,350.3 L396.4,340.6 L397.3,331.5 L398.1,344.9 L398.9,361.2 L399.8,360.3 L400.6,352.1 L401.5,336.7 L402.3,331.2 L403.1,332.7 L404.0,330.9 L404.8,327.0 L405.7,352.4 L406.5,352.1 L407.3,352.1 L408.2,353.0 L409.0,353.9 L409.9,348.8 L410.7,351.5 L411.6,353.3 L412.4,354.9 L413.2,357.6 L414.1,317.6 L414.9,319.4 L415.8,324.6 L416.6,333.6 L417.4,358.2 L418.3,346.4 L419.1,347.9 L420.0,352.1 L420.8,351.5 L421.7,352.1 L422.5,350.6 L423.3,361.2 L424.2,373.6 L425.0,372.7 L425.9,368.5 L426.7,357.6 L427.5,353.0 L428.4,331.5 L429.2,327.0 L430.1,325.8 L430.9,324.3 L431.8,317.3 L432.6,339.7 L433.4,325.2 L434.3,330.6 L435.1,323.6 L436.0,355.5 L436.8,336.4 L437.6,350.3 L438.5,353.3 L439.3,373.0 L440.2,367.9 L441.0,368.5 L441.9,376.7 L442.7,381.8 L443.5,387.3 L444.4,381.2 L445.2,391.2 L446.1,395.2 L446.9,401.8 L447.7,403.9 L448.6,385.2 L449.4,383.3 L450.3,377.3 L451.1,373.3 L451.9,366.1 L452.8,373.3 L453.6,382.1 L454.5,366.1 L455.3,360.0 L456.2,377.0 L457.0,385.8 L457.8,391.5 L458.7,389.1 L459.5,394.5 L460.4,404.2 L461.2,407.0 L462.0,410.0 L462.9,407.0 L463.7,400.6 L464.6,404.9 L465.4,403.9 L466.3,410.3 L467.1,414.8 L467.9,418.5 L468.8,420.0 L469.6,420.0 L470.5,418.5 L471.3,417.9 L472.1,416.4 L473.0,413.6 L473.8,413.0 L474.7,409.4 L475.5,398.8 L476.4,379.1 L477.2,381.8 L478.0,385.5 L478.9,395.5 L479.7,397.6 L480.6,405.5 L481.4,406.4 L482.2,416.4 L483.1,417.0 L483.9,416.1 L484.8,405.5 L485.6,396.7 L486.5,395.5 L487.3,400.0 L488.1,391.8 L489.0,374.6 L489.8,354.6 L490.7,347.9 L491.5,338.5 L492.3,343.0 L493.2,340.9 L494.0,347.9 L494.9,344.9 L495.7,348.2 L496.5,362.7 L497.4,370.3 L498.2,381.2 L499.1,391.2 L499.9,407.9 L500.8,417.9 L501.6,417.6 L502.4,419.4 L503.3,419.4 L504.1,418.8 L505.0,416.1 L505.8,415.2 L506.6,415.2 L507.5,412.4 L508.3,411.2 L509.2,392.4 L510.0,382.1 L510.9,392.1 L511.7,389.7 L512.5,387.0 L513.4,389.1 L514.2,398.8 L515.1,405.5 L515.9,407.6 L516.7,407.6 L517.6,401.8 L518.4,368.5 L519.3,388.2 L520.1,393.0 L521.0,378.2 L521.8,369.4 L522.6,368.5 L523.5,373.6 L524.3,370.9 L525.2,359.4 L526.0,365.5 L526.8,379.7 L527.7,396.4 L528.5,386.1 L529.4,388.8 L530.2,391.5 L531.1,408.5 L531.9,415.8 L532.7,413.9 L533.6,394.2 L534.4,385.2 L535.3,389.4 L536.1,394.5 L536.9,365.5 L537.8,377.3 L538.6,370.0 L539.5,346.7 L540.3,353.3 L541.2,368.5 L542.0,356.4 L542.8,393.9 L543.7,401.8 L544.5,378.2 L545.4,376.4 L546.2,373.6 L547.0,364.6 L547.9,409.7 L548.7,405.8 L549.6,403.3 L550.4,407.6 L551.2,392.1 L552.1,388.2 L552.9,364.2 L553.8,353.6 L554.6,354.9 L555.5,324.6 L556.3,328.2 L557.1,330.9 L558.0,311.8 L558.8,307.3 L559.7,318.5 L560.5,317.9 L561.3,311.2 L562.2,308.8 L563.0,309.7 L563.9,333.0 L564.7,360.6 L565.6,355.8 L566.4,367.0 L567.2,368.5 L568.1,364.9 L568.9,361.2 L569.8,360.0 L570.6,368.8 L571.4,382.4 L572.3,394.2 L573.1,405.8 L574.0,400.3 L574.8,405.2 L575.7,407.3 L576.5,390.9 L577.3,392.1 L578.2,379.1 L579.0,380.3 L579.9,392.7 L580.7,404.5 L581.5,402.1 L582.4,395.5 L583.2,402.1 L584.1,417.9 L584.9,415.5 L585.8,397.9 L586.6,383.6 L587.4,366.4 L588.3,363.6 L589.1,348.5 L590.0,334.9 L590.8,346.7 L591.6,353.3 L592.5,351.2 L593.3,360.0 L594.2,363.9 L595.0,367.0 L595.8,352.7 L596.7,311.2 L597.5,347.3 L598.4,351.5 L599.2,325.8 L600.1,322.7 L600.9,321.2 L601.7,312.1 L602.6,311.2 L603.4,317.0 L604.3,313.3 L605.1,311.2 L605.9,311.8 L606.8,314.3 L607.6,319.7 L608.5,322.7 L609.3,321.5 L610.2,353.6 L611.0,319.1 L611.8,307.0 L612.7,328.8 L613.5,326.7 L614.4,312.1 L615.2,317.6 L616.0,320.6 L616.9,329.7 L617.7,323.3 L618.6,313.6 L619.4,313.6 L620.3,317.9 L621.1,315.5 L621.9,315.8 L622.8,314.0 L623.6,325.8 L624.5,326.1 L625.3,327.6 L626.1,332.4 L627.0,331.8 L627.8,339.1 L628.7,331.5 L629.5,330.0 L630.4,330.6 L631.2,329.7 L632.0,323.3 L632.9,317.3 L633.7,318.5 L634.6,339.4 L635.4,313.6 L636.2,314.0 L637.1,316.1 L637.9,333.0 L638.8,369.7 L639.6,376.1 L640.4,383.6 L641.3,392.7 L642.1,403.3 L643.0,412.7 L643.8,412.1 L644.7,408.5 L645.5,408.5 L646.3,407.6 L647.2,410.9 L648.0,415.2 L648.9,412.7 L649.7,406.7 L650.5,397.3 L651.4,382.1 L652.2,363.6 L653.1,354.9 L653.9,374.6 L654.8,376.1 L655.6,340.3 L656.4,355.5 L657.3,355.5 L658.1,363.0 L659.0,350.3 L659.8,356.4 L660.6,355.5 L661.5,352.4 L662.3,370.6 L663.2,378.5 L664.0,391.2 L664.9,393.6 L665.7,381.5 L666.5,360.9 L667.4,371.2 L668.2,378.2 L669.1,386.7 L669.9,392.4 L670.7,392.1 L671.6,391.5 L672.4,396.7 L673.3,397.0 L674.1,381.8 L675.0,374.6 L675.8,379.7 L676.6,381.8 L677.5,391.8 L678.3,397.6 L679.2,406.4 L680.0,405.2" stroke="#1f77b4" stroke-width="2" fill="none" opacity="0.8"/>
<!-- Hydro Generation -->
<path d="M80.0,322.1 L80.8,320.0 L81.7,319.4 L82.5,317.9 L83.4,316.7 L84.2,315.2 L85.0,314.0 L85.9,314.0 L86.7,313.6 L87.6,313.6 L88.4,314.0 L89.3,313.3 L90.1,313.0 L90.9,313.0 L91.8,313.3 L92.6,313.0 L93.5,313.3 L94.3,313.3 L95.1,313.6 L96.0,313.0 L96.8,313.3 L97.7,313.3 L98.5,313.3 L99.4,313.3 L100.2,313.3 L101.0,313.6 L101.9,313.3 L102.7,313.3 L103.6,312.7 L104.4,314.0 L105.2,313.6 L106.1,314.9 L106.9,315.5 L107.8,315.5 L108.6,315.5 L109.5,316.1 L110.3,317.9 L111.1,318.8 L112.0,319.4 L112.8,321.2 L113.7,322.1 L114.5,323.0 L115.3,324.0 L116.2,324.9 L117.0,324.9 L117.9,324.9 L118.7,324.9 L119.6,324.3 L120.4,323.6 L121.2,324.0 L122.1,324.0 L122.9,324.3 L123.8,324.0 L124.6,324.3 L125.4,325.5 L126.3,325.5 L127.1,326.7 L128.0,327.0 L128.8,327.3 L129.6,326.7 L130.5,327.9 L131.3,328.8 L132.2,328.2 L133.0,327.3 L133.9,327.9 L134.7,327.6 L135.5,328.2 L136.4,329.4 L137.2,329.1 L138.1,330.0 L138.9,329.7 L139.7,330.0 L140.6,330.3 L141.4,330.3 L142.3,330.6 L143.1,330.3 L144.0,327.3 L144.8,327.3 L145.6,324.6 L146.5,323.3 L147.3,323.0 L148.2,322.7 L149.0,323.0 L149.8,322.7 L150.7,322.7 L151.5,322.7 L152.4,322.7 L153.2,321.8 L154.1,321.8 L154.9,320.6 L155.7,320.6 L156.6,320.6 L157.4,320.6 L158.3,320.6 L159.1,320.9 L159.9,321.2 L160.8,321.2 L161.6,321.2 L162.5,321.2 L163.3,321.2 L164.2,321.5 L165.0,321.2 L165.8,320.3 L166.7,320.6 L167.5,320.9 L168.4,320.6 L169.2,320.6 L170.0,320.3 L170.9,320.3 L171.7,320.6 L172.6,320.9 L173.4,321.2 L174.2,321.5 L175.1,322.1 L175.9,323.6 L176.8,323.3 L177.6,323.3 L178.5,323.3 L179.3,324.6 L180.1,324.3 L181.0,325.8 L181.8,325.8 L182.7,326.1 L183.5,325.8 L184.3,325.8 L185.2,325.5 L186.0,325.8 L186.9,325.8 L187.7,325.5 L188.6,325.2 L189.4,325.5 L190.2,325.5 L191.1,325.5 L191.9,325.5 L192.8,325.5 L193.6,325.8 L194.4,325.5 L195.3,325.8 L196.1,325.5 L197.0,325.8 L197.8,325.8 L198.7,325.5 L199.5,326.4 L200.3,326.7 L201.2,327.3 L202.0,327.3 L202.9,328.5 L203.7,328.5 L204.5,327.6 L205.4,327.6 L206.2,327.9 L207.1,327.6 L207.9,327.9 L208.8,327.6 L209.6,329.1 L210.4,327.9 L211.3,327.6 L212.1,327.3 L213.0,327.0 L213.8,327.6 L214.6,327.6 L215.5,327.0 L216.3,326.4 L217.2,326.7 L218.0,327.0 L218.8,326.4 L219.7,326.7 L220.5,327.6 L221.4,327.6 L222.2,328.2 L223.1,328.2 L223.9,328.2 L224.7,328.2 L225.6,328.2 L226.4,326.4 L227.3,326.7 L228.1,327.0 L228.9,326.7 L229.8,326.7 L230.6,326.4 L231.5,326.4 L232.3,325.8 L233.2,326.1 L234.0,325.2 L234.8,325.8 L235.7,325.8 L236.5,327.0 L237.4,327.0 L238.2,326.7 L239.0,326.7 L239.9,327.6 L240.7,327.9 L241.6,327.9 L242.4,328.8 L243.3,329.4 L244.1,329.1 L244.9,328.8 L245.8,328.8 L246.6,328.5 L247.5,328.2 L248.3,328.8 L249.1,329.4 L250.0,330.0 L250.8,329.4 L251.7,329.1 L252.5,329.1 L253.4,329.7 L254.2,329.4 L255.0,329.1 L255.9,329.1 L256.7,329.1 L257.6,329.1 L258.4,329.1 L259.2,329.1 L260.1,329.1 L260.9,328.8 L261.8,329.1 L262.6,329.1 L263.5,329.4 L264.3,328.8 L265.1,329.1 L266.0,329.4 L266.8,329.4 L267.7,329.7 L268.5,329.4 L269.3,330.6 L270.2,330.9 L271.0,330.6 L271.9,331.5 L272.7,331.5 L273.5,330.6 L274.4,330.3 L275.2,330.6 L276.1,330.9 L276.9,330.6 L277.8,330.6 L278.6,330.9 L279.4,332.4 L280.3,332.1 L281.1,333.6 L282.0,333.3 L282.8,333.3 L283.6,333.6 L284.5,334.3 L285.3,333.3 L286.2,333.6 L287.0,333.3 L287.9,334.6 L288.7,333.3 L289.5,333.6 L290.4,333.6 L291.2,333.0 L292.1,333.0 L292.9,332.7 L293.7,332.4 L294.6,332.4 L295.4,331.5 L296.3,332.1 L297.1,331.8 L298.0,331.5 L298.8,331.5 L299.6,330.9 L300.5,330.9 L301.3,331.2 L302.2,330.9 L303.0,330.9 L303.8,331.2 L304.7,331.8 L305.5,332.1 L306.4,332.4 L307.2,332.4 L308.1,330.9 L308.9,331.2 L309.7,330.9 L310.6,330.9 L311.4,330.9 L312.3,313.0 L313.1,329.4 L313.9,329.7 L314.8,330.6 L315.6,330.6 L316.5,331.8 L317.3,331.8 L318.1,331.5 L319.0,331.5 L319.8,331.5 L320.7,331.5 L321.5,333.6 L322.4,333.6 L323.2,333.6 L324.0,333.6 L324.9,333.9 L325.7,335.5 L326.6,335.5 L327.4,336.7 L328.2,333.6 L329.1,331.2 L329.9,330.9 L330.8,330.9 L331.6,330.6 L332.5,331.2 L333.3,330.3 L334.1,330.3 L335.0,330.0 L335.8,330.0 L336.7,329.7 L337.5,329.4 L338.3,329.4 L339.2,329.4 L340.0,329.1 L340.9,329.4 L341.7,328.8 L342.6,328.2 L343.4,328.2 L344.2,327.3 L345.1,327.6 L345.9,327.9 L346.8,326.7 L347.6,326.7 L348.4,326.7 L349.3,323.6 L350.1,323.6 L351.0,323.6 L351.8,321.5 L352.7,318.5 L353.5,318.5 L354.3,318.5 L355.2,318.5 L356.0,317.9 L356.9,317.9 L357.7,317.9 L358.5,317.9 L359.4,317.9 L360.2,317.9 L361.1,317.9 L361.9,317.3 L362.7,317.6 L363.6,316.7 L364.4,316.4 L365.3,316.1 L366.1,315.8 L367.0,314.6 L367.8,314.6 L368.6,314.6 L369.5,314.3 L370.3,313.6 L371.2,314.3 L372.0,314.9 L372.8,312.7 L373.7,313.3 L374.5,311.5 L375.4,310.9 L376.2,310.9 L377.1,310.0 L377.9,310.3 L378.7,310.3 L379.6,310.0 L380.4,310.0 L381.3,310.0 L382.1,309.1 L382.9,308.5 L383.8,308.8 L384.6,308.8 L385.5,308.8 L386.3,307.6 L387.2,308.8 L388.0,309.7 L388.8,309.7 L389.7,310.0 L390.5,310.3 L391.4,310.0 L392.2,310.6 L393.0,309.4 L393.9,309.4 L394.7,308.2 L395.6,305.5 L396.4,304.0 L397.3,301.5 L398.1,319.7 L398.9,301.2 L399.8,299.7 L400.6,300.0 L401.5,319.4 L402.3,319.4 L403.1,319.4 L404.0,318.8 L404.8,318.5 L405.7,318.2 L406.5,317.9 L407.3,317.9 L408.2,317.9 L409.0,318.2 L409.9,298.2 L410.7,299.7 L411.6,299.7 L412.4,300.0 L413.2,299.7 L414.1,300.0 L414.9,301.2 L415.8,301.5 L416.6,301.2 L417.4,301.2 L418.3,301.2 L419.1,301.8 L420.0,301.5 L420.8,301.8 L421.7,301.5 L422.5,301.2 L423.3,301.5 L424.2,301.8 L425.0,301.5 L425.9,301.8 L426.7,301.8 L427.5,302.1 L428.4,301.8 L429.2,301.8 L430.1,301.8 L430.9,301.8 L431.8,301.8 L432.6,301.2 L433.4,300.9 L434.3,300.9 L435.1,300.3 L436.0,300.0 L436.8,300.3 L437.6,300.3 L438.5,300.3 L439.3,300.6 L440.2,300.6 L441.0,300.6 L441.9,300.6 L442.7,300.6 L443.5,300.9 L444.4,300.9 L445.2,300.9 L446.1,300.6 L446.9,299.7 L447.7,299.4 L448.6,299.4 L449.4,299.1 L450.3,300.0 L451.1,300.3 L451.9,301.2 L452.8,302.1 L453.6,302.1 L454.5,302.1 L455.3,302.7 L456.2,302.4 L457.0,302.1 L457.8,301.2 L458.7,301.2 L459.5,301.2 L460.4,301.2 L461.2,301.2 L462.0,301.5 L462.9,301.8 L463.7,301.5 L464.6,301.8 L465.4,302.1 L466.3,301.5 L467.1,301.5 L467.9,302.1 L468.8,303.0 L469.6,302.1 L470.5,303.0 L471.3,303.0 L472.1,303.0 L473.0,303.0 L473.8,302.7 L474.7,303.3 L475.5,303.3 L476.4,303.3 L477.2,303.0 L478.0,303.3 L478.9,303.0 L479.7,302.7 L480.6,302.7 L481.4,302.7 L482.2,303.0 L483.1,303.0 L483.9,303.3 L484.8,303.7 L485.6,303.3 L486.5,303.7 L487.3,303.0 L488.1,303.3 L489.0,303.3 L489.8,302.4 L490.7,303.3 L491.5,303.3 L492.3,303.7 L493.2,304.6 L494.0,304.6 L494.9,304.9 L495.7,304.9 L496.5,304.6 L497.4,304.6 L498.2,304.9 L499.1,305.2 L499.9,305.5 L500.8,305.5 L501.6,305.2 L502.4,305.5 L503.3,305.2 L504.1,305.2 L505.0,305.5 L505.8,305.5 L506.6,304.0 L507.5,304.0 L508.3,303.7 L509.2,304.0 L510.0,304.0 L510.9,306.7 L511.7,304.9 L512.5,304.0 L513.4,303.7 L514.2,304.0 L515.1,303.7 L515.9,303.7 L516.7,304.0 L517.6,304.3 L518.4,304.3 L519.3,304.6 L520.1,304.3 L521.0,304.3 L521.8,304.6 L522.6,304.6 L523.5,304.9 L524.3,305.2 L525.2,305.5 L526.0,305.2 L526.8,305.5 L527.7,305.2 L528.5,306.1 L529.4,306.1 L530.2,306.1 L531.1,306.1 L531.9,306.1 L532.7,306.1 L533.6,306.4 L534.4,306.4 L535.3,306.4 L536.1,306.1 L536.9,306.4 L537.8,306.1 L538.6,305.8 L539.5,307.0 L540.3,307.3 L541.2,307.9 L542.0,307.6 L542.8,307.9 L543.7,308.5 L544.5,308.5 L545.4,308.2 L546.2,308.5 L547.0,308.5 L547.9,307.9 L548.7,308.8 L549.6,308.8 L550.4,308.5 L551.2,308.5 L552.1,308.8 L552.9,309.1 L553.8,308.8 L554.6,308.5 L555.5,308.5 L556.3,308.5 L557.1,308.5 L558.0,307.9 L558.8,308.5 L559.7,308.5 L560.5,308.5 L561.3,308.5 L562.2,308.5 L563.0,307.9 L563.9,307.9 L564.7,307.9 L565.6,308.8 L566.4,308.8 L567.2,310.3 L568.1,310.0 L568.9,309.1 L569.8,308.8 L570.6,309.1 L571.4,308.8 L572.3,308.8 L573.1,308.5 L574.0,308.2 L574.8,309.4 L575.7,308.8 L576.5,309.4 L577.3,309.1 L578.2,309.4 L579.0,309.4 L579.9,309.7 L580.7,310.0 L581.5,310.9 L582.4,310.9 L583.2,310.9 L584.1,310.9 L584.9,310.6 L585.8,310.6 L586.6,310.3 L587.4,311.2 L588.3,310.9 L589.1,314.0 L590.0,314.3 L590.8,313.0 L591.6,314.0 L592.5,313.3 L593.3,313.3 L594.2,314.0 L595.0,313.0 L595.8,313.0 L596.7,312.7 L597.5,311.8 L598.4,312.4 L599.2,312.4 L600.1,313.3 L600.9,313.0 L601.7,315.8 L602.6,317.0 L603.4,317.6 L604.3,317.9 L605.1,317.6 L605.9,317.9 L606.8,317.6 L607.6,317.9 L608.5,318.2 L609.3,317.9 L610.2,318.2 L611.0,318.5 L611.8,318.2 L612.7,318.8 L613.5,318.2 L614.4,317.9 L615.2,318.8 L616.0,318.8 L616.9,318.8 L617.7,319.1 L618.6,319.1 L619.4,318.8 L620.3,318.8 L621.1,318.8 L621.9,319.7 L622.8,321.2 L623.6,323.0 L624.5,323.0 L625.3,323.0 L626.1,323.3 L627.0,323.3 L627.8,324.9 L628.7,324.9 L629.5,324.6 L630.4,323.6 L631.2,323.6 L632.0,323.3 L632.9,323.6 L633.7,322.4 L634.6,320.9 L635.4,320.9 L636.2,319.1 L637.1,318.5 L637.9,318.2 L638.8,318.2 L639.6,318.5 L640.4,318.2 L641.3,318.2 L642.1,317.9 L643.0,318.2 L643.8,318.5 L644.7,318.8 L645.5,318.5 L646.3,318.5 L647.2,318.5 L648.0,319.7 L648.9,319.7 L649.7,319.4 L650.5,320.3 L651.4,320.6 L652.2,320.6 L653.1,320.3 L653.9,320.3 L654.8,320.3 L655.6,320.6 L656.4,320.3 L657.3,320.3 L658.1,320.6 L659.0,321.2 L659.8,321.2 L660.6,320.9 L661.5,320.9 L662.3,321.2 L663.2,321.2 L664.0,320.3 L664.9,320.3 L665.7,320.0 L666.5,319.7 L667.4,320.0 L668.2,320.3 L669.1,320.3 L669.9,321.5 L670.7,321.8 L671.6,322.7 L672.4,322.1 L673.3,322.4 L674.1,322.7 L675.0,322.7 L675.8,322.1 L676.6,322.4 L677.5,322.1 L678.3,322.7 L679.2,321.5 L680.0,321.2" stroke="#ff7f0e" stroke-width="2" fill="none" opacity="0.8"/>
<!-- Thermal Generation -->
<path d="M80.0,355.2 L80.8,355.2 L81.7,355.8 L82.5,357.3 L83.4,355.2 L84.2,355.2 L85.0,354.6 L85.9,354.6 L86.7,354.9 L87.6,354.6 L88.4,354.6 L89.3,354.3 L90.1,354.3 L90.9,354.6 L91.8,356.7 L92.6,357.0 L93.5,355.2 L94.3,356.4 L95.1,354.3 L96.0,353.3 L96.8,355.8 L97.7,355.5 L98.5,373.3 L99.4,373.0 L100.2,373.0 L101.0,372.7 L101.9,373.0 L102.7,373.3 L103.6,373.0 L104.4,373.0 L105.2,372.7 L106.1,373.3 L106.9,373.0 L107.8,373.0 L108.6,373.0 L109.5,373.0 L110.3,372.7 L111.1,373.3 L112.0,373.0 L112.8,373.0 L113.7,373.3 L114.5,373.0 L115.3,372.4 L116.2,372.1 L117.0,372.4 L117.9,372.7 L118.7,372.4 L119.6,372.7 L120.4,372.4 L121.2,372.4 L122.1,372.7 L122.9,373.0 L123.8,373.0 L124.6,373.3 L125.4,373.0 L126.3,372.7 L127.1,373.0 L128.0,373.0 L128.8,373.3 L129.6,373.0 L130.5,373.0 L131.3,373.0 L132.2,372.7 L133.0,373.3 L133.9,373.3 L134.7,372.4 L135.5,373.0 L136.4,372.7 L137.2,372.4 L138.1,372.4 L138.9,372.7 L139.7,372.7 L140.6,372.7 L141.4,372.7 L142.3,373.3 L143.1,373.0 L144.0,372.7 L144.8,372.7 L145.6,372.7 L146.5,372.7 L147.3,372.7 L148.2,372.7 L149.0,373.0 L149.8,372.7 L150.7,354.6 L151.5,354.3 L152.4,354.6 L153.2,314.6 L154.1,325.2 L154.9,332.4 L155.7,329.7 L156.6,301.8 L157.4,323.3 L158.3,318.2 L159.1,317.3 L159.9,294.9 L160.8,292.7 L161.6,304.9 L162.5,297.6 L163.3,332.1 L164.2,332.7 L165.0,372.4 L165.8,372.7 L166.7,372.7 L167.5,372.4 L168.4,372.7 L169.2,369.7 L170.0,373.0 L170.9,357.6 L171.7,333.3 L172.6,333.3 L173.4,296.1 L174.2,295.5 L175.1,330.3 L175.9,317.9 L176.8,295.2 L177.6,324.0 L178.5,333.0 L179.3,332.7 L180.1,333.0 L181.0,333.6 L181.8,333.3 L182.7,327.6 L183.5,334.9 L184.3,334.3 L185.2,333.9 L186.0,356.1 L186.9,373.0 L187.7,370.9 L188.6,350.9 L189.4,336.7 L190.2,336.1 L191.1,370.0 L191.9,333.9 L192.8,306.1 L193.6,299.4 L194.4,296.1 L195.3,295.5 L196.1,295.2 L197.0,296.1 L197.8,294.6 L198.7,320.0 L199.5,317.9 L200.3,323.0 L201.2,337.0 L202.0,317.6 L202.9,319.4 L203.7,335.5 L204.5,334.3 L205.4,334.6 L206.2,361.2 L207.1,351.8 L207.9,352.1 L208.8,350.9 L209.6,348.8 L210.4,332.7 L211.3,333.6 L212.1,333.6 L213.0,333.3 L213.8,297.0 L214.6,284.6 L215.5,311.5 L216.3,320.3 L217.2,309.7 L218.0,317.0 L218.8,326.4 L219.7,327.6 L220.5,327.0 L221.4,324.3 L222.2,320.9 L223.1,320.9 L223.9,337.6 L224.7,373.6 L225.6,372.7 L226.4,369.7 L227.3,372.1 L228.1,372.4 L228.9,372.4 L229.8,372.1 L230.6,372.4 L231.5,372.4 L232.3,348.5 L233.2,333.3 L234.0,287.9 L234.8,284.6 L235.7,287.3 L236.5,289.7 L237.4,299.1 L238.2,297.3 L239.0,313.0 L239.9,299.4 L240.7,308.8 L241.6,312.1 L242.4,308.8 L243.3,308.5 L244.1,334.3 L244.9,373.0 L245.8,372.4 L246.6,372.4 L247.5,373.0 L248.3,371.2 L249.1,372.4 L250.0,372.4 L250.8,369.1 L251.7,373.0 L252.5,373.0 L253.4,373.0 L254.2,371.2 L255.0,370.3 L255.9,373.0 L256.7,373.0 L257.6,374.9 L258.4,377.3 L259.2,377.6 L260.1,377.3 L260.9,377.3 L261.8,377.6 L262.6,377.6 L263.5,377.3 L264.3,377.3 L265.1,377.6 L266.0,377.6 L266.8,377.3 L267.7,377.6 L268.5,377.9 L269.3,378.2 L270.2,378.8 L271.0,378.5 L271.9,378.5 L272.7,378.5 L273.5,378.8 L274.4,378.2 L275.2,337.9 L276.1,338.8 L276.9,337.6 L277.8,337.6 L278.6,337.9 L279.4,359.7 L280.3,359.4 L281.1,358.8 L282.0,358.8 L282.8,332.4 L283.6,333.3 L284.5,333.0 L285.3,333.6 L286.2,333.3 L287.0,333.6 L287.9,333.6 L288.7,333.9 L289.5,334.9 L290.4,298.5 L291.2,309.7 L292.1,293.0 L292.9,292.7 L293.7,314.9 L294.6,325.8 L295.4,317.6 L296.3,332.7 L297.1,333.3 L298.0,333.9 L298.8,334.3 L299.6,330.9 L300.5,330.9 L301.3,331.2 L302.2,330.9 L303.0,329.7 L303.8,330.6 L304.7,325.2 L305.5,324.6 L306.4,324.6 L307.2,315.8 L308.1,325.5 L308.9,325.2 L309.7,315.5 L310.6,313.3 L311.4,313.6 L312.3,362.1 L313.1,350.0 L313.9,332.1 L314.8,327.9 L315.6,313.6 L316.5,293.0 L317.3,297.3 L318.1,293.0 L319.0,295.5 L319.8,328.8 L320.7,331.5 L321.5,341.2 L322.4,310.6 L323.2,287.9 L324.0,310.6 L324.9,329.7 L325.7,337.9 L326.6,324.6 L327.4,325.5 L328.2,335.8 L329.1,337.9 L329.9,331.8 L330.8,331.8 L331.6,331.8 L332.5,318.5 L333.3,300.9 L334.1,307.0 L335.0,305.8 L335.8,293.3 L336.7,297.9 L337.5,284.6 L338.3,290.6 L339.2,293.3 L340.0,288.5 L340.9,316.4 L341.7,324.3 L342.6,330.0 L343.4,329.7 L344.2,300.3 L345.1,323.0 L345.9,326.4 L346.8,325.8 L347.6,325.5 L348.4,311.2 L349.3,314.9 L350.1,311.8 L351.0,293.7 L351.8,299.1 L352.7,304.6 L353.5,308.2 L354.3,314.6 L355.2,307.9 L356.0,300.3 L356.9,304.0 L357.7,327.9 L358.5,308.8 L359.4,313.0 L360.2,335.8 L361.1,335.8 L361.9,371.2 L362.7,377.3 L363.6,376.7 L364.4,377.9 L365.3,374.9 L366.1,373.9 L367.0,374.6 L367.8,374.2 L368.6,374.2 L369.5,373.9 L370.3,374.2 L371.2,374.9 L372.0,374.9 L372.8,374.2 L373.7,374.6 L374.5,374.9 L375.4,375.2 L376.2,374.6 L377.1,373.3 L377.9,373.0 L378.7,378.5 L379.6,378.2 L380.4,377.9 L381.3,377.6 L382.1,377.6 L382.9,377.9 L383.8,377.3 L384.6,377.9 L385.5,373.3 L386.3,373.6 L387.2,373.9 L388.0,373.6 L388.8,373.6 L389.7,373.3 L390.5,373.3 L391.4,373.3 L392.2,373.3 L393.0,373.6 L393.9,373.9 L394.7,373.3 L395.6,373.6 L396.4,373.6 L397.3,373.0 L398.1,373.0 L398.9,374.9 L399.8,377.6 L400.6,377.6 L401.5,377.9 L402.3,377.9 L403.1,377.9 L404.0,378.2 L404.8,378.2 L405.7,378.5 L406.5,378.8 L407.3,377.9 L408.2,378.2 L409.0,377.9 L409.9,378.2 L410.7,377.9 L411.6,378.2 L412.4,378.5 L413.2,378.5 L414.1,377.9 L414.9,377.9 L415.8,378.5 L416.6,377.9 L417.4,359.7 L418.3,359.7 L419.1,377.6 L420.0,377.9 L420.8,377.9 L421.7,377.9 L422.5,377.6 L423.3,378.2 L424.2,378.8 L425.0,377.6 L425.9,375.2 L426.7,375.2 L427.5,375.2 L428.4,375.2 L429.2,374.6 L430.1,374.2 L430.9,374.9 L431.8,374.2 L432.6,374.9 L433.4,374.9 L434.3,375.2 L435.1,374.9 L436.0,319.4 L436.8,334.3 L437.6,375.2 L438.5,373.9 L439.3,356.1 L440.2,359.7 L441.0,378.8 L441.9,379.4 L442.7,379.4 L443.5,362.1 L444.4,350.3 L445.2,350.3 L446.1,378.5 L446.9,374.2 L447.7,371.5 L448.6,371.8 L449.4,370.6 L450.3,371.5 L451.1,380.6 L451.9,380.6 L452.8,381.5 L453.6,375.2 L454.5,369.4 L455.3,336.7 L456.2,329.7 L457.0,337.0 L457.8,320.0 L458.7,310.6 L459.5,299.7 L460.4,313.3 L461.2,368.5 L462.0,368.8 L462.9,366.4 L463.7,351.2 L464.6,353.9 L465.4,353.9 L466.3,365.8 L467.1,378.2 L467.9,371.8 L468.8,375.2 L469.6,374.9 L470.5,368.5 L471.3,304.0 L472.1,305.2 L473.0,356.7 L473.8,356.7 L474.7,356.4 L475.5,357.0 L476.4,320.0 L477.2,288.2 L478.0,300.9 L478.9,363.0 L479.7,365.8 L480.6,378.2 L481.4,377.6 L482.2,377.9 L483.1,378.2 L483.9,377.9 L484.8,378.2 L485.6,377.9 L486.5,377.9 L487.3,376.1 L488.1,375.2 L489.0,375.5 L489.8,374.9 L490.7,374.9 L491.5,374.9 L492.3,374.2 L493.2,374.9 L494.0,375.2 L494.9,375.2 L495.7,358.2 L496.5,357.6 L497.4,345.8 L498.2,337.0 L499.1,343.0 L499.9,353.9 L500.8,353.6 L501.6,353.6 L502.4,344.3 L503.3,344.3 L504.1,344.6 L505.0,339.7 L505.8,353.3 L506.6,363.6 L507.5,375.2 L508.3,375.8 L509.2,375.8 L510.0,375.2 L510.9,374.9 L511.7,375.2 L512.5,375.5 L513.4,375.5 L514.2,374.2 L515.1,357.0 L515.9,357.0 L516.7,338.8 L517.6,332.1 L518.4,311.2 L519.3,305.2 L520.1,335.2 L521.0,347.6 L521.8,359.1 L522.6,359.7 L523.5,359.1 L524.3,359.1 L525.2,358.8 L526.0,359.1 L526.8,357.0 L527.7,357.0 L528.5,357.0 L529.4,357.3 L530.2,356.4 L531.1,356.1 L531.9,357.3 L532.7,356.7 L533.6,357.0 L534.4,357.3 L535.3,356.7 L536.1,356.4 L536.9,351.5 L537.8,355.5 L538.6,355.5 L539.5,355.8 L540.3,358.5 L541.2,358.5 L542.0,359.4 L542.8,359.1 L543.7,358.8 L544.5,358.5 L545.4,358.8 L546.2,359.4 L547.0,359.7 L547.9,359.4 L548.7,360.0 L549.6,359.4 L550.4,359.7 L551.2,359.7 L552.1,359.1 L552.9,358.8 L553.8,359.4 L554.6,359.1 L555.5,358.8 L556.3,358.8 L557.1,358.8 L558.0,358.2 L558.8,358.8 L559.7,358.2 L560.5,358.5 L561.3,359.4 L562.2,359.1 L563.0,359.1 L563.9,352.1 L564.7,356.7 L565.6,359.4 L566.4,360.0 L567.2,357.6 L568.1,358.5 L568.9,357.3 L569.8,357.9 L570.6,357.6 L571.4,357.3 L572.3,357.6 L573.1,357.6 L574.0,357.0 L574.8,356.7 L575.7,303.0 L576.5,272.1 L577.3,268.2 L578.2,268.2 L579.0,296.1 L579.9,301.8 L580.7,315.2 L581.5,318.8 L582.4,335.2 L583.2,347.6 L584.1,359.4 L584.9,336.1 L585.8,335.8 L586.6,342.7 L587.4,361.5 L588.3,356.7 L589.1,357.6 L590.0,358.2 L590.8,357.6 L591.6,357.6 L592.5,357.6 L593.3,357.6 L594.2,357.9 L595.0,357.3 L595.8,357.6 L596.7,357.9 L597.5,358.2 L598.4,357.9 L599.2,357.9 L600.1,358.5 L600.9,361.8 L601.7,361.2 L602.6,361.5 L603.4,361.5 L604.3,361.2 L605.1,361.2 L605.9,361.2 L606.8,361.8 L607.6,361.5 L608.5,358.5 L609.3,362.1 L610.2,359.1 L611.0,356.7 L611.8,359.1 L612.7,356.7 L613.5,371.5 L614.4,358.5 L615.2,359.1 L616.0,358.2 L616.9,357.6 L617.7,357.9 L618.6,357.3 L619.4,357.6 L620.3,357.3 L621.1,361.5 L621.9,361.5 L622.8,361.5 L623.6,361.8 L624.5,361.5 L625.3,362.1 L626.1,361.8 L627.0,361.8 L627.8,362.4 L628.7,363.6 L629.5,370.0 L630.4,375.2 L631.2,375.8 L632.0,376.7 L632.9,376.4 L633.7,376.1 L634.6,376.1 L635.4,376.1 L636.2,376.4 L637.1,376.1 L637.9,363.3 L638.8,279.4 L639.6,275.5 L640.4,263.4 L641.3,278.2 L642.1,375.5 L643.0,377.6 L643.8,377.6 L644.7,377.6 L645.5,353.3 L646.3,353.3 L647.2,353.3 L648.0,353.6 L648.9,350.3 L649.7,362.4 L650.5,362.4 L651.4,347.6 L652.2,350.0 L653.1,322.1 L653.9,323.0 L654.8,327.3 L655.6,281.2 L656.4,263.0 L657.3,290.0 L658.1,239.1 L659.0,240.3 L659.8,262.4 L660.6,268.5 L661.5,264.6 L662.3,284.6 L663.2,346.1 L664.0,317.0 L664.9,335.2 L665.7,335.2 L666.5,348.2 L667.4,377.9 L668.2,376.1 L669.1,374.6 L669.9,374.9 L670.7,374.6 L671.6,374.2 L672.4,374.6 L673.3,374.6 L674.1,376.7 L675.0,374.2 L675.8,342.7 L676.6,313.3 L677.5,283.0 L678.3,235.5 L679.2,235.5 L680.0,235.8" stroke="#2ca02c" stroke-width="2" fill="none" opacity="0.8"/>
<!-- Solar Generation -->
<path d="M80.0,420.0 L80.8,420.0 L81.7,413.9 L82.5,402.7 L83.4,400.3 L84.2,400.0 L85.0,399.7 L85.9,399.4 L86.7,399.4 L87.6,399.4 L88.4,399.4 L89.3,399.7 L90.1,412.7 L90.9,413.9 L91.8,407.9 L92.6,411.2 L93.5,420.0 L94.3,420.0 L95.1,420.0 L96.0,420.0 L96.8,420.0 L97.7,420.0 L98.5,420.0 L99.4,420.0 L100.2,420.0 L101.0,420.0 L101.9,418.5 L102.7,403.6 L103.6,401.5 L104.4,402.4 L105.2,400.3 L106.1,399.7 L106.9,402.4 L107.8,400.3 L108.6,400.9 L109.5,409.7 L110.3,411.2 L111.1,415.5 L112.0,413.6 L112.8,413.9 L113.7,420.0 L114.5,420.0 L115.3,420.0 L116.2,420.0 L117.0,420.0 L117.9,420.0 L118.7,420.0 L119.6,420.0 L120.4,420.0 L121.2,420.0 L122.1,413.6 L122.9,417.3 L123.8,413.3 L124.6,411.5 L125.4,402.1 L126.3,389.1 L127.1,400.0 L128.0,384.9 L128.8,398.8 L129.6,404.5 L130.5,410.0 L131.3,402.4 L132.2,382.1 L133.0,412.4 L133.9,419.7 L134.7,420.0 L135.5,420.0 L136.4,420.0 L137.2,420.0 L138.1,420.0 L138.9,420.0 L139.7,420.0 L140.6,420.0 L141.4,420.0 L142.3,414.5 L143.1,412.4 L144.0,415.5 L144.8,415.2 L145.6,392.1 L146.5,394.9 L147.3,412.4 L148.2,406.1 L149.0,401.5 L149.8,406.7 L150.7,389.1 L151.5,402.7 L152.4,398.5 L153.2,413.9 L154.1,419.7 L154.9,420.0 L155.7,420.0 L156.6,420.0 L157.4,420.0 L158.3,420.0 L159.1,420.0 L159.9,420.0 L160.8,420.0 L161.6,420.0 L162.5,408.8 L163.3,400.6 L164.2,380.3 L165.0,376.7 L165.8,376.7 L166.7,376.4 L167.5,383.9 L168.4,387.6 L169.2,403.0 L170.0,399.7 L170.9,408.8 L171.7,403.3 L172.6,401.2 L173.4,411.2 L174.2,419.7 L175.1,420.0 L175.9,420.0 L176.8,420.0 L177.6,420.0 L178.5,420.0 L179.3,420.0 L180.1,420.0 L181.0,420.0 L181.8,420.0 L182.7,411.5 L183.5,391.2 L184.3,379.1 L185.2,377.9 L186.0,376.7 L186.9,392.4 L187.7,377.9 L188.6,395.8 L189.4,399.4 L190.2,397.3 L191.1,390.9 L191.9,397.9 L192.8,413.0 L193.6,417.9 L194.4,420.0 L195.3,420.0 L196.1,420.0 L197.0,420.0 L197.8,420.0 L198.7,420.0 L199.5,420.0 L200.3,420.0 L201.2,420.0 L202.0,420.0 L202.9,419.4 L203.7,416.4 L204.5,397.9 L205.4,397.9 L206.2,400.0 L207.1,386.1 L207.9,390.6 L208.8,385.8 L209.6,393.6 L210.4,389.1 L211.3,394.2 L212.1,388.5 L213.0,391.2 L213.8,412.4 L214.6,420.0 L215.5,420.0 L216.3,420.0 L217.2,420.0 L218.0,420.0 L218.8,420.0 L219.7,420.0 L220.5,420.0 L221.4,420.0 L222.2,420.0 L223.1,407.3 L223.9,385.2 L224.7,377.6 L225.6,376.4 L226.4,385.8 L227.3,380.6 L228.1,383.0 L228.9,380.3 L229.8,384.9 L230.6,392.7 L231.5,404.2 L232.3,403.3 L233.2,397.9 L234.0,417.0 L234.8,420.0 L235.7,420.0 L236.5,420.0 L237.4,420.0 L238.2,420.0 L239.0,420.0 L239.9,420.0 L240.7,420.0 L241.6,420.0 L242.4,420.0 L243.3,410.0 L244.1,385.5 L244.9,378.5 L245.8,376.4 L246.6,375.8 L247.5,398.8 L248.3,400.3 L249.1,400.6 L250.0,410.0 L250.8,410.6 L251.7,400.0 L252.5,394.5 L253.4,392.1 L254.2,407.9 L255.0,419.7 L255.9,420.0 L256.7,420.0 L257.6,420.0 L258.4,420.0 L259.2,420.0 L260.1,420.0 L260.9,420.0 L261.8,420.0 L262.6,420.0 L263.5,408.5 L264.3,388.5 L265.1,394.2 L266.0,376.1 L266.8,399.1 L267.7,376.4 L268.5,400.3 L269.3,399.4 L270.2,399.7 L271.0,389.4 L271.9,387.0 L272.7,388.5 L273.5,392.7 L274.4,408.8 L275.2,419.4 L276.1,420.0 L276.9,420.0 L277.8,420.0 L278.6,420.0 L279.4,420.0 L280.3,420.0 L281.1,420.0 L282.0,420.0 L282.8,420.0 L283.6,407.3 L284.5,385.2 L285.3,399.7 L286.2,376.1 L287.0,375.8 L287.9,376.7 L288.7,394.2 L289.5,379.4 L290.4,394.9 L291.2,386.4 L292.1,399.7 L292.9,405.5 L293.7,414.2 L294.6,418.2 L295.4,419.7 L296.3,420.0 L297.1,420.0 L298.0,420.0 L298.8,420.0 L299.6,420.0 L300.5,420.0 L301.3,420.0 L302.2,420.0 L303.0,420.0 L303.8,411.5 L304.7,409.7 L305.5,392.1 L306.4,393.3 L307.2,398.8 L308.1,402.4 L308.9,398.5 L309.7,396.1 L310.6,400.3 L311.4,396.4 L312.3,399.1 L313.1,410.3 L313.9,389.1 L314.8,410.0 L315.6,419.7 L316.5,420.0 L317.3,420.0 L318.1,420.0 L319.0,420.0 L319.8,420.0 L320.7,420.0 L321.5,420.0 L322.4,420.0 L323.2,420.0 L324.0,410.3 L324.9,383.9 L325.7,381.8 L326.6,378.5 L327.4,378.2 L328.2,379.1 L329.1,380.0 L329.9,377.6 L330.8,378.2 L331.6,385.8 L332.5,386.4 L333.3,403.0 L334.1,403.0 L335.0,414.2 L335.8,419.7 L336.7,420.0 L337.5,420.0 L338.3,420.0 L339.2,420.0 L340.0,420.0 L340.9,420.0 L341.7,420.0 L342.6,420.0 L343.4,420.0 L344.2,411.5 L345.1,387.3 L345.9,382.7 L346.8,378.2 L347.6,377.0 L348.4,379.4 L349.3,379.4 L350.1,385.5 L351.0,385.5 L351.8,395.2 L352.7,380.9 L353.5,390.6 L354.3,409.4 L355.2,411.2 L356.0,419.4 L356.9,420.0 L357.7,420.0 L358.5,420.0 L359.4,420.0 L360.2,420.0 L361.1,420.0 L361.9,420.0 L362.7,420.0 L363.6,419.4 L364.4,410.6 L365.3,383.9 L366.1,380.0 L367.0,376.7 L367.8,375.8 L368.6,378.8 L369.5,380.3 L370.3,403.0 L371.2,382.4 L372.0,397.6 L372.8,402.1 L373.7,403.0 L374.5,403.0 L375.4,413.3 L376.2,419.7 L377.1,420.0 L377.9,420.0 L378.7,420.0 L379.6,420.0 L380.4,420.0 L381.3,420.0 L382.1,420.0 L382.9,420.0 L383.8,420.0 L384.6,417.9 L385.5,417.9 L386.3,416.7 L387.2,415.2 L388.0,415.2 L388.8,412.4 L389.7,402.1 L390.5,404.9 L391.4,410.9 L392.2,418.2 L393.0,416.7 L393.9,409.4 L394.7,407.3 L395.6,416.7 L396.4,419.7 L397.3,420.0 L398.1,420.0 L398.9,420.0 L399.8,420.0 L400.6,420.0 L401.5,420.0 L402.3,420.0 L403.1,420.0 L404.0,420.0 L404.8,419.7 L405.7,418.5 L406.5,417.0 L407.3,415.5 L408.2,414.5 L409.0,410.3 L409.9,410.9 L410.7,413.0 L411.6,409.7 L412.4,409.1 L413.2,413.6 L414.1,416.1 L414.9,413.9 L415.8,415.8 L416.6,419.7 L417.4,420.0 L418.3,420.0 L419.1,420.0 L420.0,420.0 L420.8,420.0 L421.7,420.0 L422.5,420.0 L423.3,420.0 L424.2,420.0 L425.0,406.1 L425.9,385.5 L426.7,381.2 L427.5,377.6 L428.4,377.0 L429.2,378.5 L430.1,382.4 L430.9,382.4 L431.8,377.0 L432.6,381.5 L433.4,379.1 L434.3,384.2 L435.1,400.6 L436.0,407.3 L436.8,419.4 L437.6,420.0 L438.5,420.0 L439.3,420.0 L440.2,420.0 L441.0,420.0 L441.9,420.0 L442.7,420.0 L443.5,420.0 L444.4,419.7 L445.2,405.5 L446.1,384.5 L446.9,384.9 L447.7,393.9 L448.6,392.4 L449.4,383.6 L450.3,389.4 L451.1,384.5 L451.9,386.1 L452.8,389.1 L453.6,387.9 L454.5,406.4 L455.3,398.5 L456.2,414.8 L457.0,418.8 L457.8,420.0 L458.7,420.0 L459.5,420.0 L460.4,420.0 L461.2,420.0 L462.0,420.0 L462.9,420.0 L463.7,420.0 L464.6,420.0 L465.4,412.4 L466.3,393.3 L467.1,377.9 L467.9,377.0 L468.8,377.3 L469.6,375.8 L470.5,375.8 L471.3,375.8 L472.1,376.1 L473.0,390.3 L473.8,387.9 L474.7,388.5 L475.5,402.7 L476.4,416.1 L477.2,419.7 L478.0,420.0 L478.9,420.0 L479.7,420.0 L480.6,420.0 L481.4,420.0 L482.2,420.0 L483.1,420.0 L483.9,420.0 L484.8,420.0 L485.6,417.9 L486.5,400.3 L487.3,384.5 L488.1,384.2 L489.0,394.9 L489.8,387.0 L490.7,383.9 L491.5,378.8 L492.3,382.4 L493.2,382.7 L494.0,387.6 L494.9,385.8 L495.7,388.5 L496.5,405.2 L497.4,418.8 L498.2,420.0 L499.1,420.0 L499.9,420.0 L500.8,420.0 L501.6,420.0 L502.4,420.0 L503.3,420.0 L504.1,420.0 L505.0,419.7 L505.8,407.9 L506.6,382.4 L507.5,377.6 L508.3,376.4 L509.2,376.7 L510.0,378.5 L510.9,378.2 L511.7,375.5 L512.5,375.8 L513.4,383.9 L514.2,380.6 L515.1,381.8 L515.9,390.6 L516.7,405.2 L517.6,419.1 L518.4,420.0 L519.3,420.0 L520.1,420.0 L521.0,420.0 L521.8,420.0 L522.6,420.0 L523.5,420.0 L524.3,420.0 L525.2,419.7 L526.0,407.6 L526.8,412.7 L527.7,408.2 L528.5,403.9 L529.4,400.3 L530.2,392.4 L531.1,381.8 L531.9,385.2 L532.7,405.5 L533.6,391.2 L534.4,403.9 L535.3,414.2 L536.1,404.9 L536.9,418.5 L537.8,419.1 L538.6,420.0 L539.5,420.0 L540.3,420.0 L541.2,420.0 L542.0,420.0 L542.8,420.0 L543.7,420.0 L544.5,420.0 L545.4,420.0 L546.2,418.8 L547.0,415.8 L547.9,413.6 L548.7,413.6 L549.6,406.4 L550.4,405.5 L551.2,400.6 L552.1,403.3 L552.9,406.1 L553.8,415.2 L554.6,414.8 L555.5,413.0 L556.3,391.2 L557.1,397.0 L558.0,418.2 L558.8,420.0 L559.7,420.0 L560.5,420.0 L561.3,420.0 L562.2,420.0 L563.0,420.0 L563.9,420.0 L564.7,420.0 L565.6,419.7 L566.4,416.1 L567.2,391.8 L568.1,387.9 L568.9,377.9 L569.8,375.8 L570.6,375.5 L571.4,375.5 L572.3,375.5 L573.1,386.7 L574.0,387.6 L574.8,389.4 L575.7,396.1 L576.5,408.5 L577.3,411.8 L578.2,419.4 L579.0,420.0 L579.9,420.0 L580.7,420.0 L581.5,420.0 L582.4,420.0 L583.2,420.0 L584.1,420.0 L584.9,420.0 L585.8,420.0 L586.6,417.0 L587.4,410.6 L588.3,410.0 L589.1,407.6 L590.0,402.7 L590.8,407.6 L591.6,409.7 L592.5,400.6 L593.3,403.3 L594.2,414.8 L595.0,410.3 L595.8,415.2 L596.7,397.0 L597.5,410.6 L598.4,418.2 L599.2,420.0 L600.1,420.0 L600.9,420.0 L601.7,420.0 L602.6,420.0 L603.4,420.0 L604.3,420.0 L605.1,420.0 L605.9,419.4 L606.8,404.5 L607.6,397.9 L608.5,400.9 L609.3,399.7 L610.2,399.7 L611.0,400.0 L611.8,405.2 L612.7,404.5 L613.5,401.2 L614.4,392.1 L615.2,383.9 L616.0,393.9 L616.9,402.1 L617.7,413.3 L618.6,418.2 L619.4,420.0 L620.3,420.0 L621.1,420.0 L621.9,420.0 L622.8,420.0 L623.6,420.0 L624.5,420.0 L625.3,420.0 L626.1,420.0 L627.0,411.5 L627.8,415.2 L628.7,401.2 L629.5,380.9 L630.4,376.4 L631.2,375.8 L632.0,377.0 L632.9,381.2 L633.7,378.5 L634.6,377.6 L635.4,376.4 L636.2,376.7 L637.1,378.2 L637.9,398.2 L638.8,418.2 L639.6,420.0 L640.4,420.0 L641.3,420.0 L642.1,420.0 L643.0,420.0 L643.8,420.0 L644.7,420.0 L645.5,420.0 L646.3,419.7 L647.2,403.9 L648.0,381.5 L648.9,377.0 L649.7,376.4 L650.5,375.8 L651.4,376.4 L652.2,376.4 L653.1,380.9 L653.9,390.9 L654.8,392.7 L655.6,397.3 L656.4,392.7 L657.3,394.9 L658.1,404.9 L659.0,419.4 L659.8,420.0 L660.6,420.0 L661.5,420.0 L662.3,420.0 L663.2,420.0 L664.0,420.0 L664.9,420.0 L665.7,420.0 L666.5,420.0 L667.4,416.7 L668.2,416.1 L669.1,409.4 L669.9,395.8 L670.7,388.8 L671.6,390.9 L672.4,384.9 L673.3,378.8 L674.1,379.1 L675.0,381.2 L675.8,398.2 L676.6,395.5 L677.5,397.9 L678.3,406.4 L679.2,419.1 L680.0,420.0" stroke="#d62728" stroke-width="2" fill="none" opacity="0.8"/>
<!-- Forecast -->
<path d="M80.0,260.6 L80.8,249.7 L81.7,225.2 L82.5,198.8 L83.4,179.1 L84.2,171.5 L85.0,167.0 L85.9,168.2 L86.7,169.4 L87.6,171.8 L88.4,173.7 L89.3,174.0 L90.1,174.9 L90.9,174.0 L91.8,178.8 L92.6,185.5 L93.5,187.0 L94.3,190.0 L95.1,206.7 L96.0,228.2 L96.8,245.8 L97.7,254.6 L98.5,259.7 L99.4,262.7 L100.2,262.4 L101.0,261.2 L101.9,250.6 L102.7,235.8 L103.6,218.5 L104.4,203.1 L105.2,196.1 L106.1,197.0 L106.9,197.3 L107.8,200.3 L108.6,205.8 L109.5,207.0 L110.3,204.6 L111.1,201.8 L112.0,200.9 L112.8,203.4 L113.7,200.3 L114.5,200.6 L115.3,211.8 L116.2,228.2 L117.0,241.2 L117.9,248.8 L118.7,254.0 L119.6,255.5 L120.4,254.0 L121.2,250.9 L122.1,241.2 L122.9,230.3 L123.8,212.1 L124.6,195.2 L125.4,187.9 L126.3,187.0 L127.1,188.8 L128.0,189.1 L128.8,193.4 L129.6,195.2 L130.5,192.1 L131.3,184.6 L132.2,187.9 L133.0,185.8 L133.9,181.5 L134.7,185.2 L135.5,204.9 L136.4,224.0 L137.2,237.9 L138.1,245.5 L138.9,248.8 L139.7,250.0 L140.6,246.7 L141.4,234.3 L142.3,208.8 L143.1,180.9 L144.0,162.8 L144.8,157.0 L145.6,157.3 L146.5,160.3 L147.3,163.7 L148.2,167.3 L149.0,170.3 L149.8,171.5 L150.7,172.2 L151.5,172.8 L152.4,177.9 L153.2,180.9 L154.1,179.4 L154.9,182.8 L155.7,201.5 L156.6,226.1 L157.4,239.7 L158.3,244.3 L159.1,247.0 L159.9,248.2 L160.8,244.6 L161.6,233.1 L162.5,208.8 L163.3,182.5 L164.2,166.1 L165.0,162.5 L165.8,162.8 L166.7,166.4 L167.5,169.1 L168.4,171.8 L169.2,174.0 L170.0,175.5 L170.9,176.4 L171.7,176.4 L172.6,181.2 L173.4,187.0 L174.2,186.7 L175.1,189.7 L175.9,206.7 L176.8,229.4 L177.6,243.7 L178.5,254.0 L179.3,259.1 L180.1,261.2 L181.0,257.9 L181.8,245.8 L182.7,223.1 L183.5,197.6 L184.3,180.6 L185.2,174.0 L186.0,169.4 L186.9,170.0 L187.7,171.2 L188.6,173.4 L189.4,175.2 L190.2,176.4 L191.1,176.4 L191.9,176.4 L192.8,181.2 L193.6,187.6 L194.4,186.7 L195.3,190.3 L196.1,207.9 L197.0,229.7 L197.8,246.1 L198.7,255.2 L199.5,260.0 L200.3,262.1 L201.2,259.4 L202.0,247.0 L202.9,221.2 L203.7,190.9 L204.5,171.2 L205.4,165.2 L206.2,163.4 L207.1,166.4 L207.9,169.4 L208.8,172.5 L209.6,175.2 L210.4,176.7 L211.3,177.6 L212.1,177.3 L213.0,181.8 L213.8,187.9 L214.6,187.9 L215.5,190.9 L216.3,208.2 L217.2,216.1 L218.0,220.0 L218.8,224.0 L219.7,227.9 L220.5,231.8 L221.4,235.8 L222.2,239.7 L223.1,221.5 L223.9,197.0 L224.7,181.5 L225.6,175.5 L226.4,171.8 L227.3,172.8 L228.1,173.7 L228.9,175.2 L229.8,176.7 L230.6,177.6 L231.5,177.0 L232.3,175.5 L233.2,180.0 L234.0,186.1 L234.8,189.7 L235.7,192.1 L236.5,209.1 L237.4,239.4 L238.2,251.5 L239.0,259.7 L239.9,265.5 L240.7,268.2 L241.6,267.3 L242.4,265.5 L243.3,259.4 L244.1,245.2 L244.9,230.0 L245.8,219.7 L246.6,211.2 L247.5,210.0 L248.3,207.9 L249.1,209.7 L250.0,212.8 L250.8,213.4 L251.7,214.9 L252.5,216.4 L253.4,215.2 L254.2,215.8 L255.0,215.5 L255.9,212.8 L256.7,223.7 L257.6,239.1 L258.4,254.6 L259.2,266.1 L260.1,272.7 L260.9,275.2 L261.8,274.0 L262.6,270.9 L263.5,268.8 L264.3,257.6 L265.1,246.1 L266.0,228.8 L266.8,216.1 L267.7,215.8 L268.5,211.5 L269.3,209.7 L270.2,207.3 L271.0,202.8 L271.9,197.9 L272.7,191.8 L273.5,187.3 L274.4,193.1 L275.2,200.0 L276.1,199.4 L276.9,211.5 L277.8,235.5 L278.6,256.1 L279.4,267.9 L280.3,274.9 L281.1,277.6 L282.0,276.4 L282.8,273.0 L283.6,274.3 L284.5,261.2 L285.3,249.1 L286.2,230.3 L287.0,216.7 L287.9,217.6 L288.7,211.5 L289.5,207.9 L290.4,204.3 L291.2,200.6 L292.1,198.2 L292.9,192.8 L293.7,187.3 L294.6,191.8 L295.4,198.5 L296.3,197.0 L297.1,209.7 L298.0,232.1 L298.8,245.8 L299.6,255.2 L300.5,262.1 L301.3,265.2 L302.2,264.6 L303.0,255.5 L303.8,233.4 L304.7,204.3 L305.5,182.8 L306.4,173.4 L307.2,170.6 L308.1,169.7 L308.9,170.3 L309.7,171.8 L310.6,172.8 L311.4,173.7 L312.3,174.0 L313.1,173.4 L313.9,179.1 L314.8,185.2 L315.6,188.5 L316.5,189.7 L317.3,206.7 L318.1,232.1 L319.0,250.0 L319.8,257.9 L320.7,263.7 L321.5,265.5 L322.4,264.0 L323.2,254.0 L324.0,230.3 L324.9,202.8 L325.7,182.8 L326.6,175.2 L327.4,170.9 L328.2,171.5 L329.1,173.1 L329.9,175.2 L330.8,177.0 L331.6,178.2 L332.5,178.8 L333.3,177.6 L334.1,182.5 L335.0,188.8 L335.8,191.5 L336.7,193.1 L337.5,209.4 L338.3,214.3 L339.2,214.3 L340.0,214.3 L340.9,214.3 L341.7,214.3 L342.6,214.3 L343.4,214.3 L344.2,214.3 L345.1,214.3 L345.9,214.3 L346.8,214.3 L347.6,214.3 L348.4,214.3 L349.3,214.3 L350.1,214.3 L351.0,214.3 L351.8,214.3 L352.7,214.3 L353.5,214.3 L354.3,214.3 L355.2,214.3 L356.0,214.3 L356.9,214.3 L357.7,214.3 L358.5,214.3 L359.4,240.0 L360.2,247.3 L361.1,254.3 L361.9,258.2 L362.7,258.8 L363.6,249.1 L364.4,227.6 L365.3,195.2 L366.1,170.6 L367.0,159.4 L367.8,155.5 L368.6,152.8 L369.5,151.9 L370.3,151.5 L371.2,144.9 L372.0,146.4 L372.8,148.5 L373.7,149.7 L374.5,158.2 L375.4,169.4 L376.2,176.7 L377.1,179.7 L377.9,197.6 L378.7,234.9 L379.6,245.8 L380.4,252.4 L381.3,260.6 L382.1,264.0 L382.9,266.7 L383.8,259.4 L384.6,254.3 L385.5,242.7 L386.3,230.0 L387.2,217.9 L388.0,207.3 L388.8,205.2 L389.7,203.7 L390.5,207.0 L391.4,211.2 L392.2,212.8 L393.0,209.7 L393.9,207.3 L394.7,207.6 L395.6,211.8 L396.4,212.1 L397.3,210.3 L398.1,221.2 L398.9,240.6 L399.8,253.7 L400.6,264.0 L401.5,271.2 L402.3,273.7 L403.1,272.7 L404.0,270.3 L404.8,261.8 L405.7,248.2 L406.5,229.4 L407.3,214.3 L408.2,207.6 L409.0,202.1 L409.9,202.1 L410.7,204.6 L411.6,207.3 L412.4,208.2 L413.2,206.4 L414.1,200.9 L414.9,200.9 L415.8,206.1 L416.6,206.7 L417.4,204.9 L418.3,216.4 L419.1,212.4 L420.0,222.8 L420.8,230.9 L421.7,236.4 L422.5,238.5 L423.3,237.0 L424.2,228.5 L425.0,204.9 L425.9,176.4 L426.7,156.7 L427.5,147.9 L428.4,143.1 L429.2,143.4 L430.1,144.6 L430.9,146.4 L431.8,147.9 L432.6,148.8 L433.4,148.2 L434.3,149.4 L435.1,155.5 L436.0,162.5 L436.8,164.3 L437.6,167.6 L438.5,183.1 L439.3,207.0 L440.2,223.1 L441.0,232.4 L441.9,237.9 L442.7,240.3 L443.5,238.2 L444.4,229.1 L445.2,206.7 L446.1,179.7 L446.9,160.0 L447.7,151.9 L448.6,146.7 L449.4,146.7 L450.3,147.6 L451.1,149.1 L451.9,150.3 L452.8,150.6 L453.6,149.7 L454.5,150.3 L455.3,155.8 L456.2,162.2 L457.0,165.2 L457.8,167.9 L458.7,183.7 L459.5,204.0 L460.4,224.0 L461.2,233.1 L462.0,239.1 L462.9,241.2 L463.7,239.4 L464.6,229.7 L465.4,208.5 L466.3,182.8 L467.1,164.0 L467.9,155.8 L468.8,149.4 L469.6,148.5 L470.5,148.2 L471.3,148.8 L472.1,148.8 L473.0,145.2 L473.8,142.5 L474.7,143.7 L475.5,151.2 L476.4,156.4 L477.2,160.3 L478.0,162.8 L478.9,179.4 L479.7,209.7 L480.6,226.1 L481.4,236.1 L482.2,242.7 L483.1,246.1 L483.9,245.5 L484.8,237.6 L485.6,217.3 L486.5,191.8 L487.3,170.3 L488.1,161.2 L489.0,155.2 L489.8,154.0 L490.7,154.0 L491.5,154.6 L492.3,154.3 L493.2,155.5 L494.0,155.2 L494.9,155.2 L495.7,160.0 L496.5,165.2 L497.4,168.8 L498.2,170.9 L499.1,187.3 L499.9,205.5 L500.8,228.5 L501.6,238.8 L502.4,245.2 L503.3,247.3 L504.1,245.8 L505.0,234.9 L505.8,214.6 L506.6,189.1 L507.5,168.2 L508.3,157.9 L509.2,152.2 L510.0,149.1 L510.9,147.6 L511.7,145.2 L512.5,141.9 L513.4,136.4 L514.2,132.2 L515.1,128.5 L515.9,138.5 L516.7,150.0 L517.6,157.3 L518.4,160.9 L519.3,178.8 L520.1,217.6 L521.0,226.4 L521.8,233.4 L522.6,240.9 L523.5,244.3 L524.3,246.7 L525.2,244.0 L526.0,237.6 L526.8,224.3 L527.7,212.4 L528.5,203.4 L529.4,192.8 L530.2,189.1 L531.1,186.7 L531.9,188.5 L532.7,188.5 L533.6,191.8 L534.4,193.7 L535.3,191.5 L536.1,193.4 L536.9,195.8 L537.8,196.7 L538.6,194.6 L539.5,204.6 L540.3,220.3 L541.2,233.1 L542.0,244.0 L542.8,250.3 L543.7,252.1 L544.5,251.2 L545.4,249.4 L546.2,242.4 L547.0,228.8 L547.9,211.5 L548.7,196.4 L549.6,188.8 L550.4,183.1 L551.2,182.5 L552.1,185.5 L552.9,187.9 L553.8,188.2 L554.6,187.9 L555.5,185.2 L556.3,183.1 L557.1,187.6 L558.0,188.5 L558.8,186.7 L559.7,197.6 L560.5,210.6 L561.3,226.1 L562.2,235.5 L563.0,240.0 L563.9,242.4 L564.7,239.4 L565.6,229.7 L566.4,208.8 L567.2,183.1 L568.1,164.6 L568.9,157.0 L569.8,152.2 L570.6,151.2 L571.4,151.5 L572.3,151.9 L573.1,151.9 L574.0,151.2 L574.8,149.4 L575.7,150.0 L576.5,156.4 L577.3,163.1 L578.2,166.4 L579.0,168.5 L579.9,184.6 L580.7,211.2 L581.5,227.9 L582.4,237.9 L583.2,244.6 L584.1,247.3 L584.9,246.4 L585.8,237.0 L586.6,215.2 L587.4,188.2 L588.3,167.9 L589.1,158.8 L590.0,153.7 L590.8,152.2 L591.6,152.2 L592.5,153.4 L593.3,154.0 L594.2,154.6 L595.0,154.3 L595.8,155.8 L596.7,162.2 L597.5,168.5 L598.4,171.2 L599.2,173.4 L600.1,189.1 L600.9,211.2 L601.7,230.0 L602.6,238.5 L603.4,243.4 L604.3,245.5 L605.1,244.0 L605.9,234.0 L606.8,211.2 L607.6,182.8 L608.5,161.5 L609.3,153.1 L610.2,148.5 L611.0,149.1 L611.8,150.3 L612.7,152.5 L613.5,154.6 L614.4,155.2 L615.2,154.9 L616.0,156.4 L616.9,161.8 L617.7,167.9 L618.6,169.1 L619.4,173.1 L620.3,189.4 L621.1,210.6 L621.9,228.5 L622.8,239.4 L623.6,245.2 L624.5,247.9 L625.3,245.8 L626.1,237.0 L627.0,217.9 L627.8,193.7 L628.7,174.0 L629.5,160.0 L630.4,153.4 L631.2,147.3 L632.0,141.9 L632.9,140.0 L633.7,143.7 L634.6,145.5 L635.4,146.4 L636.2,148.8 L637.1,154.3 L637.9,161.5 L638.8,170.0 L639.6,176.1 L640.4,189.1 L641.3,207.9 L642.1,227.6 L643.0,238.5 L643.8,244.3 L644.7,247.0 L645.5,245.5 L646.3,237.0 L647.2,217.3 L648.0,193.4 L648.9,171.2 L649.7,159.1 L650.5,152.5 L651.4,147.0 L652.2,144.6 L653.1,142.2 L653.9,138.2 L654.8,130.9 L655.6,129.7 L656.4,134.0 L657.3,144.0 L658.1,155.2 L659.0,162.8 L659.8,168.5 L660.6,184.0 L661.5,211.5 L662.3,225.5 L663.2,234.6 L664.0,241.5 L664.9,245.8 L665.7,246.7 L666.5,245.2 L667.4,238.5 L668.2,227.6 L669.1,212.4 L669.9,195.8 L670.7,186.1 L671.6,187.6 L672.4,187.9 L673.3,190.3 L674.1,190.6 L675.0,195.2 L675.8,198.5 L676.6,197.6 L677.5,199.7 L678.3,203.4 L679.2,205.8 L680.0,206.1" stroke="#9467bd" stroke-width="2" fill="none" opacity="0.8"/>
<!-- Total Generation -->
<path d="M80.0,186.7 L80.8,158.5 L81.7,144.6 L82.5,140.6 L83.4,152.8 L84.2,130.0 L85.0,127.9 L85.9,126.1 L86.7,147.6 L87.6,160.3 L88.4,140.9 L89.3,137.3 L90.1,167.0 L90.9,178.8 L91.8,175.8 L92.6,187.6 L93.5,199.7 L94.3,204.9 L95.1,224.6 L96.0,225.8 L96.8,230.0 L97.7,221.8 L98.5,243.7 L99.4,250.9 L100.2,254.6 L101.0,244.6 L101.9,243.4 L102.7,233.7 L103.6,225.5 L104.4,225.5 L105.2,227.0 L106.1,226.4 L106.9,237.0 L107.8,237.0 L108.6,242.4 L109.5,250.0 L110.3,224.6 L111.1,220.3 L112.0,195.8 L112.8,198.5 L113.7,224.6 L114.5,221.5 L115.3,238.8 L116.2,231.5 L117.0,209.4 L117.9,220.9 L118.7,225.5 L119.6,225.5 L120.4,237.0 L121.2,246.7 L122.1,220.0 L122.9,237.9 L123.8,228.2 L124.6,225.8 L125.4,216.7 L126.3,172.5 L127.1,176.1 L128.0,159.4 L128.8,172.5 L129.6,200.3 L130.5,204.9 L131.3,202.8 L132.2,156.1 L133.0,196.7 L133.9,224.9 L134.7,226.1 L135.5,228.2 L136.4,244.9 L137.2,232.8 L138.1,239.1 L138.9,237.6 L139.7,243.1 L140.6,234.9 L141.4,240.9 L142.3,235.5 L143.1,218.5 L144.0,220.6 L144.8,230.3 L145.6,210.6 L146.5,221.5 L147.3,224.0 L148.2,231.5 L149.0,243.4 L149.8,247.3 L150.7,203.7 L151.5,215.5 L152.4,217.9 L153.2,194.9 L154.1,220.3 L154.9,221.2 L155.7,214.3 L156.6,181.2 L157.4,210.3 L158.3,211.2 L159.1,212.4 L159.9,192.1 L160.8,189.1 L161.6,197.3 L162.5,177.0 L163.3,206.1 L164.2,176.7 L165.0,199.7 L165.8,186.7 L166.7,175.8 L167.5,175.5 L168.4,180.3 L169.2,187.3 L170.0,207.6 L170.9,197.6 L171.7,167.3 L172.6,167.6 L173.4,141.9 L174.2,158.8 L175.1,209.4 L175.9,197.6 L176.8,171.8 L177.6,185.2 L178.5,187.6 L179.3,175.2 L180.1,178.5 L181.0,190.9 L181.8,184.0 L182.7,184.9 L183.5,183.4 L184.3,170.0 L185.2,144.9 L186.0,151.9 L186.9,201.5 L187.7,178.2 L188.6,184.3 L189.4,171.5 L190.2,185.2 L191.1,201.5 L191.9,171.8 L192.8,163.7 L193.6,173.4 L194.4,180.0 L195.3,182.8 L196.1,182.5 L197.0,187.9 L197.8,178.8 L198.7,208.2 L199.5,193.4 L200.3,186.4 L201.2,191.2 L202.0,180.0 L202.9,179.7 L203.7,194.6 L204.5,172.8 L205.4,187.3 L206.2,219.7 L207.1,197.3 L207.9,201.5 L208.8,203.7 L209.6,199.1 L210.4,182.2 L211.3,200.0 L212.1,184.0 L213.0,175.2 L213.8,167.6 L214.6,177.3 L215.5,198.8 L216.3,195.2 L217.2,190.3 L218.0,202.5 L218.8,218.2 L219.7,212.4 L220.5,207.0 L221.4,205.8 L222.2,206.7 L223.1,197.6 L223.9,194.9 L224.7,231.5 L225.6,229.7 L226.4,236.4 L227.3,236.4 L228.1,238.5 L228.9,235.2 L229.8,238.5 L230.6,240.6 L231.5,251.8 L232.3,224.3 L233.2,207.3 L234.0,184.9 L234.8,187.6 L235.7,182.8 L236.5,186.7 L237.4,200.3 L238.2,200.9 L239.0,217.9 L239.9,201.2 L240.7,207.3 L241.6,210.3 L242.4,206.1 L243.3,199.4 L244.1,202.5 L244.9,233.7 L245.8,213.7 L246.6,193.4 L247.5,220.3 L248.3,202.8 L249.1,205.8 L250.0,221.2 L250.8,225.2 L251.7,214.9 L252.5,215.2 L253.4,222.1 L254.2,250.9 L255.0,262.1 L255.9,268.5 L256.7,272.4 L257.6,277.6 L258.4,281.8 L259.2,277.6 L260.1,268.5 L260.9,258.5 L261.8,259.1 L262.6,244.6 L263.5,222.8 L264.3,214.3 L265.1,209.7 L266.0,178.2 L266.8,205.8 L267.7,167.6 L268.5,183.4 L269.3,202.5 L270.2,202.5 L271.0,191.8 L271.9,190.0 L272.7,204.3 L273.5,220.3 L274.4,240.0 L275.2,207.3 L276.1,213.7 L276.9,228.8 L277.8,231.5 L278.6,236.7 L279.4,260.0 L280.3,258.5 L281.1,259.4 L282.0,261.2 L282.8,237.6 L283.6,227.0 L284.5,206.7 L285.3,222.4 L286.2,200.0 L287.0,198.8 L287.9,198.5 L288.7,215.5 L289.5,197.9 L290.4,183.7 L291.2,181.2 L292.1,182.2 L292.9,176.7 L293.7,206.4 L294.6,207.0 L295.4,185.5 L296.3,233.7 L297.1,235.2 L298.0,233.4 L298.8,241.8 L299.6,239.7 L300.5,239.1 L301.3,239.1 L302.2,235.5 L303.0,233.7 L303.8,227.0 L304.7,223.1 L305.5,204.3 L306.4,204.3 L307.2,199.4 L308.1,205.5 L308.9,184.3 L309.7,172.2 L310.6,140.0 L311.4,118.2 L312.3,139.4 L313.1,146.1 L313.9,117.3 L314.8,143.1 L315.6,142.5 L316.5,148.5 L317.3,160.9 L318.1,173.1 L319.0,184.9 L319.8,211.2 L320.7,208.5 L321.5,233.7 L322.4,201.5 L323.2,173.7 L324.0,174.3 L324.9,173.4 L325.7,189.4 L326.6,178.8 L327.4,186.4 L328.2,193.4 L329.1,195.2 L329.9,167.9 L330.8,169.7 L331.6,189.1 L332.5,179.4 L333.3,175.5 L334.1,168.5 L335.0,180.3 L335.8,164.9 L336.7,174.0 L337.5,159.1 L338.3,164.3 L339.2,172.5 L340.0,173.4 L340.9,175.2 L341.7,190.3 L342.6,213.4 L343.4,235.8 L344.2,185.2 L345.1,181.8 L345.9,188.2 L346.8,187.3 L347.6,189.1 L348.4,175.2 L349.3,168.8 L350.1,169.7 L351.0,147.3 L351.8,161.5 L352.7,145.5 L353.5,152.5 L354.3,171.5 L355.2,178.2 L356.0,149.7 L356.9,163.1 L357.7,208.5 L358.5,160.3 L359.4,187.0 L360.2,217.3 L361.1,192.1 L361.9,221.8 L362.7,224.9 L363.6,241.2 L364.4,233.7 L365.3,210.9 L366.1,220.6 L367.0,225.2 L367.8,224.0 L368.6,226.7 L369.5,226.4 L370.3,249.4 L371.2,221.5 L372.0,226.7 L372.8,213.7 L373.7,225.2 L374.5,188.8 L375.4,206.7 L376.2,186.4 L377.1,200.6 L377.9,208.8 L378.7,206.1 L379.6,190.3 L380.4,181.5 L381.3,198.2 L382.1,202.1 L382.9,217.6 L383.8,236.1 L384.6,230.0 L385.5,242.4 L386.3,255.2 L387.2,252.1 L388.0,247.9 L388.8,244.6 L389.7,226.7 L390.5,222.4 L391.4,225.8 L392.2,226.1 L393.0,222.4 L393.9,217.9 L394.7,190.3 L395.6,186.1 L396.4,177.9 L397.3,166.4 L398.1,197.9 L398.9,197.6 L399.8,197.9 L400.6,190.0 L401.5,194.3 L402.3,188.8 L403.1,190.3 L404.0,187.9 L404.8,183.4 L405.7,207.6 L406.5,205.8 L407.3,203.4 L408.2,203.7 L409.0,200.3 L409.9,176.1 L410.7,182.2 L411.6,180.9 L412.4,182.5 L413.2,189.4 L414.1,151.5 L414.9,152.5 L415.8,160.3 L416.6,172.5 L417.4,179.1 L418.3,167.3 L419.1,187.3 L420.0,191.5 L420.8,191.2 L421.7,191.5 L422.5,189.4 L423.3,200.9 L424.2,214.3 L425.0,197.9 L425.9,170.9 L426.7,155.8 L427.5,147.9 L428.4,125.5 L429.2,121.9 L430.1,124.3 L430.9,123.4 L431.8,110.3 L432.6,137.3 L433.4,120.0 L434.3,130.9 L435.1,139.4 L436.0,122.2 L436.8,130.3 L437.6,185.8 L438.5,187.6 L439.3,189.7 L440.2,188.2 L441.0,207.9 L441.9,216.7 L442.7,221.8 L443.5,210.6 L444.4,192.1 L445.2,187.9 L446.1,198.8 L446.9,200.6 L447.7,208.8 L448.6,188.8 L449.4,176.7 L450.3,178.2 L451.1,178.8 L451.9,174.0 L452.8,186.1 L453.6,187.3 L454.5,184.0 L455.3,137.9 L456.2,164.0 L457.0,183.7 L457.8,172.8 L458.7,160.9 L459.5,155.5 L460.4,178.8 L461.2,236.7 L462.0,240.3 L462.9,235.2 L463.7,213.4 L464.6,220.6 L465.4,212.4 L466.3,210.9 L467.1,212.4 L467.9,209.4 L468.8,215.5 L469.6,212.8 L470.5,205.8 L471.3,140.6 L472.1,140.6 L473.0,203.7 L473.8,200.3 L474.7,197.6 L475.5,201.8 L476.4,158.5 L477.2,132.8 L478.0,150.0 L478.9,221.5 L479.7,226.1 L480.6,246.4 L481.4,246.7 L482.2,257.3 L483.1,258.2 L483.9,257.3 L484.8,247.3 L485.6,235.8 L486.5,217.3 L487.3,203.7 L488.1,194.6 L489.0,188.2 L489.8,158.8 L490.7,150.0 L491.5,135.5 L492.3,143.4 L493.2,143.1 L494.0,155.2 L494.9,150.6 L495.7,139.7 L496.5,170.0 L497.4,179.4 L498.2,183.1 L499.1,199.7 L499.9,227.6 L500.8,237.0 L501.6,236.4 L502.4,229.1 L503.3,228.8 L504.1,228.5 L505.0,220.9 L505.8,221.8 L506.6,205.2 L507.5,209.1 L508.3,207.0 L509.2,188.8 L510.0,179.7 L510.9,191.8 L511.7,185.2 L512.5,182.2 L513.4,192.1 L514.2,197.6 L515.1,187.9 L515.9,198.8 L516.7,195.5 L517.6,197.3 L518.4,144.3 L519.3,158.2 L520.1,192.8 L521.0,190.3 L521.8,193.4 L522.6,193.1 L523.5,197.9 L524.3,195.2 L525.2,183.4 L526.0,177.3 L526.8,194.9 L527.7,206.7 L528.5,193.1 L529.4,192.5 L530.2,186.4 L531.1,192.5 L531.9,204.3 L532.7,222.1 L533.6,188.8 L534.4,192.8 L535.3,206.7 L536.1,201.8 L536.9,181.8 L537.8,197.9 L538.6,191.2 L539.5,169.7 L540.3,179.4 L541.2,194.9 L542.0,183.4 L542.8,220.9 L543.7,229.1 L544.5,205.2 L545.4,203.4 L546.2,200.3 L547.0,188.5 L547.9,230.6 L548.7,228.2 L549.6,217.9 L550.4,221.2 L551.2,200.9 L552.1,199.4 L552.9,178.2 L553.8,177.0 L554.6,177.3 L555.5,144.9 L556.3,126.7 L557.1,135.2 L558.0,136.1 L558.8,134.6 L559.7,145.2 L560.5,144.9 L561.3,139.1 L562.2,136.4 L563.0,136.7 L563.9,153.1 L564.7,185.2 L565.6,183.7 L566.4,191.8 L567.2,168.2 L568.1,161.2 L568.9,145.5 L569.8,142.5 L570.6,150.9 L571.4,164.0 L572.3,176.1 L573.1,198.5 L574.0,193.1 L574.8,200.6 L575.7,155.2 L576.5,120.9 L577.3,121.2 L578.2,116.1 L579.0,146.1 L579.9,164.6 L580.7,190.0 L581.5,192.1 L582.4,201.8 L583.2,220.9 L584.1,248.5 L584.9,222.4 L585.8,204.3 L586.6,193.7 L587.4,189.7 L588.3,181.2 L589.1,167.6 L590.0,150.0 L590.8,164.9 L591.6,174.6 L592.5,162.8 L593.3,174.3 L594.2,190.6 L595.0,187.6 L595.8,178.5 L596.7,118.8 L597.5,167.9 L598.4,180.0 L599.2,156.1 L600.1,154.6 L600.9,156.4 L601.7,149.1 L602.6,149.7 L603.4,156.1 L604.3,152.5 L605.1,150.0 L605.9,150.3 L606.8,138.2 L607.6,137.0 L608.5,140.3 L609.3,141.2 L610.2,170.6 L611.0,134.3 L611.8,129.4 L612.7,148.8 L613.5,157.6 L614.4,120.6 L615.2,119.4 L616.0,131.6 L616.9,148.2 L617.7,153.7 L618.6,148.2 L619.4,150.0 L620.3,154.0 L621.1,155.8 L621.9,157.0 L622.8,156.7 L623.6,170.6 L624.5,170.6 L625.3,172.8 L626.1,177.6 L627.0,168.5 L627.8,181.5 L628.7,161.2 L629.5,145.5 L630.4,145.8 L631.2,144.9 L632.0,140.3 L632.9,138.5 L633.7,135.5 L634.6,154.0 L635.4,127.0 L636.2,126.1 L637.1,128.8 L637.9,152.8 L638.8,125.5 L639.6,130.3 L640.4,125.5 L641.3,149.4 L642.1,257.0 L643.0,268.8 L643.8,268.5 L644.7,265.2 L645.5,240.6 L646.3,239.1 L647.2,226.7 L648.0,210.0 L648.9,199.7 L649.7,204.9 L650.5,195.8 L651.4,166.7 L652.2,150.6 L653.1,118.2 L653.9,148.8 L654.8,156.4 L655.6,79.4 L656.4,71.6 L657.3,100.6 L658.1,67.6 L659.0,71.3 L659.8,100.3 L660.6,105.2 L661.5,98.2 L662.3,136.7 L663.2,206.1 L664.0,188.8 L664.9,209.4 L665.7,197.0 L666.5,188.8 L667.4,225.8 L668.2,230.6 L669.1,230.9 L669.9,224.6 L670.7,217.3 L671.6,219.4 L672.4,218.2 L673.3,212.8 L674.1,200.3 L675.0,192.8 L675.8,182.8 L676.6,153.1 L677.5,134.9 L678.3,102.2 L679.2,122.5 L680.0,122.5" stroke="#8c564b" stroke-width="2" fill="none" opacity="0.8"/>
<!-- Forecast Difference -->
<path d="M80.0,420.0 L80.8,420.0 L81.7,420.0 L82.5,420.0 L83.4,420.0 L84.2,420.0 L85.0,420.0 L85.9,420.0 L86.7,420.0 L87.6,420.0 L88.4,420.0 L89.3,420.0 L90.1,420.0 L90.9,420.0 L91.8,420.0 L92.6,420.0 L93.5,420.0 L94.3,420.0 L95.1,420.0 L96.0,420.0 L96.8,420.0 L97.7,420.0 L98.5,420.0 L99.4,420.0 L100.2,420.0 L101.0,420.0 L101.9,420.0 L102.7,420.0 L103.6,420.0 L104.4,420.0 L105.2,420.0 L106.1,420.0 L106.9,420.0 L107.8,420.0 L108.6,420.0 L109.5,420.0 L110.3,420.0 L111.1,420.0 L112.0,420.0 L112.8,420.0 L113.7,420.0 L114.5,420.0 L115.3,420.0 L116.2,420.0 L117.0,420.0 L117.9,420.0 L118.7,420.0 L119.6,420.0 L120.4,420.0 L121.2,420.0 L122.1,420.0 L122.9,420.0 L123.8,420.0 L124.6,420.0 L125.4,420.0 L126.3,420.0 L127.1,420.0 L128.0,420.0 L128.8,420.0 L129.6,420.0 L130.5,420.0 L131.3,420.0 L132.2,420.0 L133.0,420.0 L133.9,420.0 L134.7,420.0 L135.5,420.0 L136.4,420.0 L137.2,420.0 L138.1,420.0 L138.9,420.0 L139.7,420.0 L140.6,420.0 L141.4,420.0 L142.3,420.0 L143.1,420.0 L144.0,420.0 L144.8,420.0 L145.6,420.0 L146.5,420.0 L147.3,420.0 L148.2,420.0 L149.0,420.0 L149.8,420.0 L150.7,420.0 L151.5,420.0 L152.4,420.0 L153.2,420.0 L154.1,420.0 L154.9,420.0 L155.7,420.0 L156.6,420.0 L157.4,420.0 L158.3,420.0 L159.1,420.0 L159.9,420.0 L160.8,420.0 L161.6,420.0 L162.5,420.0 L163.3,420.0 L164.2,420.0 L165.0,420.0 L165.8,420.0 L166.7,420.0 L167.5,420.0 L168.4,420.0 L169.2,420.0 L170.0,420.0 L170.9,420.0 L171.7,420.0 L172.6,420.0 L173.4,420.0 L174.2,420.0 L175.1,420.0 L175.9,420.0 L176.8,420.0 L177.6,420.0 L178.5,420.0 L179.3,420.0 L180.1,420.0 L181.0,420.0 L181.8,420.0 L182.7,420.0 L183.5,420.0 L184.3,420.0 L185.2,420.0 L186.0,420.0 L186.9,420.0 L187.7,420.0 L188.6,420.0 L189.4,420.0 L190.2,420.0 L191.1,420.0 L191.9,420.0 L192.8,420.0 L193.6,420.0 L194.4,420.0 L195.3,420.0 L196.1,420.0 L197.0,420.0 L197.8,420.0 L198.7,420.0 L199.5,420.0 L200.3,420.0 L201.2,420.0 L202.0,420.0 L202.9,420.0 L203.7,420.0 L204.5,420.0 L205.4,420.0 L206.2,420.0 L207.1,420.0 L207.9,420.0 L208.8,420.0 L209.6,420.0 L210.4,420.0 L211.3,420.0 L212.1,420.0 L213.0,420.0 L213.8,420.0 L214.6,420.0 L215.5,420.0 L216.3,420.0 L217.2,420.0 L218.0,420.0 L218.8,420.0 L219.7,420.0 L220.5,420.0 L221.4,420.0 L222.2,420.0 L223.1,420.0 L223.9,420.0 L224.7,420.0 L225.6,420.0 L226.4,420.0 L227.3,420.0 L228.1,420.0 L228.9,420.0 L229.8,420.0 L230.6,420.0 L231.5,420.0 L232.3,420.0 L233.2,420.0 L234.0,420.0 L234.8,420.0 L235.7,420.0 L236.5,420.0 L237.4,420.0 L238.2,420.0 L239.0,420.0 L239.9,420.0 L240.7,420.0 L241.6,420.0 L242.4,420.0 L243.3,420.0 L244.1,420.0 L244.9,420.0 L245.8,420.0 L246.6,420.0 L247.5,420.0 L248.3,420.0 L249.1,420.0 L250.0,420.0 L250.8,420.0 L251.7,420.0 L252.5,420.0 L253.4,420.0 L254.2,420.0 L255.0,420.0 L255.9,420.0 L256.7,420.0 L257.6,420.0 L258.4,420.0 L259.2,420.0 L260.1,420.0 L260.9,420.0 L261.8,420.0 L262.6,420.0 L263.5,420.0 L264.3,420.0 L265.1,420.0 L266.0,420.0 L266.8,420.0 L267.7,420.0 L268.5,420.0 L269.3,420.0 L270.2,420.0 L271.0,420.0 L271.9,420.0 L272.7,420.0 L273.5,420.0 L274.4,420.0 L275.2,420.0 L276.1,420.0 L276.9,420.0 L277.8,420.0 L278.6,420.0 L279.4,420.0 L280.3,420.0 L281.1,420.0 L282.0,420.0 L282.8,420.0 L283.6,420.0 L284.5,420.0 L285.3,420.0 L286.2,420.0 L287.0,420.0 L287.9,420.0 L288.7,420.0 L289.5,420.0 L290.4,420.0 L291.2,420.0 L292.1,420.0 L292.9,420.0 L293.7,420.0 L294.6,420.0 L295.4,420.0 L296.3,420.0 L297.1,420.0 L298.0,420.0 L298.8,420.0 L299.6,420.0 L300.5,420.0 L301.3,420.0 L302.2,420.0 L303.0,420.0 L303.8,420.0 L304.7,420.0 L305.5,420.0 L306.4,420.0 L307.2,420.0 L308.1,420.0 L308.9,420.0 L309.7,420.0 L310.6,420.0 L311.4,420.0 L312.3,420.0 L313.1,420.0 L313.9,420.0 L314.8,420.0 L315.6,420.0 L316.5,420.0 L317.3,420.0 L318.1,420.0 L319.0,420.0 L319.8,420.0 L320.7,420.0 L321.5,420.0 L322.4,420.0 L323.2,420.0 L324.0,420.0 L324.9,420.0 L325.7,420.0 L326.6,420.0 L327.4,420.0 L328.2,420.0 L329.1,420.0 L329.9,420.0 L330.8,420.0 L331.6,420.0 L332.5,420.0 L333.3,420.0 L334.1,420.0 L335.0,420.0 L335.8,420.0 L336.7,420.0 L337.5,420.0 L338.3,420.0 L339.2,420.0 L340.0,420.0 L340.9,420.0 L341.7,420.0 L342.6,420.0 L343.4,420.0 L344.2,420.0 L345.1,420.0 L345.9,420.0 L346.8,420.0 L347.6,420.0 L348.4,420.0 L349.3,420.0 L350.1,420.0 L351.0,420.0 L351.8,420.0 L352.7,420.0 L353.5,420.0 L354.3,420.0 L355.2,420.0 L356.0,420.0 L356.9,420.0 L357.7,420.0 L358.5,420.0 L359.4,420.0 L360.2,420.0 L361.1,420.0 L361.9,420.0 L362.7,420.0 L363.6,420.0 L364.4,420.0 L365.3,420.0 L366.1,420.0 L367.0,420.0 L367.8,420.0 L368.6,420.0 L369.5,420.0 L370.3,420.0 L371.2,420.0 L372.0,420.0 L372.8,420.0 L373.7,420.0 L374.5,420.0 L375.4,420.0 L376.2,420.0 L377.1,420.0 L377.9,420.0 L378.7,420.0 L379.6,420.0 L380.4,420.0 L381.3,420.0 L382.1,420.0 L382.9,420.0 L383.8,420.0 L384.6,420.0 L385.5,420.0 L386.3,420.0 L387.2,420.0 L388.0,420.0 L388.8,420.0 L389.7,420.0 L390.5,420.0 L391.4,420.0 L392.2,420.0 L393.0,420.0 L393.9,420.0 L394.7,420.0 L395.6,420.0 L396.4,420.0 L397.3,420.0 L398.1,420.0 L398.9,420.0 L399.8,420.0 L400.6,420.0 L401.5,420.0 L402.3,420.0 L403.1,420.0 L404.0,420.0 L404.8,420.0 L405.7,420.0 L406.5,420.0 L407.3,420.0 L408.2,420.0 L409.0,420.0 L409.9,420.0 L410.7,420.0 L411.6,420.0 L412.4,420.0 L413.2,420.0 L414.1,420.0 L414.9,420.0 L415.8,420.0 L416.6,420.0 L417.4,420.0 L418.3,420.0 L419.1,420.0 L420.0,420.0 L420.8,420.0 L421.7,420.0 L422.5,420.0 L423.3,420.0 L424.2,420.0 L425.0,420.0 L425.9,420.0 L426.7,420.0 L427.5,420.0 L428.4,420.0 L429.2,420.0 L430.1,420.0 L430.9,420.0 L431.8,420.0 L432.6,420.0 L433.4,420.0 L434.3,420.0 L435.1,420.0 L436.0,420.0 L436.8,420.0 L437.6,420.0 L438.5,420.0 L439.3,420.0 L440.2,420.0 L441.0,420.0 L441.9,420.0 L442.7,420.0 L443.5,420.0 L444.4,420.0 L445.2,420.0 L446.1,420.0 L446.9,420.0 L447.7,420.0 L448.6,420.0 L449.4,420.0 L450.3,420.0 L451.1,420.0 L451.9,420.0 L452.8,420.0 L453.6,420.0 L454.5,420.0 L455.3,420.0 L456.2,420.0 L457.0,420.0 L457.8,420.0 L458.7,420.0 L459.5,420.0 L460.4,420.0 L461.2,420.0 L462.0,420.0 L462.9,420.0 L463.7,420.0 L464.6,420.0 L465.4,420.0 L466.3,420.0 L467.1,420.0 L467.9,420.0 L468.8,420.0 L469.6,420.0 L470.5,420.0 L471.3,420.0 L472.1,420.0 L473.0,420.0 L473.8,420.0 L474.7,420.0 L475.5,420.0 L476.4,420.0 L477.2,420.0 L478.0,420.0 L478.9,420.0 L479.7,420.0 L480.6,420.0 L481.4,420.0 L482.2,420.0 L483.1,420.0 L483.9,420.0 L484.8,420.0 L485.6,420.0 L486.5,420.0 L487.3,420.0 L488.1,420.0 L489.0,420.0 L489.8,420.0 L490.7,420.0 L491.5,420.0 L492.3,420.0 L493.2,420.0 L494.0,420.0 L494.9,420.0 L495.7,420.0 L496.5,420.0 L497.4,420.0 L498.2,420.0 L499.1,420.0 L499.9,420.0 L500.8,420.0 L501.6,420.0 L502.4,420.0 L503.3,420.0 L504.1,420.0 L505.0,420.0 L505.8,420.0 L506.6,420.0 L507.5,420.0 L508.3,420.0 L509.2,420.0 L510.0,420.0 L510.9,420.0 L511.7,420.0 L512.5,420.0 L513.4,420.0 L514.2,420.0 L515.1,420.0 L515.9,420.0 L516.7,420.0 L517.6,420.0 L518.4,420.0 L519.3,420.0 L520.1,420.0 L521.0,420.0 L521.8,420.0 L522.6,420.0 L523.5,420.0 L524.3,420.0 L525.2,420.0 L526.0,420.0 L526.8,420.0 L527.7,420.0 L528.5,420.0 L529.4,420.0 L530.2,420.0 L531.1,420.0 L531.9,420.0 L532.7,420.0 L533.6,420.0 L534.4,420.0 L535.3,420.0 L536.1,420.0 L536.9,420.0 L537.8,420.0 L538.6,420.0 L539.5,420.0 L540.3,420.0 L541.2,420.0 L542.0,420.0 L542.8,420.0 L543.7,420.0 L544.5,420.0 L545.4,420.0 L546.2,420.0 L547.0,420.0 L547.9,420.0 L548.7,420.0 L549.6,420.0 L550.4,420.0 L551.2,420.0 L552.1,420.0 L552.9,420.0 L553.8,420.0 L554.6,420.0 L555.5,420.0 L556.3,420.0 L557.1,420.0 L558.0,420.0 L558.8,420.0 L559.7,420.0 L560.5,420.0 L561.3,420.0 L562.2,420.0 L563.0,420.0 L563.9,420.0 L564.7,420.0 L565.6,420.0 L566.4,420.0 L567.2,420.0 L568.1,420.0 L568.9,420.0 L569.8,420.0 L570.6,420.0 L571.4,420.0 L572.3,420.0 L573.1,420.0 L574.0,420.0 L574.8,420.0 L575.7,420.0 L576.5,420.0 L577.3,420.0 L578.2,420.0 L579.0,420.0 L579.9,420.0 L580.7,420.0 L581.5,420.0 L582.4,420.0 L583.2,420.0 L584.1,420.0 L584.9,420.0 L585.8,420.0 L586.6,420.0 L587.4,420.0 L588.3,420.0 L589.1,420.0 L590.0,420.0 L590.8,420.0 L591.6,420.0 L592.5,420.0 L593.3,420.0 L594.2,420.0 L595.0,420.0 L595.8,420.0 L596.7,420.0 L597.5,420.0 L598.4,420.0 L599.2,420.0 L600.1,420.0 L600.9,420.0 L601.7,420.0 L602.6,420.0 L603.4,420.0 L604.3,420.0 L605.1,420.0 L605.9,420.0 L606.8,420.0 L607.6,420.0 L608.5,420.0 L609.3,420.0 L610.2,420.0 L611.0,420.0 L611.8,420.0 L612.7,420.0 L613.5,420.0 L614.4,420.0 L615.2,420.0 L616.0,420.0 L616.9,420.0 L617.7,420.0 L618.6,420.0 L619.4,420.0 L620.3,420.0 L621.1,420.0 L621.9,420.0 L622.8,420.0 L623.6,420.0 L624.5,420.0 L625.3,420.0 L626.1,420.0 L627.0,420.0 L627.8,420.0 L628.7,420.0 L629.5,420.0 L630.4,420.0 L631.2,420.0 L632.0,420.0 L632.9,420.0 L633.7,420.0 L634.6,420.0 L635.4,420.0 L636.2,420.0 L637.1,420.0 L637.9,420.0 L638.8,420.0 L639.6,420.0 L640.4,420.0 L641.3,420.0 L642.1,420.0 L643.0,420.0 L643.8,420.0 L644.7,420.0 L645.5,420.0 L646.3,420.0 L647.2,420.0 L648.0,420.0 L648.9,420.0 L649.7,420.0 L650.5,420.0 L651.4,420.0 L652.2,420.0 L653.1,420.0 L653.9,420.0 L654.8,420.0 L655.6,420.0 L656.4,420.0 L657.3,420.0 L658.1,420.0 L659.0,420.0 L659.8,420.0 L660.6,420.0 L661.5,420.0 L662.3,420.0 L663.2,420.0 L664.0,420.0 L664.9,420.0 L665.7,420.0 L666.5,420.0 L667.4,420.0 L668.2,420.0 L669.1,420.0 L669.9,420.0 L670.7,420.0 L671.6,420.0 L672.4,420.0 L673.3,420.0 L674.1,420.0 L675.0,420.0 L675.8,420.0 L676.6,420.0 L677.5,420.0 L678.3,420.0 L679.2,420.0 L680.0,420.0" stroke="#e377c2" stroke-width="2" fill="none" opacity="0.8"/>

<!-- Legend -->
<line x1="690" y1="70" x2="705" y2="70" stroke="#1f77b4" stroke-width="3"/>
<text x="710" y="74" class="legend">Wind Generation</text>
<line x1="690" y1="88" x2="705" y2="88" stroke="#ff7f0e" stroke-width="3"/>
<text x="710" y="92" class="legend">Hydro Generation</text>
<line x1="690" y1="106" x2="705" y2="106" stroke="#2ca02c" stroke-width="3"/>
<text x="710" y="110" class="legend">Thermal Generation</text>
<line x1="690" y1="124" x2="705" y2="124" stroke="#d62728" stroke-width="3"/>
<text x="710" y="128" class="legend">Solar Generation</text>
<line x1="690" y1="142" x2="705" y2="142" stroke="#9467bd" stroke-width="3"/>
<text x="710" y="146" class="legend">Forecast</text>
<line x1="690" y1="160" x2="705" y2="160" stroke="#8c564b" stroke-width="3"/>
<text x="710" y="164" class="legend">Total Generation</text>
<line x1="690" y1="178" x2="705" y2="178" stroke="#e377c2" stroke-width="3"/>
<text x="710" y="182" class="legend">Forecast Difference</text>

<!-- Date range -->
<text x="80" y="495" class="legend">Range: 05/15 - 06/13/2026 (714 records)</text>
</svg>