<?xml version="1.0" encoding="UTF-8"?>
<svg width="800" height="500" xmlns="http://www.w3.org/2000/svg">
<style>
.axis-line { stroke: #333; stroke-width: 1; }
.grid-line { stroke: #ddd; stroke-width: 0.5; }
.title { font: 16px Arial; text-anchor: middle; fill: #333; }
.axis-label { font: 12px Arial; text-anchor: middle; fill: #666; }
.legend { font: 10px Arial; fill: #333; }
</style>

<!-- Title -->
<text x="400.0" y="25" class="title">Northwestern Energy Generation Data - Past 30 Days</text>

<!-- Plot area background -->
<rect x="80" y="50" width="600" height="370" fill="white" stroke="#ddd"/>

<!-- Y-axis -->
<line x1="80" y1="50" x2="80" y2="420" class="axis-line"/>
<text x="30" y="235.0" class="axis-label" transform="rotate(-90, 30, 235.0)">Generation (MW)</text>

<!-- X-axis -->
<line x1="80" y1="420" x2="680" y2="420" class="axis-line"/>
<text x="380.0" y="480" class="axis-label">Time</text>
<line x1="80" y1="420.0" x2="680" y2="420.0" class="grid-line"/>
<text x="70" y="425.0" class="legend" text-anchor="end">0</text>
<line x1="80" y1="327.5" x2="680" y2="327.5" class="grid-line"/>
<text x="70" y="332.5" class="legend" text-anchor="end">265</text>
<line x1="80" y1="235.0" x2="680" y2="235.0" class="grid-line"/>
<text x="70" y="240.0" class="legend" text-anchor="end">531</text>
<line x1="80" y1="142.5" x2="680" y2="142.5" class="grid-line"/>
<text x="70" y="147.5" class="legend" text-anchor="end">796</text>
<line x1="80" y1="50.0" x2="680" y2="50.0" class="grid-line"/>
<text x="70" y="55.0" class="legend" text-anchor="end">1062</text>
<!-- Wind Generation -->
<path d="M80.0,411.3 L80.8,409.5 L81.7,416.2 L82.5,415.8 L83.4,407.8 L84.2,391.4 L85.0,374.3 L85.9,377.8 L86.7,378.5 L87.6,361.8 L88.4,355.2 L89.3,372.6 L90.1,384.1 L90.9,389.7 L91.8,397.0 L92.6,376.1 L93.5,391.1 L94.3,382.4 L95.1,372.9 L96.0,373.3 L96.8,346.8 L97.7,361.4 L98.5,361.8 L99.4,363.2 L100.2,369.1 L101.0,375.7 L101.9,386.2 L102.7,376.8 L103.6,379.9 L104.4,383.1 L105.2,388.3 L106.1,397.3 L106.9,400.5 L107.8,407.8 L108.6,409.9 L109.5,351.3 L110.3,291.0 L111.1,287.9 L112.0,295.9 L112.8,335.0 L113.7,343.7 L114.5,334.3 L115.3,323.8 L116.2,330.1 L117.0,337.7 L117.9,329.7 L118.7,340.9 L119.6,315.8 L120.4,343.3 L121.2,350.3 L122.1,344.4 L122.9,350.6 L123.8,367.7 L124.6,358.3 L125.4,347.9 L126.3,333.9 L127.1,346.5 L128.0,351.3 L128.8,367.0 L129.6,390.0 L130.5,399.4 L131.3,392.8 L132.2,405.0 L133.0,410.2 L133.9,411.3 L134.7,410.6 L135.5,413.0 L136.4,412.7 L137.2,404.7 L138.1,401.2 L138.9,406.8 L139.7,399.4 L140.6,390.7 L141.4,399.8 L142.3,405.0 L143.1,396.0 L144.0,399.4 L144.8,407.8 L145.6,412.0 L146.5,415.1 L147.3,417.2 L148.2,417.2 L149.0,415.5 L149.8,412.0 L150.7,404.0 L151.5,402.6 L152.4,402.9 L153.2,407.1 L154.1,401.5 L154.9,398.4 L155.7,395.6 L156.6,391.1 L157.4,383.8 L158.3,364.2 L159.1,353.1 L159.9,355.9 L160.8,338.1 L161.6,330.1 L162.5,320.7 L164.2,343.7 L165.0,346.8 L165.8,336.0 L166.7,350.3 L167.5,358.3 L168.4,358.0 L169.2,347.5 L170.0,351.0 L170.9,371.6 L171.7,395.3 L172.6,405.7 L173.4,407.5 L174.2,400.8 L175.1,386.9 L175.9,375.7 L176.8,369.5 L177.6,346.8 L178.5,354.8 L179.3,373.3 L180.1,402.6 L181.0,410.2 L181.8,414.8 L182.7,416.5 L183.5,417.6 L184.3,416.9 L185.2,413.0 L186.0,413.0 L186.9,406.8 L187.7,399.8 L188.6,395.3 L189.4,386.5 L190.2,381.0 L191.1,381.0 L191.9,391.8 L192.8,396.0 L193.6,385.5 L194.4,352.4 L195.3,325.9 L196.1,306.0 L197.0,298.7 L197.8,332.9 L198.7,315.8 L199.5,312.3 L200.3,307.4 L201.2,310.2 L202.0,304.3 L202.9,325.5 L203.7,322.1 L204.5,300.1 L205.4,316.1 L206.2,322.4 L207.1,328.0 L207.9,280.9 L208.8,297.7 L209.6,319.3 L210.4,369.8 L211.3,371.6 L212.1,370.9 L213.0,377.8 L213.8,368.1 L214.6,374.7 L215.5,353.1 L216.3,326.6 L217.2,308.8 L218.0,298.7 L218.8,297.7 L219.7,294.2 L220.5,309.2 L221.4,333.6 L222.2,344.4 L223.1,333.9 L223.9,348.2 L224.7,362.5 L225.6,389.3 L226.4,403.6 L227.3,407.1 L228.1,407.1 L228.9,410.6 L229.8,410.6 L230.6,401.9 L231.5,390.4 L232.3,393.5 L233.2,400.1 L234.0,413.0 L234.8,417.6 L235.7,414.8 L236.5,411.6 L237.4,413.4 L238.2,404.7 L239.0,399.1 L239.9,383.1 L240.7,367.7 L241.6,366.7 L242.4,371.2 L243.3,386.9 L244.1,377.1 L244.9,372.9 L245.8,369.5 L246.6,374.3 L247.5,375.0 L248.3,382.4 L249.1,376.8 L250.0,356.6 L250.8,352.4 L251.7,352.7 L252.5,362.5 L253.4,385.5 L254.2,387.9 L255.0,381.0 L255.9,396.0 L256.7,405.4 L257.6,407.5 L258.4,412.7 L259.2,413.7 L260.1,417.9 L260.9,417.9 L261.8,418.3 L262.6,419.0 L263.5,419.7 L264.3,416.5 L265.1,413.4 L266.0,413.0 L266.8,410.2 L267.7,407.5 L268.5,404.7 L269.3,405.0 L270.2,381.3 L271.0,384.8 L271.9,384.1 L272.7,392.5 L273.5,406.4 L274.4,414.1 L275.2,397.7 L276.1,407.1 L276.9,409.2 L277.8,402.6 L278.6,403.3 L279.4,408.5 L280.3,414.1 L281.1,414.1 L282.0,411.3 L282.8,404.3 L283.6,397.7 L284.5,380.6 L285.3,371.9 L286.2,327.3 L287.0,299.1 L287.9,306.0 L288.7,298.7 L289.5,292.8 L290.4,320.0 L291.2,337.0 L292.1,345.1 L292.9,357.6 L293.7,387.6 L294.6,371.9 L295.4,356.2 L296.3,361.8 L297.1,346.8 L298.0,366.3 L298.8,359.4 L299.6,361.4 L300.5,362.1 L301.3,349.2 L302.2,343.0 L303.0,345.4 L303.8,314.4 L307.2,332.2 L308.1,317.5 L308.9,333.2 L309.7,368.1 L310.6,387.9 L311.4,402.9 L312.3,412.3 L313.1,417.9 L313.9,418.6 L314.8,415.8 L315.6,407.1 L316.5,409.9 L317.3,411.3 L318.1,415.1 L319.0,400.1 L319.8,410.2 L320.7,402.6 L321.5,405.4 L322.4,402.6 L323.2,405.4 L324.0,400.5 L324.9,397.3 L325.7,407.5 L326.6,399.4 L327.4,412.0 L328.2,419.7 L329.1,420.0 L329.9,415.8 L330.8,409.9 L331.6,414.8 L332.5,399.8 L333.3,394.2 L334.1,402.2 L335.0,401.9 L335.8,408.5 L336.7,416.5 L337.5,415.8 L338.3,416.5 L339.2,413.7 L340.0,410.6 L340.9,391.8 L341.7,410.9 L342.6,404.3 L343.4,379.9 L344.2,379.9 L345.1,368.4 L345.9,377.5 L346.8,387.9 L347.6,379.2 L348.4,377.1 L349.3,378.5 L350.1,347.9 L351.0,341.6 L351.8,358.0 L352.7,354.8 L353.5,352.7 L354.3,381.7 L355.2,376.8 L356.0,386.2 L356.9,378.2 L357.7,392.8 L358.5,404.7 L359.4,400.8 L360.2,380.6 L361.1,378.5 L361.9,360.7 L362.7,365.3 L363.6,376.1 L364.4,375.4 L365.3,381.3 L366.1,378.9 L367.0,381.3 L367.8,385.1 L368.6,390.4 L369.5,406.4 L370.3,409.9 L371.2,402.6 L372.0,391.8 L372.8,393.2 L373.7,393.2 L374.5,368.4 L375.4,354.5 L376.2,347.9 L377.1,346.8 L377.9,348.9 L378.7,357.3 L379.6,355.5 L380.4,341.2 L381.3,330.8 L382.1,319.6 L382.9,327.3 L383.8,337.7 L384.6,352.4 L385.5,358.0 L386.3,362.1 L387.2,367.4 L388.0,363.5 L388.8,369.8 L389.7,379.9 L390.5,393.5 L391.4,399.8 L392.2,412.0 L393.0,417.2 L393.9,418.6 L394.7,418.6 L395.6,416.5 L396.4,413.0 L397.3,410.6 L398.1,408.1 L398.9,405.7 L399.8,403.6 L400.6,402.9 L401.5,393.9 L402.3,382.4 L403.1,372.2 L404.0,387.9 L404.8,381.0 L405.7,378.5 L406.5,352.4 L407.3,329.0 L408.2,337.7 L409.0,347.5 L409.9,352.4 L410.7,344.0 L411.6,339.1 L412.4,380.3 L413.2,396.6 L414.1,407.1 L414.9,416.9 L415.8,413.4 L416.6,413.7 L417.4,412.0 L418.3,405.0 L419.1,401.2 L420.0,400.8 L420.8,393.9 L421.7,389.0 L422.5,389.0 L423.3,386.9 L424.2,396.0 L425.0,394.2 L425.9,400.1 L426.7,404.0 L427.5,408.8 L428.4,406.4 L429.2,406.4 L430.1,403.3 L430.9,404.0 L431.8,396.0 L432.6,384.8 L433.4,379.9 L434.3,390.0 L435.1,393.2 L436.0,391.4 L436.8,394.2 L437.6,392.5 L438.5,387.6 L439.3,393.2 L440.2,398.0 L441.0,386.5 L441.9,392.5 L442.7,370.9 L443.5,364.6 L444.4,360.7 L445.2,366.0 L446.1,352.4 L446.9,353.4 L447.7,364.9 L448.6,382.4 L449.4,393.5 L450.3,407.5 L451.1,410.9 L451.9,413.4 L452.8,415.1 L453.6,411.3 L454.5,399.4 L455.3,395.3 L456.2,397.7 L457.0,396.3 L457.8,394.6 L458.7,383.4 L459.5,387.2 L460.4,389.3 L461.2,384.1 L462.0,395.3 L462.9,394.2 L463.7,366.0 L464.6,376.1 L465.4,399.1 L466.3,409.2 L467.1,411.3 L467.9,406.4 L468.8,401.9 L469.6,385.1 L470.5,378.2 L471.3,379.2 L472.1,370.9 L473.0,362.5 L473.8,353.4 L474.7,362.1 L475.5,367.4 L476.4,387.2 L477.2,404.7 L478.0,411.3 L478.9,417.9 L479.7,420.0 L480.6,420.0 L481.4,420.0 L482.2,413.0 L483.1,408.8 L483.9,418.6 L484.8,419.0 L485.6,410.9 L486.5,391.8 L487.3,406.8 L488.1,401.9 L489.0,408.8 L489.8,408.8 L490.7,386.5 L491.5,383.8 L492.3,367.4 L493.2,386.2 L494.0,388.6 L494.9,400.5 L495.7,386.5 L496.5,392.5 L497.4,391.8 L498.2,397.0 L499.1,401.5 L499.9,399.4 L500.8,400.8 L501.6,399.1 L502.4,368.8 L503.3,372.6 L504.1,393.2 L505.0,400.8 L505.8,393.9 L506.6,384.8 L507.5,366.7 L508.3,386.2 L509.2,402.6 L510.0,383.1 L510.9,376.1 L511.7,371.6 L512.5,374.7 L513.4,387.2 L514.2,321.7 L515.1,300.8 L515.9,301.8 L516.7,320.7 L517.6,335.7 L518.4,325.5 L519.3,314.0 L520.1,323.5 L521.0,315.8 L521.8,293.5 L522.6,275.4 L523.5,278.8 L524.3,281.6 L525.2,302.9 L526.0,304.6 L526.8,301.8 L527.7,309.5 L528.5,312.6 L529.4,326.6 L530.2,338.8 L531.1,353.4 L531.9,352.0 L532.7,350.3 L533.6,356.2 L534.4,366.0 L535.3,368.4 L536.1,376.1 L536.9,368.4 L537.8,371.2 L538.6,380.6 L539.5,381.3 L540.3,387.9 L541.2,398.7 L542.0,399.4 L542.8,400.1 L543.7,394.9 L544.5,392.1 L545.4,388.6 L546.2,392.8 L547.0,399.4 L547.9,406.1 L548.7,408.5 L549.6,409.5 L550.4,412.3 L551.2,413.0 L552.1,413.4 L552.9,412.7 L553.8,414.8 L554.6,415.5 L555.5,416.2 L556.3,417.2 L557.1,416.5 L558.0,417.9 L558.8,418.6 L559.7,420.0 L560.5,420.0 L561.3,420.0 L562.2,420.0 L563.0,420.0 L563.9,420.0 L564.7,420.0 L565.6,420.0 L566.4,420.0 L567.2,420.0 L568.1,420.0 L568.9,420.0 L569.8,420.0 L570.6,420.0 L571.4,420.0 L572.3,420.0 L573.1,420.0 L574.0,420.0 L574.8,420.0 L575.7,420.0 L576.5,419.7 L577.3,415.8 L578.2,417.2 L579.0,418.6 L579.9,420.0 L580.7,418.3 L581.5,420.0 L582.4,418.6 L583.2,417.9 L584.1,420.0 L584.9,420.0 L585.8,415.8 L586.6,420.0 L587.4,420.0 L588.3,420.0 L589.1,420.0 L590.0,420.0 L590.8,420.0 L591.6,419.7 L592.5,416.2 L593.3,417.6 L594.2,418.6 L595.0,419.7 L595.8,419.3 L596.7,411.3 L597.5,402.2 L598.4,410.2 L599.2,401.5 L600.1,386.2 L600.9,398.0 L601.7,368.8 L602.6,345.1 L603.4,338.4 L604.3,328.7 L605.1,320.7 L605.9,346.8 L606.8,353.1 L607.6,362.8 L608.5,358.0 L609.3,355.2 L610.2,351.7 L611.0,362.5 L611.8,351.0 L612.7,331.5 L613.5,318.9 L614.4,318.2 L615.2,303.6 L616.0,313.3 L616.9,292.4 L617.7,281.3 L618.6,278.1 L619.4,277.4 L620.3,282.3 L621.1,286.2 L621.9,286.2 L622.8,275.7 L623.6,279.5 L624.5,285.5 L625.3,277.4 L626.1,276.4 L627.0,275.0 L627.8,271.9 L628.7,271.9 L629.5,279.5 L630.4,277.8 L631.2,279.5 L632.0,275.7 L632.9,302.5 L633.7,292.1 L634.6,272.9 L635.4,298.4 L636.2,331.1 L637.1,309.9 L637.9,340.2 L638.8,334.3 L639.6,324.5 L640.4,299.4 L641.3,338.8 L642.1,340.9 L643.0,348.2 L643.8,343.7 L644.7,360.4 L645.5,360.4 L646.3,343.7 L647.2,347.5 L648.0,311.6 L648.9,309.2 L649.7,294.2 L650.5,287.2 L651.4,280.9 L652.2,278.5 L653.1,283.7 L653.9,330.1 L654.8,363.5 L655.6,375.4 L656.4,353.1 L657.3,353.8 L658.1,358.3 L659.0,353.1 L659.8,344.7 L660.6,330.4 L661.5,335.7 L662.3,360.0 L663.2,348.2 L664.0,347.9 L664.9,370.9 L665.7,374.0 L666.5,381.0 L667.4,374.0 L668.2,359.4 L669.1,360.4 L669.9,344.7 L670.7,286.2 L671.6,306.0 L672.4,297.0 L673.3,273.6 L674.1,311.3 L675.0,292.8 L675.8,286.9 L676.6,303.6 L677.5,280.6 L678.3,287.2 L679.2,282.3 L680.0,292.8" stroke="#1f77b4" stroke-width="2" fill="none" opacity="0.8"/>
<!-- Hydro Generation -->
<path d="M80.0,356.9 L80.8,356.6 L81.7,356.6 L82.5,356.9 L83.4,357.3 L84.2,356.9 L85.0,356.9 L85.9,357.3 L86.7,357.3 L87.6,358.0 L88.4,358.7 L89.3,359.0 L90.1,359.4 L90.9,360.0 L91.8,359.7 L92.6,360.0 L93.5,360.0 L94.3,360.4 L95.1,360.4 L96.0,360.4 L96.8,360.4 L97.7,360.4 L98.5,360.0 L99.4,360.4 L100.2,360.7 L101.0,360.7 L101.9,360.4 L102.7,360.7 L103.6,360.0 L104.4,360.0 L105.2,360.0 L106.1,359.4 L106.9,359.0 L107.8,358.7 L108.6,358.3 L109.5,359.0 L110.3,359.0 L111.1,359.0 L112.0,359.0 L112.8,359.0 L113.7,359.4 L114.5,359.4 L115.3,359.7 L116.2,359.7 L117.0,360.4 L117.9,360.4 L118.7,360.4 L119.6,360.7 L120.4,361.4 L121.2,361.4 L122.1,361.4 L122.9,360.7 L123.8,361.1 L124.6,360.7 L125.4,361.4 L126.3,361.4 L127.1,361.1 L128.0,361.4 L128.8,361.1 L129.6,360.7 L130.5,360.7 L131.3,360.0 L132.2,358.7 L133.0,358.3 L133.9,358.7 L134.7,360.4 L135.5,360.4 L136.4,360.4 L137.2,360.0 L138.1,360.4 L138.9,360.4 L139.7,360.4 L140.6,360.4 L141.4,360.4 L142.3,360.0 L143.1,360.0 L144.0,360.0 L144.8,360.0 L145.6,360.4 L146.5,360.4 L147.3,360.0 L148.2,360.0 L149.0,359.7 L149.8,359.4 L150.7,359.7 L151.5,359.7 L152.4,361.1 L153.2,361.1 L154.1,361.4 L154.9,361.1 L155.7,361.1 L156.6,361.1 L157.4,361.1 L158.3,360.7 L159.1,361.1 L159.9,360.7 L160.8,361.4 L161.6,361.1 L162.5,361.1 L164.2,361.4 L165.0,361.1 L165.8,360.7 L166.7,361.4 L167.5,361.4 L168.4,361.4 L169.2,361.4 L170.0,361.4 L170.9,361.8 L171.7,360.4 L172.6,360.4 L173.4,359.4 L174.2,359.4 L175.1,361.1 L175.9,361.1 L176.8,361.1 L177.6,361.1 L178.5,361.1 L179.3,361.1 L180.1,361.1 L181.0,361.1 L181.8,361.4 L182.7,361.4 L183.5,361.1 L184.3,361.4 L185.2,361.4 L186.0,361.1 L186.9,360.7 L187.7,361.4 L188.6,360.7 L189.4,361.1 L190.2,361.1 L191.1,361.1 L191.9,360.4 L192.8,359.4 L193.6,359.4 L194.4,359.4 L195.3,359.7 L196.1,359.4 L197.0,359.0 L197.8,360.0 L198.7,360.0 L199.5,360.4 L200.3,360.0 L201.2,360.4 L202.0,360.4 L202.9,360.7 L203.7,360.4 L204.5,360.7 L205.4,361.4 L206.2,361.8 L207.1,361.8 L207.9,361.8 L208.8,361.4 L209.6,361.1 L210.4,361.4 L211.3,361.8 L212.1,361.4 L213.0,361.4 L213.8,361.4 L214.6,361.8 L215.5,361.8 L216.3,361.8 L217.2,361.4 L218.0,361.4 L218.8,361.4 L219.7,361.4 L220.5,361.8 L221.4,361.4 L222.2,361.8 L223.1,361.4 L223.9,361.8 L224.7,361.8 L225.6,361.4 L226.4,361.4 L227.3,361.4 L228.1,361.8 L228.9,361.4 L229.8,361.4 L230.6,361.4 L231.5,361.8 L232.3,360.4 L233.2,360.0 L234.0,357.3 L234.8,360.0 L235.7,361.4 L236.5,361.4 L237.4,362.8 L238.2,362.5 L239.0,362.5 L239.9,361.8 L240.7,361.4 L241.6,361.8 L242.4,361.4 L243.3,361.4 L244.1,361.8 L244.9,361.8 L245.8,361.4 L246.6,361.4 L247.5,361.1 L248.3,361.1 L249.1,361.4 L250.0,361.1 L250.8,361.4 L251.7,361.4 L252.5,361.4 L253.4,361.8 L254.2,361.8 L255.0,361.8 L255.9,361.8 L256.7,361.4 L257.6,361.4 L258.4,361.8 L259.2,361.4 L260.1,361.4 L260.9,361.1 L261.8,361.8 L262.6,361.4 L263.5,361.1 L264.3,361.1 L265.1,361.1 L266.0,361.1 L266.8,361.4 L267.7,361.1 L268.5,358.3 L269.3,361.4 L270.2,361.8 L271.0,361.1 L271.9,361.4 L272.7,361.8 L273.5,361.4 L274.4,361.4 L275.2,361.8 L276.1,361.4 L276.9,361.4 L277.8,361.4 L278.6,361.4 L279.4,364.6 L280.3,361.1 L281.1,361.1 L282.0,360.7 L282.8,360.7 L283.6,360.4 L284.5,360.7 L285.3,361.1 L286.2,361.1 L287.0,360.0 L287.9,360.7 L288.7,360.4 L289.5,360.4 L290.4,360.4 L291.2,360.4 L292.1,360.0 L292.9,360.4 L293.7,360.7 L294.6,360.4 L295.4,360.4 L296.3,360.0 L297.1,360.4 L298.0,360.4 L298.8,360.0 L299.6,360.4 L300.5,361.1 L301.3,360.4 L302.2,360.0 L303.0,360.0 L303.8,359.4 L307.2,359.0 L308.1,358.7 L308.9,358.3 L309.7,358.7 L310.6,358.3 L311.4,358.0 L312.3,358.0 L313.1,358.3 L313.9,358.3 L314.8,358.7 L315.6,358.3 L316.5,358.3 L317.3,358.3 L318.1,358.3 L319.0,358.7 L319.8,358.3 L320.7,359.4 L321.5,358.7 L322.4,359.0 L323.2,359.0 L324.0,359.7 L324.9,360.4 L325.7,360.4 L326.6,360.0 L327.4,360.4 L328.2,360.0 L329.1,359.7 L329.9,360.4 L330.8,359.7 L331.6,360.0 L332.5,360.0 L333.3,360.0 L334.1,360.4 L335.0,360.0 L335.8,360.0 L336.7,359.7 L337.5,359.7 L338.3,359.7 L339.2,360.0 L340.0,359.7 L340.9,359.4 L341.7,359.4 L342.6,360.0 L343.4,359.4 L344.2,359.7 L345.1,360.0 L345.9,358.7 L346.8,358.7 L347.6,358.7 L348.4,358.3 L349.3,358.3 L350.1,358.0 L351.0,358.0 L351.8,358.7 L352.7,358.7 L353.5,359.0 L354.3,359.0 L355.2,359.0 L356.0,359.0 L356.9,358.7 L357.7,358.7 L358.5,358.7 L359.4,358.7 L360.2,358.7 L361.1,358.7 L361.9,358.3 L362.7,358.7 L363.6,359.0 L364.4,358.7 L365.3,358.7 L366.1,359.0 L367.0,359.0 L367.8,359.4 L368.6,359.4 L369.5,359.0 L370.3,359.4 L371.2,359.7 L372.0,360.0 L372.8,359.4 L373.7,359.7 L374.5,359.7 L375.4,359.7 L376.2,359.7 L377.1,359.7 L377.9,359.0 L378.7,359.4 L379.6,359.4 L380.4,359.0 L381.3,359.0 L382.1,359.0 L382.9,359.0 L383.8,357.6 L384.6,357.3 L385.5,356.2 L386.3,356.2 L387.2,356.6 L388.0,356.6 L388.8,356.6 L389.7,356.9 L390.5,358.0 L391.4,359.0 L392.2,359.0 L393.0,358.7 L393.9,358.3 L394.7,358.3 L395.6,358.3 L396.4,358.3 L397.3,358.7 L398.1,359.0 L398.9,358.3 L399.8,358.0 L400.6,357.6 L401.5,357.6 L402.3,357.6 L403.1,358.0 L404.0,356.9 L404.8,356.6 L405.7,356.6 L406.5,357.3 L407.3,356.9 L408.2,356.9 L409.0,356.6 L409.9,356.9 L410.7,356.9 L411.6,356.6 L412.4,357.3 L413.2,356.9 L414.1,357.6 L414.9,357.3 L415.8,357.3 L416.6,358.0 L417.4,358.3 L418.3,358.0 L419.1,358.0 L420.0,357.6 L420.8,358.3 L421.7,358.0 L422.5,358.7 L423.3,358.3 L424.2,358.7 L425.0,358.7 L425.9,358.0 L426.7,358.0 L427.5,357.6 L428.4,357.3 L429.2,357.3 L430.1,356.6 L430.9,356.6 L431.8,355.9 L432.6,356.6 L433.4,356.2 L434.3,356.2 L435.1,356.6 L436.0,356.9 L436.8,356.6 L437.6,356.6 L438.5,356.9 L439.3,357.6 L440.2,357.3 L441.0,357.6 L441.9,357.6 L442.7,357.6 L443.5,358.0 L444.4,358.0 L445.2,358.3 L446.1,358.3 L446.9,356.9 L447.7,356.9 L448.6,356.2 L449.4,358.3 L450.3,357.3 L451.1,358.0 L451.9,352.0 L452.8,352.4 L453.6,352.4 L454.5,353.1 L455.3,353.1 L456.2,354.1 L457.0,353.8 L457.8,354.1 L458.7,354.1 L459.5,353.4 L460.4,353.8 L461.2,353.8 L462.0,354.1 L462.9,353.4 L463.7,353.4 L464.6,353.8 L465.4,353.4 L466.3,354.1 L467.1,352.7 L467.9,352.7 L468.8,352.4 L469.6,351.3 L470.5,352.0 L471.3,351.7 L472.1,352.4 L473.0,352.4 L473.8,352.4 L474.7,352.7 L475.5,352.7 L476.4,352.7 L477.2,352.4 L478.0,352.7 L478.9,353.4 L479.7,353.1 L480.6,353.1 L481.4,352.0 L482.2,352.0 L483.1,352.4 L483.9,351.7 L484.8,352.0 L485.6,351.7 L486.5,352.0 L487.3,351.7 L488.1,351.7 L489.0,351.7 L489.8,351.7 L490.7,352.0 L491.5,352.0 L492.3,351.7 L493.2,352.0 L494.0,352.4 L494.9,352.7 L495.7,352.7 L496.5,352.4 L497.4,352.7 L498.2,353.1 L499.1,352.0 L499.9,353.4 L500.8,353.1 L501.6,353.4 L502.4,353.8 L503.3,353.8 L504.1,353.8 L505.0,353.8 L505.8,353.4 L506.6,353.8 L507.5,353.4 L508.3,353.4 L509.2,353.1 L510.0,353.8 L510.9,353.4 L511.7,352.4 L512.5,352.7 L513.4,353.4 L514.2,352.7 L515.1,353.1 L515.9,352.7 L516.7,352.7 L517.6,352.7 L518.4,352.4 L519.3,352.7 L520.1,352.7 L521.0,352.7 L521.8,352.4 L522.6,352.7 L523.5,352.4 L524.3,352.7 L525.2,352.4 L526.0,352.7 L526.8,352.4 L527.7,352.4 L528.5,352.4 L529.4,352.0 L530.2,352.0 L531.1,352.4 L531.9,352.4 L532.7,352.7 L533.6,352.4 L534.4,352.7 L535.3,353.1 L536.1,353.1 L536.9,353.4 L537.8,353.1 L538.6,353.1 L539.5,353.4 L540.3,352.7 L541.2,352.4 L542.0,352.0 L542.8,352.4 L543.7,352.4 L544.5,352.7 L545.4,352.7 L546.2,352.4 L547.0,353.1 L547.9,352.4 L548.7,353.1 L549.6,352.7 L550.4,353.1 L551.2,353.1 L552.1,352.7 L552.9,352.7 L553.8,352.0 L554.6,351.0 L555.5,351.3 L556.3,350.6 L557.1,351.0 L558.0,351.0 L558.8,349.6 L559.7,350.3 L560.5,349.6 L561.3,349.9 L562.2,349.9 L563.0,349.9 L563.9,349.2 L564.7,349.2 L565.6,349.6 L566.4,348.9 L567.2,348.9 L568.1,349.9 L568.9,349.9 L569.8,349.9 L570.6,349.2 L571.4,351.0 L572.3,352.4 L573.1,352.4 L574.0,352.7 L574.8,352.4 L575.7,352.7 L576.5,352.4 L577.3,352.4 L578.2,352.4 L579.0,352.4 L579.9,352.4 L580.7,352.4 L581.5,352.4 L582.4,352.7 L583.2,352.7 L584.1,352.0 L584.9,352.4 L585.8,352.4 L586.6,352.4 L587.4,352.0 L588.3,351.7 L589.1,350.6 L590.0,350.6 L590.8,351.0 L591.6,349.6 L592.5,349.6 L593.3,349.9 L594.2,349.9 L595.0,349.9 L595.8,349.6 L596.7,349.2 L597.5,348.9 L598.4,348.5 L599.2,348.5 L600.1,348.9 L600.9,348.5 L601.7,347.9 L602.6,347.9 L603.4,348.2 L604.3,348.5 L605.1,348.2 L605.9,348.2 L606.8,348.2 L607.6,347.5 L608.5,348.5 L609.3,347.9 L610.2,342.6 L611.0,346.1 L611.8,348.2 L612.7,348.2 L613.5,348.5 L614.4,349.2 L615.2,348.9 L616.0,348.9 L616.9,349.6 L617.7,349.2 L618.6,348.9 L619.4,347.9 L620.3,347.2 L621.1,347.5 L621.9,347.9 L622.8,347.9 L623.6,347.5 L624.5,348.2 L625.3,349.6 L626.1,349.9 L627.0,349.6 L627.8,351.0 L628.7,349.9 L629.5,349.6 L630.4,349.6 L631.2,350.3 L632.0,349.9 L632.9,350.6 L633.7,350.6 L634.6,350.6 L635.4,351.0 L636.2,350.6 L637.1,350.6 L637.9,351.0 L638.8,350.3 L639.6,349.6 L640.4,349.2 L641.3,349.2 L642.1,349.6 L643.0,349.6 L643.8,349.2 L644.7,349.6 L645.5,350.3 L646.3,350.3 L647.2,350.3 L648.0,350.3 L648.9,349.6 L649.7,349.6 L650.5,349.9 L651.4,349.9 L652.2,350.3 L653.1,349.6 L653.9,349.2 L654.8,349.6 L655.6,349.6 L656.4,349.6 L657.3,349.2 L658.1,349.2 L659.0,349.2 L659.8,349.2 L660.6,349.2 L661.5,348.9 L662.3,348.9 L663.2,348.9 L664.0,349.2 L664.9,348.9 L665.7,348.5 L666.5,349.2 L667.4,349.6 L668.2,349.6 L669.1,349.9 L669.9,349.2 L670.7,349.6 L671.6,349.9 L672.4,350.3 L673.3,349.9 L674.1,351.3 L675.0,351.7 L675.8,352.7 L676.6,353.1 L677.5,353.8 L678.3,354.8 L679.2,354.5 L680.0,354.1" stroke="#ff7f0e" stroke-width="2" fill="none" opacity="0.8"/>
<!-- Thermal Generation -->
<path d="M80.0,344.4 L80.8,351.7 L81.7,353.8 L82.5,354.8 L83.4,356.2 L84.2,356.6 L85.0,357.3 L85.9,347.9 L86.7,358.7 L87.6,327.6 L88.4,336.7 L89.3,307.4 L90.1,292.1 L90.9,305.0 L91.8,323.5 L92.6,316.1 L93.5,316.8 L94.3,316.8 L95.1,335.3 L96.0,335.0 L96.8,336.0 L97.7,335.3 L98.5,335.3 L99.4,331.1 L100.2,330.8 L101.0,331.8 L101.9,332.5 L102.7,333.9 L103.6,337.7 L104.4,337.0 L105.2,329.0 L106.1,322.8 L106.9,323.1 L107.8,323.1 L108.6,312.6 L109.5,309.9 L110.3,309.2 L111.1,320.7 L112.0,321.7 L112.8,320.0 L113.7,320.3 L114.5,321.4 L115.3,318.9 L116.2,318.9 L117.0,319.6 L117.9,320.0 L118.7,319.6 L119.6,317.2 L120.4,318.9 L121.2,317.9 L122.1,312.0 L122.9,310.9 L123.8,312.0 L124.6,315.4 L125.4,317.2 L126.3,318.2 L127.1,317.5 L128.0,316.5 L128.8,316.5 L129.6,297.7 L130.5,286.9 L131.3,285.1 L132.2,307.8 L133.0,315.8 L133.9,316.1 L134.7,315.8 L135.5,316.5 L136.4,316.1 L137.2,315.8 L138.1,315.1 L138.9,314.7 L139.7,314.4 L140.6,297.3 L141.4,305.3 L142.3,305.0 L143.1,315.1 L144.0,315.4 L144.8,316.5 L145.6,317.2 L146.5,317.9 L147.3,316.8 L148.2,287.9 L149.0,287.9 L149.8,283.7 L150.7,287.9 L151.5,287.9 L152.4,287.2 L153.2,287.9 L154.1,307.4 L154.9,306.0 L155.7,315.8 L156.6,315.4 L157.4,315.4 L158.3,316.1 L159.1,317.2 L159.9,286.5 L160.8,285.5 L161.6,310.2 L162.5,315.8 L164.2,319.3 L165.0,321.0 L165.8,322.4 L166.7,321.7 L167.5,322.1 L168.4,321.7 L169.2,321.7 L170.0,296.6 L170.9,292.8 L171.7,292.8 L172.6,292.8 L173.4,318.6 L174.2,317.9 L175.1,316.5 L175.9,318.6 L176.8,318.2 L177.6,320.3 L178.5,319.6 L179.3,318.2 L180.1,316.1 L181.0,314.7 L181.8,314.0 L182.7,314.7 L183.5,314.7 L184.3,314.7 L185.2,315.4 L186.0,316.5 L186.9,318.6 L187.7,318.9 L188.6,318.2 L189.4,309.9 L190.2,296.3 L191.1,308.1 L191.9,308.5 L192.8,313.0 L193.6,318.6 L194.4,319.3 L195.3,318.6 L196.1,318.2 L197.0,318.6 L197.8,318.6 L198.7,317.9 L199.5,318.2 L200.3,317.2 L201.2,317.2 L202.0,317.5 L202.9,318.2 L203.7,320.0 L204.5,320.3 L205.4,319.6 L206.2,320.3 L207.1,320.0 L207.9,318.9 L208.8,317.5 L209.6,319.3 L210.4,318.6 L211.3,319.3 L212.1,318.9 L213.0,318.6 L213.8,325.2 L214.6,327.3 L215.5,327.6 L216.3,329.7 L217.2,330.1 L218.0,329.7 L218.8,328.7 L219.7,328.3 L220.5,328.0 L221.4,328.0 L222.2,328.7 L223.1,327.6 L223.9,328.0 L224.7,328.0 L225.6,327.6 L226.4,326.6 L227.3,328.0 L228.1,328.3 L228.9,328.0 L229.8,327.3 L230.6,301.1 L231.5,311.3 L232.3,310.9 L233.2,329.0 L234.0,364.6 L234.8,364.2 L235.7,364.9 L236.5,364.9 L237.4,364.9 L238.2,364.2 L239.0,364.9 L239.9,364.6 L240.7,365.6 L241.6,365.6 L242.4,363.2 L243.3,363.9 L244.1,362.8 L244.9,353.8 L245.8,354.8 L246.6,344.0 L247.5,334.3 L248.3,334.6 L249.1,327.6 L250.0,327.3 L250.8,295.6 L251.7,326.2 L252.5,328.0 L253.4,329.0 L254.2,328.7 L255.0,328.3 L255.9,328.3 L256.7,327.3 L257.6,327.6 L258.4,327.6 L259.2,328.0 L260.1,326.9 L260.9,326.2 L261.8,326.9 L262.6,328.7 L263.5,327.6 L264.3,300.4 L265.1,301.1 L266.0,328.0 L266.8,306.0 L267.7,298.0 L268.5,296.6 L269.3,326.9 L270.2,326.2 L271.0,326.9 L271.9,326.6 L272.7,326.6 L273.5,327.3 L274.4,328.0 L275.2,328.0 L276.1,328.0 L276.9,327.3 L277.8,327.6 L278.6,327.6 L279.4,327.6 L280.3,327.3 L281.1,327.3 L282.0,327.6 L282.8,328.0 L283.6,329.0 L284.5,329.0 L285.3,327.3 L286.2,329.4 L287.0,328.0 L287.9,384.1 L288.7,383.4 L289.5,372.9 L290.4,359.4 L291.2,314.4 L292.1,297.0 L292.9,299.8 L293.7,322.4 L294.6,327.3 L295.4,327.6 L296.3,325.2 L297.1,325.5 L298.0,325.9 L298.8,326.2 L299.6,325.9 L300.5,326.2 L301.3,319.6 L302.2,326.9 L303.0,327.3 L303.8,326.6 L307.2,380.3 L308.1,370.2 L308.9,356.2 L309.7,324.8 L310.6,324.5 L311.4,287.9 L312.3,287.2 L313.1,285.5 L313.9,285.1 L314.8,285.1 L315.6,288.6 L316.5,286.9 L317.3,295.9 L318.1,312.6 L319.0,312.6 L319.8,312.6 L320.7,320.0 L321.5,286.2 L322.4,285.8 L323.2,325.9 L324.0,325.5 L324.9,303.9 L325.7,311.6 L326.6,317.2 L327.4,302.9 L328.2,305.0 L329.1,309.9 L329.9,307.8 L330.8,286.2 L331.6,282.3 L332.5,282.7 L333.3,283.0 L334.1,283.7 L335.0,287.9 L335.8,296.3 L336.7,281.6 L337.5,287.6 L338.3,312.0 L339.2,315.1 L340.0,306.0 L340.9,299.1 L341.7,282.3 L342.6,289.6 L343.4,300.1 L344.2,299.1 L345.1,311.6 L345.9,293.1 L346.8,303.6 L347.6,322.1 L348.4,324.8 L349.3,325.5 L350.1,317.9 L351.0,324.5 L351.8,282.7 L352.7,300.4 L353.5,318.9 L354.3,309.2 L355.2,305.7 L356.0,313.0 L356.9,314.4 L357.7,292.4 L358.5,292.8 L359.4,312.6 L360.2,310.2 L361.1,312.3 L361.9,302.2 L362.7,297.3 L363.6,327.6 L364.4,294.5 L365.3,308.1 L366.1,313.0 L367.0,293.8 L367.8,304.6 L368.6,302.9 L369.5,300.1 L370.3,293.1 L371.2,291.4 L372.0,290.0 L372.8,290.3 L373.7,293.5 L374.5,299.4 L375.4,308.1 L376.2,288.9 L377.1,287.9 L377.9,310.9 L378.7,311.3 L379.6,290.3 L380.4,307.4 L381.3,288.9 L382.1,280.2 L382.9,283.4 L383.8,279.2 L384.6,325.2 L385.5,327.3 L386.3,320.3 L387.2,313.3 L388.0,322.1 L388.8,325.9 L389.7,310.2 L390.5,284.1 L391.4,277.1 L392.2,279.2 L393.0,281.6 L393.9,279.2 L394.7,277.8 L395.6,278.1 L396.4,282.3 L397.3,278.8 L398.1,283.7 L398.9,282.0 L399.8,281.6 L400.6,287.6 L401.5,279.2 L402.3,279.9 L403.1,279.2 L404.0,297.7 L404.8,328.7 L405.7,327.6 L406.5,329.0 L407.3,327.6 L408.2,329.0 L409.0,329.0 L409.9,329.0 L410.7,308.8 L411.6,287.2 L412.4,278.1 L413.2,278.1 L414.1,278.8 L414.9,282.7 L415.8,278.1 L416.6,278.8 L417.4,277.1 L418.3,278.1 L419.1,293.8 L420.0,298.7 L420.8,294.5 L421.7,276.1 L422.5,278.8 L423.3,275.7 L424.2,307.1 L425.0,322.4 L425.9,325.9 L426.7,325.5 L427.5,326.9 L428.4,326.2 L429.2,326.6 L430.1,326.2 L430.9,323.1 L431.8,276.7 L432.6,275.7 L433.4,275.7 L434.3,275.7 L435.1,275.7 L436.0,283.0 L436.8,303.6 L437.6,312.0 L438.5,313.0 L439.3,320.0 L440.2,323.5 L441.0,313.3 L441.9,306.7 L442.7,290.3 L443.5,287.6 L444.4,311.3 L445.2,319.6 L446.1,324.1 L446.9,324.5 L447.7,349.9 L448.6,350.6 L449.4,343.3 L450.3,327.3 L451.1,327.3 L451.9,318.2 L452.8,278.5 L453.6,277.1 L454.5,277.1 L455.3,279.2 L456.2,278.5 L457.0,278.5 L457.8,279.5 L458.7,326.6 L459.5,324.8 L460.4,324.8 L461.2,318.2 L462.0,315.1 L462.9,311.6 L463.7,281.6 L464.6,299.4 L465.4,324.8 L466.3,314.7 L467.1,313.3 L467.9,303.6 L468.8,303.9 L469.6,277.8 L470.5,292.1 L471.3,310.2 L472.1,296.6 L473.0,294.9 L473.8,298.4 L474.7,296.3 L475.5,299.4 L476.4,280.6 L477.2,277.8 L478.0,278.5 L478.9,278.5 L479.7,306.4 L480.6,300.1 L481.4,293.5 L482.2,287.6 L483.1,292.4 L483.9,280.9 L484.8,286.9 L485.6,282.3 L486.5,280.9 L487.3,279.9 L488.1,280.2 L489.0,280.6 L489.8,297.3 L490.7,312.0 L491.5,302.5 L492.3,281.6 L493.2,282.0 L494.0,284.4 L494.9,286.5 L495.7,307.4 L496.5,311.3 L497.4,314.7 L498.2,316.8 L499.1,317.2 L499.9,310.6 L500.8,310.2 L501.6,312.6 L502.4,313.0 L503.3,313.3 L504.1,283.7 L505.0,304.3 L505.8,300.4 L506.6,316.5 L507.5,312.3 L508.3,319.6 L509.2,338.4 L510.0,322.1 L510.9,321.7 L511.7,320.0 L512.5,326.6 L513.4,288.6 L514.2,301.1 L515.1,307.4 L515.9,331.1 L516.7,341.2 L517.6,336.7 L518.4,340.2 L519.3,336.7 L520.1,336.7 L521.0,336.0 L521.8,339.8 L522.6,338.8 L523.5,335.3 L524.3,349.9 L525.2,363.5 L526.0,372.9 L526.8,361.4 L527.7,332.5 L528.5,332.2 L529.4,354.1 L530.2,350.3 L531.1,332.5 L531.9,299.8 L532.7,307.8 L533.6,290.7 L534.4,291.4 L535.3,291.7 L536.1,291.4 L536.9,292.4 L537.8,291.4 L538.6,291.4 L539.5,293.8 L540.3,309.5 L541.2,308.5 L542.0,308.5 L542.8,291.7 L543.7,292.1 L544.5,292.4 L545.4,315.1 L546.2,323.5 L547.0,324.1 L547.9,322.8 L548.7,326.2 L549.6,325.2 L550.4,321.4 L551.2,321.4 L552.1,321.4 L552.9,307.1 L553.8,309.5 L554.6,310.9 L555.5,322.8 L556.3,326.6 L557.1,323.1 L558.0,322.4 L558.8,325.9 L559.7,326.2 L560.5,326.6 L561.3,326.9 L562.2,326.6 L563.0,329.0 L563.9,328.7 L564.7,325.2 L565.6,327.6 L566.4,323.8 L567.2,326.2 L568.1,325.2 L568.9,322.4 L569.8,320.7 L570.6,321.0 L571.4,320.7 L572.3,317.2 L573.1,314.0 L574.0,313.3 L574.8,316.1 L575.7,307.8 L576.5,314.7 L577.3,315.4 L578.2,298.0 L579.0,279.9 L579.9,279.2 L580.7,279.2 L581.5,279.5 L582.4,279.5 L583.2,278.8 L584.1,280.9 L584.9,278.1 L585.8,352.4 L586.6,353.1 L587.4,352.0 L588.3,351.7 L589.1,351.7 L590.0,352.0 L590.8,352.4 L591.6,352.7 L592.5,352.4 L593.3,325.2 L594.2,325.2 L595.0,324.8 L595.8,279.5 L596.7,277.4 L597.5,277.1 L598.4,277.1 L599.2,275.7 L600.1,280.9 L600.9,276.7 L601.7,281.3 L602.6,277.8 L603.4,277.8 L604.3,280.6 L605.1,285.1 L605.9,328.3 L606.8,335.3 L607.6,329.7 L608.5,332.9 L609.3,326.9 L610.2,326.6 L611.0,326.6 L611.8,328.3 L612.7,330.8 L613.5,321.4 L614.4,278.1 L615.2,291.4 L616.0,320.0 L616.9,321.4 L617.7,323.8 L618.6,324.8 L619.4,328.7 L620.3,352.7 L621.1,353.1 L621.9,352.7 L622.8,345.1 L623.6,333.2 L624.5,283.7 L625.3,285.1 L626.1,343.0 L627.0,349.9 L627.8,346.1 L628.7,349.2 L629.5,354.1 L630.4,353.4 L631.2,351.3 L632.0,349.9 L632.9,352.4 L633.7,324.1 L634.6,284.1 L635.4,296.6 L636.2,324.5 L637.1,325.2 L637.9,324.8 L638.8,285.8 L639.6,287.6 L640.4,287.6 L641.3,286.9 L642.1,286.5 L643.0,285.8 L643.8,285.1 L644.7,281.3 L645.5,279.2 L646.3,282.7 L647.2,283.0 L648.0,318.2 L648.9,319.3 L649.7,354.1 L650.5,360.4 L651.4,378.2 L652.2,379.2 L653.1,350.3 L653.9,286.9 L654.8,292.8 L655.6,293.5 L656.4,290.0 L657.3,288.2 L658.1,288.6 L659.0,288.2 L659.8,285.8 L660.6,285.8 L661.5,282.0 L662.3,279.5 L663.2,282.7 L664.0,278.5 L664.9,282.3 L665.7,282.0 L666.5,289.6 L667.4,300.8 L668.2,301.1 L669.1,301.5 L669.9,307.4 L670.7,306.0 L671.6,326.9 L672.4,344.0 L673.3,324.1 L674.1,293.1 L675.0,279.9 L675.8,280.6 L676.6,280.6 L677.5,287.9 L678.3,316.5 L679.2,322.1 L680.0,322.4" stroke="#2ca02c" stroke-width="2" fill="none" opacity="0.8"/>
<!-- Solar Generation -->
<path d="M80.0,414.4 L80.8,385.5 L81.7,373.6 L82.5,372.2 L83.4,373.6 L84.2,374.7 L85.0,373.6 L85.9,375.0 L86.7,377.1 L87.6,382.4 L88.4,396.0 L89.3,413.0 L90.1,420.0 L90.9,420.0 L91.8,420.0 L92.6,420.0 L93.5,420.0 L94.3,420.0 L95.1,420.0 L96.0,420.0 L96.8,420.0 L97.7,420.0 L98.5,420.0 L99.4,420.0 L100.2,415.5 L101.0,390.7 L101.9,384.4 L102.7,384.8 L103.6,375.0 L104.4,388.6 L105.2,386.2 L106.1,379.6 L106.9,397.7 L107.8,400.1 L108.6,409.2 L109.5,419.0 L110.3,420.0 L111.1,420.0 L112.0,420.0 L112.8,420.0 L113.7,420.0 L114.5,420.0 L115.3,420.0 L116.2,420.0 L117.0,420.0 L117.9,420.0 L118.7,420.0 L119.6,420.0 L120.4,419.3 L121.2,398.0 L122.1,410.6 L122.9,390.4 L123.8,389.3 L124.6,406.4 L125.4,384.8 L126.3,382.0 L127.1,386.9 L128.0,401.9 L128.8,399.1 L129.6,413.7 L130.5,420.0 L131.3,420.0 L132.2,420.0 L133.0,420.0 L133.9,420.0 L134.7,420.0 L135.5,420.0 L136.4,420.0 L137.2,420.0 L138.1,420.0 L138.9,420.0 L139.7,420.0 L140.6,413.7 L141.4,383.1 L142.3,371.6 L143.1,371.6 L144.0,372.6 L144.8,374.0 L145.6,374.0 L146.5,372.2 L147.3,371.2 L148.2,371.9 L149.0,385.1 L149.8,414.1 L150.7,420.0 L151.5,420.0 L152.4,420.0 L153.2,420.0 L154.1,420.0 L154.9,420.0 L155.7,420.0 L156.6,420.0 L157.4,420.0 L158.3,420.0 L159.1,420.0 L159.9,420.0 L160.8,414.1 L161.6,383.4 L162.5,370.9 L163.3,420.0 L164.2,372.6 L165.0,374.3 L165.8,374.3 L166.7,372.6 L167.5,371.2 L168.4,371.9 L169.2,385.8 L170.0,414.8 L170.9,420.0 L171.7,420.0 L172.6,420.0 L173.4,420.0 L174.2,420.0 L175.1,420.0 L175.9,420.0 L176.8,420.0 L177.6,420.0 L178.5,420.0 L179.3,420.0 L180.1,420.0 L181.0,414.8 L181.8,384.4 L182.7,371.9 L183.5,371.9 L184.3,374.0 L185.2,375.4 L186.0,375.4 L186.9,373.6 L187.7,371.9 L188.6,372.6 L189.4,388.3 L190.2,415.5 L191.1,420.0 L191.9,420.0 L192.8,420.0 L193.6,420.0 L194.4,420.0 L195.3,420.0 L196.1,420.0 L197.0,420.0 L197.8,420.0 L198.7,420.0 L199.5,420.0 L200.3,420.0 L201.2,419.0 L202.0,387.6 L202.9,373.6 L203.7,372.6 L204.5,374.3 L205.4,376.8 L206.2,375.7 L207.1,375.0 L207.9,377.8 L208.8,383.1 L209.6,399.4 L210.4,417.9 L211.3,420.0 L212.1,420.0 L213.0,420.0 L213.8,420.0 L214.6,420.0 L215.5,420.0 L216.3,420.0 L217.2,420.0 L218.0,420.0 L218.8,420.0 L219.7,420.0 L220.5,420.0 L221.4,416.2 L222.2,388.6 L223.1,372.9 L223.9,372.2 L224.7,374.7 L225.6,375.7 L226.4,376.1 L227.3,374.0 L228.1,372.6 L228.9,374.0 L229.8,391.1 L230.6,416.9 L231.5,420.0 L232.3,420.0 L233.2,420.0 L234.0,420.0 L234.8,420.0 L235.7,420.0 L236.5,420.0 L237.4,420.0 L238.2,420.0 L239.0,420.0 L239.9,420.0 L240.7,420.0 L241.6,415.8 L242.4,390.4 L243.3,373.6 L244.1,372.9 L244.9,377.1 L245.8,377.5 L246.6,375.7 L247.5,376.1 L248.3,407.5 L249.1,372.2 L250.0,408.8 L250.8,415.1 L251.7,420.0 L252.5,420.0 L253.4,420.0 L254.2,420.0 L255.0,420.0 L255.9,420.0 L256.7,420.0 L257.6,420.0 L258.4,420.0 L259.2,420.0 L260.1,420.0 L260.9,420.0 L261.8,419.0 L262.6,409.5 L263.5,386.2 L264.3,380.6 L265.1,376.8 L266.0,378.5 L266.8,376.4 L267.7,394.6 L268.5,397.3 L269.3,398.4 L270.2,416.2 L271.0,418.6 L271.9,420.0 L272.7,420.0 L273.5,420.0 L274.4,420.0 L275.2,420.0 L276.1,420.0 L276.9,420.0 L277.8,420.0 L278.6,420.0 L279.4,420.0 L280.3,420.0 L281.1,420.0 L282.0,417.9 L282.8,415.5 L283.6,397.3 L284.5,376.4 L285.3,378.9 L286.2,382.7 L287.0,378.9 L287.9,384.1 L288.7,399.1 L289.5,414.8 L290.4,410.9 L291.2,419.7 L292.1,420.0 L292.9,420.0 L293.7,420.0 L294.6,420.0 L295.4,420.0 L296.3,420.0 L297.1,420.0 L298.0,420.0 L298.8,420.0 L299.6,420.0 L300.5,420.0 L301.3,420.0 L302.2,419.3 L303.0,400.5 L303.8,408.8 L304.7,420.0 L305.5,420.0 L306.4,420.0 L307.2,393.2 L308.1,379.9 L308.9,379.9 L309.7,400.1 L310.6,407.5 L311.4,419.3 L312.3,420.0 L313.1,420.0 L313.9,420.0 L314.8,420.0 L315.6,420.0 L316.5,420.0 L317.3,420.0 L318.1,420.0 L319.0,420.0 L319.8,420.0 L320.7,420.0 L321.5,420.0 L322.4,417.9 L323.2,402.2 L324.0,397.7 L324.9,404.3 L325.7,407.5 L326.6,410.2 L327.4,396.6 L328.2,394.9 L329.1,414.8 L329.9,404.7 L330.8,402.2 L331.6,419.7 L332.5,420.0 L333.3,420.0 L334.1,420.0 L335.0,420.0 L335.8,420.0 L336.7,420.0 L337.5,420.0 L338.3,420.0 L339.2,420.0 L340.0,420.0 L340.9,420.0 L341.7,420.0 L342.6,418.6 L343.4,411.6 L344.2,407.5 L345.1,398.7 L345.9,395.3 L346.8,388.3 L347.6,382.4 L348.4,396.6 L349.3,407.8 L350.1,416.5 L351.0,416.5 L351.8,419.7 L352.7,420.0 L353.5,420.0 L354.3,420.0 L355.2,420.0 L356.0,420.0 L356.9,420.0 L357.7,420.0 L358.5,420.0 L359.4,420.0 L360.2,420.0 L361.1,420.0 L361.9,420.0 L362.7,420.0 L363.6,418.3 L364.4,415.5 L365.3,411.3 L366.1,412.3 L367.0,405.7 L367.8,405.7 L368.6,407.5 L369.5,407.8 L370.3,416.2 L371.2,418.6 L372.0,419.7 L372.8,420.0 L373.7,420.0 L374.5,420.0 L375.4,420.0 L376.2,420.0 L377.1,420.0 L377.9,420.0 L378.7,420.0 L379.6,420.0 L380.4,420.0 L381.3,420.0 L382.1,420.0 L382.9,420.0 L383.8,418.3 L384.6,416.9 L385.5,405.4 L386.3,407.5 L387.2,402.9 L388.0,401.5 L388.8,405.4 L389.7,409.2 L390.5,409.9 L391.4,415.1 L392.2,419.7 L393.0,420.0 L393.9,420.0 L394.7,420.0 L395.6,420.0 L396.4,420.0 L397.3,420.0 L398.1,420.0 L398.9,420.0 L399.8,420.0 L400.6,420.0 L401.5,420.0 L402.3,420.0 L403.1,418.3 L404.0,391.4 L404.8,372.9 L405.7,372.2 L406.5,376.4 L407.3,377.1 L408.2,375.7 L409.0,373.3 L409.9,371.6 L410.7,372.9 L411.6,397.3 L412.4,419.3 L413.2,420.0 L414.1,420.0 L414.9,420.0 L415.8,420.0 L416.6,420.0 L417.4,420.0 L418.3,420.0 L419.1,420.0 L420.0,420.0 L420.8,420.0 L421.7,420.0 L422.5,420.0 L423.3,418.3 L424.2,392.1 L425.0,373.3 L425.9,373.3 L426.7,376.1 L427.5,378.2 L428.4,377.8 L429.2,375.4 L430.1,373.3 L430.9,375.0 L431.8,399.4 L432.6,419.7 L433.4,420.0 L434.3,420.0 L435.1,420.0 L436.0,420.0 L436.8,420.0 L437.6,420.0 L438.5,420.0 L439.3,420.0 L440.2,420.0 L441.0,420.0 L441.9,420.0 L442.7,420.0 L443.5,419.0 L444.4,393.2 L445.2,374.0 L446.1,374.0 L446.9,376.1 L447.7,378.5 L448.6,377.8 L449.4,375.4 L450.3,373.3 L451.1,375.4 L451.9,400.1 L452.8,419.7 L453.6,420.0 L454.5,420.0 L455.3,420.0 L456.2,420.0 L457.0,420.0 L457.8,420.0 L458.7,420.0 L459.5,420.0 L460.4,420.0 L461.2,420.0 L462.0,420.0 L462.9,420.0 L463.7,419.3 L464.6,394.6 L465.4,374.3 L466.3,375.0 L467.1,377.5 L467.9,387.6 L468.8,378.5 L469.6,375.7 L470.5,373.6 L471.3,376.1 L472.1,401.5 L473.0,419.7 L473.8,420.0 L474.7,420.0 L475.5,420.0 L476.4,420.0 L477.2,420.0 L478.0,420.0 L478.9,420.0 L479.7,420.0 L480.6,420.0 L481.4,420.0 L482.2,420.0 L483.1,420.0 L483.9,419.0 L484.8,410.6 L485.6,408.5 L486.5,391.1 L487.3,389.7 L488.1,389.7 L489.0,387.6 L489.8,394.2 L490.7,382.7 L491.5,390.4 L492.3,406.4 L493.2,420.0 L494.0,420.0 L494.9,420.0 L495.7,420.0 L496.5,420.0 L497.4,420.0 L498.2,420.0 L499.1,420.0 L499.9,420.0 L500.8,420.0 L501.6,420.0 L502.4,420.0 L503.3,420.0 L504.1,420.0 L505.0,415.8 L505.8,416.9 L506.6,413.0 L507.5,409.9 L508.3,403.6 L509.2,405.4 L510.0,410.2 L510.9,413.0 L511.7,418.6 L512.5,417.9 L513.4,420.0 L514.2,420.0 L515.1,420.0 L515.9,420.0 L516.7,420.0 L517.6,420.0 L518.4,420.0 L519.3,420.0 L520.1,420.0 L521.0,420.0 L521.8,420.0 L522.6,420.0 L523.5,420.0 L524.3,419.7 L525.2,413.4 L526.0,411.3 L526.8,388.3 L527.7,393.2 L528.5,379.9 L529.4,402.9 L530.2,392.1 L531.1,393.5 L531.9,415.1 L532.7,418.3 L533.6,420.0 L534.4,420.0 L535.3,420.0 L536.1,420.0 L536.9,420.0 L537.8,420.0 L538.6,420.0 L539.5,420.0 L540.3,420.0 L541.2,420.0 L542.0,420.0 L542.8,420.0 L543.7,420.0 L544.5,420.0 L545.4,417.9 L546.2,416.5 L547.0,414.4 L547.9,411.6 L548.7,407.8 L549.6,403.3 L550.4,404.7 L551.2,412.0 L552.1,415.1 L552.9,417.6 L553.8,420.0 L554.6,420.0 L555.5,420.0 L556.3,420.0 L557.1,420.0 L558.0,420.0 L558.8,420.0 L559.7,420.0 L560.5,420.0 L561.3,420.0 L562.2,420.0 L563.0,420.0 L563.9,420.0 L564.7,420.0 L565.6,419.0 L566.4,417.2 L567.2,406.1 L568.1,405.4 L568.9,405.4 L569.8,402.9 L570.6,402.6 L571.4,401.5 L572.3,410.6 L573.1,417.9 L574.0,420.0 L574.8,420.0 L575.7,420.0 L576.5,420.0 L577.3,420.0 L578.2,420.0 L579.0,420.0 L579.9,420.0 L580.7,420.0 L581.5,420.0 L582.4,420.0 L583.2,420.0 L584.1,420.0 L584.9,420.0 L585.8,418.3 L586.6,415.8 L587.4,414.8 L588.3,411.3 L589.1,404.7 L590.0,409.9 L590.8,410.6 L591.6,413.4 L592.5,416.5 L593.3,417.9 L594.2,420.0 L595.0,420.0 L595.8,420.0 L596.7,420.0 L597.5,420.0 L598.4,420.0 L599.2,420.0 L600.1,420.0 L600.9,420.0 L601.7,420.0 L602.6,420.0 L603.4,420.0 L604.3,420.0 L605.1,420.0 L605.9,417.9 L606.8,413.0 L607.6,412.3 L608.5,406.8 L609.3,400.8 L610.2,409.2 L611.0,414.8 L611.8,415.1 L612.7,408.8 L613.5,409.2 L614.4,420.0 L615.2,420.0 L616.0,420.0 L616.9,420.0 L617.7,420.0 L618.6,420.0 L619.4,420.0 L620.3,420.0 L621.1,420.0 L621.9,420.0 L622.8,420.0 L623.6,420.0 L624.5,420.0 L625.3,419.7 L626.1,412.3 L627.0,412.7 L627.8,387.2 L628.7,380.6 L629.5,383.8 L630.4,401.5 L631.2,399.8 L632.0,399.4 L632.9,414.4 L633.7,416.5 L634.6,420.0 L635.4,420.0 L636.2,420.0 L637.1,420.0 L637.9,420.0 L638.8,420.0 L639.6,420.0 L640.4,420.0 L641.3,420.0 L642.1,420.0 L643.0,420.0 L643.8,420.0 L644.7,420.0 L645.5,420.0 L646.3,404.0 L647.2,376.8 L648.0,376.1 L648.9,383.1 L649.7,380.3 L650.5,379.2 L651.4,377.5 L652.2,372.2 L653.1,395.3 L653.9,411.3 L654.8,420.0 L655.6,420.0 L656.4,420.0 L657.3,420.0 L658.1,420.0 L659.0,420.0 L659.8,420.0 L660.6,420.0 L661.5,420.0 L662.3,420.0 L663.2,420.0 L664.0,420.0 L664.9,420.0 L665.7,420.0 L666.5,415.1 L667.4,392.8 L668.2,395.6 L669.1,398.7 L669.9,404.0 L670.7,411.3 L671.6,415.1 L672.4,417.2 L673.3,417.2 L674.1,419.7 L675.0,420.0 L675.8,420.0 L676.6,420.0 L677.5,420.0 L678.3,420.0 L679.2,420.0 L680.0,420.0" stroke="#d62728" stroke-width="2" fill="none" opacity="0.8"/>
<!-- Forecast -->
<path d="M80.0,211.6 L80.8,194.5 L81.7,179.2 L82.5,171.8 L83.4,170.1 L84.2,165.6 L85.0,163.5 L85.9,157.9 L86.7,146.0 L87.6,141.9 L88.4,135.9 L89.3,138.4 L90.1,150.2 L90.9,156.1 L91.8,169.4 L92.6,191.0 L93.5,213.0 L94.3,230.0 L95.1,240.1 L96.0,247.5 L96.8,250.3 L97.7,246.8 L98.5,244.3 L99.4,232.1 L100.2,220.6 L101.0,209.1 L101.9,188.6 L102.7,176.4 L103.6,172.9 L104.4,166.3 L105.2,166.6 L106.1,169.0 L106.9,164.5 L107.8,156.5 L108.6,145.7 L109.5,145.3 L110.3,138.0 L111.1,139.1 L112.0,156.8 L112.8,183.7 L113.7,207.4 L114.5,222.7 L115.3,233.2 L116.2,240.1 L117.0,242.2 L117.9,239.8 L118.7,225.9 L119.6,191.4 L120.4,155.5 L121.2,138.7 L122.1,136.3 L122.9,136.6 L123.8,136.6 L124.6,137.0 L125.4,140.5 L126.3,141.9 L127.1,140.1 L128.0,136.6 L128.8,133.8 L129.6,132.8 L130.5,130.4 L131.3,130.0 L132.2,150.2 L133.0,179.2 L133.9,205.3 L134.7,224.1 L135.5,234.2 L136.4,239.8 L137.2,241.5 L138.1,239.1 L138.9,224.5 L139.7,190.3 L140.6,154.4 L141.4,138.0 L142.3,136.3 L143.1,137.0 L144.0,135.6 L144.8,134.5 L145.6,136.3 L146.5,136.6 L147.3,131.1 L148.2,125.1 L149.0,123.4 L149.8,126.2 L150.7,125.5 L151.5,126.9 L152.4,146.7 L153.2,176.7 L154.1,199.7 L154.9,222.4 L155.7,233.9 L156.6,239.8 L157.4,241.9 L158.3,239.8 L159.1,226.2 L159.9,192.7 L160.8,156.8 L161.6,138.7 L162.5,132.8 L163.3,128.6 L164.2,126.2 L165.0,123.0 L165.8,118.5 L166.7,110.8 L167.5,104.6 L168.4,99.3 L169.2,100.7 L170.0,110.5 L170.9,115.4 L171.7,119.9 L172.6,138.4 L173.4,167.3 L174.2,196.2 L175.1,221.7 L175.9,232.8 L176.8,239.8 L177.6,241.9 L178.5,240.1 L179.3,226.9 L180.1,193.8 L181.0,158.2 L181.8,139.8 L182.7,137.3 L183.5,138.7 L184.3,132.8 L185.2,127.6 L186.0,122.0 L186.9,112.6 L187.7,104.9 L188.6,100.4 L189.4,101.1 L190.2,110.8 L191.1,115.4 L191.9,119.9 L192.8,137.0 L193.6,164.2 L194.4,202.9 L195.3,219.9 L196.1,231.1 L197.0,238.8 L197.8,241.2 L198.7,239.5 L199.5,227.6 L200.3,194.1 L201.2,158.6 L202.0,139.8 L202.9,134.9 L203.7,135.9 L204.5,134.5 L205.4,132.8 L206.2,134.2 L207.1,136.6 L207.9,131.8 L208.8,131.1 L209.6,128.6 L210.4,131.1 L211.3,130.0 L212.1,129.7 L213.0,149.9 L213.8,178.5 L214.6,210.5 L215.5,221.3 L216.3,229.0 L217.2,234.6 L218.0,237.4 L218.8,238.4 L219.7,234.6 L220.5,220.6 L221.4,204.9 L222.2,187.5 L223.1,173.9 L223.9,168.3 L224.7,167.3 L225.6,169.7 L226.4,168.7 L227.3,164.9 L228.1,157.9 L228.9,146.7 L229.8,140.8 L230.6,147.8 L231.5,153.0 L232.3,156.8 L233.2,169.0 L234.0,190.3 L234.8,211.2 L235.7,227.6 L236.5,237.4 L237.4,243.6 L238.2,246.1 L239.0,243.3 L239.9,239.1 L240.7,226.6 L241.6,213.3 L242.4,200.4 L243.3,183.0 L244.1,174.6 L244.9,173.2 L245.8,167.3 L246.6,163.8 L247.5,162.8 L248.3,151.6 L249.1,138.0 L250.0,130.4 L250.8,129.7 L251.7,128.3 L252.5,134.9 L253.4,153.4 L254.2,180.2 L255.0,200.1 L255.9,218.2 L256.7,230.7 L257.6,239.1 L258.4,241.2 L259.2,239.5 L260.1,228.3 L260.9,195.2 L261.8,160.3 L262.6,140.5 L263.5,130.4 L264.3,128.3 L265.1,127.6 L266.0,126.5 L266.8,125.1 L267.7,125.1 L268.5,119.9 L269.3,119.9 L270.2,120.9 L271.0,124.1 L271.9,123.0 L272.7,123.7 L273.5,141.2 L274.4,168.0 L275.2,200.8 L276.1,219.6 L276.9,231.1 L277.8,239.1 L278.6,241.5 L279.4,239.8 L280.3,228.6 L281.1,194.8 L282.0,160.3 L282.8,140.1 L283.6,133.1 L284.5,132.4 L285.3,133.5 L286.2,134.2 L287.0,136.6 L287.9,135.6 L288.7,134.5 L289.5,133.8 L290.4,132.8 L291.2,132.4 L292.1,130.0 L292.9,129.0 L293.7,147.8 L294.6,175.7 L295.4,226.2 L296.3,231.1 L297.1,236.7 L298.0,236.3 L298.8,232.8 L299.6,229.7 L300.5,224.5 L301.3,218.9 L302.2,183.3 L303.0,169.7 L303.8,152.3 L304.7,130.0 L305.5,115.0 L306.4,107.7 L307.2,103.5 L308.1,108.1 L308.9,115.4 L309.7,131.1 L310.6,145.0 L311.4,142.9 L312.3,159.6 L313.1,177.1 L313.9,188.2 L314.8,195.2 L315.6,212.3 L316.5,226.9 L317.3,238.1 L318.1,244.7 L319.0,246.8 L319.8,244.3 L320.7,231.1 L321.5,197.6 L322.4,160.0 L323.2,142.6 L324.0,139.4 L324.9,140.1 L325.7,141.2 L326.6,140.5 L327.4,142.6 L328.2,161.4 L329.1,167.3 L329.9,153.0 L330.8,154.4 L331.6,164.9 L332.5,176.7 L333.3,184.7 L334.1,187.9 L335.0,190.3 L335.8,212.3 L336.7,248.9 L337.5,244.3 L338.3,245.0 L339.2,247.1 L340.0,245.0 L340.9,231.8 L341.7,198.7 L342.6,160.3 L343.4,143.6 L344.2,139.8 L345.1,138.7 L345.9,138.4 L346.8,141.5 L347.6,145.0 L348.4,145.7 L349.3,146.0 L350.1,143.6 L351.0,142.2 L351.8,140.8 L352.7,137.3 L353.5,139.8 L354.3,158.6 L355.2,185.1 L356.0,210.5 L356.9,223.8 L357.7,232.8 L358.5,238.4 L359.4,241.2 L360.2,242.6 L361.1,238.8 L361.9,223.1 L362.7,201.8 L363.6,181.2 L364.4,168.3 L365.3,159.6 L366.1,158.2 L367.0,162.4 L367.8,167.0 L368.6,170.4 L369.5,172.9 L370.3,173.9 L371.2,167.7 L372.0,162.8 L372.8,157.5 L373.7,162.8 L374.5,172.5 L375.4,190.7 L376.2,202.2 L377.1,221.0 L377.9,232.1 L378.7,236.7 L379.6,239.5 L380.4,239.5 L381.3,234.2 L382.1,218.2 L382.9,194.8 L383.8,175.0 L384.6,156.8 L385.5,142.6 L386.3,142.6 L387.2,143.6 L388.0,152.3 L388.8,157.2 L389.7,160.7 L390.5,153.7 L391.4,140.5 L392.2,132.8 L393.0,127.9 L393.9,137.3 L394.7,154.4 L395.6,175.7 L396.4,200.8 L397.3,214.4 L398.1,222.0 L398.9,227.6 L399.8,227.6 L400.6,224.1 L401.5,207.0 L402.3,170.8 L403.1,133.1 L404.0,118.5 L404.8,117.1 L405.7,120.9 L406.5,125.1 L407.3,132.4 L408.2,138.4 L409.0,141.2 L409.9,143.3 L410.7,141.9 L411.6,140.5 L412.4,138.7 L413.2,132.1 L414.1,138.7 L414.9,152.7 L415.8,178.1 L416.6,208.4 L417.4,221.0 L418.3,228.6 L419.1,234.9 L420.0,235.3 L420.8,231.8 L421.7,216.4 L422.5,181.6 L423.3,146.0 L424.2,130.7 L425.0,130.0 L425.9,133.1 L426.7,138.4 L427.5,142.9 L428.4,147.4 L429.2,148.5 L430.1,149.5 L430.9,145.7 L431.8,144.0 L432.6,142.6 L433.4,139.4 L434.3,144.3 L435.1,161.0 L436.0,186.5 L436.8,214.4 L437.6,227.3 L438.5,237.4 L439.3,243.6 L440.2,244.7 L441.0,241.9 L441.9,227.6 L442.7,192.7 L443.5,157.2 L444.4,172.2 L445.2,161.7 L446.1,140.5 L446.9,131.1 L447.7,131.8 L448.6,139.1 L449.4,149.5 L450.3,160.3 L451.1,175.0 L451.9,157.9 L452.8,169.4 L453.6,193.4 L454.5,201.5 L455.3,201.8 L456.2,201.1 L457.0,225.2 L457.8,244.0 L458.7,250.3 L459.5,247.8 L460.4,242.9 L461.2,239.8 L462.0,237.7 L462.9,210.9 L463.7,194.8 L464.6,194.8 L465.4,185.4 L466.3,171.1 L467.1,164.2 L467.9,162.8 L468.8,185.1 L469.6,187.9 L470.5,179.5 L471.3,175.3 L472.1,170.4 L473.0,151.3 L473.8,161.0 L474.7,167.0 L475.5,170.1 L476.4,202.9 L477.2,236.3 L478.0,241.2 L478.9,241.2 L479.7,246.4 L480.6,251.0 L481.4,254.1 L482.2,255.8 L483.1,230.0 L483.9,213.7 L484.8,210.5 L485.6,203.6 L486.5,156.1 L487.3,144.3 L488.1,143.6 L489.0,145.3 L489.8,146.7 L490.7,141.5 L491.5,140.1 L492.3,140.1 L493.2,141.9 L494.0,138.7 L494.9,138.7 L495.7,159.6 L496.5,188.2 L497.4,215.1 L498.2,228.3 L499.1,237.7 L499.9,243.6 L500.8,246.4 L501.6,248.2 L502.4,245.4 L503.3,231.4 L504.1,211.9 L505.0,193.8 L505.8,179.9 L506.6,172.9 L507.5,170.8 L508.3,176.4 L509.2,182.3 L510.0,181.6 L510.9,180.9 L511.7,189.3 L512.5,196.9 L513.4,207.0 L514.2,218.2 L515.1,219.9 L515.9,215.4 L516.7,207.4 L517.6,215.1 L518.4,202.2 L519.3,170.1 L520.1,158.9 L521.0,156.1 L521.8,155.1 L522.6,155.1 L523.5,154.4 L524.3,152.7 L525.2,149.9 L526.0,143.6 L526.8,131.8 L527.7,123.7 L528.5,120.2 L529.4,114.3 L530.2,115.4 L531.1,120.9 L531.9,133.5 L532.7,146.7 L533.6,138.4 L534.4,150.2 L535.3,162.4 L536.1,170.1 L536.9,202.9 L537.8,224.5 L538.6,222.7 L539.5,223.1 L540.3,224.1 L541.2,225.2 L542.0,226.9 L542.8,227.6 L543.7,200.8 L544.5,156.5 L545.4,145.7 L546.2,139.8 L547.0,127.6 L547.9,147.4 L548.7,153.4 L549.6,153.4 L550.4,153.7 L551.2,154.8 L552.1,159.3 L552.9,135.9 L553.8,133.5 L554.6,140.1 L555.5,140.8 L556.3,168.3 L557.1,177.4 L558.0,220.3 L558.8,232.8 L559.7,221.7 L560.5,222.0 L561.3,225.9 L562.2,229.7 L563.0,233.5 L563.9,228.0 L564.7,182.6 L565.6,171.8 L566.4,168.7 L567.2,162.8 L568.1,148.5 L568.9,141.9 L569.8,132.1 L570.6,139.1 L571.4,139.8 L572.3,138.4 L573.1,142.6 L574.0,129.0 L574.8,119.9 L575.7,129.0 L576.5,146.0 L577.3,172.2 L578.2,364.2 L579.0,225.5 L579.9,226.6 L580.7,229.0 L581.5,230.4 L582.4,228.0 L583.2,213.7 L584.1,177.8 L584.9,138.0 L585.8,120.9 L586.6,116.8 L587.4,117.8 L588.3,120.6 L589.1,126.9 L590.0,131.8 L590.8,135.9 L591.6,134.9 L592.5,130.7 L593.3,129.3 L594.2,125.5 L595.0,135.6 L595.8,152.3 L596.7,179.5 L597.5,203.6 L598.4,207.7 L599.2,220.6 L600.1,230.7 L600.9,236.7 L601.7,238.8 L602.6,236.0 L603.4,221.7 L604.3,187.2 L605.1,146.4 L605.9,126.9 L606.8,121.3 L607.6,121.6 L608.5,123.7 L609.3,129.7 L610.2,134.2 L611.0,138.0 L611.8,139.8 L612.7,138.0 L613.5,133.1 L614.4,130.7 L615.2,126.2 L616.0,135.6 L616.9,152.0 L617.7,178.5 L618.6,204.6 L619.4,220.3 L620.3,230.0 L621.1,236.3 L621.9,239.1 L622.8,236.3 L623.6,221.7 L624.5,188.2 L625.3,149.2 L626.1,131.4 L627.0,129.0 L627.8,130.7 L628.7,133.1 L629.5,139.1 L630.4,144.0 L631.2,145.7 L632.0,146.0 L632.9,144.3 L633.7,142.2 L634.6,139.1 L635.4,133.1 L636.2,141.2 L637.1,156.1 L637.9,181.6 L638.8,211.6 L639.6,218.5 L640.4,224.8 L641.3,230.4 L642.1,232.1 L643.0,232.5 L643.8,225.5 L644.7,210.9 L645.5,187.5 L646.3,168.7 L647.2,161.4 L648.0,154.8 L648.9,155.8 L649.7,162.1 L650.5,169.0 L651.4,173.9 L652.2,177.1 L653.1,178.8 L653.9,172.2 L654.8,164.5 L655.6,160.0 L656.4,165.6 L657.3,176.0 L658.1,193.8 L659.0,209.8 L659.8,217.8 L660.6,232.1 L661.5,239.1 L662.3,243.3 L663.2,244.0 L664.0,239.8 L664.9,226.9 L665.7,207.7 L666.5,190.0 L667.4,171.8 L668.2,164.5 L669.1,163.1 L669.9,163.5 L670.7,167.3 L671.6,169.0 L672.4,169.0 L673.3,161.4 L674.1,148.5 L675.0,141.5 L675.8,137.3 L676.6,145.3 L677.5,162.1 L678.3,185.1 L679.2,199.0 L680.0,201.5" stroke="#9467bd" stroke-width="2" fill="none" opacity="0.8"/>
<!-- Total Generation -->
<path d="M80.0,267.0 L80.8,243.3 L81.7,240.1 L82.5,239.8 L83.4,234.9 L84.2,219.6 L85.0,202.2 L85.9,198.0 L86.7,211.6 L87.6,169.7 L88.4,186.5 L89.3,192.1 L90.1,195.5 L90.9,215.1 L91.8,240.5 L92.6,212.6 L93.5,228.3 L94.3,219.9 L95.1,229.0 L96.0,229.0 L96.8,203.6 L97.7,217.1 L98.5,217.1 L99.4,214.7 L100.2,216.1 L101.0,199.0 L101.9,203.6 L102.7,196.2 L103.6,192.7 L104.4,208.8 L105.2,203.6 L106.1,199.0 L106.9,220.3 L107.8,229.7 L108.6,230.0 L109.5,179.2 L110.3,119.2 L111.1,127.6 L112.0,136.6 L112.8,173.9 L113.7,183.3 L114.5,175.0 L115.3,162.4 L116.2,168.7 L117.0,177.8 L117.9,170.1 L118.7,180.9 L119.6,153.7 L120.4,183.0 L121.2,167.7 L122.1,168.3 L122.9,152.7 L123.8,170.1 L124.6,180.9 L125.4,151.3 L126.3,135.6 L127.1,152.0 L128.0,171.1 L128.8,183.7 L129.6,202.2 L130.5,207.0 L131.3,198.0 L132.2,231.4 L133.0,244.3 L133.9,246.1 L134.7,247.1 L135.5,250.3 L136.4,249.6 L137.2,240.8 L138.1,237.0 L138.9,241.9 L139.7,234.2 L140.6,202.2 L141.4,188.6 L142.3,181.6 L143.1,182.6 L144.0,187.5 L144.8,198.3 L145.6,203.6 L146.5,205.6 L147.3,205.3 L148.2,177.1 L149.0,188.2 L149.8,209.1 L150.7,211.6 L151.5,210.2 L152.4,211.2 L153.2,216.1 L154.1,230.4 L154.9,225.5 L155.7,232.5 L156.6,227.6 L157.4,220.6 L158.3,201.1 L159.1,191.4 L159.9,163.1 L160.8,139.1 L161.6,124.8 L162.5,108.4 L164.2,137.0 L165.0,143.3 L165.8,133.5 L166.7,146.0 L167.5,153.0 L168.4,153.0 L169.2,156.5 L170.0,163.8 L170.9,186.1 L171.7,208.4 L172.6,218.9 L173.4,245.4 L174.2,238.1 L175.1,224.8 L175.9,215.8 L176.8,209.1 L177.6,188.6 L178.5,195.5 L179.3,212.6 L180.1,239.8 L181.0,240.8 L181.8,214.7 L182.7,204.6 L183.5,205.3 L184.3,207.0 L185.2,205.3 L186.0,206.0 L186.9,199.7 L187.7,192.1 L188.6,186.8 L189.4,185.8 L190.2,193.8 L191.1,210.2 L191.9,220.6 L192.8,228.3 L193.6,223.4 L194.4,191.0 L195.3,164.5 L196.1,144.0 L197.0,136.6 L197.8,171.8 L198.7,154.1 L199.5,150.9 L200.3,144.6 L201.2,146.7 L202.0,109.8 L202.9,118.2 L203.7,115.0 L204.5,95.5 L205.4,114.0 L206.2,120.2 L207.1,124.8 L207.9,79.5 L208.8,99.7 L209.6,139.1 L210.4,207.7 L211.3,212.6 L212.1,211.6 L213.0,218.2 L213.8,215.1 L214.6,224.1 L215.5,202.9 L216.3,178.5 L217.2,160.7 L218.0,150.2 L218.8,147.8 L219.7,144.0 L220.5,158.9 L221.4,179.2 L222.2,163.5 L223.1,135.9 L223.9,150.2 L224.7,167.0 L225.6,194.1 L226.4,207.7 L227.3,210.5 L228.1,209.8 L228.9,214.0 L229.8,230.4 L230.6,221.3 L231.5,223.4 L232.3,224.8 L233.2,249.2 L234.0,294.9 L234.8,301.8 L235.7,301.1 L236.5,298.0 L237.4,301.1 L238.2,291.7 L239.0,286.5 L239.9,269.4 L240.7,254.8 L241.6,249.9 L242.4,226.2 L243.3,225.9 L244.1,214.7 L244.9,205.6 L245.8,203.2 L246.6,195.5 L247.5,186.5 L248.3,225.5 L249.1,178.1 L250.0,193.8 L250.8,164.5 L251.7,200.8 L252.5,212.3 L253.4,236.7 L254.2,238.8 L255.0,231.4 L255.9,246.4 L256.7,254.4 L257.6,256.9 L258.4,262.5 L259.2,263.2 L260.1,266.3 L260.9,265.2 L261.8,265.9 L262.6,258.6 L263.5,234.6 L264.3,198.7 L265.1,192.4 L266.0,220.6 L266.8,194.1 L267.7,201.1 L268.5,196.9 L269.3,231.8 L270.2,225.5 L271.0,231.4 L271.9,232.5 L272.7,241.2 L273.5,255.5 L274.4,263.9 L275.2,247.8 L276.1,256.9 L276.9,258.3 L277.8,252.0 L278.6,252.3 L279.4,260.7 L280.3,262.5 L281.1,262.5 L282.0,257.6 L282.8,248.5 L283.6,224.5 L284.5,186.8 L285.3,179.2 L286.2,140.5 L287.0,106.0 L287.9,175.0 L288.7,181.6 L289.5,180.9 L290.4,190.7 L291.2,171.5 L292.1,162.4 L292.9,178.1 L293.7,231.1 L294.6,219.9 L295.4,204.6 L296.3,207.0 L297.1,192.7 L298.0,212.6 L298.8,205.6 L299.6,207.7 L300.5,209.5 L301.3,189.3 L302.2,189.3 L303.0,173.2 L303.8,149.2 L307.2,204.6 L308.1,166.3 L308.9,167.7 L309.7,191.7 L310.6,218.2 L311.4,208.1 L312.3,217.8 L313.1,222.0 L313.9,222.4 L314.8,219.9 L315.6,214.4 L316.5,215.4 L317.3,225.9 L318.1,246.4 L319.0,231.8 L319.8,241.5 L320.7,241.9 L321.5,210.2 L322.4,205.3 L323.2,232.5 L324.0,223.4 L324.9,206.0 L325.7,226.9 L326.6,226.9 L327.4,211.9 L328.2,219.6 L329.1,244.3 L329.9,228.6 L330.8,198.0 L331.6,216.8 L332.5,202.5 L333.3,197.3 L334.1,206.3 L335.0,210.2 L335.8,225.2 L336.7,218.2 L337.5,223.4 L338.3,248.5 L339.2,249.2 L340.0,236.7 L340.9,210.5 L341.7,213.0 L342.6,212.6 L343.4,191.0 L344.2,186.1 L345.1,178.8 L345.9,164.5 L346.8,178.5 L347.6,182.3 L348.4,196.9 L349.3,210.2 L350.1,180.2 L351.0,180.5 L351.8,158.9 L352.7,173.9 L353.5,190.7 L354.3,209.8 L355.2,201.5 L356.0,218.5 L356.9,211.6 L357.7,204.2 L358.5,216.4 L359.4,232.5 L360.2,209.8 L361.1,209.8 L361.9,181.6 L362.7,181.2 L363.6,221.0 L364.4,184.0 L365.3,199.4 L366.1,203.2 L367.0,179.9 L367.8,194.8 L368.6,200.1 L369.5,213.3 L370.3,218.5 L371.2,212.3 L372.0,201.5 L372.8,202.9 L373.7,206.3 L374.5,187.9 L375.4,182.6 L376.2,156.8 L377.1,154.4 L377.9,178.8 L378.7,188.2 L379.6,165.6 L380.4,168.0 L381.3,139.1 L382.1,119.2 L382.9,129.7 L383.8,132.8 L384.6,191.7 L385.5,186.8 L386.3,186.1 L387.2,180.2 L388.0,183.7 L388.8,197.6 L389.7,196.2 L390.5,185.4 L391.4,191.0 L392.2,209.8 L393.0,217.5 L393.9,216.1 L394.7,214.7 L395.6,213.0 L396.4,214.0 L397.3,208.4 L398.1,211.2 L398.9,206.3 L399.8,203.6 L400.6,208.4 L401.5,190.7 L402.3,179.9 L403.1,167.7 L404.0,173.9 L404.8,179.2 L405.7,175.0 L406.5,155.1 L407.3,130.7 L408.2,139.4 L409.0,146.4 L409.9,149.9 L410.7,122.7 L411.6,120.2 L412.4,175.0 L413.2,191.7 L414.1,203.9 L414.9,217.1 L415.8,209.1 L416.6,210.9 L417.4,207.7 L418.3,201.5 L419.1,213.3 L420.0,217.5 L420.8,206.7 L421.7,183.0 L422.5,186.5 L423.3,179.2 L424.2,193.8 L425.0,188.6 L425.9,197.3 L426.7,203.6 L427.5,211.6 L428.4,207.7 L429.2,205.6 L430.1,199.4 L430.9,198.7 L431.8,168.0 L432.6,176.7 L433.4,172.2 L434.3,182.3 L435.1,185.8 L436.0,191.7 L436.8,214.7 L437.6,221.3 L438.5,217.8 L439.3,231.1 L440.2,239.1 L441.0,217.5 L441.9,216.8 L442.7,178.8 L443.5,169.0 L444.4,163.1 L445.2,157.9 L446.1,148.8 L446.9,150.9 L447.7,190.3 L448.6,207.0 L449.4,210.5 L450.3,205.3 L451.1,211.6 L451.9,223.8 L452.8,205.6 L453.6,200.8 L454.5,189.6 L455.3,187.5 L456.2,190.3 L457.0,188.9 L457.8,188.6 L458.7,224.5 L459.5,225.9 L460.4,228.3 L461.2,216.4 L462.0,224.5 L462.9,219.2 L463.7,160.3 L464.6,163.8 L465.4,191.7 L466.3,193.1 L467.1,194.8 L467.9,190.3 L468.8,176.7 L469.6,130.0 L470.5,135.9 L471.3,157.2 L472.1,161.4 L473.0,169.4 L473.8,164.5 L474.7,171.5 L475.5,179.9 L476.4,180.9 L477.2,195.2 L478.0,202.9 L478.9,210.2 L479.7,239.8 L480.6,233.9 L481.4,225.9 L482.2,212.6 L483.1,213.7 L483.9,210.2 L484.8,208.4 L485.6,193.4 L486.5,155.8 L487.3,168.0 L488.1,163.5 L489.0,168.7 L489.8,192.1 L490.7,173.2 L491.5,168.7 L492.3,147.1 L493.2,180.2 L494.0,185.4 L494.9,199.7 L495.7,206.7 L496.5,216.1 L497.4,219.6 L498.2,227.3 L499.1,231.1 L499.9,223.8 L500.8,224.5 L501.6,225.2 L502.4,195.5 L503.3,199.7 L504.1,190.7 L505.0,214.7 L505.8,204.6 L506.6,208.1 L507.5,182.3 L508.3,202.9 L509.2,239.5 L510.0,209.1 L510.9,204.2 L511.7,202.5 L512.5,211.9 L513.4,189.3 L514.2,135.6 L515.1,121.3 L515.9,145.7 L516.7,174.6 L517.6,185.1 L518.4,178.1 L519.3,163.5 L520.1,172.9 L521.0,164.5 L521.8,145.7 L522.6,126.9 L523.5,126.5 L524.3,144.0 L525.2,172.2 L526.0,181.6 L526.8,144.0 L527.7,127.6 L528.5,117.1 L529.4,175.7 L530.2,173.2 L531.1,171.8 L531.9,159.3 L532.7,169.0 L533.6,159.3 L534.4,170.1 L535.3,173.2 L536.1,180.5 L536.9,174.3 L537.8,175.7 L538.6,185.1 L539.5,188.6 L540.3,210.5 L541.2,219.6 L542.0,219.9 L542.8,204.2 L543.7,199.4 L544.5,197.3 L545.4,214.4 L546.2,225.2 L547.0,231.1 L547.9,232.8 L548.7,235.6 L549.6,230.7 L550.4,231.4 L551.2,239.5 L552.1,242.6 L552.9,230.0 L553.8,236.3 L554.6,237.4 L555.5,250.3 L556.3,254.4 L557.1,250.6 L558.0,251.7 L558.8,254.4 L559.7,257.2 L560.5,257.6 L561.3,258.3 L562.2,257.9 L563.0,260.4 L563.9,259.0 L564.7,255.5 L565.6,257.2 L566.4,251.0 L567.2,242.2 L568.1,241.5 L568.9,238.8 L569.8,233.5 L570.6,233.9 L571.4,234.2 L572.3,241.2 L573.1,245.4 L574.0,246.8 L574.8,248.5 L575.7,240.5 L576.5,246.8 L577.3,244.0 L578.2,228.0 L579.0,211.2 L579.9,212.3 L580.7,210.2 L581.5,213.0 L582.4,211.2 L583.2,209.5 L584.1,214.0 L584.9,210.5 L585.8,278.8 L586.6,281.6 L587.4,279.2 L588.3,275.0 L589.1,267.7 L590.0,272.6 L590.8,274.7 L591.6,275.4 L592.5,274.7 L593.3,250.6 L594.2,253.7 L595.0,254.4 L595.8,208.4 L596.7,198.0 L597.5,188.2 L598.4,195.9 L599.2,185.8 L600.1,176.0 L600.9,183.7 L601.7,157.9 L602.6,130.7 L603.4,124.4 L604.3,117.8 L605.1,114.0 L605.9,181.2 L606.8,189.6 L607.6,192.4 L608.5,186.1 L609.3,170.8 L610.2,170.1 L611.0,190.0 L611.8,182.6 L612.7,159.3 L613.5,138.0 L614.4,105.6 L615.2,103.9 L616.0,142.2 L616.9,123.4 L617.7,114.3 L618.6,111.9 L619.4,114.0 L620.3,142.2 L621.1,146.7 L621.9,146.7 L622.8,128.6 L623.6,120.2 L624.5,77.4 L625.3,71.8 L626.1,121.6 L627.0,127.2 L627.8,96.2 L628.7,91.7 L629.5,107.0 L630.4,122.3 L631.2,120.9 L632.0,115.0 L632.9,160.0 L633.7,123.4 L634.6,67.6 L635.4,106.0 L636.2,166.3 L637.1,145.7 L637.9,176.0 L638.8,130.4 L639.6,122.0 L640.4,96.5 L641.3,135.2 L642.1,137.3 L643.0,144.0 L643.8,138.4 L644.7,151.3 L645.5,149.9 L646.3,120.6 L647.2,97.6 L648.0,96.2 L648.9,101.1 L649.7,118.2 L650.5,116.8 L651.4,126.5 L652.2,120.2 L653.1,118.9 L653.9,117.5 L654.8,165.9 L655.6,178.8 L656.4,153.0 L657.3,151.6 L658.1,156.5 L659.0,150.9 L659.8,140.1 L660.6,125.8 L661.5,126.9 L662.3,148.5 L663.2,139.8 L664.0,135.6 L664.9,162.1 L665.7,164.5 L666.5,175.0 L667.4,157.2 L668.2,145.7 L669.1,150.6 L669.9,145.3 L670.7,93.1 L671.6,138.0 L672.4,148.5 L673.3,104.9 L674.1,115.4 L675.0,84.3 L675.8,80.2 L676.6,97.2 L677.5,82.3 L678.3,118.9 L679.2,119.2 L680.0,129.7" stroke="#8c564b" stroke-width="2" fill="none" opacity="0.8"/>
<!-- Forecast Difference -->
<path d="M80.0,420.0 L80.8,420.0 L81.7,420.0 L82.5,420.0 L83.4,420.0 L84.2,420.0 L85.0,420.0 L85.9,420.0 L86.7,420.0 L87.6,420.0 L88.4,420.0 L89.3,420.0 L90.1,420.0 L90.9,420.0 L91.8,420.0 L92.6,420.0 L93.5,420.0 L94.3,420.0 L95.1,420.0 L96.0,420.0 L96.8,420.0 L97.7,420.0 L98.5,420.0 L99.4,420.0 L100.2,420.0 L101.0,420.0 L101.9,420.0 L102.7,420.0 L103.6,420.0 L104.4,420.0 L105.2,420.0 L106.1,420.0 L106.9,420.0 L107.8,420.0 L108.6,420.0 L109.5,420.0 L110.3,420.0 L111.1,420.0 L112.0,420.0 L112.8,420.0 L113.7,420.0 L114.5,420.0 L115.3,420.0 L116.2,420.0 L117.0,420.0 L117.9,420.0 L118.7,420.0 L119.6,420.0 L120.4,420.0 L121.2,420.0 L122.1,420.0 L122.9,420.0 L123.8,420.0 L124.6,420.0 L125.4,420.0 L126.3,420.0 L127.1,420.0 L128.0,420.0 L128.8,420.0 L129.6,420.0 L130.5,420.0 L131.3,420.0 L132.2,420.0 L133.0,420.0 L133.9,420.0 L134.7,420.0 L135.5,420.0 L136.4,420.0 L137.2,420.0 L138.1,420.0 L138.9,420.0 L139.7,420.0 L140.6,420.0 L141.4,420.0 L142.3,420.0 L143.1,420.0 L144.0,420.0 L144.8,420.0 L145.6,420.0 L146.5,420.0 L147.3,420.0 L148.2,420.0 L149.0,420.0 L149.8,420.0 L150.7,420.0 L151.5,420.0 L152.4,420.0 L153.2,420.0 L154.1,420.0 L154.9,420.0 L155.7,420.0 L156.6,420.0 L157.4,420.0 L158.3,420.0 L159.1,420.0 L159.9,420.0 L160.8,420.0 L161.6,420.0 L162.5,420.0 L163.3,420.0 L164.2,420.0 L165.0,420.0 L165.8,420.0 L166.7,420.0 L167.5,420.0 L168.4,420.0 L169.2,420.0 L170.0,420.0 L170.9,420.0 L171.7,420.0 L172.6,420.0 L173.4,420.0 L174.2,420.0 L175.1,420.0 L175.9,420.0 L176.8,420.0 L177.6,420.0 L178.5,420.0 L179.3,420.0 L180.1,420.0 L181.0,420.0 L181.8,420.0 L182.7,420.0 L183.5,420.0 L184.3,420.0 L185.2,420.0 L186.0,420.0 L186.9,420.0 L187.7,420.0 L188.6,420.0 L189.4,420.0 L190.2,420.0 L191.1,420.0 L191.9,420.0 L192.8,420.0 L193.6,420.0 L194.4,420.0 L195.3,420.0 L196.1,420.0 L197.0,420.0 L197.8,420.0 L198.7,420.0 L199.5,420.0 L200.3,420.0 L201.2,420.0 L202.0,420.0 L202.9,420.0 L203.7,420.0 L204.5,420.0 L205.4,420.0 L206.2,420.0 L207.1,420.0 L207.9,420.0 L208.8,420.0 L209.6,420.0 L210.4,420.0 L211.3,420.0 L212.1,420.0 L213.0,420.0 L213.8,420.0 L214.6,420.0 L215.5,420.0 L216.3,420.0 L217.2,420.0 L218.0,420.0 L218.8,420.0 L219.7,420.0 L220.5,420.0 L221.4,420.0 L222.2,420.0 L223.1,420.0 L223.9,420.0 L224.7,420.0 L225.6,420.0 L226.4,420.0 L227.3,420.0 L228.1,420.0 L228.9,420.0 L229.8,420.0 L230.6,420.0 L231.5,420.0 L232.3,420.0 L233.2,420.0 L234.0,420.0 L234.8,420.0 L235.7,420.0 L236.5,420.0 L237.4,420.0 L238.2,420.0 L239.0,420.0 L239.9,420.0 L240.7,420.0 L241.6,420.0 L242.4,420.0 L243.3,420.0 L244.1,420.0 L244.9,420.0 L245.8,420.0 L246.6,420.0 L247.5,420.0 L248.3,420.0 L249.1,420.0 L250.0,420.0 L250.8,420.0 L251.7,420.0 L252.5,420.0 L253.4,420.0 L254.2,420.0 L255.0,420.0 L255.9,420.0 L256.7,420.0 L257.6,420.0 L258.4,420.0 L259.2,420.0 L260.1,420.0 L260.9,420.0 L261.8,420.0 L262.6,420.0 L263.5,420.0 L264.3,420.0 L265.1,420.0 L266.0,420.0 L266.8,420.0 L267.7,420.0 L268.5,420.0 L269.3,420.0 L270.2,420.0 L271.0,420.0 L271.9,420.0 L272.7,420.0 L273.5,420.0 L274.4,420.0 L275.2,420.0 L276.1,420.0 L276.9,420.0 L277.8,420.0 L278.6,420.0 L279.4,420.0 L280.3,420.0 L281.1,420.0 L282.0,420.0 L282.8,420.0 L283.6,420.0 L284.5,420.0 L285.3,420.0 L286.2,420.0 L287.0,420.0 L287.9,420.0 L288.7,420.0 L289.5,420.0 L290.4,420.0 L291.2,420.0 L292.1,420.0 L292.9,420.0 L293.7,420.0 L294.6,420.0 L295.4,420.0 L296.3,420.0 L297.1,420.0 L298.0,420.0 L298.8,420.0 L299.6,420.0 L300.5,420.0 L301.3,420.0 L302.2,420.0 L303.0,420.0 L303.8,420.0 L304.7,420.0 L305.5,420.0 L306.4,420.0 L307.2,420.0 L308.1,420.0 L308.9,420.0 L309.7,420.0 L310.6,420.0 L311.4,420.0 L312.3,420.0 L313.1,420.0 L313.9,420.0 L314.8,420.0 L315.6,420.0 L316.5,420.0 L317.3,420.0 L318.1,420.0 L319.0,420.0 L319.8,420.0 L320.7,420.0 L321.5,420.0 L322.4,420.0 L323.2,420.0 L324.0,420.0 L324.9,420.0 L325.7,420.0 L326.6,420.0 L327.4,420.0 L328.2,420.0 L329.1,420.0 L329.9,420.0 L330.8,420.0 L331.6,420.0 L332.5,420.0 L333.3,420.0 L334.1,420.0 L335.0,420.0 L335.8,420.0 L336.7,420.0 L337.5,420.0 L338.3,420.0 L339.2,420.0 L340.0,420.0 L340.9,420.0 L341.7,420.0 L342.6,420.0 L343.4,420.0 L344.2,420.0 L345.1,420.0 L345.9,420.0 L346.8,420.0 L347.6,420.0 L348.4,420.0 L349.3,420.0 L350.1,420.0 L351.0,420.0 L351.8,420.0 L352.7,420.0 L353.5,420.0 L354.3,420.0 L355.2,420.0 L356.0,420.0 L356.9,420.0 L357.7,420.0 L358.5,420.0 L359.4,420.0 L360.2,420.0 L361.1,420.0 L361.9,420.0 L362.7,420.0 L363.6,420.0 L364.4,420.0 L365.3,420.0 L366.1,420.0 L367.0,420.0 L367.8,420.0 L368.6,420.0 L369.5,420.0 L370.3,420.0 L371.2,420.0 L372.0,420.0 L372.8,420.0 L373.7,420.0 L374.5,420.0 L375.4,420.0 L376.2,420.0 L377.1,420.0 L377.9,420.0 L378.7,420.0 L379.6,420.0 L380.4,420.0 L381.3,420.0 L382.1,420.0 L382.9,420.0 L383.8,420.0 L384.6,420.0 L385.5,420.0 L386.3,420.0 L387.2,420.0 L388.0,420.0 L388.8,420.0 L389.7,420.0 L390.5,420.0 L391.4,420.0 L392.2,420.0 L393.0,420.0 L393.9,420.0 L394.7,420.0 L395.6,420.0 L396.4,420.0 L397.3,420.0 L398.1,420.0 L398.9,420.0 L399.8,420.0 L400.6,420.0 L401.5,420.0 L402.3,420.0 L403.1,420.0 L404.0,420.0 L404.8,420.0 L405.7,420.0 L406.5,420.0 L407.3,420.0 L408.2,420.0 L409.0,420.0 L409.9,420.0 L410.7,420.0 L411.6,420.0 L412.4,420.0 L413.2,420.0 L414.1,420.0 L414.9,420.0 L415.8,420.0 L416.6,420.0 L417.4,420.0 L418.3,420.0 L419.1,420.0 L420.0,420.0 L420.8,420.0 L421.7,420.0 L422.5,420.0 L423.3,420.0 L424.2,420.0 L425.0,420.0 L425.9,420.0 L426.7,420.0 L427.5,420.0 L428.4,420.0 L429.2,420.0 L430.1,420.0 L430.9,420.0 L431.8,420.0 L432.6,420.0 L433.4,420.0 L434.3,420.0 L435.1,420.0 L436.0,420.0 L436.8,420.0 L437.6,420.0 L438.5,420.0 L439.3,420.0 L440.2,420.0 L441.0,420.0 L441.9,420.0 L442.7,420.0 L443.5,420.0 L444.4,420.0 L445.2,420.0 L446.1,420.0 L446.9,420.0 L447.7,420.0 L448.6,420.0 L449.4,420.0 L450.3,420.0 L451.1,420.0 L451.9,420.0 L452.8,420.0 L453.6,420.0 L454.5,420.0 L455.3,420.0 L456.2,420.0 L457.0,420.0 L457.8,420.0 L458.7,420.0 L459.5,420.0 L460.4,420.0 L461.2,420.0 L462.0,420.0 L462.9,420.0 L463.7,420.0 L464.6,420.0 L465.4,420.0 L466.3,420.0 L467.1,420.0 L467.9,420.0 L468.8,420.0 L469.6,420.0 L470.5,420.0 L471.3,420.0 L472.1,420.0 L473.0,420.0 L473.8,420.0 L474.7,420.0 L475.5,420.0 L476.4,420.0 L477.2,420.0 L478.0,420.0 L478.9,420.0 L479.7,420.0 L480.6,420.0 L481.4,420.0 L482.2,420.0 L483.1,420.0 L483.9,420.0 L484.8,420.0 L485.6,420.0 L486.5,420.0 L487.3,420.0 L488.1,420.0 L489.0,420.0 L489.8,420.0 L490.7,420.0 L491.5,420.0 L492.3,420.0 L493.2,420.0 L494.0,420.0 L494.9,420.0 L495.7,420.0 L496.5,420.0 L497.4,420.0 L498.2,420.0 L499.1,420.0 L499.9,420.0 L500.8,420.0 L501.6,420.0 L502.4,420.0 L503.3,420.0 L504.1,420.0 L505.0,420.0 L505.8,420.0 L506.6,420.0 L507.5,420.0 L508.3,420.0 L509.2,420.0 L510.0,420.0 L510.9,420.0 L511.7,420.0 L512.5,420.0 L513.4,420.0 L514.2,420.0 L515.1,420.0 L515.9,420.0 L516.7,420.0 L517.6,420.0 L518.4,420.0 L519.3,420.0 L520.1,420.0 L521.0,420.0 L521.8,420.0 L522.6,420.0 L523.5,420.0 L524.3,420.0 L525.2,420.0 L526.0,420.0 L526.8,420.0 L527.7,420.0 L528.5,420.0 L529.4,420.0 L530.2,420.0 L531.1,420.0 L531.9,420.0 L532.7,420.0 L533.6,420.0 L534.4,420.0 L535.3,420.0 L536.1,420.0 L536.9,420.0 L537.8,420.0 L538.6,420.0 L539.5,420.0 L540.3,420.0 L541.2,420.0 L542.0,420.0 L542.8,420.0 L543.7,420.0 L544.5,420.0 L545.4,420.0 L546.2,420.0 L547.0,420.0 L547.9,420.0 L548.7,420.0 L549.6,420.0 L550.4,420.0 L551.2,420.0 L552.1,420.0 L552.9,420.0 L553.8,420.0 L554.6,420.0 L555.5,420.0 L556.3,420.0 L557.1,420.0 L558.0,420.0 L558.8,420.0 L559.7,420.0 L560.5,420.0 L561.3,420.0 L562.2,420.0 L563.0,420.0 L563.9,420.0 L564.7,420.0 L565.6,420.0 L566.4,420.0 L567.2,420.0 L568.1,420.0 L568.9,420.0 L569.8,420.0 L570.6,420.0 L571.4,420.0 L572.3,420.0 L573.1,420.0 L574.0,420.0 L574.8,420.0 L575.7,420.0 L576.5,420.0 L577.3,420.0 L578.2,420.0 L579.0,420.0 L579.9,420.0 L580.7,420.0 L581.5,420.0 L582.4,420.0 L583.2,420.0 L584.1,420.0 L584.9,420.0 L585.8,420.0 L586.6,420.0 L587.4,420.0 L588.3,420.0 L589.1,420.0 L590.0,420.0 L590.8,420.0 L591.6,420.0 L592.5,420.0 L593.3,420.0 L594.2,420.0 L595.0,420.0 L595.8,420.0 L596.7,420.0 L597.5,420.0 L598.4,420.0 L599.2,420.0 L600.1,420.0 L600.9,420.0 L601.7,420.0 L602.6,420.0 L603.4,420.0 L604.3,420.0 L605.1,420.0 L605.9,420.0 L606.8,420.0 L607.6,420.0 L608.5,420.0 L609.3,420.0 L610.2,420.0 L611.0,420.0 L611.8,420.0 L612.7,420.0 L613.5,420.0 L614.4,420.0 L615.2,420.0 L616.0,420.0 L616.9,420.0 L617.7,420.0 L618.6,420.0 L619.4,420.0 L620.3,420.0 L621.1,420.0 L621.9,420.0 L622.8,420.0 L623.6,420.0 L624.5,420.0 L625.3,420.0 L626.1,420.0 L627.0,420.0 L627.8,420.0 L628.7,420.0 L629.5,420.0 L630.4,420.0 L631.2,420.0 L632.0,420.0 L632.9,420.0 L633.7,420.0 L634.6,420.0 L635.4,420.0 L636.2,420.0 L637.1,420.0 L637.9,420.0 L638.8,420.0 L639.6,420.0 L640.4,420.0 L641.3,420.0 L642.1,420.0 L643.0,420.0 L643.8,420.0 L644.7,420.0 L645.5,420.0 L646.3,420.0 L647.2,420.0 L648.0,420.0 L648.9,420.0 L649.7,420.0 L650.5,420.0 L651.4,420.0 L652.2,420.0 L653.1,420.0 L653.9,420.0 L654.8,420.0 L655.6,420.0 L656.4,420.0 L657.3,420.0 L658.1,420.0 L659.0,420.0 L659.8,420.0 L660.6,420.0 L661.5,420.0 L662.3,420.0 L663.2,420.0 L664.0,420.0 L664.9,420.0 L665.7,420.0 L666.5,420.0 L667.4,420.0 L668.2,420.0 L669.1,420.0 L669.9,420.0 L670.7,420.0 L671.6,420.0 L672.4,420.0 L673.3,420.0 L674.1,420.0 L675.0,420.0 L675.8,420.0 L676.6,420.0 L677.5,420.0 L678.3,420.0 L679.2,420.0 L680.0,420.0" stroke="#e377c2" stroke-width="2" fill="none" opacity="0.8"/>

<!-- Legend -->
<line x1="690" y1="70" x2="705" y2="70" stroke="#1f77b4" stroke-width="3"/>
<text x="710" y="74" class="legend">Wind Generation</text>
<line x1="690" y1="88" x2="705" y2="88" stroke="#ff7f0e" stroke-width="3"/>
<text x="710" y="92" class="legend">Hydro Generation</text>
<line x1="690" y1="106" x2="705" y2="106" stroke="#2ca02c" stroke-width="3"/>
<text x="710" y="110" class="legend">Thermal Generation</text>
<line x1="690" y1="124" x2="705" y2="124" stroke="#d62728" stroke-width="3"/>
<text x="710" y="128" class="legend">Solar Generation</text>
<line x1="690" y1="142" x2="705" y2="142" stroke="#9467bd" stroke-width="3"/>
<text x="710" y="146" class="legend">Forecast</text>
<line x1="690" y1="160" x2="705" y2="160" stroke="#8c564b" stroke-width="3"/>
<text x="710" y="164" class="legend">Total Generation</text>
<line x1="690" y1="178" x2="705" y2="178" stroke="#e377c2" stroke-width="3"/>
<text x="710" y="182" class="legend">Forecast Difference</text>

<!-- Date range -->
<text x="80" y="495" class="legend">Range: 09/20 - 10/20/2025 (714 records)</text>
</svg>