<?xml version="1.0" encoding="UTF-8"?>
<svg width="800" height="500" xmlns="http://www.w3.org/2000/svg">
<style>
.axis-line { stroke: #333; stroke-width: 1; }
.grid-line { stroke: #ddd; stroke-width: 0.5; }
.title { font: 16px Arial; text-anchor: middle; fill: #333; }
.axis-label { font: 12px Arial; text-anchor: middle; fill: #666; }
.legend { font: 10px Arial; fill: #333; }
</style>

<!-- Title -->
<text x="400.0" y="25" class="title">Northwestern Energy Generation Data - Past 30 Days</text>

<!-- Plot area background -->
<rect x="80" y="50" width="600" height="370" fill="white" stroke="#ddd"/>

<!-- Y-axis -->
<line x1="80" y1="50" x2="80" y2="420" class="axis-line"/>
<text x="30" y="235.0" class="axis-label" transform="rotate(-90, 30, 235.0)">Generation (MW)</text>

<!-- X-axis -->
<line x1="80" y1="420" x2="680" y2="420" class="axis-line"/>
<text x="380.0" y="480" class="axis-label">Time</text>
<line x1="80" y1="420.0" x2="680" y2="420.0" class="grid-line"/>
<text x="70" y="425.0" class="legend" text-anchor="end">0</text>
<line x1="80" y1="327.5" x2="680" y2="327.5" class="grid-line"/>
<text x="70" y="332.5" class="legend" text-anchor="end">356</text>
<line x1="80" y1="235.0" x2="680" y2="235.0" class="grid-line"/>
<text x="70" y="240.0" class="legend" text-anchor="end">712</text>
<line x1="80" y1="142.5" x2="680" y2="142.5" class="grid-line"/>
<text x="70" y="147.5" class="legend" text-anchor="end">1068</text>
<line x1="80" y1="50.0" x2="680" y2="50.0" class="grid-line"/>
<text x="70" y="55.0" class="legend" text-anchor="end">1424</text>
<!-- Wind Generation -->
<path d="M80.0,375.0 L80.8,382.1 L81.7,380.2 L82.5,353.5 L83.4,351.1 L84.2,349.1 L85.1,340.5 L85.9,337.6 L86.7,330.6 L87.6,342.6 L88.4,327.5 L89.3,328.3 L90.1,355.3 L91.0,356.9 L91.8,365.2 L92.6,365.9 L93.5,367.8 L94.3,351.4 L95.2,348.0 L96.0,350.6 L96.9,350.9 L97.7,349.8 L98.5,349.6 L99.4,348.3 L100.2,369.3 L101.1,354.8 L101.9,361.5 L102.8,350.1 L103.6,344.4 L104.4,344.9 L105.3,347.2 L106.1,357.4 L107.0,354.5 L107.8,349.3 L108.7,353.7 L109.5,350.9 L110.3,348.0 L111.2,350.9 L112.0,357.4 L112.9,348.5 L113.7,351.7 L114.6,351.4 L115.4,347.5 L116.2,348.3 L117.1,344.1 L117.9,343.6 L118.8,343.3 L119.6,344.6 L120.4,346.5 L121.3,350.9 L122.1,352.2 L123.0,355.8 L123.8,354.5 L124.7,375.6 L125.5,370.4 L126.3,373.5 L127.2,370.6 L128.0,400.3 L128.9,408.0 L129.7,402.3 L130.6,400.5 L131.4,400.3 L132.2,411.9 L133.1,411.2 L133.9,414.5 L134.8,416.6 L135.6,417.9 L136.5,416.1 L137.3,417.4 L138.1,416.9 L139.0,413.8 L139.8,405.4 L140.7,405.2 L141.5,414.3 L142.4,415.8 L143.2,411.7 L144.0,411.2 L144.9,408.0 L145.7,405.7 L146.6,407.5 L147.4,403.9 L148.3,406.0 L149.1,401.3 L149.9,387.0 L150.8,365.4 L151.6,365.7 L152.5,375.8 L153.3,366.7 L154.2,380.8 L155.0,371.1 L155.8,347.0 L156.7,346.7 L157.5,330.6 L158.4,354.5 L159.2,341.8 L160.1,354.5 L160.9,360.0 L161.7,375.3 L162.6,399.5 L163.4,406.5 L164.3,413.8 L165.1,409.9 L166.0,414.0 L166.8,414.0 L167.6,415.3 L168.5,416.1 L169.3,409.9 L170.2,407.3 L171.0,406.2 L171.9,398.2 L172.7,392.7 L173.5,396.9 L174.4,403.1 L175.2,402.8 L176.1,394.8 L176.9,404.4 L177.8,399.5 L178.6,380.0 L179.4,380.0 L180.3,397.7 L181.1,401.5 L182.0,411.4 L182.8,409.1 L183.7,401.3 L184.5,412.7 L185.3,418.4 L186.2,415.3 L187.0,406.0 L187.9,406.2 L188.7,415.8 L189.6,418.7 L190.4,418.4 L191.2,417.9 L192.1,418.7 L192.9,416.9 L193.8,416.9 L194.6,416.1 L195.4,410.4 L196.3,409.3 L197.1,416.9 L198.0,414.8 L198.8,414.3 L199.7,412.5 L200.5,408.6 L201.3,404.9 L202.2,410.9 L203.0,413.2 L203.9,416.4 L204.7,413.0 L205.6,417.9 L206.4,416.9 L207.2,416.1 L208.1,402.8 L208.9,388.8 L209.8,378.4 L210.6,375.0 L211.5,371.7 L212.3,374.5 L213.1,353.5 L214.0,333.2 L214.8,348.8 L215.7,354.3 L216.5,351.7 L217.4,333.5 L218.2,335.0 L219.0,362.6 L219.9,360.0 L220.7,356.1 L221.6,357.1 L222.4,364.1 L223.3,380.2 L224.1,380.2 L224.9,378.7 L225.8,367.0 L226.6,362.6 L227.5,377.9 L228.3,351.4 L229.2,337.4 L230.0,319.4 L230.8,365.7 L231.7,364.4 L232.5,352.4 L233.4,382.3 L234.2,385.2 L235.1,386.0 L235.9,380.0 L236.7,376.6 L237.6,374.5 L238.4,374.0 L239.3,329.0 L240.1,342.6 L241.0,350.9 L241.8,315.8 L242.6,310.3 L243.5,324.1 L244.3,327.2 L245.2,323.8 L246.0,316.1 L246.9,322.8 L247.7,344.1 L248.5,355.8 L249.4,358.7 L250.2,364.4 L251.1,372.4 L251.9,353.5 L252.8,344.1 L253.6,352.4 L254.4,320.7 L255.3,319.7 L256.1,324.1 L257.0,344.9 L257.8,348.0 L258.7,353.2 L259.5,354.8 L260.3,354.0 L261.2,341.3 L262.0,338.7 L262.9,351.4 L263.7,348.0 L264.6,331.9 L265.4,336.8 L266.2,344.6 L267.1,360.5 L267.9,364.9 L268.8,371.1 L269.6,369.1 L270.4,365.2 L271.3,360.2 L272.1,362.6 L273.0,357.4 L273.8,354.8 L274.7,336.3 L275.5,326.4 L276.3,321.0 L277.2,321.3 L278.0,322.0 L278.9,318.4 L279.7,318.7 L280.6,315.8 L281.4,316.3 L282.2,319.7 L283.1,318.9 L283.9,318.9 L284.8,322.3 L285.6,325.7 L286.5,321.3 L287.3,320.0 L288.1,322.0 L289.0,320.5 L289.8,317.4 L290.7,323.8 L291.5,320.2 L292.4,321.0 L293.2,318.4 L294.0,321.0 L294.9,326.2 L295.7,327.5 L296.6,335.3 L297.4,317.1 L298.3,315.5 L299.1,317.6 L299.9,314.5 L300.8,315.8 L301.6,313.5 L302.5,314.0 L303.3,320.5 L304.2,331.1 L305.0,327.7 L305.8,327.5 L306.7,329.0 L307.5,331.9 L308.4,330.9 L309.2,336.6 L310.1,334.2 L310.9,344.4 L311.7,342.0 L312.6,337.6 L313.4,351.9 L314.3,360.0 L315.1,346.2 L316.0,344.9 L316.8,346.2 L317.6,346.5 L318.5,335.0 L319.3,333.7 L320.2,331.9 L321.0,333.2 L321.9,331.6 L322.7,330.3 L323.5,327.5 L324.4,339.7 L325.2,338.1 L326.1,336.3 L326.9,334.0 L327.8,341.5 L328.6,337.1 L329.4,331.1 L330.3,332.2 L331.1,332.4 L332.0,336.1 L332.8,339.7 L333.7,334.8 L334.5,336.3 L335.3,343.3 L336.2,338.1 L337.0,344.9 L337.9,342.8 L338.7,340.2 L339.6,324.4 L340.4,327.0 L341.2,328.8 L342.1,324.6 L342.9,323.6 L343.8,324.6 L344.6,320.5 L345.4,317.4 L346.3,312.4 L347.1,309.8 L348.0,309.0 L348.8,317.6 L349.7,324.4 L350.5,363.3 L351.3,371.4 L352.2,374.8 L353.0,386.2 L353.9,399.0 L354.7,390.9 L355.6,402.8 L356.4,409.9 L357.2,411.2 L358.1,413.0 L358.9,415.3 L359.8,415.1 L360.6,409.3 L361.5,403.9 L362.3,400.5 L363.1,370.9 L364.0,337.6 L364.8,328.0 L365.7,328.3 L366.5,333.5 L367.4,332.7 L368.2,324.1 L369.0,325.7 L369.9,332.9 L370.7,328.3 L371.6,333.7 L372.4,330.1 L373.3,344.1 L374.1,336.1 L374.9,327.5 L375.8,330.9 L376.6,324.9 L377.5,317.4 L378.3,314.0 L379.2,311.6 L380.0,307.5 L380.8,331.1 L381.7,339.4 L382.5,327.7 L383.4,336.8 L384.2,322.0 L385.1,313.2 L385.9,314.0 L386.7,315.3 L387.6,317.9 L388.4,317.1 L389.3,345.7 L390.1,355.3 L391.0,358.2 L391.8,375.3 L392.6,402.8 L393.5,412.5 L394.3,415.8 L395.2,415.8 L396.0,416.9 L396.9,410.4 L397.7,409.1 L398.5,397.4 L399.4,382.6 L400.2,374.0 L401.1,374.5 L401.9,378.9 L402.8,378.7 L403.6,370.1 L404.4,375.8 L405.3,373.2 L406.1,374.8 L407.0,340.7 L407.8,365.4 L408.7,375.0 L409.5,374.8 L410.3,374.8 L411.2,362.0 L412.0,334.5 L412.9,323.1 L413.7,344.4 L414.6,339.7 L415.4,336.6 L416.2,337.6 L417.1,348.8 L417.9,363.1 L418.8,347.0 L419.6,311.1 L420.4,314.0 L421.3,334.8 L422.1,327.7 L423.0,325.9 L423.8,352.2 L424.7,356.6 L425.5,359.5 L426.3,361.8 L427.2,370.9 L428.0,357.6 L428.9,354.0 L429.7,330.6 L430.6,319.7 L431.4,321.8 L432.2,336.8 L433.1,349.1 L433.9,353.2 L434.8,363.1 L435.6,377.1 L436.5,373.0 L437.3,374.8 L438.1,347.2 L439.0,347.2 L439.8,319.2 L440.7,312.9 L441.5,310.9 L442.4,315.3 L443.2,329.3 L444.0,340.0 L444.9,333.2 L445.7,345.4 L446.6,342.0 L447.4,360.0 L448.3,360.0 L449.1,338.9 L449.9,311.1 L450.8,311.4 L451.6,315.8 L452.5,310.1 L453.3,309.6 L454.2,308.8 L455.0,308.8 L455.8,313.5 L456.7,321.0 L457.5,325.1 L458.4,325.9 L459.2,334.0 L460.1,332.7 L460.9,335.0 L461.7,325.4 L462.6,335.5 L463.4,349.3 L464.3,349.3 L465.1,319.7 L466.0,323.6 L466.8,327.7 L467.6,321.0 L468.5,324.1 L469.3,314.0 L470.2,335.8 L471.0,340.2 L471.9,344.9 L472.7,328.8 L473.5,318.7 L474.4,356.6 L475.2,330.6 L476.1,356.9 L476.9,323.8 L477.8,320.0 L478.6,317.4 L479.4,312.4 L480.3,310.3 L481.1,313.2 L482.0,320.5 L482.8,313.5 L483.7,313.2 L484.5,311.4 L485.3,315.5 L486.2,326.7 L487.0,368.5 L487.9,362.3 L488.7,390.6 L489.6,388.6 L490.4,384.4 L491.2,380.5 L492.1,399.7 L492.9,411.2 L493.8,409.6 L494.6,403.1 L495.4,397.1 L496.3,394.3 L497.1,380.2 L498.0,379.2 L498.8,366.5 L499.7,341.5 L500.5,327.7 L501.3,317.6 L502.2,316.3 L503.0,310.1 L503.9,314.8 L504.7,312.7 L505.6,319.4 L506.4,317.4 L507.2,325.7 L508.1,317.4 L508.9,317.4 L509.8,310.9 L510.6,309.0 L511.5,309.0 L512.3,319.7 L513.1,321.5 L514.0,341.8 L514.8,347.8 L515.7,344.4 L516.5,342.8 L517.4,333.2 L518.2,327.7 L519.0,329.3 L519.9,322.0 L520.7,306.2 L521.6,307.7 L522.4,307.7 L523.3,320.0 L524.1,319.7 L524.9,307.2 L525.8,307.0 L526.6,306.4 L527.5,305.9 L528.3,306.4 L529.2,309.3 L530.0,305.7 L530.8,306.2 L531.7,306.2 L532.5,307.0 L533.4,308.5 L534.2,312.7 L535.1,315.0 L535.9,312.9 L536.7,314.2 L537.6,310.9 L538.4,313.7 L539.3,316.6 L540.1,312.2 L541.0,307.0 L541.8,306.7 L542.6,305.9 L543.5,306.4 L544.3,306.7 L545.2,308.5 L546.0,317.6 L546.9,324.1 L547.7,327.0 L548.5,320.2 L549.4,320.7 L550.2,314.8 L551.1,312.9 L551.9,313.2 L552.8,313.2 L553.6,316.1 L554.4,315.0 L555.3,314.8 L556.1,316.8 L557.0,316.3 L557.8,315.5 L558.7,318.9 L559.5,315.5 L560.3,319.7 L561.2,337.6 L562.0,330.9 L562.9,340.2 L563.7,334.8 L564.6,317.4 L565.4,336.3 L566.2,321.3 L567.1,310.9 L567.9,311.4 L568.8,309.8 L569.6,310.1 L570.4,314.5 L571.3,308.8 L572.1,324.6 L573.0,327.7 L573.8,327.2 L574.7,345.4 L575.5,325.7 L576.3,324.9 L577.2,326.7 L578.0,338.1 L578.9,357.4 L579.7,340.0 L580.6,335.8 L581.4,341.5 L582.2,349.6 L583.1,355.6 L583.9,345.9 L584.8,320.5 L585.6,312.4 L586.5,316.3 L587.3,317.9 L588.1,312.9 L589.0,319.7 L589.8,322.5 L590.7,323.8 L591.5,315.5 L592.4,312.9 L593.2,312.4 L594.0,314.5 L594.9,324.4 L595.7,314.0 L596.6,316.6 L597.4,320.2 L598.3,318.1 L599.1,348.3 L599.9,344.4 L600.8,343.9 L601.6,340.7 L602.5,342.8 L603.3,342.8 L604.2,343.6 L605.0,353.7 L605.8,347.2 L606.7,350.6 L607.5,348.3 L608.4,354.0 L609.2,360.2 L610.1,364.4 L610.9,370.4 L611.7,375.6 L612.6,377.9 L613.4,373.7 L614.3,343.9 L615.1,337.1 L616.0,330.1 L616.8,322.5 L617.6,310.3 L618.5,312.7 L619.3,342.3 L620.2,342.8 L621.0,344.1 L621.9,338.4 L622.7,338.9 L623.5,341.5 L624.4,336.1 L625.2,353.2 L626.1,342.3 L626.9,347.0 L627.8,316.3 L628.6,316.6 L629.4,311.1 L630.3,313.7 L631.1,310.9 L632.0,323.1 L632.8,320.0 L633.7,317.4 L634.5,321.5 L635.3,318.7 L636.2,325.4 L637.0,317.6 L637.9,320.7 L638.7,310.6 L639.6,343.9 L640.4,344.4 L641.2,344.1 L642.1,354.8 L642.9,356.6 L643.8,368.8 L644.6,352.7 L645.4,356.3 L646.3,364.4 L647.1,360.8 L648.0,337.4 L648.8,333.2 L649.7,331.6 L650.5,328.5 L651.3,329.0 L652.2,330.1 L653.0,332.2 L653.9,335.5 L654.7,329.8 L655.6,331.9 L656.4,330.3 L657.2,330.3 L658.1,329.3 L658.9,324.6 L659.8,326.4 L660.6,333.5 L661.5,335.5 L662.3,335.8 L663.1,337.9 L664.0,348.5 L664.8,333.2 L665.7,327.2 L666.5,326.7 L667.4,328.3 L668.2,326.4 L669.0,335.5 L669.9,335.8 L670.7,340.5 L671.6,337.1 L672.4,337.4 L673.3,370.6 L674.1,354.5 L674.9,364.6 L675.8,375.8 L676.6,380.0 L677.5,369.1 L678.3,371.7 L679.2,363.3 L680.0,360.5" stroke="#1f77b4" stroke-width="2" fill="none" opacity="0.8"/>
<!-- Hydro Generation -->
<path d="M80.0,354.5 L80.8,355.0 L81.7,351.4 L82.5,350.4 L83.4,350.4 L84.2,350.1 L85.1,350.1 L85.9,350.1 L86.7,349.8 L87.6,349.6 L88.4,349.8 L89.3,349.6 L90.1,349.8 L91.0,349.8 L91.8,349.8 L92.6,350.1 L93.5,350.6 L94.3,349.6 L95.2,350.6 L96.0,351.4 L96.9,350.9 L97.7,351.1 L98.5,351.4 L99.4,351.1 L100.2,350.9 L101.1,351.1 L101.9,351.4 L102.8,351.1 L103.6,351.1 L104.4,351.1 L105.3,350.6 L106.1,350.6 L107.0,350.1 L107.8,350.4 L108.7,349.8 L109.5,350.1 L110.3,350.1 L111.2,350.1 L112.0,350.1 L112.9,350.4 L113.7,350.6 L114.6,350.9 L115.4,352.2 L116.2,351.9 L117.1,351.7 L117.9,351.9 L118.8,351.7 L119.6,351.9 L120.4,351.4 L121.3,351.7 L122.1,352.2 L123.0,351.9 L123.8,351.7 L124.7,351.4 L125.5,351.4 L126.3,351.9 L127.2,351.4 L128.0,351.9 L128.9,351.7 L129.7,351.7 L130.6,351.9 L131.4,351.7 L132.2,352.4 L133.1,352.4 L133.9,353.5 L134.8,353.5 L135.6,353.2 L136.5,353.5 L137.3,353.7 L138.1,353.7 L139.0,353.2 L139.8,353.5 L140.7,354.0 L141.5,354.0 L142.4,354.5 L143.2,354.5 L144.0,354.3 L144.9,354.5 L145.7,352.7 L146.6,352.4 L147.4,352.2 L148.3,351.1 L149.1,350.6 L149.9,350.6 L150.8,350.1 L151.6,349.6 L152.5,349.6 L153.3,349.8 L154.2,349.6 L155.0,350.4 L155.8,349.8 L156.7,349.6 L157.5,349.6 L158.4,349.3 L159.2,349.8 L160.1,349.8 L160.9,349.3 L161.7,349.6 L162.6,349.6 L163.4,349.3 L164.3,349.3 L165.1,349.6 L166.0,349.6 L166.8,350.9 L167.6,349.3 L168.5,349.6 L169.3,349.6 L170.2,348.5 L171.0,349.1 L171.9,349.3 L172.7,349.3 L173.5,349.8 L174.4,349.8 L175.2,350.6 L176.1,350.6 L176.9,350.9 L177.8,350.6 L178.6,350.6 L179.4,351.1 L180.3,351.7 L181.1,351.9 L182.0,352.7 L182.8,352.4 L183.7,352.4 L184.5,352.7 L185.3,352.7 L186.2,352.4 L187.0,352.4 L187.9,350.9 L188.7,351.7 L189.6,349.8 L190.4,349.8 L191.2,350.1 L192.1,350.1 L192.9,349.8 L193.8,350.4 L194.6,350.1 L195.4,350.1 L196.3,349.6 L197.1,349.6 L198.0,349.6 L198.8,349.6 L199.7,349.6 L200.5,349.3 L201.3,349.6 L202.2,349.1 L203.0,349.6 L203.9,349.6 L204.7,349.3 L205.6,349.3 L206.4,349.1 L207.2,349.1 L208.1,349.3 L208.9,349.3 L209.8,349.3 L210.6,349.1 L211.5,349.1 L212.3,349.3 L213.1,349.3 L214.0,349.3 L214.8,349.3 L215.7,349.8 L216.5,349.3 L217.4,349.3 L218.2,349.1 L219.0,349.6 L219.9,349.3 L220.7,349.6 L221.6,349.3 L222.4,349.3 L223.3,349.6 L224.1,349.3 L224.9,349.1 L225.8,349.3 L226.6,349.1 L227.5,349.1 L228.3,349.3 L229.2,349.1 L230.0,349.3 L230.8,347.8 L231.7,347.8 L232.5,347.8 L233.4,347.8 L234.2,347.8 L235.1,347.8 L235.9,347.0 L236.7,346.7 L237.6,347.0 L238.4,346.7 L239.3,346.7 L240.1,345.9 L241.0,346.2 L241.8,345.7 L242.6,345.9 L243.5,345.7 L244.3,345.7 L245.2,345.7 L246.0,347.2 L246.9,347.5 L247.7,347.5 L248.5,347.5 L249.4,347.5 L250.2,347.5 L251.1,347.5 L251.9,347.5 L252.8,347.5 L253.6,347.8 L254.4,347.8 L255.3,348.8 L256.1,349.3 L257.0,349.6 L257.8,350.6 L258.7,349.8 L259.5,350.6 L260.3,350.6 L261.2,350.6 L262.0,351.7 L262.9,351.7 L263.7,351.4 L264.6,351.7 L265.4,351.7 L266.2,351.9 L267.1,351.4 L267.9,350.9 L268.8,351.4 L269.6,351.7 L270.4,350.9 L271.3,351.4 L272.1,351.4 L273.0,351.7 L273.8,351.7 L274.7,351.9 L275.5,352.2 L276.3,352.7 L277.2,354.3 L278.0,354.0 L278.9,354.0 L279.7,354.3 L280.6,357.1 L281.4,357.4 L282.2,357.9 L283.1,358.7 L283.9,360.0 L284.8,360.0 L285.6,360.2 L286.5,360.2 L287.3,360.8 L288.1,360.5 L289.0,361.3 L289.8,362.6 L290.7,364.1 L291.5,365.4 L292.4,366.2 L293.2,370.1 L294.0,372.4 L294.9,371.9 L295.7,372.4 L296.6,372.7 L297.4,372.7 L298.3,372.4 L299.1,372.7 L299.9,372.4 L300.8,372.4 L301.6,371.1 L302.5,365.2 L303.3,363.3 L304.2,362.8 L305.0,362.6 L305.8,362.8 L306.7,362.8 L307.5,363.1 L308.4,363.1 L309.2,362.8 L310.1,363.1 L310.9,362.6 L311.7,362.8 L312.6,362.8 L313.4,363.1 L314.3,362.6 L315.1,362.8 L316.0,361.5 L316.8,360.0 L317.6,358.4 L318.5,357.1 L319.3,356.3 L320.2,355.3 L321.0,353.2 L321.9,352.2 L322.7,350.9 L323.5,349.8 L324.4,349.6 L325.2,348.8 L326.1,347.5 L326.9,346.5 L327.8,345.4 L328.6,344.4 L329.4,343.1 L330.3,343.3 L331.1,343.9 L332.0,344.1 L332.8,344.6 L333.7,344.9 L334.5,344.9 L335.3,345.4 L336.2,345.4 L337.0,345.2 L337.9,345.4 L338.7,344.1 L339.6,344.1 L340.4,342.8 L341.2,343.1 L342.1,341.8 L342.9,342.3 L343.8,342.0 L344.6,341.5 L345.4,341.8 L346.3,341.3 L347.1,341.0 L348.0,341.5 L348.8,341.0 L349.7,341.3 L350.5,341.5 L351.3,341.8 L352.2,341.8 L353.0,341.8 L353.9,341.8 L354.7,341.5 L355.6,342.0 L356.4,342.6 L357.2,343.3 L358.1,344.1 L358.9,343.9 L359.8,344.1 L360.6,344.4 L361.5,344.1 L362.3,343.6 L363.1,342.6 L364.0,342.3 L364.8,341.8 L365.7,342.0 L366.5,342.0 L367.4,342.0 L368.2,342.3 L369.0,341.5 L369.9,341.8 L370.7,342.3 L371.6,342.6 L372.4,343.3 L373.3,343.9 L374.1,343.6 L374.9,344.1 L375.8,344.4 L376.6,344.6 L377.5,344.9 L378.3,344.6 L379.2,344.9 L380.0,345.2 L380.8,345.2 L381.7,345.2 L382.5,344.6 L383.4,346.2 L384.2,346.7 L385.1,346.5 L385.9,346.5 L386.7,347.8 L387.6,349.1 L388.4,349.1 L389.3,349.8 L390.1,349.6 L391.0,349.6 L391.8,349.6 L392.6,350.1 L393.5,349.3 L394.3,349.3 L395.2,349.3 L396.0,349.3 L396.9,348.8 L397.7,348.8 L398.5,349.1 L399.4,349.1 L400.2,348.8 L401.1,349.1 L401.9,348.8 L402.8,348.8 L403.6,349.1 L404.4,349.1 L405.3,348.8 L406.1,349.1 L407.0,348.8 L407.8,348.8 L408.7,348.0 L409.5,348.0 L410.3,348.0 L411.2,348.0 L412.0,347.2 L412.9,347.8 L413.7,347.8 L414.6,347.8 L415.4,347.8 L416.2,348.0 L417.1,347.8 L417.9,347.5 L418.8,347.5 L419.6,347.8 L420.4,348.0 L421.3,347.8 L422.1,348.0 L423.0,347.8 L423.8,348.0 L424.7,347.8 L425.5,348.5 L426.3,348.8 L427.2,349.8 L428.0,349.8 L428.9,349.1 L429.7,350.9 L430.6,350.9 L431.4,350.4 L432.2,350.4 L433.1,350.4 L433.9,350.4 L434.8,349.3 L435.6,350.1 L436.5,349.6 L437.3,350.1 L438.1,350.1 L439.0,349.3 L439.8,349.6 L440.7,349.8 L441.5,349.8 L442.4,349.6 L443.2,349.1 L444.0,349.8 L444.9,349.6 L445.7,350.1 L446.6,349.8 L447.4,349.1 L448.3,348.8 L449.1,348.5 L449.9,348.8 L450.8,348.8 L451.6,348.5 L452.5,348.5 L453.3,348.3 L454.2,349.1 L455.0,349.1 L455.8,348.8 L456.7,350.4 L457.5,350.1 L458.4,349.3 L459.2,349.3 L460.1,349.3 L460.9,350.1 L461.7,349.8 L462.6,349.6 L463.4,350.1 L464.3,349.8 L465.1,350.1 L466.0,350.4 L466.8,350.4 L467.6,350.4 L468.5,350.1 L469.3,350.4 L470.2,350.4 L471.0,351.4 L471.9,351.9 L472.7,351.9 L473.5,352.2 L474.4,352.2 L475.2,352.4 L476.1,352.2 L476.9,353.7 L477.8,353.7 L478.6,353.7 L479.4,354.3 L480.3,353.7 L481.1,354.3 L482.0,354.0 L482.8,354.0 L483.7,354.3 L484.5,354.0 L485.3,353.5 L486.2,353.0 L487.0,353.2 L487.9,353.0 L488.7,353.0 L489.6,353.2 L490.4,353.2 L491.2,353.5 L492.1,353.0 L492.9,353.0 L493.8,353.0 L494.6,353.5 L495.4,353.7 L496.3,353.7 L497.1,353.2 L498.0,353.0 L498.8,353.7 L499.7,353.0 L500.5,353.0 L501.3,353.5 L502.2,353.2 L503.0,353.7 L503.9,353.5 L504.7,354.0 L505.6,354.0 L506.4,353.7 L507.2,354.5 L508.1,355.0 L508.9,355.3 L509.8,355.3 L510.6,354.8 L511.5,355.0 L512.3,354.8 L513.1,354.5 L514.0,354.5 L514.8,354.5 L515.7,354.5 L516.5,354.3 L517.4,354.8 L518.2,354.5 L519.0,354.8 L519.9,355.3 L520.7,354.5 L521.6,355.6 L522.4,356.3 L523.3,356.1 L524.1,356.1 L524.9,355.8 L525.8,356.6 L526.6,355.8 L527.5,356.1 L528.3,356.1 L529.2,356.3 L530.0,356.1 L530.8,355.6 L531.7,355.3 L532.5,355.3 L533.4,355.3 L534.2,355.3 L535.1,355.6 L535.9,354.8 L536.7,353.5 L537.6,354.8 L538.4,354.5 L539.3,356.1 L540.1,357.6 L541.0,358.7 L541.8,357.9 L542.6,356.3 L543.5,356.3 L544.3,354.5 L545.2,354.5 L546.0,353.7 L546.9,354.0 L547.7,354.0 L548.5,354.3 L549.4,353.7 L550.2,354.0 L551.1,353.2 L551.9,353.2 L552.8,353.7 L553.6,353.5 L554.4,353.2 L555.3,353.0 L556.1,353.0 L557.0,352.2 L557.8,351.1 L558.7,351.9 L559.5,350.6 L560.3,350.9 L561.2,350.6 L562.0,351.4 L562.9,351.7 L563.7,351.9 L564.6,351.4 L565.4,353.0 L566.2,352.7 L567.1,352.4 L567.9,353.0 L568.8,354.0 L569.6,354.0 L570.4,353.5 L571.3,353.5 L572.1,352.2 L573.0,352.2 L573.8,352.4 L574.7,352.4 L575.5,351.7 L576.3,350.9 L577.2,350.6 L578.0,350.1 L578.9,349.8 L579.7,350.1 L580.6,349.6 L581.4,350.4 L582.2,350.6 L583.1,350.6 L583.9,350.6 L584.8,350.4 L585.6,351.4 L586.5,351.1 L587.3,352.4 L588.1,352.2 L589.0,350.4 L589.8,350.6 L590.7,350.9 L591.5,351.1 L592.4,350.6 L593.2,350.6 L594.0,350.6 L594.9,349.3 L595.7,349.1 L596.6,347.8 L597.4,347.2 L598.3,349.1 L599.1,349.1 L599.9,349.8 L600.8,349.8 L601.6,350.1 L602.5,350.4 L603.3,350.4 L604.2,351.7 L605.0,352.2 L605.8,351.7 L606.7,352.4 L607.5,352.7 L608.4,352.4 L609.2,354.3 L610.1,353.2 L610.9,352.2 L611.7,351.7 L612.6,350.9 L613.4,351.1 L614.3,350.9 L615.1,350.6 L616.0,350.4 L616.8,350.6 L617.6,351.1 L618.5,350.9 L619.3,351.1 L620.2,350.9 L621.0,351.1 L621.9,350.9 L622.7,350.9 L623.5,350.9 L624.4,350.9 L625.2,350.9 L626.1,350.6 L626.9,350.9 L627.8,351.1 L628.6,351.4 L629.4,350.4 L630.3,350.1 L631.1,350.4 L632.0,349.8 L632.8,350.4 L633.7,349.8 L634.5,350.9 L635.3,350.6 L636.2,351.1 L637.0,350.9 L637.9,350.4 L638.7,351.9 L639.6,351.9 L640.4,351.4 L641.2,351.7 L642.1,351.7 L642.9,351.4 L643.8,351.9 L644.6,351.1 L645.4,351.7 L646.3,350.6 L647.1,351.1 L648.0,351.4 L648.8,350.6 L649.7,350.9 L650.5,351.1 L651.3,351.1 L652.2,351.4 L653.0,350.9 L653.9,350.9 L654.7,350.9 L655.6,351.1 L656.4,351.1 L657.2,351.1 L658.1,350.9 L658.9,351.7 L659.8,351.1 L660.6,351.7 L661.5,351.1 L662.3,350.9 L663.1,350.6 L664.0,350.9 L664.8,351.1 L665.7,350.9 L666.5,350.9 L667.4,350.6 L668.2,350.9 L669.0,350.6 L669.9,350.6 L670.7,350.4 L671.6,351.1 L672.4,350.6 L673.3,350.9 L674.1,350.4 L674.9,351.1 L675.8,351.4 L676.6,351.1 L677.5,350.9 L678.3,350.9 L679.2,351.4 L680.0,351.4" stroke="#ff7f0e" stroke-width="2" fill="none" opacity="0.8"/>
<!-- Thermal Generation -->
<path d="M80.0,397.7 L80.8,399.7 L81.7,393.2 L82.5,392.7 L83.4,394.3 L84.2,399.2 L85.1,399.2 L85.9,399.7 L86.7,404.9 L87.6,396.1 L88.4,395.1 L89.3,396.6 L90.1,396.6 L91.0,396.9 L91.8,396.9 L92.6,384.1 L93.5,373.2 L94.3,370.6 L95.2,357.9 L96.0,358.9 L96.9,356.3 L97.7,354.5 L98.5,364.6 L99.4,347.8 L100.2,341.8 L101.1,341.8 L101.9,342.0 L102.8,343.1 L103.6,344.1 L104.4,343.6 L105.3,371.4 L106.1,346.7 L107.0,356.3 L107.8,386.5 L108.7,386.2 L109.5,386.5 L110.3,386.7 L111.2,386.2 L112.0,373.7 L112.9,374.5 L113.7,369.1 L114.6,360.5 L115.4,359.2 L116.2,357.1 L117.1,370.9 L117.9,373.2 L118.8,375.6 L119.6,375.6 L120.4,357.4 L121.3,343.1 L122.1,358.7 L123.0,362.6 L123.8,357.9 L124.7,340.5 L125.5,366.5 L126.3,359.7 L127.2,370.9 L128.0,376.1 L128.9,376.1 L129.7,376.3 L130.6,369.8 L131.4,369.3 L132.2,360.2 L133.1,360.0 L133.9,362.0 L134.8,342.3 L135.6,346.7 L136.5,351.4 L137.3,350.6 L138.1,345.2 L139.0,349.1 L139.8,349.6 L140.7,327.0 L141.5,327.0 L142.4,332.7 L143.2,330.1 L144.0,342.6 L144.9,342.6 L145.7,342.3 L146.6,344.6 L147.4,352.4 L148.3,365.9 L149.1,381.5 L149.9,381.8 L150.8,382.3 L151.6,377.1 L152.5,366.2 L153.3,367.0 L154.2,360.8 L155.0,354.5 L155.8,345.2 L156.7,345.7 L157.5,357.4 L158.4,357.1 L159.2,367.0 L160.1,366.7 L160.9,355.6 L161.7,344.9 L162.6,332.4 L163.4,322.5 L164.3,325.1 L165.1,333.5 L166.0,352.7 L166.8,352.2 L167.6,353.0 L168.5,352.7 L169.3,351.9 L170.2,367.5 L171.0,355.0 L171.9,349.8 L172.7,350.4 L173.5,350.6 L174.4,351.9 L175.2,355.6 L176.1,351.9 L176.9,364.9 L177.8,371.9 L178.6,373.0 L179.4,351.1 L180.3,351.1 L181.1,351.4 L182.0,353.0 L182.8,351.1 L183.7,368.0 L184.5,350.9 L185.3,372.4 L186.2,373.0 L187.0,371.4 L187.9,371.7 L188.7,369.6 L189.6,371.7 L190.4,372.2 L191.2,371.7 L192.1,371.9 L192.9,352.2 L193.8,350.1 L194.6,350.1 L195.4,349.8 L196.3,350.4 L197.1,350.6 L198.0,353.0 L198.8,353.0 L199.7,367.8 L200.5,350.4 L201.3,350.6 L202.2,350.6 L203.0,371.4 L203.9,371.4 L204.7,371.9 L205.6,371.4 L206.4,371.4 L207.2,371.7 L208.1,371.7 L208.9,376.3 L209.8,389.1 L210.6,395.3 L211.5,395.3 L212.3,395.1 L213.1,395.1 L214.0,396.1 L214.8,395.6 L215.7,394.3 L216.5,394.8 L217.4,394.8 L218.2,395.6 L219.0,395.6 L219.9,395.3 L220.7,395.1 L221.6,394.8 L222.4,395.3 L223.3,394.8 L224.1,394.5 L224.9,394.8 L225.8,395.6 L226.6,395.1 L227.5,394.8 L228.3,394.8 L229.2,395.6 L230.0,395.3 L230.8,395.3 L231.7,394.8 L232.5,394.8 L233.4,395.3 L234.2,394.8 L235.1,395.3 L235.9,394.8 L236.7,395.1 L237.6,395.3 L238.4,395.8 L239.3,395.3 L240.1,395.6 L241.0,395.6 L241.8,394.8 L242.6,386.0 L243.5,388.0 L244.3,395.1 L245.2,393.8 L246.0,394.3 L246.9,394.0 L247.7,394.3 L248.5,394.5 L249.4,394.8 L250.2,394.5 L251.1,394.5 L251.9,394.8 L252.8,394.5 L253.6,394.5 L254.4,395.1 L255.3,394.8 L256.1,395.6 L257.0,395.1 L257.8,394.8 L258.7,394.8 L259.5,394.5 L260.3,394.3 L261.2,394.8 L262.0,395.1 L262.9,382.8 L263.7,382.1 L264.6,379.5 L265.4,373.5 L266.2,374.5 L267.1,382.8 L267.9,380.8 L268.8,383.1 L269.6,395.1 L270.4,394.5 L271.3,394.5 L272.1,395.3 L273.0,389.6 L273.8,371.7 L274.7,352.4 L275.5,372.4 L276.3,369.6 L277.2,386.0 L278.0,394.3 L278.9,395.3 L279.7,395.3 L280.6,395.1 L281.4,395.1 L282.2,389.6 L283.1,352.2 L283.9,350.4 L284.8,353.0 L285.6,350.1 L286.5,368.3 L287.3,354.0 L288.1,386.5 L289.0,386.0 L289.8,378.7 L290.7,380.2 L291.5,371.1 L292.4,371.4 L293.2,361.3 L294.0,325.9 L294.9,321.5 L295.7,361.8 L296.6,361.3 L297.4,358.7 L298.3,359.5 L299.1,362.0 L299.9,365.7 L300.8,364.1 L301.6,365.2 L302.5,324.1 L303.3,324.9 L304.2,354.3 L305.0,349.8 L305.8,357.6 L306.7,357.1 L307.5,357.1 L308.4,365.2 L309.2,367.5 L310.1,365.9 L310.9,366.5 L311.7,366.5 L312.6,366.2 L313.4,366.2 L314.3,367.0 L315.1,354.5 L316.0,350.6 L316.8,362.3 L317.6,344.9 L318.5,349.1 L319.3,362.3 L320.2,321.8 L321.0,353.0 L321.9,350.9 L322.7,300.5 L323.5,301.2 L324.4,316.3 L325.2,303.8 L326.1,302.8 L326.9,304.9 L327.8,325.9 L328.6,336.6 L329.4,336.8 L330.3,337.6 L331.1,337.9 L332.0,337.9 L332.8,342.8 L333.7,337.4 L334.5,336.8 L335.3,340.5 L336.2,341.8 L337.0,343.1 L337.9,343.1 L338.7,342.8 L339.6,343.1 L340.4,335.3 L341.2,337.1 L342.1,302.8 L342.9,298.6 L343.8,304.4 L344.6,307.0 L345.4,329.8 L346.3,337.4 L347.1,337.1 L348.0,336.6 L348.8,336.6 L349.7,334.5 L350.5,368.0 L351.3,369.1 L352.2,361.5 L353.0,354.8 L353.9,351.4 L354.7,342.3 L355.6,342.6 L356.4,340.7 L357.2,324.9 L358.1,320.2 L358.9,317.1 L359.8,317.6 L360.6,322.0 L361.5,330.1 L362.3,338.7 L363.1,327.2 L364.0,299.4 L364.8,342.0 L365.7,341.5 L366.5,341.5 L367.4,348.3 L368.2,347.8 L369.0,354.3 L369.9,361.0 L370.7,361.3 L371.6,361.8 L372.4,361.5 L373.3,362.3 L374.1,362.0 L374.9,348.8 L375.8,337.1 L376.6,341.5 L377.5,341.3 L378.3,341.0 L379.2,349.8 L380.0,362.8 L380.8,363.1 L381.7,362.0 L382.5,358.2 L383.4,334.8 L384.2,335.0 L385.1,338.1 L385.9,342.0 L386.7,342.3 L387.6,342.3 L388.4,347.0 L389.3,353.2 L390.1,358.4 L391.0,352.4 L391.8,358.9 L392.6,358.9 L393.5,349.1 L394.3,342.3 L395.2,341.5 L396.0,340.7 L396.9,342.0 L397.7,341.5 L398.5,341.5 L399.4,340.5 L400.2,342.6 L401.1,341.3 L401.9,341.8 L402.8,342.3 L403.6,338.9 L404.4,338.9 L405.3,341.3 L406.1,341.8 L407.0,344.4 L407.8,341.3 L408.7,350.9 L409.5,351.1 L410.3,349.6 L411.2,351.4 L412.0,351.1 L412.9,356.1 L413.7,356.1 L414.6,356.1 L415.4,356.1 L416.2,355.3 L417.1,355.3 L417.9,355.0 L418.8,348.0 L419.6,347.8 L420.4,362.3 L421.3,362.3 L422.1,356.3 L423.0,347.5 L423.8,342.6 L424.7,340.7 L425.5,333.7 L426.3,334.5 L427.2,342.0 L428.0,342.0 L428.9,337.1 L429.7,342.0 L430.6,347.8 L431.4,356.1 L432.2,361.8 L433.1,362.0 L433.9,362.0 L434.8,351.4 L435.6,342.0 L436.5,342.6 L437.3,341.8 L438.1,342.8 L439.0,343.1 L439.8,354.3 L440.7,354.3 L441.5,374.3 L442.4,374.3 L443.2,373.7 L444.0,361.5 L444.9,340.5 L445.7,337.4 L446.6,342.3 L447.4,342.3 L448.3,342.0 L449.1,349.6 L449.9,349.6 L450.8,369.6 L451.6,380.2 L452.5,380.2 L453.3,380.0 L454.2,380.2 L455.0,380.0 L455.8,369.6 L456.7,320.2 L457.5,349.3 L458.4,349.1 L459.2,344.1 L460.1,342.3 L460.9,342.8 L461.7,343.1 L462.6,342.8 L463.4,342.8 L464.3,342.6 L465.1,322.8 L466.0,320.5 L466.8,337.4 L467.6,340.0 L468.5,348.0 L469.3,356.3 L470.2,379.5 L471.0,379.7 L471.9,379.5 L472.7,380.2 L473.5,380.5 L474.4,380.0 L475.2,379.5 L476.1,319.7 L476.9,322.3 L477.8,348.8 L478.6,364.4 L479.4,372.2 L480.3,372.2 L481.1,380.0 L482.0,380.0 L482.8,380.0 L483.7,380.0 L484.5,371.9 L485.3,356.9 L486.2,356.6 L487.0,356.3 L487.9,349.8 L488.7,341.3 L489.6,346.5 L490.4,347.5 L491.2,347.2 L492.1,374.0 L492.9,373.5 L493.8,373.7 L494.6,371.1 L495.4,370.9 L496.3,351.9 L497.1,297.9 L498.0,332.7 L498.8,341.8 L499.7,342.3 L500.5,342.0 L501.3,356.3 L502.2,364.1 L503.0,371.9 L503.9,371.9 L504.7,363.3 L505.6,338.7 L506.4,336.3 L507.2,338.9 L508.1,341.3 L508.9,349.8 L509.8,362.0 L510.6,368.8 L511.5,368.5 L512.3,368.3 L513.1,343.6 L514.0,333.7 L514.8,331.4 L515.7,320.7 L516.5,301.8 L517.4,299.4 L518.2,342.3 L519.0,287.2 L519.9,288.0 L520.7,308.0 L521.6,318.4 L522.4,323.6 L523.3,328.5 L524.1,328.5 L524.9,319.2 L525.8,272.4 L526.6,283.6 L527.5,305.4 L528.3,292.7 L529.2,305.1 L530.0,322.5 L530.8,327.7 L531.7,309.8 L532.5,290.6 L533.4,311.1 L534.2,288.2 L535.1,285.4 L535.9,277.9 L536.7,259.7 L537.6,267.5 L538.4,299.9 L539.3,315.3 L540.1,330.1 L541.0,340.7 L541.8,356.1 L542.6,355.8 L543.5,366.2 L544.3,367.5 L545.2,361.3 L546.0,315.8 L546.9,329.3 L547.7,318.1 L548.5,318.4 L549.4,343.6 L550.2,343.6 L551.1,283.0 L551.9,278.9 L552.8,357.9 L553.6,363.6 L554.4,351.4 L555.3,332.9 L556.1,319.4 L557.0,321.8 L557.8,291.4 L558.7,329.8 L559.5,343.6 L560.3,353.2 L561.2,359.2 L562.0,364.4 L562.9,364.6 L563.7,364.1 L564.6,365.2 L565.4,332.7 L566.2,253.4 L567.1,245.6 L567.9,243.3 L568.8,268.2 L569.6,245.6 L570.4,317.4 L571.3,342.6 L572.1,363.9 L573.0,363.9 L573.8,364.4 L574.7,331.6 L575.5,324.1 L576.3,311.6 L577.2,309.0 L578.0,301.5 L578.9,332.2 L579.7,330.9 L580.6,327.7 L581.4,340.5 L582.2,345.7 L583.1,356.1 L583.9,356.1 L584.8,356.6 L585.6,354.3 L586.5,314.2 L587.3,314.5 L588.1,318.9 L589.0,328.8 L589.8,361.5 L590.7,361.5 L591.5,356.6 L592.4,361.5 L593.2,361.8 L594.0,361.5 L594.9,362.0 L595.7,361.8 L596.6,356.6 L597.4,299.2 L598.3,290.6 L599.1,311.6 L599.9,314.0 L600.8,348.5 L601.6,363.9 L602.5,364.1 L603.3,363.9 L604.2,363.9 L605.0,364.1 L605.8,362.0 L606.7,301.8 L607.5,317.4 L608.4,317.4 L609.2,291.9 L610.1,291.9 L610.9,317.9 L611.7,317.6 L612.6,332.7 L613.4,333.2 L614.3,317.6 L615.1,333.2 L616.0,348.8 L616.8,348.8 L617.6,287.2 L618.5,275.8 L619.3,318.7 L620.2,351.4 L621.0,364.4 L621.9,361.8 L622.7,364.4 L623.5,364.6 L624.4,364.9 L625.2,364.6 L626.1,349.3 L626.9,291.9 L627.8,290.1 L628.6,332.7 L629.4,332.4 L630.3,348.3 L631.1,361.0 L632.0,358.9 L632.8,364.4 L633.7,364.4 L634.5,364.1 L635.3,363.9 L636.2,363.9 L637.0,363.3 L637.9,363.9 L638.7,333.7 L639.6,333.5 L640.4,333.5 L641.2,365.2 L642.1,364.6 L642.9,365.4 L643.8,364.4 L644.6,364.1 L645.4,343.1 L646.3,343.1 L647.1,343.9 L648.0,343.9 L648.8,328.3 L649.7,328.5 L650.5,328.3 L651.3,329.8 L652.2,319.4 L653.0,349.3 L653.9,364.6 L654.7,364.6 L655.6,364.4 L656.4,364.4 L657.2,349.6 L658.1,334.0 L658.9,314.0 L659.8,281.8 L660.6,330.9 L661.5,345.2 L662.3,364.9 L663.1,364.6 L664.0,364.4 L664.8,364.4 L665.7,364.4 L666.5,364.6 L667.4,343.9 L668.2,331.1 L669.0,338.4 L669.9,343.6 L670.7,344.1 L671.6,343.6 L672.4,344.1 L673.3,343.6 L674.1,354.5 L674.9,332.9 L675.8,343.1 L676.6,333.2 L677.5,317.1 L678.3,295.5 L679.2,302.8 L680.0,336.6" stroke="#2ca02c" stroke-width="2" fill="none" opacity="0.8"/>
<!-- Solar Generation -->
<path d="M80.0,420.0 L80.8,420.0 L81.7,420.0 L82.5,420.0 L83.4,420.0 L84.2,420.0 L85.1,420.0 L85.9,420.0 L86.7,420.0 L87.6,420.0 L88.4,420.0 L89.3,420.0 L90.1,420.0 L91.0,420.0 L91.8,420.0 L92.6,420.0 L93.5,417.4 L94.3,415.8 L95.2,410.6 L96.0,414.3 L96.9,414.5 L97.7,416.9 L98.5,416.4 L99.4,419.2 L100.2,420.0 L101.1,420.0 L101.9,420.0 L102.8,420.0 L103.6,420.0 L104.4,420.0 L105.3,420.0 L106.1,420.0 L107.0,420.0 L107.8,420.0 L108.7,420.0 L109.5,420.0 L110.3,420.0 L111.2,420.0 L112.0,420.0 L112.9,420.0 L113.7,417.9 L114.6,406.5 L115.4,404.7 L116.2,404.4 L117.1,403.6 L117.9,402.6 L118.8,410.4 L119.6,415.8 L120.4,420.0 L121.3,420.0 L122.1,420.0 L123.0,420.0 L123.8,420.0 L124.7,420.0 L125.5,420.0 L126.3,420.0 L127.2,420.0 L128.0,420.0 L128.9,420.0 L129.7,420.0 L130.6,420.0 L131.4,420.0 L132.2,420.0 L133.1,420.0 L133.9,419.2 L134.8,417.7 L135.6,416.1 L136.5,414.0 L137.3,413.8 L138.1,416.4 L139.0,417.4 L139.8,419.0 L140.7,420.0 L141.5,420.0 L142.4,420.0 L143.2,420.0 L144.0,420.0 L144.9,420.0 L145.7,420.0 L146.6,420.0 L147.4,420.0 L148.3,420.0 L149.1,420.0 L149.9,420.0 L150.8,420.0 L151.6,420.0 L152.5,420.0 L153.3,420.0 L154.2,419.5 L155.0,417.4 L155.8,413.5 L156.7,412.5 L157.5,407.5 L158.4,405.4 L159.2,414.3 L160.1,416.9 L160.9,420.0 L161.7,420.0 L162.6,420.0 L163.4,420.0 L164.3,420.0 L165.1,420.0 L166.0,420.0 L166.8,420.0 L167.6,420.0 L168.5,420.0 L169.3,420.0 L170.2,420.0 L171.0,420.0 L171.9,420.0 L172.7,420.0 L173.5,420.0 L174.4,417.9 L175.2,409.3 L176.1,413.0 L176.9,411.9 L177.8,408.3 L178.6,411.9 L179.4,414.3 L180.3,417.4 L181.1,420.0 L182.0,420.0 L182.8,420.0 L183.7,420.0 L184.5,420.0 L185.3,420.0 L186.2,420.0 L187.0,420.0 L187.9,420.0 L188.7,420.0 L189.6,420.0 L190.4,420.0 L191.2,420.0 L192.1,420.0 L192.9,420.0 L193.8,420.0 L194.6,418.7 L195.4,414.5 L196.3,409.3 L197.1,408.3 L198.0,411.4 L198.8,408.0 L199.7,411.2 L200.5,418.4 L201.3,420.0 L202.2,420.0 L203.0,420.0 L203.9,420.0 L204.7,420.0 L205.6,420.0 L206.4,420.0 L207.2,420.0 L208.1,420.0 L208.9,420.0 L209.8,420.0 L210.6,420.0 L211.5,420.0 L212.3,420.0 L213.1,420.0 L214.0,420.0 L214.8,419.5 L215.7,403.9 L216.5,414.8 L217.4,405.4 L218.2,410.9 L219.0,410.4 L219.9,410.4 L220.7,416.6 L221.6,420.0 L222.4,420.0 L223.3,420.0 L224.1,420.0 L224.9,420.0 L225.8,420.0 L226.6,420.0 L227.5,420.0 L228.3,420.0 L229.2,420.0 L230.0,420.0 L230.8,420.0 L231.7,420.0 L232.5,420.0 L233.4,420.0 L234.2,420.0 L235.1,420.0 L235.9,409.3 L236.7,410.6 L237.6,411.9 L238.4,414.5 L239.3,411.2 L240.1,410.6 L241.0,415.3 L241.8,420.0 L242.6,420.0 L243.5,420.0 L244.3,420.0 L245.2,420.0 L246.0,420.0 L246.9,420.0 L247.7,420.0 L248.5,420.0 L249.4,420.0 L250.2,420.0 L251.1,420.0 L251.9,420.0 L252.8,420.0 L253.6,420.0 L254.4,420.0 L255.3,419.5 L256.1,410.6 L257.0,417.9 L257.8,417.4 L258.7,417.1 L259.5,416.9 L260.3,417.9 L261.2,418.4 L262.0,419.7 L262.9,420.0 L263.7,420.0 L264.6,420.0 L265.4,420.0 L266.2,420.0 L267.1,420.0 L267.9,420.0 L268.8,420.0 L269.6,420.0 L270.4,420.0 L271.3,420.0 L272.1,420.0 L273.0,420.0 L273.8,420.0 L274.7,420.0 L275.5,415.3 L276.3,398.4 L277.2,399.0 L278.0,402.1 L278.9,402.3 L279.7,399.0 L280.6,396.6 L281.4,409.6 L282.2,419.5 L283.1,420.0 L283.9,420.0 L284.8,420.0 L285.6,420.0 L286.5,420.0 L287.3,420.0 L288.1,420.0 L289.0,420.0 L289.8,420.0 L290.7,420.0 L291.5,420.0 L292.4,420.0 L293.2,420.0 L294.0,420.0 L294.9,420.0 L295.7,415.6 L296.6,397.9 L297.4,399.0 L298.3,402.1 L299.1,404.1 L299.9,402.6 L300.8,400.0 L301.6,410.6 L302.5,419.7 L303.3,420.0 L304.2,420.0 L305.0,420.0 L305.8,420.0 L306.7,420.0 L307.5,420.0 L308.4,420.0 L309.2,420.0 L310.1,420.0 L310.9,420.0 L311.7,420.0 L312.6,420.0 L313.4,420.0 L314.3,420.0 L315.1,420.0 L316.0,415.6 L316.8,398.7 L317.6,400.0 L318.5,402.1 L319.3,402.3 L320.2,399.2 L321.0,398.7 L321.9,409.3 L322.7,419.7 L323.5,420.0 L324.4,420.0 L325.2,420.0 L326.1,420.0 L326.9,420.0 L327.8,420.0 L328.6,420.0 L329.4,420.0 L330.3,420.0 L331.1,420.0 L332.0,420.0 L332.8,420.0 L333.7,420.0 L334.5,420.0 L335.3,420.0 L336.2,415.1 L337.0,399.2 L337.9,399.5 L338.7,401.3 L339.6,402.8 L340.4,398.4 L341.2,405.4 L342.1,414.8 L342.9,419.7 L343.8,420.0 L344.6,420.0 L345.4,420.0 L346.3,420.0 L347.1,420.0 L348.0,420.0 L348.8,420.0 L349.7,420.0 L350.5,420.0 L351.3,420.0 L352.2,420.0 L353.0,420.0 L353.9,420.0 L354.7,420.0 L355.6,420.0 L356.4,418.4 L357.2,409.1 L358.1,408.6 L358.9,410.1 L359.8,412.5 L360.6,411.7 L361.5,415.1 L362.3,417.9 L363.1,420.0 L364.0,420.0 L364.8,420.0 L365.7,420.0 L366.5,420.0 L367.4,420.0 L368.2,420.0 L369.0,420.0 L369.9,420.0 L370.7,420.0 L371.6,420.0 L372.4,420.0 L373.3,420.0 L374.1,420.0 L374.9,420.0 L375.8,420.0 L376.6,418.7 L377.5,416.4 L378.3,413.2 L379.2,410.4 L380.0,413.0 L380.8,406.2 L381.7,415.1 L382.5,418.2 L383.4,419.7 L384.2,420.0 L385.1,420.0 L385.9,420.0 L386.7,420.0 L387.6,420.0 L388.4,420.0 L389.3,420.0 L390.1,420.0 L391.0,420.0 L391.8,420.0 L392.6,420.0 L393.5,420.0 L394.3,420.0 L395.2,420.0 L396.0,420.0 L396.9,416.9 L397.7,402.3 L398.5,398.2 L399.4,402.1 L400.2,402.3 L401.1,402.6 L401.9,397.4 L402.8,413.2 L403.6,419.7 L404.4,420.0 L405.3,420.0 L406.1,420.0 L407.0,420.0 L407.8,420.0 L408.7,420.0 L409.5,420.0 L410.3,420.0 L411.2,420.0 L412.0,420.0 L412.9,420.0 L413.7,420.0 L414.6,420.0 L415.4,420.0 L416.2,420.0 L417.1,416.4 L417.9,409.9 L418.8,410.9 L419.6,411.2 L420.4,410.9 L421.3,411.4 L422.1,413.5 L423.0,416.4 L423.8,419.7 L424.7,420.0 L425.5,420.0 L426.3,420.0 L427.2,420.0 L428.0,420.0 L428.9,420.0 L429.7,420.0 L430.6,420.0 L431.4,420.0 L432.2,420.0 L433.1,420.0 L433.9,420.0 L434.8,420.0 L435.6,420.0 L436.5,420.0 L437.3,419.2 L438.1,411.9 L439.0,405.2 L439.8,400.3 L440.7,402.6 L441.5,401.3 L442.4,396.4 L443.2,415.6 L444.0,419.7 L444.9,420.0 L445.7,420.0 L446.6,420.0 L447.4,420.0 L448.3,420.0 L449.1,420.0 L449.9,420.0 L450.8,420.0 L451.6,420.0 L452.5,420.0 L453.3,420.0 L454.2,420.0 L455.0,420.0 L455.8,420.0 L456.7,420.0 L457.5,418.4 L458.4,415.3 L459.2,412.7 L460.1,411.9 L460.9,413.2 L461.7,415.1 L462.6,416.1 L463.4,418.2 L464.3,419.7 L465.1,420.0 L466.0,420.0 L466.8,420.0 L467.6,420.0 L468.5,420.0 L469.3,420.0 L470.2,420.0 L471.0,420.0 L471.9,420.0 L472.7,420.0 L473.5,420.0 L474.4,420.0 L475.2,420.0 L476.1,420.0 L476.9,420.0 L477.8,415.3 L478.6,407.5 L479.4,408.6 L480.3,405.7 L481.1,407.0 L482.0,405.7 L482.8,402.8 L483.7,418.2 L484.5,419.7 L485.3,420.0 L486.2,420.0 L487.0,420.0 L487.9,420.0 L488.7,420.0 L489.6,420.0 L490.4,420.0 L491.2,420.0 L492.1,420.0 L492.9,420.0 L493.8,420.0 L494.6,420.0 L495.4,420.0 L496.3,420.0 L497.1,420.0 L498.0,419.0 L498.8,416.1 L499.7,411.9 L500.5,402.3 L501.3,404.1 L502.2,405.2 L503.0,403.6 L503.9,407.0 L504.7,419.5 L505.6,420.0 L506.4,420.0 L507.2,420.0 L508.1,420.0 L508.9,420.0 L509.8,420.0 L510.6,420.0 L511.5,420.0 L512.3,420.0 L513.1,420.0 L514.0,420.0 L514.8,420.0 L515.7,420.0 L516.5,420.0 L517.4,420.0 L518.2,417.1 L519.0,407.0 L519.9,409.9 L520.7,405.4 L521.6,408.0 L522.4,405.2 L523.3,415.3 L524.1,416.1 L524.9,419.7 L525.8,420.0 L526.6,420.0 L527.5,420.0 L528.3,420.0 L529.2,420.0 L530.0,420.0 L530.8,420.0 L531.7,420.0 L532.5,420.0 L533.4,420.0 L534.2,420.0 L535.1,420.0 L535.9,420.0 L536.7,420.0 L537.6,420.0 L538.4,417.4 L539.3,410.4 L540.1,407.8 L541.0,399.2 L541.8,401.0 L542.6,404.4 L543.5,406.5 L544.3,412.5 L545.2,419.5 L546.0,420.0 L546.9,420.0 L547.7,420.0 L548.5,420.0 L549.4,420.0 L550.2,420.0 L551.1,420.0 L551.9,420.0 L552.8,420.0 L553.6,420.0 L554.4,420.0 L555.3,420.0 L556.1,420.0 L557.0,420.0 L557.8,420.0 L558.7,414.8 L559.5,412.2 L560.3,416.1 L561.2,410.1 L562.0,412.5 L562.9,413.0 L563.7,410.9 L564.6,416.4 L565.4,419.5 L566.2,420.0 L567.1,420.0 L567.9,420.0 L568.8,420.0 L569.6,420.0 L570.4,420.0 L571.3,420.0 L572.1,420.0 L573.0,420.0 L573.8,420.0 L574.7,420.0 L575.5,420.0 L576.3,420.0 L577.2,420.0 L578.0,420.0 L578.9,419.0 L579.7,416.9 L580.6,408.6 L581.4,407.5 L582.2,401.0 L583.1,403.9 L583.9,416.4 L584.8,417.4 L585.6,419.2 L586.5,420.0 L587.3,420.0 L588.1,420.0 L589.0,420.0 L589.8,420.0 L590.7,420.0 L591.5,420.0 L592.4,420.0 L593.2,420.0 L594.0,420.0 L594.9,420.0 L595.7,420.0 L596.6,420.0 L597.4,420.0 L598.3,420.0 L599.1,418.4 L599.9,417.9 L600.8,416.1 L601.6,412.7 L602.5,408.8 L603.3,406.5 L604.2,406.2 L605.0,415.8 L605.8,419.2 L606.7,420.0 L607.5,420.0 L608.4,420.0 L609.2,420.0 L610.1,420.0 L610.9,420.0 L611.7,420.0 L612.6,420.0 L613.4,420.0 L614.3,420.0 L615.1,420.0 L616.0,420.0 L616.8,420.0 L617.6,420.0 L618.5,420.0 L619.3,414.5 L620.2,397.1 L621.0,397.4 L621.9,400.3 L622.7,401.0 L623.5,398.2 L624.4,395.6 L625.2,403.4 L626.1,418.2 L626.9,420.0 L627.8,420.0 L628.6,420.0 L629.4,420.0 L630.3,420.0 L631.1,420.0 L632.0,420.0 L632.8,420.0 L633.7,420.0 L634.5,420.0 L635.3,420.0 L636.2,420.0 L637.0,420.0 L637.9,420.0 L638.7,420.0 L639.6,413.8 L640.4,396.6 L641.2,396.9 L642.1,400.3 L642.9,401.5 L643.8,400.5 L644.6,410.4 L645.4,415.1 L646.3,419.2 L647.1,420.0 L648.0,420.0 L648.8,420.0 L649.7,420.0 L650.5,420.0 L651.3,420.0 L652.2,420.0 L653.0,420.0 L653.9,420.0 L654.7,420.0 L655.6,420.0 L656.4,420.0 L657.2,420.0 L658.1,420.0 L658.9,420.0 L659.8,417.7 L660.6,405.2 L661.5,403.9 L662.3,403.4 L663.1,403.9 L664.0,403.9 L664.8,410.1 L665.7,407.0 L666.5,418.7 L667.4,420.0 L668.2,420.0 L669.0,420.0 L669.9,420.0 L670.7,420.0 L671.6,420.0 L672.4,420.0 L673.3,420.0 L674.1,420.0 L674.9,420.0 L675.8,420.0 L676.6,420.0 L677.5,420.0 L678.3,420.0 L679.2,420.0 L680.0,415.6" stroke="#d62728" stroke-width="2" fill="none" opacity="0.8"/>
<!-- Forecast -->
<path d="M80.0,187.9 L80.8,175.2 L81.7,174.2 L82.5,177.0 L83.4,187.7 L84.2,204.3 L85.1,222.8 L85.9,226.9 L86.7,251.6 L87.6,260.2 L88.4,265.1 L89.3,266.7 L90.1,266.4 L91.0,254.5 L91.8,226.9 L92.6,202.0 L93.5,188.2 L94.3,185.1 L95.2,185.3 L96.0,187.7 L96.9,190.8 L97.7,193.7 L98.5,195.5 L99.4,195.2 L100.2,188.7 L101.1,174.9 L101.9,170.3 L102.8,174.2 L103.6,183.0 L104.4,197.3 L105.3,215.7 L106.1,234.2 L107.0,245.6 L107.8,252.6 L108.7,257.1 L109.5,259.4 L110.3,258.6 L111.2,254.5 L112.0,242.8 L112.9,226.4 L113.7,211.6 L114.6,203.0 L115.4,200.4 L116.2,201.5 L117.1,203.5 L117.9,208.2 L118.8,210.0 L119.6,209.2 L120.4,203.3 L121.3,189.5 L122.1,185.3 L123.0,187.7 L123.8,195.0 L124.7,206.1 L125.5,219.9 L126.3,240.2 L127.2,246.4 L128.0,252.6 L128.9,256.3 L129.7,258.9 L130.6,258.9 L131.4,255.8 L132.2,246.7 L133.1,231.9 L133.9,218.3 L134.8,207.7 L135.6,200.7 L136.5,203.8 L137.3,209.8 L138.1,212.9 L139.0,211.8 L139.8,210.0 L140.7,205.1 L141.5,192.1 L142.4,185.1 L143.2,194.4 L144.0,205.1 L144.9,211.3 L145.7,225.4 L146.6,238.4 L147.4,250.0 L148.3,257.6 L149.1,261.7 L149.9,263.6 L150.8,261.7 L151.6,249.5 L152.5,226.1 L153.3,199.4 L154.2,184.8 L155.0,182.7 L155.8,184.0 L156.7,186.9 L157.5,190.5 L158.4,193.7 L159.2,195.7 L160.1,196.0 L160.9,190.3 L161.7,177.3 L162.6,172.9 L163.4,176.0 L164.3,186.4 L165.1,202.8 L166.0,219.9 L166.8,238.1 L167.6,248.7 L168.5,254.7 L169.3,258.4 L170.2,260.4 L171.0,257.6 L171.9,245.6 L172.7,222.0 L173.5,195.2 L174.4,180.7 L175.2,179.6 L176.1,182.0 L176.9,184.6 L177.8,189.2 L178.6,192.6 L179.4,194.7 L180.3,195.0 L181.1,189.5 L182.0,176.8 L182.8,172.1 L183.7,175.7 L184.5,186.1 L185.3,202.2 L186.2,219.6 L187.0,223.5 L187.9,249.8 L188.7,256.8 L189.6,261.2 L190.4,262.8 L191.2,260.7 L192.1,249.0 L192.9,225.6 L193.8,199.4 L194.6,184.8 L195.4,182.7 L196.3,184.0 L197.1,186.6 L198.0,190.3 L198.8,193.7 L199.7,196.0 L200.5,196.5 L201.3,191.1 L202.2,178.3 L203.0,173.6 L203.9,177.0 L204.7,187.4 L205.6,203.0 L206.4,220.2 L207.2,239.9 L208.1,253.7 L208.9,260.4 L209.8,264.9 L210.6,262.3 L211.5,258.6 L212.3,254.5 L213.1,246.7 L214.0,237.8 L214.8,227.2 L215.7,215.7 L216.5,205.3 L217.4,204.6 L218.2,210.5 L219.0,212.9 L219.9,213.4 L220.7,211.1 L221.6,207.2 L222.4,191.6 L223.3,185.1 L224.1,193.4 L224.9,204.0 L225.8,209.8 L226.6,224.3 L227.5,236.3 L228.3,248.5 L229.2,256.0 L230.0,259.9 L230.8,262.0 L231.7,259.9 L232.5,248.0 L233.4,225.1 L234.2,198.1 L235.1,183.3 L235.9,181.2 L236.7,183.0 L237.6,185.6 L238.4,189.5 L239.3,192.6 L240.1,194.7 L241.0,194.7 L241.8,189.0 L242.6,175.5 L243.5,171.0 L244.3,174.7 L245.2,184.6 L246.0,199.6 L246.9,217.3 L247.7,234.2 L248.5,246.1 L249.4,253.4 L250.2,257.3 L251.1,259.9 L251.9,258.9 L252.8,254.2 L253.6,242.0 L254.4,225.4 L255.3,209.2 L256.1,199.6 L257.0,196.5 L257.8,197.0 L258.7,198.6 L259.5,203.3 L260.3,205.6 L261.2,205.1 L262.0,198.9 L262.9,185.1 L263.7,182.5 L264.6,185.9 L265.4,193.4 L266.2,204.8 L267.1,219.4 L267.9,236.8 L268.8,245.9 L269.6,246.9 L270.4,250.3 L271.3,253.9 L272.1,254.2 L273.0,251.1 L273.8,243.0 L274.7,228.5 L275.5,213.9 L276.3,203.0 L277.2,197.3 L278.0,197.6 L278.9,199.6 L279.7,203.8 L280.6,206.4 L281.4,206.4 L282.2,199.4 L283.1,184.6 L283.9,177.3 L284.8,184.0 L285.6,193.4 L286.5,203.0 L287.3,219.1 L288.1,223.0 L289.0,244.8 L289.8,251.1 L290.7,255.0 L291.5,256.8 L292.4,253.9 L293.2,242.3 L294.0,218.6 L294.9,191.8 L295.7,178.3 L296.6,177.8 L297.4,180.7 L298.3,183.5 L299.1,188.5 L299.9,191.8 L300.8,193.7 L301.6,193.7 L302.5,187.9 L303.3,174.4 L304.2,169.7 L305.0,174.2 L305.8,183.5 L306.7,198.3 L307.5,216.8 L308.4,235.5 L309.2,244.8 L310.1,252.9 L310.9,257.1 L311.7,258.9 L312.6,256.3 L313.4,244.3 L314.3,220.4 L315.1,193.7 L316.0,179.9 L316.8,179.1 L317.6,181.4 L318.5,184.3 L319.3,188.7 L320.2,192.1 L321.0,193.9 L321.9,193.7 L322.7,187.7 L323.5,174.4 L324.4,169.7 L325.2,174.2 L326.1,183.5 L326.9,198.3 L327.8,216.8 L328.6,235.5 L329.4,246.9 L330.3,252.9 L331.1,256.3 L332.0,257.8 L332.8,255.5 L333.7,243.3 L334.5,219.4 L335.3,191.8 L336.2,178.6 L337.0,178.3 L337.9,181.2 L338.7,184.3 L339.6,189.0 L340.4,192.4 L341.2,194.4 L342.1,194.2 L342.9,188.5 L343.8,174.7 L344.6,170.0 L345.4,173.9 L346.3,183.3 L347.1,198.3 L348.0,216.5 L348.8,374.5 L349.7,288.2 L350.5,383.1 L351.3,420.0 L352.2,420.0 L353.0,420.0 L353.9,420.0 L354.7,420.0 L355.6,420.0 L356.4,420.0 L357.2,420.0 L358.1,420.0 L358.9,420.0 L359.8,420.0 L360.6,420.0 L361.5,420.0 L362.3,420.0 L363.1,420.0 L364.0,420.0 L364.8,420.0 L365.7,420.0 L366.5,420.0 L367.4,420.0 L368.2,420.0 L369.0,281.0 L369.9,248.0 L370.7,254.7 L371.6,258.6 L372.4,260.7 L373.3,258.9 L374.1,246.9 L374.9,223.8 L375.8,196.8 L376.6,182.2 L377.5,180.4 L378.3,182.5 L379.2,185.6 L380.0,189.5 L380.8,193.1 L381.7,195.2 L382.5,195.7 L383.4,190.0 L384.2,177.8 L385.1,173.1 L385.9,176.2 L386.7,186.9 L387.6,203.3 L388.4,220.2 L389.3,224.1 L390.1,255.2 L391.0,260.2 L391.8,264.6 L392.6,268.0 L393.5,271.1 L394.3,268.5 L395.2,252.1 L396.0,235.2 L396.9,220.9 L397.7,214.7 L398.5,208.7 L399.4,209.5 L400.2,211.1 L401.1,217.3 L401.9,218.9 L402.8,217.8 L403.6,213.4 L404.4,203.3 L405.3,198.6 L406.1,199.1 L407.0,205.9 L407.8,216.3 L408.7,232.4 L409.5,242.5 L410.3,255.5 L411.2,261.2 L412.0,265.1 L412.9,262.5 L413.7,258.9 L414.6,254.7 L415.4,246.9 L416.2,238.9 L417.1,229.3 L417.9,218.3 L418.8,207.4 L419.6,198.3 L420.4,204.8 L421.3,210.3 L422.1,214.4 L423.0,212.9 L423.8,209.5 L424.7,193.7 L425.5,187.9 L426.3,193.4 L427.2,203.3 L428.0,210.5 L428.9,224.6 L429.7,236.8 L430.6,248.0 L431.4,255.0 L432.2,258.6 L433.1,260.2 L433.9,257.6 L434.8,245.4 L435.6,222.5 L436.5,195.2 L437.3,180.7 L438.1,179.4 L439.0,181.7 L439.8,184.6 L440.7,189.0 L441.5,192.1 L442.4,193.9 L443.2,193.9 L444.0,187.9 L444.9,174.9 L445.7,170.3 L446.6,174.2 L447.4,183.3 L448.3,198.3 L449.1,217.0 L449.9,376.3 L450.8,245.9 L451.6,256.3 L452.5,261.5 L453.3,262.8 L454.2,261.0 L455.0,248.7 L455.8,224.6 L456.7,197.8 L457.5,182.5 L458.4,179.9 L459.2,181.4 L460.1,184.0 L460.9,188.2 L461.7,191.1 L462.6,192.9 L463.4,192.6 L464.3,185.6 L465.1,171.6 L466.0,166.6 L466.8,170.3 L467.6,178.8 L468.5,192.1 L469.3,211.3 L470.2,230.8 L471.0,248.2 L471.9,257.1 L472.7,261.5 L473.5,263.0 L474.4,261.2 L475.2,249.0 L476.1,224.6 L476.9,197.8 L477.8,182.5 L478.6,179.9 L479.4,181.4 L480.3,184.0 L481.1,188.2 L482.0,191.3 L482.8,193.1 L483.7,192.6 L484.5,185.9 L485.3,171.8 L486.2,166.9 L487.0,170.5 L487.9,179.1 L488.7,192.4 L489.6,211.8 L490.4,216.3 L491.2,242.5 L492.1,249.0 L492.9,252.4 L493.8,253.7 L494.6,251.1 L495.4,239.1 L496.3,214.4 L497.1,186.9 L498.0,173.9 L498.8,174.2 L499.7,177.5 L500.5,180.7 L501.3,185.3 L502.2,189.0 L503.0,190.8 L503.9,190.0 L504.7,183.0 L505.6,168.4 L506.4,163.8 L507.2,166.6 L508.1,176.2 L508.9,189.5 L509.8,209.8 L510.6,233.4 L511.5,242.8 L512.3,249.0 L513.1,253.4 L514.0,254.7 L514.8,252.1 L515.7,240.4 L516.5,215.7 L517.4,187.9 L518.2,175.2 L519.0,175.2 L519.9,178.3 L520.7,181.2 L521.6,186.6 L522.4,190.0 L523.3,191.8 L524.1,191.8 L524.9,185.9 L525.8,172.9 L526.6,168.2 L527.5,172.9 L528.3,182.2 L529.2,197.3 L530.0,215.7 L530.8,239.1 L531.7,248.2 L532.5,254.2 L533.4,259.1 L534.2,262.0 L535.1,263.0 L535.9,259.7 L536.7,245.6 L537.6,228.7 L538.4,213.9 L539.3,206.6 L540.1,203.0 L541.0,204.6 L541.8,206.9 L542.6,213.1 L543.5,215.0 L544.3,213.7 L545.2,208.7 L546.0,197.6 L546.9,192.6 L547.7,193.4 L548.5,199.6 L549.4,210.5 L550.2,225.6 L551.1,240.2 L551.9,250.0 L552.8,255.8 L553.6,259.4 L554.4,259.7 L555.3,258.1 L556.1,253.9 L557.0,245.4 L557.8,233.7 L558.7,222.0 L559.5,211.6 L560.3,202.8 L561.2,197.6 L562.0,203.3 L562.9,208.5 L563.7,213.4 L564.6,211.3 L565.4,208.2 L566.2,192.1 L567.1,186.4 L567.9,190.0 L568.8,198.6 L569.6,209.0 L570.4,223.3 L571.3,239.9 L572.1,249.3 L573.0,255.5 L573.8,259.9 L574.7,261.7 L575.5,259.7 L576.3,247.7 L577.2,223.3 L578.0,197.3 L578.9,182.7 L579.7,180.9 L580.6,182.5 L581.4,185.6 L582.2,189.2 L583.1,192.6 L583.9,195.7 L584.8,196.8 L585.6,191.6 L586.5,180.7 L587.3,175.7 L588.1,177.5 L589.0,190.3 L589.8,198.1 L590.7,221.2 L591.5,227.2 L592.4,251.6 L593.2,259.1 L594.0,263.8 L594.9,265.4 L595.7,264.1 L596.6,252.4 L597.4,225.6 L598.3,199.9 L599.1,186.1 L599.9,183.5 L600.8,184.6 L601.6,187.4 L602.5,190.5 L603.3,193.7 L604.2,196.8 L605.0,198.1 L605.8,193.1 L606.7,181.7 L607.5,176.5 L608.4,177.8 L609.2,189.8 L610.1,198.3 L610.9,220.4 L611.7,238.9 L612.6,250.8 L613.4,256.8 L614.3,260.2 L615.1,261.5 L616.0,259.1 L616.8,246.9 L617.6,222.8 L618.5,195.0 L619.3,182.0 L620.2,181.2 L621.0,183.3 L621.9,186.9 L622.7,190.3 L623.5,193.9 L624.4,197.0 L625.2,198.1 L626.1,192.4 L626.9,180.7 L627.8,175.2 L628.6,176.8 L629.4,187.9 L630.3,195.7 L631.1,218.3 L632.0,233.9 L632.8,248.5 L633.7,256.0 L634.5,259.9 L635.3,261.2 L636.2,258.6 L637.0,246.1 L637.9,221.2 L638.7,193.7 L639.6,180.1 L640.4,179.6 L641.2,182.2 L642.1,185.1 L642.9,189.0 L643.8,192.4 L644.6,195.0 L645.4,195.0 L646.3,188.5 L647.1,175.2 L648.0,169.5 L648.8,173.1 L649.7,181.7 L650.5,196.0 L651.3,214.4 L652.2,231.1 L653.0,243.8 L653.9,250.6 L654.7,254.2 L655.6,255.2 L656.4,252.4 L657.2,240.2 L658.1,215.0 L658.9,186.9 L659.8,174.7 L660.6,175.2 L661.5,178.8 L662.3,182.2 L663.1,187.4 L664.0,190.8 L664.8,192.9 L665.7,192.9 L666.5,185.9 L667.4,171.8 L668.2,166.6 L669.0,171.0 L669.9,178.6 L670.7,191.8 L671.6,211.1 L672.4,236.0 L673.3,242.3 L674.1,246.9 L674.9,251.9 L675.8,253.7 L676.6,252.9 L677.5,248.5 L678.3,237.1 L679.2,222.0 L680.0,218.6" stroke="#9467bd" stroke-width="2" fill="none" opacity="0.8"/>
<!-- Total Generation -->
<path d="M80.0,287.2 L80.8,296.8 L81.7,284.9 L82.5,256.5 L83.4,255.8 L84.2,258.4 L85.1,249.8 L85.9,247.4 L86.7,245.4 L87.6,248.2 L88.4,232.4 L89.3,234.5 L90.1,261.7 L91.0,263.6 L91.8,271.9 L92.6,260.2 L93.5,249.0 L94.3,227.4 L95.2,207.2 L96.0,215.2 L96.9,212.6 L97.7,212.4 L98.5,222.0 L99.4,206.4 L100.2,222.0 L101.1,207.7 L101.9,215.0 L102.8,204.3 L103.6,199.6 L104.4,199.6 L105.3,229.3 L106.1,214.7 L107.0,221.2 L107.8,246.1 L108.7,249.8 L109.5,247.4 L110.3,244.8 L111.2,247.2 L112.0,241.2 L112.9,233.4 L113.7,229.3 L114.6,209.2 L115.4,203.5 L116.2,201.7 L117.1,210.3 L117.9,211.3 L118.8,220.9 L119.6,228.0 L120.4,215.2 L121.3,205.6 L122.1,223.0 L123.0,230.3 L123.8,224.1 L124.7,227.4 L125.5,248.2 L126.3,245.1 L127.2,252.9 L128.0,288.2 L128.9,295.8 L129.7,290.3 L130.6,282.3 L131.4,281.2 L132.2,284.6 L133.1,283.6 L133.9,289.3 L134.8,270.1 L135.6,274.0 L136.5,275.0 L137.3,275.5 L138.1,272.1 L139.0,273.4 L139.8,267.5 L140.7,246.1 L141.5,255.2 L142.4,263.0 L143.2,256.3 L144.0,268.0 L144.9,265.1 L145.7,260.7 L146.6,264.6 L147.4,268.5 L148.3,283.0 L149.1,293.4 L149.9,279.4 L150.8,257.8 L151.6,252.4 L152.5,251.6 L153.3,243.5 L154.2,250.6 L155.0,233.4 L155.8,195.5 L156.7,194.4 L157.5,185.1 L158.4,206.4 L159.2,212.9 L160.1,228.0 L160.9,224.8 L161.7,229.8 L162.6,241.5 L163.4,238.4 L164.3,248.2 L165.1,252.9 L166.0,276.3 L166.8,277.1 L167.6,277.6 L168.5,278.4 L169.3,271.4 L170.2,283.3 L171.0,270.3 L171.9,257.3 L172.7,252.4 L173.5,257.3 L174.4,262.8 L175.2,258.4 L176.1,250.3 L176.9,272.1 L177.8,270.3 L178.6,255.5 L179.4,236.5 L180.3,257.8 L181.1,264.9 L182.0,277.1 L182.8,272.7 L183.7,281.8 L184.5,276.3 L185.3,303.6 L186.2,300.7 L187.0,290.1 L187.9,288.8 L188.7,297.3 L189.6,300.2 L190.4,300.5 L191.2,299.7 L192.1,300.7 L192.9,278.9 L193.8,277.3 L194.6,275.0 L195.4,264.9 L196.3,258.6 L197.1,265.4 L198.0,268.8 L198.8,264.9 L199.7,281.0 L200.5,266.7 L201.3,265.1 L202.2,270.6 L203.0,294.2 L203.9,297.3 L204.7,294.2 L205.6,298.6 L206.4,297.3 L207.2,296.8 L208.1,283.8 L208.9,274.5 L209.8,276.8 L210.6,279.4 L211.5,276.0 L212.3,278.9 L213.1,257.8 L214.0,238.6 L214.8,253.2 L215.7,242.3 L216.5,250.6 L217.4,223.0 L218.2,230.6 L219.0,258.1 L219.9,255.0 L220.7,257.3 L221.6,261.2 L222.4,268.8 L223.3,284.6 L224.1,284.1 L224.9,282.5 L225.8,271.9 L226.6,266.7 L227.5,281.8 L228.3,255.8 L229.2,242.3 L230.0,224.1 L230.8,268.8 L231.7,266.9 L232.5,255.0 L233.4,285.4 L234.2,287.7 L235.1,289.0 L235.9,271.1 L236.7,269.0 L237.6,268.8 L238.4,271.1 L239.3,222.2 L240.1,234.7 L241.0,248.0 L241.8,216.3 L242.6,202.2 L243.5,217.8 L244.3,228.0 L245.2,223.3 L246.0,217.6 L246.9,224.3 L247.7,245.9 L248.5,258.1 L249.4,261.0 L250.2,266.4 L251.1,274.5 L251.9,255.8 L252.8,246.1 L253.6,254.7 L254.4,223.5 L255.3,222.8 L256.1,219.6 L257.0,247.4 L257.8,250.8 L258.7,255.0 L259.5,256.8 L260.3,256.8 L261.2,245.1 L262.0,245.1 L262.9,245.9 L263.7,241.5 L264.6,223.0 L265.4,222.0 L266.2,231.1 L267.1,254.7 L267.9,256.5 L268.8,265.6 L269.6,275.8 L270.4,270.6 L271.3,266.2 L272.1,269.3 L273.0,258.6 L273.8,238.1 L274.7,200.7 L275.5,206.4 L276.3,181.7 L277.2,200.4 L278.0,212.4 L278.9,210.0 L279.7,207.2 L280.6,204.6 L281.4,218.3 L282.2,226.7 L283.1,189.8 L283.9,189.2 L284.8,195.2 L285.6,196.0 L286.5,209.8 L287.3,194.7 L288.1,229.0 L289.0,227.7 L289.8,218.6 L290.7,228.2 L291.5,216.8 L292.4,218.6 L293.2,209.8 L294.0,179.4 L294.9,179.6 L295.7,217.3 L296.6,207.2 L297.4,187.4 L298.3,189.5 L299.1,196.5 L299.9,195.2 L300.8,192.4 L301.6,200.4 L302.5,163.0 L303.3,168.7 L304.2,208.2 L305.0,200.2 L305.8,207.9 L306.7,209.0 L307.5,212.1 L308.4,219.1 L309.2,226.9 L310.1,223.3 L310.9,233.4 L311.7,231.3 L312.6,226.7 L313.4,241.2 L314.3,249.5 L315.1,223.5 L316.0,212.6 L316.8,207.2 L317.6,189.8 L318.5,183.3 L319.3,194.7 L320.2,148.2 L321.0,178.1 L321.9,184.0 L322.7,141.4 L323.5,138.6 L324.4,165.6 L325.2,150.8 L326.1,146.6 L326.9,145.3 L327.8,172.9 L328.6,178.1 L329.4,171.0 L330.3,173.1 L331.1,174.2 L332.0,178.1 L332.8,187.2 L333.7,177.0 L334.5,178.1 L335.3,189.2 L336.2,180.4 L337.0,172.3 L337.9,170.8 L338.7,168.4 L339.6,154.4 L340.4,143.5 L341.2,154.4 L342.1,124.0 L342.9,124.3 L343.8,131.3 L344.6,128.9 L345.4,149.0 L346.3,151.0 L347.1,147.9 L348.0,147.1 L348.8,155.2 L349.7,160.1 L350.5,232.9 L351.3,242.3 L352.2,238.1 L353.0,242.8 L353.9,252.1 L354.7,234.7 L355.6,247.4 L356.4,251.6 L357.2,228.5 L358.1,225.9 L358.9,226.4 L359.8,229.3 L360.6,227.4 L361.5,233.2 L362.3,240.7 L363.1,200.7 L364.0,139.3 L364.8,171.8 L365.7,171.8 L366.5,177.0 L367.4,183.0 L368.2,174.2 L369.0,181.4 L369.9,196.0 L370.7,191.8 L371.6,198.1 L372.4,195.0 L373.3,210.3 L374.1,201.7 L374.9,180.4 L375.8,172.3 L376.6,169.7 L377.5,159.9 L378.3,152.9 L379.2,156.8 L380.0,168.4 L380.8,185.6 L381.7,201.7 L382.5,188.7 L383.4,177.5 L384.2,163.8 L385.1,157.8 L385.9,162.5 L386.7,165.3 L387.6,169.2 L388.4,173.1 L389.3,208.7 L390.1,223.5 L391.0,220.2 L391.8,243.8 L392.6,271.9 L393.5,270.8 L394.3,267.5 L395.2,266.7 L396.0,266.9 L396.9,258.1 L397.7,241.7 L398.5,226.1 L399.4,214.2 L400.2,207.7 L401.1,207.4 L401.9,206.9 L402.8,223.0 L403.6,217.8 L404.4,223.8 L405.3,223.3 L406.1,225.6 L407.0,193.9 L407.8,215.5 L408.7,233.9 L409.5,233.9 L410.3,232.4 L411.2,221.5 L412.0,192.9 L412.9,186.9 L413.7,208.2 L414.6,203.5 L415.4,200.4 L416.2,200.9 L417.1,208.2 L417.9,215.5 L418.8,193.4 L419.6,157.8 L420.4,175.2 L421.3,196.3 L422.1,185.6 L423.0,177.5 L423.8,202.5 L424.7,205.1 L425.5,201.7 L426.3,205.1 L427.2,222.8 L428.0,209.5 L428.9,200.2 L429.7,183.5 L430.6,178.3 L431.4,188.2 L432.2,209.0 L433.1,221.5 L433.9,225.6 L434.8,223.8 L435.6,229.3 L436.5,225.1 L437.3,225.9 L438.1,192.1 L439.0,184.8 L439.8,163.3 L440.7,159.6 L441.5,176.2 L442.4,175.5 L443.2,207.7 L444.0,211.1 L444.9,183.3 L445.7,192.9 L446.6,194.2 L447.4,211.3 L448.3,210.8 L449.1,197.0 L449.9,169.5 L450.8,189.8 L451.6,204.6 L452.5,198.9 L453.3,197.8 L454.2,198.1 L455.0,197.8 L455.8,191.8 L456.7,151.6 L457.5,183.0 L458.4,179.6 L459.2,180.1 L460.1,176.2 L460.9,181.2 L461.7,173.4 L462.6,184.0 L463.4,200.4 L464.3,201.5 L465.1,152.6 L466.0,154.4 L466.8,175.5 L467.6,171.3 L468.5,182.2 L469.3,180.7 L470.2,225.6 L471.0,231.3 L471.9,236.3 L472.7,220.9 L473.5,211.3 L474.4,248.7 L475.2,222.5 L476.1,188.7 L476.9,159.9 L477.8,177.8 L478.6,183.0 L479.4,187.4 L480.3,182.0 L481.1,194.4 L482.0,200.2 L482.8,190.3 L483.7,205.6 L484.5,197.0 L485.3,185.9 L486.2,196.3 L487.0,238.1 L487.9,225.1 L488.7,244.8 L489.6,248.2 L490.4,245.1 L491.2,241.2 L492.1,286.7 L492.9,297.6 L493.8,296.3 L494.6,287.7 L495.4,281.8 L496.3,259.9 L497.1,191.3 L498.0,223.8 L498.8,218.1 L499.7,188.7 L500.5,165.1 L501.3,171.6 L502.2,178.8 L503.0,179.4 L503.9,187.2 L504.7,189.5 L505.6,172.1 L506.4,167.4 L507.2,179.1 L508.1,173.6 L508.9,182.5 L509.8,188.2 L510.6,192.6 L511.5,192.6 L512.3,202.8 L513.1,179.6 L514.0,190.0 L514.8,193.7 L515.7,179.6 L516.5,158.8 L517.4,147.4 L518.2,181.7 L519.0,118.3 L519.9,115.2 L520.7,114.1 L521.6,129.7 L522.4,132.8 L523.3,159.9 L524.1,160.4 L524.9,141.9 L525.8,95.9 L526.6,105.8 L527.5,127.4 L528.3,115.2 L529.2,130.8 L530.0,144.3 L530.8,149.5 L531.7,131.3 L532.5,112.8 L533.4,134.9 L534.2,116.2 L535.1,116.0 L535.9,105.6 L536.7,87.4 L537.6,93.1 L538.4,125.6 L539.3,138.3 L540.1,147.7 L541.0,145.6 L541.8,161.7 L542.6,162.5 L543.5,175.5 L544.3,181.2 L545.2,183.8 L546.0,147.1 L546.9,167.4 L547.7,159.1 L548.5,152.9 L549.4,178.1 L550.2,172.3 L551.1,109.2 L551.9,105.3 L552.8,184.8 L553.6,193.1 L554.4,179.6 L555.3,160.7 L556.1,149.2 L557.0,150.3 L557.8,118.0 L558.7,155.5 L559.5,162.0 L560.3,179.9 L561.2,197.6 L562.0,199.1 L562.9,209.5 L563.7,201.7 L564.6,190.3 L565.4,181.4 L566.2,87.4 L567.1,68.9 L567.9,67.6 L568.8,92.0 L569.6,69.7 L570.4,145.3 L571.3,164.8 L572.1,200.7 L573.0,203.8 L573.8,204.0 L574.7,189.5 L575.5,161.4 L576.3,147.4 L577.2,146.4 L578.0,149.7 L578.9,198.3 L579.7,177.8 L580.6,161.7 L581.4,179.9 L582.2,186.9 L583.1,206.1 L583.9,209.0 L584.8,184.8 L585.6,177.3 L586.5,141.7 L587.3,144.8 L588.1,144.0 L589.0,158.8 L589.8,194.7 L590.7,196.3 L591.5,183.3 L592.4,185.1 L593.2,184.8 L594.0,186.6 L594.9,195.7 L595.7,184.8 L596.6,180.9 L597.4,126.6 L598.3,117.8 L599.1,167.4 L599.9,166.1 L600.8,198.3 L601.6,207.4 L602.5,206.1 L603.3,203.5 L604.2,205.3 L605.0,225.9 L605.8,220.2 L606.7,164.8 L607.5,178.3 L608.4,183.8 L609.2,166.4 L610.1,169.5 L610.9,200.4 L611.7,204.8 L612.6,221.5 L613.4,218.1 L614.3,172.3 L615.1,180.9 L616.0,189.2 L616.8,182.0 L617.6,108.7 L618.5,99.3 L619.3,166.6 L620.2,182.2 L621.0,197.0 L621.9,191.3 L622.7,195.2 L623.5,195.2 L624.4,187.4 L625.2,212.1 L626.1,200.4 L626.9,149.7 L627.8,117.5 L628.6,160.7 L629.4,153.9 L630.3,172.1 L631.1,182.2 L632.0,191.8 L632.8,194.7 L633.7,191.6 L634.5,196.5 L635.3,193.1 L636.2,200.4 L637.0,191.8 L637.9,195.0 L638.7,156.2 L639.6,183.0 L640.4,165.8 L641.2,197.8 L642.1,211.3 L642.9,215.0 L643.8,225.6 L644.6,218.3 L645.4,206.1 L646.3,217.3 L647.1,215.7 L648.0,192.6 L648.8,172.1 L649.7,171.0 L650.5,167.9 L651.3,170.0 L652.2,160.9 L653.0,192.4 L653.9,211.3 L654.7,205.6 L655.6,207.7 L656.4,206.1 L657.2,191.3 L658.1,174.4 L658.9,150.3 L659.8,117.0 L660.6,161.2 L661.5,175.7 L662.3,195.0 L663.1,197.0 L664.0,207.7 L664.8,198.9 L665.7,189.5 L666.5,200.9 L667.4,182.7 L668.2,168.7 L669.0,184.8 L669.9,190.3 L670.7,195.2 L671.6,192.1 L672.4,192.4 L673.3,225.4 L674.1,219.6 L674.9,209.0 L675.8,230.6 L676.6,224.6 L677.5,197.0 L678.3,178.1 L679.2,177.5 L680.0,204.0" stroke="#8c564b" stroke-width="2" fill="none" opacity="0.8"/>
<!-- Forecast Difference -->
<path d="M80.0,420.0 L80.8,420.0 L81.7,420.0 L82.5,420.0 L83.4,420.0 L84.2,420.0 L85.1,420.0 L85.9,420.0 L86.7,420.0 L87.6,420.0 L88.4,420.0 L89.3,420.0 L90.1,420.0 L91.0,420.0 L91.8,420.0 L92.6,420.0 L93.5,420.0 L94.3,420.0 L95.2,420.0 L96.0,420.0 L96.9,420.0 L97.7,420.0 L98.5,420.0 L99.4,420.0 L100.2,420.0 L101.1,420.0 L101.9,420.0 L102.8,420.0 L103.6,420.0 L104.4,420.0 L105.3,420.0 L106.1,420.0 L107.0,420.0 L107.8,420.0 L108.7,420.0 L109.5,420.0 L110.3,420.0 L111.2,420.0 L112.0,420.0 L112.9,420.0 L113.7,420.0 L114.6,420.0 L115.4,420.0 L116.2,420.0 L117.1,420.0 L117.9,420.0 L118.8,420.0 L119.6,420.0 L120.4,420.0 L121.3,420.0 L122.1,420.0 L123.0,420.0 L123.8,420.0 L124.7,420.0 L125.5,420.0 L126.3,420.0 L127.2,420.0 L128.0,420.0 L128.9,420.0 L129.7,420.0 L130.6,420.0 L131.4,420.0 L132.2,420.0 L133.1,420.0 L133.9,420.0 L134.8,420.0 L135.6,420.0 L136.5,420.0 L137.3,420.0 L138.1,420.0 L139.0,420.0 L139.8,420.0 L140.7,420.0 L141.5,420.0 L142.4,420.0 L143.2,420.0 L144.0,420.0 L144.9,420.0 L145.7,420.0 L146.6,420.0 L147.4,420.0 L148.3,420.0 L149.1,420.0 L149.9,420.0 L150.8,420.0 L151.6,420.0 L152.5,420.0 L153.3,420.0 L154.2,420.0 L155.0,420.0 L155.8,420.0 L156.7,420.0 L157.5,420.0 L158.4,420.0 L159.2,420.0 L160.1,420.0 L160.9,420.0 L161.7,420.0 L162.6,420.0 L163.4,420.0 L164.3,420.0 L165.1,420.0 L166.0,420.0 L166.8,420.0 L167.6,420.0 L168.5,420.0 L169.3,420.0 L170.2,420.0 L171.0,420.0 L171.9,420.0 L172.7,420.0 L173.5,420.0 L174.4,420.0 L175.2,420.0 L176.1,420.0 L176.9,420.0 L177.8,420.0 L178.6,420.0 L179.4,420.0 L180.3,420.0 L181.1,420.0 L182.0,420.0 L182.8,420.0 L183.7,420.0 L184.5,420.0 L185.3,420.0 L186.2,420.0 L187.0,420.0 L187.9,420.0 L188.7,420.0 L189.6,420.0 L190.4,420.0 L191.2,420.0 L192.1,420.0 L192.9,420.0 L193.8,420.0 L194.6,420.0 L195.4,420.0 L196.3,420.0 L197.1,420.0 L198.0,420.0 L198.8,420.0 L199.7,420.0 L200.5,420.0 L201.3,420.0 L202.2,420.0 L203.0,420.0 L203.9,420.0 L204.7,420.0 L205.6,420.0 L206.4,420.0 L207.2,420.0 L208.1,420.0 L208.9,420.0 L209.8,420.0 L210.6,420.0 L211.5,420.0 L212.3,420.0 L213.1,420.0 L214.0,420.0 L214.8,420.0 L215.7,420.0 L216.5,420.0 L217.4,420.0 L218.2,420.0 L219.0,420.0 L219.9,420.0 L220.7,420.0 L221.6,420.0 L222.4,420.0 L223.3,420.0 L224.1,420.0 L224.9,420.0 L225.8,420.0 L226.6,420.0 L227.5,420.0 L228.3,420.0 L229.2,420.0 L230.0,420.0 L230.8,420.0 L231.7,420.0 L232.5,420.0 L233.4,420.0 L234.2,420.0 L235.1,420.0 L235.9,420.0 L236.7,420.0 L237.6,420.0 L238.4,420.0 L239.3,420.0 L240.1,420.0 L241.0,420.0 L241.8,420.0 L242.6,420.0 L243.5,420.0 L244.3,420.0 L245.2,420.0 L246.0,420.0 L246.9,420.0 L247.7,420.0 L248.5,420.0 L249.4,420.0 L250.2,420.0 L251.1,420.0 L251.9,420.0 L252.8,420.0 L253.6,420.0 L254.4,420.0 L255.3,420.0 L256.1,420.0 L257.0,420.0 L257.8,420.0 L258.7,420.0 L259.5,420.0 L260.3,420.0 L261.2,420.0 L262.0,420.0 L262.9,420.0 L263.7,420.0 L264.6,420.0 L265.4,420.0 L266.2,420.0 L267.1,420.0 L267.9,420.0 L268.8,420.0 L269.6,420.0 L270.4,420.0 L271.3,420.0 L272.1,420.0 L273.0,420.0 L273.8,420.0 L274.7,420.0 L275.5,420.0 L276.3,420.0 L277.2,420.0 L278.0,420.0 L278.9,420.0 L279.7,420.0 L280.6,420.0 L281.4,420.0 L282.2,420.0 L283.1,420.0 L283.9,420.0 L284.8,420.0 L285.6,420.0 L286.5,420.0 L287.3,420.0 L288.1,420.0 L289.0,420.0 L289.8,420.0 L290.7,420.0 L291.5,420.0 L292.4,420.0 L293.2,420.0 L294.0,420.0 L294.9,420.0 L295.7,420.0 L296.6,420.0 L297.4,420.0 L298.3,420.0 L299.1,420.0 L299.9,420.0 L300.8,420.0 L301.6,420.0 L302.5,420.0 L303.3,420.0 L304.2,420.0 L305.0,420.0 L305.8,420.0 L306.7,420.0 L307.5,420.0 L308.4,420.0 L309.2,420.0 L310.1,420.0 L310.9,420.0 L311.7,420.0 L312.6,420.0 L313.4,420.0 L314.3,420.0 L315.1,420.0 L316.0,420.0 L316.8,420.0 L317.6,420.0 L318.5,420.0 L319.3,420.0 L320.2,420.0 L321.0,420.0 L321.9,420.0 L322.7,420.0 L323.5,420.0 L324.4,420.0 L325.2,420.0 L326.1,420.0 L326.9,420.0 L327.8,420.0 L328.6,420.0 L329.4,420.0 L330.3,420.0 L331.1,420.0 L332.0,420.0 L332.8,420.0 L333.7,420.0 L334.5,420.0 L335.3,420.0 L336.2,420.0 L337.0,420.0 L337.9,420.0 L338.7,420.0 L339.6,420.0 L340.4,420.0 L341.2,420.0 L342.1,420.0 L342.9,420.0 L343.8,420.0 L344.6,420.0 L345.4,420.0 L346.3,420.0 L347.1,420.0 L348.0,420.0 L348.8,420.0 L349.7,420.0 L350.5,420.0 L351.3,420.0 L352.2,420.0 L353.0,420.0 L353.9,420.0 L354.7,420.0 L355.6,420.0 L356.4,420.0 L357.2,420.0 L358.1,420.0 L358.9,420.0 L359.8,420.0 L360.6,420.0 L361.5,420.0 L362.3,420.0 L363.1,420.0 L364.0,420.0 L364.8,420.0 L365.7,420.0 L366.5,420.0 L367.4,420.0 L368.2,420.0 L369.0,420.0 L369.9,420.0 L370.7,420.0 L371.6,420.0 L372.4,420.0 L373.3,420.0 L374.1,420.0 L374.9,420.0 L375.8,420.0 L376.6,420.0 L377.5,420.0 L378.3,420.0 L379.2,420.0 L380.0,420.0 L380.8,420.0 L381.7,420.0 L382.5,420.0 L383.4,420.0 L384.2,420.0 L385.1,420.0 L385.9,420.0 L386.7,420.0 L387.6,420.0 L388.4,420.0 L389.3,420.0 L390.1,420.0 L391.0,420.0 L391.8,420.0 L392.6,420.0 L393.5,420.0 L394.3,420.0 L395.2,420.0 L396.0,420.0 L396.9,420.0 L397.7,420.0 L398.5,420.0 L399.4,420.0 L400.2,420.0 L401.1,420.0 L401.9,420.0 L402.8,420.0 L403.6,420.0 L404.4,420.0 L405.3,420.0 L406.1,420.0 L407.0,420.0 L407.8,420.0 L408.7,420.0 L409.5,420.0 L410.3,420.0 L411.2,420.0 L412.0,420.0 L412.9,420.0 L413.7,420.0 L414.6,420.0 L415.4,420.0 L416.2,420.0 L417.1,420.0 L417.9,420.0 L418.8,420.0 L419.6,420.0 L420.4,420.0 L421.3,420.0 L422.1,420.0 L423.0,420.0 L423.8,420.0 L424.7,420.0 L425.5,420.0 L426.3,420.0 L427.2,420.0 L428.0,420.0 L428.9,420.0 L429.7,420.0 L430.6,420.0 L431.4,420.0 L432.2,420.0 L433.1,420.0 L433.9,420.0 L434.8,420.0 L435.6,420.0 L436.5,420.0 L437.3,420.0 L438.1,420.0 L439.0,420.0 L439.8,420.0 L440.7,420.0 L441.5,420.0 L442.4,420.0 L443.2,420.0 L444.0,420.0 L444.9,420.0 L445.7,420.0 L446.6,420.0 L447.4,420.0 L448.3,420.0 L449.1,420.0 L449.9,420.0 L450.8,420.0 L451.6,420.0 L452.5,420.0 L453.3,420.0 L454.2,420.0 L455.0,420.0 L455.8,420.0 L456.7,420.0 L457.5,420.0 L458.4,420.0 L459.2,420.0 L460.1,420.0 L460.9,420.0 L461.7,420.0 L462.6,420.0 L463.4,420.0 L464.3,420.0 L465.1,420.0 L466.0,420.0 L466.8,420.0 L467.6,420.0 L468.5,420.0 L469.3,420.0 L470.2,420.0 L471.0,420.0 L471.9,420.0 L472.7,420.0 L473.5,420.0 L474.4,420.0 L475.2,420.0 L476.1,420.0 L476.9,420.0 L477.8,420.0 L478.6,420.0 L479.4,420.0 L480.3,420.0 L481.1,420.0 L482.0,420.0 L482.8,420.0 L483.7,420.0 L484.5,420.0 L485.3,420.0 L486.2,420.0 L487.0,420.0 L487.9,420.0 L488.7,420.0 L489.6,420.0 L490.4,420.0 L491.2,420.0 L492.1,420.0 L492.9,420.0 L493.8,420.0 L494.6,420.0 L495.4,420.0 L496.3,420.0 L497.1,420.0 L498.0,420.0 L498.8,420.0 L499.7,420.0 L500.5,420.0 L501.3,420.0 L502.2,420.0 L503.0,420.0 L503.9,420.0 L504.7,420.0 L505.6,420.0 L506.4,420.0 L507.2,420.0 L508.1,420.0 L508.9,420.0 L509.8,420.0 L510.6,420.0 L511.5,420.0 L512.3,420.0 L513.1,420.0 L514.0,420.0 L514.8,420.0 L515.7,420.0 L516.5,420.0 L517.4,420.0 L518.2,420.0 L519.0,420.0 L519.9,420.0 L520.7,420.0 L521.6,420.0 L522.4,420.0 L523.3,420.0 L524.1,420.0 L524.9,420.0 L525.8,420.0 L526.6,420.0 L527.5,420.0 L528.3,420.0 L529.2,420.0 L530.0,420.0 L530.8,420.0 L531.7,420.0 L532.5,420.0 L533.4,420.0 L534.2,420.0 L535.1,420.0 L535.9,420.0 L536.7,420.0 L537.6,420.0 L538.4,420.0 L539.3,420.0 L540.1,420.0 L541.0,420.0 L541.8,420.0 L542.6,420.0 L543.5,420.0 L544.3,420.0 L545.2,420.0 L546.0,420.0 L546.9,420.0 L547.7,420.0 L548.5,420.0 L549.4,420.0 L550.2,420.0 L551.1,420.0 L551.9,420.0 L552.8,420.0 L553.6,420.0 L554.4,420.0 L555.3,420.0 L556.1,420.0 L557.0,420.0 L557.8,420.0 L558.7,420.0 L559.5,420.0 L560.3,420.0 L561.2,420.0 L562.0,420.0 L562.9,420.0 L563.7,420.0 L564.6,420.0 L565.4,420.0 L566.2,420.0 L567.1,420.0 L567.9,420.0 L568.8,420.0 L569.6,420.0 L570.4,420.0 L571.3,420.0 L572.1,420.0 L573.0,420.0 L573.8,420.0 L574.7,420.0 L575.5,420.0 L576.3,420.0 L577.2,420.0 L578.0,420.0 L578.9,420.0 L579.7,420.0 L580.6,420.0 L581.4,420.0 L582.2,420.0 L583.1,420.0 L583.9,420.0 L584.8,420.0 L585.6,420.0 L586.5,420.0 L587.3,420.0 L588.1,420.0 L589.0,420.0 L589.8,420.0 L590.7,420.0 L591.5,420.0 L592.4,420.0 L593.2,420.0 L594.0,420.0 L594.9,420.0 L595.7,420.0 L596.6,420.0 L597.4,420.0 L598.3,420.0 L599.1,420.0 L599.9,420.0 L600.8,420.0 L601.6,420.0 L602.5,420.0 L603.3,420.0 L604.2,420.0 L605.0,420.0 L605.8,420.0 L606.7,420.0 L607.5,420.0 L608.4,420.0 L609.2,420.0 L610.1,420.0 L610.9,420.0 L611.7,420.0 L612.6,420.0 L613.4,420.0 L614.3,420.0 L615.1,420.0 L616.0,420.0 L616.8,420.0 L617.6,420.0 L618.5,420.0 L619.3,420.0 L620.2,420.0 L621.0,420.0 L621.9,420.0 L622.7,420.0 L623.5,420.0 L624.4,420.0 L625.2,420.0 L626.1,420.0 L626.9,420.0 L627.8,420.0 L628.6,420.0 L629.4,420.0 L630.3,420.0 L631.1,420.0 L632.0,420.0 L632.8,420.0 L633.7,420.0 L634.5,420.0 L635.3,420.0 L636.2,420.0 L637.0,420.0 L637.9,420.0 L638.7,420.0 L639.6,420.0 L640.4,420.0 L641.2,420.0 L642.1,420.0 L642.9,420.0 L643.8,420.0 L644.6,420.0 L645.4,420.0 L646.3,420.0 L647.1,420.0 L648.0,420.0 L648.8,420.0 L649.7,420.0 L650.5,420.0 L651.3,420.0 L652.2,420.0 L653.0,420.0 L653.9,420.0 L654.7,420.0 L655.6,420.0 L656.4,420.0 L657.2,420.0 L658.1,420.0 L658.9,420.0 L659.8,420.0 L660.6,420.0 L661.5,420.0 L662.3,420.0 L663.1,420.0 L664.0,420.0 L664.8,420.0 L665.7,420.0 L666.5,420.0 L667.4,420.0 L668.2,420.0 L669.0,420.0 L669.9,420.0 L670.7,420.0 L671.6,420.0 L672.4,420.0 L673.3,420.0 L674.1,420.0 L674.9,420.0 L675.8,420.0 L676.6,420.0 L677.5,420.0 L678.3,420.0 L679.2,420.0 L680.0,420.0" stroke="#e377c2" stroke-width="2" fill="none" opacity="0.8"/>

<!-- Legend -->
<line x1="690" y1="70" x2="705" y2="70" stroke="#1f77b4" stroke-width="3"/>
<text x="710" y="74" class="legend">Wind Generation</text>
<line x1="690" y1="88" x2="705" y2="88" stroke="#ff7f0e" stroke-width="3"/>
<text x="710" y="92" class="legend">Hydro Generation</text>
<line x1="690" y1="106" x2="705" y2="106" stroke="#2ca02c" stroke-width="3"/>
<text x="710" y="110" class="legend">Thermal Generation</text>
<line x1="690" y1="124" x2="705" y2="124" stroke="#d62728" stroke-width="3"/>
<text x="710" y="128" class="legend">Solar Generation</text>
<line x1="690" y1="142" x2="705" y2="142" stroke="#9467bd" stroke-width="3"/>
<text x="710" y="146" class="legend">Forecast</text>
<line x1="690" y1="160" x2="705" y2="160" stroke="#8c564b" stroke-width="3"/>
<text x="710" y="164" class="legend">Total Generation</text>
<line x1="690" y1="178" x2="705" y2="178" stroke="#e377c2" stroke-width="3"/>
<text x="710" y="182" class="legend">Forecast Difference</text>

<!-- Date range -->
<text x="80" y="495" class="legend">Range: 12/18 - 01/17/2026 (713 records)</text>
</svg>