<?xml version="1.0" encoding="UTF-8"?>
<svg width="800" height="500" xmlns="http://www.w3.org/2000/svg">
<style>
.axis-line { stroke: #333; stroke-width: 1; }
.grid-line { stroke: #ddd; stroke-width: 0.5; }
.title { font: 16px Arial; text-anchor: middle; fill: #333; }
.axis-label { font: 12px Arial; text-anchor: middle; fill: #666; }
.legend { font: 10px Arial; fill: #333; }
</style>

<!-- Title -->
<text x="400.0" y="25" class="title">Northwestern Energy Generation Data - Past 30 Days</text>

<!-- Plot area background -->
<rect x="80" y="50" width="600" height="370" fill="white" stroke="#ddd"/>

<!-- Y-axis -->
<line x1="80" y1="50" x2="80" y2="420" class="axis-line"/>
<text x="30" y="235.0" class="axis-label" transform="rotate(-90, 30, 235.0)">Generation (MW)</text>

<!-- X-axis -->
<line x1="80" y1="420" x2="680" y2="420" class="axis-line"/>
<text x="380.0" y="480" class="axis-label">Time</text>
<line x1="80" y1="420.0" x2="680" y2="420.0" class="grid-line"/>
<text x="70" y="425.0" class="legend" text-anchor="end">0</text>
<line x1="80" y1="327.5" x2="680" y2="327.5" class="grid-line"/>
<text x="70" y="332.5" class="legend" text-anchor="end">303</text>
<line x1="80" y1="235.0" x2="680" y2="235.0" class="grid-line"/>
<text x="70" y="240.0" class="legend" text-anchor="end">606</text>
<line x1="80" y1="142.5" x2="680" y2="142.5" class="grid-line"/>
<text x="70" y="147.5" class="legend" text-anchor="end">910</text>
<line x1="80" y1="50.0" x2="680" y2="50.0" class="grid-line"/>
<text x="70" y="55.0" class="legend" text-anchor="end">1213</text>
<!-- Wind Generation -->
<path d="M80.0,411.8 L82.3,410.5 L84.5,416.3 L86.8,398.9 L89.1,403.8 L91.4,397.7 L128.6,416.3 L130.9,413.0 L133.2,409.9 L135.4,405.1 L137.7,401.1 L140.0,369.0 L142.3,373.6 L144.5,372.1 L146.8,381.9 L149.1,403.2 L151.3,406.0 L153.6,407.5 L155.9,417.6 L158.1,409.9 L160.4,403.2 L162.7,398.9 L165.0,400.5 L167.2,413.9 L169.5,419.4 L171.8,420.0 L174.0,418.2 L176.3,416.3 L178.6,417.6 L180.9,415.1 L183.1,407.8 L185.4,412.4 L187.7,377.3 L189.9,394.7 L192.2,410.5 L194.5,378.2 L196.7,406.6 L199.0,385.2 L201.3,389.8 L203.6,386.4 L205.8,399.9 L208.1,412.1 L210.4,393.8 L212.6,383.4 L214.9,381.9 L217.2,387.1 L219.5,408.4 L221.7,415.4 L224.0,416.6 L226.3,412.4 L228.5,409.9 L230.8,411.8 L233.1,413.3 L235.3,414.8 L237.6,411.5 L239.9,407.5 L242.2,398.0 L244.4,390.7 L246.7,382.5 L249.0,370.0 L251.2,373.3 L253.5,378.2 L255.8,378.5 L258.1,384.9 L260.3,393.2 L262.6,393.2 L264.9,373.9 L267.1,390.4 L269.4,402.3 L271.7,403.2 L273.9,399.6 L276.2,400.8 L278.5,404.4 L280.8,401.4 L283.0,406.0 L285.3,410.2 L287.6,408.4 L289.8,407.8 L292.1,408.1 L294.4,402.9 L296.7,394.4 L298.9,391.3 L301.2,381.9 L303.5,373.3 L305.7,379.4 L308.0,373.6 L310.3,374.2 L312.5,372.7 L314.8,391.0 L317.1,408.4 L319.4,414.2 L321.6,417.9 L323.9,420.0 L326.2,420.0 L328.4,420.0 L330.7,420.0 L333.0,419.7 L335.3,416.3 L337.5,415.1 L339.8,415.4 L342.1,415.1 L344.3,415.4 L346.6,414.8 L348.9,409.9 L351.1,401.1 L353.4,387.1 L355.7,378.5 L358.0,351.7 L360.2,345.9 L362.5,352.3 L364.8,342.5 L367.0,351.0 L369.3,381.6 L371.6,384.9 L373.9,394.7 L376.1,410.2 L378.4,416.0 L380.7,417.9 L382.9,420.0 L385.2,420.0 L387.5,420.0 L389.7,415.7 L392.0,409.9 L394.3,412.4 L396.6,413.0 L398.8,414.5 L401.1,416.9 L403.4,414.5 L405.6,413.0 L407.9,401.7 L410.2,387.1 L412.5,375.8 L414.7,355.6 L417.0,362.9 L419.3,386.1 L421.5,408.1 L423.8,416.3 L426.1,418.8 L428.3,420.0 L430.6,420.0 L432.9,419.7 L435.2,419.7 L437.4,420.0 L439.7,420.0 L442.0,420.0 L444.2,416.0 L446.5,412.7 L448.8,415.1 L451.1,417.9 L453.3,416.0 L455.6,416.0 L457.9,412.1 L460.1,405.1 L462.4,390.7 L464.7,372.1 L466.9,354.4 L469.2,349.5 L471.5,353.8 L473.8,373.0 L475.6,390.7 L477.9,405.1 L480.2,411.8 L482.5,418.2 L484.7,419.7 L487.0,420.0 L489.3,419.7 L491.5,418.8 L493.8,419.1 L496.1,415.7 L498.4,407.8 L500.6,399.9 L502.9,400.8 L505.2,398.9 L507.4,404.7 L509.7,406.9 L512.0,403.5 L514.2,392.2 L516.5,373.9 L518.8,368.4 L521.1,327.3 L523.3,324.2 L525.6,320.2 L527.9,335.5 L530.1,351.0 L532.4,364.8 L534.7,380.6 L537.0,393.2 L539.2,398.0 L541.5,404.1 L543.8,402.9 L546.0,401.1 L548.3,406.9 L550.6,405.1 L552.8,399.3 L555.1,388.0 L557.4,374.2 L559.7,379.1 L561.9,393.5 L564.2,394.1 L566.5,381.6 L568.7,388.0 L571.0,393.8 L573.3,394.1 L575.6,401.7 L577.8,402.3 L580.1,406.6 L582.4,405.4 L584.6,414.2 L586.9,408.7 L589.2,414.5 L591.4,404.4 L593.7,404.1 L596.0,402.0 L598.3,398.0 L600.5,402.3 L602.8,407.5 L605.1,415.7 L607.3,417.3 L609.6,416.9 L611.9,418.5 L614.2,420.0 L616.4,417.6 L618.7,397.7 L621.0,392.5 L623.2,373.6 L625.5,374.8 L627.8,390.1 L630.0,410.2 L632.3,410.5 L634.6,411.5 L636.9,412.1 L639.1,405.4 L641.4,397.7 L643.7,391.6 L645.9,396.5 L648.2,403.2 L650.5,404.1 L652.8,406.9 L655.0,408.7 L657.3,413.6 L659.6,410.8 L661.8,411.2 L664.1,403.8 L666.4,398.9 L668.6,399.6 L670.9,395.0 L673.2,351.7 L675.5,368.7 L677.7,381.3 L680.0,373.3" stroke="#1f77b4" stroke-width="2" fill="none" opacity="0.8"/>
<!-- Hydro Generation -->
<path d="M80.0,352.6 L82.3,353.5 L84.5,353.2 L86.8,353.8 L89.1,353.8 L91.4,353.5 L128.6,352.9 L130.9,353.5 L133.2,353.2 L135.4,353.2 L137.7,353.5 L140.0,353.5 L142.3,352.6 L144.5,353.2 L146.8,352.6 L149.1,352.6 L151.3,352.6 L153.6,352.3 L155.9,352.9 L158.1,352.6 L160.4,352.6 L162.7,352.9 L165.0,352.3 L167.2,352.6 L169.5,352.6 L171.8,352.3 L174.0,352.6 L176.3,352.9 L178.6,353.5 L180.9,353.5 L183.1,352.9 L185.4,353.5 L187.7,353.2 L189.9,353.2 L192.2,353.2 L194.5,353.2 L196.7,353.2 L199.0,353.2 L201.3,353.5 L203.6,353.5 L205.8,353.2 L208.1,353.2 L210.4,353.2 L212.6,352.9 L214.9,353.5 L217.2,353.2 L219.5,353.2 L221.7,352.6 L224.0,353.2 L226.3,353.5 L228.5,353.5 L230.8,353.8 L233.1,353.8 L235.3,354.1 L237.6,354.7 L239.9,354.4 L242.2,354.4 L244.4,354.1 L246.7,354.1 L249.0,355.3 L251.2,355.0 L253.5,355.3 L255.8,355.3 L258.1,355.3 L260.3,355.6 L262.6,355.3 L264.9,355.9 L267.1,355.6 L269.4,355.3 L271.7,356.2 L273.9,356.2 L276.2,355.6 L278.5,355.9 L280.8,356.8 L283.0,356.8 L285.3,356.8 L287.6,354.1 L289.8,357.2 L292.1,356.8 L294.4,356.8 L296.7,357.5 L298.9,351.7 L301.2,358.1 L303.5,359.0 L305.7,359.0 L308.0,358.7 L310.3,359.0 L312.5,358.7 L314.8,359.0 L317.1,358.7 L319.4,359.0 L321.6,359.0 L323.9,359.0 L326.2,359.3 L328.4,359.6 L330.7,359.6 L333.0,361.1 L335.3,361.1 L337.5,360.8 L339.8,361.4 L342.1,360.5 L344.3,360.5 L346.6,360.8 L348.9,361.1 L351.1,359.3 L353.4,359.6 L355.7,359.6 L358.0,358.7 L360.2,359.0 L362.5,359.0 L364.8,358.1 L367.0,357.8 L369.3,358.1 L371.6,357.8 L373.9,357.8 L376.1,357.5 L378.4,357.5 L380.7,357.8 L382.9,357.8 L385.2,357.5 L387.5,358.1 L389.7,358.4 L392.0,358.1 L394.3,358.7 L396.6,358.1 L398.8,358.4 L401.1,358.1 L403.4,358.7 L405.6,358.4 L407.9,358.4 L410.2,358.7 L412.5,357.2 L414.7,357.2 L417.0,356.5 L419.3,356.2 L421.5,356.2 L423.8,356.2 L426.1,356.5 L428.3,356.2 L430.6,356.2 L432.9,356.2 L435.2,356.2 L437.4,356.8 L439.7,359.3 L442.0,358.4 L444.2,359.0 L446.5,358.7 L448.8,359.3 L451.1,359.0 L453.3,359.0 L455.6,359.3 L457.9,359.9 L460.1,359.6 L462.4,359.6 L464.7,359.3 L466.9,359.0 L469.2,358.1 L471.5,357.8 L473.8,358.1 L475.6,357.8 L477.9,358.4 L480.2,358.1 L482.5,357.8 L484.7,356.8 L487.0,357.2 L489.3,356.5 L491.5,356.2 L493.8,356.2 L496.1,356.5 L498.4,356.5 L500.6,356.2 L502.9,355.9 L505.2,356.2 L507.4,356.5 L509.7,355.9 L512.0,356.2 L514.2,356.2 L516.5,356.5 L518.8,356.5 L521.1,356.8 L523.3,356.5 L525.6,356.5 L527.9,356.2 L530.1,356.8 L532.4,356.2 L534.7,356.5 L537.0,356.2 L539.2,356.2 L541.5,356.8 L543.8,356.5 L546.0,356.8 L548.3,356.2 L550.6,357.2 L552.8,355.9 L555.1,356.8 L557.4,356.2 L559.7,356.8 L561.9,356.5 L564.2,356.2 L566.5,356.5 L568.7,356.8 L571.0,356.5 L573.3,356.5 L575.6,356.5 L577.8,357.2 L580.1,356.5 L582.4,356.8 L584.6,356.8 L586.9,356.5 L589.2,357.2 L591.4,356.5 L593.7,357.2 L596.0,356.8 L598.3,357.2 L600.5,357.5 L602.8,357.5 L605.1,357.2 L607.3,356.8 L609.6,356.2 L611.9,356.5 L614.2,356.8 L616.4,356.8 L618.7,356.5 L621.0,356.5 L623.2,354.7 L625.5,355.0 L627.8,354.4 L630.0,354.1 L632.3,354.1 L634.6,353.8 L636.9,353.5 L639.1,353.5 L641.4,353.5 L643.7,352.9 L645.9,352.9 L648.2,353.2 L650.5,352.6 L652.8,352.3 L655.0,352.6 L657.3,352.9 L659.6,352.9 L661.8,352.3 L664.1,352.6 L666.4,353.2 L668.6,353.5 L670.9,353.5 L673.2,353.5 L675.5,353.5 L677.7,353.5 L680.0,353.2" stroke="#ff7f0e" stroke-width="2" fill="none" opacity="0.8"/>
<!-- Thermal Generation -->
<path d="M80.0,314.7 L82.3,315.0 L84.5,313.8 L86.8,316.3 L89.1,328.8 L91.4,338.8 L128.6,332.4 L130.9,333.0 L133.2,338.8 L135.4,328.8 L137.7,329.1 L140.0,328.5 L142.3,326.3 L144.5,324.8 L146.8,321.5 L149.1,317.2 L151.3,321.2 L153.6,320.5 L155.9,319.9 L158.1,319.0 L160.4,320.5 L162.7,321.5 L165.0,337.9 L167.2,338.2 L169.5,338.2 L171.8,339.5 L174.0,340.7 L176.3,341.6 L178.6,326.6 L180.9,327.9 L183.1,327.9 L185.4,328.2 L187.7,328.5 L189.9,328.5 L192.2,327.9 L194.5,326.9 L196.7,326.3 L199.0,325.1 L201.3,321.8 L203.6,322.1 L205.8,321.2 L208.1,320.5 L210.4,320.2 L212.6,322.4 L214.9,320.5 L217.2,320.8 L219.5,321.8 L221.7,322.4 L224.0,320.5 L226.3,323.3 L228.5,322.7 L230.8,323.6 L233.1,323.9 L235.3,324.5 L237.6,324.2 L239.9,323.9 L242.2,324.2 L244.4,324.5 L246.7,323.0 L249.0,323.0 L251.2,323.3 L253.5,325.7 L255.8,322.1 L258.1,321.2 L260.3,321.5 L262.6,320.5 L264.9,320.5 L267.1,320.8 L269.4,323.6 L271.7,319.9 L273.9,320.8 L276.2,337.9 L278.5,339.5 L280.8,333.0 L283.0,322.1 L285.3,323.3 L287.6,323.0 L289.8,323.6 L292.1,323.9 L294.4,327.3 L296.7,326.3 L298.9,323.3 L301.2,323.3 L303.5,322.4 L305.7,322.4 L308.0,321.8 L310.3,321.8 L312.5,321.8 L314.8,320.5 L317.1,319.6 L319.4,319.3 L321.6,319.6 L323.9,322.1 L326.2,319.3 L328.4,330.6 L330.7,328.2 L333.0,331.2 L335.3,338.8 L337.5,322.4 L339.8,323.3 L342.1,323.6 L344.3,324.2 L346.6,323.6 L348.9,323.3 L351.1,309.9 L353.4,308.9 L355.7,311.1 L358.0,307.1 L360.2,307.4 L362.5,308.3 L364.8,307.4 L367.0,306.5 L369.3,305.6 L371.6,305.9 L373.9,305.0 L376.1,304.4 L378.4,304.1 L380.7,304.7 L382.9,307.7 L385.2,336.7 L387.5,338.2 L389.7,338.8 L392.0,338.5 L394.3,341.0 L396.6,313.5 L398.8,308.3 L401.1,306.8 L403.4,310.5 L405.6,308.9 L407.9,304.4 L410.2,303.8 L412.5,300.4 L414.7,298.3 L417.0,311.4 L419.3,304.7 L421.5,306.5 L423.8,296.7 L426.1,319.6 L428.3,323.0 L430.6,322.4 L432.9,295.8 L435.2,298.6 L437.4,298.6 L439.7,323.3 L442.0,309.9 L444.2,311.1 L446.5,312.6 L448.8,313.2 L451.1,309.3 L453.3,307.7 L455.6,307.4 L457.9,306.5 L460.1,307.1 L462.4,307.1 L464.7,305.3 L466.9,305.0 L469.2,301.6 L471.5,303.8 L473.8,298.3 L475.6,297.4 L477.9,305.9 L480.2,296.1 L482.5,297.4 L484.7,299.8 L487.0,300.7 L489.3,297.4 L491.5,297.7 L493.8,300.7 L496.1,301.0 L498.4,307.7 L500.6,321.2 L502.9,307.4 L505.2,320.2 L507.4,313.8 L509.7,313.2 L512.0,311.4 L514.2,312.6 L516.5,310.8 L518.8,311.4 L521.1,308.6 L523.3,306.2 L525.6,305.3 L527.9,301.9 L530.1,340.7 L532.4,340.1 L534.7,328.2 L537.0,327.6 L539.2,326.9 L541.5,326.6 L543.8,312.3 L546.0,327.3 L548.3,332.4 L550.6,327.6 L552.8,327.9 L555.1,328.5 L557.4,331.8 L559.7,326.9 L561.9,325.4 L564.2,305.0 L566.5,305.6 L568.7,305.9 L571.0,311.1 L573.3,308.0 L575.6,312.6 L577.8,305.9 L580.1,304.7 L582.4,303.5 L584.6,303.5 L586.9,329.1 L589.2,323.3 L591.4,324.2 L593.7,340.7 L596.0,340.4 L598.3,329.1 L600.5,327.3 L602.8,327.6 L605.1,331.2 L607.3,331.5 L609.6,326.9 L611.9,325.7 L614.2,326.0 L616.4,329.1 L618.7,319.9 L621.0,319.6 L623.2,316.3 L625.5,313.8 L627.8,313.5 L630.0,312.3 L632.3,310.8 L634.6,310.8 L636.9,310.8 L639.1,308.3 L641.4,306.5 L643.7,336.1 L645.9,335.2 L648.2,334.9 L650.5,334.0 L652.8,325.7 L655.0,325.4 L657.3,328.2 L659.6,327.9 L661.8,329.7 L664.1,335.2 L666.4,335.8 L668.6,345.3 L670.9,345.9 L673.2,345.3 L675.5,345.3 L677.7,343.7 L680.0,327.6" stroke="#2ca02c" stroke-width="2" fill="none" opacity="0.8"/>
<!-- Solar Generation -->
<path d="M80.0,392.2 L82.3,411.2 L84.5,420.0 L86.8,420.0 L89.1,420.0 L91.4,420.0 L128.6,393.5 L130.9,382.2 L133.2,384.6 L135.4,399.3 L137.7,418.2 L140.0,420.0 L142.3,420.0 L144.5,420.0 L146.8,420.0 L149.1,420.0 L151.3,420.0 L153.6,420.0 L155.9,420.0 L158.1,420.0 L160.4,420.0 L162.7,418.2 L165.0,404.4 L167.2,380.3 L169.5,378.2 L171.8,387.4 L174.0,379.7 L176.3,384.6 L178.6,388.3 L180.9,398.3 L183.1,401.1 L185.4,400.5 L187.7,408.1 L189.9,415.7 L192.2,418.2 L194.5,420.0 L196.7,420.0 L199.0,420.0 L201.3,420.0 L203.6,420.0 L205.8,420.0 L208.1,420.0 L210.4,420.0 L212.6,420.0 L214.9,420.0 L217.2,418.2 L219.5,406.0 L221.7,387.7 L224.0,378.2 L226.3,380.9 L228.5,378.8 L230.8,380.0 L233.1,377.3 L235.3,377.0 L237.6,377.0 L239.9,377.3 L242.2,389.8 L244.4,402.9 L246.7,418.5 L249.0,420.0 L251.2,420.0 L253.5,420.0 L255.8,420.0 L258.1,420.0 L260.3,420.0 L262.6,420.0 L264.9,420.0 L267.1,420.0 L269.4,420.0 L271.7,419.4 L273.9,409.0 L276.2,393.8 L278.5,385.5 L280.8,379.7 L283.0,384.6 L285.3,377.3 L287.6,383.1 L289.8,375.5 L292.1,375.8 L294.4,376.7 L296.7,380.6 L298.9,400.2 L301.2,418.5 L303.5,420.0 L305.7,420.0 L308.0,420.0 L310.3,420.0 L312.5,420.0 L314.8,420.0 L317.1,420.0 L319.4,420.0 L321.6,420.0 L323.9,420.0 L326.2,418.5 L328.4,397.1 L330.7,379.4 L333.0,376.1 L335.3,375.8 L337.5,375.8 L339.8,376.1 L342.1,375.5 L344.3,376.4 L346.6,377.3 L348.9,376.7 L351.1,386.1 L353.4,408.1 L355.7,418.5 L358.0,420.0 L360.2,420.0 L362.5,420.0 L364.8,420.0 L367.0,420.0 L369.3,420.0 L371.6,420.0 L373.9,420.0 L376.1,420.0 L378.4,420.0 L380.7,419.1 L382.9,399.6 L385.2,378.8 L387.5,376.4 L389.7,375.5 L392.0,375.8 L394.3,380.0 L396.6,377.6 L398.8,380.0 L401.1,379.4 L403.4,382.2 L405.6,385.2 L407.9,401.7 L410.2,419.1 L412.5,420.0 L414.7,420.0 L417.0,420.0 L419.3,420.0 L421.5,420.0 L423.8,420.0 L426.1,420.0 L428.3,420.0 L430.6,420.0 L432.9,420.0 L435.2,418.5 L437.4,402.0 L439.7,381.3 L442.0,377.9 L444.2,378.2 L446.5,376.1 L448.8,379.7 L451.1,376.4 L453.3,387.4 L455.6,382.2 L457.9,392.8 L460.1,398.0 L462.4,410.2 L464.7,419.4 L466.9,420.0 L469.2,420.0 L471.5,420.0 L473.8,420.0 L475.6,420.0 L477.9,420.0 L480.2,420.0 L482.5,420.0 L484.7,420.0 L487.0,420.0 L489.3,419.7 L491.5,412.7 L493.8,398.3 L496.1,406.3 L498.4,394.4 L500.6,395.3 L502.9,390.1 L505.2,393.8 L507.4,382.8 L509.7,379.4 L512.0,391.6 L514.2,413.0 L516.5,412.4 L518.8,419.7 L521.1,420.0 L523.3,420.0 L525.6,420.0 L527.9,420.0 L530.1,420.0 L532.4,420.0 L534.7,420.0 L537.0,420.0 L539.2,420.0 L541.5,420.0 L543.8,419.7 L546.0,416.0 L548.3,415.1 L550.6,414.2 L552.8,412.7 L555.1,409.3 L557.4,406.3 L559.7,411.2 L561.9,404.1 L564.2,400.5 L566.5,407.5 L568.7,411.8 L571.0,418.5 L573.3,420.0 L575.6,420.0 L577.8,420.0 L580.1,420.0 L582.4,420.0 L584.6,420.0 L586.9,420.0 L589.2,420.0 L591.4,420.0 L593.7,420.0 L596.0,420.0 L598.3,420.0 L600.5,417.9 L602.8,412.4 L605.1,411.5 L607.3,404.4 L609.6,402.3 L611.9,398.0 L614.2,397.1 L616.4,399.9 L618.7,402.3 L621.0,406.6 L623.2,403.2 L625.5,415.7 L627.8,419.4 L630.0,420.0 L632.3,420.0 L634.6,420.0 L636.9,420.0 L639.1,420.0 L641.4,420.0 L643.7,420.0 L645.9,420.0 L648.2,420.0 L650.5,420.0 L652.8,420.0 L655.0,413.6 L657.3,400.8 L659.6,393.2 L661.8,388.3 L664.1,385.2 L666.4,378.5 L668.6,395.3 L670.9,389.2 L673.2,399.9 L675.5,406.0 L677.7,381.6 L680.0,411.2" stroke="#d62728" stroke-width="2" fill="none" opacity="0.8"/>
<!-- Forecast -->
<path d="M80.0,100.6 L82.3,112.8 L84.5,125.3 L86.8,135.0 L89.1,152.4 L91.4,178.7 L128.6,74.9 L130.9,67.6 L133.2,72.2 L135.4,82.6 L137.7,97.8 L140.0,111.6 L142.3,122.5 L144.5,151.2 L146.8,187.8 L149.1,207.7 L151.3,219.2 L153.6,230.2 L155.9,234.8 L158.1,234.2 L160.4,227.5 L162.7,207.4 L165.0,180.5 L167.2,154.9 L169.5,136.6 L171.8,123.1 L174.0,109.7 L176.3,100.9 L178.6,92.6 L180.9,86.2 L183.1,78.6 L185.4,78.6 L187.7,83.2 L189.9,93.9 L192.2,107.3 L194.5,122.5 L196.7,140.2 L199.0,158.2 L201.3,235.7 L203.6,213.8 L205.8,244.6 L208.1,244.9 L210.4,242.4 L212.6,240.0 L214.9,239.1 L217.2,240.9 L219.5,207.4 L221.7,199.7 L224.0,187.8 L226.3,177.5 L228.5,147.2 L230.8,144.2 L233.1,145.1 L235.3,146.0 L237.6,149.1 L239.9,162.2 L242.2,173.2 L244.4,173.8 L246.7,173.8 L249.0,236.6 L251.2,240.3 L253.5,409.9 L255.8,223.2 L258.1,224.7 L260.3,237.3 L262.6,245.8 L264.9,248.8 L267.1,246.7 L269.4,236.3 L271.7,216.2 L273.9,192.4 L276.2,170.1 L278.5,159.8 L280.8,154.9 L283.0,148.8 L285.3,146.3 L287.6,140.2 L289.8,132.6 L292.1,123.1 L294.4,115.8 L296.7,121.6 L298.9,131.7 L301.2,181.1 L303.5,186.3 L305.7,192.7 L308.0,193.6 L310.3,218.6 L312.5,235.4 L314.8,238.8 L317.1,240.0 L319.4,241.5 L321.6,243.4 L323.9,245.8 L326.2,247.9 L328.4,242.1 L330.7,230.5 L333.0,216.2 L335.3,207.4 L337.5,204.9 L339.8,204.0 L342.1,202.8 L344.3,202.8 L346.6,202.2 L348.9,172.9 L351.1,169.5 L353.4,167.1 L355.7,170.7 L358.0,182.0 L360.2,184.2 L362.5,209.8 L364.8,219.2 L367.0,225.4 L369.3,218.0 L371.6,226.0 L373.9,233.9 L376.1,240.0 L378.4,251.0 L380.7,247.6 L382.9,235.4 L385.2,219.2 L387.5,203.1 L389.7,192.1 L392.0,184.5 L394.3,197.0 L396.6,194.8 L398.8,193.9 L401.1,163.4 L403.4,161.9 L405.6,159.5 L407.9,157.9 L410.2,170.4 L412.5,175.6 L414.7,177.5 L417.0,205.8 L419.3,228.7 L421.5,225.0 L423.8,236.0 L426.1,244.3 L428.3,248.2 L430.6,247.6 L432.9,237.6 L435.2,217.1 L437.4,192.7 L439.7,169.2 L442.0,156.7 L444.2,149.7 L446.5,141.8 L448.8,138.4 L451.1,129.9 L453.3,119.8 L455.6,142.1 L457.9,141.5 L460.1,139.3 L462.4,137.2 L464.7,144.2 L466.9,154.9 L469.2,120.7 L471.5,132.0 L473.8,194.8 L475.6,220.8 L477.9,235.4 L480.2,244.3 L482.5,249.5 L484.7,248.8 L487.0,240.0 L489.3,220.8 L491.5,196.1 L493.8,171.7 L496.1,156.1 L498.4,147.2 L500.6,138.7 L502.9,131.1 L505.2,121.9 L507.4,112.2 L509.7,100.9 L512.0,92.0 L514.2,94.8 L516.5,104.5 L518.8,118.6 L521.1,133.2 L523.3,142.1 L525.6,162.5 L527.9,170.7 L530.1,208.3 L532.4,228.1 L534.7,237.6 L537.0,243.4 L539.2,242.7 L541.5,234.8 L543.8,217.4 L546.0,194.8 L548.3,170.7 L550.6,156.1 L552.8,149.4 L555.1,142.7 L557.4,139.0 L559.7,132.9 L561.9,124.7 L564.2,118.0 L566.5,115.2 L568.7,119.8 L571.0,121.3 L573.3,127.4 L575.6,144.5 L577.8,150.3 L580.1,166.8 L582.4,198.8 L584.6,215.6 L586.9,226.9 L589.2,235.4 L591.4,240.3 L593.7,238.8 L596.0,230.5 L598.3,215.3 L600.5,193.3 L602.8,171.0 L605.1,159.1 L607.3,155.5 L609.6,151.2 L611.9,147.9 L614.2,146.6 L616.4,144.2 L618.7,139.9 L621.0,137.8 L623.2,142.1 L625.5,149.7 L627.8,157.6 L630.0,162.8 L632.3,163.7 L634.6,177.8 L636.9,205.5 L639.1,223.2 L641.4,234.2 L643.7,241.5 L645.9,244.9 L648.2,244.0 L650.5,234.2 L652.8,218.0 L655.0,195.5 L657.3,172.9 L659.6,162.2 L661.8,158.8 L664.1,154.9 L666.4,151.5 L668.6,151.2 L670.9,148.8 L673.2,143.9 L675.5,140.8 L677.7,144.8 L680.0,146.0" stroke="#9467bd" stroke-width="2" fill="none" opacity="0.8"/>
<!-- Total Generation -->
<path d="M80.0,211.3 L82.3,230.2 L84.5,243.4 L86.8,229.0 L89.1,246.4 L91.4,250.1 L128.6,235.1 L130.9,221.7 L133.2,226.6 L135.4,226.3 L137.7,241.8 L140.0,211.0 L142.3,212.5 L144.5,210.4 L146.8,216.2 L149.1,233.3 L151.3,240.0 L153.6,240.6 L155.9,250.7 L158.1,241.8 L160.4,236.6 L162.7,231.5 L165.0,235.1 L167.2,225.0 L169.5,228.4 L171.8,239.4 L174.0,231.1 L176.3,235.4 L178.6,226.0 L180.9,234.8 L183.1,229.6 L185.4,234.5 L187.7,207.0 L189.9,232.1 L192.2,249.8 L194.5,218.3 L196.7,246.1 L199.0,223.5 L201.3,225.0 L203.6,222.0 L205.8,234.2 L208.1,245.8 L210.4,227.2 L212.6,218.6 L214.9,215.9 L217.2,219.2 L219.5,229.3 L221.7,218.0 L224.0,208.6 L226.3,210.1 L228.5,204.9 L230.8,209.2 L233.1,208.3 L235.3,210.4 L237.6,207.4 L239.9,203.1 L242.2,206.4 L244.4,212.2 L246.7,218.0 L249.0,208.3 L251.2,211.6 L253.5,219.2 L255.8,215.9 L258.1,221.4 L260.3,230.2 L262.6,229.0 L264.9,210.4 L267.1,226.9 L269.4,241.2 L271.7,238.8 L273.9,225.7 L276.2,228.1 L278.5,225.4 L280.8,211.0 L283.0,209.5 L285.3,207.7 L287.6,208.6 L289.8,204.0 L292.1,204.6 L294.4,203.7 L296.7,198.8 L298.9,206.4 L301.2,221.7 L303.5,214.7 L305.7,220.8 L308.0,214.1 L310.3,215.0 L312.5,213.1 L314.8,230.5 L317.1,246.7 L319.4,252.5 L321.6,256.8 L323.9,261.0 L326.2,257.4 L328.4,247.9 L330.7,227.8 L333.0,228.1 L335.3,232.1 L337.5,214.1 L339.8,216.2 L342.1,214.7 L344.3,216.5 L346.6,216.5 L348.9,211.0 L351.1,196.4 L353.4,203.7 L355.7,207.7 L358.0,177.5 L360.2,172.3 L362.5,179.6 L364.8,168.0 L367.0,175.3 L369.3,205.2 L371.6,208.6 L373.9,217.4 L376.1,232.1 L378.4,237.6 L380.7,239.4 L382.9,225.4 L385.2,233.6 L387.5,233.6 L389.7,228.4 L392.0,222.3 L394.3,232.1 L396.6,202.2 L398.8,201.2 L401.1,201.2 L403.4,205.8 L405.6,205.5 L407.9,206.1 L410.2,208.6 L412.5,193.3 L414.7,171.0 L417.0,190.9 L419.3,207.0 L421.5,230.8 L423.8,229.3 L426.1,254.9 L428.3,259.8 L430.6,259.2 L432.9,231.8 L435.2,233.0 L437.4,217.4 L439.7,224.1 L442.0,206.7 L444.2,204.3 L446.5,200.0 L448.8,207.4 L451.1,202.5 L453.3,210.1 L455.6,204.9 L457.9,211.3 L460.1,209.8 L462.4,207.7 L464.7,196.1 L466.9,178.7 L469.2,169.5 L471.5,175.6 L473.8,189.7 L475.6,206.1 L477.9,229.3 L480.2,226.0 L482.5,233.3 L484.7,236.3 L487.0,237.9 L489.3,233.3 L491.5,225.4 L493.8,214.4 L496.1,219.6 L498.4,206.4 L500.6,212.5 L502.9,194.2 L505.2,209.2 L507.4,197.9 L509.7,195.5 L512.0,202.8 L514.2,214.1 L516.5,193.6 L518.8,196.1 L521.1,153.0 L523.3,147.2 L525.6,142.4 L527.9,154.0 L530.1,208.9 L532.4,221.1 L534.7,225.4 L537.0,236.9 L539.2,241.2 L541.5,247.6 L543.8,231.5 L546.0,241.2 L548.3,250.7 L550.6,244.0 L552.8,235.7 L555.1,222.6 L557.4,208.6 L559.7,214.1 L561.9,219.6 L564.2,195.8 L566.5,191.2 L568.7,202.5 L571.0,219.9 L573.3,218.6 L575.6,231.1 L577.8,225.7 L580.1,228.1 L582.4,226.0 L584.6,234.8 L586.9,254.6 L589.2,255.3 L591.4,245.5 L593.7,262.0 L596.0,259.2 L598.3,244.3 L600.5,244.9 L602.8,244.9 L605.1,255.6 L607.3,250.1 L609.6,242.4 L611.9,238.8 L614.2,240.0 L616.4,243.4 L618.7,216.5 L621.0,215.3 L623.2,187.8 L625.5,199.4 L627.8,217.4 L630.0,236.6 L632.3,235.4 L634.6,236.0 L636.9,236.3 L639.1,227.2 L641.4,217.7 L643.7,240.9 L645.9,244.6 L648.2,251.3 L650.5,250.7 L652.8,244.9 L655.0,240.3 L657.3,235.4 L659.6,224.7 L661.8,221.4 L664.1,216.8 L666.4,206.4 L668.6,233.6 L670.9,223.5 L673.2,190.3 L675.5,213.5 L677.7,200.0 L680.0,205.2" stroke="#8c564b" stroke-width="2" fill="none" opacity="0.8"/>
<!-- Forecast Difference -->
<path d="M82.3,420.0 L84.5,420.0 L86.8,420.0 L89.1,420.0 L91.4,420.0 L130.9,420.0 L133.2,420.0 L135.4,420.0 L137.7,420.0 L140.0,420.0 L142.3,420.0 L144.5,420.0 L146.8,420.0 L149.1,420.0 L151.3,420.0 L153.6,420.0 L155.9,420.0 L158.1,420.0 L160.4,420.0 L162.7,420.0 L165.0,420.0 L167.2,420.0 L169.5,420.0 L171.8,420.0 L174.0,420.0 L176.3,420.0 L178.6,420.0 L180.9,420.0 L183.1,420.0 L185.4,420.0 L187.7,420.0 L189.9,420.0 L192.2,420.0 L194.5,420.0 L196.7,420.0 L199.0,420.0 L201.3,420.0 L203.6,420.0 L205.8,420.0 L208.1,420.0 L210.4,420.0 L212.6,420.0 L214.9,420.0 L217.2,420.0 L219.5,420.0 L221.7,420.0 L224.0,420.0 L226.3,420.0 L228.5,420.0 L230.8,420.0 L233.1,420.0 L235.3,420.0 L237.6,420.0 L239.9,420.0 L242.2,420.0 L244.4,420.0 L246.7,420.0 L249.0,420.0 L251.2,420.0 L253.5,420.0 L255.8,420.0 L258.1,420.0 L260.3,420.0 L262.6,420.0 L264.9,420.0 L267.1,420.0 L269.4,420.0 L271.7,420.0 L273.9,420.0 L276.2,420.0 L278.5,420.0 L280.8,420.0 L283.0,420.0 L285.3,420.0 L287.6,420.0 L289.8,420.0 L292.1,420.0 L294.4,420.0 L296.7,420.0 L298.9,420.0 L301.2,420.0 L303.5,420.0 L305.7,420.0 L308.0,420.0 L310.3,420.0 L312.5,420.0 L314.8,420.0 L317.1,420.0 L319.4,420.0 L321.6,420.0 L323.9,420.0 L326.2,420.0 L328.4,420.0 L330.7,420.0 L333.0,420.0 L335.3,420.0 L337.5,420.0 L339.8,420.0 L342.1,420.0 L344.3,420.0 L346.6,420.0 L348.9,420.0 L351.1,420.0 L353.4,420.0 L355.7,420.0 L358.0,420.0 L360.2,420.0 L362.5,420.0 L364.8,420.0 L367.0,420.0 L369.3,420.0 L371.6,420.0 L373.9,420.0 L376.1,420.0 L378.4,420.0 L380.7,420.0 L382.9,420.0 L385.2,420.0 L387.5,420.0 L389.7,420.0 L392.0,420.0 L394.3,420.0 L396.6,420.0 L398.8,420.0 L401.1,420.0 L403.4,420.0 L405.6,420.0 L407.9,420.0 L410.2,420.0 L412.5,420.0 L414.7,420.0 L417.0,420.0 L419.3,420.0 L421.5,420.0 L423.8,420.0 L426.1,420.0 L428.3,420.0 L430.6,420.0 L432.9,420.0 L435.2,420.0 L437.4,420.0 L439.7,420.0 L442.0,420.0 L444.2,420.0 L446.5,420.0 L448.8,420.0 L451.1,420.0 L453.3,420.0 L455.6,420.0 L457.9,420.0 L460.1,420.0 L462.4,420.0 L464.7,420.0 L466.9,420.0 L469.2,420.0 L471.5,420.0 L473.8,420.0 L475.6,420.0 L477.9,420.0 L480.2,420.0 L482.5,420.0 L484.7,420.0 L487.0,420.0 L489.3,420.0 L491.5,420.0 L493.8,420.0 L496.1,420.0 L498.4,420.0 L500.6,420.0 L502.9,420.0 L505.2,420.0 L507.4,420.0 L509.7,420.0 L512.0,420.0 L514.2,420.0 L516.5,420.0 L518.8,420.0 L521.1,420.0 L523.3,420.0 L525.6,420.0 L527.9,420.0 L530.1,420.0 L532.4,420.0 L534.7,420.0 L537.0,420.0 L539.2,420.0 L541.5,420.0 L543.8,420.0 L546.0,420.0 L548.3,420.0 L550.6,420.0 L552.8,420.0 L555.1,420.0 L557.4,420.0 L559.7,420.0 L561.9,420.0 L564.2,420.0 L566.5,420.0 L568.7,420.0 L571.0,420.0 L573.3,420.0 L575.6,420.0 L577.8,420.0 L580.1,420.0 L582.4,420.0 L584.6,420.0 L586.9,420.0 L589.2,420.0 L591.4,420.0 L593.7,420.0 L596.0,420.0 L598.3,420.0 L600.5,420.0 L602.8,420.0 L605.1,420.0 L607.3,420.0 L609.6,420.0 L611.9,420.0 L614.2,420.0 L616.4,420.0 L618.7,420.0 L621.0,420.0 L623.2,420.0 L625.5,420.0 L627.8,420.0 L630.0,420.0 L632.3,420.0 L634.6,420.0 L636.9,420.0 L639.1,420.0 L641.4,420.0 L643.7,420.0 L645.9,420.0 L648.2,420.0 L650.5,420.0 L652.8,420.0 L655.0,420.0 L657.3,420.0 L659.6,420.0 L661.8,420.0 L664.1,420.0 L666.4,420.0 L668.6,420.0 L670.9,420.0 L673.2,420.0 L675.5,420.0 L677.7,420.0 L680.0,420.0" stroke="#e377c2" stroke-width="2" fill="none" opacity="0.8"/>

<!-- Legend -->
<line x1="690" y1="70" x2="705" y2="70" stroke="#1f77b4" stroke-width="3"/>
<text x="710" y="74" class="legend">Wind Generation</text>
<line x1="690" y1="88" x2="705" y2="88" stroke="#ff7f0e" stroke-width="3"/>
<text x="710" y="92" class="legend">Hydro Generation</text>
<line x1="690" y1="106" x2="705" y2="106" stroke="#2ca02c" stroke-width="3"/>
<text x="710" y="110" class="legend">Thermal Generation</text>
<line x1="690" y1="124" x2="705" y2="124" stroke="#d62728" stroke-width="3"/>
<text x="710" y="128" class="legend">Solar Generation</text>
<line x1="690" y1="142" x2="705" y2="142" stroke="#9467bd" stroke-width="3"/>
<text x="710" y="146" class="legend">Forecast</text>
<line x1="690" y1="160" x2="705" y2="160" stroke="#8c564b" stroke-width="3"/>
<text x="710" y="164" class="legend">Total Generation</text>
<line x1="690" y1="178" x2="705" y2="178" stroke="#e377c2" stroke-width="3"/>
<text x="710" y="182" class="legend">Forecast Difference</text>

<!-- Date range -->
<text x="80" y="495" class="legend">Range: 08/18 - 08/29/2025 (250 records)</text>
</svg>