<?xml version="1.0" encoding="UTF-8"?>
<svg width="800" height="500" xmlns="http://www.w3.org/2000/svg">
<style>
.axis-line { stroke: #333; stroke-width: 1; }
.grid-line { stroke: #ddd; stroke-width: 0.5; }
.title { font: 16px Arial; text-anchor: middle; fill: #333; }
.axis-label { font: 12px Arial; text-anchor: middle; fill: #666; }
.legend { font: 10px Arial; fill: #333; }
</style>

<!-- Title -->
<text x="400.0" y="25" class="title">Northwestern Energy Generation Data - Past 30 Days</text>

<!-- Plot area background -->
<rect x="80" y="50" width="600" height="370" fill="white" stroke="#ddd"/>

<!-- Y-axis -->
<line x1="80" y1="50" x2="80" y2="420" class="axis-line"/>
<text x="30" y="235.0" class="axis-label" transform="rotate(-90, 30, 235.0)">Generation (MW)</text>

<!-- X-axis -->
<line x1="80" y1="420" x2="680" y2="420" class="axis-line"/>
<text x="380.0" y="480" class="axis-label">Time</text>
<line x1="80" y1="420.0" x2="680" y2="420.0" class="grid-line"/>
<text x="70" y="425.0" class="legend" text-anchor="end">0</text>
<line x1="80" y1="327.5" x2="680" y2="327.5" class="grid-line"/>
<text x="70" y="332.5" class="legend" text-anchor="end">313</text>
<line x1="80" y1="235.0" x2="680" y2="235.0" class="grid-line"/>
<text x="70" y="240.0" class="legend" text-anchor="end">625</text>
<line x1="80" y1="142.5" x2="680" y2="142.5" class="grid-line"/>
<text x="70" y="147.5" class="legend" text-anchor="end">938</text>
<line x1="80" y1="50.0" x2="680" y2="50.0" class="grid-line"/>
<text x="70" y="55.0" class="legend" text-anchor="end">1251</text>
<!-- Wind Generation -->
<path d="M80.0,415.6 L80.8,415.0 L81.7,417.3 L82.5,416.7 L83.4,417.3 L84.2,417.9 L85.1,418.8 L85.9,415.6 L86.7,414.1 L87.6,414.1 L88.4,410.8 L89.3,408.2 L90.1,407.3 L91.0,406.7 L91.8,406.4 L92.6,403.1 L93.5,400.2 L94.3,390.1 L95.2,385.4 L96.0,372.4 L96.9,372.4 L97.7,373.8 L98.5,386.3 L99.4,393.4 L100.2,392.2 L101.1,388.6 L101.9,388.6 L102.8,376.5 L103.6,367.3 L104.4,387.2 L105.3,371.5 L106.1,383.6 L107.0,386.6 L107.8,399.3 L108.7,395.1 L109.5,393.1 L110.3,389.5 L111.2,407.3 L112.0,404.9 L112.9,392.2 L113.7,387.5 L114.6,379.2 L115.4,378.3 L116.2,375.6 L117.1,380.9 L117.9,383.9 L118.8,397.2 L119.6,403.4 L120.4,403.7 L121.3,388.3 L122.1,385.1 L123.0,382.1 L123.8,387.5 L124.7,381.5 L125.5,386.3 L126.3,377.4 L127.2,358.5 L128.0,348.7 L128.9,352.5 L129.7,341.6 L130.6,351.4 L131.4,348.7 L132.2,348.7 L133.1,352.2 L133.9,359.6 L134.8,373.5 L135.6,383.9 L136.5,391.6 L137.3,399.9 L138.1,400.2 L139.0,394.0 L139.8,408.2 L140.7,407.9 L141.5,404.0 L142.4,408.5 L143.2,411.1 L144.0,414.4 L144.9,416.7 L145.7,415.9 L146.6,414.7 L147.4,418.5 L148.3,419.1 L149.1,417.6 L149.9,415.9 L150.8,415.3 L151.6,415.3 L152.5,417.0 L153.3,415.0 L154.2,413.8 L155.0,409.9 L155.8,408.8 L156.7,407.3 L157.5,403.1 L158.4,394.6 L159.2,405.2 L160.1,400.5 L160.9,398.4 L161.7,396.6 L162.6,382.7 L163.4,368.5 L164.3,342.8 L165.1,312.0 L166.0,304.6 L166.8,301.9 L167.6,297.2 L168.5,299.0 L169.3,303.7 L170.2,300.5 L171.0,293.4 L171.9,295.1 L172.7,292.5 L173.5,289.5 L174.4,290.4 L175.2,290.4 L176.1,291.3 L176.9,290.7 L177.8,294.8 L178.6,296.3 L179.4,298.1 L180.3,302.5 L181.1,305.5 L182.0,307.6 L182.8,297.2 L183.7,296.3 L184.5,310.2 L185.3,312.6 L186.2,318.8 L187.0,328.6 L187.9,323.5 L188.7,322.4 L189.6,338.6 L190.4,319.7 L191.2,309.0 L192.1,313.5 L192.9,309.0 L193.8,297.8 L194.6,300.5 L195.4,301.7 L196.3,322.4 L197.1,333.0 L198.0,339.8 L198.8,309.6 L199.7,332.4 L200.5,350.2 L201.3,324.7 L202.2,309.9 L203.0,303.1 L203.9,308.5 L204.7,327.1 L205.6,307.6 L206.4,340.4 L207.2,328.0 L208.1,320.9 L208.9,327.1 L209.8,319.1 L210.6,314.1 L211.5,300.5 L212.3,300.8 L213.1,316.7 L214.0,328.0 L214.8,332.7 L215.7,340.7 L216.5,337.5 L217.4,343.7 L218.2,326.5 L219.0,349.0 L219.9,352.8 L220.7,362.6 L221.6,379.2 L222.4,386.6 L223.3,391.6 L224.1,395.7 L224.9,402.8 L225.8,410.5 L226.6,413.8 L227.5,405.8 L228.3,387.2 L229.2,407.9 L230.0,414.7 L230.8,415.0 L231.7,405.8 L232.5,387.2 L233.4,379.5 L234.2,386.6 L235.1,354.0 L235.9,329.5 L236.7,301.7 L237.6,301.4 L238.4,294.6 L239.3,294.6 L240.1,302.8 L241.0,301.4 L241.8,307.9 L242.6,317.9 L243.5,321.8 L244.3,330.1 L245.2,361.7 L246.0,378.3 L246.9,377.4 L247.7,390.4 L248.5,397.2 L249.4,405.2 L250.2,411.1 L251.1,410.8 L251.9,407.9 L252.8,409.1 L253.6,405.5 L254.4,397.2 L255.3,399.0 L256.1,383.9 L257.0,386.9 L257.8,375.6 L258.7,380.6 L259.5,370.0 L260.3,407.3 L261.2,415.0 L262.0,416.4 L262.9,414.4 L263.7,414.1 L264.6,406.4 L265.4,397.5 L266.2,391.6 L267.1,362.6 L267.9,364.4 L268.8,359.9 L269.6,364.4 L270.4,353.7 L271.3,346.0 L272.1,341.9 L273.0,343.7 L273.8,359.6 L274.7,344.3 L275.5,335.7 L276.3,317.3 L277.2,321.2 L278.0,349.9 L278.9,375.9 L279.7,384.5 L280.6,399.3 L281.4,400.8 L282.2,397.5 L283.1,384.8 L283.9,400.2 L284.8,399.6 L285.6,404.6 L286.5,411.1 L287.3,418.5 L288.1,418.5 L289.0,415.6 L289.8,418.2 L290.7,418.5 L291.5,418.2 L292.4,414.1 L293.2,408.8 L294.0,404.9 L294.9,407.0 L295.7,401.1 L296.6,400.2 L297.4,396.6 L298.3,390.4 L299.1,387.2 L299.9,390.7 L300.8,397.2 L301.6,402.0 L302.5,410.2 L303.3,416.2 L304.2,420.0 L305.0,419.7 L305.8,415.0 L306.7,407.0 L307.5,390.7 L308.4,380.6 L309.2,378.0 L310.1,341.9 L310.9,345.1 L311.7,350.8 L312.6,340.7 L313.4,340.1 L314.3,337.7 L315.1,333.9 L316.0,322.7 L316.8,307.6 L317.6,306.1 L318.5,300.2 L319.3,305.5 L320.2,304.9 L321.0,304.9 L321.9,313.2 L322.7,315.6 L323.5,316.4 L324.4,325.6 L325.2,331.5 L326.1,352.2 L326.9,329.8 L327.8,362.6 L328.6,359.1 L329.4,372.4 L330.3,378.9 L331.1,376.8 L332.0,378.0 L332.8,375.6 L333.7,377.1 L334.5,385.7 L335.3,392.2 L336.2,395.1 L337.0,396.3 L337.9,399.0 L338.7,405.5 L339.6,403.4 L340.4,410.8 L341.2,414.7 L342.1,415.9 L342.9,416.7 L343.8,419.4 L344.6,418.2 L345.4,417.9 L346.3,417.9 L347.1,417.9 L348.0,415.0 L348.8,413.5 L349.7,415.3 L350.5,417.0 L351.3,419.7 L352.2,420.0 L353.0,420.0 L353.9,419.4 L354.7,419.1 L355.6,417.3 L356.4,413.8 L357.2,413.2 L358.1,411.7 L358.9,398.7 L359.8,392.5 L360.6,383.0 L361.5,375.9 L362.3,362.0 L363.1,364.1 L364.0,353.7 L364.8,348.1 L365.7,342.8 L366.5,325.3 L367.4,321.8 L368.2,316.4 L369.0,317.6 L369.9,317.9 L370.7,312.0 L371.6,308.8 L372.4,309.3 L373.3,306.1 L374.1,309.0 L374.9,304.0 L375.8,307.0 L376.6,305.5 L377.5,301.7 L378.3,303.1 L379.2,309.3 L380.0,314.7 L380.8,310.8 L381.7,309.6 L382.5,310.8 L383.4,316.4 L384.2,304.9 L385.1,325.3 L385.9,325.0 L386.7,317.6 L387.6,302.8 L388.4,302.2 L389.3,316.4 L390.1,318.2 L391.0,309.9 L391.8,304.6 L392.6,314.4 L393.5,309.6 L394.3,336.3 L395.2,364.7 L396.0,379.2 L396.9,368.2 L397.7,371.2 L398.5,383.0 L399.4,362.9 L400.2,365.0 L401.1,350.5 L401.9,330.4 L402.8,340.7 L403.6,365.9 L404.4,345.1 L405.3,351.9 L406.1,360.2 L407.0,347.5 L407.8,355.8 L408.7,367.9 L409.5,371.2 L410.3,369.7 L411.2,387.5 L412.0,402.0 L412.9,402.0 L413.7,405.5 L414.6,411.1 L415.4,403.4 L416.2,399.0 L417.1,387.2 L417.9,361.4 L418.8,350.8 L419.6,345.4 L420.4,351.4 L421.3,353.4 L422.1,348.4 L423.0,345.1 L423.8,345.7 L424.7,343.7 L425.5,340.1 L426.3,334.5 L427.2,346.9 L428.0,338.3 L428.9,342.2 L429.7,346.9 L430.6,332.7 L431.4,334.5 L432.2,332.4 L433.1,331.2 L433.9,329.2 L434.8,336.6 L435.6,336.9 L436.5,337.5 L437.3,332.4 L438.1,341.0 L439.0,337.2 L439.8,337.2 L440.7,335.1 L441.5,336.6 L442.4,336.0 L443.2,311.1 L444.0,324.7 L444.9,326.8 L445.7,323.8 L446.6,334.2 L447.4,348.7 L448.3,352.8 L449.1,356.4 L449.9,341.9 L450.8,351.1 L451.6,373.8 L452.5,387.2 L453.3,384.8 L454.2,400.5 L455.0,402.8 L455.8,401.1 L456.7,382.7 L457.5,361.1 L458.4,351.1 L459.2,339.2 L460.1,335.1 L460.9,334.8 L461.7,361.1 L462.6,388.0 L463.4,372.1 L464.3,372.1 L465.1,415.3 L466.0,411.4 L466.8,410.5 L467.6,399.9 L468.5,382.1 L469.3,346.3 L470.2,333.9 L471.0,328.9 L471.9,347.2 L472.7,362.0 L473.5,361.4 L474.4,365.9 L475.2,368.2 L476.1,363.5 L476.9,363.8 L477.8,354.0 L478.6,347.5 L479.4,365.0 L480.3,380.1 L481.1,405.8 L482.0,383.3 L482.8,380.6 L483.7,360.5 L484.5,338.9 L485.3,312.9 L486.2,295.4 L487.0,289.8 L487.9,300.8 L488.7,290.4 L489.6,292.5 L490.4,294.3 L491.2,294.6 L492.1,293.7 L492.9,293.4 L493.8,294.0 L494.6,294.0 L495.4,306.1 L496.3,296.6 L497.1,294.3 L498.0,323.8 L498.8,326.8 L499.7,290.4 L500.5,289.5 L501.3,304.0 L502.2,313.2 L503.0,316.4 L503.9,326.5 L504.7,312.0 L505.6,302.2 L506.4,301.9 L507.2,320.3 L508.1,293.1 L508.9,303.4 L509.8,307.3 L510.6,304.3 L511.5,305.2 L512.3,303.1 L513.1,304.6 L514.0,311.4 L514.8,315.9 L515.7,315.6 L516.5,311.7 L517.4,316.1 L518.2,303.1 L519.0,320.3 L519.9,309.9 L520.7,323.3 L521.6,314.7 L522.4,297.5 L523.3,321.8 L524.1,294.0 L524.9,299.0 L525.8,296.6 L526.6,300.8 L527.5,315.0 L528.3,306.7 L529.2,331.2 L530.0,337.7 L530.8,342.8 L531.7,376.5 L532.5,378.6 L533.4,358.5 L534.2,358.2 L535.1,351.1 L535.9,335.1 L536.7,323.5 L537.6,347.8 L538.4,344.3 L539.3,355.8 L540.1,333.6 L541.0,337.5 L541.8,355.2 L542.6,361.4 L543.5,337.7 L544.3,309.0 L545.2,328.0 L546.0,345.4 L546.9,339.5 L547.7,376.2 L548.5,369.7 L549.4,388.6 L550.2,394.9 L551.1,380.9 L551.9,378.3 L552.8,383.6 L553.6,402.2 L554.4,390.1 L555.3,367.9 L556.1,367.6 L557.0,358.8 L557.8,360.8 L558.7,339.8 L559.5,317.0 L560.3,322.4 L561.2,340.7 L562.0,329.5 L562.9,317.6 L563.7,318.2 L564.6,305.5 L565.4,309.9 L566.2,308.2 L567.1,309.9 L567.9,314.4 L568.8,309.9 L569.6,310.8 L570.4,317.6 L571.3,314.1 L572.1,317.0 L573.0,328.9 L573.8,333.6 L574.7,325.9 L575.5,325.3 L576.3,307.3 L577.2,306.7 L578.0,299.9 L578.9,297.8 L579.7,303.4 L580.6,309.6 L581.4,321.5 L582.2,320.0 L583.1,319.4 L583.9,329.8 L584.8,352.2 L585.6,344.6 L586.5,339.8 L587.3,352.2 L588.1,347.2 L589.0,358.5 L589.8,384.2 L590.7,392.2 L591.5,401.4 L592.4,410.5 L593.2,416.4 L594.0,419.1 L594.9,419.4 L595.7,419.7 L596.6,416.4 L597.4,409.3 L598.3,408.8 L599.1,406.1 L599.9,407.6 L600.8,404.9 L601.6,405.2 L602.5,404.0 L603.3,411.4 L604.2,413.5 L605.0,409.9 L605.8,401.7 L606.7,386.3 L607.5,345.4 L608.4,338.9 L609.2,345.4 L610.1,337.7 L610.9,323.5 L611.7,327.1 L612.6,336.9 L613.4,349.0 L614.3,354.3 L615.1,397.5 L616.0,412.9 L616.8,409.1 L617.6,407.0 L618.5,407.0 L619.3,411.1 L620.2,414.4 L621.0,413.2 L621.9,406.4 L622.7,393.4 L623.5,385.1 L624.4,371.5 L625.2,359.6 L626.1,350.5 L626.9,303.1 L627.8,300.5 L628.6,310.2 L629.4,316.7 L630.3,312.3 L631.1,333.6 L632.0,349.9 L632.8,333.3 L633.7,312.3 L634.5,305.8 L635.3,315.3 L636.2,326.5 L637.0,327.1 L637.9,333.6 L638.7,335.1 L639.6,334.5 L640.4,327.4 L641.2,338.0 L642.1,345.1 L642.9,346.3 L643.8,348.7 L644.6,354.3 L645.4,357.9 L646.3,332.1 L647.1,309.3 L648.0,304.9 L648.8,303.7 L649.7,309.0 L650.5,298.4 L651.3,300.2 L652.2,321.5 L653.0,323.3 L653.9,319.1 L654.7,308.8 L655.6,306.4 L656.4,326.5 L657.2,328.9 L658.1,332.4 L658.9,332.7 L659.8,327.7 L660.6,349.6 L661.5,338.0 L662.3,322.7 L663.1,301.1 L664.0,315.9 L664.8,302.5 L665.7,302.5 L666.5,313.5 L667.4,310.2 L668.2,337.2 L669.0,319.4 L669.9,317.6 L670.7,314.1 L671.6,323.0 L672.4,325.0 L673.3,341.6 L674.1,336.0 L674.9,348.7 L675.8,361.7 L676.6,342.5 L677.5,320.3 L678.3,330.9 L679.2,323.3 L680.0,315.0" stroke="#1f77b4" stroke-width="2" fill="none" opacity="0.8"/>
<!-- Hydro Generation -->
<path d="M80.0,359.1 L80.8,359.1 L81.7,358.5 L82.5,358.5 L83.4,358.2 L84.2,358.5 L85.1,357.6 L85.9,357.6 L86.7,357.6 L87.6,357.6 L88.4,357.6 L89.3,357.3 L90.1,357.3 L91.0,356.7 L91.8,357.3 L92.6,356.7 L93.5,357.3 L94.3,357.0 L95.2,357.3 L96.0,357.6 L96.9,358.2 L97.7,357.9 L98.5,357.6 L99.4,357.9 L100.2,357.9 L101.1,357.0 L101.9,357.0 L102.8,357.3 L103.6,357.3 L104.4,357.3 L105.3,357.6 L106.1,357.0 L107.0,356.4 L107.8,357.0 L108.7,355.5 L109.5,356.1 L110.3,355.2 L111.2,354.9 L112.0,355.5 L112.9,355.8 L113.7,355.5 L114.6,354.6 L115.4,354.9 L116.2,355.2 L117.1,354.9 L117.9,354.3 L118.8,354.9 L119.6,354.6 L120.4,354.6 L121.3,353.4 L122.1,354.0 L123.0,354.3 L123.8,353.4 L124.7,353.7 L125.5,353.4 L126.3,353.1 L127.2,353.4 L128.0,353.1 L128.9,353.4 L129.7,353.7 L130.6,353.4 L131.4,353.4 L132.2,353.1 L133.1,353.7 L133.9,353.4 L134.8,353.7 L135.6,353.7 L136.5,354.0 L137.3,353.4 L138.1,355.2 L139.0,354.9 L139.8,354.9 L140.7,355.2 L141.5,355.8 L142.4,356.1 L143.2,356.1 L144.0,356.1 L144.9,355.5 L145.7,355.8 L146.6,355.8 L147.4,355.8 L148.3,356.1 L149.1,356.4 L149.9,355.8 L150.8,356.1 L151.6,355.8 L152.5,356.1 L153.3,355.8 L154.2,355.5 L155.0,355.5 L155.8,355.5 L156.7,355.5 L157.5,354.9 L158.4,354.9 L159.2,355.2 L160.1,354.3 L160.9,354.0 L161.7,354.0 L162.6,353.4 L163.4,353.7 L164.3,353.4 L165.1,354.3 L166.0,354.9 L166.8,354.3 L167.6,354.3 L168.5,354.6 L169.3,354.9 L170.2,355.5 L171.0,354.9 L171.9,354.9 L172.7,355.8 L173.5,355.8 L174.4,355.8 L175.2,355.8 L176.1,356.4 L176.9,356.4 L177.8,356.1 L178.6,356.1 L179.4,356.4 L180.3,356.1 L181.1,356.1 L182.0,356.4 L182.8,356.1 L183.7,355.5 L184.5,355.8 L185.3,355.5 L186.2,355.5 L187.0,355.5 L187.9,355.5 L188.7,355.5 L189.6,355.8 L190.4,355.2 L191.2,355.2 L192.1,354.3 L192.9,354.9 L193.8,354.6 L194.6,354.9 L195.4,354.9 L196.3,354.9 L197.1,355.5 L198.0,354.6 L198.8,354.9 L199.7,354.9 L200.5,355.5 L201.3,355.2 L202.2,355.2 L203.0,355.5 L203.9,354.9 L204.7,354.9 L205.6,355.2 L206.4,354.9 L207.2,354.9 L208.1,355.2 L208.9,355.2 L209.8,355.2 L210.6,355.2 L211.5,355.2 L212.3,355.2 L213.1,355.5 L214.0,355.2 L214.8,356.1 L215.7,355.8 L216.5,355.8 L217.4,355.5 L218.2,356.4 L219.0,356.1 L219.9,356.4 L220.7,357.0 L221.6,357.3 L222.4,356.1 L223.3,356.1 L224.1,356.1 L224.9,355.8 L225.8,356.1 L226.6,355.5 L227.5,355.8 L228.3,355.2 L229.2,355.2 L230.0,355.2 L230.8,355.2 L231.7,355.5 L232.5,354.9 L233.4,355.2 L234.2,354.9 L235.1,355.2 L235.9,355.2 L236.7,355.5 L237.6,355.8 L238.4,354.9 L239.3,355.8 L240.1,355.2 L241.0,355.2 L241.8,355.5 L242.6,355.5 L243.5,355.2 L244.3,355.2 L245.2,355.5 L246.0,355.5 L246.9,355.5 L247.7,355.2 L248.5,355.5 L249.4,355.5 L250.2,354.9 L251.1,355.5 L251.9,355.2 L252.8,355.2 L253.6,355.2 L254.4,355.5 L255.3,354.6 L256.1,355.5 L257.0,354.9 L257.8,355.5 L258.7,354.6 L259.5,354.9 L260.3,354.9 L261.2,354.9 L262.0,354.9 L262.9,354.6 L263.7,354.6 L264.6,354.9 L265.4,354.6 L266.2,355.2 L267.1,354.6 L267.9,354.6 L268.8,355.2 L269.6,354.6 L270.4,354.6 L271.3,354.6 L272.1,354.6 L273.0,354.0 L273.8,354.9 L274.7,354.3 L275.5,354.3 L276.3,354.3 L277.2,354.0 L278.0,354.6 L278.9,354.0 L279.7,354.3 L280.6,354.9 L281.4,354.0 L282.2,354.3 L283.1,355.2 L283.9,354.3 L284.8,354.3 L285.6,354.9 L286.5,354.3 L287.3,355.2 L288.1,354.6 L289.0,354.9 L289.8,354.6 L290.7,354.6 L291.5,354.3 L292.4,354.0 L293.2,354.6 L294.0,354.6 L294.9,354.9 L295.7,354.3 L296.6,354.9 L297.4,354.6 L298.3,354.9 L299.1,353.7 L299.9,354.9 L300.8,353.4 L301.6,353.7 L302.5,353.4 L303.3,353.4 L304.2,353.7 L305.0,352.8 L305.8,352.8 L306.7,353.1 L307.5,353.1 L308.4,354.0 L309.2,353.4 L310.1,353.4 L310.9,353.7 L311.7,353.1 L312.6,353.1 L313.4,353.1 L314.3,352.5 L315.1,352.8 L316.0,353.1 L316.8,353.4 L317.6,352.8 L318.5,353.1 L319.3,352.5 L320.2,351.9 L321.0,352.5 L321.9,352.5 L322.7,351.9 L323.5,352.2 L324.4,352.5 L325.2,352.2 L326.1,352.2 L326.9,351.9 L327.8,352.2 L328.6,351.9 L329.4,352.2 L330.3,351.7 L331.1,352.5 L332.0,352.2 L332.8,353.1 L333.7,353.4 L334.5,354.0 L335.3,354.6 L336.2,355.5 L337.0,355.5 L337.9,354.9 L338.7,354.9 L339.6,354.3 L340.4,354.0 L341.2,353.7 L342.1,354.0 L342.9,354.3 L343.8,354.3 L344.6,354.0 L345.4,353.7 L346.3,354.0 L347.1,354.0 L348.0,353.7 L348.8,353.7 L349.7,354.0 L350.5,353.7 L351.3,353.7 L352.2,353.4 L353.0,353.4 L353.9,352.8 L354.7,353.1 L355.6,353.1 L356.4,353.1 L357.2,354.0 L358.1,353.4 L358.9,354.0 L359.8,354.3 L360.6,354.0 L361.5,353.7 L362.3,353.7 L363.1,353.4 L364.0,354.0 L364.8,354.0 L365.7,354.0 L366.5,353.7 L367.4,354.0 L368.2,354.6 L369.0,354.6 L369.9,355.8 L370.7,356.7 L371.6,358.5 L372.4,358.8 L373.3,360.5 L374.1,362.9 L374.9,364.1 L375.8,365.6 L376.6,367.3 L377.5,367.0 L378.3,366.4 L379.2,364.4 L380.0,362.9 L380.8,362.0 L381.7,359.1 L382.5,357.9 L383.4,356.1 L384.2,356.4 L385.1,356.1 L385.9,354.9 L386.7,354.6 L387.6,353.4 L388.4,354.3 L389.3,354.0 L390.1,352.5 L391.0,352.2 L391.8,352.2 L392.6,352.5 L393.5,352.5 L394.3,352.2 L395.2,351.7 L396.0,351.9 L396.9,352.2 L397.7,352.5 L398.5,352.2 L399.4,351.9 L400.2,350.5 L401.1,350.5 L401.9,349.3 L402.8,349.0 L403.6,349.6 L404.4,349.0 L405.3,349.6 L406.1,349.0 L407.0,349.0 L407.8,349.0 L408.7,348.7 L409.5,349.0 L410.3,349.0 L411.2,348.4 L412.0,349.0 L412.9,348.7 L413.7,349.3 L414.6,349.9 L415.4,351.4 L416.2,350.8 L417.1,352.2 L417.9,348.4 L418.8,349.0 L419.6,353.4 L420.4,354.6 L421.3,352.2 L422.1,352.5 L423.0,352.5 L423.8,354.0 L424.7,354.0 L425.5,355.2 L426.3,355.2 L427.2,354.0 L428.0,354.3 L428.9,354.3 L429.7,353.7 L430.6,354.3 L431.4,353.7 L432.2,353.7 L433.1,353.4 L433.9,353.4 L434.8,354.6 L435.6,351.7 L436.5,353.4 L437.3,353.7 L438.1,353.1 L439.0,353.4 L439.8,354.0 L440.7,354.0 L441.5,354.0 L442.4,353.4 L443.2,354.3 L444.0,354.6 L444.9,355.2 L445.7,354.6 L446.6,355.2 L447.4,354.9 L448.3,355.2 L449.1,354.6 L449.9,354.9 L450.8,354.3 L451.6,354.9 L452.5,354.9 L453.3,353.4 L454.2,353.7 L455.0,353.4 L455.8,353.7 L456.7,353.7 L457.5,353.1 L458.4,353.7 L459.2,353.7 L460.1,353.7 L460.9,353.7 L461.7,353.1 L462.6,353.7 L463.4,353.4 L464.3,353.4 L465.1,353.7 L466.0,353.7 L466.8,353.7 L467.6,353.7 L468.5,353.1 L469.3,353.4 L470.2,353.1 L471.0,353.7 L471.9,353.7 L472.7,353.4 L473.5,353.7 L474.4,353.4 L475.2,353.7 L476.1,353.1 L476.9,353.4 L477.8,353.1 L478.6,353.7 L479.4,353.4 L480.3,353.7 L481.1,353.4 L482.0,353.1 L482.8,353.1 L483.7,353.4 L484.5,353.4 L485.3,353.1 L486.2,353.1 L487.0,354.0 L487.9,353.7 L488.7,353.7 L489.6,353.4 L490.4,354.0 L491.2,353.7 L492.1,353.4 L492.9,353.4 L493.8,353.4 L494.6,354.0 L495.4,353.1 L496.3,353.1 L497.1,353.1 L498.0,353.1 L498.8,353.7 L499.7,354.0 L500.5,353.7 L501.3,352.5 L502.2,352.5 L503.0,353.1 L503.9,352.8 L504.7,352.8 L505.6,354.0 L506.4,354.6 L507.2,354.0 L508.1,354.0 L508.9,353.7 L509.8,353.7 L510.6,352.8 L511.5,353.7 L512.3,353.7 L513.1,353.7 L514.0,354.0 L514.8,353.4 L515.7,353.4 L516.5,353.7 L517.4,353.4 L518.2,353.1 L519.0,352.8 L519.9,353.1 L520.7,352.8 L521.6,352.8 L522.4,352.8 L523.3,352.5 L524.1,352.8 L524.9,352.5 L525.8,352.8 L526.6,352.8 L527.5,351.4 L528.3,351.9 L529.2,351.4 L530.0,351.9 L530.8,351.9 L531.7,351.7 L532.5,351.4 L533.4,351.4 L534.2,349.9 L535.1,350.2 L535.9,350.2 L536.7,350.2 L537.6,349.9 L538.4,351.1 L539.3,352.2 L540.1,351.4 L541.0,352.2 L541.8,351.7 L542.6,351.9 L543.5,351.4 L544.3,351.1 L545.2,349.6 L546.0,350.5 L546.9,350.8 L547.7,349.9 L548.5,349.9 L549.4,349.6 L550.2,350.2 L551.1,349.9 L551.9,349.9 L552.8,349.0 L553.6,349.3 L554.4,348.7 L555.3,348.7 L556.1,348.1 L557.0,357.0 L557.8,357.0 L558.7,356.7 L559.5,357.0 L560.3,347.8 L561.2,347.8 L562.0,347.2 L562.9,347.8 L563.7,347.8 L564.6,347.8 L565.4,347.5 L566.2,347.5 L567.1,347.5 L567.9,348.1 L568.8,348.1 L569.6,347.8 L570.4,347.5 L571.3,347.5 L572.1,347.5 L573.0,347.5 L573.8,347.8 L574.7,347.5 L575.5,346.9 L576.3,346.0 L577.2,346.3 L578.0,346.3 L578.9,344.6 L579.7,345.1 L580.6,343.4 L581.4,342.5 L582.2,342.5 L583.1,342.5 L583.9,342.5 L584.8,343.1 L585.6,344.0 L586.5,343.7 L587.3,344.0 L588.1,344.3 L589.0,344.0 L589.8,344.3 L590.7,344.3 L591.5,344.3 L592.4,344.8 L593.2,344.6 L594.0,344.3 L594.9,344.6 L595.7,344.3 L596.6,344.3 L597.4,344.0 L598.3,344.0 L599.1,344.0 L599.9,344.0 L600.8,343.7 L601.6,344.0 L602.5,344.3 L603.3,344.3 L604.2,344.6 L605.0,344.3 L605.8,344.6 L606.7,344.8 L607.5,344.3 L608.4,344.0 L609.2,344.3 L610.1,344.3 L610.9,344.3 L611.7,344.0 L612.6,344.8 L613.4,343.1 L614.3,343.1 L615.1,343.4 L616.0,343.4 L616.8,343.7 L617.6,343.1 L618.5,343.4 L619.3,343.1 L620.2,343.7 L621.0,344.0 L621.9,343.4 L622.7,343.1 L623.5,343.1 L624.4,344.3 L625.2,344.8 L626.1,344.8 L626.9,344.3 L627.8,344.6 L628.6,344.3 L629.4,344.6 L630.3,343.7 L631.1,344.0 L632.0,343.7 L632.8,343.7 L633.7,343.4 L634.5,343.7 L635.3,343.7 L636.2,343.4 L637.0,343.4 L637.9,343.4 L638.7,343.4 L639.6,343.4 L640.4,342.2 L641.2,341.9 L642.1,342.2 L642.9,342.2 L643.8,342.5 L644.6,342.5 L645.4,342.2 L646.3,343.7 L647.1,343.7 L648.0,343.7 L648.8,343.7 L649.7,343.7 L650.5,344.3 L651.3,343.7 L652.2,344.3 L653.0,342.5 L653.9,342.8 L654.7,342.8 L655.6,342.2 L656.4,342.8 L657.2,343.1 L658.1,343.1 L658.9,342.8 L659.8,342.8 L660.6,341.9 L661.5,341.9 L662.3,340.1 L663.1,339.8 L664.0,338.6 L664.8,339.2 L665.7,339.8 L666.5,339.8 L667.4,340.1 L668.2,340.1 L669.0,339.8 L669.9,339.8 L670.7,339.5 L671.6,340.1 L672.4,338.3 L673.3,337.7 L674.1,337.7 L674.9,338.0 L675.8,338.0 L676.6,337.7 L677.5,338.0 L678.3,338.0 L679.2,338.0 L680.0,338.0" stroke="#ff7f0e" stroke-width="2" fill="none" opacity="0.8"/>
<!-- Thermal Generation -->
<path d="M80.0,280.6 L80.8,279.5 L81.7,287.2 L82.5,310.5 L83.4,318.5 L84.2,321.5 L85.1,330.1 L85.9,330.4 L86.7,327.1 L87.6,327.4 L88.4,310.5 L89.3,285.4 L90.1,285.7 L91.0,289.2 L91.8,305.5 L92.6,307.3 L93.5,321.5 L94.3,299.0 L95.2,283.0 L96.0,286.0 L96.9,294.6 L97.7,302.8 L98.5,311.7 L99.4,312.3 L100.2,310.2 L101.1,311.7 L101.9,315.9 L102.8,327.7 L103.6,327.1 L104.4,351.1 L105.3,353.1 L106.1,342.8 L107.0,342.8 L107.8,343.1 L108.7,327.7 L109.5,291.6 L110.3,309.9 L111.2,310.5 L112.0,302.5 L112.9,311.1 L113.7,314.7 L114.6,322.1 L115.4,328.9 L116.2,333.0 L117.1,301.7 L117.9,289.2 L118.8,283.0 L119.6,282.4 L120.4,295.7 L121.3,296.3 L122.1,296.3 L123.0,297.5 L123.8,301.9 L124.7,301.4 L125.5,301.1 L126.3,301.4 L127.2,289.2 L128.0,289.5 L128.9,289.2 L129.7,283.3 L130.6,296.9 L131.4,304.9 L132.2,298.4 L133.1,305.2 L133.9,312.3 L134.8,311.4 L135.6,310.5 L136.5,311.7 L137.3,309.3 L138.1,287.2 L139.0,284.5 L139.8,284.2 L140.7,285.7 L141.5,287.7 L142.4,284.5 L143.2,284.2 L144.0,284.5 L144.9,284.2 L145.7,283.9 L146.6,283.6 L147.4,286.0 L148.3,287.2 L149.1,286.3 L149.9,288.6 L150.8,285.4 L151.6,288.6 L152.5,285.7 L153.3,288.0 L154.2,285.4 L155.0,288.0 L155.8,285.4 L156.7,304.9 L157.5,287.5 L158.4,285.4 L159.2,286.3 L160.1,283.9 L160.9,285.1 L161.7,286.3 L162.6,283.6 L163.4,284.5 L164.3,289.8 L165.1,294.6 L166.0,293.4 L166.8,295.7 L167.6,286.9 L168.5,282.7 L169.3,286.0 L170.2,284.2 L171.0,289.5 L171.9,286.3 L172.7,288.9 L173.5,289.5 L174.4,297.2 L175.2,318.8 L176.1,319.7 L176.9,332.7 L177.8,333.0 L178.6,327.7 L179.4,287.7 L180.3,304.0 L181.1,303.4 L182.0,309.0 L182.8,319.7 L183.7,330.4 L184.5,330.6 L185.3,330.6 L186.2,331.5 L187.0,333.6 L187.9,331.8 L188.7,330.6 L189.6,314.4 L190.4,293.4 L191.2,299.3 L192.1,313.5 L192.9,319.4 L193.8,323.5 L194.6,327.4 L195.4,330.9 L196.3,331.2 L197.1,330.6 L198.0,330.6 L198.8,289.8 L199.7,299.0 L200.5,299.6 L201.3,299.9 L202.2,291.3 L203.0,330.4 L203.9,330.6 L204.7,329.2 L205.6,329.8 L206.4,330.1 L207.2,329.8 L208.1,330.4 L208.9,330.9 L209.8,330.1 L210.6,328.9 L211.5,329.5 L212.3,329.2 L213.1,329.8 L214.0,328.9 L214.8,329.8 L215.7,327.1 L216.5,329.2 L217.4,328.9 L218.2,329.5 L219.0,290.1 L219.9,294.0 L220.7,291.0 L221.6,283.6 L222.4,286.0 L223.3,281.8 L224.1,281.2 L224.9,286.9 L225.8,298.1 L226.6,323.8 L227.5,324.4 L228.3,324.4 L229.2,319.1 L230.0,319.7 L230.8,284.2 L231.7,281.5 L232.5,303.7 L233.4,299.0 L234.2,305.8 L235.1,309.0 L235.9,315.9 L236.7,320.9 L237.6,331.2 L238.4,327.1 L239.3,297.5 L240.1,294.3 L241.0,302.8 L241.8,300.5 L242.6,312.0 L243.5,312.0 L244.3,310.8 L245.2,324.7 L246.0,325.0 L246.9,325.3 L247.7,325.9 L248.5,324.7 L249.4,299.6 L250.2,282.1 L251.1,284.8 L251.9,284.5 L252.8,293.4 L253.6,297.2 L254.4,288.9 L255.3,288.9 L256.1,291.6 L257.0,292.8 L257.8,306.7 L258.7,280.9 L259.5,283.6 L260.3,288.6 L261.2,287.5 L262.0,281.2 L262.9,280.1 L263.7,280.6 L264.6,283.9 L265.4,280.3 L266.2,284.5 L267.1,297.2 L267.9,288.0 L268.8,313.8 L269.6,317.6 L270.4,300.5 L271.3,296.0 L272.1,296.0 L273.0,305.8 L273.8,300.8 L274.7,294.6 L275.5,304.9 L276.3,310.2 L277.2,310.5 L278.0,337.5 L278.9,323.3 L279.7,300.2 L280.6,296.3 L281.4,299.6 L282.2,296.9 L283.1,300.2 L283.9,308.8 L284.8,307.9 L285.6,307.6 L286.5,307.9 L287.3,321.5 L288.1,319.7 L289.0,304.9 L289.8,303.1 L290.7,302.2 L291.5,302.5 L292.4,310.5 L293.2,322.1 L294.0,327.4 L294.9,327.7 L295.7,305.5 L296.6,304.0 L297.4,306.1 L298.3,303.1 L299.1,308.2 L299.9,306.1 L300.8,315.3 L301.6,320.6 L302.5,320.9 L303.3,321.8 L304.2,320.6 L305.0,320.6 L305.8,317.0 L306.7,320.6 L307.5,340.1 L308.4,340.7 L309.2,340.4 L310.1,341.6 L310.9,342.2 L311.7,343.1 L312.6,344.0 L313.4,344.0 L314.3,343.4 L315.1,342.8 L316.0,342.8 L316.8,342.8 L317.6,339.8 L318.5,343.1 L319.3,341.9 L320.2,341.9 L321.0,341.9 L321.9,341.9 L322.7,340.4 L323.5,341.6 L324.4,339.5 L325.2,340.4 L326.1,340.1 L326.9,343.1 L327.8,340.7 L328.6,339.8 L329.4,339.8 L330.3,340.1 L331.1,340.1 L332.0,339.5 L332.8,339.2 L333.7,341.3 L334.5,325.3 L335.3,329.5 L336.2,313.8 L337.0,312.0 L337.9,312.9 L338.7,312.6 L339.6,311.7 L340.4,298.1 L341.2,294.3 L342.1,296.3 L342.9,298.4 L343.8,295.4 L344.6,297.8 L345.4,303.4 L346.3,301.9 L347.1,304.3 L348.0,303.4 L348.8,303.4 L349.7,300.5 L350.5,304.9 L351.3,304.9 L352.2,305.2 L353.0,312.3 L353.9,321.5 L354.7,318.5 L355.6,318.5 L356.4,318.5 L357.2,318.5 L358.1,303.1 L358.9,303.4 L359.8,304.3 L360.6,300.8 L361.5,299.6 L362.3,305.8 L363.1,306.4 L364.0,306.4 L364.8,307.0 L365.7,307.6 L366.5,307.3 L367.4,316.4 L368.2,340.1 L369.0,340.4 L369.9,339.5 L370.7,308.8 L371.6,306.1 L372.4,308.5 L373.3,305.2 L374.1,312.6 L374.9,307.9 L375.8,304.0 L376.6,309.0 L377.5,306.1 L378.3,298.7 L379.2,305.8 L380.0,308.8 L380.8,293.7 L381.7,293.4 L382.5,299.9 L383.4,301.1 L384.2,304.0 L385.1,299.9 L385.9,319.1 L386.7,341.0 L387.6,341.0 L388.4,341.3 L389.3,341.0 L390.1,339.8 L391.0,340.4 L391.8,341.6 L392.6,313.2 L393.5,304.9 L394.3,327.1 L395.2,318.5 L396.0,323.3 L396.9,311.7 L397.7,295.4 L398.5,315.9 L399.4,315.3 L400.2,318.5 L401.1,299.0 L401.9,308.5 L402.8,335.7 L403.6,330.6 L404.4,330.6 L405.3,331.2 L406.1,322.4 L407.0,323.3 L407.8,334.5 L408.7,340.1 L409.5,340.1 L410.3,340.4 L411.2,341.0 L412.0,311.1 L412.9,304.0 L413.7,301.7 L414.6,295.7 L415.4,316.1 L416.2,327.4 L417.1,313.8 L417.9,328.3 L418.8,335.4 L419.6,327.4 L420.4,311.7 L421.3,294.8 L422.1,296.0 L423.0,299.3 L423.8,299.9 L424.7,300.5 L425.5,306.7 L426.3,324.4 L427.2,340.4 L428.0,340.7 L428.9,340.4 L429.7,341.6 L430.6,341.6 L431.4,340.4 L432.2,340.7 L433.1,311.7 L433.9,314.1 L434.8,326.2 L435.6,344.8 L436.5,345.1 L437.3,344.8 L438.1,343.4 L439.0,340.7 L439.8,330.9 L440.7,327.7 L441.5,295.1 L442.4,320.6 L443.2,326.5 L444.0,320.6 L444.9,328.0 L445.7,328.0 L446.6,327.4 L447.4,327.1 L448.3,327.4 L449.1,327.7 L449.9,328.0 L450.8,327.4 L451.6,327.4 L452.5,326.2 L453.3,325.9 L454.2,326.5 L455.0,326.5 L455.8,326.2 L456.7,323.8 L457.5,328.9 L458.4,328.6 L459.2,329.2 L460.1,329.2 L460.9,328.9 L461.7,318.2 L462.6,335.4 L463.4,350.8 L464.3,351.9 L465.1,357.6 L466.0,362.9 L466.8,362.6 L467.6,364.1 L468.5,363.5 L469.3,362.6 L470.2,362.0 L471.0,362.9 L471.9,362.3 L472.7,361.1 L473.5,360.5 L474.4,360.2 L475.2,360.2 L476.1,359.6 L476.9,359.9 L477.8,360.2 L478.6,360.5 L479.4,361.4 L480.3,360.8 L481.1,361.1 L482.0,362.3 L482.8,362.0 L483.7,362.9 L484.5,362.6 L485.3,360.8 L486.2,361.1 L487.0,360.8 L487.9,361.4 L488.7,360.5 L489.6,361.4 L490.4,361.7 L491.2,360.8 L492.1,360.8 L492.9,360.8 L493.8,359.9 L494.6,346.6 L495.4,361.4 L496.3,360.5 L497.1,360.2 L498.0,360.2 L498.8,360.2 L499.7,360.5 L500.5,360.5 L501.3,361.1 L502.2,318.5 L503.0,315.0 L503.9,350.5 L504.7,351.1 L505.6,359.9 L506.4,361.1 L507.2,354.3 L508.1,360.5 L508.9,360.2 L509.8,360.2 L510.6,360.2 L511.5,360.8 L512.3,360.2 L513.1,360.5 L514.0,322.4 L514.8,327.7 L515.7,361.1 L516.5,357.9 L517.4,361.7 L518.2,362.3 L519.0,360.8 L519.9,361.1 L520.7,360.2 L521.6,359.9 L522.4,324.4 L523.3,327.1 L524.1,356.1 L524.9,361.4 L525.8,361.7 L526.6,360.8 L527.5,361.1 L528.3,360.2 L529.2,359.6 L530.0,359.9 L530.8,361.1 L531.7,360.8 L532.5,355.5 L533.4,320.3 L534.2,315.0 L535.1,317.6 L535.9,332.1 L536.7,359.9 L537.6,354.9 L538.4,362.3 L539.3,338.9 L540.1,361.7 L541.0,356.7 L541.8,365.3 L542.6,329.2 L543.5,312.9 L544.3,315.9 L545.2,343.1 L546.0,335.1 L546.9,335.7 L547.7,331.5 L548.5,340.7 L549.4,350.2 L550.2,353.7 L551.1,357.9 L551.9,358.5 L552.8,351.9 L553.6,343.4 L554.4,325.3 L555.3,328.3 L556.1,355.8 L557.0,363.2 L557.8,361.7 L558.7,361.4 L559.5,360.8 L560.3,361.1 L561.2,361.4 L562.0,362.0 L562.9,365.3 L563.7,363.2 L564.6,362.3 L565.4,362.9 L566.2,362.0 L567.1,361.7 L567.9,361.1 L568.8,363.5 L569.6,362.6 L570.4,362.0 L571.3,365.6 L572.1,365.3 L573.0,363.2 L573.8,343.7 L574.7,318.2 L575.5,310.8 L576.3,359.1 L577.2,344.8 L578.0,344.8 L578.9,337.7 L579.7,337.7 L580.6,338.9 L581.4,337.5 L582.2,331.5 L583.1,307.9 L583.9,328.6 L584.8,331.5 L585.6,323.8 L586.5,331.2 L587.3,332.7 L588.1,331.5 L589.0,342.2 L589.8,350.2 L590.7,351.7 L591.5,352.5 L592.4,339.5 L593.2,322.1 L594.0,296.9 L594.9,286.9 L595.7,282.1 L596.6,319.1 L597.4,320.6 L598.3,322.4 L599.1,328.6 L599.9,327.7 L600.8,329.2 L601.6,328.3 L602.5,327.4 L603.3,278.9 L604.2,278.0 L605.0,288.3 L605.8,307.0 L606.7,318.2 L607.5,317.6 L608.4,327.7 L609.2,328.0 L610.1,327.4 L610.9,328.0 L611.7,328.3 L612.6,328.9 L613.4,328.9 L614.3,326.5 L615.1,326.2 L616.0,325.9 L616.8,329.2 L617.6,328.9 L618.5,329.2 L619.3,329.2 L620.2,328.9 L621.0,328.6 L621.9,328.9 L622.7,328.6 L623.5,298.1 L624.4,280.1 L625.2,312.0 L626.1,326.8 L626.9,328.3 L627.8,327.7 L628.6,327.1 L629.4,326.8 L630.3,327.7 L631.1,326.5 L632.0,326.8 L632.8,327.4 L633.7,326.8 L634.5,310.5 L635.3,300.8 L636.2,305.5 L637.0,327.1 L637.9,326.8 L638.7,327.1 L639.6,325.9 L640.4,326.2 L641.2,326.5 L642.1,327.1 L642.9,326.8 L643.8,307.0 L644.6,285.4 L645.4,324.7 L646.3,325.9 L647.1,325.9 L648.0,325.9 L648.8,325.9 L649.7,326.2 L650.5,325.6 L651.3,373.8 L652.2,374.4 L653.0,374.4 L653.9,363.5 L654.7,350.5 L655.6,326.5 L656.4,324.4 L657.2,325.9 L658.1,322.7 L658.9,321.2 L659.8,322.4 L660.6,322.4 L661.5,322.4 L662.3,323.0 L663.1,323.5 L664.0,324.1 L664.8,315.6 L665.7,324.4 L666.5,324.7 L667.4,356.7 L668.2,362.9 L669.0,370.9 L669.9,370.6 L670.7,371.2 L671.6,371.8 L672.4,371.5 L673.3,371.2 L674.1,370.9 L674.9,369.7 L675.8,362.3 L676.6,362.0 L677.5,362.0 L678.3,362.3 L679.2,374.1 L680.0,370.9" stroke="#2ca02c" stroke-width="2" fill="none" opacity="0.8"/>
<!-- Solar Generation -->
<path d="M80.0,420.0 L80.8,420.0 L81.7,420.0 L82.5,420.0 L83.4,420.0 L84.2,420.0 L85.1,420.0 L85.9,420.0 L86.7,420.0 L87.6,420.0 L88.4,420.0 L89.3,420.0 L90.1,419.1 L91.0,406.7 L91.8,405.2 L92.6,400.5 L93.5,400.2 L94.3,398.7 L95.2,396.9 L96.0,396.6 L96.9,415.3 L97.7,419.7 L98.5,420.0 L99.4,420.0 L100.2,420.0 L101.1,420.0 L101.9,420.0 L102.8,420.0 L103.6,420.0 L104.4,420.0 L105.3,420.0 L106.1,420.0 L107.0,420.0 L107.8,420.0 L108.7,420.0 L109.5,420.0 L110.3,420.0 L111.2,415.9 L112.0,409.3 L112.9,408.5 L113.7,402.2 L114.6,405.2 L115.4,403.1 L116.2,406.7 L117.1,416.4 L117.9,420.0 L118.8,420.0 L119.6,420.0 L120.4,420.0 L121.3,420.0 L122.1,420.0 L123.0,420.0 L123.8,420.0 L124.7,420.0 L125.5,420.0 L126.3,420.0 L127.2,420.0 L128.0,420.0 L128.9,420.0 L129.7,420.0 L130.6,420.0 L131.4,415.3 L132.2,412.9 L133.1,407.6 L133.9,404.6 L134.8,401.4 L135.6,400.8 L136.5,402.2 L137.3,414.7 L138.1,420.0 L139.0,420.0 L139.8,420.0 L140.7,420.0 L141.5,420.0 L142.4,420.0 L143.2,420.0 L144.0,420.0 L144.9,420.0 L145.7,420.0 L146.6,420.0 L147.4,420.0 L148.3,420.0 L149.1,420.0 L149.9,420.0 L150.8,419.4 L151.6,411.7 L152.5,405.5 L153.3,405.8 L154.2,405.8 L155.0,396.9 L155.8,392.8 L156.7,391.3 L157.5,406.7 L158.4,419.7 L159.2,420.0 L160.1,420.0 L160.9,420.0 L161.7,420.0 L162.6,420.0 L163.4,420.0 L164.3,420.0 L165.1,420.0 L166.0,420.0 L166.8,420.0 L167.6,420.0 L168.5,420.0 L169.3,420.0 L170.2,420.0 L171.0,419.1 L171.9,401.7 L172.7,390.4 L173.5,393.7 L174.4,396.6 L175.2,395.7 L176.1,391.6 L176.9,390.1 L177.8,411.7 L178.6,419.7 L179.4,420.0 L180.3,420.0 L181.1,420.0 L182.0,420.0 L182.8,420.0 L183.7,420.0 L184.5,420.0 L185.3,420.0 L186.2,420.0 L187.0,420.0 L187.9,420.0 L188.7,420.0 L189.6,420.0 L190.4,420.0 L191.2,419.4 L192.1,402.2 L192.9,391.3 L193.8,394.9 L194.6,402.5 L195.4,394.6 L196.3,391.6 L197.1,394.3 L198.0,407.9 L198.8,419.7 L199.7,420.0 L200.5,420.0 L201.3,420.0 L202.2,420.0 L203.0,420.0 L203.9,420.0 L204.7,420.0 L205.6,420.0 L206.4,420.0 L207.2,420.0 L208.1,420.0 L208.9,420.0 L209.8,420.0 L210.6,420.0 L211.5,419.7 L212.3,417.0 L213.1,406.1 L214.0,404.3 L214.8,404.6 L215.7,397.2 L216.5,408.2 L217.4,413.8 L218.2,411.4 L219.0,419.7 L219.9,420.0 L220.7,420.0 L221.6,420.0 L222.4,420.0 L223.3,420.0 L224.1,420.0 L224.9,420.0 L225.8,420.0 L226.6,420.0 L227.5,420.0 L228.3,420.0 L229.2,420.0 L230.0,420.0 L230.8,420.0 L231.7,420.0 L232.5,417.9 L233.4,399.0 L234.2,393.4 L235.1,408.5 L235.9,414.1 L236.7,405.8 L237.6,410.5 L238.4,416.2 L239.3,420.0 L240.1,420.0 L241.0,420.0 L241.8,420.0 L242.6,420.0 L243.5,420.0 L244.3,420.0 L245.2,420.0 L246.0,420.0 L246.9,420.0 L247.7,420.0 L248.5,420.0 L249.4,420.0 L250.2,420.0 L251.1,420.0 L251.9,419.7 L252.8,409.6 L253.6,397.8 L254.4,396.3 L255.3,401.1 L256.1,399.6 L257.0,399.9 L257.8,405.2 L258.7,416.4 L259.5,419.7 L260.3,420.0 L261.2,420.0 L262.0,420.0 L262.9,420.0 L263.7,420.0 L264.6,420.0 L265.4,420.0 L266.2,420.0 L267.1,420.0 L267.9,420.0 L268.8,420.0 L269.6,420.0 L270.4,420.0 L271.3,420.0 L272.1,420.0 L273.0,417.6 L273.8,409.9 L274.7,413.5 L275.5,406.4 L276.3,403.1 L277.2,411.7 L278.0,416.2 L278.9,416.4 L279.7,420.0 L280.6,420.0 L281.4,420.0 L282.2,420.0 L283.1,420.0 L283.9,420.0 L284.8,420.0 L285.6,420.0 L286.5,420.0 L287.3,420.0 L288.1,420.0 L289.0,420.0 L289.8,420.0 L290.7,420.0 L291.5,420.0 L292.4,419.7 L293.2,417.0 L294.0,402.0 L294.9,412.3 L295.7,406.4 L296.6,404.3 L297.4,402.0 L298.3,415.6 L299.1,418.8 L299.9,420.0 L300.8,420.0 L301.6,420.0 L302.5,420.0 L303.3,420.0 L304.2,420.0 L305.0,420.0 L305.8,420.0 L306.7,420.0 L307.5,420.0 L308.4,420.0 L309.2,420.0 L310.1,420.0 L310.9,420.0 L311.7,420.0 L312.6,420.0 L313.4,417.6 L314.3,417.0 L315.1,416.2 L316.0,413.8 L316.8,414.7 L317.6,415.0 L318.5,417.6 L319.3,419.4 L320.2,420.0 L321.0,420.0 L321.9,420.0 L322.7,420.0 L323.5,420.0 L324.4,420.0 L325.2,420.0 L326.1,420.0 L326.9,420.0 L327.8,420.0 L328.6,420.0 L329.4,420.0 L330.3,420.0 L331.1,420.0 L332.0,420.0 L332.8,420.0 L333.7,414.4 L334.5,407.0 L335.3,403.4 L336.2,403.7 L337.0,402.0 L337.9,397.2 L338.7,394.9 L339.6,414.1 L340.4,420.0 L341.2,420.0 L342.1,420.0 L342.9,420.0 L343.8,420.0 L344.6,420.0 L345.4,420.0 L346.3,420.0 L347.1,420.0 L348.0,420.0 L348.8,420.0 L349.7,420.0 L350.5,420.0 L351.3,420.0 L352.2,420.0 L353.0,420.0 L353.9,414.4 L354.7,407.6 L355.6,398.4 L356.4,399.0 L357.2,397.5 L358.1,397.8 L358.9,393.4 L359.8,409.1 L360.6,419.7 L361.5,420.0 L362.3,420.0 L363.1,420.0 L364.0,420.0 L364.8,420.0 L365.7,420.0 L366.5,420.0 L367.4,420.0 L368.2,420.0 L369.0,420.0 L369.9,420.0 L370.7,420.0 L371.6,420.0 L372.4,420.0 L373.3,419.7 L374.1,410.8 L374.9,405.2 L375.8,401.1 L376.6,404.0 L377.5,404.9 L378.3,405.5 L379.2,411.7 L380.0,417.9 L380.8,420.0 L381.7,420.0 L382.5,420.0 L383.4,420.0 L384.2,420.0 L385.1,420.0 L385.9,420.0 L386.7,420.0 L387.6,420.0 L388.4,420.0 L389.3,420.0 L390.1,420.0 L391.0,420.0 L391.8,420.0 L392.6,420.0 L393.5,420.0 L394.3,417.9 L395.2,414.1 L396.0,412.0 L396.9,409.9 L397.7,401.7 L398.5,407.3 L399.4,412.6 L400.2,417.9 L401.1,420.0 L401.9,420.0 L402.8,420.0 L403.6,420.0 L404.4,420.0 L405.3,420.0 L406.1,420.0 L407.0,420.0 L407.8,420.0 L408.7,420.0 L409.5,420.0 L410.3,420.0 L411.2,420.0 L412.0,420.0 L412.9,420.0 L413.7,420.0 L414.6,414.1 L415.4,406.4 L416.2,400.2 L417.1,398.4 L417.9,396.6 L418.8,395.1 L419.6,397.2 L420.4,411.1 L421.3,420.0 L422.1,420.0 L423.0,420.0 L423.8,420.0 L424.7,420.0 L425.5,420.0 L426.3,420.0 L427.2,420.0 L428.0,420.0 L428.9,420.0 L429.7,420.0 L430.6,420.0 L431.4,420.0 L432.2,420.0 L433.1,420.0 L433.9,420.0 L434.8,413.8 L435.6,407.0 L436.5,407.9 L437.3,407.6 L438.1,412.3 L439.0,411.7 L439.8,413.8 L440.7,417.3 L441.5,420.0 L442.4,420.0 L443.2,420.0 L444.0,420.0 L444.9,420.0 L445.7,420.0 L446.6,420.0 L447.4,420.0 L448.3,420.0 L449.1,420.0 L449.9,420.0 L450.8,420.0 L451.6,420.0 L452.5,420.0 L453.3,420.0 L454.2,420.0 L455.0,415.0 L455.8,397.2 L456.7,405.8 L457.5,406.4 L458.4,410.2 L459.2,401.4 L460.1,412.0 L460.9,417.9 L461.7,420.0 L462.6,420.0 L463.4,420.0 L464.3,420.0 L465.1,420.0 L466.0,420.0 L466.8,420.0 L467.6,420.0 L468.5,420.0 L469.3,420.0 L470.2,420.0 L471.0,420.0 L471.9,420.0 L472.7,420.0 L473.5,420.0 L474.4,420.0 L475.2,417.9 L476.1,410.8 L476.9,415.3 L477.8,414.4 L478.6,415.6 L479.4,413.2 L480.3,416.7 L481.1,418.5 L482.0,420.0 L482.8,420.0 L483.7,420.0 L484.5,420.0 L485.3,420.0 L486.2,420.0 L487.0,420.0 L487.9,420.0 L488.7,420.0 L489.6,420.0 L490.4,420.0 L491.2,420.0 L492.1,420.0 L492.9,420.0 L493.8,420.0 L494.6,420.0 L495.4,418.8 L496.3,415.0 L497.1,411.7 L498.0,407.9 L498.8,411.4 L499.7,412.6 L500.5,414.1 L501.3,417.3 L502.2,420.0 L503.0,420.0 L503.9,420.0 L504.7,420.0 L505.6,420.0 L506.4,420.0 L507.2,420.0 L508.1,420.0 L508.9,420.0 L509.8,420.0 L510.6,420.0 L511.5,420.0 L512.3,420.0 L513.1,420.0 L514.0,420.0 L514.8,420.0 L515.7,419.1 L516.5,408.8 L517.4,412.3 L518.2,404.9 L519.0,408.5 L519.9,415.0 L520.7,412.9 L521.6,417.9 L522.4,420.0 L523.3,420.0 L524.1,420.0 L524.9,420.0 L525.8,420.0 L526.6,420.0 L527.5,420.0 L528.3,420.0 L529.2,420.0 L530.0,420.0 L530.8,420.0 L531.7,420.0 L532.5,420.0 L533.4,420.0 L534.2,420.0 L535.1,420.0 L535.9,418.2 L536.7,413.5 L537.6,409.1 L538.4,407.6 L539.3,407.9 L540.1,405.5 L541.0,413.2 L541.8,416.2 L542.6,420.0 L543.5,420.0 L544.3,420.0 L545.2,420.0 L546.0,420.0 L546.9,420.0 L547.7,420.0 L548.5,420.0 L549.4,420.0 L550.2,420.0 L551.1,420.0 L551.9,420.0 L552.8,420.0 L553.6,420.0 L554.4,420.0 L555.3,420.0 L556.1,419.4 L557.0,417.0 L557.8,417.9 L558.7,414.7 L559.5,415.0 L560.3,406.1 L561.2,413.2 L562.0,418.2 L562.9,420.0 L563.7,420.0 L564.6,420.0 L565.4,420.0 L566.2,420.0 L567.1,420.0 L567.9,420.0 L568.8,420.0 L569.6,420.0 L570.4,420.0 L571.3,420.0 L572.1,420.0 L573.0,420.0 L573.8,420.0 L574.7,420.0 L575.5,420.0 L576.3,417.3 L577.2,415.3 L578.0,413.2 L578.9,412.0 L579.7,413.8 L580.6,413.5 L581.4,417.3 L582.2,418.8 L583.1,420.0 L583.9,420.0 L584.8,420.0 L585.6,420.0 L586.5,420.0 L587.3,420.0 L588.1,420.0 L589.0,420.0 L589.8,420.0 L590.7,420.0 L591.5,420.0 L592.4,420.0 L593.2,420.0 L594.0,420.0 L594.9,420.0 L595.7,420.0 L596.6,419.1 L597.4,417.6 L598.3,415.6 L599.1,410.8 L599.9,409.1 L600.8,411.4 L601.6,406.7 L602.5,415.9 L603.3,420.0 L604.2,420.0 L605.0,420.0 L605.8,420.0 L606.7,420.0 L607.5,420.0 L608.4,420.0 L609.2,420.0 L610.1,420.0 L610.9,420.0 L611.7,420.0 L612.6,420.0 L613.4,420.0 L614.3,420.0 L615.1,420.0 L616.0,420.0 L616.8,416.2 L617.6,410.8 L618.5,411.1 L619.3,413.2 L620.2,414.7 L621.0,407.3 L621.9,410.5 L622.7,411.1 L623.5,420.0 L624.4,420.0 L625.2,420.0 L626.1,420.0 L626.9,420.0 L627.8,420.0 L628.6,420.0 L629.4,420.0 L630.3,420.0 L631.1,420.0 L632.0,420.0 L632.8,420.0 L633.7,420.0 L634.5,420.0 L635.3,420.0 L636.2,419.7 L637.0,415.3 L637.9,402.0 L638.7,404.3 L639.6,402.5 L640.4,399.3 L641.2,396.6 L642.1,404.6 L642.9,409.3 L643.8,419.7 L644.6,420.0 L645.4,420.0 L646.3,420.0 L647.1,420.0 L648.0,420.0 L648.8,420.0 L649.7,420.0 L650.5,420.0 L651.3,420.0 L652.2,420.0 L653.0,420.0 L653.9,420.0 L654.7,420.0 L655.6,420.0 L656.4,420.0 L657.2,416.2 L658.1,396.9 L658.9,398.7 L659.8,406.4 L660.6,399.6 L661.5,399.6 L662.3,407.3 L663.1,418.2 L664.0,420.0 L664.8,420.0 L665.7,420.0 L666.5,420.0 L667.4,420.0 L668.2,420.0 L669.0,420.0 L669.9,420.0 L670.7,420.0 L671.6,420.0 L672.4,420.0 L673.3,420.0 L674.1,420.0 L674.9,420.0 L675.8,420.0 L676.6,420.0 L677.5,418.2 L678.3,412.0 L679.2,410.8 L680.0,409.9" stroke="#d62728" stroke-width="2" fill="none" opacity="0.8"/>
<!-- Forecast -->
<path d="M80.0,185.7 L80.8,194.8 L81.7,209.6 L82.5,228.3 L83.4,240.7 L84.2,259.3 L85.1,269.7 L85.9,275.3 L86.7,277.4 L87.6,275.6 L88.4,263.5 L89.3,234.8 L90.1,205.2 L91.0,188.0 L91.8,181.8 L92.6,180.3 L93.5,181.5 L94.3,184.8 L95.2,187.2 L96.0,189.2 L96.9,188.0 L97.7,181.2 L98.5,171.8 L99.4,170.3 L100.2,173.2 L101.1,183.6 L101.9,199.3 L102.8,222.1 L103.6,236.6 L104.4,252.2 L105.3,265.0 L106.1,271.2 L107.0,273.0 L107.8,271.5 L108.7,259.0 L109.5,230.3 L110.3,200.2 L111.2,183.0 L112.0,177.7 L112.9,176.8 L113.7,178.3 L114.6,182.1 L115.4,184.8 L116.2,187.2 L117.1,186.3 L117.9,178.9 L118.8,168.5 L119.6,166.7 L120.4,169.7 L121.3,179.2 L122.1,195.1 L123.0,217.6 L123.8,223.0 L124.7,248.7 L125.5,262.9 L126.3,269.4 L127.2,270.9 L128.0,269.1 L128.9,256.1 L129.7,227.7 L130.6,196.0 L131.4,180.3 L132.2,175.3 L133.1,175.0 L133.9,177.1 L134.8,180.9 L135.6,183.3 L136.5,185.7 L137.3,184.2 L138.1,176.8 L139.0,164.4 L139.8,160.2 L140.7,163.5 L141.5,170.9 L142.4,187.4 L143.2,210.2 L144.0,232.4 L144.9,245.4 L145.7,251.4 L146.6,256.7 L147.4,257.9 L148.3,255.8 L149.1,241.0 L149.9,212.3 L150.8,182.7 L151.6,170.9 L152.5,170.0 L153.3,172.7 L154.2,176.5 L155.0,181.8 L155.8,186.0 L156.7,187.4 L157.5,185.7 L158.4,177.4 L159.2,165.6 L160.1,164.1 L160.9,165.8 L161.7,173.5 L162.6,189.8 L163.4,213.2 L164.3,219.1 L165.1,241.0 L166.0,238.0 L166.8,238.3 L167.6,240.1 L168.5,237.4 L169.3,223.2 L170.2,195.7 L171.0,166.1 L171.9,151.9 L172.7,152.2 L173.5,155.5 L174.4,159.3 L175.2,163.5 L176.1,167.3 L176.9,170.9 L177.8,171.5 L178.6,164.7 L179.4,149.6 L180.3,143.4 L181.1,146.9 L182.0,158.5 L182.8,175.6 L183.7,194.8 L184.5,223.2 L185.3,232.1 L186.2,238.3 L187.0,243.4 L187.9,246.9 L188.7,249.0 L189.6,245.1 L190.4,227.7 L191.2,211.4 L192.1,196.6 L192.9,192.8 L193.8,186.9 L194.6,188.0 L195.4,190.4 L196.3,197.8 L197.1,200.5 L198.0,198.7 L198.8,193.4 L199.7,180.3 L200.5,173.5 L201.3,172.9 L202.2,179.8 L203.0,191.0 L203.9,208.7 L204.7,220.6 L205.6,234.2 L206.4,239.2 L207.2,242.5 L208.1,242.2 L208.9,239.5 L209.8,235.4 L210.6,225.6 L211.5,213.5 L212.3,202.5 L213.1,192.8 L214.0,182.1 L214.8,176.2 L215.7,177.1 L216.5,183.3 L217.4,194.0 L218.2,191.9 L219.0,189.5 L219.9,167.0 L220.7,162.3 L221.6,163.8 L222.4,171.5 L223.3,185.7 L224.1,201.6 L224.9,205.2 L225.8,228.6 L226.6,237.2 L227.5,241.3 L228.3,243.1 L229.2,240.7 L230.0,226.2 L230.8,199.0 L231.7,170.0 L232.5,153.7 L233.4,151.9 L234.2,154.0 L235.1,157.3 L235.9,161.7 L236.7,165.3 L237.6,167.6 L238.4,167.6 L239.3,160.5 L240.1,144.5 L241.0,138.6 L241.8,143.7 L242.6,153.1 L243.5,169.1 L244.3,189.8 L245.2,205.5 L246.0,222.4 L246.9,228.6 L247.7,231.8 L248.5,233.0 L249.4,229.8 L250.2,215.3 L251.1,185.4 L251.9,155.8 L252.8,142.8 L253.6,144.2 L254.4,148.7 L255.3,152.5 L256.1,158.5 L257.0,162.6 L257.8,164.4 L258.7,163.5 L259.5,155.5 L260.3,138.6 L261.2,133.0 L262.0,136.9 L262.9,146.6 L263.7,161.4 L264.6,183.6 L265.4,209.6 L266.2,219.7 L267.1,225.3 L267.9,229.8 L268.8,231.5 L269.6,229.2 L270.4,215.0 L271.3,186.6 L272.1,157.0 L273.0,144.0 L273.8,144.8 L274.7,149.3 L275.5,152.8 L276.3,158.7 L277.2,162.6 L278.0,165.0 L278.9,165.0 L279.7,154.3 L280.6,141.0 L281.4,136.6 L282.2,142.2 L283.1,151.6 L283.9,167.3 L284.8,188.9 L285.6,215.6 L286.5,226.2 L287.3,233.3 L288.1,236.9 L289.0,239.8 L289.8,239.2 L290.7,235.1 L291.5,224.4 L292.4,209.3 L293.2,194.5 L294.0,182.7 L294.9,174.4 L295.7,178.0 L296.6,187.2 L297.4,188.3 L298.3,187.4 L299.1,184.8 L299.9,178.6 L300.8,162.9 L301.6,153.7 L302.5,162.3 L303.3,172.9 L304.2,180.9 L305.0,198.4 L305.8,206.1 L306.7,222.1 L307.5,233.0 L308.4,237.4 L309.2,238.9 L310.1,235.7 L310.9,221.2 L311.7,193.1 L312.6,162.0 L313.4,146.6 L314.3,145.7 L315.1,149.0 L316.0,152.2 L316.8,157.0 L317.6,160.8 L318.5,162.9 L319.3,162.3 L320.2,153.7 L321.0,136.3 L321.9,130.6 L322.7,135.4 L323.5,144.8 L324.4,159.3 L325.2,180.9 L326.1,186.3 L326.9,209.9 L327.8,220.3 L328.6,224.4 L329.4,226.5 L330.3,226.2 L331.1,220.0 L332.0,205.2 L332.8,187.7 L333.7,169.4 L334.5,161.4 L335.3,159.0 L336.2,159.6 L337.0,162.0 L337.9,166.7 L338.7,170.3 L339.6,169.4 L340.4,159.6 L341.2,139.5 L342.1,135.4 L342.9,141.0 L343.8,149.9 L344.6,161.4 L345.4,175.0 L346.3,163.2 L347.1,194.8 L348.0,209.9 L348.8,214.7 L349.7,216.4 L350.5,213.8 L351.3,207.9 L352.2,192.8 L353.0,178.3 L353.9,165.6 L354.7,155.2 L355.6,149.6 L356.4,149.0 L357.2,153.7 L358.1,157.9 L358.9,161.4 L359.8,161.7 L360.6,150.8 L361.5,144.5 L362.3,140.7 L363.1,136.6 L364.0,132.7 L364.8,128.9 L365.7,137.4 L366.5,193.1 L367.4,204.9 L368.2,210.8 L369.0,216.1 L369.9,217.6 L370.7,215.8 L371.6,200.2 L372.4,172.7 L373.3,145.1 L374.1,132.4 L374.9,134.8 L375.8,139.5 L376.6,145.1 L377.5,150.2 L378.3,156.7 L379.2,160.5 L380.0,159.0 L380.8,149.0 L381.7,130.9 L382.5,125.9 L383.4,131.8 L384.2,143.7 L385.1,159.0 L385.9,182.1 L386.7,209.0 L387.6,207.0 L388.4,226.5 L389.3,235.7 L390.1,237.7 L391.0,234.5 L391.8,220.9 L392.6,193.1 L393.5,161.7 L394.3,147.8 L395.2,147.2 L396.0,150.5 L396.9,153.7 L397.7,159.3 L398.5,162.9 L399.4,165.3 L400.2,165.3 L401.1,157.9 L401.9,141.9 L402.8,136.9 L403.6,142.2 L404.4,151.9 L405.3,167.6 L406.1,189.2 L407.0,204.9 L407.8,222.1 L408.7,227.7 L409.5,230.9 L410.3,231.8 L411.2,228.0 L412.0,213.8 L412.9,184.2 L413.7,152.5 L414.6,139.2 L415.4,141.0 L416.2,144.8 L417.1,149.6 L417.9,154.6 L418.8,159.6 L419.6,161.7 L420.4,160.5 L421.3,150.8 L422.1,132.1 L423.0,127.1 L423.8,132.7 L424.7,143.1 L425.5,158.2 L426.3,181.2 L427.2,186.6 L428.0,219.4 L428.9,226.2 L429.7,231.2 L430.6,233.0 L431.4,230.6 L432.2,217.0 L433.1,188.0 L433.9,156.1 L434.8,142.5 L435.6,143.4 L436.5,147.5 L437.3,151.1 L438.1,157.0 L439.0,161.1 L439.8,163.2 L440.7,163.2 L441.5,156.1 L442.4,140.4 L443.2,136.0 L444.0,141.3 L444.9,151.4 L445.7,167.9 L446.6,189.2 L447.4,369.4 L448.3,222.4 L449.1,231.5 L449.9,235.4 L450.8,237.4 L451.6,234.5 L452.5,220.0 L453.3,191.9 L454.2,159.0 L455.0,144.8 L455.8,144.8 L456.7,148.1 L457.5,151.4 L458.4,157.0 L459.2,160.8 L460.1,162.9 L460.9,162.6 L461.7,155.2 L462.6,139.5 L463.4,135.1 L464.3,140.7 L465.1,151.9 L466.0,169.1 L466.8,190.1 L467.6,209.9 L468.5,224.1 L469.3,232.7 L470.2,237.4 L471.0,240.1 L471.9,240.1 L472.7,234.2 L473.5,219.4 L474.4,200.5 L475.2,182.4 L476.1,172.4 L476.9,168.8 L477.8,170.0 L478.6,172.1 L479.4,177.1 L480.3,180.6 L481.1,179.8 L482.0,172.7 L482.8,157.0 L483.7,153.4 L484.5,157.0 L485.3,165.3 L486.2,178.0 L487.0,194.3 L487.9,216.1 L488.7,223.5 L489.6,232.4 L490.4,237.2 L491.2,238.6 L492.1,237.4 L492.9,233.3 L493.8,222.7 L494.6,206.7 L495.4,192.2 L496.3,180.6 L497.1,172.4 L498.0,175.3 L498.8,180.3 L499.7,183.3 L500.5,183.9 L501.3,182.1 L502.2,175.9 L503.0,160.5 L503.9,153.1 L504.7,162.9 L505.6,174.4 L506.4,183.0 L507.2,199.0 L508.1,215.3 L508.9,227.1 L509.8,234.8 L510.6,238.9 L511.5,240.7 L512.3,237.7 L513.1,223.8 L514.0,196.9 L514.8,165.8 L515.7,149.6 L516.5,148.1 L517.4,150.5 L518.2,153.7 L519.0,158.7 L519.9,162.3 L520.7,164.7 L521.6,165.0 L522.4,158.2 L523.3,143.7 L524.1,138.9 L524.9,143.7 L525.8,156.1 L526.6,175.0 L527.5,194.5 L528.3,198.7 L529.2,227.7 L530.0,237.4 L530.8,243.7 L531.7,245.4 L532.5,244.5 L533.4,230.3 L534.2,200.5 L535.1,171.8 L535.9,155.5 L536.7,151.9 L537.6,152.8 L538.4,155.8 L539.3,159.9 L540.1,163.2 L541.0,165.8 L541.8,166.7 L542.6,160.2 L543.5,145.7 L544.3,140.4 L545.2,144.0 L546.0,156.1 L546.9,175.0 L547.7,194.0 L548.5,217.3 L549.4,227.4 L550.2,234.8 L551.1,239.8 L551.9,241.9 L552.8,239.8 L553.6,226.8 L554.4,199.6 L555.3,170.3 L556.1,154.0 L557.0,151.6 L557.8,153.1 L558.7,156.1 L559.5,160.5 L560.3,164.1 L561.2,167.6 L562.0,169.1 L562.9,163.5 L563.7,150.5 L564.6,145.4 L565.4,147.5 L566.2,162.0 L567.1,178.9 L567.9,198.7 L568.8,210.5 L569.6,229.5 L570.4,241.0 L571.3,246.9 L572.1,248.1 L573.0,247.5 L573.8,233.6 L574.7,201.4 L575.5,173.8 L576.3,159.0 L577.2,155.5 L578.0,155.8 L578.9,158.5 L579.7,161.1 L580.6,164.4 L581.4,167.0 L582.2,167.0 L583.1,159.3 L583.9,143.7 L584.8,137.4 L585.6,140.7 L586.5,152.2 L587.3,167.3 L588.1,188.0 L589.0,206.7 L589.8,220.9 L590.7,230.3 L591.5,235.4 L592.4,236.9 L593.2,234.2 L594.0,220.0 L594.9,191.0 L595.7,160.5 L596.6,144.2 L597.4,141.3 L598.3,142.2 L599.1,145.1 L599.9,149.3 L600.8,153.4 L601.6,155.5 L602.5,155.2 L603.3,149.3 L604.2,133.9 L605.0,128.9 L605.8,134.2 L606.7,146.9 L607.5,163.8 L608.4,185.4 L609.2,214.1 L610.1,225.0 L610.9,231.8 L611.7,236.9 L612.6,239.8 L613.4,244.0 L614.3,240.4 L615.1,221.5 L616.0,201.4 L616.8,183.6 L617.6,176.5 L618.5,170.3 L619.3,171.5 L620.2,173.8 L621.0,180.3 L621.9,183.3 L622.7,182.4 L623.5,176.5 L624.4,161.7 L625.2,157.9 L626.1,160.5 L626.9,168.8 L627.8,181.2 L628.6,199.0 L629.4,203.1 L630.3,228.3 L631.1,233.6 L632.0,238.0 L632.8,238.6 L633.7,236.9 L634.5,232.4 L635.3,223.2 L636.2,211.1 L637.0,199.6 L637.9,188.3 L638.7,177.1 L639.6,170.3 L640.4,175.6 L641.2,180.9 L642.1,187.7 L642.9,186.3 L643.8,183.3 L644.6,167.3 L645.4,159.6 L646.3,161.1 L647.1,172.4 L648.0,183.9 L648.8,199.0 L649.7,217.3 L650.5,228.0 L651.3,234.5 L652.2,238.9 L653.0,241.0 L653.9,238.3 L654.7,224.7 L655.6,198.7 L656.4,168.2 L657.2,151.6 L658.1,149.6 L658.9,151.6 L659.8,154.9 L660.6,159.3 L661.5,163.2 L662.3,166.4 L663.1,167.3 L664.0,161.4 L664.8,147.5 L665.7,142.5 L666.5,145.4 L667.4,159.0 L668.2,174.1 L669.0,196.0 L669.9,216.7 L670.7,230.3 L671.6,238.6 L672.4,244.5 L673.3,246.0 L674.1,244.8 L674.9,231.2 L675.8,199.9 L676.6,171.5 L677.5,156.4 L678.3,153.1 L679.2,153.7 L680.0,154.0" stroke="#9467bd" stroke-width="2" fill="none" opacity="0.8"/>
<!-- Total Generation -->
<path d="M80.0,215.6 L80.8,213.8 L81.7,223.2 L82.5,246.0 L83.4,254.3 L84.2,258.2 L85.1,266.7 L85.9,263.8 L86.7,259.0 L87.6,259.0 L88.4,238.9 L89.3,210.8 L90.1,209.3 L91.0,199.3 L91.8,214.4 L92.6,207.6 L93.5,219.1 L94.3,184.8 L95.2,162.6 L96.0,152.5 L96.9,180.3 L97.7,194.3 L98.5,215.6 L99.4,223.5 L100.2,220.3 L101.1,217.3 L101.9,221.5 L102.8,221.5 L103.6,211.7 L104.4,255.5 L105.3,242.2 L106.1,243.4 L107.0,245.7 L107.8,259.3 L108.7,238.3 L109.5,200.8 L110.3,214.7 L111.2,228.6 L112.0,212.3 L112.9,207.6 L113.7,199.9 L114.6,201.1 L115.4,205.2 L116.2,210.5 L117.1,194.0 L117.9,187.4 L118.8,195.1 L119.6,200.5 L120.4,214.1 L121.3,198.1 L122.1,195.4 L123.0,194.0 L123.8,203.1 L124.7,196.6 L125.5,200.8 L126.3,191.9 L127.2,161.1 L128.0,151.4 L128.9,155.2 L129.7,138.6 L130.6,161.7 L131.4,162.3 L132.2,153.1 L133.1,158.7 L133.9,170.0 L134.8,180.0 L135.6,188.9 L136.5,199.6 L137.3,217.3 L138.1,202.5 L139.0,193.7 L139.8,207.6 L140.7,209.0 L141.5,207.9 L142.4,209.3 L143.2,211.7 L144.0,215.3 L144.9,216.7 L145.7,215.6 L146.6,214.1 L147.4,220.3 L148.3,222.4 L149.1,220.3 L149.9,220.3 L150.8,216.1 L151.6,211.4 L152.5,204.3 L153.3,204.6 L154.2,200.5 L155.0,190.4 L155.8,182.4 L156.7,199.0 L157.5,192.2 L158.4,194.5 L159.2,206.7 L160.1,198.7 L160.9,197.5 L161.7,196.9 L162.6,179.8 L163.4,166.7 L164.3,146.0 L165.1,121.2 L166.0,113.2 L166.8,112.0 L167.6,98.4 L168.5,96.3 L169.3,104.6 L170.2,100.2 L171.0,96.9 L171.9,78.0 L172.7,67.6 L173.5,68.5 L174.4,80.0 L175.2,100.8 L176.1,99.0 L176.9,109.9 L177.8,135.7 L178.6,139.8 L179.4,102.5 L180.3,122.9 L181.1,125.3 L182.0,133.3 L182.8,133.3 L183.7,142.5 L184.5,157.0 L185.3,159.0 L186.2,165.8 L187.0,177.7 L187.9,170.9 L188.7,168.5 L189.6,168.8 L190.4,128.3 L191.2,122.9 L192.1,123.5 L192.9,114.7 L193.8,110.8 L194.6,125.3 L195.4,122.1 L196.3,140.1 L197.1,153.4 L198.0,172.9 L198.8,114.1 L199.7,146.3 L200.5,165.3 L201.3,139.8 L202.2,116.4 L203.0,149.0 L203.9,154.0 L204.7,171.2 L205.6,152.5 L206.4,185.4 L207.2,172.7 L208.1,166.4 L208.9,173.2 L209.8,164.4 L210.6,158.2 L211.5,144.8 L212.3,142.2 L213.1,148.1 L214.0,156.4 L214.8,163.2 L215.7,160.8 L216.5,170.6 L217.4,181.8 L218.2,163.8 L219.0,154.9 L219.9,163.2 L220.7,170.6 L221.6,180.0 L222.4,188.6 L223.3,189.5 L224.1,193.1 L224.9,205.8 L225.8,225.0 L226.6,253.4 L227.5,246.3 L228.3,226.8 L229.2,242.2 L230.0,249.6 L230.8,214.4 L231.7,202.8 L232.5,203.7 L233.4,172.7 L234.2,180.6 L235.1,166.7 L235.9,154.6 L236.7,123.8 L237.6,138.9 L238.4,132.7 L239.3,107.9 L240.1,112.3 L241.0,119.4 L241.8,123.8 L242.6,145.4 L243.5,149.0 L244.3,156.1 L245.2,201.9 L246.0,218.8 L246.9,218.2 L247.7,231.5 L248.5,237.4 L249.4,220.3 L250.2,208.2 L251.1,211.1 L251.9,207.3 L252.8,207.3 L253.6,195.7 L254.4,178.0 L255.3,183.6 L256.1,170.6 L257.0,174.4 L257.8,183.0 L258.7,172.7 L259.5,168.2 L260.3,211.1 L261.2,217.6 L262.0,212.9 L262.9,209.3 L263.7,209.6 L264.6,205.5 L265.4,192.8 L266.2,191.6 L267.1,174.7 L267.9,167.0 L268.8,188.9 L269.6,196.6 L270.4,168.8 L271.3,156.7 L272.1,152.5 L273.0,161.1 L273.8,165.3 L274.7,146.6 L275.5,141.3 L276.3,125.0 L277.2,137.4 L278.0,198.1 L278.9,209.6 L279.7,199.0 L280.6,210.5 L281.4,214.4 L282.2,208.7 L283.1,200.2 L283.9,223.2 L284.8,222.1 L285.6,227.4 L286.5,233.6 L287.3,255.5 L288.1,253.1 L289.0,235.7 L289.8,236.3 L290.7,235.7 L291.5,235.4 L292.4,238.3 L293.2,242.5 L294.0,228.9 L294.9,241.9 L295.7,207.3 L296.6,203.4 L297.4,199.3 L298.3,204.0 L299.1,207.9 L299.9,211.7 L300.8,225.9 L301.6,236.3 L302.5,244.5 L303.3,251.4 L304.2,254.6 L305.0,253.4 L305.8,245.1 L306.7,241.0 L307.5,244.3 L308.4,235.7 L309.2,231.8 L310.1,196.9 L310.9,201.1 L311.7,207.0 L312.6,197.8 L313.4,194.8 L314.3,190.7 L315.1,185.7 L316.0,172.4 L316.8,158.5 L317.6,153.7 L318.5,154.0 L319.3,159.3 L320.2,158.7 L321.0,159.3 L321.9,167.6 L322.7,167.9 L323.5,170.3 L324.4,177.7 L325.2,184.2 L326.1,204.6 L326.9,184.8 L327.8,215.6 L328.6,210.8 L329.4,224.4 L330.3,230.6 L331.1,229.5 L332.0,229.8 L332.8,228.0 L333.7,226.2 L334.5,212.0 L335.3,219.7 L336.2,208.2 L337.0,205.8 L337.9,204.0 L338.7,207.9 L339.6,223.5 L340.4,223.0 L341.2,223.0 L342.1,226.2 L342.9,229.5 L343.8,229.2 L344.6,230.1 L345.4,235.1 L346.3,233.9 L347.1,236.3 L348.0,232.1 L348.8,230.6 L349.7,229.8 L350.5,235.7 L351.3,238.3 L352.2,239.5 L353.0,245.7 L353.9,248.1 L354.7,238.3 L355.6,227.4 L356.4,224.4 L357.2,223.2 L358.1,206.1 L358.9,189.5 L359.8,200.2 L360.6,197.5 L361.5,189.2 L362.3,181.5 L363.1,183.9 L364.0,174.1 L364.8,169.1 L365.7,164.4 L366.5,146.3 L367.4,152.2 L368.2,171.2 L369.0,172.7 L369.9,173.2 L370.7,137.4 L371.6,133.3 L372.4,136.6 L373.3,131.5 L374.1,135.4 L374.9,121.2 L375.8,117.6 L376.6,125.9 L377.5,119.7 L378.3,113.8 L379.2,131.2 L380.0,144.2 L380.8,126.5 L381.7,122.1 L382.5,128.6 L383.4,133.6 L384.2,125.3 L385.1,141.3 L385.9,159.0 L386.7,173.2 L387.6,157.3 L388.4,157.9 L389.3,171.5 L390.1,170.6 L391.0,162.6 L391.8,158.5 L392.6,140.1 L393.5,127.1 L394.3,173.5 L395.2,188.9 L396.0,206.4 L396.9,182.1 L397.7,160.8 L398.5,198.4 L399.4,182.7 L400.2,191.9 L401.1,159.9 L401.9,148.1 L402.8,185.4 L403.6,206.1 L404.4,184.8 L405.3,192.8 L406.1,191.6 L407.0,179.8 L407.8,199.6 L408.7,216.7 L409.5,220.3 L410.3,219.1 L411.2,236.9 L412.0,222.1 L412.9,214.7 L413.7,216.4 L414.6,210.8 L415.4,217.3 L416.2,217.3 L417.1,191.6 L417.9,174.7 L418.8,170.3 L419.6,163.5 L420.4,168.8 L421.3,160.5 L422.1,157.0 L423.0,157.0 L423.8,159.6 L424.7,158.2 L425.5,162.0 L426.3,174.1 L427.2,201.4 L428.0,193.4 L428.9,196.9 L429.7,202.2 L430.6,188.6 L431.4,188.6 L432.2,186.9 L433.1,156.4 L433.9,156.7 L434.8,171.2 L435.6,180.3 L436.5,183.9 L437.3,178.6 L438.1,189.8 L439.0,183.0 L439.8,175.9 L440.7,174.1 L441.5,145.7 L442.4,170.0 L443.2,151.9 L444.0,159.9 L444.9,170.0 L445.7,166.4 L446.6,176.8 L447.4,190.7 L448.3,195.7 L449.1,198.7 L449.9,184.8 L450.8,192.8 L451.6,216.1 L452.5,228.3 L453.3,224.1 L454.2,240.7 L455.0,237.7 L455.8,218.2 L456.7,206.1 L457.5,189.5 L458.4,183.6 L459.2,163.5 L460.1,170.0 L460.9,175.3 L461.7,192.5 L462.6,237.2 L463.4,236.3 L464.3,237.4 L465.1,286.6 L466.0,288.0 L466.8,286.9 L467.6,277.7 L468.5,258.8 L469.3,222.4 L470.2,209.0 L471.0,205.5 L471.9,223.2 L472.7,236.6 L473.5,235.7 L474.4,239.5 L475.2,240.1 L476.1,227.1 L476.9,232.4 L477.8,221.8 L478.6,217.3 L479.4,233.0 L480.3,251.4 L481.1,278.9 L482.0,258.8 L482.8,255.8 L483.7,236.9 L484.5,215.0 L485.3,187.2 L486.2,170.0 L487.0,165.0 L487.9,176.2 L488.7,165.0 L489.6,167.6 L490.4,170.3 L491.2,169.4 L492.1,168.2 L492.9,167.6 L493.8,167.3 L494.6,154.6 L495.4,179.5 L496.3,165.3 L497.1,159.3 L498.0,185.1 L498.8,192.2 L499.7,157.6 L500.5,157.9 L501.3,175.0 L502.2,144.2 L503.0,144.5 L503.9,189.8 L504.7,175.9 L505.6,176.2 L506.4,177.7 L507.2,188.6 L508.1,167.6 L508.9,177.4 L509.8,181.2 L510.6,177.4 L511.5,179.8 L512.3,177.1 L513.1,178.9 L514.0,147.8 L514.8,157.0 L515.7,189.2 L516.5,172.1 L517.4,183.6 L518.2,163.5 L519.0,182.4 L519.9,179.2 L520.7,189.2 L521.6,185.4 L522.4,134.8 L523.3,161.4 L524.1,162.9 L524.9,172.9 L525.8,171.2 L526.6,174.4 L527.5,187.4 L528.3,179.2 L529.2,202.5 L530.0,209.9 L530.8,216.1 L531.7,249.0 L532.5,245.4 L533.4,190.1 L534.2,183.0 L535.1,178.9 L535.9,175.6 L536.7,187.2 L537.6,201.6 L538.4,205.2 L539.3,194.8 L540.1,192.2 L541.0,199.6 L541.8,228.3 L542.6,202.5 L543.5,162.0 L544.3,136.0 L545.2,180.6 L546.0,191.0 L546.9,186.0 L547.7,217.6 L548.5,220.3 L549.4,248.7 L550.2,258.8 L551.1,248.7 L551.9,246.6 L552.8,244.5 L553.6,254.9 L554.4,224.1 L555.3,204.9 L556.1,230.9 L557.0,236.0 L557.8,237.4 L558.7,212.6 L559.5,189.8 L560.3,177.4 L561.2,203.1 L562.0,196.9 L562.9,190.7 L563.7,189.2 L564.6,175.6 L565.4,180.3 L566.2,177.7 L567.1,179.2 L567.9,183.6 L568.8,181.5 L569.6,181.5 L570.4,187.2 L571.3,187.2 L572.1,189.8 L573.0,199.6 L573.8,185.1 L574.7,151.6 L575.5,143.1 L576.3,169.7 L577.2,153.1 L578.0,144.2 L578.9,132.1 L579.7,140.1 L580.6,145.4 L581.4,158.7 L582.2,152.8 L583.1,129.8 L583.9,160.8 L584.8,186.9 L585.6,172.4 L586.5,174.7 L587.3,188.9 L588.1,183.0 L589.0,204.6 L589.8,238.6 L590.7,248.1 L591.5,258.2 L592.4,254.9 L593.2,243.1 L594.0,220.3 L594.9,210.8 L595.7,206.1 L596.6,238.9 L597.4,231.5 L598.3,230.6 L599.1,229.5 L599.9,228.3 L600.8,229.2 L601.6,224.1 L602.5,231.5 L603.3,194.5 L604.2,196.0 L605.0,202.5 L605.8,213.2 L606.7,209.3 L607.5,167.3 L608.4,170.6 L609.2,177.7 L610.1,169.4 L610.9,155.8 L611.7,159.3 L612.6,170.6 L613.4,180.9 L614.3,183.9 L615.1,227.1 L616.0,242.2 L616.8,238.0 L617.6,229.8 L618.5,230.6 L619.3,236.6 L620.2,241.6 L621.0,233.0 L621.9,229.2 L622.7,216.1 L623.5,186.3 L624.4,155.8 L625.2,176.5 L626.1,182.1 L626.9,135.7 L627.8,132.7 L628.6,141.6 L629.4,148.1 L630.3,143.7 L631.1,164.1 L632.0,180.3 L632.8,164.4 L633.7,142.5 L634.5,120.0 L635.3,119.7 L636.2,135.1 L637.0,152.8 L637.9,145.7 L638.7,149.9 L639.6,146.3 L640.4,135.1 L641.2,143.1 L642.1,159.0 L642.9,164.7 L643.8,157.9 L644.6,142.2 L645.4,184.8 L646.3,161.7 L647.1,138.9 L648.0,134.5 L648.8,133.3 L649.7,138.9 L650.5,128.3 L651.3,177.7 L652.2,200.2 L653.0,200.2 L653.9,185.4 L654.7,162.0 L655.6,135.1 L656.4,153.7 L657.2,154.0 L658.1,135.1 L658.9,135.4 L659.8,139.2 L660.6,153.4 L661.5,141.9 L662.3,133.0 L663.1,122.7 L664.0,138.6 L664.8,117.3 L665.7,126.8 L666.5,138.0 L667.4,167.0 L668.2,200.2 L669.0,190.1 L669.9,188.0 L670.7,184.8 L671.6,194.8 L672.4,194.8 L673.3,210.5 L674.1,204.6 L674.9,216.4 L675.8,222.1 L676.6,202.2 L677.5,178.6 L678.3,183.3 L679.2,186.3 L680.0,173.8" stroke="#8c564b" stroke-width="2" fill="none" opacity="0.8"/>
<!-- Forecast Difference -->
<path d="M80.0,420.0 L80.8,420.0 L81.7,420.0 L82.5,420.0 L83.4,420.0 L84.2,420.0 L85.1,420.0 L85.9,420.0 L86.7,420.0 L87.6,420.0 L88.4,420.0 L89.3,420.0 L90.1,420.0 L91.0,420.0 L91.8,420.0 L92.6,420.0 L93.5,420.0 L94.3,420.0 L95.2,420.0 L96.0,420.0 L96.9,420.0 L97.7,420.0 L98.5,420.0 L99.4,420.0 L100.2,420.0 L101.1,420.0 L101.9,420.0 L102.8,420.0 L103.6,420.0 L104.4,420.0 L105.3,420.0 L106.1,420.0 L107.0,420.0 L107.8,420.0 L108.7,420.0 L109.5,420.0 L110.3,420.0 L111.2,420.0 L112.0,420.0 L112.9,420.0 L113.7,420.0 L114.6,420.0 L115.4,420.0 L116.2,420.0 L117.1,420.0 L117.9,420.0 L118.8,420.0 L119.6,420.0 L120.4,420.0 L121.3,420.0 L122.1,420.0 L123.0,420.0 L123.8,420.0 L124.7,420.0 L125.5,420.0 L126.3,420.0 L127.2,420.0 L128.0,420.0 L128.9,420.0 L129.7,420.0 L130.6,420.0 L131.4,420.0 L132.2,420.0 L133.1,420.0 L133.9,420.0 L134.8,420.0 L135.6,420.0 L136.5,420.0 L137.3,420.0 L138.1,420.0 L139.0,420.0 L139.8,420.0 L140.7,420.0 L141.5,420.0 L142.4,420.0 L143.2,420.0 L144.0,420.0 L144.9,420.0 L145.7,420.0 L146.6,420.0 L147.4,420.0 L148.3,420.0 L149.1,420.0 L149.9,420.0 L150.8,420.0 L151.6,420.0 L152.5,420.0 L153.3,420.0 L154.2,420.0 L155.0,420.0 L155.8,420.0 L156.7,420.0 L157.5,420.0 L158.4,420.0 L159.2,420.0 L160.1,420.0 L160.9,420.0 L161.7,420.0 L162.6,420.0 L163.4,420.0 L164.3,420.0 L165.1,420.0 L166.0,420.0 L166.8,420.0 L167.6,420.0 L168.5,420.0 L169.3,420.0 L170.2,420.0 L171.0,420.0 L171.9,420.0 L172.7,420.0 L173.5,420.0 L174.4,420.0 L175.2,420.0 L176.1,420.0 L176.9,420.0 L177.8,420.0 L178.6,420.0 L179.4,420.0 L180.3,420.0 L181.1,420.0 L182.0,420.0 L182.8,420.0 L183.7,420.0 L184.5,420.0 L185.3,420.0 L186.2,420.0 L187.0,420.0 L187.9,420.0 L188.7,420.0 L189.6,420.0 L190.4,420.0 L191.2,420.0 L192.1,420.0 L192.9,420.0 L193.8,420.0 L194.6,420.0 L195.4,420.0 L196.3,420.0 L197.1,420.0 L198.0,420.0 L198.8,420.0 L199.7,420.0 L200.5,420.0 L201.3,420.0 L202.2,420.0 L203.0,420.0 L203.9,420.0 L204.7,420.0 L205.6,420.0 L206.4,420.0 L207.2,420.0 L208.1,420.0 L208.9,420.0 L209.8,420.0 L210.6,420.0 L211.5,420.0 L212.3,420.0 L213.1,420.0 L214.0,420.0 L214.8,420.0 L215.7,420.0 L216.5,420.0 L217.4,420.0 L218.2,420.0 L219.0,420.0 L219.9,420.0 L220.7,420.0 L221.6,420.0 L222.4,420.0 L223.3,420.0 L224.1,420.0 L224.9,420.0 L225.8,420.0 L226.6,420.0 L227.5,420.0 L228.3,420.0 L229.2,420.0 L230.0,420.0 L230.8,420.0 L231.7,420.0 L232.5,420.0 L233.4,420.0 L234.2,420.0 L235.1,420.0 L235.9,420.0 L236.7,420.0 L237.6,420.0 L238.4,420.0 L239.3,420.0 L240.1,420.0 L241.0,420.0 L241.8,420.0 L242.6,420.0 L243.5,420.0 L244.3,420.0 L245.2,420.0 L246.0,420.0 L246.9,420.0 L247.7,420.0 L248.5,420.0 L249.4,420.0 L250.2,420.0 L251.1,420.0 L251.9,420.0 L252.8,420.0 L253.6,420.0 L254.4,420.0 L255.3,420.0 L256.1,420.0 L257.0,420.0 L257.8,420.0 L258.7,420.0 L259.5,420.0 L260.3,420.0 L261.2,420.0 L262.0,420.0 L262.9,420.0 L263.7,420.0 L264.6,420.0 L265.4,420.0 L266.2,420.0 L267.1,420.0 L267.9,420.0 L268.8,420.0 L269.6,420.0 L270.4,420.0 L271.3,420.0 L272.1,420.0 L273.0,420.0 L273.8,420.0 L274.7,420.0 L275.5,420.0 L276.3,420.0 L277.2,420.0 L278.0,420.0 L278.9,420.0 L279.7,420.0 L280.6,420.0 L281.4,420.0 L282.2,420.0 L283.1,420.0 L283.9,420.0 L284.8,420.0 L285.6,420.0 L286.5,420.0 L287.3,420.0 L288.1,420.0 L289.0,420.0 L289.8,420.0 L290.7,420.0 L291.5,420.0 L292.4,420.0 L293.2,420.0 L294.0,420.0 L294.9,420.0 L295.7,420.0 L296.6,420.0 L297.4,420.0 L298.3,420.0 L299.1,420.0 L299.9,420.0 L300.8,420.0 L301.6,420.0 L302.5,420.0 L303.3,420.0 L304.2,420.0 L305.0,420.0 L305.8,420.0 L306.7,420.0 L307.5,420.0 L308.4,420.0 L309.2,420.0 L310.1,420.0 L310.9,420.0 L311.7,420.0 L312.6,420.0 L313.4,420.0 L314.3,420.0 L315.1,420.0 L316.0,420.0 L316.8,420.0 L317.6,420.0 L318.5,420.0 L319.3,420.0 L320.2,420.0 L321.0,420.0 L321.9,420.0 L322.7,420.0 L323.5,420.0 L324.4,420.0 L325.2,420.0 L326.1,420.0 L326.9,420.0 L327.8,420.0 L328.6,420.0 L329.4,420.0 L330.3,420.0 L331.1,420.0 L332.0,420.0 L332.8,420.0 L333.7,420.0 L334.5,420.0 L335.3,420.0 L336.2,420.0 L337.0,420.0 L337.9,420.0 L338.7,420.0 L339.6,420.0 L340.4,420.0 L341.2,420.0 L342.1,420.0 L342.9,420.0 L343.8,420.0 L344.6,420.0 L345.4,420.0 L346.3,420.0 L347.1,420.0 L348.0,420.0 L348.8,420.0 L349.7,420.0 L350.5,420.0 L351.3,420.0 L352.2,420.0 L353.0,420.0 L353.9,420.0 L354.7,420.0 L355.6,420.0 L356.4,420.0 L357.2,420.0 L358.1,420.0 L358.9,420.0 L359.8,420.0 L360.6,420.0 L361.5,420.0 L362.3,420.0 L363.1,420.0 L364.0,420.0 L364.8,420.0 L365.7,420.0 L366.5,420.0 L367.4,420.0 L368.2,420.0 L369.0,420.0 L369.9,420.0 L370.7,420.0 L371.6,420.0 L372.4,420.0 L373.3,420.0 L374.1,420.0 L374.9,420.0 L375.8,420.0 L376.6,420.0 L377.5,420.0 L378.3,420.0 L379.2,420.0 L380.0,420.0 L380.8,420.0 L381.7,420.0 L382.5,420.0 L383.4,420.0 L384.2,420.0 L385.1,420.0 L385.9,420.0 L386.7,420.0 L387.6,420.0 L388.4,420.0 L389.3,420.0 L390.1,420.0 L391.0,420.0 L391.8,420.0 L392.6,420.0 L393.5,420.0 L394.3,420.0 L395.2,420.0 L396.0,420.0 L396.9,420.0 L397.7,420.0 L398.5,420.0 L399.4,420.0 L400.2,420.0 L401.1,420.0 L401.9,420.0 L402.8,420.0 L403.6,420.0 L404.4,420.0 L405.3,420.0 L406.1,420.0 L407.0,420.0 L407.8,420.0 L408.7,420.0 L409.5,420.0 L410.3,420.0 L411.2,420.0 L412.0,420.0 L412.9,420.0 L413.7,420.0 L414.6,420.0 L415.4,420.0 L416.2,420.0 L417.1,420.0 L417.9,420.0 L418.8,420.0 L419.6,420.0 L420.4,420.0 L421.3,420.0 L422.1,420.0 L423.0,420.0 L423.8,420.0 L424.7,420.0 L425.5,420.0 L426.3,420.0 L427.2,420.0 L428.0,420.0 L428.9,420.0 L429.7,420.0 L430.6,420.0 L431.4,420.0 L432.2,420.0 L433.1,420.0 L433.9,420.0 L434.8,420.0 L435.6,420.0 L436.5,420.0 L437.3,420.0 L438.1,420.0 L439.0,420.0 L439.8,420.0 L440.7,420.0 L441.5,420.0 L442.4,420.0 L443.2,420.0 L444.0,420.0 L444.9,420.0 L445.7,420.0 L446.6,420.0 L447.4,420.0 L448.3,420.0 L449.1,420.0 L449.9,420.0 L450.8,420.0 L451.6,420.0 L452.5,420.0 L453.3,420.0 L454.2,420.0 L455.0,420.0 L455.8,420.0 L456.7,420.0 L457.5,420.0 L458.4,420.0 L459.2,420.0 L460.1,420.0 L460.9,420.0 L461.7,420.0 L462.6,420.0 L463.4,420.0 L464.3,420.0 L465.1,420.0 L466.0,420.0 L466.8,420.0 L467.6,420.0 L468.5,420.0 L469.3,420.0 L470.2,420.0 L471.0,420.0 L471.9,420.0 L472.7,420.0 L473.5,420.0 L474.4,420.0 L475.2,420.0 L476.1,420.0 L476.9,420.0 L477.8,420.0 L478.6,420.0 L479.4,420.0 L480.3,420.0 L481.1,420.0 L482.0,420.0 L482.8,420.0 L483.7,420.0 L484.5,420.0 L485.3,420.0 L486.2,420.0 L487.0,420.0 L487.9,420.0 L488.7,420.0 L489.6,420.0 L490.4,420.0 L491.2,420.0 L492.1,420.0 L492.9,420.0 L493.8,420.0 L494.6,420.0 L495.4,420.0 L496.3,420.0 L497.1,420.0 L498.0,420.0 L498.8,420.0 L499.7,420.0 L500.5,420.0 L501.3,420.0 L502.2,420.0 L503.0,420.0 L503.9,420.0 L504.7,420.0 L505.6,420.0 L506.4,420.0 L507.2,420.0 L508.1,420.0 L508.9,420.0 L509.8,420.0 L510.6,420.0 L511.5,420.0 L512.3,420.0 L513.1,420.0 L514.0,420.0 L514.8,420.0 L515.7,420.0 L516.5,420.0 L517.4,420.0 L518.2,420.0 L519.0,420.0 L519.9,420.0 L520.7,420.0 L521.6,420.0 L522.4,420.0 L523.3,420.0 L524.1,420.0 L524.9,420.0 L525.8,420.0 L526.6,420.0 L527.5,420.0 L528.3,420.0 L529.2,420.0 L530.0,420.0 L530.8,420.0 L531.7,420.0 L532.5,420.0 L533.4,420.0 L534.2,420.0 L535.1,420.0 L535.9,420.0 L536.7,420.0 L537.6,420.0 L538.4,420.0 L539.3,420.0 L540.1,420.0 L541.0,420.0 L541.8,420.0 L542.6,420.0 L543.5,420.0 L544.3,420.0 L545.2,420.0 L546.0,420.0 L546.9,420.0 L547.7,420.0 L548.5,420.0 L549.4,420.0 L550.2,420.0 L551.1,420.0 L551.9,420.0 L552.8,420.0 L553.6,420.0 L554.4,420.0 L555.3,420.0 L556.1,420.0 L557.0,420.0 L557.8,420.0 L558.7,420.0 L559.5,420.0 L560.3,420.0 L561.2,420.0 L562.0,420.0 L562.9,420.0 L563.7,420.0 L564.6,420.0 L565.4,420.0 L566.2,420.0 L567.1,420.0 L567.9,420.0 L568.8,420.0 L569.6,420.0 L570.4,420.0 L571.3,420.0 L572.1,420.0 L573.0,420.0 L573.8,420.0 L574.7,420.0 L575.5,420.0 L576.3,420.0 L577.2,420.0 L578.0,420.0 L578.9,420.0 L579.7,420.0 L580.6,420.0 L581.4,420.0 L582.2,420.0 L583.1,420.0 L583.9,420.0 L584.8,420.0 L585.6,420.0 L586.5,420.0 L587.3,420.0 L588.1,420.0 L589.0,420.0 L589.8,420.0 L590.7,420.0 L591.5,420.0 L592.4,420.0 L593.2,420.0 L594.0,420.0 L594.9,420.0 L595.7,420.0 L596.6,420.0 L597.4,420.0 L598.3,420.0 L599.1,420.0 L599.9,420.0 L600.8,420.0 L601.6,420.0 L602.5,420.0 L603.3,420.0 L604.2,420.0 L605.0,420.0 L605.8,420.0 L606.7,420.0 L607.5,420.0 L608.4,420.0 L609.2,420.0 L610.1,420.0 L610.9,420.0 L611.7,420.0 L612.6,420.0 L613.4,420.0 L614.3,420.0 L615.1,420.0 L616.0,420.0 L616.8,420.0 L617.6,420.0 L618.5,420.0 L619.3,420.0 L620.2,420.0 L621.0,420.0 L621.9,420.0 L622.7,420.0 L623.5,420.0 L624.4,420.0 L625.2,420.0 L626.1,420.0 L626.9,420.0 L627.8,420.0 L628.6,420.0 L629.4,420.0 L630.3,420.0 L631.1,420.0 L632.0,420.0 L632.8,420.0 L633.7,420.0 L634.5,420.0 L635.3,420.0 L636.2,420.0 L637.0,420.0 L637.9,420.0 L638.7,420.0 L639.6,420.0 L640.4,420.0 L641.2,420.0 L642.1,420.0 L642.9,420.0 L643.8,420.0 L644.6,420.0 L645.4,420.0 L646.3,420.0 L647.1,420.0 L648.0,420.0 L648.8,420.0 L649.7,420.0 L650.5,420.0 L651.3,420.0 L652.2,420.0 L653.0,420.0 L653.9,420.0 L654.7,420.0 L655.6,420.0 L656.4,420.0 L657.2,420.0 L658.1,420.0 L658.9,420.0 L659.8,420.0 L660.6,420.0 L661.5,420.0 L662.3,420.0 L663.1,420.0 L664.0,420.0 L664.8,420.0 L665.7,420.0 L666.5,420.0 L667.4,420.0 L668.2,420.0 L669.0,420.0 L669.9,420.0 L670.7,420.0 L671.6,420.0 L672.4,420.0 L673.3,420.0 L674.1,420.0 L674.9,420.0 L675.8,420.0 L676.6,420.0 L677.5,420.0 L678.3,420.0 L679.2,420.0 L680.0,420.0" stroke="#e377c2" stroke-width="2" fill="none" opacity="0.8"/>

<!-- Legend -->
<line x1="690" y1="70" x2="705" y2="70" stroke="#1f77b4" stroke-width="3"/>
<text x="710" y="74" class="legend">Wind Generation</text>
<line x1="690" y1="88" x2="705" y2="88" stroke="#ff7f0e" stroke-width="3"/>
<text x="710" y="92" class="legend">Hydro Generation</text>
<line x1="690" y1="106" x2="705" y2="106" stroke="#2ca02c" stroke-width="3"/>
<text x="710" y="110" class="legend">Thermal Generation</text>
<line x1="690" y1="124" x2="705" y2="124" stroke="#d62728" stroke-width="3"/>
<text x="710" y="128" class="legend">Solar Generation</text>
<line x1="690" y1="142" x2="705" y2="142" stroke="#9467bd" stroke-width="3"/>
<text x="710" y="146" class="legend">Forecast</text>
<line x1="690" y1="160" x2="705" y2="160" stroke="#8c564b" stroke-width="3"/>
<text x="710" y="164" class="legend">Total Generation</text>
<line x1="690" y1="178" x2="705" y2="178" stroke="#e377c2" stroke-width="3"/>
<text x="710" y="182" class="legend">Forecast Difference</text>

<!-- Date range -->
<text x="80" y="495" class="legend">Range: 11/16 - 12/16/2025 (713 records)</text>
</svg>