<?xml version="1.0" encoding="UTF-8"?>
<svg width="800" height="500" xmlns="http://www.w3.org/2000/svg">
<style>
.axis-line { stroke: #333; stroke-width: 1; }
.grid-line { stroke: #ddd; stroke-width: 0.5; }
.title { font: 16px Arial; text-anchor: middle; fill: #333; }
.axis-label { font: 12px Arial; text-anchor: middle; fill: #666; }
.legend { font: 10px Arial; fill: #333; }
</style>

<!-- Title -->
<text x="400.0" y="25" class="title">Northwestern Energy Generation Data - Past 30 Days</text>

<!-- Plot area background -->
<rect x="80" y="50" width="600" height="370" fill="white" stroke="#ddd"/>

<!-- Y-axis -->
<line x1="80" y1="50" x2="80" y2="420" class="axis-line"/>
<text x="30" y="235.0" class="axis-label" transform="rotate(-90, 30, 235.0)">Generation (MW)</text>

<!-- X-axis -->
<line x1="80" y1="420" x2="680" y2="420" class="axis-line"/>
<text x="380.0" y="480" class="axis-label">Time</text>
<line x1="80" y1="420.0" x2="680" y2="420.0" class="grid-line"/>
<text x="70" y="425.0" class="legend" text-anchor="end">0</text>
<line x1="80" y1="327.5" x2="680" y2="327.5" class="grid-line"/>
<text x="70" y="332.5" class="legend" text-anchor="end">313</text>
<line x1="80" y1="235.0" x2="680" y2="235.0" class="grid-line"/>
<text x="70" y="240.0" class="legend" text-anchor="end">625</text>
<line x1="80" y1="142.5" x2="680" y2="142.5" class="grid-line"/>
<text x="70" y="147.5" class="legend" text-anchor="end">938</text>
<line x1="80" y1="50.0" x2="680" y2="50.0" class="grid-line"/>
<text x="70" y="55.0" class="legend" text-anchor="end">1251</text>
<!-- Wind Generation -->
<path d="M80.0,336.6 L80.8,348.4 L81.7,358.5 L82.5,341.9 L83.4,337.5 L84.2,349.9 L85.1,352.2 L85.9,365.3 L86.7,361.7 L87.6,352.5 L88.4,390.1 L89.3,397.2 L90.1,406.7 L91.0,411.7 L91.8,411.7 L92.6,410.2 L93.5,410.8 L94.3,415.0 L95.2,416.2 L96.0,413.2 L96.9,412.0 L97.7,410.2 L98.5,411.4 L99.4,412.9 L100.2,416.7 L101.1,416.7 L101.9,416.4 L102.8,416.2 L103.6,412.9 L104.4,412.0 L105.3,414.1 L106.1,409.3 L107.0,413.5 L107.8,412.3 L108.7,408.8 L109.5,410.2 L110.3,391.3 L111.2,369.4 L112.0,344.6 L112.9,340.4 L113.7,298.4 L114.6,308.5 L115.4,324.1 L116.2,304.6 L117.1,333.3 L117.9,331.8 L118.8,333.9 L119.6,309.0 L120.4,307.6 L121.3,330.6 L122.1,301.4 L123.0,293.4 L123.8,291.6 L124.7,294.8 L125.5,296.6 L126.3,295.7 L127.2,293.7 L128.0,294.8 L128.9,294.6 L129.7,299.9 L130.6,293.1 L131.4,296.9 L132.2,300.2 L133.1,297.5 L133.9,299.3 L134.8,322.1 L135.6,331.5 L136.5,330.9 L137.3,314.7 L138.1,343.7 L139.0,342.8 L139.8,355.5 L140.7,350.2 L141.5,345.4 L142.4,323.5 L143.2,299.0 L144.0,299.6 L144.9,299.3 L145.7,299.3 L146.6,300.8 L147.4,300.2 L148.3,300.2 L149.1,298.7 L149.9,299.9 L150.8,299.6 L151.6,297.8 L152.5,304.3 L153.3,297.8 L154.2,297.2 L155.0,296.9 L155.8,299.0 L156.7,302.2 L157.5,302.5 L158.4,302.2 L159.2,309.9 L160.1,318.2 L160.9,320.0 L161.7,332.7 L162.6,320.6 L163.4,341.0 L164.3,351.9 L165.1,364.1 L166.0,373.5 L166.8,378.6 L167.6,380.1 L168.5,391.0 L169.3,404.6 L170.2,414.1 L171.0,417.0 L171.9,418.5 L172.7,416.4 L173.5,418.2 L174.4,417.9 L175.2,417.6 L176.1,416.4 L176.9,416.2 L177.8,408.2 L178.6,404.6 L179.4,400.5 L180.3,390.1 L181.1,391.6 L182.0,391.9 L182.8,403.7 L183.7,397.5 L184.5,397.2 L185.3,391.6 L186.2,383.9 L187.0,377.7 L187.9,385.1 L188.7,390.1 L189.6,388.6 L190.4,363.8 L191.2,350.2 L192.1,336.0 L192.9,315.9 L193.8,317.6 L194.6,310.5 L195.4,304.6 L196.3,301.9 L197.1,302.2 L198.0,308.5 L198.8,318.5 L199.7,312.9 L200.5,317.6 L201.3,306.7 L202.2,307.3 L203.0,323.8 L203.9,324.1 L204.7,301.9 L205.6,311.4 L206.4,318.5 L207.2,330.1 L208.1,341.9 L208.9,342.2 L209.8,340.4 L210.6,324.7 L211.5,331.5 L212.3,310.2 L213.1,304.0 L214.0,310.8 L214.8,302.8 L215.7,308.5 L216.5,303.1 L217.4,299.3 L218.2,303.7 L219.0,302.2 L219.9,314.7 L220.7,304.0 L221.6,307.9 L222.4,300.2 L223.3,299.9 L224.1,299.0 L224.9,298.7 L225.8,298.1 L226.6,300.2 L227.5,299.9 L228.3,307.6 L229.2,326.5 L230.0,327.4 L230.8,341.9 L231.7,374.7 L232.5,379.8 L233.4,389.2 L234.2,392.8 L235.1,400.2 L235.9,411.7 L236.7,412.0 L237.6,414.7 L238.4,412.9 L239.3,415.3 L240.1,411.1 L241.0,408.5 L241.8,407.0 L242.6,397.5 L243.5,391.6 L244.3,383.0 L245.2,367.6 L246.0,351.9 L246.9,349.6 L247.7,362.6 L248.5,395.4 L249.4,411.1 L250.2,414.4 L251.1,417.9 L251.9,417.9 L252.8,409.6 L253.6,409.3 L254.4,399.6 L255.3,350.2 L256.1,346.6 L257.0,341.6 L257.8,340.4 L258.7,340.1 L259.5,328.3 L260.3,357.6 L261.2,385.4 L262.0,366.7 L262.9,373.8 L263.7,372.4 L264.6,378.3 L265.4,371.8 L266.2,369.7 L267.1,370.3 L267.9,351.9 L268.8,359.3 L269.6,351.1 L270.4,349.0 L271.3,337.5 L272.1,357.0 L273.0,354.6 L273.8,365.3 L274.7,358.2 L275.5,368.5 L276.3,339.5 L277.2,350.2 L278.0,328.0 L278.9,329.8 L279.7,335.4 L280.6,321.2 L281.4,318.5 L282.2,316.1 L283.1,360.2 L283.9,344.6 L284.8,348.7 L285.6,353.4 L286.5,360.2 L287.3,365.3 L288.1,366.2 L289.0,343.7 L289.8,356.4 L290.7,350.8 L291.5,333.3 L292.4,324.7 L293.2,334.8 L294.0,330.4 L294.9,312.0 L295.7,311.1 L296.6,311.7 L297.4,314.1 L298.3,319.1 L299.1,320.6 L299.9,352.5 L300.8,358.8 L301.6,335.7 L302.5,346.6 L303.3,337.7 L304.2,334.5 L305.0,309.9 L305.8,300.8 L306.7,301.1 L307.5,299.6 L308.4,301.7 L309.2,301.7 L310.1,325.3 L310.9,362.9 L311.7,385.4 L312.6,398.7 L313.4,410.2 L314.3,404.0 L315.1,407.3 L316.0,413.5 L316.8,415.6 L317.6,416.4 L318.5,417.6 L319.3,415.0 L320.2,412.9 L321.0,411.1 L321.9,407.9 L322.7,410.2 L323.5,415.0 L324.4,418.2 L325.2,416.2 L326.1,419.1 L326.9,418.2 L327.8,418.5 L328.6,415.0 L329.4,415.6 L330.3,415.3 L331.1,409.3 L332.0,412.3 L332.8,415.6 L333.7,415.0 L334.5,417.3 L335.3,416.7 L336.2,417.3 L337.0,417.9 L337.9,418.8 L338.7,415.6 L339.6,414.1 L340.4,414.1 L341.2,410.8 L342.1,408.2 L342.9,407.3 L343.8,406.7 L344.6,406.4 L345.4,403.1 L346.3,400.2 L347.1,390.1 L348.0,385.4 L348.8,372.4 L349.7,372.4 L350.5,373.8 L351.3,386.3 L352.2,393.4 L353.0,392.2 L353.9,388.6 L354.7,388.6 L355.6,376.5 L356.4,367.3 L357.2,387.2 L358.1,371.5 L358.9,383.6 L359.8,386.6 L360.6,399.3 L361.5,395.1 L362.3,393.1 L363.1,389.5 L364.0,407.3 L364.8,404.9 L365.7,392.2 L366.5,387.5 L367.4,379.2 L368.2,378.3 L369.0,375.6 L369.9,380.9 L370.7,383.9 L371.6,397.2 L372.4,403.4 L373.3,403.7 L374.1,388.3 L374.9,385.1 L375.8,382.1 L376.6,387.5 L377.5,381.5 L378.3,386.3 L379.2,377.4 L380.0,358.5 L380.8,348.7 L381.7,352.5 L382.5,341.6 L383.4,351.4 L384.2,348.7 L385.1,348.7 L385.9,352.2 L386.7,359.6 L387.6,373.5 L388.4,383.9 L389.3,391.6 L390.1,399.9 L391.0,400.2 L391.8,394.0 L392.6,408.2 L393.5,407.9 L394.3,404.0 L395.2,408.5 L396.0,411.1 L396.9,414.4 L397.7,416.7 L398.5,415.9 L399.4,414.7 L400.2,418.5 L401.1,419.1 L401.9,417.6 L402.8,415.9 L403.6,415.3 L404.4,415.3 L405.3,417.0 L406.1,415.0 L407.0,413.8 L407.8,409.9 L408.7,408.8 L409.5,407.3 L410.3,403.1 L411.2,394.6 L412.0,405.2 L412.9,400.5 L413.7,398.4 L414.6,396.6 L415.4,382.7 L416.2,368.5 L417.1,342.8 L417.9,312.0 L418.8,304.6 L419.6,301.9 L420.4,297.2 L421.3,299.0 L422.1,303.7 L423.0,300.5 L423.8,293.4 L424.7,295.1 L425.5,292.5 L426.3,289.5 L427.2,290.4 L428.0,290.4 L428.9,291.3 L429.7,290.7 L430.6,294.8 L431.4,296.3 L432.2,298.1 L433.1,302.5 L433.9,305.5 L434.8,307.6 L435.6,297.2 L436.5,296.3 L437.3,310.2 L438.1,312.6 L439.0,318.8 L439.8,328.6 L440.7,323.5 L441.5,322.4 L442.4,338.6 L443.2,319.7 L444.0,309.0 L444.9,313.5 L445.7,309.0 L446.6,297.8 L447.4,300.5 L448.3,301.7 L449.1,322.4 L449.9,333.0 L450.8,339.8 L451.6,309.6 L452.5,332.4 L453.3,350.2 L454.2,324.7 L455.0,309.9 L455.8,303.1 L456.7,308.5 L457.5,327.1 L458.4,307.6 L459.2,340.4 L460.1,328.0 L460.9,320.9 L461.7,327.1 L462.6,319.1 L463.4,314.1 L464.3,300.5 L465.1,300.8 L466.0,316.7 L466.8,328.0 L467.6,332.7 L468.5,340.7 L469.3,337.5 L470.2,343.7 L471.0,326.5 L471.9,349.0 L472.7,352.8 L473.5,362.6 L474.4,379.2 L475.2,386.6 L476.1,391.6 L476.9,395.7 L477.8,402.8 L478.6,410.5 L479.4,413.8 L480.3,405.8 L481.1,387.2 L482.0,407.9 L482.8,414.7 L483.7,415.0 L484.5,405.8 L485.3,387.2 L486.2,379.5 L487.0,386.6 L487.9,354.0 L488.7,329.5 L489.6,301.7 L490.4,301.4 L491.2,294.6 L492.1,294.6 L492.9,302.8 L493.8,301.4 L494.6,307.9 L495.4,317.9 L496.3,321.8 L497.1,330.1 L498.0,361.7 L498.8,378.3 L499.7,377.4 L500.5,390.4 L501.3,397.2 L502.2,405.2 L503.0,411.1 L503.9,410.8 L504.7,407.9 L505.6,409.1 L506.4,405.5 L507.2,397.2 L508.1,399.0 L508.9,383.9 L509.8,386.9 L510.6,375.6 L511.5,380.6 L512.3,370.0 L513.1,407.3 L514.0,415.0 L514.8,416.4 L515.7,414.4 L516.5,414.1 L517.4,406.4 L518.2,397.5 L519.0,391.6 L519.9,362.6 L520.7,364.4 L521.6,359.9 L522.4,364.4 L523.3,353.7 L524.1,346.0 L524.9,341.9 L525.8,343.7 L526.6,359.6 L527.5,344.3 L528.3,335.7 L529.2,317.3 L530.0,321.2 L530.8,349.9 L531.7,375.9 L532.5,384.5 L533.4,399.3 L534.2,400.8 L535.1,397.5 L535.9,384.8 L536.7,400.2 L537.6,399.6 L538.4,404.6 L539.3,411.1 L540.1,418.5 L541.0,418.5 L541.8,415.6 L542.6,418.2 L543.5,418.5 L544.3,418.2 L545.2,414.1 L546.0,408.8 L546.9,404.9 L547.7,407.0 L548.5,401.1 L549.4,400.2 L550.2,396.6 L551.1,390.4 L551.9,387.2 L552.8,390.7 L553.6,397.2 L554.4,402.0 L555.3,410.2 L556.1,416.2 L557.0,420.0 L557.8,419.7 L558.7,415.0 L559.5,407.0 L560.3,390.7 L561.2,380.6 L562.0,378.0 L562.9,341.9 L563.7,345.1 L564.6,350.8 L565.4,340.7 L566.2,340.1 L567.1,337.7 L567.9,333.9 L568.8,322.7 L569.6,307.6 L570.4,306.1 L571.3,300.2 L572.1,305.5 L573.0,304.9 L573.8,304.9 L574.7,313.2 L575.5,315.6 L576.3,316.4 L577.2,325.6 L578.0,331.5 L578.9,352.2 L579.7,329.8 L580.6,362.6 L581.4,359.1 L582.2,372.4 L583.1,378.9 L583.9,376.8 L584.8,378.0 L585.6,375.6 L586.5,377.1 L587.3,385.7 L588.1,392.2 L589.0,395.1 L589.8,396.3 L590.7,399.0 L591.5,405.5 L592.4,403.4 L593.2,410.8 L594.0,414.7 L594.9,415.9 L595.7,416.7 L596.6,419.4 L597.4,418.2 L598.3,417.9 L599.1,417.9 L599.9,417.9 L600.8,415.0 L601.6,413.5 L602.5,415.3 L603.3,417.0 L604.2,419.7 L605.0,420.0 L605.8,420.0 L606.7,419.4 L607.5,419.1 L608.4,417.3 L609.2,413.8 L610.1,413.2 L610.9,411.7 L611.7,398.7 L612.6,392.5 L613.4,383.0 L614.3,375.9 L615.1,362.0 L616.0,364.1 L616.8,353.7 L617.6,348.1 L618.5,342.8 L619.3,325.3 L620.2,321.8 L621.0,316.4 L621.9,317.6 L622.7,317.9 L623.5,312.0 L624.4,308.8 L625.2,309.3 L626.1,306.1 L626.9,309.0 L627.8,304.0 L628.6,307.0 L629.4,305.5 L630.3,301.7 L631.1,303.1 L632.0,309.3 L632.8,314.7 L633.7,310.8 L634.5,309.6 L635.3,310.8 L636.2,316.4 L637.0,304.9 L637.9,325.3 L638.7,325.0 L639.6,317.6 L640.4,302.8 L641.2,302.2 L642.1,316.4 L642.9,318.2 L643.8,309.9 L644.6,304.6 L645.4,314.4 L646.3,309.6 L647.1,336.3 L648.0,364.7 L648.8,379.2 L649.7,368.2 L650.5,371.2 L651.3,383.0 L652.2,362.9 L653.0,365.0 L653.9,350.5 L654.7,330.4 L655.6,340.7 L656.4,365.9 L657.2,345.1 L658.1,351.9 L658.9,360.2 L659.8,347.5 L660.6,355.8 L661.5,367.9 L662.3,371.2 L663.1,369.7 L664.0,387.5 L664.8,402.0 L665.7,402.0 L666.5,405.5 L667.4,411.1 L668.2,403.4 L669.0,399.0 L669.9,387.2 L670.7,361.4 L671.6,350.8 L672.4,345.4 L673.3,351.4 L674.1,353.4 L674.9,348.4 L675.8,345.1 L676.6,345.7 L677.5,343.7 L678.3,340.1 L679.2,334.5 L680.0,346.9" stroke="#1f77b4" stroke-width="2" fill="none" opacity="0.8"/>
<!-- Hydro Generation -->
<path d="M80.0,362.0 L80.8,362.0 L81.7,362.0 L82.5,361.7 L83.4,362.0 L84.2,361.7 L85.1,362.3 L85.9,362.6 L86.7,362.0 L87.6,361.4 L88.4,362.0 L89.3,361.4 L90.1,361.4 L91.0,362.0 L91.8,362.3 L92.6,362.0 L93.5,361.7 L94.3,362.0 L95.2,361.7 L96.0,361.7 L96.9,361.4 L97.7,361.7 L98.5,361.4 L99.4,362.0 L100.2,361.7 L101.1,362.0 L101.9,361.4 L102.8,361.1 L103.6,361.4 L104.4,360.8 L105.3,360.8 L106.1,361.1 L107.0,361.4 L107.8,361.7 L108.7,362.0 L109.5,362.0 L110.3,362.3 L111.2,360.5 L112.0,361.1 L112.9,361.4 L113.7,361.1 L114.6,360.5 L115.4,360.8 L116.2,361.1 L117.1,360.8 L117.9,360.5 L118.8,360.5 L119.6,360.5 L120.4,361.1 L121.3,360.8 L122.1,354.6 L123.0,360.5 L123.8,360.2 L124.7,361.1 L125.5,361.4 L126.3,361.4 L127.2,361.7 L128.0,361.1 L128.9,360.8 L129.7,360.8 L130.6,360.5 L131.4,359.9 L132.2,360.5 L133.1,361.1 L133.9,361.1 L134.8,360.8 L135.6,361.4 L136.5,361.4 L137.3,361.1 L138.1,361.4 L139.0,361.1 L139.8,361.4 L140.7,361.4 L141.5,360.5 L142.4,359.9 L143.2,359.9 L144.0,359.9 L144.9,360.8 L145.7,360.2 L146.6,359.6 L147.4,359.6 L148.3,359.1 L149.1,359.6 L149.9,359.3 L150.8,359.3 L151.6,359.3 L152.5,359.9 L153.3,360.2 L154.2,361.1 L155.0,361.4 L155.8,360.8 L156.7,361.1 L157.5,361.1 L158.4,361.1 L159.2,360.8 L160.1,360.8 L160.9,359.9 L161.7,360.5 L162.6,359.9 L163.4,359.6 L164.3,359.9 L165.1,360.2 L166.0,360.5 L166.8,361.1 L167.6,360.8 L168.5,360.5 L169.3,360.5 L170.2,361.1 L171.0,361.1 L171.9,361.1 L172.7,361.4 L173.5,361.4 L174.4,360.8 L175.2,360.8 L176.1,361.1 L176.9,361.4 L177.8,362.0 L178.6,362.0 L179.4,361.4 L180.3,361.4 L181.1,362.0 L182.0,362.0 L182.8,361.1 L183.7,361.4 L184.5,361.4 L185.3,361.1 L186.2,361.4 L187.0,361.4 L187.9,360.5 L188.7,360.8 L189.6,360.5 L190.4,361.1 L191.2,360.5 L192.1,360.2 L192.9,360.5 L193.8,361.1 L194.6,360.8 L195.4,360.5 L196.3,360.8 L197.1,360.8 L198.0,360.5 L198.8,360.5 L199.7,360.5 L200.5,360.5 L201.3,360.8 L202.2,361.1 L203.0,361.4 L203.9,361.4 L204.7,361.1 L205.6,360.8 L206.4,360.8 L207.2,360.8 L208.1,361.1 L208.9,360.8 L209.8,360.5 L210.6,360.2 L211.5,360.2 L212.3,359.6 L213.1,359.3 L214.0,359.6 L214.8,359.6 L215.7,359.3 L216.5,359.3 L217.4,358.8 L218.2,358.8 L219.0,358.8 L219.9,358.8 L220.7,358.5 L221.6,359.3 L222.4,358.5 L223.3,358.5 L224.1,357.6 L224.9,357.9 L225.8,357.6 L226.6,357.9 L227.5,357.6 L228.3,357.6 L229.2,358.5 L230.0,358.5 L230.8,358.8 L231.7,359.3 L232.5,359.6 L233.4,359.9 L234.2,359.6 L235.1,359.6 L235.9,359.6 L236.7,360.8 L237.6,360.8 L238.4,360.8 L239.3,359.6 L240.1,359.6 L241.0,359.9 L241.8,359.6 L242.6,359.9 L243.5,360.8 L244.3,359.9 L245.2,359.9 L246.0,359.6 L246.9,359.1 L247.7,359.1 L248.5,359.1 L249.4,359.6 L250.2,359.3 L251.1,359.3 L251.9,359.3 L252.8,359.1 L253.6,359.3 L254.4,359.3 L255.3,359.3 L256.1,359.3 L257.0,359.6 L257.8,359.3 L258.7,359.3 L259.5,359.1 L260.3,359.3 L261.2,359.3 L262.0,359.6 L262.9,359.1 L263.7,359.6 L264.6,359.1 L265.4,358.8 L266.2,357.3 L267.1,356.7 L267.9,358.5 L268.8,359.1 L269.6,359.3 L270.4,358.8 L271.3,359.1 L272.1,359.6 L273.0,359.6 L273.8,359.9 L274.7,359.6 L275.5,359.6 L276.3,359.6 L277.2,359.9 L278.0,359.6 L278.9,359.6 L279.7,360.2 L280.6,359.9 L281.4,359.3 L282.2,358.8 L283.1,359.1 L283.9,359.1 L284.8,359.1 L285.6,359.1 L286.5,359.1 L287.3,359.3 L288.1,359.3 L289.0,358.5 L289.8,358.5 L290.7,358.5 L291.5,359.1 L292.4,359.3 L293.2,359.3 L294.0,359.6 L294.9,359.6 L295.7,359.6 L296.6,359.6 L297.4,359.3 L298.3,359.3 L299.1,358.8 L299.9,357.9 L300.8,357.9 L301.6,357.9 L302.5,358.2 L303.3,357.9 L304.2,357.6 L305.0,357.6 L305.8,357.9 L306.7,358.5 L307.5,358.8 L308.4,358.2 L309.2,357.9 L310.1,358.2 L310.9,357.9 L311.7,358.5 L312.6,358.2 L313.4,358.2 L314.3,358.5 L315.1,358.2 L316.0,358.8 L316.8,358.8 L317.6,358.5 L318.5,358.8 L319.3,358.8 L320.2,359.3 L321.0,359.3 L321.9,359.3 L322.7,359.1 L323.5,359.1 L324.4,359.1 L325.2,359.1 L326.1,358.5 L326.9,358.5 L327.8,358.5 L328.6,358.5 L329.4,358.2 L330.3,357.6 L331.1,358.8 L332.0,359.1 L332.8,359.1 L333.7,359.1 L334.5,358.5 L335.3,358.5 L336.2,358.2 L337.0,358.5 L337.9,357.6 L338.7,357.6 L339.6,357.6 L340.4,357.6 L341.2,357.6 L342.1,357.3 L342.9,357.3 L343.8,356.7 L344.6,357.3 L345.4,356.7 L346.3,357.3 L347.1,357.0 L348.0,357.3 L348.8,357.6 L349.7,358.2 L350.5,357.9 L351.3,357.6 L352.2,357.9 L353.0,357.9 L353.9,357.0 L354.7,357.0 L355.6,357.3 L356.4,357.3 L357.2,357.3 L358.1,357.6 L358.9,357.0 L359.8,356.4 L360.6,357.0 L361.5,355.5 L362.3,356.1 L363.1,355.2 L364.0,354.9 L364.8,355.5 L365.7,355.8 L366.5,355.5 L367.4,354.6 L368.2,354.9 L369.0,355.2 L369.9,354.9 L370.7,354.3 L371.6,354.9 L372.4,354.6 L373.3,354.6 L374.1,353.4 L374.9,354.0 L375.8,354.3 L376.6,353.4 L377.5,353.7 L378.3,353.4 L379.2,353.1 L380.0,353.4 L380.8,353.1 L381.7,353.4 L382.5,353.7 L383.4,353.4 L384.2,353.4 L385.1,353.1 L385.9,353.7 L386.7,353.4 L387.6,353.7 L388.4,353.7 L389.3,354.0 L390.1,353.4 L391.0,355.2 L391.8,354.9 L392.6,354.9 L393.5,355.2 L394.3,355.8 L395.2,356.1 L396.0,356.1 L396.9,356.1 L397.7,355.5 L398.5,355.8 L399.4,355.8 L400.2,355.8 L401.1,356.1 L401.9,356.4 L402.8,355.8 L403.6,356.1 L404.4,355.8 L405.3,356.1 L406.1,355.8 L407.0,355.5 L407.8,355.5 L408.7,355.5 L409.5,355.5 L410.3,354.9 L411.2,354.9 L412.0,355.2 L412.9,354.3 L413.7,354.0 L414.6,354.0 L415.4,353.4 L416.2,353.7 L417.1,353.4 L417.9,354.3 L418.8,354.9 L419.6,354.3 L420.4,354.3 L421.3,354.6 L422.1,354.9 L423.0,355.5 L423.8,354.9 L424.7,354.9 L425.5,355.8 L426.3,355.8 L427.2,355.8 L428.0,355.8 L428.9,356.4 L429.7,356.4 L430.6,356.1 L431.4,356.1 L432.2,356.4 L433.1,356.1 L433.9,356.1 L434.8,356.4 L435.6,356.1 L436.5,355.5 L437.3,355.8 L438.1,355.5 L439.0,355.5 L439.8,355.5 L440.7,355.5 L441.5,355.5 L442.4,355.8 L443.2,355.2 L444.0,355.2 L444.9,354.3 L445.7,354.9 L446.6,354.6 L447.4,354.9 L448.3,354.9 L449.1,354.9 L449.9,355.5 L450.8,354.6 L451.6,354.9 L452.5,354.9 L453.3,355.5 L454.2,355.2 L455.0,355.2 L455.8,355.5 L456.7,354.9 L457.5,354.9 L458.4,355.2 L459.2,354.9 L460.1,354.9 L460.9,355.2 L461.7,355.2 L462.6,355.2 L463.4,355.2 L464.3,355.2 L465.1,355.2 L466.0,355.5 L466.8,355.2 L467.6,356.1 L468.5,355.8 L469.3,355.8 L470.2,355.5 L471.0,356.4 L471.9,356.1 L472.7,356.4 L473.5,357.0 L474.4,357.3 L475.2,356.1 L476.1,356.1 L476.9,356.1 L477.8,355.8 L478.6,356.1 L479.4,355.5 L480.3,355.8 L481.1,355.2 L482.0,355.2 L482.8,355.2 L483.7,355.2 L484.5,355.5 L485.3,354.9 L486.2,355.2 L487.0,354.9 L487.9,355.2 L488.7,355.2 L489.6,355.5 L490.4,355.8 L491.2,354.9 L492.1,355.8 L492.9,355.2 L493.8,355.2 L494.6,355.5 L495.4,355.5 L496.3,355.2 L497.1,355.2 L498.0,355.5 L498.8,355.5 L499.7,355.5 L500.5,355.2 L501.3,355.5 L502.2,355.5 L503.0,354.9 L503.9,355.5 L504.7,355.2 L505.6,355.2 L506.4,355.2 L507.2,355.5 L508.1,354.6 L508.9,355.5 L509.8,354.9 L510.6,355.5 L511.5,354.6 L512.3,354.9 L513.1,354.9 L514.0,354.9 L514.8,354.9 L515.7,354.6 L516.5,354.6 L517.4,354.9 L518.2,354.6 L519.0,355.2 L519.9,354.6 L520.7,354.6 L521.6,355.2 L522.4,354.6 L523.3,354.6 L524.1,354.6 L524.9,354.6 L525.8,354.0 L526.6,354.9 L527.5,354.3 L528.3,354.3 L529.2,354.3 L530.0,354.0 L530.8,354.6 L531.7,354.0 L532.5,354.3 L533.4,354.9 L534.2,354.0 L535.1,354.3 L535.9,355.2 L536.7,354.3 L537.6,354.3 L538.4,354.9 L539.3,354.3 L540.1,355.2 L541.0,354.6 L541.8,354.9 L542.6,354.6 L543.5,354.6 L544.3,354.3 L545.2,354.0 L546.0,354.6 L546.9,354.6 L547.7,354.9 L548.5,354.3 L549.4,354.9 L550.2,354.6 L551.1,354.9 L551.9,353.7 L552.8,354.9 L553.6,353.4 L554.4,353.7 L555.3,353.4 L556.1,353.4 L557.0,353.7 L557.8,352.8 L558.7,352.8 L559.5,353.1 L560.3,353.1 L561.2,354.0 L562.0,353.4 L562.9,353.4 L563.7,353.7 L564.6,353.1 L565.4,353.1 L566.2,353.1 L567.1,352.5 L567.9,352.8 L568.8,353.1 L569.6,353.4 L570.4,352.8 L571.3,353.1 L572.1,352.5 L573.0,351.9 L573.8,352.5 L574.7,352.5 L575.5,351.9 L576.3,352.2 L577.2,352.5 L578.0,352.2 L578.9,352.2 L579.7,351.9 L580.6,352.2 L581.4,351.9 L582.2,352.2 L583.1,351.7 L583.9,352.5 L584.8,352.2 L585.6,353.1 L586.5,353.4 L587.3,354.0 L588.1,354.6 L589.0,355.5 L589.8,355.5 L590.7,354.9 L591.5,354.9 L592.4,354.3 L593.2,354.0 L594.0,353.7 L594.9,354.0 L595.7,354.3 L596.6,354.3 L597.4,354.0 L598.3,353.7 L599.1,354.0 L599.9,354.0 L600.8,353.7 L601.6,353.7 L602.5,354.0 L603.3,353.7 L604.2,353.7 L605.0,353.4 L605.8,353.4 L606.7,352.8 L607.5,353.1 L608.4,353.1 L609.2,353.1 L610.1,354.0 L610.9,353.4 L611.7,354.0 L612.6,354.3 L613.4,354.0 L614.3,353.7 L615.1,353.7 L616.0,353.4 L616.8,354.0 L617.6,354.0 L618.5,354.0 L619.3,353.7 L620.2,354.0 L621.0,354.6 L621.9,354.6 L622.7,355.8 L623.5,356.7 L624.4,358.5 L625.2,358.8 L626.1,360.5 L626.9,362.9 L627.8,364.1 L628.6,365.6 L629.4,367.3 L630.3,367.0 L631.1,366.4 L632.0,364.4 L632.8,362.9 L633.7,362.0 L634.5,359.1 L635.3,357.9 L636.2,356.1 L637.0,356.4 L637.9,356.1 L638.7,354.9 L639.6,354.6 L640.4,353.4 L641.2,354.3 L642.1,354.0 L642.9,352.5 L643.8,352.2 L644.6,352.2 L645.4,352.5 L646.3,352.5 L647.1,352.2 L648.0,351.7 L648.8,351.9 L649.7,352.2 L650.5,352.5 L651.3,352.2 L652.2,351.9 L653.0,350.5 L653.9,350.5 L654.7,349.3 L655.6,349.0 L656.4,349.6 L657.2,349.0 L658.1,349.6 L658.9,349.0 L659.8,349.0 L660.6,349.0 L661.5,348.7 L662.3,349.0 L663.1,349.0 L664.0,348.4 L664.8,349.0 L665.7,348.7 L666.5,349.3 L667.4,349.9 L668.2,351.4 L669.0,350.8 L669.9,352.2 L670.7,348.4 L671.6,349.0 L672.4,353.4 L673.3,354.6 L674.1,352.2 L674.9,352.5 L675.8,352.5 L676.6,354.0 L677.5,354.0 L678.3,355.2 L679.2,355.2 L680.0,354.0" stroke="#ff7f0e" stroke-width="2" fill="none" opacity="0.8"/>
<!-- Thermal Generation -->
<path d="M80.0,287.7 L80.8,294.8 L81.7,326.5 L82.5,311.4 L83.4,326.2 L84.2,325.9 L85.1,314.1 L85.9,291.3 L86.7,302.8 L87.6,286.9 L88.4,286.6 L89.3,327.7 L90.1,325.0 L91.0,314.7 L91.8,313.8 L92.6,312.6 L93.5,312.9 L94.3,312.9 L95.2,313.8 L96.0,309.3 L96.9,309.3 L97.7,312.9 L98.5,287.7 L99.4,287.5 L100.2,318.8 L101.1,330.9 L101.9,330.9 L102.8,331.2 L103.6,329.8 L104.4,329.5 L105.3,328.9 L106.1,328.9 L107.0,328.9 L107.8,323.0 L108.7,281.2 L109.5,301.1 L110.3,304.6 L111.2,302.5 L112.0,312.3 L112.9,328.0 L113.7,329.2 L114.6,328.9 L115.4,374.4 L116.2,375.3 L117.1,368.5 L117.9,368.2 L118.8,340.4 L119.6,327.7 L120.4,328.9 L121.3,330.9 L122.1,330.4 L123.0,329.2 L123.8,358.5 L124.7,358.8 L125.5,359.6 L126.3,358.8 L127.2,358.8 L128.0,309.0 L128.9,280.3 L129.7,312.0 L130.6,323.3 L131.4,323.3 L132.2,328.6 L133.1,344.0 L133.9,352.5 L134.8,366.7 L135.6,366.2 L136.5,357.9 L137.3,349.3 L138.1,348.4 L139.0,325.6 L139.8,292.8 L140.7,329.2 L141.5,332.7 L142.4,332.4 L143.2,332.4 L144.0,331.5 L144.9,333.0 L145.7,331.5 L146.6,335.7 L147.4,338.3 L148.3,306.1 L149.1,286.0 L149.9,320.0 L150.8,332.7 L151.6,331.2 L152.5,338.6 L153.3,344.8 L154.2,344.8 L155.0,333.9 L155.8,308.8 L156.7,307.6 L157.5,299.0 L158.4,282.4 L159.2,283.9 L160.1,281.8 L160.9,304.9 L161.7,326.2 L162.6,325.6 L163.4,330.9 L164.3,350.5 L165.1,342.2 L166.0,333.6 L166.8,329.5 L167.6,329.5 L168.5,281.5 L169.3,284.2 L170.2,281.8 L171.0,284.2 L171.9,281.5 L172.7,283.6 L173.5,289.8 L174.4,284.2 L175.2,283.6 L176.1,283.3 L176.9,282.7 L177.8,282.1 L178.6,284.5 L179.4,282.4 L180.3,285.4 L181.1,290.7 L182.0,308.2 L182.8,325.0 L183.7,322.7 L184.5,320.0 L185.3,318.8 L186.2,311.4 L187.0,313.5 L187.9,313.8 L188.7,284.5 L189.6,284.2 L190.4,280.9 L191.2,281.5 L192.1,289.8 L192.9,282.4 L193.8,282.1 L194.6,314.1 L195.4,320.0 L196.3,358.2 L197.1,372.4 L198.0,372.7 L198.8,362.3 L199.7,316.1 L200.5,286.0 L201.3,316.4 L202.2,316.7 L203.0,318.8 L203.9,330.4 L204.7,333.0 L205.6,333.9 L206.4,333.6 L207.2,330.4 L208.1,333.9 L208.9,291.9 L209.8,283.9 L210.6,286.0 L211.5,295.1 L212.3,309.3 L213.1,320.6 L214.0,345.1 L214.8,364.4 L215.7,376.2 L216.5,378.0 L217.4,375.3 L218.2,375.0 L219.0,342.2 L219.9,344.6 L220.7,323.8 L221.6,321.5 L222.4,321.8 L223.3,378.0 L224.1,381.5 L224.9,336.9 L225.8,333.6 L226.6,332.7 L227.5,332.7 L228.3,349.9 L229.2,302.2 L230.0,282.7 L230.8,281.2 L231.7,283.3 L232.5,281.5 L233.4,283.6 L234.2,283.0 L235.1,290.7 L235.9,297.5 L236.7,294.6 L237.6,291.3 L238.4,296.9 L239.3,283.0 L240.1,283.3 L241.0,282.4 L241.8,296.6 L242.6,305.5 L243.5,308.8 L244.3,301.7 L245.2,305.2 L246.0,318.8 L246.9,328.9 L247.7,328.0 L248.5,332.4 L249.4,291.6 L250.2,280.9 L251.1,283.0 L251.9,285.4 L252.8,285.1 L253.6,288.3 L254.4,285.4 L255.3,286.3 L256.1,301.7 L257.0,324.7 L257.8,327.4 L258.7,327.7 L259.5,327.7 L260.3,327.4 L261.2,288.9 L262.0,288.3 L262.9,299.3 L263.7,310.5 L264.6,308.8 L265.4,304.9 L266.2,308.8 L267.1,333.9 L267.9,315.9 L268.8,312.6 L269.6,286.9 L270.4,293.1 L271.3,317.9 L272.1,320.3 L273.0,330.4 L273.8,330.1 L274.7,329.5 L275.5,328.9 L276.3,329.2 L277.2,320.3 L278.0,328.3 L278.9,325.6 L279.7,291.9 L280.6,281.2 L281.4,297.2 L282.2,286.0 L283.1,284.8 L283.9,288.9 L284.8,294.0 L285.6,289.2 L286.5,291.6 L287.3,291.9 L288.1,291.3 L289.0,289.5 L289.8,288.6 L290.7,284.2 L291.5,303.4 L292.4,307.6 L293.2,326.8 L294.0,324.4 L294.9,319.1 L295.7,327.4 L296.6,328.3 L297.4,328.3 L298.3,328.6 L299.1,328.6 L299.9,329.8 L300.8,329.5 L301.6,330.1 L302.5,329.8 L303.3,329.8 L304.2,329.5 L305.0,329.5 L305.8,330.4 L306.7,329.8 L307.5,304.0 L308.4,284.8 L309.2,288.3 L310.1,304.6 L310.9,286.9 L311.7,287.2 L312.6,286.3 L313.4,287.7 L314.3,291.0 L315.1,280.6 L316.0,280.1 L316.8,280.6 L317.6,307.9 L318.5,311.1 L319.3,297.2 L320.2,286.3 L321.0,283.9 L321.9,283.9 L322.7,284.5 L323.5,284.8 L324.4,283.0 L325.2,285.1 L326.1,282.1 L326.9,282.4 L327.8,286.6 L328.6,284.8 L329.4,281.5 L330.3,280.9 L331.1,286.0 L332.0,282.7 L332.8,280.6 L333.7,279.5 L334.5,287.2 L335.3,310.5 L336.2,318.5 L337.0,321.5 L337.9,330.1 L338.7,330.4 L339.6,327.1 L340.4,327.4 L341.2,310.5 L342.1,285.4 L342.9,285.7 L343.8,289.2 L344.6,305.5 L345.4,307.3 L346.3,321.5 L347.1,299.0 L348.0,283.0 L348.8,286.0 L349.7,294.6 L350.5,302.8 L351.3,311.7 L352.2,312.3 L353.0,310.2 L353.9,311.7 L354.7,315.9 L355.6,327.7 L356.4,327.1 L357.2,351.1 L358.1,353.1 L358.9,342.8 L359.8,342.8 L360.6,343.1 L361.5,327.7 L362.3,291.6 L363.1,309.9 L364.0,310.5 L364.8,302.5 L365.7,311.1 L366.5,314.7 L367.4,322.1 L368.2,328.9 L369.0,333.0 L369.9,301.7 L370.7,289.2 L371.6,283.0 L372.4,282.4 L373.3,295.7 L374.1,296.3 L374.9,296.3 L375.8,297.5 L376.6,301.9 L377.5,301.4 L378.3,301.1 L379.2,301.4 L380.0,289.2 L380.8,289.5 L381.7,289.2 L382.5,283.3 L383.4,296.9 L384.2,304.9 L385.1,298.4 L385.9,305.2 L386.7,312.3 L387.6,311.4 L388.4,310.5 L389.3,311.7 L390.1,309.3 L391.0,287.2 L391.8,284.5 L392.6,284.2 L393.5,285.7 L394.3,287.7 L395.2,284.5 L396.0,284.2 L396.9,284.5 L397.7,284.2 L398.5,283.9 L399.4,283.6 L400.2,286.0 L401.1,287.2 L401.9,286.3 L402.8,288.6 L403.6,285.4 L404.4,288.6 L405.3,285.7 L406.1,288.0 L407.0,285.4 L407.8,288.0 L408.7,285.4 L409.5,304.9 L410.3,287.5 L411.2,285.4 L412.0,286.3 L412.9,283.9 L413.7,285.1 L414.6,286.3 L415.4,283.6 L416.2,284.5 L417.1,289.8 L417.9,294.6 L418.8,293.4 L419.6,295.7 L420.4,286.9 L421.3,282.7 L422.1,286.0 L423.0,284.2 L423.8,289.5 L424.7,286.3 L425.5,288.9 L426.3,289.5 L427.2,297.2 L428.0,318.8 L428.9,319.7 L429.7,332.7 L430.6,333.0 L431.4,327.7 L432.2,287.7 L433.1,304.0 L433.9,303.4 L434.8,309.0 L435.6,319.7 L436.5,330.4 L437.3,330.6 L438.1,330.6 L439.0,331.5 L439.8,333.6 L440.7,331.8 L441.5,330.6 L442.4,314.4 L443.2,293.4 L444.0,299.3 L444.9,313.5 L445.7,319.4 L446.6,323.5 L447.4,327.4 L448.3,330.9 L449.1,331.2 L449.9,330.6 L450.8,330.6 L451.6,289.8 L452.5,299.0 L453.3,299.6 L454.2,299.9 L455.0,291.3 L455.8,330.4 L456.7,330.6 L457.5,329.2 L458.4,329.8 L459.2,330.1 L460.1,329.8 L460.9,330.4 L461.7,330.9 L462.6,330.1 L463.4,328.9 L464.3,329.5 L465.1,329.2 L466.0,329.8 L466.8,328.9 L467.6,329.8 L468.5,327.1 L469.3,329.2 L470.2,328.9 L471.0,329.5 L471.9,290.1 L472.7,294.0 L473.5,291.0 L474.4,283.6 L475.2,286.0 L476.1,281.8 L476.9,281.2 L477.8,286.9 L478.6,298.1 L479.4,323.8 L480.3,324.4 L481.1,324.4 L482.0,319.1 L482.8,319.7 L483.7,284.2 L484.5,281.5 L485.3,303.7 L486.2,299.0 L487.0,305.8 L487.9,309.0 L488.7,315.9 L489.6,320.9 L490.4,331.2 L491.2,327.1 L492.1,297.5 L492.9,294.3 L493.8,302.8 L494.6,300.5 L495.4,312.0 L496.3,312.0 L497.1,310.8 L498.0,324.7 L498.8,325.0 L499.7,325.3 L500.5,325.9 L501.3,324.7 L502.2,299.6 L503.0,282.1 L503.9,284.8 L504.7,284.5 L505.6,293.4 L506.4,297.2 L507.2,288.9 L508.1,288.9 L508.9,291.6 L509.8,292.8 L510.6,306.7 L511.5,280.9 L512.3,283.6 L513.1,288.6 L514.0,287.5 L514.8,281.2 L515.7,280.1 L516.5,280.6 L517.4,283.9 L518.2,280.3 L519.0,284.5 L519.9,297.2 L520.7,288.0 L521.6,313.8 L522.4,317.6 L523.3,300.5 L524.1,296.0 L524.9,296.0 L525.8,305.8 L526.6,300.8 L527.5,294.6 L528.3,304.9 L529.2,310.2 L530.0,310.5 L530.8,337.5 L531.7,323.3 L532.5,300.2 L533.4,296.3 L534.2,299.6 L535.1,296.9 L535.9,300.2 L536.7,308.8 L537.6,307.9 L538.4,307.6 L539.3,307.9 L540.1,321.5 L541.0,319.7 L541.8,304.9 L542.6,303.1 L543.5,302.2 L544.3,302.5 L545.2,310.5 L546.0,322.1 L546.9,327.4 L547.7,327.7 L548.5,305.5 L549.4,304.0 L550.2,306.1 L551.1,303.1 L551.9,308.2 L552.8,306.1 L553.6,315.3 L554.4,320.6 L555.3,320.9 L556.1,321.8 L557.0,320.6 L557.8,320.6 L558.7,317.0 L559.5,320.6 L560.3,340.1 L561.2,340.7 L562.0,340.4 L562.9,341.6 L563.7,342.2 L564.6,343.1 L565.4,344.0 L566.2,344.0 L567.1,343.4 L567.9,342.8 L568.8,342.8 L569.6,342.8 L570.4,339.8 L571.3,343.1 L572.1,341.9 L573.0,341.9 L573.8,341.9 L574.7,341.9 L575.5,340.4 L576.3,341.6 L577.2,339.5 L578.0,340.4 L578.9,340.1 L579.7,343.1 L580.6,340.7 L581.4,339.8 L582.2,339.8 L583.1,340.1 L583.9,340.1 L584.8,339.5 L585.6,339.2 L586.5,341.3 L587.3,325.3 L588.1,329.5 L589.0,313.8 L589.8,312.0 L590.7,312.9 L591.5,312.6 L592.4,311.7 L593.2,298.1 L594.0,294.3 L594.9,296.3 L595.7,298.4 L596.6,295.4 L597.4,297.8 L598.3,303.4 L599.1,301.9 L599.9,304.3 L600.8,303.4 L601.6,303.4 L602.5,300.5 L603.3,304.9 L604.2,304.9 L605.0,305.2 L605.8,312.3 L606.7,321.5 L607.5,318.5 L608.4,318.5 L609.2,318.5 L610.1,318.5 L610.9,303.1 L611.7,303.4 L612.6,304.3 L613.4,300.8 L614.3,299.6 L615.1,305.8 L616.0,306.4 L616.8,306.4 L617.6,307.0 L618.5,307.6 L619.3,307.3 L620.2,316.4 L621.0,340.1 L621.9,340.4 L622.7,339.5 L623.5,308.8 L624.4,306.1 L625.2,308.5 L626.1,305.2 L626.9,312.6 L627.8,307.9 L628.6,304.0 L629.4,309.0 L630.3,306.1 L631.1,298.7 L632.0,305.8 L632.8,308.8 L633.7,293.7 L634.5,293.4 L635.3,299.9 L636.2,301.1 L637.0,304.0 L637.9,299.9 L638.7,319.1 L639.6,341.0 L640.4,341.0 L641.2,341.3 L642.1,341.0 L642.9,339.8 L643.8,340.4 L644.6,341.6 L645.4,313.2 L646.3,304.9 L647.1,327.1 L648.0,318.5 L648.8,323.3 L649.7,311.7 L650.5,295.4 L651.3,315.9 L652.2,315.3 L653.0,318.5 L653.9,299.0 L654.7,308.5 L655.6,335.7 L656.4,330.6 L657.2,330.6 L658.1,331.2 L658.9,322.4 L659.8,323.3 L660.6,334.5 L661.5,340.1 L662.3,340.1 L663.1,340.4 L664.0,341.0 L664.8,311.1 L665.7,304.0 L666.5,301.7 L667.4,295.7 L668.2,316.1 L669.0,327.4 L669.9,313.8 L670.7,328.3 L671.6,335.4 L672.4,327.4 L673.3,311.7 L674.1,294.8 L674.9,296.0 L675.8,299.3 L676.6,299.9 L677.5,300.5 L678.3,306.7 L679.2,324.4 L680.0,340.4" stroke="#2ca02c" stroke-width="2" fill="none" opacity="0.8"/>
<!-- Solar Generation -->
<path d="M80.0,419.1 L80.8,416.2 L81.7,413.5 L82.5,406.4 L83.4,412.6 L84.2,412.6 L85.1,401.4 L85.9,412.6 L86.7,415.3 L87.6,419.7 L88.4,420.0 L89.3,420.0 L90.1,420.0 L91.0,420.0 L91.8,420.0 L92.6,420.0 L93.5,420.0 L94.3,420.0 L95.2,420.0 L96.0,420.0 L96.9,420.0 L97.7,420.0 L98.5,420.0 L99.4,420.0 L100.2,419.1 L101.1,411.4 L101.9,402.8 L102.8,411.4 L103.6,404.3 L104.4,400.5 L105.3,408.5 L106.1,415.3 L107.0,414.1 L107.8,419.4 L108.7,420.0 L109.5,420.0 L110.3,420.0 L111.2,420.0 L112.0,420.0 L112.9,420.0 L113.7,420.0 L114.6,420.0 L115.4,420.0 L116.2,420.0 L117.1,420.0 L117.9,420.0 L118.8,420.0 L119.6,420.0 L120.4,418.2 L121.3,414.1 L122.1,396.3 L123.0,401.7 L123.8,398.7 L124.7,394.6 L125.5,387.5 L126.3,390.7 L127.2,405.5 L128.0,418.8 L128.9,420.0 L129.7,420.0 L130.6,420.0 L131.4,420.0 L132.2,420.0 L133.1,420.0 L133.9,420.0 L134.8,420.0 L135.6,420.0 L136.5,420.0 L137.3,420.0 L138.1,420.0 L139.0,420.0 L139.8,420.0 L140.7,418.2 L141.5,416.4 L142.4,410.8 L143.2,409.3 L144.0,407.9 L144.9,412.9 L145.7,402.8 L146.6,405.8 L147.4,408.8 L148.3,419.4 L149.1,420.0 L149.9,420.0 L150.8,420.0 L151.6,420.0 L152.5,420.0 L153.3,420.0 L154.2,420.0 L155.0,420.0 L155.8,420.0 L156.7,420.0 L157.5,420.0 L158.4,420.0 L159.2,420.0 L160.1,420.0 L160.9,417.9 L161.7,402.0 L162.6,386.0 L163.4,391.0 L164.3,392.8 L165.1,390.4 L166.0,391.0 L166.8,390.7 L167.6,403.4 L168.5,418.8 L169.3,420.0 L170.2,420.0 L171.0,420.0 L171.9,420.0 L172.7,420.0 L173.5,420.0 L174.4,420.0 L175.2,420.0 L176.1,420.0 L176.9,420.0 L177.8,420.0 L178.6,420.0 L179.4,420.0 L180.3,420.0 L181.1,415.9 L182.0,396.6 L182.8,391.3 L183.7,392.5 L184.5,397.5 L185.3,392.8 L186.2,390.4 L187.0,393.1 L187.9,408.5 L188.7,419.1 L189.6,420.0 L190.4,420.0 L191.2,420.0 L192.1,420.0 L192.9,420.0 L193.8,420.0 L194.6,420.0 L195.4,420.0 L196.3,420.0 L197.1,420.0 L198.0,420.0 L198.8,420.0 L199.7,420.0 L200.5,420.0 L201.3,419.1 L202.2,412.0 L203.0,405.2 L203.9,403.4 L204.7,402.5 L205.6,402.2 L206.4,400.8 L207.2,404.3 L208.1,413.2 L208.9,419.4 L209.8,420.0 L210.6,420.0 L211.5,420.0 L212.3,420.0 L213.1,420.0 L214.0,420.0 L214.8,420.0 L215.7,420.0 L216.5,420.0 L217.4,420.0 L218.2,420.0 L219.0,420.0 L219.9,420.0 L220.7,420.0 L221.6,417.9 L222.4,406.1 L223.3,389.8 L224.1,396.9 L224.9,396.9 L225.8,396.0 L226.6,391.9 L227.5,390.1 L228.3,401.1 L229.2,419.4 L230.0,420.0 L230.8,420.0 L231.7,420.0 L232.5,420.0 L233.4,420.0 L234.2,420.0 L235.1,420.0 L235.9,420.0 L236.7,420.0 L237.6,420.0 L238.4,420.0 L239.3,420.0 L240.1,420.0 L241.0,420.0 L241.8,419.4 L242.6,412.6 L243.5,396.0 L244.3,390.7 L245.2,394.3 L246.0,392.5 L246.9,393.1 L247.7,392.5 L248.5,412.3 L249.4,419.7 L250.2,420.0 L251.1,420.0 L251.9,420.0 L252.8,420.0 L253.6,420.0 L254.4,420.0 L255.3,420.0 L256.1,420.0 L257.0,420.0 L257.8,420.0 L258.7,420.0 L259.5,420.0 L260.3,420.0 L261.2,420.0 L262.0,418.5 L262.9,411.1 L263.7,403.4 L264.6,391.9 L265.4,395.1 L266.2,397.8 L267.1,393.7 L267.9,398.4 L268.8,413.8 L269.6,419.7 L270.4,420.0 L271.3,420.0 L272.1,420.0 L273.0,420.0 L273.8,420.0 L274.7,420.0 L275.5,420.0 L276.3,420.0 L277.2,420.0 L278.0,420.0 L278.9,420.0 L279.7,420.0 L280.6,420.0 L281.4,420.0 L282.2,419.4 L283.1,417.3 L283.9,414.4 L284.8,413.5 L285.6,410.2 L286.5,411.1 L287.3,400.8 L288.1,407.9 L289.0,415.3 L289.8,419.1 L290.7,420.0 L291.5,420.0 L292.4,420.0 L293.2,420.0 L294.0,420.0 L294.9,420.0 L295.7,420.0 L296.6,420.0 L297.4,420.0 L298.3,420.0 L299.1,420.0 L299.9,420.0 L300.8,420.0 L301.6,420.0 L302.5,419.7 L303.3,415.3 L304.2,415.6 L305.0,407.6 L305.8,412.0 L306.7,396.9 L307.5,397.5 L308.4,391.3 L309.2,405.5 L310.1,419.7 L310.9,420.0 L311.7,420.0 L312.6,420.0 L313.4,420.0 L314.3,420.0 L315.1,420.0 L316.0,420.0 L316.8,420.0 L317.6,420.0 L318.5,420.0 L319.3,420.0 L320.2,420.0 L321.0,420.0 L321.9,420.0 L322.7,419.7 L323.5,416.7 L324.4,413.5 L325.2,410.8 L326.1,406.7 L326.9,404.0 L327.8,390.7 L328.6,412.9 L329.4,415.9 L330.3,420.0 L331.1,420.0 L332.0,420.0 L332.8,420.0 L333.7,420.0 L334.5,420.0 L335.3,420.0 L336.2,420.0 L337.0,420.0 L337.9,420.0 L338.7,420.0 L339.6,420.0 L340.4,420.0 L341.2,420.0 L342.1,420.0 L342.9,419.1 L343.8,406.7 L344.6,405.2 L345.4,400.5 L346.3,400.2 L347.1,398.7 L348.0,396.9 L348.8,396.6 L349.7,415.3 L350.5,419.7 L351.3,420.0 L352.2,420.0 L353.0,420.0 L353.9,420.0 L354.7,420.0 L355.6,420.0 L356.4,420.0 L357.2,420.0 L358.1,420.0 L358.9,420.0 L359.8,420.0 L360.6,420.0 L361.5,420.0 L362.3,420.0 L363.1,420.0 L364.0,415.9 L364.8,409.3 L365.7,408.5 L366.5,402.2 L367.4,405.2 L368.2,403.1 L369.0,406.7 L369.9,416.4 L370.7,420.0 L371.6,420.0 L372.4,420.0 L373.3,420.0 L374.1,420.0 L374.9,420.0 L375.8,420.0 L376.6,420.0 L377.5,420.0 L378.3,420.0 L379.2,420.0 L380.0,420.0 L380.8,420.0 L381.7,420.0 L382.5,420.0 L383.4,420.0 L384.2,415.3 L385.1,412.9 L385.9,407.6 L386.7,404.6 L387.6,401.4 L388.4,400.8 L389.3,402.2 L390.1,414.7 L391.0,420.0 L391.8,420.0 L392.6,420.0 L393.5,420.0 L394.3,420.0 L395.2,420.0 L396.0,420.0 L396.9,420.0 L397.7,420.0 L398.5,420.0 L399.4,420.0 L400.2,420.0 L401.1,420.0 L401.9,420.0 L402.8,420.0 L403.6,419.4 L404.4,411.7 L405.3,405.5 L406.1,405.8 L407.0,405.8 L407.8,396.9 L408.7,392.8 L409.5,391.3 L410.3,406.7 L411.2,419.7 L412.0,420.0 L412.9,420.0 L413.7,420.0 L414.6,420.0 L415.4,420.0 L416.2,420.0 L417.1,420.0 L417.9,420.0 L418.8,420.0 L419.6,420.0 L420.4,420.0 L421.3,420.0 L422.1,420.0 L423.0,420.0 L423.8,419.1 L424.7,401.7 L425.5,390.4 L426.3,393.7 L427.2,396.6 L428.0,395.7 L428.9,391.6 L429.7,390.1 L430.6,411.7 L431.4,419.7 L432.2,420.0 L433.1,420.0 L433.9,420.0 L434.8,420.0 L435.6,420.0 L436.5,420.0 L437.3,420.0 L438.1,420.0 L439.0,420.0 L439.8,420.0 L440.7,420.0 L441.5,420.0 L442.4,420.0 L443.2,420.0 L444.0,419.4 L444.9,402.2 L445.7,391.3 L446.6,394.9 L447.4,402.5 L448.3,394.6 L449.1,391.6 L449.9,394.3 L450.8,407.9 L451.6,419.7 L452.5,420.0 L453.3,420.0 L454.2,420.0 L455.0,420.0 L455.8,420.0 L456.7,420.0 L457.5,420.0 L458.4,420.0 L459.2,420.0 L460.1,420.0 L460.9,420.0 L461.7,420.0 L462.6,420.0 L463.4,420.0 L464.3,419.7 L465.1,417.0 L466.0,406.1 L466.8,404.3 L467.6,404.6 L468.5,397.2 L469.3,408.2 L470.2,413.8 L471.0,411.4 L471.9,419.7 L472.7,420.0 L473.5,420.0 L474.4,420.0 L475.2,420.0 L476.1,420.0 L476.9,420.0 L477.8,420.0 L478.6,420.0 L479.4,420.0 L480.3,420.0 L481.1,420.0 L482.0,420.0 L482.8,420.0 L483.7,420.0 L484.5,420.0 L485.3,417.9 L486.2,399.0 L487.0,393.4 L487.9,408.5 L488.7,414.1 L489.6,405.8 L490.4,410.5 L491.2,416.2 L492.1,420.0 L492.9,420.0 L493.8,420.0 L494.6,420.0 L495.4,420.0 L496.3,420.0 L497.1,420.0 L498.0,420.0 L498.8,420.0 L499.7,420.0 L500.5,420.0 L501.3,420.0 L502.2,420.0 L503.0,420.0 L503.9,420.0 L504.7,419.7 L505.6,409.6 L506.4,397.8 L507.2,396.3 L508.1,401.1 L508.9,399.6 L509.8,399.9 L510.6,405.2 L511.5,416.4 L512.3,419.7 L513.1,420.0 L514.0,420.0 L514.8,420.0 L515.7,420.0 L516.5,420.0 L517.4,420.0 L518.2,420.0 L519.0,420.0 L519.9,420.0 L520.7,420.0 L521.6,420.0 L522.4,420.0 L523.3,420.0 L524.1,420.0 L524.9,420.0 L525.8,417.6 L526.6,409.9 L527.5,413.5 L528.3,406.4 L529.2,403.1 L530.0,411.7 L530.8,416.2 L531.7,416.4 L532.5,420.0 L533.4,420.0 L534.2,420.0 L535.1,420.0 L535.9,420.0 L536.7,420.0 L537.6,420.0 L538.4,420.0 L539.3,420.0 L540.1,420.0 L541.0,420.0 L541.8,420.0 L542.6,420.0 L543.5,420.0 L544.3,420.0 L545.2,419.7 L546.0,417.0 L546.9,402.0 L547.7,412.3 L548.5,406.4 L549.4,404.3 L550.2,402.0 L551.1,415.6 L551.9,418.8 L552.8,420.0 L553.6,420.0 L554.4,420.0 L555.3,420.0 L556.1,420.0 L557.0,420.0 L557.8,420.0 L558.7,420.0 L559.5,420.0 L560.3,420.0 L561.2,420.0 L562.0,420.0 L562.9,420.0 L563.7,420.0 L564.6,420.0 L565.4,420.0 L566.2,417.6 L567.1,417.0 L567.9,416.2 L568.8,413.8 L569.6,414.7 L570.4,415.0 L571.3,417.6 L572.1,419.4 L573.0,420.0 L573.8,420.0 L574.7,420.0 L575.5,420.0 L576.3,420.0 L577.2,420.0 L578.0,420.0 L578.9,420.0 L579.7,420.0 L580.6,420.0 L581.4,420.0 L582.2,420.0 L583.1,420.0 L583.9,420.0 L584.8,420.0 L585.6,420.0 L586.5,414.4 L587.3,407.0 L588.1,403.4 L589.0,403.7 L589.8,402.0 L590.7,397.2 L591.5,394.9 L592.4,414.1 L593.2,420.0 L594.0,420.0 L594.9,420.0 L595.7,420.0 L596.6,420.0 L597.4,420.0 L598.3,420.0 L599.1,420.0 L599.9,420.0 L600.8,420.0 L601.6,420.0 L602.5,420.0 L603.3,420.0 L604.2,420.0 L605.0,420.0 L605.8,420.0 L606.7,414.4 L607.5,407.6 L608.4,398.4 L609.2,399.0 L610.1,397.5 L610.9,397.8 L611.7,393.4 L612.6,409.1 L613.4,419.7 L614.3,420.0 L615.1,420.0 L616.0,420.0 L616.8,420.0 L617.6,420.0 L618.5,420.0 L619.3,420.0 L620.2,420.0 L621.0,420.0 L621.9,420.0 L622.7,420.0 L623.5,420.0 L624.4,420.0 L625.2,420.0 L626.1,419.7 L626.9,410.8 L627.8,405.2 L628.6,401.1 L629.4,404.0 L630.3,404.9 L631.1,405.5 L632.0,411.7 L632.8,417.9 L633.7,420.0 L634.5,420.0 L635.3,420.0 L636.2,420.0 L637.0,420.0 L637.9,420.0 L638.7,420.0 L639.6,420.0 L640.4,420.0 L641.2,420.0 L642.1,420.0 L642.9,420.0 L643.8,420.0 L644.6,420.0 L645.4,420.0 L646.3,420.0 L647.1,417.9 L648.0,414.1 L648.8,412.0 L649.7,409.9 L650.5,401.7 L651.3,407.3 L652.2,412.6 L653.0,417.9 L653.9,420.0 L654.7,420.0 L655.6,420.0 L656.4,420.0 L657.2,420.0 L658.1,420.0 L658.9,420.0 L659.8,420.0 L660.6,420.0 L661.5,420.0 L662.3,420.0 L663.1,420.0 L664.0,420.0 L664.8,420.0 L665.7,420.0 L666.5,420.0 L667.4,414.1 L668.2,406.4 L669.0,400.2 L669.9,398.4 L670.7,396.6 L671.6,395.1 L672.4,397.2 L673.3,411.1 L674.1,420.0 L674.9,420.0 L675.8,420.0 L676.6,420.0 L677.5,420.0 L678.3,420.0 L679.2,420.0 L680.0,420.0" stroke="#d62728" stroke-width="2" fill="none" opacity="0.8"/>
<!-- Forecast -->
<path d="M80.0,204.3 L80.8,188.9 L81.7,183.0 L82.5,181.5 L83.4,181.8 L84.2,184.8 L85.1,187.2 L85.9,188.0 L86.7,187.7 L87.6,182.1 L88.4,173.5 L89.3,170.9 L90.1,173.2 L91.0,182.7 L91.8,197.5 L92.6,222.4 L93.5,248.4 L94.3,258.5 L95.2,262.9 L96.0,268.8 L96.9,271.2 L97.7,270.6 L98.5,259.0 L99.4,230.6 L100.2,202.8 L101.1,187.4 L101.9,182.7 L102.8,182.7 L103.6,185.7 L104.4,190.1 L105.3,193.7 L106.1,194.0 L107.0,193.4 L107.8,189.5 L108.7,184.2 L109.5,183.6 L110.3,184.8 L111.2,193.7 L112.0,207.3 L112.9,228.9 L113.7,242.2 L114.6,261.1 L115.4,270.9 L116.2,275.9 L117.1,277.4 L117.9,275.6 L118.8,263.5 L119.6,235.4 L120.4,205.5 L121.3,191.3 L122.1,186.9 L123.0,185.7 L123.8,186.9 L124.7,188.9 L125.5,191.0 L126.3,191.0 L127.2,190.1 L128.0,185.4 L128.9,176.5 L129.7,172.9 L130.6,173.8 L131.4,183.0 L132.2,197.8 L133.1,219.7 L133.9,236.3 L134.8,253.7 L135.6,263.2 L136.5,269.1 L137.3,270.9 L138.1,270.0 L139.0,257.9 L139.8,230.1 L140.7,201.4 L141.5,186.9 L142.4,183.0 L143.2,182.4 L144.0,183.0 L144.9,184.8 L145.7,186.9 L146.6,187.2 L147.4,185.7 L148.3,179.5 L149.1,168.5 L149.9,165.3 L150.8,168.8 L151.6,176.8 L152.5,193.1 L153.3,215.6 L154.2,227.7 L155.0,245.4 L155.8,254.6 L156.7,259.9 L157.5,261.4 L158.4,260.8 L159.2,253.7 L160.1,241.6 L160.9,225.9 L161.7,211.1 L162.6,204.6 L163.4,199.0 L164.3,200.2 L165.1,201.9 L166.0,208.2 L166.8,212.3 L167.6,211.7 L168.5,192.5 L169.3,179.2 L170.2,179.8 L171.0,176.5 L171.9,183.3 L172.7,193.1 L173.5,212.0 L174.4,216.7 L175.2,239.2 L176.1,243.1 L176.9,247.5 L177.8,250.2 L178.6,247.2 L179.4,240.1 L180.3,225.3 L181.1,213.5 L182.0,210.5 L182.8,203.7 L183.7,196.9 L184.5,200.2 L185.3,201.9 L186.2,209.9 L187.0,211.7 L187.9,211.4 L188.7,203.4 L189.6,186.6 L190.4,175.0 L191.2,178.9 L192.1,191.0 L192.9,206.1 L193.8,223.5 L194.6,249.3 L195.4,258.2 L196.3,264.7 L197.1,271.2 L198.0,273.5 L198.8,272.1 L199.7,260.2 L200.5,231.8 L201.3,204.0 L202.2,190.1 L203.0,188.3 L203.9,188.6 L204.7,189.8 L205.6,193.1 L206.4,196.6 L207.2,196.3 L208.1,195.7 L208.9,193.1 L209.8,188.6 L210.6,186.9 L211.5,186.6 L212.3,194.3 L213.1,208.5 L214.0,229.8 L214.8,238.9 L215.7,259.9 L216.5,267.9 L217.4,271.8 L218.2,271.8 L219.0,269.1 L219.9,259.3 L220.7,233.3 L221.6,201.9 L222.4,183.6 L223.3,177.4 L224.1,179.2 L224.9,184.5 L225.8,187.2 L226.6,190.1 L227.5,191.6 L228.3,192.5 L229.2,189.5 L230.0,183.9 L230.8,180.3 L231.7,178.0 L232.5,183.0 L233.4,195.1 L234.2,216.4 L235.1,243.4 L235.9,257.9 L236.7,265.3 L237.6,270.6 L238.4,272.4 L239.3,270.9 L240.1,259.0 L241.0,231.8 L241.8,204.9 L242.6,189.5 L243.5,185.4 L244.3,185.1 L245.2,186.6 L246.0,190.1 L246.9,193.7 L247.7,193.7 L248.5,193.1 L249.4,189.2 L250.2,181.5 L251.1,179.5 L251.9,180.0 L252.8,190.1 L253.6,203.7 L254.4,225.6 L255.3,251.7 L256.1,262.3 L257.0,269.4 L257.8,274.7 L258.7,276.5 L259.5,274.7 L260.3,262.6 L261.2,234.8 L262.0,205.5 L262.9,192.2 L263.7,190.7 L264.6,191.3 L265.4,193.1 L266.2,195.1 L267.1,198.4 L267.9,198.7 L268.8,198.1 L269.6,195.1 L270.4,191.0 L271.3,190.1 L272.1,190.7 L273.0,196.9 L273.8,210.8 L274.7,232.7 L275.5,237.7 L276.3,265.9 L277.2,274.4 L278.0,279.5 L278.9,280.9 L279.7,279.2 L280.6,268.5 L281.4,241.6 L282.2,212.0 L283.1,196.6 L283.9,192.5 L284.8,191.6 L285.6,191.9 L286.5,192.5 L287.3,194.0 L288.1,194.0 L289.0,193.4 L289.8,188.9 L290.7,182.1 L291.5,181.2 L292.4,182.7 L293.2,191.6 L294.0,205.8 L294.9,227.4 L295.7,249.3 L296.6,257.6 L297.4,263.8 L298.3,268.8 L299.1,271.5 L299.9,272.7 L300.8,268.2 L301.6,256.1 L302.5,241.0 L303.3,225.6 L304.2,216.1 L305.0,209.6 L305.8,208.7 L306.7,212.3 L307.5,215.8 L308.4,218.8 L309.2,220.0 L310.1,217.6 L310.9,208.7 L311.7,202.5 L312.6,201.6 L313.4,208.5 L314.3,218.2 L315.1,232.4 L316.0,246.3 L316.8,259.9 L317.6,265.0 L318.5,267.9 L319.3,270.3 L320.2,272.1 L321.0,265.0 L321.9,251.4 L322.7,237.7 L323.5,224.1 L324.4,211.4 L325.2,204.9 L326.1,205.8 L326.9,206.7 L327.8,211.4 L328.6,213.5 L329.4,213.8 L330.3,204.6 L331.1,191.0 L332.0,183.3 L332.8,185.7 L333.7,194.8 L334.5,209.6 L335.3,228.3 L336.2,240.7 L337.0,259.3 L337.9,269.7 L338.7,275.3 L339.6,277.4 L340.4,275.6 L341.2,263.5 L342.1,234.8 L342.9,205.2 L343.8,188.0 L344.6,181.8 L345.4,180.3 L346.3,181.5 L347.1,184.8 L348.0,187.2 L348.8,189.2 L349.7,188.0 L350.5,181.2 L351.3,171.8 L352.2,170.3 L353.0,173.2 L353.9,183.6 L354.7,199.3 L355.6,222.1 L356.4,236.6 L357.2,252.2 L358.1,265.0 L358.9,271.2 L359.8,273.0 L360.6,271.5 L361.5,259.0 L362.3,230.3 L363.1,200.2 L364.0,183.0 L364.8,177.7 L365.7,176.8 L366.5,178.3 L367.4,182.1 L368.2,184.8 L369.0,187.2 L369.9,186.3 L370.7,178.9 L371.6,168.5 L372.4,166.7 L373.3,169.7 L374.1,179.2 L374.9,195.1 L375.8,217.6 L376.6,223.0 L377.5,248.7 L378.3,262.9 L379.2,269.4 L380.0,270.9 L380.8,269.1 L381.7,256.1 L382.5,227.7 L383.4,196.0 L384.2,180.3 L385.1,175.3 L385.9,175.0 L386.7,177.1 L387.6,180.9 L388.4,183.3 L389.3,185.7 L390.1,184.2 L391.0,176.8 L391.8,164.4 L392.6,160.2 L393.5,163.5 L394.3,170.9 L395.2,187.4 L396.0,210.2 L396.9,232.4 L397.7,245.4 L398.5,251.4 L399.4,256.7 L400.2,257.9 L401.1,255.8 L401.9,241.0 L402.8,212.3 L403.6,182.7 L404.4,170.9 L405.3,170.0 L406.1,172.7 L407.0,176.5 L407.8,181.8 L408.7,186.0 L409.5,187.4 L410.3,185.7 L411.2,177.4 L412.0,165.6 L412.9,164.1 L413.7,165.8 L414.6,173.5 L415.4,189.8 L416.2,213.2 L417.1,219.1 L417.9,241.0 L418.8,238.0 L419.6,238.3 L420.4,240.1 L421.3,237.4 L422.1,223.2 L423.0,195.7 L423.8,166.1 L424.7,151.9 L425.5,152.2 L426.3,155.5 L427.2,159.3 L428.0,163.5 L428.9,167.3 L429.7,170.9 L430.6,171.5 L431.4,164.7 L432.2,149.6 L433.1,143.4 L433.9,146.9 L434.8,158.5 L435.6,175.6 L436.5,194.8 L437.3,223.2 L438.1,232.1 L439.0,238.3 L439.8,243.4 L440.7,246.9 L441.5,249.0 L442.4,245.1 L443.2,227.7 L444.0,211.4 L444.9,196.6 L445.7,192.8 L446.6,186.9 L447.4,188.0 L448.3,190.4 L449.1,197.8 L449.9,200.5 L450.8,198.7 L451.6,193.4 L452.5,180.3 L453.3,173.5 L454.2,172.9 L455.0,179.8 L455.8,191.0 L456.7,208.7 L457.5,220.6 L458.4,234.2 L459.2,239.2 L460.1,242.5 L460.9,242.2 L461.7,239.5 L462.6,235.4 L463.4,225.6 L464.3,213.5 L465.1,202.5 L466.0,192.8 L466.8,182.1 L467.6,176.2 L468.5,177.1 L469.3,183.3 L470.2,194.0 L471.0,191.9 L471.9,189.5 L472.7,167.0 L473.5,162.3 L474.4,163.8 L475.2,171.5 L476.1,185.7 L476.9,201.6 L477.8,205.2 L478.6,228.6 L479.4,237.2 L480.3,241.3 L481.1,243.1 L482.0,240.7 L482.8,226.2 L483.7,199.0 L484.5,170.0 L485.3,153.7 L486.2,151.9 L487.0,154.0 L487.9,157.3 L488.7,161.7 L489.6,165.3 L490.4,167.6 L491.2,167.6 L492.1,160.5 L492.9,144.5 L493.8,138.6 L494.6,143.7 L495.4,153.1 L496.3,169.1 L497.1,189.8 L498.0,205.5 L498.8,222.4 L499.7,228.6 L500.5,231.8 L501.3,233.0 L502.2,229.8 L503.0,215.3 L503.9,185.4 L504.7,155.8 L505.6,142.8 L506.4,144.2 L507.2,148.7 L508.1,152.5 L508.9,158.5 L509.8,162.6 L510.6,164.4 L511.5,163.5 L512.3,155.5 L513.1,138.6 L514.0,133.0 L514.8,136.9 L515.7,146.6 L516.5,161.4 L517.4,183.6 L518.2,209.6 L519.0,219.7 L519.9,225.3 L520.7,229.8 L521.6,231.5 L522.4,229.2 L523.3,215.0 L524.1,186.6 L524.9,157.0 L525.8,144.0 L526.6,144.8 L527.5,149.3 L528.3,152.8 L529.2,158.7 L530.0,162.6 L530.8,165.0 L531.7,165.0 L532.5,154.3 L533.4,141.0 L534.2,136.6 L535.1,142.2 L535.9,151.6 L536.7,167.3 L537.6,188.9 L538.4,215.6 L539.3,226.2 L540.1,233.3 L541.0,236.9 L541.8,239.8 L542.6,239.2 L543.5,235.1 L544.3,224.4 L545.2,209.3 L546.0,194.5 L546.9,182.7 L547.7,174.4 L548.5,178.0 L549.4,187.2 L550.2,188.3 L551.1,187.4 L551.9,184.8 L552.8,178.6 L553.6,162.9 L554.4,153.7 L555.3,162.3 L556.1,172.9 L557.0,180.9 L557.8,198.4 L558.7,206.1 L559.5,222.1 L560.3,233.0 L561.2,237.4 L562.0,238.9 L562.9,235.7 L563.7,221.2 L564.6,193.1 L565.4,162.0 L566.2,146.6 L567.1,145.7 L567.9,149.0 L568.8,152.2 L569.6,157.0 L570.4,160.8 L571.3,162.9 L572.1,162.3 L573.0,153.7 L573.8,136.3 L574.7,130.6 L575.5,135.4 L576.3,144.8 L577.2,159.3 L578.0,180.9 L578.9,186.3 L579.7,209.9 L580.6,220.3 L581.4,224.4 L582.2,226.5 L583.1,226.2 L583.9,220.0 L584.8,205.2 L585.6,187.7 L586.5,169.4 L587.3,161.4 L588.1,159.0 L589.0,159.6 L589.8,162.0 L590.7,166.7 L591.5,170.3 L592.4,169.4 L593.2,159.6 L594.0,139.5 L594.9,135.4 L595.7,141.0 L596.6,149.9 L597.4,161.4 L598.3,175.0 L599.1,163.2 L599.9,194.8 L600.8,209.9 L601.6,214.7 L602.5,216.4 L603.3,213.8 L604.2,207.9 L605.0,192.8 L605.8,178.3 L606.7,165.6 L607.5,155.2 L608.4,149.6 L609.2,149.0 L610.1,153.7 L610.9,157.9 L611.7,161.4 L612.6,161.7 L613.4,150.8 L614.3,144.5 L615.1,140.7 L616.0,136.6 L616.8,132.7 L617.6,128.9 L618.5,137.4 L619.3,193.1 L620.2,204.9 L621.0,210.8 L621.9,216.1 L622.7,217.6 L623.5,215.8 L624.4,200.2 L625.2,172.7 L626.1,145.1 L626.9,132.4 L627.8,134.8 L628.6,139.5 L629.4,145.1 L630.3,150.2 L631.1,156.7 L632.0,160.5 L632.8,159.0 L633.7,149.0 L634.5,130.9 L635.3,125.9 L636.2,131.8 L637.0,143.7 L637.9,159.0 L638.7,182.1 L639.6,209.0 L640.4,207.0 L641.2,226.5 L642.1,235.7 L642.9,237.7 L643.8,234.5 L644.6,220.9 L645.4,193.1 L646.3,161.7 L647.1,147.8 L648.0,147.2 L648.8,150.5 L649.7,153.7 L650.5,159.3 L651.3,162.9 L652.2,165.3 L653.0,165.3 L653.9,157.9 L654.7,141.9 L655.6,136.9 L656.4,142.2 L657.2,151.9 L658.1,167.6 L658.9,189.2 L659.8,204.9 L660.6,222.1 L661.5,227.7 L662.3,230.9 L663.1,231.8 L664.0,228.0 L664.8,213.8 L665.7,184.2 L666.5,152.5 L667.4,139.2 L668.2,141.0 L669.0,144.8 L669.9,149.6 L670.7,154.6 L671.6,159.6 L672.4,161.7 L673.3,160.5 L674.1,150.8 L674.9,132.1 L675.8,127.1 L676.6,132.7 L677.5,143.1 L678.3,158.2 L679.2,181.2 L680.0,186.6" stroke="#9467bd" stroke-width="2" fill="none" opacity="0.8"/>
<!-- Total Generation -->
<path d="M80.0,145.4 L80.8,161.4 L81.7,200.5 L82.5,161.4 L83.4,178.3 L84.2,190.1 L85.1,170.0 L85.9,171.8 L86.7,181.8 L87.6,160.5 L88.4,198.7 L89.3,246.3 L90.1,253.1 L91.0,248.7 L91.8,248.1 L92.6,245.1 L93.5,245.7 L94.3,250.2 L95.2,251.9 L96.0,244.5 L96.9,243.1 L97.7,244.8 L98.5,220.6 L99.4,222.4 L100.2,256.4 L101.1,261.1 L101.9,251.7 L102.8,259.9 L103.6,248.4 L104.4,242.8 L105.3,252.2 L106.1,254.6 L107.0,257.9 L107.8,256.4 L108.7,212.0 L109.5,233.3 L110.3,218.2 L111.2,192.5 L112.0,178.3 L112.9,190.1 L113.7,149.0 L114.6,158.2 L115.4,219.7 L116.2,201.4 L117.1,222.7 L117.9,220.6 L118.8,194.8 L119.6,157.3 L120.4,155.8 L121.3,176.5 L122.1,122.7 L123.0,124.7 L123.8,149.0 L124.7,149.3 L125.5,145.1 L126.3,146.6 L127.2,159.6 L128.0,123.8 L128.9,95.7 L129.7,132.7 L130.6,136.9 L131.4,140.1 L132.2,149.3 L133.1,162.6 L133.9,172.9 L134.8,209.6 L135.6,219.4 L136.5,210.2 L137.3,185.1 L138.1,213.5 L139.0,189.5 L139.8,169.7 L140.7,199.0 L141.5,195.1 L142.4,166.7 L143.2,140.7 L144.0,138.9 L144.9,146.0 L145.7,133.9 L146.6,141.9 L147.4,146.9 L148.3,124.7 L149.1,104.3 L149.9,139.2 L150.8,151.6 L151.6,148.4 L152.5,162.9 L153.3,162.9 L154.2,163.2 L155.0,152.2 L155.8,128.9 L156.7,130.9 L157.5,122.7 L158.4,105.8 L159.2,114.7 L160.1,120.9 L160.9,142.8 L161.7,161.4 L162.6,132.1 L163.4,162.6 L164.3,195.1 L165.1,196.9 L166.0,198.7 L166.8,199.9 L167.6,213.8 L168.5,191.9 L169.3,209.3 L170.2,217.0 L171.0,222.4 L171.9,221.2 L172.7,221.5 L173.5,229.5 L174.4,223.2 L175.2,222.4 L176.1,221.2 L176.9,220.3 L177.8,212.3 L178.6,211.1 L179.4,204.3 L180.3,196.9 L181.1,200.2 L182.0,198.7 L182.8,221.2 L183.7,214.1 L184.5,216.1 L185.3,204.3 L186.2,187.2 L187.0,185.7 L187.9,207.9 L188.7,194.5 L189.6,193.4 L190.4,165.8 L191.2,152.2 L192.1,146.0 L192.9,118.8 L193.8,120.9 L194.6,145.4 L195.4,145.1 L196.3,181.2 L197.1,195.4 L198.0,201.6 L198.8,201.4 L199.7,149.6 L200.5,124.1 L201.3,143.1 L202.2,137.1 L203.0,149.3 L203.9,159.3 L204.7,138.6 L205.6,148.4 L206.4,153.7 L207.2,165.6 L208.1,190.1 L208.9,154.3 L209.8,144.8 L210.6,130.9 L211.5,146.9 L212.3,139.2 L213.1,144.2 L214.0,175.9 L214.8,187.2 L215.7,204.3 L216.5,200.8 L217.4,193.7 L218.2,197.5 L219.0,163.2 L219.9,178.0 L220.7,146.3 L221.6,146.6 L222.4,126.5 L223.3,166.1 L224.1,175.0 L224.9,130.3 L225.8,125.3 L226.6,122.7 L227.5,120.3 L228.3,156.1 L229.2,146.6 L230.0,128.6 L230.8,141.9 L231.7,177.4 L232.5,180.9 L233.4,192.8 L234.2,195.7 L235.1,210.8 L235.9,229.2 L236.7,227.7 L237.6,227.1 L238.4,230.9 L239.3,217.9 L240.1,214.1 L241.0,210.8 L241.8,222.7 L242.6,215.6 L243.5,197.2 L244.3,175.3 L245.2,167.0 L246.0,162.9 L246.9,170.6 L247.7,182.1 L248.5,239.2 L249.4,222.1 L250.2,214.7 L251.1,220.3 L251.9,222.7 L252.8,213.8 L253.6,217.0 L254.4,204.6 L255.3,156.1 L256.1,167.9 L257.0,186.3 L257.8,187.4 L258.7,187.4 L259.5,175.0 L260.3,204.3 L261.2,193.7 L262.0,173.2 L262.9,183.3 L263.7,186.0 L264.6,178.0 L265.4,170.6 L266.2,173.5 L267.1,194.5 L267.9,164.7 L268.8,184.8 L269.6,157.0 L270.4,160.8 L271.3,174.4 L272.1,196.9 L273.0,204.6 L273.8,215.3 L274.7,207.3 L275.5,217.3 L276.3,188.3 L277.2,190.4 L278.0,175.9 L278.9,175.0 L279.7,147.5 L280.6,122.4 L281.4,135.1 L282.2,120.3 L283.1,161.4 L283.9,146.9 L284.8,155.2 L285.6,151.9 L286.5,162.0 L287.3,157.3 L288.1,164.7 L289.0,146.9 L289.8,162.6 L290.7,153.4 L291.5,155.8 L292.4,151.6 L293.2,181.2 L294.0,174.7 L294.9,151.1 L295.7,158.5 L296.6,159.9 L297.4,162.0 L298.3,167.3 L299.1,168.2 L299.9,200.5 L300.8,206.4 L301.6,183.9 L302.5,194.3 L303.3,180.6 L304.2,177.1 L305.0,144.5 L305.8,141.0 L306.7,126.2 L307.5,99.9 L308.4,75.9 L309.2,93.4 L310.1,147.8 L310.9,167.9 L311.7,191.3 L312.6,203.4 L313.4,216.4 L314.3,213.8 L315.1,206.4 L316.0,212.6 L316.8,215.3 L317.6,243.1 L318.5,247.8 L319.3,230.9 L320.2,218.5 L321.0,214.4 L321.9,211.1 L322.7,213.5 L323.5,215.6 L324.4,213.8 L325.2,211.1 L326.1,206.4 L326.9,203.1 L327.8,194.3 L328.6,211.1 L329.4,211.1 L330.3,213.8 L331.1,214.4 L332.0,214.4 L332.8,215.6 L333.7,213.8 L334.5,223.2 L335.3,246.0 L336.2,254.3 L337.0,258.2 L337.9,266.7 L338.7,263.8 L339.6,259.0 L340.4,259.0 L341.2,238.9 L342.1,210.8 L342.9,209.3 L343.8,199.3 L344.6,214.4 L345.4,207.6 L346.3,219.1 L347.1,184.8 L348.0,162.6 L348.8,152.5 L349.7,180.3 L350.5,194.3 L351.3,215.6 L352.2,223.5 L353.0,220.3 L353.9,217.3 L354.7,221.5 L355.6,221.5 L356.4,211.7 L357.2,255.5 L358.1,242.2 L358.9,243.4 L359.8,245.7 L360.6,259.3 L361.5,238.3 L362.3,200.8 L363.1,214.7 L364.0,228.6 L364.8,212.3 L365.7,207.6 L366.5,199.9 L367.4,201.1 L368.2,205.2 L369.0,210.5 L369.9,194.0 L370.7,187.4 L371.6,195.1 L372.4,200.5 L373.3,214.1 L374.1,198.1 L374.9,195.4 L375.8,194.0 L376.6,203.1 L377.5,196.6 L378.3,200.8 L379.2,191.9 L380.0,161.1 L380.8,151.4 L381.7,155.2 L382.5,138.6 L383.4,161.7 L384.2,162.3 L385.1,153.1 L385.9,158.7 L386.7,170.0 L387.6,180.0 L388.4,188.9 L389.3,199.6 L390.1,217.3 L391.0,202.5 L391.8,193.7 L392.6,207.6 L393.5,209.0 L394.3,207.9 L395.2,209.3 L396.0,211.7 L396.9,215.3 L397.7,216.7 L398.5,215.6 L399.4,214.1 L400.2,220.3 L401.1,222.4 L401.9,220.3 L402.8,220.3 L403.6,216.1 L404.4,211.4 L405.3,204.3 L406.1,204.6 L407.0,200.5 L407.8,190.4 L408.7,182.4 L409.5,199.0 L410.3,192.2 L411.2,194.5 L412.0,206.7 L412.9,198.7 L413.7,197.5 L414.6,196.9 L415.4,179.8 L416.2,166.7 L417.1,146.0 L417.9,121.2 L418.8,113.2 L419.6,112.0 L420.4,98.4 L421.3,96.3 L422.1,104.6 L423.0,100.2 L423.8,96.9 L424.7,78.0 L425.5,67.6 L426.3,68.5 L427.2,80.0 L428.0,100.8 L428.9,99.0 L429.7,109.9 L430.6,135.7 L431.4,139.8 L432.2,102.5 L433.1,122.9 L433.9,125.3 L434.8,133.3 L435.6,133.3 L436.5,142.5 L437.3,157.0 L438.1,159.0 L439.0,165.8 L439.8,177.7 L440.7,170.9 L441.5,168.5 L442.4,168.8 L443.2,128.3 L444.0,122.9 L444.9,123.5 L445.7,114.7 L446.6,110.8 L447.4,125.3 L448.3,122.1 L449.1,140.1 L449.9,153.4 L450.8,172.9 L451.6,114.1 L452.5,146.3 L453.3,165.3 L454.2,139.8 L455.0,116.4 L455.8,149.0 L456.7,154.0 L457.5,171.2 L458.4,152.5 L459.2,185.4 L460.1,172.7 L460.9,166.4 L461.7,173.2 L462.6,164.4 L463.4,158.2 L464.3,144.8 L465.1,142.2 L466.0,148.1 L466.8,156.4 L467.6,163.2 L468.5,160.8 L469.3,170.6 L470.2,181.8 L471.0,163.8 L471.9,154.9 L472.7,163.2 L473.5,170.6 L474.4,180.0 L475.2,188.6 L476.1,189.5 L476.9,193.1 L477.8,205.8 L478.6,225.0 L479.4,253.4 L480.3,246.3 L481.1,226.8 L482.0,242.2 L482.8,249.6 L483.7,214.4 L484.5,202.8 L485.3,203.7 L486.2,172.7 L487.0,180.6 L487.9,166.7 L488.7,154.6 L489.6,123.8 L490.4,138.9 L491.2,132.7 L492.1,107.9 L492.9,112.3 L493.8,119.4 L494.6,123.8 L495.4,145.4 L496.3,149.0 L497.1,156.1 L498.0,201.9 L498.8,218.8 L499.7,218.2 L500.5,231.5 L501.3,237.4 L502.2,220.3 L503.0,208.2 L503.9,211.1 L504.7,207.3 L505.6,207.3 L506.4,195.7 L507.2,178.0 L508.1,183.6 L508.9,170.6 L509.8,174.4 L510.6,183.0 L511.5,172.7 L512.3,168.2 L513.1,211.1 L514.0,217.6 L514.8,212.9 L515.7,209.3 L516.5,209.6 L517.4,205.5 L518.2,192.8 L519.0,191.6 L519.9,174.7 L520.7,167.0 L521.6,188.9 L522.4,196.6 L523.3,168.8 L524.1,156.7 L524.9,152.5 L525.8,161.1 L526.6,165.3 L527.5,146.6 L528.3,141.3 L529.2,125.0 L530.0,137.4 L530.8,198.1 L531.7,209.6 L532.5,199.0 L533.4,210.5 L534.2,214.4 L535.1,208.7 L535.9,200.2 L536.7,223.2 L537.6,222.1 L538.4,227.4 L539.3,233.6 L540.1,255.5 L541.0,253.1 L541.8,235.7 L542.6,236.3 L543.5,235.7 L544.3,235.4 L545.2,238.3 L546.0,242.5 L546.9,228.9 L547.7,241.9 L548.5,207.3 L549.4,203.4 L550.2,199.3 L551.1,204.0 L551.9,207.9 L552.8,211.7 L553.6,225.9 L554.4,236.3 L555.3,244.5 L556.1,251.4 L557.0,254.6 L557.8,253.4 L558.7,245.1 L559.5,241.0 L560.3,244.3 L561.2,235.7 L562.0,231.8 L562.9,196.9 L563.7,201.1 L564.6,207.0 L565.4,197.8 L566.2,194.8 L567.1,190.7 L567.9,185.7 L568.8,172.4 L569.6,158.5 L570.4,153.7 L571.3,154.0 L572.1,159.3 L573.0,158.7 L573.8,159.3 L574.7,167.6 L575.5,167.9 L576.3,170.3 L577.2,177.7 L578.0,184.2 L578.9,204.6 L579.7,184.8 L580.6,215.6 L581.4,210.8 L582.2,224.4 L583.1,230.6 L583.9,229.5 L584.8,229.8 L585.6,228.0 L586.5,226.2 L587.3,212.0 L588.1,219.7 L589.0,208.2 L589.8,205.8 L590.7,204.0 L591.5,207.9 L592.4,223.5 L593.2,223.0 L594.0,223.0 L594.9,226.2 L595.7,229.5 L596.6,229.2 L597.4,230.1 L598.3,235.1 L599.1,233.9 L599.9,236.3 L600.8,232.1 L601.6,230.6 L602.5,229.8 L603.3,235.7 L604.2,238.3 L605.0,239.5 L605.8,245.7 L606.7,248.1 L607.5,238.3 L608.4,227.4 L609.2,224.4 L610.1,223.2 L610.9,206.1 L611.7,189.5 L612.6,200.2 L613.4,197.5 L614.3,189.2 L615.1,181.5 L616.0,183.9 L616.8,174.1 L617.6,169.1 L618.5,164.4 L619.3,146.3 L620.2,152.2 L621.0,171.2 L621.9,172.7 L622.7,173.2 L623.5,137.4 L624.4,133.3 L625.2,136.6 L626.1,131.5 L626.9,135.4 L627.8,121.2 L628.6,117.6 L629.4,125.9 L630.3,119.7 L631.1,113.8 L632.0,131.2 L632.8,144.2 L633.7,126.5 L634.5,122.1 L635.3,128.6 L636.2,133.6 L637.0,125.3 L637.9,141.3 L638.7,159.0 L639.6,173.2 L640.4,157.3 L641.2,157.9 L642.1,171.5 L642.9,170.6 L643.8,162.6 L644.6,158.5 L645.4,140.1 L646.3,127.1 L647.1,173.5 L648.0,188.9 L648.8,206.4 L649.7,182.1 L650.5,160.8 L651.3,198.4 L652.2,182.7 L653.0,191.9 L653.9,159.9 L654.7,148.1 L655.6,185.4 L656.4,206.1 L657.2,184.8 L658.1,192.8 L658.9,191.6 L659.8,179.8 L660.6,199.6 L661.5,216.7 L662.3,220.3 L663.1,219.1 L664.0,236.9 L664.8,222.1 L665.7,214.7 L666.5,216.4 L667.4,210.8 L668.2,217.3 L669.0,217.3 L669.9,191.6 L670.7,174.7 L671.6,170.3 L672.4,163.5 L673.3,168.8 L674.1,160.5 L674.9,157.0 L675.8,157.0 L676.6,159.6 L677.5,158.2 L678.3,162.0 L679.2,174.1 L680.0,201.4" stroke="#8c564b" stroke-width="2" fill="none" opacity="0.8"/>
<!-- Forecast Difference -->
<path d="M80.0,420.0 L80.8,420.0 L81.7,420.0 L82.5,420.0 L83.4,420.0 L84.2,420.0 L85.1,420.0 L85.9,420.0 L86.7,420.0 L87.6,420.0 L88.4,420.0 L89.3,420.0 L90.1,420.0 L91.0,420.0 L91.8,420.0 L92.6,420.0 L93.5,420.0 L94.3,420.0 L95.2,420.0 L96.0,420.0 L96.9,420.0 L97.7,420.0 L98.5,420.0 L99.4,420.0 L100.2,420.0 L101.1,420.0 L101.9,420.0 L102.8,420.0 L103.6,420.0 L104.4,420.0 L105.3,420.0 L106.1,420.0 L107.0,420.0 L107.8,420.0 L108.7,420.0 L109.5,420.0 L110.3,420.0 L111.2,420.0 L112.0,420.0 L112.9,420.0 L113.7,420.0 L114.6,420.0 L115.4,420.0 L116.2,420.0 L117.1,420.0 L117.9,420.0 L118.8,420.0 L119.6,420.0 L120.4,420.0 L121.3,420.0 L122.1,420.0 L123.0,420.0 L123.8,420.0 L124.7,420.0 L125.5,420.0 L126.3,420.0 L127.2,420.0 L128.0,420.0 L128.9,420.0 L129.7,420.0 L130.6,420.0 L131.4,420.0 L132.2,420.0 L133.1,420.0 L133.9,420.0 L134.8,420.0 L135.6,420.0 L136.5,420.0 L137.3,420.0 L138.1,420.0 L139.0,420.0 L139.8,420.0 L140.7,420.0 L141.5,420.0 L142.4,420.0 L143.2,420.0 L144.0,420.0 L144.9,420.0 L145.7,420.0 L146.6,420.0 L147.4,420.0 L148.3,420.0 L149.1,420.0 L149.9,420.0 L150.8,420.0 L151.6,420.0 L152.5,420.0 L153.3,420.0 L154.2,420.0 L155.0,420.0 L155.8,420.0 L156.7,420.0 L157.5,420.0 L158.4,420.0 L159.2,420.0 L160.1,420.0 L160.9,420.0 L161.7,420.0 L162.6,420.0 L163.4,420.0 L164.3,420.0 L165.1,420.0 L166.0,420.0 L166.8,420.0 L167.6,420.0 L168.5,420.0 L169.3,420.0 L170.2,420.0 L171.0,420.0 L171.9,420.0 L172.7,420.0 L173.5,420.0 L174.4,420.0 L175.2,420.0 L176.1,420.0 L176.9,420.0 L177.8,420.0 L178.6,420.0 L179.4,420.0 L180.3,420.0 L181.1,420.0 L182.0,420.0 L182.8,420.0 L183.7,420.0 L184.5,420.0 L185.3,420.0 L186.2,420.0 L187.0,420.0 L187.9,420.0 L188.7,420.0 L189.6,420.0 L190.4,420.0 L191.2,420.0 L192.1,420.0 L192.9,420.0 L193.8,420.0 L194.6,420.0 L195.4,420.0 L196.3,420.0 L197.1,420.0 L198.0,420.0 L198.8,420.0 L199.7,420.0 L200.5,420.0 L201.3,420.0 L202.2,420.0 L203.0,420.0 L203.9,420.0 L204.7,420.0 L205.6,420.0 L206.4,420.0 L207.2,420.0 L208.1,420.0 L208.9,420.0 L209.8,420.0 L210.6,420.0 L211.5,420.0 L212.3,420.0 L213.1,420.0 L214.0,420.0 L214.8,420.0 L215.7,420.0 L216.5,420.0 L217.4,420.0 L218.2,420.0 L219.0,420.0 L219.9,420.0 L220.7,420.0 L221.6,420.0 L222.4,420.0 L223.3,420.0 L224.1,420.0 L224.9,420.0 L225.8,420.0 L226.6,420.0 L227.5,420.0 L228.3,420.0 L229.2,420.0 L230.0,420.0 L230.8,420.0 L231.7,420.0 L232.5,420.0 L233.4,420.0 L234.2,420.0 L235.1,420.0 L235.9,420.0 L236.7,420.0 L237.6,420.0 L238.4,420.0 L239.3,420.0 L240.1,420.0 L241.0,420.0 L241.8,420.0 L242.6,420.0 L243.5,420.0 L244.3,420.0 L245.2,420.0 L246.0,420.0 L246.9,420.0 L247.7,420.0 L248.5,420.0 L249.4,420.0 L250.2,420.0 L251.1,420.0 L251.9,420.0 L252.8,420.0 L253.6,420.0 L254.4,420.0 L255.3,420.0 L256.1,420.0 L257.0,420.0 L257.8,420.0 L258.7,420.0 L259.5,420.0 L260.3,420.0 L261.2,420.0 L262.0,420.0 L262.9,420.0 L263.7,420.0 L264.6,420.0 L265.4,420.0 L266.2,420.0 L267.1,420.0 L267.9,420.0 L268.8,420.0 L269.6,420.0 L270.4,420.0 L271.3,420.0 L272.1,420.0 L273.0,420.0 L273.8,420.0 L274.7,420.0 L275.5,420.0 L276.3,420.0 L277.2,420.0 L278.0,420.0 L278.9,420.0 L279.7,420.0 L280.6,420.0 L281.4,420.0 L282.2,420.0 L283.1,420.0 L283.9,420.0 L284.8,420.0 L285.6,420.0 L286.5,420.0 L287.3,420.0 L288.1,420.0 L289.0,420.0 L289.8,420.0 L290.7,420.0 L291.5,420.0 L292.4,420.0 L293.2,420.0 L294.0,420.0 L294.9,420.0 L295.7,420.0 L296.6,420.0 L297.4,420.0 L298.3,420.0 L299.1,420.0 L299.9,420.0 L300.8,420.0 L301.6,420.0 L302.5,420.0 L303.3,420.0 L304.2,420.0 L305.0,420.0 L305.8,420.0 L306.7,420.0 L307.5,420.0 L308.4,420.0 L309.2,420.0 L310.1,420.0 L310.9,420.0 L311.7,420.0 L312.6,420.0 L313.4,420.0 L314.3,420.0 L315.1,420.0 L316.0,420.0 L316.8,420.0 L317.6,420.0 L318.5,420.0 L319.3,420.0 L320.2,420.0 L321.0,420.0 L321.9,420.0 L322.7,420.0 L323.5,420.0 L324.4,420.0 L325.2,420.0 L326.1,420.0 L326.9,420.0 L327.8,420.0 L328.6,420.0 L329.4,420.0 L330.3,420.0 L331.1,420.0 L332.0,420.0 L332.8,420.0 L333.7,420.0 L334.5,420.0 L335.3,420.0 L336.2,420.0 L337.0,420.0 L337.9,420.0 L338.7,420.0 L339.6,420.0 L340.4,420.0 L341.2,420.0 L342.1,420.0 L342.9,420.0 L343.8,420.0 L344.6,420.0 L345.4,420.0 L346.3,420.0 L347.1,420.0 L348.0,420.0 L348.8,420.0 L349.7,420.0 L350.5,420.0 L351.3,420.0 L352.2,420.0 L353.0,420.0 L353.9,420.0 L354.7,420.0 L355.6,420.0 L356.4,420.0 L357.2,420.0 L358.1,420.0 L358.9,420.0 L359.8,420.0 L360.6,420.0 L361.5,420.0 L362.3,420.0 L363.1,420.0 L364.0,420.0 L364.8,420.0 L365.7,420.0 L366.5,420.0 L367.4,420.0 L368.2,420.0 L369.0,420.0 L369.9,420.0 L370.7,420.0 L371.6,420.0 L372.4,420.0 L373.3,420.0 L374.1,420.0 L374.9,420.0 L375.8,420.0 L376.6,420.0 L377.5,420.0 L378.3,420.0 L379.2,420.0 L380.0,420.0 L380.8,420.0 L381.7,420.0 L382.5,420.0 L383.4,420.0 L384.2,420.0 L385.1,420.0 L385.9,420.0 L386.7,420.0 L387.6,420.0 L388.4,420.0 L389.3,420.0 L390.1,420.0 L391.0,420.0 L391.8,420.0 L392.6,420.0 L393.5,420.0 L394.3,420.0 L395.2,420.0 L396.0,420.0 L396.9,420.0 L397.7,420.0 L398.5,420.0 L399.4,420.0 L400.2,420.0 L401.1,420.0 L401.9,420.0 L402.8,420.0 L403.6,420.0 L404.4,420.0 L405.3,420.0 L406.1,420.0 L407.0,420.0 L407.8,420.0 L408.7,420.0 L409.5,420.0 L410.3,420.0 L411.2,420.0 L412.0,420.0 L412.9,420.0 L413.7,420.0 L414.6,420.0 L415.4,420.0 L416.2,420.0 L417.1,420.0 L417.9,420.0 L418.8,420.0 L419.6,420.0 L420.4,420.0 L421.3,420.0 L422.1,420.0 L423.0,420.0 L423.8,420.0 L424.7,420.0 L425.5,420.0 L426.3,420.0 L427.2,420.0 L428.0,420.0 L428.9,420.0 L429.7,420.0 L430.6,420.0 L431.4,420.0 L432.2,420.0 L433.1,420.0 L433.9,420.0 L434.8,420.0 L435.6,420.0 L436.5,420.0 L437.3,420.0 L438.1,420.0 L439.0,420.0 L439.8,420.0 L440.7,420.0 L441.5,420.0 L442.4,420.0 L443.2,420.0 L444.0,420.0 L444.9,420.0 L445.7,420.0 L446.6,420.0 L447.4,420.0 L448.3,420.0 L449.1,420.0 L449.9,420.0 L450.8,420.0 L451.6,420.0 L452.5,420.0 L453.3,420.0 L454.2,420.0 L455.0,420.0 L455.8,420.0 L456.7,420.0 L457.5,420.0 L458.4,420.0 L459.2,420.0 L460.1,420.0 L460.9,420.0 L461.7,420.0 L462.6,420.0 L463.4,420.0 L464.3,420.0 L465.1,420.0 L466.0,420.0 L466.8,420.0 L467.6,420.0 L468.5,420.0 L469.3,420.0 L470.2,420.0 L471.0,420.0 L471.9,420.0 L472.7,420.0 L473.5,420.0 L474.4,420.0 L475.2,420.0 L476.1,420.0 L476.9,420.0 L477.8,420.0 L478.6,420.0 L479.4,420.0 L480.3,420.0 L481.1,420.0 L482.0,420.0 L482.8,420.0 L483.7,420.0 L484.5,420.0 L485.3,420.0 L486.2,420.0 L487.0,420.0 L487.9,420.0 L488.7,420.0 L489.6,420.0 L490.4,420.0 L491.2,420.0 L492.1,420.0 L492.9,420.0 L493.8,420.0 L494.6,420.0 L495.4,420.0 L496.3,420.0 L497.1,420.0 L498.0,420.0 L498.8,420.0 L499.7,420.0 L500.5,420.0 L501.3,420.0 L502.2,420.0 L503.0,420.0 L503.9,420.0 L504.7,420.0 L505.6,420.0 L506.4,420.0 L507.2,420.0 L508.1,420.0 L508.9,420.0 L509.8,420.0 L510.6,420.0 L511.5,420.0 L512.3,420.0 L513.1,420.0 L514.0,420.0 L514.8,420.0 L515.7,420.0 L516.5,420.0 L517.4,420.0 L518.2,420.0 L519.0,420.0 L519.9,420.0 L520.7,420.0 L521.6,420.0 L522.4,420.0 L523.3,420.0 L524.1,420.0 L524.9,420.0 L525.8,420.0 L526.6,420.0 L527.5,420.0 L528.3,420.0 L529.2,420.0 L530.0,420.0 L530.8,420.0 L531.7,420.0 L532.5,420.0 L533.4,420.0 L534.2,420.0 L535.1,420.0 L535.9,420.0 L536.7,420.0 L537.6,420.0 L538.4,420.0 L539.3,420.0 L540.1,420.0 L541.0,420.0 L541.8,420.0 L542.6,420.0 L543.5,420.0 L544.3,420.0 L545.2,420.0 L546.0,420.0 L546.9,420.0 L547.7,420.0 L548.5,420.0 L549.4,420.0 L550.2,420.0 L551.1,420.0 L551.9,420.0 L552.8,420.0 L553.6,420.0 L554.4,420.0 L555.3,420.0 L556.1,420.0 L557.0,420.0 L557.8,420.0 L558.7,420.0 L559.5,420.0 L560.3,420.0 L561.2,420.0 L562.0,420.0 L562.9,420.0 L563.7,420.0 L564.6,420.0 L565.4,420.0 L566.2,420.0 L567.1,420.0 L567.9,420.0 L568.8,420.0 L569.6,420.0 L570.4,420.0 L571.3,420.0 L572.1,420.0 L573.0,420.0 L573.8,420.0 L574.7,420.0 L575.5,420.0 L576.3,420.0 L577.2,420.0 L578.0,420.0 L578.9,420.0 L579.7,420.0 L580.6,420.0 L581.4,420.0 L582.2,420.0 L583.1,420.0 L583.9,420.0 L584.8,420.0 L585.6,420.0 L586.5,420.0 L587.3,420.0 L588.1,420.0 L589.0,420.0 L589.8,420.0 L590.7,420.0 L591.5,420.0 L592.4,420.0 L593.2,420.0 L594.0,420.0 L594.9,420.0 L595.7,420.0 L596.6,420.0 L597.4,420.0 L598.3,420.0 L599.1,420.0 L599.9,420.0 L600.8,420.0 L601.6,420.0 L602.5,420.0 L603.3,420.0 L604.2,420.0 L605.0,420.0 L605.8,420.0 L606.7,420.0 L607.5,420.0 L608.4,420.0 L609.2,420.0 L610.1,420.0 L610.9,420.0 L611.7,420.0 L612.6,420.0 L613.4,420.0 L614.3,420.0 L615.1,420.0 L616.0,420.0 L616.8,420.0 L617.6,420.0 L618.5,420.0 L619.3,420.0 L620.2,420.0 L621.0,420.0 L621.9,420.0 L622.7,420.0 L623.5,420.0 L624.4,420.0 L625.2,420.0 L626.1,420.0 L626.9,420.0 L627.8,420.0 L628.6,420.0 L629.4,420.0 L630.3,420.0 L631.1,420.0 L632.0,420.0 L632.8,420.0 L633.7,420.0 L634.5,420.0 L635.3,420.0 L636.2,420.0 L637.0,420.0 L637.9,420.0 L638.7,420.0 L639.6,420.0 L640.4,420.0 L641.2,420.0 L642.1,420.0 L642.9,420.0 L643.8,420.0 L644.6,420.0 L645.4,420.0 L646.3,420.0 L647.1,420.0 L648.0,420.0 L648.8,420.0 L649.7,420.0 L650.5,420.0 L651.3,420.0 L652.2,420.0 L653.0,420.0 L653.9,420.0 L654.7,420.0 L655.6,420.0 L656.4,420.0 L657.2,420.0 L658.1,420.0 L658.9,420.0 L659.8,420.0 L660.6,420.0 L661.5,420.0 L662.3,420.0 L663.1,420.0 L664.0,420.0 L664.8,420.0 L665.7,420.0 L666.5,420.0 L667.4,420.0 L668.2,420.0 L669.0,420.0 L669.9,420.0 L670.7,420.0 L671.6,420.0 L672.4,420.0 L673.3,420.0 L674.1,420.0 L674.9,420.0 L675.8,420.0 L676.6,420.0 L677.5,420.0 L678.3,420.0 L679.2,420.0 L680.0,420.0" stroke="#e377c2" stroke-width="2" fill="none" opacity="0.8"/>

<!-- Legend -->
<line x1="690" y1="70" x2="705" y2="70" stroke="#1f77b4" stroke-width="3"/>
<text x="710" y="74" class="legend">Wind Generation</text>
<line x1="690" y1="88" x2="705" y2="88" stroke="#ff7f0e" stroke-width="3"/>
<text x="710" y="92" class="legend">Hydro Generation</text>
<line x1="690" y1="106" x2="705" y2="106" stroke="#2ca02c" stroke-width="3"/>
<text x="710" y="110" class="legend">Thermal Generation</text>
<line x1="690" y1="124" x2="705" y2="124" stroke="#d62728" stroke-width="3"/>
<text x="710" y="128" class="legend">Solar Generation</text>
<line x1="690" y1="142" x2="705" y2="142" stroke="#9467bd" stroke-width="3"/>
<text x="710" y="146" class="legend">Forecast</text>
<line x1="690" y1="160" x2="705" y2="160" stroke="#8c564b" stroke-width="3"/>
<text x="710" y="164" class="legend">Total Generation</text>
<line x1="690" y1="178" x2="705" y2="178" stroke="#e377c2" stroke-width="3"/>
<text x="710" y="182" class="legend">Forecast Difference</text>

<!-- Date range -->
<text x="80" y="495" class="legend">Range: 11/04 - 12/03/2025 (713 records)</text>
</svg>