<?xml version="1.0" encoding="UTF-8"?>
<svg width="800" height="500" xmlns="http://www.w3.org/2000/svg">
<style>
.axis-line { stroke: #333; stroke-width: 1; }
.grid-line { stroke: #ddd; stroke-width: 0.5; }
.title { font: 16px Arial; text-anchor: middle; fill: #333; }
.axis-label { font: 12px Arial; text-anchor: middle; fill: #666; }
.legend { font: 10px Arial; fill: #333; }
</style>

<!-- Title -->
<text x="400.0" y="25" class="title">Northwestern Energy Generation Data - Past 30 Days</text>

<!-- Plot area background -->
<rect x="80" y="50" width="600" height="370" fill="white" stroke="#ddd"/>

<!-- Y-axis -->
<line x1="80" y1="50" x2="80" y2="420" class="axis-line"/>
<text x="30" y="235.0" class="axis-label" transform="rotate(-90, 30, 235.0)">Generation (MW)</text>

<!-- X-axis -->
<line x1="80" y1="420" x2="680" y2="420" class="axis-line"/>
<text x="380.0" y="480" class="axis-label">Time</text>
<line x1="80" y1="420.0" x2="680" y2="420.0" class="grid-line"/>
<text x="70" y="425.0" class="legend" text-anchor="end">0</text>
<line x1="80" y1="327.5" x2="680" y2="327.5" class="grid-line"/>
<text x="70" y="332.5" class="legend" text-anchor="end">345</text>
<line x1="80" y1="235.0" x2="680" y2="235.0" class="grid-line"/>
<text x="70" y="240.0" class="legend" text-anchor="end">690</text>
<line x1="80" y1="142.5" x2="680" y2="142.5" class="grid-line"/>
<text x="70" y="147.5" class="legend" text-anchor="end">1035</text>
<line x1="80" y1="50.0" x2="680" y2="50.0" class="grid-line"/>
<text x="70" y="55.0" class="legend" text-anchor="end">1380</text>
<!-- Wind Generation -->
<path d="M80.0,395.1 L80.8,387.8 L81.7,381.4 L82.5,380.8 L83.4,370.9 L84.2,372.3 L85.0,374.7 L85.9,370.9 L86.7,364.5 L87.6,378.4 L88.4,378.4 L89.3,381.4 L90.1,373.6 L90.9,361.8 L91.8,369.3 L92.6,351.9 L93.5,373.3 L94.3,380.3 L95.1,366.4 L96.0,345.7 L96.8,362.3 L97.7,379.5 L98.5,370.4 L99.4,379.0 L100.2,370.4 L101.0,366.6 L101.9,361.5 L102.7,361.3 L103.6,379.5 L104.4,391.3 L105.2,388.9 L106.1,390.8 L106.9,389.7 L107.8,400.4 L108.6,405.8 L109.5,410.6 L110.3,405.5 L111.1,397.2 L112.0,399.6 L112.8,387.0 L113.7,367.4 L114.5,356.2 L115.3,352.7 L116.2,309.0 L117.0,314.1 L117.9,318.4 L118.7,310.9 L119.6,315.9 L120.4,310.0 L121.2,311.1 L122.1,305.8 L122.9,308.4 L123.8,310.9 L124.6,312.5 L125.4,315.4 L126.3,310.9 L127.1,311.7 L128.0,309.8 L128.8,358.9 L129.6,365.3 L130.5,368.0 L131.3,372.8 L132.2,368.0 L133.0,363.4 L133.9,362.3 L134.7,362.3 L135.5,363.4 L136.4,319.2 L137.2,315.7 L138.1,309.5 L138.9,311.1 L139.7,313.0 L140.6,317.6 L141.4,317.6 L142.3,324.5 L143.1,317.6 L144.8,326.1 L145.6,340.4 L146.5,338.7 L147.3,348.4 L148.2,338.5 L149.0,332.0 L149.8,382.7 L150.7,395.6 L151.5,395.1 L152.4,401.0 L153.2,402.8 L154.1,408.7 L154.9,407.7 L155.7,398.0 L156.6,385.4 L157.4,346.8 L158.3,328.0 L159.1,318.6 L159.9,325.1 L160.8,340.6 L161.6,348.4 L162.5,359.7 L163.3,366.1 L164.2,372.5 L165.0,378.4 L165.8,391.8 L166.7,398.3 L167.5,409.0 L168.4,417.9 L169.2,419.5 L170.0,420.0 L170.9,416.5 L171.7,404.4 L172.6,399.1 L173.4,393.5 L174.2,388.4 L175.1,377.1 L175.9,392.1 L176.8,388.4 L177.6,379.5 L178.5,387.6 L179.3,398.0 L180.1,400.4 L181.0,404.4 L181.8,412.2 L182.7,415.2 L183.5,415.7 L184.3,415.7 L185.2,414.1 L186.0,414.6 L186.9,410.9 L187.7,406.1 L188.6,393.2 L189.4,394.0 L190.2,386.5 L191.1,391.3 L191.9,373.3 L192.8,366.9 L193.6,362.9 L194.4,353.0 L195.3,364.8 L196.1,381.7 L197.0,347.9 L197.8,359.4 L198.7,366.6 L199.5,353.5 L200.3,379.0 L201.2,383.0 L202.0,372.5 L202.9,354.0 L203.7,337.9 L204.5,358.6 L205.4,337.9 L206.2,351.9 L207.1,364.0 L207.9,361.5 L208.8,355.1 L209.6,331.0 L210.4,326.1 L211.3,341.7 L212.1,310.6 L213.0,312.5 L213.8,309.0 L214.6,330.4 L215.5,348.1 L216.3,330.4 L217.2,342.2 L218.0,384.6 L218.8,384.3 L219.7,325.1 L220.5,314.1 L221.4,305.0 L222.2,308.4 L223.1,314.1 L223.9,321.8 L224.7,344.6 L225.6,353.2 L226.4,385.4 L227.3,401.2 L228.1,405.0 L228.9,396.1 L229.8,397.5 L230.6,405.5 L231.5,400.7 L232.3,408.7 L233.2,409.8 L234.0,400.7 L234.8,391.6 L235.7,388.9 L236.5,376.6 L237.4,373.9 L238.2,350.0 L239.0,356.2 L239.9,357.0 L240.7,366.9 L241.6,388.9 L242.4,402.0 L243.3,403.9 L244.1,408.7 L244.9,403.6 L245.8,401.5 L246.6,407.9 L247.5,412.0 L248.3,414.1 L249.1,413.3 L250.0,416.0 L250.8,417.9 L251.7,418.7 L252.5,418.9 L253.4,414.9 L254.2,412.2 L255.0,406.9 L255.9,410.1 L256.7,405.3 L257.6,406.3 L258.4,406.6 L259.2,406.9 L260.1,407.1 L260.9,406.3 L261.8,401.0 L262.6,403.4 L263.5,402.3 L264.3,403.1 L265.1,406.1 L266.0,410.1 L266.8,410.6 L267.7,416.2 L268.5,420.0 L269.3,420.0 L270.2,420.0 L271.0,418.4 L271.9,408.7 L272.7,398.5 L273.5,394.0 L274.4,370.1 L275.2,358.3 L276.1,356.7 L276.9,357.8 L277.8,356.7 L278.6,318.1 L279.4,312.7 L280.3,331.0 L281.1,327.5 L282.0,331.8 L282.8,347.3 L283.6,350.3 L284.5,358.9 L285.3,361.8 L286.2,379.8 L287.0,384.3 L287.9,399.6 L288.7,409.0 L289.5,412.2 L290.4,413.3 L291.2,411.7 L292.1,413.6 L292.9,411.7 L293.7,406.3 L294.6,400.7 L295.4,400.4 L296.3,403.1 L297.1,405.5 L298.0,405.5 L298.8,402.3 L299.6,401.8 L300.5,405.5 L301.3,408.2 L302.2,405.8 L303.0,403.1 L303.8,405.0 L304.7,404.2 L305.5,394.3 L306.4,382.2 L307.2,356.7 L308.1,331.0 L308.9,323.2 L309.7,319.2 L310.6,317.6 L311.4,315.1 L312.3,312.2 L313.1,312.2 L313.9,314.6 L314.8,313.8 L315.6,313.5 L316.5,307.9 L317.3,323.5 L318.1,310.0 L319.0,310.9 L319.8,308.7 L320.7,313.3 L321.5,328.3 L322.4,337.4 L323.2,354.0 L324.0,379.2 L324.9,373.6 L325.7,379.0 L326.6,378.2 L327.4,351.3 L328.2,357.5 L329.1,348.1 L329.9,371.5 L330.8,343.3 L331.6,361.0 L332.5,346.5 L333.3,387.3 L334.1,378.4 L335.0,374.7 L335.8,380.3 L336.7,380.8 L337.5,373.9 L338.3,331.0 L339.2,311.1 L340.0,321.0 L340.9,333.6 L341.7,318.6 L342.6,318.6 L343.4,309.8 L344.2,315.1 L345.1,310.9 L345.9,315.9 L346.8,335.5 L347.6,333.6 L348.4,347.1 L349.3,353.0 L350.1,335.5 L351.0,347.9 L351.8,361.3 L352.7,347.1 L353.5,330.2 L354.3,309.8 L355.2,309.5 L356.0,310.3 L356.9,318.4 L357.7,319.4 L358.5,334.5 L359.4,341.2 L360.2,343.0 L361.1,322.7 L361.9,340.4 L362.7,332.8 L363.6,328.3 L364.4,351.3 L365.3,336.6 L366.1,337.1 L367.0,330.2 L367.8,328.3 L368.6,348.1 L369.5,338.5 L370.3,330.2 L371.2,328.3 L372.0,360.5 L372.8,343.6 L373.7,350.0 L374.5,335.0 L375.4,324.3 L376.2,326.1 L377.1,321.6 L377.9,330.4 L378.7,327.7 L379.6,331.5 L380.4,343.3 L381.3,345.7 L382.1,351.3 L382.9,344.9 L383.8,353.2 L384.6,335.8 L385.5,325.6 L386.3,319.2 L387.2,326.9 L388.0,341.2 L388.8,372.5 L389.7,345.4 L390.5,336.1 L391.4,337.4 L392.2,353.2 L393.0,324.3 L393.9,326.4 L394.7,317.0 L395.6,323.5 L396.4,322.7 L397.3,321.8 L398.1,317.3 L398.9,317.3 L399.8,321.8 L400.6,335.8 L401.5,362.9 L402.3,350.3 L403.1,344.9 L404.0,354.0 L404.8,347.3 L405.7,345.2 L406.5,356.2 L407.3,365.0 L408.2,383.0 L409.0,397.7 L409.9,394.8 L410.7,399.6 L411.6,402.0 L412.4,401.5 L413.2,388.6 L414.1,393.2 L414.9,388.1 L415.8,354.8 L416.6,362.3 L417.4,340.1 L418.3,355.9 L419.1,362.6 L420.0,366.9 L420.8,364.5 L421.7,371.7 L422.5,377.1 L423.3,380.6 L424.2,396.7 L425.0,411.4 L425.9,413.0 L426.7,410.6 L427.5,404.4 L428.4,395.9 L429.2,391.6 L430.1,365.8 L430.9,353.2 L431.8,373.9 L432.6,367.2 L433.4,345.2 L434.3,331.5 L435.1,336.3 L436.0,325.3 L436.8,323.7 L437.6,328.6 L438.5,329.1 L439.3,346.0 L440.2,366.6 L441.0,373.1 L441.9,395.6 L442.7,394.0 L443.5,396.7 L444.4,394.0 L445.2,391.6 L446.1,393.5 L446.9,387.0 L447.7,387.6 L448.6,401.5 L449.4,401.2 L450.3,405.8 L451.1,412.2 L451.9,416.8 L452.8,418.1 L453.6,419.2 L454.5,419.5 L455.3,416.5 L456.2,417.6 L457.0,416.0 L457.8,412.8 L458.7,411.2 L459.5,404.4 L460.4,394.5 L461.2,378.2 L462.0,369.0 L462.9,375.8 L463.7,383.5 L464.6,409.3 L465.4,418.4 L466.3,419.5 L467.1,418.1 L467.9,412.0 L468.8,406.9 L469.6,407.1 L470.5,401.2 L471.3,371.5 L472.1,377.4 L473.0,387.0 L473.8,379.0 L474.7,375.5 L475.5,337.4 L476.4,348.7 L477.2,329.1 L478.0,350.5 L478.9,315.9 L479.7,329.1 L480.6,351.1 L481.4,369.0 L482.2,375.8 L483.1,376.0 L483.9,360.7 L484.8,336.9 L485.6,337.7 L486.5,318.9 L487.3,345.4 L488.1,348.7 L489.0,367.2 L489.8,355.4 L490.7,347.9 L491.5,338.5 L492.3,369.9 L493.2,351.1 L494.0,344.9 L494.9,361.5 L495.7,362.6 L496.5,360.2 L497.4,359.4 L498.2,358.1 L499.1,364.5 L499.9,364.5 L500.8,342.0 L501.6,339.0 L502.4,338.7 L503.3,341.4 L504.1,344.1 L505.0,349.2 L505.8,355.4 L506.6,384.1 L507.5,395.3 L508.3,410.6 L509.2,413.8 L510.0,414.1 L510.9,414.6 L511.7,390.8 L512.5,391.3 L513.4,387.0 L514.2,385.7 L515.1,376.3 L515.9,359.7 L516.7,355.1 L517.6,363.7 L518.4,363.1 L519.3,338.2 L520.1,346.0 L521.0,350.5 L521.8,362.6 L522.6,368.8 L523.5,376.0 L524.3,401.2 L525.2,399.1 L526.0,408.7 L526.8,406.1 L527.7,410.6 L528.5,414.9 L529.4,416.8 L530.2,418.1 L531.1,416.5 L531.9,415.4 L532.7,416.5 L533.6,414.6 L534.4,410.3 L535.3,404.2 L536.1,396.7 L536.9,401.5 L537.8,399.1 L538.6,396.1 L539.5,384.6 L540.3,380.3 L541.2,391.0 L542.0,385.4 L542.8,385.4 L543.7,385.4 L544.5,396.7 L545.4,399.9 L546.2,399.4 L547.0,401.0 L547.9,399.6 L548.7,385.1 L549.6,375.2 L550.4,364.5 L551.2,351.6 L552.1,348.7 L552.9,394.8 L553.8,377.9 L554.6,395.1 L555.5,394.8 L556.3,388.1 L557.1,386.2 L558.0,383.0 L558.8,383.3 L559.7,382.5 L560.5,394.3 L561.3,409.8 L562.2,391.8 L563.0,398.8 L563.9,389.4 L564.7,408.7 L565.6,409.3 L566.4,410.1 L567.2,404.2 L568.1,396.1 L568.9,394.0 L569.8,392.1 L570.6,391.3 L571.4,395.3 L572.3,396.9 L573.1,392.6 L574.0,400.2 L574.8,395.9 L575.7,405.8 L576.5,403.6 L577.3,399.1 L578.2,401.5 L579.0,402.6 L579.9,401.0 L580.7,379.0 L581.5,379.5 L582.4,384.3 L583.2,378.7 L584.1,382.2 L584.9,387.6 L585.8,394.5 L586.6,399.9 L587.4,407.9 L588.3,409.3 L589.1,395.1 L590.0,388.1 L590.8,383.3 L591.6,391.0 L592.5,396.1 L593.3,397.5 L594.2,389.4 L595.0,394.0 L595.8,398.3 L596.7,383.5 L597.5,379.0 L598.4,340.4 L599.2,335.8 L600.1,339.0 L600.9,347.9 L601.7,354.6 L602.6,353.2 L603.4,357.8 L604.3,372.0 L605.1,378.4 L605.9,375.8 L606.8,376.3 L607.6,391.8 L608.5,396.7 L609.3,395.3 L610.2,388.4 L611.0,387.0 L611.8,380.6 L612.7,387.6 L613.5,383.5 L614.4,381.7 L615.2,375.8 L616.0,386.7 L616.9,389.2 L617.7,390.5 L618.6,401.5 L619.4,408.2 L620.3,410.9 L621.1,404.4 L621.9,405.3 L622.8,408.5 L623.6,411.7 L624.5,412.2 L625.3,417.9 L626.1,420.0 L627.0,420.0 L627.8,420.0 L628.7,420.0 L629.5,418.4 L630.4,419.2 L631.2,418.7 L632.0,418.9 L632.9,419.5 L633.7,420.0 L634.6,420.0 L635.4,417.3 L636.2,415.7 L637.1,412.0 L637.9,407.9 L638.8,403.1 L639.6,391.0 L640.4,398.0 L641.3,395.9 L642.1,387.6 L643.0,372.5 L643.8,381.1 L644.7,392.4 L645.5,390.5 L646.3,405.5 L647.2,414.4 L648.0,419.2 L648.9,417.9 L649.7,417.1 L650.5,415.4 L651.4,414.9 L652.2,419.7 L653.1,413.8 L653.9,415.4 L654.8,415.2 L655.6,414.9 L656.4,406.1 L657.3,410.1 L658.1,395.3 L659.0,351.6 L659.8,339.0 L660.6,355.4 L661.5,364.2 L662.3,331.2 L663.2,318.1 L664.0,325.3 L664.9,336.9 L665.7,343.0 L666.5,344.1 L667.4,348.9 L668.2,333.1 L669.1,336.1 L669.9,339.8 L670.7,338.5 L671.6,342.2 L672.4,344.6 L673.3,342.8 L674.1,363.1 L675.0,371.5 L675.8,382.5 L676.6,400.4 L677.5,405.3 L678.3,400.2 L679.2,402.8 L680.0,404.7" stroke="#1f77b4" stroke-width="2" fill="none" opacity="0.8"/>
<!-- Hydro Generation -->
<path d="M80.0,350.5 L80.8,350.8 L81.7,351.6 L82.5,352.2 L83.4,351.6 L84.2,351.9 L85.0,351.6 L85.9,351.6 L86.7,351.3 L87.6,351.1 L88.4,350.5 L89.3,349.2 L90.1,350.5 L90.9,350.3 L91.8,349.7 L92.6,349.2 L93.5,348.9 L94.3,350.0 L95.1,350.8 L96.0,350.0 L96.8,350.0 L97.7,350.8 L98.5,351.1 L99.4,350.8 L100.2,351.1 L101.0,351.1 L101.9,351.9 L102.7,351.1 L103.6,351.3 L104.4,350.5 L105.2,350.0 L106.1,350.0 L106.9,350.0 L107.8,350.5 L108.6,351.1 L109.5,350.5 L110.3,351.1 L111.1,354.3 L112.0,354.3 L112.8,355.4 L113.7,357.0 L114.5,355.4 L115.3,355.1 L116.2,355.6 L117.0,355.9 L117.9,354.6 L118.7,354.6 L119.6,355.1 L120.4,354.8 L121.2,354.3 L122.1,354.6 L122.9,354.6 L123.8,354.6 L124.6,354.8 L125.4,354.8 L126.3,354.8 L127.1,355.1 L128.0,354.8 L128.8,354.8 L129.6,355.9 L130.5,355.1 L131.3,355.6 L132.2,354.3 L133.0,354.8 L133.9,355.1 L134.7,354.8 L135.5,355.1 L136.4,355.1 L137.2,354.8 L138.1,354.8 L138.9,355.4 L139.7,355.1 L140.6,354.8 L141.4,355.1 L142.3,354.8 L143.1,354.3 L144.8,354.8 L145.6,355.1 L146.5,355.1 L147.3,354.8 L148.2,354.8 L149.0,354.8 L149.8,355.4 L150.7,354.6 L151.5,354.8 L152.4,354.8 L153.2,355.1 L154.1,354.6 L154.9,355.4 L155.7,355.1 L156.6,354.3 L157.4,355.1 L158.3,355.6 L159.1,357.5 L159.9,358.1 L160.8,355.9 L161.6,356.4 L162.5,356.4 L163.3,355.4 L164.2,354.3 L165.0,353.8 L165.8,353.0 L166.7,352.7 L167.5,352.4 L168.4,353.0 L169.2,353.2 L170.0,352.7 L170.9,352.7 L171.7,353.2 L172.6,353.8 L173.4,353.8 L174.2,353.8 L175.1,353.8 L175.9,354.6 L176.8,353.8 L177.6,353.2 L178.5,353.8 L179.3,354.6 L180.1,354.3 L181.0,354.3 L181.8,354.3 L182.7,354.3 L183.5,354.3 L184.3,353.5 L185.2,353.2 L186.0,353.8 L186.9,353.5 L187.7,353.5 L188.6,355.1 L189.4,355.9 L190.2,355.9 L191.1,355.9 L191.9,355.6 L192.8,355.9 L193.6,358.3 L194.4,357.8 L195.3,358.9 L196.1,354.8 L197.0,353.8 L197.8,354.0 L198.7,353.5 L199.5,353.8 L200.3,353.5 L201.2,354.0 L202.0,354.0 L202.9,354.6 L203.7,354.0 L204.5,354.0 L205.4,353.8 L206.2,353.2 L207.1,353.5 L207.9,354.0 L208.8,354.8 L209.6,355.9 L210.4,355.6 L211.3,358.1 L212.1,355.6 L213.0,355.4 L213.8,354.8 L214.6,355.4 L215.5,355.1 L216.3,353.5 L217.2,352.7 L218.0,353.0 L218.8,353.8 L219.7,353.2 L220.5,353.8 L221.4,354.3 L222.2,354.3 L223.1,354.6 L223.9,354.6 L224.7,354.3 L225.6,360.7 L226.4,359.9 L227.3,359.7 L228.1,360.2 L228.9,360.2 L229.8,359.1 L230.6,360.5 L231.5,359.9 L232.3,360.5 L233.2,360.2 L234.0,360.5 L234.8,360.7 L235.7,361.8 L236.5,361.5 L237.4,361.3 L238.2,362.6 L239.0,362.3 L239.9,362.6 L240.7,362.9 L241.6,362.6 L242.4,362.9 L243.3,361.3 L244.1,361.5 L244.9,361.0 L245.8,360.2 L246.6,360.5 L247.5,360.5 L248.3,360.7 L249.1,361.0 L250.0,362.6 L250.8,353.8 L251.7,353.8 L252.5,354.3 L253.4,354.3 L254.2,354.0 L255.0,354.3 L255.9,354.3 L256.7,353.5 L257.6,353.8 L258.4,355.1 L259.2,352.4 L260.1,351.6 L260.9,351.9 L261.8,351.3 L262.6,351.9 L263.5,351.6 L264.3,351.6 L265.1,351.9 L266.0,351.6 L266.8,351.9 L267.7,351.9 L268.5,351.9 L269.3,355.1 L270.2,354.6 L271.0,360.5 L271.9,361.0 L272.7,360.7 L273.5,360.2 L274.4,360.5 L275.2,358.1 L276.1,357.2 L276.9,356.7 L277.8,357.5 L278.6,357.8 L279.4,358.1 L280.3,357.8 L281.1,357.0 L282.0,357.2 L282.8,357.0 L283.6,357.5 L284.5,357.5 L285.3,357.8 L286.2,357.5 L287.0,358.9 L287.9,359.7 L288.7,359.4 L289.5,354.3 L290.4,354.8 L291.2,354.8 L292.1,354.0 L292.9,354.0 L293.7,354.3 L294.6,352.7 L295.4,352.4 L296.3,352.4 L297.1,352.4 L298.0,351.9 L298.8,351.1 L299.6,351.1 L300.5,351.1 L301.3,351.1 L302.2,350.8 L303.0,351.1 L303.8,350.5 L304.7,350.3 L305.5,350.5 L306.4,350.5 L307.2,350.5 L308.1,350.3 L308.9,350.3 L309.7,349.7 L310.6,349.7 L311.4,349.5 L312.3,349.2 L313.1,349.2 L313.9,349.2 L314.8,348.7 L315.6,348.9 L316.5,348.1 L317.3,347.9 L318.1,346.5 L319.0,346.3 L319.8,346.5 L320.7,346.3 L321.5,346.3 L322.4,345.4 L323.2,345.4 L324.0,344.6 L324.9,344.4 L325.7,345.2 L326.6,344.9 L327.4,344.4 L328.2,344.1 L329.1,344.4 L329.9,345.2 L330.8,345.4 L331.6,345.4 L332.5,345.2 L333.3,345.7 L334.1,346.8 L335.0,347.1 L335.8,347.3 L336.7,360.2 L337.5,346.8 L338.3,346.8 L339.2,347.1 L340.0,346.5 L340.9,346.5 L341.7,346.8 L342.6,346.8 L343.4,346.3 L344.2,347.6 L345.1,347.6 L345.9,347.3 L346.8,347.1 L347.6,347.1 L348.4,347.1 L349.3,347.6 L350.1,346.8 L351.0,346.3 L351.8,347.1 L352.7,347.9 L353.5,347.1 L354.3,347.3 L355.2,347.9 L356.0,347.1 L356.9,346.0 L357.7,344.9 L358.5,345.2 L359.4,345.7 L360.2,345.7 L361.1,345.7 L361.9,345.2 L362.7,345.4 L363.6,345.4 L364.4,346.5 L365.3,346.5 L366.1,346.0 L367.0,346.5 L367.8,346.5 L368.6,346.3 L369.5,346.8 L370.3,346.8 L371.2,346.5 L372.0,347.6 L372.8,347.9 L373.7,347.3 L374.5,347.3 L375.4,347.9 L376.2,347.1 L377.1,347.3 L377.9,346.0 L378.7,346.0 L379.6,346.0 L380.4,346.3 L381.3,346.3 L382.1,346.5 L382.9,346.0 L383.8,346.3 L384.6,346.3 L385.5,345.2 L386.3,345.4 L387.2,345.4 L388.0,346.0 L388.8,346.0 L389.7,345.7 L390.5,346.3 L391.4,346.5 L392.2,346.3 L393.0,346.0 L393.9,345.7 L394.7,346.0 L395.6,346.0 L396.4,345.7 L397.3,344.1 L398.1,342.8 L398.9,342.8 L399.8,343.0 L400.6,343.0 L401.5,343.3 L402.3,344.1 L403.1,343.8 L404.0,344.1 L404.8,344.1 L405.7,344.1 L406.5,345.4 L407.3,344.4 L408.2,345.7 L409.0,345.7 L409.9,345.7 L410.7,345.7 L411.6,345.7 L412.4,346.5 L413.2,346.3 L414.1,346.3 L414.9,346.5 L415.8,345.7 L416.6,345.2 L417.4,345.4 L418.3,344.1 L419.1,344.1 L420.0,344.1 L420.8,344.4 L421.7,344.1 L422.5,344.4 L423.3,344.1 L424.2,344.4 L425.0,344.4 L425.9,344.9 L426.7,345.2 L427.5,345.4 L428.4,345.4 L429.2,346.0 L430.1,345.7 L430.9,345.7 L431.8,345.7 L432.6,346.3 L433.4,346.5 L434.3,346.3 L435.1,346.0 L436.0,346.0 L436.8,346.0 L437.6,345.7 L438.5,345.7 L439.3,346.0 L440.2,346.3 L441.0,346.3 L441.9,346.3 L442.7,345.7 L443.5,344.9 L444.4,344.9 L445.2,344.1 L446.1,343.8 L446.9,344.1 L447.7,344.1 L448.6,344.1 L449.4,343.6 L450.3,343.6 L451.1,343.6 L451.9,344.6 L452.8,344.6 L453.6,343.8 L454.5,342.5 L455.3,342.5 L456.2,342.2 L457.0,342.2 L457.8,340.9 L458.7,341.2 L459.5,341.2 L460.4,341.2 L461.2,341.4 L462.0,342.2 L462.9,342.5 L463.7,342.0 L464.6,342.5 L465.4,342.2 L466.3,342.2 L467.1,341.7 L467.9,342.0 L468.8,341.7 L469.6,341.7 L470.5,340.9 L471.3,341.7 L472.1,341.4 L473.0,341.4 L473.8,341.2 L474.7,341.2 L475.5,341.7 L476.4,342.0 L477.2,342.0 L478.0,341.4 L478.9,340.6 L479.7,340.9 L480.6,340.9 L481.4,341.7 L482.2,342.0 L483.1,342.5 L483.9,342.5 L484.8,342.5 L485.6,342.2 L486.5,342.5 L487.3,342.8 L488.1,342.5 L489.0,342.5 L489.8,342.2 L490.7,342.2 L491.5,342.5 L492.3,343.0 L493.2,342.8 L494.0,343.6 L494.9,343.6 L495.7,342.8 L496.5,342.8 L497.4,343.0 L498.2,343.3 L499.1,342.8 L499.9,343.3 L500.8,343.6 L501.6,344.6 L502.4,344.6 L503.3,344.6 L504.1,345.2 L505.0,345.4 L505.8,345.4 L506.6,345.4 L507.5,345.7 L508.3,345.2 L509.2,346.0 L510.0,345.7 L510.9,345.2 L511.7,345.2 L512.5,345.2 L513.4,344.4 L514.2,344.6 L515.1,344.9 L515.9,344.6 L516.7,344.1 L517.6,342.5 L518.4,342.5 L519.3,343.0 L520.1,343.6 L521.0,343.3 L521.8,343.0 L522.6,343.0 L523.5,342.8 L524.3,342.5 L525.2,342.8 L526.0,342.8 L526.8,342.8 L527.7,342.0 L528.5,342.0 L529.4,342.0 L530.2,342.0 L531.1,341.7 L531.9,341.7 L532.7,341.7 L533.6,342.0 L534.4,341.7 L535.3,341.4 L536.1,342.0 L536.9,342.0 L537.8,341.2 L538.6,340.4 L539.5,340.6 L540.3,340.4 L541.2,339.5 L542.0,339.5 L542.8,339.5 L543.7,339.8 L544.5,339.5 L545.4,339.3 L546.2,339.5 L547.0,339.5 L547.9,340.4 L548.7,340.4 L549.6,341.4 L550.4,341.4 L551.2,342.2 L552.1,342.2 L552.9,342.0 L553.8,342.2 L554.6,342.0 L555.5,342.0 L556.3,340.9 L557.1,340.9 L558.0,350.3 L558.8,350.0 L559.7,350.5 L560.5,340.9 L561.3,340.9 L562.2,342.2 L563.0,340.4 L563.9,340.1 L564.7,339.3 L565.6,338.7 L566.4,338.5 L567.2,339.3 L568.1,339.5 L568.9,339.0 L569.8,339.3 L570.6,339.3 L571.4,339.0 L572.3,339.0 L573.1,339.0 L574.0,339.0 L574.8,339.3 L575.7,339.0 L576.5,339.3 L577.3,338.2 L578.2,338.5 L579.0,337.4 L579.9,337.7 L580.7,336.6 L581.5,337.1 L582.4,336.9 L583.2,336.9 L584.1,336.6 L584.9,336.3 L585.8,336.9 L586.6,337.1 L587.4,337.1 L588.3,337.1 L589.1,337.4 L590.0,337.9 L590.8,337.7 L591.6,337.9 L592.5,337.9 L593.3,337.9 L594.2,338.5 L595.0,338.5 L595.8,339.0 L596.7,339.0 L597.5,339.8 L598.4,339.5 L599.2,339.5 L600.1,339.8 L600.9,339.5 L601.7,340.1 L602.6,340.1 L603.4,340.4 L604.3,340.4 L605.1,340.1 L605.9,340.4 L606.8,339.8 L607.6,339.5 L608.5,339.8 L609.3,338.7 L610.2,339.0 L611.0,339.0 L611.8,339.0 L612.7,339.0 L613.5,330.2 L614.4,337.9 L615.2,337.7 L616.0,340.6 L616.9,337.7 L617.7,337.4 L618.6,337.4 L619.4,337.9 L620.3,337.9 L621.1,339.0 L621.9,338.7 L622.8,338.2 L623.6,338.5 L624.5,338.7 L625.3,338.5 L626.1,338.5 L627.0,338.7 L627.8,338.7 L628.7,338.7 L629.5,338.7 L630.4,338.5 L631.2,338.7 L632.0,338.7 L632.9,338.7 L633.7,338.7 L634.6,338.5 L635.4,338.5 L636.2,337.9 L637.1,337.7 L637.9,336.9 L638.8,337.1 L639.6,336.9 L640.4,336.9 L641.3,337.1 L642.1,336.9 L643.0,337.1 L643.8,337.1 L644.7,336.9 L645.5,337.4 L646.3,337.1 L647.2,337.1 L648.0,337.1 L648.9,336.9 L649.7,337.1 L650.5,337.1 L651.4,337.1 L652.2,336.6 L653.1,336.6 L653.9,336.3 L654.8,336.1 L655.6,337.4 L656.4,337.4 L657.3,336.6 L658.1,336.3 L659.0,335.8 L659.8,336.3 L660.6,334.5 L661.5,332.0 L662.3,332.0 L663.2,332.3 L664.0,332.0 L664.9,331.5 L665.7,332.0 L666.5,332.0 L667.4,331.8 L668.2,332.0 L669.1,333.1 L669.9,332.8 L670.7,333.6 L671.6,334.5 L672.4,334.7 L673.3,334.7 L674.1,334.2 L675.0,334.2 L675.8,334.2 L676.6,334.2 L677.5,334.2 L678.3,334.2 L679.2,334.2 L680.0,334.2" stroke="#ff7f0e" stroke-width="2" fill="none" opacity="0.8"/>
<!-- Thermal Generation -->
<path d="M80.0,315.9 L80.8,321.0 L81.7,329.4 L82.5,340.6 L83.4,348.4 L84.2,348.1 L85.0,347.9 L85.9,304.1 L86.7,283.5 L87.6,283.8 L88.4,297.4 L89.3,285.9 L90.1,328.0 L90.9,327.5 L91.8,327.2 L92.6,337.9 L93.5,337.9 L94.3,338.7 L95.1,338.2 L96.0,338.5 L96.8,338.2 L97.7,338.2 L98.5,310.9 L99.4,289.1 L100.2,305.8 L101.0,327.5 L101.9,326.7 L102.7,326.9 L103.6,326.7 L104.4,326.9 L105.2,326.7 L106.1,327.5 L106.9,291.8 L107.8,338.2 L108.6,337.7 L109.5,338.5 L110.3,362.9 L111.1,362.3 L112.0,362.3 L112.8,362.1 L113.7,362.1 L114.5,362.3 L115.3,362.3 L116.2,362.1 L117.0,329.9 L117.9,330.7 L118.7,318.9 L119.6,302.5 L120.4,308.2 L121.2,353.8 L122.1,354.0 L122.9,358.9 L123.8,359.1 L124.6,359.4 L125.4,359.1 L126.3,359.1 L127.1,362.3 L128.0,362.9 L128.8,362.3 L129.6,362.3 L130.5,362.3 L131.3,362.1 L132.2,362.3 L133.0,362.3 L133.9,362.3 L134.7,362.3 L135.5,361.8 L136.4,361.5 L137.2,361.8 L138.1,362.1 L138.9,361.8 L139.7,362.1 L140.6,362.1 L141.4,362.1 L142.3,361.5 L143.1,347.1 L144.8,361.8 L145.6,361.8 L146.5,362.1 L147.3,362.1 L148.2,362.3 L149.0,362.1 L149.8,362.1 L150.7,362.1 L151.5,362.1 L152.4,363.1 L153.2,363.1 L154.1,363.4 L154.9,363.4 L155.7,363.1 L156.6,362.6 L157.4,362.3 L158.3,359.7 L159.1,353.5 L159.9,356.2 L160.8,362.1 L161.6,362.3 L162.5,362.1 L163.3,362.1 L164.2,356.7 L165.0,351.9 L165.8,341.2 L166.7,292.1 L167.5,257.0 L168.4,236.8 L169.2,245.7 L170.0,264.7 L170.9,265.5 L171.7,265.5 L172.6,282.2 L173.4,291.5 L174.2,291.3 L175.1,312.7 L175.9,312.7 L176.8,312.5 L177.6,303.6 L178.5,277.9 L179.3,246.2 L180.1,267.4 L181.0,276.5 L181.8,280.5 L182.7,281.6 L183.5,311.1 L184.3,311.4 L185.2,311.1 L186.0,311.1 L186.9,294.8 L187.7,275.2 L188.6,256.1 L189.4,267.1 L190.2,282.4 L191.1,307.4 L191.9,353.8 L192.8,362.1 L193.6,361.8 L194.4,361.5 L195.3,361.5 L196.1,361.5 L197.0,361.0 L197.8,306.0 L198.7,298.0 L199.5,298.0 L200.3,298.0 L201.2,298.2 L202.0,298.0 L202.9,297.4 L203.7,308.2 L204.5,308.4 L205.4,324.5 L206.2,325.1 L207.1,324.3 L207.9,307.4 L208.8,253.2 L209.6,255.1 L210.4,310.3 L211.3,359.7 L212.1,360.5 L213.0,366.1 L213.8,370.1 L214.6,370.1 L215.5,378.7 L216.3,378.7 L217.2,378.7 L218.0,362.1 L218.8,319.7 L219.7,289.1 L220.5,288.3 L221.4,351.6 L222.2,362.3 L223.1,362.1 L223.9,362.3 L224.7,362.1 L225.6,362.3 L226.4,362.3 L227.3,362.3 L228.1,340.4 L228.9,270.1 L229.8,273.3 L230.6,346.8 L231.5,362.3 L232.3,361.8 L233.2,376.3 L234.0,378.4 L234.8,373.3 L235.7,362.9 L236.5,361.8 L237.4,361.8 L238.2,327.2 L239.0,265.3 L239.9,290.7 L240.7,306.3 L241.6,265.3 L242.4,283.8 L243.3,300.1 L244.1,310.6 L244.9,310.9 L245.8,310.3 L246.6,311.1 L247.5,282.7 L248.3,238.2 L249.1,238.7 L250.0,263.7 L250.8,272.2 L251.7,283.8 L252.5,282.2 L253.4,282.2 L254.2,317.8 L255.0,318.4 L255.9,292.1 L256.7,292.3 L257.6,254.5 L258.4,238.4 L259.2,238.2 L260.1,241.1 L260.9,250.2 L261.8,268.2 L262.6,260.7 L263.5,284.0 L264.3,283.8 L265.1,283.5 L266.0,284.0 L266.8,283.2 L267.7,283.0 L268.5,283.5 L269.3,283.8 L270.2,283.8 L271.0,310.9 L271.9,311.1 L272.7,311.1 L273.5,326.4 L274.4,353.8 L275.2,362.1 L276.1,362.3 L276.9,361.8 L277.8,361.8 L278.6,361.8 L279.4,361.5 L280.3,362.1 L281.1,376.6 L282.0,358.3 L282.8,339.5 L283.6,345.7 L284.5,334.2 L285.3,334.5 L286.2,334.5 L287.0,333.9 L287.9,299.3 L288.7,292.1 L289.5,284.0 L290.4,300.9 L291.2,310.9 L292.1,311.1 L292.9,321.6 L293.7,335.0 L294.6,335.3 L295.4,354.3 L296.3,354.6 L297.1,354.3 L298.0,354.3 L298.8,280.5 L299.6,257.5 L300.5,249.2 L301.3,249.4 L302.2,251.3 L303.0,237.6 L303.8,237.6 L304.7,237.9 L305.5,246.2 L306.4,270.9 L307.2,278.1 L308.1,276.5 L308.9,284.0 L309.7,259.9 L310.6,263.7 L311.4,268.5 L312.3,301.2 L313.1,308.4 L313.9,335.3 L314.8,357.0 L315.6,357.2 L316.5,357.0 L317.3,357.2 L318.1,344.6 L319.0,298.0 L319.8,252.4 L320.7,278.1 L321.5,297.7 L322.4,318.9 L323.2,362.3 L324.0,362.1 L324.9,353.8 L325.7,354.3 L326.6,354.0 L327.4,354.0 L328.2,354.3 L329.1,354.3 L329.9,321.8 L330.8,314.9 L331.6,331.2 L332.5,344.4 L333.3,360.5 L334.1,360.2 L335.0,352.7 L335.8,360.2 L336.7,360.7 L337.5,352.7 L338.3,342.2 L339.2,333.1 L340.0,280.8 L340.9,280.3 L341.7,279.2 L342.6,304.1 L343.4,321.8 L344.2,359.7 L345.1,359.7 L345.9,362.3 L346.8,362.1 L347.6,361.8 L348.4,361.8 L349.3,289.7 L350.1,278.4 L351.0,317.8 L351.8,327.7 L352.7,340.6 L353.5,351.6 L354.3,349.5 L355.2,360.5 L356.0,360.2 L356.9,360.5 L357.7,360.5 L358.5,360.2 L359.4,284.3 L360.2,294.8 L361.1,318.6 L361.9,327.2 L362.7,359.9 L363.6,359.7 L364.4,359.7 L365.3,359.4 L366.1,359.1 L367.0,359.4 L367.8,359.7 L368.6,359.9 L369.5,359.7 L370.3,358.6 L371.2,359.9 L372.0,359.9 L372.8,360.2 L373.7,359.7 L374.5,364.0 L375.4,364.0 L376.2,363.7 L377.1,363.1 L377.9,364.0 L378.7,363.4 L379.6,362.9 L380.4,325.3 L381.3,363.4 L382.1,362.3 L382.9,361.8 L383.8,362.3 L384.6,362.1 L385.5,361.8 L386.3,372.8 L387.2,372.8 L388.0,373.1 L388.8,362.3 L389.7,362.3 L390.5,351.1 L391.4,351.3 L392.2,361.8 L393.0,361.8 L393.9,362.6 L394.7,363.7 L395.6,364.0 L396.4,364.8 L397.3,365.3 L398.1,365.3 L398.9,365.6 L399.8,355.1 L400.6,314.3 L401.5,355.4 L402.3,362.9 L403.1,359.7 L404.0,361.8 L404.8,361.5 L405.7,361.5 L406.5,361.8 L407.3,362.1 L408.2,361.5 L409.0,362.1 L409.9,340.4 L410.7,335.0 L411.6,322.1 L412.4,350.8 L413.2,361.5 L414.1,362.1 L414.9,361.8 L415.8,361.8 L416.6,362.1 L417.4,362.1 L418.3,361.8 L419.1,361.8 L420.0,361.8 L420.8,361.5 L421.7,361.8 L422.5,362.1 L423.3,361.8 L424.2,362.1 L425.0,361.5 L425.9,361.3 L426.7,361.8 L427.5,362.1 L428.4,362.3 L429.2,362.1 L430.1,345.4 L430.9,346.0 L431.8,355.9 L432.6,362.3 L433.4,361.5 L434.3,362.1 L435.1,361.8 L436.0,362.3 L436.8,377.6 L437.6,378.2 L438.5,377.6 L439.3,361.5 L440.2,320.0 L441.0,265.8 L441.9,265.3 L442.7,265.5 L443.5,292.6 L444.4,320.0 L445.2,318.1 L446.1,344.4 L446.9,358.9 L447.7,319.2 L448.6,316.8 L449.4,298.5 L450.3,242.2 L451.1,242.5 L451.9,275.5 L452.8,286.2 L453.6,306.0 L454.5,326.4 L455.3,327.5 L456.2,340.4 L457.0,340.4 L457.8,339.0 L458.7,362.3 L459.5,362.3 L460.4,298.0 L461.2,257.0 L462.0,254.8 L462.9,283.8 L463.7,315.4 L464.6,270.1 L465.4,315.7 L466.3,351.3 L467.1,351.1 L467.9,350.0 L468.8,350.8 L469.6,340.4 L470.5,308.4 L471.3,293.2 L472.1,293.4 L473.0,319.2 L473.8,340.6 L474.7,362.6 L475.5,362.6 L476.4,362.6 L477.2,362.9 L478.0,350.5 L478.9,372.0 L479.7,362.1 L480.6,330.2 L481.4,316.5 L482.2,330.4 L483.1,351.3 L483.9,354.0 L484.8,355.6 L485.6,361.5 L486.5,361.8 L487.3,362.1 L488.1,362.1 L489.0,361.8 L489.8,346.0 L490.7,314.6 L491.5,328.3 L492.3,330.7 L493.2,362.9 L494.0,363.1 L494.9,362.9 L495.7,362.1 L496.5,362.9 L497.4,361.8 L498.2,362.3 L499.1,348.7 L499.9,368.5 L500.8,365.8 L501.6,337.7 L502.4,326.9 L503.3,341.2 L504.1,362.3 L505.0,362.3 L505.8,362.6 L506.6,361.0 L507.5,362.3 L508.3,362.1 L509.2,351.6 L510.0,319.4 L510.9,258.3 L511.7,263.9 L512.5,268.2 L513.4,280.5 L514.2,314.6 L515.1,324.5 L515.9,346.0 L516.7,362.9 L517.6,362.9 L518.4,362.6 L519.3,362.6 L520.1,362.3 L521.0,362.1 L521.8,316.8 L522.6,339.8 L523.5,296.4 L524.3,284.6 L525.2,273.6 L526.0,280.3 L526.8,329.9 L527.7,273.6 L528.5,273.6 L529.4,270.4 L530.2,267.7 L531.1,245.2 L531.9,242.7 L532.7,276.0 L533.6,294.5 L534.4,318.9 L535.3,330.2 L536.1,362.3 L536.9,361.8 L537.8,361.8 L538.6,362.3 L539.5,362.1 L540.3,362.1 L541.2,319.7 L542.0,310.0 L542.8,315.4 L543.7,322.9 L544.5,316.5 L545.4,332.6 L546.2,361.5 L547.0,362.1 L547.9,362.1 L548.7,362.1 L549.6,362.3 L550.4,362.3 L551.2,361.8 L552.1,361.5 L552.9,377.4 L553.8,379.0 L554.6,378.4 L555.5,378.2 L556.3,378.4 L557.1,375.8 L558.0,362.6 L558.8,362.3 L559.7,362.6 L560.5,362.3 L561.3,362.3 L562.2,362.1 L563.0,330.2 L563.9,322.4 L564.7,351.6 L565.6,362.3 L566.4,362.1 L567.2,362.1 L568.1,362.3 L568.9,362.6 L569.8,362.3 L570.6,362.3 L571.4,362.3 L572.3,362.3 L573.1,362.9 L574.0,370.4 L574.8,370.7 L575.7,361.8 L576.5,362.1 L577.3,361.8 L578.2,361.5 L579.0,362.1 L579.9,361.8 L580.7,361.8 L581.5,362.3 L582.4,362.1 L583.2,362.3 L584.1,362.1 L584.9,362.1 L585.8,362.6 L586.6,362.9 L587.4,362.6 L588.3,362.3 L589.1,362.3 L590.0,345.7 L590.8,345.7 L591.6,308.7 L592.5,245.2 L593.3,288.1 L594.2,280.5 L595.0,296.6 L595.8,296.4 L596.7,287.5 L597.5,288.1 L598.4,325.6 L599.2,362.6 L600.1,362.1 L600.9,362.1 L601.7,341.2 L602.6,279.7 L603.4,257.0 L604.3,249.7 L605.1,270.1 L605.9,267.7 L606.8,243.3 L607.6,362.1 L608.5,361.8 L609.3,346.8 L610.2,296.6 L611.0,279.2 L611.8,243.0 L612.7,243.0 L613.5,242.7 L614.4,242.5 L615.2,241.7 L616.0,243.0 L616.9,242.5 L617.7,246.5 L618.6,243.0 L619.4,241.1 L620.3,240.9 L621.1,241.4 L621.9,241.9 L622.8,253.7 L623.6,242.2 L624.5,242.2 L625.3,242.7 L626.1,257.5 L627.0,272.2 L627.8,244.1 L628.7,242.5 L629.5,242.2 L630.4,242.5 L631.2,244.6 L632.0,242.2 L632.9,243.3 L633.7,264.7 L634.6,254.8 L635.4,297.7 L636.2,298.5 L637.1,295.8 L637.9,301.7 L638.8,284.0 L639.6,294.2 L640.4,307.4 L641.3,329.4 L642.1,265.0 L643.0,252.4 L643.8,243.0 L644.7,295.0 L645.5,305.2 L646.3,322.1 L647.2,354.0 L648.0,361.8 L648.9,360.5 L649.7,360.2 L650.5,359.1 L651.4,340.1 L652.2,305.8 L653.1,271.7 L653.9,298.0 L654.8,320.5 L655.6,319.4 L656.4,319.2 L657.3,318.6 L658.1,318.1 L659.0,351.1 L659.8,362.1 L660.6,362.1 L661.5,361.5 L662.3,361.3 L663.2,361.5 L664.0,361.8 L664.9,362.3 L665.7,362.1 L666.5,362.3 L667.4,362.1 L668.2,362.1 L669.1,361.8 L669.9,361.5 L670.7,361.3 L671.6,362.1 L672.4,356.7 L673.3,358.1 L674.1,358.9 L675.0,358.1 L675.8,356.2 L676.6,355.6 L677.5,362.3 L678.3,362.3 L679.2,362.1 L680.0,362.1" stroke="#2ca02c" stroke-width="2" fill="none" opacity="0.8"/>
<!-- Solar Generation -->
<path d="M80.0,420.0 L80.8,420.0 L81.7,420.0 L82.5,420.0 L83.4,420.0 L84.2,420.0 L85.0,420.0 L85.9,420.0 L86.7,420.0 L87.6,418.4 L88.4,415.4 L89.3,417.1 L90.1,415.7 L90.9,411.7 L91.8,409.5 L92.6,413.8 L93.5,407.9 L94.3,416.8 L95.1,416.8 L96.0,418.4 L96.8,420.0 L97.7,420.0 L98.5,420.0 L99.4,420.0 L100.2,420.0 L101.0,420.0 L101.9,420.0 L102.7,420.0 L103.6,420.0 L104.4,420.0 L105.2,420.0 L106.1,420.0 L106.9,420.0 L107.8,411.2 L108.6,401.2 L109.5,405.8 L110.3,403.1 L111.1,403.6 L112.0,406.3 L112.8,411.2 L113.7,407.9 L114.5,412.2 L115.3,411.4 L116.2,415.4 L117.0,420.0 L117.9,420.0 L118.7,420.0 L119.6,420.0 L120.4,420.0 L121.2,420.0 L122.1,420.0 L122.9,420.0 L123.8,420.0 L124.6,420.0 L125.4,420.0 L126.3,420.0 L127.1,420.0 L128.0,411.2 L128.8,414.6 L129.6,409.3 L130.5,413.6 L131.3,412.0 L132.2,408.5 L133.0,404.4 L133.9,406.9 L134.7,410.3 L135.5,412.0 L136.4,418.4 L137.2,420.0 L138.1,420.0 L138.9,420.0 L139.7,420.0 L140.6,420.0 L141.4,420.0 L142.3,420.0 L143.1,420.0 L144.8,420.0 L145.6,420.0 L146.5,420.0 L147.3,420.0 L148.2,420.0 L149.0,410.6 L149.8,412.8 L150.7,407.1 L151.5,404.4 L152.4,406.1 L153.2,410.6 L154.1,407.7 L154.9,407.7 L155.7,414.4 L156.6,412.2 L157.4,418.4 L158.3,419.7 L159.1,420.0 L159.9,420.0 L160.8,420.0 L161.6,420.0 L162.5,420.0 L163.3,420.0 L164.2,420.0 L165.0,420.0 L165.8,420.0 L166.7,420.0 L167.5,420.0 L168.4,419.7 L169.2,415.2 L170.0,416.8 L170.9,416.5 L171.7,404.7 L172.6,413.8 L173.4,411.2 L174.2,413.3 L175.1,413.3 L175.9,416.0 L176.8,415.2 L177.6,418.4 L178.5,420.0 L179.3,420.0 L180.1,420.0 L181.0,420.0 L181.8,420.0 L182.7,420.0 L183.5,420.0 L184.3,420.0 L185.2,420.0 L186.0,420.0 L186.9,420.0 L187.7,420.0 L188.6,420.0 L189.4,415.4 L190.2,397.5 L191.1,403.4 L191.9,406.9 L192.8,407.9 L193.6,408.7 L194.4,411.7 L195.3,411.2 L196.1,406.1 L197.0,405.8 L197.8,415.4 L198.7,420.0 L199.5,420.0 L200.3,420.0 L201.2,420.0 L202.0,420.0 L202.9,420.0 L203.7,420.0 L204.5,420.0 L205.4,420.0 L206.2,420.0 L207.1,420.0 L207.9,420.0 L208.8,419.7 L209.6,405.3 L210.4,405.3 L211.3,403.4 L212.1,399.9 L213.0,385.1 L213.8,387.6 L214.6,403.1 L215.5,407.7 L216.3,412.0 L217.2,412.2 L218.0,418.9 L218.8,420.0 L219.7,420.0 L220.5,420.0 L221.4,420.0 L222.2,420.0 L223.1,420.0 L223.9,420.0 L224.7,420.0 L225.6,420.0 L226.4,420.0 L227.3,420.0 L228.1,420.0 L228.9,420.0 L229.8,417.3 L230.6,416.8 L231.5,415.7 L232.3,412.8 L233.2,415.4 L234.0,413.0 L234.8,414.1 L235.7,413.8 L236.5,416.0 L237.4,407.9 L238.2,418.4 L239.0,420.0 L239.9,420.0 L240.7,420.0 L241.6,420.0 L242.4,420.0 L243.3,420.0 L244.1,420.0 L244.9,420.0 L245.8,420.0 L246.6,420.0 L247.5,420.0 L248.3,420.0 L249.1,420.0 L250.0,418.1 L250.8,417.3 L251.7,404.2 L252.5,402.6 L253.4,396.9 L254.2,391.3 L255.0,400.7 L255.9,405.3 L256.7,410.6 L257.6,414.6 L258.4,418.7 L259.2,420.0 L260.1,420.0 L260.9,420.0 L261.8,420.0 L262.6,420.0 L263.5,420.0 L264.3,420.0 L265.1,420.0 L266.0,420.0 L266.8,420.0 L267.7,420.0 L268.5,420.0 L269.3,420.0 L270.2,418.1 L271.0,417.6 L271.9,415.7 L272.7,414.6 L273.5,411.7 L274.4,407.9 L275.2,409.0 L276.1,412.2 L276.9,412.2 L277.8,416.0 L278.6,412.5 L279.4,420.0 L280.3,420.0 L281.1,420.0 L282.0,420.0 L282.8,420.0 L283.6,420.0 L284.5,420.0 L285.3,420.0 L286.2,420.0 L287.0,420.0 L287.9,420.0 L288.7,420.0 L289.5,419.7 L290.4,414.1 L291.2,407.4 L292.1,412.0 L292.9,410.9 L293.7,406.9 L294.6,403.1 L295.4,401.8 L296.3,401.8 L297.1,401.8 L298.0,398.3 L298.8,416.2 L299.6,420.0 L300.5,420.0 L301.3,420.0 L302.2,420.0 L303.0,420.0 L303.8,420.0 L304.7,420.0 L305.5,420.0 L306.4,420.0 L307.2,420.0 L308.1,420.0 L308.9,420.0 L309.7,419.5 L310.6,415.2 L311.4,407.9 L312.3,405.3 L313.1,390.8 L313.9,396.9 L314.8,395.9 L315.6,402.3 L316.5,410.9 L317.3,413.8 L318.1,412.2 L319.0,416.5 L319.8,420.0 L320.7,420.0 L321.5,420.0 L322.4,420.0 L323.2,420.0 L324.0,420.0 L324.9,420.0 L325.7,420.0 L326.6,420.0 L327.4,420.0 L328.2,420.0 L329.1,420.0 L329.9,419.7 L330.8,415.2 L331.6,412.0 L332.5,398.0 L333.3,407.1 L334.1,405.5 L335.0,411.2 L335.8,409.3 L336.7,408.7 L337.5,415.7 L338.3,416.5 L339.2,417.1 L340.0,420.0 L340.9,420.0 L341.7,420.0 L342.6,420.0 L343.4,420.0 L344.2,420.0 L345.1,420.0 L345.9,420.0 L346.8,420.0 L347.6,420.0 L348.4,420.0 L349.3,420.0 L350.1,419.7 L351.0,413.6 L351.8,413.6 L352.7,392.6 L353.5,393.5 L354.3,389.2 L355.2,391.6 L356.0,392.9 L356.9,392.9 L357.7,396.4 L358.5,409.5 L359.4,415.4 L360.2,420.0 L361.1,420.0 L361.9,420.0 L362.7,420.0 L363.6,420.0 L364.4,420.0 L365.3,420.0 L366.1,420.0 L367.0,420.0 L367.8,420.0 L368.6,420.0 L369.5,420.0 L370.3,418.4 L371.2,405.8 L372.0,413.8 L372.8,403.6 L373.7,384.1 L374.5,387.0 L375.4,391.3 L376.2,393.5 L377.1,394.3 L377.9,394.5 L378.7,415.2 L379.6,412.5 L380.4,420.0 L381.3,420.0 L382.1,420.0 L382.9,420.0 L383.8,420.0 L384.6,420.0 L385.5,420.0 L386.3,420.0 L387.2,420.0 L388.0,420.0 L388.8,420.0 L389.7,420.0 L390.5,418.4 L391.4,400.7 L392.2,403.6 L393.0,385.9 L393.9,385.4 L394.7,384.6 L395.6,386.5 L396.4,395.1 L397.3,389.4 L398.1,390.5 L398.9,396.1 L399.8,415.4 L400.6,420.0 L401.5,420.0 L402.3,420.0 L403.1,420.0 L404.0,420.0 L404.8,420.0 L405.7,420.0 L406.5,420.0 L407.3,420.0 L408.2,420.0 L409.0,420.0 L409.9,420.0 L410.7,418.1 L411.6,413.6 L412.4,402.6 L413.2,398.5 L414.1,409.8 L414.9,390.5 L415.8,399.6 L416.6,396.7 L417.4,407.7 L418.3,406.1 L419.1,396.1 L420.0,416.5 L420.8,420.0 L421.7,420.0 L422.5,420.0 L423.3,420.0 L424.2,420.0 L425.0,420.0 L425.9,420.0 L426.7,420.0 L427.5,420.0 L428.4,420.0 L429.2,420.0 L430.1,420.0 L430.9,418.7 L431.8,397.7 L432.6,381.7 L433.4,381.1 L434.3,381.7 L435.1,382.5 L436.0,382.5 L436.8,381.9 L437.6,381.4 L438.5,384.9 L439.3,399.6 L440.2,416.0 L441.0,420.0 L441.9,420.0 L442.7,420.0 L443.5,420.0 L444.4,420.0 L445.2,420.0 L446.1,420.0 L446.9,420.0 L447.7,420.0 L448.6,420.0 L449.4,420.0 L450.3,420.0 L451.1,418.7 L451.9,402.6 L452.8,384.3 L453.6,384.9 L454.5,385.9 L455.3,394.3 L456.2,387.0 L457.0,396.4 L457.8,396.4 L458.7,404.2 L459.5,400.4 L460.4,414.9 L461.2,420.0 L462.0,420.0 L462.9,420.0 L463.7,420.0 L464.6,420.0 L465.4,420.0 L466.3,420.0 L467.1,420.0 L467.9,420.0 L468.8,420.0 L469.6,420.0 L470.5,420.0 L471.3,419.7 L472.1,417.9 L473.0,412.5 L473.8,389.2 L474.7,384.6 L475.5,402.3 L476.4,392.9 L477.2,401.5 L478.0,403.4 L478.9,413.0 L479.7,413.6 L480.6,416.8 L481.4,420.0 L482.2,420.0 L483.1,420.0 L483.9,420.0 L484.8,420.0 L485.6,420.0 L486.5,420.0 L487.3,420.0 L488.1,420.0 L489.0,420.0 L489.8,420.0 L490.7,420.0 L491.5,419.5 L492.3,406.3 L493.2,414.1 L494.0,414.1 L494.9,411.7 L495.7,409.0 L496.5,411.4 L497.4,412.0 L498.2,403.4 L499.1,414.6 L499.9,417.1 L500.8,417.1 L501.6,420.0 L502.4,420.0 L503.3,420.0 L504.1,420.0 L505.0,420.0 L505.8,420.0 L506.6,420.0 L507.5,420.0 L508.3,420.0 L509.2,420.0 L510.0,420.0 L510.9,420.0 L511.7,418.9 L512.5,415.2 L513.4,408.7 L514.2,409.8 L515.1,405.0 L515.9,406.9 L516.7,405.8 L517.6,404.4 L518.4,408.2 L519.3,402.3 L520.1,400.7 L521.0,406.1 L521.8,419.7 L522.6,420.0 L523.5,420.0 L524.3,420.0 L525.2,420.0 L526.0,420.0 L526.8,420.0 L527.7,420.0 L528.5,420.0 L529.4,420.0 L530.2,420.0 L531.1,420.0 L531.9,415.2 L532.7,391.3 L533.6,381.7 L534.4,401.8 L535.3,381.1 L536.1,402.0 L536.9,381.9 L537.8,401.8 L538.6,401.8 L539.5,402.0 L540.3,404.7 L541.2,406.6 L542.0,420.0 L542.8,420.0 L543.7,420.0 L544.5,420.0 L545.4,420.0 L546.2,420.0 L547.0,420.0 L547.9,420.0 L548.7,420.0 L549.6,420.0 L550.4,420.0 L551.2,420.0 L552.1,418.1 L552.9,415.7 L553.8,414.4 L554.6,412.5 L555.5,406.1 L556.3,402.3 L557.1,407.1 L558.0,402.3 L558.8,409.0 L559.7,412.0 L560.5,415.7 L561.3,417.9 L562.2,420.0 L563.0,420.0 L563.9,420.0 L564.7,420.0 L565.6,420.0 L566.4,420.0 L567.2,420.0 L568.1,420.0 L568.9,420.0 L569.8,420.0 L570.6,420.0 L571.4,420.0 L572.3,414.9 L573.1,405.3 L574.0,402.6 L574.8,402.3 L575.7,403.4 L576.5,403.1 L577.3,403.4 L578.2,405.0 L579.0,402.3 L579.9,402.8 L580.7,416.8 L581.5,418.1 L582.4,420.0 L583.2,420.0 L584.1,420.0 L584.9,420.0 L585.8,420.0 L586.6,420.0 L587.4,420.0 L588.3,420.0 L589.1,420.0 L590.0,420.0 L590.8,420.0 L591.6,420.0 L592.5,418.1 L593.3,399.4 L594.2,409.5 L595.0,391.0 L595.8,387.3 L596.7,389.7 L597.5,382.5 L598.4,402.6 L599.2,401.5 L600.1,410.9 L600.9,414.9 L601.7,418.7 L602.6,420.0 L603.4,420.0 L604.3,420.0 L605.1,420.0 L605.9,420.0 L606.8,420.0 L607.6,420.0 L608.5,420.0 L609.3,420.0 L610.2,420.0 L611.0,420.0 L611.8,420.0 L612.7,419.5 L613.5,416.2 L614.4,413.6 L615.2,407.1 L616.0,399.6 L616.9,403.6 L617.7,391.6 L618.6,404.4 L619.4,403.4 L620.3,414.4 L621.1,416.5 L621.9,416.5 L622.8,420.0 L623.6,420.0 L624.5,420.0 L625.3,420.0 L626.1,420.0 L627.0,420.0 L627.8,420.0 L628.7,420.0 L629.5,420.0 L630.4,420.0 L631.2,420.0 L632.0,420.0 L632.9,419.5 L633.7,414.4 L634.6,404.2 L635.4,389.4 L636.2,395.3 L637.1,387.3 L637.9,389.2 L638.8,400.2 L639.6,398.8 L640.4,406.3 L641.3,407.7 L642.1,415.4 L643.0,420.0 L643.8,420.0 L644.7,420.0 L645.5,420.0 L646.3,420.0 L647.2,420.0 L648.0,420.0 L648.9,420.0 L649.7,420.0 L650.5,420.0 L651.4,420.0 L652.2,420.0 L653.1,418.7 L653.9,405.0 L654.8,415.2 L655.6,415.2 L656.4,413.0 L657.3,414.1 L658.1,403.9 L659.0,403.4 L659.8,416.2 L660.6,417.3 L661.5,418.1 L662.3,418.4 L663.2,420.0 L664.0,420.0 L664.9,420.0 L665.7,420.0 L666.5,420.0 L667.4,420.0 L668.2,420.0 L669.1,420.0 L669.9,420.0 L670.7,420.0 L671.6,420.0 L672.4,420.0 L673.3,419.5 L674.1,418.1 L675.0,417.9 L675.8,416.5 L676.6,413.0 L677.5,412.8 L678.3,412.0 L679.2,412.2 L680.0,411.2" stroke="#d62728" stroke-width="2" fill="none" opacity="0.8"/>
<!-- Forecast -->
<path d="M80.0,208.9 L80.8,226.1 L81.7,239.5 L82.5,247.6 L83.4,251.3 L84.2,252.9 L85.0,250.2 L85.9,237.4 L86.7,213.5 L87.6,185.3 L88.4,169.0 L89.3,166.6 L90.1,168.7 L90.9,171.9 L91.8,176.2 L92.6,179.4 L93.5,182.7 L94.3,183.7 L95.1,178.4 L96.0,165.5 L96.8,159.9 L97.7,161.5 L98.5,171.4 L99.4,187.5 L100.2,206.0 L101.0,223.4 L101.9,236.6 L102.7,244.3 L103.6,247.8 L104.4,249.4 L105.2,246.2 L106.1,233.4 L106.9,208.1 L107.8,180.5 L108.6,165.8 L109.5,165.0 L110.3,167.9 L111.1,171.4 L112.0,176.2 L112.8,179.7 L113.7,182.7 L114.5,184.0 L115.3,178.6 L116.2,165.5 L117.0,159.1 L117.9,160.9 L118.7,169.8 L119.6,184.5 L120.4,203.6 L121.2,237.6 L122.1,239.0 L122.9,241.9 L123.8,246.8 L124.6,250.2 L125.4,249.4 L126.3,246.5 L127.1,235.5 L128.0,221.8 L128.8,207.6 L129.6,202.5 L130.5,198.0 L131.3,199.8 L132.2,202.0 L133.0,208.4 L133.9,211.9 L134.7,213.5 L135.5,212.4 L136.4,203.6 L137.2,196.1 L138.1,192.9 L138.9,198.2 L139.7,208.7 L140.6,226.6 L141.4,239.3 L142.3,250.0 L143.1,252.7 L144.8,249.4 L145.6,244.9 L146.5,237.6 L147.3,231.7 L148.2,221.3 L149.0,210.8 L149.8,199.3 L150.7,167.4 L151.5,166.3 L152.4,184.8 L153.2,208.1 L154.1,209.8 L154.9,214.8 L155.7,185.9 L156.6,190.4 L157.4,167.9 L158.3,164.2 L159.1,199.8 L159.9,216.7 L160.8,230.7 L161.6,231.7 L162.5,243.0 L163.3,250.5 L164.2,255.1 L165.0,255.9 L165.8,253.7 L166.7,240.3 L167.5,215.7 L168.4,188.3 L169.2,171.7 L170.0,169.3 L170.9,171.1 L171.7,174.4 L172.6,178.4 L173.4,182.1 L174.2,185.1 L175.1,187.0 L175.9,182.4 L176.8,171.4 L177.6,165.2 L178.5,165.0 L179.3,175.2 L180.1,191.0 L181.0,208.4 L181.8,222.9 L182.7,236.8 L183.5,243.3 L184.3,246.8 L185.2,247.6 L186.0,244.3 L186.9,231.2 L187.7,204.9 L188.6,176.8 L189.4,162.6 L190.2,162.3 L191.1,166.0 L191.9,169.5 L192.8,175.2 L193.6,178.9 L194.4,181.3 L195.3,182.1 L196.1,176.8 L197.0,164.4 L197.8,158.8 L198.7,160.9 L199.5,168.7 L200.3,181.9 L201.2,201.7 L202.0,243.5 L202.9,251.3 L203.7,250.8 L204.5,254.0 L205.4,255.1 L206.2,254.0 L207.1,243.0 L207.9,218.9 L208.8,189.9 L209.6,176.2 L210.4,173.8 L211.3,177.8 L212.1,181.9 L213.0,187.0 L213.8,191.2 L214.6,195.3 L215.5,196.6 L216.3,196.1 L217.2,196.9 L218.0,200.4 L218.8,200.9 L219.7,199.6 L220.5,207.3 L221.4,227.7 L222.2,247.6 L223.1,262.6 L223.9,272.5 L224.7,278.1 L225.6,281.6 L226.4,281.1 L227.3,272.0 L228.1,248.6 L228.9,217.5 L229.8,195.8 L230.6,190.2 L231.5,188.6 L232.3,190.7 L233.2,193.4 L234.0,196.1 L234.8,198.8 L235.7,199.0 L236.5,198.0 L237.4,198.2 L238.2,201.2 L239.0,200.9 L239.9,200.1 L240.7,207.1 L241.6,226.1 L242.4,244.6 L243.3,259.9 L244.1,267.1 L244.9,270.6 L245.8,272.8 L246.6,271.2 L247.5,260.2 L248.3,234.7 L249.1,205.2 L250.0,186.4 L250.8,180.8 L251.7,181.6 L252.5,183.7 L253.4,187.8 L254.2,191.2 L255.0,194.2 L255.9,195.5 L256.7,195.3 L257.6,194.7 L258.4,195.5 L259.2,195.3 L260.1,193.9 L260.9,202.8 L261.8,222.6 L262.6,231.5 L263.5,251.9 L264.3,262.3 L265.1,266.6 L266.0,269.3 L266.8,271.2 L267.7,268.2 L268.5,257.0 L269.3,239.5 L270.2,217.5 L271.0,207.3 L271.9,203.0 L272.7,206.5 L273.5,208.7 L274.4,215.4 L275.2,217.3 L276.1,214.3 L276.9,210.6 L277.8,206.8 L278.6,202.5 L279.4,196.9 L280.3,199.3 L281.1,206.5 L282.0,216.5 L282.8,235.0 L283.6,240.9 L284.5,239.8 L285.3,241.4 L286.2,243.5 L287.0,241.9 L287.9,238.7 L288.7,232.8 L289.5,218.9 L290.4,210.0 L291.2,202.0 L292.1,193.4 L292.9,188.6 L293.7,191.2 L294.6,197.1 L295.4,198.8 L296.3,200.6 L297.1,199.6 L298.0,194.2 L298.8,191.8 L299.6,189.9 L300.5,190.4 L301.3,198.5 L302.2,213.5 L303.0,249.4 L303.8,252.4 L304.7,254.3 L305.5,259.9 L306.4,262.3 L307.2,261.8 L308.1,252.1 L308.9,228.3 L309.7,200.4 L310.6,184.0 L311.4,180.3 L312.3,182.4 L313.1,185.6 L313.9,189.9 L314.8,194.5 L315.6,198.5 L316.5,199.8 L317.3,200.4 L318.1,200.9 L319.0,204.7 L319.8,205.7 L320.7,206.3 L321.5,212.7 L322.4,232.3 L323.2,256.4 L324.0,269.0 L324.9,277.1 L325.7,282.4 L326.6,285.4 L327.4,284.3 L328.2,274.9 L329.1,251.9 L329.9,222.9 L330.8,202.0 L331.6,197.4 L332.5,195.8 L333.3,198.5 L334.1,200.6 L335.0,203.0 L335.8,204.9 L336.7,206.0 L337.5,206.3 L338.3,205.7 L339.2,210.0 L340.0,214.3 L340.9,215.7 L341.7,220.2 L342.6,236.3 L343.4,257.8 L344.2,272.5 L345.1,279.5 L345.9,285.1 L346.8,287.0 L347.6,285.6 L348.4,275.2 L349.3,252.4 L350.1,224.2 L351.0,203.9 L351.8,199.6 L352.7,198.0 L353.5,200.4 L354.3,202.0 L355.2,203.9 L356.0,205.5 L356.9,205.5 L357.7,206.3 L358.5,206.0 L359.4,210.0 L360.2,214.8 L361.1,216.5 L361.9,221.8 L362.7,237.6 L363.6,258.0 L364.4,272.2 L365.3,279.5 L366.1,285.1 L367.0,287.0 L367.8,285.6 L368.6,275.2 L369.5,252.7 L370.3,224.5 L371.2,204.1 L372.0,199.6 L372.8,198.0 L373.7,200.4 L374.5,202.0 L375.4,203.9 L376.2,205.5 L377.1,205.5 L377.9,206.3 L378.7,206.0 L379.6,209.8 L380.4,214.8 L381.3,216.5 L382.1,221.6 L382.9,237.4 L383.8,257.0 L384.6,272.2 L385.5,280.3 L386.3,285.9 L387.2,287.8 L388.0,286.2 L388.8,276.8 L389.7,255.6 L390.5,230.1 L391.4,211.6 L392.2,206.3 L393.0,201.7 L393.9,201.2 L394.7,200.6 L395.6,201.2 L396.4,201.7 L397.3,199.6 L398.1,199.6 L398.9,199.8 L399.8,206.8 L400.6,212.2 L401.5,215.7 L402.3,218.3 L403.1,234.4 L404.0,256.4 L404.8,269.3 L405.7,279.5 L406.5,285.9 L407.3,287.8 L408.2,286.2 L409.0,276.5 L409.9,255.6 L410.7,229.9 L411.6,211.4 L412.4,206.3 L413.2,201.7 L414.1,201.2 L414.9,200.6 L415.8,201.2 L416.6,201.7 L417.4,199.6 L418.3,199.6 L419.1,199.8 L420.0,207.1 L420.8,212.2 L421.7,215.7 L422.5,218.3 L423.3,234.4 L424.2,252.9 L425.0,268.2 L425.9,269.3 L426.7,271.4 L427.5,273.0 L428.4,272.5 L429.2,268.5 L430.1,261.5 L430.9,250.0 L431.8,233.9 L432.6,219.4 L433.4,215.4 L434.3,217.5 L435.1,220.5 L436.0,222.6 L436.8,227.2 L437.6,228.8 L438.5,227.2 L439.3,221.3 L440.2,221.0 L441.0,216.2 L441.9,211.9 L442.7,215.9 L443.5,233.6 L444.4,255.1 L445.2,264.2 L446.1,269.8 L446.9,272.8 L447.7,274.6 L448.6,272.8 L449.4,259.9 L450.3,236.6 L451.1,209.8 L451.9,192.6 L452.8,189.4 L453.6,190.7 L454.5,195.3 L455.3,199.0 L456.2,202.0 L457.0,204.7 L457.8,205.7 L458.7,206.5 L459.5,206.8 L460.4,210.3 L461.2,212.7 L462.0,212.2 L462.9,217.3 L463.7,234.2 L464.6,258.3 L465.4,269.8 L466.3,274.6 L467.1,277.6 L467.9,279.2 L468.8,277.1 L469.6,265.5 L470.5,239.8 L471.3,213.0 L472.1,195.3 L473.0,192.6 L473.8,193.1 L474.7,197.7 L475.5,200.6 L476.4,203.9 L477.2,206.3 L478.0,207.3 L478.9,207.6 L479.7,207.1 L480.6,211.4 L481.4,215.7 L482.2,217.0 L483.1,221.6 L483.9,237.9 L484.8,381.1 L485.6,273.8 L486.5,280.8 L487.3,286.7 L488.1,288.6 L489.0,287.3 L489.8,277.3 L490.7,254.5 L491.5,227.5 L492.3,208.1 L493.2,202.2 L494.0,199.6 L494.9,200.9 L495.7,202.0 L496.5,203.6 L497.4,205.5 L498.2,206.3 L499.1,206.5 L499.9,206.3 L500.8,210.3 L501.6,213.5 L502.4,213.0 L503.3,217.5 L504.1,233.9 L505.0,244.6 L505.8,263.7 L506.6,273.0 L507.5,276.3 L508.3,277.1 L509.2,274.1 L510.0,261.8 L510.9,236.6 L511.7,206.8 L512.5,189.6 L513.4,185.1 L514.2,186.4 L515.1,188.8 L515.9,192.6 L516.7,196.6 L517.6,199.8 L518.4,200.4 L519.3,200.4 L520.1,200.9 L521.0,203.6 L521.8,202.5 L522.6,198.8 L523.5,206.8 L524.3,223.7 L525.2,249.2 L526.0,257.0 L526.8,258.8 L527.7,262.6 L528.5,263.1 L529.4,261.0 L530.2,249.4 L531.1,225.8 L531.9,199.6 L532.7,185.6 L533.6,184.0 L534.4,187.5 L535.3,192.3 L536.1,197.7 L536.9,202.0 L537.8,205.2 L538.6,206.5 L539.5,207.6 L540.3,208.1 L541.2,211.4 L542.0,212.2 L542.8,210.6 L543.7,214.3 L544.5,232.0 L545.4,257.2 L546.2,262.3 L547.0,266.9 L547.9,270.1 L548.7,272.0 L549.6,272.0 L550.4,266.6 L551.2,259.4 L552.1,245.7 L552.9,226.4 L553.8,219.4 L554.6,220.5 L555.5,225.6 L556.3,228.0 L557.1,233.9 L558.0,239.5 L558.8,241.1 L559.7,237.9 L560.5,235.2 L561.3,234.7 L562.2,234.7 L563.0,233.4 L563.9,233.6 L564.7,244.1 L565.6,261.8 L566.4,271.4 L567.2,277.3 L568.1,281.6 L568.9,282.4 L569.8,281.4 L570.6,276.8 L571.4,268.5 L572.3,257.5 L573.1,240.9 L574.0,230.4 L574.8,228.8 L575.7,226.9 L576.5,228.3 L577.3,232.0 L578.2,235.0 L579.0,235.0 L579.9,234.4 L580.7,232.3 L581.5,228.3 L582.4,227.7 L583.2,228.3 L584.1,229.6 L584.9,241.4 L585.8,257.2 L586.6,270.4 L587.4,277.6 L588.3,281.6 L589.1,283.0 L590.0,281.1 L590.8,270.1 L591.6,245.4 L592.5,217.5 L593.3,200.1 L594.2,197.1 L595.0,197.4 L595.8,200.6 L596.7,202.8 L597.5,204.9 L598.4,206.8 L599.2,207.6 L600.1,207.9 L600.9,207.6 L601.7,211.6 L602.6,214.0 L603.4,214.0 L604.3,218.6 L605.1,235.2 L605.9,248.6 L606.8,267.4 L607.6,266.6 L608.5,267.4 L609.3,267.4 L610.2,264.5 L611.0,253.2 L611.8,228.3 L612.7,199.6 L613.5,184.5 L614.4,181.9 L615.2,184.5 L616.0,187.5 L616.9,192.1 L617.7,196.3 L618.6,200.4 L619.4,201.7 L620.3,201.4 L621.1,202.8 L621.9,205.7 L622.8,205.2 L623.6,202.2 L624.5,209.5 L625.3,226.9 L626.1,252.9 L627.0,261.2 L627.8,266.3 L628.7,270.4 L629.5,271.4 L630.4,269.0 L631.2,257.5 L632.0,233.4 L632.9,206.3 L633.7,190.4 L634.6,187.5 L635.4,189.6 L636.2,193.7 L637.1,198.0 L637.9,202.0 L638.8,204.9 L639.6,206.0 L640.4,206.8 L641.3,207.3 L642.1,211.4 L643.0,213.2 L643.8,212.4 L644.7,216.2 L645.5,233.9 L646.3,248.4 L647.2,266.1 L648.0,274.9 L648.9,278.1 L649.7,280.0 L650.5,277.9 L651.4,266.1 L652.2,241.1 L653.1,212.2 L653.9,193.7 L654.8,188.8 L655.6,189.1 L656.4,191.2 L657.3,194.2 L658.1,197.1 L659.0,199.6 L659.8,199.8 L660.6,198.2 L661.5,198.5 L662.3,202.2 L663.2,203.6 L664.0,201.4 L664.9,208.4 L665.7,226.1 L666.5,229.1 L667.4,254.8 L668.2,261.5 L669.1,265.5 L669.9,269.6 L670.7,270.4 L671.6,267.9 L672.4,257.5 L673.3,232.0 L674.1,203.3 L675.0,187.0 L675.8,182.7 L676.6,184.3 L677.5,186.2 L678.3,190.7 L679.2,194.2 L680.0,195.0" stroke="#9467bd" stroke-width="2" fill="none" opacity="0.8"/>
<!-- Total Generation -->
<path d="M80.0,221.8 L80.8,219.9 L81.7,222.6 L82.5,233.9 L83.4,231.2 L84.2,232.5 L85.0,234.2 L85.9,186.7 L86.7,159.3 L87.6,171.7 L88.4,181.9 L89.3,173.5 L90.1,207.9 L90.9,191.2 L91.8,195.8 L92.6,192.9 L93.5,208.1 L94.3,225.8 L95.1,212.2 L96.0,192.6 L96.8,210.6 L97.7,228.5 L98.5,192.6 L99.4,179.2 L100.2,187.5 L101.0,205.5 L101.9,200.4 L102.7,199.6 L103.6,217.8 L104.4,229.1 L105.2,225.8 L106.1,228.3 L106.9,191.5 L107.8,240.3 L108.6,235.8 L109.5,245.4 L110.3,262.6 L111.1,257.5 L112.0,262.6 L112.8,255.6 L113.7,234.4 L114.5,226.1 L115.3,221.6 L116.2,182.1 L117.0,159.9 L117.9,163.9 L118.7,144.6 L119.6,133.9 L120.4,133.3 L121.2,179.4 L122.1,174.6 L122.9,182.1 L123.8,184.8 L124.6,186.7 L125.4,189.4 L126.3,184.8 L127.1,189.1 L128.0,178.6 L128.8,230.7 L129.6,232.8 L130.5,239.0 L131.3,242.5 L132.2,233.1 L133.0,225.0 L133.9,226.6 L134.7,229.9 L135.5,232.3 L136.4,194.2 L137.2,192.6 L138.1,186.7 L138.9,188.6 L139.7,190.4 L140.6,194.7 L141.4,195.0 L142.3,201.2 L143.1,179.2 L144.8,203.0 L145.6,217.5 L146.5,216.2 L147.3,225.6 L148.2,215.7 L149.0,199.6 L149.8,252.9 L150.7,259.4 L151.5,256.4 L152.4,265.0 L153.2,271.7 L154.1,274.4 L154.9,274.1 L155.7,270.6 L156.6,254.5 L157.4,222.6 L158.3,203.0 L159.1,189.6 L159.9,199.3 L160.8,218.6 L161.6,227.2 L162.5,238.2 L163.3,243.5 L164.2,243.5 L165.0,244.1 L165.8,246.0 L166.7,203.0 L167.5,178.4 L168.4,167.4 L169.2,173.5 L170.0,194.7 L170.9,191.2 L171.7,167.9 L172.6,188.8 L173.4,189.9 L174.2,186.7 L175.1,196.9 L175.9,215.4 L176.8,209.8 L177.6,194.7 L178.5,179.2 L179.3,159.1 L180.1,182.4 L181.0,195.5 L181.8,207.3 L182.7,211.4 L183.5,241.4 L184.3,240.9 L185.2,238.7 L186.0,239.5 L186.9,219.1 L187.7,194.7 L188.6,164.4 L189.4,172.5 L190.2,162.3 L191.1,198.0 L191.9,229.6 L192.8,232.8 L193.6,231.7 L194.4,224.0 L195.3,236.3 L196.1,244.1 L197.0,208.4 L197.8,174.9 L198.7,178.4 L199.5,165.5 L200.3,190.7 L201.2,195.5 L202.0,184.8 L202.9,166.3 L203.7,160.4 L204.5,181.3 L205.4,176.5 L206.2,190.2 L207.1,201.7 L207.9,182.9 L208.8,122.9 L209.6,87.2 L210.4,137.3 L211.3,202.8 L212.1,166.6 L213.0,159.1 L213.8,161.5 L214.6,199.0 L215.5,229.6 L216.3,214.6 L217.2,225.8 L218.0,258.6 L218.8,217.8 L219.7,127.4 L220.5,116.2 L221.4,170.9 L222.2,185.1 L223.1,190.7 L223.9,198.8 L224.7,221.3 L225.6,236.3 L226.4,267.7 L227.3,283.2 L228.1,265.5 L228.9,186.4 L229.8,187.2 L230.6,269.6 L231.5,278.7 L232.3,283.8 L233.2,301.7 L234.0,292.6 L234.8,279.7 L235.7,267.4 L236.5,255.9 L237.4,244.9 L238.2,198.2 L239.0,143.8 L239.9,170.3 L240.7,196.1 L241.6,176.8 L242.4,208.9 L243.3,225.6 L244.1,241.1 L244.9,235.8 L245.8,232.0 L246.6,239.5 L247.5,215.1 L248.3,173.0 L249.1,173.0 L250.0,200.4 L250.8,201.2 L251.7,200.4 L252.5,198.0 L253.4,188.3 L254.2,215.4 L255.0,220.2 L255.9,201.7 L256.7,201.7 L257.6,169.3 L258.4,158.8 L259.2,157.5 L260.1,159.9 L260.9,168.5 L261.8,180.5 L262.6,176.0 L263.5,198.0 L264.3,198.5 L265.1,201.4 L266.0,205.7 L266.8,205.7 L267.7,211.1 L268.5,216.2 L269.3,219.7 L270.2,216.7 L271.0,247.3 L271.9,236.6 L272.7,225.0 L273.5,232.3 L274.4,232.3 L275.2,227.5 L276.1,228.5 L276.9,228.5 L277.8,232.0 L278.6,190.2 L279.4,192.3 L280.3,210.8 L281.1,221.0 L282.0,207.3 L282.8,203.9 L283.6,213.8 L284.5,210.8 L285.3,214.3 L286.2,232.0 L287.0,237.1 L287.9,218.6 L288.7,220.5 L289.5,210.3 L290.4,223.2 L291.2,224.8 L292.1,230.7 L292.9,238.2 L293.7,242.5 L294.6,231.7 L295.4,248.9 L296.3,251.9 L297.1,254.0 L298.0,250.0 L298.8,190.2 L299.6,170.3 L300.5,165.8 L301.3,169.0 L302.2,168.2 L303.0,152.1 L303.8,153.4 L304.7,152.6 L305.5,151.3 L306.4,163.9 L307.2,145.7 L308.1,117.8 L308.9,117.5 L309.7,88.3 L310.6,86.1 L311.4,81.0 L312.3,107.8 L313.1,100.6 L313.9,136.0 L314.8,155.3 L315.6,162.0 L316.5,163.9 L317.3,182.4 L318.1,153.4 L319.0,111.6 L319.8,67.6 L320.7,97.7 L321.5,132.2 L322.4,161.7 L323.2,221.8 L324.0,246.0 L324.9,231.7 L325.7,238.4 L326.6,237.1 L327.4,209.8 L328.2,215.9 L329.1,206.8 L329.9,198.2 L330.8,158.8 L331.6,189.6 L332.5,174.1 L333.3,240.6 L334.1,230.9 L335.0,225.6 L335.8,237.1 L336.7,250.5 L337.5,229.1 L338.3,176.5 L339.2,148.3 L340.0,108.4 L340.9,120.4 L341.7,104.6 L342.6,129.6 L343.4,137.9 L344.2,182.4 L345.1,178.1 L345.9,185.6 L346.8,204.9 L347.6,202.8 L348.4,216.2 L349.3,150.5 L350.1,120.4 L351.0,165.5 L351.8,189.6 L352.7,168.2 L353.5,162.3 L354.3,135.7 L355.2,149.4 L356.0,150.5 L356.9,157.7 L357.7,161.2 L358.5,189.4 L359.4,126.6 L360.2,143.8 L361.1,147.3 L361.9,173.0 L362.7,198.5 L363.6,193.7 L364.4,217.8 L365.3,202.8 L366.1,202.5 L367.0,196.3 L367.8,194.7 L368.6,214.6 L369.5,205.2 L370.3,193.9 L371.2,180.5 L372.0,221.8 L372.8,195.3 L373.7,181.1 L374.5,173.3 L375.4,167.4 L376.2,170.3 L377.1,166.3 L377.9,174.9 L378.7,192.3 L379.6,192.9 L380.4,174.9 L381.3,215.4 L382.1,220.2 L382.9,212.7 L383.8,221.8 L384.6,204.1 L385.5,192.6 L386.3,197.4 L387.2,205.5 L388.0,220.2 L388.8,240.9 L389.7,213.5 L390.5,191.8 L391.4,176.0 L392.2,204.9 L393.0,158.0 L393.9,160.1 L394.7,151.3 L395.6,159.9 L396.4,168.2 L397.3,160.7 L398.1,155.8 L398.9,161.7 L399.8,175.4 L400.6,153.4 L401.5,221.8 L402.3,217.5 L403.1,208.7 L404.0,220.2 L404.8,213.2 L405.7,211.1 L406.5,223.7 L407.3,231.7 L408.2,250.5 L409.0,265.8 L409.9,241.1 L410.7,238.4 L411.6,223.4 L412.4,241.4 L413.2,235.0 L414.1,251.3 L414.9,226.9 L415.8,202.0 L416.6,206.3 L417.4,195.3 L418.3,207.9 L419.1,204.7 L420.0,229.3 L420.8,230.4 L421.7,237.9 L422.5,243.8 L423.3,246.8 L424.2,263.4 L425.0,277.6 L425.9,279.5 L426.7,277.9 L427.5,272.2 L428.4,263.7 L429.2,259.6 L430.1,217.0 L430.9,203.6 L431.8,213.2 L432.6,197.4 L433.4,174.4 L434.3,161.5 L435.1,166.6 L436.0,156.1 L436.8,169.3 L437.6,173.8 L438.5,177.3 L439.3,193.1 L440.2,188.8 L441.0,145.1 L441.9,167.1 L442.7,165.2 L443.5,194.2 L444.4,218.9 L445.2,213.8 L446.1,241.7 L446.9,250.0 L447.7,211.1 L448.6,222.4 L449.4,203.3 L450.3,151.6 L451.1,156.9 L451.9,179.4 L452.8,173.3 L453.6,193.9 L454.5,214.3 L455.3,220.7 L456.2,227.2 L457.0,235.0 L457.8,229.1 L458.7,258.8 L459.5,248.4 L460.4,188.6 L461.2,136.5 L462.0,126.3 L462.9,162.3 L463.7,201.2 L464.6,182.1 L465.4,236.6 L466.3,273.3 L467.1,271.2 L467.9,264.2 L468.8,259.6 L469.6,249.2 L470.5,210.6 L471.3,166.0 L472.1,170.1 L473.0,200.1 L473.8,189.9 L474.7,203.9 L475.5,184.0 L476.4,186.2 L477.2,175.4 L478.0,185.9 L478.9,181.6 L479.7,185.6 L480.6,178.9 L481.4,187.2 L482.2,208.1 L483.1,229.9 L483.9,217.5 L484.8,195.3 L485.6,201.7 L486.5,183.5 L487.3,210.6 L488.1,213.5 L489.0,231.7 L489.8,203.9 L490.7,165.0 L491.5,168.7 L492.3,189.9 L493.2,210.8 L494.0,205.7 L494.9,219.7 L495.7,216.5 L496.5,217.3 L497.4,216.2 L498.2,207.1 L499.1,210.6 L499.9,233.4 L500.8,208.4 L501.6,181.3 L502.4,170.3 L503.3,187.2 L504.1,211.9 L505.0,217.3 L505.8,223.7 L506.6,250.8 L507.5,263.7 L508.3,278.1 L509.2,271.7 L510.0,239.5 L510.9,178.1 L511.7,158.8 L512.5,159.9 L513.4,160.7 L514.2,194.7 L515.1,190.7 L515.9,197.1 L516.7,207.9 L517.6,213.5 L518.4,216.5 L519.3,186.2 L520.1,192.6 L521.0,202.0 L521.8,182.1 L522.6,211.9 L523.5,175.4 L524.3,188.6 L525.2,175.7 L526.0,192.1 L526.8,239.0 L527.7,186.4 L528.5,190.7 L529.4,189.1 L530.2,187.8 L531.1,163.4 L531.9,155.0 L532.7,165.5 L533.6,172.7 L534.4,212.7 L535.3,196.9 L536.1,243.0 L536.9,227.2 L537.8,243.8 L538.6,240.6 L539.5,229.3 L540.3,227.5 L541.2,196.9 L542.0,195.0 L542.8,200.4 L543.7,208.4 L544.5,213.0 L545.4,232.0 L546.2,260.7 L547.0,262.8 L547.9,262.3 L548.7,247.8 L549.6,239.3 L550.4,228.5 L551.2,215.7 L552.1,210.6 L552.9,269.8 L553.8,253.5 L554.6,267.9 L555.5,261.0 L556.3,249.7 L557.1,250.0 L558.0,238.2 L558.8,244.6 L559.7,247.6 L560.5,253.2 L561.3,270.9 L562.2,256.1 L563.0,229.6 L563.9,212.2 L564.7,259.9 L565.6,270.6 L566.4,270.9 L567.2,265.8 L568.1,258.3 L568.9,255.9 L569.8,254.0 L570.6,253.2 L571.4,257.0 L572.3,253.2 L573.1,239.8 L574.0,252.1 L574.8,248.1 L575.7,250.0 L576.5,248.1 L577.3,242.5 L578.2,246.5 L579.0,244.3 L579.9,243.3 L580.7,234.2 L581.5,237.1 L582.4,243.3 L583.2,237.9 L584.1,240.9 L584.9,246.0 L585.8,254.3 L586.6,260.2 L587.4,267.9 L588.3,269.0 L589.1,255.1 L590.0,232.0 L590.8,226.6 L591.6,197.7 L592.5,137.3 L593.3,162.8 L594.2,158.0 L595.0,160.1 L595.8,160.9 L596.7,139.8 L597.5,129.3 L598.4,148.1 L599.2,179.4 L600.1,191.8 L600.9,204.4 L601.7,194.5 L602.6,133.1 L603.4,115.1 L604.3,122.1 L605.1,148.9 L605.9,144.0 L606.8,119.6 L607.6,253.7 L608.5,258.6 L609.3,241.1 L610.2,184.3 L611.0,165.5 L611.8,122.6 L612.7,129.0 L613.5,112.7 L614.4,115.6 L615.2,102.2 L616.0,110.0 L616.9,112.9 L617.7,106.0 L618.6,126.3 L619.4,130.6 L620.3,144.0 L621.1,141.4 L621.9,142.4 L622.8,160.4 L623.6,152.6 L624.5,153.4 L625.3,159.3 L626.1,176.5 L627.0,192.1 L627.8,163.4 L628.7,161.7 L629.5,159.6 L630.4,160.4 L631.2,162.0 L632.0,159.9 L632.9,160.9 L633.7,178.1 L634.6,158.0 L635.4,182.9 L636.2,187.5 L637.1,172.7 L637.9,175.7 L638.8,164.4 L639.6,160.9 L640.4,188.6 L641.3,210.0 L642.1,144.9 L643.0,122.1 L643.8,121.5 L644.7,184.5 L645.5,193.4 L646.3,225.0 L647.2,265.8 L648.0,278.4 L648.9,275.5 L649.7,274.6 L650.5,272.0 L651.4,252.4 L652.2,222.4 L653.1,180.8 L653.9,194.7 L654.8,226.9 L655.6,226.9 L656.4,215.7 L657.3,219.4 L658.1,193.7 L659.0,181.9 L659.8,193.7 L660.6,209.2 L661.5,215.9 L662.3,182.9 L663.2,171.9 L664.0,179.2 L664.9,190.7 L665.7,197.4 L666.5,198.8 L667.4,203.0 L668.2,187.5 L669.1,191.2 L669.9,194.5 L670.7,193.7 L671.6,198.8 L672.4,196.1 L673.3,195.0 L674.1,214.3 L675.0,221.6 L675.8,229.3 L676.6,243.3 L677.5,254.5 L678.3,248.6 L679.2,251.3 L680.0,252.1" stroke="#8c564b" stroke-width="2" fill="none" opacity="0.8"/>
<!-- Forecast Difference -->
<path d="M80.0,420.0 L80.8,420.0 L81.7,420.0 L82.5,420.0 L83.4,420.0 L84.2,420.0 L85.0,420.0 L85.9,420.0 L86.7,420.0 L87.6,420.0 L88.4,420.0 L89.3,420.0 L90.1,420.0 L90.9,420.0 L91.8,420.0 L92.6,420.0 L93.5,420.0 L94.3,420.0 L95.1,420.0 L96.0,420.0 L96.8,420.0 L97.7,420.0 L98.5,420.0 L99.4,420.0 L100.2,420.0 L101.0,420.0 L101.9,420.0 L102.7,420.0 L103.6,420.0 L104.4,420.0 L105.2,420.0 L106.1,420.0 L106.9,420.0 L107.8,420.0 L108.6,420.0 L109.5,420.0 L110.3,420.0 L111.1,420.0 L112.0,420.0 L112.8,420.0 L113.7,420.0 L114.5,420.0 L115.3,420.0 L116.2,420.0 L117.0,420.0 L117.9,420.0 L118.7,420.0 L119.6,420.0 L120.4,420.0 L121.2,420.0 L122.1,420.0 L122.9,420.0 L123.8,420.0 L124.6,420.0 L125.4,420.0 L126.3,420.0 L127.1,420.0 L128.0,420.0 L128.8,420.0 L129.6,420.0 L130.5,420.0 L131.3,420.0 L132.2,420.0 L133.0,420.0 L133.9,420.0 L134.7,420.0 L135.5,420.0 L136.4,420.0 L137.2,420.0 L138.1,420.0 L138.9,420.0 L139.7,420.0 L140.6,420.0 L141.4,420.0 L142.3,420.0 L143.1,420.0 L144.8,420.0 L145.6,420.0 L146.5,420.0 L147.3,420.0 L148.2,420.0 L149.0,420.0 L149.8,420.0 L150.7,420.0 L151.5,420.0 L152.4,420.0 L153.2,420.0 L154.1,420.0 L154.9,420.0 L155.7,420.0 L156.6,420.0 L157.4,420.0 L158.3,420.0 L159.1,420.0 L159.9,420.0 L160.8,420.0 L161.6,420.0 L162.5,420.0 L163.3,420.0 L164.2,420.0 L165.0,420.0 L165.8,420.0 L166.7,420.0 L167.5,420.0 L168.4,420.0 L169.2,420.0 L170.0,420.0 L170.9,420.0 L171.7,420.0 L172.6,420.0 L173.4,420.0 L174.2,420.0 L175.1,420.0 L175.9,420.0 L176.8,420.0 L177.6,420.0 L178.5,420.0 L179.3,420.0 L180.1,420.0 L181.0,420.0 L181.8,420.0 L182.7,420.0 L183.5,420.0 L184.3,420.0 L185.2,420.0 L186.0,420.0 L186.9,420.0 L187.7,420.0 L188.6,420.0 L189.4,420.0 L190.2,420.0 L191.1,420.0 L191.9,420.0 L192.8,420.0 L193.6,420.0 L194.4,420.0 L195.3,420.0 L196.1,420.0 L197.0,420.0 L197.8,420.0 L198.7,420.0 L199.5,420.0 L200.3,420.0 L201.2,420.0 L202.0,420.0 L202.9,420.0 L203.7,420.0 L204.5,420.0 L205.4,420.0 L206.2,420.0 L207.1,420.0 L207.9,420.0 L208.8,420.0 L209.6,420.0 L210.4,420.0 L211.3,420.0 L212.1,420.0 L213.0,420.0 L213.8,420.0 L214.6,420.0 L215.5,420.0 L216.3,420.0 L217.2,420.0 L218.0,420.0 L218.8,420.0 L219.7,420.0 L220.5,420.0 L221.4,420.0 L222.2,420.0 L223.1,420.0 L223.9,420.0 L224.7,420.0 L225.6,420.0 L226.4,420.0 L227.3,420.0 L228.1,420.0 L228.9,420.0 L229.8,420.0 L230.6,420.0 L231.5,420.0 L232.3,420.0 L233.2,420.0 L234.0,420.0 L234.8,420.0 L235.7,420.0 L236.5,420.0 L237.4,420.0 L238.2,420.0 L239.0,420.0 L239.9,420.0 L240.7,420.0 L241.6,420.0 L242.4,420.0 L243.3,420.0 L244.1,420.0 L244.9,420.0 L245.8,420.0 L246.6,420.0 L247.5,420.0 L248.3,420.0 L249.1,420.0 L250.0,420.0 L250.8,420.0 L251.7,420.0 L252.5,420.0 L253.4,420.0 L254.2,420.0 L255.0,420.0 L255.9,420.0 L256.7,420.0 L257.6,420.0 L258.4,420.0 L259.2,420.0 L260.1,420.0 L260.9,420.0 L261.8,420.0 L262.6,420.0 L263.5,420.0 L264.3,420.0 L265.1,420.0 L266.0,420.0 L266.8,420.0 L267.7,420.0 L268.5,420.0 L269.3,420.0 L270.2,420.0 L271.0,420.0 L271.9,420.0 L272.7,420.0 L273.5,420.0 L274.4,420.0 L275.2,420.0 L276.1,420.0 L276.9,420.0 L277.8,420.0 L278.6,420.0 L279.4,420.0 L280.3,420.0 L281.1,420.0 L282.0,420.0 L282.8,420.0 L283.6,420.0 L284.5,420.0 L285.3,420.0 L286.2,420.0 L287.0,420.0 L287.9,420.0 L288.7,420.0 L289.5,420.0 L290.4,420.0 L291.2,420.0 L292.1,420.0 L292.9,420.0 L293.7,420.0 L294.6,420.0 L295.4,420.0 L296.3,420.0 L297.1,420.0 L298.0,420.0 L298.8,420.0 L299.6,420.0 L300.5,420.0 L301.3,420.0 L302.2,420.0 L303.0,420.0 L303.8,420.0 L304.7,420.0 L305.5,420.0 L306.4,420.0 L307.2,420.0 L308.1,420.0 L308.9,420.0 L309.7,420.0 L310.6,420.0 L311.4,420.0 L312.3,420.0 L313.1,420.0 L313.9,420.0 L314.8,420.0 L315.6,420.0 L316.5,420.0 L317.3,420.0 L318.1,420.0 L319.0,420.0 L319.8,420.0 L320.7,420.0 L321.5,420.0 L322.4,420.0 L323.2,420.0 L324.0,420.0 L324.9,420.0 L325.7,420.0 L326.6,420.0 L327.4,420.0 L328.2,420.0 L329.1,420.0 L329.9,420.0 L330.8,420.0 L331.6,420.0 L332.5,420.0 L333.3,420.0 L334.1,420.0 L335.0,420.0 L335.8,420.0 L336.7,420.0 L337.5,420.0 L338.3,420.0 L339.2,420.0 L340.0,420.0 L340.9,420.0 L341.7,420.0 L342.6,420.0 L343.4,420.0 L344.2,420.0 L345.1,420.0 L345.9,420.0 L346.8,420.0 L347.6,420.0 L348.4,420.0 L349.3,420.0 L350.1,420.0 L351.0,420.0 L351.8,420.0 L352.7,420.0 L353.5,420.0 L354.3,420.0 L355.2,420.0 L356.0,420.0 L356.9,420.0 L357.7,420.0 L358.5,420.0 L359.4,420.0 L360.2,420.0 L361.1,420.0 L361.9,420.0 L362.7,420.0 L363.6,420.0 L364.4,420.0 L365.3,420.0 L366.1,420.0 L367.0,420.0 L367.8,420.0 L368.6,420.0 L369.5,420.0 L370.3,420.0 L371.2,420.0 L372.0,420.0 L372.8,420.0 L373.7,420.0 L374.5,420.0 L375.4,420.0 L376.2,420.0 L377.1,420.0 L377.9,420.0 L378.7,420.0 L379.6,420.0 L380.4,420.0 L381.3,420.0 L382.1,420.0 L382.9,420.0 L383.8,420.0 L384.6,420.0 L385.5,420.0 L386.3,420.0 L387.2,420.0 L388.0,420.0 L388.8,420.0 L389.7,420.0 L390.5,420.0 L391.4,420.0 L392.2,420.0 L393.0,420.0 L393.9,420.0 L394.7,420.0 L395.6,420.0 L396.4,420.0 L397.3,420.0 L398.1,420.0 L398.9,420.0 L399.8,420.0 L400.6,420.0 L401.5,420.0 L402.3,420.0 L403.1,420.0 L404.0,420.0 L404.8,420.0 L405.7,420.0 L406.5,420.0 L407.3,420.0 L408.2,420.0 L409.0,420.0 L409.9,420.0 L410.7,420.0 L411.6,420.0 L412.4,420.0 L413.2,420.0 L414.1,420.0 L414.9,420.0 L415.8,420.0 L416.6,420.0 L417.4,420.0 L418.3,420.0 L419.1,420.0 L420.0,420.0 L420.8,420.0 L421.7,420.0 L422.5,420.0 L423.3,420.0 L424.2,420.0 L425.0,420.0 L425.9,420.0 L426.7,420.0 L427.5,420.0 L428.4,420.0 L429.2,420.0 L430.1,420.0 L430.9,420.0 L431.8,420.0 L432.6,420.0 L433.4,420.0 L434.3,420.0 L435.1,420.0 L436.0,420.0 L436.8,420.0 L437.6,420.0 L438.5,420.0 L439.3,420.0 L440.2,420.0 L441.0,420.0 L441.9,420.0 L442.7,420.0 L443.5,420.0 L444.4,420.0 L445.2,420.0 L446.1,420.0 L446.9,420.0 L447.7,420.0 L448.6,420.0 L449.4,420.0 L450.3,420.0 L451.1,420.0 L451.9,420.0 L452.8,420.0 L453.6,420.0 L454.5,420.0 L455.3,420.0 L456.2,420.0 L457.0,420.0 L457.8,420.0 L458.7,420.0 L459.5,420.0 L460.4,420.0 L461.2,420.0 L462.0,420.0 L462.9,420.0 L463.7,420.0 L464.6,420.0 L465.4,420.0 L466.3,420.0 L467.1,420.0 L467.9,420.0 L468.8,420.0 L469.6,420.0 L470.5,420.0 L471.3,420.0 L472.1,420.0 L473.0,420.0 L473.8,420.0 L474.7,420.0 L475.5,420.0 L476.4,420.0 L477.2,420.0 L478.0,420.0 L478.9,420.0 L479.7,420.0 L480.6,420.0 L481.4,420.0 L482.2,420.0 L483.1,420.0 L483.9,420.0 L484.8,420.0 L485.6,420.0 L486.5,420.0 L487.3,420.0 L488.1,420.0 L489.0,420.0 L489.8,420.0 L490.7,420.0 L491.5,420.0 L492.3,420.0 L493.2,420.0 L494.0,420.0 L494.9,420.0 L495.7,420.0 L496.5,420.0 L497.4,420.0 L498.2,420.0 L499.1,420.0 L499.9,420.0 L500.8,420.0 L501.6,420.0 L502.4,420.0 L503.3,420.0 L504.1,420.0 L505.0,420.0 L505.8,420.0 L506.6,420.0 L507.5,420.0 L508.3,420.0 L509.2,420.0 L510.0,420.0 L510.9,420.0 L511.7,420.0 L512.5,420.0 L513.4,420.0 L514.2,420.0 L515.1,420.0 L515.9,420.0 L516.7,420.0 L517.6,420.0 L518.4,420.0 L519.3,420.0 L520.1,420.0 L521.0,420.0 L521.8,420.0 L522.6,420.0 L523.5,420.0 L524.3,420.0 L525.2,420.0 L526.0,420.0 L526.8,420.0 L527.7,420.0 L528.5,420.0 L529.4,420.0 L530.2,420.0 L531.1,420.0 L531.9,420.0 L532.7,420.0 L533.6,420.0 L534.4,420.0 L535.3,420.0 L536.1,420.0 L536.9,420.0 L537.8,420.0 L538.6,420.0 L539.5,420.0 L540.3,420.0 L541.2,420.0 L542.0,420.0 L542.8,420.0 L543.7,420.0 L544.5,420.0 L545.4,420.0 L546.2,420.0 L547.0,420.0 L547.9,420.0 L548.7,420.0 L549.6,420.0 L550.4,420.0 L551.2,420.0 L552.1,420.0 L552.9,420.0 L553.8,420.0 L554.6,420.0 L555.5,420.0 L556.3,420.0 L557.1,420.0 L558.0,420.0 L558.8,420.0 L559.7,420.0 L560.5,420.0 L561.3,420.0 L562.2,420.0 L563.0,420.0 L563.9,420.0 L564.7,420.0 L565.6,420.0 L566.4,420.0 L567.2,420.0 L568.1,420.0 L568.9,420.0 L569.8,420.0 L570.6,420.0 L571.4,420.0 L572.3,420.0 L573.1,420.0 L574.0,420.0 L574.8,420.0 L575.7,420.0 L576.5,420.0 L577.3,420.0 L578.2,420.0 L579.0,420.0 L579.9,420.0 L580.7,420.0 L581.5,420.0 L582.4,420.0 L583.2,420.0 L584.1,420.0 L584.9,420.0 L585.8,420.0 L586.6,420.0 L587.4,420.0 L588.3,420.0 L589.1,420.0 L590.0,420.0 L590.8,420.0 L591.6,420.0 L592.5,420.0 L593.3,420.0 L594.2,420.0 L595.0,420.0 L595.8,420.0 L596.7,420.0 L597.5,420.0 L598.4,420.0 L599.2,420.0 L600.1,420.0 L600.9,420.0 L601.7,420.0 L602.6,420.0 L603.4,420.0 L604.3,420.0 L605.1,420.0 L605.9,420.0 L606.8,420.0 L607.6,420.0 L608.5,420.0 L609.3,420.0 L610.2,420.0 L611.0,420.0 L611.8,420.0 L612.7,420.0 L613.5,420.0 L614.4,420.0 L615.2,420.0 L616.0,420.0 L616.9,420.0 L617.7,420.0 L618.6,420.0 L619.4,420.0 L620.3,420.0 L621.1,420.0 L621.9,420.0 L622.8,420.0 L623.6,420.0 L624.5,420.0 L625.3,420.0 L626.1,420.0 L627.0,420.0 L627.8,420.0 L628.7,420.0 L629.5,420.0 L630.4,420.0 L631.2,420.0 L632.0,420.0 L632.9,420.0 L633.7,420.0 L634.6,420.0 L635.4,420.0 L636.2,420.0 L637.1,420.0 L637.9,420.0 L638.8,420.0 L639.6,420.0 L640.4,420.0 L641.3,420.0 L642.1,420.0 L643.0,420.0 L643.8,420.0 L644.7,420.0 L645.5,420.0 L646.3,420.0 L647.2,420.0 L648.0,420.0 L648.9,420.0 L649.7,420.0 L650.5,420.0 L651.4,420.0 L652.2,420.0 L653.1,420.0 L653.9,420.0 L654.8,420.0 L655.6,420.0 L656.4,420.0 L657.3,420.0 L658.1,420.0 L659.0,420.0 L659.8,420.0 L660.6,420.0 L661.5,420.0 L662.3,420.0 L663.2,420.0 L664.0,420.0 L664.9,420.0 L665.7,420.0 L666.5,420.0 L667.4,420.0 L668.2,420.0 L669.1,420.0 L669.9,420.0 L670.7,420.0 L671.6,420.0 L672.4,420.0 L673.3,420.0 L674.1,420.0 L675.0,420.0 L675.8,420.0 L676.6,420.0 L677.5,420.0 L678.3,420.0 L679.2,420.0 L680.0,420.0" stroke="#e377c2" stroke-width="2" fill="none" opacity="0.8"/>

<!-- Legend -->
<line x1="690" y1="70" x2="705" y2="70" stroke="#1f77b4" stroke-width="3"/>
<text x="710" y="74" class="legend">Wind Generation</text>
<line x1="690" y1="88" x2="705" y2="88" stroke="#ff7f0e" stroke-width="3"/>
<text x="710" y="92" class="legend">Hydro Generation</text>
<line x1="690" y1="106" x2="705" y2="106" stroke="#2ca02c" stroke-width="3"/>
<text x="710" y="110" class="legend">Thermal Generation</text>
<line x1="690" y1="124" x2="705" y2="124" stroke="#d62728" stroke-width="3"/>
<text x="710" y="128" class="legend">Solar Generation</text>
<line x1="690" y1="142" x2="705" y2="142" stroke="#9467bd" stroke-width="3"/>
<text x="710" y="146" class="legend">Forecast</text>
<line x1="690" y1="160" x2="705" y2="160" stroke="#8c564b" stroke-width="3"/>
<text x="710" y="164" class="legend">Total Generation</text>
<line x1="690" y1="178" x2="705" y2="178" stroke="#e377c2" stroke-width="3"/>
<text x="710" y="182" class="legend">Forecast Difference</text>

<!-- Date range -->
<text x="80" y="495" class="legend">Range: 03/04 - 04/03/2026 (713 records)</text>
</svg>