<?xml version="1.0" encoding="UTF-8"?>
<svg width="800" height="500" xmlns="http://www.w3.org/2000/svg">
<style>
.axis-line { stroke: #333; stroke-width: 1; }
.grid-line { stroke: #ddd; stroke-width: 0.5; }
.title { font: 16px Arial; text-anchor: middle; fill: #333; }
.axis-label { font: 12px Arial; text-anchor: middle; fill: #666; }
.legend { font: 10px Arial; fill: #333; }
</style>

<!-- Title -->
<text x="400.0" y="25" class="title">Northwestern Energy Generation Data - Past 30 Days</text>

<!-- Plot area background -->
<rect x="80" y="50" width="600" height="370" fill="white" stroke="#ddd"/>

<!-- Y-axis -->
<line x1="80" y1="50" x2="80" y2="420" class="axis-line"/>
<text x="30" y="235.0" class="axis-label" transform="rotate(-90, 30, 235.0)">Generation (MW)</text>

<!-- X-axis -->
<line x1="80" y1="420" x2="680" y2="420" class="axis-line"/>
<text x="380.0" y="480" class="axis-label">Time</text>
<line x1="80" y1="420.0" x2="680" y2="420.0" class="grid-line"/>
<text x="70" y="425.0" class="legend" text-anchor="end">0</text>
<line x1="80" y1="327.5" x2="680" y2="327.5" class="grid-line"/>
<text x="70" y="332.5" class="legend" text-anchor="end">274</text>
<line x1="80" y1="235.0" x2="680" y2="235.0" class="grid-line"/>
<text x="70" y="240.0" class="legend" text-anchor="end">547</text>
<line x1="80" y1="142.5" x2="680" y2="142.5" class="grid-line"/>
<text x="70" y="147.5" class="legend" text-anchor="end">821</text>
<line x1="80" y1="50.0" x2="680" y2="50.0" class="grid-line"/>
<text x="70" y="55.0" class="legend" text-anchor="end">1094</text>
<!-- Wind Generation -->
<path d="M80.0,396.7 L80.8,400.0 L81.7,408.2 L82.5,412.2 L83.4,415.3 L84.2,417.3 L85.0,417.3 L85.9,415.6 L86.7,412.2 L87.6,404.4 L88.4,403.1 L89.3,403.4 L90.1,407.5 L90.9,402.1 L91.8,399.0 L92.6,396.3 L93.5,391.9 L94.3,384.8 L95.1,365.9 L96.0,355.1 L96.8,357.8 L97.7,340.5 L98.5,332.8 L99.4,323.6 L101.0,345.9 L101.9,349.0 L102.7,338.5 L103.6,352.4 L104.4,360.1 L105.2,359.8 L106.1,349.7 L106.9,353.0 L107.8,373.0 L108.6,396.0 L109.5,406.1 L110.3,407.8 L111.1,401.4 L112.0,387.9 L112.8,377.1 L113.7,371.0 L114.5,349.0 L115.3,356.8 L116.2,374.7 L117.0,403.1 L117.9,410.5 L118.7,414.9 L119.6,416.6 L120.4,417.6 L121.2,417.0 L122.1,413.2 L122.9,413.2 L123.8,407.1 L124.6,400.4 L125.4,396.0 L126.3,387.5 L127.1,382.1 L128.0,382.1 L128.8,392.6 L129.6,396.7 L130.5,386.5 L131.3,354.4 L132.2,328.7 L133.0,309.4 L133.9,302.3 L134.7,335.5 L135.5,318.9 L136.4,315.5 L137.2,310.8 L138.1,313.5 L138.9,307.7 L139.7,328.4 L140.6,325.0 L141.4,303.7 L142.3,319.2 L143.1,325.3 L144.0,330.7 L144.8,285.1 L145.6,301.3 L146.5,322.3 L147.3,371.3 L148.2,373.0 L149.0,372.3 L149.8,379.1 L150.7,369.6 L151.5,376.0 L152.4,355.1 L153.2,329.4 L154.1,312.1 L154.9,302.3 L155.7,301.3 L156.6,297.9 L157.4,312.5 L158.3,336.1 L159.1,346.6 L159.9,336.5 L160.8,350.3 L161.6,364.2 L162.5,390.2 L163.3,404.1 L164.2,407.5 L165.0,407.5 L165.8,410.9 L166.7,410.9 L167.5,402.4 L168.4,391.3 L169.2,394.3 L170.0,400.7 L170.9,413.2 L171.7,417.6 L172.6,414.9 L173.4,411.9 L174.2,413.6 L175.1,405.1 L175.9,399.7 L176.8,384.2 L177.6,369.3 L178.5,368.3 L179.3,372.7 L180.1,387.9 L181.0,378.4 L181.8,374.3 L182.7,371.0 L183.5,375.7 L184.3,376.4 L185.2,383.5 L186.0,378.1 L186.9,358.5 L187.7,354.4 L188.6,354.7 L189.4,364.2 L190.2,386.5 L191.1,388.9 L191.9,382.1 L192.8,396.7 L193.6,405.8 L194.4,407.8 L195.3,412.9 L196.1,413.9 L197.0,418.0 L197.8,418.0 L198.7,418.3 L199.5,419.0 L200.3,419.7 L201.2,416.6 L202.0,413.6 L202.9,413.2 L203.7,410.5 L204.5,407.8 L205.4,405.1 L206.2,405.5 L207.1,382.5 L207.9,385.8 L208.8,385.2 L209.6,393.3 L210.4,406.8 L211.3,414.3 L212.1,398.4 L213.0,407.5 L213.8,409.5 L214.6,403.1 L215.5,403.8 L216.3,408.8 L217.2,414.3 L218.0,414.3 L218.8,411.5 L219.7,404.8 L220.5,398.4 L221.4,381.8 L222.2,373.3 L223.1,330.0 L223.9,302.7 L224.7,309.4 L225.6,302.3 L226.4,296.6 L227.3,322.9 L228.1,339.5 L228.9,347.3 L229.8,359.5 L230.6,388.5 L231.5,373.3 L232.3,358.1 L233.2,363.5 L234.0,349.0 L234.8,367.9 L235.7,361.2 L236.5,363.2 L237.4,363.9 L238.2,351.3 L239.0,345.3 L239.9,347.6 L240.7,317.5 L244.1,334.8 L244.9,320.6 L245.8,335.8 L246.6,369.6 L247.5,388.9 L248.3,403.4 L249.1,412.6 L250.0,418.0 L250.8,418.6 L251.7,415.9 L252.5,407.5 L253.4,410.2 L254.2,411.5 L255.0,415.3 L255.9,400.7 L256.7,410.5 L257.6,403.1 L258.4,405.8 L259.2,403.1 L260.1,405.8 L260.9,401.1 L261.8,398.0 L262.6,407.8 L263.5,400.0 L264.3,412.2 L265.1,419.7 L266.0,420.0 L266.8,415.9 L267.7,410.2 L268.5,414.9 L269.3,400.4 L270.2,395.0 L271.0,402.8 L271.9,402.4 L272.7,408.8 L273.5,416.6 L274.4,415.9 L275.2,416.6 L276.1,413.9 L276.9,410.9 L277.8,392.6 L278.6,411.2 L279.4,404.8 L280.3,381.1 L281.1,381.1 L282.0,369.9 L282.8,378.7 L283.6,388.9 L284.5,380.4 L285.3,378.4 L286.2,379.8 L287.0,350.0 L287.9,343.9 L288.7,359.8 L289.5,356.8 L290.4,354.7 L291.2,382.8 L292.1,378.1 L292.9,387.2 L293.7,379.4 L294.6,393.6 L295.4,405.1 L296.3,401.4 L297.1,381.8 L298.0,379.8 L298.8,362.5 L299.6,366.9 L300.5,377.4 L301.3,376.7 L302.2,382.5 L303.0,380.1 L303.8,382.5 L304.7,386.2 L305.5,391.3 L306.4,406.8 L307.2,410.2 L308.1,403.1 L308.9,392.6 L309.7,394.0 L310.6,394.0 L311.4,369.9 L312.3,356.4 L313.1,350.0 L313.9,349.0 L314.8,351.0 L315.6,359.1 L316.5,357.4 L317.3,343.6 L318.1,333.4 L319.0,322.6 L319.8,330.0 L320.7,340.2 L321.5,354.4 L322.4,359.8 L323.2,363.9 L324.0,368.9 L324.9,365.2 L325.7,371.3 L326.6,381.1 L327.4,394.3 L328.2,400.4 L329.1,412.2 L329.9,417.3 L330.8,418.6 L331.6,418.6 L332.5,416.6 L333.3,413.2 L334.1,410.9 L335.0,408.5 L335.8,406.1 L336.7,404.1 L337.5,403.4 L338.3,394.6 L339.2,383.5 L340.0,373.7 L340.9,388.9 L341.7,382.1 L342.6,379.8 L343.4,354.4 L344.2,331.7 L345.1,340.2 L345.9,349.7 L346.8,354.4 L347.6,346.3 L348.4,341.5 L349.3,381.4 L350.1,397.3 L351.0,407.5 L351.8,417.0 L352.7,413.6 L353.5,413.9 L354.3,412.2 L355.2,405.5 L356.0,401.7 L356.9,401.4 L357.7,394.6 L358.5,389.9 L359.4,389.9 L360.2,387.9 L361.1,396.7 L361.9,395.0 L362.7,400.7 L363.6,404.4 L364.4,409.2 L365.3,406.8 L366.1,406.8 L367.0,403.8 L367.8,404.4 L368.6,396.7 L369.5,385.8 L370.3,381.1 L371.2,390.9 L372.0,394.0 L372.8,392.3 L373.7,395.0 L374.5,393.3 L375.4,388.5 L376.2,394.0 L377.1,398.7 L377.9,387.5 L378.7,393.3 L379.6,372.3 L380.4,366.2 L381.3,362.5 L382.1,367.6 L382.9,354.4 L383.8,355.4 L384.6,366.6 L385.5,383.5 L386.3,394.3 L387.2,407.8 L388.0,411.2 L388.8,413.6 L389.7,415.3 L390.5,411.5 L391.4,400.0 L392.2,396.0 L393.0,398.4 L393.9,397.0 L394.7,395.3 L395.6,384.5 L396.4,388.2 L397.3,390.2 L398.1,385.2 L398.9,396.0 L399.8,395.0 L400.6,367.6 L401.5,377.4 L402.3,399.7 L403.1,409.5 L404.0,411.5 L404.8,406.8 L405.7,402.4 L406.5,386.2 L407.3,379.4 L408.2,380.4 L409.0,372.3 L409.9,364.2 L410.7,355.4 L411.6,363.9 L412.4,368.9 L413.2,388.2 L414.1,405.1 L414.9,411.5 L415.8,418.0 L416.6,420.0 L417.4,420.0 L418.3,420.0 L419.1,413.2 L420.0,409.2 L420.8,418.6 L421.7,419.0 L422.5,411.2 L423.3,392.6 L424.2,407.1 L425.0,402.4 L425.9,409.2 L426.7,409.2 L427.5,387.5 L428.4,384.8 L429.2,368.9 L430.1,387.2 L430.9,389.6 L431.8,401.1 L432.6,387.5 L433.4,393.3 L434.3,392.6 L435.1,397.7 L436.0,402.1 L436.8,400.0 L437.6,401.4 L438.5,399.7 L439.3,370.3 L440.2,374.0 L441.0,394.0 L441.9,401.4 L442.7,394.6 L443.5,385.8 L444.4,368.3 L445.2,387.2 L446.1,403.1 L446.9,384.2 L447.7,377.4 L448.6,373.0 L449.4,376.0 L450.3,388.2 L451.1,324.6 L451.9,304.3 L452.8,305.4 L453.6,323.6 L454.5,338.2 L455.3,328.4 L456.2,317.2 L457.0,326.3 L457.8,318.9 L458.7,297.2 L459.5,279.7 L460.4,283.0 L461.2,285.7 L462.0,306.4 L462.9,308.1 L463.7,305.4 L464.6,312.8 L465.4,315.8 L466.3,329.4 L467.1,341.2 L467.9,355.4 L468.8,354.1 L469.6,352.4 L470.5,358.1 L471.3,367.6 L472.1,369.9 L473.0,377.4 L473.8,369.9 L474.7,372.7 L475.5,381.8 L476.4,382.5 L477.2,388.9 L478.0,399.4 L478.9,400.0 L479.7,400.7 L480.6,395.7 L481.4,392.9 L482.2,389.6 L483.1,393.6 L483.9,400.0 L484.8,406.5 L485.6,408.8 L486.5,409.9 L487.3,412.6 L488.1,413.2 L489.0,413.6 L489.8,412.9 L490.7,414.9 L491.5,415.6 L492.3,416.3 L493.2,417.3 L494.0,416.6 L494.9,418.0 L495.7,418.6 L496.5,420.0 L497.4,420.0 L498.2,420.0 L499.1,420.0 L499.9,420.0 L500.8,420.0 L501.6,420.0 L502.4,420.0 L503.3,420.0 L504.1,420.0 L505.0,420.0 L505.8,420.0 L506.6,420.0 L507.5,420.0 L508.3,420.0 L509.2,420.0 L510.0,420.0 L510.9,420.0 L511.7,420.0 L512.5,420.0 L513.4,419.7 L514.2,415.9 L515.1,417.3 L515.9,418.6 L516.7,420.0 L517.6,418.3 L518.4,420.0 L519.3,418.6 L520.1,418.0 L521.0,420.0 L521.8,420.0 L522.6,415.9 L523.5,420.0 L524.3,420.0 L525.2,420.0 L526.0,420.0 L526.8,420.0 L527.7,420.0 L528.5,419.7 L529.4,416.3 L530.2,417.6 L531.1,418.6 L531.9,419.7 L532.7,419.3 L533.6,411.5 L534.4,402.8 L535.3,410.5 L536.1,402.1 L536.9,387.2 L537.8,398.7 L538.6,370.3 L539.5,347.3 L540.3,340.9 L541.2,331.4 L542.0,323.6 L542.8,349.0 L543.7,355.1 L544.5,364.5 L545.4,359.8 L546.2,357.1 L547.0,353.7 L547.9,364.2 L548.7,353.0 L549.6,334.1 L550.4,321.9 L551.2,321.3 L552.1,307.0 L552.9,316.5 L553.8,296.2 L554.6,285.4 L555.5,282.4 L556.3,281.7 L557.1,286.4 L558.0,290.1 L558.8,290.1 L559.7,280.0 L560.5,283.7 L561.3,289.5 L562.2,281.7 L563.0,280.7 L563.9,279.3 L564.7,276.3 L565.6,276.3 L566.4,283.7 L567.2,282.0 L568.1,283.7 L568.9,280.0 L569.8,306.0 L570.6,295.9 L571.4,277.3 L572.3,302.0 L573.1,333.8 L574.0,313.1 L574.8,342.6 L575.7,336.8 L576.5,327.3 L577.3,303.0 L578.2,341.2 L579.0,343.2 L579.9,350.3 L580.7,345.9 L581.5,362.2 L582.4,362.2 L583.2,345.9 L584.1,349.7 L584.9,314.8 L585.8,312.5 L586.6,297.9 L587.4,291.2 L588.3,285.1 L589.1,282.7 L590.0,287.8 L590.8,332.8 L591.6,365.2 L592.5,376.7 L593.3,355.1 L594.2,355.7 L595.0,360.1 L595.8,355.1 L596.7,347.0 L597.5,333.1 L598.4,338.2 L599.2,361.8 L600.1,350.3 L600.9,350.0 L601.7,372.3 L602.6,375.4 L603.4,382.1 L604.3,375.4 L605.1,361.2 L605.9,362.2 L606.8,347.0 L607.6,290.1 L608.5,309.4 L609.3,300.6 L610.2,278.0 L611.0,314.5 L611.8,296.6 L612.7,290.8 L613.5,307.0 L614.4,284.7 L615.2,291.2 L616.0,286.4 L616.9,296.2 L617.7,283.7 L618.6,283.4 L619.4,283.7 L620.3,288.8 L621.1,286.1 L621.9,286.8 L622.8,297.2 L623.6,295.6 L624.5,294.2 L625.3,298.3 L626.1,313.1 L627.0,304.0 L627.8,291.5 L628.7,325.0 L629.5,334.8 L630.4,315.5 L631.2,271.2 L632.0,285.1 L632.9,282.7 L633.7,285.7 L634.6,270.9 L635.4,277.0 L636.2,274.6 L637.1,277.0 L637.9,277.0 L638.8,287.1 L639.6,284.4 L640.4,286.8 L641.3,283.0 L642.1,278.6 L643.0,285.7 L643.8,287.1 L644.7,293.9 L645.5,306.7 L646.3,291.5 L647.2,298.6 L648.0,283.7 L648.9,279.0 L649.7,280.7 L650.5,285.7 L651.4,301.0 L652.2,339.5 L653.1,353.7 L653.9,372.7 L654.8,392.6 L655.6,401.7 L656.4,409.5 L657.3,405.5 L658.1,401.1 L659.0,384.2 L659.8,382.8 L660.6,380.4 L661.5,381.4 L662.3,384.5 L663.2,385.8 L664.0,382.1 L664.9,397.0 L665.7,399.0 L666.5,396.7 L667.4,394.6 L668.2,399.0 L669.1,404.4 L669.9,403.4 L670.7,401.7 L671.6,398.0 L672.4,399.7 L673.3,396.0 L674.1,410.5 L675.0,407.5 L675.8,407.5 L676.6,400.0 L677.5,387.9 L678.3,375.4 L679.2,349.0 L680.0,327.0" stroke="#1f77b4" stroke-width="2" fill="none" opacity="0.8"/>
<!-- Hydro Generation -->
<path d="M80.0,361.8 L80.8,361.8 L81.7,361.8 L82.5,362.2 L83.4,362.2 L84.2,361.8 L85.0,361.8 L85.9,361.5 L86.7,361.2 L87.6,361.5 L88.4,361.5 L89.3,362.8 L90.1,362.8 L90.9,363.2 L91.8,362.8 L92.6,362.8 L93.5,362.8 L94.3,362.8 L95.1,362.5 L96.0,362.8 L96.8,362.5 L97.7,363.2 L98.5,362.8 L99.4,362.8 L101.0,363.2 L101.9,362.8 L102.7,362.5 L103.6,363.2 L104.4,363.2 L105.2,363.2 L106.1,363.2 L106.9,363.2 L107.8,363.5 L108.6,362.2 L109.5,362.2 L110.3,361.2 L111.1,361.2 L112.0,362.8 L112.8,362.8 L113.7,362.8 L114.5,362.8 L115.3,362.8 L116.2,362.8 L117.0,362.8 L117.9,362.8 L118.7,363.2 L119.6,363.2 L120.4,362.8 L121.2,363.2 L122.1,363.2 L122.9,362.8 L123.8,362.5 L124.6,363.2 L125.4,362.5 L126.3,362.8 L127.1,362.8 L128.0,362.8 L128.8,362.2 L129.6,361.2 L130.5,361.2 L131.3,361.2 L132.2,361.5 L133.0,361.2 L133.9,360.8 L134.7,361.8 L135.5,361.8 L136.4,362.2 L137.2,361.8 L138.1,362.2 L138.9,362.2 L139.7,362.5 L140.6,362.2 L141.4,362.5 L142.3,363.2 L143.1,363.5 L144.0,363.5 L144.8,363.5 L145.6,363.2 L146.5,362.8 L147.3,363.2 L148.2,363.5 L149.0,363.2 L149.8,363.2 L150.7,363.2 L151.5,363.5 L152.4,363.5 L153.2,363.5 L154.1,363.2 L154.9,363.2 L155.7,363.2 L156.6,363.2 L157.4,363.5 L158.3,363.2 L159.1,363.5 L159.9,363.2 L160.8,363.5 L161.6,363.5 L162.5,363.2 L163.3,363.2 L164.2,363.2 L165.0,363.5 L165.8,363.2 L166.7,363.2 L167.5,363.2 L168.4,363.5 L169.2,362.2 L170.0,361.8 L170.9,359.1 L171.7,361.8 L172.6,363.2 L173.4,363.2 L174.2,364.5 L175.1,364.2 L175.9,364.2 L176.8,363.5 L177.6,363.2 L178.5,363.5 L179.3,363.2 L180.1,363.2 L181.0,363.5 L181.8,363.5 L182.7,363.2 L183.5,363.2 L184.3,362.8 L185.2,362.8 L186.0,363.2 L186.9,362.8 L187.7,363.2 L188.6,363.2 L189.4,363.2 L190.2,363.5 L191.1,363.5 L191.9,363.5 L192.8,363.5 L193.6,363.2 L194.4,363.2 L195.3,363.5 L196.1,363.2 L197.0,363.2 L197.8,362.8 L198.7,363.5 L199.5,363.2 L200.3,362.8 L201.2,362.8 L202.0,362.8 L202.9,362.8 L203.7,363.2 L204.5,362.8 L205.4,360.1 L206.2,363.2 L207.1,363.5 L207.9,362.8 L208.8,363.2 L209.6,363.5 L210.4,363.2 L211.3,363.2 L212.1,363.5 L213.0,363.2 L213.8,363.2 L214.6,363.2 L215.5,363.2 L216.3,366.2 L217.2,362.8 L218.0,362.8 L218.8,362.5 L219.7,362.5 L220.5,362.2 L221.4,362.5 L222.2,362.8 L223.1,362.8 L223.9,361.8 L224.7,362.5 L225.6,362.2 L226.4,362.2 L227.3,362.2 L228.1,362.2 L228.9,361.8 L229.8,362.2 L230.6,362.5 L231.5,362.2 L232.3,362.2 L233.2,361.8 L234.0,362.2 L234.8,362.2 L235.7,361.8 L236.5,362.2 L237.4,362.8 L238.2,362.2 L239.0,361.8 L239.9,361.8 L240.7,361.2 L244.1,360.8 L244.9,360.5 L245.8,360.1 L246.6,360.5 L247.5,360.1 L248.3,359.8 L249.1,359.8 L250.0,360.1 L250.8,360.1 L251.7,360.5 L252.5,360.1 L253.4,360.1 L254.2,360.1 L255.0,360.1 L255.9,360.5 L256.7,360.1 L257.6,361.2 L258.4,360.5 L259.2,360.8 L260.1,360.8 L260.9,361.5 L261.8,362.2 L262.6,362.2 L263.5,361.8 L264.3,362.2 L265.1,361.8 L266.0,361.5 L266.8,362.2 L267.7,361.5 L268.5,361.8 L269.3,361.8 L270.2,361.8 L271.0,362.2 L271.9,361.8 L272.7,361.8 L273.5,361.5 L274.4,361.5 L275.2,361.5 L276.1,361.8 L276.9,361.5 L277.8,361.2 L278.6,361.2 L279.4,361.8 L280.3,361.2 L281.1,361.5 L282.0,361.8 L282.8,360.5 L283.6,360.5 L284.5,360.5 L285.3,360.1 L286.2,360.1 L287.0,359.8 L287.9,359.8 L288.7,360.5 L289.5,360.5 L290.4,360.8 L291.2,360.8 L292.1,360.8 L292.9,360.8 L293.7,360.5 L294.6,360.5 L295.4,360.5 L296.3,360.5 L297.1,360.5 L298.0,360.5 L298.8,360.1 L299.6,360.5 L300.5,360.8 L301.3,360.5 L302.2,360.5 L303.0,360.8 L303.8,360.8 L304.7,361.2 L305.5,361.2 L306.4,360.8 L307.2,361.2 L308.1,361.5 L308.9,361.8 L309.7,361.2 L310.6,361.5 L311.4,361.5 L312.3,361.5 L313.1,361.5 L313.9,361.5 L314.8,360.8 L315.6,361.2 L316.5,361.2 L317.3,360.8 L318.1,360.8 L319.0,360.8 L319.8,360.8 L320.7,359.5 L321.5,359.1 L322.4,358.1 L323.2,358.1 L324.0,358.5 L324.9,358.5 L325.7,358.5 L326.6,358.8 L327.4,359.8 L328.2,360.8 L329.1,360.8 L329.9,360.5 L330.8,360.1 L331.6,360.1 L332.5,360.1 L333.3,360.1 L334.1,360.5 L335.0,360.8 L335.8,360.1 L336.7,359.8 L337.5,359.5 L338.3,359.5 L339.2,359.5 L340.0,359.8 L340.9,358.8 L341.7,358.5 L342.6,358.5 L343.4,359.1 L344.2,358.8 L345.1,358.8 L345.9,358.5 L346.8,358.8 L347.6,358.8 L348.4,358.5 L349.3,359.1 L350.1,358.8 L351.0,359.5 L351.8,359.1 L352.7,359.1 L353.5,359.8 L354.3,360.1 L355.2,359.8 L356.0,359.8 L356.9,359.5 L357.7,360.1 L358.5,359.8 L359.4,360.5 L360.2,360.1 L361.1,360.5 L361.9,360.5 L362.7,359.8 L363.6,359.8 L364.4,359.5 L365.3,359.1 L366.1,359.1 L367.0,358.5 L367.8,358.5 L368.6,357.8 L369.5,358.5 L370.3,358.1 L371.2,358.1 L372.0,358.5 L372.8,358.8 L373.7,358.5 L374.5,358.5 L375.4,358.8 L376.2,359.5 L377.1,359.1 L377.9,359.5 L378.7,359.5 L379.6,359.5 L380.4,359.8 L381.3,359.8 L382.1,360.1 L382.9,360.1 L383.8,358.8 L384.6,358.8 L385.5,358.1 L386.3,360.1 L387.2,359.1 L388.0,359.8 L388.8,354.1 L389.7,354.4 L390.5,354.4 L391.4,355.1 L392.2,355.1 L393.0,356.1 L393.9,355.7 L394.7,356.1 L395.6,356.1 L396.4,355.4 L397.3,355.7 L398.1,355.7 L398.9,356.1 L399.8,355.4 L400.6,355.4 L401.5,355.7 L402.3,355.4 L403.1,356.1 L404.0,354.7 L404.8,354.7 L405.7,354.4 L406.5,353.4 L407.3,354.1 L408.2,353.7 L409.0,354.4 L409.9,354.4 L410.7,354.4 L411.6,354.7 L412.4,354.7 L413.2,354.7 L414.1,354.4 L414.9,354.7 L415.8,355.4 L416.6,355.1 L417.4,355.1 L418.3,354.1 L419.1,354.1 L420.0,354.4 L420.8,353.7 L421.7,354.1 L422.5,353.7 L423.3,354.1 L424.2,353.7 L425.0,353.7 L425.9,353.7 L426.7,353.7 L427.5,354.1 L428.4,354.1 L429.2,353.7 L430.1,354.1 L430.9,354.4 L431.8,354.7 L432.6,354.7 L433.4,354.4 L434.3,354.7 L435.1,355.1 L436.0,354.1 L436.8,355.4 L437.6,355.1 L438.5,355.4 L439.3,355.7 L440.2,355.7 L441.0,355.7 L441.9,355.7 L442.7,355.4 L443.5,355.7 L444.4,355.4 L445.2,355.4 L446.1,355.1 L446.9,355.7 L447.7,355.4 L448.6,354.4 L449.4,354.7 L450.3,355.4 L451.1,354.7 L451.9,355.1 L452.8,354.7 L453.6,354.7 L454.5,354.7 L455.3,354.4 L456.2,354.7 L457.0,354.7 L457.8,354.7 L458.7,354.4 L459.5,354.7 L460.4,354.4 L461.2,354.7 L462.0,354.4 L462.9,354.7 L463.7,354.4 L464.6,354.4 L465.4,354.4 L466.3,354.1 L467.1,354.1 L467.9,354.4 L468.8,354.4 L469.6,354.7 L470.5,354.4 L471.3,354.7 L472.1,355.1 L473.0,355.1 L473.8,355.4 L474.7,355.1 L475.5,355.1 L476.4,355.4 L477.2,354.7 L478.0,354.4 L478.9,354.1 L479.7,354.4 L480.6,354.4 L481.4,354.7 L482.2,354.7 L483.1,354.4 L483.9,355.1 L484.8,354.4 L485.6,355.1 L486.5,354.7 L487.3,355.1 L488.1,355.1 L489.0,354.7 L489.8,354.7 L490.7,354.1 L491.5,353.0 L492.3,353.4 L493.2,352.7 L494.0,353.0 L494.9,353.0 L495.7,351.7 L496.5,352.4 L497.4,351.7 L498.2,352.0 L499.1,352.0 L499.9,352.0 L500.8,351.3 L501.6,351.3 L502.4,351.7 L503.3,351.0 L504.1,351.0 L505.0,352.0 L505.8,352.0 L506.6,352.0 L507.5,351.3 L508.3,353.0 L509.2,354.4 L510.0,354.4 L510.9,354.7 L511.7,354.4 L512.5,354.7 L513.4,354.4 L514.2,354.4 L515.1,354.4 L515.9,354.4 L516.7,354.4 L517.6,354.4 L518.4,354.4 L519.3,354.7 L520.1,354.7 L521.0,354.1 L521.8,354.4 L522.6,354.4 L523.5,354.4 L524.3,354.1 L525.2,353.7 L526.0,352.7 L526.8,352.7 L527.7,353.0 L528.5,351.7 L529.4,351.7 L530.2,352.0 L531.1,352.0 L531.9,352.0 L532.7,351.7 L533.6,351.3 L534.4,351.0 L535.3,350.7 L536.1,350.7 L536.9,351.0 L537.8,350.7 L538.6,350.0 L539.5,350.0 L540.3,350.3 L541.2,350.7 L542.0,350.3 L542.8,350.3 L543.7,350.3 L544.5,349.7 L545.4,350.7 L546.2,350.0 L547.0,344.9 L547.9,348.3 L548.7,350.3 L549.6,350.3 L550.4,350.7 L551.2,351.3 L552.1,351.0 L552.9,351.0 L553.8,351.7 L554.6,351.3 L555.5,351.0 L556.3,350.0 L557.1,349.3 L558.0,349.7 L558.8,350.0 L559.7,350.0 L560.5,349.7 L561.3,350.3 L562.2,351.7 L563.0,352.0 L563.9,351.7 L564.7,353.0 L565.6,352.0 L566.4,351.7 L567.2,351.7 L568.1,352.4 L568.9,352.0 L569.8,352.7 L570.6,352.7 L571.4,352.7 L572.3,353.0 L573.1,352.7 L574.0,352.7 L574.8,353.0 L575.7,352.4 L576.5,351.7 L577.3,351.3 L578.2,351.3 L579.0,351.7 L579.9,351.7 L580.7,351.3 L581.5,351.7 L582.4,352.4 L583.2,352.4 L584.1,352.4 L584.9,352.4 L585.8,351.7 L586.6,351.7 L587.4,352.0 L588.3,352.0 L589.1,352.4 L590.0,351.7 L590.8,351.3 L591.6,351.7 L592.5,351.7 L593.3,351.7 L594.2,351.3 L595.0,351.3 L595.8,351.3 L596.7,351.3 L597.5,351.3 L598.4,351.0 L599.2,351.0 L600.1,351.0 L600.9,351.3 L601.7,351.0 L602.6,350.7 L603.4,351.3 L604.3,351.7 L605.1,351.7 L605.9,352.0 L606.8,351.3 L607.6,351.7 L608.5,352.0 L609.3,352.4 L610.2,352.0 L611.0,353.4 L611.8,353.7 L612.7,354.7 L613.5,355.1 L614.4,355.7 L615.2,356.8 L616.0,356.4 L616.9,356.4 L617.7,356.4 L618.6,356.1 L619.4,355.7 L620.3,355.4 L621.1,354.7 L621.9,355.1 L622.8,355.4 L623.6,354.4 L624.5,353.4 L625.3,353.4 L626.1,354.1 L627.0,354.1 L627.8,354.1 L628.7,354.1 L629.5,356.4 L630.4,352.7 L631.2,352.4 L632.0,353.0 L632.9,353.4 L633.7,352.4 L634.6,352.7 L635.4,352.7 L636.2,353.4 L637.1,353.4 L637.9,354.1 L638.8,353.4 L639.6,353.7 L640.4,353.7 L641.3,352.4 L642.1,351.3 L643.0,351.7 L643.8,361.8 L644.7,361.8 L645.5,362.2 L646.3,361.8 L647.2,361.5 L648.0,361.5 L648.9,361.8 L649.7,354.1 L650.5,351.7 L651.4,351.7 L652.2,352.0 L653.1,351.7 L653.9,351.7 L654.8,352.0 L655.6,351.7 L656.4,352.4 L657.3,351.7 L658.1,351.7 L659.0,352.4 L659.8,352.0 L660.6,352.4 L661.5,352.4 L662.3,352.0 L663.2,354.7 L664.0,354.4 L664.9,354.4 L665.7,353.0 L666.5,353.4 L667.4,353.0 L668.2,353.0 L669.1,353.0 L669.9,352.4 L670.7,353.4 L671.6,353.0 L672.4,353.4 L673.3,354.1 L674.1,354.4 L675.0,355.7 L675.8,356.1 L676.6,355.7 L677.5,355.4 L678.3,356.1 L679.2,354.4 L680.0,354.4" stroke="#ff7f0e" stroke-width="2" fill="none" opacity="0.8"/>
<!-- Thermal Generation -->
<path d="M80.0,318.2 L80.8,318.5 L81.7,319.6 L82.5,320.2 L83.4,320.9 L84.2,319.9 L85.0,291.8 L85.9,291.8 L86.7,287.8 L87.6,291.8 L88.4,291.8 L89.3,291.2 L90.1,291.8 L90.9,310.8 L91.8,309.4 L92.6,318.9 L93.5,318.5 L94.3,318.5 L95.1,319.2 L96.0,320.2 L96.8,290.5 L97.7,289.5 L98.5,313.5 L99.4,318.9 L101.0,322.3 L101.9,324.0 L102.7,325.3 L103.6,324.6 L104.4,325.0 L105.2,324.6 L106.1,324.6 L106.9,300.3 L107.8,296.6 L108.6,296.6 L109.5,296.6 L110.3,321.6 L111.1,320.9 L112.0,319.6 L112.8,321.6 L113.7,321.3 L114.5,323.3 L115.3,322.6 L116.2,321.3 L117.0,319.2 L117.9,317.9 L118.7,317.2 L119.6,317.9 L120.4,317.9 L121.2,317.9 L122.1,318.5 L122.9,319.6 L123.8,321.6 L124.6,321.9 L125.4,321.3 L126.3,313.1 L127.1,299.9 L128.0,311.4 L128.8,311.8 L129.6,316.2 L130.5,321.6 L131.3,322.3 L132.2,321.6 L133.0,321.3 L133.9,321.6 L134.7,321.6 L135.5,320.9 L136.4,321.3 L137.2,320.2 L138.1,320.2 L138.9,320.6 L139.7,321.3 L140.6,322.9 L141.4,323.3 L142.3,322.6 L143.1,323.3 L144.0,322.9 L144.8,321.9 L145.6,320.6 L146.5,322.3 L147.3,321.6 L148.2,322.3 L149.0,321.9 L149.8,321.6 L150.7,328.0 L151.5,330.0 L152.4,330.4 L153.2,332.4 L154.1,332.8 L154.9,332.4 L155.7,331.4 L156.6,331.1 L157.4,330.7 L158.3,330.7 L159.1,331.4 L159.9,330.4 L160.8,330.7 L161.6,330.7 L162.5,330.4 L163.3,329.4 L164.2,330.7 L165.0,331.1 L165.8,330.7 L166.7,330.0 L167.5,304.7 L168.4,314.5 L169.2,314.2 L170.0,331.7 L170.9,366.2 L171.7,365.9 L172.6,366.6 L173.4,366.6 L174.2,366.6 L175.1,365.9 L175.9,366.6 L176.8,366.2 L177.6,367.2 L178.5,367.2 L179.3,364.9 L180.1,365.6 L181.0,364.5 L181.8,355.7 L182.7,356.8 L183.5,346.3 L184.3,336.8 L185.2,337.1 L186.0,330.4 L186.9,330.0 L187.7,299.3 L188.6,329.0 L189.4,330.7 L190.2,331.7 L191.1,331.4 L191.9,331.1 L192.8,331.1 L193.6,330.0 L194.4,330.4 L195.3,330.4 L196.1,330.7 L197.0,329.7 L197.8,329.0 L198.7,329.7 L199.5,331.4 L200.3,330.4 L201.2,304.0 L202.0,304.7 L202.9,330.7 L203.7,309.4 L204.5,301.6 L205.4,300.3 L206.2,329.7 L207.1,329.0 L207.9,329.7 L208.8,329.4 L209.6,329.4 L210.4,330.0 L211.3,330.7 L212.1,330.7 L213.0,330.7 L213.8,330.0 L214.6,330.4 L215.5,330.4 L216.3,330.4 L217.2,330.0 L218.0,330.0 L218.8,330.4 L219.7,330.7 L220.5,331.7 L221.4,331.7 L222.2,330.0 L223.1,332.1 L223.9,330.7 L224.7,385.2 L225.6,384.5 L226.4,374.3 L227.3,361.2 L228.1,317.5 L228.9,300.6 L229.8,303.3 L230.6,325.3 L231.5,330.0 L232.3,330.4 L233.2,328.0 L234.0,328.4 L234.8,328.7 L235.7,329.0 L236.5,328.7 L237.4,329.0 L238.2,322.6 L239.0,329.7 L239.9,330.0 L240.7,329.4 L244.1,381.4 L244.9,371.6 L245.8,358.1 L246.6,327.7 L247.5,327.3 L248.3,291.8 L249.1,291.2 L250.0,289.5 L250.8,289.1 L251.7,289.1 L252.5,292.5 L253.4,290.8 L254.2,299.6 L255.0,315.8 L255.9,315.8 L256.7,315.8 L257.6,322.9 L258.4,290.1 L259.2,289.8 L260.1,328.7 L260.9,328.4 L261.8,307.4 L262.6,314.8 L263.5,320.2 L264.3,306.4 L265.1,308.4 L266.0,313.1 L266.8,311.1 L267.7,290.1 L268.5,286.4 L269.3,286.8 L270.2,287.1 L271.0,287.8 L271.9,291.8 L272.7,299.9 L273.5,285.7 L274.4,291.5 L275.2,315.2 L276.1,318.2 L276.9,309.4 L277.8,302.7 L278.6,286.4 L279.4,293.5 L280.3,303.7 L281.1,302.7 L282.0,314.8 L282.8,296.9 L283.6,307.0 L284.5,325.0 L285.3,327.7 L286.2,328.4 L287.0,320.9 L287.9,327.3 L288.7,286.8 L289.5,304.0 L290.4,321.9 L291.2,312.5 L292.1,309.1 L292.9,316.2 L293.7,317.5 L294.6,296.2 L295.4,296.6 L296.3,315.8 L297.1,313.5 L298.0,315.5 L298.8,305.7 L299.6,301.0 L300.5,330.4 L301.3,298.3 L302.2,311.4 L303.0,316.2 L303.8,297.6 L304.7,308.1 L305.5,306.4 L306.4,303.7 L307.2,296.9 L308.1,295.2 L308.9,293.9 L309.7,294.2 L310.6,297.2 L311.4,303.0 L312.3,311.4 L313.1,292.8 L313.9,291.8 L314.8,314.2 L315.6,314.5 L316.5,294.2 L317.3,310.8 L318.1,292.8 L319.0,284.4 L319.8,287.4 L320.7,283.4 L321.5,328.0 L322.4,330.0 L323.2,323.3 L324.0,316.5 L324.9,325.0 L325.7,328.7 L326.6,313.5 L327.4,288.1 L328.2,281.3 L329.1,283.4 L329.9,285.7 L330.8,283.4 L331.6,282.0 L332.5,282.4 L333.3,286.4 L334.1,283.0 L335.0,287.8 L335.8,286.1 L336.7,285.7 L337.5,291.5 L338.3,283.4 L339.2,284.1 L340.0,283.4 L340.9,301.3 L341.7,331.4 L342.6,330.4 L343.4,331.7 L344.2,330.4 L345.1,331.7 L345.9,331.7 L346.8,331.7 L347.6,312.1 L348.4,291.2 L349.3,282.4 L350.1,282.4 L351.0,283.0 L351.8,286.8 L352.7,282.4 L353.5,283.0 L354.3,281.3 L355.2,282.4 L356.0,297.6 L356.9,302.3 L357.7,298.3 L358.5,280.3 L359.4,283.0 L360.2,280.0 L361.1,310.4 L361.9,325.3 L362.7,328.7 L363.6,328.4 L364.4,329.7 L365.3,329.0 L366.1,329.4 L367.0,329.0 L367.8,326.0 L368.6,281.0 L369.5,280.0 L370.3,280.0 L371.2,280.0 L372.0,280.0 L372.8,287.1 L373.7,307.0 L374.5,315.2 L375.4,316.2 L376.2,322.9 L377.1,326.3 L377.9,316.5 L378.7,310.1 L379.6,294.2 L380.4,291.5 L381.3,314.5 L382.1,322.6 L382.9,327.0 L383.8,327.3 L384.6,352.0 L385.5,352.7 L386.3,345.6 L387.2,330.0 L388.0,330.0 L388.8,321.3 L389.7,282.7 L390.5,281.3 L391.4,281.3 L392.2,283.4 L393.0,282.7 L393.9,282.7 L394.7,283.7 L395.6,329.4 L396.4,327.7 L397.3,327.7 L398.1,321.3 L398.9,318.2 L399.8,314.8 L400.6,285.7 L401.5,303.0 L402.3,327.7 L403.1,317.9 L404.0,316.5 L404.8,307.0 L405.7,307.4 L406.5,282.0 L407.3,295.9 L408.2,313.5 L409.0,300.3 L409.9,298.6 L410.7,302.0 L411.6,299.9 L412.4,303.0 L413.2,284.7 L414.1,282.0 L414.9,282.7 L415.8,282.7 L416.6,309.8 L417.4,303.7 L418.3,297.2 L419.1,291.5 L420.0,296.2 L420.8,285.1 L421.7,290.8 L422.5,286.4 L423.3,285.1 L424.2,284.1 L425.0,284.4 L425.9,284.7 L426.7,301.0 L427.5,315.2 L428.4,306.0 L429.2,285.7 L430.1,286.1 L430.9,288.4 L431.8,290.5 L432.6,310.8 L433.4,314.5 L434.3,317.9 L435.1,319.9 L436.0,320.2 L436.8,313.8 L437.6,313.5 L438.5,315.8 L439.3,316.2 L440.2,316.5 L441.0,287.8 L441.9,307.7 L442.7,304.0 L443.5,319.6 L444.4,315.5 L445.2,322.6 L446.1,340.9 L446.9,325.0 L447.7,324.6 L448.6,322.9 L449.4,329.4 L450.3,292.5 L451.1,304.7 L451.9,310.8 L452.8,333.8 L453.6,343.6 L454.5,339.2 L455.3,342.6 L456.2,339.2 L457.0,339.2 L457.8,338.5 L458.7,342.2 L459.5,341.2 L460.4,337.8 L461.2,352.0 L462.0,365.2 L462.9,374.3 L463.7,363.2 L464.6,335.1 L465.4,334.8 L466.3,356.1 L467.1,352.4 L467.9,335.1 L468.8,303.3 L469.6,311.1 L470.5,294.5 L471.3,295.2 L472.1,295.6 L473.0,295.2 L473.8,296.2 L474.7,295.2 L475.5,295.2 L476.4,297.6 L477.2,312.8 L478.0,311.8 L478.9,311.8 L479.7,295.6 L480.6,295.9 L481.4,296.2 L482.2,318.2 L483.1,326.3 L483.9,327.0 L484.8,325.6 L485.6,329.0 L486.5,328.0 L487.3,324.3 L488.1,324.3 L489.0,324.3 L489.8,310.4 L490.7,312.8 L491.5,314.2 L492.3,325.6 L493.2,329.4 L494.0,326.0 L494.9,325.3 L495.7,328.7 L496.5,329.0 L497.4,329.4 L498.2,329.7 L499.1,329.4 L499.9,331.7 L500.8,331.4 L501.6,328.0 L502.4,330.4 L503.3,326.7 L504.1,329.0 L505.0,328.0 L505.8,325.3 L506.6,323.6 L507.5,324.0 L508.3,323.6 L509.2,320.2 L510.0,317.2 L510.9,316.5 L511.7,319.2 L512.5,311.1 L513.4,317.9 L514.2,318.5 L515.1,301.6 L515.9,284.1 L516.7,283.4 L517.6,283.4 L518.4,283.7 L519.3,283.7 L520.1,283.0 L521.0,285.1 L521.8,282.4 L522.6,354.4 L523.5,355.1 L524.3,354.1 L525.2,353.7 L526.0,353.7 L526.8,354.1 L527.7,354.4 L528.5,354.7 L529.4,354.4 L530.2,328.0 L531.1,328.0 L531.9,327.7 L532.7,283.7 L533.6,281.7 L534.4,281.3 L535.3,281.3 L536.1,280.0 L536.9,285.1 L537.8,281.0 L538.6,285.4 L539.5,282.0 L540.3,282.0 L541.2,284.7 L542.0,289.1 L542.8,331.1 L543.7,337.8 L544.5,332.4 L545.4,335.5 L546.2,329.7 L547.0,329.4 L547.9,329.4 L548.7,331.1 L549.6,333.4 L550.4,324.3 L551.2,282.4 L552.1,295.2 L552.9,322.9 L553.8,324.3 L554.6,326.7 L555.5,327.7 L556.3,331.4 L557.1,354.7 L558.0,355.1 L558.8,354.7 L559.7,347.3 L560.5,335.8 L561.3,287.8 L562.2,289.1 L563.0,345.3 L563.9,352.0 L564.7,348.3 L565.6,351.3 L566.4,356.1 L567.2,355.4 L568.1,353.4 L568.9,352.0 L569.8,354.4 L570.6,327.0 L571.4,288.1 L572.3,300.3 L573.1,327.3 L574.0,328.0 L574.8,327.7 L575.7,289.8 L576.5,291.5 L577.3,291.5 L578.2,290.8 L579.0,290.5 L579.9,289.8 L580.7,289.1 L581.5,285.4 L582.4,283.4 L583.2,286.8 L584.1,287.1 L584.9,321.3 L585.8,322.3 L586.6,356.1 L587.4,362.2 L588.3,379.4 L589.1,380.4 L590.0,352.4 L590.8,290.8 L591.6,296.6 L592.5,297.2 L593.3,293.9 L594.2,292.2 L595.0,292.5 L595.8,292.2 L596.7,289.8 L597.5,289.8 L598.4,286.1 L599.2,283.7 L600.1,286.8 L600.9,282.7 L601.7,286.4 L602.6,286.1 L603.4,293.5 L604.3,304.3 L605.1,304.7 L605.9,305.0 L606.8,310.8 L607.6,309.4 L608.5,329.7 L609.3,346.3 L610.2,327.0 L611.0,296.9 L611.8,284.1 L612.7,284.7 L613.5,284.7 L614.4,291.8 L615.2,319.6 L616.0,325.0 L616.9,325.3 L617.7,334.8 L618.6,335.8 L619.4,356.1 L620.3,343.9 L621.1,324.0 L621.9,284.4 L622.8,283.7 L623.6,280.3 L624.5,309.4 L625.3,305.7 L626.1,316.9 L627.0,320.9 L627.8,318.5 L628.7,320.6 L629.5,317.9 L630.4,326.7 L631.2,299.3 L632.0,281.3 L632.9,282.4 L633.7,283.4 L634.6,284.1 L635.4,281.7 L636.2,298.6 L637.1,336.8 L637.9,360.1 L638.8,360.5 L639.6,357.1 L640.4,350.7 L641.3,318.5 L642.1,282.7 L643.0,286.4 L643.8,305.7 L644.7,316.9 L645.5,322.9 L646.3,328.7 L647.2,330.4 L648.0,344.2 L648.9,341.2 L649.7,343.9 L650.5,339.9 L651.4,280.3 L652.2,283.0 L653.1,282.7 L653.9,283.4 L654.8,281.3 L655.6,281.7 L656.4,282.4 L657.3,282.0 L658.1,282.4 L659.0,282.7 L659.8,283.0 L660.6,283.0 L661.5,282.7 L662.3,285.4 L663.2,283.7 L664.0,299.3 L664.9,289.8 L665.7,285.7 L666.5,295.9 L667.4,288.4 L668.2,291.2 L669.1,282.7 L669.9,279.0 L670.7,313.5 L671.6,278.6 L672.4,280.0 L673.3,280.3 L674.1,277.6 L675.0,274.2 L675.8,276.6 L676.6,277.0 L677.5,277.0 L678.3,280.3 L679.2,271.9 L680.0,277.3" stroke="#2ca02c" stroke-width="2" fill="none" opacity="0.8"/>
<!-- Solar Generation -->
<path d="M80.0,373.0 L80.8,374.0 L81.7,375.4 L82.5,375.4 L83.4,373.7 L84.2,372.7 L85.0,373.3 L85.9,386.2 L86.7,414.3 L87.6,420.0 L88.4,420.0 L89.3,420.0 L90.1,420.0 L90.9,420.0 L91.8,420.0 L92.6,420.0 L93.5,420.0 L94.3,420.0 L95.1,420.0 L96.0,420.0 L96.8,420.0 L97.7,414.3 L98.5,384.5 L99.4,372.3 L100.2,420.0 L101.0,374.0 L101.9,375.7 L102.7,375.7 L103.6,374.0 L104.4,372.7 L105.2,373.3 L106.1,386.9 L106.9,414.9 L107.8,420.0 L108.6,420.0 L109.5,420.0 L110.3,420.0 L111.1,420.0 L112.0,420.0 L112.8,420.0 L113.7,420.0 L114.5,420.0 L115.3,420.0 L116.2,420.0 L117.0,420.0 L117.9,414.9 L118.7,385.5 L119.6,373.3 L120.4,373.3 L121.2,375.4 L122.1,376.7 L122.9,376.7 L123.8,375.0 L124.6,373.3 L125.4,374.0 L126.3,389.2 L127.1,415.6 L128.0,420.0 L128.8,420.0 L129.6,420.0 L130.5,420.0 L131.3,420.0 L132.2,420.0 L133.0,420.0 L133.9,420.0 L134.7,420.0 L135.5,420.0 L136.4,420.0 L137.2,420.0 L138.1,419.0 L138.9,388.5 L139.7,375.0 L140.6,374.0 L141.4,375.7 L142.3,378.1 L143.1,377.1 L144.0,376.4 L144.8,379.1 L145.6,384.2 L146.5,400.0 L147.3,418.0 L148.2,420.0 L149.0,420.0 L149.8,420.0 L150.7,420.0 L151.5,420.0 L152.4,420.0 L153.2,420.0 L154.1,420.0 L154.9,420.0 L155.7,420.0 L156.6,420.0 L157.4,420.0 L158.3,416.3 L159.1,389.6 L159.9,374.3 L160.8,373.7 L161.6,376.0 L162.5,377.1 L163.3,377.4 L164.2,375.4 L165.0,374.0 L165.8,375.4 L166.7,391.9 L167.5,417.0 L168.4,420.0 L169.2,420.0 L170.0,420.0 L170.9,420.0 L171.7,420.0 L172.6,420.0 L173.4,420.0 L174.2,420.0 L175.1,420.0 L175.9,420.0 L176.8,420.0 L177.6,420.0 L178.5,415.9 L179.3,391.3 L180.1,375.0 L181.0,374.3 L181.8,378.4 L182.7,378.7 L183.5,377.1 L184.3,377.4 L185.2,407.8 L186.0,373.7 L186.9,409.2 L187.7,415.3 L188.6,420.0 L189.4,420.0 L190.2,420.0 L191.1,420.0 L191.9,420.0 L192.8,420.0 L193.6,420.0 L194.4,420.0 L195.3,420.0 L196.1,420.0 L197.0,420.0 L197.8,420.0 L198.7,419.0 L199.5,409.9 L200.3,387.2 L201.2,381.8 L202.0,378.1 L202.9,379.8 L203.7,377.7 L204.5,395.3 L205.4,398.0 L206.2,399.0 L207.1,416.3 L207.9,418.6 L208.8,420.0 L209.6,420.0 L210.4,420.0 L211.3,420.0 L212.1,420.0 L213.0,420.0 L213.8,420.0 L214.6,420.0 L215.5,420.0 L216.3,420.0 L217.2,420.0 L218.0,420.0 L218.8,418.0 L219.7,415.6 L220.5,398.0 L221.4,377.7 L222.2,380.1 L223.1,383.8 L223.9,380.1 L224.7,385.2 L225.6,399.7 L226.4,414.9 L227.3,411.2 L228.1,419.7 L228.9,420.0 L229.8,420.0 L230.6,420.0 L231.5,420.0 L232.3,420.0 L233.2,420.0 L234.0,420.0 L234.8,420.0 L235.7,420.0 L236.5,420.0 L237.4,420.0 L238.2,420.0 L239.0,419.3 L239.9,401.1 L240.7,409.2 L241.6,420.0 L242.4,420.0 L243.3,420.0 L244.1,394.0 L244.9,381.1 L245.8,381.1 L246.6,400.7 L247.5,407.8 L248.3,419.3 L249.1,420.0 L250.0,420.0 L250.8,420.0 L251.7,420.0 L252.5,420.0 L253.4,420.0 L254.2,420.0 L255.0,420.0 L255.9,420.0 L256.7,420.0 L257.6,420.0 L258.4,420.0 L259.2,418.0 L260.1,402.8 L260.9,398.4 L261.8,404.8 L262.6,407.8 L263.5,410.5 L264.3,397.3 L265.1,395.7 L266.0,414.9 L266.8,405.1 L267.7,402.8 L268.5,419.7 L269.3,420.0 L270.2,420.0 L271.0,420.0 L271.9,420.0 L272.7,420.0 L273.5,420.0 L274.4,420.0 L275.2,420.0 L276.1,420.0 L276.9,420.0 L277.8,420.0 L278.6,420.0 L279.4,418.6 L280.3,411.9 L281.1,407.8 L282.0,399.4 L282.8,396.0 L283.6,389.2 L284.5,383.5 L285.3,397.3 L286.2,408.2 L287.0,416.6 L287.9,416.6 L288.7,419.7 L289.5,420.0 L290.4,420.0 L291.2,420.0 L292.1,420.0 L292.9,420.0 L293.7,420.0 L294.6,420.0 L295.4,420.0 L296.3,420.0 L297.1,420.0 L298.0,420.0 L298.8,420.0 L299.6,420.0 L300.5,418.3 L301.3,415.6 L302.2,411.5 L303.0,412.6 L303.8,406.1 L304.7,406.1 L305.5,407.8 L306.4,408.2 L307.2,416.3 L308.1,418.6 L308.9,419.7 L309.7,420.0 L310.6,420.0 L311.4,420.0 L312.3,420.0 L313.1,420.0 L313.9,420.0 L314.8,420.0 L315.6,420.0 L316.5,420.0 L317.3,420.0 L318.1,420.0 L319.0,420.0 L319.8,420.0 L320.7,418.3 L321.5,417.0 L322.4,405.8 L323.2,407.8 L324.0,403.4 L324.9,402.1 L325.7,405.8 L326.6,409.5 L327.4,410.2 L328.2,415.3 L329.1,419.7 L329.9,420.0 L330.8,420.0 L331.6,420.0 L332.5,420.0 L333.3,420.0 L334.1,420.0 L335.0,420.0 L335.8,420.0 L336.7,420.0 L337.5,420.0 L338.3,420.0 L339.2,420.0 L340.0,418.3 L340.9,392.3 L341.7,374.3 L342.6,373.7 L343.4,377.7 L344.2,378.4 L345.1,377.1 L345.9,374.7 L346.8,373.0 L347.6,374.3 L348.4,398.0 L349.3,419.3 L350.1,420.0 L351.0,420.0 L351.8,420.0 L352.7,420.0 L353.5,420.0 L354.3,420.0 L355.2,420.0 L356.0,420.0 L356.9,420.0 L357.7,420.0 L358.5,420.0 L359.4,420.0 L360.2,418.3 L361.1,392.9 L361.9,374.7 L362.7,374.7 L363.6,377.4 L364.4,379.4 L365.3,379.1 L366.1,376.7 L367.0,374.7 L367.8,376.4 L368.6,400.0 L369.5,419.7 L370.3,420.0 L371.2,420.0 L372.0,420.0 L372.8,420.0 L373.7,420.0 L374.5,420.0 L375.4,420.0 L376.2,420.0 L377.1,420.0 L377.9,420.0 L378.7,420.0 L379.6,420.0 L380.4,419.0 L381.3,394.0 L382.1,375.4 L382.9,375.4 L383.8,377.4 L384.6,379.8 L385.5,379.1 L386.3,376.7 L387.2,374.7 L388.0,376.7 L388.8,400.7 L389.7,419.7 L390.5,420.0 L391.4,420.0 L392.2,420.0 L393.0,420.0 L393.9,420.0 L394.7,420.0 L395.6,420.0 L396.4,420.0 L397.3,420.0 L398.1,420.0 L398.9,420.0 L399.8,420.0 L400.6,419.3 L401.5,395.3 L402.3,375.7 L403.1,376.4 L404.0,378.7 L404.8,388.5 L405.7,379.8 L406.5,377.1 L407.3,375.0 L408.2,377.4 L409.0,402.1 L409.9,419.7 L410.7,420.0 L411.6,420.0 L412.4,420.0 L413.2,420.0 L414.1,420.0 L414.9,420.0 L415.8,420.0 L416.6,420.0 L417.4,420.0 L418.3,420.0 L419.1,420.0 L420.0,420.0 L420.8,419.0 L421.7,410.9 L422.5,408.8 L423.3,391.9 L424.2,390.6 L425.0,390.6 L425.9,388.5 L426.7,395.0 L427.5,383.8 L428.4,391.3 L429.2,406.8 L430.1,420.0 L430.9,420.0 L431.8,420.0 L432.6,420.0 L433.4,420.0 L434.3,420.0 L435.1,420.0 L436.0,420.0 L436.8,420.0 L437.6,420.0 L438.5,420.0 L439.3,420.0 L440.2,420.0 L441.0,420.0 L441.9,415.9 L442.7,417.0 L443.5,413.2 L444.4,410.2 L445.2,404.1 L446.1,405.8 L446.9,410.5 L447.7,413.2 L448.6,418.6 L449.4,418.0 L450.3,420.0 L451.1,420.0 L451.9,420.0 L452.8,420.0 L453.6,420.0 L454.5,420.0 L455.3,420.0 L456.2,420.0 L457.0,420.0 L457.8,420.0 L458.7,420.0 L459.5,420.0 L460.4,420.0 L461.2,419.7 L462.0,413.6 L462.9,411.5 L463.7,389.2 L464.6,394.0 L465.4,381.1 L466.3,403.4 L467.1,392.9 L467.9,394.3 L468.8,415.3 L469.6,418.3 L470.5,420.0 L471.3,420.0 L472.1,420.0 L473.0,420.0 L473.8,420.0 L474.7,420.0 L475.5,420.0 L476.4,420.0 L477.2,420.0 L478.0,420.0 L478.9,420.0 L479.7,420.0 L480.6,420.0 L481.4,420.0 L482.2,418.0 L483.1,416.6 L483.9,414.6 L484.8,411.9 L485.6,408.2 L486.5,403.8 L487.3,405.1 L488.1,412.2 L489.0,415.3 L489.8,417.6 L490.7,420.0 L491.5,420.0 L492.3,420.0 L493.2,420.0 L494.0,420.0 L494.9,420.0 L495.7,420.0 L496.5,420.0 L497.4,420.0 L498.2,420.0 L499.1,420.0 L499.9,420.0 L500.8,420.0 L501.6,420.0 L502.4,419.0 L503.3,417.3 L504.1,406.5 L505.0,405.8 L505.8,405.8 L506.6,403.4 L507.5,403.1 L508.3,402.1 L509.2,410.9 L510.0,418.0 L510.9,420.0 L511.7,420.0 L512.5,420.0 L513.4,420.0 L514.2,420.0 L515.1,420.0 L515.9,420.0 L516.7,420.0 L517.6,420.0 L518.4,420.0 L519.3,420.0 L520.1,420.0 L521.0,420.0 L521.8,420.0 L522.6,418.3 L523.5,415.9 L524.3,414.9 L525.2,411.5 L526.0,405.1 L526.8,410.2 L527.7,410.9 L528.5,413.6 L529.4,416.6 L530.2,418.0 L531.1,420.0 L531.9,420.0 L532.7,420.0 L533.6,420.0 L534.4,420.0 L535.3,420.0 L536.1,420.0 L536.9,420.0 L537.8,420.0 L538.6,420.0 L539.5,420.0 L540.3,420.0 L541.2,420.0 L542.0,420.0 L542.8,418.0 L543.7,413.2 L544.5,412.6 L545.4,407.1 L546.2,401.4 L547.0,409.5 L547.9,414.9 L548.7,415.3 L549.6,409.2 L550.4,409.5 L551.2,420.0 L552.1,420.0 L552.9,420.0 L553.8,420.0 L554.6,420.0 L555.5,420.0 L556.3,420.0 L557.1,420.0 L558.0,420.0 L558.8,420.0 L559.7,420.0 L560.5,420.0 L561.3,420.0 L562.2,419.7 L563.0,412.6 L563.9,412.9 L564.7,388.2 L565.6,381.8 L566.4,384.8 L567.2,402.1 L568.1,400.4 L568.9,400.0 L569.8,414.6 L570.6,416.6 L571.4,420.0 L572.3,420.0 L573.1,420.0 L574.0,420.0 L574.8,420.0 L575.7,420.0 L576.5,420.0 L577.3,420.0 L578.2,420.0 L579.0,420.0 L579.9,420.0 L580.7,420.0 L581.5,420.0 L582.4,420.0 L583.2,404.4 L584.1,378.1 L584.9,377.4 L585.8,384.2 L586.6,381.4 L587.4,380.4 L588.3,378.7 L589.1,373.7 L590.0,396.0 L590.8,411.5 L591.6,420.0 L592.5,420.0 L593.3,420.0 L594.2,420.0 L595.0,420.0 L595.8,420.0 L596.7,420.0 L597.5,420.0 L598.4,420.0 L599.2,420.0 L600.1,420.0 L600.9,420.0 L601.7,420.0 L602.6,420.0 L603.4,415.3 L604.3,393.6 L605.1,396.3 L605.9,399.4 L606.8,404.4 L607.6,411.5 L608.5,415.3 L609.3,417.3 L610.2,417.3 L611.0,419.7 L611.8,420.0 L612.7,420.0 L613.5,420.0 L614.4,420.0 L615.2,420.0 L616.0,420.0 L616.9,420.0 L617.7,420.0 L618.6,420.0 L619.4,420.0 L620.3,420.0 L621.1,420.0 L621.9,420.0 L622.8,420.0 L623.6,415.3 L624.5,412.6 L625.3,385.8 L626.1,380.8 L627.0,381.8 L627.8,396.0 L628.7,401.1 L629.5,397.3 L630.4,403.8 L631.2,412.6 L632.0,420.0 L632.9,420.0 L633.7,420.0 L634.6,420.0 L635.4,420.0 L636.2,420.0 L637.1,420.0 L637.9,420.0 L638.8,420.0 L639.6,420.0 L640.4,420.0 L641.3,420.0 L642.1,420.0 L643.0,420.0 L643.8,404.4 L644.7,400.7 L645.5,400.4 L646.3,398.0 L647.2,398.4 L648.0,381.8 L648.9,378.7 L649.7,391.9 L650.5,384.5 L651.4,413.9 L652.2,420.0 L653.1,420.0 L653.9,420.0 L654.8,420.0 L655.6,420.0 L656.4,420.0 L657.3,420.0 L658.1,420.0 L659.0,420.0 L659.8,420.0 L660.6,420.0 L661.5,420.0 L662.3,420.0 L663.2,420.0 L664.0,403.8 L664.9,378.7 L665.7,377.7 L666.5,381.4 L667.4,383.5 L668.2,382.8 L669.1,379.8 L669.9,377.4 L670.7,384.5 L671.6,413.2 L672.4,420.0 L673.3,420.0 L674.1,420.0 L675.0,420.0 L675.8,420.0 L676.6,420.0 L677.5,420.0 L678.3,420.0 L679.2,420.0 L680.0,420.0" stroke="#d62728" stroke-width="2" fill="none" opacity="0.8"/>
<!-- Forecast -->
<path d="M80.0,145.4 L80.8,144.0 L81.7,143.0 L82.5,144.7 L83.4,145.1 L84.2,139.7 L85.0,133.9 L85.9,132.2 L86.7,134.9 L87.6,134.2 L88.4,135.6 L89.3,154.9 L90.1,184.0 L90.9,206.3 L91.8,228.3 L92.6,239.4 L93.5,245.2 L94.3,247.2 L95.1,245.2 L96.0,232.0 L96.8,199.5 L97.7,164.7 L98.5,147.1 L99.4,141.3 L100.2,137.3 L101.0,134.9 L101.9,131.9 L102.7,127.5 L103.6,120.0 L104.4,113.9 L105.2,108.9 L106.1,110.2 L106.9,119.7 L107.8,124.4 L108.6,128.8 L109.5,146.8 L110.3,174.8 L111.1,202.9 L112.0,227.6 L112.8,238.4 L113.7,245.2 L114.5,247.2 L115.3,245.5 L116.2,232.6 L117.0,200.5 L117.9,166.0 L118.7,148.1 L119.6,145.7 L120.4,147.1 L121.2,141.3 L122.1,136.3 L122.9,130.9 L123.8,121.7 L124.6,114.3 L125.4,109.9 L126.3,110.6 L127.1,120.0 L128.0,124.4 L128.8,128.8 L129.6,145.4 L130.5,171.8 L131.3,209.3 L132.2,225.9 L133.0,236.7 L133.9,244.1 L134.7,246.5 L135.5,244.8 L136.4,233.3 L137.2,200.9 L138.1,166.4 L138.9,148.1 L139.7,143.4 L140.6,144.4 L141.4,143.0 L142.3,141.3 L143.1,142.7 L144.0,145.1 L144.8,140.3 L145.6,139.7 L146.5,137.3 L147.3,139.7 L148.2,138.6 L149.0,138.3 L149.8,157.9 L150.7,185.6 L151.5,216.8 L152.4,227.2 L153.2,234.7 L154.1,240.1 L154.9,242.8 L155.7,243.8 L156.6,240.1 L157.4,226.6 L158.3,211.3 L159.1,194.4 L159.9,181.2 L160.8,175.8 L161.6,174.8 L162.5,177.2 L163.3,176.2 L164.2,172.5 L165.0,165.7 L165.8,154.9 L166.7,149.1 L167.5,155.9 L168.4,161.0 L169.2,164.7 L170.0,176.5 L170.9,197.1 L171.7,217.4 L172.6,233.3 L173.4,242.8 L174.2,248.9 L175.1,251.2 L175.9,248.5 L176.8,244.5 L177.6,232.3 L178.5,219.5 L179.3,206.9 L180.1,190.0 L181.0,181.9 L181.8,180.6 L182.7,174.8 L183.5,171.4 L184.3,170.4 L185.2,159.6 L186.0,146.4 L186.9,139.0 L187.7,138.3 L188.6,136.9 L189.4,143.4 L190.2,161.3 L191.1,187.3 L191.9,206.6 L192.8,224.2 L193.6,236.4 L194.4,244.5 L195.3,246.5 L196.1,244.8 L197.0,234.0 L197.8,201.9 L198.7,168.1 L199.5,148.8 L200.3,139.0 L201.2,136.9 L202.0,136.3 L202.9,135.3 L203.7,133.9 L204.5,133.9 L205.4,128.8 L206.2,128.8 L207.1,129.8 L207.9,132.9 L208.8,131.9 L209.6,132.5 L210.4,149.5 L211.3,175.5 L212.1,207.3 L213.0,225.5 L213.8,236.7 L214.6,244.5 L215.5,246.9 L216.3,245.2 L217.2,234.3 L218.0,201.5 L218.8,168.1 L219.7,148.4 L220.5,141.7 L221.4,141.0 L222.2,142.0 L223.1,142.7 L223.9,145.1 L224.7,144.0 L225.6,143.0 L226.4,142.4 L227.3,141.3 L228.1,141.0 L228.9,138.6 L229.8,137.6 L230.6,155.9 L231.5,182.9 L232.3,232.0 L233.2,236.7 L234.0,242.1 L234.8,241.8 L235.7,238.4 L236.5,235.4 L237.4,230.3 L238.2,224.9 L239.0,190.4 L239.9,177.2 L240.7,160.3 L241.6,138.6 L242.4,124.1 L243.3,117.0 L244.1,112.9 L244.9,117.3 L245.8,124.4 L246.6,139.7 L247.5,153.2 L248.3,151.1 L249.1,167.4 L250.0,184.3 L250.8,195.1 L251.7,201.9 L252.5,218.4 L253.4,232.6 L254.2,243.5 L255.0,249.9 L255.9,251.9 L256.7,249.6 L257.6,236.7 L258.4,204.2 L259.2,167.7 L260.1,150.8 L260.9,147.8 L261.8,148.4 L262.6,149.5 L263.5,148.8 L264.3,150.8 L265.1,169.1 L266.0,174.8 L266.8,161.0 L267.7,162.3 L268.5,172.5 L269.3,184.0 L270.2,191.7 L271.0,194.8 L271.9,197.1 L272.7,218.4 L273.5,254.0 L274.4,249.6 L275.2,250.2 L276.1,252.3 L276.9,250.2 L277.8,237.4 L278.6,205.3 L279.4,168.1 L280.3,151.8 L281.1,148.1 L282.0,147.1 L282.8,146.8 L283.6,149.8 L284.5,153.2 L285.3,153.9 L286.2,154.2 L287.0,151.8 L287.9,150.5 L288.7,149.1 L289.5,145.7 L290.4,148.1 L291.2,166.4 L292.1,192.1 L292.9,216.8 L293.7,229.6 L294.6,238.4 L295.4,243.8 L296.3,246.5 L297.1,247.9 L298.0,244.1 L298.8,228.9 L299.6,208.3 L300.5,188.3 L301.3,175.8 L302.2,167.4 L303.0,166.0 L303.8,170.1 L304.7,174.5 L305.5,177.9 L306.4,180.2 L307.2,181.2 L308.1,175.2 L308.9,170.4 L309.7,165.4 L310.6,170.4 L311.4,179.9 L312.3,197.5 L313.1,208.6 L313.9,226.9 L314.8,237.7 L315.6,242.1 L316.5,244.8 L317.3,244.8 L318.1,239.8 L319.0,224.2 L319.8,201.5 L320.7,182.3 L321.5,164.7 L322.4,150.8 L323.2,150.8 L324.0,151.8 L324.9,160.3 L325.7,165.0 L326.6,168.4 L327.4,161.6 L328.2,148.8 L329.1,141.3 L329.9,136.6 L330.8,145.7 L331.6,162.3 L332.5,182.9 L333.3,207.3 L334.1,220.5 L335.0,227.9 L335.8,233.3 L336.7,233.3 L337.5,229.9 L338.3,213.4 L339.2,178.2 L340.0,141.7 L340.9,127.5 L341.7,126.1 L342.6,129.8 L343.4,133.9 L344.2,141.0 L345.1,146.8 L345.9,149.5 L346.8,151.5 L347.6,150.1 L348.4,148.8 L349.3,147.1 L350.1,140.7 L351.0,147.1 L351.8,160.6 L352.7,185.3 L353.5,214.7 L354.3,226.9 L355.2,234.3 L356.0,240.4 L356.9,240.8 L357.7,237.4 L358.5,222.5 L359.4,188.7 L360.2,154.2 L361.1,139.3 L361.9,138.6 L362.7,141.7 L363.6,146.8 L364.4,151.1 L365.3,155.5 L366.1,156.6 L367.0,157.6 L367.8,153.9 L368.6,152.2 L369.5,150.8 L370.3,147.8 L371.2,152.5 L372.0,168.7 L372.8,193.4 L373.7,220.5 L374.5,233.0 L375.4,242.8 L376.2,248.9 L377.1,249.9 L377.9,247.2 L378.7,233.3 L379.6,199.5 L380.4,165.0 L381.3,179.6 L382.1,169.4 L382.9,148.8 L383.8,139.7 L384.6,140.3 L385.5,147.4 L386.3,157.6 L387.2,168.1 L388.0,182.3 L388.8,165.7 L389.7,176.9 L390.5,200.2 L391.4,208.0 L392.2,208.3 L393.0,207.6 L393.9,231.0 L394.7,249.2 L395.6,255.3 L396.4,252.9 L397.3,248.2 L398.1,245.2 L398.9,243.1 L399.8,217.1 L400.6,201.5 L401.5,201.5 L402.3,192.4 L403.1,178.5 L404.0,171.8 L404.8,170.4 L405.7,192.1 L406.5,194.8 L407.3,186.7 L408.2,182.6 L409.0,177.9 L409.9,159.3 L410.7,168.7 L411.6,174.5 L412.4,177.5 L413.2,209.3 L414.1,241.8 L414.9,246.5 L415.8,246.5 L416.6,251.6 L417.4,256.0 L418.3,259.0 L419.1,260.7 L420.0,235.7 L420.8,219.8 L421.7,216.8 L422.5,210.0 L423.3,164.0 L424.2,152.5 L425.0,151.8 L425.9,153.5 L426.7,154.9 L427.5,149.8 L428.4,148.4 L429.2,148.4 L430.1,150.1 L430.9,147.1 L431.8,147.1 L432.6,167.4 L433.4,195.1 L434.3,221.2 L435.1,234.0 L436.0,243.1 L436.8,248.9 L437.6,251.6 L438.5,253.3 L439.3,250.6 L440.2,237.0 L441.0,218.1 L441.9,200.5 L442.7,187.0 L443.5,180.2 L444.4,178.2 L445.2,183.6 L446.1,189.4 L446.9,188.7 L447.7,188.0 L448.6,196.1 L449.4,203.6 L450.3,213.4 L451.1,224.2 L451.9,225.9 L452.8,221.5 L453.6,213.7 L454.5,221.2 L455.3,208.6 L456.2,177.5 L457.0,166.7 L457.8,164.0 L458.7,163.0 L459.5,163.0 L460.4,162.3 L461.2,160.6 L462.0,157.9 L462.9,151.8 L463.7,140.3 L464.6,132.5 L465.4,129.2 L466.3,123.4 L467.1,124.4 L467.9,129.8 L468.8,142.0 L469.6,154.9 L470.5,146.8 L471.3,158.3 L472.1,170.1 L473.0,177.5 L473.8,209.3 L474.7,230.3 L475.5,228.6 L476.4,228.9 L477.2,229.9 L478.0,231.0 L478.9,232.6 L479.7,233.3 L480.6,207.3 L481.4,164.3 L482.2,153.9 L483.1,148.1 L483.9,136.3 L484.8,155.5 L485.6,161.3 L486.5,161.3 L487.3,161.6 L488.1,162.6 L489.0,167.0 L489.8,144.4 L490.7,142.0 L491.5,148.4 L492.3,149.1 L493.2,175.8 L494.0,184.6 L494.9,226.2 L495.7,238.4 L496.5,227.6 L497.4,227.9 L498.2,231.6 L499.1,235.4 L499.9,239.1 L500.8,233.7 L501.6,189.7 L502.4,179.2 L503.3,176.2 L504.1,170.4 L505.0,156.6 L505.8,150.1 L506.6,140.7 L507.5,147.4 L508.3,148.1 L509.2,146.8 L510.0,150.8 L510.9,137.6 L511.7,128.8 L512.5,137.6 L513.4,154.2 L514.2,179.6 L515.1,365.9 L515.9,231.3 L516.7,232.3 L517.6,234.7 L518.4,236.0 L519.3,233.7 L520.1,219.8 L521.0,185.0 L521.8,146.4 L522.6,129.8 L523.5,125.8 L524.3,126.8 L525.2,129.5 L526.0,135.6 L526.8,140.3 L527.7,144.4 L528.5,143.4 L529.4,139.3 L530.2,138.0 L531.1,134.2 L531.9,144.0 L532.7,160.3 L533.6,186.7 L534.4,210.0 L535.3,214.0 L536.1,226.6 L536.9,236.4 L537.8,242.1 L538.6,244.1 L539.5,241.4 L540.3,227.6 L541.2,194.1 L542.0,154.5 L542.8,135.6 L543.7,130.2 L544.5,130.5 L545.4,132.5 L546.2,138.3 L547.0,142.7 L547.9,146.4 L548.7,148.1 L549.6,146.4 L550.4,141.7 L551.2,139.3 L552.1,134.9 L552.9,144.0 L553.8,159.9 L554.6,185.6 L555.5,211.0 L556.3,226.2 L557.1,235.7 L558.0,241.8 L558.8,244.5 L559.7,241.8 L560.5,227.6 L561.3,195.1 L562.2,157.2 L563.0,140.0 L563.9,137.6 L564.7,139.3 L565.6,141.7 L566.4,147.4 L567.2,152.2 L568.1,153.9 L568.9,154.2 L569.8,152.5 L570.6,150.5 L571.4,147.4 L572.3,141.7 L573.1,149.5 L574.0,164.0 L574.8,188.7 L575.7,217.8 L576.5,224.5 L577.3,230.6 L578.2,236.0 L579.0,237.7 L579.9,238.1 L580.7,231.3 L581.5,217.1 L582.4,194.4 L583.2,176.2 L584.1,169.1 L584.9,162.6 L585.8,163.7 L586.6,169.7 L587.4,176.5 L588.3,181.2 L589.1,184.3 L590.0,186.0 L590.8,179.6 L591.6,172.1 L592.5,167.7 L593.3,173.1 L594.2,183.3 L595.0,200.5 L595.8,216.1 L596.7,223.9 L597.5,237.7 L598.4,244.5 L599.2,248.5 L600.1,249.2 L600.9,245.2 L601.7,232.6 L602.6,214.0 L603.4,196.8 L604.3,179.2 L605.1,172.1 L605.9,170.8 L606.8,171.1 L607.6,174.8 L608.5,176.5 L609.3,176.5 L610.2,169.1 L611.0,156.6 L611.8,149.8 L612.7,145.7 L613.5,153.5 L614.4,169.7 L615.2,192.1 L616.0,205.6 L616.9,226.9 L617.7,238.1 L618.6,244.1 L619.4,245.8 L620.3,243.1 L621.1,229.3 L621.9,195.8 L622.8,156.9 L623.6,138.3 L624.5,132.2 L625.3,132.2 L626.1,133.9 L627.0,138.6 L627.8,142.4 L628.7,145.7 L629.5,147.1 L630.4,143.7 L631.2,137.3 L632.0,134.6 L632.9,129.2 L633.7,137.3 L634.6,153.5 L635.4,178.9 L636.2,242.5 L637.1,231.3 L637.9,230.6 L638.8,238.1 L639.6,239.4 L640.4,235.7 L641.3,220.8 L642.1,189.0 L643.0,184.0 L643.8,184.6 L644.7,175.8 L645.5,157.9 L646.3,145.7 L647.2,142.7 L648.0,142.0 L648.9,143.7 L649.7,147.1 L650.5,156.2 L651.4,172.8 L652.2,173.8 L653.1,198.2 L653.9,167.4 L654.8,168.7 L655.6,193.1 L656.4,216.4 L657.3,231.6 L658.1,235.7 L659.0,239.1 L659.8,240.1 L660.6,237.4 L661.5,222.5 L662.3,189.7 L663.2,151.8 L664.0,135.6 L664.9,134.9 L665.7,139.7 L666.5,145.1 L667.4,151.8 L668.2,156.9 L669.1,158.6 L669.9,159.3 L670.7,156.2 L671.6,154.2 L672.4,151.8 L673.3,153.5 L674.1,156.9 L675.0,169.1 L675.8,193.4 L676.6,217.4 L677.5,233.3 L678.3,241.8 L679.2,247.5 L680.0,248.5" stroke="#9467bd" stroke-width="2" fill="none" opacity="0.8"/>
<!-- Total Generation -->
<path d="M80.0,189.7 L80.8,194.4 L81.7,204.9 L82.5,210.0 L83.4,212.0 L84.2,211.7 L85.0,184.3 L85.9,195.1 L86.7,215.4 L87.6,217.8 L88.4,216.4 L89.3,217.4 L90.1,222.2 L90.9,236.0 L91.8,231.3 L92.6,238.1 L93.5,233.3 L94.3,226.6 L95.1,207.6 L96.0,198.2 L96.8,170.8 L97.7,147.4 L98.5,133.6 L99.4,117.7 L101.0,145.4 L101.9,151.5 L102.7,142.0 L103.6,154.2 L104.4,161.0 L105.2,161.0 L106.1,164.3 L106.9,171.4 L107.8,193.1 L108.6,214.7 L109.5,224.9 L110.3,250.6 L111.1,243.5 L112.0,230.6 L112.8,221.8 L113.7,215.4 L114.5,195.5 L115.3,202.2 L116.2,218.8 L117.0,245.2 L117.9,246.2 L118.7,220.8 L119.6,211.0 L120.4,211.7 L121.2,213.4 L122.1,211.7 L122.9,212.4 L123.8,206.3 L124.6,198.8 L125.4,193.8 L126.3,192.7 L127.1,200.5 L128.0,216.4 L128.8,226.6 L129.6,234.0 L130.5,229.3 L131.3,197.8 L132.2,172.1 L133.0,152.2 L133.9,145.1 L134.7,179.2 L135.5,162.0 L136.4,158.9 L137.2,152.8 L138.1,154.9 L138.9,119.0 L139.7,127.1 L140.6,124.1 L141.4,105.2 L142.3,123.1 L143.1,129.2 L144.0,133.6 L144.8,89.6 L145.6,109.2 L146.5,147.4 L147.3,214.0 L148.2,218.8 L149.0,217.8 L149.8,224.2 L150.7,221.2 L151.5,229.9 L152.4,209.3 L153.2,185.6 L154.1,168.4 L154.9,158.3 L155.7,155.9 L156.6,152.2 L157.4,166.7 L158.3,186.3 L159.1,171.1 L159.9,144.4 L160.8,158.3 L161.6,174.5 L162.5,200.9 L163.3,214.0 L164.2,216.8 L165.0,216.1 L165.8,220.1 L166.7,236.0 L167.5,227.2 L168.4,229.3 L169.2,230.6 L170.0,254.3 L170.9,298.6 L171.7,305.4 L172.6,304.7 L173.4,301.6 L174.2,304.7 L175.1,295.6 L175.9,290.5 L176.8,273.9 L177.6,259.7 L178.5,255.0 L179.3,232.0 L180.1,231.6 L181.0,220.8 L181.8,212.0 L182.7,209.7 L183.5,202.2 L184.3,193.4 L185.2,231.3 L186.0,185.3 L186.9,200.5 L187.7,172.1 L188.6,207.3 L189.4,218.4 L190.2,242.1 L191.1,244.1 L191.9,237.0 L192.8,251.6 L193.6,259.4 L194.4,261.7 L195.3,267.1 L196.1,267.8 L197.0,270.9 L197.8,269.8 L198.7,270.5 L199.5,263.4 L200.3,240.1 L201.2,205.3 L202.0,199.2 L202.9,226.6 L203.7,200.9 L204.5,207.6 L205.4,203.6 L206.2,237.4 L207.1,231.3 L207.9,237.0 L208.8,238.1 L209.6,246.5 L210.4,260.4 L211.3,268.5 L212.1,252.9 L213.0,261.7 L213.8,263.1 L214.6,257.0 L215.5,257.3 L216.3,265.5 L217.2,267.1 L218.0,267.1 L218.8,262.4 L219.7,253.6 L220.5,230.3 L221.4,193.8 L222.2,186.3 L223.1,148.8 L223.9,115.3 L224.7,182.3 L225.6,188.7 L226.4,188.0 L227.3,197.5 L228.1,178.9 L228.9,170.1 L229.8,185.3 L230.6,236.7 L231.5,225.9 L232.3,211.0 L233.2,213.4 L234.0,199.5 L234.8,218.8 L235.7,212.0 L236.5,214.0 L237.4,215.7 L238.2,196.1 L239.0,196.1 L239.9,180.6 L240.7,157.2 L244.1,211.0 L244.9,173.8 L245.8,175.2 L246.6,198.5 L247.5,224.2 L248.3,214.4 L249.1,223.9 L250.0,227.9 L250.8,228.3 L251.7,225.9 L252.5,220.5 L253.4,221.5 L254.2,231.6 L255.0,251.6 L255.9,237.4 L256.7,246.9 L257.6,247.2 L258.4,216.4 L259.2,211.7 L260.1,238.1 L260.9,229.3 L261.8,212.4 L262.6,232.6 L263.5,232.6 L264.3,218.1 L265.1,225.5 L266.0,249.6 L266.8,234.3 L267.7,204.6 L268.5,222.8 L269.3,209.0 L270.2,203.9 L271.0,212.7 L271.9,216.4 L272.7,231.0 L273.5,224.2 L274.4,229.3 L275.2,253.6 L276.1,254.3 L276.9,242.1 L277.8,216.8 L278.6,219.1 L279.4,218.8 L280.3,197.8 L281.1,193.1 L282.0,186.0 L282.8,172.1 L283.6,185.6 L284.5,189.4 L285.3,203.6 L286.2,216.4 L287.0,187.3 L287.9,187.7 L288.7,166.7 L289.5,181.2 L290.4,197.5 L291.2,216.1 L292.1,208.0 L292.9,224.5 L293.7,217.8 L294.6,210.7 L295.4,222.5 L296.3,238.1 L297.1,216.1 L298.0,216.1 L298.8,188.7 L299.6,188.3 L300.5,226.9 L301.3,191.1 L302.2,205.9 L303.0,209.7 L303.8,187.0 L304.7,201.5 L305.5,206.6 L306.4,219.5 L307.2,224.5 L308.1,218.4 L308.9,208.0 L309.7,209.3 L310.6,212.7 L311.4,194.8 L312.3,189.7 L313.1,164.7 L313.9,162.3 L314.8,186.0 L315.6,195.1 L316.5,173.1 L317.3,175.5 L318.1,147.4 L319.0,128.2 L319.8,138.3 L320.7,141.3 L321.5,198.5 L322.4,193.8 L323.2,193.1 L324.0,187.3 L324.9,190.7 L325.7,204.2 L326.6,202.9 L327.4,192.4 L328.2,197.8 L329.1,216.1 L329.9,223.5 L330.8,222.2 L331.6,220.8 L332.5,219.1 L333.3,220.1 L334.1,214.7 L335.0,217.4 L335.8,212.7 L336.7,210.0 L337.5,214.7 L338.3,197.5 L339.2,187.0 L340.0,175.2 L340.9,181.2 L341.7,186.3 L342.6,182.3 L343.4,163.0 L344.2,139.3 L345.1,147.8 L345.9,154.5 L346.8,157.9 L347.6,131.5 L348.4,129.2 L349.3,182.3 L350.1,198.5 L351.0,210.3 L351.8,223.2 L352.7,215.4 L353.5,217.1 L354.3,214.0 L355.2,208.0 L356.0,219.5 L356.9,223.5 L357.7,213.0 L358.5,190.0 L359.4,193.4 L360.2,186.3 L361.1,200.5 L361.9,195.5 L362.7,203.9 L363.6,210.0 L364.4,217.8 L365.3,214.0 L366.1,212.0 L367.0,205.9 L367.8,205.3 L368.6,175.5 L369.5,184.0 L370.3,179.6 L371.2,189.4 L372.0,192.7 L372.8,198.5 L373.7,220.8 L374.5,227.2 L375.4,223.9 L376.2,236.7 L377.1,244.5 L377.9,223.5 L378.7,222.8 L379.6,186.0 L380.4,176.5 L381.3,170.8 L382.1,165.7 L382.9,156.9 L383.8,158.9 L384.6,197.1 L385.5,213.4 L386.3,216.8 L387.2,211.7 L388.0,217.8 L388.8,229.6 L389.7,212.0 L390.5,207.3 L391.4,196.5 L392.2,194.4 L393.0,197.1 L393.9,195.8 L394.7,195.5 L395.6,230.3 L396.4,231.6 L397.3,234.0 L398.1,222.5 L398.9,230.3 L399.8,225.2 L400.6,168.1 L401.5,171.4 L402.3,198.5 L403.1,199.8 L404.0,201.5 L404.8,197.1 L405.7,184.0 L406.5,138.6 L407.3,144.4 L408.2,165.0 L409.0,169.1 L409.9,176.9 L410.7,172.1 L411.6,178.9 L412.4,187.0 L413.2,188.0 L414.1,201.9 L414.9,209.3 L415.8,216.4 L416.6,245.2 L417.4,239.4 L418.3,231.6 L419.1,218.8 L420.0,219.8 L420.8,216.4 L421.7,214.7 L422.5,200.2 L423.3,163.7 L424.2,175.5 L425.0,171.1 L425.9,176.2 L426.7,198.8 L427.5,180.6 L428.4,176.2 L429.2,155.2 L430.1,187.3 L430.9,192.4 L431.8,206.3 L432.6,213.0 L433.4,222.2 L434.3,225.5 L435.1,233.0 L436.0,236.7 L436.8,229.6 L437.6,230.3 L438.5,231.0 L439.3,202.2 L440.2,206.3 L441.0,197.5 L441.9,220.8 L442.7,211.0 L443.5,214.4 L444.4,189.4 L445.2,209.3 L446.1,244.8 L446.9,215.4 L447.7,210.7 L448.6,209.0 L449.4,218.1 L450.3,196.1 L451.1,144.0 L451.9,130.2 L452.8,153.9 L453.6,181.9 L454.5,192.1 L455.3,185.3 L456.2,171.1 L457.0,180.2 L457.8,172.1 L458.7,153.9 L459.5,135.6 L460.4,135.3 L461.2,152.2 L462.0,179.6 L462.9,188.7 L463.7,152.2 L464.6,136.3 L465.4,126.1 L466.3,182.9 L467.1,180.6 L467.9,179.2 L468.8,167.0 L469.6,176.5 L470.5,167.0 L471.3,177.5 L472.1,180.6 L473.0,187.7 L473.8,181.6 L474.7,182.9 L475.5,192.1 L476.4,195.5 L477.2,216.8 L478.0,225.5 L478.9,225.9 L479.7,210.7 L480.6,205.9 L481.4,203.9 L482.2,220.5 L483.1,231.0 L483.9,236.7 L484.8,238.4 L485.6,241.1 L486.5,236.4 L487.3,237.0 L488.1,244.8 L489.0,247.9 L489.8,235.7 L490.7,241.8 L491.5,242.8 L492.3,255.3 L493.2,259.4 L494.0,255.6 L494.9,256.7 L495.7,259.4 L496.5,262.1 L497.4,262.4 L498.2,263.1 L499.1,262.7 L499.9,265.1 L500.8,263.8 L501.6,260.4 L502.4,262.1 L503.3,256.0 L504.1,247.5 L505.0,246.9 L505.8,244.1 L506.6,239.1 L507.5,239.4 L508.3,239.8 L509.2,246.5 L510.0,250.6 L510.9,251.9 L511.7,253.6 L512.5,245.8 L513.4,251.9 L514.2,249.2 L515.1,233.7 L515.9,217.4 L516.7,218.4 L517.6,216.4 L518.4,219.1 L519.3,217.4 L520.1,215.7 L521.0,220.1 L521.8,216.8 L522.6,283.0 L523.5,285.7 L524.3,283.4 L525.2,279.3 L526.0,272.2 L526.8,277.0 L527.7,279.0 L528.5,279.7 L529.4,279.0 L530.2,255.6 L531.1,258.7 L531.9,259.4 L532.7,214.7 L533.6,204.6 L534.4,195.1 L535.3,202.6 L536.1,192.7 L536.9,183.3 L537.8,190.7 L538.6,165.7 L539.5,139.3 L540.3,133.2 L541.2,126.8 L542.0,123.1 L542.8,188.3 L543.7,196.5 L544.5,199.2 L545.4,193.1 L546.2,178.2 L547.0,177.5 L547.9,196.8 L548.7,189.7 L549.6,167.0 L550.4,146.4 L551.2,115.0 L552.1,113.3 L552.9,150.5 L553.8,132.2 L554.6,123.4 L555.5,121.1 L556.3,123.1 L557.1,150.5 L558.0,154.9 L558.8,154.9 L559.7,137.3 L560.5,129.2 L561.3,87.6 L562.2,82.2 L563.0,130.5 L563.9,135.9 L564.7,105.8 L565.6,101.4 L566.4,116.3 L567.2,131.2 L568.1,129.8 L568.9,124.1 L569.8,167.7 L570.6,132.2 L571.4,78.1 L572.3,115.3 L573.1,173.8 L574.0,153.9 L574.8,183.3 L575.7,139.0 L576.5,130.9 L577.3,106.2 L578.2,143.7 L579.0,145.7 L579.9,152.2 L580.7,146.8 L581.5,159.3 L582.4,157.9 L583.2,129.5 L584.1,107.2 L584.9,105.8 L585.8,110.6 L586.6,127.1 L587.4,125.8 L588.3,135.3 L589.1,129.2 L590.0,127.8 L590.8,126.5 L591.6,173.5 L592.5,186.0 L593.3,161.0 L594.2,159.6 L595.0,164.3 L595.8,158.9 L596.7,148.4 L597.5,134.6 L598.4,135.6 L599.2,156.6 L600.1,148.1 L600.9,144.0 L601.7,169.7 L602.6,172.1 L603.4,182.3 L604.3,165.0 L605.1,153.9 L605.9,158.6 L606.8,153.5 L607.6,102.8 L608.5,146.4 L609.3,156.6 L610.2,114.3 L611.0,124.4 L611.8,94.3 L612.7,90.3 L613.5,106.8 L614.4,92.3 L615.2,127.8 L616.0,128.2 L616.9,138.0 L617.7,134.9 L618.6,135.3 L619.4,155.9 L620.3,148.1 L621.1,124.8 L621.9,86.2 L622.8,96.4 L623.6,85.5 L624.5,109.6 L625.3,83.2 L626.1,104.8 L627.0,100.8 L627.8,100.1 L628.7,140.7 L629.5,146.4 L630.4,138.6 L631.2,75.4 L632.0,79.5 L632.9,78.4 L633.7,81.5 L634.6,67.6 L635.4,71.3 L636.2,86.9 L637.1,127.5 L637.9,151.5 L638.8,161.0 L639.6,155.2 L640.4,151.1 L641.3,113.9 L642.1,72.7 L643.0,83.9 L643.8,99.1 L644.7,113.3 L645.5,132.2 L646.3,120.0 L647.2,128.8 L648.0,111.2 L648.9,100.8 L649.7,110.6 L650.5,101.8 L651.4,86.9 L652.2,134.6 L653.1,148.1 L653.9,167.7 L654.8,186.0 L655.6,195.1 L656.4,204.2 L657.3,199.2 L658.1,195.1 L659.0,179.6 L659.8,177.9 L660.6,175.8 L661.5,176.5 L662.3,181.9 L663.2,184.3 L664.0,179.6 L664.9,159.9 L665.7,155.5 L666.5,167.4 L667.4,159.6 L668.2,166.0 L669.1,159.9 L669.9,152.2 L670.7,193.1 L671.6,182.9 L672.4,193.1 L673.3,190.4 L674.1,202.6 L675.0,197.5 L675.8,200.2 L676.6,192.7 L677.5,180.2 L678.3,171.8 L679.2,135.3 L680.0,118.7" stroke="#8c564b" stroke-width="2" fill="none" opacity="0.8"/>
<!-- Forecast Difference -->
<path d="M80.0,420.0 L80.8,420.0 L81.7,420.0 L82.5,420.0 L83.4,420.0 L84.2,420.0 L85.0,420.0 L85.9,420.0 L86.7,420.0 L87.6,420.0 L88.4,420.0 L89.3,420.0 L90.1,420.0 L90.9,420.0 L91.8,420.0 L92.6,420.0 L93.5,420.0 L94.3,420.0 L95.1,420.0 L96.0,420.0 L96.8,420.0 L97.7,420.0 L98.5,420.0 L99.4,420.0 L100.2,420.0 L101.0,420.0 L101.9,420.0 L102.7,420.0 L103.6,420.0 L104.4,420.0 L105.2,420.0 L106.1,420.0 L106.9,420.0 L107.8,420.0 L108.6,420.0 L109.5,420.0 L110.3,420.0 L111.1,420.0 L112.0,420.0 L112.8,420.0 L113.7,420.0 L114.5,420.0 L115.3,420.0 L116.2,420.0 L117.0,420.0 L117.9,420.0 L118.7,420.0 L119.6,420.0 L120.4,420.0 L121.2,420.0 L122.1,420.0 L122.9,420.0 L123.8,420.0 L124.6,420.0 L125.4,420.0 L126.3,420.0 L127.1,420.0 L128.0,420.0 L128.8,420.0 L129.6,420.0 L130.5,420.0 L131.3,420.0 L132.2,420.0 L133.0,420.0 L133.9,420.0 L134.7,420.0 L135.5,420.0 L136.4,420.0 L137.2,420.0 L138.1,420.0 L138.9,420.0 L139.7,420.0 L140.6,420.0 L141.4,420.0 L142.3,420.0 L143.1,420.0 L144.0,420.0 L144.8,420.0 L145.6,420.0 L146.5,420.0 L147.3,420.0 L148.2,420.0 L149.0,420.0 L149.8,420.0 L150.7,420.0 L151.5,420.0 L152.4,420.0 L153.2,420.0 L154.1,420.0 L154.9,420.0 L155.7,420.0 L156.6,420.0 L157.4,420.0 L158.3,420.0 L159.1,420.0 L159.9,420.0 L160.8,420.0 L161.6,420.0 L162.5,420.0 L163.3,420.0 L164.2,420.0 L165.0,420.0 L165.8,420.0 L166.7,420.0 L167.5,420.0 L168.4,420.0 L169.2,420.0 L170.0,420.0 L170.9,420.0 L171.7,420.0 L172.6,420.0 L173.4,420.0 L174.2,420.0 L175.1,420.0 L175.9,420.0 L176.8,420.0 L177.6,420.0 L178.5,420.0 L179.3,420.0 L180.1,420.0 L181.0,420.0 L181.8,420.0 L182.7,420.0 L183.5,420.0 L184.3,420.0 L185.2,420.0 L186.0,420.0 L186.9,420.0 L187.7,420.0 L188.6,420.0 L189.4,420.0 L190.2,420.0 L191.1,420.0 L191.9,420.0 L192.8,420.0 L193.6,420.0 L194.4,420.0 L195.3,420.0 L196.1,420.0 L197.0,420.0 L197.8,420.0 L198.7,420.0 L199.5,420.0 L200.3,420.0 L201.2,420.0 L202.0,420.0 L202.9,420.0 L203.7,420.0 L204.5,420.0 L205.4,420.0 L206.2,420.0 L207.1,420.0 L207.9,420.0 L208.8,420.0 L209.6,420.0 L210.4,420.0 L211.3,420.0 L212.1,420.0 L213.0,420.0 L213.8,420.0 L214.6,420.0 L215.5,420.0 L216.3,420.0 L217.2,420.0 L218.0,420.0 L218.8,420.0 L219.7,420.0 L220.5,420.0 L221.4,420.0 L222.2,420.0 L223.1,420.0 L223.9,420.0 L224.7,420.0 L225.6,420.0 L226.4,420.0 L227.3,420.0 L228.1,420.0 L228.9,420.0 L229.8,420.0 L230.6,420.0 L231.5,420.0 L232.3,420.0 L233.2,420.0 L234.0,420.0 L234.8,420.0 L235.7,420.0 L236.5,420.0 L237.4,420.0 L238.2,420.0 L239.0,420.0 L239.9,420.0 L240.7,420.0 L241.6,420.0 L242.4,420.0 L243.3,420.0 L244.1,420.0 L244.9,420.0 L245.8,420.0 L246.6,420.0 L247.5,420.0 L248.3,420.0 L249.1,420.0 L250.0,420.0 L250.8,420.0 L251.7,420.0 L252.5,420.0 L253.4,420.0 L254.2,420.0 L255.0,420.0 L255.9,420.0 L256.7,420.0 L257.6,420.0 L258.4,420.0 L259.2,420.0 L260.1,420.0 L260.9,420.0 L261.8,420.0 L262.6,420.0 L263.5,420.0 L264.3,420.0 L265.1,420.0 L266.0,420.0 L266.8,420.0 L267.7,420.0 L268.5,420.0 L269.3,420.0 L270.2,420.0 L271.0,420.0 L271.9,420.0 L272.7,420.0 L273.5,420.0 L274.4,420.0 L275.2,420.0 L276.1,420.0 L276.9,420.0 L277.8,420.0 L278.6,420.0 L279.4,420.0 L280.3,420.0 L281.1,420.0 L282.0,420.0 L282.8,420.0 L283.6,420.0 L284.5,420.0 L285.3,420.0 L286.2,420.0 L287.0,420.0 L287.9,420.0 L288.7,420.0 L289.5,420.0 L290.4,420.0 L291.2,420.0 L292.1,420.0 L292.9,420.0 L293.7,420.0 L294.6,420.0 L295.4,420.0 L296.3,420.0 L297.1,420.0 L298.0,420.0 L298.8,420.0 L299.6,420.0 L300.5,420.0 L301.3,420.0 L302.2,420.0 L303.0,420.0 L303.8,420.0 L304.7,420.0 L305.5,420.0 L306.4,420.0 L307.2,420.0 L308.1,420.0 L308.9,420.0 L309.7,420.0 L310.6,420.0 L311.4,420.0 L312.3,420.0 L313.1,420.0 L313.9,420.0 L314.8,420.0 L315.6,420.0 L316.5,420.0 L317.3,420.0 L318.1,420.0 L319.0,420.0 L319.8,420.0 L320.7,420.0 L321.5,420.0 L322.4,420.0 L323.2,420.0 L324.0,420.0 L324.9,420.0 L325.7,420.0 L326.6,420.0 L327.4,420.0 L328.2,420.0 L329.1,420.0 L329.9,420.0 L330.8,420.0 L331.6,420.0 L332.5,420.0 L333.3,420.0 L334.1,420.0 L335.0,420.0 L335.8,420.0 L336.7,420.0 L337.5,420.0 L338.3,420.0 L339.2,420.0 L340.0,420.0 L340.9,420.0 L341.7,420.0 L342.6,420.0 L343.4,420.0 L344.2,420.0 L345.1,420.0 L345.9,420.0 L346.8,420.0 L347.6,420.0 L348.4,420.0 L349.3,420.0 L350.1,420.0 L351.0,420.0 L351.8,420.0 L352.7,420.0 L353.5,420.0 L354.3,420.0 L355.2,420.0 L356.0,420.0 L356.9,420.0 L357.7,420.0 L358.5,420.0 L359.4,420.0 L360.2,420.0 L361.1,420.0 L361.9,420.0 L362.7,420.0 L363.6,420.0 L364.4,420.0 L365.3,420.0 L366.1,420.0 L367.0,420.0 L367.8,420.0 L368.6,420.0 L369.5,420.0 L370.3,420.0 L371.2,420.0 L372.0,420.0 L372.8,420.0 L373.7,420.0 L374.5,420.0 L375.4,420.0 L376.2,420.0 L377.1,420.0 L377.9,420.0 L378.7,420.0 L379.6,420.0 L380.4,420.0 L381.3,420.0 L382.1,420.0 L382.9,420.0 L383.8,420.0 L384.6,420.0 L385.5,420.0 L386.3,420.0 L387.2,420.0 L388.0,420.0 L388.8,420.0 L389.7,420.0 L390.5,420.0 L391.4,420.0 L392.2,420.0 L393.0,420.0 L393.9,420.0 L394.7,420.0 L395.6,420.0 L396.4,420.0 L397.3,420.0 L398.1,420.0 L398.9,420.0 L399.8,420.0 L400.6,420.0 L401.5,420.0 L402.3,420.0 L403.1,420.0 L404.0,420.0 L404.8,420.0 L405.7,420.0 L406.5,420.0 L407.3,420.0 L408.2,420.0 L409.0,420.0 L409.9,420.0 L410.7,420.0 L411.6,420.0 L412.4,420.0 L413.2,420.0 L414.1,420.0 L414.9,420.0 L415.8,420.0 L416.6,420.0 L417.4,420.0 L418.3,420.0 L419.1,420.0 L420.0,420.0 L420.8,420.0 L421.7,420.0 L422.5,420.0 L423.3,420.0 L424.2,420.0 L425.0,420.0 L425.9,420.0 L426.7,420.0 L427.5,420.0 L428.4,420.0 L429.2,420.0 L430.1,420.0 L430.9,420.0 L431.8,420.0 L432.6,420.0 L433.4,420.0 L434.3,420.0 L435.1,420.0 L436.0,420.0 L436.8,420.0 L437.6,420.0 L438.5,420.0 L439.3,420.0 L440.2,420.0 L441.0,420.0 L441.9,420.0 L442.7,420.0 L443.5,420.0 L444.4,420.0 L445.2,420.0 L446.1,420.0 L446.9,420.0 L447.7,420.0 L448.6,420.0 L449.4,420.0 L450.3,420.0 L451.1,420.0 L451.9,420.0 L452.8,420.0 L453.6,420.0 L454.5,420.0 L455.3,420.0 L456.2,420.0 L457.0,420.0 L457.8,420.0 L458.7,420.0 L459.5,420.0 L460.4,420.0 L461.2,420.0 L462.0,420.0 L462.9,420.0 L463.7,420.0 L464.6,420.0 L465.4,420.0 L466.3,420.0 L467.1,420.0 L467.9,420.0 L468.8,420.0 L469.6,420.0 L470.5,420.0 L471.3,420.0 L472.1,420.0 L473.0,420.0 L473.8,420.0 L474.7,420.0 L475.5,420.0 L476.4,420.0 L477.2,420.0 L478.0,420.0 L478.9,420.0 L479.7,420.0 L480.6,420.0 L481.4,420.0 L482.2,420.0 L483.1,420.0 L483.9,420.0 L484.8,420.0 L485.6,420.0 L486.5,420.0 L487.3,420.0 L488.1,420.0 L489.0,420.0 L489.8,420.0 L490.7,420.0 L491.5,420.0 L492.3,420.0 L493.2,420.0 L494.0,420.0 L494.9,420.0 L495.7,420.0 L496.5,420.0 L497.4,420.0 L498.2,420.0 L499.1,420.0 L499.9,420.0 L500.8,420.0 L501.6,420.0 L502.4,420.0 L503.3,420.0 L504.1,420.0 L505.0,420.0 L505.8,420.0 L506.6,420.0 L507.5,420.0 L508.3,420.0 L509.2,420.0 L510.0,420.0 L510.9,420.0 L511.7,420.0 L512.5,420.0 L513.4,420.0 L514.2,420.0 L515.1,420.0 L515.9,420.0 L516.7,420.0 L517.6,420.0 L518.4,420.0 L519.3,420.0 L520.1,420.0 L521.0,420.0 L521.8,420.0 L522.6,420.0 L523.5,420.0 L524.3,420.0 L525.2,420.0 L526.0,420.0 L526.8,420.0 L527.7,420.0 L528.5,420.0 L529.4,420.0 L530.2,420.0 L531.1,420.0 L531.9,420.0 L532.7,420.0 L533.6,420.0 L534.4,420.0 L535.3,420.0 L536.1,420.0 L536.9,420.0 L537.8,420.0 L538.6,420.0 L539.5,420.0 L540.3,420.0 L541.2,420.0 L542.0,420.0 L542.8,420.0 L543.7,420.0 L544.5,420.0 L545.4,420.0 L546.2,420.0 L547.0,420.0 L547.9,420.0 L548.7,420.0 L549.6,420.0 L550.4,420.0 L551.2,420.0 L552.1,420.0 L552.9,420.0 L553.8,420.0 L554.6,420.0 L555.5,420.0 L556.3,420.0 L557.1,420.0 L558.0,420.0 L558.8,420.0 L559.7,420.0 L560.5,420.0 L561.3,420.0 L562.2,420.0 L563.0,420.0 L563.9,420.0 L564.7,420.0 L565.6,420.0 L566.4,420.0 L567.2,420.0 L568.1,420.0 L568.9,420.0 L569.8,420.0 L570.6,420.0 L571.4,420.0 L572.3,420.0 L573.1,420.0 L574.0,420.0 L574.8,420.0 L575.7,420.0 L576.5,420.0 L577.3,420.0 L578.2,420.0 L579.0,420.0 L579.9,420.0 L580.7,420.0 L581.5,420.0 L582.4,420.0 L583.2,420.0 L584.1,420.0 L584.9,420.0 L585.8,420.0 L586.6,420.0 L587.4,420.0 L588.3,420.0 L589.1,420.0 L590.0,420.0 L590.8,420.0 L591.6,420.0 L592.5,420.0 L593.3,420.0 L594.2,420.0 L595.0,420.0 L595.8,420.0 L596.7,420.0 L597.5,420.0 L598.4,420.0 L599.2,420.0 L600.1,420.0 L600.9,420.0 L601.7,420.0 L602.6,420.0 L603.4,420.0 L604.3,420.0 L605.1,420.0 L605.9,420.0 L606.8,420.0 L607.6,420.0 L608.5,420.0 L609.3,420.0 L610.2,420.0 L611.0,420.0 L611.8,420.0 L612.7,420.0 L613.5,420.0 L614.4,420.0 L615.2,420.0 L616.0,420.0 L616.9,420.0 L617.7,420.0 L618.6,420.0 L619.4,420.0 L620.3,420.0 L621.1,420.0 L621.9,420.0 L622.8,420.0 L623.6,420.0 L624.5,420.0 L625.3,420.0 L626.1,420.0 L627.0,420.0 L627.8,420.0 L628.7,420.0 L629.5,420.0 L630.4,420.0 L631.2,420.0 L632.0,420.0 L632.9,420.0 L633.7,420.0 L634.6,420.0 L635.4,420.0 L636.2,420.0 L637.1,420.0 L637.9,420.0 L638.8,420.0 L639.6,420.0 L640.4,420.0 L641.3,420.0 L642.1,420.0 L643.0,420.0 L643.8,420.0 L644.7,420.0 L645.5,420.0 L646.3,420.0 L647.2,420.0 L648.0,420.0 L648.9,420.0 L649.7,420.0 L650.5,420.0 L651.4,420.0 L652.2,420.0 L653.1,420.0 L653.9,420.0 L654.8,420.0 L655.6,420.0 L656.4,420.0 L657.3,420.0 L658.1,420.0 L659.0,420.0 L659.8,420.0 L660.6,420.0 L661.5,420.0 L662.3,420.0 L663.2,420.0 L664.0,420.0 L664.9,420.0 L665.7,420.0 L666.5,420.0 L667.4,420.0 L668.2,420.0 L669.1,420.0 L669.9,420.0 L670.7,420.0 L671.6,420.0 L672.4,420.0 L673.3,420.0 L674.1,420.0 L675.0,420.0 L675.8,420.0 L676.6,420.0 L677.5,420.0 L678.3,420.0 L679.2,420.0 L680.0,420.0" stroke="#e377c2" stroke-width="2" fill="none" opacity="0.8"/>

<!-- Legend -->
<line x1="690" y1="70" x2="705" y2="70" stroke="#1f77b4" stroke-width="3"/>
<text x="710" y="74" class="legend">Wind Generation</text>
<line x1="690" y1="88" x2="705" y2="88" stroke="#ff7f0e" stroke-width="3"/>
<text x="710" y="92" class="legend">Hydro Generation</text>
<line x1="690" y1="106" x2="705" y2="106" stroke="#2ca02c" stroke-width="3"/>
<text x="710" y="110" class="legend">Thermal Generation</text>
<line x1="690" y1="124" x2="705" y2="124" stroke="#d62728" stroke-width="3"/>
<text x="710" y="128" class="legend">Solar Generation</text>
<line x1="690" y1="142" x2="705" y2="142" stroke="#9467bd" stroke-width="3"/>
<text x="710" y="146" class="legend">Forecast</text>
<line x1="690" y1="160" x2="705" y2="160" stroke="#8c564b" stroke-width="3"/>
<text x="710" y="164" class="legend">Total Generation</text>
<line x1="690" y1="178" x2="705" y2="178" stroke="#e377c2" stroke-width="3"/>
<text x="710" y="182" class="legend">Forecast Difference</text>

<!-- Date range -->
<text x="80" y="495" class="legend">Range: 09/23 - 10/23/2025 (714 records)</text>
</svg>