<?xml version="1.0" encoding="UTF-8"?>
<svg width="800" height="500" xmlns="http://www.w3.org/2000/svg">
<style>
.axis-line { stroke: #333; stroke-width: 1; }
.grid-line { stroke: #ddd; stroke-width: 0.5; }
.title { font: 16px Arial; text-anchor: middle; fill: #333; }
.axis-label { font: 12px Arial; text-anchor: middle; fill: #666; }
.legend { font: 10px Arial; fill: #333; }
</style>

<!-- Title -->
<text x="400.0" y="25" class="title">Northwestern Energy Generation Data - Past 30 Days</text>

<!-- Plot area background -->
<rect x="80" y="50" width="600" height="370" fill="white" stroke="#ddd"/>

<!-- Y-axis -->
<line x1="80" y1="50" x2="80" y2="420" class="axis-line"/>
<text x="30" y="235.0" class="axis-label" transform="rotate(-90, 30, 235.0)">Generation (MW)</text>

<!-- X-axis -->
<line x1="80" y1="420" x2="680" y2="420" class="axis-line"/>
<text x="380.0" y="480" class="axis-label">Time</text>
<line x1="80" y1="420.0" x2="680" y2="420.0" class="grid-line"/>
<text x="70" y="425.0" class="legend" text-anchor="end">0</text>
<line x1="80" y1="327.5" x2="680" y2="327.5" class="grid-line"/>
<text x="70" y="332.5" class="legend" text-anchor="end">311</text>
<line x1="80" y1="235.0" x2="680" y2="235.0" class="grid-line"/>
<text x="70" y="240.0" class="legend" text-anchor="end">622</text>
<line x1="80" y1="142.5" x2="680" y2="142.5" class="grid-line"/>
<text x="70" y="147.5" class="legend" text-anchor="end">933</text>
<line x1="80" y1="50.0" x2="680" y2="50.0" class="grid-line"/>
<text x="70" y="55.0" class="legend" text-anchor="end">1244</text>
<!-- Wind Generation -->
<path d="M80.0,398.9 L80.8,397.4 L81.7,381.3 L82.5,370.3 L83.4,358.4 L84.2,344.2 L85.0,340.9 L85.9,392.0 L86.7,373.3 L87.6,392.3 L88.4,392.0 L89.3,384.6 L90.1,382.5 L90.9,379.0 L91.8,379.3 L92.6,378.4 L93.5,391.5 L94.3,408.7 L95.1,388.8 L96.0,396.5 L96.8,386.1 L97.7,407.5 L98.5,408.1 L99.4,409.0 L100.2,402.5 L101.0,393.5 L101.9,391.2 L102.7,389.1 L103.6,388.2 L104.4,392.6 L105.2,394.4 L106.1,389.7 L106.9,398.0 L107.8,393.2 L108.6,404.2 L109.5,401.9 L110.3,396.8 L111.1,399.5 L112.0,400.7 L112.8,398.9 L113.7,374.5 L114.5,375.1 L115.3,380.5 L116.2,374.2 L117.0,378.1 L117.9,384.0 L118.7,391.8 L119.6,397.7 L120.4,406.6 L121.2,408.1 L122.1,392.3 L122.9,384.6 L123.8,379.3 L124.6,387.9 L125.4,393.5 L126.3,395.0 L127.1,386.1 L128.0,391.2 L128.8,395.9 L129.6,379.6 L130.5,374.5 L131.3,331.7 L132.2,326.6 L133.0,330.2 L133.9,340.0 L134.7,347.4 L135.5,346.0 L136.4,351.0 L137.2,366.8 L138.1,373.9 L138.9,370.9 L139.7,371.5 L140.6,388.8 L141.4,394.1 L142.3,392.6 L143.1,384.9 L144.0,383.4 L144.8,376.3 L145.6,384.0 L146.5,379.6 L147.3,377.5 L148.2,370.9 L149.0,383.1 L149.8,385.8 L150.7,387.3 L151.5,399.5 L152.4,406.9 L153.2,409.9 L154.1,402.8 L154.9,403.6 L155.7,407.2 L156.6,410.8 L157.4,411.4 L158.3,417.6 L159.1,420.0 L159.9,420.0 L160.8,420.0 L161.6,420.0 L162.5,418.2 L163.3,419.1 L164.2,418.5 L165.0,418.8 L165.8,419.4 L166.7,420.0 L167.5,420.0 L168.4,417.0 L169.2,415.2 L170.0,411.1 L170.9,406.6 L171.7,401.3 L172.6,387.9 L173.4,395.6 L174.2,393.2 L175.1,384.0 L175.9,367.4 L176.8,376.9 L177.6,389.4 L178.5,387.3 L179.3,403.9 L180.1,413.8 L181.0,419.1 L181.8,417.6 L182.7,416.7 L183.5,414.9 L184.3,414.4 L185.2,419.7 L186.0,413.2 L186.9,414.9 L187.7,414.6 L188.6,414.4 L189.4,404.5 L190.2,409.0 L191.1,392.6 L191.9,344.2 L192.8,330.2 L193.6,348.3 L194.4,358.1 L195.3,321.6 L196.1,307.0 L197.0,315.0 L197.8,327.8 L198.7,334.7 L199.5,335.8 L200.3,340.6 L201.2,323.7 L202.0,326.9 L202.9,330.8 L203.7,329.9 L204.5,333.8 L205.4,336.1 L206.2,334.4 L207.1,356.7 L207.9,366.8 L208.8,378.1 L209.6,398.6 L210.4,403.3 L211.3,398.3 L212.1,401.0 L213.0,403.6 L213.8,406.6 L214.6,402.2 L215.5,382.2 L216.3,365.9 L217.2,372.7 L218.0,387.6 L218.8,364.7 L219.7,354.3 L220.5,362.3 L221.4,354.3 L222.2,349.2 L223.1,344.5 L223.9,338.2 L224.7,352.8 L225.6,355.8 L226.4,356.7 L227.3,364.1 L228.1,367.7 L228.9,356.1 L229.8,347.1 L230.6,368.9 L231.5,362.9 L232.3,365.0 L233.2,364.4 L234.0,373.0 L234.8,360.2 L235.7,365.9 L236.5,381.6 L237.4,390.0 L238.2,395.0 L239.0,401.9 L239.9,405.7 L240.7,407.5 L241.6,407.5 L242.4,410.2 L243.3,410.8 L244.1,401.9 L244.9,403.3 L245.8,405.1 L246.6,406.9 L247.5,413.2 L248.3,412.0 L249.1,405.4 L250.0,407.2 L250.8,408.1 L251.7,403.6 L252.5,402.2 L253.4,398.9 L254.2,390.6 L255.0,383.1 L255.9,363.8 L256.7,347.4 L257.6,333.5 L258.4,340.6 L259.2,343.6 L260.1,357.9 L260.9,378.1 L261.8,388.8 L262.6,393.2 L263.5,399.8 L264.3,398.0 L265.1,401.0 L266.0,403.6 L266.8,407.2 L267.7,415.2 L268.5,415.2 L269.3,415.2 L270.2,413.8 L271.0,409.9 L271.9,399.5 L272.7,392.0 L273.5,387.3 L274.4,383.7 L275.2,394.7 L276.1,391.5 L276.9,391.5 L277.8,398.6 L278.6,412.9 L279.4,415.5 L280.3,413.2 L281.1,399.2 L282.0,392.3 L282.8,376.3 L283.6,361.7 L284.5,365.9 L285.3,357.9 L286.2,361.1 L287.0,348.9 L287.9,329.3 L288.7,354.9 L289.5,339.1 L290.4,355.8 L291.2,351.9 L292.1,354.6 L292.9,362.3 L293.7,360.5 L294.6,365.3 L295.4,356.7 L296.3,323.7 L297.1,330.2 L298.0,337.0 L298.8,338.8 L299.6,365.3 L300.5,365.0 L301.3,359.0 L302.2,364.7 L303.0,363.8 L303.8,348.0 L304.7,364.1 L305.5,369.7 L306.4,369.4 L307.2,358.7 L308.1,353.7 L308.9,341.5 L309.7,354.9 L310.6,353.7 L311.4,350.4 L312.3,356.4 L313.1,370.9 L313.9,377.5 L314.8,382.2 L315.6,376.0 L316.5,384.9 L317.3,372.1 L318.1,359.9 L319.0,358.4 L319.8,367.7 L320.7,387.9 L321.5,399.5 L322.4,414.9 L323.2,410.8 L324.0,407.2 L324.9,407.8 L325.7,384.6 L326.6,368.6 L327.4,378.4 L328.2,394.7 L329.1,409.0 L329.9,411.1 L330.8,415.8 L331.6,414.6 L332.5,414.1 L333.3,409.0 L334.1,410.5 L335.0,412.6 L335.8,403.6 L336.7,391.8 L337.5,374.8 L338.3,354.6 L339.2,358.1 L340.0,357.6 L340.9,365.6 L341.7,391.2 L342.6,410.2 L343.4,417.3 L344.2,420.0 L345.1,420.0 L345.9,420.0 L346.8,419.4 L347.6,417.9 L348.4,417.9 L349.3,417.6 L350.1,416.1 L351.0,409.3 L351.8,409.6 L352.7,413.5 L353.5,412.9 L354.3,411.7 L355.2,407.2 L356.0,403.6 L356.9,393.2 L357.7,390.3 L358.5,390.9 L359.4,399.8 L360.2,409.3 L361.1,418.2 L361.9,409.3 L362.7,413.8 L363.6,415.8 L364.4,411.4 L365.3,409.6 L366.1,410.8 L367.0,409.3 L367.8,409.9 L368.6,414.6 L369.5,417.0 L370.3,413.2 L371.2,403.3 L372.0,393.8 L372.8,392.3 L373.7,372.1 L374.5,353.1 L375.4,355.8 L376.2,352.2 L377.1,373.9 L377.9,373.3 L378.7,353.4 L379.6,325.4 L380.4,315.9 L381.3,327.8 L382.1,349.2 L382.9,344.5 L383.8,349.5 L384.6,332.9 L385.5,338.8 L386.3,352.5 L387.2,356.4 L388.0,364.1 L388.8,361.4 L389.7,390.0 L390.5,395.3 L391.4,395.9 L392.2,404.2 L393.0,401.9 L393.9,399.5 L394.7,406.9 L395.6,401.6 L396.4,417.3 L397.3,404.2 L398.1,400.7 L398.9,405.4 L399.8,396.8 L400.6,407.8 L401.5,411.4 L402.3,418.5 L403.1,419.4 L404.0,419.1 L404.8,412.9 L405.7,384.9 L406.5,387.9 L407.3,339.4 L408.2,344.2 L409.0,357.6 L409.9,332.9 L410.7,335.3 L411.6,326.9 L412.4,332.6 L413.2,353.7 L414.1,334.1 L414.9,360.8 L415.8,358.4 L416.6,352.2 L417.4,313.2 L418.3,328.1 L419.1,324.5 L420.0,319.2 L420.8,309.7 L421.7,325.4 L422.5,335.3 L423.3,325.4 L424.2,316.8 L425.0,311.2 L425.9,316.5 L426.7,302.8 L427.5,306.4 L428.4,311.2 L429.2,309.1 L430.1,346.6 L430.9,344.2 L431.8,334.7 L432.6,314.4 L433.4,324.0 L434.3,317.1 L435.1,319.5 L436.0,312.9 L436.8,321.3 L437.6,310.9 L438.5,334.1 L439.3,343.9 L440.2,348.0 L441.0,356.4 L441.9,358.4 L442.7,358.4 L443.5,340.0 L444.4,343.9 L445.2,359.0 L446.1,336.4 L446.9,358.1 L447.7,339.7 L448.6,343.0 L449.4,358.7 L450.3,389.4 L451.1,388.2 L451.9,373.3 L452.8,378.1 L453.6,376.9 L454.5,333.5 L455.3,357.0 L456.2,348.0 L457.0,373.6 L457.8,348.6 L458.7,383.7 L459.5,376.0 L460.4,338.2 L461.2,351.9 L462.0,340.3 L462.9,345.1 L463.7,335.8 L464.6,330.8 L465.4,340.3 L466.3,352.5 L467.1,323.7 L467.9,337.3 L468.8,332.0 L469.6,343.6 L470.5,337.9 L471.3,321.0 L472.1,340.3 L473.0,337.9 L473.8,351.0 L474.7,367.1 L475.5,386.7 L476.4,390.6 L477.2,379.3 L478.0,359.3 L478.9,338.2 L479.7,337.9 L480.6,348.6 L481.4,343.3 L482.2,333.5 L483.1,326.3 L483.9,344.5 L484.8,359.3 L485.6,367.7 L486.5,350.7 L487.3,339.4 L488.1,352.5 L489.0,358.4 L489.8,353.7 L490.7,355.8 L491.5,361.1 L492.3,365.6 L493.2,354.0 L494.0,369.2 L494.9,337.9 L495.7,349.8 L496.5,374.2 L497.4,345.7 L498.2,346.8 L499.1,368.6 L499.9,357.6 L500.8,380.2 L501.6,388.8 L502.4,394.4 L503.3,390.9 L504.1,390.0 L505.0,376.6 L505.8,356.4 L506.6,355.5 L507.5,343.9 L508.3,341.5 L509.2,339.4 L510.0,367.4 L510.9,338.2 L511.7,364.7 L512.5,365.6 L513.4,368.0 L514.2,363.2 L515.1,361.1 L515.9,364.7 L516.7,366.5 L517.6,367.4 L518.4,381.9 L519.3,399.2 L520.1,399.5 L521.0,406.9 L521.8,411.7 L522.6,413.2 L523.5,401.9 L524.3,390.3 L525.2,396.2 L526.0,389.1 L526.8,377.5 L527.7,383.1 L528.5,363.5 L529.4,395.6 L530.2,392.6 L531.1,386.1 L531.9,386.7 L532.7,390.6 L533.6,385.8 L534.4,367.1 L535.3,379.3 L536.1,368.9 L536.9,363.2 L537.8,363.5 L538.6,369.2 L539.5,386.7 L540.3,401.6 L541.2,410.5 L542.0,408.7 L542.8,398.9 L543.7,395.6 L544.5,393.8 L545.4,390.9 L546.2,369.7 L547.0,364.4 L547.9,357.0 L548.7,374.2 L549.6,380.2 L550.4,382.5 L551.2,386.4 L552.1,385.2 L552.9,395.0 L553.8,390.3 L554.6,374.2 L555.5,367.7 L556.3,362.6 L557.1,370.3 L558.0,395.3 L558.8,409.3 L559.7,414.6 L560.5,417.9 L561.3,412.3 L562.2,417.6 L563.0,417.9 L563.9,415.5 L564.7,411.1 L565.6,397.7 L566.4,399.8 L567.2,401.3 L568.1,402.2 L568.9,402.5 L569.8,403.3 L570.6,409.9 L571.4,419.7 L572.3,420.0 L573.1,418.5 L574.0,414.4 L574.8,411.7 L575.7,408.1 L576.5,401.6 L577.3,380.2 L578.2,370.9 L579.0,370.6 L579.9,406.6 L580.7,404.5 L581.5,389.4 L582.4,397.1 L583.2,401.6 L584.1,400.7 L584.9,406.6 L585.8,411.7 L586.6,398.6 L587.4,391.5 L588.3,388.8 L589.1,396.2 L590.0,389.1 L590.8,378.4 L591.6,367.4 L592.5,351.9 L593.3,345.4 L594.2,345.1 L595.0,401.9 L595.8,367.4 L596.7,351.6 L597.5,354.0 L598.4,355.2 L599.2,354.9 L600.1,328.7 L600.9,299.9 L601.7,300.2 L602.6,305.8 L603.4,310.0 L604.3,308.5 L605.1,317.1 L605.9,323.4 L606.8,316.2 L607.6,324.5 L608.5,324.0 L609.3,332.0 L610.2,334.1 L611.0,353.4 L611.8,365.9 L612.7,366.8 L613.5,354.3 L614.4,377.5 L615.2,380.2 L616.0,379.9 L616.9,360.5 L617.7,389.4 L618.6,384.3 L619.4,385.5 L620.3,343.3 L621.1,370.3 L621.9,373.6 L622.8,356.4 L623.6,362.6 L624.5,378.7 L625.3,370.6 L626.1,345.7 L627.0,340.6 L627.8,330.2 L628.7,332.9 L629.5,328.4 L630.4,317.1 L631.2,312.1 L632.0,323.7 L632.9,337.6 L633.7,339.7 L634.6,343.9 L635.4,357.0 L636.2,342.4 L637.1,322.2 L637.9,333.2 L638.8,328.4 L639.6,331.7 L640.4,341.8 L641.3,348.3 L642.1,345.4 L643.0,342.4 L643.8,366.2 L644.7,394.4 L645.5,397.7 L646.3,387.0 L647.2,381.6 L648.0,382.8 L648.9,387.0 L649.7,395.6 L650.5,403.6 L651.4,415.5 L652.2,409.6 L653.1,404.2 L653.9,410.2 L654.8,405.7 L655.6,397.4 L656.4,398.9 L657.3,403.9 L658.1,410.2 L659.0,407.8 L659.8,409.3 L660.6,407.8 L661.5,388.5 L662.3,387.6 L663.2,385.5 L664.0,379.3 L664.9,371.2 L665.7,375.1 L666.5,384.0 L667.4,394.4 L668.2,405.7 L669.1,412.3 L669.9,414.9 L670.7,404.2 L671.6,395.3 L672.4,392.3 L673.3,386.4 L674.1,372.4 L675.0,401.0 L675.8,406.0 L676.6,401.9 L677.5,403.6 L678.3,401.9 L679.2,373.6 L680.0,379.3" stroke="#1f77b4" stroke-width="2" fill="none" opacity="0.8"/>
<!-- Hydro Generation -->
<path d="M80.0,330.8 L80.8,331.7 L81.7,331.7 L82.5,332.9 L83.4,332.9 L84.2,333.8 L85.0,333.8 L85.9,333.5 L86.7,333.8 L87.6,333.5 L88.4,333.5 L89.3,332.3 L90.1,332.3 L90.9,342.7 L91.8,342.4 L92.6,343.0 L93.5,332.3 L94.3,332.3 L95.1,333.8 L96.0,331.7 L96.8,331.4 L97.7,330.5 L98.5,329.9 L99.4,329.6 L100.2,330.5 L101.0,330.8 L101.9,330.2 L102.7,330.5 L103.6,330.5 L104.4,330.2 L105.2,330.2 L106.1,330.2 L106.9,330.2 L107.8,330.5 L108.6,330.2 L109.5,330.5 L110.3,329.3 L111.1,329.6 L112.0,328.4 L112.8,328.7 L113.7,327.5 L114.5,328.1 L115.3,327.8 L116.2,327.8 L117.0,327.5 L117.9,327.2 L118.7,327.8 L119.6,328.1 L120.4,328.1 L121.2,328.1 L122.1,328.4 L122.9,329.0 L123.8,328.7 L124.6,329.0 L125.4,329.0 L126.3,329.0 L127.1,329.6 L128.0,329.6 L128.8,330.2 L129.6,330.2 L130.5,331.1 L131.3,330.8 L132.2,330.8 L133.0,331.1 L133.9,330.8 L134.7,331.4 L135.5,331.4 L136.4,331.7 L137.2,331.7 L138.1,331.4 L138.9,331.7 L139.7,331.1 L140.6,330.8 L141.4,331.1 L142.3,329.9 L143.1,330.2 L144.0,330.2 L144.8,330.2 L145.6,330.2 L146.5,320.4 L147.3,329.0 L148.2,328.7 L149.0,332.0 L149.8,328.7 L150.7,328.4 L151.5,328.4 L152.4,329.0 L153.2,329.0 L154.1,330.2 L154.9,329.9 L155.7,329.3 L156.6,329.6 L157.4,329.9 L158.3,329.6 L159.1,329.6 L159.9,329.9 L160.8,329.9 L161.6,329.9 L162.5,329.9 L163.3,329.6 L164.2,329.9 L165.0,329.9 L165.8,329.9 L166.7,329.9 L167.5,329.6 L168.4,329.6 L169.2,329.0 L170.0,328.7 L170.9,327.8 L171.7,328.1 L172.6,327.8 L173.4,327.8 L174.2,328.1 L175.1,327.8 L175.9,328.1 L176.8,328.1 L177.6,327.8 L178.5,328.4 L179.3,328.1 L180.1,328.1 L181.0,328.1 L181.8,327.8 L182.7,328.1 L183.5,328.1 L184.3,328.1 L185.2,327.5 L186.0,327.5 L186.9,327.2 L187.7,326.9 L188.6,328.4 L189.4,328.4 L190.2,327.5 L191.1,327.2 L191.9,326.6 L192.8,327.2 L193.6,325.1 L194.4,322.5 L195.3,322.5 L196.1,322.8 L197.0,322.5 L197.8,321.9 L198.7,322.5 L199.5,322.5 L200.3,322.2 L201.2,322.5 L202.0,323.7 L202.9,323.7 L203.7,324.5 L204.5,325.1 L205.4,325.4 L206.2,325.7 L207.1,324.8 L207.9,324.8 L208.8,324.8 L209.6,324.8 L210.4,324.8 L211.3,324.8 L212.1,324.8 L213.0,325.1 L213.8,325.4 L214.6,325.4 L215.5,325.1 L216.3,325.4 L217.2,324.5 L218.0,324.2 L218.8,324.2 L219.7,324.5 L220.5,324.5 L221.4,324.5 L222.2,324.5 L223.1,325.4 L223.9,326.3 L224.7,326.3 L225.6,326.0 L226.4,326.0 L227.3,326.0 L228.1,326.3 L228.9,326.0 L229.8,326.3 L230.6,326.0 L231.5,326.0 L232.3,325.7 L233.2,326.0 L234.0,326.3 L234.8,326.3 L235.7,326.3 L236.5,325.4 L237.4,325.4 L238.2,325.4 L239.0,325.4 L239.9,325.4 L240.7,325.4 L241.6,325.4 L242.4,325.4 L243.3,325.4 L244.1,325.4 L244.9,325.4 L245.8,326.3 L246.6,326.6 L247.5,326.6 L248.3,326.3 L249.1,326.9 L250.0,326.6 L250.8,326.6 L251.7,326.6 L252.5,326.9 L253.4,326.9 L254.2,326.9 L255.0,326.9 L255.9,326.9 L256.7,326.9 L257.6,326.9 L258.4,326.9 L259.2,326.6 L260.1,326.9 L260.9,326.6 L261.8,326.9 L262.6,326.9 L263.5,326.6 L264.3,326.6 L265.1,326.9 L266.0,326.6 L266.8,324.8 L267.7,342.4 L268.5,342.1 L269.3,342.4 L270.2,342.1 L271.0,342.1 L271.9,341.5 L272.7,341.2 L273.5,340.9 L274.4,341.2 L275.2,340.9 L276.1,340.9 L276.9,340.6 L277.8,340.9 L278.6,340.9 L279.4,340.0 L280.3,340.0 L281.1,340.0 L282.0,340.3 L282.8,340.3 L283.6,340.3 L284.5,340.9 L285.3,340.6 L286.2,340.3 L287.0,340.6 L287.9,341.2 L288.7,381.9 L289.5,383.1 L290.4,382.8 L291.2,381.9 L292.1,382.2 L292.9,382.2 L293.7,382.2 L294.6,381.9 L295.4,382.2 L296.3,341.2 L297.1,340.9 L298.0,340.9 L298.8,342.1 L299.6,342.4 L300.5,343.6 L301.3,343.6 L302.2,343.6 L303.0,343.6 L303.8,343.6 L304.7,343.0 L305.5,342.4 L306.4,341.8 L307.2,342.4 L308.1,342.7 L308.9,342.4 L309.7,342.7 L310.6,342.4 L311.4,342.4 L312.3,342.1 L313.1,342.1 L313.9,342.4 L314.8,342.4 L315.6,342.7 L316.5,342.7 L317.3,342.7 L318.1,343.0 L319.0,342.7 L319.8,343.0 L320.7,343.0 L321.5,343.0 L322.4,343.0 L323.2,343.3 L324.0,343.0 L324.9,343.0 L325.7,342.7 L326.6,342.7 L327.4,342.7 L328.2,343.6 L329.1,343.0 L329.9,344.2 L330.8,344.2 L331.6,343.6 L332.5,343.6 L333.3,344.2 L334.1,342.1 L335.0,342.1 L335.8,342.1 L336.7,342.4 L337.5,342.4 L338.3,342.4 L339.2,342.4 L340.0,342.1 L340.9,342.1 L341.7,342.4 L342.6,342.1 L343.4,342.7 L344.2,342.7 L345.1,343.3 L345.9,343.3 L346.8,342.4 L347.6,342.7 L348.4,342.7 L349.3,344.8 L350.1,344.5 L351.0,344.5 L351.8,344.5 L352.7,345.1 L353.5,345.1 L354.3,345.1 L355.2,344.5 L356.0,343.6 L356.9,343.9 L357.7,343.3 L358.5,343.3 L359.4,343.6 L360.2,343.3 L361.1,343.3 L361.9,343.3 L362.7,343.3 L363.6,343.3 L364.4,343.3 L365.3,343.6 L366.1,343.3 L367.0,343.6 L367.8,343.9 L368.6,344.8 L369.5,344.8 L370.3,344.5 L371.2,344.2 L372.0,344.5 L372.8,343.9 L373.7,343.3 L374.5,343.6 L375.4,342.4 L376.2,342.1 L377.1,342.1 L377.9,342.7 L378.7,342.7 L379.6,342.7 L380.4,342.7 L381.3,342.7 L382.1,342.7 L382.9,342.7 L383.8,342.4 L384.6,342.7 L385.5,342.4 L386.3,342.4 L387.2,342.7 L388.0,343.6 L388.8,343.9 L389.7,343.9 L390.5,343.9 L391.4,343.6 L392.2,342.4 L393.0,342.4 L393.9,342.4 L394.7,341.5 L395.6,341.8 L396.4,341.5 L397.3,341.5 L398.1,341.8 L398.9,342.4 L399.8,342.7 L400.6,342.7 L401.5,342.7 L402.3,341.5 L403.1,341.5 L404.0,341.8 L404.8,340.9 L405.7,340.9 L406.5,340.9 L407.3,340.6 L408.2,342.1 L409.0,342.4 L409.9,342.1 L410.7,341.2 L411.6,354.0 L412.4,353.7 L413.2,353.4 L414.1,353.4 L414.9,353.4 L415.8,353.7 L416.6,354.0 L417.4,353.4 L418.3,340.6 L419.1,340.9 L420.0,340.9 L420.8,341.2 L421.7,340.9 L422.5,340.9 L423.3,341.2 L424.2,340.9 L425.0,340.9 L425.9,340.9 L426.7,341.2 L427.5,340.3 L428.4,342.1 L429.2,344.8 L430.1,344.8 L430.9,344.8 L431.8,345.1 L432.6,344.2 L433.4,344.5 L434.3,344.2 L435.1,344.8 L436.0,345.1 L436.8,345.4 L437.6,345.1 L438.5,345.4 L439.3,345.1 L440.2,344.8 L441.0,345.4 L441.9,344.5 L442.7,344.2 L443.5,344.2 L444.4,344.5 L445.2,343.9 L446.1,343.9 L446.9,344.2 L447.7,343.0 L448.6,343.3 L449.4,343.6 L450.3,343.9 L451.1,344.2 L451.9,344.2 L452.8,344.5 L453.6,344.2 L454.5,344.8 L455.3,344.2 L456.2,345.1 L457.0,345.4 L457.8,345.1 L458.7,345.7 L459.5,345.4 L460.4,345.7 L461.2,346.8 L462.0,346.6 L462.9,346.8 L463.7,345.4 L464.6,345.1 L465.4,344.8 L466.3,343.9 L467.1,343.9 L467.9,343.3 L468.8,343.3 L469.6,343.6 L470.5,343.3 L471.3,343.3 L472.1,343.3 L473.0,343.3 L473.8,344.5 L474.7,343.9 L475.5,343.9 L476.4,343.9 L477.2,343.9 L478.0,346.6 L478.9,348.0 L479.7,348.0 L480.6,348.6 L481.4,348.6 L482.2,348.3 L483.1,346.8 L483.9,346.3 L484.8,346.6 L485.6,346.0 L486.5,346.0 L487.3,346.0 L488.1,345.7 L489.0,346.0 L489.8,345.7 L490.7,345.4 L491.5,345.4 L492.3,344.2 L493.2,344.2 L494.0,343.9 L494.9,344.5 L495.7,344.2 L496.5,344.5 L497.4,344.8 L498.2,332.6 L499.1,332.9 L499.9,333.2 L500.8,332.6 L501.6,332.3 L502.4,332.3 L503.3,332.0 L504.1,332.0 L505.0,332.6 L505.8,332.6 L506.6,332.6 L507.5,332.6 L508.3,332.9 L509.2,332.9 L510.0,332.6 L510.9,332.6 L511.7,332.3 L512.5,332.3 L513.4,332.6 L514.2,358.1 L515.1,364.7 L515.9,364.4 L516.7,364.7 L517.6,365.6 L518.4,351.6 L519.3,332.3 L520.1,332.9 L521.0,333.2 L521.8,333.2 L522.6,333.5 L523.5,333.5 L524.3,333.5 L525.2,332.9 L526.0,332.6 L526.8,332.0 L527.7,332.0 L528.5,332.0 L529.4,332.3 L530.2,332.3 L531.1,332.3 L531.9,353.4 L532.7,353.4 L533.6,353.7 L534.4,353.4 L535.3,353.7 L536.1,353.7 L536.9,353.7 L537.8,333.2 L538.6,332.9 L539.5,332.9 L540.3,333.8 L541.2,333.8 L542.0,333.5 L542.8,333.8 L543.7,333.8 L544.5,333.8 L545.4,333.8 L546.2,333.8 L547.0,333.8 L547.9,333.8 L548.7,333.8 L549.6,334.4 L550.4,335.5 L551.2,337.0 L552.1,338.8 L552.9,337.3 L553.8,337.3 L554.6,337.0 L555.5,337.3 L556.3,336.7 L557.1,335.3 L558.0,335.3 L558.8,335.0 L559.7,335.3 L560.5,335.8 L561.3,335.5 L562.2,335.8 L563.0,335.8 L563.9,335.8 L564.7,335.8 L565.6,335.8 L566.4,335.8 L567.2,335.8 L568.1,335.5 L568.9,335.8 L569.8,335.8 L570.6,335.5 L571.4,335.5 L572.3,335.5 L573.1,336.1 L574.0,336.7 L574.8,340.0 L575.7,337.3 L576.5,337.3 L577.3,337.3 L578.2,337.3 L579.0,337.3 L579.9,336.7 L580.7,336.7 L581.5,336.7 L582.4,337.0 L583.2,337.0 L584.1,337.0 L584.9,337.0 L585.8,336.7 L586.6,336.7 L587.4,336.7 L588.3,336.4 L589.1,337.0 L590.0,336.7 L590.8,335.5 L591.6,335.5 L592.5,337.9 L593.3,336.1 L594.2,335.8 L595.0,335.8 L595.8,336.1 L596.7,335.8 L597.5,336.1 L598.4,336.1 L599.2,335.8 L600.1,336.4 L600.9,336.4 L601.7,337.6 L602.6,336.7 L603.4,337.0 L604.3,337.9 L605.1,337.9 L605.9,337.9 L606.8,337.9 L607.6,338.2 L608.5,338.2 L609.3,337.6 L610.2,337.6 L611.0,337.0 L611.8,336.7 L612.7,336.7 L613.5,336.7 L614.4,336.1 L615.2,336.7 L616.0,336.7 L616.9,336.7 L617.7,336.7 L618.6,335.5 L619.4,335.5 L620.3,335.5 L621.1,335.5 L621.9,335.5 L622.8,335.3 L623.6,335.5 L624.5,335.5 L625.3,335.3 L626.1,335.5 L627.0,335.5 L627.8,335.5 L628.7,336.1 L629.5,336.1 L630.4,336.7 L631.2,336.1 L632.0,336.4 L632.9,338.2 L633.7,336.1 L634.6,336.1 L635.4,336.4 L636.2,335.8 L637.1,336.4 L637.9,336.1 L638.8,335.0 L639.6,334.7 L640.4,335.0 L641.3,334.1 L642.1,334.1 L643.0,332.6 L643.8,332.9 L644.7,332.6 L645.5,332.6 L646.3,331.7 L647.2,332.0 L648.0,331.7 L648.9,331.7 L649.7,331.4 L650.5,332.9 L651.4,333.2 L652.2,332.9 L653.1,332.9 L653.9,332.6 L654.8,333.8 L655.6,333.5 L656.4,333.8 L657.3,333.2 L658.1,333.8 L659.0,334.4 L659.8,334.4 L660.6,333.8 L661.5,334.1 L662.3,334.1 L663.2,334.1 L664.0,334.1 L664.9,334.1 L665.7,334.1 L666.5,334.1 L667.4,334.1 L668.2,334.1 L669.1,334.4 L669.9,334.7 L670.7,334.7 L671.6,334.7 L672.4,334.7 L673.3,334.7 L674.1,334.7 L675.0,335.3 L675.8,335.0 L676.6,335.5 L677.5,335.8 L678.3,335.5 L679.2,336.1 L680.0,335.8" stroke="#ff7f0e" stroke-width="2" fill="none" opacity="0.8"/>
<!-- Thermal Generation -->
<path d="M80.0,355.8 L80.8,355.8 L81.7,355.8 L82.5,356.1 L83.4,356.1 L84.2,355.5 L85.0,355.2 L85.9,372.7 L86.7,374.5 L87.6,373.9 L88.4,373.6 L89.3,373.9 L90.1,370.9 L90.9,356.4 L91.8,356.1 L92.6,356.4 L93.5,356.1 L94.3,356.1 L95.1,355.8 L96.0,320.4 L96.8,311.8 L97.7,344.2 L98.5,356.1 L99.4,355.8 L100.2,355.8 L101.0,356.1 L101.9,356.4 L102.7,356.1 L103.6,356.1 L104.4,356.1 L105.2,356.1 L106.1,356.7 L106.9,365.0 L107.8,365.3 L108.6,355.5 L109.5,355.8 L110.3,355.5 L111.1,355.2 L112.0,355.8 L112.8,355.5 L113.7,355.5 L114.5,356.1 L115.3,355.8 L116.2,356.1 L117.0,355.8 L117.9,355.8 L118.7,356.4 L119.6,356.7 L120.4,356.4 L121.2,356.1 L122.1,356.1 L122.9,337.6 L123.8,337.6 L124.6,296.6 L125.4,226.1 L126.3,273.7 L127.1,265.4 L128.0,283.2 L128.8,282.9 L129.6,273.1 L130.5,273.7 L131.3,315.3 L132.2,356.4 L133.0,355.8 L133.9,355.8 L134.7,332.6 L135.5,264.5 L136.4,239.2 L137.2,231.2 L138.1,253.8 L138.9,251.1 L139.7,224.0 L140.6,355.8 L141.4,355.5 L142.3,338.8 L143.1,283.2 L144.0,263.9 L144.8,223.7 L145.6,223.7 L146.5,223.4 L147.3,223.1 L148.2,222.3 L149.0,223.7 L149.8,223.1 L150.7,227.6 L151.5,223.7 L152.4,221.7 L153.2,221.4 L154.1,222.0 L154.9,222.5 L155.7,235.6 L156.6,222.8 L157.4,222.8 L158.3,223.4 L159.1,239.8 L159.9,256.2 L160.8,224.9 L161.6,223.1 L162.5,222.8 L163.3,223.1 L164.2,225.5 L165.0,222.8 L165.8,224.0 L166.7,247.8 L167.5,236.8 L168.4,284.4 L169.2,285.3 L170.0,282.3 L170.9,288.9 L171.7,269.2 L172.6,280.5 L173.4,295.1 L174.2,319.5 L175.1,248.1 L175.9,234.1 L176.8,223.7 L177.6,281.4 L178.5,292.7 L179.3,311.5 L180.1,346.8 L181.0,355.5 L181.8,354.0 L182.7,353.7 L183.5,352.5 L184.3,331.4 L185.2,293.3 L186.0,255.6 L186.9,284.7 L187.7,309.7 L188.6,308.5 L189.4,308.2 L190.2,307.6 L191.1,307.0 L191.9,343.6 L192.8,355.8 L193.6,355.8 L194.4,355.2 L195.3,354.9 L196.1,355.2 L197.0,355.5 L197.8,356.1 L198.7,355.8 L199.5,356.1 L200.3,355.8 L201.2,355.8 L202.0,355.5 L202.9,355.2 L203.7,354.9 L204.5,355.8 L205.4,349.8 L206.2,351.3 L207.1,352.2 L207.9,351.3 L208.8,349.2 L209.6,348.6 L210.4,355.8 L211.3,356.1 L212.1,355.8 L213.0,356.1 L213.8,355.8 L214.6,355.8 L215.5,355.8 L216.3,356.4 L217.2,321.3 L218.0,355.8 L218.8,355.5 L219.7,355.8 L220.5,355.8 L221.4,355.8 L222.2,356.1 L223.1,355.5 L223.9,355.5 L224.7,355.8 L225.6,349.8 L226.4,356.1 L227.3,371.5 L228.1,374.2 L228.9,374.2 L229.8,374.2 L230.6,374.2 L231.5,356.1 L232.3,356.1 L233.2,355.8 L234.0,355.8 L234.8,356.1 L235.7,355.5 L236.5,305.8 L237.4,269.8 L238.2,247.5 L239.0,246.6 L239.9,257.9 L240.7,270.1 L241.6,282.0 L242.4,307.0 L243.3,306.4 L244.1,326.3 L244.9,324.0 L245.8,257.0 L246.6,290.6 L247.5,324.0 L248.3,335.3 L249.1,355.8 L250.0,356.1 L250.8,355.8 L251.7,356.1 L252.5,356.1 L253.4,356.1 L254.2,355.8 L255.0,355.5 L255.9,317.4 L256.7,285.9 L257.6,305.2 L258.4,305.2 L259.2,314.7 L260.1,355.8 L260.9,355.5 L261.8,356.4 L262.6,355.8 L263.5,355.8 L264.3,356.1 L265.1,334.4 L266.0,263.6 L266.8,282.0 L267.7,291.2 L268.5,299.0 L269.3,311.2 L270.2,312.4 L271.0,312.4 L271.9,312.1 L272.7,310.6 L273.5,312.1 L274.4,312.1 L275.2,312.1 L276.1,312.4 L276.9,306.4 L277.8,312.1 L278.6,312.4 L279.4,312.1 L280.3,311.8 L281.1,312.4 L282.0,311.8 L282.8,311.5 L283.6,311.5 L284.5,311.8 L285.3,311.5 L286.2,311.8 L287.0,312.7 L287.9,264.8 L288.7,312.1 L289.5,312.1 L290.4,312.7 L291.2,312.9 L292.1,313.8 L292.9,346.3 L293.7,357.0 L294.6,357.0 L295.4,357.6 L296.3,357.6 L297.1,357.0 L298.0,357.3 L298.8,355.8 L299.6,356.4 L300.5,355.8 L301.3,356.4 L302.2,362.0 L303.0,356.1 L303.8,356.4 L304.7,355.8 L305.5,355.5 L306.4,273.7 L307.2,258.2 L308.1,299.3 L308.9,335.8 L309.7,346.8 L310.6,355.8 L311.4,352.8 L312.3,351.9 L313.1,355.8 L313.9,353.1 L314.8,355.8 L315.6,319.8 L316.5,290.6 L317.3,240.7 L318.1,237.1 L319.0,226.1 L319.8,247.8 L320.7,248.7 L321.5,247.8 L322.4,252.3 L323.2,254.7 L324.0,257.3 L324.9,251.7 L325.7,252.3 L326.6,238.9 L327.4,227.6 L328.2,255.6 L329.1,269.8 L329.9,271.0 L330.8,289.5 L331.6,299.3 L332.5,311.5 L333.3,320.4 L334.1,318.6 L335.0,318.3 L335.8,320.7 L336.7,252.0 L337.5,230.0 L338.3,248.4 L339.2,254.4 L340.0,315.6 L340.9,314.4 L341.7,337.9 L342.6,275.5 L343.4,263.9 L344.2,246.3 L345.1,237.4 L345.9,229.1 L346.8,229.7 L347.6,227.0 L348.4,229.7 L349.3,231.2 L350.1,229.4 L351.0,246.9 L351.8,248.7 L352.7,260.3 L353.5,305.2 L354.3,279.6 L355.2,317.1 L356.0,308.8 L356.9,255.9 L357.7,231.8 L358.5,228.8 L359.4,246.0 L360.2,239.8 L361.1,250.8 L361.9,299.0 L362.7,299.3 L363.6,311.2 L364.4,310.6 L365.3,310.9 L366.1,310.6 L367.0,296.3 L367.8,307.9 L368.6,355.8 L369.5,343.9 L370.3,355.2 L371.2,355.8 L372.0,357.0 L372.8,356.7 L373.7,354.0 L374.5,355.2 L375.4,355.8 L376.2,356.1 L377.1,352.5 L377.9,319.5 L378.7,296.9 L379.6,296.3 L380.4,340.9 L381.3,355.2 L382.1,355.2 L382.9,354.9 L383.8,354.3 L384.6,354.6 L385.5,354.3 L386.3,354.6 L387.2,355.5 L388.0,353.7 L388.8,356.1 L389.7,354.9 L390.5,355.8 L391.4,341.2 L392.2,344.2 L393.0,343.9 L393.9,320.4 L394.7,323.4 L395.6,306.1 L396.4,296.6 L397.3,296.6 L398.1,311.2 L398.9,312.9 L399.8,314.1 L400.6,312.9 L401.5,355.5 L402.3,355.5 L403.1,355.8 L404.0,355.2 L404.8,355.8 L405.7,354.9 L406.5,354.9 L407.3,355.8 L408.2,356.1 L409.0,355.8 L409.9,355.2 L410.7,356.7 L411.6,356.1 L412.4,355.8 L413.2,356.1 L414.1,347.7 L414.9,337.9 L415.8,338.5 L416.6,351.9 L417.4,356.1 L418.3,355.5 L419.1,356.1 L420.0,355.5 L420.8,356.1 L421.7,355.8 L422.5,355.8 L423.3,355.5 L424.2,355.2 L425.0,355.2 L425.9,354.9 L426.7,354.9 L427.5,355.5 L428.4,339.1 L429.2,338.5 L430.1,321.9 L430.9,348.0 L431.8,335.0 L432.6,339.1 L433.4,338.8 L434.3,354.3 L435.1,353.7 L436.0,353.7 L436.8,356.1 L437.6,355.8 L438.5,342.1 L439.3,344.5 L440.2,349.2 L441.0,343.9 L441.9,338.5 L442.7,338.2 L443.5,355.8 L444.4,355.5 L445.2,355.5 L446.1,356.1 L446.9,343.9 L447.7,344.5 L448.6,317.4 L449.4,334.4 L450.3,356.1 L451.1,356.1 L451.9,356.4 L452.8,356.7 L453.6,356.4 L454.5,356.4 L455.3,356.1 L456.2,356.1 L457.0,356.1 L457.8,356.1 L458.7,325.7 L459.5,327.2 L460.4,296.9 L461.2,309.1 L462.0,332.3 L462.9,356.1 L463.7,355.8 L464.6,355.8 L465.4,355.8 L466.3,356.4 L467.1,355.8 L467.9,332.0 L468.8,311.8 L469.6,332.9 L470.5,332.3 L471.3,343.9 L472.1,355.5 L473.0,355.8 L473.8,356.1 L474.7,356.1 L475.5,355.8 L476.4,355.8 L477.2,355.8 L478.0,355.8 L478.9,356.7 L479.7,356.7 L480.6,355.8 L481.4,355.8 L482.2,344.5 L483.1,356.4 L483.9,355.8 L484.8,355.5 L485.6,355.5 L486.5,356.1 L487.3,356.4 L488.1,337.9 L489.0,323.7 L489.8,323.4 L490.7,324.0 L491.5,338.5 L492.3,356.4 L493.2,355.8 L494.0,356.7 L494.9,356.1 L495.7,355.8 L496.5,355.8 L497.4,355.8 L498.2,355.5 L499.1,313.2 L499.9,330.2 L500.8,318.6 L501.6,315.0 L502.4,312.4 L503.3,318.0 L504.1,326.9 L505.0,330.5 L505.8,330.8 L506.6,341.2 L507.5,355.8 L508.3,343.9 L509.2,340.3 L510.0,340.9 L510.9,355.8 L511.7,355.5 L512.5,355.8 L513.4,356.1 L514.2,356.4 L515.1,355.8 L515.9,355.8 L516.7,355.5 L517.6,356.4 L518.4,355.8 L519.3,341.8 L520.1,313.5 L521.0,313.8 L521.8,316.5 L522.6,323.4 L523.5,320.4 L524.3,348.3 L525.2,351.6 L526.0,356.1 L526.8,355.5 L527.7,355.5 L528.5,355.8 L529.4,355.2 L530.2,349.2 L531.1,355.5 L531.9,355.2 L532.7,355.5 L533.6,354.9 L534.4,355.2 L535.3,354.9 L536.1,355.5 L536.9,356.1 L537.8,355.8 L538.6,321.3 L539.5,306.4 L540.3,275.5 L541.2,254.7 L542.0,253.2 L542.8,252.3 L543.7,288.9 L544.5,334.1 L545.4,356.1 L546.2,356.1 L547.0,356.1 L547.9,333.5 L548.7,310.0 L549.6,321.6 L550.4,344.8 L551.2,348.6 L552.1,356.4 L552.9,354.0 L553.8,356.4 L554.6,357.0 L555.5,333.5 L556.3,343.6 L557.1,354.0 L558.0,356.4 L558.8,301.6 L559.7,240.7 L560.5,227.6 L561.3,227.3 L562.2,260.3 L563.0,293.6 L563.9,316.5 L564.7,341.8 L565.6,343.9 L566.4,355.8 L567.2,355.2 L568.1,355.2 L568.9,356.4 L569.8,356.1 L570.6,357.3 L571.4,352.8 L572.3,352.2 L573.1,352.8 L574.0,347.4 L574.8,349.5 L575.7,351.3 L576.5,351.6 L577.3,351.6 L578.2,351.0 L579.0,347.4 L579.9,325.1 L580.7,308.8 L581.5,312.1 L582.4,338.2 L583.2,355.5 L584.1,355.8 L584.9,355.5 L585.8,355.2 L586.6,355.8 L587.4,355.5 L588.3,355.5 L589.1,356.1 L590.0,356.4 L590.8,356.4 L591.6,356.4 L592.5,357.3 L593.3,357.6 L594.2,357.0 L595.0,357.3 L595.8,355.8 L596.7,356.1 L597.5,355.8 L598.4,356.1 L599.2,352.8 L600.1,355.2 L600.9,355.5 L601.7,355.8 L602.6,373.3 L603.4,373.6 L604.3,373.3 L605.1,355.5 L605.9,355.2 L606.8,354.9 L607.6,355.8 L608.5,355.5 L609.3,356.4 L610.2,356.7 L611.0,356.7 L611.8,356.1 L612.7,356.1 L613.5,356.1 L614.4,311.8 L615.2,305.5 L616.0,308.5 L616.9,305.5 L617.7,355.8 L618.6,356.1 L619.4,355.2 L620.3,356.1 L621.1,356.1 L621.9,355.8 L622.8,355.5 L623.6,345.1 L624.5,355.8 L625.3,355.2 L626.1,355.2 L627.0,355.2 L627.8,339.1 L628.7,340.6 L629.5,352.5 L630.4,344.2 L631.2,306.7 L632.0,305.5 L632.9,308.8 L633.7,308.2 L634.6,355.5 L635.4,355.5 L636.2,356.1 L637.1,352.8 L637.9,355.8 L638.8,355.5 L639.6,355.5 L640.4,356.1 L641.3,356.4 L642.1,356.1 L643.0,356.1 L643.8,356.1 L644.7,355.8 L645.5,356.1 L646.3,310.9 L647.2,305.2 L648.0,306.1 L648.9,304.9 L649.7,348.6 L650.5,348.3 L651.4,348.9 L652.2,348.3 L653.1,348.3 L653.9,355.5 L654.8,355.5 L655.6,355.2 L656.4,355.5 L657.3,355.2 L658.1,354.9 L659.0,355.2 L659.8,327.8 L660.6,328.1 L661.5,274.3 L662.3,272.8 L663.2,347.1 L664.0,355.2 L664.9,356.1 L665.7,369.7 L666.5,370.6 L667.4,356.1 L668.2,355.5 L669.1,355.8 L669.9,355.8 L670.7,354.9 L671.6,355.2 L672.4,355.5 L673.3,355.8 L674.1,355.5 L675.0,355.5 L675.8,355.8 L676.6,355.8 L677.5,355.5 L678.3,355.5 L679.2,355.5 L680.0,355.8" stroke="#2ca02c" stroke-width="2" fill="none" opacity="0.8"/>
<!-- Solar Generation -->
<path d="M80.0,420.0 L80.8,420.0 L81.7,420.0 L82.5,420.0 L83.4,420.0 L84.2,420.0 L85.0,417.9 L85.9,415.2 L86.7,413.8 L87.6,411.7 L88.4,404.5 L89.3,400.4 L90.1,405.7 L90.9,400.4 L91.8,407.8 L92.6,411.1 L93.5,415.2 L94.3,417.6 L95.1,420.0 L96.0,420.0 L96.8,420.0 L97.7,420.0 L98.5,420.0 L99.4,420.0 L100.2,420.0 L101.0,420.0 L101.9,420.0 L102.7,420.0 L103.6,420.0 L104.4,420.0 L105.2,414.4 L106.1,403.6 L106.9,400.7 L107.8,400.4 L108.6,401.6 L109.5,401.3 L110.3,401.6 L111.1,403.3 L112.0,400.4 L112.8,401.0 L113.7,416.4 L114.5,417.9 L115.3,420.0 L116.2,420.0 L117.0,420.0 L117.9,420.0 L118.7,420.0 L119.6,420.0 L120.4,420.0 L121.2,420.0 L122.1,420.0 L122.9,420.0 L123.8,420.0 L124.6,420.0 L125.4,417.9 L126.3,397.1 L127.1,408.4 L128.0,387.9 L128.8,383.7 L129.6,386.4 L130.5,378.4 L131.3,400.7 L132.2,399.5 L133.0,409.9 L133.9,414.4 L134.7,418.5 L135.5,420.0 L136.4,420.0 L137.2,420.0 L138.1,420.0 L138.9,420.0 L139.7,420.0 L140.6,420.0 L141.4,420.0 L142.3,420.0 L143.1,420.0 L144.0,420.0 L144.8,420.0 L145.6,419.4 L146.5,415.8 L147.3,412.9 L148.2,405.7 L149.0,397.4 L149.8,401.9 L150.7,388.5 L151.5,402.8 L152.4,401.6 L153.2,413.8 L154.1,416.1 L154.9,416.1 L155.7,420.0 L156.6,420.0 L157.4,420.0 L158.3,420.0 L159.1,420.0 L159.9,420.0 L160.8,420.0 L161.6,420.0 L162.5,420.0 L163.3,420.0 L164.2,420.0 L165.0,420.0 L165.8,419.4 L166.7,413.8 L167.5,402.5 L168.4,386.1 L169.2,392.6 L170.0,383.7 L170.9,385.8 L171.7,398.0 L172.6,396.5 L173.4,404.8 L174.2,406.3 L175.1,414.9 L175.9,420.0 L176.8,420.0 L177.6,420.0 L178.5,420.0 L179.3,420.0 L180.1,420.0 L181.0,420.0 L181.8,420.0 L182.7,420.0 L183.5,420.0 L184.3,420.0 L185.2,420.0 L186.0,418.5 L186.9,403.3 L187.7,414.6 L188.6,414.6 L189.4,412.3 L190.2,413.5 L191.1,402.2 L191.9,401.6 L192.8,415.8 L193.6,417.0 L194.4,417.9 L195.3,418.2 L196.1,420.0 L197.0,420.0 L197.8,420.0 L198.7,420.0 L199.5,420.0 L200.3,420.0 L201.2,420.0 L202.0,420.0 L202.9,420.0 L203.7,420.0 L204.5,420.0 L205.4,420.0 L206.2,419.4 L207.1,417.9 L207.9,417.6 L208.8,416.1 L209.6,412.3 L210.4,412.0 L211.3,411.1 L212.1,411.4 L213.0,410.5 L213.8,413.5 L214.6,414.6 L215.5,407.2 L216.3,419.4 L217.2,420.0 L218.0,420.0 L218.8,420.0 L219.7,420.0 L220.5,420.0 L221.4,420.0 L222.2,420.0 L223.1,420.0 L223.9,420.0 L224.7,420.0 L225.6,420.0 L226.4,409.6 L227.3,401.6 L228.1,400.1 L228.9,400.4 L229.8,399.5 L230.6,401.6 L231.5,404.2 L232.3,401.0 L233.2,399.8 L234.0,409.6 L234.8,379.6 L235.7,404.8 L236.5,419.4 L237.4,420.0 L238.2,420.0 L239.0,420.0 L239.9,420.0 L240.7,420.0 L241.6,420.0 L242.4,420.0 L243.3,420.0 L244.1,420.0 L244.9,420.0 L245.8,420.0 L246.6,408.4 L247.5,383.7 L248.3,395.3 L249.1,399.8 L250.0,399.5 L250.8,399.8 L251.7,399.2 L252.5,399.8 L253.4,399.8 L254.2,380.2 L255.0,403.3 L255.9,409.0 L256.7,419.7 L257.6,420.0 L258.4,420.0 L259.2,420.0 L260.1,420.0 L260.9,420.0 L261.8,420.0 L262.6,420.0 L263.5,420.0 L264.3,420.0 L265.1,420.0 L266.0,420.0 L266.8,414.9 L267.7,395.0 L268.5,381.3 L269.3,394.1 L270.2,383.7 L271.0,384.3 L271.9,386.4 L272.7,384.9 L273.5,402.2 L274.4,396.8 L275.2,412.0 L276.1,401.0 L276.9,419.1 L277.8,420.0 L278.6,420.0 L279.4,420.0 L280.3,420.0 L281.1,420.0 L282.0,420.0 L282.8,420.0 L283.6,420.0 L284.5,420.0 L285.3,420.0 L286.2,420.0 L287.0,409.3 L287.9,402.2 L288.7,400.7 L289.5,400.4 L290.4,402.2 L291.2,402.8 L292.1,405.4 L292.9,409.9 L293.7,410.5 L294.6,415.2 L295.4,412.6 L296.3,407.5 L297.1,419.4 L298.0,420.0 L298.8,420.0 L299.6,420.0 L300.5,420.0 L301.3,420.0 L302.2,420.0 L303.0,420.0 L303.8,420.0 L304.7,420.0 L305.5,420.0 L306.4,420.0 L307.2,406.9 L308.1,381.0 L308.9,377.5 L309.7,377.2 L310.6,376.6 L311.4,376.9 L312.3,382.2 L313.1,403.3 L313.9,400.1 L314.8,400.4 L315.6,390.0 L316.5,408.4 L317.3,418.2 L318.1,420.0 L319.0,420.0 L319.8,420.0 L320.7,420.0 L321.5,420.0 L322.4,420.0 L323.2,420.0 L324.0,420.0 L324.9,420.0 L325.7,420.0 L326.6,420.0 L327.4,405.7 L328.2,381.3 L329.1,377.5 L329.9,377.2 L330.8,376.6 L331.6,376.6 L332.5,376.6 L333.3,376.6 L334.1,376.9 L335.0,377.5 L335.8,378.4 L336.7,398.6 L337.5,419.1 L338.3,420.0 L339.2,420.0 L340.0,420.0 L340.9,420.0 L341.7,420.0 L342.6,420.0 L343.4,420.0 L344.2,420.0 L345.1,420.0 L345.9,420.0 L346.8,420.0 L347.6,408.7 L348.4,382.8 L349.3,378.1 L350.1,377.5 L351.0,377.8 L351.8,381.0 L352.7,390.3 L353.5,381.0 L354.3,382.8 L355.2,392.9 L356.0,409.3 L356.9,412.3 L357.7,419.7 L358.5,420.0 L359.4,420.0 L360.2,420.0 L361.1,420.0 L361.9,420.0 L362.7,420.0 L363.6,420.0 L364.4,420.0 L365.3,420.0 L366.1,420.0 L367.0,420.0 L367.8,414.9 L368.6,407.8 L369.5,406.6 L370.3,401.9 L371.2,401.0 L372.0,404.2 L372.8,401.3 L373.7,403.9 L374.5,407.8 L375.4,403.9 L376.2,417.0 L377.1,419.4 L377.9,418.8 L378.7,420.0 L379.6,420.0 L380.4,420.0 L381.3,420.0 L382.1,420.0 L382.9,420.0 L383.8,420.0 L384.6,420.0 L385.5,420.0 L386.3,420.0 L387.2,420.0 L388.0,404.2 L388.8,389.1 L389.7,396.8 L390.5,395.3 L391.4,391.8 L392.2,387.9 L393.0,396.5 L393.9,403.1 L394.7,406.6 L395.6,415.2 L396.4,404.5 L397.3,416.4 L398.1,418.8 L398.9,420.0 L399.8,420.0 L400.6,420.0 L401.5,420.0 L402.3,420.0 L403.1,420.0 L404.0,420.0 L404.8,420.0 L405.7,420.0 L406.5,420.0 L407.3,420.0 L408.2,415.5 L409.0,393.5 L409.9,415.8 L410.7,411.7 L411.6,408.4 L412.4,407.8 L413.2,407.5 L414.1,409.6 L414.9,410.2 L415.8,415.8 L416.6,415.2 L417.4,399.2 L418.3,417.6 L419.1,420.0 L420.0,420.0 L420.8,420.0 L421.7,420.0 L422.5,420.0 L423.3,420.0 L424.2,420.0 L425.0,420.0 L425.9,420.0 L426.7,420.0 L427.5,419.7 L428.4,415.5 L429.2,379.0 L430.1,394.7 L430.9,390.6 L431.8,383.7 L432.6,391.5 L433.4,406.3 L434.3,382.8 L435.1,401.0 L436.0,405.7 L436.8,413.8 L437.6,408.1 L438.5,418.2 L439.3,420.0 L440.2,420.0 L441.0,420.0 L441.9,420.0 L442.7,420.0 L443.5,420.0 L444.4,420.0 L445.2,420.0 L446.1,420.0 L446.9,420.0 L447.7,419.7 L448.6,416.4 L449.4,415.8 L450.3,411.7 L451.1,403.9 L451.9,403.6 L452.8,398.0 L453.6,400.4 L454.5,393.2 L455.3,392.0 L456.2,394.7 L457.0,410.2 L457.8,411.7 L458.7,419.4 L459.5,420.0 L460.4,420.0 L461.2,420.0 L462.0,420.0 L462.9,420.0 L463.7,420.0 L464.6,420.0 L465.4,420.0 L466.3,420.0 L467.1,420.0 L467.9,419.7 L468.8,417.3 L469.6,403.1 L470.5,413.2 L471.3,407.8 L472.1,412.6 L473.0,408.4 L473.8,405.7 L474.7,411.4 L475.5,412.0 L476.4,412.9 L477.2,414.6 L478.0,415.5 L478.9,418.2 L479.7,420.0 L480.6,420.0 L481.4,420.0 L482.2,420.0 L483.1,420.0 L483.9,420.0 L484.8,420.0 L485.6,420.0 L486.5,420.0 L487.3,420.0 L488.1,418.5 L489.0,403.3 L489.8,395.3 L490.7,404.5 L491.5,405.1 L492.3,406.6 L493.2,406.3 L494.0,400.7 L494.9,398.0 L495.7,409.3 L496.5,412.0 L497.4,412.0 L498.2,401.0 L499.1,417.0 L499.9,420.0 L500.8,420.0 L501.6,420.0 L502.4,420.0 L503.3,420.0 L504.1,420.0 L505.0,420.0 L505.8,420.0 L506.6,420.0 L507.5,420.0 L508.3,419.1 L509.2,403.9 L510.0,401.0 L510.9,399.8 L511.7,399.5 L512.5,399.2 L513.4,398.9 L514.2,398.9 L515.1,376.0 L515.9,376.9 L516.7,400.4 L517.6,405.7 L518.4,402.5 L519.3,417.6 L520.1,420.0 L521.0,420.0 L521.8,420.0 L522.6,420.0 L523.5,420.0 L524.3,420.0 L525.2,420.0 L526.0,420.0 L526.8,420.0 L527.7,420.0 L528.5,419.1 L529.4,406.9 L530.2,400.4 L531.1,399.8 L531.9,399.8 L532.7,399.2 L533.6,399.2 L534.4,398.9 L535.3,399.2 L536.1,399.5 L536.9,399.8 L537.8,378.7 L538.6,394.4 L539.5,417.3 L540.3,420.0 L541.2,420.0 L542.0,420.0 L542.8,420.0 L543.7,420.0 L544.5,420.0 L545.4,420.0 L546.2,420.0 L547.0,420.0 L547.9,420.0 L548.7,419.4 L549.6,406.9 L550.4,401.3 L551.2,377.8 L552.1,377.5 L552.9,400.1 L553.8,399.8 L554.6,377.2 L555.5,377.8 L556.3,385.5 L557.1,387.9 L558.0,382.2 L558.8,401.0 L559.7,417.9 L560.5,420.0 L561.3,420.0 L562.2,420.0 L563.0,420.0 L563.9,420.0 L564.7,420.0 L565.6,420.0 L566.4,420.0 L567.2,420.0 L568.1,420.0 L568.9,418.5 L569.8,410.2 L570.6,381.9 L571.4,381.6 L572.3,381.0 L573.1,384.6 L574.0,389.4 L574.8,391.5 L575.7,392.9 L576.5,392.0 L577.3,404.5 L578.2,409.9 L579.0,412.0 L579.9,418.2 L580.7,420.0 L581.5,420.0 L582.4,420.0 L583.2,420.0 L584.1,420.0 L584.9,420.0 L585.8,420.0 L586.6,420.0 L587.4,420.0 L588.3,420.0 L589.1,419.7 L590.0,397.7 L590.8,400.4 L591.6,397.1 L592.5,397.1 L593.3,404.2 L594.2,410.2 L595.0,412.3 L595.8,413.5 L596.7,414.1 L597.5,401.3 L598.4,417.0 L599.2,418.2 L600.1,419.7 L600.9,420.0 L601.7,420.0 L602.6,420.0 L603.4,420.0 L604.3,420.0 L605.1,420.0 L605.9,420.0 L606.8,420.0 L607.6,420.0 L608.5,420.0 L609.3,419.7 L610.2,405.4 L611.0,413.8 L611.8,404.5 L612.7,403.3 L613.5,401.3 L614.4,400.4 L615.2,400.7 L616.0,412.3 L616.9,414.9 L617.7,415.5 L618.6,415.8 L619.4,416.7 L620.3,417.3 L621.1,419.4 L621.9,419.4 L622.8,419.4 L623.6,419.4 L624.5,419.4 L625.3,419.4 L626.1,419.4 L627.0,419.4 L627.8,419.4 L628.7,419.4 L629.5,418.2 L630.4,414.6 L631.2,391.5 L632.0,396.5 L632.9,401.3 L633.7,403.9 L634.6,405.4 L635.4,399.8 L636.2,402.5 L637.1,407.5 L637.9,413.8 L638.8,405.4 L639.6,415.2 L640.4,416.7 L641.3,420.0 L642.1,420.0 L643.0,420.0 L643.8,420.0 L644.7,420.0 L645.5,420.0 L646.3,420.0 L647.2,420.0 L648.0,420.0 L648.9,420.0 L649.7,419.1 L650.5,414.4 L651.4,403.9 L652.2,398.0 L653.1,385.5 L653.9,404.8 L654.8,409.9 L655.6,401.3 L656.4,408.1 L657.3,404.2 L658.1,394.7 L659.0,411.7 L659.8,406.0 L660.6,416.7 L661.5,420.0 L662.3,420.0 L663.2,420.0 L664.0,420.0 L664.9,420.0 L665.7,420.0 L666.5,420.0 L667.4,420.0 L668.2,420.0 L669.1,420.0 L669.9,418.5 L670.7,414.9 L671.6,407.8 L672.4,409.6 L673.3,409.3 L674.1,411.4 L675.0,412.6 L675.8,412.3 L676.6,413.2 L677.5,412.9 L678.3,414.9 L679.2,416.1 L680.0,415.2" stroke="#d62728" stroke-width="2" fill="none" opacity="0.8"/>
<!-- Forecast -->
<path d="M80.0,250.2 L80.8,253.8 L81.7,255.9 L82.5,255.9 L83.4,249.9 L84.2,241.9 L85.0,226.7 L85.9,205.3 L86.7,197.6 L87.6,198.8 L88.4,204.4 L89.3,207.1 L90.1,213.6 L90.9,219.9 L91.8,221.7 L92.6,218.1 L93.5,215.1 L94.3,214.5 L95.1,214.5 L96.0,213.0 L96.8,213.3 L97.7,224.9 L98.5,244.6 L99.4,255.3 L100.2,261.8 L101.0,266.6 L101.9,267.5 L102.7,266.3 L103.6,261.2 L104.4,252.0 L105.2,239.8 L106.1,221.4 L106.9,209.8 L107.8,208.0 L108.6,205.9 L109.5,207.4 L110.3,211.5 L111.1,214.8 L112.0,214.8 L112.8,214.2 L113.7,211.8 L114.5,207.4 L115.3,206.8 L116.2,207.4 L117.0,208.9 L117.9,222.0 L118.7,239.5 L119.6,254.1 L120.4,262.1 L121.2,266.6 L122.1,268.0 L122.9,266.0 L123.8,253.8 L124.6,226.4 L125.4,195.5 L126.3,176.2 L127.1,172.9 L128.0,173.2 L128.8,176.8 L129.6,179.1 L130.5,181.5 L131.3,183.6 L132.2,184.5 L133.0,184.8 L133.9,184.5 L134.7,188.9 L135.5,191.6 L136.4,191.6 L137.2,196.7 L138.1,215.1 L138.9,230.0 L139.7,250.8 L140.6,249.9 L141.4,250.8 L142.3,250.8 L143.1,247.5 L144.0,235.0 L144.8,207.4 L145.6,175.6 L146.5,158.9 L147.3,155.9 L148.2,158.9 L149.0,162.2 L149.8,167.2 L150.7,172.0 L151.5,176.5 L152.4,177.9 L153.2,177.6 L154.1,179.1 L154.9,182.4 L155.7,181.8 L156.6,178.5 L157.4,186.6 L158.3,205.9 L159.1,234.7 L159.9,244.0 L160.8,249.6 L161.6,254.1 L162.5,255.3 L163.3,252.6 L164.2,239.8 L165.0,213.0 L165.8,183.0 L166.7,165.5 L167.5,162.2 L168.4,164.6 L169.2,169.0 L170.0,173.8 L170.9,178.2 L171.7,181.5 L172.6,182.7 L173.4,183.6 L174.2,184.2 L175.1,188.6 L175.9,190.7 L176.8,189.8 L177.6,194.0 L178.5,213.6 L179.3,229.7 L180.1,249.3 L181.0,259.1 L181.8,262.7 L182.7,264.8 L183.5,262.4 L184.3,249.3 L185.2,221.7 L186.0,189.5 L186.9,169.0 L187.7,163.7 L188.6,164.0 L189.4,166.3 L190.2,169.6 L191.1,172.9 L191.9,175.6 L192.8,175.9 L193.6,174.1 L194.4,174.4 L195.3,178.5 L196.1,180.0 L197.0,177.6 L197.8,185.4 L198.7,205.0 L199.5,208.3 L200.3,236.8 L201.2,244.3 L202.0,248.7 L202.9,253.2 L203.7,254.1 L204.5,251.4 L205.4,239.8 L206.2,211.5 L207.1,179.4 L207.9,161.6 L208.8,156.8 L209.6,158.6 L210.4,160.7 L211.3,165.8 L212.1,169.6 L213.0,173.8 L213.8,175.3 L214.6,174.7 L215.5,176.2 L216.3,180.0 L217.2,180.6 L218.0,176.5 L218.8,184.5 L219.7,212.1 L220.5,227.3 L221.4,235.3 L222.2,240.4 L223.1,244.9 L223.9,247.5 L224.7,245.4 L225.6,239.8 L226.4,229.7 L227.3,214.8 L228.1,197.3 L228.9,187.5 L229.8,188.4 L230.6,194.6 L231.5,198.5 L232.3,202.3 L233.2,205.9 L234.0,209.5 L234.8,210.4 L235.7,209.8 L236.5,208.0 L237.4,206.8 L238.2,201.4 L239.0,202.6 L239.9,236.2 L240.7,238.3 L241.6,249.9 L242.4,257.0 L243.3,258.8 L244.1,258.2 L244.9,253.5 L245.8,246.0 L246.6,235.0 L247.5,218.1 L248.3,203.5 L249.1,204.1 L250.0,204.4 L250.8,206.5 L251.7,210.4 L252.5,213.9 L253.4,215.1 L254.2,216.6 L255.0,213.6 L255.9,208.9 L256.7,207.7 L257.6,204.4 L258.4,204.4 L259.2,219.9 L260.1,238.9 L260.9,251.7 L261.8,258.5 L262.6,261.8 L263.5,263.9 L264.3,260.9 L265.1,246.6 L266.0,220.2 L266.8,189.5 L267.7,170.8 L268.5,167.2 L269.3,168.7 L270.2,173.5 L271.0,177.3 L271.9,180.9 L272.7,183.6 L273.5,185.1 L274.4,185.7 L275.2,185.4 L276.1,190.1 L276.9,195.8 L277.8,194.9 L278.6,199.1 L279.4,216.6 L280.3,238.9 L281.1,253.2 L282.0,261.8 L282.8,266.3 L283.6,268.6 L284.5,266.0 L285.3,252.6 L286.2,228.8 L287.0,199.1 L287.9,181.2 L288.7,178.5 L289.5,177.9 L290.4,180.0 L291.2,180.9 L292.1,182.4 L292.9,184.5 L293.7,185.7 L294.6,186.0 L295.4,185.1 L296.3,189.8 L297.1,196.1 L298.0,196.1 L298.8,199.9 L299.6,217.5 L300.5,233.3 L301.3,252.0 L302.2,256.4 L303.0,257.9 L303.8,258.5 L304.7,255.0 L305.5,241.0 L306.4,214.5 L307.2,184.8 L308.1,166.9 L308.9,163.1 L309.7,164.9 L310.6,169.3 L311.4,174.1 L312.3,177.9 L313.1,181.2 L313.9,182.7 L314.8,183.3 L315.6,184.2 L316.5,187.8 L317.3,189.5 L318.1,187.2 L319.0,190.4 L319.8,210.1 L320.7,233.6 L321.5,246.0 L322.4,255.0 L323.2,258.5 L324.0,260.6 L324.9,257.3 L325.7,243.1 L326.6,215.7 L327.4,186.9 L328.2,169.0 L329.1,165.5 L329.9,166.9 L330.8,171.4 L331.6,175.6 L332.5,179.4 L333.3,182.4 L334.1,183.6 L335.0,184.5 L335.8,184.8 L336.7,189.2 L337.5,192.5 L338.3,190.7 L339.2,194.3 L340.0,213.0 L340.9,241.0 L341.7,249.9 L342.6,255.3 L343.4,257.9 L344.2,259.1 L345.1,255.3 L345.9,241.0 L346.8,216.0 L347.6,188.1 L348.4,170.8 L349.3,168.7 L350.1,170.5 L351.0,175.9 L351.8,179.1 L352.7,182.7 L353.5,185.1 L354.3,186.3 L355.2,186.0 L356.0,184.2 L356.9,188.9 L357.7,196.4 L358.5,198.8 L359.4,201.7 L360.2,219.0 L361.1,243.7 L361.9,257.3 L362.7,266.0 L363.6,271.3 L364.4,274.0 L365.3,273.4 L366.1,270.4 L367.0,261.5 L367.8,246.9 L368.6,229.7 L369.5,217.2 L370.3,211.2 L371.2,211.8 L372.0,211.0 L372.8,214.5 L373.7,219.3 L374.5,220.8 L375.4,219.0 L376.2,215.7 L377.1,216.0 L377.9,218.7 L378.7,216.9 L379.6,215.4 L380.4,226.7 L381.3,244.0 L382.1,257.9 L382.9,265.7 L383.8,271.3 L384.6,273.1 L385.5,271.9 L386.3,267.5 L387.2,258.2 L388.0,246.3 L388.8,227.9 L389.7,216.0 L390.5,213.3 L391.4,208.0 L392.2,207.7 L393.0,211.2 L393.9,213.6 L394.7,213.6 L395.6,212.1 L396.4,204.7 L397.3,203.8 L398.1,205.0 L398.9,203.8 L399.8,205.6 L400.6,220.5 L401.5,235.3 L402.3,252.6 L403.1,261.5 L404.0,266.0 L404.8,268.3 L405.7,265.7 L406.5,253.5 L407.3,225.5 L408.2,194.0 L409.0,173.8 L409.9,168.7 L410.7,167.8 L411.6,171.4 L412.4,174.7 L413.2,177.9 L414.1,180.6 L414.9,181.5 L415.8,182.1 L416.6,182.1 L417.4,186.9 L418.3,189.2 L419.1,188.4 L420.0,193.4 L420.8,213.0 L421.7,235.3 L422.5,248.7 L423.3,257.9 L424.2,262.4 L425.0,264.8 L425.9,261.8 L426.7,248.7 L427.5,222.0 L428.4,191.9 L429.2,172.6 L430.1,168.1 L430.9,167.2 L431.8,170.8 L432.6,174.4 L433.4,177.6 L434.3,180.6 L435.1,181.8 L436.0,182.4 L436.8,182.7 L437.6,187.2 L438.5,191.3 L439.3,191.0 L440.2,194.9 L441.0,213.6 L441.9,235.0 L442.7,251.4 L443.5,260.3 L444.4,265.1 L445.2,267.5 L446.1,264.8 L446.9,252.9 L447.7,224.9 L448.6,193.7 L449.4,175.0 L450.3,170.5 L451.1,169.3 L451.9,172.0 L452.8,174.7 L453.6,177.6 L454.5,180.0 L455.3,180.9 L456.2,180.9 L457.0,180.6 L457.8,185.4 L458.7,188.9 L459.5,188.1 L460.4,191.6 L461.2,210.7 L462.0,374.5 L462.9,244.6 L463.7,252.9 L464.6,256.2 L465.4,256.7 L466.3,252.3 L467.1,239.5 L467.9,210.4 L468.8,177.1 L469.6,158.6 L470.5,153.0 L471.3,153.9 L472.1,157.1 L473.0,161.9 L473.8,165.2 L474.7,168.1 L475.5,170.2 L476.4,169.3 L477.2,167.8 L478.0,169.9 L478.9,170.8 L479.7,168.1 L480.6,177.1 L481.4,195.5 L482.2,219.6 L483.1,230.9 L483.9,238.0 L484.8,242.2 L485.6,243.4 L486.5,240.7 L487.3,228.8 L488.1,201.4 L489.0,171.1 L489.8,155.9 L490.7,153.0 L491.5,155.3 L492.3,158.6 L493.2,163.1 L494.0,166.9 L494.9,170.8 L495.7,172.0 L496.5,171.4 L497.4,171.4 L498.2,175.6 L499.1,176.2 L499.9,172.3 L500.8,180.9 L501.6,199.1 L502.4,227.0 L503.3,233.6 L504.1,236.8 L505.0,241.3 L505.8,243.7 L506.6,241.6 L507.5,234.1 L508.3,224.0 L509.2,211.2 L510.0,194.3 L510.9,185.7 L511.7,185.7 L512.5,192.2 L513.4,196.1 L514.2,200.2 L515.1,204.7 L515.9,208.0 L516.7,208.6 L517.6,207.7 L518.4,205.9 L519.3,205.0 L520.1,199.4 L521.0,200.5 L521.8,213.6 L522.6,241.6 L523.5,245.7 L524.3,250.2 L525.2,254.7 L526.0,256.2 L526.8,254.7 L527.7,249.9 L528.5,243.4 L529.4,233.8 L530.2,218.1 L531.1,208.3 L531.9,209.2 L532.7,206.5 L533.6,207.7 L534.4,213.3 L535.3,216.0 L536.1,214.8 L536.9,211.5 L537.8,211.0 L538.6,205.3 L539.5,209.8 L540.3,211.5 L541.2,210.1 L542.0,221.1 L542.8,240.4 L543.7,254.4 L544.5,262.1 L545.4,267.2 L546.2,268.9 L547.0,265.7 L547.9,252.3 L548.7,227.6 L549.6,199.9 L550.4,183.3 L551.2,180.0 L552.1,177.3 L552.9,177.1 L553.8,177.6 L554.6,178.2 L555.5,178.8 L556.3,175.3 L557.1,172.0 L558.0,173.8 L558.8,182.1 L559.7,189.2 L560.5,193.4 L561.3,195.8 L562.2,213.9 L563.0,236.2 L563.9,255.6 L564.7,264.5 L565.6,270.7 L566.4,272.8 L567.2,270.4 L568.1,257.6 L568.9,233.8 L569.8,207.4 L570.6,190.1 L571.4,183.9 L572.3,177.1 L573.1,173.5 L574.0,172.3 L574.8,170.5 L575.7,169.3 L576.5,166.3 L577.3,161.6 L578.2,163.1 L579.0,175.3 L579.9,184.2 L580.7,189.5 L581.5,191.3 L582.4,210.4 L583.2,235.0 L584.1,252.9 L584.9,261.8 L585.8,267.5 L586.6,270.4 L587.4,270.4 L588.3,260.3 L589.1,236.8 L590.0,209.8 L590.8,189.8 L591.6,181.5 L592.5,176.2 L593.3,174.4 L594.2,175.0 L595.0,177.1 L595.8,179.7 L596.7,180.6 L597.5,180.9 L598.4,180.9 L599.2,185.4 L600.1,189.5 L600.9,189.5 L601.7,193.1 L602.6,212.1 L603.4,224.9 L604.3,247.8 L605.1,258.5 L605.9,261.8 L606.8,264.2 L607.6,261.5 L608.5,249.0 L609.3,218.7 L610.2,185.4 L611.0,165.5 L611.8,159.2 L612.7,159.5 L613.5,160.7 L614.4,164.6 L615.2,167.8 L616.0,171.1 L616.9,172.3 L617.7,170.8 L618.6,170.8 L619.4,172.9 L620.3,175.6 L621.1,172.6 L621.9,181.2 L622.8,200.8 L623.6,217.8 L624.5,235.3 L625.3,243.4 L626.1,247.2 L627.0,248.7 L627.8,246.0 L628.7,233.8 L629.5,204.1 L630.4,173.5 L631.2,157.4 L632.0,153.0 L632.9,154.5 L633.7,158.0 L634.6,163.1 L635.4,166.6 L636.2,169.9 L637.1,172.0 L637.9,170.5 L638.8,170.5 L639.6,174.1 L640.4,174.1 L641.3,170.2 L642.1,177.6 L643.0,196.1 L643.8,219.3 L644.7,230.3 L645.5,235.0 L646.3,238.9 L647.2,239.8 L648.0,238.9 L648.9,230.6 L649.7,218.7 L650.5,206.2 L651.4,191.3 L652.2,183.3 L653.1,178.5 L653.9,183.3 L654.8,188.4 L655.6,195.5 L656.4,197.3 L657.3,196.7 L658.1,197.9 L659.0,193.7 L659.8,194.3 L660.6,192.5 L661.5,186.0 L662.3,189.5 L663.2,204.7 L664.0,373.3 L664.9,277.9 L665.7,377.2 L666.5,420.0 L667.4,420.0 L668.2,420.0 L669.1,420.0 L669.9,420.0 L670.7,420.0 L671.6,420.0 L672.4,420.0 L673.3,420.0 L674.1,420.0 L675.0,420.0 L675.8,420.0 L676.6,420.0 L677.5,420.0 L678.3,420.0 L679.2,420.0 L680.0,420.0" stroke="#9467bd" stroke-width="2" fill="none" opacity="0.8"/>
<!-- Total Generation -->
<path d="M80.0,245.7 L80.8,245.1 L81.7,229.1 L82.5,219.6 L83.4,207.7 L84.2,193.4 L85.0,187.8 L85.9,253.5 L86.7,235.3 L87.6,251.4 L88.4,243.7 L89.3,231.2 L90.1,231.5 L90.9,218.4 L91.8,225.5 L92.6,228.8 L93.5,235.0 L94.3,254.7 L95.1,238.3 L96.0,208.9 L96.8,189.5 L97.7,242.5 L98.5,254.4 L99.4,254.7 L100.2,249.0 L101.0,240.7 L101.9,238.0 L102.7,235.9 L103.6,235.0 L104.4,239.2 L105.2,235.0 L106.1,220.2 L106.9,233.8 L107.8,229.4 L108.6,231.5 L109.5,229.4 L110.3,223.1 L111.1,227.6 L112.0,225.2 L112.8,224.0 L113.7,213.9 L114.5,217.2 L115.3,224.0 L116.2,218.1 L117.0,221.4 L117.9,227.0 L118.7,236.2 L119.6,242.8 L120.4,251.4 L121.2,252.6 L122.1,237.1 L122.9,211.5 L123.8,205.6 L124.6,173.5 L125.4,106.6 L126.3,134.8 L127.1,129.5 L128.0,131.9 L128.8,132.7 L129.6,109.3 L130.5,97.7 L131.3,118.5 L132.2,153.3 L133.0,166.9 L133.9,180.9 L134.7,169.9 L135.5,101.8 L136.4,81.9 L137.2,89.6 L138.1,119.4 L138.9,114.0 L139.7,86.9 L140.6,235.6 L141.4,241.0 L142.3,221.7 L143.1,158.6 L144.0,137.8 L144.8,90.2 L145.6,97.4 L146.5,79.2 L147.3,82.5 L148.2,67.6 L149.0,76.2 L149.8,79.5 L150.7,71.8 L151.5,94.4 L152.4,99.1 L153.2,114.0 L154.1,111.0 L154.9,112.2 L155.7,132.1 L156.6,123.5 L157.4,124.4 L158.3,131.0 L159.1,150.0 L159.9,167.2 L160.8,135.4 L161.6,133.6 L162.5,131.3 L163.3,132.1 L164.2,133.9 L165.0,131.6 L165.8,132.7 L166.7,151.8 L167.5,129.5 L168.4,157.1 L169.2,162.2 L170.0,145.8 L170.9,149.1 L171.7,136.6 L172.6,132.7 L173.4,163.4 L174.2,187.2 L175.1,114.9 L175.9,89.6 L176.8,89.0 L177.6,158.9 L178.5,168.7 L179.3,203.8 L180.1,249.0 L181.0,263.0 L181.8,259.7 L182.7,258.8 L183.5,255.9 L184.3,234.1 L185.2,200.8 L186.0,154.7 L186.9,170.2 L187.7,205.9 L188.6,205.9 L189.4,193.4 L190.2,197.6 L191.1,169.0 L191.9,155.9 L192.8,169.0 L193.6,186.3 L194.4,193.7 L195.3,157.1 L196.1,144.9 L197.0,153.0 L197.8,165.8 L198.7,173.2 L199.5,174.7 L200.3,178.8 L201.2,162.2 L202.0,166.3 L202.9,169.9 L203.7,169.6 L204.5,174.7 L205.4,171.4 L206.2,170.8 L207.1,191.6 L207.9,200.5 L208.8,208.3 L209.6,224.3 L210.4,235.9 L211.3,230.3 L212.1,233.0 L213.0,235.3 L213.8,241.3 L214.6,238.0 L215.5,210.4 L216.3,207.1 L217.2,178.5 L218.0,227.6 L218.8,204.4 L219.7,194.6 L220.5,202.6 L221.4,194.6 L222.2,189.8 L223.1,185.7 L223.9,180.0 L224.7,194.9 L225.6,191.6 L226.4,188.4 L227.3,203.2 L228.1,208.3 L228.9,196.7 L229.8,187.2 L230.6,210.7 L231.5,189.2 L232.3,187.8 L233.2,186.0 L234.0,204.7 L234.8,162.2 L235.7,192.5 L236.5,172.3 L237.4,145.2 L238.2,128.0 L239.0,133.9 L239.9,149.1 L240.7,163.4 L241.6,175.3 L242.4,202.9 L243.3,202.9 L244.1,213.9 L244.9,212.7 L245.8,148.5 L246.6,172.6 L247.5,187.5 L248.3,208.9 L249.1,227.9 L250.0,229.4 L250.8,230.3 L251.7,225.5 L252.5,224.9 L253.4,221.7 L254.2,193.4 L255.0,208.9 L255.9,157.1 L256.7,120.0 L257.6,125.9 L258.4,133.0 L259.2,145.2 L260.1,200.8 L260.9,220.5 L261.8,232.4 L262.6,236.2 L263.5,242.5 L264.3,241.0 L265.1,222.3 L266.0,153.9 L266.8,169.0 L267.7,183.9 L268.5,177.6 L269.3,202.9 L270.2,191.9 L271.0,188.6 L271.9,179.4 L272.7,168.7 L273.5,182.4 L274.4,173.8 L275.2,199.7 L276.1,185.7 L276.9,197.6 L277.8,211.8 L278.6,226.4 L279.4,227.9 L280.3,225.2 L281.1,211.8 L282.0,204.7 L282.8,188.4 L283.6,173.8 L284.5,178.5 L285.3,169.9 L286.2,173.2 L287.0,151.5 L287.9,77.4 L288.7,189.5 L289.5,174.7 L290.4,193.4 L291.2,189.5 L292.1,196.1 L292.9,240.7 L293.7,250.2 L294.6,259.4 L295.4,249.0 L296.3,169.9 L297.1,187.5 L298.0,195.2 L298.8,196.7 L299.6,224.0 L300.5,224.3 L301.3,219.0 L302.2,230.3 L303.0,223.4 L303.8,208.0 L304.7,222.8 L305.5,227.6 L306.4,144.9 L307.2,106.3 L308.1,116.7 L308.9,137.2 L309.7,161.6 L310.6,168.4 L311.4,162.5 L312.3,172.6 L313.1,212.1 L313.9,213.0 L314.8,220.8 L315.6,168.4 L316.5,166.6 L317.3,113.7 L318.1,100.3 L319.0,87.5 L319.8,118.8 L320.7,139.9 L321.5,150.6 L322.4,170.5 L323.2,169.0 L324.0,167.8 L324.9,162.8 L325.7,139.6 L326.6,110.1 L327.4,94.4 L328.2,115.2 L329.1,139.3 L329.9,143.4 L330.8,166.0 L331.6,174.1 L332.5,185.7 L333.3,190.1 L334.1,188.1 L335.0,190.4 L335.8,184.8 L336.7,124.7 L337.5,106.3 L338.3,105.7 L339.2,115.2 L340.0,175.6 L340.9,182.4 L341.7,231.8 L342.6,188.1 L343.4,184.2 L344.2,169.9 L345.1,161.6 L345.9,153.0 L346.8,151.5 L347.6,136.3 L348.4,113.1 L349.3,111.6 L350.1,107.5 L351.0,118.5 L351.8,123.8 L352.7,149.1 L353.5,184.2 L354.3,159.2 L355.2,201.7 L356.0,205.3 L356.9,145.2 L357.7,125.0 L358.5,122.9 L359.4,149.7 L360.2,152.7 L361.1,172.6 L361.9,211.8 L362.7,216.6 L363.6,230.6 L364.4,225.5 L365.3,224.3 L366.1,224.9 L367.0,209.2 L367.8,216.6 L368.6,263.0 L369.5,252.3 L370.3,254.7 L371.2,244.3 L372.0,239.5 L372.8,234.1 L373.7,213.3 L374.5,199.7 L375.4,197.9 L376.2,207.4 L377.1,227.9 L377.9,194.3 L378.7,153.0 L379.6,124.4 L380.4,159.8 L381.3,186.0 L382.1,207.4 L382.9,202.3 L383.8,206.5 L384.6,190.4 L385.5,195.8 L386.3,209.8 L387.2,214.5 L388.0,205.6 L388.8,190.4 L389.7,225.5 L390.5,230.3 L391.4,212.4 L392.2,218.7 L393.0,224.6 L393.9,205.3 L394.7,218.4 L395.6,204.7 L396.4,199.9 L397.3,198.8 L398.1,212.4 L398.9,220.8 L399.8,213.6 L400.6,223.4 L401.5,269.5 L402.3,275.5 L403.1,277.0 L404.0,276.4 L404.8,269.8 L405.7,241.0 L406.5,243.7 L407.3,195.8 L408.2,197.9 L409.0,189.2 L409.9,186.0 L410.7,184.8 L411.6,185.4 L412.4,189.8 L413.2,210.7 L414.1,184.8 L414.9,202.3 L415.8,206.5 L416.6,213.3 L417.4,161.9 L418.3,181.8 L419.1,181.5 L420.0,175.9 L420.8,167.2 L421.7,182.4 L422.5,192.2 L423.3,182.4 L424.2,173.2 L425.0,167.5 L425.9,172.6 L426.7,159.2 L427.5,161.9 L428.4,147.9 L429.2,111.3 L430.1,147.9 L430.9,167.5 L431.8,138.4 L432.6,129.2 L433.4,153.6 L434.3,138.4 L435.1,158.9 L436.0,157.4 L436.8,176.5 L437.6,159.8 L438.5,179.7 L439.3,193.4 L440.2,202.3 L441.0,205.9 L441.9,201.7 L442.7,201.1 L443.5,200.2 L444.4,204.1 L445.2,218.7 L446.1,196.7 L446.9,206.2 L447.7,186.9 L448.6,160.1 L449.4,192.5 L450.3,241.0 L451.1,232.4 L451.9,217.5 L452.8,217.2 L453.6,217.8 L454.5,167.8 L455.3,189.2 L456.2,183.9 L457.0,225.2 L457.8,201.4 L458.7,214.5 L459.5,208.9 L460.4,141.1 L461.2,168.1 L462.0,179.4 L462.9,208.3 L463.7,197.3 L464.6,191.9 L465.4,201.1 L466.3,213.0 L467.1,183.3 L467.9,172.3 L468.8,144.3 L469.6,163.1 L470.5,166.6 L471.3,155.9 L472.1,191.6 L473.0,185.4 L473.8,197.3 L474.7,218.4 L475.5,238.3 L476.4,243.1 L477.2,233.6 L478.0,217.2 L478.9,201.1 L479.7,202.6 L480.6,213.3 L481.4,208.0 L482.2,186.6 L483.1,189.8 L483.9,206.8 L484.8,221.7 L485.6,229.4 L486.5,213.0 L487.3,201.7 L488.1,194.6 L489.0,171.4 L489.8,158.0 L490.7,169.6 L491.5,190.1 L492.3,212.7 L493.2,200.2 L494.0,210.4 L494.9,176.5 L495.7,199.1 L496.5,226.4 L497.4,198.2 L498.2,175.9 L499.1,171.7 L499.9,180.9 L500.8,191.6 L501.6,196.4 L502.4,199.4 L503.3,201.1 L504.1,209.2 L505.0,199.9 L505.8,180.0 L506.6,189.5 L507.5,192.2 L508.3,177.3 L509.2,156.5 L510.0,181.8 L510.9,166.3 L511.7,191.9 L512.5,192.8 L513.4,195.5 L514.2,216.6 L515.1,197.6 L515.9,201.7 L516.7,227.0 L517.6,235.0 L518.4,231.8 L519.3,230.9 L520.1,206.2 L521.0,214.2 L521.8,221.7 L522.6,230.3 L523.5,216.0 L524.3,232.4 L525.2,241.0 L526.0,238.0 L526.8,224.9 L527.7,230.6 L528.5,210.4 L529.4,230.0 L530.2,214.5 L531.1,213.6 L531.9,235.0 L532.7,238.6 L533.6,233.6 L534.4,214.5 L535.3,227.0 L536.1,217.5 L536.9,212.7 L537.8,171.1 L538.6,157.7 L539.5,183.3 L540.3,170.8 L541.2,158.9 L542.0,155.6 L542.8,145.2 L543.7,178.5 L544.5,222.0 L545.4,241.0 L546.2,219.9 L547.0,214.5 L547.9,184.5 L548.7,177.3 L549.6,183.0 L550.4,204.1 L551.2,189.8 L552.1,197.9 L552.9,226.4 L553.8,223.7 L554.6,185.4 L555.5,156.2 L556.3,168.4 L557.1,187.5 L558.0,209.2 L558.8,186.9 L559.7,148.5 L560.5,141.4 L561.3,135.1 L562.2,174.1 L563.0,207.7 L563.9,228.2 L564.7,249.0 L565.6,237.7 L566.4,251.7 L567.2,252.6 L568.1,253.2 L568.9,253.2 L569.8,245.4 L570.6,224.6 L571.4,229.7 L572.3,229.4 L573.1,232.1 L574.0,227.9 L574.8,232.7 L575.7,229.7 L576.5,222.5 L577.3,213.6 L578.2,209.2 L579.0,207.4 L579.9,226.7 L580.7,210.1 L581.5,198.5 L582.4,232.7 L583.2,254.4 L584.1,253.8 L584.9,259.4 L585.8,263.9 L586.6,251.4 L587.4,244.0 L588.3,240.7 L589.1,249.0 L590.0,219.9 L590.8,210.7 L591.6,196.4 L592.5,184.2 L593.3,183.3 L594.2,188.1 L595.0,247.2 L595.8,212.7 L596.7,197.6 L597.5,187.2 L598.4,204.4 L599.2,201.7 L600.1,180.0 L600.9,152.1 L601.7,153.9 L602.6,176.2 L603.4,180.9 L604.3,180.0 L605.1,170.8 L605.9,176.8 L606.8,169.3 L607.6,178.8 L608.5,177.6 L609.3,185.7 L610.2,173.8 L611.0,200.8 L611.8,203.2 L612.7,202.9 L613.5,188.4 L614.4,165.8 L615.2,163.1 L616.0,177.3 L616.9,157.7 L617.7,237.4 L618.6,231.8 L619.4,233.0 L620.3,192.2 L621.1,221.4 L621.9,224.3 L622.8,206.5 L623.6,202.6 L624.5,229.4 L625.3,220.5 L626.1,195.8 L627.0,190.7 L627.8,164.3 L628.7,169.0 L629.5,175.3 L630.4,152.7 L631.2,86.4 L632.0,102.1 L632.9,125.9 L633.7,128.0 L634.6,180.9 L635.4,188.6 L636.2,176.8 L637.1,158.9 L637.9,178.8 L638.8,164.3 L639.6,177.1 L640.4,189.5 L641.3,198.8 L642.1,195.5 L643.0,191.0 L643.8,215.1 L644.7,242.8 L645.5,246.3 L646.3,189.5 L647.2,178.8 L648.0,180.6 L648.9,183.6 L649.7,234.7 L650.5,239.2 L651.4,241.6 L652.2,228.8 L653.1,211.0 L653.9,243.1 L654.8,244.9 L655.6,227.3 L656.4,236.2 L657.3,236.5 L658.1,233.6 L659.0,249.0 L659.8,217.5 L660.6,226.4 L661.5,156.8 L662.3,154.5 L663.2,226.7 L664.0,228.5 L664.9,221.4 L665.7,238.9 L666.5,248.7 L667.4,244.6 L668.2,255.3 L669.1,262.4 L669.9,263.9 L670.7,248.7 L671.6,233.0 L672.4,232.1 L673.3,226.1 L674.1,213.9 L675.0,244.3 L675.8,249.0 L676.6,246.3 L677.5,247.8 L678.3,247.8 L679.2,221.4 L680.0,226.1" stroke="#8c564b" stroke-width="2" fill="none" opacity="0.8"/>
<!-- Forecast Difference -->
<path d="M80.0,420.0 L80.8,420.0 L81.7,420.0 L82.5,420.0 L83.4,420.0 L84.2,420.0 L85.0,420.0 L85.9,420.0 L86.7,420.0 L87.6,420.0 L88.4,420.0 L89.3,420.0 L90.1,420.0 L90.9,420.0 L91.8,420.0 L92.6,420.0 L93.5,420.0 L94.3,420.0 L95.1,420.0 L96.0,420.0 L96.8,420.0 L97.7,420.0 L98.5,420.0 L99.4,420.0 L100.2,420.0 L101.0,420.0 L101.9,420.0 L102.7,420.0 L103.6,420.0 L104.4,420.0 L105.2,420.0 L106.1,420.0 L106.9,420.0 L107.8,420.0 L108.6,420.0 L109.5,420.0 L110.3,420.0 L111.1,420.0 L112.0,420.0 L112.8,420.0 L113.7,420.0 L114.5,420.0 L115.3,420.0 L116.2,420.0 L117.0,420.0 L117.9,420.0 L118.7,420.0 L119.6,420.0 L120.4,420.0 L121.2,420.0 L122.1,420.0 L122.9,420.0 L123.8,420.0 L124.6,420.0 L125.4,420.0 L126.3,420.0 L127.1,420.0 L128.0,420.0 L128.8,420.0 L129.6,420.0 L130.5,420.0 L131.3,420.0 L132.2,420.0 L133.0,420.0 L133.9,420.0 L134.7,420.0 L135.5,420.0 L136.4,420.0 L137.2,420.0 L138.1,420.0 L138.9,420.0 L139.7,420.0 L140.6,420.0 L141.4,420.0 L142.3,420.0 L143.1,420.0 L144.0,420.0 L144.8,420.0 L145.6,420.0 L146.5,420.0 L147.3,420.0 L148.2,420.0 L149.0,420.0 L149.8,420.0 L150.7,420.0 L151.5,420.0 L152.4,420.0 L153.2,420.0 L154.1,420.0 L154.9,420.0 L155.7,420.0 L156.6,420.0 L157.4,420.0 L158.3,420.0 L159.1,420.0 L159.9,420.0 L160.8,420.0 L161.6,420.0 L162.5,420.0 L163.3,420.0 L164.2,420.0 L165.0,420.0 L165.8,420.0 L166.7,420.0 L167.5,420.0 L168.4,420.0 L169.2,420.0 L170.0,420.0 L170.9,420.0 L171.7,420.0 L172.6,420.0 L173.4,420.0 L174.2,420.0 L175.1,420.0 L175.9,420.0 L176.8,420.0 L177.6,420.0 L178.5,420.0 L179.3,420.0 L180.1,420.0 L181.0,420.0 L181.8,420.0 L182.7,420.0 L183.5,420.0 L184.3,420.0 L185.2,420.0 L186.0,420.0 L186.9,420.0 L187.7,420.0 L188.6,420.0 L189.4,420.0 L190.2,420.0 L191.1,420.0 L191.9,420.0 L192.8,420.0 L193.6,420.0 L194.4,420.0 L195.3,420.0 L196.1,420.0 L197.0,420.0 L197.8,420.0 L198.7,420.0 L199.5,420.0 L200.3,420.0 L201.2,420.0 L202.0,420.0 L202.9,420.0 L203.7,420.0 L204.5,420.0 L205.4,420.0 L206.2,420.0 L207.1,420.0 L207.9,420.0 L208.8,420.0 L209.6,420.0 L210.4,420.0 L211.3,420.0 L212.1,420.0 L213.0,420.0 L213.8,420.0 L214.6,420.0 L215.5,420.0 L216.3,420.0 L217.2,420.0 L218.0,420.0 L218.8,420.0 L219.7,420.0 L220.5,420.0 L221.4,420.0 L222.2,420.0 L223.1,420.0 L223.9,420.0 L224.7,420.0 L225.6,420.0 L226.4,420.0 L227.3,420.0 L228.1,420.0 L228.9,420.0 L229.8,420.0 L230.6,420.0 L231.5,420.0 L232.3,420.0 L233.2,420.0 L234.0,420.0 L234.8,420.0 L235.7,420.0 L236.5,420.0 L237.4,420.0 L238.2,420.0 L239.0,420.0 L239.9,420.0 L240.7,420.0 L241.6,420.0 L242.4,420.0 L243.3,420.0 L244.1,420.0 L244.9,420.0 L245.8,420.0 L246.6,420.0 L247.5,420.0 L248.3,420.0 L249.1,420.0 L250.0,420.0 L250.8,420.0 L251.7,420.0 L252.5,420.0 L253.4,420.0 L254.2,420.0 L255.0,420.0 L255.9,420.0 L256.7,420.0 L257.6,420.0 L258.4,420.0 L259.2,420.0 L260.1,420.0 L260.9,420.0 L261.8,420.0 L262.6,420.0 L263.5,420.0 L264.3,420.0 L265.1,420.0 L266.0,420.0 L266.8,420.0 L267.7,420.0 L268.5,420.0 L269.3,420.0 L270.2,420.0 L271.0,420.0 L271.9,420.0 L272.7,420.0 L273.5,420.0 L274.4,420.0 L275.2,420.0 L276.1,420.0 L276.9,420.0 L277.8,420.0 L278.6,420.0 L279.4,420.0 L280.3,420.0 L281.1,420.0 L282.0,420.0 L282.8,420.0 L283.6,420.0 L284.5,420.0 L285.3,420.0 L286.2,420.0 L287.0,420.0 L287.9,420.0 L288.7,420.0 L289.5,420.0 L290.4,420.0 L291.2,420.0 L292.1,420.0 L292.9,420.0 L293.7,420.0 L294.6,420.0 L295.4,420.0 L296.3,420.0 L297.1,420.0 L298.0,420.0 L298.8,420.0 L299.6,420.0 L300.5,420.0 L301.3,420.0 L302.2,420.0 L303.0,420.0 L303.8,420.0 L304.7,420.0 L305.5,420.0 L306.4,420.0 L307.2,420.0 L308.1,420.0 L308.9,420.0 L309.7,420.0 L310.6,420.0 L311.4,420.0 L312.3,420.0 L313.1,420.0 L313.9,420.0 L314.8,420.0 L315.6,420.0 L316.5,420.0 L317.3,420.0 L318.1,420.0 L319.0,420.0 L319.8,420.0 L320.7,420.0 L321.5,420.0 L322.4,420.0 L323.2,420.0 L324.0,420.0 L324.9,420.0 L325.7,420.0 L326.6,420.0 L327.4,420.0 L328.2,420.0 L329.1,420.0 L329.9,420.0 L330.8,420.0 L331.6,420.0 L332.5,420.0 L333.3,420.0 L334.1,420.0 L335.0,420.0 L335.8,420.0 L336.7,420.0 L337.5,420.0 L338.3,420.0 L339.2,420.0 L340.0,420.0 L340.9,420.0 L341.7,420.0 L342.6,420.0 L343.4,420.0 L344.2,420.0 L345.1,420.0 L345.9,420.0 L346.8,420.0 L347.6,420.0 L348.4,420.0 L349.3,420.0 L350.1,420.0 L351.0,420.0 L351.8,420.0 L352.7,420.0 L353.5,420.0 L354.3,420.0 L355.2,420.0 L356.0,420.0 L356.9,420.0 L357.7,420.0 L358.5,420.0 L359.4,420.0 L360.2,420.0 L361.1,420.0 L361.9,420.0 L362.7,420.0 L363.6,420.0 L364.4,420.0 L365.3,420.0 L366.1,420.0 L367.0,420.0 L367.8,420.0 L368.6,420.0 L369.5,420.0 L370.3,420.0 L371.2,420.0 L372.0,420.0 L372.8,420.0 L373.7,420.0 L374.5,420.0 L375.4,420.0 L376.2,420.0 L377.1,420.0 L377.9,420.0 L378.7,420.0 L379.6,420.0 L380.4,420.0 L381.3,420.0 L382.1,420.0 L382.9,420.0 L383.8,420.0 L384.6,420.0 L385.5,420.0 L386.3,420.0 L387.2,420.0 L388.0,420.0 L388.8,420.0 L389.7,420.0 L390.5,420.0 L391.4,420.0 L392.2,420.0 L393.0,420.0 L393.9,420.0 L394.7,420.0 L395.6,420.0 L396.4,420.0 L397.3,420.0 L398.1,420.0 L398.9,420.0 L399.8,420.0 L400.6,420.0 L401.5,420.0 L402.3,420.0 L403.1,420.0 L404.0,420.0 L404.8,420.0 L405.7,420.0 L406.5,420.0 L407.3,420.0 L408.2,420.0 L409.0,420.0 L409.9,420.0 L410.7,420.0 L411.6,420.0 L412.4,420.0 L413.2,420.0 L414.1,420.0 L414.9,420.0 L415.8,420.0 L416.6,420.0 L417.4,420.0 L418.3,420.0 L419.1,420.0 L420.0,420.0 L420.8,420.0 L421.7,420.0 L422.5,420.0 L423.3,420.0 L424.2,420.0 L425.0,420.0 L425.9,420.0 L426.7,420.0 L427.5,420.0 L428.4,420.0 L429.2,420.0 L430.1,420.0 L430.9,420.0 L431.8,420.0 L432.6,420.0 L433.4,420.0 L434.3,420.0 L435.1,420.0 L436.0,420.0 L436.8,420.0 L437.6,420.0 L438.5,420.0 L439.3,420.0 L440.2,420.0 L441.0,420.0 L441.9,420.0 L442.7,420.0 L443.5,420.0 L444.4,420.0 L445.2,420.0 L446.1,420.0 L446.9,420.0 L447.7,420.0 L448.6,420.0 L449.4,420.0 L450.3,420.0 L451.1,420.0 L451.9,420.0 L452.8,420.0 L453.6,420.0 L454.5,420.0 L455.3,420.0 L456.2,420.0 L457.0,420.0 L457.8,420.0 L458.7,420.0 L459.5,420.0 L460.4,420.0 L461.2,420.0 L462.0,420.0 L462.9,420.0 L463.7,420.0 L464.6,420.0 L465.4,420.0 L466.3,420.0 L467.1,420.0 L467.9,420.0 L468.8,420.0 L469.6,420.0 L470.5,420.0 L471.3,420.0 L472.1,420.0 L473.0,420.0 L473.8,420.0 L474.7,420.0 L475.5,420.0 L476.4,420.0 L477.2,420.0 L478.0,420.0 L478.9,420.0 L479.7,420.0 L480.6,420.0 L481.4,420.0 L482.2,420.0 L483.1,420.0 L483.9,420.0 L484.8,420.0 L485.6,420.0 L486.5,420.0 L487.3,420.0 L488.1,420.0 L489.0,420.0 L489.8,420.0 L490.7,420.0 L491.5,420.0 L492.3,420.0 L493.2,420.0 L494.0,420.0 L494.9,420.0 L495.7,420.0 L496.5,420.0 L497.4,420.0 L498.2,420.0 L499.1,420.0 L499.9,420.0 L500.8,420.0 L501.6,420.0 L502.4,420.0 L503.3,420.0 L504.1,420.0 L505.0,420.0 L505.8,420.0 L506.6,420.0 L507.5,420.0 L508.3,420.0 L509.2,420.0 L510.0,420.0 L510.9,420.0 L511.7,420.0 L512.5,420.0 L513.4,420.0 L514.2,420.0 L515.1,420.0 L515.9,420.0 L516.7,420.0 L517.6,420.0 L518.4,420.0 L519.3,420.0 L520.1,420.0 L521.0,420.0 L521.8,420.0 L522.6,420.0 L523.5,420.0 L524.3,420.0 L525.2,420.0 L526.0,420.0 L526.8,420.0 L527.7,420.0 L528.5,420.0 L529.4,420.0 L530.2,420.0 L531.1,420.0 L531.9,420.0 L532.7,420.0 L533.6,420.0 L534.4,420.0 L535.3,420.0 L536.1,420.0 L536.9,420.0 L537.8,420.0 L538.6,420.0 L539.5,420.0 L540.3,420.0 L541.2,420.0 L542.0,420.0 L542.8,420.0 L543.7,420.0 L544.5,420.0 L545.4,420.0 L546.2,420.0 L547.0,420.0 L547.9,420.0 L548.7,420.0 L549.6,420.0 L550.4,420.0 L551.2,420.0 L552.1,420.0 L552.9,420.0 L553.8,420.0 L554.6,420.0 L555.5,420.0 L556.3,420.0 L557.1,420.0 L558.0,420.0 L558.8,420.0 L559.7,420.0 L560.5,420.0 L561.3,420.0 L562.2,420.0 L563.0,420.0 L563.9,420.0 L564.7,420.0 L565.6,420.0 L566.4,420.0 L567.2,420.0 L568.1,420.0 L568.9,420.0 L569.8,420.0 L570.6,420.0 L571.4,420.0 L572.3,420.0 L573.1,420.0 L574.0,420.0 L574.8,420.0 L575.7,420.0 L576.5,420.0 L577.3,420.0 L578.2,420.0 L579.0,420.0 L579.9,420.0 L580.7,420.0 L581.5,420.0 L582.4,420.0 L583.2,420.0 L584.1,420.0 L584.9,420.0 L585.8,420.0 L586.6,420.0 L587.4,420.0 L588.3,420.0 L589.1,420.0 L590.0,420.0 L590.8,420.0 L591.6,420.0 L592.5,420.0 L593.3,420.0 L594.2,420.0 L595.0,420.0 L595.8,420.0 L596.7,420.0 L597.5,420.0 L598.4,420.0 L599.2,420.0 L600.1,420.0 L600.9,420.0 L601.7,420.0 L602.6,420.0 L603.4,420.0 L604.3,420.0 L605.1,420.0 L605.9,420.0 L606.8,420.0 L607.6,420.0 L608.5,420.0 L609.3,420.0 L610.2,420.0 L611.0,420.0 L611.8,420.0 L612.7,420.0 L613.5,420.0 L614.4,420.0 L615.2,420.0 L616.0,420.0 L616.9,420.0 L617.7,420.0 L618.6,420.0 L619.4,420.0 L620.3,420.0 L621.1,420.0 L621.9,420.0 L622.8,420.0 L623.6,420.0 L624.5,420.0 L625.3,420.0 L626.1,420.0 L627.0,420.0 L627.8,420.0 L628.7,420.0 L629.5,420.0 L630.4,420.0 L631.2,420.0 L632.0,420.0 L632.9,420.0 L633.7,420.0 L634.6,420.0 L635.4,420.0 L636.2,420.0 L637.1,420.0 L637.9,420.0 L638.8,420.0 L639.6,420.0 L640.4,420.0 L641.3,420.0 L642.1,420.0 L643.0,420.0 L643.8,420.0 L644.7,420.0 L645.5,420.0 L646.3,420.0 L647.2,420.0 L648.0,420.0 L648.9,420.0 L649.7,420.0 L650.5,420.0 L651.4,420.0 L652.2,420.0 L653.1,420.0 L653.9,420.0 L654.8,420.0 L655.6,420.0 L656.4,420.0 L657.3,420.0 L658.1,420.0 L659.0,420.0 L659.8,420.0 L660.6,420.0 L661.5,420.0 L662.3,420.0 L663.2,420.0 L664.0,420.0 L664.9,420.0 L665.7,420.0 L666.5,420.0 L667.4,420.0 L668.2,420.0 L669.1,420.0 L669.9,420.0 L670.7,420.0 L671.6,420.0 L672.4,420.0 L673.3,420.0 L674.1,420.0 L675.0,420.0 L675.8,420.0 L676.6,420.0 L677.5,420.0 L678.3,420.0 L679.2,420.0 L680.0,420.0" stroke="#e377c2" stroke-width="2" fill="none" opacity="0.8"/>

<!-- Legend -->
<line x1="690" y1="70" x2="705" y2="70" stroke="#1f77b4" stroke-width="3"/>
<text x="710" y="74" class="legend">Wind Generation</text>
<line x1="690" y1="88" x2="705" y2="88" stroke="#ff7f0e" stroke-width="3"/>
<text x="710" y="92" class="legend">Hydro Generation</text>
<line x1="690" y1="106" x2="705" y2="106" stroke="#2ca02c" stroke-width="3"/>
<text x="710" y="110" class="legend">Thermal Generation</text>
<line x1="690" y1="124" x2="705" y2="124" stroke="#d62728" stroke-width="3"/>
<text x="710" y="128" class="legend">Solar Generation</text>
<line x1="690" y1="142" x2="705" y2="142" stroke="#9467bd" stroke-width="3"/>
<text x="710" y="146" class="legend">Forecast</text>
<line x1="690" y1="160" x2="705" y2="160" stroke="#8c564b" stroke-width="3"/>
<text x="710" y="164" class="legend">Total Generation</text>
<line x1="690" y1="178" x2="705" y2="178" stroke="#e377c2" stroke-width="3"/>
<text x="710" y="182" class="legend">Forecast Difference</text>

<!-- Date range -->
<text x="80" y="495" class="legend">Range: 03/28 - 04/26/2026 (714 records)</text>
</svg>