<?xml version="1.0" encoding="UTF-8"?>
<svg width="800" height="500" xmlns="http://www.w3.org/2000/svg">
<style>
.axis-line { stroke: #333; stroke-width: 1; }
.grid-line { stroke: #ddd; stroke-width: 0.5; }
.title { font: 16px Arial; text-anchor: middle; fill: #333; }
.axis-label { font: 12px Arial; text-anchor: middle; fill: #666; }
.legend { font: 10px Arial; fill: #333; }
</style>

<!-- Title -->
<text x="400.0" y="25" class="title">Northwestern Energy Generation Data - Past 30 Days</text>

<!-- Plot area background -->
<rect x="80" y="50" width="600" height="370" fill="white" stroke="#ddd"/>

<!-- Y-axis -->
<line x1="80" y1="50" x2="80" y2="420" class="axis-line"/>
<text x="30" y="235.0" class="axis-label" transform="rotate(-90, 30, 235.0)">Generation (MW)</text>

<!-- X-axis -->
<line x1="80" y1="420" x2="680" y2="420" class="axis-line"/>
<text x="380.0" y="480" class="axis-label">Time</text>
<line x1="80" y1="420.0" x2="680" y2="420.0" class="grid-line"/>
<text x="70" y="425.0" class="legend" text-anchor="end">0</text>
<line x1="80" y1="327.5" x2="680" y2="327.5" class="grid-line"/>
<text x="70" y="332.5" class="legend" text-anchor="end">277</text>
<line x1="80" y1="235.0" x2="680" y2="235.0" class="grid-line"/>
<text x="70" y="240.0" class="legend" text-anchor="end">554</text>
<line x1="80" y1="142.5" x2="680" y2="142.5" class="grid-line"/>
<text x="70" y="147.5" class="legend" text-anchor="end">831</text>
<line x1="80" y1="50.0" x2="680" y2="50.0" class="grid-line"/>
<text x="70" y="55.0" class="legend" text-anchor="end">1108</text>
<!-- Wind Generation -->
<path d="M80.0,381.6 L80.8,391.3 L81.7,394.3 L82.5,392.6 L83.4,395.3 L84.2,393.6 L85.1,388.9 L85.9,394.3 L86.7,399.0 L87.6,387.9 L88.4,393.6 L89.3,372.9 L90.1,366.9 L91.0,363.2 L91.8,368.2 L92.6,355.2 L93.5,356.2 L94.3,367.2 L95.2,383.9 L96.0,394.6 L96.9,408.0 L97.7,411.3 L98.5,413.7 L99.4,415.3 L100.2,411.6 L101.1,400.3 L101.9,396.3 L102.8,398.6 L103.6,397.3 L104.4,395.6 L105.3,384.9 L106.1,388.6 L107.0,390.6 L107.8,385.6 L108.7,396.3 L109.5,395.3 L110.3,368.2 L111.2,377.9 L112.0,400.0 L112.9,409.6 L113.7,411.6 L114.6,407.0 L115.4,402.6 L116.2,386.6 L117.1,379.9 L117.9,380.9 L118.8,372.9 L119.6,364.9 L120.4,356.2 L121.3,364.6 L122.1,369.6 L123.0,388.6 L123.8,405.3 L124.7,411.6 L125.5,418.0 L126.3,420.0 L127.2,420.0 L128.0,420.0 L128.9,413.3 L129.7,409.3 L130.6,418.7 L131.4,419.0 L132.2,411.3 L133.1,392.9 L133.9,407.3 L134.8,402.6 L135.6,409.3 L136.5,409.3 L137.3,387.9 L138.1,385.3 L139.0,369.6 L139.8,387.6 L140.7,389.9 L141.5,401.3 L142.4,387.9 L143.2,393.6 L144.0,392.9 L144.9,398.0 L145.7,402.3 L146.6,400.3 L147.4,401.6 L148.3,400.0 L149.1,370.9 L149.9,374.6 L150.8,394.3 L151.6,401.6 L152.5,394.9 L153.3,386.3 L154.2,368.9 L155.0,387.6 L155.8,403.3 L156.7,384.6 L157.5,377.9 L158.4,373.6 L159.2,376.6 L160.1,388.6 L160.9,325.8 L161.7,305.8 L162.6,306.8 L163.4,324.8 L164.3,339.2 L165.1,329.5 L166.0,318.5 L166.8,327.5 L167.6,320.1 L168.5,298.8 L169.3,281.4 L170.2,284.7 L171.0,287.4 L171.9,307.8 L172.7,309.4 L173.5,306.8 L174.4,314.1 L175.2,317.1 L176.1,330.5 L176.9,342.2 L177.8,356.2 L178.6,354.9 L179.4,353.2 L180.3,358.9 L181.1,368.2 L182.0,370.6 L182.8,377.9 L183.7,370.6 L184.5,373.2 L185.3,382.3 L186.2,382.9 L187.0,389.3 L187.9,399.6 L188.7,400.3 L189.6,401.0 L190.4,396.0 L191.2,393.3 L192.1,389.9 L192.9,393.9 L193.8,400.3 L194.6,406.6 L195.4,409.0 L196.3,410.0 L197.1,412.7 L198.0,413.3 L198.8,413.7 L199.7,413.0 L200.5,415.0 L201.3,415.7 L202.2,416.3 L203.0,417.3 L203.9,416.7 L204.7,418.0 L205.6,418.7 L206.4,420.0 L207.2,420.0 L208.1,420.0 L208.9,420.0 L209.8,420.0 L210.6,420.0 L211.5,420.0 L212.3,420.0 L213.1,420.0 L214.0,420.0 L214.8,420.0 L215.7,420.0 L216.5,420.0 L217.4,420.0 L218.2,420.0 L219.0,420.0 L219.9,420.0 L220.7,420.0 L221.6,420.0 L222.4,420.0 L223.3,419.7 L224.1,416.0 L224.9,417.3 L225.8,418.7 L226.6,420.0 L227.5,418.3 L228.3,420.0 L229.2,418.7 L230.0,418.0 L230.8,420.0 L231.7,420.0 L232.5,416.0 L233.4,420.0 L234.2,420.0 L235.1,420.0 L235.9,420.0 L236.7,420.0 L237.6,420.0 L238.4,419.7 L239.3,416.3 L240.1,417.7 L241.0,418.7 L241.8,419.7 L242.6,419.3 L243.5,411.6 L244.3,403.0 L245.2,410.6 L246.0,402.3 L246.9,387.6 L247.7,399.0 L248.5,370.9 L249.4,348.2 L250.2,341.8 L251.1,332.5 L251.9,324.8 L252.8,349.9 L253.6,355.9 L254.4,365.2 L255.3,360.5 L256.1,357.9 L257.0,354.5 L257.8,364.9 L258.7,353.9 L259.5,335.2 L260.3,323.1 L261.2,322.5 L262.0,308.4 L262.9,317.8 L263.7,297.8 L264.6,287.1 L265.4,284.1 L266.2,283.4 L267.1,288.1 L267.9,291.7 L268.8,291.7 L269.6,281.7 L270.4,285.4 L271.3,291.1 L272.1,283.4 L273.0,282.4 L273.8,281.1 L274.7,278.0 L275.5,278.0 L276.3,285.4 L277.2,283.7 L278.0,285.4 L278.9,281.7 L279.7,307.4 L280.6,297.4 L281.4,279.0 L282.2,303.4 L283.1,334.8 L283.9,314.5 L284.8,343.5 L285.6,337.8 L286.5,328.5 L287.3,304.4 L288.1,342.2 L289.0,344.2 L289.8,351.2 L290.7,346.9 L291.5,362.9 L292.4,362.9 L293.2,346.9 L294.0,350.5 L294.9,316.1 L295.7,313.8 L296.6,299.4 L297.4,292.7 L298.3,286.7 L299.1,284.4 L299.9,289.4 L300.8,333.8 L301.6,365.9 L302.5,377.2 L303.3,355.9 L304.2,356.5 L305.0,360.9 L305.8,355.9 L306.7,347.9 L307.5,334.2 L308.4,339.2 L309.2,362.6 L310.1,351.2 L310.9,350.9 L311.7,372.9 L312.6,375.9 L313.4,382.6 L314.3,375.9 L315.1,361.9 L316.0,362.9 L316.8,347.9 L317.6,291.7 L318.5,310.8 L319.3,302.1 L320.2,279.7 L321.0,315.8 L321.9,298.1 L322.7,292.4 L323.5,308.4 L324.4,286.4 L325.2,292.7 L326.1,288.1 L326.9,297.8 L327.8,285.4 L328.6,285.1 L329.4,285.4 L330.3,290.4 L331.1,287.7 L332.0,288.4 L332.8,298.8 L333.7,297.1 L334.5,295.7 L335.3,299.8 L336.2,314.5 L337.0,305.4 L337.9,293.1 L338.7,326.1 L339.6,335.8 L340.4,316.8 L341.2,273.0 L342.1,286.7 L342.9,284.4 L343.8,287.4 L344.6,272.7 L345.4,278.7 L346.3,276.4 L347.1,278.7 L348.0,278.7 L348.8,288.7 L349.7,286.1 L350.5,288.4 L351.3,284.7 L352.2,280.4 L353.0,287.4 L353.9,288.7 L354.7,295.4 L355.6,308.1 L356.4,293.1 L357.2,300.1 L358.1,285.4 L358.9,280.7 L359.8,282.4 L360.6,287.4 L361.5,302.4 L362.3,340.5 L363.1,354.5 L364.0,373.2 L364.8,392.9 L365.7,402.0 L366.5,409.6 L367.4,405.6 L368.2,401.3 L369.0,384.6 L369.9,383.3 L370.7,380.9 L371.6,381.9 L372.4,384.9 L373.3,386.3 L374.1,382.6 L374.9,397.3 L375.8,399.3 L376.6,397.0 L377.5,394.9 L378.3,399.3 L379.2,404.6 L380.0,403.6 L380.8,402.0 L381.7,398.3 L382.5,400.0 L383.4,396.3 L384.2,410.6 L385.1,407.6 L385.9,407.6 L386.7,400.3 L387.6,387.9 L388.4,376.2 L389.3,350.5 L390.1,327.5 L391.0,309.1 L391.8,319.5 L392.6,311.1 L393.5,285.1 L394.3,290.1 L395.2,302.1 L396.0,334.5 L396.9,348.9 L397.7,359.5 L398.5,338.5 L399.4,325.1 L400.2,325.1 L401.1,301.8 L401.9,328.1 L402.8,318.8 L403.6,351.9 L404.4,334.2 L405.3,324.1 L406.1,321.5 L407.0,349.2 L407.8,349.5 L408.7,335.8 L409.5,305.1 L410.3,305.1 L411.2,301.4 L412.0,312.1 L412.9,306.8 L413.7,297.8 L414.6,304.4 L415.4,317.8 L416.2,302.4 L417.1,316.8 L417.9,329.8 L418.8,339.5 L419.6,367.6 L420.4,387.6 L421.3,390.6 L422.1,389.3 L423.0,394.3 L423.8,392.6 L424.7,390.6 L425.5,385.3 L426.3,363.2 L427.2,363.6 L428.0,362.2 L428.9,366.2 L429.7,372.9 L430.6,374.2 L431.4,375.2 L432.2,377.2 L433.1,385.3 L433.9,388.6 L434.8,377.2 L435.6,378.9 L436.5,397.3 L437.3,409.0 L438.1,415.0 L439.0,409.3 L439.8,388.3 L440.7,403.0 L441.5,368.2 L442.4,368.9 L443.2,404.3 L444.0,407.0 L444.9,387.6 L445.7,365.6 L446.6,350.5 L447.4,353.5 L448.3,321.1 L449.1,324.5 L449.9,301.1 L450.8,290.4 L451.6,303.1 L452.5,295.4 L453.3,288.4 L454.2,298.8 L455.0,306.8 L455.8,304.4 L456.7,277.4 L457.5,272.7 L458.4,284.7 L459.2,283.7 L460.1,304.1 L460.9,310.8 L461.7,285.7 L462.6,319.1 L463.4,355.2 L464.3,379.6 L465.1,401.6 L466.0,394.6 L466.8,399.0 L467.6,400.0 L468.5,398.0 L469.3,392.6 L470.2,371.6 L471.0,353.9 L471.9,344.8 L472.7,330.5 L473.5,288.7 L474.4,315.8 L475.2,303.4 L476.1,291.4 L476.9,282.4 L477.8,283.4 L478.6,276.7 L479.4,274.0 L480.3,279.4 L481.1,275.0 L482.0,272.0 L482.8,301.4 L483.7,313.1 L484.5,311.4 L485.3,284.4 L486.2,295.7 L487.0,313.5 L487.9,338.5 L488.7,317.8 L489.6,298.1 L490.4,280.7 L491.2,286.7 L492.1,295.1 L492.9,300.1 L493.8,314.8 L494.6,344.8 L495.4,362.6 L496.3,353.5 L497.1,330.2 L498.0,347.5 L498.8,361.9 L499.7,357.9 L500.5,352.2 L501.3,369.6 L502.2,390.9 L503.0,391.9 L503.9,390.9 L504.7,403.0 L505.6,399.0 L506.4,398.0 L507.2,401.0 L508.1,397.3 L508.9,388.3 L509.8,379.9 L510.6,375.6 L511.5,375.6 L512.3,374.6 L513.1,366.2 L514.0,367.6 L514.8,349.5 L515.7,346.2 L516.5,359.2 L517.4,365.6 L518.2,341.8 L519.0,299.4 L519.9,306.4 L520.7,274.0 L521.6,272.7 L522.4,272.7 L523.3,273.0 L524.1,283.7 L524.9,280.4 L525.8,278.4 L526.6,285.1 L527.5,274.7 L528.3,283.4 L529.2,301.4 L530.0,306.4 L530.8,303.4 L531.7,316.8 L532.5,337.5 L533.4,337.8 L534.2,354.5 L535.1,361.2 L535.9,391.6 L536.7,399.0 L537.6,387.6 L538.4,392.6 L539.3,396.0 L540.1,402.0 L541.0,404.0 L541.8,396.0 L542.6,397.6 L543.5,393.9 L544.3,385.6 L545.2,381.3 L546.0,392.9 L546.9,404.0 L547.7,416.7 L548.5,417.3 L549.4,415.0 L550.2,415.0 L551.1,409.0 L551.9,409.3 L552.8,407.0 L553.6,406.6 L554.4,406.0 L555.3,406.3 L556.1,406.3 L557.0,414.0 L557.8,418.0 L558.7,416.3 L559.5,415.0 L560.3,406.6 L561.2,398.0 L562.0,394.3 L562.9,396.0 L563.7,387.9 L564.6,377.9 L565.4,397.0 L566.2,390.9 L567.1,384.3 L567.9,379.9 L568.8,361.9 L569.6,360.5 L570.4,329.5 L571.3,324.1 L572.1,323.5 L573.0,296.1 L573.8,298.1 L574.7,312.4 L575.5,305.1 L576.3,301.8 L577.2,301.1 L578.0,299.4 L578.9,299.4 L579.7,311.4 L580.6,313.1 L581.4,308.8 L582.2,327.8 L583.1,343.8 L583.9,352.5 L584.8,336.2 L585.6,352.2 L586.5,320.1 L587.3,310.4 L588.1,296.1 L589.0,287.7 L589.8,302.4 L590.7,285.1 L591.5,288.4 L592.4,292.4 L593.2,292.1 L594.0,297.1 L594.9,316.5 L595.7,308.4 L596.6,312.1 L597.4,311.1 L598.3,291.1 L599.1,289.4 L599.9,282.4 L600.8,282.4 L601.6,282.7 L602.5,288.7 L603.3,289.1 L604.2,285.1 L605.0,296.1 L605.8,301.1 L606.7,317.8 L607.5,314.8 L608.4,338.2 L609.2,343.8 L610.1,365.9 L610.9,371.6 L611.7,382.3 L612.6,411.0 L613.4,407.3 L614.3,410.3 L615.1,412.7 L616.0,408.6 L616.8,401.3 L617.6,398.6 L618.5,398.6 L619.3,402.3 L620.2,411.0 L621.0,415.3 L621.9,413.3 L622.7,410.3 L623.5,414.3 L624.4,414.0 L625.2,410.3 L626.1,408.6 L626.9,417.3 L627.8,413.0 L628.6,418.3 L629.4,417.7 L630.3,415.0 L631.1,411.0 L632.0,412.0 L632.8,398.3 L633.7,389.3 L634.5,349.5 L635.3,344.2 L636.2,325.8 L637.0,339.2 L637.9,350.5 L638.7,331.8 L639.6,326.8 L640.4,340.8 L641.2,343.5 L642.1,358.2 L642.9,354.2 L643.8,343.8 L644.6,386.3 L645.4,394.3 L646.3,405.0 L647.1,410.6 L648.0,410.6 L648.8,409.0 L649.7,409.6 L650.5,414.3 L651.3,415.7 L652.2,412.3 L653.0,411.0 L653.9,409.0 L654.7,410.3 L655.6,412.0 L656.4,416.3 L657.2,416.3 L658.1,416.0 L658.9,415.7 L659.8,412.0 L660.6,411.0 L661.5,413.3 L662.3,408.0 L663.1,412.7 L664.0,411.3 L664.8,407.3 L665.7,409.0 L666.5,387.6 L667.4,362.9 L668.2,334.8 L669.0,330.2 L669.9,282.7 L670.7,293.7 L671.6,311.8 L672.4,289.4 L673.3,321.8 L674.1,322.1 L674.9,322.8 L675.8,294.7 L676.6,293.4 L677.5,319.1 L678.3,285.4 L679.2,277.4 L680.0,274.4" stroke="#1f77b4" stroke-width="2" fill="none" opacity="0.8"/>
<!-- Hydro Generation -->
<path d="M80.0,358.9 L80.8,358.9 L81.7,359.2 L82.5,359.5 L83.4,359.2 L84.2,359.2 L85.1,359.5 L85.9,360.2 L86.7,359.9 L87.6,360.2 L88.4,360.2 L89.3,360.2 L90.1,360.5 L91.0,360.5 L91.8,360.9 L92.6,360.9 L93.5,359.5 L94.3,359.5 L95.2,358.9 L96.0,360.9 L96.9,359.9 L97.7,360.5 L98.5,354.9 L99.4,355.2 L100.2,355.2 L101.1,355.9 L101.9,355.9 L102.8,356.9 L103.6,356.5 L104.4,356.9 L105.3,356.9 L106.1,356.2 L107.0,356.5 L107.8,356.5 L108.7,356.9 L109.5,356.2 L110.3,356.2 L111.2,356.5 L112.0,356.2 L112.9,356.9 L113.7,355.5 L114.6,355.5 L115.4,355.2 L116.2,354.2 L117.1,354.9 L117.9,354.5 L118.8,355.2 L119.6,355.2 L120.4,355.2 L121.3,355.5 L122.1,355.5 L123.0,355.5 L123.8,355.2 L124.7,355.5 L125.5,356.2 L126.3,355.9 L127.2,355.9 L128.0,354.9 L128.9,354.9 L129.7,355.2 L130.6,354.5 L131.4,354.9 L132.2,354.5 L133.1,354.9 L133.9,354.5 L134.8,354.5 L135.6,354.5 L136.5,354.5 L137.3,354.9 L138.1,354.9 L139.0,354.5 L139.8,354.9 L140.7,355.2 L141.5,355.5 L142.4,355.5 L143.2,355.2 L144.0,355.5 L144.9,355.9 L145.7,354.9 L146.6,356.2 L147.4,355.9 L148.3,356.2 L149.1,356.5 L149.9,356.5 L150.8,356.5 L151.6,356.5 L152.5,356.2 L153.3,356.5 L154.2,356.2 L155.0,356.2 L155.8,355.9 L156.7,356.5 L157.5,356.2 L158.4,355.2 L159.2,355.5 L160.1,356.2 L160.9,355.5 L161.7,355.9 L162.6,355.5 L163.4,355.5 L164.3,355.5 L165.1,355.2 L166.0,355.5 L166.8,355.5 L167.6,355.5 L168.5,355.2 L169.3,355.5 L170.2,355.2 L171.0,355.5 L171.9,355.2 L172.7,355.5 L173.5,355.2 L174.4,355.2 L175.2,355.2 L176.1,354.9 L176.9,354.9 L177.8,355.2 L178.6,355.2 L179.4,355.5 L180.3,355.2 L181.1,355.5 L182.0,355.9 L182.8,355.9 L183.7,356.2 L184.5,355.9 L185.3,355.9 L186.2,356.2 L187.0,355.5 L187.9,355.2 L188.7,354.9 L189.6,355.2 L190.4,355.2 L191.2,355.5 L192.1,355.5 L192.9,355.2 L193.8,355.9 L194.6,355.2 L195.4,355.9 L196.3,355.5 L197.1,355.9 L198.0,355.9 L198.8,355.5 L199.7,355.5 L200.5,354.9 L201.3,353.9 L202.2,354.2 L203.0,353.5 L203.9,353.9 L204.7,353.9 L205.6,352.5 L206.4,353.2 L207.2,352.5 L208.1,352.9 L208.9,352.9 L209.8,352.9 L210.6,352.2 L211.5,352.2 L212.3,352.5 L213.1,351.9 L214.0,351.9 L214.8,352.9 L215.7,352.9 L216.5,352.9 L217.4,352.2 L218.2,353.9 L219.0,355.2 L219.9,355.2 L220.7,355.5 L221.6,355.2 L222.4,355.5 L223.3,355.2 L224.1,355.2 L224.9,355.2 L225.8,355.2 L226.6,355.2 L227.5,355.2 L228.3,355.2 L229.2,355.5 L230.0,355.5 L230.8,354.9 L231.7,355.2 L232.5,355.2 L233.4,355.2 L234.2,354.9 L235.1,354.5 L235.9,353.5 L236.7,353.5 L237.6,353.9 L238.4,352.5 L239.3,352.5 L240.1,352.9 L241.0,352.9 L241.8,352.9 L242.6,352.5 L243.5,352.2 L244.3,351.9 L245.2,351.5 L246.0,351.5 L246.9,351.9 L247.7,351.5 L248.5,350.9 L249.4,350.9 L250.2,351.2 L251.1,351.5 L251.9,351.2 L252.8,351.2 L253.6,351.2 L254.4,350.5 L255.3,351.5 L256.1,350.9 L257.0,345.8 L257.8,349.2 L258.7,351.2 L259.5,351.2 L260.3,351.5 L261.2,352.2 L262.0,351.9 L262.9,351.9 L263.7,352.5 L264.6,352.2 L265.4,351.9 L266.2,350.9 L267.1,350.2 L267.9,350.5 L268.8,350.9 L269.6,350.9 L270.4,350.5 L271.3,351.2 L272.1,352.5 L273.0,352.9 L273.8,352.5 L274.7,353.9 L275.5,352.9 L276.3,352.5 L277.2,352.5 L278.0,353.2 L278.9,352.9 L279.7,353.5 L280.6,353.5 L281.4,353.5 L282.2,353.9 L283.1,353.5 L283.9,353.5 L284.8,353.9 L285.6,353.2 L286.5,352.5 L287.3,352.2 L288.1,352.2 L289.0,352.5 L289.8,352.5 L290.7,352.2 L291.5,352.5 L292.4,353.2 L293.2,353.2 L294.0,353.2 L294.9,353.2 L295.7,352.5 L296.6,352.5 L297.4,352.9 L298.3,352.9 L299.1,353.2 L299.9,352.5 L300.8,352.2 L301.6,352.5 L302.5,352.5 L303.3,352.5 L304.2,352.2 L305.0,352.2 L305.8,352.2 L306.7,352.2 L307.5,352.2 L308.4,351.9 L309.2,351.9 L310.1,351.9 L310.9,352.2 L311.7,351.9 L312.6,351.5 L313.4,352.2 L314.3,352.5 L315.1,352.5 L316.0,352.9 L316.8,352.2 L317.6,352.5 L318.5,352.9 L319.3,353.2 L320.2,352.9 L321.0,354.2 L321.9,354.5 L322.7,355.5 L323.5,355.9 L324.4,356.5 L325.2,357.5 L326.1,357.2 L326.9,357.2 L327.8,357.2 L328.6,356.9 L329.4,356.5 L330.3,356.2 L331.1,355.5 L332.0,355.9 L332.8,356.2 L333.7,355.2 L334.5,354.2 L335.3,354.2 L336.2,354.9 L337.0,354.9 L337.9,354.9 L338.7,354.9 L339.6,357.2 L340.4,353.5 L341.2,353.2 L342.1,353.9 L342.9,354.2 L343.8,353.2 L344.6,353.5 L345.4,353.5 L346.3,354.2 L347.1,354.2 L348.0,354.9 L348.8,354.2 L349.7,354.5 L350.5,354.5 L351.3,353.2 L352.2,352.2 L353.0,352.5 L353.9,362.6 L354.7,362.6 L355.6,362.9 L356.4,362.6 L357.2,362.2 L358.1,362.2 L358.9,362.6 L359.8,354.9 L360.6,352.5 L361.5,352.5 L362.3,352.9 L363.1,352.5 L364.0,352.5 L364.8,352.9 L365.7,352.5 L366.5,353.2 L367.4,352.5 L368.2,352.5 L369.0,353.2 L369.9,352.9 L370.7,353.2 L371.6,353.2 L372.4,352.9 L373.3,355.5 L374.1,355.2 L374.9,355.2 L375.8,353.9 L376.6,354.2 L377.5,353.9 L378.3,353.9 L379.2,353.9 L380.0,353.2 L380.8,354.2 L381.7,353.9 L382.5,354.2 L383.4,354.9 L384.2,355.2 L385.1,356.5 L385.9,356.9 L386.7,356.5 L387.6,356.2 L388.4,357.2 L389.3,355.5 L390.1,355.2 L391.0,355.2 L391.8,355.5 L392.6,355.2 L393.5,355.2 L394.3,355.2 L395.2,355.2 L396.0,355.2 L396.9,354.5 L397.7,354.2 L398.5,354.9 L399.4,354.9 L400.2,354.5 L401.1,354.9 L401.9,354.2 L402.8,355.5 L403.6,354.9 L404.4,354.9 L405.3,354.9 L406.1,355.2 L407.0,354.9 L407.8,355.5 L408.7,355.2 L409.5,355.9 L410.3,355.5 L411.2,355.2 L412.0,355.2 L412.9,355.9 L413.7,355.9 L414.6,356.2 L415.4,355.9 L416.2,355.9 L417.1,355.5 L417.9,355.5 L418.8,355.2 L419.6,355.9 L420.4,355.9 L421.3,355.5 L422.1,354.9 L423.0,355.2 L423.8,355.5 L424.7,355.5 L425.5,355.2 L426.3,355.2 L427.2,355.2 L428.0,355.9 L428.9,355.9 L429.7,356.2 L430.6,355.9 L431.4,356.5 L432.2,355.9 L433.1,355.9 L433.9,356.2 L434.8,355.5 L435.6,355.9 L436.5,356.2 L437.3,352.5 L438.1,337.8 L439.0,355.5 L439.8,355.5 L440.7,355.5 L441.5,354.9 L442.4,355.5 L443.2,355.2 L444.0,355.5 L444.9,355.5 L445.7,355.5 L446.6,355.2 L447.4,355.5 L448.3,355.2 L449.1,355.2 L449.9,355.9 L450.8,354.9 L451.6,356.2 L452.5,354.9 L453.3,354.2 L454.2,354.9 L455.0,354.9 L455.8,354.9 L456.7,354.9 L457.5,353.2 L458.4,353.2 L459.2,352.9 L460.1,353.5 L460.9,352.9 L461.7,353.2 L462.6,352.5 L463.4,353.2 L464.3,353.2 L465.1,352.2 L466.0,353.9 L466.8,353.9 L467.6,353.5 L468.5,353.5 L469.3,354.2 L470.2,354.2 L471.0,354.2 L471.9,353.5 L472.7,354.2 L473.5,354.9 L474.4,354.9 L475.2,362.2 L476.1,362.2 L476.9,362.9 L477.8,361.9 L478.6,362.2 L479.4,362.6 L480.3,362.9 L481.1,361.5 L482.0,361.9 L482.8,361.5 L483.7,361.2 L484.5,361.5 L485.3,361.5 L486.2,361.5 L487.0,361.5 L487.9,361.5 L488.7,361.5 L489.6,360.9 L490.4,360.9 L491.2,361.5 L492.1,361.2 L492.9,360.9 L493.8,361.2 L494.6,361.5 L495.4,361.9 L496.3,363.2 L497.1,362.9 L498.0,362.6 L498.8,362.6 L499.7,362.9 L500.5,362.2 L501.3,362.2 L502.2,362.6 L503.0,362.2 L503.9,362.2 L504.7,362.2 L505.6,362.2 L506.4,362.9 L507.2,363.2 L508.1,363.6 L508.9,364.2 L509.8,363.9 L510.6,363.6 L511.5,362.9 L512.3,361.5 L513.1,362.2 L514.0,361.9 L514.8,362.6 L515.7,362.2 L516.5,361.9 L517.4,362.2 L518.2,361.9 L519.0,361.5 L519.9,361.5 L520.7,361.9 L521.6,361.9 L522.4,361.5 L523.3,361.2 L524.1,360.9 L524.9,362.2 L525.8,362.2 L526.6,362.2 L527.5,363.2 L528.3,363.2 L529.2,363.6 L530.0,363.9 L530.8,363.6 L531.7,362.9 L532.5,363.9 L533.4,363.2 L534.2,363.2 L535.1,363.2 L535.9,363.2 L536.7,363.6 L537.6,363.6 L538.4,362.2 L539.3,361.9 L540.1,362.2 L541.0,362.2 L541.8,354.2 L542.6,353.5 L543.5,354.9 L544.3,354.9 L545.2,354.9 L546.0,355.2 L546.9,354.9 L547.7,354.5 L548.5,354.5 L549.4,353.9 L550.2,353.9 L551.1,353.9 L551.9,354.2 L552.8,354.2 L553.6,353.9 L554.4,354.5 L555.3,353.9 L556.1,355.2 L557.0,354.9 L557.8,354.9 L558.7,354.2 L559.5,354.5 L560.3,355.2 L561.2,354.9 L562.0,354.5 L562.9,353.5 L563.7,353.9 L564.6,354.2 L565.4,354.5 L566.2,354.2 L567.1,354.2 L567.9,353.9 L568.8,354.9 L569.6,354.9 L570.4,353.9 L571.3,354.5 L572.1,353.9 L573.0,354.5 L573.8,354.2 L574.7,353.9 L575.5,353.9 L576.3,354.2 L577.2,354.5 L578.0,353.9 L578.9,353.5 L579.7,352.9 L580.6,352.9 L581.4,353.5 L582.2,353.2 L583.1,352.9 L583.9,353.2 L584.8,353.5 L585.6,354.2 L586.5,354.2 L587.3,353.9 L588.1,353.5 L589.0,353.9 L589.8,354.5 L590.7,354.9 L591.5,354.2 L592.4,354.5 L593.2,354.5 L594.0,353.9 L594.9,354.2 L595.7,354.5 L596.6,354.2 L597.4,353.9 L598.3,353.5 L599.1,353.5 L599.9,354.5 L600.8,354.2 L601.6,353.5 L602.5,353.2 L603.3,353.9 L604.2,353.9 L605.0,354.2 L605.8,354.2 L606.7,354.5 L607.5,354.5 L608.4,354.2 L609.2,354.5 L610.1,354.2 L610.9,354.5 L611.7,354.5 L612.6,354.5 L613.4,354.5 L614.3,354.5 L615.1,354.2 L616.0,354.5 L616.8,354.9 L617.6,354.9 L618.5,354.2 L619.3,355.2 L620.2,354.9 L621.0,354.5 L621.9,354.9 L622.7,355.2 L623.5,355.2 L624.4,355.2 L625.2,355.2 L626.1,354.9 L626.9,355.5 L627.8,354.5 L628.6,355.2 L629.4,355.2 L630.3,355.2 L631.1,354.5 L632.0,354.2 L632.8,354.9 L633.7,354.2 L634.5,354.2 L635.3,354.2 L636.2,354.5 L637.0,354.5 L637.9,354.5 L638.7,354.2 L639.6,354.5 L640.4,354.2 L641.2,354.9 L642.1,355.2 L642.9,354.5 L643.8,353.9 L644.6,354.5 L645.4,353.9 L646.3,353.9 L647.1,354.5 L648.0,354.9 L648.8,354.5 L649.7,354.2 L650.5,354.5 L651.3,354.2 L652.2,354.2 L653.0,353.9 L653.9,354.2 L654.7,353.9 L655.6,354.5 L656.4,354.2 L657.2,354.5 L658.1,353.9 L658.9,353.5 L659.8,353.9 L660.6,353.2 L661.5,353.2 L662.3,353.5 L663.1,353.9 L664.0,354.2 L664.8,354.5 L665.7,354.5 L666.5,354.9 L667.4,352.9 L668.2,353.5 L669.0,353.9 L669.9,353.5 L670.7,352.9 L671.6,353.2 L672.4,353.5 L673.3,352.9 L674.1,352.9 L674.9,353.2 L675.8,353.2 L676.6,353.5 L677.5,353.2 L678.3,345.8 L679.2,352.5 L680.0,352.9" stroke="#ff7f0e" stroke-width="2" fill="none" opacity="0.8"/>
<!-- Thermal Generation -->
<path d="M80.0,281.7 L80.8,281.7 L81.7,281.7 L82.5,288.7 L83.4,308.4 L84.2,316.5 L85.1,317.5 L85.9,324.1 L86.7,327.5 L87.6,317.8 L88.4,311.4 L89.3,295.7 L90.1,293.1 L91.0,315.8 L91.8,323.8 L92.6,328.1 L93.5,328.5 L94.3,352.9 L95.2,353.5 L96.0,346.5 L96.9,331.2 L97.7,331.2 L98.5,322.5 L99.4,284.4 L100.2,283.1 L101.1,283.1 L101.9,285.1 L102.8,284.4 L103.6,284.4 L104.4,285.4 L105.3,330.5 L106.1,328.8 L107.0,328.8 L107.8,322.5 L108.7,319.5 L109.5,316.1 L110.3,287.4 L111.2,304.4 L112.0,328.8 L112.9,319.1 L113.7,317.8 L114.6,308.4 L115.4,308.8 L116.2,283.7 L117.1,297.4 L117.9,314.8 L118.8,301.8 L119.6,300.1 L120.4,303.4 L121.3,301.4 L122.1,304.4 L123.0,286.4 L123.8,283.7 L124.7,284.4 L125.5,284.4 L126.3,311.1 L127.2,305.1 L128.0,298.8 L128.9,293.1 L129.7,297.8 L130.6,286.7 L131.4,292.4 L132.2,288.1 L133.1,286.7 L133.9,285.7 L134.8,286.1 L135.6,286.4 L136.5,302.4 L137.3,316.5 L138.1,307.4 L139.0,287.4 L139.8,287.7 L140.7,290.1 L141.5,292.1 L142.4,312.1 L143.2,315.8 L144.0,319.1 L144.9,321.1 L145.7,321.5 L146.6,315.1 L147.4,314.8 L148.3,317.1 L149.1,317.5 L149.9,317.8 L150.8,289.4 L151.6,309.1 L152.5,305.4 L153.3,320.8 L154.2,316.8 L155.0,323.8 L155.8,341.8 L156.7,326.1 L157.5,325.8 L158.4,324.1 L159.2,330.5 L160.1,294.1 L160.9,306.1 L161.7,312.1 L162.6,334.8 L163.4,344.5 L164.3,340.2 L165.1,343.5 L166.0,340.2 L166.8,340.2 L167.6,339.5 L168.5,343.2 L169.3,342.2 L170.2,338.8 L171.0,352.9 L171.9,365.9 L172.7,374.9 L173.5,363.9 L174.4,336.2 L175.2,335.8 L176.1,356.9 L176.9,353.2 L177.8,336.2 L178.6,304.8 L179.4,312.4 L180.3,296.1 L181.1,296.8 L182.0,297.1 L182.8,296.8 L183.7,297.8 L184.5,296.8 L185.3,296.8 L186.2,299.1 L187.0,314.1 L187.9,313.1 L188.7,313.1 L189.6,297.1 L190.4,297.4 L191.2,297.8 L192.1,319.5 L192.9,327.5 L193.8,328.1 L194.6,326.8 L195.4,330.2 L196.3,329.1 L197.1,325.5 L198.0,325.5 L198.8,325.5 L199.7,311.8 L200.5,314.1 L201.3,315.5 L202.2,326.8 L203.0,330.5 L203.9,327.1 L204.7,326.5 L205.6,329.8 L206.4,330.2 L207.2,330.5 L208.1,330.8 L208.9,330.5 L209.8,332.8 L210.6,332.5 L211.5,329.1 L212.3,331.5 L213.1,327.8 L214.0,330.2 L214.8,329.1 L215.7,326.5 L216.5,324.8 L217.4,325.1 L218.2,324.8 L219.0,321.5 L219.9,318.5 L220.7,317.8 L221.6,320.5 L222.4,312.4 L223.3,319.1 L224.1,319.8 L224.9,303.1 L225.8,285.7 L226.6,285.1 L227.5,285.1 L228.3,285.4 L229.2,285.4 L230.0,284.7 L230.8,286.7 L231.7,284.1 L232.5,355.2 L233.4,355.9 L234.2,354.9 L235.1,354.5 L235.9,354.5 L236.7,354.9 L237.6,355.2 L238.4,355.5 L239.3,355.2 L240.1,329.1 L241.0,329.1 L241.8,328.8 L242.6,285.4 L243.5,283.4 L244.3,283.1 L245.2,283.1 L246.0,281.7 L246.9,286.7 L247.7,282.7 L248.5,287.1 L249.4,283.7 L250.2,283.7 L251.1,286.4 L251.9,290.7 L252.8,332.2 L253.6,338.8 L254.4,333.5 L255.3,336.5 L256.1,330.8 L257.0,330.5 L257.8,330.5 L258.7,332.2 L259.5,334.5 L260.3,325.5 L261.2,284.1 L262.0,296.8 L262.9,324.1 L263.7,325.5 L264.6,327.8 L265.4,328.8 L266.2,332.5 L267.1,355.5 L267.9,355.9 L268.8,355.5 L269.6,348.2 L270.4,336.8 L271.3,289.4 L272.1,290.7 L273.0,346.2 L273.8,352.9 L274.7,349.2 L275.5,352.2 L276.3,356.9 L277.2,356.2 L278.0,354.2 L278.9,352.9 L279.7,355.2 L280.6,328.1 L281.4,289.7 L282.2,301.8 L283.1,328.5 L283.9,329.1 L284.8,328.8 L285.6,291.4 L286.5,293.1 L287.3,293.1 L288.1,292.4 L289.0,292.1 L289.8,291.4 L290.7,290.7 L291.5,287.1 L292.4,285.1 L293.2,288.4 L294.0,288.7 L294.9,322.5 L295.7,323.5 L296.6,356.9 L297.4,362.9 L298.3,379.9 L299.1,380.9 L299.9,353.2 L300.8,292.4 L301.6,298.1 L302.5,298.8 L303.3,295.4 L304.2,293.7 L305.0,294.1 L305.8,293.7 L306.7,291.4 L307.5,291.4 L308.4,287.7 L309.2,285.4 L310.1,288.4 L310.9,284.4 L311.7,288.1 L312.6,287.7 L313.4,295.1 L314.3,305.8 L315.1,306.1 L316.0,306.4 L316.8,312.1 L317.6,310.8 L318.5,330.8 L319.3,347.2 L320.2,328.1 L321.0,298.4 L321.9,285.7 L322.7,286.4 L323.5,286.4 L324.4,293.4 L325.2,320.8 L326.1,326.1 L326.9,326.5 L327.8,335.8 L328.6,336.8 L329.4,356.9 L330.3,344.8 L331.1,325.1 L332.0,286.1 L332.8,285.4 L333.7,282.1 L334.5,310.8 L335.3,307.1 L336.2,318.1 L337.0,322.1 L337.9,319.8 L338.7,321.8 L339.6,319.1 L340.4,327.8 L341.2,300.8 L342.1,283.1 L342.9,284.1 L343.8,285.1 L344.6,285.7 L345.4,283.4 L346.3,300.1 L347.1,337.8 L348.0,360.9 L348.8,361.2 L349.7,357.9 L350.5,351.5 L351.3,319.8 L352.2,284.4 L353.0,288.1 L353.9,307.1 L354.7,318.1 L355.6,324.1 L356.4,329.8 L357.2,331.5 L358.1,345.2 L358.9,342.2 L359.8,344.8 L360.6,340.8 L361.5,282.1 L362.3,284.7 L363.1,284.4 L364.0,285.1 L364.8,283.1 L365.7,283.4 L366.5,284.1 L367.4,283.7 L368.2,284.1 L369.0,284.4 L369.9,284.7 L370.7,284.7 L371.6,284.4 L372.4,287.1 L373.3,285.4 L374.1,300.8 L374.9,291.4 L375.8,287.4 L376.6,297.4 L377.5,290.1 L378.3,292.7 L379.2,284.4 L380.0,280.7 L380.8,314.8 L381.7,280.4 L382.5,281.7 L383.4,282.1 L384.2,279.4 L385.1,276.0 L385.9,278.4 L386.7,278.7 L387.6,278.7 L388.4,282.1 L389.3,274.0 L390.1,279.0 L391.0,274.0 L391.8,274.4 L392.6,274.4 L393.5,279.7 L394.3,279.7 L395.2,294.4 L396.0,295.4 L396.9,292.4 L397.7,293.7 L398.5,318.8 L399.4,316.5 L400.2,314.1 L401.1,318.5 L401.9,290.4 L402.8,277.0 L403.6,274.4 L404.4,270.7 L405.3,271.0 L406.1,276.4 L407.0,272.0 L407.8,272.0 L408.7,274.4 L409.5,278.0 L410.3,276.7 L411.2,276.4 L412.0,273.7 L412.9,272.7 L413.7,271.4 L414.6,291.4 L415.4,301.1 L416.2,300.8 L417.1,310.8 L417.9,312.4 L418.8,303.1 L419.6,287.4 L420.4,278.4 L421.3,274.4 L422.1,271.4 L423.0,270.4 L423.8,272.7 L424.7,290.4 L425.5,295.4 L426.3,284.1 L427.2,272.7 L428.0,273.7 L428.9,271.7 L429.7,271.7 L430.6,275.7 L431.4,271.4 L432.2,272.0 L433.1,272.7 L433.9,273.0 L434.8,295.4 L435.6,278.4 L436.5,271.7 L437.3,271.7 L438.1,275.7 L439.0,278.7 L439.8,292.1 L440.7,278.4 L441.5,273.4 L442.4,271.4 L443.2,269.7 L444.0,284.7 L444.9,283.7 L445.7,281.1 L446.6,270.4 L447.4,275.7 L448.3,311.8 L449.1,313.5 L449.9,314.8 L450.8,339.8 L451.6,339.8 L452.5,338.8 L453.3,311.8 L454.2,296.8 L455.0,290.7 L455.8,300.8 L456.7,310.1 L457.5,311.1 L458.4,323.5 L459.2,324.5 L460.1,348.5 L460.9,333.5 L461.7,301.8 L462.6,277.4 L463.4,270.0 L464.3,273.4 L465.1,273.7 L466.0,275.7 L466.8,272.7 L467.6,272.4 L468.5,272.7 L469.3,272.0 L470.2,278.4 L471.0,278.7 L471.9,283.1 L472.7,282.4 L473.5,277.7 L474.4,278.0 L475.2,278.4 L476.1,278.4 L476.9,291.7 L477.8,301.8 L478.6,312.1 L479.4,313.8 L480.3,317.5 L481.1,313.8 L482.0,306.8 L482.8,273.4 L483.7,276.4 L484.5,276.4 L485.3,277.4 L486.2,284.1 L487.0,274.0 L487.9,280.0 L488.7,292.7 L489.6,314.1 L490.4,311.8 L491.2,305.8 L492.1,294.7 L492.9,296.8 L493.8,295.7 L494.6,296.8 L495.4,316.8 L496.3,314.1 L497.1,312.8 L498.0,310.8 L498.8,306.1 L499.7,321.5 L500.5,329.1 L501.3,329.8 L502.2,310.4 L503.0,288.7 L503.9,282.7 L504.7,282.1 L505.6,280.4 L506.4,285.1 L507.2,285.1 L508.1,276.4 L508.9,280.0 L509.8,281.7 L510.6,317.5 L511.5,316.8 L512.3,317.1 L513.1,317.1 L514.0,292.7 L514.8,298.1 L515.7,300.1 L516.5,317.1 L517.4,316.1 L518.2,319.5 L519.0,318.8 L519.9,321.8 L520.7,357.9 L521.6,359.5 L522.4,356.2 L523.3,355.9 L524.1,348.9 L524.9,345.8 L525.8,330.5 L526.6,329.8 L527.5,340.5 L528.3,343.8 L529.2,344.8 L530.0,344.8 L530.8,343.8 L531.7,333.5 L532.5,301.8 L533.4,292.4 L534.2,290.1 L535.1,287.7 L535.9,296.8 L536.7,299.1 L537.6,297.1 L538.4,304.4 L539.3,304.1 L540.1,313.8 L541.0,322.5 L541.8,322.8 L542.6,319.1 L543.5,294.1 L544.3,287.4 L545.2,287.7 L546.0,286.7 L546.9,286.7 L547.7,284.7 L548.5,281.1 L549.4,282.1 L550.2,281.4 L551.1,287.4 L551.9,284.4 L552.8,283.7 L553.6,283.7 L554.4,285.4 L555.3,287.4 L556.1,297.1 L557.0,305.4 L557.8,310.4 L558.7,313.5 L559.5,318.1 L560.3,327.1 L561.2,325.1 L562.0,328.5 L562.9,327.1 L563.7,289.1 L564.6,288.4 L565.4,309.8 L566.2,329.1 L567.1,329.1 L567.9,317.1 L568.8,298.4 L569.6,304.1 L570.4,320.8 L571.3,329.5 L572.1,329.8 L573.0,320.1 L573.8,324.5 L574.7,322.5 L575.5,323.1 L576.3,318.5 L577.2,317.1 L578.0,327.1 L578.9,325.8 L579.7,350.9 L580.6,365.9 L581.4,365.6 L582.2,365.6 L583.1,351.2 L583.9,312.4 L584.8,318.8 L585.6,325.1 L586.5,327.1 L587.3,326.1 L588.1,324.1 L589.0,324.1 L589.8,323.5 L590.7,334.5 L591.5,326.8 L592.4,345.2 L593.2,347.5 L594.0,344.8 L594.9,339.5 L595.7,338.8 L596.6,337.8 L597.4,337.2 L598.3,336.5 L599.1,337.2 L599.9,375.2 L600.8,375.6 L601.6,376.2 L602.5,375.2 L603.3,303.1 L604.2,277.0 L605.0,276.7 L605.8,277.0 L606.7,279.0 L607.5,278.0 L608.4,274.7 L609.2,278.4 L610.1,273.7 L610.9,274.0 L611.7,270.7 L612.6,272.4 L613.4,275.0 L614.3,273.7 L615.1,272.7 L616.0,277.0 L616.8,302.1 L617.6,304.4 L618.5,265.7 L619.3,269.0 L620.2,266.0 L621.0,263.7 L621.9,264.4 L622.7,264.0 L623.5,262.7 L624.4,268.4 L625.2,273.7 L626.1,270.4 L626.9,271.7 L627.8,273.0 L628.6,288.7 L629.4,271.7 L630.3,276.0 L631.1,292.1 L632.0,295.1 L632.8,295.1 L633.7,295.1 L634.5,307.8 L635.3,276.4 L636.2,270.7 L637.0,278.7 L637.9,314.5 L638.7,297.4 L639.6,314.1 L640.4,313.8 L641.2,300.4 L642.1,274.7 L642.9,287.7 L643.8,269.7 L644.6,269.4 L645.4,315.8 L646.3,312.8 L647.1,301.1 L648.0,300.1 L648.8,298.8 L649.7,299.1 L650.5,299.1 L651.3,300.1 L652.2,295.1 L653.0,295.1 L653.9,299.1 L654.7,270.7 L655.6,270.4 L656.4,305.8 L657.2,319.5 L658.1,319.5 L658.9,319.8 L659.8,318.1 L660.6,317.8 L661.5,317.1 L662.3,317.1 L663.1,317.1 L664.0,310.4 L664.8,263.3 L665.7,285.7 L666.5,289.7 L667.4,287.4 L668.2,298.4 L669.0,316.1 L669.9,317.5 L670.7,317.1 L671.6,368.6 L672.4,369.6 L673.3,362.2 L674.1,361.2 L674.9,330.2 L675.8,315.8 L676.6,317.1 L677.5,319.5 L678.3,318.8 L679.2,317.5 L680.0,350.5" stroke="#2ca02c" stroke-width="2" fill="none" opacity="0.8"/>
<!-- Solar Generation -->
<path d="M80.0,420.0 L80.8,420.0 L81.7,420.0 L82.5,420.0 L83.4,420.0 L84.2,420.0 L85.1,420.0 L85.9,420.0 L86.7,420.0 L87.6,420.0 L88.4,420.0 L89.3,420.0 L90.1,419.0 L91.0,394.3 L91.8,375.9 L92.6,375.9 L93.5,377.9 L94.3,380.3 L95.2,379.6 L96.0,377.2 L96.9,375.2 L97.7,377.2 L98.5,401.0 L99.4,419.7 L100.2,420.0 L101.1,420.0 L101.9,420.0 L102.8,420.0 L103.6,420.0 L104.4,420.0 L105.3,420.0 L106.1,420.0 L107.0,420.0 L107.8,420.0 L108.7,420.0 L109.5,420.0 L110.3,419.3 L111.2,395.6 L112.0,376.2 L112.9,376.9 L113.7,379.3 L114.6,388.9 L115.4,380.3 L116.2,377.6 L117.1,375.6 L117.9,377.9 L118.8,402.3 L119.6,419.7 L120.4,420.0 L121.3,420.0 L122.1,420.0 L123.0,420.0 L123.8,420.0 L124.7,420.0 L125.5,420.0 L126.3,420.0 L127.2,420.0 L128.0,420.0 L128.9,420.0 L129.7,420.0 L130.6,419.0 L131.4,411.0 L132.2,409.0 L133.1,392.3 L133.9,390.9 L134.8,390.9 L135.6,388.9 L136.5,395.3 L137.3,384.3 L138.1,391.6 L139.0,407.0 L139.8,420.0 L140.7,420.0 L141.5,420.0 L142.4,420.0 L143.2,420.0 L144.0,420.0 L144.9,420.0 L145.7,420.0 L146.6,420.0 L147.4,420.0 L148.3,420.0 L149.1,420.0 L149.9,420.0 L150.8,420.0 L151.6,416.0 L152.5,417.0 L153.3,413.3 L154.2,410.3 L155.0,404.3 L155.8,406.0 L156.7,410.6 L157.5,413.3 L158.4,418.7 L159.2,418.0 L160.1,420.0 L160.9,420.0 L161.7,420.0 L162.6,420.0 L163.4,420.0 L164.3,420.0 L165.1,420.0 L166.0,420.0 L166.8,420.0 L167.6,420.0 L168.5,420.0 L169.3,420.0 L170.2,420.0 L171.0,419.7 L171.9,413.7 L172.7,411.6 L173.5,389.6 L174.4,394.3 L175.2,381.6 L176.1,403.6 L176.9,393.3 L177.8,394.6 L178.6,415.3 L179.4,418.3 L180.3,420.0 L181.1,420.0 L182.0,420.0 L182.8,420.0 L183.7,420.0 L184.5,420.0 L185.3,420.0 L186.2,420.0 L187.0,420.0 L187.9,420.0 L188.7,420.0 L189.6,420.0 L190.4,420.0 L191.2,420.0 L192.1,418.0 L192.9,416.7 L193.8,414.7 L194.6,412.0 L195.4,408.3 L196.3,404.0 L197.1,405.3 L198.0,412.3 L198.8,415.3 L199.7,417.7 L200.5,420.0 L201.3,420.0 L202.2,420.0 L203.0,420.0 L203.9,420.0 L204.7,420.0 L205.6,420.0 L206.4,420.0 L207.2,420.0 L208.1,420.0 L208.9,420.0 L209.8,420.0 L210.6,420.0 L211.5,420.0 L212.3,419.0 L213.1,417.3 L214.0,406.6 L214.8,406.0 L215.7,406.0 L216.5,403.6 L217.4,403.3 L218.2,402.3 L219.0,411.0 L219.9,418.0 L220.7,420.0 L221.6,420.0 L222.4,420.0 L223.3,420.0 L224.1,420.0 L224.9,420.0 L225.8,420.0 L226.6,420.0 L227.5,420.0 L228.3,420.0 L229.2,420.0 L230.0,420.0 L230.8,420.0 L231.7,420.0 L232.5,418.3 L233.4,416.0 L234.2,415.0 L235.1,411.6 L235.9,405.3 L236.7,410.3 L237.6,411.0 L238.4,413.7 L239.3,416.7 L240.1,418.0 L241.0,420.0 L241.8,420.0 L242.6,420.0 L243.5,420.0 L244.3,420.0 L245.2,420.0 L246.0,420.0 L246.9,420.0 L247.7,420.0 L248.5,420.0 L249.4,420.0 L250.2,420.0 L251.1,420.0 L251.9,420.0 L252.8,418.0 L253.6,413.3 L254.4,412.7 L255.3,407.3 L256.1,401.6 L257.0,409.6 L257.8,415.0 L258.7,415.3 L259.5,409.3 L260.3,409.6 L261.2,420.0 L262.0,420.0 L262.9,420.0 L263.7,420.0 L264.6,420.0 L265.4,420.0 L266.2,420.0 L267.1,420.0 L267.9,420.0 L268.8,420.0 L269.6,420.0 L270.4,420.0 L271.3,420.0 L272.1,419.7 L273.0,412.7 L273.8,413.0 L274.7,388.6 L275.5,382.3 L276.3,385.3 L277.2,402.3 L278.0,400.6 L278.9,400.3 L279.7,414.7 L280.6,416.7 L281.4,420.0 L282.2,420.0 L283.1,420.0 L283.9,420.0 L284.8,420.0 L285.6,420.0 L286.5,420.0 L287.3,420.0 L288.1,420.0 L289.0,420.0 L289.8,420.0 L290.7,420.0 L291.5,420.0 L292.4,420.0 L293.2,404.6 L294.0,378.6 L294.9,377.9 L295.7,384.6 L296.6,381.9 L297.4,380.9 L298.3,379.3 L299.1,374.2 L299.9,396.3 L300.8,411.6 L301.6,420.0 L302.5,420.0 L303.3,420.0 L304.2,420.0 L305.0,420.0 L305.8,420.0 L306.7,420.0 L307.5,420.0 L308.4,420.0 L309.2,420.0 L310.1,420.0 L310.9,420.0 L311.7,420.0 L312.6,420.0 L313.4,415.3 L314.3,393.9 L315.1,396.6 L316.0,399.6 L316.8,404.6 L317.6,411.6 L318.5,415.3 L319.3,417.3 L320.2,417.3 L321.0,419.7 L321.9,420.0 L322.7,420.0 L323.5,420.0 L324.4,420.0 L325.2,420.0 L326.1,420.0 L326.9,420.0 L327.8,420.0 L328.6,420.0 L329.4,420.0 L330.3,420.0 L331.1,420.0 L332.0,420.0 L332.8,420.0 L333.7,415.3 L334.5,412.7 L335.3,386.3 L336.2,381.3 L337.0,382.3 L337.9,396.3 L338.7,401.3 L339.6,397.6 L340.4,404.0 L341.2,412.7 L342.1,420.0 L342.9,420.0 L343.8,420.0 L344.6,420.0 L345.4,420.0 L346.3,420.0 L347.1,420.0 L348.0,420.0 L348.8,420.0 L349.7,420.0 L350.5,420.0 L351.3,420.0 L352.2,420.0 L353.0,420.0 L353.9,404.6 L354.7,401.0 L355.6,400.6 L356.4,398.3 L357.2,398.6 L358.1,382.3 L358.9,379.3 L359.8,392.3 L360.6,384.9 L361.5,414.0 L362.3,420.0 L363.1,420.0 L364.0,420.0 L364.8,420.0 L365.7,420.0 L366.5,420.0 L367.4,420.0 L368.2,420.0 L369.0,420.0 L369.9,420.0 L370.7,420.0 L371.6,420.0 L372.4,420.0 L373.3,420.0 L374.1,404.0 L374.9,379.3 L375.8,378.2 L376.6,381.9 L377.5,383.9 L378.3,383.3 L379.2,380.3 L380.0,377.9 L380.8,384.9 L381.7,413.3 L382.5,420.0 L383.4,420.0 L384.2,420.0 L385.1,420.0 L385.9,420.0 L386.7,420.0 L387.6,420.0 L388.4,420.0 L389.3,420.0 L390.1,420.0 L391.0,420.0 L391.8,420.0 L392.6,420.0 L393.5,420.0 L394.3,405.0 L395.2,380.9 L396.0,387.3 L396.9,382.6 L397.7,384.3 L398.5,384.3 L399.4,380.9 L400.2,377.9 L401.1,385.9 L401.9,412.3 L402.8,420.0 L403.6,420.0 L404.4,420.0 L405.3,420.0 L406.1,420.0 L407.0,420.0 L407.8,420.0 L408.7,420.0 L409.5,420.0 L410.3,420.0 L411.2,420.0 L412.0,420.0 L412.9,420.0 L413.7,420.0 L414.6,407.3 L415.4,385.9 L416.2,380.3 L417.1,383.9 L417.9,385.9 L418.8,383.3 L419.6,377.2 L420.4,386.9 L421.3,392.6 L422.1,417.7 L423.0,420.0 L423.8,420.0 L424.7,420.0 L425.5,420.0 L426.3,420.0 L427.2,420.0 L428.0,420.0 L428.9,420.0 L429.7,420.0 L430.6,420.0 L431.4,420.0 L432.2,420.0 L433.1,420.0 L433.9,420.0 L434.8,416.3 L435.6,411.3 L436.5,400.3 L437.3,405.0 L438.1,396.0 L439.0,413.3 L439.8,410.3 L440.7,414.0 L441.5,414.7 L442.4,418.7 L443.2,420.0 L444.0,420.0 L444.9,420.0 L445.7,420.0 L446.6,420.0 L447.4,420.0 L448.3,420.0 L449.1,420.0 L449.9,420.0 L450.8,420.0 L451.6,420.0 L452.5,420.0 L453.3,420.0 L454.2,420.0 L455.0,409.0 L455.8,391.6 L456.7,391.9 L457.5,405.0 L458.4,382.6 L459.2,384.9 L460.1,390.9 L460.9,393.6 L461.7,411.0 L462.6,413.3 L463.4,420.0 L464.3,420.0 L465.1,420.0 L466.0,420.0 L466.8,420.0 L467.6,420.0 L468.5,420.0 L469.3,420.0 L470.2,420.0 L471.0,420.0 L471.9,420.0 L472.7,420.0 L473.5,420.0 L474.4,420.0 L475.2,418.0 L476.1,395.6 L476.9,397.0 L477.8,398.6 L478.6,396.6 L479.4,387.9 L480.3,391.3 L481.1,396.3 L482.0,400.3 L482.8,417.3 L483.7,420.0 L484.5,420.0 L485.3,420.0 L486.2,420.0 L487.0,420.0 L487.9,420.0 L488.7,420.0 L489.6,420.0 L490.4,420.0 L491.2,420.0 L492.1,420.0 L492.9,420.0 L493.8,420.0 L494.6,420.0 L495.4,409.3 L496.3,381.6 L497.1,387.3 L498.0,379.3 L498.8,385.6 L499.7,383.3 L500.5,379.9 L501.3,397.3 L502.2,390.6 L503.0,418.7 L503.9,420.0 L504.7,420.0 L505.6,420.0 L506.4,420.0 L507.2,420.0 L508.1,420.0 L508.9,420.0 L509.8,420.0 L510.6,420.0 L511.5,420.0 L512.3,420.0 L513.1,420.0 L514.0,420.0 L514.8,420.0 L515.7,415.7 L516.5,407.0 L517.4,406.3 L518.2,407.3 L519.0,390.9 L519.9,385.9 L520.7,394.6 L521.6,389.6 L522.4,396.6 L523.3,415.7 L524.1,420.0 L524.9,420.0 L525.8,420.0 L526.6,420.0 L527.5,420.0 L528.3,420.0 L529.2,420.0 L530.0,420.0 L530.8,420.0 L531.7,420.0 L532.5,420.0 L533.4,420.0 L534.2,420.0 L535.1,420.0 L535.9,410.3 L536.7,383.6 L537.6,380.9 L538.4,383.9 L539.3,386.6 L540.1,384.9 L541.0,379.3 L541.8,378.9 L542.6,390.3 L543.5,417.3 L544.3,420.0 L545.2,420.0 L546.0,420.0 L546.9,420.0 L547.7,420.0 L548.5,420.0 L549.4,420.0 L550.2,420.0 L551.1,420.0 L551.9,420.0 L552.8,420.0 L553.6,420.0 L554.4,420.0 L555.3,420.0 L556.1,410.6 L557.0,384.9 L557.8,380.6 L558.7,384.9 L559.5,391.6 L560.3,385.3 L561.2,382.3 L562.0,390.9 L562.9,408.6 L563.7,418.7 L564.6,420.0 L565.4,420.0 L566.2,420.0 L567.1,420.0 L567.9,420.0 L568.8,420.0 L569.6,420.0 L570.4,420.0 L571.3,420.0 L572.1,420.0 L573.0,420.0 L573.8,420.0 L574.7,420.0 L575.5,420.0 L576.3,417.3 L577.2,404.0 L578.0,400.0 L578.9,399.6 L579.7,396.6 L580.6,387.6 L581.4,389.9 L582.2,397.6 L583.1,410.3 L583.9,418.7 L584.8,420.0 L585.6,420.0 L586.5,420.0 L587.3,420.0 L588.1,420.0 L589.0,420.0 L589.8,420.0 L590.7,420.0 L591.5,420.0 L592.4,420.0 L593.2,420.0 L594.0,420.0 L594.9,420.0 L595.7,418.7 L596.6,413.7 L597.4,416.0 L598.3,416.0 L599.1,397.6 L599.9,396.6 L600.8,403.0 L601.6,394.9 L602.5,409.3 L603.3,418.7 L604.2,420.0 L605.0,420.0 L605.8,420.0 L606.7,420.0 L607.5,420.0 L608.4,420.0 L609.2,420.0 L610.1,420.0 L610.9,420.0 L611.7,420.0 L612.6,420.0 L613.4,420.0 L614.3,420.0 L615.1,420.0 L616.0,412.3 L616.8,387.9 L617.6,381.6 L618.5,385.6 L619.3,388.6 L620.2,388.6 L621.0,385.3 L621.9,388.3 L622.7,409.6 L623.5,419.0 L624.4,420.0 L625.2,420.0 L626.1,420.0 L626.9,420.0 L627.8,420.0 L628.6,420.0 L629.4,420.0 L630.3,420.0 L631.1,420.0 L632.0,420.0 L632.8,420.0 L633.7,420.0 L634.5,420.0 L635.3,420.0 L636.2,419.0 L637.0,415.7 L637.9,412.7 L638.7,404.6 L639.6,411.6 L640.4,411.6 L641.2,399.0 L642.1,411.6 L642.9,414.7 L643.8,419.7 L644.6,420.0 L645.4,420.0 L646.3,420.0 L647.1,420.0 L648.0,420.0 L648.8,420.0 L649.7,420.0 L650.5,420.0 L651.3,420.0 L652.2,420.0 L653.0,420.0 L653.9,420.0 L654.7,420.0 L655.6,420.0 L656.4,419.0 L657.2,410.3 L658.1,400.6 L658.9,410.3 L659.8,402.3 L660.6,398.0 L661.5,407.0 L662.3,414.7 L663.1,413.3 L664.0,419.3 L664.8,420.0 L665.7,420.0 L666.5,420.0 L667.4,420.0 L668.2,420.0 L669.0,420.0 L669.9,420.0 L670.7,420.0 L671.6,420.0 L672.4,420.0 L673.3,420.0 L674.1,420.0 L674.9,420.0 L675.8,420.0 L676.6,418.0 L677.5,413.3 L678.3,392.3 L679.2,400.0 L680.0,397.0" stroke="#d62728" stroke-width="2" fill="none" opacity="0.8"/>
<!-- Forecast -->
<path d="M80.0,151.1 L80.8,155.8 L81.7,171.8 L82.5,196.2 L83.4,222.9 L84.2,235.3 L85.1,245.0 L85.9,251.0 L86.7,252.0 L87.6,249.3 L88.4,235.6 L89.3,202.2 L90.1,168.2 L91.0,182.5 L91.8,172.5 L92.6,152.1 L93.5,143.1 L94.3,143.8 L95.2,150.8 L96.0,160.8 L96.9,171.2 L97.7,185.2 L98.5,168.8 L99.4,179.8 L100.2,202.9 L101.1,210.6 L101.9,210.9 L102.8,210.2 L103.6,233.3 L104.4,251.3 L105.3,257.3 L106.1,255.0 L107.0,250.3 L107.8,247.3 L108.7,245.3 L109.5,219.6 L110.3,204.2 L111.2,204.2 L112.0,195.2 L112.9,181.5 L113.7,174.8 L114.6,173.5 L115.4,194.9 L116.2,197.5 L117.1,189.5 L117.9,185.5 L118.8,180.8 L119.6,162.5 L120.4,171.8 L121.3,177.5 L122.1,180.5 L123.0,211.9 L123.8,244.0 L124.7,248.7 L125.5,248.7 L126.3,253.7 L127.2,258.0 L128.0,261.0 L128.9,262.7 L129.7,238.0 L130.6,222.3 L131.4,219.3 L132.2,212.6 L133.1,167.2 L133.9,155.8 L134.8,155.1 L135.6,156.8 L136.5,158.1 L137.3,153.1 L138.1,151.8 L139.0,151.8 L139.8,153.5 L140.7,150.5 L141.5,150.5 L142.4,170.5 L143.2,197.9 L144.0,223.6 L144.9,236.3 L145.7,245.3 L146.6,251.0 L147.4,253.7 L148.3,255.3 L149.1,252.7 L149.9,239.3 L150.8,220.6 L151.6,203.2 L152.5,189.9 L153.3,183.2 L154.2,181.2 L155.0,186.5 L155.8,192.2 L156.7,191.5 L157.5,190.9 L158.4,198.9 L159.2,206.2 L160.1,215.9 L160.9,226.6 L161.7,228.3 L162.6,223.9 L163.4,216.3 L164.3,223.6 L165.1,211.2 L166.0,180.5 L166.8,169.8 L167.6,167.2 L168.5,166.2 L169.3,166.2 L170.2,165.5 L171.0,163.8 L171.9,161.1 L172.7,155.1 L173.5,143.8 L174.4,136.1 L175.2,132.8 L176.1,127.1 L176.9,128.1 L177.8,133.4 L178.6,145.4 L179.4,158.1 L180.3,150.1 L181.1,161.5 L182.0,173.2 L182.8,180.5 L183.7,211.9 L184.5,232.6 L185.3,231.0 L186.2,231.3 L187.0,232.3 L187.9,233.3 L188.7,235.0 L189.6,235.6 L190.4,209.9 L191.2,167.5 L192.1,157.1 L192.9,151.5 L193.8,139.8 L194.6,158.8 L195.4,164.5 L196.3,164.5 L197.1,164.8 L198.0,165.8 L198.8,170.2 L199.7,147.8 L200.5,145.4 L201.3,151.8 L202.2,152.5 L203.0,178.8 L203.9,187.5 L204.7,228.6 L205.6,240.6 L206.4,229.9 L207.2,230.3 L208.1,234.0 L208.9,237.6 L209.8,241.3 L210.6,236.0 L211.5,192.5 L212.3,182.2 L213.1,179.2 L214.0,173.5 L214.8,159.8 L215.7,153.5 L216.5,144.1 L217.4,150.8 L218.2,151.5 L219.0,150.1 L219.9,154.1 L220.7,141.1 L221.6,132.4 L222.4,141.1 L223.3,157.5 L224.1,182.5 L224.9,366.6 L225.8,233.6 L226.6,234.6 L227.5,237.0 L228.3,238.3 L229.2,236.0 L230.0,222.3 L230.8,187.9 L231.7,149.8 L232.5,133.4 L233.4,129.4 L234.2,130.4 L235.1,133.1 L235.9,139.1 L236.7,143.8 L237.6,147.8 L238.4,146.8 L239.3,142.8 L240.1,141.4 L241.0,137.8 L241.8,147.4 L242.6,163.5 L243.5,189.5 L244.3,212.6 L245.2,216.6 L246.0,228.9 L246.9,238.6 L247.7,244.3 L248.5,246.3 L249.4,243.6 L250.2,229.9 L251.1,196.9 L251.9,157.8 L252.8,139.1 L253.6,133.8 L254.4,134.1 L255.3,136.1 L256.1,141.8 L257.0,146.1 L257.8,149.8 L258.7,151.5 L259.5,149.8 L260.3,145.1 L261.2,142.8 L262.0,138.4 L262.9,147.4 L263.7,163.1 L264.6,188.5 L265.4,213.6 L266.2,228.6 L267.1,238.0 L267.9,244.0 L268.8,246.6 L269.6,244.0 L270.4,229.9 L271.3,197.9 L272.1,160.5 L273.0,143.4 L273.8,141.1 L274.7,142.8 L275.5,145.1 L276.3,150.8 L277.2,155.5 L278.0,157.1 L278.9,157.5 L279.7,155.8 L280.6,153.8 L281.4,150.8 L282.2,145.1 L283.1,152.8 L283.9,167.2 L284.8,191.5 L285.6,220.3 L286.5,226.9 L287.3,233.0 L288.1,238.3 L289.0,240.0 L289.8,240.3 L290.7,233.6 L291.5,219.6 L292.4,197.2 L293.2,179.2 L294.0,172.2 L294.9,165.8 L295.7,166.8 L296.6,172.8 L297.4,179.5 L298.3,184.2 L299.1,187.2 L299.9,188.9 L300.8,182.5 L301.6,175.2 L302.5,170.8 L303.3,176.2 L304.2,186.2 L305.0,203.2 L305.8,218.6 L306.7,226.3 L307.5,240.0 L308.4,246.6 L309.2,250.7 L310.1,251.3 L310.9,247.3 L311.7,235.0 L312.6,216.6 L313.4,199.6 L314.3,182.2 L315.1,175.2 L316.0,173.8 L316.8,174.2 L317.6,177.8 L318.5,179.5 L319.3,179.5 L320.2,172.2 L321.0,159.8 L321.9,153.1 L322.7,149.1 L323.5,156.8 L324.4,172.8 L325.2,194.9 L326.1,208.2 L326.9,229.3 L327.8,240.3 L328.6,246.3 L329.4,248.0 L330.3,245.3 L331.1,231.6 L332.0,198.6 L332.8,160.1 L333.7,141.8 L334.5,135.8 L335.3,135.8 L336.2,137.4 L337.0,142.1 L337.9,145.8 L338.7,149.1 L339.6,150.5 L340.4,147.1 L341.2,140.8 L342.1,138.1 L342.9,132.8 L343.8,140.8 L344.6,156.8 L345.4,181.9 L346.3,244.6 L347.1,233.6 L348.0,233.0 L348.8,240.3 L349.7,241.6 L350.5,238.0 L351.3,223.3 L352.2,191.9 L353.0,186.9 L353.9,187.5 L354.7,178.8 L355.6,161.1 L356.4,149.1 L357.2,146.1 L358.1,145.4 L358.9,147.1 L359.8,150.5 L360.6,159.5 L361.5,175.8 L362.3,176.8 L363.1,200.9 L364.0,170.5 L364.8,171.8 L365.7,195.9 L366.5,218.9 L367.4,234.0 L368.2,238.0 L369.0,241.3 L369.9,242.3 L370.7,239.6 L371.6,224.9 L372.4,192.5 L373.3,155.1 L374.1,139.1 L374.9,138.4 L375.8,143.1 L376.6,148.4 L377.5,155.1 L378.3,160.1 L379.2,161.8 L380.0,162.5 L380.8,159.5 L381.7,157.5 L382.5,155.1 L383.4,156.8 L384.2,160.1 L385.1,172.2 L385.9,196.2 L386.7,219.9 L387.6,235.6 L388.4,244.0 L389.3,249.7 L390.1,251.3 L391.0,249.7 L391.8,236.3 L392.6,224.9 L393.5,199.9 L394.3,192.5 L395.2,184.9 L396.0,167.8 L396.9,154.8 L397.7,150.8 L398.5,150.8 L399.4,150.5 L400.2,160.1 L401.1,160.5 L401.9,157.8 L402.8,154.8 L403.6,151.1 L404.4,158.1 L405.3,172.5 L406.1,197.2 L407.0,224.9 L407.8,237.6 L408.7,245.6 L409.5,251.3 L410.3,253.3 L411.2,251.0 L412.0,238.3 L412.9,206.9 L413.7,169.8 L414.6,152.8 L415.4,150.1 L416.2,151.8 L417.1,154.5 L417.9,159.1 L418.8,163.1 L419.6,164.8 L420.4,165.8 L421.3,162.1 L422.1,159.8 L423.0,158.8 L423.8,156.8 L424.7,162.1 L425.5,177.2 L426.3,200.9 L427.2,225.9 L428.0,234.6 L428.9,242.0 L429.7,248.3 L430.6,251.0 L431.4,252.3 L432.2,249.3 L433.1,236.0 L433.9,215.6 L434.8,197.2 L435.6,186.5 L436.5,180.8 L437.3,180.5 L438.1,186.2 L439.0,188.5 L439.8,189.9 L440.7,191.5 L441.5,189.9 L442.4,185.2 L443.2,181.5 L444.0,177.5 L444.9,181.5 L445.7,190.5 L446.6,207.9 L447.4,374.6 L448.3,282.4 L449.1,379.3 L449.9,420.0 L450.8,420.0 L451.6,420.0 L452.5,420.0 L453.3,420.0 L454.2,420.0 L455.0,420.0 L455.8,420.0 L456.7,420.0 L457.5,420.0 L458.4,420.0 L459.2,420.0 L460.1,420.0 L460.9,420.0 L461.7,420.0 L462.6,420.0 L463.4,420.0 L464.3,420.0 L465.1,420.0 L466.0,420.0 L466.8,420.0 L467.6,256.0 L468.5,371.9 L469.3,277.7 L470.2,240.3 L471.0,241.0 L471.9,239.0 L472.7,224.9 L473.5,193.5 L474.4,153.5 L475.2,136.8 L476.1,133.1 L476.9,135.4 L477.8,137.8 L478.6,142.1 L479.4,145.4 L480.3,149.1 L481.1,149.1 L482.0,144.1 L482.8,134.4 L483.7,130.1 L484.5,128.7 L485.3,136.8 L486.2,154.5 L487.0,180.8 L487.9,208.2 L488.7,219.9 L489.6,225.3 L490.4,231.3 L491.2,231.6 L492.1,228.6 L492.9,212.9 L493.8,180.2 L494.6,142.4 L495.4,128.4 L496.3,127.7 L497.1,132.1 L498.0,136.8 L498.8,142.1 L499.7,146.4 L500.5,150.8 L501.3,151.8 L502.2,147.1 L503.0,138.4 L503.9,133.4 L504.7,132.1 L505.6,139.8 L506.4,157.8 L507.2,184.2 L508.1,208.6 L508.9,226.3 L509.8,228.9 L510.6,234.0 L511.5,235.0 L512.3,234.3 L513.1,220.6 L514.0,190.2 L514.8,153.8 L515.7,138.1 L516.5,137.4 L517.4,141.8 L518.2,146.8 L519.0,152.8 L519.9,157.1 L520.7,159.5 L521.6,159.5 L522.4,156.5 L523.3,150.1 L524.1,145.4 L524.9,141.1 L525.8,149.1 L526.6,163.8 L527.5,188.5 L528.3,207.6 L529.2,224.6 L530.0,234.6 L530.8,239.6 L531.7,239.6 L532.5,236.3 L533.4,220.9 L534.2,189.5 L535.1,150.1 L535.9,133.4 L536.7,131.7 L537.6,136.8 L538.4,141.1 L539.3,146.8 L540.1,150.5 L541.0,154.5 L541.8,155.5 L542.6,150.5 L543.5,142.1 L544.3,136.1 L545.2,133.8 L546.0,141.8 L546.9,158.1 L547.7,183.9 L548.5,214.6 L549.4,225.3 L550.2,230.6 L551.1,236.0 L551.9,237.0 L552.8,234.0 L553.6,218.9 L554.4,186.9 L555.3,147.8 L556.1,132.4 L557.0,131.4 L557.8,136.4 L558.7,141.4 L559.5,147.4 L560.3,152.1 L561.2,156.8 L562.0,157.1 L562.9,153.5 L563.7,146.1 L564.6,142.8 L565.4,141.1 L566.2,151.5 L567.1,168.2 L567.9,194.5 L568.8,227.9 L569.6,233.3 L570.4,238.0 L571.3,244.6 L572.1,248.0 L573.0,250.0 L573.8,246.6 L574.7,234.3 L575.5,215.3 L576.3,196.2 L577.2,186.9 L578.0,181.5 L578.9,181.9 L579.7,188.5 L580.6,191.2 L581.4,193.2 L582.2,194.5 L583.1,193.5 L583.9,188.5 L584.8,184.5 L585.6,181.5 L586.5,185.9 L587.3,194.9 L588.1,212.6 L589.0,203.2 L589.8,217.3 L590.7,241.0 L591.5,254.7 L592.4,258.7 L593.2,261.3 L594.0,260.3 L594.9,255.7 L595.7,244.0 L596.6,228.9 L597.4,213.2 L598.3,194.9 L599.1,186.2 L599.9,182.5 L600.8,180.5 L601.6,183.5 L602.5,184.9 L603.3,184.9 L604.2,176.2 L605.0,159.8 L605.8,146.4 L606.7,148.8 L607.5,159.5 L608.4,175.8 L609.2,213.2 L610.1,229.9 L610.9,237.0 L611.7,243.0 L612.6,244.6 L613.4,242.3 L614.3,226.6 L615.1,195.2 L616.0,165.5 L616.8,149.5 L617.6,145.8 L618.5,146.4 L619.3,148.8 L620.2,152.8 L621.0,156.5 L621.9,157.8 L622.7,156.8 L623.5,150.5 L624.4,141.1 L625.2,139.1 L626.1,141.4 L626.9,152.8 L627.8,170.5 L628.6,195.9 L629.4,202.2 L630.3,235.3 L631.1,245.6 L632.0,253.0 L632.8,255.7 L633.7,254.7 L634.5,241.6 L635.3,209.2 L636.2,176.5 L637.0,159.1 L637.9,152.5 L638.7,150.8 L639.6,151.1 L640.4,154.5 L641.2,157.1 L642.1,158.1 L642.9,157.8 L643.8,151.5 L644.6,141.8 L645.4,138.8 L646.3,141.4 L647.1,152.1 L648.0,168.8 L648.8,196.9 L649.7,226.3 L650.5,237.6 L651.3,242.6 L652.2,249.3 L653.0,252.0 L653.9,251.3 L654.7,238.3 L655.6,206.2 L656.4,174.8 L657.2,157.5 L658.1,152.1 L658.9,152.1 L659.8,155.5 L660.6,160.5 L661.5,164.5 L662.3,164.8 L663.1,164.1 L664.0,159.8 L664.8,153.8 L665.7,153.1 L666.5,154.5 L667.4,164.5 L668.2,179.8 L669.0,204.2 L669.9,219.3 L670.7,240.6 L671.6,251.7 L672.4,257.3 L673.3,259.0 L674.1,257.0 L674.9,243.3 L675.8,211.9 L676.6,178.2 L677.5,161.8 L678.3,156.8 L679.2,155.5 L680.0,155.5" stroke="#9467bd" stroke-width="2" fill="none" opacity="0.8"/>
<!-- Total Generation -->
<path d="M80.0,182.5 L80.8,192.2 L81.7,195.5 L82.5,201.2 L83.4,223.3 L84.2,229.6 L85.1,226.3 L85.9,239.0 L86.7,246.6 L87.6,225.9 L88.4,225.3 L89.3,188.9 L90.1,179.5 L91.0,173.8 L91.8,168.8 L92.6,160.1 L93.5,162.1 L94.3,199.9 L95.2,215.9 L96.0,219.3 L96.9,214.2 L97.7,220.3 L98.5,232.0 L99.4,214.6 L100.2,209.9 L101.1,199.2 L101.9,197.2 L102.8,199.9 L103.6,198.6 L104.4,198.2 L105.3,232.6 L106.1,234.0 L107.0,236.3 L107.8,224.9 L108.7,232.6 L109.5,227.6 L110.3,171.2 L111.2,174.5 L112.0,201.2 L112.9,202.6 L113.7,204.2 L114.6,199.9 L115.4,186.9 L116.2,142.1 L117.1,147.8 L117.9,168.2 L118.8,172.2 L119.6,179.8 L120.4,175.2 L121.3,181.9 L122.1,189.9 L123.0,190.9 L123.8,204.6 L124.7,211.9 L125.5,218.9 L126.3,247.3 L127.2,241.6 L128.0,234.0 L128.9,221.3 L129.7,222.3 L130.6,218.9 L131.4,217.3 L132.2,202.9 L133.1,166.8 L133.9,178.5 L134.8,174.2 L135.6,179.2 L136.5,201.6 L137.3,183.5 L138.1,179.2 L139.0,158.5 L139.8,190.2 L140.7,195.2 L141.5,208.9 L142.4,215.6 L143.2,224.6 L144.0,227.9 L144.9,235.3 L145.7,239.0 L146.6,232.0 L147.4,232.6 L148.3,233.3 L149.1,204.9 L149.9,208.9 L150.8,200.2 L151.6,223.3 L152.5,213.6 L153.3,216.9 L154.2,192.2 L155.0,211.9 L155.8,247.0 L156.7,217.9 L157.5,213.2 L158.4,211.6 L159.2,220.6 L160.1,198.9 L160.9,147.4 L161.7,133.8 L162.6,157.1 L163.4,184.9 L164.3,194.9 L165.1,188.2 L166.0,174.2 L166.8,183.2 L167.6,175.2 L168.5,157.1 L169.3,139.1 L170.2,138.8 L171.0,155.5 L171.9,182.5 L172.7,191.5 L173.5,155.5 L174.4,139.8 L175.2,129.7 L176.1,185.9 L176.9,183.5 L177.8,182.2 L178.6,170.2 L179.4,179.5 L180.3,170.2 L181.1,180.5 L182.0,183.5 L182.8,190.5 L183.7,184.5 L184.5,185.9 L185.3,194.9 L186.2,198.2 L187.0,219.3 L187.9,227.9 L188.7,228.3 L189.6,213.2 L190.4,208.6 L191.2,206.6 L192.1,222.9 L192.9,233.3 L193.8,239.0 L194.6,240.6 L195.4,243.3 L196.3,238.6 L197.1,239.3 L198.0,247.0 L198.8,250.0 L199.7,238.0 L200.5,244.0 L201.3,245.0 L202.2,257.3 L203.0,261.3 L203.9,257.7 L204.7,258.7 L205.6,261.3 L206.4,264.0 L207.2,264.4 L208.1,265.0 L208.9,264.7 L209.8,267.0 L210.6,265.7 L211.5,262.3 L212.3,264.0 L213.1,258.0 L214.0,249.7 L214.8,249.0 L215.7,246.3 L216.5,241.3 L217.4,241.6 L218.2,242.0 L219.0,248.7 L219.9,252.7 L220.7,254.0 L221.6,255.7 L222.4,248.0 L223.3,254.0 L224.1,251.3 L224.9,236.0 L225.8,219.9 L226.6,220.9 L227.5,218.9 L228.3,221.6 L229.2,219.9 L230.0,218.3 L230.8,222.6 L231.7,219.3 L232.5,284.7 L233.4,287.4 L234.2,285.1 L235.1,281.1 L235.9,274.0 L236.7,278.7 L237.6,280.7 L238.4,281.4 L239.3,280.7 L240.1,257.7 L241.0,260.7 L241.8,261.3 L242.6,217.3 L243.5,207.2 L244.3,197.9 L245.2,205.2 L246.0,195.5 L246.9,186.2 L247.7,193.5 L248.5,168.8 L249.4,142.8 L250.2,136.8 L251.1,130.4 L251.9,126.7 L252.8,191.2 L253.6,199.2 L254.4,201.9 L255.3,195.9 L256.1,181.2 L257.0,180.5 L257.8,199.6 L258.7,192.5 L259.5,170.2 L260.3,149.8 L261.2,118.7 L262.0,117.1 L262.9,153.8 L263.7,135.8 L264.6,127.1 L265.4,124.7 L266.2,126.7 L267.1,153.8 L267.9,158.1 L268.8,158.1 L269.6,140.8 L270.4,132.8 L271.3,91.7 L272.1,86.3 L273.0,134.1 L273.8,139.4 L274.7,109.7 L275.5,105.4 L276.3,120.1 L277.2,134.8 L278.0,133.4 L278.9,127.7 L279.7,170.8 L280.6,135.8 L281.4,82.3 L282.2,119.1 L283.1,176.8 L283.9,157.1 L284.8,186.2 L285.6,142.4 L286.5,134.4 L287.3,110.0 L288.1,147.1 L289.0,149.1 L289.8,155.5 L290.7,150.1 L291.5,162.5 L292.4,161.1 L293.2,133.1 L294.0,111.0 L294.9,109.7 L295.7,114.4 L296.6,130.7 L297.4,129.4 L298.3,138.8 L299.1,132.8 L299.9,131.4 L300.8,130.1 L301.6,176.5 L302.5,188.9 L303.3,164.1 L304.2,162.8 L305.0,167.5 L305.8,162.1 L306.7,151.8 L307.5,138.1 L308.4,139.1 L309.2,159.8 L310.1,151.5 L310.9,147.4 L311.7,172.8 L312.6,175.2 L313.4,185.2 L314.3,168.2 L315.1,157.1 L316.0,161.8 L316.8,156.8 L317.6,106.7 L318.5,149.8 L319.3,159.8 L320.2,118.1 L321.0,128.1 L321.9,98.3 L322.7,94.3 L323.5,110.7 L324.4,96.3 L325.2,131.4 L326.1,131.7 L326.9,141.4 L327.8,138.4 L328.6,138.8 L329.4,159.1 L330.3,151.5 L331.1,128.4 L332.0,90.3 L332.8,100.4 L333.7,89.7 L334.5,113.4 L335.3,87.3 L336.2,108.7 L337.0,104.7 L337.9,104.0 L338.7,144.1 L339.6,149.8 L340.4,142.1 L341.2,79.6 L342.1,83.7 L342.9,82.6 L343.8,85.7 L344.6,72.0 L345.4,75.6 L346.3,91.0 L347.1,131.1 L348.0,154.8 L348.8,164.1 L349.7,158.5 L350.5,154.5 L351.3,117.7 L352.2,77.0 L353.0,88.0 L353.9,103.0 L354.7,117.1 L355.6,135.8 L356.4,123.7 L357.2,132.4 L358.1,115.0 L358.9,104.7 L359.8,114.4 L360.6,105.7 L361.5,91.0 L362.3,138.1 L363.1,151.5 L364.0,170.8 L364.8,188.9 L365.7,197.9 L366.5,206.9 L367.4,201.9 L368.2,197.9 L369.0,182.5 L369.9,180.8 L370.7,178.8 L371.6,179.5 L372.4,184.9 L373.3,187.2 L374.1,182.5 L374.9,163.1 L375.8,158.8 L376.6,170.5 L377.5,162.8 L378.3,169.2 L379.2,163.1 L380.0,155.5 L380.8,195.9 L381.7,185.9 L382.5,195.9 L383.4,193.2 L384.2,205.2 L385.1,200.2 L385.9,202.9 L386.7,195.5 L387.6,182.9 L388.4,175.5 L389.3,140.1 L390.1,121.7 L391.0,98.3 L391.8,109.4 L392.6,100.7 L393.5,80.0 L394.3,70.0 L395.2,72.6 L396.0,112.4 L396.9,118.4 L397.7,131.7 L398.5,136.4 L399.4,117.4 L400.2,111.7 L401.1,101.0 L401.9,125.1 L402.8,111.4 L403.6,141.1 L404.4,119.7 L405.3,110.0 L406.1,113.0 L407.0,136.1 L407.8,137.1 L408.7,125.4 L409.5,99.0 L410.3,97.3 L411.2,93.0 L412.0,101.0 L412.9,95.3 L413.7,85.0 L414.6,99.4 L415.4,100.7 L416.2,79.3 L417.1,107.0 L417.9,123.7 L418.8,121.1 L419.6,128.1 L420.4,148.8 L421.3,153.1 L422.1,173.2 L423.0,179.8 L423.8,180.8 L424.7,196.5 L425.5,195.9 L426.3,162.5 L427.2,151.5 L428.0,152.1 L428.9,154.1 L429.7,161.1 L430.6,166.2 L431.4,163.5 L432.2,165.5 L433.1,174.2 L433.9,177.8 L434.8,184.5 L435.6,164.5 L436.5,165.5 L437.3,178.2 L438.1,164.5 L439.0,196.9 L439.8,186.2 L440.7,190.9 L441.5,151.1 L442.4,154.5 L443.2,189.2 L444.0,207.2 L444.9,186.9 L445.7,162.1 L446.6,136.1 L447.4,144.8 L448.3,148.1 L449.1,153.1 L449.9,131.7 L450.8,145.1 L451.6,159.1 L452.5,149.1 L453.3,114.4 L454.2,110.4 L455.0,101.4 L455.8,91.7 L456.7,74.3 L457.5,82.0 L458.4,84.0 L459.2,86.0 L460.1,137.1 L460.9,130.7 L461.7,91.7 L462.6,102.4 L463.4,138.4 L464.3,166.2 L465.1,187.5 L466.0,184.2 L466.8,185.5 L467.6,185.9 L468.5,184.2 L469.3,178.8 L470.2,164.5 L471.0,146.8 L471.9,141.4 L472.7,127.1 L473.5,81.3 L474.4,108.7 L475.2,102.0 L476.1,67.6 L476.9,74.0 L477.8,85.7 L478.6,87.7 L479.4,78.3 L480.3,91.0 L481.1,86.7 L482.0,81.0 L482.8,93.7 L483.7,110.7 L484.5,109.4 L485.3,83.3 L486.2,101.4 L487.0,109.0 L487.9,140.1 L488.7,132.1 L489.6,133.1 L490.4,113.4 L491.2,114.0 L492.1,111.0 L492.9,117.7 L493.8,131.7 L494.6,163.1 L495.4,190.5 L496.3,152.5 L497.1,133.1 L498.0,140.1 L498.8,156.1 L499.7,165.5 L500.5,163.5 L501.3,198.9 L502.2,194.5 L503.0,201.6 L503.9,196.2 L504.7,207.6 L505.6,201.6 L506.4,205.9 L507.2,209.2 L508.1,197.2 L508.9,192.5 L509.8,185.5 L510.6,216.6 L511.5,215.3 L512.3,213.2 L513.1,205.6 L514.0,182.2 L514.8,170.2 L515.7,164.1 L516.5,185.2 L517.4,190.2 L518.2,170.5 L519.0,110.7 L519.9,115.7 L520.7,128.4 L521.6,123.7 L522.4,127.1 L523.3,145.8 L524.1,153.8 L524.9,148.8 L525.8,131.4 L526.6,137.4 L527.5,138.8 L528.3,150.8 L529.2,170.2 L530.0,175.5 L530.8,171.2 L531.7,173.5 L532.5,163.5 L533.4,153.8 L534.2,167.8 L535.1,172.2 L535.9,201.9 L536.7,185.2 L537.6,169.2 L538.4,183.2 L539.3,188.5 L540.1,202.9 L541.0,207.9 L541.8,191.9 L542.6,200.6 L543.5,200.2 L544.3,187.9 L545.2,183.9 L546.0,194.9 L546.9,205.6 L547.7,215.9 L548.5,212.9 L549.4,210.9 L550.2,210.6 L551.1,210.6 L551.9,207.9 L552.8,204.9 L553.6,204.2 L554.4,205.9 L555.3,207.6 L556.1,209.2 L557.0,199.2 L557.8,203.9 L558.7,208.9 L559.5,219.3 L560.3,214.2 L561.2,200.2 L562.0,208.2 L562.9,225.3 L563.7,189.5 L564.6,180.5 L565.4,221.3 L566.2,234.3 L567.1,227.6 L567.9,210.9 L568.8,175.2 L569.6,179.5 L570.4,164.1 L571.3,168.2 L572.1,167.2 L573.0,130.7 L573.8,136.8 L574.7,148.8 L575.5,142.1 L576.3,131.7 L577.2,116.7 L578.0,120.4 L578.9,118.4 L579.7,151.8 L580.6,159.5 L581.4,157.8 L582.2,184.2 L583.1,198.2 L583.9,176.8 L584.8,168.5 L585.6,191.5 L586.5,161.5 L587.3,150.5 L588.1,133.8 L589.0,125.7 L589.8,140.4 L590.7,134.4 L591.5,129.7 L592.4,152.5 L593.2,154.5 L594.0,156.1 L594.9,170.5 L595.7,160.5 L596.6,157.8 L597.4,158.1 L598.3,137.1 L599.1,117.7 L599.9,148.8 L600.8,155.1 L601.6,147.4 L602.5,166.5 L603.3,104.7 L604.2,76.0 L605.0,87.0 L605.8,92.3 L606.7,111.4 L607.5,107.4 L608.4,127.1 L609.2,136.8 L610.1,153.8 L610.9,160.1 L611.7,167.5 L612.6,197.9 L613.4,196.9 L614.3,198.6 L615.1,199.6 L616.0,192.5 L616.8,186.2 L617.6,179.5 L618.5,144.1 L619.3,155.1 L620.2,160.5 L621.0,158.8 L621.9,160.8 L622.7,179.2 L623.5,191.2 L624.4,197.5 L625.2,199.2 L626.1,193.9 L626.9,204.6 L627.8,200.6 L628.6,222.3 L629.4,204.9 L630.3,206.6 L631.1,217.9 L632.0,221.6 L632.8,208.6 L633.7,198.6 L634.5,171.5 L635.3,134.8 L636.2,110.0 L637.0,128.1 L637.9,172.2 L638.7,128.1 L639.6,147.1 L640.4,160.5 L641.2,137.8 L642.1,139.8 L642.9,151.1 L643.8,127.1 L644.6,170.2 L645.4,223.9 L646.3,231.6 L647.1,226.6 L648.0,225.9 L648.8,222.6 L649.7,223.3 L650.5,228.3 L651.3,230.3 L652.2,221.9 L653.0,220.3 L653.9,222.3 L654.7,194.9 L655.6,196.9 L656.4,235.3 L657.2,240.6 L658.1,229.9 L658.9,239.3 L659.8,226.3 L660.6,219.9 L661.5,230.6 L662.3,233.3 L663.1,237.0 L664.0,235.3 L664.8,185.2 L665.7,209.2 L666.5,192.2 L667.4,163.1 L668.2,147.1 L669.0,160.5 L669.9,114.0 L670.7,124.1 L671.6,193.9 L672.4,172.8 L673.3,196.9 L674.1,196.2 L674.9,166.2 L675.8,123.7 L676.6,122.1 L677.5,145.1 L678.3,82.3 L679.2,87.3 L680.0,114.7" stroke="#8c564b" stroke-width="2" fill="none" opacity="0.8"/>
<!-- Forecast Difference -->
<path d="M80.0,420.0 L80.8,420.0 L81.7,420.0 L82.5,420.0 L83.4,420.0 L84.2,420.0 L85.1,420.0 L85.9,420.0 L86.7,420.0 L87.6,420.0 L88.4,420.0 L89.3,420.0 L90.1,420.0 L91.0,420.0 L91.8,420.0 L92.6,420.0 L93.5,420.0 L94.3,420.0 L95.2,420.0 L96.0,420.0 L96.9,420.0 L97.7,420.0 L98.5,420.0 L99.4,420.0 L100.2,420.0 L101.1,420.0 L101.9,420.0 L102.8,420.0 L103.6,420.0 L104.4,420.0 L105.3,420.0 L106.1,420.0 L107.0,420.0 L107.8,420.0 L108.7,420.0 L109.5,420.0 L110.3,420.0 L111.2,420.0 L112.0,420.0 L112.9,420.0 L113.7,420.0 L114.6,420.0 L115.4,420.0 L116.2,420.0 L117.1,420.0 L117.9,420.0 L118.8,420.0 L119.6,420.0 L120.4,420.0 L121.3,420.0 L122.1,420.0 L123.0,420.0 L123.8,420.0 L124.7,420.0 L125.5,420.0 L126.3,420.0 L127.2,420.0 L128.0,420.0 L128.9,420.0 L129.7,420.0 L130.6,420.0 L131.4,420.0 L132.2,420.0 L133.1,420.0 L133.9,420.0 L134.8,420.0 L135.6,420.0 L136.5,420.0 L137.3,420.0 L138.1,420.0 L139.0,420.0 L139.8,420.0 L140.7,420.0 L141.5,420.0 L142.4,420.0 L143.2,420.0 L144.0,420.0 L144.9,420.0 L145.7,420.0 L146.6,420.0 L147.4,420.0 L148.3,420.0 L149.1,420.0 L149.9,420.0 L150.8,420.0 L151.6,420.0 L152.5,420.0 L153.3,420.0 L154.2,420.0 L155.0,420.0 L155.8,420.0 L156.7,420.0 L157.5,420.0 L158.4,420.0 L159.2,420.0 L160.1,420.0 L160.9,420.0 L161.7,420.0 L162.6,420.0 L163.4,420.0 L164.3,420.0 L165.1,420.0 L166.0,420.0 L166.8,420.0 L167.6,420.0 L168.5,420.0 L169.3,420.0 L170.2,420.0 L171.0,420.0 L171.9,420.0 L172.7,420.0 L173.5,420.0 L174.4,420.0 L175.2,420.0 L176.1,420.0 L176.9,420.0 L177.8,420.0 L178.6,420.0 L179.4,420.0 L180.3,420.0 L181.1,420.0 L182.0,420.0 L182.8,420.0 L183.7,420.0 L184.5,420.0 L185.3,420.0 L186.2,420.0 L187.0,420.0 L187.9,420.0 L188.7,420.0 L189.6,420.0 L190.4,420.0 L191.2,420.0 L192.1,420.0 L192.9,420.0 L193.8,420.0 L194.6,420.0 L195.4,420.0 L196.3,420.0 L197.1,420.0 L198.0,420.0 L198.8,420.0 L199.7,420.0 L200.5,420.0 L201.3,420.0 L202.2,420.0 L203.0,420.0 L203.9,420.0 L204.7,420.0 L205.6,420.0 L206.4,420.0 L207.2,420.0 L208.1,420.0 L208.9,420.0 L209.8,420.0 L210.6,420.0 L211.5,420.0 L212.3,420.0 L213.1,420.0 L214.0,420.0 L214.8,420.0 L215.7,420.0 L216.5,420.0 L217.4,420.0 L218.2,420.0 L219.0,420.0 L219.9,420.0 L220.7,420.0 L221.6,420.0 L222.4,420.0 L223.3,420.0 L224.1,420.0 L224.9,420.0 L225.8,420.0 L226.6,420.0 L227.5,420.0 L228.3,420.0 L229.2,420.0 L230.0,420.0 L230.8,420.0 L231.7,420.0 L232.5,420.0 L233.4,420.0 L234.2,420.0 L235.1,420.0 L235.9,420.0 L236.7,420.0 L237.6,420.0 L238.4,420.0 L239.3,420.0 L240.1,420.0 L241.0,420.0 L241.8,420.0 L242.6,420.0 L243.5,420.0 L244.3,420.0 L245.2,420.0 L246.0,420.0 L246.9,420.0 L247.7,420.0 L248.5,420.0 L249.4,420.0 L250.2,420.0 L251.1,420.0 L251.9,420.0 L252.8,420.0 L253.6,420.0 L254.4,420.0 L255.3,420.0 L256.1,420.0 L257.0,420.0 L257.8,420.0 L258.7,420.0 L259.5,420.0 L260.3,420.0 L261.2,420.0 L262.0,420.0 L262.9,420.0 L263.7,420.0 L264.6,420.0 L265.4,420.0 L266.2,420.0 L267.1,420.0 L267.9,420.0 L268.8,420.0 L269.6,420.0 L270.4,420.0 L271.3,420.0 L272.1,420.0 L273.0,420.0 L273.8,420.0 L274.7,420.0 L275.5,420.0 L276.3,420.0 L277.2,420.0 L278.0,420.0 L278.9,420.0 L279.7,420.0 L280.6,420.0 L281.4,420.0 L282.2,420.0 L283.1,420.0 L283.9,420.0 L284.8,420.0 L285.6,420.0 L286.5,420.0 L287.3,420.0 L288.1,420.0 L289.0,420.0 L289.8,420.0 L290.7,420.0 L291.5,420.0 L292.4,420.0 L293.2,420.0 L294.0,420.0 L294.9,420.0 L295.7,420.0 L296.6,420.0 L297.4,420.0 L298.3,420.0 L299.1,420.0 L299.9,420.0 L300.8,420.0 L301.6,420.0 L302.5,420.0 L303.3,420.0 L304.2,420.0 L305.0,420.0 L305.8,420.0 L306.7,420.0 L307.5,420.0 L308.4,420.0 L309.2,420.0 L310.1,420.0 L310.9,420.0 L311.7,420.0 L312.6,420.0 L313.4,420.0 L314.3,420.0 L315.1,420.0 L316.0,420.0 L316.8,420.0 L317.6,420.0 L318.5,420.0 L319.3,420.0 L320.2,420.0 L321.0,420.0 L321.9,420.0 L322.7,420.0 L323.5,420.0 L324.4,420.0 L325.2,420.0 L326.1,420.0 L326.9,420.0 L327.8,420.0 L328.6,420.0 L329.4,420.0 L330.3,420.0 L331.1,420.0 L332.0,420.0 L332.8,420.0 L333.7,420.0 L334.5,420.0 L335.3,420.0 L336.2,420.0 L337.0,420.0 L337.9,420.0 L338.7,420.0 L339.6,420.0 L340.4,420.0 L341.2,420.0 L342.1,420.0 L342.9,420.0 L343.8,420.0 L344.6,420.0 L345.4,420.0 L346.3,420.0 L347.1,420.0 L348.0,420.0 L348.8,420.0 L349.7,420.0 L350.5,420.0 L351.3,420.0 L352.2,420.0 L353.0,420.0 L353.9,420.0 L354.7,420.0 L355.6,420.0 L356.4,420.0 L357.2,420.0 L358.1,420.0 L358.9,420.0 L359.8,420.0 L360.6,420.0 L361.5,420.0 L362.3,420.0 L363.1,420.0 L364.0,420.0 L364.8,420.0 L365.7,420.0 L366.5,420.0 L367.4,420.0 L368.2,420.0 L369.0,420.0 L369.9,420.0 L370.7,420.0 L371.6,420.0 L372.4,420.0 L373.3,420.0 L374.1,420.0 L374.9,420.0 L375.8,420.0 L376.6,420.0 L377.5,420.0 L378.3,420.0 L379.2,420.0 L380.0,420.0 L380.8,420.0 L381.7,420.0 L382.5,420.0 L383.4,420.0 L384.2,420.0 L385.1,420.0 L385.9,420.0 L386.7,420.0 L387.6,420.0 L388.4,420.0 L389.3,420.0 L390.1,420.0 L391.0,420.0 L391.8,420.0 L392.6,420.0 L393.5,420.0 L394.3,420.0 L395.2,420.0 L396.0,420.0 L396.9,420.0 L397.7,420.0 L398.5,420.0 L399.4,420.0 L400.2,420.0 L401.1,420.0 L401.9,420.0 L402.8,420.0 L403.6,420.0 L404.4,420.0 L405.3,420.0 L406.1,420.0 L407.0,420.0 L407.8,420.0 L408.7,420.0 L409.5,420.0 L410.3,420.0 L411.2,420.0 L412.0,420.0 L412.9,420.0 L413.7,420.0 L414.6,420.0 L415.4,420.0 L416.2,420.0 L417.1,420.0 L417.9,420.0 L418.8,420.0 L419.6,420.0 L420.4,420.0 L421.3,420.0 L422.1,420.0 L423.0,420.0 L423.8,420.0 L424.7,420.0 L425.5,420.0 L426.3,420.0 L427.2,420.0 L428.0,420.0 L428.9,420.0 L429.7,420.0 L430.6,420.0 L431.4,420.0 L432.2,420.0 L433.1,420.0 L433.9,420.0 L434.8,420.0 L435.6,420.0 L436.5,420.0 L437.3,420.0 L438.1,420.0 L439.0,420.0 L439.8,420.0 L440.7,420.0 L441.5,420.0 L442.4,420.0 L443.2,420.0 L444.0,420.0 L444.9,420.0 L445.7,420.0 L446.6,420.0 L447.4,420.0 L448.3,420.0 L449.1,420.0 L449.9,420.0 L450.8,420.0 L451.6,420.0 L452.5,420.0 L453.3,420.0 L454.2,420.0 L455.0,420.0 L455.8,420.0 L456.7,420.0 L457.5,420.0 L458.4,420.0 L459.2,420.0 L460.1,420.0 L460.9,420.0 L461.7,420.0 L462.6,420.0 L463.4,420.0 L464.3,420.0 L465.1,420.0 L466.0,420.0 L466.8,420.0 L467.6,420.0 L468.5,420.0 L469.3,420.0 L470.2,420.0 L471.0,420.0 L471.9,420.0 L472.7,420.0 L473.5,420.0 L474.4,420.0 L475.2,420.0 L476.1,420.0 L476.9,420.0 L477.8,420.0 L478.6,420.0 L479.4,420.0 L480.3,420.0 L481.1,420.0 L482.0,420.0 L482.8,420.0 L483.7,420.0 L484.5,420.0 L485.3,420.0 L486.2,420.0 L487.0,420.0 L487.9,420.0 L488.7,420.0 L489.6,420.0 L490.4,420.0 L491.2,420.0 L492.1,420.0 L492.9,420.0 L493.8,420.0 L494.6,420.0 L495.4,420.0 L496.3,420.0 L497.1,420.0 L498.0,420.0 L498.8,420.0 L499.7,420.0 L500.5,420.0 L501.3,420.0 L502.2,420.0 L503.0,420.0 L503.9,420.0 L504.7,420.0 L505.6,420.0 L506.4,420.0 L507.2,420.0 L508.1,420.0 L508.9,420.0 L509.8,420.0 L510.6,420.0 L511.5,420.0 L512.3,420.0 L513.1,420.0 L514.0,420.0 L514.8,420.0 L515.7,420.0 L516.5,420.0 L517.4,420.0 L518.2,420.0 L519.0,420.0 L519.9,420.0 L520.7,420.0 L521.6,420.0 L522.4,420.0 L523.3,420.0 L524.1,420.0 L524.9,420.0 L525.8,420.0 L526.6,420.0 L527.5,420.0 L528.3,420.0 L529.2,420.0 L530.0,420.0 L530.8,420.0 L531.7,420.0 L532.5,420.0 L533.4,420.0 L534.2,420.0 L535.1,420.0 L535.9,420.0 L536.7,420.0 L537.6,420.0 L538.4,420.0 L539.3,420.0 L540.1,420.0 L541.0,420.0 L541.8,420.0 L542.6,420.0 L543.5,420.0 L544.3,420.0 L545.2,420.0 L546.0,420.0 L546.9,420.0 L547.7,420.0 L548.5,420.0 L549.4,420.0 L550.2,420.0 L551.1,420.0 L551.9,420.0 L552.8,420.0 L553.6,420.0 L554.4,420.0 L555.3,420.0 L556.1,420.0 L557.0,420.0 L557.8,420.0 L558.7,420.0 L559.5,420.0 L560.3,420.0 L561.2,420.0 L562.0,420.0 L562.9,420.0 L563.7,420.0 L564.6,420.0 L565.4,420.0 L566.2,420.0 L567.1,420.0 L567.9,420.0 L568.8,420.0 L569.6,420.0 L570.4,420.0 L571.3,420.0 L572.1,420.0 L573.0,420.0 L573.8,420.0 L574.7,420.0 L575.5,420.0 L576.3,420.0 L577.2,420.0 L578.0,420.0 L578.9,420.0 L579.7,420.0 L580.6,420.0 L581.4,420.0 L582.2,420.0 L583.1,420.0 L583.9,420.0 L584.8,420.0 L585.6,420.0 L586.5,420.0 L587.3,420.0 L588.1,420.0 L589.0,420.0 L589.8,420.0 L590.7,420.0 L591.5,420.0 L592.4,420.0 L593.2,420.0 L594.0,420.0 L594.9,420.0 L595.7,420.0 L596.6,420.0 L597.4,420.0 L598.3,420.0 L599.1,420.0 L599.9,420.0 L600.8,420.0 L601.6,420.0 L602.5,420.0 L603.3,420.0 L604.2,420.0 L605.0,420.0 L605.8,420.0 L606.7,420.0 L607.5,420.0 L608.4,420.0 L609.2,420.0 L610.1,420.0 L610.9,420.0 L611.7,420.0 L612.6,420.0 L613.4,420.0 L614.3,420.0 L615.1,420.0 L616.0,420.0 L616.8,420.0 L617.6,420.0 L618.5,420.0 L619.3,420.0 L620.2,420.0 L621.0,420.0 L621.9,420.0 L622.7,420.0 L623.5,420.0 L624.4,420.0 L625.2,420.0 L626.1,420.0 L626.9,420.0 L627.8,420.0 L628.6,420.0 L629.4,420.0 L630.3,420.0 L631.1,420.0 L632.0,420.0 L632.8,420.0 L633.7,420.0 L634.5,420.0 L635.3,420.0 L636.2,420.0 L637.0,420.0 L637.9,420.0 L638.7,420.0 L639.6,420.0 L640.4,420.0 L641.2,420.0 L642.1,420.0 L642.9,420.0 L643.8,420.0 L644.6,420.0 L645.4,420.0 L646.3,420.0 L647.1,420.0 L648.0,420.0 L648.8,420.0 L649.7,420.0 L650.5,420.0 L651.3,420.0 L652.2,420.0 L653.0,420.0 L653.9,420.0 L654.7,420.0 L655.6,420.0 L656.4,420.0 L657.2,420.0 L658.1,420.0 L658.9,420.0 L659.8,420.0 L660.6,420.0 L661.5,420.0 L662.3,420.0 L663.1,420.0 L664.0,420.0 L664.8,420.0 L665.7,420.0 L666.5,420.0 L667.4,420.0 L668.2,420.0 L669.0,420.0 L669.9,420.0 L670.7,420.0 L671.6,420.0 L672.4,420.0 L673.3,420.0 L674.1,420.0 L674.9,420.0 L675.8,420.0 L676.6,420.0 L677.5,420.0 L678.3,420.0 L679.2,420.0 L680.0,420.0" stroke="#e377c2" stroke-width="2" fill="none" opacity="0.8"/>

<!-- Legend -->
<line x1="690" y1="70" x2="705" y2="70" stroke="#1f77b4" stroke-width="3"/>
<text x="710" y="74" class="legend">Wind Generation</text>
<line x1="690" y1="88" x2="705" y2="88" stroke="#ff7f0e" stroke-width="3"/>
<text x="710" y="92" class="legend">Hydro Generation</text>
<line x1="690" y1="106" x2="705" y2="106" stroke="#2ca02c" stroke-width="3"/>
<text x="710" y="110" class="legend">Thermal Generation</text>
<line x1="690" y1="124" x2="705" y2="124" stroke="#d62728" stroke-width="3"/>
<text x="710" y="128" class="legend">Solar Generation</text>
<line x1="690" y1="142" x2="705" y2="142" stroke="#9467bd" stroke-width="3"/>
<text x="710" y="146" class="legend">Forecast</text>
<line x1="690" y1="160" x2="705" y2="160" stroke="#8c564b" stroke-width="3"/>
<text x="710" y="164" class="legend">Total Generation</text>
<line x1="690" y1="178" x2="705" y2="178" stroke="#e377c2" stroke-width="3"/>
<text x="710" y="182" class="legend">Forecast Difference</text>

<!-- Date range -->
<text x="80" y="495" class="legend">Range: 10/07 - 11/06/2025 (713 records)</text>
</svg>