<?xml version="1.0" encoding="UTF-8"?>
<svg width="800" height="500" xmlns="http://www.w3.org/2000/svg">
<style>
.axis-line { stroke: #333; stroke-width: 1; }
.grid-line { stroke: #ddd; stroke-width: 0.5; }
.title { font: 16px Arial; text-anchor: middle; fill: #333; }
.axis-label { font: 12px Arial; text-anchor: middle; fill: #666; }
.legend { font: 10px Arial; fill: #333; }
</style>

<!-- Title -->
<text x="400.0" y="25" class="title">Northwestern Energy Generation Data - Past 30 Days</text>

<!-- Plot area background -->
<rect x="80" y="50" width="600" height="370" fill="white" stroke="#ddd"/>

<!-- Y-axis -->
<line x1="80" y1="50" x2="80" y2="420" class="axis-line"/>
<text x="30" y="235.0" class="axis-label" transform="rotate(-90, 30, 235.0)">Generation (MW)</text>

<!-- X-axis -->
<line x1="80" y1="420" x2="680" y2="420" class="axis-line"/>
<text x="380.0" y="480" class="axis-label">Time</text>
<line x1="80" y1="420.0" x2="680" y2="420.0" class="grid-line"/>
<text x="70" y="425.0" class="legend" text-anchor="end">0</text>
<line x1="80" y1="327.5" x2="680" y2="327.5" class="grid-line"/>
<text x="70" y="332.5" class="legend" text-anchor="end">357</text>
<line x1="80" y1="235.0" x2="680" y2="235.0" class="grid-line"/>
<text x="70" y="240.0" class="legend" text-anchor="end">713</text>
<line x1="80" y1="142.5" x2="680" y2="142.5" class="grid-line"/>
<text x="70" y="147.5" class="legend" text-anchor="end">1070</text>
<line x1="80" y1="50.0" x2="680" y2="50.0" class="grid-line"/>
<text x="70" y="55.0" class="legend" text-anchor="end">1427</text>
<!-- Wind Generation -->
<path d="M80.0,396.9 L80.8,395.6 L81.7,390.7 L82.5,391.7 L83.4,400.3 L84.2,407.0 L85.0,402.6 L85.9,405.7 L86.7,402.9 L87.6,399.8 L88.4,408.9 L89.3,411.4 L90.1,406.5 L90.9,408.9 L91.8,409.1 L92.6,413.8 L93.5,407.3 L94.3,385.5 L95.1,379.3 L96.0,368.7 L96.8,350.8 L97.7,346.1 L98.5,340.9 L99.4,357.5 L100.2,336.2 L101.0,333.9 L101.9,346.6 L102.7,339.6 L103.6,353.1 L104.4,368.7 L105.2,344.0 L106.1,353.4 L106.9,345.3 L107.8,373.6 L108.6,382.4 L109.5,396.4 L110.3,403.1 L111.1,411.7 L112.0,415.6 L112.8,414.0 L113.7,413.5 L114.5,413.0 L115.3,414.8 L116.2,412.2 L117.0,402.6 L117.9,406.8 L118.7,408.3 L119.6,407.3 L120.4,401.3 L121.2,406.3 L122.1,403.7 L122.9,399.3 L123.8,395.6 L124.6,386.0 L125.4,384.0 L126.3,393.6 L127.1,366.3 L128.0,358.5 L128.8,358.8 L129.6,350.8 L130.5,356.0 L131.3,348.2 L132.2,340.9 L133.0,351.5 L133.9,368.7 L134.7,368.1 L135.5,362.7 L136.4,354.1 L137.2,347.9 L138.1,351.0 L138.9,335.7 L139.7,326.7 L140.6,320.4 L141.4,318.9 L142.3,320.9 L143.1,318.9 L144.0,319.9 L144.8,323.0 L145.6,328.5 L146.5,329.2 L147.3,330.8 L148.2,328.7 L149.0,325.1 L149.8,320.2 L150.7,323.0 L151.5,325.1 L152.4,323.3 L153.2,320.9 L154.1,325.1 L154.9,320.4 L155.7,320.2 L156.6,322.2 L157.4,326.9 L158.3,325.6 L159.1,328.2 L159.9,330.5 L160.8,330.3 L161.6,326.4 L162.5,319.4 L163.3,328.5 L164.2,326.4 L165.0,348.4 L165.8,355.2 L166.7,355.2 L167.5,357.3 L168.4,354.1 L169.2,356.5 L170.0,362.4 L170.9,370.5 L171.7,372.3 L172.6,371.0 L173.4,379.8 L174.2,374.1 L175.1,375.9 L175.9,377.5 L176.8,374.6 L177.6,373.8 L178.5,363.2 L179.3,325.1 L180.1,329.8 L181.0,330.3 L181.8,340.7 L182.7,342.2 L183.5,354.1 L184.3,353.9 L185.2,322.0 L186.0,345.6 L186.9,347.4 L187.7,343.0 L188.6,320.4 L189.4,324.3 L190.2,359.3 L191.1,370.2 L191.9,383.2 L192.8,381.6 L193.6,400.3 L194.4,398.0 L195.3,398.5 L196.1,399.0 L197.0,401.8 L197.8,393.0 L198.7,375.1 L199.5,390.4 L200.3,379.8 L201.2,365.8 L202.0,351.0 L202.9,345.3 L203.7,356.2 L204.5,355.2 L205.4,376.2 L206.2,377.5 L207.1,364.3 L207.9,367.9 L208.8,364.3 L209.6,364.0 L210.4,360.9 L211.3,364.5 L212.1,342.0 L213.0,355.7 L213.8,372.0 L214.6,361.4 L215.5,367.1 L216.3,363.0 L217.2,362.4 L218.0,366.1 L218.8,374.6 L219.7,371.8 L220.5,368.7 L221.4,372.5 L222.2,371.8 L223.1,388.6 L223.9,403.7 L224.7,403.7 L225.6,402.6 L226.4,404.2 L227.3,403.7 L228.1,393.6 L228.9,386.3 L229.8,383.2 L230.6,385.3 L231.5,394.3 L232.3,393.6 L233.2,381.4 L234.0,393.3 L234.8,402.6 L235.7,399.5 L236.5,408.3 L237.4,404.4 L238.2,400.0 L239.0,386.8 L239.9,395.1 L240.7,384.7 L241.6,382.7 L242.4,374.1 L243.3,392.5 L244.1,388.9 L244.9,374.9 L245.8,354.1 L246.6,327.2 L247.5,344.8 L248.3,352.8 L249.1,317.6 L250.0,313.7 L250.8,318.9 L251.7,315.5 L252.5,326.9 L253.4,335.5 L254.2,344.5 L255.0,344.3 L255.9,339.6 L256.7,344.0 L257.6,349.5 L258.4,355.2 L259.2,357.3 L260.1,359.8 L260.9,360.9 L261.8,360.1 L262.6,358.8 L263.5,364.5 L264.3,372.0 L265.1,372.5 L266.0,374.4 L266.8,371.8 L267.7,371.0 L268.5,365.5 L269.3,368.4 L270.2,364.0 L271.0,363.7 L271.9,364.3 L272.7,367.9 L273.5,367.1 L274.4,372.3 L275.2,378.0 L276.1,385.8 L276.9,388.9 L277.8,392.0 L278.6,395.9 L279.4,401.8 L280.3,403.7 L281.1,407.3 L282.0,412.7 L282.8,419.0 L283.6,420.0 L284.5,419.7 L285.3,420.0 L286.2,420.0 L287.0,420.0 L287.9,420.0 L288.7,420.0 L289.5,420.0 L290.4,420.0 L291.2,420.0 L292.1,420.0 L292.9,418.7 L293.7,418.4 L294.6,419.2 L295.4,419.0 L296.3,419.5 L297.1,418.7 L298.0,418.4 L298.8,417.9 L299.6,414.8 L300.5,411.7 L301.3,408.9 L302.2,405.7 L303.0,406.0 L303.8,405.0 L304.7,399.5 L305.5,389.9 L306.4,386.0 L307.2,393.6 L308.1,351.5 L308.9,332.6 L309.7,348.2 L310.6,358.3 L311.4,366.3 L312.3,370.0 L313.1,365.3 L313.9,379.3 L314.8,383.7 L315.6,385.0 L316.5,402.6 L317.3,409.1 L318.1,410.4 L319.0,415.9 L319.8,415.9 L320.7,416.4 L321.5,416.6 L322.4,416.6 L323.2,417.1 L324.0,417.4 L324.9,417.7 L325.7,417.4 L326.6,417.1 L327.4,417.1 L328.2,416.6 L329.1,414.3 L329.9,411.4 L330.8,407.6 L331.6,406.0 L332.5,401.3 L333.3,398.2 L334.1,393.3 L335.0,395.4 L335.8,395.9 L336.7,396.1 L337.5,402.1 L338.3,406.0 L339.2,408.3 L340.0,410.9 L340.9,407.0 L341.7,411.7 L342.6,411.2 L343.4,407.3 L344.2,406.5 L345.1,405.2 L345.9,404.7 L346.8,415.6 L347.6,417.9 L348.4,416.6 L349.3,418.2 L350.1,418.4 L351.0,419.0 L351.8,418.7 L352.7,417.9 L353.5,413.0 L354.3,407.8 L355.2,404.2 L356.0,403.4 L356.9,396.1 L357.7,387.6 L358.5,381.6 L359.4,370.7 L360.2,377.0 L361.1,382.4 L361.9,356.0 L362.7,352.6 L363.6,352.6 L364.4,356.7 L365.3,340.1 L366.1,369.4 L367.0,358.3 L367.8,368.9 L368.6,372.3 L369.5,364.0 L370.3,352.1 L371.2,345.8 L372.0,345.6 L372.8,346.9 L373.7,320.4 L374.5,323.3 L375.4,313.2 L376.2,314.2 L377.1,343.8 L377.9,331.1 L378.7,339.9 L379.6,331.3 L380.4,335.5 L381.3,337.3 L382.1,344.3 L382.9,335.2 L383.8,335.0 L384.6,324.8 L385.5,331.1 L386.3,353.6 L387.2,359.6 L388.0,361.9 L388.8,367.4 L389.7,381.4 L390.5,382.4 L391.4,372.5 L392.2,353.1 L393.0,350.8 L393.9,367.1 L394.7,365.5 L395.6,362.2 L396.4,342.0 L397.3,352.1 L398.1,354.7 L398.9,361.1 L399.8,373.6 L400.6,359.1 L401.5,342.7 L402.3,319.4 L403.1,313.9 L404.0,316.0 L404.8,313.2 L405.7,317.3 L406.5,316.0 L407.3,332.6 L408.2,328.7 L409.0,332.1 L409.9,320.7 L410.7,330.8 L411.6,330.3 L412.4,324.8 L413.2,318.1 L414.1,324.8 L414.9,323.0 L415.8,339.1 L416.6,338.1 L417.4,325.4 L418.3,321.5 L419.1,325.1 L420.0,325.1 L420.8,328.2 L421.7,330.5 L422.5,337.8 L423.3,332.4 L424.2,336.5 L425.0,341.7 L425.9,331.6 L426.7,332.1 L427.5,363.7 L428.4,399.5 L429.2,393.6 L430.1,389.4 L430.9,384.5 L431.8,387.1 L432.6,383.4 L433.4,345.1 L434.3,347.7 L435.1,354.9 L436.0,368.7 L436.8,360.9 L437.6,362.4 L438.5,344.5 L439.3,334.4 L440.2,345.8 L441.0,364.0 L441.9,352.1 L442.7,327.7 L443.5,322.0 L444.4,322.5 L445.2,326.9 L446.1,327.4 L446.9,337.3 L447.7,338.6 L448.6,335.0 L449.4,333.9 L450.3,333.4 L451.1,333.4 L451.9,332.9 L452.8,337.0 L453.6,318.6 L454.5,315.0 L455.3,315.0 L456.2,314.7 L457.0,316.8 L457.8,316.0 L458.7,315.2 L459.5,328.2 L460.4,328.5 L461.2,319.4 L462.0,323.0 L462.9,322.0 L463.7,324.1 L464.6,333.7 L465.4,339.4 L466.3,365.8 L467.1,369.4 L467.9,372.8 L468.8,367.1 L469.6,365.0 L470.5,373.1 L471.3,402.4 L472.1,396.7 L473.0,386.3 L473.8,387.6 L474.7,386.6 L475.5,388.9 L476.4,405.5 L477.2,414.0 L478.0,418.7 L478.9,420.0 L479.7,417.4 L480.6,414.3 L481.4,409.4 L482.2,410.4 L483.1,408.9 L483.9,407.0 L484.8,402.6 L485.6,405.2 L486.5,397.4 L487.3,383.4 L488.1,386.8 L489.0,359.6 L489.8,350.0 L490.7,344.3 L491.5,351.0 L492.3,347.9 L493.2,345.3 L494.0,360.9 L494.9,370.2 L495.7,380.8 L496.5,404.2 L497.4,409.4 L498.2,403.4 L499.1,396.4 L499.9,390.7 L500.8,393.0 L501.6,400.3 L502.4,395.9 L503.3,399.3 L504.1,400.6 L505.0,399.8 L505.8,399.8 L506.6,400.8 L507.5,398.5 L508.3,404.4 L509.2,404.2 L510.0,402.1 L510.9,398.7 L511.7,382.1 L512.5,378.5 L513.4,367.6 L514.2,375.1 L515.1,380.6 L515.9,363.2 L516.7,362.2 L517.6,360.9 L518.4,353.1 L519.3,353.6 L520.1,373.8 L521.0,366.6 L521.8,375.9 L522.6,378.0 L523.5,394.1 L524.3,383.7 L525.2,380.3 L526.0,367.9 L526.8,358.8 L527.7,377.7 L528.5,367.6 L529.4,349.0 L530.2,366.6 L531.1,369.4 L531.9,364.5 L532.7,344.0 L533.6,365.3 L534.4,365.3 L535.3,371.8 L536.1,398.5 L536.9,387.6 L537.8,388.9 L538.6,392.8 L539.5,394.3 L540.3,372.8 L541.2,359.3 L542.0,332.9 L542.8,324.8 L543.7,326.7 L544.5,350.2 L545.4,338.1 L546.2,344.8 L547.0,356.0 L547.9,374.6 L548.7,371.0 L549.6,393.6 L550.4,400.6 L551.2,400.6 L552.1,400.6 L552.9,402.6 L553.8,399.8 L554.6,400.0 L555.5,399.0 L556.3,394.1 L557.1,397.2 L558.0,396.7 L558.8,394.3 L559.7,395.9 L560.5,388.9 L561.3,382.7 L562.2,382.1 L563.0,372.5 L563.9,373.8 L564.7,376.2 L565.6,372.5 L566.4,366.3 L567.2,379.8 L568.1,379.8 L568.9,382.7 L569.8,375.1 L570.6,363.7 L571.4,371.0 L572.3,354.1 L573.1,374.9 L574.0,381.6 L574.8,368.1 L575.7,348.2 L576.5,364.3 L577.3,380.8 L578.2,372.0 L579.0,380.3 L579.9,372.0 L580.7,368.4 L581.5,363.5 L582.4,363.2 L583.2,380.8 L584.1,392.3 L584.9,389.9 L585.8,391.7 L586.6,390.7 L587.4,401.1 L588.3,406.3 L589.1,410.9 L590.0,406.0 L590.8,398.0 L591.6,400.3 L592.5,388.1 L593.3,369.2 L594.2,358.3 L595.0,354.9 L595.8,312.7 L596.7,317.6 L597.5,321.7 L598.4,314.5 L599.2,319.4 L600.1,313.7 L600.9,314.7 L601.7,309.5 L602.6,312.1 L603.4,314.5 L604.3,316.0 L605.1,318.9 L605.9,314.5 L606.8,315.2 L607.6,313.4 L608.5,360.9 L609.3,367.1 L610.2,369.7 L611.0,374.4 L611.8,369.7 L612.7,365.3 L613.5,364.3 L614.4,364.3 L615.2,365.3 L616.0,322.5 L616.9,319.1 L617.7,313.2 L618.6,314.7 L619.4,316.5 L620.3,320.9 L621.1,320.9 L621.9,327.7 L622.8,320.9 L624.5,329.2 L625.3,343.0 L626.1,341.4 L627.0,350.8 L627.8,341.2 L628.7,335.0 L629.5,384.0 L630.4,396.4 L631.2,395.9 L632.0,401.6 L632.9,403.4 L633.7,409.1 L634.6,408.1 L635.4,398.7 L636.2,386.6 L637.1,349.2 L637.9,331.1 L638.8,322.0 L639.6,328.2 L640.4,343.2 L641.3,350.8 L642.1,361.7 L643.0,367.9 L643.8,374.1 L644.7,379.8 L645.5,392.8 L646.3,399.0 L647.2,409.4 L648.0,417.9 L648.9,419.5 L649.7,420.0 L650.5,416.6 L651.4,405.0 L652.2,399.8 L653.1,394.3 L653.9,389.4 L654.8,378.5 L655.6,393.0 L656.4,389.4 L657.3,380.8 L658.1,388.6 L659.0,398.7 L659.8,401.1 L660.6,405.0 L661.5,412.5 L662.3,415.3 L663.2,415.9 L664.0,416.1 L664.9,414.3 L665.7,414.8 L666.5,411.2 L667.4,406.5 L668.2,393.8 L669.1,394.8 L669.9,387.6 L670.7,392.5 L671.6,374.6 L672.4,368.9 L673.3,364.3 L674.1,355.7 L675.0,365.5 L675.8,382.9 L676.6,349.5 L677.5,361.7 L678.3,368.1 L679.2,355.2 L680.0,380.3" stroke="#1f77b4" stroke-width="2" fill="none" opacity="0.8"/>
<!-- Hydro Generation -->
<path d="M80.0,351.0 L80.8,351.0 L81.7,351.0 L82.5,351.0 L83.4,351.0 L84.2,351.0 L85.0,350.5 L85.9,350.5 L86.7,350.8 L87.6,350.2 L88.4,350.2 L89.3,350.2 L90.1,350.2 L90.9,350.8 L91.8,350.8 L92.6,350.2 L93.5,350.2 L94.3,349.0 L95.1,349.5 L96.0,349.5 L96.8,349.0 L97.7,350.0 L98.5,350.0 L99.4,350.2 L100.2,350.0 L101.0,349.5 L101.9,350.0 L102.7,350.0 L103.6,350.2 L104.4,350.2 L105.2,350.0 L106.1,349.5 L106.9,349.7 L107.8,350.0 L108.6,349.7 L109.5,349.7 L110.3,349.7 L111.1,350.5 L112.0,350.2 L112.8,349.7 L113.7,348.7 L114.5,349.2 L115.3,349.0 L116.2,349.0 L117.0,349.0 L117.9,348.7 L118.7,348.7 L119.6,349.2 L120.4,349.0 L121.2,349.2 L122.1,348.7 L122.9,348.7 L123.8,348.4 L124.6,348.7 L125.4,348.4 L126.3,348.7 L127.1,348.4 L128.0,348.4 L128.8,347.7 L129.6,347.7 L130.5,347.4 L131.3,347.1 L132.2,347.1 L133.0,347.4 L133.9,346.9 L134.7,347.1 L135.5,347.1 L136.4,347.1 L137.2,347.1 L138.1,348.4 L138.9,347.9 L139.7,347.9 L140.6,347.1 L141.4,348.4 L142.3,347.9 L143.1,348.2 L144.0,348.2 L144.8,348.2 L145.6,348.4 L146.5,348.4 L147.3,348.2 L148.2,347.9 L149.0,347.7 L149.8,348.2 L150.7,348.4 L151.5,348.2 L152.4,349.0 L153.2,349.2 L154.1,349.0 L154.9,349.5 L155.7,349.2 L156.6,349.5 L157.4,349.2 L158.3,349.2 L159.1,349.2 L159.9,349.0 L160.8,349.2 L161.6,349.2 L162.5,349.7 L163.3,349.7 L164.2,350.0 L165.0,350.0 L165.8,350.0 L166.7,350.0 L167.5,349.7 L168.4,350.2 L169.2,350.0 L170.0,349.2 L170.9,349.2 L171.7,349.2 L172.6,348.7 L173.4,349.7 L174.2,349.7 L175.1,350.0 L175.9,349.5 L176.8,350.0 L177.6,350.0 L178.5,349.7 L179.3,350.0 L180.1,350.0 L181.0,350.2 L181.8,350.0 L182.7,350.2 L183.5,350.2 L184.3,350.5 L185.2,350.2 L186.0,350.2 L186.9,350.2 L187.7,350.0 L188.6,350.2 L189.4,350.8 L190.2,351.0 L191.1,350.5 L191.9,350.8 L192.8,350.8 L193.6,350.5 L194.4,351.3 L195.3,351.0 L196.1,352.1 L197.0,352.1 L197.8,351.5 L198.7,351.5 L199.5,351.5 L200.3,351.3 L201.2,351.3 L202.0,351.3 L202.9,351.3 L203.7,351.5 L204.5,351.5 L205.4,351.5 L206.2,351.3 L207.1,351.0 L207.9,351.0 L208.8,350.8 L209.6,351.3 L210.4,351.0 L211.3,350.8 L212.1,350.8 L213.0,350.2 L213.8,350.5 L214.6,350.5 L215.5,350.0 L216.3,350.2 L217.2,350.5 L218.0,351.0 L218.8,351.0 L219.7,350.8 L220.5,351.0 L221.4,350.5 L222.2,351.0 L223.1,351.0 L223.9,351.0 L224.7,350.8 L225.6,351.0 L226.4,351.3 L227.3,350.8 L228.1,349.7 L228.9,349.7 L229.8,349.5 L230.6,349.5 L231.5,349.2 L232.3,348.7 L233.2,347.9 L234.0,348.4 L234.8,347.9 L235.7,347.9 L236.5,347.1 L237.4,347.1 L238.2,347.7 L239.0,347.1 L239.9,347.4 L240.7,347.4 L241.6,348.2 L242.4,348.4 L243.3,348.2 L244.1,348.4 L244.9,347.9 L245.8,349.0 L246.6,349.0 L247.5,349.2 L248.3,349.2 L249.1,349.2 L250.0,349.2 L250.8,349.2 L251.7,348.4 L252.5,348.2 L253.4,348.4 L254.2,348.7 L255.0,348.2 L255.9,347.4 L256.7,346.6 L257.6,346.9 L258.4,346.1 L259.2,346.6 L260.1,346.4 L260.9,346.4 L261.8,346.4 L262.6,346.4 L263.5,346.1 L264.3,347.7 L265.1,347.9 L266.0,348.2 L266.8,347.9 L267.7,346.9 L268.5,347.1 L269.3,346.4 L270.2,345.3 L271.0,345.8 L271.9,345.3 L272.7,345.8 L273.5,345.1 L274.4,344.0 L275.2,344.5 L276.1,343.2 L276.9,343.2 L277.8,343.8 L278.6,343.8 L279.4,344.3 L280.3,349.5 L281.1,350.8 L282.0,354.4 L282.8,356.5 L283.6,356.0 L284.5,357.0 L285.3,356.2 L286.2,357.0 L287.0,358.0 L287.9,357.3 L288.7,355.7 L289.5,355.2 L290.4,355.2 L291.2,353.6 L292.1,353.6 L292.9,353.4 L293.7,353.6 L294.6,353.4 L295.4,353.4 L296.3,353.6 L297.1,353.6 L298.0,353.9 L298.8,354.1 L299.6,354.1 L300.5,355.4 L301.3,355.2 L302.2,358.0 L303.0,359.3 L303.8,359.3 L304.7,359.6 L305.5,360.9 L306.4,361.4 L307.2,361.4 L308.1,361.7 L308.9,364.0 L309.7,375.9 L310.6,376.2 L311.4,362.7 L312.3,362.7 L313.1,362.4 L313.9,362.2 L314.8,362.4 L315.6,363.2 L316.5,362.7 L317.3,363.2 L318.1,363.2 L319.0,361.4 L319.8,360.9 L320.7,360.9 L321.5,359.3 L322.4,358.3 L323.2,355.4 L324.0,355.2 L324.9,355.7 L325.7,355.7 L326.6,356.0 L327.4,354.4 L328.2,354.1 L329.1,354.4 L329.9,351.5 L330.8,351.5 L331.6,352.3 L332.5,350.0 L333.3,349.7 L334.1,350.2 L335.0,348.7 L335.8,348.4 L336.7,346.9 L337.5,347.7 L338.3,346.9 L339.2,347.4 L340.0,347.1 L340.9,346.9 L341.7,346.9 L342.6,346.6 L343.4,346.6 L344.2,346.9 L345.1,346.6 L345.9,346.6 L346.8,346.1 L347.6,346.1 L348.4,347.7 L349.3,347.4 L350.1,345.8 L351.0,345.1 L351.8,344.8 L352.7,342.5 L353.5,342.2 L354.3,342.5 L355.2,342.0 L356.0,342.2 L356.9,342.2 L357.7,341.7 L358.5,341.7 L359.4,341.7 L360.2,341.7 L361.1,341.7 L361.9,342.0 L362.7,342.2 L363.6,342.0 L364.4,342.0 L365.3,342.7 L366.1,342.5 L367.0,343.2 L367.8,341.7 L368.6,342.2 L369.5,342.5 L370.3,342.7 L371.2,342.7 L372.0,342.5 L372.8,341.7 L373.7,341.4 L374.5,341.7 L375.4,341.7 L376.2,341.7 L377.1,341.2 L377.9,340.9 L378.7,340.7 L379.6,340.9 L380.4,340.9 L381.3,339.9 L382.1,339.6 L382.9,339.6 L383.8,339.6 L384.6,339.9 L385.5,339.4 L386.3,339.6 L387.2,339.9 L388.0,340.4 L388.8,340.4 L389.7,340.1 L390.5,340.4 L391.4,341.2 L392.2,339.9 L393.0,338.8 L393.9,338.6 L394.7,338.8 L395.6,337.8 L396.4,338.3 L397.3,338.3 L398.1,337.8 L398.9,338.3 L399.8,338.6 L400.6,338.6 L401.5,338.1 L402.3,338.1 L403.1,337.8 L404.0,338.3 L404.8,338.1 L405.7,338.8 L406.5,340.1 L407.3,340.7 L408.2,340.9 L409.0,340.7 L409.9,340.4 L410.7,340.7 L411.6,340.4 L412.4,340.4 L413.2,339.9 L414.1,340.4 L414.9,338.6 L415.8,338.8 L416.6,338.6 L417.4,337.5 L418.3,338.3 L419.1,338.1 L420.0,338.1 L420.8,338.3 L421.7,338.3 L422.5,339.1 L423.3,340.1 L424.2,340.4 L425.0,340.7 L425.9,340.4 L426.7,341.2 L427.5,341.2 L428.4,341.2 L429.2,341.4 L430.1,342.5 L430.9,343.5 L431.8,344.5 L432.6,342.0 L433.4,342.7 L434.3,343.2 L435.1,343.0 L436.0,342.7 L436.8,343.5 L437.6,343.2 L438.5,343.2 L439.3,343.2 L440.2,343.5 L441.0,343.0 L441.9,342.7 L442.7,342.0 L443.5,342.2 L444.4,342.2 L445.2,342.0 L446.1,342.7 L446.9,342.7 L447.7,343.0 L448.6,344.0 L449.4,346.1 L450.3,345.6 L451.1,347.1 L451.9,347.4 L452.8,349.7 L453.6,350.0 L454.5,349.5 L455.3,349.7 L456.2,350.8 L457.0,351.0 L457.8,351.0 L458.7,351.8 L459.5,352.6 L460.4,351.5 L461.2,351.5 L462.0,351.5 L462.9,351.8 L463.7,351.8 L464.6,352.8 L465.4,353.9 L466.3,355.2 L467.1,354.9 L467.9,354.7 L468.8,355.2 L469.6,354.9 L470.5,354.9 L471.3,355.4 L472.1,354.9 L473.0,354.7 L473.8,354.9 L474.7,354.9 L475.5,355.2 L476.4,354.9 L477.2,355.4 L478.0,355.4 L478.9,355.2 L479.7,355.2 L480.6,354.9 L481.4,354.9 L482.2,355.2 L483.1,355.2 L483.9,355.2 L484.8,355.4 L485.6,355.7 L486.5,356.5 L487.3,356.0 L488.1,356.5 L489.0,356.2 L489.8,356.0 L490.7,356.0 L491.5,355.7 L492.3,355.7 L493.2,356.0 L494.0,356.0 L494.9,356.2 L495.7,356.0 L496.5,356.0 L497.4,356.0 L498.2,356.0 L499.1,356.2 L499.9,356.2 L500.8,355.4 L501.6,356.0 L502.4,355.4 L503.3,355.4 L504.1,355.4 L505.0,354.7 L505.8,354.9 L506.6,354.9 L507.5,354.9 L508.3,354.4 L509.2,354.7 L510.0,354.4 L510.9,355.4 L511.7,356.2 L512.5,355.2 L513.4,355.2 L514.2,355.7 L515.1,356.5 L515.9,357.3 L516.7,357.8 L517.6,357.8 L518.4,357.8 L519.3,357.8 L520.1,356.7 L521.0,356.5 L521.8,356.5 L522.6,355.7 L523.5,355.4 L524.3,355.2 L525.2,354.9 L526.0,355.2 L526.8,354.1 L527.7,354.1 L528.5,354.1 L529.4,354.1 L530.2,354.1 L531.1,353.9 L531.9,353.9 L532.7,353.4 L533.6,353.4 L534.4,353.6 L535.3,353.6 L536.1,352.8 L536.9,353.4 L537.8,353.4 L538.6,353.1 L539.5,353.1 L540.3,353.1 L541.2,354.1 L542.0,354.4 L542.8,354.1 L543.7,353.9 L544.5,353.9 L545.4,353.9 L546.2,353.9 L547.0,353.9 L547.9,353.9 L548.7,353.4 L549.6,353.1 L550.4,353.4 L551.2,353.9 L552.1,355.4 L552.9,352.3 L553.8,352.1 L554.6,352.1 L555.5,352.1 L556.3,352.1 L557.1,352.1 L558.0,353.4 L558.8,353.1 L559.7,352.8 L560.5,353.1 L561.3,353.9 L562.2,354.4 L563.0,353.9 L563.9,354.1 L564.7,353.9 L565.6,353.9 L566.4,353.6 L567.2,353.4 L568.1,352.8 L568.9,351.5 L569.8,352.8 L570.6,352.6 L571.4,352.1 L572.3,351.5 L573.1,351.3 L574.0,352.3 L574.8,353.1 L575.7,352.3 L576.5,352.3 L577.3,353.1 L578.2,353.4 L579.0,353.1 L579.9,353.4 L580.7,353.4 L581.5,354.1 L582.4,353.4 L583.2,353.6 L584.1,352.8 L584.9,352.3 L585.8,352.3 L586.6,352.3 L587.4,352.8 L588.3,353.4 L589.1,352.8 L590.0,353.4 L590.8,356.5 L591.6,356.5 L592.5,357.5 L593.3,359.1 L594.2,357.5 L595.0,357.3 L595.8,357.8 L596.7,358.0 L597.5,356.7 L598.4,356.7 L599.2,357.3 L600.1,357.0 L600.9,356.5 L601.7,356.7 L602.6,356.7 L603.4,356.7 L604.3,357.0 L605.1,357.0 L605.9,357.0 L606.8,357.3 L607.6,357.0 L608.5,357.0 L609.3,358.0 L610.2,357.3 L611.0,357.8 L611.8,356.5 L612.7,357.0 L613.5,357.3 L614.4,357.0 L615.2,357.3 L616.0,357.3 L616.9,357.0 L617.7,357.0 L618.6,357.5 L619.4,357.3 L620.3,357.0 L621.1,357.3 L621.9,357.0 L622.8,356.5 L624.5,357.0 L625.3,357.3 L626.1,357.3 L627.0,357.0 L627.8,357.0 L628.7,357.0 L629.5,357.5 L630.4,356.7 L631.2,357.0 L632.0,357.0 L632.9,357.3 L633.7,356.7 L634.6,357.5 L635.4,357.3 L636.2,356.5 L637.1,357.3 L637.9,357.8 L638.8,359.6 L639.6,360.1 L640.4,358.0 L641.3,358.5 L642.1,358.5 L643.0,357.5 L643.8,356.5 L644.7,356.0 L645.5,355.2 L646.3,354.9 L647.2,354.7 L648.0,355.2 L648.9,355.4 L649.7,354.9 L650.5,354.9 L651.4,355.4 L652.2,356.0 L653.1,356.0 L653.9,356.0 L654.8,356.0 L655.6,356.7 L656.4,356.0 L657.3,355.4 L658.1,356.0 L659.0,356.7 L659.8,356.5 L660.6,356.5 L661.5,356.5 L662.3,356.5 L663.2,356.5 L664.0,355.7 L664.9,355.7 L665.7,356.0 L666.5,355.7 L667.4,355.7 L668.2,357.3 L669.1,357.8 L669.9,358.0 L670.7,357.8 L671.6,357.8 L672.4,358.0 L673.3,360.4 L674.1,359.8 L675.0,360.9 L675.8,357.5 L676.6,356.0 L677.5,356.0 L678.3,355.7 L679.2,355.7 L680.0,355.7" stroke="#ff7f0e" stroke-width="2" fill="none" opacity="0.8"/>
<!-- Thermal Generation -->
<path d="M80.0,305.4 L80.8,292.4 L81.7,286.7 L82.5,296.3 L83.4,296.6 L84.2,298.1 L85.0,287.0 L85.9,285.4 L86.7,284.4 L87.6,286.7 L88.4,286.5 L89.3,286.7 L90.1,268.8 L90.9,255.3 L91.8,252.0 L92.6,254.3 L93.5,255.1 L94.3,265.2 L95.1,261.6 L96.0,287.0 L96.8,286.5 L97.7,246.8 L98.5,242.4 L99.4,242.4 L100.2,249.9 L101.0,256.6 L101.9,259.2 L102.7,259.0 L103.6,266.2 L104.4,261.6 L105.2,259.8 L106.1,258.7 L106.9,301.0 L107.8,290.6 L108.6,315.0 L109.5,317.1 L110.3,263.4 L111.1,250.2 L112.0,244.7 L112.8,243.2 L113.7,242.9 L114.5,241.6 L115.3,242.1 L116.2,241.9 L117.0,241.6 L117.9,269.6 L118.7,272.5 L119.6,272.5 L120.4,260.0 L121.2,244.7 L122.1,245.2 L122.9,245.2 L123.8,247.1 L124.6,246.8 L125.4,263.9 L126.3,270.1 L127.1,278.2 L128.0,297.9 L128.8,297.6 L129.6,292.4 L130.5,247.8 L131.3,246.8 L132.2,262.9 L133.0,259.0 L133.9,259.0 L134.7,271.7 L135.5,269.6 L136.4,310.3 L137.2,327.4 L138.1,262.1 L138.9,264.4 L139.7,262.3 L140.6,254.8 L141.4,262.1 L142.3,262.1 L143.1,265.5 L144.0,263.1 L144.8,299.7 L145.6,272.5 L146.5,290.6 L147.3,304.4 L148.2,299.4 L149.0,328.0 L149.8,303.3 L150.7,287.2 L151.5,262.9 L152.4,259.5 L153.2,243.4 L154.1,243.2 L154.9,242.6 L155.7,242.9 L156.6,242.1 L157.4,250.2 L158.3,257.4 L159.1,267.5 L159.9,257.2 L160.8,242.4 L161.6,262.3 L162.5,242.9 L163.3,242.9 L164.2,243.2 L165.0,267.3 L165.8,281.5 L166.7,288.0 L167.5,272.2 L168.4,270.1 L169.2,248.6 L170.0,256.9 L170.9,252.5 L171.7,242.9 L172.6,242.9 L173.4,241.9 L174.2,242.1 L175.1,242.1 L175.9,242.1 L176.8,244.7 L177.6,261.8 L178.5,247.6 L179.3,259.5 L180.1,284.1 L181.0,283.9 L181.8,286.5 L182.7,286.5 L183.5,287.8 L184.3,287.2 L185.2,305.7 L186.0,325.6 L186.9,352.1 L187.7,352.1 L188.6,352.3 L189.4,357.3 L190.2,357.3 L191.1,342.0 L191.9,267.0 L192.8,244.7 L193.6,247.3 L194.4,268.1 L195.3,262.3 L196.1,287.2 L197.0,286.2 L197.8,281.8 L198.7,286.2 L199.5,287.0 L200.3,303.3 L201.2,286.5 L202.0,286.7 L202.9,287.5 L203.7,287.8 L204.5,288.8 L205.4,287.8 L206.2,287.5 L207.1,287.2 L207.9,301.2 L208.8,306.9 L209.6,307.2 L210.4,317.1 L211.3,301.5 L212.1,254.6 L213.0,242.1 L213.8,241.9 L214.6,242.4 L215.5,249.9 L216.3,258.2 L217.2,267.5 L218.0,274.8 L218.8,276.9 L219.7,246.0 L220.5,247.3 L221.4,243.2 L222.2,241.6 L223.1,242.9 L223.9,250.4 L224.7,277.6 L225.6,250.2 L226.4,290.1 L227.3,296.6 L228.1,295.5 L228.9,297.1 L229.8,297.1 L230.6,273.5 L231.5,242.4 L232.3,242.6 L233.2,243.4 L234.0,243.4 L234.8,242.6 L235.7,242.4 L236.5,272.7 L237.4,287.2 L238.2,287.2 L239.0,331.8 L239.9,344.3 L240.7,338.3 L241.6,333.9 L242.4,323.3 L243.3,307.7 L244.1,330.5 L244.9,318.9 L245.8,320.2 L246.6,322.2 L247.5,343.8 L248.3,345.1 L249.1,344.0 L250.0,344.5 L250.8,345.1 L251.7,344.5 L252.5,306.9 L253.4,304.6 L254.2,305.1 L255.0,308.0 L255.9,304.4 L256.7,335.0 L257.6,334.4 L258.4,339.1 L259.2,342.2 L260.1,341.7 L260.9,342.0 L261.8,339.6 L262.6,335.0 L263.5,326.7 L264.3,335.2 L265.1,335.7 L266.0,341.7 L266.8,342.2 L267.7,341.2 L268.5,341.4 L269.3,341.7 L270.2,341.2 L271.0,341.2 L271.9,341.7 L272.7,297.1 L273.5,300.7 L274.4,303.1 L275.2,300.2 L276.1,299.9 L276.9,303.1 L277.8,312.4 L278.6,317.1 L279.4,299.4 L280.3,299.7 L281.1,300.2 L282.0,300.2 L282.8,300.5 L283.6,302.5 L284.5,305.4 L285.3,313.2 L286.2,310.3 L287.0,324.3 L287.9,308.5 L288.7,306.4 L289.5,330.0 L290.4,324.8 L291.2,331.8 L292.1,326.1 L292.9,303.8 L293.7,304.9 L294.6,301.8 L295.4,303.1 L296.3,302.8 L297.1,302.3 L298.0,302.0 L298.8,302.0 L299.6,302.3 L300.5,307.5 L301.3,304.9 L302.2,302.8 L303.0,302.5 L303.8,302.3 L304.7,302.5 L305.5,303.8 L306.4,314.5 L307.2,333.9 L308.1,344.0 L308.9,344.0 L309.7,363.5 L310.6,371.3 L311.4,363.2 L312.3,343.0 L313.1,299.4 L313.9,298.9 L314.8,300.2 L315.6,302.5 L316.5,314.2 L317.3,316.3 L318.1,298.7 L319.0,299.7 L319.8,299.2 L320.7,299.4 L321.5,303.3 L322.4,301.5 L323.2,301.0 L324.0,298.9 L324.9,304.9 L325.7,320.7 L326.6,325.9 L327.4,333.1 L328.2,343.8 L329.1,364.0 L329.9,364.3 L330.8,363.2 L331.6,363.5 L332.5,363.7 L333.3,301.8 L334.1,298.9 L335.0,299.4 L335.8,304.9 L336.7,299.4 L337.5,298.9 L338.3,302.5 L339.2,299.4 L340.0,299.2 L340.9,301.2 L341.7,300.7 L342.6,299.7 L343.4,299.2 L344.2,301.5 L345.1,299.7 L345.9,320.9 L346.8,344.3 L347.6,341.4 L348.4,364.5 L349.3,363.5 L350.1,363.7 L351.0,362.7 L351.8,364.8 L352.7,363.5 L353.5,279.7 L354.3,253.5 L355.2,252.5 L356.0,242.1 L356.9,278.4 L357.7,286.7 L358.5,285.7 L359.4,286.7 L360.2,327.4 L361.1,352.3 L361.9,352.1 L362.7,338.3 L363.6,337.3 L364.4,290.6 L365.3,296.6 L366.1,328.0 L367.0,354.7 L367.8,364.8 L368.6,364.5 L369.5,364.0 L370.3,364.5 L371.2,364.3 L372.0,364.5 L372.8,365.5 L373.7,291.4 L374.5,267.8 L375.4,268.8 L376.2,288.0 L377.1,331.8 L377.9,360.9 L378.7,333.1 L379.6,343.0 L380.4,342.7 L381.3,353.4 L382.1,353.4 L382.9,343.2 L383.8,327.4 L384.6,274.8 L385.5,317.8 L386.3,315.0 L387.2,340.9 L388.0,340.9 L388.8,341.4 L389.7,326.1 L390.5,311.4 L391.4,313.2 L392.2,296.6 L393.0,264.9 L393.9,242.4 L394.7,242.1 L395.6,242.1 L396.4,244.5 L397.3,243.4 L398.1,288.0 L398.9,288.5 L399.8,314.2 L400.6,311.1 L401.5,301.8 L402.3,317.1 L403.1,342.5 L404.0,364.0 L404.8,348.7 L405.7,344.3 L406.5,344.0 L407.3,364.3 L408.2,364.5 L409.0,364.3 L409.9,364.0 L410.7,364.3 L411.6,364.0 L412.4,364.0 L413.2,364.3 L414.1,339.1 L414.9,308.8 L415.8,348.2 L416.6,353.6 L417.4,364.0 L418.3,363.5 L419.1,363.5 L420.0,363.7 L420.8,364.0 L421.7,363.5 L422.5,363.5 L423.3,343.0 L424.2,332.6 L425.0,315.8 L425.9,330.8 L426.7,350.0 L427.5,353.9 L428.4,340.7 L429.2,340.9 L430.1,341.2 L430.9,326.7 L431.8,326.7 L432.6,336.0 L433.4,335.7 L434.3,300.7 L435.1,292.7 L436.0,283.6 L436.8,287.0 L437.6,303.8 L438.5,364.0 L439.3,363.7 L440.2,363.7 L441.0,363.7 L441.9,363.7 L442.7,363.0 L443.5,363.5 L444.4,363.7 L445.2,363.5 L446.1,364.5 L446.9,364.0 L447.7,363.7 L448.6,363.7 L449.4,364.0 L450.3,364.3 L451.1,364.3 L451.9,364.0 L452.8,364.3 L453.6,363.5 L454.5,354.4 L455.3,337.8 L456.2,348.4 L457.0,356.2 L457.8,356.2 L458.7,364.0 L459.5,363.7 L460.4,364.0 L461.2,364.0 L462.0,364.3 L462.9,363.7 L463.7,364.0 L464.6,364.0 L465.4,357.3 L466.3,345.1 L467.1,355.2 L467.9,343.0 L468.8,364.0 L469.6,352.8 L470.5,363.7 L471.3,363.7 L472.1,353.4 L473.0,317.3 L473.8,305.7 L474.7,258.2 L475.5,242.9 L476.4,242.9 L477.2,243.2 L478.0,245.5 L478.9,242.9 L479.7,242.1 L480.6,243.4 L481.4,242.6 L482.2,264.4 L483.1,286.5 L483.9,286.2 L484.8,261.8 L485.6,249.4 L486.5,286.2 L487.3,286.5 L488.1,301.2 L489.0,332.4 L489.8,348.2 L490.7,363.7 L491.5,363.7 L492.3,363.7 L493.2,363.5 L494.0,363.5 L494.9,285.4 L495.7,257.2 L496.5,249.4 L497.4,250.7 L498.2,245.2 L499.1,252.5 L499.9,279.2 L500.8,286.7 L501.6,302.5 L502.4,297.1 L503.3,291.4 L504.1,293.5 L505.0,272.7 L505.8,268.8 L506.6,249.1 L507.5,275.6 L508.3,296.3 L509.2,286.5 L510.0,312.7 L510.9,325.1 L511.7,325.9 L512.5,324.8 L513.4,325.4 L514.2,325.6 L515.1,281.3 L515.9,282.1 L516.7,281.8 L517.6,281.8 L518.4,281.3 L519.3,281.5 L520.1,281.5 L521.0,292.7 L521.8,318.1 L522.6,322.8 L523.5,301.5 L524.3,287.2 L525.2,273.5 L526.0,262.9 L526.8,280.2 L527.7,317.1 L528.5,323.0 L529.4,325.4 L530.2,338.1 L531.1,338.3 L531.9,338.1 L532.7,337.5 L533.6,337.8 L534.4,338.3 L535.3,288.3 L536.1,252.0 L536.9,243.4 L537.8,243.2 L538.6,254.6 L539.5,257.4 L540.3,278.7 L541.2,300.5 L542.0,343.5 L542.8,363.7 L543.7,363.7 L544.5,363.2 L545.4,316.5 L546.2,245.2 L547.0,288.0 L547.9,288.0 L548.7,329.5 L549.6,329.5 L550.4,330.0 L551.2,330.0 L552.1,330.3 L552.9,329.8 L553.8,330.0 L554.6,329.2 L555.5,320.2 L556.3,294.5 L557.1,311.4 L558.0,306.7 L558.8,306.7 L559.7,319.4 L560.5,324.3 L561.3,332.4 L562.2,343.2 L563.0,350.8 L563.9,350.5 L564.7,350.2 L565.6,308.0 L566.4,288.0 L567.2,288.3 L568.1,301.5 L568.9,290.4 L569.8,331.1 L570.6,330.5 L571.4,330.3 L572.3,340.7 L573.1,340.7 L574.0,341.4 L574.8,340.9 L575.7,341.2 L576.5,340.9 L577.3,340.9 L578.2,314.5 L579.0,293.5 L579.9,309.5 L580.7,330.5 L581.5,329.8 L582.4,330.0 L583.2,329.8 L584.1,330.0 L584.9,329.8 L585.8,330.5 L586.6,296.1 L587.4,340.9 L588.3,340.4 L589.1,341.2 L590.0,364.8 L590.8,364.3 L591.6,364.3 L592.5,364.0 L593.3,364.0 L594.2,364.3 L595.0,364.3 L595.8,364.0 L596.7,332.9 L597.5,333.7 L598.4,322.2 L599.2,306.4 L600.1,311.9 L600.9,356.0 L601.7,356.2 L602.6,360.9 L603.4,361.1 L604.3,361.4 L605.1,361.1 L605.9,361.1 L606.8,364.3 L607.6,364.8 L608.5,364.3 L609.3,364.3 L610.2,364.3 L611.0,364.0 L611.8,364.3 L612.7,364.3 L613.5,364.3 L614.4,364.3 L615.2,363.7 L616.0,363.5 L616.9,363.7 L617.7,364.0 L618.6,363.7 L619.4,364.0 L620.3,364.0 L621.1,364.0 L621.9,363.5 L622.8,349.5 L624.5,363.7 L625.3,363.7 L626.1,364.0 L627.0,364.0 L627.8,364.3 L628.7,364.0 L629.5,364.0 L630.4,364.0 L631.2,364.0 L632.0,365.0 L632.9,365.0 L633.7,365.3 L634.6,365.3 L635.4,365.0 L636.2,364.5 L637.1,364.3 L637.9,361.7 L638.8,355.7 L639.6,358.3 L640.4,364.0 L641.3,364.3 L642.1,364.0 L643.0,364.0 L643.8,358.8 L644.7,354.1 L645.5,343.8 L646.3,296.3 L647.2,262.3 L648.0,242.9 L648.9,251.5 L649.7,269.9 L650.5,270.6 L651.4,270.6 L652.2,286.7 L653.1,295.8 L653.9,295.5 L654.8,316.3 L655.6,316.3 L656.4,316.0 L657.3,307.5 L658.1,282.6 L659.0,252.0 L659.8,272.5 L660.6,281.3 L661.5,285.2 L662.3,286.2 L663.2,314.7 L664.0,314.7 L664.9,314.7 L665.7,314.7 L666.5,298.7 L667.4,280.0 L668.2,262.3 L669.1,271.2 L669.9,287.0 L670.7,310.8 L671.6,356.0 L672.4,364.0 L673.3,363.7 L674.1,363.5 L675.0,363.5 L675.8,363.5 L676.6,363.0 L677.5,309.8 L678.3,302.0 L679.2,302.0 L680.0,301.8" stroke="#2ca02c" stroke-width="2" fill="none" opacity="0.8"/>
<!-- Solar Generation -->
<path d="M80.0,420.0 L80.8,420.0 L81.7,420.0 L82.5,420.0 L83.4,409.9 L84.2,414.8 L85.0,411.7 L85.9,410.7 L86.7,399.8 L87.6,401.8 L88.4,411.2 L89.3,408.6 L90.1,413.3 L90.9,420.0 L91.8,420.0 L92.6,420.0 L93.5,420.0 L94.3,420.0 L95.1,420.0 L96.0,420.0 L96.8,420.0 L97.7,420.0 L98.5,420.0 L99.4,420.0 L100.2,420.0 L101.0,420.0 L101.9,420.0 L102.7,419.2 L103.6,401.8 L104.4,392.3 L105.2,394.1 L106.1,395.1 L106.9,394.6 L107.8,391.2 L108.6,396.9 L109.5,398.7 L110.3,408.9 L111.1,420.0 L112.0,420.0 L112.8,420.0 L113.7,420.0 L114.5,420.0 L115.3,420.0 L116.2,420.0 L117.0,420.0 L117.9,420.0 L118.7,420.0 L119.6,420.0 L120.4,420.0 L121.2,420.0 L122.1,420.0 L122.9,419.5 L123.8,414.6 L124.6,410.1 L125.4,396.9 L126.3,389.4 L127.1,394.3 L128.0,399.0 L128.8,395.4 L129.6,397.7 L130.5,408.3 L131.3,420.0 L132.2,420.0 L133.0,420.0 L133.9,420.0 L134.7,420.0 L135.5,420.0 L136.4,420.0 L137.2,420.0 L138.1,420.0 L138.9,420.0 L139.7,420.0 L140.6,420.0 L141.4,420.0 L142.3,420.0 L143.1,419.0 L144.0,401.8 L144.8,390.4 L145.6,391.2 L146.5,393.6 L147.3,394.1 L148.2,392.5 L149.0,390.2 L149.8,390.7 L150.7,407.6 L151.5,419.7 L152.4,420.0 L153.2,420.0 L154.1,420.0 L154.9,420.0 L155.7,420.0 L156.6,420.0 L157.4,420.0 L158.3,420.0 L159.1,420.0 L159.9,420.0 L160.8,420.0 L161.6,420.0 L162.5,420.0 L163.3,418.4 L164.2,408.1 L165.0,389.9 L165.8,392.5 L166.7,393.3 L167.5,393.8 L168.4,391.7 L169.2,398.7 L170.0,396.4 L170.9,412.7 L171.7,420.0 L172.6,420.0 L173.4,420.0 L174.2,420.0 L175.1,420.0 L175.9,420.0 L176.8,420.0 L177.6,420.0 L178.5,420.0 L179.3,420.0 L180.1,420.0 L181.0,420.0 L181.8,420.0 L182.7,420.0 L183.5,419.5 L184.3,409.6 L185.2,399.0 L186.0,394.1 L186.9,394.3 L187.7,397.4 L188.6,394.6 L189.4,406.5 L190.2,404.4 L191.1,415.1 L191.9,419.7 L192.8,420.0 L193.6,420.0 L194.4,420.0 L195.3,420.0 L196.1,420.0 L197.0,420.0 L197.8,420.0 L198.7,420.0 L199.5,420.0 L200.3,420.0 L201.2,420.0 L202.0,420.0 L202.9,420.0 L203.7,419.2 L204.5,407.0 L205.4,402.6 L206.2,398.5 L207.1,403.4 L207.9,391.2 L208.8,399.8 L209.6,403.9 L210.4,408.1 L211.3,415.3 L212.1,419.7 L213.0,420.0 L213.8,420.0 L214.6,420.0 L215.5,420.0 L216.3,420.0 L217.2,420.0 L218.0,420.0 L218.8,420.0 L219.7,420.0 L220.5,420.0 L221.4,420.0 L222.2,420.0 L223.1,420.0 L223.9,418.7 L224.7,399.5 L225.6,398.0 L226.4,390.7 L227.3,390.7 L228.1,389.7 L228.9,395.6 L229.8,394.8 L230.6,395.9 L231.5,413.0 L232.3,419.7 L233.2,420.0 L234.0,420.0 L234.8,420.0 L235.7,420.0 L236.5,420.0 L237.4,420.0 L238.2,420.0 L239.0,420.0 L239.9,420.0 L240.7,420.0 L241.6,420.0 L242.4,420.0 L243.3,420.0 L244.1,419.2 L244.9,417.1 L245.8,414.6 L246.6,412.7 L247.5,401.3 L248.3,400.8 L249.1,400.6 L250.0,404.2 L250.8,408.1 L251.7,410.1 L252.5,419.5 L253.4,420.0 L254.2,420.0 L255.0,420.0 L255.9,420.0 L256.7,420.0 L257.6,420.0 L258.4,420.0 L259.2,420.0 L260.1,420.0 L260.9,420.0 L261.8,420.0 L262.6,420.0 L263.5,420.0 L264.3,419.5 L265.1,412.2 L266.0,413.5 L266.8,409.9 L267.7,406.3 L268.5,403.1 L269.3,406.5 L270.2,409.4 L271.0,415.9 L271.9,418.4 L272.7,420.0 L273.5,420.0 L274.4,420.0 L275.2,420.0 L276.1,420.0 L276.9,420.0 L277.8,420.0 L278.6,420.0 L279.4,420.0 L280.3,420.0 L281.1,420.0 L282.0,420.0 L282.8,420.0 L283.6,420.0 L284.5,419.7 L285.3,417.1 L286.2,414.3 L287.0,409.4 L287.9,405.7 L288.7,401.3 L289.5,398.7 L290.4,394.1 L291.2,391.5 L292.1,405.0 L292.9,419.5 L293.7,420.0 L294.6,420.0 L295.4,420.0 L296.3,420.0 L297.1,420.0 L298.0,420.0 L298.8,420.0 L299.6,420.0 L300.5,420.0 L301.3,420.0 L302.2,420.0 L303.0,420.0 L303.8,420.0 L304.7,416.9 L305.5,408.9 L306.4,399.5 L307.2,387.3 L308.1,388.1 L308.9,390.7 L309.7,386.6 L310.6,387.6 L311.4,394.6 L312.3,414.8 L313.1,419.2 L313.9,420.0 L314.8,420.0 L315.6,420.0 L316.5,420.0 L317.3,420.0 L318.1,420.0 L319.0,420.0 L319.8,420.0 L320.7,420.0 L321.5,420.0 L322.4,420.0 L323.2,420.0 L324.0,420.0 L324.9,418.4 L325.7,413.5 L326.6,405.5 L327.4,392.3 L328.2,389.9 L329.1,388.4 L329.9,387.6 L330.8,385.8 L331.6,405.0 L332.5,401.1 L333.3,419.5 L334.1,420.0 L335.0,420.0 L335.8,420.0 L336.7,420.0 L337.5,420.0 L338.3,420.0 L339.2,420.0 L340.0,420.0 L340.9,420.0 L341.7,420.0 L342.6,420.0 L343.4,420.0 L344.2,420.0 L345.1,418.7 L345.9,406.0 L346.8,404.4 L347.6,404.4 L348.4,405.0 L349.3,405.5 L350.1,403.9 L351.0,406.5 L351.8,405.0 L352.7,412.7 L353.5,418.7 L354.3,420.0 L355.2,420.0 L356.0,420.0 L356.9,420.0 L357.7,420.0 L358.5,420.0 L359.4,420.0 L360.2,420.0 L361.1,420.0 L361.9,420.0 L362.7,420.0 L363.6,420.0 L364.4,420.0 L365.3,418.7 L366.1,407.8 L367.0,395.6 L367.8,395.6 L368.6,392.5 L369.5,392.5 L370.3,396.1 L371.2,409.9 L372.0,415.1 L372.8,416.9 L373.7,419.5 L374.5,420.0 L375.4,420.0 L376.2,420.0 L377.1,420.0 L377.9,420.0 L378.7,420.0 L379.6,420.0 L380.4,420.0 L381.3,420.0 L382.1,420.0 L382.9,420.0 L383.8,420.0 L384.6,420.0 L385.5,419.7 L386.3,417.4 L387.2,415.9 L388.0,413.0 L388.8,408.1 L389.7,405.7 L390.5,409.6 L391.4,411.7 L392.2,413.3 L393.0,416.9 L393.9,419.5 L394.7,420.0 L395.6,420.0 L396.4,420.0 L397.3,420.0 L398.1,420.0 L398.9,420.0 L399.8,420.0 L400.6,420.0 L401.5,420.0 L402.3,420.0 L403.1,420.0 L404.0,420.0 L404.8,420.0 L405.7,417.7 L406.5,393.8 L407.3,394.1 L408.2,392.0 L409.0,396.7 L409.9,389.4 L410.7,405.2 L411.6,404.7 L412.4,408.9 L413.2,406.3 L414.1,418.2 L414.9,420.0 L415.8,420.0 L416.6,420.0 L417.4,420.0 L418.3,420.0 L419.1,420.0 L420.0,420.0 L420.8,420.0 L421.7,420.0 L422.5,420.0 L423.3,420.0 L424.2,420.0 L425.0,420.0 L425.9,417.7 L426.7,400.6 L427.5,403.9 L428.4,409.4 L429.2,406.5 L430.1,407.0 L430.9,405.7 L431.8,404.7 L432.6,405.0 L433.4,416.6 L434.3,419.2 L435.1,420.0 L436.0,420.0 L436.8,420.0 L437.6,420.0 L438.5,420.0 L439.3,420.0 L440.2,420.0 L441.0,420.0 L441.9,420.0 L442.7,420.0 L443.5,420.0 L444.4,420.0 L445.2,420.0 L446.1,413.5 L446.9,398.0 L447.7,398.7 L448.6,406.5 L449.4,405.5 L450.3,410.9 L451.1,413.5 L451.9,410.1 L452.8,415.1 L453.6,418.4 L454.5,420.0 L455.3,420.0 L456.2,420.0 L457.0,420.0 L457.8,420.0 L458.7,420.0 L459.5,420.0 L460.4,420.0 L461.2,420.0 L462.0,420.0 L462.9,420.0 L463.7,420.0 L464.6,420.0 L465.4,420.0 L466.3,415.3 L467.1,406.0 L467.9,405.7 L468.8,405.7 L469.6,406.5 L470.5,407.0 L471.3,405.7 L472.1,405.0 L473.0,405.0 L473.8,414.8 L474.7,419.7 L475.5,420.0 L476.4,420.0 L477.2,420.0 L478.0,420.0 L478.9,420.0 L479.7,420.0 L480.6,420.0 L481.4,420.0 L482.2,420.0 L483.1,420.0 L483.9,420.0 L484.8,420.0 L485.6,420.0 L486.5,416.6 L487.3,399.3 L488.1,399.5 L489.0,401.1 L489.8,401.8 L490.7,396.9 L491.5,400.0 L492.3,401.6 L493.2,407.8 L494.0,414.0 L494.9,419.2 L495.7,420.0 L496.5,420.0 L497.4,420.0 L498.2,420.0 L499.1,420.0 L499.9,420.0 L500.8,420.0 L501.6,420.0 L502.4,420.0 L503.3,420.0 L504.1,420.0 L505.0,420.0 L505.8,420.0 L506.6,417.4 L507.5,407.6 L508.3,404.2 L509.2,401.6 L510.0,398.2 L510.9,400.3 L511.7,395.9 L512.5,406.5 L513.4,406.5 L514.2,408.9 L515.1,418.2 L515.9,420.0 L516.7,420.0 L517.6,420.0 L518.4,420.0 L519.3,420.0 L520.1,420.0 L521.0,420.0 L521.8,420.0 L522.6,420.0 L523.5,420.0 L524.3,420.0 L525.2,420.0 L526.0,420.0 L526.8,410.4 L527.7,388.9 L528.5,385.5 L529.4,387.1 L530.2,388.1 L531.1,389.4 L531.9,392.8 L532.7,391.2 L533.6,394.1 L534.4,402.1 L535.3,417.4 L536.1,420.0 L536.9,420.0 L537.8,420.0 L538.6,420.0 L539.5,420.0 L540.3,420.0 L541.2,420.0 L542.0,420.0 L542.8,420.0 L543.7,420.0 L544.5,420.0 L545.4,420.0 L546.2,420.0 L547.0,417.7 L547.9,412.7 L548.7,410.9 L549.6,404.7 L550.4,405.2 L551.2,411.2 L552.1,410.4 L552.9,413.3 L553.8,413.5 L554.6,416.9 L555.5,417.9 L556.3,420.0 L557.1,420.0 L558.0,420.0 L558.8,420.0 L559.7,420.0 L560.5,420.0 L561.3,420.0 L562.2,420.0 L563.0,420.0 L563.9,420.0 L564.7,420.0 L565.6,420.0 L566.4,420.0 L567.2,418.4 L568.1,415.6 L568.9,417.1 L569.8,415.9 L570.6,412.0 L571.4,409.9 L572.3,414.0 L573.1,408.3 L574.0,416.9 L574.8,416.9 L575.7,418.4 L576.5,420.0 L577.3,420.0 L578.2,420.0 L579.0,420.0 L579.9,420.0 L580.7,420.0 L581.5,420.0 L582.4,420.0 L583.2,420.0 L584.1,420.0 L584.9,420.0 L585.8,420.0 L586.6,420.0 L587.4,411.4 L588.3,401.8 L589.1,406.3 L590.0,403.7 L590.8,404.2 L591.6,406.8 L592.5,411.4 L593.3,408.3 L594.2,412.5 L595.0,411.7 L595.8,415.6 L596.7,420.0 L597.5,420.0 L598.4,420.0 L599.2,420.0 L600.1,420.0 L600.9,420.0 L601.7,420.0 L602.6,420.0 L603.4,420.0 L604.3,420.0 L605.1,420.0 L605.9,420.0 L606.8,420.0 L607.6,411.4 L608.5,414.8 L609.3,409.6 L610.2,413.8 L611.0,412.2 L611.8,408.9 L612.7,405.0 L613.5,407.3 L614.4,410.7 L615.2,412.2 L616.0,418.4 L616.9,420.0 L617.7,420.0 L618.6,420.0 L619.4,420.0 L620.3,420.0 L621.1,420.0 L621.9,420.0 L622.8,420.0 L624.5,420.0 L625.3,420.0 L626.1,420.0 L627.0,420.0 L627.8,420.0 L628.7,410.9 L629.5,413.0 L630.4,407.6 L631.2,405.0 L632.0,406.5 L632.9,410.9 L633.7,408.1 L634.6,408.1 L635.4,414.6 L636.2,412.5 L637.1,418.4 L637.9,419.7 L638.8,420.0 L639.6,420.0 L640.4,420.0 L641.3,420.0 L642.1,420.0 L643.0,420.0 L643.8,420.0 L644.7,420.0 L645.5,420.0 L646.3,420.0 L647.2,420.0 L648.0,419.7 L648.9,415.3 L649.7,416.9 L650.5,416.6 L651.4,405.2 L652.2,414.0 L653.1,411.4 L653.9,413.5 L654.8,413.5 L655.6,416.1 L656.4,415.3 L657.3,418.4 L658.1,420.0 L659.0,420.0 L659.8,420.0 L660.6,420.0 L661.5,420.0 L662.3,420.0 L663.2,420.0 L664.0,420.0 L664.9,420.0 L665.7,420.0 L666.5,420.0 L667.4,420.0 L668.2,420.0 L669.1,415.6 L669.9,398.2 L670.7,403.4 L671.6,407.3 L672.4,408.1 L673.3,408.9 L674.1,412.0 L675.0,411.4 L675.8,406.5 L676.6,405.7 L677.5,415.3 L678.3,420.0 L679.2,420.0 L680.0,420.0" stroke="#d62728" stroke-width="2" fill="none" opacity="0.8"/>
<!-- Forecast -->
<path d="M80.0,261.3 L80.8,249.1 L81.7,224.5 L82.5,198.3 L83.4,183.5 L84.2,181.4 L85.0,183.0 L85.9,185.9 L86.7,189.7 L87.6,192.9 L88.4,195.7 L89.3,196.5 L90.1,190.8 L90.9,178.3 L91.8,171.9 L92.6,173.9 L93.5,183.8 L94.3,198.3 L95.1,216.5 L96.0,231.0 L96.8,245.5 L97.7,252.0 L98.5,254.8 L99.4,255.9 L100.2,252.8 L101.0,240.0 L101.9,215.2 L102.7,187.4 L103.6,175.0 L104.4,175.7 L105.2,179.6 L106.1,182.7 L106.9,187.7 L107.8,191.3 L108.6,193.9 L109.5,194.4 L110.3,187.9 L111.1,173.9 L112.0,167.4 L112.8,170.6 L113.7,178.6 L114.5,191.8 L115.3,211.0 L116.2,229.4 L117.0,241.6 L117.9,247.3 L118.7,250.9 L119.6,252.2 L120.4,249.1 L121.2,236.4 L122.1,209.7 L122.9,183.0 L123.8,171.6 L124.6,173.7 L125.4,177.8 L126.3,181.7 L127.1,186.9 L128.0,190.5 L128.8,193.4 L129.6,193.6 L130.5,187.7 L131.3,173.7 L132.2,166.7 L133.0,169.8 L133.9,177.6 L134.7,190.5 L135.5,210.2 L136.4,215.2 L137.2,241.6 L138.1,247.3 L138.9,250.7 L139.7,251.7 L140.6,248.6 L141.4,236.2 L142.3,209.7 L143.1,183.0 L144.0,171.9 L144.8,173.9 L145.6,178.3 L146.5,182.2 L147.3,187.2 L148.2,191.0 L149.0,194.2 L149.8,194.9 L150.7,189.0 L151.5,175.0 L152.4,168.2 L153.2,170.6 L154.1,178.9 L154.9,192.9 L155.7,212.0 L156.6,232.0 L157.4,242.9 L158.3,249.6 L159.1,253.0 L159.9,254.3 L160.8,251.2 L161.6,238.5 L162.5,213.1 L163.3,186.6 L164.2,174.2 L165.0,175.5 L165.8,179.1 L166.7,183.0 L167.5,187.7 L168.4,191.3 L169.2,194.2 L170.0,195.2 L170.9,189.5 L171.7,176.0 L172.6,169.3 L173.4,171.3 L174.2,180.2 L175.1,194.9 L175.9,213.1 L176.8,238.2 L177.6,245.8 L178.5,251.7 L179.3,256.6 L180.1,260.0 L181.0,260.0 L181.8,256.4 L182.7,243.4 L183.5,228.1 L184.3,213.3 L185.2,207.9 L186.0,204.5 L186.9,206.6 L187.7,208.7 L188.6,214.9 L189.4,218.5 L190.2,218.5 L191.1,214.9 L191.9,203.2 L192.8,195.7 L193.6,194.4 L194.4,200.1 L195.3,210.5 L196.1,225.8 L197.0,238.8 L197.8,249.6 L198.7,255.9 L199.5,259.5 L200.3,259.5 L201.2,257.4 L202.0,253.5 L202.9,244.5 L203.7,232.8 L204.5,220.3 L205.4,210.2 L206.2,201.2 L207.1,197.5 L207.9,203.5 L208.8,208.2 L209.6,213.1 L210.4,211.3 L211.3,209.5 L212.1,191.0 L213.0,184.6 L213.8,189.7 L214.6,198.8 L215.5,206.1 L216.3,221.1 L217.2,235.1 L218.0,245.8 L218.8,252.2 L219.7,255.6 L220.5,257.2 L221.4,254.3 L222.2,241.6 L223.1,217.8 L223.9,190.8 L224.7,177.0 L225.6,177.0 L226.4,180.2 L227.3,183.8 L228.1,187.7 L228.9,191.3 L229.8,194.7 L230.6,196.0 L231.5,190.3 L232.3,177.8 L233.2,170.8 L234.0,172.6 L234.8,182.5 L235.7,198.0 L236.5,215.4 L237.4,219.6 L238.2,244.7 L239.0,252.8 L239.9,256.1 L240.7,257.7 L241.6,254.8 L242.4,241.9 L243.3,217.2 L244.1,189.7 L244.9,175.7 L245.8,175.2 L246.6,178.1 L247.5,181.2 L248.3,186.1 L249.1,189.5 L250.0,191.8 L250.8,192.1 L251.7,186.1 L252.5,172.4 L253.4,166.2 L254.2,169.5 L255.0,177.8 L255.9,192.1 L256.7,211.3 L257.6,374.9 L258.4,232.5 L259.2,238.5 L260.1,241.9 L260.9,242.1 L261.8,238.5 L262.6,224.0 L263.5,197.8 L264.3,346.9 L265.1,392.8 L266.0,392.8 L266.8,393.3 L267.7,215.4 L268.5,166.9 L269.3,174.2 L270.2,178.6 L271.0,178.1 L271.9,170.3 L272.7,340.9 L273.5,392.0 L274.4,392.5 L275.2,393.3 L276.1,224.2 L276.9,189.0 L277.8,204.3 L278.6,218.0 L279.4,220.3 L280.3,222.2 L281.1,222.9 L282.0,219.3 L282.8,206.1 L283.6,183.0 L284.5,176.5 L285.3,175.5 L286.2,174.4 L287.0,173.4 L287.9,172.4 L288.7,171.3 L289.5,170.3 L290.4,169.3 L291.2,168.2 L292.1,167.2 L292.9,166.2 L293.7,170.3 L294.6,175.7 L295.4,177.6 L296.3,170.3 L297.1,182.0 L298.0,199.6 L298.8,217.0 L299.6,221.6 L300.5,223.5 L301.3,224.5 L302.2,221.6 L303.0,208.7 L303.8,186.1 L304.7,178.9 L305.5,176.8 L306.4,174.4 L307.2,172.4 L308.1,170.3 L308.9,168.2 L309.7,166.2 L310.6,170.8 L311.4,176.3 L312.3,182.5 L313.1,186.4 L313.9,186.6 L314.8,179.6 L315.6,185.1 L316.5,194.7 L317.3,204.3 L318.1,213.9 L319.0,223.5 L319.8,230.2 L320.7,234.1 L321.5,235.4 L322.4,235.6 L323.2,230.7 L324.0,217.2 L324.9,202.2 L325.7,188.2 L326.6,184.6 L327.4,185.3 L328.2,188.2 L329.1,192.1 L329.9,197.5 L330.8,201.9 L331.6,202.5 L332.5,196.7 L333.3,179.6 L334.1,171.9 L335.0,172.6 L335.8,179.1 L336.7,189.0 L337.5,200.4 L338.3,203.2 L339.2,229.4 L340.0,235.4 L340.9,241.1 L341.7,243.4 L342.6,241.3 L343.4,238.2 L344.2,228.4 L345.1,216.7 L345.9,201.7 L346.8,192.3 L347.6,190.0 L348.4,192.1 L349.3,195.7 L350.1,201.7 L351.0,205.3 L351.8,206.1 L352.7,201.4 L353.5,185.1 L354.3,175.0 L355.2,179.1 L356.0,187.2 L356.9,197.0 L357.7,213.6 L358.5,234.1 L359.4,240.6 L360.2,245.8 L361.1,249.9 L361.9,251.2 L362.7,248.3 L363.6,236.7 L364.4,212.0 L365.3,185.9 L366.1,174.4 L367.0,175.7 L367.8,179.6 L368.6,183.3 L369.5,187.7 L370.3,191.3 L371.2,194.7 L372.0,196.0 L372.8,191.3 L373.7,178.6 L374.5,171.6 L375.4,173.2 L376.2,183.8 L377.1,198.8 L377.9,216.7 L378.7,232.0 L379.6,246.3 L380.4,254.3 L381.3,257.9 L382.1,259.8 L382.9,257.7 L383.8,245.2 L384.6,221.4 L385.5,194.9 L386.3,179.9 L387.2,178.3 L388.0,180.4 L388.8,183.5 L389.7,187.4 L390.5,190.5 L391.4,193.6 L392.2,194.9 L393.0,189.2 L393.9,176.8 L394.7,170.6 L395.6,172.6 L396.4,182.7 L397.3,197.5 L398.1,215.7 L398.9,233.0 L399.8,245.0 L400.6,253.0 L401.5,257.2 L402.3,258.7 L403.1,256.4 L404.0,243.9 L404.8,220.3 L405.7,193.4 L406.5,178.1 L407.3,176.8 L408.2,179.1 L409.0,182.2 L409.9,186.4 L410.7,189.7 L411.6,192.3 L412.4,193.1 L413.2,187.4 L414.1,174.4 L414.9,168.2 L415.8,170.8 L416.6,180.7 L417.4,195.7 L418.3,214.1 L419.1,235.1 L420.0,245.0 L420.8,251.2 L421.7,254.8 L422.5,256.4 L423.3,253.5 L424.2,241.3 L425.0,217.2 L425.9,190.8 L426.7,177.3 L427.5,177.0 L428.4,179.9 L429.2,183.5 L430.1,187.4 L430.9,191.0 L431.8,194.7 L432.6,195.7 L433.4,190.8 L434.3,178.9 L435.1,172.4 L436.0,173.4 L436.8,184.3 L437.6,198.0 L438.5,216.7 L439.3,221.4 L440.2,246.8 L441.0,253.8 L441.9,257.4 L442.7,258.7 L443.5,255.9 L444.4,243.9 L445.2,219.6 L446.1,193.4 L446.9,179.1 L447.7,178.3 L448.6,180.7 L449.4,184.0 L450.3,187.4 L451.1,190.8 L451.9,194.2 L452.8,195.5 L453.6,190.5 L454.5,178.3 L455.3,171.1 L456.2,172.1 L457.0,182.2 L457.8,198.0 L458.7,214.9 L459.5,232.8 L460.4,245.5 L461.2,252.5 L462.0,256.1 L462.9,258.2 L463.7,256.9 L464.6,251.7 L465.4,238.2 L466.3,223.5 L467.1,208.7 L467.9,202.2 L468.8,199.1 L469.6,201.2 L470.5,204.3 L471.3,209.7 L472.1,213.6 L473.0,213.9 L473.8,210.5 L474.7,198.0 L475.5,190.3 L476.4,189.2 L477.2,195.2 L478.0,205.0 L478.9,219.0 L479.7,236.7 L480.6,246.3 L481.4,250.2 L482.2,253.0 L483.1,254.8 L483.9,254.6 L484.8,250.4 L485.6,241.9 L486.5,228.9 L487.3,215.7 L488.1,206.3 L489.0,199.6 L489.8,197.0 L490.7,203.0 L491.5,207.1 L492.3,213.3 L493.2,212.3 L494.0,212.0 L494.9,195.7 L495.7,186.9 L496.5,190.5 L497.4,199.9 L498.2,205.3 L499.1,219.8 L499.9,234.9 L500.8,244.2 L501.6,250.4 L502.4,253.8 L503.3,255.1 L504.1,252.2 L505.0,240.3 L505.8,216.5 L506.6,190.5 L507.5,177.3 L508.3,177.3 L509.2,180.4 L510.0,184.3 L510.9,187.9 L511.7,191.6 L512.5,195.5 L513.4,197.3 L514.2,192.6 L515.1,180.7 L515.9,173.7 L516.7,173.9 L517.6,183.5 L518.4,198.8 L519.3,215.7 L520.1,233.6 L521.0,245.2 L521.8,250.4 L522.6,253.3 L523.5,255.1 L524.3,251.5 L525.2,239.3 L526.0,215.9 L526.8,190.0 L527.7,176.3 L528.5,175.5 L529.4,178.3 L530.2,182.2 L531.1,185.6 L531.9,189.5 L532.7,193.4 L533.6,195.7 L534.4,191.6 L535.3,180.2 L536.1,173.2 L536.9,172.6 L537.8,183.5 L538.6,198.3 L539.5,215.7 L540.3,219.8 L541.2,245.8 L542.0,252.8 L542.8,256.4 L543.7,257.7 L544.5,255.3 L545.4,243.2 L546.2,219.0 L547.0,193.6 L547.9,179.1 L548.7,177.6 L549.6,180.2 L550.4,183.0 L551.2,186.1 L552.1,189.5 L552.9,193.4 L553.8,194.9 L554.6,190.0 L555.5,178.9 L556.3,172.9 L557.1,172.6 L558.0,183.8 L558.8,197.5 L559.7,215.9 L560.5,232.5 L561.3,245.5 L562.2,253.3 L563.0,256.9 L563.9,258.5 L564.7,255.9 L565.6,243.4 L566.4,220.3 L567.2,193.1 L568.1,177.3 L568.9,175.0 L569.8,177.0 L570.6,180.2 L571.4,184.3 L572.3,187.4 L573.1,190.5 L574.0,191.6 L574.8,186.4 L575.7,173.9 L576.5,168.5 L577.3,170.0 L578.2,179.6 L579.0,195.2 L579.9,213.1 L580.7,229.9 L581.5,242.6 L582.4,250.2 L583.2,253.5 L584.1,255.1 L584.9,252.0 L585.8,239.5 L586.6,215.2 L587.4,188.5 L588.3,174.2 L589.1,173.4 L590.0,176.3 L590.8,179.6 L591.6,184.3 L592.5,187.7 L593.3,190.5 L594.2,191.8 L595.0,186.6 L595.8,173.9 L596.7,167.7 L597.5,169.5 L598.4,178.1 L599.2,192.3 L600.1,210.7 L600.9,243.7 L601.7,245.0 L602.6,247.8 L603.4,252.5 L604.3,255.9 L605.1,255.1 L605.9,252.2 L606.8,241.6 L607.6,228.4 L608.5,214.6 L609.3,209.7 L610.2,205.3 L611.0,207.1 L611.8,209.2 L612.7,215.4 L613.5,218.8 L614.4,220.3 L615.2,219.3 L616.0,210.7 L616.9,203.5 L617.7,200.4 L618.6,205.6 L619.4,215.7 L620.3,233.0 L621.1,245.2 L621.9,255.6 L622.8,258.2 L624.5,255.1 L625.3,250.7 L626.1,243.7 L627.0,238.0 L627.8,227.9 L628.7,217.8 L629.5,206.6 L630.4,175.7 L631.2,174.7 L632.0,192.6 L632.9,215.2 L633.7,216.7 L634.6,221.6 L635.4,193.6 L636.2,198.0 L637.1,176.3 L637.9,172.6 L638.8,207.1 L639.6,223.5 L640.4,236.9 L641.3,238.0 L642.1,248.9 L643.0,256.1 L643.8,260.5 L644.7,261.3 L645.5,259.2 L646.3,246.3 L647.2,222.4 L648.0,196.0 L648.9,179.9 L649.7,177.6 L650.5,179.4 L651.4,182.5 L652.2,186.4 L653.1,190.0 L653.9,192.9 L654.8,194.7 L655.6,190.3 L656.4,179.6 L657.3,173.7 L658.1,173.4 L659.0,183.3 L659.8,198.6 L660.6,215.4 L661.5,229.4 L662.3,242.9 L663.2,249.1 L664.0,252.5 L664.9,253.3 L665.7,250.2 L666.5,237.5 L667.4,212.3 L668.2,185.1 L669.1,171.1 L669.9,170.8 L670.7,174.4 L671.6,177.8 L672.4,183.3 L673.3,186.9 L674.1,189.2 L675.0,190.0 L675.8,184.8 L676.6,172.9 L677.5,167.4 L678.3,169.5 L679.2,177.0 L680.0,178.9" stroke="#9467bd" stroke-width="2" fill="none" opacity="0.8"/>
<!-- Total Generation -->
<path d="M80.0,213.3 L80.8,199.1 L81.7,188.5 L82.5,199.1 L83.4,197.8 L84.2,211.0 L85.0,191.8 L85.9,192.3 L86.7,177.8 L87.6,178.6 L88.4,196.7 L89.3,197.0 L90.1,178.9 L90.9,175.0 L91.8,171.9 L92.6,178.3 L93.5,172.6 L94.3,159.7 L95.1,150.3 L96.0,165.1 L96.8,146.2 L97.7,103.1 L98.5,93.3 L99.4,110.1 L100.2,96.1 L101.0,100.0 L101.9,115.8 L102.7,107.8 L103.6,111.4 L104.4,112.7 L105.2,87.8 L106.1,96.7 L106.9,130.6 L107.8,145.4 L108.6,184.0 L109.5,201.9 L110.3,165.1 L111.1,172.4 L112.0,170.8 L112.8,167.2 L113.7,165.4 L114.5,164.1 L115.3,166.2 L116.2,163.3 L117.0,153.4 L117.9,185.3 L118.7,189.7 L119.6,189.2 L120.4,170.3 L121.2,160.2 L122.1,157.6 L122.9,152.7 L123.8,145.7 L124.6,131.7 L125.4,133.2 L126.3,141.8 L127.1,127.3 L128.0,143.9 L128.8,139.4 L129.6,128.6 L130.5,99.5 L131.3,102.1 L132.2,110.9 L133.0,117.9 L133.9,134.5 L134.7,147.0 L135.5,139.4 L136.4,171.9 L137.2,182.5 L138.1,121.8 L138.9,108.1 L139.7,96.9 L140.6,82.4 L141.4,89.4 L142.3,91.0 L143.1,91.5 L144.0,73.1 L144.8,101.3 L145.6,80.6 L146.5,101.8 L147.3,117.4 L148.2,108.6 L149.0,130.9 L149.8,102.4 L150.7,106.3 L151.5,95.9 L152.4,92.0 L153.2,73.8 L154.1,77.5 L154.9,72.8 L155.7,72.5 L156.6,74.1 L157.4,86.5 L158.3,92.5 L159.1,105.2 L159.9,96.7 L160.8,81.9 L161.6,98.0 L162.5,72.0 L163.3,79.5 L164.2,67.6 L165.0,95.6 L165.8,119.2 L166.7,126.5 L167.5,113.0 L168.4,106.3 L169.2,93.8 L170.0,105.0 L170.9,124.9 L171.7,124.4 L172.6,122.8 L173.4,131.7 L174.2,126.2 L175.1,128.3 L175.9,129.3 L176.8,129.6 L177.6,145.9 L178.5,120.8 L179.3,94.8 L180.1,123.9 L181.0,124.4 L181.8,137.1 L182.7,138.9 L183.5,151.6 L184.3,141.3 L185.2,116.9 L186.0,155.5 L186.9,184.0 L187.7,182.5 L188.6,157.6 L189.4,178.9 L190.2,212.0 L191.1,217.8 L191.9,160.7 L192.8,137.1 L193.6,158.1 L194.4,177.3 L195.3,171.9 L196.1,198.3 L197.0,200.1 L197.8,186.4 L198.7,173.2 L199.5,189.0 L200.3,194.4 L201.2,163.6 L202.0,149.0 L202.9,144.1 L203.7,154.7 L204.5,142.6 L205.4,158.1 L206.2,154.7 L207.1,145.9 L207.9,151.4 L208.8,161.7 L209.6,166.4 L210.4,177.0 L211.3,172.1 L212.1,107.0 L213.0,108.1 L213.8,124.4 L214.6,114.3 L215.5,127.0 L216.3,131.4 L217.2,140.7 L218.0,152.1 L218.8,162.8 L219.7,128.8 L220.5,127.3 L221.4,126.2 L222.2,124.4 L223.1,142.6 L223.9,163.8 L224.7,171.6 L225.6,141.8 L226.4,176.3 L227.3,181.7 L228.1,168.5 L228.9,168.7 L229.8,164.6 L230.6,144.1 L231.5,138.9 L232.3,144.6 L233.2,133.0 L234.0,145.4 L234.8,153.4 L235.7,150.1 L236.5,188.5 L237.4,199.1 L238.2,195.2 L239.0,226.0 L239.9,247.1 L240.7,230.7 L241.6,225.0 L242.4,205.8 L243.3,208.4 L244.1,227.1 L244.9,198.8 L245.8,177.8 L246.6,151.1 L247.5,179.1 L248.3,187.9 L249.1,151.4 L250.0,151.6 L250.8,161.2 L251.7,158.6 L252.5,141.5 L253.4,148.5 L254.2,158.4 L255.0,160.4 L255.9,151.6 L256.7,185.9 L257.6,191.0 L258.4,200.6 L259.2,206.3 L260.1,208.2 L260.9,209.5 L261.8,206.3 L262.6,200.4 L263.5,197.3 L264.3,214.4 L265.1,208.4 L266.0,217.8 L266.8,211.8 L267.7,205.3 L268.5,197.3 L269.3,203.0 L270.2,199.9 L271.0,206.6 L271.9,209.7 L272.7,170.8 L273.5,172.9 L274.4,179.4 L275.2,182.7 L276.1,189.0 L276.9,195.2 L277.8,208.2 L278.6,216.7 L279.4,205.8 L280.3,212.8 L281.1,218.3 L282.0,227.3 L282.8,235.9 L283.6,239.0 L284.5,241.9 L285.3,246.5 L286.2,242.1 L287.0,252.2 L287.9,231.5 L288.7,224.0 L289.5,244.2 L290.4,234.3 L291.2,236.9 L292.1,245.0 L292.9,235.4 L293.7,236.9 L294.6,234.3 L295.4,235.4 L296.3,235.9 L297.1,234.6 L298.0,234.3 L298.8,234.1 L299.6,231.5 L300.5,234.9 L301.3,229.2 L302.2,226.8 L303.0,228.1 L303.8,226.8 L304.7,218.5 L305.5,203.5 L306.4,201.4 L307.2,216.2 L308.1,185.3 L308.9,171.3 L309.7,214.1 L310.6,233.3 L311.4,226.8 L312.3,230.5 L313.1,186.4 L313.9,200.4 L314.8,206.3 L315.6,210.7 L316.5,239.5 L317.3,248.6 L318.1,232.3 L319.0,236.9 L319.8,236.2 L320.7,236.7 L321.5,239.3 L322.4,236.4 L323.2,233.6 L324.0,231.5 L324.9,236.7 L325.7,247.3 L326.6,244.5 L327.4,236.9 L328.2,244.5 L329.1,261.1 L329.9,254.8 L330.8,248.1 L331.6,266.8 L332.5,256.1 L333.3,209.2 L334.1,202.5 L335.0,203.5 L335.8,209.5 L336.7,202.7 L337.5,208.9 L338.3,215.7 L339.2,215.4 L340.0,217.5 L340.9,215.4 L341.7,219.6 L342.6,217.5 L343.4,213.1 L344.2,214.9 L345.1,210.2 L345.9,218.3 L346.8,250.4 L347.6,249.9 L348.4,273.8 L349.3,274.5 L350.1,271.9 L351.0,273.2 L351.8,273.2 L352.7,276.6 L353.5,193.6 L354.3,163.8 L355.2,158.6 L356.0,147.7 L356.9,176.8 L357.7,176.3 L358.5,169.3 L359.4,159.4 L360.2,206.3 L361.1,236.7 L361.9,210.2 L362.7,193.4 L363.6,192.1 L364.4,149.6 L365.3,138.1 L366.1,187.7 L367.0,191.8 L367.8,211.0 L368.6,211.5 L369.5,203.0 L370.3,195.5 L371.2,202.7 L372.0,207.6 L372.8,211.0 L373.7,112.7 L374.5,92.8 L375.4,83.7 L376.2,103.9 L377.1,176.8 L377.9,192.9 L378.7,173.7 L379.6,175.2 L380.4,179.1 L381.3,190.5 L382.1,197.3 L382.9,178.1 L383.8,162.0 L384.6,99.5 L385.5,148.0 L386.3,165.6 L387.2,196.2 L388.0,196.2 L388.8,197.3 L389.7,193.4 L390.5,183.8 L391.4,178.6 L392.2,142.8 L393.0,111.4 L393.9,107.6 L394.7,106.5 L395.6,102.4 L396.4,85.0 L397.3,94.1 L398.1,140.7 L398.9,148.3 L399.8,186.6 L400.6,169.0 L401.5,142.8 L402.3,134.8 L403.1,154.2 L404.0,178.3 L404.8,159.9 L405.7,158.1 L406.5,134.0 L407.3,171.6 L408.2,166.2 L409.0,173.7 L409.9,154.5 L410.7,180.9 L411.6,179.4 L412.4,178.1 L413.2,168.5 L414.1,162.5 L414.9,130.4 L415.8,186.1 L416.6,190.3 L417.4,186.9 L418.3,183.3 L419.1,186.6 L420.0,186.9 L420.8,190.5 L421.7,192.3 L422.5,200.4 L423.3,175.5 L424.2,169.5 L425.0,158.1 L425.9,160.4 L426.7,163.8 L427.5,202.7 L428.4,230.7 L429.2,222.4 L430.1,220.1 L430.9,200.4 L431.8,203.0 L432.6,206.3 L433.4,180.2 L434.3,150.9 L435.1,150.6 L436.0,155.0 L436.8,151.4 L437.6,169.5 L438.5,211.8 L439.3,201.4 L440.2,213.1 L441.0,230.7 L441.9,218.5 L442.7,192.6 L443.5,187.7 L444.4,188.5 L445.2,192.3 L446.1,188.2 L446.9,182.0 L447.7,184.0 L448.6,189.2 L449.4,189.5 L450.3,194.2 L451.1,198.3 L451.9,194.4 L452.8,206.1 L453.6,190.5 L454.5,178.9 L455.3,162.5 L456.2,173.9 L457.0,184.0 L457.8,183.3 L458.7,191.0 L459.5,204.5 L460.4,204.0 L461.2,194.9 L462.0,198.8 L462.9,197.5 L463.7,199.9 L464.6,210.5 L465.4,210.5 L466.3,221.4 L467.1,225.5 L467.9,216.2 L468.8,232.0 L469.6,219.3 L470.5,238.8 L471.3,267.3 L472.1,249.9 L473.0,203.2 L473.8,203.0 L474.7,159.4 L475.5,147.0 L476.4,163.3 L477.2,172.6 L478.0,179.6 L478.9,178.1 L479.7,174.7 L480.6,172.6 L481.4,166.9 L482.2,190.0 L483.1,210.5 L483.9,208.4 L484.8,179.9 L485.6,170.3 L486.5,196.7 L487.3,165.1 L488.1,184.0 L489.0,189.2 L489.8,196.0 L490.7,200.9 L491.5,210.5 L492.3,208.9 L493.2,212.6 L494.0,234.3 L494.9,171.1 L495.7,154.0 L496.5,169.8 L497.4,176.3 L498.2,164.9 L499.1,165.4 L499.9,186.4 L500.8,195.5 L501.6,219.0 L502.4,208.7 L503.3,206.1 L504.1,209.5 L505.0,187.2 L505.8,183.5 L506.6,162.3 L507.5,176.5 L508.3,199.3 L509.2,186.9 L510.0,207.4 L510.9,219.6 L511.7,200.1 L512.5,205.0 L513.4,194.7 L514.2,205.3 L515.1,176.5 L515.9,162.5 L516.7,161.7 L517.6,160.7 L518.4,152.4 L519.3,153.2 L520.1,172.4 L521.0,176.0 L521.8,210.7 L522.6,216.7 L523.5,211.3 L524.3,186.1 L525.2,168.7 L526.0,145.9 L526.8,143.6 L527.7,177.8 L528.5,170.3 L529.4,155.5 L530.2,186.9 L531.1,191.0 L531.9,189.2 L532.7,166.2 L533.6,190.5 L534.4,199.3 L535.3,171.1 L536.1,163.3 L536.9,144.4 L537.8,145.4 L538.6,160.4 L539.5,165.1 L540.3,164.9 L541.2,173.9 L542.0,190.8 L542.8,202.7 L543.7,204.3 L544.5,227.3 L545.4,168.5 L546.2,103.9 L547.0,155.5 L547.9,169.3 L548.7,204.8 L549.6,220.9 L550.4,229.2 L551.2,235.6 L552.1,236.7 L552.9,238.0 L553.8,235.4 L554.6,238.2 L555.5,229.2 L556.3,200.6 L557.1,220.6 L558.0,216.7 L558.8,214.1 L559.7,228.4 L560.5,226.6 L561.3,229.2 L562.2,240.0 L563.0,237.5 L563.9,238.8 L564.7,240.3 L565.6,194.4 L566.4,168.0 L567.2,179.9 L568.1,189.7 L568.9,181.7 L569.8,214.9 L570.6,198.8 L571.4,203.2 L572.3,200.4 L573.1,215.2 L574.0,232.3 L574.8,219.0 L575.7,200.1 L576.5,217.5 L577.3,234.9 L578.2,200.1 L579.0,187.2 L579.9,195.2 L580.7,212.6 L581.5,207.6 L582.4,206.9 L583.2,224.5 L584.1,235.4 L584.9,232.3 L585.8,234.6 L586.6,199.1 L587.4,246.3 L588.3,241.9 L589.1,251.2 L590.0,267.8 L590.8,262.9 L591.6,267.8 L592.5,261.1 L593.3,240.6 L594.2,232.5 L595.0,228.1 L595.8,190.0 L596.7,168.5 L597.5,172.4 L598.4,153.7 L599.2,143.3 L600.1,142.8 L600.9,187.4 L601.7,182.7 L602.6,190.0 L603.4,192.6 L604.3,194.4 L605.1,197.0 L605.9,192.6 L606.8,196.7 L607.6,186.6 L608.5,236.9 L609.3,239.0 L610.2,245.0 L611.0,248.3 L611.8,239.3 L612.7,231.5 L613.5,233.0 L614.4,236.2 L615.2,238.5 L616.0,201.7 L616.9,200.1 L617.7,194.4 L618.6,196.2 L619.4,198.0 L620.3,202.2 L621.1,202.5 L621.9,208.4 L622.8,187.2 L624.5,210.2 L625.3,224.2 L626.1,222.9 L627.0,232.0 L627.8,222.4 L628.7,206.9 L629.5,258.5 L630.4,264.7 L631.2,261.8 L632.0,270.1 L632.9,276.6 L633.7,279.2 L634.6,278.9 L635.4,275.6 L636.2,260.0 L637.1,229.2 L637.9,210.2 L638.8,197.3 L639.6,206.6 L640.4,225.3 L641.3,233.6 L642.1,244.2 L643.0,249.4 L643.8,249.4 L644.7,249.9 L645.5,251.7 L646.3,210.2 L647.2,186.4 L648.0,175.7 L648.9,181.7 L649.7,202.2 L650.5,198.8 L651.4,176.3 L652.2,196.5 L653.1,197.5 L653.9,194.4 L654.8,204.3 L655.6,222.2 L656.4,216.7 L657.3,202.2 L658.1,187.2 L659.0,167.7 L659.8,190.3 L660.6,203.0 L661.5,214.4 L662.3,218.3 L663.2,247.3 L664.0,246.8 L664.9,245.0 L665.7,245.5 L666.5,225.5 L667.4,202.2 L668.2,173.4 L669.1,179.4 L669.9,170.8 L670.7,204.5 L671.6,235.6 L672.4,239.0 L673.3,237.2 L674.1,231.0 L675.0,241.3 L675.8,250.4 L676.6,214.1 L677.5,182.7 L678.3,186.1 L679.2,173.2 L680.0,198.0" stroke="#8c564b" stroke-width="2" fill="none" opacity="0.8"/>
<!-- Forecast Difference -->
<path d="M80.0,420.0 L80.8,420.0 L81.7,420.0 L82.5,420.0 L83.4,420.0 L84.2,420.0 L85.0,420.0 L85.9,420.0 L86.7,420.0 L87.6,420.0 L88.4,420.0 L89.3,420.0 L90.1,420.0 L90.9,420.0 L91.8,420.0 L92.6,420.0 L93.5,420.0 L94.3,420.0 L95.1,420.0 L96.0,420.0 L96.8,420.0 L97.7,420.0 L98.5,420.0 L99.4,420.0 L100.2,420.0 L101.0,420.0 L101.9,420.0 L102.7,420.0 L103.6,420.0 L104.4,420.0 L105.2,420.0 L106.1,420.0 L106.9,420.0 L107.8,420.0 L108.6,420.0 L109.5,420.0 L110.3,420.0 L111.1,420.0 L112.0,420.0 L112.8,420.0 L113.7,420.0 L114.5,420.0 L115.3,420.0 L116.2,420.0 L117.0,420.0 L117.9,420.0 L118.7,420.0 L119.6,420.0 L120.4,420.0 L121.2,420.0 L122.1,420.0 L122.9,420.0 L123.8,420.0 L124.6,420.0 L125.4,420.0 L126.3,420.0 L127.1,420.0 L128.0,420.0 L128.8,420.0 L129.6,420.0 L130.5,420.0 L131.3,420.0 L132.2,420.0 L133.0,420.0 L133.9,420.0 L134.7,420.0 L135.5,420.0 L136.4,420.0 L137.2,420.0 L138.1,420.0 L138.9,420.0 L139.7,420.0 L140.6,420.0 L141.4,420.0 L142.3,420.0 L143.1,420.0 L144.0,420.0 L144.8,420.0 L145.6,420.0 L146.5,420.0 L147.3,420.0 L148.2,420.0 L149.0,420.0 L149.8,420.0 L150.7,420.0 L151.5,420.0 L152.4,420.0 L153.2,420.0 L154.1,420.0 L154.9,420.0 L155.7,420.0 L156.6,420.0 L157.4,420.0 L158.3,420.0 L159.1,420.0 L159.9,420.0 L160.8,420.0 L161.6,420.0 L162.5,420.0 L163.3,420.0 L164.2,420.0 L165.0,420.0 L165.8,420.0 L166.7,420.0 L167.5,420.0 L168.4,420.0 L169.2,420.0 L170.0,420.0 L170.9,420.0 L171.7,420.0 L172.6,420.0 L173.4,420.0 L174.2,420.0 L175.1,420.0 L175.9,420.0 L176.8,420.0 L177.6,420.0 L178.5,420.0 L179.3,420.0 L180.1,420.0 L181.0,420.0 L181.8,420.0 L182.7,420.0 L183.5,420.0 L184.3,420.0 L185.2,420.0 L186.0,420.0 L186.9,420.0 L187.7,420.0 L188.6,420.0 L189.4,420.0 L190.2,420.0 L191.1,420.0 L191.9,420.0 L192.8,420.0 L193.6,420.0 L194.4,420.0 L195.3,420.0 L196.1,420.0 L197.0,420.0 L197.8,420.0 L198.7,420.0 L199.5,420.0 L200.3,420.0 L201.2,420.0 L202.0,420.0 L202.9,420.0 L203.7,420.0 L204.5,420.0 L205.4,420.0 L206.2,420.0 L207.1,420.0 L207.9,420.0 L208.8,420.0 L209.6,420.0 L210.4,420.0 L211.3,420.0 L212.1,420.0 L213.0,420.0 L213.8,420.0 L214.6,420.0 L215.5,420.0 L216.3,420.0 L217.2,420.0 L218.0,420.0 L218.8,420.0 L219.7,420.0 L220.5,420.0 L221.4,420.0 L222.2,420.0 L223.1,420.0 L223.9,420.0 L224.7,420.0 L225.6,420.0 L226.4,420.0 L227.3,420.0 L228.1,420.0 L228.9,420.0 L229.8,420.0 L230.6,420.0 L231.5,420.0 L232.3,420.0 L233.2,420.0 L234.0,420.0 L234.8,420.0 L235.7,420.0 L236.5,420.0 L237.4,420.0 L238.2,420.0 L239.0,420.0 L239.9,420.0 L240.7,420.0 L241.6,420.0 L242.4,420.0 L243.3,420.0 L244.1,420.0 L244.9,420.0 L245.8,420.0 L246.6,420.0 L247.5,420.0 L248.3,420.0 L249.1,420.0 L250.0,420.0 L250.8,420.0 L251.7,420.0 L252.5,420.0 L253.4,420.0 L254.2,420.0 L255.0,420.0 L255.9,420.0 L256.7,420.0 L257.6,420.0 L258.4,420.0 L259.2,420.0 L260.1,420.0 L260.9,420.0 L261.8,420.0 L262.6,420.0 L263.5,420.0 L264.3,420.0 L265.1,420.0 L266.0,420.0 L266.8,420.0 L267.7,420.0 L268.5,420.0 L269.3,420.0 L270.2,420.0 L271.0,420.0 L271.9,420.0 L272.7,420.0 L273.5,420.0 L274.4,420.0 L275.2,420.0 L276.1,420.0 L276.9,420.0 L277.8,420.0 L278.6,420.0 L279.4,420.0 L280.3,420.0 L281.1,420.0 L282.0,420.0 L282.8,420.0 L283.6,420.0 L284.5,420.0 L285.3,420.0 L286.2,420.0 L287.0,420.0 L287.9,420.0 L288.7,420.0 L289.5,420.0 L290.4,420.0 L291.2,420.0 L292.1,420.0 L292.9,420.0 L293.7,420.0 L294.6,420.0 L295.4,420.0 L296.3,420.0 L297.1,420.0 L298.0,420.0 L298.8,420.0 L299.6,420.0 L300.5,420.0 L301.3,420.0 L302.2,420.0 L303.0,420.0 L303.8,420.0 L304.7,420.0 L305.5,420.0 L306.4,420.0 L307.2,420.0 L308.1,420.0 L308.9,420.0 L309.7,420.0 L310.6,420.0 L311.4,420.0 L312.3,420.0 L313.1,420.0 L313.9,420.0 L314.8,420.0 L315.6,420.0 L316.5,420.0 L317.3,420.0 L318.1,420.0 L319.0,420.0 L319.8,420.0 L320.7,420.0 L321.5,420.0 L322.4,420.0 L323.2,420.0 L324.0,420.0 L324.9,420.0 L325.7,420.0 L326.6,420.0 L327.4,420.0 L328.2,420.0 L329.1,420.0 L329.9,420.0 L330.8,420.0 L331.6,420.0 L332.5,420.0 L333.3,420.0 L334.1,420.0 L335.0,420.0 L335.8,420.0 L336.7,420.0 L337.5,420.0 L338.3,420.0 L339.2,420.0 L340.0,420.0 L340.9,420.0 L341.7,420.0 L342.6,420.0 L343.4,420.0 L344.2,420.0 L345.1,420.0 L345.9,420.0 L346.8,420.0 L347.6,420.0 L348.4,420.0 L349.3,420.0 L350.1,420.0 L351.0,420.0 L351.8,420.0 L352.7,420.0 L353.5,420.0 L354.3,420.0 L355.2,420.0 L356.0,420.0 L356.9,420.0 L357.7,420.0 L358.5,420.0 L359.4,420.0 L360.2,420.0 L361.1,420.0 L361.9,420.0 L362.7,420.0 L363.6,420.0 L364.4,420.0 L365.3,420.0 L366.1,420.0 L367.0,420.0 L367.8,420.0 L368.6,420.0 L369.5,420.0 L370.3,420.0 L371.2,420.0 L372.0,420.0 L372.8,420.0 L373.7,420.0 L374.5,420.0 L375.4,420.0 L376.2,420.0 L377.1,420.0 L377.9,420.0 L378.7,420.0 L379.6,420.0 L380.4,420.0 L381.3,420.0 L382.1,420.0 L382.9,420.0 L383.8,420.0 L384.6,420.0 L385.5,420.0 L386.3,420.0 L387.2,420.0 L388.0,420.0 L388.8,420.0 L389.7,420.0 L390.5,420.0 L391.4,420.0 L392.2,420.0 L393.0,420.0 L393.9,420.0 L394.7,420.0 L395.6,420.0 L396.4,420.0 L397.3,420.0 L398.1,420.0 L398.9,420.0 L399.8,420.0 L400.6,420.0 L401.5,420.0 L402.3,420.0 L403.1,420.0 L404.0,420.0 L404.8,420.0 L405.7,420.0 L406.5,420.0 L407.3,420.0 L408.2,420.0 L409.0,420.0 L409.9,420.0 L410.7,420.0 L411.6,420.0 L412.4,420.0 L413.2,420.0 L414.1,420.0 L414.9,420.0 L415.8,420.0 L416.6,420.0 L417.4,420.0 L418.3,420.0 L419.1,420.0 L420.0,420.0 L420.8,420.0 L421.7,420.0 L422.5,420.0 L423.3,420.0 L424.2,420.0 L425.0,420.0 L425.9,420.0 L426.7,420.0 L427.5,420.0 L428.4,420.0 L429.2,420.0 L430.1,420.0 L430.9,420.0 L431.8,420.0 L432.6,420.0 L433.4,420.0 L434.3,420.0 L435.1,420.0 L436.0,420.0 L436.8,420.0 L437.6,420.0 L438.5,420.0 L439.3,420.0 L440.2,420.0 L441.0,420.0 L441.9,420.0 L442.7,420.0 L443.5,420.0 L444.4,420.0 L445.2,420.0 L446.1,420.0 L446.9,420.0 L447.7,420.0 L448.6,420.0 L449.4,420.0 L450.3,420.0 L451.1,420.0 L451.9,420.0 L452.8,420.0 L453.6,420.0 L454.5,420.0 L455.3,420.0 L456.2,420.0 L457.0,420.0 L457.8,420.0 L458.7,420.0 L459.5,420.0 L460.4,420.0 L461.2,420.0 L462.0,420.0 L462.9,420.0 L463.7,420.0 L464.6,420.0 L465.4,420.0 L466.3,420.0 L467.1,420.0 L467.9,420.0 L468.8,420.0 L469.6,420.0 L470.5,420.0 L471.3,420.0 L472.1,420.0 L473.0,420.0 L473.8,420.0 L474.7,420.0 L475.5,420.0 L476.4,420.0 L477.2,420.0 L478.0,420.0 L478.9,420.0 L479.7,420.0 L480.6,420.0 L481.4,420.0 L482.2,420.0 L483.1,420.0 L483.9,420.0 L484.8,420.0 L485.6,420.0 L486.5,420.0 L487.3,420.0 L488.1,420.0 L489.0,420.0 L489.8,420.0 L490.7,420.0 L491.5,420.0 L492.3,420.0 L493.2,420.0 L494.0,420.0 L494.9,420.0 L495.7,420.0 L496.5,420.0 L497.4,420.0 L498.2,420.0 L499.1,420.0 L499.9,420.0 L500.8,420.0 L501.6,420.0 L502.4,420.0 L503.3,420.0 L504.1,420.0 L505.0,420.0 L505.8,420.0 L506.6,420.0 L507.5,420.0 L508.3,420.0 L509.2,420.0 L510.0,420.0 L510.9,420.0 L511.7,420.0 L512.5,420.0 L513.4,420.0 L514.2,420.0 L515.1,420.0 L515.9,420.0 L516.7,420.0 L517.6,420.0 L518.4,420.0 L519.3,420.0 L520.1,420.0 L521.0,420.0 L521.8,420.0 L522.6,420.0 L523.5,420.0 L524.3,420.0 L525.2,420.0 L526.0,420.0 L526.8,420.0 L527.7,420.0 L528.5,420.0 L529.4,420.0 L530.2,420.0 L531.1,420.0 L531.9,420.0 L532.7,420.0 L533.6,420.0 L534.4,420.0 L535.3,420.0 L536.1,420.0 L536.9,420.0 L537.8,420.0 L538.6,420.0 L539.5,420.0 L540.3,420.0 L541.2,420.0 L542.0,420.0 L542.8,420.0 L543.7,420.0 L544.5,420.0 L545.4,420.0 L546.2,420.0 L547.0,420.0 L547.9,420.0 L548.7,420.0 L549.6,420.0 L550.4,420.0 L551.2,420.0 L552.1,420.0 L552.9,420.0 L553.8,420.0 L554.6,420.0 L555.5,420.0 L556.3,420.0 L557.1,420.0 L558.0,420.0 L558.8,420.0 L559.7,420.0 L560.5,420.0 L561.3,420.0 L562.2,420.0 L563.0,420.0 L563.9,420.0 L564.7,420.0 L565.6,420.0 L566.4,420.0 L567.2,420.0 L568.1,420.0 L568.9,420.0 L569.8,420.0 L570.6,420.0 L571.4,420.0 L572.3,420.0 L573.1,420.0 L574.0,420.0 L574.8,420.0 L575.7,420.0 L576.5,420.0 L577.3,420.0 L578.2,420.0 L579.0,420.0 L579.9,420.0 L580.7,420.0 L581.5,420.0 L582.4,420.0 L583.2,420.0 L584.1,420.0 L584.9,420.0 L585.8,420.0 L586.6,420.0 L587.4,420.0 L588.3,420.0 L589.1,420.0 L590.0,420.0 L590.8,420.0 L591.6,420.0 L592.5,420.0 L593.3,420.0 L594.2,420.0 L595.0,420.0 L595.8,420.0 L596.7,420.0 L597.5,420.0 L598.4,420.0 L599.2,420.0 L600.1,420.0 L600.9,420.0 L601.7,420.0 L602.6,420.0 L603.4,420.0 L604.3,420.0 L605.1,420.0 L605.9,420.0 L606.8,420.0 L607.6,420.0 L608.5,420.0 L609.3,420.0 L610.2,420.0 L611.0,420.0 L611.8,420.0 L612.7,420.0 L613.5,420.0 L614.4,420.0 L615.2,420.0 L616.0,420.0 L616.9,420.0 L617.7,420.0 L618.6,420.0 L619.4,420.0 L620.3,420.0 L621.1,420.0 L621.9,420.0 L622.8,420.0 L624.5,420.0 L625.3,420.0 L626.1,420.0 L627.0,420.0 L627.8,420.0 L628.7,420.0 L629.5,420.0 L630.4,420.0 L631.2,420.0 L632.0,420.0 L632.9,420.0 L633.7,420.0 L634.6,420.0 L635.4,420.0 L636.2,420.0 L637.1,420.0 L637.9,420.0 L638.8,420.0 L639.6,420.0 L640.4,420.0 L641.3,420.0 L642.1,420.0 L643.0,420.0 L643.8,420.0 L644.7,420.0 L645.5,420.0 L646.3,420.0 L647.2,420.0 L648.0,420.0 L648.9,420.0 L649.7,420.0 L650.5,420.0 L651.4,420.0 L652.2,420.0 L653.1,420.0 L653.9,420.0 L654.8,420.0 L655.6,420.0 L656.4,420.0 L657.3,420.0 L658.1,420.0 L659.0,420.0 L659.8,420.0 L660.6,420.0 L661.5,420.0 L662.3,420.0 L663.2,420.0 L664.0,420.0 L664.9,420.0 L665.7,420.0 L666.5,420.0 L667.4,420.0 L668.2,420.0 L669.1,420.0 L669.9,420.0 L670.7,420.0 L671.6,420.0 L672.4,420.0 L673.3,420.0 L674.1,420.0 L675.0,420.0 L675.8,420.0 L676.6,420.0 L677.5,420.0 L678.3,420.0 L679.2,420.0 L680.0,420.0" stroke="#e377c2" stroke-width="2" fill="none" opacity="0.8"/>

<!-- Legend -->
<line x1="690" y1="70" x2="705" y2="70" stroke="#1f77b4" stroke-width="3"/>
<text x="710" y="74" class="legend">Wind Generation</text>
<line x1="690" y1="88" x2="705" y2="88" stroke="#ff7f0e" stroke-width="3"/>
<text x="710" y="92" class="legend">Hydro Generation</text>
<line x1="690" y1="106" x2="705" y2="106" stroke="#2ca02c" stroke-width="3"/>
<text x="710" y="110" class="legend">Thermal Generation</text>
<line x1="690" y1="124" x2="705" y2="124" stroke="#d62728" stroke-width="3"/>
<text x="710" y="128" class="legend">Solar Generation</text>
<line x1="690" y1="142" x2="705" y2="142" stroke="#9467bd" stroke-width="3"/>
<text x="710" y="146" class="legend">Forecast</text>
<line x1="690" y1="160" x2="705" y2="160" stroke="#8c564b" stroke-width="3"/>
<text x="710" y="164" class="legend">Total Generation</text>
<line x1="690" y1="178" x2="705" y2="178" stroke="#e377c2" stroke-width="3"/>
<text x="710" y="182" class="legend">Forecast Difference</text>

<!-- Date range -->
<text x="80" y="495" class="legend">Range: 02/09 - 03/10/2026 (713 records)</text>
</svg>