<?xml version="1.0" encoding="UTF-8"?>
<svg width="800" height="500" xmlns="http://www.w3.org/2000/svg">
<style>
.axis-line { stroke: #333; stroke-width: 1; }
.grid-line { stroke: #ddd; stroke-width: 0.5; }
.title { font: 16px Arial; text-anchor: middle; fill: #333; }
.axis-label { font: 12px Arial; text-anchor: middle; fill: #666; }
.legend { font: 10px Arial; fill: #333; }
</style>

<!-- Title -->
<text x="400.0" y="25" class="title">Northwestern Energy Generation Data - Past 30 Days</text>

<!-- Plot area background -->
<rect x="80" y="50" width="600" height="370" fill="white" stroke="#ddd"/>

<!-- Y-axis -->
<line x1="80" y1="50" x2="80" y2="420" class="axis-line"/>
<text x="30" y="235.0" class="axis-label" transform="rotate(-90, 30, 235.0)">Generation (MW)</text>

<!-- X-axis -->
<line x1="80" y1="420" x2="680" y2="420" class="axis-line"/>
<text x="380.0" y="480" class="axis-label">Time</text>
<line x1="80" y1="420.0" x2="680" y2="420.0" class="grid-line"/>
<text x="70" y="425.0" class="legend" text-anchor="end">0</text>
<line x1="80" y1="327.5" x2="680" y2="327.5" class="grid-line"/>
<text x="70" y="332.5" class="legend" text-anchor="end">357</text>
<line x1="80" y1="235.0" x2="680" y2="235.0" class="grid-line"/>
<text x="70" y="240.0" class="legend" text-anchor="end">714</text>
<line x1="80" y1="142.5" x2="680" y2="142.5" class="grid-line"/>
<text x="70" y="147.5" class="legend" text-anchor="end">1071</text>
<line x1="80" y1="50.0" x2="680" y2="50.0" class="grid-line"/>
<text x="70" y="55.0" class="legend" text-anchor="end">1428</text>
<!-- Wind Generation -->
<path d="M80.0,345.1 L80.8,329.1 L81.7,318.9 L82.5,356.8 L83.4,330.9 L84.2,357.0 L85.1,324.1 L85.9,320.2 L86.7,317.7 L87.6,312.7 L88.4,310.7 L89.3,313.5 L90.1,320.8 L91.0,313.8 L91.8,313.5 L92.6,311.7 L93.5,315.8 L94.3,327.0 L95.2,368.7 L96.0,362.5 L96.9,390.7 L97.7,388.6 L98.5,384.5 L99.4,380.6 L100.2,399.8 L101.1,411.2 L101.9,409.6 L102.8,403.2 L103.6,397.2 L104.4,394.3 L105.3,380.4 L106.1,379.3 L107.0,366.6 L107.8,341.8 L108.7,328.0 L109.5,317.9 L110.3,316.6 L111.2,310.4 L112.0,315.1 L112.9,313.0 L113.7,319.7 L114.6,317.7 L115.4,325.9 L116.2,317.7 L117.1,317.7 L117.9,311.2 L118.8,309.4 L119.6,309.4 L120.4,320.0 L121.3,321.8 L122.1,342.0 L123.0,348.0 L123.8,344.6 L124.7,343.0 L125.5,333.5 L126.3,328.0 L127.2,329.6 L128.0,322.3 L128.9,306.5 L129.7,308.1 L130.6,308.1 L131.4,320.2 L132.2,320.0 L133.1,307.5 L133.9,307.3 L134.8,306.8 L135.6,306.3 L136.5,306.8 L137.3,309.6 L138.1,306.0 L139.0,306.5 L139.8,306.5 L140.7,307.3 L141.5,308.8 L142.4,313.0 L143.2,315.3 L144.0,313.2 L144.9,314.5 L145.7,311.2 L146.6,314.0 L147.4,316.9 L148.3,312.5 L149.1,307.3 L149.9,307.0 L150.8,306.3 L151.6,306.8 L152.5,307.0 L153.3,308.8 L154.2,317.9 L155.0,324.4 L155.8,327.2 L156.7,320.5 L157.5,321.0 L158.4,315.1 L159.2,313.2 L160.1,313.5 L160.9,313.5 L161.7,316.4 L162.6,315.3 L163.4,315.1 L164.3,317.1 L165.1,316.6 L166.0,315.8 L166.8,319.2 L167.6,315.8 L168.5,320.0 L169.3,337.9 L170.2,331.1 L171.0,340.5 L171.9,335.0 L172.7,317.7 L173.5,336.6 L174.4,321.5 L175.2,311.2 L176.1,311.7 L176.9,310.1 L177.8,310.4 L178.6,314.8 L179.4,309.1 L180.3,324.9 L181.1,328.0 L182.0,327.5 L182.8,345.6 L183.7,325.9 L184.5,325.2 L185.3,327.0 L186.2,338.4 L187.0,357.6 L187.9,340.2 L188.7,336.1 L189.6,341.8 L190.4,349.8 L191.2,355.7 L192.1,346.2 L192.9,320.8 L193.8,312.7 L194.6,316.6 L195.4,318.2 L196.3,313.2 L197.1,320.0 L198.0,322.8 L198.8,324.1 L199.7,315.8 L200.5,313.2 L201.3,312.7 L202.2,314.8 L203.0,324.6 L203.9,314.3 L204.7,316.9 L205.6,320.5 L206.4,318.4 L207.2,348.5 L208.1,344.6 L208.9,344.1 L209.8,341.0 L210.6,343.0 L211.5,343.0 L212.3,343.8 L213.1,353.9 L214.0,347.5 L214.8,350.8 L215.7,348.5 L216.5,354.2 L217.4,360.4 L218.2,364.6 L219.0,370.5 L219.9,375.7 L220.7,378.0 L221.6,373.9 L222.4,344.1 L223.3,337.3 L224.1,330.4 L224.9,322.8 L225.8,310.7 L226.6,313.0 L227.5,342.5 L228.3,343.0 L229.2,344.3 L230.0,338.6 L230.8,339.2 L231.7,341.8 L232.5,336.3 L233.4,353.4 L234.2,342.5 L235.1,347.2 L235.9,316.6 L236.7,316.9 L237.6,311.4 L238.4,314.0 L239.3,311.2 L240.1,323.4 L241.0,320.2 L241.8,317.7 L242.6,321.8 L243.5,318.9 L244.3,325.7 L245.2,317.9 L246.0,321.0 L246.9,310.9 L247.7,344.1 L248.5,344.6 L249.4,344.3 L250.2,355.0 L251.1,356.8 L251.9,369.0 L252.8,352.9 L253.6,356.5 L254.4,364.6 L255.3,360.9 L256.1,337.6 L257.0,333.5 L257.8,331.9 L258.7,328.8 L259.5,329.3 L260.3,330.4 L261.2,332.4 L262.0,335.8 L262.9,330.1 L263.7,332.2 L264.6,330.6 L265.4,330.6 L266.2,329.6 L267.1,324.9 L267.9,326.7 L268.8,333.7 L269.6,335.8 L270.4,336.1 L271.3,338.1 L272.1,348.7 L273.0,333.5 L273.8,327.5 L274.7,327.0 L275.5,328.5 L276.3,326.7 L277.2,335.8 L278.0,336.1 L278.9,340.7 L279.7,337.3 L280.6,337.6 L281.4,371.0 L282.2,354.4 L283.1,364.6 L283.9,376.2 L284.8,379.8 L285.6,369.5 L286.5,372.1 L287.3,363.5 L288.1,360.7 L289.0,334.5 L289.8,331.9 L290.7,311.7 L291.5,310.1 L292.4,309.6 L293.2,313.2 L294.0,313.2 L294.9,312.5 L295.7,312.5 L296.6,312.2 L297.4,319.2 L298.3,338.9 L299.1,343.8 L299.9,350.0 L300.8,358.3 L301.6,355.2 L302.5,356.8 L303.3,346.9 L304.2,332.7 L305.0,334.0 L305.8,328.3 L306.7,334.2 L307.5,343.6 L308.4,341.8 L309.2,364.3 L310.1,365.8 L310.9,373.4 L311.7,374.9 L312.6,380.9 L313.4,370.8 L314.3,386.3 L315.1,388.1 L316.0,369.5 L316.8,374.4 L317.6,374.1 L318.5,371.0 L319.3,385.3 L320.2,391.2 L321.0,388.1 L321.9,395.4 L322.7,392.0 L323.5,379.1 L324.4,373.1 L325.2,359.1 L326.1,339.2 L326.9,323.6 L327.8,319.7 L328.6,323.9 L329.4,327.0 L330.3,318.4 L331.1,320.5 L332.0,323.6 L332.8,318.9 L333.7,318.4 L334.5,318.7 L335.3,320.5 L336.2,315.6 L337.0,327.8 L337.9,322.3 L338.7,320.5 L339.6,316.1 L340.4,317.4 L341.2,318.2 L342.1,322.6 L342.9,323.1 L343.8,322.6 L344.6,325.9 L345.4,338.9 L346.3,341.8 L347.1,325.7 L348.0,321.8 L348.8,314.5 L349.7,315.3 L350.5,336.3 L351.3,335.3 L352.2,323.6 L353.0,328.8 L353.9,319.2 L354.7,323.9 L355.6,343.8 L356.4,339.2 L357.2,324.9 L358.1,315.1 L358.9,319.2 L359.8,317.9 L360.6,312.7 L361.5,313.0 L362.3,311.2 L363.1,318.9 L364.0,320.5 L364.8,319.5 L365.7,317.7 L366.5,326.7 L367.4,344.1 L368.2,357.6 L369.0,370.3 L369.9,369.5 L370.7,387.9 L371.6,399.3 L372.4,384.2 L373.3,374.7 L374.1,377.8 L374.9,379.6 L375.8,379.1 L376.6,375.7 L377.5,397.7 L378.3,394.1 L379.2,407.6 L380.0,394.1 L380.8,383.7 L381.7,379.6 L382.5,376.5 L383.4,365.1 L384.2,355.5 L385.1,351.6 L385.9,353.2 L386.7,356.5 L387.6,359.6 L388.4,377.0 L389.3,390.7 L390.1,392.8 L391.0,406.0 L391.8,392.8 L392.6,381.9 L393.5,377.8 L394.3,374.7 L395.2,364.0 L396.0,358.6 L396.9,363.3 L397.7,383.5 L398.5,391.2 L399.4,392.8 L400.2,400.3 L401.1,407.6 L401.9,410.9 L402.8,413.3 L403.6,416.1 L404.4,418.7 L405.3,419.5 L406.1,419.2 L407.0,420.0 L407.8,420.0 L408.7,420.0 L409.5,420.0 L410.3,419.2 L411.2,419.5 L412.0,418.7 L412.9,415.3 L413.7,409.9 L414.6,402.6 L415.4,406.0 L416.2,408.3 L417.1,413.8 L417.9,410.7 L418.8,404.2 L419.6,400.0 L420.4,391.5 L421.3,388.4 L422.1,377.0 L423.0,362.7 L423.8,338.1 L424.7,327.8 L425.5,330.6 L426.3,330.4 L427.2,331.1 L428.0,332.7 L428.9,340.7 L429.7,336.8 L430.6,337.1 L431.4,336.6 L432.2,336.6 L433.1,345.6 L433.9,335.3 L434.8,336.3 L435.6,365.3 L436.5,363.8 L437.3,370.5 L438.1,380.6 L439.0,377.2 L439.8,379.3 L440.7,369.0 L441.5,377.0 L442.4,376.0 L443.2,374.4 L444.0,376.2 L444.9,371.3 L445.7,376.7 L446.6,379.3 L447.4,385.3 L448.3,396.2 L449.1,406.8 L449.9,409.4 L450.8,404.5 L451.6,399.0 L452.5,394.1 L453.3,372.1 L454.2,362.0 L455.0,355.0 L455.8,339.9 L456.7,325.7 L457.5,318.9 L458.4,322.3 L459.2,317.7 L460.1,318.2 L460.9,320.8 L461.7,319.5 L462.6,322.3 L463.4,318.9 L464.3,314.8 L465.1,319.7 L466.0,318.2 L466.8,316.1 L467.6,314.8 L468.5,312.0 L469.3,325.4 L470.2,324.9 L471.0,346.2 L471.9,348.2 L472.7,341.8 L473.5,344.1 L474.4,342.8 L475.2,346.9 L476.1,344.9 L476.9,345.9 L477.8,313.8 L478.6,317.7 L479.4,316.4 L480.3,317.1 L481.1,324.6 L482.0,324.4 L482.8,320.8 L483.7,326.7 L484.5,323.6 L485.3,315.8 L486.2,314.3 L487.0,315.3 L487.9,311.4 L488.7,315.3 L489.6,331.1 L490.4,325.9 L491.2,332.2 L492.1,324.4 L492.9,320.0 L493.8,323.1 L494.6,323.6 L495.4,317.1 L496.3,315.6 L497.1,322.1 L498.0,328.0 L498.8,337.1 L499.7,339.7 L500.5,359.4 L501.3,346.9 L502.2,342.0 L503.0,356.3 L503.9,345.6 L504.7,342.0 L505.6,346.4 L506.4,331.1 L507.2,348.5 L508.1,342.5 L508.9,332.9 L509.8,329.8 L510.6,342.5 L511.5,344.9 L512.3,345.1 L513.1,327.2 L514.0,310.4 L514.8,316.4 L515.7,311.2 L516.5,318.4 L517.4,326.7 L518.2,325.7 L519.0,335.0 L519.9,323.6 L520.7,321.5 L521.6,313.2 L522.4,312.0 L523.3,314.3 L524.1,313.5 L524.9,316.6 L525.8,320.0 L526.6,321.5 L527.5,318.7 L528.3,322.3 L529.2,317.1 L530.0,319.7 L530.8,327.2 L531.7,327.0 L532.5,321.3 L533.4,313.2 L534.2,313.2 L535.1,323.4 L535.9,320.0 L536.7,320.0 L537.6,325.7 L538.4,319.7 L539.3,335.5 L540.1,328.0 L541.0,336.3 L541.8,338.4 L542.6,339.2 L543.5,324.9 L544.3,334.2 L545.2,338.1 L546.0,323.6 L546.9,341.2 L547.7,342.3 L548.5,343.8 L549.4,332.4 L550.2,341.8 L551.1,342.0 L551.9,352.4 L552.8,347.5 L553.6,342.8 L554.4,327.0 L555.3,326.7 L556.1,320.2 L557.0,330.6 L557.8,328.3 L558.7,321.8 L559.5,329.3 L560.3,324.9 L561.2,328.3 L562.0,321.5 L562.9,322.3 L563.7,315.1 L564.6,314.0 L565.4,319.7 L566.2,319.7 L567.1,315.6 L567.9,314.8 L568.8,313.5 L569.6,318.2 L570.4,321.3 L571.3,325.2 L572.1,330.6 L573.0,328.0 L573.8,320.5 L574.7,321.5 L575.5,329.8 L576.3,315.3 L577.2,319.5 L578.0,319.5 L578.9,323.1 L579.7,343.8 L580.6,342.3 L581.4,330.9 L582.2,336.1 L583.1,335.3 L583.9,330.1 L584.8,326.7 L585.6,336.3 L586.5,331.1 L587.3,330.1 L588.1,337.9 L589.0,345.6 L589.8,341.5 L590.7,345.4 L591.5,359.9 L592.4,367.7 L593.2,377.2 L594.0,363.3 L594.9,379.8 L595.7,372.3 L596.6,367.4 L597.4,346.4 L598.3,341.8 L599.1,346.2 L599.9,343.3 L600.8,349.8 L601.6,336.8 L602.5,322.1 L603.3,313.8 L604.2,320.0 L605.0,312.7 L605.8,314.3 L606.7,318.2 L607.5,319.2 L608.4,313.2 L609.2,312.2 L610.1,317.7 L610.9,318.9 L611.7,318.4 L612.6,318.4 L613.4,313.0 L614.3,314.0 L615.1,318.2 L616.0,311.7 L616.8,313.0 L617.6,312.2 L618.5,319.7 L619.3,338.1 L620.2,326.5 L621.0,323.9 L621.9,330.9 L622.7,343.3 L623.5,354.2 L624.4,341.8 L625.2,355.5 L626.1,347.2 L626.9,344.6 L627.8,341.8 L628.6,344.6 L629.4,351.9 L630.3,353.7 L631.1,341.2 L632.0,364.0 L632.8,358.9 L633.7,354.7 L634.5,360.1 L635.3,364.6 L636.2,368.2 L637.0,374.7 L637.9,376.0 L638.7,396.4 L639.6,403.9 L640.4,406.0 L641.2,413.3 L642.1,416.1 L642.9,412.5 L643.8,398.2 L644.6,389.2 L645.4,384.0 L646.3,360.9 L647.1,338.4 L648.0,321.3 L648.8,323.4 L649.7,322.8 L650.5,320.8 L651.3,325.4 L652.2,323.9 L653.0,319.2 L653.9,312.7 L654.7,314.0 L655.6,322.3 L656.4,321.5 L657.2,336.1 L658.1,330.4 L658.9,316.4 L659.8,324.4 L660.6,318.2 L661.5,326.2 L662.3,330.1 L663.1,324.4 L664.0,330.9 L664.8,325.9 L665.7,326.2 L666.5,328.8 L667.4,326.2 L668.2,330.9 L669.0,328.0 L669.9,324.1 L670.7,319.5 L671.6,320.0 L672.4,336.8 L673.3,335.3 L674.1,325.4 L674.9,321.8 L675.8,317.9 L676.6,343.0 L677.5,341.2 L678.3,350.6 L679.2,370.0 L680.0,387.1" stroke="#1f77b4" stroke-width="2" fill="none" opacity="0.8"/>
<!-- Hydro Generation -->
<path d="M80.0,352.1 L80.8,352.1 L81.7,352.4 L82.5,352.4 L83.4,352.6 L84.2,352.4 L85.1,353.9 L85.9,353.9 L86.7,353.9 L87.6,354.4 L88.4,353.9 L89.3,354.4 L90.1,354.2 L91.0,354.2 L91.8,354.4 L92.6,354.2 L93.5,353.7 L94.3,353.2 L95.2,353.4 L96.0,353.2 L96.9,353.2 L97.7,353.4 L98.5,353.4 L99.4,353.7 L100.2,353.2 L101.1,353.2 L101.9,353.2 L102.8,353.7 L103.6,353.9 L104.4,353.9 L105.3,353.4 L106.1,353.2 L107.0,353.9 L107.8,353.2 L108.7,353.2 L109.5,353.7 L110.3,353.4 L111.2,353.9 L112.0,353.7 L112.9,354.2 L113.7,354.2 L114.6,353.9 L115.4,354.7 L116.2,355.2 L117.1,355.5 L117.9,355.5 L118.8,355.0 L119.6,355.2 L120.4,355.0 L121.3,354.7 L122.1,354.7 L123.0,354.7 L123.8,354.7 L124.7,354.4 L125.5,355.0 L126.3,354.7 L127.2,355.0 L128.0,355.5 L128.9,354.7 L129.7,355.7 L130.6,356.5 L131.4,356.3 L132.2,356.3 L133.1,356.0 L133.9,356.8 L134.8,356.0 L135.6,356.3 L136.5,356.3 L137.3,356.5 L138.1,356.3 L139.0,355.7 L139.8,355.5 L140.7,355.5 L141.5,355.5 L142.4,355.5 L143.2,355.7 L144.0,355.0 L144.9,353.7 L145.7,355.0 L146.6,354.7 L147.4,356.3 L148.3,357.8 L149.1,358.9 L149.9,358.1 L150.8,356.5 L151.6,356.5 L152.5,354.7 L153.3,354.7 L154.2,353.9 L155.0,354.2 L155.8,354.2 L156.7,354.4 L157.5,353.9 L158.4,354.2 L159.2,353.4 L160.1,353.4 L160.9,353.9 L161.7,353.7 L162.6,353.4 L163.4,353.2 L164.3,353.2 L165.1,352.4 L166.0,351.3 L166.8,352.1 L167.6,350.8 L168.5,351.1 L169.3,350.8 L170.2,351.6 L171.0,351.9 L171.9,352.1 L172.7,351.6 L173.5,353.2 L174.4,352.9 L175.2,352.6 L176.1,353.2 L176.9,354.2 L177.8,354.2 L178.6,353.7 L179.4,353.7 L180.3,352.4 L181.1,352.4 L182.0,352.6 L182.8,352.6 L183.7,351.9 L184.5,351.1 L185.3,350.8 L186.2,350.3 L187.0,350.0 L187.9,350.3 L188.7,349.8 L189.6,350.6 L190.4,350.8 L191.2,350.8 L192.1,350.8 L192.9,350.6 L193.8,351.6 L194.6,351.3 L195.4,352.6 L196.3,352.4 L197.1,350.6 L198.0,350.8 L198.8,351.1 L199.7,351.3 L200.5,350.8 L201.3,350.8 L202.2,350.8 L203.0,349.5 L203.9,349.3 L204.7,348.0 L205.6,347.5 L206.4,349.3 L207.2,349.3 L208.1,350.0 L208.9,350.0 L209.8,350.3 L210.6,350.6 L211.5,350.6 L212.3,351.9 L213.1,352.4 L214.0,351.9 L214.8,352.6 L215.7,352.9 L216.5,352.6 L217.4,354.4 L218.2,353.4 L219.0,352.4 L219.9,351.9 L220.7,351.1 L221.6,351.3 L222.4,351.1 L223.3,350.8 L224.1,350.6 L224.9,350.8 L225.8,351.3 L226.6,351.1 L227.5,351.3 L228.3,351.1 L229.2,351.3 L230.0,351.1 L230.8,351.1 L231.7,351.1 L232.5,351.1 L233.4,351.1 L234.2,350.8 L235.1,351.1 L235.9,351.3 L236.7,351.6 L237.6,350.6 L238.4,350.3 L239.3,350.6 L240.1,350.0 L241.0,350.6 L241.8,350.0 L242.6,351.1 L243.5,350.8 L244.3,351.3 L245.2,351.1 L246.0,350.6 L246.9,352.1 L247.7,352.1 L248.5,351.6 L249.4,351.9 L250.2,351.9 L251.1,351.6 L251.9,352.1 L252.8,351.3 L253.6,351.9 L254.4,350.8 L255.3,351.3 L256.1,351.6 L257.0,350.8 L257.8,351.1 L258.7,351.3 L259.5,351.3 L260.3,351.6 L261.2,351.1 L262.0,351.1 L262.9,351.1 L263.7,351.3 L264.6,351.3 L265.4,351.3 L266.2,351.1 L267.1,351.9 L267.9,351.3 L268.8,351.9 L269.6,351.3 L270.4,351.1 L271.3,350.8 L272.1,351.1 L273.0,351.3 L273.8,351.1 L274.7,351.1 L275.5,350.8 L276.3,351.1 L277.2,350.8 L278.0,350.8 L278.9,350.6 L279.7,351.3 L280.6,350.8 L281.4,350.8 L282.2,350.6 L283.1,351.3 L283.9,351.3 L284.8,351.3 L285.6,351.3 L286.5,351.3 L287.3,351.6 L288.1,351.6 L289.0,351.6 L289.8,351.6 L290.7,352.1 L291.5,351.9 L292.4,352.1 L293.2,351.9 L294.0,351.9 L294.9,351.6 L295.7,351.6 L296.6,352.1 L297.4,352.1 L298.3,352.1 L299.1,351.1 L299.9,350.6 L300.8,350.6 L301.6,350.3 L302.5,350.3 L303.3,349.3 L304.2,349.3 L305.0,349.3 L305.8,348.5 L306.7,348.7 L307.5,349.3 L308.4,349.0 L309.2,349.3 L310.1,350.6 L310.9,350.3 L311.7,350.6 L312.6,350.6 L313.4,350.3 L314.3,350.8 L315.1,350.6 L316.0,350.6 L316.8,350.3 L317.6,350.6 L318.5,350.6 L319.3,350.3 L320.2,349.8 L321.0,349.0 L321.9,349.0 L322.7,349.8 L323.5,349.5 L324.4,349.8 L325.2,349.0 L326.1,349.3 L326.9,348.7 L327.8,348.7 L328.6,350.0 L329.4,349.8 L330.3,349.3 L331.1,349.8 L332.0,349.8 L332.8,349.8 L333.7,349.8 L334.5,349.5 L335.3,349.5 L336.2,349.8 L337.0,349.5 L337.9,350.0 L338.7,349.8 L339.6,349.5 L340.4,349.8 L341.2,350.0 L342.1,349.8 L342.9,350.0 L343.8,349.0 L344.6,349.3 L345.4,349.3 L346.3,349.0 L347.1,348.7 L348.0,349.0 L348.8,349.3 L349.7,349.0 L350.5,349.8 L351.3,349.5 L352.2,349.8 L353.0,350.6 L353.9,350.3 L354.7,350.0 L355.6,351.1 L356.4,351.1 L357.2,351.3 L358.1,350.8 L358.9,350.8 L359.8,350.8 L360.6,350.6 L361.5,350.8 L362.3,350.3 L363.1,350.3 L364.0,350.0 L364.8,350.3 L365.7,350.3 L366.5,350.3 L367.4,350.3 L368.2,350.6 L369.0,351.3 L369.9,352.1 L370.7,353.7 L371.6,355.2 L372.4,355.2 L373.3,353.2 L374.1,351.6 L374.9,351.1 L375.8,351.1 L376.6,349.5 L377.5,349.3 L378.3,349.3 L379.2,349.3 L380.0,349.5 L380.8,349.3 L381.7,349.0 L382.5,349.0 L383.4,349.0 L384.2,348.7 L385.1,349.0 L385.9,349.5 L386.7,349.8 L387.6,350.6 L388.4,352.1 L389.3,353.7 L390.1,355.5 L391.0,356.5 L391.8,357.6 L392.6,357.6 L393.5,357.6 L394.3,356.5 L395.2,354.7 L396.0,351.1 L396.9,349.8 L397.7,350.0 L398.5,349.8 L399.4,350.3 L400.2,350.3 L401.1,352.9 L401.9,354.2 L402.8,353.4 L403.6,356.3 L404.4,357.8 L405.3,358.9 L406.1,360.7 L407.0,361.7 L407.8,364.3 L408.7,365.3 L409.5,365.3 L410.3,366.6 L411.2,366.4 L412.0,367.9 L412.9,368.4 L413.7,369.5 L414.6,369.5 L415.4,370.3 L416.2,370.0 L417.1,370.0 L417.9,370.3 L418.8,369.5 L419.6,368.7 L420.4,368.7 L421.3,369.5 L422.1,369.2 L423.0,368.7 L423.8,368.2 L424.7,367.9 L425.5,367.4 L426.3,366.9 L427.2,366.6 L428.0,364.3 L428.9,364.6 L429.7,365.6 L430.6,366.6 L431.4,366.9 L432.2,367.1 L433.1,368.2 L433.9,368.2 L434.8,368.4 L435.6,368.4 L436.5,368.4 L437.3,367.1 L438.1,367.1 L439.0,367.1 L439.8,367.1 L440.7,367.1 L441.5,367.4 L442.4,367.4 L443.2,367.4 L444.0,367.1 L444.9,367.1 L445.7,367.1 L446.6,366.9 L447.4,366.6 L448.3,367.4 L449.1,367.4 L449.9,367.4 L450.8,367.1 L451.6,367.1 L452.5,367.1 L453.3,365.3 L454.2,364.8 L455.0,363.0 L455.8,362.5 L456.7,362.2 L457.5,362.5 L458.4,362.5 L459.2,362.5 L460.1,362.0 L460.9,362.2 L461.7,362.0 L462.6,362.0 L463.4,361.4 L464.3,360.9 L465.1,360.1 L466.0,360.4 L466.8,359.1 L467.6,359.4 L468.5,359.1 L469.3,359.1 L470.2,359.4 L471.0,359.1 L471.9,359.1 L472.7,357.6 L473.5,356.8 L474.4,355.7 L475.2,355.0 L476.1,353.9 L476.9,355.0 L477.8,355.2 L478.6,355.5 L479.4,356.0 L480.3,356.0 L481.1,355.7 L482.0,356.3 L482.8,356.5 L483.7,356.8 L484.5,356.8 L485.3,356.3 L486.2,356.5 L487.0,356.8 L487.9,356.0 L488.7,355.7 L489.6,356.0 L490.4,356.5 L491.2,356.3 L492.1,355.2 L492.9,354.4 L493.8,354.7 L494.6,354.4 L495.4,354.4 L496.3,353.2 L497.1,352.4 L498.0,352.4 L498.8,351.3 L499.7,350.6 L500.5,349.0 L501.3,349.0 L502.2,348.2 L503.0,347.7 L503.9,347.5 L504.7,347.5 L505.6,346.2 L506.4,345.6 L507.2,345.6 L508.1,345.6 L508.9,345.9 L509.8,346.2 L510.6,345.9 L511.5,345.9 L512.3,345.6 L513.1,344.9 L514.0,345.1 L514.8,345.6 L515.7,344.3 L516.5,343.8 L517.4,343.0 L518.2,343.0 L519.0,342.8 L519.9,343.0 L520.7,342.8 L521.6,343.0 L522.4,343.0 L523.3,342.3 L524.1,342.3 L524.9,342.3 L525.8,342.3 L526.6,341.8 L527.5,341.8 L528.3,341.8 L529.2,342.0 L530.0,342.3 L530.8,343.0 L531.7,343.3 L532.5,343.0 L533.4,343.8 L534.2,343.0 L535.1,342.8 L535.9,343.0 L536.7,343.3 L537.6,343.0 L538.4,343.0 L539.3,343.3 L540.1,342.8 L541.0,341.5 L541.8,341.0 L542.6,340.5 L543.5,341.0 L544.3,339.7 L545.2,339.7 L546.0,340.7 L546.9,340.2 L547.7,341.2 L548.5,341.5 L549.4,341.5 L550.2,341.8 L551.1,341.5 L551.9,341.2 L552.8,341.5 L553.6,341.2 L554.4,341.0 L555.3,341.0 L556.1,341.2 L557.0,341.0 L557.8,341.5 L558.7,341.0 L559.5,341.8 L560.3,341.8 L561.2,341.8 L562.0,341.8 L562.9,341.0 L563.7,341.2 L564.6,341.5 L565.4,341.5 L566.2,341.2 L567.1,341.5 L567.9,341.0 L568.8,340.7 L569.6,341.0 L570.4,342.0 L571.3,342.0 L572.1,342.0 L573.0,341.8 L573.8,342.0 L574.7,342.0 L575.5,342.0 L576.3,341.8 L577.2,342.0 L578.0,342.0 L578.9,341.8 L579.7,341.8 L580.6,342.5 L581.4,342.5 L582.2,342.8 L583.1,342.5 L583.9,342.8 L584.8,343.0 L585.6,342.5 L586.5,342.8 L587.3,342.3 L588.1,342.3 L589.0,342.8 L589.8,342.0 L590.7,342.0 L591.5,342.0 L592.4,342.3 L593.2,342.3 L594.0,342.0 L594.9,343.0 L595.7,342.8 L596.6,343.0 L597.4,343.0 L598.3,342.8 L599.1,342.8 L599.9,343.0 L600.8,342.8 L601.6,343.0 L602.5,341.2 L603.3,341.2 L604.2,340.5 L605.0,340.5 L605.8,339.9 L606.7,340.2 L607.5,340.2 L608.4,341.2 L609.2,341.5 L610.1,341.5 L610.9,341.2 L611.7,341.0 L612.6,341.2 L613.4,341.2 L614.3,341.2 L615.1,342.8 L616.0,343.6 L616.8,343.6 L617.6,344.6 L618.5,346.4 L619.3,347.5 L620.2,347.2 L621.0,347.5 L621.9,348.7 L622.7,349.8 L623.5,350.6 L624.4,351.6 L625.2,350.8 L626.1,350.8 L626.9,350.3 L627.8,349.3 L628.6,348.5 L629.4,348.0 L630.3,347.7 L631.1,348.0 L632.0,348.0 L632.8,348.2 L633.7,348.2 L634.5,348.2 L635.3,348.2 L636.2,348.2 L637.0,349.0 L637.9,349.0 L638.7,348.7 L639.6,348.2 L640.4,348.2 L641.2,348.5 L642.1,347.7 L642.9,347.7 L643.8,347.7 L644.6,347.7 L645.4,348.0 L646.3,348.0 L647.1,347.7 L648.0,347.5 L648.8,347.7 L649.7,346.9 L650.5,347.2 L651.3,347.7 L652.2,346.4 L653.0,347.2 L653.9,346.9 L654.7,347.5 L655.6,347.7 L656.4,346.4 L657.2,346.4 L658.1,346.7 L658.9,346.9 L659.8,346.7 L660.6,347.2 L661.5,347.2 L662.3,347.2 L663.1,346.9 L664.0,347.2 L664.8,348.0 L665.7,347.7 L666.5,347.7 L667.4,348.0 L668.2,347.5 L669.0,348.0 L669.9,348.5 L670.7,348.2 L671.6,348.5 L672.4,348.0 L673.3,348.2 L674.1,348.0 L674.9,348.5 L675.8,348.0 L676.6,347.5 L677.5,347.5 L678.3,348.0 L679.2,348.0 L680.0,348.0" stroke="#ff7f0e" stroke-width="2" fill="none" opacity="0.8"/>
<!-- Thermal Generation -->
<path d="M80.0,379.6 L80.8,380.4 L81.7,380.6 L82.5,380.1 L83.4,379.6 L84.2,320.0 L85.1,322.6 L85.9,349.0 L86.7,364.6 L87.6,372.3 L88.4,372.3 L89.3,380.1 L90.1,380.1 L91.0,380.1 L91.8,380.1 L92.6,372.1 L93.5,357.0 L94.3,356.8 L95.2,356.5 L96.0,350.0 L96.9,341.5 L97.7,346.7 L98.5,347.7 L99.4,347.5 L100.2,374.1 L101.1,373.6 L101.9,373.9 L102.8,371.3 L103.6,371.0 L104.4,352.1 L105.3,298.2 L106.1,332.9 L107.0,342.0 L107.8,342.5 L108.7,342.3 L109.5,356.5 L110.3,364.3 L111.2,372.1 L112.0,372.1 L112.9,363.5 L113.7,338.9 L114.6,336.6 L115.4,339.2 L116.2,341.5 L117.1,350.0 L117.9,362.2 L118.8,369.0 L119.6,368.7 L120.4,368.4 L121.3,343.8 L122.1,334.0 L123.0,331.6 L123.8,321.0 L124.7,302.1 L125.5,299.8 L126.3,342.5 L127.2,287.6 L128.0,288.4 L128.9,308.3 L129.7,318.7 L130.6,323.9 L131.4,328.8 L132.2,328.8 L133.1,319.5 L133.9,272.8 L134.8,284.0 L135.6,305.7 L136.5,293.0 L137.3,305.5 L138.1,322.8 L139.0,328.0 L139.8,310.1 L140.7,291.0 L141.5,311.4 L142.4,288.6 L143.2,285.8 L144.0,278.3 L144.9,260.1 L145.7,267.9 L146.6,300.3 L147.4,315.6 L148.3,330.4 L149.1,341.0 L149.9,356.3 L150.8,356.0 L151.6,366.4 L152.5,367.7 L153.3,361.4 L154.2,316.1 L155.0,329.6 L155.8,318.4 L156.7,318.7 L157.5,343.8 L158.4,343.8 L159.2,283.5 L160.1,279.3 L160.9,358.1 L161.7,363.8 L162.6,351.6 L163.4,333.2 L164.3,319.7 L165.1,322.1 L166.0,291.7 L166.8,330.1 L167.6,343.8 L168.5,353.4 L169.3,359.4 L170.2,364.6 L171.0,364.8 L171.9,364.3 L172.7,365.3 L173.5,332.9 L174.4,253.9 L175.2,246.1 L176.1,243.8 L176.9,268.7 L177.8,246.1 L178.6,317.7 L179.4,342.8 L180.3,364.0 L181.1,364.0 L182.0,364.6 L182.8,331.9 L183.7,324.4 L184.5,312.0 L185.3,309.4 L186.2,301.8 L187.0,332.4 L187.9,331.1 L188.7,328.0 L189.6,340.7 L190.4,345.9 L191.2,356.3 L192.1,356.3 L192.9,356.8 L193.8,354.4 L194.6,314.5 L195.4,314.8 L196.3,319.2 L197.1,329.1 L198.0,361.7 L198.8,361.7 L199.7,356.8 L200.5,361.7 L201.3,362.0 L202.2,361.7 L203.0,362.2 L203.9,362.0 L204.7,356.8 L205.6,299.5 L206.4,291.0 L207.2,312.0 L208.1,314.3 L208.9,348.7 L209.8,364.0 L210.6,364.3 L211.5,364.0 L212.3,364.0 L213.1,364.3 L214.0,362.2 L214.8,302.1 L215.7,317.7 L216.5,317.7 L217.4,292.3 L218.2,292.3 L219.0,318.2 L219.9,317.9 L220.7,332.9 L221.6,333.5 L222.4,317.9 L223.3,333.5 L224.1,349.0 L224.9,349.0 L225.8,287.6 L226.6,276.2 L227.5,318.9 L228.3,351.6 L229.2,364.6 L230.0,362.0 L230.8,364.6 L231.7,364.8 L232.5,365.1 L233.4,364.8 L234.2,349.5 L235.1,292.3 L235.9,290.4 L236.7,332.9 L237.6,332.7 L238.4,348.5 L239.3,361.2 L240.1,359.1 L241.0,364.6 L241.8,364.6 L242.6,364.3 L243.5,364.0 L244.3,364.0 L245.2,363.5 L246.0,364.0 L246.9,334.0 L247.7,333.7 L248.5,333.7 L249.4,365.3 L250.2,364.8 L251.1,365.6 L251.9,364.6 L252.8,364.3 L253.6,343.3 L254.4,343.3 L255.3,344.1 L256.1,344.1 L257.0,328.5 L257.8,328.8 L258.7,328.5 L259.5,330.1 L260.3,319.7 L261.2,349.5 L262.0,364.8 L262.9,364.8 L263.7,364.6 L264.6,364.6 L265.4,349.8 L266.2,334.2 L267.1,314.3 L267.9,282.2 L268.8,331.1 L269.6,345.4 L270.4,365.1 L271.3,364.8 L272.1,364.6 L273.0,364.6 L273.8,364.6 L274.7,364.8 L275.5,344.1 L276.3,331.4 L277.2,338.6 L278.0,343.8 L278.9,344.3 L279.7,343.8 L280.6,344.3 L281.4,343.8 L282.2,354.7 L283.1,333.2 L283.9,343.3 L284.8,333.5 L285.6,317.7 L286.5,295.9 L287.3,303.1 L288.1,336.8 L289.0,343.6 L289.8,356.3 L290.7,364.3 L291.5,364.8 L292.4,375.4 L293.2,375.4 L294.0,375.7 L294.9,364.8 L295.7,351.1 L296.6,309.1 L297.4,311.4 L298.3,317.1 L299.1,316.4 L299.9,295.1 L300.8,306.5 L301.6,319.2 L302.5,326.5 L303.3,338.9 L304.2,338.6 L305.0,344.1 L305.8,355.5 L306.7,333.2 L307.5,310.9 L308.4,320.2 L309.2,321.5 L310.1,352.6 L310.9,351.9 L311.7,352.1 L312.6,352.1 L313.4,344.6 L314.3,344.1 L315.1,319.5 L316.0,262.2 L316.8,259.1 L317.6,255.2 L318.5,253.9 L319.3,244.3 L320.2,244.1 L321.0,248.7 L321.9,243.8 L322.7,244.1 L323.5,243.8 L324.4,244.3 L325.2,244.1 L326.1,244.1 L326.9,244.3 L327.8,248.0 L328.6,290.2 L329.4,293.8 L330.3,267.4 L331.1,282.7 L332.0,293.6 L332.8,281.1 L333.7,287.9 L334.5,296.4 L335.3,256.2 L336.2,253.9 L337.0,253.7 L337.9,256.5 L338.7,256.2 L339.6,258.1 L340.4,258.3 L341.2,255.0 L342.1,257.5 L342.9,266.6 L343.8,260.4 L344.6,260.1 L345.4,258.6 L346.3,263.0 L347.1,264.8 L348.0,265.6 L348.8,268.9 L349.7,291.0 L350.5,295.1 L351.3,262.2 L352.2,295.6 L353.0,298.7 L353.9,297.2 L354.7,298.2 L355.6,256.2 L356.4,256.2 L357.2,258.6 L358.1,256.5 L358.9,255.7 L359.8,256.0 L360.6,257.3 L361.5,267.6 L362.3,284.5 L363.1,294.3 L364.0,271.0 L364.8,273.1 L365.7,269.5 L366.5,280.9 L367.4,274.4 L368.2,275.9 L369.0,278.8 L369.9,279.0 L370.7,275.7 L371.6,274.9 L372.4,321.5 L373.3,324.1 L374.1,323.4 L374.9,323.4 L375.8,283.2 L376.6,283.2 L377.5,283.2 L378.3,280.9 L379.2,282.2 L380.0,279.8 L380.8,282.4 L381.7,279.8 L382.5,279.6 L383.4,322.1 L384.2,304.7 L385.1,299.3 L385.9,263.0 L386.7,262.7 L387.6,262.7 L388.4,263.8 L389.3,261.4 L390.1,260.9 L391.0,278.0 L391.8,261.4 L392.6,277.2 L393.5,265.6 L394.3,270.8 L395.2,260.4 L396.0,256.8 L396.9,257.5 L397.7,254.4 L398.5,254.7 L399.4,259.4 L400.2,254.4 L401.1,256.8 L401.9,254.2 L402.8,257.0 L403.6,298.0 L404.4,290.4 L405.3,293.0 L406.1,291.7 L407.0,288.4 L407.8,260.1 L408.7,260.1 L409.5,256.8 L410.3,264.0 L411.2,261.9 L412.0,259.1 L412.9,260.4 L413.7,264.5 L414.6,261.2 L415.4,272.8 L416.2,259.9 L417.1,256.8 L417.9,256.8 L418.8,254.4 L419.6,267.1 L420.4,280.9 L421.3,271.5 L422.1,265.3 L423.0,286.0 L423.8,298.0 L424.7,298.5 L425.5,298.7 L426.3,299.0 L427.2,298.5 L428.0,299.3 L428.9,299.0 L429.7,299.3 L430.6,296.9 L431.4,296.4 L432.2,299.0 L433.1,296.9 L433.9,296.7 L434.8,298.7 L435.6,297.2 L436.5,296.4 L437.3,299.3 L438.1,299.0 L439.0,298.5 L439.8,300.0 L440.7,299.3 L441.5,298.7 L442.4,301.1 L443.2,299.3 L444.0,299.5 L444.9,299.3 L445.7,299.5 L446.6,299.3 L447.4,298.7 L448.3,298.5 L449.1,299.3 L449.9,299.3 L450.8,299.8 L451.6,298.7 L452.5,299.0 L453.3,299.0 L454.2,299.0 L455.0,299.3 L455.8,298.5 L456.7,299.0 L457.5,299.0 L458.4,298.5 L459.2,299.0 L460.1,299.0 L460.9,299.3 L461.7,299.3 L462.6,298.7 L463.4,299.3 L464.3,299.0 L465.1,299.8 L466.0,298.7 L466.8,299.3 L467.6,299.5 L468.5,299.3 L469.3,299.8 L470.2,299.8 L471.0,299.8 L471.9,300.6 L472.7,300.8 L473.5,300.6 L474.4,301.1 L475.2,300.8 L476.1,301.6 L476.9,301.1 L477.8,301.1 L478.6,301.3 L479.4,301.8 L480.3,301.1 L481.1,301.3 L482.0,300.0 L482.8,299.5 L483.7,299.8 L484.5,299.3 L485.3,299.5 L486.2,300.3 L487.0,299.8 L487.9,299.3 L488.7,299.3 L489.6,299.8 L490.4,300.6 L491.2,300.3 L492.1,298.0 L492.9,296.7 L493.8,295.9 L494.6,309.9 L495.4,305.2 L496.3,303.9 L497.1,300.6 L498.0,289.7 L498.8,289.2 L499.7,289.4 L500.5,288.9 L501.3,290.2 L502.2,290.4 L503.0,291.2 L503.9,289.7 L504.7,290.4 L505.6,290.7 L506.4,290.7 L507.2,291.2 L508.1,290.4 L508.9,291.7 L509.8,292.8 L510.6,292.3 L511.5,292.3 L512.3,291.0 L513.1,291.0 L514.0,290.7 L514.8,290.2 L515.7,290.4 L516.5,289.9 L517.4,290.2 L518.2,289.9 L519.0,290.4 L519.9,290.7 L520.7,290.4 L521.6,290.2 L522.4,289.7 L523.3,289.4 L524.1,288.1 L524.9,255.7 L525.8,256.0 L526.6,258.1 L527.5,250.3 L528.3,253.7 L529.2,248.5 L530.0,250.0 L530.8,289.4 L531.7,289.2 L532.5,284.5 L533.4,288.1 L534.2,287.9 L535.1,303.9 L535.9,300.3 L536.7,298.2 L537.6,287.1 L538.4,245.1 L539.3,244.8 L540.1,244.6 L541.0,245.1 L541.8,247.4 L542.6,249.5 L543.5,244.3 L544.3,256.8 L545.2,263.2 L546.0,280.6 L546.9,286.3 L547.7,254.2 L548.5,254.2 L549.4,254.2 L550.2,255.0 L551.1,271.0 L551.9,275.9 L552.8,282.9 L553.6,282.4 L554.4,282.7 L555.3,282.4 L556.1,283.7 L557.0,280.9 L557.8,282.2 L558.7,257.5 L559.5,283.7 L560.3,285.8 L561.2,286.6 L562.0,286.8 L562.9,301.1 L563.7,301.3 L564.6,327.2 L565.4,332.4 L566.2,348.7 L567.1,348.7 L567.9,348.5 L568.8,348.0 L569.6,342.8 L570.4,299.8 L571.3,304.4 L572.1,364.6 L573.0,363.8 L573.8,359.9 L574.7,359.6 L575.5,361.7 L576.3,361.4 L577.2,359.6 L578.0,330.4 L578.9,282.4 L579.7,314.3 L580.6,307.5 L581.4,307.3 L582.2,307.0 L583.1,309.1 L583.9,287.6 L584.8,290.7 L585.6,309.9 L586.5,309.9 L587.3,297.4 L588.1,297.4 L589.0,288.1 L589.8,288.9 L590.7,281.4 L591.5,300.8 L592.4,320.0 L593.2,296.1 L594.0,322.6 L594.9,327.8 L595.7,342.5 L596.6,353.7 L597.4,350.8 L598.3,319.2 L599.1,308.8 L599.9,309.1 L600.8,293.8 L601.6,293.6 L602.5,292.8 L603.3,303.7 L604.2,303.4 L605.0,321.3 L605.8,371.5 L606.7,371.8 L607.5,371.5 L608.4,371.8 L609.2,350.3 L610.1,326.7 L610.9,310.4 L611.7,309.6 L612.6,335.8 L613.4,351.1 L614.3,342.5 L615.1,343.0 L616.0,349.0 L616.8,341.8 L617.6,339.2 L618.5,324.9 L619.3,264.8 L620.2,255.0 L621.0,251.3 L621.9,258.3 L622.7,256.5 L623.5,253.4 L624.4,267.6 L625.2,253.1 L626.1,253.9 L626.9,281.9 L627.8,300.6 L628.6,287.9 L629.4,271.5 L630.3,267.1 L631.1,267.6 L632.0,303.1 L632.8,301.8 L633.7,303.4 L634.5,301.6 L635.3,304.4 L636.2,337.3 L637.0,335.0 L637.9,332.9 L638.7,306.3 L639.6,256.2 L640.4,259.6 L641.2,257.5 L642.1,253.7 L642.9,253.9 L643.8,255.0 L644.6,254.2 L645.4,253.7 L646.3,253.7 L647.1,253.1 L648.0,253.7 L648.8,263.5 L649.7,257.3 L650.5,258.6 L651.3,258.8 L652.2,303.7 L653.0,295.4 L653.9,294.6 L654.7,292.3 L655.6,314.3 L656.4,322.8 L657.2,322.3 L658.1,332.9 L658.9,298.0 L659.8,256.8 L660.6,255.2 L661.5,269.5 L662.3,254.4 L663.1,254.4 L664.0,260.7 L664.8,297.4 L665.7,296.4 L666.5,301.8 L667.4,301.6 L668.2,326.7 L669.0,326.5 L669.9,316.6 L670.7,261.9 L671.6,261.7 L672.4,296.9 L673.3,323.9 L674.1,329.1 L674.9,336.6 L675.8,345.4 L676.6,345.6 L677.5,345.1 L678.3,315.3 L679.2,304.7 L680.0,286.0" stroke="#2ca02c" stroke-width="2" fill="none" opacity="0.8"/>
<!-- Solar Generation -->
<path d="M80.0,420.0 L80.8,420.0 L81.7,420.0 L82.5,420.0 L83.4,420.0 L84.2,420.0 L85.1,420.0 L85.9,415.3 L86.7,407.6 L87.6,408.6 L88.4,405.7 L89.3,407.0 L90.1,405.7 L91.0,402.9 L91.8,418.2 L92.6,419.7 L93.5,420.0 L94.3,420.0 L95.2,420.0 L96.0,420.0 L96.9,420.0 L97.7,420.0 L98.5,420.0 L99.4,420.0 L100.2,420.0 L101.1,420.0 L101.9,420.0 L102.8,420.0 L103.6,420.0 L104.4,420.0 L105.3,420.0 L106.1,419.0 L107.0,416.1 L107.8,412.0 L108.7,402.4 L109.5,404.2 L110.3,405.2 L111.2,403.7 L112.0,407.0 L112.9,419.5 L113.7,420.0 L114.6,420.0 L115.4,420.0 L116.2,420.0 L117.1,420.0 L117.9,420.0 L118.8,420.0 L119.6,420.0 L120.4,420.0 L121.3,420.0 L122.1,420.0 L123.0,420.0 L123.8,420.0 L124.7,420.0 L125.5,420.0 L126.3,417.1 L127.2,407.0 L128.0,409.9 L128.9,405.5 L129.7,408.1 L130.6,405.2 L131.4,415.3 L132.2,416.1 L133.1,419.7 L133.9,420.0 L134.8,420.0 L135.6,420.0 L136.5,420.0 L137.3,420.0 L138.1,420.0 L139.0,420.0 L139.8,420.0 L140.7,420.0 L141.5,420.0 L142.4,420.0 L143.2,420.0 L144.0,420.0 L144.9,420.0 L145.7,420.0 L146.6,417.4 L147.4,410.4 L148.3,407.8 L149.1,399.3 L149.9,401.1 L150.8,404.5 L151.6,406.5 L152.5,412.5 L153.3,419.5 L154.2,420.0 L155.0,420.0 L155.8,420.0 L156.7,420.0 L157.5,420.0 L158.4,420.0 L159.2,420.0 L160.1,420.0 L160.9,420.0 L161.7,420.0 L162.6,420.0 L163.4,420.0 L164.3,420.0 L165.1,420.0 L166.0,420.0 L166.8,414.8 L167.6,412.2 L168.5,416.1 L169.3,410.2 L170.2,412.5 L171.0,413.0 L171.9,410.9 L172.7,416.4 L173.5,419.5 L174.4,420.0 L175.2,420.0 L176.1,420.0 L176.9,420.0 L177.8,420.0 L178.6,420.0 L179.4,420.0 L180.3,420.0 L181.1,420.0 L182.0,420.0 L182.8,420.0 L183.7,420.0 L184.5,420.0 L185.3,420.0 L186.2,420.0 L187.0,419.0 L187.9,416.9 L188.7,408.6 L189.6,407.6 L190.4,401.1 L191.2,403.9 L192.1,416.4 L192.9,417.4 L193.8,419.2 L194.6,420.0 L195.4,420.0 L196.3,420.0 L197.1,420.0 L198.0,420.0 L198.8,420.0 L199.7,420.0 L200.5,420.0 L201.3,420.0 L202.2,420.0 L203.0,420.0 L203.9,420.0 L204.7,420.0 L205.6,420.0 L206.4,420.0 L207.2,418.4 L208.1,417.9 L208.9,416.1 L209.8,412.7 L210.6,408.9 L211.5,406.5 L212.3,406.3 L213.1,415.9 L214.0,419.2 L214.8,420.0 L215.7,420.0 L216.5,420.0 L217.4,420.0 L218.2,420.0 L219.0,420.0 L219.9,420.0 L220.7,420.0 L221.6,420.0 L222.4,420.0 L223.3,420.0 L224.1,420.0 L224.9,420.0 L225.8,420.0 L226.6,420.0 L227.5,414.6 L228.3,397.2 L229.2,397.5 L230.0,400.3 L230.8,401.1 L231.7,398.2 L232.5,395.6 L233.4,403.4 L234.2,418.2 L235.1,420.0 L235.9,420.0 L236.7,420.0 L237.6,420.0 L238.4,420.0 L239.3,420.0 L240.1,420.0 L241.0,420.0 L241.8,420.0 L242.6,420.0 L243.5,420.0 L244.3,420.0 L245.2,420.0 L246.0,420.0 L246.9,420.0 L247.7,413.8 L248.5,396.7 L249.4,396.9 L250.2,400.3 L251.1,401.6 L251.9,400.6 L252.8,410.4 L253.6,415.1 L254.4,419.2 L255.3,420.0 L256.1,420.0 L257.0,420.0 L257.8,420.0 L258.7,420.0 L259.5,420.0 L260.3,420.0 L261.2,420.0 L262.0,420.0 L262.9,420.0 L263.7,420.0 L264.6,420.0 L265.4,420.0 L266.2,420.0 L267.1,420.0 L267.9,417.7 L268.8,405.2 L269.6,403.9 L270.4,403.4 L271.3,403.9 L272.1,403.9 L273.0,410.2 L273.8,407.0 L274.7,418.7 L275.5,420.0 L276.3,420.0 L277.2,420.0 L278.0,420.0 L278.9,420.0 L279.7,420.0 L280.6,420.0 L281.4,420.0 L282.2,420.0 L283.1,420.0 L283.9,420.0 L284.8,420.0 L285.6,420.0 L286.5,420.0 L287.3,420.0 L288.1,415.6 L289.0,395.9 L289.8,396.4 L290.7,399.5 L291.5,400.3 L292.4,397.5 L293.2,395.9 L294.0,416.1 L294.9,417.9 L295.7,420.0 L296.6,420.0 L297.4,420.0 L298.3,420.0 L299.1,420.0 L299.9,420.0 L300.8,420.0 L301.6,420.0 L302.5,420.0 L303.3,420.0 L304.2,420.0 L305.0,420.0 L305.8,420.0 L306.7,420.0 L307.5,420.0 L308.4,416.4 L309.2,406.0 L310.1,405.0 L310.9,401.6 L311.7,405.7 L312.6,396.9 L313.4,396.7 L314.3,406.8 L315.1,417.7 L316.0,420.0 L316.8,420.0 L317.6,420.0 L318.5,420.0 L319.3,420.0 L320.2,420.0 L321.0,420.0 L321.9,420.0 L322.7,420.0 L323.5,420.0 L324.4,420.0 L325.2,420.0 L326.1,420.0 L326.9,420.0 L327.8,420.0 L328.6,412.2 L329.4,395.1 L330.3,395.4 L331.1,398.8 L332.0,399.3 L332.8,398.8 L333.7,401.9 L334.5,404.7 L335.3,417.7 L336.2,420.0 L337.0,420.0 L337.9,420.0 L338.7,420.0 L339.6,420.0 L340.4,420.0 L341.2,420.0 L342.1,420.0 L342.9,420.0 L343.8,420.0 L344.6,420.0 L345.4,420.0 L346.3,420.0 L347.1,420.0 L348.0,420.0 L348.8,419.0 L349.7,416.9 L350.5,414.6 L351.3,406.0 L352.2,401.1 L353.0,398.2 L353.9,394.1 L354.7,400.8 L355.6,417.4 L356.4,420.0 L357.2,420.0 L358.1,420.0 L358.9,420.0 L359.8,420.0 L360.6,420.0 L361.5,420.0 L362.3,420.0 L363.1,420.0 L364.0,420.0 L364.8,420.0 L365.7,420.0 L366.5,420.0 L367.4,420.0 L368.2,420.0 L369.0,415.6 L369.9,404.7 L370.7,402.6 L371.6,402.9 L372.4,401.3 L373.3,399.3 L374.1,397.5 L374.9,404.7 L375.8,418.7 L376.6,420.0 L377.5,420.0 L378.3,420.0 L379.2,420.0 L380.0,420.0 L380.8,420.0 L381.7,420.0 L382.5,420.0 L383.4,420.0 L384.2,420.0 L385.1,420.0 L385.9,420.0 L386.7,420.0 L387.6,420.0 L388.4,420.0 L389.3,416.1 L390.1,411.2 L391.0,403.4 L391.8,400.6 L392.6,403.7 L393.5,400.8 L394.3,398.0 L395.2,406.8 L396.0,417.4 L396.9,420.0 L397.7,420.0 L398.5,420.0 L399.4,420.0 L400.2,420.0 L401.1,420.0 L401.9,420.0 L402.8,420.0 L403.6,420.0 L404.4,420.0 L405.3,420.0 L406.1,420.0 L407.0,420.0 L407.8,420.0 L408.7,420.0 L409.5,418.4 L410.3,416.4 L411.2,413.5 L412.0,412.0 L412.9,410.9 L413.7,410.2 L414.6,410.7 L415.4,413.0 L416.2,419.0 L417.1,420.0 L417.9,420.0 L418.8,420.0 L419.6,420.0 L420.4,420.0 L421.3,420.0 L422.1,420.0 L423.0,420.0 L423.8,420.0 L424.7,420.0 L425.5,420.0 L426.3,420.0 L427.2,420.0 L428.0,420.0 L428.9,420.0 L429.7,417.7 L430.6,411.2 L431.4,397.7 L432.2,398.8 L433.1,401.6 L433.9,399.3 L434.8,401.9 L435.6,404.7 L436.5,416.4 L437.3,420.0 L438.1,420.0 L439.0,420.0 L439.8,420.0 L440.7,420.0 L441.5,420.0 L442.4,420.0 L443.2,420.0 L444.0,420.0 L444.9,420.0 L445.7,420.0 L446.6,420.0 L447.4,420.0 L448.3,420.0 L449.1,420.0 L449.9,413.8 L450.8,401.6 L451.6,400.8 L452.5,402.1 L453.3,402.6 L454.2,400.8 L455.0,413.0 L455.8,401.9 L456.7,415.6 L457.5,420.0 L458.4,420.0 L459.2,420.0 L460.1,420.0 L460.9,420.0 L461.7,420.0 L462.6,420.0 L463.4,420.0 L464.3,420.0 L465.1,420.0 L466.0,420.0 L466.8,420.0 L467.6,420.0 L468.5,420.0 L469.3,420.0 L470.2,413.3 L471.0,408.6 L471.9,404.5 L472.7,403.2 L473.5,400.0 L474.4,410.4 L475.2,413.8 L476.1,414.0 L476.9,418.7 L477.8,420.0 L478.6,420.0 L479.4,420.0 L480.3,420.0 L481.1,420.0 L482.0,420.0 L482.8,420.0 L483.7,420.0 L484.5,420.0 L485.3,420.0 L486.2,420.0 L487.0,420.0 L487.9,420.0 L488.7,420.0 L489.6,420.0 L490.4,414.3 L491.2,404.2 L492.1,399.3 L492.9,396.2 L493.8,400.3 L494.6,397.7 L495.4,399.8 L496.3,403.7 L497.1,417.7 L498.0,420.0 L498.8,420.0 L499.7,420.0 L500.5,420.0 L501.3,420.0 L502.2,420.0 L503.0,420.0 L503.9,420.0 L504.7,420.0 L505.6,420.0 L506.4,420.0 L507.2,420.0 L508.1,420.0 L508.9,420.0 L509.8,420.0 L510.6,418.7 L511.5,416.6 L512.3,414.3 L513.1,409.9 L514.0,407.0 L514.8,411.2 L515.7,414.6 L516.5,416.1 L517.4,416.4 L518.2,420.0 L519.0,420.0 L519.9,420.0 L520.7,420.0 L521.6,420.0 L522.4,420.0 L523.3,420.0 L524.1,420.0 L524.9,420.0 L525.8,420.0 L526.6,420.0 L527.5,420.0 L528.3,420.0 L529.2,420.0 L530.0,420.0 L530.8,413.0 L531.7,406.3 L532.5,406.0 L533.4,406.8 L534.2,409.4 L535.1,406.3 L535.9,401.9 L536.7,416.1 L537.6,418.7 L538.4,420.0 L539.3,420.0 L540.1,420.0 L541.0,420.0 L541.8,420.0 L542.6,420.0 L543.5,420.0 L544.3,420.0 L545.2,420.0 L546.0,420.0 L546.9,420.0 L547.7,420.0 L548.5,420.0 L549.4,420.0 L550.2,420.0 L551.1,416.6 L551.9,412.0 L552.8,410.7 L553.6,408.1 L554.4,402.1 L555.3,406.0 L556.1,411.7 L557.0,415.3 L557.8,418.7 L558.7,420.0 L559.5,420.0 L560.3,420.0 L561.2,420.0 L562.0,420.0 L562.9,420.0 L563.7,420.0 L564.6,420.0 L565.4,420.0 L566.2,420.0 L567.1,420.0 L567.9,420.0 L568.8,420.0 L569.6,420.0 L570.4,420.0 L571.3,411.7 L572.1,399.5 L573.0,396.9 L573.8,400.0 L574.7,399.3 L575.5,401.3 L576.3,400.8 L577.2,407.3 L578.0,417.7 L578.9,420.0 L579.7,420.0 L580.6,420.0 L581.4,420.0 L582.2,420.0 L583.1,420.0 L583.9,420.0 L584.8,420.0 L585.6,420.0 L586.5,420.0 L587.3,420.0 L588.1,420.0 L589.0,420.0 L589.8,420.0 L590.7,420.0 L591.5,416.9 L592.4,402.9 L593.2,405.0 L594.0,403.2 L594.9,401.6 L595.7,401.6 L596.6,407.8 L597.4,410.7 L598.3,416.6 L599.1,420.0 L599.9,420.0 L600.8,420.0 L601.6,420.0 L602.5,420.0 L603.3,420.0 L604.2,420.0 L605.0,420.0 L605.8,420.0 L606.7,420.0 L607.5,420.0 L608.4,420.0 L609.2,420.0 L610.1,420.0 L610.9,419.7 L611.7,411.4 L612.6,400.3 L613.4,393.3 L614.3,396.9 L615.1,400.6 L616.0,402.4 L616.8,406.5 L617.6,401.9 L618.5,417.4 L619.3,420.0 L620.2,420.0 L621.0,420.0 L621.9,420.0 L622.7,420.0 L623.5,420.0 L624.4,420.0 L625.2,420.0 L626.1,420.0 L626.9,420.0 L627.8,420.0 L628.6,420.0 L629.4,420.0 L630.3,420.0 L631.1,420.0 L632.0,414.8 L632.8,406.8 L633.7,405.2 L634.5,397.7 L635.3,401.3 L636.2,394.1 L637.0,391.8 L637.9,397.7 L638.7,416.6 L639.6,420.0 L640.4,420.0 L641.2,420.0 L642.1,420.0 L642.9,420.0 L643.8,420.0 L644.6,420.0 L645.4,420.0 L646.3,420.0 L647.1,420.0 L648.0,420.0 L648.8,420.0 L649.7,420.0 L650.5,420.0 L651.3,419.7 L652.2,414.3 L653.0,401.9 L653.9,390.2 L654.7,405.0 L655.6,396.9 L656.4,406.0 L657.2,392.3 L658.1,397.2 L658.9,412.7 L659.8,420.0 L660.6,420.0 L661.5,420.0 L662.3,420.0 L663.1,420.0 L664.0,420.0 L664.8,420.0 L665.7,420.0 L666.5,420.0 L667.4,420.0 L668.2,420.0 L669.0,420.0 L669.9,420.0 L670.7,420.0 L671.6,420.0 L672.4,409.6 L673.3,392.3 L674.1,393.3 L674.9,395.6 L675.8,396.4 L676.6,394.9 L677.5,392.5 L678.3,395.1 L679.2,412.2 L680.0,420.0" stroke="#d62728" stroke-width="2" fill="none" opacity="0.8"/>
<!-- Forecast -->
<path d="M80.0,257.5 L80.8,261.9 L81.7,263.5 L82.5,261.7 L83.4,249.5 L84.2,225.2 L85.1,198.5 L85.9,183.2 L86.7,180.6 L87.6,182.1 L88.4,184.7 L89.3,188.9 L90.1,192.0 L91.0,193.8 L91.8,193.3 L92.6,186.5 L93.5,172.6 L94.3,167.6 L95.2,171.3 L96.0,179.8 L96.9,193.0 L97.7,212.5 L98.5,216.9 L99.4,243.0 L100.2,249.5 L101.1,252.9 L101.9,254.2 L102.8,251.6 L103.6,239.7 L104.4,215.0 L105.3,187.6 L106.1,174.6 L107.0,174.9 L107.8,178.3 L108.7,181.4 L109.5,186.0 L110.3,189.7 L111.2,191.5 L112.0,190.7 L112.9,183.7 L113.7,169.2 L114.6,164.5 L115.4,167.4 L116.2,177.0 L117.1,190.2 L117.9,210.4 L118.8,234.0 L119.6,243.3 L120.4,249.5 L121.3,253.9 L122.1,255.2 L123.0,252.6 L123.8,241.0 L124.7,216.3 L125.5,188.6 L126.3,175.9 L127.2,175.9 L128.0,179.0 L128.9,181.9 L129.7,187.3 L130.6,190.7 L131.4,192.5 L132.2,192.5 L133.1,186.5 L133.9,173.6 L134.8,168.9 L135.6,173.6 L136.5,182.9 L137.3,197.9 L138.1,216.3 L139.0,239.7 L139.8,248.7 L140.7,254.7 L141.5,259.6 L142.4,262.5 L143.2,263.5 L144.0,260.1 L144.9,246.1 L145.7,229.3 L146.6,214.5 L147.4,207.3 L148.3,203.6 L149.1,205.2 L149.9,207.5 L150.8,213.8 L151.6,215.6 L152.5,214.3 L153.3,209.3 L154.2,198.2 L155.0,193.3 L155.8,194.1 L156.7,200.3 L157.5,211.2 L158.4,226.2 L159.2,240.7 L160.1,250.5 L160.9,256.2 L161.7,259.9 L162.6,260.1 L163.4,258.6 L164.3,254.4 L165.1,245.9 L166.0,234.2 L166.8,222.6 L167.6,212.2 L168.5,203.4 L169.3,198.2 L170.2,203.9 L171.0,209.1 L171.9,214.0 L172.7,211.9 L173.5,208.8 L174.4,192.8 L175.2,187.1 L176.1,190.7 L176.9,199.2 L177.8,209.6 L178.6,223.9 L179.4,240.4 L180.3,249.8 L181.1,256.0 L182.0,260.4 L182.8,262.2 L183.7,260.1 L184.5,248.2 L185.3,223.9 L186.2,197.9 L187.0,183.4 L187.9,181.6 L188.7,183.2 L189.6,186.3 L190.4,189.9 L191.2,193.3 L192.1,196.4 L192.9,197.4 L193.8,192.2 L194.6,181.4 L195.4,176.4 L196.3,178.3 L197.1,191.0 L198.0,198.7 L198.8,221.8 L199.7,227.7 L200.5,252.1 L201.3,259.6 L202.2,264.3 L203.0,265.8 L203.9,264.5 L204.7,252.9 L205.6,226.2 L206.4,200.5 L207.2,186.8 L208.1,184.2 L208.9,185.3 L209.8,188.1 L210.6,191.2 L211.5,194.3 L212.3,197.4 L213.1,198.7 L214.0,193.8 L214.8,182.4 L215.7,177.2 L216.5,178.5 L217.4,190.4 L218.2,199.0 L219.0,221.0 L219.9,239.4 L220.7,251.3 L221.6,257.3 L222.4,260.7 L223.3,261.9 L224.1,259.6 L224.9,247.4 L225.8,223.3 L226.6,195.6 L227.5,182.7 L228.3,181.9 L229.2,184.0 L230.0,187.6 L230.8,191.0 L231.7,194.6 L232.5,197.7 L233.4,198.7 L234.2,193.0 L235.1,181.4 L235.9,175.9 L236.7,177.5 L237.6,188.6 L238.4,196.4 L239.3,218.9 L240.1,234.5 L241.0,249.0 L241.8,256.5 L242.6,260.4 L243.5,261.7 L244.3,259.1 L245.2,246.7 L246.0,221.8 L246.9,194.3 L247.7,180.8 L248.5,180.3 L249.4,182.9 L250.2,185.8 L251.1,189.7 L251.9,193.0 L252.8,195.6 L253.6,195.6 L254.4,189.1 L255.3,175.9 L256.1,170.2 L257.0,173.9 L257.8,182.4 L258.7,196.7 L259.5,215.0 L260.3,231.6 L261.2,244.3 L262.0,251.1 L262.9,254.7 L263.7,255.7 L264.6,252.9 L265.4,240.7 L266.2,215.6 L267.1,187.6 L267.9,175.4 L268.8,175.9 L269.6,179.6 L270.4,182.9 L271.3,188.1 L272.1,191.5 L273.0,193.5 L273.8,193.5 L274.7,186.5 L275.5,172.6 L276.3,167.4 L277.2,171.8 L278.0,179.3 L278.9,192.5 L279.7,211.7 L280.6,236.6 L281.4,242.8 L282.2,247.4 L283.1,252.4 L283.9,254.2 L284.8,253.4 L285.6,249.0 L286.5,237.3 L287.3,222.6 L288.1,208.1 L289.0,201.1 L289.8,200.0 L290.7,202.6 L291.5,205.7 L292.4,212.2 L293.2,215.3 L294.0,214.3 L294.9,209.3 L295.7,197.4 L296.6,192.2 L297.4,192.8 L298.3,199.0 L299.1,209.6 L299.9,224.1 L300.8,227.5 L301.6,248.0 L302.5,254.2 L303.3,257.8 L304.2,259.1 L305.0,258.1 L305.8,254.4 L306.7,245.1 L307.5,231.1 L308.4,218.2 L309.2,207.5 L310.1,200.5 L310.9,199.5 L311.7,203.6 L312.6,209.6 L313.4,210.9 L314.3,209.1 L315.1,203.4 L316.0,188.9 L316.8,179.8 L317.6,185.5 L318.5,193.8 L319.3,202.4 L320.2,218.2 L321.0,233.4 L321.9,243.6 L322.7,248.5 L323.5,252.1 L324.4,252.9 L325.2,249.5 L326.1,237.1 L326.9,212.5 L327.8,184.7 L328.6,173.1 L329.4,174.6 L330.3,178.5 L331.1,182.1 L332.0,187.3 L332.8,191.0 L333.7,193.3 L334.5,193.3 L335.3,187.1 L336.2,173.3 L337.0,168.2 L337.9,172.6 L338.7,181.1 L339.6,195.1 L340.4,214.0 L341.2,233.7 L342.1,244.8 L342.9,251.3 L343.8,255.0 L344.6,256.5 L345.4,253.9 L346.3,242.0 L347.1,218.2 L348.0,191.2 L348.8,178.3 L349.7,177.7 L350.5,180.8 L351.3,184.0 L352.2,188.4 L353.0,191.7 L353.9,194.3 L354.7,194.3 L355.6,188.4 L356.4,175.1 L357.2,169.7 L358.1,173.3 L358.9,182.1 L359.8,196.4 L360.6,214.8 L361.5,225.4 L362.3,242.8 L363.1,247.7 L364.0,250.3 L364.8,251.3 L365.7,248.2 L366.5,235.3 L367.4,210.1 L368.2,181.9 L369.0,168.9 L369.9,170.2 L370.7,174.4 L371.6,178.5 L372.4,183.2 L373.3,188.1 L374.1,190.4 L374.9,189.7 L375.8,182.4 L376.6,167.1 L377.5,161.9 L378.3,163.7 L379.2,172.8 L380.0,185.3 L380.8,204.7 L381.7,173.6 L382.5,172.6 L383.4,172.6 L384.2,172.6 L385.1,172.6 L385.9,172.6 L386.7,172.6 L387.6,172.6 L388.4,172.6 L389.3,172.6 L390.1,172.6 L391.0,172.6 L391.8,172.6 L392.6,172.6 L393.5,172.6 L394.3,172.6 L395.2,172.6 L396.0,172.6 L396.9,172.6 L397.7,172.6 L398.5,172.6 L399.4,172.6 L400.2,172.6 L401.1,172.6 L401.9,172.6 L402.8,220.0 L403.6,226.2 L404.4,228.8 L405.3,228.8 L406.1,225.2 L407.0,211.9 L407.8,188.6 L408.7,181.9 L409.5,180.6 L410.3,179.0 L411.2,177.7 L412.0,176.4 L412.9,175.1 L413.7,173.9 L414.6,172.3 L415.4,171.0 L416.2,169.7 L417.1,168.4 L417.9,166.9 L418.8,165.6 L419.6,165.8 L420.4,164.0 L421.3,184.2 L422.1,210.9 L423.0,214.0 L423.8,218.2 L424.7,223.3 L425.5,225.9 L426.3,227.7 L427.2,223.9 L428.0,210.9 L428.9,194.1 L429.7,180.1 L430.6,177.5 L431.4,177.0 L432.2,179.0 L433.1,183.2 L433.9,189.1 L434.8,194.3 L435.6,194.8 L436.5,185.8 L437.3,167.9 L438.1,165.0 L439.0,169.7 L439.8,177.7 L440.7,188.1 L441.5,200.3 L442.4,228.3 L443.2,230.3 L444.0,232.9 L444.9,238.4 L445.7,240.2 L446.6,238.4 L447.4,234.2 L448.3,222.8 L449.1,209.6 L449.9,196.1 L450.8,187.1 L451.6,185.8 L452.5,187.3 L453.3,189.1 L454.2,194.6 L455.0,199.8 L455.8,201.3 L456.7,191.0 L457.5,171.3 L458.4,164.3 L459.2,167.9 L460.1,177.2 L460.9,191.7 L461.7,210.1 L462.6,231.9 L463.4,239.1 L464.3,244.3 L465.1,248.2 L466.0,249.8 L466.8,246.1 L467.6,234.5 L468.5,210.9 L469.3,184.0 L470.2,171.8 L471.0,173.6 L471.9,177.7 L472.7,181.4 L473.5,186.5 L474.4,190.4 L475.2,193.0 L476.1,193.0 L476.9,187.1 L477.8,173.1 L478.6,167.6 L479.4,171.5 L480.3,180.3 L481.1,194.3 L482.0,213.5 L482.8,229.8 L483.7,243.6 L484.5,249.3 L485.3,252.9 L486.2,254.2 L487.0,251.3 L487.9,239.1 L488.7,214.3 L489.6,186.0 L490.4,174.4 L491.2,175.1 L492.1,179.0 L492.9,182.1 L493.8,187.6 L494.6,191.2 L495.4,193.5 L496.3,193.5 L497.1,187.3 L498.0,173.1 L498.8,167.1 L499.7,171.3 L500.5,179.3 L501.3,192.0 L502.2,211.2 L503.0,215.8 L503.9,242.5 L504.7,248.7 L505.6,252.6 L506.4,253.9 L507.2,251.1 L508.1,238.6 L508.9,213.2 L509.8,185.5 L510.6,173.6 L511.5,175.4 L512.3,179.3 L513.1,182.7 L514.0,188.1 L514.8,191.5 L515.7,193.8 L516.5,193.8 L517.4,187.8 L518.2,173.9 L519.0,168.4 L519.9,172.6 L520.7,181.6 L521.6,196.1 L522.4,215.0 L523.3,234.7 L524.1,245.4 L524.9,251.6 L525.8,255.2 L526.6,256.5 L527.5,253.7 L528.3,241.0 L529.2,216.3 L530.0,189.1 L530.8,176.4 L531.7,176.7 L532.5,180.3 L533.4,183.7 L534.2,188.6 L535.1,192.2 L535.9,195.1 L536.7,195.1 L537.6,188.6 L538.4,174.9 L539.3,169.4 L540.1,173.1 L541.0,182.4 L541.8,197.4 L542.6,215.8 L543.5,236.8 L544.3,247.2 L545.2,253.7 L546.0,257.3 L546.9,258.6 L547.7,255.7 L548.5,243.6 L549.4,219.2 L550.2,191.0 L551.1,178.0 L551.9,178.3 L552.8,181.4 L553.6,184.7 L554.4,189.4 L555.3,192.8 L556.1,195.9 L557.0,196.7 L557.8,190.4 L558.7,177.5 L559.5,171.8 L560.3,174.9 L561.2,185.5 L562.0,200.8 L562.9,219.2 L563.7,238.9 L564.6,252.6 L565.4,260.4 L566.2,265.3 L567.1,268.4 L567.9,271.0 L568.8,268.7 L569.6,251.8 L570.4,234.5 L571.3,220.0 L572.1,215.6 L573.0,209.9 L573.8,210.9 L574.7,213.0 L575.5,219.5 L576.3,221.8 L577.2,220.7 L578.0,216.6 L578.9,204.4 L579.7,197.2 L580.6,195.6 L581.4,201.6 L582.2,210.9 L583.1,225.4 L583.9,240.7 L584.8,249.8 L585.6,256.2 L586.5,259.9 L587.3,260.9 L588.1,259.4 L589.0,255.5 L589.8,246.7 L590.7,234.2 L591.5,222.0 L592.4,212.7 L593.2,204.4 L594.0,198.7 L594.9,201.3 L595.7,206.5 L596.6,215.8 L597.4,214.8 L598.3,213.0 L599.1,194.3 L599.9,188.9 L600.8,192.2 L601.6,201.3 L602.5,210.1 L603.3,223.9 L604.2,227.5 L605.0,249.0 L605.8,256.2 L606.7,260.1 L607.5,261.7 L608.4,259.4 L609.2,247.2 L610.1,222.8 L610.9,196.4 L611.7,182.1 L612.6,181.4 L613.4,183.7 L614.3,186.5 L615.1,190.4 L616.0,193.8 L616.8,196.9 L617.6,197.7 L618.5,192.0 L619.3,179.0 L620.2,172.8 L621.0,175.1 L621.9,184.5 L622.7,199.8 L623.5,217.4 L624.4,235.5 L625.2,246.9 L626.1,254.7 L626.9,259.1 L627.8,260.9 L628.6,258.3 L629.4,246.1 L630.3,222.0 L631.1,195.6 L632.0,181.9 L632.8,181.1 L633.7,183.7 L634.5,186.8 L635.3,190.7 L636.2,194.3 L637.0,197.4 L637.9,198.7 L638.7,193.0 L639.6,180.6 L640.4,174.1 L641.2,175.7 L642.1,185.8 L642.9,201.3 L643.8,218.4 L644.6,238.1 L645.4,247.7 L646.3,253.9 L647.1,257.5 L648.0,259.6 L648.8,256.8 L649.7,244.8 L650.5,220.7 L651.3,194.8 L652.2,181.4 L653.0,181.4 L653.9,184.2 L654.7,187.8 L655.6,191.5 L656.4,195.4 L657.2,199.2 L658.1,200.5 L658.9,195.1 L659.8,183.2 L660.6,176.7 L661.5,177.5 L662.3,188.6 L663.1,201.6 L664.0,220.2 L664.8,237.6 L665.7,250.0 L666.5,256.8 L667.4,260.7 L668.2,262.2 L669.0,259.9 L669.9,247.4 L670.7,222.8 L671.6,196.7 L672.4,183.2 L673.3,182.7 L674.1,185.3 L674.9,188.6 L675.8,191.7 L676.6,195.9 L677.5,199.5 L678.3,200.8 L679.2,195.9 L680.0,194.3" stroke="#9467bd" stroke-width="2" fill="none" opacity="0.8"/>
<!-- Total Generation -->
<path d="M80.0,236.8 L80.8,221.5 L81.7,211.9 L82.5,249.3 L83.4,223.1 L84.2,189.4 L85.1,160.6 L85.9,178.5 L86.7,183.7 L87.6,188.1 L88.4,182.7 L89.3,195.1 L90.1,200.8 L91.0,191.0 L91.8,206.2 L92.6,197.7 L93.5,186.5 L94.3,196.9 L95.2,238.6 L96.0,225.7 L96.9,245.4 L97.7,248.7 L98.5,245.6 L99.4,241.7 L100.2,287.1 L101.1,298.0 L101.9,296.7 L102.8,288.1 L103.6,282.2 L104.4,260.4 L105.3,192.0 L106.1,224.4 L107.0,218.7 L107.8,189.4 L108.7,165.8 L109.5,172.3 L110.3,179.6 L111.2,180.1 L112.0,187.8 L112.9,190.2 L113.7,172.8 L114.6,168.2 L115.4,179.8 L116.2,174.4 L117.1,183.2 L117.9,188.9 L118.8,193.3 L119.6,193.3 L120.4,203.4 L121.3,180.3 L122.1,190.7 L123.0,194.3 L123.8,180.3 L124.7,159.6 L125.5,148.2 L126.3,182.4 L127.2,119.2 L128.0,116.1 L128.9,115.0 L129.7,130.6 L130.6,133.7 L131.4,160.6 L132.2,161.2 L133.1,142.8 L133.9,96.9 L134.8,106.7 L135.6,128.2 L136.5,116.1 L137.3,131.6 L138.1,145.1 L139.0,150.3 L139.8,132.1 L140.7,113.7 L141.5,135.8 L142.4,117.1 L143.2,116.8 L144.0,106.5 L144.9,88.3 L145.7,94.0 L146.6,126.4 L147.4,139.1 L148.3,148.5 L149.1,146.4 L149.9,162.5 L150.8,163.2 L151.6,176.2 L152.5,181.9 L153.3,184.5 L154.2,147.9 L155.0,168.2 L155.8,159.9 L156.7,153.6 L157.5,178.8 L158.4,173.1 L159.2,110.1 L160.1,106.2 L160.9,185.5 L161.7,193.8 L162.6,180.3 L163.4,161.4 L164.3,150.0 L165.1,151.1 L166.0,118.9 L166.8,156.2 L167.6,162.7 L168.5,180.6 L169.3,198.2 L170.2,199.8 L171.0,210.1 L171.9,202.4 L172.7,191.0 L173.5,182.1 L174.4,88.3 L175.2,70.0 L176.1,68.7 L176.9,93.0 L177.8,70.7 L178.6,146.1 L179.4,165.6 L180.3,201.3 L181.1,204.4 L182.0,204.7 L182.8,190.2 L183.7,162.2 L184.5,148.2 L185.3,147.2 L186.2,150.5 L187.0,199.0 L187.9,178.5 L188.7,162.5 L189.6,180.6 L190.4,187.6 L191.2,206.8 L192.1,209.6 L192.9,185.5 L193.8,178.0 L194.6,142.5 L195.4,145.6 L196.3,144.8 L197.1,159.6 L198.0,195.4 L198.8,196.9 L199.7,184.0 L200.5,185.8 L201.3,185.5 L202.2,187.3 L203.0,196.4 L203.9,185.5 L204.7,181.6 L205.6,127.5 L206.4,118.7 L207.2,168.2 L208.1,166.9 L208.9,199.0 L209.8,208.1 L210.6,206.8 L211.5,204.2 L212.3,206.0 L213.1,226.4 L214.0,220.7 L214.8,165.6 L215.7,179.0 L216.5,184.5 L217.4,167.1 L218.2,170.2 L219.0,201.1 L219.9,205.5 L220.7,222.0 L221.6,218.7 L222.4,173.1 L223.3,181.6 L224.1,189.9 L224.9,182.7 L225.8,109.6 L226.6,100.3 L227.5,167.4 L228.3,182.9 L229.2,197.7 L230.0,192.0 L230.8,195.9 L231.7,195.9 L232.5,188.1 L233.4,212.7 L234.2,201.1 L235.1,150.5 L235.9,118.4 L236.7,161.4 L237.6,154.7 L238.4,172.8 L239.3,182.9 L240.1,192.5 L241.0,195.4 L241.8,192.2 L242.6,197.2 L243.5,193.8 L244.3,201.1 L245.2,192.5 L246.0,195.6 L246.9,157.0 L247.7,183.7 L248.5,166.6 L249.4,198.5 L250.2,211.9 L251.1,215.6 L251.9,226.2 L252.8,218.9 L253.6,206.8 L254.4,217.9 L255.3,216.3 L256.1,193.3 L257.0,172.8 L257.8,171.8 L258.7,168.7 L259.5,170.7 L260.3,161.7 L261.2,193.0 L262.0,211.9 L262.9,206.2 L263.7,208.3 L264.6,206.8 L265.4,192.0 L266.2,175.1 L267.1,151.1 L267.9,117.9 L268.8,161.9 L269.6,176.4 L270.4,195.6 L271.3,197.7 L272.1,208.3 L273.0,199.5 L273.8,190.2 L274.7,201.6 L275.5,183.4 L276.3,169.4 L277.2,185.5 L278.0,191.0 L278.9,195.9 L279.7,192.8 L280.6,193.0 L281.4,225.9 L282.2,220.0 L283.1,209.3 L283.9,231.1 L284.8,224.9 L285.6,198.5 L286.5,179.3 L287.3,178.3 L288.1,204.7 L289.0,165.6 L289.8,176.2 L290.7,167.6 L291.5,167.1 L292.4,174.6 L293.2,176.4 L294.0,196.9 L294.9,186.8 L295.7,175.1 L296.6,133.7 L297.4,143.0 L298.3,168.4 L299.1,171.5 L299.9,156.0 L300.8,175.7 L301.6,185.0 L302.5,193.8 L303.3,195.1 L304.2,180.6 L305.0,187.3 L305.8,192.2 L306.7,176.2 L307.5,163.7 L308.4,167.4 L309.2,181.1 L310.1,214.0 L310.9,217.1 L311.7,223.3 L312.6,220.5 L313.4,202.4 L314.3,228.0 L315.1,215.8 L316.0,142.2 L316.8,144.1 L317.6,140.2 L318.5,135.8 L319.3,140.2 L320.2,145.4 L321.0,146.1 L321.9,148.5 L322.7,146.1 L323.5,132.7 L324.4,127.5 L325.2,112.2 L326.1,92.5 L326.9,76.7 L327.8,76.4 L328.6,116.3 L329.4,105.7 L330.3,70.5 L331.1,91.7 L332.0,106.2 L332.8,88.6 L333.7,97.9 L334.5,109.3 L335.3,83.9 L336.2,79.3 L337.0,91.2 L337.9,89.1 L338.7,86.8 L339.6,83.9 L340.4,85.8 L341.2,83.4 L342.1,90.2 L342.9,100.0 L343.8,92.0 L344.6,95.3 L345.4,106.7 L346.3,113.7 L347.1,99.2 L348.0,96.4 L348.8,91.7 L349.7,112.2 L350.5,135.8 L351.3,93.0 L352.2,110.1 L353.0,116.3 L353.9,100.8 L354.7,113.0 L355.6,108.6 L356.4,106.5 L357.2,95.1 L358.1,82.6 L358.9,86.0 L359.8,85.0 L360.6,80.8 L361.5,91.7 L362.3,106.2 L363.1,123.8 L364.0,101.6 L364.8,102.9 L365.7,97.4 L366.5,117.9 L367.4,128.8 L368.2,144.1 L369.0,156.0 L369.9,145.4 L370.7,159.9 L371.6,172.3 L372.4,202.4 L373.3,191.2 L374.1,190.2 L374.9,198.7 L375.8,172.0 L376.6,168.4 L377.5,190.4 L378.3,184.5 L379.2,199.2 L380.0,183.7 L380.8,175.7 L381.7,168.7 L382.5,165.3 L383.4,196.4 L384.2,168.9 L385.1,159.9 L385.9,125.7 L386.7,129.0 L387.6,132.9 L388.4,152.9 L389.3,161.9 L390.1,160.4 L391.0,184.0 L391.8,152.3 L392.6,160.4 L393.5,141.7 L394.3,139.9 L395.2,125.9 L396.0,123.8 L396.9,130.6 L397.7,148.2 L398.5,156.0 L399.4,162.7 L400.2,165.3 L401.1,177.5 L401.9,179.6 L402.8,184.0 L403.6,230.6 L404.4,227.2 L405.3,231.6 L406.1,231.9 L407.0,230.6 L407.8,204.9 L408.7,205.5 L409.5,200.5 L410.3,206.2 L411.2,201.3 L412.0,197.7 L412.9,195.1 L413.7,194.1 L414.6,184.0 L415.4,202.1 L416.2,197.2 L417.1,200.5 L417.9,197.9 L418.8,188.4 L419.6,196.1 L420.4,201.3 L421.3,189.7 L422.1,171.8 L423.0,177.7 L423.8,164.5 L424.7,154.4 L425.5,157.0 L426.3,156.5 L427.2,156.5 L428.0,156.5 L428.9,164.3 L429.7,159.3 L430.6,151.8 L431.4,137.6 L432.2,141.5 L433.1,152.3 L433.9,139.4 L434.8,145.4 L435.6,175.7 L436.5,185.0 L437.3,196.9 L438.1,206.8 L439.0,202.9 L439.8,206.5 L440.7,195.4 L441.5,203.1 L442.4,204.4 L443.2,201.1 L444.0,203.1 L444.9,197.7 L445.7,203.4 L446.6,205.5 L447.4,210.6 L448.3,222.0 L449.1,233.4 L449.9,229.8 L450.8,213.0 L451.6,205.7 L452.5,202.4 L453.3,179.0 L454.2,166.6 L455.0,170.2 L455.8,142.8 L456.7,142.5 L457.5,140.4 L458.4,143.5 L459.2,139.4 L460.1,139.4 L460.9,142.5 L461.7,140.9 L462.6,143.3 L463.4,139.9 L464.3,135.0 L465.1,139.9 L466.0,137.6 L466.8,134.7 L467.6,133.9 L468.5,130.6 L469.3,144.3 L470.2,137.3 L471.0,153.6 L471.9,152.3 L472.7,143.3 L473.5,141.5 L474.4,150.0 L475.2,156.5 L476.1,154.4 L476.9,160.6 L477.8,130.1 L478.6,134.5 L479.4,134.2 L480.3,134.2 L481.1,141.7 L482.0,140.7 L482.8,136.8 L483.7,143.3 L484.5,139.6 L485.3,131.6 L486.2,131.1 L487.0,131.9 L487.9,126.7 L488.7,130.3 L489.6,146.9 L490.4,137.3 L491.2,132.9 L492.1,116.8 L492.9,107.3 L493.8,114.0 L494.6,125.7 L495.4,116.6 L496.3,116.3 L497.1,132.7 L498.0,130.1 L498.8,137.6 L499.7,139.6 L500.5,157.5 L501.3,146.4 L502.2,140.9 L503.0,155.5 L503.9,143.0 L504.7,140.2 L505.6,143.5 L506.4,127.7 L507.2,145.6 L508.1,138.6 L508.9,130.6 L509.8,128.8 L510.6,139.4 L511.5,139.6 L512.3,136.0 L513.1,113.0 L514.0,93.3 L514.8,103.4 L515.7,100.5 L516.5,108.3 L517.4,116.3 L518.2,118.7 L519.0,128.2 L519.9,117.4 L520.7,114.8 L521.6,106.5 L522.4,104.7 L523.3,106.0 L524.1,103.9 L524.9,74.9 L525.8,78.2 L526.6,81.4 L527.5,70.7 L528.3,77.7 L529.2,67.6 L530.0,72.0 L530.8,112.7 L531.7,105.7 L532.5,94.8 L533.4,92.0 L534.2,93.5 L535.1,116.3 L535.9,105.2 L536.7,117.6 L537.6,114.5 L538.4,67.9 L539.3,83.7 L540.1,75.4 L541.0,82.9 L541.8,86.8 L542.6,89.1 L543.5,70.2 L544.3,90.7 L545.2,101.3 L546.0,105.2 L546.9,128.0 L547.7,97.9 L548.5,99.7 L549.4,88.3 L550.2,98.5 L551.1,111.1 L551.9,121.5 L552.8,122.5 L553.6,114.5 L554.4,92.8 L555.3,96.1 L556.1,96.9 L557.0,107.8 L557.8,110.6 L558.7,80.3 L559.5,114.8 L560.3,112.4 L561.2,116.6 L562.0,110.4 L562.9,124.6 L563.7,117.9 L564.6,143.0 L565.4,153.9 L566.2,170.0 L567.1,165.8 L567.9,164.3 L568.8,162.2 L569.6,161.9 L570.4,123.1 L571.3,123.3 L572.1,176.7 L573.0,170.5 L573.8,162.5 L574.7,162.5 L575.5,174.9 L576.3,159.3 L577.2,168.4 L578.0,149.5 L578.9,107.3 L579.7,160.1 L580.6,152.6 L581.4,140.9 L582.2,146.1 L583.1,147.2 L583.9,120.7 L584.8,120.7 L585.6,149.0 L586.5,143.8 L587.3,129.8 L588.1,137.6 L589.0,136.5 L589.8,132.4 L590.7,128.8 L591.5,159.6 L592.4,172.8 L593.2,160.6 L594.0,171.0 L594.9,192.2 L595.7,199.2 L596.6,211.9 L597.4,191.0 L598.3,160.4 L599.1,157.8 L599.9,155.7 L600.8,146.6 L601.6,133.7 L602.5,116.3 L603.3,118.9 L604.2,124.1 L605.0,134.7 L605.8,186.0 L606.7,190.4 L607.5,191.2 L608.4,186.5 L609.2,164.3 L610.1,146.1 L610.9,130.3 L611.7,120.5 L612.6,135.8 L613.4,138.6 L614.3,134.7 L615.1,144.6 L616.0,146.6 L616.8,144.8 L617.6,137.8 L618.5,148.5 L619.3,110.4 L620.2,88.6 L621.0,82.6 L621.9,97.9 L622.7,109.6 L623.5,118.1 L624.4,121.0 L625.2,119.4 L626.1,112.2 L626.9,136.8 L627.8,151.6 L628.6,140.9 L629.4,131.4 L630.3,128.5 L631.1,116.8 L632.0,170.0 L632.8,155.7 L633.7,151.6 L634.5,147.7 L635.3,158.6 L636.2,187.8 L637.0,190.4 L637.9,195.6 L638.7,208.1 L639.6,168.4 L640.4,174.1 L641.2,179.6 L642.1,177.7 L642.9,174.4 L643.8,161.2 L644.6,151.3 L645.4,145.9 L646.3,122.8 L647.1,99.2 L648.0,82.4 L648.8,94.6 L649.7,87.1 L650.5,86.5 L651.3,91.7 L652.2,128.2 L653.0,103.6 L653.9,84.5 L654.7,98.7 L655.6,121.3 L656.4,136.8 L657.2,137.1 L658.1,147.2 L658.9,114.0 L659.8,87.8 L660.6,80.6 L661.5,102.9 L662.3,91.7 L663.1,86.0 L664.0,99.0 L664.8,131.6 L665.7,130.6 L666.5,138.6 L667.4,136.0 L668.2,165.3 L669.0,162.7 L669.9,149.2 L670.7,89.6 L671.6,90.2 L672.4,131.4 L673.3,139.6 L674.1,135.8 L674.9,142.5 L675.8,147.7 L676.6,171.0 L677.5,166.3 L678.3,149.0 L679.2,174.9 L680.0,181.1" stroke="#8c564b" stroke-width="2" fill="none" opacity="0.8"/>
<!-- Forecast Difference -->
<path d="M80.0,420.0 L80.8,420.0 L81.7,420.0 L82.5,420.0 L83.4,420.0 L84.2,420.0 L85.1,420.0 L85.9,420.0 L86.7,420.0 L87.6,420.0 L88.4,420.0 L89.3,420.0 L90.1,420.0 L91.0,420.0 L91.8,420.0 L92.6,420.0 L93.5,420.0 L94.3,420.0 L95.2,420.0 L96.0,420.0 L96.9,420.0 L97.7,420.0 L98.5,420.0 L99.4,420.0 L100.2,420.0 L101.1,420.0 L101.9,420.0 L102.8,420.0 L103.6,420.0 L104.4,420.0 L105.3,420.0 L106.1,420.0 L107.0,420.0 L107.8,420.0 L108.7,420.0 L109.5,420.0 L110.3,420.0 L111.2,420.0 L112.0,420.0 L112.9,420.0 L113.7,420.0 L114.6,420.0 L115.4,420.0 L116.2,420.0 L117.1,420.0 L117.9,420.0 L118.8,420.0 L119.6,420.0 L120.4,420.0 L121.3,420.0 L122.1,420.0 L123.0,420.0 L123.8,420.0 L124.7,420.0 L125.5,420.0 L126.3,420.0 L127.2,420.0 L128.0,420.0 L128.9,420.0 L129.7,420.0 L130.6,420.0 L131.4,420.0 L132.2,420.0 L133.1,420.0 L133.9,420.0 L134.8,420.0 L135.6,420.0 L136.5,420.0 L137.3,420.0 L138.1,420.0 L139.0,420.0 L139.8,420.0 L140.7,420.0 L141.5,420.0 L142.4,420.0 L143.2,420.0 L144.0,420.0 L144.9,420.0 L145.7,420.0 L146.6,420.0 L147.4,420.0 L148.3,420.0 L149.1,420.0 L149.9,420.0 L150.8,420.0 L151.6,420.0 L152.5,420.0 L153.3,420.0 L154.2,420.0 L155.0,420.0 L155.8,420.0 L156.7,420.0 L157.5,420.0 L158.4,420.0 L159.2,420.0 L160.1,420.0 L160.9,420.0 L161.7,420.0 L162.6,420.0 L163.4,420.0 L164.3,420.0 L165.1,420.0 L166.0,420.0 L166.8,420.0 L167.6,420.0 L168.5,420.0 L169.3,420.0 L170.2,420.0 L171.0,420.0 L171.9,420.0 L172.7,420.0 L173.5,420.0 L174.4,420.0 L175.2,420.0 L176.1,420.0 L176.9,420.0 L177.8,420.0 L178.6,420.0 L179.4,420.0 L180.3,420.0 L181.1,420.0 L182.0,420.0 L182.8,420.0 L183.7,420.0 L184.5,420.0 L185.3,420.0 L186.2,420.0 L187.0,420.0 L187.9,420.0 L188.7,420.0 L189.6,420.0 L190.4,420.0 L191.2,420.0 L192.1,420.0 L192.9,420.0 L193.8,420.0 L194.6,420.0 L195.4,420.0 L196.3,420.0 L197.1,420.0 L198.0,420.0 L198.8,420.0 L199.7,420.0 L200.5,420.0 L201.3,420.0 L202.2,420.0 L203.0,420.0 L203.9,420.0 L204.7,420.0 L205.6,420.0 L206.4,420.0 L207.2,420.0 L208.1,420.0 L208.9,420.0 L209.8,420.0 L210.6,420.0 L211.5,420.0 L212.3,420.0 L213.1,420.0 L214.0,420.0 L214.8,420.0 L215.7,420.0 L216.5,420.0 L217.4,420.0 L218.2,420.0 L219.0,420.0 L219.9,420.0 L220.7,420.0 L221.6,420.0 L222.4,420.0 L223.3,420.0 L224.1,420.0 L224.9,420.0 L225.8,420.0 L226.6,420.0 L227.5,420.0 L228.3,420.0 L229.2,420.0 L230.0,420.0 L230.8,420.0 L231.7,420.0 L232.5,420.0 L233.4,420.0 L234.2,420.0 L235.1,420.0 L235.9,420.0 L236.7,420.0 L237.6,420.0 L238.4,420.0 L239.3,420.0 L240.1,420.0 L241.0,420.0 L241.8,420.0 L242.6,420.0 L243.5,420.0 L244.3,420.0 L245.2,420.0 L246.0,420.0 L246.9,420.0 L247.7,420.0 L248.5,420.0 L249.4,420.0 L250.2,420.0 L251.1,420.0 L251.9,420.0 L252.8,420.0 L253.6,420.0 L254.4,420.0 L255.3,420.0 L256.1,420.0 L257.0,420.0 L257.8,420.0 L258.7,420.0 L259.5,420.0 L260.3,420.0 L261.2,420.0 L262.0,420.0 L262.9,420.0 L263.7,420.0 L264.6,420.0 L265.4,420.0 L266.2,420.0 L267.1,420.0 L267.9,420.0 L268.8,420.0 L269.6,420.0 L270.4,420.0 L271.3,420.0 L272.1,420.0 L273.0,420.0 L273.8,420.0 L274.7,420.0 L275.5,420.0 L276.3,420.0 L277.2,420.0 L278.0,420.0 L278.9,420.0 L279.7,420.0 L280.6,420.0 L281.4,420.0 L282.2,420.0 L283.1,420.0 L283.9,420.0 L284.8,420.0 L285.6,420.0 L286.5,420.0 L287.3,420.0 L288.1,420.0 L289.0,420.0 L289.8,420.0 L290.7,420.0 L291.5,420.0 L292.4,420.0 L293.2,420.0 L294.0,420.0 L294.9,420.0 L295.7,420.0 L296.6,420.0 L297.4,420.0 L298.3,420.0 L299.1,420.0 L299.9,420.0 L300.8,420.0 L301.6,420.0 L302.5,420.0 L303.3,420.0 L304.2,420.0 L305.0,420.0 L305.8,420.0 L306.7,420.0 L307.5,420.0 L308.4,420.0 L309.2,420.0 L310.1,420.0 L310.9,420.0 L311.7,420.0 L312.6,420.0 L313.4,420.0 L314.3,420.0 L315.1,420.0 L316.0,420.0 L316.8,420.0 L317.6,420.0 L318.5,420.0 L319.3,420.0 L320.2,420.0 L321.0,420.0 L321.9,420.0 L322.7,420.0 L323.5,420.0 L324.4,420.0 L325.2,420.0 L326.1,420.0 L326.9,420.0 L327.8,420.0 L328.6,420.0 L329.4,420.0 L330.3,420.0 L331.1,420.0 L332.0,420.0 L332.8,420.0 L333.7,420.0 L334.5,420.0 L335.3,420.0 L336.2,420.0 L337.0,420.0 L337.9,420.0 L338.7,420.0 L339.6,420.0 L340.4,420.0 L341.2,420.0 L342.1,420.0 L342.9,420.0 L343.8,420.0 L344.6,420.0 L345.4,420.0 L346.3,420.0 L347.1,420.0 L348.0,420.0 L348.8,420.0 L349.7,420.0 L350.5,420.0 L351.3,420.0 L352.2,420.0 L353.0,420.0 L353.9,420.0 L354.7,420.0 L355.6,420.0 L356.4,420.0 L357.2,420.0 L358.1,420.0 L358.9,420.0 L359.8,420.0 L360.6,420.0 L361.5,420.0 L362.3,420.0 L363.1,420.0 L364.0,420.0 L364.8,420.0 L365.7,420.0 L366.5,420.0 L367.4,420.0 L368.2,420.0 L369.0,420.0 L369.9,420.0 L370.7,420.0 L371.6,420.0 L372.4,420.0 L373.3,420.0 L374.1,420.0 L374.9,420.0 L375.8,420.0 L376.6,420.0 L377.5,420.0 L378.3,420.0 L379.2,420.0 L380.0,420.0 L380.8,420.0 L381.7,420.0 L382.5,420.0 L383.4,420.0 L384.2,420.0 L385.1,420.0 L385.9,420.0 L386.7,420.0 L387.6,420.0 L388.4,420.0 L389.3,420.0 L390.1,420.0 L391.0,420.0 L391.8,420.0 L392.6,420.0 L393.5,420.0 L394.3,420.0 L395.2,420.0 L396.0,420.0 L396.9,420.0 L397.7,420.0 L398.5,420.0 L399.4,420.0 L400.2,420.0 L401.1,420.0 L401.9,420.0 L402.8,420.0 L403.6,420.0 L404.4,420.0 L405.3,420.0 L406.1,420.0 L407.0,420.0 L407.8,420.0 L408.7,420.0 L409.5,420.0 L410.3,420.0 L411.2,420.0 L412.0,420.0 L412.9,420.0 L413.7,420.0 L414.6,420.0 L415.4,420.0 L416.2,420.0 L417.1,420.0 L417.9,420.0 L418.8,420.0 L419.6,420.0 L420.4,420.0 L421.3,420.0 L422.1,420.0 L423.0,420.0 L423.8,420.0 L424.7,420.0 L425.5,420.0 L426.3,420.0 L427.2,420.0 L428.0,420.0 L428.9,420.0 L429.7,420.0 L430.6,420.0 L431.4,420.0 L432.2,420.0 L433.1,420.0 L433.9,420.0 L434.8,420.0 L435.6,420.0 L436.5,420.0 L437.3,420.0 L438.1,420.0 L439.0,420.0 L439.8,420.0 L440.7,420.0 L441.5,420.0 L442.4,420.0 L443.2,420.0 L444.0,420.0 L444.9,420.0 L445.7,420.0 L446.6,420.0 L447.4,420.0 L448.3,420.0 L449.1,420.0 L449.9,420.0 L450.8,420.0 L451.6,420.0 L452.5,420.0 L453.3,420.0 L454.2,420.0 L455.0,420.0 L455.8,420.0 L456.7,420.0 L457.5,420.0 L458.4,420.0 L459.2,420.0 L460.1,420.0 L460.9,420.0 L461.7,420.0 L462.6,420.0 L463.4,420.0 L464.3,420.0 L465.1,420.0 L466.0,420.0 L466.8,420.0 L467.6,420.0 L468.5,420.0 L469.3,420.0 L470.2,420.0 L471.0,420.0 L471.9,420.0 L472.7,420.0 L473.5,420.0 L474.4,420.0 L475.2,420.0 L476.1,420.0 L476.9,420.0 L477.8,420.0 L478.6,420.0 L479.4,420.0 L480.3,420.0 L481.1,420.0 L482.0,420.0 L482.8,420.0 L483.7,420.0 L484.5,420.0 L485.3,420.0 L486.2,420.0 L487.0,420.0 L487.9,420.0 L488.7,420.0 L489.6,420.0 L490.4,420.0 L491.2,420.0 L492.1,420.0 L492.9,420.0 L493.8,420.0 L494.6,420.0 L495.4,420.0 L496.3,420.0 L497.1,420.0 L498.0,420.0 L498.8,420.0 L499.7,420.0 L500.5,420.0 L501.3,420.0 L502.2,420.0 L503.0,420.0 L503.9,420.0 L504.7,420.0 L505.6,420.0 L506.4,420.0 L507.2,420.0 L508.1,420.0 L508.9,420.0 L509.8,420.0 L510.6,420.0 L511.5,420.0 L512.3,420.0 L513.1,420.0 L514.0,420.0 L514.8,420.0 L515.7,420.0 L516.5,420.0 L517.4,420.0 L518.2,420.0 L519.0,420.0 L519.9,420.0 L520.7,420.0 L521.6,420.0 L522.4,420.0 L523.3,420.0 L524.1,420.0 L524.9,420.0 L525.8,420.0 L526.6,420.0 L527.5,420.0 L528.3,420.0 L529.2,420.0 L530.0,420.0 L530.8,420.0 L531.7,420.0 L532.5,420.0 L533.4,420.0 L534.2,420.0 L535.1,420.0 L535.9,420.0 L536.7,420.0 L537.6,420.0 L538.4,420.0 L539.3,420.0 L540.1,420.0 L541.0,420.0 L541.8,420.0 L542.6,420.0 L543.5,420.0 L544.3,420.0 L545.2,420.0 L546.0,420.0 L546.9,420.0 L547.7,420.0 L548.5,420.0 L549.4,420.0 L550.2,420.0 L551.1,420.0 L551.9,420.0 L552.8,420.0 L553.6,420.0 L554.4,420.0 L555.3,420.0 L556.1,420.0 L557.0,420.0 L557.8,420.0 L558.7,420.0 L559.5,420.0 L560.3,420.0 L561.2,420.0 L562.0,420.0 L562.9,420.0 L563.7,420.0 L564.6,420.0 L565.4,420.0 L566.2,420.0 L567.1,420.0 L567.9,420.0 L568.8,420.0 L569.6,420.0 L570.4,420.0 L571.3,420.0 L572.1,420.0 L573.0,420.0 L573.8,420.0 L574.7,420.0 L575.5,420.0 L576.3,420.0 L577.2,420.0 L578.0,420.0 L578.9,420.0 L579.7,420.0 L580.6,420.0 L581.4,420.0 L582.2,420.0 L583.1,420.0 L583.9,420.0 L584.8,420.0 L585.6,420.0 L586.5,420.0 L587.3,420.0 L588.1,420.0 L589.0,420.0 L589.8,420.0 L590.7,420.0 L591.5,420.0 L592.4,420.0 L593.2,420.0 L594.0,420.0 L594.9,420.0 L595.7,420.0 L596.6,420.0 L597.4,420.0 L598.3,420.0 L599.1,420.0 L599.9,420.0 L600.8,420.0 L601.6,420.0 L602.5,420.0 L603.3,420.0 L604.2,420.0 L605.0,420.0 L605.8,420.0 L606.7,420.0 L607.5,420.0 L608.4,420.0 L609.2,420.0 L610.1,420.0 L610.9,420.0 L611.7,420.0 L612.6,420.0 L613.4,420.0 L614.3,420.0 L615.1,420.0 L616.0,420.0 L616.8,420.0 L617.6,420.0 L618.5,420.0 L619.3,420.0 L620.2,420.0 L621.0,420.0 L621.9,420.0 L622.7,420.0 L623.5,420.0 L624.4,420.0 L625.2,420.0 L626.1,420.0 L626.9,420.0 L627.8,420.0 L628.6,420.0 L629.4,420.0 L630.3,420.0 L631.1,420.0 L632.0,420.0 L632.8,420.0 L633.7,420.0 L634.5,420.0 L635.3,420.0 L636.2,420.0 L637.0,420.0 L637.9,420.0 L638.7,420.0 L639.6,420.0 L640.4,420.0 L641.2,420.0 L642.1,420.0 L642.9,420.0 L643.8,420.0 L644.6,420.0 L645.4,420.0 L646.3,420.0 L647.1,420.0 L648.0,420.0 L648.8,420.0 L649.7,420.0 L650.5,420.0 L651.3,420.0 L652.2,420.0 L653.0,420.0 L653.9,420.0 L654.7,420.0 L655.6,420.0 L656.4,420.0 L657.2,420.0 L658.1,420.0 L658.9,420.0 L659.8,420.0 L660.6,420.0 L661.5,420.0 L662.3,420.0 L663.1,420.0 L664.0,420.0 L664.8,420.0 L665.7,420.0 L666.5,420.0 L667.4,420.0 L668.2,420.0 L669.0,420.0 L669.9,420.0 L670.7,420.0 L671.6,420.0 L672.4,420.0 L673.3,420.0 L674.1,420.0 L674.9,420.0 L675.8,420.0 L676.6,420.0 L677.5,420.0 L678.3,420.0 L679.2,420.0 L680.0,420.0" stroke="#e377c2" stroke-width="2" fill="none" opacity="0.8"/>

<!-- Legend -->
<line x1="690" y1="70" x2="705" y2="70" stroke="#1f77b4" stroke-width="3"/>
<text x="710" y="74" class="legend">Wind Generation</text>
<line x1="690" y1="88" x2="705" y2="88" stroke="#ff7f0e" stroke-width="3"/>
<text x="710" y="92" class="legend">Hydro Generation</text>
<line x1="690" y1="106" x2="705" y2="106" stroke="#2ca02c" stroke-width="3"/>
<text x="710" y="110" class="legend">Thermal Generation</text>
<line x1="690" y1="124" x2="705" y2="124" stroke="#d62728" stroke-width="3"/>
<text x="710" y="128" class="legend">Solar Generation</text>
<line x1="690" y1="142" x2="705" y2="142" stroke="#9467bd" stroke-width="3"/>
<text x="710" y="146" class="legend">Forecast</text>
<line x1="690" y1="160" x2="705" y2="160" stroke="#8c564b" stroke-width="3"/>
<text x="710" y="164" class="legend">Total Generation</text>
<line x1="690" y1="178" x2="705" y2="178" stroke="#e377c2" stroke-width="3"/>
<text x="710" y="182" class="legend">Forecast Difference</text>

<!-- Date range -->
<text x="80" y="495" class="legend">Range: 01/07 - 02/05/2026 (713 records)</text>
</svg>