<?xml version="1.0" encoding="UTF-8"?>
<svg width="800" height="500" xmlns="http://www.w3.org/2000/svg">
<style>
.axis-line { stroke: #333; stroke-width: 1; }
.grid-line { stroke: #ddd; stroke-width: 0.5; }
.title { font: 16px Arial; text-anchor: middle; fill: #333; }
.axis-label { font: 12px Arial; text-anchor: middle; fill: #666; }
.legend { font: 10px Arial; fill: #333; }
</style>

<!-- Title -->
<text x="400.0" y="25" class="title">Northwestern Energy Generation Data - Past 30 Days</text>

<!-- Plot area background -->
<rect x="80" y="50" width="600" height="370" fill="white" stroke="#ddd"/>

<!-- Y-axis -->
<line x1="80" y1="50" x2="80" y2="420" class="axis-line"/>
<text x="30" y="235.0" class="axis-label" transform="rotate(-90, 30, 235.0)">Generation (MW)</text>

<!-- X-axis -->
<line x1="80" y1="420" x2="680" y2="420" class="axis-line"/>
<text x="380.0" y="480" class="axis-label">Time</text>
<line x1="80" y1="420.0" x2="680" y2="420.0" class="grid-line"/>
<text x="70" y="425.0" class="legend" text-anchor="end">0</text>
<line x1="80" y1="327.5" x2="680" y2="327.5" class="grid-line"/>
<text x="70" y="332.5" class="legend" text-anchor="end">277</text>
<line x1="80" y1="235.0" x2="680" y2="235.0" class="grid-line"/>
<text x="70" y="240.0" class="legend" text-anchor="end">554</text>
<line x1="80" y1="142.5" x2="680" y2="142.5" class="grid-line"/>
<text x="70" y="147.5" class="legend" text-anchor="end">831</text>
<line x1="80" y1="50.0" x2="680" y2="50.0" class="grid-line"/>
<text x="70" y="55.0" class="legend" text-anchor="end">1108</text>
<!-- Wind Generation -->
<path d="M80.0,335.8 L80.8,321.8 L81.7,336.8 L82.5,370.2 L83.4,389.3 L84.2,403.6 L85.0,412.7 L85.9,418.0 L86.7,418.7 L87.6,416.0 L88.4,407.6 L89.3,410.3 L90.1,411.6 L90.9,415.3 L91.8,401.0 L92.6,410.6 L93.5,403.3 L94.3,406.0 L95.1,403.3 L96.0,406.0 L96.8,401.3 L97.7,398.3 L98.5,408.0 L99.4,400.3 L100.2,412.3 L101.0,419.7 L101.9,420.0 L102.7,416.0 L103.6,410.3 L104.4,415.0 L105.2,400.6 L106.1,395.3 L106.9,403.0 L107.8,402.6 L108.6,409.0 L109.5,416.7 L110.3,416.0 L111.1,416.7 L112.0,414.0 L112.8,411.0 L113.7,392.9 L114.5,411.3 L115.3,405.0 L116.2,381.6 L117.0,381.6 L117.9,370.6 L118.7,379.3 L119.6,389.3 L120.4,380.9 L121.2,378.9 L122.1,380.3 L122.9,350.9 L123.8,344.8 L124.6,360.5 L125.4,357.5 L126.3,355.5 L127.1,383.3 L128.0,378.6 L128.8,387.6 L129.6,379.9 L130.5,393.9 L131.3,405.3 L132.2,401.6 L133.0,382.3 L133.9,380.3 L134.7,363.2 L135.5,367.6 L136.4,377.9 L137.2,377.2 L138.1,382.9 L138.9,380.6 L139.7,382.9 L140.6,386.6 L141.4,391.6 L142.3,407.0 L143.1,410.3 L144.0,403.3 L144.8,392.9 L145.6,394.3 L146.5,394.3 L147.3,370.6 L148.2,357.2 L149.0,350.9 L149.8,349.9 L150.7,351.9 L151.5,359.9 L152.4,358.2 L153.2,344.5 L154.1,334.5 L154.9,323.8 L155.7,331.2 L156.6,341.2 L157.4,355.2 L158.3,360.5 L159.1,364.6 L159.9,369.6 L160.8,365.9 L161.6,371.9 L162.5,381.6 L163.3,394.6 L164.2,400.6 L165.0,412.3 L165.8,417.3 L166.7,418.7 L167.5,418.7 L168.4,416.7 L169.2,413.3 L170.0,411.0 L170.9,408.6 L171.7,406.3 L172.6,404.3 L173.4,403.6 L174.2,394.9 L175.1,383.9 L175.9,374.2 L176.8,389.3 L177.6,382.6 L178.5,380.3 L179.3,355.2 L180.1,332.8 L181.0,341.2 L181.8,350.5 L182.7,355.2 L183.5,347.2 L184.3,342.5 L185.2,381.9 L186.0,397.6 L186.9,407.6 L187.7,417.0 L188.6,413.7 L189.4,414.0 L190.2,412.3 L191.1,405.6 L191.9,402.0 L192.8,401.6 L193.6,394.9 L194.4,390.3 L195.3,390.3 L196.1,388.3 L197.0,397.0 L197.8,395.3 L198.7,401.0 L199.5,404.6 L200.3,409.3 L201.2,407.0 L202.0,407.0 L202.9,404.0 L203.7,404.6 L204.5,397.0 L205.4,386.3 L206.2,381.6 L207.1,391.3 L207.9,394.3 L208.8,392.6 L209.6,395.3 L210.4,393.6 L211.3,388.9 L212.1,394.3 L213.0,399.0 L213.8,387.9 L214.6,393.6 L215.5,372.9 L216.3,366.9 L217.2,363.2 L218.0,368.2 L218.8,355.2 L219.7,356.2 L220.5,367.2 L221.4,383.9 L222.2,394.6 L223.1,408.0 L223.9,411.3 L224.7,413.7 L225.6,415.3 L226.4,411.6 L227.3,400.3 L228.1,396.3 L228.9,398.6 L229.8,397.3 L230.6,395.6 L231.5,384.9 L232.3,388.6 L233.2,390.6 L234.0,385.6 L234.8,396.3 L235.7,395.3 L236.5,368.2 L237.4,377.9 L238.2,400.0 L239.0,409.6 L239.9,411.6 L240.7,407.0 L241.6,402.6 L242.4,386.6 L243.3,379.9 L244.1,380.9 L244.9,372.9 L245.8,364.9 L246.6,356.2 L247.5,364.6 L248.3,369.6 L249.1,388.6 L250.0,405.3 L250.8,411.6 L251.7,418.0 L252.5,420.0 L253.4,420.0 L254.2,420.0 L255.0,413.3 L255.9,409.3 L256.7,418.7 L257.6,419.0 L258.4,411.3 L259.2,392.9 L260.1,407.3 L260.9,402.6 L261.8,409.3 L262.6,409.3 L263.5,387.9 L264.3,385.3 L265.1,369.6 L266.0,387.6 L266.8,389.9 L267.7,401.3 L268.5,387.9 L269.3,393.6 L270.2,392.9 L271.0,398.0 L271.9,402.3 L272.7,400.3 L273.5,401.6 L274.4,400.0 L275.2,370.9 L276.1,374.6 L276.9,394.3 L277.8,401.6 L278.6,394.9 L279.4,386.3 L280.3,368.9 L281.1,387.6 L282.0,403.3 L282.8,384.6 L283.6,377.9 L284.5,373.6 L285.3,376.6 L286.2,388.6 L287.0,325.8 L287.9,305.8 L288.7,306.8 L289.5,324.8 L290.4,339.2 L291.2,329.5 L292.1,318.5 L292.9,327.5 L293.7,320.1 L294.6,298.8 L295.4,281.4 L296.3,284.7 L297.1,287.4 L298.0,307.8 L298.8,309.4 L299.6,306.8 L300.5,314.1 L301.3,317.1 L302.2,330.5 L303.0,342.2 L303.8,356.2 L304.7,354.9 L305.5,353.2 L306.4,358.9 L307.2,368.2 L308.1,370.6 L308.9,377.9 L309.7,370.6 L310.6,373.2 L311.4,382.3 L312.3,382.9 L313.1,389.3 L313.9,399.6 L314.8,400.3 L315.6,401.0 L316.5,396.0 L317.3,393.3 L318.1,389.9 L319.0,393.9 L319.8,400.3 L320.7,406.6 L321.5,409.0 L322.4,410.0 L323.2,412.7 L324.0,413.3 L324.9,413.7 L325.7,413.0 L326.6,415.0 L327.4,415.7 L328.2,416.3 L329.1,417.3 L329.9,416.7 L330.8,418.0 L331.6,418.7 L332.5,420.0 L333.3,420.0 L334.1,420.0 L335.0,420.0 L335.8,420.0 L336.7,420.0 L337.5,420.0 L338.3,420.0 L339.2,420.0 L340.0,420.0 L340.9,420.0 L341.7,420.0 L342.6,420.0 L343.4,420.0 L344.2,420.0 L345.1,420.0 L345.9,420.0 L346.8,420.0 L347.6,420.0 L348.4,420.0 L349.3,419.7 L350.1,416.0 L351.0,417.3 L351.8,418.7 L352.7,420.0 L353.5,418.3 L354.3,420.0 L355.2,418.7 L356.0,418.0 L356.9,420.0 L357.7,420.0 L358.5,416.0 L359.4,420.0 L360.2,420.0 L361.1,420.0 L361.9,420.0 L362.7,420.0 L363.6,420.0 L364.4,419.7 L365.3,416.3 L366.1,417.7 L367.0,418.7 L367.8,419.7 L368.6,419.3 L369.5,411.6 L370.3,403.0 L371.2,410.6 L372.0,402.3 L372.8,387.6 L373.7,399.0 L374.5,370.9 L375.4,348.2 L376.2,341.8 L377.1,332.5 L377.9,324.8 L378.7,349.9 L379.6,355.9 L380.4,365.2 L381.3,360.5 L382.1,357.9 L382.9,354.5 L383.8,364.9 L384.6,353.9 L385.5,335.2 L386.3,323.1 L387.2,322.5 L388.0,308.4 L388.8,317.8 L389.7,297.8 L390.5,287.1 L391.4,284.1 L392.2,283.4 L393.0,288.1 L393.9,291.7 L394.7,291.7 L395.6,281.7 L396.4,285.4 L397.3,291.1 L398.1,283.4 L398.9,282.4 L399.8,281.1 L400.6,278.0 L401.5,278.0 L402.3,285.4 L403.1,283.7 L404.0,285.4 L404.8,281.7 L405.7,307.4 L406.5,297.4 L407.3,279.0 L408.2,303.4 L409.0,334.8 L409.9,314.5 L410.7,343.5 L411.6,337.8 L412.4,328.5 L413.2,304.4 L414.1,342.2 L414.9,344.2 L415.8,351.2 L416.6,346.9 L417.4,362.9 L418.3,362.9 L419.1,346.9 L420.0,350.5 L420.8,316.1 L421.7,313.8 L422.5,299.4 L423.3,292.7 L424.2,286.7 L425.0,284.4 L425.9,289.4 L426.7,333.8 L427.5,365.9 L428.4,377.2 L429.2,355.9 L430.1,356.5 L430.9,360.9 L431.8,355.9 L432.6,347.9 L433.4,334.2 L434.3,339.2 L435.1,362.6 L436.0,351.2 L436.8,350.9 L437.6,372.9 L438.5,375.9 L439.3,382.6 L440.2,375.9 L441.0,361.9 L441.9,362.9 L442.7,347.9 L443.5,291.7 L444.4,310.8 L445.2,302.1 L446.1,279.7 L446.9,315.8 L447.7,298.1 L448.6,292.4 L449.4,308.4 L450.3,286.4 L451.1,292.7 L451.9,288.1 L452.8,297.8 L453.6,285.4 L454.5,285.1 L455.3,285.4 L456.2,290.4 L457.0,287.7 L457.8,288.4 L458.7,298.8 L459.5,297.1 L460.4,295.7 L461.2,299.8 L462.0,314.5 L462.9,305.4 L463.7,293.1 L464.6,326.1 L465.4,335.8 L466.3,316.8 L467.1,273.0 L467.9,286.7 L468.8,284.4 L469.6,287.4 L470.5,272.7 L471.3,278.7 L472.1,276.4 L473.0,278.7 L473.8,278.7 L474.7,288.7 L475.5,286.1 L476.4,288.4 L477.2,284.7 L478.0,280.4 L478.9,287.4 L479.7,288.7 L480.6,295.4 L481.4,308.1 L482.2,293.1 L483.1,300.1 L483.9,285.4 L484.8,280.7 L485.6,282.4 L486.5,287.4 L487.3,302.4 L488.1,340.5 L489.0,354.5 L489.8,373.2 L490.7,392.9 L491.5,402.0 L492.3,409.6 L493.2,405.6 L494.0,401.3 L494.9,384.6 L495.7,383.3 L496.5,380.9 L497.4,381.9 L498.2,384.9 L499.1,386.3 L499.9,382.6 L500.8,397.3 L501.6,399.3 L502.4,397.0 L503.3,394.9 L504.1,399.3 L505.0,404.6 L505.8,403.6 L506.6,402.0 L507.5,398.3 L508.3,400.0 L509.2,396.3 L510.0,410.6 L510.9,407.6 L511.7,407.6 L512.5,400.3 L513.4,387.9 L514.2,376.2 L515.1,350.5 L515.9,327.5 L516.7,309.1 L517.6,319.5 L518.4,311.1 L519.3,285.1 L520.1,290.1 L521.0,302.1 L521.8,334.5 L522.6,348.9 L523.5,359.5 L524.3,338.5 L525.2,325.1 L526.0,325.1 L526.8,301.8 L527.7,328.1 L528.5,318.8 L529.4,351.9 L530.2,334.2 L531.1,324.1 L531.9,321.5 L532.7,349.2 L533.6,349.5 L534.4,335.8 L535.3,305.1 L536.1,305.1 L536.9,301.4 L537.8,312.1 L538.6,306.8 L539.5,297.8 L540.3,304.4 L541.2,317.8 L542.0,302.4 L542.8,316.8 L543.7,329.8 L544.5,339.5 L545.4,367.6 L546.2,387.6 L547.0,390.6 L547.9,389.3 L548.7,394.3 L549.6,392.6 L550.4,390.6 L551.2,385.3 L552.1,363.2 L552.9,363.6 L553.8,362.2 L554.6,366.2 L555.5,372.9 L556.3,374.2 L557.1,375.2 L558.0,377.2 L558.8,385.3 L559.7,388.6 L560.5,377.2 L561.3,378.9 L562.2,397.3 L563.0,409.0 L563.9,415.0 L564.7,409.3 L565.6,388.3 L566.4,403.0 L567.2,368.2 L568.1,368.9 L568.9,404.3 L569.8,407.0 L570.6,387.6 L571.4,365.6 L572.3,350.5 L573.1,353.5 L574.0,321.1 L574.8,324.5 L575.7,301.1 L576.5,290.4 L577.3,303.1 L578.2,295.4 L579.0,288.4 L579.9,298.8 L580.7,306.8 L581.5,304.4 L582.4,277.4 L583.2,272.7 L584.1,284.7 L584.9,283.7 L585.8,304.1 L586.6,310.8 L587.4,285.7 L588.3,319.1 L589.1,355.2 L590.0,379.6 L590.8,401.6 L591.6,394.6 L592.5,399.0 L593.3,400.0 L594.2,398.0 L595.0,392.6 L595.8,371.6 L596.7,353.9 L597.5,344.8 L598.4,330.5 L599.2,288.7 L600.1,315.8 L600.9,303.4 L601.7,291.4 L602.6,282.4 L603.4,283.4 L604.3,276.7 L605.1,274.0 L605.9,279.4 L606.8,275.0 L607.6,272.0 L608.5,301.4 L609.3,313.1 L610.2,311.4 L611.0,284.4 L611.8,295.7 L612.7,313.5 L613.5,338.5 L614.4,317.8 L615.2,298.1 L616.0,280.7 L616.9,286.7 L617.7,295.1 L618.6,300.1 L619.4,314.8 L620.3,344.8 L621.1,362.6 L621.9,353.5 L622.8,330.2 L623.6,347.5 L624.5,361.9 L625.3,357.9 L626.1,352.2 L627.0,369.6 L627.8,390.9 L628.7,391.9 L629.5,390.9 L630.4,403.0 L631.2,399.0 L632.0,398.0 L632.9,401.0 L633.7,397.3 L634.6,388.3 L635.4,379.9 L636.2,375.6 L637.1,375.6 L637.9,374.6 L638.8,366.2 L639.6,367.6 L640.4,349.5 L641.3,346.2 L642.1,359.2 L643.0,365.6 L643.8,341.8 L644.7,299.4 L645.5,306.4 L646.3,274.0 L647.2,272.7 L648.0,272.7 L648.9,273.0 L649.7,283.7 L650.5,280.4 L651.4,278.4 L652.2,285.1 L653.1,274.7 L653.9,283.4 L654.8,301.4 L655.6,306.4 L656.4,303.4 L657.3,316.8 L658.1,337.5 L659.0,337.8 L659.8,354.5 L660.6,361.2 L661.5,391.6 L662.3,399.0 L663.2,387.6 L664.0,392.6 L664.9,396.0 L665.7,402.0 L666.5,404.0 L667.4,396.0 L668.2,397.6 L669.1,393.9 L669.9,385.6 L670.7,381.3 L671.6,392.9 L672.4,404.0 L673.3,416.7 L674.1,417.3 L675.0,415.0 L675.8,415.0 L676.6,408.6 L677.5,409.3 L678.3,407.3 L679.2,406.6 L680.0,406.3" stroke="#1f77b4" stroke-width="2" fill="none" opacity="0.8"/>
<!-- Hydro Generation -->
<path d="M80.0,361.5 L80.8,361.2 L81.7,360.9 L82.5,361.2 L83.4,360.9 L84.2,360.5 L85.0,360.5 L85.9,360.9 L86.7,360.9 L87.6,361.2 L88.4,360.9 L89.3,360.9 L90.1,360.9 L90.9,360.9 L91.8,361.2 L92.6,360.9 L93.5,361.9 L94.3,361.2 L95.1,361.5 L96.0,361.5 L96.8,362.2 L97.7,362.9 L98.5,362.9 L99.4,362.6 L100.2,362.9 L101.0,362.6 L101.9,362.2 L102.7,362.9 L103.6,362.2 L104.4,362.6 L105.2,362.6 L106.1,362.6 L106.9,362.9 L107.8,362.6 L108.6,362.6 L109.5,362.2 L110.3,362.2 L111.1,362.2 L112.0,362.6 L112.8,362.2 L113.7,361.9 L114.5,361.9 L115.3,362.6 L116.2,361.9 L117.0,362.2 L117.9,362.6 L118.7,361.2 L119.6,361.2 L120.4,361.2 L121.2,360.9 L122.1,360.9 L122.9,360.5 L123.8,360.5 L124.6,361.2 L125.4,361.2 L126.3,361.5 L127.1,361.5 L128.0,361.5 L128.8,361.5 L129.6,361.2 L130.5,361.2 L131.3,361.2 L132.2,361.2 L133.0,361.2 L133.9,361.2 L134.7,360.9 L135.5,361.2 L136.4,361.5 L137.2,361.2 L138.1,361.2 L138.9,361.5 L139.7,361.5 L140.6,361.9 L141.4,361.9 L142.3,361.5 L143.1,361.9 L144.0,362.2 L144.8,362.6 L145.6,361.9 L146.5,362.2 L147.3,362.2 L148.2,362.2 L149.0,362.2 L149.8,362.2 L150.7,361.5 L151.5,361.9 L152.4,361.9 L153.2,361.5 L154.1,361.5 L154.9,361.5 L155.7,361.5 L156.6,360.2 L157.4,359.9 L158.3,358.9 L159.1,358.9 L159.9,359.2 L160.8,359.2 L161.6,359.2 L162.5,359.5 L163.3,360.5 L164.2,361.5 L165.0,361.5 L165.8,361.2 L166.7,360.9 L167.5,360.9 L168.4,360.9 L169.2,360.9 L170.0,361.2 L170.9,361.5 L171.7,360.9 L172.6,360.5 L173.4,360.2 L174.2,360.2 L175.1,360.2 L175.9,360.5 L176.8,359.5 L177.6,359.2 L178.5,359.2 L179.3,359.9 L180.1,359.5 L181.0,359.5 L181.8,359.2 L182.7,359.5 L183.5,359.5 L184.3,359.2 L185.2,359.9 L186.0,359.5 L186.9,360.2 L187.7,359.9 L188.6,359.9 L189.4,360.5 L190.2,360.9 L191.1,360.5 L191.9,360.5 L192.8,360.2 L193.6,360.9 L194.4,360.5 L195.3,361.2 L196.1,360.9 L197.0,361.2 L197.8,361.2 L198.7,360.5 L199.5,360.5 L200.3,360.2 L201.2,359.9 L202.0,359.9 L202.9,359.2 L203.7,359.2 L204.5,358.5 L205.4,359.2 L206.2,358.9 L207.1,358.9 L207.9,359.2 L208.8,359.5 L209.6,359.2 L210.4,359.2 L211.3,359.5 L212.1,360.2 L213.0,359.9 L213.8,360.2 L214.6,360.2 L215.5,360.2 L216.3,360.5 L217.2,360.5 L218.0,360.9 L218.8,360.9 L219.7,359.5 L220.5,359.5 L221.4,358.9 L222.2,360.9 L223.1,359.9 L223.9,360.5 L224.7,354.9 L225.6,355.2 L226.4,355.2 L227.3,355.9 L228.1,355.9 L228.9,356.9 L229.8,356.5 L230.6,356.9 L231.5,356.9 L232.3,356.2 L233.2,356.5 L234.0,356.5 L234.8,356.9 L235.7,356.2 L236.5,356.2 L237.4,356.5 L238.2,356.2 L239.0,356.9 L239.9,355.5 L240.7,355.5 L241.6,355.2 L242.4,354.2 L243.3,354.9 L244.1,354.5 L244.9,355.2 L245.8,355.2 L246.6,355.2 L247.5,355.5 L248.3,355.5 L249.1,355.5 L250.0,355.2 L250.8,355.5 L251.7,356.2 L252.5,355.9 L253.4,355.9 L254.2,354.9 L255.0,354.9 L255.9,355.2 L256.7,354.5 L257.6,354.9 L258.4,354.5 L259.2,354.9 L260.1,354.5 L260.9,354.5 L261.8,354.5 L262.6,354.5 L263.5,354.9 L264.3,354.9 L265.1,354.5 L266.0,354.9 L266.8,355.2 L267.7,355.5 L268.5,355.5 L269.3,355.2 L270.2,355.5 L271.0,355.9 L271.9,354.9 L272.7,356.2 L273.5,355.9 L274.4,356.2 L275.2,356.5 L276.1,356.5 L276.9,356.5 L277.8,356.5 L278.6,356.2 L279.4,356.5 L280.3,356.2 L281.1,356.2 L282.0,355.9 L282.8,356.5 L283.6,356.2 L284.5,355.2 L285.3,355.5 L286.2,356.2 L287.0,355.5 L287.9,355.9 L288.7,355.5 L289.5,355.5 L290.4,355.5 L291.2,355.2 L292.1,355.5 L292.9,355.5 L293.7,355.5 L294.6,355.2 L295.4,355.5 L296.3,355.2 L297.1,355.5 L298.0,355.2 L298.8,355.5 L299.6,355.2 L300.5,355.2 L301.3,355.2 L302.2,354.9 L303.0,354.9 L303.8,355.2 L304.7,355.2 L305.5,355.5 L306.4,355.2 L307.2,355.5 L308.1,355.9 L308.9,355.9 L309.7,356.2 L310.6,355.9 L311.4,355.9 L312.3,356.2 L313.1,355.5 L313.9,355.2 L314.8,354.9 L315.6,355.2 L316.5,355.2 L317.3,355.5 L318.1,355.5 L319.0,355.2 L319.8,355.9 L320.7,355.2 L321.5,355.9 L322.4,355.5 L323.2,355.9 L324.0,355.9 L324.9,355.5 L325.7,355.5 L326.6,354.9 L327.4,353.9 L328.2,354.2 L329.1,353.5 L329.9,353.9 L330.8,353.9 L331.6,352.5 L332.5,353.2 L333.3,352.5 L334.1,352.9 L335.0,352.9 L335.8,352.9 L336.7,352.2 L337.5,352.2 L338.3,352.5 L339.2,351.9 L340.0,351.9 L340.9,352.9 L341.7,352.9 L342.6,352.9 L343.4,352.2 L344.2,353.9 L345.1,355.2 L345.9,355.2 L346.8,355.5 L347.6,355.2 L348.4,355.5 L349.3,355.2 L350.1,355.2 L351.0,355.2 L351.8,355.2 L352.7,355.2 L353.5,355.2 L354.3,355.2 L355.2,355.5 L356.0,355.5 L356.9,354.9 L357.7,355.2 L358.5,355.2 L359.4,355.2 L360.2,354.9 L361.1,354.5 L361.9,353.5 L362.7,353.5 L363.6,353.9 L364.4,352.5 L365.3,352.5 L366.1,352.9 L367.0,352.9 L367.8,352.9 L368.6,352.5 L369.5,352.2 L370.3,351.9 L371.2,351.5 L372.0,351.5 L372.8,351.9 L373.7,351.5 L374.5,350.9 L375.4,350.9 L376.2,351.2 L377.1,351.5 L377.9,351.2 L378.7,351.2 L379.6,351.2 L380.4,350.5 L381.3,351.5 L382.1,350.9 L382.9,345.8 L383.8,349.2 L384.6,351.2 L385.5,351.2 L386.3,351.5 L387.2,352.2 L388.0,351.9 L388.8,351.9 L389.7,352.5 L390.5,352.2 L391.4,351.9 L392.2,350.9 L393.0,350.2 L393.9,350.5 L394.7,350.9 L395.6,350.9 L396.4,350.5 L397.3,351.2 L398.1,352.5 L398.9,352.9 L399.8,352.5 L400.6,353.9 L401.5,352.9 L402.3,352.5 L403.1,352.5 L404.0,353.2 L404.8,352.9 L405.7,353.5 L406.5,353.5 L407.3,353.5 L408.2,353.9 L409.0,353.5 L409.9,353.5 L410.7,353.9 L411.6,353.2 L412.4,352.5 L413.2,352.2 L414.1,352.2 L414.9,352.5 L415.8,352.5 L416.6,352.2 L417.4,352.5 L418.3,353.2 L419.1,353.2 L420.0,353.2 L420.8,353.2 L421.7,352.5 L422.5,352.5 L423.3,352.9 L424.2,352.9 L425.0,353.2 L425.9,352.5 L426.7,352.2 L427.5,352.5 L428.4,352.5 L429.2,352.5 L430.1,352.2 L430.9,352.2 L431.8,352.2 L432.6,352.2 L433.4,352.2 L434.3,351.9 L435.1,351.9 L436.0,351.9 L436.8,352.2 L437.6,351.9 L438.5,351.5 L439.3,352.2 L440.2,352.5 L441.0,352.5 L441.9,352.9 L442.7,352.2 L443.5,352.5 L444.4,352.9 L445.2,353.2 L446.1,352.9 L446.9,354.2 L447.7,354.5 L448.6,355.5 L449.4,355.9 L450.3,356.5 L451.1,357.5 L451.9,357.2 L452.8,357.2 L453.6,357.2 L454.5,356.9 L455.3,356.5 L456.2,356.2 L457.0,355.5 L457.8,355.9 L458.7,356.2 L459.5,355.2 L460.4,354.2 L461.2,354.2 L462.0,354.9 L462.9,354.9 L463.7,354.9 L464.6,354.9 L465.4,357.2 L466.3,353.5 L467.1,353.2 L467.9,353.9 L468.8,354.2 L469.6,353.2 L470.5,353.5 L471.3,353.5 L472.1,354.2 L473.0,354.2 L473.8,354.9 L474.7,354.2 L475.5,354.5 L476.4,354.5 L477.2,353.2 L478.0,352.2 L478.9,352.5 L479.7,362.6 L480.6,362.6 L481.4,362.9 L482.2,362.6 L483.1,362.2 L483.9,362.2 L484.8,362.6 L485.6,354.9 L486.5,352.5 L487.3,352.5 L488.1,352.9 L489.0,352.5 L489.8,352.5 L490.7,352.9 L491.5,352.5 L492.3,353.2 L493.2,352.5 L494.0,352.5 L494.9,353.2 L495.7,352.9 L496.5,353.2 L497.4,353.2 L498.2,352.9 L499.1,355.5 L499.9,355.2 L500.8,355.2 L501.6,353.9 L502.4,354.2 L503.3,353.9 L504.1,353.9 L505.0,353.9 L505.8,353.2 L506.6,354.2 L507.5,353.9 L508.3,354.2 L509.2,354.9 L510.0,355.2 L510.9,356.5 L511.7,356.9 L512.5,356.5 L513.4,356.2 L514.2,357.2 L515.1,355.5 L515.9,355.2 L516.7,355.2 L517.6,355.5 L518.4,355.2 L519.3,355.2 L520.1,355.2 L521.0,355.2 L521.8,355.2 L522.6,354.5 L523.5,354.2 L524.3,354.9 L525.2,354.9 L526.0,354.5 L526.8,354.9 L527.7,354.2 L528.5,355.5 L529.4,354.9 L530.2,354.9 L531.1,354.9 L531.9,355.2 L532.7,354.9 L533.6,355.5 L534.4,355.2 L535.3,355.9 L536.1,355.5 L536.9,355.2 L537.8,355.2 L538.6,355.9 L539.5,355.9 L540.3,356.2 L541.2,355.9 L542.0,355.9 L542.8,355.5 L543.7,355.5 L544.5,355.2 L545.4,355.9 L546.2,355.9 L547.0,355.5 L547.9,354.9 L548.7,355.2 L549.6,355.5 L550.4,355.5 L551.2,355.2 L552.1,355.2 L552.9,355.2 L553.8,355.9 L554.6,355.9 L555.5,356.2 L556.3,355.9 L557.1,356.5 L558.0,355.9 L558.8,355.9 L559.7,356.2 L560.5,355.5 L561.3,355.9 L562.2,356.2 L563.0,352.5 L563.9,337.8 L564.7,355.5 L565.6,355.5 L566.4,355.5 L567.2,354.9 L568.1,355.5 L568.9,355.2 L569.8,355.5 L570.6,355.5 L571.4,355.5 L572.3,355.2 L573.1,355.5 L574.0,355.2 L574.8,355.2 L575.7,355.9 L576.5,354.9 L577.3,356.2 L578.2,354.9 L579.0,354.2 L579.9,354.9 L580.7,354.9 L581.5,354.9 L582.4,354.9 L583.2,353.2 L584.1,353.2 L584.9,352.9 L585.8,353.5 L586.6,352.9 L587.4,353.2 L588.3,352.5 L589.1,353.2 L590.0,353.2 L590.8,352.2 L591.6,353.9 L592.5,353.9 L593.3,353.5 L594.2,353.5 L595.0,354.2 L595.8,354.2 L596.7,354.2 L597.5,353.5 L598.4,354.2 L599.2,354.9 L600.1,354.9 L600.9,362.2 L601.7,362.2 L602.6,362.9 L603.4,361.9 L604.3,362.2 L605.1,362.6 L605.9,362.9 L606.8,361.5 L607.6,361.9 L608.5,361.5 L609.3,361.2 L610.2,361.5 L611.0,361.5 L611.8,361.5 L612.7,361.5 L613.5,361.5 L614.4,361.5 L615.2,360.9 L616.0,360.9 L616.9,361.5 L617.7,361.2 L618.6,360.9 L619.4,361.2 L620.3,361.5 L621.1,361.9 L621.9,363.2 L622.8,362.9 L623.6,362.6 L624.5,362.6 L625.3,362.9 L626.1,362.2 L627.0,362.2 L627.8,362.6 L628.7,362.2 L629.5,362.2 L630.4,362.2 L631.2,362.2 L632.0,362.9 L632.9,363.2 L633.7,363.6 L634.6,364.2 L635.4,363.9 L636.2,363.6 L637.1,362.9 L637.9,361.5 L638.8,362.2 L639.6,361.9 L640.4,362.6 L641.3,362.2 L642.1,361.9 L643.0,362.2 L643.8,361.9 L644.7,361.5 L645.5,361.5 L646.3,361.9 L647.2,361.9 L648.0,361.5 L648.9,361.2 L649.7,360.9 L650.5,362.2 L651.4,362.2 L652.2,362.2 L653.1,363.2 L653.9,363.2 L654.8,363.6 L655.6,363.9 L656.4,363.6 L657.3,362.9 L658.1,363.9 L659.0,363.2 L659.8,363.2 L660.6,363.2 L661.5,363.2 L662.3,363.6 L663.2,363.6 L664.0,362.2 L664.9,361.9 L665.7,362.2 L666.5,362.2 L667.4,354.2 L668.2,353.5 L669.1,354.9 L669.9,354.9 L670.7,354.9 L671.6,355.2 L672.4,354.9 L673.3,354.5 L674.1,354.5 L675.0,354.2 L675.8,353.9 L676.6,353.9 L677.5,354.2 L678.3,354.2 L679.2,353.9 L680.0,354.5" stroke="#ff7f0e" stroke-width="2" fill="none" opacity="0.8"/>
<!-- Thermal Generation -->
<path d="M80.0,381.9 L80.8,372.2 L81.7,358.9 L82.5,328.8 L83.4,328.5 L84.2,293.4 L85.0,292.7 L85.9,291.1 L86.7,290.7 L87.6,290.7 L88.4,294.1 L89.3,292.4 L90.1,301.1 L90.9,317.1 L91.8,317.1 L92.6,317.1 L93.5,324.1 L94.3,291.7 L95.1,291.4 L96.0,329.8 L96.8,329.5 L97.7,308.8 L98.5,316.1 L99.4,321.5 L100.2,307.8 L101.0,309.8 L101.9,314.5 L102.7,312.4 L103.6,291.7 L104.4,288.1 L105.2,288.4 L106.1,288.7 L106.9,289.4 L107.8,293.4 L108.6,301.4 L109.5,287.4 L110.3,293.1 L111.1,316.5 L112.0,319.5 L112.8,310.8 L113.7,304.1 L114.5,288.1 L115.3,295.1 L116.2,305.1 L117.0,304.1 L117.9,316.1 L118.7,298.4 L119.6,308.4 L120.4,326.1 L121.2,328.8 L122.1,329.5 L122.9,322.1 L123.8,328.5 L124.6,288.4 L125.4,305.4 L126.3,323.1 L127.1,313.8 L128.0,310.4 L128.8,317.5 L129.6,318.8 L130.5,297.8 L131.3,298.1 L132.2,317.1 L133.0,314.8 L133.9,316.8 L134.7,307.1 L135.5,302.4 L136.4,331.5 L137.2,299.8 L138.1,312.8 L138.9,317.5 L139.7,299.1 L140.6,309.4 L141.4,307.8 L142.3,305.1 L143.1,298.4 L144.0,296.8 L144.8,295.4 L145.6,295.7 L146.5,298.8 L147.3,304.4 L148.2,312.8 L149.0,294.4 L149.8,293.4 L150.7,315.5 L151.5,315.8 L152.4,295.7 L153.2,312.1 L154.1,294.4 L154.9,286.1 L155.7,289.1 L156.6,285.1 L157.4,329.1 L158.3,331.2 L159.1,324.5 L159.9,317.8 L160.8,326.1 L161.6,329.8 L162.5,314.8 L163.3,289.7 L164.2,283.1 L165.0,285.1 L165.8,287.4 L166.7,285.1 L167.5,283.7 L168.4,284.1 L169.2,288.1 L170.0,284.7 L170.9,289.4 L171.7,287.7 L172.6,287.4 L173.4,293.1 L174.2,285.1 L175.1,285.7 L175.9,285.1 L176.8,302.8 L177.6,332.5 L178.5,331.5 L179.3,332.8 L180.1,331.5 L181.0,332.8 L181.8,332.8 L182.7,332.8 L183.5,313.5 L184.3,292.7 L185.2,284.1 L186.0,284.1 L186.9,284.7 L187.7,288.4 L188.6,284.1 L189.4,284.7 L190.2,283.1 L191.1,284.1 L191.9,299.1 L192.8,303.8 L193.6,299.8 L194.4,282.1 L195.3,284.7 L196.1,281.7 L197.0,311.8 L197.8,326.5 L198.7,329.8 L199.5,329.5 L200.3,330.8 L201.2,330.2 L202.0,330.5 L202.9,330.2 L203.7,327.1 L204.5,282.7 L205.4,281.7 L206.2,281.7 L207.1,281.7 L207.9,281.7 L208.8,288.7 L209.6,308.4 L210.4,316.5 L211.3,317.5 L212.1,324.1 L213.0,327.5 L213.8,317.8 L214.6,311.4 L215.5,295.7 L216.3,293.1 L217.2,315.8 L218.0,323.8 L218.8,328.1 L219.7,328.5 L220.5,352.9 L221.4,353.5 L222.2,346.5 L223.1,331.2 L223.9,331.2 L224.7,322.5 L225.6,284.4 L226.4,283.1 L227.3,283.1 L228.1,285.1 L228.9,284.4 L229.8,284.4 L230.6,285.4 L231.5,330.5 L232.3,328.8 L233.2,328.8 L234.0,322.5 L234.8,319.5 L235.7,316.1 L236.5,287.4 L237.4,304.4 L238.2,328.8 L239.0,319.1 L239.9,317.8 L240.7,308.4 L241.6,308.8 L242.4,283.7 L243.3,297.4 L244.1,314.8 L244.9,301.8 L245.8,300.1 L246.6,303.4 L247.5,301.4 L248.3,304.4 L249.1,286.4 L250.0,283.7 L250.8,284.4 L251.7,284.4 L252.5,311.1 L253.4,305.1 L254.2,298.8 L255.0,293.1 L255.9,297.8 L256.7,286.7 L257.6,292.4 L258.4,288.1 L259.2,286.7 L260.1,285.7 L260.9,286.1 L261.8,286.4 L262.6,302.4 L263.5,316.5 L264.3,307.4 L265.1,287.4 L266.0,287.7 L266.8,290.1 L267.7,292.1 L268.5,312.1 L269.3,315.8 L270.2,319.1 L271.0,321.1 L271.9,321.5 L272.7,315.1 L273.5,314.8 L274.4,317.1 L275.2,317.5 L276.1,317.8 L276.9,289.4 L277.8,309.1 L278.6,305.4 L279.4,320.8 L280.3,316.8 L281.1,323.8 L282.0,341.8 L282.8,326.1 L283.6,325.8 L284.5,324.1 L285.3,330.5 L286.2,294.1 L287.0,306.1 L287.9,312.1 L288.7,334.8 L289.5,344.5 L290.4,340.2 L291.2,343.5 L292.1,340.2 L292.9,340.2 L293.7,339.5 L294.6,343.2 L295.4,342.2 L296.3,338.8 L297.1,352.9 L298.0,365.9 L298.8,374.9 L299.6,363.9 L300.5,336.2 L301.3,335.8 L302.2,356.9 L303.0,353.2 L303.8,336.2 L304.7,304.8 L305.5,312.4 L306.4,296.1 L307.2,296.8 L308.1,297.1 L308.9,296.8 L309.7,297.8 L310.6,296.8 L311.4,296.8 L312.3,299.1 L313.1,314.1 L313.9,313.1 L314.8,313.1 L315.6,297.1 L316.5,297.4 L317.3,297.8 L318.1,319.5 L319.0,327.5 L319.8,328.1 L320.7,326.8 L321.5,330.2 L322.4,329.1 L323.2,325.5 L324.0,325.5 L324.9,325.5 L325.7,311.8 L326.6,314.1 L327.4,315.5 L328.2,326.8 L329.1,330.5 L329.9,327.1 L330.8,326.5 L331.6,329.8 L332.5,330.2 L333.3,330.5 L334.1,330.8 L335.0,330.5 L335.8,332.8 L336.7,332.5 L337.5,329.1 L338.3,331.5 L339.2,327.8 L340.0,330.2 L340.9,329.1 L341.7,326.5 L342.6,324.8 L343.4,325.1 L344.2,324.8 L345.1,321.5 L345.9,318.5 L346.8,317.8 L347.6,320.5 L348.4,312.4 L349.3,319.1 L350.1,319.8 L351.0,303.1 L351.8,285.7 L352.7,285.1 L353.5,285.1 L354.3,285.4 L355.2,285.4 L356.0,284.7 L356.9,286.7 L357.7,284.1 L358.5,355.2 L359.4,355.9 L360.2,354.9 L361.1,354.5 L361.9,354.5 L362.7,354.9 L363.6,355.2 L364.4,355.5 L365.3,355.2 L366.1,329.1 L367.0,329.1 L367.8,328.8 L368.6,285.4 L369.5,283.4 L370.3,283.1 L371.2,283.1 L372.0,281.7 L372.8,286.7 L373.7,282.7 L374.5,287.1 L375.4,283.7 L376.2,283.7 L377.1,286.4 L377.9,290.7 L378.7,332.2 L379.6,338.8 L380.4,333.5 L381.3,336.5 L382.1,330.8 L382.9,330.5 L383.8,330.5 L384.6,332.2 L385.5,334.5 L386.3,325.5 L387.2,284.1 L388.0,296.8 L388.8,324.1 L389.7,325.5 L390.5,327.8 L391.4,328.8 L392.2,332.5 L393.0,355.5 L393.9,355.9 L394.7,355.5 L395.6,348.2 L396.4,336.8 L397.3,289.4 L398.1,290.7 L398.9,346.2 L399.8,352.9 L400.6,349.2 L401.5,352.2 L402.3,356.9 L403.1,356.2 L404.0,354.2 L404.8,352.9 L405.7,355.2 L406.5,328.1 L407.3,289.7 L408.2,301.8 L409.0,328.5 L409.9,329.1 L410.7,328.8 L411.6,291.4 L412.4,293.1 L413.2,293.1 L414.1,292.4 L414.9,292.1 L415.8,291.4 L416.6,290.7 L417.4,287.1 L418.3,285.1 L419.1,288.4 L420.0,288.7 L420.8,322.5 L421.7,323.5 L422.5,356.9 L423.3,362.9 L424.2,379.9 L425.0,380.9 L425.9,353.2 L426.7,292.4 L427.5,298.1 L428.4,298.8 L429.2,295.4 L430.1,293.7 L430.9,294.1 L431.8,293.7 L432.6,291.4 L433.4,291.4 L434.3,287.7 L435.1,285.4 L436.0,288.4 L436.8,284.4 L437.6,288.1 L438.5,287.7 L439.3,295.1 L440.2,305.8 L441.0,306.1 L441.9,306.4 L442.7,312.1 L443.5,310.8 L444.4,330.8 L445.2,347.2 L446.1,328.1 L446.9,298.4 L447.7,285.7 L448.6,286.4 L449.4,286.4 L450.3,293.4 L451.1,320.8 L451.9,326.1 L452.8,326.5 L453.6,335.8 L454.5,336.8 L455.3,356.9 L456.2,344.8 L457.0,325.1 L457.8,286.1 L458.7,285.4 L459.5,282.1 L460.4,310.8 L461.2,307.1 L462.0,318.1 L462.9,322.1 L463.7,319.8 L464.6,321.8 L465.4,319.1 L466.3,327.8 L467.1,300.8 L467.9,283.1 L468.8,284.1 L469.6,285.1 L470.5,285.7 L471.3,283.4 L472.1,300.1 L473.0,337.8 L473.8,360.9 L474.7,361.2 L475.5,357.9 L476.4,351.5 L477.2,319.8 L478.0,284.4 L478.9,288.1 L479.7,307.1 L480.6,318.1 L481.4,324.1 L482.2,329.8 L483.1,331.5 L483.9,345.2 L484.8,342.2 L485.6,344.8 L486.5,340.8 L487.3,282.1 L488.1,284.7 L489.0,284.4 L489.8,285.1 L490.7,283.1 L491.5,283.4 L492.3,284.1 L493.2,283.7 L494.0,284.1 L494.9,284.4 L495.7,284.7 L496.5,284.7 L497.4,284.4 L498.2,287.1 L499.1,285.4 L499.9,300.8 L500.8,291.4 L501.6,287.4 L502.4,297.4 L503.3,290.1 L504.1,292.7 L505.0,284.4 L505.8,280.7 L506.6,314.8 L507.5,280.4 L508.3,281.7 L509.2,282.1 L510.0,279.4 L510.9,276.0 L511.7,278.4 L512.5,278.7 L513.4,278.7 L514.2,282.1 L515.1,274.0 L515.9,279.0 L516.7,274.0 L517.6,274.4 L518.4,274.4 L519.3,279.7 L520.1,279.7 L521.0,294.4 L521.8,295.4 L522.6,292.4 L523.5,293.7 L524.3,318.8 L525.2,316.5 L526.0,314.1 L526.8,318.5 L527.7,290.4 L528.5,277.0 L529.4,274.4 L530.2,270.7 L531.1,271.0 L531.9,276.4 L532.7,272.0 L533.6,272.0 L534.4,274.4 L535.3,278.0 L536.1,276.7 L536.9,276.4 L537.8,273.7 L538.6,272.7 L539.5,271.4 L540.3,291.4 L541.2,301.1 L542.0,300.8 L542.8,310.8 L543.7,312.4 L544.5,303.1 L545.4,287.4 L546.2,278.4 L547.0,274.4 L547.9,271.4 L548.7,270.4 L549.6,272.7 L550.4,290.4 L551.2,295.4 L552.1,284.1 L552.9,272.7 L553.8,273.7 L554.6,271.7 L555.5,271.7 L556.3,275.7 L557.1,271.4 L558.0,272.0 L558.8,272.7 L559.7,273.0 L560.5,295.4 L561.3,278.4 L562.2,271.7 L563.0,271.7 L563.9,275.7 L564.7,278.7 L565.6,292.1 L566.4,278.4 L567.2,273.4 L568.1,271.4 L568.9,269.7 L569.8,284.7 L570.6,283.7 L571.4,281.1 L572.3,270.4 L573.1,275.7 L574.0,311.8 L574.8,313.5 L575.7,314.8 L576.5,339.8 L577.3,339.8 L578.2,338.8 L579.0,311.8 L579.9,296.8 L580.7,290.7 L581.5,300.8 L582.4,310.1 L583.2,311.1 L584.1,323.5 L584.9,324.5 L585.8,348.5 L586.6,333.5 L587.4,301.8 L588.3,277.4 L589.1,270.0 L590.0,273.4 L590.8,273.7 L591.6,275.7 L592.5,272.7 L593.3,272.4 L594.2,272.7 L595.0,272.0 L595.8,278.4 L596.7,278.7 L597.5,283.1 L598.4,282.4 L599.2,277.7 L600.1,278.0 L600.9,278.4 L601.7,278.4 L602.6,291.7 L603.4,301.8 L604.3,312.1 L605.1,313.8 L605.9,317.5 L606.8,313.8 L607.6,306.8 L608.5,273.4 L609.3,276.4 L610.2,276.4 L611.0,277.4 L611.8,284.1 L612.7,274.0 L613.5,280.0 L614.4,292.7 L615.2,314.1 L616.0,311.8 L616.9,305.8 L617.7,294.7 L618.6,296.8 L619.4,295.7 L620.3,296.8 L621.1,316.8 L621.9,314.1 L622.8,312.8 L623.6,310.8 L624.5,306.1 L625.3,321.5 L626.1,329.1 L627.0,329.8 L627.8,310.4 L628.7,288.7 L629.5,282.7 L630.4,282.1 L631.2,280.4 L632.0,285.1 L632.9,285.1 L633.7,276.4 L634.6,280.0 L635.4,281.7 L636.2,317.5 L637.1,316.8 L637.9,317.1 L638.8,317.1 L639.6,292.7 L640.4,298.1 L641.3,300.1 L642.1,317.1 L643.0,316.1 L643.8,319.5 L644.7,318.8 L645.5,321.8 L646.3,357.9 L647.2,359.5 L648.0,356.2 L648.9,355.9 L649.7,348.9 L650.5,345.8 L651.4,330.5 L652.2,329.8 L653.1,340.5 L653.9,343.8 L654.8,344.8 L655.6,344.8 L656.4,343.8 L657.3,333.5 L658.1,301.8 L659.0,292.4 L659.8,290.1 L660.6,287.7 L661.5,296.8 L662.3,299.1 L663.2,297.1 L664.0,304.4 L664.9,304.1 L665.7,313.8 L666.5,322.5 L667.4,322.8 L668.2,319.1 L669.1,294.1 L669.9,287.4 L670.7,287.7 L671.6,286.7 L672.4,286.7 L673.3,284.7 L674.1,281.1 L675.0,282.1 L675.8,281.4 L676.6,287.4 L677.5,284.4 L678.3,284.1 L679.2,283.7 L680.0,285.4" stroke="#2ca02c" stroke-width="2" fill="none" opacity="0.8"/>
<!-- Solar Generation -->
<path d="M80.0,394.3 L80.8,381.6 L81.7,381.6 L82.5,401.0 L83.4,408.0 L84.2,419.3 L85.0,420.0 L85.9,420.0 L86.7,420.0 L87.6,420.0 L88.4,420.0 L89.3,420.0 L90.1,420.0 L90.9,420.0 L91.8,420.0 L92.6,420.0 L93.5,420.0 L94.3,420.0 L95.1,418.0 L96.0,403.0 L96.8,398.6 L97.7,405.0 L98.5,408.0 L99.4,410.6 L100.2,397.6 L101.0,396.0 L101.9,415.0 L102.7,405.3 L103.6,403.0 L104.4,419.7 L105.2,420.0 L106.1,420.0 L106.9,420.0 L107.8,420.0 L108.6,420.0 L109.5,420.0 L110.3,420.0 L111.1,420.0 L112.0,420.0 L112.8,420.0 L113.7,420.0 L114.5,420.0 L115.3,418.7 L116.2,412.0 L117.0,408.0 L117.9,399.6 L118.7,396.3 L119.6,389.6 L120.4,383.9 L121.2,397.6 L122.1,408.3 L122.9,416.7 L123.8,416.7 L124.6,419.7 L125.4,420.0 L126.3,420.0 L127.1,420.0 L128.0,420.0 L128.8,420.0 L129.6,420.0 L130.5,420.0 L131.3,420.0 L132.2,420.0 L133.0,420.0 L133.9,420.0 L134.7,420.0 L135.5,420.0 L136.4,418.3 L137.2,415.7 L138.1,411.6 L138.9,412.7 L139.7,406.3 L140.6,406.3 L141.4,408.0 L142.3,408.3 L143.1,416.3 L144.0,418.7 L144.8,419.7 L145.6,420.0 L146.5,420.0 L147.3,420.0 L148.2,420.0 L149.0,420.0 L149.8,420.0 L150.7,420.0 L151.5,420.0 L152.4,420.0 L153.2,420.0 L154.1,420.0 L154.9,420.0 L155.7,420.0 L156.6,418.3 L157.4,417.0 L158.3,406.0 L159.1,408.0 L159.9,403.6 L160.8,402.3 L161.6,406.0 L162.5,409.6 L163.3,410.3 L164.2,415.3 L165.0,419.7 L165.8,420.0 L166.7,420.0 L167.5,420.0 L168.4,420.0 L169.2,420.0 L170.0,420.0 L170.9,420.0 L171.7,420.0 L172.6,420.0 L173.4,420.0 L174.2,420.0 L175.1,420.0 L175.9,418.3 L176.8,392.6 L177.6,374.9 L178.5,374.2 L179.3,378.2 L180.1,378.9 L181.0,377.6 L181.8,375.2 L182.7,373.6 L183.5,374.9 L184.3,398.3 L185.2,419.3 L186.0,420.0 L186.9,420.0 L187.7,420.0 L188.6,420.0 L189.4,420.0 L190.2,420.0 L191.1,420.0 L191.9,420.0 L192.8,420.0 L193.6,420.0 L194.4,420.0 L195.3,420.0 L196.1,418.3 L197.0,393.3 L197.8,375.2 L198.7,375.2 L199.5,377.9 L200.3,379.9 L201.2,379.6 L202.0,377.2 L202.9,375.2 L203.7,376.9 L204.5,400.3 L205.4,419.7 L206.2,420.0 L207.1,420.0 L207.9,420.0 L208.8,420.0 L209.6,420.0 L210.4,420.0 L211.3,420.0 L212.1,420.0 L213.0,420.0 L213.8,420.0 L214.6,420.0 L215.5,420.0 L216.3,419.0 L217.2,394.3 L218.0,375.9 L218.8,375.9 L219.7,377.9 L220.5,380.3 L221.4,379.6 L222.2,377.2 L223.1,375.2 L223.9,377.2 L224.7,401.0 L225.6,419.7 L226.4,420.0 L227.3,420.0 L228.1,420.0 L228.9,420.0 L229.8,420.0 L230.6,420.0 L231.5,420.0 L232.3,420.0 L233.2,420.0 L234.0,420.0 L234.8,420.0 L235.7,420.0 L236.5,419.3 L237.4,395.6 L238.2,376.2 L239.0,376.9 L239.9,379.3 L240.7,388.9 L241.6,380.3 L242.4,377.6 L243.3,375.6 L244.1,377.9 L244.9,402.3 L245.8,419.7 L246.6,420.0 L247.5,420.0 L248.3,420.0 L249.1,420.0 L250.0,420.0 L250.8,420.0 L251.7,420.0 L252.5,420.0 L253.4,420.0 L254.2,420.0 L255.0,420.0 L255.9,420.0 L256.7,419.0 L257.6,411.0 L258.4,409.0 L259.2,392.3 L260.1,390.9 L260.9,390.9 L261.8,388.9 L262.6,395.3 L263.5,384.3 L264.3,391.6 L265.1,407.0 L266.0,420.0 L266.8,420.0 L267.7,420.0 L268.5,420.0 L269.3,420.0 L270.2,420.0 L271.0,420.0 L271.9,420.0 L272.7,420.0 L273.5,420.0 L274.4,420.0 L275.2,420.0 L276.1,420.0 L276.9,420.0 L277.8,416.0 L278.6,417.0 L279.4,413.3 L280.3,410.3 L281.1,404.3 L282.0,406.0 L282.8,410.6 L283.6,413.3 L284.5,418.7 L285.3,418.0 L286.2,420.0 L287.0,420.0 L287.9,420.0 L288.7,420.0 L289.5,420.0 L290.4,420.0 L291.2,420.0 L292.1,420.0 L292.9,420.0 L293.7,420.0 L294.6,420.0 L295.4,420.0 L296.3,420.0 L297.1,419.7 L298.0,413.7 L298.8,411.6 L299.6,389.6 L300.5,394.3 L301.3,381.6 L302.2,403.6 L303.0,393.3 L303.8,394.6 L304.7,415.3 L305.5,418.3 L306.4,420.0 L307.2,420.0 L308.1,420.0 L308.9,420.0 L309.7,420.0 L310.6,420.0 L311.4,420.0 L312.3,420.0 L313.1,420.0 L313.9,420.0 L314.8,420.0 L315.6,420.0 L316.5,420.0 L317.3,420.0 L318.1,418.0 L319.0,416.7 L319.8,414.7 L320.7,412.0 L321.5,408.3 L322.4,404.0 L323.2,405.3 L324.0,412.3 L324.9,415.3 L325.7,417.7 L326.6,420.0 L327.4,420.0 L328.2,420.0 L329.1,420.0 L329.9,420.0 L330.8,420.0 L331.6,420.0 L332.5,420.0 L333.3,420.0 L334.1,420.0 L335.0,420.0 L335.8,420.0 L336.7,420.0 L337.5,420.0 L338.3,419.0 L339.2,417.3 L340.0,406.6 L340.9,406.0 L341.7,406.0 L342.6,403.6 L343.4,403.3 L344.2,402.3 L345.1,411.0 L345.9,418.0 L346.8,420.0 L347.6,420.0 L348.4,420.0 L349.3,420.0 L350.1,420.0 L351.0,420.0 L351.8,420.0 L352.7,420.0 L353.5,420.0 L354.3,420.0 L355.2,420.0 L356.0,420.0 L356.9,420.0 L357.7,420.0 L358.5,418.3 L359.4,416.0 L360.2,415.0 L361.1,411.6 L361.9,405.3 L362.7,410.3 L363.6,411.0 L364.4,413.7 L365.3,416.7 L366.1,418.0 L367.0,420.0 L367.8,420.0 L368.6,420.0 L369.5,420.0 L370.3,420.0 L371.2,420.0 L372.0,420.0 L372.8,420.0 L373.7,420.0 L374.5,420.0 L375.4,420.0 L376.2,420.0 L377.1,420.0 L377.9,420.0 L378.7,418.0 L379.6,413.3 L380.4,412.7 L381.3,407.3 L382.1,401.6 L382.9,409.6 L383.8,415.0 L384.6,415.3 L385.5,409.3 L386.3,409.6 L387.2,420.0 L388.0,420.0 L388.8,420.0 L389.7,420.0 L390.5,420.0 L391.4,420.0 L392.2,420.0 L393.0,420.0 L393.9,420.0 L394.7,420.0 L395.6,420.0 L396.4,420.0 L397.3,420.0 L398.1,419.7 L398.9,412.7 L399.8,413.0 L400.6,388.6 L401.5,382.3 L402.3,385.3 L403.1,402.3 L404.0,400.6 L404.8,400.3 L405.7,414.7 L406.5,416.7 L407.3,420.0 L408.2,420.0 L409.0,420.0 L409.9,420.0 L410.7,420.0 L411.6,420.0 L412.4,420.0 L413.2,420.0 L414.1,420.0 L414.9,420.0 L415.8,420.0 L416.6,420.0 L417.4,420.0 L418.3,420.0 L419.1,404.6 L420.0,378.6 L420.8,377.9 L421.7,384.6 L422.5,381.9 L423.3,380.9 L424.2,379.3 L425.0,374.2 L425.9,396.3 L426.7,411.6 L427.5,420.0 L428.4,420.0 L429.2,420.0 L430.1,420.0 L430.9,420.0 L431.8,420.0 L432.6,420.0 L433.4,420.0 L434.3,420.0 L435.1,420.0 L436.0,420.0 L436.8,420.0 L437.6,420.0 L438.5,420.0 L439.3,415.3 L440.2,393.9 L441.0,396.6 L441.9,399.6 L442.7,404.6 L443.5,411.6 L444.4,415.3 L445.2,417.3 L446.1,417.3 L446.9,419.7 L447.7,420.0 L448.6,420.0 L449.4,420.0 L450.3,420.0 L451.1,420.0 L451.9,420.0 L452.8,420.0 L453.6,420.0 L454.5,420.0 L455.3,420.0 L456.2,420.0 L457.0,420.0 L457.8,420.0 L458.7,420.0 L459.5,415.3 L460.4,412.7 L461.2,386.3 L462.0,381.3 L462.9,382.3 L463.7,396.3 L464.6,401.3 L465.4,397.6 L466.3,404.0 L467.1,412.7 L467.9,420.0 L468.8,420.0 L469.6,420.0 L470.5,420.0 L471.3,420.0 L472.1,420.0 L473.0,420.0 L473.8,420.0 L474.7,420.0 L475.5,420.0 L476.4,420.0 L477.2,420.0 L478.0,420.0 L478.9,420.0 L479.7,404.6 L480.6,401.0 L481.4,400.6 L482.2,398.3 L483.1,398.6 L483.9,382.3 L484.8,379.3 L485.6,392.3 L486.5,384.9 L487.3,414.0 L488.1,420.0 L489.0,420.0 L489.8,420.0 L490.7,420.0 L491.5,420.0 L492.3,420.0 L493.2,420.0 L494.0,420.0 L494.9,420.0 L495.7,420.0 L496.5,420.0 L497.4,420.0 L498.2,420.0 L499.1,420.0 L499.9,404.0 L500.8,379.3 L501.6,378.2 L502.4,381.9 L503.3,383.9 L504.1,383.3 L505.0,380.3 L505.8,377.9 L506.6,384.9 L507.5,413.3 L508.3,420.0 L509.2,420.0 L510.0,420.0 L510.9,420.0 L511.7,420.0 L512.5,420.0 L513.4,420.0 L514.2,420.0 L515.1,420.0 L515.9,420.0 L516.7,420.0 L517.6,420.0 L518.4,420.0 L519.3,420.0 L520.1,405.0 L521.0,380.9 L521.8,387.3 L522.6,382.6 L523.5,384.3 L524.3,384.3 L525.2,380.9 L526.0,377.9 L526.8,385.9 L527.7,412.3 L528.5,420.0 L529.4,420.0 L530.2,420.0 L531.1,420.0 L531.9,420.0 L532.7,420.0 L533.6,420.0 L534.4,420.0 L535.3,420.0 L536.1,420.0 L536.9,420.0 L537.8,420.0 L538.6,420.0 L539.5,420.0 L540.3,407.3 L541.2,385.9 L542.0,380.3 L542.8,383.9 L543.7,385.9 L544.5,383.3 L545.4,377.2 L546.2,386.9 L547.0,392.6 L547.9,417.7 L548.7,420.0 L549.6,420.0 L550.4,420.0 L551.2,420.0 L552.1,420.0 L552.9,420.0 L553.8,420.0 L554.6,420.0 L555.5,420.0 L556.3,420.0 L557.1,420.0 L558.0,420.0 L558.8,420.0 L559.7,420.0 L560.5,416.3 L561.3,411.3 L562.2,400.3 L563.0,405.0 L563.9,396.0 L564.7,413.3 L565.6,410.3 L566.4,414.0 L567.2,414.7 L568.1,418.7 L568.9,420.0 L569.8,420.0 L570.6,420.0 L571.4,420.0 L572.3,420.0 L573.1,420.0 L574.0,420.0 L574.8,420.0 L575.7,420.0 L576.5,420.0 L577.3,420.0 L578.2,420.0 L579.0,420.0 L579.9,420.0 L580.7,409.0 L581.5,391.6 L582.4,391.9 L583.2,405.0 L584.1,382.6 L584.9,384.9 L585.8,390.9 L586.6,393.6 L587.4,411.0 L588.3,413.3 L589.1,420.0 L590.0,420.0 L590.8,420.0 L591.6,420.0 L592.5,420.0 L593.3,420.0 L594.2,420.0 L595.0,420.0 L595.8,420.0 L596.7,420.0 L597.5,420.0 L598.4,420.0 L599.2,420.0 L600.1,420.0 L600.9,418.0 L601.7,395.6 L602.6,397.0 L603.4,398.6 L604.3,396.6 L605.1,387.9 L605.9,391.3 L606.8,396.3 L607.6,400.3 L608.5,417.3 L609.3,420.0 L610.2,420.0 L611.0,420.0 L611.8,420.0 L612.7,420.0 L613.5,420.0 L614.4,420.0 L615.2,420.0 L616.0,420.0 L616.9,420.0 L617.7,420.0 L618.6,420.0 L619.4,420.0 L620.3,420.0 L621.1,409.3 L621.9,381.6 L622.8,387.3 L623.6,379.3 L624.5,385.6 L625.3,383.3 L626.1,379.9 L627.0,397.3 L627.8,390.6 L628.7,418.7 L629.5,420.0 L630.4,420.0 L631.2,420.0 L632.0,420.0 L632.9,420.0 L633.7,420.0 L634.6,420.0 L635.4,420.0 L636.2,420.0 L637.1,420.0 L637.9,420.0 L638.8,420.0 L639.6,420.0 L640.4,420.0 L641.3,415.7 L642.1,407.0 L643.0,406.3 L643.8,407.3 L644.7,390.9 L645.5,385.9 L646.3,394.6 L647.2,389.6 L648.0,396.6 L648.9,415.7 L649.7,420.0 L650.5,420.0 L651.4,420.0 L652.2,420.0 L653.1,420.0 L653.9,420.0 L654.8,420.0 L655.6,420.0 L656.4,420.0 L657.3,420.0 L658.1,420.0 L659.0,420.0 L659.8,420.0 L660.6,420.0 L661.5,410.3 L662.3,383.6 L663.2,380.9 L664.0,383.9 L664.9,386.6 L665.7,384.9 L666.5,379.3 L667.4,378.9 L668.2,390.3 L669.1,417.3 L669.9,420.0 L670.7,420.0 L671.6,420.0 L672.4,420.0 L673.3,420.0 L674.1,420.0 L675.0,420.0 L675.8,420.0 L676.6,420.0 L677.5,420.0 L678.3,420.0 L679.2,420.0 L680.0,420.0" stroke="#d62728" stroke-width="2" fill="none" opacity="0.8"/>
<!-- Forecast -->
<path d="M80.0,116.7 L80.8,121.1 L81.7,128.1 L82.5,143.1 L83.4,156.5 L84.2,154.5 L85.0,170.5 L85.9,187.2 L86.7,197.9 L87.6,204.6 L88.4,220.9 L89.3,235.0 L90.1,245.6 L90.9,252.0 L91.8,254.0 L92.6,251.7 L93.5,239.0 L94.3,206.9 L95.1,170.8 L96.0,154.1 L96.8,151.1 L97.7,151.8 L98.5,152.8 L99.4,152.1 L100.2,154.1 L101.0,172.2 L101.9,177.8 L102.7,164.1 L103.6,165.5 L104.4,175.5 L105.2,186.9 L106.1,194.5 L106.9,197.5 L107.8,199.9 L108.6,220.9 L109.5,256.0 L110.3,251.7 L111.1,252.3 L112.0,254.3 L112.8,252.3 L113.7,239.6 L114.5,207.9 L115.3,171.2 L116.2,155.1 L117.0,151.5 L117.9,150.5 L118.7,150.1 L119.6,153.1 L120.4,156.5 L121.2,157.1 L122.1,157.5 L122.9,155.1 L123.8,153.8 L124.6,152.5 L125.4,149.1 L126.3,151.5 L127.1,169.5 L128.0,194.9 L128.8,219.3 L129.6,232.0 L130.5,240.6 L131.3,246.0 L132.2,248.7 L133.0,250.0 L133.9,246.3 L134.7,231.3 L135.5,210.9 L136.4,191.2 L137.2,178.8 L138.1,170.5 L138.9,169.2 L139.7,173.2 L140.6,177.5 L141.4,180.8 L142.3,183.2 L143.1,184.2 L144.0,178.2 L144.8,173.5 L145.6,168.5 L146.5,173.5 L147.3,182.9 L148.2,200.2 L149.0,211.2 L149.8,229.3 L150.7,240.0 L151.5,244.3 L152.4,247.0 L153.2,247.0 L154.1,242.0 L154.9,226.6 L155.7,204.2 L156.6,185.2 L157.4,167.8 L158.3,154.1 L159.1,154.1 L159.9,155.1 L160.8,163.5 L161.6,168.2 L162.5,171.5 L163.3,164.8 L164.2,152.1 L165.0,144.8 L165.8,140.1 L166.7,149.1 L167.5,165.5 L168.4,185.9 L169.2,209.9 L170.0,222.9 L170.9,230.3 L171.7,235.6 L172.6,235.6 L173.4,232.3 L174.2,215.9 L175.1,181.2 L175.9,145.1 L176.8,131.1 L177.6,129.7 L178.5,133.4 L179.3,137.4 L180.1,144.4 L181.0,150.1 L181.8,152.8 L182.7,154.8 L183.5,153.5 L184.3,152.1 L185.2,150.5 L186.0,144.1 L186.9,150.5 L187.7,163.8 L188.6,188.2 L189.4,217.3 L190.2,229.3 L191.1,236.6 L191.9,242.6 L192.8,243.0 L193.6,239.6 L194.4,224.9 L195.3,191.5 L196.1,157.5 L197.0,142.8 L197.8,142.1 L198.7,145.1 L199.5,150.1 L200.3,154.5 L201.2,158.8 L202.0,159.8 L202.9,160.8 L203.7,157.1 L204.5,155.5 L205.4,154.1 L206.2,151.1 L207.1,155.8 L207.9,171.8 L208.8,196.2 L209.6,222.9 L210.4,235.3 L211.3,245.0 L212.1,251.0 L213.0,252.0 L213.8,249.3 L214.6,235.6 L215.5,202.2 L216.3,168.2 L217.2,182.5 L218.0,172.5 L218.8,152.1 L219.7,143.1 L220.5,143.8 L221.4,150.8 L222.2,160.8 L223.1,171.2 L223.9,185.2 L224.7,168.8 L225.6,179.8 L226.4,202.9 L227.3,210.6 L228.1,210.9 L228.9,210.2 L229.8,233.3 L230.6,251.3 L231.5,257.3 L232.3,255.0 L233.2,250.3 L234.0,247.3 L234.8,245.3 L235.7,219.6 L236.5,204.2 L237.4,204.2 L238.2,195.2 L239.0,181.5 L239.9,174.8 L240.7,173.5 L241.6,194.9 L242.4,197.5 L243.3,189.5 L244.1,185.5 L244.9,180.8 L245.8,162.5 L246.6,171.8 L247.5,177.5 L248.3,180.5 L249.1,211.9 L250.0,244.0 L250.8,248.7 L251.7,248.7 L252.5,253.7 L253.4,258.0 L254.2,261.0 L255.0,262.7 L255.9,238.0 L256.7,222.3 L257.6,219.3 L258.4,212.6 L259.2,167.2 L260.1,155.8 L260.9,155.1 L261.8,156.8 L262.6,158.1 L263.5,153.1 L264.3,151.8 L265.1,151.8 L266.0,153.5 L266.8,150.5 L267.7,150.5 L268.5,170.5 L269.3,197.9 L270.2,223.6 L271.0,236.3 L271.9,245.3 L272.7,251.0 L273.5,253.7 L274.4,255.3 L275.2,252.7 L276.1,239.3 L276.9,220.6 L277.8,203.2 L278.6,189.9 L279.4,183.2 L280.3,181.2 L281.1,186.5 L282.0,192.2 L282.8,191.5 L283.6,190.9 L284.5,198.9 L285.3,206.2 L286.2,215.9 L287.0,226.6 L287.9,228.3 L288.7,223.9 L289.5,216.3 L290.4,223.6 L291.2,211.2 L292.1,180.5 L292.9,169.8 L293.7,167.2 L294.6,166.2 L295.4,166.2 L296.3,165.5 L297.1,163.8 L298.0,161.1 L298.8,155.1 L299.6,143.8 L300.5,136.1 L301.3,132.8 L302.2,127.1 L303.0,128.1 L303.8,133.4 L304.7,145.4 L305.5,158.1 L306.4,150.1 L307.2,161.5 L308.1,173.2 L308.9,180.5 L309.7,211.9 L310.6,232.6 L311.4,231.0 L312.3,231.3 L313.1,232.3 L313.9,233.3 L314.8,235.0 L315.6,235.6 L316.5,209.9 L317.3,167.5 L318.1,157.1 L319.0,151.5 L319.8,139.8 L320.7,158.8 L321.5,164.5 L322.4,164.5 L323.2,164.8 L324.0,165.8 L324.9,170.2 L325.7,147.8 L326.6,145.4 L327.4,151.8 L328.2,152.5 L329.1,178.8 L329.9,187.5 L330.8,228.6 L331.6,240.6 L332.5,229.9 L333.3,230.3 L334.1,234.0 L335.0,237.6 L335.8,241.3 L336.7,236.0 L337.5,192.5 L338.3,182.2 L339.2,179.2 L340.0,173.5 L340.9,159.8 L341.7,153.5 L342.6,144.1 L343.4,150.8 L344.2,151.5 L345.1,150.1 L345.9,154.1 L346.8,141.1 L347.6,132.4 L348.4,141.1 L349.3,157.5 L350.1,182.5 L351.0,366.6 L351.8,233.6 L352.7,234.6 L353.5,237.0 L354.3,238.3 L355.2,236.0 L356.0,222.3 L356.9,187.9 L357.7,149.8 L358.5,133.4 L359.4,129.4 L360.2,130.4 L361.1,133.1 L361.9,139.1 L362.7,143.8 L363.6,147.8 L364.4,146.8 L365.3,142.8 L366.1,141.4 L367.0,137.8 L367.8,147.4 L368.6,163.5 L369.5,189.5 L370.3,212.6 L371.2,216.6 L372.0,228.9 L372.8,238.6 L373.7,244.3 L374.5,246.3 L375.4,243.6 L376.2,229.9 L377.1,196.9 L377.9,157.8 L378.7,139.1 L379.6,133.8 L380.4,134.1 L381.3,136.1 L382.1,141.8 L382.9,146.1 L383.8,149.8 L384.6,151.5 L385.5,149.8 L386.3,145.1 L387.2,142.8 L388.0,138.4 L388.8,147.4 L389.7,163.1 L390.5,188.5 L391.4,213.6 L392.2,228.6 L393.0,238.0 L393.9,244.0 L394.7,246.6 L395.6,244.0 L396.4,229.9 L397.3,197.9 L398.1,160.5 L398.9,143.4 L399.8,141.1 L400.6,142.8 L401.5,145.1 L402.3,150.8 L403.1,155.5 L404.0,157.1 L404.8,157.5 L405.7,155.8 L406.5,153.8 L407.3,150.8 L408.2,145.1 L409.0,152.8 L409.9,167.2 L410.7,191.5 L411.6,220.3 L412.4,226.9 L413.2,233.0 L414.1,238.3 L414.9,240.0 L415.8,240.3 L416.6,233.6 L417.4,219.6 L418.3,197.2 L419.1,179.2 L420.0,172.2 L420.8,165.8 L421.7,166.8 L422.5,172.8 L423.3,179.5 L424.2,184.2 L425.0,187.2 L425.9,188.9 L426.7,182.5 L427.5,175.2 L428.4,170.8 L429.2,176.2 L430.1,186.2 L430.9,203.2 L431.8,218.6 L432.6,226.3 L433.4,240.0 L434.3,246.6 L435.1,250.7 L436.0,251.3 L436.8,247.3 L437.6,235.0 L438.5,216.6 L439.3,199.6 L440.2,182.2 L441.0,175.2 L441.9,173.8 L442.7,174.2 L443.5,177.8 L444.4,179.5 L445.2,179.5 L446.1,172.2 L446.9,159.8 L447.7,153.1 L448.6,149.1 L449.4,156.8 L450.3,172.8 L451.1,194.9 L451.9,208.2 L452.8,229.3 L453.6,240.3 L454.5,246.3 L455.3,248.0 L456.2,245.3 L457.0,231.6 L457.8,198.6 L458.7,160.1 L459.5,141.8 L460.4,135.8 L461.2,135.8 L462.0,137.4 L462.9,142.1 L463.7,145.8 L464.6,149.1 L465.4,150.5 L466.3,147.1 L467.1,140.8 L467.9,138.1 L468.8,132.8 L469.6,140.8 L470.5,156.8 L471.3,181.9 L472.1,244.6 L473.0,233.6 L473.8,233.0 L474.7,240.3 L475.5,241.6 L476.4,238.0 L477.2,223.3 L478.0,191.9 L478.9,186.9 L479.7,187.5 L480.6,178.8 L481.4,161.1 L482.2,149.1 L483.1,146.1 L483.9,145.4 L484.8,147.1 L485.6,150.5 L486.5,159.5 L487.3,175.8 L488.1,176.8 L489.0,200.9 L489.8,170.5 L490.7,171.8 L491.5,195.9 L492.3,218.9 L493.2,234.0 L494.0,238.0 L494.9,241.3 L495.7,242.3 L496.5,239.6 L497.4,224.9 L498.2,192.5 L499.1,155.1 L499.9,139.1 L500.8,138.4 L501.6,143.1 L502.4,148.4 L503.3,155.1 L504.1,160.1 L505.0,161.8 L505.8,162.5 L506.6,159.5 L507.5,157.5 L508.3,155.1 L509.2,156.8 L510.0,160.1 L510.9,172.2 L511.7,196.2 L512.5,219.9 L513.4,235.6 L514.2,244.0 L515.1,249.7 L515.9,251.3 L516.7,249.7 L517.6,236.3 L518.4,224.9 L519.3,199.9 L520.1,192.5 L521.0,184.9 L521.8,167.8 L522.6,154.8 L523.5,150.8 L524.3,150.8 L525.2,150.5 L526.0,160.1 L526.8,160.5 L527.7,157.8 L528.5,154.8 L529.4,151.1 L530.2,158.1 L531.1,172.5 L531.9,197.2 L532.7,224.9 L533.6,237.6 L534.4,245.6 L535.3,251.3 L536.1,253.3 L536.9,251.0 L537.8,238.3 L538.6,206.9 L539.5,169.8 L540.3,152.8 L541.2,150.1 L542.0,151.8 L542.8,154.5 L543.7,159.1 L544.5,163.1 L545.4,164.8 L546.2,165.8 L547.0,162.1 L547.9,159.8 L548.7,158.8 L549.6,156.8 L550.4,162.1 L551.2,177.2 L552.1,200.9 L552.9,225.9 L553.8,234.6 L554.6,242.0 L555.5,248.3 L556.3,251.0 L557.1,252.3 L558.0,249.3 L558.8,236.0 L559.7,215.6 L560.5,197.2 L561.3,186.5 L562.2,180.8 L563.0,180.5 L563.9,186.2 L564.7,188.5 L565.6,189.9 L566.4,191.5 L567.2,189.9 L568.1,185.2 L568.9,181.5 L569.8,177.5 L570.6,181.5 L571.4,190.5 L572.3,207.9 L573.1,374.6 L574.0,282.4 L574.8,379.3 L575.7,420.0 L576.5,420.0 L577.3,420.0 L578.2,420.0 L579.0,420.0 L579.9,420.0 L580.7,420.0 L581.5,420.0 L582.4,420.0 L583.2,420.0 L584.1,420.0 L584.9,420.0 L585.8,420.0 L586.6,420.0 L587.4,420.0 L588.3,420.0 L589.1,420.0 L590.0,420.0 L590.8,420.0 L591.6,420.0 L592.5,420.0 L593.3,256.0 L594.2,371.9 L595.0,277.7 L595.8,240.3 L596.7,241.0 L597.5,239.0 L598.4,224.9 L599.2,193.5 L600.1,153.5 L600.9,136.8 L601.7,133.1 L602.6,135.4 L603.4,137.8 L604.3,142.1 L605.1,145.4 L605.9,149.1 L606.8,149.1 L607.6,144.1 L608.5,134.4 L609.3,130.1 L610.2,128.7 L611.0,136.8 L611.8,154.5 L612.7,180.8 L613.5,208.2 L614.4,219.9 L615.2,225.3 L616.0,231.3 L616.9,231.6 L617.7,228.6 L618.6,212.9 L619.4,180.2 L620.3,142.4 L621.1,128.4 L621.9,127.7 L622.8,132.1 L623.6,136.8 L624.5,142.1 L625.3,146.4 L626.1,150.8 L627.0,151.8 L627.8,147.1 L628.7,138.4 L629.5,133.4 L630.4,132.1 L631.2,139.8 L632.0,157.8 L632.9,184.2 L633.7,208.6 L634.6,226.3 L635.4,228.9 L636.2,234.0 L637.1,235.0 L637.9,234.3 L638.8,220.6 L639.6,190.2 L640.4,153.8 L641.3,138.1 L642.1,137.4 L643.0,141.8 L643.8,146.8 L644.7,152.8 L645.5,157.1 L646.3,159.5 L647.2,159.5 L648.0,156.5 L648.9,150.1 L649.7,145.4 L650.5,141.1 L651.4,149.1 L652.2,163.8 L653.1,188.5 L653.9,207.6 L654.8,224.6 L655.6,234.6 L656.4,239.6 L657.3,239.6 L658.1,236.3 L659.0,220.9 L659.8,189.5 L660.6,150.1 L661.5,133.4 L662.3,131.7 L663.2,136.8 L664.0,141.1 L664.9,146.8 L665.7,150.5 L666.5,154.5 L667.4,155.5 L668.2,150.5 L669.1,142.1 L669.9,136.1 L670.7,133.8 L671.6,141.8 L672.4,158.1 L673.3,183.9 L674.1,214.6 L675.0,225.3 L675.8,230.6 L676.6,236.0 L677.5,237.0 L678.3,234.3 L679.2,218.9 L680.0,214.6" stroke="#9467bd" stroke-width="2" fill="none" opacity="0.8"/>
<!-- Total Generation -->
<path d="M80.0,213.6 L80.8,176.8 L81.7,178.2 L82.5,201.2 L83.4,226.6 L84.2,216.9 L85.0,226.3 L85.9,230.3 L86.7,230.6 L87.6,228.3 L88.4,222.9 L89.3,223.9 L90.1,234.0 L90.9,253.7 L91.8,239.6 L92.6,249.0 L93.5,249.3 L94.3,218.9 L95.1,214.2 L96.0,240.3 L96.8,231.6 L97.7,214.9 L98.5,235.0 L99.4,235.0 L100.2,220.6 L101.0,227.9 L101.9,251.7 L102.7,236.6 L103.6,207.2 L104.4,225.3 L105.2,211.6 L106.1,206.6 L106.9,215.3 L107.8,218.9 L108.6,233.3 L109.5,226.6 L110.3,231.6 L111.1,255.7 L112.0,256.3 L112.8,244.3 L113.7,219.3 L114.5,221.6 L115.3,221.3 L116.2,200.6 L117.0,195.9 L117.9,188.9 L118.7,175.2 L119.6,188.5 L120.4,192.2 L121.2,206.2 L122.1,218.9 L122.9,190.2 L123.8,190.5 L124.6,169.8 L125.4,184.2 L126.3,200.2 L127.1,218.6 L128.0,210.6 L128.8,226.9 L129.6,220.3 L130.5,213.2 L131.3,224.9 L132.2,240.3 L133.0,218.6 L133.9,218.6 L134.7,191.5 L135.5,191.2 L136.4,229.3 L137.2,193.9 L138.1,208.6 L138.9,212.2 L139.7,189.9 L140.6,204.2 L141.4,209.2 L142.3,221.9 L143.1,226.9 L144.0,220.9 L144.8,210.6 L145.6,211.9 L146.5,215.3 L147.3,197.5 L148.2,192.5 L149.0,167.8 L149.8,165.5 L150.7,188.9 L151.5,197.9 L152.4,176.2 L153.2,178.5 L154.1,150.8 L154.9,131.7 L155.7,141.8 L156.6,144.8 L157.4,201.2 L158.3,196.5 L159.1,195.9 L159.9,190.2 L160.8,193.5 L161.6,206.9 L162.5,205.6 L163.3,195.2 L164.2,200.6 L165.0,218.6 L165.8,225.9 L166.7,224.6 L167.5,223.3 L168.4,221.6 L169.2,222.6 L170.0,217.3 L170.9,219.9 L171.7,215.3 L172.6,212.6 L173.4,217.3 L174.2,200.2 L175.1,189.9 L175.9,178.2 L176.8,184.2 L177.6,189.2 L178.5,185.2 L179.3,166.2 L180.1,142.8 L181.0,151.1 L181.8,157.8 L182.7,161.1 L183.5,135.1 L184.3,132.8 L185.2,185.2 L186.0,201.2 L186.9,212.9 L187.7,225.6 L188.6,217.9 L189.4,219.6 L190.2,216.6 L191.1,210.6 L191.9,221.9 L192.8,225.9 L193.6,215.6 L194.4,192.9 L195.3,196.2 L196.1,189.2 L197.0,203.2 L197.8,198.2 L198.7,206.6 L199.5,212.6 L200.3,220.3 L201.2,216.6 L202.0,214.6 L202.9,208.6 L203.7,207.9 L204.5,178.5 L205.4,186.9 L206.2,182.5 L207.1,192.2 L207.9,195.5 L208.8,201.2 L209.6,223.3 L210.4,229.6 L211.3,226.3 L212.1,239.0 L213.0,246.6 L213.8,225.9 L214.6,225.3 L215.5,188.9 L216.3,179.5 L217.2,173.8 L218.0,168.8 L218.8,160.1 L219.7,162.1 L220.5,199.9 L221.4,215.9 L222.2,219.3 L223.1,214.2 L223.9,220.3 L224.7,232.0 L225.6,214.6 L226.4,209.9 L227.3,199.2 L228.1,197.2 L228.9,199.9 L229.8,198.6 L230.6,198.2 L231.5,232.6 L232.3,234.0 L233.2,236.3 L234.0,224.9 L234.8,232.6 L235.7,227.6 L236.5,171.2 L237.4,174.5 L238.2,201.2 L239.0,202.6 L239.9,204.2 L240.7,199.9 L241.6,186.9 L242.4,142.1 L243.3,147.8 L244.1,168.2 L244.9,172.2 L245.8,179.8 L246.6,175.2 L247.5,181.9 L248.3,189.9 L249.1,190.9 L250.0,204.6 L250.8,211.9 L251.7,218.9 L252.5,247.3 L253.4,241.6 L254.2,234.0 L255.0,221.3 L255.9,222.3 L256.7,218.9 L257.6,217.3 L258.4,202.9 L259.2,166.8 L260.1,178.5 L260.9,174.2 L261.8,179.2 L262.6,201.6 L263.5,183.5 L264.3,179.2 L265.1,158.5 L266.0,190.2 L266.8,195.2 L267.7,208.9 L268.5,215.6 L269.3,224.6 L270.2,227.9 L271.0,235.3 L271.9,239.0 L272.7,232.0 L273.5,232.6 L274.4,233.3 L275.2,204.9 L276.1,208.9 L276.9,200.2 L277.8,223.3 L278.6,213.6 L279.4,216.9 L280.3,192.2 L281.1,211.9 L282.0,247.0 L282.8,217.9 L283.6,213.2 L284.5,211.6 L285.3,220.6 L286.2,198.9 L287.0,147.4 L287.9,133.8 L288.7,157.1 L289.5,184.9 L290.4,194.9 L291.2,188.2 L292.1,174.2 L292.9,183.2 L293.7,175.2 L294.6,157.1 L295.4,139.1 L296.3,138.8 L297.1,155.5 L298.0,182.5 L298.8,191.5 L299.6,155.5 L300.5,139.8 L301.3,129.7 L302.2,185.9 L303.0,183.5 L303.8,182.2 L304.7,170.2 L305.5,179.5 L306.4,170.2 L307.2,180.5 L308.1,183.5 L308.9,190.5 L309.7,184.5 L310.6,185.9 L311.4,194.9 L312.3,198.2 L313.1,219.3 L313.9,227.9 L314.8,228.3 L315.6,213.2 L316.5,208.6 L317.3,206.6 L318.1,222.9 L319.0,233.3 L319.8,239.0 L320.7,240.6 L321.5,243.3 L322.4,238.6 L323.2,239.3 L324.0,247.0 L324.9,250.0 L325.7,238.0 L326.6,244.0 L327.4,245.0 L328.2,257.3 L329.1,261.3 L329.9,257.7 L330.8,258.7 L331.6,261.3 L332.5,264.0 L333.3,264.4 L334.1,265.0 L335.0,264.7 L335.8,267.0 L336.7,265.7 L337.5,262.3 L338.3,264.0 L339.2,258.0 L340.0,249.7 L340.9,249.0 L341.7,246.3 L342.6,241.3 L343.4,241.6 L344.2,242.0 L345.1,248.7 L345.9,252.7 L346.8,254.0 L347.6,255.7 L348.4,248.0 L349.3,254.0 L350.1,251.3 L351.0,236.0 L351.8,219.9 L352.7,220.9 L353.5,218.9 L354.3,221.6 L355.2,219.9 L356.0,218.3 L356.9,222.6 L357.7,219.3 L358.5,284.7 L359.4,287.4 L360.2,285.1 L361.1,281.1 L361.9,274.0 L362.7,278.7 L363.6,280.7 L364.4,281.4 L365.3,280.7 L366.1,257.7 L367.0,260.7 L367.8,261.3 L368.6,217.3 L369.5,207.2 L370.3,197.9 L371.2,205.2 L372.0,195.5 L372.8,186.2 L373.7,193.5 L374.5,168.8 L375.4,142.8 L376.2,136.8 L377.1,130.4 L377.9,126.7 L378.7,191.2 L379.6,199.2 L380.4,201.9 L381.3,195.9 L382.1,181.2 L382.9,180.5 L383.8,199.6 L384.6,192.5 L385.5,170.2 L386.3,149.8 L387.2,118.7 L388.0,117.1 L388.8,153.8 L389.7,135.8 L390.5,127.1 L391.4,124.7 L392.2,126.7 L393.0,153.8 L393.9,158.1 L394.7,158.1 L395.6,140.8 L396.4,132.8 L397.3,91.7 L398.1,86.3 L398.9,134.1 L399.8,139.4 L400.6,109.7 L401.5,105.4 L402.3,120.1 L403.1,134.8 L404.0,133.4 L404.8,127.7 L405.7,170.8 L406.5,135.8 L407.3,82.3 L408.2,119.1 L409.0,176.8 L409.9,157.1 L410.7,186.2 L411.6,142.4 L412.4,134.4 L413.2,110.0 L414.1,147.1 L414.9,149.1 L415.8,155.5 L416.6,150.1 L417.4,162.5 L418.3,161.1 L419.1,133.1 L420.0,111.0 L420.8,109.7 L421.7,114.4 L422.5,130.7 L423.3,129.4 L424.2,138.8 L425.0,132.8 L425.9,131.4 L426.7,130.1 L427.5,176.5 L428.4,188.9 L429.2,164.1 L430.1,162.8 L430.9,167.5 L431.8,162.1 L432.6,151.8 L433.4,138.1 L434.3,139.1 L435.1,159.8 L436.0,151.5 L436.8,147.4 L437.6,172.8 L438.5,175.2 L439.3,185.2 L440.2,168.2 L441.0,157.1 L441.9,161.8 L442.7,156.8 L443.5,106.7 L444.4,149.8 L445.2,159.8 L446.1,118.1 L446.9,128.1 L447.7,98.3 L448.6,94.3 L449.4,110.7 L450.3,96.3 L451.1,131.4 L451.9,131.7 L452.8,141.4 L453.6,138.4 L454.5,138.8 L455.3,159.1 L456.2,151.5 L457.0,128.4 L457.8,90.3 L458.7,100.4 L459.5,89.7 L460.4,113.4 L461.2,87.3 L462.0,108.7 L462.9,104.7 L463.7,104.0 L464.6,144.1 L465.4,149.8 L466.3,142.1 L467.1,79.6 L467.9,83.7 L468.8,82.6 L469.6,85.7 L470.5,72.0 L471.3,75.6 L472.1,91.0 L473.0,131.1 L473.8,154.8 L474.7,164.1 L475.5,158.5 L476.4,154.5 L477.2,117.7 L478.0,77.0 L478.9,88.0 L479.7,103.0 L480.6,117.1 L481.4,135.8 L482.2,123.7 L483.1,132.4 L483.9,115.0 L484.8,104.7 L485.6,114.4 L486.5,105.7 L487.3,91.0 L488.1,138.1 L489.0,151.5 L489.8,170.8 L490.7,188.9 L491.5,197.9 L492.3,206.9 L493.2,201.9 L494.0,197.9 L494.9,182.5 L495.7,180.8 L496.5,178.8 L497.4,179.5 L498.2,184.9 L499.1,187.2 L499.9,182.5 L500.8,163.1 L501.6,158.8 L502.4,170.5 L503.3,162.8 L504.1,169.2 L505.0,163.1 L505.8,155.5 L506.6,195.9 L507.5,185.9 L508.3,195.9 L509.2,193.2 L510.0,205.2 L510.9,200.2 L511.7,202.9 L512.5,195.5 L513.4,182.9 L514.2,175.5 L515.1,140.1 L515.9,121.7 L516.7,98.3 L517.6,109.4 L518.4,100.7 L519.3,80.0 L520.1,70.0 L521.0,72.6 L521.8,112.4 L522.6,118.4 L523.5,131.7 L524.3,136.4 L525.2,117.4 L526.0,111.7 L526.8,101.0 L527.7,125.1 L528.5,111.4 L529.4,141.1 L530.2,119.7 L531.1,110.0 L531.9,113.0 L532.7,136.1 L533.6,137.1 L534.4,125.4 L535.3,99.0 L536.1,97.3 L536.9,93.0 L537.8,101.0 L538.6,95.3 L539.5,85.0 L540.3,99.4 L541.2,100.7 L542.0,79.3 L542.8,107.0 L543.7,123.7 L544.5,121.1 L545.4,128.1 L546.2,148.8 L547.0,153.1 L547.9,173.2 L548.7,179.8 L549.6,180.8 L550.4,196.5 L551.2,195.9 L552.1,162.5 L552.9,151.5 L553.8,152.1 L554.6,154.1 L555.5,161.1 L556.3,166.2 L557.1,163.5 L558.0,165.5 L558.8,174.2 L559.7,177.8 L560.5,184.5 L561.3,164.5 L562.2,165.5 L563.0,178.2 L563.9,164.5 L564.7,196.9 L565.6,186.2 L566.4,190.9 L567.2,151.1 L568.1,154.5 L568.9,189.2 L569.8,207.2 L570.6,186.9 L571.4,162.1 L572.3,136.1 L573.1,144.8 L574.0,148.1 L574.8,153.1 L575.7,131.7 L576.5,145.1 L577.3,159.1 L578.2,149.1 L579.0,114.4 L579.9,110.4 L580.7,101.4 L581.5,91.7 L582.4,74.3 L583.2,82.0 L584.1,84.0 L584.9,86.0 L585.8,137.1 L586.6,130.7 L587.4,91.7 L588.3,102.4 L589.1,138.4 L590.0,166.2 L590.8,187.5 L591.6,184.2 L592.5,185.5 L593.3,185.9 L594.2,184.2 L595.0,178.8 L595.8,164.5 L596.7,146.8 L597.5,141.4 L598.4,127.1 L599.2,81.3 L600.1,108.7 L600.9,102.0 L601.7,67.6 L602.6,74.0 L603.4,85.7 L604.3,87.7 L605.1,78.3 L605.9,91.0 L606.8,86.7 L607.6,81.0 L608.5,93.7 L609.3,110.7 L610.2,109.4 L611.0,83.3 L611.8,101.4 L612.7,109.0 L613.5,140.1 L614.4,132.1 L615.2,133.1 L616.0,113.4 L616.9,114.0 L617.7,111.0 L618.6,117.7 L619.4,131.7 L620.3,163.1 L621.1,190.5 L621.9,152.5 L622.8,133.1 L623.6,140.1 L624.5,156.1 L625.3,165.5 L626.1,163.5 L627.0,198.9 L627.8,194.5 L628.7,201.6 L629.5,196.2 L630.4,207.6 L631.2,201.6 L632.0,205.9 L632.9,209.2 L633.7,197.2 L634.6,192.5 L635.4,185.5 L636.2,216.6 L637.1,215.3 L637.9,213.2 L638.8,205.6 L639.6,182.2 L640.4,170.2 L641.3,164.1 L642.1,185.2 L643.0,190.2 L643.8,170.5 L644.7,110.7 L645.5,115.7 L646.3,128.4 L647.2,123.7 L648.0,127.1 L648.9,145.8 L649.7,153.8 L650.5,148.8 L651.4,131.4 L652.2,137.4 L653.1,138.8 L653.9,150.8 L654.8,170.2 L655.6,175.5 L656.4,171.2 L657.3,173.5 L658.1,163.5 L659.0,153.8 L659.8,167.8 L660.6,172.2 L661.5,201.9 L662.3,185.2 L663.2,169.2 L664.0,183.2 L664.9,188.5 L665.7,202.9 L666.5,207.9 L667.4,191.9 L668.2,200.6 L669.1,200.2 L669.9,187.9 L670.7,183.9 L671.6,194.9 L672.4,205.6 L673.3,215.9 L674.1,212.9 L675.0,211.2 L675.8,210.6 L676.6,210.2 L677.5,207.9 L678.3,205.6 L679.2,204.2 L680.0,206.2" stroke="#8c564b" stroke-width="2" fill="none" opacity="0.8"/>
<!-- Forecast Difference -->
<path d="M80.0,420.0 L80.8,420.0 L81.7,420.0 L82.5,420.0 L83.4,420.0 L84.2,420.0 L85.0,420.0 L85.9,420.0 L86.7,420.0 L87.6,420.0 L88.4,420.0 L89.3,420.0 L90.1,420.0 L90.9,420.0 L91.8,420.0 L92.6,420.0 L93.5,420.0 L94.3,420.0 L95.1,420.0 L96.0,420.0 L96.8,420.0 L97.7,420.0 L98.5,420.0 L99.4,420.0 L100.2,420.0 L101.0,420.0 L101.9,420.0 L102.7,420.0 L103.6,420.0 L104.4,420.0 L105.2,420.0 L106.1,420.0 L106.9,420.0 L107.8,420.0 L108.6,420.0 L109.5,420.0 L110.3,420.0 L111.1,420.0 L112.0,420.0 L112.8,420.0 L113.7,420.0 L114.5,420.0 L115.3,420.0 L116.2,420.0 L117.0,420.0 L117.9,420.0 L118.7,420.0 L119.6,420.0 L120.4,420.0 L121.2,420.0 L122.1,420.0 L122.9,420.0 L123.8,420.0 L124.6,420.0 L125.4,420.0 L126.3,420.0 L127.1,420.0 L128.0,420.0 L128.8,420.0 L129.6,420.0 L130.5,420.0 L131.3,420.0 L132.2,420.0 L133.0,420.0 L133.9,420.0 L134.7,420.0 L135.5,420.0 L136.4,420.0 L137.2,420.0 L138.1,420.0 L138.9,420.0 L139.7,420.0 L140.6,420.0 L141.4,420.0 L142.3,420.0 L143.1,420.0 L144.0,420.0 L144.8,420.0 L145.6,420.0 L146.5,420.0 L147.3,420.0 L148.2,420.0 L149.0,420.0 L149.8,420.0 L150.7,420.0 L151.5,420.0 L152.4,420.0 L153.2,420.0 L154.1,420.0 L154.9,420.0 L155.7,420.0 L156.6,420.0 L157.4,420.0 L158.3,420.0 L159.1,420.0 L159.9,420.0 L160.8,420.0 L161.6,420.0 L162.5,420.0 L163.3,420.0 L164.2,420.0 L165.0,420.0 L165.8,420.0 L166.7,420.0 L167.5,420.0 L168.4,420.0 L169.2,420.0 L170.0,420.0 L170.9,420.0 L171.7,420.0 L172.6,420.0 L173.4,420.0 L174.2,420.0 L175.1,420.0 L175.9,420.0 L176.8,420.0 L177.6,420.0 L178.5,420.0 L179.3,420.0 L180.1,420.0 L181.0,420.0 L181.8,420.0 L182.7,420.0 L183.5,420.0 L184.3,420.0 L185.2,420.0 L186.0,420.0 L186.9,420.0 L187.7,420.0 L188.6,420.0 L189.4,420.0 L190.2,420.0 L191.1,420.0 L191.9,420.0 L192.8,420.0 L193.6,420.0 L194.4,420.0 L195.3,420.0 L196.1,420.0 L197.0,420.0 L197.8,420.0 L198.7,420.0 L199.5,420.0 L200.3,420.0 L201.2,420.0 L202.0,420.0 L202.9,420.0 L203.7,420.0 L204.5,420.0 L205.4,420.0 L206.2,420.0 L207.1,420.0 L207.9,420.0 L208.8,420.0 L209.6,420.0 L210.4,420.0 L211.3,420.0 L212.1,420.0 L213.0,420.0 L213.8,420.0 L214.6,420.0 L215.5,420.0 L216.3,420.0 L217.2,420.0 L218.0,420.0 L218.8,420.0 L219.7,420.0 L220.5,420.0 L221.4,420.0 L222.2,420.0 L223.1,420.0 L223.9,420.0 L224.7,420.0 L225.6,420.0 L226.4,420.0 L227.3,420.0 L228.1,420.0 L228.9,420.0 L229.8,420.0 L230.6,420.0 L231.5,420.0 L232.3,420.0 L233.2,420.0 L234.0,420.0 L234.8,420.0 L235.7,420.0 L236.5,420.0 L237.4,420.0 L238.2,420.0 L239.0,420.0 L239.9,420.0 L240.7,420.0 L241.6,420.0 L242.4,420.0 L243.3,420.0 L244.1,420.0 L244.9,420.0 L245.8,420.0 L246.6,420.0 L247.5,420.0 L248.3,420.0 L249.1,420.0 L250.0,420.0 L250.8,420.0 L251.7,420.0 L252.5,420.0 L253.4,420.0 L254.2,420.0 L255.0,420.0 L255.9,420.0 L256.7,420.0 L257.6,420.0 L258.4,420.0 L259.2,420.0 L260.1,420.0 L260.9,420.0 L261.8,420.0 L262.6,420.0 L263.5,420.0 L264.3,420.0 L265.1,420.0 L266.0,420.0 L266.8,420.0 L267.7,420.0 L268.5,420.0 L269.3,420.0 L270.2,420.0 L271.0,420.0 L271.9,420.0 L272.7,420.0 L273.5,420.0 L274.4,420.0 L275.2,420.0 L276.1,420.0 L276.9,420.0 L277.8,420.0 L278.6,420.0 L279.4,420.0 L280.3,420.0 L281.1,420.0 L282.0,420.0 L282.8,420.0 L283.6,420.0 L284.5,420.0 L285.3,420.0 L286.2,420.0 L287.0,420.0 L287.9,420.0 L288.7,420.0 L289.5,420.0 L290.4,420.0 L291.2,420.0 L292.1,420.0 L292.9,420.0 L293.7,420.0 L294.6,420.0 L295.4,420.0 L296.3,420.0 L297.1,420.0 L298.0,420.0 L298.8,420.0 L299.6,420.0 L300.5,420.0 L301.3,420.0 L302.2,420.0 L303.0,420.0 L303.8,420.0 L304.7,420.0 L305.5,420.0 L306.4,420.0 L307.2,420.0 L308.1,420.0 L308.9,420.0 L309.7,420.0 L310.6,420.0 L311.4,420.0 L312.3,420.0 L313.1,420.0 L313.9,420.0 L314.8,420.0 L315.6,420.0 L316.5,420.0 L317.3,420.0 L318.1,420.0 L319.0,420.0 L319.8,420.0 L320.7,420.0 L321.5,420.0 L322.4,420.0 L323.2,420.0 L324.0,420.0 L324.9,420.0 L325.7,420.0 L326.6,420.0 L327.4,420.0 L328.2,420.0 L329.1,420.0 L329.9,420.0 L330.8,420.0 L331.6,420.0 L332.5,420.0 L333.3,420.0 L334.1,420.0 L335.0,420.0 L335.8,420.0 L336.7,420.0 L337.5,420.0 L338.3,420.0 L339.2,420.0 L340.0,420.0 L340.9,420.0 L341.7,420.0 L342.6,420.0 L343.4,420.0 L344.2,420.0 L345.1,420.0 L345.9,420.0 L346.8,420.0 L347.6,420.0 L348.4,420.0 L349.3,420.0 L350.1,420.0 L351.0,420.0 L351.8,420.0 L352.7,420.0 L353.5,420.0 L354.3,420.0 L355.2,420.0 L356.0,420.0 L356.9,420.0 L357.7,420.0 L358.5,420.0 L359.4,420.0 L360.2,420.0 L361.1,420.0 L361.9,420.0 L362.7,420.0 L363.6,420.0 L364.4,420.0 L365.3,420.0 L366.1,420.0 L367.0,420.0 L367.8,420.0 L368.6,420.0 L369.5,420.0 L370.3,420.0 L371.2,420.0 L372.0,420.0 L372.8,420.0 L373.7,420.0 L374.5,420.0 L375.4,420.0 L376.2,420.0 L377.1,420.0 L377.9,420.0 L378.7,420.0 L379.6,420.0 L380.4,420.0 L381.3,420.0 L382.1,420.0 L382.9,420.0 L383.8,420.0 L384.6,420.0 L385.5,420.0 L386.3,420.0 L387.2,420.0 L388.0,420.0 L388.8,420.0 L389.7,420.0 L390.5,420.0 L391.4,420.0 L392.2,420.0 L393.0,420.0 L393.9,420.0 L394.7,420.0 L395.6,420.0 L396.4,420.0 L397.3,420.0 L398.1,420.0 L398.9,420.0 L399.8,420.0 L400.6,420.0 L401.5,420.0 L402.3,420.0 L403.1,420.0 L404.0,420.0 L404.8,420.0 L405.7,420.0 L406.5,420.0 L407.3,420.0 L408.2,420.0 L409.0,420.0 L409.9,420.0 L410.7,420.0 L411.6,420.0 L412.4,420.0 L413.2,420.0 L414.1,420.0 L414.9,420.0 L415.8,420.0 L416.6,420.0 L417.4,420.0 L418.3,420.0 L419.1,420.0 L420.0,420.0 L420.8,420.0 L421.7,420.0 L422.5,420.0 L423.3,420.0 L424.2,420.0 L425.0,420.0 L425.9,420.0 L426.7,420.0 L427.5,420.0 L428.4,420.0 L429.2,420.0 L430.1,420.0 L430.9,420.0 L431.8,420.0 L432.6,420.0 L433.4,420.0 L434.3,420.0 L435.1,420.0 L436.0,420.0 L436.8,420.0 L437.6,420.0 L438.5,420.0 L439.3,420.0 L440.2,420.0 L441.0,420.0 L441.9,420.0 L442.7,420.0 L443.5,420.0 L444.4,420.0 L445.2,420.0 L446.1,420.0 L446.9,420.0 L447.7,420.0 L448.6,420.0 L449.4,420.0 L450.3,420.0 L451.1,420.0 L451.9,420.0 L452.8,420.0 L453.6,420.0 L454.5,420.0 L455.3,420.0 L456.2,420.0 L457.0,420.0 L457.8,420.0 L458.7,420.0 L459.5,420.0 L460.4,420.0 L461.2,420.0 L462.0,420.0 L462.9,420.0 L463.7,420.0 L464.6,420.0 L465.4,420.0 L466.3,420.0 L467.1,420.0 L467.9,420.0 L468.8,420.0 L469.6,420.0 L470.5,420.0 L471.3,420.0 L472.1,420.0 L473.0,420.0 L473.8,420.0 L474.7,420.0 L475.5,420.0 L476.4,420.0 L477.2,420.0 L478.0,420.0 L478.9,420.0 L479.7,420.0 L480.6,420.0 L481.4,420.0 L482.2,420.0 L483.1,420.0 L483.9,420.0 L484.8,420.0 L485.6,420.0 L486.5,420.0 L487.3,420.0 L488.1,420.0 L489.0,420.0 L489.8,420.0 L490.7,420.0 L491.5,420.0 L492.3,420.0 L493.2,420.0 L494.0,420.0 L494.9,420.0 L495.7,420.0 L496.5,420.0 L497.4,420.0 L498.2,420.0 L499.1,420.0 L499.9,420.0 L500.8,420.0 L501.6,420.0 L502.4,420.0 L503.3,420.0 L504.1,420.0 L505.0,420.0 L505.8,420.0 L506.6,420.0 L507.5,420.0 L508.3,420.0 L509.2,420.0 L510.0,420.0 L510.9,420.0 L511.7,420.0 L512.5,420.0 L513.4,420.0 L514.2,420.0 L515.1,420.0 L515.9,420.0 L516.7,420.0 L517.6,420.0 L518.4,420.0 L519.3,420.0 L520.1,420.0 L521.0,420.0 L521.8,420.0 L522.6,420.0 L523.5,420.0 L524.3,420.0 L525.2,420.0 L526.0,420.0 L526.8,420.0 L527.7,420.0 L528.5,420.0 L529.4,420.0 L530.2,420.0 L531.1,420.0 L531.9,420.0 L532.7,420.0 L533.6,420.0 L534.4,420.0 L535.3,420.0 L536.1,420.0 L536.9,420.0 L537.8,420.0 L538.6,420.0 L539.5,420.0 L540.3,420.0 L541.2,420.0 L542.0,420.0 L542.8,420.0 L543.7,420.0 L544.5,420.0 L545.4,420.0 L546.2,420.0 L547.0,420.0 L547.9,420.0 L548.7,420.0 L549.6,420.0 L550.4,420.0 L551.2,420.0 L552.1,420.0 L552.9,420.0 L553.8,420.0 L554.6,420.0 L555.5,420.0 L556.3,420.0 L557.1,420.0 L558.0,420.0 L558.8,420.0 L559.7,420.0 L560.5,420.0 L561.3,420.0 L562.2,420.0 L563.0,420.0 L563.9,420.0 L564.7,420.0 L565.6,420.0 L566.4,420.0 L567.2,420.0 L568.1,420.0 L568.9,420.0 L569.8,420.0 L570.6,420.0 L571.4,420.0 L572.3,420.0 L573.1,420.0 L574.0,420.0 L574.8,420.0 L575.7,420.0 L576.5,420.0 L577.3,420.0 L578.2,420.0 L579.0,420.0 L579.9,420.0 L580.7,420.0 L581.5,420.0 L582.4,420.0 L583.2,420.0 L584.1,420.0 L584.9,420.0 L585.8,420.0 L586.6,420.0 L587.4,420.0 L588.3,420.0 L589.1,420.0 L590.0,420.0 L590.8,420.0 L591.6,420.0 L592.5,420.0 L593.3,420.0 L594.2,420.0 L595.0,420.0 L595.8,420.0 L596.7,420.0 L597.5,420.0 L598.4,420.0 L599.2,420.0 L600.1,420.0 L600.9,420.0 L601.7,420.0 L602.6,420.0 L603.4,420.0 L604.3,420.0 L605.1,420.0 L605.9,420.0 L606.8,420.0 L607.6,420.0 L608.5,420.0 L609.3,420.0 L610.2,420.0 L611.0,420.0 L611.8,420.0 L612.7,420.0 L613.5,420.0 L614.4,420.0 L615.2,420.0 L616.0,420.0 L616.9,420.0 L617.7,420.0 L618.6,420.0 L619.4,420.0 L620.3,420.0 L621.1,420.0 L621.9,420.0 L622.8,420.0 L623.6,420.0 L624.5,420.0 L625.3,420.0 L626.1,420.0 L627.0,420.0 L627.8,420.0 L628.7,420.0 L629.5,420.0 L630.4,420.0 L631.2,420.0 L632.0,420.0 L632.9,420.0 L633.7,420.0 L634.6,420.0 L635.4,420.0 L636.2,420.0 L637.1,420.0 L637.9,420.0 L638.8,420.0 L639.6,420.0 L640.4,420.0 L641.3,420.0 L642.1,420.0 L643.0,420.0 L643.8,420.0 L644.7,420.0 L645.5,420.0 L646.3,420.0 L647.2,420.0 L648.0,420.0 L648.9,420.0 L649.7,420.0 L650.5,420.0 L651.4,420.0 L652.2,420.0 L653.1,420.0 L653.9,420.0 L654.8,420.0 L655.6,420.0 L656.4,420.0 L657.3,420.0 L658.1,420.0 L659.0,420.0 L659.8,420.0 L660.6,420.0 L661.5,420.0 L662.3,420.0 L663.2,420.0 L664.0,420.0 L664.9,420.0 L665.7,420.0 L666.5,420.0 L667.4,420.0 L668.2,420.0 L669.1,420.0 L669.9,420.0 L670.7,420.0 L671.6,420.0 L672.4,420.0 L673.3,420.0 L674.1,420.0 L675.0,420.0 L675.8,420.0 L676.6,420.0 L677.5,420.0 L678.3,420.0 L679.2,420.0 L680.0,420.0" stroke="#e377c2" stroke-width="2" fill="none" opacity="0.8"/>

<!-- Legend -->
<line x1="690" y1="70" x2="705" y2="70" stroke="#1f77b4" stroke-width="3"/>
<text x="710" y="74" class="legend">Wind Generation</text>
<line x1="690" y1="88" x2="705" y2="88" stroke="#ff7f0e" stroke-width="3"/>
<text x="710" y="92" class="legend">Hydro Generation</text>
<line x1="690" y1="106" x2="705" y2="106" stroke="#2ca02c" stroke-width="3"/>
<text x="710" y="110" class="legend">Thermal Generation</text>
<line x1="690" y1="124" x2="705" y2="124" stroke="#d62728" stroke-width="3"/>
<text x="710" y="128" class="legend">Solar Generation</text>
<line x1="690" y1="142" x2="705" y2="142" stroke="#9467bd" stroke-width="3"/>
<text x="710" y="146" class="legend">Forecast</text>
<line x1="690" y1="160" x2="705" y2="160" stroke="#8c564b" stroke-width="3"/>
<text x="710" y="164" class="legend">Total Generation</text>
<line x1="690" y1="178" x2="705" y2="178" stroke="#e377c2" stroke-width="3"/>
<text x="710" y="182" class="legend">Forecast Difference</text>

<!-- Date range -->
<text x="80" y="495" class="legend">Range: 10/01 - 10/31/2025 (714 records)</text>
</svg>