<?xml version="1.0" encoding="UTF-8"?>
<svg width="800" height="500" xmlns="http://www.w3.org/2000/svg">
<style>
.axis-line { stroke: #333; stroke-width: 1; }
.grid-line { stroke: #ddd; stroke-width: 0.5; }
.title { font: 16px Arial; text-anchor: middle; fill: #333; }
.axis-label { font: 12px Arial; text-anchor: middle; fill: #666; }
.legend { font: 10px Arial; fill: #333; }
</style>

<!-- Title -->
<text x="400.0" y="25" class="title">Northwestern Energy Generation Data - Past 30 Days</text>

<!-- Plot area background -->
<rect x="80" y="50" width="600" height="370" fill="white" stroke="#ddd"/>

<!-- Y-axis -->
<line x1="80" y1="50" x2="80" y2="420" class="axis-line"/>
<text x="30" y="235.0" class="axis-label" transform="rotate(-90, 30, 235.0)">Generation (MW)</text>

<!-- X-axis -->
<line x1="80" y1="420" x2="680" y2="420" class="axis-line"/>
<text x="380.0" y="480" class="axis-label">Time</text>
<line x1="80" y1="420.0" x2="680" y2="420.0" class="grid-line"/>
<text x="70" y="425.0" class="legend" text-anchor="end">0</text>
<line x1="80" y1="327.5" x2="680" y2="327.5" class="grid-line"/>
<text x="70" y="332.5" class="legend" text-anchor="end">272</text>
<line x1="80" y1="235.0" x2="680" y2="235.0" class="grid-line"/>
<text x="70" y="240.0" class="legend" text-anchor="end">543</text>
<line x1="80" y1="142.5" x2="680" y2="142.5" class="grid-line"/>
<text x="70" y="147.5" class="legend" text-anchor="end">815</text>
<line x1="80" y1="50.0" x2="680" y2="50.0" class="grid-line"/>
<text x="70" y="55.0" class="legend" text-anchor="end">1087</text>
<!-- Wind Generation -->
<path d="M80.0,287.6 L80.8,287.6 L81.7,297.1 L82.5,299.8 L83.4,300.8 L84.2,311.4 L85.1,318.2 L85.9,342.0 L86.7,316.2 L87.6,353.9 L88.4,349.9 L89.3,365.2 L90.1,372.7 L91.0,370.3 L91.8,371.7 L92.6,368.9 L93.5,370.6 L94.3,380.5 L95.2,388.0 L96.0,391.4 L96.9,392.8 L97.7,395.8 L98.5,403.3 L99.4,400.9 L100.2,409.4 L101.1,413.9 L101.9,415.2 L102.8,416.3 L103.6,419.3 L104.4,418.0 L105.3,417.6 L106.1,417.6 L107.0,417.6 L107.8,414.2 L108.7,412.5 L109.5,414.6 L110.3,416.6 L111.2,419.7 L112.0,420.0 L112.9,420.0 L113.7,419.3 L114.6,419.0 L115.4,416.9 L116.2,412.9 L117.1,412.2 L117.9,410.5 L118.8,395.5 L119.6,388.3 L120.4,377.4 L121.3,369.3 L122.1,353.3 L123.0,355.7 L123.8,343.7 L124.7,337.3 L125.5,331.1 L126.3,311.1 L127.2,307.0 L128.0,300.8 L128.9,302.2 L129.7,302.5 L130.6,295.7 L131.4,292.0 L132.2,292.7 L133.1,288.9 L133.9,292.3 L134.8,286.5 L135.6,289.9 L136.5,288.2 L137.3,283.8 L138.1,285.5 L139.0,292.7 L139.8,298.8 L140.7,294.4 L141.5,293.0 L142.4,294.4 L143.2,300.8 L144.0,287.6 L144.9,311.1 L145.7,310.7 L146.6,302.2 L147.4,285.2 L148.3,284.5 L149.1,300.8 L149.9,302.9 L150.8,293.3 L151.6,287.2 L152.5,298.5 L153.3,293.0 L154.2,323.6 L155.0,356.3 L155.8,373.0 L156.7,360.4 L157.5,363.8 L158.4,377.4 L159.2,354.3 L160.1,356.7 L160.9,340.0 L161.7,316.8 L162.6,328.8 L163.4,357.7 L164.3,333.9 L165.1,341.7 L166.0,351.2 L166.8,336.6 L167.6,346.1 L168.5,360.1 L169.3,363.8 L170.2,362.1 L171.0,382.5 L171.9,399.2 L172.7,399.2 L173.5,403.3 L174.4,409.8 L175.2,400.9 L176.1,395.8 L176.9,382.2 L177.8,352.6 L178.6,340.3 L179.4,334.2 L180.3,341.0 L181.1,343.4 L182.0,337.6 L182.8,333.9 L183.7,334.5 L184.5,332.2 L185.3,328.1 L186.2,321.6 L187.0,335.9 L187.9,326.0 L188.7,330.5 L189.6,335.9 L190.4,319.6 L191.2,321.6 L192.1,319.2 L192.9,317.9 L193.8,315.5 L194.6,324.0 L195.4,324.3 L196.3,325.0 L197.1,319.2 L198.0,329.1 L198.8,324.7 L199.7,324.7 L200.5,322.3 L201.3,324.0 L202.2,323.3 L203.0,294.7 L203.9,310.4 L204.7,312.8 L205.6,309.3 L206.4,321.3 L207.2,337.9 L208.1,342.7 L208.9,346.8 L209.8,330.1 L210.6,340.7 L211.5,366.9 L212.3,382.2 L213.1,379.5 L214.0,397.5 L214.8,400.3 L215.7,398.2 L216.5,377.1 L217.4,352.2 L218.2,340.7 L219.0,327.1 L219.9,322.3 L220.7,321.9 L221.6,352.2 L222.4,383.2 L223.3,364.8 L224.1,364.8 L224.9,414.6 L225.8,410.1 L226.6,409.1 L227.5,396.8 L228.3,376.4 L229.2,335.2 L230.0,320.9 L230.8,315.1 L231.7,336.2 L232.5,353.3 L233.4,352.6 L234.2,357.7 L235.1,360.4 L235.9,355.0 L236.7,355.3 L237.6,344.1 L238.4,336.6 L239.3,356.7 L240.1,374.0 L241.0,403.7 L241.8,377.8 L242.6,374.7 L243.5,351.6 L244.3,326.7 L245.2,296.8 L246.0,276.7 L246.9,270.2 L247.7,282.8 L248.5,270.9 L249.4,273.3 L250.2,275.3 L251.1,275.6 L251.9,274.6 L252.8,274.3 L253.6,275.0 L254.4,275.0 L255.3,288.9 L256.1,278.0 L257.0,275.3 L257.8,309.3 L258.7,312.8 L259.5,270.9 L260.3,269.9 L261.2,286.5 L262.0,297.1 L262.9,300.8 L263.7,312.4 L264.6,295.7 L265.4,284.5 L266.2,284.2 L267.1,305.3 L267.9,273.9 L268.8,285.9 L269.6,290.3 L270.4,286.9 L271.3,287.9 L272.1,285.5 L273.0,287.2 L273.8,295.0 L274.7,300.2 L275.5,299.8 L276.3,295.4 L277.2,300.5 L278.0,285.5 L278.9,305.3 L279.7,293.3 L280.6,308.7 L281.4,298.8 L282.2,279.0 L283.1,307.0 L283.9,275.0 L284.8,280.7 L285.6,278.0 L286.5,282.8 L287.3,299.1 L288.1,289.6 L289.0,317.9 L289.8,325.4 L290.7,331.1 L291.5,370.0 L292.4,372.3 L293.2,349.2 L294.0,348.8 L294.9,340.7 L295.7,322.3 L296.6,309.0 L297.4,336.9 L298.3,332.8 L299.1,346.1 L299.9,320.6 L300.8,325.0 L301.6,345.4 L302.5,352.6 L303.3,325.4 L304.2,292.3 L305.0,314.1 L305.8,334.2 L306.7,327.4 L307.5,369.6 L308.4,362.1 L309.2,383.9 L310.1,391.1 L310.9,375.1 L311.7,372.0 L312.6,378.1 L313.4,399.6 L314.3,385.6 L315.1,360.1 L316.0,359.7 L316.8,349.5 L317.6,351.9 L318.5,327.7 L319.3,301.5 L320.2,307.6 L321.0,328.8 L321.9,315.8 L322.7,302.2 L323.5,302.9 L324.4,288.2 L325.2,293.3 L326.1,291.3 L326.9,293.3 L327.8,298.5 L328.6,293.3 L329.4,294.4 L330.3,302.2 L331.1,298.1 L332.0,301.5 L332.8,315.1 L333.7,320.6 L334.5,311.7 L335.3,311.1 L336.2,290.3 L337.0,289.6 L337.9,281.8 L338.7,279.4 L339.6,285.9 L340.4,293.0 L341.2,306.6 L342.1,304.9 L342.9,304.2 L343.8,316.2 L344.6,342.0 L345.4,333.2 L346.3,327.7 L347.1,342.0 L348.0,336.2 L348.8,349.2 L349.7,378.8 L350.5,388.0 L351.3,398.6 L352.2,409.1 L353.0,415.9 L353.9,419.0 L354.7,419.3 L355.6,419.7 L356.4,415.9 L357.2,407.7 L358.1,407.1 L358.9,404.0 L359.8,405.7 L360.6,402.6 L361.5,403.0 L362.3,401.6 L363.1,410.1 L364.0,412.5 L364.8,408.4 L365.7,398.9 L366.5,381.2 L367.4,334.2 L368.2,326.7 L369.0,334.2 L369.9,325.4 L370.7,309.0 L371.6,313.1 L372.4,324.3 L373.3,338.3 L374.1,344.4 L374.9,394.1 L375.8,411.8 L376.6,407.4 L377.5,405.0 L378.3,405.0 L379.2,409.8 L380.0,413.5 L380.8,412.2 L381.7,404.3 L382.5,389.4 L383.4,379.8 L384.2,364.2 L385.1,350.5 L385.9,340.0 L386.7,285.5 L387.6,282.5 L388.4,293.7 L389.3,301.2 L390.1,296.1 L391.0,320.6 L391.8,339.3 L392.6,320.2 L393.5,296.1 L394.3,288.6 L395.2,299.5 L396.0,312.4 L396.9,313.1 L397.7,320.6 L398.5,322.3 L399.4,321.6 L400.2,313.4 L401.1,325.7 L401.9,333.9 L402.8,335.2 L403.6,337.9 L404.4,344.4 L405.3,348.5 L406.1,318.9 L407.0,292.7 L407.8,287.6 L408.7,286.2 L409.5,292.3 L410.3,280.1 L411.2,282.1 L412.0,306.6 L412.9,308.7 L413.7,303.9 L414.6,292.0 L415.4,289.3 L416.2,312.4 L417.1,315.1 L417.9,319.2 L418.8,319.6 L419.6,313.8 L420.4,339.0 L421.3,325.7 L422.1,308.0 L423.0,283.1 L423.8,300.2 L424.7,284.8 L425.5,284.8 L426.3,297.4 L427.2,293.7 L428.0,324.7 L428.9,304.2 L429.7,302.2 L430.6,298.8 L431.4,308.7 L432.2,311.1 L433.1,330.5 L433.9,323.0 L434.8,338.3 L435.6,353.3 L436.5,330.5 L437.3,304.6 L438.1,317.9 L439.0,308.3 L439.8,298.5 L440.7,299.1 L441.5,286.5 L442.4,279.4 L443.2,300.2 L444.0,335.6 L444.9,355.0 L445.7,340.7 L446.6,333.9 L447.4,307.3 L448.3,299.8 L449.1,313.1 L449.9,361.1 L450.8,380.8 L451.6,383.9 L452.5,362.5 L453.3,352.2 L454.2,323.6 L455.0,288.2 L455.8,287.9 L456.7,304.2 L457.5,312.8 L458.4,302.5 L459.2,324.3 L460.1,363.5 L460.9,403.3 L461.7,415.6 L462.6,409.8 L463.4,408.4 L464.3,405.7 L465.1,399.6 L466.0,390.7 L466.8,373.0 L467.6,374.0 L468.5,370.3 L469.3,384.3 L470.2,378.8 L471.0,367.6 L471.9,359.1 L472.7,353.6 L473.5,348.5 L474.4,348.2 L475.2,349.5 L476.1,348.2 L476.9,349.5 L477.8,372.0 L478.6,379.1 L479.4,388.0 L480.3,372.7 L481.1,368.2 L482.0,375.1 L482.8,362.5 L483.7,369.6 L484.5,361.1 L485.3,370.3 L486.2,367.9 L487.0,332.8 L487.9,329.8 L488.7,327.1 L489.6,315.8 L490.4,312.1 L491.2,302.9 L492.1,318.5 L492.9,298.8 L493.8,299.8 L494.6,335.2 L495.4,337.3 L496.3,348.2 L497.1,349.2 L498.0,351.6 L498.8,330.1 L499.7,325.7 L500.5,329.1 L501.3,329.4 L502.2,328.1 L503.0,327.7 L503.9,326.0 L504.7,353.6 L505.6,334.5 L506.4,343.4 L507.2,328.4 L508.1,320.9 L508.9,321.6 L509.8,324.7 L510.6,337.9 L511.5,334.2 L512.3,327.4 L513.1,333.2 L514.0,329.4 L514.8,325.7 L515.7,329.4 L516.5,337.9 L517.4,326.4 L518.2,330.5 L519.0,330.1 L519.9,325.0 L520.7,326.0 L521.6,320.6 L522.4,319.9 L523.3,319.6 L524.1,321.3 L524.9,323.6 L525.8,329.4 L526.6,331.1 L527.5,335.9 L528.3,334.2 L529.2,361.8 L530.0,355.0 L530.8,359.1 L531.7,355.3 L532.5,394.1 L533.4,404.3 L534.2,396.8 L535.1,394.5 L535.9,394.1 L536.7,409.4 L537.6,408.4 L538.4,412.9 L539.3,415.6 L540.1,417.3 L541.0,414.9 L541.8,416.6 L542.6,415.9 L543.5,411.8 L544.3,400.9 L545.2,400.6 L546.0,412.5 L546.9,414.6 L547.7,409.1 L548.5,408.4 L549.4,404.3 L550.2,401.3 L551.1,403.7 L551.9,398.9 L552.8,401.6 L553.6,395.5 L554.4,376.8 L555.3,348.5 L556.1,348.8 L557.0,362.1 L557.8,350.2 L558.7,368.6 L559.5,356.0 L560.3,324.3 L561.2,324.0 L562.0,302.9 L562.9,334.2 L563.7,317.5 L564.6,334.2 L565.4,341.4 L566.2,361.4 L567.1,393.1 L567.9,402.3 L568.8,411.8 L569.6,406.7 L570.4,412.2 L571.3,412.2 L572.1,413.9 L573.0,414.9 L573.8,406.7 L574.7,403.3 L575.5,402.0 L576.3,391.4 L577.2,384.3 L578.0,389.7 L578.9,397.9 L579.7,397.5 L580.6,387.0 L581.4,399.6 L582.2,393.1 L583.1,367.6 L583.9,367.6 L584.8,390.7 L585.6,395.8 L586.5,408.8 L587.3,405.7 L588.1,395.5 L589.0,410.5 L589.8,418.0 L590.7,413.9 L591.5,401.6 L592.4,402.0 L593.2,414.6 L594.0,418.3 L594.9,418.0 L595.7,417.3 L596.6,418.3 L597.4,415.9 L598.3,415.9 L599.1,414.9 L599.9,407.4 L600.8,406.0 L601.6,415.9 L602.5,413.2 L603.3,412.5 L604.2,410.1 L605.0,405.0 L605.8,400.3 L606.7,408.1 L607.5,411.1 L608.4,415.2 L609.2,410.8 L610.1,417.3 L610.9,415.9 L611.7,414.9 L612.6,397.5 L613.4,379.1 L614.3,365.5 L615.1,361.1 L616.0,356.7 L616.8,360.4 L617.6,332.8 L618.5,306.3 L619.3,326.7 L620.2,333.9 L621.0,330.5 L621.9,306.6 L622.7,308.7 L623.5,344.8 L624.4,341.4 L625.2,336.2 L626.1,337.6 L626.9,346.8 L627.8,367.9 L628.6,367.9 L629.4,365.9 L630.3,350.5 L631.1,344.8 L632.0,364.8 L632.8,330.1 L633.7,311.7 L634.5,288.2 L635.3,348.8 L636.2,347.1 L637.0,331.5 L637.9,370.6 L638.7,374.4 L639.6,375.4 L640.4,367.6 L641.2,363.1 L642.1,360.4 L642.9,359.7 L643.8,300.8 L644.6,318.5 L645.4,329.4 L646.3,283.5 L647.1,276.3 L648.0,294.4 L648.8,298.5 L649.7,294.0 L650.5,283.8 L651.3,292.7 L652.2,320.6 L653.0,335.9 L653.9,339.7 L654.7,347.1 L655.6,357.7 L656.4,332.8 L657.2,320.6 L658.1,331.5 L658.9,289.9 L659.8,288.6 L660.6,294.4 L661.5,321.6 L662.3,325.7 L663.1,332.5 L664.0,334.5 L664.8,333.5 L665.7,316.8 L666.5,313.4 L667.4,330.1 L668.2,325.7 L669.0,304.6 L669.9,311.1 L670.7,321.3 L671.6,342.0 L672.4,347.8 L673.3,356.0 L674.1,353.6 L674.9,348.5 L675.8,341.4 L676.6,344.1 L677.5,337.9 L678.3,334.5 L679.2,310.4 L680.0,297.4" stroke="#1f77b4" stroke-width="2" fill="none" opacity="0.8"/>
<!-- Hydro Generation -->
<path d="M80.0,341.7 L80.8,342.4 L81.7,342.4 L82.5,341.7 L83.4,342.0 L84.2,342.4 L85.1,342.0 L85.9,342.0 L86.7,341.7 L87.6,342.0 L88.4,341.7 L89.3,342.0 L90.1,341.4 L91.0,342.4 L91.8,342.0 L92.6,343.1 L93.5,343.4 L94.3,344.1 L95.2,344.8 L96.0,345.8 L96.9,345.8 L97.7,345.1 L98.5,345.1 L99.4,344.4 L100.2,344.1 L101.1,343.7 L101.9,344.1 L102.8,344.4 L103.6,344.4 L104.4,344.1 L105.3,343.7 L106.1,344.1 L107.0,344.1 L107.8,343.7 L108.7,343.7 L109.5,344.1 L110.3,343.7 L111.2,343.7 L112.0,343.4 L112.9,343.4 L113.7,342.7 L114.6,343.1 L115.4,343.1 L116.2,343.1 L117.1,344.1 L117.9,343.4 L118.8,344.1 L119.6,344.4 L120.4,344.1 L121.3,343.7 L122.1,343.7 L123.0,343.4 L123.8,344.1 L124.7,344.1 L125.5,344.1 L126.3,343.7 L127.2,344.1 L128.0,344.8 L128.9,344.8 L129.7,346.1 L130.6,347.1 L131.4,349.2 L132.2,349.5 L133.1,351.6 L133.9,354.3 L134.8,355.7 L135.6,357.4 L136.5,359.4 L137.3,359.1 L138.1,358.4 L139.0,356.0 L139.8,354.3 L140.7,353.3 L141.5,349.9 L142.4,348.5 L143.2,346.5 L144.0,346.8 L144.9,346.5 L145.7,345.1 L146.6,344.8 L147.4,343.4 L148.3,344.4 L149.1,344.1 L149.9,342.4 L150.8,342.0 L151.6,342.0 L152.5,342.4 L153.3,342.4 L154.2,342.0 L155.0,341.4 L155.8,341.7 L156.7,342.0 L157.5,342.4 L158.4,342.0 L159.2,341.7 L160.1,340.0 L160.9,340.0 L161.7,338.6 L162.6,338.3 L163.4,339.0 L164.3,338.3 L165.1,339.0 L166.0,338.3 L166.8,338.3 L167.6,338.3 L168.5,337.9 L169.3,338.3 L170.2,338.3 L171.0,337.6 L171.9,338.3 L172.7,337.9 L173.5,338.6 L174.4,339.3 L175.2,341.0 L176.1,340.3 L176.9,342.0 L177.8,337.6 L178.6,338.3 L179.4,343.4 L180.3,344.8 L181.1,342.0 L182.0,342.4 L182.8,342.4 L183.7,344.1 L184.5,344.1 L185.3,345.4 L186.2,345.4 L187.0,344.1 L187.9,344.4 L188.7,344.4 L189.6,343.7 L190.4,344.4 L191.2,343.7 L192.1,343.7 L192.9,343.4 L193.8,343.4 L194.6,344.8 L195.4,341.4 L196.3,343.4 L197.1,343.7 L198.0,343.1 L198.8,343.4 L199.7,344.1 L200.5,344.1 L201.3,344.1 L202.2,343.4 L203.0,344.4 L203.9,344.8 L204.7,345.4 L205.6,344.8 L206.4,345.4 L207.2,345.1 L208.1,345.4 L208.9,344.8 L209.8,345.1 L210.6,344.4 L211.5,345.1 L212.3,345.1 L213.1,343.4 L214.0,343.7 L214.8,343.4 L215.7,343.7 L216.5,343.7 L217.4,343.1 L218.2,343.7 L219.0,343.7 L219.9,343.7 L220.7,343.7 L221.6,343.1 L222.4,343.7 L223.3,343.4 L224.1,343.4 L224.9,343.7 L225.8,343.7 L226.6,343.7 L227.5,343.7 L228.3,343.1 L229.2,343.4 L230.0,343.1 L230.8,343.7 L231.7,343.7 L232.5,343.4 L233.4,343.7 L234.2,343.4 L235.1,343.7 L235.9,343.1 L236.7,343.4 L237.6,343.1 L238.4,343.7 L239.3,343.4 L240.1,343.7 L241.0,343.4 L241.8,343.1 L242.6,343.1 L243.5,343.4 L244.3,343.4 L245.2,343.1 L246.0,343.1 L246.9,344.1 L247.7,343.7 L248.5,343.7 L249.4,343.4 L250.2,344.1 L251.1,343.7 L251.9,343.4 L252.8,343.4 L253.6,343.4 L254.4,344.1 L255.3,343.1 L256.1,343.1 L257.0,343.1 L257.8,343.1 L258.7,343.7 L259.5,344.1 L260.3,343.7 L261.2,342.4 L262.0,342.4 L262.9,343.1 L263.7,342.7 L264.6,342.7 L265.4,344.1 L266.2,344.8 L267.1,344.1 L267.9,344.1 L268.8,343.7 L269.6,343.7 L270.4,342.7 L271.3,343.7 L272.1,343.7 L273.0,343.7 L273.8,344.1 L274.7,343.4 L275.5,343.4 L276.3,343.7 L277.2,343.4 L278.0,343.1 L278.9,342.7 L279.7,343.1 L280.6,342.7 L281.4,342.7 L282.2,342.7 L283.1,342.4 L283.9,342.7 L284.8,342.4 L285.6,342.7 L286.5,342.7 L287.3,341.0 L288.1,341.7 L289.0,341.0 L289.8,341.7 L290.7,341.7 L291.5,341.4 L292.4,341.0 L293.2,341.0 L294.0,339.3 L294.9,339.7 L295.7,339.7 L296.6,339.7 L297.4,339.3 L298.3,340.7 L299.1,342.0 L299.9,341.0 L300.8,342.0 L301.6,341.4 L302.5,341.7 L303.3,341.0 L304.2,340.7 L305.0,339.0 L305.8,340.0 L306.7,340.3 L307.5,339.3 L308.4,339.3 L309.2,339.0 L310.1,339.7 L310.9,339.3 L311.7,339.3 L312.6,338.3 L313.4,338.6 L314.3,337.9 L315.1,337.9 L316.0,337.3 L316.8,347.5 L317.6,347.5 L318.5,347.1 L319.3,347.5 L320.2,336.9 L321.0,336.9 L321.9,336.2 L322.7,336.9 L323.5,336.9 L324.4,336.9 L325.2,336.6 L326.1,336.6 L326.9,336.6 L327.8,337.3 L328.6,337.3 L329.4,336.9 L330.3,336.6 L331.1,336.6 L332.0,336.6 L332.8,336.6 L333.7,336.9 L334.5,336.6 L335.3,335.9 L336.2,334.9 L337.0,335.2 L337.9,335.2 L338.7,333.2 L339.6,333.9 L340.4,331.8 L341.2,330.8 L342.1,330.8 L342.9,330.8 L343.8,330.8 L344.6,331.5 L345.4,332.5 L346.3,332.2 L347.1,332.5 L348.0,332.8 L348.8,332.5 L349.7,332.8 L350.5,332.8 L351.3,332.8 L352.2,333.5 L353.0,333.2 L353.9,332.8 L354.7,333.2 L355.6,332.8 L356.4,332.8 L357.2,332.5 L358.1,332.5 L358.9,332.5 L359.8,332.5 L360.6,332.2 L361.5,332.5 L362.3,332.8 L363.1,332.8 L364.0,333.2 L364.8,332.8 L365.7,333.2 L366.5,333.5 L367.4,332.8 L368.2,332.5 L369.0,332.8 L369.9,332.8 L370.7,332.8 L371.6,332.5 L372.4,333.5 L373.3,331.5 L374.1,331.5 L374.9,331.8 L375.8,331.8 L376.6,332.2 L377.5,331.5 L378.3,331.8 L379.2,331.5 L380.0,332.2 L380.8,332.5 L381.7,331.8 L382.5,331.5 L383.4,331.5 L384.2,332.8 L385.1,333.5 L385.9,333.5 L386.7,332.8 L387.6,333.2 L388.4,332.8 L389.3,333.2 L390.1,332.2 L391.0,332.5 L391.8,332.2 L392.6,332.2 L393.5,331.8 L394.3,332.2 L395.2,332.2 L396.0,331.8 L396.9,331.8 L397.7,331.8 L398.5,331.8 L399.4,331.8 L400.2,330.5 L401.1,330.1 L401.9,330.5 L402.8,330.5 L403.6,330.8 L404.4,330.8 L405.3,330.5 L406.1,332.2 L407.0,332.2 L407.8,332.2 L408.7,332.2 L409.5,332.2 L410.3,332.8 L411.2,332.2 L412.0,332.8 L412.9,330.8 L413.7,331.1 L414.6,331.1 L415.4,330.5 L416.2,331.1 L417.1,331.5 L417.9,331.5 L418.8,331.1 L419.6,331.1 L420.4,330.1 L421.3,330.1 L422.1,328.1 L423.0,327.7 L423.8,326.4 L424.7,327.1 L425.5,327.7 L426.3,327.7 L427.2,328.1 L428.0,328.1 L428.9,327.7 L429.7,327.7 L430.6,327.4 L431.4,328.1 L432.2,326.0 L433.1,325.4 L433.9,325.7 L434.8,326.0 L435.6,325.7 L436.5,325.4 L437.3,326.0 L438.1,325.7 L439.0,325.7 L439.8,325.7 L440.7,325.4 L441.5,326.0 L442.4,326.0 L443.2,326.4 L444.0,326.0 L444.9,326.0 L445.7,326.0 L446.6,326.0 L447.4,327.4 L448.3,327.4 L449.1,327.4 L449.9,327.7 L450.8,327.7 L451.6,328.1 L452.5,328.8 L453.3,328.8 L454.2,329.1 L455.0,328.4 L455.8,328.4 L456.7,356.3 L457.5,356.7 L458.4,358.0 L459.2,360.4 L460.1,359.4 L460.9,359.7 L461.7,358.7 L462.6,340.0 L463.4,364.5 L464.3,363.1 L465.1,342.7 L466.0,347.5 L466.8,339.3 L467.6,338.3 L468.5,337.6 L469.3,337.6 L470.2,337.6 L471.0,338.6 L471.9,337.6 L472.7,337.3 L473.5,337.6 L474.4,337.9 L475.2,337.3 L476.1,337.6 L476.9,334.2 L477.8,333.9 L478.6,335.2 L479.4,335.6 L480.3,333.9 L481.1,334.5 L482.0,334.5 L482.8,334.5 L483.7,334.5 L484.5,334.2 L485.3,334.9 L486.2,330.1 L487.0,328.8 L487.9,328.8 L488.7,328.4 L489.6,328.4 L490.4,328.4 L491.2,328.1 L492.1,327.7 L492.9,328.1 L493.8,327.7 L494.6,328.1 L495.4,328.1 L496.3,328.1 L497.1,328.4 L498.0,329.1 L498.8,327.7 L499.7,329.1 L500.5,330.1 L501.3,329.4 L502.2,329.8 L503.0,330.1 L503.9,329.8 L504.7,329.4 L505.6,329.8 L506.4,330.1 L507.2,329.8 L508.1,329.8 L508.9,329.8 L509.8,329.1 L510.6,329.1 L511.5,328.4 L512.3,328.8 L513.1,328.1 L514.0,328.4 L514.8,328.4 L515.7,328.4 L516.5,328.4 L517.4,328.8 L518.2,329.1 L519.0,329.4 L519.9,331.1 L520.7,330.8 L521.6,330.5 L522.4,330.8 L523.3,330.5 L524.1,330.8 L524.9,330.1 L525.8,330.5 L526.6,331.1 L527.5,330.8 L528.3,330.5 L529.2,330.1 L530.0,330.1 L530.8,330.8 L531.7,330.1 L532.5,330.8 L533.4,330.5 L534.2,330.5 L535.1,330.8 L535.9,330.5 L536.7,331.5 L537.6,331.5 L538.4,332.8 L539.3,332.8 L540.1,332.5 L541.0,332.8 L541.8,333.2 L542.6,333.2 L543.5,332.5 L544.3,332.8 L545.2,333.5 L546.0,333.5 L546.9,334.2 L547.7,334.2 L548.5,333.9 L549.4,334.2 L550.2,331.8 L551.1,331.5 L551.9,331.1 L552.8,329.8 L553.6,329.1 L554.4,329.1 L555.3,328.4 L556.1,327.7 L557.0,327.7 L557.8,328.1 L558.7,327.7 L559.5,328.8 L560.3,328.1 L561.2,327.7 L562.0,327.7 L562.9,327.4 L563.7,328.1 L564.6,328.1 L565.4,327.4 L566.2,327.7 L567.1,327.7 L567.9,327.4 L568.8,327.4 L569.6,327.7 L570.4,327.7 L571.3,329.4 L572.1,327.4 L573.0,327.7 L573.8,327.7 L574.7,326.4 L575.5,327.1 L576.3,327.4 L577.2,327.4 L578.0,328.1 L578.9,328.1 L579.7,329.1 L580.6,329.1 L581.4,329.4 L582.2,329.1 L583.1,329.1 L583.9,329.8 L584.8,330.5 L585.6,330.8 L586.5,331.8 L587.3,331.5 L588.1,331.5 L589.0,331.8 L589.8,331.8 L590.7,331.5 L591.5,331.5 L592.4,329.4 L593.2,330.5 L594.0,328.1 L594.9,328.1 L595.7,328.4 L596.6,328.4 L597.4,328.1 L598.3,328.8 L599.1,328.4 L599.9,328.4 L600.8,327.7 L601.6,327.7 L602.5,327.7 L603.3,327.7 L604.2,327.7 L605.0,327.4 L605.8,327.7 L606.7,327.1 L607.5,327.7 L608.4,327.7 L609.2,327.4 L610.1,327.4 L610.9,327.1 L611.7,327.1 L612.6,327.4 L613.4,327.4 L614.3,327.4 L615.1,327.1 L616.0,327.1 L616.8,327.4 L617.6,327.4 L618.5,327.4 L619.3,327.4 L620.2,328.1 L621.0,327.4 L621.9,327.4 L622.7,327.1 L623.5,327.7 L624.4,327.4 L625.2,327.7 L626.1,327.4 L626.9,327.4 L627.8,327.7 L628.6,327.4 L629.4,327.1 L630.3,327.4 L631.1,327.1 L632.0,327.1 L632.8,327.4 L633.7,327.1 L634.5,327.4 L635.3,325.4 L636.2,325.4 L637.0,325.4 L637.9,325.4 L638.7,325.4 L639.6,325.4 L640.4,324.3 L641.2,324.0 L642.1,324.3 L642.9,324.0 L643.8,324.0 L644.6,323.0 L645.4,323.3 L646.3,322.6 L647.1,323.0 L648.0,322.6 L648.8,322.6 L649.7,322.6 L650.5,324.7 L651.3,325.0 L652.2,325.0 L653.0,325.0 L653.9,325.0 L654.7,325.0 L655.6,325.0 L656.4,325.0 L657.2,325.0 L658.1,325.4 L658.9,325.4 L659.8,326.7 L660.6,327.4 L661.5,327.7 L662.3,329.1 L663.1,328.1 L664.0,329.1 L664.8,329.1 L665.7,329.1 L666.5,330.5 L667.4,330.5 L668.2,330.1 L669.0,330.5 L669.9,330.5 L670.7,330.8 L671.6,330.1 L672.4,329.4 L673.3,329.4 L674.1,330.5 L674.9,329.4 L675.8,330.1 L676.6,329.8 L677.5,330.5 L678.3,330.1 L679.2,330.8 L680.0,331.1" stroke="#ff7f0e" stroke-width="2" fill="none" opacity="0.8"/>
<!-- Thermal Generation -->
<path d="M80.0,330.1 L80.8,330.1 L81.7,330.1 L82.5,328.4 L83.4,329.8 L84.2,327.4 L85.1,328.4 L85.9,328.1 L86.7,331.5 L87.6,328.8 L88.4,327.7 L89.3,327.7 L90.1,328.1 L91.0,328.1 L91.8,327.4 L92.6,327.1 L93.5,329.4 L94.3,311.1 L95.2,315.8 L96.0,297.8 L96.9,295.7 L97.7,296.8 L98.5,296.4 L99.4,295.4 L100.2,279.7 L101.1,275.3 L101.9,277.7 L102.8,280.1 L103.6,276.7 L104.4,279.4 L105.3,285.9 L106.1,284.2 L107.0,286.9 L107.8,285.9 L108.7,285.9 L109.5,282.5 L110.3,287.6 L111.2,287.6 L112.0,287.9 L112.9,296.1 L113.7,306.6 L114.6,303.2 L115.4,303.2 L116.2,303.2 L117.1,303.2 L117.9,285.5 L118.8,285.9 L119.6,286.9 L120.4,282.8 L121.3,281.4 L122.1,288.6 L123.0,289.3 L123.8,289.3 L124.7,289.9 L125.5,290.6 L126.3,290.3 L127.2,300.8 L128.0,328.1 L128.9,328.4 L129.7,327.4 L130.6,292.0 L131.4,288.9 L132.2,291.6 L133.1,287.9 L133.9,296.4 L134.8,291.0 L135.6,286.5 L136.5,292.3 L137.3,288.9 L138.1,280.4 L139.0,288.6 L139.8,292.0 L140.7,274.6 L141.5,274.3 L142.4,281.8 L143.2,283.1 L144.0,286.5 L144.9,281.8 L145.7,303.9 L146.6,329.1 L147.4,329.1 L148.3,329.4 L149.1,329.1 L149.9,327.7 L150.8,328.4 L151.6,329.8 L152.5,297.1 L153.3,287.6 L154.2,313.1 L155.0,303.2 L155.8,308.7 L156.7,295.4 L157.5,276.7 L158.4,300.2 L159.2,299.5 L160.1,303.2 L160.9,280.7 L161.7,291.6 L162.6,323.0 L163.4,317.2 L164.3,317.2 L165.1,317.9 L166.0,307.6 L166.8,308.7 L167.6,321.6 L168.5,328.1 L169.3,328.1 L170.2,328.4 L171.0,329.1 L171.9,294.7 L172.7,286.5 L173.5,283.8 L174.4,277.0 L175.2,300.5 L176.1,313.4 L176.9,297.8 L177.8,314.5 L178.6,322.6 L179.4,313.4 L180.3,295.4 L181.1,276.0 L182.0,277.3 L182.8,281.1 L183.7,281.8 L184.5,282.5 L185.3,289.6 L186.2,310.0 L187.0,328.4 L187.9,328.8 L188.7,328.4 L189.6,329.8 L190.4,329.8 L191.2,328.4 L192.1,328.8 L192.9,295.4 L193.8,298.1 L194.6,312.1 L195.4,333.5 L196.3,333.9 L197.1,333.5 L198.0,331.8 L198.8,328.8 L199.7,317.5 L200.5,313.8 L201.3,276.3 L202.2,305.6 L203.0,312.4 L203.9,305.6 L204.7,314.1 L205.6,314.1 L206.4,313.4 L207.2,313.1 L208.1,313.4 L208.9,313.8 L209.8,314.1 L210.6,313.4 L211.5,313.4 L212.3,312.1 L213.1,311.7 L214.0,312.4 L214.8,312.4 L215.7,312.1 L216.5,309.3 L217.4,315.1 L218.2,314.8 L219.0,315.5 L219.9,315.5 L220.7,315.1 L221.6,302.9 L222.4,322.6 L223.3,340.3 L224.1,341.7 L224.9,348.2 L225.8,354.3 L226.6,353.9 L227.5,355.7 L228.3,355.0 L229.2,353.9 L230.0,353.3 L230.8,354.3 L231.7,353.6 L232.5,352.2 L233.4,351.6 L234.2,351.2 L235.1,351.2 L235.9,350.5 L236.7,350.9 L237.6,351.2 L238.4,351.6 L239.3,352.6 L240.1,351.9 L241.0,352.2 L241.8,353.6 L242.6,353.3 L243.5,354.3 L244.3,353.9 L245.2,351.9 L246.0,352.2 L246.9,351.9 L247.7,352.6 L248.5,351.6 L249.4,352.6 L250.2,352.9 L251.1,351.9 L251.9,351.9 L252.8,351.9 L253.6,350.9 L254.4,335.6 L255.3,352.6 L256.1,351.6 L257.0,351.2 L257.8,351.2 L258.7,351.2 L259.5,351.6 L260.3,351.6 L261.2,352.2 L262.0,303.2 L262.9,299.1 L263.7,340.0 L264.6,340.7 L265.4,350.9 L266.2,352.2 L267.1,344.4 L267.9,351.6 L268.8,351.2 L269.6,351.2 L270.4,351.2 L271.3,351.9 L272.1,351.2 L273.0,351.6 L273.8,307.6 L274.7,313.8 L275.5,352.2 L276.3,348.5 L277.2,352.9 L278.0,353.6 L278.9,351.9 L279.7,352.2 L280.6,351.2 L281.4,350.9 L282.2,310.0 L283.1,313.1 L283.9,346.5 L284.8,352.6 L285.6,352.9 L286.5,351.9 L287.3,352.2 L288.1,351.2 L289.0,350.5 L289.8,350.9 L290.7,352.2 L291.5,351.9 L292.4,345.8 L293.2,305.3 L294.0,299.1 L294.9,302.2 L295.7,318.9 L296.6,350.9 L297.4,345.1 L298.3,353.6 L299.1,326.7 L299.9,352.9 L300.8,347.1 L301.6,357.0 L302.5,315.5 L303.3,296.8 L304.2,300.2 L305.0,331.5 L305.8,322.3 L306.7,323.0 L307.5,318.2 L308.4,328.8 L309.2,339.7 L310.1,343.7 L310.9,348.5 L311.7,349.2 L312.6,341.7 L313.4,331.8 L314.3,311.1 L315.1,314.5 L316.0,346.1 L316.8,354.6 L317.6,352.9 L318.5,352.6 L319.3,351.9 L320.2,352.2 L321.0,352.6 L321.9,353.3 L322.7,357.0 L323.5,354.6 L324.4,353.6 L325.2,354.3 L326.1,353.3 L326.9,352.9 L327.8,352.2 L328.6,355.0 L329.4,353.9 L330.3,353.3 L331.1,357.4 L332.0,357.0 L332.8,354.6 L333.7,332.2 L334.5,302.9 L335.3,294.4 L336.2,349.9 L337.0,333.5 L337.9,333.5 L338.7,325.4 L339.6,325.4 L340.4,326.7 L341.2,325.0 L342.1,318.2 L342.9,291.0 L343.8,314.8 L344.6,318.2 L345.4,309.3 L346.3,317.9 L347.1,319.6 L348.0,318.2 L348.8,330.5 L349.7,339.7 L350.5,341.4 L351.3,342.4 L352.2,327.4 L353.0,307.3 L353.9,278.4 L354.7,266.8 L355.6,261.3 L356.4,303.9 L357.2,305.6 L358.1,307.6 L358.9,314.8 L359.8,313.8 L360.6,315.5 L361.5,314.5 L362.3,313.4 L363.1,257.6 L364.0,256.6 L364.8,268.5 L365.7,289.9 L366.5,302.9 L367.4,302.2 L368.2,313.8 L369.0,314.1 L369.9,313.4 L370.7,314.1 L371.6,314.5 L372.4,315.1 L373.3,315.1 L374.1,312.4 L374.9,312.1 L375.8,311.7 L376.6,315.5 L377.5,315.1 L378.3,315.5 L379.2,315.5 L380.0,315.1 L380.8,314.8 L381.7,315.1 L382.5,314.8 L383.4,279.7 L384.2,259.0 L385.1,295.7 L385.9,312.8 L386.7,314.5 L387.6,313.8 L388.4,313.1 L389.3,312.8 L390.1,313.8 L391.0,312.4 L391.8,312.8 L392.6,313.4 L393.5,312.8 L394.3,294.0 L395.2,282.8 L396.0,288.2 L396.9,313.1 L397.7,312.8 L398.5,313.1 L399.4,311.7 L400.2,312.1 L401.1,312.4 L401.9,313.1 L402.8,312.8 L403.6,289.9 L404.4,265.1 L405.3,310.4 L406.1,311.7 L407.0,311.7 L407.8,311.7 L408.7,311.7 L409.5,312.1 L410.3,311.4 L411.2,366.9 L412.0,367.6 L412.9,367.6 L413.7,355.0 L414.6,340.0 L415.4,312.4 L416.2,310.0 L417.1,311.7 L417.9,308.0 L418.8,306.3 L419.6,307.6 L420.4,307.6 L421.3,307.6 L422.1,308.3 L423.0,309.0 L423.8,309.7 L424.7,299.8 L425.5,310.0 L426.3,310.4 L427.2,347.1 L428.0,354.3 L428.9,363.5 L429.7,363.1 L430.6,363.8 L431.4,364.5 L432.2,364.2 L433.1,363.8 L433.9,363.5 L434.8,362.1 L435.6,353.6 L436.5,353.3 L437.3,353.3 L438.1,353.6 L439.0,367.2 L439.8,363.5 L440.7,367.2 L441.5,367.2 L442.4,367.6 L443.2,367.2 L444.0,367.6 L444.9,367.2 L445.7,348.5 L446.6,349.5 L447.4,348.2 L448.3,366.5 L449.1,367.2 L449.9,366.5 L450.8,366.5 L451.6,366.5 L452.5,367.2 L453.3,367.6 L454.2,367.6 L455.0,366.9 L455.8,367.6 L456.7,366.5 L457.5,367.6 L458.4,343.1 L459.2,343.7 L460.1,373.0 L460.9,342.7 L461.7,350.5 L462.6,351.2 L463.4,420.0 L464.3,420.0 L465.1,408.1 L466.0,408.8 L466.8,408.8 L467.6,406.0 L468.5,405.4 L469.3,396.2 L470.2,394.1 L471.0,399.6 L471.9,400.3 L472.7,400.3 L473.5,400.3 L474.4,399.9 L475.2,400.3 L476.1,399.9 L476.9,399.2 L477.8,399.6 L478.6,398.9 L479.4,399.6 L480.3,399.6 L481.1,392.1 L482.0,391.4 L482.8,394.1 L483.7,390.7 L484.5,390.7 L485.3,393.4 L486.2,384.9 L487.0,384.3 L487.9,386.3 L488.7,392.8 L489.6,392.8 L490.4,393.4 L491.2,400.3 L492.1,388.7 L492.9,387.3 L493.8,389.4 L494.6,389.4 L495.4,389.7 L496.3,389.7 L497.1,373.0 L498.0,358.7 L498.8,355.3 L499.7,338.6 L500.5,340.0 L501.3,336.6 L502.2,334.2 L503.0,347.5 L503.9,325.4 L504.7,317.5 L505.6,317.5 L506.4,317.9 L507.2,319.2 L508.1,320.6 L508.9,319.9 L509.8,356.3 L510.6,324.0 L511.5,336.6 L512.3,376.1 L513.1,375.7 L514.0,376.1 L514.8,376.4 L515.7,375.7 L516.5,359.4 L517.4,360.4 L518.2,353.3 L519.0,342.0 L519.9,340.3 L520.7,337.6 L521.6,355.7 L522.4,358.7 L523.3,361.8 L524.1,361.8 L524.9,337.9 L525.8,319.2 L526.6,339.7 L527.5,344.8 L528.3,338.6 L529.2,315.8 L530.0,349.9 L530.8,341.0 L531.7,355.7 L532.5,362.5 L533.4,362.5 L534.2,362.8 L535.1,354.3 L535.9,353.6 L536.7,341.7 L537.6,341.4 L538.4,344.1 L539.3,318.2 L540.1,324.0 L541.0,330.1 L541.8,329.1 L542.6,321.9 L543.5,327.1 L544.3,327.7 L545.2,298.1 L546.0,298.1 L546.9,305.6 L547.7,302.2 L548.5,318.5 L549.4,318.5 L550.2,318.2 L551.1,321.3 L551.9,331.5 L552.8,349.2 L553.6,369.6 L554.4,370.0 L555.3,370.6 L556.1,363.8 L557.0,349.5 L557.8,350.5 L558.7,342.4 L559.5,334.2 L560.3,321.9 L561.2,322.6 L562.0,337.9 L562.9,337.6 L563.7,350.5 L564.6,350.2 L565.4,335.6 L566.2,321.6 L567.1,305.3 L567.9,292.3 L568.8,295.7 L569.6,306.6 L570.4,331.8 L571.3,331.1 L572.1,332.2 L573.0,331.8 L573.8,330.8 L574.7,351.2 L575.5,334.9 L576.3,328.1 L577.2,328.8 L578.0,329.1 L578.9,330.8 L579.7,335.6 L580.6,330.8 L581.4,347.8 L582.2,357.0 L583.1,358.4 L583.9,329.8 L584.8,329.8 L585.6,330.1 L586.5,332.2 L587.3,329.8 L588.1,351.9 L589.0,329.4 L589.8,357.7 L590.7,358.4 L591.5,356.3 L592.4,356.7 L593.2,353.9 L594.0,356.7 L594.9,357.4 L595.7,356.7 L596.6,357.0 L597.4,331.1 L598.3,328.4 L599.1,328.4 L599.9,328.1 L600.8,328.8 L601.6,329.1 L602.5,332.2 L603.3,332.2 L604.2,351.6 L605.0,328.8 L605.8,329.1 L606.7,329.1 L607.5,356.3 L608.4,356.3 L609.2,357.0 L610.1,356.3 L610.9,356.3 L611.7,356.7 L612.6,356.7 L613.4,362.8 L614.3,379.5 L615.1,387.7 L616.0,387.7 L616.8,387.3 L617.6,387.3 L618.5,388.7 L619.3,388.0 L620.2,386.3 L621.0,387.0 L621.9,387.0 L622.7,388.0 L623.5,388.0 L624.4,387.7 L625.2,387.3 L626.1,387.0 L626.9,387.7 L627.8,387.0 L628.6,386.6 L629.4,387.0 L630.3,388.0 L631.1,387.3 L632.0,387.0 L632.8,387.0 L633.7,388.0 L634.5,387.7 L635.3,387.7 L636.2,387.0 L637.0,387.0 L637.9,387.7 L638.7,387.0 L639.6,387.7 L640.4,387.0 L641.2,387.3 L642.1,387.7 L642.9,388.3 L643.8,387.7 L644.6,388.0 L645.4,388.0 L646.3,387.0 L647.1,375.4 L648.0,378.1 L648.8,387.3 L649.7,385.6 L650.5,386.3 L651.3,386.0 L652.2,386.3 L653.0,386.6 L653.9,387.0 L654.7,386.6 L655.6,386.6 L656.4,387.0 L657.2,386.6 L658.1,386.6 L658.9,387.3 L659.8,387.0 L660.6,388.0 L661.5,387.3 L662.3,387.0 L663.1,387.0 L664.0,386.6 L664.8,386.3 L665.7,387.0 L666.5,387.3 L667.4,371.3 L668.2,370.3 L669.0,366.9 L669.9,359.1 L670.7,360.4 L671.6,371.3 L672.4,368.6 L673.3,371.7 L674.1,387.3 L674.9,386.6 L675.8,386.6 L676.6,387.7 L677.5,380.2 L678.3,357.0 L679.2,331.5 L680.0,357.7" stroke="#2ca02c" stroke-width="2" fill="none" opacity="0.8"/>
<!-- Solar Generation -->
<path d="M80.0,420.0 L80.8,420.0 L81.7,420.0 L82.5,420.0 L83.4,420.0 L84.2,420.0 L85.1,420.0 L85.9,420.0 L86.7,420.0 L87.6,420.0 L88.4,420.0 L89.3,420.0 L90.1,420.0 L91.0,420.0 L91.8,420.0 L92.6,420.0 L93.5,413.5 L94.3,405.0 L95.2,400.9 L96.0,401.3 L96.9,399.2 L97.7,393.8 L98.5,391.1 L99.4,413.2 L100.2,420.0 L101.1,420.0 L101.9,420.0 L102.8,420.0 L103.6,420.0 L104.4,420.0 L105.3,420.0 L106.1,420.0 L107.0,420.0 L107.8,420.0 L108.7,420.0 L109.5,420.0 L110.3,420.0 L111.2,420.0 L112.0,420.0 L112.9,420.0 L113.7,413.5 L114.6,405.7 L115.4,395.1 L116.2,395.8 L117.1,394.1 L117.9,394.5 L118.8,389.4 L119.6,407.4 L120.4,419.7 L121.3,420.0 L122.1,420.0 L123.0,420.0 L123.8,420.0 L124.7,420.0 L125.5,420.0 L126.3,420.0 L127.2,420.0 L128.0,420.0 L128.9,420.0 L129.7,420.0 L130.6,420.0 L131.4,420.0 L132.2,420.0 L133.1,419.7 L133.9,409.4 L134.8,403.0 L135.6,398.2 L136.5,401.6 L137.3,402.6 L138.1,403.3 L139.0,410.5 L139.8,417.6 L140.7,420.0 L141.5,420.0 L142.4,420.0 L143.2,420.0 L144.0,420.0 L144.9,420.0 L145.7,420.0 L146.6,420.0 L147.4,420.0 L148.3,420.0 L149.1,420.0 L149.9,420.0 L150.8,420.0 L151.6,420.0 L152.5,420.0 L153.3,420.0 L154.2,417.6 L155.0,413.2 L155.8,410.8 L156.7,408.4 L157.5,398.9 L158.4,405.4 L159.2,411.5 L160.1,417.6 L160.9,420.0 L161.7,420.0 L162.6,420.0 L163.4,420.0 L164.3,420.0 L165.1,420.0 L166.0,420.0 L166.8,420.0 L167.6,420.0 L168.5,420.0 L169.3,420.0 L170.2,420.0 L171.0,420.0 L171.9,420.0 L172.7,420.0 L173.5,420.0 L174.4,413.2 L175.2,404.3 L176.1,397.2 L176.9,395.1 L177.8,393.1 L178.6,391.4 L179.4,393.8 L180.3,409.8 L181.1,420.0 L182.0,420.0 L182.8,420.0 L183.7,420.0 L184.5,420.0 L185.3,420.0 L186.2,420.0 L187.0,420.0 L187.9,420.0 L188.7,420.0 L189.6,420.0 L190.4,420.0 L191.2,420.0 L192.1,420.0 L192.9,420.0 L193.8,420.0 L194.6,412.9 L195.4,405.0 L196.3,406.0 L197.1,405.7 L198.0,411.1 L198.8,410.5 L199.7,412.9 L200.5,416.9 L201.3,420.0 L202.2,420.0 L203.0,420.0 L203.9,420.0 L204.7,420.0 L205.6,420.0 L206.4,420.0 L207.2,420.0 L208.1,420.0 L208.9,420.0 L209.8,420.0 L210.6,420.0 L211.5,420.0 L212.3,420.0 L213.1,420.0 L214.0,420.0 L214.8,414.2 L215.7,393.8 L216.5,403.7 L217.4,404.3 L218.2,408.8 L219.0,398.6 L219.9,410.8 L220.7,417.6 L221.6,420.0 L222.4,420.0 L223.3,420.0 L224.1,420.0 L224.9,420.0 L225.8,420.0 L226.6,420.0 L227.5,420.0 L228.3,420.0 L229.2,420.0 L230.0,420.0 L230.8,420.0 L231.7,420.0 L232.5,420.0 L233.4,420.0 L234.2,420.0 L235.1,417.6 L235.9,409.4 L236.7,414.6 L237.6,413.5 L238.4,414.9 L239.3,412.2 L240.1,416.3 L241.0,418.3 L241.8,420.0 L242.6,420.0 L243.5,420.0 L244.3,420.0 L245.2,420.0 L246.0,420.0 L246.9,420.0 L247.7,420.0 L248.5,420.0 L249.4,420.0 L250.2,420.0 L251.1,420.0 L251.9,420.0 L252.8,420.0 L253.6,420.0 L254.4,420.0 L255.3,418.6 L256.1,414.2 L257.0,410.5 L257.8,406.0 L258.7,410.1 L259.5,411.5 L260.3,413.2 L261.2,416.9 L262.0,420.0 L262.9,420.0 L263.7,420.0 L264.6,420.0 L265.4,420.0 L266.2,420.0 L267.1,420.0 L267.9,420.0 L268.8,420.0 L269.6,420.0 L270.4,420.0 L271.3,420.0 L272.1,420.0 L273.0,420.0 L273.8,420.0 L274.7,420.0 L275.5,419.0 L276.3,407.1 L277.2,411.1 L278.0,402.6 L278.9,406.7 L279.7,414.2 L280.6,411.8 L281.4,417.6 L282.2,420.0 L283.1,420.0 L283.9,420.0 L284.8,420.0 L285.6,420.0 L286.5,420.0 L287.3,420.0 L288.1,420.0 L289.0,420.0 L289.8,420.0 L290.7,420.0 L291.5,420.0 L292.4,420.0 L293.2,420.0 L294.0,420.0 L294.9,420.0 L295.7,418.0 L296.6,412.5 L297.4,407.4 L298.3,405.7 L299.1,406.0 L299.9,403.3 L300.8,412.2 L301.6,415.6 L302.5,420.0 L303.3,420.0 L304.2,420.0 L305.0,420.0 L305.8,420.0 L306.7,420.0 L307.5,420.0 L308.4,420.0 L309.2,420.0 L310.1,420.0 L310.9,420.0 L311.7,420.0 L312.6,420.0 L313.4,420.0 L314.3,420.0 L315.1,420.0 L316.0,419.3 L316.8,416.6 L317.6,417.6 L318.5,413.9 L319.3,414.2 L320.2,404.0 L321.0,412.2 L321.9,418.0 L322.7,420.0 L323.5,420.0 L324.4,420.0 L325.2,420.0 L326.1,420.0 L326.9,420.0 L327.8,420.0 L328.6,420.0 L329.4,420.0 L330.3,420.0 L331.1,420.0 L332.0,420.0 L332.8,420.0 L333.7,420.0 L334.5,420.0 L335.3,420.0 L336.2,416.9 L337.0,414.6 L337.9,412.2 L338.7,410.8 L339.6,412.9 L340.4,412.5 L341.2,416.9 L342.1,418.6 L342.9,420.0 L343.8,420.0 L344.6,420.0 L345.4,420.0 L346.3,420.0 L347.1,420.0 L348.0,420.0 L348.8,420.0 L349.7,420.0 L350.5,420.0 L351.3,420.0 L352.2,420.0 L353.0,420.0 L353.9,420.0 L354.7,420.0 L355.6,420.0 L356.4,419.0 L357.2,417.3 L358.1,414.9 L358.9,409.4 L359.8,407.4 L360.6,410.1 L361.5,404.7 L362.3,415.2 L363.1,420.0 L364.0,420.0 L364.8,420.0 L365.7,420.0 L366.5,420.0 L367.4,420.0 L368.2,420.0 L369.0,420.0 L369.9,420.0 L370.7,420.0 L371.6,420.0 L372.4,420.0 L373.3,420.0 L374.1,420.0 L374.9,420.0 L375.8,420.0 L376.6,415.6 L377.5,409.4 L378.3,409.8 L379.2,412.2 L380.0,413.9 L380.8,405.4 L381.7,409.1 L382.5,409.8 L383.4,420.0 L384.2,420.0 L385.1,420.0 L385.9,420.0 L386.7,420.0 L387.6,420.0 L388.4,420.0 L389.3,420.0 L390.1,420.0 L391.0,420.0 L391.8,420.0 L392.6,420.0 L393.5,420.0 L394.3,420.0 L395.2,420.0 L396.0,419.7 L396.9,414.6 L397.7,399.2 L398.5,402.0 L399.4,399.9 L400.2,396.2 L401.1,393.1 L401.9,402.3 L402.8,407.7 L403.6,419.7 L404.4,420.0 L405.3,420.0 L406.1,420.0 L407.0,420.0 L407.8,420.0 L408.7,420.0 L409.5,420.0 L410.3,420.0 L411.2,420.0 L412.0,420.0 L412.9,420.0 L413.7,420.0 L414.6,420.0 L415.4,420.0 L416.2,420.0 L417.1,415.6 L417.9,393.4 L418.8,395.5 L419.6,404.3 L420.4,396.5 L421.3,396.5 L422.1,405.4 L423.0,418.0 L423.8,420.0 L424.7,420.0 L425.5,420.0 L426.3,420.0 L427.2,420.0 L428.0,420.0 L428.9,420.0 L429.7,420.0 L430.6,420.0 L431.4,420.0 L432.2,420.0 L433.1,420.0 L433.9,420.0 L434.8,420.0 L435.6,420.0 L436.5,420.0 L437.3,417.6 L438.1,410.8 L439.0,409.4 L439.8,409.1 L440.7,400.6 L441.5,395.1 L442.4,409.8 L443.2,415.2 L444.0,420.0 L444.9,420.0 L445.7,420.0 L446.6,420.0 L447.4,420.0 L448.3,420.0 L449.1,420.0 L449.9,420.0 L450.8,420.0 L451.6,420.0 L452.5,420.0 L453.3,420.0 L454.2,420.0 L455.0,420.0 L455.8,420.0 L456.7,420.0 L457.5,419.3 L458.4,418.6 L459.2,416.9 L460.1,417.3 L460.9,416.6 L461.7,408.1 L462.6,408.8 L463.4,418.3 L464.3,420.0 L465.1,420.0 L466.0,420.0 L466.8,420.0 L467.6,420.0 L468.5,420.0 L469.3,420.0 L470.2,420.0 L471.0,420.0 L471.9,420.0 L472.7,420.0 L473.5,420.0 L474.4,420.0 L475.2,420.0 L476.1,420.0 L476.9,420.0 L477.8,419.0 L478.6,416.9 L479.4,415.6 L480.3,414.2 L481.1,415.9 L482.0,415.6 L482.8,416.9 L483.7,419.0 L484.5,420.0 L485.3,420.0 L486.2,420.0 L487.0,420.0 L487.9,420.0 L488.7,420.0 L489.6,420.0 L490.4,420.0 L491.2,420.0 L492.1,420.0 L492.9,420.0 L493.8,420.0 L494.6,420.0 L495.4,420.0 L496.3,420.0 L497.1,420.0 L498.0,416.6 L498.8,414.6 L499.7,407.7 L500.5,412.5 L501.3,412.9 L502.2,415.9 L503.0,415.2 L503.9,419.0 L504.7,420.0 L505.6,420.0 L506.4,420.0 L507.2,420.0 L508.1,420.0 L508.9,420.0 L509.8,420.0 L510.6,420.0 L511.5,420.0 L512.3,420.0 L513.1,420.0 L514.0,420.0 L514.8,420.0 L515.7,420.0 L516.5,420.0 L517.4,420.0 L518.2,417.3 L519.0,402.3 L519.9,399.9 L520.7,399.6 L521.6,398.6 L522.4,397.2 L523.3,407.4 L524.1,414.6 L524.9,420.0 L525.8,420.0 L526.6,420.0 L527.5,420.0 L528.3,420.0 L529.2,420.0 L530.0,420.0 L530.8,420.0 L531.7,420.0 L532.5,420.0 L533.4,420.0 L534.2,420.0 L535.1,420.0 L535.9,420.0 L536.7,420.0 L537.6,420.0 L538.4,419.0 L539.3,416.9 L540.1,414.9 L541.0,412.2 L541.8,411.8 L542.6,415.2 L543.5,416.6 L544.3,418.6 L545.2,420.0 L546.0,420.0 L546.9,420.0 L547.7,420.0 L548.5,420.0 L549.4,420.0 L550.2,420.0 L551.1,420.0 L551.9,420.0 L552.8,420.0 L553.6,420.0 L554.4,420.0 L555.3,420.0 L556.1,420.0 L557.0,420.0 L557.8,420.0 L558.7,419.3 L559.5,416.6 L560.3,411.5 L561.2,410.1 L562.0,403.7 L562.9,400.9 L563.7,412.5 L564.6,415.9 L565.4,420.0 L566.2,420.0 L567.1,420.0 L567.9,420.0 L568.8,420.0 L569.6,420.0 L570.4,420.0 L571.3,420.0 L572.1,420.0 L573.0,420.0 L573.8,420.0 L574.7,420.0 L575.5,420.0 L576.3,420.0 L577.2,420.0 L578.0,420.0 L578.9,417.3 L579.7,406.0 L580.6,410.8 L581.4,409.4 L582.2,404.7 L583.1,409.4 L583.9,412.5 L584.8,416.6 L585.6,420.0 L586.5,420.0 L587.3,420.0 L588.1,420.0 L589.0,420.0 L589.8,420.0 L590.7,420.0 L591.5,420.0 L592.4,420.0 L593.2,420.0 L594.0,420.0 L594.9,420.0 L595.7,420.0 L596.6,420.0 L597.4,420.0 L598.3,420.0 L599.1,418.3 L599.9,412.9 L600.8,406.0 L601.6,404.7 L602.5,408.8 L603.3,404.3 L604.2,408.4 L605.0,418.0 L605.8,420.0 L606.7,420.0 L607.5,420.0 L608.4,420.0 L609.2,420.0 L610.1,420.0 L610.9,420.0 L611.7,420.0 L612.6,420.0 L613.4,420.0 L614.3,420.0 L615.1,420.0 L616.0,420.0 L616.8,420.0 L617.6,420.0 L618.5,420.0 L619.3,419.3 L620.2,398.9 L621.0,413.2 L621.9,400.9 L622.7,408.1 L623.5,407.4 L624.4,407.4 L625.2,415.6 L626.1,420.0 L626.9,420.0 L627.8,420.0 L628.6,420.0 L629.4,420.0 L630.3,420.0 L631.1,420.0 L632.0,420.0 L632.8,420.0 L633.7,420.0 L634.5,420.0 L635.3,420.0 L636.2,420.0 L637.0,420.0 L637.9,420.0 L638.7,420.0 L639.6,420.0 L640.4,406.0 L641.2,407.7 L642.1,409.4 L642.9,412.9 L643.8,408.4 L644.6,407.7 L645.4,413.9 L646.3,420.0 L647.1,420.0 L648.0,420.0 L648.8,420.0 L649.7,420.0 L650.5,420.0 L651.3,420.0 L652.2,420.0 L653.0,420.0 L653.9,420.0 L654.7,420.0 L655.6,420.0 L656.4,420.0 L657.2,420.0 L658.1,420.0 L658.9,420.0 L659.8,419.3 L660.6,407.7 L661.5,417.3 L662.3,416.6 L663.1,416.3 L664.0,415.9 L664.8,417.3 L665.7,418.0 L666.5,419.7 L667.4,420.0 L668.2,420.0 L669.0,420.0 L669.9,420.0 L670.7,420.0 L671.6,420.0 L672.4,420.0 L673.3,420.0 L674.1,420.0 L674.9,420.0 L675.8,420.0 L676.6,420.0 L677.5,420.0 L678.3,420.0 L679.2,420.0 L680.0,413.9" stroke="#d62728" stroke-width="2" fill="none" opacity="0.8"/>
<!-- Forecast -->
<path d="M80.0,113.6 L80.8,93.5 L81.7,87.0 L82.5,92.5 L83.4,103.4 L84.2,120.1 L85.1,144.9 L85.9,151.0 L86.7,178.3 L87.6,190.2 L88.4,195.0 L89.3,197.3 L90.1,197.0 L91.0,189.8 L91.8,172.8 L92.6,152.7 L93.5,131.6 L94.3,122.4 L95.2,119.7 L96.0,120.4 L96.9,123.1 L97.7,128.6 L98.5,132.6 L99.4,131.6 L100.2,120.4 L101.1,97.2 L101.9,92.5 L102.8,98.9 L103.6,109.2 L104.4,122.4 L105.3,138.1 L106.1,124.5 L107.0,160.9 L107.8,178.3 L108.7,183.7 L109.5,185.8 L110.3,182.7 L111.2,175.9 L112.0,158.5 L112.9,141.8 L113.7,127.2 L114.6,115.3 L115.4,108.8 L116.2,108.1 L117.1,113.6 L117.9,118.3 L118.8,122.4 L119.6,122.8 L120.4,110.2 L121.3,103.0 L122.1,98.6 L123.0,93.8 L123.8,89.4 L124.7,85.0 L125.5,94.9 L126.3,158.9 L127.2,172.5 L128.0,179.3 L128.9,185.4 L129.7,187.1 L130.6,185.1 L131.4,167.0 L132.2,135.4 L133.1,103.7 L133.9,89.1 L134.8,91.8 L135.6,97.2 L136.5,103.7 L137.3,109.5 L138.1,117.0 L139.0,121.4 L139.8,119.7 L140.7,108.1 L141.5,87.4 L142.4,81.6 L143.2,88.4 L144.0,102.0 L144.9,119.7 L145.7,146.3 L146.6,177.2 L147.4,174.9 L148.3,197.3 L149.1,207.9 L149.9,210.3 L150.8,206.5 L151.6,190.9 L152.5,158.9 L153.3,122.8 L154.2,106.8 L155.0,106.1 L155.8,109.8 L156.7,113.6 L157.5,120.1 L158.4,124.1 L159.2,126.9 L160.1,126.9 L160.9,118.3 L161.7,100.0 L162.6,94.2 L163.4,100.3 L164.3,111.5 L165.1,129.6 L166.0,154.4 L166.8,172.5 L167.6,192.2 L168.5,198.7 L169.3,202.4 L170.2,203.5 L171.0,199.0 L171.9,182.7 L172.7,148.6 L173.5,112.2 L174.4,96.9 L175.2,98.9 L176.1,103.4 L176.9,108.8 L177.8,114.6 L178.6,120.4 L179.4,122.8 L180.3,121.4 L181.1,110.2 L182.0,88.7 L182.8,82.9 L183.7,89.4 L184.5,101.3 L185.3,118.7 L186.2,145.2 L187.0,151.4 L187.9,189.2 L188.7,197.0 L189.6,202.8 L190.4,204.8 L191.2,202.1 L192.1,186.4 L192.9,153.1 L193.8,116.3 L194.6,100.6 L195.4,101.7 L196.3,106.4 L197.1,110.5 L198.0,117.3 L198.8,122.1 L199.7,124.5 L200.5,124.5 L201.3,116.3 L202.2,98.3 L203.0,93.2 L203.9,99.3 L204.7,110.9 L205.6,129.9 L206.4,154.4 L207.2,361.8 L208.1,192.6 L208.9,203.1 L209.8,207.6 L210.6,209.9 L211.5,206.5 L212.3,189.8 L213.1,157.5 L214.0,119.7 L214.8,103.4 L215.7,103.4 L216.5,107.1 L217.4,110.9 L218.2,117.3 L219.0,121.8 L219.9,124.1 L220.7,123.8 L221.6,115.3 L222.4,97.2 L223.3,92.1 L224.1,98.6 L224.9,111.5 L225.8,131.3 L226.6,155.5 L227.5,178.3 L228.3,194.6 L229.2,204.5 L230.0,209.9 L230.8,213.0 L231.7,213.0 L232.5,206.2 L233.4,189.2 L234.2,167.4 L235.1,146.6 L235.9,135.0 L236.7,130.9 L237.6,132.3 L238.4,134.7 L239.3,140.5 L240.1,144.6 L241.0,143.5 L241.8,135.4 L242.6,117.3 L243.5,113.2 L244.3,117.3 L245.2,126.9 L246.0,141.5 L246.9,160.2 L247.7,185.4 L248.5,193.9 L249.4,204.1 L250.2,209.6 L251.1,211.3 L251.9,209.9 L252.8,205.2 L253.6,192.9 L254.4,174.5 L255.3,157.8 L256.1,144.6 L257.0,135.0 L257.8,138.4 L258.7,144.2 L259.5,147.6 L260.3,148.3 L261.2,146.3 L262.0,139.1 L262.9,121.4 L263.7,112.9 L264.6,124.1 L265.4,137.4 L266.2,147.3 L267.1,165.7 L267.9,184.4 L268.8,198.0 L269.6,206.9 L270.4,211.6 L271.3,213.7 L272.1,210.3 L273.0,194.3 L273.8,163.3 L274.7,127.5 L275.5,108.8 L276.3,107.1 L277.2,109.8 L278.0,113.6 L278.9,119.4 L279.7,123.5 L280.6,126.2 L281.4,126.5 L282.2,118.7 L283.1,102.0 L283.9,96.6 L284.8,102.0 L285.6,116.3 L286.5,138.1 L287.3,160.6 L288.1,165.3 L289.0,198.7 L289.8,209.9 L290.7,217.1 L291.5,219.1 L292.4,218.1 L293.2,201.8 L294.0,167.4 L294.9,134.4 L295.7,115.6 L296.6,111.5 L297.4,112.6 L298.3,116.0 L299.1,120.7 L299.9,124.5 L300.8,127.5 L301.6,128.6 L302.5,121.1 L303.3,104.4 L304.2,98.3 L305.0,102.3 L305.8,116.3 L306.7,138.1 L307.5,159.9 L308.4,186.8 L309.2,198.4 L310.1,206.9 L310.9,212.7 L311.7,215.0 L312.6,212.7 L313.4,197.7 L314.3,166.4 L315.1,132.6 L316.0,113.9 L316.8,111.2 L317.6,112.9 L318.5,116.3 L319.3,121.4 L320.2,125.5 L321.0,129.6 L321.9,131.3 L322.7,124.8 L323.5,109.8 L324.4,104.0 L325.2,106.4 L326.1,123.1 L326.9,142.5 L327.8,165.3 L328.6,179.0 L329.4,200.7 L330.3,214.0 L331.1,220.8 L332.0,222.2 L332.8,221.5 L333.7,205.5 L334.5,168.4 L335.3,136.7 L336.2,119.7 L337.0,115.6 L337.9,116.0 L338.7,119.0 L339.6,122.1 L340.4,125.8 L341.2,128.9 L342.1,128.9 L342.9,120.1 L343.8,102.0 L344.6,94.9 L345.4,98.6 L346.3,111.9 L347.1,129.2 L348.0,153.1 L348.8,174.5 L349.7,190.9 L350.5,201.8 L351.3,207.6 L352.2,209.3 L353.0,206.2 L353.9,189.8 L354.7,156.5 L355.6,121.4 L356.4,102.7 L357.2,99.3 L358.1,100.3 L358.9,103.7 L359.8,108.5 L360.6,113.2 L361.5,115.6 L362.3,115.3 L363.1,108.5 L364.0,90.8 L364.8,85.0 L365.7,91.1 L366.5,105.8 L367.4,125.2 L368.2,150.0 L369.0,183.0 L369.9,195.6 L370.7,203.5 L371.6,209.3 L372.4,212.7 L373.3,217.4 L374.1,213.3 L374.9,191.5 L375.8,168.4 L376.6,148.0 L377.5,139.8 L378.3,132.6 L379.2,134.0 L380.0,136.7 L380.8,144.2 L381.7,147.6 L382.5,146.6 L383.4,139.8 L384.2,122.8 L385.1,118.3 L385.9,121.4 L386.7,130.9 L387.6,145.2 L388.4,165.7 L389.3,170.4 L390.1,199.4 L391.0,205.5 L391.8,210.6 L392.6,211.3 L393.5,209.3 L394.3,204.1 L395.2,193.6 L396.0,179.6 L396.9,166.4 L397.7,153.4 L398.5,140.5 L399.4,132.6 L400.2,138.8 L401.1,144.9 L401.9,152.7 L402.8,151.0 L403.6,147.6 L404.4,129.2 L405.3,120.4 L406.1,122.1 L407.0,135.0 L407.8,148.3 L408.7,165.7 L409.5,186.8 L410.3,199.0 L411.2,206.5 L412.0,211.6 L412.9,214.0 L413.7,211.0 L414.6,195.3 L415.4,165.3 L416.2,130.3 L417.1,111.2 L417.9,108.8 L418.8,111.2 L419.6,114.9 L420.4,120.1 L421.3,124.5 L422.1,128.2 L423.0,129.2 L423.8,122.4 L424.7,106.4 L425.5,100.6 L426.3,104.0 L427.2,119.7 L428.0,137.1 L428.9,162.3 L429.7,186.1 L430.6,201.8 L431.4,211.3 L432.2,218.1 L433.1,219.8 L433.9,218.4 L434.8,202.8 L435.6,166.7 L436.5,134.0 L437.3,116.6 L438.1,112.9 L439.0,113.6 L439.8,117.0 L440.7,120.7 L441.5,124.8 L442.4,128.9 L443.2,130.3 L444.0,123.8 L444.9,108.1 L445.7,102.3 L446.6,105.1 L447.4,121.4 L448.3,131.6 L449.1,161.2 L449.9,179.3 L450.8,199.0 L451.6,209.6 L452.5,215.7 L453.3,217.8 L454.2,217.4 L455.0,201.8 L455.8,166.4 L456.7,133.7 L457.5,115.3 L458.4,110.2 L459.2,110.5 L460.1,113.2 L460.9,118.0 L461.7,121.4 L462.6,123.5 L463.4,123.1 L464.3,114.9 L465.1,96.6 L466.0,90.4 L466.8,96.6 L467.6,108.5 L468.5,127.5 L469.3,151.7 L470.2,183.0 L471.0,193.6 L471.9,201.8 L472.7,206.9 L473.5,208.6 L474.4,204.8 L475.2,188.8 L476.1,157.5 L476.9,120.4 L477.8,103.4 L478.6,102.7 L479.4,106.4 L480.3,110.5 L481.1,116.6 L482.0,121.1 L482.8,123.5 L483.7,123.5 L484.5,116.0 L485.3,99.3 L486.2,97.9 L487.0,101.7 L487.9,115.6 L488.7,137.4 L489.6,161.6 L490.4,167.0 L491.2,199.4 L492.1,210.6 L492.9,217.1 L493.8,219.1 L494.6,218.8 L495.4,203.1 L496.3,167.0 L497.1,134.4 L498.0,116.3 L498.8,112.2 L499.7,112.6 L500.5,115.6 L501.3,119.7 L502.2,123.5 L503.0,125.8 L503.9,125.5 L504.7,117.0 L505.6,98.9 L506.4,92.8 L507.2,97.9 L508.1,109.5 L508.9,128.2 L509.8,152.4 L510.6,176.6 L511.5,191.5 L512.3,200.7 L513.1,206.5 L514.0,209.6 L514.8,208.6 L515.7,203.1 L516.5,187.8 L517.4,166.4 L518.2,146.9 L519.0,135.7 L519.9,132.3 L520.7,133.7 L521.6,136.4 L522.4,142.5 L523.3,144.9 L524.1,143.9 L524.9,136.1 L525.8,118.0 L526.6,112.6 L527.5,115.6 L528.3,125.2 L529.2,139.8 L530.0,157.8 L530.8,184.4 L531.7,192.6 L532.5,200.7 L533.4,205.5 L534.2,208.9 L535.1,208.9 L535.9,204.8 L536.7,192.9 L537.6,173.5 L538.4,155.8 L539.3,141.8 L540.1,132.6 L541.0,136.7 L541.8,144.6 L542.6,148.6 L543.5,147.3 L544.3,144.9 L545.2,138.4 L546.0,121.4 L546.9,112.2 L547.7,124.5 L548.5,138.4 L549.4,146.6 L550.2,165.0 L551.1,182.0 L551.9,197.3 L552.8,207.2 L553.6,212.7 L554.4,215.0 L555.3,212.7 L556.1,196.7 L557.0,166.0 L557.8,130.9 L558.7,111.9 L559.5,109.2 L560.3,110.9 L561.2,114.6 L562.0,119.4 L562.9,123.5 L563.7,126.2 L564.6,126.5 L565.4,119.0 L566.2,102.0 L567.1,96.2 L567.9,100.3 L568.8,113.9 L569.6,135.4 L570.4,157.8 L571.3,181.7 L572.1,195.6 L573.0,203.5 L573.8,208.2 L574.7,211.0 L575.5,207.2 L576.3,191.5 L577.2,160.6 L578.0,125.5 L578.9,106.4 L579.7,105.1 L580.6,108.1 L581.4,111.5 L582.2,117.7 L583.1,122.1 L583.9,124.8 L584.8,125.2 L585.6,118.0 L586.5,101.3 L587.3,95.2 L588.1,100.0 L589.0,113.6 L589.8,134.7 L590.7,157.5 L591.5,162.6 L592.4,197.0 L593.2,206.2 L594.0,212.0 L594.9,214.0 L595.7,211.3 L596.6,196.0 L597.4,165.3 L598.3,130.9 L599.1,111.9 L599.9,109.2 L600.8,110.9 L601.6,114.3 L602.5,119.0 L603.3,123.5 L604.2,126.5 L605.0,127.2 L605.8,120.1 L606.7,103.4 L607.5,97.2 L608.4,101.7 L609.2,115.3 L610.1,135.7 L610.9,158.2 L611.7,184.1 L612.6,202.1 L613.4,211.0 L614.3,216.7 L615.1,213.3 L616.0,208.6 L616.8,203.1 L617.6,192.9 L618.5,181.3 L619.3,167.4 L620.2,152.4 L621.0,138.8 L621.9,137.8 L622.7,145.6 L623.5,148.6 L624.4,149.3 L625.2,146.3 L626.1,141.2 L626.9,120.7 L627.8,112.2 L628.6,123.1 L629.4,137.1 L630.3,144.6 L631.1,163.6 L632.0,179.3 L632.8,195.3 L633.7,205.2 L634.5,210.3 L635.3,213.0 L636.2,210.3 L637.0,194.6 L637.9,164.7 L638.7,129.2 L639.6,109.8 L640.4,107.1 L641.2,109.5 L642.1,112.9 L642.9,118.0 L643.8,122.1 L644.6,124.8 L645.4,124.8 L646.3,117.3 L647.1,99.6 L648.0,93.8 L648.8,98.6 L649.7,111.5 L650.5,131.3 L651.3,154.4 L652.2,176.6 L653.0,192.2 L653.9,201.8 L654.7,206.9 L655.6,210.3 L656.4,208.9 L657.2,202.8 L658.1,186.8 L658.9,165.0 L659.8,143.9 L660.6,131.3 L661.5,127.2 L662.3,127.9 L663.1,129.9 L664.0,136.1 L664.8,139.1 L665.7,138.4 L666.5,130.3 L667.4,112.2 L668.2,108.8 L669.0,113.2 L669.9,123.1 L670.7,138.1 L671.6,157.2 L672.4,180.0 L673.3,191.9 L674.1,193.3 L674.9,197.7 L675.8,202.4 L676.6,202.8 L677.5,198.7 L678.3,188.1 L679.2,169.4 L680.0,164.7" stroke="#9467bd" stroke-width="2" fill="none" opacity="0.8"/>
<!-- Total Generation -->
<path d="M80.0,119.4 L80.8,120.1 L81.7,129.6 L82.5,129.9 L83.4,132.6 L84.2,141.2 L85.1,148.6 L85.9,172.1 L86.7,149.3 L87.6,184.7 L88.4,179.3 L89.3,195.0 L90.1,202.1 L91.0,200.7 L91.8,201.1 L92.6,199.0 L93.5,197.0 L94.3,180.7 L95.2,189.5 L96.0,176.2 L96.9,173.5 L97.7,171.5 L98.5,175.9 L99.4,193.9 L100.2,193.3 L101.1,193.3 L101.9,197.0 L102.8,200.7 L103.6,200.4 L104.4,201.4 L105.3,207.2 L106.1,205.8 L107.0,208.6 L107.8,203.8 L108.7,202.1 L109.5,201.1 L110.3,207.9 L111.2,211.0 L112.0,212.3 L112.9,219.5 L113.7,222.2 L114.6,211.0 L115.4,198.4 L116.2,195.0 L117.1,193.6 L117.9,173.8 L118.8,154.8 L119.6,167.0 L120.4,164.0 L121.3,154.4 L122.1,145.6 L123.0,148.3 L123.8,137.1 L124.7,131.3 L125.5,125.8 L126.3,105.1 L127.2,111.9 L128.0,133.7 L128.9,135.4 L129.7,136.1 L130.6,94.9 L131.4,90.1 L132.2,93.8 L133.1,88.0 L133.9,92.5 L134.8,76.1 L135.6,72.0 L136.5,81.6 L137.3,74.4 L138.1,67.6 L139.0,87.7 L139.8,102.7 L140.7,82.3 L141.5,77.2 L142.4,84.6 L143.2,90.4 L144.0,80.9 L144.9,99.3 L145.7,119.7 L146.6,136.1 L147.4,117.7 L148.3,118.3 L149.1,134.0 L149.9,133.0 L150.8,123.8 L151.6,119.0 L152.5,97.9 L153.3,82.9 L154.2,136.4 L155.0,154.1 L155.8,174.2 L156.7,146.3 L157.5,121.8 L158.4,165.0 L159.2,146.9 L160.1,157.5 L160.9,120.7 L161.7,107.1 L162.6,150.0 L163.4,173.8 L164.3,149.3 L165.1,158.5 L166.0,157.2 L166.8,143.5 L167.6,166.4 L168.5,186.1 L169.3,190.2 L170.2,188.8 L171.0,209.3 L171.9,192.2 L172.7,183.7 L173.5,185.8 L174.4,179.3 L175.2,186.8 L176.1,186.8 L176.9,157.2 L177.8,137.8 L178.6,132.6 L179.4,124.8 L180.3,130.9 L181.1,121.4 L182.0,117.3 L182.8,117.3 L183.7,120.4 L184.5,118.7 L185.3,123.1 L186.2,137.1 L187.0,168.4 L187.9,159.2 L188.7,163.3 L189.6,169.4 L190.4,153.8 L191.2,153.8 L192.1,151.7 L192.9,116.6 L193.8,117.0 L194.6,133.7 L195.4,144.2 L196.3,148.3 L197.1,142.2 L198.0,155.1 L198.8,147.3 L199.7,139.1 L200.5,137.1 L201.3,104.4 L202.2,132.3 L203.0,111.5 L203.9,120.7 L204.7,132.3 L205.6,128.2 L206.4,140.1 L207.2,156.1 L208.1,161.9 L208.9,165.3 L209.8,149.3 L210.6,158.5 L211.5,185.4 L212.3,199.4 L213.1,194.6 L214.0,213.7 L214.8,210.3 L215.7,187.8 L216.5,173.8 L217.4,154.8 L218.2,148.0 L219.0,124.8 L219.9,132.3 L220.7,138.4 L221.6,158.2 L222.4,209.6 L223.3,208.6 L224.1,209.9 L224.9,266.5 L225.8,268.2 L226.6,266.8 L227.5,256.2 L228.3,234.4 L229.2,192.6 L230.0,177.2 L230.8,173.2 L231.7,193.6 L232.5,208.9 L233.4,207.9 L234.2,212.3 L235.1,213.0 L235.9,198.0 L236.7,204.1 L237.6,191.9 L238.4,186.8 L239.3,204.8 L240.1,225.9 L241.0,257.6 L241.8,234.4 L242.6,231.0 L243.5,209.3 L244.3,184.1 L245.2,152.1 L246.0,132.3 L246.9,126.5 L247.7,139.5 L248.5,126.5 L249.4,129.6 L250.2,132.6 L251.1,131.6 L251.9,130.3 L252.8,129.6 L253.6,129.2 L254.4,114.6 L255.3,143.2 L256.1,126.9 L257.0,120.1 L257.8,149.7 L258.7,157.8 L259.5,118.0 L260.3,118.3 L261.2,138.1 L262.0,102.7 L262.9,103.0 L263.7,155.1 L264.6,139.1 L265.4,139.5 L266.2,141.2 L267.1,153.8 L267.9,129.6 L268.8,140.8 L269.6,145.2 L270.4,140.8 L271.3,143.5 L272.1,140.5 L273.0,142.5 L273.8,106.8 L274.7,117.3 L275.5,154.4 L276.3,134.7 L277.2,148.0 L278.0,124.8 L278.9,146.6 L279.7,142.9 L280.6,154.4 L281.4,150.0 L282.2,91.8 L283.1,122.4 L283.9,124.1 L284.8,135.7 L285.6,133.7 L286.5,137.4 L287.3,152.4 L288.1,142.9 L289.0,169.8 L289.8,178.3 L290.7,185.4 L291.5,223.2 L292.4,219.1 L293.2,155.5 L294.0,147.3 L294.9,142.5 L295.7,138.8 L296.6,152.1 L297.4,168.7 L298.3,172.8 L299.1,160.9 L299.9,157.8 L300.8,166.4 L301.6,199.4 L302.5,169.8 L303.3,123.1 L304.2,93.2 L305.0,144.6 L305.8,156.5 L306.7,150.7 L307.5,187.1 L308.4,190.2 L309.2,222.9 L310.1,234.4 L310.9,222.9 L311.7,220.5 L312.6,218.1 L313.4,230.0 L314.3,194.6 L315.1,172.5 L316.0,202.4 L316.8,208.2 L317.6,209.9 L318.5,181.3 L319.3,155.1 L320.2,140.8 L321.0,170.4 L321.9,163.3 L322.7,156.1 L323.5,154.4 L324.4,138.8 L325.2,144.2 L326.1,141.2 L326.9,142.9 L327.8,148.0 L328.6,145.6 L329.4,145.6 L330.3,152.1 L331.1,152.1 L332.0,155.1 L332.8,166.4 L333.7,149.7 L334.5,111.2 L335.3,101.3 L336.2,132.0 L337.0,112.9 L337.9,102.7 L338.7,88.7 L339.6,97.9 L340.4,104.0 L341.2,119.4 L342.1,112.6 L342.9,86.0 L343.8,121.8 L344.6,151.7 L345.4,135.0 L346.3,137.8 L347.1,154.1 L348.0,147.3 L348.8,172.1 L349.7,211.3 L350.5,222.2 L351.3,233.8 L352.2,230.0 L353.0,216.4 L353.9,190.2 L354.7,179.3 L355.6,173.8 L356.4,211.6 L357.2,203.1 L358.1,202.1 L358.9,200.7 L359.8,199.4 L360.6,200.4 L361.5,194.6 L362.3,203.1 L363.1,160.6 L364.0,162.3 L364.8,169.8 L365.7,182.0 L366.5,177.6 L367.4,129.2 L368.2,133.0 L369.0,141.2 L369.9,131.6 L370.7,116.0 L371.6,120.1 L372.4,133.0 L373.3,144.9 L374.1,148.3 L374.9,198.0 L375.8,215.4 L376.6,210.6 L377.5,201.1 L378.3,202.1 L379.2,208.9 L380.0,214.7 L380.8,204.8 L381.7,200.4 L382.5,185.4 L383.4,151.0 L384.2,116.0 L385.1,139.8 L385.9,146.3 L386.7,92.8 L387.6,89.4 L388.4,99.6 L389.3,107.1 L390.1,102.0 L391.0,125.5 L391.8,144.2 L392.6,125.8 L393.5,100.6 L394.3,74.8 L395.2,74.4 L396.0,92.1 L396.9,112.6 L397.7,104.4 L398.5,109.2 L399.4,105.1 L400.2,92.1 L401.1,101.3 L401.9,119.7 L402.8,126.2 L403.6,118.3 L404.4,100.3 L405.3,149.3 L406.1,122.8 L407.0,96.6 L407.8,91.5 L408.7,90.1 L409.5,96.6 L410.3,84.3 L411.2,141.2 L412.0,167.0 L412.9,167.0 L413.7,150.0 L414.6,123.1 L415.4,92.1 L416.2,113.6 L417.1,113.9 L417.9,92.1 L418.8,92.5 L419.6,96.9 L420.4,113.2 L421.3,100.0 L422.1,89.7 L423.0,77.8 L423.8,96.2 L424.7,71.7 L425.5,82.6 L426.3,95.5 L427.2,128.9 L428.0,167.0 L428.9,155.5 L429.7,153.1 L430.6,150.0 L431.4,161.2 L432.2,161.2 L433.1,179.6 L433.9,172.1 L434.8,186.4 L435.6,192.6 L436.5,169.1 L437.3,141.5 L438.1,148.0 L439.0,150.7 L439.8,136.7 L440.7,132.3 L441.5,114.9 L442.4,122.8 L443.2,149.0 L444.0,189.2 L444.9,208.2 L445.7,175.2 L446.6,169.4 L447.4,142.9 L448.3,153.8 L449.1,167.7 L449.9,215.4 L450.8,235.1 L451.6,238.5 L452.5,218.4 L453.3,208.6 L454.2,180.3 L455.0,143.5 L455.8,143.9 L456.7,187.1 L457.5,196.3 L458.4,162.3 L459.2,185.4 L460.1,253.2 L460.9,262.4 L461.7,272.9 L462.6,249.8 L463.4,351.6 L464.3,350.2 L465.1,310.4 L466.0,307.0 L466.8,281.1 L467.6,278.4 L468.5,273.3 L469.3,278.0 L470.2,270.5 L471.0,266.1 L471.9,256.9 L472.7,251.1 L473.5,246.4 L474.4,246.0 L475.2,247.0 L476.1,245.7 L476.9,243.0 L477.8,264.4 L478.6,270.2 L479.4,278.7 L480.3,260.3 L481.1,250.8 L482.0,256.6 L482.8,248.1 L483.7,253.9 L484.5,246.0 L485.3,258.6 L486.2,243.0 L487.0,205.8 L487.9,204.8 L488.7,208.2 L489.6,197.0 L490.4,193.9 L491.2,191.2 L492.1,195.0 L492.9,174.2 L493.8,176.9 L494.6,212.7 L495.4,215.0 L496.3,225.9 L497.1,210.6 L498.0,196.0 L498.8,167.7 L499.7,141.2 L500.5,151.7 L501.3,148.3 L502.2,148.0 L503.0,160.6 L503.9,140.1 L504.7,160.6 L505.6,141.8 L506.4,151.4 L507.2,137.4 L508.1,131.3 L508.9,131.3 L509.8,170.1 L510.6,151.0 L511.5,159.5 L512.3,192.2 L513.1,197.0 L514.0,193.9 L514.8,190.5 L515.7,193.6 L516.5,185.8 L517.4,175.5 L518.2,170.1 L519.0,143.9 L519.9,136.4 L520.7,134.0 L521.6,145.2 L522.4,146.6 L523.3,159.2 L524.1,168.4 L524.9,151.7 L525.8,139.1 L526.6,161.9 L527.5,171.5 L528.3,163.3 L529.2,167.7 L530.0,195.0 L530.8,190.9 L531.7,201.1 L532.5,247.4 L533.4,257.3 L534.2,250.1 L535.1,239.6 L535.9,238.2 L536.7,242.6 L537.6,241.3 L538.4,248.7 L539.3,223.6 L540.1,228.7 L541.0,230.0 L541.8,230.7 L542.6,226.3 L543.5,228.0 L544.3,220.1 L545.2,192.2 L546.0,204.1 L546.9,214.4 L547.7,205.5 L548.5,220.8 L549.4,217.1 L550.2,211.3 L551.1,216.4 L551.9,221.5 L552.8,240.6 L553.6,254.2 L554.4,235.8 L555.3,207.6 L556.1,200.4 L557.0,199.4 L557.8,188.8 L558.7,198.0 L559.5,175.5 L560.3,125.8 L561.2,124.5 L562.0,112.2 L562.9,140.1 L563.7,148.6 L564.6,168.4 L565.4,164.3 L566.2,170.8 L567.1,186.1 L567.9,182.0 L568.8,195.0 L569.6,201.1 L570.4,231.7 L571.3,232.7 L572.1,233.4 L573.0,234.4 L573.8,225.3 L574.7,240.9 L575.5,223.9 L576.3,206.9 L577.2,200.4 L578.0,206.9 L578.9,214.0 L579.7,208.2 L580.6,197.7 L581.4,226.3 L582.2,223.9 L583.1,204.5 L583.9,179.6 L584.8,207.6 L585.6,216.7 L586.5,232.7 L587.3,227.0 L588.1,238.9 L589.0,231.7 L589.8,267.5 L590.7,263.7 L591.5,249.8 L592.4,248.1 L593.2,259.3 L594.0,263.0 L594.9,263.4 L595.7,262.4 L596.6,263.7 L597.4,235.1 L598.3,233.1 L599.1,230.0 L599.9,216.7 L600.8,208.6 L601.6,217.4 L602.5,221.8 L603.3,216.7 L604.2,237.9 L605.0,219.1 L605.8,217.1 L606.7,224.2 L607.5,255.2 L608.4,259.3 L609.2,255.2 L610.1,261.0 L610.9,259.3 L611.7,258.6 L612.6,241.6 L613.4,229.3 L614.3,232.4 L615.1,235.8 L616.0,231.4 L616.8,235.1 L617.6,207.6 L618.5,182.4 L619.3,201.4 L620.2,187.1 L621.0,198.0 L621.9,161.9 L622.7,171.8 L623.5,207.9 L624.4,203.8 L625.2,206.9 L626.1,212.0 L626.9,221.8 L627.8,242.6 L628.6,241.9 L629.4,239.9 L630.3,225.9 L631.1,219.1 L632.0,238.9 L632.8,204.8 L633.7,187.1 L634.5,163.3 L635.3,221.8 L636.2,219.5 L637.0,203.8 L637.9,243.6 L638.7,246.7 L639.6,248.4 L640.4,224.9 L641.2,222.2 L642.1,221.8 L642.9,224.9 L643.8,160.9 L644.6,177.2 L645.4,194.6 L646.3,153.1 L647.1,134.7 L648.0,155.1 L648.8,168.4 L649.7,162.3 L650.5,154.8 L651.3,163.6 L652.2,191.9 L653.0,207.9 L653.9,211.6 L654.7,218.8 L655.6,229.3 L656.4,204.8 L657.2,192.2 L658.1,203.5 L658.9,162.6 L659.8,161.6 L660.6,157.5 L661.5,193.9 L662.3,198.4 L663.1,203.8 L664.0,206.2 L664.8,206.2 L665.7,190.9 L666.5,190.9 L667.4,191.9 L668.2,186.1 L669.0,161.9 L669.9,160.6 L670.7,172.5 L671.6,203.5 L672.4,205.8 L673.3,217.1 L674.1,231.4 L674.9,224.6 L675.8,218.1 L676.6,221.5 L677.5,208.6 L678.3,181.7 L679.2,132.6 L680.0,140.1" stroke="#8c564b" stroke-width="2" fill="none" opacity="0.8"/>
<!-- Forecast Difference -->
<path d="M80.0,420.0 L80.8,420.0 L81.7,420.0 L82.5,420.0 L83.4,420.0 L84.2,420.0 L85.1,420.0 L85.9,420.0 L86.7,420.0 L87.6,420.0 L88.4,420.0 L89.3,420.0 L90.1,420.0 L91.0,420.0 L91.8,420.0 L92.6,420.0 L93.5,420.0 L94.3,420.0 L95.2,420.0 L96.0,420.0 L96.9,420.0 L97.7,420.0 L98.5,420.0 L99.4,420.0 L100.2,420.0 L101.1,420.0 L101.9,420.0 L102.8,420.0 L103.6,420.0 L104.4,420.0 L105.3,420.0 L106.1,420.0 L107.0,420.0 L107.8,420.0 L108.7,420.0 L109.5,420.0 L110.3,420.0 L111.2,420.0 L112.0,420.0 L112.9,420.0 L113.7,420.0 L114.6,420.0 L115.4,420.0 L116.2,420.0 L117.1,420.0 L117.9,420.0 L118.8,420.0 L119.6,420.0 L120.4,420.0 L121.3,420.0 L122.1,420.0 L123.0,420.0 L123.8,420.0 L124.7,420.0 L125.5,420.0 L126.3,420.0 L127.2,420.0 L128.0,420.0 L128.9,420.0 L129.7,420.0 L130.6,420.0 L131.4,420.0 L132.2,420.0 L133.1,420.0 L133.9,420.0 L134.8,420.0 L135.6,420.0 L136.5,420.0 L137.3,420.0 L138.1,420.0 L139.0,420.0 L139.8,420.0 L140.7,420.0 L141.5,420.0 L142.4,420.0 L143.2,420.0 L144.0,420.0 L144.9,420.0 L145.7,420.0 L146.6,420.0 L147.4,420.0 L148.3,420.0 L149.1,420.0 L149.9,420.0 L150.8,420.0 L151.6,420.0 L152.5,420.0 L153.3,420.0 L154.2,420.0 L155.0,420.0 L155.8,420.0 L156.7,420.0 L157.5,420.0 L158.4,420.0 L159.2,420.0 L160.1,420.0 L160.9,420.0 L161.7,420.0 L162.6,420.0 L163.4,420.0 L164.3,420.0 L165.1,420.0 L166.0,420.0 L166.8,420.0 L167.6,420.0 L168.5,420.0 L169.3,420.0 L170.2,420.0 L171.0,420.0 L171.9,420.0 L172.7,420.0 L173.5,420.0 L174.4,420.0 L175.2,420.0 L176.1,420.0 L176.9,420.0 L177.8,420.0 L178.6,420.0 L179.4,420.0 L180.3,420.0 L181.1,420.0 L182.0,420.0 L182.8,420.0 L183.7,420.0 L184.5,420.0 L185.3,420.0 L186.2,420.0 L187.0,420.0 L187.9,420.0 L188.7,420.0 L189.6,420.0 L190.4,420.0 L191.2,420.0 L192.1,420.0 L192.9,420.0 L193.8,420.0 L194.6,420.0 L195.4,420.0 L196.3,420.0 L197.1,420.0 L198.0,420.0 L198.8,420.0 L199.7,420.0 L200.5,420.0 L201.3,420.0 L202.2,420.0 L203.0,420.0 L203.9,420.0 L204.7,420.0 L205.6,420.0 L206.4,420.0 L207.2,420.0 L208.1,420.0 L208.9,420.0 L209.8,420.0 L210.6,420.0 L211.5,420.0 L212.3,420.0 L213.1,420.0 L214.0,420.0 L214.8,420.0 L215.7,420.0 L216.5,420.0 L217.4,420.0 L218.2,420.0 L219.0,420.0 L219.9,420.0 L220.7,420.0 L221.6,420.0 L222.4,420.0 L223.3,420.0 L224.1,420.0 L224.9,420.0 L225.8,420.0 L226.6,420.0 L227.5,420.0 L228.3,420.0 L229.2,420.0 L230.0,420.0 L230.8,420.0 L231.7,420.0 L232.5,420.0 L233.4,420.0 L234.2,420.0 L235.1,420.0 L235.9,420.0 L236.7,420.0 L237.6,420.0 L238.4,420.0 L239.3,420.0 L240.1,420.0 L241.0,420.0 L241.8,420.0 L242.6,420.0 L243.5,420.0 L244.3,420.0 L245.2,420.0 L246.0,420.0 L246.9,420.0 L247.7,420.0 L248.5,420.0 L249.4,420.0 L250.2,420.0 L251.1,420.0 L251.9,420.0 L252.8,420.0 L253.6,420.0 L254.4,420.0 L255.3,420.0 L256.1,420.0 L257.0,420.0 L257.8,420.0 L258.7,420.0 L259.5,420.0 L260.3,420.0 L261.2,420.0 L262.0,420.0 L262.9,420.0 L263.7,420.0 L264.6,420.0 L265.4,420.0 L266.2,420.0 L267.1,420.0 L267.9,420.0 L268.8,420.0 L269.6,420.0 L270.4,420.0 L271.3,420.0 L272.1,420.0 L273.0,420.0 L273.8,420.0 L274.7,420.0 L275.5,420.0 L276.3,420.0 L277.2,420.0 L278.0,420.0 L278.9,420.0 L279.7,420.0 L280.6,420.0 L281.4,420.0 L282.2,420.0 L283.1,420.0 L283.9,420.0 L284.8,420.0 L285.6,420.0 L286.5,420.0 L287.3,420.0 L288.1,420.0 L289.0,420.0 L289.8,420.0 L290.7,420.0 L291.5,420.0 L292.4,420.0 L293.2,420.0 L294.0,420.0 L294.9,420.0 L295.7,420.0 L296.6,420.0 L297.4,420.0 L298.3,420.0 L299.1,420.0 L299.9,420.0 L300.8,420.0 L301.6,420.0 L302.5,420.0 L303.3,420.0 L304.2,420.0 L305.0,420.0 L305.8,420.0 L306.7,420.0 L307.5,420.0 L308.4,420.0 L309.2,420.0 L310.1,420.0 L310.9,420.0 L311.7,420.0 L312.6,420.0 L313.4,420.0 L314.3,420.0 L315.1,420.0 L316.0,420.0 L316.8,420.0 L317.6,420.0 L318.5,420.0 L319.3,420.0 L320.2,420.0 L321.0,420.0 L321.9,420.0 L322.7,420.0 L323.5,420.0 L324.4,420.0 L325.2,420.0 L326.1,420.0 L326.9,420.0 L327.8,420.0 L328.6,420.0 L329.4,420.0 L330.3,420.0 L331.1,420.0 L332.0,420.0 L332.8,420.0 L333.7,420.0 L334.5,420.0 L335.3,420.0 L336.2,420.0 L337.0,420.0 L337.9,420.0 L338.7,420.0 L339.6,420.0 L340.4,420.0 L341.2,420.0 L342.1,420.0 L342.9,420.0 L343.8,420.0 L344.6,420.0 L345.4,420.0 L346.3,420.0 L347.1,420.0 L348.0,420.0 L348.8,420.0 L349.7,420.0 L350.5,420.0 L351.3,420.0 L352.2,420.0 L353.0,420.0 L353.9,420.0 L354.7,420.0 L355.6,420.0 L356.4,420.0 L357.2,420.0 L358.1,420.0 L358.9,420.0 L359.8,420.0 L360.6,420.0 L361.5,420.0 L362.3,420.0 L363.1,420.0 L364.0,420.0 L364.8,420.0 L365.7,420.0 L366.5,420.0 L367.4,420.0 L368.2,420.0 L369.0,420.0 L369.9,420.0 L370.7,420.0 L371.6,420.0 L372.4,420.0 L373.3,420.0 L374.1,420.0 L374.9,420.0 L375.8,420.0 L376.6,420.0 L377.5,420.0 L378.3,420.0 L379.2,420.0 L380.0,420.0 L380.8,420.0 L381.7,420.0 L382.5,420.0 L383.4,420.0 L384.2,420.0 L385.1,420.0 L385.9,420.0 L386.7,420.0 L387.6,420.0 L388.4,420.0 L389.3,420.0 L390.1,420.0 L391.0,420.0 L391.8,420.0 L392.6,420.0 L393.5,420.0 L394.3,420.0 L395.2,420.0 L396.0,420.0 L396.9,420.0 L397.7,420.0 L398.5,420.0 L399.4,420.0 L400.2,420.0 L401.1,420.0 L401.9,420.0 L402.8,420.0 L403.6,420.0 L404.4,420.0 L405.3,420.0 L406.1,420.0 L407.0,420.0 L407.8,420.0 L408.7,420.0 L409.5,420.0 L410.3,420.0 L411.2,420.0 L412.0,420.0 L412.9,420.0 L413.7,420.0 L414.6,420.0 L415.4,420.0 L416.2,420.0 L417.1,420.0 L417.9,420.0 L418.8,420.0 L419.6,420.0 L420.4,420.0 L421.3,420.0 L422.1,420.0 L423.0,420.0 L423.8,420.0 L424.7,420.0 L425.5,420.0 L426.3,420.0 L427.2,420.0 L428.0,420.0 L428.9,420.0 L429.7,420.0 L430.6,420.0 L431.4,420.0 L432.2,420.0 L433.1,420.0 L433.9,420.0 L434.8,420.0 L435.6,420.0 L436.5,420.0 L437.3,420.0 L438.1,420.0 L439.0,420.0 L439.8,420.0 L440.7,420.0 L441.5,420.0 L442.4,420.0 L443.2,420.0 L444.0,420.0 L444.9,420.0 L445.7,420.0 L446.6,420.0 L447.4,420.0 L448.3,420.0 L449.1,420.0 L449.9,420.0 L450.8,420.0 L451.6,420.0 L452.5,420.0 L453.3,420.0 L454.2,420.0 L455.0,420.0 L455.8,420.0 L456.7,420.0 L457.5,420.0 L458.4,420.0 L459.2,420.0 L460.1,420.0 L460.9,420.0 L461.7,420.0 L462.6,420.0 L463.4,420.0 L464.3,420.0 L465.1,420.0 L466.0,420.0 L466.8,420.0 L467.6,420.0 L468.5,420.0 L469.3,420.0 L470.2,420.0 L471.0,420.0 L471.9,420.0 L472.7,420.0 L473.5,420.0 L474.4,420.0 L475.2,420.0 L476.1,420.0 L476.9,420.0 L477.8,420.0 L478.6,420.0 L479.4,420.0 L480.3,420.0 L481.1,420.0 L482.0,420.0 L482.8,420.0 L483.7,420.0 L484.5,420.0 L485.3,420.0 L486.2,420.0 L487.0,420.0 L487.9,420.0 L488.7,420.0 L489.6,420.0 L490.4,420.0 L491.2,420.0 L492.1,420.0 L492.9,420.0 L493.8,420.0 L494.6,420.0 L495.4,420.0 L496.3,420.0 L497.1,420.0 L498.0,420.0 L498.8,420.0 L499.7,420.0 L500.5,420.0 L501.3,420.0 L502.2,420.0 L503.0,420.0 L503.9,420.0 L504.7,420.0 L505.6,420.0 L506.4,420.0 L507.2,420.0 L508.1,420.0 L508.9,420.0 L509.8,420.0 L510.6,420.0 L511.5,420.0 L512.3,420.0 L513.1,420.0 L514.0,420.0 L514.8,420.0 L515.7,420.0 L516.5,420.0 L517.4,420.0 L518.2,420.0 L519.0,420.0 L519.9,420.0 L520.7,420.0 L521.6,420.0 L522.4,420.0 L523.3,420.0 L524.1,420.0 L524.9,420.0 L525.8,420.0 L526.6,420.0 L527.5,420.0 L528.3,420.0 L529.2,420.0 L530.0,420.0 L530.8,420.0 L531.7,420.0 L532.5,420.0 L533.4,420.0 L534.2,420.0 L535.1,420.0 L535.9,420.0 L536.7,420.0 L537.6,420.0 L538.4,420.0 L539.3,420.0 L540.1,420.0 L541.0,420.0 L541.8,420.0 L542.6,420.0 L543.5,420.0 L544.3,420.0 L545.2,420.0 L546.0,420.0 L546.9,420.0 L547.7,420.0 L548.5,420.0 L549.4,420.0 L550.2,420.0 L551.1,420.0 L551.9,420.0 L552.8,420.0 L553.6,420.0 L554.4,420.0 L555.3,420.0 L556.1,420.0 L557.0,420.0 L557.8,420.0 L558.7,420.0 L559.5,420.0 L560.3,420.0 L561.2,420.0 L562.0,420.0 L562.9,420.0 L563.7,420.0 L564.6,420.0 L565.4,420.0 L566.2,420.0 L567.1,420.0 L567.9,420.0 L568.8,420.0 L569.6,420.0 L570.4,420.0 L571.3,420.0 L572.1,420.0 L573.0,420.0 L573.8,420.0 L574.7,420.0 L575.5,420.0 L576.3,420.0 L577.2,420.0 L578.0,420.0 L578.9,420.0 L579.7,420.0 L580.6,420.0 L581.4,420.0 L582.2,420.0 L583.1,420.0 L583.9,420.0 L584.8,420.0 L585.6,420.0 L586.5,420.0 L587.3,420.0 L588.1,420.0 L589.0,420.0 L589.8,420.0 L590.7,420.0 L591.5,420.0 L592.4,420.0 L593.2,420.0 L594.0,420.0 L594.9,420.0 L595.7,420.0 L596.6,420.0 L597.4,420.0 L598.3,420.0 L599.1,420.0 L599.9,420.0 L600.8,420.0 L601.6,420.0 L602.5,420.0 L603.3,420.0 L604.2,420.0 L605.0,420.0 L605.8,420.0 L606.7,420.0 L607.5,420.0 L608.4,420.0 L609.2,420.0 L610.1,420.0 L610.9,420.0 L611.7,420.0 L612.6,420.0 L613.4,420.0 L614.3,420.0 L615.1,420.0 L616.0,420.0 L616.8,420.0 L617.6,420.0 L618.5,420.0 L619.3,420.0 L620.2,420.0 L621.0,420.0 L621.9,420.0 L622.7,420.0 L623.5,420.0 L624.4,420.0 L625.2,420.0 L626.1,420.0 L626.9,420.0 L627.8,420.0 L628.6,420.0 L629.4,420.0 L630.3,420.0 L631.1,420.0 L632.0,420.0 L632.8,420.0 L633.7,420.0 L634.5,420.0 L635.3,420.0 L636.2,420.0 L637.0,420.0 L637.9,420.0 L638.7,420.0 L639.6,420.0 L640.4,420.0 L641.2,420.0 L642.1,420.0 L642.9,420.0 L643.8,420.0 L644.6,420.0 L645.4,420.0 L646.3,420.0 L647.1,420.0 L648.0,420.0 L648.8,420.0 L649.7,420.0 L650.5,420.0 L651.3,420.0 L652.2,420.0 L653.0,420.0 L653.9,420.0 L654.7,420.0 L655.6,420.0 L656.4,420.0 L657.2,420.0 L658.1,420.0 L658.9,420.0 L659.8,420.0 L660.6,420.0 L661.5,420.0 L662.3,420.0 L663.1,420.0 L664.0,420.0 L664.8,420.0 L665.7,420.0 L666.5,420.0 L667.4,420.0 L668.2,420.0 L669.0,420.0 L669.9,420.0 L670.7,420.0 L671.6,420.0 L672.4,420.0 L673.3,420.0 L674.1,420.0 L674.9,420.0 L675.8,420.0 L676.6,420.0 L677.5,420.0 L678.3,420.0 L679.2,420.0 L680.0,420.0" stroke="#e377c2" stroke-width="2" fill="none" opacity="0.8"/>

<!-- Legend -->
<line x1="690" y1="70" x2="705" y2="70" stroke="#1f77b4" stroke-width="3"/>
<text x="710" y="74" class="legend">Wind Generation</text>
<line x1="690" y1="88" x2="705" y2="88" stroke="#ff7f0e" stroke-width="3"/>
<text x="710" y="92" class="legend">Hydro Generation</text>
<line x1="690" y1="106" x2="705" y2="106" stroke="#2ca02c" stroke-width="3"/>
<text x="710" y="110" class="legend">Thermal Generation</text>
<line x1="690" y1="124" x2="705" y2="124" stroke="#d62728" stroke-width="3"/>
<text x="710" y="128" class="legend">Solar Generation</text>
<line x1="690" y1="142" x2="705" y2="142" stroke="#9467bd" stroke-width="3"/>
<text x="710" y="146" class="legend">Forecast</text>
<line x1="690" y1="160" x2="705" y2="160" stroke="#8c564b" stroke-width="3"/>
<text x="710" y="164" class="legend">Total Generation</text>
<line x1="690" y1="178" x2="705" y2="178" stroke="#e377c2" stroke-width="3"/>
<text x="710" y="182" class="legend">Forecast Difference</text>

<!-- Date range -->
<text x="80" y="495" class="legend">Range: 11/28 - 12/28/2025 (713 records)</text>
</svg>