<?xml version="1.0" encoding="UTF-8"?>
<svg width="800" height="500" xmlns="http://www.w3.org/2000/svg">
<style>
.axis-line { stroke: #333; stroke-width: 1; }
.grid-line { stroke: #ddd; stroke-width: 0.5; }
.title { font: 16px Arial; text-anchor: middle; fill: #333; }
.axis-label { font: 12px Arial; text-anchor: middle; fill: #666; }
.legend { font: 10px Arial; fill: #333; }
</style>

<!-- Title -->
<text x="400.0" y="25" class="title">Northwestern Energy Generation Data - Past 30 Days</text>

<!-- Plot area background -->
<rect x="80" y="50" width="600" height="370" fill="white" stroke="#ddd"/>

<!-- Y-axis -->
<line x1="80" y1="50" x2="80" y2="420" class="axis-line"/>
<text x="30" y="235.0" class="axis-label" transform="rotate(-90, 30, 235.0)">Generation (MW)</text>

<!-- X-axis -->
<line x1="80" y1="420" x2="680" y2="420" class="axis-line"/>
<text x="380.0" y="480" class="axis-label">Time</text>
<line x1="80" y1="420.0" x2="680" y2="420.0" class="grid-line"/>
<text x="70" y="425.0" class="legend" text-anchor="end">0</text>
<line x1="80" y1="327.5" x2="680" y2="327.5" class="grid-line"/>
<text x="70" y="332.5" class="legend" text-anchor="end">332</text>
<line x1="80" y1="235.0" x2="680" y2="235.0" class="grid-line"/>
<text x="70" y="240.0" class="legend" text-anchor="end">665</text>
<line x1="80" y1="142.5" x2="680" y2="142.5" class="grid-line"/>
<text x="70" y="147.5" class="legend" text-anchor="end">997</text>
<line x1="80" y1="50.0" x2="680" y2="50.0" class="grid-line"/>
<text x="70" y="55.0" class="legend" text-anchor="end">1329</text>
<!-- Wind Generation -->
<path d="M80.0,405.0 L80.8,391.6 L81.7,374.1 L82.5,368.5 L83.4,382.7 L84.2,368.8 L85.0,380.5 L85.9,383.0 L86.7,400.2 L87.6,397.7 L88.4,391.6 L89.3,378.2 L90.1,375.7 L90.9,385.2 L91.8,404.1 L92.6,409.1 L93.5,415.5 L94.3,413.0 L95.1,414.7 L96.0,411.6 L96.8,413.9 L97.7,418.9 L98.5,388.5 L99.4,374.6 L100.2,368.0 L101.0,380.2 L101.9,379.4 L102.7,398.0 L103.6,406.9 L104.4,410.8 L105.2,416.1 L106.1,415.8 L106.9,413.6 L107.8,413.9 L108.6,413.3 L109.5,412.5 L110.3,413.3 L111.1,415.5 L112.0,413.0 L112.8,411.4 L113.7,410.0 L114.5,412.8 L115.3,407.2 L116.2,402.2 L117.0,400.0 L117.9,397.7 L118.7,394.9 L119.6,390.5 L120.4,386.9 L121.2,384.9 L122.1,383.3 L122.9,378.0 L123.8,378.5 L124.6,388.0 L125.4,395.5 L126.3,400.2 L127.1,400.8 L128.0,401.4 L128.8,403.9 L129.6,406.4 L130.5,410.8 L131.3,416.7 L132.2,415.5 L133.0,419.7 L133.9,413.9 L134.7,413.9 L135.5,408.6 L136.4,407.5 L137.2,410.0 L138.1,411.4 L138.9,413.3 L139.7,412.2 L140.6,408.6 L141.4,400.2 L142.3,382.4 L143.1,366.8 L144.0,359.0 L144.8,345.4 L145.6,346.8 L146.5,358.8 L147.3,376.9 L148.2,385.5 L149.0,401.9 L149.8,411.1 L150.7,413.3 L151.5,417.5 L152.4,414.4 L153.2,419.4 L154.1,413.0 L154.9,414.7 L155.7,417.8 L156.6,417.8 L157.4,420.0 L158.3,419.4 L159.1,412.2 L159.9,419.4 L160.8,408.0 L161.6,413.9 L162.5,390.2 L163.3,413.9 L164.2,415.8 L165.0,416.9 L165.8,415.0 L166.7,416.4 L167.5,411.4 L168.4,415.0 L169.2,416.4 L170.0,416.1 L170.9,412.5 L171.7,417.8 L172.6,416.7 L173.4,418.1 L174.2,412.2 L175.1,409.4 L175.9,409.1 L176.8,409.7 L177.6,401.4 L178.5,394.9 L179.3,381.6 L180.1,378.8 L181.0,356.0 L181.8,395.5 L182.7,392.7 L183.5,401.6 L184.3,396.6 L185.2,415.5 L186.0,417.2 L186.9,418.6 L187.7,411.4 L188.6,395.8 L189.4,379.9 L190.2,388.3 L191.1,374.4 L191.9,371.0 L192.8,384.4 L193.6,398.6 L194.4,405.2 L195.3,394.4 L196.1,397.7 L197.0,398.8 L197.8,388.5 L198.7,404.1 L199.5,385.2 L200.3,400.5 L201.2,403.3 L202.0,403.9 L202.9,416.4 L203.7,414.2 L204.5,405.0 L205.4,393.0 L206.2,394.7 L207.1,383.3 L207.9,369.6 L208.8,354.6 L209.6,359.0 L210.4,371.8 L211.3,367.4 L212.1,366.8 L213.0,359.9 L213.8,329.8 L214.6,357.9 L215.5,358.8 L216.3,358.2 L217.2,364.1 L218.0,358.8 L218.8,354.9 L219.7,356.8 L220.5,358.8 L221.4,358.5 L222.2,360.4 L223.1,333.7 L223.9,322.9 L224.7,332.0 L225.6,334.0 L226.4,335.1 L227.3,327.6 L228.1,326.2 L228.9,321.5 L229.8,326.5 L230.6,328.7 L231.5,328.7 L232.3,326.2 L233.2,326.5 L234.0,322.0 L234.8,342.6 L235.7,333.7 L236.5,337.6 L237.4,334.8 L238.2,338.7 L239.0,346.5 L239.9,352.4 L240.7,341.5 L241.6,351.0 L242.4,357.4 L243.3,336.2 L244.1,324.5 L244.9,314.5 L245.8,320.6 L246.6,316.7 L247.5,319.0 L248.3,318.4 L249.1,322.0 L250.0,319.5 L250.8,320.4 L251.7,319.0 L252.5,332.3 L253.4,336.8 L254.2,342.1 L255.0,333.2 L255.9,325.6 L256.7,334.3 L257.6,346.5 L258.4,358.2 L259.2,352.9 L260.1,359.9 L260.9,351.8 L261.8,349.0 L262.6,375.2 L263.5,386.3 L264.3,393.0 L265.1,406.1 L266.0,402.2 L266.8,410.0 L267.7,411.9 L268.5,410.5 L269.3,412.5 L270.2,398.6 L271.0,410.3 L271.9,413.0 L272.7,413.3 L273.5,409.1 L274.4,409.7 L275.2,403.6 L276.1,406.6 L276.9,400.0 L277.8,388.0 L278.6,384.9 L279.4,393.0 L280.3,399.4 L281.1,398.6 L282.0,401.6 L282.8,381.3 L283.6,398.6 L284.5,384.9 L285.3,395.8 L286.2,416.7 L287.0,413.0 L287.9,409.1 L288.7,408.9 L289.5,413.0 L290.4,413.9 L291.2,408.3 L292.1,402.7 L292.9,391.9 L293.7,389.9 L294.6,399.7 L295.4,401.6 L296.3,399.7 L297.1,400.0 L298.0,401.6 L298.8,406.4 L299.6,402.7 L300.5,394.9 L301.3,390.8 L302.2,383.8 L303.0,395.8 L303.8,405.2 L304.7,407.2 L305.5,406.4 L306.4,411.6 L307.2,410.8 L308.1,414.4 L308.9,413.9 L309.7,417.2 L310.6,415.0 L311.4,416.1 L312.3,416.9 L313.1,415.0 L313.9,404.4 L314.8,410.8 L315.6,409.1 L316.5,398.3 L317.3,402.2 L318.1,402.7 L319.0,395.8 L319.8,381.6 L320.7,376.6 L321.5,378.0 L322.4,369.9 L323.2,359.9 L324.0,367.7 L324.9,383.5 L325.7,392.4 L326.6,403.6 L327.4,415.0 L328.2,417.8 L329.1,418.9 L329.9,416.7 L330.8,418.3 L331.6,418.1 L332.5,417.5 L333.3,418.1 L334.1,415.5 L335.0,411.4 L335.8,413.0 L336.7,411.4 L337.5,396.6 L338.3,389.1 L339.2,377.1 L340.0,372.7 L340.9,370.2 L341.7,382.1 L342.6,379.6 L343.4,383.8 L344.2,395.2 L345.1,403.0 L345.9,408.3 L346.8,417.8 L347.6,418.1 L348.4,416.9 L349.3,417.8 L350.1,418.6 L351.0,418.9 L351.8,417.5 L352.7,415.5 L353.5,410.3 L354.3,395.2 L355.2,389.4 L356.0,393.0 L356.9,398.6 L357.7,403.6 L358.5,413.0 L359.4,415.0 L360.2,415.0 L361.1,411.6 L361.9,398.8 L362.7,390.5 L363.6,380.2 L364.4,355.7 L365.3,357.7 L366.1,399.4 L367.0,407.2 L367.8,408.0 L368.6,407.2 L369.5,400.2 L370.3,364.6 L371.2,359.6 L372.0,352.4 L372.8,354.6 L373.7,372.1 L374.5,379.1 L375.4,385.8 L376.2,392.4 L377.1,392.2 L377.9,391.6 L378.7,388.5 L379.6,389.7 L380.4,378.0 L381.3,394.7 L382.1,382.1 L382.9,382.4 L383.8,355.7 L384.6,377.1 L385.5,383.3 L386.3,400.0 L387.2,391.9 L388.0,397.7 L388.8,393.3 L389.7,409.1 L390.5,412.8 L391.4,413.3 L392.2,419.7 L393.0,420.0 L393.9,417.8 L394.7,418.1 L395.6,420.0 L396.4,417.2 L397.3,416.7 L398.1,412.2 L398.9,416.1 L399.8,413.9 L400.6,408.9 L401.5,395.2 L402.3,392.7 L403.1,396.1 L404.0,394.9 L404.8,389.9 L405.7,393.8 L406.5,405.5 L407.3,403.0 L408.2,399.7 L409.0,407.8 L409.9,412.5 L410.7,411.6 L411.6,415.3 L412.4,419.4 L413.2,418.6 L414.1,419.7 L414.9,419.4 L415.8,419.2 L416.6,418.1 L417.4,416.9 L418.3,412.5 L419.1,412.8 L420.0,411.1 L420.8,410.8 L421.7,412.2 L422.5,411.9 L423.3,410.8 L424.2,401.4 L425.0,407.5 L425.9,393.0 L426.7,407.2 L427.5,398.6 L428.4,385.2 L429.2,386.0 L430.1,377.4 L430.9,350.7 L431.8,372.1 L432.6,366.8 L433.4,366.0 L434.3,369.3 L435.1,388.3 L436.0,406.1 L436.8,408.6 L437.6,410.8 L438.5,393.3 L439.3,378.8 L440.2,368.2 L441.0,365.7 L441.9,363.5 L442.7,371.0 L443.5,378.2 L444.4,378.5 L445.2,383.5 L446.1,398.6 L446.9,406.9 L447.7,404.1 L448.6,403.3 L449.4,409.7 L450.3,404.1 L451.1,408.6 L451.9,414.2 L452.8,411.1 L453.6,410.5 L454.5,409.7 L455.3,413.0 L456.2,410.3 L457.0,415.5 L457.8,410.5 L458.7,403.9 L459.5,408.0 L460.4,401.9 L461.2,393.8 L462.0,384.1 L462.9,382.4 L463.7,391.3 L464.6,398.3 L465.4,408.3 L466.3,413.3 L467.1,418.1 L467.9,397.5 L468.8,401.1 L469.6,400.2 L470.5,406.6 L471.3,402.2 L472.1,408.0 L473.0,407.5 L473.8,413.9 L474.7,415.8 L475.5,418.9 L476.4,418.6 L477.2,419.7 L478.0,417.8 L478.9,416.4 L479.7,403.9 L480.6,402.5 L481.4,391.9 L482.2,391.3 L483.1,392.2 L483.9,392.7 L484.8,395.5 L485.6,393.6 L486.5,393.6 L487.3,399.4 L488.1,412.5 L489.0,406.9 L489.8,391.1 L490.7,390.8 L491.5,388.5 L492.3,376.9 L493.2,373.2 L494.0,394.1 L494.9,407.8 L495.7,405.0 L496.5,401.9 L497.4,408.0 L498.2,404.1 L499.1,402.2 L499.9,402.5 L500.8,405.2 L501.6,403.6 L502.4,385.8 L503.3,389.1 L504.1,383.0 L505.0,368.0 L505.8,379.6 L506.6,362.9 L507.5,368.5 L508.3,350.4 L509.2,355.7 L510.0,365.2 L510.9,361.0 L511.7,368.0 L512.5,371.8 L513.4,384.4 L514.2,393.0 L515.1,412.2 L515.9,418.9 L516.7,420.0 L517.6,420.0 L518.4,420.0 L519.3,417.8 L520.1,415.8 L521.0,413.6 L521.8,412.8 L522.6,412.2 L523.5,413.3 L524.3,416.1 L525.2,415.8 L526.0,410.8 L526.8,412.2 L527.7,384.7 L528.5,401.9 L529.4,405.8 L530.2,399.1 L531.1,405.0 L531.9,410.5 L532.7,411.6 L533.6,391.3 L534.4,383.3 L535.3,387.2 L536.1,389.4 L536.9,401.4 L537.8,412.5 L538.6,412.5 L539.5,414.2 L540.3,410.0 L541.2,406.9 L542.0,397.2 L542.8,393.8 L543.7,391.3 L544.5,399.1 L545.4,388.8 L546.2,357.7 L547.0,374.4 L547.9,380.8 L548.7,369.6 L549.6,371.6 L550.4,366.3 L551.2,401.1 L552.1,408.6 L552.9,410.0 L553.8,414.7 L554.6,405.5 L555.5,411.9 L556.3,412.8 L557.1,411.9 L558.0,404.1 L558.8,402.2 L559.7,403.3 L560.5,412.8 L561.3,415.3 L562.2,419.4 L563.0,410.5 L563.9,418.9 L564.7,420.0 L565.6,420.0 L566.4,419.4 L567.2,416.7 L568.1,412.5 L568.9,413.0 L569.8,416.1 L570.6,418.3 L571.4,420.0 L572.3,420.0 L573.1,420.0 L574.0,420.0 L574.8,419.7 L575.7,418.6 L576.5,418.6 L577.3,418.6 L578.2,417.8 L579.0,413.6 L579.9,410.3 L580.7,406.1 L581.5,402.5 L582.4,396.6 L583.2,388.5 L584.1,386.9 L584.9,378.5 L585.8,367.7 L586.6,377.4 L587.4,385.8 L588.3,374.9 L589.1,378.8 L590.0,382.1 L590.8,407.2 L591.6,413.3 L592.5,416.4 L593.3,416.4 L594.2,417.2 L595.0,417.8 L595.8,418.3 L596.7,417.2 L597.5,418.6 L598.4,419.4 L599.2,418.1 L600.1,417.2 L600.9,416.9 L601.7,411.6 L602.6,414.2 L603.4,406.6 L604.3,393.3 L605.1,390.8 L605.9,383.0 L606.8,383.5 L607.6,383.8 L608.5,374.1 L609.3,387.2 L610.2,383.3 L611.0,395.8 L611.8,403.6 L612.7,388.3 L613.5,388.5 L614.4,405.5 L615.2,395.8 L616.0,408.0 L616.9,391.9 L617.7,402.7 L618.6,403.9 L619.4,393.8 L620.3,396.3 L621.1,403.9 L621.9,406.4 L622.8,410.8 L623.6,414.7 L624.5,407.5 L625.3,412.2 L626.1,405.8 L627.0,410.0 L627.8,402.2 L628.7,407.2 L629.5,390.2 L630.4,380.8 L631.2,372.1 L632.0,389.1 L632.9,381.6 L633.7,383.8 L634.6,392.4 L635.4,363.5 L636.2,359.6 L637.1,347.9 L637.9,369.9 L638.8,372.1 L639.6,372.4 L640.4,369.3 L641.3,378.0 L642.1,371.0 L643.0,346.8 L643.8,334.3 L644.7,344.8 L645.5,362.1 L646.3,359.3 L647.2,359.9 L648.0,357.7 L648.9,371.3 L649.7,377.7 L650.5,399.1 L651.4,394.1 L652.2,403.6 L653.1,409.4 L653.9,417.2 L654.8,420.0 L655.6,418.9 L656.4,419.4 L657.3,410.5 L658.1,403.9 L659.0,399.1 L659.8,403.3 L660.6,401.4 L661.5,405.2 L662.3,404.7 L663.2,401.4 L664.0,389.9 L664.9,382.1 L665.7,383.8 L666.5,379.1 L667.4,381.6 L668.2,382.1 L669.1,378.0 L669.9,378.5 L670.7,381.3 L671.6,376.6 L672.4,394.1 L673.3,398.6 L674.1,397.7 L675.0,399.4 L675.8,395.5 L676.6,398.0 L677.5,398.0 L678.3,406.6 L679.2,416.7 L680.0,412.8" stroke="#1f77b4" stroke-width="2" fill="none" opacity="0.8"/>
<!-- Hydro Generation -->
<path d="M80.0,338.4 L80.8,338.7 L81.7,338.7 L82.5,338.2 L83.4,337.9 L84.2,337.9 L85.0,337.3 L85.9,337.1 L86.7,337.1 L87.6,337.1 L88.4,336.5 L89.3,336.5 L90.1,336.5 L90.9,336.2 L91.8,336.2 L92.6,336.8 L93.5,337.1 L94.3,337.1 L95.1,337.3 L96.0,337.1 L96.8,337.9 L97.7,337.9 L98.5,337.6 L99.4,337.9 L100.2,337.6 L101.0,338.2 L101.9,337.1 L102.7,336.8 L103.6,337.1 L104.4,337.1 L105.2,337.1 L106.1,337.1 L106.9,336.8 L107.8,336.2 L108.6,335.9 L109.5,335.9 L110.3,336.5 L111.1,336.8 L112.0,336.5 L112.8,336.8 L113.7,336.2 L114.5,336.2 L115.3,335.7 L116.2,335.7 L117.0,335.9 L117.9,335.7 L118.7,324.8 L119.6,336.2 L120.4,335.9 L121.2,336.2 L122.1,335.7 L122.9,336.2 L123.8,336.2 L124.6,335.9 L125.4,336.2 L126.3,336.2 L127.1,336.5 L128.0,336.2 L128.8,337.3 L129.6,337.3 L130.5,337.1 L131.3,337.3 L132.2,337.1 L133.0,337.3 L133.9,337.9 L134.7,337.9 L135.5,337.1 L136.4,336.5 L137.2,336.2 L138.1,337.3 L138.9,337.1 L139.7,338.4 L140.6,338.2 L141.4,337.6 L142.3,337.6 L143.1,337.3 L144.0,337.6 L144.8,337.9 L145.6,337.9 L146.5,337.9 L147.3,337.3 L148.2,338.4 L149.0,338.7 L149.8,339.0 L150.7,339.6 L151.5,339.8 L152.4,339.8 L153.2,339.3 L154.1,338.2 L154.9,338.7 L155.7,337.9 L156.6,337.9 L157.4,338.4 L158.3,338.2 L159.1,341.2 L159.9,337.9 L160.8,338.4 L161.6,338.4 L162.5,338.4 L163.3,338.4 L164.2,338.2 L165.0,337.3 L165.8,337.3 L166.7,337.3 L167.5,337.6 L168.4,337.6 L169.2,336.8 L170.0,337.1 L170.9,337.1 L171.7,336.8 L172.6,337.1 L173.4,337.1 L174.2,337.1 L175.1,336.8 L175.9,337.1 L176.8,336.8 L177.6,337.1 L178.5,337.1 L179.3,337.1 L180.1,337.1 L181.0,337.1 L181.8,336.8 L182.7,336.5 L183.5,336.5 L184.3,337.3 L185.2,337.3 L186.0,337.3 L186.9,337.3 L187.7,337.3 L188.6,337.3 L189.4,337.3 L190.2,337.3 L191.1,337.3 L191.9,337.6 L192.8,337.6 L193.6,337.9 L194.4,337.9 L195.3,338.4 L196.1,338.4 L197.0,338.7 L197.8,339.3 L198.7,339.0 L199.5,339.0 L200.3,339.3 L201.2,339.3 L202.0,339.3 L202.9,339.3 L203.7,339.0 L204.5,337.9 L205.4,338.2 L206.2,337.6 L207.1,337.6 L207.9,336.8 L208.8,337.1 L209.6,336.2 L210.4,334.8 L211.3,333.7 L212.1,333.7 L213.0,332.9 L213.8,344.6 L214.6,354.9 L215.5,354.9 L216.3,354.6 L217.2,354.6 L218.0,354.9 L218.8,354.6 L219.7,354.6 L220.5,354.9 L221.4,354.6 L222.2,354.6 L223.1,354.9 L223.9,333.7 L224.7,330.4 L225.6,329.3 L226.4,328.1 L227.3,327.6 L228.1,328.7 L228.9,329.3 L229.8,329.3 L230.6,329.8 L231.5,329.8 L232.3,329.8 L233.2,329.3 L234.0,329.3 L234.8,329.5 L235.7,328.4 L236.5,327.9 L237.4,326.8 L238.2,326.8 L239.0,326.8 L239.9,327.0 L240.7,326.8 L241.6,327.0 L242.4,326.8 L243.3,326.8 L244.1,327.0 L244.9,325.4 L245.8,325.9 L246.6,324.3 L247.5,324.3 L248.3,322.6 L249.1,323.4 L250.0,323.4 L250.8,323.4 L251.7,323.7 L252.5,323.4 L253.4,324.0 L254.2,322.9 L255.0,322.0 L255.9,321.5 L256.7,322.6 L257.6,322.3 L258.4,321.2 L259.2,320.6 L260.1,319.2 L260.9,319.5 L261.8,319.2 L262.6,318.1 L263.5,318.1 L264.3,317.0 L265.1,315.3 L266.0,315.6 L266.8,315.6 L267.7,315.1 L268.5,314.0 L269.3,313.7 L270.2,314.0 L271.0,314.0 L271.9,313.7 L272.7,313.7 L273.5,312.6 L274.4,312.6 L275.2,312.6 L276.1,312.0 L276.9,312.8 L277.8,312.6 L278.6,311.2 L279.4,310.9 L280.3,312.0 L281.1,312.0 L282.0,312.0 L282.8,312.8 L283.6,312.8 L284.5,312.3 L285.3,312.0 L286.2,311.7 L287.0,311.7 L287.9,310.9 L288.7,310.6 L289.5,310.9 L290.4,310.6 L291.2,310.6 L292.1,310.6 L292.9,310.3 L293.7,310.3 L294.6,310.1 L295.4,310.3 L296.3,310.3 L297.1,310.9 L298.0,310.6 L298.8,310.6 L299.6,311.2 L300.5,310.9 L301.3,310.9 L302.2,310.9 L303.0,310.9 L303.8,310.6 L304.7,310.6 L305.5,310.9 L306.4,311.4 L307.2,312.6 L308.1,313.4 L308.9,313.7 L309.7,314.0 L310.6,314.0 L311.4,314.0 L312.3,313.1 L313.1,313.1 L313.9,313.4 L314.8,313.1 L315.6,313.1 L316.5,313.4 L317.3,313.7 L318.1,313.7 L319.0,314.0 L319.8,314.0 L320.7,314.0 L321.5,314.0 L322.4,314.5 L323.2,314.5 L324.0,314.5 L324.9,314.5 L325.7,314.5 L326.6,315.3 L327.4,316.2 L328.2,317.0 L329.1,317.3 L329.9,317.3 L330.8,317.3 L331.6,317.0 L332.5,317.0 L333.3,317.6 L334.1,317.6 L335.0,317.3 L335.8,317.3 L336.7,317.3 L337.5,317.0 L338.3,317.3 L339.2,317.3 L340.0,317.3 L340.9,317.3 L341.7,317.3 L342.6,317.0 L343.4,317.6 L344.2,317.8 L345.1,318.1 L345.9,318.1 L346.8,317.8 L347.6,319.2 L348.4,319.5 L349.3,319.8 L350.1,320.6 L351.0,320.6 L351.8,321.5 L352.7,322.3 L353.5,322.9 L354.3,322.6 L355.2,322.9 L356.0,323.1 L356.9,323.1 L357.7,321.7 L358.5,322.3 L359.4,321.7 L360.2,322.0 L361.1,322.0 L361.9,321.7 L362.7,321.5 L363.6,321.2 L364.4,321.5 L365.3,321.7 L366.1,320.1 L367.0,320.1 L367.8,320.1 L368.6,320.6 L369.5,320.4 L370.3,320.4 L371.2,320.6 L372.0,320.4 L372.8,320.6 L373.7,320.6 L374.5,320.4 L375.4,321.2 L376.2,320.9 L377.1,320.9 L377.9,320.9 L378.7,321.7 L379.6,323.7 L380.4,322.6 L381.3,323.7 L382.1,324.8 L382.9,326.8 L383.8,327.3 L384.6,327.0 L385.5,326.8 L386.3,328.1 L387.2,328.1 L388.0,327.9 L388.8,328.1 L389.7,327.9 L390.5,327.0 L391.4,326.5 L392.2,326.8 L393.0,326.8 L393.9,325.9 L394.7,325.9 L395.6,325.1 L396.4,325.4 L397.3,325.4 L398.1,325.1 L398.9,325.4 L399.8,325.4 L400.6,324.8 L401.5,325.1 L402.3,325.6 L403.1,325.6 L404.0,325.6 L404.8,325.6 L405.7,325.6 L406.5,324.8 L407.3,325.1 L408.2,324.8 L409.0,326.2 L409.9,326.2 L410.7,325.9 L411.6,326.2 L412.4,327.3 L413.2,327.3 L414.1,327.0 L414.9,327.0 L415.8,327.0 L416.6,326.8 L417.4,327.0 L418.3,326.8 L419.1,326.8 L420.0,327.0 L420.8,326.8 L421.7,326.8 L422.5,326.8 L423.3,326.8 L424.2,326.8 L425.0,326.2 L425.9,325.6 L426.7,325.9 L427.5,325.6 L428.4,325.6 L429.2,325.4 L430.1,325.4 L430.9,325.4 L431.8,325.6 L432.6,326.5 L433.4,326.5 L434.3,326.5 L435.1,326.5 L436.0,326.2 L436.8,326.5 L437.6,326.5 L438.5,326.5 L439.3,327.0 L440.2,327.3 L441.0,327.3 L441.9,327.0 L442.7,327.3 L443.5,327.3 L444.4,326.8 L445.2,326.5 L446.1,326.5 L446.9,326.5 L447.7,326.5 L448.6,325.9 L449.4,326.2 L450.3,327.0 L451.1,326.5 L451.9,327.3 L452.8,327.6 L453.6,327.6 L454.5,327.3 L455.3,327.3 L456.2,327.6 L457.0,327.6 L457.8,327.0 L458.7,327.3 L459.5,327.9 L460.4,328.7 L461.2,328.7 L462.0,328.4 L462.9,328.4 L463.7,328.4 L464.6,328.7 L465.4,328.7 L466.3,328.7 L467.1,328.7 L467.9,329.0 L468.8,329.0 L469.6,328.4 L470.5,329.3 L471.3,329.3 L472.1,330.7 L473.0,330.9 L473.8,331.5 L474.7,331.8 L475.5,332.0 L476.4,331.5 L477.2,333.4 L478.0,334.0 L478.9,334.8 L479.7,335.1 L480.6,335.9 L481.4,335.7 L482.2,335.9 L483.1,335.4 L483.9,335.4 L484.8,335.1 L485.6,335.4 L486.5,335.1 L487.3,334.0 L488.1,333.7 L489.0,334.0 L489.8,333.7 L490.7,333.7 L491.5,334.0 L492.3,333.4 L493.2,333.7 L494.0,333.7 L494.9,334.3 L495.7,333.7 L496.5,333.7 L497.4,334.0 L498.2,334.5 L499.1,334.5 L499.9,334.5 L500.8,336.5 L501.6,336.8 L502.4,336.5 L503.3,336.2 L504.1,336.2 L505.0,336.8 L505.8,336.5 L506.6,335.9 L507.5,335.4 L508.3,334.5 L509.2,335.1 L510.0,335.1 L510.9,334.8 L511.7,335.1 L512.5,335.4 L513.4,335.9 L514.2,335.9 L515.1,335.1 L515.9,335.4 L516.7,334.8 L517.6,334.5 L518.4,334.5 L519.3,334.8 L520.1,334.8 L521.0,335.7 L521.8,336.2 L522.6,336.2 L523.5,336.2 L524.3,335.9 L525.2,335.4 L526.0,335.7 L526.8,335.7 L527.7,335.7 L528.5,335.1 L529.4,334.3 L530.2,334.0 L531.1,334.5 L531.9,334.3 L532.7,334.3 L533.6,335.7 L534.4,335.7 L535.3,334.8 L536.1,335.1 L536.9,336.5 L537.8,336.2 L538.6,337.3 L539.5,336.8 L540.3,336.8 L541.2,337.6 L542.0,337.3 L542.8,337.9 L543.7,337.6 L544.5,337.3 L545.4,337.6 L546.2,337.1 L547.0,337.6 L547.9,339.0 L548.7,339.3 L549.6,339.0 L550.4,338.7 L551.2,339.3 L552.1,339.0 L552.9,339.0 L553.8,338.7 L554.6,337.1 L555.5,338.7 L556.3,339.0 L557.1,339.0 L558.0,339.6 L558.8,339.6 L559.7,339.8 L560.5,339.6 L561.3,340.1 L562.2,339.8 L563.0,340.1 L563.9,339.8 L564.7,340.1 L565.6,339.6 L566.4,339.8 L567.2,339.8 L568.1,340.1 L568.9,340.1 L569.8,340.1 L570.6,340.4 L571.4,340.7 L572.3,340.4 L573.1,340.7 L574.0,340.1 L574.8,341.8 L575.7,341.2 L576.5,341.5 L577.3,340.4 L578.2,341.0 L579.0,340.1 L579.9,340.7 L580.7,340.7 L581.5,341.8 L582.4,341.5 L583.2,341.2 L584.1,341.5 L584.9,341.2 L585.8,341.2 L586.6,341.0 L587.4,341.2 L588.3,341.5 L589.1,341.5 L590.0,341.2 L590.8,341.5 L591.6,341.8 L592.5,341.8 L593.3,342.1 L594.2,342.3 L595.0,342.1 L595.8,341.8 L596.7,342.1 L597.5,342.3 L598.4,342.1 L599.2,342.6 L600.1,343.2 L600.9,343.5 L601.7,344.6 L602.6,344.8 L603.4,344.6 L604.3,345.1 L605.1,345.4 L605.9,345.4 L606.8,345.7 L607.6,345.7 L608.5,345.7 L609.3,345.7 L610.2,345.7 L611.0,346.0 L611.8,346.0 L612.7,345.7 L613.5,346.2 L614.4,345.1 L615.2,345.4 L616.0,343.2 L616.9,343.5 L617.7,343.7 L618.6,343.2 L619.4,343.7 L620.3,343.2 L621.1,343.5 L621.9,344.8 L622.8,344.6 L623.6,344.0 L624.5,344.3 L625.3,342.6 L626.1,342.9 L627.0,343.5 L627.8,342.6 L628.7,341.5 L629.5,352.9 L630.4,340.7 L631.2,340.4 L632.0,340.4 L632.9,340.1 L633.7,340.1 L634.6,341.0 L635.4,341.0 L636.2,340.1 L637.1,340.4 L637.9,340.4 L638.8,340.4 L639.6,341.5 L640.4,341.2 L641.3,341.0 L642.1,342.1 L643.0,342.1 L643.8,342.3 L644.7,342.9 L645.5,342.6 L646.3,342.3 L647.2,342.6 L648.0,342.3 L648.9,341.8 L649.7,341.5 L650.5,340.7 L651.4,341.0 L652.2,340.4 L653.1,341.8 L653.9,340.1 L654.8,339.8 L655.6,340.1 L656.4,339.8 L657.3,339.6 L658.1,339.6 L659.0,340.7 L659.8,339.6 L660.6,339.8 L661.5,339.6 L662.3,341.0 L663.2,340.4 L664.0,340.1 L664.9,340.1 L665.7,349.0 L666.5,339.8 L667.4,340.1 L668.2,342.1 L669.1,341.8 L669.9,341.8 L670.7,343.5 L671.6,342.6 L672.4,343.2 L673.3,342.9 L674.1,341.5 L675.0,342.1 L675.8,342.6 L676.6,341.8 L677.5,341.8 L678.3,341.5 L679.2,342.1 L680.0,341.0" stroke="#ff7f0e" stroke-width="2" fill="none" opacity="0.8"/>
<!-- Thermal Generation -->
<path d="M80.0,313.4 L80.8,330.1 L81.7,299.2 L82.5,274.7 L83.4,262.2 L84.2,259.1 L85.0,276.1 L85.9,283.1 L86.7,298.4 L87.6,300.9 L88.4,300.3 L89.3,300.3 L90.1,300.0 L90.9,300.3 L91.8,300.3 L92.6,299.2 L93.5,298.9 L94.3,297.3 L95.1,272.8 L96.0,273.9 L96.8,274.4 L97.7,288.1 L98.5,277.8 L99.4,272.2 L100.2,272.8 L101.0,297.3 L101.9,280.3 L102.7,274.4 L103.6,274.1 L104.4,276.4 L105.2,285.8 L106.1,275.8 L106.9,295.9 L107.8,295.6 L108.6,293.9 L109.5,291.1 L110.3,287.5 L111.1,281.9 L112.0,282.2 L112.8,298.1 L113.7,297.8 L114.5,298.6 L115.3,298.6 L116.2,299.2 L117.0,298.9 L117.9,275.0 L118.7,298.1 L119.6,276.7 L120.4,285.3 L121.2,274.7 L122.1,275.0 L122.9,274.7 L123.8,290.3 L124.6,298.4 L125.4,298.1 L126.3,300.9 L127.1,302.0 L128.0,302.0 L128.8,280.6 L129.6,280.8 L130.5,277.5 L131.3,278.0 L132.2,280.8 L133.0,299.2 L133.9,299.2 L134.7,296.4 L135.5,297.5 L136.4,276.4 L137.2,273.6 L138.1,273.9 L138.9,274.1 L139.7,274.7 L140.6,273.0 L141.4,272.8 L142.3,272.5 L143.1,272.5 L144.0,272.5 L144.8,276.4 L145.6,275.3 L146.5,296.1 L147.3,321.5 L148.2,320.6 L149.0,320.6 L149.8,315.3 L150.7,301.4 L151.5,301.4 L152.4,305.0 L153.2,305.0 L154.1,305.6 L154.9,302.0 L155.7,337.1 L156.6,337.3 L157.4,337.6 L158.3,323.4 L159.1,337.1 L159.9,338.4 L160.8,338.7 L161.6,336.8 L162.5,301.1 L163.3,297.5 L164.2,291.1 L165.0,276.4 L165.8,275.8 L166.7,301.7 L167.5,298.6 L168.4,279.4 L169.2,301.1 L170.0,301.4 L170.9,301.4 L171.7,301.4 L172.6,301.1 L173.4,301.4 L174.2,297.0 L175.1,297.0 L175.9,297.3 L176.8,297.5 L177.6,297.8 L178.5,352.6 L179.3,376.0 L180.1,373.2 L181.0,375.7 L181.8,378.2 L182.7,378.2 L183.5,378.2 L184.3,378.2 L185.2,378.5 L186.0,378.5 L186.9,381.9 L187.7,381.9 L188.6,382.1 L189.4,382.1 L190.2,382.1 L191.1,382.1 L191.9,382.1 L192.8,382.1 L193.6,382.1 L194.4,378.2 L195.3,378.5 L196.1,378.5 L197.0,376.0 L197.8,375.7 L198.7,375.5 L199.5,378.2 L200.3,378.2 L201.2,378.5 L202.0,378.5 L202.9,378.2 L203.7,378.2 L204.5,378.5 L205.4,378.2 L206.2,377.4 L207.1,381.3 L207.9,382.1 L208.8,382.4 L209.6,382.1 L210.4,382.1 L211.3,382.4 L212.1,382.4 L213.0,382.1 L213.8,381.9 L214.6,381.9 L215.5,381.9 L216.3,382.1 L217.2,382.1 L218.0,381.6 L218.8,381.9 L219.7,381.9 L220.5,379.1 L221.4,379.9 L222.2,380.2 L223.1,381.6 L223.9,381.9 L224.7,381.9 L225.6,381.9 L226.4,382.1 L227.3,381.9 L228.1,381.9 L228.9,381.9 L229.8,381.9 L230.6,381.9 L231.5,381.9 L232.3,382.1 L233.2,382.1 L234.0,382.4 L234.8,378.2 L235.7,378.2 L236.5,378.2 L237.4,378.2 L238.2,378.2 L239.0,378.2 L239.9,378.0 L240.7,378.0 L241.6,375.5 L242.4,378.2 L243.3,375.5 L244.1,377.1 L244.9,363.2 L245.8,378.5 L246.6,378.0 L247.5,378.2 L248.3,381.9 L249.1,381.9 L250.0,382.1 L250.8,382.1 L251.7,381.9 L252.5,381.9 L253.4,381.9 L254.2,378.2 L255.0,378.5 L255.9,378.2 L256.7,378.0 L257.6,378.0 L258.4,378.0 L259.2,378.0 L260.1,378.0 L260.9,378.0 L261.8,378.0 L262.6,377.4 L263.5,376.0 L264.3,378.5 L265.1,378.5 L266.0,378.5 L266.8,378.5 L267.7,380.5 L268.5,382.1 L269.3,382.1 L270.2,382.1 L271.0,381.9 L271.9,382.1 L272.7,381.9 L273.5,381.9 L274.4,382.1 L275.2,378.5 L276.1,378.5 L276.9,378.2 L277.8,378.2 L278.6,378.0 L279.4,378.2 L280.3,378.5 L281.1,356.3 L282.0,355.4 L282.8,356.3 L283.6,342.3 L284.5,337.6 L285.3,357.7 L286.2,364.6 L287.0,356.8 L287.9,335.1 L288.7,362.1 L289.5,378.2 L290.4,378.2 L291.2,378.2 L292.1,378.2 L292.9,373.8 L293.7,381.9 L294.6,376.3 L295.4,367.4 L296.3,378.2 L297.1,377.7 L298.0,378.2 L298.8,378.0 L299.6,372.7 L300.5,336.5 L301.3,362.1 L302.2,312.3 L303.0,350.4 L303.8,350.1 L304.7,298.4 L305.5,254.1 L306.4,357.7 L307.2,361.0 L308.1,330.1 L308.9,332.0 L309.7,332.3 L310.6,345.7 L311.4,360.2 L312.3,382.4 L313.1,382.4 L313.9,382.1 L314.8,378.8 L315.6,378.5 L316.5,378.8 L317.3,378.5 L318.1,378.5 L319.0,378.5 L319.8,378.2 L320.7,378.2 L321.5,378.2 L322.4,378.0 L323.2,351.0 L324.0,339.0 L324.9,334.0 L325.7,336.2 L326.6,317.6 L327.4,317.3 L328.2,311.4 L329.1,350.1 L329.9,332.0 L330.8,331.8 L331.6,331.5 L332.5,331.5 L333.3,331.5 L334.1,345.7 L335.0,381.6 L335.8,381.6 L336.7,381.6 L337.5,381.6 L338.3,381.9 L339.2,381.9 L340.0,381.6 L340.9,381.6 L341.7,381.3 L342.6,381.3 L343.4,362.7 L344.2,352.1 L345.1,293.9 L345.9,267.2 L346.8,272.5 L347.6,294.2 L348.4,287.2 L349.3,365.2 L350.1,381.9 L351.0,381.9 L351.8,390.2 L352.7,383.0 L353.5,381.9 L354.3,381.9 L355.2,381.9 L356.0,381.3 L356.9,381.6 L357.7,381.6 L358.5,348.5 L359.4,326.2 L360.2,324.0 L361.1,317.3 L361.9,316.7 L362.7,303.1 L363.6,261.6 L364.4,267.2 L365.3,263.3 L366.1,263.0 L367.0,261.9 L367.8,265.8 L368.6,260.5 L369.5,260.5 L370.3,258.0 L371.2,259.7 L372.0,295.9 L372.8,340.4 L373.7,340.4 L374.5,339.3 L375.4,338.4 L376.2,319.5 L377.1,304.5 L377.9,317.0 L378.7,304.2 L379.6,283.9 L380.4,258.6 L381.3,258.3 L382.1,260.8 L382.9,260.8 L383.8,259.7 L384.6,260.5 L385.5,257.4 L386.3,256.3 L387.2,253.8 L388.0,253.8 L388.8,258.0 L389.7,244.6 L390.5,274.4 L391.4,273.6 L392.2,273.9 L393.0,293.9 L393.9,278.0 L394.7,285.8 L395.6,300.6 L396.4,298.6 L397.3,301.4 L398.1,286.7 L398.9,292.2 L399.8,292.0 L400.6,256.3 L401.5,256.6 L402.3,256.9 L403.1,258.8 L404.0,259.4 L404.8,259.1 L405.7,260.5 L406.5,256.9 L407.3,257.4 L408.2,253.3 L409.0,252.7 L409.9,251.6 L410.7,255.8 L411.6,281.1 L412.4,293.9 L413.2,268.0 L414.1,258.6 L414.9,256.3 L415.8,298.9 L416.6,297.3 L417.4,297.5 L418.3,296.4 L419.1,298.4 L420.0,296.4 L420.8,279.4 L421.7,274.7 L422.5,259.4 L423.3,255.2 L424.2,253.0 L425.0,257.4 L425.9,255.8 L426.7,251.6 L427.5,251.6 L428.4,249.4 L429.2,253.6 L430.1,253.6 L430.9,300.9 L431.8,300.3 L432.6,300.3 L433.4,300.6 L434.3,301.4 L435.1,300.0 L436.0,300.3 L436.8,300.0 L437.6,300.3 L438.5,305.0 L439.3,329.5 L440.2,314.2 L441.0,282.5 L441.9,303.9 L442.7,289.2 L443.5,290.6 L444.4,293.1 L445.2,303.9 L446.1,295.9 L446.9,259.4 L447.7,260.2 L448.6,256.6 L449.4,260.2 L450.3,260.2 L451.1,258.6 L451.9,283.6 L452.8,300.3 L453.6,300.3 L454.5,281.9 L455.3,284.4 L456.2,300.0 L457.0,298.4 L457.8,297.8 L458.7,297.5 L459.5,296.1 L460.4,285.3 L461.2,285.6 L462.0,271.6 L462.9,260.0 L463.7,268.0 L464.6,269.4 L465.4,274.4 L466.3,267.2 L467.1,268.0 L467.9,257.7 L468.8,257.2 L469.6,257.2 L470.5,278.0 L471.3,297.8 L472.1,296.7 L473.0,297.3 L473.8,297.0 L474.7,311.2 L475.5,311.2 L476.4,310.9 L477.2,311.2 L478.0,298.4 L478.9,310.9 L479.7,310.9 L480.6,310.6 L481.4,310.9 L482.2,297.8 L483.1,276.9 L483.9,280.6 L484.8,273.0 L485.6,272.5 L486.5,273.9 L487.3,273.3 L488.1,264.7 L489.0,258.8 L489.8,263.0 L490.7,276.7 L491.5,287.5 L492.3,302.3 L493.2,302.8 L494.0,302.8 L494.9,336.5 L495.7,337.1 L496.5,381.3 L497.4,381.3 L498.2,332.0 L499.1,289.5 L499.9,265.0 L500.8,268.3 L501.6,274.7 L502.4,285.8 L503.3,283.1 L504.1,283.1 L505.0,283.1 L505.8,283.3 L506.6,281.9 L507.5,280.8 L508.3,283.3 L509.2,267.2 L510.0,269.7 L510.9,267.5 L511.7,269.7 L512.5,266.6 L513.4,269.4 L514.2,271.6 L515.1,266.6 L515.9,265.5 L516.7,281.7 L517.6,261.9 L518.4,259.4 L519.3,264.4 L520.1,263.9 L521.0,267.5 L521.8,267.2 L522.6,270.3 L523.5,272.5 L524.3,272.5 L525.2,272.8 L526.0,271.6 L526.8,270.0 L527.7,268.0 L528.5,262.5 L529.4,262.5 L530.2,260.2 L531.1,257.4 L531.9,255.8 L532.7,259.7 L533.6,266.4 L534.4,280.3 L535.3,298.9 L536.1,289.5 L536.9,289.5 L537.8,286.1 L538.6,286.4 L539.5,274.1 L540.3,277.5 L541.2,271.6 L542.0,268.3 L542.8,271.4 L543.7,272.2 L544.5,268.6 L545.4,268.0 L546.2,267.5 L547.0,268.0 L547.9,269.4 L548.7,268.0 L549.6,267.2 L550.4,269.1 L551.2,260.2 L552.1,271.9 L552.9,280.3 L553.8,280.6 L554.6,325.6 L555.5,307.5 L556.3,315.9 L557.1,303.4 L558.0,307.3 L558.8,308.7 L559.7,283.6 L560.5,282.8 L561.3,265.8 L562.2,269.7 L563.0,259.7 L563.9,269.1 L564.7,264.4 L565.6,262.2 L566.4,261.9 L567.2,261.9 L568.1,251.6 L568.9,251.6 L569.8,251.0 L570.6,251.9 L571.4,251.6 L572.3,262.7 L573.1,266.1 L574.0,270.8 L574.8,265.5 L575.7,255.5 L576.5,259.7 L577.3,263.9 L578.2,261.3 L579.0,256.1 L579.9,251.9 L580.7,252.4 L581.5,258.6 L582.4,258.3 L583.2,266.4 L584.1,265.8 L584.9,265.0 L585.8,265.0 L586.6,265.0 L587.4,265.5 L588.3,265.0 L589.1,260.2 L590.0,249.9 L590.8,274.7 L591.6,281.4 L592.5,288.3 L593.3,298.9 L594.2,298.9 L595.0,298.9 L595.8,299.2 L596.7,298.9 L597.5,299.5 L598.4,294.7 L599.2,294.7 L600.1,285.3 L600.9,286.4 L601.7,278.3 L602.6,277.8 L603.4,274.7 L604.3,268.3 L605.1,266.4 L605.9,284.2 L606.8,275.5 L607.6,295.9 L608.5,295.9 L609.3,296.1 L610.2,295.9 L611.0,280.8 L611.8,299.2 L612.7,298.4 L613.5,298.4 L614.4,298.9 L615.2,298.4 L616.0,298.4 L616.9,298.1 L617.7,295.0 L618.6,322.3 L619.4,322.9 L620.3,322.6 L621.1,294.2 L621.9,297.0 L622.8,296.7 L623.6,297.3 L624.5,296.7 L625.3,297.3 L626.1,297.0 L627.0,287.2 L627.8,287.5 L628.7,296.7 L629.5,306.2 L630.4,295.0 L631.2,283.6 L632.0,299.5 L632.9,298.1 L633.7,298.9 L634.6,309.8 L635.4,298.9 L636.2,298.6 L637.1,326.2 L637.9,326.8 L638.8,326.8 L639.6,296.4 L640.4,296.1 L641.3,295.9 L642.1,296.1 L643.0,278.0 L643.8,261.3 L644.7,264.4 L645.5,273.6 L646.3,261.9 L647.2,261.9 L648.0,261.1 L648.9,261.3 L649.7,261.9 L650.5,250.8 L651.4,249.9 L652.2,249.4 L653.1,249.1 L653.9,247.7 L654.8,246.9 L655.6,251.3 L656.4,247.7 L657.3,249.4 L658.1,247.1 L659.0,247.1 L659.8,247.1 L660.6,248.3 L661.5,247.7 L662.3,248.5 L663.2,258.8 L664.0,258.8 L664.9,258.0 L665.7,259.4 L666.5,261.1 L667.4,260.8 L668.2,261.6 L669.1,260.0 L669.9,253.3 L670.7,256.9 L671.6,249.1 L672.4,248.8 L673.3,248.0 L674.1,248.5 L675.0,248.3 L675.8,248.3 L676.6,248.3 L677.5,249.7 L678.3,252.2 L679.2,254.7 L680.0,253.3" stroke="#2ca02c" stroke-width="2" fill="none" opacity="0.8"/>
<!-- Solar Generation -->
<path d="M80.0,380.5 L80.8,384.1 L81.7,386.9 L82.5,409.7 L83.4,416.9 L84.2,420.0 L85.0,420.0 L85.9,420.0 L86.7,420.0 L87.6,420.0 L88.4,420.0 L89.3,420.0 L90.1,420.0 L90.9,420.0 L91.8,411.9 L92.6,398.6 L93.5,393.0 L94.3,391.1 L95.1,393.0 L96.0,391.3 L96.8,389.4 L97.7,389.1 L98.5,390.2 L99.4,391.3 L100.2,391.3 L101.0,394.7 L101.9,384.4 L102.7,406.1 L103.6,418.6 L104.4,420.0 L105.2,420.0 L106.1,420.0 L106.9,420.0 L107.8,420.0 L108.6,420.0 L109.5,420.0 L110.3,420.0 L111.1,419.7 L112.0,405.5 L112.8,385.5 L113.7,380.8 L114.5,380.2 L115.3,379.9 L116.2,380.5 L117.0,384.9 L117.9,380.8 L118.7,380.2 L119.6,380.2 L120.4,380.5 L121.2,388.0 L122.1,390.2 L122.9,414.7 L123.8,418.9 L124.6,420.0 L125.4,420.0 L126.3,420.0 L127.1,420.0 L128.0,420.0 L128.8,420.0 L129.6,420.0 L130.5,420.0 L131.3,420.0 L132.2,408.0 L133.0,392.2 L133.9,391.1 L134.7,381.0 L135.5,380.2 L136.4,380.5 L137.2,385.5 L138.1,387.4 L138.9,380.5 L139.7,382.4 L140.6,382.4 L141.4,398.0 L142.3,405.0 L143.1,416.4 L144.0,418.3 L144.8,420.0 L145.6,420.0 L146.5,420.0 L147.3,420.0 L148.2,420.0 L149.0,420.0 L149.8,420.0 L150.7,420.0 L151.5,419.7 L152.4,411.9 L153.2,407.8 L154.1,388.3 L154.9,389.1 L155.7,388.3 L156.6,392.2 L157.4,391.1 L158.3,402.5 L159.1,391.3 L159.9,396.1 L160.8,380.2 L161.6,395.5 L162.5,413.0 L163.3,416.7 L164.2,419.4 L165.0,420.0 L165.8,420.0 L166.7,420.0 L167.5,420.0 L168.4,420.0 L169.2,420.0 L170.0,420.0 L170.9,420.0 L171.7,419.7 L172.6,418.3 L173.4,405.5 L174.2,409.1 L175.1,403.0 L175.9,403.3 L176.8,405.0 L177.6,394.4 L178.5,388.3 L179.3,408.3 L180.1,408.3 L181.0,411.1 L181.8,412.5 L182.7,411.4 L183.5,417.8 L184.3,419.4 L185.2,420.0 L186.0,420.0 L186.9,420.0 L187.7,420.0 L188.6,420.0 L189.4,420.0 L190.2,420.0 L191.1,420.0 L191.9,420.0 L192.8,412.8 L193.6,410.5 L194.4,398.3 L195.3,403.6 L196.1,411.4 L197.0,403.3 L197.8,405.0 L198.7,416.7 L199.5,417.2 L200.3,412.8 L201.2,415.8 L202.0,415.5 L202.9,416.9 L203.7,417.2 L204.5,420.0 L205.4,420.0 L206.2,420.0 L207.1,420.0 L207.9,420.0 L208.8,420.0 L209.6,420.0 L210.4,420.0 L211.3,420.0 L212.1,420.0 L213.0,418.9 L213.8,415.5 L214.6,408.0 L215.5,412.8 L216.3,413.3 L217.2,411.6 L218.0,408.3 L218.8,409.4 L219.7,403.6 L220.5,402.7 L221.4,412.2 L222.2,408.0 L223.1,412.5 L223.9,415.5 L224.7,419.7 L225.6,420.0 L226.4,420.0 L227.3,420.0 L228.1,420.0 L228.9,420.0 L229.8,420.0 L230.6,420.0 L231.5,420.0 L232.3,419.7 L233.2,412.2 L234.0,416.9 L234.8,416.1 L235.7,415.0 L236.5,413.9 L237.4,415.0 L238.2,413.3 L239.0,411.9 L239.9,412.2 L240.7,410.3 L241.6,410.0 L242.4,413.3 L243.3,411.4 L244.1,412.5 L244.9,419.4 L245.8,420.0 L246.6,420.0 L247.5,420.0 L248.3,420.0 L249.1,420.0 L250.0,420.0 L250.8,420.0 L251.7,420.0 L252.5,419.7 L253.4,415.0 L254.2,401.9 L255.0,401.9 L255.9,388.0 L256.7,381.0 L257.6,385.2 L258.4,394.1 L259.2,394.7 L260.1,390.2 L260.9,385.8 L261.8,399.7 L262.6,403.3 L263.5,406.6 L264.3,413.3 L265.1,419.4 L266.0,420.0 L266.8,420.0 L267.7,420.0 L268.5,420.0 L269.3,420.0 L270.2,420.0 L271.0,420.0 L271.9,420.0 L272.7,419.7 L273.5,408.3 L274.4,389.9 L275.2,398.3 L276.1,379.9 L276.9,379.9 L277.8,380.8 L278.6,380.2 L279.4,401.6 L280.3,403.9 L281.1,401.4 L282.0,416.4 L282.8,398.0 L283.6,415.8 L284.5,415.0 L285.3,420.0 L286.2,420.0 L287.0,420.0 L287.9,420.0 L288.7,420.0 L289.5,420.0 L290.4,420.0 L291.2,420.0 L292.1,420.0 L292.9,420.0 L293.7,411.4 L294.6,389.7 L295.4,381.0 L296.3,380.2 L297.1,379.9 L298.0,382.7 L298.8,386.3 L299.6,380.2 L300.5,379.6 L301.3,395.8 L302.2,386.0 L303.0,396.3 L303.8,396.9 L304.7,404.7 L305.5,417.8 L306.4,420.0 L307.2,420.0 L308.1,420.0 L308.9,420.0 L309.7,420.0 L310.6,420.0 L311.4,420.0 L312.3,420.0 L313.1,419.7 L313.9,408.3 L314.8,394.7 L315.6,396.3 L316.5,388.8 L317.3,379.9 L318.1,379.9 L319.0,379.4 L319.8,385.2 L320.7,394.7 L321.5,380.8 L322.4,387.4 L323.2,381.0 L324.0,396.3 L324.9,406.4 L325.7,416.9 L326.6,420.0 L327.4,420.0 L328.2,420.0 L329.1,420.0 L329.9,420.0 L330.8,420.0 L331.6,420.0 L332.5,420.0 L333.3,420.0 L334.1,408.0 L335.0,388.0 L335.8,380.5 L336.7,381.6 L337.5,379.9 L338.3,379.4 L339.2,380.2 L340.0,379.6 L340.9,386.6 L341.7,382.4 L342.6,384.9 L343.4,382.7 L344.2,386.0 L345.1,401.4 L345.9,418.1 L346.8,420.0 L347.6,420.0 L348.4,420.0 L349.3,420.0 L350.1,420.0 L351.0,420.0 L351.8,420.0 L352.7,420.0 L353.5,420.0 L354.3,408.3 L355.2,388.8 L356.0,381.9 L356.9,380.5 L357.7,380.8 L358.5,381.9 L359.4,382.1 L360.2,382.7 L361.1,398.3 L361.9,409.7 L362.7,406.6 L363.6,408.0 L364.4,405.2 L365.3,418.3 L366.1,419.7 L367.0,420.0 L367.8,420.0 L368.6,420.0 L369.5,420.0 L370.3,420.0 L371.2,420.0 L372.0,420.0 L372.8,420.0 L373.7,420.0 L374.5,416.4 L375.4,405.5 L376.2,403.3 L377.1,398.3 L377.9,395.5 L378.7,396.6 L379.6,398.0 L380.4,395.8 L381.3,401.9 L382.1,398.8 L382.9,409.4 L383.8,395.2 L384.6,395.2 L385.5,418.1 L386.3,419.7 L387.2,420.0 L388.0,420.0 L388.8,420.0 L389.7,420.0 L390.5,420.0 L391.4,420.0 L392.2,420.0 L393.0,420.0 L393.9,420.0 L394.7,410.5 L395.6,398.8 L396.4,390.8 L397.3,380.8 L398.1,386.0 L398.9,382.7 L399.8,379.6 L400.6,379.9 L401.5,390.8 L402.3,390.5 L403.1,387.7 L404.0,391.6 L404.8,395.8 L405.7,403.3 L406.5,418.1 L407.3,420.0 L408.2,420.0 L409.0,420.0 L409.9,420.0 L410.7,420.0 L411.6,420.0 L412.4,420.0 L413.2,420.0 L414.1,420.0 L414.9,410.0 L415.8,393.6 L416.6,382.7 L417.4,381.0 L418.3,381.0 L419.1,381.3 L420.0,383.0 L420.8,383.0 L421.7,386.0 L422.5,392.4 L423.3,404.7 L424.2,399.4 L425.0,393.3 L425.9,417.5 L426.7,419.4 L427.5,420.0 L428.4,420.0 L429.2,420.0 L430.1,420.0 L430.9,420.0 L431.8,420.0 L432.6,420.0 L433.4,420.0 L434.3,420.0 L435.1,413.3 L436.0,389.9 L436.8,382.1 L437.6,380.8 L438.5,381.3 L439.3,381.3 L440.2,381.6 L441.0,380.8 L441.9,382.7 L442.7,386.3 L443.5,383.0 L444.4,386.3 L445.2,386.0 L446.1,408.6 L446.9,418.9 L447.7,420.0 L448.6,420.0 L449.4,420.0 L450.3,420.0 L451.1,420.0 L451.9,420.0 L452.8,420.0 L453.6,420.0 L454.5,420.0 L455.3,410.3 L456.2,390.5 L457.0,382.7 L457.8,382.4 L458.7,381.3 L459.5,381.6 L460.4,381.0 L461.2,381.0 L462.0,386.9 L462.9,386.6 L463.7,386.3 L464.6,382.7 L465.4,401.6 L466.3,416.9 L467.1,419.4 L467.9,420.0 L468.8,420.0 L469.6,420.0 L470.5,420.0 L471.3,420.0 L472.1,420.0 L473.0,420.0 L473.8,420.0 L474.7,420.0 L475.5,410.3 L476.4,389.7 L477.2,381.6 L478.0,380.2 L478.9,380.2 L479.7,381.0 L480.6,385.2 L481.4,382.7 L482.2,383.8 L483.1,384.7 L483.9,383.3 L484.8,381.9 L485.6,386.6 L486.5,403.6 L487.3,418.3 L488.1,420.0 L489.0,420.0 L489.8,420.0 L490.7,420.0 L491.5,420.0 L492.3,420.0 L493.2,420.0 L494.0,420.0 L494.9,420.0 L495.7,410.0 L496.5,395.8 L497.4,382.4 L498.2,382.4 L499.1,383.0 L499.9,383.0 L500.8,382.4 L501.6,392.2 L502.4,386.6 L503.3,395.5 L504.1,395.5 L505.0,403.9 L505.8,398.0 L506.6,407.5 L507.5,418.3 L508.3,419.7 L509.2,419.7 L510.0,419.7 L510.9,419.7 L511.7,419.7 L512.5,419.7 L513.4,419.4 L514.2,419.4 L515.1,419.4 L515.9,411.1 L516.7,390.5 L517.6,383.0 L518.4,380.8 L519.3,381.0 L520.1,381.9 L521.0,388.3 L521.8,394.9 L522.6,385.8 L523.5,383.5 L524.3,383.5 L525.2,382.4 L526.0,401.1 L526.8,403.9 L527.7,418.9 L528.5,419.7 L529.4,419.7 L530.2,419.7 L531.1,419.7 L531.9,419.7 L532.7,419.7 L533.6,419.7 L534.4,419.7 L535.3,419.4 L536.1,414.4 L536.9,405.0 L537.8,388.8 L538.6,388.0 L539.5,389.9 L540.3,394.9 L541.2,398.8 L542.0,396.1 L542.8,383.5 L543.7,381.9 L544.5,403.9 L545.4,413.0 L546.2,416.1 L547.0,416.9 L547.9,419.2 L548.7,419.4 L549.6,419.4 L550.4,419.4 L551.2,419.4 L552.1,419.4 L552.9,419.4 L553.8,419.4 L554.6,419.7 L555.5,419.4 L556.3,416.7 L557.1,414.2 L558.0,405.0 L558.8,394.7 L559.7,381.9 L560.5,385.8 L561.3,381.9 L562.2,384.9 L563.0,389.9 L563.9,394.4 L564.7,396.1 L565.6,395.8 L566.4,416.7 L567.2,409.7 L568.1,418.1 L568.9,419.7 L569.8,419.7 L570.6,419.7 L571.4,419.7 L572.3,419.7 L573.1,419.7 L574.0,419.7 L574.8,419.7 L575.7,419.4 L576.5,411.9 L577.3,393.0 L578.2,383.8 L579.0,381.0 L579.9,381.0 L580.7,381.3 L581.5,381.9 L582.4,382.1 L583.2,384.7 L584.1,410.5 L584.9,401.1 L585.8,394.4 L586.6,386.3 L587.4,406.1 L588.3,418.6 L589.1,419.7 L590.0,419.7 L590.8,419.7 L591.6,419.4 L592.5,419.4 L593.3,419.4 L594.2,419.4 L595.0,419.4 L595.8,419.4 L596.7,415.5 L597.5,405.5 L598.4,401.9 L599.2,397.5 L600.1,391.1 L600.9,390.5 L601.7,385.8 L602.6,398.0 L603.4,388.8 L604.3,398.8 L605.1,394.4 L605.9,407.8 L606.8,417.8 L607.6,413.6 L608.5,419.2 L609.3,419.7 L610.2,419.7 L611.0,419.7 L611.8,419.7 L612.7,419.7 L613.5,419.4 L614.4,419.4 L615.2,419.4 L616.0,419.4 L616.9,411.9 L617.7,393.0 L618.6,383.0 L619.4,381.9 L620.3,381.6 L621.1,381.0 L621.9,382.1 L622.8,382.7 L623.6,384.1 L624.5,381.0 L625.3,408.9 L626.1,404.7 L627.0,411.6 L627.8,417.8 L628.7,418.3 L629.5,419.4 L630.4,419.4 L631.2,419.4 L632.0,419.4 L632.9,419.4 L633.7,419.4 L634.6,419.4 L635.4,419.4 L636.2,419.4 L637.1,412.5 L637.9,394.4 L638.8,383.8 L639.6,381.0 L640.4,386.0 L641.3,381.0 L642.1,384.1 L643.0,383.0 L643.8,389.7 L644.7,385.2 L645.5,397.5 L646.3,397.5 L647.2,402.2 L648.0,414.7 L648.9,418.6 L649.7,419.4 L650.5,419.7 L651.4,419.7 L652.2,419.7 L653.1,419.7 L653.9,419.7 L654.8,419.7 L655.6,419.4 L656.4,419.4 L657.3,415.3 L658.1,404.7 L659.0,395.2 L659.8,399.4 L660.6,394.1 L661.5,395.8 L662.3,391.1 L663.2,391.1 L664.0,392.2 L664.9,395.8 L665.7,389.4 L666.5,391.9 L667.4,406.6 L668.2,415.8 L669.1,418.9 L669.9,419.7 L670.7,419.7 L671.6,419.7 L672.4,419.7 L673.3,419.7 L674.1,419.7 L675.0,419.7 L675.8,419.7 L676.6,419.4 L677.5,418.1 L678.3,411.9 L679.2,413.0 L680.0,406.6" stroke="#d62728" stroke-width="2" fill="none" opacity="0.8"/>
<!-- Forecast -->
<path d="M80.0,192.3 L80.8,185.1 L81.7,187.9 L82.5,190.4 L83.4,196.2 L84.2,202.1 L85.0,212.1 L85.9,223.8 L86.7,240.7 L87.6,251.6 L88.4,257.7 L89.3,260.2 L90.1,259.1 L90.9,251.9 L91.8,234.1 L92.6,212.6 L93.5,192.6 L94.3,182.0 L95.1,176.7 L96.0,171.7 L96.8,168.9 L97.7,167.3 L98.5,164.2 L99.4,158.9 L100.2,151.4 L101.0,156.4 L101.9,166.4 L102.7,175.1 L103.6,180.6 L104.4,185.4 L105.2,199.6 L106.1,199.0 L106.9,234.1 L107.8,252.4 L108.6,258.6 L109.5,261.1 L110.3,259.7 L111.1,252.2 L112.0,234.3 L112.8,212.4 L113.7,192.0 L114.5,180.1 L115.3,173.7 L116.2,168.4 L117.0,165.9 L117.9,162.0 L118.7,155.6 L119.6,147.8 L120.4,145.6 L121.2,144.7 L122.1,144.2 L122.9,152.0 L123.8,161.7 L124.6,170.3 L125.4,177.6 L126.3,213.2 L127.1,236.9 L128.0,249.7 L128.8,256.3 L129.6,259.4 L130.5,258.6 L131.3,251.9 L132.2,234.9 L133.0,212.6 L133.9,191.2 L134.7,179.0 L135.5,172.8 L136.4,167.8 L137.2,165.9 L138.1,163.6 L138.9,159.5 L139.7,152.5 L140.6,146.1 L141.4,149.7 L142.3,157.0 L143.1,166.4 L144.0,172.6 L144.8,179.2 L145.6,194.8 L146.5,217.1 L147.3,236.6 L148.2,248.0 L149.0,255.2 L149.8,258.8 L150.7,257.7 L151.5,251.3 L152.4,234.1 L153.2,212.1 L154.1,190.6 L154.9,178.7 L155.7,173.4 L156.6,169.5 L157.4,168.1 L158.3,167.5 L159.1,165.0 L159.9,161.7 L160.8,155.6 L161.6,159.5 L162.5,165.6 L163.3,172.3 L164.2,177.3 L165.0,182.0 L165.8,195.9 L166.7,220.7 L167.5,238.0 L168.4,246.9 L169.2,251.9 L170.0,255.2 L170.9,254.9 L171.7,248.3 L172.6,231.8 L173.4,211.2 L174.2,190.1 L175.1,178.4 L175.9,173.9 L176.8,169.2 L177.6,166.7 L178.5,163.6 L179.3,163.6 L180.1,164.2 L181.0,164.2 L181.8,166.2 L182.7,174.5 L183.5,182.3 L184.3,189.0 L185.2,192.0 L186.0,203.7 L186.9,230.4 L187.7,240.5 L188.6,248.0 L189.4,254.7 L190.2,258.6 L191.1,259.7 L191.9,259.1 L192.8,253.0 L193.6,241.9 L194.4,227.7 L195.3,214.9 L196.1,207.6 L197.0,207.3 L197.8,208.2 L198.7,209.3 L199.5,211.8 L200.3,212.6 L201.2,218.2 L202.0,220.2 L202.9,221.5 L203.7,219.3 L204.5,215.4 L205.4,217.4 L206.2,225.2 L207.1,240.7 L207.9,247.1 L208.8,255.5 L209.6,261.1 L210.4,264.1 L211.3,264.7 L212.1,265.2 L213.0,261.1 L213.8,252.2 L214.6,239.4 L215.5,221.8 L216.3,211.5 L217.2,204.3 L218.0,198.7 L218.8,200.1 L219.7,202.9 L220.5,205.4 L221.4,209.9 L222.2,212.4 L223.1,213.2 L223.9,214.0 L224.7,213.5 L225.6,215.7 L226.4,226.0 L227.3,232.1 L228.1,245.2 L228.9,255.5 L229.8,260.8 L230.6,263.3 L231.5,261.3 L232.3,253.8 L233.2,236.0 L234.0,214.0 L234.8,196.2 L235.7,178.1 L236.5,169.8 L237.4,165.0 L238.2,156.7 L239.0,151.7 L239.9,157.0 L240.7,166.4 L241.6,171.2 L242.4,172.6 L243.3,181.2 L244.1,184.8 L244.9,191.8 L245.8,198.2 L246.6,210.4 L247.5,225.4 L248.3,243.8 L249.1,254.7 L250.0,260.0 L250.8,262.2 L251.7,261.1 L252.5,253.3 L253.4,235.5 L254.2,213.5 L255.0,193.7 L255.9,182.9 L256.7,178.7 L257.6,173.7 L258.4,168.7 L259.2,167.0 L260.1,167.3 L260.9,166.4 L261.8,162.0 L262.6,164.8 L263.5,173.4 L264.3,180.9 L265.1,187.3 L266.0,191.8 L266.8,204.0 L267.7,215.7 L268.5,232.7 L269.3,243.3 L270.2,248.8 L271.0,252.2 L271.9,251.3 L272.7,243.8 L273.5,225.7 L274.4,203.7 L275.2,182.6 L276.1,170.3 L276.9,163.1 L277.8,158.6 L278.6,156.4 L279.4,156.4 L280.3,155.0 L281.1,152.0 L282.0,150.3 L282.8,152.2 L283.6,161.1 L284.5,170.9 L285.3,177.6 L286.2,180.1 L287.0,192.3 L287.9,191.8 L288.7,226.6 L289.5,243.3 L290.4,249.1 L291.2,252.2 L292.1,251.0 L292.9,243.8 L293.7,225.7 L294.6,203.7 L295.4,182.0 L296.3,168.7 L297.1,160.9 L298.0,155.6 L298.8,154.2 L299.6,152.8 L300.5,148.9 L301.3,145.6 L302.2,144.7 L303.0,145.0 L303.8,145.0 L304.7,152.5 L305.5,162.8 L306.4,168.7 L307.2,173.1 L308.1,208.5 L308.9,230.7 L309.7,242.7 L310.6,248.8 L311.4,252.2 L312.3,251.3 L313.1,243.8 L313.9,226.0 L314.8,204.0 L315.6,182.6 L316.5,170.3 L317.3,163.1 L318.1,158.6 L319.0,156.4 L319.8,156.4 L320.7,155.0 L321.5,152.0 L322.4,150.3 L323.2,152.2 L324.0,160.9 L324.9,170.9 L325.7,177.6 L326.6,180.1 L327.4,192.0 L328.2,210.1 L329.1,231.6 L329.9,238.2 L330.8,243.8 L331.6,247.7 L332.5,249.1 L333.3,249.4 L334.1,246.9 L335.0,236.0 L335.8,219.3 L336.7,203.4 L337.5,192.9 L338.3,184.8 L339.2,180.6 L340.0,176.7 L340.9,172.8 L341.7,168.9 L342.6,160.9 L343.4,150.6 L344.2,152.5 L345.1,158.1 L345.9,164.2 L346.8,171.4 L347.6,185.9 L348.4,189.5 L349.3,189.5 L350.1,189.5 L351.0,189.5 L351.8,189.5 L352.7,189.5 L353.5,189.5 L354.3,189.5 L355.2,189.5 L356.0,189.5 L356.9,189.5 L357.7,189.5 L358.5,189.5 L359.4,189.5 L360.2,189.5 L361.1,189.5 L361.9,189.5 L362.7,189.5 L363.6,189.5 L364.4,189.5 L365.3,189.5 L366.1,189.5 L367.0,189.5 L367.8,189.5 L368.6,189.5 L369.5,219.9 L370.3,230.2 L371.2,237.4 L372.0,242.7 L372.8,242.7 L373.7,237.4 L374.5,219.3 L375.4,197.6 L376.2,175.3 L377.1,159.5 L377.9,150.6 L378.7,144.7 L379.6,141.9 L380.4,137.5 L381.3,129.4 L382.1,122.2 L382.9,116.9 L383.8,118.6 L384.6,128.6 L385.5,140.5 L386.3,149.5 L387.2,155.0 L388.0,172.3 L388.8,196.2 L389.7,218.8 L390.5,229.6 L391.4,236.3 L392.2,240.7 L393.0,241.0 L393.9,236.3 L394.7,217.9 L395.6,195.4 L396.4,173.1 L397.3,157.8 L398.1,148.3 L398.9,140.8 L399.8,137.5 L400.6,133.3 L401.5,127.7 L402.3,121.9 L403.1,119.1 L404.0,123.6 L404.8,132.8 L405.7,142.2 L406.5,150.6 L407.3,156.1 L408.2,172.0 L409.0,365.2 L409.9,264.4 L410.7,376.3 L411.6,420.0 L412.4,420.0 L413.2,420.0 L414.1,420.0 L414.9,420.0 L415.8,420.0 L416.6,420.0 L417.4,420.0 L418.3,420.0 L419.1,420.0 L420.0,420.0 L420.8,420.0 L421.7,420.0 L422.5,420.0 L423.3,420.0 L424.2,420.0 L425.0,420.0 L425.9,420.0 L426.7,420.0 L427.5,420.0 L428.4,420.0 L429.2,250.8 L430.1,372.7 L430.9,277.2 L431.8,242.1 L432.6,246.3 L433.4,247.7 L434.3,240.7 L435.1,222.1 L436.0,198.7 L436.8,176.2 L437.6,158.9 L438.5,148.6 L439.3,141.7 L440.2,137.5 L441.0,131.9 L441.9,125.0 L442.7,116.6 L443.5,110.5 L444.4,111.6 L445.2,118.6 L446.1,128.9 L446.9,139.7 L447.7,148.6 L448.6,168.9 L449.4,190.4 L450.3,216.8 L451.1,233.8 L451.9,241.9 L452.8,247.1 L453.6,248.5 L454.5,242.4 L455.3,223.5 L456.2,199.3 L457.0,175.3 L457.8,157.2 L458.7,144.4 L459.5,134.1 L460.4,127.2 L461.2,119.7 L462.0,111.3 L462.9,103.5 L463.7,98.5 L464.6,98.2 L465.4,104.9 L466.3,114.7 L467.1,125.0 L467.9,136.4 L468.8,158.1 L469.6,189.3 L470.5,215.1 L471.3,228.8 L472.1,234.1 L473.0,242.1 L473.8,245.5 L474.7,246.3 L475.5,240.5 L476.4,227.9 L477.2,210.4 L478.0,190.1 L478.9,171.7 L479.7,157.0 L480.6,134.1 L481.4,123.6 L482.2,118.8 L483.1,104.6 L483.9,96.0 L484.8,102.7 L485.6,105.2 L486.5,115.2 L487.3,129.7 L488.1,145.8 L489.0,167.5 L489.8,191.2 L490.7,207.9 L491.5,226.6 L492.3,234.1 L493.2,242.1 L494.0,245.5 L494.9,246.3 L495.7,240.5 L496.5,227.7 L497.4,210.4 L498.2,190.1 L499.1,171.7 L499.9,157.0 L500.8,127.5 L501.6,126.1 L502.4,120.2 L503.3,104.6 L504.1,96.0 L505.0,106.9 L505.8,93.5 L506.6,111.3 L507.5,129.7 L508.3,145.8 L509.2,167.5 L510.0,180.1 L510.9,204.8 L511.7,215.7 L512.5,223.5 L513.4,230.2 L514.2,231.8 L515.1,228.5 L515.9,210.7 L516.7,185.1 L517.6,162.5 L518.4,142.2 L519.3,130.0 L520.1,120.2 L521.0,112.4 L521.8,106.9 L522.6,101.9 L523.5,97.1 L524.3,93.8 L525.2,91.3 L526.0,98.8 L526.8,106.3 L527.7,114.1 L528.5,122.5 L529.4,145.0 L530.2,184.0 L531.1,202.3 L531.9,215.7 L532.7,225.7 L533.6,232.4 L534.4,234.6 L535.3,230.7 L536.1,214.6 L536.9,189.8 L537.8,168.7 L538.6,150.6 L539.5,140.5 L540.3,133.6 L541.2,127.2 L542.0,122.5 L542.8,116.9 L543.7,110.2 L544.5,107.4 L545.4,109.4 L546.2,116.1 L547.0,123.0 L547.9,131.4 L548.7,139.4 L549.6,160.3 L550.4,194.0 L551.2,211.5 L552.1,225.4 L552.9,234.1 L553.8,239.9 L554.6,241.6 L555.5,236.0 L556.3,220.2 L557.1,199.0 L558.0,178.4 L558.8,164.8 L559.7,156.7 L560.5,150.0 L561.3,145.6 L562.2,141.1 L563.0,136.1 L563.9,128.3 L564.7,124.4 L565.6,126.9 L566.4,131.1 L567.2,137.5 L568.1,144.7 L568.9,151.7 L569.8,170.9 L570.6,190.6 L571.4,216.3 L572.3,232.4 L573.1,240.7 L574.0,245.5 L574.8,247.1 L575.7,240.5 L576.5,222.9 L577.3,200.7 L578.2,178.4 L579.0,162.3 L579.9,151.1 L580.7,142.5 L581.5,135.3 L582.4,128.3 L583.2,121.1 L584.1,113.8 L584.9,109.6 L585.8,112.2 L586.6,115.8 L587.4,123.6 L588.3,130.8 L589.1,140.0 L590.0,160.9 L590.8,189.0 L591.6,212.4 L592.5,228.2 L593.3,237.4 L594.2,242.7 L595.0,244.1 L595.8,239.1 L596.7,221.5 L597.5,197.3 L598.4,174.8 L599.2,155.6 L600.1,142.8 L600.9,132.2 L601.7,125.5 L602.6,118.8 L603.4,112.4 L604.3,108.8 L605.1,108.0 L605.9,110.2 L606.8,115.5 L607.6,123.6 L608.5,131.9 L609.3,140.0 L610.2,160.9 L611.0,200.7 L611.8,221.3 L612.7,232.4 L613.5,238.2 L614.4,246.3 L615.2,249.4 L616.0,250.2 L616.9,245.2 L617.7,233.2 L618.6,216.8 L619.4,198.2 L620.3,182.0 L621.1,170.9 L621.9,160.9 L622.8,154.2 L623.6,145.8 L624.5,138.9 L625.3,136.6 L626.1,137.8 L627.0,141.4 L627.8,148.1 L628.7,155.6 L629.5,164.8 L630.4,182.3 L631.2,200.7 L632.0,219.3 L632.9,231.8 L633.7,241.0 L634.6,246.6 L635.4,248.5 L636.2,250.2 L637.1,247.7 L637.9,230.4 L638.8,213.2 L639.6,200.4 L640.4,182.6 L641.3,169.2 L642.1,159.5 L643.0,155.0 L643.8,150.3 L644.7,144.4 L645.5,135.8 L646.3,134.1 L647.2,132.8 L648.0,136.4 L648.9,144.7 L649.7,155.3 L650.5,168.4 L651.4,189.8 L652.2,214.0 L653.1,229.9 L653.9,239.4 L654.8,245.5 L655.6,248.0 L656.4,242.1 L657.3,224.9 L658.1,201.8 L659.0,179.8 L659.8,163.1 L660.6,152.8 L661.5,144.2 L662.3,136.9 L663.2,131.9 L664.0,127.2 L664.9,119.9 L665.7,113.8 L666.5,115.2 L667.4,120.5 L668.2,126.9 L669.1,134.7 L669.9,143.9 L670.7,164.2 L671.6,194.3 L672.4,213.2 L673.3,230.2 L674.1,240.5 L675.0,246.0 L675.8,247.4 L676.6,242.7 L677.5,226.3 L678.3,204.8 L679.2,184.0 L680.0,179.5" stroke="#9467bd" stroke-width="2" fill="none" opacity="0.8"/>
<!-- Total Generation -->
<path d="M80.0,177.3 L80.8,184.5 L81.7,138.9 L82.5,131.1 L83.4,139.7 L84.2,126.1 L85.0,154.2 L85.9,163.4 L86.7,195.7 L87.6,195.7 L88.4,188.4 L89.3,175.1 L90.1,172.3 L90.9,181.7 L91.8,192.6 L92.6,183.7 L93.5,184.5 L94.3,178.4 L95.1,157.8 L96.0,153.9 L96.8,155.6 L97.7,173.9 L98.5,134.1 L99.4,116.1 L100.2,109.6 L101.0,150.3 L101.9,121.1 L102.7,155.3 L103.6,176.7 L104.4,184.2 L105.2,199.3 L106.1,189.0 L106.9,206.5 L107.8,205.7 L108.6,203.2 L109.5,199.6 L110.3,197.3 L111.1,194.0 L112.0,177.3 L112.8,171.7 L113.7,164.8 L114.5,167.8 L115.3,161.4 L116.2,157.5 L117.0,159.8 L117.9,129.1 L118.7,138.0 L119.6,123.6 L120.4,128.6 L121.2,123.8 L122.1,124.1 L122.9,143.6 L123.8,163.9 L124.6,182.3 L125.4,189.8 L126.3,197.3 L127.1,199.3 L128.0,199.6 L128.8,181.7 L129.6,184.5 L130.5,185.4 L131.3,192.0 L132.2,181.5 L133.0,188.4 L133.9,182.0 L134.7,169.2 L135.5,163.4 L136.4,140.8 L137.2,145.3 L138.1,150.0 L138.9,145.0 L139.7,147.8 L140.6,142.2 L141.4,148.6 L142.3,137.5 L143.1,133.0 L144.0,127.5 L144.8,119.9 L145.6,120.2 L146.5,153.1 L147.3,195.7 L148.2,204.6 L149.0,221.3 L149.8,225.4 L150.7,214.3 L151.5,218.5 L152.4,211.2 L153.2,211.5 L154.1,185.1 L154.9,184.5 L155.7,221.0 L156.6,225.2 L157.4,227.1 L158.3,223.5 L159.1,221.8 L159.9,231.8 L160.8,205.4 L161.6,224.6 L162.5,182.9 L163.3,206.5 L164.2,204.6 L165.0,190.9 L165.8,188.1 L166.7,215.4 L167.5,207.6 L168.4,192.0 L169.2,214.3 L170.0,214.6 L170.9,211.0 L171.7,215.7 L172.6,213.2 L173.4,202.1 L174.2,195.4 L175.1,186.2 L175.9,186.7 L176.8,189.0 L177.6,170.6 L178.5,212.9 L179.3,243.0 L180.1,237.4 L181.0,219.9 L181.8,263.0 L182.7,258.8 L183.5,274.1 L184.3,271.6 L185.2,291.4 L186.0,293.1 L186.9,297.8 L187.7,290.6 L188.6,275.3 L189.4,259.4 L190.2,267.7 L191.1,253.8 L191.9,250.8 L192.8,256.9 L193.6,269.1 L194.4,259.7 L195.3,254.9 L196.1,266.1 L197.0,256.9 L197.8,248.5 L198.7,275.3 L199.5,259.7 L200.3,270.8 L201.2,276.9 L202.0,277.2 L202.9,290.8 L203.7,288.6 L204.5,281.4 L205.4,269.7 L206.2,270.0 L207.1,262.5 L207.9,248.8 L208.8,234.3 L209.6,237.7 L210.4,249.1 L211.3,243.8 L212.1,243.0 L213.0,233.8 L213.8,211.8 L214.6,242.7 L215.5,248.3 L216.3,248.3 L217.2,252.4 L218.0,243.5 L218.8,240.7 L219.7,236.9 L220.5,235.5 L221.4,245.2 L222.2,243.3 L223.1,222.7 L223.9,194.0 L224.7,204.0 L225.6,205.4 L226.4,205.4 L227.3,197.0 L228.1,196.8 L228.9,192.6 L229.8,197.6 L230.6,200.4 L231.5,200.4 L232.3,197.9 L233.2,190.1 L234.0,190.6 L234.8,206.5 L235.7,195.4 L236.5,197.6 L237.4,194.8 L238.2,197.0 L239.0,203.4 L239.9,209.6 L240.7,196.5 L241.6,203.4 L242.4,215.7 L243.3,189.8 L244.1,181.2 L244.9,162.5 L245.8,185.1 L246.6,179.2 L247.5,181.7 L248.3,182.9 L249.1,187.3 L250.0,185.1 L250.8,185.9 L251.7,184.5 L252.5,197.3 L253.4,197.6 L254.2,185.1 L255.0,175.6 L255.9,153.3 L256.7,155.9 L257.6,172.0 L258.4,191.5 L259.2,186.2 L260.1,187.3 L260.9,175.1 L261.8,185.9 L262.6,214.0 L263.5,227.1 L264.3,241.9 L265.1,259.4 L266.0,256.3 L266.8,264.1 L267.7,267.5 L268.5,266.6 L269.3,268.3 L270.2,254.7 L271.0,266.1 L271.9,268.9 L272.7,268.6 L273.5,251.9 L274.4,234.3 L275.2,233.0 L276.1,217.1 L276.9,211.0 L277.8,199.6 L278.6,194.3 L279.4,223.8 L280.3,233.8 L281.1,208.2 L282.0,225.4 L282.8,188.4 L283.6,209.6 L284.5,189.8 L285.3,225.4 L286.2,253.3 L287.0,241.9 L287.9,215.4 L288.7,241.9 L289.5,262.5 L290.4,263.0 L291.2,257.4 L292.1,251.9 L292.9,236.0 L293.7,233.5 L294.6,215.7 L295.4,200.4 L296.3,208.5 L297.1,208.5 L298.0,213.2 L298.8,221.3 L299.6,206.8 L300.5,162.0 L301.3,199.6 L302.2,133.0 L303.0,193.4 L303.8,202.9 L304.7,160.9 L305.5,129.1 L306.4,240.7 L307.2,244.4 L308.1,217.9 L308.9,219.6 L309.7,223.5 L310.6,234.6 L311.4,250.2 L312.3,272.5 L313.1,270.3 L313.9,248.3 L314.8,237.4 L315.6,237.1 L316.5,219.3 L317.3,214.3 L318.1,214.9 L319.0,207.6 L319.8,199.0 L320.7,203.4 L321.5,190.9 L322.4,189.8 L323.2,146.4 L324.0,157.5 L324.9,178.4 L325.7,200.1 L326.6,196.5 L327.4,208.5 L328.2,206.2 L329.1,246.3 L329.9,226.0 L330.8,227.4 L331.6,226.6 L332.5,226.0 L333.3,227.1 L334.1,226.8 L335.0,238.2 L335.8,232.4 L336.7,231.8 L337.5,215.1 L338.3,207.6 L339.2,196.5 L340.0,191.2 L340.9,195.7 L341.7,203.2 L342.6,202.9 L343.4,186.7 L344.2,191.2 L345.1,156.4 L345.9,151.7 L346.8,168.1 L347.6,191.5 L348.4,183.7 L349.3,262.7 L350.1,281.1 L351.0,281.4 L351.8,289.2 L352.7,280.8 L353.5,275.0 L354.3,248.0 L355.2,222.9 L356.0,219.3 L356.9,223.8 L357.7,227.7 L358.5,205.7 L359.4,185.1 L360.2,183.7 L361.1,189.3 L361.9,187.0 L362.7,161.7 L363.6,111.0 L364.4,89.6 L365.3,101.0 L366.1,142.2 L367.0,149.2 L367.8,154.2 L368.6,148.6 L369.5,141.4 L370.3,103.2 L371.2,100.2 L372.0,128.9 L372.8,175.9 L373.7,193.2 L374.5,195.1 L375.4,190.9 L376.2,176.2 L377.1,155.9 L377.9,165.0 L378.7,151.1 L379.6,135.3 L380.4,94.9 L381.3,118.6 L382.1,106.6 L382.9,119.4 L383.8,77.9 L384.6,99.9 L385.5,125.5 L386.3,144.2 L387.2,133.9 L388.0,139.4 L388.8,139.7 L389.7,141.9 L390.5,174.5 L391.4,173.7 L392.2,180.3 L393.0,200.9 L393.9,181.7 L394.7,180.3 L395.6,184.5 L396.4,172.0 L397.3,164.2 L398.1,150.0 L398.9,156.4 L399.8,150.8 L400.6,109.9 L401.5,107.7 L402.3,105.8 L403.1,108.3 L404.0,111.6 L404.8,110.5 L405.7,123.3 L406.5,145.3 L407.3,145.6 L408.2,137.8 L409.0,146.7 L409.9,150.3 L410.7,153.3 L411.6,182.6 L412.4,200.7 L413.2,173.9 L414.1,165.3 L414.9,152.8 L415.8,178.7 L416.6,164.8 L417.4,162.5 L418.3,156.7 L419.1,159.2 L420.0,157.5 L420.8,140.0 L421.7,139.7 L422.5,130.5 L423.3,137.5 L424.2,120.5 L425.0,124.4 L425.9,131.9 L426.7,144.2 L427.5,135.8 L428.4,120.2 L429.2,125.0 L430.1,116.3 L430.9,136.9 L431.8,158.1 L432.6,153.6 L433.4,153.1 L434.3,157.2 L435.1,168.1 L436.0,162.5 L436.8,157.2 L437.6,158.4 L438.5,146.1 L439.3,156.7 L440.2,131.4 L441.0,96.3 L441.9,117.2 L442.7,113.8 L443.5,119.1 L444.4,124.7 L445.2,140.0 L446.1,169.5 L446.9,151.7 L447.7,150.8 L448.6,146.1 L449.4,156.4 L450.3,151.4 L451.1,153.6 L451.9,185.1 L452.8,199.0 L453.6,198.4 L454.5,179.0 L455.3,175.1 L456.2,168.4 L457.0,164.2 L457.8,157.8 L458.7,150.0 L459.5,153.6 L460.4,136.9 L461.2,129.1 L462.0,111.0 L462.9,97.4 L463.7,114.1 L464.6,119.1 L465.4,153.1 L466.3,166.2 L467.1,174.2 L467.9,144.4 L468.8,147.5 L469.6,146.1 L470.5,174.2 L471.3,189.5 L472.1,195.4 L473.0,195.7 L473.8,202.3 L474.7,218.8 L475.5,212.4 L476.4,190.6 L477.2,185.9 L478.0,170.3 L478.9,182.3 L479.7,170.9 L480.6,174.2 L481.4,161.1 L482.2,148.9 L483.1,129.1 L483.9,131.9 L484.8,125.5 L485.6,128.0 L486.5,146.1 L487.3,165.0 L488.1,171.2 L489.0,160.0 L489.8,148.1 L490.7,161.4 L491.5,170.3 L492.3,172.8 L493.2,170.0 L494.0,190.9 L494.9,238.5 L495.7,225.7 L496.5,252.7 L497.4,245.8 L498.2,193.2 L499.1,149.2 L499.9,125.0 L500.8,132.5 L501.6,147.2 L502.4,134.7 L503.3,143.9 L504.1,137.8 L505.0,131.6 L505.8,137.5 L506.6,128.3 L507.5,143.0 L508.3,128.0 L509.2,117.7 L510.0,129.7 L510.9,123.0 L511.7,132.5 L512.5,133.6 L513.4,149.2 L514.2,160.0 L515.1,173.4 L515.9,170.9 L516.7,167.3 L517.6,139.7 L518.4,135.0 L519.3,138.0 L520.1,136.4 L521.0,145.0 L521.8,151.1 L522.6,144.4 L523.5,145.6 L524.3,148.1 L525.2,146.4 L526.0,159.2 L526.8,161.7 L527.7,147.2 L528.5,159.2 L529.4,162.3 L530.2,153.1 L531.1,156.7 L531.9,160.3 L532.7,165.3 L533.6,153.1 L534.4,158.9 L535.3,180.3 L536.1,168.4 L536.9,172.3 L537.8,163.6 L538.6,164.2 L539.5,155.0 L540.3,159.2 L541.2,155.0 L542.0,138.9 L542.8,126.6 L543.7,123.0 L544.5,148.9 L545.4,147.5 L546.2,118.3 L547.0,136.9 L547.9,148.3 L548.7,136.4 L549.6,137.2 L550.4,133.6 L551.2,160.0 L552.1,179.0 L552.9,188.7 L553.8,193.4 L554.6,227.9 L555.5,217.6 L556.3,224.3 L557.1,208.5 L558.0,195.9 L558.8,185.1 L559.7,148.6 L560.5,160.9 L561.3,143.0 L562.2,153.9 L563.0,140.3 L563.9,162.3 L564.7,160.9 L565.6,157.5 L566.4,177.8 L567.2,168.1 L568.1,162.3 L568.9,164.5 L569.8,167.0 L570.6,170.3 L571.4,172.6 L572.3,183.1 L573.1,187.0 L574.0,190.6 L574.8,186.7 L575.7,174.8 L576.5,171.7 L577.3,155.9 L578.2,143.9 L579.0,130.8 L579.9,123.8 L580.7,120.5 L581.5,124.7 L582.4,118.6 L583.2,120.8 L584.1,144.7 L584.9,125.8 L585.8,108.3 L586.6,109.6 L587.4,138.6 L588.3,140.0 L589.1,140.3 L590.0,133.0 L590.8,183.1 L591.6,195.9 L592.5,206.0 L593.3,216.8 L594.2,217.9 L595.0,218.2 L595.8,218.8 L596.7,213.7 L597.5,206.0 L598.4,198.2 L599.2,192.9 L600.1,176.7 L600.9,177.3 L601.7,160.3 L602.6,174.8 L603.4,154.7 L604.3,145.6 L605.1,136.9 L605.9,160.3 L606.8,162.5 L607.6,179.0 L608.5,174.8 L609.3,188.7 L610.2,184.5 L611.0,182.3 L611.8,208.5 L612.7,192.0 L613.5,192.6 L614.4,209.0 L615.2,199.0 L616.0,209.0 L616.9,185.4 L617.7,174.5 L618.6,192.3 L619.4,182.3 L620.3,183.7 L621.1,162.5 L621.9,170.3 L622.8,174.8 L623.6,180.1 L624.5,169.5 L625.3,200.9 L626.1,190.4 L627.0,192.3 L627.8,190.1 L628.7,203.7 L629.5,208.7 L630.4,175.9 L631.2,155.6 L632.0,188.4 L632.9,179.2 L633.7,182.3 L634.6,202.6 L635.4,162.8 L636.2,157.8 L637.1,167.0 L637.9,171.4 L638.8,163.1 L639.6,131.4 L640.4,132.8 L641.3,135.8 L642.1,133.3 L643.0,89.9 L643.8,67.6 L644.7,77.4 L645.5,115.8 L646.3,101.0 L647.2,106.6 L648.0,115.8 L648.9,133.0 L649.7,140.5 L650.5,150.3 L651.4,144.7 L652.2,153.1 L653.1,160.0 L653.9,164.8 L654.8,166.4 L655.6,169.8 L656.4,166.4 L657.3,154.7 L658.1,135.3 L659.0,122.2 L659.8,129.4 L660.6,123.6 L661.5,128.3 L662.3,125.2 L663.2,131.6 L664.0,121.1 L664.9,116.1 L665.7,121.6 L666.5,111.9 L667.4,129.1 L668.2,141.7 L669.1,138.6 L669.9,133.3 L670.7,141.4 L671.6,128.0 L672.4,145.8 L673.3,149.2 L674.1,147.5 L675.0,149.5 L675.8,146.1 L676.6,147.5 L677.5,147.5 L678.3,152.2 L679.2,166.4 L680.0,153.6" stroke="#8c564b" stroke-width="2" fill="none" opacity="0.8"/>
<!-- Forecast Difference -->
<path d="M80.0,420.0 L80.8,420.0 L81.7,420.0 L82.5,420.0 L83.4,420.0 L84.2,420.0 L85.0,420.0 L85.9,420.0 L86.7,420.0 L87.6,420.0 L88.4,420.0 L89.3,420.0 L90.1,420.0 L90.9,420.0 L91.8,420.0 L92.6,420.0 L93.5,420.0 L94.3,420.0 L95.1,420.0 L96.0,420.0 L96.8,420.0 L97.7,420.0 L98.5,420.0 L99.4,420.0 L100.2,420.0 L101.0,420.0 L101.9,420.0 L102.7,420.0 L103.6,420.0 L104.4,420.0 L105.2,420.0 L106.1,420.0 L106.9,420.0 L107.8,420.0 L108.6,420.0 L109.5,420.0 L110.3,420.0 L111.1,420.0 L112.0,420.0 L112.8,420.0 L113.7,420.0 L114.5,420.0 L115.3,420.0 L116.2,420.0 L117.0,420.0 L117.9,420.0 L118.7,420.0 L119.6,420.0 L120.4,420.0 L121.2,420.0 L122.1,420.0 L122.9,420.0 L123.8,420.0 L124.6,420.0 L125.4,420.0 L126.3,420.0 L127.1,420.0 L128.0,420.0 L128.8,420.0 L129.6,420.0 L130.5,420.0 L131.3,420.0 L132.2,420.0 L133.0,420.0 L133.9,420.0 L134.7,420.0 L135.5,420.0 L136.4,420.0 L137.2,420.0 L138.1,420.0 L138.9,420.0 L139.7,420.0 L140.6,420.0 L141.4,420.0 L142.3,420.0 L143.1,420.0 L144.0,420.0 L144.8,420.0 L145.6,420.0 L146.5,420.0 L147.3,420.0 L148.2,420.0 L149.0,420.0 L149.8,420.0 L150.7,420.0 L151.5,420.0 L152.4,420.0 L153.2,420.0 L154.1,420.0 L154.9,420.0 L155.7,420.0 L156.6,420.0 L157.4,420.0 L158.3,420.0 L159.1,420.0 L159.9,420.0 L160.8,420.0 L161.6,420.0 L162.5,420.0 L163.3,420.0 L164.2,420.0 L165.0,420.0 L165.8,420.0 L166.7,420.0 L167.5,420.0 L168.4,420.0 L169.2,420.0 L170.0,420.0 L170.9,420.0 L171.7,420.0 L172.6,420.0 L173.4,420.0 L174.2,420.0 L175.1,420.0 L175.9,420.0 L176.8,420.0 L177.6,420.0 L178.5,420.0 L179.3,420.0 L180.1,420.0 L181.0,420.0 L181.8,420.0 L182.7,420.0 L183.5,420.0 L184.3,420.0 L185.2,420.0 L186.0,420.0 L186.9,420.0 L187.7,420.0 L188.6,420.0 L189.4,420.0 L190.2,420.0 L191.1,420.0 L191.9,420.0 L192.8,420.0 L193.6,420.0 L194.4,420.0 L195.3,420.0 L196.1,420.0 L197.0,420.0 L197.8,420.0 L198.7,420.0 L199.5,420.0 L200.3,420.0 L201.2,420.0 L202.0,420.0 L202.9,420.0 L203.7,420.0 L204.5,420.0 L205.4,420.0 L206.2,420.0 L207.1,420.0 L207.9,420.0 L208.8,420.0 L209.6,420.0 L210.4,420.0 L211.3,420.0 L212.1,420.0 L213.0,420.0 L213.8,420.0 L214.6,420.0 L215.5,420.0 L216.3,420.0 L217.2,420.0 L218.0,420.0 L218.8,420.0 L219.7,420.0 L220.5,420.0 L221.4,420.0 L222.2,420.0 L223.1,420.0 L223.9,420.0 L224.7,420.0 L225.6,420.0 L226.4,420.0 L227.3,420.0 L228.1,420.0 L228.9,420.0 L229.8,420.0 L230.6,420.0 L231.5,420.0 L232.3,420.0 L233.2,420.0 L234.0,420.0 L234.8,420.0 L235.7,420.0 L236.5,420.0 L237.4,420.0 L238.2,420.0 L239.0,420.0 L239.9,420.0 L240.7,420.0 L241.6,420.0 L242.4,420.0 L243.3,420.0 L244.1,420.0 L244.9,420.0 L245.8,420.0 L246.6,420.0 L247.5,420.0 L248.3,420.0 L249.1,420.0 L250.0,420.0 L250.8,420.0 L251.7,420.0 L252.5,420.0 L253.4,420.0 L254.2,420.0 L255.0,420.0 L255.9,420.0 L256.7,420.0 L257.6,420.0 L258.4,420.0 L259.2,420.0 L260.1,420.0 L260.9,420.0 L261.8,420.0 L262.6,420.0 L263.5,420.0 L264.3,420.0 L265.1,420.0 L266.0,420.0 L266.8,420.0 L267.7,420.0 L268.5,420.0 L269.3,420.0 L270.2,420.0 L271.0,420.0 L271.9,420.0 L272.7,420.0 L273.5,420.0 L274.4,420.0 L275.2,420.0 L276.1,420.0 L276.9,420.0 L277.8,420.0 L278.6,420.0 L279.4,420.0 L280.3,420.0 L281.1,420.0 L282.0,420.0 L282.8,420.0 L283.6,420.0 L284.5,420.0 L285.3,420.0 L286.2,420.0 L287.0,420.0 L287.9,420.0 L288.7,420.0 L289.5,420.0 L290.4,420.0 L291.2,420.0 L292.1,420.0 L292.9,420.0 L293.7,420.0 L294.6,420.0 L295.4,420.0 L296.3,420.0 L297.1,420.0 L298.0,420.0 L298.8,420.0 L299.6,420.0 L300.5,420.0 L301.3,420.0 L302.2,420.0 L303.0,420.0 L303.8,420.0 L304.7,420.0 L305.5,420.0 L306.4,420.0 L307.2,420.0 L308.1,420.0 L308.9,420.0 L309.7,420.0 L310.6,420.0 L311.4,420.0 L312.3,420.0 L313.1,420.0 L313.9,420.0 L314.8,420.0 L315.6,420.0 L316.5,420.0 L317.3,420.0 L318.1,420.0 L319.0,420.0 L319.8,420.0 L320.7,420.0 L321.5,420.0 L322.4,420.0 L323.2,420.0 L324.0,420.0 L324.9,420.0 L325.7,420.0 L326.6,420.0 L327.4,420.0 L328.2,420.0 L329.1,420.0 L329.9,420.0 L330.8,420.0 L331.6,420.0 L332.5,420.0 L333.3,420.0 L334.1,420.0 L335.0,420.0 L335.8,420.0 L336.7,420.0 L337.5,420.0 L338.3,420.0 L339.2,420.0 L340.0,420.0 L340.9,420.0 L341.7,420.0 L342.6,420.0 L343.4,420.0 L344.2,420.0 L345.1,420.0 L345.9,420.0 L346.8,420.0 L347.6,420.0 L348.4,420.0 L349.3,420.0 L350.1,420.0 L351.0,420.0 L351.8,420.0 L352.7,420.0 L353.5,420.0 L354.3,420.0 L355.2,420.0 L356.0,420.0 L356.9,420.0 L357.7,420.0 L358.5,420.0 L359.4,420.0 L360.2,420.0 L361.1,420.0 L361.9,420.0 L362.7,420.0 L363.6,420.0 L364.4,420.0 L365.3,420.0 L366.1,420.0 L367.0,420.0 L367.8,420.0 L368.6,420.0 L369.5,420.0 L370.3,420.0 L371.2,420.0 L372.0,420.0 L372.8,420.0 L373.7,420.0 L374.5,420.0 L375.4,420.0 L376.2,420.0 L377.1,420.0 L377.9,420.0 L378.7,420.0 L379.6,420.0 L380.4,420.0 L381.3,420.0 L382.1,420.0 L382.9,420.0 L383.8,420.0 L384.6,420.0 L385.5,420.0 L386.3,420.0 L387.2,420.0 L388.0,420.0 L388.8,420.0 L389.7,420.0 L390.5,420.0 L391.4,420.0 L392.2,420.0 L393.0,420.0 L393.9,420.0 L394.7,420.0 L395.6,420.0 L396.4,420.0 L397.3,420.0 L398.1,420.0 L398.9,420.0 L399.8,420.0 L400.6,420.0 L401.5,420.0 L402.3,420.0 L403.1,420.0 L404.0,420.0 L404.8,420.0 L405.7,420.0 L406.5,420.0 L407.3,420.0 L408.2,420.0 L409.0,420.0 L409.9,420.0 L410.7,420.0 L411.6,420.0 L412.4,420.0 L413.2,420.0 L414.1,420.0 L414.9,420.0 L415.8,420.0 L416.6,420.0 L417.4,420.0 L418.3,420.0 L419.1,420.0 L420.0,420.0 L420.8,420.0 L421.7,420.0 L422.5,420.0 L423.3,420.0 L424.2,420.0 L425.0,420.0 L425.9,420.0 L426.7,420.0 L427.5,420.0 L428.4,420.0 L429.2,420.0 L430.1,420.0 L430.9,420.0 L431.8,420.0 L432.6,420.0 L433.4,420.0 L434.3,420.0 L435.1,420.0 L436.0,420.0 L436.8,420.0 L437.6,420.0 L438.5,420.0 L439.3,420.0 L440.2,420.0 L441.0,420.0 L441.9,420.0 L442.7,420.0 L443.5,420.0 L444.4,420.0 L445.2,420.0 L446.1,420.0 L446.9,420.0 L447.7,420.0 L448.6,420.0 L449.4,420.0 L450.3,420.0 L451.1,420.0 L451.9,420.0 L452.8,420.0 L453.6,420.0 L454.5,420.0 L455.3,420.0 L456.2,420.0 L457.0,420.0 L457.8,420.0 L458.7,420.0 L459.5,420.0 L460.4,420.0 L461.2,420.0 L462.0,420.0 L462.9,420.0 L463.7,420.0 L464.6,420.0 L465.4,420.0 L466.3,420.0 L467.1,420.0 L467.9,420.0 L468.8,420.0 L469.6,420.0 L470.5,420.0 L471.3,420.0 L472.1,420.0 L473.0,420.0 L473.8,420.0 L474.7,420.0 L475.5,420.0 L476.4,420.0 L477.2,420.0 L478.0,420.0 L478.9,420.0 L479.7,420.0 L480.6,420.0 L481.4,420.0 L482.2,420.0 L483.1,420.0 L483.9,420.0 L484.8,420.0 L485.6,420.0 L486.5,420.0 L487.3,420.0 L488.1,420.0 L489.0,420.0 L489.8,420.0 L490.7,420.0 L491.5,420.0 L492.3,420.0 L493.2,420.0 L494.0,420.0 L494.9,420.0 L495.7,420.0 L496.5,420.0 L497.4,420.0 L498.2,420.0 L499.1,420.0 L499.9,420.0 L500.8,420.0 L501.6,420.0 L502.4,420.0 L503.3,420.0 L504.1,420.0 L505.0,420.0 L505.8,420.0 L506.6,420.0 L507.5,420.0 L508.3,420.0 L509.2,420.0 L510.0,420.0 L510.9,420.0 L511.7,420.0 L512.5,420.0 L513.4,420.0 L514.2,420.0 L515.1,420.0 L515.9,420.0 L516.7,420.0 L517.6,420.0 L518.4,420.0 L519.3,420.0 L520.1,420.0 L521.0,420.0 L521.8,420.0 L522.6,420.0 L523.5,420.0 L524.3,420.0 L525.2,420.0 L526.0,420.0 L526.8,420.0 L527.7,420.0 L528.5,420.0 L529.4,420.0 L530.2,420.0 L531.1,420.0 L531.9,420.0 L532.7,420.0 L533.6,420.0 L534.4,420.0 L535.3,420.0 L536.1,420.0 L536.9,420.0 L537.8,420.0 L538.6,420.0 L539.5,420.0 L540.3,420.0 L541.2,420.0 L542.0,420.0 L542.8,420.0 L543.7,420.0 L544.5,420.0 L545.4,420.0 L546.2,420.0 L547.0,420.0 L547.9,420.0 L548.7,420.0 L549.6,420.0 L550.4,420.0 L551.2,420.0 L552.1,420.0 L552.9,420.0 L553.8,420.0 L554.6,420.0 L555.5,420.0 L556.3,420.0 L557.1,420.0 L558.0,420.0 L558.8,420.0 L559.7,420.0 L560.5,420.0 L561.3,420.0 L562.2,420.0 L563.0,420.0 L563.9,420.0 L564.7,420.0 L565.6,420.0 L566.4,420.0 L567.2,420.0 L568.1,420.0 L568.9,420.0 L569.8,420.0 L570.6,420.0 L571.4,420.0 L572.3,420.0 L573.1,420.0 L574.0,420.0 L574.8,420.0 L575.7,420.0 L576.5,420.0 L577.3,420.0 L578.2,420.0 L579.0,420.0 L579.9,420.0 L580.7,420.0 L581.5,420.0 L582.4,420.0 L583.2,420.0 L584.1,420.0 L584.9,420.0 L585.8,420.0 L586.6,420.0 L587.4,420.0 L588.3,420.0 L589.1,420.0 L590.0,420.0 L590.8,420.0 L591.6,420.0 L592.5,420.0 L593.3,420.0 L594.2,420.0 L595.0,420.0 L595.8,420.0 L596.7,420.0 L597.5,420.0 L598.4,420.0 L599.2,420.0 L600.1,420.0 L600.9,420.0 L601.7,420.0 L602.6,420.0 L603.4,420.0 L604.3,420.0 L605.1,420.0 L605.9,420.0 L606.8,420.0 L607.6,420.0 L608.5,420.0 L609.3,420.0 L610.2,420.0 L611.0,420.0 L611.8,420.0 L612.7,420.0 L613.5,420.0 L614.4,420.0 L615.2,420.0 L616.0,420.0 L616.9,420.0 L617.7,420.0 L618.6,420.0 L619.4,420.0 L620.3,420.0 L621.1,420.0 L621.9,420.0 L622.8,420.0 L623.6,420.0 L624.5,420.0 L625.3,420.0 L626.1,420.0 L627.0,420.0 L627.8,420.0 L628.7,420.0 L629.5,420.0 L630.4,420.0 L631.2,420.0 L632.0,420.0 L632.9,420.0 L633.7,420.0 L634.6,420.0 L635.4,420.0 L636.2,420.0 L637.1,420.0 L637.9,420.0 L638.8,420.0 L639.6,420.0 L640.4,420.0 L641.3,420.0 L642.1,420.0 L643.0,420.0 L643.8,420.0 L644.7,420.0 L645.5,420.0 L646.3,420.0 L647.2,420.0 L648.0,420.0 L648.9,420.0 L649.7,420.0 L650.5,420.0 L651.4,420.0 L652.2,420.0 L653.1,420.0 L653.9,420.0 L654.8,420.0 L655.6,420.0 L656.4,420.0 L657.3,420.0 L658.1,420.0 L659.0,420.0 L659.8,420.0 L660.6,420.0 L661.5,420.0 L662.3,420.0 L663.2,420.0 L664.0,420.0 L664.9,420.0 L665.7,420.0 L666.5,420.0 L667.4,420.0 L668.2,420.0 L669.1,420.0 L669.9,420.0 L670.7,420.0 L671.6,420.0 L672.4,420.0 L673.3,420.0 L674.1,420.0 L675.0,420.0 L675.8,420.0 L676.6,420.0 L677.5,420.0 L678.3,420.0 L679.2,420.0 L680.0,420.0" stroke="#e377c2" stroke-width="2" fill="none" opacity="0.8"/>

<!-- Legend -->
<line x1="690" y1="70" x2="705" y2="70" stroke="#1f77b4" stroke-width="3"/>
<text x="710" y="74" class="legend">Wind Generation</text>
<line x1="690" y1="88" x2="705" y2="88" stroke="#ff7f0e" stroke-width="3"/>
<text x="710" y="92" class="legend">Hydro Generation</text>
<line x1="690" y1="106" x2="705" y2="106" stroke="#2ca02c" stroke-width="3"/>
<text x="710" y="110" class="legend">Thermal Generation</text>
<line x1="690" y1="124" x2="705" y2="124" stroke="#d62728" stroke-width="3"/>
<text x="710" y="128" class="legend">Solar Generation</text>
<line x1="690" y1="142" x2="705" y2="142" stroke="#9467bd" stroke-width="3"/>
<text x="710" y="146" class="legend">Forecast</text>
<line x1="690" y1="160" x2="705" y2="160" stroke="#8c564b" stroke-width="3"/>
<text x="710" y="164" class="legend">Total Generation</text>
<line x1="690" y1="178" x2="705" y2="178" stroke="#e377c2" stroke-width="3"/>
<text x="710" y="182" class="legend">Forecast Difference</text>

<!-- Date range -->
<text x="80" y="495" class="legend">Range: 06/21 - 07/21/2026 (714 records)</text>
</svg>