<?xml version="1.0" encoding="UTF-8"?>
<svg width="800" height="500" xmlns="http://www.w3.org/2000/svg">
<style>
.axis-line { stroke: #333; stroke-width: 1; }
.grid-line { stroke: #ddd; stroke-width: 0.5; }
.title { font: 16px Arial; text-anchor: middle; fill: #333; }
.axis-label { font: 12px Arial; text-anchor: middle; fill: #666; }
.legend { font: 10px Arial; fill: #333; }
</style>

<!-- Title -->
<text x="400.0" y="25" class="title">Northwestern Energy Generation Data - Past 30 Days</text>

<!-- Plot area background -->
<rect x="80" y="50" width="600" height="370" fill="white" stroke="#ddd"/>

<!-- Y-axis -->
<line x1="80" y1="50" x2="80" y2="420" class="axis-line"/>
<text x="30" y="235.0" class="axis-label" transform="rotate(-90, 30, 235.0)">Generation (MW)</text>

<!-- X-axis -->
<line x1="80" y1="420" x2="680" y2="420" class="axis-line"/>
<text x="380.0" y="480" class="axis-label">Time</text>
<line x1="80" y1="420.0" x2="680" y2="420.0" class="grid-line"/>
<text x="70" y="425.0" class="legend" text-anchor="end">0</text>
<line x1="80" y1="327.5" x2="680" y2="327.5" class="grid-line"/>
<text x="70" y="332.5" class="legend" text-anchor="end">272</text>
<line x1="80" y1="235.0" x2="680" y2="235.0" class="grid-line"/>
<text x="70" y="240.0" class="legend" text-anchor="end">543</text>
<line x1="80" y1="142.5" x2="680" y2="142.5" class="grid-line"/>
<text x="70" y="147.5" class="legend" text-anchor="end">815</text>
<line x1="80" y1="50.0" x2="680" y2="50.0" class="grid-line"/>
<text x="70" y="55.0" class="legend" text-anchor="end">1087</text>
<!-- Wind Generation -->
<path d="M80.0,417.6 L80.8,417.6 L81.7,417.6 L82.5,414.2 L83.4,412.5 L84.2,414.6 L85.1,416.6 L85.9,419.7 L86.7,420.0 L87.6,420.0 L88.4,419.3 L89.3,419.0 L90.1,416.9 L91.0,412.9 L91.8,412.2 L92.6,410.5 L93.5,395.5 L94.3,388.3 L95.2,377.4 L96.0,369.3 L96.9,353.3 L97.7,355.7 L98.5,343.7 L99.4,337.3 L100.2,331.1 L101.1,311.1 L101.9,307.0 L102.8,300.8 L103.6,302.2 L104.4,302.5 L105.3,295.7 L106.1,292.0 L107.0,292.7 L107.8,288.9 L108.7,292.3 L109.5,286.5 L110.3,289.9 L111.2,288.2 L112.0,283.8 L112.9,285.5 L113.7,292.7 L114.6,298.8 L115.4,294.4 L116.2,293.0 L117.1,294.4 L117.9,300.8 L118.8,287.6 L119.6,311.1 L120.4,310.7 L121.3,302.2 L122.1,285.2 L123.0,284.5 L123.8,300.8 L124.7,302.9 L125.5,293.3 L126.3,287.2 L127.2,298.5 L128.0,293.0 L128.9,323.6 L129.7,356.3 L130.6,373.0 L131.4,360.4 L132.2,363.8 L133.1,377.4 L133.9,354.3 L134.8,356.7 L135.6,340.0 L136.5,316.8 L137.3,328.8 L138.1,357.7 L139.0,333.9 L139.8,341.7 L140.7,351.2 L141.5,336.6 L142.4,346.1 L143.2,360.1 L144.0,363.8 L144.9,362.1 L145.7,382.5 L146.6,399.2 L147.4,399.2 L148.3,403.3 L149.1,409.8 L149.9,400.9 L150.8,395.8 L151.6,382.2 L152.5,352.6 L153.3,340.3 L154.2,334.2 L155.0,341.0 L155.8,343.4 L156.7,337.6 L157.5,333.9 L158.4,334.5 L159.2,332.2 L160.1,328.1 L160.9,321.6 L161.7,335.9 L162.6,326.0 L163.4,330.5 L164.3,335.9 L165.1,319.6 L166.0,321.6 L166.8,319.2 L167.6,317.9 L168.5,315.5 L169.3,324.0 L170.2,324.3 L171.0,325.0 L171.9,319.2 L172.7,329.1 L173.5,324.7 L174.4,324.7 L175.2,322.3 L176.1,324.0 L176.9,323.3 L177.8,294.7 L178.6,310.4 L179.4,312.8 L180.3,309.3 L181.1,321.3 L182.0,337.9 L182.8,342.7 L183.7,346.8 L184.5,330.1 L185.3,340.7 L186.2,366.9 L187.0,382.2 L187.9,379.5 L188.7,397.5 L189.6,400.3 L190.4,398.2 L191.2,377.1 L192.1,352.2 L192.9,340.7 L193.8,327.1 L194.6,322.3 L195.4,321.9 L196.3,352.2 L197.1,383.2 L198.0,364.8 L198.8,364.8 L199.7,414.6 L200.5,410.1 L201.3,409.1 L202.2,396.8 L203.0,376.4 L203.9,335.2 L204.7,320.9 L205.6,315.1 L206.4,336.2 L207.2,353.3 L208.1,352.6 L208.9,357.7 L209.8,360.4 L210.6,355.0 L211.5,355.3 L212.3,344.1 L213.1,336.6 L214.0,356.7 L214.8,374.0 L215.7,403.7 L216.5,377.8 L217.4,374.7 L218.2,351.6 L219.0,326.7 L219.9,296.8 L220.7,276.7 L221.6,270.2 L222.4,282.8 L223.3,270.9 L224.1,273.3 L224.9,275.3 L225.8,275.6 L226.6,274.6 L227.5,274.3 L228.3,275.0 L229.2,275.0 L230.0,288.9 L230.8,278.0 L231.7,275.3 L232.5,309.3 L233.4,312.8 L234.2,270.9 L235.1,269.9 L235.9,286.5 L236.7,297.1 L237.6,300.8 L238.4,312.4 L239.3,295.7 L240.1,284.5 L241.0,284.2 L241.8,305.3 L242.6,273.9 L243.5,285.9 L244.3,290.3 L245.2,286.9 L246.0,287.9 L246.9,285.5 L247.7,287.2 L248.5,295.0 L249.4,300.2 L250.2,299.8 L251.1,295.4 L251.9,300.5 L252.8,285.5 L253.6,305.3 L254.4,293.3 L255.3,308.7 L256.1,298.8 L257.0,279.0 L257.8,307.0 L258.7,275.0 L259.5,280.7 L260.3,278.0 L261.2,282.8 L262.0,299.1 L262.9,289.6 L263.7,317.9 L264.6,325.4 L265.4,331.1 L266.2,370.0 L267.1,372.3 L267.9,349.2 L268.8,348.8 L269.6,340.7 L270.4,322.3 L271.3,309.0 L272.1,336.9 L273.0,332.8 L273.8,346.1 L274.7,320.6 L275.5,325.0 L276.3,345.4 L277.2,352.6 L278.0,325.4 L278.9,292.3 L279.7,314.1 L280.6,334.2 L281.4,327.4 L282.2,369.6 L283.1,362.1 L283.9,383.9 L284.8,391.1 L285.6,375.1 L286.5,372.0 L287.3,378.1 L288.1,399.6 L289.0,385.6 L289.8,360.1 L290.7,359.7 L291.5,349.5 L292.4,351.9 L293.2,327.7 L294.0,301.5 L294.9,307.6 L295.7,328.8 L296.6,315.8 L297.4,302.2 L298.3,302.9 L299.1,288.2 L299.9,293.3 L300.8,291.3 L301.6,293.3 L302.5,298.5 L303.3,293.3 L304.2,294.4 L305.0,302.2 L305.8,298.1 L306.7,301.5 L307.5,315.1 L308.4,320.6 L309.2,311.7 L310.1,311.1 L310.9,290.3 L311.7,289.6 L312.6,281.8 L313.4,279.4 L314.3,285.9 L315.1,293.0 L316.0,306.6 L316.8,304.9 L317.6,304.2 L318.5,316.2 L319.3,342.0 L320.2,333.2 L321.0,327.7 L321.9,342.0 L322.7,336.2 L323.5,349.2 L324.4,378.8 L325.2,388.0 L326.1,398.6 L326.9,409.1 L327.8,415.9 L328.6,419.0 L329.4,419.3 L330.3,419.7 L331.1,415.9 L332.0,407.7 L332.8,407.1 L333.7,404.0 L334.5,405.7 L335.3,402.6 L336.2,403.0 L337.0,401.6 L337.9,410.1 L338.7,412.5 L339.6,408.4 L340.4,398.9 L341.2,381.2 L342.1,334.2 L342.9,326.7 L343.8,334.2 L344.6,325.4 L345.4,309.0 L346.3,313.1 L347.1,324.3 L348.0,338.3 L348.8,344.4 L349.7,394.1 L350.5,411.8 L351.3,407.4 L352.2,405.0 L353.0,405.0 L353.9,409.8 L354.7,413.5 L355.6,412.2 L356.4,404.3 L357.2,389.4 L358.1,379.8 L358.9,364.2 L359.8,350.5 L360.6,340.0 L361.5,285.5 L362.3,282.5 L363.1,293.7 L364.0,301.2 L364.8,296.1 L365.7,320.6 L366.5,339.3 L367.4,320.2 L368.2,296.1 L369.0,288.6 L369.9,299.5 L370.7,312.4 L371.6,313.1 L372.4,320.6 L373.3,322.3 L374.1,321.6 L374.9,313.4 L375.8,325.7 L376.6,333.9 L377.5,335.2 L378.3,337.9 L379.2,344.4 L380.0,348.5 L380.8,318.9 L381.7,292.7 L382.5,287.6 L383.4,286.2 L384.2,292.3 L385.1,280.1 L385.9,282.1 L386.7,306.6 L387.6,308.7 L388.4,303.9 L389.3,292.0 L390.1,289.3 L391.0,312.4 L391.8,315.1 L392.6,319.2 L393.5,319.6 L394.3,313.8 L395.2,339.0 L396.0,325.7 L396.9,308.0 L397.7,283.1 L398.5,300.2 L399.4,284.8 L400.2,284.8 L401.1,297.4 L401.9,293.7 L402.8,324.7 L403.6,304.2 L404.4,302.2 L405.3,298.8 L406.1,308.7 L407.0,311.1 L407.8,330.5 L408.7,323.0 L409.5,338.3 L410.3,353.3 L411.2,330.5 L412.0,304.6 L412.9,317.9 L413.7,308.3 L414.6,298.5 L415.4,299.1 L416.2,286.5 L417.1,279.4 L417.9,300.2 L418.8,335.6 L419.6,355.0 L420.4,340.7 L421.3,333.9 L422.1,307.3 L423.0,299.8 L423.8,313.1 L424.7,361.1 L425.5,380.8 L426.3,383.9 L427.2,362.5 L428.0,352.2 L428.9,323.6 L429.7,288.2 L430.6,287.9 L431.4,304.2 L432.2,312.8 L433.1,302.5 L433.9,324.3 L434.8,363.5 L435.6,403.3 L436.5,415.6 L437.3,409.8 L438.1,408.4 L439.0,405.7 L439.8,399.6 L440.7,390.7 L441.5,373.0 L442.4,374.0 L443.2,370.3 L444.0,384.3 L444.9,378.8 L445.7,367.6 L446.6,359.1 L447.4,353.6 L448.3,348.5 L449.1,348.2 L449.9,349.5 L450.8,348.2 L451.6,349.5 L452.5,372.0 L453.3,379.1 L454.2,388.0 L455.0,372.7 L455.8,368.2 L456.7,375.1 L457.5,362.5 L458.4,369.6 L459.2,361.1 L460.1,370.3 L460.9,367.9 L461.7,332.8 L462.6,329.8 L463.4,327.1 L464.3,315.8 L465.1,312.1 L466.0,302.9 L466.8,318.5 L467.6,298.8 L468.5,299.8 L469.3,335.2 L470.2,337.3 L471.0,348.2 L471.9,349.2 L472.7,351.6 L473.5,330.1 L474.4,325.7 L475.2,329.1 L476.1,329.4 L476.9,328.1 L477.8,327.7 L478.6,326.0 L479.4,353.6 L480.3,334.5 L481.1,343.4 L482.0,328.4 L482.8,320.9 L483.7,321.6 L484.5,324.7 L485.3,337.9 L486.2,334.2 L487.0,327.4 L487.9,333.2 L488.7,329.4 L489.6,325.7 L490.4,329.4 L491.2,337.9 L492.1,326.4 L492.9,330.5 L493.8,330.1 L494.6,325.0 L495.4,326.0 L496.3,320.6 L497.1,319.9 L498.0,319.6 L498.8,321.3 L499.7,323.6 L500.5,329.4 L501.3,331.1 L502.2,335.9 L503.0,334.2 L503.9,361.8 L504.7,355.0 L505.6,359.1 L506.4,355.3 L507.2,394.1 L508.1,404.3 L508.9,396.8 L509.8,394.5 L510.6,394.1 L511.5,409.4 L512.3,408.4 L513.1,412.9 L514.0,415.6 L514.8,417.3 L515.7,414.9 L516.5,416.6 L517.4,415.9 L518.2,411.8 L519.0,400.9 L519.9,400.6 L520.7,412.5 L521.6,414.6 L522.4,409.1 L523.3,408.4 L524.1,404.3 L524.9,401.3 L525.8,403.7 L526.6,398.9 L527.5,401.6 L528.3,395.5 L529.2,376.8 L530.0,348.5 L530.8,348.8 L531.7,362.1 L532.5,350.2 L533.4,368.6 L534.2,356.0 L535.1,324.3 L535.9,324.0 L536.7,302.9 L537.6,334.2 L538.4,317.5 L539.3,334.2 L540.1,341.4 L541.0,361.4 L541.8,393.1 L542.6,402.3 L543.5,411.8 L544.3,406.7 L545.2,412.2 L546.0,412.2 L546.9,413.9 L547.7,414.9 L548.5,406.7 L549.4,403.3 L550.2,402.0 L551.1,391.4 L551.9,384.3 L552.8,389.7 L553.6,397.9 L554.4,397.5 L555.3,387.0 L556.1,399.6 L557.0,393.1 L557.8,367.6 L558.7,367.6 L559.5,390.7 L560.3,395.8 L561.2,408.8 L562.0,405.7 L562.9,395.5 L563.7,410.5 L564.6,418.0 L565.4,413.9 L566.2,401.6 L567.1,402.0 L567.9,414.6 L568.8,418.3 L569.6,418.0 L570.4,417.3 L571.3,418.3 L572.1,415.9 L573.0,415.9 L573.8,414.9 L574.7,407.4 L575.5,406.0 L576.3,415.9 L577.2,413.2 L578.0,412.5 L578.9,410.1 L579.7,405.0 L580.6,400.3 L581.4,408.1 L582.2,411.1 L583.1,415.2 L583.9,410.8 L584.8,417.3 L585.6,415.9 L586.5,414.9 L587.3,397.5 L588.1,379.1 L589.0,365.5 L589.8,361.1 L590.7,356.7 L591.5,360.4 L592.4,332.8 L593.2,306.3 L594.0,326.7 L594.9,333.9 L595.7,330.5 L596.6,306.6 L597.4,308.7 L598.3,344.8 L599.1,341.4 L599.9,336.2 L600.8,337.6 L601.6,346.8 L602.5,367.9 L603.3,367.9 L604.2,365.9 L605.0,350.5 L605.8,344.8 L606.7,364.8 L607.5,330.1 L608.4,311.7 L609.2,288.2 L610.1,348.8 L610.9,347.1 L611.7,331.5 L612.6,370.6 L613.4,374.4 L614.3,375.4 L615.1,367.6 L616.0,363.1 L616.8,360.4 L617.6,359.7 L618.5,300.8 L619.3,318.5 L620.2,329.4 L621.0,283.5 L621.9,276.3 L622.7,294.4 L623.5,298.5 L624.4,294.0 L625.2,283.8 L626.1,292.7 L626.9,320.6 L627.8,335.9 L628.6,339.7 L629.4,347.1 L630.3,357.7 L631.1,332.8 L632.0,320.6 L632.8,331.5 L633.7,289.9 L634.5,288.6 L635.3,294.4 L636.2,321.6 L637.0,325.7 L637.9,332.5 L638.7,334.5 L639.6,333.5 L640.4,316.8 L641.2,313.4 L642.1,330.1 L642.9,325.7 L643.8,304.6 L644.6,311.1 L645.4,321.3 L646.3,342.0 L647.1,347.8 L648.0,356.0 L648.8,353.3 L649.7,348.2 L650.5,341.7 L651.3,344.8 L652.2,337.9 L653.0,334.5 L653.9,310.4 L654.7,297.4 L655.6,290.3 L656.4,290.6 L657.2,291.6 L658.1,286.9 L658.9,287.2 L659.8,283.5 L660.6,284.2 L661.5,288.6 L662.3,287.6 L663.1,287.6 L664.0,292.0 L664.8,296.4 L665.7,290.6 L666.5,288.9 L667.4,291.6 L668.2,289.3 L669.0,285.9 L669.9,293.0 L670.7,288.9 L671.6,291.0 L672.4,287.6 L673.3,289.9 L674.1,294.4 L674.9,299.8 L675.8,309.3 L676.6,285.2 L677.5,283.8 L678.3,285.5 L679.2,282.8 L680.0,282.8" stroke="#1f77b4" stroke-width="2" fill="none" opacity="0.8"/>
<!-- Hydro Generation -->
<path d="M80.0,343.7 L80.8,344.1 L81.7,344.1 L82.5,343.7 L83.4,343.7 L84.2,344.1 L85.1,343.7 L85.9,343.7 L86.7,343.4 L87.6,343.4 L88.4,342.7 L89.3,343.1 L90.1,343.1 L91.0,343.1 L91.8,344.1 L92.6,343.4 L93.5,344.1 L94.3,344.4 L95.2,344.1 L96.0,343.7 L96.9,343.7 L97.7,343.4 L98.5,344.1 L99.4,344.1 L100.2,344.1 L101.1,343.7 L101.9,344.1 L102.8,344.8 L103.6,344.8 L104.4,346.1 L105.3,347.1 L106.1,349.2 L107.0,349.5 L107.8,351.6 L108.7,354.3 L109.5,355.7 L110.3,357.4 L111.2,359.4 L112.0,359.1 L112.9,358.4 L113.7,356.0 L114.6,354.3 L115.4,353.3 L116.2,349.9 L117.1,348.5 L117.9,346.5 L118.8,346.8 L119.6,346.5 L120.4,345.1 L121.3,344.8 L122.1,343.4 L123.0,344.4 L123.8,344.1 L124.7,342.4 L125.5,342.0 L126.3,342.0 L127.2,342.4 L128.0,342.4 L128.9,342.0 L129.7,341.4 L130.6,341.7 L131.4,342.0 L132.2,342.4 L133.1,342.0 L133.9,341.7 L134.8,340.0 L135.6,340.0 L136.5,338.6 L137.3,338.3 L138.1,339.0 L139.0,338.3 L139.8,339.0 L140.7,338.3 L141.5,338.3 L142.4,338.3 L143.2,337.9 L144.0,338.3 L144.9,338.3 L145.7,337.6 L146.6,338.3 L147.4,337.9 L148.3,338.6 L149.1,339.3 L149.9,341.0 L150.8,340.3 L151.6,342.0 L152.5,337.6 L153.3,338.3 L154.2,343.4 L155.0,344.8 L155.8,342.0 L156.7,342.4 L157.5,342.4 L158.4,344.1 L159.2,344.1 L160.1,345.4 L160.9,345.4 L161.7,344.1 L162.6,344.4 L163.4,344.4 L164.3,343.7 L165.1,344.4 L166.0,343.7 L166.8,343.7 L167.6,343.4 L168.5,343.4 L169.3,344.8 L170.2,341.4 L171.0,343.4 L171.9,343.7 L172.7,343.1 L173.5,343.4 L174.4,344.1 L175.2,344.1 L176.1,344.1 L176.9,343.4 L177.8,344.4 L178.6,344.8 L179.4,345.4 L180.3,344.8 L181.1,345.4 L182.0,345.1 L182.8,345.4 L183.7,344.8 L184.5,345.1 L185.3,344.4 L186.2,345.1 L187.0,345.1 L187.9,343.4 L188.7,343.7 L189.6,343.4 L190.4,343.7 L191.2,343.7 L192.1,343.1 L192.9,343.7 L193.8,343.7 L194.6,343.7 L195.4,343.7 L196.3,343.1 L197.1,343.7 L198.0,343.4 L198.8,343.4 L199.7,343.7 L200.5,343.7 L201.3,343.7 L202.2,343.7 L203.0,343.1 L203.9,343.4 L204.7,343.1 L205.6,343.7 L206.4,343.7 L207.2,343.4 L208.1,343.7 L208.9,343.4 L209.8,343.7 L210.6,343.1 L211.5,343.4 L212.3,343.1 L213.1,343.7 L214.0,343.4 L214.8,343.7 L215.7,343.4 L216.5,343.1 L217.4,343.1 L218.2,343.4 L219.0,343.4 L219.9,343.1 L220.7,343.1 L221.6,344.1 L222.4,343.7 L223.3,343.7 L224.1,343.4 L224.9,344.1 L225.8,343.7 L226.6,343.4 L227.5,343.4 L228.3,343.4 L229.2,344.1 L230.0,343.1 L230.8,343.1 L231.7,343.1 L232.5,343.1 L233.4,343.7 L234.2,344.1 L235.1,343.7 L235.9,342.4 L236.7,342.4 L237.6,343.1 L238.4,342.7 L239.3,342.7 L240.1,344.1 L241.0,344.8 L241.8,344.1 L242.6,344.1 L243.5,343.7 L244.3,343.7 L245.2,342.7 L246.0,343.7 L246.9,343.7 L247.7,343.7 L248.5,344.1 L249.4,343.4 L250.2,343.4 L251.1,343.7 L251.9,343.4 L252.8,343.1 L253.6,342.7 L254.4,343.1 L255.3,342.7 L256.1,342.7 L257.0,342.7 L257.8,342.4 L258.7,342.7 L259.5,342.4 L260.3,342.7 L261.2,342.7 L262.0,341.0 L262.9,341.7 L263.7,341.0 L264.6,341.7 L265.4,341.7 L266.2,341.4 L267.1,341.0 L267.9,341.0 L268.8,339.3 L269.6,339.7 L270.4,339.7 L271.3,339.7 L272.1,339.3 L273.0,340.7 L273.8,342.0 L274.7,341.0 L275.5,342.0 L276.3,341.4 L277.2,341.7 L278.0,341.0 L278.9,340.7 L279.7,339.0 L280.6,340.0 L281.4,340.3 L282.2,339.3 L283.1,339.3 L283.9,339.0 L284.8,339.7 L285.6,339.3 L286.5,339.3 L287.3,338.3 L288.1,338.6 L289.0,337.9 L289.8,337.9 L290.7,337.3 L291.5,347.5 L292.4,347.5 L293.2,347.1 L294.0,347.5 L294.9,336.9 L295.7,336.9 L296.6,336.2 L297.4,336.9 L298.3,336.9 L299.1,336.9 L299.9,336.6 L300.8,336.6 L301.6,336.6 L302.5,337.3 L303.3,337.3 L304.2,336.9 L305.0,336.6 L305.8,336.6 L306.7,336.6 L307.5,336.6 L308.4,336.9 L309.2,336.6 L310.1,335.9 L310.9,334.9 L311.7,335.2 L312.6,335.2 L313.4,333.2 L314.3,333.9 L315.1,331.8 L316.0,330.8 L316.8,330.8 L317.6,330.8 L318.5,330.8 L319.3,331.5 L320.2,332.5 L321.0,332.2 L321.9,332.5 L322.7,332.8 L323.5,332.5 L324.4,332.8 L325.2,332.8 L326.1,332.8 L326.9,333.5 L327.8,333.2 L328.6,332.8 L329.4,333.2 L330.3,332.8 L331.1,332.8 L332.0,332.5 L332.8,332.5 L333.7,332.5 L334.5,332.5 L335.3,332.2 L336.2,332.5 L337.0,332.8 L337.9,332.8 L338.7,333.2 L339.6,332.8 L340.4,333.2 L341.2,333.5 L342.1,332.8 L342.9,332.5 L343.8,332.8 L344.6,332.8 L345.4,332.8 L346.3,332.5 L347.1,333.5 L348.0,331.5 L348.8,331.5 L349.7,331.8 L350.5,331.8 L351.3,332.2 L352.2,331.5 L353.0,331.8 L353.9,331.5 L354.7,332.2 L355.6,332.5 L356.4,331.8 L357.2,331.5 L358.1,331.5 L358.9,332.8 L359.8,333.5 L360.6,333.5 L361.5,332.8 L362.3,333.2 L363.1,332.8 L364.0,333.2 L364.8,332.2 L365.7,332.5 L366.5,332.2 L367.4,332.2 L368.2,331.8 L369.0,332.2 L369.9,332.2 L370.7,331.8 L371.6,331.8 L372.4,331.8 L373.3,331.8 L374.1,331.8 L374.9,330.5 L375.8,330.1 L376.6,330.5 L377.5,330.5 L378.3,330.8 L379.2,330.8 L380.0,330.5 L380.8,332.2 L381.7,332.2 L382.5,332.2 L383.4,332.2 L384.2,332.2 L385.1,332.8 L385.9,332.2 L386.7,332.8 L387.6,330.8 L388.4,331.1 L389.3,331.1 L390.1,330.5 L391.0,331.1 L391.8,331.5 L392.6,331.5 L393.5,331.1 L394.3,331.1 L395.2,330.1 L396.0,330.1 L396.9,328.1 L397.7,327.7 L398.5,326.4 L399.4,327.1 L400.2,327.7 L401.1,327.7 L401.9,328.1 L402.8,328.1 L403.6,327.7 L404.4,327.7 L405.3,327.4 L406.1,328.1 L407.0,326.0 L407.8,325.4 L408.7,325.7 L409.5,326.0 L410.3,325.7 L411.2,325.4 L412.0,326.0 L412.9,325.7 L413.7,325.7 L414.6,325.7 L415.4,325.4 L416.2,326.0 L417.1,326.0 L417.9,326.4 L418.8,326.0 L419.6,326.0 L420.4,326.0 L421.3,326.0 L422.1,327.4 L423.0,327.4 L423.8,327.4 L424.7,327.7 L425.5,327.7 L426.3,328.1 L427.2,328.8 L428.0,328.8 L428.9,329.1 L429.7,328.4 L430.6,328.4 L431.4,356.3 L432.2,356.7 L433.1,358.0 L433.9,360.4 L434.8,359.4 L435.6,359.7 L436.5,358.7 L437.3,340.0 L438.1,364.5 L439.0,363.1 L439.8,342.7 L440.7,347.5 L441.5,339.3 L442.4,338.3 L443.2,337.6 L444.0,337.6 L444.9,337.6 L445.7,338.6 L446.6,337.6 L447.4,337.3 L448.3,337.6 L449.1,337.9 L449.9,337.3 L450.8,337.6 L451.6,334.2 L452.5,333.9 L453.3,335.2 L454.2,335.6 L455.0,333.9 L455.8,334.5 L456.7,334.5 L457.5,334.5 L458.4,334.5 L459.2,334.2 L460.1,334.9 L460.9,330.1 L461.7,328.8 L462.6,328.8 L463.4,328.4 L464.3,328.4 L465.1,328.4 L466.0,328.1 L466.8,327.7 L467.6,328.1 L468.5,327.7 L469.3,328.1 L470.2,328.1 L471.0,328.1 L471.9,328.4 L472.7,329.1 L473.5,327.7 L474.4,329.1 L475.2,330.1 L476.1,329.4 L476.9,329.8 L477.8,330.1 L478.6,329.8 L479.4,329.4 L480.3,329.8 L481.1,330.1 L482.0,329.8 L482.8,329.8 L483.7,329.8 L484.5,329.1 L485.3,329.1 L486.2,328.4 L487.0,328.8 L487.9,328.1 L488.7,328.4 L489.6,328.4 L490.4,328.4 L491.2,328.4 L492.1,328.8 L492.9,329.1 L493.8,329.4 L494.6,331.1 L495.4,330.8 L496.3,330.5 L497.1,330.8 L498.0,330.5 L498.8,330.8 L499.7,330.1 L500.5,330.5 L501.3,331.1 L502.2,330.8 L503.0,330.5 L503.9,330.1 L504.7,330.1 L505.6,330.8 L506.4,330.1 L507.2,330.8 L508.1,330.5 L508.9,330.5 L509.8,330.8 L510.6,330.5 L511.5,331.5 L512.3,331.5 L513.1,332.8 L514.0,332.8 L514.8,332.5 L515.7,332.8 L516.5,333.2 L517.4,333.2 L518.2,332.5 L519.0,332.8 L519.9,333.5 L520.7,333.5 L521.6,334.2 L522.4,334.2 L523.3,333.9 L524.1,334.2 L524.9,331.8 L525.8,331.5 L526.6,331.1 L527.5,329.8 L528.3,329.1 L529.2,329.1 L530.0,328.4 L530.8,327.7 L531.7,327.7 L532.5,328.1 L533.4,327.7 L534.2,328.8 L535.1,328.1 L535.9,327.7 L536.7,327.7 L537.6,327.4 L538.4,328.1 L539.3,328.1 L540.1,327.4 L541.0,327.7 L541.8,327.7 L542.6,327.4 L543.5,327.4 L544.3,327.7 L545.2,327.7 L546.0,329.4 L546.9,327.4 L547.7,327.7 L548.5,327.7 L549.4,326.4 L550.2,327.1 L551.1,327.4 L551.9,327.4 L552.8,328.1 L553.6,328.1 L554.4,329.1 L555.3,329.1 L556.1,329.4 L557.0,329.1 L557.8,329.1 L558.7,329.8 L559.5,330.5 L560.3,330.8 L561.2,331.8 L562.0,331.5 L562.9,331.5 L563.7,331.8 L564.6,331.8 L565.4,331.5 L566.2,331.5 L567.1,329.4 L567.9,330.5 L568.8,328.1 L569.6,328.1 L570.4,328.4 L571.3,328.4 L572.1,328.1 L573.0,328.8 L573.8,328.4 L574.7,328.4 L575.5,327.7 L576.3,327.7 L577.2,327.7 L578.0,327.7 L578.9,327.7 L579.7,327.4 L580.6,327.7 L581.4,327.1 L582.2,327.7 L583.1,327.7 L583.9,327.4 L584.8,327.4 L585.6,327.1 L586.5,327.1 L587.3,327.4 L588.1,327.4 L589.0,327.4 L589.8,327.1 L590.7,327.1 L591.5,327.4 L592.4,327.4 L593.2,327.4 L594.0,327.4 L594.9,328.1 L595.7,327.4 L596.6,327.4 L597.4,327.1 L598.3,327.7 L599.1,327.4 L599.9,327.7 L600.8,327.4 L601.6,327.4 L602.5,327.7 L603.3,327.4 L604.2,327.1 L605.0,327.4 L605.8,327.1 L606.7,327.1 L607.5,327.4 L608.4,327.1 L609.2,327.4 L610.1,325.4 L610.9,325.4 L611.7,325.4 L612.6,325.4 L613.4,325.4 L614.3,325.4 L615.1,324.3 L616.0,324.0 L616.8,324.3 L617.6,324.0 L618.5,324.0 L619.3,323.0 L620.2,323.3 L621.0,322.6 L621.9,323.0 L622.7,322.6 L623.5,322.6 L624.4,322.6 L625.2,324.7 L626.1,325.0 L626.9,325.0 L627.8,325.0 L628.6,325.0 L629.4,325.0 L630.3,325.0 L631.1,325.0 L632.0,325.0 L632.8,325.4 L633.7,325.4 L634.5,326.7 L635.3,327.4 L636.2,327.7 L637.0,329.1 L637.9,328.1 L638.7,329.1 L639.6,329.1 L640.4,329.1 L641.2,330.5 L642.1,330.5 L642.9,330.1 L643.8,330.5 L644.6,330.5 L645.4,330.8 L646.3,330.1 L647.1,329.4 L648.0,330.1 L648.8,330.5 L649.7,329.4 L650.5,330.1 L651.3,330.1 L652.2,330.5 L653.0,330.5 L653.9,330.8 L654.7,331.1 L655.6,331.8 L656.4,333.9 L657.2,333.5 L658.1,333.5 L658.9,333.9 L659.8,337.6 L660.6,337.9 L661.5,338.6 L662.3,339.7 L663.1,341.4 L664.0,341.4 L664.8,341.7 L665.7,341.7 L666.5,342.4 L667.4,342.0 L668.2,343.1 L669.0,344.8 L669.9,347.1 L670.7,348.2 L671.6,349.9 L672.4,354.6 L673.3,357.7 L674.1,357.0 L674.9,357.4 L675.8,358.0 L676.6,358.0 L677.5,357.7 L678.3,358.0 L679.2,357.7 L680.0,357.7" stroke="#ff7f0e" stroke-width="2" fill="none" opacity="0.8"/>
<!-- Thermal Generation -->
<path d="M80.0,285.9 L80.8,284.2 L81.7,286.9 L82.5,285.9 L83.4,285.9 L84.2,282.5 L85.1,287.6 L85.9,287.6 L86.7,287.9 L87.6,296.1 L88.4,306.6 L89.3,303.2 L90.1,303.2 L91.0,303.2 L91.8,303.2 L92.6,285.5 L93.5,285.9 L94.3,286.9 L95.2,282.8 L96.0,281.4 L96.9,288.6 L97.7,289.3 L98.5,289.3 L99.4,289.9 L100.2,290.6 L101.1,290.3 L101.9,300.8 L102.8,328.1 L103.6,328.4 L104.4,327.4 L105.3,292.0 L106.1,288.9 L107.0,291.6 L107.8,287.9 L108.7,296.4 L109.5,291.0 L110.3,286.5 L111.2,292.3 L112.0,288.9 L112.9,280.4 L113.7,288.6 L114.6,292.0 L115.4,274.6 L116.2,274.3 L117.1,281.8 L117.9,283.1 L118.8,286.5 L119.6,281.8 L120.4,303.9 L121.3,329.1 L122.1,329.1 L123.0,329.4 L123.8,329.1 L124.7,327.7 L125.5,328.4 L126.3,329.8 L127.2,297.1 L128.0,287.6 L128.9,313.1 L129.7,303.2 L130.6,308.7 L131.4,295.4 L132.2,276.7 L133.1,300.2 L133.9,299.5 L134.8,303.2 L135.6,280.7 L136.5,291.6 L137.3,323.0 L138.1,317.2 L139.0,317.2 L139.8,317.9 L140.7,307.6 L141.5,308.7 L142.4,321.6 L143.2,328.1 L144.0,328.1 L144.9,328.4 L145.7,329.1 L146.6,294.7 L147.4,286.5 L148.3,283.8 L149.1,277.0 L149.9,300.5 L150.8,313.4 L151.6,297.8 L152.5,314.5 L153.3,322.6 L154.2,313.4 L155.0,295.4 L155.8,276.0 L156.7,277.3 L157.5,281.1 L158.4,281.8 L159.2,282.5 L160.1,289.6 L160.9,310.0 L161.7,328.4 L162.6,328.8 L163.4,328.4 L164.3,329.8 L165.1,329.8 L166.0,328.4 L166.8,328.8 L167.6,295.4 L168.5,298.1 L169.3,312.1 L170.2,333.5 L171.0,333.9 L171.9,333.5 L172.7,331.8 L173.5,328.8 L174.4,317.5 L175.2,313.8 L176.1,276.3 L176.9,305.6 L177.8,312.4 L178.6,305.6 L179.4,314.1 L180.3,314.1 L181.1,313.4 L182.0,313.1 L182.8,313.4 L183.7,313.8 L184.5,314.1 L185.3,313.4 L186.2,313.4 L187.0,312.1 L187.9,311.7 L188.7,312.4 L189.6,312.4 L190.4,312.1 L191.2,309.3 L192.1,315.1 L192.9,314.8 L193.8,315.5 L194.6,315.5 L195.4,315.1 L196.3,302.9 L197.1,322.6 L198.0,340.3 L198.8,341.7 L199.7,348.2 L200.5,354.3 L201.3,353.9 L202.2,355.7 L203.0,355.0 L203.9,353.9 L204.7,353.3 L205.6,354.3 L206.4,353.6 L207.2,352.2 L208.1,351.6 L208.9,351.2 L209.8,351.2 L210.6,350.5 L211.5,350.9 L212.3,351.2 L213.1,351.6 L214.0,352.6 L214.8,351.9 L215.7,352.2 L216.5,353.6 L217.4,353.3 L218.2,354.3 L219.0,353.9 L219.9,351.9 L220.7,352.2 L221.6,351.9 L222.4,352.6 L223.3,351.6 L224.1,352.6 L224.9,352.9 L225.8,351.9 L226.6,351.9 L227.5,351.9 L228.3,350.9 L229.2,335.6 L230.0,352.6 L230.8,351.6 L231.7,351.2 L232.5,351.2 L233.4,351.2 L234.2,351.6 L235.1,351.6 L235.9,352.2 L236.7,303.2 L237.6,299.1 L238.4,340.0 L239.3,340.7 L240.1,350.9 L241.0,352.2 L241.8,344.4 L242.6,351.6 L243.5,351.2 L244.3,351.2 L245.2,351.2 L246.0,351.9 L246.9,351.2 L247.7,351.6 L248.5,307.6 L249.4,313.8 L250.2,352.2 L251.1,348.5 L251.9,352.9 L252.8,353.6 L253.6,351.9 L254.4,352.2 L255.3,351.2 L256.1,350.9 L257.0,310.0 L257.8,313.1 L258.7,346.5 L259.5,352.6 L260.3,352.9 L261.2,351.9 L262.0,352.2 L262.9,351.2 L263.7,350.5 L264.6,350.9 L265.4,352.2 L266.2,351.9 L267.1,345.8 L267.9,305.3 L268.8,299.1 L269.6,302.2 L270.4,318.9 L271.3,350.9 L272.1,345.1 L273.0,353.6 L273.8,326.7 L274.7,352.9 L275.5,347.1 L276.3,357.0 L277.2,315.5 L278.0,296.8 L278.9,300.2 L279.7,331.5 L280.6,322.3 L281.4,323.0 L282.2,318.2 L283.1,328.8 L283.9,339.7 L284.8,343.7 L285.6,348.5 L286.5,349.2 L287.3,341.7 L288.1,331.8 L289.0,311.1 L289.8,314.5 L290.7,346.1 L291.5,354.6 L292.4,352.9 L293.2,352.6 L294.0,351.9 L294.9,352.2 L295.7,352.6 L296.6,353.3 L297.4,357.0 L298.3,354.6 L299.1,353.6 L299.9,354.3 L300.8,353.3 L301.6,352.9 L302.5,352.2 L303.3,355.0 L304.2,353.9 L305.0,353.3 L305.8,357.4 L306.7,357.0 L307.5,354.6 L308.4,332.2 L309.2,302.9 L310.1,294.4 L310.9,349.9 L311.7,333.5 L312.6,333.5 L313.4,325.4 L314.3,325.4 L315.1,326.7 L316.0,325.0 L316.8,318.2 L317.6,291.0 L318.5,314.8 L319.3,318.2 L320.2,309.3 L321.0,317.9 L321.9,319.6 L322.7,318.2 L323.5,330.5 L324.4,339.7 L325.2,341.4 L326.1,342.4 L326.9,327.4 L327.8,307.3 L328.6,278.4 L329.4,266.8 L330.3,261.3 L331.1,303.9 L332.0,305.6 L332.8,307.6 L333.7,314.8 L334.5,313.8 L335.3,315.5 L336.2,314.5 L337.0,313.4 L337.9,257.6 L338.7,256.6 L339.6,268.5 L340.4,289.9 L341.2,302.9 L342.1,302.2 L342.9,313.8 L343.8,314.1 L344.6,313.4 L345.4,314.1 L346.3,314.5 L347.1,315.1 L348.0,315.1 L348.8,312.4 L349.7,312.1 L350.5,311.7 L351.3,315.5 L352.2,315.1 L353.0,315.5 L353.9,315.5 L354.7,315.1 L355.6,314.8 L356.4,315.1 L357.2,314.8 L358.1,279.7 L358.9,259.0 L359.8,295.7 L360.6,312.8 L361.5,314.5 L362.3,313.8 L363.1,313.1 L364.0,312.8 L364.8,313.8 L365.7,312.4 L366.5,312.8 L367.4,313.4 L368.2,312.8 L369.0,294.0 L369.9,282.8 L370.7,288.2 L371.6,313.1 L372.4,312.8 L373.3,313.1 L374.1,311.7 L374.9,312.1 L375.8,312.4 L376.6,313.1 L377.5,312.8 L378.3,289.9 L379.2,265.1 L380.0,310.4 L380.8,311.7 L381.7,311.7 L382.5,311.7 L383.4,311.7 L384.2,312.1 L385.1,311.4 L385.9,366.9 L386.7,367.6 L387.6,367.6 L388.4,355.0 L389.3,340.0 L390.1,312.4 L391.0,310.0 L391.8,311.7 L392.6,308.0 L393.5,306.3 L394.3,307.6 L395.2,307.6 L396.0,307.6 L396.9,308.3 L397.7,309.0 L398.5,309.7 L399.4,299.8 L400.2,310.0 L401.1,310.4 L401.9,347.1 L402.8,354.3 L403.6,363.5 L404.4,363.1 L405.3,363.8 L406.1,364.5 L407.0,364.2 L407.8,363.8 L408.7,363.5 L409.5,362.1 L410.3,353.6 L411.2,353.3 L412.0,353.3 L412.9,353.6 L413.7,367.2 L414.6,363.5 L415.4,367.2 L416.2,367.2 L417.1,367.6 L417.9,367.2 L418.8,367.6 L419.6,367.2 L420.4,348.5 L421.3,349.5 L422.1,348.2 L423.0,366.5 L423.8,367.2 L424.7,366.5 L425.5,366.5 L426.3,366.5 L427.2,367.2 L428.0,367.6 L428.9,367.6 L429.7,366.9 L430.6,367.6 L431.4,366.5 L432.2,367.6 L433.1,343.1 L433.9,343.7 L434.8,373.0 L435.6,342.7 L436.5,350.5 L437.3,351.2 L438.1,420.0 L439.0,420.0 L439.8,408.1 L440.7,408.8 L441.5,408.8 L442.4,406.0 L443.2,405.4 L444.0,396.2 L444.9,394.1 L445.7,399.6 L446.6,400.3 L447.4,400.3 L448.3,400.3 L449.1,399.9 L449.9,400.3 L450.8,399.9 L451.6,399.2 L452.5,399.6 L453.3,398.9 L454.2,399.6 L455.0,399.6 L455.8,392.1 L456.7,391.4 L457.5,394.1 L458.4,390.7 L459.2,390.7 L460.1,393.4 L460.9,384.9 L461.7,384.3 L462.6,386.3 L463.4,392.8 L464.3,392.8 L465.1,393.4 L466.0,400.3 L466.8,388.7 L467.6,387.3 L468.5,389.4 L469.3,389.4 L470.2,389.7 L471.0,389.7 L471.9,373.0 L472.7,358.7 L473.5,355.3 L474.4,338.6 L475.2,340.0 L476.1,336.6 L476.9,334.2 L477.8,347.5 L478.6,325.4 L479.4,317.5 L480.3,317.5 L481.1,317.9 L482.0,319.2 L482.8,320.6 L483.7,319.9 L484.5,356.3 L485.3,324.0 L486.2,336.6 L487.0,376.1 L487.9,375.7 L488.7,376.1 L489.6,376.4 L490.4,375.7 L491.2,359.4 L492.1,360.4 L492.9,353.3 L493.8,342.0 L494.6,340.3 L495.4,337.6 L496.3,355.7 L497.1,358.7 L498.0,361.8 L498.8,361.8 L499.7,337.9 L500.5,319.2 L501.3,339.7 L502.2,344.8 L503.0,338.6 L503.9,315.8 L504.7,349.9 L505.6,341.0 L506.4,355.7 L507.2,362.5 L508.1,362.5 L508.9,362.8 L509.8,354.3 L510.6,353.6 L511.5,341.7 L512.3,341.4 L513.1,344.1 L514.0,318.2 L514.8,324.0 L515.7,330.1 L516.5,329.1 L517.4,321.9 L518.2,327.1 L519.0,327.7 L519.9,298.1 L520.7,298.1 L521.6,305.6 L522.4,302.2 L523.3,318.5 L524.1,318.5 L524.9,318.2 L525.8,321.3 L526.6,331.5 L527.5,349.2 L528.3,369.6 L529.2,370.0 L530.0,370.6 L530.8,363.8 L531.7,349.5 L532.5,350.5 L533.4,342.4 L534.2,334.2 L535.1,321.9 L535.9,322.6 L536.7,337.9 L537.6,337.6 L538.4,350.5 L539.3,350.2 L540.1,335.6 L541.0,321.6 L541.8,305.3 L542.6,292.3 L543.5,295.7 L544.3,306.6 L545.2,331.8 L546.0,331.1 L546.9,332.2 L547.7,331.8 L548.5,330.8 L549.4,351.2 L550.2,334.9 L551.1,328.1 L551.9,328.8 L552.8,329.1 L553.6,330.8 L554.4,335.6 L555.3,330.8 L556.1,347.8 L557.0,357.0 L557.8,358.4 L558.7,329.8 L559.5,329.8 L560.3,330.1 L561.2,332.2 L562.0,329.8 L562.9,351.9 L563.7,329.4 L564.6,357.7 L565.4,358.4 L566.2,356.3 L567.1,356.7 L567.9,353.9 L568.8,356.7 L569.6,357.4 L570.4,356.7 L571.3,357.0 L572.1,331.1 L573.0,328.4 L573.8,328.4 L574.7,328.1 L575.5,328.8 L576.3,329.1 L577.2,332.2 L578.0,332.2 L578.9,351.6 L579.7,328.8 L580.6,329.1 L581.4,329.1 L582.2,356.3 L583.1,356.3 L583.9,357.0 L584.8,356.3 L585.6,356.3 L586.5,356.7 L587.3,356.7 L588.1,362.8 L589.0,379.5 L589.8,387.7 L590.7,387.7 L591.5,387.3 L592.4,387.3 L593.2,388.7 L594.0,388.0 L594.9,386.3 L595.7,387.0 L596.6,387.0 L597.4,388.0 L598.3,388.0 L599.1,387.7 L599.9,387.3 L600.8,387.0 L601.6,387.7 L602.5,387.0 L603.3,386.6 L604.2,387.0 L605.0,388.0 L605.8,387.3 L606.7,387.0 L607.5,387.0 L608.4,388.0 L609.2,387.7 L610.1,387.7 L610.9,387.0 L611.7,387.0 L612.6,387.7 L613.4,387.0 L614.3,387.7 L615.1,387.0 L616.0,387.3 L616.8,387.7 L617.6,388.3 L618.5,387.7 L619.3,388.0 L620.2,388.0 L621.0,387.0 L621.9,375.4 L622.7,378.1 L623.5,387.3 L624.4,385.6 L625.2,386.3 L626.1,386.0 L626.9,386.3 L627.8,386.6 L628.6,387.0 L629.4,386.6 L630.3,386.6 L631.1,387.0 L632.0,386.6 L632.8,386.6 L633.7,387.3 L634.5,387.0 L635.3,388.0 L636.2,387.3 L637.0,387.0 L637.9,387.0 L638.7,386.6 L639.6,386.3 L640.4,387.0 L641.2,387.3 L642.1,371.3 L642.9,370.3 L643.8,366.9 L644.6,359.1 L645.4,360.4 L646.3,371.3 L647.1,368.6 L648.0,371.7 L648.8,387.3 L649.7,386.6 L650.5,386.6 L651.3,387.7 L652.2,380.2 L653.0,356.7 L653.9,331.5 L654.7,357.7 L655.6,353.9 L656.4,375.4 L657.2,386.3 L658.1,387.7 L658.9,387.7 L659.8,387.3 L660.6,387.3 L661.5,380.2 L662.3,331.1 L663.1,328.8 L664.0,332.2 L664.8,328.4 L665.7,352.2 L666.5,333.5 L667.4,376.1 L668.2,375.4 L669.0,365.9 L669.9,367.9 L670.7,356.0 L671.6,356.3 L672.4,341.7 L673.3,296.4 L674.1,291.0 L674.9,343.7 L675.8,342.7 L676.6,339.7 L677.5,340.7 L678.3,344.4 L679.2,348.8 L680.0,346.8" stroke="#2ca02c" stroke-width="2" fill="none" opacity="0.8"/>
<!-- Solar Generation -->
<path d="M80.0,420.0 L80.8,420.0 L81.7,420.0 L82.5,420.0 L83.4,420.0 L84.2,420.0 L85.1,420.0 L85.9,420.0 L86.7,420.0 L87.6,420.0 L88.4,413.5 L89.3,405.7 L90.1,395.1 L91.0,395.8 L91.8,394.1 L92.6,394.5 L93.5,389.4 L94.3,407.4 L95.2,419.7 L96.0,420.0 L96.9,420.0 L97.7,420.0 L98.5,420.0 L99.4,420.0 L100.2,420.0 L101.1,420.0 L101.9,420.0 L102.8,420.0 L103.6,420.0 L104.4,420.0 L105.3,420.0 L106.1,420.0 L107.0,420.0 L107.8,419.7 L108.7,409.4 L109.5,403.0 L110.3,398.2 L111.2,401.6 L112.0,402.6 L112.9,403.3 L113.7,410.5 L114.6,417.6 L115.4,420.0 L116.2,420.0 L117.1,420.0 L117.9,420.0 L118.8,420.0 L119.6,420.0 L120.4,420.0 L121.3,420.0 L122.1,420.0 L123.0,420.0 L123.8,420.0 L124.7,420.0 L125.5,420.0 L126.3,420.0 L127.2,420.0 L128.0,420.0 L128.9,417.6 L129.7,413.2 L130.6,410.8 L131.4,408.4 L132.2,398.9 L133.1,405.4 L133.9,411.5 L134.8,417.6 L135.6,420.0 L136.5,420.0 L137.3,420.0 L138.1,420.0 L139.0,420.0 L139.8,420.0 L140.7,420.0 L141.5,420.0 L142.4,420.0 L143.2,420.0 L144.0,420.0 L144.9,420.0 L145.7,420.0 L146.6,420.0 L147.4,420.0 L148.3,420.0 L149.1,413.2 L149.9,404.3 L150.8,397.2 L151.6,395.1 L152.5,393.1 L153.3,391.4 L154.2,393.8 L155.0,409.8 L155.8,420.0 L156.7,420.0 L157.5,420.0 L158.4,420.0 L159.2,420.0 L160.1,420.0 L160.9,420.0 L161.7,420.0 L162.6,420.0 L163.4,420.0 L164.3,420.0 L165.1,420.0 L166.0,420.0 L166.8,420.0 L167.6,420.0 L168.5,420.0 L169.3,412.9 L170.2,405.0 L171.0,406.0 L171.9,405.7 L172.7,411.1 L173.5,410.5 L174.4,412.9 L175.2,416.9 L176.1,420.0 L176.9,420.0 L177.8,420.0 L178.6,420.0 L179.4,420.0 L180.3,420.0 L181.1,420.0 L182.0,420.0 L182.8,420.0 L183.7,420.0 L184.5,420.0 L185.3,420.0 L186.2,420.0 L187.0,420.0 L187.9,420.0 L188.7,420.0 L189.6,414.2 L190.4,393.8 L191.2,403.7 L192.1,404.3 L192.9,408.8 L193.8,398.6 L194.6,410.8 L195.4,417.6 L196.3,420.0 L197.1,420.0 L198.0,420.0 L198.8,420.0 L199.7,420.0 L200.5,420.0 L201.3,420.0 L202.2,420.0 L203.0,420.0 L203.9,420.0 L204.7,420.0 L205.6,420.0 L206.4,420.0 L207.2,420.0 L208.1,420.0 L208.9,420.0 L209.8,417.6 L210.6,409.4 L211.5,414.6 L212.3,413.5 L213.1,414.9 L214.0,412.2 L214.8,416.3 L215.7,418.3 L216.5,420.0 L217.4,420.0 L218.2,420.0 L219.0,420.0 L219.9,420.0 L220.7,420.0 L221.6,420.0 L222.4,420.0 L223.3,420.0 L224.1,420.0 L224.9,420.0 L225.8,420.0 L226.6,420.0 L227.5,420.0 L228.3,420.0 L229.2,420.0 L230.0,418.6 L230.8,414.2 L231.7,410.5 L232.5,406.0 L233.4,410.1 L234.2,411.5 L235.1,413.2 L235.9,416.9 L236.7,420.0 L237.6,420.0 L238.4,420.0 L239.3,420.0 L240.1,420.0 L241.0,420.0 L241.8,420.0 L242.6,420.0 L243.5,420.0 L244.3,420.0 L245.2,420.0 L246.0,420.0 L246.9,420.0 L247.7,420.0 L248.5,420.0 L249.4,420.0 L250.2,419.0 L251.1,407.1 L251.9,411.1 L252.8,402.6 L253.6,406.7 L254.4,414.2 L255.3,411.8 L256.1,417.6 L257.0,420.0 L257.8,420.0 L258.7,420.0 L259.5,420.0 L260.3,420.0 L261.2,420.0 L262.0,420.0 L262.9,420.0 L263.7,420.0 L264.6,420.0 L265.4,420.0 L266.2,420.0 L267.1,420.0 L267.9,420.0 L268.8,420.0 L269.6,420.0 L270.4,418.0 L271.3,412.5 L272.1,407.4 L273.0,405.7 L273.8,406.0 L274.7,403.3 L275.5,412.2 L276.3,415.6 L277.2,420.0 L278.0,420.0 L278.9,420.0 L279.7,420.0 L280.6,420.0 L281.4,420.0 L282.2,420.0 L283.1,420.0 L283.9,420.0 L284.8,420.0 L285.6,420.0 L286.5,420.0 L287.3,420.0 L288.1,420.0 L289.0,420.0 L289.8,420.0 L290.7,419.3 L291.5,416.6 L292.4,417.6 L293.2,413.9 L294.0,414.2 L294.9,404.0 L295.7,412.2 L296.6,418.0 L297.4,420.0 L298.3,420.0 L299.1,420.0 L299.9,420.0 L300.8,420.0 L301.6,420.0 L302.5,420.0 L303.3,420.0 L304.2,420.0 L305.0,420.0 L305.8,420.0 L306.7,420.0 L307.5,420.0 L308.4,420.0 L309.2,420.0 L310.1,420.0 L310.9,416.9 L311.7,414.6 L312.6,412.2 L313.4,410.8 L314.3,412.9 L315.1,412.5 L316.0,416.9 L316.8,418.6 L317.6,420.0 L318.5,420.0 L319.3,420.0 L320.2,420.0 L321.0,420.0 L321.9,420.0 L322.7,420.0 L323.5,420.0 L324.4,420.0 L325.2,420.0 L326.1,420.0 L326.9,420.0 L327.8,420.0 L328.6,420.0 L329.4,420.0 L330.3,420.0 L331.1,419.0 L332.0,417.3 L332.8,414.9 L333.7,409.4 L334.5,407.4 L335.3,410.1 L336.2,404.7 L337.0,415.2 L337.9,420.0 L338.7,420.0 L339.6,420.0 L340.4,420.0 L341.2,420.0 L342.1,420.0 L342.9,420.0 L343.8,420.0 L344.6,420.0 L345.4,420.0 L346.3,420.0 L347.1,420.0 L348.0,420.0 L348.8,420.0 L349.7,420.0 L350.5,420.0 L351.3,415.6 L352.2,409.4 L353.0,409.8 L353.9,412.2 L354.7,413.9 L355.6,405.4 L356.4,409.1 L357.2,409.8 L358.1,420.0 L358.9,420.0 L359.8,420.0 L360.6,420.0 L361.5,420.0 L362.3,420.0 L363.1,420.0 L364.0,420.0 L364.8,420.0 L365.7,420.0 L366.5,420.0 L367.4,420.0 L368.2,420.0 L369.0,420.0 L369.9,420.0 L370.7,419.7 L371.6,414.6 L372.4,399.2 L373.3,402.0 L374.1,399.9 L374.9,396.2 L375.8,393.1 L376.6,402.3 L377.5,407.7 L378.3,419.7 L379.2,420.0 L380.0,420.0 L380.8,420.0 L381.7,420.0 L382.5,420.0 L383.4,420.0 L384.2,420.0 L385.1,420.0 L385.9,420.0 L386.7,420.0 L387.6,420.0 L388.4,420.0 L389.3,420.0 L390.1,420.0 L391.0,420.0 L391.8,415.6 L392.6,393.4 L393.5,395.5 L394.3,404.3 L395.2,396.5 L396.0,396.5 L396.9,405.4 L397.7,418.0 L398.5,420.0 L399.4,420.0 L400.2,420.0 L401.1,420.0 L401.9,420.0 L402.8,420.0 L403.6,420.0 L404.4,420.0 L405.3,420.0 L406.1,420.0 L407.0,420.0 L407.8,420.0 L408.7,420.0 L409.5,420.0 L410.3,420.0 L411.2,420.0 L412.0,417.6 L412.9,410.8 L413.7,409.4 L414.6,409.1 L415.4,400.6 L416.2,395.1 L417.1,409.8 L417.9,415.2 L418.8,420.0 L419.6,420.0 L420.4,420.0 L421.3,420.0 L422.1,420.0 L423.0,420.0 L423.8,420.0 L424.7,420.0 L425.5,420.0 L426.3,420.0 L427.2,420.0 L428.0,420.0 L428.9,420.0 L429.7,420.0 L430.6,420.0 L431.4,420.0 L432.2,419.3 L433.1,418.6 L433.9,416.9 L434.8,417.3 L435.6,416.6 L436.5,408.1 L437.3,408.8 L438.1,418.3 L439.0,420.0 L439.8,420.0 L440.7,420.0 L441.5,420.0 L442.4,420.0 L443.2,420.0 L444.0,420.0 L444.9,420.0 L445.7,420.0 L446.6,420.0 L447.4,420.0 L448.3,420.0 L449.1,420.0 L449.9,420.0 L450.8,420.0 L451.6,420.0 L452.5,419.0 L453.3,416.9 L454.2,415.6 L455.0,414.2 L455.8,415.9 L456.7,415.6 L457.5,416.9 L458.4,419.0 L459.2,420.0 L460.1,420.0 L460.9,420.0 L461.7,420.0 L462.6,420.0 L463.4,420.0 L464.3,420.0 L465.1,420.0 L466.0,420.0 L466.8,420.0 L467.6,420.0 L468.5,420.0 L469.3,420.0 L470.2,420.0 L471.0,420.0 L471.9,420.0 L472.7,416.6 L473.5,414.6 L474.4,407.7 L475.2,412.5 L476.1,412.9 L476.9,415.9 L477.8,415.2 L478.6,419.0 L479.4,420.0 L480.3,420.0 L481.1,420.0 L482.0,420.0 L482.8,420.0 L483.7,420.0 L484.5,420.0 L485.3,420.0 L486.2,420.0 L487.0,420.0 L487.9,420.0 L488.7,420.0 L489.6,420.0 L490.4,420.0 L491.2,420.0 L492.1,420.0 L492.9,417.3 L493.8,402.3 L494.6,399.9 L495.4,399.6 L496.3,398.6 L497.1,397.2 L498.0,407.4 L498.8,414.6 L499.7,420.0 L500.5,420.0 L501.3,420.0 L502.2,420.0 L503.0,420.0 L503.9,420.0 L504.7,420.0 L505.6,420.0 L506.4,420.0 L507.2,420.0 L508.1,420.0 L508.9,420.0 L509.8,420.0 L510.6,420.0 L511.5,420.0 L512.3,420.0 L513.1,419.0 L514.0,416.9 L514.8,414.9 L515.7,412.2 L516.5,411.8 L517.4,415.2 L518.2,416.6 L519.0,418.6 L519.9,420.0 L520.7,420.0 L521.6,420.0 L522.4,420.0 L523.3,420.0 L524.1,420.0 L524.9,420.0 L525.8,420.0 L526.6,420.0 L527.5,420.0 L528.3,420.0 L529.2,420.0 L530.0,420.0 L530.8,420.0 L531.7,420.0 L532.5,420.0 L533.4,419.3 L534.2,416.6 L535.1,411.5 L535.9,410.1 L536.7,403.7 L537.6,400.9 L538.4,412.5 L539.3,415.9 L540.1,420.0 L541.0,420.0 L541.8,420.0 L542.6,420.0 L543.5,420.0 L544.3,420.0 L545.2,420.0 L546.0,420.0 L546.9,420.0 L547.7,420.0 L548.5,420.0 L549.4,420.0 L550.2,420.0 L551.1,420.0 L551.9,420.0 L552.8,420.0 L553.6,417.3 L554.4,406.0 L555.3,410.8 L556.1,409.4 L557.0,404.7 L557.8,409.4 L558.7,412.5 L559.5,416.6 L560.3,420.0 L561.2,420.0 L562.0,420.0 L562.9,420.0 L563.7,420.0 L564.6,420.0 L565.4,420.0 L566.2,420.0 L567.1,420.0 L567.9,420.0 L568.8,420.0 L569.6,420.0 L570.4,420.0 L571.3,420.0 L572.1,420.0 L573.0,420.0 L573.8,418.3 L574.7,412.9 L575.5,406.0 L576.3,404.7 L577.2,408.8 L578.0,404.3 L578.9,408.4 L579.7,418.0 L580.6,420.0 L581.4,420.0 L582.2,420.0 L583.1,420.0 L583.9,420.0 L584.8,420.0 L585.6,420.0 L586.5,420.0 L587.3,420.0 L588.1,420.0 L589.0,420.0 L589.8,420.0 L590.7,420.0 L591.5,420.0 L592.4,420.0 L593.2,420.0 L594.0,419.3 L594.9,398.9 L595.7,413.2 L596.6,400.9 L597.4,408.1 L598.3,407.4 L599.1,407.4 L599.9,415.6 L600.8,420.0 L601.6,420.0 L602.5,420.0 L603.3,420.0 L604.2,420.0 L605.0,420.0 L605.8,420.0 L606.7,420.0 L607.5,420.0 L608.4,420.0 L609.2,420.0 L610.1,420.0 L610.9,420.0 L611.7,420.0 L612.6,420.0 L613.4,420.0 L614.3,420.0 L615.1,406.0 L616.0,407.7 L616.8,409.4 L617.6,412.9 L618.5,408.4 L619.3,407.7 L620.2,413.9 L621.0,420.0 L621.9,420.0 L622.7,420.0 L623.5,420.0 L624.4,420.0 L625.2,420.0 L626.1,420.0 L626.9,420.0 L627.8,420.0 L628.6,420.0 L629.4,420.0 L630.3,420.0 L631.1,420.0 L632.0,420.0 L632.8,420.0 L633.7,420.0 L634.5,419.3 L635.3,407.7 L636.2,417.3 L637.0,416.6 L637.9,416.3 L638.7,415.9 L639.6,417.3 L640.4,418.0 L641.2,419.7 L642.1,420.0 L642.9,420.0 L643.8,420.0 L644.6,420.0 L645.4,420.0 L646.3,420.0 L647.1,420.0 L648.0,420.0 L648.8,420.0 L649.7,420.0 L650.5,420.0 L651.3,420.0 L652.2,420.0 L653.0,420.0 L653.9,420.0 L654.7,413.9 L655.6,391.7 L656.4,392.4 L657.2,396.5 L658.1,396.8 L658.9,392.4 L659.8,389.4 L660.6,406.4 L661.5,419.3 L662.3,420.0 L663.1,420.0 L664.0,420.0 L664.8,420.0 L665.7,420.0 L666.5,420.0 L667.4,420.0 L668.2,420.0 L669.0,420.0 L669.9,420.0 L670.7,420.0 L671.6,420.0 L672.4,420.0 L673.3,420.0 L674.1,420.0 L674.9,414.2 L675.8,390.7 L676.6,392.8 L677.5,396.2 L678.3,399.6 L679.2,396.5 L680.0,393.8" stroke="#d62728" stroke-width="2" fill="none" opacity="0.8"/>
<!-- Forecast -->
<path d="M80.0,138.1 L80.8,124.5 L81.7,160.9 L82.5,178.3 L83.4,183.7 L84.2,185.8 L85.1,182.7 L85.9,175.9 L86.7,158.5 L87.6,141.8 L88.4,127.2 L89.3,115.3 L90.1,108.8 L91.0,108.1 L91.8,113.6 L92.6,118.3 L93.5,122.4 L94.3,122.8 L95.2,110.2 L96.0,103.0 L96.9,98.6 L97.7,93.8 L98.5,89.4 L99.4,85.0 L100.2,94.9 L101.1,158.9 L101.9,172.5 L102.8,179.3 L103.6,185.4 L104.4,187.1 L105.3,185.1 L106.1,167.0 L107.0,135.4 L107.8,103.7 L108.7,89.1 L109.5,91.8 L110.3,97.2 L111.2,103.7 L112.0,109.5 L112.9,117.0 L113.7,121.4 L114.6,119.7 L115.4,108.1 L116.2,87.4 L117.1,81.6 L117.9,88.4 L118.8,102.0 L119.6,119.7 L120.4,146.3 L121.3,177.2 L122.1,174.9 L123.0,197.3 L123.8,207.9 L124.7,210.3 L125.5,206.5 L126.3,190.9 L127.2,158.9 L128.0,122.8 L128.9,106.8 L129.7,106.1 L130.6,109.8 L131.4,113.6 L132.2,120.1 L133.1,124.1 L133.9,126.9 L134.8,126.9 L135.6,118.3 L136.5,100.0 L137.3,94.2 L138.1,100.3 L139.0,111.5 L139.8,129.6 L140.7,154.4 L141.5,172.5 L142.4,192.2 L143.2,198.7 L144.0,202.4 L144.9,203.5 L145.7,199.0 L146.6,182.7 L147.4,148.6 L148.3,112.2 L149.1,96.9 L149.9,98.9 L150.8,103.4 L151.6,108.8 L152.5,114.6 L153.3,120.4 L154.2,122.8 L155.0,121.4 L155.8,110.2 L156.7,88.7 L157.5,82.9 L158.4,89.4 L159.2,101.3 L160.1,118.7 L160.9,145.2 L161.7,151.4 L162.6,189.2 L163.4,197.0 L164.3,202.8 L165.1,204.8 L166.0,202.1 L166.8,186.4 L167.6,153.1 L168.5,116.3 L169.3,100.6 L170.2,101.7 L171.0,106.4 L171.9,110.5 L172.7,117.3 L173.5,122.1 L174.4,124.5 L175.2,124.5 L176.1,116.3 L176.9,98.3 L177.8,93.2 L178.6,99.3 L179.4,110.9 L180.3,129.9 L181.1,154.4 L182.0,361.8 L182.8,192.6 L183.7,203.1 L184.5,207.6 L185.3,209.9 L186.2,206.5 L187.0,189.8 L187.9,157.5 L188.7,119.7 L189.6,103.4 L190.4,103.4 L191.2,107.1 L192.1,110.9 L192.9,117.3 L193.8,121.8 L194.6,124.1 L195.4,123.8 L196.3,115.3 L197.1,97.2 L198.0,92.1 L198.8,98.6 L199.7,111.5 L200.5,131.3 L201.3,155.5 L202.2,178.3 L203.0,194.6 L203.9,204.5 L204.7,209.9 L205.6,213.0 L206.4,213.0 L207.2,206.2 L208.1,189.2 L208.9,167.4 L209.8,146.6 L210.6,135.0 L211.5,130.9 L212.3,132.3 L213.1,134.7 L214.0,140.5 L214.8,144.6 L215.7,143.5 L216.5,135.4 L217.4,117.3 L218.2,113.2 L219.0,117.3 L219.9,126.9 L220.7,141.5 L221.6,160.2 L222.4,185.4 L223.3,193.9 L224.1,204.1 L224.9,209.6 L225.8,211.3 L226.6,209.9 L227.5,205.2 L228.3,192.9 L229.2,174.5 L230.0,157.8 L230.8,144.6 L231.7,135.0 L232.5,138.4 L233.4,144.2 L234.2,147.6 L235.1,148.3 L235.9,146.3 L236.7,139.1 L237.6,121.4 L238.4,112.9 L239.3,124.1 L240.1,137.4 L241.0,147.3 L241.8,165.7 L242.6,184.4 L243.5,198.0 L244.3,206.9 L245.2,211.6 L246.0,213.7 L246.9,210.3 L247.7,194.3 L248.5,163.3 L249.4,127.5 L250.2,108.8 L251.1,107.1 L251.9,109.8 L252.8,113.6 L253.6,119.4 L254.4,123.5 L255.3,126.2 L256.1,126.5 L257.0,118.7 L257.8,102.0 L258.7,96.6 L259.5,102.0 L260.3,116.3 L261.2,138.1 L262.0,160.6 L262.9,165.3 L263.7,198.7 L264.6,209.9 L265.4,217.1 L266.2,219.1 L267.1,218.1 L267.9,201.8 L268.8,167.4 L269.6,134.4 L270.4,115.6 L271.3,111.5 L272.1,112.6 L273.0,116.0 L273.8,120.7 L274.7,124.5 L275.5,127.5 L276.3,128.6 L277.2,121.1 L278.0,104.4 L278.9,98.3 L279.7,102.3 L280.6,116.3 L281.4,138.1 L282.2,159.9 L283.1,186.8 L283.9,198.4 L284.8,206.9 L285.6,212.7 L286.5,215.0 L287.3,212.7 L288.1,197.7 L289.0,166.4 L289.8,132.6 L290.7,113.9 L291.5,111.2 L292.4,112.9 L293.2,116.3 L294.0,121.4 L294.9,125.5 L295.7,129.6 L296.6,131.3 L297.4,124.8 L298.3,109.8 L299.1,104.0 L299.9,106.4 L300.8,123.1 L301.6,142.5 L302.5,165.3 L303.3,179.0 L304.2,200.7 L305.0,214.0 L305.8,220.8 L306.7,222.2 L307.5,221.5 L308.4,205.5 L309.2,168.4 L310.1,136.7 L310.9,119.7 L311.7,115.6 L312.6,116.0 L313.4,119.0 L314.3,122.1 L315.1,125.8 L316.0,128.9 L316.8,128.9 L317.6,120.1 L318.5,102.0 L319.3,94.9 L320.2,98.6 L321.0,111.9 L321.9,129.2 L322.7,153.1 L323.5,174.5 L324.4,190.9 L325.2,201.8 L326.1,207.6 L326.9,209.3 L327.8,206.2 L328.6,189.8 L329.4,156.5 L330.3,121.4 L331.1,102.7 L332.0,99.3 L332.8,100.3 L333.7,103.7 L334.5,108.5 L335.3,113.2 L336.2,115.6 L337.0,115.3 L337.9,108.5 L338.7,90.8 L339.6,85.0 L340.4,91.1 L341.2,105.8 L342.1,125.2 L342.9,150.0 L343.8,183.0 L344.6,195.6 L345.4,203.5 L346.3,209.3 L347.1,212.7 L348.0,217.4 L348.8,213.3 L349.7,191.5 L350.5,168.4 L351.3,148.0 L352.2,139.8 L353.0,132.6 L353.9,134.0 L354.7,136.7 L355.6,144.2 L356.4,147.6 L357.2,146.6 L358.1,139.8 L358.9,122.8 L359.8,118.3 L360.6,121.4 L361.5,130.9 L362.3,145.2 L363.1,165.7 L364.0,170.4 L364.8,199.4 L365.7,205.5 L366.5,210.6 L367.4,211.3 L368.2,209.3 L369.0,204.1 L369.9,193.6 L370.7,179.6 L371.6,166.4 L372.4,153.4 L373.3,140.5 L374.1,132.6 L374.9,138.8 L375.8,144.9 L376.6,152.7 L377.5,151.0 L378.3,147.6 L379.2,129.2 L380.0,120.4 L380.8,122.1 L381.7,135.0 L382.5,148.3 L383.4,165.7 L384.2,186.8 L385.1,199.0 L385.9,206.5 L386.7,211.6 L387.6,214.0 L388.4,211.0 L389.3,195.3 L390.1,165.3 L391.0,130.3 L391.8,111.2 L392.6,108.8 L393.5,111.2 L394.3,114.9 L395.2,120.1 L396.0,124.5 L396.9,128.2 L397.7,129.2 L398.5,122.4 L399.4,106.4 L400.2,100.6 L401.1,104.0 L401.9,119.7 L402.8,137.1 L403.6,162.3 L404.4,186.1 L405.3,201.8 L406.1,211.3 L407.0,218.1 L407.8,219.8 L408.7,218.4 L409.5,202.8 L410.3,166.7 L411.2,134.0 L412.0,116.6 L412.9,112.9 L413.7,113.6 L414.6,117.0 L415.4,120.7 L416.2,124.8 L417.1,128.9 L417.9,130.3 L418.8,123.8 L419.6,108.1 L420.4,102.3 L421.3,105.1 L422.1,121.4 L423.0,131.6 L423.8,161.2 L424.7,179.3 L425.5,199.0 L426.3,209.6 L427.2,215.7 L428.0,217.8 L428.9,217.4 L429.7,201.8 L430.6,166.4 L431.4,133.7 L432.2,115.3 L433.1,110.2 L433.9,110.5 L434.8,113.2 L435.6,118.0 L436.5,121.4 L437.3,123.5 L438.1,123.1 L439.0,114.9 L439.8,96.6 L440.7,90.4 L441.5,96.6 L442.4,108.5 L443.2,127.5 L444.0,151.7 L444.9,183.0 L445.7,193.6 L446.6,201.8 L447.4,206.9 L448.3,208.6 L449.1,204.8 L449.9,188.8 L450.8,157.5 L451.6,120.4 L452.5,103.4 L453.3,102.7 L454.2,106.4 L455.0,110.5 L455.8,116.6 L456.7,121.1 L457.5,123.5 L458.4,123.5 L459.2,116.0 L460.1,99.3 L460.9,97.9 L461.7,101.7 L462.6,115.6 L463.4,137.4 L464.3,161.6 L465.1,167.0 L466.0,199.4 L466.8,210.6 L467.6,217.1 L468.5,219.1 L469.3,218.8 L470.2,203.1 L471.0,167.0 L471.9,134.4 L472.7,116.3 L473.5,112.2 L474.4,112.6 L475.2,115.6 L476.1,119.7 L476.9,123.5 L477.8,125.8 L478.6,125.5 L479.4,117.0 L480.3,98.9 L481.1,92.8 L482.0,97.9 L482.8,109.5 L483.7,128.2 L484.5,152.4 L485.3,176.6 L486.2,191.5 L487.0,200.7 L487.9,206.5 L488.7,209.6 L489.6,208.6 L490.4,203.1 L491.2,187.8 L492.1,166.4 L492.9,146.9 L493.8,135.7 L494.6,132.3 L495.4,133.7 L496.3,136.4 L497.1,142.5 L498.0,144.9 L498.8,143.9 L499.7,136.1 L500.5,118.0 L501.3,112.6 L502.2,115.6 L503.0,125.2 L503.9,139.8 L504.7,157.8 L505.6,184.4 L506.4,192.6 L507.2,200.7 L508.1,205.5 L508.9,208.9 L509.8,208.9 L510.6,204.8 L511.5,192.9 L512.3,173.5 L513.1,155.8 L514.0,141.8 L514.8,132.6 L515.7,136.7 L516.5,144.6 L517.4,148.6 L518.2,147.3 L519.0,144.9 L519.9,138.4 L520.7,121.4 L521.6,112.2 L522.4,124.5 L523.3,138.4 L524.1,146.6 L524.9,165.0 L525.8,182.0 L526.6,197.3 L527.5,207.2 L528.3,212.7 L529.2,215.0 L530.0,212.7 L530.8,196.7 L531.7,166.0 L532.5,130.9 L533.4,111.9 L534.2,109.2 L535.1,110.9 L535.9,114.6 L536.7,119.4 L537.6,123.5 L538.4,126.2 L539.3,126.5 L540.1,119.0 L541.0,102.0 L541.8,96.2 L542.6,100.3 L543.5,113.9 L544.3,135.4 L545.2,157.8 L546.0,181.7 L546.9,195.6 L547.7,203.5 L548.5,208.2 L549.4,211.0 L550.2,207.2 L551.1,191.5 L551.9,160.6 L552.8,125.5 L553.6,106.4 L554.4,105.1 L555.3,108.1 L556.1,111.5 L557.0,117.7 L557.8,122.1 L558.7,124.8 L559.5,125.2 L560.3,118.0 L561.2,101.3 L562.0,95.2 L562.9,100.0 L563.7,113.6 L564.6,134.7 L565.4,157.5 L566.2,162.6 L567.1,197.0 L567.9,206.2 L568.8,212.0 L569.6,214.0 L570.4,211.3 L571.3,196.0 L572.1,165.3 L573.0,130.9 L573.8,111.9 L574.7,109.2 L575.5,110.9 L576.3,114.3 L577.2,119.0 L578.0,123.5 L578.9,126.5 L579.7,127.2 L580.6,120.1 L581.4,103.4 L582.2,97.2 L583.1,101.7 L583.9,115.3 L584.8,135.7 L585.6,158.2 L586.5,184.1 L587.3,202.1 L588.1,211.0 L589.0,216.7 L589.8,213.3 L590.7,208.6 L591.5,203.1 L592.4,192.9 L593.2,181.3 L594.0,167.4 L594.9,152.4 L595.7,138.8 L596.6,137.8 L597.4,145.6 L598.3,148.6 L599.1,149.3 L599.9,146.3 L600.8,141.2 L601.6,120.7 L602.5,112.2 L603.3,123.1 L604.2,137.1 L605.0,144.6 L605.8,163.6 L606.7,179.3 L607.5,195.3 L608.4,205.2 L609.2,210.3 L610.1,213.0 L610.9,210.3 L611.7,194.6 L612.6,164.7 L613.4,129.2 L614.3,109.8 L615.1,107.1 L616.0,109.5 L616.8,112.9 L617.6,118.0 L618.5,122.1 L619.3,124.8 L620.2,124.8 L621.0,117.3 L621.9,99.6 L622.7,93.8 L623.5,98.6 L624.4,111.5 L625.2,131.3 L626.1,154.4 L626.9,176.6 L627.8,192.2 L628.6,201.8 L629.4,206.9 L630.3,210.3 L631.1,208.9 L632.0,202.8 L632.8,186.8 L633.7,165.0 L634.5,143.9 L635.3,131.3 L636.2,127.2 L637.0,127.9 L637.9,129.9 L638.7,136.1 L639.6,139.1 L640.4,138.4 L641.2,130.3 L642.1,112.2 L642.9,108.8 L643.8,113.2 L644.6,123.1 L645.4,138.1 L646.3,157.2 L647.1,180.0 L648.0,191.9 L648.8,193.3 L649.7,197.7 L650.5,202.4 L651.3,202.8 L652.2,198.7 L653.0,188.1 L653.9,169.1 L654.7,150.0 L655.6,135.7 L656.4,128.2 L657.2,128.6 L658.1,131.3 L658.9,136.7 L659.8,140.1 L660.6,140.1 L661.5,130.9 L662.3,111.5 L663.1,102.0 L664.0,110.9 L664.8,123.1 L665.7,135.7 L666.5,156.8 L667.4,161.9 L668.2,190.5 L669.0,199.0 L669.9,203.8 L670.7,206.2 L671.6,202.4 L672.4,186.8 L673.3,155.8 L674.1,120.7 L674.9,103.4 L675.8,102.7 L676.6,106.4 L677.5,110.5 L678.3,116.6 L679.2,121.4 L680.0,122.1" stroke="#9467bd" stroke-width="2" fill="none" opacity="0.8"/>
<!-- Total Generation -->
<path d="M80.0,207.2 L80.8,205.8 L81.7,208.6 L82.5,203.8 L83.4,202.1 L84.2,201.1 L85.1,207.9 L85.9,211.0 L86.7,212.3 L87.6,219.5 L88.4,222.2 L89.3,211.0 L90.1,198.4 L91.0,195.0 L91.8,193.6 L92.6,173.8 L93.5,154.8 L94.3,167.0 L95.2,164.0 L96.0,154.4 L96.9,145.6 L97.7,148.3 L98.5,137.1 L99.4,131.3 L100.2,125.8 L101.1,105.1 L101.9,111.9 L102.8,133.7 L103.6,135.4 L104.4,136.1 L105.3,94.9 L106.1,90.1 L107.0,93.8 L107.8,88.0 L108.7,92.5 L109.5,76.1 L110.3,72.0 L111.2,81.6 L112.0,74.4 L112.9,67.6 L113.7,87.7 L114.6,102.7 L115.4,82.3 L116.2,77.2 L117.1,84.6 L117.9,90.4 L118.8,80.9 L119.6,99.3 L120.4,119.7 L121.3,136.1 L122.1,117.7 L123.0,118.3 L123.8,134.0 L124.7,133.0 L125.5,123.8 L126.3,119.0 L127.2,97.9 L128.0,82.9 L128.9,136.4 L129.7,154.1 L130.6,174.2 L131.4,146.3 L132.2,121.8 L133.1,165.0 L133.9,146.9 L134.8,157.5 L135.6,120.7 L136.5,107.1 L137.3,150.0 L138.1,173.8 L139.0,149.3 L139.8,158.5 L140.7,157.2 L141.5,143.5 L142.4,166.4 L143.2,186.1 L144.0,190.2 L144.9,188.8 L145.7,209.3 L146.6,192.2 L147.4,183.7 L148.3,185.8 L149.1,179.3 L149.9,186.8 L150.8,186.8 L151.6,157.2 L152.5,137.8 L153.3,132.6 L154.2,124.8 L155.0,130.9 L155.8,121.4 L156.7,117.3 L157.5,117.3 L158.4,120.4 L159.2,118.7 L160.1,123.1 L160.9,137.1 L161.7,168.4 L162.6,159.2 L163.4,163.3 L164.3,169.4 L165.1,153.8 L166.0,153.8 L166.8,151.7 L167.6,116.6 L168.5,117.0 L169.3,133.7 L170.2,144.2 L171.0,148.3 L171.9,142.2 L172.7,155.1 L173.5,147.3 L174.4,139.1 L175.2,137.1 L176.1,104.4 L176.9,132.3 L177.8,111.5 L178.6,120.7 L179.4,132.3 L180.3,128.2 L181.1,140.1 L182.0,156.1 L182.8,161.9 L183.7,165.3 L184.5,149.3 L185.3,158.5 L186.2,185.4 L187.0,199.4 L187.9,194.6 L188.7,213.7 L189.6,210.3 L190.4,187.8 L191.2,173.8 L192.1,154.8 L192.9,148.0 L193.8,124.8 L194.6,132.3 L195.4,138.4 L196.3,158.2 L197.1,209.6 L198.0,208.6 L198.8,209.9 L199.7,266.5 L200.5,268.2 L201.3,266.8 L202.2,256.2 L203.0,234.4 L203.9,192.6 L204.7,177.2 L205.6,173.2 L206.4,193.6 L207.2,208.9 L208.1,207.9 L208.9,212.3 L209.8,213.0 L210.6,198.0 L211.5,204.1 L212.3,191.9 L213.1,186.8 L214.0,204.8 L214.8,225.9 L215.7,257.6 L216.5,234.4 L217.4,231.0 L218.2,209.3 L219.0,184.1 L219.9,152.1 L220.7,132.3 L221.6,126.5 L222.4,139.5 L223.3,126.5 L224.1,129.6 L224.9,132.6 L225.8,131.6 L226.6,130.3 L227.5,129.6 L228.3,129.2 L229.2,114.6 L230.0,143.2 L230.8,126.9 L231.7,120.1 L232.5,149.7 L233.4,157.8 L234.2,118.0 L235.1,118.3 L235.9,138.1 L236.7,102.7 L237.6,103.0 L238.4,155.1 L239.3,139.1 L240.1,139.5 L241.0,141.2 L241.8,153.8 L242.6,129.6 L243.5,140.8 L244.3,145.2 L245.2,140.8 L246.0,143.5 L246.9,140.5 L247.7,142.5 L248.5,106.8 L249.4,117.3 L250.2,154.4 L251.1,134.7 L251.9,148.0 L252.8,124.8 L253.6,146.6 L254.4,142.9 L255.3,154.4 L256.1,150.0 L257.0,91.8 L257.8,122.4 L258.7,124.1 L259.5,135.7 L260.3,133.7 L261.2,137.4 L262.0,152.4 L262.9,142.9 L263.7,169.8 L264.6,178.3 L265.4,185.4 L266.2,223.2 L267.1,219.1 L267.9,155.5 L268.8,147.3 L269.6,142.5 L270.4,138.8 L271.3,152.1 L272.1,168.7 L273.0,172.8 L273.8,160.9 L274.7,157.8 L275.5,166.4 L276.3,199.4 L277.2,169.8 L278.0,123.1 L278.9,93.2 L279.7,144.6 L280.6,156.5 L281.4,150.7 L282.2,187.1 L283.1,190.2 L283.9,222.9 L284.8,234.4 L285.6,222.9 L286.5,220.5 L287.3,218.1 L288.1,230.0 L289.0,194.6 L289.8,172.5 L290.7,202.4 L291.5,208.2 L292.4,209.9 L293.2,181.3 L294.0,155.1 L294.9,140.8 L295.7,170.4 L296.6,163.3 L297.4,156.1 L298.3,154.4 L299.1,138.8 L299.9,144.2 L300.8,141.2 L301.6,142.9 L302.5,148.0 L303.3,145.6 L304.2,145.6 L305.0,152.1 L305.8,152.1 L306.7,155.1 L307.5,166.4 L308.4,149.7 L309.2,111.2 L310.1,101.3 L310.9,132.0 L311.7,112.9 L312.6,102.7 L313.4,88.7 L314.3,97.9 L315.1,104.0 L316.0,119.4 L316.8,112.6 L317.6,86.0 L318.5,121.8 L319.3,151.7 L320.2,135.0 L321.0,137.8 L321.9,154.1 L322.7,147.3 L323.5,172.1 L324.4,211.3 L325.2,222.2 L326.1,233.8 L326.9,230.0 L327.8,216.4 L328.6,190.2 L329.4,179.3 L330.3,173.8 L331.1,211.6 L332.0,203.1 L332.8,202.1 L333.7,200.7 L334.5,199.4 L335.3,200.4 L336.2,194.6 L337.0,203.1 L337.9,160.6 L338.7,162.3 L339.6,169.8 L340.4,182.0 L341.2,177.6 L342.1,129.2 L342.9,133.0 L343.8,141.2 L344.6,131.6 L345.4,116.0 L346.3,120.1 L347.1,133.0 L348.0,144.9 L348.8,148.3 L349.7,198.0 L350.5,215.4 L351.3,210.6 L352.2,201.1 L353.0,202.1 L353.9,208.9 L354.7,214.7 L355.6,204.8 L356.4,200.4 L357.2,185.4 L358.1,151.0 L358.9,116.0 L359.8,139.8 L360.6,146.3 L361.5,92.8 L362.3,89.4 L363.1,99.6 L364.0,107.1 L364.8,102.0 L365.7,125.5 L366.5,144.2 L367.4,125.8 L368.2,100.6 L369.0,74.8 L369.9,74.4 L370.7,92.1 L371.6,112.6 L372.4,104.4 L373.3,109.2 L374.1,105.1 L374.9,92.1 L375.8,101.3 L376.6,119.7 L377.5,126.2 L378.3,118.3 L379.2,100.3 L380.0,149.3 L380.8,122.8 L381.7,96.6 L382.5,91.5 L383.4,90.1 L384.2,96.6 L385.1,84.3 L385.9,141.2 L386.7,167.0 L387.6,167.0 L388.4,150.0 L389.3,123.1 L390.1,92.1 L391.0,113.6 L391.8,113.9 L392.6,92.1 L393.5,92.5 L394.3,96.9 L395.2,113.2 L396.0,100.0 L396.9,89.7 L397.7,77.8 L398.5,96.2 L399.4,71.7 L400.2,82.6 L401.1,95.5 L401.9,128.9 L402.8,167.0 L403.6,155.5 L404.4,153.1 L405.3,150.0 L406.1,161.2 L407.0,161.2 L407.8,179.6 L408.7,172.1 L409.5,186.4 L410.3,192.6 L411.2,169.1 L412.0,141.5 L412.9,148.0 L413.7,150.7 L414.6,136.7 L415.4,132.3 L416.2,114.9 L417.1,122.8 L417.9,149.0 L418.8,189.2 L419.6,208.2 L420.4,175.2 L421.3,169.4 L422.1,142.9 L423.0,153.8 L423.8,167.7 L424.7,215.4 L425.5,235.1 L426.3,238.5 L427.2,218.4 L428.0,208.6 L428.9,180.3 L429.7,143.5 L430.6,143.9 L431.4,187.1 L432.2,196.3 L433.1,162.3 L433.9,185.4 L434.8,253.2 L435.6,262.4 L436.5,272.9 L437.3,249.8 L438.1,351.6 L439.0,350.2 L439.8,310.4 L440.7,307.0 L441.5,281.1 L442.4,278.4 L443.2,273.3 L444.0,278.0 L444.9,270.5 L445.7,266.1 L446.6,256.9 L447.4,251.1 L448.3,246.4 L449.1,246.0 L449.9,247.0 L450.8,245.7 L451.6,243.0 L452.5,264.4 L453.3,270.2 L454.2,278.7 L455.0,260.3 L455.8,250.8 L456.7,256.6 L457.5,248.1 L458.4,253.9 L459.2,246.0 L460.1,258.6 L460.9,243.0 L461.7,205.8 L462.6,204.8 L463.4,208.2 L464.3,197.0 L465.1,193.9 L466.0,191.2 L466.8,195.0 L467.6,174.2 L468.5,176.9 L469.3,212.7 L470.2,215.0 L471.0,225.9 L471.9,210.6 L472.7,196.0 L473.5,167.7 L474.4,141.2 L475.2,151.7 L476.1,148.3 L476.9,148.0 L477.8,160.6 L478.6,140.1 L479.4,160.6 L480.3,141.8 L481.1,151.4 L482.0,137.4 L482.8,131.3 L483.7,131.3 L484.5,170.1 L485.3,151.0 L486.2,159.5 L487.0,192.2 L487.9,197.0 L488.7,193.9 L489.6,190.5 L490.4,193.6 L491.2,185.8 L492.1,175.5 L492.9,170.1 L493.8,143.9 L494.6,136.4 L495.4,134.0 L496.3,145.2 L497.1,146.6 L498.0,159.2 L498.8,168.4 L499.7,151.7 L500.5,139.1 L501.3,161.9 L502.2,171.5 L503.0,163.3 L503.9,167.7 L504.7,195.0 L505.6,190.9 L506.4,201.1 L507.2,247.4 L508.1,257.3 L508.9,250.1 L509.8,239.6 L510.6,238.2 L511.5,242.6 L512.3,241.3 L513.1,248.7 L514.0,223.6 L514.8,228.7 L515.7,230.0 L516.5,230.7 L517.4,226.3 L518.2,228.0 L519.0,220.1 L519.9,192.2 L520.7,204.1 L521.6,214.4 L522.4,205.5 L523.3,220.8 L524.1,217.1 L524.9,211.3 L525.8,216.4 L526.6,221.5 L527.5,240.6 L528.3,254.2 L529.2,235.8 L530.0,207.6 L530.8,200.4 L531.7,199.4 L532.5,188.8 L533.4,198.0 L534.2,175.5 L535.1,125.8 L535.9,124.5 L536.7,112.2 L537.6,140.1 L538.4,148.6 L539.3,168.4 L540.1,164.3 L541.0,170.8 L541.8,186.1 L542.6,182.0 L543.5,195.0 L544.3,201.1 L545.2,231.7 L546.0,232.7 L546.9,233.4 L547.7,234.4 L548.5,225.3 L549.4,240.9 L550.2,223.9 L551.1,206.9 L551.9,200.4 L552.8,206.9 L553.6,214.0 L554.4,208.2 L555.3,197.7 L556.1,226.3 L557.0,223.9 L557.8,204.5 L558.7,179.6 L559.5,207.6 L560.3,216.7 L561.2,232.7 L562.0,227.0 L562.9,238.9 L563.7,231.7 L564.6,267.5 L565.4,263.7 L566.2,249.8 L567.1,248.1 L567.9,259.3 L568.8,263.0 L569.6,263.4 L570.4,262.4 L571.3,263.7 L572.1,235.1 L573.0,233.1 L573.8,230.0 L574.7,216.7 L575.5,208.6 L576.3,217.4 L577.2,221.8 L578.0,216.7 L578.9,237.9 L579.7,219.1 L580.6,217.1 L581.4,224.2 L582.2,255.2 L583.1,259.3 L583.9,255.2 L584.8,261.0 L585.6,259.3 L586.5,258.6 L587.3,241.6 L588.1,229.3 L589.0,232.4 L589.8,235.8 L590.7,231.4 L591.5,235.1 L592.4,207.6 L593.2,182.4 L594.0,201.4 L594.9,187.1 L595.7,198.0 L596.6,161.9 L597.4,171.8 L598.3,207.9 L599.1,203.8 L599.9,206.9 L600.8,212.0 L601.6,221.8 L602.5,242.6 L603.3,241.9 L604.2,239.9 L605.0,225.9 L605.8,219.1 L606.7,238.9 L607.5,204.8 L608.4,187.1 L609.2,163.3 L610.1,221.8 L610.9,219.5 L611.7,203.8 L612.6,243.6 L613.4,246.7 L614.3,248.4 L615.1,224.9 L616.0,222.2 L616.8,221.8 L617.6,224.9 L618.5,160.9 L619.3,177.2 L620.2,194.6 L621.0,153.1 L621.9,134.7 L622.7,155.1 L623.5,168.4 L624.4,162.3 L625.2,154.8 L626.1,163.6 L626.9,191.9 L627.8,207.9 L628.6,211.6 L629.4,218.8 L630.3,229.3 L631.1,204.8 L632.0,192.2 L632.8,203.5 L633.7,162.6 L634.5,161.6 L635.3,157.5 L636.2,193.9 L637.0,198.4 L637.9,203.8 L638.7,206.2 L639.6,206.2 L640.4,190.9 L641.2,190.9 L642.1,191.9 L642.9,186.1 L643.8,161.9 L644.6,160.6 L645.4,172.5 L646.3,203.5 L647.1,205.8 L648.0,217.8 L648.8,231.0 L649.7,224.2 L650.5,218.4 L651.3,222.5 L652.2,208.6 L653.0,181.7 L653.9,132.6 L654.7,140.1 L655.6,107.8 L656.4,132.3 L657.2,148.0 L658.1,144.9 L658.9,141.2 L659.8,137.8 L660.6,155.8 L661.5,166.7 L662.3,118.3 L663.1,117.7 L664.0,125.5 L664.8,126.5 L665.7,144.6 L666.5,124.8 L667.4,169.8 L668.2,167.7 L669.0,156.5 L669.9,168.1 L670.7,153.1 L671.6,157.2 L672.4,143.9 L673.3,104.0 L674.1,102.3 L674.9,155.1 L675.8,140.8 L676.6,115.6 L677.5,118.3 L678.3,127.5 L679.2,125.8 L680.0,121.1" stroke="#8c564b" stroke-width="2" fill="none" opacity="0.8"/>
<!-- Forecast Difference -->
<path d="M80.0,420.0 L80.8,420.0 L81.7,420.0 L82.5,420.0 L83.4,420.0 L84.2,420.0 L85.1,420.0 L85.9,420.0 L86.7,420.0 L87.6,420.0 L88.4,420.0 L89.3,420.0 L90.1,420.0 L91.0,420.0 L91.8,420.0 L92.6,420.0 L93.5,420.0 L94.3,420.0 L95.2,420.0 L96.0,420.0 L96.9,420.0 L97.7,420.0 L98.5,420.0 L99.4,420.0 L100.2,420.0 L101.1,420.0 L101.9,420.0 L102.8,420.0 L103.6,420.0 L104.4,420.0 L105.3,420.0 L106.1,420.0 L107.0,420.0 L107.8,420.0 L108.7,420.0 L109.5,420.0 L110.3,420.0 L111.2,420.0 L112.0,420.0 L112.9,420.0 L113.7,420.0 L114.6,420.0 L115.4,420.0 L116.2,420.0 L117.1,420.0 L117.9,420.0 L118.8,420.0 L119.6,420.0 L120.4,420.0 L121.3,420.0 L122.1,420.0 L123.0,420.0 L123.8,420.0 L124.7,420.0 L125.5,420.0 L126.3,420.0 L127.2,420.0 L128.0,420.0 L128.9,420.0 L129.7,420.0 L130.6,420.0 L131.4,420.0 L132.2,420.0 L133.1,420.0 L133.9,420.0 L134.8,420.0 L135.6,420.0 L136.5,420.0 L137.3,420.0 L138.1,420.0 L139.0,420.0 L139.8,420.0 L140.7,420.0 L141.5,420.0 L142.4,420.0 L143.2,420.0 L144.0,420.0 L144.9,420.0 L145.7,420.0 L146.6,420.0 L147.4,420.0 L148.3,420.0 L149.1,420.0 L149.9,420.0 L150.8,420.0 L151.6,420.0 L152.5,420.0 L153.3,420.0 L154.2,420.0 L155.0,420.0 L155.8,420.0 L156.7,420.0 L157.5,420.0 L158.4,420.0 L159.2,420.0 L160.1,420.0 L160.9,420.0 L161.7,420.0 L162.6,420.0 L163.4,420.0 L164.3,420.0 L165.1,420.0 L166.0,420.0 L166.8,420.0 L167.6,420.0 L168.5,420.0 L169.3,420.0 L170.2,420.0 L171.0,420.0 L171.9,420.0 L172.7,420.0 L173.5,420.0 L174.4,420.0 L175.2,420.0 L176.1,420.0 L176.9,420.0 L177.8,420.0 L178.6,420.0 L179.4,420.0 L180.3,420.0 L181.1,420.0 L182.0,420.0 L182.8,420.0 L183.7,420.0 L184.5,420.0 L185.3,420.0 L186.2,420.0 L187.0,420.0 L187.9,420.0 L188.7,420.0 L189.6,420.0 L190.4,420.0 L191.2,420.0 L192.1,420.0 L192.9,420.0 L193.8,420.0 L194.6,420.0 L195.4,420.0 L196.3,420.0 L197.1,420.0 L198.0,420.0 L198.8,420.0 L199.7,420.0 L200.5,420.0 L201.3,420.0 L202.2,420.0 L203.0,420.0 L203.9,420.0 L204.7,420.0 L205.6,420.0 L206.4,420.0 L207.2,420.0 L208.1,420.0 L208.9,420.0 L209.8,420.0 L210.6,420.0 L211.5,420.0 L212.3,420.0 L213.1,420.0 L214.0,420.0 L214.8,420.0 L215.7,420.0 L216.5,420.0 L217.4,420.0 L218.2,420.0 L219.0,420.0 L219.9,420.0 L220.7,420.0 L221.6,420.0 L222.4,420.0 L223.3,420.0 L224.1,420.0 L224.9,420.0 L225.8,420.0 L226.6,420.0 L227.5,420.0 L228.3,420.0 L229.2,420.0 L230.0,420.0 L230.8,420.0 L231.7,420.0 L232.5,420.0 L233.4,420.0 L234.2,420.0 L235.1,420.0 L235.9,420.0 L236.7,420.0 L237.6,420.0 L238.4,420.0 L239.3,420.0 L240.1,420.0 L241.0,420.0 L241.8,420.0 L242.6,420.0 L243.5,420.0 L244.3,420.0 L245.2,420.0 L246.0,420.0 L246.9,420.0 L247.7,420.0 L248.5,420.0 L249.4,420.0 L250.2,420.0 L251.1,420.0 L251.9,420.0 L252.8,420.0 L253.6,420.0 L254.4,420.0 L255.3,420.0 L256.1,420.0 L257.0,420.0 L257.8,420.0 L258.7,420.0 L259.5,420.0 L260.3,420.0 L261.2,420.0 L262.0,420.0 L262.9,420.0 L263.7,420.0 L264.6,420.0 L265.4,420.0 L266.2,420.0 L267.1,420.0 L267.9,420.0 L268.8,420.0 L269.6,420.0 L270.4,420.0 L271.3,420.0 L272.1,420.0 L273.0,420.0 L273.8,420.0 L274.7,420.0 L275.5,420.0 L276.3,420.0 L277.2,420.0 L278.0,420.0 L278.9,420.0 L279.7,420.0 L280.6,420.0 L281.4,420.0 L282.2,420.0 L283.1,420.0 L283.9,420.0 L284.8,420.0 L285.6,420.0 L286.5,420.0 L287.3,420.0 L288.1,420.0 L289.0,420.0 L289.8,420.0 L290.7,420.0 L291.5,420.0 L292.4,420.0 L293.2,420.0 L294.0,420.0 L294.9,420.0 L295.7,420.0 L296.6,420.0 L297.4,420.0 L298.3,420.0 L299.1,420.0 L299.9,420.0 L300.8,420.0 L301.6,420.0 L302.5,420.0 L303.3,420.0 L304.2,420.0 L305.0,420.0 L305.8,420.0 L306.7,420.0 L307.5,420.0 L308.4,420.0 L309.2,420.0 L310.1,420.0 L310.9,420.0 L311.7,420.0 L312.6,420.0 L313.4,420.0 L314.3,420.0 L315.1,420.0 L316.0,420.0 L316.8,420.0 L317.6,420.0 L318.5,420.0 L319.3,420.0 L320.2,420.0 L321.0,420.0 L321.9,420.0 L322.7,420.0 L323.5,420.0 L324.4,420.0 L325.2,420.0 L326.1,420.0 L326.9,420.0 L327.8,420.0 L328.6,420.0 L329.4,420.0 L330.3,420.0 L331.1,420.0 L332.0,420.0 L332.8,420.0 L333.7,420.0 L334.5,420.0 L335.3,420.0 L336.2,420.0 L337.0,420.0 L337.9,420.0 L338.7,420.0 L339.6,420.0 L340.4,420.0 L341.2,420.0 L342.1,420.0 L342.9,420.0 L343.8,420.0 L344.6,420.0 L345.4,420.0 L346.3,420.0 L347.1,420.0 L348.0,420.0 L348.8,420.0 L349.7,420.0 L350.5,420.0 L351.3,420.0 L352.2,420.0 L353.0,420.0 L353.9,420.0 L354.7,420.0 L355.6,420.0 L356.4,420.0 L357.2,420.0 L358.1,420.0 L358.9,420.0 L359.8,420.0 L360.6,420.0 L361.5,420.0 L362.3,420.0 L363.1,420.0 L364.0,420.0 L364.8,420.0 L365.7,420.0 L366.5,420.0 L367.4,420.0 L368.2,420.0 L369.0,420.0 L369.9,420.0 L370.7,420.0 L371.6,420.0 L372.4,420.0 L373.3,420.0 L374.1,420.0 L374.9,420.0 L375.8,420.0 L376.6,420.0 L377.5,420.0 L378.3,420.0 L379.2,420.0 L380.0,420.0 L380.8,420.0 L381.7,420.0 L382.5,420.0 L383.4,420.0 L384.2,420.0 L385.1,420.0 L385.9,420.0 L386.7,420.0 L387.6,420.0 L388.4,420.0 L389.3,420.0 L390.1,420.0 L391.0,420.0 L391.8,420.0 L392.6,420.0 L393.5,420.0 L394.3,420.0 L395.2,420.0 L396.0,420.0 L396.9,420.0 L397.7,420.0 L398.5,420.0 L399.4,420.0 L400.2,420.0 L401.1,420.0 L401.9,420.0 L402.8,420.0 L403.6,420.0 L404.4,420.0 L405.3,420.0 L406.1,420.0 L407.0,420.0 L407.8,420.0 L408.7,420.0 L409.5,420.0 L410.3,420.0 L411.2,420.0 L412.0,420.0 L412.9,420.0 L413.7,420.0 L414.6,420.0 L415.4,420.0 L416.2,420.0 L417.1,420.0 L417.9,420.0 L418.8,420.0 L419.6,420.0 L420.4,420.0 L421.3,420.0 L422.1,420.0 L423.0,420.0 L423.8,420.0 L424.7,420.0 L425.5,420.0 L426.3,420.0 L427.2,420.0 L428.0,420.0 L428.9,420.0 L429.7,420.0 L430.6,420.0 L431.4,420.0 L432.2,420.0 L433.1,420.0 L433.9,420.0 L434.8,420.0 L435.6,420.0 L436.5,420.0 L437.3,420.0 L438.1,420.0 L439.0,420.0 L439.8,420.0 L440.7,420.0 L441.5,420.0 L442.4,420.0 L443.2,420.0 L444.0,420.0 L444.9,420.0 L445.7,420.0 L446.6,420.0 L447.4,420.0 L448.3,420.0 L449.1,420.0 L449.9,420.0 L450.8,420.0 L451.6,420.0 L452.5,420.0 L453.3,420.0 L454.2,420.0 L455.0,420.0 L455.8,420.0 L456.7,420.0 L457.5,420.0 L458.4,420.0 L459.2,420.0 L460.1,420.0 L460.9,420.0 L461.7,420.0 L462.6,420.0 L463.4,420.0 L464.3,420.0 L465.1,420.0 L466.0,420.0 L466.8,420.0 L467.6,420.0 L468.5,420.0 L469.3,420.0 L470.2,420.0 L471.0,420.0 L471.9,420.0 L472.7,420.0 L473.5,420.0 L474.4,420.0 L475.2,420.0 L476.1,420.0 L476.9,420.0 L477.8,420.0 L478.6,420.0 L479.4,420.0 L480.3,420.0 L481.1,420.0 L482.0,420.0 L482.8,420.0 L483.7,420.0 L484.5,420.0 L485.3,420.0 L486.2,420.0 L487.0,420.0 L487.9,420.0 L488.7,420.0 L489.6,420.0 L490.4,420.0 L491.2,420.0 L492.1,420.0 L492.9,420.0 L493.8,420.0 L494.6,420.0 L495.4,420.0 L496.3,420.0 L497.1,420.0 L498.0,420.0 L498.8,420.0 L499.7,420.0 L500.5,420.0 L501.3,420.0 L502.2,420.0 L503.0,420.0 L503.9,420.0 L504.7,420.0 L505.6,420.0 L506.4,420.0 L507.2,420.0 L508.1,420.0 L508.9,420.0 L509.8,420.0 L510.6,420.0 L511.5,420.0 L512.3,420.0 L513.1,420.0 L514.0,420.0 L514.8,420.0 L515.7,420.0 L516.5,420.0 L517.4,420.0 L518.2,420.0 L519.0,420.0 L519.9,420.0 L520.7,420.0 L521.6,420.0 L522.4,420.0 L523.3,420.0 L524.1,420.0 L524.9,420.0 L525.8,420.0 L526.6,420.0 L527.5,420.0 L528.3,420.0 L529.2,420.0 L530.0,420.0 L530.8,420.0 L531.7,420.0 L532.5,420.0 L533.4,420.0 L534.2,420.0 L535.1,420.0 L535.9,420.0 L536.7,420.0 L537.6,420.0 L538.4,420.0 L539.3,420.0 L540.1,420.0 L541.0,420.0 L541.8,420.0 L542.6,420.0 L543.5,420.0 L544.3,420.0 L545.2,420.0 L546.0,420.0 L546.9,420.0 L547.7,420.0 L548.5,420.0 L549.4,420.0 L550.2,420.0 L551.1,420.0 L551.9,420.0 L552.8,420.0 L553.6,420.0 L554.4,420.0 L555.3,420.0 L556.1,420.0 L557.0,420.0 L557.8,420.0 L558.7,420.0 L559.5,420.0 L560.3,420.0 L561.2,420.0 L562.0,420.0 L562.9,420.0 L563.7,420.0 L564.6,420.0 L565.4,420.0 L566.2,420.0 L567.1,420.0 L567.9,420.0 L568.8,420.0 L569.6,420.0 L570.4,420.0 L571.3,420.0 L572.1,420.0 L573.0,420.0 L573.8,420.0 L574.7,420.0 L575.5,420.0 L576.3,420.0 L577.2,420.0 L578.0,420.0 L578.9,420.0 L579.7,420.0 L580.6,420.0 L581.4,420.0 L582.2,420.0 L583.1,420.0 L583.9,420.0 L584.8,420.0 L585.6,420.0 L586.5,420.0 L587.3,420.0 L588.1,420.0 L589.0,420.0 L589.8,420.0 L590.7,420.0 L591.5,420.0 L592.4,420.0 L593.2,420.0 L594.0,420.0 L594.9,420.0 L595.7,420.0 L596.6,420.0 L597.4,420.0 L598.3,420.0 L599.1,420.0 L599.9,420.0 L600.8,420.0 L601.6,420.0 L602.5,420.0 L603.3,420.0 L604.2,420.0 L605.0,420.0 L605.8,420.0 L606.7,420.0 L607.5,420.0 L608.4,420.0 L609.2,420.0 L610.1,420.0 L610.9,420.0 L611.7,420.0 L612.6,420.0 L613.4,420.0 L614.3,420.0 L615.1,420.0 L616.0,420.0 L616.8,420.0 L617.6,420.0 L618.5,420.0 L619.3,420.0 L620.2,420.0 L621.0,420.0 L621.9,420.0 L622.7,420.0 L623.5,420.0 L624.4,420.0 L625.2,420.0 L626.1,420.0 L626.9,420.0 L627.8,420.0 L628.6,420.0 L629.4,420.0 L630.3,420.0 L631.1,420.0 L632.0,420.0 L632.8,420.0 L633.7,420.0 L634.5,420.0 L635.3,420.0 L636.2,420.0 L637.0,420.0 L637.9,420.0 L638.7,420.0 L639.6,420.0 L640.4,420.0 L641.2,420.0 L642.1,420.0 L642.9,420.0 L643.8,420.0 L644.6,420.0 L645.4,420.0 L646.3,420.0 L647.1,420.0 L648.0,420.0 L648.8,420.0 L649.7,420.0 L650.5,420.0 L651.3,420.0 L652.2,420.0 L653.0,420.0 L653.9,420.0 L654.7,420.0 L655.6,420.0 L656.4,420.0 L657.2,420.0 L658.1,420.0 L658.9,420.0 L659.8,420.0 L660.6,420.0 L661.5,420.0 L662.3,420.0 L663.1,420.0 L664.0,420.0 L664.8,420.0 L665.7,420.0 L666.5,420.0 L667.4,420.0 L668.2,420.0 L669.0,420.0 L669.9,420.0 L670.7,420.0 L671.6,420.0 L672.4,420.0 L673.3,420.0 L674.1,420.0 L674.9,420.0 L675.8,420.0 L676.6,420.0 L677.5,420.0 L678.3,420.0 L679.2,420.0 L680.0,420.0" stroke="#e377c2" stroke-width="2" fill="none" opacity="0.8"/>

<!-- Legend -->
<line x1="690" y1="70" x2="705" y2="70" stroke="#1f77b4" stroke-width="3"/>
<text x="710" y="74" class="legend">Wind Generation</text>
<line x1="690" y1="88" x2="705" y2="88" stroke="#ff7f0e" stroke-width="3"/>
<text x="710" y="92" class="legend">Hydro Generation</text>
<line x1="690" y1="106" x2="705" y2="106" stroke="#2ca02c" stroke-width="3"/>
<text x="710" y="110" class="legend">Thermal Generation</text>
<line x1="690" y1="124" x2="705" y2="124" stroke="#d62728" stroke-width="3"/>
<text x="710" y="128" class="legend">Solar Generation</text>
<line x1="690" y1="142" x2="705" y2="142" stroke="#9467bd" stroke-width="3"/>
<text x="710" y="146" class="legend">Forecast</text>
<line x1="690" y1="160" x2="705" y2="160" stroke="#8c564b" stroke-width="3"/>
<text x="710" y="164" class="legend">Total Generation</text>
<line x1="690" y1="178" x2="705" y2="178" stroke="#e377c2" stroke-width="3"/>
<text x="710" y="182" class="legend">Forecast Difference</text>

<!-- Date range -->
<text x="80" y="495" class="legend">Range: 11/29 - 12/29/2025 (713 records)</text>
</svg>