<?xml version="1.0" encoding="UTF-8"?>
<svg width="800" height="500" xmlns="http://www.w3.org/2000/svg">
<style>
.axis-line { stroke: #333; stroke-width: 1; }
.grid-line { stroke: #ddd; stroke-width: 0.5; }
.title { font: 16px Arial; text-anchor: middle; fill: #333; }
.axis-label { font: 12px Arial; text-anchor: middle; fill: #666; }
.legend { font: 10px Arial; fill: #333; }
</style>

<!-- Title -->
<text x="400.0" y="25" class="title">Northwestern Energy Generation Data - Past 30 Days</text>

<!-- Plot area background -->
<rect x="80" y="50" width="600" height="370" fill="white" stroke="#ddd"/>

<!-- Y-axis -->
<line x1="80" y1="50" x2="80" y2="420" class="axis-line"/>
<text x="30" y="235.0" class="axis-label" transform="rotate(-90, 30, 235.0)">Generation (MW)</text>

<!-- X-axis -->
<line x1="80" y1="420" x2="680" y2="420" class="axis-line"/>
<text x="380.0" y="480" class="axis-label">Time</text>
<line x1="80" y1="420.0" x2="680" y2="420.0" class="grid-line"/>
<text x="70" y="425.0" class="legend" text-anchor="end">0</text>
<line x1="80" y1="327.5" x2="680" y2="327.5" class="grid-line"/>
<text x="70" y="332.5" class="legend" text-anchor="end">303</text>
<line x1="80" y1="235.0" x2="680" y2="235.0" class="grid-line"/>
<text x="70" y="240.0" class="legend" text-anchor="end">606</text>
<line x1="80" y1="142.5" x2="680" y2="142.5" class="grid-line"/>
<text x="70" y="147.5" class="legend" text-anchor="end">910</text>
<line x1="80" y1="50.0" x2="680" y2="50.0" class="grid-line"/>
<text x="70" y="55.0" class="legend" text-anchor="end">1213</text>
<!-- Wind Generation -->
<path d="M80.0,411.8 L81.9,410.5 L83.9,416.3 L85.8,398.9 L87.8,403.8 L89.7,397.7 L121.6,416.3 L123.5,413.0 L125.4,409.9 L127.4,405.1 L129.3,401.1 L131.3,369.0 L133.2,373.6 L135.1,372.1 L137.1,381.9 L139.0,403.2 L141.0,406.0 L142.9,407.5 L144.8,417.6 L146.8,409.9 L148.7,403.2 L150.7,398.9 L152.6,400.5 L154.5,413.9 L156.5,419.4 L158.4,420.0 L160.4,418.2 L162.3,416.3 L164.2,417.6 L166.2,415.1 L168.1,407.8 L170.1,412.4 L172.0,377.3 L173.9,394.7 L175.9,410.5 L177.8,378.2 L179.8,406.6 L181.7,385.2 L183.6,389.8 L185.6,386.4 L187.5,399.9 L189.5,412.1 L191.4,393.8 L193.3,383.4 L195.3,381.9 L197.2,387.1 L199.2,408.4 L201.1,415.4 L203.0,416.6 L205.0,412.4 L206.9,409.9 L208.9,411.8 L210.8,413.3 L212.7,414.8 L214.7,411.5 L216.6,407.5 L218.6,398.0 L220.5,390.7 L222.4,382.5 L224.4,370.0 L226.3,373.3 L228.3,378.2 L230.2,378.5 L232.1,384.9 L234.1,393.2 L236.0,393.2 L238.0,373.9 L239.9,390.4 L241.8,402.3 L243.8,403.2 L245.7,399.6 L247.7,400.8 L249.6,404.4 L251.5,401.4 L253.5,406.0 L255.4,410.2 L257.4,408.4 L259.3,407.8 L261.2,408.1 L263.2,402.9 L265.1,394.4 L267.1,391.3 L269.0,381.9 L270.9,373.3 L272.9,379.4 L274.8,373.6 L276.8,374.2 L278.7,372.7 L280.6,391.0 L282.6,408.4 L284.5,414.2 L286.5,417.9 L288.4,420.0 L290.3,420.0 L292.3,420.0 L294.2,420.0 L296.2,419.7 L298.1,416.3 L300.0,415.1 L302.0,415.4 L303.9,415.1 L305.9,415.4 L307.8,414.8 L309.7,409.9 L311.7,401.1 L313.6,387.1 L315.6,378.5 L317.5,351.7 L319.5,345.9 L321.4,352.3 L323.3,342.5 L325.3,351.0 L327.2,381.6 L329.2,384.9 L331.1,394.7 L333.0,410.2 L335.0,416.0 L336.9,417.9 L338.9,420.0 L340.8,420.0 L342.7,420.0 L344.7,415.7 L346.6,409.9 L348.6,412.4 L350.5,413.0 L352.4,414.5 L354.4,416.9 L356.3,414.5 L358.3,413.0 L360.2,401.7 L362.1,387.1 L364.1,375.8 L366.0,355.6 L368.0,362.9 L369.9,386.1 L371.8,408.1 L373.8,416.3 L375.7,418.8 L377.7,420.0 L379.6,420.0 L381.5,419.7 L383.5,419.7 L385.4,420.0 L387.4,420.0 L389.3,420.0 L391.2,416.0 L393.2,412.7 L395.1,415.1 L397.1,417.9 L399.0,416.0 L400.9,416.0 L402.9,412.1 L404.8,405.1 L406.8,390.7 L408.7,372.1 L410.6,354.4 L412.6,349.5 L414.5,353.8 L416.5,373.0 L418.1,390.7 L420.0,405.1 L422.0,411.8 L423.9,418.2 L425.8,419.7 L427.8,420.0 L429.7,419.7 L431.7,418.8 L433.6,419.1 L435.5,415.7 L437.5,407.8 L439.4,399.9 L441.4,400.8 L443.3,398.9 L445.2,404.7 L447.2,406.9 L449.1,403.5 L451.1,392.2 L453.0,373.9 L454.9,368.4 L456.9,327.3 L458.8,324.2 L460.8,320.2 L462.7,335.5 L464.6,351.0 L466.6,364.8 L468.5,380.6 L470.5,393.2 L472.4,398.0 L474.3,404.1 L476.3,402.9 L478.2,401.1 L480.2,406.9 L482.1,405.1 L484.0,399.3 L486.0,388.0 L487.9,374.2 L489.9,379.1 L491.8,393.5 L493.7,394.1 L495.7,381.6 L497.6,388.0 L499.6,393.8 L501.5,394.1 L503.4,401.7 L505.4,402.3 L507.3,406.6 L509.3,405.4 L511.2,414.2 L513.1,408.7 L515.1,414.5 L517.0,404.4 L519.0,404.1 L520.9,402.0 L522.8,398.0 L524.8,402.3 L526.7,407.5 L528.7,415.7 L530.6,417.3 L532.5,416.9 L534.5,418.5 L536.4,420.0 L538.4,417.6 L540.3,397.7 L542.2,392.5 L544.2,373.6 L546.1,374.8 L548.1,390.1 L550.0,410.2 L551.9,410.5 L553.9,411.5 L555.8,412.1 L557.8,405.4 L559.7,397.4 L561.6,391.6 L563.6,396.5 L565.5,403.2 L567.5,404.1 L569.4,406.6 L571.4,408.7 L573.3,413.6 L575.2,410.8 L577.2,411.5 L579.1,403.8 L581.1,398.9 L583.0,399.6 L584.9,395.0 L586.9,352.3 L588.8,369.4 L590.8,382.2 L592.7,373.6 L594.6,388.6 L596.6,395.3 L598.5,409.6 L600.5,409.9 L602.4,412.1 L604.3,408.7 L606.3,411.2 L608.2,409.3 L610.2,393.5 L612.1,394.4 L614.0,393.8 L616.0,394.7 L617.9,398.9 L619.9,409.9 L621.8,410.5 L623.7,402.9 L625.7,396.5 L627.6,398.9 L629.6,388.9 L631.5,395.0 L633.4,399.3 L635.4,405.1 L637.3,402.3 L639.3,410.8 L641.2,409.6 L643.1,403.5 L645.1,404.7 L647.0,415.4 L649.0,417.3 L650.9,414.8 L652.8,412.1 L654.8,411.8 L656.7,406.3 L658.7,404.4 L660.6,398.9 L662.5,403.2 L664.5,403.8 L666.4,409.9 L668.4,413.3 L670.3,414.2 L672.2,412.4 L674.2,406.3 L676.1,400.5 L678.1,403.2 L680.0,407.8" stroke="#1f77b4" stroke-width="2" fill="none" opacity="0.8"/>
<!-- Hydro Generation -->
<path d="M80.0,352.6 L81.9,353.5 L83.9,353.2 L85.8,353.8 L87.8,353.8 L89.7,353.5 L121.6,352.9 L123.5,353.5 L125.4,353.2 L127.4,353.2 L129.3,353.5 L131.3,353.5 L133.2,352.6 L135.1,353.2 L137.1,352.6 L139.0,352.6 L141.0,352.6 L142.9,352.3 L144.8,352.9 L146.8,352.6 L148.7,352.6 L150.7,352.9 L152.6,352.3 L154.5,352.6 L156.5,352.6 L158.4,352.3 L160.4,352.6 L162.3,352.9 L164.2,353.5 L166.2,353.5 L168.1,352.9 L170.1,353.5 L172.0,353.2 L173.9,353.2 L175.9,353.2 L177.8,353.2 L179.8,353.2 L181.7,353.2 L183.6,353.5 L185.6,353.5 L187.5,353.2 L189.5,353.2 L191.4,353.2 L193.3,352.9 L195.3,353.5 L197.2,353.2 L199.2,353.2 L201.1,352.6 L203.0,353.2 L205.0,353.5 L206.9,353.5 L208.9,353.8 L210.8,353.8 L212.7,354.1 L214.7,354.7 L216.6,354.4 L218.6,354.4 L220.5,354.1 L222.4,354.1 L224.4,355.3 L226.3,355.0 L228.3,355.3 L230.2,355.3 L232.1,355.3 L234.1,355.6 L236.0,355.3 L238.0,355.9 L239.9,355.6 L241.8,355.3 L243.8,356.2 L245.7,356.2 L247.7,355.6 L249.6,355.9 L251.5,356.8 L253.5,356.8 L255.4,356.8 L257.4,354.1 L259.3,357.2 L261.2,356.8 L263.2,356.8 L265.1,357.5 L267.1,351.7 L269.0,358.1 L270.9,359.0 L272.9,359.0 L274.8,358.7 L276.8,359.0 L278.7,358.7 L280.6,359.0 L282.6,358.7 L284.5,359.0 L286.5,359.0 L288.4,359.0 L290.3,359.3 L292.3,359.6 L294.2,359.6 L296.2,361.1 L298.1,361.1 L300.0,360.8 L302.0,361.4 L303.9,360.5 L305.9,360.5 L307.8,360.8 L309.7,361.1 L311.7,359.3 L313.6,359.6 L315.6,359.6 L317.5,358.7 L319.5,359.0 L321.4,359.0 L323.3,358.1 L325.3,357.8 L327.2,358.1 L329.2,357.8 L331.1,357.8 L333.0,357.5 L335.0,357.5 L336.9,357.8 L338.9,357.8 L340.8,357.5 L342.7,358.1 L344.7,358.4 L346.6,358.1 L348.6,358.7 L350.5,358.1 L352.4,358.4 L354.4,358.1 L356.3,358.7 L358.3,358.4 L360.2,358.4 L362.1,358.7 L364.1,357.2 L366.0,357.2 L368.0,356.5 L369.9,356.2 L371.8,356.2 L373.8,356.2 L375.7,356.5 L377.7,356.2 L379.6,356.2 L381.5,356.2 L383.5,356.2 L385.4,356.8 L387.4,359.3 L389.3,358.4 L391.2,359.0 L393.2,358.7 L395.1,359.3 L397.1,359.0 L399.0,359.0 L400.9,359.3 L402.9,359.9 L404.8,359.6 L406.8,359.6 L408.7,359.3 L410.6,359.0 L412.6,358.1 L414.5,357.8 L416.5,358.1 L418.1,357.8 L420.0,358.4 L422.0,358.1 L423.9,357.8 L425.8,356.8 L427.8,357.2 L429.7,356.5 L431.7,356.2 L433.6,356.2 L435.5,356.5 L437.5,356.5 L439.4,356.2 L441.4,355.9 L443.3,356.2 L445.2,356.5 L447.2,355.9 L449.1,356.2 L451.1,356.2 L453.0,356.5 L454.9,356.5 L456.9,356.8 L458.8,356.5 L460.8,356.5 L462.7,356.2 L464.6,356.8 L466.6,356.2 L468.5,356.5 L470.5,356.2 L472.4,356.2 L474.3,356.8 L476.3,356.5 L478.2,356.8 L480.2,356.2 L482.1,357.2 L484.0,355.9 L486.0,356.8 L487.9,356.2 L489.9,356.8 L491.8,356.5 L493.7,356.2 L495.7,356.5 L497.6,356.8 L499.6,356.5 L501.5,356.5 L503.4,356.5 L505.4,357.2 L507.3,356.5 L509.3,356.8 L511.2,356.8 L513.1,356.5 L515.1,357.2 L517.0,356.5 L519.0,357.2 L520.9,356.8 L522.8,357.2 L524.8,357.5 L526.7,357.5 L528.7,357.2 L530.6,356.8 L532.5,356.2 L534.5,356.5 L536.4,356.8 L538.4,356.8 L540.3,356.5 L542.2,356.5 L544.2,354.7 L546.1,355.0 L548.1,354.4 L550.0,354.1 L551.9,354.1 L553.9,353.8 L555.8,353.5 L557.8,353.5 L559.7,353.5 L561.6,352.9 L563.6,352.9 L565.5,352.9 L567.5,352.6 L569.4,352.3 L571.4,352.6 L573.3,352.9 L575.2,352.9 L577.2,352.6 L579.1,352.6 L581.1,353.2 L583.0,353.5 L584.9,353.5 L586.9,353.2 L588.8,353.5 L590.8,353.5 L592.7,353.2 L594.6,353.5 L596.6,353.5 L598.5,353.8 L600.5,353.8 L602.4,354.1 L604.3,354.7 L606.3,354.7 L608.2,354.4 L610.2,354.4 L612.1,354.7 L614.0,354.4 L616.0,354.7 L617.9,355.0 L619.9,356.2 L621.8,355.9 L623.7,356.2 L625.7,356.2 L627.6,355.9 L629.6,356.2 L631.5,355.6 L633.4,355.6 L635.4,355.6 L637.3,355.6 L639.3,355.3 L641.2,355.3 L643.1,353.2 L645.1,353.2 L647.0,352.9 L649.0,353.2 L650.9,353.2 L652.8,353.5 L654.8,352.6 L656.7,352.3 L658.7,352.3 L660.6,352.3 L662.5,352.6 L664.5,352.9 L666.4,354.1 L668.4,353.5 L670.3,353.8 L672.2,354.4 L674.2,354.1 L676.1,353.8 L678.1,353.8 L680.0,354.4" stroke="#ff7f0e" stroke-width="2" fill="none" opacity="0.8"/>
<!-- Thermal Generation -->
<path d="M80.0,314.7 L81.9,315.0 L83.9,313.8 L85.8,316.3 L87.8,328.8 L89.7,338.8 L121.6,332.4 L123.5,333.0 L125.4,338.8 L127.4,328.8 L129.3,329.1 L131.3,328.5 L133.2,326.3 L135.1,324.8 L137.1,321.5 L139.0,317.2 L141.0,321.2 L142.9,320.5 L144.8,319.9 L146.8,319.0 L148.7,320.5 L150.7,321.5 L152.6,337.9 L154.5,338.2 L156.5,338.2 L158.4,339.5 L160.4,340.7 L162.3,341.6 L164.2,326.6 L166.2,327.9 L168.1,327.9 L170.1,328.2 L172.0,328.5 L173.9,328.5 L175.9,327.9 L177.8,326.9 L179.8,326.3 L181.7,325.1 L183.6,321.8 L185.6,322.1 L187.5,321.2 L189.5,320.5 L191.4,320.2 L193.3,322.4 L195.3,320.5 L197.2,320.8 L199.2,321.8 L201.1,322.4 L203.0,320.5 L205.0,323.3 L206.9,322.7 L208.9,323.6 L210.8,323.9 L212.7,324.5 L214.7,324.2 L216.6,323.9 L218.6,324.2 L220.5,324.5 L222.4,323.0 L224.4,323.0 L226.3,323.3 L228.3,325.7 L230.2,322.1 L232.1,321.2 L234.1,321.5 L236.0,320.5 L238.0,320.5 L239.9,320.8 L241.8,323.6 L243.8,319.9 L245.7,320.8 L247.7,337.9 L249.6,339.5 L251.5,333.0 L253.5,322.1 L255.4,323.3 L257.4,323.0 L259.3,323.6 L261.2,323.9 L263.2,327.3 L265.1,326.3 L267.1,323.3 L269.0,323.3 L270.9,322.4 L272.9,322.4 L274.8,321.8 L276.8,321.8 L278.7,321.8 L280.6,320.5 L282.6,319.6 L284.5,319.3 L286.5,319.6 L288.4,322.1 L290.3,319.3 L292.3,330.6 L294.2,328.2 L296.2,331.2 L298.1,338.8 L300.0,322.4 L302.0,323.3 L303.9,323.6 L305.9,324.2 L307.8,323.6 L309.7,323.3 L311.7,309.9 L313.6,308.9 L315.6,311.1 L317.5,307.1 L319.5,307.4 L321.4,308.3 L323.3,307.4 L325.3,306.5 L327.2,305.6 L329.2,305.9 L331.1,305.0 L333.0,304.4 L335.0,304.1 L336.9,304.7 L338.9,307.7 L340.8,336.7 L342.7,338.2 L344.7,338.8 L346.6,338.5 L348.6,341.0 L350.5,313.5 L352.4,308.3 L354.4,306.8 L356.3,310.5 L358.3,308.9 L360.2,304.4 L362.1,303.8 L364.1,300.4 L366.0,298.3 L368.0,311.4 L369.9,304.7 L371.8,306.5 L373.8,296.7 L375.7,319.6 L377.7,323.0 L379.6,322.4 L381.5,295.8 L383.5,298.6 L385.4,298.6 L387.4,323.3 L389.3,309.9 L391.2,311.1 L393.2,312.6 L395.1,313.2 L397.1,309.3 L399.0,307.7 L400.9,307.4 L402.9,306.5 L404.8,307.1 L406.8,307.1 L408.7,305.3 L410.6,305.0 L412.6,301.6 L414.5,303.8 L416.5,298.3 L418.1,297.4 L420.0,305.9 L422.0,296.1 L423.9,297.4 L425.8,299.8 L427.8,300.7 L429.7,297.4 L431.7,297.7 L433.6,300.7 L435.5,301.0 L437.5,307.7 L439.4,321.2 L441.4,307.4 L443.3,320.2 L445.2,313.8 L447.2,313.2 L449.1,311.4 L451.1,312.6 L453.0,310.8 L454.9,311.4 L456.9,308.6 L458.8,306.2 L460.8,305.3 L462.7,301.9 L464.6,340.7 L466.6,340.1 L468.5,328.2 L470.5,327.6 L472.4,326.9 L474.3,326.6 L476.3,312.3 L478.2,327.3 L480.2,332.4 L482.1,327.6 L484.0,327.9 L486.0,328.5 L487.9,331.8 L489.9,326.9 L491.8,325.4 L493.7,305.0 L495.7,305.6 L497.6,305.9 L499.6,311.1 L501.5,308.0 L503.4,312.6 L505.4,305.9 L507.3,304.7 L509.3,303.5 L511.2,303.5 L513.1,329.1 L515.1,323.3 L517.0,324.2 L519.0,340.7 L520.9,340.4 L522.8,329.1 L524.8,327.3 L526.7,327.6 L528.7,331.2 L530.6,331.5 L532.5,326.9 L534.5,325.7 L536.4,326.0 L538.4,329.1 L540.3,319.9 L542.2,319.6 L544.2,316.3 L546.1,313.8 L548.1,313.5 L550.0,312.3 L551.9,310.8 L553.9,310.8 L555.8,310.8 L557.8,308.3 L559.7,306.2 L561.6,336.4 L563.6,335.2 L565.5,334.9 L567.5,334.3 L569.4,325.7 L571.4,325.1 L573.3,328.2 L575.2,328.2 L577.2,330.0 L579.1,335.2 L581.1,335.8 L583.0,345.6 L584.9,345.9 L586.9,345.3 L588.8,345.3 L590.8,343.7 L592.7,327.3 L594.6,324.2 L596.6,321.2 L598.5,322.4 L600.5,321.8 L602.4,321.5 L604.3,326.6 L606.3,337.9 L608.2,338.2 L610.2,337.9 L612.1,338.2 L614.0,338.5 L616.0,338.5 L617.9,339.2 L619.9,338.2 L621.8,337.9 L623.7,340.7 L625.7,341.3 L627.6,341.3 L629.6,341.9 L631.5,339.2 L633.4,341.9 L635.4,341.6 L637.3,312.3 L639.3,312.0 L641.2,313.5 L643.1,312.9 L645.1,312.3 L647.0,322.1 L649.0,321.5 L650.9,319.6 L652.8,335.5 L654.8,330.0 L656.7,327.9 L658.7,328.2 L660.6,327.6 L662.5,327.6 L664.5,327.6 L666.4,327.9 L668.4,329.4 L670.3,330.3 L672.2,330.9 L674.2,331.8 L676.1,332.1 L678.1,332.4 L680.0,312.6" stroke="#2ca02c" stroke-width="2" fill="none" opacity="0.8"/>
<!-- Solar Generation -->
<path d="M80.0,392.2 L81.9,411.2 L83.9,420.0 L85.8,420.0 L87.8,420.0 L89.7,420.0 L121.6,393.5 L123.5,382.2 L125.4,384.6 L127.4,399.3 L129.3,418.2 L131.3,420.0 L133.2,420.0 L135.1,420.0 L137.1,420.0 L139.0,420.0 L141.0,420.0 L142.9,420.0 L144.8,420.0 L146.8,420.0 L148.7,420.0 L150.7,418.2 L152.6,404.4 L154.5,380.3 L156.5,378.2 L158.4,387.4 L160.4,379.7 L162.3,384.6 L164.2,388.3 L166.2,398.3 L168.1,401.1 L170.1,400.5 L172.0,408.1 L173.9,415.7 L175.9,418.2 L177.8,420.0 L179.8,420.0 L181.7,420.0 L183.6,420.0 L185.6,420.0 L187.5,420.0 L189.5,420.0 L191.4,420.0 L193.3,420.0 L195.3,420.0 L197.2,418.2 L199.2,406.0 L201.1,387.7 L203.0,378.2 L205.0,380.9 L206.9,378.8 L208.9,380.0 L210.8,377.3 L212.7,377.0 L214.7,377.0 L216.6,377.3 L218.6,389.8 L220.5,402.9 L222.4,418.5 L224.4,420.0 L226.3,420.0 L228.3,420.0 L230.2,420.0 L232.1,420.0 L234.1,420.0 L236.0,420.0 L238.0,420.0 L239.9,420.0 L241.8,420.0 L243.8,419.4 L245.7,409.0 L247.7,393.8 L249.6,385.5 L251.5,379.7 L253.5,384.6 L255.4,377.3 L257.4,383.1 L259.3,375.5 L261.2,375.8 L263.2,376.7 L265.1,380.6 L267.1,400.2 L269.0,418.5 L270.9,420.0 L272.9,420.0 L274.8,420.0 L276.8,420.0 L278.7,420.0 L280.6,420.0 L282.6,420.0 L284.5,420.0 L286.5,420.0 L288.4,420.0 L290.3,418.5 L292.3,397.1 L294.2,379.4 L296.2,376.1 L298.1,375.8 L300.0,375.8 L302.0,376.1 L303.9,375.5 L305.9,376.4 L307.8,377.3 L309.7,376.7 L311.7,386.1 L313.6,408.1 L315.6,418.5 L317.5,420.0 L319.5,420.0 L321.4,420.0 L323.3,420.0 L325.3,420.0 L327.2,420.0 L329.2,420.0 L331.1,420.0 L333.0,420.0 L335.0,420.0 L336.9,419.1 L338.9,399.6 L340.8,378.8 L342.7,376.4 L344.7,375.5 L346.6,375.8 L348.6,380.0 L350.5,377.6 L352.4,380.0 L354.4,379.4 L356.3,382.2 L358.3,385.2 L360.2,401.7 L362.1,419.1 L364.1,420.0 L366.0,420.0 L368.0,420.0 L369.9,420.0 L371.8,420.0 L373.8,420.0 L375.7,420.0 L377.7,420.0 L379.6,420.0 L381.5,420.0 L383.5,418.5 L385.4,402.0 L387.4,381.3 L389.3,377.9 L391.2,378.2 L393.2,376.1 L395.1,379.7 L397.1,376.4 L399.0,387.4 L400.9,382.2 L402.9,392.8 L404.8,398.0 L406.8,410.2 L408.7,419.4 L410.6,420.0 L412.6,420.0 L414.5,420.0 L416.5,420.0 L418.1,420.0 L420.0,420.0 L422.0,420.0 L423.9,420.0 L425.8,420.0 L427.8,420.0 L429.7,419.7 L431.7,412.7 L433.6,398.3 L435.5,406.3 L437.5,394.4 L439.4,395.3 L441.4,390.1 L443.3,393.8 L445.2,382.8 L447.2,379.4 L449.1,391.6 L451.1,413.0 L453.0,412.4 L454.9,419.7 L456.9,420.0 L458.8,420.0 L460.8,420.0 L462.7,420.0 L464.6,420.0 L466.6,420.0 L468.5,420.0 L470.5,420.0 L472.4,420.0 L474.3,420.0 L476.3,419.7 L478.2,416.0 L480.2,415.1 L482.1,414.2 L484.0,412.7 L486.0,409.3 L487.9,406.3 L489.9,411.2 L491.8,404.1 L493.7,400.5 L495.7,407.5 L497.6,411.8 L499.6,418.5 L501.5,420.0 L503.4,420.0 L505.4,420.0 L507.3,420.0 L509.3,420.0 L511.2,420.0 L513.1,420.0 L515.1,420.0 L517.0,420.0 L519.0,420.0 L520.9,420.0 L522.8,420.0 L524.8,417.9 L526.7,412.4 L528.7,411.5 L530.6,404.4 L532.5,402.3 L534.5,398.0 L536.4,397.1 L538.4,399.9 L540.3,402.3 L542.2,406.6 L544.2,403.2 L546.1,415.7 L548.1,419.4 L550.0,420.0 L551.9,420.0 L553.9,420.0 L555.8,420.0 L557.8,420.0 L559.7,420.0 L561.6,420.0 L563.6,420.0 L565.5,420.0 L567.5,420.0 L569.4,420.0 L571.4,413.6 L573.3,400.8 L575.2,393.2 L577.2,388.3 L579.1,385.2 L581.1,379.1 L583.0,395.0 L584.9,389.5 L586.9,399.9 L588.8,406.3 L590.8,381.9 L592.7,410.2 L594.6,419.1 L596.6,420.0 L598.5,420.0 L600.5,420.0 L602.4,420.0 L604.3,420.0 L606.3,420.0 L608.2,420.0 L610.2,420.0 L612.1,420.0 L614.0,420.0 L616.0,420.0 L617.9,412.7 L619.9,382.5 L621.8,377.6 L623.7,376.4 L625.7,376.7 L627.6,383.7 L629.6,376.1 L631.5,376.1 L633.4,380.9 L635.4,376.4 L637.3,394.7 L639.3,402.0 L641.2,419.1 L643.1,420.0 L645.1,420.0 L647.0,420.0 L649.0,420.0 L650.9,420.0 L652.8,420.0 L654.8,420.0 L656.7,420.0 L658.7,420.0 L660.6,420.0 L662.5,419.7 L664.5,407.8 L666.4,384.6 L668.4,377.9 L670.3,376.7 L672.2,377.3 L674.2,377.9 L676.1,377.9 L678.1,379.7 L680.0,376.4" stroke="#d62728" stroke-width="2" fill="none" opacity="0.8"/>
<!-- Forecast -->
<path d="M80.0,100.6 L81.9,112.8 L83.9,125.3 L85.8,135.0 L87.8,152.4 L89.7,178.7 L121.6,74.9 L123.5,67.6 L125.4,72.2 L127.4,82.6 L129.3,97.8 L131.3,111.6 L133.2,122.5 L135.1,151.2 L137.1,187.8 L139.0,207.7 L141.0,219.2 L142.9,230.2 L144.8,234.8 L146.8,234.2 L148.7,227.5 L150.7,207.4 L152.6,180.5 L154.5,154.9 L156.5,136.6 L158.4,123.1 L160.4,109.7 L162.3,100.9 L164.2,92.6 L166.2,86.2 L168.1,78.6 L170.1,78.6 L172.0,83.2 L173.9,93.9 L175.9,107.3 L177.8,122.5 L179.8,140.2 L181.7,158.2 L183.6,235.7 L185.6,213.8 L187.5,244.6 L189.5,244.9 L191.4,242.4 L193.3,240.0 L195.3,239.1 L197.2,240.9 L199.2,207.4 L201.1,199.7 L203.0,187.8 L205.0,177.5 L206.9,147.2 L208.9,144.2 L210.8,145.1 L212.7,146.0 L214.7,149.1 L216.6,162.2 L218.6,173.2 L220.5,173.8 L222.4,173.8 L224.4,236.6 L226.3,240.3 L228.3,409.9 L230.2,223.2 L232.1,224.7 L234.1,237.3 L236.0,245.8 L238.0,248.8 L239.9,246.7 L241.8,236.3 L243.8,216.2 L245.7,192.4 L247.7,170.1 L249.6,159.8 L251.5,154.9 L253.5,148.8 L255.4,146.3 L257.4,140.2 L259.3,132.6 L261.2,123.1 L263.2,115.8 L265.1,121.6 L267.1,131.7 L269.0,181.1 L270.9,186.3 L272.9,192.7 L274.8,193.6 L276.8,218.6 L278.7,235.4 L280.6,238.8 L282.6,240.0 L284.5,241.5 L286.5,243.4 L288.4,245.8 L290.3,247.9 L292.3,242.1 L294.2,230.5 L296.2,216.2 L298.1,207.4 L300.0,204.9 L302.0,204.0 L303.9,202.8 L305.9,202.8 L307.8,202.2 L309.7,172.9 L311.7,169.5 L313.6,167.1 L315.6,170.7 L317.5,182.0 L319.5,184.2 L321.4,209.8 L323.3,219.2 L325.3,225.4 L327.2,218.0 L329.2,226.0 L331.1,233.9 L333.0,240.0 L335.0,251.0 L336.9,247.6 L338.9,235.4 L340.8,219.2 L342.7,203.1 L344.7,192.1 L346.6,184.5 L348.6,197.0 L350.5,194.8 L352.4,193.9 L354.4,163.4 L356.3,161.9 L358.3,159.5 L360.2,157.9 L362.1,170.4 L364.1,175.6 L366.0,177.5 L368.0,205.8 L369.9,228.7 L371.8,225.0 L373.8,236.0 L375.7,244.3 L377.7,248.2 L379.6,247.6 L381.5,237.6 L383.5,217.1 L385.4,192.7 L387.4,169.2 L389.3,156.7 L391.2,149.7 L393.2,141.8 L395.1,138.4 L397.1,129.9 L399.0,119.8 L400.9,142.1 L402.9,141.5 L404.8,139.3 L406.8,137.2 L408.7,144.2 L410.6,154.9 L412.6,120.7 L414.5,132.0 L416.5,194.8 L418.1,220.8 L420.0,235.4 L422.0,244.3 L423.9,249.5 L425.8,248.8 L427.8,240.0 L429.7,220.8 L431.7,196.1 L433.6,171.7 L435.5,156.1 L437.5,147.2 L439.4,138.7 L441.4,131.1 L443.3,121.9 L445.2,112.2 L447.2,100.9 L449.1,92.0 L451.1,94.8 L453.0,104.5 L454.9,118.6 L456.9,133.2 L458.8,142.1 L460.8,162.5 L462.7,170.7 L464.6,208.3 L466.6,228.1 L468.5,237.6 L470.5,243.4 L472.4,242.7 L474.3,234.8 L476.3,217.4 L478.2,194.8 L480.2,170.7 L482.1,156.1 L484.0,149.4 L486.0,142.7 L487.9,139.0 L489.9,132.9 L491.8,124.7 L493.7,118.0 L495.7,115.2 L497.6,119.8 L499.6,121.3 L501.5,127.4 L503.4,144.5 L505.4,150.3 L507.3,166.8 L509.3,198.8 L511.2,215.6 L513.1,226.9 L515.1,235.4 L517.0,240.3 L519.0,238.8 L520.9,230.5 L522.8,215.3 L524.8,193.3 L526.7,171.0 L528.7,159.1 L530.6,155.5 L532.5,151.2 L534.5,147.9 L536.4,146.6 L538.4,144.2 L540.3,139.9 L542.2,137.8 L544.2,142.1 L546.1,149.7 L548.1,157.6 L550.0,162.8 L551.9,163.7 L553.9,177.8 L555.8,205.5 L557.8,223.2 L559.7,234.2 L561.6,241.5 L563.6,244.9 L565.5,244.0 L567.5,234.2 L569.4,218.0 L571.4,195.1 L573.3,172.9 L575.2,161.9 L577.2,158.8 L579.1,154.9 L581.1,151.5 L583.0,151.2 L584.9,148.8 L586.9,143.9 L588.8,140.8 L590.8,144.8 L592.7,152.4 L594.6,160.1 L596.6,167.4 L598.5,167.4 L600.5,182.0 L602.4,209.5 L604.3,223.8 L606.3,234.2 L608.2,243.0 L610.2,247.9 L612.1,249.5 L614.0,247.0 L616.0,241.5 L617.9,228.4 L619.9,211.0 L621.8,198.5 L623.7,192.4 L625.7,187.8 L627.6,179.6 L629.6,174.7 L631.5,174.1 L633.4,165.9 L635.4,158.2 L637.3,159.1 L639.3,157.3 L641.2,165.9 L643.1,174.4 L645.1,173.5 L647.0,186.9 L649.0,206.1 L650.9,225.7 L652.8,237.9 L654.8,245.8 L656.7,250.7 L658.7,251.6 L660.6,250.4 L662.5,247.0 L664.5,236.3 L666.4,219.2 L668.4,200.0 L670.3,188.1 L672.2,178.1 L674.2,171.0 L676.1,162.8 L678.1,153.7 L680.0,151.5" stroke="#9467bd" stroke-width="2" fill="none" opacity="0.8"/>
<!-- Total Generation -->
<path d="M80.0,211.3 L81.9,230.2 L83.9,243.4 L85.8,229.0 L87.8,246.4 L89.7,250.1 L121.6,235.1 L123.5,221.7 L125.4,226.6 L127.4,226.3 L129.3,241.8 L131.3,211.0 L133.2,212.5 L135.1,210.4 L137.1,216.2 L139.0,233.3 L141.0,240.0 L142.9,240.6 L144.8,250.7 L146.8,241.8 L148.7,236.6 L150.7,231.5 L152.6,235.1 L154.5,225.0 L156.5,228.4 L158.4,239.4 L160.4,231.1 L162.3,235.4 L164.2,226.0 L166.2,234.8 L168.1,229.6 L170.1,234.5 L172.0,207.0 L173.9,232.1 L175.9,249.8 L177.8,218.3 L179.8,246.1 L181.7,223.5 L183.6,225.0 L185.6,222.0 L187.5,234.2 L189.5,245.8 L191.4,227.2 L193.3,218.6 L195.3,215.9 L197.2,219.2 L199.2,229.3 L201.1,218.0 L203.0,208.6 L205.0,210.1 L206.9,204.9 L208.9,209.2 L210.8,208.3 L212.7,210.4 L214.7,207.4 L216.6,203.1 L218.6,206.4 L220.5,212.2 L222.4,218.0 L224.4,208.3 L226.3,211.6 L228.3,219.2 L230.2,215.9 L232.1,221.4 L234.1,230.2 L236.0,229.0 L238.0,210.4 L239.9,226.9 L241.8,241.2 L243.8,238.8 L245.7,225.7 L247.7,228.1 L249.6,225.4 L251.5,211.0 L253.5,209.5 L255.4,207.7 L257.4,208.6 L259.3,204.0 L261.2,204.6 L263.2,203.7 L265.1,198.8 L267.1,206.4 L269.0,221.7 L270.9,214.7 L272.9,220.8 L274.8,214.1 L276.8,215.0 L278.7,213.1 L280.6,230.5 L282.6,246.7 L284.5,252.5 L286.5,256.8 L288.4,261.0 L290.3,257.4 L292.3,247.9 L294.2,227.8 L296.2,228.1 L298.1,232.1 L300.0,214.1 L302.0,216.2 L303.9,214.7 L305.9,216.5 L307.8,216.5 L309.7,211.0 L311.7,196.4 L313.6,203.7 L315.6,207.7 L317.5,177.5 L319.5,172.3 L321.4,179.6 L323.3,168.0 L325.3,175.3 L327.2,205.2 L329.2,208.6 L331.1,217.4 L333.0,232.1 L335.0,237.6 L336.9,239.4 L338.9,225.4 L340.8,233.6 L342.7,233.6 L344.7,228.4 L346.6,222.3 L348.6,232.1 L350.5,202.2 L352.4,201.2 L354.4,201.2 L356.3,205.8 L358.3,205.5 L360.2,206.1 L362.1,208.6 L364.1,193.3 L366.0,171.0 L368.0,190.9 L369.9,207.0 L371.8,230.8 L373.8,229.3 L375.7,254.9 L377.7,259.8 L379.6,259.2 L381.5,231.8 L383.5,233.0 L385.4,217.4 L387.4,224.1 L389.3,206.7 L391.2,204.3 L393.2,200.0 L395.1,207.4 L397.1,202.5 L399.0,210.1 L400.9,204.9 L402.9,211.3 L404.8,209.8 L406.8,207.7 L408.7,196.1 L410.6,178.7 L412.6,169.5 L414.5,175.6 L416.5,189.7 L418.1,206.1 L420.0,229.3 L422.0,226.0 L423.9,233.3 L425.8,236.3 L427.8,237.9 L429.7,233.3 L431.7,225.4 L433.6,214.4 L435.5,219.6 L437.5,206.4 L439.4,212.5 L441.4,194.2 L443.3,209.2 L445.2,197.9 L447.2,195.5 L449.1,202.8 L451.1,214.1 L453.0,193.6 L454.9,196.1 L456.9,153.0 L458.8,147.2 L460.8,142.4 L462.7,154.0 L464.6,208.9 L466.6,221.1 L468.5,225.4 L470.5,236.9 L472.4,241.2 L474.3,247.6 L476.3,231.5 L478.2,241.2 L480.2,250.7 L482.1,244.0 L484.0,235.7 L486.0,222.6 L487.9,208.6 L489.9,214.1 L491.8,219.6 L493.7,195.8 L495.7,191.2 L497.6,202.5 L499.6,219.9 L501.5,218.6 L503.4,231.1 L505.4,225.7 L507.3,228.1 L509.3,226.0 L511.2,234.8 L513.1,254.6 L515.1,255.3 L517.0,245.5 L519.0,262.0 L520.9,259.2 L522.8,244.3 L524.8,244.9 L526.7,244.9 L528.7,255.6 L530.6,250.1 L532.5,242.4 L534.5,238.8 L536.4,240.0 L538.4,243.4 L540.3,216.5 L542.2,215.3 L544.2,187.8 L546.1,199.4 L548.1,217.4 L550.0,236.6 L551.9,235.4 L553.9,236.0 L555.8,236.3 L557.8,227.2 L559.7,217.1 L561.6,241.2 L563.6,244.6 L565.5,251.0 L567.5,251.0 L569.4,244.6 L571.4,240.0 L573.3,235.4 L575.2,225.0 L577.2,222.3 L579.1,216.8 L581.1,207.0 L583.0,233.6 L584.9,223.8 L586.9,190.6 L588.8,214.4 L590.8,201.2 L592.7,204.3 L594.6,225.4 L596.6,230.2 L598.5,246.1 L600.5,245.8 L602.4,247.9 L604.3,250.4 L606.3,264.1 L608.2,262.3 L610.2,246.1 L612.1,247.6 L614.0,247.0 L616.0,247.9 L617.9,245.8 L619.9,226.9 L621.8,222.0 L623.7,216.2 L625.7,210.7 L627.6,219.9 L629.6,203.1 L631.5,205.8 L633.4,217.7 L635.4,218.6 L637.3,204.9 L639.3,220.2 L641.2,237.6 L643.1,229.6 L645.1,230.2 L647.0,250.7 L649.0,252.2 L650.9,247.9 L652.8,261.4 L654.8,254.6 L656.7,246.7 L658.7,245.2 L660.6,239.1 L662.5,243.0 L664.5,232.1 L666.4,216.5 L668.4,214.1 L670.3,215.0 L672.2,215.0 L674.2,210.1 L676.1,204.3 L678.1,209.2 L680.0,191.2" stroke="#8c564b" stroke-width="2" fill="none" opacity="0.8"/>
<!-- Forecast Difference -->
<path d="M81.9,420.0 L83.9,420.0 L85.8,420.0 L87.8,420.0 L89.7,420.0 L123.5,420.0 L125.4,420.0 L127.4,420.0 L129.3,420.0 L131.3,420.0 L133.2,420.0 L135.1,420.0 L137.1,420.0 L139.0,420.0 L141.0,420.0 L142.9,420.0 L144.8,420.0 L146.8,420.0 L148.7,420.0 L150.7,420.0 L152.6,420.0 L154.5,420.0 L156.5,420.0 L158.4,420.0 L160.4,420.0 L162.3,420.0 L164.2,420.0 L166.2,420.0 L168.1,420.0 L170.1,420.0 L172.0,420.0 L173.9,420.0 L175.9,420.0 L177.8,420.0 L179.8,420.0 L181.7,420.0 L183.6,420.0 L185.6,420.0 L187.5,420.0 L189.5,420.0 L191.4,420.0 L193.3,420.0 L195.3,420.0 L197.2,420.0 L199.2,420.0 L201.1,420.0 L203.0,420.0 L205.0,420.0 L206.9,420.0 L208.9,420.0 L210.8,420.0 L212.7,420.0 L214.7,420.0 L216.6,420.0 L218.6,420.0 L220.5,420.0 L222.4,420.0 L224.4,420.0 L226.3,420.0 L228.3,420.0 L230.2,420.0 L232.1,420.0 L234.1,420.0 L236.0,420.0 L238.0,420.0 L239.9,420.0 L241.8,420.0 L243.8,420.0 L245.7,420.0 L247.7,420.0 L249.6,420.0 L251.5,420.0 L253.5,420.0 L255.4,420.0 L257.4,420.0 L259.3,420.0 L261.2,420.0 L263.2,420.0 L265.1,420.0 L267.1,420.0 L269.0,420.0 L270.9,420.0 L272.9,420.0 L274.8,420.0 L276.8,420.0 L278.7,420.0 L280.6,420.0 L282.6,420.0 L284.5,420.0 L286.5,420.0 L288.4,420.0 L290.3,420.0 L292.3,420.0 L294.2,420.0 L296.2,420.0 L298.1,420.0 L300.0,420.0 L302.0,420.0 L303.9,420.0 L305.9,420.0 L307.8,420.0 L309.7,420.0 L311.7,420.0 L313.6,420.0 L315.6,420.0 L317.5,420.0 L319.5,420.0 L321.4,420.0 L323.3,420.0 L325.3,420.0 L327.2,420.0 L329.2,420.0 L331.1,420.0 L333.0,420.0 L335.0,420.0 L336.9,420.0 L338.9,420.0 L340.8,420.0 L342.7,420.0 L344.7,420.0 L346.6,420.0 L348.6,420.0 L350.5,420.0 L352.4,420.0 L354.4,420.0 L356.3,420.0 L358.3,420.0 L360.2,420.0 L362.1,420.0 L364.1,420.0 L366.0,420.0 L368.0,420.0 L369.9,420.0 L371.8,420.0 L373.8,420.0 L375.7,420.0 L377.7,420.0 L379.6,420.0 L381.5,420.0 L383.5,420.0 L385.4,420.0 L387.4,420.0 L389.3,420.0 L391.2,420.0 L393.2,420.0 L395.1,420.0 L397.1,420.0 L399.0,420.0 L400.9,420.0 L402.9,420.0 L404.8,420.0 L406.8,420.0 L408.7,420.0 L410.6,420.0 L412.6,420.0 L414.5,420.0 L416.5,420.0 L418.1,420.0 L420.0,420.0 L422.0,420.0 L423.9,420.0 L425.8,420.0 L427.8,420.0 L429.7,420.0 L431.7,420.0 L433.6,420.0 L435.5,420.0 L437.5,420.0 L439.4,420.0 L441.4,420.0 L443.3,420.0 L445.2,420.0 L447.2,420.0 L449.1,420.0 L451.1,420.0 L453.0,420.0 L454.9,420.0 L456.9,420.0 L458.8,420.0 L460.8,420.0 L462.7,420.0 L464.6,420.0 L466.6,420.0 L468.5,420.0 L470.5,420.0 L472.4,420.0 L474.3,420.0 L476.3,420.0 L478.2,420.0 L480.2,420.0 L482.1,420.0 L484.0,420.0 L486.0,420.0 L487.9,420.0 L489.9,420.0 L491.8,420.0 L493.7,420.0 L495.7,420.0 L497.6,420.0 L499.6,420.0 L501.5,420.0 L503.4,420.0 L505.4,420.0 L507.3,420.0 L509.3,420.0 L511.2,420.0 L513.1,420.0 L515.1,420.0 L517.0,420.0 L519.0,420.0 L520.9,420.0 L522.8,420.0 L524.8,420.0 L526.7,420.0 L528.7,420.0 L530.6,420.0 L532.5,420.0 L534.5,420.0 L536.4,420.0 L538.4,420.0 L540.3,420.0 L542.2,420.0 L544.2,420.0 L546.1,420.0 L548.1,420.0 L550.0,420.0 L551.9,420.0 L553.9,420.0 L555.8,420.0 L557.8,420.0 L559.7,420.0 L561.6,420.0 L563.6,420.0 L565.5,420.0 L567.5,420.0 L569.4,420.0 L571.4,420.0 L573.3,420.0 L575.2,420.0 L577.2,420.0 L579.1,420.0 L581.1,420.0 L583.0,420.0 L584.9,420.0 L586.9,420.0 L588.8,420.0 L590.8,420.0 L592.7,420.0 L594.6,420.0 L596.6,420.0 L598.5,420.0 L600.5,420.0 L602.4,420.0 L604.3,420.0 L606.3,420.0 L608.2,420.0 L610.2,420.0 L612.1,420.0 L614.0,420.0 L616.0,420.0 L617.9,420.0 L619.9,420.0 L621.8,420.0 L623.7,420.0 L625.7,420.0 L627.6,420.0 L629.6,420.0 L631.5,420.0 L633.4,420.0 L635.4,420.0 L637.3,420.0 L639.3,420.0 L641.2,420.0 L643.1,420.0 L645.1,420.0 L647.0,420.0 L649.0,420.0 L650.9,420.0 L652.8,420.0 L654.8,420.0 L656.7,420.0 L658.7,420.0 L660.6,420.0 L662.5,420.0 L664.5,420.0 L666.4,420.0 L668.4,420.0 L670.3,420.0 L672.2,420.0 L674.2,420.0 L676.1,420.0 L678.1,420.0 L680.0,420.0" stroke="#e377c2" stroke-width="2" fill="none" opacity="0.8"/>

<!-- Legend -->
<line x1="690" y1="70" x2="705" y2="70" stroke="#1f77b4" stroke-width="3"/>
<text x="710" y="74" class="legend">Wind Generation</text>
<line x1="690" y1="88" x2="705" y2="88" stroke="#ff7f0e" stroke-width="3"/>
<text x="710" y="92" class="legend">Hydro Generation</text>
<line x1="690" y1="106" x2="705" y2="106" stroke="#2ca02c" stroke-width="3"/>
<text x="710" y="110" class="legend">Thermal Generation</text>
<line x1="690" y1="124" x2="705" y2="124" stroke="#d62728" stroke-width="3"/>
<text x="710" y="128" class="legend">Solar Generation</text>
<line x1="690" y1="142" x2="705" y2="142" stroke="#9467bd" stroke-width="3"/>
<text x="710" y="146" class="legend">Forecast</text>
<line x1="690" y1="160" x2="705" y2="160" stroke="#8c564b" stroke-width="3"/>
<text x="710" y="164" class="legend">Total Generation</text>
<line x1="690" y1="178" x2="705" y2="178" stroke="#e377c2" stroke-width="3"/>
<text x="710" y="182" class="legend">Forecast Difference</text>

<!-- Date range -->
<text x="80" y="495" class="legend">Range: 08/18 - 08/31/2025 (295 records)</text>
</svg>