<?xml version="1.0" encoding="UTF-8"?>
<svg width="800" height="500" xmlns="http://www.w3.org/2000/svg">
<style>
.axis-line { stroke: #333; stroke-width: 1; }
.grid-line { stroke: #ddd; stroke-width: 0.5; }
.title { font: 16px Arial; text-anchor: middle; fill: #333; }
.axis-label { font: 12px Arial; text-anchor: middle; fill: #666; }
.legend { font: 10px Arial; fill: #333; }
</style>

<!-- Title -->
<text x="400.0" y="25" class="title">Northwestern Energy Generation Data - Past 30 Days</text>

<!-- Plot area background -->
<rect x="80" y="50" width="600" height="370" fill="white" stroke="#ddd"/>

<!-- Y-axis -->
<line x1="80" y1="50" x2="80" y2="420" class="axis-line"/>
<text x="30" y="235.0" class="axis-label" transform="rotate(-90, 30, 235.0)">Generation (MW)</text>

<!-- X-axis -->
<line x1="80" y1="420" x2="680" y2="420" class="axis-line"/>
<text x="380.0" y="480" class="axis-label">Time</text>
<line x1="80" y1="420.0" x2="680" y2="420.0" class="grid-line"/>
<text x="70" y="425.0" class="legend" text-anchor="end">0</text>
<line x1="80" y1="327.5" x2="680" y2="327.5" class="grid-line"/>
<text x="70" y="332.5" class="legend" text-anchor="end">302</text>
<line x1="80" y1="235.0" x2="680" y2="235.0" class="grid-line"/>
<text x="70" y="240.0" class="legend" text-anchor="end">604</text>
<line x1="80" y1="142.5" x2="680" y2="142.5" class="grid-line"/>
<text x="70" y="147.5" class="legend" text-anchor="end">906</text>
<line x1="80" y1="50.0" x2="680" y2="50.0" class="grid-line"/>
<text x="70" y="55.0" class="legend" text-anchor="end">1209</text>
<!-- Wind Generation -->
<path d="M80.0,394.3 L80.8,399.8 L81.7,392.4 L82.5,399.5 L83.4,407.8 L84.2,407.4 L85.0,383.9 L85.9,374.1 L86.7,382.3 L87.6,382.0 L88.4,395.5 L89.3,393.4 L90.1,392.1 L90.9,397.7 L91.8,398.3 L92.6,408.4 L93.5,413.3 L94.3,416.3 L95.1,412.3 L96.0,408.4 L96.8,407.4 L97.7,405.6 L98.5,400.7 L99.4,390.3 L100.2,377.1 L101.0,373.2 L101.9,375.6 L102.7,380.8 L103.6,385.4 L104.4,383.6 L105.2,392.8 L106.1,396.7 L106.9,399.5 L107.8,399.5 L108.6,401.9 L109.5,402.9 L110.3,401.3 L111.1,398.9 L112.0,395.5 L112.8,403.5 L113.7,408.7 L114.5,406.5 L115.3,407.4 L116.2,391.5 L117.0,397.7 L117.9,393.4 L118.7,389.1 L119.6,387.5 L120.4,355.1 L121.2,360.3 L122.1,349.9 L122.9,370.7 L123.8,379.9 L124.6,387.5 L125.4,397.0 L126.3,403.8 L127.1,407.1 L128.0,403.8 L128.8,390.3 L129.6,398.6 L130.5,392.8 L131.3,391.8 L132.2,395.5 L133.0,398.9 L133.9,398.6 L134.7,393.4 L135.5,403.2 L136.4,388.8 L137.2,416.9 L138.1,415.7 L138.9,416.9 L139.7,416.9 L140.6,416.0 L141.4,413.0 L142.3,413.3 L143.1,415.7 L144.0,416.9 L144.8,413.9 L145.6,408.7 L146.5,397.3 L147.3,380.2 L148.2,389.1 L149.0,378.4 L149.8,368.3 L150.7,370.7 L151.5,360.6 L152.4,356.6 L153.2,378.7 L154.1,366.1 L154.9,377.4 L155.7,392.4 L156.6,392.8 L157.4,385.4 L158.3,353.6 L159.1,326.9 L159.9,345.3 L160.8,353.9 L161.6,382.0 L162.5,382.3 L163.3,377.8 L164.2,395.8 L165.0,387.9 L165.8,389.1 L166.7,382.6 L167.5,372.9 L168.4,370.1 L169.2,360.3 L170.0,346.5 L170.9,341.6 L171.7,335.8 L172.6,348.1 L173.4,358.8 L174.2,380.2 L175.1,374.7 L175.9,360.3 L176.8,377.4 L177.6,386.0 L178.5,395.8 L179.3,408.4 L180.1,408.4 L181.0,406.8 L181.8,404.1 L182.7,399.8 L183.5,398.3 L184.3,385.4 L185.2,377.8 L186.0,372.9 L186.9,371.3 L187.7,349.9 L188.6,345.6 L189.4,353.0 L190.2,358.2 L191.1,347.1 L191.9,358.2 L192.8,363.7 L193.6,378.1 L194.4,401.3 L195.3,403.5 L196.1,407.4 L197.0,416.3 L197.8,415.4 L198.7,412.0 L199.5,408.4 L200.3,403.5 L201.2,390.0 L202.0,384.5 L202.9,381.4 L203.7,391.2 L204.5,379.3 L205.4,372.2 L206.2,377.4 L207.1,371.9 L207.9,368.6 L208.8,369.5 L209.6,361.2 L210.4,365.8 L211.3,367.3 L212.1,348.4 L213.0,364.3 L213.8,355.4 L214.6,372.5 L215.5,387.5 L216.3,380.8 L217.2,360.6 L218.0,341.9 L218.8,318.1 L219.7,318.4 L220.5,327.2 L221.4,342.5 L222.2,336.7 L223.1,352.3 L223.9,379.3 L224.7,395.5 L225.6,406.2 L226.4,367.6 L227.3,370.1 L228.1,383.6 L228.9,387.2 L229.8,386.6 L230.6,372.9 L231.5,387.2 L232.3,384.2 L233.2,389.7 L234.0,399.8 L234.8,391.2 L235.7,390.3 L236.5,400.7 L237.4,399.2 L238.2,397.0 L239.0,379.3 L239.9,389.7 L240.7,390.0 L241.6,400.1 L242.4,401.9 L243.3,404.1 L244.1,411.7 L244.9,412.7 L245.8,406.2 L246.6,394.6 L247.5,391.5 L248.3,381.4 L249.1,370.7 L250.0,368.6 L250.8,365.5 L251.7,363.7 L252.5,371.6 L253.4,361.5 L254.2,367.6 L255.0,368.6 L255.9,358.2 L256.7,326.0 L257.6,368.0 L258.4,384.2 L259.2,366.1 L260.1,387.5 L260.9,358.8 L261.8,365.5 L262.6,372.2 L263.5,387.2 L264.3,390.0 L265.1,399.5 L266.0,388.8 L266.8,403.2 L267.7,405.6 L268.5,397.0 L269.3,395.5 L270.2,397.3 L271.0,399.8 L271.9,412.0 L272.7,416.6 L273.5,416.9 L274.4,417.9 L275.2,417.6 L276.1,416.3 L276.9,416.6 L277.8,415.4 L278.6,413.9 L279.4,414.5 L280.3,416.9 L281.1,415.7 L282.0,412.3 L282.8,409.0 L283.6,406.8 L284.5,405.6 L285.3,411.4 L286.2,408.4 L287.0,409.0 L287.9,406.8 L288.7,403.8 L289.5,407.4 L290.4,407.4 L291.2,397.0 L292.1,389.7 L292.9,379.6 L293.7,394.6 L294.6,412.3 L295.4,411.1 L296.3,410.8 L297.1,411.7 L298.0,415.1 L298.8,411.4 L299.6,406.8 L300.5,399.2 L301.3,383.0 L302.2,371.0 L303.0,361.2 L303.8,348.1 L304.7,377.1 L305.5,369.8 L306.4,373.5 L307.2,367.6 L308.1,365.5 L308.9,364.3 L309.7,359.4 L310.6,353.0 L311.4,332.7 L312.3,333.1 L313.1,339.5 L313.9,345.9 L314.8,355.1 L315.6,358.8 L316.5,365.2 L317.3,368.9 L318.1,384.8 L319.0,396.4 L319.8,405.9 L320.7,410.5 L321.5,409.3 L322.4,409.9 L323.2,411.1 L324.0,411.7 L324.9,413.3 L325.7,412.0 L326.6,403.8 L327.4,398.6 L328.2,400.1 L329.1,404.1 L329.9,405.3 L330.8,409.6 L331.6,410.2 L332.5,409.3 L333.3,407.4 L334.1,398.3 L335.0,386.9 L335.8,374.7 L336.7,380.2 L337.5,397.0 L338.3,408.4 L339.2,413.3 L340.0,415.4 L340.9,416.6 L341.7,418.5 L342.6,413.9 L343.4,406.5 L344.2,413.0 L345.1,413.6 L345.9,409.0 L346.8,386.6 L347.6,381.7 L348.4,385.7 L349.3,372.5 L350.1,379.3 L351.0,354.8 L351.8,343.8 L352.7,363.7 L353.5,389.4 L354.3,371.9 L355.2,335.8 L356.0,322.3 L356.9,353.6 L357.7,323.3 L358.5,337.6 L359.4,340.7 L360.2,317.7 L361.1,330.6 L361.9,326.9 L362.7,348.1 L363.6,344.1 L364.4,348.4 L365.3,359.1 L366.1,364.3 L367.0,377.4 L367.8,373.5 L368.6,348.1 L369.5,365.5 L370.3,357.5 L371.2,329.1 L372.0,359.1 L372.8,359.1 L373.7,322.9 L374.5,314.7 L375.4,313.5 L376.2,321.1 L377.1,341.9 L377.9,328.5 L378.7,325.1 L379.6,322.9 L380.4,315.3 L381.3,312.5 L382.1,314.4 L382.9,348.4 L383.8,322.3 L384.6,314.4 L385.5,321.7 L386.3,339.8 L387.2,318.7 L388.0,318.7 L388.8,317.1 L389.7,338.9 L390.5,352.0 L391.4,332.1 L392.2,329.1 L393.0,346.2 L393.9,356.6 L394.7,357.2 L395.6,365.8 L396.4,370.7 L397.3,374.4 L398.1,396.1 L398.9,398.9 L399.8,400.4 L400.6,392.4 L401.5,396.4 L402.3,404.1 L403.1,407.8 L404.0,398.0 L404.8,398.3 L405.7,403.2 L406.5,398.0 L407.3,395.8 L408.2,400.1 L409.0,398.3 L409.9,405.9 L410.7,408.1 L411.6,413.0 L412.4,411.1 L413.2,382.3 L414.1,372.2 L414.9,349.0 L415.8,349.6 L416.6,368.6 L417.4,364.9 L418.3,382.0 L419.1,373.8 L420.0,351.1 L420.8,362.4 L421.7,367.3 L422.5,367.6 L423.3,380.2 L424.2,389.7 L425.0,369.2 L425.9,383.0 L426.7,377.4 L427.5,376.2 L428.4,375.6 L429.2,344.4 L430.1,335.5 L430.9,333.7 L431.8,332.1 L432.6,355.4 L433.4,353.3 L434.3,357.9 L435.1,332.1 L436.0,342.8 L436.8,363.4 L437.6,365.5 L438.5,366.1 L439.3,382.0 L440.2,370.7 L441.0,376.2 L441.9,374.7 L442.7,379.9 L443.5,371.3 L444.4,377.4 L445.2,376.5 L446.1,362.1 L446.9,364.6 L447.7,374.7 L448.6,380.8 L449.4,390.3 L450.3,375.3 L451.1,389.7 L451.9,405.6 L452.8,405.0 L453.6,397.0 L454.5,395.5 L455.3,401.9 L456.2,404.4 L457.0,413.6 L457.8,407.8 L458.7,403.8 L459.5,398.6 L460.4,406.2 L461.2,412.3 L462.0,414.2 L462.9,416.0 L463.7,415.1 L464.6,411.1 L465.4,409.3 L466.3,412.0 L467.1,401.9 L467.9,389.1 L468.8,376.5 L469.6,365.5 L470.5,357.5 L471.3,358.8 L472.1,353.3 L473.0,374.1 L473.8,370.4 L474.7,369.5 L475.5,371.6 L476.4,372.9 L477.2,381.7 L478.0,396.4 L478.9,395.5 L479.7,392.8 L480.6,377.1 L481.4,370.7 L482.2,357.2 L483.1,360.6 L483.9,371.0 L484.8,364.3 L485.6,379.3 L486.5,391.2 L487.3,390.6 L488.1,367.0 L489.0,352.6 L489.8,369.8 L490.7,363.4 L491.5,371.9 L492.3,369.5 L493.2,386.0 L494.0,374.7 L494.9,374.1 L495.7,378.7 L496.5,390.0 L497.4,398.3 L498.2,401.0 L499.1,401.3 L499.9,405.6 L500.8,398.0 L501.6,402.2 L502.4,388.5 L503.3,375.9 L504.1,366.1 L505.0,374.7 L505.8,371.9 L506.6,373.8 L507.5,372.5 L508.3,386.9 L509.2,390.3 L510.0,391.5 L510.9,390.6 L511.7,399.2 L512.5,387.2 L513.4,392.1 L514.2,404.4 L515.1,394.3 L515.9,383.3 L516.7,390.3 L517.6,405.0 L518.4,399.8 L519.3,388.2 L520.1,393.7 L521.0,398.3 L521.8,405.3 L522.6,398.0 L523.5,392.1 L524.3,393.7 L525.2,397.3 L526.0,401.0 L526.8,403.8 L527.7,412.0 L528.5,412.3 L529.4,414.5 L530.2,416.9 L531.1,416.0 L531.9,415.7 L532.7,414.8 L533.6,409.0 L534.4,408.7 L535.3,406.5 L536.1,409.9 L536.9,414.8 L537.8,417.2 L538.6,409.3 L539.5,409.6 L540.3,413.9 L541.2,416.6 L542.0,417.9 L542.8,413.9 L543.7,410.2 L544.5,409.9 L545.4,408.4 L546.2,411.4 L547.0,413.6 L547.9,413.3 L548.7,395.8 L549.6,376.2 L550.4,379.9 L551.2,361.8 L552.1,362.7 L552.9,368.3 L553.8,375.6 L554.6,372.2 L555.5,378.1 L556.3,386.9 L557.1,402.2 L558.0,402.9 L558.8,406.2 L559.7,410.2 L560.5,413.6 L561.3,415.4 L562.2,410.8 L563.0,401.9 L563.9,392.1 L564.7,392.1 L565.6,377.4 L566.4,367.0 L567.2,379.3 L568.1,368.3 L568.9,354.5 L569.8,359.4 L570.6,343.2 L571.4,334.9 L572.3,353.6 L573.1,352.3 L574.0,352.6 L574.8,352.3 L575.7,365.2 L576.5,377.8 L577.3,382.3 L578.2,379.0 L579.0,383.3 L579.9,400.4 L580.7,403.2 L581.5,407.8 L582.4,407.8 L583.2,406.8 L584.1,406.8 L584.9,409.0 L585.8,411.7 L586.6,412.7 L587.4,414.2 L588.3,415.7 L589.1,416.9 L590.0,416.0 L590.8,413.6 L591.6,413.9 L592.5,409.9 L593.3,416.6 L594.2,412.0 L595.0,416.3 L595.8,405.6 L596.7,404.7 L597.5,390.3 L598.4,376.2 L599.2,408.4 L600.1,409.6 L600.9,407.4 L601.7,415.7 L602.6,417.9 L603.4,417.2 L604.3,416.6 L605.1,413.6 L605.9,413.0 L606.8,413.6 L607.6,416.3 L608.5,415.4 L609.3,413.9 L610.2,412.3 L611.0,406.5 L611.8,389.1 L612.7,389.4 L613.5,354.8 L614.4,336.4 L615.2,324.2 L616.0,315.3 L616.9,325.4 L617.7,333.7 L618.6,337.6 L619.4,362.7 L620.3,371.0 L621.1,387.9 L621.9,397.3 L622.8,390.3 L623.6,384.8 L624.5,398.3 L625.3,396.7 L626.1,391.8 L627.0,379.3 L627.8,385.4 L628.7,394.0 L629.5,400.1 L630.4,405.9 L631.2,404.7 L632.0,405.9 L632.9,387.2 L633.7,388.5 L634.6,400.7 L635.4,403.2 L636.2,401.0 L637.1,387.9 L637.9,390.0 L638.8,381.4 L639.6,385.7 L640.4,384.5 L641.3,383.6 L642.1,389.1 L643.0,395.5 L643.8,368.9 L644.7,376.8 L645.5,394.9 L646.3,417.9 L647.2,405.9 L648.0,403.8 L648.9,411.1 L649.7,416.6 L650.5,420.0 L651.4,417.9 L652.2,410.8 L653.1,408.7 L653.9,404.4 L654.8,405.6 L655.6,401.3 L656.4,394.9 L657.3,388.8 L658.1,400.4 L659.0,371.6 L659.8,380.5 L660.6,402.2 L661.5,372.9 L662.3,395.5 L663.2,403.2 L664.0,377.8 L664.9,372.5 L665.7,369.2 L666.5,388.2 L667.4,388.5 L668.2,395.8 L669.1,410.8 L669.9,419.4 L670.7,419.4 L671.6,419.1 L672.4,417.9 L673.3,418.5 L674.1,409.9 L675.0,399.5 L675.8,384.5 L676.6,394.3 L677.5,358.8 L678.3,366.4 L679.2,340.4 L680.0,356.6" stroke="#1f77b4" stroke-width="2" fill="none" opacity="0.8"/>
<!-- Hydro Generation -->
<path d="M80.0,334.9 L80.8,334.9 L81.7,335.5 L82.5,335.5 L83.4,335.5 L84.2,337.3 L85.0,346.5 L85.9,346.5 L86.7,334.9 L87.6,335.5 L88.4,336.7 L89.3,335.5 L90.1,335.5 L90.9,335.2 L91.8,335.2 L92.6,334.9 L93.5,334.9 L94.3,334.9 L95.1,334.9 L96.0,334.6 L96.8,334.9 L97.7,334.9 L98.5,336.4 L99.4,347.1 L100.2,334.9 L101.0,335.2 L101.9,333.7 L102.7,333.4 L103.6,333.4 L104.4,333.4 L105.2,333.4 L106.1,333.1 L106.9,333.7 L107.8,334.0 L108.6,335.2 L109.5,334.9 L110.3,335.2 L111.1,336.1 L112.0,336.1 L112.8,337.0 L113.7,337.0 L114.5,338.0 L115.3,338.0 L116.2,338.0 L117.0,338.0 L117.9,338.0 L118.7,338.0 L119.6,338.3 L120.4,338.0 L121.2,338.0 L122.1,338.0 L122.9,338.0 L123.8,338.0 L124.6,338.3 L125.4,338.3 L126.3,338.3 L127.1,338.3 L128.0,338.0 L128.8,338.3 L129.6,338.0 L130.5,338.0 L131.3,338.0 L132.2,337.0 L133.0,335.8 L133.9,335.8 L134.7,335.8 L135.5,334.9 L136.4,334.9 L137.2,334.9 L138.1,335.2 L138.9,335.2 L139.7,334.9 L140.6,335.8 L141.4,335.8 L142.3,336.7 L143.1,336.7 L144.0,336.4 L144.8,336.1 L145.6,336.1 L146.5,336.1 L147.3,333.1 L148.2,336.1 L149.0,336.1 L149.8,336.4 L150.7,336.4 L151.5,336.1 L152.4,336.1 L153.2,336.4 L154.1,336.7 L154.9,335.8 L155.7,335.8 L156.6,335.8 L157.4,335.8 L158.3,335.8 L159.1,335.8 L159.9,335.8 L160.8,337.0 L161.6,337.0 L162.5,337.0 L163.3,337.0 L164.2,337.0 L165.0,337.0 L165.8,337.0 L166.7,337.0 L167.5,337.0 L168.4,337.3 L169.2,337.0 L170.0,336.7 L170.9,337.3 L171.7,337.0 L172.6,337.0 L173.4,337.0 L174.2,337.0 L175.1,337.0 L175.9,337.6 L176.8,337.6 L177.6,338.0 L178.5,337.6 L179.3,337.6 L180.1,337.6 L181.0,337.3 L181.8,338.0 L182.7,337.3 L183.5,337.3 L184.3,338.3 L185.2,337.6 L186.0,338.0 L186.9,338.0 L187.7,338.3 L188.6,338.0 L189.4,337.6 L190.2,337.3 L191.1,337.3 L191.9,337.6 L192.8,337.6 L193.6,337.6 L194.4,337.6 L195.3,337.6 L196.1,337.6 L197.0,337.6 L197.8,337.6 L198.7,337.6 L199.5,337.6 L200.3,337.3 L201.2,337.3 L202.0,337.0 L202.9,337.0 L203.7,337.3 L204.5,337.3 L205.4,337.3 L206.2,337.0 L207.1,337.0 L207.9,337.0 L208.8,337.3 L209.6,337.3 L210.4,335.8 L211.3,336.1 L212.1,335.2 L213.0,335.2 L213.8,336.4 L214.6,336.4 L215.5,334.9 L216.3,334.3 L217.2,334.6 L218.0,334.6 L218.8,334.6 L219.7,334.9 L220.5,334.9 L221.4,335.5 L222.2,335.8 L223.1,335.8 L223.9,334.6 L224.7,334.6 L225.6,334.3 L226.4,332.7 L227.3,334.3 L228.1,332.4 L228.9,332.7 L229.8,332.4 L230.6,333.4 L231.5,333.1 L232.3,334.0 L233.2,333.4 L234.0,333.7 L234.8,333.7 L235.7,333.7 L236.5,333.7 L237.4,334.0 L238.2,333.7 L239.0,334.0 L239.9,333.4 L240.7,333.4 L241.6,333.1 L242.4,333.4 L243.3,333.4 L244.1,333.4 L244.9,333.4 L245.8,332.7 L246.6,334.0 L247.5,334.0 L248.3,334.0 L249.1,334.0 L250.0,334.0 L250.8,334.3 L251.7,334.3 L252.5,334.0 L253.4,334.0 L254.2,335.5 L255.0,335.5 L255.9,335.5 L256.7,333.7 L257.6,333.7 L258.4,333.7 L259.2,333.7 L260.1,333.7 L260.9,333.1 L261.8,333.1 L262.6,333.1 L263.5,334.3 L264.3,334.6 L265.1,332.7 L266.0,332.7 L266.8,333.4 L267.7,333.4 L268.5,333.7 L269.3,333.4 L270.2,333.7 L271.0,335.8 L271.9,336.1 L272.7,334.3 L273.5,334.6 L274.4,334.6 L275.2,334.6 L276.1,334.0 L276.9,334.0 L277.8,333.4 L278.6,333.1 L279.4,333.4 L280.3,333.4 L281.1,334.3 L282.0,334.3 L282.8,334.6 L283.6,334.3 L284.5,334.6 L285.3,334.3 L286.2,334.6 L287.0,334.6 L287.9,334.6 L288.7,334.3 L289.5,334.3 L290.4,334.3 L291.2,334.3 L292.1,334.6 L292.9,334.9 L293.7,333.7 L294.6,333.7 L295.4,334.0 L296.3,333.7 L297.1,333.7 L298.0,332.7 L298.8,332.4 L299.6,332.4 L300.5,332.7 L301.3,332.7 L302.2,332.7 L303.0,332.7 L303.8,332.4 L304.7,332.4 L305.5,336.4 L306.4,336.1 L307.2,335.2 L308.1,335.5 L308.9,336.4 L309.7,337.0 L310.6,336.4 L311.4,336.7 L312.3,337.3 L313.1,336.4 L313.9,336.7 L314.8,336.7 L315.6,337.0 L316.5,336.7 L317.3,336.7 L318.1,336.7 L319.0,335.5 L319.8,336.1 L320.7,336.4 L321.5,335.2 L322.4,335.2 L323.2,335.5 L324.0,335.5 L324.9,335.5 L325.7,335.2 L326.6,334.9 L327.4,336.1 L328.2,336.4 L329.1,336.7 L329.9,336.7 L330.8,337.0 L331.6,337.0 L332.5,337.3 L333.3,337.3 L334.1,336.7 L335.0,337.0 L335.8,336.7 L336.7,336.7 L337.5,336.7 L338.3,336.7 L339.2,337.0 L340.0,337.0 L340.9,337.0 L341.7,336.7 L342.6,336.7 L343.4,336.4 L344.2,336.7 L345.1,336.7 L345.9,337.3 L346.8,336.7 L347.6,336.7 L348.4,336.4 L349.3,336.7 L350.1,336.4 L351.0,336.7 L351.8,332.1 L352.7,331.5 L353.5,331.2 L354.3,330.6 L355.2,330.6 L356.0,330.9 L356.9,330.6 L357.7,329.7 L358.5,328.5 L359.4,326.9 L360.2,324.5 L361.1,322.0 L361.9,321.7 L362.7,320.5 L363.6,321.7 L364.4,322.0 L365.3,322.3 L366.1,323.9 L367.0,323.6 L367.8,323.9 L368.6,323.9 L369.5,323.6 L370.3,323.3 L371.2,322.9 L372.0,322.3 L372.8,322.0 L373.7,322.3 L374.5,322.6 L375.4,322.0 L376.2,322.0 L377.1,322.9 L377.9,322.3 L378.7,323.3 L379.6,323.3 L380.4,322.9 L381.3,322.9 L382.1,321.7 L382.9,321.1 L383.8,319.0 L384.6,318.4 L385.5,316.8 L386.3,315.6 L387.2,314.1 L388.0,312.8 L388.8,312.8 L389.7,312.5 L390.5,312.5 L391.4,312.8 L392.2,312.2 L393.0,311.9 L393.9,311.9 L394.7,312.2 L395.6,311.9 L396.4,312.2 L397.3,312.2 L398.1,312.5 L398.9,311.9 L399.8,312.2 L400.6,312.2 L401.5,312.2 L402.3,312.2 L403.1,312.2 L404.0,312.5 L404.8,312.2 L405.7,312.2 L406.5,311.6 L407.3,312.8 L408.2,312.5 L409.0,313.8 L409.9,314.4 L410.7,314.4 L411.6,314.4 L412.4,315.0 L413.2,316.8 L414.1,317.7 L414.9,318.4 L415.8,320.2 L416.6,321.1 L417.4,322.0 L418.3,322.9 L419.1,323.9 L420.0,323.9 L420.8,323.9 L421.7,323.9 L422.5,323.3 L423.3,322.6 L424.2,322.9 L425.0,322.9 L425.9,323.3 L426.7,322.9 L427.5,323.3 L428.4,324.5 L429.2,324.5 L430.1,325.7 L430.9,326.0 L431.8,326.3 L432.6,325.7 L433.4,326.9 L434.3,327.8 L435.1,327.2 L436.0,326.3 L436.8,326.9 L437.6,326.6 L438.5,327.2 L439.3,328.5 L440.2,328.2 L441.0,329.1 L441.9,328.8 L442.7,329.1 L443.5,329.4 L444.4,329.4 L445.2,329.7 L446.1,329.4 L446.9,326.3 L447.7,326.3 L448.6,323.6 L449.4,322.3 L450.3,322.0 L451.1,321.7 L451.9,322.0 L452.8,321.7 L453.6,321.7 L454.5,321.7 L455.3,321.7 L456.2,320.8 L457.0,320.8 L457.8,319.6 L458.7,319.6 L459.5,319.6 L460.4,319.6 L461.2,319.6 L462.0,319.9 L462.9,320.2 L463.7,320.2 L464.6,320.2 L465.4,320.2 L466.3,320.2 L467.1,320.5 L467.9,320.2 L468.8,319.3 L469.6,319.6 L470.5,319.9 L471.3,319.6 L472.1,319.6 L473.0,319.3 L473.8,319.3 L474.7,319.6 L475.5,319.9 L476.4,320.2 L477.2,320.5 L478.0,321.1 L478.9,322.6 L479.7,322.3 L480.6,322.3 L481.4,322.3 L482.2,323.6 L483.1,323.3 L483.9,324.8 L484.8,324.8 L485.6,325.1 L486.5,324.8 L487.3,324.8 L488.1,324.5 L489.0,324.8 L489.8,324.8 L490.7,324.5 L491.5,324.2 L492.3,324.5 L493.2,324.5 L494.0,324.5 L494.9,324.5 L495.7,324.5 L496.5,324.8 L497.4,324.5 L498.2,324.8 L499.1,324.5 L499.9,324.8 L500.8,324.8 L501.6,324.5 L502.4,325.4 L503.3,325.7 L504.1,326.3 L505.0,326.3 L505.8,327.5 L506.6,327.5 L507.5,326.6 L508.3,326.6 L509.2,326.9 L510.0,326.6 L510.9,326.9 L511.7,326.6 L512.5,328.2 L513.4,326.9 L514.2,326.6 L515.1,326.3 L515.9,326.0 L516.7,326.6 L517.6,326.6 L518.4,326.0 L519.3,325.4 L520.1,325.7 L521.0,326.0 L521.8,325.4 L522.6,325.7 L523.5,326.6 L524.3,326.6 L525.2,327.2 L526.0,327.2 L526.8,327.2 L527.7,327.2 L528.5,327.2 L529.4,325.4 L530.2,325.7 L531.1,326.0 L531.9,325.7 L532.7,325.7 L533.6,325.4 L534.4,325.4 L535.3,324.8 L536.1,325.1 L536.9,324.2 L537.8,324.8 L538.6,324.8 L539.5,326.0 L540.3,326.0 L541.2,325.7 L542.0,325.7 L542.8,326.6 L543.7,326.9 L544.5,326.9 L545.4,327.8 L546.2,328.5 L547.0,328.2 L547.9,327.8 L548.7,327.8 L549.6,327.5 L550.4,327.2 L551.2,327.8 L552.1,328.5 L552.9,329.1 L553.8,328.5 L554.6,328.2 L555.5,328.2 L556.3,328.8 L557.1,328.5 L558.0,328.2 L558.8,328.2 L559.7,328.2 L560.5,328.2 L561.3,328.2 L562.2,328.2 L563.0,328.2 L563.9,327.8 L564.7,328.2 L565.6,328.2 L566.4,328.5 L567.2,327.8 L568.1,328.2 L568.9,328.5 L569.8,328.5 L570.6,328.8 L571.4,328.5 L572.3,329.7 L573.1,330.0 L574.0,329.7 L574.8,330.6 L575.7,330.6 L576.5,329.7 L577.3,329.4 L578.2,329.7 L579.0,330.0 L579.9,329.7 L580.7,329.7 L581.5,330.0 L582.4,331.5 L583.2,331.2 L584.1,332.7 L584.9,332.4 L585.8,332.4 L586.6,332.7 L587.4,333.4 L588.3,332.4 L589.1,332.7 L590.0,332.4 L590.8,333.7 L591.6,332.4 L592.5,332.7 L593.3,332.7 L594.2,332.1 L595.0,332.1 L595.8,331.8 L596.7,331.5 L597.5,331.5 L598.4,330.6 L599.2,331.2 L600.1,330.9 L600.9,330.6 L601.7,330.6 L602.6,330.0 L603.4,330.0 L604.3,330.3 L605.1,330.0 L605.9,330.0 L606.8,330.3 L607.6,330.9 L608.5,331.2 L609.3,331.5 L610.2,331.5 L611.0,330.0 L611.8,330.3 L612.7,330.0 L613.5,330.0 L614.4,330.0 L615.2,311.9 L616.0,328.5 L616.9,328.8 L617.7,329.7 L618.6,329.7 L619.4,330.9 L620.3,330.9 L621.1,330.6 L621.9,330.6 L622.8,330.6 L623.6,330.6 L624.5,332.7 L625.3,332.7 L626.1,332.7 L627.0,332.7 L627.8,333.1 L628.7,334.6 L629.5,334.6 L630.4,335.8 L631.2,332.7 L632.0,330.3 L632.9,330.0 L633.7,330.0 L634.6,329.7 L635.4,330.3 L636.2,329.4 L637.1,329.4 L637.9,329.1 L638.8,329.1 L639.6,328.8 L640.4,328.5 L641.3,328.5 L642.1,328.5 L643.0,328.2 L643.8,328.5 L644.7,327.8 L645.5,327.2 L646.3,327.2 L647.2,326.3 L648.0,326.6 L648.9,326.9 L649.7,325.7 L650.5,325.7 L651.4,325.7 L652.2,322.6 L653.1,322.6 L653.9,322.6 L654.8,320.5 L655.6,317.4 L656.4,317.4 L657.3,317.4 L658.1,317.4 L659.0,316.8 L659.8,316.8 L660.6,316.8 L661.5,316.8 L662.3,316.8 L663.2,316.8 L664.0,316.8 L664.9,316.2 L665.7,316.5 L666.5,315.6 L667.4,315.3 L668.2,315.0 L669.1,314.7 L669.9,313.5 L670.7,313.5 L671.6,313.5 L672.4,313.2 L673.3,312.5 L674.1,313.5 L675.0,313.8 L675.8,311.6 L676.6,312.2 L677.5,310.4 L678.3,309.8 L679.2,309.8 L680.0,308.9" stroke="#ff7f0e" stroke-width="2" fill="none" opacity="0.8"/>
<!-- Thermal Generation -->
<path d="M80.0,301.8 L80.8,283.2 L81.7,264.8 L82.5,265.1 L83.4,302.4 L84.2,322.0 L85.0,339.8 L85.9,341.6 L86.7,353.9 L87.6,354.2 L88.4,353.6 L89.3,353.9 L90.1,353.3 L90.9,354.2 L91.8,289.0 L92.6,246.4 L93.5,243.0 L94.3,231.1 L95.1,242.4 L96.0,272.7 L96.8,286.5 L97.7,287.7 L98.5,281.9 L99.4,300.6 L100.2,283.8 L101.0,283.2 L101.9,265.7 L102.7,296.0 L103.6,318.7 L104.4,354.5 L105.2,354.2 L106.1,354.2 L106.9,354.5 L107.8,354.2 L108.6,354.2 L109.5,319.9 L110.3,355.4 L111.1,354.5 L112.0,306.4 L112.8,242.1 L113.7,244.0 L114.5,239.4 L115.3,248.2 L116.2,272.1 L117.0,278.3 L117.9,277.6 L118.7,289.0 L119.6,290.2 L120.4,290.2 L121.2,315.6 L122.1,292.6 L122.9,343.2 L123.8,373.5 L124.6,372.9 L125.4,372.9 L126.3,372.9 L127.1,373.2 L128.0,372.5 L128.8,372.9 L129.6,372.9 L130.5,373.2 L131.3,372.9 L132.2,361.2 L133.0,302.4 L133.9,296.3 L134.7,289.9 L135.5,299.1 L136.4,290.2 L137.2,289.6 L138.1,294.2 L138.9,327.8 L139.7,334.3 L140.6,329.7 L141.4,324.2 L142.3,319.0 L143.1,355.4 L144.0,373.2 L144.8,370.1 L145.6,372.5 L146.5,373.2 L147.3,372.5 L148.2,373.5 L149.0,373.8 L149.8,373.8 L150.7,373.2 L151.5,373.8 L152.4,373.5 L153.2,315.0 L154.1,295.4 L154.9,287.1 L155.7,307.0 L156.6,315.9 L157.4,321.1 L158.3,330.0 L159.1,330.3 L159.9,372.5 L160.8,372.9 L161.6,372.9 L162.5,361.2 L163.3,360.9 L164.2,367.0 L165.0,373.2 L165.8,372.2 L166.7,372.9 L167.5,348.7 L168.4,346.5 L169.2,342.5 L170.0,371.6 L170.9,320.2 L171.7,372.5 L172.6,281.9 L173.4,327.8 L174.2,329.7 L175.1,335.8 L175.9,348.4 L176.8,354.2 L177.6,354.2 L178.5,355.4 L179.3,295.7 L180.1,326.9 L181.0,298.8 L181.8,306.4 L182.7,289.6 L183.5,313.5 L184.3,323.6 L185.2,335.5 L186.0,323.6 L186.9,322.9 L187.7,320.5 L188.6,321.7 L189.4,322.9 L190.2,319.9 L191.1,320.2 L191.9,331.5 L192.8,304.0 L193.6,284.7 L194.4,292.9 L195.3,279.2 L196.1,289.3 L197.0,290.8 L197.8,281.3 L198.7,280.7 L199.5,311.0 L200.3,313.8 L201.2,312.8 L202.0,315.9 L202.9,283.5 L203.7,303.4 L204.5,314.1 L205.4,320.8 L206.2,325.4 L207.1,354.2 L207.9,372.2 L208.8,372.2 L209.6,372.5 L210.4,372.5 L211.3,372.2 L212.1,372.2 L213.0,342.2 L213.8,315.9 L214.6,304.3 L215.5,336.4 L216.3,341.9 L217.2,353.6 L218.0,354.2 L218.8,354.5 L219.7,354.5 L220.5,354.8 L221.4,353.9 L222.2,354.2 L223.1,342.5 L223.9,354.2 L224.7,354.5 L225.6,354.5 L226.4,354.2 L227.3,353.9 L228.1,365.8 L228.9,366.4 L229.8,366.1 L230.6,366.4 L231.5,357.5 L232.3,330.3 L233.2,296.3 L234.0,290.2 L234.8,278.9 L235.7,278.6 L236.5,301.8 L237.4,293.9 L238.2,307.3 L239.0,363.7 L239.9,372.5 L240.7,372.5 L241.6,372.2 L242.4,353.9 L243.3,342.8 L244.1,373.5 L244.9,373.5 L245.8,373.8 L246.6,373.5 L247.5,373.8 L248.3,374.1 L249.1,373.8 L250.0,373.5 L250.8,372.9 L251.7,373.2 L252.5,372.5 L253.4,372.5 L254.2,371.9 L255.0,371.9 L255.9,348.1 L256.7,371.9 L257.6,371.9 L258.4,371.9 L259.2,371.6 L260.1,371.9 L260.9,372.2 L261.8,371.9 L262.6,372.2 L263.5,372.5 L264.3,373.5 L265.1,372.9 L266.0,353.6 L266.8,372.9 L267.7,372.5 L268.5,375.3 L269.3,372.9 L270.2,373.2 L271.0,360.3 L271.9,348.1 L272.7,336.1 L273.5,333.7 L274.4,291.7 L275.2,277.9 L276.1,277.6 L276.9,277.6 L277.8,282.8 L278.6,305.2 L279.4,284.1 L280.3,291.7 L281.1,291.7 L282.0,305.5 L282.8,309.2 L283.6,321.1 L284.5,330.3 L285.3,317.7 L286.2,348.4 L287.0,354.2 L287.9,353.9 L288.7,354.5 L289.5,354.2 L290.4,354.2 L291.2,354.2 L292.1,353.9 L292.9,354.2 L293.7,354.8 L294.6,327.5 L295.4,287.1 L296.3,260.8 L297.1,304.6 L298.0,329.7 L298.8,352.6 L299.6,353.9 L300.5,353.9 L301.3,354.2 L302.2,353.9 L303.0,353.3 L303.8,353.9 L304.7,354.2 L305.5,353.9 L306.4,354.5 L307.2,354.2 L308.1,353.6 L308.9,354.5 L309.7,354.2 L310.6,354.8 L311.4,354.5 L312.3,354.8 L313.1,342.2 L313.9,308.3 L314.8,226.5 L315.6,213.3 L316.5,219.8 L317.3,212.4 L318.1,240.3 L319.0,263.6 L319.8,230.8 L320.7,231.4 L321.5,248.9 L322.4,221.0 L323.2,230.2 L324.0,235.4 L324.9,242.1 L325.7,266.6 L326.6,266.3 L327.4,287.7 L328.2,314.4 L329.1,323.3 L329.9,323.6 L330.8,322.9 L331.6,247.3 L332.5,216.7 L333.3,223.8 L334.1,218.2 L335.0,220.7 L335.8,214.0 L336.7,213.7 L337.5,225.9 L338.3,245.5 L339.2,269.1 L340.0,353.9 L340.9,353.6 L341.7,353.6 L342.6,353.0 L343.4,353.0 L344.2,354.2 L345.1,353.9 L345.9,354.2 L346.8,349.9 L347.6,354.5 L348.4,354.8 L349.3,355.4 L350.1,356.0 L351.0,356.3 L351.8,357.5 L352.7,357.5 L353.5,357.9 L354.3,357.5 L355.2,356.3 L356.0,355.4 L356.9,355.4 L357.7,354.8 L358.5,355.1 L359.4,354.8 L360.2,354.8 L361.1,354.5 L361.9,355.1 L362.7,355.1 L363.6,354.8 L364.4,353.9 L365.3,354.8 L366.1,354.8 L367.0,354.5 L367.8,354.5 L368.6,355.4 L369.5,354.8 L370.3,354.5 L371.2,354.5 L372.0,354.5 L372.8,354.8 L373.7,354.5 L374.5,354.2 L375.4,354.2 L376.2,354.8 L377.1,355.1 L377.9,353.9 L378.7,353.9 L379.6,353.9 L380.4,354.5 L381.3,354.5 L382.1,353.6 L382.9,354.5 L383.8,354.5 L384.6,355.1 L385.5,356.6 L386.3,354.5 L387.2,354.5 L388.0,353.9 L388.8,353.9 L389.7,354.2 L390.5,353.9 L391.4,353.9 L392.2,353.6 L393.0,353.6 L393.9,353.9 L394.7,356.0 L395.6,356.3 L396.4,354.5 L397.3,355.7 L398.1,353.6 L398.9,352.6 L399.8,355.1 L400.6,354.8 L401.5,372.9 L402.3,372.5 L403.1,372.5 L404.0,372.2 L404.8,372.5 L405.7,372.9 L406.5,372.5 L407.3,372.5 L408.2,372.2 L409.0,372.9 L409.9,372.5 L410.7,372.5 L411.6,372.5 L412.4,372.5 L413.2,372.2 L414.1,372.9 L414.9,372.5 L415.8,372.5 L416.6,372.9 L417.4,372.5 L418.3,371.9 L419.1,371.6 L420.0,371.9 L420.8,372.2 L421.7,371.9 L422.5,372.2 L423.3,371.9 L424.2,371.9 L425.0,372.2 L425.9,372.5 L426.7,372.5 L427.5,372.9 L428.4,372.5 L429.2,372.2 L430.1,372.5 L430.9,372.5 L431.8,372.9 L432.6,372.5 L433.4,372.5 L434.3,372.5 L435.1,372.2 L436.0,372.9 L436.8,372.9 L437.6,371.9 L438.5,372.5 L439.3,372.2 L440.2,371.9 L441.0,371.9 L441.9,372.2 L442.7,372.2 L443.5,372.2 L444.4,372.2 L445.2,372.9 L446.1,372.5 L446.9,372.2 L447.7,372.2 L448.6,372.2 L449.4,372.2 L450.3,372.2 L451.1,372.2 L451.9,372.5 L452.8,372.2 L453.6,353.9 L454.5,353.6 L455.3,353.9 L456.2,313.5 L457.0,324.2 L457.8,331.5 L458.7,328.8 L459.5,300.6 L460.4,322.3 L461.2,317.1 L462.0,316.2 L462.9,293.6 L463.7,291.4 L464.6,303.7 L465.4,296.3 L466.3,331.2 L467.1,331.8 L467.9,371.9 L468.8,372.2 L469.6,372.2 L470.5,371.9 L471.3,372.2 L472.1,369.2 L473.0,372.5 L473.8,356.9 L474.7,332.4 L475.5,332.4 L476.4,294.8 L477.2,294.2 L478.0,329.4 L478.9,316.8 L479.7,293.9 L480.6,322.9 L481.4,332.1 L482.2,331.8 L483.1,332.1 L483.9,332.7 L484.8,332.4 L485.6,326.6 L486.5,334.0 L487.3,333.4 L488.1,333.1 L489.0,355.4 L489.8,372.5 L490.7,370.4 L491.5,350.2 L492.3,335.8 L493.2,335.2 L494.0,369.5 L494.9,333.1 L495.7,304.9 L496.5,298.2 L497.4,294.8 L498.2,294.2 L499.1,293.9 L499.9,294.8 L500.8,293.3 L501.6,319.0 L502.4,316.8 L503.3,322.0 L504.1,336.1 L505.0,316.5 L505.8,318.4 L506.6,334.6 L507.5,333.4 L508.3,333.7 L509.2,360.6 L510.0,351.1 L510.9,351.4 L511.7,350.2 L512.5,348.1 L513.4,331.8 L514.2,332.7 L515.1,332.7 L515.9,332.4 L516.7,295.7 L517.6,283.2 L518.4,310.4 L519.3,319.3 L520.1,308.6 L521.0,315.9 L521.8,325.4 L522.6,326.6 L523.5,326.0 L524.3,323.3 L525.2,319.9 L526.0,319.9 L526.8,336.7 L527.7,373.2 L528.5,372.2 L529.4,369.2 L530.2,371.6 L531.1,371.9 L531.9,371.9 L532.7,371.6 L533.6,371.9 L534.4,371.9 L535.3,347.7 L536.1,332.4 L536.9,286.5 L537.8,283.2 L538.6,285.9 L539.5,288.4 L540.3,297.8 L541.2,296.0 L542.0,311.9 L542.8,298.2 L543.7,307.6 L544.5,311.0 L545.4,307.6 L546.2,307.3 L547.0,333.4 L547.9,372.5 L548.7,371.9 L549.6,371.9 L550.4,372.5 L551.2,370.7 L552.1,371.9 L552.9,371.9 L553.8,368.6 L554.6,372.5 L555.5,372.5 L556.3,372.5 L557.1,370.7 L558.0,369.8 L558.8,372.5 L559.7,372.5 L560.5,374.4 L561.3,376.8 L562.2,377.1 L563.0,376.8 L563.9,376.8 L564.7,377.1 L565.6,377.1 L566.4,376.8 L567.2,376.8 L568.1,377.1 L568.9,377.1 L569.8,376.8 L570.6,377.1 L571.4,377.4 L572.3,377.8 L573.1,378.4 L574.0,378.1 L574.8,378.1 L575.7,378.1 L576.5,378.4 L577.3,377.8 L578.2,337.0 L579.0,338.0 L579.9,336.7 L580.7,336.7 L581.5,337.0 L582.4,359.1 L583.2,358.8 L584.1,358.2 L584.9,358.2 L585.8,331.5 L586.6,332.4 L587.4,332.1 L588.3,332.7 L589.1,332.4 L590.0,332.7 L590.8,332.7 L591.6,333.1 L592.5,334.0 L593.3,297.2 L594.2,308.6 L595.0,291.7 L595.8,291.4 L596.7,313.8 L597.5,324.8 L598.4,316.5 L599.2,331.8 L600.1,332.4 L600.9,333.1 L601.7,333.4 L602.6,330.0 L603.4,330.0 L604.3,330.3 L605.1,330.0 L605.9,328.8 L606.8,329.7 L607.6,324.2 L608.5,323.6 L609.3,323.6 L610.2,314.7 L611.0,324.5 L611.8,324.2 L612.7,314.4 L613.5,312.2 L614.4,312.5 L615.2,361.5 L616.0,349.3 L616.9,331.2 L617.7,326.9 L618.6,312.5 L619.4,291.7 L620.3,296.0 L621.1,291.7 L621.9,294.2 L622.8,327.8 L623.6,330.6 L624.5,340.4 L625.3,309.5 L626.1,286.5 L627.0,309.5 L627.8,328.8 L628.7,337.0 L629.5,323.6 L630.4,324.5 L631.2,334.9 L632.0,337.0 L632.9,330.9 L633.7,330.9 L634.6,330.9 L635.4,317.4 L636.2,299.7 L637.1,305.8 L637.9,304.6 L638.8,292.0 L639.6,296.6 L640.4,283.2 L641.3,289.3 L642.1,292.0 L643.0,287.1 L643.8,315.3 L644.7,323.3 L645.5,329.1 L646.3,328.8 L647.2,299.1 L648.0,322.0 L648.9,325.4 L649.7,324.8 L650.5,324.5 L651.4,310.1 L652.2,313.8 L653.1,310.7 L653.9,292.3 L654.8,297.8 L655.6,303.4 L656.4,307.0 L657.3,313.5 L658.1,306.7 L659.0,299.1 L659.8,302.7 L660.6,326.9 L661.5,307.6 L662.3,311.9 L663.2,334.9 L664.0,334.9 L664.9,370.7 L665.7,376.8 L666.5,376.2 L667.4,377.4 L668.2,374.4 L669.1,373.5 L669.9,374.1 L670.7,373.8 L671.6,373.8 L672.4,373.5 L673.3,373.8 L674.1,374.4 L675.0,374.4 L675.8,373.8 L676.6,374.1 L677.5,374.4 L678.3,374.7 L679.2,374.1 L680.0,372.9" stroke="#2ca02c" stroke-width="2" fill="none" opacity="0.8"/>
<!-- Solar Generation -->
<path d="M80.0,420.0 L80.8,420.0 L81.7,417.2 L82.5,391.5 L83.4,376.8 L84.2,375.6 L85.0,393.4 L85.9,398.9 L86.7,377.4 L87.6,375.3 L88.4,375.6 L89.3,376.2 L90.1,376.5 L90.9,376.2 L91.8,387.5 L92.6,413.3 L93.5,420.0 L94.3,420.0 L95.1,420.0 L96.0,420.0 L96.8,420.0 L97.7,420.0 L98.5,420.0 L99.4,420.0 L100.2,420.0 L101.0,420.0 L101.9,416.0 L102.7,390.0 L103.6,375.6 L104.4,375.6 L105.2,375.3 L106.1,375.0 L106.9,375.0 L107.8,375.9 L108.6,375.0 L109.5,375.3 L110.3,376.2 L111.1,376.2 L112.0,387.5 L112.8,412.3 L113.7,420.0 L114.5,420.0 L115.3,420.0 L116.2,420.0 L117.0,420.0 L117.9,420.0 L118.7,420.0 L119.6,420.0 L120.4,420.0 L121.2,420.0 L122.1,415.4 L122.9,390.9 L123.8,402.2 L124.6,394.9 L125.4,380.2 L126.3,376.2 L127.1,375.9 L128.0,399.2 L128.8,399.2 L129.6,401.9 L130.5,403.8 L131.3,398.9 L132.2,409.0 L133.0,414.2 L133.9,420.0 L134.7,420.0 L135.5,420.0 L136.4,420.0 L137.2,420.0 L138.1,420.0 L138.9,420.0 L139.7,420.0 L140.6,420.0 L141.4,420.0 L142.3,417.6 L143.1,390.0 L144.0,399.2 L144.8,398.9 L145.6,398.6 L146.5,398.3 L147.3,379.9 L148.2,401.6 L149.0,398.3 L149.8,397.0 L150.7,382.3 L151.5,376.2 L152.4,391.5 L153.2,412.0 L154.1,420.0 L154.9,420.0 L155.7,420.0 L156.6,420.0 L157.4,420.0 L158.3,420.0 L159.1,420.0 L159.9,420.0 L160.8,420.0 L161.6,420.0 L162.5,417.2 L163.3,402.2 L164.2,395.2 L165.0,391.2 L165.8,387.5 L166.7,386.3 L167.5,387.9 L168.4,388.2 L169.2,394.0 L170.0,395.8 L170.9,403.5 L171.7,401.3 L172.6,405.9 L173.4,417.6 L174.2,420.0 L175.1,420.0 L175.9,420.0 L176.8,420.0 L177.6,420.0 L178.5,420.0 L179.3,420.0 L180.1,420.0 L181.0,420.0 L181.8,420.0 L182.7,413.9 L183.5,399.2 L184.3,378.4 L185.2,387.2 L186.0,383.9 L186.9,389.4 L187.7,396.4 L188.6,389.1 L189.4,378.7 L190.2,376.8 L191.1,399.2 L191.9,394.6 L192.8,410.5 L193.6,414.2 L194.4,420.0 L195.3,420.0 L196.1,420.0 L197.0,420.0 L197.8,420.0 L198.7,420.0 L199.5,420.0 L200.3,420.0 L201.2,420.0 L202.0,420.0 L202.9,412.7 L203.7,386.6 L204.5,375.6 L205.4,375.3 L206.2,375.3 L207.1,375.0 L207.9,375.0 L208.8,391.8 L209.6,395.2 L210.4,398.9 L211.3,403.2 L212.1,394.0 L213.0,387.5 L213.8,415.4 L214.6,420.0 L215.5,420.0 L216.3,420.0 L217.2,420.0 L218.0,420.0 L218.8,420.0 L219.7,420.0 L220.5,420.0 L221.4,420.0 L222.2,420.0 L223.1,418.8 L223.9,415.4 L224.7,400.7 L225.6,395.8 L226.4,397.0 L227.3,392.4 L228.1,385.7 L228.9,383.0 L229.8,394.9 L230.6,391.2 L231.5,392.4 L232.3,403.5 L233.2,392.4 L234.0,412.7 L234.8,420.0 L235.7,420.0 L236.5,420.0 L237.4,420.0 L238.2,420.0 L239.0,420.0 L239.9,420.0 L240.7,420.0 L241.6,420.0 L242.4,420.0 L243.3,413.6 L244.1,390.6 L244.9,379.6 L245.8,409.3 L246.6,410.2 L247.5,398.3 L248.3,398.6 L249.1,408.1 L250.0,407.1 L250.8,401.0 L251.7,403.8 L252.5,405.3 L253.4,413.0 L254.2,417.2 L255.0,420.0 L255.9,420.0 L256.7,420.0 L257.6,420.0 L258.4,420.0 L259.2,420.0 L260.1,420.0 L260.9,420.0 L261.8,420.0 L262.6,420.0 L263.5,416.3 L264.3,414.5 L265.1,412.3 L266.0,390.0 L266.8,384.2 L267.7,391.5 L268.5,400.7 L269.3,400.4 L270.2,398.6 L271.0,398.9 L271.9,409.0 L272.7,400.4 L273.5,412.7 L274.4,410.2 L275.2,420.0 L276.1,420.0 L276.9,420.0 L277.8,420.0 L278.6,420.0 L279.4,420.0 L280.3,420.0 L281.1,420.0 L282.0,420.0 L282.8,420.0 L283.6,415.1 L284.5,407.1 L285.3,377.4 L286.2,375.6 L287.0,375.3 L287.9,375.3 L288.7,375.0 L289.5,376.5 L290.4,398.6 L291.2,398.9 L292.1,397.0 L292.9,379.6 L293.7,387.2 L294.6,416.0 L295.4,420.0 L296.3,420.0 L297.1,420.0 L298.0,420.0 L298.8,420.0 L299.6,420.0 L300.5,420.0 L301.3,420.0 L302.2,420.0 L303.0,420.0 L303.8,415.4 L304.7,394.6 L305.5,390.3 L306.4,384.5 L307.2,377.1 L308.1,375.3 L308.9,375.0 L309.7,398.0 L310.6,398.9 L311.4,376.5 L312.3,377.1 L313.1,387.5 L313.9,393.7 L314.8,409.3 L315.6,420.0 L316.5,420.0 L317.3,420.0 L318.1,420.0 L319.0,420.0 L319.8,420.0 L320.7,420.0 L321.5,420.0 L322.4,420.0 L323.2,420.0 L324.0,410.8 L324.9,388.5 L325.7,377.8 L326.6,376.5 L327.4,375.6 L328.2,376.2 L329.1,375.9 L329.9,375.3 L330.8,376.2 L331.6,378.1 L332.5,379.3 L333.3,380.8 L334.1,397.3 L335.0,414.2 L335.8,420.0 L336.7,420.0 L337.5,420.0 L338.3,420.0 L339.2,420.0 L340.0,420.0 L340.9,420.0 L341.7,420.0 L342.6,420.0 L343.4,420.0 L344.2,411.7 L345.1,389.1 L345.9,384.2 L346.8,379.6 L347.6,388.5 L348.4,399.8 L349.3,383.0 L350.1,399.2 L351.0,389.7 L351.8,390.0 L352.7,405.3 L353.5,414.5 L354.3,410.8 L355.2,412.7 L356.0,420.0 L356.9,420.0 L357.7,420.0 L358.5,420.0 L359.4,420.0 L360.2,420.0 L361.1,420.0 L361.9,420.0 L362.7,420.0 L363.6,420.0 L364.4,413.6 L365.3,400.4 L366.1,401.6 L367.0,399.8 L367.8,399.5 L368.6,399.2 L369.5,399.5 L370.3,399.2 L371.2,399.8 L372.0,399.8 L372.8,399.8 L373.7,400.7 L374.5,406.2 L375.4,416.0 L376.2,420.0 L377.1,420.0 L377.9,420.0 L378.7,420.0 L379.6,420.0 L380.4,420.0 L381.3,420.0 L382.1,420.0 L382.9,420.0 L383.8,420.0 L384.6,413.9 L385.5,402.5 L386.3,400.1 L387.2,399.8 L388.0,399.5 L388.8,399.2 L389.7,399.2 L390.5,399.2 L391.4,399.2 L392.2,399.5 L393.0,412.7 L393.9,413.9 L394.7,407.8 L395.6,411.1 L396.4,420.0 L397.3,420.0 L398.1,420.0 L398.9,420.0 L399.8,420.0 L400.6,420.0 L401.5,420.0 L402.3,420.0 L403.1,420.0 L404.0,420.0 L404.8,418.5 L405.7,403.5 L406.5,401.3 L407.3,402.2 L408.2,400.1 L409.0,399.5 L409.9,402.2 L410.7,400.1 L411.6,400.7 L412.4,409.6 L413.2,411.1 L414.1,415.4 L414.9,413.6 L415.8,413.9 L416.6,420.0 L417.4,420.0 L418.3,420.0 L419.1,420.0 L420.0,420.0 L420.8,420.0 L421.7,420.0 L422.5,420.0 L423.3,420.0 L424.2,420.0 L425.0,413.6 L425.9,417.2 L426.7,413.3 L427.5,411.4 L428.4,401.9 L429.2,388.8 L430.1,399.8 L430.9,384.5 L431.8,398.6 L432.6,404.4 L433.4,409.9 L434.3,402.2 L435.1,381.7 L436.0,412.3 L436.8,419.7 L437.6,420.0 L438.5,420.0 L439.3,420.0 L440.2,420.0 L441.0,420.0 L441.9,420.0 L442.7,420.0 L443.5,420.0 L444.4,420.0 L445.2,414.5 L446.1,412.3 L446.9,415.4 L447.7,415.1 L448.6,391.8 L449.4,394.6 L450.3,412.3 L451.1,405.9 L451.9,401.3 L452.8,406.5 L453.6,388.8 L454.5,402.5 L455.3,398.3 L456.2,413.9 L457.0,419.7 L457.8,420.0 L458.7,420.0 L459.5,420.0 L460.4,420.0 L461.2,420.0 L462.0,420.0 L462.9,420.0 L463.7,420.0 L464.6,420.0 L465.4,408.7 L466.3,400.4 L467.1,379.9 L467.9,376.2 L468.8,376.2 L469.6,375.9 L470.5,383.6 L471.3,387.2 L472.1,402.9 L473.0,399.5 L473.8,408.7 L474.7,403.2 L475.5,401.0 L476.4,411.1 L477.2,419.7 L478.0,420.0 L478.9,420.0 L479.7,420.0 L480.6,420.0 L481.4,420.0 L482.2,420.0 L483.1,420.0 L483.9,420.0 L484.8,420.0 L485.6,411.4 L486.5,390.9 L487.3,378.7 L488.1,377.4 L489.0,376.2 L489.8,392.1 L490.7,377.4 L491.5,395.5 L492.3,399.2 L493.2,397.0 L494.0,390.6 L494.9,397.7 L495.7,413.0 L496.5,417.9 L497.4,420.0 L498.2,420.0 L499.1,420.0 L499.9,420.0 L500.8,420.0 L501.6,420.0 L502.4,420.0 L503.3,420.0 L504.1,420.0 L505.0,420.0 L505.8,419.4 L506.6,416.3 L507.5,397.7 L508.3,397.7 L509.2,399.8 L510.0,385.7 L510.9,390.3 L511.7,385.4 L512.5,393.4 L513.4,388.8 L514.2,394.0 L515.1,388.2 L515.9,390.9 L516.7,412.3 L517.6,420.0 L518.4,420.0 L519.3,420.0 L520.1,420.0 L521.0,420.0 L521.8,420.0 L522.6,420.0 L523.5,420.0 L524.3,420.0 L525.2,420.0 L526.0,407.1 L526.8,384.8 L527.7,377.1 L528.5,375.9 L529.4,385.4 L530.2,380.2 L531.1,382.6 L531.9,379.9 L532.7,384.5 L533.6,392.4 L534.4,404.1 L535.3,403.2 L536.1,397.7 L536.9,416.9 L537.8,420.0 L538.6,420.0 L539.5,420.0 L540.3,420.0 L541.2,420.0 L542.0,420.0 L542.8,420.0 L543.7,420.0 L544.5,420.0 L545.4,420.0 L546.2,409.9 L547.0,385.1 L547.9,378.1 L548.7,375.9 L549.6,375.3 L550.4,398.6 L551.2,400.1 L552.1,400.4 L552.9,409.9 L553.8,410.5 L554.6,399.8 L555.5,394.3 L556.3,391.8 L557.1,407.8 L558.0,419.7 L558.8,420.0 L559.7,420.0 L560.5,420.0 L561.3,420.0 L562.2,420.0 L563.0,420.0 L563.9,420.0 L564.7,420.0 L565.6,420.0 L566.4,408.4 L567.2,388.2 L568.1,394.0 L568.9,375.6 L569.8,398.9 L570.6,375.9 L571.4,400.1 L572.3,399.2 L573.1,399.5 L574.0,389.1 L574.8,386.6 L575.7,388.2 L576.5,392.4 L577.3,408.7 L578.2,419.4 L579.0,420.0 L579.9,420.0 L580.7,420.0 L581.5,420.0 L582.4,420.0 L583.2,420.0 L584.1,420.0 L584.9,420.0 L585.8,420.0 L586.6,407.1 L587.4,384.8 L588.3,399.5 L589.1,375.6 L590.0,375.3 L590.8,376.2 L591.6,394.0 L592.5,379.0 L593.3,394.6 L594.2,386.0 L595.0,399.5 L595.8,405.3 L596.7,414.2 L597.5,418.2 L598.4,419.7 L599.2,420.0 L600.1,420.0 L600.9,420.0 L601.7,420.0 L602.6,420.0 L603.4,420.0 L604.3,420.0 L605.1,420.0 L605.9,420.0 L606.8,411.4 L607.6,409.6 L608.5,391.8 L609.3,393.1 L610.2,398.6 L611.0,402.2 L611.8,398.3 L612.7,395.8 L613.5,400.1 L614.4,396.1 L615.2,398.9 L616.0,410.2 L616.9,388.8 L617.7,409.9 L618.6,419.7 L619.4,420.0 L620.3,420.0 L621.1,420.0 L621.9,420.0 L622.8,420.0 L623.6,420.0 L624.5,420.0 L625.3,420.0 L626.1,420.0 L627.0,410.2 L627.8,383.6 L628.7,381.4 L629.5,378.1 L630.4,377.8 L631.2,378.7 L632.0,379.6 L632.9,377.1 L633.7,377.8 L634.6,385.4 L635.4,386.0 L636.2,402.9 L637.1,402.9 L637.9,414.2 L638.8,419.7 L639.6,420.0 L640.4,420.0 L641.3,420.0 L642.1,420.0 L643.0,420.0 L643.8,420.0 L644.7,420.0 L645.5,420.0 L646.3,420.0 L647.2,411.4 L648.0,386.9 L648.9,382.3 L649.7,377.8 L650.5,376.5 L651.4,379.0 L652.2,379.0 L653.1,385.1 L653.9,385.1 L654.8,394.9 L655.6,380.5 L656.4,390.3 L657.3,409.3 L658.1,411.1 L659.0,419.4 L659.8,420.0 L660.6,420.0 L661.5,420.0 L662.3,420.0 L663.2,420.0 L664.0,420.0 L664.9,420.0 L665.7,420.0 L666.5,419.4 L667.4,410.5 L668.2,383.6 L669.1,379.6 L669.9,376.2 L670.7,375.3 L671.6,378.4 L672.4,379.9 L673.3,402.9 L674.1,382.3 L675.0,397.7 L675.8,401.9 L676.6,403.2 L677.5,402.9 L678.3,413.3 L679.2,419.7 L680.0,420.0" stroke="#d62728" stroke-width="2" fill="none" opacity="0.8"/>
<!-- Forecast -->
<path d="M80.0,249.5 L80.8,234.5 L81.7,208.8 L82.5,181.5 L83.4,165.0 L84.2,161.9 L85.0,161.9 L85.9,166.2 L86.7,169.3 L87.6,172.6 L88.4,175.4 L89.3,176.6 L90.1,177.2 L90.9,176.6 L91.8,181.2 L92.6,186.4 L93.5,186.1 L94.3,195.9 L95.1,209.7 L96.0,229.9 L96.8,226.5 L97.7,244.3 L98.5,251.3 L99.4,252.8 L100.2,249.5 L101.0,234.5 L101.9,208.8 L102.7,181.2 L103.6,165.0 L104.4,161.9 L105.2,161.9 L106.1,166.2 L106.9,169.3 L107.8,172.6 L108.6,175.4 L109.5,176.6 L110.3,177.2 L111.1,176.6 L112.0,181.2 L112.8,186.4 L113.7,186.1 L114.5,189.2 L115.3,207.5 L116.2,229.9 L117.0,226.5 L117.9,244.6 L118.7,251.3 L119.6,252.8 L120.4,249.5 L121.2,234.5 L122.1,208.8 L122.9,181.2 L123.8,165.0 L124.6,161.9 L125.4,161.9 L126.3,166.2 L127.1,169.3 L128.0,172.6 L128.8,175.4 L129.6,176.6 L130.5,177.2 L131.3,176.6 L132.2,181.2 L133.0,186.4 L133.9,186.1 L134.7,189.2 L135.5,207.5 L136.4,221.3 L137.2,224.1 L138.1,240.0 L138.9,249.2 L139.7,251.9 L140.6,251.0 L141.4,246.4 L142.3,239.7 L143.1,228.7 L144.0,214.0 L144.8,199.6 L145.6,191.9 L146.5,187.9 L147.3,187.6 L148.2,191.9 L149.0,192.8 L149.8,190.1 L150.7,186.4 L151.5,185.2 L152.4,178.1 L153.2,182.7 L154.1,186.7 L154.9,183.7 L155.7,193.4 L156.6,208.8 L157.4,227.4 L158.3,237.2 L159.1,243.4 L159.9,245.8 L160.8,243.4 L161.6,231.1 L162.5,207.5 L163.3,181.2 L164.2,163.4 L165.0,155.2 L165.8,150.0 L166.7,149.7 L167.5,149.4 L168.4,150.3 L169.2,150.9 L170.0,152.1 L170.9,151.5 L171.7,149.7 L172.6,155.2 L173.4,161.3 L174.2,162.8 L175.1,164.4 L175.9,181.5 L176.8,203.9 L177.6,227.1 L178.5,232.9 L179.3,234.8 L180.1,236.9 L181.0,233.9 L181.8,219.5 L182.7,194.1 L183.5,164.7 L184.3,146.0 L185.2,140.2 L186.0,139.6 L186.9,142.9 L187.7,144.8 L188.6,147.8 L189.4,149.7 L190.2,151.5 L191.1,152.1 L191.9,151.5 L192.8,155.5 L193.6,159.5 L194.4,157.6 L195.3,160.1 L196.1,178.8 L197.0,368.0 L197.8,270.0 L198.7,375.9 L199.5,420.0 L200.3,420.0 L201.2,420.0 L202.0,420.0 L202.9,420.0 L203.7,420.0 L204.5,420.0 L205.4,420.0 L206.2,420.0 L207.1,420.0 L207.9,420.0 L208.8,420.0 L209.6,420.0 L210.4,420.0 L211.3,420.0 L212.1,420.0 L213.0,420.0 L213.8,420.0 L214.6,420.0 L215.5,420.0 L216.3,420.0 L217.2,266.0 L218.0,229.6 L218.8,241.8 L219.7,249.5 L220.5,251.6 L221.4,250.4 L222.2,239.4 L223.1,216.7 L223.9,190.4 L224.7,172.0 L225.6,163.4 L226.4,157.6 L227.3,157.0 L228.1,156.4 L228.9,157.9 L229.8,159.2 L230.6,160.7 L231.5,160.4 L232.3,158.9 L233.2,163.4 L234.0,169.6 L234.8,171.1 L235.7,172.9 L236.5,190.1 L237.4,214.6 L238.2,234.2 L239.0,245.2 L239.9,251.9 L240.7,253.8 L241.6,251.3 L242.4,238.8 L243.3,215.8 L244.1,190.4 L244.9,172.9 L245.8,165.0 L246.6,159.2 L247.5,158.5 L248.3,158.5 L249.1,159.5 L250.0,160.4 L250.8,159.8 L251.7,160.1 L252.5,158.9 L253.4,163.1 L254.2,168.6 L255.0,171.4 L255.9,172.6 L256.7,189.8 L257.6,221.6 L258.4,236.0 L259.2,245.5 L260.1,251.9 L260.9,255.6 L261.8,255.9 L262.6,252.2 L263.5,246.7 L264.3,232.0 L265.1,215.2 L266.0,202.0 L266.8,193.4 L267.7,192.8 L268.5,192.5 L269.3,198.0 L270.2,205.1 L271.0,205.1 L271.9,200.5 L272.7,197.1 L273.5,197.7 L274.4,201.1 L275.2,198.7 L276.1,195.9 L276.9,206.6 L277.8,224.7 L278.6,238.8 L279.4,248.6 L280.3,254.4 L281.1,256.5 L282.0,255.3 L282.8,251.6 L283.6,245.2 L284.5,237.2 L285.3,225.0 L286.2,210.6 L287.0,201.4 L287.9,200.5 L288.7,197.4 L289.5,197.1 L290.4,195.6 L291.2,190.4 L292.1,184.6 L292.9,178.4 L293.7,173.2 L294.6,179.1 L295.4,185.5 L296.3,184.0 L297.1,196.8 L298.0,217.6 L298.8,233.2 L299.6,243.0 L300.5,250.1 L301.3,253.5 L302.2,252.5 L303.0,242.7 L303.8,220.4 L304.7,193.8 L305.5,172.0 L306.4,162.5 L307.2,157.9 L308.1,156.4 L308.9,156.4 L309.7,155.8 L310.6,155.8 L311.4,153.3 L312.3,152.1 L313.1,152.4 L313.9,161.0 L314.8,167.1 L315.6,171.1 L316.5,172.9 L317.3,191.0 L318.1,218.9 L319.0,229.0 L319.8,250.4 L320.7,261.4 L321.5,263.6 L322.4,260.8 L323.2,249.2 L324.0,226.2 L324.9,202.0 L325.7,182.4 L326.6,172.3 L327.4,165.9 L328.2,162.2 L329.1,161.0 L329.9,158.9 L330.8,156.4 L331.6,153.0 L332.5,147.2 L333.3,142.3 L334.1,153.0 L335.0,166.2 L335.8,173.5 L336.7,175.4 L337.5,194.4 L338.3,221.6 L339.2,239.4 L340.0,251.3 L340.9,258.7 L341.7,261.7 L342.6,261.1 L343.4,251.6 L344.2,229.9 L345.1,199.3 L345.9,174.2 L346.8,161.3 L347.6,160.1 L348.4,150.9 L349.3,148.1 L350.1,147.5 L351.0,142.0 L351.8,141.7 L352.7,146.0 L353.5,148.4 L354.3,158.5 L355.2,170.2 L356.0,176.3 L356.9,178.4 L357.7,196.5 L358.5,225.0 L359.4,242.1 L360.2,252.2 L361.1,258.7 L361.9,261.4 L362.7,259.6 L363.6,248.6 L364.4,223.8 L365.3,196.2 L366.1,175.4 L367.0,167.4 L367.8,163.4 L368.6,164.7 L369.5,166.2 L370.3,168.3 L371.2,170.2 L372.0,170.8 L372.8,171.1 L373.7,170.5 L374.5,175.1 L375.4,181.8 L376.2,184.0 L377.1,186.7 L377.9,203.6 L378.7,226.2 L379.6,244.0 L380.4,253.8 L381.3,259.3 L382.1,261.4 L382.9,259.0 L383.8,247.9 L384.6,223.1 L385.5,196.5 L386.3,176.6 L387.2,169.0 L388.0,164.4 L388.8,165.6 L389.7,166.8 L390.5,169.3 L391.4,171.1 L392.2,171.4 L393.0,172.3 L393.9,171.4 L394.7,176.3 L395.6,183.0 L396.4,184.6 L397.3,187.6 L398.1,204.5 L398.9,226.2 L399.8,244.0 L400.6,252.8 L401.5,258.0 L402.3,261.1 L403.1,260.8 L404.0,259.6 L404.8,248.9 L405.7,233.9 L406.5,216.4 L407.3,200.8 L408.2,193.8 L409.0,194.7 L409.9,195.0 L410.7,198.0 L411.6,203.6 L412.4,204.8 L413.2,202.3 L414.1,199.6 L414.9,198.7 L415.8,201.1 L416.6,198.0 L417.4,198.3 L418.3,209.7 L419.1,226.2 L420.0,239.4 L420.8,247.0 L421.7,252.2 L422.5,253.8 L423.3,252.2 L424.2,249.2 L425.0,239.4 L425.9,228.3 L426.7,210.0 L427.5,192.8 L428.4,185.5 L429.2,184.6 L430.1,186.4 L430.9,186.7 L431.8,191.0 L432.6,192.8 L433.4,189.8 L434.3,182.1 L435.1,185.5 L436.0,183.3 L436.8,179.1 L437.6,182.7 L438.5,202.6 L439.3,221.9 L440.2,236.0 L441.0,243.7 L441.9,247.0 L442.7,248.2 L443.5,244.9 L444.4,232.3 L445.2,206.6 L446.1,178.4 L446.9,160.1 L447.7,154.3 L448.6,154.6 L449.4,157.6 L450.3,161.0 L451.1,164.7 L451.9,167.7 L452.8,169.0 L453.6,169.6 L454.5,170.2 L455.3,175.4 L456.2,178.4 L457.0,176.9 L457.8,180.3 L458.7,199.3 L459.5,224.1 L460.4,237.8 L461.2,242.4 L462.0,245.2 L462.9,246.4 L463.7,242.7 L464.6,231.1 L465.4,206.6 L466.3,180.0 L467.1,163.4 L467.9,159.8 L468.8,160.1 L469.6,163.8 L470.5,166.5 L471.3,169.3 L472.1,171.4 L473.0,172.9 L473.8,173.9 L474.7,173.9 L475.5,178.8 L476.4,184.6 L477.2,184.3 L478.0,187.3 L478.9,204.5 L479.7,227.4 L480.6,241.8 L481.4,252.2 L482.2,257.4 L483.1,259.6 L483.9,256.2 L484.8,244.0 L485.6,221.0 L486.5,195.3 L487.3,178.1 L488.1,171.4 L489.0,166.8 L489.8,167.4 L490.7,168.6 L491.5,170.8 L492.3,172.6 L493.2,173.9 L494.0,173.9 L494.9,173.9 L495.7,178.8 L496.5,185.2 L497.4,184.3 L498.2,187.9 L499.1,205.7 L499.9,227.7 L500.8,244.3 L501.6,253.5 L502.4,258.4 L503.3,260.5 L504.1,257.7 L505.0,245.2 L505.8,219.2 L506.6,188.5 L507.5,168.6 L508.3,162.5 L509.2,160.7 L510.0,163.8 L510.9,166.8 L511.7,169.9 L512.5,172.6 L513.4,174.2 L514.2,175.1 L515.1,174.8 L515.9,179.4 L516.7,185.5 L517.6,185.5 L518.4,188.5 L519.3,206.0 L520.1,214.0 L521.0,217.9 L521.8,221.9 L522.6,225.9 L523.5,229.9 L524.3,233.9 L525.2,237.8 L526.0,219.5 L526.8,194.7 L527.7,179.1 L528.5,172.9 L529.4,169.3 L530.2,170.2 L531.1,171.1 L531.9,172.6 L532.7,174.2 L533.6,175.1 L534.4,174.5 L535.3,172.9 L536.1,177.5 L536.9,183.7 L537.8,187.3 L538.6,189.8 L539.5,206.9 L540.3,237.5 L541.2,249.8 L542.0,258.0 L542.8,263.9 L543.7,266.6 L544.5,265.7 L545.4,263.9 L546.2,257.7 L547.0,243.4 L547.9,228.0 L548.7,217.6 L549.6,209.1 L550.4,207.8 L551.2,205.7 L552.1,207.5 L552.9,210.6 L553.8,211.2 L554.6,212.7 L555.5,214.3 L556.3,213.0 L557.1,213.7 L558.0,213.3 L558.8,210.6 L559.7,221.6 L560.5,237.2 L561.3,252.8 L562.2,264.5 L563.0,271.2 L563.9,273.7 L564.7,272.4 L565.6,269.4 L566.4,267.2 L567.2,255.9 L568.1,244.3 L568.9,226.8 L569.8,214.0 L570.6,213.7 L571.4,209.4 L572.3,207.5 L573.1,205.1 L574.0,200.5 L574.8,195.6 L575.7,189.5 L576.5,184.9 L577.3,190.7 L578.2,197.7 L579.0,197.1 L579.9,209.4 L580.7,233.6 L581.5,254.4 L582.4,266.3 L583.2,273.4 L584.1,276.1 L584.9,274.9 L585.8,271.5 L586.6,272.7 L587.4,259.6 L588.3,247.3 L589.1,228.3 L590.0,214.6 L590.8,215.5 L591.6,209.4 L592.5,205.7 L593.3,202.0 L594.2,198.3 L595.0,195.9 L595.8,190.4 L596.7,184.9 L597.5,189.5 L598.4,196.2 L599.2,194.7 L600.1,207.5 L600.9,230.2 L601.7,244.0 L602.6,253.5 L603.4,260.5 L604.3,263.6 L605.1,262.9 L605.9,253.8 L606.8,231.4 L607.6,202.0 L608.5,180.3 L609.3,170.8 L610.2,168.0 L611.0,167.1 L611.8,167.7 L612.7,169.3 L613.5,170.2 L614.4,171.1 L615.2,171.4 L616.0,170.8 L616.9,176.6 L617.7,182.7 L618.6,186.1 L619.4,187.3 L620.3,204.5 L621.1,230.2 L621.9,248.2 L622.8,256.2 L623.6,262.0 L624.5,263.9 L625.3,262.3 L626.1,252.2 L627.0,228.3 L627.8,200.5 L628.7,180.3 L629.5,172.6 L630.4,168.3 L631.2,169.0 L632.0,170.5 L632.9,172.6 L633.7,174.5 L634.6,175.7 L635.4,176.3 L636.2,175.1 L637.1,180.0 L637.9,186.4 L638.8,189.2 L639.6,190.7 L640.4,207.2 L641.3,212.1 L642.1,212.1 L643.0,212.1 L643.8,212.1 L644.7,212.1 L645.5,212.1 L646.3,212.1 L647.2,212.1 L648.0,212.1 L648.9,212.1 L649.7,212.1 L650.5,212.1 L651.4,212.1 L652.2,212.1 L653.1,212.1 L653.9,212.1 L654.8,212.1 L655.6,212.1 L656.4,212.1 L657.3,212.1 L658.1,212.1 L659.0,212.1 L659.8,212.1 L660.6,212.1 L661.5,212.1 L662.3,238.1 L663.2,245.5 L664.0,252.5 L664.9,256.5 L665.7,257.1 L666.5,247.3 L667.4,225.6 L668.2,192.8 L669.1,168.0 L669.9,156.7 L670.7,152.7 L671.6,150.0 L672.4,149.1 L673.3,148.7 L674.1,142.0 L675.0,143.5 L675.8,145.7 L676.6,146.9 L677.5,155.5 L678.3,166.5 L679.2,174.2 L680.0,175.7" stroke="#9467bd" stroke-width="2" fill="none" opacity="0.8"/>
<!-- Total Generation -->
<path d="M80.0,191.3 L80.8,177.8 L81.7,150.0 L82.5,131.6 L83.4,162.5 L84.2,182.4 L85.0,203.6 L85.9,201.1 L86.7,188.5 L87.6,187.0 L88.4,201.4 L89.3,199.0 L90.1,197.4 L90.9,203.2 L91.8,150.0 L92.6,142.9 L93.5,151.2 L94.3,142.3 L95.1,149.7 L96.0,175.7 L96.8,188.9 L97.7,188.2 L98.5,179.1 L99.4,198.0 L100.2,156.1 L101.0,151.5 L101.9,131.0 L102.7,140.2 L103.6,153.0 L104.4,187.0 L105.2,195.6 L106.1,199.0 L106.9,202.6 L107.8,203.6 L108.6,206.3 L109.5,172.9 L110.3,208.1 L111.1,205.7 L112.0,165.6 L112.8,135.0 L113.7,149.7 L114.5,144.2 L115.3,154.0 L116.2,161.9 L117.0,174.2 L117.9,169.3 L118.7,176.3 L119.6,176.3 L120.4,143.5 L121.2,173.9 L122.1,135.9 L122.9,182.7 L123.8,233.6 L124.6,233.6 L125.4,228.3 L126.3,231.1 L127.1,234.5 L128.0,253.5 L128.8,240.6 L129.6,251.3 L130.5,247.6 L131.3,241.5 L132.2,242.7 L133.0,191.3 L133.9,190.7 L134.7,179.4 L135.5,197.4 L136.4,174.2 L137.2,201.7 L138.1,205.4 L138.9,240.3 L139.7,246.4 L140.6,241.8 L141.4,232.9 L142.3,226.5 L143.1,237.8 L144.0,265.7 L144.8,259.0 L145.6,255.9 L146.5,244.9 L147.3,205.7 L148.2,240.3 L149.0,226.5 L149.8,215.5 L150.7,202.6 L151.5,186.7 L152.4,197.7 L153.2,182.1 L154.1,158.2 L154.9,160.4 L155.7,195.3 L156.6,204.8 L157.4,202.6 L158.3,179.7 L159.1,153.3 L159.9,214.0 L160.8,224.1 L161.6,252.2 L162.5,237.8 L163.3,217.9 L164.2,235.1 L165.0,229.3 L165.8,225.9 L166.7,218.9 L167.5,186.4 L168.4,182.1 L169.2,173.9 L170.0,190.7 L170.9,142.6 L171.7,186.7 L172.6,112.9 L173.4,181.2 L174.2,206.9 L175.1,207.8 L175.9,206.6 L176.8,229.6 L177.6,238.5 L178.5,249.2 L179.3,202.0 L180.1,233.2 L181.0,203.2 L181.8,208.8 L182.7,180.6 L183.5,188.2 L184.3,165.6 L185.2,178.1 L186.0,158.2 L186.9,161.6 L187.7,145.1 L188.6,134.4 L189.4,132.2 L190.2,132.2 L191.1,143.9 L191.9,161.9 L192.8,155.8 L193.6,154.6 L194.4,191.9 L195.3,180.3 L196.1,194.4 L197.0,205.1 L197.8,194.4 L198.7,190.4 L199.5,217.0 L200.3,214.6 L201.2,200.2 L202.0,197.4 L202.9,154.6 L203.7,158.5 L204.5,146.3 L205.4,145.7 L206.2,155.2 L207.1,178.1 L207.9,192.8 L208.8,210.9 L209.6,206.3 L210.4,213.0 L211.3,218.9 L212.1,189.8 L213.0,169.3 L213.8,163.1 L214.6,173.2 L215.5,219.2 L216.3,217.3 L217.2,209.1 L218.0,191.0 L218.8,167.4 L219.7,168.0 L220.5,177.2 L221.4,192.2 L222.2,186.7 L223.1,189.5 L223.9,223.5 L224.7,225.3 L225.6,230.8 L226.4,191.6 L227.3,190.7 L228.1,207.5 L228.9,209.4 L229.8,220.1 L230.6,203.9 L231.5,210.3 L232.3,191.9 L233.2,151.8 L234.0,176.3 L234.8,163.8 L235.7,162.5 L236.5,196.5 L237.4,187.3 L238.2,198.0 L239.0,236.9 L239.9,255.6 L240.7,255.9 L241.6,265.4 L242.4,249.2 L243.3,233.9 L244.1,249.2 L244.9,239.1 L245.8,262.0 L246.6,252.2 L247.5,237.5 L248.3,228.0 L249.1,226.5 L250.0,223.1 L250.8,213.7 L251.7,214.9 L252.5,223.5 L253.4,221.0 L254.2,232.3 L255.0,236.0 L255.9,202.0 L256.7,191.9 L257.6,233.9 L258.4,250.1 L259.2,231.7 L260.1,253.5 L260.9,224.4 L261.8,230.8 L262.6,237.5 L263.5,250.4 L264.3,252.5 L265.1,257.4 L266.0,205.1 L266.8,233.6 L267.7,243.0 L268.5,246.7 L269.3,242.1 L270.2,242.7 L271.0,234.8 L271.9,245.2 L272.7,227.4 L273.5,237.8 L274.4,194.4 L275.2,190.1 L276.1,187.9 L276.9,188.2 L277.8,191.6 L278.6,212.1 L279.4,191.9 L280.3,202.0 L281.1,201.7 L282.0,212.1 L282.8,212.7 L283.6,217.3 L284.5,217.6 L285.3,180.9 L286.2,206.9 L287.0,213.0 L287.9,210.6 L288.7,207.5 L289.5,212.4 L290.4,234.5 L291.2,224.4 L292.1,215.2 L292.9,188.2 L293.7,210.3 L294.6,229.6 L295.4,192.2 L296.3,165.6 L297.1,210.3 L298.0,237.8 L298.8,256.5 L299.6,253.1 L300.5,245.8 L301.3,229.9 L302.2,217.6 L303.0,207.2 L303.8,189.8 L304.7,198.3 L305.5,190.4 L306.4,188.5 L307.2,174.2 L308.1,169.9 L308.9,170.2 L309.7,188.5 L310.6,183.0 L311.4,140.5 L312.3,142.3 L313.1,145.7 L313.9,124.6 L314.8,67.6 L315.6,69.1 L316.5,81.7 L317.3,78.0 L318.1,121.8 L319.0,155.5 L319.8,133.1 L320.7,138.6 L321.5,153.6 L322.4,126.4 L323.2,136.8 L324.0,133.4 L324.9,119.4 L325.7,131.6 L326.6,121.5 L327.4,138.0 L328.2,167.1 L329.1,180.0 L329.9,180.9 L330.8,185.8 L331.6,112.6 L332.5,82.6 L333.3,89.4 L334.1,90.6 L335.0,98.8 L335.8,85.4 L336.7,90.9 L337.5,120.0 L338.3,150.9 L339.2,179.7 L340.0,266.6 L340.9,267.2 L341.7,268.8 L342.6,263.6 L343.4,255.9 L344.2,255.6 L345.1,233.2 L345.9,224.7 L346.8,192.8 L347.6,201.4 L348.4,216.7 L349.3,187.6 L350.1,210.9 L351.0,177.5 L351.8,163.4 L352.7,198.0 L353.5,232.9 L354.3,210.9 L355.2,175.4 L356.0,168.6 L356.9,199.9 L357.7,167.7 L358.5,181.2 L359.4,182.4 L360.2,157.0 L361.1,167.1 L361.9,163.8 L362.7,183.7 L363.6,180.6 L364.4,177.8 L365.3,176.6 L366.1,184.6 L367.0,195.3 L367.8,191.3 L368.6,166.5 L369.5,183.3 L370.3,174.5 L371.2,146.3 L372.0,175.7 L372.8,175.7 L373.7,140.5 L374.5,137.7 L375.4,145.7 L376.2,157.9 L377.1,180.0 L377.9,164.7 L378.7,162.2 L379.6,160.1 L380.4,152.7 L381.3,150.0 L382.1,149.7 L382.9,184.3 L383.8,155.8 L384.6,141.7 L385.5,137.7 L386.3,150.0 L387.2,127.0 L388.0,124.9 L388.8,123.0 L389.7,144.8 L390.5,157.6 L391.4,138.0 L392.2,134.4 L393.0,164.4 L393.9,176.3 L394.7,173.2 L395.6,185.2 L396.4,197.4 L397.3,202.6 L398.1,222.5 L398.9,223.8 L399.8,228.0 L400.6,219.8 L401.5,241.8 L402.3,249.2 L403.1,252.8 L404.0,242.7 L404.8,241.5 L405.7,231.7 L406.5,223.5 L407.3,223.5 L408.2,225.0 L409.0,224.4 L409.9,235.1 L410.7,235.1 L411.6,240.6 L412.4,248.2 L413.2,222.5 L414.1,218.2 L414.9,193.4 L415.8,196.2 L416.6,222.5 L417.4,219.5 L418.3,236.9 L419.1,229.6 L420.0,207.2 L420.8,218.9 L421.7,223.5 L422.5,223.5 L423.3,235.1 L424.2,244.9 L425.0,217.9 L425.9,236.0 L426.7,226.2 L427.5,223.8 L428.4,214.6 L429.2,169.9 L430.1,173.5 L430.9,156.7 L431.8,169.9 L432.6,198.0 L433.4,202.6 L434.3,200.5 L435.1,153.3 L436.0,194.4 L436.8,222.8 L437.6,224.1 L438.5,226.2 L439.3,243.0 L440.2,230.8 L441.0,237.2 L441.9,235.7 L442.7,241.2 L443.5,232.9 L444.4,239.1 L445.2,233.6 L446.1,216.4 L446.9,218.6 L447.7,228.3 L448.6,208.4 L449.4,219.5 L450.3,221.9 L451.1,229.6 L451.9,241.5 L452.8,245.5 L453.6,201.4 L454.5,213.3 L455.3,215.8 L456.2,192.5 L457.0,218.2 L457.8,219.2 L458.7,212.1 L459.5,178.8 L460.4,208.1 L461.2,209.1 L462.0,210.3 L462.9,189.8 L463.7,186.7 L464.6,195.0 L465.4,174.5 L466.3,203.9 L467.1,174.2 L467.9,197.4 L468.8,184.3 L469.6,173.2 L470.5,172.9 L471.3,177.8 L472.1,184.9 L473.0,205.4 L473.8,195.3 L474.7,164.7 L475.5,165.0 L476.4,139.0 L477.2,156.1 L478.0,207.2 L478.9,195.3 L479.7,169.3 L480.6,182.7 L481.4,185.2 L482.2,172.6 L483.1,176.0 L483.9,188.5 L484.8,181.5 L485.6,182.4 L486.5,180.9 L487.3,167.4 L488.1,142.0 L489.0,149.1 L489.8,199.3 L490.7,175.7 L491.5,181.8 L492.3,169.0 L493.2,182.7 L494.0,199.3 L494.9,169.3 L495.7,161.0 L496.5,170.8 L497.4,177.5 L498.2,180.3 L499.1,180.0 L499.9,185.5 L500.8,176.3 L501.6,206.0 L502.4,191.0 L503.3,184.0 L504.1,188.9 L505.0,177.5 L505.8,177.2 L506.6,192.2 L507.5,170.2 L508.3,184.9 L509.2,217.6 L510.0,195.0 L510.9,199.3 L511.7,201.4 L512.5,196.8 L513.4,179.7 L514.2,197.7 L515.1,181.5 L515.9,172.6 L516.7,165.0 L517.6,174.8 L518.4,196.5 L519.3,192.8 L520.1,187.9 L521.0,200.2 L521.8,216.1 L522.6,210.3 L523.5,204.8 L524.3,203.6 L525.2,204.5 L526.0,195.3 L526.8,192.5 L527.7,229.6 L528.5,227.7 L529.4,234.5 L530.2,234.5 L531.1,236.6 L531.9,233.2 L532.7,236.6 L533.6,238.8 L534.4,250.1 L535.3,222.2 L536.1,205.1 L536.9,182.4 L537.8,185.2 L538.6,180.3 L539.5,184.3 L540.3,198.0 L541.2,198.7 L542.0,215.8 L542.8,199.0 L543.7,205.1 L544.5,208.1 L545.4,203.9 L546.2,197.1 L547.0,200.2 L547.9,231.7 L548.7,211.5 L549.6,191.0 L550.4,218.2 L551.2,200.5 L552.1,203.6 L552.9,219.2 L553.8,223.1 L554.6,212.7 L555.5,213.0 L556.3,220.1 L557.1,249.2 L558.0,260.5 L558.8,266.9 L559.7,270.9 L560.5,276.1 L561.3,280.4 L562.2,276.1 L563.0,266.9 L563.9,256.8 L564.7,257.4 L565.6,242.7 L566.4,220.7 L567.2,212.1 L568.1,207.5 L568.9,175.7 L569.8,203.6 L570.6,165.0 L571.4,180.9 L572.3,200.2 L573.1,200.2 L574.0,189.5 L574.8,187.6 L575.7,202.0 L576.5,218.2 L577.3,238.1 L578.2,205.1 L579.0,211.5 L579.9,226.8 L580.7,229.6 L581.5,234.8 L582.4,258.4 L583.2,256.8 L584.1,257.7 L584.9,259.6 L585.8,235.7 L586.6,225.0 L587.4,204.5 L588.3,220.4 L589.1,197.7 L590.0,196.5 L590.8,196.2 L591.6,213.3 L592.5,195.6 L593.3,181.2 L594.2,178.8 L595.0,179.7 L595.8,174.2 L596.7,204.2 L597.5,204.8 L598.4,183.0 L599.2,231.7 L600.1,233.2 L600.9,231.4 L601.7,240.0 L602.6,237.8 L603.4,237.2 L604.3,237.2 L605.1,233.6 L605.9,231.7 L606.8,225.0 L607.6,221.0 L608.5,202.0 L609.3,202.0 L610.2,197.1 L611.0,203.2 L611.8,181.8 L612.7,169.6 L613.5,137.1 L614.4,115.1 L615.2,136.5 L616.0,143.2 L616.9,114.2 L617.7,140.2 L618.6,139.6 L619.4,145.7 L620.3,158.2 L621.1,170.5 L621.9,182.4 L622.8,209.1 L623.6,206.3 L624.5,231.7 L625.3,199.3 L626.1,171.1 L627.0,171.7 L627.8,170.8 L628.7,187.0 L629.5,176.3 L630.4,184.0 L631.2,191.0 L632.0,192.8 L632.9,165.3 L633.7,167.1 L634.6,186.7 L635.4,176.9 L636.2,172.9 L637.1,165.9 L637.9,177.8 L638.8,162.2 L639.6,171.4 L640.4,156.4 L641.3,161.6 L642.1,169.9 L643.0,170.8 L643.8,172.6 L644.7,187.9 L645.5,211.2 L646.3,233.9 L647.2,182.7 L648.0,179.4 L648.9,185.8 L649.7,184.9 L650.5,186.7 L651.4,172.6 L652.2,166.2 L653.1,167.1 L653.9,144.5 L654.8,158.9 L655.6,142.6 L656.4,149.7 L657.3,169.0 L658.1,175.7 L659.0,146.9 L659.8,160.4 L660.6,206.3 L661.5,157.6 L662.3,184.6 L663.2,215.2 L664.0,189.8 L664.9,219.8 L665.7,222.8 L666.5,239.4 L667.4,231.7 L668.2,208.8 L669.1,218.6 L669.9,223.1 L670.7,221.9 L671.6,224.7 L672.4,224.4 L673.3,247.6 L674.1,220.1 L675.0,225.3 L675.8,211.8 L676.6,223.8 L677.5,186.4 L678.3,204.2 L679.2,184.0 L680.0,198.7" stroke="#8c564b" stroke-width="2" fill="none" opacity="0.8"/>
<!-- Forecast Difference -->
<path d="M80.0,420.0 L80.8,420.0 L81.7,420.0 L82.5,420.0 L83.4,420.0 L84.2,420.0 L85.0,420.0 L85.9,420.0 L86.7,420.0 L87.6,420.0 L88.4,420.0 L89.3,420.0 L90.1,420.0 L90.9,420.0 L91.8,420.0 L92.6,420.0 L93.5,420.0 L94.3,420.0 L95.1,420.0 L96.0,420.0 L96.8,420.0 L97.7,420.0 L98.5,420.0 L99.4,420.0 L100.2,420.0 L101.0,420.0 L101.9,420.0 L102.7,420.0 L103.6,420.0 L104.4,420.0 L105.2,420.0 L106.1,420.0 L106.9,420.0 L107.8,420.0 L108.6,420.0 L109.5,420.0 L110.3,420.0 L111.1,420.0 L112.0,420.0 L112.8,420.0 L113.7,420.0 L114.5,420.0 L115.3,420.0 L116.2,420.0 L117.0,420.0 L117.9,420.0 L118.7,420.0 L119.6,420.0 L120.4,420.0 L121.2,420.0 L122.1,420.0 L122.9,420.0 L123.8,420.0 L124.6,420.0 L125.4,420.0 L126.3,420.0 L127.1,420.0 L128.0,420.0 L128.8,420.0 L129.6,420.0 L130.5,420.0 L131.3,420.0 L132.2,420.0 L133.0,420.0 L133.9,420.0 L134.7,420.0 L135.5,420.0 L136.4,420.0 L137.2,420.0 L138.1,420.0 L138.9,420.0 L139.7,420.0 L140.6,420.0 L141.4,420.0 L142.3,420.0 L143.1,420.0 L144.0,420.0 L144.8,420.0 L145.6,420.0 L146.5,420.0 L147.3,420.0 L148.2,420.0 L149.0,420.0 L149.8,420.0 L150.7,420.0 L151.5,420.0 L152.4,420.0 L153.2,420.0 L154.1,420.0 L154.9,420.0 L155.7,420.0 L156.6,420.0 L157.4,420.0 L158.3,420.0 L159.1,420.0 L159.9,420.0 L160.8,420.0 L161.6,420.0 L162.5,420.0 L163.3,420.0 L164.2,420.0 L165.0,420.0 L165.8,420.0 L166.7,420.0 L167.5,420.0 L168.4,420.0 L169.2,420.0 L170.0,420.0 L170.9,420.0 L171.7,420.0 L172.6,420.0 L173.4,420.0 L174.2,420.0 L175.1,420.0 L175.9,420.0 L176.8,420.0 L177.6,420.0 L178.5,420.0 L179.3,420.0 L180.1,420.0 L181.0,420.0 L181.8,420.0 L182.7,420.0 L183.5,420.0 L184.3,420.0 L185.2,420.0 L186.0,420.0 L186.9,420.0 L187.7,420.0 L188.6,420.0 L189.4,420.0 L190.2,420.0 L191.1,420.0 L191.9,420.0 L192.8,420.0 L193.6,420.0 L194.4,420.0 L195.3,420.0 L196.1,420.0 L197.0,420.0 L197.8,420.0 L198.7,420.0 L199.5,420.0 L200.3,420.0 L201.2,420.0 L202.0,420.0 L202.9,420.0 L203.7,420.0 L204.5,420.0 L205.4,420.0 L206.2,420.0 L207.1,420.0 L207.9,420.0 L208.8,420.0 L209.6,420.0 L210.4,420.0 L211.3,420.0 L212.1,420.0 L213.0,420.0 L213.8,420.0 L214.6,420.0 L215.5,420.0 L216.3,420.0 L217.2,420.0 L218.0,420.0 L218.8,420.0 L219.7,420.0 L220.5,420.0 L221.4,420.0 L222.2,420.0 L223.1,420.0 L223.9,420.0 L224.7,420.0 L225.6,420.0 L226.4,420.0 L227.3,420.0 L228.1,420.0 L228.9,420.0 L229.8,420.0 L230.6,420.0 L231.5,420.0 L232.3,420.0 L233.2,420.0 L234.0,420.0 L234.8,420.0 L235.7,420.0 L236.5,420.0 L237.4,420.0 L238.2,420.0 L239.0,420.0 L239.9,420.0 L240.7,420.0 L241.6,420.0 L242.4,420.0 L243.3,420.0 L244.1,420.0 L244.9,420.0 L245.8,420.0 L246.6,420.0 L247.5,420.0 L248.3,420.0 L249.1,420.0 L250.0,420.0 L250.8,420.0 L251.7,420.0 L252.5,420.0 L253.4,420.0 L254.2,420.0 L255.0,420.0 L255.9,420.0 L256.7,420.0 L257.6,420.0 L258.4,420.0 L259.2,420.0 L260.1,420.0 L260.9,420.0 L261.8,420.0 L262.6,420.0 L263.5,420.0 L264.3,420.0 L265.1,420.0 L266.0,420.0 L266.8,420.0 L267.7,420.0 L268.5,420.0 L269.3,420.0 L270.2,420.0 L271.0,420.0 L271.9,420.0 L272.7,420.0 L273.5,420.0 L274.4,420.0 L275.2,420.0 L276.1,420.0 L276.9,420.0 L277.8,420.0 L278.6,420.0 L279.4,420.0 L280.3,420.0 L281.1,420.0 L282.0,420.0 L282.8,420.0 L283.6,420.0 L284.5,420.0 L285.3,420.0 L286.2,420.0 L287.0,420.0 L287.9,420.0 L288.7,420.0 L289.5,420.0 L290.4,420.0 L291.2,420.0 L292.1,420.0 L292.9,420.0 L293.7,420.0 L294.6,420.0 L295.4,420.0 L296.3,420.0 L297.1,420.0 L298.0,420.0 L298.8,420.0 L299.6,420.0 L300.5,420.0 L301.3,420.0 L302.2,420.0 L303.0,420.0 L303.8,420.0 L304.7,420.0 L305.5,420.0 L306.4,420.0 L307.2,420.0 L308.1,420.0 L308.9,420.0 L309.7,420.0 L310.6,420.0 L311.4,420.0 L312.3,420.0 L313.1,420.0 L313.9,420.0 L314.8,420.0 L315.6,420.0 L316.5,420.0 L317.3,420.0 L318.1,420.0 L319.0,420.0 L319.8,420.0 L320.7,420.0 L321.5,420.0 L322.4,420.0 L323.2,420.0 L324.0,420.0 L324.9,420.0 L325.7,420.0 L326.6,420.0 L327.4,420.0 L328.2,420.0 L329.1,420.0 L329.9,420.0 L330.8,420.0 L331.6,420.0 L332.5,420.0 L333.3,420.0 L334.1,420.0 L335.0,420.0 L335.8,420.0 L336.7,420.0 L337.5,420.0 L338.3,420.0 L339.2,420.0 L340.0,420.0 L340.9,420.0 L341.7,420.0 L342.6,420.0 L343.4,420.0 L344.2,420.0 L345.1,420.0 L345.9,420.0 L346.8,420.0 L347.6,420.0 L348.4,420.0 L349.3,420.0 L350.1,420.0 L351.0,420.0 L351.8,420.0 L352.7,420.0 L353.5,420.0 L354.3,420.0 L355.2,420.0 L356.0,420.0 L356.9,420.0 L357.7,420.0 L358.5,420.0 L359.4,420.0 L360.2,420.0 L361.1,420.0 L361.9,420.0 L362.7,420.0 L363.6,420.0 L364.4,420.0 L365.3,420.0 L366.1,420.0 L367.0,420.0 L367.8,420.0 L368.6,420.0 L369.5,420.0 L370.3,420.0 L371.2,420.0 L372.0,420.0 L372.8,420.0 L373.7,420.0 L374.5,420.0 L375.4,420.0 L376.2,420.0 L377.1,420.0 L377.9,420.0 L378.7,420.0 L379.6,420.0 L380.4,420.0 L381.3,420.0 L382.1,420.0 L382.9,420.0 L383.8,420.0 L384.6,420.0 L385.5,420.0 L386.3,420.0 L387.2,420.0 L388.0,420.0 L388.8,420.0 L389.7,420.0 L390.5,420.0 L391.4,420.0 L392.2,420.0 L393.0,420.0 L393.9,420.0 L394.7,420.0 L395.6,420.0 L396.4,420.0 L397.3,420.0 L398.1,420.0 L398.9,420.0 L399.8,420.0 L400.6,420.0 L401.5,420.0 L402.3,420.0 L403.1,420.0 L404.0,420.0 L404.8,420.0 L405.7,420.0 L406.5,420.0 L407.3,420.0 L408.2,420.0 L409.0,420.0 L409.9,420.0 L410.7,420.0 L411.6,420.0 L412.4,420.0 L413.2,420.0 L414.1,420.0 L414.9,420.0 L415.8,420.0 L416.6,420.0 L417.4,420.0 L418.3,420.0 L419.1,420.0 L420.0,420.0 L420.8,420.0 L421.7,420.0 L422.5,420.0 L423.3,420.0 L424.2,420.0 L425.0,420.0 L425.9,420.0 L426.7,420.0 L427.5,420.0 L428.4,420.0 L429.2,420.0 L430.1,420.0 L430.9,420.0 L431.8,420.0 L432.6,420.0 L433.4,420.0 L434.3,420.0 L435.1,420.0 L436.0,420.0 L436.8,420.0 L437.6,420.0 L438.5,420.0 L439.3,420.0 L440.2,420.0 L441.0,420.0 L441.9,420.0 L442.7,420.0 L443.5,420.0 L444.4,420.0 L445.2,420.0 L446.1,420.0 L446.9,420.0 L447.7,420.0 L448.6,420.0 L449.4,420.0 L450.3,420.0 L451.1,420.0 L451.9,420.0 L452.8,420.0 L453.6,420.0 L454.5,420.0 L455.3,420.0 L456.2,420.0 L457.0,420.0 L457.8,420.0 L458.7,420.0 L459.5,420.0 L460.4,420.0 L461.2,420.0 L462.0,420.0 L462.9,420.0 L463.7,420.0 L464.6,420.0 L465.4,420.0 L466.3,420.0 L467.1,420.0 L467.9,420.0 L468.8,420.0 L469.6,420.0 L470.5,420.0 L471.3,420.0 L472.1,420.0 L473.0,420.0 L473.8,420.0 L474.7,420.0 L475.5,420.0 L476.4,420.0 L477.2,420.0 L478.0,420.0 L478.9,420.0 L479.7,420.0 L480.6,420.0 L481.4,420.0 L482.2,420.0 L483.1,420.0 L483.9,420.0 L484.8,420.0 L485.6,420.0 L486.5,420.0 L487.3,420.0 L488.1,420.0 L489.0,420.0 L489.8,420.0 L490.7,420.0 L491.5,420.0 L492.3,420.0 L493.2,420.0 L494.0,420.0 L494.9,420.0 L495.7,420.0 L496.5,420.0 L497.4,420.0 L498.2,420.0 L499.1,420.0 L499.9,420.0 L500.8,420.0 L501.6,420.0 L502.4,420.0 L503.3,420.0 L504.1,420.0 L505.0,420.0 L505.8,420.0 L506.6,420.0 L507.5,420.0 L508.3,420.0 L509.2,420.0 L510.0,420.0 L510.9,420.0 L511.7,420.0 L512.5,420.0 L513.4,420.0 L514.2,420.0 L515.1,420.0 L515.9,420.0 L516.7,420.0 L517.6,420.0 L518.4,420.0 L519.3,420.0 L520.1,420.0 L521.0,420.0 L521.8,420.0 L522.6,420.0 L523.5,420.0 L524.3,420.0 L525.2,420.0 L526.0,420.0 L526.8,420.0 L527.7,420.0 L528.5,420.0 L529.4,420.0 L530.2,420.0 L531.1,420.0 L531.9,420.0 L532.7,420.0 L533.6,420.0 L534.4,420.0 L535.3,420.0 L536.1,420.0 L536.9,420.0 L537.8,420.0 L538.6,420.0 L539.5,420.0 L540.3,420.0 L541.2,420.0 L542.0,420.0 L542.8,420.0 L543.7,420.0 L544.5,420.0 L545.4,420.0 L546.2,420.0 L547.0,420.0 L547.9,420.0 L548.7,420.0 L549.6,420.0 L550.4,420.0 L551.2,420.0 L552.1,420.0 L552.9,420.0 L553.8,420.0 L554.6,420.0 L555.5,420.0 L556.3,420.0 L557.1,420.0 L558.0,420.0 L558.8,420.0 L559.7,420.0 L560.5,420.0 L561.3,420.0 L562.2,420.0 L563.0,420.0 L563.9,420.0 L564.7,420.0 L565.6,420.0 L566.4,420.0 L567.2,420.0 L568.1,420.0 L568.9,420.0 L569.8,420.0 L570.6,420.0 L571.4,420.0 L572.3,420.0 L573.1,420.0 L574.0,420.0 L574.8,420.0 L575.7,420.0 L576.5,420.0 L577.3,420.0 L578.2,420.0 L579.0,420.0 L579.9,420.0 L580.7,420.0 L581.5,420.0 L582.4,420.0 L583.2,420.0 L584.1,420.0 L584.9,420.0 L585.8,420.0 L586.6,420.0 L587.4,420.0 L588.3,420.0 L589.1,420.0 L590.0,420.0 L590.8,420.0 L591.6,420.0 L592.5,420.0 L593.3,420.0 L594.2,420.0 L595.0,420.0 L595.8,420.0 L596.7,420.0 L597.5,420.0 L598.4,420.0 L599.2,420.0 L600.1,420.0 L600.9,420.0 L601.7,420.0 L602.6,420.0 L603.4,420.0 L604.3,420.0 L605.1,420.0 L605.9,420.0 L606.8,420.0 L607.6,420.0 L608.5,420.0 L609.3,420.0 L610.2,420.0 L611.0,420.0 L611.8,420.0 L612.7,420.0 L613.5,420.0 L614.4,420.0 L615.2,420.0 L616.0,420.0 L616.9,420.0 L617.7,420.0 L618.6,420.0 L619.4,420.0 L620.3,420.0 L621.1,420.0 L621.9,420.0 L622.8,420.0 L623.6,420.0 L624.5,420.0 L625.3,420.0 L626.1,420.0 L627.0,420.0 L627.8,420.0 L628.7,420.0 L629.5,420.0 L630.4,420.0 L631.2,420.0 L632.0,420.0 L632.9,420.0 L633.7,420.0 L634.6,420.0 L635.4,420.0 L636.2,420.0 L637.1,420.0 L637.9,420.0 L638.8,420.0 L639.6,420.0 L640.4,420.0 L641.3,420.0 L642.1,420.0 L643.0,420.0 L643.8,420.0 L644.7,420.0 L645.5,420.0 L646.3,420.0 L647.2,420.0 L648.0,420.0 L648.9,420.0 L649.7,420.0 L650.5,420.0 L651.4,420.0 L652.2,420.0 L653.1,420.0 L653.9,420.0 L654.8,420.0 L655.6,420.0 L656.4,420.0 L657.3,420.0 L658.1,420.0 L659.0,420.0 L659.8,420.0 L660.6,420.0 L661.5,420.0 L662.3,420.0 L663.2,420.0 L664.0,420.0 L664.9,420.0 L665.7,420.0 L666.5,420.0 L667.4,420.0 L668.2,420.0 L669.1,420.0 L669.9,420.0 L670.7,420.0 L671.6,420.0 L672.4,420.0 L673.3,420.0 L674.1,420.0 L675.0,420.0 L675.8,420.0 L676.6,420.0 L677.5,420.0 L678.3,420.0 L679.2,420.0 L680.0,420.0" stroke="#e377c2" stroke-width="2" fill="none" opacity="0.8"/>

<!-- Legend -->
<line x1="690" y1="70" x2="705" y2="70" stroke="#1f77b4" stroke-width="3"/>
<text x="710" y="74" class="legend">Wind Generation</text>
<line x1="690" y1="88" x2="705" y2="88" stroke="#ff7f0e" stroke-width="3"/>
<text x="710" y="92" class="legend">Hydro Generation</text>
<line x1="690" y1="106" x2="705" y2="106" stroke="#2ca02c" stroke-width="3"/>
<text x="710" y="110" class="legend">Thermal Generation</text>
<line x1="690" y1="124" x2="705" y2="124" stroke="#d62728" stroke-width="3"/>
<text x="710" y="128" class="legend">Solar Generation</text>
<line x1="690" y1="142" x2="705" y2="142" stroke="#9467bd" stroke-width="3"/>
<text x="710" y="146" class="legend">Forecast</text>
<line x1="690" y1="160" x2="705" y2="160" stroke="#8c564b" stroke-width="3"/>
<text x="710" y="164" class="legend">Total Generation</text>
<line x1="690" y1="178" x2="705" y2="178" stroke="#e377c2" stroke-width="3"/>
<text x="710" y="182" class="legend">Forecast Difference</text>

<!-- Date range -->
<text x="80" y="495" class="legend">Range: 04/30 - 05/29/2026 (714 records)</text>
</svg>