<?xml version="1.0" encoding="UTF-8"?>
<svg width="800" height="500" xmlns="http://www.w3.org/2000/svg">
<style>
.axis-line { stroke: #333; stroke-width: 1; }
.grid-line { stroke: #ddd; stroke-width: 0.5; }
.title { font: 16px Arial; text-anchor: middle; fill: #333; }
.axis-label { font: 12px Arial; text-anchor: middle; fill: #666; }
.legend { font: 10px Arial; fill: #333; }
</style>

<!-- Title -->
<text x="400.0" y="25" class="title">Northwestern Energy Generation Data - Past 30 Days</text>

<!-- Plot area background -->
<rect x="80" y="50" width="600" height="370" fill="white" stroke="#ddd"/>

<!-- Y-axis -->
<line x1="80" y1="50" x2="80" y2="420" class="axis-line"/>
<text x="30" y="235.0" class="axis-label" transform="rotate(-90, 30, 235.0)">Generation (MW)</text>

<!-- X-axis -->
<line x1="80" y1="420" x2="680" y2="420" class="axis-line"/>
<text x="380.0" y="480" class="axis-label">Time</text>
<line x1="80" y1="420.0" x2="680" y2="420.0" class="grid-line"/>
<text x="70" y="425.0" class="legend" text-anchor="end">0</text>
<line x1="80" y1="327.5" x2="680" y2="327.5" class="grid-line"/>
<text x="70" y="332.5" class="legend" text-anchor="end">302</text>
<line x1="80" y1="235.0" x2="680" y2="235.0" class="grid-line"/>
<text x="70" y="240.0" class="legend" text-anchor="end">604</text>
<line x1="80" y1="142.5" x2="680" y2="142.5" class="grid-line"/>
<text x="70" y="147.5" class="legend" text-anchor="end">906</text>
<line x1="80" y1="50.0" x2="680" y2="50.0" class="grid-line"/>
<text x="70" y="55.0" class="legend" text-anchor="end">1209</text>
<!-- Wind Generation -->
<path d="M80.0,331.5 L80.8,351.4 L81.7,364.3 L82.5,365.2 L83.4,352.3 L84.2,376.2 L85.0,379.0 L85.9,378.7 L86.7,358.8 L87.6,388.5 L88.4,383.3 L89.3,384.5 L90.1,341.0 L90.9,368.9 L91.8,372.2 L92.6,354.5 L93.5,360.9 L94.3,377.4 L95.1,369.2 L96.0,343.5 L96.8,338.3 L97.7,327.5 L98.5,330.3 L99.4,325.7 L100.2,314.1 L101.0,308.9 L101.9,320.8 L102.7,335.2 L103.6,337.3 L104.4,341.6 L105.2,355.1 L106.1,340.1 L106.9,319.3 L107.8,330.6 L108.6,325.7 L109.5,329.1 L110.3,339.5 L111.1,346.2 L112.0,343.2 L112.8,340.1 L113.7,364.6 L114.5,393.7 L115.3,397.0 L116.2,386.0 L117.0,380.5 L117.9,381.7 L118.7,386.0 L119.6,394.9 L120.4,403.2 L121.2,415.4 L122.1,409.3 L122.9,403.8 L123.8,409.9 L124.6,405.3 L125.4,396.7 L126.3,398.3 L127.1,403.5 L128.0,409.9 L128.8,407.4 L129.6,409.0 L130.5,407.4 L131.3,387.5 L132.2,386.6 L133.0,384.5 L133.9,378.1 L134.7,370.4 L135.5,374.4 L136.4,382.6 L137.2,393.7 L138.1,405.3 L138.9,412.0 L139.7,414.8 L140.6,403.8 L141.4,394.6 L142.3,391.2 L143.1,384.5 L144.0,371.6 L144.8,400.7 L145.6,405.6 L146.5,400.1 L147.3,402.9 L148.2,401.6 L149.0,372.5 L149.8,377.4 L150.7,374.1 L151.5,374.7 L152.4,371.3 L153.2,368.3 L154.1,377.8 L154.9,386.0 L155.7,393.7 L156.6,403.5 L157.4,412.3 L158.3,408.7 L159.1,412.3 L159.9,414.2 L160.8,416.9 L161.6,416.0 L162.5,417.6 L163.3,417.6 L164.2,415.1 L165.0,415.1 L165.8,418.8 L166.7,420.0 L167.5,420.0 L168.4,419.7 L169.2,419.1 L170.0,418.5 L170.9,414.5 L171.7,413.9 L172.6,407.8 L173.4,411.7 L174.2,416.3 L175.1,417.6 L175.9,414.8 L176.8,414.8 L177.6,408.4 L178.5,404.7 L179.3,394.9 L180.1,384.5 L181.0,388.5 L181.8,391.5 L182.7,387.2 L183.5,389.7 L184.3,381.1 L185.2,384.5 L186.0,366.7 L186.9,383.0 L187.7,385.7 L188.6,399.2 L189.4,404.1 L190.2,400.7 L191.1,409.9 L191.9,409.6 L192.8,410.5 L193.6,406.5 L194.4,392.4 L195.3,398.6 L196.1,393.1 L197.0,375.3 L197.8,364.9 L198.7,349.0 L199.5,383.3 L200.3,386.3 L201.2,394.6 L202.0,394.6 L202.9,384.5 L203.7,388.8 L204.5,379.3 L205.4,386.0 L206.2,380.8 L207.1,377.1 L207.9,387.5 L208.8,375.3 L209.6,376.2 L210.4,383.9 L211.3,389.7 L212.1,409.3 L213.0,413.9 L213.8,415.7 L214.6,412.3 L215.5,411.4 L216.3,403.8 L217.2,399.2 L218.0,402.2 L218.8,394.3 L219.7,399.8 L220.5,392.4 L221.4,399.5 L222.2,407.8 L223.1,407.4 L223.9,383.9 L224.7,374.1 L225.6,382.3 L226.4,382.0 L227.3,395.5 L228.1,393.4 L228.9,392.1 L229.8,397.7 L230.6,398.3 L231.5,408.4 L232.3,413.3 L233.2,416.3 L234.0,412.3 L234.8,408.4 L235.7,407.4 L236.5,405.6 L237.4,400.7 L238.2,390.3 L239.0,377.1 L239.9,373.2 L240.7,375.6 L241.6,380.8 L242.4,385.4 L243.3,383.6 L244.1,392.8 L244.9,396.7 L245.8,399.5 L246.6,399.5 L247.5,401.9 L248.3,402.9 L249.1,401.3 L250.0,398.9 L250.8,395.5 L251.7,403.5 L252.5,408.7 L253.4,406.5 L254.2,407.4 L255.0,391.5 L255.9,397.7 L256.7,393.4 L257.6,389.1 L258.4,387.5 L259.2,355.1 L260.1,360.3 L260.9,349.9 L261.8,370.7 L262.6,379.9 L263.5,387.5 L264.3,397.0 L265.1,403.8 L266.0,407.1 L266.8,403.8 L267.7,390.3 L268.5,398.6 L269.3,392.8 L270.2,391.8 L271.0,395.5 L271.9,398.9 L272.7,398.6 L273.5,393.4 L274.4,403.2 L275.2,388.8 L276.1,416.9 L276.9,415.7 L277.8,416.9 L278.6,416.9 L279.4,416.0 L280.3,413.0 L281.1,413.3 L282.0,415.7 L282.8,416.9 L283.6,413.9 L284.5,408.7 L285.3,397.3 L286.2,380.2 L287.0,389.1 L287.9,378.4 L288.7,368.3 L289.5,370.7 L290.4,360.6 L291.2,356.6 L292.1,378.7 L292.9,366.1 L293.7,377.4 L294.6,392.4 L295.4,392.8 L296.3,385.4 L297.1,353.6 L298.0,326.9 L298.8,345.3 L299.6,353.9 L300.5,382.0 L301.3,382.3 L302.2,377.8 L303.0,395.8 L303.8,387.9 L304.7,389.1 L305.5,382.6 L306.4,372.9 L307.2,370.1 L308.1,360.3 L308.9,346.5 L309.7,341.6 L310.6,335.8 L311.4,348.1 L312.3,358.8 L313.1,380.2 L313.9,374.7 L314.8,360.3 L315.6,377.4 L316.5,386.0 L317.3,395.8 L318.1,408.4 L319.0,408.4 L319.8,406.8 L320.7,404.1 L321.5,399.8 L322.4,398.3 L323.2,385.4 L324.0,377.8 L324.9,372.9 L325.7,371.3 L326.6,349.9 L327.4,345.6 L328.2,353.0 L329.1,358.2 L329.9,347.1 L330.8,358.2 L331.6,363.7 L332.5,378.1 L333.3,401.3 L334.1,403.5 L335.0,407.4 L335.8,416.3 L336.7,415.4 L337.5,412.0 L338.3,408.4 L339.2,403.5 L340.0,390.0 L340.9,384.5 L341.7,381.4 L342.6,391.2 L343.4,379.3 L344.2,372.2 L345.1,377.4 L345.9,371.9 L346.8,368.6 L347.6,369.5 L348.4,361.2 L349.3,365.8 L350.1,367.3 L351.0,348.4 L351.8,364.3 L352.7,355.4 L353.5,372.5 L354.3,387.5 L355.2,380.8 L356.0,360.6 L356.9,341.9 L357.7,318.1 L358.5,318.4 L359.4,327.2 L360.2,342.5 L361.1,336.7 L361.9,352.3 L362.7,379.3 L363.6,395.5 L364.4,406.2 L365.3,367.6 L366.1,370.1 L367.0,383.6 L367.8,387.2 L368.6,386.6 L369.5,372.9 L370.3,387.2 L371.2,384.2 L372.0,389.7 L372.8,399.8 L373.7,391.2 L374.5,390.3 L375.4,400.7 L376.2,399.2 L377.1,397.0 L377.9,379.3 L378.7,389.7 L379.6,390.0 L380.4,400.1 L381.3,401.9 L382.1,404.1 L382.9,411.7 L383.8,412.7 L384.6,406.2 L385.5,394.6 L386.3,391.5 L387.2,381.4 L388.0,370.7 L388.8,368.6 L389.7,365.5 L390.5,363.7 L391.4,371.6 L392.2,361.5 L393.0,367.6 L393.9,368.6 L394.7,358.2 L395.6,326.0 L396.4,368.0 L397.3,384.2 L398.1,366.1 L398.9,387.5 L399.8,358.8 L400.6,365.5 L401.5,372.2 L402.3,387.2 L403.1,390.0 L404.0,399.5 L404.8,388.8 L405.7,403.2 L406.5,405.6 L407.3,397.0 L408.2,395.5 L409.0,397.3 L409.9,399.8 L410.7,412.0 L411.6,416.6 L412.4,416.9 L413.2,417.9 L414.1,417.6 L414.9,416.3 L415.8,416.6 L416.6,415.4 L417.4,413.9 L418.3,414.5 L419.1,416.9 L420.0,415.7 L420.8,412.3 L421.7,409.0 L422.5,406.8 L423.3,405.6 L424.2,411.4 L425.0,408.4 L425.9,409.0 L426.7,406.8 L427.5,403.8 L428.4,407.4 L429.2,407.4 L430.1,397.0 L430.9,389.7 L431.8,379.6 L432.6,394.6 L433.4,412.3 L434.3,411.1 L435.1,410.8 L436.0,411.7 L436.8,415.1 L437.6,411.4 L438.5,406.8 L439.3,399.2 L440.2,383.0 L441.0,371.0 L441.9,361.2 L442.7,348.1 L443.5,377.1 L444.4,369.8 L445.2,373.5 L446.1,367.6 L446.9,365.5 L447.7,364.3 L448.6,359.4 L449.4,353.0 L450.3,332.7 L451.1,333.1 L451.9,339.5 L452.8,345.9 L453.6,355.1 L454.5,358.8 L455.3,365.2 L456.2,368.9 L457.0,384.8 L457.8,396.4 L458.7,405.9 L459.5,410.5 L460.4,409.3 L461.2,409.9 L462.0,411.1 L462.9,411.7 L463.7,413.3 L464.6,412.0 L465.4,403.8 L466.3,398.6 L467.1,400.1 L467.9,404.1 L468.8,405.3 L469.6,409.6 L470.5,410.2 L471.3,409.3 L472.1,407.4 L473.0,398.3 L473.8,386.9 L474.7,374.7 L475.5,380.2 L476.4,397.0 L477.2,408.4 L478.0,413.3 L478.9,415.4 L479.7,416.6 L480.6,418.5 L481.4,413.9 L482.2,406.5 L483.1,413.0 L483.9,413.6 L484.8,409.0 L485.6,386.6 L486.5,381.7 L487.3,385.7 L488.1,372.5 L489.0,379.3 L489.8,354.8 L490.7,343.8 L491.5,363.7 L492.3,389.4 L493.2,371.9 L494.0,335.8 L494.9,322.3 L495.7,353.6 L496.5,323.3 L497.4,337.6 L498.2,340.7 L499.1,317.7 L499.9,330.6 L500.8,326.9 L501.6,348.1 L502.4,344.1 L503.3,348.4 L504.1,359.1 L505.0,364.3 L505.8,377.4 L506.6,373.5 L507.5,348.1 L508.3,365.5 L509.2,357.5 L510.0,329.1 L510.9,359.1 L511.7,359.1 L512.5,322.9 L513.4,314.7 L514.2,313.5 L515.1,321.1 L515.9,341.9 L516.7,328.5 L517.6,325.1 L518.4,322.9 L519.3,315.3 L520.1,312.5 L521.0,314.4 L521.8,348.4 L522.6,322.3 L523.5,314.4 L524.3,321.7 L525.2,339.8 L526.0,318.7 L526.8,318.7 L527.7,317.1 L528.5,338.9 L529.4,352.0 L530.2,332.1 L531.1,329.1 L531.9,346.2 L532.7,356.6 L533.6,357.2 L534.4,365.8 L535.3,370.7 L536.1,374.4 L536.9,396.1 L537.8,398.9 L538.6,400.4 L539.5,392.4 L540.3,396.4 L541.2,404.1 L542.0,407.8 L542.8,398.0 L543.7,398.3 L544.5,403.2 L545.4,398.0 L546.2,395.8 L547.0,400.1 L547.9,398.3 L548.7,405.9 L549.6,408.1 L550.4,413.0 L551.2,411.1 L552.1,382.3 L552.9,372.2 L553.8,349.0 L554.6,349.6 L555.5,368.6 L556.3,364.9 L557.1,382.0 L558.0,373.8 L558.8,351.1 L559.7,362.4 L560.5,367.3 L561.3,367.6 L562.2,380.2 L563.0,389.7 L563.9,369.2 L564.7,383.0 L565.6,377.4 L566.4,376.2 L567.2,375.6 L568.1,344.4 L568.9,335.5 L569.8,333.7 L570.6,332.1 L571.4,355.4 L572.3,353.3 L573.1,357.9 L574.0,332.1 L574.8,342.8 L575.7,363.4 L576.5,365.5 L577.3,366.1 L578.2,382.0 L579.0,370.7 L579.9,376.2 L580.7,374.7 L581.5,379.9 L582.4,371.3 L583.2,377.4 L584.1,376.5 L584.9,362.1 L585.8,364.6 L586.6,374.7 L587.4,380.8 L588.3,390.3 L589.1,375.3 L590.0,389.7 L590.8,405.6 L591.6,405.0 L592.5,397.0 L593.3,395.5 L594.2,401.9 L595.0,404.4 L595.8,413.6 L596.7,407.8 L597.5,403.8 L598.4,398.6 L599.2,406.2 L600.1,412.3 L600.9,414.2 L601.7,416.0 L602.6,415.1 L603.4,411.1 L604.3,409.3 L605.1,412.0 L605.9,401.9 L606.8,389.1 L607.6,376.5 L608.5,365.5 L609.3,357.5 L610.2,358.8 L611.0,353.3 L611.8,374.1 L612.7,370.4 L613.5,369.5 L614.4,371.6 L615.2,372.9 L616.0,381.7 L616.9,396.4 L617.7,395.5 L618.6,392.8 L619.4,377.1 L620.3,370.7 L621.1,357.2 L621.9,360.6 L622.8,371.0 L623.6,364.3 L624.5,379.3 L625.3,391.2 L626.1,390.6 L627.0,367.0 L627.8,352.6 L628.7,369.8 L629.5,363.4 L630.4,371.9 L631.2,369.5 L632.0,386.0 L632.9,374.7 L633.7,374.1 L634.6,378.7 L635.4,390.0 L636.2,398.3 L637.1,401.0 L637.9,401.3 L638.8,405.6 L639.6,398.0 L640.4,402.2 L641.3,388.5 L642.1,375.9 L643.0,366.1 L643.8,374.7 L644.7,371.9 L645.5,373.8 L646.3,372.5 L647.2,386.9 L648.0,390.3 L648.9,391.5 L649.7,390.6 L650.5,399.2 L651.4,387.2 L652.2,392.1 L653.1,404.4 L653.9,394.3 L654.8,383.3 L655.6,390.3 L656.4,405.0 L657.3,399.8 L658.1,388.2 L659.0,393.7 L659.8,398.3 L660.6,405.3 L661.5,398.0 L662.3,392.1 L663.2,393.7 L664.0,397.3 L664.9,401.0 L665.7,403.8 L666.5,412.0 L667.4,412.3 L668.2,414.5 L669.1,416.9 L669.9,416.0 L670.7,415.7 L671.6,414.8 L672.4,409.0 L673.3,408.7 L674.1,406.5 L675.0,409.9 L675.8,414.8 L676.6,417.2 L677.5,409.3 L678.3,409.6 L679.2,413.9 L680.0,416.6" stroke="#1f77b4" stroke-width="2" fill="none" opacity="0.8"/>
<!-- Hydro Generation -->
<path d="M80.0,335.2 L80.8,334.6 L81.7,334.3 L82.5,334.3 L83.4,334.3 L84.2,333.7 L85.0,334.3 L85.9,334.3 L86.7,334.3 L87.6,334.3 L88.4,333.1 L89.3,333.1 L90.1,333.1 L90.9,333.1 L91.8,333.1 L92.6,332.7 L93.5,333.1 L94.3,333.1 L95.1,332.7 L96.0,333.1 L96.8,333.1 L97.7,333.1 L98.5,333.7 L99.4,333.7 L100.2,334.3 L101.0,333.7 L101.9,334.0 L102.7,335.8 L103.6,333.7 L104.4,333.7 L105.2,334.0 L106.1,333.4 L106.9,334.0 L107.8,333.7 L108.6,332.4 L109.5,332.1 L110.3,332.4 L111.1,331.5 L112.0,331.5 L112.8,330.0 L113.7,330.3 L114.5,330.0 L115.3,330.0 L116.2,329.1 L117.0,329.4 L117.9,329.1 L118.7,329.1 L119.6,328.8 L120.4,330.3 L121.2,330.6 L122.1,330.3 L122.9,330.3 L123.8,330.0 L124.6,331.2 L125.4,330.9 L126.3,331.2 L127.1,330.6 L128.0,331.2 L128.8,331.8 L129.6,331.8 L130.5,331.2 L131.3,331.5 L132.2,331.5 L133.0,331.5 L133.9,331.5 L134.7,331.5 L135.5,331.5 L136.4,331.5 L137.2,331.5 L138.1,331.5 L138.9,331.5 L139.7,332.1 L140.6,332.1 L141.4,332.1 L142.3,332.1 L143.1,332.1 L144.0,332.1 L144.8,333.1 L145.6,332.4 L146.5,333.1 L147.3,333.1 L148.2,333.1 L149.0,333.7 L149.8,333.4 L150.7,334.0 L151.5,334.0 L152.4,334.3 L153.2,334.0 L154.1,334.0 L154.9,334.0 L155.7,334.0 L156.6,333.1 L157.4,333.1 L158.3,333.4 L159.1,333.4 L159.9,333.1 L160.8,333.1 L161.6,333.4 L162.5,333.4 L163.3,333.4 L164.2,333.1 L165.0,333.1 L165.8,334.6 L166.7,334.9 L167.5,334.0 L168.4,334.9 L169.2,333.7 L170.0,333.1 L170.9,333.1 L171.7,333.4 L172.6,333.7 L173.4,334.6 L174.2,334.6 L175.1,334.6 L175.9,334.3 L176.8,334.0 L177.6,334.0 L178.5,334.3 L179.3,334.0 L180.1,334.0 L181.0,334.0 L181.8,334.0 L182.7,333.7 L183.5,333.7 L184.3,346.2 L185.2,346.2 L186.0,346.5 L186.9,346.2 L187.7,346.5 L188.6,334.3 L189.4,334.3 L190.2,334.0 L191.1,334.0 L191.9,334.0 L192.8,333.4 L193.6,333.7 L194.4,333.7 L195.3,333.7 L196.1,334.0 L197.0,334.0 L197.8,333.7 L198.7,333.7 L199.5,333.7 L200.3,334.0 L201.2,334.0 L202.0,334.3 L202.9,333.7 L203.7,333.7 L204.5,334.9 L205.4,334.9 L206.2,336.1 L207.1,336.4 L207.9,336.4 L208.8,334.3 L209.6,334.6 L210.4,334.6 L211.3,334.6 L212.1,334.6 L213.0,334.6 L213.8,334.3 L214.6,334.3 L215.5,334.3 L216.3,334.0 L217.2,334.0 L218.0,334.6 L218.8,334.9 L219.7,334.9 L220.5,335.5 L221.4,335.5 L222.2,335.5 L223.1,337.3 L223.9,346.5 L224.7,346.5 L225.6,334.9 L226.4,335.5 L227.3,336.7 L228.1,335.5 L228.9,335.5 L229.8,335.2 L230.6,335.2 L231.5,334.9 L232.3,334.9 L233.2,334.9 L234.0,334.9 L234.8,334.6 L235.7,334.9 L236.5,334.9 L237.4,336.4 L238.2,347.1 L239.0,334.9 L239.9,335.2 L240.7,333.7 L241.6,333.4 L242.4,333.4 L243.3,333.4 L244.1,333.4 L244.9,333.1 L245.8,333.7 L246.6,334.0 L247.5,335.2 L248.3,334.9 L249.1,335.2 L250.0,336.1 L250.8,336.1 L251.7,337.0 L252.5,337.0 L253.4,338.0 L254.2,338.0 L255.0,338.0 L255.9,338.0 L256.7,338.0 L257.6,338.0 L258.4,338.3 L259.2,338.0 L260.1,338.0 L260.9,338.0 L261.8,338.0 L262.6,338.0 L263.5,338.3 L264.3,338.3 L265.1,338.3 L266.0,338.3 L266.8,338.0 L267.7,338.3 L268.5,338.0 L269.3,338.0 L270.2,338.0 L271.0,337.0 L271.9,335.8 L272.7,335.8 L273.5,335.8 L274.4,334.9 L275.2,334.9 L276.1,334.9 L276.9,335.2 L277.8,335.2 L278.6,334.9 L279.4,335.8 L280.3,335.8 L281.1,336.7 L282.0,336.7 L282.8,336.4 L283.6,336.1 L284.5,336.1 L285.3,336.1 L286.2,333.1 L287.0,336.1 L287.9,336.1 L288.7,336.4 L289.5,336.4 L290.4,336.1 L291.2,336.1 L292.1,336.4 L292.9,336.7 L293.7,335.8 L294.6,335.8 L295.4,335.8 L296.3,335.8 L297.1,335.8 L298.0,335.8 L298.8,335.8 L299.6,337.0 L300.5,337.0 L301.3,337.0 L302.2,337.0 L303.0,337.0 L303.8,337.0 L304.7,337.0 L305.5,337.0 L306.4,337.0 L307.2,337.3 L308.1,337.0 L308.9,336.7 L309.7,337.3 L310.6,337.0 L311.4,337.0 L312.3,337.0 L313.1,337.0 L313.9,337.0 L314.8,337.6 L315.6,337.6 L316.5,338.0 L317.3,337.6 L318.1,337.6 L319.0,337.6 L319.8,337.3 L320.7,338.0 L321.5,337.3 L322.4,337.3 L323.2,338.3 L324.0,337.6 L324.9,338.0 L325.7,338.0 L326.6,338.3 L327.4,338.0 L328.2,337.6 L329.1,337.3 L329.9,337.3 L330.8,337.6 L331.6,337.6 L332.5,337.6 L333.3,337.6 L334.1,337.6 L335.0,337.6 L335.8,337.6 L336.7,337.6 L337.5,337.6 L338.3,337.6 L339.2,337.3 L340.0,337.3 L340.9,337.0 L341.7,337.0 L342.6,337.3 L343.4,337.3 L344.2,337.3 L345.1,337.0 L345.9,337.0 L346.8,337.0 L347.6,337.3 L348.4,337.3 L349.3,335.8 L350.1,336.1 L351.0,335.2 L351.8,335.2 L352.7,336.4 L353.5,336.4 L354.3,334.9 L355.2,334.3 L356.0,334.6 L356.9,334.6 L357.7,334.6 L358.5,334.9 L359.4,334.9 L360.2,335.5 L361.1,335.8 L361.9,335.8 L362.7,334.6 L363.6,334.6 L364.4,334.3 L365.3,332.7 L366.1,334.3 L367.0,332.4 L367.8,332.7 L368.6,332.4 L369.5,333.4 L370.3,333.1 L371.2,334.0 L372.0,333.4 L372.8,333.7 L373.7,333.7 L374.5,333.7 L375.4,333.7 L376.2,334.0 L377.1,333.7 L377.9,334.0 L378.7,333.4 L379.6,333.4 L380.4,333.1 L381.3,333.4 L382.1,333.4 L382.9,333.4 L383.8,333.4 L384.6,332.7 L385.5,334.0 L386.3,334.0 L387.2,334.0 L388.0,334.0 L388.8,334.0 L389.7,334.3 L390.5,334.3 L391.4,334.0 L392.2,334.0 L393.0,335.5 L393.9,335.5 L394.7,335.5 L395.6,333.7 L396.4,333.7 L397.3,333.7 L398.1,333.7 L398.9,333.7 L399.8,333.1 L400.6,333.1 L401.5,333.1 L402.3,334.3 L403.1,334.6 L404.0,332.7 L404.8,332.7 L405.7,333.4 L406.5,333.4 L407.3,333.7 L408.2,333.4 L409.0,333.7 L409.9,335.8 L410.7,336.1 L411.6,334.3 L412.4,334.6 L413.2,334.6 L414.1,334.6 L414.9,334.0 L415.8,334.0 L416.6,333.4 L417.4,333.1 L418.3,333.4 L419.1,333.4 L420.0,334.3 L420.8,334.3 L421.7,334.6 L422.5,334.3 L423.3,334.6 L424.2,334.3 L425.0,334.6 L425.9,334.6 L426.7,334.6 L427.5,334.3 L428.4,334.3 L429.2,334.3 L430.1,334.3 L430.9,334.6 L431.8,334.9 L432.6,333.7 L433.4,333.7 L434.3,334.0 L435.1,333.7 L436.0,333.7 L436.8,332.7 L437.6,332.4 L438.5,332.4 L439.3,332.7 L440.2,332.7 L441.0,332.7 L441.9,332.7 L442.7,332.4 L443.5,332.4 L444.4,336.4 L445.2,336.1 L446.1,335.2 L446.9,335.5 L447.7,336.4 L448.6,337.0 L449.4,336.4 L450.3,336.7 L451.1,337.3 L451.9,336.4 L452.8,336.7 L453.6,336.7 L454.5,337.0 L455.3,336.7 L456.2,336.7 L457.0,336.7 L457.8,335.5 L458.7,336.1 L459.5,336.4 L460.4,335.2 L461.2,335.2 L462.0,335.5 L462.9,335.5 L463.7,335.5 L464.6,335.2 L465.4,334.9 L466.3,336.1 L467.1,336.4 L467.9,336.7 L468.8,336.7 L469.6,337.0 L470.5,337.0 L471.3,337.3 L472.1,337.3 L473.0,336.7 L473.8,337.0 L474.7,336.7 L475.5,336.7 L476.4,336.7 L477.2,336.7 L478.0,337.0 L478.9,337.0 L479.7,337.0 L480.6,336.7 L481.4,336.7 L482.2,336.4 L483.1,336.7 L483.9,336.7 L484.8,337.3 L485.6,336.7 L486.5,336.7 L487.3,336.4 L488.1,336.7 L489.0,336.4 L489.8,336.7 L490.7,332.1 L491.5,331.5 L492.3,331.2 L493.2,330.6 L494.0,330.6 L494.9,330.9 L495.7,330.6 L496.5,329.7 L497.4,328.5 L498.2,326.9 L499.1,324.5 L499.9,322.0 L500.8,321.7 L501.6,320.5 L502.4,321.7 L503.3,322.0 L504.1,322.3 L505.0,323.9 L505.8,323.6 L506.6,323.9 L507.5,323.9 L508.3,323.6 L509.2,323.3 L510.0,322.9 L510.9,322.3 L511.7,322.0 L512.5,322.3 L513.4,322.6 L514.2,322.0 L515.1,322.0 L515.9,322.9 L516.7,322.3 L517.6,323.3 L518.4,323.3 L519.3,322.9 L520.1,322.9 L521.0,321.7 L521.8,321.1 L522.6,319.0 L523.5,318.4 L524.3,316.8 L525.2,315.6 L526.0,314.1 L526.8,312.8 L527.7,312.8 L528.5,312.5 L529.4,312.5 L530.2,312.8 L531.1,312.2 L531.9,311.9 L532.7,311.9 L533.6,312.2 L534.4,311.9 L535.3,312.2 L536.1,312.2 L536.9,312.5 L537.8,311.9 L538.6,312.2 L539.5,312.2 L540.3,312.2 L541.2,312.2 L542.0,312.2 L542.8,312.5 L543.7,312.2 L544.5,312.2 L545.4,311.6 L546.2,312.8 L547.0,312.5 L547.9,313.8 L548.7,314.4 L549.6,314.4 L550.4,314.4 L551.2,315.0 L552.1,316.8 L552.9,317.7 L553.8,318.4 L554.6,320.2 L555.5,321.1 L556.3,322.0 L557.1,322.9 L558.0,323.9 L558.8,323.9 L559.7,323.9 L560.5,323.9 L561.3,323.3 L562.2,322.6 L563.0,322.9 L563.9,322.9 L564.7,323.3 L565.6,322.9 L566.4,323.3 L567.2,324.5 L568.1,324.5 L568.9,325.7 L569.8,326.0 L570.6,326.3 L571.4,325.7 L572.3,326.9 L573.1,327.8 L574.0,327.2 L574.8,326.3 L575.7,326.9 L576.5,326.6 L577.3,327.2 L578.2,328.5 L579.0,328.2 L579.9,329.1 L580.7,328.8 L581.5,329.1 L582.4,329.4 L583.2,329.4 L584.1,329.7 L584.9,329.4 L585.8,326.3 L586.6,326.3 L587.4,323.6 L588.3,322.3 L589.1,322.0 L590.0,321.7 L590.8,322.0 L591.6,321.7 L592.5,321.7 L593.3,321.7 L594.2,321.7 L595.0,320.8 L595.8,320.8 L596.7,319.6 L597.5,319.6 L598.4,319.6 L599.2,319.6 L600.1,319.6 L600.9,319.9 L601.7,320.2 L602.6,320.2 L603.4,320.2 L604.3,320.2 L605.1,320.2 L605.9,320.5 L606.8,320.2 L607.6,319.3 L608.5,319.6 L609.3,319.9 L610.2,319.6 L611.0,319.6 L611.8,319.3 L612.7,319.3 L613.5,319.6 L614.4,319.9 L615.2,320.2 L616.0,320.5 L616.9,321.1 L617.7,322.6 L618.6,322.3 L619.4,322.3 L620.3,322.3 L621.1,323.6 L621.9,323.3 L622.8,324.8 L623.6,324.8 L624.5,325.1 L625.3,324.8 L626.1,324.8 L627.0,324.5 L627.8,324.8 L628.7,324.8 L629.5,324.5 L630.4,324.2 L631.2,324.5 L632.0,324.5 L632.9,324.5 L633.7,324.5 L634.6,324.5 L635.4,324.8 L636.2,324.5 L637.1,324.8 L637.9,324.5 L638.8,324.8 L639.6,324.8 L640.4,324.5 L641.3,325.4 L642.1,325.7 L643.0,326.3 L643.8,326.3 L644.7,327.5 L645.5,327.5 L646.3,326.6 L647.2,326.6 L648.0,326.9 L648.9,326.6 L649.7,326.9 L650.5,326.6 L651.4,328.2 L652.2,326.9 L653.1,326.6 L653.9,326.3 L654.8,326.0 L655.6,326.6 L656.4,326.6 L657.3,326.0 L658.1,325.4 L659.0,325.7 L659.8,326.0 L660.6,325.4 L661.5,325.7 L662.3,326.6 L663.2,326.6 L664.0,327.2 L664.9,327.2 L665.7,327.2 L666.5,327.2 L667.4,327.2 L668.2,325.4 L669.1,325.7 L669.9,326.0 L670.7,325.7 L671.6,325.7 L672.4,325.4 L673.3,325.4 L674.1,324.8 L675.0,325.1 L675.8,324.2 L676.6,324.8 L677.5,324.8 L678.3,326.0 L679.2,326.0 L680.0,325.7" stroke="#ff7f0e" stroke-width="2" fill="none" opacity="0.8"/>
<!-- Thermal Generation -->
<path d="M80.0,354.8 L80.8,354.8 L81.7,354.2 L82.5,354.2 L83.4,354.2 L84.2,308.6 L85.0,302.1 L85.9,305.2 L86.7,302.1 L87.6,353.9 L88.4,354.2 L89.3,353.3 L90.1,354.2 L90.9,354.2 L91.8,353.9 L92.6,353.6 L93.5,342.8 L94.3,353.9 L95.1,353.3 L96.0,353.3 L96.8,353.3 L97.7,336.7 L98.5,338.3 L99.4,350.5 L100.2,341.9 L101.0,303.4 L101.9,302.1 L102.7,305.5 L103.6,304.9 L104.4,353.6 L105.2,353.6 L106.1,354.2 L106.9,350.8 L107.8,353.9 L108.6,353.6 L109.5,353.6 L110.3,354.2 L111.1,354.5 L112.0,354.2 L112.8,354.2 L113.7,354.2 L114.5,353.9 L115.3,354.2 L116.2,307.6 L117.0,301.8 L117.9,302.7 L118.7,301.5 L119.6,346.5 L120.4,346.2 L121.2,346.8 L122.1,346.2 L122.9,346.2 L123.8,353.6 L124.6,353.6 L125.4,353.3 L126.3,353.6 L127.1,353.3 L128.0,353.0 L128.8,353.3 L129.6,325.1 L130.5,325.4 L131.3,270.0 L132.2,268.5 L133.0,345.0 L133.9,353.3 L134.7,354.2 L135.5,368.3 L136.4,369.2 L137.2,354.2 L138.1,353.6 L138.9,353.9 L139.7,353.9 L140.6,353.0 L141.4,353.3 L142.3,353.6 L143.1,353.9 L144.0,353.6 L144.8,353.9 L145.6,353.6 L146.5,353.9 L147.3,353.6 L148.2,353.6 L149.0,353.6 L149.8,353.9 L150.7,354.2 L151.5,354.2 L152.4,354.2 L153.2,354.2 L154.1,348.7 L154.9,348.4 L155.7,354.2 L156.6,354.2 L157.4,354.2 L158.3,354.2 L159.1,309.2 L159.9,309.2 L160.8,309.2 L161.6,309.8 L162.5,309.2 L163.3,308.6 L164.2,309.5 L165.0,309.5 L165.8,309.5 L166.7,309.5 L167.5,310.1 L168.4,308.9 L169.2,308.6 L170.0,309.2 L170.9,280.7 L171.7,304.6 L172.6,309.2 L173.4,308.9 L174.2,309.5 L175.1,309.5 L175.9,309.2 L176.8,309.5 L177.6,309.5 L178.5,308.6 L179.3,308.3 L180.1,292.3 L181.0,301.5 L181.8,304.3 L182.7,308.9 L183.5,308.6 L184.3,309.2 L185.2,309.5 L186.0,308.3 L186.9,308.3 L187.7,353.9 L188.6,353.6 L189.4,353.6 L190.2,354.2 L191.1,301.2 L191.9,301.5 L192.8,317.1 L193.6,317.7 L194.4,348.4 L195.3,348.7 L196.1,348.1 L197.0,348.4 L197.8,348.1 L198.7,348.4 L199.5,342.2 L200.3,328.5 L201.2,309.8 L202.0,341.3 L202.9,340.7 L203.7,354.2 L204.5,353.6 L205.4,353.9 L206.2,348.7 L207.1,353.9 L207.9,353.9 L208.8,353.9 L209.6,354.5 L210.4,347.7 L211.3,286.8 L212.1,268.8 L213.0,291.1 L213.8,290.5 L214.6,280.7 L215.5,304.9 L216.3,301.8 L217.2,304.9 L218.0,302.1 L218.8,301.8 L219.7,283.2 L220.5,264.8 L221.4,265.1 L222.2,302.4 L223.1,322.0 L223.9,339.8 L224.7,341.6 L225.6,353.9 L226.4,354.2 L227.3,353.6 L228.1,353.9 L228.9,353.3 L229.8,354.2 L230.6,289.0 L231.5,246.4 L232.3,243.0 L233.2,231.1 L234.0,242.4 L234.8,272.7 L235.7,286.5 L236.5,287.7 L237.4,281.9 L238.2,300.6 L239.0,283.8 L239.9,283.2 L240.7,265.7 L241.6,296.0 L242.4,318.7 L243.3,354.5 L244.1,354.2 L244.9,354.2 L245.8,354.5 L246.6,354.2 L247.5,354.2 L248.3,319.9 L249.1,355.4 L250.0,354.5 L250.8,306.4 L251.7,242.1 L252.5,244.0 L253.4,239.4 L254.2,248.2 L255.0,272.1 L255.9,278.3 L256.7,277.6 L257.6,289.0 L258.4,290.2 L259.2,290.2 L260.1,315.6 L260.9,292.6 L261.8,343.2 L262.6,373.5 L263.5,372.9 L264.3,372.9 L265.1,372.9 L266.0,373.2 L266.8,372.5 L267.7,372.9 L268.5,372.9 L269.3,373.2 L270.2,372.9 L271.0,361.2 L271.9,302.4 L272.7,296.3 L273.5,289.9 L274.4,299.1 L275.2,290.2 L276.1,289.6 L276.9,294.2 L277.8,327.8 L278.6,334.3 L279.4,329.7 L280.3,324.2 L281.1,319.0 L282.0,355.4 L282.8,373.2 L283.6,370.1 L284.5,372.5 L285.3,373.2 L286.2,372.5 L287.0,373.5 L287.9,373.8 L288.7,373.8 L289.5,373.2 L290.4,373.8 L291.2,373.5 L292.1,315.0 L292.9,295.4 L293.7,287.1 L294.6,307.0 L295.4,315.9 L296.3,321.1 L297.1,330.0 L298.0,330.3 L298.8,372.5 L299.6,372.9 L300.5,372.9 L301.3,361.2 L302.2,360.9 L303.0,367.0 L303.8,373.2 L304.7,372.2 L305.5,372.9 L306.4,348.7 L307.2,346.5 L308.1,342.5 L308.9,371.6 L309.7,320.2 L310.6,372.5 L311.4,281.9 L312.3,327.8 L313.1,329.7 L313.9,335.8 L314.8,348.4 L315.6,354.2 L316.5,354.2 L317.3,355.4 L318.1,295.7 L319.0,326.9 L319.8,298.8 L320.7,306.4 L321.5,289.6 L322.4,313.5 L323.2,323.6 L324.0,335.5 L324.9,323.6 L325.7,322.9 L326.6,320.5 L327.4,321.7 L328.2,322.9 L329.1,319.9 L329.9,320.2 L330.8,331.5 L331.6,304.0 L332.5,284.7 L333.3,292.9 L334.1,279.2 L335.0,289.3 L335.8,290.8 L336.7,281.3 L337.5,280.7 L338.3,311.0 L339.2,313.8 L340.0,312.8 L340.9,315.9 L341.7,283.5 L342.6,303.4 L343.4,314.1 L344.2,320.8 L345.1,325.4 L345.9,354.2 L346.8,372.2 L347.6,372.2 L348.4,372.5 L349.3,372.5 L350.1,372.2 L351.0,372.2 L351.8,342.2 L352.7,315.9 L353.5,304.3 L354.3,336.4 L355.2,341.9 L356.0,353.6 L356.9,354.2 L357.7,354.5 L358.5,354.5 L359.4,354.8 L360.2,353.9 L361.1,354.2 L361.9,342.5 L362.7,354.2 L363.6,354.5 L364.4,354.5 L365.3,354.2 L366.1,353.9 L367.0,365.8 L367.8,366.4 L368.6,366.1 L369.5,366.4 L370.3,357.5 L371.2,330.3 L372.0,296.3 L372.8,290.2 L373.7,278.9 L374.5,278.6 L375.4,301.8 L376.2,293.9 L377.1,307.3 L377.9,363.7 L378.7,372.5 L379.6,372.5 L380.4,372.2 L381.3,353.9 L382.1,342.8 L382.9,373.5 L383.8,373.5 L384.6,373.8 L385.5,373.5 L386.3,373.8 L387.2,374.1 L388.0,373.8 L388.8,373.5 L389.7,372.9 L390.5,373.2 L391.4,372.5 L392.2,372.5 L393.0,371.9 L393.9,371.9 L394.7,348.1 L395.6,371.9 L396.4,371.9 L397.3,371.9 L398.1,371.6 L398.9,371.9 L399.8,372.2 L400.6,371.9 L401.5,372.2 L402.3,372.5 L403.1,373.5 L404.0,372.9 L404.8,353.6 L405.7,372.9 L406.5,372.5 L407.3,375.3 L408.2,372.9 L409.0,373.2 L409.9,360.3 L410.7,348.1 L411.6,336.1 L412.4,333.7 L413.2,291.7 L414.1,277.9 L414.9,277.6 L415.8,277.6 L416.6,282.8 L417.4,305.2 L418.3,284.1 L419.1,291.7 L420.0,291.7 L420.8,305.5 L421.7,309.2 L422.5,321.1 L423.3,330.3 L424.2,317.7 L425.0,348.4 L425.9,354.2 L426.7,353.9 L427.5,354.5 L428.4,354.2 L429.2,354.2 L430.1,354.2 L430.9,353.9 L431.8,354.2 L432.6,354.8 L433.4,327.5 L434.3,287.1 L435.1,260.8 L436.0,304.6 L436.8,329.7 L437.6,352.6 L438.5,353.9 L439.3,353.9 L440.2,354.2 L441.0,353.9 L441.9,353.3 L442.7,353.9 L443.5,354.2 L444.4,353.9 L445.2,354.5 L446.1,354.2 L446.9,353.6 L447.7,354.5 L448.6,354.2 L449.4,354.8 L450.3,354.5 L451.1,354.8 L451.9,342.2 L452.8,308.3 L453.6,226.5 L454.5,213.3 L455.3,219.8 L456.2,212.4 L457.0,240.3 L457.8,263.6 L458.7,230.8 L459.5,231.4 L460.4,248.9 L461.2,221.0 L462.0,230.2 L462.9,235.4 L463.7,242.1 L464.6,266.6 L465.4,266.3 L466.3,287.7 L467.1,314.4 L467.9,323.3 L468.8,323.6 L469.6,322.9 L470.5,247.3 L471.3,216.7 L472.1,223.8 L473.0,218.2 L473.8,220.7 L474.7,214.0 L475.5,213.7 L476.4,225.9 L477.2,245.5 L478.0,269.1 L478.9,353.9 L479.7,353.6 L480.6,353.6 L481.4,353.0 L482.2,353.0 L483.1,354.2 L483.9,353.9 L484.8,354.2 L485.6,349.9 L486.5,354.5 L487.3,354.8 L488.1,355.4 L489.0,356.0 L489.8,356.3 L490.7,357.5 L491.5,357.5 L492.3,357.9 L493.2,357.5 L494.0,356.3 L494.9,355.4 L495.7,355.4 L496.5,354.8 L497.4,355.1 L498.2,354.8 L499.1,354.8 L499.9,354.5 L500.8,355.1 L501.6,355.1 L502.4,354.8 L503.3,353.9 L504.1,354.8 L505.0,354.8 L505.8,354.5 L506.6,354.5 L507.5,355.4 L508.3,354.8 L509.2,354.5 L510.0,354.5 L510.9,354.5 L511.7,354.8 L512.5,354.5 L513.4,354.2 L514.2,354.2 L515.1,354.8 L515.9,355.1 L516.7,353.9 L517.6,353.9 L518.4,353.9 L519.3,354.5 L520.1,354.5 L521.0,353.6 L521.8,354.5 L522.6,354.5 L523.5,355.1 L524.3,356.6 L525.2,354.5 L526.0,354.5 L526.8,353.9 L527.7,353.9 L528.5,354.2 L529.4,353.9 L530.2,353.9 L531.1,353.6 L531.9,353.6 L532.7,353.9 L533.6,356.0 L534.4,356.3 L535.3,354.5 L536.1,355.7 L536.9,353.6 L537.8,352.6 L538.6,355.1 L539.5,354.8 L540.3,372.9 L541.2,372.5 L542.0,372.5 L542.8,372.2 L543.7,372.5 L544.5,372.9 L545.4,372.5 L546.2,372.5 L547.0,372.2 L547.9,372.9 L548.7,372.5 L549.6,372.5 L550.4,372.5 L551.2,372.5 L552.1,372.2 L552.9,372.9 L553.8,372.5 L554.6,372.5 L555.5,372.9 L556.3,372.5 L557.1,371.9 L558.0,371.6 L558.8,371.9 L559.7,372.2 L560.5,371.9 L561.3,372.2 L562.2,371.9 L563.0,371.9 L563.9,372.2 L564.7,372.5 L565.6,372.5 L566.4,372.9 L567.2,372.5 L568.1,372.2 L568.9,372.5 L569.8,372.5 L570.6,372.9 L571.4,372.5 L572.3,372.5 L573.1,372.5 L574.0,372.2 L574.8,372.9 L575.7,372.9 L576.5,371.9 L577.3,372.5 L578.2,372.2 L579.0,371.9 L579.9,371.9 L580.7,372.2 L581.5,372.2 L582.4,372.2 L583.2,372.2 L584.1,372.9 L584.9,372.5 L585.8,372.2 L586.6,372.2 L587.4,372.2 L588.3,372.2 L589.1,372.2 L590.0,372.2 L590.8,372.5 L591.6,372.2 L592.5,353.9 L593.3,353.6 L594.2,353.9 L595.0,313.5 L595.8,324.2 L596.7,331.5 L597.5,328.8 L598.4,300.6 L599.2,322.3 L600.1,317.1 L600.9,316.2 L601.7,293.6 L602.6,291.4 L603.4,303.7 L604.3,296.3 L605.1,331.2 L605.9,331.8 L606.8,371.9 L607.6,372.2 L608.5,372.2 L609.3,371.9 L610.2,372.2 L611.0,369.2 L611.8,372.5 L612.7,356.9 L613.5,332.4 L614.4,332.4 L615.2,294.8 L616.0,294.2 L616.9,329.4 L617.7,316.8 L618.6,293.9 L619.4,322.9 L620.3,332.1 L621.1,331.8 L621.9,332.1 L622.8,332.7 L623.6,332.4 L624.5,326.6 L625.3,334.0 L626.1,333.4 L627.0,333.1 L627.8,355.4 L628.7,372.5 L629.5,370.4 L630.4,350.2 L631.2,335.8 L632.0,335.2 L632.9,369.5 L633.7,333.1 L634.6,304.9 L635.4,298.2 L636.2,294.8 L637.1,294.2 L637.9,293.9 L638.8,294.8 L639.6,293.3 L640.4,319.0 L641.3,316.8 L642.1,322.0 L643.0,336.1 L643.8,316.5 L644.7,318.4 L645.5,334.6 L646.3,333.4 L647.2,333.7 L648.0,360.6 L648.9,351.1 L649.7,351.4 L650.5,350.2 L651.4,348.1 L652.2,331.8 L653.1,332.7 L653.9,332.7 L654.8,332.4 L655.6,295.7 L656.4,283.2 L657.3,310.4 L658.1,319.3 L659.0,308.6 L659.8,315.9 L660.6,325.4 L661.5,326.6 L662.3,326.0 L663.2,323.3 L664.0,319.9 L664.9,319.9 L665.7,336.7 L666.5,373.2 L667.4,372.2 L668.2,369.2 L669.1,371.6 L669.9,371.9 L670.7,371.9 L671.6,371.6 L672.4,371.9 L673.3,371.9 L674.1,347.7 L675.0,332.4 L675.8,286.5 L676.6,283.2 L677.5,285.9 L678.3,288.4 L679.2,297.8 L680.0,296.0" stroke="#2ca02c" stroke-width="2" fill="none" opacity="0.8"/>
<!-- Solar Generation -->
<path d="M80.0,405.0 L80.8,413.6 L81.7,404.1 L82.5,402.9 L83.4,400.7 L84.2,399.8 L85.0,400.1 L85.9,412.0 L86.7,414.8 L87.6,415.4 L88.4,415.7 L89.3,416.6 L90.1,417.2 L90.9,419.4 L91.8,419.4 L92.6,419.4 L93.5,419.4 L94.3,419.4 L95.1,419.4 L96.0,419.4 L96.8,419.4 L97.7,419.4 L98.5,419.4 L99.4,418.2 L100.2,414.5 L101.0,390.6 L101.9,395.8 L102.7,400.7 L103.6,403.5 L104.4,405.0 L105.2,399.2 L106.1,401.9 L106.9,407.1 L107.8,413.6 L108.6,405.0 L109.5,415.1 L110.3,416.6 L111.1,420.0 L112.0,420.0 L112.8,420.0 L113.7,420.0 L114.5,420.0 L115.3,420.0 L116.2,420.0 L117.0,420.0 L117.9,420.0 L118.7,420.0 L119.6,419.1 L120.4,414.2 L121.2,403.5 L122.1,397.3 L122.9,384.5 L123.8,404.4 L124.6,409.6 L125.4,400.7 L126.3,407.8 L127.1,403.8 L128.0,394.0 L128.8,411.4 L129.6,405.6 L130.5,416.6 L131.3,420.0 L132.2,420.0 L133.0,420.0 L133.9,420.0 L134.7,420.0 L135.5,420.0 L136.4,420.0 L137.2,420.0 L138.1,420.0 L138.9,420.0 L139.7,418.5 L140.6,414.8 L141.4,407.1 L142.3,409.3 L143.1,409.0 L144.0,411.1 L144.8,412.3 L145.6,412.0 L146.5,413.0 L147.3,413.0 L148.2,414.8 L149.0,416.0 L149.8,415.1 L150.7,419.1 L151.5,420.0 L152.4,420.0 L153.2,420.0 L154.1,420.0 L154.9,420.0 L155.7,420.0 L156.6,420.0 L157.4,420.0 L158.3,420.0 L159.1,420.0 L159.9,420.0 L160.8,417.2 L161.6,414.5 L162.5,409.9 L163.3,407.8 L164.2,400.1 L165.0,392.4 L165.8,398.0 L166.7,409.6 L167.5,409.9 L168.4,411.4 L169.2,402.9 L170.0,406.5 L170.9,413.9 L171.7,420.0 L172.6,420.0 L173.4,420.0 L174.2,420.0 L175.1,420.0 L175.9,420.0 L176.8,420.0 L177.6,420.0 L178.5,420.0 L179.3,420.0 L180.1,418.8 L181.0,413.6 L181.8,413.3 L182.7,402.9 L183.5,399.8 L184.3,411.4 L185.2,411.7 L186.0,407.4 L186.9,411.7 L187.7,411.1 L188.6,400.7 L189.4,414.8 L190.2,414.5 L191.1,415.4 L191.9,420.0 L192.8,420.0 L193.6,420.0 L194.4,420.0 L195.3,420.0 L196.1,420.0 L197.0,420.0 L197.8,420.0 L198.7,420.0 L199.5,420.0 L200.3,415.7 L201.2,401.6 L202.0,399.8 L202.9,406.8 L203.7,400.1 L204.5,406.8 L205.4,410.5 L206.2,411.4 L207.1,405.3 L207.9,389.7 L208.8,402.2 L209.6,395.5 L210.4,401.3 L211.3,417.6 L212.1,420.0 L213.0,420.0 L213.8,420.0 L214.6,420.0 L215.5,420.0 L216.3,420.0 L217.2,420.0 L218.0,420.0 L218.8,420.0 L219.7,420.0 L220.5,417.2 L221.4,391.5 L222.2,376.8 L223.1,375.6 L223.9,393.4 L224.7,398.9 L225.6,377.4 L226.4,375.3 L227.3,375.6 L228.1,376.2 L228.9,376.5 L229.8,376.2 L230.6,387.5 L231.5,413.3 L232.3,420.0 L233.2,420.0 L234.0,420.0 L234.8,420.0 L235.7,420.0 L236.5,420.0 L237.4,420.0 L238.2,420.0 L239.0,420.0 L239.9,420.0 L240.7,416.0 L241.6,390.0 L242.4,375.6 L243.3,375.6 L244.1,375.3 L244.9,375.0 L245.8,375.0 L246.6,375.9 L247.5,375.0 L248.3,375.3 L249.1,376.2 L250.0,376.2 L250.8,387.5 L251.7,412.3 L252.5,420.0 L253.4,420.0 L254.2,420.0 L255.0,420.0 L255.9,420.0 L256.7,420.0 L257.6,420.0 L258.4,420.0 L259.2,420.0 L260.1,420.0 L260.9,415.4 L261.8,390.9 L262.6,402.2 L263.5,394.9 L264.3,380.2 L265.1,376.2 L266.0,375.9 L266.8,399.2 L267.7,399.2 L268.5,401.9 L269.3,403.8 L270.2,398.9 L271.0,409.0 L271.9,414.2 L272.7,420.0 L273.5,420.0 L274.4,420.0 L275.2,420.0 L276.1,420.0 L276.9,420.0 L277.8,420.0 L278.6,420.0 L279.4,420.0 L280.3,420.0 L281.1,417.6 L282.0,390.0 L282.8,399.2 L283.6,398.9 L284.5,398.6 L285.3,398.3 L286.2,379.9 L287.0,401.6 L287.9,398.3 L288.7,397.0 L289.5,382.3 L290.4,376.2 L291.2,391.5 L292.1,412.0 L292.9,420.0 L293.7,420.0 L294.6,420.0 L295.4,420.0 L296.3,420.0 L297.1,420.0 L298.0,420.0 L298.8,420.0 L299.6,420.0 L300.5,420.0 L301.3,417.2 L302.2,402.2 L303.0,395.2 L303.8,391.2 L304.7,387.5 L305.5,386.3 L306.4,387.9 L307.2,388.2 L308.1,394.0 L308.9,395.8 L309.7,403.5 L310.6,401.3 L311.4,405.9 L312.3,417.6 L313.1,420.0 L313.9,420.0 L314.8,420.0 L315.6,420.0 L316.5,420.0 L317.3,420.0 L318.1,420.0 L319.0,420.0 L319.8,420.0 L320.7,420.0 L321.5,413.9 L322.4,399.2 L323.2,378.4 L324.0,387.2 L324.9,383.9 L325.7,389.4 L326.6,396.4 L327.4,389.1 L328.2,378.7 L329.1,376.8 L329.9,399.2 L330.8,394.6 L331.6,410.5 L332.5,414.2 L333.3,420.0 L334.1,420.0 L335.0,420.0 L335.8,420.0 L336.7,420.0 L337.5,420.0 L338.3,420.0 L339.2,420.0 L340.0,420.0 L340.9,420.0 L341.7,412.7 L342.6,386.6 L343.4,375.6 L344.2,375.3 L345.1,375.3 L345.9,375.0 L346.8,375.0 L347.6,391.8 L348.4,395.2 L349.3,398.9 L350.1,403.2 L351.0,394.0 L351.8,387.5 L352.7,415.4 L353.5,420.0 L354.3,420.0 L355.2,420.0 L356.0,420.0 L356.9,420.0 L357.7,420.0 L358.5,420.0 L359.4,420.0 L360.2,420.0 L361.1,420.0 L361.9,418.8 L362.7,415.4 L363.6,400.7 L364.4,395.8 L365.3,397.0 L366.1,392.4 L367.0,385.7 L367.8,383.0 L368.6,394.9 L369.5,391.2 L370.3,392.4 L371.2,403.5 L372.0,392.4 L372.8,412.7 L373.7,420.0 L374.5,420.0 L375.4,420.0 L376.2,420.0 L377.1,420.0 L377.9,420.0 L378.7,420.0 L379.6,420.0 L380.4,420.0 L381.3,420.0 L382.1,413.6 L382.9,390.6 L383.8,379.6 L384.6,409.3 L385.5,410.2 L386.3,398.3 L387.2,398.6 L388.0,408.1 L388.8,407.1 L389.7,401.0 L390.5,403.8 L391.4,405.3 L392.2,413.0 L393.0,417.2 L393.9,420.0 L394.7,420.0 L395.6,420.0 L396.4,420.0 L397.3,420.0 L398.1,420.0 L398.9,420.0 L399.8,420.0 L400.6,420.0 L401.5,420.0 L402.3,416.3 L403.1,414.5 L404.0,412.3 L404.8,390.0 L405.7,384.2 L406.5,391.5 L407.3,400.7 L408.2,400.4 L409.0,398.6 L409.9,398.9 L410.7,409.0 L411.6,400.4 L412.4,412.7 L413.2,410.2 L414.1,420.0 L414.9,420.0 L415.8,420.0 L416.6,420.0 L417.4,420.0 L418.3,420.0 L419.1,420.0 L420.0,420.0 L420.8,420.0 L421.7,420.0 L422.5,415.1 L423.3,407.1 L424.2,377.4 L425.0,375.6 L425.9,375.3 L426.7,375.3 L427.5,375.0 L428.4,376.5 L429.2,398.6 L430.1,398.9 L430.9,397.0 L431.8,379.6 L432.6,387.2 L433.4,416.0 L434.3,420.0 L435.1,420.0 L436.0,420.0 L436.8,420.0 L437.6,420.0 L438.5,420.0 L439.3,420.0 L440.2,420.0 L441.0,420.0 L441.9,420.0 L442.7,415.4 L443.5,394.6 L444.4,390.3 L445.2,384.5 L446.1,377.1 L446.9,375.3 L447.7,375.0 L448.6,398.0 L449.4,398.9 L450.3,376.5 L451.1,377.1 L451.9,387.5 L452.8,393.7 L453.6,409.3 L454.5,420.0 L455.3,420.0 L456.2,420.0 L457.0,420.0 L457.8,420.0 L458.7,420.0 L459.5,420.0 L460.4,420.0 L461.2,420.0 L462.0,420.0 L462.9,410.8 L463.7,388.5 L464.6,377.8 L465.4,376.5 L466.3,375.6 L467.1,376.2 L467.9,375.9 L468.8,375.3 L469.6,376.2 L470.5,378.1 L471.3,379.3 L472.1,380.8 L473.0,397.3 L473.8,414.2 L474.7,420.0 L475.5,420.0 L476.4,420.0 L477.2,420.0 L478.0,420.0 L478.9,420.0 L479.7,420.0 L480.6,420.0 L481.4,420.0 L482.2,420.0 L483.1,411.7 L483.9,389.1 L484.8,384.2 L485.6,379.6 L486.5,388.5 L487.3,399.8 L488.1,383.0 L489.0,399.2 L489.8,389.7 L490.7,390.0 L491.5,405.3 L492.3,414.5 L493.2,410.8 L494.0,412.7 L494.9,420.0 L495.7,420.0 L496.5,420.0 L497.4,420.0 L498.2,420.0 L499.1,420.0 L499.9,420.0 L500.8,420.0 L501.6,420.0 L502.4,420.0 L503.3,413.6 L504.1,400.4 L505.0,401.6 L505.8,399.8 L506.6,399.5 L507.5,399.2 L508.3,399.5 L509.2,399.2 L510.0,399.8 L510.9,399.8 L511.7,399.8 L512.5,400.7 L513.4,406.2 L514.2,416.0 L515.1,420.0 L515.9,420.0 L516.7,420.0 L517.6,420.0 L518.4,420.0 L519.3,420.0 L520.1,420.0 L521.0,420.0 L521.8,420.0 L522.6,420.0 L523.5,413.9 L524.3,402.5 L525.2,400.1 L526.0,399.8 L526.8,399.5 L527.7,399.2 L528.5,399.2 L529.4,399.2 L530.2,399.2 L531.1,399.5 L531.9,412.7 L532.7,413.9 L533.6,407.8 L534.4,411.1 L535.3,420.0 L536.1,420.0 L536.9,420.0 L537.8,420.0 L538.6,420.0 L539.5,420.0 L540.3,420.0 L541.2,420.0 L542.0,420.0 L542.8,420.0 L543.7,418.5 L544.5,403.5 L545.4,401.3 L546.2,402.2 L547.0,400.1 L547.9,399.5 L548.7,402.2 L549.6,400.1 L550.4,400.7 L551.2,409.6 L552.1,411.1 L552.9,415.4 L553.8,413.6 L554.6,413.9 L555.5,420.0 L556.3,420.0 L557.1,420.0 L558.0,420.0 L558.8,420.0 L559.7,420.0 L560.5,420.0 L561.3,420.0 L562.2,420.0 L563.0,420.0 L563.9,413.6 L564.7,417.2 L565.6,413.3 L566.4,411.4 L567.2,401.9 L568.1,388.8 L568.9,399.8 L569.8,384.5 L570.6,398.6 L571.4,404.4 L572.3,409.9 L573.1,402.2 L574.0,381.7 L574.8,412.3 L575.7,419.7 L576.5,420.0 L577.3,420.0 L578.2,420.0 L579.0,420.0 L579.9,420.0 L580.7,420.0 L581.5,420.0 L582.4,420.0 L583.2,420.0 L584.1,414.5 L584.9,412.3 L585.8,415.4 L586.6,415.1 L587.4,391.8 L588.3,394.6 L589.1,412.3 L590.0,405.9 L590.8,401.3 L591.6,406.5 L592.5,388.8 L593.3,402.5 L594.2,398.3 L595.0,413.9 L595.8,419.7 L596.7,420.0 L597.5,420.0 L598.4,420.0 L599.2,420.0 L600.1,420.0 L600.9,420.0 L601.7,420.0 L602.6,420.0 L603.4,420.0 L604.3,408.7 L605.1,400.4 L605.9,379.9 L606.8,376.2 L607.6,376.2 L608.5,375.9 L609.3,383.6 L610.2,387.2 L611.0,402.9 L611.8,399.5 L612.7,408.7 L613.5,403.2 L614.4,401.0 L615.2,411.1 L616.0,419.7 L616.9,420.0 L617.7,420.0 L618.6,420.0 L619.4,420.0 L620.3,420.0 L621.1,420.0 L621.9,420.0 L622.8,420.0 L623.6,420.0 L624.5,411.4 L625.3,390.9 L626.1,378.7 L627.0,377.4 L627.8,376.2 L628.7,392.1 L629.5,377.4 L630.4,395.5 L631.2,399.2 L632.0,397.0 L632.9,390.6 L633.7,397.7 L634.6,413.0 L635.4,417.9 L636.2,420.0 L637.1,420.0 L637.9,420.0 L638.8,420.0 L639.6,420.0 L640.4,420.0 L641.3,420.0 L642.1,420.0 L643.0,420.0 L643.8,420.0 L644.7,419.4 L645.5,416.3 L646.3,397.7 L647.2,397.7 L648.0,399.8 L648.9,385.7 L649.7,390.3 L650.5,385.4 L651.4,393.4 L652.2,388.8 L653.1,394.0 L653.9,388.2 L654.8,390.9 L655.6,412.3 L656.4,420.0 L657.3,420.0 L658.1,420.0 L659.0,420.0 L659.8,420.0 L660.6,420.0 L661.5,420.0 L662.3,420.0 L663.2,420.0 L664.0,420.0 L664.9,407.1 L665.7,384.8 L666.5,377.1 L667.4,375.9 L668.2,385.4 L669.1,380.2 L669.9,382.6 L670.7,379.9 L671.6,384.5 L672.4,392.4 L673.3,404.1 L674.1,403.2 L675.0,397.7 L675.8,416.9 L676.6,420.0 L677.5,420.0 L678.3,420.0 L679.2,420.0 L680.0,420.0" stroke="#d62728" stroke-width="2" fill="none" opacity="0.8"/>
<!-- Forecast -->
<path d="M80.0,178.4 L80.8,157.9 L81.7,151.5 L82.5,151.8 L83.4,153.0 L84.2,157.0 L85.0,160.4 L85.9,163.8 L86.7,165.0 L87.6,163.4 L88.4,163.4 L89.3,165.6 L90.1,168.3 L90.9,165.3 L91.8,174.2 L92.6,194.4 L93.5,211.8 L94.3,229.9 L95.1,238.1 L96.0,242.1 L96.8,243.7 L97.7,240.9 L98.5,228.3 L99.4,197.7 L100.2,166.2 L101.0,149.7 L101.9,145.1 L102.7,146.6 L103.6,150.3 L104.4,155.5 L105.2,159.2 L106.1,162.5 L106.9,164.7 L107.8,163.1 L108.6,163.1 L109.5,166.8 L110.3,166.8 L111.1,162.8 L112.0,170.5 L112.8,189.5 L113.7,213.3 L114.5,224.7 L115.3,229.6 L116.2,233.6 L117.0,234.5 L117.9,233.6 L118.7,225.0 L119.6,212.7 L120.4,199.9 L121.2,184.6 L122.1,176.3 L122.9,171.4 L123.8,176.3 L124.6,181.5 L125.4,188.9 L126.3,190.7 L127.1,190.1 L128.0,191.3 L128.8,187.0 L129.6,187.6 L130.5,185.8 L131.3,179.1 L132.2,182.7 L133.0,198.3 L133.9,371.9 L134.7,227.4 L135.5,232.9 L136.4,236.6 L137.2,239.4 L138.1,238.1 L138.9,235.1 L139.7,225.3 L140.6,212.4 L141.4,198.3 L142.3,184.0 L143.1,176.0 L144.0,174.2 L144.8,176.6 L145.6,179.4 L146.5,183.3 L147.3,185.2 L148.2,182.4 L149.0,175.4 L149.8,177.5 L150.7,172.3 L151.5,169.0 L152.4,175.7 L153.2,196.2 L154.1,220.1 L154.9,233.6 L155.7,240.3 L156.6,244.0 L157.4,245.5 L158.3,241.8 L159.1,229.0 L159.9,199.9 L160.8,169.6 L161.6,176.9 L162.5,176.6 L163.3,170.5 L164.2,175.7 L165.0,180.3 L165.8,188.2 L166.7,190.7 L167.5,188.5 L168.4,191.0 L169.2,185.8 L170.0,187.0 L170.9,185.8 L171.7,179.1 L172.6,182.4 L173.4,197.7 L174.2,202.0 L175.1,235.1 L175.9,242.7 L176.8,247.0 L177.6,247.9 L178.5,244.9 L179.3,231.4 L180.1,204.5 L181.0,180.3 L181.8,163.8 L182.7,160.1 L183.5,160.1 L184.3,164.4 L185.2,167.7 L186.0,171.1 L186.9,174.2 L187.7,175.4 L188.6,175.7 L189.4,176.0 L190.2,180.6 L191.1,184.6 L191.9,182.4 L192.8,185.8 L193.6,205.4 L194.4,228.0 L195.3,242.4 L196.1,250.1 L197.0,253.1 L197.8,255.0 L198.7,252.2 L199.5,236.9 L200.3,210.6 L201.2,181.8 L202.0,163.8 L202.9,160.1 L203.7,160.1 L204.5,164.7 L205.4,168.0 L206.2,171.4 L207.1,174.2 L207.9,175.4 L208.8,175.7 L209.6,176.3 L210.4,180.9 L211.3,184.9 L212.1,182.7 L213.0,186.1 L213.8,205.7 L214.6,229.9 L215.5,243.4 L216.3,249.5 L217.2,251.3 L218.0,252.8 L218.8,249.5 L219.7,234.5 L220.5,208.8 L221.4,181.5 L222.2,165.0 L223.1,161.9 L223.9,161.9 L224.7,166.2 L225.6,169.3 L226.4,172.6 L227.3,175.4 L228.1,176.6 L228.9,177.2 L229.8,176.6 L230.6,181.2 L231.5,186.4 L232.3,186.1 L233.2,195.9 L234.0,209.7 L234.8,229.9 L235.7,226.5 L236.5,244.3 L237.4,251.3 L238.2,252.8 L239.0,249.5 L239.9,234.5 L240.7,208.8 L241.6,181.2 L242.4,165.0 L243.3,161.9 L244.1,161.9 L244.9,166.2 L245.8,169.3 L246.6,172.6 L247.5,175.4 L248.3,176.6 L249.1,177.2 L250.0,176.6 L250.8,181.2 L251.7,186.4 L252.5,186.1 L253.4,189.2 L254.2,207.5 L255.0,229.9 L255.9,226.5 L256.7,244.6 L257.6,251.3 L258.4,252.8 L259.2,249.5 L260.1,234.5 L260.9,208.8 L261.8,181.2 L262.6,165.0 L263.5,161.9 L264.3,161.9 L265.1,166.2 L266.0,169.3 L266.8,172.6 L267.7,175.4 L268.5,176.6 L269.3,177.2 L270.2,176.6 L271.0,181.2 L271.9,186.4 L272.7,186.1 L273.5,189.2 L274.4,207.5 L275.2,221.3 L276.1,224.1 L276.9,240.0 L277.8,249.2 L278.6,251.9 L279.4,251.0 L280.3,246.4 L281.1,239.7 L282.0,228.7 L282.8,214.0 L283.6,199.6 L284.5,191.9 L285.3,187.9 L286.2,187.6 L287.0,191.9 L287.9,192.8 L288.7,190.1 L289.5,186.4 L290.4,185.2 L291.2,178.1 L292.1,182.7 L292.9,186.7 L293.7,183.7 L294.6,193.4 L295.4,208.8 L296.3,227.4 L297.1,237.2 L298.0,243.4 L298.8,245.8 L299.6,243.4 L300.5,231.1 L301.3,207.5 L302.2,181.2 L303.0,163.4 L303.8,155.2 L304.7,150.0 L305.5,149.7 L306.4,149.4 L307.2,150.3 L308.1,150.9 L308.9,152.1 L309.7,151.5 L310.6,149.7 L311.4,155.2 L312.3,161.3 L313.1,162.8 L313.9,164.4 L314.8,181.5 L315.6,203.9 L316.5,227.1 L317.3,232.9 L318.1,234.8 L319.0,236.9 L319.8,233.9 L320.7,219.5 L321.5,194.1 L322.4,164.7 L323.2,146.0 L324.0,140.2 L324.9,139.6 L325.7,142.9 L326.6,144.8 L327.4,147.8 L328.2,149.7 L329.1,151.5 L329.9,152.1 L330.8,151.5 L331.6,155.5 L332.5,159.5 L333.3,157.6 L334.1,160.1 L335.0,178.8 L335.8,368.0 L336.7,270.0 L337.5,375.9 L338.3,420.0 L339.2,420.0 L340.0,420.0 L340.9,420.0 L341.7,420.0 L342.6,420.0 L343.4,420.0 L344.2,420.0 L345.1,420.0 L345.9,420.0 L346.8,420.0 L347.6,420.0 L348.4,420.0 L349.3,420.0 L350.1,420.0 L351.0,420.0 L351.8,420.0 L352.7,420.0 L353.5,420.0 L354.3,420.0 L355.2,420.0 L356.0,266.0 L356.9,229.6 L357.7,241.8 L358.5,249.5 L359.4,251.6 L360.2,250.4 L361.1,239.4 L361.9,216.7 L362.7,190.4 L363.6,172.0 L364.4,163.4 L365.3,157.6 L366.1,157.0 L367.0,156.4 L367.8,157.9 L368.6,159.2 L369.5,160.7 L370.3,160.4 L371.2,158.9 L372.0,163.4 L372.8,169.6 L373.7,171.1 L374.5,172.9 L375.4,190.1 L376.2,214.6 L377.1,234.2 L377.9,245.2 L378.7,251.9 L379.6,253.8 L380.4,251.3 L381.3,238.8 L382.1,215.8 L382.9,190.4 L383.8,172.9 L384.6,165.0 L385.5,159.2 L386.3,158.5 L387.2,158.5 L388.0,159.5 L388.8,160.4 L389.7,159.8 L390.5,160.1 L391.4,158.9 L392.2,163.1 L393.0,168.6 L393.9,171.4 L394.7,172.6 L395.6,189.8 L396.4,221.6 L397.3,236.0 L398.1,245.5 L398.9,251.9 L399.8,255.6 L400.6,255.9 L401.5,252.2 L402.3,246.7 L403.1,232.0 L404.0,215.2 L404.8,202.0 L405.7,193.4 L406.5,192.8 L407.3,192.5 L408.2,198.0 L409.0,205.1 L409.9,205.1 L410.7,200.5 L411.6,197.1 L412.4,197.7 L413.2,201.1 L414.1,198.7 L414.9,195.9 L415.8,206.6 L416.6,224.7 L417.4,238.8 L418.3,248.6 L419.1,254.4 L420.0,256.5 L420.8,255.3 L421.7,251.6 L422.5,245.2 L423.3,237.2 L424.2,225.0 L425.0,210.6 L425.9,201.4 L426.7,200.5 L427.5,197.4 L428.4,197.1 L429.2,195.6 L430.1,190.4 L430.9,184.6 L431.8,178.4 L432.6,173.2 L433.4,179.1 L434.3,185.5 L435.1,184.0 L436.0,196.8 L436.8,217.6 L437.6,233.2 L438.5,243.0 L439.3,250.1 L440.2,253.5 L441.0,252.5 L441.9,242.7 L442.7,220.4 L443.5,193.8 L444.4,172.0 L445.2,162.5 L446.1,157.9 L446.9,156.4 L447.7,156.4 L448.6,155.8 L449.4,155.8 L450.3,153.3 L451.1,152.1 L451.9,152.4 L452.8,161.0 L453.6,167.1 L454.5,171.1 L455.3,172.9 L456.2,191.0 L457.0,218.9 L457.8,229.0 L458.7,250.4 L459.5,261.4 L460.4,263.6 L461.2,260.8 L462.0,249.2 L462.9,226.2 L463.7,202.0 L464.6,182.4 L465.4,172.3 L466.3,165.9 L467.1,162.2 L467.9,161.0 L468.8,158.9 L469.6,156.4 L470.5,153.0 L471.3,147.2 L472.1,142.3 L473.0,153.0 L473.8,166.2 L474.7,173.5 L475.5,175.4 L476.4,194.4 L477.2,221.6 L478.0,239.4 L478.9,251.3 L479.7,258.7 L480.6,261.7 L481.4,261.1 L482.2,251.6 L483.1,229.9 L483.9,199.3 L484.8,174.2 L485.6,161.3 L486.5,160.1 L487.3,150.9 L488.1,148.1 L489.0,147.5 L489.8,142.0 L490.7,141.7 L491.5,146.0 L492.3,148.4 L493.2,158.5 L494.0,170.2 L494.9,176.3 L495.7,178.4 L496.5,196.5 L497.4,225.0 L498.2,242.1 L499.1,252.2 L499.9,258.7 L500.8,261.4 L501.6,259.6 L502.4,248.6 L503.3,223.8 L504.1,196.2 L505.0,175.4 L505.8,167.4 L506.6,163.4 L507.5,164.7 L508.3,166.2 L509.2,168.3 L510.0,170.2 L510.9,170.8 L511.7,171.1 L512.5,170.5 L513.4,175.1 L514.2,181.8 L515.1,184.0 L515.9,186.7 L516.7,203.6 L517.6,226.2 L518.4,244.0 L519.3,253.8 L520.1,259.3 L521.0,261.4 L521.8,259.0 L522.6,247.9 L523.5,223.1 L524.3,196.5 L525.2,176.6 L526.0,169.0 L526.8,164.4 L527.7,165.6 L528.5,166.8 L529.4,169.3 L530.2,171.1 L531.1,171.4 L531.9,172.3 L532.7,171.4 L533.6,176.3 L534.4,183.0 L535.3,184.6 L536.1,187.6 L536.9,204.5 L537.8,226.2 L538.6,244.0 L539.5,252.8 L540.3,258.0 L541.2,261.1 L542.0,260.8 L542.8,259.6 L543.7,248.9 L544.5,233.9 L545.4,216.4 L546.2,200.8 L547.0,193.8 L547.9,194.7 L548.7,195.0 L549.6,198.0 L550.4,203.6 L551.2,204.8 L552.1,202.3 L552.9,199.6 L553.8,198.7 L554.6,201.1 L555.5,198.0 L556.3,198.3 L557.1,209.7 L558.0,226.2 L558.8,239.4 L559.7,247.0 L560.5,252.2 L561.3,253.8 L562.2,252.2 L563.0,249.2 L563.9,239.4 L564.7,228.3 L565.6,210.0 L566.4,192.8 L567.2,185.5 L568.1,184.6 L568.9,186.4 L569.8,186.7 L570.6,191.0 L571.4,192.8 L572.3,189.8 L573.1,182.1 L574.0,185.5 L574.8,183.3 L575.7,179.1 L576.5,182.7 L577.3,202.6 L578.2,221.9 L579.0,236.0 L579.9,243.7 L580.7,247.0 L581.5,248.2 L582.4,244.9 L583.2,232.3 L584.1,206.6 L584.9,178.4 L585.8,160.1 L586.6,154.3 L587.4,154.6 L588.3,157.6 L589.1,161.0 L590.0,164.7 L590.8,167.7 L591.6,169.0 L592.5,169.6 L593.3,170.2 L594.2,175.4 L595.0,178.4 L595.8,176.9 L596.7,180.3 L597.5,199.3 L598.4,224.1 L599.2,237.8 L600.1,242.4 L600.9,245.2 L601.7,246.4 L602.6,242.7 L603.4,231.1 L604.3,206.6 L605.1,180.0 L605.9,163.4 L606.8,159.8 L607.6,160.1 L608.5,163.8 L609.3,166.5 L610.2,169.3 L611.0,171.4 L611.8,172.9 L612.7,173.9 L613.5,173.9 L614.4,178.8 L615.2,184.6 L616.0,184.3 L616.9,187.3 L617.7,204.5 L618.6,227.4 L619.4,241.8 L620.3,252.2 L621.1,257.4 L621.9,259.6 L622.8,256.2 L623.6,244.0 L624.5,221.0 L625.3,195.3 L626.1,178.1 L627.0,171.4 L627.8,166.8 L628.7,167.4 L629.5,168.6 L630.4,170.8 L631.2,172.6 L632.0,173.9 L632.9,173.9 L633.7,173.9 L634.6,178.8 L635.4,185.2 L636.2,184.3 L637.1,187.9 L637.9,205.7 L638.8,227.7 L639.6,244.3 L640.4,253.5 L641.3,258.4 L642.1,260.5 L643.0,257.7 L643.8,245.2 L644.7,219.2 L645.5,188.5 L646.3,168.6 L647.2,162.5 L648.0,160.7 L648.9,163.8 L649.7,166.8 L650.5,169.9 L651.4,172.6 L652.2,174.2 L653.1,175.1 L653.9,174.8 L654.8,179.4 L655.6,185.5 L656.4,185.5 L657.3,188.5 L658.1,206.0 L659.0,214.0 L659.8,217.9 L660.6,221.9 L661.5,225.9 L662.3,229.9 L663.2,233.9 L664.0,237.8 L664.9,219.5 L665.7,194.7 L666.5,179.1 L667.4,172.9 L668.2,169.3 L669.1,170.2 L669.9,171.1 L670.7,172.6 L671.6,174.2 L672.4,175.1 L673.3,174.5 L674.1,172.9 L675.0,177.5 L675.8,183.7 L676.6,187.3 L677.5,189.8 L678.3,206.9 L679.2,237.5 L680.0,244.9" stroke="#9467bd" stroke-width="2" fill="none" opacity="0.8"/>
<!-- Total Generation -->
<path d="M80.0,166.5 L80.8,194.4 L81.7,196.8 L82.5,196.5 L83.4,181.5 L84.2,158.2 L85.0,155.5 L85.9,170.2 L86.7,150.0 L87.6,232.0 L88.4,226.2 L89.3,227.4 L90.1,185.5 L90.9,215.5 L91.8,218.6 L92.6,200.2 L93.5,196.2 L94.3,223.8 L95.1,214.6 L96.0,189.2 L96.8,184.0 L97.7,156.7 L98.5,161.6 L99.4,168.0 L100.2,144.8 L101.0,76.5 L101.9,92.7 L102.7,117.2 L103.6,119.4 L104.4,173.9 L105.2,181.8 L106.1,169.6 L106.9,151.2 L107.8,171.7 L108.6,156.7 L109.5,169.9 L110.3,182.7 L111.1,192.2 L112.0,188.9 L112.8,184.3 L113.7,209.1 L114.5,237.5 L115.3,241.2 L116.2,182.7 L117.0,171.7 L117.9,173.5 L118.7,176.6 L119.6,229.3 L120.4,233.9 L121.2,236.3 L122.1,223.1 L122.9,204.8 L123.8,237.8 L124.6,239.7 L125.4,221.6 L126.3,230.8 L127.1,231.1 L128.0,228.0 L128.8,244.0 L129.6,211.5 L130.5,220.7 L131.3,149.1 L132.2,146.6 L133.0,221.0 L133.9,222.8 L134.7,216.1 L135.5,234.2 L136.4,243.4 L137.2,239.4 L138.1,250.4 L138.9,257.4 L139.7,259.3 L140.6,243.7 L141.4,227.1 L142.3,226.2 L143.1,219.5 L144.0,208.4 L144.8,240.0 L145.6,243.7 L146.5,240.0 L147.3,242.4 L148.2,243.0 L149.0,215.8 L149.8,219.8 L150.7,221.3 L151.5,222.8 L152.4,220.1 L153.2,216.7 L154.1,220.7 L154.9,228.7 L155.7,242.1 L156.6,251.0 L157.4,259.9 L158.3,256.5 L159.1,214.9 L159.9,216.4 L160.8,216.4 L161.6,213.7 L162.5,210.0 L163.3,207.2 L164.2,197.7 L165.0,190.1 L165.8,200.8 L166.7,214.3 L167.5,214.0 L168.4,214.9 L169.2,204.2 L170.0,207.2 L170.9,182.1 L171.7,211.8 L172.6,210.6 L173.4,215.2 L174.2,220.7 L175.1,221.9 L175.9,218.6 L176.8,218.6 L177.6,212.1 L178.5,207.8 L179.3,197.4 L180.1,169.6 L181.0,177.5 L181.8,183.0 L182.7,172.6 L183.5,171.7 L184.3,187.9 L185.2,191.9 L186.0,169.0 L186.9,189.2 L187.7,237.2 L188.6,227.7 L189.4,246.7 L190.2,243.4 L191.1,200.5 L191.9,205.1 L192.8,221.0 L193.6,217.9 L194.4,234.5 L195.3,241.2 L196.1,235.4 L197.0,217.9 L197.8,206.9 L198.7,191.0 L199.5,219.2 L200.3,204.5 L201.2,180.0 L202.0,210.0 L202.9,205.7 L203.7,216.7 L204.5,214.6 L205.4,225.3 L206.2,217.0 L207.1,212.7 L207.9,207.5 L208.8,205.7 L209.6,200.8 L210.4,207.5 L211.3,168.6 L212.1,172.6 L213.0,199.9 L213.8,200.8 L214.6,187.6 L215.5,210.9 L216.3,199.9 L217.2,198.3 L218.0,199.3 L218.8,191.3 L219.7,177.8 L220.5,150.0 L221.4,131.6 L222.2,162.5 L223.1,182.4 L223.9,203.6 L224.7,201.1 L225.6,188.5 L226.4,187.0 L227.3,201.4 L228.1,199.0 L228.9,197.4 L229.8,203.2 L230.6,150.0 L231.5,142.9 L232.3,151.2 L233.2,142.3 L234.0,149.7 L234.8,175.7 L235.7,188.9 L236.5,188.2 L237.4,179.1 L238.2,198.0 L239.0,156.1 L239.9,151.5 L240.7,131.0 L241.6,140.2 L242.4,153.0 L243.3,187.0 L244.1,195.6 L244.9,199.0 L245.8,202.6 L246.6,203.6 L247.5,206.3 L248.3,172.9 L249.1,208.1 L250.0,205.7 L250.8,165.6 L251.7,135.0 L252.5,149.7 L253.4,144.2 L254.2,154.0 L255.0,161.9 L255.9,174.2 L256.7,169.3 L257.6,176.3 L258.4,176.3 L259.2,143.5 L260.1,173.9 L260.9,135.9 L261.8,182.7 L262.6,233.6 L263.5,233.6 L264.3,228.3 L265.1,231.1 L266.0,234.5 L266.8,253.5 L267.7,240.6 L268.5,251.3 L269.3,247.6 L270.2,241.5 L271.0,242.7 L271.9,191.3 L272.7,190.7 L273.5,179.4 L274.4,197.4 L275.2,174.2 L276.1,201.7 L276.9,205.4 L277.8,240.3 L278.6,246.4 L279.4,241.8 L280.3,232.9 L281.1,226.5 L282.0,237.8 L282.8,265.7 L283.6,259.0 L284.5,255.9 L285.3,244.9 L286.2,205.7 L287.0,240.3 L287.9,226.5 L288.7,215.5 L289.5,202.6 L290.4,186.7 L291.2,197.7 L292.1,182.1 L292.9,158.2 L293.7,160.4 L294.6,195.3 L295.4,204.8 L296.3,202.6 L297.1,179.7 L298.0,153.3 L298.8,214.0 L299.6,224.1 L300.5,252.2 L301.3,237.8 L302.2,217.9 L303.0,235.1 L303.8,229.3 L304.7,225.9 L305.5,218.9 L306.4,186.4 L307.2,182.1 L308.1,173.9 L308.9,190.7 L309.7,142.6 L310.6,186.7 L311.4,112.9 L312.3,181.2 L313.1,206.9 L313.9,207.8 L314.8,206.6 L315.6,229.6 L316.5,238.5 L317.3,249.2 L318.1,202.0 L319.0,233.2 L319.8,203.2 L320.7,208.8 L321.5,180.6 L322.4,188.2 L323.2,165.6 L324.0,178.1 L324.9,158.2 L325.7,161.6 L326.6,145.1 L327.4,134.4 L328.2,132.2 L329.1,132.2 L329.9,143.9 L330.8,161.9 L331.6,155.8 L332.5,154.6 L333.3,191.9 L334.1,180.3 L335.0,194.4 L335.8,205.1 L336.7,194.4 L337.5,190.4 L338.3,217.0 L339.2,214.6 L340.0,200.2 L340.9,197.4 L341.7,154.6 L342.6,158.5 L343.4,146.3 L344.2,145.7 L345.1,155.2 L345.9,178.1 L346.8,192.8 L347.6,210.9 L348.4,206.3 L349.3,213.0 L350.1,218.9 L351.0,189.8 L351.8,169.3 L352.7,163.1 L353.5,173.2 L354.3,219.2 L355.2,217.3 L356.0,209.1 L356.9,191.0 L357.7,167.4 L358.5,168.0 L359.4,177.2 L360.2,192.2 L361.1,186.7 L361.9,189.5 L362.7,223.5 L363.6,225.3 L364.4,230.8 L365.3,191.6 L366.1,190.7 L367.0,207.5 L367.8,209.4 L368.6,220.1 L369.5,203.9 L370.3,210.3 L371.2,191.9 L372.0,151.8 L372.8,176.3 L373.7,163.8 L374.5,162.5 L375.4,196.5 L376.2,187.3 L377.1,198.0 L377.9,236.9 L378.7,255.6 L379.6,255.9 L380.4,265.4 L381.3,249.2 L382.1,233.9 L382.9,249.2 L383.8,239.1 L384.6,262.0 L385.5,252.2 L386.3,237.5 L387.2,228.0 L388.0,226.5 L388.8,223.1 L389.7,213.7 L390.5,214.9 L391.4,223.5 L392.2,221.0 L393.0,232.3 L393.9,236.0 L394.7,202.0 L395.6,191.9 L396.4,233.9 L397.3,250.1 L398.1,231.7 L398.9,253.5 L399.8,224.4 L400.6,230.8 L401.5,237.5 L402.3,250.4 L403.1,252.5 L404.0,257.4 L404.8,205.1 L405.7,233.6 L406.5,243.0 L407.3,246.7 L408.2,242.1 L409.0,242.7 L409.9,234.8 L410.7,245.2 L411.6,227.4 L412.4,237.8 L413.2,194.4 L414.1,190.1 L414.9,187.9 L415.8,188.2 L416.6,191.6 L417.4,212.1 L418.3,191.9 L419.1,202.0 L420.0,201.7 L420.8,212.1 L421.7,212.7 L422.5,217.3 L423.3,217.6 L424.2,180.9 L425.0,206.9 L425.9,213.0 L426.7,210.6 L427.5,207.5 L428.4,212.4 L429.2,234.5 L430.1,224.4 L430.9,215.2 L431.8,188.2 L432.6,210.3 L433.4,229.6 L434.3,192.2 L435.1,165.6 L436.0,210.3 L436.8,237.8 L437.6,256.5 L438.5,253.1 L439.3,245.8 L440.2,229.9 L441.0,217.6 L441.9,207.2 L442.7,189.8 L443.5,198.3 L444.4,190.4 L445.2,188.5 L446.1,174.2 L446.9,169.9 L447.7,170.2 L448.6,188.5 L449.4,183.0 L450.3,140.5 L451.1,142.3 L451.9,145.7 L452.8,124.6 L453.6,67.6 L454.5,69.1 L455.3,81.7 L456.2,78.0 L457.0,121.8 L457.8,155.5 L458.7,133.1 L459.5,138.6 L460.4,153.6 L461.2,126.4 L462.0,136.8 L462.9,133.4 L463.7,119.4 L464.6,131.6 L465.4,121.5 L466.3,138.0 L467.1,167.1 L467.9,180.0 L468.8,180.9 L469.6,185.8 L470.5,112.6 L471.3,82.6 L472.1,89.4 L473.0,90.6 L473.8,98.8 L474.7,85.4 L475.5,90.9 L476.4,120.0 L477.2,150.9 L478.0,179.7 L478.9,266.6 L479.7,267.2 L480.6,268.8 L481.4,263.6 L482.2,255.9 L483.1,255.6 L483.9,233.2 L484.8,224.7 L485.6,192.8 L486.5,201.4 L487.3,216.7 L488.1,187.6 L489.0,210.9 L489.8,177.5 L490.7,163.4 L491.5,198.0 L492.3,232.9 L493.2,210.9 L494.0,175.4 L494.9,168.6 L495.7,199.9 L496.5,167.7 L497.4,181.2 L498.2,182.4 L499.1,157.0 L499.9,167.1 L500.8,163.8 L501.6,183.7 L502.4,180.6 L503.3,177.8 L504.1,176.6 L505.0,184.6 L505.8,195.3 L506.6,191.3 L507.5,166.5 L508.3,183.3 L509.2,174.5 L510.0,146.3 L510.9,175.7 L511.7,175.7 L512.5,140.5 L513.4,137.7 L514.2,145.7 L515.1,157.9 L515.9,180.0 L516.7,164.7 L517.6,162.2 L518.4,160.1 L519.3,152.7 L520.1,150.0 L521.0,149.7 L521.8,184.3 L522.6,155.8 L523.5,141.7 L524.3,137.7 L525.2,150.0 L526.0,127.0 L526.8,124.9 L527.7,123.0 L528.5,144.8 L529.4,157.6 L530.2,138.0 L531.1,134.4 L531.9,164.4 L532.7,176.3 L533.6,173.2 L534.4,185.2 L535.3,197.4 L536.1,202.6 L536.9,222.5 L537.8,223.8 L538.6,228.0 L539.5,219.8 L540.3,241.8 L541.2,249.2 L542.0,252.8 L542.8,242.7 L543.7,241.5 L544.5,231.7 L545.4,223.5 L546.2,223.5 L547.0,225.0 L547.9,224.4 L548.7,235.1 L549.6,235.1 L550.4,240.6 L551.2,248.2 L552.1,222.5 L552.9,218.2 L553.8,193.4 L554.6,196.2 L555.5,222.5 L556.3,219.5 L557.1,236.9 L558.0,229.6 L558.8,207.2 L559.7,218.9 L560.5,223.5 L561.3,223.5 L562.2,235.1 L563.0,244.9 L563.9,217.9 L564.7,236.0 L565.6,226.2 L566.4,223.8 L567.2,214.6 L568.1,169.9 L568.9,173.5 L569.8,156.7 L570.6,169.9 L571.4,198.0 L572.3,202.6 L573.1,200.5 L574.0,153.3 L574.8,194.4 L575.7,222.8 L576.5,224.1 L577.3,226.2 L578.2,243.0 L579.0,230.8 L579.9,237.2 L580.7,235.7 L581.5,241.2 L582.4,232.9 L583.2,239.1 L584.1,233.6 L584.9,216.4 L585.8,218.6 L586.6,228.3 L587.4,208.4 L588.3,219.5 L589.1,221.9 L590.0,229.6 L590.8,241.5 L591.6,245.5 L592.5,201.4 L593.3,213.3 L594.2,215.8 L595.0,192.5 L595.8,218.2 L596.7,219.2 L597.5,212.1 L598.4,178.8 L599.2,208.1 L600.1,209.1 L600.9,210.3 L601.7,189.8 L602.6,186.7 L603.4,195.0 L604.3,174.5 L605.1,203.9 L605.9,174.2 L606.8,197.4 L607.6,184.3 L608.5,173.2 L609.3,172.9 L610.2,177.8 L611.0,184.9 L611.8,205.4 L612.7,195.3 L613.5,164.7 L614.4,165.0 L615.2,139.0 L616.0,156.1 L616.9,207.2 L617.7,195.3 L618.6,169.3 L619.4,182.7 L620.3,185.2 L621.1,172.6 L621.9,176.0 L622.8,188.5 L623.6,181.5 L624.5,182.4 L625.3,180.9 L626.1,167.4 L627.0,142.0 L627.8,149.1 L628.7,199.3 L629.5,175.7 L630.4,181.8 L631.2,169.0 L632.0,182.7 L632.9,199.3 L633.7,169.3 L634.6,161.0 L635.4,170.8 L636.2,177.5 L637.1,180.3 L637.9,180.0 L638.8,185.5 L639.6,176.3 L640.4,206.0 L641.3,191.0 L642.1,184.0 L643.0,188.9 L643.8,177.5 L644.7,177.2 L645.5,192.2 L646.3,170.2 L647.2,184.9 L648.0,217.6 L648.9,195.0 L649.7,199.3 L650.5,201.4 L651.4,196.8 L652.2,179.7 L653.1,197.7 L653.9,181.5 L654.8,172.6 L655.6,165.0 L656.4,174.8 L657.3,196.5 L658.1,192.8 L659.0,187.9 L659.8,200.2 L660.6,216.1 L661.5,210.3 L662.3,204.8 L663.2,203.6 L664.0,204.5 L664.9,195.3 L665.7,192.5 L666.5,229.6 L667.4,227.7 L668.2,234.5 L669.1,234.5 L669.9,236.6 L670.7,233.2 L671.6,236.6 L672.4,238.8 L673.3,250.1 L674.1,222.2 L675.0,205.1 L675.8,182.4 L676.6,185.2 L677.5,180.3 L678.3,184.3 L679.2,198.0 L680.0,198.7" stroke="#8c564b" stroke-width="2" fill="none" opacity="0.8"/>
<!-- Forecast Difference -->
<path d="M80.0,420.0 L80.8,420.0 L81.7,420.0 L82.5,420.0 L83.4,420.0 L84.2,420.0 L85.0,420.0 L85.9,420.0 L86.7,420.0 L87.6,420.0 L88.4,420.0 L89.3,420.0 L90.1,420.0 L90.9,420.0 L91.8,420.0 L92.6,420.0 L93.5,420.0 L94.3,420.0 L95.1,420.0 L96.0,420.0 L96.8,420.0 L97.7,420.0 L98.5,420.0 L99.4,420.0 L100.2,420.0 L101.0,420.0 L101.9,420.0 L102.7,420.0 L103.6,420.0 L104.4,420.0 L105.2,420.0 L106.1,420.0 L106.9,420.0 L107.8,420.0 L108.6,420.0 L109.5,420.0 L110.3,420.0 L111.1,420.0 L112.0,420.0 L112.8,420.0 L113.7,420.0 L114.5,420.0 L115.3,420.0 L116.2,420.0 L117.0,420.0 L117.9,420.0 L118.7,420.0 L119.6,420.0 L120.4,420.0 L121.2,420.0 L122.1,420.0 L122.9,420.0 L123.8,420.0 L124.6,420.0 L125.4,420.0 L126.3,420.0 L127.1,420.0 L128.0,420.0 L128.8,420.0 L129.6,420.0 L130.5,420.0 L131.3,420.0 L132.2,420.0 L133.0,420.0 L133.9,420.0 L134.7,420.0 L135.5,420.0 L136.4,420.0 L137.2,420.0 L138.1,420.0 L138.9,420.0 L139.7,420.0 L140.6,420.0 L141.4,420.0 L142.3,420.0 L143.1,420.0 L144.0,420.0 L144.8,420.0 L145.6,420.0 L146.5,420.0 L147.3,420.0 L148.2,420.0 L149.0,420.0 L149.8,420.0 L150.7,420.0 L151.5,420.0 L152.4,420.0 L153.2,420.0 L154.1,420.0 L154.9,420.0 L155.7,420.0 L156.6,420.0 L157.4,420.0 L158.3,420.0 L159.1,420.0 L159.9,420.0 L160.8,420.0 L161.6,420.0 L162.5,420.0 L163.3,420.0 L164.2,420.0 L165.0,420.0 L165.8,420.0 L166.7,420.0 L167.5,420.0 L168.4,420.0 L169.2,420.0 L170.0,420.0 L170.9,420.0 L171.7,420.0 L172.6,420.0 L173.4,420.0 L174.2,420.0 L175.1,420.0 L175.9,420.0 L176.8,420.0 L177.6,420.0 L178.5,420.0 L179.3,420.0 L180.1,420.0 L181.0,420.0 L181.8,420.0 L182.7,420.0 L183.5,420.0 L184.3,420.0 L185.2,420.0 L186.0,420.0 L186.9,420.0 L187.7,420.0 L188.6,420.0 L189.4,420.0 L190.2,420.0 L191.1,420.0 L191.9,420.0 L192.8,420.0 L193.6,420.0 L194.4,420.0 L195.3,420.0 L196.1,420.0 L197.0,420.0 L197.8,420.0 L198.7,420.0 L199.5,420.0 L200.3,420.0 L201.2,420.0 L202.0,420.0 L202.9,420.0 L203.7,420.0 L204.5,420.0 L205.4,420.0 L206.2,420.0 L207.1,420.0 L207.9,420.0 L208.8,420.0 L209.6,420.0 L210.4,420.0 L211.3,420.0 L212.1,420.0 L213.0,420.0 L213.8,420.0 L214.6,420.0 L215.5,420.0 L216.3,420.0 L217.2,420.0 L218.0,420.0 L218.8,420.0 L219.7,420.0 L220.5,420.0 L221.4,420.0 L222.2,420.0 L223.1,420.0 L223.9,420.0 L224.7,420.0 L225.6,420.0 L226.4,420.0 L227.3,420.0 L228.1,420.0 L228.9,420.0 L229.8,420.0 L230.6,420.0 L231.5,420.0 L232.3,420.0 L233.2,420.0 L234.0,420.0 L234.8,420.0 L235.7,420.0 L236.5,420.0 L237.4,420.0 L238.2,420.0 L239.0,420.0 L239.9,420.0 L240.7,420.0 L241.6,420.0 L242.4,420.0 L243.3,420.0 L244.1,420.0 L244.9,420.0 L245.8,420.0 L246.6,420.0 L247.5,420.0 L248.3,420.0 L249.1,420.0 L250.0,420.0 L250.8,420.0 L251.7,420.0 L252.5,420.0 L253.4,420.0 L254.2,420.0 L255.0,420.0 L255.9,420.0 L256.7,420.0 L257.6,420.0 L258.4,420.0 L259.2,420.0 L260.1,420.0 L260.9,420.0 L261.8,420.0 L262.6,420.0 L263.5,420.0 L264.3,420.0 L265.1,420.0 L266.0,420.0 L266.8,420.0 L267.7,420.0 L268.5,420.0 L269.3,420.0 L270.2,420.0 L271.0,420.0 L271.9,420.0 L272.7,420.0 L273.5,420.0 L274.4,420.0 L275.2,420.0 L276.1,420.0 L276.9,420.0 L277.8,420.0 L278.6,420.0 L279.4,420.0 L280.3,420.0 L281.1,420.0 L282.0,420.0 L282.8,420.0 L283.6,420.0 L284.5,420.0 L285.3,420.0 L286.2,420.0 L287.0,420.0 L287.9,420.0 L288.7,420.0 L289.5,420.0 L290.4,420.0 L291.2,420.0 L292.1,420.0 L292.9,420.0 L293.7,420.0 L294.6,420.0 L295.4,420.0 L296.3,420.0 L297.1,420.0 L298.0,420.0 L298.8,420.0 L299.6,420.0 L300.5,420.0 L301.3,420.0 L302.2,420.0 L303.0,420.0 L303.8,420.0 L304.7,420.0 L305.5,420.0 L306.4,420.0 L307.2,420.0 L308.1,420.0 L308.9,420.0 L309.7,420.0 L310.6,420.0 L311.4,420.0 L312.3,420.0 L313.1,420.0 L313.9,420.0 L314.8,420.0 L315.6,420.0 L316.5,420.0 L317.3,420.0 L318.1,420.0 L319.0,420.0 L319.8,420.0 L320.7,420.0 L321.5,420.0 L322.4,420.0 L323.2,420.0 L324.0,420.0 L324.9,420.0 L325.7,420.0 L326.6,420.0 L327.4,420.0 L328.2,420.0 L329.1,420.0 L329.9,420.0 L330.8,420.0 L331.6,420.0 L332.5,420.0 L333.3,420.0 L334.1,420.0 L335.0,420.0 L335.8,420.0 L336.7,420.0 L337.5,420.0 L338.3,420.0 L339.2,420.0 L340.0,420.0 L340.9,420.0 L341.7,420.0 L342.6,420.0 L343.4,420.0 L344.2,420.0 L345.1,420.0 L345.9,420.0 L346.8,420.0 L347.6,420.0 L348.4,420.0 L349.3,420.0 L350.1,420.0 L351.0,420.0 L351.8,420.0 L352.7,420.0 L353.5,420.0 L354.3,420.0 L355.2,420.0 L356.0,420.0 L356.9,420.0 L357.7,420.0 L358.5,420.0 L359.4,420.0 L360.2,420.0 L361.1,420.0 L361.9,420.0 L362.7,420.0 L363.6,420.0 L364.4,420.0 L365.3,420.0 L366.1,420.0 L367.0,420.0 L367.8,420.0 L368.6,420.0 L369.5,420.0 L370.3,420.0 L371.2,420.0 L372.0,420.0 L372.8,420.0 L373.7,420.0 L374.5,420.0 L375.4,420.0 L376.2,420.0 L377.1,420.0 L377.9,420.0 L378.7,420.0 L379.6,420.0 L380.4,420.0 L381.3,420.0 L382.1,420.0 L382.9,420.0 L383.8,420.0 L384.6,420.0 L385.5,420.0 L386.3,420.0 L387.2,420.0 L388.0,420.0 L388.8,420.0 L389.7,420.0 L390.5,420.0 L391.4,420.0 L392.2,420.0 L393.0,420.0 L393.9,420.0 L394.7,420.0 L395.6,420.0 L396.4,420.0 L397.3,420.0 L398.1,420.0 L398.9,420.0 L399.8,420.0 L400.6,420.0 L401.5,420.0 L402.3,420.0 L403.1,420.0 L404.0,420.0 L404.8,420.0 L405.7,420.0 L406.5,420.0 L407.3,420.0 L408.2,420.0 L409.0,420.0 L409.9,420.0 L410.7,420.0 L411.6,420.0 L412.4,420.0 L413.2,420.0 L414.1,420.0 L414.9,420.0 L415.8,420.0 L416.6,420.0 L417.4,420.0 L418.3,420.0 L419.1,420.0 L420.0,420.0 L420.8,420.0 L421.7,420.0 L422.5,420.0 L423.3,420.0 L424.2,420.0 L425.0,420.0 L425.9,420.0 L426.7,420.0 L427.5,420.0 L428.4,420.0 L429.2,420.0 L430.1,420.0 L430.9,420.0 L431.8,420.0 L432.6,420.0 L433.4,420.0 L434.3,420.0 L435.1,420.0 L436.0,420.0 L436.8,420.0 L437.6,420.0 L438.5,420.0 L439.3,420.0 L440.2,420.0 L441.0,420.0 L441.9,420.0 L442.7,420.0 L443.5,420.0 L444.4,420.0 L445.2,420.0 L446.1,420.0 L446.9,420.0 L447.7,420.0 L448.6,420.0 L449.4,420.0 L450.3,420.0 L451.1,420.0 L451.9,420.0 L452.8,420.0 L453.6,420.0 L454.5,420.0 L455.3,420.0 L456.2,420.0 L457.0,420.0 L457.8,420.0 L458.7,420.0 L459.5,420.0 L460.4,420.0 L461.2,420.0 L462.0,420.0 L462.9,420.0 L463.7,420.0 L464.6,420.0 L465.4,420.0 L466.3,420.0 L467.1,420.0 L467.9,420.0 L468.8,420.0 L469.6,420.0 L470.5,420.0 L471.3,420.0 L472.1,420.0 L473.0,420.0 L473.8,420.0 L474.7,420.0 L475.5,420.0 L476.4,420.0 L477.2,420.0 L478.0,420.0 L478.9,420.0 L479.7,420.0 L480.6,420.0 L481.4,420.0 L482.2,420.0 L483.1,420.0 L483.9,420.0 L484.8,420.0 L485.6,420.0 L486.5,420.0 L487.3,420.0 L488.1,420.0 L489.0,420.0 L489.8,420.0 L490.7,420.0 L491.5,420.0 L492.3,420.0 L493.2,420.0 L494.0,420.0 L494.9,420.0 L495.7,420.0 L496.5,420.0 L497.4,420.0 L498.2,420.0 L499.1,420.0 L499.9,420.0 L500.8,420.0 L501.6,420.0 L502.4,420.0 L503.3,420.0 L504.1,420.0 L505.0,420.0 L505.8,420.0 L506.6,420.0 L507.5,420.0 L508.3,420.0 L509.2,420.0 L510.0,420.0 L510.9,420.0 L511.7,420.0 L512.5,420.0 L513.4,420.0 L514.2,420.0 L515.1,420.0 L515.9,420.0 L516.7,420.0 L517.6,420.0 L518.4,420.0 L519.3,420.0 L520.1,420.0 L521.0,420.0 L521.8,420.0 L522.6,420.0 L523.5,420.0 L524.3,420.0 L525.2,420.0 L526.0,420.0 L526.8,420.0 L527.7,420.0 L528.5,420.0 L529.4,420.0 L530.2,420.0 L531.1,420.0 L531.9,420.0 L532.7,420.0 L533.6,420.0 L534.4,420.0 L535.3,420.0 L536.1,420.0 L536.9,420.0 L537.8,420.0 L538.6,420.0 L539.5,420.0 L540.3,420.0 L541.2,420.0 L542.0,420.0 L542.8,420.0 L543.7,420.0 L544.5,420.0 L545.4,420.0 L546.2,420.0 L547.0,420.0 L547.9,420.0 L548.7,420.0 L549.6,420.0 L550.4,420.0 L551.2,420.0 L552.1,420.0 L552.9,420.0 L553.8,420.0 L554.6,420.0 L555.5,420.0 L556.3,420.0 L557.1,420.0 L558.0,420.0 L558.8,420.0 L559.7,420.0 L560.5,420.0 L561.3,420.0 L562.2,420.0 L563.0,420.0 L563.9,420.0 L564.7,420.0 L565.6,420.0 L566.4,420.0 L567.2,420.0 L568.1,420.0 L568.9,420.0 L569.8,420.0 L570.6,420.0 L571.4,420.0 L572.3,420.0 L573.1,420.0 L574.0,420.0 L574.8,420.0 L575.7,420.0 L576.5,420.0 L577.3,420.0 L578.2,420.0 L579.0,420.0 L579.9,420.0 L580.7,420.0 L581.5,420.0 L582.4,420.0 L583.2,420.0 L584.1,420.0 L584.9,420.0 L585.8,420.0 L586.6,420.0 L587.4,420.0 L588.3,420.0 L589.1,420.0 L590.0,420.0 L590.8,420.0 L591.6,420.0 L592.5,420.0 L593.3,420.0 L594.2,420.0 L595.0,420.0 L595.8,420.0 L596.7,420.0 L597.5,420.0 L598.4,420.0 L599.2,420.0 L600.1,420.0 L600.9,420.0 L601.7,420.0 L602.6,420.0 L603.4,420.0 L604.3,420.0 L605.1,420.0 L605.9,420.0 L606.8,420.0 L607.6,420.0 L608.5,420.0 L609.3,420.0 L610.2,420.0 L611.0,420.0 L611.8,420.0 L612.7,420.0 L613.5,420.0 L614.4,420.0 L615.2,420.0 L616.0,420.0 L616.9,420.0 L617.7,420.0 L618.6,420.0 L619.4,420.0 L620.3,420.0 L621.1,420.0 L621.9,420.0 L622.8,420.0 L623.6,420.0 L624.5,420.0 L625.3,420.0 L626.1,420.0 L627.0,420.0 L627.8,420.0 L628.7,420.0 L629.5,420.0 L630.4,420.0 L631.2,420.0 L632.0,420.0 L632.9,420.0 L633.7,420.0 L634.6,420.0 L635.4,420.0 L636.2,420.0 L637.1,420.0 L637.9,420.0 L638.8,420.0 L639.6,420.0 L640.4,420.0 L641.3,420.0 L642.1,420.0 L643.0,420.0 L643.8,420.0 L644.7,420.0 L645.5,420.0 L646.3,420.0 L647.2,420.0 L648.0,420.0 L648.9,420.0 L649.7,420.0 L650.5,420.0 L651.4,420.0 L652.2,420.0 L653.1,420.0 L653.9,420.0 L654.8,420.0 L655.6,420.0 L656.4,420.0 L657.3,420.0 L658.1,420.0 L659.0,420.0 L659.8,420.0 L660.6,420.0 L661.5,420.0 L662.3,420.0 L663.2,420.0 L664.0,420.0 L664.9,420.0 L665.7,420.0 L666.5,420.0 L667.4,420.0 L668.2,420.0 L669.1,420.0 L669.9,420.0 L670.7,420.0 L671.6,420.0 L672.4,420.0 L673.3,420.0 L674.1,420.0 L675.0,420.0 L675.8,420.0 L676.6,420.0 L677.5,420.0 L678.3,420.0 L679.2,420.0 L680.0,420.0" stroke="#e377c2" stroke-width="2" fill="none" opacity="0.8"/>

<!-- Legend -->
<line x1="690" y1="70" x2="705" y2="70" stroke="#1f77b4" stroke-width="3"/>
<text x="710" y="74" class="legend">Wind Generation</text>
<line x1="690" y1="88" x2="705" y2="88" stroke="#ff7f0e" stroke-width="3"/>
<text x="710" y="92" class="legend">Hydro Generation</text>
<line x1="690" y1="106" x2="705" y2="106" stroke="#2ca02c" stroke-width="3"/>
<text x="710" y="110" class="legend">Thermal Generation</text>
<line x1="690" y1="124" x2="705" y2="124" stroke="#d62728" stroke-width="3"/>
<text x="710" y="128" class="legend">Solar Generation</text>
<line x1="690" y1="142" x2="705" y2="142" stroke="#9467bd" stroke-width="3"/>
<text x="710" y="146" class="legend">Forecast</text>
<line x1="690" y1="160" x2="705" y2="160" stroke="#8c564b" stroke-width="3"/>
<text x="710" y="164" class="legend">Total Generation</text>
<line x1="690" y1="178" x2="705" y2="178" stroke="#e377c2" stroke-width="3"/>
<text x="710" y="182" class="legend">Forecast Difference</text>

<!-- Date range -->
<text x="80" y="495" class="legend">Range: 04/23 - 05/23/2026 (714 records)</text>
</svg>