<?xml version="1.0" encoding="UTF-8"?>
<svg width="800" height="500" xmlns="http://www.w3.org/2000/svg">
<style>
.axis-line { stroke: #333; stroke-width: 1; }
.grid-line { stroke: #ddd; stroke-width: 0.5; }
.title { font: 16px Arial; text-anchor: middle; fill: #333; }
.axis-label { font: 12px Arial; text-anchor: middle; fill: #666; }
.legend { font: 10px Arial; fill: #333; }
</style>

<!-- Title -->
<text x="400.0" y="25" class="title">Northwestern Energy Generation Data - Past 30 Days</text>

<!-- Plot area background -->
<rect x="80" y="50" width="600" height="370" fill="white" stroke="#ddd"/>

<!-- Y-axis -->
<line x1="80" y1="50" x2="80" y2="420" class="axis-line"/>
<text x="30" y="235.0" class="axis-label" transform="rotate(-90, 30, 235.0)">Generation (MW)</text>

<!-- X-axis -->
<line x1="80" y1="420" x2="680" y2="420" class="axis-line"/>
<text x="380.0" y="480" class="axis-label">Time</text>
<line x1="80" y1="420.0" x2="680" y2="420.0" class="grid-line"/>
<text x="70" y="425.0" class="legend" text-anchor="end">0</text>
<line x1="80" y1="327.5" x2="680" y2="327.5" class="grid-line"/>
<text x="70" y="332.5" class="legend" text-anchor="end">309</text>
<line x1="80" y1="235.0" x2="680" y2="235.0" class="grid-line"/>
<text x="70" y="240.0" class="legend" text-anchor="end">617</text>
<line x1="80" y1="142.5" x2="680" y2="142.5" class="grid-line"/>
<text x="70" y="147.5" class="legend" text-anchor="end">926</text>
<line x1="80" y1="50.0" x2="680" y2="50.0" class="grid-line"/>
<text x="70" y="55.0" class="legend" text-anchor="end">1235</text>
<!-- Wind Generation -->
<path d="M80.0,390.6 L80.8,398.7 L81.7,401.4 L82.5,401.7 L83.4,405.9 L84.2,398.4 L85.0,402.6 L85.9,389.1 L86.7,376.9 L87.6,367.3 L88.4,375.7 L89.3,373.0 L90.1,374.8 L90.9,373.6 L91.8,387.6 L92.6,390.9 L93.5,392.1 L94.3,391.2 L95.1,399.6 L96.0,387.9 L96.8,392.7 L97.7,404.7 L98.5,394.8 L99.4,384.0 L100.2,390.9 L101.0,405.3 L101.9,400.2 L102.7,388.8 L103.6,394.2 L104.4,398.7 L105.2,405.6 L106.1,398.4 L106.9,392.7 L107.8,394.2 L108.6,397.8 L109.5,401.4 L110.3,404.1 L111.1,412.2 L112.0,412.5 L112.8,414.6 L113.7,417.0 L114.5,416.1 L115.3,415.8 L116.2,414.9 L117.0,409.2 L117.9,408.9 L118.7,406.8 L119.6,410.1 L120.4,414.9 L121.2,417.3 L122.1,409.5 L122.9,409.8 L123.8,414.0 L124.6,416.7 L125.4,417.9 L126.3,414.0 L127.1,410.4 L128.0,410.1 L128.8,408.6 L129.6,411.6 L130.5,413.7 L131.3,413.4 L132.2,396.3 L133.0,377.2 L133.9,380.7 L134.7,363.1 L135.5,364.0 L136.4,369.4 L137.2,376.6 L138.1,373.3 L138.9,378.9 L139.7,387.6 L140.6,402.6 L141.4,403.2 L142.3,406.5 L143.1,410.4 L144.0,413.7 L144.8,415.5 L145.6,411.0 L146.5,402.3 L147.3,392.7 L148.2,392.7 L149.0,378.3 L149.8,368.2 L150.7,380.1 L151.5,369.4 L152.4,355.9 L153.2,360.7 L154.1,344.8 L154.9,336.7 L155.7,355.0 L156.6,353.8 L157.4,354.1 L158.3,353.8 L159.1,366.4 L159.9,378.6 L160.8,383.1 L161.6,379.8 L162.5,384.0 L163.3,400.8 L164.2,403.5 L165.0,408.0 L165.8,408.0 L166.7,407.1 L167.5,407.1 L168.4,409.2 L169.2,411.9 L170.0,412.8 L170.9,414.3 L171.7,415.8 L172.6,417.0 L173.4,416.1 L174.2,413.7 L175.1,414.0 L175.9,410.1 L176.8,416.7 L177.6,412.2 L178.5,416.4 L179.3,405.9 L180.1,405.0 L181.0,390.9 L181.8,377.2 L182.7,408.6 L183.5,409.8 L184.3,407.7 L185.2,415.8 L186.0,417.9 L186.9,417.3 L187.7,416.7 L188.6,413.7 L189.4,413.1 L190.2,413.7 L191.1,416.4 L191.9,415.5 L192.8,414.0 L193.6,412.5 L194.4,406.8 L195.3,389.7 L196.1,390.0 L197.0,356.2 L197.8,338.2 L198.7,326.2 L199.5,317.5 L200.3,327.4 L201.2,335.5 L202.0,339.4 L202.9,364.0 L203.7,372.1 L204.5,388.5 L205.4,397.8 L206.2,390.9 L207.1,385.5 L207.9,398.7 L208.8,397.2 L209.6,392.4 L210.4,380.1 L211.3,386.1 L212.1,394.5 L213.0,400.5 L213.8,406.2 L214.6,405.0 L215.5,406.2 L216.3,387.9 L217.2,389.1 L218.0,401.1 L218.8,403.5 L219.7,401.4 L220.5,388.5 L221.4,390.6 L222.2,382.2 L223.1,386.4 L223.9,385.2 L224.7,384.3 L225.6,389.7 L226.4,396.0 L227.3,370.0 L228.1,377.8 L228.9,395.4 L229.8,417.9 L230.6,406.2 L231.5,404.1 L232.3,411.3 L233.2,416.7 L234.0,420.0 L234.8,417.9 L235.7,411.0 L236.5,408.9 L237.4,404.7 L238.2,405.9 L239.0,401.7 L239.9,395.4 L240.7,389.4 L241.6,400.8 L242.4,372.7 L243.3,381.3 L244.1,402.6 L244.9,373.9 L245.8,396.0 L246.6,403.5 L247.5,378.6 L248.3,373.6 L249.1,370.3 L250.0,388.8 L250.8,389.1 L251.7,396.3 L252.5,411.0 L253.4,419.4 L254.2,419.4 L255.0,419.1 L255.9,417.9 L256.7,418.5 L257.6,410.1 L258.4,399.6 L259.2,384.9 L260.1,394.5 L260.9,360.1 L261.8,367.9 L262.6,342.1 L263.5,357.7 L264.3,365.8 L265.1,357.7 L266.0,342.7 L266.8,334.3 L267.7,351.1 L268.5,355.9 L269.3,371.5 L270.2,390.3 L271.0,385.8 L271.9,402.6 L272.7,417.3 L273.5,414.3 L274.4,409.5 L275.2,408.9 L276.1,401.4 L276.9,394.2 L277.8,391.8 L278.6,384.3 L279.4,383.1 L280.3,385.5 L281.1,362.2 L282.0,351.1 L282.8,341.5 L283.6,332.5 L284.5,345.7 L285.3,361.9 L286.2,361.0 L287.0,352.9 L287.9,337.6 L288.7,332.2 L289.5,333.7 L290.4,331.9 L291.2,328.0 L292.1,353.2 L292.9,352.9 L293.7,352.9 L294.6,353.8 L295.4,354.7 L296.3,349.6 L297.1,352.3 L298.0,354.1 L298.8,355.6 L299.6,358.3 L300.5,318.7 L301.3,320.5 L302.2,325.6 L303.0,334.6 L303.8,358.9 L304.7,347.2 L305.5,348.7 L306.4,352.9 L307.2,352.3 L308.1,352.9 L308.9,351.4 L309.7,361.9 L310.6,374.2 L311.4,373.3 L312.3,369.1 L313.1,358.3 L313.9,353.8 L314.8,332.5 L315.6,328.0 L316.5,326.8 L317.3,325.3 L318.1,318.4 L319.0,340.6 L319.8,326.2 L320.7,331.6 L321.5,324.7 L322.4,356.2 L323.2,337.3 L324.0,351.1 L324.9,354.1 L325.7,373.6 L326.6,368.5 L327.4,369.1 L328.2,377.2 L329.1,382.2 L329.9,387.6 L330.8,381.6 L331.6,391.5 L332.5,395.4 L333.3,402.0 L334.1,404.1 L335.0,385.5 L335.8,383.7 L336.7,377.8 L337.5,373.9 L338.3,366.7 L339.2,373.9 L340.0,382.5 L340.9,366.7 L341.7,360.7 L342.6,377.5 L343.4,386.1 L344.2,391.8 L345.1,389.4 L345.9,394.8 L346.8,404.4 L347.6,407.1 L348.4,410.1 L349.3,407.1 L350.1,400.8 L351.0,405.0 L351.8,404.1 L352.7,410.4 L353.5,414.9 L354.3,418.5 L355.2,420.0 L356.0,420.0 L356.9,418.5 L357.7,417.9 L358.5,416.4 L359.4,413.7 L360.2,413.1 L361.1,409.5 L361.9,399.0 L362.7,379.5 L363.6,382.2 L364.4,385.8 L365.3,395.7 L366.1,397.8 L367.0,405.6 L367.8,406.5 L368.6,416.4 L369.5,417.0 L370.3,416.1 L371.2,405.6 L372.0,396.9 L372.8,395.7 L373.7,400.2 L374.5,392.1 L375.4,375.1 L376.2,355.3 L377.1,348.7 L377.9,339.4 L378.7,343.9 L379.6,341.8 L380.4,348.7 L381.3,345.7 L382.1,349.0 L382.9,363.4 L383.8,370.9 L384.6,381.6 L385.5,391.5 L386.3,408.0 L387.2,417.9 L388.0,417.6 L388.8,419.4 L389.7,419.4 L390.5,418.8 L391.4,416.1 L392.2,415.2 L393.0,415.2 L393.9,412.5 L394.7,411.3 L395.6,392.7 L396.4,382.5 L397.3,392.4 L398.1,390.0 L398.9,387.3 L399.8,389.4 L400.6,399.0 L401.5,405.6 L402.3,407.7 L403.1,407.7 L404.0,402.0 L404.8,369.1 L405.7,388.5 L406.5,393.3 L407.3,378.6 L408.2,370.0 L409.0,369.1 L409.9,374.2 L410.7,371.5 L411.6,360.1 L412.4,366.1 L413.2,380.1 L414.1,396.6 L414.9,386.4 L415.8,389.1 L416.6,391.8 L417.4,408.6 L418.3,415.8 L419.1,414.0 L420.0,394.5 L420.8,385.5 L421.7,389.7 L422.5,394.8 L423.3,366.1 L424.2,377.8 L425.0,370.6 L425.9,347.5 L426.7,354.1 L427.5,369.1 L428.4,357.1 L429.2,394.2 L430.1,402.0 L430.9,378.6 L431.8,376.9 L432.6,374.2 L433.4,365.2 L434.3,409.8 L435.1,405.9 L436.0,403.5 L436.8,407.7 L437.6,392.4 L438.5,388.5 L439.3,364.9 L440.2,354.4 L441.0,355.6 L441.9,325.6 L442.7,329.2 L443.5,331.9 L444.4,313.0 L445.2,308.5 L446.1,319.6 L446.9,319.0 L447.7,312.4 L448.6,310.0 L449.4,310.9 L450.3,334.0 L451.1,361.3 L451.9,356.5 L452.8,367.6 L453.6,369.1 L454.5,365.5 L455.3,361.9 L456.2,360.7 L457.0,369.4 L457.8,382.8 L458.7,394.5 L459.5,405.9 L460.4,400.5 L461.2,405.3 L462.0,407.4 L462.9,391.2 L463.7,392.4 L464.6,379.5 L465.4,380.7 L466.3,393.0 L467.1,404.7 L467.9,402.3 L468.8,395.7 L469.6,402.3 L470.5,417.9 L471.3,415.5 L472.1,398.1 L473.0,384.0 L473.8,367.0 L474.7,364.3 L475.5,349.3 L476.4,335.8 L477.2,347.5 L478.0,354.1 L478.9,352.0 L479.7,360.7 L480.6,364.6 L481.4,367.6 L482.2,353.5 L483.1,312.4 L483.9,348.1 L484.8,352.3 L485.6,326.8 L486.5,323.8 L487.3,322.3 L488.1,313.3 L489.0,312.4 L489.8,318.1 L490.7,314.5 L491.5,312.4 L492.3,313.0 L493.2,315.4 L494.0,320.8 L494.9,323.8 L495.7,322.6 L496.5,354.4 L497.4,320.2 L498.2,308.2 L499.1,329.8 L499.9,327.7 L500.8,313.3 L501.6,318.7 L502.4,321.7 L503.3,330.7 L504.1,324.4 L505.0,314.8 L505.8,314.8 L506.6,319.0 L507.5,316.6 L508.3,316.9 L509.2,315.1 L510.0,326.8 L510.9,327.1 L511.7,328.6 L512.5,333.4 L513.4,332.8 L514.2,340.0 L515.1,332.5 L515.9,331.0 L516.7,331.6 L517.6,330.7 L518.4,324.4 L519.3,318.4 L520.1,319.6 L521.0,340.3 L521.8,314.8 L522.6,315.1 L523.5,317.2 L524.3,334.0 L525.2,370.3 L526.0,376.6 L526.8,384.0 L527.7,393.0 L528.5,403.5 L529.4,412.8 L530.2,412.2 L531.1,408.6 L531.9,408.6 L532.7,407.7 L533.6,411.0 L534.4,415.2 L535.3,412.8 L536.1,406.8 L536.9,397.5 L537.8,382.5 L538.6,364.3 L539.5,355.6 L540.3,375.1 L541.2,376.6 L542.0,341.2 L542.8,356.2 L543.7,356.2 L544.5,363.7 L545.4,351.1 L546.2,357.1 L547.0,356.2 L547.9,353.2 L548.7,371.2 L549.6,378.9 L550.4,391.5 L551.2,394.2 L552.1,382.2 L552.9,361.6 L553.8,371.8 L554.6,378.3 L555.5,386.7 L556.3,392.7 L557.1,392.4 L558.0,391.8 L558.8,396.9 L559.7,397.5 L560.5,382.5 L561.3,375.1 L562.2,380.1 L563.0,381.9 L563.9,392.4 L564.7,397.8 L565.6,406.5 L566.4,405.3 L567.2,412.5 L568.1,413.1 L568.9,416.1 L569.8,419.1 L570.6,419.7 L571.4,419.7 L572.3,419.1 L573.1,419.7 L574.0,420.0 L574.8,420.0 L575.7,420.0 L576.5,420.0 L577.3,420.0 L578.2,420.0 L579.0,420.0 L579.9,420.0 L580.7,420.0 L581.5,420.0 L582.4,420.0 L583.2,420.0 L584.1,419.4 L584.9,419.1 L585.8,408.9 L586.6,413.1 L587.4,414.9 L588.3,418.5 L589.1,416.7 L590.0,414.6 L590.8,405.6 L591.6,390.6 L592.5,384.3 L593.3,383.1 L594.2,391.8 L595.0,402.3 L595.8,406.2 L596.7,409.8 L597.5,408.0 L598.4,400.8 L599.2,396.0 L600.1,387.3 L600.9,392.4 L601.7,391.2 L602.6,384.9 L603.4,378.0 L604.3,388.5 L605.1,406.8 L605.9,416.7 L606.8,414.9 L607.6,409.5 L608.5,402.0 L609.3,406.2 L610.2,401.4 L611.0,386.1 L611.8,358.0 L612.7,332.2 L613.5,339.1 L614.4,346.9 L615.2,326.2 L616.0,307.6 L616.9,301.9 L617.7,302.2 L618.6,302.2 L619.4,304.0 L620.3,306.7 L621.1,307.0 L621.9,312.4 L622.8,309.1 L623.6,307.0 L624.5,313.3 L625.3,318.1 L626.1,324.7 L627.0,343.6 L627.8,346.3 L628.7,333.4 L629.5,340.0 L630.4,352.0 L631.2,350.8 L632.0,354.1 L632.9,342.1 L633.7,347.5 L634.6,364.0 L635.4,367.0 L636.2,367.3 L637.1,361.6 L637.9,373.3 L638.8,364.6 L639.6,358.0 L640.4,353.2 L641.3,345.4 L642.1,344.8 L643.0,339.7 L643.8,353.2 L644.7,369.7 L645.5,379.5 L646.3,384.9 L647.2,400.2 L648.0,415.8 L648.9,417.3 L649.7,414.0 L650.5,415.8 L651.4,408.6 L652.2,415.8 L653.1,420.0 L653.9,415.5 L654.8,395.7 L655.6,418.8 L656.4,416.1 L657.3,415.8 L658.1,412.2 L659.0,405.9 L659.8,379.2 L660.6,380.7 L661.5,368.8 L662.3,362.2 L663.2,355.3 L664.0,344.8 L664.9,341.2 L665.7,377.8 L666.5,388.8 L667.4,403.2 L668.2,406.2 L669.1,408.3 L669.9,413.1 L670.7,415.2 L671.6,415.2 L672.4,416.7 L673.3,413.4 L674.1,412.8 L675.0,413.4 L675.8,416.1 L676.6,414.3 L677.5,413.1 L678.3,408.6 L679.2,405.0 L680.0,399.0" stroke="#1f77b4" stroke-width="2" fill="none" opacity="0.8"/>
<!-- Hydro Generation -->
<path d="M80.0,326.8 L80.8,326.5 L81.7,326.8 L82.5,326.5 L83.4,326.8 L84.2,326.8 L85.0,326.5 L85.9,327.4 L86.7,327.7 L87.6,328.3 L88.4,328.3 L89.3,329.5 L90.1,329.5 L90.9,328.6 L91.8,328.6 L92.6,328.9 L93.5,328.6 L94.3,328.9 L95.1,328.6 L96.0,330.1 L96.8,328.9 L97.7,328.6 L98.5,328.3 L99.4,328.0 L100.2,328.6 L101.0,328.6 L101.9,328.0 L102.7,327.4 L103.6,327.7 L104.4,328.0 L105.2,327.4 L106.1,327.7 L106.9,328.6 L107.8,328.6 L108.6,329.2 L109.5,329.2 L110.3,329.2 L111.1,329.2 L112.0,329.2 L112.8,327.4 L113.7,327.7 L114.5,328.0 L115.3,327.7 L116.2,327.7 L117.0,327.4 L117.9,327.4 L118.7,326.8 L119.6,327.1 L120.4,326.2 L121.2,326.8 L122.1,326.8 L122.9,328.0 L123.8,328.0 L124.6,327.7 L125.4,327.7 L126.3,328.6 L127.1,328.9 L128.0,328.9 L128.8,329.8 L129.6,330.4 L130.5,330.1 L131.3,329.8 L132.2,329.8 L133.0,329.5 L133.9,329.2 L134.7,329.8 L135.5,330.4 L136.4,331.0 L137.2,330.4 L138.1,330.1 L138.9,330.1 L139.7,330.7 L140.6,330.4 L141.4,330.1 L142.3,330.1 L143.1,330.1 L144.0,330.1 L144.8,330.1 L145.6,330.1 L146.5,330.1 L147.3,329.8 L148.2,330.1 L149.0,330.1 L149.8,330.4 L150.7,329.8 L151.5,330.1 L152.4,330.4 L153.2,330.4 L154.1,330.7 L154.9,330.4 L155.7,331.6 L156.6,331.9 L157.4,331.6 L158.3,332.5 L159.1,332.5 L159.9,331.6 L160.8,331.3 L161.6,331.6 L162.5,331.9 L163.3,331.6 L164.2,331.6 L165.0,331.9 L165.8,333.4 L166.7,333.1 L167.5,334.6 L168.4,334.3 L169.2,334.3 L170.0,334.6 L170.9,335.2 L171.7,334.3 L172.6,334.6 L173.4,334.3 L174.2,335.5 L175.1,334.3 L175.9,334.6 L176.8,334.6 L177.6,334.0 L178.5,334.0 L179.3,333.7 L180.1,333.4 L181.0,333.4 L181.8,332.5 L182.7,333.1 L183.5,332.8 L184.3,332.5 L185.2,332.5 L186.0,331.9 L186.9,331.9 L187.7,332.2 L188.6,331.9 L189.4,331.9 L190.2,332.2 L191.1,332.8 L191.9,333.1 L192.8,333.4 L193.6,333.4 L194.4,331.9 L195.3,332.2 L196.1,331.9 L197.0,331.9 L197.8,331.9 L198.7,314.2 L199.5,330.4 L200.3,330.7 L201.2,331.6 L202.0,331.6 L202.9,332.8 L203.7,332.8 L204.5,332.5 L205.4,332.5 L206.2,332.5 L207.1,332.5 L207.9,334.6 L208.8,334.6 L209.6,334.6 L210.4,334.6 L211.3,334.9 L212.1,336.4 L213.0,336.4 L213.8,337.6 L214.6,334.6 L215.5,332.2 L216.3,331.9 L217.2,331.9 L218.0,331.6 L218.8,332.2 L219.7,331.3 L220.5,331.3 L221.4,331.0 L222.2,331.0 L223.1,330.7 L223.9,330.4 L224.7,330.4 L225.6,330.4 L226.4,330.1 L227.3,330.4 L228.1,329.8 L228.9,329.2 L229.8,329.2 L230.6,328.3 L231.5,328.6 L232.3,328.9 L233.2,327.7 L234.0,327.7 L234.8,327.7 L235.7,324.7 L236.5,324.7 L237.4,324.7 L238.2,322.6 L239.0,319.6 L239.9,319.6 L240.7,319.6 L241.6,319.6 L242.4,319.0 L243.3,319.0 L244.1,319.0 L244.9,319.0 L245.8,319.0 L246.6,319.0 L247.5,319.0 L248.3,318.4 L249.1,318.7 L250.0,317.8 L250.8,317.5 L251.7,317.2 L252.5,316.9 L253.4,315.7 L254.2,315.7 L255.0,315.7 L255.9,315.4 L256.7,314.8 L257.6,315.4 L258.4,316.0 L259.2,313.9 L260.1,314.5 L260.9,312.7 L261.8,312.1 L262.6,312.1 L263.5,311.2 L264.3,311.5 L265.1,311.5 L266.0,311.2 L266.8,311.2 L267.7,311.2 L268.5,310.3 L269.3,309.7 L270.2,310.0 L271.0,310.0 L271.9,310.0 L272.7,308.8 L273.5,310.0 L274.4,310.9 L275.2,310.9 L276.1,311.2 L276.9,311.5 L277.8,311.2 L278.6,311.8 L279.4,310.6 L280.3,310.6 L281.1,309.4 L282.0,306.7 L282.8,305.2 L283.6,302.8 L284.5,320.8 L285.3,302.5 L286.2,301.0 L287.0,301.3 L287.9,320.5 L288.7,320.5 L289.5,320.5 L290.4,319.9 L291.2,319.6 L292.1,319.3 L292.9,319.0 L293.7,319.0 L294.6,319.0 L295.4,319.3 L296.3,299.5 L297.1,301.0 L298.0,301.0 L298.8,301.3 L299.6,301.0 L300.5,301.3 L301.3,302.5 L302.2,302.8 L303.0,302.5 L303.8,302.5 L304.7,302.5 L305.5,303.1 L306.4,302.8 L307.2,303.1 L308.1,302.8 L308.9,302.5 L309.7,302.8 L310.6,303.1 L311.4,302.8 L312.3,303.1 L313.1,303.1 L313.9,303.4 L314.8,303.1 L315.6,303.1 L316.5,303.1 L317.3,303.1 L318.1,303.1 L319.0,302.5 L319.8,302.2 L320.7,302.2 L321.5,301.6 L322.4,301.3 L323.2,301.6 L324.0,301.6 L324.9,301.6 L325.7,301.9 L326.6,301.9 L327.4,301.9 L328.2,301.9 L329.1,301.9 L329.9,302.2 L330.8,302.2 L331.6,302.2 L332.5,301.9 L333.3,301.0 L334.1,300.7 L335.0,300.7 L335.8,300.4 L336.7,301.3 L337.5,301.6 L338.3,302.5 L339.2,303.4 L340.0,303.4 L340.9,303.4 L341.7,304.0 L342.6,303.7 L343.4,303.4 L344.2,302.5 L345.1,302.5 L345.9,302.5 L346.8,302.5 L347.6,302.5 L348.4,302.8 L349.3,303.1 L350.1,302.8 L351.0,303.1 L351.8,303.4 L352.7,302.8 L353.5,302.8 L354.3,303.4 L355.2,304.3 L356.0,303.4 L356.9,304.3 L357.7,304.3 L358.5,304.3 L359.4,304.3 L360.2,304.0 L361.1,304.6 L361.9,304.6 L362.7,304.6 L363.6,304.3 L364.4,304.6 L365.3,304.3 L366.1,304.0 L367.0,304.0 L367.8,304.0 L368.6,304.3 L369.5,304.3 L370.3,304.6 L371.2,304.9 L372.0,304.6 L372.8,304.9 L373.7,304.3 L374.5,304.6 L375.4,304.6 L376.2,303.7 L377.1,304.6 L377.9,304.6 L378.7,304.9 L379.6,305.8 L380.4,305.8 L381.3,306.1 L382.1,306.1 L382.9,305.8 L383.8,305.8 L384.6,306.1 L385.5,306.4 L386.3,306.7 L387.2,306.7 L388.0,306.4 L388.8,306.7 L389.7,306.4 L390.5,306.4 L391.4,306.7 L392.2,306.7 L393.0,305.2 L393.9,305.2 L394.7,304.9 L395.6,305.2 L396.4,305.2 L397.3,307.9 L398.1,306.1 L398.9,305.2 L399.8,304.9 L400.6,305.2 L401.5,304.9 L402.3,304.9 L403.1,305.2 L404.0,305.5 L404.8,305.5 L405.7,305.8 L406.5,305.5 L407.3,305.5 L408.2,305.8 L409.0,305.8 L409.9,306.1 L410.7,306.4 L411.6,306.7 L412.4,306.4 L413.2,306.7 L414.1,306.4 L414.9,307.3 L415.8,307.3 L416.6,307.3 L417.4,307.3 L418.3,307.3 L419.1,307.3 L420.0,307.6 L420.8,307.6 L421.7,307.6 L422.5,307.3 L423.3,307.6 L424.2,307.3 L425.0,307.0 L425.9,308.2 L426.7,308.5 L427.5,309.1 L428.4,308.8 L429.2,309.1 L430.1,309.7 L430.9,309.7 L431.8,309.4 L432.6,309.7 L433.4,309.7 L434.3,309.1 L435.1,310.0 L436.0,310.0 L436.8,309.7 L437.6,309.7 L438.5,310.0 L439.3,310.3 L440.2,310.0 L441.0,309.7 L441.9,309.7 L442.7,309.7 L443.5,309.7 L444.4,309.1 L445.2,309.7 L446.1,309.7 L446.9,309.7 L447.7,309.7 L448.6,309.7 L449.4,309.1 L450.3,309.1 L451.1,309.1 L451.9,310.0 L452.8,310.0 L453.6,311.5 L454.5,311.2 L455.3,310.3 L456.2,310.0 L457.0,310.3 L457.8,310.0 L458.7,310.0 L459.5,309.7 L460.4,309.4 L461.2,310.6 L462.0,310.0 L462.9,310.6 L463.7,310.3 L464.6,310.6 L465.4,310.6 L466.3,310.9 L467.1,311.2 L467.9,312.1 L468.8,312.1 L469.6,312.1 L470.5,312.1 L471.3,311.8 L472.1,311.8 L473.0,311.5 L473.8,312.4 L474.7,312.1 L475.5,315.1 L476.4,315.4 L477.2,314.2 L478.0,315.1 L478.9,314.5 L479.7,314.5 L480.6,315.1 L481.4,314.2 L482.2,314.2 L483.1,313.9 L483.9,313.0 L484.8,313.6 L485.6,313.6 L486.5,314.5 L487.3,314.2 L488.1,316.9 L489.0,318.1 L489.8,318.7 L490.7,319.0 L491.5,318.7 L492.3,319.0 L493.2,318.7 L494.0,319.0 L494.9,319.3 L495.7,319.0 L496.5,319.3 L497.4,319.6 L498.2,319.3 L499.1,319.9 L499.9,319.3 L500.8,319.0 L501.6,319.9 L502.4,319.9 L503.3,319.9 L504.1,320.2 L505.0,320.2 L505.8,319.9 L506.6,319.9 L507.5,319.9 L508.3,320.8 L509.2,322.3 L510.0,324.1 L510.9,324.1 L511.7,324.1 L512.5,324.4 L513.4,324.4 L514.2,325.9 L515.1,325.9 L515.9,325.6 L516.7,324.7 L517.6,324.7 L518.4,324.4 L519.3,324.7 L520.1,323.5 L521.0,322.0 L521.8,322.0 L522.6,320.2 L523.5,319.6 L524.3,319.3 L525.2,319.3 L526.0,319.6 L526.8,319.3 L527.7,319.3 L528.5,319.0 L529.4,319.3 L530.2,319.6 L531.1,319.9 L531.9,319.6 L532.7,319.6 L533.6,319.6 L534.4,320.8 L535.3,320.8 L536.1,320.5 L536.9,321.4 L537.8,321.7 L538.6,321.7 L539.5,321.4 L540.3,321.4 L541.2,321.4 L542.0,321.7 L542.8,321.4 L543.7,321.4 L544.5,321.7 L545.4,322.3 L546.2,322.3 L547.0,322.0 L547.9,322.0 L548.7,322.6 L549.6,322.3 L550.4,321.4 L551.2,321.7 L552.1,321.1 L552.9,321.1 L553.8,321.4 L554.6,321.4 L555.5,321.1 L556.3,322.6 L557.1,323.2 L558.0,323.8 L558.8,323.2 L559.7,323.5 L560.5,323.8 L561.3,324.1 L562.2,323.2 L563.0,323.5 L563.9,323.2 L564.7,323.8 L565.6,322.9 L566.4,322.3 L567.2,322.0 L568.1,322.6 L568.9,322.3 L569.8,322.6 L570.6,323.2 L571.4,322.9 L572.3,324.1 L573.1,323.8 L574.0,324.1 L574.8,325.0 L575.7,324.7 L576.5,325.6 L577.3,325.6 L578.2,325.6 L579.0,325.6 L579.9,325.6 L580.7,325.3 L581.5,325.6 L582.4,325.9 L583.2,325.3 L584.1,325.9 L584.9,325.9 L585.8,325.0 L586.6,325.0 L587.4,324.7 L588.3,325.0 L589.1,325.6 L590.0,325.6 L590.8,325.6 L591.6,325.6 L592.5,325.6 L593.3,326.8 L594.2,326.8 L595.0,326.8 L595.8,326.5 L596.7,325.9 L597.5,327.4 L598.4,327.4 L599.2,327.4 L600.1,326.8 L600.9,327.1 L601.7,327.4 L602.6,327.1 L603.4,327.1 L604.3,326.2 L605.1,326.5 L605.9,326.5 L606.8,326.8 L607.6,326.5 L608.5,326.2 L609.3,326.2 L610.2,325.9 L611.0,327.4 L611.8,327.1 L612.7,326.8 L613.5,327.1 L614.4,328.0 L615.2,328.0 L616.0,327.7 L616.9,327.7 L617.7,327.4 L618.6,327.4 L619.4,327.4 L620.3,327.7 L621.1,327.7 L621.9,327.7 L622.8,327.4 L623.6,328.9 L624.5,334.3 L625.3,339.4 L626.1,340.0 L627.0,331.9 L627.8,332.5 L628.7,333.1 L629.5,333.1 L630.4,332.8 L631.2,331.9 L632.0,331.9 L632.9,330.7 L633.7,329.5 L634.6,329.2 L635.4,329.8 L636.2,328.9 L637.1,329.8 L637.9,329.5 L638.8,329.2 L639.6,328.9 L640.4,328.9 L641.3,329.2 L642.1,329.2 L643.0,329.2 L643.8,329.2 L644.7,329.5 L645.5,329.8 L646.3,329.8 L647.2,329.8 L648.0,329.5 L648.9,329.5 L649.7,329.2 L650.5,329.5 L651.4,328.6 L652.2,328.9 L653.1,328.9 L653.9,327.7 L654.8,328.3 L655.6,328.3 L656.4,328.6 L657.3,329.5 L658.1,329.2 L659.0,328.9 L659.8,329.2 L660.6,327.7 L661.5,327.4 L662.3,327.7 L663.2,327.1 L664.0,326.5 L664.9,326.2 L665.7,326.2 L666.5,326.5 L667.4,326.5 L668.2,327.1 L669.1,327.7 L669.9,327.7 L670.7,328.0 L671.6,327.7 L672.4,328.6 L673.3,328.3 L674.1,328.6 L675.0,328.6 L675.8,329.8 L676.6,329.8 L677.5,329.5 L678.3,329.8 L679.2,329.8 L680.0,331.0" stroke="#ff7f0e" stroke-width="2" fill="none" opacity="0.8"/>
<!-- Thermal Generation -->
<path d="M80.0,300.7 L80.8,297.4 L81.7,296.8 L82.5,296.5 L83.4,297.4 L84.2,295.9 L85.0,321.1 L85.9,319.0 L86.7,324.1 L87.6,337.9 L88.4,318.7 L89.3,320.5 L90.1,336.4 L90.9,335.2 L91.8,335.5 L92.6,361.9 L93.5,352.6 L94.3,352.9 L95.1,351.7 L96.0,349.6 L96.8,333.7 L97.7,334.6 L98.5,334.6 L99.4,334.3 L100.2,298.3 L101.0,286.1 L101.9,312.7 L102.7,321.4 L103.6,310.9 L104.4,318.1 L105.2,327.4 L106.1,328.6 L106.9,328.0 L107.8,325.3 L108.6,322.0 L109.5,322.0 L110.3,338.5 L111.1,374.2 L112.0,373.3 L112.8,370.3 L113.7,372.7 L114.5,373.0 L115.3,373.0 L116.2,372.7 L117.0,373.0 L117.9,373.0 L118.7,349.3 L119.6,334.3 L120.4,289.4 L121.2,286.1 L122.1,288.8 L122.9,291.2 L123.8,300.4 L124.6,298.6 L125.4,314.2 L126.3,300.7 L127.1,310.0 L128.0,313.3 L128.8,310.0 L129.6,309.7 L130.5,335.2 L131.3,373.6 L132.2,373.0 L133.0,373.0 L133.9,373.6 L134.7,371.8 L135.5,373.0 L136.4,373.0 L137.2,369.7 L138.1,373.6 L138.9,373.6 L139.7,373.6 L140.6,371.8 L141.4,370.9 L142.3,373.6 L143.1,373.6 L144.0,375.4 L144.8,377.8 L145.6,378.0 L146.5,377.8 L147.3,377.8 L148.2,378.0 L149.0,378.0 L149.8,377.8 L150.7,377.8 L151.5,378.0 L152.4,378.0 L153.2,377.8 L154.1,378.0 L154.9,378.3 L155.7,378.6 L156.6,379.2 L157.4,378.9 L158.3,378.9 L159.1,378.9 L159.9,379.2 L160.8,378.6 L161.6,338.8 L162.5,339.7 L163.3,338.5 L164.2,338.5 L165.0,338.8 L165.8,360.4 L166.7,360.1 L167.5,359.5 L168.4,359.5 L169.2,333.4 L170.0,334.3 L170.9,334.0 L171.7,334.6 L172.6,334.3 L173.4,334.6 L174.2,334.6 L175.1,334.9 L175.9,335.8 L176.8,299.8 L177.6,310.9 L178.5,294.4 L179.3,294.1 L180.1,316.0 L181.0,326.8 L181.8,318.7 L182.7,333.7 L183.5,334.3 L184.3,334.9 L185.2,335.2 L186.0,331.9 L186.9,331.9 L187.7,332.2 L188.6,331.9 L189.4,330.7 L190.2,331.6 L191.1,326.2 L191.9,325.6 L192.8,325.6 L193.6,316.9 L194.4,326.5 L195.3,326.2 L196.1,316.6 L197.0,314.5 L197.8,314.8 L198.7,362.8 L199.5,350.8 L200.3,333.1 L201.2,328.9 L202.0,314.8 L202.9,294.4 L203.7,298.6 L204.5,294.4 L205.4,296.8 L206.2,329.8 L207.1,332.5 L207.9,342.1 L208.8,311.8 L209.6,289.4 L210.4,311.8 L211.3,330.7 L212.1,338.8 L213.0,325.6 L213.8,326.5 L214.6,336.7 L215.5,338.8 L216.3,332.8 L217.2,332.8 L218.0,332.8 L218.8,319.6 L219.7,302.2 L220.5,308.2 L221.4,307.0 L222.2,294.7 L223.1,299.2 L223.9,286.1 L224.7,292.1 L225.6,294.7 L226.4,290.0 L227.3,317.5 L228.1,325.3 L228.9,331.0 L229.8,330.7 L230.6,301.6 L231.5,324.1 L232.3,327.4 L233.2,326.8 L234.0,326.5 L234.8,312.4 L235.7,316.0 L236.5,313.0 L237.4,295.0 L238.2,300.4 L239.0,305.8 L239.9,309.4 L240.7,315.7 L241.6,309.1 L242.4,301.6 L243.3,305.2 L244.1,328.9 L244.9,310.0 L245.8,314.2 L246.6,336.7 L247.5,336.7 L248.3,371.8 L249.1,377.8 L250.0,377.2 L250.8,378.3 L251.7,375.4 L252.5,374.5 L253.4,375.1 L254.2,374.8 L255.0,374.8 L255.9,374.5 L256.7,374.8 L257.6,375.4 L258.4,375.4 L259.2,374.8 L260.1,375.1 L260.9,375.4 L261.8,375.7 L262.6,375.1 L263.5,373.9 L264.3,373.6 L265.1,378.9 L266.0,378.6 L266.8,378.3 L267.7,378.0 L268.5,378.0 L269.3,378.3 L270.2,377.8 L271.0,378.3 L271.9,373.9 L272.7,374.2 L273.5,374.5 L274.4,374.2 L275.2,374.2 L276.1,373.9 L276.9,373.9 L277.8,373.9 L278.6,373.9 L279.4,374.2 L280.3,374.5 L281.1,373.9 L282.0,374.2 L282.8,374.2 L283.6,373.6 L284.5,373.6 L285.3,375.4 L286.2,378.0 L287.0,378.0 L287.9,378.3 L288.7,378.3 L289.5,378.3 L290.4,378.6 L291.2,378.6 L292.1,378.9 L292.9,379.2 L293.7,378.3 L294.6,378.6 L295.4,378.3 L296.3,378.6 L297.1,378.3 L298.0,378.6 L298.8,378.9 L299.6,378.9 L300.5,378.3 L301.3,378.3 L302.2,378.9 L303.0,378.3 L303.8,360.4 L304.7,360.4 L305.5,378.0 L306.4,378.3 L307.2,378.3 L308.1,378.3 L308.9,378.0 L309.7,378.6 L310.6,379.2 L311.4,378.0 L312.3,375.7 L313.1,375.7 L313.9,375.7 L314.8,375.7 L315.6,375.1 L316.5,374.8 L317.3,375.4 L318.1,374.8 L319.0,375.4 L319.8,375.4 L320.7,375.7 L321.5,375.4 L322.4,320.5 L323.2,335.2 L324.0,375.7 L324.9,374.5 L325.7,356.8 L326.6,360.4 L327.4,379.2 L328.2,379.8 L329.1,379.8 L329.9,362.8 L330.8,351.1 L331.6,351.1 L332.5,378.9 L333.3,374.8 L334.1,372.1 L335.0,372.4 L335.8,371.2 L336.7,372.1 L337.5,381.0 L338.3,381.0 L339.2,381.9 L340.0,375.7 L340.9,370.0 L341.7,337.6 L342.6,330.7 L343.4,337.9 L344.2,321.1 L345.1,311.8 L345.9,301.0 L346.8,314.5 L347.6,369.1 L348.4,369.4 L349.3,367.0 L350.1,352.0 L351.0,354.7 L351.8,354.7 L352.7,366.4 L353.5,378.6 L354.3,372.4 L355.2,375.7 L356.0,375.4 L356.9,369.1 L357.7,305.2 L358.5,306.4 L359.4,357.4 L360.2,357.4 L361.1,357.1 L361.9,357.7 L362.7,321.1 L363.6,289.7 L364.4,302.2 L365.3,363.7 L366.1,366.4 L367.0,378.6 L367.8,378.0 L368.6,378.3 L369.5,378.6 L370.3,378.3 L371.2,378.6 L372.0,378.3 L372.8,378.3 L373.7,376.6 L374.5,375.7 L375.4,376.0 L376.2,375.4 L377.1,375.4 L377.9,375.4 L378.7,374.8 L379.6,375.4 L380.4,375.7 L381.3,375.7 L382.1,358.9 L382.9,358.3 L383.8,346.6 L384.6,337.9 L385.5,343.9 L386.3,354.7 L387.2,354.4 L388.0,354.4 L388.8,345.1 L389.7,345.1 L390.5,345.4 L391.4,340.6 L392.2,354.1 L393.0,364.3 L393.9,375.7 L394.7,376.3 L395.6,376.3 L396.4,375.7 L397.3,375.4 L398.1,375.7 L398.9,376.0 L399.8,376.0 L400.6,374.8 L401.5,357.7 L402.3,357.7 L403.1,339.7 L404.0,333.1 L404.8,312.4 L405.7,306.4 L406.5,336.1 L407.3,348.4 L408.2,359.8 L409.0,360.4 L409.9,359.8 L410.7,359.8 L411.6,359.5 L412.4,359.8 L413.2,357.7 L414.1,357.7 L414.9,357.7 L415.8,358.0 L416.6,357.1 L417.4,356.8 L418.3,358.0 L419.1,357.4 L420.0,357.7 L420.8,358.0 L421.7,357.4 L422.5,357.1 L423.3,352.3 L424.2,356.2 L425.0,356.2 L425.9,356.5 L426.7,359.2 L427.5,359.2 L428.4,360.1 L429.2,359.8 L430.1,359.5 L430.9,359.2 L431.8,359.5 L432.6,360.1 L433.4,360.4 L434.3,360.1 L435.1,360.7 L436.0,360.1 L436.8,360.4 L437.6,360.4 L438.5,359.8 L439.3,359.5 L440.2,360.1 L441.0,359.8 L441.9,359.5 L442.7,359.5 L443.5,359.5 L444.4,358.9 L445.2,359.5 L446.1,358.9 L446.9,359.2 L447.7,360.1 L448.6,359.8 L449.4,359.8 L450.3,352.9 L451.1,357.4 L451.9,360.1 L452.8,360.7 L453.6,358.3 L454.5,359.2 L455.3,358.0 L456.2,358.6 L457.0,358.3 L457.8,358.0 L458.7,358.3 L459.5,358.3 L460.4,357.7 L461.2,357.4 L462.0,304.3 L462.9,273.8 L463.7,269.9 L464.6,269.9 L465.4,297.4 L466.3,303.1 L467.1,316.3 L467.9,319.9 L468.8,336.1 L469.6,348.4 L470.5,360.1 L471.3,337.0 L472.1,336.7 L473.0,343.6 L473.8,362.2 L474.7,357.4 L475.5,358.3 L476.4,358.9 L477.2,358.3 L478.0,358.3 L478.9,358.3 L479.7,358.3 L480.6,358.6 L481.4,358.0 L482.2,358.3 L483.1,358.6 L483.9,358.9 L484.8,358.6 L485.6,358.6 L486.5,359.2 L487.3,362.5 L488.1,361.9 L489.0,362.2 L489.8,362.2 L490.7,361.9 L491.5,361.9 L492.3,361.9 L493.2,362.5 L494.0,362.2 L494.9,359.2 L495.7,362.8 L496.5,359.8 L497.4,357.4 L498.2,359.8 L499.1,357.4 L499.9,372.1 L500.8,359.2 L501.6,359.8 L502.4,358.9 L503.3,358.3 L504.1,358.6 L505.0,358.0 L505.8,358.3 L506.6,358.0 L507.5,362.2 L508.3,362.2 L509.2,362.2 L510.0,362.5 L510.9,362.2 L511.7,362.8 L512.5,362.5 L513.4,362.5 L514.2,363.1 L515.1,364.3 L515.9,370.6 L516.7,375.7 L517.6,376.3 L518.4,377.2 L519.3,376.9 L520.1,376.6 L521.0,376.6 L521.8,376.6 L522.6,376.9 L523.5,376.6 L524.3,364.0 L525.2,281.0 L526.0,277.1 L526.8,265.1 L527.7,279.8 L528.5,376.0 L529.4,378.0 L530.2,378.0 L531.1,378.0 L531.9,354.1 L532.7,354.1 L533.6,354.1 L534.4,354.4 L535.3,351.1 L536.1,363.1 L536.9,363.1 L537.8,348.4 L538.6,350.8 L539.5,323.2 L540.3,324.1 L541.2,328.3 L542.0,282.8 L542.8,264.8 L543.7,291.5 L544.5,241.1 L545.4,242.3 L546.2,264.2 L547.0,270.2 L547.9,266.3 L548.7,286.4 L549.6,346.9 L550.4,318.1 L551.2,336.4 L552.1,336.1 L552.9,349.0 L553.8,378.3 L554.6,376.6 L555.5,375.1 L556.3,375.4 L557.1,375.1 L558.0,374.8 L558.8,375.1 L559.7,375.1 L560.5,376.9 L561.3,374.8 L562.2,343.6 L563.0,314.5 L563.9,284.3 L564.7,237.5 L565.6,237.5 L566.4,237.5 L567.2,237.2 L568.1,238.1 L568.9,237.8 L569.8,240.8 L570.6,255.5 L571.4,279.2 L572.3,291.2 L573.1,321.4 L574.0,321.1 L574.8,337.9 L575.7,369.1 L576.5,369.1 L577.3,372.7 L578.2,375.1 L579.0,375.4 L579.9,375.4 L580.7,375.1 L581.5,350.2 L582.4,323.2 L583.2,290.6 L584.1,250.1 L584.9,237.5 L585.8,242.3 L586.6,244.7 L587.4,241.7 L588.3,241.1 L589.1,242.0 L590.0,242.6 L590.8,295.3 L591.6,301.3 L592.5,301.0 L593.3,274.4 L594.2,314.5 L595.0,330.1 L595.8,330.4 L596.7,331.3 L597.5,330.1 L598.4,330.1 L599.2,313.6 L600.1,314.2 L600.9,284.0 L601.7,242.6 L602.6,239.0 L603.4,240.8 L604.3,242.9 L605.1,239.9 L605.9,241.1 L606.8,244.4 L607.6,243.8 L608.5,246.2 L609.3,294.7 L610.2,378.3 L611.0,377.8 L611.8,377.8 L612.7,378.3 L613.5,378.0 L614.4,378.0 L615.2,376.0 L616.0,374.2 L616.9,374.5 L617.7,374.2 L618.6,373.9 L619.4,374.5 L620.3,374.5 L621.1,374.2 L621.9,374.2 L622.8,374.8 L623.6,374.5 L624.5,344.2 L625.3,332.8 L626.1,272.9 L627.0,291.2 L627.8,296.2 L628.7,297.4 L629.5,343.9 L630.4,378.0 L631.2,377.5 L632.0,377.5 L632.9,377.5 L633.7,377.5 L634.6,377.5 L635.4,375.7 L636.2,374.2 L637.1,374.8 L637.9,374.8 L638.8,374.5 L639.6,374.5 L640.4,374.8 L641.3,374.8 L642.1,374.8 L643.0,374.5 L643.8,350.5 L644.7,324.1 L645.5,308.2 L646.3,294.7 L647.2,296.5 L648.0,302.8 L648.9,290.6 L649.7,289.4 L650.5,321.4 L651.4,330.4 L652.2,330.4 L653.1,330.1 L653.9,329.5 L654.8,299.8 L655.6,340.9 L656.4,338.5 L657.3,332.5 L658.1,332.5 L659.0,332.5 L659.8,332.8 L660.6,320.5 L661.5,320.2 L662.3,320.5 L663.2,320.8 L664.0,304.3 L664.9,306.4 L665.7,245.0 L666.5,239.0 L667.4,238.7 L668.2,239.0 L669.1,232.1 L669.9,286.7 L670.7,290.0 L671.6,289.4 L672.4,290.0 L673.3,289.7 L674.1,289.4 L675.0,289.7 L675.8,279.8 L676.6,287.0 L677.5,286.4 L678.3,299.8 L679.2,308.2 L680.0,287.0" stroke="#2ca02c" stroke-width="2" fill="none" opacity="0.8"/>
<!-- Solar Generation -->
<path d="M80.0,417.9 L80.8,420.0 L81.7,420.0 L82.5,420.0 L83.4,420.0 L84.2,420.0 L85.0,420.0 L85.9,420.0 L86.7,420.0 L87.6,420.0 L88.4,420.0 L89.3,419.4 L90.1,416.4 L90.9,398.1 L91.8,398.1 L92.6,400.2 L93.5,386.4 L94.3,390.9 L95.1,386.1 L96.0,393.9 L96.8,389.4 L97.7,394.5 L98.5,388.8 L99.4,391.5 L100.2,412.5 L101.0,420.0 L101.9,420.0 L102.7,420.0 L103.6,420.0 L104.4,420.0 L105.2,420.0 L106.1,420.0 L106.9,420.0 L107.8,420.0 L108.6,420.0 L109.5,407.4 L110.3,385.5 L111.1,378.0 L112.0,376.9 L112.8,386.1 L113.7,381.0 L114.5,383.4 L115.3,380.7 L116.2,385.2 L117.0,393.0 L117.9,404.4 L118.7,403.5 L119.6,398.1 L120.4,417.0 L121.2,420.0 L122.1,420.0 L122.9,420.0 L123.8,420.0 L124.6,420.0 L125.4,420.0 L126.3,420.0 L127.1,420.0 L128.0,420.0 L128.8,420.0 L129.6,410.1 L130.5,385.8 L131.3,378.9 L132.2,376.9 L133.0,376.3 L133.9,399.0 L134.7,400.5 L135.5,400.8 L136.4,410.1 L137.2,410.7 L138.1,400.2 L138.9,394.8 L139.7,392.4 L140.6,408.0 L141.4,419.7 L142.3,420.0 L143.1,420.0 L144.0,420.0 L144.8,420.0 L145.6,420.0 L146.5,420.0 L147.3,420.0 L148.2,420.0 L149.0,420.0 L149.8,408.6 L150.7,388.8 L151.5,394.5 L152.4,376.6 L153.2,399.3 L154.1,376.9 L154.9,400.5 L155.7,399.6 L156.6,399.9 L157.4,389.7 L158.3,387.3 L159.1,388.8 L159.9,393.0 L160.8,408.9 L161.6,419.4 L162.5,420.0 L163.3,420.0 L164.2,420.0 L165.0,420.0 L165.8,420.0 L166.7,420.0 L167.5,420.0 L168.4,420.0 L169.2,420.0 L170.0,407.4 L170.9,385.5 L171.7,399.9 L172.6,376.6 L173.4,376.3 L174.2,377.2 L175.1,394.5 L175.9,379.8 L176.8,395.1 L177.6,386.7 L178.5,399.9 L179.3,405.6 L180.1,414.3 L181.0,418.2 L181.8,419.7 L182.7,420.0 L183.5,420.0 L184.3,420.0 L185.2,420.0 L186.0,420.0 L186.9,420.0 L187.7,420.0 L188.6,420.0 L189.4,420.0 L190.2,411.6 L191.1,409.8 L191.9,392.4 L192.8,393.6 L193.6,399.0 L194.4,402.6 L195.3,398.7 L196.1,396.3 L197.0,400.5 L197.8,396.6 L198.7,399.3 L199.5,410.4 L200.3,389.4 L201.2,410.1 L202.0,419.7 L202.9,420.0 L203.7,420.0 L204.5,420.0 L205.4,420.0 L206.2,420.0 L207.1,420.0 L207.9,420.0 L208.8,420.0 L209.6,420.0 L210.4,410.4 L211.3,384.3 L212.1,382.2 L213.0,378.9 L213.8,378.6 L214.6,379.5 L215.5,380.4 L216.3,378.0 L217.2,378.6 L218.0,386.1 L218.8,386.7 L219.7,403.2 L220.5,403.2 L221.4,414.3 L222.2,419.7 L223.1,420.0 L223.9,420.0 L224.7,420.0 L225.6,420.0 L226.4,420.0 L227.3,420.0 L228.1,420.0 L228.9,420.0 L229.8,420.0 L230.6,411.6 L231.5,387.6 L232.3,383.1 L233.2,378.6 L234.0,377.5 L234.8,379.8 L235.7,379.8 L236.5,385.8 L237.4,385.8 L238.2,395.4 L239.0,381.3 L239.9,390.9 L240.7,409.5 L241.6,411.3 L242.4,419.4 L243.3,420.0 L244.1,420.0 L244.9,420.0 L245.8,420.0 L246.6,420.0 L247.5,420.0 L248.3,420.0 L249.1,420.0 L250.0,419.4 L250.8,410.7 L251.7,384.3 L252.5,380.4 L253.4,377.2 L254.2,376.3 L255.0,379.2 L255.9,380.7 L256.7,403.2 L257.6,382.8 L258.4,397.8 L259.2,402.3 L260.1,403.2 L260.9,403.2 L261.8,413.4 L262.6,419.7 L263.5,420.0 L264.3,420.0 L265.1,420.0 L266.0,420.0 L266.8,420.0 L267.7,420.0 L268.5,420.0 L269.3,420.0 L270.2,420.0 L271.0,417.9 L271.9,417.9 L272.7,416.7 L273.5,415.2 L274.4,415.2 L275.2,412.5 L276.1,402.3 L276.9,405.0 L277.8,411.0 L278.6,418.2 L279.4,416.7 L280.3,409.5 L281.1,407.4 L282.0,416.7 L282.8,419.7 L283.6,420.0 L284.5,420.0 L285.3,420.0 L286.2,420.0 L287.0,420.0 L287.9,420.0 L288.7,420.0 L289.5,420.0 L290.4,420.0 L291.2,419.7 L292.1,418.5 L292.9,417.0 L293.7,415.5 L294.6,414.6 L295.4,410.4 L296.3,411.0 L297.1,413.1 L298.0,409.8 L298.8,409.2 L299.6,413.7 L300.5,416.1 L301.3,414.0 L302.2,415.8 L303.0,419.7 L303.8,420.0 L304.7,420.0 L305.5,420.0 L306.4,420.0 L307.2,420.0 L308.1,420.0 L308.9,420.0 L309.7,420.0 L310.6,420.0 L311.4,406.2 L312.3,385.8 L313.1,381.6 L313.9,378.0 L314.8,377.5 L315.6,378.9 L316.5,382.8 L317.3,382.8 L318.1,377.5 L319.0,381.9 L319.8,379.5 L320.7,384.6 L321.5,400.8 L322.4,407.4 L323.2,419.4 L324.0,420.0 L324.9,420.0 L325.7,420.0 L326.6,420.0 L327.4,420.0 L328.2,420.0 L329.1,420.0 L329.9,420.0 L330.8,419.7 L331.6,405.6 L332.5,384.9 L333.3,385.2 L334.1,394.2 L335.0,392.7 L335.8,384.0 L336.7,389.7 L337.5,384.9 L338.3,386.4 L339.2,389.4 L340.0,388.2 L340.9,406.5 L341.7,398.7 L342.6,414.9 L343.4,418.8 L344.2,420.0 L345.1,420.0 L345.9,420.0 L346.8,420.0 L347.6,420.0 L348.4,420.0 L349.3,420.0 L350.1,420.0 L351.0,420.0 L351.8,412.5 L352.7,393.6 L353.5,378.3 L354.3,377.5 L355.2,377.8 L356.0,376.3 L356.9,376.3 L357.7,376.3 L358.5,376.6 L359.4,390.6 L360.2,388.2 L361.1,388.8 L361.9,402.9 L362.7,416.1 L363.6,419.7 L364.4,420.0 L365.3,420.0 L366.1,420.0 L367.0,420.0 L367.8,420.0 L368.6,420.0 L369.5,420.0 L370.3,420.0 L371.2,420.0 L372.0,417.9 L372.8,400.5 L373.7,384.9 L374.5,384.6 L375.4,395.1 L376.2,387.3 L377.1,384.3 L377.9,379.2 L378.7,382.8 L379.6,383.1 L380.4,387.9 L381.3,386.1 L382.1,388.8 L382.9,405.3 L383.8,418.8 L384.6,420.0 L385.5,420.0 L386.3,420.0 L387.2,420.0 L388.0,420.0 L388.8,420.0 L389.7,420.0 L390.5,420.0 L391.4,419.7 L392.2,408.0 L393.0,382.8 L393.9,378.0 L394.7,376.9 L395.6,377.2 L396.4,378.9 L397.3,378.6 L398.1,376.0 L398.9,376.3 L399.8,384.3 L400.6,381.0 L401.5,382.2 L402.3,390.9 L403.1,405.3 L404.0,419.1 L404.8,420.0 L405.7,420.0 L406.5,420.0 L407.3,420.0 L408.2,420.0 L409.0,420.0 L409.9,420.0 L410.7,420.0 L411.6,419.7 L412.4,407.7 L413.2,412.8 L414.1,408.3 L414.9,404.1 L415.8,400.5 L416.6,392.7 L417.4,382.2 L418.3,385.5 L419.1,405.6 L420.0,391.5 L420.8,404.1 L421.7,414.3 L422.5,405.0 L423.3,418.5 L424.2,419.1 L425.0,420.0 L425.9,420.0 L426.7,420.0 L427.5,420.0 L428.4,420.0 L429.2,420.0 L430.1,420.0 L430.9,420.0 L431.8,420.0 L432.6,418.8 L433.4,415.8 L434.3,413.7 L435.1,413.7 L436.0,406.5 L436.8,405.6 L437.6,400.8 L438.5,403.5 L439.3,406.2 L440.2,415.2 L441.0,414.9 L441.9,413.1 L442.7,391.5 L443.5,397.2 L444.4,418.2 L445.2,420.0 L446.1,420.0 L446.9,420.0 L447.7,420.0 L448.6,420.0 L449.4,420.0 L450.3,420.0 L451.1,420.0 L451.9,419.7 L452.8,416.1 L453.6,392.1 L454.5,388.2 L455.3,378.3 L456.2,376.3 L457.0,376.0 L457.8,376.0 L458.7,376.0 L459.5,387.0 L460.4,387.9 L461.2,389.7 L462.0,396.3 L462.9,408.6 L463.7,411.9 L464.6,419.4 L465.4,420.0 L466.3,420.0 L467.1,420.0 L467.9,420.0 L468.8,420.0 L469.6,420.0 L470.5,420.0 L471.3,420.0 L472.1,420.0 L473.0,417.0 L473.8,410.7 L474.7,410.1 L475.5,407.7 L476.4,402.9 L477.2,407.7 L478.0,409.8 L478.9,400.8 L479.7,403.5 L480.6,414.9 L481.4,410.4 L482.2,415.2 L483.1,397.2 L483.9,410.7 L484.8,418.2 L485.6,420.0 L486.5,420.0 L487.3,420.0 L488.1,420.0 L489.0,420.0 L489.8,420.0 L490.7,420.0 L491.5,420.0 L492.3,419.4 L493.2,404.7 L494.0,398.1 L494.9,401.1 L495.7,399.9 L496.5,399.9 L497.4,400.2 L498.2,405.3 L499.1,404.7 L499.9,401.4 L500.8,392.4 L501.6,384.3 L502.4,394.2 L503.3,402.3 L504.1,413.4 L505.0,418.2 L505.8,420.0 L506.6,420.0 L507.5,420.0 L508.3,420.0 L509.2,420.0 L510.0,420.0 L510.9,420.0 L511.7,420.0 L512.5,420.0 L513.4,411.6 L514.2,415.2 L515.1,401.4 L515.9,381.3 L516.7,376.9 L517.6,376.3 L518.4,377.5 L519.3,381.6 L520.1,378.9 L521.0,378.0 L521.8,376.9 L522.6,377.2 L523.5,378.6 L524.3,398.4 L525.2,418.2 L526.0,420.0 L526.8,420.0 L527.7,420.0 L528.5,420.0 L529.4,420.0 L530.2,420.0 L531.1,420.0 L531.9,420.0 L532.7,419.7 L533.6,404.1 L534.4,381.9 L535.3,377.5 L536.1,376.9 L536.9,376.3 L537.8,376.9 L538.6,376.9 L539.5,381.3 L540.3,391.2 L541.2,393.0 L542.0,397.5 L542.8,393.0 L543.7,395.1 L544.5,405.0 L545.4,419.4 L546.2,420.0 L547.0,420.0 L547.9,420.0 L548.7,420.0 L549.6,420.0 L550.4,420.0 L551.2,420.0 L552.1,420.0 L552.9,420.0 L553.8,416.7 L554.6,416.1 L555.5,409.5 L556.3,396.0 L557.1,389.1 L558.0,390.9 L558.8,385.5 L559.7,379.2 L560.5,379.5 L561.3,381.3 L562.2,398.1 L563.0,395.7 L563.9,398.1 L564.7,406.2 L565.6,419.1 L566.4,420.0 L567.2,420.0 L568.1,420.0 L568.9,420.0 L569.8,420.0 L570.6,420.0 L571.4,420.0 L572.3,420.0 L573.1,419.7 L574.0,404.1 L574.8,381.6 L575.7,376.9 L576.5,376.6 L577.3,379.5 L578.2,376.3 L579.0,398.7 L579.9,376.0 L580.7,377.8 L581.5,378.9 L582.4,376.6 L583.2,380.1 L584.1,395.7 L584.9,398.7 L585.8,417.9 L586.6,420.0 L587.4,420.0 L588.3,420.0 L589.1,420.0 L590.0,420.0 L590.8,420.0 L591.6,420.0 L592.5,420.0 L593.3,419.7 L594.2,403.8 L595.0,382.5 L595.8,378.6 L596.7,376.9 L597.5,376.9 L598.4,386.4 L599.2,381.9 L600.1,382.5 L600.9,376.9 L601.7,389.7 L602.6,400.8 L603.4,381.6 L604.3,398.1 L605.1,403.2 L605.9,419.1 L606.8,420.0 L607.6,420.0 L608.5,420.0 L609.3,420.0 L610.2,420.0 L611.0,420.0 L611.8,420.0 L612.7,420.0 L613.5,420.0 L614.4,415.8 L615.2,385.5 L616.0,380.7 L616.9,378.0 L617.7,390.3 L618.6,380.4 L619.4,376.3 L620.3,376.6 L621.1,382.5 L621.9,377.5 L622.8,378.9 L623.6,390.0 L624.5,389.1 L625.3,403.8 L626.1,417.9 L627.0,420.0 L627.8,420.0 L628.7,420.0 L629.5,420.0 L630.4,420.0 L631.2,420.0 L632.0,420.0 L632.9,420.0 L633.7,420.0 L634.6,408.0 L635.4,386.1 L636.2,381.6 L637.1,378.6 L637.9,378.6 L638.8,378.3 L639.6,384.3 L640.4,396.9 L641.3,384.0 L642.1,387.6 L643.0,390.3 L643.8,391.5 L644.7,397.5 L645.5,404.4 L646.3,418.2 L647.2,420.0 L648.0,420.0 L648.9,420.0 L649.7,420.0 L650.5,420.0 L651.4,420.0 L652.2,420.0 L653.1,420.0 L653.9,419.4 L654.8,404.1 L655.6,387.6 L656.4,389.4 L657.3,378.0 L658.1,377.8 L659.0,378.6 L659.8,378.6 L660.6,388.2 L661.5,377.5 L662.3,381.6 L663.2,383.4 L664.0,379.2 L664.9,393.6 L665.7,405.6 L666.5,418.5 L667.4,420.0 L668.2,420.0 L669.1,420.0 L669.9,420.0 L670.7,420.0 L671.6,420.0 L672.4,420.0 L673.3,420.0 L674.1,419.4 L675.0,408.0 L675.8,399.9 L676.6,388.8 L677.5,392.7 L678.3,390.0 L679.2,384.3 L680.0,376.9" stroke="#d62728" stroke-width="2" fill="none" opacity="0.8"/>
<!-- Forecast -->
<path d="M80.0,190.2 L80.8,189.3 L81.7,192.9 L82.5,210.2 L83.4,231.8 L84.2,248.0 L85.0,257.0 L85.9,261.8 L86.7,263.9 L87.6,261.2 L88.4,248.9 L89.3,223.4 L90.1,193.5 L90.9,174.0 L91.8,168.0 L92.6,166.2 L93.5,169.2 L94.3,172.2 L95.1,175.2 L96.0,177.9 L96.8,179.4 L97.7,180.3 L98.5,180.0 L99.4,184.5 L100.2,190.5 L101.0,190.5 L101.9,193.5 L102.7,210.5 L103.6,218.3 L104.4,222.2 L105.2,226.1 L106.1,230.0 L106.9,233.9 L107.8,237.8 L108.6,241.7 L109.5,223.7 L110.3,199.5 L111.1,184.2 L112.0,178.2 L112.8,174.6 L113.7,175.5 L114.5,176.4 L115.3,177.9 L116.2,179.4 L117.0,180.3 L117.9,179.7 L118.7,178.2 L119.6,182.7 L120.4,188.7 L121.2,192.3 L122.1,194.7 L122.9,211.4 L123.8,241.4 L124.6,253.4 L125.4,261.5 L126.3,267.2 L127.1,269.9 L128.0,269.0 L128.8,267.2 L129.6,261.2 L130.5,247.1 L131.3,232.1 L132.2,221.9 L133.0,213.5 L133.9,212.3 L134.7,210.2 L135.5,212.0 L136.4,215.0 L137.2,215.6 L138.1,217.1 L138.9,218.6 L139.7,217.4 L140.6,218.0 L141.4,217.7 L142.3,215.0 L143.1,225.8 L144.0,241.1 L144.8,256.4 L145.6,267.8 L146.5,274.4 L147.3,276.8 L148.2,275.6 L149.0,272.6 L149.8,270.5 L150.7,259.4 L151.5,248.0 L152.4,230.9 L153.2,218.3 L154.1,218.0 L154.9,213.8 L155.7,212.0 L156.6,209.7 L157.4,205.2 L158.3,200.4 L159.1,194.4 L159.9,189.9 L160.8,195.6 L161.6,202.5 L162.5,201.9 L163.3,213.8 L164.2,237.5 L165.0,257.9 L165.8,269.6 L166.7,276.5 L167.5,279.2 L168.4,278.0 L169.2,274.7 L170.0,275.9 L170.9,263.0 L171.7,251.0 L172.6,232.4 L173.4,218.9 L174.2,219.8 L175.1,213.8 L175.9,210.2 L176.8,206.7 L177.6,203.1 L178.5,200.7 L179.3,195.3 L180.1,189.9 L181.0,194.4 L181.8,201.0 L182.7,199.5 L183.5,212.0 L184.3,234.2 L185.2,247.7 L186.0,257.0 L186.9,263.9 L187.7,266.9 L188.6,266.3 L189.4,257.3 L190.2,235.4 L191.1,206.7 L191.9,185.4 L192.8,176.1 L193.6,173.4 L194.4,172.5 L195.3,173.1 L196.1,174.6 L197.0,175.5 L197.8,176.4 L198.7,176.7 L199.5,176.1 L200.3,181.8 L201.2,187.8 L202.0,191.1 L202.9,192.3 L203.7,209.1 L204.5,234.2 L205.4,251.9 L206.2,259.7 L207.1,265.4 L207.9,267.2 L208.8,265.7 L209.6,255.8 L210.4,232.4 L211.3,205.2 L212.1,185.4 L213.0,177.9 L213.8,173.7 L214.6,174.3 L215.5,175.8 L216.3,177.9 L217.2,179.7 L218.0,180.9 L218.8,181.5 L219.7,180.3 L220.5,185.1 L221.4,191.4 L222.2,194.1 L223.1,195.6 L223.9,211.7 L224.7,216.5 L225.6,216.5 L226.4,216.5 L227.3,216.5 L228.1,216.5 L228.9,216.5 L229.8,216.5 L230.6,216.5 L231.5,216.5 L232.3,216.5 L233.2,216.5 L234.0,216.5 L234.8,216.5 L235.7,216.5 L236.5,216.5 L237.4,216.5 L238.2,216.5 L239.0,216.5 L239.9,216.5 L240.7,216.5 L241.6,216.5 L242.4,216.5 L243.3,216.5 L244.1,216.5 L244.9,216.5 L245.8,242.0 L246.6,249.2 L247.5,256.1 L248.3,260.0 L249.1,260.6 L250.0,251.0 L250.8,229.7 L251.7,197.7 L252.5,173.4 L253.4,162.3 L254.2,158.4 L255.0,155.7 L255.9,154.8 L256.7,154.5 L257.6,147.9 L258.4,149.4 L259.2,151.5 L260.1,152.7 L260.9,161.1 L261.8,172.2 L262.6,179.4 L263.5,182.4 L264.3,200.1 L265.1,236.9 L266.0,247.7 L266.8,254.3 L267.7,262.4 L268.5,265.7 L269.3,268.4 L270.2,261.2 L271.0,256.1 L271.9,244.7 L272.7,232.1 L273.5,220.1 L274.4,209.7 L275.2,207.6 L276.1,206.1 L276.9,209.4 L277.8,213.5 L278.6,215.0 L279.4,212.0 L280.3,209.7 L281.1,209.9 L282.0,214.1 L282.8,214.4 L283.6,212.6 L284.5,223.4 L285.3,242.6 L286.2,255.5 L287.0,265.7 L287.9,272.9 L288.7,275.3 L289.5,274.4 L290.4,272.0 L291.2,263.6 L292.1,250.1 L292.9,231.5 L293.7,216.5 L294.6,209.9 L295.4,204.6 L296.3,204.6 L297.1,207.0 L298.0,209.7 L298.8,210.5 L299.6,208.8 L300.5,203.4 L301.3,203.4 L302.2,208.5 L303.0,209.1 L303.8,207.3 L304.7,218.6 L305.5,214.7 L306.4,224.9 L307.2,233.0 L308.1,238.4 L308.9,240.5 L309.7,239.0 L310.6,230.6 L311.4,207.3 L312.3,179.1 L313.1,159.6 L313.9,150.9 L314.8,146.1 L315.6,146.4 L316.5,147.6 L317.3,149.4 L318.1,150.9 L319.0,151.8 L319.8,151.2 L320.7,152.4 L321.5,158.4 L322.4,165.3 L323.2,167.1 L324.0,170.4 L324.9,185.7 L325.7,209.4 L326.6,225.2 L327.4,234.5 L328.2,239.9 L329.1,242.3 L329.9,240.2 L330.8,231.2 L331.6,209.1 L332.5,182.4 L333.3,162.9 L334.1,154.8 L335.0,149.7 L335.8,149.7 L336.7,150.6 L337.5,152.1 L338.3,153.3 L339.2,153.6 L340.0,152.7 L340.9,153.3 L341.7,158.7 L342.6,165.0 L343.4,168.0 L344.2,170.7 L345.1,186.3 L345.9,206.4 L346.8,226.1 L347.6,235.1 L348.4,241.1 L349.3,243.2 L350.1,241.4 L351.0,231.8 L351.8,210.8 L352.7,185.4 L353.5,166.8 L354.3,158.7 L355.2,152.4 L356.0,151.5 L356.9,151.2 L357.7,151.8 L358.5,151.8 L359.4,148.2 L360.2,145.5 L361.1,146.7 L361.9,154.2 L362.7,159.3 L363.6,163.2 L364.4,165.6 L365.3,182.1 L366.1,212.0 L367.0,228.2 L367.8,238.1 L368.6,244.7 L369.5,248.0 L370.3,247.4 L371.2,239.6 L372.0,219.5 L372.8,194.4 L373.7,173.1 L374.5,164.1 L375.4,158.1 L376.2,156.9 L377.1,156.9 L377.9,157.5 L378.7,157.2 L379.6,158.4 L380.4,158.1 L381.3,158.1 L382.1,162.9 L382.9,168.0 L383.8,171.6 L384.6,173.7 L385.5,189.9 L386.3,207.9 L387.2,230.6 L388.0,240.8 L388.8,247.1 L389.7,249.2 L390.5,247.7 L391.4,236.9 L392.2,216.8 L393.0,191.7 L393.9,171.0 L394.7,160.8 L395.6,155.1 L396.4,152.1 L397.3,150.6 L398.1,148.2 L398.9,144.9 L399.8,139.5 L400.6,135.3 L401.5,131.7 L402.3,141.6 L403.1,153.0 L404.0,160.2 L404.8,163.8 L405.7,181.5 L406.5,219.8 L407.3,228.5 L408.2,235.4 L409.0,242.9 L409.9,246.2 L410.7,248.6 L411.6,245.9 L412.4,239.6 L413.2,226.4 L414.1,214.7 L414.9,205.8 L415.8,195.3 L416.6,191.7 L417.4,189.3 L418.3,191.1 L419.1,191.1 L420.0,194.4 L420.8,196.2 L421.7,194.1 L422.5,195.9 L423.3,198.3 L424.2,199.2 L425.0,197.1 L425.9,207.0 L426.7,222.5 L427.5,235.1 L428.4,245.9 L429.2,252.2 L430.1,254.0 L430.9,253.1 L431.8,251.3 L432.6,244.4 L433.4,230.9 L434.3,213.8 L435.1,198.9 L436.0,191.4 L436.8,185.7 L437.6,185.1 L438.5,188.1 L439.3,190.5 L440.2,190.8 L441.0,190.5 L441.9,187.8 L442.7,185.7 L443.5,190.2 L444.4,191.1 L445.2,189.3 L446.1,200.1 L446.9,212.9 L447.7,228.2 L448.6,237.5 L449.4,242.0 L450.3,244.4 L451.1,241.4 L451.9,231.8 L452.8,211.1 L453.6,185.7 L454.5,167.4 L455.3,159.9 L456.2,155.1 L457.0,154.2 L457.8,154.5 L458.7,154.8 L459.5,154.8 L460.4,154.2 L461.2,152.4 L462.0,153.0 L462.9,159.3 L463.7,165.9 L464.6,169.2 L465.4,171.3 L466.3,187.2 L467.1,213.5 L467.9,230.0 L468.8,239.9 L469.6,246.5 L470.5,249.2 L471.3,248.3 L472.1,239.0 L473.0,217.4 L473.8,190.8 L474.7,170.7 L475.5,161.7 L476.4,156.6 L477.2,155.1 L478.0,155.1 L478.9,156.3 L479.7,156.9 L480.6,157.5 L481.4,157.2 L482.2,158.7 L483.1,165.0 L483.9,171.3 L484.8,174.0 L485.6,176.1 L486.5,191.7 L487.3,213.5 L488.1,232.1 L489.0,240.5 L489.8,245.3 L490.7,247.4 L491.5,245.9 L492.3,236.0 L493.2,213.5 L494.0,185.4 L494.9,164.4 L495.7,156.0 L496.5,151.5 L497.4,152.1 L498.2,153.3 L499.1,155.4 L499.9,157.5 L500.8,158.1 L501.6,157.8 L502.4,159.3 L503.3,164.7 L504.1,170.7 L505.0,171.9 L505.8,175.8 L506.6,192.0 L507.5,212.9 L508.3,230.6 L509.2,241.4 L510.0,247.1 L510.9,249.8 L511.7,247.7 L512.5,239.0 L513.4,220.1 L514.2,196.2 L515.1,176.7 L515.9,162.9 L516.7,156.3 L517.6,150.3 L518.4,144.9 L519.3,143.1 L520.1,146.7 L521.0,148.5 L521.8,149.4 L522.6,151.8 L523.5,157.2 L524.3,164.4 L525.2,172.8 L526.0,178.8 L526.8,191.7 L527.7,210.2 L528.5,229.7 L529.4,240.5 L530.2,246.2 L531.1,248.9 L531.9,247.4 L532.7,239.0 L533.6,219.5 L534.4,195.9 L535.3,174.0 L536.1,162.0 L536.9,155.4 L537.8,150.0 L538.6,147.6 L539.5,145.2 L540.3,141.3 L541.2,134.1 L542.0,132.9 L542.8,137.1 L543.7,147.0 L544.5,158.1 L545.4,165.6 L546.2,171.3 L547.0,186.6 L547.9,213.8 L548.7,227.6 L549.6,236.6 L550.4,243.5 L551.2,247.7 L552.1,248.6 L552.9,247.1 L553.8,240.5 L554.6,229.7 L555.5,214.7 L556.3,198.0 L557.1,188.7 L558.0,190.2 L558.8,190.5 L559.7,192.9 L560.5,193.2 L561.3,197.7 L562.2,201.0 L563.0,200.1 L563.9,202.2 L564.7,205.8 L565.6,208.2 L566.4,208.8 L567.2,217.7 L568.1,227.3 L568.9,232.1 L569.8,244.7 L570.6,253.4 L571.4,254.6 L572.3,254.6 L573.1,255.5 L574.0,249.5 L574.8,238.1 L575.7,223.1 L576.5,201.0 L577.3,192.9 L578.2,187.5 L579.0,185.4 L579.9,187.8 L580.7,190.5 L581.5,188.4 L582.4,183.0 L583.2,177.3 L584.1,178.5 L584.9,179.7 L585.8,186.6 L586.6,189.0 L587.4,204.3 L588.3,210.8 L589.1,228.5 L590.0,240.8 L590.8,246.8 L591.6,249.5 L592.5,247.7 L593.3,239.3 L594.2,220.4 L595.0,196.8 L595.8,174.9 L596.7,162.9 L597.5,156.3 L598.4,150.9 L599.2,148.5 L600.1,147.0 L600.9,143.1 L601.7,136.8 L602.6,129.6 L603.4,132.6 L604.3,142.5 L605.1,153.0 L605.9,160.8 L606.8,166.5 L607.6,181.8 L608.5,147.9 L609.3,209.4 L610.2,231.5 L611.0,236.3 L611.8,239.9 L612.7,239.3 L613.5,233.0 L614.4,213.8 L615.2,189.6 L616.0,165.0 L616.9,149.1 L617.7,140.1 L618.6,134.4 L619.4,132.0 L620.3,127.2 L621.1,126.0 L621.9,126.0 L622.8,126.0 L623.6,126.0 L624.5,126.3 L625.3,126.3 L626.1,126.3 L627.0,126.3 L627.8,126.3 L628.7,195.0 L629.5,219.5 L630.4,229.1 L631.2,237.8 L632.0,243.2 L632.9,243.5 L633.7,237.5 L634.6,218.3 L635.4,195.6 L636.2,173.1 L637.1,161.1 L637.9,155.4 L638.8,151.8 L639.6,149.1 L640.4,149.1 L641.3,147.0 L642.1,142.5 L643.0,141.9 L643.8,146.1 L644.7,155.1 L645.5,162.9 L646.3,169.2 L647.2,174.6 L648.0,188.4 L648.9,205.8 L649.7,227.9 L650.5,239.9 L651.4,246.2 L652.2,248.9 L653.1,247.7 L653.9,239.6 L654.8,220.1 L655.6,196.5 L656.4,174.6 L657.3,162.3 L658.1,155.7 L659.0,150.3 L659.8,147.6 L660.6,145.5 L661.5,140.4 L662.3,133.2 L663.2,124.3 L664.0,128.4 L664.9,138.3 L665.7,148.8 L666.5,156.3 L667.4,164.4 L668.2,180.0 L669.1,154.2 L669.9,211.1 L670.7,237.2 L671.6,244.4 L672.4,247.7 L673.3,246.5 L674.1,239.0 L675.0,220.1 L675.8,196.2 L676.6,173.1 L677.5,159.3 L678.3,151.5 L679.2,146.1 L680.0,144.9" stroke="#9467bd" stroke-width="2" fill="none" opacity="0.8"/>
<!-- Total Generation -->
<path d="M80.0,176.1 L80.8,182.7 L81.7,185.4 L82.5,185.1 L83.4,190.5 L84.2,181.5 L85.0,210.5 L85.9,195.9 L86.7,189.0 L87.6,193.8 L88.4,182.7 L89.3,182.4 L90.1,197.1 L90.9,175.5 L91.8,189.9 L92.6,221.9 L93.5,199.8 L94.3,204.0 L95.1,206.1 L96.0,201.6 L96.8,184.8 L97.7,202.5 L98.5,186.6 L99.4,177.9 L100.2,170.4 L101.0,180.0 L101.9,201.3 L102.7,197.7 L103.6,192.9 L104.4,204.9 L105.2,220.4 L106.1,214.7 L106.9,209.4 L107.8,208.2 L108.6,209.1 L109.5,200.1 L110.3,197.4 L111.1,233.6 L112.0,231.8 L112.8,238.4 L113.7,238.4 L114.5,240.5 L115.3,237.2 L116.2,240.5 L117.0,242.6 L117.9,253.7 L118.7,226.4 L119.6,209.7 L120.4,187.5 L121.2,190.2 L122.1,185.4 L122.9,189.3 L123.8,202.8 L124.6,203.4 L125.4,220.1 L126.3,203.7 L127.1,209.7 L128.0,212.6 L128.8,208.5 L129.6,201.9 L130.5,204.9 L131.3,235.7 L132.2,215.9 L133.0,195.9 L133.9,222.5 L134.7,205.2 L135.5,208.2 L136.4,223.4 L137.2,227.3 L138.1,217.1 L138.9,217.4 L139.7,224.3 L140.6,252.8 L141.4,263.9 L142.3,270.2 L143.1,274.1 L144.0,279.2 L144.8,283.4 L145.6,279.2 L146.5,270.2 L147.3,260.3 L148.2,260.9 L149.0,246.5 L149.8,224.9 L150.7,216.5 L151.5,212.0 L152.4,180.9 L153.2,208.2 L154.1,170.4 L154.9,186.0 L155.7,204.9 L156.6,204.9 L157.4,194.4 L158.3,192.6 L159.1,206.7 L159.9,222.5 L160.8,242.0 L161.6,209.7 L162.5,215.9 L163.3,230.9 L164.2,233.6 L165.0,238.7 L165.8,261.8 L166.7,260.3 L167.5,261.2 L168.4,263.0 L169.2,239.6 L170.0,229.1 L170.9,209.1 L171.7,224.6 L172.6,202.5 L173.4,201.3 L174.2,201.0 L175.1,217.7 L175.9,200.4 L176.8,186.3 L177.6,183.9 L178.5,184.8 L179.3,179.4 L180.1,208.8 L181.0,209.4 L181.8,188.1 L182.7,235.7 L183.5,237.2 L184.3,235.4 L185.2,243.8 L186.0,241.7 L186.9,241.1 L187.7,241.1 L188.6,237.5 L189.4,235.7 L190.2,229.1 L191.1,225.2 L191.9,206.7 L192.8,206.7 L193.6,201.9 L194.4,207.9 L195.3,186.9 L196.1,174.9 L197.0,143.1 L197.8,121.6 L198.7,142.5 L199.5,149.1 L200.3,120.7 L201.2,146.1 L202.0,145.5 L202.9,151.5 L203.7,163.8 L204.5,175.8 L205.4,187.5 L206.2,213.5 L207.1,210.8 L207.9,235.7 L208.8,204.0 L209.6,176.4 L210.4,177.0 L211.3,176.1 L212.1,192.0 L213.0,181.5 L213.8,189.0 L214.6,195.9 L215.5,197.7 L216.3,170.7 L217.2,172.5 L218.0,191.7 L218.8,182.1 L219.7,178.2 L220.5,171.3 L221.4,183.0 L222.2,167.7 L223.1,176.7 L223.9,162.0 L224.7,167.1 L225.6,175.2 L226.4,176.1 L227.3,177.9 L228.1,192.9 L228.9,215.6 L229.8,237.8 L230.6,187.8 L231.5,184.5 L232.3,190.8 L233.2,189.9 L234.0,191.7 L234.8,177.9 L235.7,171.6 L236.5,172.5 L237.4,150.3 L238.2,164.4 L239.0,148.5 L239.9,155.4 L240.7,174.3 L241.6,180.9 L242.4,152.7 L243.3,165.9 L244.1,210.8 L244.9,163.2 L245.8,189.6 L246.6,219.5 L247.5,194.7 L248.3,224.0 L249.1,227.0 L250.0,243.2 L250.8,235.7 L251.7,213.2 L252.5,222.8 L253.4,227.3 L254.2,226.1 L255.0,228.8 L255.9,228.5 L256.7,251.3 L257.6,223.7 L258.4,228.8 L259.2,215.9 L260.1,227.3 L260.9,191.4 L261.8,209.1 L262.6,189.0 L263.5,203.1 L264.3,211.1 L265.1,208.5 L266.0,192.9 L266.8,184.2 L267.7,200.7 L268.5,204.6 L269.3,219.8 L270.2,238.1 L271.0,232.1 L271.9,244.4 L272.7,257.0 L273.5,254.0 L274.4,249.8 L275.2,246.5 L276.1,228.8 L276.9,224.6 L277.8,227.9 L278.6,228.2 L279.4,224.6 L280.3,220.1 L281.1,192.9 L282.0,188.7 L282.8,180.6 L283.6,169.2 L284.5,200.4 L285.3,200.1 L286.2,200.4 L287.0,192.6 L287.9,196.8 L288.7,191.4 L289.5,192.9 L290.4,190.5 L291.2,186.0 L292.1,209.9 L292.9,208.2 L293.7,205.8 L294.6,206.1 L295.4,202.8 L296.3,178.8 L297.1,184.8 L298.0,183.6 L298.8,185.1 L299.6,192.0 L300.5,154.5 L301.3,155.4 L302.2,163.2 L303.0,175.2 L303.8,181.8 L304.7,170.1 L305.5,189.9 L306.4,194.1 L307.2,193.8 L308.1,194.1 L308.9,192.0 L309.7,203.4 L310.6,216.5 L311.4,200.4 L312.3,173.7 L313.1,158.7 L313.9,150.9 L314.8,128.7 L315.6,125.2 L316.5,127.5 L317.3,126.6 L318.1,113.8 L319.0,140.4 L319.8,123.4 L320.7,134.1 L321.5,142.5 L322.4,125.5 L323.2,133.5 L324.0,188.4 L324.9,190.2 L325.7,192.3 L326.6,190.8 L327.4,210.2 L328.2,218.9 L329.1,224.0 L329.9,212.9 L330.8,194.7 L331.6,190.5 L332.5,201.3 L333.3,203.1 L334.1,211.1 L335.0,191.4 L335.8,179.4 L336.7,180.9 L337.5,181.5 L338.3,176.7 L339.2,188.7 L340.0,189.9 L340.9,186.6 L341.7,141.0 L342.6,166.8 L343.4,186.3 L344.2,175.5 L345.1,163.8 L345.9,158.4 L346.8,181.5 L347.6,238.7 L348.4,242.3 L349.3,237.2 L350.1,215.6 L351.0,222.8 L351.8,214.7 L352.7,213.2 L353.5,214.7 L354.3,211.7 L355.2,217.7 L356.0,215.0 L356.9,208.2 L357.7,143.7 L358.5,143.7 L359.4,206.1 L360.2,202.8 L361.1,200.1 L361.9,204.3 L362.7,161.4 L363.6,135.9 L364.4,153.0 L365.3,223.7 L366.1,228.2 L367.0,248.3 L367.8,248.6 L368.6,259.1 L369.5,260.0 L370.3,259.1 L371.2,249.2 L372.0,237.8 L372.8,219.5 L373.7,206.1 L374.5,197.1 L375.4,190.8 L376.2,161.7 L377.1,153.0 L377.9,138.6 L378.7,146.4 L379.6,146.1 L380.4,158.1 L381.3,153.6 L382.1,142.8 L382.9,172.8 L383.8,182.1 L384.6,185.7 L385.5,202.2 L386.3,229.7 L387.2,239.0 L388.0,238.4 L388.8,231.2 L389.7,230.9 L390.5,230.6 L391.4,223.1 L392.2,224.0 L393.0,207.6 L393.9,211.4 L394.7,209.4 L395.6,191.4 L396.4,182.4 L397.3,194.4 L398.1,187.8 L398.9,184.8 L399.8,194.7 L400.6,200.1 L401.5,190.5 L402.3,201.3 L403.1,198.0 L404.0,199.8 L404.8,147.3 L405.7,161.1 L406.5,195.3 L407.3,192.9 L408.2,195.9 L409.0,195.6 L409.9,200.4 L410.7,197.7 L411.6,186.0 L412.4,180.0 L413.2,197.4 L414.1,209.1 L414.9,195.6 L415.8,195.0 L416.6,189.0 L417.4,195.0 L418.3,206.7 L419.1,224.3 L420.0,191.4 L420.8,195.3 L421.7,209.1 L422.5,204.3 L423.3,184.5 L424.2,200.4 L425.0,193.8 L425.9,172.5 L426.7,182.1 L427.5,197.4 L428.4,186.0 L429.2,223.1 L430.1,231.2 L430.9,207.6 L431.8,205.8 L432.6,202.8 L433.4,191.1 L434.3,232.7 L435.1,230.3 L436.0,220.1 L436.8,223.4 L437.6,203.4 L438.5,201.9 L439.3,180.9 L440.2,179.7 L441.0,180.0 L441.9,147.9 L442.7,129.9 L443.5,138.3 L444.4,139.2 L445.2,137.7 L446.1,148.2 L446.9,147.9 L447.7,142.2 L448.6,139.5 L449.4,139.8 L450.3,156.0 L451.1,187.8 L451.9,186.3 L452.8,194.4 L453.6,171.0 L454.5,164.1 L455.3,148.5 L456.2,145.5 L457.0,153.9 L457.8,166.8 L458.7,178.8 L459.5,201.0 L460.4,195.6 L461.2,203.1 L462.0,158.1 L462.9,124.3 L463.7,124.6 L464.6,119.5 L465.4,149.1 L466.3,167.4 L467.1,192.6 L467.9,194.7 L468.8,204.3 L469.6,223.1 L470.5,250.4 L471.3,224.6 L472.1,206.7 L473.0,196.2 L473.8,192.3 L474.7,183.9 L475.5,170.4 L476.4,153.0 L477.2,167.7 L478.0,177.3 L478.9,165.6 L479.7,177.0 L480.6,193.2 L481.4,190.2 L482.2,181.2 L483.1,122.2 L483.9,170.7 L484.8,182.7 L485.6,159.0 L486.5,157.5 L487.3,159.3 L488.1,152.1 L489.0,152.7 L489.8,159.0 L490.7,155.4 L491.5,153.0 L492.3,153.3 L493.2,141.3 L494.0,140.1 L494.9,143.4 L495.7,144.3 L496.5,173.4 L497.4,137.4 L498.2,132.6 L499.1,151.8 L499.9,160.5 L500.8,124.0 L501.6,122.8 L502.4,134.7 L503.3,151.2 L504.1,156.6 L505.0,151.2 L505.8,153.0 L506.6,156.9 L507.5,158.7 L508.3,159.9 L509.2,159.6 L510.0,173.4 L510.9,173.4 L511.7,175.5 L512.5,180.3 L513.4,171.3 L514.2,184.2 L515.1,164.1 L515.9,148.5 L516.7,148.8 L517.6,147.9 L518.4,143.4 L519.3,141.6 L520.1,138.6 L521.0,156.9 L521.8,130.2 L522.6,129.3 L523.5,132.0 L524.3,155.7 L525.2,128.7 L526.0,133.5 L526.8,128.7 L527.7,152.4 L528.5,258.8 L529.4,270.5 L530.2,270.2 L531.1,266.9 L531.9,242.6 L532.7,241.1 L533.6,228.8 L534.4,212.3 L535.3,202.2 L536.1,207.3 L536.9,198.3 L537.8,169.5 L538.6,153.6 L539.5,121.6 L540.3,151.8 L541.2,159.3 L542.0,83.2 L542.8,75.4 L543.7,104.2 L544.5,71.5 L545.4,75.1 L546.2,103.9 L547.0,108.7 L547.9,101.8 L548.7,140.4 L549.6,208.5 L550.4,191.4 L551.2,212.6 L552.1,199.8 L552.9,191.7 L553.8,228.2 L554.6,232.4 L555.5,232.4 L556.3,226.7 L557.1,219.8 L558.0,221.3 L558.8,220.7 L559.7,215.3 L560.5,202.8 L561.3,195.3 L562.2,185.1 L563.0,155.7 L563.9,138.0 L564.7,105.4 L565.6,126.0 L566.4,125.2 L567.2,131.7 L568.1,133.8 L568.9,136.2 L569.8,142.5 L570.6,158.4 L571.4,181.8 L572.3,194.4 L573.1,224.6 L574.0,209.4 L574.8,205.2 L575.7,231.5 L576.5,232.1 L577.3,238.1 L578.2,236.9 L579.0,259.7 L579.9,237.5 L580.7,238.7 L581.5,215.6 L582.4,186.0 L583.2,156.6 L584.1,131.1 L584.9,121.3 L585.8,134.1 L586.6,143.1 L587.4,141.6 L588.3,144.9 L589.1,144.6 L590.0,142.8 L590.8,186.6 L591.6,177.6 L592.5,171.0 L593.3,144.0 L594.2,177.0 L595.0,181.8 L595.8,181.8 L596.7,183.9 L597.5,182.4 L598.4,184.8 L599.2,159.0 L600.1,150.9 L600.9,120.4 L601.7,91.0 L602.6,91.9 L603.4,67.6 L604.3,95.8 L605.1,116.5 L605.9,143.4 L606.8,146.4 L607.6,140.1 L608.5,134.7 L609.3,187.5 L610.2,266.0 L611.0,251.3 L611.8,222.8 L612.7,197.4 L613.5,204.3 L614.4,208.8 L615.2,155.7 L616.0,130.2 L616.9,122.2 L617.7,134.1 L618.6,124.0 L619.4,122.2 L620.3,125.5 L621.1,131.4 L621.9,131.7 L622.8,130.2 L623.6,140.4 L624.5,121.0 L625.3,134.1 L626.1,95.5 L627.0,126.6 L627.8,135.3 L628.7,124.3 L629.5,177.0 L630.4,222.8 L631.2,220.1 L632.0,223.4 L632.9,210.2 L633.7,214.4 L634.6,218.6 L635.4,198.6 L636.2,192.0 L637.1,184.8 L637.9,196.2 L638.8,186.6 L639.6,185.7 L640.4,193.8 L641.3,173.4 L642.1,176.4 L643.0,173.7 L643.8,164.4 L644.7,160.8 L645.5,162.0 L646.3,167.7 L647.2,186.6 L648.0,208.2 L648.9,197.4 L649.7,192.6 L650.5,226.7 L651.4,227.6 L652.2,235.1 L653.1,239.3 L653.9,232.1 L654.8,168.0 L655.6,215.6 L656.4,212.6 L657.3,195.9 L658.1,191.7 L659.0,186.0 L659.8,159.9 L660.6,157.2 L661.5,133.8 L662.3,132.0 L663.2,126.6 L664.0,94.9 L664.9,107.5 L665.7,94.6 L666.5,112.9 L667.4,128.4 L668.2,132.3 L669.1,128.1 L669.9,187.5 L670.7,193.2 L671.6,192.3 L672.4,195.3 L673.3,191.4 L674.1,190.2 L675.0,179.7 L675.8,165.6 L676.6,159.9 L677.5,161.7 L678.3,168.3 L679.2,167.4 L680.0,133.8" stroke="#8c564b" stroke-width="2" fill="none" opacity="0.8"/>
<!-- Forecast Difference -->
<path d="M80.0,420.0 L80.8,420.0 L81.7,420.0 L82.5,420.0 L83.4,420.0 L84.2,420.0 L85.0,420.0 L85.9,420.0 L86.7,420.0 L87.6,420.0 L88.4,420.0 L89.3,420.0 L90.1,420.0 L90.9,420.0 L91.8,420.0 L92.6,420.0 L93.5,420.0 L94.3,420.0 L95.1,420.0 L96.0,420.0 L96.8,420.0 L97.7,420.0 L98.5,420.0 L99.4,420.0 L100.2,420.0 L101.0,420.0 L101.9,420.0 L102.7,420.0 L103.6,420.0 L104.4,420.0 L105.2,420.0 L106.1,420.0 L106.9,420.0 L107.8,420.0 L108.6,420.0 L109.5,420.0 L110.3,420.0 L111.1,420.0 L112.0,420.0 L112.8,420.0 L113.7,420.0 L114.5,420.0 L115.3,420.0 L116.2,420.0 L117.0,420.0 L117.9,420.0 L118.7,420.0 L119.6,420.0 L120.4,420.0 L121.2,420.0 L122.1,420.0 L122.9,420.0 L123.8,420.0 L124.6,420.0 L125.4,420.0 L126.3,420.0 L127.1,420.0 L128.0,420.0 L128.8,420.0 L129.6,420.0 L130.5,420.0 L131.3,420.0 L132.2,420.0 L133.0,420.0 L133.9,420.0 L134.7,420.0 L135.5,420.0 L136.4,420.0 L137.2,420.0 L138.1,420.0 L138.9,420.0 L139.7,420.0 L140.6,420.0 L141.4,420.0 L142.3,420.0 L143.1,420.0 L144.0,420.0 L144.8,420.0 L145.6,420.0 L146.5,420.0 L147.3,420.0 L148.2,420.0 L149.0,420.0 L149.8,420.0 L150.7,420.0 L151.5,420.0 L152.4,420.0 L153.2,420.0 L154.1,420.0 L154.9,420.0 L155.7,420.0 L156.6,420.0 L157.4,420.0 L158.3,420.0 L159.1,420.0 L159.9,420.0 L160.8,420.0 L161.6,420.0 L162.5,420.0 L163.3,420.0 L164.2,420.0 L165.0,420.0 L165.8,420.0 L166.7,420.0 L167.5,420.0 L168.4,420.0 L169.2,420.0 L170.0,420.0 L170.9,420.0 L171.7,420.0 L172.6,420.0 L173.4,420.0 L174.2,420.0 L175.1,420.0 L175.9,420.0 L176.8,420.0 L177.6,420.0 L178.5,420.0 L179.3,420.0 L180.1,420.0 L181.0,420.0 L181.8,420.0 L182.7,420.0 L183.5,420.0 L184.3,420.0 L185.2,420.0 L186.0,420.0 L186.9,420.0 L187.7,420.0 L188.6,420.0 L189.4,420.0 L190.2,420.0 L191.1,420.0 L191.9,420.0 L192.8,420.0 L193.6,420.0 L194.4,420.0 L195.3,420.0 L196.1,420.0 L197.0,420.0 L197.8,420.0 L198.7,420.0 L199.5,420.0 L200.3,420.0 L201.2,420.0 L202.0,420.0 L202.9,420.0 L203.7,420.0 L204.5,420.0 L205.4,420.0 L206.2,420.0 L207.1,420.0 L207.9,420.0 L208.8,420.0 L209.6,420.0 L210.4,420.0 L211.3,420.0 L212.1,420.0 L213.0,420.0 L213.8,420.0 L214.6,420.0 L215.5,420.0 L216.3,420.0 L217.2,420.0 L218.0,420.0 L218.8,420.0 L219.7,420.0 L220.5,420.0 L221.4,420.0 L222.2,420.0 L223.1,420.0 L223.9,420.0 L224.7,420.0 L225.6,420.0 L226.4,420.0 L227.3,420.0 L228.1,420.0 L228.9,420.0 L229.8,420.0 L230.6,420.0 L231.5,420.0 L232.3,420.0 L233.2,420.0 L234.0,420.0 L234.8,420.0 L235.7,420.0 L236.5,420.0 L237.4,420.0 L238.2,420.0 L239.0,420.0 L239.9,420.0 L240.7,420.0 L241.6,420.0 L242.4,420.0 L243.3,420.0 L244.1,420.0 L244.9,420.0 L245.8,420.0 L246.6,420.0 L247.5,420.0 L248.3,420.0 L249.1,420.0 L250.0,420.0 L250.8,420.0 L251.7,420.0 L252.5,420.0 L253.4,420.0 L254.2,420.0 L255.0,420.0 L255.9,420.0 L256.7,420.0 L257.6,420.0 L258.4,420.0 L259.2,420.0 L260.1,420.0 L260.9,420.0 L261.8,420.0 L262.6,420.0 L263.5,420.0 L264.3,420.0 L265.1,420.0 L266.0,420.0 L266.8,420.0 L267.7,420.0 L268.5,420.0 L269.3,420.0 L270.2,420.0 L271.0,420.0 L271.9,420.0 L272.7,420.0 L273.5,420.0 L274.4,420.0 L275.2,420.0 L276.1,420.0 L276.9,420.0 L277.8,420.0 L278.6,420.0 L279.4,420.0 L280.3,420.0 L281.1,420.0 L282.0,420.0 L282.8,420.0 L283.6,420.0 L284.5,420.0 L285.3,420.0 L286.2,420.0 L287.0,420.0 L287.9,420.0 L288.7,420.0 L289.5,420.0 L290.4,420.0 L291.2,420.0 L292.1,420.0 L292.9,420.0 L293.7,420.0 L294.6,420.0 L295.4,420.0 L296.3,420.0 L297.1,420.0 L298.0,420.0 L298.8,420.0 L299.6,420.0 L300.5,420.0 L301.3,420.0 L302.2,420.0 L303.0,420.0 L303.8,420.0 L304.7,420.0 L305.5,420.0 L306.4,420.0 L307.2,420.0 L308.1,420.0 L308.9,420.0 L309.7,420.0 L310.6,420.0 L311.4,420.0 L312.3,420.0 L313.1,420.0 L313.9,420.0 L314.8,420.0 L315.6,420.0 L316.5,420.0 L317.3,420.0 L318.1,420.0 L319.0,420.0 L319.8,420.0 L320.7,420.0 L321.5,420.0 L322.4,420.0 L323.2,420.0 L324.0,420.0 L324.9,420.0 L325.7,420.0 L326.6,420.0 L327.4,420.0 L328.2,420.0 L329.1,420.0 L329.9,420.0 L330.8,420.0 L331.6,420.0 L332.5,420.0 L333.3,420.0 L334.1,420.0 L335.0,420.0 L335.8,420.0 L336.7,420.0 L337.5,420.0 L338.3,420.0 L339.2,420.0 L340.0,420.0 L340.9,420.0 L341.7,420.0 L342.6,420.0 L343.4,420.0 L344.2,420.0 L345.1,420.0 L345.9,420.0 L346.8,420.0 L347.6,420.0 L348.4,420.0 L349.3,420.0 L350.1,420.0 L351.0,420.0 L351.8,420.0 L352.7,420.0 L353.5,420.0 L354.3,420.0 L355.2,420.0 L356.0,420.0 L356.9,420.0 L357.7,420.0 L358.5,420.0 L359.4,420.0 L360.2,420.0 L361.1,420.0 L361.9,420.0 L362.7,420.0 L363.6,420.0 L364.4,420.0 L365.3,420.0 L366.1,420.0 L367.0,420.0 L367.8,420.0 L368.6,420.0 L369.5,420.0 L370.3,420.0 L371.2,420.0 L372.0,420.0 L372.8,420.0 L373.7,420.0 L374.5,420.0 L375.4,420.0 L376.2,420.0 L377.1,420.0 L377.9,420.0 L378.7,420.0 L379.6,420.0 L380.4,420.0 L381.3,420.0 L382.1,420.0 L382.9,420.0 L383.8,420.0 L384.6,420.0 L385.5,420.0 L386.3,420.0 L387.2,420.0 L388.0,420.0 L388.8,420.0 L389.7,420.0 L390.5,420.0 L391.4,420.0 L392.2,420.0 L393.0,420.0 L393.9,420.0 L394.7,420.0 L395.6,420.0 L396.4,420.0 L397.3,420.0 L398.1,420.0 L398.9,420.0 L399.8,420.0 L400.6,420.0 L401.5,420.0 L402.3,420.0 L403.1,420.0 L404.0,420.0 L404.8,420.0 L405.7,420.0 L406.5,420.0 L407.3,420.0 L408.2,420.0 L409.0,420.0 L409.9,420.0 L410.7,420.0 L411.6,420.0 L412.4,420.0 L413.2,420.0 L414.1,420.0 L414.9,420.0 L415.8,420.0 L416.6,420.0 L417.4,420.0 L418.3,420.0 L419.1,420.0 L420.0,420.0 L420.8,420.0 L421.7,420.0 L422.5,420.0 L423.3,420.0 L424.2,420.0 L425.0,420.0 L425.9,420.0 L426.7,420.0 L427.5,420.0 L428.4,420.0 L429.2,420.0 L430.1,420.0 L430.9,420.0 L431.8,420.0 L432.6,420.0 L433.4,420.0 L434.3,420.0 L435.1,420.0 L436.0,420.0 L436.8,420.0 L437.6,420.0 L438.5,420.0 L439.3,420.0 L440.2,420.0 L441.0,420.0 L441.9,420.0 L442.7,420.0 L443.5,420.0 L444.4,420.0 L445.2,420.0 L446.1,420.0 L446.9,420.0 L447.7,420.0 L448.6,420.0 L449.4,420.0 L450.3,420.0 L451.1,420.0 L451.9,420.0 L452.8,420.0 L453.6,420.0 L454.5,420.0 L455.3,420.0 L456.2,420.0 L457.0,420.0 L457.8,420.0 L458.7,420.0 L459.5,420.0 L460.4,420.0 L461.2,420.0 L462.0,420.0 L462.9,420.0 L463.7,420.0 L464.6,420.0 L465.4,420.0 L466.3,420.0 L467.1,420.0 L467.9,420.0 L468.8,420.0 L469.6,420.0 L470.5,420.0 L471.3,420.0 L472.1,420.0 L473.0,420.0 L473.8,420.0 L474.7,420.0 L475.5,420.0 L476.4,420.0 L477.2,420.0 L478.0,420.0 L478.9,420.0 L479.7,420.0 L480.6,420.0 L481.4,420.0 L482.2,420.0 L483.1,420.0 L483.9,420.0 L484.8,420.0 L485.6,420.0 L486.5,420.0 L487.3,420.0 L488.1,420.0 L489.0,420.0 L489.8,420.0 L490.7,420.0 L491.5,420.0 L492.3,420.0 L493.2,420.0 L494.0,420.0 L494.9,420.0 L495.7,420.0 L496.5,420.0 L497.4,420.0 L498.2,420.0 L499.1,420.0 L499.9,420.0 L500.8,420.0 L501.6,420.0 L502.4,420.0 L503.3,420.0 L504.1,420.0 L505.0,420.0 L505.8,420.0 L506.6,420.0 L507.5,420.0 L508.3,420.0 L509.2,420.0 L510.0,420.0 L510.9,420.0 L511.7,420.0 L512.5,420.0 L513.4,420.0 L514.2,420.0 L515.1,420.0 L515.9,420.0 L516.7,420.0 L517.6,420.0 L518.4,420.0 L519.3,420.0 L520.1,420.0 L521.0,420.0 L521.8,420.0 L522.6,420.0 L523.5,420.0 L524.3,420.0 L525.2,420.0 L526.0,420.0 L526.8,420.0 L527.7,420.0 L528.5,420.0 L529.4,420.0 L530.2,420.0 L531.1,420.0 L531.9,420.0 L532.7,420.0 L533.6,420.0 L534.4,420.0 L535.3,420.0 L536.1,420.0 L536.9,420.0 L537.8,420.0 L538.6,420.0 L539.5,420.0 L540.3,420.0 L541.2,420.0 L542.0,420.0 L542.8,420.0 L543.7,420.0 L544.5,420.0 L545.4,420.0 L546.2,420.0 L547.0,420.0 L547.9,420.0 L548.7,420.0 L549.6,420.0 L550.4,420.0 L551.2,420.0 L552.1,420.0 L552.9,420.0 L553.8,420.0 L554.6,420.0 L555.5,420.0 L556.3,420.0 L557.1,420.0 L558.0,420.0 L558.8,420.0 L559.7,420.0 L560.5,420.0 L561.3,420.0 L562.2,420.0 L563.0,420.0 L563.9,420.0 L564.7,420.0 L565.6,420.0 L566.4,420.0 L567.2,420.0 L568.1,420.0 L568.9,420.0 L569.8,420.0 L570.6,420.0 L571.4,420.0 L572.3,420.0 L573.1,420.0 L574.0,420.0 L574.8,420.0 L575.7,420.0 L576.5,420.0 L577.3,420.0 L578.2,420.0 L579.0,420.0 L579.9,420.0 L580.7,420.0 L581.5,420.0 L582.4,420.0 L583.2,420.0 L584.1,420.0 L584.9,420.0 L585.8,420.0 L586.6,420.0 L587.4,420.0 L588.3,420.0 L589.1,420.0 L590.0,420.0 L590.8,420.0 L591.6,420.0 L592.5,420.0 L593.3,420.0 L594.2,420.0 L595.0,420.0 L595.8,420.0 L596.7,420.0 L597.5,420.0 L598.4,420.0 L599.2,420.0 L600.1,420.0 L600.9,420.0 L601.7,420.0 L602.6,420.0 L603.4,420.0 L604.3,420.0 L605.1,420.0 L605.9,420.0 L606.8,420.0 L607.6,420.0 L608.5,420.0 L609.3,420.0 L610.2,420.0 L611.0,420.0 L611.8,420.0 L612.7,420.0 L613.5,420.0 L614.4,420.0 L615.2,420.0 L616.0,420.0 L616.9,420.0 L617.7,420.0 L618.6,420.0 L619.4,420.0 L620.3,420.0 L621.1,420.0 L621.9,420.0 L622.8,420.0 L623.6,420.0 L624.5,420.0 L625.3,420.0 L626.1,420.0 L627.0,420.0 L627.8,420.0 L628.7,420.0 L629.5,420.0 L630.4,420.0 L631.2,420.0 L632.0,420.0 L632.9,420.0 L633.7,420.0 L634.6,420.0 L635.4,420.0 L636.2,420.0 L637.1,420.0 L637.9,420.0 L638.8,420.0 L639.6,420.0 L640.4,420.0 L641.3,420.0 L642.1,420.0 L643.0,420.0 L643.8,420.0 L644.7,420.0 L645.5,420.0 L646.3,420.0 L647.2,420.0 L648.0,420.0 L648.9,420.0 L649.7,420.0 L650.5,420.0 L651.4,420.0 L652.2,420.0 L653.1,420.0 L653.9,420.0 L654.8,420.0 L655.6,420.0 L656.4,420.0 L657.3,420.0 L658.1,420.0 L659.0,420.0 L659.8,420.0 L660.6,420.0 L661.5,420.0 L662.3,420.0 L663.2,420.0 L664.0,420.0 L664.9,420.0 L665.7,420.0 L666.5,420.0 L667.4,420.0 L668.2,420.0 L669.1,420.0 L669.9,420.0 L670.7,420.0 L671.6,420.0 L672.4,420.0 L673.3,420.0 L674.1,420.0 L675.0,420.0 L675.8,420.0 L676.6,420.0 L677.5,420.0 L678.3,420.0 L679.2,420.0 L680.0,420.0" stroke="#e377c2" stroke-width="2" fill="none" opacity="0.8"/>

<!-- Legend -->
<line x1="690" y1="70" x2="705" y2="70" stroke="#1f77b4" stroke-width="3"/>
<text x="710" y="74" class="legend">Wind Generation</text>
<line x1="690" y1="88" x2="705" y2="88" stroke="#ff7f0e" stroke-width="3"/>
<text x="710" y="92" class="legend">Hydro Generation</text>
<line x1="690" y1="106" x2="705" y2="106" stroke="#2ca02c" stroke-width="3"/>
<text x="710" y="110" class="legend">Thermal Generation</text>
<line x1="690" y1="124" x2="705" y2="124" stroke="#d62728" stroke-width="3"/>
<text x="710" y="128" class="legend">Solar Generation</text>
<line x1="690" y1="142" x2="705" y2="142" stroke="#9467bd" stroke-width="3"/>
<text x="710" y="146" class="legend">Forecast</text>
<line x1="690" y1="160" x2="705" y2="160" stroke="#8c564b" stroke-width="3"/>
<text x="710" y="164" class="legend">Total Generation</text>
<line x1="690" y1="178" x2="705" y2="178" stroke="#e377c2" stroke-width="3"/>
<text x="710" y="182" class="legend">Forecast Difference</text>

<!-- Date range -->
<text x="80" y="495" class="legend">Range: 05/20 - 06/19/2026 (714 records)</text>
</svg>