<?xml version="1.0" encoding="UTF-8"?>
<svg width="800" height="500" xmlns="http://www.w3.org/2000/svg">
<style>
.axis-line { stroke: #333; stroke-width: 1; }
.grid-line { stroke: #ddd; stroke-width: 0.5; }
.title { font: 16px Arial; text-anchor: middle; fill: #333; }
.axis-label { font: 12px Arial; text-anchor: middle; fill: #666; }
.legend { font: 10px Arial; fill: #333; }
</style>

<!-- Title -->
<text x="400.0" y="25" class="title">Northwestern Energy Generation Data - Past 30 Days</text>

<!-- Plot area background -->
<rect x="80" y="50" width="600" height="370" fill="white" stroke="#ddd"/>

<!-- Y-axis -->
<line x1="80" y1="50" x2="80" y2="420" class="axis-line"/>
<text x="30" y="235.0" class="axis-label" transform="rotate(-90, 30, 235.0)">Generation (MW)</text>

<!-- X-axis -->
<line x1="80" y1="420" x2="680" y2="420" class="axis-line"/>
<text x="380.0" y="480" class="axis-label">Time</text>
<line x1="80" y1="420.0" x2="680" y2="420.0" class="grid-line"/>
<text x="70" y="425.0" class="legend" text-anchor="end">0</text>
<line x1="80" y1="327.5" x2="680" y2="327.5" class="grid-line"/>
<text x="70" y="332.5" class="legend" text-anchor="end">357</text>
<line x1="80" y1="235.0" x2="680" y2="235.0" class="grid-line"/>
<text x="70" y="240.0" class="legend" text-anchor="end">714</text>
<line x1="80" y1="142.5" x2="680" y2="142.5" class="grid-line"/>
<text x="70" y="147.5" class="legend" text-anchor="end">1071</text>
<line x1="80" y1="50.0" x2="680" y2="50.0" class="grid-line"/>
<text x="70" y="55.0" class="legend" text-anchor="end">1428</text>
<!-- Wind Generation -->
<path d="M80.0,311.7 L80.8,315.8 L81.7,327.0 L82.5,368.7 L83.4,362.5 L84.2,390.7 L85.1,388.6 L85.9,384.5 L86.7,380.6 L87.6,399.8 L88.4,411.2 L89.3,409.6 L90.1,403.2 L91.0,397.2 L91.8,394.3 L92.6,380.4 L93.5,379.3 L94.3,366.6 L95.2,341.8 L96.0,328.0 L96.9,317.9 L97.7,316.6 L98.5,310.4 L99.4,315.1 L100.2,313.0 L101.1,319.7 L101.9,317.7 L102.8,325.9 L103.6,317.7 L104.4,317.7 L105.3,311.2 L106.1,309.4 L107.0,309.4 L107.8,320.0 L108.7,321.8 L109.5,342.0 L110.3,348.0 L111.2,344.6 L112.0,343.0 L112.9,333.5 L113.7,328.0 L114.6,329.6 L115.4,322.3 L116.2,306.5 L117.1,308.1 L117.9,308.1 L118.8,320.2 L119.6,320.0 L120.4,307.5 L121.3,307.3 L122.1,306.8 L123.0,306.3 L123.8,306.8 L124.7,309.6 L125.5,306.0 L126.3,306.5 L127.2,306.5 L128.0,307.3 L128.9,308.8 L129.7,313.0 L130.6,315.3 L131.4,313.2 L132.2,314.5 L133.1,311.2 L133.9,314.0 L134.8,316.9 L135.6,312.5 L136.5,307.3 L137.3,307.0 L138.1,306.3 L139.0,306.8 L139.8,307.0 L140.7,308.8 L141.5,317.9 L142.4,324.4 L143.2,327.2 L144.0,320.5 L144.9,321.0 L145.7,315.1 L146.6,313.2 L147.4,313.5 L148.3,313.5 L149.1,316.4 L149.9,315.3 L150.8,315.1 L151.6,317.1 L152.5,316.6 L153.3,315.8 L154.2,319.2 L155.0,315.8 L155.8,320.0 L156.7,337.9 L157.5,331.1 L158.4,340.5 L159.2,335.0 L160.1,317.7 L160.9,336.6 L161.7,321.5 L162.6,311.2 L163.4,311.7 L164.3,310.1 L165.1,310.4 L166.0,314.8 L166.8,309.1 L167.6,324.9 L168.5,328.0 L169.3,327.5 L170.2,345.6 L171.0,325.9 L171.9,325.2 L172.7,327.0 L173.5,338.4 L174.4,357.6 L175.2,340.2 L176.1,336.1 L176.9,341.8 L177.8,349.8 L178.6,355.7 L179.4,346.2 L180.3,320.8 L181.1,312.7 L182.0,316.6 L182.8,318.2 L183.7,313.2 L184.5,320.0 L185.3,322.8 L186.2,324.1 L187.0,315.8 L187.9,313.2 L188.7,312.7 L189.6,314.8 L190.4,324.6 L191.2,314.3 L192.1,316.9 L192.9,320.5 L193.8,318.4 L194.6,348.5 L195.4,344.6 L196.3,344.1 L197.1,341.0 L198.0,343.0 L198.8,343.0 L199.7,343.8 L200.5,353.9 L201.3,347.5 L202.2,350.8 L203.0,348.5 L203.9,354.2 L204.7,360.4 L205.6,364.6 L206.4,370.5 L207.2,375.7 L208.1,378.0 L208.9,373.9 L209.8,344.1 L210.6,337.3 L211.5,330.4 L212.3,322.8 L213.1,310.7 L214.0,313.0 L214.8,342.5 L215.7,343.0 L216.5,344.3 L217.4,338.6 L218.2,339.2 L219.0,341.8 L219.9,336.3 L220.7,353.4 L221.6,342.5 L222.4,347.2 L223.3,316.6 L224.1,316.9 L224.9,311.4 L225.8,314.0 L226.6,311.2 L227.5,323.4 L228.3,320.2 L229.2,317.7 L230.0,321.8 L230.8,318.9 L231.7,325.7 L232.5,317.9 L233.4,321.0 L234.2,310.9 L235.1,344.1 L235.9,344.6 L236.7,344.3 L237.6,355.0 L238.4,356.8 L239.3,369.0 L240.1,352.9 L241.0,356.5 L241.8,364.6 L242.6,360.9 L243.5,337.6 L244.3,333.5 L245.2,331.9 L246.0,328.8 L246.9,329.3 L247.7,330.4 L248.5,332.4 L249.4,335.8 L250.2,330.1 L251.1,332.2 L251.9,330.6 L252.8,330.6 L253.6,329.6 L254.4,324.9 L255.3,326.7 L256.1,333.7 L257.0,335.8 L257.8,336.1 L258.7,338.1 L259.5,348.7 L260.3,333.5 L261.2,327.5 L262.0,327.0 L262.9,328.5 L263.7,326.7 L264.6,335.8 L265.4,336.1 L266.2,340.7 L267.1,337.3 L267.9,337.6 L268.8,371.0 L269.6,354.4 L270.4,364.6 L271.3,376.2 L272.1,379.8 L273.0,369.5 L273.8,372.1 L274.7,363.5 L275.5,360.7 L276.3,334.5 L277.2,331.9 L278.0,311.7 L278.9,310.1 L279.7,309.6 L280.6,313.2 L281.4,313.2 L282.2,312.5 L283.1,312.5 L283.9,312.2 L284.8,319.2 L285.6,338.9 L286.5,343.8 L287.3,350.0 L288.1,358.3 L289.0,355.2 L289.8,356.8 L290.7,346.9 L291.5,332.7 L292.4,334.0 L293.2,328.3 L294.0,334.2 L294.9,343.6 L295.7,341.8 L296.6,364.3 L297.4,365.8 L298.3,373.4 L299.1,374.9 L299.9,380.9 L300.8,370.8 L301.6,386.3 L302.5,388.1 L303.3,369.5 L304.2,374.4 L305.0,374.1 L305.8,371.0 L306.7,385.3 L307.5,391.2 L308.4,388.1 L309.2,395.4 L310.1,392.0 L310.9,379.1 L311.7,373.1 L312.6,359.1 L313.4,339.2 L314.3,323.6 L315.1,319.7 L316.0,323.9 L316.8,327.0 L317.6,318.4 L318.5,320.5 L319.3,323.6 L320.2,318.9 L321.0,318.4 L321.9,318.7 L322.7,320.5 L323.5,315.6 L324.4,327.8 L325.2,322.3 L326.1,320.5 L326.9,316.1 L327.8,317.4 L328.6,318.2 L329.4,322.6 L330.3,323.1 L331.1,322.6 L332.0,325.9 L332.8,338.9 L333.7,341.8 L334.5,325.7 L335.3,321.8 L336.2,314.5 L337.0,315.3 L337.9,336.3 L338.7,335.3 L339.6,323.6 L340.4,328.8 L341.2,319.2 L342.1,323.9 L342.9,343.8 L343.8,339.2 L344.6,324.9 L345.4,315.1 L346.3,319.2 L347.1,317.9 L348.0,312.7 L348.8,313.0 L349.7,311.2 L350.5,318.9 L351.3,320.5 L352.2,319.5 L353.0,317.7 L353.9,326.7 L354.7,344.1 L355.6,357.6 L356.4,370.3 L357.2,369.5 L358.1,387.9 L358.9,399.3 L359.8,384.2 L360.6,374.7 L361.5,377.8 L362.3,379.6 L363.1,379.1 L364.0,375.7 L364.8,397.7 L365.7,394.1 L366.5,407.6 L367.4,394.1 L368.2,383.7 L369.0,379.6 L369.9,376.5 L370.7,365.1 L371.6,355.5 L372.4,351.6 L373.3,353.2 L374.1,356.5 L374.9,359.6 L375.8,377.0 L376.6,390.7 L377.5,392.8 L378.3,406.0 L379.2,392.8 L380.0,381.9 L380.8,377.8 L381.7,374.7 L382.5,364.0 L383.4,358.6 L384.2,363.3 L385.1,383.5 L385.9,391.2 L386.7,392.8 L387.6,400.3 L388.4,407.6 L389.3,410.9 L390.1,413.3 L391.0,416.1 L391.8,418.7 L392.6,419.5 L393.5,419.2 L394.3,420.0 L395.2,420.0 L396.0,420.0 L396.9,420.0 L397.7,419.2 L398.5,419.5 L399.4,418.7 L400.2,415.3 L401.1,409.9 L401.9,402.6 L402.8,406.0 L403.6,408.3 L404.4,413.8 L405.3,410.7 L406.1,404.2 L407.0,400.0 L407.8,391.5 L408.7,388.4 L409.5,377.0 L410.3,362.7 L411.2,338.1 L412.0,327.8 L412.9,330.6 L413.7,330.4 L414.6,331.1 L415.4,332.7 L416.2,340.7 L417.1,336.8 L417.9,337.1 L418.8,336.6 L419.6,336.6 L420.4,345.6 L421.3,335.3 L422.1,336.3 L423.0,365.3 L423.8,363.8 L424.7,370.5 L425.5,380.6 L426.3,377.2 L427.2,379.3 L428.0,369.0 L428.9,377.0 L429.7,376.0 L430.6,374.4 L431.4,376.2 L432.2,371.3 L433.1,376.7 L433.9,379.3 L434.8,385.3 L435.6,396.2 L436.5,406.8 L437.3,409.4 L438.1,404.5 L439.0,399.0 L439.8,394.1 L440.7,372.1 L441.5,362.0 L442.4,355.0 L443.2,339.9 L444.0,325.7 L444.9,318.9 L445.7,322.3 L446.6,317.7 L447.4,318.2 L448.3,320.8 L449.1,319.5 L449.9,322.3 L450.8,318.9 L451.6,314.8 L452.5,319.7 L453.3,318.2 L454.2,316.1 L455.0,314.8 L455.8,312.0 L456.7,325.4 L457.5,324.9 L458.4,346.2 L459.2,348.2 L460.1,341.8 L460.9,344.1 L461.7,342.8 L462.6,346.9 L463.4,344.9 L464.3,345.9 L465.1,313.8 L466.0,317.7 L466.8,316.4 L467.6,317.1 L468.5,324.6 L469.3,324.4 L470.2,320.8 L471.0,326.7 L471.9,323.6 L472.7,315.8 L473.5,314.3 L474.4,315.3 L475.2,311.4 L476.1,315.3 L476.9,331.1 L477.8,325.9 L478.6,332.2 L479.4,324.4 L480.3,320.0 L481.1,323.1 L482.0,323.6 L482.8,317.1 L483.7,315.6 L484.5,322.1 L485.3,328.0 L486.2,337.1 L487.0,339.7 L487.9,359.4 L488.7,346.9 L489.6,342.0 L490.4,356.3 L491.2,345.6 L492.1,342.0 L492.9,346.4 L493.8,331.1 L494.6,348.5 L495.4,342.5 L496.3,332.9 L497.1,329.8 L498.0,342.5 L498.8,344.9 L499.7,345.1 L500.5,327.2 L501.3,310.4 L502.2,316.4 L503.0,311.2 L503.9,318.4 L504.7,326.7 L505.6,325.7 L506.4,335.0 L507.2,323.6 L508.1,321.5 L508.9,313.2 L509.8,312.0 L510.6,314.3 L511.5,313.5 L512.3,316.6 L513.1,320.0 L514.0,321.5 L514.8,318.7 L515.7,322.3 L516.5,317.1 L517.4,319.7 L518.2,327.2 L519.0,327.0 L519.9,321.3 L520.7,313.2 L521.6,313.2 L522.4,323.4 L523.3,320.0 L524.1,320.0 L524.9,325.7 L525.8,319.7 L526.6,335.5 L527.5,328.0 L528.3,336.3 L529.2,338.4 L530.0,339.2 L530.8,324.9 L531.7,334.2 L532.5,338.1 L533.4,323.6 L534.2,341.2 L535.1,342.3 L535.9,343.8 L536.7,332.4 L537.6,341.8 L538.4,342.0 L539.3,352.4 L540.1,347.5 L541.0,342.8 L541.8,327.0 L542.6,326.7 L543.5,320.2 L544.3,330.6 L545.2,328.3 L546.0,321.8 L546.9,329.3 L547.7,324.9 L548.5,328.3 L549.4,321.5 L550.2,322.3 L551.1,315.1 L551.9,314.0 L552.8,319.7 L553.6,319.7 L554.4,315.6 L555.3,314.8 L556.1,313.5 L557.0,318.2 L557.8,321.3 L558.7,325.2 L559.5,330.6 L560.3,328.0 L561.2,320.5 L562.0,321.5 L562.9,329.8 L563.7,315.3 L564.6,319.5 L565.4,319.5 L566.2,323.1 L567.1,343.8 L567.9,342.3 L568.8,330.9 L569.6,336.1 L570.4,335.3 L571.3,330.1 L572.1,326.7 L573.0,336.3 L573.8,331.1 L574.7,330.1 L575.5,337.9 L576.3,345.6 L577.2,341.5 L578.0,345.4 L578.9,359.9 L579.7,367.7 L580.6,377.2 L581.4,363.3 L582.2,379.8 L583.1,372.3 L583.9,367.4 L584.8,346.4 L585.6,341.8 L586.5,346.2 L587.3,343.3 L588.1,349.8 L589.0,336.8 L589.8,322.1 L590.7,313.8 L591.5,320.0 L592.4,312.7 L593.2,314.3 L594.0,318.2 L594.9,319.2 L595.7,313.2 L596.6,312.2 L597.4,317.7 L598.3,318.9 L599.1,318.4 L599.9,318.4 L600.8,313.0 L601.6,314.0 L602.5,318.2 L603.3,311.7 L604.2,313.0 L605.0,312.2 L605.8,319.7 L606.7,338.1 L607.5,326.5 L608.4,323.9 L609.2,330.9 L610.1,343.3 L610.9,354.2 L611.7,341.8 L612.6,355.5 L613.4,347.2 L614.3,344.6 L615.1,341.8 L616.0,344.6 L616.8,351.9 L617.6,353.7 L618.5,341.2 L619.3,364.0 L620.2,358.9 L621.0,354.7 L621.9,360.1 L622.7,364.6 L623.5,368.2 L624.4,374.7 L625.2,376.0 L626.1,396.4 L626.9,403.9 L627.8,406.0 L628.6,413.3 L629.4,416.1 L630.3,412.5 L631.1,398.2 L632.0,389.2 L632.8,384.0 L633.7,360.9 L634.5,338.4 L635.3,321.3 L636.2,323.4 L637.0,322.8 L637.9,320.8 L638.7,325.4 L639.6,323.9 L640.4,319.2 L641.2,312.7 L642.1,314.0 L642.9,322.3 L643.8,321.5 L644.6,336.1 L645.4,330.4 L646.3,316.4 L647.1,324.4 L648.0,318.2 L648.8,326.2 L649.7,330.1 L650.5,324.4 L651.3,330.9 L652.2,325.9 L653.0,325.9 L653.9,329.6 L654.7,325.9 L655.6,330.4 L656.4,328.3 L657.2,323.9 L658.1,319.7 L658.9,320.0 L659.8,336.6 L660.6,333.5 L661.5,325.2 L662.3,321.3 L663.1,318.2 L664.0,343.0 L664.8,340.5 L665.7,350.6 L666.5,368.4 L667.4,387.4 L668.2,404.5 L669.0,404.7 L669.9,404.7 L670.7,405.0 L671.6,410.9 L672.4,416.9 L673.3,419.2 L674.1,418.7 L674.9,419.2 L675.8,417.1 L676.6,415.3 L677.5,414.6 L678.3,412.5 L679.2,409.6 L680.0,405.2" stroke="#1f77b4" stroke-width="2" fill="none" opacity="0.8"/>
<!-- Hydro Generation -->
<path d="M80.0,354.2 L80.8,353.7 L81.7,353.2 L82.5,353.4 L83.4,353.2 L84.2,353.2 L85.1,353.4 L85.9,353.4 L86.7,353.7 L87.6,353.2 L88.4,353.2 L89.3,353.2 L90.1,353.7 L91.0,353.9 L91.8,353.9 L92.6,353.4 L93.5,353.2 L94.3,353.9 L95.2,353.2 L96.0,353.2 L96.9,353.7 L97.7,353.4 L98.5,353.9 L99.4,353.7 L100.2,354.2 L101.1,354.2 L101.9,353.9 L102.8,354.7 L103.6,355.2 L104.4,355.5 L105.3,355.5 L106.1,355.0 L107.0,355.2 L107.8,355.0 L108.7,354.7 L109.5,354.7 L110.3,354.7 L111.2,354.7 L112.0,354.4 L112.9,355.0 L113.7,354.7 L114.6,355.0 L115.4,355.5 L116.2,354.7 L117.1,355.7 L117.9,356.5 L118.8,356.3 L119.6,356.3 L120.4,356.0 L121.3,356.8 L122.1,356.0 L123.0,356.3 L123.8,356.3 L124.7,356.5 L125.5,356.3 L126.3,355.7 L127.2,355.5 L128.0,355.5 L128.9,355.5 L129.7,355.5 L130.6,355.7 L131.4,355.0 L132.2,353.7 L133.1,355.0 L133.9,354.7 L134.8,356.3 L135.6,357.8 L136.5,358.9 L137.3,358.1 L138.1,356.5 L139.0,356.5 L139.8,354.7 L140.7,354.7 L141.5,353.9 L142.4,354.2 L143.2,354.2 L144.0,354.4 L144.9,353.9 L145.7,354.2 L146.6,353.4 L147.4,353.4 L148.3,353.9 L149.1,353.7 L149.9,353.4 L150.8,353.2 L151.6,353.2 L152.5,352.4 L153.3,351.3 L154.2,352.1 L155.0,350.8 L155.8,351.1 L156.7,350.8 L157.5,351.6 L158.4,351.9 L159.2,352.1 L160.1,351.6 L160.9,353.2 L161.7,352.9 L162.6,352.6 L163.4,353.2 L164.3,354.2 L165.1,354.2 L166.0,353.7 L166.8,353.7 L167.6,352.4 L168.5,352.4 L169.3,352.6 L170.2,352.6 L171.0,351.9 L171.9,351.1 L172.7,350.8 L173.5,350.3 L174.4,350.0 L175.2,350.3 L176.1,349.8 L176.9,350.6 L177.8,350.8 L178.6,350.8 L179.4,350.8 L180.3,350.6 L181.1,351.6 L182.0,351.3 L182.8,352.6 L183.7,352.4 L184.5,350.6 L185.3,350.8 L186.2,351.1 L187.0,351.3 L187.9,350.8 L188.7,350.8 L189.6,350.8 L190.4,349.5 L191.2,349.3 L192.1,348.0 L192.9,347.5 L193.8,349.3 L194.6,349.3 L195.4,350.0 L196.3,350.0 L197.1,350.3 L198.0,350.6 L198.8,350.6 L199.7,351.9 L200.5,352.4 L201.3,351.9 L202.2,352.6 L203.0,352.9 L203.9,352.6 L204.7,354.4 L205.6,353.4 L206.4,352.4 L207.2,351.9 L208.1,351.1 L208.9,351.3 L209.8,351.1 L210.6,350.8 L211.5,350.6 L212.3,350.8 L213.1,351.3 L214.0,351.1 L214.8,351.3 L215.7,351.1 L216.5,351.3 L217.4,351.1 L218.2,351.1 L219.0,351.1 L219.9,351.1 L220.7,351.1 L221.6,350.8 L222.4,351.1 L223.3,351.3 L224.1,351.6 L224.9,350.6 L225.8,350.3 L226.6,350.6 L227.5,350.0 L228.3,350.6 L229.2,350.0 L230.0,351.1 L230.8,350.8 L231.7,351.3 L232.5,351.1 L233.4,350.6 L234.2,352.1 L235.1,352.1 L235.9,351.6 L236.7,351.9 L237.6,351.9 L238.4,351.6 L239.3,352.1 L240.1,351.3 L241.0,351.9 L241.8,350.8 L242.6,351.3 L243.5,351.6 L244.3,350.8 L245.2,351.1 L246.0,351.3 L246.9,351.3 L247.7,351.6 L248.5,351.1 L249.4,351.1 L250.2,351.1 L251.1,351.3 L251.9,351.3 L252.8,351.3 L253.6,351.1 L254.4,351.9 L255.3,351.3 L256.1,351.9 L257.0,351.3 L257.8,351.1 L258.7,350.8 L259.5,351.1 L260.3,351.3 L261.2,351.1 L262.0,351.1 L262.9,350.8 L263.7,351.1 L264.6,350.8 L265.4,350.8 L266.2,350.6 L267.1,351.3 L267.9,350.8 L268.8,350.8 L269.6,350.6 L270.4,351.3 L271.3,351.3 L272.1,351.3 L273.0,351.3 L273.8,351.3 L274.7,351.6 L275.5,351.6 L276.3,351.6 L277.2,351.6 L278.0,352.1 L278.9,351.9 L279.7,352.1 L280.6,351.9 L281.4,351.9 L282.2,351.6 L283.1,351.6 L283.9,352.1 L284.8,352.1 L285.6,352.1 L286.5,351.1 L287.3,350.6 L288.1,350.6 L289.0,350.3 L289.8,350.3 L290.7,349.3 L291.5,349.3 L292.4,349.3 L293.2,348.5 L294.0,348.7 L294.9,349.3 L295.7,349.0 L296.6,349.3 L297.4,350.6 L298.3,350.3 L299.1,350.6 L299.9,350.6 L300.8,350.3 L301.6,350.8 L302.5,350.6 L303.3,350.6 L304.2,350.3 L305.0,350.6 L305.8,350.6 L306.7,350.3 L307.5,349.8 L308.4,349.0 L309.2,349.0 L310.1,349.8 L310.9,349.5 L311.7,349.8 L312.6,349.0 L313.4,349.3 L314.3,348.7 L315.1,348.7 L316.0,350.0 L316.8,349.8 L317.6,349.3 L318.5,349.8 L319.3,349.8 L320.2,349.8 L321.0,349.8 L321.9,349.5 L322.7,349.5 L323.5,349.8 L324.4,349.5 L325.2,350.0 L326.1,349.8 L326.9,349.5 L327.8,349.8 L328.6,350.0 L329.4,349.8 L330.3,350.0 L331.1,349.0 L332.0,349.3 L332.8,349.3 L333.7,349.0 L334.5,348.7 L335.3,349.0 L336.2,349.3 L337.0,349.0 L337.9,349.8 L338.7,349.5 L339.6,349.8 L340.4,350.6 L341.2,350.3 L342.1,350.0 L342.9,351.1 L343.8,351.1 L344.6,351.3 L345.4,350.8 L346.3,350.8 L347.1,350.8 L348.0,350.6 L348.8,350.8 L349.7,350.3 L350.5,350.3 L351.3,350.0 L352.2,350.3 L353.0,350.3 L353.9,350.3 L354.7,350.3 L355.6,350.6 L356.4,351.3 L357.2,352.1 L358.1,353.7 L358.9,355.2 L359.8,355.2 L360.6,353.2 L361.5,351.6 L362.3,351.1 L363.1,351.1 L364.0,349.5 L364.8,349.3 L365.7,349.3 L366.5,349.3 L367.4,349.5 L368.2,349.3 L369.0,349.0 L369.9,349.0 L370.7,349.0 L371.6,348.7 L372.4,349.0 L373.3,349.5 L374.1,349.8 L374.9,350.6 L375.8,352.1 L376.6,353.7 L377.5,355.5 L378.3,356.5 L379.2,357.6 L380.0,357.6 L380.8,357.6 L381.7,356.5 L382.5,354.7 L383.4,351.1 L384.2,349.8 L385.1,350.0 L385.9,349.8 L386.7,350.3 L387.6,350.3 L388.4,352.9 L389.3,354.2 L390.1,353.4 L391.0,356.3 L391.8,357.8 L392.6,358.9 L393.5,360.7 L394.3,361.7 L395.2,364.3 L396.0,365.3 L396.9,365.3 L397.7,366.6 L398.5,366.4 L399.4,367.9 L400.2,368.4 L401.1,369.5 L401.9,369.5 L402.8,370.3 L403.6,370.0 L404.4,370.0 L405.3,370.3 L406.1,369.5 L407.0,368.7 L407.8,368.7 L408.7,369.5 L409.5,369.2 L410.3,368.7 L411.2,368.2 L412.0,367.9 L412.9,367.4 L413.7,366.9 L414.6,366.6 L415.4,364.3 L416.2,364.6 L417.1,365.6 L417.9,366.6 L418.8,366.9 L419.6,367.1 L420.4,368.2 L421.3,368.2 L422.1,368.4 L423.0,368.4 L423.8,368.4 L424.7,367.1 L425.5,367.1 L426.3,367.1 L427.2,367.1 L428.0,367.1 L428.9,367.4 L429.7,367.4 L430.6,367.4 L431.4,367.1 L432.2,367.1 L433.1,367.1 L433.9,366.9 L434.8,366.6 L435.6,367.4 L436.5,367.4 L437.3,367.4 L438.1,367.1 L439.0,367.1 L439.8,367.1 L440.7,365.3 L441.5,364.8 L442.4,363.0 L443.2,362.5 L444.0,362.2 L444.9,362.5 L445.7,362.5 L446.6,362.5 L447.4,362.0 L448.3,362.2 L449.1,362.0 L449.9,362.0 L450.8,361.4 L451.6,360.9 L452.5,360.1 L453.3,360.4 L454.2,359.1 L455.0,359.4 L455.8,359.1 L456.7,359.1 L457.5,359.4 L458.4,359.1 L459.2,359.1 L460.1,357.6 L460.9,356.8 L461.7,355.7 L462.6,355.0 L463.4,353.9 L464.3,355.0 L465.1,355.2 L466.0,355.5 L466.8,356.0 L467.6,356.0 L468.5,355.7 L469.3,356.3 L470.2,356.5 L471.0,356.8 L471.9,356.8 L472.7,356.3 L473.5,356.5 L474.4,356.8 L475.2,356.0 L476.1,355.7 L476.9,356.0 L477.8,356.5 L478.6,356.3 L479.4,355.2 L480.3,354.4 L481.1,354.7 L482.0,354.4 L482.8,354.4 L483.7,353.2 L484.5,352.4 L485.3,352.4 L486.2,351.3 L487.0,350.6 L487.9,349.0 L488.7,349.0 L489.6,348.2 L490.4,347.7 L491.2,347.5 L492.1,347.5 L492.9,346.2 L493.8,345.6 L494.6,345.6 L495.4,345.6 L496.3,345.9 L497.1,346.2 L498.0,345.9 L498.8,345.9 L499.7,345.6 L500.5,344.9 L501.3,345.1 L502.2,345.6 L503.0,344.3 L503.9,343.8 L504.7,343.0 L505.6,343.0 L506.4,342.8 L507.2,343.0 L508.1,342.8 L508.9,343.0 L509.8,343.0 L510.6,342.3 L511.5,342.3 L512.3,342.3 L513.1,342.3 L514.0,341.8 L514.8,341.8 L515.7,341.8 L516.5,342.0 L517.4,342.3 L518.2,343.0 L519.0,343.3 L519.9,343.0 L520.7,343.8 L521.6,343.0 L522.4,342.8 L523.3,343.0 L524.1,343.3 L524.9,343.0 L525.8,343.0 L526.6,343.3 L527.5,342.8 L528.3,341.5 L529.2,341.0 L530.0,340.5 L530.8,341.0 L531.7,339.7 L532.5,339.7 L533.4,340.7 L534.2,340.2 L535.1,341.2 L535.9,341.5 L536.7,341.5 L537.6,341.8 L538.4,341.5 L539.3,341.2 L540.1,341.5 L541.0,341.2 L541.8,341.0 L542.6,341.0 L543.5,341.2 L544.3,341.0 L545.2,341.5 L546.0,341.0 L546.9,341.8 L547.7,341.8 L548.5,341.8 L549.4,341.8 L550.2,341.0 L551.1,341.2 L551.9,341.5 L552.8,341.5 L553.6,341.2 L554.4,341.5 L555.3,341.0 L556.1,340.7 L557.0,341.0 L557.8,342.0 L558.7,342.0 L559.5,342.0 L560.3,341.8 L561.2,342.0 L562.0,342.0 L562.9,342.0 L563.7,341.8 L564.6,342.0 L565.4,342.0 L566.2,341.8 L567.1,341.8 L567.9,342.5 L568.8,342.5 L569.6,342.8 L570.4,342.5 L571.3,342.8 L572.1,343.0 L573.0,342.5 L573.8,342.8 L574.7,342.3 L575.5,342.3 L576.3,342.8 L577.2,342.0 L578.0,342.0 L578.9,342.0 L579.7,342.3 L580.6,342.3 L581.4,342.0 L582.2,343.0 L583.1,342.8 L583.9,343.0 L584.8,343.0 L585.6,342.8 L586.5,342.8 L587.3,343.0 L588.1,342.8 L589.0,343.0 L589.8,341.2 L590.7,341.2 L591.5,340.5 L592.4,340.5 L593.2,339.9 L594.0,340.2 L594.9,340.2 L595.7,341.2 L596.6,341.5 L597.4,341.5 L598.3,341.2 L599.1,341.0 L599.9,341.2 L600.8,341.2 L601.6,341.2 L602.5,342.8 L603.3,343.6 L604.2,343.6 L605.0,344.6 L605.8,346.4 L606.7,347.5 L607.5,347.2 L608.4,347.5 L609.2,348.7 L610.1,349.8 L610.9,350.6 L611.7,351.6 L612.6,350.8 L613.4,350.8 L614.3,350.3 L615.1,349.3 L616.0,348.5 L616.8,348.0 L617.6,347.7 L618.5,348.0 L619.3,348.0 L620.2,348.2 L621.0,348.2 L621.9,348.2 L622.7,348.2 L623.5,348.2 L624.4,349.0 L625.2,349.0 L626.1,348.7 L626.9,348.2 L627.8,348.2 L628.6,348.5 L629.4,347.7 L630.3,347.7 L631.1,347.7 L632.0,347.7 L632.8,348.0 L633.7,348.0 L634.5,347.7 L635.3,347.5 L636.2,347.7 L637.0,346.9 L637.9,347.2 L638.7,347.7 L639.6,346.4 L640.4,347.2 L641.2,346.9 L642.1,347.5 L642.9,347.7 L643.8,346.4 L644.6,346.4 L645.4,346.7 L646.3,346.9 L647.1,346.7 L648.0,347.2 L648.8,347.2 L649.7,347.2 L650.5,346.9 L651.3,347.2 L652.2,348.0 L653.0,347.7 L653.9,347.5 L654.7,348.0 L655.6,347.7 L656.4,348.2 L657.2,348.2 L658.1,348.2 L658.9,348.7 L659.8,348.0 L660.6,348.2 L661.5,347.7 L662.3,348.2 L663.1,348.2 L664.0,347.5 L664.8,348.0 L665.7,348.2 L666.5,348.0 L667.4,348.0 L668.2,348.2 L669.0,347.7 L669.9,348.0 L670.7,348.0 L671.6,348.0 L672.4,348.2 L673.3,352.1 L674.1,348.7 L674.9,348.5 L675.8,348.5 L676.6,348.5 L677.5,348.5 L678.3,348.5 L679.2,348.7 L680.0,348.5" stroke="#ff7f0e" stroke-width="2" fill="none" opacity="0.8"/>
<!-- Thermal Generation -->
<path d="M80.0,372.1 L80.8,357.0 L81.7,356.8 L82.5,356.5 L83.4,350.0 L84.2,341.5 L85.1,346.7 L85.9,347.7 L86.7,347.5 L87.6,374.1 L88.4,373.6 L89.3,373.9 L90.1,371.3 L91.0,371.0 L91.8,352.1 L92.6,298.2 L93.5,332.9 L94.3,342.0 L95.2,342.5 L96.0,342.3 L96.9,356.5 L97.7,364.3 L98.5,372.1 L99.4,372.1 L100.2,363.5 L101.1,338.9 L101.9,336.6 L102.8,339.2 L103.6,341.5 L104.4,350.0 L105.3,362.2 L106.1,369.0 L107.0,368.7 L107.8,368.4 L108.7,343.8 L109.5,334.0 L110.3,331.6 L111.2,321.0 L112.0,302.1 L112.9,299.8 L113.7,342.5 L114.6,287.6 L115.4,288.4 L116.2,308.3 L117.1,318.7 L117.9,323.9 L118.8,328.8 L119.6,328.8 L120.4,319.5 L121.3,272.8 L122.1,284.0 L123.0,305.7 L123.8,293.0 L124.7,305.5 L125.5,322.8 L126.3,328.0 L127.2,310.1 L128.0,291.0 L128.9,311.4 L129.7,288.6 L130.6,285.8 L131.4,278.3 L132.2,260.1 L133.1,267.9 L133.9,300.3 L134.8,315.6 L135.6,330.4 L136.5,341.0 L137.3,356.3 L138.1,356.0 L139.0,366.4 L139.8,367.7 L140.7,361.4 L141.5,316.1 L142.4,329.6 L143.2,318.4 L144.0,318.7 L144.9,343.8 L145.7,343.8 L146.6,283.5 L147.4,279.3 L148.3,358.1 L149.1,363.8 L149.9,351.6 L150.8,333.2 L151.6,319.7 L152.5,322.1 L153.3,291.7 L154.2,330.1 L155.0,343.8 L155.8,353.4 L156.7,359.4 L157.5,364.6 L158.4,364.8 L159.2,364.3 L160.1,365.3 L160.9,332.9 L161.7,253.9 L162.6,246.1 L163.4,243.8 L164.3,268.7 L165.1,246.1 L166.0,317.7 L166.8,342.8 L167.6,364.0 L168.5,364.0 L169.3,364.6 L170.2,331.9 L171.0,324.4 L171.9,312.0 L172.7,309.4 L173.5,301.8 L174.4,332.4 L175.2,331.1 L176.1,328.0 L176.9,340.7 L177.8,345.9 L178.6,356.3 L179.4,356.3 L180.3,356.8 L181.1,354.4 L182.0,314.5 L182.8,314.8 L183.7,319.2 L184.5,329.1 L185.3,361.7 L186.2,361.7 L187.0,356.8 L187.9,361.7 L188.7,362.0 L189.6,361.7 L190.4,362.2 L191.2,362.0 L192.1,356.8 L192.9,299.5 L193.8,291.0 L194.6,312.0 L195.4,314.3 L196.3,348.7 L197.1,364.0 L198.0,364.3 L198.8,364.0 L199.7,364.0 L200.5,364.3 L201.3,362.2 L202.2,302.1 L203.0,317.7 L203.9,317.7 L204.7,292.3 L205.6,292.3 L206.4,318.2 L207.2,317.9 L208.1,332.9 L208.9,333.5 L209.8,317.9 L210.6,333.5 L211.5,349.0 L212.3,349.0 L213.1,287.6 L214.0,276.2 L214.8,318.9 L215.7,351.6 L216.5,364.6 L217.4,362.0 L218.2,364.6 L219.0,364.8 L219.9,365.1 L220.7,364.8 L221.6,349.5 L222.4,292.3 L223.3,290.4 L224.1,332.9 L224.9,332.7 L225.8,348.5 L226.6,361.2 L227.5,359.1 L228.3,364.6 L229.2,364.6 L230.0,364.3 L230.8,364.0 L231.7,364.0 L232.5,363.5 L233.4,364.0 L234.2,334.0 L235.1,333.7 L235.9,333.7 L236.7,365.3 L237.6,364.8 L238.4,365.6 L239.3,364.6 L240.1,364.3 L241.0,343.3 L241.8,343.3 L242.6,344.1 L243.5,344.1 L244.3,328.5 L245.2,328.8 L246.0,328.5 L246.9,330.1 L247.7,319.7 L248.5,349.5 L249.4,364.8 L250.2,364.8 L251.1,364.6 L251.9,364.6 L252.8,349.8 L253.6,334.2 L254.4,314.3 L255.3,282.2 L256.1,331.1 L257.0,345.4 L257.8,365.1 L258.7,364.8 L259.5,364.6 L260.3,364.6 L261.2,364.6 L262.0,364.8 L262.9,344.1 L263.7,331.4 L264.6,338.6 L265.4,343.8 L266.2,344.3 L267.1,343.8 L267.9,344.3 L268.8,343.8 L269.6,354.7 L270.4,333.2 L271.3,343.3 L272.1,333.5 L273.0,317.7 L273.8,295.9 L274.7,303.1 L275.5,336.8 L276.3,343.6 L277.2,356.3 L278.0,364.3 L278.9,364.8 L279.7,375.4 L280.6,375.4 L281.4,375.7 L282.2,364.8 L283.1,351.1 L283.9,309.1 L284.8,311.4 L285.6,317.1 L286.5,316.4 L287.3,295.1 L288.1,306.5 L289.0,319.2 L289.8,326.5 L290.7,338.9 L291.5,338.6 L292.4,344.1 L293.2,355.5 L294.0,333.2 L294.9,310.9 L295.7,320.2 L296.6,321.5 L297.4,352.6 L298.3,351.9 L299.1,352.1 L299.9,352.1 L300.8,344.6 L301.6,344.1 L302.5,319.5 L303.3,262.2 L304.2,259.1 L305.0,255.2 L305.8,253.9 L306.7,244.3 L307.5,244.1 L308.4,248.7 L309.2,243.8 L310.1,244.1 L310.9,243.8 L311.7,244.3 L312.6,244.1 L313.4,244.1 L314.3,244.3 L315.1,248.0 L316.0,290.2 L316.8,293.8 L317.6,267.4 L318.5,282.7 L319.3,293.6 L320.2,281.1 L321.0,287.9 L321.9,296.4 L322.7,256.2 L323.5,253.9 L324.4,253.7 L325.2,256.5 L326.1,256.2 L326.9,258.1 L327.8,258.3 L328.6,255.0 L329.4,257.5 L330.3,266.6 L331.1,260.4 L332.0,260.1 L332.8,258.6 L333.7,263.0 L334.5,264.8 L335.3,265.6 L336.2,268.9 L337.0,291.0 L337.9,295.1 L338.7,262.2 L339.6,295.6 L340.4,298.7 L341.2,297.2 L342.1,298.2 L342.9,256.2 L343.8,256.2 L344.6,258.6 L345.4,256.5 L346.3,255.7 L347.1,256.0 L348.0,257.3 L348.8,267.6 L349.7,284.5 L350.5,294.3 L351.3,271.0 L352.2,273.1 L353.0,269.5 L353.9,280.9 L354.7,274.4 L355.6,275.9 L356.4,278.8 L357.2,279.0 L358.1,275.7 L358.9,274.9 L359.8,321.5 L360.6,324.1 L361.5,323.4 L362.3,323.4 L363.1,283.2 L364.0,283.2 L364.8,283.2 L365.7,280.9 L366.5,282.2 L367.4,279.8 L368.2,282.4 L369.0,279.8 L369.9,279.6 L370.7,322.1 L371.6,304.7 L372.4,299.3 L373.3,263.0 L374.1,262.7 L374.9,262.7 L375.8,263.8 L376.6,261.4 L377.5,260.9 L378.3,278.0 L379.2,261.4 L380.0,277.2 L380.8,265.6 L381.7,270.8 L382.5,260.4 L383.4,256.8 L384.2,257.5 L385.1,254.4 L385.9,254.7 L386.7,259.4 L387.6,254.4 L388.4,256.8 L389.3,254.2 L390.1,257.0 L391.0,298.0 L391.8,290.4 L392.6,293.0 L393.5,291.7 L394.3,288.4 L395.2,260.1 L396.0,260.1 L396.9,256.8 L397.7,264.0 L398.5,261.9 L399.4,259.1 L400.2,260.4 L401.1,264.5 L401.9,261.2 L402.8,272.8 L403.6,259.9 L404.4,256.8 L405.3,256.8 L406.1,254.4 L407.0,267.1 L407.8,280.9 L408.7,271.5 L409.5,265.3 L410.3,286.0 L411.2,298.0 L412.0,298.5 L412.9,298.7 L413.7,299.0 L414.6,298.5 L415.4,299.3 L416.2,299.0 L417.1,299.3 L417.9,296.9 L418.8,296.4 L419.6,299.0 L420.4,296.9 L421.3,296.7 L422.1,298.7 L423.0,297.2 L423.8,296.4 L424.7,299.3 L425.5,299.0 L426.3,298.5 L427.2,300.0 L428.0,299.3 L428.9,298.7 L429.7,301.1 L430.6,299.3 L431.4,299.5 L432.2,299.3 L433.1,299.5 L433.9,299.3 L434.8,298.7 L435.6,298.5 L436.5,299.3 L437.3,299.3 L438.1,299.8 L439.0,298.7 L439.8,299.0 L440.7,299.0 L441.5,299.0 L442.4,299.3 L443.2,298.5 L444.0,299.0 L444.9,299.0 L445.7,298.5 L446.6,299.0 L447.4,299.0 L448.3,299.3 L449.1,299.3 L449.9,298.7 L450.8,299.3 L451.6,299.0 L452.5,299.8 L453.3,298.7 L454.2,299.3 L455.0,299.5 L455.8,299.3 L456.7,299.8 L457.5,299.8 L458.4,299.8 L459.2,300.6 L460.1,300.8 L460.9,300.6 L461.7,301.1 L462.6,300.8 L463.4,301.6 L464.3,301.1 L465.1,301.1 L466.0,301.3 L466.8,301.8 L467.6,301.1 L468.5,301.3 L469.3,300.0 L470.2,299.5 L471.0,299.8 L471.9,299.3 L472.7,299.5 L473.5,300.3 L474.4,299.8 L475.2,299.3 L476.1,299.3 L476.9,299.8 L477.8,300.6 L478.6,300.3 L479.4,298.0 L480.3,296.7 L481.1,295.9 L482.0,309.9 L482.8,305.2 L483.7,303.9 L484.5,300.6 L485.3,289.7 L486.2,289.2 L487.0,289.4 L487.9,288.9 L488.7,290.2 L489.6,290.4 L490.4,291.2 L491.2,289.7 L492.1,290.4 L492.9,290.7 L493.8,290.7 L494.6,291.2 L495.4,290.4 L496.3,291.7 L497.1,292.8 L498.0,292.3 L498.8,292.3 L499.7,291.0 L500.5,291.0 L501.3,290.7 L502.2,290.2 L503.0,290.4 L503.9,289.9 L504.7,290.2 L505.6,289.9 L506.4,290.4 L507.2,290.7 L508.1,290.4 L508.9,290.2 L509.8,289.7 L510.6,289.4 L511.5,288.1 L512.3,255.7 L513.1,256.0 L514.0,258.1 L514.8,250.3 L515.7,253.7 L516.5,248.5 L517.4,250.0 L518.2,289.4 L519.0,289.2 L519.9,284.5 L520.7,288.1 L521.6,287.9 L522.4,303.9 L523.3,300.3 L524.1,298.2 L524.9,287.1 L525.8,245.1 L526.6,244.8 L527.5,244.6 L528.3,245.1 L529.2,247.4 L530.0,249.5 L530.8,244.3 L531.7,256.8 L532.5,263.2 L533.4,280.6 L534.2,286.3 L535.1,254.2 L535.9,254.2 L536.7,254.2 L537.6,255.0 L538.4,271.0 L539.3,275.9 L540.1,282.9 L541.0,282.4 L541.8,282.7 L542.6,282.4 L543.5,283.7 L544.3,280.9 L545.2,282.2 L546.0,257.5 L546.9,283.7 L547.7,285.8 L548.5,286.6 L549.4,286.8 L550.2,301.1 L551.1,301.3 L551.9,327.2 L552.8,332.4 L553.6,348.7 L554.4,348.7 L555.3,348.5 L556.1,348.0 L557.0,342.8 L557.8,299.8 L558.7,304.4 L559.5,364.6 L560.3,363.8 L561.2,359.9 L562.0,359.6 L562.9,361.7 L563.7,361.4 L564.6,359.6 L565.4,330.4 L566.2,282.4 L567.1,314.3 L567.9,307.5 L568.8,307.3 L569.6,307.0 L570.4,309.1 L571.3,287.6 L572.1,290.7 L573.0,309.9 L573.8,309.9 L574.7,297.4 L575.5,297.4 L576.3,288.1 L577.2,288.9 L578.0,281.4 L578.9,300.8 L579.7,320.0 L580.6,296.1 L581.4,322.6 L582.2,327.8 L583.1,342.5 L583.9,353.7 L584.8,350.8 L585.6,319.2 L586.5,308.8 L587.3,309.1 L588.1,293.8 L589.0,293.6 L589.8,292.8 L590.7,303.7 L591.5,303.4 L592.4,321.3 L593.2,371.5 L594.0,371.8 L594.9,371.5 L595.7,371.8 L596.6,350.3 L597.4,326.7 L598.3,310.4 L599.1,309.6 L599.9,335.8 L600.8,351.1 L601.6,342.5 L602.5,343.0 L603.3,349.0 L604.2,341.8 L605.0,339.2 L605.8,324.9 L606.7,264.8 L607.5,255.0 L608.4,251.3 L609.2,258.3 L610.1,256.5 L610.9,253.4 L611.7,267.6 L612.6,253.1 L613.4,253.9 L614.3,281.9 L615.1,300.6 L616.0,287.9 L616.8,271.5 L617.6,267.1 L618.5,267.6 L619.3,303.1 L620.2,301.8 L621.0,303.4 L621.9,301.6 L622.7,304.4 L623.5,337.3 L624.4,335.0 L625.2,332.9 L626.1,306.3 L626.9,256.2 L627.8,259.6 L628.6,257.5 L629.4,253.7 L630.3,253.9 L631.1,255.0 L632.0,254.2 L632.8,253.7 L633.7,253.7 L634.5,253.1 L635.3,253.7 L636.2,263.5 L637.0,257.3 L637.9,258.6 L638.7,258.8 L639.6,303.7 L640.4,295.4 L641.2,294.6 L642.1,292.3 L642.9,314.3 L643.8,322.8 L644.6,322.3 L645.4,332.9 L646.3,298.0 L647.1,256.8 L648.0,255.2 L648.8,269.5 L649.7,254.4 L650.5,254.4 L651.3,260.7 L652.2,297.4 L653.0,296.4 L653.9,302.1 L654.7,301.6 L655.6,326.7 L656.4,326.5 L657.2,316.4 L658.1,261.9 L658.9,261.7 L659.8,296.9 L660.6,323.9 L661.5,329.8 L662.3,336.6 L663.1,345.6 L664.0,345.6 L664.8,345.1 L665.7,315.6 L666.5,304.7 L667.4,286.0 L668.2,276.7 L669.0,277.0 L669.9,269.7 L670.7,269.2 L671.6,269.2 L672.4,269.5 L673.3,272.1 L674.1,268.7 L674.9,269.5 L675.8,268.9 L676.6,268.4 L677.5,271.8 L678.3,274.6 L679.2,271.5 L680.0,275.9" stroke="#2ca02c" stroke-width="2" fill="none" opacity="0.8"/>
<!-- Solar Generation -->
<path d="M80.0,419.7 L80.8,420.0 L81.7,420.0 L82.5,420.0 L83.4,420.0 L84.2,420.0 L85.1,420.0 L85.9,420.0 L86.7,420.0 L87.6,420.0 L88.4,420.0 L89.3,420.0 L90.1,420.0 L91.0,420.0 L91.8,420.0 L92.6,420.0 L93.5,419.0 L94.3,416.1 L95.2,412.0 L96.0,402.4 L96.9,404.2 L97.7,405.2 L98.5,403.7 L99.4,407.0 L100.2,419.5 L101.1,420.0 L101.9,420.0 L102.8,420.0 L103.6,420.0 L104.4,420.0 L105.3,420.0 L106.1,420.0 L107.0,420.0 L107.8,420.0 L108.7,420.0 L109.5,420.0 L110.3,420.0 L111.2,420.0 L112.0,420.0 L112.9,420.0 L113.7,417.1 L114.6,407.0 L115.4,409.9 L116.2,405.5 L117.1,408.1 L117.9,405.2 L118.8,415.3 L119.6,416.1 L120.4,419.7 L121.3,420.0 L122.1,420.0 L123.0,420.0 L123.8,420.0 L124.7,420.0 L125.5,420.0 L126.3,420.0 L127.2,420.0 L128.0,420.0 L128.9,420.0 L129.7,420.0 L130.6,420.0 L131.4,420.0 L132.2,420.0 L133.1,420.0 L133.9,417.4 L134.8,410.4 L135.6,407.8 L136.5,399.3 L137.3,401.1 L138.1,404.5 L139.0,406.5 L139.8,412.5 L140.7,419.5 L141.5,420.0 L142.4,420.0 L143.2,420.0 L144.0,420.0 L144.9,420.0 L145.7,420.0 L146.6,420.0 L147.4,420.0 L148.3,420.0 L149.1,420.0 L149.9,420.0 L150.8,420.0 L151.6,420.0 L152.5,420.0 L153.3,420.0 L154.2,414.8 L155.0,412.2 L155.8,416.1 L156.7,410.2 L157.5,412.5 L158.4,413.0 L159.2,410.9 L160.1,416.4 L160.9,419.5 L161.7,420.0 L162.6,420.0 L163.4,420.0 L164.3,420.0 L165.1,420.0 L166.0,420.0 L166.8,420.0 L167.6,420.0 L168.5,420.0 L169.3,420.0 L170.2,420.0 L171.0,420.0 L171.9,420.0 L172.7,420.0 L173.5,420.0 L174.4,419.0 L175.2,416.9 L176.1,408.6 L176.9,407.6 L177.8,401.1 L178.6,403.9 L179.4,416.4 L180.3,417.4 L181.1,419.2 L182.0,420.0 L182.8,420.0 L183.7,420.0 L184.5,420.0 L185.3,420.0 L186.2,420.0 L187.0,420.0 L187.9,420.0 L188.7,420.0 L189.6,420.0 L190.4,420.0 L191.2,420.0 L192.1,420.0 L192.9,420.0 L193.8,420.0 L194.6,418.4 L195.4,417.9 L196.3,416.1 L197.1,412.7 L198.0,408.9 L198.8,406.5 L199.7,406.3 L200.5,415.9 L201.3,419.2 L202.2,420.0 L203.0,420.0 L203.9,420.0 L204.7,420.0 L205.6,420.0 L206.4,420.0 L207.2,420.0 L208.1,420.0 L208.9,420.0 L209.8,420.0 L210.6,420.0 L211.5,420.0 L212.3,420.0 L213.1,420.0 L214.0,420.0 L214.8,414.6 L215.7,397.2 L216.5,397.5 L217.4,400.3 L218.2,401.1 L219.0,398.2 L219.9,395.6 L220.7,403.4 L221.6,418.2 L222.4,420.0 L223.3,420.0 L224.1,420.0 L224.9,420.0 L225.8,420.0 L226.6,420.0 L227.5,420.0 L228.3,420.0 L229.2,420.0 L230.0,420.0 L230.8,420.0 L231.7,420.0 L232.5,420.0 L233.4,420.0 L234.2,420.0 L235.1,413.8 L235.9,396.7 L236.7,396.9 L237.6,400.3 L238.4,401.6 L239.3,400.6 L240.1,410.4 L241.0,415.1 L241.8,419.2 L242.6,420.0 L243.5,420.0 L244.3,420.0 L245.2,420.0 L246.0,420.0 L246.9,420.0 L247.7,420.0 L248.5,420.0 L249.4,420.0 L250.2,420.0 L251.1,420.0 L251.9,420.0 L252.8,420.0 L253.6,420.0 L254.4,420.0 L255.3,417.7 L256.1,405.2 L257.0,403.9 L257.8,403.4 L258.7,403.9 L259.5,403.9 L260.3,410.2 L261.2,407.0 L262.0,418.7 L262.9,420.0 L263.7,420.0 L264.6,420.0 L265.4,420.0 L266.2,420.0 L267.1,420.0 L267.9,420.0 L268.8,420.0 L269.6,420.0 L270.4,420.0 L271.3,420.0 L272.1,420.0 L273.0,420.0 L273.8,420.0 L274.7,420.0 L275.5,415.6 L276.3,395.9 L277.2,396.4 L278.0,399.5 L278.9,400.3 L279.7,397.5 L280.6,395.9 L281.4,416.1 L282.2,417.9 L283.1,420.0 L283.9,420.0 L284.8,420.0 L285.6,420.0 L286.5,420.0 L287.3,420.0 L288.1,420.0 L289.0,420.0 L289.8,420.0 L290.7,420.0 L291.5,420.0 L292.4,420.0 L293.2,420.0 L294.0,420.0 L294.9,420.0 L295.7,416.4 L296.6,406.0 L297.4,405.0 L298.3,401.6 L299.1,405.7 L299.9,396.9 L300.8,396.7 L301.6,406.8 L302.5,417.7 L303.3,420.0 L304.2,420.0 L305.0,420.0 L305.8,420.0 L306.7,420.0 L307.5,420.0 L308.4,420.0 L309.2,420.0 L310.1,420.0 L310.9,420.0 L311.7,420.0 L312.6,420.0 L313.4,420.0 L314.3,420.0 L315.1,420.0 L316.0,412.2 L316.8,395.1 L317.6,395.4 L318.5,398.8 L319.3,399.3 L320.2,398.8 L321.0,401.9 L321.9,404.7 L322.7,417.7 L323.5,420.0 L324.4,420.0 L325.2,420.0 L326.1,420.0 L326.9,420.0 L327.8,420.0 L328.6,420.0 L329.4,420.0 L330.3,420.0 L331.1,420.0 L332.0,420.0 L332.8,420.0 L333.7,420.0 L334.5,420.0 L335.3,420.0 L336.2,419.0 L337.0,416.9 L337.9,414.6 L338.7,406.0 L339.6,401.1 L340.4,398.2 L341.2,394.1 L342.1,400.8 L342.9,417.4 L343.8,420.0 L344.6,420.0 L345.4,420.0 L346.3,420.0 L347.1,420.0 L348.0,420.0 L348.8,420.0 L349.7,420.0 L350.5,420.0 L351.3,420.0 L352.2,420.0 L353.0,420.0 L353.9,420.0 L354.7,420.0 L355.6,420.0 L356.4,415.6 L357.2,404.7 L358.1,402.6 L358.9,402.9 L359.8,401.3 L360.6,399.3 L361.5,397.5 L362.3,404.7 L363.1,418.7 L364.0,420.0 L364.8,420.0 L365.7,420.0 L366.5,420.0 L367.4,420.0 L368.2,420.0 L369.0,420.0 L369.9,420.0 L370.7,420.0 L371.6,420.0 L372.4,420.0 L373.3,420.0 L374.1,420.0 L374.9,420.0 L375.8,420.0 L376.6,416.1 L377.5,411.2 L378.3,403.4 L379.2,400.6 L380.0,403.7 L380.8,400.8 L381.7,398.0 L382.5,406.8 L383.4,417.4 L384.2,420.0 L385.1,420.0 L385.9,420.0 L386.7,420.0 L387.6,420.0 L388.4,420.0 L389.3,420.0 L390.1,420.0 L391.0,420.0 L391.8,420.0 L392.6,420.0 L393.5,420.0 L394.3,420.0 L395.2,420.0 L396.0,420.0 L396.9,418.4 L397.7,416.4 L398.5,413.5 L399.4,412.0 L400.2,410.9 L401.1,410.2 L401.9,410.7 L402.8,413.0 L403.6,419.0 L404.4,420.0 L405.3,420.0 L406.1,420.0 L407.0,420.0 L407.8,420.0 L408.7,420.0 L409.5,420.0 L410.3,420.0 L411.2,420.0 L412.0,420.0 L412.9,420.0 L413.7,420.0 L414.6,420.0 L415.4,420.0 L416.2,420.0 L417.1,417.7 L417.9,411.2 L418.8,397.7 L419.6,398.8 L420.4,401.6 L421.3,399.3 L422.1,401.9 L423.0,404.7 L423.8,416.4 L424.7,420.0 L425.5,420.0 L426.3,420.0 L427.2,420.0 L428.0,420.0 L428.9,420.0 L429.7,420.0 L430.6,420.0 L431.4,420.0 L432.2,420.0 L433.1,420.0 L433.9,420.0 L434.8,420.0 L435.6,420.0 L436.5,420.0 L437.3,413.8 L438.1,401.6 L439.0,400.8 L439.8,402.1 L440.7,402.6 L441.5,400.8 L442.4,413.0 L443.2,401.9 L444.0,415.6 L444.9,420.0 L445.7,420.0 L446.6,420.0 L447.4,420.0 L448.3,420.0 L449.1,420.0 L449.9,420.0 L450.8,420.0 L451.6,420.0 L452.5,420.0 L453.3,420.0 L454.2,420.0 L455.0,420.0 L455.8,420.0 L456.7,420.0 L457.5,413.3 L458.4,408.6 L459.2,404.5 L460.1,403.2 L460.9,400.0 L461.7,410.4 L462.6,413.8 L463.4,414.0 L464.3,418.7 L465.1,420.0 L466.0,420.0 L466.8,420.0 L467.6,420.0 L468.5,420.0 L469.3,420.0 L470.2,420.0 L471.0,420.0 L471.9,420.0 L472.7,420.0 L473.5,420.0 L474.4,420.0 L475.2,420.0 L476.1,420.0 L476.9,420.0 L477.8,414.3 L478.6,404.2 L479.4,399.3 L480.3,396.2 L481.1,400.3 L482.0,397.7 L482.8,399.8 L483.7,403.7 L484.5,417.7 L485.3,420.0 L486.2,420.0 L487.0,420.0 L487.9,420.0 L488.7,420.0 L489.6,420.0 L490.4,420.0 L491.2,420.0 L492.1,420.0 L492.9,420.0 L493.8,420.0 L494.6,420.0 L495.4,420.0 L496.3,420.0 L497.1,420.0 L498.0,418.7 L498.8,416.6 L499.7,414.3 L500.5,409.9 L501.3,407.0 L502.2,411.2 L503.0,414.6 L503.9,416.1 L504.7,416.4 L505.6,420.0 L506.4,420.0 L507.2,420.0 L508.1,420.0 L508.9,420.0 L509.8,420.0 L510.6,420.0 L511.5,420.0 L512.3,420.0 L513.1,420.0 L514.0,420.0 L514.8,420.0 L515.7,420.0 L516.5,420.0 L517.4,420.0 L518.2,413.0 L519.0,406.3 L519.9,406.0 L520.7,406.8 L521.6,409.4 L522.4,406.3 L523.3,401.9 L524.1,416.1 L524.9,418.7 L525.8,420.0 L526.6,420.0 L527.5,420.0 L528.3,420.0 L529.2,420.0 L530.0,420.0 L530.8,420.0 L531.7,420.0 L532.5,420.0 L533.4,420.0 L534.2,420.0 L535.1,420.0 L535.9,420.0 L536.7,420.0 L537.6,420.0 L538.4,416.6 L539.3,412.0 L540.1,410.7 L541.0,408.1 L541.8,402.1 L542.6,406.0 L543.5,411.7 L544.3,415.3 L545.2,418.7 L546.0,420.0 L546.9,420.0 L547.7,420.0 L548.5,420.0 L549.4,420.0 L550.2,420.0 L551.1,420.0 L551.9,420.0 L552.8,420.0 L553.6,420.0 L554.4,420.0 L555.3,420.0 L556.1,420.0 L557.0,420.0 L557.8,420.0 L558.7,411.7 L559.5,399.5 L560.3,396.9 L561.2,400.0 L562.0,399.3 L562.9,401.3 L563.7,400.8 L564.6,407.3 L565.4,417.7 L566.2,420.0 L567.1,420.0 L567.9,420.0 L568.8,420.0 L569.6,420.0 L570.4,420.0 L571.3,420.0 L572.1,420.0 L573.0,420.0 L573.8,420.0 L574.7,420.0 L575.5,420.0 L576.3,420.0 L577.2,420.0 L578.0,420.0 L578.9,416.9 L579.7,402.9 L580.6,405.0 L581.4,403.2 L582.2,401.6 L583.1,401.6 L583.9,407.8 L584.8,410.7 L585.6,416.6 L586.5,420.0 L587.3,420.0 L588.1,420.0 L589.0,420.0 L589.8,420.0 L590.7,420.0 L591.5,420.0 L592.4,420.0 L593.2,420.0 L594.0,420.0 L594.9,420.0 L595.7,420.0 L596.6,420.0 L597.4,420.0 L598.3,419.7 L599.1,411.4 L599.9,400.3 L600.8,393.3 L601.6,396.9 L602.5,400.6 L603.3,402.4 L604.2,406.5 L605.0,401.9 L605.8,417.4 L606.7,420.0 L607.5,420.0 L608.4,420.0 L609.2,420.0 L610.1,420.0 L610.9,420.0 L611.7,420.0 L612.6,420.0 L613.4,420.0 L614.3,420.0 L615.1,420.0 L616.0,420.0 L616.8,420.0 L617.6,420.0 L618.5,420.0 L619.3,414.8 L620.2,406.8 L621.0,405.2 L621.9,397.7 L622.7,401.3 L623.5,394.1 L624.4,391.8 L625.2,397.7 L626.1,416.6 L626.9,420.0 L627.8,420.0 L628.6,420.0 L629.4,420.0 L630.3,420.0 L631.1,420.0 L632.0,420.0 L632.8,420.0 L633.7,420.0 L634.5,420.0 L635.3,420.0 L636.2,420.0 L637.0,420.0 L637.9,420.0 L638.7,419.7 L639.6,414.3 L640.4,401.9 L641.2,390.2 L642.1,405.0 L642.9,396.9 L643.8,406.0 L644.6,392.3 L645.4,397.2 L646.3,412.7 L647.1,420.0 L648.0,420.0 L648.8,420.0 L649.7,420.0 L650.5,420.0 L651.3,420.0 L652.2,420.0 L653.0,420.0 L653.9,420.0 L654.7,420.0 L655.6,420.0 L656.4,420.0 L657.2,420.0 L658.1,420.0 L658.9,420.0 L659.8,409.6 L660.6,392.3 L661.5,393.3 L662.3,395.6 L663.1,396.4 L664.0,394.9 L664.8,392.8 L665.7,395.1 L666.5,411.7 L667.4,420.0 L668.2,420.0 L669.0,420.0 L669.9,420.0 L670.7,420.0 L671.6,420.0 L672.4,420.0 L673.3,420.0 L674.1,420.0 L674.9,420.0 L675.8,420.0 L676.6,420.0 L677.5,420.0 L678.3,420.0 L679.2,419.7 L680.0,405.2" stroke="#d62728" stroke-width="2" fill="none" opacity="0.8"/>
<!-- Forecast -->
<path d="M80.0,186.5 L80.8,172.6 L81.7,167.6 L82.5,171.3 L83.4,179.8 L84.2,193.0 L85.1,212.5 L85.9,216.9 L86.7,243.0 L87.6,249.5 L88.4,252.9 L89.3,254.2 L90.1,251.6 L91.0,239.7 L91.8,215.0 L92.6,187.6 L93.5,174.6 L94.3,174.9 L95.2,178.3 L96.0,181.4 L96.9,186.0 L97.7,189.7 L98.5,191.5 L99.4,190.7 L100.2,183.7 L101.1,169.2 L101.9,164.5 L102.8,167.4 L103.6,177.0 L104.4,190.2 L105.3,210.4 L106.1,234.0 L107.0,243.3 L107.8,249.5 L108.7,253.9 L109.5,255.2 L110.3,252.6 L111.2,241.0 L112.0,216.3 L112.9,188.6 L113.7,175.9 L114.6,175.9 L115.4,179.0 L116.2,181.9 L117.1,187.3 L117.9,190.7 L118.8,192.5 L119.6,192.5 L120.4,186.5 L121.3,173.6 L122.1,168.9 L123.0,173.6 L123.8,182.9 L124.7,197.9 L125.5,216.3 L126.3,239.7 L127.2,248.7 L128.0,254.7 L128.9,259.6 L129.7,262.5 L130.6,263.5 L131.4,260.1 L132.2,246.1 L133.1,229.3 L133.9,214.5 L134.8,207.3 L135.6,203.6 L136.5,205.2 L137.3,207.5 L138.1,213.8 L139.0,215.6 L139.8,214.3 L140.7,209.3 L141.5,198.2 L142.4,193.3 L143.2,194.1 L144.0,200.3 L144.9,211.2 L145.7,226.2 L146.6,240.7 L147.4,250.5 L148.3,256.2 L149.1,259.9 L149.9,260.1 L150.8,258.6 L151.6,254.4 L152.5,245.9 L153.3,234.2 L154.2,222.6 L155.0,212.2 L155.8,203.4 L156.7,198.2 L157.5,203.9 L158.4,209.1 L159.2,214.0 L160.1,211.9 L160.9,208.8 L161.7,192.8 L162.6,187.1 L163.4,190.7 L164.3,199.2 L165.1,209.6 L166.0,223.9 L166.8,240.4 L167.6,249.8 L168.5,256.0 L169.3,260.4 L170.2,262.2 L171.0,260.1 L171.9,248.2 L172.7,223.9 L173.5,197.9 L174.4,183.4 L175.2,181.6 L176.1,183.2 L176.9,186.3 L177.8,189.9 L178.6,193.3 L179.4,196.4 L180.3,197.4 L181.1,192.2 L182.0,181.4 L182.8,176.4 L183.7,178.3 L184.5,191.0 L185.3,198.7 L186.2,221.8 L187.0,227.7 L187.9,252.1 L188.7,259.6 L189.6,264.3 L190.4,265.8 L191.2,264.5 L192.1,252.9 L192.9,226.2 L193.8,200.5 L194.6,186.8 L195.4,184.2 L196.3,185.3 L197.1,188.1 L198.0,191.2 L198.8,194.3 L199.7,197.4 L200.5,198.7 L201.3,193.8 L202.2,182.4 L203.0,177.2 L203.9,178.5 L204.7,190.4 L205.6,199.0 L206.4,221.0 L207.2,239.4 L208.1,251.3 L208.9,257.3 L209.8,260.7 L210.6,261.9 L211.5,259.6 L212.3,247.4 L213.1,223.3 L214.0,195.6 L214.8,182.7 L215.7,181.9 L216.5,184.0 L217.4,187.6 L218.2,191.0 L219.0,194.6 L219.9,197.7 L220.7,198.7 L221.6,193.0 L222.4,181.4 L223.3,175.9 L224.1,177.5 L224.9,188.6 L225.8,196.4 L226.6,218.9 L227.5,234.5 L228.3,249.0 L229.2,256.5 L230.0,260.4 L230.8,261.7 L231.7,259.1 L232.5,246.7 L233.4,221.8 L234.2,194.3 L235.1,180.8 L235.9,180.3 L236.7,182.9 L237.6,185.8 L238.4,189.7 L239.3,193.0 L240.1,195.6 L241.0,195.6 L241.8,189.1 L242.6,175.9 L243.5,170.2 L244.3,173.9 L245.2,182.4 L246.0,196.7 L246.9,215.0 L247.7,231.6 L248.5,244.3 L249.4,251.1 L250.2,254.7 L251.1,255.7 L251.9,252.9 L252.8,240.7 L253.6,215.6 L254.4,187.6 L255.3,175.4 L256.1,175.9 L257.0,179.6 L257.8,182.9 L258.7,188.1 L259.5,191.5 L260.3,193.5 L261.2,193.5 L262.0,186.5 L262.9,172.6 L263.7,167.4 L264.6,171.8 L265.4,179.3 L266.2,192.5 L267.1,211.7 L267.9,236.6 L268.8,242.8 L269.6,247.4 L270.4,252.4 L271.3,254.2 L272.1,253.4 L273.0,249.0 L273.8,237.3 L274.7,222.6 L275.5,208.1 L276.3,201.1 L277.2,200.0 L278.0,202.6 L278.9,205.7 L279.7,212.2 L280.6,215.3 L281.4,214.3 L282.2,209.3 L283.1,197.4 L283.9,192.2 L284.8,192.8 L285.6,199.0 L286.5,209.6 L287.3,224.1 L288.1,227.5 L289.0,248.0 L289.8,254.2 L290.7,257.8 L291.5,259.1 L292.4,258.1 L293.2,254.4 L294.0,245.1 L294.9,231.1 L295.7,218.2 L296.6,207.5 L297.4,200.5 L298.3,199.5 L299.1,203.6 L299.9,209.6 L300.8,210.9 L301.6,209.1 L302.5,203.4 L303.3,188.9 L304.2,179.8 L305.0,185.5 L305.8,193.8 L306.7,202.4 L307.5,218.2 L308.4,233.4 L309.2,243.6 L310.1,248.5 L310.9,252.1 L311.7,252.9 L312.6,249.5 L313.4,237.1 L314.3,212.5 L315.1,184.7 L316.0,173.1 L316.8,174.6 L317.6,178.5 L318.5,182.1 L319.3,187.3 L320.2,191.0 L321.0,193.3 L321.9,193.3 L322.7,187.1 L323.5,173.3 L324.4,168.2 L325.2,172.6 L326.1,181.1 L326.9,195.1 L327.8,214.0 L328.6,233.7 L329.4,244.8 L330.3,251.3 L331.1,255.0 L332.0,256.5 L332.8,253.9 L333.7,242.0 L334.5,218.2 L335.3,191.2 L336.2,178.3 L337.0,177.7 L337.9,180.8 L338.7,184.0 L339.6,188.4 L340.4,191.7 L341.2,194.3 L342.1,194.3 L342.9,188.4 L343.8,175.1 L344.6,169.7 L345.4,173.3 L346.3,182.1 L347.1,196.4 L348.0,214.8 L348.8,225.4 L349.7,242.8 L350.5,247.7 L351.3,250.3 L352.2,251.3 L353.0,248.2 L353.9,235.3 L354.7,210.1 L355.6,181.9 L356.4,168.9 L357.2,170.2 L358.1,174.4 L358.9,178.5 L359.8,183.2 L360.6,188.1 L361.5,190.4 L362.3,189.7 L363.1,182.4 L364.0,167.1 L364.8,161.9 L365.7,163.7 L366.5,172.8 L367.4,185.3 L368.2,204.7 L369.0,173.6 L369.9,172.6 L370.7,172.6 L371.6,172.6 L372.4,172.6 L373.3,172.6 L374.1,172.6 L374.9,172.6 L375.8,172.6 L376.6,172.6 L377.5,172.6 L378.3,172.6 L379.2,172.6 L380.0,172.6 L380.8,172.6 L381.7,172.6 L382.5,172.6 L383.4,172.6 L384.2,172.6 L385.1,172.6 L385.9,172.6 L386.7,172.6 L387.6,172.6 L388.4,172.6 L389.3,172.6 L390.1,220.0 L391.0,226.2 L391.8,228.8 L392.6,228.8 L393.5,225.2 L394.3,211.9 L395.2,188.6 L396.0,181.9 L396.9,180.6 L397.7,179.0 L398.5,177.7 L399.4,176.4 L400.2,175.1 L401.1,173.9 L401.9,172.3 L402.8,171.0 L403.6,169.7 L404.4,168.4 L405.3,166.9 L406.1,165.6 L407.0,165.8 L407.8,164.0 L408.7,184.2 L409.5,210.9 L410.3,214.0 L411.2,218.2 L412.0,223.3 L412.9,225.9 L413.7,227.7 L414.6,223.9 L415.4,210.9 L416.2,194.1 L417.1,180.1 L417.9,177.5 L418.8,177.0 L419.6,179.0 L420.4,183.2 L421.3,189.1 L422.1,194.3 L423.0,194.8 L423.8,185.8 L424.7,167.9 L425.5,165.0 L426.3,169.7 L427.2,177.7 L428.0,188.1 L428.9,200.3 L429.7,228.3 L430.6,230.3 L431.4,232.9 L432.2,238.4 L433.1,240.2 L433.9,238.4 L434.8,234.2 L435.6,222.8 L436.5,209.6 L437.3,196.1 L438.1,187.1 L439.0,185.8 L439.8,187.3 L440.7,189.1 L441.5,194.6 L442.4,199.8 L443.2,201.3 L444.0,191.0 L444.9,171.3 L445.7,164.3 L446.6,167.9 L447.4,177.2 L448.3,191.7 L449.1,210.1 L449.9,231.9 L450.8,239.1 L451.6,244.3 L452.5,248.2 L453.3,249.8 L454.2,246.1 L455.0,234.5 L455.8,210.9 L456.7,184.0 L457.5,171.8 L458.4,173.6 L459.2,177.7 L460.1,181.4 L460.9,186.5 L461.7,190.4 L462.6,193.0 L463.4,193.0 L464.3,187.1 L465.1,173.1 L466.0,167.6 L466.8,171.5 L467.6,180.3 L468.5,194.3 L469.3,213.5 L470.2,229.8 L471.0,243.6 L471.9,249.3 L472.7,252.9 L473.5,254.2 L474.4,251.3 L475.2,239.1 L476.1,214.3 L476.9,186.0 L477.8,174.4 L478.6,175.1 L479.4,179.0 L480.3,182.1 L481.1,187.6 L482.0,191.2 L482.8,193.5 L483.7,193.5 L484.5,187.3 L485.3,173.1 L486.2,167.1 L487.0,171.3 L487.9,179.3 L488.7,192.0 L489.6,211.2 L490.4,215.8 L491.2,242.5 L492.1,248.7 L492.9,252.6 L493.8,253.9 L494.6,251.1 L495.4,238.6 L496.3,213.2 L497.1,185.5 L498.0,173.6 L498.8,175.4 L499.7,179.3 L500.5,182.7 L501.3,188.1 L502.2,191.5 L503.0,193.8 L503.9,193.8 L504.7,187.8 L505.6,173.9 L506.4,168.4 L507.2,172.6 L508.1,181.6 L508.9,196.1 L509.8,215.0 L510.6,234.7 L511.5,245.4 L512.3,251.6 L513.1,255.2 L514.0,256.5 L514.8,253.7 L515.7,241.0 L516.5,216.3 L517.4,189.1 L518.2,176.4 L519.0,176.7 L519.9,180.3 L520.7,183.7 L521.6,188.6 L522.4,192.2 L523.3,195.1 L524.1,195.1 L524.9,188.6 L525.8,174.9 L526.6,169.4 L527.5,173.1 L528.3,182.4 L529.2,197.4 L530.0,215.8 L530.8,236.8 L531.7,247.2 L532.5,253.7 L533.4,257.3 L534.2,258.6 L535.1,255.7 L535.9,243.6 L536.7,219.2 L537.6,191.0 L538.4,178.0 L539.3,178.3 L540.1,181.4 L541.0,184.7 L541.8,189.4 L542.6,192.8 L543.5,195.9 L544.3,196.7 L545.2,190.4 L546.0,177.5 L546.9,171.8 L547.7,174.9 L548.5,185.5 L549.4,200.8 L550.2,219.2 L551.1,238.9 L551.9,252.6 L552.8,260.4 L553.6,265.3 L554.4,268.4 L555.3,271.0 L556.1,268.7 L557.0,251.8 L557.8,234.5 L558.7,220.0 L559.5,215.6 L560.3,209.9 L561.2,210.9 L562.0,213.0 L562.9,219.5 L563.7,221.8 L564.6,220.7 L565.4,216.6 L566.2,204.4 L567.1,197.2 L567.9,195.6 L568.8,201.6 L569.6,210.9 L570.4,225.4 L571.3,240.7 L572.1,249.8 L573.0,256.2 L573.8,259.9 L574.7,260.9 L575.5,259.4 L576.3,255.5 L577.2,246.7 L578.0,234.2 L578.9,222.0 L579.7,212.7 L580.6,204.4 L581.4,198.7 L582.2,201.3 L583.1,206.5 L583.9,215.8 L584.8,214.8 L585.6,213.0 L586.5,194.3 L587.3,188.9 L588.1,192.2 L589.0,201.3 L589.8,210.1 L590.7,223.9 L591.5,227.5 L592.4,249.0 L593.2,256.2 L594.0,260.1 L594.9,261.7 L595.7,259.4 L596.6,247.2 L597.4,222.8 L598.3,196.4 L599.1,182.1 L599.9,181.4 L600.8,183.7 L601.6,186.5 L602.5,190.4 L603.3,193.8 L604.2,196.9 L605.0,197.7 L605.8,192.0 L606.7,179.0 L607.5,172.8 L608.4,175.1 L609.2,184.5 L610.1,199.8 L610.9,217.4 L611.7,235.5 L612.6,246.9 L613.4,254.7 L614.3,259.1 L615.1,260.9 L616.0,258.3 L616.8,246.1 L617.6,222.0 L618.5,195.6 L619.3,181.9 L620.2,181.1 L621.0,183.7 L621.9,186.8 L622.7,190.7 L623.5,194.3 L624.4,197.4 L625.2,198.7 L626.1,193.0 L626.9,180.6 L627.8,174.1 L628.6,175.7 L629.4,185.8 L630.3,201.3 L631.1,218.4 L632.0,238.1 L632.8,247.7 L633.7,253.9 L634.5,257.5 L635.3,259.6 L636.2,256.8 L637.0,244.8 L637.9,220.7 L638.7,194.8 L639.6,181.4 L640.4,181.4 L641.2,184.2 L642.1,187.8 L642.9,191.5 L643.8,195.4 L644.6,199.2 L645.4,200.5 L646.3,195.1 L647.1,183.2 L648.0,176.7 L648.8,177.5 L649.7,188.6 L650.5,201.6 L651.3,220.2 L652.2,237.6 L653.0,249.8 L653.9,256.8 L654.7,260.7 L655.6,262.2 L656.4,259.9 L657.2,247.4 L658.1,223.1 L658.9,196.9 L659.8,183.4 L660.6,182.7 L661.5,185.3 L662.3,188.6 L663.1,191.7 L664.0,195.6 L664.8,199.5 L665.7,200.8 L666.5,195.9 L667.4,183.7 L668.2,176.4 L669.0,176.7 L669.9,187.3 L670.7,202.6 L671.6,219.5 L672.4,237.9 L673.3,250.0 L674.1,255.5 L674.9,258.3 L675.8,260.1 L676.6,257.0 L677.5,244.6 L678.3,220.7 L679.2,193.5 L680.0,187.3" stroke="#9467bd" stroke-width="2" fill="none" opacity="0.8"/>
<!-- Total Generation -->
<path d="M80.0,197.7 L80.8,186.5 L81.7,196.9 L82.5,238.6 L83.4,225.7 L84.2,245.4 L85.1,248.7 L85.9,245.6 L86.7,241.7 L87.6,287.1 L88.4,298.0 L89.3,296.7 L90.1,288.1 L91.0,282.2 L91.8,260.4 L92.6,192.0 L93.5,224.4 L94.3,218.7 L95.2,189.4 L96.0,165.8 L96.9,172.3 L97.7,179.6 L98.5,180.1 L99.4,187.8 L100.2,190.2 L101.1,172.8 L101.9,168.2 L102.8,179.8 L103.6,174.4 L104.4,183.2 L105.3,188.9 L106.1,193.3 L107.0,193.3 L107.8,203.4 L108.7,180.3 L109.5,190.7 L110.3,194.3 L111.2,180.3 L112.0,159.6 L112.9,148.2 L113.7,182.4 L114.6,119.2 L115.4,116.1 L116.2,115.0 L117.1,130.6 L117.9,133.7 L118.8,160.6 L119.6,161.2 L120.4,142.8 L121.3,96.9 L122.1,106.7 L123.0,128.2 L123.8,116.1 L124.7,131.6 L125.5,145.1 L126.3,150.3 L127.2,132.1 L128.0,113.7 L128.9,135.8 L129.7,117.1 L130.6,116.8 L131.4,106.5 L132.2,88.3 L133.1,94.0 L133.9,126.4 L134.8,139.1 L135.6,148.5 L136.5,146.4 L137.3,162.5 L138.1,163.2 L139.0,176.2 L139.8,181.9 L140.7,184.5 L141.5,147.9 L142.4,168.2 L143.2,159.9 L144.0,153.6 L144.9,178.8 L145.7,173.1 L146.6,110.1 L147.4,106.2 L148.3,185.5 L149.1,193.8 L149.9,180.3 L150.8,161.4 L151.6,150.0 L152.5,151.1 L153.3,118.9 L154.2,156.2 L155.0,162.7 L155.8,180.6 L156.7,198.2 L157.5,199.8 L158.4,210.1 L159.2,202.4 L160.1,191.0 L160.9,182.1 L161.7,88.3 L162.6,70.0 L163.4,68.7 L164.3,93.0 L165.1,70.7 L166.0,146.1 L166.8,165.6 L167.6,201.3 L168.5,204.4 L169.3,204.7 L170.2,190.2 L171.0,162.2 L171.9,148.2 L172.7,147.2 L173.5,150.5 L174.4,199.0 L175.2,178.5 L176.1,162.5 L176.9,180.6 L177.8,187.6 L178.6,206.8 L179.4,209.6 L180.3,185.5 L181.1,178.0 L182.0,142.5 L182.8,145.6 L183.7,144.8 L184.5,159.6 L185.3,195.4 L186.2,196.9 L187.0,184.0 L187.9,185.8 L188.7,185.5 L189.6,187.3 L190.4,196.4 L191.2,185.5 L192.1,181.6 L192.9,127.5 L193.8,118.7 L194.6,168.2 L195.4,166.9 L196.3,199.0 L197.1,208.1 L198.0,206.8 L198.8,204.2 L199.7,206.0 L200.5,226.4 L201.3,220.7 L202.2,165.6 L203.0,179.0 L203.9,184.5 L204.7,167.1 L205.6,170.2 L206.4,201.1 L207.2,205.5 L208.1,222.0 L208.9,218.7 L209.8,173.1 L210.6,181.6 L211.5,189.9 L212.3,182.7 L213.1,109.6 L214.0,100.3 L214.8,167.4 L215.7,182.9 L216.5,197.7 L217.4,192.0 L218.2,195.9 L219.0,195.9 L219.9,188.1 L220.7,212.7 L221.6,201.1 L222.4,150.5 L223.3,118.4 L224.1,161.4 L224.9,154.7 L225.8,172.8 L226.6,182.9 L227.5,192.5 L228.3,195.4 L229.2,192.2 L230.0,197.2 L230.8,193.8 L231.7,201.1 L232.5,192.5 L233.4,195.6 L234.2,157.0 L235.1,183.7 L235.9,166.6 L236.7,198.5 L237.6,211.9 L238.4,215.6 L239.3,226.2 L240.1,218.9 L241.0,206.8 L241.8,217.9 L242.6,216.3 L243.5,193.3 L244.3,172.8 L245.2,171.8 L246.0,168.7 L246.9,170.7 L247.7,161.7 L248.5,193.0 L249.4,211.9 L250.2,206.2 L251.1,208.3 L251.9,206.8 L252.8,192.0 L253.6,175.1 L254.4,151.1 L255.3,117.9 L256.1,161.9 L257.0,176.4 L257.8,195.6 L258.7,197.7 L259.5,208.3 L260.3,199.5 L261.2,190.2 L262.0,201.6 L262.9,183.4 L263.7,169.4 L264.6,185.5 L265.4,191.0 L266.2,195.9 L267.1,192.8 L267.9,193.0 L268.8,225.9 L269.6,220.0 L270.4,209.3 L271.3,231.1 L272.1,224.9 L273.0,198.5 L273.8,179.3 L274.7,178.3 L275.5,204.7 L276.3,165.6 L277.2,176.2 L278.0,167.6 L278.9,167.1 L279.7,174.6 L280.6,176.4 L281.4,196.9 L282.2,186.8 L283.1,175.1 L283.9,133.7 L284.8,143.0 L285.6,168.4 L286.5,171.5 L287.3,156.0 L288.1,175.7 L289.0,185.0 L289.8,193.8 L290.7,195.1 L291.5,180.6 L292.4,187.3 L293.2,192.2 L294.0,176.2 L294.9,163.7 L295.7,167.4 L296.6,181.1 L297.4,214.0 L298.3,217.1 L299.1,223.3 L299.9,220.5 L300.8,202.4 L301.6,228.0 L302.5,215.8 L303.3,142.2 L304.2,144.1 L305.0,140.2 L305.8,135.8 L306.7,140.2 L307.5,145.4 L308.4,146.1 L309.2,148.5 L310.1,146.1 L310.9,132.7 L311.7,127.5 L312.6,112.2 L313.4,92.5 L314.3,76.7 L315.1,76.4 L316.0,116.3 L316.8,105.7 L317.6,70.5 L318.5,91.7 L319.3,106.2 L320.2,88.6 L321.0,97.9 L321.9,109.3 L322.7,83.9 L323.5,79.3 L324.4,91.2 L325.2,89.1 L326.1,86.8 L326.9,83.9 L327.8,85.8 L328.6,83.4 L329.4,90.2 L330.3,100.0 L331.1,92.0 L332.0,95.3 L332.8,106.7 L333.7,113.7 L334.5,99.2 L335.3,96.4 L336.2,91.7 L337.0,112.2 L337.9,135.8 L338.7,93.0 L339.6,110.1 L340.4,116.3 L341.2,100.8 L342.1,113.0 L342.9,108.6 L343.8,106.5 L344.6,95.1 L345.4,82.6 L346.3,86.0 L347.1,85.0 L348.0,80.8 L348.8,91.7 L349.7,106.2 L350.5,123.8 L351.3,101.6 L352.2,102.9 L353.0,97.4 L353.9,117.9 L354.7,128.8 L355.6,144.1 L356.4,156.0 L357.2,145.4 L358.1,159.9 L358.9,172.3 L359.8,202.4 L360.6,191.2 L361.5,190.2 L362.3,198.7 L363.1,172.0 L364.0,168.4 L364.8,190.4 L365.7,184.5 L366.5,199.2 L367.4,183.7 L368.2,175.7 L369.0,168.7 L369.9,165.3 L370.7,196.4 L371.6,168.9 L372.4,159.9 L373.3,125.7 L374.1,129.0 L374.9,132.9 L375.8,152.9 L376.6,161.9 L377.5,160.4 L378.3,184.0 L379.2,152.3 L380.0,160.4 L380.8,141.7 L381.7,139.9 L382.5,125.9 L383.4,123.8 L384.2,130.6 L385.1,148.2 L385.9,156.0 L386.7,162.7 L387.6,165.3 L388.4,177.5 L389.3,179.6 L390.1,184.0 L391.0,230.6 L391.8,227.2 L392.6,231.6 L393.5,231.9 L394.3,230.6 L395.2,204.9 L396.0,205.5 L396.9,200.5 L397.7,206.2 L398.5,201.3 L399.4,197.7 L400.2,195.1 L401.1,194.1 L401.9,184.0 L402.8,202.1 L403.6,197.2 L404.4,200.5 L405.3,197.9 L406.1,188.4 L407.0,196.1 L407.8,201.3 L408.7,189.7 L409.5,171.8 L410.3,177.7 L411.2,164.5 L412.0,154.4 L412.9,157.0 L413.7,156.5 L414.6,156.5 L415.4,156.5 L416.2,164.3 L417.1,159.3 L417.9,151.8 L418.8,137.6 L419.6,141.5 L420.4,152.3 L421.3,139.4 L422.1,145.4 L423.0,175.7 L423.8,185.0 L424.7,196.9 L425.5,206.8 L426.3,202.9 L427.2,206.5 L428.0,195.4 L428.9,203.1 L429.7,204.4 L430.6,201.1 L431.4,203.1 L432.2,197.7 L433.1,203.4 L433.9,205.5 L434.8,210.6 L435.6,222.0 L436.5,233.4 L437.3,229.8 L438.1,213.0 L439.0,205.7 L439.8,202.4 L440.7,179.0 L441.5,166.6 L442.4,170.2 L443.2,142.8 L444.0,142.5 L444.9,140.4 L445.7,143.5 L446.6,139.4 L447.4,139.4 L448.3,142.5 L449.1,140.9 L449.9,143.3 L450.8,139.9 L451.6,135.0 L452.5,139.9 L453.3,137.6 L454.2,134.7 L455.0,133.9 L455.8,130.6 L456.7,144.3 L457.5,137.3 L458.4,153.6 L459.2,152.3 L460.1,143.3 L460.9,141.5 L461.7,150.0 L462.6,156.5 L463.4,154.4 L464.3,160.6 L465.1,130.1 L466.0,134.5 L466.8,134.2 L467.6,134.2 L468.5,141.7 L469.3,140.7 L470.2,136.8 L471.0,143.3 L471.9,139.6 L472.7,131.6 L473.5,131.1 L474.4,131.9 L475.2,126.7 L476.1,130.3 L476.9,146.9 L477.8,137.3 L478.6,132.9 L479.4,116.8 L480.3,107.3 L481.1,114.0 L482.0,125.7 L482.8,116.6 L483.7,116.3 L484.5,132.7 L485.3,130.1 L486.2,137.6 L487.0,139.6 L487.9,157.5 L488.7,146.4 L489.6,140.9 L490.4,155.5 L491.2,143.0 L492.1,140.2 L492.9,143.5 L493.8,127.7 L494.6,145.6 L495.4,138.6 L496.3,130.6 L497.1,128.8 L498.0,139.4 L498.8,139.6 L499.7,136.0 L500.5,113.0 L501.3,93.3 L502.2,103.4 L503.0,100.5 L503.9,108.3 L504.7,116.3 L505.6,118.7 L506.4,128.2 L507.2,117.4 L508.1,114.8 L508.9,106.5 L509.8,104.7 L510.6,106.0 L511.5,103.9 L512.3,74.9 L513.1,78.2 L514.0,81.4 L514.8,70.7 L515.7,77.7 L516.5,67.6 L517.4,72.0 L518.2,112.7 L519.0,105.7 L519.9,94.8 L520.7,92.0 L521.6,93.5 L522.4,116.3 L523.3,105.2 L524.1,117.6 L524.9,114.5 L525.8,67.9 L526.6,83.7 L527.5,75.4 L528.3,82.9 L529.2,86.8 L530.0,89.1 L530.8,70.2 L531.7,90.7 L532.5,101.3 L533.4,105.2 L534.2,128.0 L535.1,97.9 L535.9,99.7 L536.7,88.3 L537.6,98.5 L538.4,111.1 L539.3,121.5 L540.1,122.5 L541.0,114.5 L541.8,92.8 L542.6,96.1 L543.5,96.9 L544.3,107.8 L545.2,110.6 L546.0,80.3 L546.9,114.8 L547.7,112.4 L548.5,116.6 L549.4,110.4 L550.2,124.6 L551.1,117.9 L551.9,143.0 L552.8,153.9 L553.6,170.0 L554.4,165.8 L555.3,164.3 L556.1,162.2 L557.0,161.9 L557.8,123.1 L558.7,123.3 L559.5,176.7 L560.3,170.5 L561.2,162.5 L562.0,162.5 L562.9,174.9 L563.7,159.3 L564.6,168.4 L565.4,149.5 L566.2,107.3 L567.1,160.1 L567.9,152.6 L568.8,140.9 L569.6,146.1 L570.4,147.2 L571.3,120.7 L572.1,120.7 L573.0,149.0 L573.8,143.8 L574.7,129.8 L575.5,137.6 L576.3,136.5 L577.2,132.4 L578.0,128.8 L578.9,159.6 L579.7,172.8 L580.6,160.6 L581.4,171.0 L582.2,192.2 L583.1,199.2 L583.9,211.9 L584.8,191.0 L585.6,160.4 L586.5,157.8 L587.3,155.7 L588.1,146.6 L589.0,133.7 L589.8,116.3 L590.7,118.9 L591.5,124.1 L592.4,134.7 L593.2,186.0 L594.0,190.4 L594.9,191.2 L595.7,186.5 L596.6,164.3 L597.4,146.1 L598.3,130.3 L599.1,120.5 L599.9,135.8 L600.8,138.6 L601.6,134.7 L602.5,144.6 L603.3,146.6 L604.2,144.8 L605.0,137.8 L605.8,148.5 L606.7,110.4 L607.5,88.6 L608.4,82.6 L609.2,97.9 L610.1,109.6 L610.9,118.1 L611.7,121.0 L612.6,119.4 L613.4,112.2 L614.3,136.8 L615.1,151.6 L616.0,140.9 L616.8,131.4 L617.6,128.5 L618.5,116.8 L619.3,170.0 L620.2,155.7 L621.0,151.6 L621.9,147.7 L622.7,158.6 L623.5,187.8 L624.4,190.4 L625.2,195.6 L626.1,208.1 L626.9,168.4 L627.8,174.1 L628.6,179.6 L629.4,177.7 L630.3,174.4 L631.1,161.2 L632.0,151.3 L632.8,145.9 L633.7,122.8 L634.5,99.2 L635.3,82.4 L636.2,94.6 L637.0,87.1 L637.9,86.5 L638.7,91.7 L639.6,128.2 L640.4,103.6 L641.2,84.5 L642.1,98.7 L642.9,121.3 L643.8,136.8 L644.6,137.1 L645.4,147.2 L646.3,114.0 L647.1,87.8 L648.0,80.6 L648.8,102.9 L649.7,91.7 L650.5,86.0 L651.3,99.0 L652.2,131.6 L653.0,130.3 L653.9,139.4 L654.7,135.8 L655.6,165.0 L656.4,163.2 L657.2,148.5 L658.1,89.9 L658.9,90.4 L659.8,131.1 L660.6,137.8 L661.5,136.0 L662.3,141.7 L663.1,148.5 L664.0,171.0 L664.8,166.3 L665.7,149.5 L666.5,172.8 L667.4,181.4 L668.2,189.7 L669.0,189.7 L669.9,182.7 L670.7,182.4 L671.6,188.4 L672.4,194.8 L673.3,203.6 L674.1,196.4 L674.9,197.4 L675.8,194.8 L676.6,192.5 L677.5,194.8 L678.3,195.6 L679.2,189.7 L680.0,174.9" stroke="#8c564b" stroke-width="2" fill="none" opacity="0.8"/>
<!-- Forecast Difference -->
<path d="M80.0,420.0 L80.8,420.0 L81.7,420.0 L82.5,420.0 L83.4,420.0 L84.2,420.0 L85.1,420.0 L85.9,420.0 L86.7,420.0 L87.6,420.0 L88.4,420.0 L89.3,420.0 L90.1,420.0 L91.0,420.0 L91.8,420.0 L92.6,420.0 L93.5,420.0 L94.3,420.0 L95.2,420.0 L96.0,420.0 L96.9,420.0 L97.7,420.0 L98.5,420.0 L99.4,420.0 L100.2,420.0 L101.1,420.0 L101.9,420.0 L102.8,420.0 L103.6,420.0 L104.4,420.0 L105.3,420.0 L106.1,420.0 L107.0,420.0 L107.8,420.0 L108.7,420.0 L109.5,420.0 L110.3,420.0 L111.2,420.0 L112.0,420.0 L112.9,420.0 L113.7,420.0 L114.6,420.0 L115.4,420.0 L116.2,420.0 L117.1,420.0 L117.9,420.0 L118.8,420.0 L119.6,420.0 L120.4,420.0 L121.3,420.0 L122.1,420.0 L123.0,420.0 L123.8,420.0 L124.7,420.0 L125.5,420.0 L126.3,420.0 L127.2,420.0 L128.0,420.0 L128.9,420.0 L129.7,420.0 L130.6,420.0 L131.4,420.0 L132.2,420.0 L133.1,420.0 L133.9,420.0 L134.8,420.0 L135.6,420.0 L136.5,420.0 L137.3,420.0 L138.1,420.0 L139.0,420.0 L139.8,420.0 L140.7,420.0 L141.5,420.0 L142.4,420.0 L143.2,420.0 L144.0,420.0 L144.9,420.0 L145.7,420.0 L146.6,420.0 L147.4,420.0 L148.3,420.0 L149.1,420.0 L149.9,420.0 L150.8,420.0 L151.6,420.0 L152.5,420.0 L153.3,420.0 L154.2,420.0 L155.0,420.0 L155.8,420.0 L156.7,420.0 L157.5,420.0 L158.4,420.0 L159.2,420.0 L160.1,420.0 L160.9,420.0 L161.7,420.0 L162.6,420.0 L163.4,420.0 L164.3,420.0 L165.1,420.0 L166.0,420.0 L166.8,420.0 L167.6,420.0 L168.5,420.0 L169.3,420.0 L170.2,420.0 L171.0,420.0 L171.9,420.0 L172.7,420.0 L173.5,420.0 L174.4,420.0 L175.2,420.0 L176.1,420.0 L176.9,420.0 L177.8,420.0 L178.6,420.0 L179.4,420.0 L180.3,420.0 L181.1,420.0 L182.0,420.0 L182.8,420.0 L183.7,420.0 L184.5,420.0 L185.3,420.0 L186.2,420.0 L187.0,420.0 L187.9,420.0 L188.7,420.0 L189.6,420.0 L190.4,420.0 L191.2,420.0 L192.1,420.0 L192.9,420.0 L193.8,420.0 L194.6,420.0 L195.4,420.0 L196.3,420.0 L197.1,420.0 L198.0,420.0 L198.8,420.0 L199.7,420.0 L200.5,420.0 L201.3,420.0 L202.2,420.0 L203.0,420.0 L203.9,420.0 L204.7,420.0 L205.6,420.0 L206.4,420.0 L207.2,420.0 L208.1,420.0 L208.9,420.0 L209.8,420.0 L210.6,420.0 L211.5,420.0 L212.3,420.0 L213.1,420.0 L214.0,420.0 L214.8,420.0 L215.7,420.0 L216.5,420.0 L217.4,420.0 L218.2,420.0 L219.0,420.0 L219.9,420.0 L220.7,420.0 L221.6,420.0 L222.4,420.0 L223.3,420.0 L224.1,420.0 L224.9,420.0 L225.8,420.0 L226.6,420.0 L227.5,420.0 L228.3,420.0 L229.2,420.0 L230.0,420.0 L230.8,420.0 L231.7,420.0 L232.5,420.0 L233.4,420.0 L234.2,420.0 L235.1,420.0 L235.9,420.0 L236.7,420.0 L237.6,420.0 L238.4,420.0 L239.3,420.0 L240.1,420.0 L241.0,420.0 L241.8,420.0 L242.6,420.0 L243.5,420.0 L244.3,420.0 L245.2,420.0 L246.0,420.0 L246.9,420.0 L247.7,420.0 L248.5,420.0 L249.4,420.0 L250.2,420.0 L251.1,420.0 L251.9,420.0 L252.8,420.0 L253.6,420.0 L254.4,420.0 L255.3,420.0 L256.1,420.0 L257.0,420.0 L257.8,420.0 L258.7,420.0 L259.5,420.0 L260.3,420.0 L261.2,420.0 L262.0,420.0 L262.9,420.0 L263.7,420.0 L264.6,420.0 L265.4,420.0 L266.2,420.0 L267.1,420.0 L267.9,420.0 L268.8,420.0 L269.6,420.0 L270.4,420.0 L271.3,420.0 L272.1,420.0 L273.0,420.0 L273.8,420.0 L274.7,420.0 L275.5,420.0 L276.3,420.0 L277.2,420.0 L278.0,420.0 L278.9,420.0 L279.7,420.0 L280.6,420.0 L281.4,420.0 L282.2,420.0 L283.1,420.0 L283.9,420.0 L284.8,420.0 L285.6,420.0 L286.5,420.0 L287.3,420.0 L288.1,420.0 L289.0,420.0 L289.8,420.0 L290.7,420.0 L291.5,420.0 L292.4,420.0 L293.2,420.0 L294.0,420.0 L294.9,420.0 L295.7,420.0 L296.6,420.0 L297.4,420.0 L298.3,420.0 L299.1,420.0 L299.9,420.0 L300.8,420.0 L301.6,420.0 L302.5,420.0 L303.3,420.0 L304.2,420.0 L305.0,420.0 L305.8,420.0 L306.7,420.0 L307.5,420.0 L308.4,420.0 L309.2,420.0 L310.1,420.0 L310.9,420.0 L311.7,420.0 L312.6,420.0 L313.4,420.0 L314.3,420.0 L315.1,420.0 L316.0,420.0 L316.8,420.0 L317.6,420.0 L318.5,420.0 L319.3,420.0 L320.2,420.0 L321.0,420.0 L321.9,420.0 L322.7,420.0 L323.5,420.0 L324.4,420.0 L325.2,420.0 L326.1,420.0 L326.9,420.0 L327.8,420.0 L328.6,420.0 L329.4,420.0 L330.3,420.0 L331.1,420.0 L332.0,420.0 L332.8,420.0 L333.7,420.0 L334.5,420.0 L335.3,420.0 L336.2,420.0 L337.0,420.0 L337.9,420.0 L338.7,420.0 L339.6,420.0 L340.4,420.0 L341.2,420.0 L342.1,420.0 L342.9,420.0 L343.8,420.0 L344.6,420.0 L345.4,420.0 L346.3,420.0 L347.1,420.0 L348.0,420.0 L348.8,420.0 L349.7,420.0 L350.5,420.0 L351.3,420.0 L352.2,420.0 L353.0,420.0 L353.9,420.0 L354.7,420.0 L355.6,420.0 L356.4,420.0 L357.2,420.0 L358.1,420.0 L358.9,420.0 L359.8,420.0 L360.6,420.0 L361.5,420.0 L362.3,420.0 L363.1,420.0 L364.0,420.0 L364.8,420.0 L365.7,420.0 L366.5,420.0 L367.4,420.0 L368.2,420.0 L369.0,420.0 L369.9,420.0 L370.7,420.0 L371.6,420.0 L372.4,420.0 L373.3,420.0 L374.1,420.0 L374.9,420.0 L375.8,420.0 L376.6,420.0 L377.5,420.0 L378.3,420.0 L379.2,420.0 L380.0,420.0 L380.8,420.0 L381.7,420.0 L382.5,420.0 L383.4,420.0 L384.2,420.0 L385.1,420.0 L385.9,420.0 L386.7,420.0 L387.6,420.0 L388.4,420.0 L389.3,420.0 L390.1,420.0 L391.0,420.0 L391.8,420.0 L392.6,420.0 L393.5,420.0 L394.3,420.0 L395.2,420.0 L396.0,420.0 L396.9,420.0 L397.7,420.0 L398.5,420.0 L399.4,420.0 L400.2,420.0 L401.1,420.0 L401.9,420.0 L402.8,420.0 L403.6,420.0 L404.4,420.0 L405.3,420.0 L406.1,420.0 L407.0,420.0 L407.8,420.0 L408.7,420.0 L409.5,420.0 L410.3,420.0 L411.2,420.0 L412.0,420.0 L412.9,420.0 L413.7,420.0 L414.6,420.0 L415.4,420.0 L416.2,420.0 L417.1,420.0 L417.9,420.0 L418.8,420.0 L419.6,420.0 L420.4,420.0 L421.3,420.0 L422.1,420.0 L423.0,420.0 L423.8,420.0 L424.7,420.0 L425.5,420.0 L426.3,420.0 L427.2,420.0 L428.0,420.0 L428.9,420.0 L429.7,420.0 L430.6,420.0 L431.4,420.0 L432.2,420.0 L433.1,420.0 L433.9,420.0 L434.8,420.0 L435.6,420.0 L436.5,420.0 L437.3,420.0 L438.1,420.0 L439.0,420.0 L439.8,420.0 L440.7,420.0 L441.5,420.0 L442.4,420.0 L443.2,420.0 L444.0,420.0 L444.9,420.0 L445.7,420.0 L446.6,420.0 L447.4,420.0 L448.3,420.0 L449.1,420.0 L449.9,420.0 L450.8,420.0 L451.6,420.0 L452.5,420.0 L453.3,420.0 L454.2,420.0 L455.0,420.0 L455.8,420.0 L456.7,420.0 L457.5,420.0 L458.4,420.0 L459.2,420.0 L460.1,420.0 L460.9,420.0 L461.7,420.0 L462.6,420.0 L463.4,420.0 L464.3,420.0 L465.1,420.0 L466.0,420.0 L466.8,420.0 L467.6,420.0 L468.5,420.0 L469.3,420.0 L470.2,420.0 L471.0,420.0 L471.9,420.0 L472.7,420.0 L473.5,420.0 L474.4,420.0 L475.2,420.0 L476.1,420.0 L476.9,420.0 L477.8,420.0 L478.6,420.0 L479.4,420.0 L480.3,420.0 L481.1,420.0 L482.0,420.0 L482.8,420.0 L483.7,420.0 L484.5,420.0 L485.3,420.0 L486.2,420.0 L487.0,420.0 L487.9,420.0 L488.7,420.0 L489.6,420.0 L490.4,420.0 L491.2,420.0 L492.1,420.0 L492.9,420.0 L493.8,420.0 L494.6,420.0 L495.4,420.0 L496.3,420.0 L497.1,420.0 L498.0,420.0 L498.8,420.0 L499.7,420.0 L500.5,420.0 L501.3,420.0 L502.2,420.0 L503.0,420.0 L503.9,420.0 L504.7,420.0 L505.6,420.0 L506.4,420.0 L507.2,420.0 L508.1,420.0 L508.9,420.0 L509.8,420.0 L510.6,420.0 L511.5,420.0 L512.3,420.0 L513.1,420.0 L514.0,420.0 L514.8,420.0 L515.7,420.0 L516.5,420.0 L517.4,420.0 L518.2,420.0 L519.0,420.0 L519.9,420.0 L520.7,420.0 L521.6,420.0 L522.4,420.0 L523.3,420.0 L524.1,420.0 L524.9,420.0 L525.8,420.0 L526.6,420.0 L527.5,420.0 L528.3,420.0 L529.2,420.0 L530.0,420.0 L530.8,420.0 L531.7,420.0 L532.5,420.0 L533.4,420.0 L534.2,420.0 L535.1,420.0 L535.9,420.0 L536.7,420.0 L537.6,420.0 L538.4,420.0 L539.3,420.0 L540.1,420.0 L541.0,420.0 L541.8,420.0 L542.6,420.0 L543.5,420.0 L544.3,420.0 L545.2,420.0 L546.0,420.0 L546.9,420.0 L547.7,420.0 L548.5,420.0 L549.4,420.0 L550.2,420.0 L551.1,420.0 L551.9,420.0 L552.8,420.0 L553.6,420.0 L554.4,420.0 L555.3,420.0 L556.1,420.0 L557.0,420.0 L557.8,420.0 L558.7,420.0 L559.5,420.0 L560.3,420.0 L561.2,420.0 L562.0,420.0 L562.9,420.0 L563.7,420.0 L564.6,420.0 L565.4,420.0 L566.2,420.0 L567.1,420.0 L567.9,420.0 L568.8,420.0 L569.6,420.0 L570.4,420.0 L571.3,420.0 L572.1,420.0 L573.0,420.0 L573.8,420.0 L574.7,420.0 L575.5,420.0 L576.3,420.0 L577.2,420.0 L578.0,420.0 L578.9,420.0 L579.7,420.0 L580.6,420.0 L581.4,420.0 L582.2,420.0 L583.1,420.0 L583.9,420.0 L584.8,420.0 L585.6,420.0 L586.5,420.0 L587.3,420.0 L588.1,420.0 L589.0,420.0 L589.8,420.0 L590.7,420.0 L591.5,420.0 L592.4,420.0 L593.2,420.0 L594.0,420.0 L594.9,420.0 L595.7,420.0 L596.6,420.0 L597.4,420.0 L598.3,420.0 L599.1,420.0 L599.9,420.0 L600.8,420.0 L601.6,420.0 L602.5,420.0 L603.3,420.0 L604.2,420.0 L605.0,420.0 L605.8,420.0 L606.7,420.0 L607.5,420.0 L608.4,420.0 L609.2,420.0 L610.1,420.0 L610.9,420.0 L611.7,420.0 L612.6,420.0 L613.4,420.0 L614.3,420.0 L615.1,420.0 L616.0,420.0 L616.8,420.0 L617.6,420.0 L618.5,420.0 L619.3,420.0 L620.2,420.0 L621.0,420.0 L621.9,420.0 L622.7,420.0 L623.5,420.0 L624.4,420.0 L625.2,420.0 L626.1,420.0 L626.9,420.0 L627.8,420.0 L628.6,420.0 L629.4,420.0 L630.3,420.0 L631.1,420.0 L632.0,420.0 L632.8,420.0 L633.7,420.0 L634.5,420.0 L635.3,420.0 L636.2,420.0 L637.0,420.0 L637.9,420.0 L638.7,420.0 L639.6,420.0 L640.4,420.0 L641.2,420.0 L642.1,420.0 L642.9,420.0 L643.8,420.0 L644.6,420.0 L645.4,420.0 L646.3,420.0 L647.1,420.0 L648.0,420.0 L648.8,420.0 L649.7,420.0 L650.5,420.0 L651.3,420.0 L652.2,420.0 L653.0,420.0 L653.9,420.0 L654.7,420.0 L655.6,420.0 L656.4,420.0 L657.2,420.0 L658.1,420.0 L658.9,420.0 L659.8,420.0 L660.6,420.0 L661.5,420.0 L662.3,420.0 L663.1,420.0 L664.0,420.0 L664.8,420.0 L665.7,420.0 L666.5,420.0 L667.4,420.0 L668.2,420.0 L669.0,420.0 L669.9,420.0 L670.7,420.0 L671.6,420.0 L672.4,420.0 L673.3,420.0 L674.1,420.0 L674.9,420.0 L675.8,420.0 L676.6,420.0 L677.5,420.0 L678.3,420.0 L679.2,420.0 L680.0,420.0" stroke="#e377c2" stroke-width="2" fill="none" opacity="0.8"/>

<!-- Legend -->
<line x1="690" y1="70" x2="705" y2="70" stroke="#1f77b4" stroke-width="3"/>
<text x="710" y="74" class="legend">Wind Generation</text>
<line x1="690" y1="88" x2="705" y2="88" stroke="#ff7f0e" stroke-width="3"/>
<text x="710" y="92" class="legend">Hydro Generation</text>
<line x1="690" y1="106" x2="705" y2="106" stroke="#2ca02c" stroke-width="3"/>
<text x="710" y="110" class="legend">Thermal Generation</text>
<line x1="690" y1="124" x2="705" y2="124" stroke="#d62728" stroke-width="3"/>
<text x="710" y="128" class="legend">Solar Generation</text>
<line x1="690" y1="142" x2="705" y2="142" stroke="#9467bd" stroke-width="3"/>
<text x="710" y="146" class="legend">Forecast</text>
<line x1="690" y1="160" x2="705" y2="160" stroke="#8c564b" stroke-width="3"/>
<text x="710" y="164" class="legend">Total Generation</text>
<line x1="690" y1="178" x2="705" y2="178" stroke="#e377c2" stroke-width="3"/>
<text x="710" y="182" class="legend">Forecast Difference</text>

<!-- Date range -->
<text x="80" y="495" class="legend">Range: 01/07 - 02/06/2026 (713 records)</text>
</svg>