<?xml version="1.0" encoding="UTF-8"?>
<svg width="800" height="500" xmlns="http://www.w3.org/2000/svg">
<style>
.axis-line { stroke: #333; stroke-width: 1; }
.grid-line { stroke: #ddd; stroke-width: 0.5; }
.title { font: 16px Arial; text-anchor: middle; fill: #333; }
.axis-label { font: 12px Arial; text-anchor: middle; fill: #666; }
.legend { font: 10px Arial; fill: #333; }
</style>

<!-- Title -->
<text x="400.0" y="25" class="title">Northwestern Energy Generation Data - Past 30 Days</text>

<!-- Plot area background -->
<rect x="80" y="50" width="600" height="370" fill="white" stroke="#ddd"/>

<!-- Y-axis -->
<line x1="80" y1="50" x2="80" y2="420" class="axis-line"/>
<text x="30" y="235.0" class="axis-label" transform="rotate(-90, 30, 235.0)">Generation (MW)</text>

<!-- X-axis -->
<line x1="80" y1="420" x2="680" y2="420" class="axis-line"/>
<text x="380.0" y="480" class="axis-label">Time</text>
<line x1="80" y1="420.0" x2="680" y2="420.0" class="grid-line"/>
<text x="70" y="425.0" class="legend" text-anchor="end">0</text>
<line x1="80" y1="327.5" x2="680" y2="327.5" class="grid-line"/>
<text x="70" y="332.5" class="legend" text-anchor="end">303</text>
<line x1="80" y1="235.0" x2="680" y2="235.0" class="grid-line"/>
<text x="70" y="240.0" class="legend" text-anchor="end">606</text>
<line x1="80" y1="142.5" x2="680" y2="142.5" class="grid-line"/>
<text x="70" y="147.5" class="legend" text-anchor="end">910</text>
<line x1="80" y1="50.0" x2="680" y2="50.0" class="grid-line"/>
<text x="70" y="55.0" class="legend" text-anchor="end">1213</text>
<!-- Wind Generation -->
<path d="M80.0,411.8 L81.6,410.5 L83.2,416.3 L84.9,398.9 L86.5,403.8 L88.1,397.7 L114.8,416.3 L116.4,413.0 L118.1,409.9 L119.7,405.1 L121.3,401.1 L122.9,369.0 L124.5,373.6 L126.2,372.1 L127.8,381.9 L129.4,403.2 L131.0,406.0 L132.7,407.5 L134.3,417.6 L135.9,409.9 L137.5,403.2 L139.2,398.9 L140.8,400.5 L142.4,413.9 L144.0,419.4 L145.7,420.0 L147.3,418.2 L148.9,416.3 L150.5,417.6 L152.2,415.1 L153.8,407.8 L155.4,412.4 L157.0,377.3 L158.7,394.7 L160.3,410.5 L161.9,378.2 L163.5,406.6 L165.2,385.2 L166.8,389.8 L168.4,386.4 L170.0,399.9 L171.7,412.1 L173.3,393.8 L174.9,383.4 L176.5,381.9 L178.2,387.1 L179.8,408.4 L181.4,415.4 L183.0,416.6 L184.7,412.4 L186.3,409.9 L187.9,411.8 L189.5,413.3 L191.2,414.8 L192.8,411.5 L194.4,407.5 L196.0,398.0 L197.7,390.7 L199.3,382.5 L200.9,370.0 L202.5,373.3 L204.2,378.2 L205.8,378.5 L207.4,384.9 L209.0,393.2 L210.7,393.2 L212.3,373.9 L213.9,390.4 L215.5,402.3 L217.2,403.2 L218.8,399.6 L220.4,400.8 L222.0,404.4 L223.7,401.4 L225.3,406.0 L226.9,410.2 L228.5,408.4 L230.2,407.8 L231.8,408.1 L233.4,402.9 L235.0,394.4 L236.7,391.3 L238.3,381.9 L239.9,373.3 L241.5,379.4 L243.2,373.6 L244.8,374.2 L246.4,372.7 L248.0,391.0 L249.7,408.4 L251.3,414.2 L252.9,417.9 L254.5,420.0 L256.2,420.0 L257.8,420.0 L259.4,420.0 L261.0,419.7 L262.7,416.3 L264.3,415.1 L265.9,415.4 L267.5,415.1 L269.2,415.4 L270.8,414.8 L272.4,409.9 L274.0,401.1 L275.7,387.1 L277.3,378.5 L278.9,351.7 L280.5,345.9 L282.2,352.3 L283.8,342.5 L285.4,351.0 L287.0,381.6 L288.7,384.9 L290.3,394.7 L291.9,410.2 L293.5,416.0 L295.2,417.9 L296.8,420.0 L298.4,420.0 L300.0,420.0 L301.7,415.7 L303.3,409.9 L304.9,412.4 L306.5,413.0 L308.2,414.5 L309.8,416.9 L311.4,414.5 L313.0,413.0 L314.7,401.7 L316.3,387.1 L317.9,375.8 L319.5,355.6 L321.2,362.9 L322.8,386.1 L324.4,408.1 L326.0,416.3 L327.7,418.8 L329.3,420.0 L330.9,420.0 L332.5,419.7 L334.2,419.7 L335.8,420.0 L337.4,420.0 L339.0,420.0 L340.7,416.0 L342.3,412.7 L343.9,415.1 L345.5,417.9 L347.2,416.0 L348.8,416.0 L350.4,412.1 L352.0,405.1 L353.7,390.7 L355.3,372.1 L356.9,354.4 L358.5,349.5 L360.2,353.8 L361.8,373.0 L363.1,390.7 L364.8,405.1 L366.4,411.8 L368.0,418.2 L369.6,419.7 L371.3,420.0 L372.9,419.7 L374.5,418.8 L376.1,419.1 L377.8,415.7 L379.4,407.8 L381.0,399.9 L382.6,400.8 L384.3,398.9 L385.9,404.7 L387.5,406.9 L389.1,403.5 L390.8,392.2 L392.4,373.9 L394.0,368.4 L395.6,327.3 L397.3,324.2 L398.9,320.2 L400.5,335.5 L402.1,351.0 L403.8,364.8 L405.4,380.6 L407.0,393.2 L408.6,398.0 L410.3,404.1 L411.9,402.9 L413.5,401.1 L415.1,406.9 L416.8,405.1 L418.4,399.3 L420.0,388.0 L421.6,374.2 L423.3,379.1 L424.9,393.5 L426.5,394.1 L428.1,381.6 L429.8,388.0 L431.4,393.8 L433.0,394.1 L434.6,401.7 L436.3,402.3 L437.9,406.6 L439.5,405.4 L441.1,414.2 L442.8,408.7 L444.4,414.5 L446.0,404.4 L447.6,404.1 L449.3,402.0 L450.9,398.0 L452.5,402.3 L454.1,407.5 L455.8,415.7 L457.4,417.3 L459.0,416.9 L460.6,418.5 L462.3,420.0 L463.9,417.6 L465.5,397.7 L467.1,392.5 L468.8,373.6 L470.4,374.8 L472.0,390.1 L473.6,410.2 L475.3,410.5 L476.9,411.5 L478.5,412.1 L480.1,405.4 L481.8,397.4 L483.4,391.6 L485.0,396.5 L486.6,403.2 L488.3,404.1 L489.9,406.6 L491.5,408.7 L493.1,413.6 L494.8,410.8 L496.4,411.5 L498.0,403.8 L499.6,398.9 L501.3,399.6 L502.9,395.0 L504.5,352.3 L506.1,369.4 L507.8,382.2 L509.4,373.6 L511.0,388.6 L512.6,395.3 L514.3,409.6 L515.9,409.9 L517.5,412.1 L519.1,408.7 L520.8,411.2 L522.4,409.3 L524.0,393.5 L525.6,394.4 L527.3,393.8 L528.9,394.7 L530.5,398.9 L532.1,409.9 L533.8,410.5 L535.4,402.9 L537.0,396.5 L538.6,398.9 L540.3,388.9 L541.9,395.0 L543.5,399.3 L545.1,405.1 L546.8,402.3 L548.4,410.8 L550.0,409.6 L551.6,403.5 L553.3,404.7 L554.9,415.4 L556.5,417.3 L558.1,414.5 L559.8,412.1 L561.4,411.8 L563.0,406.3 L564.6,404.4 L566.3,398.9 L567.9,403.5 L569.5,403.8 L571.1,409.9 L572.8,413.3 L574.4,414.2 L576.0,412.4 L577.6,405.7 L579.3,400.8 L580.9,403.2 L582.5,407.5 L584.1,407.5 L585.8,407.8 L587.4,413.9 L589.0,413.6 L590.6,413.3 L592.3,410.5 L593.9,415.7 L595.5,418.2 L597.1,419.4 L598.8,420.0 L600.4,419.7 L602.0,420.0 L603.6,420.0 L605.3,419.4 L606.9,418.5 L608.5,417.9 L610.1,418.5 L611.8,420.0 L613.4,419.1 L615.0,415.4 L616.6,413.9 L618.3,410.8 L619.9,414.2 L621.5,404.4 L623.1,392.8 L624.8,398.6 L626.4,395.6 L628.0,366.0 L629.6,367.2 L631.3,362.9 L632.9,368.1 L634.5,388.9 L636.1,398.3 L637.8,405.4 L639.4,409.6 L641.0,412.7 L642.6,418.2 L644.3,412.4 L645.9,415.4 L647.5,406.6 L649.1,412.1 L650.8,415.7 L652.4,413.0 L654.0,409.0 L655.6,407.8 L657.3,403.8 L658.9,403.8 L660.5,391.9 L662.1,396.2 L663.8,390.7 L665.4,388.0 L667.0,384.6 L668.6,379.7 L670.3,386.7 L671.9,385.5 L673.5,392.2 L675.1,404.1 L676.8,407.2 L678.4,416.0 L680.0,417.6" stroke="#1f77b4" stroke-width="2" fill="none" opacity="0.8"/>
<!-- Hydro Generation -->
<path d="M80.0,352.6 L81.6,353.5 L83.2,353.2 L84.9,353.8 L86.5,353.8 L88.1,353.5 L114.8,352.9 L116.4,353.5 L118.1,353.2 L119.7,353.2 L121.3,353.5 L122.9,353.5 L124.5,352.6 L126.2,353.2 L127.8,352.6 L129.4,352.6 L131.0,352.6 L132.7,352.3 L134.3,352.9 L135.9,352.6 L137.5,352.6 L139.2,352.9 L140.8,352.3 L142.4,352.6 L144.0,352.6 L145.7,352.3 L147.3,352.6 L148.9,352.9 L150.5,353.5 L152.2,353.5 L153.8,352.9 L155.4,353.5 L157.0,353.2 L158.7,353.2 L160.3,353.2 L161.9,353.2 L163.5,353.2 L165.2,353.2 L166.8,353.5 L168.4,353.5 L170.0,353.2 L171.7,353.2 L173.3,353.2 L174.9,352.9 L176.5,353.5 L178.2,353.2 L179.8,353.2 L181.4,352.6 L183.0,353.2 L184.7,353.5 L186.3,353.5 L187.9,353.8 L189.5,353.8 L191.2,354.1 L192.8,354.7 L194.4,354.4 L196.0,354.4 L197.7,354.1 L199.3,354.1 L200.9,355.3 L202.5,355.0 L204.2,355.3 L205.8,355.3 L207.4,355.3 L209.0,355.6 L210.7,355.3 L212.3,355.9 L213.9,355.6 L215.5,355.3 L217.2,356.2 L218.8,356.2 L220.4,355.6 L222.0,355.9 L223.7,356.8 L225.3,356.8 L226.9,356.8 L228.5,354.1 L230.2,357.2 L231.8,356.8 L233.4,356.8 L235.0,357.5 L236.7,351.7 L238.3,358.1 L239.9,359.0 L241.5,359.0 L243.2,358.7 L244.8,359.0 L246.4,358.7 L248.0,359.0 L249.7,358.7 L251.3,359.0 L252.9,359.0 L254.5,359.0 L256.2,359.3 L257.8,359.6 L259.4,359.6 L261.0,361.1 L262.7,361.1 L264.3,360.8 L265.9,361.4 L267.5,360.5 L269.2,360.5 L270.8,360.8 L272.4,361.1 L274.0,359.3 L275.7,359.6 L277.3,359.6 L278.9,358.7 L280.5,359.0 L282.2,359.0 L283.8,358.1 L285.4,357.8 L287.0,358.1 L288.7,357.8 L290.3,357.8 L291.9,357.5 L293.5,357.5 L295.2,357.8 L296.8,357.8 L298.4,357.5 L300.0,358.1 L301.7,358.4 L303.3,358.1 L304.9,358.7 L306.5,358.1 L308.2,358.4 L309.8,358.1 L311.4,358.7 L313.0,358.4 L314.7,358.4 L316.3,358.7 L317.9,357.2 L319.5,357.2 L321.2,356.5 L322.8,356.2 L324.4,356.2 L326.0,356.2 L327.7,356.5 L329.3,356.2 L330.9,356.2 L332.5,356.2 L334.2,356.2 L335.8,356.8 L337.4,359.3 L339.0,358.4 L340.7,359.0 L342.3,358.7 L343.9,359.3 L345.5,359.0 L347.2,359.0 L348.8,359.3 L350.4,359.9 L352.0,359.6 L353.7,359.6 L355.3,359.3 L356.9,359.0 L358.5,358.1 L360.2,357.8 L361.8,358.1 L363.1,357.8 L364.8,358.4 L366.4,358.1 L368.0,357.8 L369.6,356.8 L371.3,357.2 L372.9,356.5 L374.5,356.2 L376.1,356.2 L377.8,356.5 L379.4,356.5 L381.0,356.2 L382.6,355.9 L384.3,356.2 L385.9,356.5 L387.5,355.9 L389.1,356.2 L390.8,356.2 L392.4,356.5 L394.0,356.5 L395.6,356.8 L397.3,356.5 L398.9,356.5 L400.5,356.2 L402.1,356.8 L403.8,356.2 L405.4,356.5 L407.0,356.2 L408.6,356.2 L410.3,356.8 L411.9,356.5 L413.5,356.8 L415.1,356.2 L416.8,357.2 L418.4,355.9 L420.0,356.8 L421.6,356.2 L423.3,356.8 L424.9,356.5 L426.5,356.2 L428.1,356.5 L429.8,356.8 L431.4,356.5 L433.0,356.5 L434.6,356.5 L436.3,357.2 L437.9,356.5 L439.5,356.8 L441.1,356.8 L442.8,356.5 L444.4,357.2 L446.0,356.5 L447.6,357.2 L449.3,356.8 L450.9,357.2 L452.5,357.5 L454.1,357.5 L455.8,357.2 L457.4,356.8 L459.0,356.2 L460.6,356.5 L462.3,356.8 L463.9,356.8 L465.5,356.5 L467.1,356.5 L468.8,354.7 L470.4,355.0 L472.0,354.4 L473.6,354.1 L475.3,354.1 L476.9,353.8 L478.5,353.5 L480.1,353.5 L481.8,353.5 L483.4,352.9 L485.0,352.9 L486.6,352.9 L488.3,352.6 L489.9,352.3 L491.5,352.6 L493.1,352.9 L494.8,352.9 L496.4,352.6 L498.0,352.6 L499.6,353.2 L501.3,353.5 L502.9,353.5 L504.5,353.2 L506.1,353.5 L507.8,353.5 L509.4,353.2 L511.0,353.5 L512.6,353.5 L514.3,353.8 L515.9,353.8 L517.5,354.1 L519.1,354.7 L520.8,354.7 L522.4,354.4 L524.0,354.4 L525.6,354.7 L527.3,354.4 L528.9,354.7 L530.5,355.0 L532.1,356.2 L533.8,355.9 L535.4,356.2 L537.0,356.2 L538.6,355.9 L540.3,356.2 L541.9,355.6 L543.5,355.6 L545.1,355.6 L546.8,355.6 L548.4,355.3 L550.0,355.3 L551.6,353.2 L553.3,353.2 L554.9,352.9 L556.5,353.2 L558.1,353.2 L559.8,353.2 L561.4,352.6 L563.0,352.3 L564.6,352.3 L566.3,352.0 L567.9,352.6 L569.5,352.9 L571.1,354.1 L572.8,353.8 L574.4,354.1 L576.0,354.1 L577.6,353.8 L579.3,353.8 L580.9,353.8 L582.5,354.4 L584.1,353.8 L585.8,353.8 L587.4,354.1 L589.0,354.4 L590.6,354.4 L592.3,353.8 L593.9,353.8 L595.5,353.8 L597.1,353.5 L598.8,353.8 L600.4,353.5 L602.0,353.2 L603.6,353.2 L605.3,353.2 L606.9,353.2 L608.5,353.2 L610.1,355.0 L611.8,355.3 L613.4,355.0 L615.0,355.0 L616.6,355.0 L618.3,355.0 L619.9,355.0 L621.5,355.0 L623.1,354.7 L624.8,354.7 L626.4,354.7 L628.0,354.7 L629.6,355.0 L631.3,354.1 L632.9,353.8 L634.5,354.1 L636.1,353.8 L637.8,352.6 L639.4,352.6 L641.0,350.4 L642.6,351.4 L644.3,350.4 L645.9,350.1 L647.5,349.8 L649.1,349.8 L650.8,350.4 L652.4,350.7 L654.0,350.7 L655.6,351.4 L657.3,351.7 L658.9,351.7 L660.5,352.0 L662.1,352.6 L663.8,352.6 L665.4,353.8 L667.0,353.8 L668.6,353.8 L670.3,355.0 L671.9,354.7 L673.5,354.4 L675.1,355.0 L676.8,354.7 L678.4,354.7 L680.0,354.7" stroke="#ff7f0e" stroke-width="2" fill="none" opacity="0.8"/>
<!-- Thermal Generation -->
<path d="M80.0,314.7 L81.6,315.0 L83.2,313.8 L84.9,316.3 L86.5,328.8 L88.1,338.8 L114.8,332.4 L116.4,333.0 L118.1,338.8 L119.7,328.8 L121.3,329.1 L122.9,328.5 L124.5,326.3 L126.2,324.8 L127.8,321.5 L129.4,317.2 L131.0,321.2 L132.7,320.5 L134.3,319.9 L135.9,319.0 L137.5,320.5 L139.2,321.5 L140.8,337.9 L142.4,338.2 L144.0,338.2 L145.7,339.5 L147.3,340.7 L148.9,341.6 L150.5,326.6 L152.2,327.9 L153.8,327.9 L155.4,328.2 L157.0,328.5 L158.7,328.5 L160.3,327.9 L161.9,326.9 L163.5,326.3 L165.2,325.1 L166.8,321.8 L168.4,322.1 L170.0,321.2 L171.7,320.5 L173.3,320.2 L174.9,322.4 L176.5,320.5 L178.2,320.8 L179.8,321.8 L181.4,322.4 L183.0,320.5 L184.7,323.3 L186.3,322.7 L187.9,323.6 L189.5,323.9 L191.2,324.5 L192.8,324.2 L194.4,323.9 L196.0,324.2 L197.7,324.5 L199.3,323.0 L200.9,323.0 L202.5,323.3 L204.2,325.7 L205.8,322.1 L207.4,321.2 L209.0,321.5 L210.7,320.5 L212.3,320.5 L213.9,320.8 L215.5,323.6 L217.2,319.9 L218.8,320.8 L220.4,337.9 L222.0,339.5 L223.7,333.0 L225.3,322.1 L226.9,323.3 L228.5,323.0 L230.2,323.6 L231.8,323.9 L233.4,327.3 L235.0,326.3 L236.7,323.3 L238.3,323.3 L239.9,322.4 L241.5,322.4 L243.2,321.8 L244.8,321.8 L246.4,321.8 L248.0,320.5 L249.7,319.6 L251.3,319.3 L252.9,319.6 L254.5,322.1 L256.2,319.3 L257.8,330.6 L259.4,328.2 L261.0,331.2 L262.7,338.8 L264.3,322.4 L265.9,323.3 L267.5,323.6 L269.2,324.2 L270.8,323.6 L272.4,323.3 L274.0,309.9 L275.7,308.9 L277.3,311.1 L278.9,307.1 L280.5,307.4 L282.2,308.3 L283.8,307.4 L285.4,306.5 L287.0,305.6 L288.7,305.9 L290.3,305.0 L291.9,304.4 L293.5,304.1 L295.2,304.7 L296.8,307.7 L298.4,336.7 L300.0,338.2 L301.7,338.8 L303.3,338.5 L304.9,341.0 L306.5,313.5 L308.2,308.3 L309.8,306.8 L311.4,310.5 L313.0,308.9 L314.7,304.4 L316.3,303.8 L317.9,300.4 L319.5,298.3 L321.2,311.4 L322.8,304.7 L324.4,306.5 L326.0,296.7 L327.7,319.6 L329.3,323.0 L330.9,322.4 L332.5,295.8 L334.2,298.6 L335.8,298.6 L337.4,323.3 L339.0,309.9 L340.7,311.1 L342.3,312.6 L343.9,313.2 L345.5,309.3 L347.2,307.7 L348.8,307.4 L350.4,306.5 L352.0,307.1 L353.7,307.1 L355.3,305.3 L356.9,305.0 L358.5,301.6 L360.2,303.8 L361.8,298.3 L363.1,297.4 L364.8,305.9 L366.4,296.1 L368.0,297.4 L369.6,299.8 L371.3,300.7 L372.9,297.4 L374.5,297.7 L376.1,300.7 L377.8,301.0 L379.4,307.7 L381.0,321.2 L382.6,307.4 L384.3,320.2 L385.9,313.8 L387.5,313.2 L389.1,311.4 L390.8,312.6 L392.4,310.8 L394.0,311.4 L395.6,308.6 L397.3,306.2 L398.9,305.3 L400.5,301.9 L402.1,340.7 L403.8,340.1 L405.4,328.2 L407.0,327.6 L408.6,326.9 L410.3,326.6 L411.9,312.3 L413.5,327.3 L415.1,332.4 L416.8,327.6 L418.4,327.9 L420.0,328.5 L421.6,331.8 L423.3,326.9 L424.9,325.4 L426.5,305.0 L428.1,305.6 L429.8,305.9 L431.4,311.1 L433.0,308.0 L434.6,312.6 L436.3,305.9 L437.9,304.7 L439.5,303.5 L441.1,303.5 L442.8,329.1 L444.4,323.3 L446.0,324.2 L447.6,340.7 L449.3,340.4 L450.9,329.1 L452.5,327.3 L454.1,327.6 L455.8,331.2 L457.4,331.5 L459.0,326.9 L460.6,325.7 L462.3,326.0 L463.9,329.1 L465.5,319.9 L467.1,319.6 L468.8,316.3 L470.4,313.8 L472.0,313.5 L473.6,312.3 L475.3,310.8 L476.9,310.8 L478.5,310.8 L480.1,308.3 L481.8,306.2 L483.4,336.4 L485.0,335.2 L486.6,334.9 L488.3,334.3 L489.9,325.7 L491.5,325.1 L493.1,328.2 L494.8,328.2 L496.4,330.0 L498.0,335.2 L499.6,335.8 L501.3,345.6 L502.9,345.9 L504.5,345.3 L506.1,345.3 L507.8,343.7 L509.4,327.3 L511.0,324.2 L512.6,321.2 L514.3,322.4 L515.9,321.8 L517.5,321.5 L519.1,326.6 L520.8,337.9 L522.4,338.2 L524.0,337.9 L525.6,338.2 L527.3,338.5 L528.9,338.5 L530.5,339.2 L532.1,338.2 L533.8,337.9 L535.4,340.7 L537.0,341.3 L538.6,341.3 L540.3,341.9 L541.9,339.2 L543.5,341.9 L545.1,341.6 L546.8,312.3 L548.4,312.0 L550.0,313.5 L551.6,312.9 L553.3,312.3 L554.9,322.1 L556.5,321.5 L558.1,319.6 L559.8,335.5 L561.4,330.0 L563.0,327.9 L564.6,327.9 L566.3,327.6 L567.9,327.3 L569.5,327.6 L571.1,328.2 L572.8,329.4 L574.4,330.6 L576.0,330.9 L577.6,331.5 L579.3,332.1 L580.9,332.4 L582.5,312.3 L584.1,304.4 L585.8,304.1 L587.4,303.5 L589.0,302.8 L590.6,315.0 L592.3,301.6 L593.9,300.4 L595.5,310.8 L597.1,311.1 L598.8,327.3 L600.4,326.9 L602.0,327.6 L603.6,326.6 L605.3,326.6 L606.9,326.3 L608.5,328.2 L610.1,328.8 L611.8,330.0 L613.4,332.4 L615.0,331.8 L616.6,332.7 L618.3,333.0 L619.9,315.7 L621.5,309.3 L623.1,308.3 L624.8,308.0 L626.4,307.4 L628.0,306.8 L629.6,303.5 L631.3,301.9 L632.9,301.6 L634.5,303.8 L636.1,300.1 L637.8,299.5 L639.4,304.1 L641.0,303.8 L642.6,303.1 L644.3,303.1 L645.9,302.8 L647.5,309.3 L649.1,303.8 L650.8,305.0 L652.4,307.1 L654.0,307.7 L655.6,309.3 L657.3,336.1 L658.9,348.3 L660.5,349.2 L662.1,350.1 L663.8,349.2 L665.4,348.3 L667.0,346.8 L668.6,345.3 L670.3,343.7 L671.9,343.1 L673.5,341.9 L675.1,342.2 L676.8,342.5 L678.4,341.3 L680.0,341.0" stroke="#2ca02c" stroke-width="2" fill="none" opacity="0.8"/>
<!-- Solar Generation -->
<path d="M80.0,392.2 L81.6,411.2 L83.2,420.0 L84.9,420.0 L86.5,420.0 L88.1,420.0 L114.8,393.5 L116.4,382.2 L118.1,384.6 L119.7,399.3 L121.3,418.2 L122.9,420.0 L124.5,420.0 L126.2,420.0 L127.8,420.0 L129.4,420.0 L131.0,420.0 L132.7,420.0 L134.3,420.0 L135.9,420.0 L137.5,420.0 L139.2,418.2 L140.8,404.4 L142.4,380.3 L144.0,378.2 L145.7,387.4 L147.3,379.7 L148.9,384.6 L150.5,388.3 L152.2,398.3 L153.8,401.1 L155.4,400.5 L157.0,408.1 L158.7,415.7 L160.3,418.2 L161.9,420.0 L163.5,420.0 L165.2,420.0 L166.8,420.0 L168.4,420.0 L170.0,420.0 L171.7,420.0 L173.3,420.0 L174.9,420.0 L176.5,420.0 L178.2,418.2 L179.8,406.0 L181.4,387.7 L183.0,378.2 L184.7,380.9 L186.3,378.8 L187.9,380.0 L189.5,377.3 L191.2,377.0 L192.8,377.0 L194.4,377.3 L196.0,389.8 L197.7,402.9 L199.3,418.5 L200.9,420.0 L202.5,420.0 L204.2,420.0 L205.8,420.0 L207.4,420.0 L209.0,420.0 L210.7,420.0 L212.3,420.0 L213.9,420.0 L215.5,420.0 L217.2,419.4 L218.8,409.0 L220.4,393.8 L222.0,385.5 L223.7,379.7 L225.3,384.6 L226.9,377.3 L228.5,383.1 L230.2,375.5 L231.8,375.8 L233.4,376.7 L235.0,380.6 L236.7,400.2 L238.3,418.5 L239.9,420.0 L241.5,420.0 L243.2,420.0 L244.8,420.0 L246.4,420.0 L248.0,420.0 L249.7,420.0 L251.3,420.0 L252.9,420.0 L254.5,420.0 L256.2,418.5 L257.8,397.1 L259.4,379.4 L261.0,376.1 L262.7,375.8 L264.3,375.8 L265.9,376.1 L267.5,375.5 L269.2,376.4 L270.8,377.3 L272.4,376.7 L274.0,386.1 L275.7,408.1 L277.3,418.5 L278.9,420.0 L280.5,420.0 L282.2,420.0 L283.8,420.0 L285.4,420.0 L287.0,420.0 L288.7,420.0 L290.3,420.0 L291.9,420.0 L293.5,420.0 L295.2,419.1 L296.8,399.6 L298.4,378.8 L300.0,376.4 L301.7,375.5 L303.3,375.8 L304.9,380.0 L306.5,377.6 L308.2,380.0 L309.8,379.4 L311.4,382.2 L313.0,385.2 L314.7,401.7 L316.3,419.1 L317.9,420.0 L319.5,420.0 L321.2,420.0 L322.8,420.0 L324.4,420.0 L326.0,420.0 L327.7,420.0 L329.3,420.0 L330.9,420.0 L332.5,420.0 L334.2,418.5 L335.8,402.0 L337.4,381.3 L339.0,377.9 L340.7,378.2 L342.3,376.1 L343.9,379.7 L345.5,376.4 L347.2,387.4 L348.8,382.2 L350.4,392.8 L352.0,398.0 L353.7,410.2 L355.3,419.4 L356.9,420.0 L358.5,420.0 L360.2,420.0 L361.8,420.0 L363.1,420.0 L364.8,420.0 L366.4,420.0 L368.0,420.0 L369.6,420.0 L371.3,420.0 L372.9,419.7 L374.5,412.7 L376.1,398.3 L377.8,406.3 L379.4,394.4 L381.0,395.3 L382.6,390.1 L384.3,393.8 L385.9,382.8 L387.5,379.4 L389.1,391.6 L390.8,413.0 L392.4,412.4 L394.0,419.7 L395.6,420.0 L397.3,420.0 L398.9,420.0 L400.5,420.0 L402.1,420.0 L403.8,420.0 L405.4,420.0 L407.0,420.0 L408.6,420.0 L410.3,420.0 L411.9,419.7 L413.5,416.0 L415.1,415.1 L416.8,414.2 L418.4,412.7 L420.0,409.3 L421.6,406.3 L423.3,411.2 L424.9,404.1 L426.5,400.5 L428.1,407.5 L429.8,411.8 L431.4,418.5 L433.0,420.0 L434.6,420.0 L436.3,420.0 L437.9,420.0 L439.5,420.0 L441.1,420.0 L442.8,420.0 L444.4,420.0 L446.0,420.0 L447.6,420.0 L449.3,420.0 L450.9,420.0 L452.5,417.9 L454.1,412.4 L455.8,411.5 L457.4,404.4 L459.0,402.3 L460.6,398.0 L462.3,397.1 L463.9,399.9 L465.5,402.3 L467.1,406.6 L468.8,403.2 L470.4,415.7 L472.0,419.4 L473.6,420.0 L475.3,420.0 L476.9,420.0 L478.5,420.0 L480.1,420.0 L481.8,420.0 L483.4,420.0 L485.0,420.0 L486.6,420.0 L488.3,420.0 L489.9,420.0 L491.5,413.6 L493.1,400.8 L494.8,393.2 L496.4,388.3 L498.0,385.2 L499.6,379.1 L501.3,395.0 L502.9,389.5 L504.5,399.9 L506.1,406.3 L507.8,381.9 L509.4,410.2 L511.0,419.1 L512.6,420.0 L514.3,420.0 L515.9,420.0 L517.5,420.0 L519.1,420.0 L520.8,420.0 L522.4,420.0 L524.0,420.0 L525.6,420.0 L527.3,420.0 L528.9,420.0 L530.5,412.7 L532.1,382.5 L533.8,377.6 L535.4,376.4 L537.0,376.7 L538.6,383.7 L540.3,376.1 L541.9,376.1 L543.5,380.9 L545.1,376.4 L546.8,394.7 L548.4,402.0 L550.0,419.1 L551.6,420.0 L553.3,420.0 L554.9,420.0 L556.5,420.0 L558.1,420.0 L559.8,420.0 L561.4,420.0 L563.0,420.0 L564.6,420.0 L566.3,420.0 L567.9,419.7 L569.5,407.5 L571.1,384.6 L572.8,377.9 L574.4,376.7 L576.0,377.3 L577.6,377.9 L579.3,377.9 L580.9,379.4 L582.5,376.4 L584.1,378.8 L585.8,384.3 L587.4,402.0 L589.0,419.1 L590.6,420.0 L592.3,420.0 L593.9,420.0 L595.5,420.0 L597.1,420.0 L598.8,420.0 L600.4,420.0 L602.0,420.0 L603.6,420.0 L605.3,420.0 L606.9,420.0 L608.5,407.5 L610.1,386.1 L611.8,377.6 L613.4,378.8 L615.0,377.3 L616.6,378.2 L618.3,380.3 L619.9,377.6 L621.5,378.8 L623.1,378.2 L624.8,383.1 L626.4,402.3 L628.0,419.1 L629.6,420.0 L631.3,420.0 L632.9,420.0 L634.5,420.0 L636.1,420.0 L637.8,420.0 L639.4,420.0 L641.0,420.0 L642.6,420.0 L644.3,420.0 L645.9,420.0 L647.5,408.1 L649.1,385.2 L650.8,378.8 L652.4,378.8 L654.0,379.1 L655.6,378.5 L657.3,387.7 L658.9,397.1 L660.5,393.2 L662.1,395.6 L663.8,396.2 L665.4,409.3 L667.0,419.4 L668.6,420.0 L670.3,420.0 L671.9,420.0 L673.5,420.0 L675.1,420.0 L676.8,420.0 L678.4,420.0 L680.0,420.0" stroke="#d62728" stroke-width="2" fill="none" opacity="0.8"/>
<!-- Forecast -->
<path d="M80.0,100.6 L81.6,112.8 L83.2,125.3 L84.9,135.0 L86.5,152.4 L88.1,178.7 L114.8,74.9 L116.4,67.6 L118.1,72.2 L119.7,82.6 L121.3,97.8 L122.9,111.6 L124.5,122.5 L126.2,151.2 L127.8,187.8 L129.4,207.7 L131.0,219.2 L132.7,230.2 L134.3,234.8 L135.9,234.2 L137.5,227.5 L139.2,207.4 L140.8,180.5 L142.4,154.9 L144.0,136.6 L145.7,123.1 L147.3,109.7 L148.9,100.9 L150.5,92.6 L152.2,86.2 L153.8,78.6 L155.4,78.6 L157.0,83.2 L158.7,93.9 L160.3,107.3 L161.9,122.5 L163.5,140.2 L165.2,158.2 L166.8,235.7 L168.4,213.8 L170.0,244.6 L171.7,244.9 L173.3,242.4 L174.9,240.0 L176.5,239.1 L178.2,240.9 L179.8,207.4 L181.4,199.7 L183.0,187.8 L184.7,177.5 L186.3,147.2 L187.9,144.2 L189.5,145.1 L191.2,146.0 L192.8,149.1 L194.4,162.2 L196.0,173.2 L197.7,173.8 L199.3,173.8 L200.9,236.6 L202.5,240.3 L204.2,409.9 L205.8,223.2 L207.4,224.7 L209.0,237.3 L210.7,245.8 L212.3,248.8 L213.9,246.7 L215.5,236.3 L217.2,216.2 L218.8,192.4 L220.4,170.1 L222.0,159.8 L223.7,154.9 L225.3,148.8 L226.9,146.3 L228.5,140.2 L230.2,132.6 L231.8,123.1 L233.4,115.8 L235.0,121.6 L236.7,131.7 L238.3,181.1 L239.9,186.3 L241.5,192.7 L243.2,193.6 L244.8,218.6 L246.4,235.4 L248.0,238.8 L249.7,240.0 L251.3,241.5 L252.9,243.4 L254.5,245.8 L256.2,247.9 L257.8,242.1 L259.4,230.5 L261.0,216.2 L262.7,207.4 L264.3,204.9 L265.9,204.0 L267.5,202.8 L269.2,202.8 L270.8,202.2 L272.4,172.9 L274.0,169.5 L275.7,167.1 L277.3,170.7 L278.9,182.0 L280.5,184.2 L282.2,209.8 L283.8,219.2 L285.4,225.4 L287.0,218.0 L288.7,226.0 L290.3,233.9 L291.9,240.0 L293.5,251.0 L295.2,247.6 L296.8,235.4 L298.4,219.2 L300.0,203.1 L301.7,192.1 L303.3,184.5 L304.9,197.0 L306.5,194.8 L308.2,193.9 L309.8,163.4 L311.4,161.9 L313.0,159.5 L314.7,157.9 L316.3,170.4 L317.9,175.6 L319.5,177.5 L321.2,205.8 L322.8,228.7 L324.4,225.0 L326.0,236.0 L327.7,244.3 L329.3,248.2 L330.9,247.6 L332.5,237.6 L334.2,217.1 L335.8,192.7 L337.4,169.2 L339.0,156.7 L340.7,149.7 L342.3,141.8 L343.9,138.4 L345.5,129.9 L347.2,119.8 L348.8,142.1 L350.4,141.5 L352.0,139.3 L353.7,137.2 L355.3,144.2 L356.9,154.9 L358.5,120.7 L360.2,132.0 L361.8,194.8 L363.1,220.8 L364.8,235.4 L366.4,244.3 L368.0,249.5 L369.6,248.8 L371.3,240.0 L372.9,220.8 L374.5,196.1 L376.1,171.7 L377.8,156.1 L379.4,147.2 L381.0,138.7 L382.6,131.1 L384.3,121.9 L385.9,112.2 L387.5,100.9 L389.1,92.0 L390.8,94.8 L392.4,104.5 L394.0,118.6 L395.6,133.2 L397.3,142.1 L398.9,162.5 L400.5,170.7 L402.1,208.3 L403.8,228.1 L405.4,237.6 L407.0,243.4 L408.6,242.7 L410.3,234.8 L411.9,217.4 L413.5,194.8 L415.1,170.7 L416.8,156.1 L418.4,149.4 L420.0,142.7 L421.6,139.0 L423.3,132.9 L424.9,124.7 L426.5,118.0 L428.1,115.2 L429.8,119.8 L431.4,121.3 L433.0,127.4 L434.6,144.5 L436.3,150.3 L437.9,166.8 L439.5,198.8 L441.1,215.6 L442.8,226.9 L444.4,235.4 L446.0,240.3 L447.6,238.8 L449.3,230.5 L450.9,215.3 L452.5,193.3 L454.1,171.0 L455.8,159.1 L457.4,155.5 L459.0,151.2 L460.6,147.9 L462.3,146.6 L463.9,144.2 L465.5,139.9 L467.1,137.8 L468.8,142.1 L470.4,149.7 L472.0,157.6 L473.6,162.8 L475.3,163.7 L476.9,177.8 L478.5,205.5 L480.1,223.2 L481.8,234.2 L483.4,241.5 L485.0,244.9 L486.6,244.0 L488.3,234.2 L489.9,218.0 L491.5,195.1 L493.1,172.9 L494.8,161.9 L496.4,158.8 L498.0,154.9 L499.6,151.5 L501.3,151.2 L502.9,148.8 L504.5,143.9 L506.1,140.8 L507.8,144.8 L509.4,152.4 L511.0,160.1 L512.6,167.4 L514.3,167.4 L515.9,182.0 L517.5,209.5 L519.1,223.8 L520.8,234.2 L522.4,243.0 L524.0,247.9 L525.6,249.5 L527.3,247.0 L528.9,241.5 L530.5,228.4 L532.1,211.0 L533.8,198.5 L535.4,192.4 L537.0,187.8 L538.6,179.6 L540.3,174.7 L541.9,174.1 L543.5,165.9 L545.1,158.2 L546.8,159.1 L548.4,157.3 L550.0,165.9 L551.6,174.4 L553.3,173.5 L554.9,186.9 L556.5,206.1 L558.1,226.0 L559.8,238.2 L561.4,245.8 L563.0,250.7 L564.6,251.6 L566.3,250.4 L567.9,247.0 L569.5,236.0 L571.1,219.2 L572.8,200.0 L574.4,188.1 L576.0,178.1 L577.6,170.7 L579.3,162.8 L580.9,153.7 L582.5,143.0 L584.1,137.8 L585.8,127.1 L587.4,130.8 L589.0,140.5 L590.6,152.7 L592.3,159.8 L593.9,177.8 L595.5,203.4 L597.1,225.7 L598.8,239.1 L600.4,233.0 L602.0,248.5 L603.6,254.0 L605.3,252.5 L606.9,248.5 L608.5,239.1 L610.1,222.0 L611.8,202.2 L613.4,190.3 L615.0,179.9 L616.6,172.3 L618.3,161.9 L619.9,151.5 L621.5,140.8 L623.1,132.6 L624.8,125.6 L626.4,128.0 L628.0,136.6 L629.6,148.8 L631.3,157.6 L632.9,177.1 L634.5,155.8 L636.1,206.1 L637.8,232.4 L639.4,226.0 L641.0,242.7 L642.6,247.3 L644.3,239.4 L645.9,219.9 L647.5,197.3 L649.1,173.2 L650.8,157.9 L652.4,150.6 L654.0,142.4 L655.6,137.2 L657.3,130.2 L658.9,122.2 L660.5,120.7 L662.1,120.7 L663.8,121.0 L665.4,121.3 L667.0,121.3 L668.6,121.6 L670.3,121.9 L671.9,134.4 L673.5,198.5 L675.1,226.3 L676.8,240.6 L678.4,250.1 L680.0,251.9" stroke="#9467bd" stroke-width="2" fill="none" opacity="0.8"/>
<!-- Total Generation -->
<path d="M80.0,211.3 L81.6,230.2 L83.2,243.4 L84.9,229.0 L86.5,246.4 L88.1,250.1 L114.8,235.1 L116.4,221.7 L118.1,226.6 L119.7,226.3 L121.3,241.8 L122.9,211.0 L124.5,212.5 L126.2,210.4 L127.8,216.2 L129.4,233.3 L131.0,240.0 L132.7,240.6 L134.3,250.7 L135.9,241.8 L137.5,236.6 L139.2,231.5 L140.8,235.1 L142.4,225.0 L144.0,228.4 L145.7,239.4 L147.3,231.1 L148.9,235.4 L150.5,226.0 L152.2,234.8 L153.8,229.6 L155.4,234.5 L157.0,207.0 L158.7,232.1 L160.3,249.8 L161.9,218.3 L163.5,246.1 L165.2,223.5 L166.8,225.0 L168.4,222.0 L170.0,234.2 L171.7,245.8 L173.3,227.2 L174.9,218.6 L176.5,215.9 L178.2,219.2 L179.8,229.3 L181.4,218.0 L183.0,208.6 L184.7,210.1 L186.3,204.9 L187.9,209.2 L189.5,208.3 L191.2,210.4 L192.8,207.4 L194.4,203.1 L196.0,206.4 L197.7,212.2 L199.3,218.0 L200.9,208.3 L202.5,211.6 L204.2,219.2 L205.8,215.9 L207.4,221.4 L209.0,230.2 L210.7,229.0 L212.3,210.4 L213.9,226.9 L215.5,241.2 L217.2,238.8 L218.8,225.7 L220.4,228.1 L222.0,225.4 L223.7,211.0 L225.3,209.5 L226.9,207.7 L228.5,208.6 L230.2,204.0 L231.8,204.6 L233.4,203.7 L235.0,198.8 L236.7,206.4 L238.3,221.7 L239.9,214.7 L241.5,220.8 L243.2,214.1 L244.8,215.0 L246.4,213.1 L248.0,230.5 L249.7,246.7 L251.3,252.5 L252.9,256.8 L254.5,261.0 L256.2,257.4 L257.8,247.9 L259.4,227.8 L261.0,228.1 L262.7,232.1 L264.3,214.1 L265.9,216.2 L267.5,214.7 L269.2,216.5 L270.8,216.5 L272.4,211.0 L274.0,196.4 L275.7,203.7 L277.3,207.7 L278.9,177.5 L280.5,172.3 L282.2,179.6 L283.8,168.0 L285.4,175.3 L287.0,205.2 L288.7,208.6 L290.3,217.4 L291.9,232.1 L293.5,237.6 L295.2,239.4 L296.8,225.4 L298.4,233.6 L300.0,233.6 L301.7,228.4 L303.3,222.3 L304.9,232.1 L306.5,202.2 L308.2,201.2 L309.8,201.2 L311.4,205.8 L313.0,205.5 L314.7,206.1 L316.3,208.6 L317.9,193.3 L319.5,171.0 L321.2,190.9 L322.8,207.0 L324.4,230.8 L326.0,229.3 L327.7,254.9 L329.3,259.8 L330.9,259.2 L332.5,231.8 L334.2,233.0 L335.8,217.4 L337.4,224.1 L339.0,206.7 L340.7,204.3 L342.3,200.0 L343.9,207.4 L345.5,202.5 L347.2,210.1 L348.8,204.9 L350.4,211.3 L352.0,209.8 L353.7,207.7 L355.3,196.1 L356.9,178.7 L358.5,169.5 L360.2,175.6 L361.8,189.7 L363.1,206.1 L364.8,229.3 L366.4,226.0 L368.0,233.3 L369.6,236.3 L371.3,237.9 L372.9,233.3 L374.5,225.4 L376.1,214.4 L377.8,219.6 L379.4,206.4 L381.0,212.5 L382.6,194.2 L384.3,209.2 L385.9,197.9 L387.5,195.5 L389.1,202.8 L390.8,214.1 L392.4,193.6 L394.0,196.1 L395.6,153.0 L397.3,147.2 L398.9,142.4 L400.5,154.0 L402.1,208.9 L403.8,221.1 L405.4,225.4 L407.0,236.9 L408.6,241.2 L410.3,247.6 L411.9,231.5 L413.5,241.2 L415.1,250.7 L416.8,244.0 L418.4,235.7 L420.0,222.6 L421.6,208.6 L423.3,214.1 L424.9,219.6 L426.5,195.8 L428.1,191.2 L429.8,202.5 L431.4,219.9 L433.0,218.6 L434.6,231.1 L436.3,225.7 L437.9,228.1 L439.5,226.0 L441.1,234.8 L442.8,254.6 L444.4,255.3 L446.0,245.5 L447.6,262.0 L449.3,259.2 L450.9,244.3 L452.5,244.9 L454.1,244.9 L455.8,255.6 L457.4,250.1 L459.0,242.4 L460.6,238.8 L462.3,240.0 L463.9,243.4 L465.5,216.5 L467.1,215.3 L468.8,187.8 L470.4,199.4 L472.0,217.4 L473.6,236.6 L475.3,235.4 L476.9,236.0 L478.5,236.3 L480.1,227.2 L481.8,217.1 L483.4,241.2 L485.0,244.6 L486.6,251.0 L488.3,251.0 L489.9,244.6 L491.5,240.0 L493.1,235.4 L494.8,225.0 L496.4,222.3 L498.0,216.8 L499.6,207.0 L501.3,233.6 L502.9,223.8 L504.5,190.6 L506.1,214.4 L507.8,201.2 L509.4,204.3 L511.0,225.4 L512.6,230.2 L514.3,246.1 L515.9,245.8 L517.5,247.9 L519.1,250.4 L520.8,264.1 L522.4,262.3 L524.0,246.1 L525.6,247.6 L527.3,247.0 L528.9,247.9 L530.5,245.8 L532.1,226.9 L533.8,222.0 L535.4,216.2 L537.0,210.7 L538.6,219.9 L540.3,203.1 L541.9,205.8 L543.5,217.7 L545.1,218.6 L546.8,204.9 L548.4,220.2 L550.0,237.6 L551.6,229.6 L553.3,230.2 L554.9,250.7 L556.5,252.2 L558.1,247.6 L559.8,261.0 L561.4,254.6 L563.0,246.7 L564.6,244.9 L566.3,238.8 L567.9,243.0 L569.5,231.8 L571.1,216.8 L572.8,214.4 L574.4,215.6 L576.0,214.7 L577.6,208.9 L579.3,204.6 L580.9,208.9 L582.5,190.6 L584.1,184.5 L585.8,190.0 L587.4,213.5 L589.0,229.9 L590.6,242.7 L592.3,226.0 L593.9,229.9 L595.5,242.7 L597.1,244.0 L598.8,261.0 L600.4,260.4 L602.0,260.7 L603.6,260.1 L605.3,259.2 L606.9,258.0 L608.5,246.7 L610.1,228.4 L611.8,223.2 L613.4,225.4 L615.0,219.6 L616.6,219.9 L618.3,219.2 L619.9,202.5 L621.5,187.5 L623.1,174.1 L624.8,184.5 L626.4,200.0 L628.0,186.6 L629.6,185.7 L631.3,179.3 L632.9,183.9 L634.5,207.0 L636.1,212.5 L637.8,217.7 L639.4,226.6 L641.0,227.2 L642.6,233.0 L644.3,226.0 L645.9,228.4 L647.5,213.8 L649.1,190.9 L650.8,190.0 L652.4,189.7 L654.0,186.6 L655.6,186.9 L657.3,219.2 L658.9,240.9 L660.5,226.3 L662.1,234.5 L663.8,228.7 L665.4,239.4 L667.0,244.6 L668.6,238.8 L670.3,245.5 L671.9,243.7 L673.5,248.8 L675.1,261.7 L676.8,264.7 L678.4,272.3 L680.0,273.6" stroke="#8c564b" stroke-width="2" fill="none" opacity="0.8"/>
<!-- Forecast Difference -->
<path d="M81.6,420.0 L83.2,420.0 L84.9,420.0 L86.5,420.0 L88.1,420.0 L116.4,420.0 L118.1,420.0 L119.7,420.0 L121.3,420.0 L122.9,420.0 L124.5,420.0 L126.2,420.0 L127.8,420.0 L129.4,420.0 L131.0,420.0 L132.7,420.0 L134.3,420.0 L135.9,420.0 L137.5,420.0 L139.2,420.0 L140.8,420.0 L142.4,420.0 L144.0,420.0 L145.7,420.0 L147.3,420.0 L148.9,420.0 L150.5,420.0 L152.2,420.0 L153.8,420.0 L155.4,420.0 L157.0,420.0 L158.7,420.0 L160.3,420.0 L161.9,420.0 L163.5,420.0 L165.2,420.0 L166.8,420.0 L168.4,420.0 L170.0,420.0 L171.7,420.0 L173.3,420.0 L174.9,420.0 L176.5,420.0 L178.2,420.0 L179.8,420.0 L181.4,420.0 L183.0,420.0 L184.7,420.0 L186.3,420.0 L187.9,420.0 L189.5,420.0 L191.2,420.0 L192.8,420.0 L194.4,420.0 L196.0,420.0 L197.7,420.0 L199.3,420.0 L200.9,420.0 L202.5,420.0 L204.2,420.0 L205.8,420.0 L207.4,420.0 L209.0,420.0 L210.7,420.0 L212.3,420.0 L213.9,420.0 L215.5,420.0 L217.2,420.0 L218.8,420.0 L220.4,420.0 L222.0,420.0 L223.7,420.0 L225.3,420.0 L226.9,420.0 L228.5,420.0 L230.2,420.0 L231.8,420.0 L233.4,420.0 L235.0,420.0 L236.7,420.0 L238.3,420.0 L239.9,420.0 L241.5,420.0 L243.2,420.0 L244.8,420.0 L246.4,420.0 L248.0,420.0 L249.7,420.0 L251.3,420.0 L252.9,420.0 L254.5,420.0 L256.2,420.0 L257.8,420.0 L259.4,420.0 L261.0,420.0 L262.7,420.0 L264.3,420.0 L265.9,420.0 L267.5,420.0 L269.2,420.0 L270.8,420.0 L272.4,420.0 L274.0,420.0 L275.7,420.0 L277.3,420.0 L278.9,420.0 L280.5,420.0 L282.2,420.0 L283.8,420.0 L285.4,420.0 L287.0,420.0 L288.7,420.0 L290.3,420.0 L291.9,420.0 L293.5,420.0 L295.2,420.0 L296.8,420.0 L298.4,420.0 L300.0,420.0 L301.7,420.0 L303.3,420.0 L304.9,420.0 L306.5,420.0 L308.2,420.0 L309.8,420.0 L311.4,420.0 L313.0,420.0 L314.7,420.0 L316.3,420.0 L317.9,420.0 L319.5,420.0 L321.2,420.0 L322.8,420.0 L324.4,420.0 L326.0,420.0 L327.7,420.0 L329.3,420.0 L330.9,420.0 L332.5,420.0 L334.2,420.0 L335.8,420.0 L337.4,420.0 L339.0,420.0 L340.7,420.0 L342.3,420.0 L343.9,420.0 L345.5,420.0 L347.2,420.0 L348.8,420.0 L350.4,420.0 L352.0,420.0 L353.7,420.0 L355.3,420.0 L356.9,420.0 L358.5,420.0 L360.2,420.0 L361.8,420.0 L363.1,420.0 L364.8,420.0 L366.4,420.0 L368.0,420.0 L369.6,420.0 L371.3,420.0 L372.9,420.0 L374.5,420.0 L376.1,420.0 L377.8,420.0 L379.4,420.0 L381.0,420.0 L382.6,420.0 L384.3,420.0 L385.9,420.0 L387.5,420.0 L389.1,420.0 L390.8,420.0 L392.4,420.0 L394.0,420.0 L395.6,420.0 L397.3,420.0 L398.9,420.0 L400.5,420.0 L402.1,420.0 L403.8,420.0 L405.4,420.0 L407.0,420.0 L408.6,420.0 L410.3,420.0 L411.9,420.0 L413.5,420.0 L415.1,420.0 L416.8,420.0 L418.4,420.0 L420.0,420.0 L421.6,420.0 L423.3,420.0 L424.9,420.0 L426.5,420.0 L428.1,420.0 L429.8,420.0 L431.4,420.0 L433.0,420.0 L434.6,420.0 L436.3,420.0 L437.9,420.0 L439.5,420.0 L441.1,420.0 L442.8,420.0 L444.4,420.0 L446.0,420.0 L447.6,420.0 L449.3,420.0 L450.9,420.0 L452.5,420.0 L454.1,420.0 L455.8,420.0 L457.4,420.0 L459.0,420.0 L460.6,420.0 L462.3,420.0 L463.9,420.0 L465.5,420.0 L467.1,420.0 L468.8,420.0 L470.4,420.0 L472.0,420.0 L473.6,420.0 L475.3,420.0 L476.9,420.0 L478.5,420.0 L480.1,420.0 L481.8,420.0 L483.4,420.0 L485.0,420.0 L486.6,420.0 L488.3,420.0 L489.9,420.0 L491.5,420.0 L493.1,420.0 L494.8,420.0 L496.4,420.0 L498.0,420.0 L499.6,420.0 L501.3,420.0 L502.9,420.0 L504.5,420.0 L506.1,420.0 L507.8,420.0 L509.4,420.0 L511.0,420.0 L512.6,420.0 L514.3,420.0 L515.9,420.0 L517.5,420.0 L519.1,420.0 L520.8,420.0 L522.4,420.0 L524.0,420.0 L525.6,420.0 L527.3,420.0 L528.9,420.0 L530.5,420.0 L532.1,420.0 L533.8,420.0 L535.4,420.0 L537.0,420.0 L538.6,420.0 L540.3,420.0 L541.9,420.0 L543.5,420.0 L545.1,420.0 L546.8,420.0 L548.4,420.0 L550.0,420.0 L551.6,420.0 L553.3,420.0 L554.9,420.0 L556.5,420.0 L558.1,420.0 L559.8,420.0 L561.4,420.0 L563.0,420.0 L564.6,420.0 L566.3,420.0 L567.9,420.0 L569.5,420.0 L571.1,420.0 L572.8,420.0 L574.4,420.0 L576.0,420.0 L577.6,420.0 L579.3,420.0 L580.9,420.0 L582.5,420.0 L584.1,420.0 L585.8,420.0 L587.4,420.0 L589.0,420.0 L590.6,420.0 L592.3,420.0 L593.9,420.0 L595.5,420.0 L597.1,420.0 L598.8,420.0 L600.4,420.0 L602.0,420.0 L603.6,420.0 L605.3,420.0 L606.9,420.0 L608.5,420.0 L610.1,420.0 L611.8,420.0 L613.4,420.0 L615.0,420.0 L616.6,420.0 L618.3,420.0 L619.9,420.0 L621.5,420.0 L623.1,420.0 L624.8,420.0 L626.4,420.0 L628.0,420.0 L629.6,420.0 L631.3,420.0 L632.9,420.0 L634.5,420.0 L636.1,420.0 L637.8,420.0 L639.4,420.0 L641.0,420.0 L642.6,420.0 L644.3,420.0 L645.9,420.0 L647.5,420.0 L649.1,420.0 L650.8,420.0 L652.4,420.0 L654.0,420.0 L655.6,420.0 L657.3,420.0 L658.9,420.0 L660.5,420.0 L662.1,420.0 L663.8,420.0 L665.4,420.0 L667.0,420.0 L668.6,420.0 L670.3,420.0 L671.9,420.0 L673.5,420.0 L675.1,420.0 L676.8,420.0 L678.4,420.0 L680.0,420.0" stroke="#e377c2" stroke-width="2" fill="none" opacity="0.8"/>

<!-- Legend -->
<line x1="690" y1="70" x2="705" y2="70" stroke="#1f77b4" stroke-width="3"/>
<text x="710" y="74" class="legend">Wind Generation</text>
<line x1="690" y1="88" x2="705" y2="88" stroke="#ff7f0e" stroke-width="3"/>
<text x="710" y="92" class="legend">Hydro Generation</text>
<line x1="690" y1="106" x2="705" y2="106" stroke="#2ca02c" stroke-width="3"/>
<text x="710" y="110" class="legend">Thermal Generation</text>
<line x1="690" y1="124" x2="705" y2="124" stroke="#d62728" stroke-width="3"/>
<text x="710" y="128" class="legend">Solar Generation</text>
<line x1="690" y1="142" x2="705" y2="142" stroke="#9467bd" stroke-width="3"/>
<text x="710" y="146" class="legend">Forecast</text>
<line x1="690" y1="160" x2="705" y2="160" stroke="#8c564b" stroke-width="3"/>
<text x="710" y="164" class="legend">Total Generation</text>
<line x1="690" y1="178" x2="705" y2="178" stroke="#e377c2" stroke-width="3"/>
<text x="710" y="182" class="legend">Forecast Difference</text>

<!-- Date range -->
<text x="80" y="495" class="legend">Range: 08/18 - 09/03/2025 (355 records)</text>
</svg>