<?xml version="1.0" encoding="UTF-8"?>
<svg width="800" height="500" xmlns="http://www.w3.org/2000/svg">
<style>
.axis-line { stroke: #333; stroke-width: 1; }
.grid-line { stroke: #ddd; stroke-width: 0.5; }
.title { font: 16px Arial; text-anchor: middle; fill: #333; }
.axis-label { font: 12px Arial; text-anchor: middle; fill: #666; }
.legend { font: 10px Arial; fill: #333; }
</style>

<!-- Title -->
<text x="400.0" y="25" class="title">Northwestern Energy Generation Data - Past 30 Days</text>

<!-- Plot area background -->
<rect x="80" y="50" width="600" height="370" fill="white" stroke="#ddd"/>

<!-- Y-axis -->
<line x1="80" y1="50" x2="80" y2="420" class="axis-line"/>
<text x="30" y="235.0" class="axis-label" transform="rotate(-90, 30, 235.0)">Generation (MW)</text>

<!-- X-axis -->
<line x1="80" y1="420" x2="680" y2="420" class="axis-line"/>
<text x="380.0" y="480" class="axis-label">Time</text>
<line x1="80" y1="420.0" x2="680" y2="420.0" class="grid-line"/>
<text x="70" y="425.0" class="legend" text-anchor="end">0</text>
<line x1="80" y1="327.5" x2="680" y2="327.5" class="grid-line"/>
<text x="70" y="332.5" class="legend" text-anchor="end">275</text>
<line x1="80" y1="235.0" x2="680" y2="235.0" class="grid-line"/>
<text x="70" y="240.0" class="legend" text-anchor="end">550</text>
<line x1="80" y1="142.5" x2="680" y2="142.5" class="grid-line"/>
<text x="70" y="147.5" class="legend" text-anchor="end">825</text>
<line x1="80" y1="50.0" x2="680" y2="50.0" class="grid-line"/>
<text x="70" y="55.0" class="legend" text-anchor="end">1100</text>
<!-- Wind Generation -->
<path d="M80.0,325.9 L80.8,331.2 L81.7,285.8 L82.5,302.0 L83.4,322.8 L84.2,371.6 L85.0,373.3 L85.9,372.6 L86.7,379.3 L87.6,369.9 L88.4,376.3 L89.3,355.4 L90.1,329.9 L90.9,312.7 L91.8,303.0 L92.6,302.0 L93.5,298.6 L94.3,313.1 L95.1,336.6 L96.0,347.0 L96.8,336.9 L97.7,350.7 L98.5,364.5 L99.4,390.4 L100.2,404.2 L101.0,407.6 L101.9,407.6 L102.7,410.9 L103.6,410.9 L104.4,402.5 L105.2,391.4 L106.1,394.4 L106.9,400.8 L107.8,413.3 L108.6,417.6 L109.5,415.0 L110.3,411.9 L111.1,413.6 L112.0,405.2 L112.8,399.8 L113.7,384.4 L114.5,369.6 L115.3,368.6 L116.2,372.9 L117.0,388.1 L117.9,378.6 L118.7,374.6 L119.6,371.2 L120.4,376.0 L121.2,376.6 L122.1,383.7 L122.9,378.3 L123.8,358.8 L124.6,354.8 L125.4,355.1 L126.3,364.5 L127.1,386.7 L128.0,389.1 L128.8,382.3 L129.6,396.8 L130.5,405.9 L131.3,407.9 L132.2,412.9 L133.0,413.9 L133.9,418.0 L134.7,418.0 L135.5,418.3 L136.4,419.0 L137.2,419.7 L138.1,416.6 L138.9,413.6 L139.7,413.3 L140.6,410.6 L141.4,407.9 L142.3,405.2 L143.1,405.5 L144.0,382.7 L144.8,386.0 L145.6,385.4 L146.5,393.4 L147.3,406.9 L148.2,414.3 L149.0,398.5 L149.8,407.6 L150.7,409.6 L151.5,403.2 L152.4,403.9 L153.2,408.9 L154.1,414.3 L154.9,414.3 L155.7,411.6 L156.6,404.9 L157.4,398.5 L158.3,382.0 L159.1,373.6 L159.9,330.6 L160.8,303.3 L161.6,310.0 L162.5,303.0 L163.3,297.3 L164.2,323.5 L165.0,340.0 L165.8,347.7 L166.7,359.8 L167.5,388.7 L168.4,373.6 L169.2,358.5 L170.0,363.8 L170.9,349.4 L171.7,368.2 L172.6,361.5 L173.4,363.5 L174.2,364.2 L175.1,351.7 L175.9,345.7 L176.8,348.0 L177.6,318.1 L181.0,335.3 L181.8,321.1 L182.7,336.3 L183.5,369.9 L184.3,389.1 L185.2,403.5 L186.0,412.6 L186.9,418.0 L187.7,418.7 L188.6,416.0 L189.4,407.6 L190.2,410.2 L191.1,411.6 L191.9,415.3 L192.8,400.8 L193.6,410.6 L194.4,403.2 L195.3,405.9 L196.1,403.2 L197.0,405.9 L197.8,401.2 L198.7,398.1 L199.5,407.9 L200.3,400.2 L201.2,412.3 L202.0,419.7 L202.9,420.0 L203.7,416.0 L204.5,410.2 L205.4,415.0 L206.2,400.5 L207.1,395.1 L207.9,402.9 L208.8,402.5 L209.6,408.9 L210.4,416.6 L211.3,416.0 L212.1,416.6 L213.0,413.9 L213.8,410.9 L214.6,392.8 L215.5,411.3 L216.3,404.9 L217.2,381.3 L218.0,381.3 L218.8,370.2 L219.7,379.0 L220.5,389.1 L221.4,380.7 L222.2,378.6 L223.1,380.0 L223.9,350.4 L224.7,344.3 L225.6,360.1 L226.4,357.1 L227.3,355.1 L228.1,383.0 L228.9,378.3 L229.8,387.4 L230.6,379.7 L231.5,393.8 L232.3,405.2 L233.2,401.5 L234.0,382.0 L234.8,380.0 L235.7,362.8 L236.5,367.2 L237.4,377.6 L238.2,377.0 L239.0,382.7 L239.9,380.3 L240.7,382.7 L241.6,386.4 L242.4,391.4 L243.3,406.9 L244.1,410.2 L244.9,403.2 L245.8,392.8 L246.6,394.1 L247.5,394.1 L248.3,370.2 L249.1,356.8 L250.0,350.4 L250.8,349.4 L251.7,351.4 L252.5,359.5 L253.4,357.8 L254.2,344.0 L255.0,333.9 L255.9,323.2 L256.7,330.6 L257.6,340.6 L258.4,354.8 L259.2,360.1 L260.1,364.2 L260.9,369.2 L261.8,365.5 L262.6,371.6 L263.5,381.3 L264.3,394.4 L265.1,400.5 L266.0,412.3 L266.8,417.3 L267.7,418.7 L268.5,418.7 L269.3,416.6 L270.2,413.3 L271.0,410.9 L271.9,408.6 L272.7,406.2 L273.5,404.2 L274.4,403.5 L275.2,394.8 L276.1,383.7 L276.9,373.9 L277.8,389.1 L278.6,382.3 L279.4,380.0 L280.3,354.8 L281.1,332.2 L282.0,340.6 L282.8,350.1 L283.6,354.8 L284.5,346.7 L285.3,342.0 L286.2,381.7 L287.0,397.5 L287.9,407.6 L288.7,417.0 L289.5,413.6 L290.4,413.9 L291.2,412.3 L292.1,405.5 L292.9,401.8 L293.7,401.5 L294.6,394.8 L295.4,390.1 L296.3,390.1 L297.1,388.1 L298.0,396.8 L298.8,395.1 L299.6,400.8 L300.5,404.5 L301.3,409.2 L302.2,406.9 L303.0,406.9 L303.8,403.9 L304.7,404.5 L305.5,396.8 L306.4,386.0 L307.2,381.3 L308.1,391.1 L308.9,394.1 L309.7,392.4 L310.6,395.1 L311.4,393.4 L312.3,388.7 L313.1,394.1 L313.9,398.8 L314.8,387.7 L315.6,393.4 L316.5,372.6 L317.3,366.5 L318.1,362.8 L319.0,367.9 L319.8,354.8 L320.7,355.8 L321.5,366.9 L322.4,383.7 L323.2,394.4 L324.0,407.9 L324.9,411.3 L325.7,413.6 L326.6,415.3 L327.4,411.6 L328.2,400.2 L329.1,396.1 L329.9,398.5 L330.8,397.1 L331.6,395.5 L332.5,384.7 L333.3,388.4 L334.1,390.4 L335.0,385.4 L335.8,396.1 L336.7,395.1 L337.5,367.9 L338.3,377.6 L339.2,399.8 L340.0,409.6 L340.9,411.6 L341.7,406.9 L342.6,402.5 L343.4,386.4 L344.2,379.7 L345.1,380.7 L345.9,372.6 L346.8,364.5 L347.6,355.8 L348.4,364.2 L349.3,369.2 L350.1,388.4 L351.0,405.2 L351.8,411.6 L352.7,418.0 L353.5,420.0 L354.3,420.0 L355.2,420.0 L356.0,413.3 L356.9,409.2 L357.7,418.7 L358.5,419.0 L359.4,411.3 L360.2,392.8 L361.1,407.2 L361.9,402.5 L362.7,409.2 L363.6,409.2 L364.4,387.7 L365.3,385.0 L366.1,369.2 L367.0,387.4 L367.8,389.7 L368.6,401.2 L369.5,387.7 L370.3,393.4 L371.2,392.8 L372.0,397.8 L372.8,402.2 L373.7,400.2 L374.5,401.5 L375.4,399.8 L376.2,370.6 L377.1,374.3 L377.9,394.1 L378.7,401.5 L379.6,394.8 L380.4,386.0 L381.3,368.6 L382.1,387.4 L382.9,403.2 L383.8,384.4 L384.6,377.6 L385.5,373.3 L386.3,376.3 L387.2,388.4 L388.0,325.2 L388.8,305.0 L389.7,306.0 L390.5,324.2 L391.4,338.6 L392.2,328.9 L393.0,317.8 L393.9,326.9 L394.7,319.5 L395.6,297.9 L396.4,280.5 L397.3,283.8 L398.1,286.5 L398.9,307.0 L399.8,308.7 L400.6,306.0 L401.5,313.4 L402.3,316.4 L403.1,329.9 L404.0,341.7 L404.8,355.8 L405.7,354.4 L406.5,352.8 L407.3,358.5 L408.2,367.9 L409.0,370.2 L409.9,377.6 L410.7,370.2 L411.6,372.9 L412.4,382.0 L413.2,382.7 L414.1,389.1 L414.9,399.5 L415.8,400.2 L416.6,400.8 L417.4,395.8 L418.3,393.1 L419.1,389.7 L420.0,393.8 L420.8,400.2 L421.7,406.6 L422.5,408.9 L423.3,409.9 L424.2,412.6 L425.0,413.3 L425.9,413.6 L426.7,412.9 L427.5,415.0 L428.4,415.6 L429.2,416.3 L430.1,417.3 L430.9,416.6 L431.8,418.0 L432.6,418.7 L433.4,420.0 L434.3,420.0 L435.1,420.0 L436.0,420.0 L436.8,420.0 L437.6,420.0 L438.5,420.0 L439.3,420.0 L440.2,420.0 L441.0,420.0 L441.9,420.0 L442.7,420.0 L443.5,420.0 L444.4,420.0 L445.2,420.0 L446.1,420.0 L446.9,420.0 L447.7,420.0 L448.6,420.0 L449.4,420.0 L450.3,419.7 L451.1,416.0 L451.9,417.3 L452.8,418.7 L453.6,420.0 L454.5,418.3 L455.3,420.0 L456.2,418.7 L457.0,418.0 L457.8,420.0 L458.7,420.0 L459.5,416.0 L460.4,420.0 L461.2,420.0 L462.0,420.0 L462.9,420.0 L463.7,420.0 L464.6,420.0 L465.4,419.7 L466.3,416.3 L467.1,417.6 L467.9,418.7 L468.8,419.7 L469.6,419.3 L470.5,411.6 L471.3,402.9 L472.1,410.6 L473.0,402.2 L473.8,387.4 L474.7,398.8 L475.5,370.6 L476.4,347.7 L477.2,341.3 L478.0,331.9 L478.9,324.2 L479.7,349.4 L480.6,355.4 L481.4,364.9 L482.2,360.1 L483.1,357.5 L483.9,354.1 L484.8,364.5 L485.6,353.4 L486.5,334.6 L487.3,322.5 L488.1,321.8 L489.0,307.7 L489.8,317.1 L490.7,296.9 L491.5,286.2 L492.3,283.1 L493.2,282.5 L494.0,287.2 L494.9,290.9 L495.7,290.9 L496.5,280.8 L497.4,284.5 L498.2,290.2 L499.1,282.5 L499.9,281.5 L500.8,280.1 L501.6,277.1 L502.4,277.1 L503.3,284.5 L504.1,282.8 L505.0,284.5 L505.8,280.8 L506.6,306.7 L507.5,296.6 L508.3,278.1 L509.2,302.7 L510.0,334.3 L510.9,313.7 L511.7,343.0 L512.5,337.3 L513.4,327.9 L514.2,303.7 L515.1,341.7 L515.9,343.7 L516.7,350.7 L517.6,346.4 L518.4,362.5 L519.3,362.5 L520.1,346.4 L521.0,350.1 L521.8,315.4 L522.6,313.1 L523.5,298.6 L524.3,291.9 L525.2,285.8 L526.0,283.5 L526.8,288.5 L527.7,333.2 L528.5,365.5 L529.4,377.0 L530.2,355.4 L531.1,356.1 L531.9,360.5 L532.7,355.4 L533.6,347.4 L534.4,333.6 L535.3,338.6 L536.1,362.2 L536.9,350.7 L537.8,350.4 L538.6,372.6 L539.5,375.6 L540.3,382.3 L541.2,375.6 L542.0,361.5 L542.8,362.5 L543.7,347.4 L544.5,290.9 L545.4,310.0 L546.2,301.3 L547.0,278.8 L547.9,315.1 L548.7,297.3 L549.6,291.6 L550.4,307.7 L551.2,285.5 L552.1,291.9 L552.9,287.2 L553.8,296.9 L554.6,284.5 L555.5,284.2 L556.3,284.5 L557.1,289.5 L558.0,286.8 L558.8,287.5 L559.7,297.9 L560.5,296.3 L561.3,294.9 L562.2,299.0 L563.0,313.7 L563.9,304.7 L564.7,292.2 L565.6,325.5 L566.4,335.3 L567.2,316.1 L568.1,272.1 L568.9,285.8 L569.8,283.5 L570.6,286.5 L571.4,271.7 L572.3,277.8 L573.1,275.4 L574.0,277.8 L574.8,277.8 L575.7,287.9 L576.5,285.2 L577.3,287.5 L578.2,283.8 L579.0,279.5 L579.9,286.5 L580.7,287.9 L581.5,294.6 L582.4,307.4 L583.2,292.2 L584.1,299.3 L584.9,284.5 L585.8,279.8 L586.6,281.5 L587.4,286.5 L588.3,301.6 L589.1,340.0 L590.0,354.1 L590.8,372.9 L591.6,392.8 L592.5,401.8 L593.3,409.6 L594.2,405.5 L595.0,401.2 L595.8,384.4 L596.7,383.0 L597.5,380.7 L598.4,381.7 L599.2,384.7 L600.1,386.0 L600.9,382.3 L601.7,397.1 L602.6,399.2 L603.4,396.8 L604.3,394.8 L605.1,399.2 L605.9,404.5 L606.8,403.5 L607.6,401.8 L608.5,398.1 L609.3,399.8 L610.2,396.1 L611.0,410.6 L611.8,407.6 L612.7,407.6 L613.5,400.2 L614.4,387.7 L615.2,376.0 L616.0,350.1 L616.9,326.9 L617.7,308.4 L618.6,318.8 L619.4,310.4 L620.3,284.2 L621.1,289.2 L621.9,301.3 L622.8,333.9 L623.6,348.4 L624.5,359.1 L625.3,338.0 L626.1,324.5 L627.0,324.5 L627.8,301.0 L628.7,327.5 L629.5,318.1 L630.4,351.4 L631.2,333.6 L632.0,323.5 L632.9,320.8 L633.7,348.7 L634.6,349.1 L635.4,335.3 L636.2,304.3 L637.1,304.3 L637.9,300.6 L638.8,311.4 L639.6,306.0 L640.4,296.9 L641.3,303.7 L642.1,317.1 L643.0,301.6 L643.8,316.1 L644.7,329.2 L645.5,339.0 L646.3,367.2 L647.2,387.4 L648.0,390.4 L648.9,389.1 L649.7,394.1 L650.5,392.4 L651.4,390.4 L652.2,385.0 L653.1,362.8 L653.9,363.2 L654.8,361.8 L655.6,365.9 L656.4,372.6 L657.3,373.9 L658.1,374.9 L659.0,377.0 L659.8,385.0 L660.6,388.4 L661.5,377.0 L662.3,378.6 L663.2,397.1 L664.0,408.9 L664.9,415.0 L665.7,409.2 L666.5,388.1 L667.4,402.9 L668.2,367.9 L669.1,368.6 L669.9,404.2 L670.7,406.9 L671.6,387.4 L672.4,365.2 L673.3,350.1 L674.1,353.1 L675.0,320.8 L675.8,323.5 L676.6,300.6 L677.5,288.2 L678.3,301.6 L679.2,294.2 L680.0,288.5" stroke="#1f77b4" stroke-width="2" fill="none" opacity="0.8"/>
<!-- Hydro Generation -->
<path d="M80.0,363.8 L80.8,363.8 L81.7,363.8 L82.5,363.5 L83.4,363.2 L84.2,363.5 L85.0,363.8 L85.9,363.5 L86.7,363.5 L87.6,363.5 L88.4,363.8 L89.3,363.8 L90.1,363.8 L90.9,363.5 L91.8,363.5 L92.6,363.5 L93.5,363.5 L94.3,363.8 L95.1,363.5 L96.0,363.8 L96.8,363.5 L97.7,363.8 L98.5,363.8 L99.4,363.5 L100.2,363.5 L101.0,363.5 L101.9,363.8 L102.7,363.5 L103.6,363.5 L104.4,363.5 L105.2,363.8 L106.1,362.5 L106.9,362.2 L107.8,359.5 L108.6,362.2 L109.5,363.5 L110.3,363.5 L111.1,364.9 L112.0,364.5 L112.8,364.5 L113.7,363.8 L114.5,363.5 L115.3,363.8 L116.2,363.5 L117.0,363.5 L117.9,363.8 L118.7,363.8 L119.6,363.5 L120.4,363.5 L121.2,363.2 L122.1,363.2 L122.9,363.5 L123.8,363.2 L124.6,363.5 L125.4,363.5 L126.3,363.5 L127.1,363.8 L128.0,363.8 L128.8,363.8 L129.6,363.8 L130.5,363.5 L131.3,363.5 L132.2,363.8 L133.0,363.5 L133.9,363.5 L134.7,363.2 L135.5,363.8 L136.4,363.5 L137.2,363.2 L138.1,363.2 L138.9,363.2 L139.7,363.2 L140.6,363.5 L141.4,363.2 L142.3,360.5 L143.1,363.5 L144.0,363.8 L144.8,363.2 L145.6,363.5 L146.5,363.8 L147.3,363.5 L148.2,363.5 L149.0,363.8 L149.8,363.5 L150.7,363.5 L151.5,363.5 L152.4,363.5 L153.2,366.5 L154.1,363.2 L154.9,363.2 L155.7,362.8 L156.6,362.8 L157.4,362.5 L158.3,362.8 L159.1,363.2 L159.9,363.2 L160.8,362.2 L161.6,362.8 L162.5,362.5 L163.3,362.5 L164.2,362.5 L165.0,362.5 L165.8,362.2 L166.7,362.5 L167.5,362.8 L168.4,362.5 L169.2,362.5 L170.0,362.2 L170.9,362.5 L171.7,362.5 L172.6,362.2 L173.4,362.5 L174.2,363.2 L175.1,362.5 L175.9,362.2 L176.8,362.2 L177.6,361.5 L181.0,361.2 L181.8,360.8 L182.7,360.5 L183.5,360.8 L184.3,360.5 L185.2,360.1 L186.0,360.1 L186.9,360.5 L187.7,360.5 L188.6,360.8 L189.4,360.5 L190.2,360.5 L191.1,360.5 L191.9,360.5 L192.8,360.8 L193.6,360.5 L194.4,361.5 L195.3,360.8 L196.1,361.2 L197.0,361.2 L197.8,361.8 L198.7,362.5 L199.5,362.5 L200.3,362.2 L201.2,362.5 L202.0,362.2 L202.9,361.8 L203.7,362.5 L204.5,361.8 L205.4,362.2 L206.2,362.2 L207.1,362.2 L207.9,362.5 L208.8,362.2 L209.6,362.2 L210.4,361.8 L211.3,361.8 L212.1,361.8 L213.0,362.2 L213.8,361.8 L214.6,361.5 L215.5,361.5 L216.3,362.2 L217.2,361.5 L218.0,361.8 L218.8,362.2 L219.7,360.8 L220.5,360.8 L221.4,360.8 L222.2,360.5 L223.1,360.5 L223.9,360.1 L224.7,360.1 L225.6,360.8 L226.4,360.8 L227.3,361.2 L228.1,361.2 L228.9,361.2 L229.8,361.2 L230.6,360.8 L231.5,360.8 L232.3,360.8 L233.2,360.8 L234.0,360.8 L234.8,360.8 L235.7,360.5 L236.5,360.8 L237.4,361.2 L238.2,360.8 L239.0,360.8 L239.9,361.2 L240.7,361.2 L241.6,361.5 L242.4,361.5 L243.3,361.2 L244.1,361.5 L244.9,361.8 L245.8,362.2 L246.6,361.5 L247.5,361.8 L248.3,361.8 L249.1,361.8 L250.0,361.8 L250.8,361.8 L251.7,361.2 L252.5,361.5 L253.4,361.5 L254.2,361.2 L255.0,361.2 L255.9,361.2 L256.7,361.2 L257.6,359.8 L258.4,359.5 L259.2,358.5 L260.1,358.5 L260.9,358.8 L261.8,358.8 L262.6,358.8 L263.5,359.1 L264.3,360.1 L265.1,361.2 L266.0,361.2 L266.8,360.8 L267.7,360.5 L268.5,360.5 L269.3,360.5 L270.2,360.5 L271.0,360.8 L271.9,361.2 L272.7,360.5 L273.5,360.1 L274.4,359.8 L275.2,359.8 L276.1,359.8 L276.9,360.1 L277.8,359.1 L278.6,358.8 L279.4,358.8 L280.3,359.5 L281.1,359.1 L282.0,359.1 L282.8,358.8 L283.6,359.1 L284.5,359.1 L285.3,358.8 L286.2,359.5 L287.0,359.1 L287.9,359.8 L288.7,359.5 L289.5,359.5 L290.4,360.1 L291.2,360.5 L292.1,360.1 L292.9,360.1 L293.7,359.8 L294.6,360.5 L295.4,360.1 L296.3,360.8 L297.1,360.5 L298.0,360.8 L298.8,360.8 L299.6,360.1 L300.5,360.1 L301.3,359.8 L302.2,359.5 L303.0,359.5 L303.8,358.8 L304.7,358.8 L305.5,358.1 L306.4,358.8 L307.2,358.5 L308.1,358.5 L308.9,358.8 L309.7,359.1 L310.6,358.8 L311.4,358.8 L312.3,359.1 L313.1,359.8 L313.9,359.5 L314.8,359.8 L315.6,359.8 L316.5,359.8 L317.3,360.1 L318.1,360.1 L319.0,360.5 L319.8,360.5 L320.7,359.1 L321.5,359.1 L322.4,358.5 L323.2,360.5 L324.0,359.5 L324.9,360.1 L325.7,354.4 L326.6,354.8 L327.4,354.8 L328.2,355.4 L329.1,355.4 L329.9,356.5 L330.8,356.1 L331.6,356.5 L332.5,356.5 L333.3,355.8 L334.1,356.1 L335.0,356.1 L335.8,356.5 L336.7,355.8 L337.5,355.8 L338.3,356.1 L339.2,355.8 L340.0,356.5 L340.9,355.1 L341.7,355.1 L342.6,354.8 L343.4,353.8 L344.2,354.4 L345.1,354.1 L345.9,354.8 L346.8,354.8 L347.6,354.8 L348.4,355.1 L349.3,355.1 L350.1,355.1 L351.0,354.8 L351.8,355.1 L352.7,355.8 L353.5,355.4 L354.3,355.4 L355.2,354.4 L356.0,354.4 L356.9,354.8 L357.7,354.1 L358.5,354.4 L359.4,354.1 L360.2,354.4 L361.1,354.1 L361.9,354.1 L362.7,354.1 L363.6,354.1 L364.4,354.4 L365.3,354.4 L366.1,354.1 L367.0,354.4 L367.8,354.8 L368.6,355.1 L369.5,355.1 L370.3,354.8 L371.2,355.1 L372.0,355.4 L372.8,354.4 L373.7,355.8 L374.5,355.4 L375.4,355.8 L376.2,356.1 L377.1,356.1 L377.9,356.1 L378.7,356.1 L379.6,355.8 L380.4,356.1 L381.3,355.8 L382.1,355.8 L382.9,355.4 L383.8,356.1 L384.6,355.8 L385.5,354.8 L386.3,355.1 L387.2,355.8 L388.0,355.1 L388.8,355.4 L389.7,355.1 L390.5,355.1 L391.4,355.1 L392.2,354.8 L393.0,355.1 L393.9,355.1 L394.7,355.1 L395.6,354.8 L396.4,355.1 L397.3,354.8 L398.1,355.1 L398.9,354.8 L399.8,355.1 L400.6,354.8 L401.5,354.8 L402.3,354.8 L403.1,354.4 L404.0,354.4 L404.8,354.8 L405.7,354.8 L406.5,355.1 L407.3,354.8 L408.2,355.1 L409.0,355.4 L409.9,355.4 L410.7,355.8 L411.6,355.4 L412.4,355.4 L413.2,355.8 L414.1,355.1 L414.9,354.8 L415.8,354.4 L416.6,354.8 L417.4,354.8 L418.3,355.1 L419.1,355.1 L420.0,354.8 L420.8,355.4 L421.7,354.8 L422.5,355.4 L423.3,355.1 L424.2,355.4 L425.0,355.4 L425.9,355.1 L426.7,355.1 L427.5,354.4 L428.4,353.4 L429.2,353.8 L430.1,353.1 L430.9,353.4 L431.8,353.4 L432.6,352.1 L433.4,352.8 L434.3,352.1 L435.1,352.4 L436.0,352.4 L436.8,352.4 L437.6,351.7 L438.5,351.7 L439.3,352.1 L440.2,351.4 L441.0,351.4 L441.9,352.4 L442.7,352.4 L443.5,352.4 L444.4,351.7 L445.2,353.4 L446.1,354.8 L446.9,354.8 L447.7,355.1 L448.6,354.8 L449.4,355.1 L450.3,354.8 L451.1,354.8 L451.9,354.8 L452.8,354.8 L453.6,354.8 L454.5,354.8 L455.3,354.8 L456.2,355.1 L457.0,355.1 L457.8,354.4 L458.7,354.8 L459.5,354.8 L460.4,354.8 L461.2,354.4 L462.0,354.1 L462.9,353.1 L463.7,353.1 L464.6,353.4 L465.4,352.1 L466.3,352.1 L467.1,352.4 L467.9,352.4 L468.8,352.4 L469.6,352.1 L470.5,351.7 L471.3,351.4 L472.1,351.1 L473.0,351.1 L473.8,351.4 L474.7,351.1 L475.5,350.4 L476.4,350.4 L477.2,350.7 L478.0,351.1 L478.9,350.7 L479.7,350.7 L480.6,350.7 L481.4,350.1 L482.2,351.1 L483.1,350.4 L483.9,345.4 L484.8,348.7 L485.6,350.7 L486.5,350.7 L487.3,351.1 L488.1,351.7 L489.0,351.4 L489.8,351.4 L490.7,352.1 L491.5,351.7 L492.3,351.4 L493.2,350.4 L494.0,349.7 L494.9,350.1 L495.7,350.4 L496.5,350.4 L497.4,350.1 L498.2,350.7 L499.1,352.1 L499.9,352.4 L500.8,352.1 L501.6,353.4 L502.4,352.4 L503.3,352.1 L504.1,352.1 L505.0,352.8 L505.8,352.4 L506.6,353.1 L507.5,353.1 L508.3,353.1 L509.2,353.4 L510.0,353.1 L510.9,353.1 L511.7,353.4 L512.5,352.8 L513.4,352.1 L514.2,351.7 L515.1,351.7 L515.9,352.1 L516.7,352.1 L517.6,351.7 L518.4,352.1 L519.3,352.8 L520.1,352.8 L521.0,352.8 L521.8,352.8 L522.6,352.1 L523.5,352.1 L524.3,352.4 L525.2,352.4 L526.0,352.8 L526.8,352.1 L527.7,351.7 L528.5,352.1 L529.4,352.1 L530.2,352.1 L531.1,351.7 L531.9,351.7 L532.7,351.7 L533.6,351.7 L534.4,351.7 L535.3,351.4 L536.1,351.4 L536.9,351.4 L537.8,351.7 L538.6,351.4 L539.5,351.1 L540.3,351.7 L541.2,352.1 L542.0,352.1 L542.8,352.4 L543.7,351.7 L544.5,352.1 L545.4,352.4 L546.2,352.8 L547.0,352.4 L547.9,353.8 L548.7,354.1 L549.6,355.1 L550.4,355.4 L551.2,356.1 L552.1,357.1 L552.9,356.8 L553.8,356.8 L554.6,356.8 L555.5,356.5 L556.3,356.1 L557.1,355.8 L558.0,355.1 L558.8,355.4 L559.7,355.8 L560.5,354.8 L561.3,353.8 L562.2,353.8 L563.0,354.4 L563.9,354.4 L564.7,354.4 L565.6,354.4 L566.4,356.8 L567.2,353.1 L568.1,352.8 L568.9,353.4 L569.8,353.8 L570.6,352.8 L571.4,353.1 L572.3,353.1 L573.1,353.8 L574.0,353.8 L574.8,354.4 L575.7,353.8 L576.5,354.1 L577.3,354.1 L578.2,352.8 L579.0,351.7 L579.9,352.1 L580.7,362.2 L581.5,362.2 L582.4,362.5 L583.2,362.2 L584.1,361.8 L584.9,361.8 L585.8,362.2 L586.6,354.4 L587.4,352.1 L588.3,352.1 L589.1,352.4 L590.0,352.1 L590.8,352.1 L591.6,352.4 L592.5,352.1 L593.3,352.8 L594.2,352.1 L595.0,352.1 L595.8,352.8 L596.7,352.4 L597.5,352.8 L598.4,352.8 L599.2,352.4 L600.1,355.1 L600.9,354.8 L601.7,354.8 L602.6,353.4 L603.4,353.8 L604.3,353.4 L605.1,353.4 L605.9,353.4 L606.8,352.8 L607.6,353.8 L608.5,353.4 L609.3,353.8 L610.2,354.4 L611.0,354.8 L611.8,356.1 L612.7,356.5 L613.5,356.1 L614.4,355.8 L615.2,356.8 L616.0,355.1 L616.9,354.8 L617.7,354.8 L618.6,355.1 L619.4,354.8 L620.3,354.8 L621.1,354.8 L621.9,354.8 L622.8,354.8 L623.6,354.1 L624.5,353.8 L625.3,354.4 L626.1,354.4 L627.0,354.1 L627.8,354.4 L628.7,353.8 L629.5,355.1 L630.4,354.4 L631.2,354.4 L632.0,354.4 L632.9,354.8 L633.7,354.4 L634.6,355.1 L635.4,354.8 L636.2,355.4 L637.1,355.1 L637.9,354.8 L638.8,354.8 L639.6,355.4 L640.4,355.4 L641.3,355.8 L642.1,355.4 L643.0,355.4 L643.8,355.1 L644.7,355.1 L645.5,354.8 L646.3,355.4 L647.2,355.4 L648.0,355.1 L648.9,354.4 L649.7,354.8 L650.5,355.1 L651.4,355.1 L652.2,354.8 L653.1,354.8 L653.9,354.8 L654.8,355.4 L655.6,355.4 L656.4,355.8 L657.3,355.4 L658.1,356.1 L659.0,355.4 L659.8,355.4 L660.6,355.8 L661.5,355.1 L662.3,355.4 L663.2,355.8 L664.0,352.1 L664.9,337.3 L665.7,355.1 L666.5,355.1 L667.4,355.1 L668.2,354.4 L669.1,355.1 L669.9,354.8 L670.7,355.1 L671.6,355.1 L672.4,355.1 L673.3,354.8 L674.1,355.1 L675.0,354.8 L675.8,355.1 L676.6,355.4 L677.5,354.4 L678.3,355.4 L679.2,354.4 L680.0,354.1" stroke="#ff7f0e" stroke-width="2" fill="none" opacity="0.8"/>
<!-- Thermal Generation -->
<path d="M80.0,323.8 L80.8,323.5 L81.7,322.5 L82.5,321.1 L83.4,322.8 L84.2,322.2 L85.0,322.8 L85.9,322.5 L86.7,322.2 L87.6,328.5 L88.4,330.6 L89.3,330.9 L90.1,332.9 L90.9,333.2 L91.8,332.9 L92.6,331.9 L93.5,331.6 L94.3,331.2 L95.1,331.2 L96.0,331.9 L96.8,330.9 L97.7,331.2 L98.5,331.2 L99.4,330.9 L100.2,329.9 L101.0,331.2 L101.9,331.6 L102.7,331.2 L103.6,330.6 L104.4,305.3 L105.2,315.1 L106.1,314.8 L106.9,332.2 L107.8,366.5 L108.6,366.2 L109.5,366.9 L110.3,366.9 L111.1,366.9 L112.0,366.2 L112.8,366.9 L113.7,366.5 L114.5,367.5 L115.3,367.5 L116.2,365.2 L117.0,365.9 L117.9,364.9 L118.7,356.1 L119.6,357.1 L120.4,346.7 L121.2,337.3 L122.1,337.6 L122.9,330.9 L123.8,330.6 L124.6,300.0 L125.4,329.6 L126.3,331.2 L127.1,332.2 L128.0,331.9 L128.8,331.6 L129.6,331.6 L130.5,330.6 L131.3,330.9 L132.2,330.9 L133.0,331.2 L133.9,330.2 L134.7,329.6 L135.5,330.2 L136.4,331.9 L137.2,330.9 L138.1,304.7 L138.9,305.3 L139.7,331.2 L140.6,310.0 L141.4,302.3 L142.3,301.0 L143.1,330.2 L144.0,329.6 L144.8,330.2 L145.6,329.9 L146.5,329.9 L147.3,330.6 L148.2,331.2 L149.0,331.2 L149.8,331.2 L150.7,330.6 L151.5,330.9 L152.4,330.9 L153.2,330.9 L154.1,330.6 L154.9,330.6 L155.7,330.9 L156.6,331.2 L157.4,332.2 L158.3,332.2 L159.1,330.6 L159.9,332.6 L160.8,331.2 L161.6,385.4 L162.5,384.7 L163.3,374.6 L164.2,361.5 L165.0,318.1 L165.8,301.3 L166.7,304.0 L167.5,325.9 L168.4,330.6 L169.2,330.9 L170.0,328.5 L170.9,328.9 L171.7,329.2 L172.6,329.6 L173.4,329.2 L174.2,329.6 L175.1,323.2 L175.9,330.2 L176.8,330.6 L177.6,329.9 L181.0,381.7 L181.8,371.9 L182.7,358.5 L183.5,328.2 L184.3,327.9 L185.2,292.6 L186.0,291.9 L186.9,290.2 L187.7,289.9 L188.6,289.9 L189.4,293.2 L190.2,291.6 L191.1,300.3 L191.9,316.4 L192.8,316.4 L193.6,316.4 L194.4,323.5 L195.3,290.9 L196.1,290.5 L197.0,329.2 L197.8,328.9 L198.7,308.0 L199.5,315.4 L200.3,320.8 L201.2,307.0 L202.0,309.0 L202.9,313.7 L203.7,311.7 L204.5,290.9 L205.4,287.2 L206.2,287.5 L207.1,287.9 L207.9,288.5 L208.8,292.6 L209.6,300.6 L210.4,286.5 L211.3,292.2 L212.1,315.8 L213.0,318.8 L213.8,310.0 L214.6,303.3 L215.5,287.2 L216.3,294.2 L217.2,304.3 L218.0,303.3 L218.8,315.4 L219.7,297.6 L220.5,307.7 L221.4,325.5 L222.2,328.2 L223.1,328.9 L223.9,321.5 L224.7,327.9 L225.6,287.5 L226.4,304.7 L227.3,322.5 L228.1,313.1 L228.9,309.7 L229.8,316.8 L230.6,318.1 L231.5,296.9 L232.3,297.3 L233.2,316.4 L234.0,314.1 L234.8,316.1 L235.7,306.4 L236.5,301.6 L237.4,330.9 L238.2,299.0 L239.0,312.1 L239.9,316.8 L240.7,298.3 L241.6,308.7 L242.4,307.0 L243.3,304.3 L244.1,297.6 L244.9,295.9 L245.8,294.6 L246.6,294.9 L247.5,297.9 L248.3,303.7 L249.1,312.1 L250.0,293.6 L250.8,292.6 L251.7,314.8 L252.5,315.1 L253.4,294.9 L254.2,311.4 L255.0,293.6 L255.9,285.2 L256.7,288.2 L257.6,284.2 L258.4,328.5 L259.2,330.6 L260.1,323.8 L260.9,317.1 L261.8,325.5 L262.6,329.2 L263.5,314.1 L264.3,288.9 L265.1,282.1 L266.0,284.2 L266.8,286.5 L267.7,284.2 L268.5,282.8 L269.3,283.1 L270.2,287.2 L271.0,283.8 L271.9,288.5 L272.7,286.8 L273.5,286.5 L274.4,292.2 L275.2,284.2 L276.1,284.8 L276.9,284.2 L277.8,302.0 L278.6,331.9 L279.4,330.9 L280.3,332.2 L281.1,330.9 L282.0,332.2 L282.8,332.2 L283.6,332.2 L284.5,312.7 L285.3,291.9 L286.2,283.1 L287.0,283.1 L287.9,283.8 L288.7,287.5 L289.5,283.1 L290.4,283.8 L291.2,282.1 L292.1,283.1 L292.9,298.3 L293.7,303.0 L294.6,299.0 L295.4,281.1 L296.3,283.8 L297.1,280.8 L298.0,311.1 L298.8,325.9 L299.6,329.2 L300.5,328.9 L301.3,330.2 L302.2,329.6 L303.0,329.9 L303.8,329.6 L304.7,326.5 L305.5,281.8 L306.4,280.8 L307.2,280.8 L308.1,280.8 L308.9,280.8 L309.7,287.9 L310.6,307.7 L311.4,315.8 L312.3,316.8 L313.1,323.5 L313.9,326.9 L314.8,317.1 L315.6,310.7 L316.5,294.9 L317.3,292.2 L318.1,315.1 L319.0,323.2 L319.8,327.5 L320.7,327.9 L321.5,352.4 L322.4,353.1 L323.2,346.0 L324.0,330.6 L324.9,330.6 L325.7,321.8 L326.6,283.5 L327.4,282.1 L328.2,282.1 L329.1,284.2 L329.9,283.5 L330.8,283.5 L331.6,284.5 L332.5,329.9 L333.3,328.2 L334.1,328.2 L335.0,321.8 L335.8,318.8 L336.7,315.4 L337.5,286.5 L338.3,303.7 L339.2,328.2 L340.0,318.5 L340.9,317.1 L341.7,307.7 L342.6,308.0 L343.4,282.8 L344.2,296.6 L345.1,314.1 L345.9,301.0 L346.8,299.3 L347.6,302.7 L348.4,300.6 L349.3,303.7 L350.1,285.5 L351.0,282.8 L351.8,283.5 L352.7,283.5 L353.5,310.4 L354.3,304.3 L355.2,297.9 L356.0,292.2 L356.9,296.9 L357.7,285.8 L358.5,291.6 L359.4,287.2 L360.2,285.8 L361.1,284.8 L361.9,285.2 L362.7,285.5 L363.6,301.6 L364.4,315.8 L365.3,306.7 L366.1,286.5 L367.0,286.8 L367.8,289.2 L368.6,291.2 L369.5,311.4 L370.3,315.1 L371.2,318.5 L372.0,320.5 L372.8,320.8 L373.7,314.4 L374.5,314.1 L375.4,316.4 L376.2,316.8 L377.1,317.1 L377.9,288.5 L378.7,308.4 L379.6,304.7 L380.4,320.1 L381.3,316.1 L382.1,323.2 L382.9,341.3 L383.8,325.5 L384.6,325.2 L385.5,323.5 L386.3,329.9 L387.2,293.2 L388.0,305.3 L388.8,311.4 L389.7,334.3 L390.5,344.0 L391.4,339.6 L392.2,343.0 L393.0,339.6 L393.9,339.6 L394.7,339.0 L395.6,342.7 L396.4,341.7 L397.3,338.3 L398.1,352.4 L398.9,365.5 L399.8,374.6 L400.6,363.5 L401.5,335.6 L402.3,335.3 L403.1,356.5 L404.0,352.8 L404.8,335.6 L405.7,304.0 L406.5,311.7 L407.3,295.3 L408.2,295.9 L409.0,296.3 L409.9,295.9 L410.7,296.9 L411.6,295.9 L412.4,295.9 L413.2,298.3 L414.1,313.4 L414.9,312.4 L415.8,312.4 L416.6,296.3 L417.4,296.6 L418.3,296.9 L419.1,318.8 L420.0,326.9 L420.8,327.5 L421.7,326.2 L422.5,329.6 L423.3,328.5 L424.2,324.8 L425.0,324.8 L425.9,324.8 L426.7,311.1 L427.5,313.4 L428.4,314.8 L429.2,326.2 L430.1,329.9 L430.9,326.5 L431.8,325.9 L432.6,329.2 L433.4,329.6 L434.3,329.9 L435.1,330.2 L436.0,329.9 L436.8,332.2 L437.6,331.9 L438.5,328.5 L439.3,330.9 L440.2,327.2 L441.0,329.6 L441.9,328.5 L442.7,325.9 L443.5,324.2 L444.4,324.5 L445.2,324.2 L446.1,320.8 L446.9,317.8 L447.7,317.1 L448.6,319.8 L449.4,311.7 L450.3,318.5 L451.1,319.1 L451.9,302.3 L452.8,284.8 L453.6,284.2 L454.5,284.2 L455.3,284.5 L456.2,284.5 L457.0,283.8 L457.8,285.8 L458.7,283.1 L459.5,354.8 L460.4,355.4 L461.2,354.4 L462.0,354.1 L462.9,354.1 L463.7,354.4 L464.6,354.8 L465.4,355.1 L466.3,354.8 L467.1,328.5 L467.9,328.5 L468.8,328.2 L469.6,284.5 L470.5,282.5 L471.3,282.1 L472.1,282.1 L473.0,280.8 L473.8,285.8 L474.7,281.8 L475.5,286.2 L476.4,282.8 L477.2,282.8 L478.0,285.5 L478.9,289.9 L479.7,331.6 L480.6,338.3 L481.4,332.9 L482.2,335.9 L483.1,330.2 L483.9,329.9 L484.8,329.9 L485.6,331.6 L486.5,333.9 L487.3,324.8 L488.1,283.1 L489.0,295.9 L489.8,323.5 L490.7,324.8 L491.5,327.2 L492.3,328.2 L493.2,331.9 L494.0,355.1 L494.9,355.4 L495.7,355.1 L496.5,347.7 L497.4,336.3 L498.2,288.5 L499.1,289.9 L499.9,345.7 L500.8,352.4 L501.6,348.7 L502.4,351.7 L503.3,356.5 L504.1,355.8 L505.0,353.8 L505.8,352.4 L506.6,354.8 L507.5,327.5 L508.3,288.9 L509.2,301.0 L510.0,327.9 L510.9,328.5 L511.7,328.2 L512.5,290.5 L513.4,292.2 L514.2,292.2 L515.1,291.6 L515.9,291.2 L516.7,290.5 L517.6,289.9 L518.4,286.2 L519.3,284.2 L520.1,287.5 L521.0,287.9 L521.8,321.8 L522.6,322.8 L523.5,356.5 L524.3,362.5 L525.2,379.7 L526.0,380.7 L526.8,352.8 L527.7,291.6 L528.5,297.3 L529.4,297.9 L530.2,294.6 L531.1,292.9 L531.9,293.2 L532.7,292.9 L533.6,290.5 L534.4,290.5 L535.3,286.8 L536.1,284.5 L536.9,287.5 L537.8,283.5 L538.6,287.2 L539.5,286.8 L540.3,294.2 L541.2,305.0 L542.0,305.3 L542.8,305.7 L543.7,311.4 L544.5,310.0 L545.4,330.2 L546.2,346.7 L547.0,327.5 L547.9,297.6 L548.7,284.8 L549.6,285.5 L550.4,285.5 L551.2,292.6 L552.1,320.1 L552.9,325.5 L553.8,325.9 L554.6,335.3 L555.5,336.3 L556.3,356.5 L557.1,344.3 L558.0,324.5 L558.8,285.2 L559.7,284.5 L560.5,281.1 L561.3,310.0 L562.2,306.4 L563.0,317.4 L563.9,321.5 L564.7,319.1 L565.6,321.1 L566.4,318.5 L567.2,327.2 L568.1,300.0 L568.9,282.1 L569.8,283.1 L570.6,284.2 L571.4,284.8 L572.3,282.5 L573.1,299.3 L574.0,337.3 L574.8,360.5 L575.7,360.8 L576.5,357.5 L577.3,351.1 L578.2,319.1 L579.0,283.5 L579.9,287.2 L580.7,306.4 L581.5,317.4 L582.4,323.5 L583.2,329.2 L584.1,330.9 L584.9,344.7 L585.8,341.7 L586.6,344.3 L587.4,340.3 L588.3,281.1 L589.1,283.8 L590.0,283.5 L590.8,284.2 L591.6,282.1 L592.5,282.5 L593.3,283.1 L594.2,282.8 L595.0,283.1 L595.8,283.5 L596.7,283.8 L597.5,283.8 L598.4,283.5 L599.2,286.2 L600.1,284.5 L600.9,300.0 L601.7,290.5 L602.6,286.5 L603.4,296.6 L604.3,289.2 L605.1,291.9 L605.9,283.5 L606.8,279.8 L607.6,314.1 L608.5,279.5 L609.3,280.8 L610.2,281.1 L611.0,278.4 L611.8,275.1 L612.7,277.4 L613.5,277.8 L614.4,277.8 L615.2,281.1 L616.0,273.1 L616.9,278.1 L617.7,273.1 L618.6,273.4 L619.4,273.4 L620.3,278.8 L621.1,278.8 L621.9,293.6 L622.8,294.6 L623.6,291.6 L624.5,292.9 L625.3,318.1 L626.1,315.8 L627.0,313.4 L627.8,317.8 L628.7,289.5 L629.5,276.1 L630.4,273.4 L631.2,269.7 L632.0,270.0 L632.9,275.4 L633.7,271.0 L634.6,271.0 L635.4,273.4 L636.2,277.1 L637.1,275.8 L637.9,275.4 L638.8,272.7 L639.6,271.7 L640.4,270.4 L641.3,290.5 L642.1,300.3 L643.0,300.0 L643.8,310.0 L644.7,311.7 L645.5,302.3 L646.3,286.5 L647.2,277.4 L648.0,273.4 L648.9,270.4 L649.7,269.4 L650.5,271.7 L651.4,289.5 L652.2,294.6 L653.1,283.1 L653.9,271.7 L654.8,272.7 L655.6,270.7 L656.4,270.7 L657.3,274.7 L658.1,270.4 L659.0,271.0 L659.8,271.7 L660.6,272.1 L661.5,294.6 L662.3,277.4 L663.2,270.7 L664.0,270.7 L664.9,274.7 L665.7,277.8 L666.5,291.2 L667.4,277.4 L668.2,272.4 L669.1,270.4 L669.9,268.7 L670.7,283.8 L671.6,282.8 L672.4,280.1 L673.3,269.4 L674.1,274.7 L675.0,311.1 L675.8,313.1 L676.6,314.1 L677.5,339.3 L678.3,339.3 L679.2,338.3 L680.0,311.1" stroke="#2ca02c" stroke-width="2" fill="none" opacity="0.8"/>
<!-- Solar Generation -->
<path d="M80.0,377.3 L80.8,376.6 L81.7,379.3 L82.5,384.4 L83.4,400.2 L84.2,418.0 L85.0,420.0 L85.9,420.0 L86.7,420.0 L87.6,420.0 L88.4,420.0 L89.3,420.0 L90.1,420.0 L90.9,420.0 L91.8,420.0 L92.6,420.0 L93.5,420.0 L94.3,420.0 L95.1,416.3 L96.0,389.7 L96.8,374.6 L97.7,373.9 L98.5,376.3 L99.4,377.3 L100.2,377.6 L101.0,375.6 L101.9,374.3 L102.7,375.6 L103.6,392.1 L104.4,417.0 L105.2,420.0 L106.1,420.0 L106.9,420.0 L107.8,420.0 L108.6,420.0 L109.5,420.0 L110.3,420.0 L111.1,420.0 L112.0,420.0 L112.8,420.0 L113.7,420.0 L114.5,420.0 L115.3,416.0 L116.2,391.4 L117.0,375.3 L117.9,374.6 L118.7,378.6 L119.6,379.0 L120.4,377.3 L121.2,377.6 L122.1,407.9 L122.9,373.9 L123.8,409.2 L124.6,415.3 L125.4,420.0 L126.3,420.0 L127.1,420.0 L128.0,420.0 L128.8,420.0 L129.6,420.0 L130.5,420.0 L131.3,420.0 L132.2,420.0 L133.0,420.0 L133.9,420.0 L134.7,420.0 L135.5,419.0 L136.4,409.9 L137.2,387.4 L138.1,382.0 L138.9,378.3 L139.7,380.0 L140.6,378.0 L141.4,395.5 L142.3,398.1 L143.1,399.2 L144.0,416.3 L144.8,418.7 L145.6,420.0 L146.5,420.0 L147.3,420.0 L148.2,420.0 L149.0,420.0 L149.8,420.0 L150.7,420.0 L151.5,420.0 L152.4,420.0 L153.2,420.0 L154.1,420.0 L154.9,420.0 L155.7,418.0 L156.6,415.6 L157.4,398.1 L158.3,378.0 L159.1,380.3 L159.9,384.0 L160.8,380.3 L161.6,385.4 L162.5,399.8 L163.3,415.0 L164.2,411.3 L165.0,419.7 L165.8,420.0 L166.7,420.0 L167.5,420.0 L168.4,420.0 L169.2,420.0 L170.0,420.0 L170.9,420.0 L171.7,420.0 L172.6,420.0 L173.4,420.0 L174.2,420.0 L175.1,420.0 L175.9,419.3 L176.8,401.2 L177.6,409.2 L178.5,420.0 L179.3,420.0 L180.1,420.0 L181.0,394.1 L181.8,381.3 L182.7,381.3 L183.5,400.8 L184.3,407.9 L185.2,419.3 L186.0,420.0 L186.9,420.0 L187.7,420.0 L188.6,420.0 L189.4,420.0 L190.2,420.0 L191.1,420.0 L191.9,420.0 L192.8,420.0 L193.6,420.0 L194.4,420.0 L195.3,420.0 L196.1,418.0 L197.0,402.9 L197.8,398.5 L198.7,404.9 L199.5,407.9 L200.3,410.6 L201.2,397.5 L202.0,395.8 L202.9,415.0 L203.7,405.2 L204.5,402.9 L205.4,419.7 L206.2,420.0 L207.1,420.0 L207.9,420.0 L208.8,420.0 L209.6,420.0 L210.4,420.0 L211.3,420.0 L212.1,420.0 L213.0,420.0 L213.8,420.0 L214.6,420.0 L215.5,420.0 L216.3,418.7 L217.2,411.9 L218.0,407.9 L218.8,399.5 L219.7,396.1 L220.5,389.4 L221.4,383.7 L222.2,397.5 L223.1,408.2 L223.9,416.6 L224.7,416.6 L225.6,419.7 L226.4,420.0 L227.3,420.0 L228.1,420.0 L228.9,420.0 L229.8,420.0 L230.6,420.0 L231.5,420.0 L232.3,420.0 L233.2,420.0 L234.0,420.0 L234.8,420.0 L235.7,420.0 L236.5,420.0 L237.4,418.3 L238.2,415.6 L239.0,411.6 L239.9,412.6 L240.7,406.2 L241.6,406.2 L242.4,407.9 L243.3,408.2 L244.1,416.3 L244.9,418.7 L245.8,419.7 L246.6,420.0 L247.5,420.0 L248.3,420.0 L249.1,420.0 L250.0,420.0 L250.8,420.0 L251.7,420.0 L252.5,420.0 L253.4,420.0 L254.2,420.0 L255.0,420.0 L255.9,420.0 L256.7,420.0 L257.6,418.3 L258.4,417.0 L259.2,405.9 L260.1,407.9 L260.9,403.5 L261.8,402.2 L262.6,405.9 L263.5,409.6 L264.3,410.2 L265.1,415.3 L266.0,419.7 L266.8,420.0 L267.7,420.0 L268.5,420.0 L269.3,420.0 L270.2,420.0 L271.0,420.0 L271.9,420.0 L272.7,420.0 L273.5,420.0 L274.4,420.0 L275.2,420.0 L276.1,420.0 L276.9,418.3 L277.8,392.4 L278.6,374.6 L279.4,373.9 L280.3,378.0 L281.1,378.6 L282.0,377.3 L282.8,374.9 L283.6,373.3 L284.5,374.6 L285.3,398.1 L286.2,419.3 L287.0,420.0 L287.9,420.0 L288.7,420.0 L289.5,420.0 L290.4,420.0 L291.2,420.0 L292.1,420.0 L292.9,420.0 L293.7,420.0 L294.6,420.0 L295.4,420.0 L296.3,420.0 L297.1,418.3 L298.0,393.1 L298.8,374.9 L299.6,374.9 L300.5,377.6 L301.3,379.7 L302.2,379.3 L303.0,377.0 L303.8,374.9 L304.7,376.6 L305.5,400.2 L306.4,419.7 L307.2,420.0 L308.1,420.0 L308.9,420.0 L309.7,420.0 L310.6,420.0 L311.4,420.0 L312.3,420.0 L313.1,420.0 L313.9,420.0 L314.8,420.0 L315.6,420.0 L316.5,420.0 L317.3,419.0 L318.1,394.1 L319.0,375.6 L319.8,375.6 L320.7,377.6 L321.5,380.0 L322.4,379.3 L323.2,377.0 L324.0,374.9 L324.9,377.0 L325.7,400.8 L326.6,419.7 L327.4,420.0 L328.2,420.0 L329.1,420.0 L329.9,420.0 L330.8,420.0 L331.6,420.0 L332.5,420.0 L333.3,420.0 L334.1,420.0 L335.0,420.0 L335.8,420.0 L336.7,420.0 L337.5,419.3 L338.3,395.5 L339.2,376.0 L340.0,376.6 L340.9,379.0 L341.7,388.7 L342.6,380.0 L343.4,377.3 L344.2,375.3 L345.1,377.6 L345.9,402.2 L346.8,419.7 L347.6,420.0 L348.4,420.0 L349.3,420.0 L350.1,420.0 L351.0,420.0 L351.8,420.0 L352.7,420.0 L353.5,420.0 L354.3,420.0 L355.2,420.0 L356.0,420.0 L356.9,420.0 L357.7,419.0 L358.5,410.9 L359.4,408.9 L360.2,392.1 L361.1,390.7 L361.9,390.7 L362.7,388.7 L363.6,395.1 L364.4,384.0 L365.3,391.4 L366.1,406.9 L367.0,420.0 L367.8,420.0 L368.6,420.0 L369.5,420.0 L370.3,420.0 L371.2,420.0 L372.0,420.0 L372.8,420.0 L373.7,420.0 L374.5,420.0 L375.4,420.0 L376.2,420.0 L377.1,420.0 L377.9,420.0 L378.7,416.0 L379.6,417.0 L380.4,413.3 L381.3,410.2 L382.1,404.2 L382.9,405.9 L383.8,410.6 L384.6,413.3 L385.5,418.7 L386.3,418.0 L387.2,420.0 L388.0,420.0 L388.8,420.0 L389.7,420.0 L390.5,420.0 L391.4,420.0 L392.2,420.0 L393.0,420.0 L393.9,420.0 L394.7,420.0 L395.6,420.0 L396.4,420.0 L397.3,420.0 L398.1,419.7 L398.9,413.6 L399.8,411.6 L400.6,389.4 L401.5,394.1 L402.3,381.3 L403.1,403.5 L404.0,393.1 L404.8,394.4 L405.7,415.3 L406.5,418.3 L407.3,420.0 L408.2,420.0 L409.0,420.0 L409.9,420.0 L410.7,420.0 L411.6,420.0 L412.4,420.0 L413.2,420.0 L414.1,420.0 L414.9,420.0 L415.8,420.0 L416.6,420.0 L417.4,420.0 L418.3,420.0 L419.1,418.0 L420.0,416.6 L420.8,414.6 L421.7,411.9 L422.5,408.2 L423.3,403.9 L424.2,405.2 L425.0,412.3 L425.9,415.3 L426.7,417.6 L427.5,420.0 L428.4,420.0 L429.2,420.0 L430.1,420.0 L430.9,420.0 L431.8,420.0 L432.6,420.0 L433.4,420.0 L434.3,420.0 L435.1,420.0 L436.0,420.0 L436.8,420.0 L437.6,420.0 L438.5,420.0 L439.3,419.0 L440.2,417.3 L441.0,406.6 L441.9,405.9 L442.7,405.9 L443.5,403.5 L444.4,403.2 L445.2,402.2 L446.1,410.9 L446.9,418.0 L447.7,420.0 L448.6,420.0 L449.4,420.0 L450.3,420.0 L451.1,420.0 L451.9,420.0 L452.8,420.0 L453.6,420.0 L454.5,420.0 L455.3,420.0 L456.2,420.0 L457.0,420.0 L457.8,420.0 L458.7,420.0 L459.5,418.3 L460.4,416.0 L461.2,415.0 L462.0,411.6 L462.9,405.2 L463.7,410.2 L464.6,410.9 L465.4,413.6 L466.3,416.6 L467.1,418.0 L467.9,420.0 L468.8,420.0 L469.6,420.0 L470.5,420.0 L471.3,420.0 L472.1,420.0 L473.0,420.0 L473.8,420.0 L474.7,420.0 L475.5,420.0 L476.4,420.0 L477.2,420.0 L478.0,420.0 L478.9,420.0 L479.7,418.0 L480.6,413.3 L481.4,412.6 L482.2,407.2 L483.1,401.5 L483.9,409.6 L484.8,415.0 L485.6,415.3 L486.5,409.2 L487.3,409.6 L488.1,420.0 L489.0,420.0 L489.8,420.0 L490.7,420.0 L491.5,420.0 L492.3,420.0 L493.2,420.0 L494.0,420.0 L494.9,420.0 L495.7,420.0 L496.5,420.0 L497.4,420.0 L498.2,420.0 L499.1,419.7 L499.9,412.6 L500.8,412.9 L501.6,388.4 L502.4,382.0 L503.3,385.0 L504.1,402.2 L505.0,400.5 L505.8,400.2 L506.6,414.6 L507.5,416.6 L508.3,420.0 L509.2,420.0 L510.0,420.0 L510.9,420.0 L511.7,420.0 L512.5,420.0 L513.4,420.0 L514.2,420.0 L515.1,420.0 L515.9,420.0 L516.7,420.0 L517.6,420.0 L518.4,420.0 L519.3,420.0 L520.1,404.5 L521.0,378.3 L521.8,377.6 L522.6,384.4 L523.5,381.7 L524.3,380.7 L525.2,379.0 L526.0,373.9 L526.8,396.1 L527.7,411.6 L528.5,420.0 L529.4,420.0 L530.2,420.0 L531.1,420.0 L531.9,420.0 L532.7,420.0 L533.6,420.0 L534.4,420.0 L535.3,420.0 L536.1,420.0 L536.9,420.0 L537.8,420.0 L538.6,420.0 L539.5,420.0 L540.3,415.3 L541.2,393.8 L542.0,396.5 L542.8,399.5 L543.7,404.5 L544.5,411.6 L545.4,415.3 L546.2,417.3 L547.0,417.3 L547.9,419.7 L548.7,420.0 L549.6,420.0 L550.4,420.0 L551.2,420.0 L552.1,420.0 L552.9,420.0 L553.8,420.0 L554.6,420.0 L555.5,420.0 L556.3,420.0 L557.1,420.0 L558.0,420.0 L558.8,420.0 L559.7,420.0 L560.5,415.3 L561.3,412.6 L562.2,386.0 L563.0,381.0 L563.9,382.0 L564.7,396.1 L565.6,401.2 L566.4,397.5 L567.2,403.9 L568.1,412.6 L568.9,420.0 L569.8,420.0 L570.6,420.0 L571.4,420.0 L572.3,420.0 L573.1,420.0 L574.0,420.0 L574.8,420.0 L575.7,420.0 L576.5,420.0 L577.3,420.0 L578.2,420.0 L579.0,420.0 L579.9,420.0 L580.7,404.5 L581.5,400.8 L582.4,400.5 L583.2,398.1 L584.1,398.5 L584.9,382.0 L585.8,379.0 L586.6,392.1 L587.4,384.7 L588.3,413.9 L589.1,420.0 L590.0,420.0 L590.8,420.0 L591.6,420.0 L592.5,420.0 L593.3,420.0 L594.2,420.0 L595.0,420.0 L595.8,420.0 L596.7,420.0 L597.5,420.0 L598.4,420.0 L599.2,420.0 L600.1,420.0 L600.9,403.9 L601.7,379.0 L602.6,378.0 L603.4,381.7 L604.3,383.7 L605.1,383.0 L605.9,380.0 L606.8,377.6 L607.6,384.7 L608.5,413.3 L609.3,420.0 L610.2,420.0 L611.0,420.0 L611.8,420.0 L612.7,420.0 L613.5,420.0 L614.4,420.0 L615.2,420.0 L616.0,420.0 L616.9,420.0 L617.7,420.0 L618.6,420.0 L619.4,420.0 L620.3,420.0 L621.1,404.9 L621.9,380.7 L622.8,387.0 L623.6,382.3 L624.5,384.0 L625.3,384.0 L626.1,380.7 L627.0,377.6 L627.8,385.7 L628.7,412.3 L629.5,420.0 L630.4,420.0 L631.2,420.0 L632.0,420.0 L632.9,420.0 L633.7,420.0 L634.6,420.0 L635.4,420.0 L636.2,420.0 L637.1,420.0 L637.9,420.0 L638.8,420.0 L639.6,420.0 L640.4,420.0 L641.3,407.2 L642.1,385.7 L643.0,380.0 L643.8,383.7 L644.7,385.7 L645.5,383.0 L646.3,377.0 L647.2,386.7 L648.0,392.4 L648.9,417.6 L649.7,420.0 L650.5,420.0 L651.4,420.0 L652.2,420.0 L653.1,420.0 L653.9,420.0 L654.8,420.0 L655.6,420.0 L656.4,420.0 L657.3,420.0 L658.1,420.0 L659.0,420.0 L659.8,420.0 L660.6,420.0 L661.5,416.3 L662.3,411.3 L663.2,400.2 L664.0,404.9 L664.9,395.8 L665.7,413.3 L666.5,410.2 L667.4,413.9 L668.2,414.6 L669.1,418.7 L669.9,420.0 L670.7,420.0 L671.6,420.0 L672.4,420.0 L673.3,420.0 L674.1,420.0 L675.0,420.0 L675.8,420.0 L676.6,420.0 L677.5,420.0 L678.3,420.0 L679.2,420.0 L680.0,420.0" stroke="#d62728" stroke-width="2" fill="none" opacity="0.8"/>
<!-- Forecast -->
<path d="M80.0,144.3 L80.8,146.6 L81.7,141.9 L82.5,141.3 L83.4,138.9 L84.2,141.3 L85.0,140.2 L85.9,139.9 L86.7,159.4 L87.6,187.0 L88.4,217.9 L89.3,228.3 L90.1,235.7 L90.9,241.1 L91.8,243.8 L92.6,244.8 L93.5,241.1 L94.3,227.7 L95.1,212.5 L96.0,195.7 L96.8,182.6 L97.7,177.2 L98.5,176.2 L99.4,178.6 L100.2,177.6 L101.0,173.9 L101.9,167.1 L102.7,156.4 L103.6,150.7 L104.4,157.4 L105.2,162.4 L106.1,166.1 L106.9,177.9 L107.8,198.4 L108.6,218.6 L109.5,234.4 L110.3,243.8 L111.1,249.9 L112.0,252.2 L112.8,249.5 L113.7,245.5 L114.5,233.4 L115.3,220.6 L116.2,208.2 L117.0,191.4 L117.9,183.3 L118.7,181.9 L119.6,176.2 L120.4,172.9 L121.2,171.9 L122.1,161.1 L122.9,148.0 L123.8,140.6 L124.6,139.9 L125.4,138.6 L126.3,145.0 L127.1,162.8 L128.0,188.7 L128.8,207.8 L129.6,225.3 L130.5,237.4 L131.3,245.5 L132.2,247.5 L133.0,245.8 L133.9,235.1 L134.7,203.1 L135.5,169.5 L136.4,150.3 L137.2,140.6 L138.1,138.6 L138.9,137.9 L139.7,136.9 L140.6,135.5 L141.4,135.5 L142.3,130.5 L143.1,130.5 L144.0,131.5 L144.8,134.5 L145.6,133.5 L146.5,134.2 L147.3,151.0 L148.2,176.9 L149.0,208.5 L149.8,226.7 L150.7,237.8 L151.5,245.5 L152.4,247.8 L153.2,246.2 L154.1,235.4 L154.9,202.8 L155.7,169.5 L156.6,150.0 L157.4,143.3 L158.3,142.6 L159.1,143.6 L159.9,144.3 L160.8,146.6 L161.6,145.6 L162.5,144.6 L163.3,143.9 L164.2,142.9 L165.0,142.6 L165.8,140.2 L166.7,139.2 L167.5,157.4 L168.4,184.3 L169.2,233.0 L170.0,237.8 L170.9,243.1 L171.7,242.8 L172.6,239.4 L173.4,236.4 L174.2,231.4 L175.1,226.0 L175.9,191.7 L176.8,178.6 L177.6,161.8 L178.5,140.2 L179.3,125.8 L180.1,118.7 L181.0,114.7 L181.8,119.1 L182.7,126.1 L183.5,141.3 L184.3,154.7 L185.2,152.7 L186.0,168.8 L186.9,185.6 L187.7,196.4 L188.6,203.1 L189.4,219.6 L190.2,233.7 L191.1,244.5 L191.9,250.9 L192.8,252.9 L193.6,250.5 L194.4,237.8 L195.3,205.5 L196.1,169.2 L197.0,152.4 L197.8,149.3 L198.7,150.0 L199.5,151.0 L200.3,150.3 L201.2,152.4 L202.0,170.5 L202.9,176.2 L203.7,162.4 L204.5,163.8 L205.4,173.9 L206.2,185.3 L207.1,193.0 L207.9,196.1 L208.8,198.4 L209.6,219.6 L210.4,254.9 L211.3,250.5 L212.1,251.2 L213.0,253.2 L213.8,251.2 L214.6,238.4 L215.5,206.5 L216.3,169.5 L217.2,153.4 L218.0,149.7 L218.8,148.7 L219.7,148.3 L220.5,151.3 L221.4,154.7 L222.2,155.4 L223.1,155.7 L223.9,153.4 L224.7,152.0 L225.6,150.7 L226.4,147.3 L227.3,149.7 L228.1,167.8 L228.9,193.4 L229.8,217.9 L230.6,230.7 L231.5,239.4 L232.3,244.8 L233.2,247.5 L234.0,248.9 L234.8,245.2 L235.7,230.0 L236.5,209.5 L237.4,189.7 L238.2,177.2 L239.0,168.8 L239.9,167.5 L240.7,171.5 L241.6,175.9 L242.4,179.3 L243.3,181.6 L244.1,182.6 L244.9,176.6 L245.8,171.9 L246.6,166.8 L247.5,171.9 L248.3,181.3 L249.1,198.8 L250.0,209.8 L250.8,228.0 L251.7,238.8 L252.5,243.1 L253.4,245.8 L254.2,245.8 L255.0,240.8 L255.9,225.3 L256.7,202.8 L257.6,183.6 L258.4,166.1 L259.2,152.4 L260.1,152.4 L260.9,153.4 L261.8,161.8 L262.6,166.5 L263.5,169.8 L264.3,163.1 L265.1,150.3 L266.0,142.9 L266.8,138.2 L267.7,147.3 L268.5,163.8 L269.3,184.3 L270.2,208.5 L271.0,221.6 L271.9,229.0 L272.7,234.4 L273.5,234.4 L274.4,231.0 L275.2,214.6 L276.1,179.6 L276.9,143.3 L277.8,129.2 L278.6,127.8 L279.4,131.5 L280.3,135.5 L281.1,142.6 L282.0,148.3 L282.8,151.0 L283.6,153.0 L284.5,151.7 L285.3,150.3 L286.2,148.7 L287.0,142.3 L287.9,148.7 L288.7,162.1 L289.5,186.6 L290.4,215.9 L291.2,228.0 L292.1,235.4 L292.9,241.5 L293.7,241.8 L294.6,238.4 L295.4,223.6 L296.3,190.0 L297.1,155.7 L298.0,140.9 L298.8,140.2 L299.6,143.3 L300.5,148.3 L301.3,152.7 L302.2,157.1 L303.0,158.1 L303.8,159.1 L304.7,155.4 L305.5,153.7 L306.4,152.4 L307.2,149.3 L308.1,154.0 L308.9,170.2 L309.7,194.7 L310.6,221.6 L311.4,234.1 L312.3,243.8 L313.1,249.9 L313.9,250.9 L314.8,248.2 L315.6,234.4 L316.5,200.8 L317.3,166.5 L318.1,180.9 L319.0,170.8 L319.8,150.3 L320.7,141.3 L321.5,141.9 L322.4,149.0 L323.2,159.1 L324.0,169.5 L324.9,183.6 L325.7,167.1 L326.6,178.2 L327.4,201.4 L328.2,209.2 L329.1,209.5 L329.9,208.8 L330.8,232.0 L331.6,250.2 L332.5,256.3 L333.3,253.9 L334.1,249.2 L335.0,246.2 L335.8,244.1 L336.7,218.3 L337.5,202.8 L338.3,202.8 L339.2,193.7 L340.0,179.9 L340.9,173.2 L341.7,171.9 L342.6,193.4 L343.4,196.1 L344.2,188.0 L345.1,184.0 L345.9,179.3 L346.8,160.8 L347.6,170.2 L348.4,175.9 L349.3,178.9 L350.1,210.5 L351.0,242.8 L351.8,247.5 L352.7,247.5 L353.5,252.6 L354.3,256.9 L355.2,259.9 L356.0,261.6 L356.9,236.7 L357.7,220.9 L358.5,217.9 L359.4,211.2 L360.2,165.5 L361.1,154.0 L361.9,153.4 L362.7,155.0 L363.6,156.4 L364.4,151.3 L365.3,150.0 L366.1,150.0 L367.0,151.7 L367.8,148.7 L368.6,148.7 L369.5,168.8 L370.3,196.4 L371.2,222.3 L372.0,235.1 L372.8,244.1 L373.7,249.9 L374.5,252.6 L375.4,254.2 L376.2,251.5 L377.1,238.1 L377.9,219.3 L378.7,201.8 L379.6,188.3 L380.4,181.6 L381.3,179.6 L382.1,185.0 L382.9,190.7 L383.8,190.0 L384.6,189.3 L385.5,197.4 L386.3,204.8 L387.2,214.6 L388.0,225.3 L388.8,227.0 L389.7,222.6 L390.5,214.9 L391.4,222.3 L392.2,209.8 L393.0,178.9 L393.9,168.2 L394.7,165.5 L395.6,164.5 L396.4,164.5 L397.3,163.8 L398.1,162.1 L398.9,159.4 L399.8,153.4 L400.6,141.9 L401.5,134.2 L402.3,130.8 L403.1,125.1 L404.0,126.1 L404.8,131.5 L405.7,143.6 L406.5,156.4 L407.3,148.3 L408.2,159.7 L409.0,171.5 L409.9,178.9 L410.7,210.5 L411.6,231.4 L412.4,229.7 L413.2,230.0 L414.1,231.0 L414.9,232.0 L415.8,233.7 L416.6,234.4 L417.4,208.5 L418.3,165.8 L419.1,155.4 L420.0,149.7 L420.8,137.9 L421.7,157.1 L422.5,162.8 L423.3,162.8 L424.2,163.1 L425.0,164.1 L425.9,168.5 L426.7,146.0 L427.5,143.6 L428.4,150.0 L429.2,150.7 L430.1,177.2 L430.9,186.0 L431.8,227.3 L432.6,239.4 L433.4,228.7 L434.3,229.0 L435.1,232.7 L436.0,236.4 L436.8,240.1 L437.6,234.7 L438.5,191.0 L439.3,180.6 L440.2,177.6 L441.0,171.9 L441.9,158.1 L442.7,151.7 L443.5,142.3 L444.4,149.0 L445.2,149.7 L446.1,148.3 L446.9,152.4 L447.7,139.2 L448.6,130.5 L449.4,139.2 L450.3,155.7 L451.1,180.9 L451.9,366.2 L452.8,232.4 L453.6,233.4 L454.5,235.7 L455.3,237.1 L456.2,234.7 L457.0,220.9 L457.8,186.3 L458.7,148.0 L459.5,131.5 L460.4,127.5 L461.2,128.5 L462.0,131.2 L462.9,137.2 L463.7,141.9 L464.6,146.0 L465.4,145.0 L466.3,140.9 L467.1,139.6 L467.9,135.9 L468.8,145.6 L469.6,161.8 L470.5,188.0 L471.3,211.2 L472.1,215.2 L473.0,227.7 L473.8,237.4 L474.7,243.1 L475.5,245.2 L476.4,242.5 L477.2,228.7 L478.0,195.4 L478.9,156.1 L479.7,137.2 L480.6,131.8 L481.4,132.2 L482.2,134.2 L483.1,139.9 L483.9,144.3 L484.8,148.0 L485.6,149.7 L486.5,148.0 L487.3,143.3 L488.1,140.9 L489.0,136.5 L489.8,145.6 L490.7,161.4 L491.5,187.0 L492.3,212.2 L493.2,227.3 L494.0,236.7 L494.9,242.8 L495.7,245.5 L496.5,242.8 L497.4,228.7 L498.2,196.4 L499.1,158.7 L499.9,141.6 L500.8,139.2 L501.6,140.9 L502.4,143.3 L503.3,149.0 L504.1,153.7 L505.0,155.4 L505.8,155.7 L506.6,154.0 L507.5,152.0 L508.3,149.0 L509.2,143.3 L510.0,151.0 L510.9,165.5 L511.7,190.0 L512.5,218.9 L513.4,225.7 L514.2,231.7 L515.1,237.1 L515.9,238.8 L516.7,239.1 L517.6,232.4 L518.4,218.3 L519.3,195.7 L520.1,177.6 L521.0,170.5 L521.8,164.1 L522.6,165.1 L523.5,171.2 L524.3,177.9 L525.2,182.6 L526.0,185.6 L526.8,187.3 L527.7,180.9 L528.5,173.5 L529.4,169.2 L530.2,174.5 L531.1,184.6 L531.9,201.8 L532.7,217.2 L533.6,225.0 L534.4,238.8 L535.3,245.5 L536.1,249.5 L536.9,250.2 L537.8,246.2 L538.6,233.7 L539.5,215.2 L540.3,198.1 L541.2,180.6 L542.0,173.5 L542.8,172.2 L543.7,172.5 L544.5,176.2 L545.4,177.9 L546.2,177.9 L547.0,170.5 L547.9,158.1 L548.7,151.3 L549.6,147.3 L550.4,155.0 L551.2,171.2 L552.1,193.4 L552.9,206.8 L553.8,228.0 L554.6,239.1 L555.5,245.2 L556.3,246.8 L557.1,244.1 L558.0,230.4 L558.8,197.1 L559.7,158.4 L560.5,139.9 L561.3,133.9 L562.2,133.9 L563.0,135.5 L563.9,140.2 L564.7,143.9 L565.6,147.3 L566.4,148.7 L567.2,145.3 L568.1,138.9 L568.9,136.2 L569.8,130.8 L570.6,138.9 L571.4,155.0 L572.3,180.3 L573.1,243.5 L574.0,232.4 L574.8,231.7 L575.7,239.1 L576.5,240.4 L577.3,236.7 L578.2,222.0 L579.0,190.3 L579.9,185.3 L580.7,186.0 L581.5,177.2 L582.4,159.4 L583.2,147.3 L584.1,144.3 L584.9,143.6 L585.8,145.3 L586.6,148.7 L587.4,157.7 L588.3,174.2 L589.1,175.2 L590.0,199.4 L590.8,168.8 L591.6,170.2 L592.5,194.4 L593.3,217.6 L594.2,232.7 L595.0,236.7 L595.8,240.1 L596.7,241.1 L597.5,238.4 L598.4,223.6 L599.2,191.0 L600.1,153.4 L600.9,137.2 L601.7,136.5 L602.6,141.3 L603.4,146.6 L604.3,153.4 L605.1,158.4 L605.9,160.1 L606.8,160.8 L607.6,157.7 L608.5,155.7 L609.3,153.4 L610.2,155.0 L611.0,158.4 L611.8,170.5 L612.7,194.7 L613.5,218.6 L614.4,234.4 L615.2,242.8 L616.0,248.5 L616.9,250.2 L617.7,248.5 L618.6,235.1 L619.4,223.6 L620.3,198.4 L621.1,191.0 L621.9,183.3 L622.8,166.1 L623.6,153.0 L624.5,149.0 L625.3,149.0 L626.1,148.7 L627.0,158.4 L627.8,158.7 L628.7,156.1 L629.5,153.0 L630.4,149.3 L631.2,156.4 L632.0,170.8 L632.9,195.7 L633.7,223.6 L634.6,236.4 L635.4,244.5 L636.2,250.2 L637.1,252.2 L637.9,249.9 L638.8,237.1 L639.6,205.5 L640.4,168.2 L641.3,151.0 L642.1,148.3 L643.0,150.0 L643.8,152.7 L644.7,157.4 L645.5,161.4 L646.3,163.1 L647.2,164.1 L648.0,160.4 L648.9,158.1 L649.7,157.1 L650.5,155.0 L651.4,160.4 L652.2,175.6 L653.1,199.4 L653.9,224.6 L654.8,233.4 L655.6,240.8 L656.4,247.2 L657.3,249.9 L658.1,251.2 L659.0,248.2 L659.8,234.7 L660.6,214.2 L661.5,195.7 L662.3,185.0 L663.2,179.3 L664.0,178.9 L664.9,184.6 L665.7,187.0 L666.5,188.3 L667.4,190.0 L668.2,188.3 L669.1,183.6 L669.9,179.9 L670.7,175.9 L671.6,179.9 L672.4,189.0 L673.3,206.5 L674.1,374.3 L675.0,279.8 L675.8,380.7 L676.6,420.0 L677.5,420.0 L678.3,420.0 L679.2,420.0 L680.0,420.0" stroke="#9467bd" stroke-width="2" fill="none" opacity="0.8"/>
<!-- Total Generation -->
<path d="M80.0,130.8 L80.8,135.2 L81.7,91.5 L82.5,111.0 L83.4,149.0 L84.2,215.2 L85.0,219.9 L85.9,218.9 L86.7,225.3 L87.6,222.3 L88.4,231.0 L89.3,210.5 L90.1,187.0 L90.9,169.8 L91.8,159.7 L92.6,157.4 L93.5,153.7 L94.3,168.2 L95.1,187.7 L96.0,172.5 L96.8,146.0 L97.7,159.7 L98.5,175.9 L99.4,202.1 L100.2,215.2 L101.0,217.9 L101.9,217.2 L102.7,221.3 L103.6,237.1 L104.4,228.3 L105.2,230.4 L106.1,231.7 L106.9,255.2 L107.8,299.3 L108.6,306.0 L109.5,305.3 L110.3,302.3 L111.1,305.3 L112.0,296.3 L112.8,291.2 L113.7,274.7 L114.5,260.6 L115.3,255.9 L116.2,233.0 L117.0,232.7 L117.9,222.0 L118.7,213.2 L119.6,210.9 L120.4,203.5 L121.2,194.7 L122.1,232.4 L122.9,186.6 L123.8,201.8 L124.6,173.5 L125.4,208.5 L126.3,219.6 L127.1,243.1 L128.0,245.2 L128.8,238.1 L129.6,252.6 L130.5,260.3 L131.3,262.6 L132.2,268.0 L133.0,268.7 L133.9,271.7 L134.7,270.7 L135.5,271.4 L136.4,264.3 L137.2,241.1 L138.1,206.5 L138.9,200.4 L139.7,227.7 L140.6,202.1 L141.4,208.8 L142.3,204.8 L143.1,238.4 L144.0,232.4 L144.8,238.1 L145.6,239.1 L146.5,247.5 L147.3,261.3 L148.2,269.4 L149.0,253.9 L149.8,262.6 L150.7,264.0 L151.5,257.9 L152.4,258.3 L153.2,266.3 L154.1,268.0 L154.9,268.0 L155.7,263.3 L156.6,254.6 L157.4,231.4 L158.3,195.1 L159.1,187.7 L159.9,150.3 L160.8,117.0 L161.6,183.6 L162.5,190.0 L163.3,189.3 L164.2,198.8 L165.0,180.3 L165.8,171.5 L166.7,186.6 L167.5,237.8 L168.4,227.0 L169.2,212.2 L170.0,214.6 L170.9,200.8 L171.7,219.9 L172.6,213.2 L173.4,215.2 L174.2,216.9 L175.1,197.4 L175.9,197.4 L176.8,181.9 L177.6,158.7 L181.0,212.2 L181.8,175.2 L182.7,176.6 L183.5,199.8 L184.3,225.3 L185.2,215.6 L186.0,225.0 L186.9,229.0 L187.7,229.4 L188.6,227.0 L189.4,221.6 L190.2,222.6 L191.1,232.7 L191.9,252.6 L192.8,238.4 L193.6,247.8 L194.4,248.2 L195.3,217.6 L196.1,212.9 L197.0,239.1 L197.8,230.4 L198.7,213.5 L199.5,233.7 L200.3,233.7 L201.2,219.3 L202.0,226.7 L202.9,250.5 L203.7,235.4 L204.5,205.8 L205.4,224.0 L206.2,210.2 L207.1,205.1 L207.9,213.9 L208.8,217.6 L209.6,232.0 L210.4,225.3 L211.3,230.4 L212.1,254.6 L213.0,255.2 L213.8,243.1 L214.6,217.9 L215.5,220.3 L216.3,219.9 L217.2,199.1 L218.0,194.4 L218.8,187.3 L219.7,173.5 L220.5,187.0 L221.4,190.7 L222.2,204.8 L223.1,217.6 L223.9,188.7 L224.7,189.0 L225.6,168.2 L226.4,182.6 L227.3,198.8 L228.1,217.2 L228.9,209.2 L229.8,225.7 L230.6,218.9 L231.5,211.9 L232.3,223.6 L233.2,239.1 L234.0,217.2 L234.8,217.2 L235.7,190.0 L236.5,189.7 L237.4,228.0 L238.2,192.4 L239.0,207.2 L239.9,210.9 L240.7,188.3 L241.6,202.8 L242.4,207.8 L243.3,220.6 L244.1,225.7 L244.9,219.6 L245.8,209.2 L246.6,210.5 L247.5,213.9 L248.3,196.1 L249.1,191.0 L250.0,166.1 L250.8,163.8 L251.7,187.3 L252.5,196.4 L253.4,174.5 L254.2,176.9 L255.0,149.0 L255.9,129.8 L256.7,139.9 L257.6,142.9 L258.4,199.8 L259.2,195.1 L260.1,194.4 L260.9,188.7 L261.8,192.0 L262.6,205.5 L263.5,204.1 L264.3,193.7 L265.1,199.1 L266.0,217.2 L266.8,224.6 L267.7,223.3 L268.5,222.0 L269.3,220.3 L270.2,221.3 L271.0,215.9 L271.9,218.6 L272.7,213.9 L273.5,211.2 L274.4,215.9 L275.2,198.8 L276.1,188.3 L276.9,176.6 L277.8,182.6 L278.6,187.7 L279.4,183.6 L280.3,164.5 L281.1,140.9 L282.0,149.3 L282.8,156.1 L283.6,159.4 L284.5,133.2 L285.3,130.8 L286.2,183.6 L287.0,199.8 L287.9,211.5 L288.7,224.3 L289.5,216.6 L290.4,218.3 L291.2,215.2 L292.1,209.2 L292.9,220.6 L293.7,224.6 L294.6,214.2 L295.4,191.4 L296.3,194.7 L297.1,187.7 L298.0,201.8 L298.8,196.7 L299.6,205.1 L300.5,211.2 L301.3,218.9 L302.2,215.2 L303.0,213.2 L303.8,207.2 L304.7,206.5 L305.5,176.9 L306.4,185.3 L307.2,180.9 L308.1,190.7 L308.9,194.0 L309.7,199.8 L310.6,222.0 L311.4,228.3 L312.3,225.0 L313.1,237.8 L313.9,245.5 L314.8,224.6 L315.6,224.0 L316.5,187.3 L317.3,177.9 L318.1,172.2 L319.0,167.1 L319.8,158.4 L320.7,160.4 L321.5,198.4 L322.4,214.6 L323.2,217.9 L324.0,212.9 L324.9,218.9 L325.7,230.7 L326.6,213.2 L327.4,208.5 L328.2,197.7 L329.1,195.7 L329.9,198.4 L330.8,197.1 L331.6,196.7 L332.5,231.4 L333.3,232.7 L334.1,235.1 L335.0,223.6 L335.8,231.4 L336.7,226.3 L337.5,169.5 L338.3,172.9 L339.2,199.8 L340.0,201.1 L340.9,202.8 L341.7,198.4 L342.6,185.3 L343.4,140.2 L344.2,146.0 L345.1,166.5 L345.9,170.5 L346.8,178.2 L347.6,173.5 L348.4,180.3 L349.3,188.3 L350.1,189.3 L351.0,203.1 L351.8,210.5 L352.7,217.6 L353.5,246.2 L354.3,240.4 L355.2,232.7 L356.0,219.9 L356.9,220.9 L357.7,217.6 L358.5,215.9 L359.4,201.4 L360.2,165.1 L361.1,176.9 L361.9,172.5 L362.7,177.6 L363.6,200.1 L364.4,181.9 L365.3,177.6 L366.1,156.7 L367.0,188.7 L367.8,193.7 L368.6,207.5 L369.5,214.2 L370.3,223.3 L371.2,226.7 L372.0,234.1 L372.8,237.8 L373.7,230.7 L374.5,231.4 L375.4,232.0 L376.2,203.5 L377.1,207.5 L377.9,198.8 L378.7,222.0 L379.6,212.2 L380.4,215.6 L381.3,190.7 L382.1,210.5 L382.9,245.8 L383.8,216.6 L384.6,211.9 L385.5,210.2 L386.3,219.3 L387.2,197.4 L388.0,145.6 L388.8,131.8 L389.7,155.4 L390.5,183.3 L391.4,193.4 L392.2,186.6 L393.0,172.5 L393.9,181.6 L394.7,173.5 L395.6,155.4 L396.4,137.2 L397.3,136.9 L398.1,153.7 L398.9,180.9 L399.8,190.0 L400.6,153.7 L401.5,137.9 L402.3,127.8 L403.1,184.3 L404.0,181.9 L404.8,180.6 L405.7,168.5 L406.5,177.9 L407.3,168.5 L408.2,178.9 L409.0,181.9 L409.9,189.0 L410.7,182.9 L411.6,184.3 L412.4,193.4 L413.2,196.7 L414.1,217.9 L414.9,226.7 L415.8,227.0 L416.6,211.9 L417.4,207.2 L418.3,205.1 L419.1,221.6 L420.0,232.0 L420.8,237.8 L421.7,239.4 L422.5,242.1 L423.3,237.4 L424.2,238.1 L425.0,245.8 L425.9,248.9 L426.7,236.7 L427.5,242.8 L428.4,243.8 L429.2,256.3 L430.1,260.3 L430.9,256.6 L431.8,257.6 L432.6,260.3 L433.4,263.0 L434.3,263.3 L435.1,264.0 L436.0,263.6 L436.8,266.0 L437.6,264.7 L438.5,261.3 L439.3,263.0 L440.2,256.9 L441.0,248.5 L441.9,247.8 L442.7,245.2 L443.5,240.1 L444.4,240.4 L445.2,240.8 L446.1,247.5 L446.9,251.5 L447.7,252.9 L448.6,254.6 L449.4,246.8 L450.3,252.9 L451.1,250.2 L451.9,234.7 L452.8,218.6 L453.6,219.6 L454.5,217.6 L455.3,220.3 L456.2,218.6 L457.0,216.9 L457.8,221.3 L458.7,217.9 L459.5,283.8 L460.4,286.5 L461.2,284.2 L462.0,280.1 L462.9,273.1 L463.7,277.8 L464.6,279.8 L465.4,280.5 L466.3,279.8 L467.1,256.6 L467.9,259.6 L468.8,260.3 L469.6,215.9 L470.5,205.8 L471.3,196.4 L472.1,203.8 L473.0,194.0 L473.8,184.6 L474.7,192.0 L475.5,167.1 L476.4,140.9 L477.2,134.9 L478.0,128.5 L478.9,124.8 L479.7,189.7 L480.6,197.7 L481.4,200.4 L482.2,194.4 L483.1,179.6 L483.9,178.9 L484.8,198.1 L485.6,191.0 L486.5,168.5 L487.3,148.0 L488.1,116.7 L489.0,115.0 L489.8,152.0 L490.7,133.9 L491.5,125.1 L492.3,122.8 L493.2,124.8 L494.0,152.0 L494.9,156.4 L495.7,156.4 L496.5,138.9 L497.4,130.8 L498.2,89.5 L499.1,84.1 L499.9,132.2 L500.8,137.6 L501.6,107.6 L502.4,103.3 L503.3,118.1 L504.1,132.8 L505.0,131.5 L505.8,125.8 L506.6,169.2 L507.5,133.9 L508.3,80.1 L509.2,117.0 L510.0,175.2 L510.9,155.4 L511.7,184.6 L512.5,140.6 L513.4,132.5 L514.2,108.0 L515.1,145.3 L515.9,147.3 L516.7,153.7 L517.6,148.3 L518.4,160.8 L519.3,159.4 L520.1,131.2 L521.0,109.0 L521.8,107.6 L522.6,112.3 L523.5,128.8 L524.3,127.5 L525.2,136.9 L526.0,130.8 L526.8,129.5 L527.7,128.1 L528.5,174.9 L529.4,187.3 L530.2,162.4 L531.1,161.1 L531.9,165.8 L532.7,160.4 L533.6,150.0 L534.4,136.2 L535.3,137.2 L536.1,158.1 L536.9,149.7 L537.8,145.6 L538.6,171.2 L539.5,173.5 L540.3,183.6 L541.2,166.5 L542.0,155.4 L542.8,160.1 L543.7,155.0 L544.5,104.6 L545.4,148.0 L546.2,158.1 L547.0,116.0 L547.9,126.1 L548.7,96.2 L549.6,92.2 L550.4,108.6 L551.2,94.2 L552.1,129.5 L552.9,129.8 L553.8,139.6 L554.6,136.5 L555.5,136.9 L556.3,157.4 L557.1,149.7 L558.0,126.5 L558.8,88.1 L559.7,98.2 L560.5,87.5 L561.3,111.3 L562.2,85.1 L563.0,106.6 L563.9,102.6 L564.7,101.9 L565.6,142.3 L566.4,148.0 L567.2,140.2 L568.1,77.4 L568.9,81.4 L569.8,80.4 L570.6,83.4 L571.4,69.6 L572.3,73.3 L573.1,88.8 L574.0,129.2 L574.8,153.0 L575.7,162.4 L576.5,156.7 L577.3,152.7 L578.2,115.7 L579.0,74.7 L579.9,85.8 L580.7,100.9 L581.5,115.0 L582.4,133.9 L583.2,121.8 L584.1,130.5 L584.9,113.0 L585.8,102.6 L586.6,112.3 L587.4,103.6 L588.3,88.8 L589.1,136.2 L590.0,149.7 L590.8,169.2 L591.6,187.3 L592.5,196.4 L593.3,205.5 L594.2,200.4 L595.0,196.4 L595.8,180.9 L596.7,179.3 L597.5,177.2 L598.4,177.9 L599.2,183.3 L600.1,185.6 L600.9,180.9 L601.7,161.4 L602.6,157.1 L603.4,168.8 L604.3,161.1 L605.1,167.5 L605.9,161.4 L606.8,153.7 L607.6,194.4 L608.5,184.3 L609.3,194.4 L610.2,191.7 L611.0,203.8 L611.8,198.8 L612.7,201.4 L613.5,194.0 L614.4,181.3 L615.2,173.9 L616.0,138.2 L616.9,119.7 L617.7,96.2 L618.6,107.3 L619.4,98.6 L620.3,77.7 L621.1,67.6 L621.9,70.3 L622.8,110.3 L623.6,116.4 L624.5,129.8 L625.3,134.5 L626.1,115.4 L627.0,109.6 L627.8,98.9 L628.7,123.1 L629.5,109.3 L630.4,139.2 L631.2,117.7 L632.0,108.0 L632.9,111.0 L633.7,134.2 L634.6,135.2 L635.4,123.4 L636.2,96.9 L637.1,95.2 L637.9,90.8 L638.8,98.9 L639.6,93.2 L640.4,82.7 L641.3,97.2 L642.1,98.6 L643.0,77.0 L643.8,104.9 L644.7,121.8 L645.5,119.1 L646.3,126.1 L647.2,147.0 L648.0,151.3 L648.9,171.5 L649.7,178.2 L650.5,179.3 L651.4,195.1 L652.2,194.4 L653.1,160.8 L653.9,149.7 L654.8,150.3 L655.6,152.4 L656.4,159.4 L657.3,164.5 L658.1,161.8 L659.0,163.8 L659.8,172.5 L660.6,176.2 L661.5,182.9 L662.3,162.8 L663.2,163.8 L664.0,176.6 L664.9,162.8 L665.7,195.4 L666.5,184.6 L667.4,189.3 L668.2,149.3 L669.1,152.7 L669.9,187.7 L670.7,205.8 L671.6,185.3 L672.4,160.4 L673.3,134.2 L674.1,142.9 L675.0,146.6 L675.8,151.7 L676.6,130.2 L677.5,141.9 L678.3,156.4 L679.2,147.0 L680.0,113.7" stroke="#8c564b" stroke-width="2" fill="none" opacity="0.8"/>
<!-- Forecast Difference -->
<path d="M80.0,420.0 L80.8,420.0 L81.7,420.0 L82.5,420.0 L83.4,420.0 L84.2,420.0 L85.0,420.0 L85.9,420.0 L86.7,420.0 L87.6,420.0 L88.4,420.0 L89.3,420.0 L90.1,420.0 L90.9,420.0 L91.8,420.0 L92.6,420.0 L93.5,420.0 L94.3,420.0 L95.1,420.0 L96.0,420.0 L96.8,420.0 L97.7,420.0 L98.5,420.0 L99.4,420.0 L100.2,420.0 L101.0,420.0 L101.9,420.0 L102.7,420.0 L103.6,420.0 L104.4,420.0 L105.2,420.0 L106.1,420.0 L106.9,420.0 L107.8,420.0 L108.6,420.0 L109.5,420.0 L110.3,420.0 L111.1,420.0 L112.0,420.0 L112.8,420.0 L113.7,420.0 L114.5,420.0 L115.3,420.0 L116.2,420.0 L117.0,420.0 L117.9,420.0 L118.7,420.0 L119.6,420.0 L120.4,420.0 L121.2,420.0 L122.1,420.0 L122.9,420.0 L123.8,420.0 L124.6,420.0 L125.4,420.0 L126.3,420.0 L127.1,420.0 L128.0,420.0 L128.8,420.0 L129.6,420.0 L130.5,420.0 L131.3,420.0 L132.2,420.0 L133.0,420.0 L133.9,420.0 L134.7,420.0 L135.5,420.0 L136.4,420.0 L137.2,420.0 L138.1,420.0 L138.9,420.0 L139.7,420.0 L140.6,420.0 L141.4,420.0 L142.3,420.0 L143.1,420.0 L144.0,420.0 L144.8,420.0 L145.6,420.0 L146.5,420.0 L147.3,420.0 L148.2,420.0 L149.0,420.0 L149.8,420.0 L150.7,420.0 L151.5,420.0 L152.4,420.0 L153.2,420.0 L154.1,420.0 L154.9,420.0 L155.7,420.0 L156.6,420.0 L157.4,420.0 L158.3,420.0 L159.1,420.0 L159.9,420.0 L160.8,420.0 L161.6,420.0 L162.5,420.0 L163.3,420.0 L164.2,420.0 L165.0,420.0 L165.8,420.0 L166.7,420.0 L167.5,420.0 L168.4,420.0 L169.2,420.0 L170.0,420.0 L170.9,420.0 L171.7,420.0 L172.6,420.0 L173.4,420.0 L174.2,420.0 L175.1,420.0 L175.9,420.0 L176.8,420.0 L177.6,420.0 L178.5,420.0 L179.3,420.0 L180.1,420.0 L181.0,420.0 L181.8,420.0 L182.7,420.0 L183.5,420.0 L184.3,420.0 L185.2,420.0 L186.0,420.0 L186.9,420.0 L187.7,420.0 L188.6,420.0 L189.4,420.0 L190.2,420.0 L191.1,420.0 L191.9,420.0 L192.8,420.0 L193.6,420.0 L194.4,420.0 L195.3,420.0 L196.1,420.0 L197.0,420.0 L197.8,420.0 L198.7,420.0 L199.5,420.0 L200.3,420.0 L201.2,420.0 L202.0,420.0 L202.9,420.0 L203.7,420.0 L204.5,420.0 L205.4,420.0 L206.2,420.0 L207.1,420.0 L207.9,420.0 L208.8,420.0 L209.6,420.0 L210.4,420.0 L211.3,420.0 L212.1,420.0 L213.0,420.0 L213.8,420.0 L214.6,420.0 L215.5,420.0 L216.3,420.0 L217.2,420.0 L218.0,420.0 L218.8,420.0 L219.7,420.0 L220.5,420.0 L221.4,420.0 L222.2,420.0 L223.1,420.0 L223.9,420.0 L224.7,420.0 L225.6,420.0 L226.4,420.0 L227.3,420.0 L228.1,420.0 L228.9,420.0 L229.8,420.0 L230.6,420.0 L231.5,420.0 L232.3,420.0 L233.2,420.0 L234.0,420.0 L234.8,420.0 L235.7,420.0 L236.5,420.0 L237.4,420.0 L238.2,420.0 L239.0,420.0 L239.9,420.0 L240.7,420.0 L241.6,420.0 L242.4,420.0 L243.3,420.0 L244.1,420.0 L244.9,420.0 L245.8,420.0 L246.6,420.0 L247.5,420.0 L248.3,420.0 L249.1,420.0 L250.0,420.0 L250.8,420.0 L251.7,420.0 L252.5,420.0 L253.4,420.0 L254.2,420.0 L255.0,420.0 L255.9,420.0 L256.7,420.0 L257.6,420.0 L258.4,420.0 L259.2,420.0 L260.1,420.0 L260.9,420.0 L261.8,420.0 L262.6,420.0 L263.5,420.0 L264.3,420.0 L265.1,420.0 L266.0,420.0 L266.8,420.0 L267.7,420.0 L268.5,420.0 L269.3,420.0 L270.2,420.0 L271.0,420.0 L271.9,420.0 L272.7,420.0 L273.5,420.0 L274.4,420.0 L275.2,420.0 L276.1,420.0 L276.9,420.0 L277.8,420.0 L278.6,420.0 L279.4,420.0 L280.3,420.0 L281.1,420.0 L282.0,420.0 L282.8,420.0 L283.6,420.0 L284.5,420.0 L285.3,420.0 L286.2,420.0 L287.0,420.0 L287.9,420.0 L288.7,420.0 L289.5,420.0 L290.4,420.0 L291.2,420.0 L292.1,420.0 L292.9,420.0 L293.7,420.0 L294.6,420.0 L295.4,420.0 L296.3,420.0 L297.1,420.0 L298.0,420.0 L298.8,420.0 L299.6,420.0 L300.5,420.0 L301.3,420.0 L302.2,420.0 L303.0,420.0 L303.8,420.0 L304.7,420.0 L305.5,420.0 L306.4,420.0 L307.2,420.0 L308.1,420.0 L308.9,420.0 L309.7,420.0 L310.6,420.0 L311.4,420.0 L312.3,420.0 L313.1,420.0 L313.9,420.0 L314.8,420.0 L315.6,420.0 L316.5,420.0 L317.3,420.0 L318.1,420.0 L319.0,420.0 L319.8,420.0 L320.7,420.0 L321.5,420.0 L322.4,420.0 L323.2,420.0 L324.0,420.0 L324.9,420.0 L325.7,420.0 L326.6,420.0 L327.4,420.0 L328.2,420.0 L329.1,420.0 L329.9,420.0 L330.8,420.0 L331.6,420.0 L332.5,420.0 L333.3,420.0 L334.1,420.0 L335.0,420.0 L335.8,420.0 L336.7,420.0 L337.5,420.0 L338.3,420.0 L339.2,420.0 L340.0,420.0 L340.9,420.0 L341.7,420.0 L342.6,420.0 L343.4,420.0 L344.2,420.0 L345.1,420.0 L345.9,420.0 L346.8,420.0 L347.6,420.0 L348.4,420.0 L349.3,420.0 L350.1,420.0 L351.0,420.0 L351.8,420.0 L352.7,420.0 L353.5,420.0 L354.3,420.0 L355.2,420.0 L356.0,420.0 L356.9,420.0 L357.7,420.0 L358.5,420.0 L359.4,420.0 L360.2,420.0 L361.1,420.0 L361.9,420.0 L362.7,420.0 L363.6,420.0 L364.4,420.0 L365.3,420.0 L366.1,420.0 L367.0,420.0 L367.8,420.0 L368.6,420.0 L369.5,420.0 L370.3,420.0 L371.2,420.0 L372.0,420.0 L372.8,420.0 L373.7,420.0 L374.5,420.0 L375.4,420.0 L376.2,420.0 L377.1,420.0 L377.9,420.0 L378.7,420.0 L379.6,420.0 L380.4,420.0 L381.3,420.0 L382.1,420.0 L382.9,420.0 L383.8,420.0 L384.6,420.0 L385.5,420.0 L386.3,420.0 L387.2,420.0 L388.0,420.0 L388.8,420.0 L389.7,420.0 L390.5,420.0 L391.4,420.0 L392.2,420.0 L393.0,420.0 L393.9,420.0 L394.7,420.0 L395.6,420.0 L396.4,420.0 L397.3,420.0 L398.1,420.0 L398.9,420.0 L399.8,420.0 L400.6,420.0 L401.5,420.0 L402.3,420.0 L403.1,420.0 L404.0,420.0 L404.8,420.0 L405.7,420.0 L406.5,420.0 L407.3,420.0 L408.2,420.0 L409.0,420.0 L409.9,420.0 L410.7,420.0 L411.6,420.0 L412.4,420.0 L413.2,420.0 L414.1,420.0 L414.9,420.0 L415.8,420.0 L416.6,420.0 L417.4,420.0 L418.3,420.0 L419.1,420.0 L420.0,420.0 L420.8,420.0 L421.7,420.0 L422.5,420.0 L423.3,420.0 L424.2,420.0 L425.0,420.0 L425.9,420.0 L426.7,420.0 L427.5,420.0 L428.4,420.0 L429.2,420.0 L430.1,420.0 L430.9,420.0 L431.8,420.0 L432.6,420.0 L433.4,420.0 L434.3,420.0 L435.1,420.0 L436.0,420.0 L436.8,420.0 L437.6,420.0 L438.5,420.0 L439.3,420.0 L440.2,420.0 L441.0,420.0 L441.9,420.0 L442.7,420.0 L443.5,420.0 L444.4,420.0 L445.2,420.0 L446.1,420.0 L446.9,420.0 L447.7,420.0 L448.6,420.0 L449.4,420.0 L450.3,420.0 L451.1,420.0 L451.9,420.0 L452.8,420.0 L453.6,420.0 L454.5,420.0 L455.3,420.0 L456.2,420.0 L457.0,420.0 L457.8,420.0 L458.7,420.0 L459.5,420.0 L460.4,420.0 L461.2,420.0 L462.0,420.0 L462.9,420.0 L463.7,420.0 L464.6,420.0 L465.4,420.0 L466.3,420.0 L467.1,420.0 L467.9,420.0 L468.8,420.0 L469.6,420.0 L470.5,420.0 L471.3,420.0 L472.1,420.0 L473.0,420.0 L473.8,420.0 L474.7,420.0 L475.5,420.0 L476.4,420.0 L477.2,420.0 L478.0,420.0 L478.9,420.0 L479.7,420.0 L480.6,420.0 L481.4,420.0 L482.2,420.0 L483.1,420.0 L483.9,420.0 L484.8,420.0 L485.6,420.0 L486.5,420.0 L487.3,420.0 L488.1,420.0 L489.0,420.0 L489.8,420.0 L490.7,420.0 L491.5,420.0 L492.3,420.0 L493.2,420.0 L494.0,420.0 L494.9,420.0 L495.7,420.0 L496.5,420.0 L497.4,420.0 L498.2,420.0 L499.1,420.0 L499.9,420.0 L500.8,420.0 L501.6,420.0 L502.4,420.0 L503.3,420.0 L504.1,420.0 L505.0,420.0 L505.8,420.0 L506.6,420.0 L507.5,420.0 L508.3,420.0 L509.2,420.0 L510.0,420.0 L510.9,420.0 L511.7,420.0 L512.5,420.0 L513.4,420.0 L514.2,420.0 L515.1,420.0 L515.9,420.0 L516.7,420.0 L517.6,420.0 L518.4,420.0 L519.3,420.0 L520.1,420.0 L521.0,420.0 L521.8,420.0 L522.6,420.0 L523.5,420.0 L524.3,420.0 L525.2,420.0 L526.0,420.0 L526.8,420.0 L527.7,420.0 L528.5,420.0 L529.4,420.0 L530.2,420.0 L531.1,420.0 L531.9,420.0 L532.7,420.0 L533.6,420.0 L534.4,420.0 L535.3,420.0 L536.1,420.0 L536.9,420.0 L537.8,420.0 L538.6,420.0 L539.5,420.0 L540.3,420.0 L541.2,420.0 L542.0,420.0 L542.8,420.0 L543.7,420.0 L544.5,420.0 L545.4,420.0 L546.2,420.0 L547.0,420.0 L547.9,420.0 L548.7,420.0 L549.6,420.0 L550.4,420.0 L551.2,420.0 L552.1,420.0 L552.9,420.0 L553.8,420.0 L554.6,420.0 L555.5,420.0 L556.3,420.0 L557.1,420.0 L558.0,420.0 L558.8,420.0 L559.7,420.0 L560.5,420.0 L561.3,420.0 L562.2,420.0 L563.0,420.0 L563.9,420.0 L564.7,420.0 L565.6,420.0 L566.4,420.0 L567.2,420.0 L568.1,420.0 L568.9,420.0 L569.8,420.0 L570.6,420.0 L571.4,420.0 L572.3,420.0 L573.1,420.0 L574.0,420.0 L574.8,420.0 L575.7,420.0 L576.5,420.0 L577.3,420.0 L578.2,420.0 L579.0,420.0 L579.9,420.0 L580.7,420.0 L581.5,420.0 L582.4,420.0 L583.2,420.0 L584.1,420.0 L584.9,420.0 L585.8,420.0 L586.6,420.0 L587.4,420.0 L588.3,420.0 L589.1,420.0 L590.0,420.0 L590.8,420.0 L591.6,420.0 L592.5,420.0 L593.3,420.0 L594.2,420.0 L595.0,420.0 L595.8,420.0 L596.7,420.0 L597.5,420.0 L598.4,420.0 L599.2,420.0 L600.1,420.0 L600.9,420.0 L601.7,420.0 L602.6,420.0 L603.4,420.0 L604.3,420.0 L605.1,420.0 L605.9,420.0 L606.8,420.0 L607.6,420.0 L608.5,420.0 L609.3,420.0 L610.2,420.0 L611.0,420.0 L611.8,420.0 L612.7,420.0 L613.5,420.0 L614.4,420.0 L615.2,420.0 L616.0,420.0 L616.9,420.0 L617.7,420.0 L618.6,420.0 L619.4,420.0 L620.3,420.0 L621.1,420.0 L621.9,420.0 L622.8,420.0 L623.6,420.0 L624.5,420.0 L625.3,420.0 L626.1,420.0 L627.0,420.0 L627.8,420.0 L628.7,420.0 L629.5,420.0 L630.4,420.0 L631.2,420.0 L632.0,420.0 L632.9,420.0 L633.7,420.0 L634.6,420.0 L635.4,420.0 L636.2,420.0 L637.1,420.0 L637.9,420.0 L638.8,420.0 L639.6,420.0 L640.4,420.0 L641.3,420.0 L642.1,420.0 L643.0,420.0 L643.8,420.0 L644.7,420.0 L645.5,420.0 L646.3,420.0 L647.2,420.0 L648.0,420.0 L648.9,420.0 L649.7,420.0 L650.5,420.0 L651.4,420.0 L652.2,420.0 L653.1,420.0 L653.9,420.0 L654.8,420.0 L655.6,420.0 L656.4,420.0 L657.3,420.0 L658.1,420.0 L659.0,420.0 L659.8,420.0 L660.6,420.0 L661.5,420.0 L662.3,420.0 L663.2,420.0 L664.0,420.0 L664.9,420.0 L665.7,420.0 L666.5,420.0 L667.4,420.0 L668.2,420.0 L669.1,420.0 L669.9,420.0 L670.7,420.0 L671.6,420.0 L672.4,420.0 L673.3,420.0 L674.1,420.0 L675.0,420.0 L675.8,420.0 L676.6,420.0 L677.5,420.0 L678.3,420.0 L679.2,420.0 L680.0,420.0" stroke="#e377c2" stroke-width="2" fill="none" opacity="0.8"/>

<!-- Legend -->
<line x1="690" y1="70" x2="705" y2="70" stroke="#1f77b4" stroke-width="3"/>
<text x="710" y="74" class="legend">Wind Generation</text>
<line x1="690" y1="88" x2="705" y2="88" stroke="#ff7f0e" stroke-width="3"/>
<text x="710" y="92" class="legend">Hydro Generation</text>
<line x1="690" y1="106" x2="705" y2="106" stroke="#2ca02c" stroke-width="3"/>
<text x="710" y="110" class="legend">Thermal Generation</text>
<line x1="690" y1="124" x2="705" y2="124" stroke="#d62728" stroke-width="3"/>
<text x="710" y="128" class="legend">Solar Generation</text>
<line x1="690" y1="142" x2="705" y2="142" stroke="#9467bd" stroke-width="3"/>
<text x="710" y="146" class="legend">Forecast</text>
<line x1="690" y1="160" x2="705" y2="160" stroke="#8c564b" stroke-width="3"/>
<text x="710" y="164" class="legend">Total Generation</text>
<line x1="690" y1="178" x2="705" y2="178" stroke="#e377c2" stroke-width="3"/>
<text x="710" y="182" class="legend">Forecast Difference</text>

<!-- Date range -->
<text x="80" y="495" class="legend">Range: 09/26 - 10/26/2025 (714 records)</text>
</svg>