<?xml version="1.0" encoding="UTF-8"?>
<svg width="800" height="500" xmlns="http://www.w3.org/2000/svg">
<style>
.axis-line { stroke: #333; stroke-width: 1; }
.grid-line { stroke: #ddd; stroke-width: 0.5; }
.title { font: 16px Arial; text-anchor: middle; fill: #333; }
.axis-label { font: 12px Arial; text-anchor: middle; fill: #666; }
.legend { font: 10px Arial; fill: #333; }
</style>

<!-- Title -->
<text x="400.0" y="25" class="title">Northwestern Energy Generation Data - Past 30 Days</text>

<!-- Plot area background -->
<rect x="80" y="50" width="600" height="370" fill="white" stroke="#ddd"/>

<!-- Y-axis -->
<line x1="80" y1="50" x2="80" y2="420" class="axis-line"/>
<text x="30" y="235.0" class="axis-label" transform="rotate(-90, 30, 235.0)">Generation (MW)</text>

<!-- X-axis -->
<line x1="80" y1="420" x2="680" y2="420" class="axis-line"/>
<text x="380.0" y="480" class="axis-label">Time</text>
<line x1="80" y1="420.0" x2="680" y2="420.0" class="grid-line"/>
<text x="70" y="425.0" class="legend" text-anchor="end">0</text>
<line x1="80" y1="327.5" x2="680" y2="327.5" class="grid-line"/>
<text x="70" y="332.5" class="legend" text-anchor="end">295</text>
<line x1="80" y1="235.0" x2="680" y2="235.0" class="grid-line"/>
<text x="70" y="240.0" class="legend" text-anchor="end">589</text>
<line x1="80" y1="142.5" x2="680" y2="142.5" class="grid-line"/>
<text x="70" y="147.5" class="legend" text-anchor="end">884</text>
<line x1="80" y1="50.0" x2="680" y2="50.0" class="grid-line"/>
<text x="70" y="55.0" class="legend" text-anchor="end">1178</text>
<!-- Wind Generation -->
<path d="M80.0,388.6 L80.8,389.2 L81.7,398.6 L82.5,408.7 L83.4,418.1 L84.2,408.7 L85.0,413.4 L85.9,415.6 L86.7,410.9 L87.6,409.0 L88.4,410.3 L89.3,408.7 L90.1,409.3 L90.9,414.3 L91.8,416.9 L92.6,412.8 L93.5,402.4 L94.3,392.4 L95.1,390.8 L96.0,369.4 L96.8,349.3 L97.7,352.2 L98.5,348.4 L99.4,371.3 L100.2,370.7 L101.0,349.6 L101.9,320.1 L102.7,310.1 L103.6,322.6 L104.4,345.3 L105.2,340.2 L106.1,345.6 L106.9,328.0 L107.8,334.3 L108.6,348.7 L109.5,352.8 L110.3,361.0 L111.1,358.1 L112.0,388.3 L112.8,393.9 L113.7,394.6 L114.5,403.4 L115.3,400.8 L116.2,398.3 L117.0,406.2 L117.9,400.5 L118.7,417.2 L119.6,403.4 L120.4,399.6 L121.2,404.6 L122.1,395.5 L122.9,407.1 L123.8,410.9 L124.6,418.4 L125.4,419.4 L126.3,419.1 L127.1,412.5 L128.0,382.9 L128.8,386.1 L129.6,334.9 L130.5,339.9 L131.3,354.0 L132.2,328.0 L133.0,330.5 L133.9,321.7 L134.7,327.7 L135.5,350.0 L136.4,329.2 L137.2,357.5 L138.1,355.0 L138.9,348.4 L139.7,307.3 L140.6,323.0 L141.4,319.2 L142.3,313.5 L143.1,303.5 L144.0,320.1 L144.8,330.5 L145.6,320.1 L146.5,311.0 L147.3,305.1 L148.2,310.7 L149.0,296.3 L149.8,300.0 L150.7,305.1 L151.5,302.9 L152.4,342.4 L153.2,339.9 L154.1,329.9 L154.9,308.5 L155.7,318.6 L156.6,311.3 L157.4,313.8 L158.3,306.9 L159.1,315.7 L159.9,304.7 L160.8,329.2 L161.6,339.6 L162.5,344.0 L163.3,352.8 L164.2,355.0 L165.0,355.0 L165.8,335.5 L166.7,339.6 L167.5,355.6 L168.4,331.7 L169.2,354.7 L170.0,335.2 L170.9,338.7 L171.7,355.3 L172.6,387.7 L173.4,386.4 L174.2,370.7 L175.1,375.7 L175.9,374.5 L176.8,328.6 L177.6,353.4 L178.5,344.0 L179.3,371.0 L180.1,344.6 L181.0,381.7 L181.8,373.5 L182.7,333.6 L183.5,348.1 L184.3,335.8 L185.2,340.9 L186.0,331.1 L186.9,325.8 L187.7,335.8 L188.6,348.7 L189.4,318.2 L190.2,332.7 L191.1,327.0 L191.9,339.3 L192.8,333.3 L193.6,315.4 L194.4,335.8 L195.3,333.3 L196.1,347.1 L197.0,364.1 L197.8,384.8 L198.7,388.9 L199.5,377.0 L200.3,355.9 L201.2,333.6 L202.0,333.3 L202.9,344.6 L203.7,339.0 L204.5,328.6 L205.4,321.1 L206.2,340.2 L207.1,355.9 L207.9,364.7 L208.8,346.8 L209.6,334.9 L210.4,348.7 L211.3,355.0 L212.1,350.0 L213.0,352.2 L213.8,357.8 L214.6,362.5 L215.5,350.3 L216.3,366.3 L217.2,333.3 L218.0,345.9 L218.8,371.6 L219.7,341.5 L220.5,342.7 L221.4,365.7 L222.2,354.0 L223.1,377.9 L223.9,387.0 L224.7,393.0 L225.6,389.2 L226.4,388.3 L227.3,374.1 L228.1,352.8 L228.9,351.8 L229.8,339.6 L230.6,337.1 L231.5,334.9 L232.3,364.4 L233.2,333.6 L234.0,361.6 L234.8,362.5 L235.7,365.0 L236.5,360.0 L237.4,357.8 L238.2,361.6 L239.0,363.5 L239.9,364.4 L240.7,379.8 L241.6,398.0 L242.4,398.3 L243.3,406.2 L244.1,411.2 L244.9,412.8 L245.8,400.8 L246.6,388.6 L247.5,394.9 L248.3,387.3 L249.1,375.1 L250.0,381.1 L250.8,360.3 L251.7,394.2 L252.5,391.1 L253.4,384.2 L254.2,384.8 L255.0,388.9 L255.9,383.9 L256.7,364.1 L257.6,377.0 L258.4,366.0 L259.2,360.0 L260.1,360.3 L260.9,366.3 L261.8,384.8 L262.6,400.5 L263.5,409.9 L264.3,408.1 L265.1,397.7 L266.0,394.2 L266.8,392.4 L267.7,389.2 L268.5,366.9 L269.3,361.3 L270.2,353.4 L271.0,371.6 L271.9,377.9 L272.7,380.4 L273.5,384.5 L274.4,383.3 L275.2,393.6 L276.1,388.6 L276.9,371.6 L277.8,364.7 L278.6,359.4 L279.4,367.6 L280.3,393.9 L281.1,408.7 L282.0,414.3 L282.8,417.8 L283.6,411.8 L284.5,417.5 L285.3,417.8 L286.2,415.3 L287.0,410.6 L287.9,396.4 L288.7,398.6 L289.5,400.2 L290.4,401.2 L291.2,401.5 L292.1,402.4 L292.9,409.3 L293.7,419.7 L294.6,420.0 L295.4,418.4 L296.3,414.0 L297.1,411.2 L298.0,407.4 L298.8,400.5 L299.6,377.9 L300.5,368.2 L301.3,367.9 L302.2,405.9 L303.0,403.7 L303.8,387.7 L304.7,395.8 L305.5,400.5 L306.4,399.6 L307.2,405.9 L308.1,411.2 L308.9,397.4 L309.7,389.8 L310.6,387.0 L311.4,394.9 L312.3,387.3 L313.1,376.0 L313.9,364.4 L314.8,348.1 L315.6,341.2 L316.5,340.9 L317.3,400.8 L318.1,364.4 L319.0,347.8 L319.8,350.3 L320.7,351.5 L321.5,351.2 L322.4,323.6 L323.2,293.1 L324.0,293.4 L324.9,299.4 L325.7,303.8 L326.6,302.2 L327.4,311.3 L328.2,317.9 L329.1,310.4 L329.9,319.2 L330.8,318.6 L331.6,327.0 L332.5,329.2 L333.3,349.6 L334.1,362.8 L335.0,363.8 L335.8,350.6 L336.7,375.1 L337.5,377.9 L338.3,377.6 L339.2,357.2 L340.0,387.7 L340.9,382.3 L341.7,383.6 L342.6,339.0 L343.4,367.6 L344.2,371.0 L345.1,352.8 L345.9,359.4 L346.8,376.3 L347.6,367.9 L348.4,341.5 L349.3,336.1 L350.1,325.2 L351.0,328.0 L351.8,323.3 L352.7,311.3 L353.5,306.0 L354.3,318.2 L355.2,333.0 L356.0,335.2 L356.9,339.6 L357.7,353.4 L358.5,338.0 L359.4,316.7 L360.2,328.3 L361.1,323.3 L361.9,326.7 L362.7,337.4 L363.6,344.3 L364.4,341.2 L365.3,338.0 L366.1,363.2 L367.0,393.0 L367.8,396.4 L368.6,385.1 L369.5,379.5 L370.3,380.7 L371.2,385.1 L372.0,394.2 L372.8,402.7 L373.7,415.3 L374.5,409.0 L375.4,403.4 L376.2,409.6 L377.1,404.9 L377.9,396.1 L378.7,397.7 L379.6,403.0 L380.4,409.6 L381.3,407.1 L382.1,408.7 L382.9,407.1 L383.8,386.7 L384.6,385.8 L385.5,383.6 L386.3,377.0 L387.2,369.1 L388.0,373.2 L388.8,381.7 L389.7,393.0 L390.5,404.9 L391.4,411.8 L392.2,414.7 L393.0,403.4 L393.9,393.9 L394.7,390.5 L395.6,383.6 L396.4,370.4 L397.3,400.2 L398.1,405.2 L398.9,399.6 L399.8,402.4 L400.6,401.2 L401.5,371.3 L402.3,376.3 L403.1,372.9 L404.0,373.5 L404.8,370.1 L405.7,366.9 L406.5,376.7 L407.3,385.1 L408.2,393.0 L409.0,403.0 L409.9,412.1 L410.7,408.4 L411.6,412.1 L412.4,414.0 L413.2,416.9 L414.1,415.9 L414.9,417.5 L415.8,417.5 L416.6,415.0 L417.4,415.0 L418.3,418.7 L419.1,420.0 L420.0,420.0 L420.8,419.7 L421.7,419.1 L422.5,418.4 L423.3,414.3 L424.2,413.7 L425.0,407.4 L425.9,411.5 L426.7,416.2 L427.5,417.5 L428.4,414.7 L429.2,414.7 L430.1,408.1 L430.9,404.3 L431.8,394.2 L432.6,383.6 L433.4,387.7 L434.3,390.8 L435.1,386.4 L436.0,388.9 L436.8,380.1 L437.6,383.6 L438.5,365.4 L439.3,382.0 L440.2,384.8 L441.0,398.6 L441.9,403.7 L442.7,400.2 L443.5,409.6 L444.4,409.3 L445.2,410.3 L446.1,406.2 L446.9,391.7 L447.7,398.0 L448.6,392.4 L449.4,374.1 L450.3,363.5 L451.1,347.1 L451.9,382.3 L452.8,385.5 L453.6,393.9 L454.5,393.9 L455.3,383.6 L456.2,388.0 L457.0,378.2 L457.8,385.1 L458.7,379.8 L459.5,376.0 L460.4,386.7 L461.2,374.1 L462.0,375.1 L462.9,382.9 L463.7,388.9 L464.6,409.0 L465.4,413.7 L466.3,415.6 L467.1,412.1 L467.9,411.2 L468.8,403.4 L469.6,398.6 L470.5,401.8 L471.3,393.6 L472.1,399.3 L473.0,391.7 L473.8,399.0 L474.7,407.4 L475.5,407.1 L476.4,382.9 L477.2,372.9 L478.0,381.4 L478.9,381.1 L479.7,394.9 L480.6,392.7 L481.4,391.4 L482.2,397.1 L483.1,397.7 L483.9,408.1 L484.8,413.1 L485.6,416.2 L486.5,412.1 L487.3,408.1 L488.1,407.1 L489.0,405.2 L489.8,400.2 L490.7,389.5 L491.5,376.0 L492.3,371.9 L493.2,374.5 L494.0,379.8 L494.9,384.5 L495.7,382.6 L496.5,392.0 L497.4,396.1 L498.2,399.0 L499.1,399.0 L499.9,401.5 L500.8,402.4 L501.6,400.8 L502.4,398.3 L503.3,394.9 L504.1,403.0 L505.0,408.4 L505.8,406.2 L506.6,407.1 L507.5,390.8 L508.3,397.1 L509.2,392.7 L510.0,388.3 L510.9,386.7 L511.7,353.4 L512.5,358.8 L513.4,348.1 L514.2,369.4 L515.1,378.9 L515.9,386.7 L516.7,396.4 L517.6,403.4 L518.4,406.8 L519.3,403.4 L520.1,389.5 L521.0,398.0 L521.8,392.0 L522.6,391.1 L523.5,394.9 L524.3,398.3 L525.2,398.0 L526.0,392.7 L526.8,402.7 L527.7,388.0 L528.5,416.9 L529.4,415.6 L530.2,416.9 L531.1,416.9 L531.9,415.9 L532.7,412.8 L533.6,413.1 L534.4,415.6 L535.3,416.9 L536.1,413.7 L536.9,408.4 L537.8,396.8 L538.6,379.2 L539.5,388.3 L540.3,377.3 L541.2,366.9 L542.0,369.4 L542.8,359.1 L543.7,355.0 L544.5,377.6 L545.4,364.7 L546.2,376.3 L547.0,391.7 L547.9,392.0 L548.7,384.5 L549.6,351.8 L550.4,324.5 L551.2,343.4 L552.1,352.2 L552.9,381.1 L553.8,381.4 L554.6,376.7 L555.5,395.2 L556.3,387.0 L557.1,388.3 L558.0,381.7 L558.8,371.6 L559.7,368.8 L560.5,358.8 L561.3,344.6 L562.2,339.6 L563.0,333.6 L563.9,346.2 L564.7,357.2 L565.6,379.2 L566.4,373.5 L567.2,358.8 L568.1,376.3 L568.9,385.1 L569.8,395.2 L570.6,408.1 L571.4,408.1 L572.3,406.5 L573.1,403.7 L574.0,399.3 L574.8,397.7 L575.7,384.5 L576.5,376.7 L577.3,371.6 L578.2,370.1 L579.0,348.1 L579.9,343.7 L580.7,351.2 L581.5,356.6 L582.4,345.3 L583.2,356.6 L584.1,362.2 L584.9,377.0 L585.8,400.8 L586.6,403.0 L587.4,407.1 L588.3,416.2 L589.1,415.3 L590.0,411.8 L590.8,408.1 L591.6,403.0 L592.5,389.2 L593.3,383.6 L594.2,380.4 L595.0,390.5 L595.8,378.2 L596.7,371.0 L597.5,376.3 L598.4,370.7 L599.2,367.2 L600.1,368.2 L600.9,359.7 L601.7,364.4 L602.6,366.0 L603.4,346.5 L604.3,362.8 L605.1,353.7 L605.9,371.3 L606.8,386.7 L607.6,379.8 L608.5,359.1 L609.3,339.9 L610.2,315.4 L611.0,315.7 L611.8,324.8 L612.7,340.5 L613.5,334.6 L614.4,350.6 L615.2,378.2 L616.0,394.9 L616.9,405.9 L617.7,366.3 L618.6,368.8 L619.4,382.6 L620.3,386.4 L621.1,385.8 L621.9,371.6 L622.8,386.4 L623.6,383.3 L624.5,388.9 L625.3,399.3 L626.1,390.5 L627.0,389.5 L627.8,400.2 L628.7,398.6 L629.5,396.4 L630.4,378.2 L631.2,388.9 L632.0,389.2 L632.9,399.6 L633.7,401.5 L634.6,403.7 L635.4,411.5 L636.2,412.5 L637.1,405.9 L637.9,393.9 L638.8,390.8 L639.6,380.4 L640.4,369.4 L641.3,367.2 L642.1,364.1 L643.0,362.2 L643.8,370.4 L644.7,360.0 L645.5,366.3 L646.3,367.2 L647.2,356.6 L648.0,323.6 L648.9,366.6 L649.7,383.3 L650.5,364.7 L651.4,386.7 L652.2,357.2 L653.1,364.1 L653.9,371.0 L654.8,386.4 L655.6,389.2 L656.4,399.0 L657.3,388.0 L658.1,402.7 L659.0,405.2 L659.8,396.4 L660.6,394.9 L661.5,396.8 L662.3,399.3 L663.2,411.8 L664.0,416.5 L664.9,416.9 L665.7,417.8 L666.5,417.5 L667.4,416.2 L668.2,416.5 L669.1,415.3 L669.9,414.0 L670.7,414.0 L671.6,416.9 L672.4,415.6 L673.3,412.1 L674.1,408.7 L675.0,406.8 L675.8,405.2 L676.6,410.9 L677.5,408.7 L678.3,408.7 L679.2,406.5 L680.0,404.3" stroke="#1f77b4" stroke-width="2" fill="none" opacity="0.8"/>
<!-- Hydro Generation -->
<path d="M80.0,339.0 L80.8,339.0 L81.7,339.3 L82.5,339.0 L83.4,339.0 L84.2,339.0 L85.0,339.0 L85.9,339.0 L86.7,339.0 L87.6,339.3 L88.4,339.0 L89.3,339.3 L90.1,339.6 L90.9,340.5 L91.8,340.5 L92.6,340.2 L93.5,339.9 L94.3,340.2 L95.1,339.6 L96.0,339.0 L96.8,339.3 L97.7,338.0 L98.5,337.7 L99.4,337.7 L100.2,338.3 L101.0,338.3 L101.9,338.3 L102.7,338.3 L103.6,338.3 L104.4,338.3 L105.2,338.3 L106.1,338.0 L106.9,338.3 L107.8,338.0 L108.6,338.0 L109.5,338.3 L110.3,339.3 L111.1,339.6 L112.0,339.6 L112.8,339.6 L113.7,339.3 L114.5,338.0 L115.3,338.0 L116.2,338.0 L117.0,337.1 L117.9,337.4 L118.7,337.1 L119.6,337.1 L120.4,337.4 L121.2,338.0 L122.1,338.3 L122.9,338.3 L123.8,338.3 L124.6,337.1 L125.4,337.1 L126.3,337.4 L127.1,336.5 L128.0,336.5 L128.8,336.5 L129.6,336.1 L130.5,337.7 L131.3,338.0 L132.2,337.7 L133.0,336.8 L133.9,350.3 L134.7,350.0 L135.5,349.6 L136.4,349.6 L137.2,349.6 L138.1,350.0 L138.9,350.3 L139.7,349.6 L140.6,336.1 L141.4,336.5 L142.3,336.5 L143.1,336.8 L144.0,336.5 L144.8,336.5 L145.6,336.8 L146.5,336.5 L147.3,336.5 L148.2,336.5 L149.0,336.8 L149.8,335.8 L150.7,337.7 L151.5,340.5 L152.4,340.5 L153.2,340.5 L154.1,340.9 L154.9,339.9 L155.7,340.2 L156.6,339.9 L157.4,340.5 L158.3,340.9 L159.1,341.2 L159.9,340.9 L160.8,341.2 L161.6,340.9 L162.5,340.5 L163.3,341.2 L164.2,340.2 L165.0,339.9 L165.8,339.9 L166.7,340.2 L167.5,339.6 L168.4,339.6 L169.2,339.9 L170.0,338.7 L170.9,339.0 L171.7,339.3 L172.6,339.6 L173.4,339.9 L174.2,339.9 L175.1,340.2 L175.9,339.9 L176.8,340.5 L177.6,339.9 L178.5,340.9 L179.3,341.2 L180.1,340.9 L181.0,341.5 L181.8,341.2 L182.7,341.5 L183.5,342.7 L184.3,342.4 L185.2,342.7 L186.0,341.2 L186.9,340.9 L187.7,340.5 L188.6,339.6 L189.4,339.6 L190.2,339.0 L191.1,339.0 L191.9,339.3 L192.8,339.0 L193.6,339.0 L194.4,339.0 L195.3,339.0 L196.1,340.2 L197.0,339.6 L197.8,339.6 L198.7,339.6 L199.5,339.6 L200.3,342.4 L201.2,344.0 L202.0,344.0 L202.9,344.6 L203.7,344.6 L204.5,344.3 L205.4,342.7 L206.2,342.1 L207.1,342.4 L207.9,341.8 L208.8,341.8 L209.6,341.8 L210.4,341.5 L211.3,341.8 L212.1,341.5 L213.0,341.2 L213.8,341.2 L214.6,339.9 L215.5,339.9 L216.3,339.6 L217.2,340.2 L218.0,339.9 L218.8,340.2 L219.7,340.5 L220.5,327.7 L221.4,328.0 L222.2,328.3 L223.1,327.7 L223.9,327.4 L224.7,327.4 L225.6,327.0 L226.4,327.0 L227.3,327.7 L228.1,327.7 L228.9,327.7 L229.8,327.7 L230.6,328.0 L231.5,328.0 L232.3,327.7 L233.2,327.7 L234.0,327.4 L234.8,327.4 L235.7,327.7 L236.5,354.7 L237.4,361.6 L238.2,361.3 L239.0,361.6 L239.9,362.5 L240.7,347.8 L241.6,327.4 L242.4,328.0 L243.3,328.3 L244.1,328.3 L244.9,328.6 L245.8,328.6 L246.6,328.6 L247.5,328.0 L248.3,327.7 L249.1,327.0 L250.0,327.0 L250.8,327.0 L251.7,327.4 L252.5,327.4 L253.4,327.4 L254.2,349.6 L255.0,349.6 L255.9,350.0 L256.7,349.6 L257.6,350.0 L258.4,350.0 L259.2,350.0 L260.1,328.3 L260.9,328.0 L261.8,328.0 L262.6,328.9 L263.5,328.9 L264.3,328.6 L265.1,328.9 L266.0,328.9 L266.8,328.9 L267.7,328.9 L268.5,328.9 L269.3,328.9 L270.2,328.9 L271.0,328.9 L271.9,329.5 L272.7,330.8 L273.5,332.4 L274.4,334.3 L275.2,332.7 L276.1,332.7 L276.9,332.4 L277.8,332.7 L278.6,332.1 L279.4,330.5 L280.3,330.5 L281.1,330.2 L282.0,330.5 L282.8,331.1 L283.6,330.8 L284.5,331.1 L285.3,331.1 L286.2,331.1 L287.0,331.1 L287.9,331.1 L288.7,331.1 L289.5,331.1 L290.4,330.8 L291.2,331.1 L292.1,331.1 L292.9,330.8 L293.7,330.8 L294.6,330.8 L295.4,331.4 L296.3,332.1 L297.1,335.5 L298.0,332.7 L298.8,332.7 L299.6,332.7 L300.5,332.7 L301.3,332.7 L302.2,332.1 L303.0,332.1 L303.8,332.1 L304.7,332.4 L305.5,332.4 L306.4,332.4 L307.2,332.4 L308.1,332.1 L308.9,332.1 L309.7,332.1 L310.6,331.7 L311.4,332.4 L312.3,332.1 L313.1,330.8 L313.9,330.8 L314.8,333.3 L315.6,331.4 L316.5,331.1 L317.3,331.1 L318.1,331.4 L319.0,331.1 L319.8,331.4 L320.7,331.4 L321.5,331.1 L322.4,331.7 L323.2,331.7 L324.0,333.0 L324.9,332.1 L325.7,332.4 L326.6,333.3 L327.4,333.3 L328.2,333.3 L329.1,333.3 L329.9,333.6 L330.8,333.6 L331.6,333.0 L332.5,333.0 L333.3,332.4 L334.1,332.1 L335.0,332.1 L335.8,332.1 L336.7,331.4 L337.5,332.1 L338.3,332.1 L339.2,332.1 L340.0,332.1 L340.9,330.8 L341.7,330.8 L342.6,330.8 L343.4,330.8 L344.2,330.8 L345.1,330.5 L345.9,330.8 L346.8,330.8 L347.6,330.5 L348.4,330.8 L349.3,330.8 L350.1,330.8 L351.0,331.4 L351.8,331.4 L352.7,332.1 L353.5,331.4 L354.3,331.7 L355.2,333.6 L356.0,331.4 L356.9,331.4 L357.7,331.7 L358.5,331.1 L359.4,331.7 L360.2,331.4 L361.1,330.2 L361.9,329.9 L362.7,330.2 L363.6,329.2 L364.4,329.2 L365.3,327.7 L366.1,328.0 L367.0,327.7 L367.8,327.7 L368.6,326.7 L369.5,327.0 L370.3,326.7 L371.2,326.7 L372.0,326.4 L372.8,328.0 L373.7,328.3 L374.5,328.0 L375.4,328.0 L376.2,327.7 L377.1,328.9 L377.9,328.6 L378.7,328.9 L379.6,328.3 L380.4,328.9 L381.3,329.5 L382.1,329.5 L382.9,328.9 L383.8,329.2 L384.6,329.2 L385.5,329.2 L386.3,329.2 L387.2,329.2 L388.0,329.2 L388.8,329.2 L389.7,329.2 L390.5,329.2 L391.4,329.2 L392.2,329.9 L393.0,329.9 L393.9,329.9 L394.7,329.9 L395.6,329.9 L396.4,329.9 L397.3,330.8 L398.1,330.2 L398.9,330.8 L399.8,330.8 L400.6,330.8 L401.5,331.4 L402.3,331.1 L403.1,331.7 L404.0,331.7 L404.8,332.1 L405.7,331.7 L406.5,331.7 L407.3,331.7 L408.2,331.7 L409.0,330.8 L409.9,330.8 L410.7,331.1 L411.6,331.1 L412.4,330.8 L413.2,330.8 L414.1,331.1 L414.9,331.1 L415.8,331.1 L416.6,330.8 L417.4,330.8 L418.3,332.4 L419.1,332.7 L420.0,331.7 L420.8,332.7 L421.7,331.4 L422.5,330.8 L423.3,330.8 L424.2,331.1 L425.0,331.4 L425.9,332.4 L426.7,332.4 L427.5,332.4 L428.4,332.1 L429.2,331.7 L430.1,331.7 L430.9,332.1 L431.8,331.7 L432.6,331.7 L433.4,331.7 L434.3,331.7 L435.1,331.4 L436.0,331.4 L436.8,344.3 L437.6,344.3 L438.5,344.6 L439.3,344.3 L440.2,344.6 L441.0,332.1 L441.9,332.1 L442.7,331.7 L443.5,331.7 L444.4,331.7 L445.2,331.1 L446.1,331.4 L446.9,331.4 L447.7,331.4 L448.6,331.7 L449.4,331.7 L450.3,331.4 L451.1,331.4 L451.9,331.4 L452.8,331.7 L453.6,331.7 L454.5,332.1 L455.3,331.4 L456.2,331.4 L457.0,332.7 L457.8,332.7 L458.7,333.9 L459.5,334.3 L460.4,334.3 L461.2,332.1 L462.0,332.4 L462.9,332.4 L463.7,332.4 L464.6,332.4 L465.4,332.4 L466.3,332.1 L467.1,332.1 L467.9,332.1 L468.8,331.7 L469.6,331.7 L470.5,332.4 L471.3,332.7 L472.1,332.7 L473.0,333.3 L473.8,333.3 L474.7,333.3 L475.5,335.2 L476.4,344.6 L477.2,344.6 L478.0,332.7 L478.9,333.3 L479.7,334.6 L480.6,333.3 L481.4,333.3 L482.2,333.0 L483.1,333.0 L483.9,332.7 L484.8,332.7 L485.6,332.7 L486.5,332.7 L487.3,332.4 L488.1,332.7 L489.0,332.7 L489.8,334.3 L490.7,345.3 L491.5,332.7 L492.3,333.0 L493.2,331.4 L494.0,331.1 L494.9,331.1 L495.7,331.1 L496.5,331.1 L497.4,330.8 L498.2,331.4 L499.1,331.7 L499.9,333.0 L500.8,332.7 L501.6,333.0 L502.4,333.9 L503.3,333.9 L504.1,334.9 L505.0,334.9 L505.8,335.8 L506.6,335.8 L507.5,335.8 L508.3,335.8 L509.2,335.8 L510.0,335.8 L510.9,336.1 L511.7,335.8 L512.5,335.8 L513.4,335.8 L514.2,335.8 L515.1,335.8 L515.9,336.1 L516.7,336.1 L517.6,336.1 L518.4,336.1 L519.3,335.8 L520.1,336.1 L521.0,335.8 L521.8,335.8 L522.6,335.8 L523.5,334.9 L524.3,333.6 L525.2,333.6 L526.0,333.6 L526.8,332.7 L527.7,332.7 L528.5,332.7 L529.4,333.0 L530.2,333.0 L531.1,332.7 L531.9,333.6 L532.7,333.6 L533.6,334.6 L534.4,334.6 L535.3,334.3 L536.1,333.9 L536.9,333.9 L537.8,333.9 L538.6,330.8 L539.5,333.9 L540.3,333.9 L541.2,334.3 L542.0,334.3 L542.8,333.9 L543.7,333.9 L544.5,334.3 L545.4,334.6 L546.2,333.6 L547.0,333.6 L547.9,333.6 L548.7,333.6 L549.6,333.6 L550.4,333.6 L551.2,333.6 L552.1,334.9 L552.9,334.9 L553.8,334.9 L554.6,334.9 L555.5,334.9 L556.3,334.9 L557.1,334.9 L558.0,334.9 L558.8,334.9 L559.7,335.2 L560.5,334.9 L561.3,334.6 L562.2,335.2 L563.0,334.9 L563.9,334.9 L564.7,334.9 L565.6,334.9 L566.4,334.9 L567.2,335.5 L568.1,335.5 L568.9,335.8 L569.8,335.5 L570.6,335.5 L571.4,335.5 L572.3,335.2 L573.1,335.8 L574.0,335.2 L574.8,335.2 L575.7,336.1 L576.5,335.5 L577.3,335.8 L578.2,335.8 L579.0,336.1 L579.9,335.8 L580.7,335.5 L581.5,335.2 L582.4,335.2 L583.2,335.5 L584.1,335.5 L584.9,335.5 L585.8,335.5 L586.6,335.5 L587.4,335.5 L588.3,335.5 L589.1,335.5 L590.0,335.5 L590.8,335.5 L591.6,335.2 L592.5,335.2 L593.3,334.9 L594.2,334.9 L595.0,335.2 L595.8,335.2 L596.7,335.2 L597.5,334.9 L598.4,334.9 L599.2,334.9 L600.1,335.2 L600.9,335.2 L601.7,333.6 L602.6,333.9 L603.4,333.0 L604.3,333.0 L605.1,334.3 L605.9,334.3 L606.8,332.7 L607.6,332.1 L608.5,332.4 L609.3,332.4 L610.2,332.4 L611.0,332.7 L611.8,332.7 L612.7,333.3 L613.5,333.6 L614.4,333.6 L615.2,332.4 L616.0,332.4 L616.9,332.1 L617.7,330.5 L618.6,332.1 L619.4,330.2 L620.3,330.5 L621.1,330.2 L621.9,331.1 L622.8,330.8 L623.6,331.7 L624.5,331.1 L625.3,331.4 L626.1,331.4 L627.0,331.4 L627.8,331.4 L628.7,331.7 L629.5,331.4 L630.4,331.7 L631.2,331.1 L632.0,331.1 L632.9,330.8 L633.7,331.1 L634.6,331.1 L635.4,331.1 L636.2,331.1 L637.1,330.5 L637.9,331.7 L638.8,331.7 L639.6,331.7 L640.4,331.7 L641.3,331.7 L642.1,332.1 L643.0,332.1 L643.8,331.7 L644.7,331.7 L645.5,333.3 L646.3,333.3 L647.2,333.3 L648.0,331.4 L648.9,331.4 L649.7,331.4 L650.5,331.4 L651.4,331.4 L652.2,330.8 L653.1,330.8 L653.9,330.8 L654.8,332.1 L655.6,332.4 L656.4,330.5 L657.3,330.5 L658.1,331.1 L659.0,331.1 L659.8,331.4 L660.6,331.1 L661.5,331.4 L662.3,333.6 L663.2,333.9 L664.0,332.1 L664.9,332.4 L665.7,332.4 L666.5,332.4 L667.4,331.7 L668.2,331.7 L669.1,331.1 L669.9,330.8 L670.7,331.1 L671.6,331.1 L672.4,332.1 L673.3,332.1 L674.1,332.4 L675.0,332.1 L675.8,332.4 L676.6,332.1 L677.5,332.4 L678.3,332.4 L679.2,332.1 L680.0,332.4" stroke="#ff7f0e" stroke-width="2" fill="none" opacity="0.8"/>
<!-- Thermal Generation -->
<path d="M80.0,221.2 L80.8,218.1 L81.7,236.3 L82.5,229.7 L83.4,241.3 L84.2,292.2 L85.0,292.5 L85.9,305.1 L86.7,304.4 L87.6,304.7 L88.4,304.4 L89.3,289.3 L90.1,301.6 L90.9,352.2 L91.8,339.6 L92.6,351.5 L93.5,352.2 L94.3,353.4 L95.1,353.1 L96.0,350.3 L96.8,351.5 L97.7,352.2 L98.5,352.5 L99.4,348.7 L100.2,313.8 L101.0,290.0 L101.9,289.3 L102.7,336.5 L103.6,351.5 L104.4,351.5 L105.2,351.2 L106.1,350.6 L106.9,350.9 L107.8,350.6 L108.6,350.9 L109.5,351.8 L110.3,350.0 L111.1,352.5 L112.0,351.2 L112.8,352.2 L113.7,336.8 L114.5,339.9 L115.3,339.6 L116.2,314.8 L117.0,317.9 L117.9,299.7 L118.7,289.7 L119.6,289.7 L120.4,305.1 L121.2,306.9 L122.1,308.2 L122.9,306.9 L123.8,351.8 L124.6,351.8 L125.4,352.2 L126.3,351.5 L127.1,352.2 L128.0,351.2 L128.8,351.2 L129.6,352.2 L130.5,352.5 L131.3,352.2 L132.2,351.5 L133.0,353.1 L133.9,352.5 L134.7,352.2 L135.5,352.5 L136.4,343.7 L137.2,333.3 L138.1,333.9 L138.9,348.1 L139.7,352.5 L140.6,351.8 L141.4,352.5 L142.3,351.8 L143.1,352.5 L144.0,352.2 L144.8,352.2 L145.6,351.8 L146.5,351.5 L147.3,351.5 L148.2,351.2 L149.0,351.2 L149.8,351.8 L150.7,334.6 L151.5,333.9 L152.4,316.4 L153.2,344.0 L154.1,330.2 L154.9,334.6 L155.7,334.3 L156.6,350.6 L157.4,350.0 L158.3,350.0 L159.1,352.5 L159.9,352.2 L160.8,337.7 L161.6,340.2 L162.5,345.3 L163.3,339.6 L164.2,333.9 L165.0,333.6 L165.8,352.2 L166.7,351.8 L167.5,351.8 L168.4,352.5 L169.2,339.6 L170.0,340.2 L170.9,311.6 L171.7,329.5 L172.6,352.5 L173.4,352.5 L174.2,352.8 L175.1,353.1 L175.9,352.8 L176.8,352.8 L177.6,352.5 L178.5,352.5 L179.3,352.5 L180.1,352.5 L181.0,320.4 L181.8,322.0 L182.7,290.0 L183.5,302.9 L184.3,327.4 L185.2,352.5 L186.0,352.2 L186.9,352.2 L187.7,352.2 L188.6,352.8 L189.4,352.2 L190.2,327.0 L191.1,305.7 L191.9,328.0 L192.8,327.4 L193.6,339.6 L194.4,351.8 L195.3,352.2 L196.1,352.5 L197.0,352.5 L197.8,352.2 L198.7,352.2 L199.5,352.2 L200.3,352.2 L201.2,353.1 L202.0,353.1 L202.9,352.2 L203.7,352.2 L204.5,340.2 L205.4,352.8 L206.2,352.2 L207.1,351.8 L207.9,351.8 L208.8,352.5 L209.6,352.8 L210.4,333.3 L211.3,318.2 L212.1,317.9 L213.0,318.6 L213.8,333.9 L214.6,352.8 L215.5,352.2 L216.3,353.1 L217.2,352.5 L218.0,352.2 L218.8,352.2 L219.7,352.2 L220.5,351.8 L221.4,307.3 L222.2,325.2 L223.1,312.9 L223.9,309.1 L224.7,306.3 L225.6,312.3 L226.4,321.7 L227.3,325.5 L228.1,325.8 L228.9,336.8 L229.8,352.2 L230.6,339.6 L231.5,335.8 L232.3,336.5 L233.2,352.2 L234.0,351.8 L234.8,352.2 L235.7,352.5 L236.5,352.8 L237.4,352.2 L238.2,352.2 L239.0,351.8 L239.9,352.8 L240.7,352.2 L241.6,337.4 L242.4,307.6 L243.3,307.9 L244.1,310.7 L244.9,317.9 L245.8,314.8 L246.6,344.3 L247.5,347.8 L248.3,352.5 L249.1,351.8 L250.0,351.8 L250.8,352.2 L251.7,351.5 L252.5,345.3 L253.4,351.8 L254.2,351.5 L255.0,351.8 L255.9,351.2 L256.7,351.5 L257.6,351.2 L258.4,351.8 L259.2,352.5 L260.1,352.2 L260.9,315.7 L261.8,300.0 L262.6,267.4 L263.5,245.4 L264.3,243.8 L265.1,242.9 L266.0,281.5 L266.8,329.2 L267.7,352.5 L268.5,352.5 L269.3,352.5 L270.2,328.6 L271.0,303.8 L271.9,316.0 L272.7,340.5 L273.5,344.6 L274.4,352.8 L275.2,350.3 L276.1,352.8 L276.9,353.4 L277.8,328.6 L278.6,339.3 L279.4,350.3 L280.3,352.8 L281.1,295.0 L282.0,230.6 L282.8,216.8 L283.6,216.5 L284.5,251.3 L285.3,286.5 L286.2,310.7 L287.0,337.4 L287.9,339.6 L288.7,352.2 L289.5,351.5 L290.4,351.5 L291.2,352.8 L292.1,352.5 L292.9,353.7 L293.7,349.0 L294.6,348.4 L295.4,349.0 L296.3,343.4 L297.1,345.6 L298.0,347.5 L298.8,347.8 L299.6,347.8 L300.5,347.1 L301.3,343.4 L302.2,319.8 L303.0,302.5 L303.8,306.0 L304.7,333.6 L305.5,351.8 L306.4,352.2 L307.2,351.8 L308.1,351.5 L308.9,352.2 L309.7,351.8 L310.6,351.8 L311.4,352.5 L312.3,352.8 L313.1,352.8 L313.9,352.8 L314.8,353.7 L315.6,354.0 L316.5,353.4 L317.3,353.7 L318.1,352.2 L319.0,352.5 L319.8,352.2 L320.7,352.5 L321.5,349.0 L322.4,351.5 L323.2,351.8 L324.0,352.2 L324.9,370.7 L325.7,371.0 L326.6,370.7 L327.4,351.8 L328.2,351.5 L329.1,351.2 L329.9,352.2 L330.8,351.8 L331.6,352.8 L332.5,353.1 L333.3,353.1 L334.1,352.5 L335.0,352.5 L335.8,352.5 L336.7,305.7 L337.5,299.1 L338.3,302.2 L339.2,299.1 L340.0,352.2 L340.9,352.5 L341.7,351.5 L342.6,352.5 L343.4,352.5 L344.2,352.2 L345.1,351.8 L345.9,340.9 L346.8,352.2 L347.6,351.5 L348.4,351.5 L349.3,351.5 L350.1,334.6 L351.0,336.1 L351.8,348.7 L352.7,339.9 L353.5,300.3 L354.3,299.1 L355.2,302.5 L356.0,301.9 L356.9,351.8 L357.7,351.8 L358.5,352.5 L359.4,349.0 L360.2,352.2 L361.1,351.8 L361.9,351.8 L362.7,352.5 L363.6,352.8 L364.4,352.5 L365.3,352.5 L366.1,352.5 L367.0,352.2 L367.8,352.5 L368.6,304.7 L369.5,298.8 L370.3,299.7 L371.2,298.5 L372.0,344.6 L372.8,344.3 L373.7,344.9 L374.5,344.3 L375.4,344.3 L376.2,351.8 L377.1,351.8 L377.9,351.5 L378.7,351.8 L379.6,351.5 L380.4,351.2 L381.3,351.5 L382.1,322.6 L382.9,323.0 L383.8,266.1 L384.6,264.5 L385.5,343.1 L386.3,351.5 L387.2,352.5 L388.0,366.9 L388.8,367.9 L389.7,352.5 L390.5,351.8 L391.4,352.2 L392.2,352.2 L393.0,351.2 L393.9,351.5 L394.7,351.8 L395.6,352.2 L396.4,351.8 L397.3,352.2 L398.1,351.8 L398.9,352.2 L399.8,351.8 L400.6,351.8 L401.5,351.8 L402.3,352.2 L403.1,352.5 L404.0,352.5 L404.8,352.5 L405.7,352.5 L406.5,346.8 L407.3,346.5 L408.2,352.5 L409.0,352.5 L409.9,352.5 L410.7,352.5 L411.6,306.3 L412.4,306.3 L413.2,306.3 L414.1,306.9 L414.9,306.3 L415.8,305.7 L416.6,306.6 L417.4,306.6 L418.3,306.6 L419.1,306.6 L420.0,307.3 L420.8,306.0 L421.7,305.7 L422.5,306.3 L423.3,277.1 L424.2,301.6 L425.0,306.3 L425.9,306.0 L426.7,306.6 L427.5,306.6 L428.4,306.3 L429.2,306.6 L430.1,306.6 L430.9,305.7 L431.8,305.4 L432.6,289.0 L433.4,298.5 L434.3,301.3 L435.1,306.0 L436.0,305.7 L436.8,306.3 L437.6,306.6 L438.5,305.4 L439.3,305.4 L440.2,352.2 L441.0,351.8 L441.9,351.8 L442.7,352.5 L443.5,298.1 L444.4,298.5 L445.2,314.5 L446.1,315.1 L446.9,346.5 L447.7,346.8 L448.6,346.2 L449.4,346.5 L450.3,346.2 L451.1,346.5 L451.9,340.2 L452.8,326.1 L453.6,306.9 L454.5,339.3 L455.3,338.7 L456.2,352.5 L457.0,351.8 L457.8,352.2 L458.7,346.8 L459.5,352.2 L460.4,352.2 L461.2,352.2 L462.0,352.8 L462.9,345.9 L463.7,283.4 L464.6,264.9 L465.4,287.8 L466.3,287.2 L467.1,277.1 L467.9,301.9 L468.8,298.8 L469.6,301.9 L470.5,299.1 L471.3,298.8 L472.1,279.6 L473.0,260.8 L473.8,261.1 L474.7,299.4 L475.5,319.5 L476.4,337.7 L477.2,339.6 L478.0,352.2 L478.9,352.5 L479.7,351.8 L480.6,352.2 L481.4,351.5 L482.2,352.5 L483.1,285.6 L483.9,241.9 L484.8,238.5 L485.6,226.2 L486.5,237.8 L487.3,268.9 L488.1,283.1 L489.0,284.3 L489.8,278.4 L490.7,297.5 L491.5,280.2 L492.3,279.6 L493.2,261.7 L494.0,292.8 L494.9,316.0 L495.7,352.8 L496.5,352.5 L497.4,352.5 L498.2,352.8 L499.1,352.5 L499.9,352.5 L500.8,317.3 L501.6,353.7 L502.4,352.8 L503.3,303.5 L504.1,237.5 L505.0,239.4 L505.8,234.7 L506.6,243.8 L507.5,268.3 L508.3,274.6 L509.2,274.0 L510.0,285.6 L510.9,286.8 L511.7,286.8 L512.5,312.9 L513.4,289.3 L514.2,341.2 L515.1,372.3 L515.9,371.6 L516.7,371.6 L517.6,371.6 L518.4,371.9 L519.3,371.3 L520.1,371.6 L521.0,371.6 L521.8,371.9 L522.6,371.6 L523.5,359.7 L524.3,299.4 L525.2,293.1 L526.0,286.5 L526.8,295.9 L527.7,286.8 L528.5,286.2 L529.4,290.9 L530.2,325.5 L531.1,332.1 L531.9,327.4 L532.7,321.7 L533.6,316.4 L534.4,353.7 L535.3,371.9 L536.1,368.8 L536.9,371.3 L537.8,371.9 L538.6,371.3 L539.5,372.3 L540.3,372.6 L541.2,372.6 L542.0,371.9 L542.8,372.6 L543.7,372.3 L544.5,312.3 L545.4,292.2 L546.2,283.7 L547.0,304.1 L547.9,313.2 L548.7,318.6 L549.6,327.7 L550.4,328.0 L551.2,371.3 L552.1,371.6 L552.9,371.6 L553.8,359.7 L554.6,359.4 L555.5,365.7 L556.3,371.9 L557.1,371.0 L558.0,371.6 L558.8,346.8 L559.7,344.6 L560.5,340.5 L561.3,370.4 L562.2,317.6 L563.0,371.3 L563.9,278.4 L564.7,325.5 L565.6,327.4 L566.4,333.6 L567.2,346.5 L568.1,352.5 L568.9,352.5 L569.8,353.7 L570.6,292.5 L571.4,324.5 L572.3,295.6 L573.1,303.5 L574.0,286.2 L574.8,310.7 L575.7,321.1 L576.5,333.3 L577.3,321.1 L578.2,320.4 L579.0,317.9 L579.9,319.2 L580.7,320.4 L581.5,317.3 L582.4,317.6 L583.2,329.2 L584.1,301.0 L584.9,281.2 L585.8,289.7 L586.6,275.5 L587.4,285.9 L588.3,287.5 L589.1,277.7 L590.0,277.1 L590.8,308.2 L591.6,311.0 L592.5,310.1 L593.3,313.2 L594.2,279.9 L595.0,300.3 L595.8,311.3 L596.7,318.2 L597.5,323.0 L598.4,352.5 L599.2,371.0 L600.1,371.0 L600.9,371.3 L601.7,371.3 L602.6,371.0 L603.4,371.0 L604.3,340.2 L605.1,313.2 L605.9,301.3 L606.8,334.3 L607.6,339.9 L608.5,351.8 L609.3,352.5 L610.2,352.8 L611.0,352.8 L611.8,353.1 L612.7,352.2 L613.5,352.5 L614.4,340.5 L615.2,352.5 L616.0,352.8 L616.9,352.8 L617.7,352.5 L618.6,352.2 L619.4,364.4 L620.3,365.0 L621.1,364.7 L621.9,365.0 L622.8,355.9 L623.6,328.0 L624.5,293.1 L625.3,286.8 L626.1,275.2 L627.0,274.9 L627.8,298.8 L628.7,290.6 L629.5,304.4 L630.4,362.2 L631.2,371.3 L632.0,371.3 L632.9,371.0 L633.7,352.2 L634.6,340.9 L635.4,372.3 L636.2,372.3 L637.1,372.6 L637.9,372.3 L638.8,372.6 L639.6,372.9 L640.4,372.6 L641.3,372.3 L642.1,371.6 L643.0,371.9 L643.8,371.3 L644.7,371.3 L645.5,370.7 L646.3,370.7 L647.2,346.2 L648.0,370.7 L648.9,370.7 L649.7,370.7 L650.5,370.4 L651.4,370.7 L652.2,371.0 L653.1,370.7 L653.9,371.0 L654.8,371.3 L655.6,372.3 L656.4,371.6 L657.3,351.8 L658.1,371.6 L659.0,371.3 L659.8,374.1 L660.6,371.6 L661.5,371.9 L662.3,358.8 L663.2,346.2 L664.0,333.9 L664.9,331.4 L665.7,288.4 L666.5,274.3 L667.4,274.0 L668.2,274.0 L669.1,279.3 L669.9,301.9 L670.7,280.6 L671.6,288.4 L672.4,288.4 L673.3,301.9 L674.1,306.3 L675.0,318.6 L675.8,328.0 L676.6,315.1 L677.5,346.5 L678.3,352.5 L679.2,352.2 L680.0,352.8" stroke="#2ca02c" stroke-width="2" fill="none" opacity="0.8"/>
<!-- Solar Generation -->
<path d="M80.0,419.7 L80.8,420.0 L81.7,420.0 L82.5,420.0 L83.4,420.0 L84.2,420.0 L85.0,420.0 L85.9,420.0 L86.7,420.0 L87.6,420.0 L88.4,420.0 L89.3,420.0 L90.1,414.7 L90.9,407.1 L91.8,405.9 L92.6,400.8 L93.5,399.9 L94.3,403.4 L95.1,400.2 L96.0,403.0 L96.8,407.1 L97.7,403.0 L98.5,416.9 L99.4,419.4 L100.2,418.7 L101.0,420.0 L101.9,420.0 L102.7,420.0 L103.6,420.0 L104.4,420.0 L105.2,420.0 L106.1,420.0 L106.9,420.0 L107.8,420.0 L108.6,420.0 L109.5,420.0 L110.3,403.4 L111.1,387.3 L112.0,395.5 L112.8,393.9 L113.7,390.2 L114.5,386.1 L115.3,395.2 L116.2,402.1 L117.0,405.9 L117.9,415.0 L118.7,403.7 L119.6,416.2 L120.4,418.7 L121.2,420.0 L122.1,420.0 L122.9,420.0 L123.8,420.0 L124.6,420.0 L125.4,420.0 L126.3,420.0 L127.1,420.0 L128.0,420.0 L128.8,420.0 L129.6,420.0 L130.5,415.3 L131.3,392.0 L132.2,415.6 L133.0,411.2 L133.9,407.8 L134.7,407.1 L135.5,406.8 L136.4,409.0 L137.2,409.6 L138.1,415.6 L138.9,415.0 L139.7,398.0 L140.6,417.5 L141.4,420.0 L142.3,420.0 L143.1,420.0 L144.0,420.0 L144.8,420.0 L145.6,420.0 L146.5,420.0 L147.3,420.0 L148.2,420.0 L149.0,420.0 L149.8,419.7 L150.7,415.3 L151.5,376.7 L152.4,393.3 L153.2,388.9 L154.1,381.7 L154.9,389.8 L155.7,405.6 L156.6,380.7 L157.4,399.9 L158.3,404.9 L159.1,413.4 L159.9,407.4 L160.8,418.1 L161.6,420.0 L162.5,420.0 L163.3,420.0 L164.2,420.0 L165.0,420.0 L165.8,420.0 L166.7,420.0 L167.5,420.0 L168.4,420.0 L169.2,420.0 L170.0,419.7 L170.9,416.2 L171.7,415.6 L172.6,411.2 L173.4,403.0 L174.2,402.7 L175.1,396.8 L175.9,399.3 L176.8,391.7 L177.6,390.5 L178.5,393.3 L179.3,409.6 L180.1,411.2 L181.0,419.4 L181.8,420.0 L182.7,420.0 L183.5,420.0 L184.3,420.0 L185.2,420.0 L186.0,420.0 L186.9,420.0 L187.7,420.0 L188.6,420.0 L189.4,420.0 L190.2,419.7 L191.1,417.2 L191.9,402.1 L192.8,412.8 L193.6,407.1 L194.4,412.1 L195.3,407.8 L196.1,404.9 L197.0,410.9 L197.8,411.5 L198.7,412.5 L199.5,414.3 L200.3,415.3 L201.2,418.1 L202.0,420.0 L202.9,420.0 L203.7,420.0 L204.5,420.0 L205.4,420.0 L206.2,420.0 L207.1,420.0 L207.9,420.0 L208.8,420.0 L209.6,420.0 L210.4,418.4 L211.3,402.4 L212.1,393.9 L213.0,403.7 L213.8,404.3 L214.6,405.9 L215.5,405.6 L216.3,399.6 L217.2,396.8 L218.0,408.7 L218.8,411.5 L219.7,411.5 L220.5,399.9 L221.4,416.9 L222.2,420.0 L223.1,420.0 L223.9,420.0 L224.7,420.0 L225.6,420.0 L226.4,420.0 L227.3,420.0 L228.1,420.0 L228.9,420.0 L229.8,420.0 L230.6,419.1 L231.5,403.0 L232.3,399.9 L233.2,398.6 L234.0,398.3 L234.8,398.0 L235.7,397.7 L236.5,397.7 L237.4,373.5 L238.2,374.5 L239.0,399.3 L239.9,404.9 L240.7,401.5 L241.6,417.5 L242.4,420.0 L243.3,420.0 L244.1,420.0 L244.9,420.0 L245.8,420.0 L246.6,420.0 L247.5,420.0 L248.3,420.0 L249.1,420.0 L250.0,420.0 L250.8,419.1 L251.7,406.2 L252.5,399.3 L253.4,398.6 L254.2,398.6 L255.0,398.0 L255.9,398.0 L256.7,397.7 L257.6,398.0 L258.4,398.3 L259.2,398.6 L260.1,376.3 L260.9,393.0 L261.8,417.2 L262.6,420.0 L263.5,420.0 L264.3,420.0 L265.1,420.0 L266.0,420.0 L266.8,420.0 L267.7,420.0 L268.5,420.0 L269.3,420.0 L270.2,420.0 L271.0,419.4 L271.9,406.2 L272.7,400.2 L273.5,375.4 L274.4,375.1 L275.2,399.0 L276.1,398.6 L276.9,374.8 L277.8,375.4 L278.6,383.6 L279.4,386.1 L280.3,380.1 L281.1,399.9 L282.0,417.8 L282.8,420.0 L283.6,420.0 L284.5,420.0 L285.3,420.0 L286.2,420.0 L287.0,420.0 L287.9,420.0 L288.7,420.0 L289.5,420.0 L290.4,420.0 L291.2,418.4 L292.1,409.6 L292.9,379.8 L293.7,379.5 L294.6,378.9 L295.4,382.6 L296.3,387.7 L297.1,389.8 L298.0,391.4 L298.8,390.5 L299.6,403.7 L300.5,409.3 L301.3,411.5 L302.2,418.1 L303.0,420.0 L303.8,420.0 L304.7,420.0 L305.5,420.0 L306.4,420.0 L307.2,420.0 L308.1,420.0 L308.9,420.0 L309.7,420.0 L310.6,420.0 L311.4,419.7 L312.3,396.4 L313.1,399.3 L313.9,395.8 L314.8,395.8 L315.6,403.4 L316.5,409.6 L317.3,411.8 L318.1,413.1 L319.0,413.7 L319.8,400.2 L320.7,416.9 L321.5,418.1 L322.4,419.7 L323.2,420.0 L324.0,420.0 L324.9,420.0 L325.7,420.0 L326.6,420.0 L327.4,420.0 L328.2,420.0 L329.1,420.0 L329.9,420.0 L330.8,420.0 L331.6,419.7 L332.5,404.6 L333.3,413.4 L334.1,403.7 L335.0,402.4 L335.8,400.2 L336.7,399.3 L337.5,399.6 L338.3,411.8 L339.2,414.7 L340.0,415.3 L340.9,415.6 L341.7,416.5 L342.6,417.2 L343.4,419.4 L344.2,419.4 L345.1,419.4 L345.9,419.4 L346.8,419.4 L347.6,419.4 L348.4,419.4 L349.3,419.4 L350.1,419.4 L351.0,419.4 L351.8,418.1 L352.7,414.3 L353.5,389.8 L354.3,395.2 L355.2,400.2 L356.0,403.0 L356.9,404.6 L357.7,398.6 L358.5,401.5 L359.4,406.8 L360.2,413.4 L361.1,404.6 L361.9,415.0 L362.7,416.5 L363.6,420.0 L364.4,420.0 L365.3,420.0 L366.1,420.0 L367.0,420.0 L367.8,420.0 L368.6,420.0 L369.5,420.0 L370.3,420.0 L371.2,420.0 L372.0,419.1 L372.8,414.0 L373.7,403.0 L374.5,396.8 L375.4,383.6 L376.2,404.0 L377.1,409.3 L377.9,400.2 L378.7,407.4 L379.6,403.4 L380.4,393.3 L381.3,411.2 L382.1,405.2 L382.9,416.5 L383.8,420.0 L384.6,420.0 L385.5,420.0 L386.3,420.0 L387.2,420.0 L388.0,420.0 L388.8,420.0 L389.7,420.0 L390.5,420.0 L391.4,420.0 L392.2,418.4 L393.0,414.7 L393.9,406.8 L394.7,409.0 L395.6,408.7 L396.4,410.9 L397.3,412.1 L398.1,411.8 L398.9,412.8 L399.8,412.8 L400.6,414.7 L401.5,415.9 L402.3,415.0 L403.1,419.1 L404.0,420.0 L404.8,420.0 L405.7,420.0 L406.5,420.0 L407.3,420.0 L408.2,420.0 L409.0,420.0 L409.9,420.0 L410.7,420.0 L411.6,420.0 L412.4,420.0 L413.2,417.2 L414.1,414.3 L414.9,409.6 L415.8,407.4 L416.6,399.6 L417.4,391.7 L418.3,397.4 L419.1,409.3 L420.0,409.6 L420.8,411.2 L421.7,402.4 L422.5,406.2 L423.3,413.7 L424.2,420.0 L425.0,420.0 L425.9,420.0 L426.7,420.0 L427.5,420.0 L428.4,420.0 L429.2,420.0 L430.1,420.0 L430.9,420.0 L431.8,420.0 L432.6,418.7 L433.4,413.4 L434.3,413.1 L435.1,402.4 L436.0,399.3 L436.8,411.2 L437.6,411.5 L438.5,407.1 L439.3,411.5 L440.2,410.9 L441.0,400.2 L441.9,414.7 L442.7,414.3 L443.5,415.3 L444.4,420.0 L445.2,420.0 L446.1,420.0 L446.9,420.0 L447.7,420.0 L448.6,420.0 L449.4,420.0 L450.3,420.0 L451.1,420.0 L451.9,420.0 L452.8,415.6 L453.6,401.2 L454.5,399.3 L455.3,406.5 L456.2,399.6 L457.0,406.5 L457.8,410.3 L458.7,411.2 L459.5,404.9 L460.4,388.9 L461.2,401.8 L462.0,394.9 L462.9,400.8 L463.7,417.5 L464.6,420.0 L465.4,420.0 L466.3,420.0 L467.1,420.0 L467.9,420.0 L468.8,420.0 L469.6,420.0 L470.5,420.0 L471.3,420.0 L472.1,420.0 L473.0,417.2 L473.8,390.8 L474.7,375.7 L475.5,374.5 L476.4,392.7 L477.2,398.3 L478.0,376.3 L478.9,374.1 L479.7,374.5 L480.6,375.1 L481.4,375.4 L482.2,375.1 L483.1,386.7 L483.9,413.1 L484.8,420.0 L485.6,420.0 L486.5,420.0 L487.3,420.0 L488.1,420.0 L489.0,420.0 L489.8,420.0 L490.7,420.0 L491.5,420.0 L492.3,420.0 L493.2,415.9 L494.0,389.2 L494.9,374.5 L495.7,374.5 L496.5,374.1 L497.4,373.8 L498.2,373.8 L499.1,374.8 L499.9,373.8 L500.8,374.1 L501.6,375.1 L502.4,375.1 L503.3,386.7 L504.1,412.1 L505.0,420.0 L505.8,420.0 L506.6,420.0 L507.5,420.0 L508.3,420.0 L509.2,420.0 L510.0,420.0 L510.9,420.0 L511.7,420.0 L512.5,420.0 L513.4,415.3 L514.2,390.2 L515.1,401.8 L515.9,394.2 L516.7,379.2 L517.6,375.1 L518.4,374.8 L519.3,398.6 L520.1,398.6 L521.0,401.5 L521.8,403.4 L522.6,398.3 L523.5,408.7 L524.3,414.0 L525.2,420.0 L526.0,420.0 L526.8,420.0 L527.7,420.0 L528.5,420.0 L529.4,420.0 L530.2,420.0 L531.1,420.0 L531.9,420.0 L532.7,420.0 L533.6,417.5 L534.4,389.2 L535.3,398.6 L536.1,398.3 L536.9,398.0 L537.8,397.7 L538.6,378.9 L539.5,401.2 L540.3,397.7 L541.2,396.4 L542.0,381.4 L542.8,375.1 L543.7,390.8 L544.5,411.8 L545.4,420.0 L546.2,420.0 L547.0,420.0 L547.9,420.0 L548.7,420.0 L549.6,420.0 L550.4,420.0 L551.2,420.0 L552.1,420.0 L552.9,420.0 L553.8,417.2 L554.6,401.8 L555.5,394.6 L556.3,390.5 L557.1,386.7 L558.0,385.5 L558.8,387.0 L559.7,387.3 L560.5,393.3 L561.3,395.2 L562.2,403.0 L563.0,400.8 L563.9,405.6 L564.7,417.5 L565.6,420.0 L566.4,420.0 L567.2,420.0 L568.1,420.0 L568.9,420.0 L569.8,420.0 L570.6,420.0 L571.4,420.0 L572.3,420.0 L573.1,420.0 L574.0,413.7 L574.8,398.6 L575.7,377.3 L576.5,386.4 L577.3,382.9 L578.2,388.6 L579.0,395.8 L579.9,388.3 L580.7,377.6 L581.5,375.7 L582.4,398.6 L583.2,393.9 L584.1,410.3 L584.9,414.0 L585.8,420.0 L586.6,420.0 L587.4,420.0 L588.3,420.0 L589.1,420.0 L590.0,420.0 L590.8,420.0 L591.6,420.0 L592.5,420.0 L593.3,420.0 L594.2,412.5 L595.0,385.8 L595.8,374.5 L596.7,374.1 L597.5,374.1 L598.4,373.8 L599.2,373.8 L600.1,391.1 L600.9,394.6 L601.7,398.3 L602.6,402.7 L603.4,393.3 L604.3,386.7 L605.1,415.3 L605.9,420.0 L606.8,420.0 L607.6,420.0 L608.5,420.0 L609.3,420.0 L610.2,420.0 L611.0,420.0 L611.8,420.0 L612.7,420.0 L613.5,420.0 L614.4,418.7 L615.2,415.3 L616.0,400.2 L616.9,395.2 L617.7,396.4 L618.6,391.7 L619.4,384.8 L620.3,382.0 L621.1,394.2 L621.9,390.5 L622.8,391.7 L623.6,403.0 L624.5,391.7 L625.3,412.5 L626.1,420.0 L627.0,420.0 L627.8,420.0 L628.7,420.0 L629.5,420.0 L630.4,420.0 L631.2,420.0 L632.0,420.0 L632.9,420.0 L633.7,420.0 L634.6,413.4 L635.4,389.8 L636.2,378.5 L637.1,409.0 L637.9,409.9 L638.8,397.7 L639.6,398.0 L640.4,407.8 L641.3,406.8 L642.1,400.5 L643.0,403.4 L643.8,404.9 L644.7,412.8 L645.5,417.2 L646.3,420.0 L647.2,420.0 L648.0,420.0 L648.9,420.0 L649.7,420.0 L650.5,420.0 L651.4,420.0 L652.2,420.0 L653.1,420.0 L653.9,420.0 L654.8,416.2 L655.6,414.3 L656.4,412.1 L657.3,389.2 L658.1,383.3 L659.0,390.8 L659.8,400.2 L660.6,399.9 L661.5,398.0 L662.3,398.3 L663.2,408.7 L664.0,399.9 L664.9,412.5 L665.7,409.9 L666.5,420.0 L667.4,420.0 L668.2,420.0 L669.1,420.0 L669.9,420.0 L670.7,420.0 L671.6,420.0 L672.4,420.0 L673.3,420.0 L674.1,420.0 L675.0,415.0 L675.8,406.8 L676.6,376.0 L677.5,374.5 L678.3,374.1 L679.2,374.1 L680.0,373.8" stroke="#d62728" stroke-width="2" fill="none" opacity="0.8"/>
<!-- Forecast -->
<path d="M80.0,183.8 L80.8,186.3 L81.7,189.5 L82.5,207.7 L83.4,233.8 L84.2,248.2 L85.0,257.3 L85.9,263.0 L86.7,265.8 L87.6,265.2 L88.4,262.0 L89.3,252.6 L90.1,237.2 L90.9,219.0 L91.8,205.8 L92.6,199.5 L93.5,200.2 L94.3,199.2 L95.1,203.0 L96.0,208.0 L96.8,209.6 L97.7,207.7 L98.5,204.2 L99.4,204.6 L100.2,207.4 L101.0,205.5 L101.9,203.9 L102.7,215.9 L103.6,234.1 L104.4,248.8 L105.2,257.0 L106.1,263.0 L106.9,264.9 L107.8,263.6 L108.6,258.9 L109.5,249.1 L110.3,236.6 L111.1,217.1 L112.0,204.6 L112.8,201.7 L113.7,196.1 L114.5,195.8 L115.3,199.5 L116.2,202.0 L117.0,202.0 L117.9,200.5 L118.7,192.6 L119.6,191.7 L120.4,192.9 L121.2,191.7 L122.1,193.6 L122.9,209.3 L123.8,225.0 L124.6,243.2 L125.4,252.6 L126.3,257.3 L127.1,259.8 L128.0,257.0 L128.8,244.1 L129.6,214.6 L130.5,181.3 L131.3,160.0 L132.2,154.6 L133.0,153.7 L133.9,157.4 L134.7,160.9 L135.5,164.4 L136.4,167.2 L137.2,168.1 L138.1,168.7 L138.9,168.7 L139.7,173.8 L140.6,176.3 L141.4,175.3 L142.3,180.7 L143.1,201.4 L144.0,225.0 L144.8,239.1 L145.6,248.8 L146.5,253.5 L147.3,256.1 L148.2,252.9 L149.0,239.1 L149.8,210.8 L150.7,179.1 L151.5,158.7 L152.4,154.0 L153.2,153.0 L154.1,156.8 L154.9,160.6 L155.7,164.0 L156.6,167.2 L157.4,168.4 L158.3,169.1 L159.1,169.4 L159.9,174.1 L160.8,178.5 L161.6,178.2 L162.5,182.3 L163.3,202.0 L164.2,224.7 L165.0,241.9 L165.8,251.3 L166.7,256.4 L167.5,258.9 L168.4,256.1 L169.2,243.5 L170.0,214.0 L170.9,181.0 L171.7,161.2 L172.6,156.5 L173.4,155.2 L174.2,158.1 L175.1,160.9 L175.9,164.0 L176.8,166.5 L177.6,167.5 L178.5,167.5 L179.3,167.2 L180.1,172.2 L181.0,176.0 L181.8,175.0 L182.7,178.8 L183.5,198.9 L184.3,371.9 L185.2,234.7 L186.0,243.5 L186.9,247.0 L187.7,247.6 L188.6,242.9 L189.4,229.4 L190.2,198.6 L191.1,163.4 L191.9,143.9 L192.8,138.0 L193.6,138.9 L194.4,142.4 L195.3,147.4 L196.1,150.8 L197.0,154.0 L197.8,156.2 L198.7,155.2 L199.5,153.7 L200.3,155.9 L201.2,156.8 L202.0,154.0 L202.9,163.4 L203.7,182.9 L204.5,208.3 L205.4,220.3 L206.2,227.8 L207.1,232.2 L207.9,233.4 L208.8,230.6 L209.6,218.1 L210.4,189.2 L211.3,157.1 L212.1,141.1 L213.0,138.0 L213.8,140.5 L214.6,143.9 L215.5,148.6 L216.3,152.7 L217.2,156.8 L218.0,158.1 L218.8,157.4 L219.7,157.4 L220.5,161.8 L221.4,162.5 L222.2,158.4 L223.1,167.5 L223.9,186.6 L224.7,216.2 L225.6,223.1 L226.4,226.5 L227.3,231.2 L228.1,233.8 L228.9,231.6 L229.8,223.7 L230.6,213.0 L231.5,199.5 L232.3,181.6 L233.2,172.5 L234.0,172.5 L234.8,179.4 L235.7,183.5 L236.5,187.9 L237.4,192.6 L238.2,196.1 L239.0,196.7 L239.9,195.8 L240.7,193.9 L241.6,192.9 L242.4,187.0 L243.3,188.2 L244.1,202.0 L244.9,231.6 L245.8,236.0 L246.6,240.7 L247.5,245.4 L248.3,247.0 L249.1,245.4 L250.0,240.4 L250.8,233.4 L251.7,223.4 L252.5,206.7 L253.4,196.4 L254.2,197.3 L255.0,194.5 L255.9,195.8 L256.7,201.7 L257.6,204.6 L258.4,203.3 L259.2,199.8 L260.1,199.2 L260.9,193.2 L261.8,198.0 L262.6,199.8 L263.5,198.3 L264.3,209.9 L265.1,230.3 L266.0,245.1 L266.8,253.2 L267.7,258.6 L268.5,260.5 L269.3,257.0 L270.2,242.9 L271.0,216.8 L271.9,187.6 L272.7,170.0 L273.5,166.5 L274.4,163.7 L275.2,163.4 L276.1,164.0 L276.9,164.7 L277.8,165.3 L278.6,161.5 L279.4,158.1 L280.3,160.0 L281.1,168.7 L282.0,176.3 L282.8,180.7 L283.6,183.2 L284.5,202.4 L285.3,225.9 L286.2,246.3 L287.0,255.7 L287.9,262.3 L288.7,264.5 L289.5,262.0 L290.4,248.5 L291.2,223.4 L292.1,195.4 L292.9,177.2 L293.7,170.6 L294.6,163.4 L295.4,159.6 L296.3,158.4 L297.1,156.5 L298.0,155.2 L298.8,152.1 L299.6,147.1 L300.5,148.6 L301.3,161.5 L302.2,170.9 L303.0,176.6 L303.8,178.5 L304.7,198.6 L305.5,224.7 L306.4,243.5 L307.2,252.9 L308.1,258.9 L308.9,262.0 L309.7,262.0 L310.6,251.3 L311.4,226.5 L312.3,198.0 L313.1,176.9 L313.9,168.1 L314.8,162.5 L315.6,160.6 L316.5,161.2 L317.3,163.4 L318.1,166.2 L319.0,167.2 L319.8,167.5 L320.7,167.5 L321.5,172.2 L322.4,176.6 L323.2,176.6 L324.0,180.4 L324.9,200.5 L325.7,214.0 L326.6,238.2 L327.4,249.5 L328.2,252.9 L329.1,255.4 L329.9,252.6 L330.8,239.4 L331.6,207.4 L332.5,172.2 L333.3,151.2 L334.1,144.6 L335.0,144.9 L335.8,146.1 L336.7,150.2 L337.5,153.7 L338.3,157.1 L339.2,158.4 L340.0,156.8 L340.9,156.8 L341.7,159.0 L342.6,161.8 L343.4,158.7 L344.2,167.8 L345.1,188.5 L345.9,206.4 L346.8,225.0 L347.6,233.4 L348.4,237.5 L349.3,239.1 L350.1,236.3 L351.0,223.4 L351.8,192.0 L352.7,159.6 L353.5,142.7 L354.3,138.0 L355.2,139.5 L356.0,143.3 L356.9,148.6 L357.7,152.4 L358.5,155.9 L359.4,158.1 L360.2,156.5 L361.1,156.5 L361.9,160.3 L362.7,160.3 L363.6,156.2 L364.4,164.0 L365.3,183.5 L366.1,208.0 L367.0,219.6 L367.8,224.7 L368.6,228.7 L369.5,229.7 L370.3,228.7 L371.2,219.9 L372.0,207.4 L372.8,194.2 L373.7,178.5 L374.5,170.0 L375.4,165.0 L376.2,170.0 L377.1,175.3 L377.9,182.9 L378.7,184.8 L379.6,184.1 L380.4,185.4 L381.3,181.0 L382.1,181.6 L382.9,179.7 L383.8,172.8 L384.6,176.6 L385.5,192.6 L386.3,370.7 L387.2,222.5 L388.0,228.1 L388.8,231.9 L389.7,234.7 L390.5,233.4 L391.4,230.3 L392.2,220.3 L393.0,207.1 L393.9,192.6 L394.7,177.9 L395.6,169.7 L396.4,167.8 L397.3,170.3 L398.1,173.1 L398.9,177.2 L399.8,179.1 L400.6,176.3 L401.5,169.1 L402.3,171.3 L403.1,165.9 L404.0,162.5 L404.8,169.4 L405.7,190.4 L406.5,214.9 L407.3,228.7 L408.2,235.6 L409.0,239.4 L409.9,241.0 L410.7,237.2 L411.6,224.0 L412.4,194.2 L413.2,163.1 L414.1,170.6 L414.9,170.3 L415.8,164.0 L416.6,169.4 L417.4,174.1 L418.3,182.3 L419.1,184.8 L420.0,182.6 L420.8,185.1 L421.7,179.7 L422.5,181.0 L423.3,179.7 L424.2,172.8 L425.0,176.3 L425.9,192.0 L426.7,196.4 L427.5,230.3 L428.4,238.2 L429.2,242.6 L430.1,243.5 L430.9,240.4 L431.8,226.5 L432.6,198.9 L433.4,174.1 L434.3,157.1 L435.1,153.4 L436.0,153.4 L436.8,157.8 L437.6,161.2 L438.5,164.7 L439.3,167.8 L440.2,169.1 L441.0,169.4 L441.9,169.7 L442.7,174.4 L443.5,178.5 L444.4,176.3 L445.2,179.7 L446.1,199.8 L446.9,223.1 L447.7,237.8 L448.6,245.7 L449.4,248.8 L450.3,250.7 L451.1,247.9 L451.9,232.2 L452.8,205.2 L453.6,175.7 L454.5,157.1 L455.3,153.4 L456.2,153.4 L457.0,158.1 L457.8,161.5 L458.7,165.0 L459.5,167.8 L460.4,169.1 L461.2,169.4 L462.0,170.0 L462.9,174.7 L463.7,178.8 L464.6,176.6 L465.4,180.1 L466.3,200.2 L467.1,225.0 L467.9,238.8 L468.8,245.1 L469.6,247.0 L470.5,248.5 L471.3,245.1 L472.1,229.7 L473.0,203.3 L473.8,175.3 L474.7,158.4 L475.5,155.2 L476.4,155.2 L477.2,159.6 L478.0,162.8 L478.9,166.2 L479.7,169.1 L480.6,170.3 L481.4,170.9 L482.2,170.3 L483.1,175.0 L483.9,180.4 L484.8,180.1 L485.6,190.1 L486.5,204.2 L487.3,225.0 L488.1,221.5 L489.0,239.7 L489.8,247.0 L490.7,248.5 L491.5,245.1 L492.3,229.7 L493.2,203.3 L494.0,175.0 L494.9,158.4 L495.7,155.2 L496.5,155.2 L497.4,159.6 L498.2,162.8 L499.1,166.2 L499.9,169.1 L500.8,170.3 L501.6,170.9 L502.4,170.3 L503.3,175.0 L504.1,180.4 L505.0,180.1 L505.8,183.2 L506.6,202.0 L507.5,225.0 L508.3,221.5 L509.2,240.0 L510.0,247.0 L510.9,248.5 L511.7,245.1 L512.5,229.7 L513.4,203.3 L514.2,175.0 L515.1,158.4 L515.9,155.2 L516.7,155.2 L517.6,159.6 L518.4,162.8 L519.3,166.2 L520.1,169.1 L521.0,170.3 L521.8,170.9 L522.6,170.3 L523.5,175.0 L524.3,180.4 L525.2,180.1 L526.0,183.2 L526.8,202.0 L527.7,216.2 L528.5,219.0 L529.4,235.3 L530.2,244.8 L531.1,247.6 L531.9,246.6 L532.7,241.9 L533.6,235.0 L534.4,223.7 L535.3,208.6 L536.1,193.9 L536.9,186.0 L537.8,181.9 L538.6,181.6 L539.5,186.0 L540.3,187.0 L541.2,184.1 L542.0,180.4 L542.8,179.1 L543.7,171.9 L544.5,176.6 L545.4,180.7 L546.2,177.5 L547.0,187.6 L547.9,203.3 L548.7,222.5 L549.6,232.5 L550.4,238.8 L551.2,241.3 L552.1,238.8 L552.9,226.2 L553.8,202.0 L554.6,175.0 L555.5,156.8 L556.3,148.3 L557.1,143.0 L558.0,142.7 L558.8,142.4 L559.7,143.3 L560.5,143.9 L561.3,145.2 L562.2,144.6 L563.0,142.7 L563.9,148.3 L564.7,154.6 L565.6,156.2 L566.4,157.8 L567.2,175.3 L568.1,198.3 L568.9,222.1 L569.8,228.1 L570.6,230.0 L571.4,232.2 L572.3,229.0 L573.1,214.3 L574.0,188.2 L574.8,158.1 L575.7,138.9 L576.5,132.9 L577.3,132.3 L578.2,135.8 L579.0,137.7 L579.9,140.8 L580.7,142.7 L581.5,144.6 L582.4,145.2 L583.2,144.6 L584.1,148.6 L584.9,152.7 L585.8,150.8 L586.6,153.4 L587.4,172.5 L588.3,366.6 L589.1,266.1 L590.0,374.8 L590.8,420.0 L591.6,420.0 L592.5,420.0 L593.3,420.0 L594.2,420.0 L595.0,420.0 L595.8,420.0 L596.7,420.0 L597.5,420.0 L598.4,420.0 L599.2,420.0 L600.1,420.0 L600.9,420.0 L601.7,420.0 L602.6,420.0 L603.4,420.0 L604.3,420.0 L605.1,420.0 L605.9,420.0 L606.8,420.0 L607.6,420.0 L608.5,262.0 L609.3,224.7 L610.2,237.2 L611.0,245.1 L611.8,247.3 L612.7,246.0 L613.5,234.7 L614.4,211.5 L615.2,184.5 L616.0,165.6 L616.9,156.8 L617.7,150.8 L618.6,150.2 L619.4,149.6 L620.3,151.2 L621.1,152.4 L621.9,154.0 L622.8,153.7 L623.6,152.1 L624.5,156.8 L625.3,163.1 L626.1,164.7 L627.0,166.5 L627.8,184.1 L628.7,209.3 L629.5,229.4 L630.4,240.7 L631.2,247.6 L632.0,249.5 L632.9,247.0 L633.7,234.1 L634.6,210.5 L635.4,184.5 L636.2,166.5 L637.1,158.4 L637.9,152.4 L638.8,151.8 L639.6,151.8 L640.4,152.7 L641.3,153.7 L642.1,153.0 L643.0,153.4 L643.8,152.1 L644.7,156.5 L645.5,162.2 L646.3,165.0 L647.2,166.2 L648.0,183.8 L648.9,216.5 L649.7,231.2 L650.5,241.0 L651.4,247.6 L652.2,251.3 L653.1,251.7 L653.9,247.9 L654.8,242.2 L655.6,227.2 L656.4,209.9 L657.3,196.4 L658.1,187.6 L659.0,187.0 L659.8,186.6 L660.6,192.3 L661.5,199.5 L662.3,199.5 L663.2,194.8 L664.0,191.4 L664.9,192.0 L665.7,195.4 L666.5,192.9 L667.4,190.1 L668.2,201.1 L669.1,219.6 L669.9,234.1 L670.7,244.1 L671.6,250.1 L672.4,252.3 L673.3,251.0 L674.1,247.3 L675.0,240.7 L675.8,232.5 L676.6,220.3 L677.5,205.5 L678.3,196.1 L679.2,194.8 L680.0,194.8" stroke="#9467bd" stroke-width="2" fill="none" opacity="0.8"/>
<!-- Total Generation -->
<path d="M80.0,108.4 L80.8,106.2 L81.7,134.5 L82.5,137.7 L83.4,158.7 L84.2,200.2 L85.0,205.2 L85.9,219.9 L86.7,214.6 L87.6,213.3 L88.4,214.0 L89.3,197.3 L90.1,205.2 L90.9,254.2 L91.8,242.9 L92.6,245.4 L93.5,234.4 L94.3,229.4 L95.1,223.7 L96.0,201.7 L96.8,187.3 L97.7,185.4 L98.5,195.4 L99.4,217.1 L100.2,181.6 L101.0,138.0 L101.9,107.8 L102.7,145.2 L103.6,172.8 L104.4,195.4 L105.2,190.1 L106.1,194.5 L106.9,177.5 L107.8,183.2 L108.6,198.0 L109.5,203.0 L110.3,193.6 L111.1,177.5 L112.0,214.6 L112.8,219.6 L113.7,200.8 L114.5,207.4 L115.3,213.7 L116.2,193.2 L117.0,207.1 L117.9,192.6 L118.7,187.6 L119.6,186.3 L120.4,200.8 L121.2,209.6 L122.1,202.0 L122.9,212.4 L123.8,261.1 L124.6,267.4 L125.4,268.9 L126.3,268.3 L127.1,261.4 L128.0,230.9 L128.8,233.8 L129.6,183.2 L130.5,185.4 L131.3,176.3 L132.2,172.8 L133.0,171.6 L133.9,172.2 L134.7,176.9 L135.5,198.9 L136.4,171.6 L137.2,190.1 L138.1,194.5 L138.9,201.7 L139.7,147.4 L140.6,168.4 L141.4,168.1 L142.3,162.2 L143.1,153.0 L144.0,169.1 L144.8,179.4 L145.6,169.1 L146.5,159.3 L147.3,153.4 L148.2,158.7 L149.0,144.6 L149.8,147.4 L150.7,132.6 L151.5,94.0 L152.4,132.6 L153.2,153.4 L154.1,122.6 L154.9,112.8 L155.7,138.6 L156.6,122.6 L157.4,144.3 L158.3,142.7 L159.1,162.8 L159.9,145.2 L160.8,166.2 L161.6,180.7 L162.5,190.1 L163.3,193.9 L164.2,189.5 L165.0,188.8 L165.8,187.9 L166.7,192.0 L167.5,207.4 L168.4,184.1 L169.2,194.2 L170.0,173.8 L170.9,145.5 L171.7,179.7 L172.6,230.9 L173.4,221.8 L174.2,206.1 L175.1,205.8 L175.9,206.4 L176.8,153.7 L177.6,176.3 L178.5,170.6 L179.3,214.3 L180.1,189.2 L181.0,203.0 L181.8,197.0 L182.7,125.4 L183.5,154.0 L184.3,165.9 L185.2,196.4 L186.0,184.8 L186.9,179.1 L187.7,188.8 L188.6,201.4 L189.4,170.0 L190.2,158.4 L191.1,128.9 L191.9,148.6 L192.8,152.4 L193.6,141.1 L194.4,178.8 L195.3,172.2 L196.1,184.8 L197.0,207.1 L197.8,228.1 L198.7,233.1 L199.5,223.1 L200.3,205.8 L201.2,188.8 L202.0,190.4 L202.9,201.7 L203.7,196.1 L204.5,173.5 L205.4,176.9 L206.2,194.8 L207.1,210.5 L207.9,218.7 L208.8,201.4 L209.6,189.5 L210.4,181.9 L211.3,157.4 L212.1,143.3 L213.0,155.6 L213.8,177.2 L214.6,201.1 L215.5,187.9 L216.3,198.6 L217.2,162.8 L218.0,186.6 L218.8,215.5 L219.7,185.7 L220.5,162.2 L221.4,157.8 L222.2,167.5 L223.1,178.8 L223.9,183.8 L224.7,187.0 L225.6,188.8 L226.4,197.3 L227.3,187.6 L228.1,166.5 L228.9,176.6 L229.8,179.4 L230.6,163.7 L231.5,141.7 L232.3,168.4 L233.2,152.1 L234.0,179.1 L234.8,180.1 L235.7,182.9 L236.5,205.2 L237.4,185.1 L238.2,189.5 L239.0,216.2 L239.9,224.7 L240.7,221.2 L241.6,220.3 L242.4,194.2 L243.3,202.7 L244.1,210.5 L244.9,219.6 L245.8,204.6 L246.6,221.8 L247.5,230.9 L248.3,227.8 L249.1,214.0 L250.0,219.9 L250.8,198.6 L251.7,219.3 L252.5,203.0 L253.4,202.0 L254.2,224.7 L255.0,228.4 L255.9,223.1 L256.7,203.0 L257.6,216.2 L258.4,206.1 L259.2,201.1 L260.1,157.1 L260.9,143.0 L261.8,170.0 L262.6,156.8 L263.5,144.3 L264.3,140.8 L265.1,129.8 L266.0,165.0 L266.8,210.8 L267.7,230.9 L268.5,208.6 L269.3,203.0 L270.2,171.3 L271.0,163.7 L271.9,169.7 L272.7,192.0 L273.5,176.9 L274.4,185.4 L275.2,215.5 L276.1,212.7 L276.9,172.2 L277.8,141.4 L278.6,154.3 L279.4,174.4 L280.3,197.3 L281.1,173.8 L282.0,133.3 L282.8,125.7 L283.6,119.1 L284.5,160.3 L285.3,195.8 L286.2,217.4 L287.0,239.4 L287.9,227.5 L288.7,242.2 L289.5,243.2 L290.4,243.8 L291.2,243.8 L292.1,235.6 L292.9,213.7 L293.7,219.0 L294.6,218.7 L295.4,221.5 L296.3,217.1 L297.1,222.1 L298.0,219.0 L298.8,211.5 L299.6,202.0 L300.5,197.3 L301.3,195.4 L302.2,215.9 L303.0,198.3 L303.8,186.0 L304.7,222.1 L305.5,245.1 L306.4,244.4 L307.2,250.4 L308.1,255.1 L308.9,241.9 L309.7,234.1 L310.6,230.6 L311.4,239.4 L312.3,208.6 L313.1,198.9 L313.9,183.8 L314.8,170.9 L315.6,170.0 L316.5,175.0 L317.3,237.5 L318.1,201.1 L319.0,185.1 L319.8,174.1 L320.7,192.3 L321.5,189.5 L322.4,166.5 L323.2,137.0 L324.0,138.9 L324.9,162.5 L325.7,167.5 L326.6,166.5 L327.4,156.8 L328.2,163.1 L329.1,155.2 L329.9,165.3 L330.8,164.0 L331.6,172.5 L332.5,160.0 L333.3,188.5 L334.1,191.0 L335.0,190.7 L335.8,175.3 L336.7,151.5 L337.5,148.6 L338.3,163.7 L339.2,143.0 L340.0,227.2 L340.9,221.2 L341.7,222.5 L342.6,179.4 L343.4,210.2 L344.2,213.3 L345.1,194.5 L345.9,190.4 L346.8,218.7 L347.6,209.3 L348.4,183.2 L349.3,177.9 L350.1,149.9 L351.0,154.9 L351.8,161.5 L352.7,137.7 L353.5,67.6 L354.3,84.3 L355.2,109.4 L356.0,111.6 L356.9,167.5 L357.7,175.7 L358.5,163.1 L359.4,144.3 L360.2,165.3 L361.1,149.9 L361.9,163.4 L362.7,176.6 L363.6,186.3 L364.4,182.9 L365.3,178.2 L366.1,203.6 L367.0,232.8 L367.8,236.6 L368.6,176.6 L369.5,165.3 L370.3,167.2 L371.2,170.3 L372.0,224.3 L372.8,229.0 L373.7,231.6 L374.5,218.1 L375.4,199.2 L376.2,233.1 L377.1,235.0 L377.9,216.5 L378.7,225.9 L379.6,226.2 L380.4,223.1 L381.3,239.4 L382.1,206.1 L382.9,215.5 L383.8,142.1 L384.6,139.5 L385.5,215.9 L386.3,217.7 L387.2,210.8 L388.0,229.4 L388.8,238.8 L389.7,234.7 L390.5,246.0 L391.4,253.2 L392.2,255.1 L393.0,239.1 L393.9,222.1 L394.7,221.2 L395.6,214.3 L396.4,203.0 L397.3,235.3 L398.1,239.1 L398.9,235.3 L399.8,237.8 L400.6,238.5 L401.5,210.5 L402.3,214.6 L403.1,216.2 L404.0,217.7 L404.8,214.9 L405.7,211.5 L406.5,215.5 L407.3,223.7 L408.2,237.5 L409.0,246.6 L409.9,255.7 L410.7,252.3 L411.6,209.6 L412.4,211.1 L413.2,211.1 L414.1,208.3 L414.9,204.6 L415.8,201.7 L416.6,192.0 L417.4,184.1 L418.3,195.1 L419.1,208.9 L420.0,208.6 L420.8,209.6 L421.7,198.6 L422.5,201.7 L423.3,176.0 L424.2,206.4 L425.0,205.2 L425.9,209.9 L426.7,215.5 L427.5,216.8 L428.4,213.3 L429.2,213.3 L430.1,206.7 L430.9,202.4 L431.8,191.7 L432.6,163.1 L433.4,171.3 L434.3,176.9 L435.1,166.2 L436.0,165.3 L436.8,181.9 L437.6,186.0 L438.5,162.5 L439.3,183.2 L440.2,232.5 L441.0,222.8 L441.9,242.2 L442.7,238.8 L443.5,194.8 L444.4,199.5 L445.2,215.9 L446.1,212.7 L446.9,229.7 L447.7,236.6 L448.6,230.6 L449.4,212.7 L450.3,201.4 L451.1,185.1 L451.9,214.0 L452.8,198.9 L453.6,173.8 L454.5,204.6 L455.3,200.2 L456.2,211.5 L457.0,209.3 L457.8,220.3 L458.7,211.8 L459.5,207.4 L460.4,202.0 L461.2,200.2 L462.0,195.1 L462.9,202.0 L463.7,162.2 L464.6,166.2 L465.4,194.2 L466.3,195.1 L467.1,181.6 L467.9,205.5 L468.8,194.2 L469.6,192.6 L470.5,193.6 L471.3,185.4 L472.1,171.6 L473.0,143.0 L473.8,124.2 L474.7,155.9 L475.5,176.3 L476.4,198.0 L477.2,195.4 L478.0,182.6 L478.9,181.0 L479.7,195.8 L480.6,193.2 L481.4,191.7 L482.2,197.6 L483.1,143.0 L483.9,135.8 L484.8,144.3 L485.6,135.1 L486.5,142.7 L487.3,169.4 L488.1,182.9 L489.0,182.3 L489.8,172.8 L490.7,192.3 L491.5,149.3 L492.3,144.6 L493.2,123.5 L494.0,132.9 L494.9,146.1 L495.7,181.0 L496.5,189.8 L497.4,193.2 L498.2,197.0 L499.1,198.0 L499.9,200.8 L500.8,166.5 L501.6,202.7 L502.4,200.2 L503.3,159.0 L504.1,127.6 L505.0,142.7 L505.8,137.0 L506.6,147.1 L507.5,155.2 L508.3,167.8 L509.2,162.8 L510.0,170.0 L510.9,170.0 L511.7,136.4 L512.5,167.5 L513.4,128.5 L514.2,176.6 L515.1,228.7 L515.9,228.7 L516.7,223.4 L517.6,226.2 L518.4,229.7 L519.3,249.1 L520.1,236.0 L521.0,247.0 L521.8,243.2 L522.6,236.9 L523.5,238.2 L524.3,185.4 L525.2,184.8 L526.0,173.1 L526.8,191.7 L527.7,167.8 L528.5,196.1 L529.4,199.8 L530.2,235.6 L531.1,241.9 L531.9,237.2 L532.7,228.1 L533.6,221.5 L534.4,233.1 L535.3,261.7 L536.1,254.8 L536.9,251.7 L537.8,240.4 L538.6,200.2 L539.5,235.6 L540.3,221.5 L541.2,210.2 L542.0,197.0 L542.8,180.7 L543.7,192.0 L544.5,176.0 L545.4,151.5 L546.2,153.7 L547.0,189.5 L547.9,199.2 L548.7,197.0 L549.6,173.5 L550.4,146.4 L551.2,208.6 L552.1,219.0 L552.9,247.9 L553.8,233.1 L554.6,212.7 L555.5,230.3 L556.3,224.3 L557.1,220.9 L558.0,213.7 L558.8,180.4 L559.7,176.0 L560.5,167.5 L561.3,184.8 L562.2,135.5 L563.0,180.7 L563.9,105.0 L564.7,175.0 L565.6,201.4 L566.4,202.4 L567.2,201.1 L568.1,224.7 L568.9,233.8 L569.8,244.8 L570.6,196.4 L571.4,228.4 L572.3,197.6 L573.1,203.3 L574.0,174.4 L574.8,182.3 L575.7,159.0 L576.5,171.9 L577.3,151.5 L578.2,154.9 L579.0,138.0 L579.9,127.0 L580.7,124.8 L581.5,124.8 L582.4,136.7 L583.2,155.2 L584.1,149.0 L584.9,147.7 L585.8,186.0 L586.6,174.1 L587.4,188.5 L588.3,199.5 L589.1,188.5 L590.0,184.5 L590.8,211.8 L591.6,209.3 L592.5,194.5 L593.3,191.7 L594.2,147.7 L595.0,151.8 L595.8,139.2 L596.7,138.6 L597.5,148.3 L598.4,171.9 L599.2,187.0 L600.1,205.5 L600.9,200.8 L601.7,207.7 L602.6,213.7 L603.4,183.8 L604.3,162.8 L605.1,156.5 L605.9,166.9 L606.8,214.0 L607.6,212.1 L608.5,203.6 L609.3,185.1 L610.2,160.9 L611.0,161.5 L611.8,170.9 L612.7,186.3 L613.5,180.7 L614.4,183.5 L615.2,218.4 L616.0,220.3 L616.9,225.9 L617.7,185.7 L618.6,184.8 L619.4,202.0 L620.3,203.9 L621.1,214.9 L621.9,198.3 L622.8,204.9 L623.6,186.0 L624.5,144.9 L625.3,170.0 L626.1,157.1 L627.0,155.9 L627.8,190.7 L628.7,181.3 L629.5,192.3 L630.4,232.2 L631.2,251.3 L632.0,251.7 L632.9,261.4 L633.7,244.8 L634.6,229.0 L635.4,244.8 L636.2,234.4 L637.1,257.9 L637.9,247.9 L638.8,232.8 L639.6,223.1 L640.4,221.5 L641.3,218.1 L642.1,208.3 L643.0,209.6 L643.8,218.4 L644.7,215.9 L645.5,227.5 L646.3,231.2 L647.2,196.4 L648.0,186.0 L648.9,229.0 L649.7,245.7 L650.5,226.9 L651.4,249.1 L652.2,219.3 L653.1,225.9 L653.9,232.8 L654.8,246.0 L655.6,248.2 L656.4,253.2 L657.3,199.5 L658.1,228.7 L659.0,238.5 L659.8,242.2 L660.6,237.5 L661.5,238.2 L662.3,230.0 L663.2,240.7 L664.0,222.5 L664.9,233.1 L665.7,188.5 L666.5,184.1 L667.4,181.9 L668.2,182.3 L669.1,185.7 L669.9,206.7 L670.7,185.7 L671.6,196.4 L672.4,196.1 L673.3,206.1 L674.1,207.4 L675.0,212.4 L675.8,212.4 L676.6,174.1 L677.5,202.0 L678.3,207.7 L679.2,204.9 L680.0,203.3" stroke="#8c564b" stroke-width="2" fill="none" opacity="0.8"/>
<!-- Forecast Difference -->
<path d="M80.0,420.0 L80.8,420.0 L81.7,420.0 L82.5,420.0 L83.4,420.0 L84.2,420.0 L85.0,420.0 L85.9,420.0 L86.7,420.0 L87.6,420.0 L88.4,420.0 L89.3,420.0 L90.1,420.0 L90.9,420.0 L91.8,420.0 L92.6,420.0 L93.5,420.0 L94.3,420.0 L95.1,420.0 L96.0,420.0 L96.8,420.0 L97.7,420.0 L98.5,420.0 L99.4,420.0 L100.2,420.0 L101.0,420.0 L101.9,420.0 L102.7,420.0 L103.6,420.0 L104.4,420.0 L105.2,420.0 L106.1,420.0 L106.9,420.0 L107.8,420.0 L108.6,420.0 L109.5,420.0 L110.3,420.0 L111.1,420.0 L112.0,420.0 L112.8,420.0 L113.7,420.0 L114.5,420.0 L115.3,420.0 L116.2,420.0 L117.0,420.0 L117.9,420.0 L118.7,420.0 L119.6,420.0 L120.4,420.0 L121.2,420.0 L122.1,420.0 L122.9,420.0 L123.8,420.0 L124.6,420.0 L125.4,420.0 L126.3,420.0 L127.1,420.0 L128.0,420.0 L128.8,420.0 L129.6,420.0 L130.5,420.0 L131.3,420.0 L132.2,420.0 L133.0,420.0 L133.9,420.0 L134.7,420.0 L135.5,420.0 L136.4,420.0 L137.2,420.0 L138.1,420.0 L138.9,420.0 L139.7,420.0 L140.6,420.0 L141.4,420.0 L142.3,420.0 L143.1,420.0 L144.0,420.0 L144.8,420.0 L145.6,420.0 L146.5,420.0 L147.3,420.0 L148.2,420.0 L149.0,420.0 L149.8,420.0 L150.7,420.0 L151.5,420.0 L152.4,420.0 L153.2,420.0 L154.1,420.0 L154.9,420.0 L155.7,420.0 L156.6,420.0 L157.4,420.0 L158.3,420.0 L159.1,420.0 L159.9,420.0 L160.8,420.0 L161.6,420.0 L162.5,420.0 L163.3,420.0 L164.2,420.0 L165.0,420.0 L165.8,420.0 L166.7,420.0 L167.5,420.0 L168.4,420.0 L169.2,420.0 L170.0,420.0 L170.9,420.0 L171.7,420.0 L172.6,420.0 L173.4,420.0 L174.2,420.0 L175.1,420.0 L175.9,420.0 L176.8,420.0 L177.6,420.0 L178.5,420.0 L179.3,420.0 L180.1,420.0 L181.0,420.0 L181.8,420.0 L182.7,420.0 L183.5,420.0 L184.3,420.0 L185.2,420.0 L186.0,420.0 L186.9,420.0 L187.7,420.0 L188.6,420.0 L189.4,420.0 L190.2,420.0 L191.1,420.0 L191.9,420.0 L192.8,420.0 L193.6,420.0 L194.4,420.0 L195.3,420.0 L196.1,420.0 L197.0,420.0 L197.8,420.0 L198.7,420.0 L199.5,420.0 L200.3,420.0 L201.2,420.0 L202.0,420.0 L202.9,420.0 L203.7,420.0 L204.5,420.0 L205.4,420.0 L206.2,420.0 L207.1,420.0 L207.9,420.0 L208.8,420.0 L209.6,420.0 L210.4,420.0 L211.3,420.0 L212.1,420.0 L213.0,420.0 L213.8,420.0 L214.6,420.0 L215.5,420.0 L216.3,420.0 L217.2,420.0 L218.0,420.0 L218.8,420.0 L219.7,420.0 L220.5,420.0 L221.4,420.0 L222.2,420.0 L223.1,420.0 L223.9,420.0 L224.7,420.0 L225.6,420.0 L226.4,420.0 L227.3,420.0 L228.1,420.0 L228.9,420.0 L229.8,420.0 L230.6,420.0 L231.5,420.0 L232.3,420.0 L233.2,420.0 L234.0,420.0 L234.8,420.0 L235.7,420.0 L236.5,420.0 L237.4,420.0 L238.2,420.0 L239.0,420.0 L239.9,420.0 L240.7,420.0 L241.6,420.0 L242.4,420.0 L243.3,420.0 L244.1,420.0 L244.9,420.0 L245.8,420.0 L246.6,420.0 L247.5,420.0 L248.3,420.0 L249.1,420.0 L250.0,420.0 L250.8,420.0 L251.7,420.0 L252.5,420.0 L253.4,420.0 L254.2,420.0 L255.0,420.0 L255.9,420.0 L256.7,420.0 L257.6,420.0 L258.4,420.0 L259.2,420.0 L260.1,420.0 L260.9,420.0 L261.8,420.0 L262.6,420.0 L263.5,420.0 L264.3,420.0 L265.1,420.0 L266.0,420.0 L266.8,420.0 L267.7,420.0 L268.5,420.0 L269.3,420.0 L270.2,420.0 L271.0,420.0 L271.9,420.0 L272.7,420.0 L273.5,420.0 L274.4,420.0 L275.2,420.0 L276.1,420.0 L276.9,420.0 L277.8,420.0 L278.6,420.0 L279.4,420.0 L280.3,420.0 L281.1,420.0 L282.0,420.0 L282.8,420.0 L283.6,420.0 L284.5,420.0 L285.3,420.0 L286.2,420.0 L287.0,420.0 L287.9,420.0 L288.7,420.0 L289.5,420.0 L290.4,420.0 L291.2,420.0 L292.1,420.0 L292.9,420.0 L293.7,420.0 L294.6,420.0 L295.4,420.0 L296.3,420.0 L297.1,420.0 L298.0,420.0 L298.8,420.0 L299.6,420.0 L300.5,420.0 L301.3,420.0 L302.2,420.0 L303.0,420.0 L303.8,420.0 L304.7,420.0 L305.5,420.0 L306.4,420.0 L307.2,420.0 L308.1,420.0 L308.9,420.0 L309.7,420.0 L310.6,420.0 L311.4,420.0 L312.3,420.0 L313.1,420.0 L313.9,420.0 L314.8,420.0 L315.6,420.0 L316.5,420.0 L317.3,420.0 L318.1,420.0 L319.0,420.0 L319.8,420.0 L320.7,420.0 L321.5,420.0 L322.4,420.0 L323.2,420.0 L324.0,420.0 L324.9,420.0 L325.7,420.0 L326.6,420.0 L327.4,420.0 L328.2,420.0 L329.1,420.0 L329.9,420.0 L330.8,420.0 L331.6,420.0 L332.5,420.0 L333.3,420.0 L334.1,420.0 L335.0,420.0 L335.8,420.0 L336.7,420.0 L337.5,420.0 L338.3,420.0 L339.2,420.0 L340.0,420.0 L340.9,420.0 L341.7,420.0 L342.6,420.0 L343.4,420.0 L344.2,420.0 L345.1,420.0 L345.9,420.0 L346.8,420.0 L347.6,420.0 L348.4,420.0 L349.3,420.0 L350.1,420.0 L351.0,420.0 L351.8,420.0 L352.7,420.0 L353.5,420.0 L354.3,420.0 L355.2,420.0 L356.0,420.0 L356.9,420.0 L357.7,420.0 L358.5,420.0 L359.4,420.0 L360.2,420.0 L361.1,420.0 L361.9,420.0 L362.7,420.0 L363.6,420.0 L364.4,420.0 L365.3,420.0 L366.1,420.0 L367.0,420.0 L367.8,420.0 L368.6,420.0 L369.5,420.0 L370.3,420.0 L371.2,420.0 L372.0,420.0 L372.8,420.0 L373.7,420.0 L374.5,420.0 L375.4,420.0 L376.2,420.0 L377.1,420.0 L377.9,420.0 L378.7,420.0 L379.6,420.0 L380.4,420.0 L381.3,420.0 L382.1,420.0 L382.9,420.0 L383.8,420.0 L384.6,420.0 L385.5,420.0 L386.3,420.0 L387.2,420.0 L388.0,420.0 L388.8,420.0 L389.7,420.0 L390.5,420.0 L391.4,420.0 L392.2,420.0 L393.0,420.0 L393.9,420.0 L394.7,420.0 L395.6,420.0 L396.4,420.0 L397.3,420.0 L398.1,420.0 L398.9,420.0 L399.8,420.0 L400.6,420.0 L401.5,420.0 L402.3,420.0 L403.1,420.0 L404.0,420.0 L404.8,420.0 L405.7,420.0 L406.5,420.0 L407.3,420.0 L408.2,420.0 L409.0,420.0 L409.9,420.0 L410.7,420.0 L411.6,420.0 L412.4,420.0 L413.2,420.0 L414.1,420.0 L414.9,420.0 L415.8,420.0 L416.6,420.0 L417.4,420.0 L418.3,420.0 L419.1,420.0 L420.0,420.0 L420.8,420.0 L421.7,420.0 L422.5,420.0 L423.3,420.0 L424.2,420.0 L425.0,420.0 L425.9,420.0 L426.7,420.0 L427.5,420.0 L428.4,420.0 L429.2,420.0 L430.1,420.0 L430.9,420.0 L431.8,420.0 L432.6,420.0 L433.4,420.0 L434.3,420.0 L435.1,420.0 L436.0,420.0 L436.8,420.0 L437.6,420.0 L438.5,420.0 L439.3,420.0 L440.2,420.0 L441.0,420.0 L441.9,420.0 L442.7,420.0 L443.5,420.0 L444.4,420.0 L445.2,420.0 L446.1,420.0 L446.9,420.0 L447.7,420.0 L448.6,420.0 L449.4,420.0 L450.3,420.0 L451.1,420.0 L451.9,420.0 L452.8,420.0 L453.6,420.0 L454.5,420.0 L455.3,420.0 L456.2,420.0 L457.0,420.0 L457.8,420.0 L458.7,420.0 L459.5,420.0 L460.4,420.0 L461.2,420.0 L462.0,420.0 L462.9,420.0 L463.7,420.0 L464.6,420.0 L465.4,420.0 L466.3,420.0 L467.1,420.0 L467.9,420.0 L468.8,420.0 L469.6,420.0 L470.5,420.0 L471.3,420.0 L472.1,420.0 L473.0,420.0 L473.8,420.0 L474.7,420.0 L475.5,420.0 L476.4,420.0 L477.2,420.0 L478.0,420.0 L478.9,420.0 L479.7,420.0 L480.6,420.0 L481.4,420.0 L482.2,420.0 L483.1,420.0 L483.9,420.0 L484.8,420.0 L485.6,420.0 L486.5,420.0 L487.3,420.0 L488.1,420.0 L489.0,420.0 L489.8,420.0 L490.7,420.0 L491.5,420.0 L492.3,420.0 L493.2,420.0 L494.0,420.0 L494.9,420.0 L495.7,420.0 L496.5,420.0 L497.4,420.0 L498.2,420.0 L499.1,420.0 L499.9,420.0 L500.8,420.0 L501.6,420.0 L502.4,420.0 L503.3,420.0 L504.1,420.0 L505.0,420.0 L505.8,420.0 L506.6,420.0 L507.5,420.0 L508.3,420.0 L509.2,420.0 L510.0,420.0 L510.9,420.0 L511.7,420.0 L512.5,420.0 L513.4,420.0 L514.2,420.0 L515.1,420.0 L515.9,420.0 L516.7,420.0 L517.6,420.0 L518.4,420.0 L519.3,420.0 L520.1,420.0 L521.0,420.0 L521.8,420.0 L522.6,420.0 L523.5,420.0 L524.3,420.0 L525.2,420.0 L526.0,420.0 L526.8,420.0 L527.7,420.0 L528.5,420.0 L529.4,420.0 L530.2,420.0 L531.1,420.0 L531.9,420.0 L532.7,420.0 L533.6,420.0 L534.4,420.0 L535.3,420.0 L536.1,420.0 L536.9,420.0 L537.8,420.0 L538.6,420.0 L539.5,420.0 L540.3,420.0 L541.2,420.0 L542.0,420.0 L542.8,420.0 L543.7,420.0 L544.5,420.0 L545.4,420.0 L546.2,420.0 L547.0,420.0 L547.9,420.0 L548.7,420.0 L549.6,420.0 L550.4,420.0 L551.2,420.0 L552.1,420.0 L552.9,420.0 L553.8,420.0 L554.6,420.0 L555.5,420.0 L556.3,420.0 L557.1,420.0 L558.0,420.0 L558.8,420.0 L559.7,420.0 L560.5,420.0 L561.3,420.0 L562.2,420.0 L563.0,420.0 L563.9,420.0 L564.7,420.0 L565.6,420.0 L566.4,420.0 L567.2,420.0 L568.1,420.0 L568.9,420.0 L569.8,420.0 L570.6,420.0 L571.4,420.0 L572.3,420.0 L573.1,420.0 L574.0,420.0 L574.8,420.0 L575.7,420.0 L576.5,420.0 L577.3,420.0 L578.2,420.0 L579.0,420.0 L579.9,420.0 L580.7,420.0 L581.5,420.0 L582.4,420.0 L583.2,420.0 L584.1,420.0 L584.9,420.0 L585.8,420.0 L586.6,420.0 L587.4,420.0 L588.3,420.0 L589.1,420.0 L590.0,420.0 L590.8,420.0 L591.6,420.0 L592.5,420.0 L593.3,420.0 L594.2,420.0 L595.0,420.0 L595.8,420.0 L596.7,420.0 L597.5,420.0 L598.4,420.0 L599.2,420.0 L600.1,420.0 L600.9,420.0 L601.7,420.0 L602.6,420.0 L603.4,420.0 L604.3,420.0 L605.1,420.0 L605.9,420.0 L606.8,420.0 L607.6,420.0 L608.5,420.0 L609.3,420.0 L610.2,420.0 L611.0,420.0 L611.8,420.0 L612.7,420.0 L613.5,420.0 L614.4,420.0 L615.2,420.0 L616.0,420.0 L616.9,420.0 L617.7,420.0 L618.6,420.0 L619.4,420.0 L620.3,420.0 L621.1,420.0 L621.9,420.0 L622.8,420.0 L623.6,420.0 L624.5,420.0 L625.3,420.0 L626.1,420.0 L627.0,420.0 L627.8,420.0 L628.7,420.0 L629.5,420.0 L630.4,420.0 L631.2,420.0 L632.0,420.0 L632.9,420.0 L633.7,420.0 L634.6,420.0 L635.4,420.0 L636.2,420.0 L637.1,420.0 L637.9,420.0 L638.8,420.0 L639.6,420.0 L640.4,420.0 L641.3,420.0 L642.1,420.0 L643.0,420.0 L643.8,420.0 L644.7,420.0 L645.5,420.0 L646.3,420.0 L647.2,420.0 L648.0,420.0 L648.9,420.0 L649.7,420.0 L650.5,420.0 L651.4,420.0 L652.2,420.0 L653.1,420.0 L653.9,420.0 L654.8,420.0 L655.6,420.0 L656.4,420.0 L657.3,420.0 L658.1,420.0 L659.0,420.0 L659.8,420.0 L660.6,420.0 L661.5,420.0 L662.3,420.0 L663.2,420.0 L664.0,420.0 L664.9,420.0 L665.7,420.0 L666.5,420.0 L667.4,420.0 L668.2,420.0 L669.1,420.0 L669.9,420.0 L670.7,420.0 L671.6,420.0 L672.4,420.0 L673.3,420.0 L674.1,420.0 L675.0,420.0 L675.8,420.0 L676.6,420.0 L677.5,420.0 L678.3,420.0 L679.2,420.0 L680.0,420.0" stroke="#e377c2" stroke-width="2" fill="none" opacity="0.8"/>

<!-- Legend -->
<line x1="690" y1="70" x2="705" y2="70" stroke="#1f77b4" stroke-width="3"/>
<text x="710" y="74" class="legend">Wind Generation</text>
<line x1="690" y1="88" x2="705" y2="88" stroke="#ff7f0e" stroke-width="3"/>
<text x="710" y="92" class="legend">Hydro Generation</text>
<line x1="690" y1="106" x2="705" y2="106" stroke="#2ca02c" stroke-width="3"/>
<text x="710" y="110" class="legend">Thermal Generation</text>
<line x1="690" y1="124" x2="705" y2="124" stroke="#d62728" stroke-width="3"/>
<text x="710" y="128" class="legend">Solar Generation</text>
<line x1="690" y1="142" x2="705" y2="142" stroke="#9467bd" stroke-width="3"/>
<text x="710" y="146" class="legend">Forecast</text>
<line x1="690" y1="160" x2="705" y2="160" stroke="#8c564b" stroke-width="3"/>
<text x="710" y="164" class="legend">Total Generation</text>
<line x1="690" y1="178" x2="705" y2="178" stroke="#e377c2" stroke-width="3"/>
<text x="710" y="182" class="legend">Forecast Difference</text>

<!-- Date range -->
<text x="80" y="495" class="legend">Range: 04/10 - 05/10/2026 (714 records)</text>
</svg>