<?xml version="1.0" encoding="UTF-8"?>
<svg width="800" height="500" xmlns="http://www.w3.org/2000/svg">
<style>
.axis-line { stroke: #333; stroke-width: 1; }
.grid-line { stroke: #ddd; stroke-width: 0.5; }
.title { font: 16px Arial; text-anchor: middle; fill: #333; }
.axis-label { font: 12px Arial; text-anchor: middle; fill: #666; }
.legend { font: 10px Arial; fill: #333; }
</style>

<!-- Title -->
<text x="400.0" y="25" class="title">Northwestern Energy Generation Data - Past 30 Days</text>

<!-- Plot area background -->
<rect x="80" y="50" width="600" height="370" fill="white" stroke="#ddd"/>

<!-- Y-axis -->
<line x1="80" y1="50" x2="80" y2="420" class="axis-line"/>
<text x="30" y="235.0" class="axis-label" transform="rotate(-90, 30, 235.0)">Generation (MW)</text>

<!-- X-axis -->
<line x1="80" y1="420" x2="680" y2="420" class="axis-line"/>
<text x="380.0" y="480" class="axis-label">Time</text>
<line x1="80" y1="420.0" x2="680" y2="420.0" class="grid-line"/>
<text x="70" y="425.0" class="legend" text-anchor="end">0</text>
<line x1="80" y1="327.5" x2="680" y2="327.5" class="grid-line"/>
<text x="70" y="332.5" class="legend" text-anchor="end">345</text>
<line x1="80" y1="235.0" x2="680" y2="235.0" class="grid-line"/>
<text x="70" y="240.0" class="legend" text-anchor="end">690</text>
<line x1="80" y1="142.5" x2="680" y2="142.5" class="grid-line"/>
<text x="70" y="147.5" class="legend" text-anchor="end">1035</text>
<line x1="80" y1="50.0" x2="680" y2="50.0" class="grid-line"/>
<text x="70" y="55.0" class="legend" text-anchor="end">1380</text>
<!-- Wind Generation -->
<path d="M80.0,420.0 L80.8,420.0 L81.7,418.4 L82.5,408.7 L83.4,398.5 L84.2,394.0 L85.0,370.1 L85.9,358.3 L86.7,356.7 L87.6,357.8 L88.4,356.7 L89.3,318.1 L90.1,312.7 L90.9,331.0 L91.8,327.5 L92.6,331.8 L93.5,347.3 L94.3,350.3 L95.1,358.9 L96.0,361.8 L96.8,379.8 L97.7,384.3 L98.5,399.6 L99.4,409.0 L100.2,412.2 L101.0,413.3 L101.9,411.7 L102.7,413.6 L103.6,411.7 L104.4,406.3 L105.2,400.7 L106.1,400.4 L106.9,403.1 L107.8,405.5 L108.6,405.5 L109.5,402.3 L110.3,401.8 L111.1,405.5 L112.0,408.2 L112.8,405.8 L113.7,403.1 L114.5,405.0 L115.3,404.2 L116.2,394.3 L117.0,382.2 L117.9,356.7 L118.7,331.0 L119.6,323.2 L120.4,319.2 L121.2,317.6 L122.1,315.1 L122.9,312.2 L123.8,312.2 L124.6,314.6 L125.4,313.8 L126.3,313.5 L127.1,307.9 L128.0,323.5 L128.8,310.0 L129.6,310.9 L130.5,308.7 L131.3,313.3 L132.2,328.3 L133.0,337.4 L133.9,354.0 L134.7,379.2 L135.5,373.6 L136.4,379.0 L137.2,378.2 L138.1,351.3 L138.9,357.5 L139.7,348.1 L140.6,371.5 L141.4,343.3 L142.3,361.0 L143.1,346.5 L144.0,387.3 L144.8,378.4 L145.6,374.7 L146.5,380.3 L147.3,380.8 L148.2,373.9 L149.0,331.0 L149.8,311.1 L150.7,321.0 L151.5,333.6 L152.4,318.6 L153.2,318.6 L154.1,309.8 L154.9,315.1 L155.7,310.9 L156.6,315.9 L157.4,335.5 L158.3,333.6 L159.1,347.1 L159.9,353.0 L160.8,335.5 L161.6,347.9 L162.5,361.3 L163.3,347.1 L164.2,330.2 L165.0,309.8 L165.8,309.5 L166.7,310.3 L167.5,318.4 L168.4,319.4 L169.2,334.5 L170.0,341.2 L170.9,343.0 L171.7,322.7 L172.6,340.4 L173.4,332.8 L174.2,328.3 L175.1,351.3 L175.9,336.6 L176.8,337.1 L177.6,330.2 L178.5,328.3 L179.3,348.1 L180.1,338.5 L181.0,330.2 L181.8,328.3 L182.7,360.5 L183.5,343.6 L184.3,350.0 L185.2,335.0 L186.0,324.3 L186.9,326.1 L187.7,321.6 L188.6,330.4 L189.4,327.7 L190.2,331.5 L191.1,343.3 L191.9,345.7 L192.8,351.3 L193.6,344.9 L194.4,353.2 L195.3,335.8 L196.1,325.6 L197.0,319.2 L197.8,326.9 L198.7,341.2 L199.5,372.5 L200.3,345.4 L201.2,336.1 L202.0,337.4 L202.9,353.2 L203.7,324.3 L204.5,326.4 L205.4,317.0 L206.2,323.5 L207.1,322.7 L207.9,321.8 L208.8,317.3 L209.6,317.3 L210.4,321.8 L211.3,335.8 L212.1,362.9 L213.0,350.3 L213.8,344.9 L214.6,354.0 L215.5,347.3 L216.3,345.2 L217.2,356.2 L218.0,365.0 L218.8,383.0 L219.7,397.7 L220.5,394.8 L221.4,399.6 L222.2,402.0 L223.1,401.5 L223.9,388.6 L224.7,393.2 L225.6,388.1 L226.4,354.8 L227.3,362.3 L228.1,340.1 L228.9,355.9 L229.8,362.6 L230.6,366.9 L231.5,364.5 L232.3,371.7 L233.2,377.1 L234.0,380.6 L234.8,396.7 L235.7,411.4 L236.5,413.0 L237.4,410.6 L238.2,404.4 L239.0,395.9 L239.9,391.6 L240.7,365.8 L241.6,353.2 L242.4,373.9 L243.3,367.2 L244.1,345.2 L244.9,331.5 L245.8,336.3 L246.6,325.3 L247.5,323.7 L248.3,328.6 L249.1,329.1 L250.0,346.0 L250.8,366.6 L251.7,373.1 L252.5,395.6 L253.4,394.0 L254.2,396.7 L255.0,394.0 L255.9,391.6 L256.7,393.5 L257.6,387.0 L258.4,387.6 L259.2,401.5 L260.1,401.2 L260.9,405.8 L261.8,412.2 L262.6,416.8 L263.5,418.1 L264.3,419.2 L265.1,419.5 L266.0,416.5 L266.8,417.6 L267.7,416.0 L268.5,412.8 L269.3,411.2 L270.2,404.4 L271.0,394.5 L271.9,378.2 L272.7,369.0 L273.5,375.8 L274.4,383.5 L275.2,409.3 L276.1,418.4 L276.9,419.5 L277.8,418.1 L278.6,412.0 L279.4,406.9 L280.3,407.1 L281.1,401.2 L282.0,371.5 L282.8,377.4 L283.6,387.0 L284.5,379.0 L285.3,375.5 L286.2,337.4 L287.0,348.7 L287.9,329.1 L288.7,350.5 L289.5,315.9 L290.4,329.1 L291.2,351.1 L292.1,369.0 L292.9,375.8 L293.7,376.0 L294.6,360.7 L295.4,336.9 L296.3,337.7 L297.1,318.9 L298.0,345.4 L298.8,348.7 L299.6,367.2 L300.5,355.4 L301.3,347.9 L302.2,338.5 L303.0,369.9 L303.8,351.1 L304.7,344.9 L305.5,361.5 L306.4,362.6 L307.2,360.2 L308.1,359.4 L308.9,358.1 L309.7,364.5 L310.6,364.5 L311.4,342.0 L312.3,339.0 L313.1,338.7 L313.9,341.4 L314.8,344.1 L315.6,349.2 L316.5,355.4 L317.3,384.1 L318.1,395.3 L319.0,410.6 L319.8,413.8 L320.7,414.1 L321.5,414.6 L322.4,390.8 L323.2,391.3 L324.0,387.0 L324.9,385.7 L325.7,376.3 L326.6,359.7 L327.4,355.1 L328.2,363.7 L329.1,363.1 L329.9,338.2 L330.8,346.0 L331.6,350.5 L332.5,362.6 L333.3,368.8 L334.1,376.0 L335.0,401.2 L335.8,399.1 L336.7,408.7 L337.5,406.1 L338.3,410.6 L339.2,414.9 L340.0,416.8 L340.9,418.1 L341.7,416.5 L342.6,415.4 L343.4,416.5 L344.2,414.6 L345.1,410.3 L345.9,404.2 L346.8,396.7 L347.6,401.5 L348.4,399.1 L349.3,396.1 L350.1,384.6 L351.0,380.3 L351.8,391.0 L352.7,385.4 L353.5,385.4 L354.3,385.4 L355.2,396.7 L356.0,399.9 L356.9,399.4 L357.7,401.0 L358.5,399.6 L359.4,385.1 L360.2,375.2 L361.1,364.5 L361.9,351.6 L362.7,348.7 L363.6,394.8 L364.4,377.9 L365.3,395.1 L366.1,394.8 L367.0,388.1 L367.8,386.2 L368.6,383.0 L369.5,383.3 L370.3,382.5 L371.2,394.3 L372.0,409.8 L372.8,391.8 L373.7,398.8 L374.5,389.4 L375.4,408.7 L376.2,409.3 L377.1,410.1 L377.9,404.2 L378.7,396.1 L379.6,394.0 L380.4,392.1 L381.3,391.3 L382.1,395.3 L382.9,396.9 L383.8,392.6 L384.6,400.2 L385.5,395.9 L386.3,405.8 L387.2,403.6 L388.0,399.1 L388.8,401.5 L389.7,402.6 L390.5,401.0 L391.4,379.0 L392.2,379.5 L393.0,384.3 L393.9,378.7 L394.7,382.2 L395.6,387.6 L396.4,394.5 L397.3,399.9 L398.1,407.9 L398.9,409.3 L399.8,395.1 L400.6,388.1 L401.5,383.3 L402.3,391.0 L403.1,396.1 L404.0,397.5 L404.8,389.4 L405.7,394.0 L406.5,398.3 L407.3,383.5 L408.2,379.0 L409.0,340.4 L409.9,335.8 L410.7,339.0 L411.6,347.9 L412.4,354.6 L413.2,353.2 L414.1,357.8 L414.9,372.0 L415.8,378.4 L416.6,375.8 L417.4,376.3 L418.3,391.8 L419.1,396.7 L420.0,395.3 L420.8,388.4 L421.7,387.0 L422.5,380.6 L423.3,387.6 L424.2,383.5 L425.0,381.7 L425.9,375.8 L426.7,386.7 L427.5,389.2 L428.4,390.5 L429.2,401.5 L430.1,408.2 L430.9,410.9 L431.8,404.4 L432.6,405.3 L433.4,408.5 L434.3,411.7 L435.1,412.2 L436.0,417.9 L436.8,420.0 L437.6,420.0 L438.5,420.0 L439.3,420.0 L440.2,418.4 L441.0,419.2 L441.9,418.7 L442.7,418.9 L443.5,419.5 L444.4,420.0 L445.2,420.0 L446.1,417.3 L446.9,415.7 L447.7,412.0 L448.6,407.9 L449.4,403.1 L450.3,391.0 L451.1,398.0 L451.9,395.9 L452.8,387.6 L453.6,372.5 L454.5,381.1 L455.3,392.4 L456.2,390.5 L457.0,405.5 L457.8,414.4 L458.7,419.2 L459.5,417.9 L460.4,417.1 L461.2,415.4 L462.0,414.9 L462.9,419.7 L463.7,413.8 L464.6,415.4 L465.4,415.2 L466.3,414.9 L467.1,406.1 L467.9,410.1 L468.8,395.3 L469.6,351.6 L470.5,339.0 L471.3,355.4 L472.1,364.2 L473.0,331.2 L473.8,318.1 L474.7,325.3 L475.5,336.9 L476.4,343.0 L477.2,344.1 L478.0,348.4 L478.9,333.1 L479.7,336.1 L480.6,339.5 L481.4,338.7 L482.2,342.2 L483.1,344.4 L483.9,342.8 L484.8,362.9 L485.6,372.0 L486.5,382.2 L487.3,400.7 L488.1,405.0 L489.0,400.4 L489.8,402.8 L490.7,405.3 L491.5,407.9 L492.3,403.9 L493.2,385.9 L494.0,371.2 L494.9,377.4 L495.7,390.8 L496.5,370.1 L497.4,360.7 L498.2,368.0 L499.1,360.7 L499.9,356.2 L500.8,351.9 L501.6,346.3 L502.4,359.4 L503.3,362.1 L504.1,362.9 L505.0,369.6 L505.8,372.8 L506.6,362.3 L507.5,354.3 L508.3,373.9 L509.2,368.5 L510.0,370.4 L510.9,369.9 L511.7,377.6 L512.5,366.1 L513.4,371.2 L514.2,385.4 L515.1,392.9 L515.9,397.5 L516.7,403.6 L517.6,407.1 L518.4,408.7 L519.3,408.7 L520.1,411.2 L521.0,411.7 L521.8,403.6 L522.6,405.0 L523.5,406.6 L524.3,408.2 L525.2,413.8 L526.0,412.8 L526.8,406.9 L527.7,408.5 L528.5,409.3 L529.4,405.3 L530.2,403.9 L531.1,401.0 L531.9,393.5 L532.7,386.7 L533.6,369.3 L534.4,354.6 L535.3,342.0 L536.1,348.4 L536.9,351.1 L537.8,364.0 L538.6,382.2 L539.5,391.8 L540.3,395.9 L541.2,401.8 L542.0,400.2 L542.8,402.8 L543.7,405.3 L544.5,408.5 L545.4,415.7 L546.2,415.7 L547.0,415.7 L547.9,414.4 L548.7,410.9 L549.6,401.5 L550.4,394.8 L551.2,390.5 L552.1,387.3 L552.9,397.2 L553.8,394.3 L554.6,394.3 L555.5,400.7 L556.3,413.6 L557.1,416.0 L558.0,413.8 L558.8,401.2 L559.7,395.1 L560.5,380.6 L561.3,367.4 L562.2,371.2 L563.0,364.0 L563.9,366.9 L564.7,355.9 L565.6,338.2 L566.4,361.3 L567.2,347.1 L568.1,362.1 L568.9,358.6 L569.8,361.0 L570.6,368.0 L571.4,366.4 L572.3,370.7 L573.1,362.9 L574.0,333.1 L574.8,339.0 L575.7,345.2 L576.5,346.8 L577.3,370.7 L578.2,370.4 L579.0,365.0 L579.9,370.1 L580.7,369.3 L581.5,355.1 L582.4,369.6 L583.2,374.7 L584.1,374.4 L584.9,364.8 L585.8,360.2 L586.6,349.2 L587.4,361.3 L588.3,360.2 L589.1,357.2 L590.0,362.6 L590.8,375.8 L591.6,381.7 L592.5,385.9 L593.3,380.3 L594.2,388.4 L595.0,376.8 L595.8,365.8 L596.7,364.5 L597.5,372.8 L598.4,391.0 L599.2,401.5 L600.1,415.4 L600.9,411.7 L601.7,408.5 L602.6,409.0 L603.4,388.1 L604.3,373.6 L605.1,382.5 L605.9,397.2 L606.8,410.1 L607.6,412.0 L608.5,416.2 L609.3,415.2 L610.2,414.6 L611.0,410.1 L611.8,411.4 L612.7,413.3 L613.5,405.3 L614.4,394.5 L615.2,379.2 L616.0,361.0 L616.9,364.2 L617.7,363.7 L618.6,370.9 L619.4,394.0 L620.3,411.2 L621.1,417.6 L621.9,420.0 L622.8,420.0 L623.6,420.0 L624.5,419.5 L625.3,418.1 L626.1,418.1 L627.0,417.9 L627.8,416.5 L628.7,410.3 L629.5,410.6 L630.4,414.1 L631.2,413.6 L632.0,412.5 L632.9,408.5 L633.7,405.3 L634.6,395.9 L635.4,393.2 L636.2,393.7 L637.1,401.8 L637.9,410.3 L638.8,418.4 L639.6,410.3 L640.4,414.4 L641.3,416.2 L642.1,412.2 L643.0,410.6 L643.8,411.7 L644.7,410.3 L645.5,410.9 L646.3,415.2 L647.2,417.3 L648.0,413.8 L648.9,405.0 L649.7,396.4 L650.5,395.1 L651.4,376.8 L652.2,359.7 L653.1,362.1 L653.9,358.9 L654.8,378.4 L655.6,377.9 L656.4,359.9 L657.3,334.7 L658.1,326.1 L659.0,336.9 L659.8,356.2 L660.6,351.9 L661.5,356.4 L662.3,341.4 L663.2,346.8 L664.0,359.1 L664.9,362.6 L665.7,369.6 L666.5,367.2 L667.4,392.9 L668.2,397.7 L669.1,398.3 L669.9,405.8 L670.7,403.6 L671.6,401.5 L672.4,408.2 L673.3,403.4 L674.1,417.6 L675.0,405.8 L675.8,402.6 L676.6,406.9 L677.5,399.1 L678.3,409.0 L679.2,412.2 L680.0,418.4" stroke="#1f77b4" stroke-width="2" fill="none" opacity="0.8"/>
<!-- Hydro Generation -->
<path d="M80.0,355.1 L80.8,354.6 L81.7,360.5 L82.5,361.0 L83.4,360.7 L84.2,360.2 L85.0,360.5 L85.9,358.1 L86.7,357.2 L87.6,356.7 L88.4,357.5 L89.3,357.8 L90.1,358.1 L90.9,357.8 L91.8,357.0 L92.6,357.2 L93.5,357.0 L94.3,357.5 L95.1,357.5 L96.0,357.8 L96.8,357.5 L97.7,358.9 L98.5,359.7 L99.4,359.4 L100.2,354.3 L101.0,354.8 L101.9,354.8 L102.7,354.0 L103.6,354.0 L104.4,354.3 L105.2,352.7 L106.1,352.4 L106.9,352.4 L107.8,352.4 L108.6,351.9 L109.5,351.1 L110.3,351.1 L111.1,351.1 L112.0,351.1 L112.8,350.8 L113.7,351.1 L114.5,350.5 L115.3,350.3 L116.2,350.5 L117.0,350.5 L117.9,350.5 L118.7,350.3 L119.6,350.3 L120.4,349.7 L121.2,349.7 L122.1,349.5 L122.9,349.2 L123.8,349.2 L124.6,349.2 L125.4,348.7 L126.3,348.9 L127.1,348.1 L128.0,347.9 L128.8,346.5 L129.6,346.3 L130.5,346.5 L131.3,346.3 L132.2,346.3 L133.0,345.4 L133.9,345.4 L134.7,344.6 L135.5,344.4 L136.4,345.2 L137.2,344.9 L138.1,344.4 L138.9,344.1 L139.7,344.4 L140.6,345.2 L141.4,345.4 L142.3,345.4 L143.1,345.2 L144.0,345.7 L144.8,346.8 L145.6,347.1 L146.5,347.3 L147.3,360.2 L148.2,346.8 L149.0,346.8 L149.8,347.1 L150.7,346.5 L151.5,346.5 L152.4,346.8 L153.2,346.8 L154.1,346.3 L154.9,347.6 L155.7,347.6 L156.6,347.3 L157.4,347.1 L158.3,347.1 L159.1,347.1 L159.9,347.6 L160.8,346.8 L161.6,346.3 L162.5,347.1 L163.3,347.9 L164.2,347.1 L165.0,347.3 L165.8,347.9 L166.7,347.1 L167.5,346.0 L168.4,344.9 L169.2,345.2 L170.0,345.7 L170.9,345.7 L171.7,345.7 L172.6,345.2 L173.4,345.4 L174.2,345.4 L175.1,346.5 L175.9,346.5 L176.8,346.0 L177.6,346.5 L178.5,346.5 L179.3,346.3 L180.1,346.8 L181.0,346.8 L181.8,346.5 L182.7,347.6 L183.5,347.9 L184.3,347.3 L185.2,347.3 L186.0,347.9 L186.9,347.1 L187.7,347.3 L188.6,346.0 L189.4,346.0 L190.2,346.0 L191.1,346.3 L191.9,346.3 L192.8,346.5 L193.6,346.0 L194.4,346.3 L195.3,346.3 L196.1,345.2 L197.0,345.4 L197.8,345.4 L198.7,346.0 L199.5,346.0 L200.3,345.7 L201.2,346.3 L202.0,346.5 L202.9,346.3 L203.7,346.0 L204.5,345.7 L205.4,346.0 L206.2,346.0 L207.1,345.7 L207.9,344.1 L208.8,342.8 L209.6,342.8 L210.4,343.0 L211.3,343.0 L212.1,343.3 L213.0,344.1 L213.8,343.8 L214.6,344.1 L215.5,344.1 L216.3,344.1 L217.2,345.4 L218.0,344.4 L218.8,345.7 L219.7,345.7 L220.5,345.7 L221.4,345.7 L222.2,345.7 L223.1,346.5 L223.9,346.3 L224.7,346.3 L225.6,346.5 L226.4,345.7 L227.3,345.2 L228.1,345.4 L228.9,344.1 L229.8,344.1 L230.6,344.1 L231.5,344.4 L232.3,344.1 L233.2,344.4 L234.0,344.1 L234.8,344.4 L235.7,344.4 L236.5,344.9 L237.4,345.2 L238.2,345.4 L239.0,345.4 L239.9,346.0 L240.7,345.7 L241.6,345.7 L242.4,345.7 L243.3,346.3 L244.1,346.5 L244.9,346.3 L245.8,346.0 L246.6,346.0 L247.5,346.0 L248.3,345.7 L249.1,345.7 L250.0,346.0 L250.8,346.3 L251.7,346.3 L252.5,346.3 L253.4,345.7 L254.2,344.9 L255.0,344.9 L255.9,344.1 L256.7,343.8 L257.6,344.1 L258.4,344.1 L259.2,344.1 L260.1,343.6 L260.9,343.6 L261.8,343.6 L262.6,344.6 L263.5,344.6 L264.3,343.8 L265.1,342.5 L266.0,342.5 L266.8,342.2 L267.7,342.2 L268.5,340.9 L269.3,341.2 L270.2,341.2 L271.0,341.2 L271.9,341.4 L272.7,342.2 L273.5,342.5 L274.4,342.0 L275.2,342.5 L276.1,342.2 L276.9,342.2 L277.8,341.7 L278.6,342.0 L279.4,341.7 L280.3,341.7 L281.1,340.9 L282.0,341.7 L282.8,341.4 L283.6,341.4 L284.5,341.2 L285.3,341.2 L286.2,341.7 L287.0,342.0 L287.9,342.0 L288.7,341.4 L289.5,340.6 L290.4,340.9 L291.2,340.9 L292.1,341.7 L292.9,342.0 L293.7,342.5 L294.6,342.5 L295.4,342.5 L296.3,342.2 L297.1,342.5 L298.0,342.8 L298.8,342.5 L299.6,342.5 L300.5,342.2 L301.3,342.2 L302.2,342.5 L303.0,343.0 L303.8,342.8 L304.7,343.6 L305.5,343.6 L306.4,342.8 L307.2,342.8 L308.1,343.0 L308.9,343.3 L309.7,342.8 L310.6,343.3 L311.4,343.6 L312.3,344.6 L313.1,344.6 L313.9,344.6 L314.8,345.2 L315.6,345.4 L316.5,345.4 L317.3,345.4 L318.1,345.7 L319.0,345.2 L319.8,346.0 L320.7,345.7 L321.5,345.2 L322.4,345.2 L323.2,345.2 L324.0,344.4 L324.9,344.6 L325.7,344.9 L326.6,344.6 L327.4,344.1 L328.2,342.5 L329.1,342.5 L329.9,343.0 L330.8,343.6 L331.6,343.3 L332.5,343.0 L333.3,343.0 L334.1,342.8 L335.0,342.5 L335.8,342.8 L336.7,342.8 L337.5,342.8 L338.3,342.0 L339.2,342.0 L340.0,342.0 L340.9,342.0 L341.7,341.7 L342.6,341.7 L343.4,341.7 L344.2,342.0 L345.1,341.7 L345.9,341.4 L346.8,342.0 L347.6,342.0 L348.4,341.2 L349.3,340.4 L350.1,340.6 L351.0,340.4 L351.8,339.5 L352.7,339.5 L353.5,339.5 L354.3,339.8 L355.2,339.5 L356.0,339.3 L356.9,339.5 L357.7,339.5 L358.5,340.4 L359.4,340.4 L360.2,341.4 L361.1,341.4 L361.9,342.2 L362.7,342.2 L363.6,342.0 L364.4,342.2 L365.3,342.0 L366.1,342.0 L367.0,340.9 L367.8,340.9 L368.6,350.3 L369.5,350.0 L370.3,350.5 L371.2,340.9 L372.0,340.9 L372.8,342.2 L373.7,340.4 L374.5,340.1 L375.4,339.3 L376.2,338.7 L377.1,338.5 L377.9,339.3 L378.7,339.5 L379.6,339.0 L380.4,339.3 L381.3,339.3 L382.1,339.0 L382.9,339.0 L383.8,339.0 L384.6,339.0 L385.5,339.3 L386.3,339.0 L387.2,339.3 L388.0,338.2 L388.8,338.5 L389.7,337.4 L390.5,337.7 L391.4,336.6 L392.2,337.1 L393.0,336.9 L393.9,336.9 L394.7,336.6 L395.6,336.3 L396.4,336.9 L397.3,337.1 L398.1,337.1 L398.9,337.1 L399.8,337.4 L400.6,337.9 L401.5,337.7 L402.3,337.9 L403.1,337.9 L404.0,337.9 L404.8,338.5 L405.7,338.5 L406.5,339.0 L407.3,339.0 L408.2,339.8 L409.0,339.5 L409.9,339.5 L410.7,339.8 L411.6,339.5 L412.4,340.1 L413.2,340.1 L414.1,340.4 L414.9,340.4 L415.8,340.1 L416.6,340.4 L417.4,339.8 L418.3,339.5 L419.1,339.8 L420.0,338.7 L420.8,339.0 L421.7,339.0 L422.5,339.0 L423.3,339.0 L424.2,330.2 L425.0,337.9 L425.9,337.7 L426.7,340.6 L427.5,337.7 L428.4,337.4 L429.2,337.4 L430.1,337.9 L430.9,337.9 L431.8,339.0 L432.6,338.7 L433.4,338.2 L434.3,338.5 L435.1,338.7 L436.0,338.5 L436.8,338.5 L437.6,338.7 L438.5,338.7 L439.3,338.7 L440.2,338.7 L441.0,338.5 L441.9,338.7 L442.7,338.7 L443.5,338.7 L444.4,338.7 L445.2,338.5 L446.1,338.5 L446.9,337.9 L447.7,337.7 L448.6,336.9 L449.4,337.1 L450.3,336.9 L451.1,336.9 L451.9,337.1 L452.8,336.9 L453.6,337.1 L454.5,337.1 L455.3,336.9 L456.2,337.4 L457.0,337.1 L457.8,337.1 L458.7,337.1 L459.5,336.9 L460.4,337.1 L461.2,337.1 L462.0,337.1 L462.9,336.6 L463.7,336.6 L464.6,336.3 L465.4,336.1 L466.3,337.4 L467.1,337.4 L467.9,336.6 L468.8,336.3 L469.6,335.8 L470.5,336.3 L471.3,334.5 L472.1,332.0 L473.0,332.0 L473.8,332.3 L474.7,332.0 L475.5,331.5 L476.4,332.0 L477.2,332.0 L478.0,331.8 L478.9,332.0 L479.7,333.1 L480.6,333.1 L481.4,333.9 L482.2,334.5 L483.1,334.7 L483.9,335.0 L484.8,334.2 L485.6,334.2 L486.5,334.2 L487.3,334.2 L488.1,334.2 L489.0,334.2 L489.8,334.2 L490.7,334.5 L491.5,334.7 L492.3,334.7 L493.2,334.5 L494.0,334.7 L494.9,333.9 L495.7,333.6 L496.5,333.6 L497.4,333.9 L498.2,333.9 L499.1,333.9 L499.9,333.9 L500.8,334.7 L501.6,335.5 L502.4,335.5 L503.3,335.3 L504.1,335.3 L505.0,335.3 L505.8,335.5 L506.6,335.3 L507.5,335.5 L508.3,335.3 L509.2,335.3 L510.0,335.0 L510.9,335.3 L511.7,335.5 L512.5,335.5 L513.4,335.5 L514.2,334.7 L515.1,334.7 L515.9,334.7 L516.7,334.7 L517.6,334.7 L518.4,334.7 L519.3,334.7 L520.1,334.7 L521.0,334.7 L521.8,334.7 L522.6,334.7 L523.5,335.5 L524.3,335.8 L525.2,335.8 L526.0,335.5 L526.8,336.1 L527.7,335.8 L528.5,335.8 L529.4,335.8 L530.2,336.1 L531.1,336.1 L531.9,336.1 L532.7,336.1 L533.6,336.1 L534.4,336.1 L535.3,336.1 L536.1,336.1 L536.9,335.8 L537.8,336.1 L538.6,335.8 L539.5,336.1 L540.3,336.1 L541.2,335.8 L542.0,335.8 L542.8,336.1 L543.7,335.8 L544.5,334.2 L545.4,350.0 L546.2,349.7 L547.0,350.0 L547.9,349.7 L548.7,349.7 L549.6,349.2 L550.4,348.9 L551.2,348.7 L552.1,348.9 L552.9,348.7 L553.8,348.7 L554.6,348.4 L555.5,348.7 L556.3,348.7 L557.1,347.9 L558.0,347.9 L558.8,347.9 L559.7,348.1 L560.5,348.1 L561.3,348.1 L562.2,348.7 L563.0,348.4 L563.9,348.1 L564.7,348.4 L565.6,348.9 L566.4,385.7 L567.2,386.7 L568.1,386.5 L568.9,385.7 L569.8,385.9 L570.6,385.9 L571.4,385.9 L572.3,385.7 L573.1,385.9 L574.0,348.9 L574.8,348.7 L575.7,348.7 L576.5,349.7 L577.3,350.0 L578.2,351.1 L579.0,351.1 L579.9,351.1 L580.7,351.1 L581.5,351.1 L582.4,350.5 L583.2,350.0 L584.1,349.5 L584.9,350.0 L585.8,350.3 L586.6,350.0 L587.4,350.3 L588.3,350.0 L589.1,350.0 L590.0,349.7 L590.8,349.7 L591.6,350.0 L592.5,350.0 L593.3,350.3 L594.2,350.3 L595.0,350.3 L595.8,350.5 L596.7,350.3 L597.5,350.5 L598.4,350.5 L599.2,350.5 L600.1,350.5 L600.9,350.8 L601.7,350.5 L602.6,350.5 L603.4,350.3 L604.3,350.3 L605.1,350.3 L605.9,351.1 L606.8,350.5 L607.6,351.6 L608.5,351.6 L609.3,351.1 L610.2,351.1 L611.0,351.6 L611.8,349.7 L612.7,349.7 L613.5,349.7 L614.4,350.0 L615.2,350.0 L616.0,350.0 L616.9,350.0 L617.7,349.7 L618.6,349.7 L619.4,350.0 L620.3,349.7 L621.1,350.3 L621.9,350.3 L622.8,350.8 L623.6,350.8 L624.5,350.0 L625.3,350.3 L626.1,350.3 L627.0,352.2 L627.8,351.9 L628.7,351.9 L629.5,351.9 L630.4,352.4 L631.2,352.4 L632.0,352.4 L632.9,351.9 L633.7,351.1 L634.6,351.3 L635.4,350.8 L636.2,350.8 L637.1,351.1 L637.9,350.8 L638.8,350.8 L639.6,350.8 L640.4,350.8 L641.3,350.8 L642.1,350.8 L643.0,351.1 L643.8,350.8 L644.7,351.1 L645.5,351.3 L646.3,352.2 L647.2,352.2 L648.0,351.9 L648.9,351.6 L649.7,351.9 L650.5,351.3 L651.4,350.8 L652.2,351.1 L653.1,350.0 L653.9,349.7 L654.8,349.7 L655.6,350.3 L656.4,350.3 L657.3,350.3 L658.1,350.3 L659.0,350.3 L659.8,350.3 L660.6,350.3 L661.5,350.0 L662.3,350.3 L663.2,350.0 L664.0,350.0 L664.9,350.3 L665.7,351.1 L666.5,351.3 L667.4,351.3 L668.2,351.3 L669.1,351.1 L669.9,350.0 L670.7,350.0 L671.6,350.0 L672.4,349.2 L673.3,349.5 L674.1,349.2 L675.0,349.2 L675.8,349.5 L676.6,350.0 L677.5,350.3 L678.3,350.3 L679.2,350.3 L680.0,349.2" stroke="#ff7f0e" stroke-width="2" fill="none" opacity="0.8"/>
<!-- Thermal Generation -->
<path d="M80.0,283.8 L80.8,283.8 L81.7,310.9 L82.5,311.1 L83.4,311.1 L84.2,326.4 L85.0,353.8 L85.9,362.1 L86.7,362.3 L87.6,361.8 L88.4,361.8 L89.3,361.8 L90.1,361.5 L90.9,362.1 L91.8,376.6 L92.6,358.3 L93.5,339.5 L94.3,345.7 L95.1,334.2 L96.0,334.5 L96.8,334.5 L97.7,333.9 L98.5,299.3 L99.4,292.1 L100.2,284.0 L101.0,300.9 L101.9,310.9 L102.7,311.1 L103.6,321.6 L104.4,335.0 L105.2,335.3 L106.1,354.3 L106.9,354.6 L107.8,354.3 L108.6,354.3 L109.5,280.5 L110.3,257.5 L111.1,249.2 L112.0,249.4 L112.8,251.3 L113.7,237.6 L114.5,237.6 L115.3,237.9 L116.2,246.2 L117.0,270.9 L117.9,278.1 L118.7,276.5 L119.6,284.0 L120.4,259.9 L121.2,263.7 L122.1,268.5 L122.9,301.2 L123.8,308.4 L124.6,335.3 L125.4,357.0 L126.3,357.2 L127.1,357.0 L128.0,357.2 L128.8,344.6 L129.6,298.0 L130.5,252.4 L131.3,278.1 L132.2,297.7 L133.0,318.9 L133.9,362.3 L134.7,362.1 L135.5,353.8 L136.4,354.3 L137.2,354.0 L138.1,354.0 L138.9,354.3 L139.7,354.3 L140.6,321.8 L141.4,314.9 L142.3,331.2 L143.1,344.4 L144.0,360.5 L144.8,360.2 L145.6,352.7 L146.5,360.2 L147.3,360.7 L148.2,352.7 L149.0,342.2 L149.8,333.1 L150.7,280.8 L151.5,280.3 L152.4,279.2 L153.2,304.1 L154.1,321.8 L154.9,359.7 L155.7,359.7 L156.6,362.3 L157.4,362.1 L158.3,361.8 L159.1,361.8 L159.9,289.7 L160.8,278.4 L161.6,317.8 L162.5,327.7 L163.3,340.6 L164.2,351.6 L165.0,349.5 L165.8,360.5 L166.7,360.2 L167.5,360.5 L168.4,360.5 L169.2,360.2 L170.0,284.3 L170.9,294.8 L171.7,318.6 L172.6,327.2 L173.4,359.9 L174.2,359.7 L175.1,359.7 L175.9,359.4 L176.8,359.1 L177.6,359.4 L178.5,359.7 L179.3,359.9 L180.1,359.7 L181.0,358.6 L181.8,359.9 L182.7,359.9 L183.5,360.2 L184.3,359.7 L185.2,364.0 L186.0,364.0 L186.9,363.7 L187.7,363.1 L188.6,364.0 L189.4,363.4 L190.2,362.9 L191.1,325.3 L191.9,363.4 L192.8,362.3 L193.6,361.8 L194.4,362.3 L195.3,362.1 L196.1,361.8 L197.0,372.8 L197.8,372.8 L198.7,373.1 L199.5,362.3 L200.3,362.3 L201.2,351.1 L202.0,351.3 L202.9,361.8 L203.7,361.8 L204.5,362.6 L205.4,363.7 L206.2,364.0 L207.1,364.8 L207.9,365.3 L208.8,365.3 L209.6,365.6 L210.4,355.1 L211.3,314.3 L212.1,355.4 L213.0,362.9 L213.8,359.7 L214.6,361.8 L215.5,361.5 L216.3,361.5 L217.2,361.8 L218.0,362.1 L218.8,361.5 L219.7,362.1 L220.5,340.4 L221.4,335.0 L222.2,322.1 L223.1,350.8 L223.9,361.5 L224.7,362.1 L225.6,361.8 L226.4,361.8 L227.3,362.1 L228.1,362.1 L228.9,361.8 L229.8,361.8 L230.6,361.8 L231.5,361.5 L232.3,361.8 L233.2,362.1 L234.0,361.8 L234.8,362.1 L235.7,361.5 L236.5,361.3 L237.4,361.8 L238.2,362.1 L239.0,362.3 L239.9,362.1 L240.7,345.4 L241.6,346.0 L242.4,355.9 L243.3,362.3 L244.1,361.5 L244.9,362.1 L245.8,361.8 L246.6,362.3 L247.5,377.6 L248.3,378.2 L249.1,377.6 L250.0,361.5 L250.8,320.0 L251.7,265.8 L252.5,265.3 L253.4,265.5 L254.2,292.6 L255.0,320.0 L255.9,318.1 L256.7,344.4 L257.6,358.9 L258.4,319.2 L259.2,316.8 L260.1,298.5 L260.9,242.2 L261.8,242.5 L262.6,275.5 L263.5,286.2 L264.3,306.0 L265.1,326.4 L266.0,327.5 L266.8,340.4 L267.7,340.4 L268.5,339.0 L269.3,362.3 L270.2,362.3 L271.0,298.0 L271.9,257.0 L272.7,254.8 L273.5,283.8 L274.4,315.4 L275.2,270.1 L276.1,315.7 L276.9,351.3 L277.8,351.1 L278.6,350.0 L279.4,350.8 L280.3,340.4 L281.1,308.4 L282.0,293.2 L282.8,293.4 L283.6,319.2 L284.5,340.6 L285.3,362.6 L286.2,362.6 L287.0,362.6 L287.9,362.9 L288.7,350.5 L289.5,372.0 L290.4,362.1 L291.2,330.2 L292.1,316.5 L292.9,330.4 L293.7,351.3 L294.6,354.0 L295.4,355.6 L296.3,361.5 L297.1,361.8 L298.0,362.1 L298.8,362.1 L299.6,361.8 L300.5,346.0 L301.3,314.6 L302.2,328.3 L303.0,330.7 L303.8,362.9 L304.7,363.1 L305.5,362.9 L306.4,362.1 L307.2,362.9 L308.1,361.8 L308.9,362.3 L309.7,348.7 L310.6,368.5 L311.4,365.8 L312.3,337.7 L313.1,326.9 L313.9,341.2 L314.8,362.3 L315.6,362.3 L316.5,362.6 L317.3,361.0 L318.1,362.3 L319.0,362.1 L319.8,351.6 L320.7,319.4 L321.5,258.3 L322.4,263.9 L323.2,268.2 L324.0,280.5 L324.9,314.6 L325.7,324.5 L326.6,346.0 L327.4,362.9 L328.2,362.9 L329.1,362.6 L329.9,362.6 L330.8,362.3 L331.6,362.1 L332.5,316.8 L333.3,339.8 L334.1,296.4 L335.0,284.6 L335.8,273.6 L336.7,280.3 L337.5,329.9 L338.3,273.6 L339.2,273.6 L340.0,270.4 L340.9,267.7 L341.7,245.2 L342.6,242.7 L343.4,276.0 L344.2,294.5 L345.1,318.9 L345.9,330.2 L346.8,362.3 L347.6,361.8 L348.4,361.8 L349.3,362.3 L350.1,362.1 L351.0,362.1 L351.8,319.7 L352.7,310.0 L353.5,315.4 L354.3,322.9 L355.2,316.5 L356.0,332.6 L356.9,361.5 L357.7,362.1 L358.5,362.1 L359.4,362.1 L360.2,362.3 L361.1,362.3 L361.9,361.8 L362.7,361.5 L363.6,377.4 L364.4,379.0 L365.3,378.4 L366.1,378.2 L367.0,378.4 L367.8,375.8 L368.6,362.6 L369.5,362.3 L370.3,362.6 L371.2,362.3 L372.0,362.3 L372.8,362.1 L373.7,330.2 L374.5,322.4 L375.4,351.6 L376.2,362.3 L377.1,362.1 L377.9,362.1 L378.7,362.3 L379.6,362.6 L380.4,362.3 L381.3,362.3 L382.1,362.3 L382.9,362.3 L383.8,362.9 L384.6,370.4 L385.5,370.7 L386.3,361.8 L387.2,362.1 L388.0,361.8 L388.8,361.5 L389.7,362.1 L390.5,361.8 L391.4,361.8 L392.2,362.3 L393.0,362.1 L393.9,362.3 L394.7,362.1 L395.6,362.1 L396.4,362.6 L397.3,362.9 L398.1,362.6 L398.9,362.3 L399.8,362.3 L400.6,345.7 L401.5,345.7 L402.3,308.7 L403.1,245.2 L404.0,288.1 L404.8,280.5 L405.7,296.6 L406.5,296.4 L407.3,287.5 L408.2,288.1 L409.0,325.6 L409.9,362.6 L410.7,362.1 L411.6,362.1 L412.4,341.2 L413.2,279.7 L414.1,257.0 L414.9,249.7 L415.8,270.1 L416.6,267.7 L417.4,243.3 L418.3,362.1 L419.1,361.8 L420.0,346.8 L420.8,296.6 L421.7,279.2 L422.5,243.0 L423.3,243.0 L424.2,242.7 L425.0,242.5 L425.9,241.7 L426.7,243.0 L427.5,242.5 L428.4,246.5 L429.2,243.0 L430.1,241.1 L430.9,240.9 L431.8,241.4 L432.6,241.9 L433.4,253.7 L434.3,242.2 L435.1,242.2 L436.0,242.7 L436.8,257.5 L437.6,272.2 L438.5,244.1 L439.3,242.5 L440.2,242.2 L441.0,242.5 L441.9,244.6 L442.7,242.2 L443.5,243.3 L444.4,264.7 L445.2,254.8 L446.1,297.7 L446.9,298.5 L447.7,295.8 L448.6,301.7 L449.4,284.0 L450.3,294.2 L451.1,307.4 L451.9,329.4 L452.8,265.0 L453.6,252.4 L454.5,243.0 L455.3,295.0 L456.2,305.2 L457.0,322.1 L457.8,354.0 L458.7,361.8 L459.5,360.5 L460.4,360.2 L461.2,359.1 L462.0,340.1 L462.9,305.8 L463.7,271.7 L464.6,298.0 L465.4,320.5 L466.3,319.4 L467.1,319.2 L467.9,318.6 L468.8,318.1 L469.6,351.1 L470.5,362.1 L471.3,362.1 L472.1,361.5 L473.0,361.3 L473.8,361.5 L474.7,361.8 L475.5,362.3 L476.4,362.1 L477.2,362.3 L478.0,362.1 L478.9,362.1 L479.7,361.8 L480.6,361.5 L481.4,361.3 L482.2,362.1 L483.1,356.7 L483.9,358.1 L484.8,358.9 L485.6,358.1 L486.5,356.2 L487.3,355.6 L488.1,362.1 L489.0,362.3 L489.8,362.1 L490.7,362.3 L491.5,362.1 L492.3,362.1 L493.2,362.1 L494.0,362.6 L494.9,331.0 L495.7,362.1 L496.5,361.8 L497.4,362.1 L498.2,362.1 L499.1,362.1 L499.9,362.3 L500.8,361.8 L501.6,361.8 L502.4,362.1 L503.3,356.7 L504.1,362.3 L505.0,376.3 L505.8,378.7 L506.6,378.7 L507.5,378.7 L508.3,378.7 L509.2,362.3 L510.0,362.3 L510.9,362.1 L511.7,362.1 L512.5,362.3 L513.4,361.8 L514.2,317.0 L515.1,284.6 L515.9,264.5 L516.7,263.7 L517.6,273.8 L518.4,284.8 L519.3,295.6 L520.1,318.1 L521.0,317.6 L521.8,335.5 L522.6,333.4 L523.5,273.0 L524.3,303.3 L525.2,333.4 L526.0,343.6 L526.8,362.1 L527.7,362.3 L528.5,362.1 L529.4,362.3 L530.2,362.3 L531.1,362.3 L531.9,362.1 L532.7,361.8 L533.6,327.5 L534.4,299.1 L535.3,316.5 L536.1,316.5 L536.9,325.1 L537.8,362.1 L538.6,361.8 L539.5,362.6 L540.3,362.1 L541.2,362.1 L542.0,362.3 L542.8,342.8 L543.7,278.9 L544.5,295.6 L545.4,303.9 L546.2,310.9 L547.0,321.8 L547.9,322.9 L548.7,322.9 L549.6,322.7 L550.4,321.3 L551.2,322.7 L552.1,322.7 L552.9,322.7 L553.8,322.9 L554.6,317.6 L555.5,322.7 L556.3,322.9 L557.1,322.7 L558.0,322.4 L558.8,322.9 L559.7,322.4 L560.5,322.1 L561.3,322.1 L562.2,322.4 L563.0,322.1 L563.9,322.4 L564.7,323.2 L565.6,280.0 L566.4,322.7 L567.2,322.7 L568.1,323.2 L568.9,323.5 L569.8,324.3 L570.6,353.5 L571.4,363.1 L572.3,363.1 L573.1,363.7 L574.0,363.7 L574.8,363.1 L575.7,363.4 L576.5,362.1 L577.3,362.6 L578.2,362.1 L579.0,362.6 L579.9,367.7 L580.7,362.3 L581.5,362.6 L582.4,362.1 L583.2,361.8 L584.1,288.1 L584.9,274.1 L585.8,311.1 L586.6,344.1 L587.4,354.0 L588.3,362.1 L589.1,359.4 L590.0,358.6 L590.8,362.1 L591.6,359.7 L592.5,362.1 L593.3,329.6 L594.2,303.3 L595.0,258.3 L595.8,255.1 L596.7,245.2 L597.5,264.7 L598.4,265.5 L599.2,264.7 L600.1,268.7 L600.9,270.9 L601.7,273.3 L602.6,268.2 L603.4,268.7 L604.3,256.7 L605.1,246.5 L605.9,271.7 L606.8,284.6 L607.6,285.6 L608.5,302.3 L609.3,311.1 L610.2,322.1 L611.0,330.2 L611.8,328.6 L612.7,328.3 L613.5,330.4 L614.4,268.5 L615.2,248.6 L616.0,265.3 L616.9,270.6 L617.7,325.9 L618.6,324.8 L619.4,346.0 L620.3,289.7 L621.1,279.2 L621.9,263.4 L622.8,255.3 L623.6,247.8 L624.5,248.4 L625.3,246.0 L626.1,248.4 L627.0,249.7 L627.8,248.1 L628.7,263.9 L629.5,265.5 L630.4,276.0 L631.2,316.5 L632.0,293.4 L632.9,327.2 L633.7,319.7 L634.6,272.0 L635.4,250.2 L636.2,247.6 L637.1,263.1 L637.9,257.5 L638.8,267.4 L639.6,310.9 L640.4,311.1 L641.3,321.8 L642.1,321.3 L643.0,321.6 L643.8,321.3 L644.7,308.4 L645.5,318.9 L646.3,362.1 L647.2,351.3 L648.0,361.5 L648.9,362.1 L649.7,363.1 L650.5,362.9 L651.4,360.5 L652.2,361.5 L653.1,362.1 L653.9,362.3 L654.8,359.1 L655.6,329.4 L656.4,309.0 L657.3,308.4 L658.1,348.7 L659.0,361.5 L659.8,361.5 L660.6,361.3 L661.5,360.7 L662.3,361.0 L663.2,360.7 L664.0,361.0 L664.9,361.8 L665.7,360.2 L666.5,362.3 L667.4,361.3 L668.2,362.1 L669.1,348.9 L669.9,351.6 L670.7,351.3 L671.6,330.2 L672.4,332.8 L673.3,317.3 L674.1,308.7 L675.0,308.7 L675.8,321.8 L676.6,323.5 L677.5,324.5 L678.3,323.5 L679.2,361.8 L680.0,361.8" stroke="#2ca02c" stroke-width="2" fill="none" opacity="0.8"/>
<!-- Solar Generation -->
<path d="M80.0,420.0 L80.8,418.1 L81.7,417.6 L82.5,415.7 L83.4,414.6 L84.2,411.7 L85.0,407.9 L85.9,409.0 L86.7,412.2 L87.6,412.2 L88.4,416.0 L89.3,412.5 L90.1,420.0 L90.9,420.0 L91.8,420.0 L92.6,420.0 L93.5,420.0 L94.3,420.0 L95.1,420.0 L96.0,420.0 L96.8,420.0 L97.7,420.0 L98.5,420.0 L99.4,420.0 L100.2,419.7 L101.0,414.1 L101.9,407.4 L102.7,412.0 L103.6,410.9 L104.4,406.9 L105.2,403.1 L106.1,401.8 L106.9,401.8 L107.8,401.8 L108.6,398.3 L109.5,416.2 L110.3,420.0 L111.1,420.0 L112.0,420.0 L112.8,420.0 L113.7,420.0 L114.5,420.0 L115.3,420.0 L116.2,420.0 L117.0,420.0 L117.9,420.0 L118.7,420.0 L119.6,420.0 L120.4,419.5 L121.2,415.2 L122.1,407.9 L122.9,405.3 L123.8,390.8 L124.6,396.9 L125.4,395.9 L126.3,402.3 L127.1,410.9 L128.0,413.8 L128.8,412.2 L129.6,416.5 L130.5,420.0 L131.3,420.0 L132.2,420.0 L133.0,420.0 L133.9,420.0 L134.7,420.0 L135.5,420.0 L136.4,420.0 L137.2,420.0 L138.1,420.0 L138.9,420.0 L139.7,420.0 L140.6,419.7 L141.4,415.2 L142.3,412.0 L143.1,398.0 L144.0,407.1 L144.8,405.5 L145.6,411.2 L146.5,409.3 L147.3,408.7 L148.2,415.7 L149.0,416.5 L149.8,417.1 L150.7,420.0 L151.5,420.0 L152.4,420.0 L153.2,420.0 L154.1,420.0 L154.9,420.0 L155.7,420.0 L156.6,420.0 L157.4,420.0 L158.3,420.0 L159.1,420.0 L159.9,420.0 L160.8,419.7 L161.6,413.6 L162.5,413.6 L163.3,392.6 L164.2,393.5 L165.0,389.2 L165.8,391.6 L166.7,392.9 L167.5,392.9 L168.4,396.4 L169.2,409.5 L170.0,415.4 L170.9,420.0 L171.7,420.0 L172.6,420.0 L173.4,420.0 L174.2,420.0 L175.1,420.0 L175.9,420.0 L176.8,420.0 L177.6,420.0 L178.5,420.0 L179.3,420.0 L180.1,420.0 L181.0,418.4 L181.8,405.8 L182.7,413.8 L183.5,403.6 L184.3,384.1 L185.2,387.0 L186.0,391.3 L186.9,393.5 L187.7,394.3 L188.6,394.5 L189.4,415.2 L190.2,412.5 L191.1,420.0 L191.9,420.0 L192.8,420.0 L193.6,420.0 L194.4,420.0 L195.3,420.0 L196.1,420.0 L197.0,420.0 L197.8,420.0 L198.7,420.0 L199.5,420.0 L200.3,420.0 L201.2,418.4 L202.0,400.7 L202.9,403.6 L203.7,385.9 L204.5,385.4 L205.4,384.6 L206.2,386.5 L207.1,395.1 L207.9,389.4 L208.8,390.5 L209.6,396.1 L210.4,415.4 L211.3,420.0 L212.1,420.0 L213.0,420.0 L213.8,420.0 L214.6,420.0 L215.5,420.0 L216.3,420.0 L217.2,420.0 L218.0,420.0 L218.8,420.0 L219.7,420.0 L220.5,420.0 L221.4,418.1 L222.2,413.6 L223.1,402.6 L223.9,398.5 L224.7,409.8 L225.6,390.5 L226.4,399.6 L227.3,396.7 L228.1,407.7 L228.9,406.1 L229.8,396.1 L230.6,416.5 L231.5,420.0 L232.3,420.0 L233.2,420.0 L234.0,420.0 L234.8,420.0 L235.7,420.0 L236.5,420.0 L237.4,420.0 L238.2,420.0 L239.0,420.0 L239.9,420.0 L240.7,420.0 L241.6,418.7 L242.4,397.7 L243.3,381.7 L244.1,381.1 L244.9,381.7 L245.8,382.5 L246.6,382.5 L247.5,381.9 L248.3,381.4 L249.1,384.9 L250.0,399.6 L250.8,416.0 L251.7,420.0 L252.5,420.0 L253.4,420.0 L254.2,420.0 L255.0,420.0 L255.9,420.0 L256.7,420.0 L257.6,420.0 L258.4,420.0 L259.2,420.0 L260.1,420.0 L260.9,420.0 L261.8,418.7 L262.6,402.6 L263.5,384.3 L264.3,384.9 L265.1,385.9 L266.0,394.3 L266.8,387.0 L267.7,396.4 L268.5,396.4 L269.3,404.2 L270.2,400.4 L271.0,414.9 L271.9,420.0 L272.7,420.0 L273.5,420.0 L274.4,420.0 L275.2,420.0 L276.1,420.0 L276.9,420.0 L277.8,420.0 L278.6,420.0 L279.4,420.0 L280.3,420.0 L281.1,420.0 L282.0,419.7 L282.8,417.9 L283.6,412.5 L284.5,389.2 L285.3,384.6 L286.2,402.3 L287.0,392.9 L287.9,401.5 L288.7,403.4 L289.5,413.0 L290.4,413.6 L291.2,416.8 L292.1,420.0 L292.9,420.0 L293.7,420.0 L294.6,420.0 L295.4,420.0 L296.3,420.0 L297.1,420.0 L298.0,420.0 L298.8,420.0 L299.6,420.0 L300.5,420.0 L301.3,420.0 L302.2,419.5 L303.0,406.3 L303.8,414.1 L304.7,414.1 L305.5,411.7 L306.4,409.0 L307.2,411.4 L308.1,412.0 L308.9,403.4 L309.7,414.6 L310.6,417.1 L311.4,417.1 L312.3,420.0 L313.1,420.0 L313.9,420.0 L314.8,420.0 L315.6,420.0 L316.5,420.0 L317.3,420.0 L318.1,420.0 L319.0,420.0 L319.8,420.0 L320.7,420.0 L321.5,420.0 L322.4,418.9 L323.2,415.2 L324.0,408.7 L324.9,409.8 L325.7,405.0 L326.6,406.9 L327.4,405.8 L328.2,404.4 L329.1,408.2 L329.9,402.3 L330.8,400.7 L331.6,406.1 L332.5,419.7 L333.3,420.0 L334.1,420.0 L335.0,420.0 L335.8,420.0 L336.7,420.0 L337.5,420.0 L338.3,420.0 L339.2,420.0 L340.0,420.0 L340.9,420.0 L341.7,420.0 L342.6,415.2 L343.4,391.3 L344.2,381.7 L345.1,401.8 L345.9,381.1 L346.8,402.0 L347.6,381.9 L348.4,401.8 L349.3,401.8 L350.1,402.0 L351.0,404.7 L351.8,406.6 L352.7,420.0 L353.5,420.0 L354.3,420.0 L355.2,420.0 L356.0,420.0 L356.9,420.0 L357.7,420.0 L358.5,420.0 L359.4,420.0 L360.2,420.0 L361.1,420.0 L361.9,420.0 L362.7,418.1 L363.6,415.7 L364.4,414.4 L365.3,412.5 L366.1,406.1 L367.0,402.3 L367.8,407.1 L368.6,402.3 L369.5,409.0 L370.3,412.0 L371.2,415.7 L372.0,417.9 L372.8,420.0 L373.7,420.0 L374.5,420.0 L375.4,420.0 L376.2,420.0 L377.1,420.0 L377.9,420.0 L378.7,420.0 L379.6,420.0 L380.4,420.0 L381.3,420.0 L382.1,420.0 L382.9,414.9 L383.8,405.3 L384.6,402.6 L385.5,402.3 L386.3,403.4 L387.2,403.1 L388.0,403.4 L388.8,405.0 L389.7,402.3 L390.5,402.8 L391.4,416.8 L392.2,418.1 L393.0,420.0 L393.9,420.0 L394.7,420.0 L395.6,420.0 L396.4,420.0 L397.3,420.0 L398.1,420.0 L398.9,420.0 L399.8,420.0 L400.6,420.0 L401.5,420.0 L402.3,420.0 L403.1,418.1 L404.0,399.4 L404.8,409.5 L405.7,391.0 L406.5,387.3 L407.3,389.7 L408.2,382.5 L409.0,402.6 L409.9,401.5 L410.7,410.9 L411.6,414.9 L412.4,418.7 L413.2,420.0 L414.1,420.0 L414.9,420.0 L415.8,420.0 L416.6,420.0 L417.4,420.0 L418.3,420.0 L419.1,420.0 L420.0,420.0 L420.8,420.0 L421.7,420.0 L422.5,420.0 L423.3,419.5 L424.2,416.2 L425.0,413.6 L425.9,407.1 L426.7,399.6 L427.5,403.6 L428.4,391.6 L429.2,404.4 L430.1,403.4 L430.9,414.4 L431.8,416.5 L432.6,416.5 L433.4,420.0 L434.3,420.0 L435.1,420.0 L436.0,420.0 L436.8,420.0 L437.6,420.0 L438.5,420.0 L439.3,420.0 L440.2,420.0 L441.0,420.0 L441.9,420.0 L442.7,420.0 L443.5,419.5 L444.4,414.4 L445.2,404.2 L446.1,389.4 L446.9,395.3 L447.7,387.3 L448.6,389.2 L449.4,400.2 L450.3,398.8 L451.1,406.3 L451.9,407.7 L452.8,415.4 L453.6,420.0 L454.5,420.0 L455.3,420.0 L456.2,420.0 L457.0,420.0 L457.8,420.0 L458.7,420.0 L459.5,420.0 L460.4,420.0 L461.2,420.0 L462.0,420.0 L462.9,420.0 L463.7,418.7 L464.6,405.0 L465.4,415.2 L466.3,415.2 L467.1,413.0 L467.9,414.1 L468.8,403.9 L469.6,403.4 L470.5,416.2 L471.3,417.3 L472.1,418.1 L473.0,418.4 L473.8,420.0 L474.7,420.0 L475.5,420.0 L476.4,420.0 L477.2,420.0 L478.0,420.0 L478.9,420.0 L479.7,420.0 L480.6,420.0 L481.4,420.0 L482.2,420.0 L483.1,420.0 L483.9,419.5 L484.8,418.1 L485.6,417.9 L486.5,416.5 L487.3,413.0 L488.1,412.8 L489.0,412.0 L489.8,412.2 L490.7,411.4 L491.5,414.1 L492.3,415.2 L493.2,408.5 L494.0,419.5 L494.9,420.0 L495.7,420.0 L496.5,420.0 L497.4,420.0 L498.2,420.0 L499.1,420.0 L499.9,420.0 L500.8,420.0 L501.6,420.0 L502.4,420.0 L503.3,420.0 L504.1,410.6 L505.0,403.4 L505.8,402.0 L506.6,402.3 L507.5,401.5 L508.3,403.4 L509.2,405.8 L510.0,402.8 L510.9,401.8 L511.7,410.6 L512.5,383.5 L513.4,406.3 L514.2,419.5 L515.1,420.0 L515.9,420.0 L516.7,420.0 L517.6,420.0 L518.4,420.0 L519.3,420.0 L520.1,420.0 L521.0,420.0 L521.8,420.0 L522.6,420.0 L523.5,420.0 L524.3,409.5 L525.2,387.3 L526.0,397.7 L526.8,401.8 L527.7,401.5 L528.5,401.8 L529.4,401.2 L530.2,401.8 L531.1,401.8 L531.9,384.1 L532.7,405.0 L533.6,410.1 L534.4,419.7 L535.3,420.0 L536.1,420.0 L536.9,420.0 L537.8,420.0 L538.6,420.0 L539.5,420.0 L540.3,420.0 L541.2,420.0 L542.0,420.0 L542.8,420.0 L543.7,420.0 L544.5,415.4 L545.4,397.5 L546.2,385.1 L547.0,396.7 L547.9,387.3 L548.7,387.8 L549.6,389.7 L550.4,388.4 L551.2,403.9 L552.1,399.1 L552.9,412.8 L553.8,402.8 L554.6,419.2 L555.5,420.0 L556.3,420.0 L557.1,420.0 L558.0,420.0 L558.8,420.0 L559.7,420.0 L560.5,420.0 L561.3,420.0 L562.2,420.0 L563.0,420.0 L563.9,420.0 L564.7,410.3 L565.6,403.9 L566.4,402.6 L567.2,402.3 L568.1,403.9 L568.9,404.4 L569.8,406.9 L570.6,410.9 L571.4,411.4 L572.3,415.7 L573.1,413.3 L574.0,408.7 L574.8,419.5 L575.7,420.0 L576.5,420.0 L577.3,420.0 L578.2,420.0 L579.0,420.0 L579.9,420.0 L580.7,420.0 L581.5,420.0 L582.4,420.0 L583.2,420.0 L584.1,420.0 L584.9,408.2 L585.8,384.9 L586.6,381.7 L587.4,381.4 L588.3,380.8 L589.1,381.1 L590.0,385.9 L590.8,405.0 L591.6,402.0 L592.5,402.3 L593.3,392.9 L594.2,409.5 L595.0,418.4 L595.8,420.0 L596.7,420.0 L597.5,420.0 L598.4,420.0 L599.2,420.0 L600.1,420.0 L600.9,420.0 L601.7,420.0 L602.6,420.0 L603.4,420.0 L604.3,420.0 L605.1,407.1 L605.9,385.1 L606.8,381.7 L607.6,381.4 L608.5,380.8 L609.3,380.8 L610.2,380.8 L611.0,380.8 L611.8,381.1 L612.7,381.7 L613.5,382.5 L614.4,400.7 L615.2,419.2 L616.0,420.0 L616.9,420.0 L617.7,420.0 L618.6,420.0 L619.4,420.0 L620.3,420.0 L621.1,420.0 L621.9,420.0 L622.8,420.0 L623.6,420.0 L624.5,420.0 L625.3,409.8 L626.1,386.5 L627.0,382.2 L627.8,381.7 L628.7,381.9 L629.5,384.9 L630.4,393.2 L631.2,384.9 L632.0,386.5 L632.9,395.6 L633.7,410.3 L634.6,413.0 L635.4,419.7 L636.2,420.0 L637.1,420.0 L637.9,420.0 L638.8,420.0 L639.6,420.0 L640.4,420.0 L641.3,420.0 L642.1,420.0 L643.0,420.0 L643.8,420.0 L644.7,420.0 L645.5,415.4 L646.3,409.0 L647.2,407.9 L648.0,403.6 L648.9,402.8 L649.7,405.8 L650.5,403.1 L651.4,405.5 L652.2,409.0 L653.1,405.5 L653.9,417.3 L654.8,419.5 L655.6,418.9 L656.4,420.0 L657.3,420.0 L658.1,420.0 L659.0,420.0 L659.8,420.0 L660.6,420.0 L661.5,420.0 L662.3,420.0 L663.2,420.0 L664.0,420.0 L664.9,420.0 L665.7,405.8 L666.5,392.1 L667.4,399.1 L668.2,397.7 L669.1,394.5 L669.9,391.0 L670.7,398.8 L671.6,404.7 L672.4,407.9 L673.3,415.7 L674.1,406.1 L675.0,416.8 L675.8,418.9 L676.6,420.0 L677.5,420.0 L678.3,420.0 L679.2,420.0 L680.0,420.0" stroke="#d62728" stroke-width="2" fill="none" opacity="0.8"/>
<!-- Forecast -->
<path d="M80.0,239.5 L80.8,217.5 L81.7,207.3 L82.5,203.0 L83.4,206.5 L84.2,208.7 L85.0,215.4 L85.9,217.3 L86.7,214.3 L87.6,210.6 L88.4,206.8 L89.3,202.5 L90.1,196.9 L90.9,199.3 L91.8,206.5 L92.6,216.5 L93.5,235.0 L94.3,240.9 L95.1,239.8 L96.0,241.4 L96.8,243.5 L97.7,241.9 L98.5,238.7 L99.4,232.8 L100.2,218.9 L101.0,210.0 L101.9,202.0 L102.7,193.4 L103.6,188.6 L104.4,191.2 L105.2,197.1 L106.1,198.8 L106.9,200.6 L107.8,199.6 L108.6,194.2 L109.5,191.8 L110.3,189.9 L111.1,190.4 L112.0,198.5 L112.8,213.5 L113.7,249.4 L114.5,252.4 L115.3,254.3 L116.2,259.9 L117.0,262.3 L117.9,261.8 L118.7,252.1 L119.6,228.3 L120.4,200.4 L121.2,184.0 L122.1,180.3 L122.9,182.4 L123.8,185.6 L124.6,189.9 L125.4,194.5 L126.3,198.5 L127.1,199.8 L128.0,200.4 L128.8,200.9 L129.6,204.7 L130.5,205.7 L131.3,206.3 L132.2,212.7 L133.0,232.3 L133.9,256.4 L134.7,269.0 L135.5,277.1 L136.4,282.4 L137.2,285.4 L138.1,284.3 L138.9,274.9 L139.7,251.9 L140.6,222.9 L141.4,202.0 L142.3,197.4 L143.1,195.8 L144.0,198.5 L144.8,200.6 L145.6,203.0 L146.5,204.9 L147.3,206.0 L148.2,206.3 L149.0,205.7 L149.8,210.0 L150.7,214.3 L151.5,215.7 L152.4,220.2 L153.2,236.3 L154.1,257.8 L154.9,272.5 L155.7,279.5 L156.6,285.1 L157.4,287.0 L158.3,285.6 L159.1,275.2 L159.9,252.4 L160.8,224.2 L161.6,203.9 L162.5,199.6 L163.3,198.0 L164.2,200.4 L165.0,202.0 L165.8,203.9 L166.7,205.5 L167.5,205.5 L168.4,206.3 L169.2,206.0 L170.0,210.0 L170.9,214.8 L171.7,216.5 L172.6,221.8 L173.4,237.6 L174.2,258.0 L175.1,272.2 L175.9,279.5 L176.8,285.1 L177.6,287.0 L178.5,285.6 L179.3,275.2 L180.1,252.7 L181.0,224.5 L181.8,204.1 L182.7,199.6 L183.5,198.0 L184.3,200.4 L185.2,202.0 L186.0,203.9 L186.9,205.5 L187.7,205.5 L188.6,206.3 L189.4,206.0 L190.2,209.8 L191.1,214.8 L191.9,216.5 L192.8,221.6 L193.6,237.4 L194.4,257.0 L195.3,272.2 L196.1,280.3 L197.0,285.9 L197.8,287.8 L198.7,286.2 L199.5,276.8 L200.3,255.6 L201.2,230.1 L202.0,211.6 L202.9,206.3 L203.7,201.7 L204.5,201.2 L205.4,200.6 L206.2,201.2 L207.1,201.7 L207.9,199.6 L208.8,199.6 L209.6,199.8 L210.4,206.8 L211.3,212.2 L212.1,215.7 L213.0,218.3 L213.8,234.4 L214.6,256.4 L215.5,269.3 L216.3,279.5 L217.2,285.9 L218.0,287.8 L218.8,286.2 L219.7,276.5 L220.5,255.6 L221.4,229.9 L222.2,211.4 L223.1,206.3 L223.9,201.7 L224.7,201.2 L225.6,200.6 L226.4,201.2 L227.3,201.7 L228.1,199.6 L228.9,199.6 L229.8,199.8 L230.6,207.1 L231.5,212.2 L232.3,215.7 L233.2,218.3 L234.0,234.4 L234.8,252.9 L235.7,268.2 L236.5,269.3 L237.4,271.4 L238.2,273.0 L239.0,272.5 L239.9,268.5 L240.7,261.5 L241.6,250.0 L242.4,233.9 L243.3,219.4 L244.1,215.4 L244.9,217.5 L245.8,220.5 L246.6,222.6 L247.5,227.2 L248.3,228.8 L249.1,227.2 L250.0,221.3 L250.8,221.0 L251.7,216.2 L252.5,211.9 L253.4,215.9 L254.2,233.6 L255.0,255.1 L255.9,264.2 L256.7,269.8 L257.6,272.8 L258.4,274.6 L259.2,272.8 L260.1,259.9 L260.9,236.6 L261.8,209.8 L262.6,192.6 L263.5,189.4 L264.3,190.7 L265.1,195.3 L266.0,199.0 L266.8,202.0 L267.7,204.7 L268.5,205.7 L269.3,206.5 L270.2,206.8 L271.0,210.3 L271.9,212.7 L272.7,212.2 L273.5,217.3 L274.4,234.2 L275.2,258.3 L276.1,269.8 L276.9,274.6 L277.8,277.6 L278.6,279.2 L279.4,277.1 L280.3,265.5 L281.1,239.8 L282.0,213.0 L282.8,195.3 L283.6,192.6 L284.5,193.1 L285.3,197.7 L286.2,200.6 L287.0,203.9 L287.9,206.3 L288.7,207.3 L289.5,207.6 L290.4,207.1 L291.2,211.4 L292.1,215.7 L292.9,217.0 L293.7,221.6 L294.6,237.9 L295.4,381.1 L296.3,273.8 L297.1,280.8 L298.0,286.7 L298.8,288.6 L299.6,287.3 L300.5,277.3 L301.3,254.5 L302.2,227.5 L303.0,208.1 L303.8,202.2 L304.7,199.6 L305.5,200.9 L306.4,202.0 L307.2,203.6 L308.1,205.5 L308.9,206.3 L309.7,206.5 L310.6,206.3 L311.4,210.3 L312.3,213.5 L313.1,213.0 L313.9,217.5 L314.8,233.9 L315.6,244.6 L316.5,263.7 L317.3,273.0 L318.1,276.3 L319.0,277.1 L319.8,274.1 L320.7,261.8 L321.5,236.6 L322.4,206.8 L323.2,189.6 L324.0,185.1 L324.9,186.4 L325.7,188.8 L326.6,192.6 L327.4,196.6 L328.2,199.8 L329.1,200.4 L329.9,200.4 L330.8,200.9 L331.6,203.6 L332.5,202.5 L333.3,198.8 L334.1,206.8 L335.0,223.7 L335.8,249.2 L336.7,257.0 L337.5,258.8 L338.3,262.6 L339.2,263.1 L340.0,261.0 L340.9,249.4 L341.7,225.8 L342.6,199.6 L343.4,185.6 L344.2,184.0 L345.1,187.5 L345.9,192.3 L346.8,197.7 L347.6,202.0 L348.4,205.2 L349.3,206.5 L350.1,207.6 L351.0,208.1 L351.8,211.4 L352.7,212.2 L353.5,210.6 L354.3,214.3 L355.2,232.0 L356.0,257.2 L356.9,262.3 L357.7,266.9 L358.5,270.1 L359.4,272.0 L360.2,272.0 L361.1,266.6 L361.9,259.4 L362.7,245.7 L363.6,226.4 L364.4,219.4 L365.3,220.5 L366.1,225.6 L367.0,228.0 L367.8,233.9 L368.6,239.5 L369.5,241.1 L370.3,237.9 L371.2,235.2 L372.0,234.7 L372.8,234.7 L373.7,233.4 L374.5,233.6 L375.4,244.1 L376.2,261.8 L377.1,271.4 L377.9,277.3 L378.7,281.6 L379.6,282.4 L380.4,281.4 L381.3,276.8 L382.1,268.5 L382.9,257.5 L383.8,240.9 L384.6,230.4 L385.5,228.8 L386.3,226.9 L387.2,228.3 L388.0,232.0 L388.8,235.0 L389.7,235.0 L390.5,234.4 L391.4,232.3 L392.2,228.3 L393.0,227.7 L393.9,228.3 L394.7,229.6 L395.6,241.4 L396.4,257.2 L397.3,270.4 L398.1,277.6 L398.9,281.6 L399.8,283.0 L400.6,281.1 L401.5,270.1 L402.3,245.4 L403.1,217.5 L404.0,200.1 L404.8,197.1 L405.7,197.4 L406.5,200.6 L407.3,202.8 L408.2,204.9 L409.0,206.8 L409.9,207.6 L410.7,207.9 L411.6,207.6 L412.4,211.6 L413.2,214.0 L414.1,214.0 L414.9,218.6 L415.8,235.2 L416.6,248.6 L417.4,267.4 L418.3,266.6 L419.1,267.4 L420.0,267.4 L420.8,264.5 L421.7,253.2 L422.5,228.3 L423.3,199.6 L424.2,184.5 L425.0,181.9 L425.9,184.5 L426.7,187.5 L427.5,192.1 L428.4,196.3 L429.2,200.4 L430.1,201.7 L430.9,201.4 L431.8,202.8 L432.6,205.7 L433.4,205.2 L434.3,202.2 L435.1,209.5 L436.0,226.9 L436.8,252.9 L437.6,261.2 L438.5,266.3 L439.3,270.4 L440.2,271.4 L441.0,269.0 L441.9,257.5 L442.7,233.4 L443.5,206.3 L444.4,190.4 L445.2,187.5 L446.1,189.6 L446.9,193.7 L447.7,198.0 L448.6,202.0 L449.4,204.9 L450.3,206.0 L451.1,206.8 L451.9,207.3 L452.8,211.4 L453.6,213.2 L454.5,212.4 L455.3,216.2 L456.2,233.9 L457.0,248.4 L457.8,266.1 L458.7,274.9 L459.5,278.1 L460.4,280.0 L461.2,277.9 L462.0,266.1 L462.9,241.1 L463.7,212.2 L464.6,193.7 L465.4,188.8 L466.3,189.1 L467.1,191.2 L467.9,194.2 L468.8,197.1 L469.6,199.6 L470.5,199.8 L471.3,198.2 L472.1,198.5 L473.0,202.2 L473.8,203.6 L474.7,201.4 L475.5,208.4 L476.4,226.1 L477.2,229.1 L478.0,254.8 L478.9,261.5 L479.7,265.5 L480.6,269.6 L481.4,270.4 L482.2,267.9 L483.1,257.5 L483.9,232.0 L484.8,203.0 L485.6,187.0 L486.5,182.7 L487.3,184.3 L488.1,186.2 L489.0,190.7 L489.8,194.2 L490.7,198.0 L491.5,199.3 L492.3,198.8 L493.2,200.1 L494.0,203.6 L494.9,204.1 L495.7,200.4 L496.5,207.6 L497.4,232.5 L498.2,246.2 L499.1,253.5 L499.9,258.0 L500.8,262.0 L501.6,264.5 L502.4,262.6 L503.3,257.5 L504.1,248.4 L505.0,235.0 L505.8,219.1 L506.6,210.3 L507.5,211.1 L508.3,216.7 L509.2,220.2 L510.0,223.7 L510.9,226.9 L511.7,230.1 L512.5,230.9 L513.4,230.4 L514.2,228.8 L515.1,227.7 L515.9,222.9 L516.7,224.0 L517.6,254.3 L518.4,256.1 L519.3,266.6 L520.1,273.0 L521.0,274.6 L521.8,274.1 L522.6,269.8 L523.5,263.1 L524.3,253.2 L525.2,237.9 L526.0,224.8 L526.8,225.3 L527.7,225.6 L528.5,227.5 L529.4,230.9 L530.2,234.2 L531.1,235.2 L531.9,236.6 L532.7,233.9 L533.6,229.6 L534.4,228.5 L535.3,225.6 L536.1,225.6 L536.9,239.5 L537.8,256.7 L538.6,268.2 L539.5,274.4 L540.3,277.3 L541.2,279.2 L542.0,276.5 L542.8,263.7 L543.7,239.8 L544.5,212.2 L545.4,195.3 L546.2,192.1 L547.0,193.4 L547.9,197.7 L548.7,201.2 L549.6,204.4 L550.4,206.8 L551.2,208.1 L552.1,208.7 L552.9,208.4 L553.8,212.7 L554.6,217.8 L555.5,217.0 L556.3,220.7 L557.1,236.6 L558.0,256.7 L558.8,269.6 L559.7,277.3 L560.5,281.4 L561.3,283.5 L562.2,281.1 L563.0,269.0 L563.9,247.6 L564.7,220.7 L565.6,204.7 L566.4,202.2 L567.2,201.7 L568.1,203.6 L568.9,204.4 L569.8,205.7 L570.6,207.6 L571.4,208.7 L572.3,208.9 L573.1,208.1 L574.0,212.4 L574.8,218.1 L575.7,218.1 L576.5,221.6 L577.3,237.4 L578.2,251.6 L579.0,268.5 L579.9,272.5 L580.7,273.8 L581.5,274.4 L582.4,271.2 L583.2,258.6 L584.1,234.7 L584.9,207.9 L585.8,191.8 L586.6,188.3 L587.4,189.9 L588.3,193.9 L589.1,198.2 L590.0,201.7 L590.8,204.7 L591.6,206.0 L592.5,206.5 L593.3,207.3 L594.2,210.6 L595.0,212.2 L595.8,210.0 L596.7,213.0 L597.5,230.7 L598.4,251.9 L599.2,263.1 L600.1,271.2 L600.9,274.4 L601.7,276.3 L602.6,273.3 L603.4,260.4 L604.3,235.8 L605.1,209.8 L605.9,193.7 L606.8,190.4 L607.6,191.8 L608.5,195.8 L609.3,199.6 L610.2,203.0 L611.0,205.7 L611.8,206.8 L612.7,207.6 L613.5,207.9 L614.4,211.9 L615.2,214.8 L616.0,213.2 L616.9,216.5 L617.7,233.4 L618.6,258.6 L619.4,266.6 L620.3,271.4 L621.1,273.8 L621.9,274.9 L622.8,271.4 L623.6,258.6 L624.5,236.0 L625.3,210.8 L626.1,195.3 L627.0,193.4 L627.8,195.0 L628.7,199.8 L629.5,202.8 L630.4,206.0 L631.2,208.1 L632.0,209.2 L632.9,208.9 L633.7,207.3 L634.6,211.6 L635.4,218.3 L636.2,220.5 L637.1,223.2 L637.9,238.7 L638.8,261.0 L639.6,273.3 L640.4,281.1 L641.3,285.9 L642.1,288.3 L643.0,287.8 L643.8,285.1 L644.7,277.1 L645.5,263.9 L646.3,248.4 L647.2,237.1 L648.0,231.7 L648.9,232.3 L649.7,231.5 L650.5,234.7 L651.4,239.0 L652.2,240.3 L653.1,238.7 L653.9,235.8 L654.8,236.0 L655.6,238.4 L656.4,236.8 L657.3,235.5 L658.1,245.7 L659.0,261.2 L659.8,273.8 L660.6,280.8 L661.5,285.9 L662.3,287.5 L663.2,286.4 L664.0,282.4 L664.9,274.1 L665.7,263.4 L666.5,246.8 L667.4,236.0 L668.2,233.6 L669.1,228.8 L669.9,228.5 L670.7,231.7 L671.6,233.9 L672.4,233.9 L673.3,232.5 L674.1,225.8 L675.0,225.0 L675.8,226.1 L676.6,225.0 L677.5,226.6 L678.3,240.1 L679.2,253.5 L680.0,256.4" stroke="#9467bd" stroke-width="2" fill="none" opacity="0.8"/>
<!-- Total Generation -->
<path d="M80.0,219.7 L80.8,216.7 L81.7,247.3 L82.5,236.6 L83.4,225.0 L84.2,232.3 L85.0,232.3 L85.9,227.5 L86.7,228.5 L87.6,228.5 L88.4,232.0 L89.3,190.2 L90.1,192.3 L90.9,210.8 L91.8,221.0 L92.6,207.3 L93.5,203.9 L94.3,213.8 L95.1,210.8 L96.0,214.3 L96.8,232.0 L97.7,237.1 L98.5,218.6 L99.4,220.5 L100.2,210.3 L101.0,223.2 L101.9,224.8 L102.7,230.7 L103.6,238.2 L104.4,242.5 L105.2,231.7 L106.1,248.9 L106.9,251.9 L107.8,254.0 L108.6,250.0 L109.5,190.2 L110.3,170.3 L111.1,165.8 L112.0,169.0 L112.8,168.2 L113.7,152.1 L114.5,153.4 L115.3,152.6 L116.2,151.3 L117.0,163.9 L117.9,145.7 L118.7,117.8 L119.6,117.5 L120.4,88.3 L121.2,86.1 L122.1,81.0 L122.9,107.8 L123.8,100.6 L124.6,136.0 L125.4,155.3 L126.3,162.0 L127.1,163.9 L128.0,182.4 L128.8,153.4 L129.6,111.6 L130.5,67.6 L131.3,97.7 L132.2,132.2 L133.0,161.7 L133.9,221.8 L134.7,246.0 L135.5,231.7 L136.4,238.4 L137.2,237.1 L138.1,209.8 L138.9,215.9 L139.7,206.8 L140.6,198.2 L141.4,158.8 L142.3,189.6 L143.1,174.1 L144.0,240.6 L144.8,230.9 L145.6,225.6 L146.5,237.1 L147.3,250.5 L148.2,229.1 L149.0,176.5 L149.8,148.3 L150.7,108.4 L151.5,120.4 L152.4,104.6 L153.2,129.6 L154.1,137.9 L154.9,182.4 L155.7,178.1 L156.6,185.6 L157.4,204.9 L158.3,202.8 L159.1,216.2 L159.9,150.5 L160.8,120.4 L161.6,165.5 L162.5,189.6 L163.3,168.2 L164.2,162.3 L165.0,135.7 L165.8,149.4 L166.7,150.5 L167.5,157.7 L168.4,161.2 L169.2,189.4 L170.0,126.6 L170.9,143.8 L171.7,147.3 L172.6,173.0 L173.4,198.5 L174.2,193.7 L175.1,217.8 L175.9,202.8 L176.8,202.5 L177.6,196.3 L178.5,194.7 L179.3,214.6 L180.1,205.2 L181.0,193.9 L181.8,180.5 L182.7,221.8 L183.5,195.3 L184.3,181.1 L185.2,173.3 L186.0,167.4 L186.9,170.3 L187.7,166.3 L188.6,174.9 L189.4,192.3 L190.2,192.9 L191.1,174.9 L191.9,215.4 L192.8,220.2 L193.6,212.7 L194.4,221.8 L195.3,204.1 L196.1,192.6 L197.0,197.4 L197.8,205.5 L198.7,220.2 L199.5,240.9 L200.3,213.5 L201.2,191.8 L202.0,176.0 L202.9,204.9 L203.7,158.0 L204.5,160.1 L205.4,151.3 L206.2,159.9 L207.1,168.2 L207.9,160.7 L208.8,155.8 L209.6,161.7 L210.4,175.4 L211.3,153.4 L212.1,221.8 L213.0,217.5 L213.8,208.7 L214.6,220.2 L215.5,213.2 L216.3,211.1 L217.2,223.7 L218.0,231.7 L218.8,250.5 L219.7,265.8 L220.5,241.1 L221.4,238.4 L222.2,223.4 L223.1,241.4 L223.9,235.0 L224.7,251.3 L225.6,226.9 L226.4,202.0 L227.3,206.3 L228.1,195.3 L228.9,207.9 L229.8,204.7 L230.6,229.3 L231.5,230.4 L232.3,237.9 L233.2,243.8 L234.0,246.8 L234.8,263.4 L235.7,277.6 L236.5,279.5 L237.4,277.9 L238.2,272.2 L239.0,263.7 L239.9,259.6 L240.7,217.0 L241.6,203.6 L242.4,213.2 L243.3,197.4 L244.1,174.4 L244.9,161.5 L245.8,166.6 L246.6,156.1 L247.5,169.3 L248.3,173.8 L249.1,177.3 L250.0,193.1 L250.8,188.8 L251.7,145.1 L252.5,167.1 L253.4,165.2 L254.2,194.2 L255.0,218.9 L255.9,213.8 L256.7,241.7 L257.6,250.0 L258.4,211.1 L259.2,222.4 L260.1,203.3 L260.9,151.6 L261.8,156.9 L262.6,179.4 L263.5,173.3 L264.3,193.9 L265.1,214.3 L266.0,220.7 L266.8,227.2 L267.7,235.0 L268.5,229.1 L269.3,258.8 L270.2,248.4 L271.0,188.6 L271.9,136.5 L272.7,126.3 L273.5,162.3 L274.4,201.2 L275.2,182.1 L276.1,236.6 L276.9,273.3 L277.8,271.2 L278.6,264.2 L279.4,259.6 L280.3,249.2 L281.1,210.6 L282.0,166.0 L282.8,170.1 L283.6,200.1 L284.5,189.9 L285.3,203.9 L286.2,184.0 L287.0,186.2 L287.9,175.4 L288.7,185.9 L289.5,181.6 L290.4,185.6 L291.2,178.9 L292.1,187.2 L292.9,208.1 L293.7,229.9 L294.6,217.5 L295.4,195.3 L296.3,201.7 L297.1,183.5 L298.0,210.6 L298.8,213.5 L299.6,231.7 L300.5,203.9 L301.3,165.0 L302.2,168.7 L303.0,189.9 L303.8,210.8 L304.7,205.7 L305.5,219.7 L306.4,216.5 L307.2,217.3 L308.1,216.2 L308.9,207.1 L309.7,210.6 L310.6,233.4 L311.4,208.4 L312.3,181.3 L313.1,170.3 L313.9,187.2 L314.8,211.9 L315.6,217.3 L316.5,223.7 L317.3,250.8 L318.1,263.7 L319.0,278.1 L319.8,271.7 L320.7,239.5 L321.5,178.1 L322.4,158.8 L323.2,159.9 L324.0,160.7 L324.9,194.7 L325.7,190.7 L326.6,197.1 L327.4,207.9 L328.2,213.5 L329.1,216.5 L329.9,186.2 L330.8,192.6 L331.6,202.0 L332.5,182.1 L333.3,211.9 L334.1,175.4 L335.0,188.6 L335.8,175.7 L336.7,192.1 L337.5,239.0 L338.3,186.4 L339.2,190.7 L340.0,189.1 L340.9,187.8 L341.7,163.4 L342.6,155.0 L343.4,165.5 L344.2,172.7 L345.1,212.7 L345.9,196.9 L346.8,243.0 L347.6,227.2 L348.4,243.8 L349.3,240.6 L350.1,229.3 L351.0,227.5 L351.8,196.9 L352.7,195.0 L353.5,200.4 L354.3,208.4 L355.2,213.0 L356.0,232.0 L356.9,260.7 L357.7,262.8 L358.5,262.3 L359.4,247.8 L360.2,239.3 L361.1,228.5 L361.9,215.7 L362.7,210.6 L363.6,269.8 L364.4,253.5 L365.3,267.9 L366.1,261.0 L367.0,249.7 L367.8,250.0 L368.6,238.2 L369.5,244.6 L370.3,247.6 L371.2,253.2 L372.0,270.9 L372.8,256.1 L373.7,229.6 L374.5,212.2 L375.4,259.9 L376.2,270.6 L377.1,270.9 L377.9,265.8 L378.7,258.3 L379.6,255.9 L380.4,254.0 L381.3,253.2 L382.1,257.0 L382.9,253.2 L383.8,239.8 L384.6,252.1 L385.5,248.1 L386.3,250.0 L387.2,248.1 L388.0,242.5 L388.8,246.5 L389.7,244.3 L390.5,243.3 L391.4,234.2 L392.2,237.1 L393.0,243.3 L393.9,237.9 L394.7,240.9 L395.6,246.0 L396.4,254.3 L397.3,260.2 L398.1,267.9 L398.9,269.0 L399.8,255.1 L400.6,232.0 L401.5,226.6 L402.3,197.7 L403.1,137.3 L404.0,162.8 L404.8,158.0 L405.7,160.1 L406.5,160.9 L407.3,139.8 L408.2,129.3 L409.0,148.1 L409.9,179.4 L410.7,191.8 L411.6,204.4 L412.4,194.5 L413.2,133.1 L414.1,115.1 L414.9,122.1 L415.8,148.9 L416.6,144.0 L417.4,119.6 L418.3,253.7 L419.1,258.6 L420.0,241.1 L420.8,184.3 L421.7,165.5 L422.5,122.6 L423.3,129.0 L424.2,112.7 L425.0,115.6 L425.9,102.2 L426.7,110.0 L427.5,112.9 L428.4,106.0 L429.2,126.3 L430.1,130.6 L430.9,144.0 L431.8,141.4 L432.6,142.4 L433.4,160.4 L434.3,152.6 L435.1,153.4 L436.0,159.3 L436.8,176.5 L437.6,192.1 L438.5,163.4 L439.3,161.7 L440.2,159.6 L441.0,160.4 L441.9,162.0 L442.7,159.9 L443.5,160.9 L444.4,178.1 L445.2,158.0 L446.1,182.9 L446.9,187.5 L447.7,172.7 L448.6,175.7 L449.4,164.4 L450.3,160.9 L451.1,188.6 L451.9,210.0 L452.8,144.9 L453.6,122.1 L454.5,121.5 L455.3,184.5 L456.2,193.4 L457.0,225.0 L457.8,265.8 L458.7,278.4 L459.5,275.5 L460.4,274.6 L461.2,272.0 L462.0,252.4 L462.9,222.4 L463.7,180.8 L464.6,194.7 L465.4,226.9 L466.3,226.9 L467.1,215.7 L467.9,219.4 L468.8,193.7 L469.6,181.9 L470.5,193.7 L471.3,209.2 L472.1,215.9 L473.0,182.9 L473.8,171.9 L474.7,179.2 L475.5,190.7 L476.4,197.4 L477.2,198.8 L478.0,202.5 L478.9,187.5 L479.7,191.2 L480.6,194.5 L481.4,194.2 L482.2,198.8 L483.1,195.8 L483.9,195.3 L484.8,214.0 L485.6,222.1 L486.5,229.1 L487.3,243.5 L488.1,254.0 L489.0,248.9 L489.8,251.3 L490.7,253.5 L491.5,258.8 L492.3,255.9 L493.2,230.9 L494.0,228.0 L494.9,202.2 L495.7,246.5 L496.5,225.6 L497.4,216.7 L498.2,224.0 L499.1,216.7 L499.9,212.4 L500.8,208.7 L501.6,203.6 L502.4,217.0 L503.3,214.0 L504.1,211.1 L505.0,224.5 L505.8,229.1 L506.6,218.6 L507.5,210.0 L508.3,231.2 L509.2,211.9 L510.0,210.6 L510.9,208.9 L511.7,225.8 L512.5,187.5 L513.4,214.8 L514.2,196.6 L515.1,172.2 L515.9,156.7 L516.7,162.0 L517.6,175.7 L518.4,188.6 L519.3,199.3 L520.1,224.2 L521.0,224.2 L521.8,234.2 L522.6,233.1 L523.5,175.2 L524.3,196.9 L525.2,210.3 L526.0,229.6 L526.8,246.8 L527.7,248.1 L528.5,248.9 L529.4,244.6 L530.2,244.1 L531.1,241.1 L531.9,215.7 L532.7,229.6 L533.6,182.9 L534.4,149.4 L535.3,154.8 L536.1,161.2 L536.9,172.2 L537.8,222.4 L538.6,240.1 L539.5,250.8 L540.3,254.3 L541.2,259.9 L542.0,258.6 L542.8,241.7 L543.7,180.0 L544.5,193.7 L545.4,207.1 L546.2,201.4 L547.0,224.2 L547.9,214.3 L548.7,211.4 L549.6,203.0 L550.4,193.4 L551.2,205.7 L552.1,198.0 L552.9,221.3 L553.8,208.7 L554.6,219.4 L555.5,232.3 L556.3,245.4 L557.1,246.8 L558.0,244.3 L558.8,232.3 L559.7,225.8 L560.5,211.1 L561.3,198.0 L562.2,202.2 L563.0,194.5 L563.9,197.4 L564.7,177.8 L565.6,111.1 L566.4,212.2 L567.2,198.8 L568.1,215.7 L568.9,212.2 L569.8,218.1 L570.6,258.3 L571.4,266.9 L572.3,275.2 L573.1,265.8 L574.0,194.5 L574.8,210.3 L575.7,217.3 L576.5,218.6 L577.3,243.3 L578.2,243.5 L579.0,238.7 L579.9,248.9 L580.7,242.7 L581.5,228.8 L582.4,242.2 L583.2,246.5 L584.1,171.9 L584.9,137.1 L585.8,146.5 L586.6,165.0 L587.4,187.0 L588.3,193.1 L589.1,187.8 L590.0,196.9 L590.8,232.5 L591.6,233.4 L592.5,240.3 L593.3,193.1 L594.2,191.5 L595.0,143.8 L595.8,131.7 L596.7,120.2 L597.5,148.3 L598.4,167.4 L599.2,177.0 L600.1,195.0 L600.9,193.7 L601.7,192.6 L602.6,188.0 L603.4,167.1 L604.3,140.6 L605.1,126.3 L605.9,145.1 L606.8,166.8 L607.6,170.6 L608.5,191.0 L609.3,198.2 L610.2,208.7 L611.0,212.7 L611.8,210.8 L612.7,213.0 L613.5,207.9 L614.4,153.7 L615.2,137.1 L616.0,136.5 L616.9,145.1 L617.7,199.6 L618.6,205.7 L619.4,250.2 L620.3,210.8 L621.1,207.3 L621.9,194.5 L622.8,187.0 L623.6,179.2 L624.5,177.8 L625.3,164.2 L626.1,143.2 L627.0,141.9 L627.8,138.1 L628.7,148.1 L629.5,152.9 L630.4,175.7 L631.2,207.3 L632.0,184.8 L632.9,223.2 L633.7,226.4 L634.6,172.2 L635.4,154.0 L636.2,152.1 L637.1,176.2 L637.9,178.9 L638.8,196.9 L639.6,232.3 L640.4,236.6 L641.3,249.2 L642.1,244.6 L643.0,243.5 L643.8,244.1 L644.7,229.9 L645.5,236.6 L646.3,278.4 L647.2,268.7 L648.0,270.9 L648.9,261.5 L649.7,257.2 L650.5,252.4 L651.4,233.6 L652.2,221.3 L653.1,219.7 L653.9,228.3 L654.8,246.8 L655.6,216.5 L656.4,179.2 L657.3,153.4 L658.1,185.3 L659.0,208.9 L659.8,228.3 L660.6,223.7 L661.5,227.5 L662.3,213.0 L663.2,217.8 L664.0,230.4 L664.9,234.7 L665.7,226.6 L666.5,213.0 L667.4,244.6 L668.2,248.9 L669.1,232.8 L669.9,238.4 L670.7,243.8 L671.6,226.4 L672.4,238.2 L673.3,225.8 L674.1,221.6 L675.0,220.5 L675.8,232.8 L676.6,240.3 L677.5,233.9 L678.3,242.7 L679.2,284.3 L680.0,289.7" stroke="#8c564b" stroke-width="2" fill="none" opacity="0.8"/>
<!-- Forecast Difference -->
<path d="M80.0,420.0 L80.8,420.0 L81.7,420.0 L82.5,420.0 L83.4,420.0 L84.2,420.0 L85.0,420.0 L85.9,420.0 L86.7,420.0 L87.6,420.0 L88.4,420.0 L89.3,420.0 L90.1,420.0 L90.9,420.0 L91.8,420.0 L92.6,420.0 L93.5,420.0 L94.3,420.0 L95.1,420.0 L96.0,420.0 L96.8,420.0 L97.7,420.0 L98.5,420.0 L99.4,420.0 L100.2,420.0 L101.0,420.0 L101.9,420.0 L102.7,420.0 L103.6,420.0 L104.4,420.0 L105.2,420.0 L106.1,420.0 L106.9,420.0 L107.8,420.0 L108.6,420.0 L109.5,420.0 L110.3,420.0 L111.1,420.0 L112.0,420.0 L112.8,420.0 L113.7,420.0 L114.5,420.0 L115.3,420.0 L116.2,420.0 L117.0,420.0 L117.9,420.0 L118.7,420.0 L119.6,420.0 L120.4,420.0 L121.2,420.0 L122.1,420.0 L122.9,420.0 L123.8,420.0 L124.6,420.0 L125.4,420.0 L126.3,420.0 L127.1,420.0 L128.0,420.0 L128.8,420.0 L129.6,420.0 L130.5,420.0 L131.3,420.0 L132.2,420.0 L133.0,420.0 L133.9,420.0 L134.7,420.0 L135.5,420.0 L136.4,420.0 L137.2,420.0 L138.1,420.0 L138.9,420.0 L139.7,420.0 L140.6,420.0 L141.4,420.0 L142.3,420.0 L143.1,420.0 L144.0,420.0 L144.8,420.0 L145.6,420.0 L146.5,420.0 L147.3,420.0 L148.2,420.0 L149.0,420.0 L149.8,420.0 L150.7,420.0 L151.5,420.0 L152.4,420.0 L153.2,420.0 L154.1,420.0 L154.9,420.0 L155.7,420.0 L156.6,420.0 L157.4,420.0 L158.3,420.0 L159.1,420.0 L159.9,420.0 L160.8,420.0 L161.6,420.0 L162.5,420.0 L163.3,420.0 L164.2,420.0 L165.0,420.0 L165.8,420.0 L166.7,420.0 L167.5,420.0 L168.4,420.0 L169.2,420.0 L170.0,420.0 L170.9,420.0 L171.7,420.0 L172.6,420.0 L173.4,420.0 L174.2,420.0 L175.1,420.0 L175.9,420.0 L176.8,420.0 L177.6,420.0 L178.5,420.0 L179.3,420.0 L180.1,420.0 L181.0,420.0 L181.8,420.0 L182.7,420.0 L183.5,420.0 L184.3,420.0 L185.2,420.0 L186.0,420.0 L186.9,420.0 L187.7,420.0 L188.6,420.0 L189.4,420.0 L190.2,420.0 L191.1,420.0 L191.9,420.0 L192.8,420.0 L193.6,420.0 L194.4,420.0 L195.3,420.0 L196.1,420.0 L197.0,420.0 L197.8,420.0 L198.7,420.0 L199.5,420.0 L200.3,420.0 L201.2,420.0 L202.0,420.0 L202.9,420.0 L203.7,420.0 L204.5,420.0 L205.4,420.0 L206.2,420.0 L207.1,420.0 L207.9,420.0 L208.8,420.0 L209.6,420.0 L210.4,420.0 L211.3,420.0 L212.1,420.0 L213.0,420.0 L213.8,420.0 L214.6,420.0 L215.5,420.0 L216.3,420.0 L217.2,420.0 L218.0,420.0 L218.8,420.0 L219.7,420.0 L220.5,420.0 L221.4,420.0 L222.2,420.0 L223.1,420.0 L223.9,420.0 L224.7,420.0 L225.6,420.0 L226.4,420.0 L227.3,420.0 L228.1,420.0 L228.9,420.0 L229.8,420.0 L230.6,420.0 L231.5,420.0 L232.3,420.0 L233.2,420.0 L234.0,420.0 L234.8,420.0 L235.7,420.0 L236.5,420.0 L237.4,420.0 L238.2,420.0 L239.0,420.0 L239.9,420.0 L240.7,420.0 L241.6,420.0 L242.4,420.0 L243.3,420.0 L244.1,420.0 L244.9,420.0 L245.8,420.0 L246.6,420.0 L247.5,420.0 L248.3,420.0 L249.1,420.0 L250.0,420.0 L250.8,420.0 L251.7,420.0 L252.5,420.0 L253.4,420.0 L254.2,420.0 L255.0,420.0 L255.9,420.0 L256.7,420.0 L257.6,420.0 L258.4,420.0 L259.2,420.0 L260.1,420.0 L260.9,420.0 L261.8,420.0 L262.6,420.0 L263.5,420.0 L264.3,420.0 L265.1,420.0 L266.0,420.0 L266.8,420.0 L267.7,420.0 L268.5,420.0 L269.3,420.0 L270.2,420.0 L271.0,420.0 L271.9,420.0 L272.7,420.0 L273.5,420.0 L274.4,420.0 L275.2,420.0 L276.1,420.0 L276.9,420.0 L277.8,420.0 L278.6,420.0 L279.4,420.0 L280.3,420.0 L281.1,420.0 L282.0,420.0 L282.8,420.0 L283.6,420.0 L284.5,420.0 L285.3,420.0 L286.2,420.0 L287.0,420.0 L287.9,420.0 L288.7,420.0 L289.5,420.0 L290.4,420.0 L291.2,420.0 L292.1,420.0 L292.9,420.0 L293.7,420.0 L294.6,420.0 L295.4,420.0 L296.3,420.0 L297.1,420.0 L298.0,420.0 L298.8,420.0 L299.6,420.0 L300.5,420.0 L301.3,420.0 L302.2,420.0 L303.0,420.0 L303.8,420.0 L304.7,420.0 L305.5,420.0 L306.4,420.0 L307.2,420.0 L308.1,420.0 L308.9,420.0 L309.7,420.0 L310.6,420.0 L311.4,420.0 L312.3,420.0 L313.1,420.0 L313.9,420.0 L314.8,420.0 L315.6,420.0 L316.5,420.0 L317.3,420.0 L318.1,420.0 L319.0,420.0 L319.8,420.0 L320.7,420.0 L321.5,420.0 L322.4,420.0 L323.2,420.0 L324.0,420.0 L324.9,420.0 L325.7,420.0 L326.6,420.0 L327.4,420.0 L328.2,420.0 L329.1,420.0 L329.9,420.0 L330.8,420.0 L331.6,420.0 L332.5,420.0 L333.3,420.0 L334.1,420.0 L335.0,420.0 L335.8,420.0 L336.7,420.0 L337.5,420.0 L338.3,420.0 L339.2,420.0 L340.0,420.0 L340.9,420.0 L341.7,420.0 L342.6,420.0 L343.4,420.0 L344.2,420.0 L345.1,420.0 L345.9,420.0 L346.8,420.0 L347.6,420.0 L348.4,420.0 L349.3,420.0 L350.1,420.0 L351.0,420.0 L351.8,420.0 L352.7,420.0 L353.5,420.0 L354.3,420.0 L355.2,420.0 L356.0,420.0 L356.9,420.0 L357.7,420.0 L358.5,420.0 L359.4,420.0 L360.2,420.0 L361.1,420.0 L361.9,420.0 L362.7,420.0 L363.6,420.0 L364.4,420.0 L365.3,420.0 L366.1,420.0 L367.0,420.0 L367.8,420.0 L368.6,420.0 L369.5,420.0 L370.3,420.0 L371.2,420.0 L372.0,420.0 L372.8,420.0 L373.7,420.0 L374.5,420.0 L375.4,420.0 L376.2,420.0 L377.1,420.0 L377.9,420.0 L378.7,420.0 L379.6,420.0 L380.4,420.0 L381.3,420.0 L382.1,420.0 L382.9,420.0 L383.8,420.0 L384.6,420.0 L385.5,420.0 L386.3,420.0 L387.2,420.0 L388.0,420.0 L388.8,420.0 L389.7,420.0 L390.5,420.0 L391.4,420.0 L392.2,420.0 L393.0,420.0 L393.9,420.0 L394.7,420.0 L395.6,420.0 L396.4,420.0 L397.3,420.0 L398.1,420.0 L398.9,420.0 L399.8,420.0 L400.6,420.0 L401.5,420.0 L402.3,420.0 L403.1,420.0 L404.0,420.0 L404.8,420.0 L405.7,420.0 L406.5,420.0 L407.3,420.0 L408.2,420.0 L409.0,420.0 L409.9,420.0 L410.7,420.0 L411.6,420.0 L412.4,420.0 L413.2,420.0 L414.1,420.0 L414.9,420.0 L415.8,420.0 L416.6,420.0 L417.4,420.0 L418.3,420.0 L419.1,420.0 L420.0,420.0 L420.8,420.0 L421.7,420.0 L422.5,420.0 L423.3,420.0 L424.2,420.0 L425.0,420.0 L425.9,420.0 L426.7,420.0 L427.5,420.0 L428.4,420.0 L429.2,420.0 L430.1,420.0 L430.9,420.0 L431.8,420.0 L432.6,420.0 L433.4,420.0 L434.3,420.0 L435.1,420.0 L436.0,420.0 L436.8,420.0 L437.6,420.0 L438.5,420.0 L439.3,420.0 L440.2,420.0 L441.0,420.0 L441.9,420.0 L442.7,420.0 L443.5,420.0 L444.4,420.0 L445.2,420.0 L446.1,420.0 L446.9,420.0 L447.7,420.0 L448.6,420.0 L449.4,420.0 L450.3,420.0 L451.1,420.0 L451.9,420.0 L452.8,420.0 L453.6,420.0 L454.5,420.0 L455.3,420.0 L456.2,420.0 L457.0,420.0 L457.8,420.0 L458.7,420.0 L459.5,420.0 L460.4,420.0 L461.2,420.0 L462.0,420.0 L462.9,420.0 L463.7,420.0 L464.6,420.0 L465.4,420.0 L466.3,420.0 L467.1,420.0 L467.9,420.0 L468.8,420.0 L469.6,420.0 L470.5,420.0 L471.3,420.0 L472.1,420.0 L473.0,420.0 L473.8,420.0 L474.7,420.0 L475.5,420.0 L476.4,420.0 L477.2,420.0 L478.0,420.0 L478.9,420.0 L479.7,420.0 L480.6,420.0 L481.4,420.0 L482.2,420.0 L483.1,420.0 L483.9,420.0 L484.8,420.0 L485.6,420.0 L486.5,420.0 L487.3,420.0 L488.1,420.0 L489.0,420.0 L489.8,420.0 L490.7,420.0 L491.5,420.0 L492.3,420.0 L493.2,420.0 L494.0,420.0 L494.9,420.0 L495.7,420.0 L496.5,420.0 L497.4,420.0 L498.2,420.0 L499.1,420.0 L499.9,420.0 L500.8,420.0 L501.6,420.0 L502.4,420.0 L503.3,420.0 L504.1,420.0 L505.0,420.0 L505.8,420.0 L506.6,420.0 L507.5,420.0 L508.3,420.0 L509.2,420.0 L510.0,420.0 L510.9,420.0 L511.7,420.0 L512.5,420.0 L513.4,420.0 L514.2,420.0 L515.1,420.0 L515.9,420.0 L516.7,420.0 L517.6,420.0 L518.4,420.0 L519.3,420.0 L520.1,420.0 L521.0,420.0 L521.8,420.0 L522.6,420.0 L523.5,420.0 L524.3,420.0 L525.2,420.0 L526.0,420.0 L526.8,420.0 L527.7,420.0 L528.5,420.0 L529.4,420.0 L530.2,420.0 L531.1,420.0 L531.9,420.0 L532.7,420.0 L533.6,420.0 L534.4,420.0 L535.3,420.0 L536.1,420.0 L536.9,420.0 L537.8,420.0 L538.6,420.0 L539.5,420.0 L540.3,420.0 L541.2,420.0 L542.0,420.0 L542.8,420.0 L543.7,420.0 L544.5,420.0 L545.4,420.0 L546.2,420.0 L547.0,420.0 L547.9,420.0 L548.7,420.0 L549.6,420.0 L550.4,420.0 L551.2,420.0 L552.1,420.0 L552.9,420.0 L553.8,420.0 L554.6,420.0 L555.5,420.0 L556.3,420.0 L557.1,420.0 L558.0,420.0 L558.8,420.0 L559.7,420.0 L560.5,420.0 L561.3,420.0 L562.2,420.0 L563.0,420.0 L563.9,420.0 L564.7,420.0 L565.6,420.0 L566.4,420.0 L567.2,420.0 L568.1,420.0 L568.9,420.0 L569.8,420.0 L570.6,420.0 L571.4,420.0 L572.3,420.0 L573.1,420.0 L574.0,420.0 L574.8,420.0 L575.7,420.0 L576.5,420.0 L577.3,420.0 L578.2,420.0 L579.0,420.0 L579.9,420.0 L580.7,420.0 L581.5,420.0 L582.4,420.0 L583.2,420.0 L584.1,420.0 L584.9,420.0 L585.8,420.0 L586.6,420.0 L587.4,420.0 L588.3,420.0 L589.1,420.0 L590.0,420.0 L590.8,420.0 L591.6,420.0 L592.5,420.0 L593.3,420.0 L594.2,420.0 L595.0,420.0 L595.8,420.0 L596.7,420.0 L597.5,420.0 L598.4,420.0 L599.2,420.0 L600.1,420.0 L600.9,420.0 L601.7,420.0 L602.6,420.0 L603.4,420.0 L604.3,420.0 L605.1,420.0 L605.9,420.0 L606.8,420.0 L607.6,420.0 L608.5,420.0 L609.3,420.0 L610.2,420.0 L611.0,420.0 L611.8,420.0 L612.7,420.0 L613.5,420.0 L614.4,420.0 L615.2,420.0 L616.0,420.0 L616.9,420.0 L617.7,420.0 L618.6,420.0 L619.4,420.0 L620.3,420.0 L621.1,420.0 L621.9,420.0 L622.8,420.0 L623.6,420.0 L624.5,420.0 L625.3,420.0 L626.1,420.0 L627.0,420.0 L627.8,420.0 L628.7,420.0 L629.5,420.0 L630.4,420.0 L631.2,420.0 L632.0,420.0 L632.9,420.0 L633.7,420.0 L634.6,420.0 L635.4,420.0 L636.2,420.0 L637.1,420.0 L637.9,420.0 L638.8,420.0 L639.6,420.0 L640.4,420.0 L641.3,420.0 L642.1,420.0 L643.0,420.0 L643.8,420.0 L644.7,420.0 L645.5,420.0 L646.3,420.0 L647.2,420.0 L648.0,420.0 L648.9,420.0 L649.7,420.0 L650.5,420.0 L651.4,420.0 L652.2,420.0 L653.1,420.0 L653.9,420.0 L654.8,420.0 L655.6,420.0 L656.4,420.0 L657.3,420.0 L658.1,420.0 L659.0,420.0 L659.8,420.0 L660.6,420.0 L661.5,420.0 L662.3,420.0 L663.2,420.0 L664.0,420.0 L664.9,420.0 L665.7,420.0 L666.5,420.0 L667.4,420.0 L668.2,420.0 L669.1,420.0 L669.9,420.0 L670.7,420.0 L671.6,420.0 L672.4,420.0 L673.3,420.0 L674.1,420.0 L675.0,420.0 L675.8,420.0 L676.6,420.0 L677.5,420.0 L678.3,420.0 L679.2,420.0 L680.0,420.0" stroke="#e377c2" stroke-width="2" fill="none" opacity="0.8"/>

<!-- Legend -->
<line x1="690" y1="70" x2="705" y2="70" stroke="#1f77b4" stroke-width="3"/>
<text x="710" y="74" class="legend">Wind Generation</text>
<line x1="690" y1="88" x2="705" y2="88" stroke="#ff7f0e" stroke-width="3"/>
<text x="710" y="92" class="legend">Hydro Generation</text>
<line x1="690" y1="106" x2="705" y2="106" stroke="#2ca02c" stroke-width="3"/>
<text x="710" y="110" class="legend">Thermal Generation</text>
<line x1="690" y1="124" x2="705" y2="124" stroke="#d62728" stroke-width="3"/>
<text x="710" y="128" class="legend">Solar Generation</text>
<line x1="690" y1="142" x2="705" y2="142" stroke="#9467bd" stroke-width="3"/>
<text x="710" y="146" class="legend">Forecast</text>
<line x1="690" y1="160" x2="705" y2="160" stroke="#8c564b" stroke-width="3"/>
<text x="710" y="164" class="legend">Total Generation</text>
<line x1="690" y1="178" x2="705" y2="178" stroke="#e377c2" stroke-width="3"/>
<text x="710" y="182" class="legend">Forecast Difference</text>

<!-- Date range -->
<text x="80" y="495" class="legend">Range: 03/14 - 04/13/2026 (714 records)</text>
</svg>