<?xml version="1.0" encoding="UTF-8"?>
<svg width="800" height="500" xmlns="http://www.w3.org/2000/svg">
<style>
.axis-line { stroke: #333; stroke-width: 1; }
.grid-line { stroke: #ddd; stroke-width: 0.5; }
.title { font: 16px Arial; text-anchor: middle; fill: #333; }
.axis-label { font: 12px Arial; text-anchor: middle; fill: #666; }
.legend { font: 10px Arial; fill: #333; }
</style>

<!-- Title -->
<text x="400.0" y="25" class="title">Northwestern Energy Generation Data - Past 30 Days</text>

<!-- Plot area background -->
<rect x="80" y="50" width="600" height="370" fill="white" stroke="#ddd"/>

<!-- Y-axis -->
<line x1="80" y1="50" x2="80" y2="420" class="axis-line"/>
<text x="30" y="235.0" class="axis-label" transform="rotate(-90, 30, 235.0)">Generation (MW)</text>

<!-- X-axis -->
<line x1="80" y1="420" x2="680" y2="420" class="axis-line"/>
<text x="380.0" y="480" class="axis-label">Time</text>
<line x1="80" y1="420.0" x2="680" y2="420.0" class="grid-line"/>
<text x="70" y="425.0" class="legend" text-anchor="end">0</text>
<line x1="80" y1="327.5" x2="680" y2="327.5" class="grid-line"/>
<text x="70" y="332.5" class="legend" text-anchor="end">303</text>
<line x1="80" y1="235.0" x2="680" y2="235.0" class="grid-line"/>
<text x="70" y="240.0" class="legend" text-anchor="end">606</text>
<line x1="80" y1="142.5" x2="680" y2="142.5" class="grid-line"/>
<text x="70" y="147.5" class="legend" text-anchor="end">910</text>
<line x1="80" y1="50.0" x2="680" y2="50.0" class="grid-line"/>
<text x="70" y="55.0" class="legend" text-anchor="end">1213</text>
<!-- Wind Generation -->
<path d="M80.0,411.8 L81.7,410.5 L83.4,416.3 L85.1,398.9 L86.8,403.8 L88.5,397.7 L116.3,416.3 L118.0,413.0 L119.7,409.9 L121.4,405.1 L123.0,401.1 L124.7,369.0 L126.4,373.6 L128.1,372.1 L129.8,381.9 L131.5,403.2 L133.2,406.0 L134.9,407.5 L136.6,417.6 L138.3,409.9 L140.0,403.2 L141.7,398.9 L143.4,400.5 L145.1,413.9 L146.8,419.4 L148.5,420.0 L150.1,418.2 L151.8,416.3 L153.5,417.6 L155.2,415.1 L156.9,407.8 L158.6,412.4 L160.3,377.3 L162.0,394.7 L163.7,410.5 L165.4,378.2 L167.1,406.6 L168.8,385.2 L170.5,389.8 L172.2,386.4 L173.9,399.9 L175.6,412.1 L177.2,393.8 L178.9,383.4 L180.6,381.9 L182.3,387.1 L184.0,408.4 L185.7,415.4 L187.4,416.6 L189.1,412.4 L190.8,409.9 L192.5,411.8 L194.2,413.3 L195.9,414.8 L197.6,411.5 L199.3,407.5 L201.0,398.0 L202.7,390.7 L204.3,382.5 L206.0,370.0 L207.7,373.3 L209.4,378.2 L211.1,378.5 L212.8,384.9 L214.5,393.2 L216.2,393.2 L217.9,373.9 L219.6,390.4 L221.3,402.3 L223.0,403.2 L224.7,399.6 L226.4,400.8 L228.1,404.4 L229.8,401.4 L231.4,406.0 L233.1,410.2 L234.8,408.4 L236.5,407.8 L238.2,408.1 L239.9,402.9 L241.6,394.4 L243.3,391.3 L245.0,381.9 L246.7,373.3 L248.4,379.4 L250.1,373.6 L251.8,374.2 L253.5,372.7 L255.2,391.0 L256.9,408.4 L258.5,414.2 L260.2,417.9 L261.9,420.0 L263.6,420.0 L265.3,420.0 L267.0,420.0 L268.7,419.7 L270.4,416.3 L272.1,415.1 L273.8,415.4 L275.5,415.1 L277.2,415.4 L278.9,414.8 L280.6,409.9 L282.3,401.1 L284.0,387.1 L285.6,378.5 L287.3,351.7 L289.0,345.9 L290.7,352.3 L292.4,342.5 L294.1,351.0 L295.8,381.6 L297.5,384.9 L299.2,394.7 L300.9,410.2 L302.6,416.0 L304.3,417.9 L306.0,420.0 L307.7,420.0 L309.4,420.0 L311.1,415.7 L312.7,409.9 L314.4,412.4 L316.1,413.0 L317.8,414.5 L319.5,416.9 L321.2,414.5 L322.9,413.0 L324.6,401.7 L326.3,387.1 L328.0,375.8 L329.7,355.6 L331.4,362.9 L333.1,386.1 L334.8,408.1 L336.5,416.3 L338.2,418.8 L339.8,420.0 L341.5,420.0 L343.2,419.7 L344.9,419.7 L346.6,420.0 L348.3,420.0 L350.0,420.0 L351.7,416.0 L353.4,412.7 L355.1,415.1 L356.8,417.9 L358.5,416.0 L360.2,416.0 L361.9,412.1 L363.6,405.1 L365.3,390.7 L366.9,372.1 L368.6,354.4 L370.3,349.5 L372.0,353.8 L373.7,373.0 L375.1,390.7 L376.8,405.1 L378.5,411.8 L380.2,418.2 L381.9,419.7 L383.6,420.0 L385.3,419.7 L387.0,418.8 L388.7,419.1 L390.4,415.7 L392.1,407.8 L393.8,399.9 L395.5,400.8 L397.1,398.9 L398.8,404.7 L400.5,406.9 L402.2,403.5 L403.9,392.2 L405.6,373.9 L407.3,368.4 L409.0,327.3 L410.7,324.2 L412.4,320.2 L414.1,335.5 L415.8,351.0 L417.5,364.8 L419.2,380.6 L420.9,393.2 L422.6,398.0 L424.2,404.1 L425.9,402.9 L427.6,401.1 L429.3,406.9 L431.0,405.1 L432.7,399.3 L434.4,388.0 L436.1,374.2 L437.8,379.1 L439.5,393.5 L441.2,394.1 L442.9,381.6 L444.6,388.0 L446.3,393.8 L448.0,394.1 L449.7,401.7 L451.3,402.3 L453.0,406.6 L454.7,405.4 L456.4,414.2 L458.1,408.7 L459.8,414.5 L461.5,404.4 L463.2,404.1 L464.9,402.0 L466.6,398.0 L468.3,402.3 L470.0,407.5 L471.7,415.7 L473.4,417.3 L475.1,416.9 L476.8,418.5 L478.4,420.0 L480.1,417.6 L481.8,397.7 L483.5,392.5 L485.2,373.6 L486.9,374.8 L488.6,390.1 L490.3,410.2 L492.0,410.5 L493.7,411.5 L495.4,412.1 L497.1,405.4 L498.8,397.4 L500.5,391.6 L502.2,396.5 L503.9,403.2 L505.5,404.1 L507.2,406.6 L508.9,408.7 L510.6,413.6 L512.3,410.8 L514.0,411.5 L515.7,403.8 L517.4,398.9 L519.1,399.6 L520.8,395.0 L522.5,352.3 L524.2,369.4 L525.9,382.2 L527.6,373.6 L529.3,388.6 L531.0,395.3 L532.6,409.6 L534.3,409.9 L536.0,412.1 L537.7,408.7 L539.4,411.2 L541.1,409.3 L542.8,393.5 L544.5,394.4 L546.2,393.8 L547.9,394.7 L549.6,398.9 L551.3,409.9 L553.0,410.5 L554.7,402.9 L556.4,396.5 L558.1,398.9 L559.7,388.9 L561.4,395.0 L563.1,399.3 L564.8,405.1 L566.5,402.3 L568.2,410.8 L569.9,409.6 L571.6,403.5 L573.3,404.7 L575.0,415.4 L576.7,417.3 L578.4,414.5 L580.1,412.1 L581.8,411.8 L583.5,406.3 L585.2,404.4 L586.8,398.9 L588.5,403.5 L590.2,403.8 L591.9,409.9 L593.6,413.3 L595.3,414.2 L597.0,412.4 L598.7,405.7 L600.4,400.8 L602.1,403.2 L603.8,407.5 L605.5,407.5 L607.2,407.8 L608.9,413.9 L610.6,413.6 L612.3,413.3 L613.9,410.5 L615.6,415.7 L617.3,418.2 L619.0,419.4 L620.7,420.0 L622.4,419.7 L624.1,420.0 L625.8,420.0 L627.5,419.4 L629.2,418.5 L630.9,417.9 L632.6,418.5 L634.3,420.0 L636.0,419.1 L637.7,415.4 L639.4,413.9 L641.0,410.8 L642.7,414.2 L644.4,404.4 L646.1,392.8 L647.8,398.6 L649.5,395.6 L651.2,366.0 L652.9,367.2 L654.6,362.9 L656.3,368.1 L658.0,388.9 L659.7,397.7 L661.4,405.7 L663.1,409.9 L664.8,412.7 L666.5,418.2 L668.1,412.4 L669.8,415.4 L671.5,406.3 L673.2,411.8 L674.9,415.7 L676.6,413.0 L678.3,409.6 L680.0,408.4" stroke="#1f77b4" stroke-width="2" fill="none" opacity="0.8"/>
<!-- Hydro Generation -->
<path d="M80.0,352.6 L81.7,353.5 L83.4,353.2 L85.1,353.8 L86.8,353.8 L88.5,353.5 L116.3,352.9 L118.0,353.5 L119.7,353.2 L121.4,353.2 L123.0,353.5 L124.7,353.5 L126.4,352.6 L128.1,353.2 L129.8,352.6 L131.5,352.6 L133.2,352.6 L134.9,352.3 L136.6,352.9 L138.3,352.6 L140.0,352.6 L141.7,352.9 L143.4,352.3 L145.1,352.6 L146.8,352.6 L148.5,352.3 L150.1,352.6 L151.8,352.9 L153.5,353.5 L155.2,353.5 L156.9,352.9 L158.6,353.5 L160.3,353.2 L162.0,353.2 L163.7,353.2 L165.4,353.2 L167.1,353.2 L168.8,353.2 L170.5,353.5 L172.2,353.5 L173.9,353.2 L175.6,353.2 L177.2,353.2 L178.9,352.9 L180.6,353.5 L182.3,353.2 L184.0,353.2 L185.7,352.6 L187.4,353.2 L189.1,353.5 L190.8,353.5 L192.5,353.8 L194.2,353.8 L195.9,354.1 L197.6,354.7 L199.3,354.4 L201.0,354.4 L202.7,354.1 L204.3,354.1 L206.0,355.3 L207.7,355.0 L209.4,355.3 L211.1,355.3 L212.8,355.3 L214.5,355.6 L216.2,355.3 L217.9,355.9 L219.6,355.6 L221.3,355.3 L223.0,356.2 L224.7,356.2 L226.4,355.6 L228.1,355.9 L229.8,356.8 L231.4,356.8 L233.1,356.8 L234.8,354.1 L236.5,357.2 L238.2,356.8 L239.9,356.8 L241.6,357.5 L243.3,351.7 L245.0,358.1 L246.7,359.0 L248.4,359.0 L250.1,358.7 L251.8,359.0 L253.5,358.7 L255.2,359.0 L256.9,358.7 L258.5,359.0 L260.2,359.0 L261.9,359.0 L263.6,359.3 L265.3,359.6 L267.0,359.6 L268.7,361.1 L270.4,361.1 L272.1,360.8 L273.8,361.4 L275.5,360.5 L277.2,360.5 L278.9,360.8 L280.6,361.1 L282.3,359.3 L284.0,359.6 L285.6,359.6 L287.3,358.7 L289.0,359.0 L290.7,359.0 L292.4,358.1 L294.1,357.8 L295.8,358.1 L297.5,357.8 L299.2,357.8 L300.9,357.5 L302.6,357.5 L304.3,357.8 L306.0,357.8 L307.7,357.5 L309.4,358.1 L311.1,358.4 L312.7,358.1 L314.4,358.7 L316.1,358.1 L317.8,358.4 L319.5,358.1 L321.2,358.7 L322.9,358.4 L324.6,358.4 L326.3,358.7 L328.0,357.2 L329.7,357.2 L331.4,356.5 L333.1,356.2 L334.8,356.2 L336.5,356.2 L338.2,356.5 L339.8,356.2 L341.5,356.2 L343.2,356.2 L344.9,356.2 L346.6,356.8 L348.3,359.3 L350.0,358.4 L351.7,359.0 L353.4,358.7 L355.1,359.3 L356.8,359.0 L358.5,359.0 L360.2,359.3 L361.9,359.9 L363.6,359.6 L365.3,359.6 L366.9,359.3 L368.6,359.0 L370.3,358.1 L372.0,357.8 L373.7,358.1 L375.1,357.8 L376.8,358.4 L378.5,358.1 L380.2,357.8 L381.9,356.8 L383.6,357.2 L385.3,356.5 L387.0,356.2 L388.7,356.2 L390.4,356.5 L392.1,356.5 L393.8,356.2 L395.5,355.9 L397.1,356.2 L398.8,356.5 L400.5,355.9 L402.2,356.2 L403.9,356.2 L405.6,356.5 L407.3,356.5 L409.0,356.8 L410.7,356.5 L412.4,356.5 L414.1,356.2 L415.8,356.8 L417.5,356.2 L419.2,356.5 L420.9,356.2 L422.6,356.2 L424.2,356.8 L425.9,356.5 L427.6,356.8 L429.3,356.2 L431.0,357.2 L432.7,355.9 L434.4,356.8 L436.1,356.2 L437.8,356.8 L439.5,356.5 L441.2,356.2 L442.9,356.5 L444.6,356.8 L446.3,356.5 L448.0,356.5 L449.7,356.5 L451.3,357.2 L453.0,356.5 L454.7,356.8 L456.4,356.8 L458.1,356.5 L459.8,357.2 L461.5,356.5 L463.2,357.2 L464.9,356.8 L466.6,357.2 L468.3,357.5 L470.0,357.5 L471.7,357.2 L473.4,356.8 L475.1,356.2 L476.8,356.5 L478.4,356.8 L480.1,356.8 L481.8,356.5 L483.5,356.5 L485.2,354.7 L486.9,355.0 L488.6,354.4 L490.3,354.1 L492.0,354.1 L493.7,353.8 L495.4,353.5 L497.1,353.5 L498.8,353.5 L500.5,352.9 L502.2,352.9 L503.9,352.9 L505.5,352.6 L507.2,352.3 L508.9,352.6 L510.6,352.9 L512.3,352.9 L514.0,352.6 L515.7,352.6 L517.4,353.2 L519.1,353.5 L520.8,353.5 L522.5,353.2 L524.2,353.5 L525.9,353.5 L527.6,353.2 L529.3,353.5 L531.0,353.5 L532.6,353.8 L534.3,353.8 L536.0,354.1 L537.7,354.7 L539.4,354.7 L541.1,354.4 L542.8,354.4 L544.5,354.7 L546.2,354.4 L547.9,354.7 L549.6,355.0 L551.3,356.2 L553.0,355.9 L554.7,356.2 L556.4,356.2 L558.1,355.9 L559.7,356.2 L561.4,355.6 L563.1,355.6 L564.8,355.6 L566.5,355.6 L568.2,355.3 L569.9,355.3 L571.6,353.2 L573.3,353.2 L575.0,352.9 L576.7,353.2 L578.4,353.2 L580.1,353.2 L581.8,352.6 L583.5,352.3 L585.2,352.3 L586.8,352.0 L588.5,352.6 L590.2,352.9 L591.9,354.1 L593.6,353.8 L595.3,354.1 L597.0,354.1 L598.7,353.8 L600.4,353.8 L602.1,353.8 L603.8,354.4 L605.5,353.8 L607.2,353.8 L608.9,354.1 L610.6,354.4 L612.3,354.4 L613.9,353.8 L615.6,353.8 L617.3,353.8 L619.0,353.5 L620.7,353.8 L622.4,353.5 L624.1,353.2 L625.8,353.2 L627.5,353.2 L629.2,353.2 L630.9,353.2 L632.6,355.0 L634.3,355.3 L636.0,355.0 L637.7,355.0 L639.4,355.0 L641.0,355.0 L642.7,355.0 L644.4,355.0 L646.1,354.7 L647.8,354.7 L649.5,354.7 L651.2,354.7 L652.9,355.0 L654.6,354.1 L656.3,353.8 L658.0,354.1 L659.7,353.8 L661.4,352.6 L663.1,352.6 L664.8,350.4 L666.5,351.4 L668.1,350.1 L669.8,350.1 L671.5,349.8 L673.2,349.8 L674.9,350.4 L676.6,350.7 L678.3,350.7 L680.0,351.4" stroke="#ff7f0e" stroke-width="2" fill="none" opacity="0.8"/>
<!-- Thermal Generation -->
<path d="M80.0,314.7 L81.7,315.0 L83.4,313.8 L85.1,316.3 L86.8,328.8 L88.5,338.8 L116.3,332.4 L118.0,333.0 L119.7,338.8 L121.4,328.8 L123.0,329.1 L124.7,328.5 L126.4,326.3 L128.1,324.8 L129.8,321.5 L131.5,317.2 L133.2,321.2 L134.9,320.5 L136.6,319.9 L138.3,319.0 L140.0,320.5 L141.7,321.5 L143.4,337.9 L145.1,338.2 L146.8,338.2 L148.5,339.5 L150.1,340.7 L151.8,341.6 L153.5,326.6 L155.2,327.9 L156.9,327.9 L158.6,328.2 L160.3,328.5 L162.0,328.5 L163.7,327.9 L165.4,326.9 L167.1,326.3 L168.8,325.1 L170.5,321.8 L172.2,322.1 L173.9,321.2 L175.6,320.5 L177.2,320.2 L178.9,322.4 L180.6,320.5 L182.3,320.8 L184.0,321.8 L185.7,322.4 L187.4,320.5 L189.1,323.3 L190.8,322.7 L192.5,323.6 L194.2,323.9 L195.9,324.5 L197.6,324.2 L199.3,323.9 L201.0,324.2 L202.7,324.5 L204.3,323.0 L206.0,323.0 L207.7,323.3 L209.4,325.7 L211.1,322.1 L212.8,321.2 L214.5,321.5 L216.2,320.5 L217.9,320.5 L219.6,320.8 L221.3,323.6 L223.0,319.9 L224.7,320.8 L226.4,337.9 L228.1,339.5 L229.8,333.0 L231.4,322.1 L233.1,323.3 L234.8,323.0 L236.5,323.6 L238.2,323.9 L239.9,327.3 L241.6,326.3 L243.3,323.3 L245.0,323.3 L246.7,322.4 L248.4,322.4 L250.1,321.8 L251.8,321.8 L253.5,321.8 L255.2,320.5 L256.9,319.6 L258.5,319.3 L260.2,319.6 L261.9,322.1 L263.6,319.3 L265.3,330.6 L267.0,328.2 L268.7,331.2 L270.4,338.8 L272.1,322.4 L273.8,323.3 L275.5,323.6 L277.2,324.2 L278.9,323.6 L280.6,323.3 L282.3,309.9 L284.0,308.9 L285.6,311.1 L287.3,307.1 L289.0,307.4 L290.7,308.3 L292.4,307.4 L294.1,306.5 L295.8,305.6 L297.5,305.9 L299.2,305.0 L300.9,304.4 L302.6,304.1 L304.3,304.7 L306.0,307.7 L307.7,336.7 L309.4,338.2 L311.1,338.8 L312.7,338.5 L314.4,341.0 L316.1,313.5 L317.8,308.3 L319.5,306.8 L321.2,310.5 L322.9,308.9 L324.6,304.4 L326.3,303.8 L328.0,300.4 L329.7,298.3 L331.4,311.4 L333.1,304.7 L334.8,306.5 L336.5,296.7 L338.2,319.6 L339.8,323.0 L341.5,322.4 L343.2,295.8 L344.9,298.6 L346.6,298.6 L348.3,323.3 L350.0,309.9 L351.7,311.1 L353.4,312.6 L355.1,313.2 L356.8,309.3 L358.5,307.7 L360.2,307.4 L361.9,306.5 L363.6,307.1 L365.3,307.1 L366.9,305.3 L368.6,305.0 L370.3,301.6 L372.0,303.8 L373.7,298.3 L375.1,297.4 L376.8,305.9 L378.5,296.1 L380.2,297.4 L381.9,299.8 L383.6,300.7 L385.3,297.4 L387.0,297.7 L388.7,300.7 L390.4,301.0 L392.1,307.7 L393.8,321.2 L395.5,307.4 L397.1,320.2 L398.8,313.8 L400.5,313.2 L402.2,311.4 L403.9,312.6 L405.6,310.8 L407.3,311.4 L409.0,308.6 L410.7,306.2 L412.4,305.3 L414.1,301.9 L415.8,340.7 L417.5,340.1 L419.2,328.2 L420.9,327.6 L422.6,326.9 L424.2,326.6 L425.9,312.3 L427.6,327.3 L429.3,332.4 L431.0,327.6 L432.7,327.9 L434.4,328.5 L436.1,331.8 L437.8,326.9 L439.5,325.4 L441.2,305.0 L442.9,305.6 L444.6,305.9 L446.3,311.1 L448.0,308.0 L449.7,312.6 L451.3,305.9 L453.0,304.7 L454.7,303.5 L456.4,303.5 L458.1,329.1 L459.8,323.3 L461.5,324.2 L463.2,340.7 L464.9,340.4 L466.6,329.1 L468.3,327.3 L470.0,327.6 L471.7,331.2 L473.4,331.5 L475.1,326.9 L476.8,325.7 L478.4,326.0 L480.1,329.1 L481.8,319.9 L483.5,319.6 L485.2,316.3 L486.9,313.8 L488.6,313.5 L490.3,312.3 L492.0,310.8 L493.7,310.8 L495.4,310.8 L497.1,308.3 L498.8,306.2 L500.5,336.4 L502.2,335.2 L503.9,334.9 L505.5,334.3 L507.2,325.7 L508.9,325.1 L510.6,328.2 L512.3,328.2 L514.0,330.0 L515.7,335.2 L517.4,335.8 L519.1,345.6 L520.8,345.9 L522.5,345.3 L524.2,345.3 L525.9,343.7 L527.6,327.3 L529.3,324.2 L531.0,321.2 L532.6,322.4 L534.3,321.8 L536.0,321.5 L537.7,326.6 L539.4,337.9 L541.1,338.2 L542.8,337.9 L544.5,338.2 L546.2,338.5 L547.9,338.5 L549.6,339.2 L551.3,338.2 L553.0,337.9 L554.7,340.7 L556.4,341.3 L558.1,341.3 L559.7,341.9 L561.4,339.2 L563.1,341.9 L564.8,341.6 L566.5,312.3 L568.2,312.0 L569.9,313.5 L571.6,312.9 L573.3,312.3 L575.0,322.1 L576.7,321.5 L578.4,319.6 L580.1,335.5 L581.8,330.0 L583.5,327.9 L585.2,327.9 L586.8,327.6 L588.5,327.3 L590.2,327.6 L591.9,328.2 L593.6,329.4 L595.3,330.6 L597.0,330.9 L598.7,331.5 L600.4,332.1 L602.1,332.4 L603.8,312.3 L605.5,304.4 L607.2,304.1 L608.9,303.5 L610.6,302.8 L612.3,315.0 L613.9,301.6 L615.6,300.4 L617.3,310.8 L619.0,311.1 L620.7,327.3 L622.4,326.9 L624.1,327.6 L625.8,326.6 L627.5,326.6 L629.2,326.3 L630.9,328.2 L632.6,328.8 L634.3,330.0 L636.0,332.4 L637.7,331.8 L639.4,332.7 L641.0,333.0 L642.7,315.7 L644.4,309.3 L646.1,308.3 L647.8,308.0 L649.5,307.4 L651.2,306.8 L652.9,303.5 L654.6,301.9 L656.3,301.6 L658.0,303.8 L659.7,300.1 L661.4,299.5 L663.1,304.1 L664.8,303.8 L666.5,303.1 L668.1,303.1 L669.8,302.8 L671.5,308.9 L673.2,303.8 L674.9,305.0 L676.6,307.1 L678.3,307.7 L680.0,308.9" stroke="#2ca02c" stroke-width="2" fill="none" opacity="0.8"/>
<!-- Solar Generation -->
<path d="M80.0,392.2 L81.7,411.2 L83.4,420.0 L85.1,420.0 L86.8,420.0 L88.5,420.0 L116.3,393.5 L118.0,382.2 L119.7,384.6 L121.4,399.3 L123.0,418.2 L124.7,420.0 L126.4,420.0 L128.1,420.0 L129.8,420.0 L131.5,420.0 L133.2,420.0 L134.9,420.0 L136.6,420.0 L138.3,420.0 L140.0,420.0 L141.7,418.2 L143.4,404.4 L145.1,380.3 L146.8,378.2 L148.5,387.4 L150.1,379.7 L151.8,384.6 L153.5,388.3 L155.2,398.3 L156.9,401.1 L158.6,400.5 L160.3,408.1 L162.0,415.7 L163.7,418.2 L165.4,420.0 L167.1,420.0 L168.8,420.0 L170.5,420.0 L172.2,420.0 L173.9,420.0 L175.6,420.0 L177.2,420.0 L178.9,420.0 L180.6,420.0 L182.3,418.2 L184.0,406.0 L185.7,387.7 L187.4,378.2 L189.1,380.9 L190.8,378.8 L192.5,380.0 L194.2,377.3 L195.9,377.0 L197.6,377.0 L199.3,377.3 L201.0,389.8 L202.7,402.9 L204.3,418.5 L206.0,420.0 L207.7,420.0 L209.4,420.0 L211.1,420.0 L212.8,420.0 L214.5,420.0 L216.2,420.0 L217.9,420.0 L219.6,420.0 L221.3,420.0 L223.0,419.4 L224.7,409.0 L226.4,393.8 L228.1,385.5 L229.8,379.7 L231.4,384.6 L233.1,377.3 L234.8,383.1 L236.5,375.5 L238.2,375.8 L239.9,376.7 L241.6,380.6 L243.3,400.2 L245.0,418.5 L246.7,420.0 L248.4,420.0 L250.1,420.0 L251.8,420.0 L253.5,420.0 L255.2,420.0 L256.9,420.0 L258.5,420.0 L260.2,420.0 L261.9,420.0 L263.6,418.5 L265.3,397.1 L267.0,379.4 L268.7,376.1 L270.4,375.8 L272.1,375.8 L273.8,376.1 L275.5,375.5 L277.2,376.4 L278.9,377.3 L280.6,376.7 L282.3,386.1 L284.0,408.1 L285.6,418.5 L287.3,420.0 L289.0,420.0 L290.7,420.0 L292.4,420.0 L294.1,420.0 L295.8,420.0 L297.5,420.0 L299.2,420.0 L300.9,420.0 L302.6,420.0 L304.3,419.1 L306.0,399.6 L307.7,378.8 L309.4,376.4 L311.1,375.5 L312.7,375.8 L314.4,380.0 L316.1,377.6 L317.8,380.0 L319.5,379.4 L321.2,382.2 L322.9,385.2 L324.6,401.7 L326.3,419.1 L328.0,420.0 L329.7,420.0 L331.4,420.0 L333.1,420.0 L334.8,420.0 L336.5,420.0 L338.2,420.0 L339.8,420.0 L341.5,420.0 L343.2,420.0 L344.9,418.5 L346.6,402.0 L348.3,381.3 L350.0,377.9 L351.7,378.2 L353.4,376.1 L355.1,379.7 L356.8,376.4 L358.5,387.4 L360.2,382.2 L361.9,392.8 L363.6,398.0 L365.3,410.2 L366.9,419.4 L368.6,420.0 L370.3,420.0 L372.0,420.0 L373.7,420.0 L375.1,420.0 L376.8,420.0 L378.5,420.0 L380.2,420.0 L381.9,420.0 L383.6,420.0 L385.3,419.7 L387.0,412.7 L388.7,398.3 L390.4,406.3 L392.1,394.4 L393.8,395.3 L395.5,390.1 L397.1,393.8 L398.8,382.8 L400.5,379.4 L402.2,391.6 L403.9,413.0 L405.6,412.4 L407.3,419.7 L409.0,420.0 L410.7,420.0 L412.4,420.0 L414.1,420.0 L415.8,420.0 L417.5,420.0 L419.2,420.0 L420.9,420.0 L422.6,420.0 L424.2,420.0 L425.9,419.7 L427.6,416.0 L429.3,415.1 L431.0,414.2 L432.7,412.7 L434.4,409.3 L436.1,406.3 L437.8,411.2 L439.5,404.1 L441.2,400.5 L442.9,407.5 L444.6,411.8 L446.3,418.5 L448.0,420.0 L449.7,420.0 L451.3,420.0 L453.0,420.0 L454.7,420.0 L456.4,420.0 L458.1,420.0 L459.8,420.0 L461.5,420.0 L463.2,420.0 L464.9,420.0 L466.6,420.0 L468.3,417.9 L470.0,412.4 L471.7,411.5 L473.4,404.4 L475.1,402.3 L476.8,398.0 L478.4,397.1 L480.1,399.9 L481.8,402.3 L483.5,406.6 L485.2,403.2 L486.9,415.7 L488.6,419.4 L490.3,420.0 L492.0,420.0 L493.7,420.0 L495.4,420.0 L497.1,420.0 L498.8,420.0 L500.5,420.0 L502.2,420.0 L503.9,420.0 L505.5,420.0 L507.2,420.0 L508.9,413.6 L510.6,400.8 L512.3,393.2 L514.0,388.3 L515.7,385.2 L517.4,379.1 L519.1,395.0 L520.8,389.5 L522.5,399.9 L524.2,406.3 L525.9,381.9 L527.6,410.2 L529.3,419.1 L531.0,420.0 L532.6,420.0 L534.3,420.0 L536.0,420.0 L537.7,420.0 L539.4,420.0 L541.1,420.0 L542.8,420.0 L544.5,420.0 L546.2,420.0 L547.9,420.0 L549.6,412.7 L551.3,382.5 L553.0,377.6 L554.7,376.4 L556.4,376.7 L558.1,383.7 L559.7,376.1 L561.4,376.1 L563.1,380.9 L564.8,376.4 L566.5,394.7 L568.2,402.0 L569.9,419.1 L571.6,420.0 L573.3,420.0 L575.0,420.0 L576.7,420.0 L578.4,420.0 L580.1,420.0 L581.8,420.0 L583.5,420.0 L585.2,420.0 L586.8,420.0 L588.5,419.7 L590.2,407.5 L591.9,384.6 L593.6,377.9 L595.3,376.7 L597.0,377.3 L598.7,377.9 L600.4,377.9 L602.1,379.4 L603.8,376.4 L605.5,378.8 L607.2,384.3 L608.9,402.0 L610.6,419.1 L612.3,420.0 L613.9,420.0 L615.6,420.0 L617.3,420.0 L619.0,420.0 L620.7,420.0 L622.4,420.0 L624.1,420.0 L625.8,420.0 L627.5,420.0 L629.2,420.0 L630.9,407.5 L632.6,386.1 L634.3,377.6 L636.0,378.8 L637.7,377.3 L639.4,378.2 L641.0,380.3 L642.7,377.6 L644.4,378.8 L646.1,378.2 L647.8,383.1 L649.5,402.3 L651.2,419.1 L652.9,420.0 L654.6,420.0 L656.3,420.0 L658.0,420.0 L659.7,420.0 L661.4,420.0 L663.1,420.0 L664.8,420.0 L666.5,420.0 L668.1,420.0 L669.8,420.0 L671.5,408.4 L673.2,385.2 L674.9,378.8 L676.6,378.8 L678.3,379.1 L680.0,378.5" stroke="#d62728" stroke-width="2" fill="none" opacity="0.8"/>
<!-- Forecast -->
<path d="M80.0,100.6 L81.7,112.8 L83.4,125.3 L85.1,135.0 L86.8,152.4 L88.5,178.7 L116.3,74.9 L118.0,67.6 L119.7,72.2 L121.4,82.6 L123.0,97.8 L124.7,111.6 L126.4,122.5 L128.1,151.2 L129.8,187.8 L131.5,207.7 L133.2,219.2 L134.9,230.2 L136.6,234.8 L138.3,234.2 L140.0,227.5 L141.7,207.4 L143.4,180.5 L145.1,154.9 L146.8,136.6 L148.5,123.1 L150.1,109.7 L151.8,100.9 L153.5,92.6 L155.2,86.2 L156.9,78.6 L158.6,78.6 L160.3,83.2 L162.0,93.9 L163.7,107.3 L165.4,122.5 L167.1,140.2 L168.8,158.2 L170.5,235.7 L172.2,213.8 L173.9,244.6 L175.6,244.9 L177.2,242.4 L178.9,240.0 L180.6,239.1 L182.3,240.9 L184.0,207.4 L185.7,199.7 L187.4,187.8 L189.1,177.5 L190.8,147.2 L192.5,144.2 L194.2,145.1 L195.9,146.0 L197.6,149.1 L199.3,162.2 L201.0,173.2 L202.7,173.8 L204.3,173.8 L206.0,236.6 L207.7,240.3 L209.4,409.9 L211.1,223.2 L212.8,224.7 L214.5,237.3 L216.2,245.8 L217.9,248.8 L219.6,246.7 L221.3,236.3 L223.0,216.2 L224.7,192.4 L226.4,170.1 L228.1,159.8 L229.8,154.9 L231.4,148.8 L233.1,146.3 L234.8,140.2 L236.5,132.6 L238.2,123.1 L239.9,115.8 L241.6,121.6 L243.3,131.7 L245.0,181.1 L246.7,186.3 L248.4,192.7 L250.1,193.6 L251.8,218.6 L253.5,235.4 L255.2,238.8 L256.9,240.0 L258.5,241.5 L260.2,243.4 L261.9,245.8 L263.6,247.9 L265.3,242.1 L267.0,230.5 L268.7,216.2 L270.4,207.4 L272.1,204.9 L273.8,204.0 L275.5,202.8 L277.2,202.8 L278.9,202.2 L280.6,172.9 L282.3,169.5 L284.0,167.1 L285.6,170.7 L287.3,182.0 L289.0,184.2 L290.7,209.8 L292.4,219.2 L294.1,225.4 L295.8,218.0 L297.5,226.0 L299.2,233.9 L300.9,240.0 L302.6,251.0 L304.3,247.6 L306.0,235.4 L307.7,219.2 L309.4,203.1 L311.1,192.1 L312.7,184.5 L314.4,197.0 L316.1,194.8 L317.8,193.9 L319.5,163.4 L321.2,161.9 L322.9,159.5 L324.6,157.9 L326.3,170.4 L328.0,175.6 L329.7,177.5 L331.4,205.8 L333.1,228.7 L334.8,225.0 L336.5,236.0 L338.2,244.3 L339.8,248.2 L341.5,247.6 L343.2,237.6 L344.9,217.1 L346.6,192.7 L348.3,169.2 L350.0,156.7 L351.7,149.7 L353.4,141.8 L355.1,138.4 L356.8,129.9 L358.5,119.8 L360.2,142.1 L361.9,141.5 L363.6,139.3 L365.3,137.2 L366.9,144.2 L368.6,154.9 L370.3,120.7 L372.0,132.0 L373.7,194.8 L375.1,220.8 L376.8,235.4 L378.5,244.3 L380.2,249.5 L381.9,248.8 L383.6,240.0 L385.3,220.8 L387.0,196.1 L388.7,171.7 L390.4,156.1 L392.1,147.2 L393.8,138.7 L395.5,131.1 L397.1,121.9 L398.8,112.2 L400.5,100.9 L402.2,92.0 L403.9,94.8 L405.6,104.5 L407.3,118.6 L409.0,133.2 L410.7,142.1 L412.4,162.5 L414.1,170.7 L415.8,208.3 L417.5,228.1 L419.2,237.6 L420.9,243.4 L422.6,242.7 L424.2,234.8 L425.9,217.4 L427.6,194.8 L429.3,170.7 L431.0,156.1 L432.7,149.4 L434.4,142.7 L436.1,139.0 L437.8,132.9 L439.5,124.7 L441.2,118.0 L442.9,115.2 L444.6,119.8 L446.3,121.3 L448.0,127.4 L449.7,144.5 L451.3,150.3 L453.0,166.8 L454.7,198.8 L456.4,215.6 L458.1,226.9 L459.8,235.4 L461.5,240.3 L463.2,238.8 L464.9,230.5 L466.6,215.3 L468.3,193.3 L470.0,171.0 L471.7,159.1 L473.4,155.5 L475.1,151.2 L476.8,147.9 L478.4,146.6 L480.1,144.2 L481.8,139.9 L483.5,137.8 L485.2,142.1 L486.9,149.7 L488.6,157.6 L490.3,162.8 L492.0,163.7 L493.7,177.8 L495.4,205.5 L497.1,223.2 L498.8,234.2 L500.5,241.5 L502.2,244.9 L503.9,244.0 L505.5,234.2 L507.2,218.0 L508.9,195.1 L510.6,172.9 L512.3,161.9 L514.0,158.8 L515.7,154.9 L517.4,151.5 L519.1,151.2 L520.8,148.8 L522.5,143.9 L524.2,140.8 L525.9,144.8 L527.6,152.4 L529.3,160.1 L531.0,167.4 L532.6,167.4 L534.3,182.0 L536.0,209.5 L537.7,223.8 L539.4,234.2 L541.1,243.0 L542.8,247.9 L544.5,249.5 L546.2,247.0 L547.9,241.5 L549.6,228.4 L551.3,211.0 L553.0,198.5 L554.7,192.4 L556.4,187.8 L558.1,179.6 L559.7,174.7 L561.4,174.1 L563.1,165.9 L564.8,158.2 L566.5,159.1 L568.2,157.3 L569.9,165.9 L571.6,174.4 L573.3,173.5 L575.0,186.9 L576.7,206.1 L578.4,226.0 L580.1,238.2 L581.8,245.8 L583.5,250.7 L585.2,251.6 L586.8,250.4 L588.5,247.0 L590.2,236.0 L591.9,219.2 L593.6,200.0 L595.3,188.1 L597.0,178.1 L598.7,170.7 L600.4,162.8 L602.1,153.7 L603.8,143.0 L605.5,137.8 L607.2,127.1 L608.9,130.8 L610.6,140.5 L612.3,152.7 L613.9,159.8 L615.6,177.8 L617.3,203.4 L619.0,225.7 L620.7,239.1 L622.4,233.0 L624.1,248.5 L625.8,254.0 L627.5,252.5 L629.2,248.5 L630.9,239.1 L632.6,222.0 L634.3,202.2 L636.0,190.3 L637.7,179.9 L639.4,172.3 L641.0,161.9 L642.7,151.5 L644.4,140.8 L646.1,132.6 L647.8,125.6 L649.5,128.0 L651.2,136.6 L652.9,148.8 L654.6,157.6 L656.3,177.1 L658.0,155.8 L659.7,205.8 L661.4,232.4 L663.1,226.0 L664.8,242.4 L666.5,247.3 L668.1,239.4 L669.8,219.9 L671.5,197.3 L673.2,173.2 L674.9,157.9 L676.6,150.6 L678.3,142.4 L680.0,140.5" stroke="#9467bd" stroke-width="2" fill="none" opacity="0.8"/>
<!-- Total Generation -->
<path d="M80.0,211.3 L81.7,230.2 L83.4,243.4 L85.1,229.0 L86.8,246.4 L88.5,250.1 L116.3,235.1 L118.0,221.7 L119.7,226.6 L121.4,226.3 L123.0,241.8 L124.7,211.0 L126.4,212.5 L128.1,210.4 L129.8,216.2 L131.5,233.3 L133.2,240.0 L134.9,240.6 L136.6,250.7 L138.3,241.8 L140.0,236.6 L141.7,231.5 L143.4,235.1 L145.1,225.0 L146.8,228.4 L148.5,239.4 L150.1,231.1 L151.8,235.4 L153.5,226.0 L155.2,234.8 L156.9,229.6 L158.6,234.5 L160.3,207.0 L162.0,232.1 L163.7,249.8 L165.4,218.3 L167.1,246.1 L168.8,223.5 L170.5,225.0 L172.2,222.0 L173.9,234.2 L175.6,245.8 L177.2,227.2 L178.9,218.6 L180.6,215.9 L182.3,219.2 L184.0,229.3 L185.7,218.0 L187.4,208.6 L189.1,210.1 L190.8,204.9 L192.5,209.2 L194.2,208.3 L195.9,210.4 L197.6,207.4 L199.3,203.1 L201.0,206.4 L202.7,212.2 L204.3,218.0 L206.0,208.3 L207.7,211.6 L209.4,219.2 L211.1,215.9 L212.8,221.4 L214.5,230.2 L216.2,229.0 L217.9,210.4 L219.6,226.9 L221.3,241.2 L223.0,238.8 L224.7,225.7 L226.4,228.1 L228.1,225.4 L229.8,211.0 L231.4,209.5 L233.1,207.7 L234.8,208.6 L236.5,204.0 L238.2,204.6 L239.9,203.7 L241.6,198.8 L243.3,206.4 L245.0,221.7 L246.7,214.7 L248.4,220.8 L250.1,214.1 L251.8,215.0 L253.5,213.1 L255.2,230.5 L256.9,246.7 L258.5,252.5 L260.2,256.8 L261.9,261.0 L263.6,257.4 L265.3,247.9 L267.0,227.8 L268.7,228.1 L270.4,232.1 L272.1,214.1 L273.8,216.2 L275.5,214.7 L277.2,216.5 L278.9,216.5 L280.6,211.0 L282.3,196.4 L284.0,203.7 L285.6,207.7 L287.3,177.5 L289.0,172.3 L290.7,179.6 L292.4,168.0 L294.1,175.3 L295.8,205.2 L297.5,208.6 L299.2,217.4 L300.9,232.1 L302.6,237.6 L304.3,239.4 L306.0,225.4 L307.7,233.6 L309.4,233.6 L311.1,228.4 L312.7,222.3 L314.4,232.1 L316.1,202.2 L317.8,201.2 L319.5,201.2 L321.2,205.8 L322.9,205.5 L324.6,206.1 L326.3,208.6 L328.0,193.3 L329.7,171.0 L331.4,190.9 L333.1,207.0 L334.8,230.8 L336.5,229.3 L338.2,254.9 L339.8,259.8 L341.5,259.2 L343.2,231.8 L344.9,233.0 L346.6,217.4 L348.3,224.1 L350.0,206.7 L351.7,204.3 L353.4,200.0 L355.1,207.4 L356.8,202.5 L358.5,210.1 L360.2,204.9 L361.9,211.3 L363.6,209.8 L365.3,207.7 L366.9,196.1 L368.6,178.7 L370.3,169.5 L372.0,175.6 L373.7,189.7 L375.1,206.1 L376.8,229.3 L378.5,226.0 L380.2,233.3 L381.9,236.3 L383.6,237.9 L385.3,233.3 L387.0,225.4 L388.7,214.4 L390.4,219.6 L392.1,206.4 L393.8,212.5 L395.5,194.2 L397.1,209.2 L398.8,197.9 L400.5,195.5 L402.2,202.8 L403.9,214.1 L405.6,193.6 L407.3,196.1 L409.0,153.0 L410.7,147.2 L412.4,142.4 L414.1,154.0 L415.8,208.9 L417.5,221.1 L419.2,225.4 L420.9,236.9 L422.6,241.2 L424.2,247.6 L425.9,231.5 L427.6,241.2 L429.3,250.7 L431.0,244.0 L432.7,235.7 L434.4,222.6 L436.1,208.6 L437.8,214.1 L439.5,219.6 L441.2,195.8 L442.9,191.2 L444.6,202.5 L446.3,219.9 L448.0,218.6 L449.7,231.1 L451.3,225.7 L453.0,228.1 L454.7,226.0 L456.4,234.8 L458.1,254.6 L459.8,255.3 L461.5,245.5 L463.2,262.0 L464.9,259.2 L466.6,244.3 L468.3,244.9 L470.0,244.9 L471.7,255.6 L473.4,250.1 L475.1,242.4 L476.8,238.8 L478.4,240.0 L480.1,243.4 L481.8,216.5 L483.5,215.3 L485.2,187.8 L486.9,199.4 L488.6,217.4 L490.3,236.6 L492.0,235.4 L493.7,236.0 L495.4,236.3 L497.1,227.2 L498.8,217.1 L500.5,241.2 L502.2,244.6 L503.9,251.0 L505.5,251.0 L507.2,244.6 L508.9,240.0 L510.6,235.4 L512.3,225.0 L514.0,222.3 L515.7,216.8 L517.4,207.0 L519.1,233.6 L520.8,223.8 L522.5,190.6 L524.2,214.4 L525.9,201.2 L527.6,204.3 L529.3,225.4 L531.0,230.2 L532.6,246.1 L534.3,245.8 L536.0,247.9 L537.7,250.4 L539.4,264.1 L541.1,262.3 L542.8,246.1 L544.5,247.6 L546.2,247.0 L547.9,247.9 L549.6,245.8 L551.3,226.9 L553.0,222.0 L554.7,216.2 L556.4,210.7 L558.1,219.9 L559.7,203.1 L561.4,205.8 L563.1,217.7 L564.8,218.6 L566.5,204.9 L568.2,220.2 L569.9,237.6 L571.6,229.6 L573.3,230.2 L575.0,250.7 L576.7,252.2 L578.4,247.6 L580.1,261.0 L581.8,254.6 L583.5,246.7 L585.2,244.9 L586.8,238.8 L588.5,243.0 L590.2,231.8 L591.9,216.8 L593.6,214.4 L595.3,215.6 L597.0,214.7 L598.7,208.9 L600.4,204.6 L602.1,208.9 L603.8,190.6 L605.5,184.5 L607.2,190.0 L608.9,213.5 L610.6,229.9 L612.3,242.7 L613.9,226.0 L615.6,229.9 L617.3,242.7 L619.0,244.0 L620.7,261.0 L622.4,260.4 L624.1,260.7 L625.8,260.1 L627.5,259.2 L629.2,258.0 L630.9,246.7 L632.6,228.4 L634.3,223.2 L636.0,225.4 L637.7,219.6 L639.4,219.9 L641.0,219.2 L642.7,202.5 L644.4,187.5 L646.1,174.1 L647.8,184.5 L649.5,200.0 L651.2,186.6 L652.9,185.7 L654.6,179.3 L656.3,183.9 L658.0,207.0 L659.7,211.9 L661.4,218.0 L663.1,226.9 L664.8,227.2 L666.5,233.0 L668.1,225.7 L669.8,228.4 L671.5,213.5 L673.2,190.6 L674.9,190.0 L676.6,189.7 L678.3,187.2 L680.0,187.2" stroke="#8c564b" stroke-width="2" fill="none" opacity="0.8"/>
<!-- Forecast Difference -->
<path d="M81.7,420.0 L83.4,420.0 L85.1,420.0 L86.8,420.0 L88.5,420.0 L118.0,420.0 L119.7,420.0 L121.4,420.0 L123.0,420.0 L124.7,420.0 L126.4,420.0 L128.1,420.0 L129.8,420.0 L131.5,420.0 L133.2,420.0 L134.9,420.0 L136.6,420.0 L138.3,420.0 L140.0,420.0 L141.7,420.0 L143.4,420.0 L145.1,420.0 L146.8,420.0 L148.5,420.0 L150.1,420.0 L151.8,420.0 L153.5,420.0 L155.2,420.0 L156.9,420.0 L158.6,420.0 L160.3,420.0 L162.0,420.0 L163.7,420.0 L165.4,420.0 L167.1,420.0 L168.8,420.0 L170.5,420.0 L172.2,420.0 L173.9,420.0 L175.6,420.0 L177.2,420.0 L178.9,420.0 L180.6,420.0 L182.3,420.0 L184.0,420.0 L185.7,420.0 L187.4,420.0 L189.1,420.0 L190.8,420.0 L192.5,420.0 L194.2,420.0 L195.9,420.0 L197.6,420.0 L199.3,420.0 L201.0,420.0 L202.7,420.0 L204.3,420.0 L206.0,420.0 L207.7,420.0 L209.4,420.0 L211.1,420.0 L212.8,420.0 L214.5,420.0 L216.2,420.0 L217.9,420.0 L219.6,420.0 L221.3,420.0 L223.0,420.0 L224.7,420.0 L226.4,420.0 L228.1,420.0 L229.8,420.0 L231.4,420.0 L233.1,420.0 L234.8,420.0 L236.5,420.0 L238.2,420.0 L239.9,420.0 L241.6,420.0 L243.3,420.0 L245.0,420.0 L246.7,420.0 L248.4,420.0 L250.1,420.0 L251.8,420.0 L253.5,420.0 L255.2,420.0 L256.9,420.0 L258.5,420.0 L260.2,420.0 L261.9,420.0 L263.6,420.0 L265.3,420.0 L267.0,420.0 L268.7,420.0 L270.4,420.0 L272.1,420.0 L273.8,420.0 L275.5,420.0 L277.2,420.0 L278.9,420.0 L280.6,420.0 L282.3,420.0 L284.0,420.0 L285.6,420.0 L287.3,420.0 L289.0,420.0 L290.7,420.0 L292.4,420.0 L294.1,420.0 L295.8,420.0 L297.5,420.0 L299.2,420.0 L300.9,420.0 L302.6,420.0 L304.3,420.0 L306.0,420.0 L307.7,420.0 L309.4,420.0 L311.1,420.0 L312.7,420.0 L314.4,420.0 L316.1,420.0 L317.8,420.0 L319.5,420.0 L321.2,420.0 L322.9,420.0 L324.6,420.0 L326.3,420.0 L328.0,420.0 L329.7,420.0 L331.4,420.0 L333.1,420.0 L334.8,420.0 L336.5,420.0 L338.2,420.0 L339.8,420.0 L341.5,420.0 L343.2,420.0 L344.9,420.0 L346.6,420.0 L348.3,420.0 L350.0,420.0 L351.7,420.0 L353.4,420.0 L355.1,420.0 L356.8,420.0 L358.5,420.0 L360.2,420.0 L361.9,420.0 L363.6,420.0 L365.3,420.0 L366.9,420.0 L368.6,420.0 L370.3,420.0 L372.0,420.0 L373.7,420.0 L375.1,420.0 L376.8,420.0 L378.5,420.0 L380.2,420.0 L381.9,420.0 L383.6,420.0 L385.3,420.0 L387.0,420.0 L388.7,420.0 L390.4,420.0 L392.1,420.0 L393.8,420.0 L395.5,420.0 L397.1,420.0 L398.8,420.0 L400.5,420.0 L402.2,420.0 L403.9,420.0 L405.6,420.0 L407.3,420.0 L409.0,420.0 L410.7,420.0 L412.4,420.0 L414.1,420.0 L415.8,420.0 L417.5,420.0 L419.2,420.0 L420.9,420.0 L422.6,420.0 L424.2,420.0 L425.9,420.0 L427.6,420.0 L429.3,420.0 L431.0,420.0 L432.7,420.0 L434.4,420.0 L436.1,420.0 L437.8,420.0 L439.5,420.0 L441.2,420.0 L442.9,420.0 L444.6,420.0 L446.3,420.0 L448.0,420.0 L449.7,420.0 L451.3,420.0 L453.0,420.0 L454.7,420.0 L456.4,420.0 L458.1,420.0 L459.8,420.0 L461.5,420.0 L463.2,420.0 L464.9,420.0 L466.6,420.0 L468.3,420.0 L470.0,420.0 L471.7,420.0 L473.4,420.0 L475.1,420.0 L476.8,420.0 L478.4,420.0 L480.1,420.0 L481.8,420.0 L483.5,420.0 L485.2,420.0 L486.9,420.0 L488.6,420.0 L490.3,420.0 L492.0,420.0 L493.7,420.0 L495.4,420.0 L497.1,420.0 L498.8,420.0 L500.5,420.0 L502.2,420.0 L503.9,420.0 L505.5,420.0 L507.2,420.0 L508.9,420.0 L510.6,420.0 L512.3,420.0 L514.0,420.0 L515.7,420.0 L517.4,420.0 L519.1,420.0 L520.8,420.0 L522.5,420.0 L524.2,420.0 L525.9,420.0 L527.6,420.0 L529.3,420.0 L531.0,420.0 L532.6,420.0 L534.3,420.0 L536.0,420.0 L537.7,420.0 L539.4,420.0 L541.1,420.0 L542.8,420.0 L544.5,420.0 L546.2,420.0 L547.9,420.0 L549.6,420.0 L551.3,420.0 L553.0,420.0 L554.7,420.0 L556.4,420.0 L558.1,420.0 L559.7,420.0 L561.4,420.0 L563.1,420.0 L564.8,420.0 L566.5,420.0 L568.2,420.0 L569.9,420.0 L571.6,420.0 L573.3,420.0 L575.0,420.0 L576.7,420.0 L578.4,420.0 L580.1,420.0 L581.8,420.0 L583.5,420.0 L585.2,420.0 L586.8,420.0 L588.5,420.0 L590.2,420.0 L591.9,420.0 L593.6,420.0 L595.3,420.0 L597.0,420.0 L598.7,420.0 L600.4,420.0 L602.1,420.0 L603.8,420.0 L605.5,420.0 L607.2,420.0 L608.9,420.0 L610.6,420.0 L612.3,420.0 L613.9,420.0 L615.6,420.0 L617.3,420.0 L619.0,420.0 L620.7,420.0 L622.4,420.0 L624.1,420.0 L625.8,420.0 L627.5,420.0 L629.2,420.0 L630.9,420.0 L632.6,420.0 L634.3,420.0 L636.0,420.0 L637.7,420.0 L639.4,420.0 L641.0,420.0 L642.7,420.0 L644.4,420.0 L646.1,420.0 L647.8,420.0 L649.5,420.0 L651.2,420.0 L652.9,420.0 L654.6,420.0 L656.3,420.0 L658.0,420.0 L659.7,420.0 L661.4,420.0 L663.1,420.0 L664.8,420.0 L666.5,420.0 L668.1,420.0 L669.8,420.0 L671.5,420.0 L673.2,420.0 L674.9,420.0 L676.6,420.0 L678.3,420.0 L680.0,420.0" stroke="#e377c2" stroke-width="2" fill="none" opacity="0.8"/>

<!-- Legend -->
<line x1="690" y1="70" x2="705" y2="70" stroke="#1f77b4" stroke-width="3"/>
<text x="710" y="74" class="legend">Wind Generation</text>
<line x1="690" y1="88" x2="705" y2="88" stroke="#ff7f0e" stroke-width="3"/>
<text x="710" y="92" class="legend">Hydro Generation</text>
<line x1="690" y1="106" x2="705" y2="106" stroke="#2ca02c" stroke-width="3"/>
<text x="710" y="110" class="legend">Thermal Generation</text>
<line x1="690" y1="124" x2="705" y2="124" stroke="#d62728" stroke-width="3"/>
<text x="710" y="128" class="legend">Solar Generation</text>
<line x1="690" y1="142" x2="705" y2="142" stroke="#9467bd" stroke-width="3"/>
<text x="710" y="146" class="legend">Forecast</text>
<line x1="690" y1="160" x2="705" y2="160" stroke="#8c564b" stroke-width="3"/>
<text x="710" y="164" class="legend">Total Generation</text>
<line x1="690" y1="178" x2="705" y2="178" stroke="#e377c2" stroke-width="3"/>
<text x="710" y="182" class="legend">Forecast Difference</text>

<!-- Date range -->
<text x="80" y="495" class="legend">Range: 08/18 - 09/02/2025 (340 records)</text>
</svg>