<?xml version="1.0" encoding="UTF-8"?>
<svg width="800" height="500" xmlns="http://www.w3.org/2000/svg">
<style>
.axis-line { stroke: #333; stroke-width: 1; }
.grid-line { stroke: #ddd; stroke-width: 0.5; }
.title { font: 16px Arial; text-anchor: middle; fill: #333; }
.axis-label { font: 12px Arial; text-anchor: middle; fill: #666; }
.legend { font: 10px Arial; fill: #333; }
</style>

<!-- Title -->
<text x="400.0" y="25" class="title">Northwestern Energy Generation Data - Past 30 Days</text>

<!-- Plot area background -->
<rect x="80" y="50" width="600" height="370" fill="white" stroke="#ddd"/>

<!-- Y-axis -->
<line x1="80" y1="50" x2="80" y2="420" class="axis-line"/>
<text x="30" y="235.0" class="axis-label" transform="rotate(-90, 30, 235.0)">Generation (MW)</text>

<!-- X-axis -->
<line x1="80" y1="420" x2="680" y2="420" class="axis-line"/>
<text x="380.0" y="480" class="axis-label">Time</text>
<line x1="80" y1="420.0" x2="680" y2="420.0" class="grid-line"/>
<text x="70" y="425.0" class="legend" text-anchor="end">0</text>
<line x1="80" y1="327.5" x2="680" y2="327.5" class="grid-line"/>
<text x="70" y="332.5" class="legend" text-anchor="end">259</text>
<line x1="80" y1="235.0" x2="680" y2="235.0" class="grid-line"/>
<text x="70" y="240.0" class="legend" text-anchor="end">518</text>
<line x1="80" y1="142.5" x2="680" y2="142.5" class="grid-line"/>
<text x="70" y="147.5" class="legend" text-anchor="end">777</text>
<line x1="80" y1="50.0" x2="680" y2="50.0" class="grid-line"/>
<text x="70" y="55.0" class="legend" text-anchor="end">1036</text>
<!-- Wind Generation -->
<path d="M80.0,409.3 L80.8,413.2 L81.7,401.8 L82.5,388.2 L83.4,395.0 L84.2,391.4 L85.0,356.8 L85.9,358.2 L86.7,353.2 L87.6,359.3 L88.4,383.6 L89.3,394.7 L90.1,402.9 L90.9,407.9 L91.8,411.4 L92.6,417.9 L93.5,411.1 L94.3,414.6 L95.1,404.3 L96.0,410.7 L96.8,415.0 L97.7,411.8 L98.5,407.1 L99.4,405.7 L100.2,401.1 L101.0,401.1 L101.9,387.2 L102.7,392.2 L103.6,385.7 L104.4,382.5 L105.2,378.6 L106.1,372.9 L106.9,381.1 L107.8,379.7 L108.6,387.5 L109.5,401.1 L110.3,404.6 L111.1,415.4 L112.0,417.1 L112.8,419.3 L113.7,420.0 L114.5,420.0 L115.3,420.0 L116.2,420.0 L117.0,418.9 L117.9,419.3 L118.7,418.2 L119.6,413.6 L120.4,399.6 L121.2,387.9 L122.1,365.4 L122.9,360.4 L123.8,375.7 L124.6,367.2 L125.4,366.1 L126.3,396.1 L127.1,417.5 L128.0,418.2 L128.8,405.4 L129.6,403.9 L130.5,398.9 L131.3,377.5 L132.2,371.1 L133.0,353.6 L133.9,319.7 L134.7,312.5 L135.5,304.3 L136.4,302.9 L137.2,299.0 L138.1,307.2 L138.9,311.1 L139.7,314.0 L140.6,317.2 L141.4,307.5 L142.3,315.4 L143.1,310.4 L144.0,316.1 L144.8,336.8 L145.6,363.9 L146.5,376.4 L147.3,387.2 L148.2,397.9 L149.0,407.5 L149.8,406.4 L150.7,405.7 L151.5,403.2 L152.4,402.1 L153.2,403.9 L154.1,411.4 L154.9,413.6 L155.7,417.9 L156.6,420.0 L157.4,420.0 L158.3,420.0 L159.1,418.2 L159.9,417.1 L160.8,412.9 L161.6,416.4 L162.5,417.9 L163.3,418.9 L164.2,415.7 L165.0,410.7 L165.8,396.4 L166.7,373.2 L167.5,367.9 L168.4,373.6 L169.2,391.1 L170.0,401.4 L170.9,417.5 L171.7,420.0 L172.6,420.0 L173.4,420.0 L174.2,420.0 L175.1,419.3 L175.9,419.6 L176.8,419.3 L177.6,418.6 L178.5,418.9 L179.3,418.2 L180.1,417.1 L181.0,413.9 L181.8,413.6 L182.7,410.0 L183.5,406.8 L184.3,399.3 L185.2,380.0 L186.0,358.9 L186.9,359.3 L187.7,373.2 L188.6,396.8 L189.4,415.0 L190.2,420.0 L191.1,420.0 L191.9,418.9 L192.8,417.5 L193.6,411.1 L194.4,399.3 L195.3,377.5 L196.1,368.6 L197.0,350.7 L197.8,346.5 L198.7,317.2 L199.5,335.7 L200.3,326.1 L201.2,341.1 L202.0,350.7 L202.9,342.5 L203.7,350.7 L204.5,392.5 L205.4,410.0 L206.2,411.4 L207.1,402.1 L207.9,402.1 L208.8,368.2 L209.6,317.9 L210.4,353.2 L211.3,307.9 L212.1,317.9 L213.0,351.1 L213.8,337.2 L214.6,315.7 L215.5,320.0 L216.3,354.3 L217.2,365.0 L218.0,380.7 L218.8,385.0 L219.7,389.7 L220.5,373.9 L221.4,380.0 L222.2,368.6 L223.1,352.9 L223.9,363.6 L224.7,381.8 L225.6,400.7 L226.4,405.7 L227.3,403.2 L228.1,408.6 L228.9,416.4 L229.8,415.7 L230.6,418.9 L231.5,419.6 L232.3,419.6 L233.2,420.0 L234.0,420.0 L234.8,419.6 L235.7,418.9 L236.5,418.9 L237.4,420.0 L238.2,420.0 L239.0,418.6 L239.9,410.4 L240.7,401.1 L241.6,396.4 L242.4,397.9 L243.3,386.4 L244.1,384.3 L244.9,375.7 L245.8,375.4 L246.6,347.2 L247.5,376.8 L248.3,350.0 L249.1,366.8 L250.0,401.4 L250.8,408.9 L251.7,409.3 L252.5,413.9 L253.4,403.2 L254.2,400.0 L255.0,408.6 L255.9,410.4 L256.7,414.6 L257.6,417.5 L258.4,419.6 L259.2,419.3 L260.1,420.0 L260.9,420.0 L261.8,419.3 L262.6,419.6 L263.5,418.2 L264.3,416.1 L265.1,418.9 L266.0,402.1 L266.8,400.4 L267.7,398.2 L268.5,406.1 L269.3,404.3 L270.2,399.3 L271.0,397.5 L271.9,412.1 L272.7,416.4 L273.5,407.1 L274.4,409.3 L275.2,415.7 L276.1,413.2 L276.9,364.7 L277.8,390.4 L278.6,405.0 L279.4,383.2 L280.3,411.4 L281.1,415.0 L282.0,416.8 L282.8,416.8 L283.6,412.1 L284.5,406.1 L285.3,402.9 L286.2,407.5 L287.0,413.9 L287.9,417.5 L288.7,413.6 L289.5,415.0 L290.4,412.9 L291.2,417.9 L292.1,417.9 L292.9,419.6 L293.7,420.0 L294.6,419.3 L295.4,418.9 L296.3,410.7 L297.1,407.5 L298.0,418.6 L298.8,419.3 L299.6,419.3 L300.5,420.0 L301.3,418.6 L302.2,417.5 L303.0,401.1 L303.8,390.7 L304.7,344.7 L305.5,385.7 L306.4,391.4 L307.2,396.8 L308.1,409.3 L308.9,407.5 L309.7,402.9 L310.6,397.5 L311.4,404.6 L312.3,415.4 L313.1,418.6 L313.9,418.2 L314.8,418.6 L315.6,414.3 L316.5,408.6 L317.3,402.5 L318.1,413.9 L319.0,413.9 L319.8,412.5 L320.7,412.9 L321.5,415.7 L322.4,416.8 L323.2,418.6 L324.0,418.9 L324.9,417.1 L325.7,413.9 L326.6,414.6 L327.4,410.7 L328.2,416.1 L329.1,414.6 L329.9,417.5 L330.8,413.2 L331.6,412.9 L332.5,412.5 L333.3,412.1 L334.1,407.9 L335.0,398.6 L335.8,401.4 L336.7,404.6 L337.5,398.9 L338.3,403.2 L339.2,398.2 L340.0,378.9 L340.9,363.9 L341.7,367.2 L342.6,345.4 L343.4,352.9 L344.2,361.8 L345.1,375.7 L345.9,394.7 L346.8,405.4 L347.6,416.1 L348.4,412.5 L349.3,391.1 L350.1,283.3 L351.0,307.5 L351.8,310.4 L352.7,343.6 L353.5,337.9 L354.3,326.8 L355.2,336.1 L356.0,308.3 L356.9,314.7 L357.7,339.7 L358.5,363.6 L359.4,366.4 L360.2,364.3 L361.1,355.4 L361.9,358.9 L362.7,370.4 L363.6,363.9 L364.4,377.9 L365.3,390.7 L366.1,368.2 L367.0,373.6 L367.8,370.4 L368.6,368.6 L369.5,370.4 L370.3,355.0 L371.2,353.6 L372.0,359.7 L372.8,345.7 L373.7,339.3 L374.5,337.9 L375.4,331.5 L376.2,378.9 L377.1,392.9 L377.9,392.5 L378.7,380.0 L379.6,390.4 L380.4,397.5 L381.3,389.7 L382.1,385.0 L382.9,398.6 L383.8,383.9 L384.6,379.7 L385.5,392.2 L386.3,402.1 L387.2,397.2 L388.0,399.6 L388.8,391.1 L389.7,407.9 L390.5,410.7 L391.4,415.7 L392.2,406.4 L393.0,403.2 L393.9,395.0 L394.7,407.1 L395.6,401.1 L396.4,398.6 L397.3,396.8 L398.1,398.6 L398.9,409.3 L399.8,416.4 L400.6,419.3 L401.5,420.0 L402.3,419.6 L403.1,420.0 L404.0,419.6 L404.8,420.0 L405.7,420.0 L406.5,420.0 L407.3,418.2 L408.2,402.1 L409.0,400.0 L409.9,405.7 L410.7,405.7 L411.6,408.2 L412.4,412.1 L413.2,418.9 L414.1,419.6 L414.9,419.3 L415.8,418.6 L416.6,416.8 L417.4,417.9 L418.3,417.1 L419.1,415.4 L420.0,416.8 L420.8,417.9 L421.7,417.5 L422.5,418.2 L423.3,414.3 L424.2,414.3 L425.0,411.8 L425.9,406.4 L426.7,399.6 L427.5,394.7 L428.4,365.4 L429.2,350.4 L430.1,373.6 L430.9,406.4 L431.8,412.5 L432.6,417.1 L433.4,420.0 L434.3,420.0 L435.1,419.3 L436.0,419.3 L436.8,417.1 L437.6,417.1 L438.5,418.2 L439.3,416.8 L440.2,420.0 L441.0,417.9 L441.9,416.8 L442.7,416.1 L443.5,417.1 L444.4,417.5 L445.2,418.6 L446.1,415.4 L446.9,410.4 L447.7,406.8 L448.6,393.9 L449.4,387.9 L450.3,392.2 L451.1,400.0 L451.9,406.4 L452.8,414.6 L453.6,417.9 L454.5,419.6 L455.3,419.3 L456.2,418.2 L457.0,416.8 L457.8,413.2 L458.7,411.1 L459.5,409.3 L460.4,416.1 L461.2,415.7 L462.0,407.5 L462.9,390.7 L463.7,373.2 L464.6,376.8 L465.4,377.5 L466.3,360.4 L467.1,353.6 L467.9,371.4 L468.8,383.2 L469.6,388.9 L470.5,396.4 L471.3,375.0 L472.1,390.4 L473.0,381.4 L473.8,371.8 L474.7,372.2 L475.5,345.0 L476.4,360.0 L477.2,360.4 L478.0,361.8 L478.9,367.9 L479.7,374.7 L480.6,385.4 L481.4,375.7 L482.2,378.9 L483.1,382.2 L483.9,387.5 L484.8,396.8 L485.6,400.0 L486.5,407.5 L487.3,409.6 L488.1,349.7 L489.0,287.9 L489.8,284.7 L490.7,292.9 L491.5,332.9 L492.3,341.8 L493.2,332.2 L494.0,321.5 L494.9,327.9 L495.7,335.7 L496.5,327.5 L497.4,339.0 L498.2,313.3 L499.1,341.5 L499.9,348.6 L500.8,342.5 L501.6,349.0 L502.4,366.4 L503.3,356.8 L504.1,346.1 L505.0,331.8 L505.8,344.7 L506.6,349.7 L507.5,365.7 L508.3,389.3 L509.2,398.9 L510.0,392.2 L510.9,404.6 L511.7,410.0 L512.5,411.1 L513.4,410.4 L514.2,412.9 L515.1,412.5 L515.9,404.3 L516.7,400.7 L517.6,406.4 L518.4,398.9 L519.3,390.0 L520.1,399.3 L521.0,404.6 L521.8,395.4 L522.6,398.9 L523.5,407.5 L524.3,411.8 L525.2,415.0 L526.0,417.1 L526.8,417.1 L527.7,415.4 L528.5,411.8 L529.4,403.6 L530.2,402.1 L531.1,402.5 L531.9,406.8 L532.7,401.1 L533.6,397.9 L534.4,395.0 L535.3,390.4 L536.1,382.9 L536.9,362.9 L537.8,351.5 L538.6,354.3 L539.5,336.1 L540.3,327.9 L541.2,318.2 L542.8,341.8 L543.7,345.0 L544.5,334.0 L545.4,348.6 L546.2,356.8 L547.0,356.5 L547.9,345.7 L548.7,349.3 L549.6,370.4 L550.4,394.7 L551.2,405.4 L552.1,407.1 L552.9,400.4 L553.8,386.1 L554.6,374.7 L555.5,368.2 L556.3,345.0 L557.1,353.2 L558.0,372.2 L558.8,402.1 L559.7,410.0 L560.5,414.6 L561.3,416.4 L562.2,417.5 L563.0,416.8 L563.9,412.9 L564.7,412.9 L565.6,406.4 L566.4,399.3 L567.2,394.7 L568.1,385.7 L568.9,380.0 L569.8,380.0 L570.6,391.1 L571.4,395.4 L572.3,384.7 L573.1,350.7 L574.0,323.6 L574.8,303.3 L575.7,295.8 L576.5,330.7 L577.3,313.3 L578.2,309.7 L579.0,304.7 L579.9,307.5 L580.7,301.5 L581.5,323.2 L582.4,319.7 L583.2,297.2 L584.1,313.6 L584.9,320.0 L585.8,325.7 L586.6,277.5 L587.4,294.7 L588.3,316.8 L589.1,368.6 L590.0,370.4 L590.8,369.7 L591.6,376.8 L592.5,366.8 L593.3,373.6 L594.2,351.5 L595.0,324.3 L595.8,306.1 L596.7,295.8 L597.5,294.7 L598.4,291.1 L599.2,306.5 L600.1,331.5 L600.9,342.5 L601.7,331.8 L602.6,346.5 L603.4,361.1 L604.3,388.6 L605.1,403.2 L605.9,406.8 L606.8,406.8 L607.6,410.4 L608.5,410.4 L609.3,401.4 L610.2,389.7 L611.0,392.9 L611.8,399.6 L612.7,412.9 L613.5,417.5 L614.4,414.6 L615.2,411.4 L616.0,413.2 L616.9,404.3 L617.7,398.6 L618.6,382.2 L619.4,366.4 L620.3,365.4 L621.1,370.0 L621.9,386.1 L622.8,376.1 L623.6,371.8 L624.5,368.2 L625.3,373.2 L626.1,373.9 L627.0,381.4 L627.8,375.7 L628.7,355.0 L629.5,350.7 L630.4,351.1 L631.2,361.1 L632.0,384.7 L632.9,387.2 L633.7,380.0 L634.6,395.4 L635.4,405.0 L636.2,407.1 L637.1,412.5 L637.9,413.6 L638.8,417.9 L639.6,417.9 L640.4,418.2 L641.3,418.9 L642.1,419.6 L643.0,416.4 L643.8,413.2 L644.7,412.9 L645.5,410.0 L646.3,407.1 L647.2,404.3 L648.0,404.6 L648.9,380.4 L649.7,383.9 L650.5,383.2 L651.4,391.8 L652.2,406.1 L653.1,413.9 L653.9,397.2 L654.8,406.8 L655.6,408.9 L656.4,402.1 L657.3,402.9 L658.1,408.2 L659.0,413.9 L659.8,413.9 L660.6,411.1 L661.5,403.9 L662.3,397.2 L663.2,379.7 L664.0,370.7 L664.9,325.0 L665.7,296.1 L666.5,303.3 L667.4,295.8 L668.2,289.7 L669.1,317.5 L669.9,335.0 L670.7,343.2 L671.6,356.1 L672.4,386.8 L673.3,370.7 L674.1,354.7 L675.0,360.7 L675.8,343.2 L676.6,365.0 L677.5,357.2 L678.3,359.7 L679.2,361.1 L680.0,346.8" stroke="#1f77b4" stroke-width="2" fill="none" opacity="0.8"/>
<!-- Hydro Generation -->
<path d="M80.0,344.0 L80.8,344.0 L81.7,344.0 L82.5,343.6 L83.4,343.6 L84.2,343.6 L85.0,343.6 L85.9,344.0 L86.7,342.9 L87.6,342.5 L88.4,342.9 L89.3,342.5 L90.1,341.1 L90.9,341.1 L91.8,338.6 L92.6,339.7 L93.5,338.6 L94.3,338.2 L95.1,337.9 L96.0,337.9 L96.8,338.6 L97.7,339.0 L98.5,339.0 L99.4,339.7 L100.2,340.0 L101.0,340.0 L101.9,340.4 L102.7,341.1 L103.6,341.1 L104.4,342.5 L105.2,342.5 L106.1,342.5 L106.9,344.0 L107.8,343.6 L108.6,343.2 L109.5,344.0 L110.3,343.6 L111.1,343.6 L112.0,343.6 L112.8,343.6 L113.7,344.0 L114.5,344.0 L115.3,344.3 L116.2,344.3 L117.0,345.0 L117.9,344.7 L118.7,344.3 L119.6,344.7 L120.4,344.0 L121.2,349.0 L122.1,349.3 L122.9,344.0 L123.8,342.9 L124.6,343.6 L125.4,344.0 L126.3,343.6 L127.1,343.6 L128.0,343.6 L128.8,343.6 L129.6,342.9 L130.5,342.9 L131.3,342.5 L132.2,341.8 L133.0,342.2 L133.9,342.2 L134.7,342.5 L135.5,342.9 L136.4,343.2 L137.2,342.9 L138.1,342.9 L138.9,342.9 L139.7,344.3 L140.6,344.3 L141.4,344.3 L142.3,344.7 L143.1,344.7 L144.0,344.3 L144.8,342.2 L145.6,345.4 L146.5,345.0 L147.3,346.5 L148.2,347.2 L149.0,347.2 L149.8,347.2 L150.7,347.2 L151.5,346.8 L152.4,345.0 L153.2,345.0 L154.1,344.7 L154.9,344.7 L155.7,344.3 L156.6,344.3 L157.4,343.6 L158.3,343.2 L159.1,342.2 L159.9,341.8 L160.8,342.2 L161.6,341.8 L162.5,342.9 L163.3,342.5 L164.2,341.8 L165.0,342.5 L165.8,342.5 L166.7,342.2 L167.5,341.8 L168.4,342.9 L169.2,342.9 L170.0,342.9 L170.9,343.2 L171.7,343.2 L172.6,343.6 L173.4,344.3 L174.2,344.3 L175.1,344.3 L175.9,345.0 L176.8,345.4 L177.6,345.0 L178.5,345.0 L179.3,346.1 L180.1,346.5 L181.0,346.1 L181.8,346.5 L182.7,346.5 L183.5,345.7 L184.3,345.4 L185.2,345.7 L186.0,346.1 L186.9,345.4 L187.7,345.0 L188.6,344.3 L189.4,344.3 L190.2,344.3 L191.1,344.7 L191.9,344.3 L192.8,343.2 L193.6,343.2 L194.4,343.2 L195.3,343.2 L196.1,344.3 L197.0,344.3 L197.8,344.0 L198.7,343.2 L199.5,343.6 L200.3,342.2 L201.2,343.2 L202.0,342.5 L202.9,342.5 L203.7,341.8 L204.5,341.8 L205.4,342.2 L206.2,342.5 L207.1,343.2 L207.9,343.6 L208.8,344.0 L209.6,343.6 L210.4,346.8 L211.3,343.2 L212.1,343.2 L213.0,342.9 L213.8,343.2 L214.6,342.5 L215.5,342.5 L216.3,342.5 L217.2,342.9 L218.0,343.6 L218.8,343.2 L219.7,343.6 L220.5,343.2 L221.4,342.9 L222.2,344.0 L223.1,343.2 L223.9,343.2 L224.7,343.6 L225.6,342.9 L226.4,342.5 L227.3,342.5 L228.1,342.5 L228.9,342.9 L229.8,342.5 L230.6,342.9 L231.5,343.6 L232.3,343.6 L233.2,343.6 L234.0,344.0 L234.8,343.2 L235.7,343.2 L236.5,344.0 L237.4,344.0 L238.2,343.6 L239.0,343.2 L239.9,343.2 L240.7,342.9 L241.6,343.6 L242.4,343.2 L243.3,342.5 L244.1,342.2 L244.9,342.2 L245.8,343.2 L246.6,342.9 L247.5,343.2 L248.3,344.0 L249.1,344.7 L250.0,344.7 L250.8,344.7 L251.7,345.0 L252.5,344.7 L253.4,344.7 L254.2,344.7 L255.0,344.3 L255.9,344.0 L256.7,344.0 L257.6,344.0 L258.4,344.0 L259.2,345.7 L260.1,345.7 L260.9,345.0 L261.8,345.4 L262.6,346.1 L263.5,346.5 L264.3,345.7 L265.1,345.7 L266.0,346.1 L266.8,346.5 L267.7,346.1 L268.5,346.8 L269.3,346.8 L270.2,347.5 L271.0,347.2 L271.9,347.2 L272.7,347.2 L273.5,346.8 L274.4,347.5 L275.2,347.2 L276.1,346.8 L276.9,347.5 L277.8,346.8 L278.6,346.1 L279.4,345.7 L280.3,345.7 L281.1,346.5 L282.0,346.1 L282.8,346.5 L283.6,345.4 L284.5,346.1 L285.3,345.4 L286.2,345.7 L287.0,345.7 L287.9,346.5 L288.7,346.5 L289.5,346.5 L290.4,346.1 L291.2,346.5 L292.1,346.5 L292.9,346.5 L293.7,346.8 L294.6,346.5 L295.4,346.8 L296.3,346.8 L297.1,346.8 L298.0,346.5 L298.8,346.5 L299.6,346.5 L300.5,346.1 L301.3,346.5 L302.2,346.5 L303.0,346.1 L303.8,346.1 L304.7,345.7 L305.5,346.1 L306.4,345.7 L307.2,346.1 L308.1,347.5 L308.9,347.5 L309.7,347.5 L310.6,347.5 L311.4,347.5 L312.3,347.5 L313.1,347.5 L313.9,347.5 L314.8,347.5 L315.6,347.2 L316.5,347.2 L317.3,348.2 L318.1,348.2 L319.0,347.5 L319.8,347.9 L320.7,347.9 L321.5,348.2 L322.4,348.2 L323.2,347.5 L324.0,347.5 L324.9,346.8 L325.7,346.8 L326.6,346.5 L327.4,346.1 L328.2,346.1 L329.1,345.0 L329.9,345.0 L330.8,343.6 L331.6,343.6 L332.5,343.2 L333.3,343.2 L334.1,343.6 L335.0,343.6 L335.8,342.9 L336.7,342.9 L337.5,342.2 L338.3,341.8 L339.2,342.2 L340.0,341.8 L340.9,341.8 L341.7,342.2 L342.6,342.5 L343.4,345.0 L344.2,345.0 L345.1,344.7 L345.9,344.3 L346.8,344.0 L347.6,344.3 L348.4,344.3 L349.3,345.0 L350.1,344.3 L351.0,344.3 L351.8,344.3 L352.7,342.2 L353.5,342.2 L354.3,342.2 L355.2,342.2 L356.0,341.8 L356.9,342.2 L357.7,350.4 L358.5,350.7 L359.4,349.3 L360.2,349.7 L361.1,349.7 L361.9,349.7 L362.7,350.7 L363.6,350.7 L364.4,351.1 L365.3,351.1 L366.1,350.0 L367.0,349.7 L367.8,349.3 L368.6,349.3 L369.5,348.6 L370.3,349.3 L371.2,349.3 L372.0,348.2 L372.8,349.0 L373.7,347.9 L374.5,348.2 L375.4,348.2 L376.2,348.6 L377.1,349.0 L377.9,348.6 L378.7,348.6 L379.6,349.7 L380.4,351.5 L381.3,350.7 L382.1,351.1 L382.9,351.8 L383.8,353.6 L384.6,353.6 L385.5,353.6 L386.3,352.9 L387.2,352.9 L388.0,353.2 L388.8,354.0 L389.7,354.0 L390.5,353.6 L391.4,354.3 L392.2,353.6 L393.0,353.2 L393.9,352.9 L394.7,351.8 L395.6,351.5 L396.4,352.2 L397.3,351.1 L398.1,352.2 L398.9,352.2 L399.8,352.2 L400.6,351.1 L401.5,351.5 L402.3,351.8 L403.1,351.1 L404.0,351.5 L404.8,351.1 L405.7,351.1 L406.5,351.1 L407.3,351.1 L408.2,351.1 L409.0,351.1 L409.9,351.5 L410.7,351.1 L411.6,351.5 L412.4,351.5 L413.2,351.5 L414.1,351.1 L414.9,351.8 L415.8,352.2 L416.6,352.9 L417.4,352.5 L418.3,354.0 L419.1,354.0 L420.0,353.6 L420.8,354.0 L421.7,354.3 L422.5,355.4 L423.3,355.4 L424.2,356.1 L425.0,356.5 L425.9,356.5 L426.7,356.5 L427.5,356.8 L428.4,357.2 L429.2,357.2 L430.1,357.2 L430.9,357.2 L431.8,356.8 L432.6,357.2 L433.4,357.2 L434.3,357.2 L435.1,357.2 L436.0,357.2 L436.8,356.5 L437.6,356.8 L438.5,356.8 L439.3,356.8 L440.2,355.7 L441.0,355.4 L441.9,355.7 L442.7,355.7 L443.5,355.7 L444.4,354.7 L445.2,355.0 L446.1,355.0 L446.9,354.3 L447.7,354.7 L448.6,355.0 L449.4,354.7 L450.3,354.3 L451.1,354.3 L451.9,354.7 L452.8,354.3 L453.6,354.0 L454.5,354.0 L455.3,354.0 L456.2,354.3 L457.0,354.0 L457.8,354.3 L458.7,355.4 L459.5,355.0 L460.4,355.0 L461.2,355.4 L462.0,355.7 L462.9,355.4 L463.7,355.4 L464.6,355.7 L465.4,355.7 L466.3,356.5 L467.1,357.2 L467.9,357.5 L468.8,357.9 L469.6,358.6 L470.5,358.2 L471.3,358.6 L472.1,358.6 L473.0,358.9 L473.8,358.9 L474.7,358.9 L475.5,358.9 L476.4,358.9 L477.2,358.6 L478.0,358.9 L478.9,359.3 L479.7,359.3 L480.6,358.9 L481.4,359.3 L482.2,358.6 L483.1,358.6 L483.9,358.6 L484.8,357.9 L485.6,357.5 L486.5,357.2 L487.3,356.8 L488.1,357.5 L489.0,357.5 L489.8,357.5 L490.7,357.5 L491.5,357.5 L492.3,357.9 L493.2,357.9 L494.0,358.2 L494.9,358.2 L495.7,358.9 L496.5,358.9 L497.4,358.9 L498.2,359.3 L499.1,360.0 L499.9,360.0 L500.8,360.0 L501.6,359.3 L502.4,359.7 L503.3,359.3 L504.1,360.0 L505.0,360.0 L505.8,359.7 L506.6,360.0 L507.5,359.7 L508.3,359.3 L509.2,359.3 L510.0,358.6 L510.9,357.2 L511.7,356.8 L512.5,357.2 L513.4,358.9 L514.2,358.9 L515.1,358.9 L515.9,358.6 L516.7,358.9 L517.6,358.9 L518.4,358.9 L519.3,358.9 L520.1,358.9 L521.0,358.6 L521.8,358.6 L522.6,358.6 L523.5,358.6 L524.3,358.9 L525.2,358.9 L526.0,358.6 L526.8,358.6 L527.7,358.2 L528.5,357.9 L529.4,358.2 L530.2,358.2 L531.1,359.7 L531.9,359.7 L532.7,360.0 L533.6,359.7 L534.4,359.7 L535.3,359.7 L536.1,359.7 L536.9,359.3 L537.8,359.7 L538.6,359.3 L539.5,360.0 L540.3,359.7 L541.2,359.7 L542.8,360.0 L543.7,359.7 L544.5,359.3 L545.4,360.0 L546.2,360.0 L547.0,360.0 L547.9,360.0 L548.7,360.0 L549.6,360.4 L550.4,358.9 L551.2,358.9 L552.1,357.9 L552.9,357.9 L553.8,359.7 L554.6,359.7 L555.5,359.7 L556.3,359.7 L557.1,359.7 L558.0,359.7 L558.8,359.7 L559.7,359.7 L560.5,360.0 L561.3,360.0 L562.2,359.7 L563.0,360.0 L563.9,360.0 L564.7,359.7 L565.6,359.3 L566.4,360.0 L567.2,359.3 L568.1,359.7 L568.9,359.7 L569.8,359.7 L570.6,358.9 L571.4,357.9 L572.3,357.9 L573.1,357.9 L574.0,358.2 L574.8,357.9 L575.7,357.5 L576.5,358.6 L577.3,358.6 L578.2,358.9 L579.0,358.6 L579.9,358.9 L580.7,358.9 L581.5,359.3 L582.4,358.9 L583.2,359.3 L584.1,360.0 L584.9,360.4 L585.8,360.4 L586.6,360.4 L587.4,360.0 L588.3,359.7 L589.1,360.0 L590.0,360.4 L590.8,360.0 L591.6,360.0 L592.5,360.0 L593.3,360.4 L594.2,360.4 L595.0,360.4 L595.8,360.0 L596.7,360.0 L597.5,360.0 L598.4,360.0 L599.2,360.4 L600.1,360.0 L600.9,360.4 L601.7,360.0 L602.6,360.4 L603.4,360.4 L604.3,360.0 L605.1,360.0 L605.9,360.0 L606.8,360.4 L607.6,360.0 L608.5,360.0 L609.3,360.0 L610.2,360.4 L611.0,358.9 L611.8,358.6 L612.7,355.7 L613.5,358.6 L614.4,360.0 L615.2,360.0 L616.0,361.4 L616.9,361.1 L617.7,361.1 L618.6,360.4 L619.4,360.0 L620.3,360.4 L621.1,360.0 L621.9,360.0 L622.8,360.4 L623.6,360.4 L624.5,360.0 L625.3,360.0 L626.1,359.7 L627.0,359.7 L627.8,360.0 L628.7,359.7 L629.5,360.0 L630.4,360.0 L631.2,360.0 L632.0,360.4 L632.9,360.4 L633.7,360.4 L634.6,360.4 L635.4,360.0 L636.2,360.0 L637.1,360.4 L637.9,360.0 L638.8,360.0 L639.6,359.7 L640.4,360.4 L641.3,360.0 L642.1,359.7 L643.0,359.7 L643.8,359.7 L644.7,359.7 L645.5,360.0 L646.3,359.7 L647.2,356.8 L648.0,360.0 L648.9,360.4 L649.7,359.7 L650.5,360.0 L651.4,360.4 L652.2,360.0 L653.1,360.0 L653.9,360.4 L654.8,360.0 L655.6,360.0 L656.4,360.0 L657.3,360.0 L658.1,363.2 L659.0,359.7 L659.8,359.7 L660.6,359.3 L661.5,359.3 L662.3,358.9 L663.2,359.3 L664.0,359.7 L664.9,359.7 L665.7,358.6 L666.5,359.3 L667.4,358.9 L668.2,358.9 L669.1,358.9 L669.9,358.9 L670.7,358.6 L671.6,358.9 L672.4,359.3 L673.3,358.9 L674.1,358.9 L675.0,358.6 L675.8,358.9 L676.6,358.9 L677.5,358.6 L678.3,358.9 L679.2,359.7 L680.0,358.9" stroke="#ff7f0e" stroke-width="2" fill="none" opacity="0.8"/>
<!-- Thermal Generation -->
<path d="M80.0,318.2 L80.8,297.9 L81.7,290.4 L82.5,289.3 L83.4,289.0 L84.2,288.3 L85.0,287.5 L85.9,283.6 L86.7,281.8 L87.6,281.5 L88.4,284.0 L89.3,279.7 L90.1,279.0 L90.9,284.3 L91.8,284.0 L92.6,283.3 L93.5,283.3 L94.3,282.9 L95.1,290.4 L96.0,284.0 L96.8,285.4 L97.7,287.9 L98.5,288.6 L99.4,290.4 L100.2,321.8 L101.0,336.1 L101.9,337.2 L102.7,338.2 L103.6,337.2 L104.4,336.1 L105.2,334.3 L106.1,332.5 L106.9,330.7 L107.8,330.0 L108.6,328.6 L109.5,329.0 L110.3,329.0 L111.1,327.9 L112.0,327.5 L112.8,330.4 L113.7,326.1 L114.5,326.5 L115.3,330.7 L116.2,331.1 L117.0,329.3 L117.9,329.3 L118.7,332.2 L119.6,320.4 L120.4,321.8 L121.2,322.5 L122.1,322.5 L122.9,321.1 L123.8,321.1 L124.6,320.0 L125.4,318.6 L126.3,318.6 L127.1,316.5 L128.0,314.7 L128.8,314.7 L129.6,317.2 L130.5,315.4 L131.3,315.4 L132.2,315.4 L133.0,316.1 L133.9,316.5 L134.7,316.5 L135.5,330.7 L136.4,350.0 L137.2,352.5 L138.1,351.8 L138.9,352.9 L139.7,350.7 L140.6,350.4 L141.4,334.0 L142.3,319.7 L143.1,321.8 L144.0,336.5 L144.8,318.6 L145.6,320.4 L146.5,317.2 L147.3,317.2 L148.2,318.2 L149.0,320.7 L149.8,318.6 L150.7,318.6 L151.5,317.2 L152.4,317.2 L153.2,316.8 L154.1,318.2 L154.9,320.0 L155.7,320.4 L156.6,330.4 L157.4,340.0 L158.3,341.1 L159.1,336.5 L159.9,338.2 L160.8,339.0 L161.6,335.7 L162.5,330.4 L163.3,321.8 L164.2,318.6 L165.0,315.4 L165.8,315.0 L166.7,313.6 L167.5,315.0 L168.4,313.6 L169.2,313.3 L170.0,339.0 L170.9,344.7 L171.7,346.1 L172.6,346.1 L173.4,346.5 L174.2,346.1 L175.1,347.5 L175.9,347.2 L176.8,344.0 L177.6,344.0 L178.5,345.7 L179.3,350.0 L180.1,351.5 L181.0,352.9 L181.8,354.0 L182.7,354.7 L183.5,331.5 L184.3,321.1 L185.2,321.1 L186.0,319.0 L186.9,320.0 L187.7,331.8 L188.6,330.0 L189.4,348.2 L190.2,328.2 L191.1,348.2 L191.9,348.2 L192.8,348.2 L193.6,349.3 L194.4,347.9 L195.3,347.5 L196.1,348.2 L197.0,348.6 L197.8,350.0 L198.7,352.2 L199.5,354.0 L200.3,354.7 L201.2,356.5 L202.0,356.5 L202.9,356.8 L203.7,356.1 L204.5,348.2 L205.4,325.0 L206.2,322.9 L207.1,325.0 L207.9,321.8 L208.8,331.1 L209.6,351.8 L210.4,352.9 L211.3,354.0 L212.1,352.5 L213.0,352.5 L213.8,352.2 L214.6,352.2 L215.5,352.5 L216.3,351.5 L217.2,349.0 L218.0,349.0 L218.8,350.7 L219.7,335.7 L220.5,322.9 L221.4,323.6 L222.2,325.7 L223.1,332.5 L223.9,327.5 L224.7,354.3 L225.6,353.2 L226.4,351.8 L227.3,351.5 L228.1,351.1 L228.9,319.3 L229.8,319.3 L230.6,318.2 L231.5,342.5 L232.3,341.5 L233.2,341.5 L234.0,342.5 L234.8,329.0 L235.7,319.7 L236.5,317.9 L237.4,318.2 L238.2,319.7 L239.0,306.5 L239.9,321.1 L240.7,306.5 L241.6,314.0 L242.4,316.1 L243.3,308.3 L244.1,309.0 L244.9,311.1 L245.8,310.4 L246.6,310.0 L247.5,309.0 L248.3,309.0 L249.1,315.0 L250.0,327.5 L250.8,327.9 L251.7,321.1 L252.5,321.5 L253.4,321.5 L254.2,306.8 L255.0,307.9 L255.9,305.8 L256.7,278.6 L257.6,292.2 L258.4,303.3 L259.2,308.3 L260.1,308.6 L260.9,309.0 L261.8,301.1 L262.6,285.8 L263.5,287.2 L264.3,297.9 L265.1,288.3 L266.0,286.8 L266.8,284.3 L267.7,281.1 L268.5,291.8 L269.3,304.7 L270.2,309.3 L271.0,309.3 L271.9,308.6 L272.7,307.9 L273.5,307.5 L274.4,309.0 L275.2,308.6 L276.1,294.7 L276.9,297.9 L277.8,301.8 L278.6,302.9 L279.4,301.5 L280.3,309.3 L281.1,310.8 L282.0,300.0 L282.8,300.4 L283.6,296.8 L284.5,290.8 L285.3,297.9 L286.2,286.5 L287.0,285.4 L287.9,287.9 L288.7,284.3 L289.5,296.5 L290.4,287.9 L291.2,295.0 L292.1,307.2 L292.9,306.8 L293.7,306.1 L294.6,305.4 L295.4,306.1 L296.3,292.2 L297.1,291.5 L298.0,305.4 L298.8,306.8 L299.6,307.9 L300.5,326.5 L301.3,318.6 L302.2,310.4 L303.0,310.0 L303.8,315.7 L304.7,338.6 L305.5,346.5 L306.4,346.1 L307.2,336.1 L308.1,335.4 L308.9,333.6 L309.7,326.8 L310.6,327.2 L311.4,326.8 L312.3,329.7 L313.1,329.3 L313.9,332.5 L314.8,328.6 L315.6,329.0 L316.5,329.3 L317.3,329.3 L318.1,336.1 L319.0,346.1 L319.8,348.6 L320.7,347.5 L321.5,348.6 L322.4,347.5 L323.2,346.8 L324.0,346.8 L324.9,336.1 L325.7,337.5 L326.6,336.1 L327.4,336.1 L328.2,339.7 L329.1,340.7 L329.9,342.2 L330.8,344.0 L331.6,335.4 L332.5,343.2 L333.3,344.7 L334.1,346.5 L335.0,345.7 L335.8,345.7 L336.7,347.2 L337.5,347.2 L338.3,352.2 L339.2,354.0 L340.0,354.3 L340.9,353.6 L341.7,355.4 L342.6,356.5 L343.4,357.2 L344.2,357.2 L345.1,357.2 L345.9,357.9 L346.8,357.2 L347.6,356.5 L348.4,345.4 L349.3,331.5 L350.1,344.3 L351.0,355.4 L351.8,354.7 L352.7,355.0 L353.5,355.7 L354.3,354.0 L355.2,354.0 L356.0,354.0 L356.9,354.0 L357.7,353.2 L358.5,352.2 L359.4,352.5 L360.2,353.6 L361.1,346.1 L361.9,336.1 L362.7,352.5 L363.6,354.3 L364.4,334.3 L365.3,321.5 L366.1,319.0 L367.0,317.5 L367.8,315.7 L368.6,317.2 L369.5,326.1 L370.3,326.1 L371.2,351.5 L372.0,350.7 L372.8,350.4 L373.7,351.1 L374.5,351.8 L375.4,350.4 L376.2,351.8 L377.1,351.1 L377.9,351.1 L378.7,351.8 L379.6,352.2 L380.4,352.9 L381.3,352.2 L382.1,352.2 L382.9,352.2 L383.8,352.9 L384.6,319.0 L385.5,335.7 L386.3,340.0 L387.2,316.1 L388.0,316.1 L388.8,315.7 L389.7,349.3 L390.5,348.2 L391.4,348.6 L392.2,348.6 L393.0,349.0 L393.9,348.6 L394.7,348.6 L395.6,348.2 L396.4,348.2 L397.3,348.6 L398.1,349.0 L398.9,349.0 L399.8,350.0 L400.6,352.2 L401.5,354.0 L402.3,354.3 L403.1,358.9 L404.0,360.0 L404.8,338.2 L405.7,327.2 L406.5,344.0 L407.3,322.5 L408.2,320.7 L409.0,327.2 L409.9,350.4 L410.7,349.7 L411.6,349.3 L412.4,350.0 L413.2,349.0 L414.1,348.2 L414.9,348.6 L415.8,348.6 L416.6,347.9 L417.4,347.5 L418.3,347.5 L419.1,348.6 L420.0,349.7 L420.8,350.7 L421.7,328.2 L422.5,352.9 L423.3,350.7 L424.2,354.0 L425.0,343.6 L425.9,325.0 L426.7,330.7 L427.5,323.6 L428.4,321.1 L429.2,324.3 L430.1,350.0 L430.9,349.3 L431.8,349.3 L432.6,348.6 L433.4,348.2 L434.3,347.2 L435.1,346.8 L436.0,347.2 L436.8,346.8 L437.6,346.5 L438.5,348.6 L439.3,349.0 L440.2,349.3 L441.0,350.4 L441.9,351.8 L442.7,352.2 L443.5,350.7 L444.4,354.0 L445.2,353.6 L446.1,331.1 L446.9,322.9 L447.7,322.5 L448.6,319.3 L449.4,318.6 L450.3,328.2 L451.1,331.5 L451.9,317.5 L452.8,316.5 L453.6,316.1 L454.5,348.6 L455.3,349.7 L456.2,349.3 L457.0,349.0 L457.8,316.8 L458.7,342.5 L459.5,350.0 L460.4,352.2 L461.2,353.2 L462.0,354.7 L462.9,355.0 L463.7,355.7 L464.6,346.1 L465.4,357.2 L466.3,325.4 L467.1,334.7 L467.9,304.7 L468.8,289.0 L469.6,302.2 L470.5,321.1 L471.3,313.6 L472.1,314.3 L473.0,314.3 L473.8,333.2 L474.7,332.9 L475.5,334.0 L476.4,333.2 L477.2,333.2 L478.0,329.0 L478.9,328.6 L479.7,329.7 L480.6,330.4 L481.4,331.8 L482.2,335.7 L483.1,335.0 L483.9,326.8 L484.8,320.4 L485.6,320.7 L486.5,320.7 L487.3,310.0 L488.1,307.2 L489.0,306.5 L489.8,318.2 L490.7,319.3 L491.5,317.5 L492.3,317.9 L493.2,319.0 L494.0,316.5 L494.9,316.5 L495.7,317.2 L496.5,317.5 L497.4,317.2 L498.2,314.7 L499.1,316.5 L499.9,315.4 L500.8,309.3 L501.6,308.3 L502.4,309.3 L503.3,312.9 L504.1,314.7 L505.0,315.7 L505.8,315.0 L506.6,314.0 L507.5,314.0 L508.3,294.7 L509.2,283.6 L510.0,281.8 L510.9,305.0 L511.7,313.3 L512.5,313.6 L513.4,313.3 L514.2,314.0 L515.1,313.6 L515.9,313.3 L516.7,312.5 L517.6,312.2 L518.4,311.8 L519.3,294.3 L520.1,302.5 L521.0,302.2 L521.8,312.5 L522.6,312.9 L523.5,314.0 L524.3,314.7 L525.2,315.4 L526.0,314.3 L526.8,284.7 L527.7,284.7 L528.5,280.4 L529.4,284.7 L530.2,284.7 L531.1,284.0 L531.9,284.7 L532.7,304.7 L533.6,303.3 L534.4,313.3 L535.3,312.9 L536.1,312.9 L536.9,313.6 L537.8,314.7 L538.6,283.3 L539.5,282.2 L540.3,307.5 L541.2,313.3 L542.8,316.8 L543.7,318.6 L544.5,320.0 L545.4,319.3 L546.2,319.7 L547.0,319.3 L547.9,319.3 L548.7,293.6 L549.6,289.7 L550.4,289.7 L551.2,289.7 L552.1,316.1 L552.9,315.4 L553.8,314.0 L554.6,316.1 L555.5,315.7 L556.3,317.9 L557.1,317.2 L558.0,315.7 L558.8,313.6 L559.7,312.2 L560.5,311.5 L561.3,312.2 L562.2,312.2 L563.0,312.2 L563.9,312.9 L564.7,314.0 L565.6,316.1 L566.4,316.5 L567.2,315.7 L568.1,307.2 L568.9,293.3 L569.8,305.4 L570.6,305.8 L571.4,310.4 L572.3,316.1 L573.1,316.8 L574.0,316.1 L574.8,315.7 L575.7,316.1 L576.5,316.1 L577.3,315.4 L578.2,315.7 L579.0,314.7 L579.9,314.7 L580.7,315.0 L581.5,315.7 L582.4,317.5 L583.2,317.9 L584.1,317.2 L584.9,317.9 L585.8,317.5 L586.6,316.5 L587.4,315.0 L588.3,316.8 L589.1,316.1 L590.0,316.8 L590.8,316.5 L591.6,316.1 L592.5,322.9 L593.3,325.0 L594.2,325.4 L595.0,327.5 L595.8,327.9 L596.7,327.5 L597.5,326.5 L598.4,326.1 L599.2,325.7 L600.1,325.7 L600.9,326.5 L601.7,325.4 L602.6,325.7 L603.4,325.7 L604.3,325.4 L605.1,324.3 L605.9,325.7 L606.8,326.1 L607.6,325.7 L608.5,325.0 L609.3,298.3 L610.2,308.6 L611.0,308.3 L611.8,326.8 L612.7,363.2 L613.5,362.9 L614.4,363.6 L615.2,363.6 L616.0,363.6 L616.9,362.9 L617.7,363.6 L618.6,363.2 L619.4,364.3 L620.3,364.3 L621.1,361.8 L621.9,362.5 L622.8,361.4 L623.6,352.2 L624.5,353.2 L625.3,342.2 L626.1,332.2 L627.0,332.5 L627.8,325.4 L628.7,325.0 L629.5,292.5 L630.4,324.0 L631.2,325.7 L632.0,326.8 L632.9,326.5 L633.7,326.1 L634.6,326.1 L635.4,325.0 L636.2,325.4 L637.1,325.4 L637.9,325.7 L638.8,324.7 L639.6,324.0 L640.4,324.7 L641.3,326.5 L642.1,325.4 L643.0,297.5 L643.8,298.3 L644.7,325.7 L645.5,303.3 L646.3,295.0 L647.2,293.6 L648.0,324.7 L648.9,324.0 L649.7,324.7 L650.5,324.3 L651.4,324.3 L652.2,325.0 L653.1,325.7 L653.9,325.7 L654.8,325.7 L655.6,325.0 L656.4,325.4 L657.3,325.4 L658.1,325.4 L659.0,325.0 L659.8,325.0 L660.6,325.4 L661.5,325.7 L662.3,326.8 L663.2,326.8 L664.0,325.0 L664.9,327.2 L665.7,325.7 L666.5,383.2 L667.4,382.5 L668.2,371.8 L669.1,357.9 L669.9,311.8 L670.7,294.0 L671.6,296.8 L672.4,320.0 L673.3,325.0 L674.1,325.4 L675.0,322.9 L675.8,323.2 L676.6,323.6 L677.5,323.6 L678.3,323.6 L679.2,323.6 L680.0,316.8" stroke="#2ca02c" stroke-width="2" fill="none" opacity="0.8"/>
<!-- Solar Generation -->
<path d="M80.0,373.6 L80.8,370.4 L81.7,371.8 L82.5,371.1 L83.4,376.8 L84.2,399.3 L85.0,418.9 L85.9,420.0 L86.7,420.0 L87.6,420.0 L88.4,420.0 L89.3,420.0 L90.1,420.0 L90.9,420.0 L91.8,420.0 L92.6,420.0 L93.5,420.0 L94.3,420.0 L95.1,406.1 L96.0,379.3 L96.8,371.8 L97.7,371.8 L98.5,372.2 L99.4,371.4 L100.2,382.2 L101.0,393.2 L101.9,388.6 L102.7,391.4 L103.6,392.2 L104.4,407.5 L105.2,419.3 L106.1,420.0 L106.9,420.0 L107.8,420.0 L108.6,420.0 L109.5,420.0 L110.3,420.0 L111.1,420.0 L112.0,420.0 L112.8,420.0 L113.7,420.0 L114.5,420.0 L115.3,408.6 L116.2,383.9 L117.0,374.7 L117.9,377.9 L118.7,371.4 L119.6,372.5 L120.4,378.9 L121.2,371.4 L122.1,372.2 L122.9,373.9 L123.8,381.4 L124.6,403.2 L125.4,419.3 L126.3,420.0 L127.1,420.0 L128.0,420.0 L128.8,420.0 L129.6,420.0 L130.5,420.0 L131.3,420.0 L132.2,420.0 L133.0,420.0 L133.9,420.0 L134.7,420.0 L135.5,414.6 L136.4,396.4 L137.2,388.9 L138.1,386.8 L138.9,390.4 L139.7,385.4 L140.6,381.8 L141.4,378.2 L142.3,390.7 L143.1,393.2 L144.0,395.4 L144.8,411.1 L145.6,419.6 L146.5,420.0 L147.3,420.0 L148.2,420.0 L149.0,420.0 L149.8,420.0 L150.7,420.0 L151.5,420.0 L152.4,420.0 L153.2,420.0 L154.1,420.0 L154.9,420.0 L155.7,410.7 L156.6,390.7 L157.4,373.9 L158.3,370.4 L159.1,370.0 L159.9,371.1 L160.8,370.7 L161.6,369.3 L162.5,368.9 L163.3,370.4 L164.2,380.4 L165.0,406.1 L165.8,419.6 L166.7,420.0 L167.5,420.0 L168.4,420.0 L169.2,420.0 L170.0,420.0 L170.9,420.0 L171.7,420.0 L172.6,420.0 L173.4,420.0 L174.2,420.0 L175.1,420.0 L175.9,409.6 L176.8,389.3 L177.6,381.8 L178.5,376.4 L179.3,374.7 L180.1,374.3 L181.0,375.4 L181.8,378.2 L182.7,381.8 L183.5,384.3 L184.3,396.4 L185.2,413.2 L186.0,420.0 L186.9,420.0 L187.7,420.0 L188.6,420.0 L189.4,420.0 L190.2,420.0 L191.1,420.0 L191.9,420.0 L192.8,420.0 L193.6,420.0 L194.4,420.0 L195.3,420.0 L196.1,413.6 L197.0,399.3 L197.8,378.6 L198.7,374.3 L199.5,380.7 L200.3,377.2 L201.2,382.5 L202.0,375.7 L202.9,383.9 L203.7,410.7 L204.5,415.0 L205.4,418.2 L206.2,420.0 L207.1,420.0 L207.9,420.0 L208.8,420.0 L209.6,420.0 L210.4,420.0 L211.3,420.0 L212.1,420.0 L213.0,420.0 L213.8,420.0 L214.6,420.0 L215.5,420.0 L216.3,412.9 L217.2,394.7 L218.0,371.1 L218.8,371.1 L219.7,386.8 L220.5,377.5 L221.4,385.4 L222.2,377.2 L223.1,381.8 L223.9,376.8 L224.7,386.8 L225.6,405.4 L226.4,419.6 L227.3,420.0 L228.1,420.0 L228.9,420.0 L229.8,420.0 L230.6,420.0 L231.5,420.0 L232.3,420.0 L233.2,420.0 L234.0,420.0 L234.8,420.0 L235.7,420.0 L236.5,414.6 L237.4,408.2 L238.2,400.0 L239.0,398.2 L239.9,393.6 L240.7,380.4 L241.6,385.7 L242.4,385.0 L243.3,386.4 L244.1,391.8 L244.9,403.2 L245.8,417.5 L246.6,420.0 L247.5,420.0 L248.3,420.0 L249.1,420.0 L250.0,420.0 L250.8,420.0 L251.7,420.0 L252.5,420.0 L253.4,420.0 L254.2,420.0 L255.0,420.0 L255.9,420.0 L256.7,414.3 L257.6,387.5 L258.4,391.1 L259.2,385.0 L260.1,385.4 L260.9,379.7 L261.8,384.3 L262.6,376.1 L263.5,395.0 L264.3,402.9 L265.1,407.1 L266.0,417.1 L266.8,420.0 L267.7,420.0 L268.5,420.0 L269.3,420.0 L270.2,420.0 L271.0,420.0 L271.9,420.0 L272.7,420.0 L273.5,420.0 L274.4,420.0 L275.2,420.0 L276.1,420.0 L276.9,417.5 L277.8,413.6 L278.6,395.0 L279.4,391.1 L280.3,391.1 L281.1,390.4 L282.0,387.5 L282.8,394.3 L283.6,403.9 L284.5,410.4 L285.3,412.5 L286.2,417.1 L287.0,420.0 L287.9,420.0 L288.7,420.0 L289.5,420.0 L290.4,420.0 L291.2,420.0 L292.1,420.0 L292.9,420.0 L293.7,420.0 L294.6,420.0 L295.4,420.0 L296.3,420.0 L297.1,410.7 L298.0,386.8 L298.8,373.9 L299.6,371.1 L300.5,373.2 L301.3,381.4 L302.2,373.2 L303.0,383.6 L303.8,392.2 L304.7,382.9 L305.5,405.0 L306.4,416.1 L307.2,420.0 L308.1,420.0 L308.9,420.0 L309.7,420.0 L310.6,420.0 L311.4,420.0 L312.3,420.0 L313.1,420.0 L313.9,420.0 L314.8,420.0 L315.6,420.0 L316.5,420.0 L317.3,418.6 L318.1,395.7 L319.0,386.8 L319.8,380.4 L320.7,378.6 L321.5,376.1 L322.4,373.9 L323.2,386.1 L324.0,401.8 L324.9,402.5 L325.7,396.8 L326.6,414.6 L327.4,420.0 L328.2,420.0 L329.1,420.0 L329.9,420.0 L330.8,420.0 L331.6,420.0 L332.5,420.0 L333.3,420.0 L334.1,420.0 L335.0,420.0 L335.8,420.0 L336.7,420.0 L337.5,410.7 L338.3,377.5 L339.2,397.2 L340.0,396.8 L340.9,389.3 L341.7,378.2 L342.6,398.2 L343.4,394.7 L344.2,391.4 L345.1,407.5 L345.9,417.5 L346.8,418.2 L347.6,420.0 L348.4,420.0 L349.3,420.0 L350.1,420.0 L351.0,420.0 L351.8,420.0 L352.7,420.0 L353.5,420.0 L354.3,420.0 L355.2,420.0 L356.0,420.0 L356.9,420.0 L357.7,415.7 L358.5,383.6 L359.4,387.9 L360.2,393.6 L361.1,399.6 L361.9,403.9 L362.7,388.2 L363.6,390.4 L364.4,411.4 L365.3,411.4 L366.1,415.0 L367.0,417.9 L367.8,420.0 L368.6,420.0 L369.5,420.0 L370.3,420.0 L371.2,420.0 L372.0,420.0 L372.8,420.0 L373.7,420.0 L374.5,420.0 L375.4,420.0 L376.2,420.0 L377.1,420.0 L377.9,413.9 L378.7,406.1 L379.6,402.5 L380.4,391.4 L381.3,398.2 L382.1,392.9 L382.9,379.3 L383.8,391.8 L384.6,392.5 L385.5,413.6 L386.3,407.9 L387.2,416.8 L388.0,420.0 L388.8,420.0 L389.7,420.0 L390.5,420.0 L391.4,420.0 L392.2,420.0 L393.0,420.0 L393.9,420.0 L394.7,420.0 L395.6,420.0 L396.4,420.0 L397.3,420.0 L398.1,416.1 L398.9,391.4 L399.8,375.7 L400.6,375.7 L401.5,375.7 L402.3,373.9 L403.1,378.6 L404.0,377.9 L404.8,376.4 L405.7,380.4 L406.5,385.4 L407.3,411.4 L408.2,420.0 L409.0,420.0 L409.9,420.0 L410.7,420.0 L411.6,420.0 L412.4,420.0 L413.2,420.0 L414.1,420.0 L414.9,420.0 L415.8,420.0 L416.6,420.0 L417.4,420.0 L418.3,413.2 L419.1,384.3 L420.0,373.2 L420.8,371.4 L421.7,372.9 L422.5,376.1 L423.3,373.2 L424.2,372.9 L425.0,372.9 L425.9,374.7 L426.7,384.3 L427.5,412.9 L428.4,420.0 L429.2,420.0 L430.1,420.0 L430.9,420.0 L431.8,420.0 L432.6,420.0 L433.4,420.0 L434.3,420.0 L435.1,420.0 L436.0,420.0 L436.8,420.0 L437.6,420.0 L438.5,412.9 L439.3,388.2 L440.2,392.2 L441.0,377.5 L441.9,378.2 L442.7,378.6 L443.5,380.7 L444.4,379.3 L445.2,374.7 L446.1,379.3 L446.9,396.8 L447.7,412.5 L448.6,420.0 L449.4,420.0 L450.3,420.0 L451.1,420.0 L451.9,420.0 L452.8,420.0 L453.6,420.0 L454.5,420.0 L455.3,420.0 L456.2,420.0 L457.0,420.0 L457.8,420.0 L458.7,414.3 L459.5,384.7 L460.4,372.5 L461.2,371.1 L462.0,372.5 L462.9,373.6 L463.7,372.5 L464.6,373.9 L465.4,376.1 L466.3,381.4 L467.1,395.4 L467.9,412.9 L468.8,420.0 L469.6,420.0 L470.5,420.0 L471.3,420.0 L472.1,420.0 L473.0,420.0 L473.8,420.0 L474.7,420.0 L475.5,420.0 L476.4,420.0 L477.2,420.0 L478.0,420.0 L478.9,415.4 L479.7,390.0 L480.6,383.6 L481.4,383.9 L482.2,373.9 L483.1,387.9 L483.9,385.4 L484.8,378.6 L485.6,397.2 L486.5,399.6 L487.3,408.9 L488.1,418.9 L489.0,420.0 L489.8,420.0 L490.7,420.0 L491.5,420.0 L492.3,420.0 L493.2,420.0 L494.0,420.0 L494.9,420.0 L495.7,420.0 L496.5,420.0 L497.4,420.0 L498.2,420.0 L499.1,419.3 L499.9,397.5 L500.8,410.4 L501.6,389.7 L502.4,388.6 L503.3,406.1 L504.1,383.9 L505.0,381.1 L505.8,386.1 L506.6,401.4 L507.5,398.6 L508.3,413.6 L509.2,420.0 L510.0,420.0 L510.9,420.0 L511.7,420.0 L512.5,420.0 L513.4,420.0 L514.2,420.0 L515.1,420.0 L515.9,420.0 L516.7,420.0 L517.6,420.0 L518.4,420.0 L519.3,413.6 L520.1,382.2 L521.0,370.4 L521.8,370.4 L522.6,371.4 L523.5,372.9 L524.3,372.9 L525.2,371.1 L526.0,370.0 L526.8,370.7 L527.7,384.3 L528.5,413.9 L529.4,420.0 L530.2,420.0 L531.1,420.0 L531.9,420.0 L532.7,420.0 L533.6,420.0 L534.4,420.0 L535.3,420.0 L536.1,420.0 L536.9,420.0 L537.8,420.0 L538.6,420.0 L539.5,413.9 L540.3,382.5 L541.2,369.7 L542.0,420.0 L542.8,371.4 L543.7,373.2 L544.5,373.2 L545.4,371.4 L546.2,370.0 L547.0,370.7 L547.9,385.0 L548.7,414.6 L549.6,420.0 L550.4,420.0 L551.2,420.0 L552.1,420.0 L552.9,420.0 L553.8,420.0 L554.6,420.0 L555.5,420.0 L556.3,420.0 L557.1,420.0 L558.0,420.0 L558.8,420.0 L559.7,414.6 L560.5,383.6 L561.3,370.7 L562.2,370.7 L563.0,372.9 L563.9,374.3 L564.7,374.3 L565.6,372.5 L566.4,370.7 L567.2,371.4 L568.1,387.5 L568.9,415.4 L569.8,420.0 L570.6,420.0 L571.4,420.0 L572.3,420.0 L573.1,420.0 L574.0,420.0 L574.8,420.0 L575.7,420.0 L576.5,420.0 L577.3,420.0 L578.2,420.0 L579.0,420.0 L579.9,418.9 L580.7,386.8 L581.5,372.5 L582.4,371.4 L583.2,373.2 L584.1,375.7 L584.9,374.7 L585.8,373.9 L586.6,376.8 L587.4,382.2 L588.3,398.9 L589.1,417.9 L590.0,420.0 L590.8,420.0 L591.6,420.0 L592.5,420.0 L593.3,420.0 L594.2,420.0 L595.0,420.0 L595.8,420.0 L596.7,420.0 L597.5,420.0 L598.4,420.0 L599.2,420.0 L600.1,416.1 L600.9,387.9 L601.7,371.8 L602.6,371.1 L603.4,373.6 L604.3,374.7 L605.1,375.0 L605.9,372.9 L606.8,371.4 L607.6,372.9 L608.5,390.4 L609.3,416.8 L610.2,420.0 L611.0,420.0 L611.8,420.0 L612.7,420.0 L613.5,420.0 L614.4,420.0 L615.2,420.0 L616.0,420.0 L616.9,420.0 L617.7,420.0 L618.6,420.0 L619.4,420.0 L620.3,415.7 L621.1,389.7 L621.9,372.5 L622.8,371.8 L623.6,376.1 L624.5,376.4 L625.3,374.7 L626.1,375.0 L627.0,407.1 L627.8,371.1 L628.7,408.6 L629.5,415.0 L630.4,420.0 L631.2,420.0 L632.0,420.0 L632.9,420.0 L633.7,420.0 L634.6,420.0 L635.4,420.0 L636.2,420.0 L637.1,420.0 L637.9,420.0 L638.8,420.0 L639.6,420.0 L640.4,418.9 L641.3,409.3 L642.1,385.4 L643.0,379.7 L643.8,375.7 L644.7,377.5 L645.5,375.4 L646.3,393.9 L647.2,396.8 L648.0,397.9 L648.9,416.1 L649.7,418.6 L650.5,420.0 L651.4,420.0 L652.2,420.0 L653.1,420.0 L653.9,420.0 L654.8,420.0 L655.6,420.0 L656.4,420.0 L657.3,420.0 L658.1,420.0 L659.0,420.0 L659.8,420.0 L660.6,417.9 L661.5,415.4 L662.3,396.8 L663.2,375.4 L664.0,377.9 L664.9,381.8 L665.7,377.9 L666.5,383.2 L667.4,398.6 L668.2,414.6 L669.1,410.7 L669.9,419.6 L670.7,420.0 L671.6,420.0 L672.4,420.0 L673.3,420.0 L674.1,420.0 L675.0,420.0 L675.8,420.0 L676.6,420.0 L677.5,420.0 L678.3,420.0 L679.2,420.0 L680.0,420.0" stroke="#d62728" stroke-width="2" fill="none" opacity="0.8"/>
<!-- Forecast -->
<path d="M80.0,118.0 L80.8,105.8 L81.7,93.3 L82.5,83.7 L83.4,75.5 L84.2,78.3 L85.0,88.3 L85.9,102.6 L86.7,113.0 L87.6,135.8 L88.4,110.8 L89.3,169.7 L90.1,200.4 L90.9,192.9 L91.8,212.6 L92.6,217.9 L93.5,208.6 L94.3,185.8 L95.1,159.4 L96.0,131.2 L96.8,113.3 L97.7,104.7 L98.5,95.1 L99.4,89.0 L100.2,80.8 L101.0,71.5 L101.9,69.8 L102.7,69.8 L103.6,70.1 L104.4,70.5 L105.2,70.5 L106.1,70.8 L106.9,71.2 L107.8,85.8 L108.6,160.8 L109.5,193.3 L110.3,210.1 L111.1,221.1 L112.0,226.9 L112.8,225.8 L113.7,215.1 L114.5,190.4 L115.3,163.3 L116.2,136.9 L117.0,122.2 L117.9,115.8 L118.7,108.7 L119.6,104.0 L120.4,98.7 L121.2,90.5 L122.1,79.0 L122.9,68.3 L123.8,70.8 L124.6,81.5 L125.4,99.4 L126.3,112.6 L127.1,120.1 L128.0,142.2 L128.8,177.2 L129.6,200.8 L130.5,204.7 L131.3,211.5 L132.2,217.9 L133.0,217.2 L133.9,207.2 L134.7,185.4 L135.5,159.0 L136.4,131.2 L137.2,115.1 L138.1,108.0 L138.9,101.5 L139.7,98.3 L140.6,94.0 L141.4,89.8 L142.3,82.3 L143.1,79.8 L144.0,86.2 L144.8,96.2 L145.6,110.5 L146.5,121.5 L147.3,127.2 L148.2,148.3 L149.0,190.4 L149.8,206.5 L150.7,238.3 L151.5,250.8 L152.4,254.3 L153.2,256.8 L154.1,230.4 L154.9,222.9 L155.7,201.1 L156.6,186.5 L157.4,164.4 L158.3,148.7 L159.1,142.6 L159.9,141.2 L160.8,141.2 L161.6,141.5 L162.5,141.2 L163.3,140.8 L164.2,141.2 L165.0,141.2 L165.8,125.1 L166.7,128.3 L167.5,135.8 L168.4,164.0 L169.2,191.9 L170.0,231.5 L170.9,245.4 L171.7,250.1 L172.6,252.6 L173.4,254.3 L174.2,255.1 L175.1,241.8 L175.9,216.9 L176.8,186.2 L177.6,165.8 L178.5,158.3 L179.3,157.9 L180.1,148.7 L181.0,141.2 L181.8,140.1 L182.7,128.0 L183.5,120.1 L184.3,119.4 L185.2,118.3 L186.0,129.7 L186.9,138.0 L187.7,140.1 L188.6,156.2 L189.4,179.7 L190.2,201.9 L191.1,217.9 L191.9,227.2 L192.8,232.2 L193.6,234.0 L194.4,232.2 L195.3,224.7 L196.1,212.2 L197.0,194.4 L197.8,175.8 L198.7,160.4 L199.5,152.6 L200.3,148.7 L201.2,139.4 L202.0,130.1 L202.9,118.7 L203.7,108.7 L204.5,95.8 L205.4,134.4 L206.2,159.4 L207.1,167.9 L207.9,168.7 L208.8,167.2 L209.6,182.9 L210.4,193.6 L211.3,192.2 L212.1,189.0 L213.0,186.5 L213.8,185.8 L214.6,186.9 L215.5,188.3 L216.3,190.4 L217.2,159.0 L218.0,138.0 L218.8,121.2 L219.7,113.0 L220.5,111.2 L221.4,110.8 L222.2,111.2 L223.1,111.9 L223.9,116.2 L224.7,123.0 L225.6,135.1 L226.4,159.0 L227.3,175.4 L228.1,95.8 L228.9,160.4 L229.8,180.4 L230.6,199.7 L231.5,211.1 L232.3,219.0 L233.2,224.7 L234.0,223.6 L234.8,212.6 L235.7,189.4 L236.5,162.6 L237.4,136.2 L238.2,122.2 L239.0,115.8 L239.9,108.7 L240.7,104.0 L241.6,100.1 L242.4,93.7 L243.3,84.4 L244.1,80.8 L244.9,84.4 L245.8,92.3 L246.6,107.6 L247.5,119.4 L248.3,123.3 L249.1,141.5 L250.0,170.8 L250.8,196.9 L251.7,210.4 L252.5,219.7 L253.4,224.7 L254.2,224.0 L255.0,212.9 L255.9,189.0 L256.7,161.9 L257.6,136.5 L258.4,123.0 L259.2,116.2 L260.1,108.7 L260.9,102.3 L261.8,94.8 L262.6,84.8 L263.5,71.9 L264.3,67.6 L265.1,73.0 L266.0,85.5 L266.8,105.5 L267.7,114.7 L268.5,119.4 L269.3,140.5 L270.2,188.3 L271.0,211.9 L271.9,223.6 L272.7,232.9 L273.5,235.1 L274.4,233.6 L275.2,222.9 L276.1,187.9 L276.9,153.7 L277.8,132.2 L278.6,122.2 L279.4,124.7 L280.3,124.0 L281.1,122.2 L282.0,123.7 L282.8,125.8 L283.6,120.5 L284.5,122.2 L285.3,124.0 L286.2,122.2 L287.0,117.2 L287.9,117.2 L288.7,136.5 L289.5,165.4 L290.4,194.7 L291.2,214.7 L292.1,226.9 L292.9,234.7 L293.7,236.8 L294.6,235.1 L295.4,222.6 L296.3,188.3 L297.1,152.6 L298.0,132.6 L298.8,128.3 L299.6,131.2 L300.5,128.7 L301.3,126.5 L302.2,128.7 L303.0,130.5 L303.8,126.2 L304.7,125.5 L305.5,125.1 L306.4,123.7 L307.2,119.0 L308.1,118.3 L308.9,137.2 L309.7,165.8 L310.6,203.3 L311.4,218.6 L312.3,228.6 L313.1,234.0 L313.9,237.6 L314.8,239.3 L315.6,236.5 L316.5,221.9 L317.3,205.8 L318.1,185.8 L319.0,168.3 L319.8,159.4 L320.7,157.2 L321.5,165.1 L322.4,164.7 L323.2,163.7 L324.0,160.8 L324.9,150.4 L325.7,147.9 L326.6,150.1 L327.4,147.6 L328.2,150.1 L329.1,162.2 L329.9,184.0 L330.8,206.1 L331.6,222.2 L332.5,233.3 L333.3,240.1 L334.1,243.3 L335.0,240.1 L335.8,236.5 L336.7,223.3 L337.5,211.9 L338.3,200.1 L339.2,180.1 L340.0,168.7 L340.9,166.2 L341.7,160.1 L342.6,160.1 L343.4,161.9 L344.2,153.3 L345.1,139.0 L345.9,126.9 L346.8,126.2 L347.6,123.0 L348.4,128.7 L349.3,146.9 L350.1,174.0 L351.0,197.6 L351.8,215.1 L352.7,226.5 L353.5,234.7 L354.3,236.8 L355.2,235.1 L356.0,222.6 L356.9,188.3 L357.7,151.9 L358.5,132.2 L359.4,127.2 L360.2,128.3 L361.1,128.0 L361.9,128.0 L362.7,130.5 L363.6,131.9 L364.4,129.7 L365.3,128.7 L366.1,128.7 L367.0,127.2 L367.8,123.3 L368.6,121.9 L369.5,142.2 L370.3,171.9 L371.2,198.6 L372.0,217.2 L372.8,228.6 L373.7,235.4 L374.5,237.6 L375.4,235.4 L376.2,222.2 L377.1,187.6 L377.9,150.8 L378.7,132.2 L379.6,130.8 L380.4,130.5 L381.3,140.1 L382.1,142.2 L382.9,149.7 L383.8,143.0 L384.6,144.4 L385.5,144.4 L386.3,149.7 L387.2,158.3 L388.0,173.7 L388.8,185.1 L389.7,187.2 L390.5,186.9 L391.4,212.2 L392.2,229.4 L393.0,255.8 L393.9,262.2 L394.7,261.5 L395.6,261.1 L396.4,233.3 L397.3,226.5 L398.1,192.9 L398.9,180.1 L399.8,162.2 L400.6,142.6 L401.5,134.4 L402.3,133.7 L403.1,135.1 L404.0,128.7 L404.8,119.7 L405.7,115.8 L406.5,113.3 L407.3,116.5 L408.2,115.8 L409.0,116.9 L409.9,136.9 L410.7,165.8 L411.6,195.4 L412.4,216.5 L413.2,228.6 L414.1,235.4 L414.9,237.6 L415.8,235.8 L416.6,221.9 L417.4,187.6 L418.3,199.4 L419.1,201.9 L420.0,184.0 L420.8,163.3 L421.7,154.4 L422.5,153.3 L423.3,153.7 L424.2,154.0 L425.0,152.9 L425.9,151.9 L426.7,152.2 L427.5,163.3 L428.4,177.9 L429.2,187.9 L430.1,187.2 L430.9,186.2 L431.8,196.1 L432.6,243.3 L433.4,235.8 L434.3,235.8 L435.1,237.6 L436.0,235.8 L436.8,222.2 L437.6,187.9 L438.5,151.5 L439.3,132.2 L440.2,130.5 L441.0,133.0 L441.9,128.0 L442.7,124.0 L443.5,123.0 L444.4,117.6 L445.2,110.8 L446.1,108.7 L446.9,107.6 L447.7,111.5 L448.6,111.9 L449.4,114.0 L450.3,132.6 L451.1,162.6 L451.9,205.1 L452.8,220.1 L453.6,229.4 L454.5,234.7 L455.3,237.9 L456.2,239.7 L457.0,235.8 L457.8,221.9 L458.7,206.5 L459.5,189.0 L460.4,173.3 L461.2,165.8 L462.0,164.0 L462.9,159.4 L463.7,157.2 L464.6,151.5 L465.4,139.4 L466.3,135.1 L467.1,129.0 L467.9,131.5 L468.8,143.7 L469.6,149.7 L470.5,163.3 L471.3,185.4 L472.1,207.9 L473.0,225.4 L473.8,235.8 L474.7,243.3 L475.5,246.1 L476.4,242.6 L477.2,240.1 L478.0,227.6 L478.9,215.8 L479.7,204.0 L480.6,182.9 L481.4,170.4 L482.2,166.9 L483.1,160.1 L483.9,160.4 L484.8,162.9 L485.6,158.3 L486.5,150.1 L487.3,139.0 L488.1,138.7 L489.0,131.2 L489.8,132.2 L490.7,150.4 L491.5,177.9 L492.3,202.2 L493.2,217.9 L494.0,228.6 L494.9,235.8 L495.7,237.9 L496.5,235.4 L497.4,221.1 L498.2,185.8 L499.1,149.0 L499.9,131.9 L500.8,129.4 L501.6,129.7 L502.4,129.7 L503.3,130.1 L504.1,133.7 L505.0,135.1 L505.8,133.3 L506.6,129.7 L507.5,126.9 L508.3,125.8 L509.2,123.3 L510.0,123.0 L510.9,143.7 L511.7,173.3 L512.5,200.1 L513.4,219.4 L514.2,229.7 L515.1,235.4 L515.9,237.2 L516.7,234.7 L517.6,219.7 L518.4,184.7 L519.3,147.9 L520.1,131.2 L521.0,129.4 L521.8,130.1 L522.6,128.7 L523.5,127.6 L524.3,129.4 L525.2,129.7 L526.0,124.0 L526.8,118.0 L527.7,116.2 L528.5,119.0 L529.4,118.3 L530.2,119.7 L531.1,140.1 L531.9,170.8 L532.7,194.4 L533.6,217.6 L534.4,229.4 L535.3,235.4 L536.1,237.6 L536.9,235.4 L537.8,221.5 L538.6,187.2 L539.5,150.4 L540.3,131.9 L541.2,125.8 L542.0,121.5 L542.8,119.0 L543.7,115.8 L544.5,111.2 L545.4,103.3 L546.2,96.9 L547.0,91.5 L547.9,93.0 L548.7,103.0 L549.6,108.0 L550.4,112.6 L551.2,131.5 L552.1,161.2 L552.9,190.8 L553.8,216.9 L554.6,228.3 L555.5,235.4 L556.3,237.6 L557.1,235.8 L558.0,222.2 L558.8,188.3 L559.7,151.9 L560.5,133.0 L561.3,130.5 L562.2,131.9 L563.0,125.8 L563.9,120.5 L564.7,114.7 L565.6,105.1 L566.4,97.3 L567.2,92.6 L568.1,93.3 L568.9,103.3 L569.8,108.0 L570.6,112.6 L571.4,130.1 L572.3,157.9 L573.1,197.6 L574.0,215.1 L574.8,226.5 L575.7,234.3 L576.5,236.8 L577.3,235.1 L578.2,222.9 L579.0,188.6 L579.9,152.2 L580.7,133.0 L581.5,128.0 L582.4,129.0 L583.2,127.6 L584.1,125.8 L584.9,127.2 L585.8,129.7 L586.6,124.7 L587.4,124.0 L588.3,121.5 L589.1,124.0 L590.0,123.0 L590.8,122.6 L591.6,143.3 L592.5,172.6 L593.3,205.4 L594.2,216.5 L595.0,224.4 L595.8,230.1 L596.7,232.9 L597.5,234.0 L598.4,230.1 L599.2,215.8 L600.1,199.7 L600.9,181.9 L601.7,167.9 L602.6,162.2 L603.4,161.2 L604.3,163.7 L605.1,162.6 L605.9,158.7 L606.8,151.5 L607.6,140.1 L608.5,134.0 L609.3,141.2 L610.2,146.5 L611.0,150.4 L611.8,162.9 L612.7,184.7 L613.5,206.1 L614.4,222.9 L615.2,232.9 L616.0,239.3 L616.9,241.8 L617.7,239.0 L618.6,234.7 L619.4,221.9 L620.3,208.3 L621.1,195.1 L621.9,177.2 L622.8,168.7 L623.6,167.2 L624.5,161.2 L625.3,157.6 L626.1,156.5 L627.0,145.1 L627.8,131.2 L628.7,123.3 L629.5,122.6 L630.4,121.2 L631.2,128.0 L632.0,146.9 L632.9,174.4 L633.7,194.7 L634.6,213.3 L635.4,226.1 L636.2,234.7 L637.1,236.8 L637.9,235.1 L638.8,223.6 L639.6,189.7 L640.4,154.0 L641.3,133.7 L642.1,123.3 L643.0,121.2 L643.8,120.5 L644.7,119.4 L645.5,118.0 L646.3,118.0 L647.2,112.6 L648.0,112.6 L648.9,113.7 L649.7,116.9 L650.5,115.8 L651.4,116.5 L652.2,134.4 L653.1,161.9 L653.9,195.4 L654.8,214.7 L655.6,226.5 L656.4,234.7 L657.3,237.2 L658.1,235.4 L659.0,224.0 L659.8,189.4 L660.6,154.0 L661.5,133.3 L662.3,126.2 L663.2,125.5 L664.0,126.5 L664.9,127.2 L665.7,129.7 L666.5,128.7 L667.4,127.6 L668.2,126.9 L669.1,125.8 L669.9,125.5 L670.7,123.0 L671.6,121.9 L672.4,141.2 L673.3,169.7 L674.1,221.5 L675.0,226.9 L675.8,232.2 L676.6,231.8 L677.5,228.3 L678.3,225.1 L679.2,220.1 L680.0,218.6" stroke="#9467bd" stroke-width="2" fill="none" opacity="0.8"/>
<!-- Total Generation -->
<path d="M80.0,185.1 L80.8,165.4 L81.7,147.9 L82.5,132.2 L83.4,144.4 L84.2,162.6 L85.0,146.9 L85.9,145.8 L86.7,138.3 L87.6,143.7 L88.4,170.8 L89.3,177.2 L90.1,183.3 L90.9,193.6 L91.8,194.4 L92.6,201.1 L93.5,192.9 L94.3,195.8 L95.1,178.7 L96.0,151.9 L96.8,150.8 L97.7,150.4 L98.5,146.9 L99.4,147.2 L100.2,185.1 L101.0,210.4 L101.9,193.3 L102.7,202.9 L103.6,196.1 L104.4,208.6 L105.2,214.7 L106.1,207.9 L106.9,215.8 L107.8,213.6 L108.6,219.7 L109.5,234.0 L110.3,237.2 L111.1,246.8 L112.0,248.3 L112.8,253.3 L113.7,250.1 L114.5,251.1 L115.3,244.3 L116.2,219.4 L117.0,207.9 L117.9,211.1 L118.7,206.1 L119.6,191.1 L120.4,184.4 L121.2,170.8 L122.1,149.4 L122.9,139.4 L123.8,161.2 L124.6,174.0 L125.4,187.9 L126.3,218.6 L127.1,237.6 L128.0,236.5 L128.8,223.6 L129.6,224.0 L130.5,217.2 L131.3,195.4 L132.2,188.3 L133.0,171.9 L133.9,138.3 L134.7,131.5 L135.5,132.6 L136.4,132.6 L137.2,123.3 L138.1,128.7 L138.9,137.2 L139.7,134.4 L140.6,133.7 L141.4,104.0 L142.3,110.5 L143.1,110.1 L144.0,132.2 L144.8,148.7 L145.6,189.4 L146.5,198.6 L147.3,210.8 L148.2,223.3 L149.0,235.4 L149.8,232.2 L150.7,231.5 L151.5,227.2 L152.4,224.4 L153.2,225.8 L154.1,234.3 L154.9,238.3 L155.7,233.3 L156.6,226.1 L157.4,218.6 L158.3,214.7 L159.1,206.9 L159.9,208.3 L160.8,204.7 L161.6,203.3 L162.5,200.1 L163.3,193.6 L164.2,196.5 L165.0,214.7 L165.8,213.6 L166.7,189.4 L167.5,185.1 L168.4,190.4 L169.2,207.6 L170.0,243.6 L170.9,265.8 L171.7,269.7 L172.6,270.8 L173.4,271.1 L174.2,270.4 L175.1,271.1 L175.9,261.5 L176.8,237.9 L177.6,229.4 L178.5,226.1 L179.3,229.0 L180.1,229.4 L181.0,228.3 L181.8,232.2 L182.7,232.9 L183.5,208.3 L184.3,202.2 L185.2,200.1 L186.0,184.0 L186.9,184.7 L187.7,210.1 L188.6,231.1 L189.4,267.6 L190.2,253.3 L191.1,273.3 L191.9,271.8 L192.8,269.3 L193.6,264.0 L194.4,250.8 L195.3,228.3 L196.1,214.7 L197.0,182.9 L197.8,159.0 L198.7,126.9 L199.5,154.0 L200.3,140.1 L201.2,163.3 L202.0,165.4 L202.9,165.8 L203.7,199.4 L204.5,237.6 L205.4,235.4 L206.2,236.8 L207.1,230.4 L207.9,227.6 L208.8,203.3 L209.6,173.3 L210.4,212.9 L211.3,165.1 L212.1,173.7 L213.0,206.9 L213.8,192.6 L214.6,170.4 L215.5,175.1 L216.3,201.1 L217.2,191.5 L218.0,184.4 L218.8,190.1 L219.7,195.8 L220.5,157.6 L221.4,171.9 L222.2,155.4 L223.1,150.4 L223.9,151.2 L224.7,206.5 L225.6,242.2 L226.4,259.7 L227.3,257.6 L228.1,262.6 L228.9,239.0 L229.8,237.9 L230.6,240.4 L231.5,266.1 L232.3,265.1 L233.2,265.4 L234.0,266.5 L234.8,251.8 L235.7,241.8 L236.5,235.4 L237.4,230.4 L238.2,223.6 L239.0,206.5 L239.9,208.3 L240.7,170.8 L241.6,179.7 L242.4,182.2 L243.3,163.7 L244.1,167.2 L244.9,172.2 L245.8,186.5 L246.6,160.1 L247.5,189.4 L248.3,163.3 L249.1,186.9 L250.0,234.0 L250.8,241.8 L251.7,235.8 L252.5,240.4 L253.4,229.4 L254.2,211.5 L255.0,220.8 L255.9,220.1 L256.7,191.5 L257.6,181.2 L258.4,197.9 L259.2,198.3 L260.1,200.1 L260.9,193.6 L261.8,190.1 L262.6,167.6 L263.5,186.9 L264.3,202.6 L265.1,200.1 L266.0,192.2 L266.8,191.1 L267.7,185.4 L268.5,204.7 L269.3,215.8 L270.2,216.1 L271.0,214.0 L271.9,227.9 L272.7,231.5 L273.5,221.9 L274.4,225.8 L275.2,231.5 L276.1,214.7 L276.9,167.6 L277.8,192.6 L278.6,189.0 L279.4,161.5 L280.3,197.6 L281.1,202.6 L282.0,190.4 L282.8,197.9 L283.6,198.3 L284.5,193.3 L285.3,198.6 L286.2,196.9 L287.0,205.1 L287.9,212.2 L288.7,204.7 L289.5,218.3 L290.4,207.2 L291.2,219.7 L292.1,231.8 L292.9,233.3 L293.7,234.0 L294.6,231.5 L295.4,232.2 L296.3,210.1 L297.1,196.5 L298.0,197.2 L298.8,186.5 L299.6,184.7 L300.5,205.8 L301.3,205.1 L302.2,187.6 L303.0,180.8 L303.8,184.7 L304.7,151.9 L305.5,223.3 L306.4,239.3 L307.2,239.0 L308.1,252.2 L308.9,249.0 L309.7,237.6 L310.6,232.6 L311.4,239.3 L312.3,252.9 L313.1,255.8 L313.9,258.6 L314.8,255.1 L315.6,250.4 L316.5,245.1 L317.3,238.6 L318.1,234.0 L319.0,234.3 L319.8,229.4 L320.7,226.9 L321.5,228.6 L322.4,226.5 L323.2,239.0 L324.0,255.1 L324.9,242.6 L325.7,235.1 L326.6,251.8 L327.4,252.9 L328.2,261.8 L329.1,260.4 L329.9,265.1 L330.8,261.1 L331.6,252.2 L332.5,259.3 L333.3,260.4 L334.1,258.3 L335.0,248.3 L335.8,250.4 L336.7,255.1 L337.5,239.0 L338.3,214.7 L339.2,231.5 L340.0,211.9 L340.9,188.6 L341.7,182.9 L342.6,182.6 L343.4,189.7 L344.2,195.4 L345.1,225.1 L345.9,254.3 L346.8,264.7 L347.6,276.8 L348.4,262.6 L349.3,227.9 L350.1,132.2 L351.0,167.6 L351.8,169.7 L352.7,201.1 L353.5,196.1 L354.3,183.3 L355.2,192.2 L356.0,164.0 L356.9,170.8 L357.7,199.0 L358.5,190.1 L359.4,196.1 L360.2,201.1 L361.1,190.8 L361.9,188.6 L362.7,201.9 L363.6,199.4 L364.4,214.7 L365.3,214.7 L366.1,192.2 L367.0,198.6 L367.8,195.4 L368.6,195.1 L369.5,205.1 L370.3,190.4 L371.2,214.4 L372.0,218.6 L372.8,205.1 L373.7,198.3 L374.5,197.9 L375.4,190.1 L376.2,239.3 L377.1,253.3 L377.9,246.1 L378.7,226.5 L379.6,234.7 L380.4,233.3 L381.3,230.8 L382.1,221.1 L382.9,221.9 L383.8,222.2 L384.6,184.7 L385.5,235.1 L386.3,242.9 L387.2,222.9 L388.0,229.0 L388.8,220.8 L389.7,271.1 L390.5,272.5 L391.4,278.6 L392.2,268.6 L393.0,265.4 L393.9,256.5 L394.7,267.6 L395.6,260.8 L396.4,259.0 L397.3,256.5 L398.1,255.8 L398.9,241.8 L399.8,234.3 L400.6,238.3 L401.5,241.1 L402.3,239.7 L403.1,248.6 L404.0,249.0 L404.8,226.1 L405.7,219.0 L406.5,240.4 L407.3,243.3 L408.2,234.0 L409.0,238.3 L409.9,267.6 L410.7,266.5 L411.6,269.0 L412.4,273.6 L413.2,279.3 L414.1,279.0 L414.9,279.7 L415.8,279.3 L416.6,277.5 L417.4,277.9 L418.3,271.8 L419.1,242.2 L420.0,233.3 L420.8,234.0 L421.7,212.9 L422.5,242.6 L423.3,233.6 L424.2,237.2 L425.0,224.7 L425.9,202.6 L426.7,211.1 L427.5,227.9 L428.4,203.6 L429.2,192.2 L430.1,241.1 L430.9,273.3 L431.8,279.0 L432.6,283.3 L433.4,286.1 L434.3,285.0 L435.1,283.6 L436.0,283.6 L436.8,280.4 L437.6,280.4 L438.5,276.5 L439.3,250.8 L440.2,257.2 L441.0,241.1 L441.9,242.6 L442.7,242.6 L443.5,244.3 L444.4,245.4 L445.2,241.8 L446.1,220.8 L446.9,224.4 L447.7,236.5 L448.6,228.3 L449.4,221.1 L450.3,234.7 L451.1,245.8 L451.9,238.6 L452.8,245.4 L453.6,247.9 L454.5,282.2 L455.3,283.3 L456.2,281.8 L457.0,279.7 L457.8,244.3 L458.7,263.3 L459.5,239.0 L460.4,235.8 L461.2,235.4 L462.0,230.4 L462.9,214.7 L463.7,196.9 L464.6,192.6 L465.4,206.5 L466.3,163.7 L467.1,180.8 L467.9,186.5 L468.8,190.1 L469.6,210.1 L470.5,236.1 L471.3,207.6 L472.1,223.6 L473.0,215.1 L473.8,224.4 L474.7,224.4 L475.5,198.3 L476.4,212.2 L477.2,212.2 L478.0,209.7 L478.9,211.1 L479.7,193.6 L480.6,198.3 L481.4,190.8 L482.2,187.2 L483.1,203.6 L483.9,198.3 L484.8,193.6 L485.6,215.4 L486.5,225.1 L487.3,225.4 L488.1,173.3 L489.0,111.9 L489.8,120.5 L490.7,129.7 L491.5,167.9 L492.3,177.6 L493.2,169.0 L494.0,156.2 L494.9,162.6 L495.7,171.9 L496.5,164.0 L497.4,175.1 L498.2,147.2 L499.1,177.2 L499.9,161.5 L500.8,162.2 L501.6,146.2 L502.4,164.0 L503.3,175.1 L504.1,144.7 L505.0,128.7 L505.8,145.4 L506.6,165.1 L507.5,177.9 L508.3,196.9 L509.2,201.9 L510.0,192.6 L510.9,226.9 L511.7,240.1 L512.5,241.8 L513.4,242.9 L514.2,246.1 L515.1,245.4 L515.9,236.5 L516.7,232.6 L517.6,237.6 L518.4,229.7 L519.3,196.9 L520.1,182.9 L521.0,175.8 L521.8,176.9 L522.6,181.9 L523.5,192.9 L524.3,198.3 L525.2,200.4 L526.0,200.1 L526.8,171.2 L527.7,182.6 L528.5,204.0 L529.4,206.5 L530.2,205.1 L531.1,206.1 L531.9,211.1 L532.7,225.8 L533.6,220.8 L534.4,227.9 L535.3,222.9 L536.1,215.8 L536.9,195.8 L537.8,185.8 L538.6,156.9 L539.5,132.2 L540.3,117.6 L541.2,100.8 L542.8,130.1 L543.7,136.5 L544.5,126.5 L545.4,139.4 L546.2,146.5 L547.0,146.5 L547.9,150.1 L548.7,157.6 L549.6,180.4 L550.4,203.3 L551.2,214.0 L552.1,241.1 L552.9,233.6 L553.8,220.1 L554.6,210.8 L555.5,204.0 L556.3,182.9 L557.1,190.1 L558.0,207.6 L558.8,235.4 L559.7,236.5 L560.5,209.7 L561.3,199.4 L562.2,200.1 L563.0,201.9 L563.9,200.1 L564.7,200.8 L565.6,194.4 L566.4,186.5 L567.2,181.2 L568.1,180.1 L568.9,188.3 L569.8,205.1 L570.6,215.8 L571.4,223.6 L572.3,218.6 L573.1,185.4 L574.0,158.3 L574.8,137.2 L575.7,129.7 L576.5,165.8 L577.3,147.6 L578.2,144.4 L579.0,138.0 L579.9,140.1 L580.7,102.3 L581.5,110.8 L582.4,107.6 L583.2,87.6 L584.1,106.5 L584.9,113.0 L585.8,117.6 L586.6,71.2 L587.4,91.9 L588.3,132.2 L589.1,202.6 L590.0,207.6 L590.8,206.5 L591.6,213.3 L592.5,210.1 L593.3,219.4 L594.2,197.6 L595.0,172.6 L595.8,154.4 L596.7,143.7 L597.5,141.2 L598.4,137.2 L599.2,152.6 L600.1,173.3 L600.9,157.2 L601.7,129.0 L602.6,143.7 L603.4,160.8 L604.3,188.6 L605.1,202.6 L605.9,205.4 L606.8,204.7 L607.6,209.0 L608.5,225.8 L609.3,216.5 L610.2,218.6 L611.0,220.1 L611.8,245.1 L612.7,291.8 L613.5,299.0 L614.4,298.3 L615.2,295.0 L616.0,298.3 L616.9,288.6 L617.7,283.3 L618.6,265.8 L619.4,250.8 L620.3,245.8 L621.1,221.5 L621.9,221.1 L622.8,209.7 L623.6,200.4 L624.5,197.9 L625.3,190.1 L626.1,180.8 L627.0,220.8 L627.8,172.2 L628.7,188.3 L629.5,158.3 L630.4,195.4 L631.2,207.2 L632.0,232.2 L632.9,234.3 L633.7,226.9 L634.6,242.2 L635.4,250.4 L636.2,252.9 L637.1,258.6 L637.9,259.3 L638.8,262.6 L639.6,261.5 L640.4,262.2 L641.3,254.7 L642.1,230.1 L643.0,193.3 L643.8,186.9 L644.7,215.8 L645.5,188.6 L646.3,195.8 L647.2,191.5 L648.0,227.2 L648.9,220.8 L649.7,226.9 L650.5,227.9 L651.4,236.8 L652.2,251.5 L653.1,260.1 L653.9,243.6 L654.8,252.9 L655.6,254.3 L656.4,247.9 L657.3,248.3 L658.1,256.8 L659.0,258.6 L659.8,258.6 L660.6,253.6 L661.5,244.3 L662.3,219.7 L663.2,181.2 L664.0,173.3 L664.9,133.7 L665.7,98.3 L666.5,169.0 L667.4,175.8 L668.2,175.1 L669.1,185.1 L669.9,165.4 L670.7,156.2 L671.6,172.2 L672.4,226.5 L673.3,215.1 L674.1,199.4 L675.0,202.6 L675.8,185.8 L676.6,207.9 L677.5,199.7 L678.3,202.6 L679.2,204.7 L680.0,182.9" stroke="#8c564b" stroke-width="2" fill="none" opacity="0.8"/>
<!-- Forecast Difference -->
<path d="M80.0,420.0 L80.8,420.0 L81.7,420.0 L82.5,420.0 L83.4,420.0 L84.2,420.0 L85.0,420.0 L85.9,420.0 L86.7,420.0 L87.6,420.0 L88.4,420.0 L89.3,420.0 L90.1,420.0 L90.9,420.0 L91.8,420.0 L92.6,420.0 L93.5,420.0 L94.3,420.0 L95.1,420.0 L96.0,420.0 L96.8,420.0 L97.7,420.0 L98.5,420.0 L99.4,420.0 L100.2,420.0 L101.0,420.0 L101.9,420.0 L102.7,420.0 L103.6,420.0 L104.4,420.0 L105.2,420.0 L106.1,420.0 L106.9,420.0 L107.8,420.0 L108.6,420.0 L109.5,420.0 L110.3,420.0 L111.1,420.0 L112.0,420.0 L112.8,420.0 L113.7,420.0 L114.5,420.0 L115.3,420.0 L116.2,420.0 L117.0,420.0 L117.9,420.0 L118.7,420.0 L119.6,420.0 L120.4,420.0 L121.2,420.0 L122.1,420.0 L122.9,420.0 L123.8,420.0 L124.6,420.0 L125.4,420.0 L126.3,420.0 L127.1,420.0 L128.0,420.0 L128.8,420.0 L129.6,420.0 L130.5,420.0 L131.3,420.0 L132.2,420.0 L133.0,420.0 L133.9,420.0 L134.7,420.0 L135.5,420.0 L136.4,420.0 L137.2,420.0 L138.1,420.0 L138.9,420.0 L139.7,420.0 L140.6,420.0 L141.4,420.0 L142.3,420.0 L143.1,420.0 L144.0,420.0 L144.8,420.0 L145.6,420.0 L146.5,420.0 L147.3,420.0 L148.2,420.0 L149.0,420.0 L149.8,420.0 L150.7,420.0 L151.5,420.0 L152.4,420.0 L153.2,420.0 L154.1,420.0 L154.9,420.0 L155.7,420.0 L156.6,420.0 L157.4,420.0 L158.3,420.0 L159.1,420.0 L159.9,420.0 L160.8,420.0 L161.6,420.0 L162.5,420.0 L163.3,420.0 L164.2,420.0 L165.0,420.0 L165.8,420.0 L166.7,420.0 L167.5,420.0 L168.4,420.0 L169.2,420.0 L170.0,420.0 L170.9,420.0 L171.7,420.0 L172.6,420.0 L173.4,420.0 L174.2,420.0 L175.1,420.0 L175.9,420.0 L176.8,420.0 L177.6,420.0 L178.5,420.0 L179.3,420.0 L180.1,420.0 L181.0,420.0 L181.8,420.0 L182.7,420.0 L183.5,420.0 L184.3,420.0 L185.2,420.0 L186.0,420.0 L186.9,420.0 L187.7,420.0 L188.6,420.0 L189.4,420.0 L190.2,420.0 L191.1,420.0 L191.9,420.0 L192.8,420.0 L193.6,420.0 L194.4,420.0 L195.3,420.0 L196.1,420.0 L197.0,420.0 L197.8,420.0 L198.7,420.0 L199.5,420.0 L200.3,420.0 L201.2,420.0 L202.0,420.0 L202.9,420.0 L203.7,420.0 L204.5,420.0 L205.4,420.0 L206.2,420.0 L207.1,420.0 L207.9,420.0 L208.8,420.0 L209.6,420.0 L210.4,420.0 L211.3,420.0 L212.1,420.0 L213.0,420.0 L213.8,420.0 L214.6,420.0 L215.5,420.0 L216.3,420.0 L217.2,420.0 L218.0,420.0 L218.8,420.0 L219.7,420.0 L220.5,420.0 L221.4,420.0 L222.2,420.0 L223.1,420.0 L223.9,420.0 L224.7,420.0 L225.6,420.0 L226.4,420.0 L227.3,420.0 L228.1,420.0 L228.9,420.0 L229.8,420.0 L230.6,420.0 L231.5,420.0 L232.3,420.0 L233.2,420.0 L234.0,420.0 L234.8,420.0 L235.7,420.0 L236.5,420.0 L237.4,420.0 L238.2,420.0 L239.0,420.0 L239.9,420.0 L240.7,420.0 L241.6,420.0 L242.4,420.0 L243.3,420.0 L244.1,420.0 L244.9,420.0 L245.8,420.0 L246.6,420.0 L247.5,420.0 L248.3,420.0 L249.1,420.0 L250.0,420.0 L250.8,420.0 L251.7,420.0 L252.5,420.0 L253.4,420.0 L254.2,420.0 L255.0,420.0 L255.9,420.0 L256.7,420.0 L257.6,420.0 L258.4,420.0 L259.2,420.0 L260.1,420.0 L260.9,420.0 L261.8,420.0 L262.6,420.0 L263.5,420.0 L264.3,420.0 L265.1,420.0 L266.0,420.0 L266.8,420.0 L267.7,420.0 L268.5,420.0 L269.3,420.0 L270.2,420.0 L271.0,420.0 L271.9,420.0 L272.7,420.0 L273.5,420.0 L274.4,420.0 L275.2,420.0 L276.1,420.0 L276.9,420.0 L277.8,420.0 L278.6,420.0 L279.4,420.0 L280.3,420.0 L281.1,420.0 L282.0,420.0 L282.8,420.0 L283.6,420.0 L284.5,420.0 L285.3,420.0 L286.2,420.0 L287.0,420.0 L287.9,420.0 L288.7,420.0 L289.5,420.0 L290.4,420.0 L291.2,420.0 L292.1,420.0 L292.9,420.0 L293.7,420.0 L294.6,420.0 L295.4,420.0 L296.3,420.0 L297.1,420.0 L298.0,420.0 L298.8,420.0 L299.6,420.0 L300.5,420.0 L301.3,420.0 L302.2,420.0 L303.0,420.0 L303.8,420.0 L304.7,420.0 L305.5,420.0 L306.4,420.0 L307.2,420.0 L308.1,420.0 L308.9,420.0 L309.7,420.0 L310.6,420.0 L311.4,420.0 L312.3,420.0 L313.1,420.0 L313.9,420.0 L314.8,420.0 L315.6,420.0 L316.5,420.0 L317.3,420.0 L318.1,420.0 L319.0,420.0 L319.8,420.0 L320.7,420.0 L321.5,420.0 L322.4,420.0 L323.2,420.0 L324.0,420.0 L324.9,420.0 L325.7,420.0 L326.6,420.0 L327.4,420.0 L328.2,420.0 L329.1,420.0 L329.9,420.0 L330.8,420.0 L331.6,420.0 L332.5,420.0 L333.3,420.0 L334.1,420.0 L335.0,420.0 L335.8,420.0 L336.7,420.0 L337.5,420.0 L338.3,420.0 L339.2,420.0 L340.0,420.0 L340.9,420.0 L341.7,420.0 L342.6,420.0 L343.4,420.0 L344.2,420.0 L345.1,420.0 L345.9,420.0 L346.8,420.0 L347.6,420.0 L348.4,420.0 L349.3,420.0 L350.1,420.0 L351.0,420.0 L351.8,420.0 L352.7,420.0 L353.5,420.0 L354.3,420.0 L355.2,420.0 L356.0,420.0 L356.9,420.0 L357.7,420.0 L358.5,420.0 L359.4,420.0 L360.2,420.0 L361.1,420.0 L361.9,420.0 L362.7,420.0 L363.6,420.0 L364.4,420.0 L365.3,420.0 L366.1,420.0 L367.0,420.0 L367.8,420.0 L368.6,420.0 L369.5,420.0 L370.3,420.0 L371.2,420.0 L372.0,420.0 L372.8,420.0 L373.7,420.0 L374.5,420.0 L375.4,420.0 L376.2,420.0 L377.1,420.0 L377.9,420.0 L378.7,420.0 L379.6,420.0 L380.4,420.0 L381.3,420.0 L382.1,420.0 L382.9,420.0 L383.8,420.0 L384.6,420.0 L385.5,420.0 L386.3,420.0 L387.2,420.0 L388.0,420.0 L388.8,420.0 L389.7,420.0 L390.5,420.0 L391.4,420.0 L392.2,420.0 L393.0,420.0 L393.9,420.0 L394.7,420.0 L395.6,420.0 L396.4,420.0 L397.3,420.0 L398.1,420.0 L398.9,420.0 L399.8,420.0 L400.6,420.0 L401.5,420.0 L402.3,420.0 L403.1,420.0 L404.0,420.0 L404.8,420.0 L405.7,420.0 L406.5,420.0 L407.3,420.0 L408.2,420.0 L409.0,420.0 L409.9,420.0 L410.7,420.0 L411.6,420.0 L412.4,420.0 L413.2,420.0 L414.1,420.0 L414.9,420.0 L415.8,420.0 L416.6,420.0 L417.4,420.0 L418.3,420.0 L419.1,420.0 L420.0,420.0 L420.8,420.0 L421.7,420.0 L422.5,420.0 L423.3,420.0 L424.2,420.0 L425.0,420.0 L425.9,420.0 L426.7,420.0 L427.5,420.0 L428.4,420.0 L429.2,420.0 L430.1,420.0 L430.9,420.0 L431.8,420.0 L432.6,420.0 L433.4,420.0 L434.3,420.0 L435.1,420.0 L436.0,420.0 L436.8,420.0 L437.6,420.0 L438.5,420.0 L439.3,420.0 L440.2,420.0 L441.0,420.0 L441.9,420.0 L442.7,420.0 L443.5,420.0 L444.4,420.0 L445.2,420.0 L446.1,420.0 L446.9,420.0 L447.7,420.0 L448.6,420.0 L449.4,420.0 L450.3,420.0 L451.1,420.0 L451.9,420.0 L452.8,420.0 L453.6,420.0 L454.5,420.0 L455.3,420.0 L456.2,420.0 L457.0,420.0 L457.8,420.0 L458.7,420.0 L459.5,420.0 L460.4,420.0 L461.2,420.0 L462.0,420.0 L462.9,420.0 L463.7,420.0 L464.6,420.0 L465.4,420.0 L466.3,420.0 L467.1,420.0 L467.9,420.0 L468.8,420.0 L469.6,420.0 L470.5,420.0 L471.3,420.0 L472.1,420.0 L473.0,420.0 L473.8,420.0 L474.7,420.0 L475.5,420.0 L476.4,420.0 L477.2,420.0 L478.0,420.0 L478.9,420.0 L479.7,420.0 L480.6,420.0 L481.4,420.0 L482.2,420.0 L483.1,420.0 L483.9,420.0 L484.8,420.0 L485.6,420.0 L486.5,420.0 L487.3,420.0 L488.1,420.0 L489.0,420.0 L489.8,420.0 L490.7,420.0 L491.5,420.0 L492.3,420.0 L493.2,420.0 L494.0,420.0 L494.9,420.0 L495.7,420.0 L496.5,420.0 L497.4,420.0 L498.2,420.0 L499.1,420.0 L499.9,420.0 L500.8,420.0 L501.6,420.0 L502.4,420.0 L503.3,420.0 L504.1,420.0 L505.0,420.0 L505.8,420.0 L506.6,420.0 L507.5,420.0 L508.3,420.0 L509.2,420.0 L510.0,420.0 L510.9,420.0 L511.7,420.0 L512.5,420.0 L513.4,420.0 L514.2,420.0 L515.1,420.0 L515.9,420.0 L516.7,420.0 L517.6,420.0 L518.4,420.0 L519.3,420.0 L520.1,420.0 L521.0,420.0 L521.8,420.0 L522.6,420.0 L523.5,420.0 L524.3,420.0 L525.2,420.0 L526.0,420.0 L526.8,420.0 L527.7,420.0 L528.5,420.0 L529.4,420.0 L530.2,420.0 L531.1,420.0 L531.9,420.0 L532.7,420.0 L533.6,420.0 L534.4,420.0 L535.3,420.0 L536.1,420.0 L536.9,420.0 L537.8,420.0 L538.6,420.0 L539.5,420.0 L540.3,420.0 L541.2,420.0 L542.0,420.0 L542.8,420.0 L543.7,420.0 L544.5,420.0 L545.4,420.0 L546.2,420.0 L547.0,420.0 L547.9,420.0 L548.7,420.0 L549.6,420.0 L550.4,420.0 L551.2,420.0 L552.1,420.0 L552.9,420.0 L553.8,420.0 L554.6,420.0 L555.5,420.0 L556.3,420.0 L557.1,420.0 L558.0,420.0 L558.8,420.0 L559.7,420.0 L560.5,420.0 L561.3,420.0 L562.2,420.0 L563.0,420.0 L563.9,420.0 L564.7,420.0 L565.6,420.0 L566.4,420.0 L567.2,420.0 L568.1,420.0 L568.9,420.0 L569.8,420.0 L570.6,420.0 L571.4,420.0 L572.3,420.0 L573.1,420.0 L574.0,420.0 L574.8,420.0 L575.7,420.0 L576.5,420.0 L577.3,420.0 L578.2,420.0 L579.0,420.0 L579.9,420.0 L580.7,420.0 L581.5,420.0 L582.4,420.0 L583.2,420.0 L584.1,420.0 L584.9,420.0 L585.8,420.0 L586.6,420.0 L587.4,420.0 L588.3,420.0 L589.1,420.0 L590.0,420.0 L590.8,420.0 L591.6,420.0 L592.5,420.0 L593.3,420.0 L594.2,420.0 L595.0,420.0 L595.8,420.0 L596.7,420.0 L597.5,420.0 L598.4,420.0 L599.2,420.0 L600.1,420.0 L600.9,420.0 L601.7,420.0 L602.6,420.0 L603.4,420.0 L604.3,420.0 L605.1,420.0 L605.9,420.0 L606.8,420.0 L607.6,420.0 L608.5,420.0 L609.3,420.0 L610.2,420.0 L611.0,420.0 L611.8,420.0 L612.7,420.0 L613.5,420.0 L614.4,420.0 L615.2,420.0 L616.0,420.0 L616.9,420.0 L617.7,420.0 L618.6,420.0 L619.4,420.0 L620.3,420.0 L621.1,420.0 L621.9,420.0 L622.8,420.0 L623.6,420.0 L624.5,420.0 L625.3,420.0 L626.1,420.0 L627.0,420.0 L627.8,420.0 L628.7,420.0 L629.5,420.0 L630.4,420.0 L631.2,420.0 L632.0,420.0 L632.9,420.0 L633.7,420.0 L634.6,420.0 L635.4,420.0 L636.2,420.0 L637.1,420.0 L637.9,420.0 L638.8,420.0 L639.6,420.0 L640.4,420.0 L641.3,420.0 L642.1,420.0 L643.0,420.0 L643.8,420.0 L644.7,420.0 L645.5,420.0 L646.3,420.0 L647.2,420.0 L648.0,420.0 L648.9,420.0 L649.7,420.0 L650.5,420.0 L651.4,420.0 L652.2,420.0 L653.1,420.0 L653.9,420.0 L654.8,420.0 L655.6,420.0 L656.4,420.0 L657.3,420.0 L658.1,420.0 L659.0,420.0 L659.8,420.0 L660.6,420.0 L661.5,420.0 L662.3,420.0 L663.2,420.0 L664.0,420.0 L664.9,420.0 L665.7,420.0 L666.5,420.0 L667.4,420.0 L668.2,420.0 L669.1,420.0 L669.9,420.0 L670.7,420.0 L671.6,420.0 L672.4,420.0 L673.3,420.0 L674.1,420.0 L675.0,420.0 L675.8,420.0 L676.6,420.0 L677.5,420.0 L678.3,420.0 L679.2,420.0 L680.0,420.0" stroke="#e377c2" stroke-width="2" fill="none" opacity="0.8"/>

<!-- Legend -->
<line x1="690" y1="70" x2="705" y2="70" stroke="#1f77b4" stroke-width="3"/>
<text x="710" y="74" class="legend">Wind Generation</text>
<line x1="690" y1="88" x2="705" y2="88" stroke="#ff7f0e" stroke-width="3"/>
<text x="710" y="92" class="legend">Hydro Generation</text>
<line x1="690" y1="106" x2="705" y2="106" stroke="#2ca02c" stroke-width="3"/>
<text x="710" y="110" class="legend">Thermal Generation</text>
<line x1="690" y1="124" x2="705" y2="124" stroke="#d62728" stroke-width="3"/>
<text x="710" y="128" class="legend">Solar Generation</text>
<line x1="690" y1="142" x2="705" y2="142" stroke="#9467bd" stroke-width="3"/>
<text x="710" y="146" class="legend">Forecast</text>
<line x1="690" y1="160" x2="705" y2="160" stroke="#8c564b" stroke-width="3"/>
<text x="710" y="164" class="legend">Total Generation</text>
<line x1="690" y1="178" x2="705" y2="178" stroke="#e377c2" stroke-width="3"/>
<text x="710" y="182" class="legend">Forecast Difference</text>

<!-- Date range -->
<text x="80" y="495" class="legend">Range: 09/01 - 10/01/2025 (714 records)</text>
</svg>