<?xml version="1.0" encoding="UTF-8"?>
<svg width="800" height="500" xmlns="http://www.w3.org/2000/svg">
<style>
.axis-line { stroke: #333; stroke-width: 1; }
.grid-line { stroke: #ddd; stroke-width: 0.5; }
.title { font: 16px Arial; text-anchor: middle; fill: #333; }
.axis-label { font: 12px Arial; text-anchor: middle; fill: #666; }
.legend { font: 10px Arial; fill: #333; }
</style>

<!-- Title -->
<text x="400.0" y="25" class="title">Northwestern Energy Generation Data - Past 30 Days</text>

<!-- Plot area background -->
<rect x="80" y="50" width="600" height="370" fill="white" stroke="#ddd"/>

<!-- Y-axis -->
<line x1="80" y1="50" x2="80" y2="420" class="axis-line"/>
<text x="30" y="235.0" class="axis-label" transform="rotate(-90, 30, 235.0)">Generation (MW)</text>

<!-- X-axis -->
<line x1="80" y1="420" x2="680" y2="420" class="axis-line"/>
<text x="380.0" y="480" class="axis-label">Time</text>
<line x1="80" y1="420.0" x2="680" y2="420.0" class="grid-line"/>
<text x="70" y="425.0" class="legend" text-anchor="end">0</text>
<line x1="80" y1="327.5" x2="680" y2="327.5" class="grid-line"/>
<text x="70" y="332.5" class="legend" text-anchor="end">259</text>
<line x1="80" y1="235.0" x2="680" y2="235.0" class="grid-line"/>
<text x="70" y="240.0" class="legend" text-anchor="end">518</text>
<line x1="80" y1="142.5" x2="680" y2="142.5" class="grid-line"/>
<text x="70" y="147.5" class="legend" text-anchor="end">777</text>
<line x1="80" y1="50.0" x2="680" y2="50.0" class="grid-line"/>
<text x="70" y="55.0" class="legend" text-anchor="end">1036</text>
<!-- Wind Generation -->
<path d="M80.0,398.9 L80.8,377.5 L81.7,371.1 L82.5,353.6 L83.4,319.7 L84.2,312.5 L85.0,304.3 L85.9,302.9 L86.7,299.0 L87.6,307.2 L88.4,311.1 L89.3,314.0 L90.1,317.2 L90.9,307.5 L91.8,315.4 L92.6,310.4 L93.5,316.1 L94.3,336.8 L95.1,363.9 L96.0,376.4 L96.8,387.2 L97.7,397.9 L98.5,407.5 L99.4,406.4 L100.2,405.7 L101.0,403.2 L101.9,402.1 L102.7,403.9 L103.6,411.4 L104.4,413.6 L105.2,417.9 L106.1,420.0 L106.9,420.0 L107.8,420.0 L108.6,418.2 L109.5,417.1 L110.3,412.9 L111.1,416.4 L112.0,417.9 L112.8,418.9 L113.7,415.7 L114.5,410.7 L115.3,396.4 L116.2,373.2 L117.0,367.9 L117.9,373.6 L118.7,391.1 L119.6,401.4 L120.4,417.5 L121.2,420.0 L122.1,420.0 L122.9,420.0 L123.8,420.0 L124.6,419.3 L125.4,419.6 L126.3,419.3 L127.1,418.6 L128.0,418.9 L128.8,418.2 L129.6,417.1 L130.5,413.9 L131.3,413.6 L132.2,410.0 L133.0,406.8 L133.9,399.3 L134.7,380.0 L135.5,358.9 L136.4,359.3 L137.2,373.2 L138.1,396.8 L138.9,415.0 L139.7,420.0 L140.6,420.0 L141.4,418.9 L142.3,417.5 L143.1,411.1 L144.0,399.3 L144.8,377.5 L145.6,368.6 L146.5,350.7 L147.3,346.5 L148.2,317.2 L149.0,335.7 L149.8,326.1 L150.7,341.1 L151.5,350.7 L152.4,342.5 L153.2,350.7 L154.1,392.5 L154.9,410.0 L155.7,411.4 L156.6,402.1 L157.4,402.1 L158.3,368.2 L159.1,317.9 L159.9,353.2 L160.8,307.9 L161.6,317.9 L162.5,351.1 L163.3,337.2 L164.2,315.7 L165.0,320.0 L165.8,354.3 L166.7,365.0 L167.5,380.7 L168.4,385.0 L169.2,389.7 L170.0,373.9 L170.9,380.0 L171.7,368.6 L172.6,352.9 L173.4,363.6 L174.2,381.8 L175.1,400.7 L175.9,405.7 L176.8,403.2 L177.6,408.6 L178.5,416.4 L179.3,415.7 L180.1,418.9 L181.0,419.6 L181.8,419.6 L182.7,420.0 L183.5,420.0 L184.3,419.6 L185.2,418.9 L186.0,418.9 L186.9,420.0 L187.7,420.0 L188.6,418.6 L189.4,410.4 L190.2,401.1 L191.1,396.4 L191.9,397.9 L192.8,386.4 L193.6,384.3 L194.4,375.7 L195.3,375.4 L196.1,347.2 L197.0,376.8 L197.8,350.0 L198.7,366.8 L199.5,401.4 L200.3,408.9 L201.2,409.3 L202.0,413.9 L202.9,403.2 L203.7,400.0 L204.5,408.6 L205.4,410.4 L206.2,414.6 L207.1,417.5 L207.9,419.6 L208.8,419.3 L209.6,420.0 L210.4,420.0 L211.3,419.3 L212.1,419.6 L213.0,418.2 L213.8,416.1 L214.6,418.9 L215.5,402.1 L216.3,400.4 L217.2,398.2 L218.0,406.1 L218.8,404.3 L219.7,399.3 L220.5,397.5 L221.4,412.1 L222.2,416.4 L223.1,407.1 L223.9,409.3 L224.7,415.7 L225.6,413.2 L226.4,364.7 L227.3,390.4 L228.1,405.0 L228.9,383.2 L229.8,411.4 L230.6,415.0 L231.5,416.8 L232.3,416.8 L233.2,412.1 L234.0,406.1 L234.8,402.9 L235.7,407.5 L236.5,413.9 L237.4,417.5 L238.2,413.6 L239.0,415.0 L239.9,412.9 L240.7,417.9 L241.6,417.9 L242.4,419.6 L243.3,420.0 L244.1,419.3 L244.9,418.9 L245.8,410.7 L246.6,407.5 L247.5,418.6 L248.3,419.3 L249.1,419.3 L250.0,420.0 L250.8,418.6 L251.7,417.5 L252.5,401.1 L253.4,390.7 L254.2,344.7 L255.0,385.7 L255.9,391.4 L256.7,396.8 L257.6,409.3 L258.4,407.5 L259.2,402.9 L260.1,397.5 L260.9,404.6 L261.8,415.4 L262.6,418.6 L263.5,418.2 L264.3,418.6 L265.1,414.3 L266.0,408.6 L266.8,402.5 L267.7,413.9 L268.5,413.9 L269.3,412.5 L270.2,412.9 L271.0,415.7 L271.9,416.8 L272.7,418.6 L273.5,418.9 L274.4,417.1 L275.2,413.9 L276.1,414.6 L276.9,410.7 L277.8,416.1 L278.6,414.6 L279.4,417.5 L280.3,413.2 L281.1,412.9 L282.0,412.5 L282.8,412.1 L283.6,407.9 L284.5,398.6 L285.3,401.4 L286.2,404.6 L287.0,398.9 L287.9,403.2 L288.7,398.2 L289.5,378.9 L290.4,363.9 L291.2,367.2 L292.1,345.4 L292.9,352.9 L293.7,361.8 L294.6,375.7 L295.4,394.7 L296.3,405.4 L297.1,416.1 L298.0,412.5 L298.8,391.1 L299.6,283.3 L300.5,307.5 L301.3,310.4 L302.2,343.6 L303.0,337.9 L303.8,326.8 L304.7,336.1 L305.5,308.3 L306.4,314.7 L307.2,339.7 L308.1,363.6 L308.9,366.4 L309.7,364.3 L310.6,355.4 L311.4,358.9 L312.3,370.4 L313.1,363.9 L313.9,377.9 L314.8,390.7 L315.6,368.2 L316.5,373.6 L317.3,370.4 L318.1,368.6 L319.0,370.4 L319.8,355.0 L320.7,353.6 L321.5,359.7 L322.4,345.7 L323.2,339.3 L324.0,337.9 L324.9,331.5 L325.7,378.9 L326.6,392.9 L327.4,392.5 L328.2,380.0 L329.1,390.4 L329.9,397.5 L330.8,389.7 L331.6,385.0 L332.5,398.6 L333.3,383.9 L334.1,379.7 L335.0,392.2 L335.8,402.1 L336.7,397.2 L337.5,399.6 L338.3,391.1 L339.2,407.9 L340.0,410.7 L340.9,415.7 L341.7,406.4 L342.6,403.2 L343.4,395.0 L344.2,407.1 L345.1,401.1 L345.9,398.6 L346.8,396.8 L347.6,398.6 L348.4,409.3 L349.3,416.4 L350.1,419.3 L351.0,420.0 L351.8,419.6 L352.7,420.0 L353.5,419.6 L354.3,420.0 L355.2,420.0 L356.0,420.0 L356.9,418.2 L357.7,402.1 L358.5,400.0 L359.4,405.7 L360.2,405.7 L361.1,408.2 L361.9,412.1 L362.7,418.9 L363.6,419.6 L364.4,419.3 L365.3,418.6 L366.1,416.8 L367.0,417.9 L367.8,417.1 L368.6,415.4 L369.5,416.8 L370.3,417.9 L371.2,417.5 L372.0,418.2 L372.8,414.3 L373.7,414.3 L374.5,411.8 L375.4,406.4 L376.2,399.6 L377.1,394.7 L377.9,365.4 L378.7,350.4 L379.6,373.6 L380.4,406.4 L381.3,412.5 L382.1,417.1 L382.9,420.0 L383.8,420.0 L384.6,419.3 L385.5,419.3 L386.3,417.1 L387.2,417.1 L388.0,418.2 L388.8,416.8 L389.7,420.0 L390.5,417.9 L391.4,416.8 L392.2,416.1 L393.0,417.1 L393.9,417.5 L394.7,418.6 L395.6,415.4 L396.4,410.4 L397.3,406.8 L398.1,393.9 L398.9,387.9 L399.8,392.2 L400.6,400.0 L401.5,406.4 L402.3,414.6 L403.1,417.9 L404.0,419.6 L404.8,419.3 L405.7,418.2 L406.5,416.8 L407.3,413.2 L408.2,411.1 L409.0,409.3 L409.9,416.1 L410.7,415.7 L411.6,407.5 L412.4,390.7 L413.2,373.2 L414.1,376.8 L414.9,377.5 L415.8,360.4 L416.6,353.6 L417.4,371.4 L418.3,383.2 L419.1,388.9 L420.0,396.4 L420.8,375.0 L421.7,390.4 L422.5,381.4 L423.3,371.8 L424.2,372.2 L425.0,345.0 L425.9,360.0 L426.7,360.4 L427.5,361.8 L428.4,367.9 L429.2,374.7 L430.1,385.4 L430.9,375.7 L431.8,378.9 L432.6,382.2 L433.4,387.5 L434.3,396.8 L435.1,400.0 L436.0,407.5 L436.8,409.6 L437.6,349.7 L438.5,287.9 L439.3,284.7 L440.2,292.9 L441.0,332.9 L441.9,341.8 L442.7,332.2 L443.5,321.5 L444.4,327.9 L445.2,335.7 L446.1,327.5 L446.9,339.0 L447.7,313.3 L448.6,341.5 L449.4,348.6 L450.3,342.5 L451.1,349.0 L451.9,366.4 L452.8,356.8 L453.6,346.1 L454.5,331.8 L455.3,344.7 L456.2,349.7 L457.0,365.7 L457.8,389.3 L458.7,398.9 L459.5,392.2 L460.4,404.6 L461.2,410.0 L462.0,411.1 L462.9,410.4 L463.7,412.9 L464.6,412.5 L465.4,404.3 L466.3,400.7 L467.1,406.4 L467.9,398.9 L468.8,390.0 L469.6,399.3 L470.5,404.6 L471.3,395.4 L472.1,398.9 L473.0,407.5 L473.8,411.8 L474.7,415.0 L475.5,417.1 L476.4,417.1 L477.2,415.4 L478.0,411.8 L478.9,403.6 L479.7,402.1 L480.6,402.5 L481.4,406.8 L482.2,401.1 L483.1,397.9 L483.9,395.0 L484.8,390.4 L485.6,382.9 L486.5,362.9 L487.3,351.5 L488.1,354.3 L489.0,336.1 L489.8,327.9 L490.7,318.2 L492.3,341.8 L493.2,345.0 L494.0,334.0 L494.9,348.6 L495.7,356.8 L496.5,356.5 L497.4,345.7 L498.2,349.3 L499.1,370.4 L499.9,394.7 L500.8,405.4 L501.6,407.1 L502.4,400.4 L503.3,386.1 L504.1,374.7 L505.0,368.2 L505.8,345.0 L506.6,353.2 L507.5,372.2 L508.3,402.1 L509.2,410.0 L510.0,414.6 L510.9,416.4 L511.7,417.5 L512.5,416.8 L513.4,412.9 L514.2,412.9 L515.1,406.4 L515.9,399.3 L516.7,394.7 L517.6,385.7 L518.4,380.0 L519.3,380.0 L520.1,391.1 L521.0,395.4 L521.8,384.7 L522.6,350.7 L523.5,323.6 L524.3,303.3 L525.2,295.8 L526.0,330.7 L526.8,313.3 L527.7,309.7 L528.5,304.7 L529.4,307.5 L530.2,301.5 L531.1,323.2 L531.9,319.7 L532.7,297.2 L533.6,313.6 L534.4,320.0 L535.3,325.7 L536.1,277.5 L536.9,294.7 L537.8,316.8 L538.6,368.6 L539.5,370.4 L540.3,369.7 L541.2,376.8 L542.0,366.8 L542.8,373.6 L543.7,351.5 L544.5,324.3 L545.4,306.1 L546.2,295.8 L547.0,294.7 L547.9,291.1 L548.7,306.5 L549.6,331.5 L550.4,342.5 L551.2,331.8 L552.1,346.5 L552.9,361.1 L553.8,388.6 L554.6,403.2 L555.5,406.8 L556.3,406.8 L557.1,410.4 L558.0,410.4 L558.8,401.4 L559.7,389.7 L560.5,392.9 L561.3,399.6 L562.2,412.9 L563.0,417.5 L563.9,414.6 L564.7,411.4 L565.6,413.2 L566.4,404.3 L567.2,398.6 L568.1,382.2 L568.9,366.4 L569.8,365.4 L570.6,370.0 L571.4,386.1 L572.3,376.1 L573.1,371.8 L574.0,368.2 L574.8,373.2 L575.7,373.9 L576.5,381.4 L577.3,375.7 L578.2,355.0 L579.0,350.7 L579.9,351.1 L580.7,361.1 L581.5,384.7 L582.4,387.2 L583.2,380.0 L584.1,395.4 L584.9,405.0 L585.8,407.1 L586.6,412.5 L587.4,413.6 L588.3,417.9 L589.1,417.9 L590.0,418.2 L590.8,418.9 L591.6,419.6 L592.5,416.4 L593.3,413.2 L594.2,412.9 L595.0,410.0 L595.8,407.1 L596.7,404.3 L597.5,404.6 L598.4,380.4 L599.2,383.9 L600.1,383.2 L600.9,391.8 L601.7,406.1 L602.6,413.9 L603.4,397.2 L604.3,406.8 L605.1,408.9 L605.9,402.1 L606.8,402.9 L607.6,408.2 L608.5,413.9 L609.3,413.9 L610.2,411.1 L611.0,403.9 L611.8,397.2 L612.7,379.7 L613.5,370.7 L614.4,325.0 L615.2,296.1 L616.0,303.3 L616.9,295.8 L617.7,289.7 L618.6,317.5 L619.4,335.0 L620.3,343.2 L621.1,356.1 L621.9,386.8 L622.8,370.7 L623.6,354.7 L624.5,360.4 L625.3,345.0 L626.1,365.0 L627.0,357.9 L627.8,360.0 L628.7,360.7 L629.5,347.5 L630.4,341.1 L631.2,343.6 L632.0,311.8 L635.4,330.0 L636.2,315.0 L637.1,331.1 L637.9,366.8 L638.8,387.2 L639.6,402.5 L640.4,412.1 L641.3,417.9 L642.1,418.6 L643.0,415.7 L643.8,406.8 L644.7,409.6 L645.5,411.1 L646.3,415.0 L647.2,399.6 L648.0,410.0 L648.9,402.1 L649.7,405.0 L650.5,402.1 L651.4,405.0 L652.2,400.0 L653.1,396.8 L653.9,407.1 L654.8,398.9 L655.6,411.8 L656.4,419.6 L657.3,420.0 L658.1,415.7 L659.0,409.6 L659.8,414.6 L660.6,399.3 L661.5,393.6 L662.3,401.8 L663.2,401.4 L664.0,408.2 L664.9,416.8 L665.7,415.7 L666.5,416.4 L667.4,413.6 L668.2,410.4 L669.1,390.7 L669.9,410.7 L670.7,404.3 L671.6,378.9 L672.4,378.6 L673.3,366.8 L674.1,376.4 L675.0,387.5 L675.8,378.6 L676.6,375.0 L677.5,377.2 L678.3,346.1 L679.2,339.3 L680.0,356.8" stroke="#1f77b4" stroke-width="2" fill="none" opacity="0.8"/>
<!-- Hydro Generation -->
<path d="M80.0,342.9 L80.8,342.5 L81.7,341.8 L82.5,342.2 L83.4,342.2 L84.2,342.5 L85.0,342.9 L85.9,343.2 L86.7,342.9 L87.6,342.9 L88.4,342.9 L89.3,344.3 L90.1,344.3 L90.9,344.3 L91.8,344.7 L92.6,344.7 L93.5,344.3 L94.3,342.2 L95.1,345.4 L96.0,345.0 L96.8,346.5 L97.7,347.2 L98.5,347.2 L99.4,347.2 L100.2,347.2 L101.0,346.8 L101.9,345.0 L102.7,345.0 L103.6,344.7 L104.4,344.7 L105.2,344.3 L106.1,344.3 L106.9,343.6 L107.8,343.2 L108.6,342.2 L109.5,341.8 L110.3,342.2 L111.1,341.8 L112.0,342.9 L112.8,342.5 L113.7,341.8 L114.5,342.5 L115.3,342.5 L116.2,342.2 L117.0,341.8 L117.9,342.9 L118.7,342.9 L119.6,342.9 L120.4,343.2 L121.2,343.2 L122.1,343.6 L122.9,344.3 L123.8,344.3 L124.6,344.3 L125.4,345.0 L126.3,345.4 L127.1,345.0 L128.0,345.0 L128.8,346.1 L129.6,346.5 L130.5,346.1 L131.3,346.5 L132.2,346.5 L133.0,345.7 L133.9,345.4 L134.7,345.7 L135.5,346.1 L136.4,345.4 L137.2,345.0 L138.1,344.3 L138.9,344.3 L139.7,344.3 L140.6,344.7 L141.4,344.3 L142.3,343.2 L143.1,343.2 L144.0,343.2 L144.8,343.2 L145.6,344.3 L146.5,344.3 L147.3,344.0 L148.2,343.2 L149.0,343.6 L149.8,342.2 L150.7,343.2 L151.5,342.5 L152.4,342.5 L153.2,341.8 L154.1,341.8 L154.9,342.2 L155.7,342.5 L156.6,343.2 L157.4,343.6 L158.3,344.0 L159.1,343.6 L159.9,346.8 L160.8,343.2 L161.6,343.2 L162.5,342.9 L163.3,343.2 L164.2,342.5 L165.0,342.5 L165.8,342.5 L166.7,342.9 L167.5,343.6 L168.4,343.2 L169.2,343.6 L170.0,343.2 L170.9,342.9 L171.7,344.0 L172.6,343.2 L173.4,343.2 L174.2,343.6 L175.1,342.9 L175.9,342.5 L176.8,342.5 L177.6,342.5 L178.5,342.9 L179.3,342.5 L180.1,342.9 L181.0,343.6 L181.8,343.6 L182.7,343.6 L183.5,344.0 L184.3,343.2 L185.2,343.2 L186.0,344.0 L186.9,344.0 L187.7,343.6 L188.6,343.2 L189.4,343.2 L190.2,342.9 L191.1,343.6 L191.9,343.2 L192.8,342.5 L193.6,342.2 L194.4,342.2 L195.3,343.2 L196.1,342.9 L197.0,343.2 L197.8,344.0 L198.7,344.7 L199.5,344.7 L200.3,344.7 L201.2,345.0 L202.0,344.7 L202.9,344.7 L203.7,344.7 L204.5,344.3 L205.4,344.0 L206.2,344.0 L207.1,344.0 L207.9,344.0 L208.8,345.7 L209.6,345.7 L210.4,345.0 L211.3,345.4 L212.1,346.1 L213.0,346.5 L213.8,345.7 L214.6,345.7 L215.5,346.1 L216.3,346.5 L217.2,346.1 L218.0,346.8 L218.8,346.8 L219.7,347.5 L220.5,347.2 L221.4,347.2 L222.2,347.2 L223.1,346.8 L223.9,347.5 L224.7,347.2 L225.6,346.8 L226.4,347.5 L227.3,346.8 L228.1,346.1 L228.9,345.7 L229.8,345.7 L230.6,346.5 L231.5,346.1 L232.3,346.5 L233.2,345.4 L234.0,346.1 L234.8,345.4 L235.7,345.7 L236.5,345.7 L237.4,346.5 L238.2,346.5 L239.0,346.5 L239.9,346.1 L240.7,346.5 L241.6,346.5 L242.4,346.5 L243.3,346.8 L244.1,346.5 L244.9,346.8 L245.8,346.8 L246.6,346.8 L247.5,346.5 L248.3,346.5 L249.1,346.5 L250.0,346.1 L250.8,346.5 L251.7,346.5 L252.5,346.1 L253.4,346.1 L254.2,345.7 L255.0,346.1 L255.9,345.7 L256.7,346.1 L257.6,347.5 L258.4,347.5 L259.2,347.5 L260.1,347.5 L260.9,347.5 L261.8,347.5 L262.6,347.5 L263.5,347.5 L264.3,347.5 L265.1,347.2 L266.0,347.2 L266.8,348.2 L267.7,348.2 L268.5,347.5 L269.3,347.9 L270.2,347.9 L271.0,348.2 L271.9,348.2 L272.7,347.5 L273.5,347.5 L274.4,346.8 L275.2,346.8 L276.1,346.5 L276.9,346.1 L277.8,346.1 L278.6,345.0 L279.4,345.0 L280.3,343.6 L281.1,343.6 L282.0,343.2 L282.8,343.2 L283.6,343.6 L284.5,343.6 L285.3,342.9 L286.2,342.9 L287.0,342.2 L287.9,341.8 L288.7,342.2 L289.5,341.8 L290.4,341.8 L291.2,342.2 L292.1,342.5 L292.9,345.0 L293.7,345.0 L294.6,344.7 L295.4,344.3 L296.3,344.0 L297.1,344.3 L298.0,344.3 L298.8,345.0 L299.6,344.3 L300.5,344.3 L301.3,344.3 L302.2,342.2 L303.0,342.2 L303.8,342.2 L304.7,342.2 L305.5,341.8 L306.4,342.2 L307.2,350.4 L308.1,350.7 L308.9,349.3 L309.7,349.7 L310.6,349.7 L311.4,349.7 L312.3,350.7 L313.1,350.7 L313.9,351.1 L314.8,351.1 L315.6,350.0 L316.5,349.7 L317.3,349.3 L318.1,349.3 L319.0,348.6 L319.8,349.3 L320.7,349.3 L321.5,348.2 L322.4,349.0 L323.2,347.9 L324.0,348.2 L324.9,348.2 L325.7,348.6 L326.6,349.0 L327.4,348.6 L328.2,348.6 L329.1,349.7 L329.9,351.5 L330.8,350.7 L331.6,351.1 L332.5,351.8 L333.3,353.6 L334.1,353.6 L335.0,353.6 L335.8,352.9 L336.7,352.9 L337.5,353.2 L338.3,354.0 L339.2,354.0 L340.0,353.6 L340.9,354.3 L341.7,353.6 L342.6,353.2 L343.4,352.9 L344.2,351.8 L345.1,351.5 L345.9,352.2 L346.8,351.1 L347.6,352.2 L348.4,352.2 L349.3,352.2 L350.1,351.1 L351.0,351.5 L351.8,351.8 L352.7,351.1 L353.5,351.5 L354.3,351.1 L355.2,351.1 L356.0,351.1 L356.9,351.1 L357.7,351.1 L358.5,351.1 L359.4,351.5 L360.2,351.1 L361.1,351.5 L361.9,351.5 L362.7,351.5 L363.6,351.1 L364.4,351.8 L365.3,352.2 L366.1,352.9 L367.0,352.5 L367.8,354.0 L368.6,354.0 L369.5,353.6 L370.3,354.0 L371.2,354.3 L372.0,355.4 L372.8,355.4 L373.7,356.1 L374.5,356.5 L375.4,356.5 L376.2,356.5 L377.1,356.8 L377.9,357.2 L378.7,357.2 L379.6,357.2 L380.4,357.2 L381.3,356.8 L382.1,357.2 L382.9,357.2 L383.8,357.2 L384.6,357.2 L385.5,357.2 L386.3,356.5 L387.2,356.8 L388.0,356.8 L388.8,356.8 L389.7,355.7 L390.5,355.4 L391.4,355.7 L392.2,355.7 L393.0,355.7 L393.9,354.7 L394.7,355.0 L395.6,355.0 L396.4,354.3 L397.3,354.7 L398.1,355.0 L398.9,354.7 L399.8,354.3 L400.6,354.3 L401.5,354.7 L402.3,354.3 L403.1,354.0 L404.0,354.0 L404.8,354.0 L405.7,354.3 L406.5,354.0 L407.3,354.3 L408.2,355.4 L409.0,355.0 L409.9,355.0 L410.7,355.4 L411.6,355.7 L412.4,355.4 L413.2,355.4 L414.1,355.7 L414.9,355.7 L415.8,356.5 L416.6,357.2 L417.4,357.5 L418.3,357.9 L419.1,358.6 L420.0,358.2 L420.8,358.6 L421.7,358.6 L422.5,358.9 L423.3,358.9 L424.2,358.9 L425.0,358.9 L425.9,358.9 L426.7,358.6 L427.5,358.9 L428.4,359.3 L429.2,359.3 L430.1,358.9 L430.9,359.3 L431.8,358.6 L432.6,358.6 L433.4,358.6 L434.3,357.9 L435.1,357.5 L436.0,357.2 L436.8,356.8 L437.6,357.5 L438.5,357.5 L439.3,357.5 L440.2,357.5 L441.0,357.5 L441.9,357.9 L442.7,357.9 L443.5,358.2 L444.4,358.2 L445.2,358.9 L446.1,358.9 L446.9,358.9 L447.7,359.3 L448.6,360.0 L449.4,360.0 L450.3,360.0 L451.1,359.3 L451.9,359.7 L452.8,359.3 L453.6,360.0 L454.5,360.0 L455.3,359.7 L456.2,360.0 L457.0,359.7 L457.8,359.3 L458.7,359.3 L459.5,358.6 L460.4,357.2 L461.2,356.8 L462.0,357.2 L462.9,358.9 L463.7,358.9 L464.6,358.9 L465.4,358.6 L466.3,358.9 L467.1,358.9 L467.9,358.9 L468.8,358.9 L469.6,358.9 L470.5,358.6 L471.3,358.6 L472.1,358.6 L473.0,358.6 L473.8,358.9 L474.7,358.9 L475.5,358.6 L476.4,358.6 L477.2,358.2 L478.0,357.9 L478.9,358.2 L479.7,358.2 L480.6,359.7 L481.4,359.7 L482.2,360.0 L483.1,359.7 L483.9,359.7 L484.8,359.7 L485.6,359.7 L486.5,359.3 L487.3,359.7 L488.1,359.3 L489.0,360.0 L489.8,359.7 L490.7,359.7 L492.3,360.0 L493.2,359.7 L494.0,359.3 L494.9,360.0 L495.7,360.0 L496.5,360.0 L497.4,360.0 L498.2,360.0 L499.1,360.4 L499.9,358.9 L500.8,358.9 L501.6,357.9 L502.4,357.9 L503.3,359.7 L504.1,359.7 L505.0,359.7 L505.8,359.7 L506.6,359.7 L507.5,359.7 L508.3,359.7 L509.2,359.7 L510.0,360.0 L510.9,360.0 L511.7,359.7 L512.5,360.0 L513.4,360.0 L514.2,359.7 L515.1,359.3 L515.9,360.0 L516.7,359.3 L517.6,359.7 L518.4,359.7 L519.3,359.7 L520.1,358.9 L521.0,357.9 L521.8,357.9 L522.6,357.9 L523.5,358.2 L524.3,357.9 L525.2,357.5 L526.0,358.6 L526.8,358.6 L527.7,358.9 L528.5,358.6 L529.4,358.9 L530.2,358.9 L531.1,359.3 L531.9,358.9 L532.7,359.3 L533.6,360.0 L534.4,360.4 L535.3,360.4 L536.1,360.4 L536.9,360.0 L537.8,359.7 L538.6,360.0 L539.5,360.4 L540.3,360.0 L541.2,360.0 L542.0,360.0 L542.8,360.4 L543.7,360.4 L544.5,360.4 L545.4,360.0 L546.2,360.0 L547.0,360.0 L547.9,360.0 L548.7,360.4 L549.6,360.0 L550.4,360.4 L551.2,360.0 L552.1,360.4 L552.9,360.4 L553.8,360.0 L554.6,360.0 L555.5,360.0 L556.3,360.4 L557.1,360.0 L558.0,360.0 L558.8,360.0 L559.7,360.4 L560.5,358.9 L561.3,358.6 L562.2,355.7 L563.0,358.6 L563.9,360.0 L564.7,360.0 L565.6,361.4 L566.4,361.1 L567.2,361.1 L568.1,360.4 L568.9,360.0 L569.8,360.4 L570.6,360.0 L571.4,360.0 L572.3,360.4 L573.1,360.4 L574.0,360.0 L574.8,360.0 L575.7,359.7 L576.5,359.7 L577.3,360.0 L578.2,359.7 L579.0,360.0 L579.9,360.0 L580.7,360.0 L581.5,360.4 L582.4,360.4 L583.2,360.4 L584.1,360.4 L584.9,360.0 L585.8,360.0 L586.6,360.4 L587.4,360.0 L588.3,360.0 L589.1,359.7 L590.0,360.4 L590.8,360.0 L591.6,359.7 L592.5,359.7 L593.3,359.7 L594.2,359.7 L595.0,360.0 L595.8,359.7 L596.7,356.8 L597.5,360.0 L598.4,360.4 L599.2,359.7 L600.1,360.0 L600.9,360.4 L601.7,360.0 L602.6,360.0 L603.4,360.4 L604.3,360.0 L605.1,360.0 L605.9,360.0 L606.8,360.0 L607.6,363.2 L608.5,359.7 L609.3,359.7 L610.2,359.3 L611.0,359.3 L611.8,358.9 L612.7,359.3 L613.5,359.7 L614.4,359.7 L615.2,358.6 L616.0,359.3 L616.9,358.9 L617.7,358.9 L618.6,358.9 L619.4,358.9 L620.3,358.6 L621.1,358.9 L621.9,359.3 L622.8,358.9 L623.6,358.9 L624.5,358.6 L625.3,358.9 L626.1,358.9 L627.0,358.6 L627.8,358.9 L628.7,359.7 L629.5,358.9 L630.4,358.6 L631.2,358.6 L632.0,357.9 L635.4,357.5 L636.2,357.2 L637.1,356.8 L637.9,357.2 L638.8,356.8 L639.6,356.5 L640.4,356.5 L641.3,356.8 L642.1,356.8 L643.0,357.2 L643.8,356.8 L644.7,356.8 L645.5,356.8 L646.3,356.8 L647.2,357.2 L648.0,356.8 L648.9,357.9 L649.7,357.2 L650.5,357.5 L651.4,357.5 L652.2,358.2 L653.1,358.9 L653.9,358.9 L654.8,358.6 L655.6,358.9 L656.4,358.6 L657.3,358.2 L658.1,358.9 L659.0,358.2 L659.8,358.6 L660.6,358.6 L661.5,358.6 L662.3,358.9 L663.2,358.6 L664.0,358.6 L664.9,358.6 L665.7,358.2 L666.5,358.2 L667.4,358.6 L668.2,358.2 L669.1,357.9 L669.9,357.9 L670.7,358.6 L671.6,358.2 L672.4,358.2 L673.3,358.2 L674.1,357.2 L675.0,357.2 L675.8,357.2 L676.6,356.8 L677.5,356.8 L678.3,356.5 L679.2,356.5 L680.0,357.2" stroke="#ff7f0e" stroke-width="2" fill="none" opacity="0.8"/>
<!-- Thermal Generation -->
<path d="M80.0,315.4 L80.8,315.4 L81.7,315.4 L82.5,316.1 L83.4,316.5 L84.2,316.5 L85.0,330.7 L85.9,350.0 L86.7,352.5 L87.6,351.8 L88.4,352.9 L89.3,350.7 L90.1,350.4 L90.9,334.0 L91.8,319.7 L92.6,321.8 L93.5,336.5 L94.3,318.6 L95.1,320.4 L96.0,317.2 L96.8,317.2 L97.7,318.2 L98.5,320.7 L99.4,318.6 L100.2,318.6 L101.0,317.2 L101.9,317.2 L102.7,316.8 L103.6,318.2 L104.4,320.0 L105.2,320.4 L106.1,330.4 L106.9,340.0 L107.8,341.1 L108.6,336.5 L109.5,338.2 L110.3,339.0 L111.1,335.7 L112.0,330.4 L112.8,321.8 L113.7,318.6 L114.5,315.4 L115.3,315.0 L116.2,313.6 L117.0,315.0 L117.9,313.6 L118.7,313.3 L119.6,339.0 L120.4,344.7 L121.2,346.1 L122.1,346.1 L122.9,346.5 L123.8,346.1 L124.6,347.5 L125.4,347.2 L126.3,344.0 L127.1,344.0 L128.0,345.7 L128.8,350.0 L129.6,351.5 L130.5,352.9 L131.3,354.0 L132.2,354.7 L133.0,331.5 L133.9,321.1 L134.7,321.1 L135.5,319.0 L136.4,320.0 L137.2,331.8 L138.1,330.0 L138.9,348.2 L139.7,328.2 L140.6,348.2 L141.4,348.2 L142.3,348.2 L143.1,349.3 L144.0,347.9 L144.8,347.5 L145.6,348.2 L146.5,348.6 L147.3,350.0 L148.2,352.2 L149.0,354.0 L149.8,354.7 L150.7,356.5 L151.5,356.5 L152.4,356.8 L153.2,356.1 L154.1,348.2 L154.9,325.0 L155.7,322.9 L156.6,325.0 L157.4,321.8 L158.3,331.1 L159.1,351.8 L159.9,352.9 L160.8,354.0 L161.6,352.5 L162.5,352.5 L163.3,352.2 L164.2,352.2 L165.0,352.5 L165.8,351.5 L166.7,349.0 L167.5,349.0 L168.4,350.7 L169.2,335.7 L170.0,322.9 L170.9,323.6 L171.7,325.7 L172.6,332.5 L173.4,327.5 L174.2,354.3 L175.1,353.2 L175.9,351.8 L176.8,351.5 L177.6,351.1 L178.5,319.3 L179.3,319.3 L180.1,318.2 L181.0,342.5 L181.8,341.5 L182.7,341.5 L183.5,342.5 L184.3,329.0 L185.2,319.7 L186.0,317.9 L186.9,318.2 L187.7,319.7 L188.6,306.5 L189.4,321.1 L190.2,306.5 L191.1,314.0 L191.9,316.1 L192.8,308.3 L193.6,309.0 L194.4,311.1 L195.3,310.4 L196.1,310.0 L197.0,309.0 L197.8,309.0 L198.7,315.0 L199.5,327.5 L200.3,327.9 L201.2,321.1 L202.0,321.5 L202.9,321.5 L203.7,306.8 L204.5,307.9 L205.4,305.8 L206.2,278.6 L207.1,292.2 L207.9,303.3 L208.8,308.3 L209.6,308.6 L210.4,309.0 L211.3,301.1 L212.1,285.8 L213.0,287.2 L213.8,297.9 L214.6,288.3 L215.5,286.8 L216.3,284.3 L217.2,281.1 L218.0,291.8 L218.8,304.7 L219.7,309.3 L220.5,309.3 L221.4,308.6 L222.2,307.9 L223.1,307.5 L223.9,309.0 L224.7,308.6 L225.6,294.7 L226.4,297.9 L227.3,301.8 L228.1,302.9 L228.9,301.5 L229.8,309.3 L230.6,310.8 L231.5,300.0 L232.3,300.4 L233.2,296.8 L234.0,290.8 L234.8,297.9 L235.7,286.5 L236.5,285.4 L237.4,287.9 L238.2,284.3 L239.0,296.5 L239.9,287.9 L240.7,295.0 L241.6,307.2 L242.4,306.8 L243.3,306.1 L244.1,305.4 L244.9,306.1 L245.8,292.2 L246.6,291.5 L247.5,305.4 L248.3,306.8 L249.1,307.9 L250.0,326.5 L250.8,318.6 L251.7,310.4 L252.5,310.0 L253.4,315.7 L254.2,338.6 L255.0,346.5 L255.9,346.1 L256.7,336.1 L257.6,335.4 L258.4,333.6 L259.2,326.8 L260.1,327.2 L260.9,326.8 L261.8,329.7 L262.6,329.3 L263.5,332.5 L264.3,328.6 L265.1,329.0 L266.0,329.3 L266.8,329.3 L267.7,336.1 L268.5,346.1 L269.3,348.6 L270.2,347.5 L271.0,348.6 L271.9,347.5 L272.7,346.8 L273.5,346.8 L274.4,336.1 L275.2,337.5 L276.1,336.1 L276.9,336.1 L277.8,339.7 L278.6,340.7 L279.4,342.2 L280.3,344.0 L281.1,335.4 L282.0,343.2 L282.8,344.7 L283.6,346.5 L284.5,345.7 L285.3,345.7 L286.2,347.2 L287.0,347.2 L287.9,352.2 L288.7,354.0 L289.5,354.3 L290.4,353.6 L291.2,355.4 L292.1,356.5 L292.9,357.2 L293.7,357.2 L294.6,357.2 L295.4,357.9 L296.3,357.2 L297.1,356.5 L298.0,345.4 L298.8,331.5 L299.6,344.3 L300.5,355.4 L301.3,354.7 L302.2,355.0 L303.0,355.7 L303.8,354.0 L304.7,354.0 L305.5,354.0 L306.4,354.0 L307.2,353.2 L308.1,352.2 L308.9,352.5 L309.7,353.6 L310.6,346.1 L311.4,336.1 L312.3,352.5 L313.1,354.3 L313.9,334.3 L314.8,321.5 L315.6,319.0 L316.5,317.5 L317.3,315.7 L318.1,317.2 L319.0,326.1 L319.8,326.1 L320.7,351.5 L321.5,350.7 L322.4,350.4 L323.2,351.1 L324.0,351.8 L324.9,350.4 L325.7,351.8 L326.6,351.1 L327.4,351.1 L328.2,351.8 L329.1,352.2 L329.9,352.9 L330.8,352.2 L331.6,352.2 L332.5,352.2 L333.3,352.9 L334.1,319.0 L335.0,335.7 L335.8,340.0 L336.7,316.1 L337.5,316.1 L338.3,315.7 L339.2,349.3 L340.0,348.2 L340.9,348.6 L341.7,348.6 L342.6,349.0 L343.4,348.6 L344.2,348.6 L345.1,348.2 L345.9,348.2 L346.8,348.6 L347.6,349.0 L348.4,349.0 L349.3,350.0 L350.1,352.2 L351.0,354.0 L351.8,354.3 L352.7,358.9 L353.5,360.0 L354.3,338.2 L355.2,327.2 L356.0,344.0 L356.9,322.5 L357.7,320.7 L358.5,327.2 L359.4,350.4 L360.2,349.7 L361.1,349.3 L361.9,350.0 L362.7,349.0 L363.6,348.2 L364.4,348.6 L365.3,348.6 L366.1,347.9 L367.0,347.5 L367.8,347.5 L368.6,348.6 L369.5,349.7 L370.3,350.7 L371.2,328.2 L372.0,352.9 L372.8,350.7 L373.7,354.0 L374.5,343.6 L375.4,325.0 L376.2,330.7 L377.1,323.6 L377.9,321.1 L378.7,324.3 L379.6,350.0 L380.4,349.3 L381.3,349.3 L382.1,348.6 L382.9,348.2 L383.8,347.2 L384.6,346.8 L385.5,347.2 L386.3,346.8 L387.2,346.5 L388.0,348.6 L388.8,349.0 L389.7,349.3 L390.5,350.4 L391.4,351.8 L392.2,352.2 L393.0,350.7 L393.9,354.0 L394.7,353.6 L395.6,331.1 L396.4,322.9 L397.3,322.5 L398.1,319.3 L398.9,318.6 L399.8,328.2 L400.6,331.5 L401.5,317.5 L402.3,316.5 L403.1,316.1 L404.0,348.6 L404.8,349.7 L405.7,349.3 L406.5,349.0 L407.3,316.8 L408.2,342.5 L409.0,350.0 L409.9,352.2 L410.7,353.2 L411.6,354.7 L412.4,355.0 L413.2,355.7 L414.1,346.1 L414.9,357.2 L415.8,325.4 L416.6,334.7 L417.4,304.7 L418.3,289.0 L419.1,302.2 L420.0,321.1 L420.8,313.6 L421.7,314.3 L422.5,314.3 L423.3,333.2 L424.2,332.9 L425.0,334.0 L425.9,333.2 L426.7,333.2 L427.5,329.0 L428.4,328.6 L429.2,329.7 L430.1,330.4 L430.9,331.8 L431.8,335.7 L432.6,335.0 L433.4,326.8 L434.3,320.4 L435.1,320.7 L436.0,320.7 L436.8,310.0 L437.6,307.2 L438.5,306.5 L439.3,318.2 L440.2,319.3 L441.0,317.5 L441.9,317.9 L442.7,319.0 L443.5,316.5 L444.4,316.5 L445.2,317.2 L446.1,317.5 L446.9,317.2 L447.7,314.7 L448.6,316.5 L449.4,315.4 L450.3,309.3 L451.1,308.3 L451.9,309.3 L452.8,312.9 L453.6,314.7 L454.5,315.7 L455.3,315.0 L456.2,314.0 L457.0,314.0 L457.8,294.7 L458.7,283.6 L459.5,281.8 L460.4,305.0 L461.2,313.3 L462.0,313.6 L462.9,313.3 L463.7,314.0 L464.6,313.6 L465.4,313.3 L466.3,312.5 L467.1,312.2 L467.9,311.8 L468.8,294.3 L469.6,302.5 L470.5,302.2 L471.3,312.5 L472.1,312.9 L473.0,314.0 L473.8,314.7 L474.7,315.4 L475.5,314.3 L476.4,284.7 L477.2,284.7 L478.0,280.4 L478.9,284.7 L479.7,284.7 L480.6,284.0 L481.4,284.7 L482.2,304.7 L483.1,303.3 L483.9,313.3 L484.8,312.9 L485.6,312.9 L486.5,313.6 L487.3,314.7 L488.1,283.3 L489.0,282.2 L489.8,307.5 L490.7,313.3 L492.3,316.8 L493.2,318.6 L494.0,320.0 L494.9,319.3 L495.7,319.7 L496.5,319.3 L497.4,319.3 L498.2,293.6 L499.1,289.7 L499.9,289.7 L500.8,289.7 L501.6,316.1 L502.4,315.4 L503.3,314.0 L504.1,316.1 L505.0,315.7 L505.8,317.9 L506.6,317.2 L507.5,315.7 L508.3,313.6 L509.2,312.2 L510.0,311.5 L510.9,312.2 L511.7,312.2 L512.5,312.2 L513.4,312.9 L514.2,314.0 L515.1,316.1 L515.9,316.5 L516.7,315.7 L517.6,307.2 L518.4,293.3 L519.3,305.4 L520.1,305.8 L521.0,310.4 L521.8,316.1 L522.6,316.8 L523.5,316.1 L524.3,315.7 L525.2,316.1 L526.0,316.1 L526.8,315.4 L527.7,315.7 L528.5,314.7 L529.4,314.7 L530.2,315.0 L531.1,315.7 L531.9,317.5 L532.7,317.9 L533.6,317.2 L534.4,317.9 L535.3,317.5 L536.1,316.5 L536.9,315.0 L537.8,316.8 L538.6,316.1 L539.5,316.8 L540.3,316.5 L541.2,316.1 L542.0,322.9 L542.8,325.0 L543.7,325.4 L544.5,327.5 L545.4,327.9 L546.2,327.5 L547.0,326.5 L547.9,326.1 L548.7,325.7 L549.6,325.7 L550.4,326.5 L551.2,325.4 L552.1,325.7 L552.9,325.7 L553.8,325.4 L554.6,324.3 L555.5,325.7 L556.3,326.1 L557.1,325.7 L558.0,325.0 L558.8,298.3 L559.7,308.6 L560.5,308.3 L561.3,326.8 L562.2,363.2 L563.0,362.9 L563.9,363.6 L564.7,363.6 L565.6,363.6 L566.4,362.9 L567.2,363.6 L568.1,363.2 L568.9,364.3 L569.8,364.3 L570.6,361.8 L571.4,362.5 L572.3,361.4 L573.1,352.2 L574.0,353.2 L574.8,342.2 L575.7,332.2 L576.5,332.5 L577.3,325.4 L578.2,325.0 L579.0,292.5 L579.9,324.0 L580.7,325.7 L581.5,326.8 L582.4,326.5 L583.2,326.1 L584.1,326.1 L584.9,325.0 L585.8,325.4 L586.6,325.4 L587.4,325.7 L588.3,324.7 L589.1,324.0 L590.0,324.7 L590.8,326.5 L591.6,325.4 L592.5,297.5 L593.3,298.3 L594.2,325.7 L595.0,303.3 L595.8,295.0 L596.7,293.6 L597.5,324.7 L598.4,324.0 L599.2,324.7 L600.1,324.3 L600.9,324.3 L601.7,325.0 L602.6,325.7 L603.4,325.7 L604.3,325.7 L605.1,325.0 L605.9,325.4 L606.8,325.4 L607.6,325.4 L608.5,325.0 L609.3,325.0 L610.2,325.4 L611.0,325.7 L611.8,326.8 L612.7,326.8 L613.5,325.0 L614.4,327.2 L615.2,325.7 L616.0,383.2 L616.9,382.5 L617.7,371.8 L618.6,357.9 L619.4,311.8 L620.3,294.0 L621.1,296.8 L621.9,320.0 L622.8,325.0 L623.6,325.4 L624.5,322.9 L625.3,323.2 L626.1,323.6 L627.0,324.0 L627.8,323.6 L628.7,324.0 L629.5,317.2 L630.4,324.7 L631.2,325.0 L632.0,324.3 L635.4,379.3 L636.2,368.9 L637.1,354.7 L637.9,322.5 L638.8,322.2 L639.6,284.7 L640.4,284.0 L641.3,282.2 L642.1,281.8 L643.0,281.8 L643.8,285.4 L644.7,283.6 L645.5,292.9 L646.3,310.0 L647.2,310.0 L648.0,310.0 L648.9,317.5 L649.7,282.9 L650.5,282.5 L651.4,323.6 L652.2,323.2 L653.1,301.1 L653.9,309.0 L654.8,314.7 L655.6,300.0 L656.4,302.2 L657.3,307.2 L658.1,305.0 L659.0,282.9 L659.8,279.0 L660.6,279.3 L661.5,279.7 L662.3,280.4 L663.2,284.7 L664.0,293.3 L664.9,278.3 L665.7,284.3 L666.5,308.3 L667.4,312.5 L668.2,302.9 L669.1,296.1 L669.9,279.3 L670.7,286.5 L671.6,297.2 L672.4,296.1 L673.3,309.0 L674.1,290.8 L675.0,300.0 L675.8,318.6 L676.6,322.5 L677.5,323.2 L678.3,315.4 L679.2,322.2 L680.0,280.0" stroke="#2ca02c" stroke-width="2" fill="none" opacity="0.8"/>
<!-- Solar Generation -->
<path d="M80.0,420.0 L80.8,420.0 L81.7,420.0 L82.5,420.0 L83.4,420.0 L84.2,420.0 L85.0,414.6 L85.9,396.4 L86.7,388.9 L87.6,386.8 L88.4,390.4 L89.3,385.4 L90.1,381.8 L90.9,378.2 L91.8,390.7 L92.6,393.2 L93.5,395.4 L94.3,411.1 L95.1,419.6 L96.0,420.0 L96.8,420.0 L97.7,420.0 L98.5,420.0 L99.4,420.0 L100.2,420.0 L101.0,420.0 L101.9,420.0 L102.7,420.0 L103.6,420.0 L104.4,420.0 L105.2,410.7 L106.1,390.7 L106.9,373.9 L107.8,370.4 L108.6,370.0 L109.5,371.1 L110.3,370.7 L111.1,369.3 L112.0,368.9 L112.8,370.4 L113.7,380.4 L114.5,406.1 L115.3,419.6 L116.2,420.0 L117.0,420.0 L117.9,420.0 L118.7,420.0 L119.6,420.0 L120.4,420.0 L121.2,420.0 L122.1,420.0 L122.9,420.0 L123.8,420.0 L124.6,420.0 L125.4,409.6 L126.3,389.3 L127.1,381.8 L128.0,376.4 L128.8,374.7 L129.6,374.3 L130.5,375.4 L131.3,378.2 L132.2,381.8 L133.0,384.3 L133.9,396.4 L134.7,413.2 L135.5,420.0 L136.4,420.0 L137.2,420.0 L138.1,420.0 L138.9,420.0 L139.7,420.0 L140.6,420.0 L141.4,420.0 L142.3,420.0 L143.1,420.0 L144.0,420.0 L144.8,420.0 L145.6,413.6 L146.5,399.3 L147.3,378.6 L148.2,374.3 L149.0,380.7 L149.8,377.2 L150.7,382.5 L151.5,375.7 L152.4,383.9 L153.2,410.7 L154.1,415.0 L154.9,418.2 L155.7,420.0 L156.6,420.0 L157.4,420.0 L158.3,420.0 L159.1,420.0 L159.9,420.0 L160.8,420.0 L161.6,420.0 L162.5,420.0 L163.3,420.0 L164.2,420.0 L165.0,420.0 L165.8,412.9 L166.7,394.7 L167.5,371.1 L168.4,371.1 L169.2,386.8 L170.0,377.5 L170.9,385.4 L171.7,377.2 L172.6,381.8 L173.4,376.8 L174.2,386.8 L175.1,405.4 L175.9,419.6 L176.8,420.0 L177.6,420.0 L178.5,420.0 L179.3,420.0 L180.1,420.0 L181.0,420.0 L181.8,420.0 L182.7,420.0 L183.5,420.0 L184.3,420.0 L185.2,420.0 L186.0,414.6 L186.9,408.2 L187.7,400.0 L188.6,398.2 L189.4,393.6 L190.2,380.4 L191.1,385.7 L191.9,385.0 L192.8,386.4 L193.6,391.8 L194.4,403.2 L195.3,417.5 L196.1,420.0 L197.0,420.0 L197.8,420.0 L198.7,420.0 L199.5,420.0 L200.3,420.0 L201.2,420.0 L202.0,420.0 L202.9,420.0 L203.7,420.0 L204.5,420.0 L205.4,420.0 L206.2,414.3 L207.1,387.5 L207.9,391.1 L208.8,385.0 L209.6,385.4 L210.4,379.7 L211.3,384.3 L212.1,376.1 L213.0,395.0 L213.8,402.9 L214.6,407.1 L215.5,417.1 L216.3,420.0 L217.2,420.0 L218.0,420.0 L218.8,420.0 L219.7,420.0 L220.5,420.0 L221.4,420.0 L222.2,420.0 L223.1,420.0 L223.9,420.0 L224.7,420.0 L225.6,420.0 L226.4,417.5 L227.3,413.6 L228.1,395.0 L228.9,391.1 L229.8,391.1 L230.6,390.4 L231.5,387.5 L232.3,394.3 L233.2,403.9 L234.0,410.4 L234.8,412.5 L235.7,417.1 L236.5,420.0 L237.4,420.0 L238.2,420.0 L239.0,420.0 L239.9,420.0 L240.7,420.0 L241.6,420.0 L242.4,420.0 L243.3,420.0 L244.1,420.0 L244.9,420.0 L245.8,420.0 L246.6,410.7 L247.5,386.8 L248.3,373.9 L249.1,371.1 L250.0,373.2 L250.8,381.4 L251.7,373.2 L252.5,383.6 L253.4,392.2 L254.2,382.9 L255.0,405.0 L255.9,416.1 L256.7,420.0 L257.6,420.0 L258.4,420.0 L259.2,420.0 L260.1,420.0 L260.9,420.0 L261.8,420.0 L262.6,420.0 L263.5,420.0 L264.3,420.0 L265.1,420.0 L266.0,420.0 L266.8,418.6 L267.7,395.7 L268.5,386.8 L269.3,380.4 L270.2,378.6 L271.0,376.1 L271.9,373.9 L272.7,386.1 L273.5,401.8 L274.4,402.5 L275.2,396.8 L276.1,414.6 L276.9,420.0 L277.8,420.0 L278.6,420.0 L279.4,420.0 L280.3,420.0 L281.1,420.0 L282.0,420.0 L282.8,420.0 L283.6,420.0 L284.5,420.0 L285.3,420.0 L286.2,420.0 L287.0,410.7 L287.9,377.5 L288.7,397.2 L289.5,396.8 L290.4,389.3 L291.2,378.2 L292.1,398.2 L292.9,394.7 L293.7,391.4 L294.6,407.5 L295.4,417.5 L296.3,418.2 L297.1,420.0 L298.0,420.0 L298.8,420.0 L299.6,420.0 L300.5,420.0 L301.3,420.0 L302.2,420.0 L303.0,420.0 L303.8,420.0 L304.7,420.0 L305.5,420.0 L306.4,420.0 L307.2,415.7 L308.1,383.6 L308.9,387.9 L309.7,393.6 L310.6,399.6 L311.4,403.9 L312.3,388.2 L313.1,390.4 L313.9,411.4 L314.8,411.4 L315.6,415.0 L316.5,417.9 L317.3,420.0 L318.1,420.0 L319.0,420.0 L319.8,420.0 L320.7,420.0 L321.5,420.0 L322.4,420.0 L323.2,420.0 L324.0,420.0 L324.9,420.0 L325.7,420.0 L326.6,420.0 L327.4,413.9 L328.2,406.1 L329.1,402.5 L329.9,391.4 L330.8,398.2 L331.6,392.9 L332.5,379.3 L333.3,391.8 L334.1,392.5 L335.0,413.6 L335.8,407.9 L336.7,416.8 L337.5,420.0 L338.3,420.0 L339.2,420.0 L340.0,420.0 L340.9,420.0 L341.7,420.0 L342.6,420.0 L343.4,420.0 L344.2,420.0 L345.1,420.0 L345.9,420.0 L346.8,420.0 L347.6,416.1 L348.4,391.4 L349.3,375.7 L350.1,375.7 L351.0,375.7 L351.8,373.9 L352.7,378.6 L353.5,377.9 L354.3,376.4 L355.2,380.4 L356.0,385.4 L356.9,411.4 L357.7,420.0 L358.5,420.0 L359.4,420.0 L360.2,420.0 L361.1,420.0 L361.9,420.0 L362.7,420.0 L363.6,420.0 L364.4,420.0 L365.3,420.0 L366.1,420.0 L367.0,420.0 L367.8,413.2 L368.6,384.3 L369.5,373.2 L370.3,371.4 L371.2,372.9 L372.0,376.1 L372.8,373.2 L373.7,372.9 L374.5,372.9 L375.4,374.7 L376.2,384.3 L377.1,412.9 L377.9,420.0 L378.7,420.0 L379.6,420.0 L380.4,420.0 L381.3,420.0 L382.1,420.0 L382.9,420.0 L383.8,420.0 L384.6,420.0 L385.5,420.0 L386.3,420.0 L387.2,420.0 L388.0,412.9 L388.8,388.2 L389.7,392.2 L390.5,377.5 L391.4,378.2 L392.2,378.6 L393.0,380.7 L393.9,379.3 L394.7,374.7 L395.6,379.3 L396.4,396.8 L397.3,412.5 L398.1,420.0 L398.9,420.0 L399.8,420.0 L400.6,420.0 L401.5,420.0 L402.3,420.0 L403.1,420.0 L404.0,420.0 L404.8,420.0 L405.7,420.0 L406.5,420.0 L407.3,420.0 L408.2,414.3 L409.0,384.7 L409.9,372.5 L410.7,371.1 L411.6,372.5 L412.4,373.6 L413.2,372.5 L414.1,373.9 L414.9,376.1 L415.8,381.4 L416.6,395.4 L417.4,412.9 L418.3,420.0 L419.1,420.0 L420.0,420.0 L420.8,420.0 L421.7,420.0 L422.5,420.0 L423.3,420.0 L424.2,420.0 L425.0,420.0 L425.9,420.0 L426.7,420.0 L427.5,420.0 L428.4,415.4 L429.2,390.0 L430.1,383.6 L430.9,383.9 L431.8,373.9 L432.6,387.9 L433.4,385.4 L434.3,378.6 L435.1,397.2 L436.0,399.6 L436.8,408.9 L437.6,418.9 L438.5,420.0 L439.3,420.0 L440.2,420.0 L441.0,420.0 L441.9,420.0 L442.7,420.0 L443.5,420.0 L444.4,420.0 L445.2,420.0 L446.1,420.0 L446.9,420.0 L447.7,420.0 L448.6,419.3 L449.4,397.5 L450.3,410.4 L451.1,389.7 L451.9,388.6 L452.8,406.1 L453.6,383.9 L454.5,381.1 L455.3,386.1 L456.2,401.4 L457.0,398.6 L457.8,413.6 L458.7,420.0 L459.5,420.0 L460.4,420.0 L461.2,420.0 L462.0,420.0 L462.9,420.0 L463.7,420.0 L464.6,420.0 L465.4,420.0 L466.3,420.0 L467.1,420.0 L467.9,420.0 L468.8,413.6 L469.6,382.2 L470.5,370.4 L471.3,370.4 L472.1,371.4 L473.0,372.9 L473.8,372.9 L474.7,371.1 L475.5,370.0 L476.4,370.7 L477.2,384.3 L478.0,413.9 L478.9,420.0 L479.7,420.0 L480.6,420.0 L481.4,420.0 L482.2,420.0 L483.1,420.0 L483.9,420.0 L484.8,420.0 L485.6,420.0 L486.5,420.0 L487.3,420.0 L488.1,420.0 L489.0,413.9 L489.8,382.5 L490.7,369.7 L491.5,420.0 L492.3,371.4 L493.2,373.2 L494.0,373.2 L494.9,371.4 L495.7,370.0 L496.5,370.7 L497.4,385.0 L498.2,414.6 L499.1,420.0 L499.9,420.0 L500.8,420.0 L501.6,420.0 L502.4,420.0 L503.3,420.0 L504.1,420.0 L505.0,420.0 L505.8,420.0 L506.6,420.0 L507.5,420.0 L508.3,420.0 L509.2,414.6 L510.0,383.6 L510.9,370.7 L511.7,370.7 L512.5,372.9 L513.4,374.3 L514.2,374.3 L515.1,372.5 L515.9,370.7 L516.7,371.4 L517.6,387.5 L518.4,415.4 L519.3,420.0 L520.1,420.0 L521.0,420.0 L521.8,420.0 L522.6,420.0 L523.5,420.0 L524.3,420.0 L525.2,420.0 L526.0,420.0 L526.8,420.0 L527.7,420.0 L528.5,420.0 L529.4,418.9 L530.2,386.8 L531.1,372.5 L531.9,371.4 L532.7,373.2 L533.6,375.7 L534.4,374.7 L535.3,373.9 L536.1,376.8 L536.9,382.2 L537.8,398.9 L538.6,417.9 L539.5,420.0 L540.3,420.0 L541.2,420.0 L542.0,420.0 L542.8,420.0 L543.7,420.0 L544.5,420.0 L545.4,420.0 L546.2,420.0 L547.0,420.0 L547.9,420.0 L548.7,420.0 L549.6,416.1 L550.4,387.9 L551.2,371.8 L552.1,371.1 L552.9,373.6 L553.8,374.7 L554.6,375.0 L555.5,372.9 L556.3,371.4 L557.1,372.9 L558.0,390.4 L558.8,416.8 L559.7,420.0 L560.5,420.0 L561.3,420.0 L562.2,420.0 L563.0,420.0 L563.9,420.0 L564.7,420.0 L565.6,420.0 L566.4,420.0 L567.2,420.0 L568.1,420.0 L568.9,420.0 L569.8,415.7 L570.6,389.7 L571.4,372.5 L572.3,371.8 L573.1,376.1 L574.0,376.4 L574.8,374.7 L575.7,375.0 L576.5,407.1 L577.3,371.1 L578.2,408.6 L579.0,415.0 L579.9,420.0 L580.7,420.0 L581.5,420.0 L582.4,420.0 L583.2,420.0 L584.1,420.0 L584.9,420.0 L585.8,420.0 L586.6,420.0 L587.4,420.0 L588.3,420.0 L589.1,420.0 L590.0,418.9 L590.8,409.3 L591.6,385.4 L592.5,379.7 L593.3,375.7 L594.2,377.5 L595.0,375.4 L595.8,393.9 L596.7,396.8 L597.5,397.9 L598.4,416.1 L599.2,418.6 L600.1,420.0 L600.9,420.0 L601.7,420.0 L602.6,420.0 L603.4,420.0 L604.3,420.0 L605.1,420.0 L605.9,420.0 L606.8,420.0 L607.6,420.0 L608.5,420.0 L609.3,420.0 L610.2,417.9 L611.0,415.4 L611.8,396.8 L612.7,375.4 L613.5,377.9 L614.4,381.8 L615.2,377.9 L616.0,383.2 L616.9,398.6 L617.7,414.6 L618.6,410.7 L619.4,419.6 L620.3,420.0 L621.1,420.0 L621.9,420.0 L622.8,420.0 L623.6,420.0 L624.5,420.0 L625.3,420.0 L626.1,420.0 L627.0,420.0 L627.8,420.0 L628.7,420.0 L629.5,420.0 L630.4,419.3 L631.2,400.0 L632.0,408.6 L632.9,420.0 L633.7,420.0 L634.6,420.0 L635.4,392.5 L636.2,378.9 L637.1,378.9 L637.9,399.6 L638.8,407.1 L639.6,419.3 L640.4,420.0 L641.3,420.0 L642.1,420.0 L643.0,420.0 L643.8,420.0 L644.7,420.0 L645.5,420.0 L646.3,420.0 L647.2,420.0 L648.0,420.0 L648.9,420.0 L649.7,420.0 L650.5,417.9 L651.4,401.8 L652.2,397.2 L653.1,403.9 L653.9,407.1 L654.8,410.0 L655.6,396.1 L656.4,394.3 L657.3,414.6 L658.1,404.3 L659.0,401.8 L659.8,419.6 L660.6,420.0 L661.5,420.0 L662.3,420.0 L663.2,420.0 L664.0,420.0 L664.9,420.0 L665.7,420.0 L666.5,420.0 L667.4,420.0 L668.2,420.0 L669.1,420.0 L669.9,420.0 L670.7,418.6 L671.6,411.8 L672.4,407.5 L673.3,398.2 L674.1,394.7 L675.0,387.9 L675.8,382.2 L676.6,396.8 L677.5,407.5 L678.3,416.4 L679.2,416.4 L680.0,419.6" stroke="#d62728" stroke-width="2" fill="none" opacity="0.8"/>
<!-- Forecast -->
<path d="M80.0,204.7 L80.8,211.5 L81.7,217.9 L82.5,217.2 L83.4,207.2 L84.2,185.4 L85.0,159.0 L85.9,131.2 L86.7,115.1 L87.6,108.0 L88.4,101.5 L89.3,98.3 L90.1,94.0 L90.9,89.8 L91.8,82.3 L92.6,79.8 L93.5,86.2 L94.3,96.2 L95.1,110.5 L96.0,121.5 L96.8,127.2 L97.7,148.3 L98.5,190.4 L99.4,206.5 L100.2,238.3 L101.0,250.8 L101.9,254.3 L102.7,256.8 L103.6,230.4 L104.4,222.9 L105.2,201.1 L106.1,186.5 L106.9,164.4 L107.8,148.7 L108.6,142.6 L109.5,141.2 L110.3,141.2 L111.1,141.5 L112.0,141.2 L112.8,140.8 L113.7,141.2 L114.5,141.2 L115.3,125.1 L116.2,128.3 L117.0,135.8 L117.9,164.0 L118.7,191.9 L119.6,231.5 L120.4,245.4 L121.2,250.1 L122.1,252.6 L122.9,254.3 L123.8,255.1 L124.6,241.8 L125.4,216.9 L126.3,186.2 L127.1,165.8 L128.0,158.3 L128.8,157.9 L129.6,148.7 L130.5,141.2 L131.3,140.1 L132.2,128.0 L133.0,120.1 L133.9,119.4 L134.7,118.3 L135.5,129.7 L136.4,138.0 L137.2,140.1 L138.1,156.2 L138.9,179.7 L139.7,201.9 L140.6,217.9 L141.4,227.2 L142.3,232.2 L143.1,234.0 L144.0,232.2 L144.8,224.7 L145.6,212.2 L146.5,194.4 L147.3,175.8 L148.2,160.4 L149.0,152.6 L149.8,148.7 L150.7,139.4 L151.5,130.1 L152.4,118.7 L153.2,108.7 L154.1,95.8 L154.9,134.4 L155.7,159.4 L156.6,167.9 L157.4,168.7 L158.3,167.2 L159.1,182.9 L159.9,193.6 L160.8,192.2 L161.6,189.0 L162.5,186.5 L163.3,185.8 L164.2,186.9 L165.0,188.3 L165.8,190.4 L166.7,159.0 L167.5,138.0 L168.4,121.2 L169.2,113.0 L170.0,111.2 L170.9,110.8 L171.7,111.2 L172.6,111.9 L173.4,116.2 L174.2,123.0 L175.1,135.1 L175.9,159.0 L176.8,175.4 L177.6,95.8 L178.5,160.4 L179.3,180.4 L180.1,199.7 L181.0,211.1 L181.8,219.0 L182.7,224.7 L183.5,223.6 L184.3,212.6 L185.2,189.4 L186.0,162.6 L186.9,136.2 L187.7,122.2 L188.6,115.8 L189.4,108.7 L190.2,104.0 L191.1,100.1 L191.9,93.7 L192.8,84.4 L193.6,80.8 L194.4,84.4 L195.3,92.3 L196.1,107.6 L197.0,119.4 L197.8,123.3 L198.7,141.5 L199.5,170.8 L200.3,196.9 L201.2,210.4 L202.0,219.7 L202.9,224.7 L203.7,224.0 L204.5,212.9 L205.4,189.0 L206.2,161.9 L207.1,136.5 L207.9,123.0 L208.8,116.2 L209.6,108.7 L210.4,102.3 L211.3,94.8 L212.1,84.8 L213.0,71.9 L213.8,67.6 L214.6,73.0 L215.5,85.5 L216.3,105.5 L217.2,114.7 L218.0,119.4 L218.8,140.5 L219.7,188.3 L220.5,211.9 L221.4,223.6 L222.2,232.9 L223.1,235.1 L223.9,233.6 L224.7,222.9 L225.6,187.9 L226.4,153.7 L227.3,132.2 L228.1,122.2 L228.9,124.7 L229.8,124.0 L230.6,122.2 L231.5,123.7 L232.3,125.8 L233.2,120.5 L234.0,122.2 L234.8,124.0 L235.7,122.2 L236.5,117.2 L237.4,117.2 L238.2,136.5 L239.0,165.4 L239.9,194.7 L240.7,214.7 L241.6,226.9 L242.4,234.7 L243.3,236.8 L244.1,235.1 L244.9,222.6 L245.8,188.3 L246.6,152.6 L247.5,132.6 L248.3,128.3 L249.1,131.2 L250.0,128.7 L250.8,126.5 L251.7,128.7 L252.5,130.5 L253.4,126.2 L254.2,125.5 L255.0,125.1 L255.9,123.7 L256.7,119.0 L257.6,118.3 L258.4,137.2 L259.2,165.8 L260.1,203.3 L260.9,218.6 L261.8,228.6 L262.6,234.0 L263.5,237.6 L264.3,239.3 L265.1,236.5 L266.0,221.9 L266.8,205.8 L267.7,185.8 L268.5,168.3 L269.3,159.4 L270.2,157.2 L271.0,165.1 L271.9,164.7 L272.7,163.7 L273.5,160.8 L274.4,150.4 L275.2,147.9 L276.1,150.1 L276.9,147.6 L277.8,150.1 L278.6,162.2 L279.4,184.0 L280.3,206.1 L281.1,222.2 L282.0,233.3 L282.8,240.1 L283.6,243.3 L284.5,240.1 L285.3,236.5 L286.2,223.3 L287.0,211.9 L287.9,200.1 L288.7,180.1 L289.5,168.7 L290.4,166.2 L291.2,160.1 L292.1,160.1 L292.9,161.9 L293.7,153.3 L294.6,139.0 L295.4,126.9 L296.3,126.2 L297.1,123.0 L298.0,128.7 L298.8,146.9 L299.6,174.0 L300.5,197.6 L301.3,215.1 L302.2,226.5 L303.0,234.7 L303.8,236.8 L304.7,235.1 L305.5,222.6 L306.4,188.3 L307.2,151.9 L308.1,132.2 L308.9,127.2 L309.7,128.3 L310.6,128.0 L311.4,128.0 L312.3,130.5 L313.1,131.9 L313.9,129.7 L314.8,128.7 L315.6,128.7 L316.5,127.2 L317.3,123.3 L318.1,121.9 L319.0,142.2 L319.8,171.9 L320.7,198.6 L321.5,217.2 L322.4,228.6 L323.2,235.4 L324.0,237.6 L324.9,235.4 L325.7,222.2 L326.6,187.6 L327.4,150.8 L328.2,132.2 L329.1,130.8 L329.9,130.5 L330.8,140.1 L331.6,142.2 L332.5,149.7 L333.3,143.0 L334.1,144.4 L335.0,144.4 L335.8,149.7 L336.7,158.3 L337.5,173.7 L338.3,185.1 L339.2,187.2 L340.0,186.9 L340.9,212.2 L341.7,229.4 L342.6,255.8 L343.4,262.2 L344.2,261.5 L345.1,261.1 L345.9,233.3 L346.8,226.5 L347.6,192.9 L348.4,180.1 L349.3,162.2 L350.1,142.6 L351.0,134.4 L351.8,133.7 L352.7,135.1 L353.5,128.7 L354.3,119.7 L355.2,115.8 L356.0,113.3 L356.9,116.5 L357.7,115.8 L358.5,116.9 L359.4,136.9 L360.2,165.8 L361.1,195.4 L361.9,216.5 L362.7,228.6 L363.6,235.4 L364.4,237.6 L365.3,235.8 L366.1,221.9 L367.0,187.6 L367.8,199.4 L368.6,201.9 L369.5,184.0 L370.3,163.3 L371.2,154.4 L372.0,153.3 L372.8,153.7 L373.7,154.0 L374.5,152.9 L375.4,151.9 L376.2,152.2 L377.1,163.3 L377.9,177.9 L378.7,187.9 L379.6,187.2 L380.4,186.2 L381.3,196.1 L382.1,243.3 L382.9,235.8 L383.8,235.8 L384.6,237.6 L385.5,235.8 L386.3,222.2 L387.2,187.9 L388.0,151.5 L388.8,132.2 L389.7,130.5 L390.5,133.0 L391.4,128.0 L392.2,124.0 L393.0,123.0 L393.9,117.6 L394.7,110.8 L395.6,108.7 L396.4,107.6 L397.3,111.5 L398.1,111.9 L398.9,114.0 L399.8,132.6 L400.6,162.6 L401.5,205.1 L402.3,220.1 L403.1,229.4 L404.0,234.7 L404.8,237.9 L405.7,239.7 L406.5,235.8 L407.3,221.9 L408.2,206.5 L409.0,189.0 L409.9,173.3 L410.7,165.8 L411.6,164.0 L412.4,159.4 L413.2,157.2 L414.1,151.5 L414.9,139.4 L415.8,135.1 L416.6,129.0 L417.4,131.5 L418.3,143.7 L419.1,149.7 L420.0,163.3 L420.8,185.4 L421.7,207.9 L422.5,225.4 L423.3,235.8 L424.2,243.3 L425.0,246.1 L425.9,242.6 L426.7,240.1 L427.5,227.6 L428.4,215.8 L429.2,204.0 L430.1,182.9 L430.9,170.4 L431.8,166.9 L432.6,160.1 L433.4,160.4 L434.3,162.9 L435.1,158.3 L436.0,150.1 L436.8,139.0 L437.6,138.7 L438.5,131.2 L439.3,132.2 L440.2,150.4 L441.0,177.9 L441.9,202.2 L442.7,217.9 L443.5,228.6 L444.4,235.8 L445.2,237.9 L446.1,235.4 L446.9,221.1 L447.7,185.8 L448.6,149.0 L449.4,131.9 L450.3,129.4 L451.1,129.7 L451.9,129.7 L452.8,130.1 L453.6,133.7 L454.5,135.1 L455.3,133.3 L456.2,129.7 L457.0,126.9 L457.8,125.8 L458.7,123.3 L459.5,123.0 L460.4,143.7 L461.2,173.3 L462.0,200.1 L462.9,219.4 L463.7,229.7 L464.6,235.4 L465.4,237.2 L466.3,234.7 L467.1,219.7 L467.9,184.7 L468.8,147.9 L469.6,131.2 L470.5,129.4 L471.3,130.1 L472.1,128.7 L473.0,127.6 L473.8,129.4 L474.7,129.7 L475.5,124.0 L476.4,118.0 L477.2,116.2 L478.0,119.0 L478.9,118.3 L479.7,119.7 L480.6,140.1 L481.4,170.8 L482.2,194.4 L483.1,217.6 L483.9,229.4 L484.8,235.4 L485.6,237.6 L486.5,235.4 L487.3,221.5 L488.1,187.2 L489.0,150.4 L489.8,131.9 L490.7,125.8 L491.5,121.5 L492.3,119.0 L493.2,115.8 L494.0,111.2 L494.9,103.3 L495.7,96.9 L496.5,91.5 L497.4,93.0 L498.2,103.0 L499.1,108.0 L499.9,112.6 L500.8,131.5 L501.6,161.2 L502.4,190.8 L503.3,216.9 L504.1,228.3 L505.0,235.4 L505.8,237.6 L506.6,235.8 L507.5,222.2 L508.3,188.3 L509.2,151.9 L510.0,133.0 L510.9,130.5 L511.7,131.9 L512.5,125.8 L513.4,120.5 L514.2,114.7 L515.1,105.1 L515.9,97.3 L516.7,92.6 L517.6,93.3 L518.4,103.3 L519.3,108.0 L520.1,112.6 L521.0,130.1 L521.8,157.9 L522.6,197.6 L523.5,215.1 L524.3,226.5 L525.2,234.3 L526.0,236.8 L526.8,235.1 L527.7,222.9 L528.5,188.6 L529.4,152.2 L530.2,133.0 L531.1,128.0 L531.9,129.0 L532.7,127.6 L533.6,125.8 L534.4,127.2 L535.3,129.7 L536.1,124.7 L536.9,124.0 L537.8,121.5 L538.6,124.0 L539.5,123.0 L540.3,122.6 L541.2,143.3 L542.0,172.6 L542.8,205.4 L543.7,216.5 L544.5,224.4 L545.4,230.1 L546.2,232.9 L547.0,234.0 L547.9,230.1 L548.7,215.8 L549.6,199.7 L550.4,181.9 L551.2,167.9 L552.1,162.2 L552.9,161.2 L553.8,163.7 L554.6,162.6 L555.5,158.7 L556.3,151.5 L557.1,140.1 L558.0,134.0 L558.8,141.2 L559.7,146.5 L560.5,150.4 L561.3,162.9 L562.2,184.7 L563.0,206.1 L563.9,222.9 L564.7,232.9 L565.6,239.3 L566.4,241.8 L567.2,239.0 L568.1,234.7 L568.9,221.9 L569.8,208.3 L570.6,195.1 L571.4,177.2 L572.3,168.7 L573.1,167.2 L574.0,161.2 L574.8,157.6 L575.7,156.5 L576.5,145.1 L577.3,131.2 L578.2,123.3 L579.0,122.6 L579.9,121.2 L580.7,128.0 L581.5,146.9 L582.4,174.4 L583.2,194.7 L584.1,213.3 L584.9,226.1 L585.8,234.7 L586.6,236.8 L587.4,235.1 L588.3,223.6 L589.1,189.7 L590.0,154.0 L590.8,133.7 L591.6,123.3 L592.5,121.2 L593.3,120.5 L594.2,119.4 L595.0,118.0 L595.8,118.0 L596.7,112.6 L597.5,112.6 L598.4,113.7 L599.2,116.9 L600.1,115.8 L600.9,116.5 L601.7,134.4 L602.6,161.9 L603.4,195.4 L604.3,214.7 L605.1,226.5 L605.9,234.7 L606.8,237.2 L607.6,235.4 L608.5,224.0 L609.3,189.4 L610.2,154.0 L611.0,133.3 L611.8,126.2 L612.7,125.5 L613.5,126.5 L614.4,127.2 L615.2,129.7 L616.0,128.7 L616.9,127.6 L617.7,126.9 L618.6,125.8 L619.4,125.5 L620.3,123.0 L621.1,121.9 L621.9,141.2 L622.8,169.7 L623.6,221.5 L624.5,226.5 L625.3,232.2 L626.1,231.8 L627.0,228.3 L627.8,225.1 L628.7,219.7 L629.5,214.0 L630.4,177.6 L631.2,163.7 L632.0,145.8 L632.9,123.0 L633.7,107.6 L634.6,100.1 L635.4,95.8 L636.2,100.5 L637.1,108.0 L637.9,124.0 L638.8,138.3 L639.6,136.2 L640.4,153.3 L641.3,171.2 L642.1,182.6 L643.0,189.7 L643.8,207.2 L644.7,222.2 L645.5,233.6 L646.3,240.4 L647.2,242.6 L648.0,240.1 L648.9,226.5 L649.7,192.2 L650.5,153.7 L651.4,135.8 L652.2,132.6 L653.1,133.3 L653.9,134.4 L654.8,133.7 L655.6,135.8 L656.4,155.1 L657.3,161.2 L658.1,146.5 L659.0,147.9 L659.8,158.7 L660.6,170.8 L661.5,179.0 L662.3,182.2 L663.2,184.7 L664.0,207.2 L664.9,244.7 L665.7,240.1 L666.5,240.8 L667.4,242.9 L668.2,240.8 L669.1,227.2 L669.9,193.3 L670.7,154.4 L671.6,136.9 L672.4,133.0 L673.3,131.9 L674.1,131.5 L675.0,134.7 L675.8,138.3 L676.6,139.0 L677.5,139.4 L678.3,136.9 L679.2,135.5 L680.0,135.1" stroke="#9467bd" stroke-width="2" fill="none" opacity="0.8"/>
<!-- Total Generation -->
<path d="M80.0,217.2 L80.8,195.4 L81.7,188.3 L82.5,171.9 L83.4,138.3 L84.2,131.5 L85.0,132.6 L85.9,132.6 L86.7,123.3 L87.6,128.7 L88.4,137.2 L89.3,134.4 L90.1,133.7 L90.9,104.0 L91.8,110.5 L92.6,110.1 L93.5,132.2 L94.3,148.7 L95.1,189.4 L96.0,198.6 L96.8,210.8 L97.7,223.3 L98.5,235.4 L99.4,232.2 L100.2,231.5 L101.0,227.2 L101.9,224.4 L102.7,225.8 L103.6,234.3 L104.4,238.3 L105.2,233.3 L106.1,226.1 L106.9,218.6 L107.8,214.7 L108.6,206.9 L109.5,208.3 L110.3,204.7 L111.1,203.3 L112.0,200.1 L112.8,193.6 L113.7,196.5 L114.5,214.7 L115.3,213.6 L116.2,189.4 L117.0,185.1 L117.9,190.4 L118.7,207.6 L119.6,243.6 L120.4,265.8 L121.2,269.7 L122.1,270.8 L122.9,271.1 L123.8,270.4 L124.6,271.1 L125.4,261.5 L126.3,237.9 L127.1,229.4 L128.0,226.1 L128.8,229.0 L129.6,229.4 L130.5,228.3 L131.3,232.2 L132.2,232.9 L133.0,208.3 L133.9,202.2 L134.7,200.1 L135.5,184.0 L136.4,184.7 L137.2,210.1 L138.1,231.1 L138.9,267.6 L139.7,253.3 L140.6,273.3 L141.4,271.8 L142.3,269.3 L143.1,264.0 L144.0,250.8 L144.8,228.3 L145.6,214.7 L146.5,182.9 L147.3,159.0 L148.2,126.9 L149.0,154.0 L149.8,140.1 L150.7,163.3 L151.5,165.4 L152.4,165.8 L153.2,199.4 L154.1,237.6 L154.9,235.4 L155.7,236.8 L156.6,230.4 L157.4,227.6 L158.3,203.3 L159.1,173.3 L159.9,212.9 L160.8,165.1 L161.6,173.7 L162.5,206.9 L163.3,192.6 L164.2,170.4 L165.0,175.1 L165.8,201.1 L166.7,191.5 L167.5,184.4 L168.4,190.1 L169.2,195.8 L170.0,157.6 L170.9,171.9 L171.7,155.4 L172.6,150.4 L173.4,151.2 L174.2,206.5 L175.1,242.2 L175.9,259.7 L176.8,257.6 L177.6,262.6 L178.5,239.0 L179.3,237.9 L180.1,240.4 L181.0,266.1 L181.8,265.1 L182.7,265.4 L183.5,266.5 L184.3,251.8 L185.2,241.8 L186.0,235.4 L186.9,230.4 L187.7,223.6 L188.6,206.5 L189.4,208.3 L190.2,170.8 L191.1,179.7 L191.9,182.2 L192.8,163.7 L193.6,167.2 L194.4,172.2 L195.3,186.5 L196.1,160.1 L197.0,189.4 L197.8,163.3 L198.7,186.9 L199.5,234.0 L200.3,241.8 L201.2,235.8 L202.0,240.4 L202.9,229.4 L203.7,211.5 L204.5,220.8 L205.4,220.1 L206.2,191.5 L207.1,181.2 L207.9,197.9 L208.8,198.3 L209.6,200.1 L210.4,193.6 L211.3,190.1 L212.1,167.6 L213.0,186.9 L213.8,202.6 L214.6,200.1 L215.5,192.2 L216.3,191.1 L217.2,185.4 L218.0,204.7 L218.8,215.8 L219.7,216.1 L220.5,214.0 L221.4,227.9 L222.2,231.5 L223.1,221.9 L223.9,225.8 L224.7,231.5 L225.6,214.7 L226.4,167.6 L227.3,192.6 L228.1,189.0 L228.9,161.5 L229.8,197.6 L230.6,202.6 L231.5,190.4 L232.3,197.9 L233.2,198.3 L234.0,193.3 L234.8,198.6 L235.7,196.9 L236.5,205.1 L237.4,212.2 L238.2,204.7 L239.0,218.3 L239.9,207.2 L240.7,219.7 L241.6,231.8 L242.4,233.3 L243.3,234.0 L244.1,231.5 L244.9,232.2 L245.8,210.1 L246.6,196.5 L247.5,197.2 L248.3,186.5 L249.1,184.7 L250.0,205.8 L250.8,205.1 L251.7,187.6 L252.5,180.8 L253.4,184.7 L254.2,151.9 L255.0,223.3 L255.9,239.3 L256.7,239.0 L257.6,252.2 L258.4,249.0 L259.2,237.6 L260.1,232.6 L260.9,239.3 L261.8,252.9 L262.6,255.8 L263.5,258.6 L264.3,255.1 L265.1,250.4 L266.0,245.1 L266.8,238.6 L267.7,234.0 L268.5,234.3 L269.3,229.4 L270.2,226.9 L271.0,228.6 L271.9,226.5 L272.7,239.0 L273.5,255.1 L274.4,242.6 L275.2,235.1 L276.1,251.8 L276.9,252.9 L277.8,261.8 L278.6,260.4 L279.4,265.1 L280.3,261.1 L281.1,252.2 L282.0,259.3 L282.8,260.4 L283.6,258.3 L284.5,248.3 L285.3,250.4 L286.2,255.1 L287.0,239.0 L287.9,214.7 L288.7,231.5 L289.5,211.9 L290.4,188.6 L291.2,182.9 L292.1,182.6 L292.9,189.7 L293.7,195.4 L294.6,225.1 L295.4,254.3 L296.3,264.7 L297.1,276.8 L298.0,262.6 L298.8,227.9 L299.6,132.2 L300.5,167.6 L301.3,169.7 L302.2,201.1 L303.0,196.1 L303.8,183.3 L304.7,192.2 L305.5,164.0 L306.4,170.8 L307.2,199.0 L308.1,190.1 L308.9,196.1 L309.7,201.1 L310.6,190.8 L311.4,188.6 L312.3,201.9 L313.1,199.4 L313.9,214.7 L314.8,214.7 L315.6,192.2 L316.5,198.6 L317.3,195.4 L318.1,195.1 L319.0,205.1 L319.8,190.4 L320.7,214.4 L321.5,218.6 L322.4,205.1 L323.2,198.3 L324.0,197.9 L324.9,190.1 L325.7,239.3 L326.6,253.3 L327.4,246.1 L328.2,226.5 L329.1,234.7 L329.9,233.3 L330.8,230.8 L331.6,221.1 L332.5,221.9 L333.3,222.2 L334.1,184.7 L335.0,235.1 L335.8,242.9 L336.7,222.9 L337.5,229.0 L338.3,220.8 L339.2,271.1 L340.0,272.5 L340.9,278.6 L341.7,268.6 L342.6,265.4 L343.4,256.5 L344.2,267.6 L345.1,260.8 L345.9,259.0 L346.8,256.5 L347.6,255.8 L348.4,241.8 L349.3,234.3 L350.1,238.3 L351.0,241.1 L351.8,239.7 L352.7,248.6 L353.5,249.0 L354.3,226.1 L355.2,219.0 L356.0,240.4 L356.9,243.3 L357.7,234.0 L358.5,238.3 L359.4,267.6 L360.2,266.5 L361.1,269.0 L361.9,273.6 L362.7,279.3 L363.6,279.0 L364.4,279.7 L365.3,279.3 L366.1,277.5 L367.0,277.9 L367.8,271.8 L368.6,242.2 L369.5,233.3 L370.3,234.0 L371.2,212.9 L372.0,242.6 L372.8,233.6 L373.7,237.2 L374.5,224.7 L375.4,202.6 L376.2,211.1 L377.1,227.9 L377.9,203.6 L378.7,192.2 L379.6,241.1 L380.4,273.3 L381.3,279.0 L382.1,283.3 L382.9,286.1 L383.8,285.0 L384.6,283.6 L385.5,283.6 L386.3,280.4 L387.2,280.4 L388.0,276.5 L388.8,250.8 L389.7,257.2 L390.5,241.1 L391.4,242.6 L392.2,242.6 L393.0,244.3 L393.9,245.4 L394.7,241.8 L395.6,220.8 L396.4,224.4 L397.3,236.5 L398.1,228.3 L398.9,221.1 L399.8,234.7 L400.6,245.8 L401.5,238.6 L402.3,245.4 L403.1,247.9 L404.0,282.2 L404.8,283.3 L405.7,281.8 L406.5,279.7 L407.3,244.3 L408.2,263.3 L409.0,239.0 L409.9,235.8 L410.7,235.4 L411.6,230.4 L412.4,214.7 L413.2,196.9 L414.1,192.6 L414.9,206.5 L415.8,163.7 L416.6,180.8 L417.4,186.5 L418.3,190.1 L419.1,210.1 L420.0,236.1 L420.8,207.6 L421.7,223.6 L422.5,215.1 L423.3,224.4 L424.2,224.4 L425.0,198.3 L425.9,212.2 L426.7,212.2 L427.5,209.7 L428.4,211.1 L429.2,193.6 L430.1,198.3 L430.9,190.8 L431.8,187.2 L432.6,203.6 L433.4,198.3 L434.3,193.6 L435.1,215.4 L436.0,225.1 L436.8,225.4 L437.6,173.3 L438.5,111.9 L439.3,120.5 L440.2,129.7 L441.0,167.9 L441.9,177.6 L442.7,169.0 L443.5,156.2 L444.4,162.6 L445.2,171.9 L446.1,164.0 L446.9,175.1 L447.7,147.2 L448.6,177.2 L449.4,161.5 L450.3,162.2 L451.1,146.2 L451.9,164.0 L452.8,175.1 L453.6,144.7 L454.5,128.7 L455.3,145.4 L456.2,165.1 L457.0,177.9 L457.8,196.9 L458.7,201.9 L459.5,192.6 L460.4,226.9 L461.2,240.1 L462.0,241.8 L462.9,242.9 L463.7,246.1 L464.6,245.4 L465.4,236.5 L466.3,232.6 L467.1,237.6 L467.9,229.7 L468.8,196.9 L469.6,182.9 L470.5,175.8 L471.3,176.9 L472.1,181.9 L473.0,192.9 L473.8,198.3 L474.7,200.4 L475.5,200.1 L476.4,171.2 L477.2,182.6 L478.0,204.0 L478.9,206.5 L479.7,205.1 L480.6,206.1 L481.4,211.1 L482.2,225.8 L483.1,220.8 L483.9,227.9 L484.8,222.9 L485.6,215.8 L486.5,195.8 L487.3,185.8 L488.1,156.9 L489.0,132.2 L489.8,117.6 L490.7,100.8 L492.3,130.1 L493.2,136.5 L494.0,126.5 L494.9,139.4 L495.7,146.5 L496.5,146.5 L497.4,150.1 L498.2,157.6 L499.1,180.4 L499.9,203.3 L500.8,214.0 L501.6,241.1 L502.4,233.6 L503.3,220.1 L504.1,210.8 L505.0,204.0 L505.8,182.9 L506.6,190.1 L507.5,207.6 L508.3,235.4 L509.2,236.5 L510.0,209.7 L510.9,199.4 L511.7,200.1 L512.5,201.9 L513.4,200.1 L514.2,200.8 L515.1,194.4 L515.9,186.5 L516.7,181.2 L517.6,180.1 L518.4,188.3 L519.3,205.1 L520.1,215.8 L521.0,223.6 L521.8,218.6 L522.6,185.4 L523.5,158.3 L524.3,137.2 L525.2,129.7 L526.0,165.8 L526.8,147.6 L527.7,144.4 L528.5,138.0 L529.4,140.1 L530.2,102.3 L531.1,110.8 L531.9,107.6 L532.7,87.6 L533.6,106.5 L534.4,113.0 L535.3,117.6 L536.1,71.2 L536.9,91.9 L537.8,132.2 L538.6,202.6 L539.5,207.6 L540.3,206.5 L541.2,213.3 L542.0,210.1 L542.8,219.4 L543.7,197.6 L544.5,172.6 L545.4,154.4 L546.2,143.7 L547.0,141.2 L547.9,137.2 L548.7,152.6 L549.6,173.3 L550.4,157.2 L551.2,129.0 L552.1,143.7 L552.9,160.8 L553.8,188.6 L554.6,202.6 L555.5,205.4 L556.3,204.7 L557.1,209.0 L558.0,225.8 L558.8,216.5 L559.7,218.6 L560.5,220.1 L561.3,245.1 L562.2,291.8 L563.0,299.0 L563.9,298.3 L564.7,295.0 L565.6,298.3 L566.4,288.6 L567.2,283.3 L568.1,265.8 L568.9,250.8 L569.8,245.8 L570.6,221.5 L571.4,221.1 L572.3,209.7 L573.1,200.4 L574.0,197.9 L574.8,190.1 L575.7,180.8 L576.5,220.8 L577.3,172.2 L578.2,188.3 L579.0,158.3 L579.9,195.4 L580.7,207.2 L581.5,232.2 L582.4,234.3 L583.2,226.9 L584.1,242.2 L584.9,250.4 L585.8,252.9 L586.6,258.6 L587.4,259.3 L588.3,262.6 L589.1,261.5 L590.0,262.2 L590.8,254.7 L591.6,230.1 L592.5,193.3 L593.3,186.9 L594.2,215.8 L595.0,188.6 L595.8,195.8 L596.7,191.5 L597.5,227.2 L598.4,220.8 L599.2,226.9 L600.1,227.9 L600.9,236.8 L601.7,251.5 L602.6,260.1 L603.4,243.6 L604.3,252.9 L605.1,254.3 L605.9,247.9 L606.8,248.3 L607.6,256.8 L608.5,258.6 L609.3,258.6 L610.2,253.6 L611.0,244.3 L611.8,219.7 L612.7,181.2 L613.5,173.3 L614.4,133.7 L615.2,98.3 L616.0,169.0 L616.9,175.8 L617.7,175.1 L618.6,185.1 L619.4,165.4 L620.3,156.2 L621.1,172.2 L621.9,226.5 L622.8,215.1 L623.6,199.4 L624.5,201.9 L625.3,187.2 L626.1,207.6 L627.0,200.4 L627.8,202.6 L628.7,204.4 L629.5,183.7 L630.4,183.7 L631.2,167.2 L632.0,142.6 L635.4,199.4 L636.2,160.1 L637.1,161.5 L637.9,186.2 L638.8,213.3 L639.6,202.9 L640.4,212.9 L641.3,217.2 L642.1,217.6 L643.0,215.1 L643.8,209.4 L644.7,210.4 L645.5,221.1 L646.3,242.2 L647.2,227.2 L648.0,237.2 L648.9,237.6 L649.7,205.1 L650.5,200.1 L651.4,227.9 L652.2,218.6 L653.1,200.8 L653.9,222.2 L654.8,222.2 L655.6,206.9 L656.4,214.7 L657.3,240.1 L658.1,224.0 L659.0,192.6 L659.8,211.9 L660.6,197.2 L661.5,191.9 L662.3,201.1 L663.2,205.1 L664.0,220.4 L664.9,214.0 L665.7,218.6 L666.5,243.3 L667.4,245.1 L668.2,231.8 L669.1,205.1 L669.9,208.3 L670.7,207.9 L671.6,186.2 L672.4,180.4 L673.3,172.2 L674.1,159.0 L675.0,172.6 L675.8,176.5 L676.6,191.1 L677.5,204.7 L678.3,174.4 L679.2,174.4 L680.0,153.7" stroke="#8c564b" stroke-width="2" fill="none" opacity="0.8"/>
<!-- Forecast Difference -->
<path d="M80.0,420.0 L80.8,420.0 L81.7,420.0 L82.5,420.0 L83.4,420.0 L84.2,420.0 L85.0,420.0 L85.9,420.0 L86.7,420.0 L87.6,420.0 L88.4,420.0 L89.3,420.0 L90.1,420.0 L90.9,420.0 L91.8,420.0 L92.6,420.0 L93.5,420.0 L94.3,420.0 L95.1,420.0 L96.0,420.0 L96.8,420.0 L97.7,420.0 L98.5,420.0 L99.4,420.0 L100.2,420.0 L101.0,420.0 L101.9,420.0 L102.7,420.0 L103.6,420.0 L104.4,420.0 L105.2,420.0 L106.1,420.0 L106.9,420.0 L107.8,420.0 L108.6,420.0 L109.5,420.0 L110.3,420.0 L111.1,420.0 L112.0,420.0 L112.8,420.0 L113.7,420.0 L114.5,420.0 L115.3,420.0 L116.2,420.0 L117.0,420.0 L117.9,420.0 L118.7,420.0 L119.6,420.0 L120.4,420.0 L121.2,420.0 L122.1,420.0 L122.9,420.0 L123.8,420.0 L124.6,420.0 L125.4,420.0 L126.3,420.0 L127.1,420.0 L128.0,420.0 L128.8,420.0 L129.6,420.0 L130.5,420.0 L131.3,420.0 L132.2,420.0 L133.0,420.0 L133.9,420.0 L134.7,420.0 L135.5,420.0 L136.4,420.0 L137.2,420.0 L138.1,420.0 L138.9,420.0 L139.7,420.0 L140.6,420.0 L141.4,420.0 L142.3,420.0 L143.1,420.0 L144.0,420.0 L144.8,420.0 L145.6,420.0 L146.5,420.0 L147.3,420.0 L148.2,420.0 L149.0,420.0 L149.8,420.0 L150.7,420.0 L151.5,420.0 L152.4,420.0 L153.2,420.0 L154.1,420.0 L154.9,420.0 L155.7,420.0 L156.6,420.0 L157.4,420.0 L158.3,420.0 L159.1,420.0 L159.9,420.0 L160.8,420.0 L161.6,420.0 L162.5,420.0 L163.3,420.0 L164.2,420.0 L165.0,420.0 L165.8,420.0 L166.7,420.0 L167.5,420.0 L168.4,420.0 L169.2,420.0 L170.0,420.0 L170.9,420.0 L171.7,420.0 L172.6,420.0 L173.4,420.0 L174.2,420.0 L175.1,420.0 L175.9,420.0 L176.8,420.0 L177.6,420.0 L178.5,420.0 L179.3,420.0 L180.1,420.0 L181.0,420.0 L181.8,420.0 L182.7,420.0 L183.5,420.0 L184.3,420.0 L185.2,420.0 L186.0,420.0 L186.9,420.0 L187.7,420.0 L188.6,420.0 L189.4,420.0 L190.2,420.0 L191.1,420.0 L191.9,420.0 L192.8,420.0 L193.6,420.0 L194.4,420.0 L195.3,420.0 L196.1,420.0 L197.0,420.0 L197.8,420.0 L198.7,420.0 L199.5,420.0 L200.3,420.0 L201.2,420.0 L202.0,420.0 L202.9,420.0 L203.7,420.0 L204.5,420.0 L205.4,420.0 L206.2,420.0 L207.1,420.0 L207.9,420.0 L208.8,420.0 L209.6,420.0 L210.4,420.0 L211.3,420.0 L212.1,420.0 L213.0,420.0 L213.8,420.0 L214.6,420.0 L215.5,420.0 L216.3,420.0 L217.2,420.0 L218.0,420.0 L218.8,420.0 L219.7,420.0 L220.5,420.0 L221.4,420.0 L222.2,420.0 L223.1,420.0 L223.9,420.0 L224.7,420.0 L225.6,420.0 L226.4,420.0 L227.3,420.0 L228.1,420.0 L228.9,420.0 L229.8,420.0 L230.6,420.0 L231.5,420.0 L232.3,420.0 L233.2,420.0 L234.0,420.0 L234.8,420.0 L235.7,420.0 L236.5,420.0 L237.4,420.0 L238.2,420.0 L239.0,420.0 L239.9,420.0 L240.7,420.0 L241.6,420.0 L242.4,420.0 L243.3,420.0 L244.1,420.0 L244.9,420.0 L245.8,420.0 L246.6,420.0 L247.5,420.0 L248.3,420.0 L249.1,420.0 L250.0,420.0 L250.8,420.0 L251.7,420.0 L252.5,420.0 L253.4,420.0 L254.2,420.0 L255.0,420.0 L255.9,420.0 L256.7,420.0 L257.6,420.0 L258.4,420.0 L259.2,420.0 L260.1,420.0 L260.9,420.0 L261.8,420.0 L262.6,420.0 L263.5,420.0 L264.3,420.0 L265.1,420.0 L266.0,420.0 L266.8,420.0 L267.7,420.0 L268.5,420.0 L269.3,420.0 L270.2,420.0 L271.0,420.0 L271.9,420.0 L272.7,420.0 L273.5,420.0 L274.4,420.0 L275.2,420.0 L276.1,420.0 L276.9,420.0 L277.8,420.0 L278.6,420.0 L279.4,420.0 L280.3,420.0 L281.1,420.0 L282.0,420.0 L282.8,420.0 L283.6,420.0 L284.5,420.0 L285.3,420.0 L286.2,420.0 L287.0,420.0 L287.9,420.0 L288.7,420.0 L289.5,420.0 L290.4,420.0 L291.2,420.0 L292.1,420.0 L292.9,420.0 L293.7,420.0 L294.6,420.0 L295.4,420.0 L296.3,420.0 L297.1,420.0 L298.0,420.0 L298.8,420.0 L299.6,420.0 L300.5,420.0 L301.3,420.0 L302.2,420.0 L303.0,420.0 L303.8,420.0 L304.7,420.0 L305.5,420.0 L306.4,420.0 L307.2,420.0 L308.1,420.0 L308.9,420.0 L309.7,420.0 L310.6,420.0 L311.4,420.0 L312.3,420.0 L313.1,420.0 L313.9,420.0 L314.8,420.0 L315.6,420.0 L316.5,420.0 L317.3,420.0 L318.1,420.0 L319.0,420.0 L319.8,420.0 L320.7,420.0 L321.5,420.0 L322.4,420.0 L323.2,420.0 L324.0,420.0 L324.9,420.0 L325.7,420.0 L326.6,420.0 L327.4,420.0 L328.2,420.0 L329.1,420.0 L329.9,420.0 L330.8,420.0 L331.6,420.0 L332.5,420.0 L333.3,420.0 L334.1,420.0 L335.0,420.0 L335.8,420.0 L336.7,420.0 L337.5,420.0 L338.3,420.0 L339.2,420.0 L340.0,420.0 L340.9,420.0 L341.7,420.0 L342.6,420.0 L343.4,420.0 L344.2,420.0 L345.1,420.0 L345.9,420.0 L346.8,420.0 L347.6,420.0 L348.4,420.0 L349.3,420.0 L350.1,420.0 L351.0,420.0 L351.8,420.0 L352.7,420.0 L353.5,420.0 L354.3,420.0 L355.2,420.0 L356.0,420.0 L356.9,420.0 L357.7,420.0 L358.5,420.0 L359.4,420.0 L360.2,420.0 L361.1,420.0 L361.9,420.0 L362.7,420.0 L363.6,420.0 L364.4,420.0 L365.3,420.0 L366.1,420.0 L367.0,420.0 L367.8,420.0 L368.6,420.0 L369.5,420.0 L370.3,420.0 L371.2,420.0 L372.0,420.0 L372.8,420.0 L373.7,420.0 L374.5,420.0 L375.4,420.0 L376.2,420.0 L377.1,420.0 L377.9,420.0 L378.7,420.0 L379.6,420.0 L380.4,420.0 L381.3,420.0 L382.1,420.0 L382.9,420.0 L383.8,420.0 L384.6,420.0 L385.5,420.0 L386.3,420.0 L387.2,420.0 L388.0,420.0 L388.8,420.0 L389.7,420.0 L390.5,420.0 L391.4,420.0 L392.2,420.0 L393.0,420.0 L393.9,420.0 L394.7,420.0 L395.6,420.0 L396.4,420.0 L397.3,420.0 L398.1,420.0 L398.9,420.0 L399.8,420.0 L400.6,420.0 L401.5,420.0 L402.3,420.0 L403.1,420.0 L404.0,420.0 L404.8,420.0 L405.7,420.0 L406.5,420.0 L407.3,420.0 L408.2,420.0 L409.0,420.0 L409.9,420.0 L410.7,420.0 L411.6,420.0 L412.4,420.0 L413.2,420.0 L414.1,420.0 L414.9,420.0 L415.8,420.0 L416.6,420.0 L417.4,420.0 L418.3,420.0 L419.1,420.0 L420.0,420.0 L420.8,420.0 L421.7,420.0 L422.5,420.0 L423.3,420.0 L424.2,420.0 L425.0,420.0 L425.9,420.0 L426.7,420.0 L427.5,420.0 L428.4,420.0 L429.2,420.0 L430.1,420.0 L430.9,420.0 L431.8,420.0 L432.6,420.0 L433.4,420.0 L434.3,420.0 L435.1,420.0 L436.0,420.0 L436.8,420.0 L437.6,420.0 L438.5,420.0 L439.3,420.0 L440.2,420.0 L441.0,420.0 L441.9,420.0 L442.7,420.0 L443.5,420.0 L444.4,420.0 L445.2,420.0 L446.1,420.0 L446.9,420.0 L447.7,420.0 L448.6,420.0 L449.4,420.0 L450.3,420.0 L451.1,420.0 L451.9,420.0 L452.8,420.0 L453.6,420.0 L454.5,420.0 L455.3,420.0 L456.2,420.0 L457.0,420.0 L457.8,420.0 L458.7,420.0 L459.5,420.0 L460.4,420.0 L461.2,420.0 L462.0,420.0 L462.9,420.0 L463.7,420.0 L464.6,420.0 L465.4,420.0 L466.3,420.0 L467.1,420.0 L467.9,420.0 L468.8,420.0 L469.6,420.0 L470.5,420.0 L471.3,420.0 L472.1,420.0 L473.0,420.0 L473.8,420.0 L474.7,420.0 L475.5,420.0 L476.4,420.0 L477.2,420.0 L478.0,420.0 L478.9,420.0 L479.7,420.0 L480.6,420.0 L481.4,420.0 L482.2,420.0 L483.1,420.0 L483.9,420.0 L484.8,420.0 L485.6,420.0 L486.5,420.0 L487.3,420.0 L488.1,420.0 L489.0,420.0 L489.8,420.0 L490.7,420.0 L491.5,420.0 L492.3,420.0 L493.2,420.0 L494.0,420.0 L494.9,420.0 L495.7,420.0 L496.5,420.0 L497.4,420.0 L498.2,420.0 L499.1,420.0 L499.9,420.0 L500.8,420.0 L501.6,420.0 L502.4,420.0 L503.3,420.0 L504.1,420.0 L505.0,420.0 L505.8,420.0 L506.6,420.0 L507.5,420.0 L508.3,420.0 L509.2,420.0 L510.0,420.0 L510.9,420.0 L511.7,420.0 L512.5,420.0 L513.4,420.0 L514.2,420.0 L515.1,420.0 L515.9,420.0 L516.7,420.0 L517.6,420.0 L518.4,420.0 L519.3,420.0 L520.1,420.0 L521.0,420.0 L521.8,420.0 L522.6,420.0 L523.5,420.0 L524.3,420.0 L525.2,420.0 L526.0,420.0 L526.8,420.0 L527.7,420.0 L528.5,420.0 L529.4,420.0 L530.2,420.0 L531.1,420.0 L531.9,420.0 L532.7,420.0 L533.6,420.0 L534.4,420.0 L535.3,420.0 L536.1,420.0 L536.9,420.0 L537.8,420.0 L538.6,420.0 L539.5,420.0 L540.3,420.0 L541.2,420.0 L542.0,420.0 L542.8,420.0 L543.7,420.0 L544.5,420.0 L545.4,420.0 L546.2,420.0 L547.0,420.0 L547.9,420.0 L548.7,420.0 L549.6,420.0 L550.4,420.0 L551.2,420.0 L552.1,420.0 L552.9,420.0 L553.8,420.0 L554.6,420.0 L555.5,420.0 L556.3,420.0 L557.1,420.0 L558.0,420.0 L558.8,420.0 L559.7,420.0 L560.5,420.0 L561.3,420.0 L562.2,420.0 L563.0,420.0 L563.9,420.0 L564.7,420.0 L565.6,420.0 L566.4,420.0 L567.2,420.0 L568.1,420.0 L568.9,420.0 L569.8,420.0 L570.6,420.0 L571.4,420.0 L572.3,420.0 L573.1,420.0 L574.0,420.0 L574.8,420.0 L575.7,420.0 L576.5,420.0 L577.3,420.0 L578.2,420.0 L579.0,420.0 L579.9,420.0 L580.7,420.0 L581.5,420.0 L582.4,420.0 L583.2,420.0 L584.1,420.0 L584.9,420.0 L585.8,420.0 L586.6,420.0 L587.4,420.0 L588.3,420.0 L589.1,420.0 L590.0,420.0 L590.8,420.0 L591.6,420.0 L592.5,420.0 L593.3,420.0 L594.2,420.0 L595.0,420.0 L595.8,420.0 L596.7,420.0 L597.5,420.0 L598.4,420.0 L599.2,420.0 L600.1,420.0 L600.9,420.0 L601.7,420.0 L602.6,420.0 L603.4,420.0 L604.3,420.0 L605.1,420.0 L605.9,420.0 L606.8,420.0 L607.6,420.0 L608.5,420.0 L609.3,420.0 L610.2,420.0 L611.0,420.0 L611.8,420.0 L612.7,420.0 L613.5,420.0 L614.4,420.0 L615.2,420.0 L616.0,420.0 L616.9,420.0 L617.7,420.0 L618.6,420.0 L619.4,420.0 L620.3,420.0 L621.1,420.0 L621.9,420.0 L622.8,420.0 L623.6,420.0 L624.5,420.0 L625.3,420.0 L626.1,420.0 L627.0,420.0 L627.8,420.0 L628.7,420.0 L629.5,420.0 L630.4,420.0 L631.2,420.0 L632.0,420.0 L632.9,420.0 L633.7,420.0 L634.6,420.0 L635.4,420.0 L636.2,420.0 L637.1,420.0 L637.9,420.0 L638.8,420.0 L639.6,420.0 L640.4,420.0 L641.3,420.0 L642.1,420.0 L643.0,420.0 L643.8,420.0 L644.7,420.0 L645.5,420.0 L646.3,420.0 L647.2,420.0 L648.0,420.0 L648.9,420.0 L649.7,420.0 L650.5,420.0 L651.4,420.0 L652.2,420.0 L653.1,420.0 L653.9,420.0 L654.8,420.0 L655.6,420.0 L656.4,420.0 L657.3,420.0 L658.1,420.0 L659.0,420.0 L659.8,420.0 L660.6,420.0 L661.5,420.0 L662.3,420.0 L663.2,420.0 L664.0,420.0 L664.9,420.0 L665.7,420.0 L666.5,420.0 L667.4,420.0 L668.2,420.0 L669.1,420.0 L669.9,420.0 L670.7,420.0 L671.6,420.0 L672.4,420.0 L673.3,420.0 L674.1,420.0 L675.0,420.0 L675.8,420.0 L676.6,420.0 L677.5,420.0 L678.3,420.0 L679.2,420.0 L680.0,420.0" stroke="#e377c2" stroke-width="2" fill="none" opacity="0.8"/>

<!-- Legend -->
<line x1="690" y1="70" x2="705" y2="70" stroke="#1f77b4" stroke-width="3"/>
<text x="710" y="74" class="legend">Wind Generation</text>
<line x1="690" y1="88" x2="705" y2="88" stroke="#ff7f0e" stroke-width="3"/>
<text x="710" y="92" class="legend">Hydro Generation</text>
<line x1="690" y1="106" x2="705" y2="106" stroke="#2ca02c" stroke-width="3"/>
<text x="710" y="110" class="legend">Thermal Generation</text>
<line x1="690" y1="124" x2="705" y2="124" stroke="#d62728" stroke-width="3"/>
<text x="710" y="128" class="legend">Solar Generation</text>
<line x1="690" y1="142" x2="705" y2="142" stroke="#9467bd" stroke-width="3"/>
<text x="710" y="146" class="legend">Forecast</text>
<line x1="690" y1="160" x2="705" y2="160" stroke="#8c564b" stroke-width="3"/>
<text x="710" y="164" class="legend">Total Generation</text>
<line x1="690" y1="178" x2="705" y2="178" stroke="#e377c2" stroke-width="3"/>
<text x="710" y="182" class="legend">Forecast Difference</text>

<!-- Date range -->
<text x="80" y="495" class="legend">Range: 09/04 - 10/03/2025 (714 records)</text>
</svg>