<?xml version="1.0" encoding="UTF-8"?>
<svg width="800" height="500" xmlns="http://www.w3.org/2000/svg">
<style>
.axis-line { stroke: #333; stroke-width: 1; }
.grid-line { stroke: #ddd; stroke-width: 0.5; }
.title { font: 16px Arial; text-anchor: middle; fill: #333; }
.axis-label { font: 12px Arial; text-anchor: middle; fill: #666; }
.legend { font: 10px Arial; fill: #333; }
</style>

<!-- Title -->
<text x="400.0" y="25" class="title">Northwestern Energy Generation Data - Past 30 Days</text>

<!-- Plot area background -->
<rect x="80" y="50" width="600" height="370" fill="white" stroke="#ddd"/>

<!-- Y-axis -->
<line x1="80" y1="50" x2="80" y2="420" class="axis-line"/>
<text x="30" y="235.0" class="axis-label" transform="rotate(-90, 30, 235.0)">Generation (MW)</text>

<!-- X-axis -->
<line x1="80" y1="420" x2="680" y2="420" class="axis-line"/>
<text x="380.0" y="480" class="axis-label">Time</text>
<line x1="80" y1="420.0" x2="680" y2="420.0" class="grid-line"/>
<text x="70" y="425.0" class="legend" text-anchor="end">0</text>
<line x1="80" y1="327.5" x2="680" y2="327.5" class="grid-line"/>
<text x="70" y="332.5" class="legend" text-anchor="end">345</text>
<line x1="80" y1="235.0" x2="680" y2="235.0" class="grid-line"/>
<text x="70" y="240.0" class="legend" text-anchor="end">690</text>
<line x1="80" y1="142.5" x2="680" y2="142.5" class="grid-line"/>
<text x="70" y="147.5" class="legend" text-anchor="end">1035</text>
<line x1="80" y1="50.0" x2="680" y2="50.0" class="grid-line"/>
<text x="70" y="55.0" class="legend" text-anchor="end">1380</text>
<!-- Wind Generation -->
<path d="M80.0,376.0 L80.8,362.3 L81.7,366.1 L82.5,362.3 L83.4,362.1 L84.2,358.9 L85.0,362.6 L85.9,339.3 L86.7,353.5 L87.6,370.4 L88.4,359.4 L89.3,365.3 L90.1,361.0 L90.9,360.5 L91.8,364.2 L92.6,373.1 L93.5,370.1 L94.3,366.9 L95.1,370.9 L96.0,370.1 L96.8,387.6 L97.7,403.1 L98.5,403.1 L99.4,402.0 L100.2,403.6 L101.0,403.1 L101.9,392.6 L102.7,385.1 L103.6,381.9 L104.4,384.1 L105.2,393.5 L106.1,392.6 L106.9,380.0 L107.8,392.4 L108.6,402.0 L109.5,398.8 L110.3,407.9 L111.1,403.9 L112.0,399.4 L112.8,385.7 L113.7,394.3 L114.5,383.5 L115.3,381.4 L116.2,372.5 L117.0,391.6 L117.9,387.8 L118.7,373.3 L119.6,351.9 L120.4,324.0 L121.2,342.2 L122.1,350.5 L122.9,314.1 L123.8,310.0 L124.6,315.4 L125.4,311.9 L126.3,323.7 L127.1,332.6 L128.0,342.0 L128.8,341.7 L129.6,336.9 L130.5,341.4 L131.3,347.1 L132.2,353.0 L133.0,355.1 L133.9,357.8 L134.7,358.9 L135.5,358.1 L136.4,356.7 L137.2,362.6 L138.1,370.4 L138.9,370.9 L139.7,372.8 L140.6,370.1 L141.4,369.3 L142.3,363.7 L143.1,366.6 L144.0,362.1 L144.8,361.8 L145.6,362.3 L146.5,366.1 L147.3,365.3 L148.2,370.7 L149.0,376.6 L149.8,384.6 L150.7,387.8 L151.5,391.0 L152.4,395.1 L153.2,401.2 L154.1,403.1 L154.9,406.9 L155.7,412.5 L156.6,418.9 L157.4,420.0 L158.3,419.7 L159.1,420.0 L159.9,420.0 L160.8,420.0 L161.6,420.0 L162.5,420.0 L163.3,420.0 L164.2,420.0 L165.0,420.0 L165.8,420.0 L166.7,418.7 L167.5,418.4 L168.4,419.2 L169.2,418.9 L170.0,419.5 L170.9,418.7 L171.7,418.4 L172.6,417.9 L173.4,414.6 L174.2,411.4 L175.1,408.5 L175.9,405.3 L176.8,405.5 L177.6,404.4 L178.5,398.8 L179.3,388.9 L180.1,384.9 L181.0,392.6 L181.8,349.2 L182.7,329.6 L183.5,345.7 L184.3,356.2 L185.2,364.5 L186.0,368.2 L186.9,363.4 L187.7,377.9 L188.6,382.5 L189.4,383.8 L190.2,402.0 L191.1,408.7 L191.9,410.1 L192.8,415.7 L193.6,415.7 L194.4,416.2 L195.3,416.5 L196.1,416.5 L197.0,417.1 L197.8,417.3 L198.7,417.6 L199.5,417.3 L200.3,417.1 L201.2,417.1 L202.0,416.5 L202.9,414.1 L203.7,411.2 L204.5,407.1 L205.4,405.5 L206.2,400.7 L207.1,397.5 L207.9,392.4 L208.8,394.5 L209.6,395.1 L210.4,395.3 L211.3,401.5 L212.1,405.5 L213.0,407.9 L213.8,410.6 L214.6,406.6 L215.5,411.4 L216.3,410.9 L217.2,406.9 L218.0,406.1 L218.8,404.7 L219.7,404.2 L220.5,415.4 L221.4,417.9 L222.2,416.5 L223.1,418.1 L223.9,418.4 L224.7,418.9 L225.6,418.7 L226.4,417.9 L227.3,412.8 L228.1,407.4 L228.9,403.6 L229.8,402.8 L230.6,395.3 L231.5,386.5 L232.3,380.3 L233.2,369.0 L234.0,375.5 L234.8,381.1 L235.7,353.8 L236.5,350.3 L237.4,350.3 L238.2,354.6 L239.0,337.4 L239.9,367.7 L240.7,356.2 L241.6,367.2 L242.4,370.7 L243.3,362.1 L244.1,349.7 L244.9,343.3 L245.8,343.0 L246.6,344.4 L247.5,317.0 L248.3,320.0 L249.1,309.5 L250.0,310.6 L250.8,341.2 L251.7,328.0 L252.5,337.1 L253.4,328.3 L254.2,332.6 L255.0,334.5 L255.9,341.7 L256.7,332.3 L257.6,332.0 L258.4,321.6 L259.2,328.0 L260.1,351.3 L260.9,357.5 L261.8,359.9 L262.6,365.6 L263.5,380.0 L264.3,381.1 L265.1,370.9 L266.0,350.8 L266.8,348.4 L267.7,365.3 L268.5,363.7 L269.3,360.2 L270.2,339.3 L271.0,349.7 L271.9,352.4 L272.7,359.1 L273.5,372.0 L274.4,357.0 L275.2,340.1 L276.1,315.9 L276.9,310.3 L277.8,312.5 L278.6,309.5 L279.4,313.8 L280.3,312.5 L281.1,329.6 L282.0,325.6 L282.8,329.1 L283.6,317.3 L284.5,327.7 L285.3,327.2 L286.2,321.6 L287.0,314.6 L287.9,321.6 L288.7,319.7 L289.5,336.3 L290.4,335.3 L291.2,322.1 L292.1,318.1 L292.9,321.8 L293.7,321.8 L294.6,325.1 L295.4,327.5 L296.3,335.0 L297.1,329.4 L298.0,333.6 L298.8,339.0 L299.6,328.6 L300.5,329.1 L301.3,361.8 L302.2,398.8 L303.0,392.6 L303.8,388.4 L304.7,383.3 L305.5,385.9 L306.4,382.2 L307.2,342.5 L308.1,345.2 L308.9,352.7 L309.7,366.9 L310.6,358.9 L311.4,360.5 L312.3,342.0 L313.1,331.5 L313.9,343.3 L314.8,362.1 L315.6,349.7 L316.5,324.5 L317.3,318.6 L318.1,319.2 L319.0,323.7 L319.8,324.3 L320.7,334.5 L321.5,335.8 L322.4,332.0 L323.2,331.0 L324.0,330.4 L324.9,330.4 L325.7,329.9 L326.6,334.2 L327.4,315.1 L328.2,311.4 L329.1,311.4 L329.9,311.1 L330.8,313.3 L331.6,312.5 L332.5,311.7 L333.3,325.1 L334.1,325.3 L335.0,315.9 L335.8,319.7 L336.7,318.6 L337.5,320.8 L338.3,330.7 L339.2,336.6 L340.0,364.0 L340.9,367.7 L341.7,371.2 L342.6,365.3 L343.4,363.1 L344.2,371.5 L345.1,401.8 L345.9,395.9 L346.8,385.1 L347.6,386.5 L348.4,385.4 L349.3,387.8 L350.1,405.0 L351.0,413.8 L351.8,418.7 L352.7,420.0 L353.5,417.3 L354.3,414.1 L355.2,409.0 L356.0,410.1 L356.9,408.5 L357.7,406.6 L358.5,402.0 L359.4,404.7 L360.2,396.7 L361.1,382.2 L361.9,385.7 L362.7,357.5 L363.6,347.6 L364.4,341.7 L365.3,348.7 L366.1,345.4 L367.0,342.8 L367.8,358.9 L368.6,368.5 L369.5,379.5 L370.3,403.6 L371.2,409.0 L372.0,402.8 L372.8,395.6 L373.7,389.7 L374.5,392.1 L375.4,399.6 L376.2,395.1 L377.1,398.5 L377.9,399.9 L378.7,399.1 L379.6,399.1 L380.4,400.2 L381.3,397.7 L382.1,403.9 L382.9,403.6 L383.8,401.5 L384.6,398.0 L385.5,380.8 L386.3,377.1 L387.2,365.8 L388.0,373.6 L388.8,379.2 L389.7,361.3 L390.5,360.2 L391.4,358.9 L392.2,350.8 L393.0,351.3 L393.9,372.3 L394.7,364.8 L395.6,374.4 L396.4,376.6 L397.3,393.2 L398.1,382.5 L398.9,379.0 L399.8,366.1 L400.6,356.7 L401.5,376.3 L402.3,365.8 L403.1,346.5 L404.0,364.8 L404.8,367.7 L405.7,362.6 L406.5,341.4 L407.3,363.4 L408.2,363.4 L409.0,370.1 L409.9,397.7 L410.7,386.5 L411.6,387.8 L412.4,391.8 L413.2,393.5 L414.1,371.2 L414.9,357.2 L415.8,329.9 L416.6,321.6 L417.4,323.5 L418.3,347.9 L419.1,335.3 L420.0,342.2 L420.8,353.8 L421.7,373.1 L422.5,369.3 L423.3,392.6 L424.2,399.9 L425.0,399.9 L425.9,399.9 L426.7,402.0 L427.5,399.1 L428.4,399.4 L429.2,398.3 L430.1,393.2 L430.9,396.4 L431.8,395.9 L432.6,393.5 L433.4,395.1 L434.3,387.8 L435.1,381.4 L436.0,380.8 L436.8,370.9 L437.6,372.3 L438.5,374.7 L439.3,370.9 L440.2,364.5 L441.0,378.4 L441.9,378.4 L442.7,381.4 L443.5,373.6 L444.4,361.8 L445.2,369.3 L446.1,351.9 L446.9,373.3 L447.7,380.3 L448.6,366.4 L449.4,345.7 L450.3,362.3 L451.1,379.5 L451.9,370.4 L452.8,379.0 L453.6,370.4 L454.5,366.6 L455.3,361.5 L456.2,361.3 L457.0,379.5 L457.8,391.3 L458.7,388.9 L459.5,390.8 L460.4,389.7 L461.2,400.4 L462.0,405.8 L462.9,410.6 L463.7,405.5 L464.6,397.2 L465.4,399.6 L466.3,387.0 L467.1,367.4 L467.9,356.2 L468.8,352.7 L469.6,309.0 L470.5,314.1 L471.3,318.4 L472.1,310.9 L473.0,315.9 L473.8,310.0 L474.7,311.1 L475.5,305.8 L476.4,308.4 L477.2,310.9 L478.0,312.5 L478.9,315.4 L479.7,310.9 L480.6,311.7 L481.4,309.8 L482.2,358.9 L483.1,365.3 L483.9,368.0 L484.8,372.8 L485.6,368.0 L486.5,363.4 L487.3,362.3 L488.1,362.3 L489.0,363.4 L489.8,319.2 L490.7,315.7 L491.5,309.5 L492.3,311.1 L493.2,313.0 L494.0,317.6 L494.9,317.6 L495.7,324.5 L496.5,317.6 L498.2,326.1 L499.1,340.4 L499.9,338.7 L500.8,348.4 L501.6,338.5 L502.4,332.0 L503.3,382.7 L504.1,395.6 L505.0,395.1 L505.8,401.0 L506.6,402.8 L507.5,408.7 L508.3,407.7 L509.2,398.0 L510.0,385.4 L510.9,346.8 L511.7,328.0 L512.5,318.6 L513.4,325.1 L514.2,340.6 L515.1,348.4 L515.9,359.7 L516.7,366.1 L517.6,372.5 L518.4,378.4 L519.3,391.8 L520.1,398.3 L521.0,409.0 L521.8,417.9 L522.6,419.5 L523.5,420.0 L524.3,416.5 L525.2,404.4 L526.0,399.1 L526.8,393.5 L527.7,388.4 L528.5,377.1 L529.4,392.1 L530.2,388.4 L531.1,379.5 L531.9,387.6 L532.7,398.0 L533.6,400.4 L534.4,404.4 L535.3,412.2 L536.1,415.2 L536.9,415.7 L537.8,415.7 L538.6,414.1 L539.5,414.6 L540.3,410.9 L541.2,406.1 L542.0,393.2 L542.8,394.0 L543.7,386.5 L544.5,391.3 L545.4,373.3 L546.2,366.9 L547.0,362.9 L547.9,353.0 L548.7,364.8 L549.6,381.7 L550.4,347.9 L551.2,359.4 L552.1,366.6 L552.9,353.5 L553.8,379.0 L554.6,383.0 L555.5,372.5 L556.3,354.0 L557.1,337.9 L558.0,358.6 L558.8,337.9 L559.7,351.9 L560.5,364.0 L561.3,361.5 L562.2,355.1 L563.0,331.0 L563.9,326.1 L564.7,341.7 L565.6,310.6 L566.4,312.5 L567.2,309.0 L568.1,330.4 L568.9,348.1 L569.8,330.4 L570.6,342.2 L571.4,384.6 L572.3,384.3 L573.1,325.1 L574.0,314.1 L574.8,305.0 L575.7,308.4 L576.5,314.1 L577.3,321.8 L578.2,344.6 L579.0,353.2 L579.9,385.4 L580.7,401.2 L581.5,405.0 L582.4,396.1 L583.2,397.5 L584.1,405.5 L584.9,400.7 L585.8,408.7 L586.6,409.8 L587.4,400.7 L588.3,391.6 L589.1,388.9 L590.0,376.6 L590.8,373.9 L591.6,350.0 L592.5,356.2 L593.3,357.0 L594.2,366.9 L595.0,388.9 L595.8,402.0 L596.7,403.9 L597.5,408.7 L598.4,403.6 L599.2,401.5 L600.1,407.9 L600.9,412.0 L601.7,414.1 L602.6,413.3 L603.4,416.0 L604.3,417.9 L605.1,418.7 L605.9,418.9 L606.8,414.9 L607.6,412.2 L608.5,406.9 L609.3,410.1 L610.2,405.3 L611.0,406.3 L611.8,406.6 L612.7,406.9 L613.5,407.1 L614.4,406.3 L615.2,401.0 L616.0,403.4 L616.9,402.3 L617.7,403.1 L618.6,406.1 L619.4,410.1 L620.3,410.6 L621.1,416.2 L621.9,420.0 L622.8,420.0 L623.6,420.0 L624.5,418.4 L625.3,408.7 L626.1,398.5 L627.0,394.0 L627.8,370.1 L628.7,358.3 L629.5,356.7 L630.4,357.8 L631.2,356.7 L632.0,318.1 L632.9,312.7 L633.7,331.0 L634.6,327.5 L635.4,331.8 L636.2,347.3 L637.1,350.3 L637.9,358.9 L638.8,361.8 L639.6,379.8 L640.4,384.3 L641.3,399.6 L642.1,409.0 L643.0,412.2 L643.8,413.3 L644.7,411.7 L645.5,413.6 L646.3,411.7 L647.2,406.3 L648.0,400.7 L648.9,400.4 L649.7,403.1 L650.5,405.5 L651.4,405.5 L652.2,402.3 L653.1,401.8 L653.9,405.5 L654.8,408.2 L655.6,405.8 L656.4,403.1 L657.3,405.0 L658.1,404.2 L659.0,394.3 L659.8,382.2 L660.6,356.7 L661.5,331.0 L662.3,323.2 L663.2,319.2 L664.0,317.6 L664.9,315.1 L665.7,312.2 L666.5,312.2 L667.4,314.6 L668.2,313.8 L669.1,313.5 L669.9,307.9 L670.7,323.5 L671.6,310.0 L672.4,310.9 L673.3,308.7 L674.1,313.3 L675.0,328.3 L675.8,337.4 L676.6,354.0 L677.5,378.7 L678.3,373.3 L679.2,378.7 L680.0,378.4" stroke="#1f77b4" stroke-width="2" fill="none" opacity="0.8"/>
<!-- Hydro Generation -->
<path d="M80.0,348.9 L80.8,348.7 L81.7,348.7 L82.5,348.4 L83.4,348.9 L84.2,348.7 L85.0,348.4 L85.9,348.4 L86.7,347.9 L87.6,348.1 L88.4,348.1 L89.3,347.6 L90.1,347.9 L90.9,348.1 L91.8,348.7 L92.6,348.7 L93.5,348.4 L94.3,348.7 L95.1,348.1 L96.0,348.7 L96.8,348.7 L97.7,348.7 L98.5,348.4 L99.4,348.7 L100.2,348.9 L101.0,348.4 L101.9,347.3 L102.7,347.3 L103.6,347.1 L104.4,347.1 L105.2,346.8 L106.1,346.3 L106.9,345.4 L107.8,346.0 L108.6,345.4 L109.5,345.4 L110.3,344.6 L111.1,344.6 L112.0,345.2 L112.8,344.6 L113.7,344.9 L114.5,344.9 L115.3,345.7 L116.2,346.0 L117.0,345.7 L117.9,346.0 L118.7,345.4 L119.6,346.5 L120.4,346.5 L121.2,346.8 L122.1,346.8 L122.9,346.8 L123.8,346.8 L124.6,346.8 L125.4,346.0 L126.3,345.7 L127.1,346.0 L128.0,346.3 L128.8,345.7 L129.6,344.9 L130.5,344.1 L131.3,344.4 L132.2,343.6 L133.0,344.1 L133.9,343.8 L134.7,343.8 L135.5,343.8 L136.4,343.8 L137.2,343.6 L138.1,345.2 L138.9,345.4 L139.7,345.7 L140.6,345.4 L141.4,344.4 L142.3,344.6 L143.1,343.8 L144.0,342.8 L144.8,343.3 L145.6,342.8 L146.5,343.3 L147.3,342.5 L148.2,341.4 L149.0,342.0 L149.8,340.6 L150.7,340.6 L151.5,341.2 L152.4,341.2 L153.2,341.7 L154.1,347.1 L154.9,348.4 L155.7,352.2 L156.6,354.3 L157.4,353.8 L158.3,354.8 L159.1,354.0 L159.9,354.8 L160.8,355.9 L161.6,355.1 L162.5,353.5 L163.3,353.0 L164.2,353.0 L165.0,351.3 L165.8,351.3 L166.7,351.1 L167.5,351.3 L168.4,351.1 L169.2,351.1 L170.0,351.3 L170.9,351.3 L171.7,351.6 L172.6,351.9 L173.4,351.9 L174.2,353.2 L175.1,353.0 L175.9,355.9 L176.8,357.2 L177.6,357.2 L178.5,357.5 L179.3,358.9 L180.1,359.4 L181.0,359.4 L181.8,359.7 L182.7,362.1 L183.5,374.4 L184.3,374.7 L185.2,360.7 L186.0,360.7 L186.9,360.5 L187.7,360.2 L188.6,360.5 L189.4,361.3 L190.2,360.7 L191.1,361.3 L191.9,361.3 L192.8,359.4 L193.6,358.9 L194.4,358.9 L195.3,357.2 L196.1,356.2 L197.0,353.2 L197.8,353.0 L198.7,353.5 L199.5,353.5 L200.3,353.8 L201.2,352.2 L202.0,351.9 L202.9,352.2 L203.7,349.2 L204.5,349.2 L205.4,350.0 L206.2,347.6 L207.1,347.3 L207.9,347.9 L208.8,346.3 L209.6,346.0 L210.4,344.4 L211.3,345.2 L212.1,344.4 L213.0,344.9 L213.8,344.6 L214.6,344.4 L215.5,344.4 L216.3,344.1 L217.2,344.1 L218.0,344.4 L218.8,344.1 L219.7,344.1 L220.5,343.6 L221.4,343.6 L222.2,345.2 L223.1,344.9 L223.9,343.3 L224.7,342.5 L225.6,342.2 L226.4,339.8 L227.3,339.5 L228.1,339.8 L228.9,339.3 L229.8,339.5 L230.6,339.5 L231.5,339.0 L232.3,339.0 L233.2,339.0 L234.0,339.0 L234.8,339.0 L235.7,339.3 L236.5,339.5 L237.4,339.3 L238.2,339.3 L239.0,340.1 L239.9,339.8 L240.7,340.6 L241.6,339.0 L242.4,339.5 L243.3,339.8 L244.1,340.1 L244.9,340.1 L245.8,339.8 L246.6,339.0 L247.5,338.7 L248.3,339.0 L249.1,339.0 L250.0,339.0 L250.8,338.5 L251.7,338.2 L252.5,337.9 L253.4,338.2 L254.2,338.2 L255.0,337.1 L255.9,336.9 L256.7,336.9 L257.6,336.9 L258.4,337.1 L259.2,336.6 L260.1,336.9 L260.9,337.1 L261.8,337.7 L262.6,337.7 L263.5,337.4 L264.3,337.7 L265.1,338.5 L266.0,337.1 L266.8,336.1 L267.7,335.8 L268.5,336.1 L269.3,335.0 L270.2,335.5 L271.0,335.5 L271.9,335.0 L272.7,335.5 L273.5,335.8 L274.4,335.8 L275.2,335.3 L276.1,335.3 L276.9,335.0 L277.8,335.5 L278.6,335.3 L279.4,336.1 L280.3,337.4 L281.1,337.9 L282.0,338.2 L282.8,337.9 L283.6,337.7 L284.5,337.9 L285.3,337.7 L286.2,337.7 L287.0,337.1 L287.9,337.7 L288.7,335.8 L289.5,336.1 L290.4,335.8 L291.2,334.7 L292.1,335.5 L292.9,335.3 L293.7,335.3 L294.6,335.5 L295.4,335.5 L296.3,336.3 L297.1,337.4 L298.0,337.7 L298.8,337.9 L299.6,337.7 L300.5,338.5 L301.3,338.5 L302.2,338.5 L303.0,338.7 L303.8,339.8 L304.7,340.9 L305.5,342.0 L306.4,339.3 L307.2,340.1 L308.1,340.6 L308.9,340.4 L309.7,340.1 L310.6,340.9 L311.4,340.6 L312.3,340.6 L313.1,340.6 L313.9,340.9 L314.8,340.4 L315.6,340.1 L316.5,339.3 L317.3,339.5 L318.1,339.5 L319.0,339.3 L319.8,340.1 L320.7,340.1 L321.5,340.4 L322.4,341.4 L323.2,343.6 L324.0,343.0 L324.9,344.6 L325.7,344.9 L326.6,347.3 L327.4,347.6 L328.2,347.1 L329.1,347.3 L329.9,348.4 L330.8,348.7 L331.6,348.7 L332.5,349.5 L333.3,350.3 L334.1,349.2 L335.0,349.2 L335.8,349.2 L336.7,349.5 L337.5,349.5 L338.3,350.5 L339.2,351.6 L340.0,353.0 L340.9,352.7 L341.7,352.4 L342.6,353.0 L343.4,352.7 L344.2,352.7 L345.1,353.2 L345.9,352.7 L346.8,352.4 L347.6,352.7 L348.4,352.7 L349.3,353.0 L350.1,352.7 L351.0,353.2 L351.8,353.2 L352.7,353.0 L353.5,353.0 L354.3,352.7 L355.2,352.7 L356.0,353.0 L356.9,353.0 L357.7,353.0 L358.5,353.2 L359.4,353.5 L360.2,354.3 L361.1,353.8 L361.9,354.3 L362.7,354.0 L363.6,353.8 L364.4,353.8 L365.3,353.5 L366.1,353.5 L367.0,353.8 L367.8,353.8 L368.6,354.0 L369.5,353.8 L370.3,353.8 L371.2,353.8 L372.0,353.8 L372.8,354.0 L373.7,354.0 L374.5,353.2 L375.4,353.8 L376.2,353.2 L377.1,353.2 L377.9,353.2 L378.7,352.4 L379.6,352.7 L380.4,352.7 L381.3,352.7 L382.1,352.2 L382.9,352.4 L383.8,352.2 L384.6,353.2 L385.5,354.0 L386.3,353.0 L387.2,353.0 L388.0,353.5 L388.8,354.3 L389.7,355.1 L390.5,355.6 L391.4,355.6 L392.2,355.6 L393.0,355.6 L393.9,354.6 L394.7,354.3 L395.6,354.3 L396.4,353.5 L397.3,353.2 L398.1,353.0 L398.9,352.7 L399.8,353.0 L400.6,351.9 L401.5,351.9 L402.3,351.9 L403.1,351.9 L404.0,351.9 L404.8,351.6 L405.7,351.6 L406.5,351.1 L407.3,351.1 L408.2,351.3 L409.0,351.3 L409.9,350.5 L410.7,351.1 L411.6,351.1 L412.4,350.8 L413.2,350.8 L414.1,350.8 L414.9,351.9 L415.8,352.2 L416.6,351.9 L417.4,351.6 L418.3,351.6 L419.1,351.6 L420.0,351.6 L420.8,351.6 L421.7,351.6 L422.5,351.1 L423.3,350.8 L424.2,351.1 L425.0,351.6 L425.9,353.2 L426.7,350.0 L427.5,349.7 L428.4,349.7 L429.2,349.7 L430.1,349.7 L430.9,349.7 L431.8,351.1 L432.6,350.8 L433.4,350.5 L434.3,350.8 L435.1,351.6 L436.0,352.2 L436.8,351.6 L437.6,351.9 L438.5,351.6 L439.3,351.6 L440.2,351.3 L441.0,351.1 L441.9,350.5 L442.7,349.2 L443.5,350.5 L444.4,350.3 L445.2,349.7 L446.1,349.2 L446.9,348.9 L447.7,350.0 L448.6,350.8 L449.4,350.0 L450.3,350.0 L451.1,350.8 L451.9,351.1 L452.8,350.8 L453.6,351.1 L454.5,351.1 L455.3,351.9 L456.2,351.1 L457.0,351.3 L457.8,350.5 L458.7,350.0 L459.5,350.0 L460.4,350.0 L461.2,350.5 L462.0,351.1 L462.9,350.5 L463.7,351.1 L464.6,354.3 L465.4,354.3 L466.3,355.4 L467.1,357.0 L467.9,355.4 L468.8,355.1 L469.6,355.6 L470.5,355.9 L471.3,354.6 L472.1,354.6 L473.0,355.1 L473.8,354.8 L474.7,354.3 L475.5,354.6 L476.4,354.6 L477.2,354.6 L478.0,354.8 L478.9,354.8 L479.7,354.8 L480.6,355.1 L481.4,354.8 L482.2,354.8 L483.1,355.9 L483.9,355.1 L484.8,355.6 L485.6,354.3 L486.5,354.8 L487.3,355.1 L488.1,354.8 L489.0,355.1 L489.8,355.1 L490.7,354.8 L491.5,354.8 L492.3,355.4 L493.2,355.1 L494.0,354.8 L494.9,355.1 L495.7,354.8 L496.5,354.3 L498.2,354.8 L499.1,355.1 L499.9,355.1 L500.8,354.8 L501.6,354.8 L502.4,354.8 L503.3,355.4 L504.1,354.6 L505.0,354.8 L505.8,354.8 L506.6,355.1 L507.5,354.6 L508.3,355.4 L509.2,355.1 L510.0,354.3 L510.9,355.1 L511.7,355.6 L512.5,357.5 L513.4,358.1 L514.2,355.9 L515.1,356.4 L515.9,356.4 L516.7,355.4 L517.6,354.3 L518.4,353.8 L519.3,353.0 L520.1,352.7 L521.0,352.4 L521.8,353.0 L522.6,353.2 L523.5,352.7 L524.3,352.7 L525.2,353.2 L526.0,353.8 L526.8,353.8 L527.7,353.8 L528.5,353.8 L529.4,354.6 L530.2,353.8 L531.1,353.2 L531.9,353.8 L532.7,354.6 L533.6,354.3 L534.4,354.3 L535.3,354.3 L536.1,354.3 L536.9,354.3 L537.8,353.5 L538.6,353.2 L539.5,353.8 L540.3,353.5 L541.2,353.5 L542.0,355.1 L542.8,355.9 L543.7,355.9 L544.5,355.9 L545.4,355.6 L546.2,355.9 L547.0,358.3 L547.9,357.8 L548.7,358.9 L549.6,354.8 L550.4,353.8 L551.2,354.0 L552.1,353.5 L552.9,353.8 L553.8,353.5 L554.6,354.0 L555.5,354.0 L556.3,354.6 L557.1,354.0 L558.0,354.0 L558.8,353.8 L559.7,353.2 L560.5,353.5 L561.3,354.0 L562.2,354.8 L563.0,355.9 L563.9,355.6 L564.7,358.1 L565.6,355.6 L566.4,355.4 L567.2,354.8 L568.1,355.4 L568.9,355.1 L569.8,353.5 L570.6,352.7 L571.4,353.0 L572.3,353.8 L573.1,353.2 L574.0,353.8 L574.8,354.3 L575.7,354.3 L576.5,354.6 L577.3,354.6 L578.2,354.3 L579.0,360.7 L579.9,359.9 L580.7,359.7 L581.5,360.2 L582.4,360.2 L583.2,359.1 L584.1,360.5 L584.9,359.9 L585.8,360.5 L586.6,360.2 L587.4,360.5 L588.3,360.7 L589.1,361.8 L590.0,361.5 L590.8,361.3 L591.6,362.6 L592.5,362.3 L593.3,362.6 L594.2,362.9 L595.0,362.6 L595.8,362.9 L596.7,361.3 L597.5,361.5 L598.4,361.0 L599.2,360.2 L600.1,360.5 L600.9,360.5 L601.7,360.7 L602.6,361.0 L603.4,362.6 L604.3,353.8 L605.1,353.8 L605.9,354.3 L606.8,354.3 L607.6,354.0 L608.5,354.3 L609.3,354.3 L610.2,353.5 L611.0,353.8 L611.8,355.1 L612.7,352.4 L613.5,351.6 L614.4,351.9 L615.2,351.3 L616.0,351.9 L616.9,351.6 L617.7,351.6 L618.6,351.9 L619.4,351.6 L620.3,351.9 L621.1,351.9 L621.9,351.9 L622.8,355.1 L623.6,354.6 L624.5,360.5 L625.3,361.0 L626.1,360.7 L627.0,360.2 L627.8,360.5 L628.7,358.1 L629.5,357.2 L630.4,356.7 L631.2,357.5 L632.0,357.8 L632.9,358.1 L633.7,357.8 L634.6,357.0 L635.4,357.2 L636.2,357.0 L637.1,357.5 L637.9,357.5 L638.8,357.8 L639.6,357.5 L640.4,358.9 L641.3,359.7 L642.1,359.4 L643.0,354.3 L643.8,354.8 L644.7,354.8 L645.5,354.0 L646.3,354.0 L647.2,354.3 L648.0,352.7 L648.9,352.4 L649.7,352.4 L650.5,352.4 L651.4,351.9 L652.2,351.1 L653.1,351.1 L653.9,351.1 L654.8,351.1 L655.6,350.8 L656.4,351.1 L657.3,350.5 L658.1,350.3 L659.0,350.5 L659.8,350.5 L660.6,350.5 L661.5,350.3 L662.3,350.3 L663.2,349.7 L664.0,349.7 L664.9,349.5 L665.7,349.2 L666.5,349.2 L667.4,349.2 L668.2,348.7 L669.1,348.9 L669.9,348.1 L670.7,347.9 L671.6,346.5 L672.4,346.3 L673.3,346.5 L674.1,346.3 L675.0,346.3 L675.8,345.4 L676.6,345.4 L677.5,344.9 L678.3,344.4 L679.2,345.2 L680.0,344.9" stroke="#ff7f0e" stroke-width="2" fill="none" opacity="0.8"/>
<!-- Thermal Generation -->
<path d="M80.0,283.0 L80.8,282.7 L81.7,297.2 L82.5,303.1 L83.4,303.3 L84.2,313.5 L85.0,297.4 L85.9,248.9 L86.7,236.0 L87.6,235.8 L88.4,236.3 L89.3,244.1 L90.1,252.7 L90.9,262.3 L91.8,269.8 L92.6,272.0 L93.5,240.1 L94.3,241.4 L95.1,237.1 L96.0,235.5 L96.8,236.8 L97.7,244.6 L98.5,272.8 L99.4,244.3 L100.2,285.6 L101.0,292.3 L101.9,291.3 L102.7,292.9 L103.6,292.9 L104.4,268.5 L105.2,236.3 L106.1,236.6 L106.9,237.4 L107.8,237.4 L108.6,236.6 L109.5,236.3 L110.3,267.7 L111.1,282.7 L112.0,282.7 L112.8,328.8 L113.7,341.7 L114.5,335.5 L115.3,331.0 L116.2,320.0 L117.0,303.9 L117.9,327.5 L118.7,315.4 L119.6,316.8 L120.4,318.9 L121.2,341.2 L122.1,342.5 L122.9,341.4 L123.8,342.0 L124.6,342.5 L125.4,342.0 L126.3,303.1 L127.1,300.7 L128.0,301.2 L128.8,304.1 L129.6,300.4 L130.5,332.0 L131.3,331.5 L132.2,336.3 L133.0,339.5 L133.9,339.0 L134.7,339.3 L135.5,336.9 L136.4,332.0 L137.2,323.5 L138.1,332.3 L138.9,332.8 L139.7,339.0 L140.6,339.5 L141.4,338.5 L142.3,338.7 L143.1,339.0 L144.0,338.5 L144.8,338.5 L145.6,339.0 L146.5,292.9 L147.3,296.6 L148.2,299.1 L149.0,296.1 L149.8,295.8 L150.7,299.1 L151.5,308.7 L152.4,313.5 L153.2,295.3 L154.1,295.6 L154.9,296.1 L155.7,296.1 L156.6,296.4 L157.4,298.5 L158.3,301.5 L159.1,309.5 L159.9,306.6 L160.8,321.0 L161.6,304.7 L162.5,302.5 L163.3,326.9 L164.2,321.6 L165.0,328.8 L165.8,322.9 L166.7,299.9 L167.5,300.9 L168.4,297.7 L169.2,299.1 L170.0,298.8 L170.9,298.2 L171.7,298.0 L172.6,298.0 L173.4,298.2 L174.2,303.6 L175.1,300.9 L175.9,298.8 L176.8,298.5 L177.6,298.2 L178.5,298.5 L179.3,299.9 L180.1,310.9 L181.0,331.0 L181.8,341.4 L182.7,341.4 L183.5,361.5 L184.3,369.6 L185.2,361.3 L186.0,340.4 L186.9,295.3 L187.7,294.8 L188.6,296.1 L189.4,298.5 L190.2,310.6 L191.1,312.7 L191.9,294.5 L192.8,295.6 L193.6,295.0 L194.4,295.3 L195.3,299.3 L196.1,297.4 L197.0,296.9 L197.8,294.8 L198.7,300.9 L199.5,317.3 L200.3,322.7 L201.2,330.2 L202.0,341.2 L202.9,362.1 L203.7,362.3 L204.5,361.3 L205.4,361.5 L206.2,361.8 L207.1,297.7 L207.9,294.8 L208.8,295.3 L209.6,300.9 L210.4,295.3 L211.3,294.8 L212.1,298.5 L213.0,295.3 L213.8,295.0 L214.6,297.2 L215.5,296.6 L216.3,295.6 L217.2,295.0 L218.0,297.4 L218.8,295.6 L219.7,317.6 L220.5,341.7 L221.4,338.7 L222.2,362.6 L223.1,361.5 L223.9,361.8 L224.7,360.7 L225.6,362.9 L226.4,361.5 L227.3,274.9 L228.1,247.8 L228.9,246.8 L229.8,236.0 L230.6,273.6 L231.5,282.2 L232.3,281.1 L233.2,282.2 L234.0,324.3 L234.8,350.0 L235.7,349.7 L236.5,335.5 L237.4,334.5 L238.2,286.2 L239.0,292.3 L239.9,324.8 L240.7,352.4 L241.6,362.9 L242.4,362.6 L243.3,362.1 L244.1,362.6 L244.9,362.3 L245.8,362.6 L246.6,363.7 L247.5,287.0 L248.3,262.6 L249.1,263.7 L250.0,283.5 L250.8,328.8 L251.7,358.9 L252.5,330.2 L253.4,340.4 L254.2,340.1 L255.0,351.1 L255.9,351.1 L256.7,340.6 L257.6,324.3 L258.4,269.8 L259.2,314.3 L260.1,311.4 L260.9,338.2 L261.8,338.2 L262.6,338.7 L263.5,322.9 L264.3,307.6 L265.1,309.5 L266.0,292.3 L266.8,259.6 L267.7,236.3 L268.5,236.0 L269.3,236.0 L270.2,238.4 L271.0,237.4 L271.9,283.5 L272.7,284.0 L273.5,310.6 L274.4,307.4 L275.2,297.7 L276.1,313.5 L276.9,339.8 L277.8,362.1 L278.6,346.3 L279.4,341.7 L280.3,341.4 L281.1,362.3 L282.0,362.6 L282.8,362.3 L283.6,362.1 L284.5,362.3 L285.3,362.1 L286.2,362.1 L287.0,362.3 L287.9,336.3 L288.7,305.0 L289.5,345.7 L290.4,351.3 L291.2,362.1 L292.1,361.5 L292.9,361.5 L293.7,361.8 L294.6,362.1 L295.4,361.5 L296.3,361.5 L297.1,340.4 L298.0,329.6 L298.8,312.2 L299.6,327.7 L300.5,347.6 L301.3,351.6 L302.2,337.9 L303.0,338.2 L303.8,338.5 L304.7,323.5 L305.5,323.5 L306.4,333.1 L307.2,332.8 L308.1,296.6 L308.9,288.3 L309.7,278.9 L310.6,282.4 L311.4,299.9 L312.3,362.1 L313.1,361.8 L313.9,361.8 L314.8,361.8 L315.6,361.8 L316.5,361.0 L317.3,361.5 L318.1,361.8 L319.0,361.5 L319.8,362.6 L320.7,362.1 L321.5,361.8 L322.4,361.8 L323.2,362.1 L324.0,362.3 L324.9,362.3 L325.7,362.1 L326.6,362.3 L327.4,361.5 L328.2,352.2 L329.1,335.0 L329.9,346.0 L330.8,354.0 L331.6,354.0 L332.5,362.1 L333.3,361.8 L334.1,362.1 L335.0,362.1 L335.8,362.3 L336.7,361.8 L337.5,362.1 L338.3,362.1 L339.2,355.1 L340.0,342.5 L340.9,353.0 L341.7,340.4 L342.6,362.1 L343.4,350.5 L344.2,361.8 L345.1,361.8 L345.9,351.1 L346.8,313.8 L347.6,301.7 L348.4,252.7 L349.3,236.8 L350.1,236.8 L351.0,237.1 L351.8,239.5 L352.7,236.8 L353.5,236.0 L354.3,237.4 L355.2,236.6 L356.0,259.1 L356.9,281.9 L357.7,281.6 L358.5,256.4 L359.4,243.5 L360.2,281.6 L361.1,281.9 L361.9,297.2 L362.7,329.4 L363.6,345.7 L364.4,361.8 L365.3,361.8 L366.1,361.8 L367.0,361.5 L367.8,361.5 L368.6,280.8 L369.5,251.6 L370.3,243.5 L371.2,244.9 L372.0,239.3 L372.8,246.8 L373.7,274.4 L374.5,282.2 L375.4,298.5 L376.2,292.9 L377.1,287.0 L377.9,289.1 L378.7,267.7 L379.6,263.7 L380.4,243.3 L381.3,270.6 L382.1,292.1 L382.9,281.9 L383.8,309.0 L384.6,321.8 L385.5,322.7 L386.3,321.6 L387.2,322.1 L388.0,322.4 L388.8,276.5 L389.7,277.3 L390.5,277.1 L391.4,277.1 L392.2,276.5 L393.0,276.8 L393.9,276.8 L394.7,288.3 L395.6,314.6 L396.4,319.4 L397.3,297.4 L398.1,282.7 L398.9,268.5 L399.8,257.5 L400.6,275.5 L401.5,313.5 L402.3,319.7 L403.1,322.1 L404.0,335.3 L404.8,335.5 L405.7,335.3 L406.5,334.7 L407.3,335.0 L408.2,335.5 L409.0,283.8 L409.9,246.2 L410.7,237.4 L411.6,237.1 L412.4,248.9 L413.2,251.9 L414.1,273.8 L414.9,296.4 L415.8,340.9 L416.6,361.8 L417.4,361.8 L418.3,361.3 L419.1,313.0 L420.0,239.3 L420.8,283.5 L421.7,283.5 L422.5,326.4 L423.3,326.4 L424.2,326.9 L425.0,326.9 L425.9,327.2 L426.7,326.7 L427.5,326.9 L428.4,326.1 L429.2,316.8 L430.1,290.2 L430.9,307.6 L431.8,302.8 L432.6,302.8 L433.4,315.9 L434.3,321.0 L435.1,329.4 L436.0,340.6 L436.8,348.4 L437.6,348.1 L438.5,347.9 L439.3,304.1 L440.2,283.5 L441.0,283.8 L441.9,297.4 L442.7,285.9 L443.5,328.0 L444.4,327.5 L445.2,327.2 L446.1,337.9 L446.9,337.9 L447.7,338.7 L448.6,338.2 L449.4,338.5 L450.3,338.2 L451.1,338.2 L451.9,310.9 L452.8,289.1 L453.6,305.8 L454.5,327.5 L455.3,326.7 L456.2,326.9 L457.0,326.7 L457.8,326.9 L458.7,326.7 L459.5,327.5 L460.4,291.8 L461.2,338.2 L462.0,337.7 L462.9,338.5 L463.7,362.9 L464.6,362.3 L465.4,362.3 L466.3,362.1 L467.1,362.1 L467.9,362.3 L468.8,362.3 L469.6,362.1 L470.5,329.9 L471.3,330.7 L472.1,318.9 L473.0,302.5 L473.8,308.2 L474.7,353.8 L475.5,354.0 L476.4,358.9 L477.2,359.1 L478.0,359.4 L478.9,359.1 L479.7,359.1 L480.6,362.3 L481.4,362.9 L482.2,362.3 L483.1,362.3 L483.9,362.3 L484.8,362.1 L485.6,362.3 L486.5,362.3 L487.3,362.3 L488.1,362.3 L489.0,361.8 L489.8,361.5 L490.7,361.8 L491.5,362.1 L492.3,361.8 L493.2,362.1 L494.0,362.1 L494.9,362.1 L495.7,361.5 L496.5,347.1 L498.2,361.8 L499.1,361.8 L499.9,362.1 L500.8,362.1 L501.6,362.3 L502.4,362.1 L503.3,362.1 L504.1,362.1 L505.0,362.1 L505.8,363.1 L506.6,363.1 L507.5,363.4 L508.3,363.4 L509.2,363.1 L510.0,362.6 L510.9,362.3 L511.7,359.7 L512.5,353.5 L513.4,356.2 L514.2,362.1 L515.1,362.3 L515.9,362.1 L516.7,362.1 L517.6,356.7 L518.4,351.9 L519.3,341.2 L520.1,292.1 L521.0,257.0 L521.8,236.8 L522.6,245.7 L523.5,264.7 L524.3,265.5 L525.2,265.5 L526.0,282.2 L526.8,291.5 L527.7,291.3 L528.5,312.7 L529.4,312.7 L530.2,312.5 L531.1,303.6 L531.9,277.9 L532.7,246.2 L533.6,267.4 L534.4,276.5 L535.3,280.5 L536.1,281.6 L536.9,311.1 L537.8,311.4 L538.6,311.1 L539.5,311.1 L540.3,294.8 L541.2,275.2 L542.0,256.1 L542.8,267.1 L543.7,282.4 L544.5,307.4 L545.4,353.8 L546.2,362.1 L547.0,361.8 L547.9,361.5 L548.7,361.5 L549.6,361.5 L550.4,361.0 L551.2,306.0 L552.1,298.0 L552.9,298.0 L553.8,298.0 L554.6,298.2 L555.5,298.0 L556.3,297.4 L557.1,308.2 L558.0,308.4 L558.8,324.5 L559.7,325.1 L560.5,324.3 L561.3,307.4 L562.2,253.2 L563.0,255.1 L563.9,310.3 L564.7,359.7 L565.6,360.5 L566.4,366.1 L567.2,370.1 L568.1,370.1 L568.9,378.7 L569.8,378.7 L570.6,378.7 L571.4,362.1 L572.3,319.7 L573.1,289.1 L574.0,288.3 L574.8,351.6 L575.7,362.3 L576.5,362.1 L577.3,362.3 L578.2,362.1 L579.0,362.3 L579.9,362.3 L580.7,362.3 L581.5,340.4 L582.4,270.1 L583.2,273.3 L584.1,346.8 L584.9,362.3 L585.8,361.8 L586.6,376.3 L587.4,378.4 L588.3,373.3 L589.1,362.9 L590.0,361.8 L590.8,361.8 L591.6,327.2 L592.5,265.3 L593.3,290.7 L594.2,306.3 L595.0,265.3 L595.8,283.8 L596.7,300.1 L597.5,310.6 L598.4,310.9 L599.2,310.3 L600.1,311.1 L600.9,282.7 L601.7,238.2 L602.6,238.7 L603.4,263.7 L604.3,272.2 L605.1,283.8 L605.9,282.2 L606.8,282.2 L607.6,317.8 L608.5,318.4 L609.3,292.1 L610.2,292.3 L611.0,254.5 L611.8,238.4 L612.7,238.2 L613.5,241.1 L614.4,250.2 L615.2,268.2 L616.0,260.7 L616.9,284.0 L617.7,283.8 L618.6,283.5 L619.4,284.0 L620.3,283.2 L621.1,283.0 L621.9,283.5 L622.8,283.8 L623.6,283.8 L624.5,310.9 L625.3,311.1 L626.1,311.1 L627.0,326.4 L627.8,353.8 L628.7,362.1 L629.5,362.3 L630.4,361.8 L631.2,361.8 L632.0,361.8 L632.9,361.5 L633.7,362.1 L634.6,376.6 L635.4,358.3 L636.2,339.5 L637.1,345.7 L637.9,334.2 L638.8,334.5 L639.6,334.5 L640.4,333.9 L641.3,299.3 L642.1,292.1 L643.0,284.0 L643.8,300.9 L644.7,310.9 L645.5,311.1 L646.3,321.6 L647.2,335.0 L648.0,335.3 L648.9,354.3 L649.7,354.6 L650.5,354.3 L651.4,354.3 L652.2,280.5 L653.1,257.5 L653.9,249.2 L654.8,249.4 L655.6,251.3 L656.4,237.6 L657.3,237.6 L658.1,237.9 L659.0,246.2 L659.8,270.9 L660.6,278.1 L661.5,276.5 L662.3,284.0 L663.2,259.9 L664.0,263.7 L664.9,268.5 L665.7,301.2 L666.5,308.4 L667.4,335.3 L668.2,357.0 L669.1,357.2 L669.9,357.0 L670.7,357.2 L671.6,344.6 L672.4,298.0 L673.3,252.4 L674.1,278.1 L675.0,297.7 L675.8,318.9 L676.6,362.3 L677.5,362.1 L678.3,353.8 L679.2,354.3 L680.0,354.0" stroke="#2ca02c" stroke-width="2" fill="none" opacity="0.8"/>
<!-- Solar Generation -->
<path d="M80.0,397.7 L80.8,402.8 L81.7,390.2 L82.5,399.1 L83.4,403.4 L84.2,407.7 L85.0,415.2 L85.9,419.7 L86.7,420.0 L87.6,420.0 L88.4,420.0 L89.3,420.0 L90.1,420.0 L90.9,420.0 L91.8,420.0 L92.6,420.0 L93.5,420.0 L94.3,420.0 L95.1,420.0 L96.0,420.0 L96.8,420.0 L97.7,418.7 L98.5,398.8 L99.4,397.2 L100.2,389.7 L101.0,389.7 L101.9,388.6 L102.7,394.8 L103.6,394.0 L104.4,395.1 L105.2,412.8 L106.1,419.7 L106.9,420.0 L107.8,420.0 L108.6,420.0 L109.5,420.0 L110.3,420.0 L111.1,420.0 L112.0,420.0 L112.8,420.0 L113.7,420.0 L114.5,420.0 L115.3,420.0 L116.2,420.0 L117.0,420.0 L117.9,419.2 L118.7,417.1 L119.6,414.4 L120.4,412.5 L121.2,400.7 L122.1,400.2 L122.9,399.9 L123.8,403.6 L124.6,407.7 L125.4,409.8 L126.3,419.5 L127.1,420.0 L128.0,420.0 L128.8,420.0 L129.6,420.0 L130.5,420.0 L131.3,420.0 L132.2,420.0 L133.0,420.0 L133.9,420.0 L134.7,420.0 L135.5,420.0 L136.4,420.0 L137.2,420.0 L138.1,419.5 L138.9,412.0 L139.7,413.3 L140.6,409.5 L141.4,405.8 L142.3,402.6 L143.1,406.1 L144.0,409.0 L144.8,415.7 L145.6,418.4 L146.5,420.0 L147.3,420.0 L148.2,420.0 L149.0,420.0 L149.8,420.0 L150.7,420.0 L151.5,420.0 L152.4,420.0 L153.2,420.0 L154.1,420.0 L154.9,420.0 L155.7,420.0 L156.6,420.0 L157.4,420.0 L158.3,419.7 L159.1,417.1 L159.9,414.1 L160.8,409.0 L161.6,405.3 L162.5,400.7 L163.3,398.0 L164.2,393.2 L165.0,390.5 L165.8,404.4 L166.7,419.5 L167.5,420.0 L168.4,420.0 L169.2,420.0 L170.0,420.0 L170.9,420.0 L171.7,420.0 L172.6,420.0 L173.4,420.0 L174.2,420.0 L175.1,420.0 L175.9,420.0 L176.8,420.0 L177.6,420.0 L178.5,416.8 L179.3,408.5 L180.1,398.8 L181.0,386.2 L181.8,387.0 L182.7,389.7 L183.5,385.4 L184.3,386.5 L185.2,393.7 L186.0,414.6 L186.9,419.2 L187.7,420.0 L188.6,420.0 L189.4,420.0 L190.2,420.0 L191.1,420.0 L191.9,420.0 L192.8,420.0 L193.6,420.0 L194.4,420.0 L195.3,420.0 L196.1,420.0 L197.0,420.0 L197.8,420.0 L198.7,418.4 L199.5,413.3 L200.3,405.0 L201.2,391.3 L202.0,388.9 L202.9,387.3 L203.7,386.5 L204.5,384.6 L205.4,404.4 L206.2,400.4 L207.1,419.5 L207.9,420.0 L208.8,420.0 L209.6,420.0 L210.4,420.0 L211.3,420.0 L212.1,420.0 L213.0,420.0 L213.8,420.0 L214.6,420.0 L215.5,420.0 L216.3,420.0 L217.2,420.0 L218.0,420.0 L218.8,418.7 L219.7,405.5 L220.5,403.9 L221.4,403.9 L222.2,404.4 L223.1,405.0 L223.9,403.4 L224.7,406.1 L225.6,404.4 L226.4,412.5 L227.3,418.7 L228.1,420.0 L228.9,420.0 L229.8,420.0 L230.6,420.0 L231.5,420.0 L232.3,420.0 L233.2,420.0 L234.0,420.0 L234.8,420.0 L235.7,420.0 L236.5,420.0 L237.4,420.0 L238.2,420.0 L239.0,418.7 L239.9,407.4 L240.7,394.8 L241.6,394.8 L242.4,391.6 L243.3,391.6 L244.1,395.3 L244.9,409.5 L245.8,414.9 L246.6,416.8 L247.5,419.5 L248.3,420.0 L249.1,420.0 L250.0,420.0 L250.8,420.0 L251.7,420.0 L252.5,420.0 L253.4,420.0 L254.2,420.0 L255.0,420.0 L255.9,420.0 L256.7,420.0 L257.6,420.0 L258.4,420.0 L259.2,419.7 L260.1,417.3 L260.9,415.7 L261.8,412.8 L262.6,407.7 L263.5,405.3 L264.3,409.3 L265.1,411.4 L266.0,413.0 L266.8,416.8 L267.7,419.5 L268.5,420.0 L269.3,420.0 L270.2,420.0 L271.0,420.0 L271.9,420.0 L272.7,420.0 L273.5,420.0 L274.4,420.0 L275.2,420.0 L276.1,420.0 L276.9,420.0 L277.8,420.0 L278.6,420.0 L279.4,417.6 L280.3,392.9 L281.1,393.2 L282.0,391.0 L282.8,395.9 L283.6,388.4 L284.5,404.7 L285.3,404.2 L286.2,408.5 L287.0,405.8 L287.9,418.1 L288.7,420.0 L289.5,420.0 L290.4,420.0 L291.2,420.0 L292.1,420.0 L292.9,420.0 L293.7,420.0 L294.6,420.0 L295.4,420.0 L296.3,420.0 L297.1,420.0 L298.0,420.0 L298.8,420.0 L299.6,417.6 L300.5,399.9 L301.3,403.4 L302.2,409.0 L303.0,406.1 L303.8,406.6 L304.7,405.3 L305.5,404.2 L306.4,404.4 L307.2,416.5 L308.1,419.2 L308.9,420.0 L309.7,420.0 L310.6,420.0 L311.4,420.0 L312.3,420.0 L313.1,420.0 L313.9,420.0 L314.8,420.0 L315.6,420.0 L316.5,420.0 L317.3,420.0 L318.1,420.0 L319.0,420.0 L319.8,413.3 L320.7,397.2 L321.5,398.0 L322.4,406.1 L323.2,405.0 L324.0,410.6 L324.9,413.3 L325.7,409.8 L326.6,414.9 L327.4,418.4 L328.2,420.0 L329.1,420.0 L329.9,420.0 L330.8,420.0 L331.6,420.0 L332.5,420.0 L333.3,420.0 L334.1,420.0 L335.0,420.0 L335.8,420.0 L336.7,420.0 L337.5,420.0 L338.3,420.0 L339.2,420.0 L340.0,415.2 L340.9,405.5 L341.7,405.3 L342.6,405.3 L343.4,406.1 L344.2,406.6 L345.1,405.3 L345.9,404.4 L346.8,404.4 L347.6,414.6 L348.4,419.7 L349.3,420.0 L350.1,420.0 L351.0,420.0 L351.8,420.0 L352.7,420.0 L353.5,420.0 L354.3,420.0 L355.2,420.0 L356.0,420.0 L356.9,420.0 L357.7,420.0 L358.5,420.0 L359.4,420.0 L360.2,416.5 L361.1,398.5 L361.9,398.8 L362.7,400.4 L363.6,401.2 L364.4,396.1 L365.3,399.4 L366.1,401.0 L367.0,407.4 L367.8,413.8 L368.6,419.2 L369.5,420.0 L370.3,420.0 L371.2,420.0 L372.0,420.0 L372.8,420.0 L373.7,420.0 L374.5,420.0 L375.4,420.0 L376.2,420.0 L377.1,420.0 L377.9,420.0 L378.7,420.0 L379.6,420.0 L380.4,417.3 L381.3,407.1 L382.1,403.6 L382.9,401.0 L383.8,397.5 L384.6,399.6 L385.5,395.1 L386.3,406.1 L387.2,406.1 L388.0,408.5 L388.8,418.1 L389.7,420.0 L390.5,420.0 L391.4,420.0 L392.2,420.0 L393.0,420.0 L393.9,420.0 L394.7,420.0 L395.6,420.0 L396.4,420.0 L397.3,420.0 L398.1,420.0 L398.9,420.0 L399.8,420.0 L400.6,410.1 L401.5,387.8 L402.3,384.3 L403.1,385.9 L404.0,387.0 L404.8,388.4 L405.7,391.8 L406.5,390.2 L407.3,393.2 L408.2,401.5 L409.0,417.3 L409.9,420.0 L410.7,420.0 L411.6,420.0 L412.4,420.0 L413.2,420.0 L414.1,420.0 L414.9,420.0 L415.8,420.0 L416.6,420.0 L417.4,420.0 L418.3,420.0 L419.1,420.0 L420.0,420.0 L420.8,417.6 L421.7,412.5 L422.5,410.6 L423.3,404.2 L424.2,404.7 L425.0,410.9 L425.9,410.1 L426.7,413.0 L427.5,413.3 L428.4,416.8 L429.2,417.9 L430.1,420.0 L430.9,420.0 L431.8,420.0 L432.6,420.0 L433.4,420.0 L434.3,420.0 L435.1,420.0 L436.0,420.0 L436.8,420.0 L437.6,420.0 L438.5,420.0 L439.3,420.0 L440.2,420.0 L441.0,418.4 L441.9,415.4 L442.7,417.1 L443.5,415.7 L444.4,411.7 L445.2,409.5 L446.1,413.8 L446.9,407.9 L447.7,416.8 L448.6,416.8 L449.4,418.4 L450.3,420.0 L451.1,420.0 L451.9,420.0 L452.8,420.0 L453.6,420.0 L454.5,420.0 L455.3,420.0 L456.2,420.0 L457.0,420.0 L457.8,420.0 L458.7,420.0 L459.5,420.0 L460.4,420.0 L461.2,411.2 L462.0,401.2 L462.9,405.8 L463.7,403.1 L464.6,403.6 L465.4,406.3 L466.3,411.2 L467.1,407.9 L467.9,412.2 L468.8,411.4 L469.6,415.4 L470.5,420.0 L471.3,420.0 L472.1,420.0 L473.0,420.0 L473.8,420.0 L474.7,420.0 L475.5,420.0 L476.4,420.0 L477.2,420.0 L478.0,420.0 L478.9,420.0 L479.7,420.0 L480.6,420.0 L481.4,411.2 L482.2,414.6 L483.1,409.3 L483.9,413.6 L484.8,412.0 L485.6,408.5 L486.5,404.4 L487.3,406.9 L488.1,410.3 L489.0,412.0 L489.8,418.4 L490.7,420.0 L491.5,420.0 L492.3,420.0 L493.2,420.0 L494.0,420.0 L494.9,420.0 L495.7,420.0 L496.5,420.0 L498.2,420.0 L499.1,420.0 L499.9,420.0 L500.8,420.0 L501.6,420.0 L502.4,410.6 L503.3,412.8 L504.1,407.1 L505.0,404.4 L505.8,406.1 L506.6,410.6 L507.5,407.7 L508.3,407.7 L509.2,414.4 L510.0,412.2 L510.9,418.4 L511.7,419.7 L512.5,420.0 L513.4,420.0 L514.2,420.0 L515.1,420.0 L515.9,420.0 L516.7,420.0 L517.6,420.0 L518.4,420.0 L519.3,420.0 L520.1,420.0 L521.0,420.0 L521.8,419.7 L522.6,415.2 L523.5,416.8 L524.3,416.5 L525.2,404.7 L526.0,413.8 L526.8,411.2 L527.7,413.3 L528.5,413.3 L529.4,416.0 L530.2,415.2 L531.1,418.4 L531.9,420.0 L532.7,420.0 L533.6,420.0 L534.4,420.0 L535.3,420.0 L536.1,420.0 L536.9,420.0 L537.8,420.0 L538.6,420.0 L539.5,420.0 L540.3,420.0 L541.2,420.0 L542.0,420.0 L542.8,415.4 L543.7,397.5 L544.5,403.4 L545.4,406.9 L546.2,407.9 L547.0,408.7 L547.9,411.7 L548.7,411.2 L549.6,406.1 L550.4,405.8 L551.2,415.4 L552.1,420.0 L552.9,420.0 L553.8,420.0 L554.6,420.0 L555.5,420.0 L556.3,420.0 L557.1,420.0 L558.0,420.0 L558.8,420.0 L559.7,420.0 L560.5,420.0 L561.3,420.0 L562.2,419.7 L563.0,405.3 L563.9,405.3 L564.7,403.4 L565.6,399.9 L566.4,385.1 L567.2,387.6 L568.1,403.1 L568.9,407.7 L569.8,412.0 L570.6,412.2 L571.4,418.9 L572.3,420.0 L573.1,420.0 L574.0,420.0 L574.8,420.0 L575.7,420.0 L576.5,420.0 L577.3,420.0 L578.2,420.0 L579.0,420.0 L579.9,420.0 L580.7,420.0 L581.5,420.0 L582.4,420.0 L583.2,417.3 L584.1,416.8 L584.9,415.7 L585.8,412.8 L586.6,415.4 L587.4,413.0 L588.3,414.1 L589.1,413.8 L590.0,416.0 L590.8,407.9 L591.6,418.4 L592.5,420.0 L593.3,420.0 L594.2,420.0 L595.0,420.0 L595.8,420.0 L596.7,420.0 L597.5,420.0 L598.4,420.0 L599.2,420.0 L600.1,420.0 L600.9,420.0 L601.7,420.0 L602.6,420.0 L603.4,418.1 L604.3,417.3 L605.1,404.2 L605.9,402.6 L606.8,396.9 L607.6,391.3 L608.5,400.7 L609.3,405.3 L610.2,410.6 L611.0,414.6 L611.8,418.7 L612.7,420.0 L613.5,420.0 L614.4,420.0 L615.2,420.0 L616.0,420.0 L616.9,420.0 L617.7,420.0 L618.6,420.0 L619.4,420.0 L620.3,420.0 L621.1,420.0 L621.9,420.0 L622.8,420.0 L623.6,418.1 L624.5,417.6 L625.3,415.7 L626.1,414.6 L627.0,411.7 L627.8,407.9 L628.7,409.0 L629.5,412.2 L630.4,412.2 L631.2,416.0 L632.0,412.5 L632.9,420.0 L633.7,420.0 L634.6,420.0 L635.4,420.0 L636.2,420.0 L637.1,420.0 L637.9,420.0 L638.8,420.0 L639.6,420.0 L640.4,420.0 L641.3,420.0 L642.1,420.0 L643.0,419.7 L643.8,414.1 L644.7,407.4 L645.5,412.0 L646.3,410.9 L647.2,406.9 L648.0,403.1 L648.9,401.8 L649.7,401.8 L650.5,401.8 L651.4,398.3 L652.2,416.2 L653.1,420.0 L653.9,420.0 L654.8,420.0 L655.6,420.0 L656.4,420.0 L657.3,420.0 L658.1,420.0 L659.0,420.0 L659.8,420.0 L660.6,420.0 L661.5,420.0 L662.3,420.0 L663.2,419.5 L664.0,415.2 L664.9,407.9 L665.7,405.3 L666.5,390.8 L667.4,396.9 L668.2,395.9 L669.1,402.3 L669.9,410.9 L670.7,413.8 L671.6,412.2 L672.4,416.5 L673.3,420.0 L674.1,420.0 L675.0,420.0 L675.8,420.0 L676.6,420.0 L677.5,420.0 L678.3,420.0 L679.2,420.0 L680.0,420.0" stroke="#d62728" stroke-width="2" fill="none" opacity="0.8"/>
<!-- Forecast -->
<path d="M80.0,193.7 L80.8,189.9 L81.7,196.1 L82.5,200.9 L83.4,206.0 L84.2,204.1 L85.0,202.2 L85.9,183.2 L86.7,176.5 L87.6,181.9 L88.4,191.2 L89.3,198.8 L90.1,214.3 L90.9,228.8 L91.8,239.8 L92.6,246.5 L93.5,250.0 L94.3,251.6 L95.1,248.6 L96.0,235.5 L96.8,210.8 L97.7,182.9 L98.5,168.7 L99.4,168.7 L100.2,171.9 L101.0,175.7 L101.9,179.7 L102.7,183.5 L103.6,187.0 L104.4,188.3 L105.2,182.4 L106.1,169.5 L106.9,162.3 L107.8,164.2 L108.6,174.4 L109.5,190.4 L110.3,208.4 L111.1,212.7 L112.0,238.7 L112.8,247.0 L113.7,250.5 L114.5,252.1 L115.3,249.2 L116.2,235.8 L117.0,210.3 L117.9,181.9 L118.7,167.4 L119.6,166.8 L120.4,169.8 L121.2,173.0 L122.1,178.1 L122.9,181.6 L123.8,184.0 L124.6,184.3 L125.4,178.1 L126.3,163.9 L127.1,157.5 L128.0,160.9 L128.8,169.5 L129.6,184.3 L130.5,204.1 L131.3,373.3 L132.2,226.1 L133.0,232.3 L133.9,235.8 L134.7,236.0 L135.5,232.3 L136.4,217.3 L137.2,190.2 L138.1,344.4 L138.9,391.8 L139.7,391.8 L140.6,392.4 L141.4,208.4 L142.3,158.3 L143.1,165.8 L144.0,170.3 L144.8,169.8 L145.6,161.7 L146.5,338.2 L147.3,391.0 L148.2,391.6 L149.0,392.4 L149.8,217.5 L150.7,181.1 L151.5,196.9 L152.4,211.1 L153.2,213.5 L154.1,215.4 L154.9,216.2 L155.7,212.4 L156.6,198.8 L157.4,174.9 L158.3,168.2 L159.1,167.1 L159.9,166.0 L160.8,165.0 L161.6,163.9 L162.5,162.8 L163.3,161.7 L164.2,160.7 L165.0,159.6 L165.8,158.5 L166.7,157.5 L167.5,161.7 L168.4,167.4 L169.2,169.3 L170.0,161.7 L170.9,173.8 L171.7,192.1 L172.6,210.0 L173.4,214.8 L174.2,216.7 L175.1,217.8 L175.9,214.8 L176.8,201.4 L177.6,178.1 L178.5,170.6 L179.3,168.5 L180.1,166.0 L181.0,163.9 L181.8,161.7 L182.7,159.6 L183.5,157.5 L184.3,162.3 L185.2,167.9 L186.0,174.4 L186.9,178.4 L187.7,178.6 L188.6,171.4 L189.4,177.0 L190.2,187.0 L191.1,196.9 L191.9,206.8 L192.8,216.7 L193.6,223.7 L194.4,227.7 L195.3,229.1 L196.1,229.3 L197.0,224.2 L197.8,210.3 L198.7,194.7 L199.5,180.3 L200.3,176.5 L201.2,177.3 L202.0,180.3 L202.9,184.3 L203.7,189.9 L204.5,194.5 L205.4,195.0 L206.2,189.1 L207.1,171.4 L207.9,163.4 L208.8,164.2 L209.6,170.9 L210.4,181.1 L211.3,192.9 L212.1,195.8 L213.0,222.9 L213.8,229.1 L214.6,235.0 L215.5,237.4 L216.3,235.2 L217.2,232.0 L218.0,221.8 L218.8,209.8 L219.7,194.2 L220.5,184.5 L221.4,182.1 L222.2,184.3 L223.1,188.0 L223.9,194.2 L224.7,198.0 L225.6,198.8 L226.4,193.9 L227.3,177.0 L228.1,166.6 L228.9,170.9 L229.8,179.2 L230.6,189.4 L231.5,206.5 L232.3,227.7 L233.2,234.4 L234.0,239.8 L234.8,244.1 L235.7,245.4 L236.5,242.5 L237.4,230.4 L238.2,204.9 L239.0,177.8 L239.9,166.0 L240.7,167.4 L241.6,171.4 L242.4,175.2 L243.3,179.7 L244.1,183.5 L244.9,187.0 L245.8,188.3 L246.6,183.5 L247.5,170.3 L248.3,163.1 L249.1,164.7 L250.0,175.7 L250.8,191.2 L251.7,209.8 L252.5,225.6 L253.4,240.3 L254.2,248.6 L255.0,252.4 L255.9,254.3 L256.7,252.1 L257.6,239.3 L258.4,214.6 L259.2,187.2 L260.1,171.7 L260.9,170.1 L261.8,172.2 L262.6,175.4 L263.5,179.4 L264.3,182.7 L265.1,185.9 L266.0,187.2 L266.8,181.3 L267.7,168.5 L268.5,162.0 L269.3,164.2 L270.2,174.6 L271.0,189.9 L271.9,208.7 L272.7,226.6 L273.5,239.0 L274.4,247.3 L275.2,251.6 L276.1,253.2 L276.9,250.8 L277.8,237.9 L278.6,213.5 L279.4,185.6 L280.3,169.8 L281.1,168.5 L282.0,170.9 L282.8,174.1 L283.6,178.4 L284.5,181.9 L285.3,184.5 L286.2,185.3 L287.0,179.4 L287.9,166.0 L288.7,159.6 L289.5,162.3 L290.4,172.5 L291.2,188.0 L292.1,207.1 L292.9,228.8 L293.7,239.0 L294.6,245.4 L295.4,249.2 L296.3,250.8 L297.1,247.8 L298.0,235.2 L298.8,210.3 L299.6,182.9 L300.5,169.0 L301.3,168.7 L302.2,171.7 L303.0,175.4 L303.8,179.4 L304.7,183.2 L305.5,187.0 L306.4,188.0 L307.2,182.9 L308.1,170.6 L308.9,163.9 L309.7,165.0 L310.6,176.2 L311.4,190.4 L312.3,209.8 L313.1,214.6 L313.9,240.9 L314.8,248.1 L315.6,251.9 L316.5,253.2 L317.3,250.2 L318.1,237.9 L319.0,212.7 L319.8,185.6 L320.7,170.9 L321.5,170.1 L322.4,172.5 L323.2,176.0 L324.0,179.4 L324.9,182.9 L325.7,186.4 L326.6,187.8 L327.4,182.7 L328.2,170.1 L329.1,162.6 L329.9,163.6 L330.8,174.1 L331.6,190.4 L332.5,207.9 L333.3,226.4 L334.1,239.5 L335.0,246.8 L335.8,250.5 L336.7,252.7 L337.5,251.3 L338.3,246.0 L339.2,232.0 L340.0,216.7 L340.9,201.4 L341.7,194.7 L342.6,191.5 L343.4,193.7 L344.2,196.9 L345.1,202.5 L345.9,206.5 L346.8,206.8 L347.6,203.3 L348.4,190.4 L349.3,182.4 L350.1,181.3 L351.0,187.5 L351.8,197.7 L352.7,212.2 L353.5,230.4 L354.3,240.3 L355.2,244.3 L356.0,247.3 L356.9,249.2 L357.7,248.9 L358.5,244.6 L359.4,235.8 L360.2,222.4 L361.1,208.7 L361.9,199.0 L362.7,192.1 L363.6,189.4 L364.4,195.5 L365.3,199.8 L366.1,206.3 L367.0,205.2 L367.8,204.9 L368.6,188.0 L369.5,178.9 L370.3,182.7 L371.2,192.3 L372.0,198.0 L372.8,213.0 L373.7,228.5 L374.5,238.2 L375.4,244.6 L376.2,248.1 L377.1,249.4 L377.9,246.5 L378.7,234.2 L379.6,209.5 L380.4,182.7 L381.3,169.0 L382.1,169.0 L382.9,172.2 L383.8,176.2 L384.6,180.0 L385.5,183.7 L386.3,187.8 L387.2,189.6 L388.0,184.8 L388.8,172.5 L389.7,165.2 L390.5,165.5 L391.4,175.4 L392.2,191.2 L393.0,208.7 L393.9,227.2 L394.7,239.3 L395.6,244.6 L396.4,247.6 L397.3,249.4 L398.1,245.7 L398.9,233.1 L399.8,208.9 L400.6,182.1 L401.5,167.9 L402.3,167.1 L403.1,170.1 L404.0,174.1 L404.8,177.6 L405.7,181.6 L406.5,185.6 L407.3,188.0 L408.2,183.7 L409.0,171.9 L409.9,164.7 L410.7,164.2 L411.6,175.4 L412.4,190.7 L413.2,208.7 L414.1,213.0 L414.9,239.8 L415.8,247.0 L416.6,250.8 L417.4,252.1 L418.3,249.7 L419.1,237.1 L420.0,212.2 L420.8,185.9 L421.7,170.9 L422.5,169.3 L423.3,171.9 L424.2,174.9 L425.0,178.1 L425.9,181.6 L426.7,185.6 L427.5,187.2 L428.4,182.1 L429.2,170.6 L430.1,164.4 L430.9,164.2 L431.8,175.7 L432.6,189.9 L433.4,208.9 L434.3,226.1 L435.1,239.5 L436.0,247.6 L436.8,251.3 L437.6,252.9 L438.5,250.2 L439.3,237.4 L440.2,213.5 L441.0,185.3 L441.9,169.0 L442.7,166.6 L443.5,168.7 L444.4,171.9 L445.2,176.2 L446.1,179.4 L446.9,182.7 L447.7,183.7 L448.6,178.4 L449.4,165.5 L450.3,159.9 L451.1,161.5 L451.9,171.4 L452.8,187.5 L453.6,206.0 L454.5,223.4 L455.3,236.6 L456.2,244.3 L457.0,247.8 L457.8,249.4 L458.7,246.2 L459.5,233.4 L460.4,208.1 L461.2,180.5 L462.0,165.8 L462.9,165.0 L463.7,167.9 L464.6,171.4 L465.4,176.2 L466.3,179.7 L467.1,182.7 L467.9,184.0 L468.8,178.6 L469.6,165.5 L470.5,159.1 L471.3,160.9 L472.1,169.8 L473.0,184.5 L473.8,203.6 L474.7,237.6 L475.5,239.0 L476.4,241.9 L477.2,246.8 L478.0,250.2 L478.9,249.4 L479.7,246.5 L480.6,235.5 L481.4,221.8 L482.2,207.6 L483.1,202.5 L483.9,198.0 L484.8,199.8 L485.6,202.0 L486.5,208.4 L487.3,211.9 L488.1,213.5 L489.0,212.4 L489.8,203.6 L490.7,196.1 L491.5,192.9 L492.3,198.2 L493.2,208.7 L494.0,226.6 L494.9,239.3 L495.7,250.0 L496.5,252.7 L498.2,249.4 L499.1,244.9 L499.9,237.6 L500.8,231.7 L501.6,221.3 L502.4,210.8 L503.3,199.3 L504.1,167.4 L505.0,166.3 L505.8,184.8 L506.6,208.1 L507.5,209.8 L508.3,214.8 L509.2,185.9 L510.0,190.4 L510.9,167.9 L511.7,164.2 L512.5,199.8 L513.4,216.7 L514.2,230.7 L515.1,231.7 L515.9,243.0 L516.7,250.5 L517.6,255.1 L518.4,255.9 L519.3,253.7 L520.1,240.3 L521.0,215.7 L521.8,188.3 L522.6,171.7 L523.5,169.3 L524.3,171.1 L525.2,174.4 L526.0,178.4 L526.8,182.1 L527.7,185.1 L528.5,187.0 L529.4,182.4 L530.2,171.4 L531.1,165.2 L531.9,165.0 L532.7,175.2 L533.6,191.0 L534.4,208.4 L535.3,222.9 L536.1,236.8 L536.9,243.3 L537.8,246.8 L538.6,247.6 L539.5,244.3 L540.3,231.2 L541.2,204.9 L542.0,176.8 L542.8,162.6 L543.7,162.3 L544.5,166.0 L545.4,169.5 L546.2,175.2 L547.0,178.9 L547.9,181.3 L548.7,182.1 L549.6,176.8 L550.4,164.4 L551.2,158.8 L552.1,160.9 L552.9,168.7 L553.8,181.9 L554.6,201.7 L555.5,243.5 L556.3,251.3 L557.1,250.8 L558.0,254.0 L558.8,255.1 L559.7,254.0 L560.5,243.0 L561.3,218.9 L562.2,189.9 L563.0,176.2 L563.9,173.8 L564.7,177.8 L565.6,181.9 L566.4,187.0 L567.2,191.2 L568.1,195.3 L568.9,196.6 L569.8,196.1 L570.6,196.9 L571.4,200.4 L572.3,200.9 L573.1,199.6 L574.0,207.3 L574.8,227.7 L575.7,247.6 L576.5,262.6 L577.3,272.5 L578.2,278.1 L579.0,281.6 L579.9,281.1 L580.7,272.0 L581.5,248.6 L582.4,217.5 L583.2,195.8 L584.1,190.2 L584.9,188.6 L585.8,190.7 L586.6,193.4 L587.4,196.1 L588.3,198.8 L589.1,199.0 L590.0,198.0 L590.8,198.2 L591.6,201.2 L592.5,200.9 L593.3,200.1 L594.2,207.1 L595.0,226.1 L595.8,244.6 L596.7,259.9 L597.5,267.1 L598.4,270.6 L599.2,272.8 L600.1,271.2 L600.9,260.2 L601.7,234.7 L602.6,205.2 L603.4,186.4 L604.3,180.8 L605.1,181.6 L605.9,183.7 L606.8,187.8 L607.6,191.2 L608.5,194.2 L609.3,195.5 L610.2,195.3 L611.0,194.7 L611.8,195.5 L612.7,195.3 L613.5,193.9 L614.4,202.8 L615.2,222.6 L616.0,231.5 L616.9,251.9 L617.7,262.3 L618.6,266.6 L619.4,269.3 L620.3,271.2 L621.1,268.2 L621.9,257.0 L622.8,239.5 L623.6,217.5 L624.5,207.3 L625.3,203.0 L626.1,206.5 L627.0,208.7 L627.8,215.4 L628.7,217.3 L629.5,214.3 L630.4,210.6 L631.2,206.8 L632.0,202.5 L632.9,196.9 L633.7,199.3 L634.6,206.5 L635.4,216.5 L636.2,235.0 L637.1,240.9 L637.9,239.8 L638.8,241.4 L639.6,243.5 L640.4,241.9 L641.3,238.7 L642.1,232.8 L643.0,218.9 L643.8,210.0 L644.7,202.0 L645.5,193.4 L646.3,188.6 L647.2,191.2 L648.0,197.1 L648.9,198.8 L649.7,200.6 L650.5,199.6 L651.4,194.2 L652.2,191.8 L653.1,189.9 L653.9,190.4 L654.8,198.5 L655.6,213.5 L656.4,249.4 L657.3,252.4 L658.1,254.3 L659.0,259.9 L659.8,262.3 L660.6,261.8 L661.5,252.1 L662.3,228.3 L663.2,200.4 L664.0,184.0 L664.9,180.3 L665.7,182.4 L666.5,185.6 L667.4,189.9 L668.2,194.5 L669.1,198.5 L669.9,199.8 L670.7,200.4 L671.6,200.9 L672.4,204.7 L673.3,205.7 L674.1,206.3 L675.0,212.7 L675.8,232.3 L676.6,256.4 L677.5,268.7 L678.3,276.8 L679.2,282.4 L680.0,283.5" stroke="#9467bd" stroke-width="2" fill="none" opacity="0.8"/>
<!-- Total Generation -->
<path d="M80.0,145.7 L80.8,136.5 L81.7,142.2 L82.5,152.9 L83.4,157.7 L84.2,168.7 L85.0,163.6 L85.9,96.3 L86.7,97.4 L87.6,114.3 L88.4,103.8 L89.3,117.0 L90.1,121.5 L90.9,131.2 L91.8,143.0 L92.6,154.0 L93.5,118.8 L94.3,117.2 L95.1,116.2 L96.0,114.3 L96.8,133.1 L97.7,155.0 L98.5,163.1 L99.4,132.2 L100.2,167.9 L101.0,173.5 L101.9,159.9 L102.7,160.1 L103.6,155.8 L104.4,134.7 L105.2,129.3 L106.1,135.2 L106.9,123.1 L107.8,136.0 L108.6,144.3 L109.5,140.8 L110.3,180.5 L111.1,191.5 L112.0,187.5 L112.8,219.4 L113.7,241.1 L114.5,224.2 L115.3,218.3 L116.2,198.5 L117.0,201.2 L117.9,220.5 L118.7,191.2 L119.6,169.5 L120.4,141.9 L121.2,170.9 L122.1,180.0 L122.9,142.2 L123.8,142.4 L124.6,152.4 L125.4,149.7 L126.3,132.0 L127.1,139.2 L128.0,149.4 L128.8,151.6 L129.6,142.4 L130.5,177.8 L131.3,183.2 L132.2,193.1 L133.0,199.0 L133.9,200.9 L134.7,202.2 L135.5,199.0 L136.4,192.9 L137.2,189.6 L138.1,207.3 L138.9,201.2 L139.7,210.8 L140.6,204.7 L141.4,198.0 L142.3,189.6 L143.1,195.5 L144.0,192.3 L144.8,199.3 L145.6,202.5 L146.5,162.3 L147.3,164.4 L148.2,171.1 L149.0,174.6 L149.8,181.1 L150.7,187.5 L151.5,200.9 L152.4,209.8 L153.2,198.5 L154.1,205.7 L154.9,211.4 L155.7,220.7 L156.6,229.6 L157.4,232.8 L158.3,235.8 L159.1,240.6 L159.9,236.0 L160.8,246.5 L161.6,225.0 L162.5,217.3 L163.3,238.2 L164.2,228.0 L165.0,230.7 L165.8,239.0 L166.7,229.1 L167.5,230.7 L168.4,228.0 L169.2,229.1 L170.0,229.6 L170.9,228.3 L171.7,228.0 L172.6,227.7 L173.4,225.0 L174.2,228.5 L175.1,222.6 L175.9,220.2 L176.8,221.6 L177.6,220.2 L178.5,211.6 L179.3,196.1 L180.1,193.9 L181.0,209.2 L181.8,177.3 L182.7,162.8 L183.5,207.1 L184.3,226.9 L185.2,220.2 L186.0,224.0 L186.9,178.4 L187.7,192.9 L188.6,199.0 L189.4,203.6 L190.2,233.4 L191.1,242.7 L191.9,225.8 L192.8,230.7 L193.6,229.9 L194.4,230.4 L195.3,233.1 L196.1,230.1 L197.0,227.2 L197.8,225.0 L198.7,230.4 L199.5,241.4 L200.3,238.4 L201.2,230.7 L202.0,238.4 L202.9,255.6 L203.7,249.2 L204.5,242.2 L205.4,261.5 L206.2,250.5 L207.1,202.0 L207.9,195.0 L208.8,196.1 L209.6,202.2 L210.4,195.3 L211.3,201.7 L212.1,208.7 L213.0,208.4 L213.8,210.6 L214.6,208.4 L215.5,212.7 L216.3,210.6 L217.2,206.0 L218.0,207.9 L218.8,203.0 L219.7,211.4 L220.5,244.6 L221.4,244.1 L222.2,268.7 L223.1,269.6 L223.9,266.9 L224.7,268.2 L225.6,268.2 L226.4,271.7 L227.3,185.9 L228.1,155.0 L228.9,149.7 L229.8,138.4 L230.6,168.5 L231.5,167.9 L232.3,160.7 L233.2,150.5 L234.0,199.0 L234.8,230.4 L235.7,203.0 L236.5,185.6 L237.4,184.3 L238.2,140.3 L239.0,128.5 L239.9,179.7 L240.7,184.0 L241.6,203.9 L242.4,204.4 L243.3,195.5 L244.1,187.8 L244.9,195.3 L245.8,200.4 L246.6,203.9 L247.5,102.2 L248.3,81.6 L249.1,72.2 L250.0,93.1 L250.8,168.5 L251.7,185.1 L252.5,165.2 L253.4,166.8 L254.2,170.9 L255.0,182.7 L255.9,189.6 L256.7,169.8 L257.6,153.2 L258.4,88.5 L259.2,138.7 L260.1,156.9 L260.9,188.6 L261.8,188.6 L262.6,189.6 L263.5,185.6 L264.3,175.7 L265.1,170.3 L266.0,133.3 L266.8,100.9 L267.7,96.9 L268.5,95.8 L269.3,91.5 L270.2,73.5 L271.0,82.9 L271.9,131.2 L272.7,139.0 L273.5,178.6 L274.4,160.4 L275.2,133.3 L276.1,125.0 L276.9,145.1 L277.8,170.1 L278.6,151.0 L279.4,149.1 L280.3,124.2 L281.1,163.1 L282.0,157.5 L282.8,165.2 L283.6,145.4 L284.5,172.7 L285.3,171.1 L286.2,169.8 L287.0,159.9 L287.9,153.7 L288.7,120.4 L289.5,178.1 L290.4,182.4 L291.2,178.9 L292.1,175.2 L292.9,178.6 L293.7,178.9 L294.6,182.7 L295.4,184.5 L296.3,192.9 L297.1,167.1 L298.0,160.9 L298.8,149.1 L299.6,151.6 L300.5,155.0 L301.3,195.3 L302.2,224.2 L303.0,215.7 L303.8,213.2 L304.7,192.9 L305.5,195.5 L306.4,199.0 L307.2,171.9 L308.1,141.6 L308.9,141.4 L309.7,145.9 L310.6,142.2 L311.4,160.9 L312.3,204.7 L313.1,193.9 L313.9,206.0 L314.8,224.2 L315.6,211.6 L316.5,184.8 L317.3,179.7 L318.1,180.5 L319.0,184.5 L319.8,180.3 L320.7,173.8 L321.5,176.0 L322.4,181.3 L323.2,181.6 L324.0,186.4 L324.9,190.7 L325.7,186.7 L326.6,198.8 L327.4,182.7 L328.2,170.6 L329.1,153.7 L329.9,165.5 L330.8,176.0 L331.6,175.2 L332.5,183.2 L333.3,197.1 L334.1,196.6 L335.0,187.2 L335.8,191.2 L336.7,189.9 L337.5,192.3 L338.3,203.3 L339.2,203.3 L340.0,214.6 L340.9,218.9 L341.7,209.2 L342.6,225.6 L343.4,212.4 L344.2,232.5 L345.1,262.0 L345.9,244.1 L346.8,195.8 L347.6,195.5 L348.4,150.5 L349.3,137.6 L350.1,154.5 L351.0,164.2 L351.8,171.4 L352.7,169.8 L353.5,166.3 L354.3,164.2 L355.2,158.3 L356.0,182.1 L356.9,203.3 L357.7,201.2 L358.5,171.7 L359.4,161.7 L360.2,189.1 L361.1,156.4 L361.9,176.0 L362.7,181.3 L363.6,188.3 L364.4,193.4 L365.3,203.3 L366.1,201.7 L367.0,205.5 L367.8,228.0 L368.6,162.6 L369.5,144.9 L370.3,161.2 L371.2,167.9 L372.0,156.1 L372.8,156.7 L373.7,178.4 L374.5,187.8 L375.4,212.2 L376.2,201.4 L377.1,198.8 L377.9,202.2 L378.7,179.2 L379.6,175.4 L380.4,153.4 L381.3,168.2 L382.1,191.8 L382.9,178.9 L383.8,200.1 L384.6,212.7 L385.5,192.6 L386.3,197.7 L387.2,187.0 L388.0,198.0 L388.8,168.2 L389.7,153.7 L390.5,152.9 L391.4,151.8 L392.2,143.2 L393.0,144.0 L393.9,163.9 L394.7,167.6 L395.6,203.6 L396.4,209.8 L397.3,204.1 L398.1,178.1 L398.9,160.1 L399.8,136.5 L400.6,134.1 L401.5,169.5 L402.3,161.7 L403.1,146.5 L404.0,178.9 L404.8,183.2 L405.7,181.3 L406.5,157.5 L407.3,182.7 L408.2,191.8 L409.0,162.6 L409.9,154.5 L410.7,134.9 L411.6,136.0 L412.4,151.6 L413.2,156.4 L414.1,156.1 L414.9,165.5 L415.8,182.9 L416.6,195.3 L417.4,196.9 L418.3,220.7 L419.1,159.9 L420.0,93.1 L420.8,146.5 L421.7,160.7 L422.5,197.4 L423.3,214.0 L424.2,222.6 L425.0,229.3 L425.9,230.4 L426.7,231.7 L427.5,229.1 L428.4,232.0 L429.2,222.6 L430.1,193.1 L430.9,213.8 L431.8,209.8 L432.6,207.1 L433.4,221.8 L434.3,219.9 L435.1,222.6 L436.0,233.9 L436.8,231.2 L437.6,232.5 L438.5,234.2 L439.3,186.7 L440.2,159.3 L441.0,171.7 L441.9,181.9 L442.7,173.5 L443.5,207.9 L444.4,191.2 L445.2,195.8 L446.1,192.9 L446.9,208.1 L447.7,225.8 L448.6,212.2 L449.4,192.6 L450.3,210.6 L451.1,228.5 L451.9,192.6 L452.8,179.2 L453.6,187.5 L454.5,205.5 L455.3,200.4 L456.2,199.6 L457.0,217.8 L457.8,229.1 L458.7,225.8 L459.5,228.3 L460.4,191.5 L461.2,240.3 L462.0,235.8 L462.9,245.4 L463.7,262.6 L464.6,257.5 L465.4,262.6 L466.3,255.6 L467.1,234.4 L467.9,226.1 L468.8,221.6 L469.6,182.1 L470.5,159.9 L471.3,163.9 L472.1,144.6 L473.0,133.9 L473.8,133.3 L474.7,179.4 L475.5,174.6 L476.4,182.1 L477.2,184.8 L478.0,186.7 L478.9,189.4 L479.7,184.8 L480.6,189.1 L481.4,178.6 L482.2,230.7 L483.1,232.8 L483.9,239.0 L484.8,242.5 L485.6,233.1 L486.5,225.0 L487.3,226.6 L488.1,229.9 L489.0,232.3 L489.8,194.2 L490.7,192.6 L491.5,186.7 L492.3,188.6 L493.2,190.4 L494.0,194.7 L494.9,195.0 L495.7,201.2 L496.5,179.2 L498.2,203.0 L499.1,217.5 L499.9,216.2 L500.8,225.6 L501.6,215.7 L502.4,199.6 L503.3,252.9 L504.1,259.4 L505.0,256.4 L505.8,265.0 L506.6,271.7 L507.5,274.4 L508.3,274.1 L509.2,270.6 L510.0,254.5 L510.9,222.6 L511.7,203.0 L512.5,189.6 L513.4,199.3 L514.2,218.6 L515.1,227.2 L515.9,238.2 L516.7,243.5 L517.6,243.5 L518.4,244.1 L519.3,246.0 L520.1,203.0 L521.0,178.4 L521.8,167.4 L522.6,173.5 L523.5,194.7 L524.3,191.2 L525.2,167.9 L526.0,188.8 L526.8,189.9 L527.7,186.7 L528.5,196.9 L529.4,215.4 L530.2,209.8 L531.1,194.7 L531.9,179.2 L532.7,159.1 L533.6,182.4 L534.4,195.5 L535.3,207.3 L536.1,211.4 L536.9,241.4 L537.8,240.9 L538.6,238.7 L539.5,239.5 L540.3,219.1 L541.2,194.7 L542.0,164.4 L542.8,172.5 L543.7,162.3 L544.5,198.0 L545.4,229.6 L546.2,232.8 L547.0,231.7 L547.9,224.0 L548.7,236.3 L549.6,244.1 L550.4,208.4 L551.2,174.9 L552.1,178.4 L552.9,165.5 L553.8,190.7 L554.6,195.5 L555.5,184.8 L556.3,166.3 L557.1,160.4 L558.0,181.3 L558.8,176.5 L559.7,190.2 L560.5,201.7 L561.3,182.9 L562.2,122.9 L563.0,87.2 L563.9,137.3 L564.7,202.8 L565.6,166.6 L566.4,159.1 L567.2,161.5 L568.1,199.0 L568.9,229.6 L569.8,214.6 L570.6,225.8 L571.4,258.6 L572.3,217.8 L573.1,127.4 L574.0,116.2 L574.8,170.9 L575.7,185.1 L576.5,190.7 L577.3,198.8 L578.2,221.3 L579.0,236.3 L579.9,267.7 L580.7,283.2 L581.5,265.5 L582.4,186.4 L583.2,187.2 L584.1,269.6 L584.9,278.7 L585.8,283.8 L586.6,301.7 L587.4,292.6 L588.3,279.7 L589.1,267.4 L590.0,255.9 L590.8,244.9 L591.6,198.2 L592.5,143.8 L593.3,170.3 L594.2,196.1 L595.0,176.8 L595.8,208.9 L596.7,225.6 L597.5,241.1 L598.4,235.8 L599.2,232.0 L600.1,239.5 L600.9,215.1 L601.7,173.0 L602.6,173.0 L603.4,200.4 L604.3,201.2 L605.1,200.4 L605.9,198.0 L606.8,188.3 L607.6,215.4 L608.5,220.2 L609.3,201.7 L610.2,201.7 L611.0,169.3 L611.8,158.8 L612.7,157.5 L613.5,159.9 L614.4,168.5 L615.2,180.5 L616.0,176.0 L616.9,198.0 L617.7,198.5 L618.6,201.4 L619.4,205.7 L620.3,205.7 L621.1,211.1 L621.9,216.2 L622.8,219.7 L623.6,216.7 L624.5,247.3 L625.3,236.6 L626.1,225.0 L627.0,232.3 L627.8,232.3 L628.7,227.5 L629.5,228.5 L630.4,228.5 L631.2,232.0 L632.0,190.2 L632.9,192.3 L633.7,210.8 L634.6,221.0 L635.4,207.3 L636.2,203.9 L637.1,213.8 L637.9,210.8 L638.8,214.3 L639.6,232.0 L640.4,237.1 L641.3,218.6 L642.1,220.5 L643.0,210.3 L643.8,223.2 L644.7,224.8 L645.5,230.7 L646.3,238.2 L647.2,242.5 L648.0,231.7 L648.9,248.9 L649.7,251.9 L650.5,254.0 L651.4,250.0 L652.2,190.2 L653.1,170.3 L653.9,165.8 L654.8,169.0 L655.6,168.2 L656.4,152.1 L657.3,153.4 L658.1,152.6 L659.0,151.3 L659.8,163.9 L660.6,145.7 L661.5,117.8 L662.3,117.5 L663.2,88.3 L664.0,86.1 L664.9,81.0 L665.7,107.8 L666.5,100.6 L667.4,136.0 L668.2,155.3 L669.1,162.0 L669.9,163.9 L670.7,182.4 L671.6,153.4 L672.4,111.6 L673.3,67.6 L674.1,97.7 L675.0,132.2 L675.8,161.7 L676.6,221.8 L677.5,245.7 L678.3,231.5 L679.2,238.2 L680.0,237.4" stroke="#8c564b" stroke-width="2" fill="none" opacity="0.8"/>
<!-- Forecast Difference -->
<path d="M80.0,420.0 L80.8,420.0 L81.7,420.0 L82.5,420.0 L83.4,420.0 L84.2,420.0 L85.0,420.0 L85.9,420.0 L86.7,420.0 L87.6,420.0 L88.4,420.0 L89.3,420.0 L90.1,420.0 L90.9,420.0 L91.8,420.0 L92.6,420.0 L93.5,420.0 L94.3,420.0 L95.1,420.0 L96.0,420.0 L96.8,420.0 L97.7,420.0 L98.5,420.0 L99.4,420.0 L100.2,420.0 L101.0,420.0 L101.9,420.0 L102.7,420.0 L103.6,420.0 L104.4,420.0 L105.2,420.0 L106.1,420.0 L106.9,420.0 L107.8,420.0 L108.6,420.0 L109.5,420.0 L110.3,420.0 L111.1,420.0 L112.0,420.0 L112.8,420.0 L113.7,420.0 L114.5,420.0 L115.3,420.0 L116.2,420.0 L117.0,420.0 L117.9,420.0 L118.7,420.0 L119.6,420.0 L120.4,420.0 L121.2,420.0 L122.1,420.0 L122.9,420.0 L123.8,420.0 L124.6,420.0 L125.4,420.0 L126.3,420.0 L127.1,420.0 L128.0,420.0 L128.8,420.0 L129.6,420.0 L130.5,420.0 L131.3,420.0 L132.2,420.0 L133.0,420.0 L133.9,420.0 L134.7,420.0 L135.5,420.0 L136.4,420.0 L137.2,420.0 L138.1,420.0 L138.9,420.0 L139.7,420.0 L140.6,420.0 L141.4,420.0 L142.3,420.0 L143.1,420.0 L144.0,420.0 L144.8,420.0 L145.6,420.0 L146.5,420.0 L147.3,420.0 L148.2,420.0 L149.0,420.0 L149.8,420.0 L150.7,420.0 L151.5,420.0 L152.4,420.0 L153.2,420.0 L154.1,420.0 L154.9,420.0 L155.7,420.0 L156.6,420.0 L157.4,420.0 L158.3,420.0 L159.1,420.0 L159.9,420.0 L160.8,420.0 L161.6,420.0 L162.5,420.0 L163.3,420.0 L164.2,420.0 L165.0,420.0 L165.8,420.0 L166.7,420.0 L167.5,420.0 L168.4,420.0 L169.2,420.0 L170.0,420.0 L170.9,420.0 L171.7,420.0 L172.6,420.0 L173.4,420.0 L174.2,420.0 L175.1,420.0 L175.9,420.0 L176.8,420.0 L177.6,420.0 L178.5,420.0 L179.3,420.0 L180.1,420.0 L181.0,420.0 L181.8,420.0 L182.7,420.0 L183.5,420.0 L184.3,420.0 L185.2,420.0 L186.0,420.0 L186.9,420.0 L187.7,420.0 L188.6,420.0 L189.4,420.0 L190.2,420.0 L191.1,420.0 L191.9,420.0 L192.8,420.0 L193.6,420.0 L194.4,420.0 L195.3,420.0 L196.1,420.0 L197.0,420.0 L197.8,420.0 L198.7,420.0 L199.5,420.0 L200.3,420.0 L201.2,420.0 L202.0,420.0 L202.9,420.0 L203.7,420.0 L204.5,420.0 L205.4,420.0 L206.2,420.0 L207.1,420.0 L207.9,420.0 L208.8,420.0 L209.6,420.0 L210.4,420.0 L211.3,420.0 L212.1,420.0 L213.0,420.0 L213.8,420.0 L214.6,420.0 L215.5,420.0 L216.3,420.0 L217.2,420.0 L218.0,420.0 L218.8,420.0 L219.7,420.0 L220.5,420.0 L221.4,420.0 L222.2,420.0 L223.1,420.0 L223.9,420.0 L224.7,420.0 L225.6,420.0 L226.4,420.0 L227.3,420.0 L228.1,420.0 L228.9,420.0 L229.8,420.0 L230.6,420.0 L231.5,420.0 L232.3,420.0 L233.2,420.0 L234.0,420.0 L234.8,420.0 L235.7,420.0 L236.5,420.0 L237.4,420.0 L238.2,420.0 L239.0,420.0 L239.9,420.0 L240.7,420.0 L241.6,420.0 L242.4,420.0 L243.3,420.0 L244.1,420.0 L244.9,420.0 L245.8,420.0 L246.6,420.0 L247.5,420.0 L248.3,420.0 L249.1,420.0 L250.0,420.0 L250.8,420.0 L251.7,420.0 L252.5,420.0 L253.4,420.0 L254.2,420.0 L255.0,420.0 L255.9,420.0 L256.7,420.0 L257.6,420.0 L258.4,420.0 L259.2,420.0 L260.1,420.0 L260.9,420.0 L261.8,420.0 L262.6,420.0 L263.5,420.0 L264.3,420.0 L265.1,420.0 L266.0,420.0 L266.8,420.0 L267.7,420.0 L268.5,420.0 L269.3,420.0 L270.2,420.0 L271.0,420.0 L271.9,420.0 L272.7,420.0 L273.5,420.0 L274.4,420.0 L275.2,420.0 L276.1,420.0 L276.9,420.0 L277.8,420.0 L278.6,420.0 L279.4,420.0 L280.3,420.0 L281.1,420.0 L282.0,420.0 L282.8,420.0 L283.6,420.0 L284.5,420.0 L285.3,420.0 L286.2,420.0 L287.0,420.0 L287.9,420.0 L288.7,420.0 L289.5,420.0 L290.4,420.0 L291.2,420.0 L292.1,420.0 L292.9,420.0 L293.7,420.0 L294.6,420.0 L295.4,420.0 L296.3,420.0 L297.1,420.0 L298.0,420.0 L298.8,420.0 L299.6,420.0 L300.5,420.0 L301.3,420.0 L302.2,420.0 L303.0,420.0 L303.8,420.0 L304.7,420.0 L305.5,420.0 L306.4,420.0 L307.2,420.0 L308.1,420.0 L308.9,420.0 L309.7,420.0 L310.6,420.0 L311.4,420.0 L312.3,420.0 L313.1,420.0 L313.9,420.0 L314.8,420.0 L315.6,420.0 L316.5,420.0 L317.3,420.0 L318.1,420.0 L319.0,420.0 L319.8,420.0 L320.7,420.0 L321.5,420.0 L322.4,420.0 L323.2,420.0 L324.0,420.0 L324.9,420.0 L325.7,420.0 L326.6,420.0 L327.4,420.0 L328.2,420.0 L329.1,420.0 L329.9,420.0 L330.8,420.0 L331.6,420.0 L332.5,420.0 L333.3,420.0 L334.1,420.0 L335.0,420.0 L335.8,420.0 L336.7,420.0 L337.5,420.0 L338.3,420.0 L339.2,420.0 L340.0,420.0 L340.9,420.0 L341.7,420.0 L342.6,420.0 L343.4,420.0 L344.2,420.0 L345.1,420.0 L345.9,420.0 L346.8,420.0 L347.6,420.0 L348.4,420.0 L349.3,420.0 L350.1,420.0 L351.0,420.0 L351.8,420.0 L352.7,420.0 L353.5,420.0 L354.3,420.0 L355.2,420.0 L356.0,420.0 L356.9,420.0 L357.7,420.0 L358.5,420.0 L359.4,420.0 L360.2,420.0 L361.1,420.0 L361.9,420.0 L362.7,420.0 L363.6,420.0 L364.4,420.0 L365.3,420.0 L366.1,420.0 L367.0,420.0 L367.8,420.0 L368.6,420.0 L369.5,420.0 L370.3,420.0 L371.2,420.0 L372.0,420.0 L372.8,420.0 L373.7,420.0 L374.5,420.0 L375.4,420.0 L376.2,420.0 L377.1,420.0 L377.9,420.0 L378.7,420.0 L379.6,420.0 L380.4,420.0 L381.3,420.0 L382.1,420.0 L382.9,420.0 L383.8,420.0 L384.6,420.0 L385.5,420.0 L386.3,420.0 L387.2,420.0 L388.0,420.0 L388.8,420.0 L389.7,420.0 L390.5,420.0 L391.4,420.0 L392.2,420.0 L393.0,420.0 L393.9,420.0 L394.7,420.0 L395.6,420.0 L396.4,420.0 L397.3,420.0 L398.1,420.0 L398.9,420.0 L399.8,420.0 L400.6,420.0 L401.5,420.0 L402.3,420.0 L403.1,420.0 L404.0,420.0 L404.8,420.0 L405.7,420.0 L406.5,420.0 L407.3,420.0 L408.2,420.0 L409.0,420.0 L409.9,420.0 L410.7,420.0 L411.6,420.0 L412.4,420.0 L413.2,420.0 L414.1,420.0 L414.9,420.0 L415.8,420.0 L416.6,420.0 L417.4,420.0 L418.3,420.0 L419.1,420.0 L420.0,420.0 L420.8,420.0 L421.7,420.0 L422.5,420.0 L423.3,420.0 L424.2,420.0 L425.0,420.0 L425.9,420.0 L426.7,420.0 L427.5,420.0 L428.4,420.0 L429.2,420.0 L430.1,420.0 L430.9,420.0 L431.8,420.0 L432.6,420.0 L433.4,420.0 L434.3,420.0 L435.1,420.0 L436.0,420.0 L436.8,420.0 L437.6,420.0 L438.5,420.0 L439.3,420.0 L440.2,420.0 L441.0,420.0 L441.9,420.0 L442.7,420.0 L443.5,420.0 L444.4,420.0 L445.2,420.0 L446.1,420.0 L446.9,420.0 L447.7,420.0 L448.6,420.0 L449.4,420.0 L450.3,420.0 L451.1,420.0 L451.9,420.0 L452.8,420.0 L453.6,420.0 L454.5,420.0 L455.3,420.0 L456.2,420.0 L457.0,420.0 L457.8,420.0 L458.7,420.0 L459.5,420.0 L460.4,420.0 L461.2,420.0 L462.0,420.0 L462.9,420.0 L463.7,420.0 L464.6,420.0 L465.4,420.0 L466.3,420.0 L467.1,420.0 L467.9,420.0 L468.8,420.0 L469.6,420.0 L470.5,420.0 L471.3,420.0 L472.1,420.0 L473.0,420.0 L473.8,420.0 L474.7,420.0 L475.5,420.0 L476.4,420.0 L477.2,420.0 L478.0,420.0 L478.9,420.0 L479.7,420.0 L480.6,420.0 L481.4,420.0 L482.2,420.0 L483.1,420.0 L483.9,420.0 L484.8,420.0 L485.6,420.0 L486.5,420.0 L487.3,420.0 L488.1,420.0 L489.0,420.0 L489.8,420.0 L490.7,420.0 L491.5,420.0 L492.3,420.0 L493.2,420.0 L494.0,420.0 L494.9,420.0 L495.7,420.0 L496.5,420.0 L498.2,420.0 L499.1,420.0 L499.9,420.0 L500.8,420.0 L501.6,420.0 L502.4,420.0 L503.3,420.0 L504.1,420.0 L505.0,420.0 L505.8,420.0 L506.6,420.0 L507.5,420.0 L508.3,420.0 L509.2,420.0 L510.0,420.0 L510.9,420.0 L511.7,420.0 L512.5,420.0 L513.4,420.0 L514.2,420.0 L515.1,420.0 L515.9,420.0 L516.7,420.0 L517.6,420.0 L518.4,420.0 L519.3,420.0 L520.1,420.0 L521.0,420.0 L521.8,420.0 L522.6,420.0 L523.5,420.0 L524.3,420.0 L525.2,420.0 L526.0,420.0 L526.8,420.0 L527.7,420.0 L528.5,420.0 L529.4,420.0 L530.2,420.0 L531.1,420.0 L531.9,420.0 L532.7,420.0 L533.6,420.0 L534.4,420.0 L535.3,420.0 L536.1,420.0 L536.9,420.0 L537.8,420.0 L538.6,420.0 L539.5,420.0 L540.3,420.0 L541.2,420.0 L542.0,420.0 L542.8,420.0 L543.7,420.0 L544.5,420.0 L545.4,420.0 L546.2,420.0 L547.0,420.0 L547.9,420.0 L548.7,420.0 L549.6,420.0 L550.4,420.0 L551.2,420.0 L552.1,420.0 L552.9,420.0 L553.8,420.0 L554.6,420.0 L555.5,420.0 L556.3,420.0 L557.1,420.0 L558.0,420.0 L558.8,420.0 L559.7,420.0 L560.5,420.0 L561.3,420.0 L562.2,420.0 L563.0,420.0 L563.9,420.0 L564.7,420.0 L565.6,420.0 L566.4,420.0 L567.2,420.0 L568.1,420.0 L568.9,420.0 L569.8,420.0 L570.6,420.0 L571.4,420.0 L572.3,420.0 L573.1,420.0 L574.0,420.0 L574.8,420.0 L575.7,420.0 L576.5,420.0 L577.3,420.0 L578.2,420.0 L579.0,420.0 L579.9,420.0 L580.7,420.0 L581.5,420.0 L582.4,420.0 L583.2,420.0 L584.1,420.0 L584.9,420.0 L585.8,420.0 L586.6,420.0 L587.4,420.0 L588.3,420.0 L589.1,420.0 L590.0,420.0 L590.8,420.0 L591.6,420.0 L592.5,420.0 L593.3,420.0 L594.2,420.0 L595.0,420.0 L595.8,420.0 L596.7,420.0 L597.5,420.0 L598.4,420.0 L599.2,420.0 L600.1,420.0 L600.9,420.0 L601.7,420.0 L602.6,420.0 L603.4,420.0 L604.3,420.0 L605.1,420.0 L605.9,420.0 L606.8,420.0 L607.6,420.0 L608.5,420.0 L609.3,420.0 L610.2,420.0 L611.0,420.0 L611.8,420.0 L612.7,420.0 L613.5,420.0 L614.4,420.0 L615.2,420.0 L616.0,420.0 L616.9,420.0 L617.7,420.0 L618.6,420.0 L619.4,420.0 L620.3,420.0 L621.1,420.0 L621.9,420.0 L622.8,420.0 L623.6,420.0 L624.5,420.0 L625.3,420.0 L626.1,420.0 L627.0,420.0 L627.8,420.0 L628.7,420.0 L629.5,420.0 L630.4,420.0 L631.2,420.0 L632.0,420.0 L632.9,420.0 L633.7,420.0 L634.6,420.0 L635.4,420.0 L636.2,420.0 L637.1,420.0 L637.9,420.0 L638.8,420.0 L639.6,420.0 L640.4,420.0 L641.3,420.0 L642.1,420.0 L643.0,420.0 L643.8,420.0 L644.7,420.0 L645.5,420.0 L646.3,420.0 L647.2,420.0 L648.0,420.0 L648.9,420.0 L649.7,420.0 L650.5,420.0 L651.4,420.0 L652.2,420.0 L653.1,420.0 L653.9,420.0 L654.8,420.0 L655.6,420.0 L656.4,420.0 L657.3,420.0 L658.1,420.0 L659.0,420.0 L659.8,420.0 L660.6,420.0 L661.5,420.0 L662.3,420.0 L663.2,420.0 L664.0,420.0 L664.9,420.0 L665.7,420.0 L666.5,420.0 L667.4,420.0 L668.2,420.0 L669.1,420.0 L669.9,420.0 L670.7,420.0 L671.6,420.0 L672.4,420.0 L673.3,420.0 L674.1,420.0 L675.0,420.0 L675.8,420.0 L676.6,420.0 L677.5,420.0 L678.3,420.0 L679.2,420.0 L680.0,420.0" stroke="#e377c2" stroke-width="2" fill="none" opacity="0.8"/>

<!-- Legend -->
<line x1="690" y1="70" x2="705" y2="70" stroke="#1f77b4" stroke-width="3"/>
<text x="710" y="74" class="legend">Wind Generation</text>
<line x1="690" y1="88" x2="705" y2="88" stroke="#ff7f0e" stroke-width="3"/>
<text x="710" y="92" class="legend">Hydro Generation</text>
<line x1="690" y1="106" x2="705" y2="106" stroke="#2ca02c" stroke-width="3"/>
<text x="710" y="110" class="legend">Thermal Generation</text>
<line x1="690" y1="124" x2="705" y2="124" stroke="#d62728" stroke-width="3"/>
<text x="710" y="128" class="legend">Solar Generation</text>
<line x1="690" y1="142" x2="705" y2="142" stroke="#9467bd" stroke-width="3"/>
<text x="710" y="146" class="legend">Forecast</text>
<line x1="690" y1="160" x2="705" y2="160" stroke="#8c564b" stroke-width="3"/>
<text x="710" y="164" class="legend">Total Generation</text>
<line x1="690" y1="178" x2="705" y2="178" stroke="#e377c2" stroke-width="3"/>
<text x="710" y="182" class="legend">Forecast Difference</text>

<!-- Date range -->
<text x="80" y="495" class="legend">Range: 02/15 - 03/17/2026 (713 records)</text>
</svg>