<?xml version="1.0" encoding="UTF-8"?>
<svg width="800" height="500" xmlns="http://www.w3.org/2000/svg">
<style>
.axis-line { stroke: #333; stroke-width: 1; }
.grid-line { stroke: #ddd; stroke-width: 0.5; }
.title { font: 16px Arial; text-anchor: middle; fill: #333; }
.axis-label { font: 12px Arial; text-anchor: middle; fill: #666; }
.legend { font: 10px Arial; fill: #333; }
</style>

<!-- Title -->
<text x="400.0" y="25" class="title">Northwestern Energy Generation Data - Past 30 Days</text>

<!-- Plot area background -->
<rect x="80" y="50" width="600" height="370" fill="white" stroke="#ddd"/>

<!-- Y-axis -->
<line x1="80" y1="50" x2="80" y2="420" class="axis-line"/>
<text x="30" y="235.0" class="axis-label" transform="rotate(-90, 30, 235.0)">Generation (MW)</text>

<!-- X-axis -->
<line x1="80" y1="420" x2="680" y2="420" class="axis-line"/>
<text x="380.0" y="480" class="axis-label">Time</text>
<line x1="80" y1="420.0" x2="680" y2="420.0" class="grid-line"/>
<text x="70" y="425.0" class="legend" text-anchor="end">0</text>
<line x1="80" y1="327.5" x2="680" y2="327.5" class="grid-line"/>
<text x="70" y="332.5" class="legend" text-anchor="end">318</text>
<line x1="80" y1="235.0" x2="680" y2="235.0" class="grid-line"/>
<text x="70" y="240.0" class="legend" text-anchor="end">636</text>
<line x1="80" y1="142.5" x2="680" y2="142.5" class="grid-line"/>
<text x="70" y="147.5" class="legend" text-anchor="end">954</text>
<line x1="80" y1="50.0" x2="680" y2="50.0" class="grid-line"/>
<text x="70" y="55.0" class="legend" text-anchor="end">1273</text>
<!-- Wind Generation -->
<path d="M80.0,406.0 L80.8,399.1 L81.7,393.5 L82.5,395.0 L83.4,398.5 L84.2,402.0 L85.0,404.6 L85.9,412.4 L86.7,412.7 L87.6,414.8 L88.4,417.1 L89.3,416.2 L90.1,415.9 L90.9,415.1 L91.8,409.5 L92.6,409.2 L93.5,407.2 L94.3,410.4 L95.1,415.1 L96.0,417.4 L96.8,409.8 L97.7,410.1 L98.5,414.2 L99.4,416.8 L100.2,418.0 L101.0,414.2 L101.9,410.7 L102.7,410.4 L103.6,409.0 L104.4,411.9 L105.2,413.9 L106.1,413.6 L106.9,397.0 L107.8,378.4 L108.6,381.9 L109.5,364.8 L110.3,365.6 L111.1,370.9 L112.0,377.8 L112.8,374.6 L113.7,380.2 L114.5,388.6 L115.3,403.1 L116.2,403.7 L117.0,406.9 L117.9,410.7 L118.7,413.9 L119.6,415.6 L120.4,411.3 L121.2,402.8 L122.1,393.5 L122.9,393.5 L123.8,379.6 L124.6,369.7 L125.4,381.3 L126.3,370.9 L127.1,357.8 L128.0,362.4 L128.8,347.0 L129.6,339.2 L130.5,356.9 L131.3,355.7 L132.2,356.0 L133.0,355.7 L133.9,368.0 L134.7,379.9 L135.5,384.2 L136.4,381.0 L137.2,385.1 L138.1,401.4 L138.9,404.0 L139.7,408.4 L140.6,408.4 L141.4,407.5 L142.3,407.5 L143.1,409.5 L144.0,412.1 L144.8,413.0 L145.6,414.5 L146.5,415.9 L147.3,417.1 L148.2,416.2 L149.0,413.9 L149.8,414.2 L150.7,410.4 L151.5,416.8 L152.4,412.4 L153.2,416.5 L154.1,406.3 L154.9,405.5 L155.7,391.8 L156.6,378.4 L157.4,409.0 L158.3,410.1 L159.1,408.1 L159.9,415.9 L160.8,418.0 L161.6,417.4 L162.5,416.8 L163.3,413.9 L164.2,413.3 L165.0,413.9 L165.8,416.5 L166.7,415.6 L167.5,414.2 L168.4,412.7 L169.2,407.2 L170.0,390.6 L170.9,390.9 L171.7,358.1 L172.6,340.6 L173.4,329.0 L174.2,320.6 L175.1,330.2 L175.9,338.0 L176.8,341.8 L177.6,365.6 L178.5,373.5 L179.3,389.5 L180.1,398.5 L181.0,391.8 L181.8,386.6 L182.7,399.4 L183.5,397.9 L184.3,393.3 L185.2,381.3 L186.0,387.1 L186.9,395.3 L187.7,401.1 L188.6,406.6 L189.4,405.5 L190.2,406.6 L191.1,388.9 L191.9,390.1 L192.8,401.7 L193.6,404.0 L194.4,402.0 L195.3,389.5 L196.1,391.5 L197.0,383.4 L197.8,387.4 L198.7,386.3 L199.5,385.4 L200.3,390.6 L201.2,396.7 L202.0,371.4 L202.9,379.0 L203.7,396.2 L204.5,418.0 L205.4,406.6 L206.2,404.6 L207.1,411.6 L207.9,416.8 L208.8,420.0 L209.6,418.0 L210.4,411.3 L211.3,409.2 L212.1,405.2 L213.0,406.3 L213.8,402.3 L214.6,396.2 L215.5,390.3 L216.3,401.4 L217.2,374.1 L218.0,382.5 L218.8,403.1 L219.7,375.2 L220.5,396.7 L221.4,404.0 L222.2,379.9 L223.1,374.9 L223.9,371.7 L224.7,389.8 L225.6,390.1 L226.4,397.0 L227.3,411.3 L228.1,419.4 L228.9,419.4 L229.8,419.1 L230.6,418.0 L231.5,418.5 L232.3,410.4 L233.2,400.2 L234.0,386.0 L234.8,395.3 L235.7,361.9 L236.5,369.4 L237.4,344.4 L238.2,359.5 L239.0,367.4 L239.9,359.5 L240.7,345.0 L241.6,336.8 L242.4,353.1 L243.3,357.8 L244.1,372.9 L244.9,391.2 L245.8,386.9 L246.6,403.1 L247.5,417.4 L248.3,414.5 L249.1,409.8 L250.0,409.2 L250.8,402.0 L251.7,395.0 L252.5,392.7 L253.4,385.4 L254.2,384.2 L255.0,386.6 L255.9,363.9 L256.7,353.1 L257.6,343.8 L258.4,335.1 L259.2,347.9 L260.1,363.6 L260.9,362.7 L261.8,354.9 L262.6,340.0 L263.5,334.8 L264.3,336.3 L265.1,334.5 L266.0,330.7 L266.8,355.2 L267.7,354.9 L268.5,354.9 L269.3,355.7 L270.2,356.6 L271.0,351.7 L271.9,354.3 L272.7,356.0 L273.5,357.5 L274.4,360.1 L275.2,321.7 L276.1,323.5 L276.9,328.4 L277.8,337.1 L278.6,360.7 L279.4,349.3 L280.3,350.8 L281.1,354.9 L282.0,354.3 L282.8,354.9 L283.6,353.4 L284.5,363.6 L285.3,375.5 L286.2,374.6 L287.0,370.6 L287.9,360.1 L288.7,355.7 L289.5,335.1 L290.4,330.7 L291.2,329.6 L292.1,328.1 L292.9,321.4 L293.7,343.0 L294.6,329.0 L295.4,334.2 L296.3,327.5 L297.1,358.1 L298.0,339.8 L298.8,353.1 L299.6,356.0 L300.5,374.9 L301.3,370.0 L302.2,370.6 L303.0,378.4 L303.8,383.4 L304.7,388.6 L305.5,382.8 L306.4,392.4 L307.2,396.2 L308.1,402.6 L308.9,404.6 L309.7,386.6 L310.6,384.8 L311.4,379.0 L312.3,375.2 L313.1,368.2 L313.9,375.2 L314.8,383.7 L315.6,368.2 L316.5,362.4 L317.3,378.7 L318.1,387.1 L319.0,392.7 L319.8,390.3 L320.7,395.6 L321.5,404.9 L322.4,407.5 L323.2,410.4 L324.0,407.5 L324.9,401.4 L325.7,405.5 L326.6,404.6 L327.4,410.7 L328.2,415.1 L329.1,418.5 L329.9,420.0 L330.8,420.0 L331.6,418.5 L332.5,418.0 L333.3,416.5 L334.1,413.9 L335.0,413.3 L335.8,409.8 L336.7,399.6 L337.5,380.7 L338.3,383.4 L339.2,386.9 L340.0,396.4 L340.9,398.5 L341.7,406.0 L342.6,406.9 L343.4,416.5 L344.2,417.1 L345.1,416.2 L345.9,406.0 L346.8,397.6 L347.6,396.4 L348.4,400.8 L349.3,393.0 L350.1,376.4 L351.0,357.2 L351.8,350.8 L352.7,341.8 L353.5,346.2 L354.3,344.1 L355.2,350.8 L356.0,347.9 L356.9,351.1 L357.7,365.0 L358.5,372.3 L359.4,382.8 L360.2,392.4 L361.1,408.4 L361.9,418.0 L362.7,417.7 L363.6,419.4 L364.4,419.4 L365.3,418.8 L366.1,416.2 L367.0,415.3 L367.8,415.3 L368.6,412.7 L369.5,411.6 L370.3,393.5 L371.2,383.7 L372.0,393.3 L372.8,390.9 L373.7,388.3 L374.5,390.3 L375.4,399.6 L376.2,406.0 L377.1,408.1 L377.9,408.1 L378.7,402.6 L379.6,370.6 L380.4,389.5 L381.3,394.1 L382.1,379.9 L382.9,371.4 L383.8,370.6 L384.6,375.5 L385.5,372.9 L386.3,361.9 L387.2,367.7 L388.0,381.3 L388.8,397.3 L389.7,387.4 L390.5,390.1 L391.4,392.7 L392.2,409.0 L393.0,415.9 L393.9,414.2 L394.7,395.3 L395.6,386.6 L396.4,390.6 L397.3,395.6 L398.1,367.7 L398.9,379.0 L399.8,372.0 L400.6,349.6 L401.5,356.0 L402.3,370.6 L403.1,358.9 L404.0,395.0 L404.8,402.6 L405.7,379.9 L406.5,378.1 L407.3,375.5 L408.2,366.8 L409.0,410.1 L409.9,406.3 L410.7,404.0 L411.6,408.1 L412.4,393.3 L413.2,389.5 L414.1,366.5 L414.9,356.3 L415.8,357.5 L416.6,328.4 L417.4,331.9 L418.3,334.5 L419.1,316.2 L420.0,311.8 L420.8,322.6 L421.7,322.0 L422.5,315.6 L423.3,313.3 L424.2,314.2 L425.0,336.6 L425.9,363.0 L426.7,358.4 L427.5,369.1 L428.4,370.6 L429.2,367.1 L430.1,363.6 L430.9,362.4 L431.8,370.9 L432.6,383.9 L433.4,395.3 L434.3,406.3 L435.1,401.1 L436.0,405.8 L436.8,407.8 L437.6,392.1 L438.5,393.3 L439.3,380.7 L440.2,381.9 L441.0,393.8 L441.9,405.2 L442.7,402.8 L443.5,396.4 L444.4,402.8 L445.2,418.0 L446.1,415.6 L446.9,398.8 L447.7,385.1 L448.6,368.5 L449.4,365.9 L450.3,351.4 L451.1,338.3 L451.9,349.6 L452.8,356.0 L453.6,354.0 L454.5,362.4 L455.3,366.2 L456.2,369.1 L457.0,355.5 L457.8,315.6 L458.7,350.2 L459.5,354.3 L460.4,329.6 L461.2,326.7 L462.0,325.2 L462.9,316.5 L463.7,315.6 L464.6,321.1 L465.4,317.7 L466.3,315.6 L467.1,316.2 L467.9,318.5 L468.8,323.8 L469.6,326.7 L470.5,325.5 L471.3,356.3 L472.1,323.2 L473.0,311.6 L473.8,332.5 L474.7,330.5 L475.5,316.5 L476.4,321.7 L477.2,324.6 L478.0,333.4 L478.9,327.3 L479.7,317.9 L480.6,317.9 L481.4,322.0 L482.2,319.7 L483.1,320.0 L483.9,318.2 L484.8,329.6 L485.6,329.9 L486.5,331.3 L487.3,336.0 L488.1,335.4 L489.0,342.4 L489.8,335.1 L490.7,333.6 L491.5,334.2 L492.3,333.4 L493.2,327.3 L494.0,321.4 L494.9,322.6 L495.7,342.7 L496.5,317.9 L497.4,318.2 L498.2,320.3 L499.1,336.6 L499.9,371.7 L500.8,377.8 L501.6,385.1 L502.4,393.8 L503.3,404.0 L504.1,413.0 L505.0,412.4 L505.8,409.0 L506.6,409.0 L507.5,408.1 L508.3,411.3 L509.2,415.3 L510.0,413.0 L510.9,407.2 L511.7,398.2 L512.5,383.7 L513.4,365.9 L514.2,357.5 L515.1,376.4 L515.9,377.8 L516.7,343.5 L517.6,358.1 L518.4,358.1 L519.3,365.3 L520.1,353.1 L521.0,358.9 L521.8,358.1 L522.6,355.2 L523.5,372.6 L524.3,380.2 L525.2,392.4 L526.0,395.0 L526.8,383.4 L527.7,363.3 L528.5,373.2 L529.4,379.6 L530.2,387.7 L531.1,393.5 L531.9,393.3 L532.7,392.7 L533.6,397.6 L534.4,398.2 L535.3,383.7 L536.1,376.4 L536.9,381.3 L537.8,383.1 L538.6,393.3 L539.5,398.5 L540.3,406.9 L541.2,405.8 L542.0,412.7 L542.8,413.3 L543.7,416.2 L544.5,419.1 L545.4,419.7 L546.2,419.7 L547.0,419.1 L547.9,419.7 L548.7,420.0 L549.6,420.0 L550.4,420.0 L551.2,420.0 L552.1,420.0 L552.9,420.0 L553.8,420.0 L554.6,420.0 L555.5,420.0 L556.3,420.0 L557.1,420.0 L558.0,420.0 L558.8,419.4 L559.7,419.1 L560.5,409.2 L561.3,413.3 L562.2,415.1 L563.0,418.5 L563.9,416.8 L564.7,414.8 L565.6,406.0 L566.4,391.5 L567.2,385.4 L568.1,384.2 L568.9,392.7 L569.8,402.8 L570.6,406.6 L571.4,410.1 L572.3,408.4 L573.1,401.4 L574.0,396.7 L574.8,388.3 L575.7,393.3 L576.5,392.1 L577.3,386.0 L578.2,379.3 L579.0,389.5 L579.9,407.2 L580.7,416.8 L581.5,415.1 L582.4,409.8 L583.2,402.6 L584.1,406.6 L584.9,402.0 L585.8,387.1 L586.6,359.8 L587.4,334.8 L588.3,341.5 L589.1,349.1 L590.0,329.0 L590.8,311.0 L591.6,305.4 L592.5,305.7 L593.3,305.7 L594.2,307.5 L595.0,310.1 L595.8,310.4 L596.7,315.6 L597.5,312.4 L598.4,310.4 L599.2,316.5 L600.1,321.1 L600.9,327.5 L601.7,345.9 L602.6,348.5 L603.4,336.0 L604.3,342.4 L605.1,354.0 L605.9,352.8 L606.8,356.0 L607.6,344.4 L608.5,349.6 L609.3,365.6 L610.2,368.5 L611.0,368.8 L611.8,363.3 L612.7,374.6 L613.5,366.2 L614.4,359.8 L615.2,355.2 L616.0,347.6 L616.9,347.0 L617.7,342.1 L618.6,355.2 L619.4,371.2 L620.3,380.7 L621.1,386.0 L621.9,400.8 L622.8,415.9 L623.6,417.4 L624.5,414.2 L625.3,415.9 L626.1,409.0 L627.0,415.9 L627.8,420.0 L628.7,415.6 L629.5,396.4 L630.4,418.8 L631.2,416.2 L632.0,415.9 L632.9,412.4 L633.7,406.3 L634.6,380.5 L635.4,381.9 L636.2,370.3 L637.1,363.9 L637.9,357.2 L638.8,347.0 L639.6,343.5 L640.4,379.0 L641.3,389.8 L642.1,403.7 L643.0,406.6 L643.8,408.7 L644.7,413.3 L645.5,415.1 L646.3,415.3 L647.2,416.8 L648.0,413.9 L648.9,413.0 L649.7,413.6 L650.5,416.2 L651.4,414.5 L652.2,413.0 L653.1,409.0 L653.9,406.0 L654.8,400.2 L655.6,396.7 L656.4,388.9 L657.3,386.3 L658.1,365.0 L659.0,367.7 L659.8,353.1 L660.6,347.3 L661.5,354.0 L662.3,350.8 L663.2,348.2 L664.0,358.9 L664.9,381.0 L665.7,399.1 L666.5,397.6 L667.4,412.7 L668.2,416.2 L669.1,417.4 L669.9,420.0 L670.7,420.0 L671.6,419.4 L672.4,420.0 L673.3,419.1 L674.1,418.5 L675.0,413.0 L675.8,415.1 L676.6,412.1 L677.5,413.0 L678.3,413.9 L679.2,413.0 L680.0,387.7" stroke="#1f77b4" stroke-width="2" fill="none" opacity="0.8"/>
<!-- Hydro Generation -->
<path d="M80.0,330.2 L80.8,330.5 L81.7,331.3 L82.5,331.3 L83.4,331.9 L84.2,331.9 L85.0,331.9 L85.9,331.9 L86.7,331.9 L87.6,330.2 L88.4,330.5 L89.3,330.7 L90.1,330.5 L90.9,330.5 L91.8,330.2 L92.6,330.2 L93.5,329.6 L94.3,329.9 L95.1,329.0 L96.0,329.6 L96.8,329.6 L97.7,330.7 L98.5,330.7 L99.4,330.5 L100.2,330.5 L101.0,331.3 L101.9,331.6 L102.7,331.6 L103.6,332.5 L104.4,333.1 L105.2,332.8 L106.1,332.5 L106.9,332.5 L107.8,332.2 L108.6,331.9 L109.5,332.5 L110.3,333.1 L111.1,333.6 L112.0,333.1 L112.8,332.8 L113.7,332.8 L114.5,333.4 L115.3,333.1 L116.2,332.8 L117.0,332.8 L117.9,332.8 L118.7,332.8 L119.6,332.8 L120.4,332.8 L121.2,332.8 L122.1,332.5 L122.9,332.8 L123.8,332.8 L124.6,333.1 L125.4,332.5 L126.3,332.8 L127.1,333.1 L128.0,333.1 L128.8,333.4 L129.6,333.1 L130.5,334.2 L131.3,334.5 L132.2,334.2 L133.0,335.1 L133.9,335.1 L134.7,334.2 L135.5,333.9 L136.4,334.2 L137.2,334.5 L138.1,334.2 L138.9,334.2 L139.7,334.5 L140.6,336.0 L141.4,335.7 L142.3,337.1 L143.1,336.8 L144.0,336.8 L144.8,337.1 L145.6,337.7 L146.5,336.8 L147.3,337.1 L148.2,336.8 L149.0,338.0 L149.8,336.8 L150.7,337.1 L151.5,337.1 L152.4,336.6 L153.2,336.6 L154.1,336.3 L154.9,336.0 L155.7,336.0 L156.6,335.1 L157.4,335.7 L158.3,335.4 L159.1,335.1 L159.9,335.1 L160.8,334.5 L161.6,334.5 L162.5,334.8 L163.3,334.5 L164.2,334.5 L165.0,334.8 L165.8,335.4 L166.7,335.7 L167.5,336.0 L168.4,336.0 L169.2,334.5 L170.0,334.8 L170.9,334.5 L171.7,334.5 L172.6,334.5 L173.4,317.4 L174.2,333.1 L175.1,333.4 L175.9,334.2 L176.8,334.2 L177.6,335.4 L178.5,335.4 L179.3,335.1 L180.1,335.1 L181.0,335.1 L181.8,335.1 L182.7,337.1 L183.5,337.1 L184.3,337.1 L185.2,337.1 L186.0,337.4 L186.9,338.9 L187.7,338.9 L188.6,340.0 L189.4,337.1 L190.2,334.8 L191.1,334.5 L191.9,334.5 L192.8,334.2 L193.6,334.8 L194.4,333.9 L195.3,333.9 L196.1,333.6 L197.0,333.6 L197.8,333.4 L198.7,333.1 L199.5,333.1 L200.3,333.1 L201.2,332.8 L202.0,333.1 L202.9,332.5 L203.7,331.9 L204.5,331.9 L205.4,331.0 L206.2,331.3 L207.1,331.6 L207.9,330.5 L208.8,330.5 L209.6,330.5 L210.4,327.5 L211.3,327.5 L212.1,327.5 L213.0,325.5 L213.8,322.6 L214.6,322.6 L215.5,322.6 L216.3,322.6 L217.2,322.0 L218.0,322.0 L218.8,322.0 L219.7,322.0 L220.5,322.0 L221.4,322.0 L222.2,322.0 L223.1,321.4 L223.9,321.7 L224.7,320.9 L225.6,320.6 L226.4,320.3 L227.3,320.0 L228.1,318.8 L228.9,318.8 L229.8,318.8 L230.6,318.5 L231.5,317.9 L232.3,318.5 L233.2,319.1 L234.0,317.1 L234.8,317.7 L235.7,315.9 L236.5,315.3 L237.4,315.3 L238.2,314.5 L239.0,314.8 L239.9,314.8 L240.7,314.5 L241.6,314.5 L242.4,314.5 L243.3,313.6 L244.1,313.0 L244.9,313.3 L245.8,313.3 L246.6,313.3 L247.5,312.1 L248.3,313.3 L249.1,314.2 L250.0,314.2 L250.8,314.5 L251.7,314.8 L252.5,314.5 L253.4,315.0 L254.2,313.9 L255.0,313.9 L255.9,312.7 L256.7,310.1 L257.6,308.6 L258.4,306.3 L259.2,323.8 L260.1,306.0 L260.9,304.6 L261.8,304.9 L262.6,323.5 L263.5,323.5 L264.3,323.5 L265.1,322.9 L266.0,322.6 L266.8,322.3 L267.7,322.0 L268.5,322.0 L269.3,322.0 L270.2,322.3 L271.0,303.1 L271.9,304.6 L272.7,304.6 L273.5,304.9 L274.4,304.6 L275.2,304.9 L276.1,306.0 L276.9,306.3 L277.8,306.0 L278.6,306.0 L279.4,306.0 L280.3,306.6 L281.1,306.3 L282.0,306.6 L282.8,306.3 L283.6,306.0 L284.5,306.3 L285.3,306.6 L286.2,306.3 L287.0,306.6 L287.9,306.6 L288.7,306.9 L289.5,306.6 L290.4,306.6 L291.2,306.6 L292.1,306.6 L292.9,306.6 L293.7,306.0 L294.6,305.7 L295.4,305.7 L296.3,305.2 L297.1,304.9 L298.0,305.2 L298.8,305.2 L299.6,305.2 L300.5,305.4 L301.3,305.4 L302.2,305.4 L303.0,305.4 L303.8,305.4 L304.7,305.7 L305.5,305.7 L306.4,305.7 L307.2,305.4 L308.1,304.6 L308.9,304.3 L309.7,304.3 L310.6,304.0 L311.4,304.9 L312.3,305.2 L313.1,306.0 L313.9,306.9 L314.8,306.9 L315.6,306.9 L316.5,307.5 L317.3,307.2 L318.1,306.9 L319.0,306.0 L319.8,306.0 L320.7,306.0 L321.5,306.0 L322.4,306.0 L323.2,306.3 L324.0,306.6 L324.9,306.3 L325.7,306.6 L326.6,306.9 L327.4,306.3 L328.2,306.3 L329.1,306.9 L329.9,307.8 L330.8,306.9 L331.6,307.8 L332.5,307.8 L333.3,307.8 L334.1,307.8 L335.0,307.5 L335.8,308.1 L336.7,308.1 L337.5,308.1 L338.3,307.8 L339.2,308.1 L340.0,307.8 L340.9,307.5 L341.7,307.5 L342.6,307.5 L343.4,307.8 L344.2,307.8 L345.1,308.1 L345.9,308.4 L346.8,308.1 L347.6,308.4 L348.4,307.8 L349.3,308.1 L350.1,308.1 L351.0,307.2 L351.8,308.1 L352.7,308.1 L353.5,308.4 L354.3,309.2 L355.2,309.2 L356.0,309.5 L356.9,309.5 L357.7,309.2 L358.5,309.2 L359.4,309.5 L360.2,309.8 L361.1,310.1 L361.9,310.1 L362.7,309.8 L363.6,310.1 L364.4,309.8 L365.3,309.8 L366.1,310.1 L367.0,310.1 L367.8,308.6 L368.6,308.6 L369.5,308.4 L370.3,308.6 L371.2,308.6 L372.0,311.3 L372.8,309.5 L373.7,308.6 L374.5,308.4 L375.4,308.6 L376.2,308.4 L377.1,308.4 L377.9,308.6 L378.7,308.9 L379.6,308.9 L380.4,309.2 L381.3,308.9 L382.1,308.9 L382.9,309.2 L383.8,309.2 L384.6,309.5 L385.5,309.8 L386.3,310.1 L387.2,309.8 L388.0,310.1 L388.8,309.8 L389.7,310.7 L390.5,310.7 L391.4,310.7 L392.2,310.7 L393.0,310.7 L393.9,310.7 L394.7,311.0 L395.6,311.0 L396.4,311.0 L397.3,310.7 L398.1,311.0 L398.9,310.7 L399.8,310.4 L400.6,311.6 L401.5,311.8 L402.3,312.4 L403.1,312.1 L404.0,312.4 L404.8,313.0 L405.7,313.0 L406.5,312.7 L407.3,313.0 L408.2,313.0 L409.0,312.4 L409.9,313.3 L410.7,313.3 L411.6,313.0 L412.4,313.0 L413.2,313.3 L414.1,313.6 L414.9,313.3 L415.8,313.0 L416.6,313.0 L417.4,313.0 L418.3,313.0 L419.1,312.4 L420.0,313.0 L420.8,313.0 L421.7,313.0 L422.5,313.0 L423.3,313.0 L424.2,312.4 L425.0,312.4 L425.9,312.4 L426.7,313.3 L427.5,313.3 L428.4,314.8 L429.2,314.5 L430.1,313.6 L430.9,313.3 L431.8,313.6 L432.6,313.3 L433.4,313.3 L434.3,313.0 L435.1,312.7 L436.0,313.9 L436.8,313.3 L437.6,313.9 L438.5,313.6 L439.3,313.9 L440.2,313.9 L441.0,314.2 L441.9,314.5 L442.7,315.3 L443.5,315.3 L444.4,315.3 L445.2,315.3 L446.1,315.0 L446.9,315.0 L447.7,314.8 L448.6,315.6 L449.4,315.3 L450.3,318.2 L451.1,318.5 L451.9,317.4 L452.8,318.2 L453.6,317.7 L454.5,317.7 L455.3,318.2 L456.2,317.4 L457.0,317.4 L457.8,317.1 L458.7,316.2 L459.5,316.8 L460.4,316.8 L461.2,317.7 L462.0,317.4 L462.9,320.0 L463.7,321.1 L464.6,321.7 L465.4,322.0 L466.3,321.7 L467.1,322.0 L467.9,321.7 L468.8,322.0 L469.6,322.3 L470.5,322.0 L471.3,322.3 L472.1,322.6 L473.0,322.3 L473.8,322.9 L474.7,322.3 L475.5,322.0 L476.4,322.9 L477.2,322.9 L478.0,322.9 L478.9,323.2 L479.7,323.2 L480.6,322.9 L481.4,322.9 L482.2,322.9 L483.1,323.8 L483.9,325.2 L484.8,327.0 L485.6,327.0 L486.5,327.0 L487.3,327.3 L488.1,327.3 L489.0,328.7 L489.8,328.7 L490.7,328.4 L491.5,327.5 L492.3,327.5 L493.2,327.3 L494.0,327.5 L494.9,326.4 L495.7,324.9 L496.5,324.9 L497.4,323.2 L498.2,322.6 L499.1,322.3 L499.9,322.3 L500.8,322.6 L501.6,322.3 L502.4,322.3 L503.3,322.0 L504.1,322.3 L505.0,322.6 L505.8,322.9 L506.6,322.6 L507.5,322.6 L508.3,322.6 L509.2,323.8 L510.0,323.8 L510.9,323.5 L511.7,324.3 L512.5,324.6 L513.4,324.6 L514.2,324.3 L515.1,324.3 L515.9,324.3 L516.7,324.6 L517.6,324.3 L518.4,324.3 L519.3,324.6 L520.1,325.2 L521.0,325.2 L521.8,324.9 L522.6,324.9 L523.5,325.5 L524.3,325.2 L525.2,324.3 L526.0,324.6 L526.8,324.1 L527.7,324.1 L528.5,324.3 L529.4,324.3 L530.2,324.1 L531.1,325.5 L531.9,326.1 L532.7,326.7 L533.6,326.1 L534.4,326.4 L535.3,326.7 L536.1,327.0 L536.9,326.1 L537.8,326.4 L538.6,326.1 L539.5,326.7 L540.3,325.8 L541.2,325.2 L542.0,324.9 L542.8,325.5 L543.7,325.2 L544.5,325.5 L545.4,326.1 L546.2,325.8 L547.0,327.0 L547.9,326.7 L548.7,327.0 L549.6,327.8 L550.4,327.5 L551.2,328.4 L552.1,328.4 L552.9,328.4 L553.8,328.4 L554.6,328.4 L555.5,328.1 L556.3,328.4 L557.1,328.7 L558.0,328.1 L558.8,328.7 L559.7,328.7 L560.5,327.8 L561.3,327.8 L562.2,327.5 L563.0,327.8 L563.9,328.4 L564.7,328.4 L565.6,328.4 L566.4,328.4 L567.2,328.4 L568.1,329.6 L568.9,329.6 L569.8,329.6 L570.6,329.3 L571.4,328.7 L572.3,330.2 L573.1,330.2 L574.0,330.2 L574.8,329.6 L575.7,329.9 L576.5,330.2 L577.3,329.9 L578.2,329.9 L579.0,329.0 L579.9,329.3 L580.7,329.3 L581.5,329.6 L582.4,329.3 L583.2,329.0 L584.1,329.0 L584.9,328.7 L585.8,330.2 L586.6,329.9 L587.4,329.6 L588.3,329.9 L589.1,330.7 L590.0,330.7 L590.8,330.5 L591.6,330.5 L592.5,330.2 L593.3,330.2 L594.2,330.2 L595.0,330.5 L595.8,330.5 L596.7,330.5 L597.5,330.2 L598.4,331.6 L599.2,336.8 L600.1,341.8 L600.9,342.4 L601.7,334.5 L602.6,335.1 L603.4,335.7 L604.3,335.7 L605.1,335.4 L605.9,334.5 L606.8,334.5 L607.6,333.4 L608.5,332.2 L609.3,331.9 L610.2,332.5 L611.0,331.6 L611.8,332.5 L612.7,332.2 L613.5,331.9 L614.4,331.6 L615.2,331.6 L616.0,331.9 L616.9,331.9 L617.7,331.9 L618.6,331.9 L619.4,332.2 L620.3,332.5 L621.1,332.5 L621.9,332.5 L622.8,332.2 L623.6,332.2 L624.5,331.9 L625.3,332.2 L626.1,331.3 L627.0,331.6 L627.8,331.6 L628.7,330.5 L629.5,331.0 L630.4,331.0 L631.2,331.3 L632.0,332.2 L632.9,331.9 L633.7,331.6 L634.6,331.9 L635.4,330.5 L636.2,330.2 L637.1,330.5 L637.9,329.9 L638.8,329.3 L639.6,329.0 L640.4,329.0 L641.3,329.3 L642.1,329.3 L643.0,329.9 L643.8,330.5 L644.7,330.5 L645.5,330.7 L646.3,330.5 L647.2,331.3 L648.0,331.3 L648.9,331.3 L649.7,331.3 L650.5,332.8 L651.4,332.5 L652.2,332.2 L653.1,332.5 L653.9,332.5 L654.8,333.9 L655.6,333.6 L656.4,333.4 L657.3,333.4 L658.1,333.1 L659.0,333.1 L659.8,332.5 L660.6,332.5 L661.5,332.8 L662.3,332.5 L663.2,331.9 L664.0,331.9 L664.9,331.9 L665.7,332.2 L666.5,332.2 L667.4,332.8 L668.2,333.1 L669.1,332.8 L669.9,333.1 L670.7,333.4 L671.6,333.1 L672.4,333.9 L673.3,333.9 L674.1,333.9 L675.0,333.9 L675.8,333.6 L676.6,333.9 L677.5,333.6 L678.3,333.9 L679.2,333.9 L680.0,333.9" stroke="#ff7f0e" stroke-width="2" fill="none" opacity="0.8"/>
<!-- Thermal Generation -->
<path d="M80.0,330.2 L80.8,331.3 L81.7,330.7 L82.5,328.1 L83.4,324.9 L84.2,324.9 L85.0,340.9 L85.9,375.5 L86.7,374.6 L87.6,371.7 L88.4,374.1 L89.3,374.4 L90.1,374.4 L90.9,374.1 L91.8,374.4 L92.6,374.4 L93.5,351.4 L94.3,336.8 L95.1,293.2 L96.0,290.0 L96.8,292.7 L97.7,295.0 L98.5,304.0 L99.4,302.2 L100.2,317.4 L101.0,304.3 L101.9,313.3 L102.7,316.5 L103.6,313.3 L104.4,313.0 L105.2,337.7 L106.1,374.9 L106.9,374.4 L107.8,374.4 L108.6,374.9 L109.5,373.2 L110.3,374.4 L111.1,374.4 L112.0,371.2 L112.8,374.9 L113.7,374.9 L114.5,374.9 L115.3,373.2 L116.2,372.3 L117.0,374.9 L117.9,374.9 L118.7,376.7 L119.6,379.0 L120.4,379.3 L121.2,379.0 L122.1,379.0 L122.9,379.3 L123.8,379.3 L124.6,379.0 L125.4,379.0 L126.3,379.3 L127.1,379.3 L128.0,379.0 L128.8,379.3 L129.6,379.6 L130.5,379.9 L131.3,380.5 L132.2,380.2 L133.0,380.2 L133.9,380.2 L134.7,380.5 L135.5,379.9 L136.4,341.2 L137.2,342.1 L138.1,340.9 L138.9,340.9 L139.7,341.2 L140.6,362.1 L141.4,361.9 L142.3,361.3 L143.1,361.3 L144.0,336.0 L144.8,336.8 L145.6,336.6 L146.5,337.1 L147.3,336.8 L148.2,337.1 L149.0,337.1 L149.8,337.4 L150.7,338.3 L151.5,303.4 L152.4,314.2 L153.2,298.2 L154.1,297.9 L154.9,319.1 L155.7,329.6 L156.6,321.7 L157.4,336.3 L158.3,336.8 L159.1,337.4 L159.9,337.7 L160.8,334.5 L161.6,334.5 L162.5,334.8 L163.3,334.5 L164.2,333.4 L165.0,334.2 L165.8,329.0 L166.7,328.4 L167.5,328.4 L168.4,320.0 L169.2,329.3 L170.0,329.0 L170.9,319.7 L171.7,317.7 L172.6,317.9 L173.4,364.5 L174.2,352.8 L175.1,335.7 L175.9,331.6 L176.8,317.9 L177.6,298.2 L178.5,302.2 L179.3,298.2 L180.1,300.5 L181.0,332.5 L181.8,335.1 L182.7,344.4 L183.5,315.0 L184.3,293.2 L185.2,315.0 L186.0,333.4 L186.9,341.2 L187.7,328.4 L188.6,329.3 L189.4,339.2 L190.2,341.2 L191.1,335.4 L191.9,335.4 L192.8,335.4 L193.6,322.6 L194.4,305.7 L195.3,311.6 L196.1,310.4 L197.0,298.5 L197.8,302.8 L198.7,290.0 L199.5,295.9 L200.3,298.5 L201.2,293.8 L202.0,320.6 L202.9,328.1 L203.7,333.6 L204.5,333.4 L205.4,305.2 L206.2,327.0 L207.1,330.2 L207.9,329.6 L208.8,329.3 L209.6,315.6 L210.4,319.1 L211.3,316.2 L212.1,298.8 L213.0,304.0 L213.8,309.2 L214.6,312.7 L215.5,318.8 L216.3,312.4 L217.2,305.2 L218.0,308.6 L218.8,331.6 L219.7,313.3 L220.5,317.4 L221.4,339.2 L222.2,339.2 L223.1,373.2 L223.9,379.0 L224.7,378.4 L225.6,379.6 L226.4,376.7 L227.3,375.8 L228.1,376.4 L228.9,376.1 L229.8,376.1 L230.6,375.8 L231.5,376.1 L232.3,376.7 L233.2,376.7 L234.0,376.1 L234.8,376.4 L235.7,376.7 L236.5,377.0 L237.4,376.4 L238.2,375.2 L239.0,374.9 L239.9,380.2 L240.7,379.9 L241.6,379.6 L242.4,379.3 L243.3,379.3 L244.1,379.6 L244.9,379.0 L245.8,379.6 L246.6,375.2 L247.5,375.5 L248.3,375.8 L249.1,375.5 L250.0,375.5 L250.8,375.2 L251.7,375.2 L252.5,375.2 L253.4,375.2 L254.2,375.5 L255.0,375.8 L255.9,375.2 L256.7,375.5 L257.6,375.5 L258.4,374.9 L259.2,374.9 L260.1,376.7 L260.9,379.3 L261.8,379.3 L262.6,379.6 L263.5,379.6 L264.3,379.6 L265.1,379.9 L266.0,379.9 L266.8,380.2 L267.7,380.5 L268.5,379.6 L269.3,379.9 L270.2,379.6 L271.0,379.9 L271.9,379.6 L272.7,379.9 L273.5,380.2 L274.4,380.2 L275.2,379.6 L276.1,379.6 L276.9,380.2 L277.8,379.6 L278.6,362.1 L279.4,362.1 L280.3,379.3 L281.1,379.6 L282.0,379.6 L282.8,379.6 L283.6,379.3 L284.5,379.9 L285.3,380.5 L286.2,379.3 L287.0,377.0 L287.9,377.0 L288.7,377.0 L289.5,377.0 L290.4,376.4 L291.2,376.1 L292.1,376.7 L292.9,376.1 L293.7,376.7 L294.6,376.7 L295.4,377.0 L296.3,376.7 L297.1,323.5 L298.0,337.7 L298.8,377.0 L299.6,375.8 L300.5,358.7 L301.3,362.1 L302.2,380.5 L303.0,381.0 L303.8,381.0 L304.7,364.5 L305.5,353.1 L306.4,353.1 L307.2,380.2 L308.1,376.1 L308.9,373.5 L309.7,373.8 L310.6,372.6 L311.4,373.5 L312.3,382.2 L313.1,382.2 L313.9,383.1 L314.8,377.0 L315.6,371.4 L316.5,340.0 L317.3,333.4 L318.1,340.3 L319.0,324.1 L319.8,315.0 L320.7,304.6 L321.5,317.7 L322.4,370.6 L323.2,370.9 L324.0,368.5 L324.9,354.0 L325.7,356.6 L326.6,356.6 L327.4,368.0 L328.2,379.9 L329.1,373.8 L329.9,377.0 L330.8,376.7 L331.6,370.6 L332.5,308.6 L333.3,309.8 L334.1,359.2 L335.0,359.2 L335.8,358.9 L336.7,359.5 L337.5,324.1 L338.3,293.5 L339.2,305.7 L340.0,365.3 L340.9,368.0 L341.7,379.9 L342.6,379.3 L343.4,379.6 L344.2,379.9 L345.1,379.6 L345.9,379.9 L346.8,379.6 L347.6,379.6 L348.4,377.8 L349.3,377.0 L350.1,377.3 L351.0,376.7 L351.8,376.7 L352.7,376.7 L353.5,376.1 L354.3,376.7 L355.2,377.0 L356.0,377.0 L356.9,360.7 L357.7,360.1 L358.5,348.8 L359.4,340.3 L360.2,346.2 L361.1,356.6 L361.9,356.3 L362.7,356.3 L363.6,347.3 L364.4,347.3 L365.3,347.6 L366.1,343.0 L367.0,356.0 L367.8,365.9 L368.6,377.0 L369.5,377.6 L370.3,377.6 L371.2,377.0 L372.0,376.7 L372.8,377.0 L373.7,377.3 L374.5,377.3 L375.4,376.1 L376.2,359.5 L377.1,359.5 L377.9,342.1 L378.7,335.7 L379.6,315.6 L380.4,309.8 L381.3,338.6 L382.1,350.5 L382.9,361.6 L383.8,362.1 L384.6,361.6 L385.5,361.6 L386.3,361.3 L387.2,361.6 L388.0,359.5 L388.8,359.5 L389.7,359.5 L390.5,359.8 L391.4,358.9 L392.2,358.7 L393.0,359.8 L393.9,359.2 L394.7,359.5 L395.6,359.8 L396.4,359.2 L397.3,358.9 L398.1,354.3 L398.9,358.1 L399.8,358.1 L400.6,358.4 L401.5,361.0 L402.3,361.0 L403.1,361.9 L404.0,361.6 L404.8,361.3 L405.7,361.0 L406.5,361.3 L407.3,361.9 L408.2,362.1 L409.0,361.9 L409.9,362.4 L410.7,361.9 L411.6,362.1 L412.4,362.1 L413.2,361.6 L414.1,361.3 L414.9,361.9 L415.8,361.6 L416.6,361.3 L417.4,361.3 L418.3,361.3 L419.1,360.7 L420.0,361.3 L420.8,360.7 L421.7,361.0 L422.5,361.9 L423.3,361.6 L424.2,361.6 L425.0,354.9 L425.9,359.2 L426.7,361.9 L427.5,362.4 L428.4,360.1 L429.2,361.0 L430.1,359.8 L430.9,360.4 L431.8,360.1 L432.6,359.8 L433.4,360.1 L434.3,360.1 L435.1,359.5 L436.0,359.2 L436.8,307.8 L437.6,278.1 L438.5,274.3 L439.3,274.3 L440.2,301.1 L441.0,306.6 L441.9,319.4 L442.7,322.9 L443.5,338.6 L444.4,350.5 L445.2,361.9 L446.1,339.5 L446.9,339.2 L447.7,345.9 L448.6,363.9 L449.4,359.2 L450.3,360.1 L451.1,360.7 L451.9,360.1 L452.8,360.1 L453.6,360.1 L454.5,360.1 L455.3,360.4 L456.2,359.8 L457.0,360.1 L457.8,360.4 L458.7,360.7 L459.5,360.4 L460.4,360.4 L461.2,361.0 L462.0,364.2 L462.9,363.6 L463.7,363.9 L464.6,363.9 L465.4,363.6 L466.3,363.6 L467.1,363.6 L467.9,364.2 L468.8,363.9 L469.6,361.0 L470.5,364.5 L471.3,361.6 L472.1,359.2 L473.0,361.6 L473.8,359.2 L474.7,373.5 L475.5,361.0 L476.4,361.6 L477.2,360.7 L478.0,360.1 L478.9,360.4 L479.7,359.8 L480.6,360.1 L481.4,359.8 L482.2,363.9 L483.1,363.9 L483.9,363.9 L484.8,364.2 L485.6,363.9 L486.5,364.5 L487.3,364.2 L488.1,364.2 L489.0,364.8 L489.8,365.9 L490.7,372.0 L491.5,377.0 L492.3,377.6 L493.2,378.4 L494.0,378.1 L494.9,377.8 L495.7,377.8 L496.5,377.8 L497.4,378.1 L498.2,377.8 L499.1,365.6 L499.9,285.1 L500.8,281.3 L501.6,269.7 L502.4,283.9 L503.3,377.3 L504.1,379.3 L505.0,379.3 L505.8,379.3 L506.6,356.0 L507.5,356.0 L508.3,356.0 L509.2,356.3 L510.0,353.1 L510.9,364.8 L511.7,364.8 L512.5,350.5 L513.4,352.8 L514.2,326.1 L515.1,327.0 L515.9,331.0 L516.7,286.8 L517.6,269.4 L518.4,295.3 L519.3,246.4 L520.1,247.6 L521.0,268.8 L521.8,274.6 L522.6,270.8 L523.5,290.3 L524.3,349.1 L525.2,321.1 L526.0,338.9 L526.8,338.6 L527.7,351.1 L528.5,379.6 L529.4,377.8 L530.2,376.4 L531.1,376.7 L531.9,376.4 L532.7,376.1 L533.6,376.4 L534.4,376.4 L535.3,378.1 L536.1,376.1 L536.9,345.9 L537.8,317.7 L538.6,288.3 L539.5,242.9 L540.3,242.9 L541.2,242.9 L542.0,242.6 L542.8,243.5 L543.7,243.2 L544.5,246.1 L545.4,260.4 L546.2,283.4 L547.0,295.0 L547.9,324.3 L548.7,324.1 L549.6,340.3 L550.4,370.6 L551.2,370.6 L552.1,374.1 L552.9,376.4 L553.8,376.7 L554.6,376.7 L555.5,376.4 L556.3,352.3 L557.1,326.1 L558.0,294.4 L558.8,255.1 L559.7,242.9 L560.5,247.6 L561.3,249.9 L562.2,247.0 L563.0,246.4 L563.9,247.3 L564.7,247.9 L565.6,299.1 L566.4,304.9 L567.2,304.6 L568.1,278.7 L568.9,317.7 L569.8,332.8 L570.6,333.1 L571.4,333.9 L572.3,332.8 L573.1,332.8 L574.0,316.8 L574.8,317.4 L575.7,288.0 L576.5,247.9 L577.3,244.4 L578.2,246.1 L579.0,248.2 L579.9,245.3 L580.7,246.4 L581.5,249.6 L582.4,249.0 L583.2,251.4 L584.1,298.5 L584.9,379.6 L585.8,379.0 L586.6,379.0 L587.4,379.6 L588.3,379.3 L589.1,379.3 L590.0,377.3 L590.8,375.5 L591.6,375.8 L592.5,375.5 L593.3,375.2 L594.2,375.8 L595.0,375.8 L595.8,375.5 L596.7,375.5 L597.5,376.1 L598.4,375.8 L599.2,346.4 L600.1,335.4 L600.9,277.2 L601.7,295.0 L602.6,299.9 L603.4,301.1 L604.3,346.2 L605.1,379.3 L605.9,378.7 L606.8,378.7 L607.6,378.7 L608.5,378.7 L609.3,378.7 L610.2,377.0 L611.0,375.5 L611.8,376.1 L612.7,376.1 L613.5,375.8 L614.4,375.8 L615.2,376.1 L616.0,376.1 L616.9,376.1 L617.7,375.8 L618.6,352.5 L619.4,327.0 L620.3,311.6 L621.1,298.5 L621.9,300.2 L622.8,306.3 L623.6,294.4 L624.5,293.2 L625.3,324.3 L626.1,333.1 L627.0,333.1 L627.8,332.8 L628.7,332.2 L629.5,303.4 L630.4,343.2 L631.2,340.9 L632.0,335.1 L632.9,335.1 L633.7,335.1 L634.6,335.4 L635.4,323.5 L636.2,323.2 L637.1,323.5 L637.9,323.8 L638.8,307.8 L639.6,309.8 L640.4,250.2 L641.3,244.4 L642.1,244.1 L643.0,244.4 L643.8,237.7 L644.7,289.2 L645.5,293.5 L646.3,293.2 L647.2,293.5 L648.0,293.5 L648.9,293.5 L649.7,293.5 L650.5,284.2 L651.4,290.6 L652.2,290.3 L653.1,303.1 L653.9,311.6 L654.8,290.9 L655.6,272.9 L656.4,270.3 L657.3,257.5 L658.1,244.4 L659.0,243.2 L659.8,243.2 L660.6,254.3 L661.5,262.7 L662.3,290.3 L663.2,290.0 L664.0,289.5 L664.9,347.3 L665.7,355.7 L666.5,379.0 L667.4,378.7 L668.2,378.7 L669.1,378.7 L669.9,379.0 L670.7,375.5 L671.6,375.5 L672.4,375.5 L673.3,375.8 L674.1,375.8 L675.0,364.5 L675.8,353.1 L676.6,353.1 L677.5,353.1 L678.3,335.4 L679.2,335.1 L680.0,340.9" stroke="#2ca02c" stroke-width="2" fill="none" opacity="0.8"/>
<!-- Solar Generation -->
<path d="M80.0,420.0 L80.8,420.0 L81.7,420.0 L82.5,420.0 L83.4,420.0 L84.2,407.8 L85.0,386.6 L85.9,379.3 L86.7,378.1 L87.6,387.1 L88.4,382.2 L89.3,384.5 L90.1,381.9 L90.9,386.3 L91.8,393.8 L92.6,404.9 L93.5,404.0 L94.3,398.8 L95.1,417.1 L96.0,420.0 L96.8,420.0 L97.7,420.0 L98.5,420.0 L99.4,420.0 L100.2,420.0 L101.0,420.0 L101.9,420.0 L102.7,420.0 L103.6,420.0 L104.4,410.4 L105.2,386.9 L106.1,380.2 L106.9,378.1 L107.8,377.6 L108.6,399.6 L109.5,401.1 L110.3,401.4 L111.1,410.4 L112.0,411.0 L112.8,400.8 L113.7,395.6 L114.5,393.3 L115.3,408.4 L116.2,419.7 L117.0,420.0 L117.9,420.0 L118.7,420.0 L119.6,420.0 L120.4,420.0 L121.2,420.0 L122.1,420.0 L122.9,420.0 L123.8,420.0 L124.6,409.0 L125.4,389.8 L126.3,395.3 L127.1,377.8 L128.0,399.9 L128.8,378.1 L129.6,401.1 L130.5,400.2 L131.3,400.5 L132.2,390.6 L133.0,388.3 L133.9,389.8 L134.7,393.8 L135.5,409.2 L136.4,419.4 L137.2,420.0 L138.1,420.0 L138.9,420.0 L139.7,420.0 L140.6,420.0 L141.4,420.0 L142.3,420.0 L143.1,420.0 L144.0,420.0 L144.8,407.8 L145.6,386.6 L146.5,400.5 L147.3,377.8 L148.2,377.6 L149.0,378.4 L149.8,395.3 L150.7,381.0 L151.5,395.9 L152.4,387.7 L153.2,400.5 L154.1,406.0 L154.9,414.5 L155.7,418.3 L156.6,419.7 L157.4,420.0 L158.3,420.0 L159.1,420.0 L159.9,420.0 L160.8,420.0 L161.6,420.0 L162.5,420.0 L163.3,420.0 L164.2,420.0 L165.0,411.9 L165.8,410.1 L166.7,393.3 L167.5,394.4 L168.4,399.6 L169.2,403.1 L170.0,399.4 L170.9,397.0 L171.7,401.1 L172.6,397.3 L173.4,399.9 L174.2,410.7 L175.1,390.3 L175.9,410.4 L176.8,419.7 L177.6,420.0 L178.5,420.0 L179.3,420.0 L180.1,420.0 L181.0,420.0 L181.8,420.0 L182.7,420.0 L183.5,420.0 L184.3,420.0 L185.2,410.7 L186.0,385.4 L186.9,383.4 L187.7,380.2 L188.6,379.9 L189.4,380.7 L190.2,381.6 L191.1,379.3 L191.9,379.9 L192.8,387.1 L193.6,387.7 L194.4,403.7 L195.3,403.7 L196.1,414.5 L197.0,419.7 L197.8,420.0 L198.7,420.0 L199.5,420.0 L200.3,420.0 L201.2,420.0 L202.0,420.0 L202.9,420.0 L203.7,420.0 L204.5,420.0 L205.4,411.9 L206.2,388.6 L207.1,384.2 L207.9,379.9 L208.8,378.7 L209.6,381.0 L210.4,381.0 L211.3,386.9 L212.1,386.9 L213.0,396.2 L213.8,382.5 L214.6,391.8 L215.5,409.8 L216.3,411.6 L217.2,419.4 L218.0,420.0 L218.8,420.0 L219.7,420.0 L220.5,420.0 L221.4,420.0 L222.2,420.0 L223.1,420.0 L223.9,420.0 L224.7,419.4 L225.6,411.0 L226.4,385.4 L227.3,381.6 L228.1,378.4 L228.9,377.6 L229.8,380.5 L230.6,381.9 L231.5,403.7 L232.3,383.9 L233.2,398.5 L234.0,402.8 L234.8,403.7 L235.7,403.7 L236.5,413.6 L237.4,419.7 L238.2,420.0 L239.0,420.0 L239.9,420.0 L240.7,420.0 L241.6,420.0 L242.4,420.0 L243.3,420.0 L244.1,420.0 L244.9,420.0 L245.8,418.0 L246.6,418.0 L247.5,416.8 L248.3,415.3 L249.1,415.3 L250.0,412.7 L250.8,402.8 L251.7,405.5 L252.5,411.3 L253.4,418.3 L254.2,416.8 L255.0,409.8 L255.9,407.8 L256.7,416.8 L257.6,419.7 L258.4,420.0 L259.2,420.0 L260.1,420.0 L260.9,420.0 L261.8,420.0 L262.6,420.0 L263.5,420.0 L264.3,420.0 L265.1,420.0 L266.0,419.7 L266.8,418.5 L267.7,417.1 L268.5,415.6 L269.3,414.8 L270.2,410.7 L271.0,411.3 L271.9,413.3 L272.7,410.1 L273.5,409.5 L274.4,413.9 L275.2,416.2 L276.1,414.2 L276.9,415.9 L277.8,419.7 L278.6,420.0 L279.4,420.0 L280.3,420.0 L281.1,420.0 L282.0,420.0 L282.8,420.0 L283.6,420.0 L284.5,420.0 L285.3,420.0 L286.2,406.6 L287.0,386.9 L287.9,382.8 L288.7,379.3 L289.5,378.7 L290.4,380.2 L291.2,383.9 L292.1,383.9 L292.9,378.7 L293.7,383.1 L294.6,380.7 L295.4,385.7 L296.3,401.4 L297.1,407.8 L298.0,419.4 L298.8,420.0 L299.6,420.0 L300.5,420.0 L301.3,420.0 L302.2,420.0 L303.0,420.0 L303.8,420.0 L304.7,420.0 L305.5,419.7 L306.4,406.0 L307.2,386.0 L308.1,386.3 L308.9,395.0 L309.7,393.5 L310.6,385.1 L311.4,390.6 L312.3,386.0 L313.1,387.4 L313.9,390.3 L314.8,389.2 L315.6,406.9 L316.5,399.4 L317.3,415.1 L318.1,418.8 L319.0,420.0 L319.8,420.0 L320.7,420.0 L321.5,420.0 L322.4,420.0 L323.2,420.0 L324.0,420.0 L324.9,420.0 L325.7,420.0 L326.6,412.7 L327.4,394.4 L328.2,379.6 L329.1,378.7 L329.9,379.0 L330.8,377.6 L331.6,377.6 L332.5,377.6 L333.3,377.8 L334.1,391.5 L335.0,389.2 L335.8,389.8 L336.7,403.4 L337.5,416.2 L338.3,419.7 L339.2,420.0 L340.0,420.0 L340.9,420.0 L341.7,420.0 L342.6,420.0 L343.4,420.0 L344.2,420.0 L345.1,420.0 L345.9,420.0 L346.8,418.0 L347.6,401.1 L348.4,386.0 L349.3,385.7 L350.1,395.9 L351.0,388.3 L351.8,385.4 L352.7,380.5 L353.5,383.9 L354.3,384.2 L355.2,388.9 L356.0,387.1 L356.9,389.8 L357.7,405.8 L358.5,418.8 L359.4,420.0 L360.2,420.0 L361.1,420.0 L361.9,420.0 L362.7,420.0 L363.6,420.0 L364.4,420.0 L365.3,420.0 L366.1,419.7 L367.0,408.4 L367.8,383.9 L368.6,379.3 L369.5,378.1 L370.3,378.4 L371.2,380.2 L372.0,379.9 L372.8,377.3 L373.7,377.6 L374.5,385.4 L375.4,382.2 L376.2,383.4 L377.1,391.8 L377.9,405.8 L378.7,419.1 L379.6,420.0 L380.4,420.0 L381.3,420.0 L382.1,420.0 L382.9,420.0 L383.8,420.0 L384.6,420.0 L385.5,420.0 L386.3,419.7 L387.2,408.1 L388.0,413.0 L388.8,408.7 L389.7,404.6 L390.5,401.1 L391.4,393.5 L392.2,383.4 L393.0,386.6 L393.9,406.0 L394.7,392.4 L395.6,404.6 L396.4,414.5 L397.3,405.5 L398.1,418.5 L398.9,419.1 L399.8,420.0 L400.6,420.0 L401.5,420.0 L402.3,420.0 L403.1,420.0 L404.0,420.0 L404.8,420.0 L405.7,420.0 L406.5,420.0 L407.3,418.8 L408.2,415.9 L409.0,413.9 L409.9,413.9 L410.7,406.9 L411.6,406.0 L412.4,401.4 L413.2,404.0 L414.1,406.6 L414.9,415.3 L415.8,415.1 L416.6,413.3 L417.4,392.4 L418.3,397.9 L419.1,418.3 L420.0,420.0 L420.8,420.0 L421.7,420.0 L422.5,420.0 L423.3,420.0 L424.2,420.0 L425.0,420.0 L425.9,420.0 L426.7,419.7 L427.5,416.2 L428.4,393.0 L429.2,389.2 L430.1,379.6 L430.9,377.6 L431.8,377.3 L432.6,377.3 L433.4,377.3 L434.3,388.0 L435.1,388.9 L436.0,390.6 L436.8,397.0 L437.6,409.0 L438.5,412.1 L439.3,419.4 L440.2,420.0 L441.0,420.0 L441.9,420.0 L442.7,420.0 L443.5,420.0 L444.4,420.0 L445.2,420.0 L446.1,420.0 L446.9,420.0 L447.7,417.1 L448.6,411.0 L449.4,410.4 L450.3,408.1 L451.1,403.4 L451.9,408.1 L452.8,410.1 L453.6,401.4 L454.5,404.0 L455.3,415.1 L456.2,410.7 L457.0,415.3 L457.8,397.9 L458.7,411.0 L459.5,418.3 L460.4,420.0 L461.2,420.0 L462.0,420.0 L462.9,420.0 L463.7,420.0 L464.6,420.0 L465.4,420.0 L466.3,420.0 L467.1,419.4 L467.9,405.2 L468.8,398.8 L469.6,401.7 L470.5,400.5 L471.3,400.5 L472.1,400.8 L473.0,405.8 L473.8,405.2 L474.7,402.0 L475.5,393.3 L476.4,385.4 L477.2,395.0 L478.0,402.8 L478.9,413.6 L479.7,418.3 L480.6,420.0 L481.4,420.0 L482.2,420.0 L483.1,420.0 L483.9,420.0 L484.8,420.0 L485.6,420.0 L486.5,420.0 L487.3,420.0 L488.1,411.9 L489.0,415.3 L489.8,402.0 L490.7,382.5 L491.5,378.1 L492.3,377.6 L493.2,378.7 L494.0,382.8 L494.9,380.2 L495.7,379.3 L496.5,378.1 L497.4,378.4 L498.2,379.9 L499.1,399.1 L499.9,418.3 L500.8,420.0 L501.6,420.0 L502.4,420.0 L503.3,420.0 L504.1,420.0 L505.0,420.0 L505.8,420.0 L506.6,420.0 L507.5,419.7 L508.3,404.6 L509.2,383.1 L510.0,378.7 L510.9,378.1 L511.7,377.6 L512.5,378.1 L513.4,378.1 L514.2,382.5 L515.1,392.1 L515.9,393.8 L516.7,398.2 L517.6,393.8 L518.4,395.9 L519.3,405.5 L520.1,419.4 L521.0,420.0 L521.8,420.0 L522.6,420.0 L523.5,420.0 L524.3,420.0 L525.2,420.0 L526.0,420.0 L526.8,420.0 L527.7,420.0 L528.5,416.8 L529.4,416.2 L530.2,409.8 L531.1,396.7 L531.9,390.1 L532.7,391.8 L533.6,386.6 L534.4,380.5 L535.3,380.7 L536.1,382.5 L536.9,398.8 L537.8,396.4 L538.6,398.8 L539.5,406.6 L540.3,419.1 L541.2,420.0 L542.0,420.0 L542.8,420.0 L543.7,420.0 L544.5,420.0 L545.4,420.0 L546.2,420.0 L547.0,420.0 L547.9,419.7 L548.7,404.6 L549.6,382.8 L550.4,378.1 L551.2,377.8 L552.1,380.7 L552.9,377.6 L553.8,399.4 L554.6,377.3 L555.5,379.0 L556.3,380.2 L557.1,377.8 L558.0,381.3 L558.8,396.4 L559.7,399.4 L560.5,418.0 L561.3,420.0 L562.2,420.0 L563.0,420.0 L563.9,420.0 L564.7,420.0 L565.6,420.0 L566.4,420.0 L567.2,420.0 L568.1,419.7 L568.9,404.3 L569.8,383.7 L570.6,379.9 L571.4,378.1 L572.3,378.1 L573.1,387.4 L574.0,383.1 L574.8,383.7 L575.7,378.1 L576.5,390.6 L577.3,401.4 L578.2,382.8 L579.0,398.8 L579.9,403.7 L580.7,419.1 L581.5,420.0 L582.4,420.0 L583.2,420.0 L584.1,420.0 L584.9,420.0 L585.8,420.0 L586.6,420.0 L587.4,420.0 L588.3,420.0 L589.1,415.9 L590.0,386.6 L590.8,381.9 L591.6,379.3 L592.5,391.2 L593.3,381.6 L594.2,377.6 L595.0,377.8 L595.8,383.7 L596.7,378.7 L597.5,380.2 L598.4,390.9 L599.2,390.1 L600.1,404.3 L600.9,418.0 L601.7,420.0 L602.6,420.0 L603.4,420.0 L604.3,420.0 L605.1,420.0 L605.9,420.0 L606.8,420.0 L607.6,420.0 L608.5,420.0 L609.3,408.4 L610.2,387.1 L611.0,382.8 L611.8,379.9 L612.7,379.9 L613.5,379.6 L614.4,385.4 L615.2,397.6 L616.0,385.1 L616.9,388.6 L617.7,391.2 L618.6,392.4 L619.4,398.2 L620.3,404.9 L621.1,418.3 L621.9,420.0 L622.8,420.0 L623.6,420.0 L624.5,420.0 L625.3,420.0 L626.1,420.0 L627.0,420.0 L627.8,420.0 L628.7,419.4 L629.5,404.6 L630.4,388.6 L631.2,390.3 L632.0,379.3 L632.9,379.0 L633.7,379.9 L634.6,379.9 L635.4,389.2 L636.2,378.7 L637.1,382.8 L637.9,384.5 L638.8,380.5 L639.6,394.4 L640.4,406.0 L641.3,418.5 L642.1,420.0 L643.0,420.0 L643.8,420.0 L644.7,420.0 L645.5,420.0 L646.3,420.0 L647.2,420.0 L648.0,420.0 L648.9,419.7 L649.7,408.4 L650.5,400.8 L651.4,390.3 L652.2,393.5 L653.1,385.4 L653.9,385.1 L654.8,378.1 L655.6,385.4 L656.4,392.4 L657.3,382.5 L658.1,391.5 L659.0,388.6 L659.8,398.8 L660.6,408.1 L661.5,419.1 L662.3,420.0 L663.2,420.0 L664.0,420.0 L664.9,420.0 L665.7,420.0 L666.5,420.0 L667.4,420.0 L668.2,420.0 L669.1,419.7 L669.9,418.5 L670.7,413.6 L671.6,410.1 L672.4,402.8 L673.3,393.8 L674.1,401.7 L675.0,400.5 L675.8,386.6 L676.6,413.9 L677.5,410.1 L678.3,409.2 L679.2,401.7 L680.0,406.6" stroke="#d62728" stroke-width="2" fill="none" opacity="0.8"/>
<!-- Forecast -->
<path d="M80.0,231.9 L80.8,235.7 L81.7,239.4 L82.5,243.2 L83.4,247.0 L84.2,229.6 L85.0,206.0 L85.9,191.2 L86.7,185.4 L87.6,181.9 L88.4,182.8 L89.3,183.6 L90.1,185.1 L90.9,186.5 L91.8,187.4 L92.6,186.8 L93.5,185.4 L94.3,189.7 L95.1,195.5 L96.0,199.0 L96.8,201.4 L97.7,217.6 L98.5,246.7 L99.4,258.3 L100.2,266.2 L101.0,271.7 L101.9,274.3 L102.7,273.5 L103.6,271.7 L104.4,265.9 L105.2,252.2 L106.1,237.7 L106.9,227.8 L107.8,219.7 L108.6,218.5 L109.5,216.5 L110.3,218.2 L111.1,221.1 L112.0,221.7 L112.8,223.2 L113.7,224.6 L114.5,223.5 L115.3,224.0 L116.2,223.7 L117.0,221.1 L117.9,231.6 L118.7,246.4 L119.6,261.3 L120.4,272.3 L121.2,278.7 L122.1,281.0 L122.9,279.9 L123.8,277.0 L124.6,274.9 L125.4,264.2 L126.3,253.1 L127.1,236.5 L128.0,224.3 L128.8,224.0 L129.6,220.0 L130.5,218.2 L131.3,215.9 L132.2,211.5 L133.0,206.9 L133.9,201.1 L134.7,196.7 L135.5,202.2 L136.4,208.9 L137.2,208.3 L138.1,220.0 L138.9,242.9 L139.7,262.7 L140.6,274.0 L141.4,280.7 L142.3,283.4 L143.1,282.2 L144.0,279.0 L144.8,280.2 L145.6,267.7 L146.5,256.0 L147.3,238.0 L148.2,224.9 L149.0,225.8 L149.8,220.0 L150.7,216.5 L151.5,213.0 L152.4,209.5 L153.2,207.2 L154.1,201.9 L154.9,196.7 L155.7,201.1 L156.6,207.5 L157.4,206.0 L158.3,218.2 L159.1,239.7 L159.9,252.8 L160.8,261.8 L161.6,268.5 L162.5,271.4 L163.3,270.8 L164.2,262.1 L165.0,240.9 L165.8,213.0 L166.7,192.3 L167.5,183.3 L168.4,180.7 L169.2,179.8 L170.0,180.4 L170.9,181.9 L171.7,182.8 L172.6,183.6 L173.4,183.9 L174.2,183.3 L175.1,188.9 L175.9,194.7 L176.8,197.9 L177.6,199.0 L178.5,215.3 L179.3,239.7 L180.1,256.9 L181.0,264.5 L181.8,270.0 L182.7,271.7 L183.5,270.3 L184.3,260.7 L185.2,238.0 L186.0,211.5 L186.9,192.3 L187.7,185.1 L188.6,181.0 L189.4,181.6 L190.2,183.0 L191.1,185.1 L191.9,186.8 L192.8,188.0 L193.6,188.6 L194.4,187.4 L195.3,192.1 L196.1,198.2 L197.0,200.8 L197.8,202.2 L198.7,217.9 L199.5,222.6 L200.3,222.6 L201.2,222.6 L202.0,222.6 L202.9,222.6 L203.7,222.6 L204.5,222.6 L205.4,222.6 L206.2,222.6 L207.1,222.6 L207.9,222.6 L208.8,222.6 L209.6,222.6 L210.4,222.6 L211.3,222.6 L212.1,222.6 L213.0,222.6 L213.8,222.6 L214.6,222.6 L215.5,222.6 L216.3,222.6 L217.2,222.6 L218.0,222.6 L218.8,222.6 L219.7,222.6 L220.5,247.3 L221.4,254.3 L222.2,261.0 L223.1,264.7 L223.9,265.3 L224.7,256.0 L225.6,235.4 L226.4,204.3 L227.3,180.7 L228.1,170.0 L228.9,166.2 L229.8,163.6 L230.6,162.7 L231.5,162.4 L232.3,156.0 L233.2,157.5 L234.0,159.5 L234.8,160.7 L235.7,168.8 L236.5,179.6 L237.4,186.5 L238.2,189.4 L239.0,206.6 L239.9,242.4 L240.7,252.8 L241.6,259.2 L242.4,267.1 L243.3,270.3 L244.1,272.9 L244.9,265.9 L245.8,261.0 L246.6,249.9 L247.5,237.7 L248.3,226.1 L249.1,215.9 L250.0,213.9 L250.8,212.4 L251.7,215.6 L252.5,219.7 L253.4,221.1 L254.2,218.2 L255.0,215.9 L255.9,216.2 L256.7,220.3 L257.6,220.6 L258.4,218.8 L259.2,229.3 L260.1,247.9 L260.9,260.4 L261.8,270.3 L262.6,277.2 L263.5,279.6 L264.3,278.7 L265.1,276.4 L266.0,268.2 L266.8,255.1 L267.7,237.1 L268.5,222.6 L269.3,216.2 L270.2,211.0 L271.0,211.0 L271.9,213.3 L272.7,215.9 L273.5,216.8 L274.4,215.0 L275.2,209.8 L276.1,209.8 L276.9,214.7 L277.8,215.3 L278.6,213.6 L279.4,224.6 L280.3,220.8 L281.1,230.7 L282.0,238.6 L282.8,243.8 L283.6,245.8 L284.5,244.4 L285.3,236.3 L286.2,213.6 L287.0,186.2 L287.9,167.3 L288.7,158.9 L289.5,154.3 L290.4,154.6 L291.2,155.7 L292.1,157.5 L292.9,158.9 L293.7,159.8 L294.6,159.2 L295.4,160.4 L296.3,166.2 L297.1,172.9 L298.0,174.6 L298.8,177.8 L299.6,192.6 L300.5,215.6 L301.3,231.0 L302.2,240.0 L303.0,245.3 L303.8,247.6 L304.7,245.6 L305.5,236.8 L306.4,215.3 L307.2,189.4 L308.1,170.5 L308.9,162.7 L309.7,157.7 L310.6,157.7 L311.4,158.6 L312.3,160.1 L313.1,161.2 L313.9,161.5 L314.8,160.7 L315.6,161.2 L316.5,166.5 L317.3,172.6 L318.1,175.5 L319.0,178.1 L319.8,193.2 L320.7,212.7 L321.5,231.9 L322.4,240.6 L323.2,246.4 L324.0,248.5 L324.9,246.7 L325.7,237.4 L326.6,217.1 L327.4,192.3 L328.2,174.3 L329.1,166.5 L329.9,160.4 L330.8,159.5 L331.6,159.2 L332.5,159.8 L333.3,159.8 L334.1,156.3 L335.0,153.7 L335.8,154.8 L336.7,162.1 L337.5,167.1 L338.3,170.8 L339.2,173.2 L340.0,189.1 L340.9,218.2 L341.7,233.9 L342.6,243.5 L343.4,249.9 L344.2,253.1 L345.1,252.5 L345.9,245.0 L346.8,225.5 L347.6,201.1 L348.4,180.4 L349.3,171.7 L350.1,165.9 L351.0,164.7 L351.8,164.7 L352.7,165.3 L353.5,165.0 L354.3,166.2 L355.2,165.9 L356.0,165.9 L356.9,170.5 L357.7,175.5 L358.5,179.0 L359.4,181.0 L360.2,196.7 L361.1,214.2 L361.9,236.3 L362.7,246.1 L363.6,252.2 L364.4,254.3 L365.3,252.8 L366.1,242.4 L367.0,222.9 L367.8,198.5 L368.6,178.4 L369.5,168.5 L370.3,163.0 L371.2,160.1 L372.0,158.6 L372.8,156.3 L373.7,153.1 L374.5,147.9 L375.4,143.8 L376.2,140.3 L377.1,149.9 L377.9,160.9 L378.7,167.9 L379.6,171.4 L380.4,188.6 L381.3,225.8 L382.1,234.2 L382.9,240.9 L383.8,248.2 L384.6,251.4 L385.5,253.7 L386.3,251.1 L387.2,245.0 L388.0,232.2 L388.8,220.8 L389.7,212.1 L390.5,201.9 L391.4,198.5 L392.2,196.1 L393.0,197.9 L393.9,197.9 L394.7,201.1 L395.6,202.8 L396.4,200.8 L397.3,202.5 L398.1,204.8 L398.9,205.7 L399.8,203.7 L400.6,213.3 L401.5,228.4 L402.3,240.6 L403.1,251.1 L404.0,257.2 L404.8,258.9 L405.7,258.1 L406.5,256.3 L407.3,249.6 L408.2,236.5 L409.0,220.0 L409.9,205.4 L410.7,198.2 L411.6,192.6 L412.4,192.1 L413.2,195.0 L414.1,197.3 L414.9,197.6 L415.8,197.3 L416.6,194.7 L417.4,192.6 L418.3,197.0 L419.1,197.9 L420.0,196.1 L420.8,206.6 L421.7,219.1 L422.5,233.9 L423.3,242.9 L424.2,247.3 L425.0,249.6 L425.9,246.7 L426.7,237.4 L427.5,217.4 L428.4,192.6 L429.2,174.9 L430.1,167.6 L430.9,163.0 L431.8,162.1 L432.6,162.4 L433.4,162.7 L434.3,162.7 L435.1,162.1 L436.0,160.4 L436.8,160.9 L437.6,167.1 L438.5,173.4 L439.3,176.6 L440.2,178.7 L441.0,194.1 L441.9,219.7 L442.7,235.7 L443.5,245.3 L444.4,251.7 L445.2,254.3 L446.1,253.4 L446.9,244.4 L447.7,223.5 L448.6,197.6 L449.4,178.1 L450.3,169.4 L451.1,164.4 L451.9,163.0 L452.8,163.0 L453.6,164.1 L454.5,164.7 L455.3,165.3 L456.2,165.0 L457.0,166.5 L457.8,172.6 L458.7,178.7 L459.5,181.3 L460.4,183.3 L461.2,198.5 L462.0,219.7 L462.9,237.7 L463.7,245.8 L464.6,250.5 L465.4,252.5 L466.3,251.1 L467.1,241.5 L467.9,219.7 L468.8,192.3 L469.6,172.0 L470.5,163.9 L471.3,159.5 L472.1,160.1 L473.0,161.2 L473.8,163.3 L474.7,165.3 L475.5,165.9 L476.4,165.6 L477.2,167.1 L478.0,172.3 L478.9,178.1 L479.7,179.3 L480.6,183.0 L481.4,198.7 L482.2,219.1 L483.1,236.3 L483.9,246.7 L484.8,252.2 L485.6,254.9 L486.5,252.8 L487.3,244.4 L488.1,226.1 L489.0,202.8 L489.8,183.9 L490.7,170.5 L491.5,164.1 L492.3,158.3 L493.2,153.1 L494.0,151.4 L494.9,154.8 L495.7,156.6 L496.5,157.5 L497.4,159.8 L498.2,165.0 L499.1,172.0 L499.9,180.1 L500.8,186.0 L501.6,198.5 L502.4,216.5 L503.3,235.4 L504.1,245.8 L505.0,251.4 L505.8,254.0 L506.6,252.5 L507.5,244.4 L508.3,225.5 L509.2,202.5 L510.0,181.3 L510.9,169.7 L511.7,163.3 L512.5,158.0 L513.4,155.7 L514.2,153.4 L515.1,149.6 L515.9,142.6 L516.7,141.5 L517.6,145.5 L518.4,155.1 L519.3,165.9 L520.1,173.2 L521.0,178.7 L521.8,193.5 L522.6,220.0 L523.5,233.3 L524.3,242.1 L525.2,248.8 L526.0,252.8 L526.8,253.7 L527.7,252.2 L528.5,245.8 L529.4,235.4 L530.2,220.8 L531.1,204.6 L531.9,195.5 L532.7,197.0 L533.6,197.3 L534.4,199.6 L535.3,199.9 L536.1,204.3 L536.9,207.5 L537.8,206.6 L538.6,208.6 L539.5,212.1 L540.3,214.4 L541.2,215.0 L542.0,223.7 L542.8,233.1 L543.7,237.7 L544.5,249.9 L545.4,258.3 L546.2,259.5 L547.0,259.5 L547.9,260.4 L548.7,254.6 L549.6,243.5 L550.4,229.0 L551.2,207.5 L552.1,199.6 L552.9,194.4 L553.8,192.3 L554.6,194.7 L555.5,197.3 L556.3,195.3 L557.1,190.0 L558.0,184.5 L558.8,185.7 L559.7,186.8 L560.5,193.5 L561.3,195.8 L562.2,210.7 L563.0,217.1 L563.9,234.2 L564.7,246.1 L565.6,252.0 L566.4,254.6 L567.2,252.8 L568.1,244.7 L568.9,226.4 L569.8,203.4 L570.6,182.2 L571.4,170.5 L572.3,164.1 L573.1,158.9 L574.0,156.6 L574.8,155.1 L575.7,151.4 L576.5,145.2 L577.3,138.3 L578.2,141.2 L579.0,150.8 L579.9,160.9 L580.7,168.5 L581.5,174.0 L582.4,188.9 L583.2,156.0 L584.1,215.6 L584.9,237.1 L585.8,241.8 L586.6,245.3 L587.4,244.7 L588.3,238.6 L589.1,220.0 L590.0,196.4 L590.8,172.6 L591.6,157.2 L592.5,148.4 L593.3,142.9 L594.2,140.6 L595.0,135.9 L595.8,134.8 L596.7,134.8 L597.5,134.8 L598.4,134.8 L599.2,135.1 L600.1,135.1 L600.9,135.1 L601.7,135.1 L602.6,135.1 L603.4,201.7 L604.3,225.5 L605.1,234.8 L605.9,243.2 L606.8,248.5 L607.6,248.8 L608.5,242.9 L609.3,224.3 L610.2,202.2 L611.0,180.4 L611.8,168.8 L612.7,163.3 L613.5,159.8 L614.4,157.2 L615.2,157.2 L616.0,155.1 L616.9,150.8 L617.7,150.2 L618.6,154.3 L619.4,163.0 L620.3,170.5 L621.1,176.6 L621.9,181.9 L622.8,195.3 L623.6,212.1 L624.5,233.6 L625.3,245.3 L626.1,251.4 L627.0,254.0 L627.8,252.8 L628.7,245.0 L629.5,226.1 L630.4,203.1 L631.2,181.9 L632.0,170.0 L632.9,163.6 L633.7,158.3 L634.6,155.7 L635.4,153.7 L636.2,148.7 L637.1,141.8 L637.9,133.0 L638.8,137.1 L639.6,146.7 L640.4,156.9 L641.3,164.1 L642.1,172.0 L643.0,187.1 L643.8,162.1 L644.7,216.2 L645.5,242.6 L646.3,249.3 L647.2,252.8 L648.0,251.7 L648.9,244.4 L649.7,226.4 L650.5,203.1 L651.4,180.7 L652.2,167.3 L653.1,159.5 L653.9,154.3 L654.8,151.6 L655.6,146.1 L656.4,138.9 L657.3,136.8 L658.1,136.5 L659.0,135.9 L659.8,135.7 L660.6,135.4 L661.5,135.1 L662.3,134.5 L663.2,143.2 L664.0,208.0 L664.9,225.5 L665.7,233.3 L666.5,242.1 L667.4,247.0 L668.2,248.8 L669.1,248.8 L669.9,242.4 L670.7,230.7 L671.6,214.7 L672.4,202.8 L673.3,195.3 L674.1,192.3 L675.0,188.6 L675.8,187.1 L676.6,191.2 L677.5,183.9 L678.3,184.2 L679.2,185.7 L680.0,185.7" stroke="#9467bd" stroke-width="2" fill="none" opacity="0.8"/>
<!-- Total Generation -->
<path d="M80.0,226.4 L80.8,220.8 L81.7,215.6 L82.5,214.4 L83.4,215.3 L84.2,206.6 L85.0,204.0 L85.9,239.2 L86.7,237.4 L87.6,243.8 L88.4,243.8 L89.3,245.8 L90.1,242.6 L90.9,245.8 L91.8,247.9 L92.6,258.6 L93.5,232.2 L94.3,215.9 L95.1,194.4 L96.0,197.0 L96.8,192.3 L97.7,196.1 L98.5,209.2 L99.4,209.8 L100.2,226.1 L101.0,210.1 L101.9,215.9 L102.7,218.8 L103.6,214.7 L104.4,208.3 L105.2,211.2 L106.1,241.2 L106.9,222.0 L107.8,202.5 L108.6,228.4 L109.5,211.5 L110.3,214.4 L111.1,229.3 L112.0,233.1 L112.8,223.2 L113.7,223.5 L114.5,230.1 L115.3,257.8 L116.2,268.5 L117.0,274.6 L117.9,278.4 L118.7,283.4 L119.6,287.4 L120.4,283.4 L121.2,274.6 L122.1,265.0 L122.9,265.6 L123.8,251.7 L124.6,230.7 L125.4,222.6 L126.3,218.2 L127.1,188.0 L128.0,214.4 L128.8,177.8 L129.6,192.9 L130.5,211.2 L131.3,211.2 L132.2,201.1 L133.0,199.3 L133.9,213.0 L134.7,228.4 L135.5,247.3 L136.4,215.9 L137.2,222.0 L138.1,236.5 L138.9,239.2 L139.7,244.1 L140.6,266.5 L141.4,265.0 L142.3,265.9 L143.1,267.7 L144.0,245.0 L144.8,234.8 L145.6,215.3 L146.5,230.4 L147.3,208.9 L148.2,207.8 L149.0,207.5 L149.8,223.7 L150.7,206.9 L151.5,193.2 L152.4,190.9 L153.2,191.8 L154.1,186.5 L154.9,215.0 L155.7,215.6 L156.6,195.0 L157.4,241.2 L158.3,242.6 L159.1,240.9 L159.9,249.0 L160.8,247.0 L161.6,246.4 L162.5,246.4 L163.3,242.9 L164.2,241.2 L165.0,234.8 L165.8,231.0 L166.7,213.0 L167.5,213.0 L168.4,208.3 L169.2,214.2 L170.0,193.8 L170.9,182.2 L171.7,151.4 L172.6,130.4 L173.4,150.8 L174.2,157.2 L175.1,129.5 L175.9,154.3 L176.8,153.7 L177.6,159.5 L178.5,171.4 L179.3,183.0 L180.1,194.4 L181.0,219.7 L181.8,217.1 L182.7,241.2 L183.5,210.4 L184.3,183.6 L185.2,184.2 L186.0,183.3 L186.9,198.7 L187.7,188.6 L188.6,195.8 L189.4,202.5 L190.2,204.3 L191.1,178.1 L191.9,179.8 L192.8,198.5 L193.6,189.1 L194.4,185.4 L195.3,178.7 L196.1,190.0 L197.0,175.2 L197.8,183.9 L198.7,169.7 L199.5,174.6 L200.3,182.5 L201.2,183.3 L202.0,185.1 L202.9,199.6 L203.7,221.7 L204.5,243.2 L205.4,194.7 L206.2,191.5 L207.1,197.6 L207.9,196.7 L208.8,198.5 L209.6,185.1 L210.4,179.0 L211.3,179.8 L212.1,158.3 L213.0,172.0 L213.8,156.6 L214.6,163.3 L215.5,181.6 L216.3,188.0 L217.2,160.7 L218.0,173.4 L218.8,217.1 L219.7,170.8 L220.5,196.4 L221.4,225.5 L222.2,201.4 L223.1,229.9 L223.9,232.8 L224.7,248.5 L225.6,241.2 L226.4,219.4 L227.3,228.7 L228.1,233.1 L228.9,231.9 L229.8,234.5 L230.6,234.2 L231.5,256.3 L232.3,229.6 L233.2,234.5 L234.0,222.0 L234.8,233.1 L235.7,198.2 L236.5,215.3 L237.4,195.8 L238.2,209.5 L239.0,217.4 L239.9,214.7 L240.7,199.6 L241.6,191.2 L242.4,207.2 L243.3,211.0 L244.1,225.8 L244.9,243.5 L245.8,237.7 L246.6,249.6 L247.5,261.8 L248.3,258.9 L249.1,254.9 L250.0,251.7 L250.8,234.5 L251.7,230.4 L252.5,233.6 L253.4,233.9 L254.2,230.4 L255.0,226.1 L255.9,199.6 L256.7,195.5 L257.6,187.7 L258.4,176.6 L259.2,206.9 L260.1,206.6 L260.9,206.9 L261.8,199.3 L262.6,203.4 L263.5,198.2 L264.3,199.6 L265.1,197.3 L266.0,192.9 L266.8,216.2 L267.7,214.4 L268.5,212.1 L269.3,212.4 L270.2,209.2 L271.0,186.0 L271.9,191.8 L272.7,190.6 L273.5,192.1 L274.4,198.7 L275.2,162.4 L276.1,163.3 L276.9,170.8 L277.8,182.5 L278.6,188.9 L279.4,177.5 L280.3,196.7 L281.1,200.8 L282.0,200.5 L282.8,200.8 L283.6,198.7 L284.5,209.8 L285.3,222.6 L286.2,206.9 L287.0,181.0 L287.9,166.5 L288.7,158.9 L289.5,137.4 L290.4,133.9 L291.2,136.2 L292.1,135.4 L292.9,122.9 L293.7,148.7 L294.6,132.2 L295.4,142.6 L296.3,150.8 L297.1,134.2 L298.0,142.0 L298.8,195.3 L299.6,197.0 L300.5,199.0 L301.3,197.6 L302.2,216.5 L303.0,224.9 L303.8,229.9 L304.7,219.1 L305.5,201.4 L306.4,197.3 L307.2,207.8 L308.1,209.5 L308.9,217.4 L309.7,198.2 L310.6,186.5 L311.4,188.0 L312.3,188.6 L313.1,183.9 L313.9,195.5 L314.8,196.7 L315.6,193.5 L316.5,149.3 L317.3,174.3 L318.1,193.2 L319.0,182.8 L319.8,171.4 L320.7,166.2 L321.5,188.6 L322.4,244.1 L323.2,247.6 L324.0,242.6 L324.9,221.7 L325.7,228.7 L326.6,220.8 L327.4,219.4 L328.2,220.8 L329.1,217.9 L329.9,223.7 L330.8,221.1 L331.6,214.4 L332.5,151.9 L333.3,151.9 L334.1,212.4 L335.0,209.2 L335.8,206.6 L336.7,210.7 L337.5,169.1 L338.3,144.4 L339.2,160.9 L340.0,229.6 L340.9,233.9 L341.7,253.4 L342.6,253.7 L343.4,263.9 L344.2,264.7 L345.1,263.9 L345.9,254.3 L346.8,243.2 L347.6,225.5 L348.4,212.4 L349.3,203.7 L350.1,197.6 L351.0,169.4 L351.8,160.9 L352.7,147.0 L353.5,154.6 L354.3,154.3 L355.2,165.9 L356.0,161.5 L356.9,151.1 L357.7,180.1 L358.5,189.1 L359.4,192.6 L360.2,208.6 L361.1,235.4 L361.9,244.4 L362.7,243.8 L363.6,236.8 L364.4,236.5 L365.3,236.3 L366.1,229.0 L367.0,229.9 L367.8,213.9 L368.6,217.6 L369.5,215.6 L370.3,198.2 L371.2,189.4 L372.0,201.1 L372.8,194.7 L373.7,191.8 L374.5,201.4 L375.4,206.6 L376.2,197.3 L377.1,207.8 L377.9,204.6 L378.7,206.3 L379.6,155.4 L380.4,168.8 L381.3,201.9 L382.1,199.6 L382.9,202.5 L383.8,202.2 L384.6,206.9 L385.5,204.3 L386.3,192.9 L387.2,187.1 L388.0,204.0 L388.8,215.3 L389.7,202.2 L390.5,201.7 L391.4,195.8 L392.2,201.7 L393.0,213.0 L393.9,230.1 L394.7,198.2 L395.6,201.9 L396.4,215.3 L397.3,210.7 L398.1,191.5 L398.9,206.9 L399.8,200.5 L400.6,179.8 L401.5,189.1 L402.3,204.0 L403.1,192.9 L404.0,229.0 L404.8,236.8 L405.7,213.9 L406.5,212.1 L407.3,209.2 L408.2,197.9 L409.0,238.3 L409.9,236.0 L410.7,226.1 L411.6,229.3 L412.4,209.8 L413.2,208.3 L414.1,188.0 L414.9,186.8 L415.8,187.1 L416.6,156.0 L417.4,138.6 L418.3,146.7 L419.1,147.6 L420.0,146.1 L420.8,156.3 L421.7,156.0 L422.5,150.5 L423.3,147.9 L424.2,148.2 L425.0,163.9 L425.9,194.7 L426.7,193.2 L427.5,201.1 L428.4,178.4 L429.2,171.7 L430.1,156.6 L430.9,153.7 L431.8,161.8 L432.6,174.3 L433.4,186.0 L434.3,207.5 L435.1,202.2 L436.0,209.5 L436.8,165.9 L437.6,133.0 L438.5,133.3 L439.3,128.4 L440.2,157.2 L441.0,174.9 L441.9,199.3 L442.7,201.4 L443.5,210.7 L444.4,229.0 L445.2,255.4 L446.1,230.4 L446.9,213.0 L447.7,202.8 L448.6,199.0 L449.4,190.9 L450.3,177.8 L451.1,160.9 L451.9,175.2 L452.8,184.5 L453.6,173.2 L454.5,184.2 L455.3,199.9 L456.2,197.0 L457.0,188.3 L457.8,131.0 L458.7,178.1 L459.5,189.7 L460.4,166.8 L461.2,165.3 L462.0,167.1 L462.9,160.1 L463.7,160.7 L464.6,166.8 L465.4,163.3 L466.3,160.9 L467.1,161.2 L467.9,149.6 L468.8,148.4 L469.6,151.6 L470.5,152.5 L471.3,180.7 L472.1,145.8 L473.0,141.2 L473.8,159.8 L474.7,168.2 L475.5,132.7 L476.4,131.6 L477.2,143.2 L478.0,159.2 L478.9,164.4 L479.7,159.2 L480.6,160.9 L481.4,164.7 L482.2,166.5 L483.1,167.6 L483.9,167.3 L484.8,180.7 L485.6,180.7 L486.5,182.8 L487.3,187.4 L488.1,178.7 L489.0,191.2 L489.8,171.7 L490.7,156.6 L491.5,156.9 L492.3,156.0 L493.2,151.6 L494.0,149.9 L494.9,147.0 L495.7,164.7 L496.5,138.9 L497.4,138.0 L498.2,140.6 L499.1,163.6 L499.9,137.4 L500.8,142.0 L501.6,137.4 L502.4,160.4 L503.3,263.6 L504.1,274.9 L505.0,274.6 L505.8,271.4 L506.6,247.9 L507.5,246.4 L508.3,234.5 L509.2,218.5 L510.0,208.6 L510.9,213.6 L511.7,204.8 L512.5,176.9 L513.4,161.5 L514.2,130.4 L515.1,159.8 L515.9,167.1 L516.7,93.2 L517.6,85.6 L518.4,113.6 L519.3,81.9 L520.1,85.4 L521.0,113.3 L521.8,117.9 L522.6,111.2 L523.5,148.7 L524.3,214.7 L525.2,198.2 L526.0,218.8 L526.8,206.3 L527.7,198.5 L528.5,233.9 L529.4,238.0 L530.2,238.0 L531.1,232.5 L531.9,225.8 L532.7,227.2 L533.6,226.7 L534.4,221.4 L535.3,209.2 L536.1,201.9 L536.9,192.1 L537.8,163.6 L538.6,146.4 L539.5,114.7 L540.3,134.8 L541.2,133.9 L542.0,140.3 L542.8,142.3 L543.7,144.7 L544.5,150.8 L545.4,166.2 L546.2,188.9 L547.0,201.1 L547.9,230.4 L548.7,215.6 L549.6,211.5 L550.4,237.1 L551.2,237.7 L552.1,243.5 L552.9,242.4 L553.8,264.5 L554.6,242.9 L555.5,244.1 L556.3,221.7 L557.1,192.9 L558.0,164.4 L558.8,139.7 L559.7,130.1 L560.5,142.6 L561.3,151.4 L562.2,149.9 L563.0,153.1 L563.9,152.8 L564.7,151.1 L565.6,193.5 L566.4,184.8 L567.2,178.4 L568.1,152.2 L568.9,184.2 L569.8,188.9 L570.6,188.9 L571.4,190.9 L572.3,189.4 L573.1,191.8 L574.0,166.8 L574.8,158.9 L575.7,129.3 L576.5,100.8 L577.3,101.6 L578.2,78.1 L579.0,105.4 L579.9,125.5 L580.7,151.6 L581.5,154.6 L582.4,148.4 L583.2,143.2 L584.1,194.4 L584.9,270.6 L585.8,256.3 L586.6,228.7 L587.4,204.0 L588.3,210.7 L589.1,215.0 L590.0,163.6 L590.8,138.9 L591.6,131.0 L592.5,142.6 L593.3,132.7 L594.2,131.0 L595.0,134.2 L595.8,140.0 L596.7,140.3 L597.5,138.9 L598.4,148.7 L599.2,129.8 L600.1,142.6 L600.9,105.1 L601.7,135.4 L602.6,143.8 L603.4,133.0 L604.3,184.2 L605.1,228.7 L605.9,226.1 L606.8,229.3 L607.6,216.5 L608.5,220.6 L609.3,224.6 L610.2,205.1 L611.0,198.7 L611.8,191.8 L612.7,202.8 L613.5,193.5 L614.4,192.6 L615.2,200.5 L616.0,180.7 L616.9,183.6 L617.7,181.0 L618.6,172.0 L619.4,168.5 L620.3,169.7 L621.1,175.2 L621.9,193.5 L622.8,214.4 L623.6,204.0 L624.5,199.3 L625.3,232.5 L626.1,233.3 L627.0,240.6 L627.8,244.7 L628.7,237.7 L629.5,175.5 L630.4,221.7 L631.2,218.8 L632.0,202.5 L632.9,198.5 L633.7,192.9 L634.6,167.6 L635.4,165.0 L636.2,142.3 L637.1,140.6 L637.9,135.4 L638.8,104.5 L639.6,116.8 L640.4,104.3 L641.3,122.0 L642.1,137.1 L643.0,140.9 L643.8,136.8 L644.7,192.9 L645.5,199.3 L646.3,199.0 L647.2,201.7 L648.0,198.7 L648.9,197.6 L649.7,186.8 L650.5,174.0 L651.4,167.9 L652.2,169.1 L653.1,170.0 L653.9,175.2 L654.8,143.2 L655.6,128.7 L656.4,124.9 L657.3,99.6 L658.1,74.0 L659.0,72.6 L659.8,67.6 L660.6,82.2 L661.5,108.6 L662.3,133.6 L663.2,130.1 L664.0,140.3 L664.9,220.3 L665.7,247.0 L666.5,268.8 L667.4,284.2 L668.2,288.0 L669.1,288.6 L669.9,290.9 L670.7,283.1 L671.6,278.1 L672.4,272.9 L673.3,262.7 L674.1,270.0 L675.0,252.0 L675.8,228.4 L676.6,253.1 L677.5,249.9 L678.3,232.5 L679.2,223.7 L680.0,209.2" stroke="#8c564b" stroke-width="2" fill="none" opacity="0.8"/>
<!-- Forecast Difference -->
<path d="M80.0,420.0 L80.8,420.0 L81.7,420.0 L82.5,420.0 L83.4,420.0 L84.2,420.0 L85.0,420.0 L85.9,420.0 L86.7,420.0 L87.6,420.0 L88.4,420.0 L89.3,420.0 L90.1,420.0 L90.9,420.0 L91.8,420.0 L92.6,420.0 L93.5,420.0 L94.3,420.0 L95.1,420.0 L96.0,420.0 L96.8,420.0 L97.7,420.0 L98.5,420.0 L99.4,420.0 L100.2,420.0 L101.0,420.0 L101.9,420.0 L102.7,420.0 L103.6,420.0 L104.4,420.0 L105.2,420.0 L106.1,420.0 L106.9,420.0 L107.8,420.0 L108.6,420.0 L109.5,420.0 L110.3,420.0 L111.1,420.0 L112.0,420.0 L112.8,420.0 L113.7,420.0 L114.5,420.0 L115.3,420.0 L116.2,420.0 L117.0,420.0 L117.9,420.0 L118.7,420.0 L119.6,420.0 L120.4,420.0 L121.2,420.0 L122.1,420.0 L122.9,420.0 L123.8,420.0 L124.6,420.0 L125.4,420.0 L126.3,420.0 L127.1,420.0 L128.0,420.0 L128.8,420.0 L129.6,420.0 L130.5,420.0 L131.3,420.0 L132.2,420.0 L133.0,420.0 L133.9,420.0 L134.7,420.0 L135.5,420.0 L136.4,420.0 L137.2,420.0 L138.1,420.0 L138.9,420.0 L139.7,420.0 L140.6,420.0 L141.4,420.0 L142.3,420.0 L143.1,420.0 L144.0,420.0 L144.8,420.0 L145.6,420.0 L146.5,420.0 L147.3,420.0 L148.2,420.0 L149.0,420.0 L149.8,420.0 L150.7,420.0 L151.5,420.0 L152.4,420.0 L153.2,420.0 L154.1,420.0 L154.9,420.0 L155.7,420.0 L156.6,420.0 L157.4,420.0 L158.3,420.0 L159.1,420.0 L159.9,420.0 L160.8,420.0 L161.6,420.0 L162.5,420.0 L163.3,420.0 L164.2,420.0 L165.0,420.0 L165.8,420.0 L166.7,420.0 L167.5,420.0 L168.4,420.0 L169.2,420.0 L170.0,420.0 L170.9,420.0 L171.7,420.0 L172.6,420.0 L173.4,420.0 L174.2,420.0 L175.1,420.0 L175.9,420.0 L176.8,420.0 L177.6,420.0 L178.5,420.0 L179.3,420.0 L180.1,420.0 L181.0,420.0 L181.8,420.0 L182.7,420.0 L183.5,420.0 L184.3,420.0 L185.2,420.0 L186.0,420.0 L186.9,420.0 L187.7,420.0 L188.6,420.0 L189.4,420.0 L190.2,420.0 L191.1,420.0 L191.9,420.0 L192.8,420.0 L193.6,420.0 L194.4,420.0 L195.3,420.0 L196.1,420.0 L197.0,420.0 L197.8,420.0 L198.7,420.0 L199.5,420.0 L200.3,420.0 L201.2,420.0 L202.0,420.0 L202.9,420.0 L203.7,420.0 L204.5,420.0 L205.4,420.0 L206.2,420.0 L207.1,420.0 L207.9,420.0 L208.8,420.0 L209.6,420.0 L210.4,420.0 L211.3,420.0 L212.1,420.0 L213.0,420.0 L213.8,420.0 L214.6,420.0 L215.5,420.0 L216.3,420.0 L217.2,420.0 L218.0,420.0 L218.8,420.0 L219.7,420.0 L220.5,420.0 L221.4,420.0 L222.2,420.0 L223.1,420.0 L223.9,420.0 L224.7,420.0 L225.6,420.0 L226.4,420.0 L227.3,420.0 L228.1,420.0 L228.9,420.0 L229.8,420.0 L230.6,420.0 L231.5,420.0 L232.3,420.0 L233.2,420.0 L234.0,420.0 L234.8,420.0 L235.7,420.0 L236.5,420.0 L237.4,420.0 L238.2,420.0 L239.0,420.0 L239.9,420.0 L240.7,420.0 L241.6,420.0 L242.4,420.0 L243.3,420.0 L244.1,420.0 L244.9,420.0 L245.8,420.0 L246.6,420.0 L247.5,420.0 L248.3,420.0 L249.1,420.0 L250.0,420.0 L250.8,420.0 L251.7,420.0 L252.5,420.0 L253.4,420.0 L254.2,420.0 L255.0,420.0 L255.9,420.0 L256.7,420.0 L257.6,420.0 L258.4,420.0 L259.2,420.0 L260.1,420.0 L260.9,420.0 L261.8,420.0 L262.6,420.0 L263.5,420.0 L264.3,420.0 L265.1,420.0 L266.0,420.0 L266.8,420.0 L267.7,420.0 L268.5,420.0 L269.3,420.0 L270.2,420.0 L271.0,420.0 L271.9,420.0 L272.7,420.0 L273.5,420.0 L274.4,420.0 L275.2,420.0 L276.1,420.0 L276.9,420.0 L277.8,420.0 L278.6,420.0 L279.4,420.0 L280.3,420.0 L281.1,420.0 L282.0,420.0 L282.8,420.0 L283.6,420.0 L284.5,420.0 L285.3,420.0 L286.2,420.0 L287.0,420.0 L287.9,420.0 L288.7,420.0 L289.5,420.0 L290.4,420.0 L291.2,420.0 L292.1,420.0 L292.9,420.0 L293.7,420.0 L294.6,420.0 L295.4,420.0 L296.3,420.0 L297.1,420.0 L298.0,420.0 L298.8,420.0 L299.6,420.0 L300.5,420.0 L301.3,420.0 L302.2,420.0 L303.0,420.0 L303.8,420.0 L304.7,420.0 L305.5,420.0 L306.4,420.0 L307.2,420.0 L308.1,420.0 L308.9,420.0 L309.7,420.0 L310.6,420.0 L311.4,420.0 L312.3,420.0 L313.1,420.0 L313.9,420.0 L314.8,420.0 L315.6,420.0 L316.5,420.0 L317.3,420.0 L318.1,420.0 L319.0,420.0 L319.8,420.0 L320.7,420.0 L321.5,420.0 L322.4,420.0 L323.2,420.0 L324.0,420.0 L324.9,420.0 L325.7,420.0 L326.6,420.0 L327.4,420.0 L328.2,420.0 L329.1,420.0 L329.9,420.0 L330.8,420.0 L331.6,420.0 L332.5,420.0 L333.3,420.0 L334.1,420.0 L335.0,420.0 L335.8,420.0 L336.7,420.0 L337.5,420.0 L338.3,420.0 L339.2,420.0 L340.0,420.0 L340.9,420.0 L341.7,420.0 L342.6,420.0 L343.4,420.0 L344.2,420.0 L345.1,420.0 L345.9,420.0 L346.8,420.0 L347.6,420.0 L348.4,420.0 L349.3,420.0 L350.1,420.0 L351.0,420.0 L351.8,420.0 L352.7,420.0 L353.5,420.0 L354.3,420.0 L355.2,420.0 L356.0,420.0 L356.9,420.0 L357.7,420.0 L358.5,420.0 L359.4,420.0 L360.2,420.0 L361.1,420.0 L361.9,420.0 L362.7,420.0 L363.6,420.0 L364.4,420.0 L365.3,420.0 L366.1,420.0 L367.0,420.0 L367.8,420.0 L368.6,420.0 L369.5,420.0 L370.3,420.0 L371.2,420.0 L372.0,420.0 L372.8,420.0 L373.7,420.0 L374.5,420.0 L375.4,420.0 L376.2,420.0 L377.1,420.0 L377.9,420.0 L378.7,420.0 L379.6,420.0 L380.4,420.0 L381.3,420.0 L382.1,420.0 L382.9,420.0 L383.8,420.0 L384.6,420.0 L385.5,420.0 L386.3,420.0 L387.2,420.0 L388.0,420.0 L388.8,420.0 L389.7,420.0 L390.5,420.0 L391.4,420.0 L392.2,420.0 L393.0,420.0 L393.9,420.0 L394.7,420.0 L395.6,420.0 L396.4,420.0 L397.3,420.0 L398.1,420.0 L398.9,420.0 L399.8,420.0 L400.6,420.0 L401.5,420.0 L402.3,420.0 L403.1,420.0 L404.0,420.0 L404.8,420.0 L405.7,420.0 L406.5,420.0 L407.3,420.0 L408.2,420.0 L409.0,420.0 L409.9,420.0 L410.7,420.0 L411.6,420.0 L412.4,420.0 L413.2,420.0 L414.1,420.0 L414.9,420.0 L415.8,420.0 L416.6,420.0 L417.4,420.0 L418.3,420.0 L419.1,420.0 L420.0,420.0 L420.8,420.0 L421.7,420.0 L422.5,420.0 L423.3,420.0 L424.2,420.0 L425.0,420.0 L425.9,420.0 L426.7,420.0 L427.5,420.0 L428.4,420.0 L429.2,420.0 L430.1,420.0 L430.9,420.0 L431.8,420.0 L432.6,420.0 L433.4,420.0 L434.3,420.0 L435.1,420.0 L436.0,420.0 L436.8,420.0 L437.6,420.0 L438.5,420.0 L439.3,420.0 L440.2,420.0 L441.0,420.0 L441.9,420.0 L442.7,420.0 L443.5,420.0 L444.4,420.0 L445.2,420.0 L446.1,420.0 L446.9,420.0 L447.7,420.0 L448.6,420.0 L449.4,420.0 L450.3,420.0 L451.1,420.0 L451.9,420.0 L452.8,420.0 L453.6,420.0 L454.5,420.0 L455.3,420.0 L456.2,420.0 L457.0,420.0 L457.8,420.0 L458.7,420.0 L459.5,420.0 L460.4,420.0 L461.2,420.0 L462.0,420.0 L462.9,420.0 L463.7,420.0 L464.6,420.0 L465.4,420.0 L466.3,420.0 L467.1,420.0 L467.9,420.0 L468.8,420.0 L469.6,420.0 L470.5,420.0 L471.3,420.0 L472.1,420.0 L473.0,420.0 L473.8,420.0 L474.7,420.0 L475.5,420.0 L476.4,420.0 L477.2,420.0 L478.0,420.0 L478.9,420.0 L479.7,420.0 L480.6,420.0 L481.4,420.0 L482.2,420.0 L483.1,420.0 L483.9,420.0 L484.8,420.0 L485.6,420.0 L486.5,420.0 L487.3,420.0 L488.1,420.0 L489.0,420.0 L489.8,420.0 L490.7,420.0 L491.5,420.0 L492.3,420.0 L493.2,420.0 L494.0,420.0 L494.9,420.0 L495.7,420.0 L496.5,420.0 L497.4,420.0 L498.2,420.0 L499.1,420.0 L499.9,420.0 L500.8,420.0 L501.6,420.0 L502.4,420.0 L503.3,420.0 L504.1,420.0 L505.0,420.0 L505.8,420.0 L506.6,420.0 L507.5,420.0 L508.3,420.0 L509.2,420.0 L510.0,420.0 L510.9,420.0 L511.7,420.0 L512.5,420.0 L513.4,420.0 L514.2,420.0 L515.1,420.0 L515.9,420.0 L516.7,420.0 L517.6,420.0 L518.4,420.0 L519.3,420.0 L520.1,420.0 L521.0,420.0 L521.8,420.0 L522.6,420.0 L523.5,420.0 L524.3,420.0 L525.2,420.0 L526.0,420.0 L526.8,420.0 L527.7,420.0 L528.5,420.0 L529.4,420.0 L530.2,420.0 L531.1,420.0 L531.9,420.0 L532.7,420.0 L533.6,420.0 L534.4,420.0 L535.3,420.0 L536.1,420.0 L536.9,420.0 L537.8,420.0 L538.6,420.0 L539.5,420.0 L540.3,420.0 L541.2,420.0 L542.0,420.0 L542.8,420.0 L543.7,420.0 L544.5,420.0 L545.4,420.0 L546.2,420.0 L547.0,420.0 L547.9,420.0 L548.7,420.0 L549.6,420.0 L550.4,420.0 L551.2,420.0 L552.1,420.0 L552.9,420.0 L553.8,420.0 L554.6,420.0 L555.5,420.0 L556.3,420.0 L557.1,420.0 L558.0,420.0 L558.8,420.0 L559.7,420.0 L560.5,420.0 L561.3,420.0 L562.2,420.0 L563.0,420.0 L563.9,420.0 L564.7,420.0 L565.6,420.0 L566.4,420.0 L567.2,420.0 L568.1,420.0 L568.9,420.0 L569.8,420.0 L570.6,420.0 L571.4,420.0 L572.3,420.0 L573.1,420.0 L574.0,420.0 L574.8,420.0 L575.7,420.0 L576.5,420.0 L577.3,420.0 L578.2,420.0 L579.0,420.0 L579.9,420.0 L580.7,420.0 L581.5,420.0 L582.4,420.0 L583.2,420.0 L584.1,420.0 L584.9,420.0 L585.8,420.0 L586.6,420.0 L587.4,420.0 L588.3,420.0 L589.1,420.0 L590.0,420.0 L590.8,420.0 L591.6,420.0 L592.5,420.0 L593.3,420.0 L594.2,420.0 L595.0,420.0 L595.8,420.0 L596.7,420.0 L597.5,420.0 L598.4,420.0 L599.2,420.0 L600.1,420.0 L600.9,420.0 L601.7,420.0 L602.6,420.0 L603.4,420.0 L604.3,420.0 L605.1,420.0 L605.9,420.0 L606.8,420.0 L607.6,420.0 L608.5,420.0 L609.3,420.0 L610.2,420.0 L611.0,420.0 L611.8,420.0 L612.7,420.0 L613.5,420.0 L614.4,420.0 L615.2,420.0 L616.0,420.0 L616.9,420.0 L617.7,420.0 L618.6,420.0 L619.4,420.0 L620.3,420.0 L621.1,420.0 L621.9,420.0 L622.8,420.0 L623.6,420.0 L624.5,420.0 L625.3,420.0 L626.1,420.0 L627.0,420.0 L627.8,420.0 L628.7,420.0 L629.5,420.0 L630.4,420.0 L631.2,420.0 L632.0,420.0 L632.9,420.0 L633.7,420.0 L634.6,420.0 L635.4,420.0 L636.2,420.0 L637.1,420.0 L637.9,420.0 L638.8,420.0 L639.6,420.0 L640.4,420.0 L641.3,420.0 L642.1,420.0 L643.0,420.0 L643.8,420.0 L644.7,420.0 L645.5,420.0 L646.3,420.0 L647.2,420.0 L648.0,420.0 L648.9,420.0 L649.7,420.0 L650.5,420.0 L651.4,420.0 L652.2,420.0 L653.1,420.0 L653.9,420.0 L654.8,420.0 L655.6,420.0 L656.4,420.0 L657.3,420.0 L658.1,420.0 L659.0,420.0 L659.8,420.0 L660.6,420.0 L661.5,420.0 L662.3,420.0 L663.2,420.0 L664.0,420.0 L664.9,420.0 L665.7,420.0 L666.5,420.0 L667.4,420.0 L668.2,420.0 L669.1,420.0 L669.9,420.0 L670.7,420.0 L671.6,420.0 L672.4,420.0 L673.3,420.0 L674.1,420.0 L675.0,420.0 L675.8,420.0 L676.6,420.0 L677.5,420.0 L678.3,420.0 L679.2,420.0 L680.0,420.0" stroke="#e377c2" stroke-width="2" fill="none" opacity="0.8"/>

<!-- Legend -->
<line x1="690" y1="70" x2="705" y2="70" stroke="#1f77b4" stroke-width="3"/>
<text x="710" y="74" class="legend">Wind Generation</text>
<line x1="690" y1="88" x2="705" y2="88" stroke="#ff7f0e" stroke-width="3"/>
<text x="710" y="92" class="legend">Hydro Generation</text>
<line x1="690" y1="106" x2="705" y2="106" stroke="#2ca02c" stroke-width="3"/>
<text x="710" y="110" class="legend">Thermal Generation</text>
<line x1="690" y1="124" x2="705" y2="124" stroke="#d62728" stroke-width="3"/>
<text x="710" y="128" class="legend">Solar Generation</text>
<line x1="690" y1="142" x2="705" y2="142" stroke="#9467bd" stroke-width="3"/>
<text x="710" y="146" class="legend">Forecast</text>
<line x1="690" y1="160" x2="705" y2="160" stroke="#8c564b" stroke-width="3"/>
<text x="710" y="164" class="legend">Total Generation</text>
<line x1="690" y1="178" x2="705" y2="178" stroke="#e377c2" stroke-width="3"/>
<text x="710" y="182" class="legend">Forecast Difference</text>

<!-- Date range -->
<text x="80" y="495" class="legend">Range: 05/22 - 06/20/2026 (714 records)</text>
</svg>