<?xml version="1.0" encoding="UTF-8"?>
<svg width="800" height="500" xmlns="http://www.w3.org/2000/svg">
<style>
.axis-line { stroke: #333; stroke-width: 1; }
.grid-line { stroke: #ddd; stroke-width: 0.5; }
.title { font: 16px Arial; text-anchor: middle; fill: #333; }
.axis-label { font: 12px Arial; text-anchor: middle; fill: #666; }
.legend { font: 10px Arial; fill: #333; }
</style>

<!-- Title -->
<text x="400.0" y="25" class="title">Northwestern Energy Generation Data - Past 30 Days</text>

<!-- Plot area background -->
<rect x="80" y="50" width="600" height="370" fill="white" stroke="#ddd"/>

<!-- Y-axis -->
<line x1="80" y1="50" x2="80" y2="420" class="axis-line"/>
<text x="30" y="235.0" class="axis-label" transform="rotate(-90, 30, 235.0)">Generation (MW)</text>

<!-- X-axis -->
<line x1="80" y1="420" x2="680" y2="420" class="axis-line"/>
<text x="380.0" y="480" class="axis-label">Time</text>
<line x1="80" y1="420.0" x2="680" y2="420.0" class="grid-line"/>
<text x="70" y="425.0" class="legend" text-anchor="end">0</text>
<line x1="80" y1="327.5" x2="680" y2="327.5" class="grid-line"/>
<text x="70" y="332.5" class="legend" text-anchor="end">302</text>
<line x1="80" y1="235.0" x2="680" y2="235.0" class="grid-line"/>
<text x="70" y="240.0" class="legend" text-anchor="end">604</text>
<line x1="80" y1="142.5" x2="680" y2="142.5" class="grid-line"/>
<text x="70" y="147.5" class="legend" text-anchor="end">906</text>
<line x1="80" y1="50.0" x2="680" y2="50.0" class="grid-line"/>
<text x="70" y="55.0" class="legend" text-anchor="end">1209</text>
<!-- Wind Generation -->
<path d="M80.0,412.3 L80.8,409.0 L81.7,406.8 L82.5,405.6 L83.4,411.4 L84.2,408.4 L85.0,409.0 L85.9,406.8 L86.7,403.8 L87.6,407.4 L88.4,407.4 L89.3,397.0 L90.1,389.7 L90.9,379.6 L91.8,394.6 L92.6,412.3 L93.5,411.1 L94.3,410.8 L95.1,411.7 L96.0,415.1 L96.8,411.4 L97.7,406.8 L98.5,399.2 L99.4,383.0 L100.2,371.0 L101.0,361.2 L101.9,348.1 L102.7,377.1 L103.6,369.8 L104.4,373.5 L105.2,367.6 L106.1,365.5 L106.9,364.3 L107.8,359.4 L108.6,353.0 L109.5,332.7 L110.3,333.1 L111.1,339.5 L112.0,345.9 L112.8,355.1 L113.7,358.8 L114.5,365.2 L115.3,368.9 L116.2,384.8 L117.0,396.4 L117.9,405.9 L118.7,410.5 L119.6,409.3 L120.4,409.9 L121.2,411.1 L122.1,411.7 L122.9,413.3 L123.8,412.0 L124.6,403.8 L125.4,398.6 L126.3,400.1 L127.1,404.1 L128.0,405.3 L128.8,409.6 L129.6,410.2 L130.5,409.3 L131.3,407.4 L132.2,398.3 L133.0,386.9 L133.9,374.7 L134.7,380.2 L135.5,397.0 L136.4,408.4 L137.2,413.3 L138.1,415.4 L138.9,416.6 L139.7,418.5 L140.6,413.9 L141.4,406.5 L142.3,413.0 L143.1,413.6 L144.0,409.0 L144.8,386.6 L145.6,381.7 L146.5,385.7 L147.3,372.5 L148.2,379.3 L149.0,354.8 L149.8,343.8 L150.7,363.7 L151.5,389.4 L152.4,371.9 L153.2,335.8 L154.1,322.3 L154.9,353.6 L155.7,323.3 L156.6,337.6 L157.4,340.7 L158.3,317.7 L159.1,330.6 L159.9,326.9 L160.8,348.1 L161.6,344.1 L162.5,348.4 L163.3,359.1 L164.2,364.3 L165.0,377.4 L165.8,373.5 L166.7,348.1 L167.5,365.5 L168.4,357.5 L169.2,329.1 L170.0,359.1 L170.9,359.1 L171.7,322.9 L172.6,314.7 L173.4,313.5 L174.2,321.1 L175.1,341.9 L175.9,328.5 L176.8,325.1 L177.6,322.9 L178.5,315.3 L179.3,312.5 L180.1,314.4 L181.0,348.4 L181.8,322.3 L182.7,314.4 L183.5,321.7 L184.3,339.8 L185.2,318.7 L186.0,318.7 L186.9,317.1 L187.7,338.9 L188.6,352.0 L189.4,332.1 L190.2,329.1 L191.1,346.2 L191.9,356.6 L192.8,357.2 L193.6,365.8 L194.4,370.7 L195.3,374.4 L196.1,396.1 L197.0,398.9 L197.8,400.4 L198.7,392.4 L199.5,396.4 L200.3,404.1 L201.2,407.8 L202.0,398.0 L202.9,398.3 L203.7,403.2 L204.5,398.0 L205.4,395.8 L206.2,400.1 L207.1,398.3 L207.9,405.9 L208.8,408.1 L209.6,413.0 L210.4,411.1 L211.3,382.3 L212.1,372.2 L213.0,349.0 L213.8,349.6 L214.6,368.6 L215.5,364.9 L216.3,382.0 L217.2,373.8 L218.0,351.1 L218.8,362.4 L219.7,367.3 L220.5,367.6 L221.4,380.2 L222.2,389.7 L223.1,369.2 L223.9,383.0 L224.7,377.4 L225.6,376.2 L226.4,375.6 L227.3,344.4 L228.1,335.5 L228.9,333.7 L229.8,332.1 L230.6,355.4 L231.5,353.3 L232.3,357.9 L233.2,332.1 L234.0,342.8 L234.8,363.4 L235.7,365.5 L236.5,366.1 L237.4,382.0 L238.2,370.7 L239.0,376.2 L239.9,374.7 L240.7,379.9 L241.6,371.3 L242.4,377.4 L243.3,376.5 L244.1,362.1 L244.9,364.6 L245.8,374.7 L246.6,380.8 L247.5,390.3 L248.3,375.3 L249.1,389.7 L250.0,405.6 L250.8,405.0 L251.7,397.0 L252.5,395.5 L253.4,401.9 L254.2,404.4 L255.0,413.6 L255.9,407.8 L256.7,403.8 L257.6,398.6 L258.4,406.2 L259.2,412.3 L260.1,414.2 L260.9,416.0 L261.8,415.1 L262.6,411.1 L263.5,409.3 L264.3,412.0 L265.1,401.9 L266.0,389.1 L266.8,376.5 L267.7,365.5 L268.5,357.5 L269.3,358.8 L270.2,353.3 L271.0,374.1 L271.9,370.4 L272.7,369.5 L273.5,371.6 L274.4,372.9 L275.2,381.7 L276.1,396.4 L276.9,395.5 L277.8,392.8 L278.6,377.1 L279.4,370.7 L280.3,357.2 L281.1,360.6 L282.0,371.0 L282.8,364.3 L283.6,379.3 L284.5,391.2 L285.3,390.6 L286.2,367.0 L287.0,352.6 L287.9,369.8 L288.7,363.4 L289.5,371.9 L290.4,369.5 L291.2,386.0 L292.1,374.7 L292.9,374.1 L293.7,378.7 L294.6,390.0 L295.4,398.3 L296.3,401.0 L297.1,401.3 L298.0,405.6 L298.8,398.0 L299.6,402.2 L300.5,388.5 L301.3,375.9 L302.2,366.1 L303.0,374.7 L303.8,371.9 L304.7,373.8 L305.5,372.5 L306.4,386.9 L307.2,390.3 L308.1,391.5 L308.9,390.6 L309.7,399.2 L310.6,387.2 L311.4,392.1 L312.3,404.4 L313.1,394.3 L313.9,383.3 L314.8,390.3 L315.6,405.0 L316.5,399.8 L317.3,388.2 L318.1,393.7 L319.0,398.3 L319.8,405.3 L320.7,398.0 L321.5,392.1 L322.4,393.7 L323.2,397.3 L324.0,401.0 L324.9,403.8 L325.7,412.0 L326.6,412.3 L327.4,414.5 L328.2,416.9 L329.1,416.0 L329.9,415.7 L330.8,414.8 L331.6,409.0 L332.5,408.7 L333.3,406.5 L334.1,409.9 L335.0,414.8 L335.8,417.2 L336.7,409.3 L337.5,409.6 L338.3,413.9 L339.2,416.6 L340.0,417.9 L340.9,413.9 L341.7,410.2 L342.6,409.9 L343.4,408.4 L344.2,411.4 L345.1,413.6 L345.9,413.3 L346.8,395.8 L347.6,376.2 L348.4,379.9 L349.3,361.8 L350.1,362.7 L351.0,368.3 L351.8,375.6 L352.7,372.2 L353.5,378.1 L354.3,386.9 L355.2,402.2 L356.0,402.9 L356.9,406.2 L357.7,410.2 L358.5,413.6 L359.4,415.4 L360.2,410.8 L361.1,401.9 L361.9,392.1 L362.7,392.1 L363.6,377.4 L364.4,367.0 L365.3,379.3 L366.1,368.3 L367.0,354.5 L367.8,359.4 L368.6,343.2 L369.5,334.9 L370.3,353.6 L371.2,352.3 L372.0,352.6 L372.8,352.3 L373.7,365.2 L374.5,377.8 L375.4,382.3 L376.2,379.0 L377.1,383.3 L377.9,400.4 L378.7,403.2 L379.6,407.8 L380.4,407.8 L381.3,406.8 L382.1,406.8 L382.9,409.0 L383.8,411.7 L384.6,412.7 L385.5,414.2 L386.3,415.7 L387.2,416.9 L388.0,416.0 L388.8,413.6 L389.7,413.9 L390.5,409.9 L391.4,416.6 L392.2,412.0 L393.0,416.3 L393.9,405.6 L394.7,404.7 L395.6,390.3 L396.4,376.2 L397.3,408.4 L398.1,409.6 L398.9,407.4 L399.8,415.7 L400.6,417.9 L401.5,417.2 L402.3,416.6 L403.1,413.6 L404.0,413.0 L404.8,413.6 L405.7,416.3 L406.5,415.4 L407.3,413.9 L408.2,412.3 L409.0,406.5 L409.9,389.1 L410.7,389.4 L411.6,354.8 L412.4,336.4 L413.2,324.2 L414.1,315.3 L414.9,325.4 L415.8,333.7 L416.6,337.6 L417.4,362.7 L418.3,371.0 L419.1,387.9 L420.0,397.3 L420.8,390.3 L421.7,384.8 L422.5,398.3 L423.3,396.7 L424.2,391.8 L425.0,379.3 L425.9,385.4 L426.7,394.0 L427.5,400.1 L428.4,405.9 L429.2,404.7 L430.1,405.9 L430.9,387.2 L431.8,388.5 L432.6,400.7 L433.4,403.2 L434.3,401.0 L435.1,387.9 L436.0,390.0 L436.8,381.4 L437.6,385.7 L438.5,384.5 L439.3,383.6 L440.2,389.1 L441.0,395.5 L441.9,368.9 L442.7,376.8 L443.5,394.9 L444.4,417.9 L445.2,405.9 L446.1,403.8 L446.9,411.1 L447.7,416.6 L448.6,420.0 L449.4,417.9 L450.3,410.8 L451.1,408.7 L451.9,404.4 L452.8,405.6 L453.6,401.3 L454.5,394.9 L455.3,388.8 L456.2,400.4 L457.0,371.6 L457.8,380.5 L458.7,402.2 L459.5,372.9 L460.4,395.5 L461.2,403.2 L462.0,377.8 L462.9,372.5 L463.7,369.2 L464.6,388.2 L465.4,388.5 L466.3,395.8 L467.1,410.8 L467.9,419.4 L468.8,419.4 L469.6,419.1 L470.5,417.9 L471.3,418.5 L472.1,409.9 L473.0,399.2 L473.8,384.2 L474.7,394.0 L475.5,358.8 L476.4,366.7 L477.2,340.4 L478.0,356.3 L478.9,364.6 L479.7,356.3 L480.6,341.0 L481.4,332.4 L482.2,349.6 L483.1,354.5 L483.9,370.4 L484.8,389.7 L485.6,385.1 L486.5,402.2 L487.3,417.2 L488.1,414.2 L489.0,409.3 L489.8,408.7 L490.7,401.0 L491.5,393.7 L492.3,391.2 L493.2,383.6 L494.0,382.3 L494.9,384.8 L495.7,360.9 L496.5,349.6 L497.4,339.8 L498.2,330.6 L499.1,344.1 L499.9,360.6 L500.8,359.7 L501.6,351.4 L502.4,335.8 L503.3,330.3 L504.1,331.8 L505.0,330.0 L505.8,326.0 L506.6,351.7 L507.5,351.4 L508.3,351.4 L509.2,352.3 L510.0,353.3 L510.9,348.1 L511.7,350.8 L512.5,352.6 L513.4,354.2 L514.2,356.9 L515.1,316.5 L515.9,318.4 L516.7,323.6 L517.6,332.7 L518.4,357.5 L519.3,345.6 L520.1,347.1 L521.0,351.4 L521.8,350.8 L522.6,351.4 L523.5,349.9 L524.3,360.6 L525.2,373.2 L526.0,372.2 L526.8,368.0 L527.7,356.9 L528.5,352.3 L529.4,330.6 L530.2,326.0 L531.1,324.8 L531.9,323.3 L532.7,316.2 L533.6,338.9 L534.4,324.2 L535.3,329.7 L536.1,322.6 L536.9,354.8 L537.8,335.5 L538.6,349.6 L539.5,352.6 L540.3,372.5 L541.2,367.3 L542.0,368.0 L542.8,376.2 L543.7,381.4 L544.5,386.9 L545.4,380.8 L546.2,390.9 L547.0,394.9 L547.9,401.6 L548.7,403.8 L549.6,384.8 L550.4,383.0 L551.2,376.8 L552.1,372.9 L552.9,365.5 L553.8,372.9 L554.6,381.7 L555.5,365.5 L556.3,359.4 L557.1,376.5 L558.0,385.4 L558.8,391.2 L559.7,388.8 L560.5,394.3 L561.3,404.1 L562.2,406.8 L563.0,409.9 L563.9,406.8 L564.7,400.4 L565.6,404.7 L566.4,403.8 L567.2,410.2 L568.1,414.8 L568.9,418.5 L569.8,420.0 L570.6,420.0 L571.4,418.5 L572.3,417.9 L573.1,416.3 L574.0,413.6 L574.8,413.0 L575.7,409.3 L576.5,398.6 L577.3,378.7 L578.2,381.4 L579.0,385.1 L579.9,395.2 L580.7,397.3 L581.5,405.3 L582.4,406.2 L583.2,416.3 L584.1,416.9 L584.9,416.0 L585.8,405.3 L586.6,396.4 L587.4,395.2 L588.3,399.8 L589.1,391.5 L590.0,374.1 L590.8,353.9 L591.6,347.1 L592.5,337.6 L593.3,342.2 L594.2,340.1 L595.0,347.1 L595.8,344.1 L596.7,347.4 L597.5,362.1 L598.4,369.8 L599.2,380.8 L600.1,390.9 L600.9,407.8 L601.7,417.9 L602.6,417.6 L603.4,419.4 L604.3,419.4 L605.1,418.8 L605.9,416.0 L606.8,415.1 L607.6,415.1 L608.5,412.3 L609.3,411.1 L610.2,392.1 L611.0,381.7 L611.8,391.8 L612.7,389.4 L613.5,386.6 L614.4,388.8 L615.2,398.6 L616.0,405.3 L616.9,407.4 L617.7,407.4 L618.6,401.6 L619.4,368.0 L620.3,387.9 L621.1,392.8 L621.9,377.8 L622.8,368.9 L623.6,368.0 L624.5,373.2 L625.3,370.4 L626.1,358.8 L627.0,364.9 L627.8,379.3 L628.7,396.1 L629.5,385.7 L630.4,388.5 L631.2,391.2 L632.0,408.4 L632.9,415.7 L633.7,413.9 L634.6,394.0 L635.4,384.8 L636.2,389.1 L637.1,394.3 L637.9,364.9 L638.8,376.8 L639.6,369.5 L640.4,345.9 L641.3,352.6 L642.1,368.0 L643.0,355.7 L643.8,393.7 L644.7,401.6 L645.5,377.8 L646.3,375.9 L647.2,373.2 L648.0,364.0 L648.9,409.6 L649.7,405.6 L650.5,403.2 L651.4,407.4 L652.2,391.8 L653.1,387.9 L653.9,363.7 L654.8,353.0 L655.6,354.2 L656.4,323.6 L657.3,327.2 L658.1,330.0 L659.0,310.7 L659.8,306.1 L660.6,317.4 L661.5,316.8 L662.3,310.1 L663.2,307.3 L664.0,308.3 L664.9,332.1 L665.7,360.6 L666.5,354.8 L667.4,366.4 L668.2,368.0 L669.1,364.0 L669.9,360.9 L670.7,360.3 L671.6,368.3 L672.4,382.3 L673.3,394.0 L674.1,405.6 L675.0,400.1 L675.8,404.7 L676.6,406.8 L677.5,390.0 L678.3,391.8 L679.2,379.3 L680.0,379.6" stroke="#1f77b4" stroke-width="2" fill="none" opacity="0.8"/>
<!-- Hydro Generation -->
<path d="M80.0,334.3 L80.8,334.6 L81.7,334.3 L82.5,334.6 L83.4,334.3 L84.2,334.6 L85.0,334.6 L85.9,334.6 L86.7,334.3 L87.6,334.3 L88.4,334.3 L89.3,334.3 L90.1,334.6 L90.9,334.9 L91.8,333.7 L92.6,333.7 L93.5,334.0 L94.3,333.7 L95.1,333.7 L96.0,332.7 L96.8,332.4 L97.7,332.4 L98.5,332.7 L99.4,332.7 L100.2,332.7 L101.0,332.7 L101.9,332.4 L102.7,332.4 L103.6,336.4 L104.4,336.1 L105.2,335.2 L106.1,335.5 L106.9,336.4 L107.8,337.0 L108.6,336.4 L109.5,336.7 L110.3,337.3 L111.1,336.4 L112.0,336.7 L112.8,336.7 L113.7,337.0 L114.5,336.7 L115.3,336.7 L116.2,336.7 L117.0,335.5 L117.9,336.1 L118.7,336.4 L119.6,335.2 L120.4,335.2 L121.2,335.5 L122.1,335.5 L122.9,335.5 L123.8,335.2 L124.6,334.9 L125.4,336.1 L126.3,336.4 L127.1,336.7 L128.0,336.7 L128.8,337.0 L129.6,337.0 L130.5,337.3 L131.3,337.3 L132.2,336.7 L133.0,337.0 L133.9,336.7 L134.7,336.7 L135.5,336.7 L136.4,336.7 L137.2,337.0 L138.1,337.0 L138.9,337.0 L139.7,336.7 L140.6,336.7 L141.4,336.4 L142.3,336.7 L143.1,336.7 L144.0,337.3 L144.8,336.7 L145.6,336.7 L146.5,336.4 L147.3,336.7 L148.2,336.4 L149.0,336.7 L149.8,332.1 L150.7,331.5 L151.5,331.2 L152.4,330.6 L153.2,330.6 L154.1,330.9 L154.9,330.6 L155.7,329.7 L156.6,328.5 L157.4,326.9 L158.3,324.5 L159.1,322.0 L159.9,321.7 L160.8,320.5 L161.6,321.7 L162.5,322.0 L163.3,322.3 L164.2,323.9 L165.0,323.6 L165.8,323.9 L166.7,323.9 L167.5,323.6 L168.4,323.3 L169.2,322.9 L170.0,322.3 L170.9,322.0 L171.7,322.3 L172.6,322.6 L173.4,322.0 L174.2,322.0 L175.1,322.9 L175.9,322.3 L176.8,323.3 L177.6,323.3 L178.5,322.9 L179.3,322.9 L180.1,321.7 L181.0,321.1 L181.8,319.0 L182.7,318.4 L183.5,316.8 L184.3,315.6 L185.2,314.1 L186.0,312.8 L186.9,312.8 L187.7,312.5 L188.6,312.5 L189.4,312.8 L190.2,312.2 L191.1,311.9 L191.9,311.9 L192.8,312.2 L193.6,311.9 L194.4,312.2 L195.3,312.2 L196.1,312.5 L197.0,311.9 L197.8,312.2 L198.7,312.2 L199.5,312.2 L200.3,312.2 L201.2,312.2 L202.0,312.5 L202.9,312.2 L203.7,312.2 L204.5,311.6 L205.4,312.8 L206.2,312.5 L207.1,313.8 L207.9,314.4 L208.8,314.4 L209.6,314.4 L210.4,315.0 L211.3,316.8 L212.1,317.7 L213.0,318.4 L213.8,320.2 L214.6,321.1 L215.5,322.0 L216.3,322.9 L217.2,323.9 L218.0,323.9 L218.8,323.9 L219.7,323.9 L220.5,323.3 L221.4,322.6 L222.2,322.9 L223.1,322.9 L223.9,323.3 L224.7,322.9 L225.6,323.3 L226.4,324.5 L227.3,324.5 L228.1,325.7 L228.9,326.0 L229.8,326.3 L230.6,325.7 L231.5,326.9 L232.3,327.8 L233.2,327.2 L234.0,326.3 L234.8,326.9 L235.7,326.6 L236.5,327.2 L237.4,328.5 L238.2,328.2 L239.0,329.1 L239.9,328.8 L240.7,329.1 L241.6,329.4 L242.4,329.4 L243.3,329.7 L244.1,329.4 L244.9,326.3 L245.8,326.3 L246.6,323.6 L247.5,322.3 L248.3,322.0 L249.1,321.7 L250.0,322.0 L250.8,321.7 L251.7,321.7 L252.5,321.7 L253.4,321.7 L254.2,320.8 L255.0,320.8 L255.9,319.6 L256.7,319.6 L257.6,319.6 L258.4,319.6 L259.2,319.6 L260.1,319.9 L260.9,320.2 L261.8,320.2 L262.6,320.2 L263.5,320.2 L264.3,320.2 L265.1,320.5 L266.0,320.2 L266.8,319.3 L267.7,319.6 L268.5,319.9 L269.3,319.6 L270.2,319.6 L271.0,319.3 L271.9,319.3 L272.7,319.6 L273.5,319.9 L274.4,320.2 L275.2,320.5 L276.1,321.1 L276.9,322.6 L277.8,322.3 L278.6,322.3 L279.4,322.3 L280.3,323.6 L281.1,323.3 L282.0,324.8 L282.8,324.8 L283.6,325.1 L284.5,324.8 L285.3,324.8 L286.2,324.5 L287.0,324.8 L287.9,324.8 L288.7,324.5 L289.5,324.2 L290.4,324.5 L291.2,324.5 L292.1,324.5 L292.9,324.5 L293.7,324.5 L294.6,324.8 L295.4,324.5 L296.3,324.8 L297.1,324.5 L298.0,324.8 L298.8,324.8 L299.6,324.5 L300.5,325.4 L301.3,325.7 L302.2,326.3 L303.0,326.3 L303.8,327.5 L304.7,327.5 L305.5,326.6 L306.4,326.6 L307.2,326.9 L308.1,326.6 L308.9,326.9 L309.7,326.6 L310.6,328.2 L311.4,326.9 L312.3,326.6 L313.1,326.3 L313.9,326.0 L314.8,326.6 L315.6,326.6 L316.5,326.0 L317.3,325.4 L318.1,325.7 L319.0,326.0 L319.8,325.4 L320.7,325.7 L321.5,326.6 L322.4,326.6 L323.2,327.2 L324.0,327.2 L324.9,327.2 L325.7,327.2 L326.6,327.2 L327.4,325.4 L328.2,325.7 L329.1,326.0 L329.9,325.7 L330.8,325.7 L331.6,325.4 L332.5,325.4 L333.3,324.8 L334.1,325.1 L335.0,324.2 L335.8,324.8 L336.7,324.8 L337.5,326.0 L338.3,326.0 L339.2,325.7 L340.0,325.7 L340.9,326.6 L341.7,326.9 L342.6,326.9 L343.4,327.8 L344.2,328.5 L345.1,328.2 L345.9,327.8 L346.8,327.8 L347.6,327.5 L348.4,327.2 L349.3,327.8 L350.1,328.5 L351.0,329.1 L351.8,328.5 L352.7,328.2 L353.5,328.2 L354.3,328.8 L355.2,328.5 L356.0,328.2 L356.9,328.2 L357.7,328.2 L358.5,328.2 L359.4,328.2 L360.2,328.2 L361.1,328.2 L361.9,327.8 L362.7,328.2 L363.6,328.2 L364.4,328.5 L365.3,327.8 L366.1,328.2 L367.0,328.5 L367.8,328.5 L368.6,328.8 L369.5,328.5 L370.3,329.7 L371.2,330.0 L372.0,329.7 L372.8,330.6 L373.7,330.6 L374.5,329.7 L375.4,329.4 L376.2,329.7 L377.1,330.0 L377.9,329.7 L378.7,329.7 L379.6,330.0 L380.4,331.5 L381.3,331.2 L382.1,332.7 L382.9,332.4 L383.8,332.4 L384.6,332.7 L385.5,333.4 L386.3,332.4 L387.2,332.7 L388.0,332.4 L388.8,333.7 L389.7,332.4 L390.5,332.7 L391.4,332.7 L392.2,332.1 L393.0,332.1 L393.9,331.8 L394.7,331.5 L395.6,331.5 L396.4,330.6 L397.3,331.2 L398.1,330.9 L398.9,330.6 L399.8,330.6 L400.6,330.0 L401.5,330.0 L402.3,330.3 L403.1,330.0 L404.0,330.0 L404.8,330.3 L405.7,330.9 L406.5,331.2 L407.3,331.5 L408.2,331.5 L409.0,330.0 L409.9,330.3 L410.7,330.0 L411.6,330.0 L412.4,330.0 L413.2,311.9 L414.1,328.5 L414.9,328.8 L415.8,329.7 L416.6,329.7 L417.4,330.9 L418.3,330.9 L419.1,330.6 L420.0,330.6 L420.8,330.6 L421.7,330.6 L422.5,332.7 L423.3,332.7 L424.2,332.7 L425.0,332.7 L425.9,333.1 L426.7,334.6 L427.5,334.6 L428.4,335.8 L429.2,332.7 L430.1,330.3 L430.9,330.0 L431.8,330.0 L432.6,329.7 L433.4,330.3 L434.3,329.4 L435.1,329.4 L436.0,329.1 L436.8,329.1 L437.6,328.8 L438.5,328.5 L439.3,328.5 L440.2,328.5 L441.0,328.2 L441.9,328.5 L442.7,327.8 L443.5,327.2 L444.4,327.2 L445.2,326.3 L446.1,326.6 L446.9,326.9 L447.7,325.7 L448.6,325.7 L449.4,325.7 L450.3,322.6 L451.1,322.6 L451.9,322.6 L452.8,320.5 L453.6,317.4 L454.5,317.4 L455.3,317.4 L456.2,317.4 L457.0,316.8 L457.8,316.8 L458.7,316.8 L459.5,316.8 L460.4,316.8 L461.2,316.8 L462.0,316.8 L462.9,316.2 L463.7,316.5 L464.6,315.6 L465.4,315.3 L466.3,315.0 L467.1,314.7 L467.9,313.5 L468.8,313.5 L469.6,313.5 L470.5,313.2 L471.3,312.5 L472.1,313.2 L473.0,313.8 L473.8,311.6 L474.7,312.2 L475.5,310.4 L476.4,309.8 L477.2,309.8 L478.0,308.9 L478.9,309.2 L479.7,309.2 L480.6,308.9 L481.4,308.9 L482.2,308.9 L483.1,307.9 L483.9,307.3 L484.8,307.6 L485.6,307.6 L486.5,307.6 L487.3,306.4 L488.1,307.6 L489.0,308.6 L489.8,308.6 L490.7,308.9 L491.5,309.2 L492.3,308.9 L493.2,309.5 L494.0,308.3 L494.9,308.3 L495.7,307.0 L496.5,304.3 L497.4,302.7 L498.2,300.3 L499.1,318.7 L499.9,300.0 L500.8,298.5 L501.6,298.8 L502.4,318.4 L503.3,318.4 L504.1,318.4 L505.0,317.7 L505.8,317.4 L506.6,317.1 L507.5,316.8 L508.3,316.8 L509.2,316.8 L510.0,317.1 L510.9,296.9 L511.7,298.5 L512.5,298.5 L513.4,298.8 L514.2,298.5 L515.1,298.8 L515.9,300.0 L516.7,300.3 L517.6,300.0 L518.4,300.0 L519.3,300.0 L520.1,300.6 L521.0,300.3 L521.8,300.6 L522.6,300.3 L523.5,300.0 L524.3,300.3 L525.2,300.6 L526.0,300.3 L526.8,300.6 L527.7,300.6 L528.5,300.9 L529.4,300.6 L530.2,300.6 L531.1,300.6 L531.9,300.6 L532.7,300.6 L533.6,300.0 L534.4,299.7 L535.3,299.7 L536.1,299.1 L536.9,298.8 L537.8,299.1 L538.6,299.1 L539.5,299.1 L540.3,299.4 L541.2,299.4 L542.0,299.4 L542.8,299.4 L543.7,299.4 L544.5,299.7 L545.4,299.7 L546.2,299.7 L547.0,299.4 L547.9,298.5 L548.7,298.2 L549.6,298.2 L550.4,297.8 L551.2,298.8 L552.1,299.1 L552.9,300.0 L553.8,300.9 L554.6,300.9 L555.5,300.9 L556.3,301.5 L557.1,301.2 L558.0,300.9 L558.8,300.0 L559.7,300.0 L560.5,300.0 L561.3,300.0 L562.2,300.0 L563.0,300.3 L563.9,300.6 L564.7,300.3 L565.6,300.6 L566.4,300.9 L567.2,300.3 L568.1,300.3 L568.9,300.9 L569.8,301.8 L570.6,300.9 L571.4,301.8 L572.3,301.8 L573.1,301.8 L574.0,301.8 L574.8,301.5 L575.7,302.1 L576.5,302.1 L577.3,302.1 L578.2,301.8 L579.0,302.1 L579.9,301.8 L580.7,301.5 L581.5,301.5 L582.4,301.5 L583.2,301.8 L584.1,301.8 L584.9,302.1 L585.8,302.4 L586.6,302.1 L587.4,302.4 L588.3,301.8 L589.1,302.1 L590.0,302.1 L590.8,301.2 L591.6,302.1 L592.5,302.1 L593.3,302.4 L594.2,303.4 L595.0,303.4 L595.8,303.7 L596.7,303.7 L597.5,303.4 L598.4,303.4 L599.2,303.7 L600.1,304.0 L600.9,304.3 L601.7,304.3 L602.6,304.0 L603.4,304.3 L604.3,304.0 L605.1,304.0 L605.9,304.3 L606.8,304.3 L607.6,302.7 L608.5,302.7 L609.3,302.4 L610.2,302.7 L611.0,302.7 L611.8,305.5 L612.7,303.7 L613.5,302.7 L614.4,302.4 L615.2,302.7 L616.0,302.4 L616.9,302.4 L617.7,302.7 L618.6,303.0 L619.4,303.0 L620.3,303.4 L621.1,303.0 L621.9,303.0 L622.8,303.4 L623.6,303.4 L624.5,303.7 L625.3,304.0 L626.1,304.3 L627.0,304.0 L627.8,304.3 L628.7,304.0 L629.5,304.9 L630.4,304.9 L631.2,304.9 L632.0,304.9 L632.9,304.9 L633.7,304.9 L634.6,305.2 L635.4,305.2 L636.2,305.2 L637.1,304.9 L637.9,305.2 L638.8,304.9 L639.6,304.6 L640.4,305.8 L641.3,306.1 L642.1,306.7 L643.0,306.4 L643.8,306.7 L644.7,307.3 L645.5,307.3 L646.3,307.0 L647.2,307.3 L648.0,307.3 L648.9,306.7 L649.7,307.6 L650.5,307.6 L651.4,307.3 L652.2,307.3 L653.1,307.6 L653.9,307.9 L654.8,307.6 L655.6,307.3 L656.4,307.3 L657.3,307.3 L658.1,307.3 L659.0,306.7 L659.8,307.3 L660.6,307.3 L661.5,307.3 L662.3,307.3 L663.2,307.3 L664.0,307.0 L664.9,306.7 L665.7,306.7 L666.5,307.6 L667.4,307.6 L668.2,309.2 L669.1,308.9 L669.9,307.9 L670.7,307.6 L671.6,307.9 L672.4,307.6 L673.3,307.6 L674.1,307.3 L675.0,307.3 L675.8,308.3 L676.6,307.6 L677.5,308.3 L678.3,307.9 L679.2,308.3 L680.0,308.3" stroke="#ff7f0e" stroke-width="2" fill="none" opacity="0.8"/>
<!-- Thermal Generation -->
<path d="M80.0,305.5 L80.8,309.2 L81.7,321.1 L82.5,330.3 L83.4,317.7 L84.2,348.4 L85.0,354.2 L85.9,353.9 L86.7,354.5 L87.6,354.2 L88.4,354.2 L89.3,354.2 L90.1,353.9 L90.9,354.2 L91.8,354.8 L92.6,327.5 L93.5,287.1 L94.3,260.8 L95.1,304.6 L96.0,329.7 L96.8,352.6 L97.7,353.9 L98.5,353.9 L99.4,354.2 L100.2,353.9 L101.0,353.3 L101.9,353.9 L102.7,354.2 L103.6,353.9 L104.4,354.5 L105.2,354.2 L106.1,353.6 L106.9,354.5 L107.8,354.2 L108.6,354.8 L109.5,354.5 L110.3,354.8 L111.1,342.2 L112.0,308.3 L112.8,226.5 L113.7,213.3 L114.5,219.8 L115.3,212.4 L116.2,240.3 L117.0,263.6 L117.9,230.8 L118.7,231.4 L119.6,248.9 L120.4,221.0 L121.2,230.2 L122.1,235.4 L122.9,242.1 L123.8,266.6 L124.6,266.3 L125.4,287.7 L126.3,314.4 L127.1,323.3 L128.0,323.6 L128.8,322.9 L129.6,247.3 L130.5,216.7 L131.3,223.8 L132.2,218.2 L133.0,220.7 L133.9,214.0 L134.7,213.7 L135.5,225.9 L136.4,245.5 L137.2,269.1 L138.1,353.9 L138.9,353.6 L139.7,353.6 L140.6,353.0 L141.4,353.0 L142.3,354.2 L143.1,353.9 L144.0,354.2 L144.8,349.9 L145.6,354.5 L146.5,354.8 L147.3,355.4 L148.2,356.0 L149.0,356.3 L149.8,357.5 L150.7,357.5 L151.5,357.9 L152.4,357.5 L153.2,356.3 L154.1,355.4 L154.9,355.4 L155.7,354.8 L156.6,355.1 L157.4,354.8 L158.3,354.8 L159.1,354.5 L159.9,355.1 L160.8,355.1 L161.6,354.8 L162.5,353.9 L163.3,354.8 L164.2,354.8 L165.0,354.5 L165.8,354.5 L166.7,355.4 L167.5,354.8 L168.4,354.5 L169.2,354.5 L170.0,354.5 L170.9,354.8 L171.7,354.5 L172.6,354.2 L173.4,354.2 L174.2,354.8 L175.1,355.1 L175.9,353.9 L176.8,353.9 L177.6,353.9 L178.5,354.5 L179.3,354.5 L180.1,353.6 L181.0,354.5 L181.8,354.5 L182.7,355.1 L183.5,356.6 L184.3,354.5 L185.2,354.5 L186.0,353.9 L186.9,353.9 L187.7,354.2 L188.6,353.9 L189.4,353.9 L190.2,353.6 L191.1,353.6 L191.9,353.9 L192.8,356.0 L193.6,356.3 L194.4,354.5 L195.3,355.7 L196.1,353.6 L197.0,352.6 L197.8,355.1 L198.7,354.8 L199.5,372.9 L200.3,372.5 L201.2,372.5 L202.0,372.2 L202.9,372.5 L203.7,372.9 L204.5,372.5 L205.4,372.5 L206.2,372.2 L207.1,372.9 L207.9,372.5 L208.8,372.5 L209.6,372.5 L210.4,372.5 L211.3,372.2 L212.1,372.9 L213.0,372.5 L213.8,372.5 L214.6,372.9 L215.5,372.5 L216.3,371.9 L217.2,371.6 L218.0,371.9 L218.8,372.2 L219.7,371.9 L220.5,372.2 L221.4,371.9 L222.2,371.9 L223.1,372.2 L223.9,372.5 L224.7,372.5 L225.6,372.9 L226.4,372.5 L227.3,372.2 L228.1,372.5 L228.9,372.5 L229.8,372.9 L230.6,372.5 L231.5,372.5 L232.3,372.5 L233.2,372.2 L234.0,372.9 L234.8,372.9 L235.7,371.9 L236.5,372.5 L237.4,372.2 L238.2,371.9 L239.0,371.9 L239.9,372.2 L240.7,372.2 L241.6,372.2 L242.4,372.2 L243.3,372.9 L244.1,372.5 L244.9,372.2 L245.8,372.2 L246.6,372.2 L247.5,372.2 L248.3,372.2 L249.1,372.2 L250.0,372.5 L250.8,372.2 L251.7,353.9 L252.5,353.6 L253.4,353.9 L254.2,313.5 L255.0,324.2 L255.9,331.5 L256.7,328.8 L257.6,300.6 L258.4,322.3 L259.2,317.1 L260.1,316.2 L260.9,293.6 L261.8,291.4 L262.6,303.7 L263.5,296.3 L264.3,331.2 L265.1,331.8 L266.0,371.9 L266.8,372.2 L267.7,372.2 L268.5,371.9 L269.3,372.2 L270.2,369.2 L271.0,372.5 L271.9,356.9 L272.7,332.4 L273.5,332.4 L274.4,294.8 L275.2,294.2 L276.1,329.4 L276.9,316.8 L277.8,293.9 L278.6,322.9 L279.4,332.1 L280.3,331.8 L281.1,332.1 L282.0,332.7 L282.8,332.4 L283.6,326.6 L284.5,334.0 L285.3,333.4 L286.2,333.1 L287.0,355.4 L287.9,372.5 L288.7,370.4 L289.5,350.2 L290.4,335.8 L291.2,335.2 L292.1,369.5 L292.9,333.1 L293.7,304.9 L294.6,298.2 L295.4,294.8 L296.3,294.2 L297.1,293.9 L298.0,294.8 L298.8,293.3 L299.6,319.0 L300.5,316.8 L301.3,322.0 L302.2,336.1 L303.0,316.5 L303.8,318.4 L304.7,334.6 L305.5,333.4 L306.4,333.7 L307.2,360.6 L308.1,351.1 L308.9,351.4 L309.7,350.2 L310.6,348.1 L311.4,331.8 L312.3,332.7 L313.1,332.7 L313.9,332.4 L314.8,295.7 L315.6,283.2 L316.5,310.4 L317.3,319.3 L318.1,308.6 L319.0,315.9 L319.8,325.4 L320.7,326.6 L321.5,326.0 L322.4,323.3 L323.2,319.9 L324.0,319.9 L324.9,336.7 L325.7,373.2 L326.6,372.2 L327.4,369.2 L328.2,371.6 L329.1,371.9 L329.9,371.9 L330.8,371.6 L331.6,371.9 L332.5,371.9 L333.3,347.7 L334.1,332.4 L335.0,286.5 L335.8,283.2 L336.7,285.9 L337.5,288.4 L338.3,297.8 L339.2,296.0 L340.0,311.9 L340.9,298.2 L341.7,307.6 L342.6,311.0 L343.4,307.6 L344.2,307.3 L345.1,333.4 L345.9,372.5 L346.8,371.9 L347.6,371.9 L348.4,372.5 L349.3,370.7 L350.1,371.9 L351.0,371.9 L351.8,368.6 L352.7,372.5 L353.5,372.5 L354.3,372.5 L355.2,370.7 L356.0,369.8 L356.9,372.5 L357.7,372.5 L358.5,374.4 L359.4,376.8 L360.2,377.1 L361.1,376.8 L361.9,376.8 L362.7,377.1 L363.6,377.1 L364.4,376.8 L365.3,376.8 L366.1,377.1 L367.0,377.1 L367.8,376.8 L368.6,377.1 L369.5,377.4 L370.3,377.8 L371.2,378.4 L372.0,378.1 L372.8,378.1 L373.7,378.1 L374.5,378.4 L375.4,377.8 L376.2,337.0 L377.1,338.0 L377.9,336.7 L378.7,336.7 L379.6,337.0 L380.4,359.1 L381.3,358.8 L382.1,358.2 L382.9,358.2 L383.8,331.5 L384.6,332.4 L385.5,332.1 L386.3,332.7 L387.2,332.4 L388.0,332.7 L388.8,332.7 L389.7,333.1 L390.5,334.0 L391.4,297.2 L392.2,308.6 L393.0,291.7 L393.9,291.4 L394.7,313.8 L395.6,324.8 L396.4,316.5 L397.3,331.8 L398.1,332.4 L398.9,333.1 L399.8,333.4 L400.6,330.0 L401.5,330.0 L402.3,330.3 L403.1,330.0 L404.0,328.8 L404.8,329.7 L405.7,324.2 L406.5,323.6 L407.3,323.6 L408.2,314.7 L409.0,324.5 L409.9,324.2 L410.7,314.4 L411.6,312.2 L412.4,312.5 L413.2,361.5 L414.1,349.3 L414.9,331.2 L415.8,326.9 L416.6,312.5 L417.4,291.7 L418.3,296.0 L419.1,291.7 L420.0,294.2 L420.8,327.8 L421.7,330.6 L422.5,340.4 L423.3,309.5 L424.2,286.5 L425.0,309.5 L425.9,328.8 L426.7,337.0 L427.5,323.6 L428.4,324.5 L429.2,334.9 L430.1,337.0 L430.9,330.9 L431.8,330.9 L432.6,330.9 L433.4,317.4 L434.3,299.7 L435.1,305.8 L436.0,304.6 L436.8,292.0 L437.6,296.6 L438.5,283.2 L439.3,289.3 L440.2,292.0 L441.0,287.1 L441.9,315.3 L442.7,323.3 L443.5,329.1 L444.4,328.8 L445.2,299.1 L446.1,322.0 L446.9,325.4 L447.7,324.8 L448.6,324.5 L449.4,310.1 L450.3,313.8 L451.1,310.7 L451.9,292.3 L452.8,297.8 L453.6,303.4 L454.5,307.0 L455.3,313.5 L456.2,306.7 L457.0,299.1 L457.8,302.7 L458.7,326.9 L459.5,307.6 L460.4,311.9 L461.2,334.9 L462.0,334.9 L462.9,370.7 L463.7,376.8 L464.6,376.2 L465.4,377.4 L466.3,374.4 L467.1,373.5 L467.9,374.1 L468.8,373.8 L469.6,373.8 L470.5,373.5 L471.3,373.8 L472.1,374.4 L473.0,374.4 L473.8,373.8 L474.7,374.1 L475.5,374.4 L476.4,374.7 L477.2,374.1 L478.0,372.9 L478.9,372.5 L479.7,378.1 L480.6,377.8 L481.4,377.4 L482.2,377.1 L483.1,377.1 L483.9,377.4 L484.8,376.8 L485.6,377.4 L486.5,372.9 L487.3,373.2 L488.1,373.5 L489.0,373.2 L489.8,373.2 L490.7,372.9 L491.5,372.9 L492.3,372.9 L493.2,372.9 L494.0,373.2 L494.9,373.5 L495.7,372.9 L496.5,373.2 L497.4,373.2 L498.2,372.5 L499.1,372.5 L499.9,374.4 L500.8,377.1 L501.6,377.1 L502.4,377.4 L503.3,377.4 L504.1,377.4 L505.0,377.8 L505.8,377.8 L506.6,378.1 L507.5,378.4 L508.3,377.4 L509.2,377.8 L510.0,377.4 L510.9,377.8 L511.7,377.4 L512.5,377.8 L513.4,378.1 L514.2,378.1 L515.1,377.4 L515.9,377.4 L516.7,378.1 L517.6,377.4 L518.4,359.1 L519.3,359.1 L520.1,377.1 L521.0,377.4 L521.8,377.4 L522.6,377.4 L523.5,377.1 L524.3,377.8 L525.2,378.4 L526.0,377.1 L526.8,374.7 L527.7,374.7 L528.5,374.7 L529.4,374.7 L530.2,374.1 L531.1,373.8 L531.9,374.4 L532.7,373.8 L533.6,374.4 L534.4,374.4 L535.3,374.7 L536.1,374.4 L536.9,318.4 L537.8,333.4 L538.6,374.7 L539.5,373.5 L540.3,355.4 L541.2,359.1 L542.0,378.4 L542.8,379.0 L543.7,379.0 L544.5,361.5 L545.4,349.6 L546.2,349.6 L547.0,378.1 L547.9,373.8 L548.7,371.0 L549.6,371.3 L550.4,370.1 L551.2,371.0 L552.1,380.2 L552.9,380.2 L553.8,381.1 L554.6,374.7 L555.5,368.9 L556.3,335.8 L557.1,328.8 L558.0,336.1 L558.8,319.0 L559.7,309.5 L560.5,298.5 L561.3,312.2 L562.2,368.0 L563.0,368.3 L563.9,365.8 L564.7,350.5 L565.6,353.3 L566.4,353.3 L567.2,365.2 L568.1,377.8 L568.9,371.3 L569.8,374.7 L570.6,374.4 L571.4,368.0 L572.3,302.7 L573.1,304.0 L574.0,356.0 L574.8,356.0 L575.7,355.7 L576.5,356.3 L577.3,319.0 L578.2,286.8 L579.0,299.7 L579.9,362.4 L580.7,365.2 L581.5,377.8 L582.4,377.1 L583.2,377.4 L584.1,377.8 L584.9,377.4 L585.8,377.8 L586.6,377.4 L587.4,377.4 L588.3,375.6 L589.1,374.7 L590.0,375.0 L590.8,374.4 L591.6,374.4 L592.5,374.4 L593.3,373.8 L594.2,374.4 L595.0,374.7 L595.8,374.7 L596.7,357.5 L597.5,356.9 L598.4,345.0 L599.2,336.1 L600.1,342.2 L600.9,353.3 L601.7,353.0 L602.6,353.0 L603.4,343.5 L604.3,343.5 L605.1,343.8 L605.9,338.9 L606.8,352.6 L607.6,363.1 L608.5,374.7 L609.3,375.3 L610.2,375.3 L611.0,374.7 L611.8,374.4 L612.7,374.7 L613.5,375.0 L614.4,375.0 L615.2,373.8 L616.0,356.3 L616.9,356.3 L617.7,338.0 L618.6,331.2 L619.4,310.1 L620.3,304.0 L621.1,334.3 L621.9,346.8 L622.8,358.5 L623.6,359.1 L624.5,358.5 L625.3,358.5 L626.1,358.2 L627.0,358.5 L627.8,356.3 L628.7,356.3 L629.5,356.3 L630.4,356.6 L631.2,355.7 L632.0,355.4 L632.9,356.6 L633.7,356.0 L634.6,356.3 L635.4,356.6 L636.2,356.0 L637.1,355.7 L637.9,350.8 L638.8,354.8 L639.6,354.8 L640.4,355.1 L641.3,357.9 L642.1,357.9 L643.0,358.8 L643.8,358.5 L644.7,358.2 L645.5,357.9 L646.3,358.2 L647.2,358.8 L648.0,359.1 L648.9,358.8 L649.7,359.4 L650.5,358.8 L651.4,359.1 L652.2,359.1 L653.1,358.5 L653.9,358.2 L654.8,358.8 L655.6,358.5 L656.4,358.2 L657.3,358.2 L658.1,358.2 L659.0,357.5 L659.8,358.2 L660.6,357.5 L661.5,357.9 L662.3,358.8 L663.2,358.5 L664.0,358.5 L664.9,351.4 L665.7,355.7 L666.5,358.8 L667.4,359.4 L668.2,356.9 L669.1,357.9 L669.9,356.6 L670.7,357.2 L671.6,356.9 L672.4,356.6 L673.3,356.9 L674.1,356.9 L675.0,356.3 L675.8,356.0 L676.6,301.8 L677.5,270.6 L678.3,266.9 L679.2,266.6 L680.0,294.8" stroke="#2ca02c" stroke-width="2" fill="none" opacity="0.8"/>
<!-- Solar Generation -->
<path d="M80.0,420.0 L80.8,420.0 L81.7,415.1 L82.5,407.1 L83.4,377.4 L84.2,375.6 L85.0,375.3 L85.9,375.3 L86.7,375.0 L87.6,376.5 L88.4,398.6 L89.3,398.9 L90.1,397.0 L90.9,379.6 L91.8,387.2 L92.6,416.0 L93.5,420.0 L94.3,420.0 L95.1,420.0 L96.0,420.0 L96.8,420.0 L97.7,420.0 L98.5,420.0 L99.4,420.0 L100.2,420.0 L101.0,420.0 L101.9,415.4 L102.7,394.6 L103.6,390.3 L104.4,384.5 L105.2,377.1 L106.1,375.3 L106.9,375.0 L107.8,398.0 L108.6,398.9 L109.5,376.5 L110.3,377.1 L111.1,387.5 L112.0,393.7 L112.8,409.3 L113.7,420.0 L114.5,420.0 L115.3,420.0 L116.2,420.0 L117.0,420.0 L117.9,420.0 L118.7,420.0 L119.6,420.0 L120.4,420.0 L121.2,420.0 L122.1,410.8 L122.9,388.5 L123.8,377.8 L124.6,376.5 L125.4,375.6 L126.3,376.2 L127.1,375.9 L128.0,375.3 L128.8,376.2 L129.6,378.1 L130.5,379.3 L131.3,380.8 L132.2,397.3 L133.0,414.2 L133.9,420.0 L134.7,420.0 L135.5,420.0 L136.4,420.0 L137.2,420.0 L138.1,420.0 L138.9,420.0 L139.7,420.0 L140.6,420.0 L141.4,420.0 L142.3,411.7 L143.1,389.1 L144.0,384.2 L144.8,379.6 L145.6,388.5 L146.5,399.8 L147.3,383.0 L148.2,399.2 L149.0,389.7 L149.8,390.0 L150.7,405.3 L151.5,414.5 L152.4,410.8 L153.2,412.7 L154.1,420.0 L154.9,420.0 L155.7,420.0 L156.6,420.0 L157.4,420.0 L158.3,420.0 L159.1,420.0 L159.9,420.0 L160.8,420.0 L161.6,420.0 L162.5,413.6 L163.3,400.4 L164.2,401.6 L165.0,399.8 L165.8,399.5 L166.7,399.2 L167.5,399.5 L168.4,399.2 L169.2,399.8 L170.0,399.8 L170.9,399.8 L171.7,400.7 L172.6,406.2 L173.4,416.0 L174.2,420.0 L175.1,420.0 L175.9,420.0 L176.8,420.0 L177.6,420.0 L178.5,420.0 L179.3,420.0 L180.1,420.0 L181.0,420.0 L181.8,420.0 L182.7,413.9 L183.5,402.5 L184.3,400.1 L185.2,399.8 L186.0,399.5 L186.9,399.2 L187.7,399.2 L188.6,399.2 L189.4,399.2 L190.2,399.5 L191.1,412.7 L191.9,413.9 L192.8,407.8 L193.6,411.1 L194.4,420.0 L195.3,420.0 L196.1,420.0 L197.0,420.0 L197.8,420.0 L198.7,420.0 L199.5,420.0 L200.3,420.0 L201.2,420.0 L202.0,420.0 L202.9,418.5 L203.7,403.5 L204.5,401.3 L205.4,402.2 L206.2,400.1 L207.1,399.5 L207.9,402.2 L208.8,400.1 L209.6,400.7 L210.4,409.6 L211.3,411.1 L212.1,415.4 L213.0,413.6 L213.8,413.9 L214.6,420.0 L215.5,420.0 L216.3,420.0 L217.2,420.0 L218.0,420.0 L218.8,420.0 L219.7,420.0 L220.5,420.0 L221.4,420.0 L222.2,420.0 L223.1,413.6 L223.9,417.2 L224.7,413.3 L225.6,411.4 L226.4,401.9 L227.3,388.8 L228.1,399.8 L228.9,384.5 L229.8,398.6 L230.6,404.4 L231.5,409.9 L232.3,402.2 L233.2,381.7 L234.0,412.3 L234.8,419.7 L235.7,420.0 L236.5,420.0 L237.4,420.0 L238.2,420.0 L239.0,420.0 L239.9,420.0 L240.7,420.0 L241.6,420.0 L242.4,420.0 L243.3,414.5 L244.1,412.3 L244.9,415.4 L245.8,415.1 L246.6,391.8 L247.5,394.6 L248.3,412.3 L249.1,405.9 L250.0,401.3 L250.8,406.5 L251.7,388.8 L252.5,402.5 L253.4,398.3 L254.2,413.9 L255.0,419.7 L255.9,420.0 L256.7,420.0 L257.6,420.0 L258.4,420.0 L259.2,420.0 L260.1,420.0 L260.9,420.0 L261.8,420.0 L262.6,420.0 L263.5,408.7 L264.3,400.4 L265.1,379.9 L266.0,376.2 L266.8,376.2 L267.7,375.9 L268.5,383.6 L269.3,387.2 L270.2,402.9 L271.0,399.5 L271.9,408.7 L272.7,403.2 L273.5,401.0 L274.4,411.1 L275.2,419.7 L276.1,420.0 L276.9,420.0 L277.8,420.0 L278.6,420.0 L279.4,420.0 L280.3,420.0 L281.1,420.0 L282.0,420.0 L282.8,420.0 L283.6,411.4 L284.5,390.9 L285.3,378.7 L286.2,377.4 L287.0,376.2 L287.9,392.1 L288.7,377.4 L289.5,395.5 L290.4,399.2 L291.2,397.0 L292.1,390.6 L292.9,397.7 L293.7,413.0 L294.6,417.9 L295.4,420.0 L296.3,420.0 L297.1,420.0 L298.0,420.0 L298.8,420.0 L299.6,420.0 L300.5,420.0 L301.3,420.0 L302.2,420.0 L303.0,420.0 L303.8,419.4 L304.7,416.3 L305.5,397.7 L306.4,397.7 L307.2,399.8 L308.1,385.7 L308.9,390.3 L309.7,385.4 L310.6,393.4 L311.4,388.8 L312.3,394.0 L313.1,388.2 L313.9,390.9 L314.8,412.3 L315.6,420.0 L316.5,420.0 L317.3,420.0 L318.1,420.0 L319.0,420.0 L319.8,420.0 L320.7,420.0 L321.5,420.0 L322.4,420.0 L323.2,420.0 L324.0,407.1 L324.9,384.8 L325.7,377.1 L326.6,375.9 L327.4,385.4 L328.2,380.2 L329.1,382.6 L329.9,379.9 L330.8,384.5 L331.6,392.4 L332.5,404.1 L333.3,403.2 L334.1,397.7 L335.0,416.9 L335.8,420.0 L336.7,420.0 L337.5,420.0 L338.3,420.0 L339.2,420.0 L340.0,420.0 L340.9,420.0 L341.7,420.0 L342.6,420.0 L343.4,420.0 L344.2,409.9 L345.1,385.1 L345.9,378.1 L346.8,375.9 L347.6,375.3 L348.4,398.6 L349.3,400.1 L350.1,400.4 L351.0,409.9 L351.8,410.5 L352.7,399.8 L353.5,394.3 L354.3,391.8 L355.2,407.8 L356.0,419.7 L356.9,420.0 L357.7,420.0 L358.5,420.0 L359.4,420.0 L360.2,420.0 L361.1,420.0 L361.9,420.0 L362.7,420.0 L363.6,420.0 L364.4,408.4 L365.3,388.2 L366.1,394.0 L367.0,375.6 L367.8,398.9 L368.6,375.9 L369.5,400.1 L370.3,399.2 L371.2,399.5 L372.0,389.1 L372.8,386.6 L373.7,388.2 L374.5,392.4 L375.4,408.7 L376.2,419.4 L377.1,420.0 L377.9,420.0 L378.7,420.0 L379.6,420.0 L380.4,420.0 L381.3,420.0 L382.1,420.0 L382.9,420.0 L383.8,420.0 L384.6,407.1 L385.5,384.8 L386.3,399.5 L387.2,375.6 L388.0,375.3 L388.8,376.2 L389.7,394.0 L390.5,379.0 L391.4,394.6 L392.2,386.0 L393.0,399.5 L393.9,405.3 L394.7,414.2 L395.6,418.2 L396.4,419.7 L397.3,420.0 L398.1,420.0 L398.9,420.0 L399.8,420.0 L400.6,420.0 L401.5,420.0 L402.3,420.0 L403.1,420.0 L404.0,420.0 L404.8,411.4 L405.7,409.6 L406.5,391.8 L407.3,393.1 L408.2,398.6 L409.0,402.2 L409.9,398.3 L410.7,395.8 L411.6,400.1 L412.4,396.1 L413.2,398.9 L414.1,410.2 L414.9,388.8 L415.8,409.9 L416.6,419.7 L417.4,420.0 L418.3,420.0 L419.1,420.0 L420.0,420.0 L420.8,420.0 L421.7,420.0 L422.5,420.0 L423.3,420.0 L424.2,420.0 L425.0,410.2 L425.9,383.6 L426.7,381.4 L427.5,378.1 L428.4,377.8 L429.2,378.7 L430.1,379.6 L430.9,377.1 L431.8,377.8 L432.6,385.4 L433.4,386.0 L434.3,402.9 L435.1,402.9 L436.0,414.2 L436.8,419.7 L437.6,420.0 L438.5,420.0 L439.3,420.0 L440.2,420.0 L441.0,420.0 L441.9,420.0 L442.7,420.0 L443.5,420.0 L444.4,420.0 L445.2,411.4 L446.1,386.9 L446.9,382.3 L447.7,377.8 L448.6,376.5 L449.4,379.0 L450.3,379.0 L451.1,385.1 L451.9,385.1 L452.8,394.9 L453.6,380.5 L454.5,390.3 L455.3,409.3 L456.2,411.1 L457.0,419.4 L457.8,420.0 L458.7,420.0 L459.5,420.0 L460.4,420.0 L461.2,420.0 L462.0,420.0 L462.9,420.0 L463.7,420.0 L464.6,419.4 L465.4,410.5 L466.3,383.6 L467.1,379.6 L467.9,376.2 L468.8,375.3 L469.6,378.4 L470.5,379.9 L471.3,402.9 L472.1,382.0 L473.0,397.3 L473.8,401.9 L474.7,402.9 L475.5,402.9 L476.4,413.3 L477.2,419.7 L478.0,420.0 L478.9,420.0 L479.7,420.0 L480.6,420.0 L481.4,420.0 L482.2,420.0 L483.1,420.0 L483.9,420.0 L484.8,420.0 L485.6,417.9 L486.5,417.9 L487.3,416.6 L488.1,415.1 L489.0,415.1 L489.8,412.3 L490.7,401.9 L491.5,404.7 L492.3,410.8 L493.2,418.2 L494.0,416.6 L494.9,409.3 L495.7,407.1 L496.5,416.6 L497.4,419.7 L498.2,420.0 L499.1,420.0 L499.9,420.0 L500.8,420.0 L501.6,420.0 L502.4,420.0 L503.3,420.0 L504.1,420.0 L505.0,420.0 L505.8,419.7 L506.6,418.5 L507.5,416.9 L508.3,415.4 L509.2,414.5 L510.0,410.2 L510.9,410.8 L511.7,413.0 L512.5,409.6 L513.4,409.0 L514.2,413.6 L515.1,416.0 L515.9,413.9 L516.7,415.7 L517.6,419.7 L518.4,420.0 L519.3,420.0 L520.1,420.0 L521.0,420.0 L521.8,420.0 L522.6,420.0 L523.5,420.0 L524.3,420.0 L525.2,420.0 L526.0,405.9 L526.8,385.1 L527.7,380.8 L528.5,377.1 L529.4,376.5 L530.2,378.1 L531.1,382.0 L531.9,382.0 L532.7,376.5 L533.6,381.1 L534.4,378.7 L535.3,383.9 L536.1,400.4 L536.9,407.1 L537.8,419.4 L538.6,420.0 L539.5,420.0 L540.3,420.0 L541.2,420.0 L542.0,420.0 L542.8,420.0 L543.7,420.0 L544.5,420.0 L545.4,419.7 L546.2,405.3 L547.0,384.2 L547.9,384.5 L548.7,393.7 L549.6,392.1 L550.4,383.3 L551.2,389.1 L552.1,384.2 L552.9,385.7 L553.8,388.8 L554.6,387.5 L555.5,406.2 L556.3,398.3 L557.1,414.8 L558.0,418.8 L558.8,420.0 L559.7,420.0 L560.5,420.0 L561.3,420.0 L562.2,420.0 L563.0,420.0 L563.9,420.0 L564.7,420.0 L565.6,420.0 L566.4,412.3 L567.2,393.1 L568.1,377.4 L568.9,376.5 L569.8,376.8 L570.6,375.3 L571.4,375.3 L572.3,375.3 L573.1,375.6 L574.0,390.0 L574.8,387.5 L575.7,388.2 L576.5,402.5 L577.3,416.0 L578.2,419.7 L579.0,420.0 L579.9,420.0 L580.7,420.0 L581.5,420.0 L582.4,420.0 L583.2,420.0 L584.1,420.0 L584.9,420.0 L585.8,420.0 L586.6,417.9 L587.4,400.1 L588.3,384.2 L589.1,383.9 L590.0,394.6 L590.8,386.6 L591.6,383.6 L592.5,378.4 L593.3,382.0 L594.2,382.3 L595.0,387.2 L595.8,385.4 L596.7,388.2 L597.5,405.0 L598.4,418.8 L599.2,420.0 L600.1,420.0 L600.9,420.0 L601.7,420.0 L602.6,420.0 L603.4,420.0 L604.3,420.0 L605.1,420.0 L605.9,419.7 L606.8,407.8 L607.6,382.0 L608.5,377.1 L609.3,375.9 L610.2,376.2 L611.0,378.1 L611.8,377.8 L612.7,375.0 L613.5,375.3 L614.4,383.6 L615.2,380.2 L616.0,381.4 L616.9,390.3 L617.7,405.0 L618.6,419.1 L619.4,420.0 L620.3,420.0 L621.1,420.0 L621.9,420.0 L622.8,420.0 L623.6,420.0 L624.5,420.0 L625.3,420.0 L626.1,419.7 L627.0,407.4 L627.8,412.7 L628.7,408.1 L629.5,403.8 L630.4,400.1 L631.2,392.1 L632.0,381.4 L632.9,384.8 L633.7,405.3 L634.6,390.9 L635.4,403.8 L636.2,414.2 L637.1,404.7 L637.9,418.5 L638.8,419.1 L639.6,420.0 L640.4,420.0 L641.3,420.0 L642.1,420.0 L643.0,420.0 L643.8,420.0 L644.7,420.0 L645.5,420.0 L646.3,420.0 L647.2,418.8 L648.0,415.7 L648.9,413.6 L649.7,413.6 L650.5,406.2 L651.4,405.3 L652.2,400.4 L653.1,403.2 L653.9,405.9 L654.8,415.1 L655.6,414.8 L656.4,413.0 L657.3,390.9 L658.1,396.7 L659.0,418.2 L659.8,420.0 L660.6,420.0 L661.5,420.0 L662.3,420.0 L663.2,420.0 L664.0,420.0 L664.9,420.0 L665.7,420.0 L666.5,419.7 L667.4,416.0 L668.2,391.5 L669.1,387.5 L669.9,377.4 L670.7,375.3 L671.6,375.0 L672.4,375.0 L673.3,375.0 L674.1,386.3 L675.0,387.5 L675.8,389.1 L676.6,395.8 L677.5,408.4 L678.3,412.0 L679.2,419.4 L680.0,420.0" stroke="#d62728" stroke-width="2" fill="none" opacity="0.8"/>
<!-- Forecast -->
<path d="M80.0,255.3 L80.8,251.6 L81.7,245.2 L82.5,237.2 L83.4,225.0 L84.2,210.6 L85.0,201.4 L85.9,200.5 L86.7,197.4 L87.6,197.1 L88.4,195.6 L89.3,190.4 L90.1,184.6 L90.9,178.4 L91.8,173.2 L92.6,179.1 L93.5,185.5 L94.3,184.0 L95.1,196.8 L96.0,217.6 L96.8,233.2 L97.7,243.0 L98.5,250.1 L99.4,253.5 L100.2,252.5 L101.0,242.7 L101.9,220.4 L102.7,193.8 L103.6,172.0 L104.4,162.5 L105.2,157.9 L106.1,156.4 L106.9,156.4 L107.8,155.8 L108.6,155.8 L109.5,153.3 L110.3,152.1 L111.1,152.4 L112.0,161.0 L112.8,167.1 L113.7,171.1 L114.5,172.9 L115.3,191.0 L116.2,218.9 L117.0,229.0 L117.9,250.4 L118.7,261.4 L119.6,263.6 L120.4,260.8 L121.2,249.2 L122.1,226.2 L122.9,202.0 L123.8,182.4 L124.6,172.3 L125.4,165.9 L126.3,162.2 L127.1,161.0 L128.0,158.9 L128.8,156.4 L129.6,153.0 L130.5,147.2 L131.3,142.3 L132.2,153.0 L133.0,166.2 L133.9,173.5 L134.7,175.4 L135.5,194.4 L136.4,221.6 L137.2,239.4 L138.1,251.3 L138.9,258.7 L139.7,261.7 L140.6,261.1 L141.4,251.6 L142.3,229.9 L143.1,199.3 L144.0,174.2 L144.8,161.3 L145.6,160.1 L146.5,150.9 L147.3,148.1 L148.2,147.5 L149.0,142.0 L149.8,141.7 L150.7,146.0 L151.5,148.4 L152.4,158.5 L153.2,170.2 L154.1,176.3 L154.9,178.4 L155.7,196.5 L156.6,225.0 L157.4,242.1 L158.3,252.2 L159.1,258.7 L159.9,261.4 L160.8,259.6 L161.6,248.6 L162.5,223.8 L163.3,196.2 L164.2,175.4 L165.0,167.4 L165.8,163.4 L166.7,164.7 L167.5,166.2 L168.4,168.3 L169.2,170.2 L170.0,170.8 L170.9,171.1 L171.7,170.5 L172.6,175.1 L173.4,181.8 L174.2,184.0 L175.1,186.7 L175.9,203.6 L176.8,226.2 L177.6,244.0 L178.5,253.8 L179.3,259.3 L180.1,261.4 L181.0,259.0 L181.8,247.9 L182.7,223.1 L183.5,196.5 L184.3,176.6 L185.2,169.0 L186.0,164.4 L186.9,165.6 L187.7,166.8 L188.6,169.3 L189.4,171.1 L190.2,171.4 L191.1,172.3 L191.9,171.4 L192.8,176.3 L193.6,183.0 L194.4,184.6 L195.3,187.6 L196.1,204.5 L197.0,226.2 L197.8,244.0 L198.7,252.8 L199.5,258.0 L200.3,261.1 L201.2,260.8 L202.0,259.6 L202.9,248.9 L203.7,233.9 L204.5,216.4 L205.4,200.8 L206.2,193.8 L207.1,194.7 L207.9,195.0 L208.8,198.0 L209.6,203.6 L210.4,204.8 L211.3,202.3 L212.1,199.6 L213.0,198.7 L213.8,201.1 L214.6,198.0 L215.5,198.3 L216.3,209.7 L217.2,226.2 L218.0,239.4 L218.8,247.0 L219.7,252.2 L220.5,253.8 L221.4,252.2 L222.2,249.2 L223.1,239.4 L223.9,228.3 L224.7,210.0 L225.6,192.8 L226.4,185.5 L227.3,184.6 L228.1,186.4 L228.9,186.7 L229.8,191.0 L230.6,192.8 L231.5,189.8 L232.3,182.1 L233.2,185.5 L234.0,183.3 L234.8,179.1 L235.7,182.7 L236.5,202.6 L237.4,221.9 L238.2,236.0 L239.0,243.7 L239.9,247.0 L240.7,248.2 L241.6,244.9 L242.4,232.3 L243.3,206.6 L244.1,178.4 L244.9,160.1 L245.8,154.3 L246.6,154.6 L247.5,157.6 L248.3,161.0 L249.1,164.7 L250.0,167.7 L250.8,169.0 L251.7,169.6 L252.5,170.2 L253.4,175.4 L254.2,178.4 L255.0,176.9 L255.9,180.3 L256.7,199.3 L257.6,224.1 L258.4,237.8 L259.2,242.4 L260.1,245.2 L260.9,246.4 L261.8,242.7 L262.6,231.1 L263.5,206.6 L264.3,180.0 L265.1,163.4 L266.0,159.8 L266.8,160.1 L267.7,163.8 L268.5,166.5 L269.3,169.3 L270.2,171.4 L271.0,172.9 L271.9,173.9 L272.7,173.9 L273.5,178.8 L274.4,184.6 L275.2,184.3 L276.1,187.3 L276.9,204.5 L277.8,227.4 L278.6,241.8 L279.4,252.2 L280.3,257.4 L281.1,259.6 L282.0,256.2 L282.8,244.0 L283.6,221.0 L284.5,195.3 L285.3,178.1 L286.2,171.4 L287.0,166.8 L287.9,167.4 L288.7,168.6 L289.5,170.8 L290.4,172.6 L291.2,173.9 L292.1,173.9 L292.9,173.9 L293.7,178.8 L294.6,185.2 L295.4,184.3 L296.3,187.9 L297.1,205.7 L298.0,227.7 L298.8,244.3 L299.6,253.5 L300.5,258.4 L301.3,260.5 L302.2,257.7 L303.0,245.2 L303.8,219.2 L304.7,188.5 L305.5,168.6 L306.4,162.5 L307.2,160.7 L308.1,163.8 L308.9,166.8 L309.7,169.9 L310.6,172.6 L311.4,174.2 L312.3,175.1 L313.1,174.8 L313.9,179.4 L314.8,185.5 L315.6,185.5 L316.5,188.5 L317.3,206.0 L318.1,214.0 L319.0,217.9 L319.8,221.9 L320.7,225.9 L321.5,229.9 L322.4,233.9 L323.2,237.8 L324.0,219.5 L324.9,194.7 L325.7,179.1 L326.6,172.9 L327.4,169.3 L328.2,170.2 L329.1,171.1 L329.9,172.6 L330.8,174.2 L331.6,175.1 L332.5,174.5 L333.3,172.9 L334.1,177.5 L335.0,183.7 L335.8,187.3 L336.7,189.8 L337.5,206.9 L338.3,237.5 L339.2,249.8 L340.0,258.0 L340.9,263.9 L341.7,266.6 L342.6,265.7 L343.4,263.9 L344.2,257.7 L345.1,243.4 L345.9,228.0 L346.8,217.6 L347.6,209.1 L348.4,207.8 L349.3,205.7 L350.1,207.5 L351.0,210.6 L351.8,211.2 L352.7,212.7 L353.5,214.3 L354.3,213.0 L355.2,213.7 L356.0,213.3 L356.9,210.6 L357.7,221.6 L358.5,237.2 L359.4,252.8 L360.2,264.5 L361.1,271.2 L361.9,273.7 L362.7,272.4 L363.6,269.4 L364.4,267.2 L365.3,255.9 L366.1,244.3 L367.0,226.8 L367.8,214.0 L368.6,213.7 L369.5,209.4 L370.3,207.5 L371.2,205.1 L372.0,200.5 L372.8,195.6 L373.7,189.5 L374.5,184.9 L375.4,190.7 L376.2,197.7 L377.1,197.1 L377.9,209.4 L378.7,233.6 L379.6,254.4 L380.4,266.3 L381.3,273.4 L382.1,276.1 L382.9,274.9 L383.8,271.5 L384.6,272.7 L385.5,259.6 L386.3,247.3 L387.2,228.3 L388.0,214.6 L388.8,215.5 L389.7,209.4 L390.5,205.7 L391.4,202.0 L392.2,198.3 L393.0,195.9 L393.9,190.4 L394.7,184.9 L395.6,189.5 L396.4,196.2 L397.3,194.7 L398.1,207.5 L398.9,230.2 L399.8,244.0 L400.6,253.5 L401.5,260.5 L402.3,263.6 L403.1,262.9 L404.0,253.8 L404.8,231.4 L405.7,202.0 L406.5,180.3 L407.3,170.8 L408.2,168.0 L409.0,167.1 L409.9,167.7 L410.7,169.3 L411.6,170.2 L412.4,171.1 L413.2,171.4 L414.1,170.8 L414.9,176.6 L415.8,182.7 L416.6,186.1 L417.4,187.3 L418.3,204.5 L419.1,230.2 L420.0,248.2 L420.8,256.2 L421.7,262.0 L422.5,263.9 L423.3,262.3 L424.2,252.2 L425.0,228.3 L425.9,200.5 L426.7,180.3 L427.5,172.6 L428.4,168.3 L429.2,169.0 L430.1,170.5 L430.9,172.6 L431.8,174.5 L432.6,175.7 L433.4,176.3 L434.3,175.1 L435.1,180.0 L436.0,186.4 L436.8,189.2 L437.6,190.7 L438.5,207.2 L439.3,212.1 L440.2,212.1 L441.0,212.1 L441.9,212.1 L442.7,212.1 L443.5,212.1 L444.4,212.1 L445.2,212.1 L446.1,212.1 L446.9,212.1 L447.7,212.1 L448.6,212.1 L449.4,212.1 L450.3,212.1 L451.1,212.1 L451.9,212.1 L452.8,212.1 L453.6,212.1 L454.5,212.1 L455.3,212.1 L456.2,212.1 L457.0,212.1 L457.8,212.1 L458.7,212.1 L459.5,212.1 L460.4,238.1 L461.2,245.5 L462.0,252.5 L462.9,256.5 L463.7,257.1 L464.6,247.3 L465.4,225.6 L466.3,192.8 L467.1,168.0 L467.9,156.7 L468.8,152.7 L469.6,150.0 L470.5,149.1 L471.3,148.7 L472.1,142.0 L473.0,143.5 L473.8,145.7 L474.7,146.9 L475.5,155.5 L476.4,166.8 L477.2,174.2 L478.0,177.2 L478.9,195.3 L479.7,232.9 L480.6,244.0 L481.4,250.7 L482.2,259.0 L483.1,262.3 L483.9,265.1 L484.8,257.7 L485.6,252.5 L486.5,240.9 L487.3,228.0 L488.1,215.8 L489.0,205.1 L489.8,202.9 L490.7,201.4 L491.5,204.8 L492.3,209.1 L493.2,210.6 L494.0,207.5 L494.9,205.1 L495.7,205.4 L496.5,209.7 L497.4,210.0 L498.2,208.1 L499.1,219.2 L499.9,238.8 L500.8,251.9 L501.6,262.3 L502.4,269.7 L503.3,272.1 L504.1,271.2 L505.0,268.8 L505.8,260.2 L506.6,246.4 L507.5,227.4 L508.3,212.1 L509.2,205.4 L510.0,199.9 L510.9,199.9 L511.7,202.3 L512.5,205.1 L513.4,206.0 L514.2,204.2 L515.1,198.7 L515.9,198.7 L516.7,203.9 L517.6,204.5 L518.4,202.6 L519.3,214.3 L520.1,210.3 L521.0,220.7 L521.8,229.0 L522.6,234.5 L523.5,236.6 L524.3,235.1 L525.2,226.5 L526.0,202.6 L526.8,173.9 L527.7,154.0 L528.5,145.1 L529.4,140.2 L530.2,140.5 L531.1,141.7 L531.9,143.5 L532.7,145.1 L533.6,146.0 L534.4,145.4 L535.3,146.6 L536.1,152.7 L536.9,159.8 L537.8,161.6 L538.6,165.0 L539.5,180.6 L540.3,204.8 L541.2,221.0 L542.0,230.5 L542.8,236.0 L543.7,238.5 L544.5,236.3 L545.4,227.1 L546.2,204.5 L547.0,177.2 L547.9,157.3 L548.7,149.1 L549.6,143.9 L550.4,143.9 L551.2,144.8 L552.1,146.3 L552.9,147.5 L553.8,147.8 L554.6,146.9 L555.5,147.5 L556.3,153.0 L557.1,159.5 L558.0,162.5 L558.8,165.3 L559.7,181.2 L560.5,201.7 L561.3,221.9 L562.2,231.1 L563.0,237.2 L563.9,239.4 L564.7,237.5 L565.6,227.7 L566.4,206.3 L567.2,180.3 L568.1,161.3 L568.9,153.0 L569.8,146.6 L570.6,145.7 L571.4,145.4 L572.3,146.0 L573.1,146.0 L574.0,142.3 L574.8,139.6 L575.7,140.8 L576.5,148.4 L577.3,153.6 L578.2,157.6 L579.0,160.1 L579.9,176.9 L580.7,207.5 L581.5,224.1 L582.4,234.2 L583.2,240.9 L584.1,244.3 L584.9,243.7 L585.8,235.7 L586.6,215.2 L587.4,189.5 L588.3,167.7 L589.1,158.5 L590.0,152.4 L590.8,151.2 L591.6,151.2 L592.5,151.8 L593.3,151.5 L594.2,152.7 L595.0,152.4 L595.8,152.4 L596.7,157.3 L597.5,162.5 L598.4,166.2 L599.2,168.3 L600.1,184.9 L600.9,203.2 L601.7,226.5 L602.6,236.9 L603.4,243.4 L604.3,245.5 L605.1,244.0 L605.9,232.9 L606.8,212.4 L607.6,186.7 L608.5,165.6 L609.3,155.2 L610.2,149.4 L611.0,146.3 L611.8,144.8 L612.7,142.3 L613.5,139.0 L614.4,133.4 L615.2,129.2 L616.0,125.5 L616.9,135.6 L617.7,147.2 L618.6,154.6 L619.4,158.2 L620.3,176.3 L621.1,215.5 L621.9,224.4 L622.8,231.4 L623.6,239.1 L624.5,242.4 L625.3,244.9 L626.1,242.1 L627.0,235.7 L627.8,222.2 L628.7,210.3 L629.5,201.1 L630.4,190.4 L631.2,186.7 L632.0,184.3 L632.9,186.1 L633.7,186.1 L634.6,189.5 L635.4,191.3 L636.2,189.2 L637.1,191.0 L637.9,193.4 L638.8,194.4 L639.6,192.2 L640.4,202.3 L641.3,218.2 L642.1,231.1 L643.0,242.1 L643.8,248.6 L644.7,250.4 L645.5,249.5 L646.3,247.6 L647.2,240.6 L648.0,226.8 L648.9,209.4 L649.7,194.1 L650.5,186.4 L651.4,180.6 L652.2,180.0 L653.1,183.0 L653.9,185.5 L654.8,185.8 L655.6,185.5 L656.4,182.7 L657.3,180.6 L658.1,185.2 L659.0,186.1 L659.8,184.3 L660.6,195.3 L661.5,208.4 L662.3,224.1 L663.2,233.6 L664.0,238.1 L664.9,240.6 L665.7,237.5 L666.5,227.7 L667.4,206.9 L668.2,180.6 L669.1,161.9 L669.9,154.3 L670.7,149.4 L671.6,148.4 L672.4,148.7 L673.3,149.1 L674.1,149.1 L675.0,148.4 L675.8,146.6 L676.6,147.2 L677.5,153.6 L678.3,160.1 L679.2,163.8 L680.0,164.4" stroke="#9467bd" stroke-width="2" fill="none" opacity="0.8"/>
<!-- Total Generation -->
<path d="M80.0,212.1 L80.8,212.7 L81.7,217.3 L82.5,217.6 L83.4,180.9 L84.2,206.9 L85.0,213.0 L85.9,210.6 L86.7,207.5 L87.6,212.4 L88.4,234.5 L89.3,224.4 L90.1,215.2 L90.9,188.2 L91.8,210.3 L92.6,229.6 L93.5,192.2 L94.3,165.6 L95.1,210.3 L96.0,237.8 L96.8,256.5 L97.7,253.1 L98.5,245.8 L99.4,229.9 L100.2,217.6 L101.0,207.2 L101.9,189.8 L102.7,198.3 L103.6,190.4 L104.4,188.5 L105.2,174.2 L106.1,169.9 L106.9,170.2 L107.8,188.5 L108.6,183.0 L109.5,140.5 L110.3,142.3 L111.1,145.7 L112.0,124.6 L112.8,67.6 L113.7,69.1 L114.5,81.7 L115.3,78.0 L116.2,121.8 L117.0,155.5 L117.9,133.1 L118.7,138.6 L119.6,153.6 L120.4,126.4 L121.2,136.8 L122.1,133.4 L122.9,119.4 L123.8,131.6 L124.6,121.5 L125.4,138.0 L126.3,167.1 L127.1,180.0 L128.0,180.9 L128.8,185.8 L129.6,112.6 L130.5,82.6 L131.3,89.4 L132.2,90.6 L133.0,98.8 L133.9,85.4 L134.7,90.9 L135.5,120.0 L136.4,150.9 L137.2,179.7 L138.1,266.6 L138.9,267.2 L139.7,268.8 L140.6,263.6 L141.4,255.9 L142.3,255.6 L143.1,233.2 L144.0,224.7 L144.8,192.8 L145.6,201.4 L146.5,216.7 L147.3,187.6 L148.2,210.9 L149.0,177.5 L149.8,163.4 L150.7,198.0 L151.5,232.9 L152.4,210.9 L153.2,175.4 L154.1,168.6 L154.9,199.9 L155.7,167.7 L156.6,181.2 L157.4,182.4 L158.3,157.0 L159.1,167.1 L159.9,163.8 L160.8,183.7 L161.6,180.6 L162.5,177.8 L163.3,176.6 L164.2,184.6 L165.0,195.3 L165.8,191.3 L166.7,166.5 L167.5,183.3 L168.4,174.5 L169.2,146.3 L170.0,175.7 L170.9,175.7 L171.7,140.5 L172.6,137.7 L173.4,145.7 L174.2,157.9 L175.1,180.0 L175.9,164.7 L176.8,162.2 L177.6,160.1 L178.5,152.7 L179.3,150.0 L180.1,149.7 L181.0,184.3 L181.8,155.8 L182.7,141.7 L183.5,137.7 L184.3,150.0 L185.2,127.0 L186.0,124.9 L186.9,123.0 L187.7,144.8 L188.6,157.6 L189.4,138.0 L190.2,134.4 L191.1,164.4 L191.9,176.3 L192.8,173.2 L193.6,185.2 L194.4,197.4 L195.3,202.6 L196.1,222.5 L197.0,223.8 L197.8,228.0 L198.7,219.8 L199.5,241.8 L200.3,249.2 L201.2,252.8 L202.0,242.7 L202.9,241.5 L203.7,231.7 L204.5,223.5 L205.4,223.5 L206.2,225.0 L207.1,224.4 L207.9,235.1 L208.8,235.1 L209.6,240.6 L210.4,248.2 L211.3,222.5 L212.1,218.2 L213.0,193.4 L213.8,196.2 L214.6,222.5 L215.5,219.5 L216.3,236.9 L217.2,229.6 L218.0,207.2 L218.8,218.9 L219.7,223.5 L220.5,223.5 L221.4,235.1 L222.2,244.9 L223.1,217.9 L223.9,236.0 L224.7,226.2 L225.6,223.8 L226.4,214.6 L227.3,169.9 L228.1,173.5 L228.9,156.7 L229.8,169.9 L230.6,198.0 L231.5,202.6 L232.3,200.5 L233.2,153.3 L234.0,194.4 L234.8,222.8 L235.7,224.1 L236.5,226.2 L237.4,243.0 L238.2,230.8 L239.0,237.2 L239.9,235.7 L240.7,241.2 L241.6,232.9 L242.4,239.1 L243.3,233.6 L244.1,216.4 L244.9,218.6 L245.8,228.3 L246.6,208.4 L247.5,219.5 L248.3,221.9 L249.1,229.6 L250.0,241.5 L250.8,245.5 L251.7,201.4 L252.5,213.3 L253.4,215.8 L254.2,192.5 L255.0,218.2 L255.9,219.2 L256.7,212.1 L257.6,178.8 L258.4,208.1 L259.2,209.1 L260.1,210.3 L260.9,189.8 L261.8,186.7 L262.6,195.0 L263.5,174.5 L264.3,203.9 L265.1,174.2 L266.0,197.4 L266.8,184.3 L267.7,173.2 L268.5,172.9 L269.3,177.8 L270.2,184.9 L271.0,205.4 L271.9,195.3 L272.7,164.7 L273.5,165.0 L274.4,139.0 L275.2,156.1 L276.1,207.2 L276.9,195.3 L277.8,169.3 L278.6,182.7 L279.4,185.2 L280.3,172.6 L281.1,176.0 L282.0,188.5 L282.8,181.5 L283.6,182.4 L284.5,180.9 L285.3,167.4 L286.2,142.0 L287.0,149.1 L287.9,199.3 L288.7,175.7 L289.5,181.8 L290.4,169.0 L291.2,182.7 L292.1,199.3 L292.9,169.3 L293.7,161.0 L294.6,170.8 L295.4,177.5 L296.3,180.3 L297.1,180.0 L298.0,185.5 L298.8,176.3 L299.6,206.0 L300.5,191.0 L301.3,184.0 L302.2,188.9 L303.0,177.5 L303.8,177.2 L304.7,192.2 L305.5,170.2 L306.4,184.9 L307.2,217.6 L308.1,195.0 L308.9,199.3 L309.7,201.4 L310.6,196.8 L311.4,179.7 L312.3,197.7 L313.1,181.5 L313.9,172.6 L314.8,165.0 L315.6,174.8 L316.5,196.5 L317.3,192.8 L318.1,187.9 L319.0,200.2 L319.8,216.1 L320.7,210.3 L321.5,204.8 L322.4,203.6 L323.2,204.5 L324.0,195.3 L324.9,192.5 L325.7,229.6 L326.6,227.7 L327.4,234.5 L328.2,234.5 L329.1,236.6 L329.9,233.2 L330.8,236.6 L331.6,238.8 L332.5,250.1 L333.3,222.2 L334.1,205.1 L335.0,182.4 L335.8,185.2 L336.7,180.3 L337.5,184.3 L338.3,198.0 L339.2,198.7 L340.0,215.8 L340.9,199.0 L341.7,205.1 L342.6,208.1 L343.4,203.9 L344.2,197.1 L345.1,200.2 L345.9,231.7 L346.8,211.5 L347.6,191.0 L348.4,218.2 L349.3,200.5 L350.1,203.6 L351.0,219.2 L351.8,223.1 L352.7,212.7 L353.5,213.0 L354.3,220.1 L355.2,249.2 L356.0,260.5 L356.9,266.9 L357.7,270.9 L358.5,276.1 L359.4,280.4 L360.2,276.1 L361.1,266.9 L361.9,256.8 L362.7,257.4 L363.6,242.7 L364.4,220.7 L365.3,212.1 L366.1,207.5 L367.0,175.7 L367.8,203.6 L368.6,165.0 L369.5,180.9 L370.3,200.2 L371.2,200.2 L372.0,189.5 L372.8,187.6 L373.7,202.0 L374.5,218.2 L375.4,238.1 L376.2,205.1 L377.1,211.5 L377.9,226.8 L378.7,229.6 L379.6,234.8 L380.4,258.4 L381.3,256.8 L382.1,257.7 L382.9,259.6 L383.8,235.7 L384.6,225.0 L385.5,204.5 L386.3,220.4 L387.2,197.7 L388.0,196.5 L388.8,196.2 L389.7,213.3 L390.5,195.6 L391.4,181.2 L392.2,178.8 L393.0,179.7 L393.9,174.2 L394.7,204.2 L395.6,204.8 L396.4,183.0 L397.3,231.7 L398.1,233.2 L398.9,231.4 L399.8,240.0 L400.6,237.8 L401.5,237.2 L402.3,237.2 L403.1,233.6 L404.0,231.7 L404.8,225.0 L405.7,221.0 L406.5,202.0 L407.3,202.0 L408.2,197.1 L409.0,203.2 L409.9,181.8 L410.7,169.6 L411.6,137.1 L412.4,115.1 L413.2,136.5 L414.1,143.2 L414.9,114.2 L415.8,140.2 L416.6,139.6 L417.4,145.7 L418.3,158.2 L419.1,170.5 L420.0,182.4 L420.8,209.1 L421.7,206.3 L422.5,231.7 L423.3,199.3 L424.2,171.1 L425.0,171.7 L425.9,170.8 L426.7,187.0 L427.5,176.3 L428.4,184.0 L429.2,191.0 L430.1,192.8 L430.9,165.3 L431.8,167.1 L432.6,186.7 L433.4,176.9 L434.3,172.9 L435.1,165.9 L436.0,177.8 L436.8,162.2 L437.6,171.4 L438.5,156.4 L439.3,161.6 L440.2,169.9 L441.0,170.8 L441.9,172.6 L442.7,187.9 L443.5,211.2 L444.4,233.9 L445.2,182.7 L446.1,179.4 L446.9,185.8 L447.7,184.9 L448.6,186.7 L449.4,172.6 L450.3,166.2 L451.1,167.1 L451.9,144.5 L452.8,158.9 L453.6,142.6 L454.5,149.7 L455.3,169.0 L456.2,175.7 L457.0,146.9 L457.8,160.4 L458.7,206.3 L459.5,157.6 L460.4,184.6 L461.2,215.2 L462.0,189.8 L462.9,219.8 L463.7,222.8 L464.6,239.4 L465.4,231.7 L466.3,208.8 L467.1,218.6 L467.9,223.1 L468.8,221.9 L469.6,224.7 L470.5,224.4 L471.3,247.6 L472.1,219.5 L473.0,224.7 L473.8,211.5 L474.7,223.1 L475.5,186.4 L476.4,204.5 L477.2,184.0 L478.0,198.3 L478.9,206.6 L479.7,203.9 L480.6,187.9 L481.4,179.1 L482.2,195.9 L483.1,199.9 L483.9,215.5 L484.8,234.2 L485.6,228.0 L486.5,240.6 L487.3,253.5 L488.1,250.4 L489.0,246.1 L489.8,242.7 L490.7,224.7 L491.5,220.4 L492.3,223.8 L493.2,224.1 L494.0,220.4 L494.9,215.8 L495.7,187.9 L496.5,183.7 L497.4,175.4 L498.2,163.8 L499.1,195.6 L499.9,195.3 L500.8,195.6 L501.6,187.6 L502.4,191.9 L503.3,186.4 L504.1,187.9 L505.0,185.5 L505.8,180.9 L506.6,205.4 L507.5,203.6 L508.3,201.1 L509.2,201.4 L510.0,198.0 L510.9,173.5 L511.7,179.7 L512.5,178.4 L513.4,180.0 L514.2,187.0 L515.1,148.7 L515.9,149.7 L516.7,157.6 L517.6,169.9 L518.4,176.6 L519.3,164.7 L520.1,184.9 L521.0,189.2 L521.8,188.9 L522.6,189.2 L523.5,187.0 L524.3,198.7 L525.2,212.1 L526.0,195.6 L526.8,168.3 L527.7,153.0 L528.5,145.1 L529.4,122.4 L530.2,118.7 L531.1,121.2 L531.9,120.3 L532.7,107.1 L533.6,134.4 L534.4,116.9 L535.3,127.9 L536.1,136.5 L536.9,119.1 L537.8,127.3 L538.6,183.3 L539.5,185.2 L540.3,187.3 L541.2,185.8 L542.0,205.7 L542.8,214.6 L543.7,219.8 L544.5,208.4 L545.4,189.8 L546.2,185.5 L547.0,196.5 L547.9,198.3 L548.7,206.6 L549.6,186.4 L550.4,174.2 L551.2,175.7 L552.1,176.3 L552.9,171.4 L553.8,183.7 L554.6,184.9 L555.5,181.5 L556.3,135.0 L557.1,161.3 L558.0,181.2 L558.8,170.2 L559.7,158.2 L560.5,152.7 L561.3,176.3 L562.2,234.8 L563.0,238.5 L563.9,233.2 L564.7,211.2 L565.6,218.6 L566.4,210.3 L567.2,208.8 L568.1,210.3 L568.9,207.2 L569.8,213.3 L570.6,210.6 L571.4,203.6 L572.3,137.7 L573.1,137.7 L574.0,201.4 L574.8,198.0 L575.7,195.3 L576.5,199.6 L577.3,155.8 L578.2,129.8 L579.0,147.2 L579.9,219.5 L580.7,224.1 L581.5,244.6 L582.4,244.9 L583.2,255.6 L584.1,256.5 L584.9,255.6 L585.8,245.5 L586.6,233.9 L587.4,215.2 L588.3,201.4 L589.1,192.2 L590.0,185.8 L590.8,156.1 L591.6,147.2 L592.5,132.5 L593.3,140.5 L594.2,140.2 L595.0,152.4 L595.8,147.8 L596.7,136.8 L597.5,167.4 L598.4,176.9 L599.2,180.6 L600.1,197.4 L600.9,225.6 L601.7,235.1 L602.6,234.5 L603.4,227.1 L604.3,226.8 L605.1,226.5 L605.9,218.9 L606.8,219.8 L607.6,202.9 L608.5,206.9 L609.3,204.8 L610.2,186.4 L611.0,177.2 L611.8,189.5 L612.7,182.7 L613.5,179.7 L614.4,189.8 L615.2,195.3 L616.0,185.5 L616.9,196.5 L617.7,193.1 L618.6,195.0 L619.4,141.4 L620.3,155.5 L621.1,190.4 L621.9,187.9 L622.8,191.0 L623.6,190.7 L624.5,195.6 L625.3,192.8 L626.1,180.9 L627.0,174.8 L627.8,192.5 L628.7,204.5 L629.5,190.7 L630.4,190.1 L631.2,184.0 L632.0,190.1 L632.9,202.0 L633.7,220.1 L634.6,186.4 L635.4,190.4 L636.2,204.5 L637.1,199.6 L637.9,179.4 L638.8,195.6 L639.6,188.9 L640.4,167.1 L641.3,176.9 L642.1,192.5 L643.0,180.9 L643.8,218.9 L644.7,227.1 L645.5,202.9 L646.3,201.1 L647.2,198.0 L648.0,186.1 L648.9,228.7 L649.7,226.2 L650.5,215.8 L651.4,219.2 L652.2,198.7 L653.1,197.1 L653.9,175.7 L654.8,174.5 L655.6,174.8 L656.4,142.0 L657.3,123.6 L658.1,132.2 L659.0,133.1 L659.8,131.6 L660.6,142.3 L661.5,142.0 L662.3,136.2 L663.2,133.1 L664.0,133.7 L664.9,150.3 L665.7,183.0 L666.5,180.9 L667.4,189.5 L668.2,165.6 L669.1,158.2 L669.9,142.9 L670.7,140.5 L671.6,148.1 L672.4,161.6 L673.3,173.5 L674.1,196.2 L675.0,191.3 L675.8,198.0 L676.6,152.1 L677.5,117.2 L678.3,118.7 L679.2,113.5 L680.0,142.9" stroke="#8c564b" stroke-width="2" fill="none" opacity="0.8"/>
<!-- Forecast Difference -->
<path d="M80.0,420.0 L80.8,420.0 L81.7,420.0 L82.5,420.0 L83.4,420.0 L84.2,420.0 L85.0,420.0 L85.9,420.0 L86.7,420.0 L87.6,420.0 L88.4,420.0 L89.3,420.0 L90.1,420.0 L90.9,420.0 L91.8,420.0 L92.6,420.0 L93.5,420.0 L94.3,420.0 L95.1,420.0 L96.0,420.0 L96.8,420.0 L97.7,420.0 L98.5,420.0 L99.4,420.0 L100.2,420.0 L101.0,420.0 L101.9,420.0 L102.7,420.0 L103.6,420.0 L104.4,420.0 L105.2,420.0 L106.1,420.0 L106.9,420.0 L107.8,420.0 L108.6,420.0 L109.5,420.0 L110.3,420.0 L111.1,420.0 L112.0,420.0 L112.8,420.0 L113.7,420.0 L114.5,420.0 L115.3,420.0 L116.2,420.0 L117.0,420.0 L117.9,420.0 L118.7,420.0 L119.6,420.0 L120.4,420.0 L121.2,420.0 L122.1,420.0 L122.9,420.0 L123.8,420.0 L124.6,420.0 L125.4,420.0 L126.3,420.0 L127.1,420.0 L128.0,420.0 L128.8,420.0 L129.6,420.0 L130.5,420.0 L131.3,420.0 L132.2,420.0 L133.0,420.0 L133.9,420.0 L134.7,420.0 L135.5,420.0 L136.4,420.0 L137.2,420.0 L138.1,420.0 L138.9,420.0 L139.7,420.0 L140.6,420.0 L141.4,420.0 L142.3,420.0 L143.1,420.0 L144.0,420.0 L144.8,420.0 L145.6,420.0 L146.5,420.0 L147.3,420.0 L148.2,420.0 L149.0,420.0 L149.8,420.0 L150.7,420.0 L151.5,420.0 L152.4,420.0 L153.2,420.0 L154.1,420.0 L154.9,420.0 L155.7,420.0 L156.6,420.0 L157.4,420.0 L158.3,420.0 L159.1,420.0 L159.9,420.0 L160.8,420.0 L161.6,420.0 L162.5,420.0 L163.3,420.0 L164.2,420.0 L165.0,420.0 L165.8,420.0 L166.7,420.0 L167.5,420.0 L168.4,420.0 L169.2,420.0 L170.0,420.0 L170.9,420.0 L171.7,420.0 L172.6,420.0 L173.4,420.0 L174.2,420.0 L175.1,420.0 L175.9,420.0 L176.8,420.0 L177.6,420.0 L178.5,420.0 L179.3,420.0 L180.1,420.0 L181.0,420.0 L181.8,420.0 L182.7,420.0 L183.5,420.0 L184.3,420.0 L185.2,420.0 L186.0,420.0 L186.9,420.0 L187.7,420.0 L188.6,420.0 L189.4,420.0 L190.2,420.0 L191.1,420.0 L191.9,420.0 L192.8,420.0 L193.6,420.0 L194.4,420.0 L195.3,420.0 L196.1,420.0 L197.0,420.0 L197.8,420.0 L198.7,420.0 L199.5,420.0 L200.3,420.0 L201.2,420.0 L202.0,420.0 L202.9,420.0 L203.7,420.0 L204.5,420.0 L205.4,420.0 L206.2,420.0 L207.1,420.0 L207.9,420.0 L208.8,420.0 L209.6,420.0 L210.4,420.0 L211.3,420.0 L212.1,420.0 L213.0,420.0 L213.8,420.0 L214.6,420.0 L215.5,420.0 L216.3,420.0 L217.2,420.0 L218.0,420.0 L218.8,420.0 L219.7,420.0 L220.5,420.0 L221.4,420.0 L222.2,420.0 L223.1,420.0 L223.9,420.0 L224.7,420.0 L225.6,420.0 L226.4,420.0 L227.3,420.0 L228.1,420.0 L228.9,420.0 L229.8,420.0 L230.6,420.0 L231.5,420.0 L232.3,420.0 L233.2,420.0 L234.0,420.0 L234.8,420.0 L235.7,420.0 L236.5,420.0 L237.4,420.0 L238.2,420.0 L239.0,420.0 L239.9,420.0 L240.7,420.0 L241.6,420.0 L242.4,420.0 L243.3,420.0 L244.1,420.0 L244.9,420.0 L245.8,420.0 L246.6,420.0 L247.5,420.0 L248.3,420.0 L249.1,420.0 L250.0,420.0 L250.8,420.0 L251.7,420.0 L252.5,420.0 L253.4,420.0 L254.2,420.0 L255.0,420.0 L255.9,420.0 L256.7,420.0 L257.6,420.0 L258.4,420.0 L259.2,420.0 L260.1,420.0 L260.9,420.0 L261.8,420.0 L262.6,420.0 L263.5,420.0 L264.3,420.0 L265.1,420.0 L266.0,420.0 L266.8,420.0 L267.7,420.0 L268.5,420.0 L269.3,420.0 L270.2,420.0 L271.0,420.0 L271.9,420.0 L272.7,420.0 L273.5,420.0 L274.4,420.0 L275.2,420.0 L276.1,420.0 L276.9,420.0 L277.8,420.0 L278.6,420.0 L279.4,420.0 L280.3,420.0 L281.1,420.0 L282.0,420.0 L282.8,420.0 L283.6,420.0 L284.5,420.0 L285.3,420.0 L286.2,420.0 L287.0,420.0 L287.9,420.0 L288.7,420.0 L289.5,420.0 L290.4,420.0 L291.2,420.0 L292.1,420.0 L292.9,420.0 L293.7,420.0 L294.6,420.0 L295.4,420.0 L296.3,420.0 L297.1,420.0 L298.0,420.0 L298.8,420.0 L299.6,420.0 L300.5,420.0 L301.3,420.0 L302.2,420.0 L303.0,420.0 L303.8,420.0 L304.7,420.0 L305.5,420.0 L306.4,420.0 L307.2,420.0 L308.1,420.0 L308.9,420.0 L309.7,420.0 L310.6,420.0 L311.4,420.0 L312.3,420.0 L313.1,420.0 L313.9,420.0 L314.8,420.0 L315.6,420.0 L316.5,420.0 L317.3,420.0 L318.1,420.0 L319.0,420.0 L319.8,420.0 L320.7,420.0 L321.5,420.0 L322.4,420.0 L323.2,420.0 L324.0,420.0 L324.9,420.0 L325.7,420.0 L326.6,420.0 L327.4,420.0 L328.2,420.0 L329.1,420.0 L329.9,420.0 L330.8,420.0 L331.6,420.0 L332.5,420.0 L333.3,420.0 L334.1,420.0 L335.0,420.0 L335.8,420.0 L336.7,420.0 L337.5,420.0 L338.3,420.0 L339.2,420.0 L340.0,420.0 L340.9,420.0 L341.7,420.0 L342.6,420.0 L343.4,420.0 L344.2,420.0 L345.1,420.0 L345.9,420.0 L346.8,420.0 L347.6,420.0 L348.4,420.0 L349.3,420.0 L350.1,420.0 L351.0,420.0 L351.8,420.0 L352.7,420.0 L353.5,420.0 L354.3,420.0 L355.2,420.0 L356.0,420.0 L356.9,420.0 L357.7,420.0 L358.5,420.0 L359.4,420.0 L360.2,420.0 L361.1,420.0 L361.9,420.0 L362.7,420.0 L363.6,420.0 L364.4,420.0 L365.3,420.0 L366.1,420.0 L367.0,420.0 L367.8,420.0 L368.6,420.0 L369.5,420.0 L370.3,420.0 L371.2,420.0 L372.0,420.0 L372.8,420.0 L373.7,420.0 L374.5,420.0 L375.4,420.0 L376.2,420.0 L377.1,420.0 L377.9,420.0 L378.7,420.0 L379.6,420.0 L380.4,420.0 L381.3,420.0 L382.1,420.0 L382.9,420.0 L383.8,420.0 L384.6,420.0 L385.5,420.0 L386.3,420.0 L387.2,420.0 L388.0,420.0 L388.8,420.0 L389.7,420.0 L390.5,420.0 L391.4,420.0 L392.2,420.0 L393.0,420.0 L393.9,420.0 L394.7,420.0 L395.6,420.0 L396.4,420.0 L397.3,420.0 L398.1,420.0 L398.9,420.0 L399.8,420.0 L400.6,420.0 L401.5,420.0 L402.3,420.0 L403.1,420.0 L404.0,420.0 L404.8,420.0 L405.7,420.0 L406.5,420.0 L407.3,420.0 L408.2,420.0 L409.0,420.0 L409.9,420.0 L410.7,420.0 L411.6,420.0 L412.4,420.0 L413.2,420.0 L414.1,420.0 L414.9,420.0 L415.8,420.0 L416.6,420.0 L417.4,420.0 L418.3,420.0 L419.1,420.0 L420.0,420.0 L420.8,420.0 L421.7,420.0 L422.5,420.0 L423.3,420.0 L424.2,420.0 L425.0,420.0 L425.9,420.0 L426.7,420.0 L427.5,420.0 L428.4,420.0 L429.2,420.0 L430.1,420.0 L430.9,420.0 L431.8,420.0 L432.6,420.0 L433.4,420.0 L434.3,420.0 L435.1,420.0 L436.0,420.0 L436.8,420.0 L437.6,420.0 L438.5,420.0 L439.3,420.0 L440.2,420.0 L441.0,420.0 L441.9,420.0 L442.7,420.0 L443.5,420.0 L444.4,420.0 L445.2,420.0 L446.1,420.0 L446.9,420.0 L447.7,420.0 L448.6,420.0 L449.4,420.0 L450.3,420.0 L451.1,420.0 L451.9,420.0 L452.8,420.0 L453.6,420.0 L454.5,420.0 L455.3,420.0 L456.2,420.0 L457.0,420.0 L457.8,420.0 L458.7,420.0 L459.5,420.0 L460.4,420.0 L461.2,420.0 L462.0,420.0 L462.9,420.0 L463.7,420.0 L464.6,420.0 L465.4,420.0 L466.3,420.0 L467.1,420.0 L467.9,420.0 L468.8,420.0 L469.6,420.0 L470.5,420.0 L471.3,420.0 L472.1,420.0 L473.0,420.0 L473.8,420.0 L474.7,420.0 L475.5,420.0 L476.4,420.0 L477.2,420.0 L478.0,420.0 L478.9,420.0 L479.7,420.0 L480.6,420.0 L481.4,420.0 L482.2,420.0 L483.1,420.0 L483.9,420.0 L484.8,420.0 L485.6,420.0 L486.5,420.0 L487.3,420.0 L488.1,420.0 L489.0,420.0 L489.8,420.0 L490.7,420.0 L491.5,420.0 L492.3,420.0 L493.2,420.0 L494.0,420.0 L494.9,420.0 L495.7,420.0 L496.5,420.0 L497.4,420.0 L498.2,420.0 L499.1,420.0 L499.9,420.0 L500.8,420.0 L501.6,420.0 L502.4,420.0 L503.3,420.0 L504.1,420.0 L505.0,420.0 L505.8,420.0 L506.6,420.0 L507.5,420.0 L508.3,420.0 L509.2,420.0 L510.0,420.0 L510.9,420.0 L511.7,420.0 L512.5,420.0 L513.4,420.0 L514.2,420.0 L515.1,420.0 L515.9,420.0 L516.7,420.0 L517.6,420.0 L518.4,420.0 L519.3,420.0 L520.1,420.0 L521.0,420.0 L521.8,420.0 L522.6,420.0 L523.5,420.0 L524.3,420.0 L525.2,420.0 L526.0,420.0 L526.8,420.0 L527.7,420.0 L528.5,420.0 L529.4,420.0 L530.2,420.0 L531.1,420.0 L531.9,420.0 L532.7,420.0 L533.6,420.0 L534.4,420.0 L535.3,420.0 L536.1,420.0 L536.9,420.0 L537.8,420.0 L538.6,420.0 L539.5,420.0 L540.3,420.0 L541.2,420.0 L542.0,420.0 L542.8,420.0 L543.7,420.0 L544.5,420.0 L545.4,420.0 L546.2,420.0 L547.0,420.0 L547.9,420.0 L548.7,420.0 L549.6,420.0 L550.4,420.0 L551.2,420.0 L552.1,420.0 L552.9,420.0 L553.8,420.0 L554.6,420.0 L555.5,420.0 L556.3,420.0 L557.1,420.0 L558.0,420.0 L558.8,420.0 L559.7,420.0 L560.5,420.0 L561.3,420.0 L562.2,420.0 L563.0,420.0 L563.9,420.0 L564.7,420.0 L565.6,420.0 L566.4,420.0 L567.2,420.0 L568.1,420.0 L568.9,420.0 L569.8,420.0 L570.6,420.0 L571.4,420.0 L572.3,420.0 L573.1,420.0 L574.0,420.0 L574.8,420.0 L575.7,420.0 L576.5,420.0 L577.3,420.0 L578.2,420.0 L579.0,420.0 L579.9,420.0 L580.7,420.0 L581.5,420.0 L582.4,420.0 L583.2,420.0 L584.1,420.0 L584.9,420.0 L585.8,420.0 L586.6,420.0 L587.4,420.0 L588.3,420.0 L589.1,420.0 L590.0,420.0 L590.8,420.0 L591.6,420.0 L592.5,420.0 L593.3,420.0 L594.2,420.0 L595.0,420.0 L595.8,420.0 L596.7,420.0 L597.5,420.0 L598.4,420.0 L599.2,420.0 L600.1,420.0 L600.9,420.0 L601.7,420.0 L602.6,420.0 L603.4,420.0 L604.3,420.0 L605.1,420.0 L605.9,420.0 L606.8,420.0 L607.6,420.0 L608.5,420.0 L609.3,420.0 L610.2,420.0 L611.0,420.0 L611.8,420.0 L612.7,420.0 L613.5,420.0 L614.4,420.0 L615.2,420.0 L616.0,420.0 L616.9,420.0 L617.7,420.0 L618.6,420.0 L619.4,420.0 L620.3,420.0 L621.1,420.0 L621.9,420.0 L622.8,420.0 L623.6,420.0 L624.5,420.0 L625.3,420.0 L626.1,420.0 L627.0,420.0 L627.8,420.0 L628.7,420.0 L629.5,420.0 L630.4,420.0 L631.2,420.0 L632.0,420.0 L632.9,420.0 L633.7,420.0 L634.6,420.0 L635.4,420.0 L636.2,420.0 L637.1,420.0 L637.9,420.0 L638.8,420.0 L639.6,420.0 L640.4,420.0 L641.3,420.0 L642.1,420.0 L643.0,420.0 L643.8,420.0 L644.7,420.0 L645.5,420.0 L646.3,420.0 L647.2,420.0 L648.0,420.0 L648.9,420.0 L649.7,420.0 L650.5,420.0 L651.4,420.0 L652.2,420.0 L653.1,420.0 L653.9,420.0 L654.8,420.0 L655.6,420.0 L656.4,420.0 L657.3,420.0 L658.1,420.0 L659.0,420.0 L659.8,420.0 L660.6,420.0 L661.5,420.0 L662.3,420.0 L663.2,420.0 L664.0,420.0 L664.9,420.0 L665.7,420.0 L666.5,420.0 L667.4,420.0 L668.2,420.0 L669.1,420.0 L669.9,420.0 L670.7,420.0 L671.6,420.0 L672.4,420.0 L673.3,420.0 L674.1,420.0 L675.0,420.0 L675.8,420.0 L676.6,420.0 L677.5,420.0 L678.3,420.0 L679.2,420.0 L680.0,420.0" stroke="#e377c2" stroke-width="2" fill="none" opacity="0.8"/>

<!-- Legend -->
<line x1="690" y1="70" x2="705" y2="70" stroke="#1f77b4" stroke-width="3"/>
<text x="710" y="74" class="legend">Wind Generation</text>
<line x1="690" y1="88" x2="705" y2="88" stroke="#ff7f0e" stroke-width="3"/>
<text x="710" y="92" class="legend">Hydro Generation</text>
<line x1="690" y1="106" x2="705" y2="106" stroke="#2ca02c" stroke-width="3"/>
<text x="710" y="110" class="legend">Thermal Generation</text>
<line x1="690" y1="124" x2="705" y2="124" stroke="#d62728" stroke-width="3"/>
<text x="710" y="128" class="legend">Solar Generation</text>
<line x1="690" y1="142" x2="705" y2="142" stroke="#9467bd" stroke-width="3"/>
<text x="710" y="146" class="legend">Forecast</text>
<line x1="690" y1="160" x2="705" y2="160" stroke="#8c564b" stroke-width="3"/>
<text x="710" y="164" class="legend">Total Generation</text>
<line x1="690" y1="178" x2="705" y2="178" stroke="#e377c2" stroke-width="3"/>
<text x="710" y="182" class="legend">Forecast Difference</text>

<!-- Date range -->
<text x="80" y="495" class="legend">Range: 05/10 - 06/08/2026 (714 records)</text>
</svg>