<?xml version="1.0" encoding="UTF-8"?>
<svg width="800" height="500" xmlns="http://www.w3.org/2000/svg">
<style>
.axis-line { stroke: #333; stroke-width: 1; }
.grid-line { stroke: #ddd; stroke-width: 0.5; }
.title { font: 16px Arial; text-anchor: middle; fill: #333; }
.axis-label { font: 12px Arial; text-anchor: middle; fill: #666; }
.legend { font: 10px Arial; fill: #333; }
</style>

<!-- Title -->
<text x="400.0" y="25" class="title">Northwestern Energy Generation Data - Past 30 Days</text>

<!-- Plot area background -->
<rect x="80" y="50" width="600" height="370" fill="white" stroke="#ddd"/>

<!-- Y-axis -->
<line x1="80" y1="50" x2="80" y2="420" class="axis-line"/>
<text x="30" y="235.0" class="axis-label" transform="rotate(-90, 30, 235.0)">Generation (MW)</text>

<!-- X-axis -->
<line x1="80" y1="420" x2="680" y2="420" class="axis-line"/>
<text x="380.0" y="480" class="axis-label">Time</text>
<line x1="80" y1="420.0" x2="680" y2="420.0" class="grid-line"/>
<text x="70" y="425.0" class="legend" text-anchor="end">0</text>
<line x1="80" y1="327.5" x2="680" y2="327.5" class="grid-line"/>
<text x="70" y="332.5" class="legend" text-anchor="end">313</text>
<line x1="80" y1="235.0" x2="680" y2="235.0" class="grid-line"/>
<text x="70" y="240.0" class="legend" text-anchor="end">625</text>
<line x1="80" y1="142.5" x2="680" y2="142.5" class="grid-line"/>
<text x="70" y="147.5" class="legend" text-anchor="end">938</text>
<line x1="80" y1="50.0" x2="680" y2="50.0" class="grid-line"/>
<text x="70" y="55.0" class="legend" text-anchor="end">1251</text>
<!-- Wind Generation -->
<path d="M80.0,392.2 L80.8,382.1 L81.7,383.6 L82.5,399.9 L83.4,410.2 L84.2,415.6 L85.1,410.5 L85.9,391.9 L86.7,404.9 L87.6,374.1 L88.4,374.7 L89.3,406.1 L90.1,408.5 L91.0,391.3 L91.8,371.8 L92.6,358.5 L93.5,361.1 L94.3,332.4 L95.2,335.4 L96.0,314.7 L96.9,305.2 L97.7,316.4 L98.5,309.6 L99.4,303.4 L100.2,312.6 L101.1,319.7 L101.9,317.6 L102.8,293.7 L103.6,289.5 L104.4,300.2 L105.3,299.3 L106.1,317.3 L107.0,323.3 L107.8,301.1 L108.7,330.6 L109.5,362.6 L110.3,384.2 L111.2,403.7 L112.0,397.5 L112.9,401.4 L113.7,402.2 L114.6,400.5 L115.4,395.7 L116.2,377.1 L117.1,361.4 L117.9,353.4 L118.8,340.7 L119.6,303.7 L120.4,327.7 L121.3,316.7 L122.1,306.1 L123.0,298.1 L123.8,299.0 L124.7,293.1 L125.5,290.7 L126.3,295.4 L127.2,291.6 L128.0,288.9 L128.9,315.0 L129.7,325.3 L130.6,323.8 L131.4,299.9 L132.2,309.9 L133.1,325.6 L133.9,347.8 L134.8,329.5 L135.6,312.0 L136.5,296.6 L137.3,301.9 L138.1,309.3 L139.0,313.8 L139.8,326.8 L140.7,353.4 L141.5,369.1 L142.4,361.1 L143.2,340.4 L144.0,355.8 L144.9,368.5 L145.7,365.0 L146.6,359.9 L147.4,375.3 L148.3,394.3 L149.1,395.1 L149.9,394.3 L150.8,404.9 L151.6,401.4 L152.5,400.5 L153.3,403.1 L154.2,399.9 L155.0,391.9 L155.8,384.5 L156.7,380.6 L157.5,380.6 L158.4,379.8 L159.2,372.4 L160.1,373.5 L160.9,357.6 L161.7,354.6 L162.6,366.2 L163.4,371.8 L164.3,350.8 L165.1,313.2 L166.0,319.4 L166.8,290.7 L167.6,289.5 L168.5,289.5 L169.3,289.8 L170.2,299.3 L171.0,296.3 L171.9,294.6 L172.7,300.5 L173.5,291.3 L174.4,299.0 L175.2,315.0 L176.1,319.4 L176.9,316.7 L177.8,328.6 L178.6,346.9 L179.4,347.2 L180.3,362.0 L181.1,367.9 L182.0,394.9 L182.8,401.4 L183.7,391.3 L184.5,395.7 L185.3,398.7 L186.2,404.0 L187.0,405.8 L187.9,398.7 L188.7,400.2 L189.6,396.9 L190.4,389.5 L191.2,385.7 L192.1,396.0 L192.9,405.8 L193.8,417.0 L194.6,417.6 L195.4,415.6 L196.3,415.6 L197.1,410.2 L198.0,410.5 L198.8,408.5 L199.7,408.2 L200.5,407.6 L201.3,407.9 L202.2,407.9 L203.0,414.7 L203.9,418.2 L204.7,416.7 L205.6,415.6 L206.4,408.2 L207.2,400.5 L208.1,397.2 L208.9,398.7 L209.8,391.6 L210.6,382.7 L211.5,399.6 L212.3,394.3 L213.1,388.3 L214.0,384.5 L214.8,368.5 L215.7,367.3 L216.5,339.8 L217.4,335.1 L218.2,334.5 L219.0,310.2 L219.9,312.0 L220.7,324.7 L221.6,318.2 L222.4,315.3 L223.3,314.7 L224.1,313.2 L224.9,313.2 L225.8,323.8 L226.6,325.3 L227.5,321.5 L228.3,338.3 L229.2,352.5 L230.0,360.2 L230.8,345.7 L231.7,359.9 L232.5,331.5 L233.4,323.0 L234.2,310.2 L235.1,302.8 L235.9,315.9 L236.7,300.5 L237.6,303.4 L238.4,307.0 L239.3,306.7 L240.1,311.1 L241.0,328.3 L241.8,321.2 L242.6,324.4 L243.5,323.5 L244.3,305.8 L245.2,304.3 L246.0,298.1 L246.9,298.1 L247.7,298.4 L248.5,303.7 L249.4,304.0 L250.2,300.5 L251.1,310.2 L251.9,314.7 L252.8,329.5 L253.6,326.8 L254.4,347.5 L255.3,352.5 L256.1,372.1 L257.0,377.1 L257.8,386.6 L258.7,412.0 L259.5,408.8 L260.3,411.4 L261.2,413.5 L262.0,409.9 L262.9,403.4 L263.7,401.1 L264.6,401.1 L265.4,404.3 L266.2,412.0 L267.1,415.9 L267.9,414.1 L268.8,411.4 L269.6,415.0 L270.4,414.7 L271.3,411.4 L272.1,409.9 L273.0,417.6 L273.8,413.8 L274.7,418.5 L275.5,417.9 L276.3,415.6 L277.2,412.0 L278.0,412.9 L278.9,400.8 L279.7,392.8 L280.6,357.6 L281.4,352.8 L282.2,336.6 L283.1,348.4 L283.9,358.5 L284.8,341.9 L285.6,337.5 L286.5,349.9 L287.3,352.2 L288.1,365.3 L289.0,361.7 L289.8,352.5 L290.7,390.1 L291.5,397.2 L292.4,406.7 L293.2,411.7 L294.0,411.7 L294.9,410.2 L295.7,410.8 L296.6,415.0 L297.4,416.2 L298.3,413.2 L299.1,412.0 L299.9,410.2 L300.8,411.4 L301.6,412.9 L302.5,416.7 L303.3,416.7 L304.2,416.4 L305.0,416.2 L305.8,412.9 L306.7,412.0 L307.5,414.1 L308.4,409.3 L309.2,413.5 L310.1,412.3 L310.9,408.8 L311.7,410.2 L312.6,391.3 L313.4,369.4 L314.3,344.6 L315.1,340.4 L316.0,298.4 L316.8,308.5 L317.6,324.1 L318.5,304.6 L319.3,333.3 L320.2,331.8 L321.0,333.9 L321.9,309.0 L322.7,307.6 L323.5,330.6 L324.4,301.4 L325.2,293.4 L326.1,291.6 L326.9,294.8 L327.8,296.6 L328.6,295.7 L329.4,293.7 L330.3,294.8 L331.1,294.6 L332.0,299.9 L332.8,293.1 L333.7,296.9 L334.5,300.2 L335.3,297.5 L336.2,299.3 L337.0,322.1 L337.9,331.5 L338.7,330.9 L339.6,314.7 L340.4,343.7 L341.2,342.8 L342.1,355.5 L342.9,350.2 L343.8,345.4 L344.6,323.5 L345.4,299.0 L346.3,299.6 L347.1,299.3 L348.0,299.3 L348.8,300.8 L349.7,300.2 L350.5,300.2 L351.3,298.7 L352.2,299.9 L353.0,299.6 L353.9,297.8 L354.7,304.3 L355.6,297.8 L356.4,297.2 L357.2,296.9 L358.1,299.0 L358.9,302.2 L359.8,302.5 L360.6,302.2 L361.5,309.9 L362.3,318.2 L363.1,320.0 L364.0,332.7 L364.8,320.6 L365.7,341.0 L366.5,351.9 L367.4,364.1 L368.2,373.5 L369.0,378.6 L369.9,380.1 L370.7,391.0 L371.6,404.6 L372.4,414.1 L373.3,417.0 L374.1,418.5 L374.9,416.4 L375.8,418.2 L376.6,417.9 L377.5,417.6 L378.3,416.4 L379.2,416.2 L380.0,408.2 L380.8,404.6 L381.7,400.5 L382.5,390.1 L383.4,391.6 L384.2,391.9 L385.1,403.7 L385.9,397.5 L386.7,397.2 L387.6,391.6 L388.4,383.9 L389.3,377.7 L390.1,385.1 L391.0,390.1 L391.8,388.6 L392.6,363.8 L393.5,350.2 L394.3,336.0 L395.2,315.9 L396.0,317.6 L396.9,310.5 L397.7,304.6 L398.5,301.9 L399.4,302.2 L400.2,308.5 L401.1,318.5 L401.9,312.9 L402.8,317.6 L403.6,306.7 L404.4,307.3 L405.3,323.8 L406.1,324.1 L407.0,301.9 L407.8,311.4 L408.7,318.5 L409.5,330.1 L410.3,341.9 L411.2,342.2 L412.0,340.4 L412.9,324.7 L413.7,331.5 L414.6,310.2 L415.4,304.0 L416.2,310.8 L417.1,302.8 L417.9,308.5 L418.8,303.1 L419.6,299.3 L420.4,303.7 L421.3,302.2 L422.1,314.7 L423.0,304.0 L423.8,307.9 L424.7,300.2 L425.5,299.9 L426.3,299.0 L427.2,298.7 L428.0,298.1 L428.9,300.2 L429.7,299.9 L430.6,307.6 L431.4,326.5 L432.2,327.4 L433.1,341.9 L433.9,374.7 L434.8,379.8 L435.6,389.2 L436.5,392.8 L437.3,400.2 L438.1,411.7 L439.0,412.0 L439.8,414.7 L440.7,412.9 L441.5,415.3 L442.4,411.1 L443.2,408.5 L444.0,407.0 L444.9,397.5 L445.7,391.6 L446.6,383.0 L447.4,367.6 L448.3,351.9 L449.1,349.6 L449.9,362.6 L450.8,395.4 L451.6,411.1 L452.5,414.4 L453.3,417.9 L454.2,417.9 L455.0,409.6 L455.8,409.3 L456.7,399.6 L457.5,350.2 L458.4,346.6 L459.2,341.6 L460.1,340.4 L460.9,340.1 L461.7,328.3 L462.6,357.6 L463.4,385.4 L464.3,366.7 L465.1,373.8 L466.0,372.4 L466.8,378.3 L467.6,371.8 L468.5,369.7 L469.3,370.3 L470.2,351.9 L471.0,359.3 L471.9,351.1 L472.7,349.0 L473.5,337.5 L474.4,357.0 L475.2,354.6 L476.1,365.3 L476.9,358.2 L477.8,368.5 L478.6,339.5 L479.4,350.2 L480.3,328.0 L481.1,329.8 L482.0,335.4 L482.8,321.2 L483.7,318.5 L484.5,316.1 L485.3,360.2 L486.2,344.6 L487.0,348.7 L487.9,353.4 L488.7,360.2 L489.6,365.3 L490.4,366.2 L491.2,343.7 L492.1,356.4 L492.9,350.8 L493.8,333.3 L494.6,324.7 L495.4,334.8 L496.3,330.4 L497.1,312.0 L498.0,311.1 L498.8,311.7 L499.7,314.1 L500.5,319.1 L501.3,320.6 L502.2,352.5 L503.0,358.8 L503.9,335.7 L504.7,346.6 L505.6,337.7 L506.4,334.5 L507.2,309.9 L508.1,300.8 L508.9,301.1 L509.8,299.6 L510.6,301.7 L511.5,301.7 L512.3,325.3 L513.1,362.9 L514.0,385.4 L514.8,398.7 L515.7,410.2 L516.5,404.0 L517.4,407.3 L518.2,413.5 L519.0,415.6 L519.9,416.4 L520.7,417.6 L521.6,415.0 L522.4,412.9 L523.3,411.1 L524.1,407.9 L524.9,410.2 L525.8,415.0 L526.6,418.2 L527.5,416.2 L528.3,419.1 L529.2,418.2 L530.0,418.5 L530.8,415.0 L531.7,415.6 L532.5,415.3 L533.4,409.3 L534.2,412.3 L535.1,415.6 L535.9,415.0 L536.7,417.3 L537.6,416.7 L538.4,417.3 L539.3,417.9 L540.1,418.8 L541.0,415.6 L541.8,414.1 L542.6,414.1 L543.5,410.8 L544.3,408.2 L545.2,407.3 L546.0,406.7 L546.9,406.4 L547.7,403.1 L548.5,400.2 L549.4,390.1 L550.2,385.4 L551.1,372.4 L551.9,372.4 L552.8,373.8 L553.6,386.3 L554.4,393.4 L555.3,392.2 L556.1,388.6 L557.0,388.6 L557.8,376.5 L558.7,367.3 L559.5,387.2 L560.3,371.5 L561.2,383.6 L562.0,386.6 L562.9,399.3 L563.7,395.1 L564.6,393.1 L565.4,389.5 L566.2,407.3 L567.1,404.9 L567.9,392.2 L568.8,387.5 L569.6,379.2 L570.4,378.3 L571.3,375.6 L572.1,380.9 L573.0,383.9 L573.8,397.2 L574.7,403.4 L575.5,403.7 L576.3,388.3 L577.2,385.1 L578.0,382.1 L578.9,387.5 L579.7,381.5 L580.6,386.3 L581.4,377.4 L582.2,358.5 L583.1,348.7 L583.9,352.5 L584.8,341.6 L585.6,351.4 L586.5,348.7 L587.3,348.7 L588.1,352.2 L589.0,359.6 L589.8,373.5 L590.7,383.9 L591.5,391.6 L592.4,399.9 L593.2,400.2 L594.0,394.0 L594.9,408.2 L595.7,407.9 L596.6,404.0 L597.4,408.5 L598.3,411.1 L599.1,414.4 L599.9,416.7 L600.8,415.9 L601.6,414.7 L602.5,418.5 L603.3,419.1 L604.2,417.6 L605.0,415.9 L605.8,415.3 L606.7,415.3 L607.5,417.0 L608.4,415.0 L609.2,413.8 L610.1,409.9 L610.9,408.8 L611.7,407.3 L612.6,403.1 L613.4,394.6 L614.3,405.2 L615.1,400.5 L616.0,398.4 L616.8,396.6 L617.6,382.7 L618.5,368.5 L619.3,342.8 L620.2,312.0 L621.0,304.6 L621.9,301.9 L622.7,297.2 L623.5,299.0 L624.4,303.7 L625.2,300.5 L626.1,293.4 L626.9,295.1 L627.8,292.5 L628.6,289.5 L629.4,290.4 L630.3,290.4 L631.1,291.3 L632.0,290.7 L632.8,294.8 L633.7,296.3 L634.5,298.1 L635.3,302.5 L636.2,305.5 L637.0,307.6 L637.9,297.2 L638.7,296.3 L639.6,310.2 L640.4,312.6 L641.2,318.8 L642.1,328.6 L642.9,323.5 L643.8,322.4 L644.6,338.6 L645.4,319.7 L646.3,309.0 L647.1,313.5 L648.0,309.0 L648.8,297.8 L649.7,300.5 L650.5,301.7 L651.3,322.4 L652.2,333.0 L653.0,339.8 L653.9,309.6 L654.7,332.4 L655.6,350.2 L656.4,324.7 L657.2,309.9 L658.1,303.1 L658.9,308.5 L659.8,327.1 L660.6,307.6 L661.5,340.4 L662.3,328.0 L663.1,320.9 L664.0,327.1 L664.8,319.1 L665.7,314.1 L666.5,300.5 L667.4,300.8 L668.2,316.7 L669.0,328.0 L669.9,332.7 L670.7,340.7 L671.6,337.5 L672.4,343.7 L673.3,326.5 L674.1,349.0 L674.9,352.8 L675.8,362.6 L676.6,379.2 L677.5,386.6 L678.3,391.6 L679.2,395.7 L680.0,402.8" stroke="#1f77b4" stroke-width="2" fill="none" opacity="0.8"/>
<!-- Hydro Generation -->
<path d="M80.0,363.5 L80.8,362.9 L81.7,363.2 L82.5,363.5 L83.4,360.2 L84.2,347.2 L85.1,362.9 L85.9,362.9 L86.7,362.9 L87.6,362.3 L88.4,362.9 L89.3,362.6 L90.1,362.9 L91.0,362.9 L91.8,362.9 L92.6,362.6 L93.5,362.9 L94.3,362.6 L95.2,362.6 L96.0,363.2 L96.9,362.3 L97.7,363.5 L98.5,362.3 L99.4,361.7 L100.2,362.3 L101.1,362.3 L101.9,362.3 L102.8,362.3 L103.6,360.8 L104.4,360.8 L105.3,360.5 L106.1,361.1 L107.0,360.5 L107.8,360.8 L108.7,360.2 L109.5,360.8 L110.3,360.8 L111.2,359.9 L112.0,361.4 L112.9,361.4 L113.7,361.1 L114.6,361.1 L115.4,361.7 L116.2,361.7 L117.1,361.7 L117.9,361.1 L118.8,361.7 L119.6,362.3 L120.4,362.3 L121.3,368.8 L122.1,368.8 L123.0,369.4 L123.8,368.5 L124.7,368.8 L125.5,369.1 L126.3,369.4 L127.2,368.2 L128.0,368.5 L128.9,368.2 L129.7,367.9 L130.6,368.2 L131.4,368.2 L132.2,368.2 L133.1,368.2 L133.9,368.2 L134.8,368.2 L135.6,367.6 L136.5,367.6 L137.3,368.2 L138.1,367.9 L139.0,367.6 L139.8,367.9 L140.7,368.2 L141.5,368.5 L142.4,369.7 L143.2,369.4 L144.0,369.1 L144.9,369.1 L145.7,369.4 L146.6,368.8 L147.4,368.8 L148.3,369.1 L149.1,368.8 L149.9,368.8 L150.8,368.8 L151.6,368.8 L152.5,369.4 L153.3,369.7 L154.2,370.0 L155.0,370.6 L155.8,370.3 L156.7,370.0 L157.5,369.4 L158.4,368.2 L159.2,368.8 L160.1,368.5 L160.9,369.1 L161.7,368.8 L162.6,368.5 L163.4,368.8 L164.3,368.5 L165.1,368.2 L166.0,368.2 L166.8,368.5 L167.6,368.5 L168.5,368.2 L169.3,367.9 L170.2,367.6 L171.0,368.8 L171.9,368.8 L172.7,368.8 L173.5,369.7 L174.4,369.7 L175.2,370.0 L176.1,370.3 L176.9,370.0 L177.8,369.4 L178.6,370.3 L179.4,369.7 L180.3,369.7 L181.1,369.7 L182.0,369.7 L182.8,370.0 L183.7,370.0 L184.5,368.8 L185.3,368.5 L186.2,368.8 L187.0,368.8 L187.9,361.7 L188.7,361.1 L189.6,362.3 L190.4,362.3 L191.2,362.3 L192.1,362.6 L192.9,362.3 L193.8,362.0 L194.6,362.0 L195.4,361.4 L196.3,361.4 L197.1,361.4 L198.0,361.7 L198.8,361.7 L199.7,361.4 L200.5,362.0 L201.3,361.4 L202.2,362.6 L203.0,362.3 L203.9,362.3 L204.7,361.7 L205.6,362.0 L206.4,362.6 L207.2,362.3 L208.1,362.0 L208.9,361.1 L209.8,361.4 L210.6,361.7 L211.5,362.0 L212.3,361.7 L213.1,361.7 L214.0,361.4 L214.8,362.3 L215.7,362.3 L216.5,361.4 L217.4,362.0 L218.2,361.4 L219.0,362.0 L219.9,361.7 L220.7,361.4 L221.6,361.4 L222.4,361.7 L223.3,362.0 L224.1,361.4 L224.9,361.1 L225.8,360.5 L226.6,360.5 L227.5,361.1 L228.3,360.8 L229.2,360.5 L230.0,360.8 L230.8,361.1 L231.7,361.7 L232.5,361.7 L233.4,361.4 L234.2,361.1 L235.1,361.4 L235.9,362.0 L236.7,362.3 L237.6,361.7 L238.4,362.0 L239.3,362.0 L240.1,361.4 L241.0,361.7 L241.8,362.0 L242.6,361.7 L243.5,361.4 L244.3,361.1 L245.2,361.1 L246.0,362.0 L246.9,361.7 L247.7,361.1 L248.5,360.8 L249.4,361.4 L250.2,361.4 L251.1,361.7 L251.9,361.7 L252.8,362.0 L253.6,362.0 L254.4,361.7 L255.3,362.0 L256.1,361.7 L257.0,362.0 L257.8,362.0 L258.7,362.0 L259.5,362.0 L260.3,362.0 L261.2,361.7 L262.0,362.0 L262.9,362.3 L263.7,362.3 L264.6,361.7 L265.4,362.6 L266.2,362.3 L267.1,362.0 L267.9,362.3 L268.8,362.6 L269.6,362.6 L270.4,362.6 L271.3,362.6 L272.1,362.3 L273.0,362.9 L273.8,362.0 L274.7,362.6 L275.5,362.6 L276.3,362.6 L277.2,362.0 L278.0,361.7 L278.9,362.3 L279.7,361.7 L280.6,361.7 L281.4,361.7 L282.2,362.0 L283.1,362.0 L283.9,362.0 L284.8,361.7 L285.6,362.0 L286.5,361.7 L287.3,362.3 L288.1,362.6 L289.0,362.0 L289.8,361.4 L290.7,362.0 L291.5,361.4 L292.4,361.4 L293.2,362.0 L294.0,362.3 L294.9,362.0 L295.7,361.7 L296.6,362.0 L297.4,361.7 L298.3,361.7 L299.1,361.4 L299.9,361.7 L300.8,361.4 L301.6,362.0 L302.5,361.7 L303.3,362.0 L304.2,361.4 L305.0,361.1 L305.8,361.4 L306.7,360.8 L307.5,360.8 L308.4,361.1 L309.2,361.4 L310.1,361.7 L310.9,362.0 L311.7,362.0 L312.6,362.3 L313.4,360.5 L314.3,361.1 L315.1,361.4 L316.0,361.1 L316.8,360.5 L317.6,360.8 L318.5,361.1 L319.3,360.8 L320.2,360.5 L321.0,360.5 L321.9,360.5 L322.7,361.1 L323.5,360.8 L324.4,354.6 L325.2,360.5 L326.1,360.2 L326.9,361.1 L327.8,361.4 L328.6,361.4 L329.4,361.7 L330.3,361.1 L331.1,360.8 L332.0,360.8 L332.8,360.5 L333.7,359.9 L334.5,360.5 L335.3,361.1 L336.2,361.1 L337.0,360.8 L337.9,361.4 L338.7,361.4 L339.6,361.1 L340.4,361.4 L341.2,361.1 L342.1,361.4 L342.9,361.4 L343.8,360.5 L344.6,359.9 L345.4,359.9 L346.3,359.9 L347.1,360.8 L348.0,360.2 L348.8,359.6 L349.7,359.6 L350.5,359.1 L351.3,359.6 L352.2,359.3 L353.0,359.3 L353.9,359.3 L354.7,359.9 L355.6,360.2 L356.4,361.1 L357.2,361.4 L358.1,360.8 L358.9,361.1 L359.8,361.1 L360.6,361.1 L361.5,360.8 L362.3,360.8 L363.1,359.9 L364.0,360.5 L364.8,359.9 L365.7,359.6 L366.5,359.9 L367.4,360.2 L368.2,360.5 L369.0,361.1 L369.9,360.8 L370.7,360.5 L371.6,360.5 L372.4,361.1 L373.3,361.1 L374.1,361.1 L374.9,361.4 L375.8,361.4 L376.6,360.8 L377.5,360.8 L378.3,361.1 L379.2,361.4 L380.0,362.0 L380.8,362.0 L381.7,361.4 L382.5,361.4 L383.4,362.0 L384.2,362.0 L385.1,361.1 L385.9,361.4 L386.7,361.4 L387.6,361.1 L388.4,361.4 L389.3,361.4 L390.1,360.5 L391.0,360.8 L391.8,360.5 L392.6,361.1 L393.5,360.5 L394.3,360.2 L395.2,360.5 L396.0,361.1 L396.9,360.8 L397.7,360.5 L398.5,360.8 L399.4,360.8 L400.2,360.5 L401.1,360.5 L401.9,360.5 L402.8,360.5 L403.6,360.8 L404.4,361.1 L405.3,361.4 L406.1,361.4 L407.0,361.1 L407.8,360.8 L408.7,360.8 L409.5,360.8 L410.3,361.1 L411.2,360.8 L412.0,360.5 L412.9,360.2 L413.7,360.2 L414.6,359.6 L415.4,359.3 L416.2,359.6 L417.1,359.6 L417.9,359.3 L418.8,359.3 L419.6,358.8 L420.4,358.8 L421.3,358.8 L422.1,358.8 L423.0,358.5 L423.8,359.3 L424.7,358.5 L425.5,358.5 L426.3,357.6 L427.2,357.9 L428.0,357.6 L428.9,357.9 L429.7,357.6 L430.6,357.6 L431.4,358.5 L432.2,358.5 L433.1,358.8 L433.9,359.3 L434.8,359.6 L435.6,359.9 L436.5,359.6 L437.3,359.6 L438.1,359.6 L439.0,360.8 L439.8,360.8 L440.7,360.8 L441.5,359.6 L442.4,359.6 L443.2,359.9 L444.0,359.6 L444.9,359.9 L445.7,360.8 L446.6,359.9 L447.4,359.9 L448.3,359.6 L449.1,359.1 L449.9,359.1 L450.8,359.1 L451.6,359.6 L452.5,359.3 L453.3,359.3 L454.2,359.3 L455.0,359.1 L455.8,359.3 L456.7,359.3 L457.5,359.3 L458.4,359.3 L459.2,359.6 L460.1,359.3 L460.9,359.3 L461.7,359.1 L462.6,359.3 L463.4,359.3 L464.3,359.6 L465.1,359.1 L466.0,359.6 L466.8,359.1 L467.6,358.8 L468.5,357.3 L469.3,356.7 L470.2,358.5 L471.0,359.1 L471.9,359.3 L472.7,358.8 L473.5,359.1 L474.4,359.6 L475.2,359.6 L476.1,359.9 L476.9,359.6 L477.8,359.6 L478.6,359.6 L479.4,359.9 L480.3,359.6 L481.1,359.6 L482.0,360.2 L482.8,359.9 L483.7,359.3 L484.5,358.8 L485.3,359.1 L486.2,359.1 L487.0,359.1 L487.9,359.1 L488.7,359.1 L489.6,359.3 L490.4,359.3 L491.2,358.5 L492.1,358.5 L492.9,358.5 L493.8,359.1 L494.6,359.3 L495.4,359.3 L496.3,359.6 L497.1,359.6 L498.0,359.6 L498.8,359.6 L499.7,359.3 L500.5,359.3 L501.3,358.8 L502.2,357.9 L503.0,357.9 L503.9,357.9 L504.7,358.2 L505.6,357.9 L506.4,357.6 L507.2,357.6 L508.1,357.9 L508.9,358.5 L509.8,358.8 L510.6,358.2 L511.5,357.9 L512.3,358.2 L513.1,357.9 L514.0,358.5 L514.8,358.2 L515.7,358.2 L516.5,358.5 L517.4,358.2 L518.2,358.8 L519.0,358.8 L519.9,358.5 L520.7,358.8 L521.6,358.8 L522.4,359.3 L523.3,359.3 L524.1,359.3 L524.9,359.1 L525.8,359.1 L526.6,359.1 L527.5,359.1 L528.3,358.5 L529.2,358.5 L530.0,358.5 L530.8,358.5 L531.7,358.2 L532.5,357.6 L533.4,358.8 L534.2,359.1 L535.1,359.1 L535.9,359.1 L536.7,358.5 L537.6,358.5 L538.4,358.2 L539.3,358.5 L540.1,357.6 L541.0,357.6 L541.8,357.6 L542.6,357.6 L543.5,357.6 L544.3,357.3 L545.2,357.3 L546.0,356.7 L546.9,357.3 L547.7,356.7 L548.5,357.3 L549.4,357.0 L550.2,357.3 L551.1,357.6 L551.9,358.2 L552.8,357.9 L553.6,357.6 L554.4,357.9 L555.3,357.9 L556.1,357.0 L557.0,357.0 L557.8,357.3 L558.7,357.3 L559.5,357.3 L560.3,357.6 L561.2,357.0 L562.0,356.4 L562.9,357.0 L563.7,355.5 L564.6,356.1 L565.4,355.2 L566.2,354.9 L567.1,355.5 L567.9,355.8 L568.8,355.5 L569.6,354.6 L570.4,354.9 L571.3,355.2 L572.1,354.9 L573.0,354.3 L573.8,354.9 L574.7,354.6 L575.5,354.6 L576.3,353.4 L577.2,354.0 L578.0,354.3 L578.9,353.4 L579.7,353.7 L580.6,353.4 L581.4,353.1 L582.2,353.4 L583.1,353.1 L583.9,353.4 L584.8,353.7 L585.6,353.4 L586.5,353.4 L587.3,353.1 L588.1,353.7 L589.0,353.4 L589.8,353.7 L590.7,353.7 L591.5,354.0 L592.4,353.4 L593.2,355.2 L594.0,354.9 L594.9,354.9 L595.7,355.2 L596.6,355.8 L597.4,356.1 L598.3,356.1 L599.1,356.1 L599.9,355.5 L600.8,355.8 L601.6,355.8 L602.5,355.8 L603.3,356.1 L604.2,356.4 L605.0,355.8 L605.8,356.1 L606.7,355.8 L607.5,356.1 L608.4,355.8 L609.2,355.5 L610.1,355.5 L610.9,355.5 L611.7,355.5 L612.6,354.9 L613.4,354.9 L614.3,355.2 L615.1,354.3 L616.0,354.0 L616.8,354.0 L617.6,353.4 L618.5,353.7 L619.3,353.4 L620.2,354.3 L621.0,354.9 L621.9,354.3 L622.7,354.3 L623.5,354.6 L624.4,354.9 L625.2,355.5 L626.1,354.9 L626.9,354.9 L627.8,355.8 L628.6,355.8 L629.4,355.8 L630.3,355.8 L631.1,356.4 L632.0,356.4 L632.8,356.1 L633.7,356.1 L634.5,356.4 L635.3,356.1 L636.2,356.1 L637.0,356.4 L637.9,356.1 L638.7,355.5 L639.6,355.8 L640.4,355.5 L641.2,355.5 L642.1,355.5 L642.9,355.5 L643.8,355.5 L644.6,355.8 L645.4,355.2 L646.3,355.2 L647.1,354.3 L648.0,354.9 L648.8,354.6 L649.7,354.9 L650.5,354.9 L651.3,354.9 L652.2,355.5 L653.0,354.6 L653.9,354.9 L654.7,354.9 L655.6,355.5 L656.4,355.2 L657.2,355.2 L658.1,355.5 L658.9,354.9 L659.8,354.9 L660.6,355.2 L661.5,354.9 L662.3,354.9 L663.1,355.2 L664.0,355.2 L664.8,355.2 L665.7,355.2 L666.5,355.2 L667.4,355.2 L668.2,355.5 L669.0,355.2 L669.9,356.1 L670.7,355.8 L671.6,355.8 L672.4,355.5 L673.3,356.4 L674.1,356.1 L674.9,356.4 L675.8,357.0 L676.6,357.3 L677.5,356.1 L678.3,356.1 L679.2,356.1 L680.0,355.8" stroke="#ff7f0e" stroke-width="2" fill="none" opacity="0.8"/>
<!-- Thermal Generation -->
<path d="M80.0,289.8 L80.8,309.6 L81.7,294.6 L82.5,288.6 L83.4,288.6 L84.2,292.2 L85.1,294.8 L85.9,306.7 L86.7,294.6 L87.6,290.1 L88.4,288.3 L89.3,286.9 L90.1,300.2 L91.0,299.3 L91.8,296.9 L92.6,287.5 L93.5,292.2 L94.3,324.1 L95.2,325.6 L96.0,326.8 L96.9,349.0 L97.7,349.0 L98.5,348.1 L99.4,324.1 L100.2,310.8 L101.1,305.5 L101.9,314.4 L102.8,322.7 L103.6,323.5 L104.4,334.5 L105.3,335.4 L106.1,356.7 L107.0,343.4 L107.8,315.3 L108.7,293.7 L109.5,287.2 L110.3,290.1 L111.2,290.4 L112.0,292.2 L112.9,289.5 L113.7,289.2 L114.6,289.5 L115.4,288.9 L116.2,294.6 L117.1,294.8 L117.9,298.7 L118.8,298.1 L119.6,294.0 L120.4,294.3 L121.3,294.6 L122.1,294.6 L123.0,306.4 L123.8,315.3 L124.7,324.4 L125.5,325.9 L126.3,329.2 L127.2,325.9 L128.0,319.7 L128.9,290.1 L129.7,292.8 L130.6,292.8 L131.4,293.7 L132.2,299.6 L133.1,290.7 L133.9,296.0 L134.8,307.3 L135.6,326.2 L136.5,324.1 L137.3,318.8 L138.1,309.0 L139.0,310.8 L139.8,309.9 L140.7,310.8 L141.5,328.6 L142.4,326.2 L143.2,325.0 L144.0,323.3 L144.9,319.1 L145.7,332.7 L146.6,339.5 L147.4,340.1 L148.3,323.0 L149.1,303.7 L149.9,298.4 L150.8,297.8 L151.6,296.3 L152.5,300.5 L153.3,300.5 L154.2,292.8 L155.0,296.0 L155.8,297.5 L156.7,329.2 L157.5,328.6 L158.4,328.9 L159.2,328.9 L160.1,307.3 L160.9,312.0 L161.7,313.8 L162.6,328.9 L163.4,328.0 L164.3,330.9 L165.1,330.4 L166.0,333.0 L166.8,365.0 L167.6,366.4 L168.5,363.5 L169.3,363.2 L170.2,357.0 L171.0,354.3 L171.9,340.7 L172.7,340.1 L173.5,349.6 L174.4,352.5 L175.2,353.4 L176.1,353.4 L176.9,352.5 L177.8,343.4 L178.6,315.3 L179.4,307.0 L180.3,304.9 L181.1,302.8 L182.0,310.8 L182.8,312.9 L183.7,311.1 L184.5,317.6 L185.3,317.3 L186.2,325.9 L187.0,333.6 L187.9,333.9 L188.7,330.6 L189.6,308.5 L190.4,302.5 L191.2,302.8 L192.1,301.9 L192.9,301.9 L193.8,300.2 L194.6,296.9 L195.4,297.8 L196.3,297.2 L197.1,302.5 L198.0,299.9 L198.8,299.3 L199.7,299.3 L200.5,300.8 L201.3,302.5 L202.2,311.1 L203.0,318.5 L203.9,323.0 L204.7,325.6 L205.6,329.8 L206.4,337.7 L207.2,336.0 L208.1,338.9 L208.9,337.7 L209.8,304.0 L210.6,303.4 L211.5,322.4 L212.3,339.5 L213.1,339.5 L214.0,328.9 L214.8,312.3 L215.7,317.3 L216.5,332.1 L217.4,339.8 L218.2,340.1 L219.0,331.5 L219.9,335.4 L220.7,333.6 L221.6,334.2 L222.4,330.1 L223.3,328.9 L224.1,337.7 L224.9,336.6 L225.8,358.8 L226.6,372.1 L227.5,371.8 L228.3,371.8 L229.2,359.1 L230.0,324.7 L230.8,330.4 L231.7,336.0 L232.5,337.7 L233.4,336.9 L234.2,335.1 L235.1,335.1 L235.9,334.5 L236.7,344.3 L237.6,337.5 L238.4,353.7 L239.3,355.8 L240.1,353.4 L241.0,348.7 L241.8,348.1 L242.6,347.2 L243.5,346.6 L244.3,346.0 L245.2,346.6 L246.0,380.4 L246.9,380.6 L247.7,381.2 L248.5,380.4 L249.4,316.4 L250.2,293.4 L251.1,293.1 L251.9,293.4 L252.8,295.1 L253.6,294.3 L254.4,291.3 L255.3,294.6 L256.1,290.4 L257.0,290.7 L257.8,287.7 L258.7,289.2 L259.5,291.6 L260.3,290.4 L261.2,289.5 L262.0,293.4 L262.9,315.6 L263.7,317.6 L264.6,283.3 L265.4,286.3 L266.2,283.6 L267.1,281.5 L267.9,282.1 L268.8,281.8 L269.6,280.6 L270.4,285.7 L271.3,290.4 L272.1,287.5 L273.0,288.6 L273.8,289.8 L274.7,303.7 L275.5,288.6 L276.3,292.5 L277.2,306.7 L278.0,309.3 L278.9,309.3 L279.7,309.3 L280.6,320.6 L281.4,292.8 L282.2,287.7 L283.1,294.8 L283.9,326.5 L284.8,311.4 L285.6,326.2 L286.5,325.9 L287.3,314.1 L288.1,291.3 L289.0,302.8 L289.8,286.9 L290.7,286.6 L291.5,327.7 L292.4,325.0 L293.2,314.7 L294.0,313.8 L294.9,312.6 L295.7,312.9 L296.6,312.9 L297.4,313.8 L298.3,309.3 L299.1,309.3 L299.9,312.9 L300.8,287.7 L301.6,287.5 L302.5,318.8 L303.3,330.9 L304.2,330.9 L305.0,331.2 L305.8,329.8 L306.7,329.5 L307.5,328.9 L308.4,328.9 L309.2,328.9 L310.1,323.0 L310.9,281.2 L311.7,301.1 L312.6,304.6 L313.4,302.5 L314.3,312.3 L315.1,328.0 L316.0,329.2 L316.8,328.9 L317.6,374.4 L318.5,375.3 L319.3,368.5 L320.2,368.2 L321.0,340.4 L321.9,327.7 L322.7,328.9 L323.5,330.9 L324.4,330.4 L325.2,329.2 L326.1,358.5 L326.9,358.8 L327.8,359.6 L328.6,358.8 L329.4,358.8 L330.3,309.0 L331.1,280.3 L332.0,312.0 L332.8,323.3 L333.7,323.3 L334.5,328.6 L335.3,344.0 L336.2,352.5 L337.0,366.7 L337.9,366.2 L338.7,357.9 L339.6,349.3 L340.4,348.4 L341.2,325.6 L342.1,292.8 L342.9,329.2 L343.8,332.7 L344.6,332.4 L345.4,332.4 L346.3,331.5 L347.1,333.0 L348.0,331.5 L348.8,335.7 L349.7,338.3 L350.5,306.1 L351.3,286.0 L352.2,320.0 L353.0,332.7 L353.9,331.2 L354.7,338.6 L355.6,344.8 L356.4,344.8 L357.2,333.9 L358.1,308.8 L358.9,307.6 L359.8,299.0 L360.6,282.4 L361.5,283.9 L362.3,281.8 L363.1,304.9 L364.0,326.2 L364.8,325.6 L365.7,330.9 L366.5,350.5 L367.4,342.2 L368.2,333.6 L369.0,329.5 L369.9,329.5 L370.7,281.5 L371.6,284.2 L372.4,281.8 L373.3,284.2 L374.1,281.5 L374.9,283.6 L375.8,289.8 L376.6,284.2 L377.5,283.6 L378.3,283.3 L379.2,282.7 L380.0,282.1 L380.8,284.5 L381.7,282.4 L382.5,285.4 L383.4,290.7 L384.2,308.2 L385.1,325.0 L385.9,322.7 L386.7,320.0 L387.6,318.8 L388.4,311.4 L389.3,313.5 L390.1,313.8 L391.0,284.5 L391.8,284.2 L392.6,280.9 L393.5,281.5 L394.3,289.8 L395.2,282.4 L396.0,282.1 L396.9,314.1 L397.7,320.0 L398.5,358.2 L399.4,372.4 L400.2,372.7 L401.1,362.3 L401.9,316.1 L402.8,286.0 L403.6,316.4 L404.4,316.7 L405.3,318.8 L406.1,330.4 L407.0,333.0 L407.8,333.9 L408.7,333.6 L409.5,330.4 L410.3,333.9 L411.2,291.9 L412.0,283.9 L412.9,286.0 L413.7,295.1 L414.6,309.3 L415.4,320.6 L416.2,345.1 L417.1,364.4 L417.9,376.2 L418.8,378.0 L419.6,375.3 L420.4,375.0 L421.3,342.2 L422.1,344.6 L423.0,323.8 L423.8,321.5 L424.7,321.8 L425.5,378.0 L426.3,381.5 L427.2,336.9 L428.0,333.6 L428.9,332.7 L429.7,332.7 L430.6,349.9 L431.4,302.2 L432.2,282.7 L433.1,281.2 L433.9,283.3 L434.8,281.5 L435.6,283.6 L436.5,283.0 L437.3,290.7 L438.1,297.5 L439.0,294.6 L439.8,291.3 L440.7,296.9 L441.5,283.0 L442.4,283.3 L443.2,282.4 L444.0,296.6 L444.9,305.5 L445.7,308.8 L446.6,301.7 L447.4,305.2 L448.3,318.8 L449.1,328.9 L449.9,328.0 L450.8,332.4 L451.6,291.6 L452.5,280.9 L453.3,283.0 L454.2,285.4 L455.0,285.1 L455.8,288.3 L456.7,285.4 L457.5,286.3 L458.4,301.7 L459.2,324.7 L460.1,327.4 L460.9,327.7 L461.7,327.7 L462.6,327.4 L463.4,288.9 L464.3,288.3 L465.1,299.3 L466.0,310.5 L466.8,308.8 L467.6,304.9 L468.5,308.8 L469.3,333.9 L470.2,315.9 L471.0,312.6 L471.9,286.9 L472.7,293.1 L473.5,317.9 L474.4,320.3 L475.2,330.4 L476.1,330.1 L476.9,329.5 L477.8,328.9 L478.6,329.2 L479.4,320.3 L480.3,328.3 L481.1,325.6 L482.0,291.9 L482.8,281.2 L483.7,297.2 L484.5,286.0 L485.3,284.8 L486.2,288.9 L487.0,294.0 L487.9,289.2 L488.7,291.6 L489.6,291.9 L490.4,291.3 L491.2,289.5 L492.1,288.6 L492.9,284.2 L493.8,303.4 L494.6,307.6 L495.4,326.8 L496.3,324.4 L497.1,319.1 L498.0,327.4 L498.8,328.3 L499.7,328.3 L500.5,328.6 L501.3,328.6 L502.2,329.8 L503.0,329.5 L503.9,330.1 L504.7,329.8 L505.6,329.8 L506.4,329.5 L507.2,329.5 L508.1,330.4 L508.9,329.8 L509.8,304.0 L510.6,284.8 L511.5,288.3 L512.3,304.6 L513.1,286.9 L514.0,287.2 L514.8,286.3 L515.7,287.7 L516.5,291.0 L517.4,280.6 L518.2,280.1 L519.0,280.6 L519.9,307.9 L520.7,311.1 L521.6,297.2 L522.4,286.3 L523.3,283.9 L524.1,283.9 L524.9,284.5 L525.8,284.8 L526.6,283.0 L527.5,285.1 L528.3,282.1 L529.2,282.4 L530.0,286.6 L530.8,284.8 L531.7,281.5 L532.5,280.9 L533.4,286.0 L534.2,282.7 L535.1,280.6 L535.9,279.5 L536.7,287.2 L537.6,310.5 L538.4,318.5 L539.3,321.5 L540.1,330.1 L541.0,330.4 L541.8,327.1 L542.6,327.4 L543.5,310.5 L544.3,285.4 L545.2,285.7 L546.0,289.2 L546.9,305.5 L547.7,307.3 L548.5,321.5 L549.4,299.0 L550.2,283.0 L551.1,286.0 L551.9,294.6 L552.8,302.8 L553.6,311.7 L554.4,312.3 L555.3,310.2 L556.1,311.7 L557.0,315.9 L557.8,327.7 L558.7,327.1 L559.5,351.1 L560.3,353.1 L561.2,342.8 L562.0,342.8 L562.9,343.1 L563.7,327.7 L564.6,291.6 L565.4,309.9 L566.2,310.5 L567.1,302.5 L567.9,311.1 L568.8,314.7 L569.6,322.1 L570.4,328.9 L571.3,333.0 L572.1,301.7 L573.0,289.2 L573.8,283.0 L574.7,282.4 L575.5,295.7 L576.3,296.3 L577.2,296.3 L578.0,297.5 L578.9,301.9 L579.7,301.4 L580.6,301.1 L581.4,301.4 L582.2,289.2 L583.1,289.5 L583.9,289.2 L584.8,283.3 L585.6,296.9 L586.5,304.9 L587.3,298.4 L588.1,305.2 L589.0,312.3 L589.8,311.4 L590.7,310.5 L591.5,311.7 L592.4,309.3 L593.2,287.2 L594.0,284.5 L594.9,284.2 L595.7,285.7 L596.6,287.7 L597.4,284.5 L598.3,284.2 L599.1,284.5 L599.9,284.2 L600.8,283.9 L601.6,283.6 L602.5,286.0 L603.3,287.2 L604.2,286.3 L605.0,288.6 L605.8,285.4 L606.7,288.6 L607.5,285.7 L608.4,288.0 L609.2,285.4 L610.1,288.0 L610.9,285.4 L611.7,304.9 L612.6,287.5 L613.4,285.4 L614.3,286.3 L615.1,283.9 L616.0,285.1 L616.8,286.3 L617.6,283.6 L618.5,284.5 L619.3,289.8 L620.2,294.6 L621.0,293.4 L621.9,295.7 L622.7,286.9 L623.5,282.7 L624.4,286.0 L625.2,284.2 L626.1,289.5 L626.9,286.3 L627.8,288.9 L628.6,289.5 L629.4,297.2 L630.3,318.8 L631.1,319.7 L632.0,332.7 L632.8,333.0 L633.7,327.7 L634.5,287.7 L635.3,304.0 L636.2,303.4 L637.0,309.0 L637.9,319.7 L638.7,330.4 L639.6,330.6 L640.4,330.6 L641.2,331.5 L642.1,333.6 L642.9,331.8 L643.8,330.6 L644.6,314.4 L645.4,293.4 L646.3,299.3 L647.1,313.5 L648.0,319.4 L648.8,323.5 L649.7,327.4 L650.5,330.9 L651.3,331.2 L652.2,330.6 L653.0,330.6 L653.9,289.8 L654.7,299.0 L655.6,299.6 L656.4,299.9 L657.2,291.3 L658.1,330.4 L658.9,330.6 L659.8,329.2 L660.6,329.8 L661.5,330.1 L662.3,329.8 L663.1,330.4 L664.0,330.9 L664.8,330.1 L665.7,328.9 L666.5,329.5 L667.4,329.2 L668.2,329.8 L669.0,328.9 L669.9,329.8 L670.7,327.1 L671.6,329.2 L672.4,328.9 L673.3,329.5 L674.1,290.1 L674.9,294.0 L675.8,291.0 L676.6,283.6 L677.5,286.0 L678.3,281.8 L679.2,281.2 L680.0,286.9" stroke="#2ca02c" stroke-width="2" fill="none" opacity="0.8"/>
<!-- Solar Generation -->
<path d="M80.0,420.0 L80.8,416.7 L81.7,412.3 L82.5,402.5 L83.4,406.7 L84.2,398.7 L85.1,414.1 L85.9,411.4 L86.7,414.7 L87.6,415.3 L88.4,418.8 L89.3,420.0 L90.1,420.0 L91.0,420.0 L91.8,420.0 L92.6,420.0 L93.5,420.0 L94.3,420.0 L95.2,420.0 L96.0,420.0 L96.9,420.0 L97.7,420.0 L98.5,420.0 L99.4,420.0 L100.2,420.0 L101.1,410.2 L101.9,394.9 L102.8,395.1 L103.6,406.7 L104.4,386.9 L105.3,388.9 L106.1,394.3 L107.0,396.6 L107.8,412.0 L108.7,414.1 L109.5,420.0 L110.3,420.0 L111.2,420.0 L112.0,420.0 L112.9,420.0 L113.7,420.0 L114.6,420.0 L115.4,420.0 L116.2,420.0 L117.1,420.0 L117.9,420.0 L118.8,420.0 L119.6,420.0 L120.4,420.0 L121.3,418.2 L122.1,398.4 L123.0,399.6 L123.8,401.1 L124.7,399.3 L125.5,391.6 L126.3,394.6 L127.2,399.0 L128.0,402.5 L128.9,417.6 L129.7,420.0 L130.6,420.0 L131.4,420.0 L132.2,420.0 L133.1,420.0 L133.9,420.0 L134.8,420.0 L135.6,420.0 L136.5,420.0 L137.3,420.0 L138.1,420.0 L139.0,420.0 L139.8,420.0 L140.7,420.0 L141.5,410.5 L142.4,386.0 L143.2,391.0 L144.0,383.9 L144.9,389.5 L145.7,387.5 L146.6,384.5 L147.4,399.9 L148.3,394.0 L149.1,418.8 L149.9,420.0 L150.8,420.0 L151.6,420.0 L152.5,420.0 L153.3,420.0 L154.2,420.0 L155.0,420.0 L155.8,420.0 L156.7,420.0 L157.5,420.0 L158.4,420.0 L159.2,420.0 L160.1,420.0 L160.9,420.0 L161.7,416.2 L162.6,408.5 L163.4,407.9 L164.3,408.8 L165.1,394.3 L166.0,389.8 L166.8,397.5 L167.6,393.1 L168.5,399.3 L169.3,416.2 L170.2,420.0 L171.0,420.0 L171.9,420.0 L172.7,420.0 L173.5,420.0 L174.4,420.0 L175.2,420.0 L176.1,420.0 L176.9,420.0 L177.8,420.0 L178.6,420.0 L179.4,420.0 L180.3,420.0 L181.1,420.0 L182.0,411.4 L182.8,387.8 L183.7,385.4 L184.5,388.0 L185.3,390.4 L186.2,388.9 L187.0,383.9 L187.9,383.6 L188.7,393.7 L189.6,417.6 L190.4,420.0 L191.2,420.0 L192.1,420.0 L192.9,420.0 L193.8,420.0 L194.6,420.0 L195.4,420.0 L196.3,420.0 L197.1,420.0 L198.0,420.0 L198.8,420.0 L199.7,420.0 L200.5,420.0 L201.3,420.0 L202.2,411.7 L203.0,388.9 L203.9,385.1 L204.7,388.9 L205.6,394.9 L206.4,389.2 L207.2,386.6 L208.1,394.3 L208.9,409.9 L209.8,418.8 L210.6,420.0 L211.5,420.0 L212.3,420.0 L213.1,420.0 L214.0,420.0 L214.8,420.0 L215.7,420.0 L216.5,420.0 L217.4,420.0 L218.2,420.0 L219.0,420.0 L219.9,420.0 L220.7,420.0 L221.6,420.0 L222.4,417.6 L223.3,405.8 L224.1,402.2 L224.9,402.0 L225.8,399.3 L226.6,391.3 L227.5,393.4 L228.3,400.2 L229.2,411.4 L230.0,418.8 L230.8,420.0 L231.7,420.0 L232.5,420.0 L233.4,420.0 L234.2,420.0 L235.1,420.0 L235.9,420.0 L236.7,420.0 L237.6,420.0 L238.4,420.0 L239.3,420.0 L240.1,420.0 L241.0,420.0 L241.8,418.8 L242.6,414.4 L243.5,416.4 L244.3,416.4 L245.2,400.2 L246.0,399.3 L246.9,404.9 L247.7,397.8 L248.5,410.5 L249.4,418.8 L250.2,420.0 L251.1,420.0 L251.9,420.0 L252.8,420.0 L253.6,420.0 L254.4,420.0 L255.3,420.0 L256.1,420.0 L257.0,420.0 L257.8,420.0 L258.7,420.0 L259.5,420.0 L260.3,420.0 L261.2,420.0 L262.0,413.2 L262.9,391.6 L263.7,386.0 L264.6,389.5 L265.4,392.2 L266.2,392.2 L267.1,389.2 L267.9,391.9 L268.8,410.8 L269.6,419.1 L270.4,420.0 L271.3,420.0 L272.1,420.0 L273.0,420.0 L273.8,420.0 L274.7,420.0 L275.5,420.0 L276.3,420.0 L277.2,420.0 L278.0,420.0 L278.9,420.0 L279.7,420.0 L280.6,420.0 L281.4,420.0 L282.2,419.1 L283.1,416.2 L283.9,413.5 L284.8,406.4 L285.6,412.6 L286.5,412.6 L287.3,401.4 L288.1,412.6 L289.0,415.3 L289.8,419.7 L290.7,420.0 L291.5,420.0 L292.4,420.0 L293.2,420.0 L294.0,420.0 L294.9,420.0 L295.7,420.0 L296.6,420.0 L297.4,420.0 L298.3,420.0 L299.1,420.0 L299.9,420.0 L300.8,420.0 L301.6,420.0 L302.5,419.1 L303.3,411.4 L304.2,402.8 L305.0,411.4 L305.8,404.3 L306.7,400.5 L307.5,408.5 L308.4,415.3 L309.2,414.1 L310.1,419.4 L310.9,420.0 L311.7,420.0 L312.6,420.0 L313.4,420.0 L314.3,420.0 L315.1,420.0 L316.0,420.0 L316.8,420.0 L317.6,420.0 L318.5,420.0 L319.3,420.0 L320.2,420.0 L321.0,420.0 L321.9,420.0 L322.7,418.2 L323.5,414.1 L324.4,396.3 L325.2,401.7 L326.1,398.7 L326.9,394.6 L327.8,387.5 L328.6,390.7 L329.4,405.5 L330.3,418.8 L331.1,420.0 L332.0,420.0 L332.8,420.0 L333.7,420.0 L334.5,420.0 L335.3,420.0 L336.2,420.0 L337.0,420.0 L337.9,420.0 L338.7,420.0 L339.6,420.0 L340.4,420.0 L341.2,420.0 L342.1,420.0 L342.9,418.2 L343.8,416.4 L344.6,410.8 L345.4,409.3 L346.3,407.9 L347.1,412.9 L348.0,402.8 L348.8,405.8 L349.7,408.8 L350.5,419.4 L351.3,420.0 L352.2,420.0 L353.0,420.0 L353.9,420.0 L354.7,420.0 L355.6,420.0 L356.4,420.0 L357.2,420.0 L358.1,420.0 L358.9,420.0 L359.8,420.0 L360.6,420.0 L361.5,420.0 L362.3,420.0 L363.1,417.9 L364.0,402.0 L364.8,386.0 L365.7,391.0 L366.5,392.8 L367.4,390.4 L368.2,391.0 L369.0,390.7 L369.9,403.4 L370.7,418.8 L371.6,420.0 L372.4,420.0 L373.3,420.0 L374.1,420.0 L374.9,420.0 L375.8,420.0 L376.6,420.0 L377.5,420.0 L378.3,420.0 L379.2,420.0 L380.0,420.0 L380.8,420.0 L381.7,420.0 L382.5,420.0 L383.4,415.9 L384.2,396.6 L385.1,391.3 L385.9,392.5 L386.7,397.5 L387.6,392.8 L388.4,390.4 L389.3,393.1 L390.1,408.5 L391.0,419.1 L391.8,420.0 L392.6,420.0 L393.5,420.0 L394.3,420.0 L395.2,420.0 L396.0,420.0 L396.9,420.0 L397.7,420.0 L398.5,420.0 L399.4,420.0 L400.2,420.0 L401.1,420.0 L401.9,420.0 L402.8,420.0 L403.6,419.1 L404.4,412.0 L405.3,405.2 L406.1,403.4 L407.0,402.5 L407.8,402.2 L408.7,400.8 L409.5,404.3 L410.3,413.2 L411.2,419.4 L412.0,420.0 L412.9,420.0 L413.7,420.0 L414.6,420.0 L415.4,420.0 L416.2,420.0 L417.1,420.0 L417.9,420.0 L418.8,420.0 L419.6,420.0 L420.4,420.0 L421.3,420.0 L422.1,420.0 L423.0,420.0 L423.8,417.9 L424.7,406.1 L425.5,389.8 L426.3,396.9 L427.2,396.9 L428.0,396.0 L428.9,391.9 L429.7,390.1 L430.6,401.1 L431.4,419.4 L432.2,420.0 L433.1,420.0 L433.9,420.0 L434.8,420.0 L435.6,420.0 L436.5,420.0 L437.3,420.0 L438.1,420.0 L439.0,420.0 L439.8,420.0 L440.7,420.0 L441.5,420.0 L442.4,420.0 L443.2,420.0 L444.0,419.4 L444.9,412.6 L445.7,396.0 L446.6,390.7 L447.4,394.3 L448.3,392.5 L449.1,393.1 L449.9,392.5 L450.8,412.3 L451.6,419.7 L452.5,420.0 L453.3,420.0 L454.2,420.0 L455.0,420.0 L455.8,420.0 L456.7,420.0 L457.5,420.0 L458.4,420.0 L459.2,420.0 L460.1,420.0 L460.9,420.0 L461.7,420.0 L462.6,420.0 L463.4,420.0 L464.3,418.5 L465.1,411.1 L466.0,403.4 L466.8,391.9 L467.6,395.1 L468.5,397.8 L469.3,393.7 L470.2,398.4 L471.0,413.8 L471.9,419.7 L472.7,420.0 L473.5,420.0 L474.4,420.0 L475.2,420.0 L476.1,420.0 L476.9,420.0 L477.8,420.0 L478.6,420.0 L479.4,420.0 L480.3,420.0 L481.1,420.0 L482.0,420.0 L482.8,420.0 L483.7,420.0 L484.5,419.4 L485.3,417.3 L486.2,414.4 L487.0,413.5 L487.9,410.2 L488.7,411.1 L489.6,400.8 L490.4,407.9 L491.2,415.3 L492.1,419.1 L492.9,420.0 L493.8,420.0 L494.6,420.0 L495.4,420.0 L496.3,420.0 L497.1,420.0 L498.0,420.0 L498.8,420.0 L499.7,420.0 L500.5,420.0 L501.3,420.0 L502.2,420.0 L503.0,420.0 L503.9,420.0 L504.7,419.7 L505.6,415.3 L506.4,415.6 L507.2,407.6 L508.1,412.0 L508.9,396.9 L509.8,397.5 L510.6,391.3 L511.5,405.5 L512.3,419.7 L513.1,420.0 L514.0,420.0 L514.8,420.0 L515.7,420.0 L516.5,420.0 L517.4,420.0 L518.2,420.0 L519.0,420.0 L519.9,420.0 L520.7,420.0 L521.6,420.0 L522.4,420.0 L523.3,420.0 L524.1,420.0 L524.9,419.7 L525.8,416.7 L526.6,413.5 L527.5,410.8 L528.3,406.7 L529.2,404.0 L530.0,390.7 L530.8,412.9 L531.7,415.9 L532.5,420.0 L533.4,420.0 L534.2,420.0 L535.1,420.0 L535.9,420.0 L536.7,420.0 L537.6,420.0 L538.4,420.0 L539.3,420.0 L540.1,420.0 L541.0,420.0 L541.8,420.0 L542.6,420.0 L543.5,420.0 L544.3,420.0 L545.2,419.1 L546.0,406.7 L546.9,405.2 L547.7,400.5 L548.5,400.2 L549.4,398.7 L550.2,396.9 L551.1,396.6 L551.9,415.3 L552.8,419.7 L553.6,420.0 L554.4,420.0 L555.3,420.0 L556.1,420.0 L557.0,420.0 L557.8,420.0 L558.7,420.0 L559.5,420.0 L560.3,420.0 L561.2,420.0 L562.0,420.0 L562.9,420.0 L563.7,420.0 L564.6,420.0 L565.4,420.0 L566.2,415.9 L567.1,409.3 L567.9,408.5 L568.8,402.2 L569.6,405.2 L570.4,403.1 L571.3,406.7 L572.1,416.4 L573.0,420.0 L573.8,420.0 L574.7,420.0 L575.5,420.0 L576.3,420.0 L577.2,420.0 L578.0,420.0 L578.9,420.0 L579.7,420.0 L580.6,420.0 L581.4,420.0 L582.2,420.0 L583.1,420.0 L583.9,420.0 L584.8,420.0 L585.6,420.0 L586.5,415.3 L587.3,412.9 L588.1,407.6 L589.0,404.6 L589.8,401.4 L590.7,400.8 L591.5,402.2 L592.4,414.7 L593.2,420.0 L594.0,420.0 L594.9,420.0 L595.7,420.0 L596.6,420.0 L597.4,420.0 L598.3,420.0 L599.1,420.0 L599.9,420.0 L600.8,420.0 L601.6,420.0 L602.5,420.0 L603.3,420.0 L604.2,420.0 L605.0,420.0 L605.8,419.4 L606.7,411.7 L607.5,405.5 L608.4,405.8 L609.2,405.8 L610.1,396.9 L610.9,392.8 L611.7,391.3 L612.6,406.7 L613.4,419.7 L614.3,420.0 L615.1,420.0 L616.0,420.0 L616.8,420.0 L617.6,420.0 L618.5,420.0 L619.3,420.0 L620.2,420.0 L621.0,420.0 L621.9,420.0 L622.7,420.0 L623.5,420.0 L624.4,420.0 L625.2,420.0 L626.1,419.1 L626.9,401.7 L627.8,390.4 L628.6,393.7 L629.4,396.6 L630.3,395.7 L631.1,391.6 L632.0,390.1 L632.8,411.7 L633.7,419.7 L634.5,420.0 L635.3,420.0 L636.2,420.0 L637.0,420.0 L637.9,420.0 L638.7,420.0 L639.6,420.0 L640.4,420.0 L641.2,420.0 L642.1,420.0 L642.9,420.0 L643.8,420.0 L644.6,420.0 L645.4,420.0 L646.3,419.4 L647.1,402.2 L648.0,391.3 L648.8,394.9 L649.7,402.5 L650.5,394.6 L651.3,391.6 L652.2,394.3 L653.0,407.9 L653.9,419.7 L654.7,420.0 L655.6,420.0 L656.4,420.0 L657.2,420.0 L658.1,420.0 L658.9,420.0 L659.8,420.0 L660.6,420.0 L661.5,420.0 L662.3,420.0 L663.1,420.0 L664.0,420.0 L664.8,420.0 L665.7,420.0 L666.5,419.7 L667.4,417.0 L668.2,406.1 L669.0,404.3 L669.9,404.6 L670.7,397.2 L671.6,408.2 L672.4,413.8 L673.3,411.4 L674.1,419.7 L674.9,420.0 L675.8,420.0 L676.6,420.0 L677.5,420.0 L678.3,420.0 L679.2,420.0 L680.0,420.0" stroke="#d62728" stroke-width="2" fill="none" opacity="0.8"/>
<!-- Forecast -->
<path d="M80.0,238.9 L80.8,222.7 L81.7,213.2 L82.5,208.2 L83.4,207.9 L84.2,212.9 L85.1,215.0 L85.9,216.1 L86.7,217.6 L87.6,216.1 L88.4,212.0 L89.3,208.7 L90.1,205.2 L91.0,208.7 L91.8,216.7 L92.6,232.1 L93.5,379.8 L94.3,298.1 L95.2,383.9 L96.0,420.0 L96.9,420.0 L97.7,420.0 L98.5,420.0 L99.4,420.0 L100.2,420.0 L101.1,420.0 L101.9,420.0 L102.8,420.0 L103.6,420.0 L104.4,420.0 L105.3,420.0 L106.1,420.0 L107.0,420.0 L107.8,420.0 L108.7,420.0 L109.5,420.0 L110.3,420.0 L111.2,420.0 L112.0,420.0 L112.9,420.0 L113.7,274.7 L114.6,377.4 L115.4,294.0 L116.2,260.8 L117.1,261.4 L117.9,259.6 L118.8,247.2 L119.6,219.4 L120.4,183.9 L121.3,169.1 L122.1,165.8 L123.0,167.9 L123.8,170.0 L124.7,173.8 L125.5,176.8 L126.3,180.0 L127.2,180.0 L128.0,175.6 L128.9,167.0 L129.7,163.2 L130.6,162.0 L131.4,169.1 L132.2,184.8 L133.1,208.2 L133.9,232.4 L134.8,242.8 L135.6,247.5 L136.5,252.8 L137.3,253.1 L138.1,250.5 L139.0,236.6 L139.8,207.6 L140.7,174.1 L141.5,161.7 L142.4,161.1 L143.2,165.0 L144.0,169.1 L144.9,173.8 L145.7,177.7 L146.6,181.5 L147.4,182.4 L148.3,178.3 L149.1,170.6 L149.9,166.1 L150.8,165.0 L151.6,171.8 L152.5,187.7 L153.3,211.1 L154.2,232.7 L155.0,248.4 L155.8,250.8 L156.7,255.2 L157.5,256.1 L158.4,255.5 L159.2,243.4 L160.1,216.4 L160.9,184.2 L161.7,170.3 L162.6,169.7 L163.4,173.5 L164.3,178.0 L165.1,183.3 L166.0,187.2 L166.8,189.2 L167.6,189.2 L168.5,186.6 L169.3,180.9 L170.2,176.8 L171.0,172.9 L171.9,180.0 L172.7,193.1 L173.5,215.0 L174.4,231.8 L175.2,246.9 L176.1,255.8 L176.9,260.2 L177.8,260.2 L178.6,257.3 L179.4,243.7 L180.3,215.8 L181.1,180.9 L182.0,166.1 L182.8,164.7 L183.7,169.1 L184.5,172.9 L185.3,178.0 L186.2,181.2 L187.0,184.8 L187.9,185.7 L188.7,181.2 L189.6,173.8 L190.4,168.5 L191.2,166.4 L192.1,173.5 L192.9,188.0 L193.8,210.8 L194.6,238.0 L195.4,247.5 L196.3,252.2 L197.1,257.0 L198.0,257.9 L198.8,255.2 L199.7,241.9 L200.5,213.5 L201.3,178.9 L202.2,165.3 L203.0,164.4 L203.9,168.8 L204.7,173.2 L205.6,178.6 L206.4,182.7 L207.2,186.9 L208.1,187.2 L208.9,183.9 L209.8,177.4 L210.6,174.4 L211.5,172.9 L212.3,182.1 L213.1,196.9 L214.0,220.3 L214.8,249.9 L215.7,254.6 L216.5,258.8 L217.4,264.7 L218.2,267.6 L219.0,269.4 L219.9,266.4 L220.7,255.5 L221.6,238.6 L222.4,221.8 L223.3,213.5 L224.1,208.7 L224.9,209.0 L225.8,215.0 L226.6,217.3 L227.5,219.1 L228.3,220.3 L229.2,219.4 L230.0,215.0 L230.8,211.4 L231.7,208.7 L232.5,212.6 L233.4,220.6 L234.2,236.3 L235.1,228.0 L235.9,240.4 L236.7,261.4 L237.6,273.5 L238.4,277.1 L239.3,279.5 L240.1,278.6 L241.0,274.4 L241.8,264.1 L242.6,250.8 L243.5,236.9 L244.3,220.6 L245.2,212.9 L246.0,209.6 L246.9,207.9 L247.7,210.5 L248.5,211.7 L249.4,211.7 L250.2,204.0 L251.1,189.5 L251.9,177.7 L252.8,179.8 L253.6,189.2 L254.4,203.7 L255.3,236.9 L256.1,251.7 L257.0,257.9 L257.8,263.2 L258.7,264.7 L259.5,262.6 L260.3,248.7 L261.2,220.9 L262.0,194.5 L262.9,180.3 L263.7,177.1 L264.6,177.7 L265.4,179.8 L266.2,183.3 L267.1,186.6 L267.9,187.7 L268.8,186.9 L269.6,181.2 L270.4,172.9 L271.3,171.2 L272.1,173.2 L273.0,183.3 L273.8,199.0 L274.7,221.5 L275.5,227.1 L276.3,256.4 L277.2,265.6 L278.0,272.1 L278.9,274.4 L279.7,273.5 L280.6,262.0 L281.4,233.3 L282.2,204.3 L283.1,188.9 L283.9,183.0 L284.8,181.5 L285.6,181.8 L286.5,184.8 L287.3,187.2 L288.1,188.0 L289.0,187.7 L289.8,182.1 L290.7,173.5 L291.5,170.9 L292.4,173.2 L293.2,182.7 L294.0,197.5 L294.9,222.4 L295.7,248.4 L296.6,258.5 L297.4,262.9 L298.3,268.8 L299.1,271.2 L299.9,270.6 L300.8,259.0 L301.6,230.6 L302.5,202.8 L303.3,187.4 L304.2,182.7 L305.0,182.7 L305.8,185.7 L306.7,190.1 L307.5,193.7 L308.4,194.0 L309.2,193.4 L310.1,189.5 L310.9,184.2 L311.7,183.6 L312.6,184.8 L313.4,193.7 L314.3,207.3 L315.1,228.9 L316.0,242.2 L316.8,261.1 L317.6,270.9 L318.5,275.9 L319.3,277.4 L320.2,275.6 L321.0,263.5 L321.9,235.4 L322.7,205.5 L323.5,191.3 L324.4,186.9 L325.2,185.7 L326.1,186.9 L326.9,188.9 L327.8,191.0 L328.6,191.0 L329.4,190.1 L330.3,185.4 L331.1,176.5 L332.0,172.9 L332.8,173.8 L333.7,183.0 L334.5,197.8 L335.3,219.7 L336.2,236.3 L337.0,253.7 L337.9,263.2 L338.7,269.1 L339.6,270.9 L340.4,270.0 L341.2,257.9 L342.1,230.1 L342.9,201.4 L343.8,186.9 L344.6,183.0 L345.4,182.4 L346.3,183.0 L347.1,184.8 L348.0,186.9 L348.8,187.2 L349.7,185.7 L350.5,179.5 L351.3,168.5 L352.2,165.3 L353.0,168.8 L353.9,176.8 L354.7,193.1 L355.6,215.6 L356.4,227.7 L357.2,245.4 L358.1,254.6 L358.9,259.9 L359.8,261.4 L360.6,260.8 L361.5,253.7 L362.3,241.6 L363.1,225.9 L364.0,211.1 L364.8,204.6 L365.7,199.0 L366.5,200.2 L367.4,201.9 L368.2,208.2 L369.0,212.3 L369.9,211.7 L370.7,192.5 L371.6,179.2 L372.4,179.8 L373.3,176.5 L374.1,183.3 L374.9,193.1 L375.8,212.0 L376.6,216.7 L377.5,239.2 L378.3,243.1 L379.2,247.5 L380.0,250.2 L380.8,247.2 L381.7,240.1 L382.5,225.3 L383.4,213.5 L384.2,210.5 L385.1,203.7 L385.9,196.9 L386.7,200.2 L387.6,201.9 L388.4,209.9 L389.3,211.7 L390.1,211.4 L391.0,203.4 L391.8,186.6 L392.6,175.0 L393.5,178.9 L394.3,191.0 L395.2,206.1 L396.0,223.5 L396.9,249.3 L397.7,258.2 L398.5,264.7 L399.4,271.2 L400.2,273.5 L401.1,272.1 L401.9,260.2 L402.8,231.8 L403.6,204.0 L404.4,190.1 L405.3,188.3 L406.1,188.6 L407.0,189.8 L407.8,193.1 L408.7,196.6 L409.5,196.3 L410.3,195.7 L411.2,193.1 L412.0,188.6 L412.9,186.9 L413.7,186.6 L414.6,194.3 L415.4,208.5 L416.2,229.8 L417.1,238.9 L417.9,259.9 L418.8,267.9 L419.6,271.8 L420.4,271.8 L421.3,269.1 L422.1,259.3 L423.0,233.3 L423.8,201.9 L424.7,183.6 L425.5,177.4 L426.3,179.2 L427.2,184.5 L428.0,187.2 L428.9,190.1 L429.7,191.6 L430.6,192.5 L431.4,189.5 L432.2,183.9 L433.1,180.3 L433.9,178.0 L434.8,183.0 L435.6,195.1 L436.5,216.4 L437.3,243.4 L438.1,257.9 L439.0,265.3 L439.8,270.6 L440.7,272.4 L441.5,270.9 L442.4,259.0 L443.2,231.8 L444.0,204.9 L444.9,189.5 L445.7,185.4 L446.6,185.1 L447.4,186.6 L448.3,190.1 L449.1,193.7 L449.9,193.7 L450.8,193.1 L451.6,189.2 L452.5,181.5 L453.3,179.5 L454.2,180.0 L455.0,190.1 L455.8,203.7 L456.7,225.6 L457.5,251.7 L458.4,262.3 L459.2,269.4 L460.1,274.7 L460.9,276.5 L461.7,274.7 L462.6,262.6 L463.4,234.8 L464.3,205.5 L465.1,192.2 L466.0,190.7 L466.8,191.3 L467.6,193.1 L468.5,195.1 L469.3,198.4 L470.2,198.7 L471.0,198.1 L471.9,195.1 L472.7,191.0 L473.5,190.1 L474.4,190.7 L475.2,196.9 L476.1,210.8 L476.9,232.7 L477.8,237.7 L478.6,265.9 L479.4,274.4 L480.3,279.5 L481.1,280.9 L482.0,279.2 L482.8,268.5 L483.7,241.6 L484.5,212.0 L485.3,196.6 L486.2,192.5 L487.0,191.6 L487.9,191.9 L488.7,192.5 L489.6,194.0 L490.4,194.0 L491.2,193.4 L492.1,188.9 L492.9,182.1 L493.8,181.2 L494.6,182.7 L495.4,191.6 L496.3,205.8 L497.1,227.4 L498.0,249.3 L498.8,257.6 L499.7,263.8 L500.5,268.8 L501.3,271.5 L502.2,272.7 L503.0,268.2 L503.9,256.1 L504.7,241.0 L505.6,225.6 L506.4,216.1 L507.2,209.6 L508.1,208.7 L508.9,212.3 L509.8,215.8 L510.6,218.8 L511.5,220.0 L512.3,217.6 L513.1,208.7 L514.0,202.5 L514.8,201.6 L515.7,208.5 L516.5,218.2 L517.4,232.4 L518.2,246.3 L519.0,259.9 L519.9,265.0 L520.7,267.9 L521.6,270.3 L522.4,272.1 L523.3,265.0 L524.1,251.4 L524.9,237.7 L525.8,224.1 L526.6,211.4 L527.5,204.9 L528.3,205.8 L529.2,206.7 L530.0,211.4 L530.8,213.5 L531.7,213.8 L532.5,204.6 L533.4,191.0 L534.2,183.3 L535.1,185.7 L535.9,194.8 L536.7,209.6 L537.6,228.3 L538.4,240.7 L539.3,259.3 L540.1,269.7 L541.0,275.3 L541.8,277.4 L542.6,275.6 L543.5,263.5 L544.3,234.8 L545.2,205.2 L546.0,188.0 L546.9,181.8 L547.7,180.3 L548.5,181.5 L549.4,184.8 L550.2,187.2 L551.1,189.2 L551.9,188.0 L552.8,181.2 L553.6,171.8 L554.4,170.3 L555.3,173.2 L556.1,183.6 L557.0,199.3 L557.8,222.1 L558.7,236.6 L559.5,252.2 L560.3,265.0 L561.2,271.2 L562.0,273.0 L562.9,271.5 L563.7,259.0 L564.6,230.3 L565.4,200.2 L566.2,183.0 L567.1,177.7 L567.9,176.8 L568.8,178.3 L569.6,182.1 L570.4,184.8 L571.3,187.2 L572.1,186.3 L573.0,178.9 L573.8,168.5 L574.7,166.7 L575.5,169.7 L576.3,179.2 L577.2,195.1 L578.0,217.6 L578.9,223.0 L579.7,248.7 L580.6,262.9 L581.4,269.4 L582.2,270.9 L583.1,269.1 L583.9,256.1 L584.8,227.7 L585.6,196.0 L586.5,180.3 L587.3,175.3 L588.1,175.0 L589.0,177.1 L589.8,180.9 L590.7,183.3 L591.5,185.7 L592.4,184.2 L593.2,176.8 L594.0,164.4 L594.9,160.2 L595.7,163.5 L596.6,170.9 L597.4,187.4 L598.3,210.2 L599.1,232.4 L599.9,245.4 L600.8,251.4 L601.6,256.7 L602.5,257.9 L603.3,255.8 L604.2,241.0 L605.0,212.3 L605.8,182.7 L606.7,170.9 L607.5,170.0 L608.4,172.7 L609.2,176.5 L610.1,181.8 L610.9,186.0 L611.7,187.4 L612.6,185.7 L613.4,177.4 L614.3,165.6 L615.1,164.1 L616.0,165.8 L616.8,173.5 L617.6,189.8 L618.5,213.2 L619.3,219.1 L620.2,241.0 L621.0,238.0 L621.9,238.3 L622.7,240.1 L623.5,237.4 L624.4,223.2 L625.2,195.7 L626.1,166.1 L626.9,151.9 L627.8,152.2 L628.6,155.5 L629.4,159.3 L630.3,163.5 L631.1,167.3 L632.0,170.9 L632.8,171.5 L633.7,164.7 L634.5,149.6 L635.3,143.4 L636.2,146.9 L637.0,158.5 L637.9,175.6 L638.7,194.8 L639.6,223.2 L640.4,232.1 L641.2,238.3 L642.1,243.4 L642.9,246.9 L643.8,249.0 L644.6,245.1 L645.4,227.7 L646.3,211.4 L647.1,196.6 L648.0,192.8 L648.8,186.9 L649.7,188.0 L650.5,190.4 L651.3,197.8 L652.2,200.5 L653.0,198.7 L653.9,193.4 L654.7,180.3 L655.6,173.5 L656.4,172.9 L657.2,179.8 L658.1,191.0 L658.9,208.7 L659.8,220.6 L660.6,234.2 L661.5,239.2 L662.3,242.5 L663.1,242.2 L664.0,239.5 L664.8,235.4 L665.7,225.6 L666.5,213.5 L667.4,202.5 L668.2,192.8 L669.0,182.1 L669.9,176.2 L670.7,177.1 L671.6,183.3 L672.4,194.0 L673.3,191.9 L674.1,189.5 L674.9,167.0 L675.8,162.3 L676.6,163.8 L677.5,171.5 L678.3,185.7 L679.2,201.6 L680.0,205.2" stroke="#9467bd" stroke-width="2" fill="none" opacity="0.8"/>
<!-- Total Generation -->
<path d="M80.0,205.5 L80.8,211.4 L81.7,193.7 L82.5,194.5 L83.4,205.8 L84.2,193.7 L85.1,222.4 L85.9,212.9 L86.7,217.0 L87.6,181.8 L88.4,184.8 L89.3,215.6 L90.1,231.5 L91.0,213.5 L91.8,191.6 L92.6,168.5 L93.5,176.2 L94.3,179.2 L95.2,183.6 L96.0,164.7 L96.9,176.5 L97.7,188.9 L98.5,180.0 L99.4,149.3 L100.2,145.7 L101.1,137.7 L101.9,129.2 L102.8,113.8 L103.6,120.6 L104.4,122.4 L105.3,124.1 L106.1,169.4 L107.0,163.8 L107.8,129.2 L108.7,138.6 L109.5,170.6 L110.3,195.1 L111.2,214.1 L112.0,211.1 L112.9,212.3 L113.7,212.6 L114.6,211.1 L115.4,206.4 L116.2,193.7 L117.1,178.0 L117.9,173.2 L118.8,160.5 L119.6,120.0 L120.4,144.2 L121.3,138.3 L122.1,107.9 L123.0,113.5 L123.8,123.8 L124.7,125.6 L125.5,117.3 L126.3,128.6 L127.2,124.7 L128.0,119.7 L128.9,130.9 L129.7,146.0 L130.6,144.8 L131.4,121.8 L132.2,137.7 L133.1,144.5 L133.9,172.1 L134.8,165.0 L135.6,165.8 L136.5,148.4 L137.3,149.0 L138.1,146.3 L139.0,152.2 L139.8,164.7 L140.7,192.5 L141.5,216.7 L142.4,183.0 L143.2,165.8 L144.0,172.1 L144.9,186.3 L145.7,194.5 L146.6,192.8 L147.4,224.1 L148.3,220.3 L149.1,226.5 L149.9,221.8 L150.8,231.8 L151.6,226.5 L152.5,230.3 L153.3,233.3 L154.2,222.7 L155.0,218.5 L155.8,212.3 L156.7,239.8 L157.5,238.6 L158.4,236.9 L159.2,230.1 L160.1,209.3 L160.9,198.7 L161.7,193.4 L162.6,212.0 L163.4,216.4 L164.3,199.0 L165.1,146.0 L166.0,150.5 L166.8,161.7 L167.6,157.6 L168.5,160.5 L169.3,177.1 L170.2,184.2 L171.0,179.8 L171.9,164.4 L172.7,169.7 L173.5,170.9 L174.4,181.5 L175.2,198.7 L176.1,203.4 L176.9,199.6 L177.8,201.6 L178.6,192.8 L179.4,184.2 L180.3,196.6 L181.1,200.5 L182.0,226.8 L182.8,212.0 L183.7,197.8 L184.5,210.2 L185.3,215.0 L186.2,227.7 L187.0,232.1 L187.9,217.9 L188.7,225.6 L189.6,225.3 L190.4,214.4 L191.2,210.8 L192.1,220.6 L192.9,230.1 L193.8,239.2 L194.6,236.6 L195.4,234.8 L196.3,234.5 L197.1,234.5 L198.0,232.1 L198.8,229.5 L199.7,228.9 L200.5,230.3 L201.3,231.8 L202.2,233.3 L203.0,224.4 L203.9,228.6 L204.7,233.0 L205.6,242.2 L206.4,237.7 L207.2,225.3 L208.1,232.4 L208.9,247.5 L209.8,215.8 L210.6,207.9 L211.5,244.0 L212.3,255.5 L213.1,249.6 L214.0,234.8 L214.8,203.1 L215.7,207.0 L216.5,193.4 L217.4,196.9 L218.2,196.0 L219.0,163.8 L219.9,169.1 L220.7,179.8 L221.6,173.8 L222.4,164.7 L223.3,151.4 L224.1,154.6 L224.9,152.8 L225.8,182.4 L226.6,189.2 L227.5,187.7 L228.3,211.1 L229.2,223.5 L230.0,204.6 L230.8,197.2 L231.7,217.6 L232.5,191.0 L233.4,181.2 L234.2,166.4 L235.1,159.3 L235.9,172.4 L236.7,167.0 L237.6,162.9 L238.4,183.0 L239.3,184.8 L240.1,186.3 L241.0,199.0 L241.8,190.1 L242.6,187.7 L243.5,188.0 L244.3,169.4 L245.2,152.2 L246.0,179.8 L246.9,185.4 L247.7,178.6 L248.5,195.4 L249.4,140.7 L250.2,115.3 L251.1,125.0 L251.9,129.8 L252.8,146.6 L253.6,143.1 L254.4,160.5 L255.3,169.1 L256.1,184.2 L257.0,189.8 L257.8,196.3 L258.7,223.2 L259.5,222.4 L260.3,223.8 L261.2,224.7 L262.0,218.5 L262.9,212.9 L263.7,207.0 L264.6,175.6 L265.4,185.4 L266.2,190.1 L267.1,188.6 L267.9,190.4 L268.8,206.7 L269.6,217.3 L270.4,223.0 L271.3,224.4 L272.1,219.7 L273.0,229.2 L273.8,225.6 L274.7,244.8 L275.5,229.5 L276.3,230.9 L277.2,241.0 L278.0,244.3 L278.9,232.7 L279.7,223.8 L280.6,199.9 L281.4,167.3 L282.2,145.4 L283.1,161.4 L283.9,200.5 L284.8,161.4 L285.6,178.3 L286.5,190.1 L287.3,170.0 L288.1,171.8 L289.0,181.8 L289.8,160.5 L290.7,198.7 L291.5,246.3 L292.4,253.1 L293.2,248.7 L294.0,248.1 L294.9,245.1 L295.7,245.7 L296.6,250.2 L297.4,251.9 L298.3,244.5 L299.1,243.1 L299.9,244.8 L300.8,220.6 L301.6,222.4 L302.5,256.4 L303.3,261.1 L304.2,251.7 L305.0,259.9 L305.8,248.4 L306.7,242.8 L307.5,252.2 L308.4,254.6 L309.2,257.9 L310.1,256.4 L310.9,212.0 L311.7,233.3 L312.6,218.2 L313.4,192.5 L314.3,178.3 L315.1,190.1 L316.0,149.0 L316.8,158.2 L317.6,219.7 L318.5,201.4 L319.3,222.7 L320.2,220.6 L321.0,194.8 L321.9,157.3 L322.7,155.8 L323.5,176.5 L324.4,122.7 L325.2,124.7 L326.1,149.0 L326.9,149.3 L327.8,145.1 L328.6,146.6 L329.4,159.6 L330.3,123.8 L331.1,95.7 L332.0,132.7 L332.8,136.9 L333.7,140.1 L334.5,149.3 L335.3,162.6 L336.2,172.9 L337.0,209.6 L337.9,219.4 L338.7,210.2 L339.6,185.1 L340.4,213.5 L341.2,189.5 L342.1,169.7 L342.9,199.0 L343.8,195.1 L344.6,166.7 L345.4,140.7 L346.3,138.9 L347.1,146.0 L348.0,133.9 L348.8,141.9 L349.7,146.9 L350.5,124.7 L351.3,104.3 L352.2,139.2 L353.0,151.6 L353.9,148.4 L354.7,162.9 L355.6,162.9 L356.4,163.2 L357.2,152.2 L358.1,128.9 L358.9,130.9 L359.8,122.7 L360.6,105.8 L361.5,114.7 L362.3,120.9 L363.1,142.8 L364.0,161.4 L364.8,132.1 L365.7,162.6 L366.5,195.1 L367.4,196.9 L368.2,198.7 L369.0,199.9 L369.9,213.8 L370.7,191.9 L371.6,209.3 L372.4,217.0 L373.3,222.4 L374.1,221.2 L374.9,221.5 L375.8,229.5 L376.6,223.2 L377.5,222.4 L378.3,221.2 L379.2,220.3 L380.0,212.3 L380.8,211.1 L381.7,204.3 L382.5,196.9 L383.4,200.2 L384.2,198.7 L385.1,221.2 L385.9,214.1 L386.7,216.1 L387.6,204.3 L388.4,187.2 L389.3,185.7 L390.1,207.9 L391.0,194.5 L391.8,193.4 L392.6,165.8 L393.5,152.2 L394.3,146.0 L395.2,118.8 L396.0,120.9 L396.9,145.4 L397.7,145.1 L398.5,181.2 L399.4,195.4 L400.2,201.6 L401.1,201.4 L401.9,149.6 L402.8,124.1 L403.6,143.1 L404.4,137.1 L405.3,149.3 L406.1,159.3 L407.0,138.6 L407.8,148.4 L408.7,153.7 L409.5,165.6 L410.3,190.1 L411.2,154.3 L412.0,144.8 L412.9,130.9 L413.7,146.9 L414.6,139.2 L415.4,144.2 L416.2,175.9 L417.1,187.2 L417.9,204.3 L418.8,200.8 L419.6,193.7 L420.4,197.5 L421.3,163.2 L422.1,178.0 L423.0,146.3 L423.8,146.6 L424.7,126.5 L425.5,166.1 L426.3,175.0 L427.2,130.3 L428.0,125.3 L428.9,122.7 L429.7,120.3 L430.6,156.1 L431.4,146.6 L432.2,128.6 L433.1,141.9 L433.9,177.4 L434.8,180.9 L435.6,192.8 L436.5,195.7 L437.3,210.8 L438.1,229.2 L439.0,227.7 L439.8,227.1 L440.7,230.9 L441.5,217.9 L442.4,214.1 L443.2,210.8 L444.0,222.7 L444.9,215.6 L445.7,197.2 L446.6,175.3 L447.4,167.0 L448.3,162.9 L449.1,170.6 L449.9,182.1 L450.8,239.2 L451.6,222.1 L452.5,214.7 L453.3,220.3 L454.2,222.7 L455.0,213.8 L455.8,217.0 L456.7,204.6 L457.5,156.1 L458.4,167.9 L459.2,186.3 L460.1,187.4 L460.9,187.4 L461.7,175.0 L462.6,204.3 L463.4,193.7 L464.3,173.2 L465.1,183.3 L466.0,186.0 L466.8,178.0 L467.6,170.6 L468.5,173.5 L469.3,194.5 L470.2,164.7 L471.0,184.8 L471.9,157.0 L472.7,160.8 L473.5,174.4 L474.4,196.9 L475.2,204.6 L476.1,215.3 L476.9,207.3 L477.8,217.3 L478.6,188.3 L479.4,190.4 L480.3,175.9 L481.1,175.0 L482.0,147.5 L482.8,122.4 L483.7,135.1 L484.5,120.3 L485.3,161.4 L486.2,146.9 L487.0,155.2 L487.9,151.9 L488.7,162.0 L489.6,157.3 L490.4,164.7 L491.2,146.9 L492.1,162.6 L492.9,153.4 L493.8,155.8 L494.6,151.6 L495.4,181.2 L496.3,174.7 L497.1,151.1 L498.0,158.5 L498.8,159.9 L499.7,162.0 L500.5,167.3 L501.3,168.2 L502.2,200.5 L503.0,206.4 L503.9,183.9 L504.7,194.3 L505.6,180.6 L506.4,177.1 L507.2,144.5 L508.1,141.0 L508.9,126.2 L509.8,99.9 L510.6,75.9 L511.5,93.4 L512.3,147.8 L513.1,167.9 L514.0,191.3 L514.8,203.4 L515.7,216.4 L516.5,213.8 L517.4,206.4 L518.2,212.6 L519.0,215.3 L519.9,243.1 L520.7,247.8 L521.6,230.9 L522.4,218.5 L523.3,214.4 L524.1,211.1 L524.9,213.5 L525.8,215.6 L526.6,213.8 L527.5,211.1 L528.3,206.4 L529.2,203.1 L530.0,194.3 L530.8,211.1 L531.7,211.1 L532.5,213.8 L533.4,214.4 L534.2,214.4 L535.1,215.6 L535.9,213.8 L536.7,223.2 L537.6,246.0 L538.4,254.3 L539.3,258.2 L540.1,266.7 L541.0,263.8 L541.8,259.0 L542.6,259.0 L543.5,238.9 L544.3,210.8 L545.2,209.3 L546.0,199.3 L546.9,214.4 L547.7,207.6 L548.5,219.1 L549.4,184.8 L550.2,162.6 L551.1,152.5 L551.9,180.3 L552.8,194.3 L553.6,215.6 L554.4,223.5 L555.3,220.3 L556.1,217.3 L557.0,221.5 L557.8,221.5 L558.7,211.7 L559.5,255.5 L560.3,242.2 L561.2,243.4 L562.0,245.7 L562.9,259.3 L563.7,238.3 L564.6,200.8 L565.4,214.7 L566.2,228.6 L567.1,212.3 L567.9,207.6 L568.8,199.9 L569.6,201.1 L570.4,205.2 L571.3,210.5 L572.1,194.0 L573.0,187.4 L573.8,195.1 L574.7,200.5 L575.5,214.1 L576.3,198.1 L577.2,195.4 L578.0,194.0 L578.9,203.1 L579.7,196.6 L580.6,200.8 L581.4,191.9 L582.2,161.1 L583.1,151.4 L583.9,155.2 L584.8,138.6 L585.6,161.7 L586.5,162.3 L587.3,153.1 L588.1,158.7 L589.0,170.0 L589.8,180.0 L590.7,188.9 L591.5,199.6 L592.4,217.3 L593.2,202.5 L594.0,193.7 L594.9,207.6 L595.7,209.0 L596.6,207.9 L597.4,209.3 L598.3,211.7 L599.1,215.3 L599.9,216.7 L600.8,215.6 L601.6,214.1 L602.5,220.3 L603.3,222.4 L604.2,220.3 L605.0,220.3 L605.8,216.1 L606.7,211.4 L607.5,204.3 L608.4,204.6 L609.2,200.5 L610.1,190.4 L610.9,182.4 L611.7,199.0 L612.6,192.2 L613.4,194.5 L614.3,206.7 L615.1,198.7 L616.0,197.5 L616.8,196.9 L617.6,179.8 L618.5,166.7 L619.3,146.0 L620.2,121.2 L621.0,113.2 L621.9,112.0 L622.7,98.4 L623.5,96.3 L624.4,104.6 L625.2,100.2 L626.1,96.9 L626.9,78.0 L627.8,67.6 L628.6,68.5 L629.4,80.0 L630.3,100.8 L631.1,99.0 L632.0,109.9 L632.8,135.7 L633.7,139.8 L634.5,102.5 L635.3,122.9 L636.2,125.3 L637.0,133.3 L637.9,133.3 L638.7,142.5 L639.6,157.0 L640.4,159.0 L641.2,165.8 L642.1,177.7 L642.9,170.9 L643.8,168.5 L644.6,168.8 L645.4,128.3 L646.3,122.9 L647.1,123.5 L648.0,114.7 L648.8,110.8 L649.7,125.3 L650.5,122.1 L651.3,140.1 L652.2,153.4 L653.0,172.9 L653.9,114.1 L654.7,146.3 L655.6,165.3 L656.4,139.8 L657.2,116.4 L658.1,149.0 L658.9,154.0 L659.8,171.2 L660.6,152.5 L661.5,185.4 L662.3,172.7 L663.1,166.4 L664.0,173.2 L664.8,164.4 L665.7,158.2 L666.5,144.8 L667.4,142.2 L668.2,148.1 L669.0,156.4 L669.9,163.2 L670.7,160.8 L671.6,170.6 L672.4,181.8 L673.3,163.8 L674.1,154.9 L674.9,163.2 L675.8,170.6 L676.6,180.0 L677.5,188.6 L678.3,189.5 L679.2,193.1 L680.0,205.8" stroke="#8c564b" stroke-width="2" fill="none" opacity="0.8"/>
<!-- Forecast Difference -->
<path d="M80.0,420.0 L80.8,420.0 L81.7,420.0 L82.5,420.0 L83.4,420.0 L84.2,420.0 L85.1,420.0 L85.9,420.0 L86.7,420.0 L87.6,420.0 L88.4,420.0 L89.3,420.0 L90.1,420.0 L91.0,420.0 L91.8,420.0 L92.6,420.0 L93.5,420.0 L94.3,420.0 L95.2,420.0 L96.0,420.0 L96.9,420.0 L97.7,420.0 L98.5,420.0 L99.4,420.0 L100.2,420.0 L101.1,420.0 L101.9,420.0 L102.8,420.0 L103.6,420.0 L104.4,420.0 L105.3,420.0 L106.1,420.0 L107.0,420.0 L107.8,420.0 L108.7,420.0 L109.5,420.0 L110.3,420.0 L111.2,420.0 L112.0,420.0 L112.9,420.0 L113.7,420.0 L114.6,420.0 L115.4,420.0 L116.2,420.0 L117.1,420.0 L117.9,420.0 L118.8,420.0 L119.6,420.0 L120.4,420.0 L121.3,420.0 L122.1,420.0 L123.0,420.0 L123.8,420.0 L124.7,420.0 L125.5,420.0 L126.3,420.0 L127.2,420.0 L128.0,420.0 L128.9,420.0 L129.7,420.0 L130.6,420.0 L131.4,420.0 L132.2,420.0 L133.1,420.0 L133.9,420.0 L134.8,420.0 L135.6,420.0 L136.5,420.0 L137.3,420.0 L138.1,420.0 L139.0,420.0 L139.8,420.0 L140.7,420.0 L141.5,420.0 L142.4,420.0 L143.2,420.0 L144.0,420.0 L144.9,420.0 L145.7,420.0 L146.6,420.0 L147.4,420.0 L148.3,420.0 L149.1,420.0 L149.9,420.0 L150.8,420.0 L151.6,420.0 L152.5,420.0 L153.3,420.0 L154.2,420.0 L155.0,420.0 L155.8,420.0 L156.7,420.0 L157.5,420.0 L158.4,420.0 L159.2,420.0 L160.1,420.0 L160.9,420.0 L161.7,420.0 L162.6,420.0 L163.4,420.0 L164.3,420.0 L165.1,420.0 L166.0,420.0 L166.8,420.0 L167.6,420.0 L168.5,420.0 L169.3,420.0 L170.2,420.0 L171.0,420.0 L171.9,420.0 L172.7,420.0 L173.5,420.0 L174.4,420.0 L175.2,420.0 L176.1,420.0 L176.9,420.0 L177.8,420.0 L178.6,420.0 L179.4,420.0 L180.3,420.0 L181.1,420.0 L182.0,420.0 L182.8,420.0 L183.7,420.0 L184.5,420.0 L185.3,420.0 L186.2,420.0 L187.0,420.0 L187.9,420.0 L188.7,420.0 L189.6,420.0 L190.4,420.0 L191.2,420.0 L192.1,420.0 L192.9,420.0 L193.8,420.0 L194.6,420.0 L195.4,420.0 L196.3,420.0 L197.1,420.0 L198.0,420.0 L198.8,420.0 L199.7,420.0 L200.5,420.0 L201.3,420.0 L202.2,420.0 L203.0,420.0 L203.9,420.0 L204.7,420.0 L205.6,420.0 L206.4,420.0 L207.2,420.0 L208.1,420.0 L208.9,420.0 L209.8,420.0 L210.6,420.0 L211.5,420.0 L212.3,420.0 L213.1,420.0 L214.0,420.0 L214.8,420.0 L215.7,420.0 L216.5,420.0 L217.4,420.0 L218.2,420.0 L219.0,420.0 L219.9,420.0 L220.7,420.0 L221.6,420.0 L222.4,420.0 L223.3,420.0 L224.1,420.0 L224.9,420.0 L225.8,420.0 L226.6,420.0 L227.5,420.0 L228.3,420.0 L229.2,420.0 L230.0,420.0 L230.8,420.0 L231.7,420.0 L232.5,420.0 L233.4,420.0 L234.2,420.0 L235.1,420.0 L235.9,420.0 L236.7,420.0 L237.6,420.0 L238.4,420.0 L239.3,420.0 L240.1,420.0 L241.0,420.0 L241.8,420.0 L242.6,420.0 L243.5,420.0 L244.3,420.0 L245.2,420.0 L246.0,420.0 L246.9,420.0 L247.7,420.0 L248.5,420.0 L249.4,420.0 L250.2,420.0 L251.1,420.0 L251.9,420.0 L252.8,420.0 L253.6,420.0 L254.4,420.0 L255.3,420.0 L256.1,420.0 L257.0,420.0 L257.8,420.0 L258.7,420.0 L259.5,420.0 L260.3,420.0 L261.2,420.0 L262.0,420.0 L262.9,420.0 L263.7,420.0 L264.6,420.0 L265.4,420.0 L266.2,420.0 L267.1,420.0 L267.9,420.0 L268.8,420.0 L269.6,420.0 L270.4,420.0 L271.3,420.0 L272.1,420.0 L273.0,420.0 L273.8,420.0 L274.7,420.0 L275.5,420.0 L276.3,420.0 L277.2,420.0 L278.0,420.0 L278.9,420.0 L279.7,420.0 L280.6,420.0 L281.4,420.0 L282.2,420.0 L283.1,420.0 L283.9,420.0 L284.8,420.0 L285.6,420.0 L286.5,420.0 L287.3,420.0 L288.1,420.0 L289.0,420.0 L289.8,420.0 L290.7,420.0 L291.5,420.0 L292.4,420.0 L293.2,420.0 L294.0,420.0 L294.9,420.0 L295.7,420.0 L296.6,420.0 L297.4,420.0 L298.3,420.0 L299.1,420.0 L299.9,420.0 L300.8,420.0 L301.6,420.0 L302.5,420.0 L303.3,420.0 L304.2,420.0 L305.0,420.0 L305.8,420.0 L306.7,420.0 L307.5,420.0 L308.4,420.0 L309.2,420.0 L310.1,420.0 L310.9,420.0 L311.7,420.0 L312.6,420.0 L313.4,420.0 L314.3,420.0 L315.1,420.0 L316.0,420.0 L316.8,420.0 L317.6,420.0 L318.5,420.0 L319.3,420.0 L320.2,420.0 L321.0,420.0 L321.9,420.0 L322.7,420.0 L323.5,420.0 L324.4,420.0 L325.2,420.0 L326.1,420.0 L326.9,420.0 L327.8,420.0 L328.6,420.0 L329.4,420.0 L330.3,420.0 L331.1,420.0 L332.0,420.0 L332.8,420.0 L333.7,420.0 L334.5,420.0 L335.3,420.0 L336.2,420.0 L337.0,420.0 L337.9,420.0 L338.7,420.0 L339.6,420.0 L340.4,420.0 L341.2,420.0 L342.1,420.0 L342.9,420.0 L343.8,420.0 L344.6,420.0 L345.4,420.0 L346.3,420.0 L347.1,420.0 L348.0,420.0 L348.8,420.0 L349.7,420.0 L350.5,420.0 L351.3,420.0 L352.2,420.0 L353.0,420.0 L353.9,420.0 L354.7,420.0 L355.6,420.0 L356.4,420.0 L357.2,420.0 L358.1,420.0 L358.9,420.0 L359.8,420.0 L360.6,420.0 L361.5,420.0 L362.3,420.0 L363.1,420.0 L364.0,420.0 L364.8,420.0 L365.7,420.0 L366.5,420.0 L367.4,420.0 L368.2,420.0 L369.0,420.0 L369.9,420.0 L370.7,420.0 L371.6,420.0 L372.4,420.0 L373.3,420.0 L374.1,420.0 L374.9,420.0 L375.8,420.0 L376.6,420.0 L377.5,420.0 L378.3,420.0 L379.2,420.0 L380.0,420.0 L380.8,420.0 L381.7,420.0 L382.5,420.0 L383.4,420.0 L384.2,420.0 L385.1,420.0 L385.9,420.0 L386.7,420.0 L387.6,420.0 L388.4,420.0 L389.3,420.0 L390.1,420.0 L391.0,420.0 L391.8,420.0 L392.6,420.0 L393.5,420.0 L394.3,420.0 L395.2,420.0 L396.0,420.0 L396.9,420.0 L397.7,420.0 L398.5,420.0 L399.4,420.0 L400.2,420.0 L401.1,420.0 L401.9,420.0 L402.8,420.0 L403.6,420.0 L404.4,420.0 L405.3,420.0 L406.1,420.0 L407.0,420.0 L407.8,420.0 L408.7,420.0 L409.5,420.0 L410.3,420.0 L411.2,420.0 L412.0,420.0 L412.9,420.0 L413.7,420.0 L414.6,420.0 L415.4,420.0 L416.2,420.0 L417.1,420.0 L417.9,420.0 L418.8,420.0 L419.6,420.0 L420.4,420.0 L421.3,420.0 L422.1,420.0 L423.0,420.0 L423.8,420.0 L424.7,420.0 L425.5,420.0 L426.3,420.0 L427.2,420.0 L428.0,420.0 L428.9,420.0 L429.7,420.0 L430.6,420.0 L431.4,420.0 L432.2,420.0 L433.1,420.0 L433.9,420.0 L434.8,420.0 L435.6,420.0 L436.5,420.0 L437.3,420.0 L438.1,420.0 L439.0,420.0 L439.8,420.0 L440.7,420.0 L441.5,420.0 L442.4,420.0 L443.2,420.0 L444.0,420.0 L444.9,420.0 L445.7,420.0 L446.6,420.0 L447.4,420.0 L448.3,420.0 L449.1,420.0 L449.9,420.0 L450.8,420.0 L451.6,420.0 L452.5,420.0 L453.3,420.0 L454.2,420.0 L455.0,420.0 L455.8,420.0 L456.7,420.0 L457.5,420.0 L458.4,420.0 L459.2,420.0 L460.1,420.0 L460.9,420.0 L461.7,420.0 L462.6,420.0 L463.4,420.0 L464.3,420.0 L465.1,420.0 L466.0,420.0 L466.8,420.0 L467.6,420.0 L468.5,420.0 L469.3,420.0 L470.2,420.0 L471.0,420.0 L471.9,420.0 L472.7,420.0 L473.5,420.0 L474.4,420.0 L475.2,420.0 L476.1,420.0 L476.9,420.0 L477.8,420.0 L478.6,420.0 L479.4,420.0 L480.3,420.0 L481.1,420.0 L482.0,420.0 L482.8,420.0 L483.7,420.0 L484.5,420.0 L485.3,420.0 L486.2,420.0 L487.0,420.0 L487.9,420.0 L488.7,420.0 L489.6,420.0 L490.4,420.0 L491.2,420.0 L492.1,420.0 L492.9,420.0 L493.8,420.0 L494.6,420.0 L495.4,420.0 L496.3,420.0 L497.1,420.0 L498.0,420.0 L498.8,420.0 L499.7,420.0 L500.5,420.0 L501.3,420.0 L502.2,420.0 L503.0,420.0 L503.9,420.0 L504.7,420.0 L505.6,420.0 L506.4,420.0 L507.2,420.0 L508.1,420.0 L508.9,420.0 L509.8,420.0 L510.6,420.0 L511.5,420.0 L512.3,420.0 L513.1,420.0 L514.0,420.0 L514.8,420.0 L515.7,420.0 L516.5,420.0 L517.4,420.0 L518.2,420.0 L519.0,420.0 L519.9,420.0 L520.7,420.0 L521.6,420.0 L522.4,420.0 L523.3,420.0 L524.1,420.0 L524.9,420.0 L525.8,420.0 L526.6,420.0 L527.5,420.0 L528.3,420.0 L529.2,420.0 L530.0,420.0 L530.8,420.0 L531.7,420.0 L532.5,420.0 L533.4,420.0 L534.2,420.0 L535.1,420.0 L535.9,420.0 L536.7,420.0 L537.6,420.0 L538.4,420.0 L539.3,420.0 L540.1,420.0 L541.0,420.0 L541.8,420.0 L542.6,420.0 L543.5,420.0 L544.3,420.0 L545.2,420.0 L546.0,420.0 L546.9,420.0 L547.7,420.0 L548.5,420.0 L549.4,420.0 L550.2,420.0 L551.1,420.0 L551.9,420.0 L552.8,420.0 L553.6,420.0 L554.4,420.0 L555.3,420.0 L556.1,420.0 L557.0,420.0 L557.8,420.0 L558.7,420.0 L559.5,420.0 L560.3,420.0 L561.2,420.0 L562.0,420.0 L562.9,420.0 L563.7,420.0 L564.6,420.0 L565.4,420.0 L566.2,420.0 L567.1,420.0 L567.9,420.0 L568.8,420.0 L569.6,420.0 L570.4,420.0 L571.3,420.0 L572.1,420.0 L573.0,420.0 L573.8,420.0 L574.7,420.0 L575.5,420.0 L576.3,420.0 L577.2,420.0 L578.0,420.0 L578.9,420.0 L579.7,420.0 L580.6,420.0 L581.4,420.0 L582.2,420.0 L583.1,420.0 L583.9,420.0 L584.8,420.0 L585.6,420.0 L586.5,420.0 L587.3,420.0 L588.1,420.0 L589.0,420.0 L589.8,420.0 L590.7,420.0 L591.5,420.0 L592.4,420.0 L593.2,420.0 L594.0,420.0 L594.9,420.0 L595.7,420.0 L596.6,420.0 L597.4,420.0 L598.3,420.0 L599.1,420.0 L599.9,420.0 L600.8,420.0 L601.6,420.0 L602.5,420.0 L603.3,420.0 L604.2,420.0 L605.0,420.0 L605.8,420.0 L606.7,420.0 L607.5,420.0 L608.4,420.0 L609.2,420.0 L610.1,420.0 L610.9,420.0 L611.7,420.0 L612.6,420.0 L613.4,420.0 L614.3,420.0 L615.1,420.0 L616.0,420.0 L616.8,420.0 L617.6,420.0 L618.5,420.0 L619.3,420.0 L620.2,420.0 L621.0,420.0 L621.9,420.0 L622.7,420.0 L623.5,420.0 L624.4,420.0 L625.2,420.0 L626.1,420.0 L626.9,420.0 L627.8,420.0 L628.6,420.0 L629.4,420.0 L630.3,420.0 L631.1,420.0 L632.0,420.0 L632.8,420.0 L633.7,420.0 L634.5,420.0 L635.3,420.0 L636.2,420.0 L637.0,420.0 L637.9,420.0 L638.7,420.0 L639.6,420.0 L640.4,420.0 L641.2,420.0 L642.1,420.0 L642.9,420.0 L643.8,420.0 L644.6,420.0 L645.4,420.0 L646.3,420.0 L647.1,420.0 L648.0,420.0 L648.8,420.0 L649.7,420.0 L650.5,420.0 L651.3,420.0 L652.2,420.0 L653.0,420.0 L653.9,420.0 L654.7,420.0 L655.6,420.0 L656.4,420.0 L657.2,420.0 L658.1,420.0 L658.9,420.0 L659.8,420.0 L660.6,420.0 L661.5,420.0 L662.3,420.0 L663.1,420.0 L664.0,420.0 L664.8,420.0 L665.7,420.0 L666.5,420.0 L667.4,420.0 L668.2,420.0 L669.0,420.0 L669.9,420.0 L670.7,420.0 L671.6,420.0 L672.4,420.0 L673.3,420.0 L674.1,420.0 L674.9,420.0 L675.8,420.0 L676.6,420.0 L677.5,420.0 L678.3,420.0 L679.2,420.0 L680.0,420.0" stroke="#e377c2" stroke-width="2" fill="none" opacity="0.8"/>

<!-- Legend -->
<line x1="690" y1="70" x2="705" y2="70" stroke="#1f77b4" stroke-width="3"/>
<text x="710" y="74" class="legend">Wind Generation</text>
<line x1="690" y1="88" x2="705" y2="88" stroke="#ff7f0e" stroke-width="3"/>
<text x="710" y="92" class="legend">Hydro Generation</text>
<line x1="690" y1="106" x2="705" y2="106" stroke="#2ca02c" stroke-width="3"/>
<text x="710" y="110" class="legend">Thermal Generation</text>
<line x1="690" y1="124" x2="705" y2="124" stroke="#d62728" stroke-width="3"/>
<text x="710" y="128" class="legend">Solar Generation</text>
<line x1="690" y1="142" x2="705" y2="142" stroke="#9467bd" stroke-width="3"/>
<text x="710" y="146" class="legend">Forecast</text>
<line x1="690" y1="160" x2="705" y2="160" stroke="#8c564b" stroke-width="3"/>
<text x="710" y="164" class="legend">Total Generation</text>
<line x1="690" y1="178" x2="705" y2="178" stroke="#e377c2" stroke-width="3"/>
<text x="710" y="182" class="legend">Forecast Difference</text>

<!-- Date range -->
<text x="80" y="495" class="legend">Range: 10/25 - 11/23/2025 (713 records)</text>
</svg>