<?xml version="1.0" encoding="UTF-8"?>
<svg width="800" height="500" xmlns="http://www.w3.org/2000/svg">
<style>
.axis-line { stroke: #333; stroke-width: 1; }
.grid-line { stroke: #ddd; stroke-width: 0.5; }
.title { font: 16px Arial; text-anchor: middle; fill: #333; }
.axis-label { font: 12px Arial; text-anchor: middle; fill: #666; }
.legend { font: 10px Arial; fill: #333; }
</style>

<!-- Title -->
<text x="400.0" y="25" class="title">Northwestern Energy Generation Data - Past 30 Days</text>

<!-- Plot area background -->
<rect x="80" y="50" width="600" height="370" fill="white" stroke="#ddd"/>

<!-- Y-axis -->
<line x1="80" y1="50" x2="80" y2="420" class="axis-line"/>
<text x="30" y="235.0" class="axis-label" transform="rotate(-90, 30, 235.0)">Generation (MW)</text>

<!-- X-axis -->
<line x1="80" y1="420" x2="680" y2="420" class="axis-line"/>
<text x="380.0" y="480" class="axis-label">Time</text>
<line x1="80" y1="420.0" x2="680" y2="420.0" class="grid-line"/>
<text x="70" y="425.0" class="legend" text-anchor="end">0</text>
<line x1="80" y1="327.5" x2="680" y2="327.5" class="grid-line"/>
<text x="70" y="332.5" class="legend" text-anchor="end">345</text>
<line x1="80" y1="235.0" x2="680" y2="235.0" class="grid-line"/>
<text x="70" y="240.0" class="legend" text-anchor="end">690</text>
<line x1="80" y1="142.5" x2="680" y2="142.5" class="grid-line"/>
<text x="70" y="147.5" class="legend" text-anchor="end">1035</text>
<line x1="80" y1="50.0" x2="680" y2="50.0" class="grid-line"/>
<text x="70" y="55.0" class="legend" text-anchor="end">1380</text>
<!-- Wind Generation -->
<path d="M80.0,406.6 L80.8,402.0 L81.7,404.7 L82.5,396.7 L83.4,382.2 L84.2,385.7 L85.0,357.5 L85.9,347.6 L86.7,341.7 L87.6,348.7 L88.4,345.4 L89.3,342.8 L90.1,358.9 L90.9,368.5 L91.8,379.5 L92.6,403.6 L93.5,409.0 L94.3,402.8 L95.1,395.6 L96.0,389.7 L96.8,392.1 L97.7,399.6 L98.5,395.1 L99.4,398.5 L100.2,399.9 L101.0,399.1 L101.9,399.1 L102.7,400.2 L103.6,397.7 L104.4,403.9 L105.2,403.6 L106.1,401.5 L106.9,398.0 L107.8,380.8 L108.6,377.1 L109.5,365.8 L110.3,373.6 L111.1,379.2 L112.0,361.3 L112.8,360.2 L113.7,358.9 L114.5,350.8 L115.3,351.3 L116.2,372.3 L117.0,364.8 L117.9,374.4 L118.7,376.6 L119.6,393.2 L120.4,382.5 L121.2,379.0 L122.1,366.1 L122.9,356.7 L123.8,376.3 L124.6,365.8 L125.4,346.5 L126.3,364.8 L127.1,367.7 L128.0,362.6 L128.8,341.4 L129.6,363.4 L130.5,363.4 L131.3,370.1 L132.2,397.7 L133.0,386.5 L133.9,387.8 L134.7,391.8 L135.5,393.5 L136.4,371.2 L137.2,357.2 L138.1,329.9 L138.9,321.6 L139.7,323.5 L140.6,347.9 L141.4,335.3 L142.3,342.2 L143.1,353.8 L144.0,373.1 L144.8,369.3 L145.6,392.6 L146.5,399.9 L147.3,399.9 L148.2,399.9 L149.0,402.0 L149.8,399.1 L150.7,399.4 L151.5,398.3 L152.4,393.2 L153.2,396.4 L154.1,395.9 L154.9,393.5 L155.7,395.1 L156.6,387.8 L157.4,381.4 L158.3,380.8 L159.1,370.9 L159.9,372.3 L160.8,374.7 L161.6,370.9 L162.5,364.5 L163.3,378.4 L164.2,378.4 L165.0,381.4 L165.8,373.6 L166.7,361.8 L167.5,369.3 L168.4,351.9 L169.2,373.3 L170.0,380.3 L170.9,366.4 L171.7,345.7 L172.6,362.3 L173.4,379.5 L174.2,370.4 L175.1,379.0 L175.9,370.4 L176.8,366.6 L177.6,361.5 L178.5,361.3 L179.3,379.5 L180.1,391.3 L181.0,388.9 L181.8,390.8 L182.7,389.7 L183.5,400.4 L184.3,405.8 L185.2,410.6 L186.0,405.5 L186.9,397.2 L187.7,399.6 L188.6,387.0 L189.4,367.4 L190.2,356.2 L191.1,352.7 L191.9,309.0 L192.8,314.1 L193.6,318.4 L194.4,310.9 L195.3,315.9 L196.1,310.0 L197.0,311.1 L197.8,305.8 L198.7,308.4 L199.5,310.9 L200.3,312.5 L201.2,315.4 L202.0,310.9 L202.9,311.7 L203.7,309.8 L204.5,358.9 L205.4,365.3 L206.2,368.0 L207.1,372.8 L207.9,368.0 L208.8,363.4 L209.6,362.3 L210.4,362.3 L211.3,363.4 L212.1,319.2 L213.0,315.7 L213.8,309.5 L214.6,311.1 L215.5,313.0 L216.3,317.6 L217.2,317.6 L218.0,324.5 L218.8,317.6 L220.5,326.1 L221.4,340.4 L222.2,338.7 L223.1,348.4 L223.9,338.5 L224.7,332.0 L225.6,382.7 L226.4,395.6 L227.3,395.1 L228.1,401.0 L228.9,402.8 L229.8,408.7 L230.6,407.7 L231.5,398.0 L232.3,385.4 L233.2,346.8 L234.0,328.0 L234.8,318.6 L235.7,325.1 L236.5,340.6 L237.4,348.4 L238.2,359.7 L239.0,366.1 L239.9,372.5 L240.7,378.4 L241.6,391.8 L242.4,398.3 L243.3,409.0 L244.1,417.9 L244.9,419.5 L245.8,420.0 L246.6,416.5 L247.5,404.4 L248.3,399.1 L249.1,393.5 L250.0,388.4 L250.8,377.1 L251.7,392.1 L252.5,388.4 L253.4,379.5 L254.2,387.6 L255.0,398.0 L255.9,400.4 L256.7,404.4 L257.6,412.2 L258.4,415.2 L259.2,415.7 L260.1,415.7 L260.9,414.1 L261.8,414.6 L262.6,410.9 L263.5,406.1 L264.3,393.2 L265.1,394.0 L266.0,386.5 L266.8,391.3 L267.7,373.3 L268.5,366.9 L269.3,362.9 L270.2,353.0 L271.0,364.8 L271.9,381.7 L272.7,347.9 L273.5,359.4 L274.4,366.6 L275.2,353.5 L276.1,379.0 L276.9,383.0 L277.8,372.5 L278.6,354.0 L279.4,337.9 L280.3,358.6 L281.1,337.9 L282.0,351.9 L282.8,364.0 L283.6,361.5 L284.5,355.1 L285.3,331.0 L286.2,326.1 L287.0,341.7 L287.9,310.6 L288.7,312.5 L289.5,309.0 L290.4,330.4 L291.2,348.1 L292.1,330.4 L292.9,342.2 L293.7,384.6 L294.6,384.3 L295.4,325.1 L296.3,314.1 L297.1,305.0 L298.0,308.4 L298.8,314.1 L299.6,321.8 L300.5,344.6 L301.3,353.2 L302.2,385.4 L303.0,401.2 L303.8,405.0 L304.7,396.1 L305.5,397.5 L306.4,405.5 L307.2,400.7 L308.1,408.7 L308.9,409.8 L309.7,400.7 L310.6,391.6 L311.4,388.9 L312.3,376.6 L313.1,373.9 L313.9,350.0 L314.8,356.2 L315.6,357.0 L316.5,366.9 L317.3,388.9 L318.1,402.0 L319.0,403.9 L319.8,408.7 L320.7,403.6 L321.5,401.5 L322.4,407.9 L323.2,412.0 L324.0,414.1 L324.9,413.3 L325.7,416.0 L326.6,417.9 L327.4,418.7 L328.2,418.9 L329.1,414.9 L329.9,412.2 L330.8,406.9 L331.6,410.1 L332.5,405.3 L333.3,406.3 L334.1,406.6 L335.0,406.9 L335.8,407.1 L336.7,406.3 L337.5,401.0 L338.3,403.4 L339.2,402.3 L340.0,403.1 L340.9,406.1 L341.7,410.1 L342.6,410.6 L343.4,416.2 L344.2,420.0 L345.1,420.0 L345.9,420.0 L346.8,418.4 L347.6,408.7 L348.4,398.5 L349.3,394.0 L350.1,370.1 L351.0,358.3 L351.8,356.7 L352.7,357.8 L353.5,356.7 L354.3,318.1 L355.2,312.7 L356.0,331.0 L356.9,327.5 L357.7,331.8 L358.5,347.3 L359.4,350.3 L360.2,358.9 L361.1,361.8 L361.9,379.8 L362.7,384.3 L363.6,399.6 L364.4,409.0 L365.3,412.2 L366.1,413.3 L367.0,411.7 L367.8,413.6 L368.6,411.7 L369.5,406.3 L370.3,400.7 L371.2,400.4 L372.0,403.1 L372.8,405.5 L373.7,405.5 L374.5,402.3 L375.4,401.8 L376.2,405.5 L377.1,408.2 L377.9,405.8 L378.7,403.1 L379.6,405.0 L380.4,404.2 L381.3,394.3 L382.1,382.2 L382.9,356.7 L383.8,331.0 L384.6,323.2 L385.5,319.2 L386.3,317.6 L387.2,315.1 L388.0,312.2 L388.8,312.2 L389.7,314.6 L390.5,313.8 L391.4,313.5 L392.2,307.9 L393.0,323.5 L393.9,310.0 L394.7,310.9 L395.6,308.7 L396.4,313.3 L397.3,328.3 L398.1,337.4 L398.9,354.0 L399.8,379.2 L400.6,373.6 L401.5,379.0 L402.3,378.2 L403.1,351.3 L404.0,357.5 L404.8,348.1 L405.7,371.5 L406.5,343.3 L407.3,361.0 L408.2,346.5 L409.0,387.3 L409.9,378.4 L410.7,374.7 L411.6,380.3 L412.4,380.8 L413.2,373.9 L414.1,331.0 L414.9,311.1 L415.8,321.0 L416.6,333.6 L417.4,318.6 L418.3,318.6 L419.1,309.8 L420.0,315.1 L420.8,310.9 L421.7,315.9 L422.5,335.5 L423.3,333.6 L424.2,347.1 L425.0,353.0 L425.9,335.5 L426.7,347.9 L427.5,361.3 L428.4,347.1 L429.2,330.2 L430.1,309.8 L430.9,309.5 L431.8,310.3 L432.6,318.4 L433.4,319.4 L434.3,334.5 L435.1,341.2 L436.0,343.0 L436.8,322.7 L437.6,340.4 L438.5,332.8 L439.3,328.3 L440.2,351.3 L441.0,336.6 L441.9,337.1 L442.7,330.2 L443.5,328.3 L444.4,348.1 L445.2,338.5 L446.1,330.2 L446.9,328.3 L447.7,360.5 L448.6,343.6 L449.4,350.0 L450.3,335.0 L451.1,324.3 L451.9,326.1 L452.8,321.6 L453.6,330.4 L454.5,327.7 L455.3,331.5 L456.2,343.3 L457.0,345.7 L457.8,351.3 L458.7,344.9 L459.5,353.2 L460.4,335.8 L461.2,325.6 L462.0,319.2 L462.9,326.9 L463.7,341.2 L464.6,372.5 L465.4,345.4 L466.3,336.1 L467.1,337.4 L467.9,353.2 L468.8,324.3 L469.6,326.4 L470.5,317.0 L471.3,323.5 L472.1,322.7 L473.0,321.8 L473.8,317.3 L474.7,317.3 L475.5,321.8 L476.4,335.8 L477.2,362.9 L478.0,350.3 L478.9,344.9 L479.7,354.0 L480.6,347.3 L481.4,345.2 L482.2,356.2 L483.1,365.0 L483.9,383.0 L484.8,397.7 L485.6,394.8 L486.5,399.6 L487.3,402.0 L488.1,401.5 L489.0,388.6 L489.8,393.2 L490.7,388.1 L491.5,354.8 L492.3,362.3 L493.2,340.1 L494.0,355.9 L494.9,362.6 L495.7,366.9 L496.5,364.5 L497.4,371.7 L498.2,377.1 L499.1,380.6 L499.9,396.7 L500.8,411.4 L501.6,413.0 L502.4,410.6 L503.3,404.4 L504.1,395.9 L505.0,391.6 L505.8,365.8 L506.6,353.2 L507.5,373.9 L508.3,367.2 L509.2,345.2 L510.0,331.5 L510.9,336.3 L511.7,325.3 L512.5,323.7 L513.4,328.6 L514.2,329.1 L515.1,346.0 L515.9,366.6 L516.7,373.1 L517.6,395.6 L518.4,394.0 L519.3,396.7 L520.1,394.0 L521.0,391.6 L521.8,393.5 L522.6,387.0 L523.5,387.6 L524.3,401.5 L525.2,401.2 L526.0,405.8 L526.8,412.2 L527.7,416.8 L528.5,418.1 L529.4,419.2 L530.2,419.5 L531.1,416.5 L531.9,417.6 L532.7,416.0 L533.6,412.8 L534.4,411.2 L535.3,404.4 L536.1,394.5 L536.9,378.2 L537.8,369.0 L538.6,375.8 L539.5,383.5 L540.3,409.3 L541.2,418.4 L542.0,419.5 L542.8,418.1 L543.7,412.0 L544.5,406.9 L545.4,407.1 L546.2,401.2 L547.0,371.5 L547.9,377.4 L548.7,387.0 L549.6,379.0 L550.4,375.5 L551.2,337.4 L552.1,348.7 L552.9,329.1 L553.8,350.5 L554.6,315.9 L555.5,329.1 L556.3,351.1 L557.1,369.0 L558.0,375.8 L558.8,376.0 L559.7,360.7 L560.5,336.9 L561.3,337.7 L562.2,318.9 L563.0,345.4 L563.9,348.7 L564.7,367.2 L565.6,355.4 L566.4,347.9 L567.2,338.5 L568.1,369.9 L568.9,351.1 L569.8,344.9 L570.6,361.5 L571.4,362.6 L572.3,360.2 L573.1,359.4 L574.0,358.1 L574.8,364.5 L575.7,364.5 L576.5,342.0 L577.3,339.0 L578.2,338.7 L579.0,341.4 L579.9,344.1 L580.7,349.2 L581.5,355.4 L582.4,384.1 L583.2,395.3 L584.1,410.6 L584.9,413.8 L585.8,414.1 L586.6,414.6 L587.4,390.8 L588.3,391.3 L589.1,387.0 L590.0,385.7 L590.8,376.3 L591.6,359.7 L592.5,355.1 L593.3,363.7 L594.2,363.1 L595.0,338.2 L595.8,346.0 L596.7,350.5 L597.5,362.6 L598.4,368.8 L599.2,376.0 L600.1,401.2 L600.9,399.1 L601.7,408.7 L602.6,406.1 L603.4,410.6 L604.3,414.9 L605.1,416.8 L605.9,418.1 L606.8,416.5 L607.6,415.4 L608.5,416.5 L609.3,414.6 L610.2,410.3 L611.0,404.2 L611.8,396.7 L612.7,401.5 L613.5,399.1 L614.4,396.1 L615.2,384.6 L616.0,380.3 L616.9,391.0 L617.7,385.4 L618.6,385.4 L619.4,385.4 L620.3,396.7 L621.1,399.9 L621.9,399.4 L622.8,401.0 L623.6,399.6 L624.5,385.1 L625.3,375.2 L626.1,364.5 L627.0,351.6 L627.8,348.7 L628.7,394.8 L629.5,377.9 L630.4,395.1 L631.2,394.8 L632.0,388.1 L632.9,386.2 L633.7,383.0 L634.6,383.3 L635.4,382.5 L636.2,394.3 L637.1,409.8 L637.9,391.8 L638.8,398.8 L639.6,389.4 L640.4,408.7 L641.3,409.3 L642.1,410.1 L643.0,404.2 L643.8,396.1 L644.7,394.0 L645.5,392.1 L646.3,391.3 L647.2,395.3 L648.0,396.9 L648.9,392.6 L649.7,400.2 L650.5,395.9 L651.4,405.8 L652.2,403.6 L653.1,399.1 L653.9,401.5 L654.8,402.6 L655.6,401.0 L656.4,379.0 L657.3,379.5 L658.1,384.3 L659.0,378.7 L659.8,382.2 L660.6,387.6 L661.5,394.5 L662.3,399.6 L663.2,408.5 L664.0,409.0 L664.9,394.3 L665.7,387.3 L666.5,382.5 L667.4,391.0 L668.2,395.9 L669.1,396.9 L669.9,389.2 L670.7,394.3 L671.6,397.2 L672.4,382.5 L673.3,378.4 L674.1,340.1 L675.0,335.8 L675.8,338.5 L676.6,348.9 L677.5,356.2 L678.3,353.2 L679.2,356.7 L680.0,373.1" stroke="#1f77b4" stroke-width="2" fill="none" opacity="0.8"/>
<!-- Hydro Generation -->
<path d="M80.0,353.0 L80.8,353.2 L81.7,353.5 L82.5,354.3 L83.4,353.8 L84.2,354.3 L85.0,354.0 L85.9,353.8 L86.7,353.8 L87.6,353.5 L88.4,353.5 L89.3,353.8 L90.1,353.8 L90.9,354.0 L91.8,353.8 L92.6,353.8 L93.5,353.8 L94.3,353.8 L95.1,354.0 L96.0,354.0 L96.8,353.2 L97.7,353.8 L98.5,353.2 L99.4,353.2 L100.2,353.2 L101.0,352.4 L101.9,352.7 L102.7,352.7 L103.6,352.7 L104.4,352.2 L105.2,352.4 L106.1,352.2 L106.9,353.2 L107.8,354.0 L108.6,353.0 L109.5,353.0 L110.3,353.5 L111.1,354.3 L112.0,355.1 L112.8,355.6 L113.7,355.6 L114.5,355.6 L115.3,355.6 L116.2,354.6 L117.0,354.3 L117.9,354.3 L118.7,353.5 L119.6,353.2 L120.4,353.0 L121.2,352.7 L122.1,353.0 L122.9,351.9 L123.8,351.9 L124.6,351.9 L125.4,351.9 L126.3,351.9 L127.1,351.6 L128.0,351.6 L128.8,351.1 L129.6,351.1 L130.5,351.3 L131.3,351.3 L132.2,350.5 L133.0,351.1 L133.9,351.1 L134.7,350.8 L135.5,350.8 L136.4,350.8 L137.2,351.9 L138.1,352.2 L138.9,351.9 L139.7,351.6 L140.6,351.6 L141.4,351.6 L142.3,351.6 L143.1,351.6 L144.0,351.6 L144.8,351.1 L145.6,350.8 L146.5,351.1 L147.3,351.6 L148.2,353.2 L149.0,350.0 L149.8,349.7 L150.7,349.7 L151.5,349.7 L152.4,349.7 L153.2,349.7 L154.1,351.1 L154.9,350.8 L155.7,350.5 L156.6,350.8 L157.4,351.6 L158.3,352.2 L159.1,351.6 L159.9,351.9 L160.8,351.6 L161.6,351.6 L162.5,351.3 L163.3,351.1 L164.2,350.5 L165.0,349.2 L165.8,350.5 L166.7,350.3 L167.5,349.7 L168.4,349.2 L169.2,348.9 L170.0,350.0 L170.9,350.8 L171.7,350.0 L172.6,350.0 L173.4,350.8 L174.2,351.1 L175.1,350.8 L175.9,351.1 L176.8,351.1 L177.6,351.9 L178.5,351.1 L179.3,351.3 L180.1,350.5 L181.0,350.0 L181.8,350.0 L182.7,350.0 L183.5,350.5 L184.3,351.1 L185.2,350.5 L186.0,351.1 L186.9,354.3 L187.7,354.3 L188.6,355.4 L189.4,357.0 L190.2,355.4 L191.1,355.1 L191.9,355.6 L192.8,355.9 L193.6,354.6 L194.4,354.6 L195.3,355.1 L196.1,354.8 L197.0,354.3 L197.8,354.6 L198.7,354.6 L199.5,354.6 L200.3,354.8 L201.2,354.8 L202.0,354.8 L202.9,355.1 L203.7,354.8 L204.5,354.8 L205.4,355.9 L206.2,355.1 L207.1,355.6 L207.9,354.3 L208.8,354.8 L209.6,355.1 L210.4,354.8 L211.3,355.1 L212.1,355.1 L213.0,354.8 L213.8,354.8 L214.6,355.4 L215.5,355.1 L216.3,354.8 L217.2,355.1 L218.0,354.8 L218.8,354.3 L220.5,354.8 L221.4,355.1 L222.2,355.1 L223.1,354.8 L223.9,354.8 L224.7,354.8 L225.6,355.4 L226.4,354.6 L227.3,354.8 L228.1,354.8 L228.9,355.1 L229.8,354.6 L230.6,355.4 L231.5,355.1 L232.3,354.3 L233.2,355.1 L234.0,355.6 L234.8,357.5 L235.7,358.1 L236.5,355.9 L237.4,356.4 L238.2,356.4 L239.0,355.4 L239.9,354.3 L240.7,353.8 L241.6,353.0 L242.4,352.7 L243.3,352.4 L244.1,353.0 L244.9,353.2 L245.8,352.7 L246.6,352.7 L247.5,353.2 L248.3,353.8 L249.1,353.8 L250.0,353.8 L250.8,353.8 L251.7,354.6 L252.5,353.8 L253.4,353.2 L254.2,353.8 L255.0,354.6 L255.9,354.3 L256.7,354.3 L257.6,354.3 L258.4,354.3 L259.2,354.3 L260.1,353.5 L260.9,353.2 L261.8,353.8 L262.6,353.5 L263.5,353.5 L264.3,355.1 L265.1,355.9 L266.0,355.9 L266.8,355.9 L267.7,355.6 L268.5,355.9 L269.3,358.3 L270.2,357.8 L271.0,358.9 L271.9,354.8 L272.7,353.8 L273.5,354.0 L274.4,353.5 L275.2,353.8 L276.1,353.5 L276.9,354.0 L277.8,354.0 L278.6,354.6 L279.4,354.0 L280.3,354.0 L281.1,353.8 L282.0,353.2 L282.8,353.5 L283.6,354.0 L284.5,354.8 L285.3,355.9 L286.2,355.6 L287.0,358.1 L287.9,355.6 L288.7,355.4 L289.5,354.8 L290.4,355.4 L291.2,355.1 L292.1,353.5 L292.9,352.7 L293.7,353.0 L294.6,353.8 L295.4,353.2 L296.3,353.8 L297.1,354.3 L298.0,354.3 L298.8,354.6 L299.6,354.6 L300.5,354.3 L301.3,360.7 L302.2,359.9 L303.0,359.7 L303.8,360.2 L304.7,360.2 L305.5,359.1 L306.4,360.5 L307.2,359.9 L308.1,360.5 L308.9,360.2 L309.7,360.5 L310.6,360.7 L311.4,361.8 L312.3,361.5 L313.1,361.3 L313.9,362.6 L314.8,362.3 L315.6,362.6 L316.5,362.9 L317.3,362.6 L318.1,362.9 L319.0,361.3 L319.8,361.5 L320.7,361.0 L321.5,360.2 L322.4,360.5 L323.2,360.5 L324.0,360.7 L324.9,361.0 L325.7,362.6 L326.6,353.8 L327.4,353.8 L328.2,354.3 L329.1,354.3 L329.9,354.0 L330.8,354.3 L331.6,354.3 L332.5,353.5 L333.3,353.8 L334.1,355.1 L335.0,352.4 L335.8,351.6 L336.7,351.9 L337.5,351.3 L338.3,351.9 L339.2,351.6 L340.0,351.6 L340.9,351.9 L341.7,351.6 L342.6,351.9 L343.4,351.9 L344.2,351.9 L345.1,355.1 L345.9,354.6 L346.8,360.5 L347.6,361.0 L348.4,360.7 L349.3,360.2 L350.1,360.5 L351.0,358.1 L351.8,357.2 L352.7,356.7 L353.5,357.5 L354.3,357.8 L355.2,358.1 L356.0,357.8 L356.9,357.0 L357.7,357.2 L358.5,357.0 L359.4,357.5 L360.2,357.5 L361.1,357.8 L361.9,357.5 L362.7,358.9 L363.6,359.7 L364.4,359.4 L365.3,354.3 L366.1,354.8 L367.0,354.8 L367.8,354.0 L368.6,354.0 L369.5,354.3 L370.3,352.7 L371.2,352.4 L372.0,352.4 L372.8,352.4 L373.7,351.9 L374.5,351.1 L375.4,351.1 L376.2,351.1 L377.1,351.1 L377.9,350.8 L378.7,351.1 L379.6,350.5 L380.4,350.3 L381.3,350.5 L382.1,350.5 L382.9,350.5 L383.8,350.3 L384.6,350.3 L385.5,349.7 L386.3,349.7 L387.2,349.5 L388.0,349.2 L388.8,349.2 L389.7,349.2 L390.5,348.7 L391.4,348.9 L392.2,348.1 L393.0,347.9 L393.9,346.5 L394.7,346.3 L395.6,346.5 L396.4,346.3 L397.3,346.3 L398.1,345.4 L398.9,345.4 L399.8,344.6 L400.6,344.4 L401.5,345.2 L402.3,344.9 L403.1,344.4 L404.0,344.1 L404.8,344.4 L405.7,345.2 L406.5,345.4 L407.3,345.4 L408.2,345.2 L409.0,345.7 L409.9,346.8 L410.7,347.1 L411.6,347.3 L412.4,360.2 L413.2,346.8 L414.1,346.8 L414.9,347.1 L415.8,346.5 L416.6,346.5 L417.4,346.8 L418.3,346.8 L419.1,346.3 L420.0,347.6 L420.8,347.6 L421.7,347.3 L422.5,347.1 L423.3,347.1 L424.2,347.1 L425.0,347.6 L425.9,346.8 L426.7,346.3 L427.5,347.1 L428.4,347.9 L429.2,347.1 L430.1,347.3 L430.9,347.9 L431.8,347.1 L432.6,346.0 L433.4,344.9 L434.3,345.2 L435.1,345.7 L436.0,345.7 L436.8,345.7 L437.6,345.2 L438.5,345.4 L439.3,345.4 L440.2,346.5 L441.0,346.5 L441.9,346.0 L442.7,346.5 L443.5,346.5 L444.4,346.3 L445.2,346.8 L446.1,346.8 L446.9,346.5 L447.7,347.6 L448.6,347.9 L449.4,347.3 L450.3,347.3 L451.1,347.9 L451.9,347.1 L452.8,347.3 L453.6,346.0 L454.5,346.0 L455.3,346.0 L456.2,346.3 L457.0,346.3 L457.8,346.5 L458.7,346.0 L459.5,346.3 L460.4,346.3 L461.2,345.2 L462.0,345.4 L462.9,345.4 L463.7,346.0 L464.6,346.0 L465.4,345.7 L466.3,346.3 L467.1,346.5 L467.9,346.3 L468.8,346.0 L469.6,345.7 L470.5,346.0 L471.3,346.0 L472.1,345.7 L473.0,344.1 L473.8,342.8 L474.7,342.8 L475.5,343.0 L476.4,343.0 L477.2,343.3 L478.0,344.1 L478.9,343.8 L479.7,344.1 L480.6,344.1 L481.4,344.1 L482.2,345.4 L483.1,344.4 L483.9,345.7 L484.8,345.7 L485.6,345.7 L486.5,345.7 L487.3,345.7 L488.1,346.5 L489.0,346.3 L489.8,346.3 L490.7,346.5 L491.5,345.7 L492.3,345.2 L493.2,345.4 L494.0,344.1 L494.9,344.1 L495.7,344.1 L496.5,344.4 L497.4,344.1 L498.2,344.4 L499.1,344.1 L499.9,344.4 L500.8,344.4 L501.6,344.9 L502.4,345.2 L503.3,345.4 L504.1,345.4 L505.0,346.0 L505.8,345.7 L506.6,345.7 L507.5,345.7 L508.3,346.3 L509.2,346.5 L510.0,346.3 L510.9,346.0 L511.7,346.0 L512.5,346.0 L513.4,345.7 L514.2,345.7 L515.1,346.0 L515.9,346.3 L516.7,346.3 L517.6,346.3 L518.4,345.7 L519.3,344.9 L520.1,344.9 L521.0,344.1 L521.8,343.8 L522.6,344.1 L523.5,344.1 L524.3,344.1 L525.2,343.6 L526.0,343.6 L526.8,343.6 L527.7,344.6 L528.5,344.6 L529.4,343.8 L530.2,342.5 L531.1,342.5 L531.9,342.2 L532.7,342.2 L533.6,340.9 L534.4,341.2 L535.3,341.2 L536.1,341.2 L536.9,341.4 L537.8,342.2 L538.6,342.5 L539.5,342.0 L540.3,342.5 L541.2,342.2 L542.0,342.2 L542.8,341.7 L543.7,342.0 L544.5,341.7 L545.4,341.7 L546.2,340.9 L547.0,341.7 L547.9,341.4 L548.7,341.4 L549.6,341.2 L550.4,341.2 L551.2,341.7 L552.1,342.0 L552.9,342.0 L553.8,341.4 L554.6,340.6 L555.5,340.9 L556.3,340.9 L557.1,341.7 L558.0,342.0 L558.8,342.5 L559.7,342.5 L560.5,342.5 L561.3,342.2 L562.2,342.5 L563.0,342.8 L563.9,342.5 L564.7,342.5 L565.6,342.2 L566.4,342.2 L567.2,342.5 L568.1,343.0 L568.9,342.8 L569.8,343.6 L570.6,343.6 L571.4,342.8 L572.3,342.8 L573.1,343.0 L574.0,343.3 L574.8,342.8 L575.7,343.3 L576.5,343.6 L577.3,344.6 L578.2,344.6 L579.0,344.6 L579.9,345.2 L580.7,345.4 L581.5,345.4 L582.4,345.4 L583.2,345.7 L584.1,345.2 L584.9,346.0 L585.8,345.7 L586.6,345.2 L587.4,345.2 L588.3,345.2 L589.1,344.4 L590.0,344.6 L590.8,344.9 L591.6,344.6 L592.5,344.1 L593.3,342.5 L594.2,342.5 L595.0,343.0 L595.8,343.6 L596.7,343.3 L597.5,343.0 L598.4,343.0 L599.2,342.8 L600.1,342.5 L600.9,342.8 L601.7,342.8 L602.6,342.8 L603.4,342.0 L604.3,342.0 L605.1,342.0 L605.9,342.0 L606.8,341.7 L607.6,341.7 L608.5,341.7 L609.3,342.0 L610.2,341.7 L611.0,341.4 L611.8,342.0 L612.7,342.0 L613.5,341.2 L614.4,340.4 L615.2,340.6 L616.0,340.4 L616.9,339.5 L617.7,339.5 L618.6,339.5 L619.4,339.8 L620.3,339.5 L621.1,339.3 L621.9,339.5 L622.8,339.5 L623.6,340.4 L624.5,340.4 L625.3,341.4 L626.1,341.4 L627.0,342.2 L627.8,342.2 L628.7,342.0 L629.5,342.2 L630.4,342.0 L631.2,342.0 L632.0,340.9 L632.9,340.9 L633.7,350.3 L634.6,350.0 L635.4,350.5 L636.2,340.9 L637.1,340.9 L637.9,342.2 L638.8,340.4 L639.6,340.1 L640.4,339.3 L641.3,338.7 L642.1,338.5 L643.0,339.3 L643.8,339.5 L644.7,339.0 L645.5,339.3 L646.3,339.3 L647.2,339.0 L648.0,339.0 L648.9,339.0 L649.7,339.0 L650.5,339.3 L651.4,339.0 L652.2,339.3 L653.1,338.2 L653.9,338.5 L654.8,337.4 L655.6,337.7 L656.4,336.6 L657.3,337.1 L658.1,336.9 L659.0,336.9 L659.8,336.6 L660.6,336.3 L661.5,336.9 L662.3,336.9 L663.2,336.9 L664.0,337.1 L664.9,337.4 L665.7,337.9 L666.5,337.7 L667.4,337.9 L668.2,337.9 L669.1,337.9 L669.9,338.2 L670.7,338.5 L671.6,339.0 L672.4,339.0 L673.3,339.8 L674.1,339.5 L675.0,339.5 L675.8,339.5 L676.6,339.5 L677.5,340.1 L678.3,340.1 L679.2,340.4 L680.0,340.4" stroke="#ff7f0e" stroke-width="2" fill="none" opacity="0.8"/>
<!-- Thermal Generation -->
<path d="M80.0,281.6 L80.8,256.4 L81.7,243.5 L82.5,281.6 L83.4,281.9 L84.2,297.2 L85.0,329.4 L85.9,345.7 L86.7,361.8 L87.6,361.8 L88.4,361.8 L89.3,361.5 L90.1,361.5 L90.9,280.8 L91.8,251.6 L92.6,243.5 L93.5,244.9 L94.3,239.3 L95.1,246.8 L96.0,274.4 L96.8,282.2 L97.7,298.5 L98.5,292.9 L99.4,287.0 L100.2,289.1 L101.0,267.7 L101.9,263.7 L102.7,243.3 L103.6,270.6 L104.4,292.1 L105.2,281.9 L106.1,309.0 L106.9,321.8 L107.8,322.7 L108.6,321.6 L109.5,322.1 L110.3,322.4 L111.1,276.5 L112.0,277.3 L112.8,277.1 L113.7,277.1 L114.5,276.5 L115.3,276.8 L116.2,276.8 L117.0,288.3 L117.9,314.6 L118.7,319.4 L119.6,297.4 L120.4,282.7 L121.2,268.5 L122.1,257.5 L122.9,275.5 L123.8,313.5 L124.6,319.7 L125.4,322.1 L126.3,335.3 L127.1,335.5 L128.0,335.3 L128.8,334.7 L129.6,335.0 L130.5,335.5 L131.3,283.8 L132.2,246.2 L133.0,237.4 L133.9,237.1 L134.7,248.9 L135.5,251.9 L136.4,273.8 L137.2,296.4 L138.1,340.9 L138.9,361.8 L139.7,361.8 L140.6,361.3 L141.4,313.0 L142.3,239.3 L143.1,283.5 L144.0,283.5 L144.8,326.4 L145.6,326.4 L146.5,326.9 L147.3,326.9 L148.2,327.2 L149.0,326.7 L149.8,326.9 L150.7,326.1 L151.5,316.8 L152.4,290.2 L153.2,307.6 L154.1,302.8 L154.9,302.8 L155.7,315.9 L156.6,321.0 L157.4,329.4 L158.3,340.6 L159.1,348.4 L159.9,348.1 L160.8,347.9 L161.6,304.1 L162.5,283.5 L163.3,283.8 L164.2,297.4 L165.0,285.9 L165.8,328.0 L166.7,327.5 L167.5,327.2 L168.4,337.9 L169.2,337.9 L170.0,338.7 L170.9,338.2 L171.7,338.5 L172.6,338.2 L173.4,338.2 L174.2,310.9 L175.1,289.1 L175.9,305.8 L176.8,327.5 L177.6,326.7 L178.5,326.9 L179.3,326.7 L180.1,326.9 L181.0,326.7 L181.8,327.5 L182.7,291.8 L183.5,338.2 L184.3,337.7 L185.2,338.5 L186.0,362.9 L186.9,362.3 L187.7,362.3 L188.6,362.1 L189.4,362.1 L190.2,362.3 L191.1,362.3 L191.9,362.1 L192.8,329.9 L193.6,330.7 L194.4,318.9 L195.3,302.5 L196.1,308.2 L197.0,353.8 L197.8,354.0 L198.7,358.9 L199.5,359.1 L200.3,359.4 L201.2,359.1 L202.0,359.1 L202.9,362.3 L203.7,362.9 L204.5,362.3 L205.4,362.3 L206.2,362.3 L207.1,362.1 L207.9,362.3 L208.8,362.3 L209.6,362.3 L210.4,362.3 L211.3,361.8 L212.1,361.5 L213.0,361.8 L213.8,362.1 L214.6,361.8 L215.5,362.1 L216.3,362.1 L217.2,362.1 L218.0,361.5 L218.8,347.1 L220.5,361.8 L221.4,361.8 L222.2,362.1 L223.1,362.1 L223.9,362.3 L224.7,362.1 L225.6,362.1 L226.4,362.1 L227.3,362.1 L228.1,363.1 L228.9,363.1 L229.8,363.4 L230.6,363.4 L231.5,363.1 L232.3,362.6 L233.2,362.3 L234.0,359.7 L234.8,353.5 L235.7,356.2 L236.5,362.1 L237.4,362.3 L238.2,362.1 L239.0,362.1 L239.9,356.7 L240.7,351.9 L241.6,341.2 L242.4,292.1 L243.3,257.0 L244.1,236.8 L244.9,245.7 L245.8,264.7 L246.6,265.5 L247.5,265.5 L248.3,282.2 L249.1,291.5 L250.0,291.3 L250.8,312.7 L251.7,312.7 L252.5,312.5 L253.4,303.6 L254.2,277.9 L255.0,246.2 L255.9,267.4 L256.7,276.5 L257.6,280.5 L258.4,281.6 L259.2,311.1 L260.1,311.4 L260.9,311.1 L261.8,311.1 L262.6,294.8 L263.5,275.2 L264.3,256.1 L265.1,267.1 L266.0,282.4 L266.8,307.4 L267.7,353.8 L268.5,362.1 L269.3,361.8 L270.2,361.5 L271.0,361.5 L271.9,361.5 L272.7,361.0 L273.5,306.0 L274.4,298.0 L275.2,298.0 L276.1,298.0 L276.9,298.2 L277.8,298.0 L278.6,297.4 L279.4,308.2 L280.3,308.4 L281.1,324.5 L282.0,325.1 L282.8,324.3 L283.6,307.4 L284.5,253.2 L285.3,255.1 L286.2,310.3 L287.0,359.7 L287.9,360.5 L288.7,366.1 L289.5,370.1 L290.4,370.1 L291.2,378.7 L292.1,378.7 L292.9,378.7 L293.7,362.1 L294.6,319.7 L295.4,289.1 L296.3,288.3 L297.1,351.6 L298.0,362.3 L298.8,362.1 L299.6,362.3 L300.5,362.1 L301.3,362.3 L302.2,362.3 L303.0,362.3 L303.8,340.4 L304.7,270.1 L305.5,273.3 L306.4,346.8 L307.2,362.3 L308.1,361.8 L308.9,376.3 L309.7,378.4 L310.6,373.3 L311.4,362.9 L312.3,361.8 L313.1,361.8 L313.9,327.2 L314.8,265.3 L315.6,290.7 L316.5,306.3 L317.3,265.3 L318.1,283.8 L319.0,300.1 L319.8,310.6 L320.7,310.9 L321.5,310.3 L322.4,311.1 L323.2,282.7 L324.0,238.2 L324.9,238.7 L325.7,263.7 L326.6,272.2 L327.4,283.8 L328.2,282.2 L329.1,282.2 L329.9,317.8 L330.8,318.4 L331.6,292.1 L332.5,292.3 L333.3,254.5 L334.1,238.4 L335.0,238.2 L335.8,241.1 L336.7,250.2 L337.5,268.2 L338.3,260.7 L339.2,284.0 L340.0,283.8 L340.9,283.5 L341.7,284.0 L342.6,283.2 L343.4,283.0 L344.2,283.5 L345.1,283.8 L345.9,283.8 L346.8,310.9 L347.6,311.1 L348.4,311.1 L349.3,326.4 L350.1,353.8 L351.0,362.1 L351.8,362.3 L352.7,361.8 L353.5,361.8 L354.3,361.8 L355.2,361.5 L356.0,362.1 L356.9,376.6 L357.7,358.3 L358.5,339.5 L359.4,345.7 L360.2,334.2 L361.1,334.5 L361.9,334.5 L362.7,333.9 L363.6,299.3 L364.4,292.1 L365.3,284.0 L366.1,300.9 L367.0,310.9 L367.8,311.1 L368.6,321.6 L369.5,335.0 L370.3,335.3 L371.2,354.3 L372.0,354.6 L372.8,354.3 L373.7,354.3 L374.5,280.5 L375.4,257.5 L376.2,249.2 L377.1,249.4 L377.9,251.3 L378.7,237.6 L379.6,237.6 L380.4,237.9 L381.3,246.2 L382.1,270.9 L382.9,278.1 L383.8,276.5 L384.6,284.0 L385.5,259.9 L386.3,263.7 L387.2,268.5 L388.0,301.2 L388.8,308.4 L389.7,335.3 L390.5,357.0 L391.4,357.2 L392.2,357.0 L393.0,357.2 L393.9,344.6 L394.7,298.0 L395.6,252.4 L396.4,278.1 L397.3,297.7 L398.1,318.9 L398.9,362.3 L399.8,362.1 L400.6,353.8 L401.5,354.3 L402.3,354.0 L403.1,354.0 L404.0,354.3 L404.8,354.3 L405.7,321.8 L406.5,314.9 L407.3,331.2 L408.2,344.4 L409.0,360.5 L409.9,360.2 L410.7,352.7 L411.6,360.2 L412.4,360.7 L413.2,352.7 L414.1,342.2 L414.9,333.1 L415.8,280.8 L416.6,280.3 L417.4,279.2 L418.3,304.1 L419.1,321.8 L420.0,359.7 L420.8,359.7 L421.7,362.3 L422.5,362.1 L423.3,361.8 L424.2,361.8 L425.0,289.7 L425.9,278.4 L426.7,317.8 L427.5,327.7 L428.4,340.6 L429.2,351.6 L430.1,349.5 L430.9,360.5 L431.8,360.2 L432.6,360.5 L433.4,360.5 L434.3,360.2 L435.1,284.3 L436.0,294.8 L436.8,318.6 L437.6,327.2 L438.5,359.9 L439.3,359.7 L440.2,359.7 L441.0,359.4 L441.9,359.1 L442.7,359.4 L443.5,359.7 L444.4,359.9 L445.2,359.7 L446.1,358.6 L446.9,359.9 L447.7,359.9 L448.6,360.2 L449.4,359.7 L450.3,364.0 L451.1,364.0 L451.9,363.7 L452.8,363.1 L453.6,364.0 L454.5,363.4 L455.3,362.9 L456.2,325.3 L457.0,363.4 L457.8,362.3 L458.7,361.8 L459.5,362.3 L460.4,362.1 L461.2,361.8 L462.0,372.8 L462.9,372.8 L463.7,373.1 L464.6,362.3 L465.4,362.3 L466.3,351.1 L467.1,351.3 L467.9,361.8 L468.8,361.8 L469.6,362.6 L470.5,363.7 L471.3,364.0 L472.1,364.8 L473.0,365.3 L473.8,365.3 L474.7,365.6 L475.5,355.1 L476.4,314.3 L477.2,355.4 L478.0,362.9 L478.9,359.7 L479.7,361.8 L480.6,361.5 L481.4,361.5 L482.2,361.8 L483.1,362.1 L483.9,361.5 L484.8,362.1 L485.6,340.4 L486.5,335.0 L487.3,322.1 L488.1,350.8 L489.0,361.5 L489.8,362.1 L490.7,361.8 L491.5,361.8 L492.3,362.1 L493.2,362.1 L494.0,361.8 L494.9,361.8 L495.7,361.8 L496.5,361.5 L497.4,361.8 L498.2,362.1 L499.1,361.8 L499.9,362.1 L500.8,361.5 L501.6,361.3 L502.4,361.8 L503.3,362.1 L504.1,362.3 L505.0,362.1 L505.8,345.4 L506.6,346.0 L507.5,355.9 L508.3,362.3 L509.2,361.5 L510.0,362.1 L510.9,361.8 L511.7,362.3 L512.5,377.6 L513.4,378.2 L514.2,377.6 L515.1,361.5 L515.9,320.0 L516.7,265.8 L517.6,265.3 L518.4,265.5 L519.3,292.6 L520.1,320.0 L521.0,318.1 L521.8,344.4 L522.6,358.9 L523.5,319.2 L524.3,316.8 L525.2,298.5 L526.0,242.2 L526.8,242.5 L527.7,275.5 L528.5,286.2 L529.4,306.0 L530.2,326.4 L531.1,327.5 L531.9,340.4 L532.7,340.4 L533.6,339.0 L534.4,362.3 L535.3,362.3 L536.1,298.0 L536.9,257.0 L537.8,254.8 L538.6,283.8 L539.5,315.4 L540.3,270.1 L541.2,315.7 L542.0,351.3 L542.8,351.1 L543.7,350.0 L544.5,350.8 L545.4,340.4 L546.2,308.4 L547.0,293.2 L547.9,293.4 L548.7,319.2 L549.6,340.6 L550.4,362.6 L551.2,362.6 L552.1,362.6 L552.9,362.9 L553.8,350.5 L554.6,372.0 L555.5,362.1 L556.3,330.2 L557.1,316.5 L558.0,330.4 L558.8,351.3 L559.7,354.0 L560.5,355.6 L561.3,361.5 L562.2,361.8 L563.0,362.1 L563.9,362.1 L564.7,361.8 L565.6,346.0 L566.4,314.6 L567.2,328.3 L568.1,330.7 L568.9,362.9 L569.8,363.1 L570.6,362.9 L571.4,362.1 L572.3,362.9 L573.1,361.8 L574.0,362.3 L574.8,348.7 L575.7,368.5 L576.5,365.8 L577.3,337.7 L578.2,326.9 L579.0,341.2 L579.9,362.3 L580.7,362.3 L581.5,362.6 L582.4,361.0 L583.2,362.3 L584.1,362.1 L584.9,351.6 L585.8,319.4 L586.6,258.3 L587.4,263.9 L588.3,268.2 L589.1,280.5 L590.0,314.6 L590.8,324.5 L591.6,346.0 L592.5,362.9 L593.3,362.9 L594.2,362.6 L595.0,362.6 L595.8,362.3 L596.7,362.1 L597.5,316.8 L598.4,339.8 L599.2,296.4 L600.1,284.6 L600.9,273.6 L601.7,280.3 L602.6,329.9 L603.4,273.6 L604.3,273.6 L605.1,270.4 L605.9,267.7 L606.8,245.2 L607.6,242.7 L608.5,276.0 L609.3,294.5 L610.2,318.9 L611.0,330.2 L611.8,362.3 L612.7,361.8 L613.5,361.8 L614.4,362.3 L615.2,362.1 L616.0,362.1 L616.9,319.7 L617.7,310.0 L618.6,315.4 L619.4,322.9 L620.3,316.5 L621.1,332.6 L621.9,361.5 L622.8,362.1 L623.6,362.1 L624.5,362.1 L625.3,362.3 L626.1,362.3 L627.0,361.8 L627.8,361.5 L628.7,377.4 L629.5,379.0 L630.4,378.4 L631.2,378.2 L632.0,378.4 L632.9,375.8 L633.7,362.6 L634.6,362.3 L635.4,362.6 L636.2,362.3 L637.1,362.3 L637.9,362.1 L638.8,330.2 L639.6,322.4 L640.4,351.6 L641.3,362.3 L642.1,362.1 L643.0,362.1 L643.8,362.3 L644.7,362.6 L645.5,362.3 L646.3,362.3 L647.2,362.3 L648.0,362.3 L648.9,362.9 L649.7,370.4 L650.5,370.7 L651.4,361.8 L652.2,362.1 L653.1,361.8 L653.9,361.5 L654.8,362.1 L655.6,361.8 L656.4,361.8 L657.3,362.3 L658.1,362.1 L659.0,362.3 L659.8,362.1 L660.6,362.1 L661.5,362.6 L662.3,362.6 L663.2,362.3 L664.0,362.3 L664.9,362.3 L665.7,345.7 L666.5,344.9 L667.4,307.9 L668.2,245.2 L669.1,288.1 L669.9,280.5 L670.7,296.4 L671.6,296.1 L672.4,287.3 L673.3,288.6 L674.1,325.6 L675.0,362.6 L675.8,362.1 L676.6,361.8 L677.5,341.4 L678.3,277.6 L679.2,253.2 L680.0,249.7" stroke="#2ca02c" stroke-width="2" fill="none" opacity="0.8"/>
<!-- Solar Generation -->
<path d="M80.0,420.0 L80.8,420.0 L81.7,420.0 L82.5,416.5 L83.4,398.5 L84.2,398.8 L85.0,400.4 L85.9,401.2 L86.7,396.1 L87.6,399.4 L88.4,401.0 L89.3,407.4 L90.1,413.8 L90.9,419.2 L91.8,420.0 L92.6,420.0 L93.5,420.0 L94.3,420.0 L95.1,420.0 L96.0,420.0 L96.8,420.0 L97.7,420.0 L98.5,420.0 L99.4,420.0 L100.2,420.0 L101.0,420.0 L101.9,420.0 L102.7,417.3 L103.6,407.1 L104.4,403.6 L105.2,401.0 L106.1,397.5 L106.9,399.6 L107.8,395.1 L108.6,406.1 L109.5,406.1 L110.3,408.5 L111.1,418.1 L112.0,420.0 L112.8,420.0 L113.7,420.0 L114.5,420.0 L115.3,420.0 L116.2,420.0 L117.0,420.0 L117.9,420.0 L118.7,420.0 L119.6,420.0 L120.4,420.0 L121.2,420.0 L122.1,420.0 L122.9,410.1 L123.8,387.8 L124.6,384.3 L125.4,385.9 L126.3,387.0 L127.1,388.4 L128.0,391.8 L128.8,390.2 L129.6,393.2 L130.5,401.5 L131.3,417.3 L132.2,420.0 L133.0,420.0 L133.9,420.0 L134.7,420.0 L135.5,420.0 L136.4,420.0 L137.2,420.0 L138.1,420.0 L138.9,420.0 L139.7,420.0 L140.6,420.0 L141.4,420.0 L142.3,420.0 L143.1,417.6 L144.0,412.5 L144.8,410.6 L145.6,404.2 L146.5,404.7 L147.3,410.9 L148.2,410.1 L149.0,413.0 L149.8,413.3 L150.7,416.8 L151.5,417.9 L152.4,420.0 L153.2,420.0 L154.1,420.0 L154.9,420.0 L155.7,420.0 L156.6,420.0 L157.4,420.0 L158.3,420.0 L159.1,420.0 L159.9,420.0 L160.8,420.0 L161.6,420.0 L162.5,420.0 L163.3,418.4 L164.2,415.4 L165.0,417.1 L165.8,415.7 L166.7,411.7 L167.5,409.5 L168.4,413.8 L169.2,407.9 L170.0,416.8 L170.9,416.8 L171.7,418.4 L172.6,420.0 L173.4,420.0 L174.2,420.0 L175.1,420.0 L175.9,420.0 L176.8,420.0 L177.6,420.0 L178.5,420.0 L179.3,420.0 L180.1,420.0 L181.0,420.0 L181.8,420.0 L182.7,420.0 L183.5,411.2 L184.3,401.2 L185.2,405.8 L186.0,403.1 L186.9,403.6 L187.7,406.3 L188.6,411.2 L189.4,407.9 L190.2,412.2 L191.1,411.4 L191.9,415.4 L192.8,420.0 L193.6,420.0 L194.4,420.0 L195.3,420.0 L196.1,420.0 L197.0,420.0 L197.8,420.0 L198.7,420.0 L199.5,420.0 L200.3,420.0 L201.2,420.0 L202.0,420.0 L202.9,420.0 L203.7,411.2 L204.5,414.6 L205.4,409.3 L206.2,413.6 L207.1,412.0 L207.9,408.5 L208.8,404.4 L209.6,406.9 L210.4,410.3 L211.3,412.0 L212.1,418.4 L213.0,420.0 L213.8,420.0 L214.6,420.0 L215.5,420.0 L216.3,420.0 L217.2,420.0 L218.0,420.0 L218.8,420.0 L220.5,420.0 L221.4,420.0 L222.2,420.0 L223.1,420.0 L223.9,420.0 L224.7,410.6 L225.6,412.8 L226.4,407.1 L227.3,404.4 L228.1,406.1 L228.9,410.6 L229.8,407.7 L230.6,407.7 L231.5,414.4 L232.3,412.2 L233.2,418.4 L234.0,419.7 L234.8,420.0 L235.7,420.0 L236.5,420.0 L237.4,420.0 L238.2,420.0 L239.0,420.0 L239.9,420.0 L240.7,420.0 L241.6,420.0 L242.4,420.0 L243.3,420.0 L244.1,419.7 L244.9,415.2 L245.8,416.8 L246.6,416.5 L247.5,404.7 L248.3,413.8 L249.1,411.2 L250.0,413.3 L250.8,413.3 L251.7,416.0 L252.5,415.2 L253.4,418.4 L254.2,420.0 L255.0,420.0 L255.9,420.0 L256.7,420.0 L257.6,420.0 L258.4,420.0 L259.2,420.0 L260.1,420.0 L260.9,420.0 L261.8,420.0 L262.6,420.0 L263.5,420.0 L264.3,420.0 L265.1,415.4 L266.0,397.5 L266.8,403.4 L267.7,406.9 L268.5,407.9 L269.3,408.7 L270.2,411.7 L271.0,411.2 L271.9,406.1 L272.7,405.8 L273.5,415.4 L274.4,420.0 L275.2,420.0 L276.1,420.0 L276.9,420.0 L277.8,420.0 L278.6,420.0 L279.4,420.0 L280.3,420.0 L281.1,420.0 L282.0,420.0 L282.8,420.0 L283.6,420.0 L284.5,419.7 L285.3,405.3 L286.2,405.3 L287.0,403.4 L287.9,399.9 L288.7,385.1 L289.5,387.6 L290.4,403.1 L291.2,407.7 L292.1,412.0 L292.9,412.2 L293.7,418.9 L294.6,420.0 L295.4,420.0 L296.3,420.0 L297.1,420.0 L298.0,420.0 L298.8,420.0 L299.6,420.0 L300.5,420.0 L301.3,420.0 L302.2,420.0 L303.0,420.0 L303.8,420.0 L304.7,420.0 L305.5,417.3 L306.4,416.8 L307.2,415.7 L308.1,412.8 L308.9,415.4 L309.7,413.0 L310.6,414.1 L311.4,413.8 L312.3,416.0 L313.1,407.9 L313.9,418.4 L314.8,420.0 L315.6,420.0 L316.5,420.0 L317.3,420.0 L318.1,420.0 L319.0,420.0 L319.8,420.0 L320.7,420.0 L321.5,420.0 L322.4,420.0 L323.2,420.0 L324.0,420.0 L324.9,420.0 L325.7,418.1 L326.6,417.3 L327.4,404.2 L328.2,402.6 L329.1,396.9 L329.9,391.3 L330.8,400.7 L331.6,405.3 L332.5,410.6 L333.3,414.6 L334.1,418.7 L335.0,420.0 L335.8,420.0 L336.7,420.0 L337.5,420.0 L338.3,420.0 L339.2,420.0 L340.0,420.0 L340.9,420.0 L341.7,420.0 L342.6,420.0 L343.4,420.0 L344.2,420.0 L345.1,420.0 L345.9,418.1 L346.8,417.6 L347.6,415.7 L348.4,414.6 L349.3,411.7 L350.1,407.9 L351.0,409.0 L351.8,412.2 L352.7,412.2 L353.5,416.0 L354.3,412.5 L355.2,420.0 L356.0,420.0 L356.9,420.0 L357.7,420.0 L358.5,420.0 L359.4,420.0 L360.2,420.0 L361.1,420.0 L361.9,420.0 L362.7,420.0 L363.6,420.0 L364.4,420.0 L365.3,419.7 L366.1,414.1 L367.0,407.4 L367.8,412.0 L368.6,410.9 L369.5,406.9 L370.3,403.1 L371.2,401.8 L372.0,401.8 L372.8,401.8 L373.7,398.3 L374.5,416.2 L375.4,420.0 L376.2,420.0 L377.1,420.0 L377.9,420.0 L378.7,420.0 L379.6,420.0 L380.4,420.0 L381.3,420.0 L382.1,420.0 L382.9,420.0 L383.8,420.0 L384.6,420.0 L385.5,419.5 L386.3,415.2 L387.2,407.9 L388.0,405.3 L388.8,390.8 L389.7,396.9 L390.5,395.9 L391.4,402.3 L392.2,410.9 L393.0,413.8 L393.9,412.2 L394.7,416.5 L395.6,420.0 L396.4,420.0 L397.3,420.0 L398.1,420.0 L398.9,420.0 L399.8,420.0 L400.6,420.0 L401.5,420.0 L402.3,420.0 L403.1,420.0 L404.0,420.0 L404.8,420.0 L405.7,419.7 L406.5,415.2 L407.3,412.0 L408.2,398.0 L409.0,407.1 L409.9,405.5 L410.7,411.2 L411.6,409.3 L412.4,408.7 L413.2,415.7 L414.1,416.5 L414.9,417.1 L415.8,420.0 L416.6,420.0 L417.4,420.0 L418.3,420.0 L419.1,420.0 L420.0,420.0 L420.8,420.0 L421.7,420.0 L422.5,420.0 L423.3,420.0 L424.2,420.0 L425.0,420.0 L425.9,419.7 L426.7,413.6 L427.5,413.6 L428.4,392.6 L429.2,393.5 L430.1,389.2 L430.9,391.6 L431.8,392.9 L432.6,392.9 L433.4,396.4 L434.3,409.5 L435.1,415.4 L436.0,420.0 L436.8,420.0 L437.6,420.0 L438.5,420.0 L439.3,420.0 L440.2,420.0 L441.0,420.0 L441.9,420.0 L442.7,420.0 L443.5,420.0 L444.4,420.0 L445.2,420.0 L446.1,418.4 L446.9,405.8 L447.7,413.8 L448.6,403.6 L449.4,384.1 L450.3,387.0 L451.1,391.3 L451.9,393.5 L452.8,394.3 L453.6,394.5 L454.5,415.2 L455.3,412.5 L456.2,420.0 L457.0,420.0 L457.8,420.0 L458.7,420.0 L459.5,420.0 L460.4,420.0 L461.2,420.0 L462.0,420.0 L462.9,420.0 L463.7,420.0 L464.6,420.0 L465.4,420.0 L466.3,418.4 L467.1,400.7 L467.9,403.6 L468.8,385.9 L469.6,385.4 L470.5,384.6 L471.3,386.5 L472.1,395.1 L473.0,389.4 L473.8,390.5 L474.7,396.1 L475.5,415.4 L476.4,420.0 L477.2,420.0 L478.0,420.0 L478.9,420.0 L479.7,420.0 L480.6,420.0 L481.4,420.0 L482.2,420.0 L483.1,420.0 L483.9,420.0 L484.8,420.0 L485.6,420.0 L486.5,418.1 L487.3,413.6 L488.1,402.6 L489.0,398.5 L489.8,409.8 L490.7,390.5 L491.5,399.6 L492.3,396.7 L493.2,407.7 L494.0,406.1 L494.9,396.1 L495.7,416.5 L496.5,420.0 L497.4,420.0 L498.2,420.0 L499.1,420.0 L499.9,420.0 L500.8,420.0 L501.6,420.0 L502.4,420.0 L503.3,420.0 L504.1,420.0 L505.0,420.0 L505.8,420.0 L506.6,418.7 L507.5,397.7 L508.3,381.7 L509.2,381.1 L510.0,381.7 L510.9,382.5 L511.7,382.5 L512.5,381.9 L513.4,381.4 L514.2,384.9 L515.1,399.6 L515.9,416.0 L516.7,420.0 L517.6,420.0 L518.4,420.0 L519.3,420.0 L520.1,420.0 L521.0,420.0 L521.8,420.0 L522.6,420.0 L523.5,420.0 L524.3,420.0 L525.2,420.0 L526.0,420.0 L526.8,418.7 L527.7,402.6 L528.5,384.3 L529.4,384.9 L530.2,385.9 L531.1,394.3 L531.9,387.0 L532.7,396.4 L533.6,396.4 L534.4,404.2 L535.3,400.4 L536.1,414.9 L536.9,420.0 L537.8,420.0 L538.6,420.0 L539.5,420.0 L540.3,420.0 L541.2,420.0 L542.0,420.0 L542.8,420.0 L543.7,420.0 L544.5,420.0 L545.4,420.0 L546.2,420.0 L547.0,419.7 L547.9,417.9 L548.7,412.5 L549.6,389.2 L550.4,384.6 L551.2,402.3 L552.1,392.9 L552.9,401.5 L553.8,403.4 L554.6,413.0 L555.5,413.6 L556.3,416.8 L557.1,420.0 L558.0,420.0 L558.8,420.0 L559.7,420.0 L560.5,420.0 L561.3,420.0 L562.2,420.0 L563.0,420.0 L563.9,420.0 L564.7,420.0 L565.6,420.0 L566.4,420.0 L567.2,419.5 L568.1,406.3 L568.9,414.1 L569.8,414.1 L570.6,411.7 L571.4,409.0 L572.3,411.4 L573.1,412.0 L574.0,403.4 L574.8,414.6 L575.7,417.1 L576.5,417.1 L577.3,420.0 L578.2,420.0 L579.0,420.0 L579.9,420.0 L580.7,420.0 L581.5,420.0 L582.4,420.0 L583.2,420.0 L584.1,420.0 L584.9,420.0 L585.8,420.0 L586.6,420.0 L587.4,418.9 L588.3,415.2 L589.1,408.7 L590.0,409.8 L590.8,405.0 L591.6,406.9 L592.5,405.8 L593.3,404.4 L594.2,408.2 L595.0,402.3 L595.8,400.7 L596.7,406.1 L597.5,419.7 L598.4,420.0 L599.2,420.0 L600.1,420.0 L600.9,420.0 L601.7,420.0 L602.6,420.0 L603.4,420.0 L604.3,420.0 L605.1,420.0 L605.9,420.0 L606.8,420.0 L607.6,415.2 L608.5,391.3 L609.3,381.7 L610.2,401.8 L611.0,381.1 L611.8,402.0 L612.7,381.9 L613.5,401.8 L614.4,401.8 L615.2,402.0 L616.0,404.7 L616.9,406.6 L617.7,420.0 L618.6,420.0 L619.4,420.0 L620.3,420.0 L621.1,420.0 L621.9,420.0 L622.8,420.0 L623.6,420.0 L624.5,420.0 L625.3,420.0 L626.1,420.0 L627.0,420.0 L627.8,418.1 L628.7,415.7 L629.5,414.4 L630.4,412.5 L631.2,406.1 L632.0,402.3 L632.9,407.1 L633.7,402.3 L634.6,409.0 L635.4,412.0 L636.2,415.7 L637.1,417.9 L637.9,420.0 L638.8,420.0 L639.6,420.0 L640.4,420.0 L641.3,420.0 L642.1,420.0 L643.0,420.0 L643.8,420.0 L644.7,420.0 L645.5,420.0 L646.3,420.0 L647.2,420.0 L648.0,414.9 L648.9,405.3 L649.7,402.6 L650.5,402.3 L651.4,403.4 L652.2,403.1 L653.1,403.4 L653.9,405.0 L654.8,402.3 L655.6,402.8 L656.4,416.8 L657.3,418.1 L658.1,420.0 L659.0,420.0 L659.8,420.0 L660.6,420.0 L661.5,420.0 L662.3,420.0 L663.2,420.0 L664.0,420.0 L664.9,420.0 L665.7,420.0 L666.5,420.0 L667.4,420.0 L668.2,417.3 L669.1,396.9 L669.9,408.2 L670.7,393.7 L671.6,387.3 L672.4,390.0 L673.3,384.6 L674.1,403.4 L675.0,403.1 L675.8,410.9 L676.6,414.6 L677.5,418.7 L678.3,420.0 L679.2,420.0 L680.0,420.0" stroke="#d62728" stroke-width="2" fill="none" opacity="0.8"/>
<!-- Forecast -->
<path d="M80.0,248.9 L80.8,244.6 L81.7,235.8 L82.5,222.4 L83.4,208.7 L84.2,199.0 L85.0,192.1 L85.9,189.4 L86.7,195.5 L87.6,199.8 L88.4,206.3 L89.3,205.2 L90.1,204.9 L90.9,188.0 L91.8,178.9 L92.6,182.7 L93.5,192.3 L94.3,198.0 L95.1,213.0 L96.0,228.5 L96.8,238.2 L97.7,244.6 L98.5,248.1 L99.4,249.4 L100.2,246.5 L101.0,234.2 L101.9,209.5 L102.7,182.7 L103.6,169.0 L104.4,169.0 L105.2,172.2 L106.1,176.2 L106.9,180.0 L107.8,183.7 L108.6,187.8 L109.5,189.6 L110.3,184.8 L111.1,172.5 L112.0,165.2 L112.8,165.5 L113.7,175.4 L114.5,191.2 L115.3,208.7 L116.2,227.2 L117.0,239.3 L117.9,244.6 L118.7,247.6 L119.6,249.4 L120.4,245.7 L121.2,233.1 L122.1,208.9 L122.9,182.1 L123.8,167.9 L124.6,167.1 L125.4,170.1 L126.3,174.1 L127.1,177.6 L128.0,181.6 L128.8,185.6 L129.6,188.0 L130.5,183.7 L131.3,171.9 L132.2,164.7 L133.0,164.2 L133.9,175.4 L134.7,190.7 L135.5,208.7 L136.4,213.0 L137.2,239.8 L138.1,247.0 L138.9,250.8 L139.7,252.1 L140.6,249.7 L141.4,237.1 L142.3,212.2 L143.1,185.9 L144.0,170.9 L144.8,169.3 L145.6,171.9 L146.5,174.9 L147.3,178.1 L148.2,181.6 L149.0,185.6 L149.8,187.2 L150.7,182.1 L151.5,170.6 L152.4,164.4 L153.2,164.2 L154.1,175.7 L154.9,189.9 L155.7,208.9 L156.6,226.1 L157.4,239.5 L158.3,247.6 L159.1,251.3 L159.9,252.9 L160.8,250.2 L161.6,237.4 L162.5,213.5 L163.3,185.3 L164.2,169.0 L165.0,166.6 L165.8,168.7 L166.7,171.9 L167.5,176.2 L168.4,179.4 L169.2,182.7 L170.0,183.7 L170.9,178.4 L171.7,165.5 L172.6,159.9 L173.4,161.5 L174.2,171.4 L175.1,187.5 L175.9,206.0 L176.8,223.4 L177.6,236.6 L178.5,244.3 L179.3,247.8 L180.1,249.4 L181.0,246.2 L181.8,233.4 L182.7,208.1 L183.5,180.5 L184.3,165.8 L185.2,165.0 L186.0,167.9 L186.9,171.4 L187.7,176.2 L188.6,179.7 L189.4,182.7 L190.2,184.0 L191.1,178.6 L191.9,165.5 L192.8,159.1 L193.6,160.9 L194.4,169.8 L195.3,184.5 L196.1,203.6 L197.0,237.6 L197.8,239.0 L198.7,241.9 L199.5,246.8 L200.3,250.2 L201.2,249.4 L202.0,246.5 L202.9,235.5 L203.7,221.8 L204.5,207.6 L205.4,202.5 L206.2,198.0 L207.1,199.8 L207.9,202.0 L208.8,208.4 L209.6,211.9 L210.4,213.5 L211.3,212.4 L212.1,203.6 L213.0,196.1 L213.8,192.9 L214.6,198.2 L215.5,208.7 L216.3,226.6 L217.2,239.3 L218.0,250.0 L218.8,252.7 L220.5,249.4 L221.4,244.9 L222.2,237.6 L223.1,231.7 L223.9,221.3 L224.7,210.8 L225.6,199.3 L226.4,167.4 L227.3,166.3 L228.1,184.8 L228.9,208.1 L229.8,209.8 L230.6,214.8 L231.5,185.9 L232.3,190.4 L233.2,167.9 L234.0,164.2 L234.8,199.8 L235.7,216.7 L236.5,230.7 L237.4,231.7 L238.2,243.0 L239.0,250.5 L239.9,255.1 L240.7,255.9 L241.6,253.7 L242.4,240.3 L243.3,215.7 L244.1,188.3 L244.9,171.7 L245.8,169.3 L246.6,171.1 L247.5,174.4 L248.3,178.4 L249.1,182.1 L250.0,185.1 L250.8,187.0 L251.7,182.4 L252.5,171.4 L253.4,165.2 L254.2,165.0 L255.0,175.2 L255.9,191.0 L256.7,208.4 L257.6,222.9 L258.4,236.8 L259.2,243.3 L260.1,246.8 L260.9,247.6 L261.8,244.3 L262.6,231.2 L263.5,204.9 L264.3,176.8 L265.1,162.6 L266.0,162.3 L266.8,166.0 L267.7,169.5 L268.5,175.2 L269.3,178.9 L270.2,181.3 L271.0,182.1 L271.9,176.8 L272.7,164.4 L273.5,158.8 L274.4,160.9 L275.2,168.7 L276.1,181.9 L276.9,201.7 L277.8,243.5 L278.6,251.3 L279.4,250.8 L280.3,254.0 L281.1,255.1 L282.0,254.0 L282.8,243.0 L283.6,218.9 L284.5,189.9 L285.3,176.2 L286.2,173.8 L287.0,177.8 L287.9,181.9 L288.7,187.0 L289.5,191.2 L290.4,195.3 L291.2,196.6 L292.1,196.1 L292.9,196.9 L293.7,200.4 L294.6,200.9 L295.4,199.6 L296.3,207.3 L297.1,227.7 L298.0,247.6 L298.8,262.6 L299.6,272.5 L300.5,278.1 L301.3,281.6 L302.2,281.1 L303.0,272.0 L303.8,248.6 L304.7,217.5 L305.5,195.8 L306.4,190.2 L307.2,188.6 L308.1,190.7 L308.9,193.4 L309.7,196.1 L310.6,198.8 L311.4,199.0 L312.3,198.0 L313.1,198.2 L313.9,201.2 L314.8,200.9 L315.6,200.1 L316.5,207.1 L317.3,226.1 L318.1,244.6 L319.0,259.9 L319.8,267.1 L320.7,270.6 L321.5,272.8 L322.4,271.2 L323.2,260.2 L324.0,234.7 L324.9,205.2 L325.7,186.4 L326.6,180.8 L327.4,181.6 L328.2,183.7 L329.1,187.8 L329.9,191.2 L330.8,194.2 L331.6,195.5 L332.5,195.3 L333.3,194.7 L334.1,195.5 L335.0,195.3 L335.8,193.9 L336.7,202.8 L337.5,222.6 L338.3,231.5 L339.2,251.9 L340.0,262.3 L340.9,266.6 L341.7,269.3 L342.6,271.2 L343.4,268.2 L344.2,257.0 L345.1,239.5 L345.9,217.5 L346.8,207.3 L347.6,203.0 L348.4,206.5 L349.3,208.7 L350.1,215.4 L351.0,217.3 L351.8,214.3 L352.7,210.6 L353.5,206.8 L354.3,202.5 L355.2,196.9 L356.0,199.3 L356.9,206.5 L357.7,216.5 L358.5,235.0 L359.4,240.9 L360.2,239.8 L361.1,241.4 L361.9,243.5 L362.7,241.9 L363.6,238.7 L364.4,232.8 L365.3,218.9 L366.1,210.0 L367.0,202.0 L367.8,193.4 L368.6,188.6 L369.5,191.2 L370.3,197.1 L371.2,198.8 L372.0,200.6 L372.8,199.6 L373.7,194.2 L374.5,191.8 L375.4,189.9 L376.2,190.4 L377.1,198.5 L377.9,213.5 L378.7,249.4 L379.6,252.4 L380.4,254.3 L381.3,259.9 L382.1,262.3 L382.9,261.8 L383.8,252.1 L384.6,228.3 L385.5,200.4 L386.3,184.0 L387.2,180.3 L388.0,182.4 L388.8,185.6 L389.7,189.9 L390.5,194.5 L391.4,198.5 L392.2,199.8 L393.0,200.4 L393.9,200.9 L394.7,204.7 L395.6,205.7 L396.4,206.3 L397.3,212.7 L398.1,232.3 L398.9,256.4 L399.8,269.0 L400.6,277.1 L401.5,282.4 L402.3,285.4 L403.1,284.3 L404.0,274.9 L404.8,251.9 L405.7,222.9 L406.5,202.0 L407.3,197.4 L408.2,195.8 L409.0,198.5 L409.9,200.6 L410.7,203.0 L411.6,204.9 L412.4,206.0 L413.2,206.3 L414.1,205.7 L414.9,210.0 L415.8,214.3 L416.6,215.7 L417.4,220.2 L418.3,236.3 L419.1,257.8 L420.0,272.5 L420.8,279.5 L421.7,285.1 L422.5,287.0 L423.3,285.6 L424.2,275.2 L425.0,252.4 L425.9,224.2 L426.7,203.9 L427.5,199.6 L428.4,198.0 L429.2,200.4 L430.1,202.0 L430.9,203.9 L431.8,205.5 L432.6,205.5 L433.4,206.3 L434.3,206.0 L435.1,210.0 L436.0,214.8 L436.8,216.5 L437.6,221.8 L438.5,237.6 L439.3,258.0 L440.2,272.2 L441.0,279.5 L441.9,285.1 L442.7,287.0 L443.5,285.6 L444.4,275.2 L445.2,252.7 L446.1,224.5 L446.9,204.1 L447.7,199.6 L448.6,198.0 L449.4,200.4 L450.3,202.0 L451.1,203.9 L451.9,205.5 L452.8,205.5 L453.6,206.3 L454.5,206.0 L455.3,209.8 L456.2,214.8 L457.0,216.5 L457.8,221.6 L458.7,237.4 L459.5,257.0 L460.4,272.2 L461.2,280.3 L462.0,285.9 L462.9,287.8 L463.7,286.2 L464.6,276.8 L465.4,255.6 L466.3,230.1 L467.1,211.6 L467.9,206.3 L468.8,201.7 L469.6,201.2 L470.5,200.6 L471.3,201.2 L472.1,201.7 L473.0,199.6 L473.8,199.6 L474.7,199.8 L475.5,206.8 L476.4,212.2 L477.2,215.7 L478.0,218.3 L478.9,234.4 L479.7,256.4 L480.6,269.3 L481.4,279.5 L482.2,285.9 L483.1,287.8 L483.9,286.2 L484.8,276.5 L485.6,255.6 L486.5,229.9 L487.3,211.4 L488.1,206.3 L489.0,201.7 L489.8,201.2 L490.7,200.6 L491.5,201.2 L492.3,201.7 L493.2,199.6 L494.0,199.6 L494.9,199.8 L495.7,207.1 L496.5,212.2 L497.4,215.7 L498.2,218.3 L499.1,234.4 L499.9,252.9 L500.8,268.2 L501.6,269.3 L502.4,271.4 L503.3,273.0 L504.1,272.5 L505.0,268.5 L505.8,261.5 L506.6,250.0 L507.5,233.9 L508.3,219.4 L509.2,215.4 L510.0,217.5 L510.9,220.5 L511.7,222.6 L512.5,227.2 L513.4,228.8 L514.2,227.2 L515.1,221.3 L515.9,221.0 L516.7,216.2 L517.6,211.9 L518.4,215.9 L519.3,233.6 L520.1,255.1 L521.0,264.2 L521.8,269.8 L522.6,272.8 L523.5,274.6 L524.3,272.8 L525.2,259.9 L526.0,236.6 L526.8,209.8 L527.7,192.6 L528.5,189.4 L529.4,190.7 L530.2,195.3 L531.1,199.0 L531.9,202.0 L532.7,204.7 L533.6,205.7 L534.4,206.5 L535.3,206.8 L536.1,210.3 L536.9,212.7 L537.8,212.2 L538.6,217.3 L539.5,234.2 L540.3,258.3 L541.2,269.8 L542.0,274.6 L542.8,277.6 L543.7,279.2 L544.5,277.1 L545.4,265.5 L546.2,239.8 L547.0,213.0 L547.9,195.3 L548.7,192.6 L549.6,193.1 L550.4,197.7 L551.2,200.6 L552.1,203.9 L552.9,206.3 L553.8,207.3 L554.6,207.6 L555.5,207.1 L556.3,211.4 L557.1,215.7 L558.0,217.0 L558.8,221.6 L559.7,237.9 L560.5,381.1 L561.3,273.8 L562.2,280.8 L563.0,286.7 L563.9,288.6 L564.7,287.3 L565.6,277.3 L566.4,254.5 L567.2,227.5 L568.1,208.1 L568.9,202.2 L569.8,199.6 L570.6,200.9 L571.4,202.0 L572.3,203.6 L573.1,205.5 L574.0,206.3 L574.8,206.5 L575.7,206.3 L576.5,210.3 L577.3,213.5 L578.2,213.0 L579.0,217.5 L579.9,233.9 L580.7,244.6 L581.5,263.7 L582.4,273.0 L583.2,276.3 L584.1,277.1 L584.9,274.1 L585.8,261.8 L586.6,236.6 L587.4,206.8 L588.3,189.6 L589.1,185.1 L590.0,186.4 L590.8,188.8 L591.6,192.6 L592.5,196.6 L593.3,199.8 L594.2,200.4 L595.0,200.4 L595.8,200.9 L596.7,203.6 L597.5,202.5 L598.4,198.8 L599.2,206.8 L600.1,223.7 L600.9,249.2 L601.7,257.0 L602.6,258.8 L603.4,262.6 L604.3,263.1 L605.1,261.0 L605.9,249.4 L606.8,225.8 L607.6,199.6 L608.5,185.6 L609.3,184.0 L610.2,187.5 L611.0,192.3 L611.8,197.7 L612.7,202.0 L613.5,205.2 L614.4,206.5 L615.2,207.6 L616.0,208.1 L616.9,211.4 L617.7,212.2 L618.6,210.6 L619.4,214.3 L620.3,232.0 L621.1,257.2 L621.9,262.3 L622.8,266.9 L623.6,270.1 L624.5,272.0 L625.3,272.0 L626.1,266.6 L627.0,259.4 L627.8,245.7 L628.7,226.4 L629.5,219.4 L630.4,220.5 L631.2,225.6 L632.0,228.0 L632.9,233.9 L633.7,239.5 L634.6,241.1 L635.4,237.9 L636.2,235.2 L637.1,234.7 L637.9,234.7 L638.8,233.4 L639.6,233.6 L640.4,244.1 L641.3,261.8 L642.1,271.4 L643.0,277.3 L643.8,281.6 L644.7,282.4 L645.5,281.4 L646.3,276.8 L647.2,268.5 L648.0,257.5 L648.9,240.9 L649.7,230.4 L650.5,228.8 L651.4,226.9 L652.2,228.3 L653.1,232.0 L653.9,235.0 L654.8,235.0 L655.6,234.4 L656.4,232.3 L657.3,228.3 L658.1,227.7 L659.0,228.3 L659.8,229.6 L660.6,241.4 L661.5,257.2 L662.3,270.6 L663.2,277.6 L664.0,281.6 L664.9,283.0 L665.7,281.1 L666.5,269.8 L667.4,245.2 L668.2,217.3 L669.1,199.8 L669.9,197.1 L670.7,197.4 L671.6,200.6 L672.4,202.8 L673.3,204.9 L674.1,206.8 L675.0,207.6 L675.8,207.9 L676.6,207.6 L677.5,211.6 L678.3,214.0 L679.2,214.0 L680.0,213.8" stroke="#9467bd" stroke-width="2" fill="none" opacity="0.8"/>
<!-- Total Generation -->
<path d="M80.0,201.2 L80.8,171.7 L81.7,161.7 L82.5,189.1 L83.4,156.4 L84.2,176.0 L85.0,181.3 L85.9,188.3 L86.7,193.4 L87.6,203.3 L88.4,201.7 L89.3,205.5 L90.1,228.0 L90.9,162.6 L91.8,144.9 L92.6,161.2 L93.5,167.9 L94.3,156.1 L95.1,156.7 L96.0,178.4 L96.8,187.8 L97.7,212.2 L98.5,201.4 L99.4,198.8 L100.2,202.2 L101.0,179.2 L101.9,175.4 L102.7,153.4 L103.6,168.2 L104.4,191.8 L105.2,178.9 L106.1,200.1 L106.9,212.7 L107.8,192.6 L108.6,197.7 L109.5,187.0 L110.3,198.0 L111.1,168.2 L112.0,153.7 L112.8,152.9 L113.7,151.8 L114.5,143.2 L115.3,144.0 L116.2,163.9 L117.0,167.6 L117.9,203.6 L118.7,209.8 L119.6,204.1 L120.4,178.1 L121.2,160.1 L122.1,136.5 L122.9,134.1 L123.8,169.5 L124.6,161.7 L125.4,146.5 L126.3,178.9 L127.1,183.2 L128.0,181.3 L128.8,157.5 L129.6,182.7 L130.5,191.8 L131.3,162.6 L132.2,154.5 L133.0,134.9 L133.9,136.0 L134.7,151.6 L135.5,156.4 L136.4,156.1 L137.2,165.5 L138.1,182.9 L138.9,195.3 L139.7,196.9 L140.6,220.7 L141.4,159.9 L142.3,93.1 L143.1,146.5 L144.0,160.7 L144.8,197.4 L145.6,214.0 L146.5,222.6 L147.3,229.3 L148.2,230.4 L149.0,231.7 L149.8,229.1 L150.7,232.0 L151.5,222.6 L152.4,193.1 L153.2,213.8 L154.1,209.8 L154.9,207.1 L155.7,221.8 L156.6,219.9 L157.4,222.6 L158.3,233.9 L159.1,231.2 L159.9,232.5 L160.8,234.2 L161.6,186.7 L162.5,159.3 L163.3,171.7 L164.2,181.9 L165.0,173.5 L165.8,207.9 L166.7,191.2 L167.5,195.8 L168.4,192.9 L169.2,208.1 L170.0,225.8 L170.9,212.2 L171.7,192.6 L172.6,210.6 L173.4,228.5 L174.2,192.6 L175.1,179.2 L175.9,187.5 L176.8,205.5 L177.6,200.4 L178.5,199.6 L179.3,217.8 L180.1,229.1 L181.0,225.8 L181.8,228.3 L182.7,191.5 L183.5,240.3 L184.3,235.8 L185.2,245.4 L186.0,262.6 L186.9,257.5 L187.7,262.6 L188.6,255.6 L189.4,234.4 L190.2,226.1 L191.1,221.6 L191.9,182.1 L192.8,159.9 L193.6,163.9 L194.4,144.6 L195.3,133.9 L196.1,133.3 L197.0,179.4 L197.8,174.6 L198.7,182.1 L199.5,184.8 L200.3,186.7 L201.2,189.4 L202.0,184.8 L202.9,189.1 L203.7,178.6 L204.5,230.7 L205.4,232.8 L206.2,239.0 L207.1,242.5 L207.9,233.1 L208.8,225.0 L209.6,226.6 L210.4,229.9 L211.3,232.3 L212.1,194.2 L213.0,192.6 L213.8,186.7 L214.6,188.6 L215.5,190.4 L216.3,194.7 L217.2,195.0 L218.0,201.2 L218.8,179.2 L220.5,203.0 L221.4,217.5 L222.2,216.2 L223.1,225.6 L223.9,215.7 L224.7,199.6 L225.6,252.9 L226.4,259.4 L227.3,256.4 L228.1,265.0 L228.9,271.7 L229.8,274.4 L230.6,274.1 L231.5,270.6 L232.3,254.5 L233.2,222.6 L234.0,203.0 L234.8,189.6 L235.7,199.3 L236.5,218.6 L237.4,227.2 L238.2,238.2 L239.0,243.5 L239.9,243.5 L240.7,244.1 L241.6,246.0 L242.4,203.0 L243.3,178.4 L244.1,167.4 L244.9,173.5 L245.8,194.7 L246.6,191.2 L247.5,167.9 L248.3,188.8 L249.1,189.9 L250.0,186.7 L250.8,196.9 L251.7,215.4 L252.5,209.8 L253.4,194.7 L254.2,179.2 L255.0,159.1 L255.9,182.4 L256.7,195.5 L257.6,207.3 L258.4,211.4 L259.2,241.4 L260.1,240.9 L260.9,238.7 L261.8,239.5 L262.6,219.1 L263.5,194.7 L264.3,164.4 L265.1,172.5 L266.0,162.3 L266.8,198.0 L267.7,229.6 L268.5,232.8 L269.3,231.7 L270.2,224.0 L271.0,236.3 L271.9,244.1 L272.7,208.4 L273.5,174.9 L274.4,178.4 L275.2,165.5 L276.1,190.7 L276.9,195.5 L277.8,184.8 L278.6,166.3 L279.4,160.4 L280.3,181.3 L281.1,176.5 L282.0,190.2 L282.8,201.7 L283.6,182.9 L284.5,122.9 L285.3,87.2 L286.2,137.3 L287.0,202.8 L287.9,166.6 L288.7,159.1 L289.5,161.5 L290.4,199.0 L291.2,229.6 L292.1,214.6 L292.9,225.8 L293.7,258.6 L294.6,217.8 L295.4,127.4 L296.3,116.2 L297.1,170.9 L298.0,185.1 L298.8,190.7 L299.6,198.8 L300.5,221.3 L301.3,236.3 L302.2,267.7 L303.0,283.2 L303.8,265.5 L304.7,186.4 L305.5,187.2 L306.4,269.6 L307.2,278.7 L308.1,283.8 L308.9,301.7 L309.7,292.6 L310.6,279.7 L311.4,267.4 L312.3,255.9 L313.1,244.9 L313.9,198.2 L314.8,143.8 L315.6,170.3 L316.5,196.1 L317.3,176.8 L318.1,208.9 L319.0,225.6 L319.8,241.1 L320.7,235.8 L321.5,232.0 L322.4,239.5 L323.2,215.1 L324.0,173.0 L324.9,173.0 L325.7,200.4 L326.6,201.2 L327.4,200.4 L328.2,198.0 L329.1,188.3 L329.9,215.4 L330.8,220.2 L331.6,201.7 L332.5,201.7 L333.3,169.3 L334.1,158.8 L335.0,157.5 L335.8,159.9 L336.7,168.5 L337.5,180.5 L338.3,176.0 L339.2,198.0 L340.0,198.5 L340.9,201.4 L341.7,205.7 L342.6,205.7 L343.4,211.1 L344.2,216.2 L345.1,219.7 L345.9,216.7 L346.8,247.3 L347.6,236.6 L348.4,225.0 L349.3,232.3 L350.1,232.3 L351.0,227.5 L351.8,228.5 L352.7,228.5 L353.5,232.0 L354.3,190.2 L355.2,192.3 L356.0,210.8 L356.9,221.0 L357.7,207.3 L358.5,203.9 L359.4,213.8 L360.2,210.8 L361.1,214.3 L361.9,232.0 L362.7,237.1 L363.6,218.6 L364.4,220.5 L365.3,210.3 L366.1,223.2 L367.0,224.8 L367.8,230.7 L368.6,238.2 L369.5,242.5 L370.3,231.7 L371.2,248.9 L372.0,251.9 L372.8,254.0 L373.7,250.0 L374.5,190.2 L375.4,170.3 L376.2,165.8 L377.1,169.0 L377.9,168.2 L378.7,152.1 L379.6,153.4 L380.4,152.6 L381.3,151.3 L382.1,163.9 L382.9,145.7 L383.8,117.8 L384.6,117.5 L385.5,88.3 L386.3,86.1 L387.2,81.0 L388.0,107.8 L388.8,100.6 L389.7,136.0 L390.5,155.3 L391.4,162.0 L392.2,163.9 L393.0,182.4 L393.9,153.4 L394.7,111.6 L395.6,67.6 L396.4,97.7 L397.3,132.2 L398.1,161.7 L398.9,221.8 L399.8,246.0 L400.6,231.7 L401.5,238.4 L402.3,237.1 L403.1,209.8 L404.0,215.9 L404.8,206.8 L405.7,198.2 L406.5,158.8 L407.3,189.6 L408.2,174.1 L409.0,240.6 L409.9,230.9 L410.7,225.6 L411.6,237.1 L412.4,250.5 L413.2,229.1 L414.1,176.5 L414.9,148.3 L415.8,108.4 L416.6,120.4 L417.4,104.6 L418.3,129.6 L419.1,137.9 L420.0,182.4 L420.8,178.1 L421.7,185.6 L422.5,204.9 L423.3,202.8 L424.2,216.2 L425.0,150.5 L425.9,120.4 L426.7,165.5 L427.5,189.6 L428.4,168.2 L429.2,162.3 L430.1,135.7 L430.9,149.4 L431.8,150.5 L432.6,157.7 L433.4,161.2 L434.3,189.4 L435.1,126.6 L436.0,143.8 L436.8,147.3 L437.6,173.0 L438.5,198.5 L439.3,193.7 L440.2,217.8 L441.0,202.8 L441.9,202.5 L442.7,196.3 L443.5,194.7 L444.4,214.6 L445.2,205.2 L446.1,193.9 L446.9,180.5 L447.7,221.8 L448.6,195.3 L449.4,181.1 L450.3,173.3 L451.1,167.4 L451.9,170.3 L452.8,166.3 L453.6,174.9 L454.5,192.3 L455.3,192.9 L456.2,174.9 L457.0,215.4 L457.8,220.2 L458.7,212.7 L459.5,221.8 L460.4,204.1 L461.2,192.6 L462.0,197.4 L462.9,205.5 L463.7,220.2 L464.6,240.9 L465.4,213.5 L466.3,191.8 L467.1,176.0 L467.9,204.9 L468.8,158.0 L469.6,160.1 L470.5,151.3 L471.3,159.9 L472.1,168.2 L473.0,160.7 L473.8,155.8 L474.7,161.7 L475.5,175.4 L476.4,153.4 L477.2,221.8 L478.0,217.5 L478.9,208.7 L479.7,220.2 L480.6,213.2 L481.4,211.1 L482.2,223.7 L483.1,231.7 L483.9,250.5 L484.8,265.8 L485.6,241.1 L486.5,238.4 L487.3,223.4 L488.1,241.4 L489.0,235.0 L489.8,251.3 L490.7,226.9 L491.5,202.0 L492.3,206.3 L493.2,195.3 L494.0,207.9 L494.9,204.7 L495.7,229.3 L496.5,230.4 L497.4,237.9 L498.2,243.8 L499.1,246.8 L499.9,263.4 L500.8,277.6 L501.6,279.5 L502.4,277.9 L503.3,272.2 L504.1,263.7 L505.0,259.6 L505.8,217.0 L506.6,203.6 L507.5,213.2 L508.3,197.4 L509.2,174.4 L510.0,161.5 L510.9,166.6 L511.7,156.1 L512.5,169.3 L513.4,173.8 L514.2,177.3 L515.1,193.1 L515.9,188.8 L516.7,145.1 L517.6,167.1 L518.4,165.2 L519.3,194.2 L520.1,218.9 L521.0,213.8 L521.8,241.7 L522.6,250.0 L523.5,211.1 L524.3,222.4 L525.2,203.3 L526.0,151.6 L526.8,156.9 L527.7,179.4 L528.5,173.3 L529.4,193.9 L530.2,214.3 L531.1,220.7 L531.9,227.2 L532.7,235.0 L533.6,229.1 L534.4,258.8 L535.3,248.4 L536.1,188.6 L536.9,136.5 L537.8,126.3 L538.6,162.3 L539.5,201.2 L540.3,182.1 L541.2,236.6 L542.0,273.3 L542.8,271.2 L543.7,264.2 L544.5,259.6 L545.4,249.2 L546.2,210.6 L547.0,166.0 L547.9,170.1 L548.7,200.1 L549.6,189.9 L550.4,203.9 L551.2,184.0 L552.1,186.2 L552.9,175.4 L553.8,185.9 L554.6,181.6 L555.5,185.6 L556.3,178.9 L557.1,187.2 L558.0,208.1 L558.8,229.9 L559.7,217.5 L560.5,195.3 L561.3,201.7 L562.2,183.5 L563.0,210.6 L563.9,213.5 L564.7,231.7 L565.6,203.9 L566.4,165.0 L567.2,168.7 L568.1,189.9 L568.9,210.8 L569.8,205.7 L570.6,219.7 L571.4,216.5 L572.3,217.3 L573.1,216.2 L574.0,207.1 L574.8,210.6 L575.7,233.4 L576.5,208.4 L577.3,181.3 L578.2,170.3 L579.0,187.2 L579.9,211.9 L580.7,217.3 L581.5,223.7 L582.4,250.8 L583.2,263.7 L584.1,278.1 L584.9,271.7 L585.8,239.5 L586.6,178.1 L587.4,158.8 L588.3,159.9 L589.1,160.7 L590.0,194.7 L590.8,190.7 L591.6,197.1 L592.5,207.9 L593.3,213.5 L594.2,216.5 L595.0,186.2 L595.8,192.6 L596.7,202.0 L597.5,182.1 L598.4,211.9 L599.2,175.4 L600.1,188.6 L600.9,175.7 L601.7,192.1 L602.6,239.0 L603.4,186.4 L604.3,190.7 L605.1,189.1 L605.9,187.8 L606.8,163.4 L607.6,155.0 L608.5,165.5 L609.3,172.7 L610.2,212.7 L611.0,196.9 L611.8,243.0 L612.7,227.2 L613.5,243.8 L614.4,240.6 L615.2,229.3 L616.0,227.5 L616.9,196.9 L617.7,195.0 L618.6,200.4 L619.4,208.4 L620.3,213.0 L621.1,232.0 L621.9,260.7 L622.8,262.8 L623.6,262.3 L624.5,247.8 L625.3,239.3 L626.1,228.5 L627.0,215.7 L627.8,210.6 L628.7,269.8 L629.5,253.5 L630.4,267.9 L631.2,261.0 L632.0,249.7 L632.9,250.0 L633.7,238.2 L634.6,244.6 L635.4,247.6 L636.2,253.2 L637.1,270.9 L637.9,256.1 L638.8,229.6 L639.6,212.2 L640.4,259.9 L641.3,270.6 L642.1,270.9 L643.0,265.8 L643.8,258.3 L644.7,255.9 L645.5,254.0 L646.3,253.2 L647.2,257.0 L648.0,253.2 L648.9,239.8 L649.7,252.1 L650.5,248.1 L651.4,250.0 L652.2,248.1 L653.1,242.5 L653.9,246.5 L654.8,244.3 L655.6,243.3 L656.4,234.2 L657.3,237.1 L658.1,243.3 L659.0,237.9 L659.8,240.9 L660.6,246.0 L661.5,254.3 L662.3,259.4 L663.2,267.9 L664.0,268.7 L664.9,254.3 L665.7,231.2 L666.5,225.0 L667.4,196.9 L668.2,136.3 L669.1,159.9 L669.9,156.1 L670.7,162.8 L671.6,159.6 L672.4,138.7 L673.3,131.4 L674.1,148.6 L675.0,181.1 L675.8,191.0 L676.6,204.9 L677.5,196.3 L678.3,130.9 L679.2,110.3 L680.0,123.4" stroke="#8c564b" stroke-width="2" fill="none" opacity="0.8"/>
<!-- Forecast Difference -->
<path d="M80.0,420.0 L80.8,420.0 L81.7,420.0 L82.5,420.0 L83.4,420.0 L84.2,420.0 L85.0,420.0 L85.9,420.0 L86.7,420.0 L87.6,420.0 L88.4,420.0 L89.3,420.0 L90.1,420.0 L90.9,420.0 L91.8,420.0 L92.6,420.0 L93.5,420.0 L94.3,420.0 L95.1,420.0 L96.0,420.0 L96.8,420.0 L97.7,420.0 L98.5,420.0 L99.4,420.0 L100.2,420.0 L101.0,420.0 L101.9,420.0 L102.7,420.0 L103.6,420.0 L104.4,420.0 L105.2,420.0 L106.1,420.0 L106.9,420.0 L107.8,420.0 L108.6,420.0 L109.5,420.0 L110.3,420.0 L111.1,420.0 L112.0,420.0 L112.8,420.0 L113.7,420.0 L114.5,420.0 L115.3,420.0 L116.2,420.0 L117.0,420.0 L117.9,420.0 L118.7,420.0 L119.6,420.0 L120.4,420.0 L121.2,420.0 L122.1,420.0 L122.9,420.0 L123.8,420.0 L124.6,420.0 L125.4,420.0 L126.3,420.0 L127.1,420.0 L128.0,420.0 L128.8,420.0 L129.6,420.0 L130.5,420.0 L131.3,420.0 L132.2,420.0 L133.0,420.0 L133.9,420.0 L134.7,420.0 L135.5,420.0 L136.4,420.0 L137.2,420.0 L138.1,420.0 L138.9,420.0 L139.7,420.0 L140.6,420.0 L141.4,420.0 L142.3,420.0 L143.1,420.0 L144.0,420.0 L144.8,420.0 L145.6,420.0 L146.5,420.0 L147.3,420.0 L148.2,420.0 L149.0,420.0 L149.8,420.0 L150.7,420.0 L151.5,420.0 L152.4,420.0 L153.2,420.0 L154.1,420.0 L154.9,420.0 L155.7,420.0 L156.6,420.0 L157.4,420.0 L158.3,420.0 L159.1,420.0 L159.9,420.0 L160.8,420.0 L161.6,420.0 L162.5,420.0 L163.3,420.0 L164.2,420.0 L165.0,420.0 L165.8,420.0 L166.7,420.0 L167.5,420.0 L168.4,420.0 L169.2,420.0 L170.0,420.0 L170.9,420.0 L171.7,420.0 L172.6,420.0 L173.4,420.0 L174.2,420.0 L175.1,420.0 L175.9,420.0 L176.8,420.0 L177.6,420.0 L178.5,420.0 L179.3,420.0 L180.1,420.0 L181.0,420.0 L181.8,420.0 L182.7,420.0 L183.5,420.0 L184.3,420.0 L185.2,420.0 L186.0,420.0 L186.9,420.0 L187.7,420.0 L188.6,420.0 L189.4,420.0 L190.2,420.0 L191.1,420.0 L191.9,420.0 L192.8,420.0 L193.6,420.0 L194.4,420.0 L195.3,420.0 L196.1,420.0 L197.0,420.0 L197.8,420.0 L198.7,420.0 L199.5,420.0 L200.3,420.0 L201.2,420.0 L202.0,420.0 L202.9,420.0 L203.7,420.0 L204.5,420.0 L205.4,420.0 L206.2,420.0 L207.1,420.0 L207.9,420.0 L208.8,420.0 L209.6,420.0 L210.4,420.0 L211.3,420.0 L212.1,420.0 L213.0,420.0 L213.8,420.0 L214.6,420.0 L215.5,420.0 L216.3,420.0 L217.2,420.0 L218.0,420.0 L218.8,420.0 L220.5,420.0 L221.4,420.0 L222.2,420.0 L223.1,420.0 L223.9,420.0 L224.7,420.0 L225.6,420.0 L226.4,420.0 L227.3,420.0 L228.1,420.0 L228.9,420.0 L229.8,420.0 L230.6,420.0 L231.5,420.0 L232.3,420.0 L233.2,420.0 L234.0,420.0 L234.8,420.0 L235.7,420.0 L236.5,420.0 L237.4,420.0 L238.2,420.0 L239.0,420.0 L239.9,420.0 L240.7,420.0 L241.6,420.0 L242.4,420.0 L243.3,420.0 L244.1,420.0 L244.9,420.0 L245.8,420.0 L246.6,420.0 L247.5,420.0 L248.3,420.0 L249.1,420.0 L250.0,420.0 L250.8,420.0 L251.7,420.0 L252.5,420.0 L253.4,420.0 L254.2,420.0 L255.0,420.0 L255.9,420.0 L256.7,420.0 L257.6,420.0 L258.4,420.0 L259.2,420.0 L260.1,420.0 L260.9,420.0 L261.8,420.0 L262.6,420.0 L263.5,420.0 L264.3,420.0 L265.1,420.0 L266.0,420.0 L266.8,420.0 L267.7,420.0 L268.5,420.0 L269.3,420.0 L270.2,420.0 L271.0,420.0 L271.9,420.0 L272.7,420.0 L273.5,420.0 L274.4,420.0 L275.2,420.0 L276.1,420.0 L276.9,420.0 L277.8,420.0 L278.6,420.0 L279.4,420.0 L280.3,420.0 L281.1,420.0 L282.0,420.0 L282.8,420.0 L283.6,420.0 L284.5,420.0 L285.3,420.0 L286.2,420.0 L287.0,420.0 L287.9,420.0 L288.7,420.0 L289.5,420.0 L290.4,420.0 L291.2,420.0 L292.1,420.0 L292.9,420.0 L293.7,420.0 L294.6,420.0 L295.4,420.0 L296.3,420.0 L297.1,420.0 L298.0,420.0 L298.8,420.0 L299.6,420.0 L300.5,420.0 L301.3,420.0 L302.2,420.0 L303.0,420.0 L303.8,420.0 L304.7,420.0 L305.5,420.0 L306.4,420.0 L307.2,420.0 L308.1,420.0 L308.9,420.0 L309.7,420.0 L310.6,420.0 L311.4,420.0 L312.3,420.0 L313.1,420.0 L313.9,420.0 L314.8,420.0 L315.6,420.0 L316.5,420.0 L317.3,420.0 L318.1,420.0 L319.0,420.0 L319.8,420.0 L320.7,420.0 L321.5,420.0 L322.4,420.0 L323.2,420.0 L324.0,420.0 L324.9,420.0 L325.7,420.0 L326.6,420.0 L327.4,420.0 L328.2,420.0 L329.1,420.0 L329.9,420.0 L330.8,420.0 L331.6,420.0 L332.5,420.0 L333.3,420.0 L334.1,420.0 L335.0,420.0 L335.8,420.0 L336.7,420.0 L337.5,420.0 L338.3,420.0 L339.2,420.0 L340.0,420.0 L340.9,420.0 L341.7,420.0 L342.6,420.0 L343.4,420.0 L344.2,420.0 L345.1,420.0 L345.9,420.0 L346.8,420.0 L347.6,420.0 L348.4,420.0 L349.3,420.0 L350.1,420.0 L351.0,420.0 L351.8,420.0 L352.7,420.0 L353.5,420.0 L354.3,420.0 L355.2,420.0 L356.0,420.0 L356.9,420.0 L357.7,420.0 L358.5,420.0 L359.4,420.0 L360.2,420.0 L361.1,420.0 L361.9,420.0 L362.7,420.0 L363.6,420.0 L364.4,420.0 L365.3,420.0 L366.1,420.0 L367.0,420.0 L367.8,420.0 L368.6,420.0 L369.5,420.0 L370.3,420.0 L371.2,420.0 L372.0,420.0 L372.8,420.0 L373.7,420.0 L374.5,420.0 L375.4,420.0 L376.2,420.0 L377.1,420.0 L377.9,420.0 L378.7,420.0 L379.6,420.0 L380.4,420.0 L381.3,420.0 L382.1,420.0 L382.9,420.0 L383.8,420.0 L384.6,420.0 L385.5,420.0 L386.3,420.0 L387.2,420.0 L388.0,420.0 L388.8,420.0 L389.7,420.0 L390.5,420.0 L391.4,420.0 L392.2,420.0 L393.0,420.0 L393.9,420.0 L394.7,420.0 L395.6,420.0 L396.4,420.0 L397.3,420.0 L398.1,420.0 L398.9,420.0 L399.8,420.0 L400.6,420.0 L401.5,420.0 L402.3,420.0 L403.1,420.0 L404.0,420.0 L404.8,420.0 L405.7,420.0 L406.5,420.0 L407.3,420.0 L408.2,420.0 L409.0,420.0 L409.9,420.0 L410.7,420.0 L411.6,420.0 L412.4,420.0 L413.2,420.0 L414.1,420.0 L414.9,420.0 L415.8,420.0 L416.6,420.0 L417.4,420.0 L418.3,420.0 L419.1,420.0 L420.0,420.0 L420.8,420.0 L421.7,420.0 L422.5,420.0 L423.3,420.0 L424.2,420.0 L425.0,420.0 L425.9,420.0 L426.7,420.0 L427.5,420.0 L428.4,420.0 L429.2,420.0 L430.1,420.0 L430.9,420.0 L431.8,420.0 L432.6,420.0 L433.4,420.0 L434.3,420.0 L435.1,420.0 L436.0,420.0 L436.8,420.0 L437.6,420.0 L438.5,420.0 L439.3,420.0 L440.2,420.0 L441.0,420.0 L441.9,420.0 L442.7,420.0 L443.5,420.0 L444.4,420.0 L445.2,420.0 L446.1,420.0 L446.9,420.0 L447.7,420.0 L448.6,420.0 L449.4,420.0 L450.3,420.0 L451.1,420.0 L451.9,420.0 L452.8,420.0 L453.6,420.0 L454.5,420.0 L455.3,420.0 L456.2,420.0 L457.0,420.0 L457.8,420.0 L458.7,420.0 L459.5,420.0 L460.4,420.0 L461.2,420.0 L462.0,420.0 L462.9,420.0 L463.7,420.0 L464.6,420.0 L465.4,420.0 L466.3,420.0 L467.1,420.0 L467.9,420.0 L468.8,420.0 L469.6,420.0 L470.5,420.0 L471.3,420.0 L472.1,420.0 L473.0,420.0 L473.8,420.0 L474.7,420.0 L475.5,420.0 L476.4,420.0 L477.2,420.0 L478.0,420.0 L478.9,420.0 L479.7,420.0 L480.6,420.0 L481.4,420.0 L482.2,420.0 L483.1,420.0 L483.9,420.0 L484.8,420.0 L485.6,420.0 L486.5,420.0 L487.3,420.0 L488.1,420.0 L489.0,420.0 L489.8,420.0 L490.7,420.0 L491.5,420.0 L492.3,420.0 L493.2,420.0 L494.0,420.0 L494.9,420.0 L495.7,420.0 L496.5,420.0 L497.4,420.0 L498.2,420.0 L499.1,420.0 L499.9,420.0 L500.8,420.0 L501.6,420.0 L502.4,420.0 L503.3,420.0 L504.1,420.0 L505.0,420.0 L505.8,420.0 L506.6,420.0 L507.5,420.0 L508.3,420.0 L509.2,420.0 L510.0,420.0 L510.9,420.0 L511.7,420.0 L512.5,420.0 L513.4,420.0 L514.2,420.0 L515.1,420.0 L515.9,420.0 L516.7,420.0 L517.6,420.0 L518.4,420.0 L519.3,420.0 L520.1,420.0 L521.0,420.0 L521.8,420.0 L522.6,420.0 L523.5,420.0 L524.3,420.0 L525.2,420.0 L526.0,420.0 L526.8,420.0 L527.7,420.0 L528.5,420.0 L529.4,420.0 L530.2,420.0 L531.1,420.0 L531.9,420.0 L532.7,420.0 L533.6,420.0 L534.4,420.0 L535.3,420.0 L536.1,420.0 L536.9,420.0 L537.8,420.0 L538.6,420.0 L539.5,420.0 L540.3,420.0 L541.2,420.0 L542.0,420.0 L542.8,420.0 L543.7,420.0 L544.5,420.0 L545.4,420.0 L546.2,420.0 L547.0,420.0 L547.9,420.0 L548.7,420.0 L549.6,420.0 L550.4,420.0 L551.2,420.0 L552.1,420.0 L552.9,420.0 L553.8,420.0 L554.6,420.0 L555.5,420.0 L556.3,420.0 L557.1,420.0 L558.0,420.0 L558.8,420.0 L559.7,420.0 L560.5,420.0 L561.3,420.0 L562.2,420.0 L563.0,420.0 L563.9,420.0 L564.7,420.0 L565.6,420.0 L566.4,420.0 L567.2,420.0 L568.1,420.0 L568.9,420.0 L569.8,420.0 L570.6,420.0 L571.4,420.0 L572.3,420.0 L573.1,420.0 L574.0,420.0 L574.8,420.0 L575.7,420.0 L576.5,420.0 L577.3,420.0 L578.2,420.0 L579.0,420.0 L579.9,420.0 L580.7,420.0 L581.5,420.0 L582.4,420.0 L583.2,420.0 L584.1,420.0 L584.9,420.0 L585.8,420.0 L586.6,420.0 L587.4,420.0 L588.3,420.0 L589.1,420.0 L590.0,420.0 L590.8,420.0 L591.6,420.0 L592.5,420.0 L593.3,420.0 L594.2,420.0 L595.0,420.0 L595.8,420.0 L596.7,420.0 L597.5,420.0 L598.4,420.0 L599.2,420.0 L600.1,420.0 L600.9,420.0 L601.7,420.0 L602.6,420.0 L603.4,420.0 L604.3,420.0 L605.1,420.0 L605.9,420.0 L606.8,420.0 L607.6,420.0 L608.5,420.0 L609.3,420.0 L610.2,420.0 L611.0,420.0 L611.8,420.0 L612.7,420.0 L613.5,420.0 L614.4,420.0 L615.2,420.0 L616.0,420.0 L616.9,420.0 L617.7,420.0 L618.6,420.0 L619.4,420.0 L620.3,420.0 L621.1,420.0 L621.9,420.0 L622.8,420.0 L623.6,420.0 L624.5,420.0 L625.3,420.0 L626.1,420.0 L627.0,420.0 L627.8,420.0 L628.7,420.0 L629.5,420.0 L630.4,420.0 L631.2,420.0 L632.0,420.0 L632.9,420.0 L633.7,420.0 L634.6,420.0 L635.4,420.0 L636.2,420.0 L637.1,420.0 L637.9,420.0 L638.8,420.0 L639.6,420.0 L640.4,420.0 L641.3,420.0 L642.1,420.0 L643.0,420.0 L643.8,420.0 L644.7,420.0 L645.5,420.0 L646.3,420.0 L647.2,420.0 L648.0,420.0 L648.9,420.0 L649.7,420.0 L650.5,420.0 L651.4,420.0 L652.2,420.0 L653.1,420.0 L653.9,420.0 L654.8,420.0 L655.6,420.0 L656.4,420.0 L657.3,420.0 L658.1,420.0 L659.0,420.0 L659.8,420.0 L660.6,420.0 L661.5,420.0 L662.3,420.0 L663.2,420.0 L664.0,420.0 L664.9,420.0 L665.7,420.0 L666.5,420.0 L667.4,420.0 L668.2,420.0 L669.1,420.0 L669.9,420.0 L670.7,420.0 L671.6,420.0 L672.4,420.0 L673.3,420.0 L674.1,420.0 L675.0,420.0 L675.8,420.0 L676.6,420.0 L677.5,420.0 L678.3,420.0 L679.2,420.0 L680.0,420.0" stroke="#e377c2" stroke-width="2" fill="none" opacity="0.8"/>

<!-- Legend -->
<line x1="690" y1="70" x2="705" y2="70" stroke="#1f77b4" stroke-width="3"/>
<text x="710" y="74" class="legend">Wind Generation</text>
<line x1="690" y1="88" x2="705" y2="88" stroke="#ff7f0e" stroke-width="3"/>
<text x="710" y="92" class="legend">Hydro Generation</text>
<line x1="690" y1="106" x2="705" y2="106" stroke="#2ca02c" stroke-width="3"/>
<text x="710" y="110" class="legend">Thermal Generation</text>
<line x1="690" y1="124" x2="705" y2="124" stroke="#d62728" stroke-width="3"/>
<text x="710" y="128" class="legend">Solar Generation</text>
<line x1="690" y1="142" x2="705" y2="142" stroke="#9467bd" stroke-width="3"/>
<text x="710" y="146" class="legend">Forecast</text>
<line x1="690" y1="160" x2="705" y2="160" stroke="#8c564b" stroke-width="3"/>
<text x="710" y="164" class="legend">Total Generation</text>
<line x1="690" y1="178" x2="705" y2="178" stroke="#e377c2" stroke-width="3"/>
<text x="710" y="182" class="legend">Forecast Difference</text>

<!-- Date range -->
<text x="80" y="495" class="legend">Range: 03/01 - 03/30/2026 (713 records)</text>
</svg>