<?xml version="1.0" encoding="UTF-8"?>
<svg width="800" height="500" xmlns="http://www.w3.org/2000/svg">
<style>
.axis-line { stroke: #333; stroke-width: 1; }
.grid-line { stroke: #ddd; stroke-width: 0.5; }
.title { font: 16px Arial; text-anchor: middle; fill: #333; }
.axis-label { font: 12px Arial; text-anchor: middle; fill: #666; }
.legend { font: 10px Arial; fill: #333; }
</style>

<!-- Title -->
<text x="400.0" y="25" class="title">Northwestern Energy Generation Data - Past 30 Days</text>

<!-- Plot area background -->
<rect x="80" y="50" width="600" height="370" fill="white" stroke="#ddd"/>

<!-- Y-axis -->
<line x1="80" y1="50" x2="80" y2="420" class="axis-line"/>
<text x="30" y="235.0" class="axis-label" transform="rotate(-90, 30, 235.0)">Generation (MW)</text>

<!-- X-axis -->
<line x1="80" y1="420" x2="680" y2="420" class="axis-line"/>
<text x="380.0" y="480" class="axis-label">Time</text>
<line x1="80" y1="420.0" x2="680" y2="420.0" class="grid-line"/>
<text x="70" y="425.0" class="legend" text-anchor="end">0</text>
<line x1="80" y1="327.5" x2="680" y2="327.5" class="grid-line"/>
<text x="70" y="332.5" class="legend" text-anchor="end">295</text>
<line x1="80" y1="235.0" x2="680" y2="235.0" class="grid-line"/>
<text x="70" y="240.0" class="legend" text-anchor="end">589</text>
<line x1="80" y1="142.5" x2="680" y2="142.5" class="grid-line"/>
<text x="70" y="147.5" class="legend" text-anchor="end">884</text>
<line x1="80" y1="50.0" x2="680" y2="50.0" class="grid-line"/>
<text x="70" y="55.0" class="legend" text-anchor="end">1178</text>
<!-- Wind Generation -->
<path d="M80.0,420.0 L80.8,420.0 L81.7,419.4 L82.5,417.8 L83.4,417.8 L84.2,417.5 L85.0,415.9 L85.9,408.7 L86.7,409.0 L87.6,413.1 L88.4,412.5 L89.3,411.2 L90.1,406.5 L90.9,402.7 L91.8,391.7 L92.6,388.6 L93.5,389.2 L94.3,398.6 L95.1,408.7 L96.0,418.1 L96.8,408.7 L97.7,413.4 L98.5,415.6 L99.4,410.9 L100.2,409.0 L101.0,410.3 L101.9,408.7 L102.7,409.3 L103.6,414.3 L104.4,416.9 L105.2,412.8 L106.1,402.4 L106.9,392.4 L107.8,390.8 L108.6,369.4 L109.5,349.3 L110.3,352.2 L111.1,348.4 L112.0,371.3 L112.8,370.7 L113.7,349.6 L114.5,320.1 L115.3,310.1 L116.2,322.6 L117.0,345.3 L117.9,340.2 L118.7,345.6 L119.6,328.0 L120.4,334.3 L121.2,348.7 L122.1,352.8 L122.9,361.0 L123.8,358.1 L124.6,388.3 L125.4,393.9 L126.3,394.6 L127.1,403.4 L128.0,400.8 L128.8,398.3 L129.6,406.2 L130.5,400.5 L131.3,417.2 L132.2,403.4 L133.0,399.6 L133.9,404.6 L134.7,395.5 L135.5,407.1 L136.4,410.9 L137.2,418.4 L138.1,419.4 L138.9,419.1 L139.7,412.5 L140.6,382.9 L141.4,386.1 L142.3,334.9 L143.1,339.9 L144.0,354.0 L144.8,328.0 L145.6,330.5 L146.5,321.7 L147.3,327.7 L148.2,350.0 L149.0,329.2 L149.8,357.5 L150.7,355.0 L151.5,348.4 L152.4,307.3 L153.2,323.0 L154.1,319.2 L154.9,313.5 L155.7,303.5 L156.6,320.1 L157.4,330.5 L158.3,320.1 L159.1,311.0 L159.9,305.1 L160.8,310.7 L161.6,296.3 L162.5,300.0 L163.3,305.1 L164.2,302.9 L165.0,342.4 L165.8,339.9 L166.7,329.9 L167.5,308.5 L168.4,318.6 L169.2,311.3 L170.0,313.8 L170.9,306.9 L171.7,315.7 L172.6,304.7 L173.4,329.2 L174.2,339.6 L175.1,344.0 L175.9,352.8 L176.8,355.0 L177.6,355.0 L178.5,335.5 L179.3,339.6 L180.1,355.6 L181.0,331.7 L181.8,354.7 L182.7,335.2 L183.5,338.7 L184.3,355.3 L185.2,387.7 L186.0,386.4 L186.9,370.7 L187.7,375.7 L188.6,374.5 L189.4,328.6 L190.2,353.4 L191.1,344.0 L191.9,371.0 L192.8,344.6 L193.6,381.7 L194.4,373.5 L195.3,333.6 L196.1,348.1 L197.0,335.8 L197.8,340.9 L198.7,331.1 L199.5,325.8 L200.3,335.8 L201.2,348.7 L202.0,318.2 L202.9,332.7 L203.7,327.0 L204.5,339.3 L205.4,333.3 L206.2,315.4 L207.1,335.8 L207.9,333.3 L208.8,347.1 L209.6,364.1 L210.4,384.8 L211.3,388.9 L212.1,377.0 L213.0,355.9 L213.8,333.6 L214.6,333.3 L215.5,344.6 L216.3,339.0 L217.2,328.6 L218.0,321.1 L218.8,340.2 L219.7,355.9 L220.5,364.7 L221.4,346.8 L222.2,334.9 L223.1,348.7 L223.9,355.0 L224.7,350.0 L225.6,352.2 L226.4,357.8 L227.3,362.5 L228.1,350.3 L228.9,366.3 L229.8,333.3 L230.6,345.9 L231.5,371.6 L232.3,341.5 L233.2,342.7 L234.0,365.7 L234.8,354.0 L235.7,377.9 L236.5,387.0 L237.4,393.0 L238.2,389.2 L239.0,388.3 L239.9,374.1 L240.7,352.8 L241.6,351.8 L242.4,339.6 L243.3,337.1 L244.1,334.9 L244.9,364.4 L245.8,333.6 L246.6,361.6 L247.5,362.5 L248.3,365.0 L249.1,360.0 L250.0,357.8 L250.8,361.6 L251.7,363.5 L252.5,364.4 L253.4,379.8 L254.2,398.0 L255.0,398.3 L255.9,406.2 L256.7,411.2 L257.6,412.8 L258.4,400.8 L259.2,388.6 L260.1,394.9 L260.9,387.3 L261.8,375.1 L262.6,381.1 L263.5,360.3 L264.3,394.2 L265.1,391.1 L266.0,384.2 L266.8,384.8 L267.7,388.9 L268.5,383.9 L269.3,364.1 L270.2,377.0 L271.0,366.0 L271.9,360.0 L272.7,360.3 L273.5,366.3 L274.4,384.8 L275.2,400.5 L276.1,409.9 L276.9,408.1 L277.8,397.7 L278.6,394.2 L279.4,392.4 L280.3,389.2 L281.1,366.9 L282.0,361.3 L282.8,353.4 L283.6,371.6 L284.5,377.9 L285.3,380.4 L286.2,384.5 L287.0,383.3 L287.9,393.6 L288.7,388.6 L289.5,371.6 L290.4,364.7 L291.2,359.4 L292.1,367.6 L292.9,393.9 L293.7,408.7 L294.6,414.3 L295.4,417.8 L296.3,411.8 L297.1,417.5 L298.0,417.8 L298.8,415.3 L299.6,410.6 L300.5,396.4 L301.3,398.6 L302.2,400.2 L303.0,401.2 L303.8,401.5 L304.7,402.4 L305.5,409.3 L306.4,419.7 L307.2,420.0 L308.1,418.4 L308.9,414.0 L309.7,411.2 L310.6,407.4 L311.4,400.5 L312.3,377.9 L313.1,368.2 L313.9,367.9 L314.8,405.9 L315.6,403.7 L316.5,387.7 L317.3,395.8 L318.1,400.5 L319.0,399.6 L319.8,405.9 L320.7,411.2 L321.5,397.4 L322.4,389.8 L323.2,387.0 L324.0,394.9 L324.9,387.3 L325.7,376.0 L326.6,364.4 L327.4,348.1 L328.2,341.2 L329.1,340.9 L329.9,400.8 L330.8,364.4 L331.6,347.8 L332.5,350.3 L333.3,351.5 L334.1,351.2 L335.0,323.6 L335.8,293.1 L336.7,293.4 L337.5,299.4 L338.3,303.8 L339.2,302.2 L340.0,311.3 L340.9,317.9 L341.7,310.4 L342.6,319.2 L343.4,318.6 L344.2,327.0 L345.1,329.2 L345.9,349.6 L346.8,362.8 L347.6,363.8 L348.4,350.6 L349.3,375.1 L350.1,377.9 L351.0,377.6 L351.8,357.2 L352.7,387.7 L353.5,382.3 L354.3,383.6 L355.2,339.0 L356.0,367.6 L356.9,371.0 L357.7,352.8 L358.5,359.4 L359.4,376.3 L360.2,367.9 L361.1,341.5 L361.9,336.1 L362.7,325.2 L363.6,328.0 L364.4,323.3 L365.3,311.3 L366.1,306.0 L367.0,318.2 L367.8,333.0 L368.6,335.2 L369.5,339.6 L370.3,353.4 L371.2,338.0 L372.0,316.7 L372.8,328.3 L373.7,323.3 L374.5,326.7 L375.4,337.4 L376.2,344.3 L377.1,341.2 L377.9,338.0 L378.7,363.2 L379.6,393.0 L380.4,396.4 L381.3,385.1 L382.1,379.5 L382.9,380.7 L383.8,385.1 L384.6,394.2 L385.5,402.7 L386.3,415.3 L387.2,409.0 L388.0,403.4 L388.8,409.6 L389.7,404.9 L390.5,396.1 L391.4,397.7 L392.2,403.0 L393.0,409.6 L393.9,407.1 L394.7,408.7 L395.6,407.1 L396.4,386.7 L397.3,385.8 L398.1,383.6 L398.9,377.0 L399.8,369.1 L400.6,373.2 L401.5,381.7 L402.3,393.0 L403.1,404.9 L404.0,411.8 L404.8,414.7 L405.7,403.4 L406.5,393.9 L407.3,390.5 L408.2,383.6 L409.0,370.4 L409.9,400.2 L410.7,405.2 L411.6,399.6 L412.4,402.4 L413.2,401.2 L414.1,371.3 L414.9,376.3 L415.8,372.9 L416.6,373.5 L417.4,370.1 L418.3,366.9 L419.1,376.7 L420.0,385.1 L420.8,393.0 L421.7,403.0 L422.5,412.1 L423.3,408.4 L424.2,412.1 L425.0,414.0 L425.9,416.9 L426.7,415.9 L427.5,417.5 L428.4,417.5 L429.2,415.0 L430.1,415.0 L430.9,418.7 L431.8,420.0 L432.6,420.0 L433.4,419.7 L434.3,419.1 L435.1,418.4 L436.0,414.3 L436.8,413.7 L437.6,407.4 L438.5,411.5 L439.3,416.2 L440.2,417.5 L441.0,414.7 L441.9,414.7 L442.7,408.1 L443.5,404.3 L444.4,394.2 L445.2,383.6 L446.1,387.7 L446.9,390.8 L447.7,386.4 L448.6,388.9 L449.4,380.1 L450.3,383.6 L451.1,365.4 L451.9,382.0 L452.8,384.8 L453.6,398.6 L454.5,403.7 L455.3,400.2 L456.2,409.6 L457.0,409.3 L457.8,410.3 L458.7,406.2 L459.5,391.7 L460.4,398.0 L461.2,392.4 L462.0,374.1 L462.9,363.5 L463.7,347.1 L464.6,382.3 L465.4,385.5 L466.3,393.9 L467.1,393.9 L467.9,383.6 L468.8,388.0 L469.6,378.2 L470.5,385.1 L471.3,379.8 L472.1,376.0 L473.0,386.7 L473.8,374.1 L474.7,375.1 L475.5,382.9 L476.4,388.9 L477.2,409.0 L478.0,413.7 L478.9,415.6 L479.7,412.1 L480.6,411.2 L481.4,403.4 L482.2,398.6 L483.1,401.8 L483.9,393.6 L484.8,399.3 L485.6,391.7 L486.5,399.0 L487.3,407.4 L488.1,407.1 L489.0,382.9 L489.8,372.9 L490.7,381.4 L491.5,381.1 L492.3,394.9 L493.2,392.7 L494.0,391.4 L494.9,397.1 L495.7,397.7 L496.5,408.1 L497.4,413.1 L498.2,416.2 L499.1,412.1 L499.9,408.1 L500.8,407.1 L501.6,405.2 L502.4,400.2 L503.3,389.5 L504.1,376.0 L505.0,371.9 L505.8,374.5 L506.6,379.8 L507.5,384.5 L508.3,382.6 L509.2,392.0 L510.0,396.1 L510.9,399.0 L511.7,399.0 L512.5,401.5 L513.4,402.4 L514.2,400.8 L515.1,398.3 L515.9,394.9 L516.7,403.0 L517.6,408.4 L518.4,406.2 L519.3,407.1 L520.1,390.8 L521.0,397.1 L521.8,392.7 L522.6,388.3 L523.5,386.7 L524.3,353.4 L525.2,358.8 L526.0,348.1 L526.8,369.4 L527.7,378.9 L528.5,386.7 L529.4,396.4 L530.2,403.4 L531.1,406.8 L531.9,403.4 L532.7,389.5 L533.6,398.0 L534.4,392.0 L535.3,391.1 L536.1,394.9 L536.9,398.3 L537.8,398.0 L538.6,392.7 L539.5,402.7 L540.3,388.0 L541.2,416.9 L542.0,415.6 L542.8,416.9 L543.7,416.9 L544.5,415.9 L545.4,412.8 L546.2,413.1 L547.0,415.6 L547.9,416.9 L548.7,413.7 L549.6,408.4 L550.4,396.8 L551.2,379.2 L552.1,388.3 L552.9,377.3 L553.8,366.9 L554.6,369.4 L555.5,359.1 L556.3,355.0 L557.1,377.6 L558.0,364.7 L558.8,376.3 L559.7,391.7 L560.5,392.0 L561.3,384.5 L562.2,351.8 L563.0,324.5 L563.9,343.4 L564.7,352.2 L565.6,381.1 L566.4,381.4 L567.2,376.7 L568.1,395.2 L568.9,387.0 L569.8,388.3 L570.6,381.7 L571.4,371.6 L572.3,368.8 L573.1,358.8 L574.0,344.6 L574.8,339.6 L575.7,333.6 L576.5,346.2 L577.3,357.2 L578.2,379.2 L579.0,373.5 L579.9,358.8 L580.7,376.3 L581.5,385.1 L582.4,395.2 L583.2,408.1 L584.1,408.1 L584.9,406.5 L585.8,403.7 L586.6,399.3 L587.4,397.7 L588.3,384.5 L589.1,376.7 L590.0,371.6 L590.8,370.1 L591.6,348.1 L592.5,343.7 L593.3,351.2 L594.2,356.6 L595.0,345.3 L595.8,356.6 L596.7,362.2 L597.5,377.0 L598.4,400.8 L599.2,403.0 L600.1,407.1 L600.9,416.2 L601.7,415.3 L602.6,411.8 L603.4,408.1 L604.3,403.0 L605.1,389.2 L605.9,383.6 L606.8,380.4 L607.6,390.5 L608.5,378.2 L609.3,371.0 L610.2,376.3 L611.0,370.7 L611.8,367.2 L612.7,368.2 L613.5,359.7 L614.4,364.4 L615.2,366.0 L616.0,346.5 L616.9,362.8 L617.7,353.7 L618.6,371.3 L619.4,386.7 L620.3,379.8 L621.1,359.1 L621.9,339.9 L622.8,315.4 L623.6,315.7 L624.5,324.8 L625.3,340.5 L626.1,334.6 L627.0,350.6 L627.8,378.2 L628.7,394.9 L629.5,405.9 L630.4,366.3 L631.2,368.8 L632.0,382.6 L632.9,386.4 L633.7,385.8 L634.6,371.6 L635.4,386.4 L636.2,383.3 L637.1,388.9 L637.9,399.3 L638.8,390.5 L639.6,389.5 L640.4,400.2 L641.3,398.6 L642.1,396.4 L643.0,378.2 L643.8,388.9 L644.7,389.2 L645.5,399.6 L646.3,401.5 L647.2,403.7 L648.0,411.5 L648.9,412.5 L649.7,405.9 L650.5,393.9 L651.4,390.8 L652.2,380.4 L653.1,369.4 L653.9,367.2 L654.8,364.1 L655.6,362.2 L656.4,370.4 L657.3,360.0 L658.1,366.3 L659.0,367.2 L659.8,356.6 L660.6,323.6 L661.5,366.6 L662.3,382.9 L663.2,364.7 L664.0,386.7 L664.9,357.8 L665.7,363.5 L666.5,371.0 L667.4,387.0 L668.2,389.2 L669.1,398.6 L669.9,388.0 L670.7,403.4 L671.6,405.2 L672.4,397.4 L673.3,394.9 L674.1,395.5 L675.0,399.6 L675.8,411.8 L676.6,416.5 L677.5,416.9 L678.3,417.8 L679.2,417.5 L680.0,416.2" stroke="#1f77b4" stroke-width="2" fill="none" opacity="0.8"/>
<!-- Hydro Generation -->
<path d="M80.0,339.0 L80.8,339.0 L81.7,338.0 L82.5,338.3 L83.4,338.3 L84.2,340.5 L85.0,340.2 L85.9,340.2 L86.7,340.2 L87.6,340.9 L88.4,340.9 L89.3,340.9 L90.1,340.2 L90.9,339.3 L91.8,339.6 L92.6,339.0 L93.5,339.0 L94.3,339.3 L95.1,339.0 L96.0,339.0 L96.8,339.0 L97.7,339.0 L98.5,339.0 L99.4,339.0 L100.2,339.3 L101.0,339.0 L101.9,339.3 L102.7,339.6 L103.6,340.5 L104.4,340.5 L105.2,340.2 L106.1,339.9 L106.9,340.2 L107.8,339.6 L108.6,339.0 L109.5,339.3 L110.3,338.0 L111.1,337.7 L112.0,337.7 L112.8,338.3 L113.7,338.3 L114.5,338.3 L115.3,338.3 L116.2,338.3 L117.0,338.3 L117.9,338.3 L118.7,338.0 L119.6,338.3 L120.4,338.0 L121.2,338.0 L122.1,338.3 L122.9,339.3 L123.8,339.6 L124.6,339.6 L125.4,339.6 L126.3,339.3 L127.1,338.0 L128.0,338.0 L128.8,338.0 L129.6,337.1 L130.5,337.4 L131.3,337.1 L132.2,337.1 L133.0,337.4 L133.9,338.0 L134.7,338.3 L135.5,338.3 L136.4,338.3 L137.2,337.1 L138.1,337.1 L138.9,337.4 L139.7,336.5 L140.6,336.5 L141.4,336.5 L142.3,336.1 L143.1,337.7 L144.0,338.0 L144.8,337.7 L145.6,336.8 L146.5,350.3 L147.3,350.0 L148.2,349.6 L149.0,349.6 L149.8,349.6 L150.7,350.0 L151.5,350.3 L152.4,349.6 L153.2,336.1 L154.1,336.5 L154.9,336.5 L155.7,336.8 L156.6,336.5 L157.4,336.5 L158.3,336.8 L159.1,336.5 L159.9,336.5 L160.8,336.5 L161.6,336.8 L162.5,335.8 L163.3,337.7 L164.2,340.5 L165.0,340.5 L165.8,340.5 L166.7,340.9 L167.5,339.9 L168.4,340.2 L169.2,339.9 L170.0,340.5 L170.9,340.9 L171.7,341.2 L172.6,340.9 L173.4,341.2 L174.2,340.9 L175.1,340.5 L175.9,341.2 L176.8,340.2 L177.6,339.9 L178.5,339.9 L179.3,340.2 L180.1,339.6 L181.0,339.6 L181.8,339.9 L182.7,338.7 L183.5,339.0 L184.3,339.3 L185.2,339.6 L186.0,339.9 L186.9,339.9 L187.7,340.2 L188.6,339.9 L189.4,340.5 L190.2,339.9 L191.1,340.9 L191.9,341.2 L192.8,340.9 L193.6,341.5 L194.4,341.2 L195.3,341.5 L196.1,342.7 L197.0,342.4 L197.8,342.7 L198.7,341.2 L199.5,340.9 L200.3,340.5 L201.2,339.6 L202.0,339.6 L202.9,339.0 L203.7,339.0 L204.5,339.3 L205.4,339.0 L206.2,339.0 L207.1,339.0 L207.9,339.0 L208.8,340.2 L209.6,339.6 L210.4,339.6 L211.3,339.6 L212.1,339.6 L213.0,342.4 L213.8,344.0 L214.6,344.0 L215.5,344.6 L216.3,344.6 L217.2,344.3 L218.0,342.7 L218.8,342.1 L219.7,342.4 L220.5,341.8 L221.4,341.8 L222.2,341.8 L223.1,341.5 L223.9,341.8 L224.7,341.5 L225.6,341.2 L226.4,341.2 L227.3,339.9 L228.1,339.9 L228.9,339.6 L229.8,340.2 L230.6,339.9 L231.5,340.2 L232.3,340.5 L233.2,327.7 L234.0,328.0 L234.8,328.3 L235.7,327.7 L236.5,327.4 L237.4,327.4 L238.2,327.0 L239.0,327.0 L239.9,327.7 L240.7,327.7 L241.6,327.7 L242.4,327.7 L243.3,328.0 L244.1,328.0 L244.9,327.7 L245.8,327.7 L246.6,327.4 L247.5,327.4 L248.3,327.7 L249.1,354.7 L250.0,361.6 L250.8,361.3 L251.7,361.6 L252.5,362.5 L253.4,347.8 L254.2,327.4 L255.0,328.0 L255.9,328.3 L256.7,328.3 L257.6,328.6 L258.4,328.6 L259.2,328.6 L260.1,328.0 L260.9,327.7 L261.8,327.0 L262.6,327.0 L263.5,327.0 L264.3,327.4 L265.1,327.4 L266.0,327.4 L266.8,349.6 L267.7,349.6 L268.5,350.0 L269.3,349.6 L270.2,350.0 L271.0,350.0 L271.9,350.0 L272.7,328.3 L273.5,328.0 L274.4,328.0 L275.2,328.9 L276.1,328.9 L276.9,328.6 L277.8,328.9 L278.6,328.9 L279.4,328.9 L280.3,328.9 L281.1,328.9 L282.0,328.9 L282.8,328.9 L283.6,328.9 L284.5,329.5 L285.3,330.8 L286.2,332.4 L287.0,334.3 L287.9,332.7 L288.7,332.7 L289.5,332.4 L290.4,332.7 L291.2,332.1 L292.1,330.5 L292.9,330.5 L293.7,330.2 L294.6,330.5 L295.4,331.1 L296.3,330.8 L297.1,331.1 L298.0,331.1 L298.8,331.1 L299.6,331.1 L300.5,331.1 L301.3,331.1 L302.2,331.1 L303.0,330.8 L303.8,331.1 L304.7,331.1 L305.5,330.8 L306.4,330.8 L307.2,330.8 L308.1,331.4 L308.9,332.1 L309.7,335.5 L310.6,332.7 L311.4,332.7 L312.3,332.7 L313.1,332.7 L313.9,332.7 L314.8,332.1 L315.6,332.1 L316.5,332.1 L317.3,332.4 L318.1,332.4 L319.0,332.4 L319.8,332.4 L320.7,332.1 L321.5,332.1 L322.4,332.1 L323.2,331.7 L324.0,332.4 L324.9,332.1 L325.7,330.8 L326.6,330.8 L327.4,333.3 L328.2,331.4 L329.1,331.1 L329.9,331.1 L330.8,331.4 L331.6,331.1 L332.5,331.4 L333.3,331.4 L334.1,331.1 L335.0,331.7 L335.8,331.7 L336.7,333.0 L337.5,332.1 L338.3,332.4 L339.2,333.3 L340.0,333.3 L340.9,333.3 L341.7,333.3 L342.6,333.6 L343.4,333.6 L344.2,333.0 L345.1,333.0 L345.9,332.4 L346.8,332.1 L347.6,332.1 L348.4,332.1 L349.3,331.4 L350.1,332.1 L351.0,332.1 L351.8,332.1 L352.7,332.1 L353.5,330.8 L354.3,330.8 L355.2,330.8 L356.0,330.8 L356.9,330.8 L357.7,330.5 L358.5,330.8 L359.4,330.8 L360.2,330.5 L361.1,330.8 L361.9,330.8 L362.7,330.8 L363.6,331.4 L364.4,331.4 L365.3,332.1 L366.1,331.4 L367.0,331.7 L367.8,333.6 L368.6,331.4 L369.5,331.4 L370.3,331.7 L371.2,331.1 L372.0,331.7 L372.8,331.4 L373.7,330.2 L374.5,329.9 L375.4,330.2 L376.2,329.2 L377.1,329.2 L377.9,327.7 L378.7,328.0 L379.6,327.7 L380.4,327.7 L381.3,326.7 L382.1,327.0 L382.9,326.7 L383.8,326.7 L384.6,326.4 L385.5,328.0 L386.3,328.3 L387.2,328.0 L388.0,328.0 L388.8,327.7 L389.7,328.9 L390.5,328.6 L391.4,328.9 L392.2,328.3 L393.0,328.9 L393.9,329.5 L394.7,329.5 L395.6,328.9 L396.4,329.2 L397.3,329.2 L398.1,329.2 L398.9,329.2 L399.8,329.2 L400.6,329.2 L401.5,329.2 L402.3,329.2 L403.1,329.2 L404.0,329.2 L404.8,329.9 L405.7,329.9 L406.5,329.9 L407.3,329.9 L408.2,329.9 L409.0,329.9 L409.9,330.8 L410.7,330.2 L411.6,330.8 L412.4,330.8 L413.2,330.8 L414.1,331.4 L414.9,331.1 L415.8,331.7 L416.6,331.7 L417.4,332.1 L418.3,331.7 L419.1,331.7 L420.0,331.7 L420.8,331.7 L421.7,330.8 L422.5,330.8 L423.3,331.1 L424.2,331.1 L425.0,330.8 L425.9,330.8 L426.7,331.1 L427.5,331.1 L428.4,331.1 L429.2,330.8 L430.1,330.8 L430.9,332.4 L431.8,332.7 L432.6,331.7 L433.4,332.7 L434.3,331.4 L435.1,330.8 L436.0,330.8 L436.8,331.1 L437.6,331.4 L438.5,332.4 L439.3,332.4 L440.2,332.4 L441.0,332.1 L441.9,331.7 L442.7,331.7 L443.5,332.1 L444.4,331.7 L445.2,331.7 L446.1,331.7 L446.9,331.7 L447.7,331.4 L448.6,331.4 L449.4,344.3 L450.3,344.3 L451.1,344.6 L451.9,344.3 L452.8,344.6 L453.6,332.1 L454.5,332.1 L455.3,331.7 L456.2,331.7 L457.0,331.7 L457.8,331.1 L458.7,331.4 L459.5,331.4 L460.4,331.4 L461.2,331.7 L462.0,331.7 L462.9,331.4 L463.7,331.4 L464.6,331.4 L465.4,331.7 L466.3,331.7 L467.1,332.1 L467.9,331.4 L468.8,331.4 L469.6,332.7 L470.5,332.7 L471.3,333.9 L472.1,334.3 L473.0,334.3 L473.8,332.1 L474.7,332.4 L475.5,332.4 L476.4,332.4 L477.2,332.4 L478.0,332.4 L478.9,332.1 L479.7,332.1 L480.6,332.1 L481.4,331.7 L482.2,331.7 L483.1,332.4 L483.9,332.7 L484.8,332.7 L485.6,333.3 L486.5,333.3 L487.3,333.3 L488.1,335.2 L489.0,344.6 L489.8,344.6 L490.7,332.7 L491.5,333.3 L492.3,334.6 L493.2,333.3 L494.0,333.3 L494.9,333.0 L495.7,333.0 L496.5,332.7 L497.4,332.7 L498.2,332.7 L499.1,332.7 L499.9,332.4 L500.8,332.7 L501.6,332.7 L502.4,334.3 L503.3,345.3 L504.1,332.7 L505.0,333.0 L505.8,331.4 L506.6,331.1 L507.5,331.1 L508.3,331.1 L509.2,331.1 L510.0,330.8 L510.9,331.4 L511.7,331.7 L512.5,333.0 L513.4,332.7 L514.2,333.0 L515.1,333.9 L515.9,333.9 L516.7,334.9 L517.6,334.9 L518.4,335.8 L519.3,335.8 L520.1,335.8 L521.0,335.8 L521.8,335.8 L522.6,335.8 L523.5,336.1 L524.3,335.8 L525.2,335.8 L526.0,335.8 L526.8,335.8 L527.7,335.8 L528.5,336.1 L529.4,336.1 L530.2,336.1 L531.1,336.1 L531.9,335.8 L532.7,336.1 L533.6,335.8 L534.4,335.8 L535.3,335.8 L536.1,334.9 L536.9,333.6 L537.8,333.6 L538.6,333.6 L539.5,332.7 L540.3,332.7 L541.2,332.7 L542.0,333.0 L542.8,333.0 L543.7,332.7 L544.5,333.6 L545.4,333.6 L546.2,334.6 L547.0,334.6 L547.9,334.3 L548.7,333.9 L549.6,333.9 L550.4,333.9 L551.2,330.8 L552.1,333.9 L552.9,333.9 L553.8,334.3 L554.6,334.3 L555.5,333.9 L556.3,333.9 L557.1,334.3 L558.0,334.6 L558.8,333.6 L559.7,333.6 L560.5,333.6 L561.3,333.6 L562.2,333.6 L563.0,333.6 L563.9,333.6 L564.7,334.9 L565.6,334.9 L566.4,334.9 L567.2,334.9 L568.1,334.9 L568.9,334.9 L569.8,334.9 L570.6,334.9 L571.4,334.9 L572.3,335.2 L573.1,334.9 L574.0,334.6 L574.8,335.2 L575.7,334.9 L576.5,334.9 L577.3,334.9 L578.2,334.9 L579.0,334.9 L579.9,335.5 L580.7,335.5 L581.5,335.8 L582.4,335.5 L583.2,335.5 L584.1,335.5 L584.9,335.2 L585.8,335.8 L586.6,335.2 L587.4,335.2 L588.3,336.1 L589.1,335.5 L590.0,335.8 L590.8,335.8 L591.6,336.1 L592.5,335.8 L593.3,335.5 L594.2,335.2 L595.0,335.2 L595.8,335.5 L596.7,335.5 L597.5,335.5 L598.4,335.5 L599.2,335.5 L600.1,335.5 L600.9,335.5 L601.7,335.5 L602.6,335.5 L603.4,335.5 L604.3,335.2 L605.1,335.2 L605.9,334.9 L606.8,334.9 L607.6,335.2 L608.5,335.2 L609.3,335.2 L610.2,334.9 L611.0,334.9 L611.8,334.9 L612.7,335.2 L613.5,335.2 L614.4,333.6 L615.2,333.9 L616.0,333.0 L616.9,333.0 L617.7,334.3 L618.6,334.3 L619.4,332.7 L620.3,332.1 L621.1,332.4 L621.9,332.4 L622.8,332.4 L623.6,332.7 L624.5,332.7 L625.3,333.3 L626.1,333.6 L627.0,333.6 L627.8,332.4 L628.7,332.4 L629.5,332.1 L630.4,330.5 L631.2,332.1 L632.0,330.2 L632.9,330.5 L633.7,330.2 L634.6,331.1 L635.4,330.8 L636.2,331.7 L637.1,331.1 L637.9,331.4 L638.8,331.4 L639.6,331.4 L640.4,331.4 L641.3,331.7 L642.1,331.4 L643.0,331.7 L643.8,331.1 L644.7,331.1 L645.5,330.8 L646.3,331.1 L647.2,331.1 L648.0,331.1 L648.9,331.1 L649.7,330.5 L650.5,331.7 L651.4,331.7 L652.2,331.7 L653.1,331.7 L653.9,331.7 L654.8,332.1 L655.6,332.1 L656.4,331.7 L657.3,331.7 L658.1,333.3 L659.0,333.3 L659.8,333.3 L660.6,331.4 L661.5,331.4 L662.3,331.4 L663.2,331.4 L664.0,331.4 L664.9,330.8 L665.7,330.8 L666.5,330.8 L667.4,332.4 L668.2,332.4 L669.1,330.5 L669.9,330.5 L670.7,331.1 L671.6,331.1 L672.4,331.1 L673.3,331.1 L674.1,331.1 L675.0,333.6 L675.8,333.9 L676.6,332.1 L677.5,332.4 L678.3,332.4 L679.2,332.4 L680.0,331.7" stroke="#ff7f0e" stroke-width="2" fill="none" opacity="0.8"/>
<!-- Thermal Generation -->
<path d="M80.0,227.2 L80.8,218.4 L81.7,219.0 L82.5,216.2 L83.4,219.0 L84.2,220.6 L85.0,218.7 L85.9,237.2 L86.7,239.1 L87.6,251.3 L88.4,298.8 L89.3,271.8 L90.1,311.3 L90.9,302.5 L91.8,246.6 L92.6,221.2 L93.5,218.1 L94.3,236.3 L95.1,229.7 L96.0,241.3 L96.8,292.2 L97.7,292.5 L98.5,305.1 L99.4,304.4 L100.2,304.7 L101.0,304.4 L101.9,289.3 L102.7,301.6 L103.6,352.2 L104.4,339.6 L105.2,351.5 L106.1,352.2 L106.9,353.4 L107.8,353.1 L108.6,350.3 L109.5,351.5 L110.3,352.2 L111.1,352.5 L112.0,348.7 L112.8,313.8 L113.7,290.0 L114.5,289.3 L115.3,336.5 L116.2,351.5 L117.0,351.5 L117.9,351.2 L118.7,350.6 L119.6,350.9 L120.4,350.6 L121.2,350.9 L122.1,351.8 L122.9,350.0 L123.8,352.5 L124.6,351.2 L125.4,352.2 L126.3,336.8 L127.1,339.9 L128.0,339.6 L128.8,314.8 L129.6,317.9 L130.5,299.7 L131.3,289.7 L132.2,289.7 L133.0,305.1 L133.9,306.9 L134.7,308.2 L135.5,306.9 L136.4,351.8 L137.2,351.8 L138.1,352.2 L138.9,351.5 L139.7,352.2 L140.6,351.2 L141.4,351.2 L142.3,352.2 L143.1,352.5 L144.0,352.2 L144.8,351.5 L145.6,353.1 L146.5,352.5 L147.3,352.2 L148.2,352.5 L149.0,343.7 L149.8,333.3 L150.7,333.9 L151.5,348.1 L152.4,352.5 L153.2,351.8 L154.1,352.5 L154.9,351.8 L155.7,352.5 L156.6,352.2 L157.4,352.2 L158.3,351.8 L159.1,351.5 L159.9,351.5 L160.8,351.2 L161.6,351.2 L162.5,351.8 L163.3,334.6 L164.2,333.9 L165.0,316.4 L165.8,344.0 L166.7,330.2 L167.5,334.6 L168.4,334.3 L169.2,350.6 L170.0,350.0 L170.9,350.0 L171.7,352.5 L172.6,352.2 L173.4,337.7 L174.2,340.2 L175.1,345.3 L175.9,339.6 L176.8,333.9 L177.6,333.6 L178.5,352.2 L179.3,351.8 L180.1,351.8 L181.0,352.5 L181.8,339.6 L182.7,340.2 L183.5,311.6 L184.3,329.5 L185.2,352.5 L186.0,352.5 L186.9,352.8 L187.7,353.1 L188.6,352.8 L189.4,352.8 L190.2,352.5 L191.1,352.5 L191.9,352.5 L192.8,352.5 L193.6,320.4 L194.4,322.0 L195.3,290.0 L196.1,302.9 L197.0,327.4 L197.8,352.5 L198.7,352.2 L199.5,352.2 L200.3,352.2 L201.2,352.8 L202.0,352.2 L202.9,327.0 L203.7,305.7 L204.5,328.0 L205.4,327.4 L206.2,339.6 L207.1,351.8 L207.9,352.2 L208.8,352.5 L209.6,352.5 L210.4,352.2 L211.3,352.2 L212.1,352.2 L213.0,352.2 L213.8,353.1 L214.6,353.1 L215.5,352.2 L216.3,352.2 L217.2,340.2 L218.0,352.8 L218.8,352.2 L219.7,351.8 L220.5,351.8 L221.4,352.5 L222.2,352.8 L223.1,333.3 L223.9,318.2 L224.7,317.9 L225.6,318.6 L226.4,333.9 L227.3,352.8 L228.1,352.2 L228.9,353.1 L229.8,352.5 L230.6,352.2 L231.5,352.2 L232.3,352.2 L233.2,351.8 L234.0,307.3 L234.8,325.2 L235.7,312.9 L236.5,309.1 L237.4,306.3 L238.2,312.3 L239.0,321.7 L239.9,325.5 L240.7,325.8 L241.6,336.8 L242.4,352.2 L243.3,339.6 L244.1,335.8 L244.9,336.5 L245.8,352.2 L246.6,351.8 L247.5,352.2 L248.3,352.5 L249.1,352.8 L250.0,352.2 L250.8,352.2 L251.7,351.8 L252.5,352.8 L253.4,352.2 L254.2,337.4 L255.0,307.6 L255.9,307.9 L256.7,310.7 L257.6,317.9 L258.4,314.8 L259.2,344.3 L260.1,347.8 L260.9,352.5 L261.8,351.8 L262.6,351.8 L263.5,352.2 L264.3,351.5 L265.1,345.3 L266.0,351.8 L266.8,351.5 L267.7,351.8 L268.5,351.2 L269.3,351.5 L270.2,351.2 L271.0,351.8 L271.9,352.5 L272.7,352.2 L273.5,315.7 L274.4,300.0 L275.2,267.4 L276.1,245.4 L276.9,243.8 L277.8,242.9 L278.6,281.5 L279.4,329.2 L280.3,352.5 L281.1,352.5 L282.0,352.5 L282.8,328.6 L283.6,303.8 L284.5,316.0 L285.3,340.5 L286.2,344.6 L287.0,352.8 L287.9,350.3 L288.7,352.8 L289.5,353.4 L290.4,328.6 L291.2,339.3 L292.1,350.3 L292.9,352.8 L293.7,295.0 L294.6,230.6 L295.4,216.8 L296.3,216.5 L297.1,251.3 L298.0,286.5 L298.8,310.7 L299.6,337.4 L300.5,339.6 L301.3,352.2 L302.2,351.5 L303.0,351.5 L303.8,352.8 L304.7,352.5 L305.5,353.7 L306.4,349.0 L307.2,348.4 L308.1,349.0 L308.9,343.4 L309.7,345.6 L310.6,347.5 L311.4,347.8 L312.3,347.8 L313.1,347.1 L313.9,343.4 L314.8,319.8 L315.6,302.5 L316.5,306.0 L317.3,333.6 L318.1,351.8 L319.0,352.2 L319.8,351.8 L320.7,351.5 L321.5,352.2 L322.4,351.8 L323.2,351.8 L324.0,352.5 L324.9,352.8 L325.7,352.8 L326.6,352.8 L327.4,353.7 L328.2,354.0 L329.1,353.4 L329.9,353.7 L330.8,352.2 L331.6,352.5 L332.5,352.2 L333.3,352.5 L334.1,349.0 L335.0,351.5 L335.8,351.8 L336.7,352.2 L337.5,370.7 L338.3,371.0 L339.2,370.7 L340.0,351.8 L340.9,351.5 L341.7,351.2 L342.6,352.2 L343.4,351.8 L344.2,352.8 L345.1,353.1 L345.9,353.1 L346.8,352.5 L347.6,352.5 L348.4,352.5 L349.3,305.7 L350.1,299.1 L351.0,302.2 L351.8,299.1 L352.7,352.2 L353.5,352.5 L354.3,351.5 L355.2,352.5 L356.0,352.5 L356.9,352.2 L357.7,351.8 L358.5,340.9 L359.4,352.2 L360.2,351.5 L361.1,351.5 L361.9,351.5 L362.7,334.6 L363.6,336.1 L364.4,348.7 L365.3,339.9 L366.1,300.3 L367.0,299.1 L367.8,302.5 L368.6,301.9 L369.5,351.8 L370.3,351.8 L371.2,352.5 L372.0,349.0 L372.8,352.2 L373.7,351.8 L374.5,351.8 L375.4,352.5 L376.2,352.8 L377.1,352.5 L377.9,352.5 L378.7,352.5 L379.6,352.2 L380.4,352.5 L381.3,304.7 L382.1,298.8 L382.9,299.7 L383.8,298.5 L384.6,344.6 L385.5,344.3 L386.3,344.9 L387.2,344.3 L388.0,344.3 L388.8,351.8 L389.7,351.8 L390.5,351.5 L391.4,351.8 L392.2,351.5 L393.0,351.2 L393.9,351.5 L394.7,322.6 L395.6,323.0 L396.4,266.1 L397.3,264.5 L398.1,343.1 L398.9,351.5 L399.8,352.5 L400.6,366.9 L401.5,367.9 L402.3,352.5 L403.1,351.8 L404.0,352.2 L404.8,352.2 L405.7,351.2 L406.5,351.5 L407.3,351.8 L408.2,352.2 L409.0,351.8 L409.9,352.2 L410.7,351.8 L411.6,352.2 L412.4,351.8 L413.2,351.8 L414.1,351.8 L414.9,352.2 L415.8,352.5 L416.6,352.5 L417.4,352.5 L418.3,352.5 L419.1,346.8 L420.0,346.5 L420.8,352.5 L421.7,352.5 L422.5,352.5 L423.3,352.5 L424.2,306.3 L425.0,306.3 L425.9,306.3 L426.7,306.9 L427.5,306.3 L428.4,305.7 L429.2,306.6 L430.1,306.6 L430.9,306.6 L431.8,306.6 L432.6,307.3 L433.4,306.0 L434.3,305.7 L435.1,306.3 L436.0,277.1 L436.8,301.6 L437.6,306.3 L438.5,306.0 L439.3,306.6 L440.2,306.6 L441.0,306.3 L441.9,306.6 L442.7,306.6 L443.5,305.7 L444.4,305.4 L445.2,289.0 L446.1,298.5 L446.9,301.3 L447.7,306.0 L448.6,305.7 L449.4,306.3 L450.3,306.6 L451.1,305.4 L451.9,305.4 L452.8,352.2 L453.6,351.8 L454.5,351.8 L455.3,352.5 L456.2,298.1 L457.0,298.5 L457.8,314.5 L458.7,315.1 L459.5,346.5 L460.4,346.8 L461.2,346.2 L462.0,346.5 L462.9,346.2 L463.7,346.5 L464.6,340.2 L465.4,326.1 L466.3,306.9 L467.1,339.3 L467.9,338.7 L468.8,352.5 L469.6,351.8 L470.5,352.2 L471.3,346.8 L472.1,352.2 L473.0,352.2 L473.8,352.2 L474.7,352.8 L475.5,345.9 L476.4,283.4 L477.2,264.9 L478.0,287.8 L478.9,287.2 L479.7,277.1 L480.6,301.9 L481.4,298.8 L482.2,301.9 L483.1,299.1 L483.9,298.8 L484.8,279.6 L485.6,260.8 L486.5,261.1 L487.3,299.4 L488.1,319.5 L489.0,337.7 L489.8,339.6 L490.7,352.2 L491.5,352.5 L492.3,351.8 L493.2,352.2 L494.0,351.5 L494.9,352.5 L495.7,285.6 L496.5,241.9 L497.4,238.5 L498.2,226.2 L499.1,237.8 L499.9,268.9 L500.8,283.1 L501.6,284.3 L502.4,278.4 L503.3,297.5 L504.1,280.2 L505.0,279.6 L505.8,261.7 L506.6,292.8 L507.5,316.0 L508.3,352.8 L509.2,352.5 L510.0,352.5 L510.9,352.8 L511.7,352.5 L512.5,352.5 L513.4,317.3 L514.2,353.7 L515.1,352.8 L515.9,303.5 L516.7,237.5 L517.6,239.4 L518.4,234.7 L519.3,243.8 L520.1,268.3 L521.0,274.6 L521.8,274.0 L522.6,285.6 L523.5,286.8 L524.3,286.8 L525.2,312.9 L526.0,289.3 L526.8,341.2 L527.7,372.3 L528.5,371.6 L529.4,371.6 L530.2,371.6 L531.1,371.9 L531.9,371.3 L532.7,371.6 L533.6,371.6 L534.4,371.9 L535.3,371.6 L536.1,359.7 L536.9,299.4 L537.8,293.1 L538.6,286.5 L539.5,295.9 L540.3,286.8 L541.2,286.2 L542.0,290.9 L542.8,325.5 L543.7,332.1 L544.5,327.4 L545.4,321.7 L546.2,316.4 L547.0,353.7 L547.9,371.9 L548.7,368.8 L549.6,371.3 L550.4,371.9 L551.2,371.3 L552.1,372.3 L552.9,372.6 L553.8,372.6 L554.6,371.9 L555.5,372.6 L556.3,372.3 L557.1,312.3 L558.0,292.2 L558.8,283.7 L559.7,304.1 L560.5,313.2 L561.3,318.6 L562.2,327.7 L563.0,328.0 L563.9,371.3 L564.7,371.6 L565.6,371.6 L566.4,359.7 L567.2,359.4 L568.1,365.7 L568.9,371.9 L569.8,371.0 L570.6,371.6 L571.4,346.8 L572.3,344.6 L573.1,340.5 L574.0,370.4 L574.8,317.6 L575.7,371.3 L576.5,278.4 L577.3,325.5 L578.2,327.4 L579.0,333.6 L579.9,346.5 L580.7,352.5 L581.5,352.5 L582.4,353.7 L583.2,292.5 L584.1,324.5 L584.9,295.6 L585.8,303.5 L586.6,286.2 L587.4,310.7 L588.3,321.1 L589.1,333.3 L590.0,321.1 L590.8,320.4 L591.6,317.9 L592.5,319.2 L593.3,320.4 L594.2,317.3 L595.0,317.6 L595.8,329.2 L596.7,301.0 L597.5,281.2 L598.4,289.7 L599.2,275.5 L600.1,285.9 L600.9,287.5 L601.7,277.7 L602.6,277.1 L603.4,308.2 L604.3,311.0 L605.1,310.1 L605.9,313.2 L606.8,279.9 L607.6,300.3 L608.5,311.3 L609.3,318.2 L610.2,323.0 L611.0,352.5 L611.8,371.0 L612.7,371.0 L613.5,371.3 L614.4,371.3 L615.2,371.0 L616.0,371.0 L616.9,340.2 L617.7,313.2 L618.6,301.3 L619.4,334.3 L620.3,339.9 L621.1,351.8 L621.9,352.5 L622.8,352.8 L623.6,352.8 L624.5,353.1 L625.3,352.2 L626.1,352.5 L627.0,340.5 L627.8,352.5 L628.7,352.8 L629.5,352.8 L630.4,352.5 L631.2,352.2 L632.0,364.4 L632.9,365.0 L633.7,364.7 L634.6,365.0 L635.4,355.9 L636.2,328.0 L637.1,293.1 L637.9,286.8 L638.8,275.2 L639.6,274.9 L640.4,298.8 L641.3,290.6 L642.1,304.4 L643.0,362.2 L643.8,371.3 L644.7,371.3 L645.5,371.0 L646.3,352.2 L647.2,340.9 L648.0,372.3 L648.9,372.3 L649.7,372.6 L650.5,372.3 L651.4,372.6 L652.2,372.9 L653.1,372.6 L653.9,372.3 L654.8,371.6 L655.6,371.9 L656.4,371.3 L657.3,371.3 L658.1,370.7 L659.0,370.7 L659.8,346.2 L660.6,370.7 L661.5,370.7 L662.3,370.7 L663.2,370.4 L664.0,370.7 L664.9,371.0 L665.7,370.7 L666.5,371.0 L667.4,371.3 L668.2,372.3 L669.1,371.6 L669.9,351.8 L670.7,371.6 L671.6,371.3 L672.4,374.1 L673.3,371.6 L674.1,371.9 L675.0,358.8 L675.8,346.2 L676.6,333.9 L677.5,331.7 L678.3,289.7 L679.2,274.6 L680.0,274.0" stroke="#2ca02c" stroke-width="2" fill="none" opacity="0.8"/>
<!-- Solar Generation -->
<path d="M80.0,420.0 L80.8,420.0 L81.7,420.0 L82.5,408.1 L83.4,380.7 L84.2,375.7 L85.0,375.1 L85.9,375.4 L86.7,378.9 L87.6,388.6 L88.4,378.9 L89.3,380.7 L90.1,391.4 L90.9,408.7 L91.8,411.8 L92.6,419.7 L93.5,420.0 L94.3,420.0 L95.1,420.0 L96.0,420.0 L96.8,420.0 L97.7,420.0 L98.5,420.0 L99.4,420.0 L100.2,420.0 L101.0,420.0 L101.9,420.0 L102.7,414.7 L103.6,407.1 L104.4,405.9 L105.2,400.8 L106.1,399.9 L106.9,403.4 L107.8,400.2 L108.6,403.0 L109.5,407.1 L110.3,403.0 L111.1,416.9 L112.0,419.4 L112.8,418.7 L113.7,420.0 L114.5,420.0 L115.3,420.0 L116.2,420.0 L117.0,420.0 L117.9,420.0 L118.7,420.0 L119.6,420.0 L120.4,420.0 L121.2,420.0 L122.1,420.0 L122.9,403.4 L123.8,387.3 L124.6,395.5 L125.4,393.9 L126.3,390.2 L127.1,386.1 L128.0,395.2 L128.8,402.1 L129.6,405.9 L130.5,415.0 L131.3,403.7 L132.2,416.2 L133.0,418.7 L133.9,420.0 L134.7,420.0 L135.5,420.0 L136.4,420.0 L137.2,420.0 L138.1,420.0 L138.9,420.0 L139.7,420.0 L140.6,420.0 L141.4,420.0 L142.3,420.0 L143.1,415.3 L144.0,392.0 L144.8,415.6 L145.6,411.2 L146.5,407.8 L147.3,407.1 L148.2,406.8 L149.0,409.0 L149.8,409.6 L150.7,415.6 L151.5,415.0 L152.4,398.0 L153.2,417.5 L154.1,420.0 L154.9,420.0 L155.7,420.0 L156.6,420.0 L157.4,420.0 L158.3,420.0 L159.1,420.0 L159.9,420.0 L160.8,420.0 L161.6,420.0 L162.5,419.7 L163.3,415.3 L164.2,376.7 L165.0,393.3 L165.8,388.9 L166.7,381.7 L167.5,389.8 L168.4,405.6 L169.2,380.7 L170.0,399.9 L170.9,404.9 L171.7,413.4 L172.6,407.4 L173.4,418.1 L174.2,420.0 L175.1,420.0 L175.9,420.0 L176.8,420.0 L177.6,420.0 L178.5,420.0 L179.3,420.0 L180.1,420.0 L181.0,420.0 L181.8,420.0 L182.7,419.7 L183.5,416.2 L184.3,415.6 L185.2,411.2 L186.0,403.0 L186.9,402.7 L187.7,396.8 L188.6,399.3 L189.4,391.7 L190.2,390.5 L191.1,393.3 L191.9,409.6 L192.8,411.2 L193.6,419.4 L194.4,420.0 L195.3,420.0 L196.1,420.0 L197.0,420.0 L197.8,420.0 L198.7,420.0 L199.5,420.0 L200.3,420.0 L201.2,420.0 L202.0,420.0 L202.9,419.7 L203.7,417.2 L204.5,402.1 L205.4,412.8 L206.2,407.1 L207.1,412.1 L207.9,407.8 L208.8,404.9 L209.6,410.9 L210.4,411.5 L211.3,412.5 L212.1,414.3 L213.0,415.3 L213.8,418.1 L214.6,420.0 L215.5,420.0 L216.3,420.0 L217.2,420.0 L218.0,420.0 L218.8,420.0 L219.7,420.0 L220.5,420.0 L221.4,420.0 L222.2,420.0 L223.1,418.4 L223.9,402.4 L224.7,393.9 L225.6,403.7 L226.4,404.3 L227.3,405.9 L228.1,405.6 L228.9,399.6 L229.8,396.8 L230.6,408.7 L231.5,411.5 L232.3,411.5 L233.2,399.9 L234.0,416.9 L234.8,420.0 L235.7,420.0 L236.5,420.0 L237.4,420.0 L238.2,420.0 L239.0,420.0 L239.9,420.0 L240.7,420.0 L241.6,420.0 L242.4,420.0 L243.3,419.1 L244.1,403.0 L244.9,399.9 L245.8,398.6 L246.6,398.3 L247.5,398.0 L248.3,397.7 L249.1,397.7 L250.0,373.5 L250.8,374.5 L251.7,399.3 L252.5,404.9 L253.4,401.5 L254.2,417.5 L255.0,420.0 L255.9,420.0 L256.7,420.0 L257.6,420.0 L258.4,420.0 L259.2,420.0 L260.1,420.0 L260.9,420.0 L261.8,420.0 L262.6,420.0 L263.5,419.1 L264.3,406.2 L265.1,399.3 L266.0,398.6 L266.8,398.6 L267.7,398.0 L268.5,398.0 L269.3,397.7 L270.2,398.0 L271.0,398.3 L271.9,398.6 L272.7,376.3 L273.5,393.0 L274.4,417.2 L275.2,420.0 L276.1,420.0 L276.9,420.0 L277.8,420.0 L278.6,420.0 L279.4,420.0 L280.3,420.0 L281.1,420.0 L282.0,420.0 L282.8,420.0 L283.6,419.4 L284.5,406.2 L285.3,400.2 L286.2,375.4 L287.0,375.1 L287.9,399.0 L288.7,398.6 L289.5,374.8 L290.4,375.4 L291.2,383.6 L292.1,386.1 L292.9,380.1 L293.7,399.9 L294.6,417.8 L295.4,420.0 L296.3,420.0 L297.1,420.0 L298.0,420.0 L298.8,420.0 L299.6,420.0 L300.5,420.0 L301.3,420.0 L302.2,420.0 L303.0,420.0 L303.8,418.4 L304.7,409.6 L305.5,379.8 L306.4,379.5 L307.2,378.9 L308.1,382.6 L308.9,387.7 L309.7,389.8 L310.6,391.4 L311.4,390.5 L312.3,403.7 L313.1,409.3 L313.9,411.5 L314.8,418.1 L315.6,420.0 L316.5,420.0 L317.3,420.0 L318.1,420.0 L319.0,420.0 L319.8,420.0 L320.7,420.0 L321.5,420.0 L322.4,420.0 L323.2,420.0 L324.0,419.7 L324.9,396.4 L325.7,399.3 L326.6,395.8 L327.4,395.8 L328.2,403.4 L329.1,409.6 L329.9,411.8 L330.8,413.1 L331.6,413.7 L332.5,400.2 L333.3,416.9 L334.1,418.1 L335.0,419.7 L335.8,420.0 L336.7,420.0 L337.5,420.0 L338.3,420.0 L339.2,420.0 L340.0,420.0 L340.9,420.0 L341.7,420.0 L342.6,420.0 L343.4,420.0 L344.2,419.7 L345.1,404.6 L345.9,413.4 L346.8,403.7 L347.6,402.4 L348.4,400.2 L349.3,399.3 L350.1,399.6 L351.0,411.8 L351.8,414.7 L352.7,415.3 L353.5,415.6 L354.3,416.5 L355.2,417.2 L356.0,419.4 L356.9,419.4 L357.7,419.4 L358.5,419.4 L359.4,419.4 L360.2,419.4 L361.1,419.4 L361.9,419.4 L362.7,419.4 L363.6,419.4 L364.4,418.1 L365.3,414.3 L366.1,389.8 L367.0,395.2 L367.8,400.2 L368.6,403.0 L369.5,404.6 L370.3,398.6 L371.2,401.5 L372.0,406.8 L372.8,413.4 L373.7,404.6 L374.5,415.0 L375.4,416.5 L376.2,420.0 L377.1,420.0 L377.9,420.0 L378.7,420.0 L379.6,420.0 L380.4,420.0 L381.3,420.0 L382.1,420.0 L382.9,420.0 L383.8,420.0 L384.6,419.1 L385.5,414.0 L386.3,403.0 L387.2,396.8 L388.0,383.6 L388.8,404.0 L389.7,409.3 L390.5,400.2 L391.4,407.4 L392.2,403.4 L393.0,393.3 L393.9,411.2 L394.7,405.2 L395.6,416.5 L396.4,420.0 L397.3,420.0 L398.1,420.0 L398.9,420.0 L399.8,420.0 L400.6,420.0 L401.5,420.0 L402.3,420.0 L403.1,420.0 L404.0,420.0 L404.8,418.4 L405.7,414.7 L406.5,406.8 L407.3,409.0 L408.2,408.7 L409.0,410.9 L409.9,412.1 L410.7,411.8 L411.6,412.8 L412.4,412.8 L413.2,414.7 L414.1,415.9 L414.9,415.0 L415.8,419.1 L416.6,420.0 L417.4,420.0 L418.3,420.0 L419.1,420.0 L420.0,420.0 L420.8,420.0 L421.7,420.0 L422.5,420.0 L423.3,420.0 L424.2,420.0 L425.0,420.0 L425.9,417.2 L426.7,414.3 L427.5,409.6 L428.4,407.4 L429.2,399.6 L430.1,391.7 L430.9,397.4 L431.8,409.3 L432.6,409.6 L433.4,411.2 L434.3,402.4 L435.1,406.2 L436.0,413.7 L436.8,420.0 L437.6,420.0 L438.5,420.0 L439.3,420.0 L440.2,420.0 L441.0,420.0 L441.9,420.0 L442.7,420.0 L443.5,420.0 L444.4,420.0 L445.2,418.7 L446.1,413.4 L446.9,413.1 L447.7,402.4 L448.6,399.3 L449.4,411.2 L450.3,411.5 L451.1,407.1 L451.9,411.5 L452.8,410.9 L453.6,400.2 L454.5,414.7 L455.3,414.3 L456.2,415.3 L457.0,420.0 L457.8,420.0 L458.7,420.0 L459.5,420.0 L460.4,420.0 L461.2,420.0 L462.0,420.0 L462.9,420.0 L463.7,420.0 L464.6,420.0 L465.4,415.6 L466.3,401.2 L467.1,399.3 L467.9,406.5 L468.8,399.6 L469.6,406.5 L470.5,410.3 L471.3,411.2 L472.1,404.9 L473.0,388.9 L473.8,401.8 L474.7,394.9 L475.5,400.8 L476.4,417.5 L477.2,420.0 L478.0,420.0 L478.9,420.0 L479.7,420.0 L480.6,420.0 L481.4,420.0 L482.2,420.0 L483.1,420.0 L483.9,420.0 L484.8,420.0 L485.6,417.2 L486.5,390.8 L487.3,375.7 L488.1,374.5 L489.0,392.7 L489.8,398.3 L490.7,376.3 L491.5,374.1 L492.3,374.5 L493.2,375.1 L494.0,375.4 L494.9,375.1 L495.7,386.7 L496.5,413.1 L497.4,420.0 L498.2,420.0 L499.1,420.0 L499.9,420.0 L500.8,420.0 L501.6,420.0 L502.4,420.0 L503.3,420.0 L504.1,420.0 L505.0,420.0 L505.8,415.9 L506.6,389.2 L507.5,374.5 L508.3,374.5 L509.2,374.1 L510.0,373.8 L510.9,373.8 L511.7,374.8 L512.5,373.8 L513.4,374.1 L514.2,375.1 L515.1,375.1 L515.9,386.7 L516.7,412.1 L517.6,420.0 L518.4,420.0 L519.3,420.0 L520.1,420.0 L521.0,420.0 L521.8,420.0 L522.6,420.0 L523.5,420.0 L524.3,420.0 L525.2,420.0 L526.0,415.3 L526.8,390.2 L527.7,401.8 L528.5,394.2 L529.4,379.2 L530.2,375.1 L531.1,374.8 L531.9,398.6 L532.7,398.6 L533.6,401.5 L534.4,403.4 L535.3,398.3 L536.1,408.7 L536.9,414.0 L537.8,420.0 L538.6,420.0 L539.5,420.0 L540.3,420.0 L541.2,420.0 L542.0,420.0 L542.8,420.0 L543.7,420.0 L544.5,420.0 L545.4,420.0 L546.2,417.5 L547.0,389.2 L547.9,398.6 L548.7,398.3 L549.6,398.0 L550.4,397.7 L551.2,378.9 L552.1,401.2 L552.9,397.7 L553.8,396.4 L554.6,381.4 L555.5,375.1 L556.3,390.8 L557.1,411.8 L558.0,420.0 L558.8,420.0 L559.7,420.0 L560.5,420.0 L561.3,420.0 L562.2,420.0 L563.0,420.0 L563.9,420.0 L564.7,420.0 L565.6,420.0 L566.4,417.2 L567.2,401.8 L568.1,394.6 L568.9,390.5 L569.8,386.7 L570.6,385.5 L571.4,387.0 L572.3,387.3 L573.1,393.3 L574.0,395.2 L574.8,403.0 L575.7,400.8 L576.5,405.6 L577.3,417.5 L578.2,420.0 L579.0,420.0 L579.9,420.0 L580.7,420.0 L581.5,420.0 L582.4,420.0 L583.2,420.0 L584.1,420.0 L584.9,420.0 L585.8,420.0 L586.6,413.7 L587.4,398.6 L588.3,377.3 L589.1,386.4 L590.0,382.9 L590.8,388.6 L591.6,395.8 L592.5,388.3 L593.3,377.6 L594.2,375.7 L595.0,398.6 L595.8,393.9 L596.7,410.3 L597.5,414.0 L598.4,420.0 L599.2,420.0 L600.1,420.0 L600.9,420.0 L601.7,420.0 L602.6,420.0 L603.4,420.0 L604.3,420.0 L605.1,420.0 L605.9,420.0 L606.8,412.5 L607.6,385.8 L608.5,374.5 L609.3,374.1 L610.2,374.1 L611.0,373.8 L611.8,373.8 L612.7,391.1 L613.5,394.6 L614.4,398.3 L615.2,402.7 L616.0,393.3 L616.9,386.7 L617.7,415.3 L618.6,420.0 L619.4,420.0 L620.3,420.0 L621.1,420.0 L621.9,420.0 L622.8,420.0 L623.6,420.0 L624.5,420.0 L625.3,420.0 L626.1,420.0 L627.0,418.7 L627.8,415.3 L628.7,400.2 L629.5,395.2 L630.4,396.4 L631.2,391.7 L632.0,384.8 L632.9,382.0 L633.7,394.2 L634.6,390.5 L635.4,391.7 L636.2,403.0 L637.1,391.7 L637.9,412.5 L638.8,420.0 L639.6,420.0 L640.4,420.0 L641.3,420.0 L642.1,420.0 L643.0,420.0 L643.8,420.0 L644.7,420.0 L645.5,420.0 L646.3,420.0 L647.2,413.4 L648.0,389.8 L648.9,378.5 L649.7,409.0 L650.5,409.9 L651.4,397.7 L652.2,398.0 L653.1,407.8 L653.9,406.8 L654.8,400.5 L655.6,403.4 L656.4,404.9 L657.3,412.8 L658.1,417.2 L659.0,420.0 L659.8,420.0 L660.6,420.0 L661.5,420.0 L662.3,420.0 L663.2,420.0 L664.0,420.0 L664.9,420.0 L665.7,420.0 L666.5,420.0 L667.4,416.5 L668.2,414.3 L669.1,412.1 L669.9,389.2 L670.7,382.6 L671.6,389.8 L672.4,400.8 L673.3,399.9 L674.1,398.0 L675.0,398.3 L675.8,408.7 L676.6,398.6 L677.5,412.5 L678.3,409.9 L679.2,420.0 L680.0,420.0" stroke="#d62728" stroke-width="2" fill="none" opacity="0.8"/>
<!-- Forecast -->
<path d="M80.0,246.0 L80.8,230.9 L81.7,204.6 L82.5,175.0 L83.4,156.8 L84.2,154.6 L85.0,156.5 L85.9,162.2 L86.7,165.6 L87.6,169.4 L88.4,171.9 L89.3,173.1 L90.1,172.8 L90.9,170.9 L91.8,176.0 L92.6,183.8 L93.5,186.3 L94.3,189.5 L95.1,207.7 L96.0,233.8 L96.8,248.2 L97.7,257.3 L98.5,263.0 L99.4,265.8 L100.2,265.2 L101.0,262.0 L101.9,252.6 L102.7,237.2 L103.6,219.0 L104.4,205.8 L105.2,199.5 L106.1,200.2 L106.9,199.2 L107.8,203.0 L108.6,208.0 L109.5,209.6 L110.3,207.7 L111.1,204.2 L112.0,204.6 L112.8,207.4 L113.7,205.5 L114.5,203.9 L115.3,215.9 L116.2,234.1 L117.0,248.8 L117.9,257.0 L118.7,263.0 L119.6,264.9 L120.4,263.6 L121.2,258.9 L122.1,249.1 L122.9,236.6 L123.8,217.1 L124.6,204.6 L125.4,201.7 L126.3,196.1 L127.1,195.8 L128.0,199.5 L128.8,202.0 L129.6,202.0 L130.5,200.5 L131.3,192.6 L132.2,191.7 L133.0,192.9 L133.9,191.7 L134.7,193.6 L135.5,209.3 L136.4,225.0 L137.2,243.2 L138.1,252.6 L138.9,257.3 L139.7,259.8 L140.6,257.0 L141.4,244.1 L142.3,214.6 L143.1,181.3 L144.0,160.0 L144.8,154.6 L145.6,153.7 L146.5,157.4 L147.3,160.9 L148.2,164.4 L149.0,167.2 L149.8,168.1 L150.7,168.7 L151.5,168.7 L152.4,173.8 L153.2,176.3 L154.1,175.3 L154.9,180.7 L155.7,201.4 L156.6,225.0 L157.4,239.1 L158.3,248.8 L159.1,253.5 L159.9,256.1 L160.8,252.9 L161.6,239.1 L162.5,210.8 L163.3,179.1 L164.2,158.7 L165.0,154.0 L165.8,153.0 L166.7,156.8 L167.5,160.6 L168.4,164.0 L169.2,167.2 L170.0,168.4 L170.9,169.1 L171.7,169.4 L172.6,174.1 L173.4,178.5 L174.2,178.2 L175.1,182.3 L175.9,202.0 L176.8,224.7 L177.6,241.9 L178.5,251.3 L179.3,256.4 L180.1,258.9 L181.0,256.1 L181.8,243.5 L182.7,214.0 L183.5,181.0 L184.3,161.2 L185.2,156.5 L186.0,155.2 L186.9,158.1 L187.7,160.9 L188.6,164.0 L189.4,166.5 L190.2,167.5 L191.1,167.5 L191.9,167.2 L192.8,172.2 L193.6,176.0 L194.4,175.0 L195.3,178.8 L196.1,198.9 L197.0,371.9 L197.8,234.7 L198.7,243.5 L199.5,247.0 L200.3,247.6 L201.2,242.9 L202.0,229.4 L202.9,198.6 L203.7,163.4 L204.5,143.9 L205.4,138.0 L206.2,138.9 L207.1,142.4 L207.9,147.4 L208.8,150.8 L209.6,154.0 L210.4,156.2 L211.3,155.2 L212.1,153.7 L213.0,155.9 L213.8,156.8 L214.6,154.0 L215.5,163.4 L216.3,182.9 L217.2,208.3 L218.0,220.3 L218.8,227.8 L219.7,232.2 L220.5,233.4 L221.4,230.6 L222.2,218.1 L223.1,189.2 L223.9,157.1 L224.7,141.1 L225.6,138.0 L226.4,140.5 L227.3,143.9 L228.1,148.6 L228.9,152.7 L229.8,156.8 L230.6,158.1 L231.5,157.4 L232.3,157.4 L233.2,161.8 L234.0,162.5 L234.8,158.4 L235.7,167.5 L236.5,186.6 L237.4,216.2 L238.2,223.1 L239.0,226.5 L239.9,231.2 L240.7,233.8 L241.6,231.6 L242.4,223.7 L243.3,213.0 L244.1,199.5 L244.9,181.6 L245.8,172.5 L246.6,172.5 L247.5,179.4 L248.3,183.5 L249.1,187.9 L250.0,192.6 L250.8,196.1 L251.7,196.7 L252.5,195.8 L253.4,193.9 L254.2,192.9 L255.0,187.0 L255.9,188.2 L256.7,202.0 L257.6,231.6 L258.4,236.0 L259.2,240.7 L260.1,245.4 L260.9,247.0 L261.8,245.4 L262.6,240.4 L263.5,233.4 L264.3,223.4 L265.1,206.7 L266.0,196.4 L266.8,197.3 L267.7,194.5 L268.5,195.8 L269.3,201.7 L270.2,204.6 L271.0,203.3 L271.9,199.8 L272.7,199.2 L273.5,193.2 L274.4,198.0 L275.2,199.8 L276.1,198.3 L276.9,209.9 L277.8,230.3 L278.6,245.1 L279.4,253.2 L280.3,258.6 L281.1,260.5 L282.0,257.0 L282.8,242.9 L283.6,216.8 L284.5,187.6 L285.3,170.0 L286.2,166.5 L287.0,163.7 L287.9,163.4 L288.7,164.0 L289.5,164.7 L290.4,165.3 L291.2,161.5 L292.1,158.1 L292.9,160.0 L293.7,168.7 L294.6,176.3 L295.4,180.7 L296.3,183.2 L297.1,202.4 L298.0,225.9 L298.8,246.3 L299.6,255.7 L300.5,262.3 L301.3,264.5 L302.2,262.0 L303.0,248.5 L303.8,223.4 L304.7,195.4 L305.5,177.2 L306.4,170.6 L307.2,163.4 L308.1,159.6 L308.9,158.4 L309.7,156.5 L310.6,155.2 L311.4,152.1 L312.3,147.1 L313.1,148.6 L313.9,161.5 L314.8,170.9 L315.6,176.6 L316.5,178.5 L317.3,198.6 L318.1,224.7 L319.0,243.5 L319.8,252.9 L320.7,258.9 L321.5,262.0 L322.4,262.0 L323.2,251.3 L324.0,226.5 L324.9,198.0 L325.7,176.9 L326.6,168.1 L327.4,162.5 L328.2,160.6 L329.1,161.2 L329.9,163.4 L330.8,166.2 L331.6,167.2 L332.5,167.5 L333.3,167.5 L334.1,172.2 L335.0,176.6 L335.8,176.6 L336.7,180.4 L337.5,200.5 L338.3,214.0 L339.2,238.2 L340.0,249.5 L340.9,252.9 L341.7,255.4 L342.6,252.6 L343.4,239.4 L344.2,207.4 L345.1,172.2 L345.9,151.2 L346.8,144.6 L347.6,144.9 L348.4,146.1 L349.3,150.2 L350.1,153.7 L351.0,157.1 L351.8,158.4 L352.7,156.8 L353.5,156.8 L354.3,159.0 L355.2,161.8 L356.0,158.7 L356.9,167.8 L357.7,188.5 L358.5,206.4 L359.4,225.0 L360.2,233.4 L361.1,237.5 L361.9,239.1 L362.7,236.3 L363.6,223.4 L364.4,192.0 L365.3,159.6 L366.1,142.7 L367.0,138.0 L367.8,139.5 L368.6,143.3 L369.5,148.6 L370.3,152.4 L371.2,155.9 L372.0,158.1 L372.8,156.5 L373.7,156.5 L374.5,160.3 L375.4,160.3 L376.2,156.2 L377.1,164.0 L377.9,183.5 L378.7,208.0 L379.6,219.6 L380.4,224.7 L381.3,228.7 L382.1,229.7 L382.9,228.7 L383.8,219.9 L384.6,207.4 L385.5,194.2 L386.3,178.5 L387.2,170.0 L388.0,165.0 L388.8,170.0 L389.7,175.3 L390.5,182.9 L391.4,184.8 L392.2,184.1 L393.0,185.4 L393.9,181.0 L394.7,181.6 L395.6,179.7 L396.4,172.8 L397.3,176.6 L398.1,192.6 L398.9,370.7 L399.8,222.5 L400.6,228.1 L401.5,231.9 L402.3,234.7 L403.1,233.4 L404.0,230.3 L404.8,220.3 L405.7,207.1 L406.5,192.6 L407.3,177.9 L408.2,169.7 L409.0,167.8 L409.9,170.3 L410.7,173.1 L411.6,177.2 L412.4,179.1 L413.2,176.3 L414.1,169.1 L414.9,171.3 L415.8,165.9 L416.6,162.5 L417.4,169.4 L418.3,190.4 L419.1,214.9 L420.0,228.7 L420.8,235.6 L421.7,239.4 L422.5,241.0 L423.3,237.2 L424.2,224.0 L425.0,194.2 L425.9,163.1 L426.7,170.6 L427.5,170.3 L428.4,164.0 L429.2,169.4 L430.1,174.1 L430.9,182.3 L431.8,184.8 L432.6,182.6 L433.4,185.1 L434.3,179.7 L435.1,181.0 L436.0,179.7 L436.8,172.8 L437.6,176.3 L438.5,192.0 L439.3,196.4 L440.2,230.3 L441.0,238.2 L441.9,242.6 L442.7,243.5 L443.5,240.4 L444.4,226.5 L445.2,198.9 L446.1,174.1 L446.9,157.1 L447.7,153.4 L448.6,153.4 L449.4,157.8 L450.3,161.2 L451.1,164.7 L451.9,167.8 L452.8,169.1 L453.6,169.4 L454.5,169.7 L455.3,174.4 L456.2,178.5 L457.0,176.3 L457.8,179.7 L458.7,199.8 L459.5,223.1 L460.4,237.8 L461.2,245.7 L462.0,248.8 L462.9,250.7 L463.7,247.9 L464.6,232.2 L465.4,205.2 L466.3,175.7 L467.1,157.1 L467.9,153.4 L468.8,153.4 L469.6,158.1 L470.5,161.5 L471.3,165.0 L472.1,167.8 L473.0,169.1 L473.8,169.4 L474.7,170.0 L475.5,174.7 L476.4,178.8 L477.2,176.6 L478.0,180.1 L478.9,200.2 L479.7,225.0 L480.6,238.8 L481.4,245.1 L482.2,247.0 L483.1,248.5 L483.9,245.1 L484.8,229.7 L485.6,203.3 L486.5,175.3 L487.3,158.4 L488.1,155.2 L489.0,155.2 L489.8,159.6 L490.7,162.8 L491.5,166.2 L492.3,169.1 L493.2,170.3 L494.0,170.9 L494.9,170.3 L495.7,175.0 L496.5,180.4 L497.4,180.1 L498.2,190.1 L499.1,204.2 L499.9,225.0 L500.8,221.5 L501.6,239.7 L502.4,247.0 L503.3,248.5 L504.1,245.1 L505.0,229.7 L505.8,203.3 L506.6,175.0 L507.5,158.4 L508.3,155.2 L509.2,155.2 L510.0,159.6 L510.9,162.8 L511.7,166.2 L512.5,169.1 L513.4,170.3 L514.2,170.9 L515.1,170.3 L515.9,175.0 L516.7,180.4 L517.6,180.1 L518.4,183.2 L519.3,202.0 L520.1,225.0 L521.0,221.5 L521.8,240.0 L522.6,247.0 L523.5,248.5 L524.3,245.1 L525.2,229.7 L526.0,203.3 L526.8,175.0 L527.7,158.4 L528.5,155.2 L529.4,155.2 L530.2,159.6 L531.1,162.8 L531.9,166.2 L532.7,169.1 L533.6,170.3 L534.4,170.9 L535.3,170.3 L536.1,175.0 L536.9,180.4 L537.8,180.1 L538.6,183.2 L539.5,202.0 L540.3,216.2 L541.2,219.0 L542.0,235.3 L542.8,244.8 L543.7,247.6 L544.5,246.6 L545.4,241.9 L546.2,235.0 L547.0,223.7 L547.9,208.6 L548.7,193.9 L549.6,186.0 L550.4,181.9 L551.2,181.6 L552.1,186.0 L552.9,187.0 L553.8,184.1 L554.6,180.4 L555.5,179.1 L556.3,171.9 L557.1,176.6 L558.0,180.7 L558.8,177.5 L559.7,187.6 L560.5,203.3 L561.3,222.5 L562.2,232.5 L563.0,238.8 L563.9,241.3 L564.7,238.8 L565.6,226.2 L566.4,202.0 L567.2,175.0 L568.1,156.8 L568.9,148.3 L569.8,143.0 L570.6,142.7 L571.4,142.4 L572.3,143.3 L573.1,143.9 L574.0,145.2 L574.8,144.6 L575.7,142.7 L576.5,148.3 L577.3,154.6 L578.2,156.2 L579.0,157.8 L579.9,175.3 L580.7,198.3 L581.5,222.1 L582.4,228.1 L583.2,230.0 L584.1,232.2 L584.9,229.0 L585.8,214.3 L586.6,188.2 L587.4,158.1 L588.3,138.9 L589.1,132.9 L590.0,132.3 L590.8,135.8 L591.6,137.7 L592.5,140.8 L593.3,142.7 L594.2,144.6 L595.0,145.2 L595.8,144.6 L596.7,148.6 L597.5,152.7 L598.4,150.8 L599.2,153.4 L600.1,172.5 L600.9,366.6 L601.7,266.1 L602.6,374.8 L603.4,420.0 L604.3,420.0 L605.1,420.0 L605.9,420.0 L606.8,420.0 L607.6,420.0 L608.5,420.0 L609.3,420.0 L610.2,420.0 L611.0,420.0 L611.8,420.0 L612.7,420.0 L613.5,420.0 L614.4,420.0 L615.2,420.0 L616.0,420.0 L616.9,420.0 L617.7,420.0 L618.6,420.0 L619.4,420.0 L620.3,420.0 L621.1,262.0 L621.9,224.7 L622.8,237.2 L623.6,245.1 L624.5,247.3 L625.3,246.0 L626.1,234.7 L627.0,211.5 L627.8,184.5 L628.7,165.6 L629.5,156.8 L630.4,150.8 L631.2,150.2 L632.0,149.6 L632.9,151.2 L633.7,152.4 L634.6,154.0 L635.4,153.7 L636.2,152.1 L637.1,156.8 L637.9,163.1 L638.8,164.7 L639.6,166.5 L640.4,184.1 L641.3,209.3 L642.1,229.4 L643.0,240.7 L643.8,247.6 L644.7,249.5 L645.5,247.0 L646.3,234.1 L647.2,210.5 L648.0,184.5 L648.9,166.5 L649.7,158.4 L650.5,152.4 L651.4,151.8 L652.2,151.8 L653.1,152.7 L653.9,153.7 L654.8,153.0 L655.6,153.4 L656.4,152.1 L657.3,156.5 L658.1,162.2 L659.0,165.0 L659.8,166.2 L660.6,183.8 L661.5,216.5 L662.3,231.2 L663.2,241.0 L664.0,247.6 L664.9,251.3 L665.7,251.7 L666.5,247.9 L667.4,242.2 L668.2,227.2 L669.1,209.9 L669.9,196.4 L670.7,187.6 L671.6,187.0 L672.4,186.6 L673.3,192.3 L674.1,199.5 L675.0,199.5 L675.8,194.8 L676.6,191.4 L677.5,192.0 L678.3,195.4 L679.2,192.9 L680.0,192.0" stroke="#9467bd" stroke-width="2" fill="none" opacity="0.8"/>
<!-- Total Generation -->
<path d="M80.0,147.1 L80.8,138.0 L81.7,136.4 L82.5,120.4 L83.4,95.9 L84.2,94.3 L85.0,89.9 L85.9,101.5 L86.7,107.2 L87.6,133.9 L88.4,170.9 L89.3,144.6 L90.1,189.5 L90.9,193.2 L91.8,129.8 L92.6,108.4 L93.5,106.2 L94.3,134.5 L95.1,137.7 L96.0,158.7 L96.8,200.2 L97.7,205.2 L98.5,219.9 L99.4,214.6 L100.2,213.3 L101.0,214.0 L101.9,197.3 L102.7,205.2 L103.6,254.2 L104.4,242.9 L105.2,245.4 L106.1,234.4 L106.9,229.4 L107.8,223.7 L108.6,201.7 L109.5,187.3 L110.3,185.4 L111.1,195.4 L112.0,217.1 L112.8,181.6 L113.7,138.0 L114.5,107.8 L115.3,145.2 L116.2,172.8 L117.0,195.4 L117.9,190.1 L118.7,194.5 L119.6,177.5 L120.4,183.2 L121.2,198.0 L122.1,203.0 L122.9,193.6 L123.8,177.5 L124.6,214.6 L125.4,219.6 L126.3,200.8 L127.1,207.4 L128.0,213.7 L128.8,193.2 L129.6,207.1 L130.5,192.6 L131.3,187.6 L132.2,186.3 L133.0,200.8 L133.9,209.6 L134.7,202.0 L135.5,212.4 L136.4,261.1 L137.2,267.4 L138.1,268.9 L138.9,268.3 L139.7,261.4 L140.6,230.9 L141.4,233.8 L142.3,183.2 L143.1,185.4 L144.0,176.3 L144.8,172.8 L145.6,171.6 L146.5,172.2 L147.3,176.9 L148.2,198.9 L149.0,171.6 L149.8,190.1 L150.7,194.5 L151.5,201.7 L152.4,147.4 L153.2,168.4 L154.1,168.1 L154.9,162.2 L155.7,153.0 L156.6,169.1 L157.4,179.4 L158.3,169.1 L159.1,159.3 L159.9,153.4 L160.8,158.7 L161.6,144.6 L162.5,147.4 L163.3,132.6 L164.2,94.0 L165.0,132.6 L165.8,153.4 L166.7,122.6 L167.5,112.8 L168.4,138.6 L169.2,122.6 L170.0,144.3 L170.9,142.7 L171.7,162.8 L172.6,145.2 L173.4,166.2 L174.2,180.7 L175.1,190.1 L175.9,193.9 L176.8,189.5 L177.6,188.8 L178.5,187.9 L179.3,192.0 L180.1,207.4 L181.0,184.1 L181.8,194.2 L182.7,173.8 L183.5,145.5 L184.3,179.7 L185.2,230.9 L186.0,221.8 L186.9,206.1 L187.7,205.8 L188.6,206.4 L189.4,153.7 L190.2,176.3 L191.1,170.6 L191.9,214.3 L192.8,189.2 L193.6,203.0 L194.4,197.0 L195.3,125.4 L196.1,154.0 L197.0,165.9 L197.8,196.4 L198.7,184.8 L199.5,179.1 L200.3,188.8 L201.2,201.4 L202.0,170.0 L202.9,158.4 L203.7,128.9 L204.5,148.6 L205.4,152.4 L206.2,141.1 L207.1,178.8 L207.9,172.2 L208.8,184.8 L209.6,207.1 L210.4,228.1 L211.3,233.1 L212.1,223.1 L213.0,205.8 L213.8,188.8 L214.6,190.4 L215.5,201.7 L216.3,196.1 L217.2,173.5 L218.0,176.9 L218.8,194.8 L219.7,210.5 L220.5,218.7 L221.4,201.4 L222.2,189.5 L223.1,181.9 L223.9,157.4 L224.7,143.3 L225.6,155.6 L226.4,177.2 L227.3,201.1 L228.1,187.9 L228.9,198.6 L229.8,162.8 L230.6,186.6 L231.5,215.5 L232.3,185.7 L233.2,162.2 L234.0,157.8 L234.8,167.5 L235.7,178.8 L236.5,183.8 L237.4,187.0 L238.2,188.8 L239.0,197.3 L239.9,187.6 L240.7,166.5 L241.6,176.6 L242.4,179.4 L243.3,163.7 L244.1,141.7 L244.9,168.4 L245.8,152.1 L246.6,179.1 L247.5,180.1 L248.3,182.9 L249.1,205.2 L250.0,185.1 L250.8,189.5 L251.7,216.2 L252.5,224.7 L253.4,221.2 L254.2,220.3 L255.0,194.2 L255.9,202.7 L256.7,210.5 L257.6,219.6 L258.4,204.6 L259.2,221.8 L260.1,230.9 L260.9,227.8 L261.8,214.0 L262.6,219.9 L263.5,198.6 L264.3,219.3 L265.1,203.0 L266.0,202.0 L266.8,224.7 L267.7,228.4 L268.5,223.1 L269.3,203.0 L270.2,216.2 L271.0,206.1 L271.9,201.1 L272.7,157.1 L273.5,143.0 L274.4,170.0 L275.2,156.8 L276.1,144.3 L276.9,140.8 L277.8,129.8 L278.6,165.0 L279.4,210.8 L280.3,230.9 L281.1,208.6 L282.0,203.0 L282.8,171.3 L283.6,163.7 L284.5,169.7 L285.3,192.0 L286.2,176.9 L287.0,185.4 L287.9,215.5 L288.7,212.7 L289.5,172.2 L290.4,141.4 L291.2,154.3 L292.1,174.4 L292.9,197.3 L293.7,173.8 L294.6,133.3 L295.4,125.7 L296.3,119.1 L297.1,160.3 L298.0,195.8 L298.8,217.4 L299.6,239.4 L300.5,227.5 L301.3,242.2 L302.2,243.2 L303.0,243.8 L303.8,243.8 L304.7,235.6 L305.5,213.7 L306.4,219.0 L307.2,218.7 L308.1,221.5 L308.9,217.1 L309.7,222.1 L310.6,219.0 L311.4,211.5 L312.3,202.0 L313.1,197.3 L313.9,195.4 L314.8,215.9 L315.6,198.3 L316.5,186.0 L317.3,222.1 L318.1,245.1 L319.0,244.4 L319.8,250.4 L320.7,255.1 L321.5,241.9 L322.4,234.1 L323.2,230.6 L324.0,239.4 L324.9,208.6 L325.7,198.9 L326.6,183.8 L327.4,170.9 L328.2,170.0 L329.1,175.0 L329.9,237.5 L330.8,201.1 L331.6,185.1 L332.5,174.1 L333.3,192.3 L334.1,189.5 L335.0,166.5 L335.8,137.0 L336.7,138.9 L337.5,162.5 L338.3,167.5 L339.2,166.5 L340.0,156.8 L340.9,163.1 L341.7,155.2 L342.6,165.3 L343.4,164.0 L344.2,172.5 L345.1,160.0 L345.9,188.5 L346.8,191.0 L347.6,190.7 L348.4,175.3 L349.3,151.5 L350.1,148.6 L351.0,163.7 L351.8,143.0 L352.7,227.2 L353.5,221.2 L354.3,222.5 L355.2,179.4 L356.0,210.2 L356.9,213.3 L357.7,194.5 L358.5,190.4 L359.4,218.7 L360.2,209.3 L361.1,183.2 L361.9,177.9 L362.7,149.9 L363.6,154.9 L364.4,161.5 L365.3,137.7 L366.1,67.6 L367.0,84.3 L367.8,109.4 L368.6,111.6 L369.5,167.5 L370.3,175.7 L371.2,163.1 L372.0,144.3 L372.8,165.3 L373.7,149.9 L374.5,163.4 L375.4,176.6 L376.2,186.3 L377.1,182.9 L377.9,178.2 L378.7,203.6 L379.6,232.8 L380.4,236.6 L381.3,176.6 L382.1,165.3 L382.9,167.2 L383.8,170.3 L384.6,224.3 L385.5,229.0 L386.3,231.6 L387.2,218.1 L388.0,199.2 L388.8,233.1 L389.7,235.0 L390.5,216.5 L391.4,225.9 L392.2,226.2 L393.0,223.1 L393.9,239.4 L394.7,206.1 L395.6,215.5 L396.4,142.1 L397.3,139.5 L398.1,215.9 L398.9,217.7 L399.8,210.8 L400.6,229.4 L401.5,238.8 L402.3,234.7 L403.1,246.0 L404.0,253.2 L404.8,255.1 L405.7,239.1 L406.5,222.1 L407.3,221.2 L408.2,214.3 L409.0,203.0 L409.9,235.3 L410.7,239.1 L411.6,235.3 L412.4,237.8 L413.2,238.5 L414.1,210.5 L414.9,214.6 L415.8,216.2 L416.6,217.7 L417.4,214.9 L418.3,211.5 L419.1,215.5 L420.0,223.7 L420.8,237.5 L421.7,246.6 L422.5,255.7 L423.3,252.3 L424.2,209.6 L425.0,211.1 L425.9,211.1 L426.7,208.3 L427.5,204.6 L428.4,201.7 L429.2,192.0 L430.1,184.1 L430.9,195.1 L431.8,208.9 L432.6,208.6 L433.4,209.6 L434.3,198.6 L435.1,201.7 L436.0,176.0 L436.8,206.4 L437.6,205.2 L438.5,209.9 L439.3,215.5 L440.2,216.8 L441.0,213.3 L441.9,213.3 L442.7,206.7 L443.5,202.4 L444.4,191.7 L445.2,163.1 L446.1,171.3 L446.9,176.9 L447.7,166.2 L448.6,165.3 L449.4,181.9 L450.3,186.0 L451.1,162.5 L451.9,183.2 L452.8,232.5 L453.6,222.8 L454.5,242.2 L455.3,238.8 L456.2,194.8 L457.0,199.5 L457.8,215.9 L458.7,212.7 L459.5,229.7 L460.4,236.6 L461.2,230.6 L462.0,212.7 L462.9,201.4 L463.7,185.1 L464.6,214.0 L465.4,198.9 L466.3,173.8 L467.1,204.6 L467.9,200.2 L468.8,211.5 L469.6,209.3 L470.5,220.3 L471.3,211.8 L472.1,207.4 L473.0,202.0 L473.8,200.2 L474.7,195.1 L475.5,202.0 L476.4,162.2 L477.2,166.2 L478.0,194.2 L478.9,195.1 L479.7,181.6 L480.6,205.5 L481.4,194.2 L482.2,192.6 L483.1,193.6 L483.9,185.4 L484.8,171.6 L485.6,143.0 L486.5,124.2 L487.3,155.9 L488.1,176.3 L489.0,198.0 L489.8,195.4 L490.7,182.6 L491.5,181.0 L492.3,195.8 L493.2,193.2 L494.0,191.7 L494.9,197.6 L495.7,143.0 L496.5,135.8 L497.4,144.3 L498.2,135.1 L499.1,142.7 L499.9,169.4 L500.8,182.9 L501.6,182.3 L502.4,172.8 L503.3,192.3 L504.1,149.3 L505.0,144.6 L505.8,123.5 L506.6,132.9 L507.5,146.1 L508.3,181.0 L509.2,189.8 L510.0,193.2 L510.9,197.0 L511.7,198.0 L512.5,200.8 L513.4,166.5 L514.2,202.7 L515.1,200.2 L515.9,159.0 L516.7,127.6 L517.6,142.7 L518.4,137.0 L519.3,147.1 L520.1,155.2 L521.0,167.8 L521.8,162.8 L522.6,170.0 L523.5,170.0 L524.3,136.4 L525.2,167.5 L526.0,128.5 L526.8,176.6 L527.7,228.7 L528.5,228.7 L529.4,223.4 L530.2,226.2 L531.1,229.7 L531.9,249.1 L532.7,236.0 L533.6,247.0 L534.4,243.2 L535.3,236.9 L536.1,238.2 L536.9,185.4 L537.8,184.8 L538.6,173.1 L539.5,191.7 L540.3,167.8 L541.2,196.1 L542.0,199.8 L542.8,235.6 L543.7,241.9 L544.5,237.2 L545.4,228.1 L546.2,221.5 L547.0,233.1 L547.9,261.7 L548.7,254.8 L549.6,251.7 L550.4,240.4 L551.2,200.2 L552.1,235.6 L552.9,221.5 L553.8,210.2 L554.6,197.0 L555.5,180.7 L556.3,192.0 L557.1,176.0 L558.0,151.5 L558.8,153.7 L559.7,189.5 L560.5,199.2 L561.3,197.0 L562.2,173.5 L563.0,146.4 L563.9,208.6 L564.7,219.0 L565.6,247.9 L566.4,233.1 L567.2,212.7 L568.1,230.3 L568.9,224.3 L569.8,220.9 L570.6,213.7 L571.4,180.4 L572.3,176.0 L573.1,167.5 L574.0,184.8 L574.8,135.5 L575.7,180.7 L576.5,105.0 L577.3,175.0 L578.2,201.4 L579.0,202.4 L579.9,201.1 L580.7,224.7 L581.5,233.8 L582.4,244.8 L583.2,196.4 L584.1,228.4 L584.9,197.6 L585.8,203.3 L586.6,174.4 L587.4,182.3 L588.3,159.0 L589.1,171.9 L590.0,151.5 L590.8,154.9 L591.6,138.0 L592.5,127.0 L593.3,124.8 L594.2,124.8 L595.0,136.7 L595.8,155.2 L596.7,149.0 L597.5,147.7 L598.4,186.0 L599.2,174.1 L600.1,188.5 L600.9,199.5 L601.7,188.5 L602.6,184.5 L603.4,211.8 L604.3,209.3 L605.1,194.5 L605.9,191.7 L606.8,147.7 L607.6,151.8 L608.5,139.2 L609.3,138.6 L610.2,148.3 L611.0,171.9 L611.8,187.0 L612.7,205.5 L613.5,200.8 L614.4,207.7 L615.2,213.7 L616.0,183.8 L616.9,162.8 L617.7,156.5 L618.6,166.9 L619.4,214.0 L620.3,212.1 L621.1,203.6 L621.9,185.1 L622.8,160.9 L623.6,161.5 L624.5,170.9 L625.3,186.3 L626.1,180.7 L627.0,183.5 L627.8,218.4 L628.7,220.3 L629.5,225.9 L630.4,185.7 L631.2,184.8 L632.0,202.0 L632.9,203.9 L633.7,214.9 L634.6,198.3 L635.4,204.9 L636.2,186.0 L637.1,144.9 L637.9,170.0 L638.8,157.1 L639.6,155.9 L640.4,190.7 L641.3,181.3 L642.1,192.3 L643.0,232.2 L643.8,251.3 L644.7,251.7 L645.5,261.4 L646.3,244.8 L647.2,229.0 L648.0,244.8 L648.9,234.4 L649.7,257.9 L650.5,247.9 L651.4,232.8 L652.2,223.1 L653.1,221.5 L653.9,218.1 L654.8,208.3 L655.6,209.6 L656.4,218.4 L657.3,215.9 L658.1,227.5 L659.0,231.2 L659.8,196.4 L660.6,186.0 L661.5,229.0 L662.3,245.4 L663.2,226.9 L664.0,249.1 L664.9,219.9 L665.7,225.3 L666.5,232.8 L667.4,247.3 L668.2,248.2 L669.1,252.9 L669.9,199.5 L670.7,228.7 L671.6,237.5 L672.4,243.5 L673.3,237.5 L674.1,236.6 L675.0,230.3 L675.8,240.7 L676.6,221.2 L677.5,233.4 L678.3,189.8 L679.2,184.5 L680.0,182.3" stroke="#8c564b" stroke-width="2" fill="none" opacity="0.8"/>
<!-- Forecast Difference -->
<path d="M80.0,420.0 L80.8,420.0 L81.7,420.0 L82.5,420.0 L83.4,420.0 L84.2,420.0 L85.0,420.0 L85.9,420.0 L86.7,420.0 L87.6,420.0 L88.4,420.0 L89.3,420.0 L90.1,420.0 L90.9,420.0 L91.8,420.0 L92.6,420.0 L93.5,420.0 L94.3,420.0 L95.1,420.0 L96.0,420.0 L96.8,420.0 L97.7,420.0 L98.5,420.0 L99.4,420.0 L100.2,420.0 L101.0,420.0 L101.9,420.0 L102.7,420.0 L103.6,420.0 L104.4,420.0 L105.2,420.0 L106.1,420.0 L106.9,420.0 L107.8,420.0 L108.6,420.0 L109.5,420.0 L110.3,420.0 L111.1,420.0 L112.0,420.0 L112.8,420.0 L113.7,420.0 L114.5,420.0 L115.3,420.0 L116.2,420.0 L117.0,420.0 L117.9,420.0 L118.7,420.0 L119.6,420.0 L120.4,420.0 L121.2,420.0 L122.1,420.0 L122.9,420.0 L123.8,420.0 L124.6,420.0 L125.4,420.0 L126.3,420.0 L127.1,420.0 L128.0,420.0 L128.8,420.0 L129.6,420.0 L130.5,420.0 L131.3,420.0 L132.2,420.0 L133.0,420.0 L133.9,420.0 L134.7,420.0 L135.5,420.0 L136.4,420.0 L137.2,420.0 L138.1,420.0 L138.9,420.0 L139.7,420.0 L140.6,420.0 L141.4,420.0 L142.3,420.0 L143.1,420.0 L144.0,420.0 L144.8,420.0 L145.6,420.0 L146.5,420.0 L147.3,420.0 L148.2,420.0 L149.0,420.0 L149.8,420.0 L150.7,420.0 L151.5,420.0 L152.4,420.0 L153.2,420.0 L154.1,420.0 L154.9,420.0 L155.7,420.0 L156.6,420.0 L157.4,420.0 L158.3,420.0 L159.1,420.0 L159.9,420.0 L160.8,420.0 L161.6,420.0 L162.5,420.0 L163.3,420.0 L164.2,420.0 L165.0,420.0 L165.8,420.0 L166.7,420.0 L167.5,420.0 L168.4,420.0 L169.2,420.0 L170.0,420.0 L170.9,420.0 L171.7,420.0 L172.6,420.0 L173.4,420.0 L174.2,420.0 L175.1,420.0 L175.9,420.0 L176.8,420.0 L177.6,420.0 L178.5,420.0 L179.3,420.0 L180.1,420.0 L181.0,420.0 L181.8,420.0 L182.7,420.0 L183.5,420.0 L184.3,420.0 L185.2,420.0 L186.0,420.0 L186.9,420.0 L187.7,420.0 L188.6,420.0 L189.4,420.0 L190.2,420.0 L191.1,420.0 L191.9,420.0 L192.8,420.0 L193.6,420.0 L194.4,420.0 L195.3,420.0 L196.1,420.0 L197.0,420.0 L197.8,420.0 L198.7,420.0 L199.5,420.0 L200.3,420.0 L201.2,420.0 L202.0,420.0 L202.9,420.0 L203.7,420.0 L204.5,420.0 L205.4,420.0 L206.2,420.0 L207.1,420.0 L207.9,420.0 L208.8,420.0 L209.6,420.0 L210.4,420.0 L211.3,420.0 L212.1,420.0 L213.0,420.0 L213.8,420.0 L214.6,420.0 L215.5,420.0 L216.3,420.0 L217.2,420.0 L218.0,420.0 L218.8,420.0 L219.7,420.0 L220.5,420.0 L221.4,420.0 L222.2,420.0 L223.1,420.0 L223.9,420.0 L224.7,420.0 L225.6,420.0 L226.4,420.0 L227.3,420.0 L228.1,420.0 L228.9,420.0 L229.8,420.0 L230.6,420.0 L231.5,420.0 L232.3,420.0 L233.2,420.0 L234.0,420.0 L234.8,420.0 L235.7,420.0 L236.5,420.0 L237.4,420.0 L238.2,420.0 L239.0,420.0 L239.9,420.0 L240.7,420.0 L241.6,420.0 L242.4,420.0 L243.3,420.0 L244.1,420.0 L244.9,420.0 L245.8,420.0 L246.6,420.0 L247.5,420.0 L248.3,420.0 L249.1,420.0 L250.0,420.0 L250.8,420.0 L251.7,420.0 L252.5,420.0 L253.4,420.0 L254.2,420.0 L255.0,420.0 L255.9,420.0 L256.7,420.0 L257.6,420.0 L258.4,420.0 L259.2,420.0 L260.1,420.0 L260.9,420.0 L261.8,420.0 L262.6,420.0 L263.5,420.0 L264.3,420.0 L265.1,420.0 L266.0,420.0 L266.8,420.0 L267.7,420.0 L268.5,420.0 L269.3,420.0 L270.2,420.0 L271.0,420.0 L271.9,420.0 L272.7,420.0 L273.5,420.0 L274.4,420.0 L275.2,420.0 L276.1,420.0 L276.9,420.0 L277.8,420.0 L278.6,420.0 L279.4,420.0 L280.3,420.0 L281.1,420.0 L282.0,420.0 L282.8,420.0 L283.6,420.0 L284.5,420.0 L285.3,420.0 L286.2,420.0 L287.0,420.0 L287.9,420.0 L288.7,420.0 L289.5,420.0 L290.4,420.0 L291.2,420.0 L292.1,420.0 L292.9,420.0 L293.7,420.0 L294.6,420.0 L295.4,420.0 L296.3,420.0 L297.1,420.0 L298.0,420.0 L298.8,420.0 L299.6,420.0 L300.5,420.0 L301.3,420.0 L302.2,420.0 L303.0,420.0 L303.8,420.0 L304.7,420.0 L305.5,420.0 L306.4,420.0 L307.2,420.0 L308.1,420.0 L308.9,420.0 L309.7,420.0 L310.6,420.0 L311.4,420.0 L312.3,420.0 L313.1,420.0 L313.9,420.0 L314.8,420.0 L315.6,420.0 L316.5,420.0 L317.3,420.0 L318.1,420.0 L319.0,420.0 L319.8,420.0 L320.7,420.0 L321.5,420.0 L322.4,420.0 L323.2,420.0 L324.0,420.0 L324.9,420.0 L325.7,420.0 L326.6,420.0 L327.4,420.0 L328.2,420.0 L329.1,420.0 L329.9,420.0 L330.8,420.0 L331.6,420.0 L332.5,420.0 L333.3,420.0 L334.1,420.0 L335.0,420.0 L335.8,420.0 L336.7,420.0 L337.5,420.0 L338.3,420.0 L339.2,420.0 L340.0,420.0 L340.9,420.0 L341.7,420.0 L342.6,420.0 L343.4,420.0 L344.2,420.0 L345.1,420.0 L345.9,420.0 L346.8,420.0 L347.6,420.0 L348.4,420.0 L349.3,420.0 L350.1,420.0 L351.0,420.0 L351.8,420.0 L352.7,420.0 L353.5,420.0 L354.3,420.0 L355.2,420.0 L356.0,420.0 L356.9,420.0 L357.7,420.0 L358.5,420.0 L359.4,420.0 L360.2,420.0 L361.1,420.0 L361.9,420.0 L362.7,420.0 L363.6,420.0 L364.4,420.0 L365.3,420.0 L366.1,420.0 L367.0,420.0 L367.8,420.0 L368.6,420.0 L369.5,420.0 L370.3,420.0 L371.2,420.0 L372.0,420.0 L372.8,420.0 L373.7,420.0 L374.5,420.0 L375.4,420.0 L376.2,420.0 L377.1,420.0 L377.9,420.0 L378.7,420.0 L379.6,420.0 L380.4,420.0 L381.3,420.0 L382.1,420.0 L382.9,420.0 L383.8,420.0 L384.6,420.0 L385.5,420.0 L386.3,420.0 L387.2,420.0 L388.0,420.0 L388.8,420.0 L389.7,420.0 L390.5,420.0 L391.4,420.0 L392.2,420.0 L393.0,420.0 L393.9,420.0 L394.7,420.0 L395.6,420.0 L396.4,420.0 L397.3,420.0 L398.1,420.0 L398.9,420.0 L399.8,420.0 L400.6,420.0 L401.5,420.0 L402.3,420.0 L403.1,420.0 L404.0,420.0 L404.8,420.0 L405.7,420.0 L406.5,420.0 L407.3,420.0 L408.2,420.0 L409.0,420.0 L409.9,420.0 L410.7,420.0 L411.6,420.0 L412.4,420.0 L413.2,420.0 L414.1,420.0 L414.9,420.0 L415.8,420.0 L416.6,420.0 L417.4,420.0 L418.3,420.0 L419.1,420.0 L420.0,420.0 L420.8,420.0 L421.7,420.0 L422.5,420.0 L423.3,420.0 L424.2,420.0 L425.0,420.0 L425.9,420.0 L426.7,420.0 L427.5,420.0 L428.4,420.0 L429.2,420.0 L430.1,420.0 L430.9,420.0 L431.8,420.0 L432.6,420.0 L433.4,420.0 L434.3,420.0 L435.1,420.0 L436.0,420.0 L436.8,420.0 L437.6,420.0 L438.5,420.0 L439.3,420.0 L440.2,420.0 L441.0,420.0 L441.9,420.0 L442.7,420.0 L443.5,420.0 L444.4,420.0 L445.2,420.0 L446.1,420.0 L446.9,420.0 L447.7,420.0 L448.6,420.0 L449.4,420.0 L450.3,420.0 L451.1,420.0 L451.9,420.0 L452.8,420.0 L453.6,420.0 L454.5,420.0 L455.3,420.0 L456.2,420.0 L457.0,420.0 L457.8,420.0 L458.7,420.0 L459.5,420.0 L460.4,420.0 L461.2,420.0 L462.0,420.0 L462.9,420.0 L463.7,420.0 L464.6,420.0 L465.4,420.0 L466.3,420.0 L467.1,420.0 L467.9,420.0 L468.8,420.0 L469.6,420.0 L470.5,420.0 L471.3,420.0 L472.1,420.0 L473.0,420.0 L473.8,420.0 L474.7,420.0 L475.5,420.0 L476.4,420.0 L477.2,420.0 L478.0,420.0 L478.9,420.0 L479.7,420.0 L480.6,420.0 L481.4,420.0 L482.2,420.0 L483.1,420.0 L483.9,420.0 L484.8,420.0 L485.6,420.0 L486.5,420.0 L487.3,420.0 L488.1,420.0 L489.0,420.0 L489.8,420.0 L490.7,420.0 L491.5,420.0 L492.3,420.0 L493.2,420.0 L494.0,420.0 L494.9,420.0 L495.7,420.0 L496.5,420.0 L497.4,420.0 L498.2,420.0 L499.1,420.0 L499.9,420.0 L500.8,420.0 L501.6,420.0 L502.4,420.0 L503.3,420.0 L504.1,420.0 L505.0,420.0 L505.8,420.0 L506.6,420.0 L507.5,420.0 L508.3,420.0 L509.2,420.0 L510.0,420.0 L510.9,420.0 L511.7,420.0 L512.5,420.0 L513.4,420.0 L514.2,420.0 L515.1,420.0 L515.9,420.0 L516.7,420.0 L517.6,420.0 L518.4,420.0 L519.3,420.0 L520.1,420.0 L521.0,420.0 L521.8,420.0 L522.6,420.0 L523.5,420.0 L524.3,420.0 L525.2,420.0 L526.0,420.0 L526.8,420.0 L527.7,420.0 L528.5,420.0 L529.4,420.0 L530.2,420.0 L531.1,420.0 L531.9,420.0 L532.7,420.0 L533.6,420.0 L534.4,420.0 L535.3,420.0 L536.1,420.0 L536.9,420.0 L537.8,420.0 L538.6,420.0 L539.5,420.0 L540.3,420.0 L541.2,420.0 L542.0,420.0 L542.8,420.0 L543.7,420.0 L544.5,420.0 L545.4,420.0 L546.2,420.0 L547.0,420.0 L547.9,420.0 L548.7,420.0 L549.6,420.0 L550.4,420.0 L551.2,420.0 L552.1,420.0 L552.9,420.0 L553.8,420.0 L554.6,420.0 L555.5,420.0 L556.3,420.0 L557.1,420.0 L558.0,420.0 L558.8,420.0 L559.7,420.0 L560.5,420.0 L561.3,420.0 L562.2,420.0 L563.0,420.0 L563.9,420.0 L564.7,420.0 L565.6,420.0 L566.4,420.0 L567.2,420.0 L568.1,420.0 L568.9,420.0 L569.8,420.0 L570.6,420.0 L571.4,420.0 L572.3,420.0 L573.1,420.0 L574.0,420.0 L574.8,420.0 L575.7,420.0 L576.5,420.0 L577.3,420.0 L578.2,420.0 L579.0,420.0 L579.9,420.0 L580.7,420.0 L581.5,420.0 L582.4,420.0 L583.2,420.0 L584.1,420.0 L584.9,420.0 L585.8,420.0 L586.6,420.0 L587.4,420.0 L588.3,420.0 L589.1,420.0 L590.0,420.0 L590.8,420.0 L591.6,420.0 L592.5,420.0 L593.3,420.0 L594.2,420.0 L595.0,420.0 L595.8,420.0 L596.7,420.0 L597.5,420.0 L598.4,420.0 L599.2,420.0 L600.1,420.0 L600.9,420.0 L601.7,420.0 L602.6,420.0 L603.4,420.0 L604.3,420.0 L605.1,420.0 L605.9,420.0 L606.8,420.0 L607.6,420.0 L608.5,420.0 L609.3,420.0 L610.2,420.0 L611.0,420.0 L611.8,420.0 L612.7,420.0 L613.5,420.0 L614.4,420.0 L615.2,420.0 L616.0,420.0 L616.9,420.0 L617.7,420.0 L618.6,420.0 L619.4,420.0 L620.3,420.0 L621.1,420.0 L621.9,420.0 L622.8,420.0 L623.6,420.0 L624.5,420.0 L625.3,420.0 L626.1,420.0 L627.0,420.0 L627.8,420.0 L628.7,420.0 L629.5,420.0 L630.4,420.0 L631.2,420.0 L632.0,420.0 L632.9,420.0 L633.7,420.0 L634.6,420.0 L635.4,420.0 L636.2,420.0 L637.1,420.0 L637.9,420.0 L638.8,420.0 L639.6,420.0 L640.4,420.0 L641.3,420.0 L642.1,420.0 L643.0,420.0 L643.8,420.0 L644.7,420.0 L645.5,420.0 L646.3,420.0 L647.2,420.0 L648.0,420.0 L648.9,420.0 L649.7,420.0 L650.5,420.0 L651.4,420.0 L652.2,420.0 L653.1,420.0 L653.9,420.0 L654.8,420.0 L655.6,420.0 L656.4,420.0 L657.3,420.0 L658.1,420.0 L659.0,420.0 L659.8,420.0 L660.6,420.0 L661.5,420.0 L662.3,420.0 L663.2,420.0 L664.0,420.0 L664.9,420.0 L665.7,420.0 L666.5,420.0 L667.4,420.0 L668.2,420.0 L669.1,420.0 L669.9,420.0 L670.7,420.0 L671.6,420.0 L672.4,420.0 L673.3,420.0 L674.1,420.0 L675.0,420.0 L675.8,420.0 L676.6,420.0 L677.5,420.0 L678.3,420.0 L679.2,420.0 L680.0,420.0" stroke="#e377c2" stroke-width="2" fill="none" opacity="0.8"/>

<!-- Legend -->
<line x1="690" y1="70" x2="705" y2="70" stroke="#1f77b4" stroke-width="3"/>
<text x="710" y="74" class="legend">Wind Generation</text>
<line x1="690" y1="88" x2="705" y2="88" stroke="#ff7f0e" stroke-width="3"/>
<text x="710" y="92" class="legend">Hydro Generation</text>
<line x1="690" y1="106" x2="705" y2="106" stroke="#2ca02c" stroke-width="3"/>
<text x="710" y="110" class="legend">Thermal Generation</text>
<line x1="690" y1="124" x2="705" y2="124" stroke="#d62728" stroke-width="3"/>
<text x="710" y="128" class="legend">Solar Generation</text>
<line x1="690" y1="142" x2="705" y2="142" stroke="#9467bd" stroke-width="3"/>
<text x="710" y="146" class="legend">Forecast</text>
<line x1="690" y1="160" x2="705" y2="160" stroke="#8c564b" stroke-width="3"/>
<text x="710" y="164" class="legend">Total Generation</text>
<line x1="690" y1="178" x2="705" y2="178" stroke="#e377c2" stroke-width="3"/>
<text x="710" y="182" class="legend">Forecast Difference</text>

<!-- Date range -->
<text x="80" y="495" class="legend">Range: 04/10 - 05/09/2026 (714 records)</text>
</svg>