<?xml version="1.0" encoding="UTF-8"?>
<svg width="800" height="500" xmlns="http://www.w3.org/2000/svg">
<style>
.axis-line { stroke: #333; stroke-width: 1; }
.grid-line { stroke: #ddd; stroke-width: 0.5; }
.title { font: 16px Arial; text-anchor: middle; fill: #333; }
.axis-label { font: 12px Arial; text-anchor: middle; fill: #666; }
.legend { font: 10px Arial; fill: #333; }
</style>

<!-- Title -->
<text x="400.0" y="25" class="title">Northwestern Energy Generation Data - Past 30 Days</text>

<!-- Plot area background -->
<rect x="80" y="50" width="600" height="370" fill="white" stroke="#ddd"/>

<!-- Y-axis -->
<line x1="80" y1="50" x2="80" y2="420" class="axis-line"/>
<text x="30" y="235.0" class="axis-label" transform="rotate(-90, 30, 235.0)">Generation (MW)</text>

<!-- X-axis -->
<line x1="80" y1="420" x2="680" y2="420" class="axis-line"/>
<text x="380.0" y="480" class="axis-label">Time</text>
<line x1="80" y1="420.0" x2="680" y2="420.0" class="grid-line"/>
<text x="70" y="425.0" class="legend" text-anchor="end">0</text>
<line x1="80" y1="327.5" x2="680" y2="327.5" class="grid-line"/>
<text x="70" y="332.5" class="legend" text-anchor="end">277</text>
<line x1="80" y1="235.0" x2="680" y2="235.0" class="grid-line"/>
<text x="70" y="240.0" class="legend" text-anchor="end">554</text>
<line x1="80" y1="142.5" x2="680" y2="142.5" class="grid-line"/>
<text x="70" y="147.5" class="legend" text-anchor="end">831</text>
<line x1="80" y1="50.0" x2="680" y2="50.0" class="grid-line"/>
<text x="70" y="55.0" class="legend" text-anchor="end">1108</text>
<!-- Wind Generation -->
<path d="M80.0,400.6 L80.8,395.3 L81.7,403.0 L82.5,402.6 L83.4,409.0 L84.2,416.7 L85.0,416.0 L85.9,416.7 L86.7,414.0 L87.6,411.0 L88.4,392.9 L89.3,411.3 L90.1,405.0 L90.9,381.6 L91.8,381.6 L92.6,370.6 L93.5,379.3 L94.3,389.3 L95.1,380.9 L96.0,378.9 L96.8,380.3 L97.7,350.9 L98.5,344.8 L99.4,360.5 L100.2,357.5 L101.0,355.5 L101.9,383.3 L102.7,378.6 L103.6,387.6 L104.4,379.9 L105.2,393.9 L106.1,405.3 L106.9,401.6 L107.8,382.3 L108.6,380.3 L109.5,363.2 L110.3,367.6 L111.1,377.9 L112.0,377.2 L112.8,382.9 L113.7,380.6 L114.5,382.9 L115.3,386.6 L116.2,391.6 L117.0,407.0 L117.9,410.3 L118.7,403.3 L119.6,392.9 L120.4,394.3 L121.2,394.3 L122.1,370.6 L122.9,357.2 L123.8,350.9 L124.6,349.9 L125.4,351.9 L126.3,359.9 L127.1,358.2 L128.0,344.5 L128.8,334.5 L129.6,323.8 L130.5,331.2 L131.3,341.2 L132.2,355.2 L133.0,360.5 L133.9,364.6 L134.7,369.6 L135.5,365.9 L136.4,371.9 L137.2,381.6 L138.1,394.6 L138.9,400.6 L139.7,412.3 L140.6,417.3 L141.4,418.7 L142.3,418.7 L143.1,416.7 L144.0,413.3 L144.8,411.0 L145.6,408.6 L146.5,406.3 L147.3,404.3 L148.2,403.6 L149.0,394.9 L149.8,383.9 L150.7,374.2 L151.5,389.3 L152.4,382.6 L153.2,380.3 L154.1,355.2 L154.9,332.8 L155.7,341.2 L156.6,350.5 L157.4,355.2 L158.3,347.2 L159.1,342.5 L159.9,381.9 L160.8,397.6 L161.6,407.6 L162.5,417.0 L163.3,413.7 L164.2,414.0 L165.0,412.3 L165.8,405.6 L166.7,402.0 L167.5,401.6 L168.4,394.9 L169.2,390.3 L170.0,390.3 L170.9,388.3 L171.7,397.0 L172.6,395.3 L173.4,401.0 L174.2,404.6 L175.1,409.3 L175.9,407.0 L176.8,407.0 L177.6,404.0 L178.5,404.6 L179.3,397.0 L180.1,386.3 L181.0,381.6 L181.8,391.3 L182.7,394.3 L183.5,392.6 L184.3,395.3 L185.2,393.6 L186.0,388.9 L186.9,394.3 L187.7,399.0 L188.6,387.9 L189.4,393.6 L190.2,372.9 L191.1,366.9 L191.9,363.2 L192.8,368.2 L193.6,355.2 L194.4,356.2 L195.3,367.2 L196.1,383.9 L197.0,394.6 L197.8,408.0 L198.7,411.3 L199.5,413.7 L200.3,415.3 L201.2,411.6 L202.0,400.3 L202.9,396.3 L203.7,398.6 L204.5,397.3 L205.4,395.6 L206.2,384.9 L207.1,388.6 L207.9,390.6 L208.8,385.6 L209.6,396.3 L210.4,395.3 L211.3,368.2 L212.1,377.9 L213.0,400.0 L213.8,409.6 L214.6,411.6 L215.5,407.0 L216.3,402.6 L217.2,386.6 L218.0,379.9 L218.8,380.9 L219.7,372.9 L220.5,364.9 L221.4,356.2 L222.2,364.6 L223.1,369.6 L223.9,388.6 L224.7,405.3 L225.6,411.6 L226.4,418.0 L227.3,420.0 L228.1,420.0 L228.9,420.0 L229.8,413.3 L230.6,409.3 L231.5,418.7 L232.3,419.0 L233.2,411.3 L234.0,392.9 L234.8,407.3 L235.7,402.6 L236.5,409.3 L237.4,409.3 L238.2,387.9 L239.0,385.3 L239.9,369.6 L240.7,387.6 L241.6,389.9 L242.4,401.3 L243.3,387.9 L244.1,393.6 L244.9,392.9 L245.8,398.0 L246.6,402.3 L247.5,400.3 L248.3,401.6 L249.1,400.0 L250.0,370.9 L250.8,374.6 L251.7,394.3 L252.5,401.6 L253.4,394.9 L254.2,386.3 L255.0,368.9 L255.9,387.6 L256.7,403.3 L257.6,384.6 L258.4,377.9 L259.2,373.6 L260.1,376.6 L260.9,388.6 L261.8,325.8 L262.6,305.8 L263.5,306.8 L264.3,324.8 L265.1,339.2 L266.0,329.5 L266.8,318.5 L267.7,327.5 L268.5,320.1 L269.3,298.8 L270.2,281.4 L271.0,284.7 L271.9,287.4 L272.7,307.8 L273.5,309.4 L274.4,306.8 L275.2,314.1 L276.1,317.1 L276.9,330.5 L277.8,342.2 L278.6,356.2 L279.4,354.9 L280.3,353.2 L281.1,358.9 L282.0,368.2 L282.8,370.6 L283.6,377.9 L284.5,370.6 L285.3,373.2 L286.2,382.3 L287.0,382.9 L287.9,389.3 L288.7,399.6 L289.5,400.3 L290.4,401.0 L291.2,396.0 L292.1,393.3 L292.9,389.9 L293.7,393.9 L294.6,400.3 L295.4,406.6 L296.3,409.0 L297.1,410.0 L298.0,412.7 L298.8,413.3 L299.6,413.7 L300.5,413.0 L301.3,415.0 L302.2,415.7 L303.0,416.3 L303.8,417.3 L304.7,416.7 L305.5,418.0 L306.4,418.7 L307.2,420.0 L308.1,420.0 L308.9,420.0 L309.7,420.0 L310.6,420.0 L311.4,420.0 L312.3,420.0 L313.1,420.0 L313.9,420.0 L314.8,420.0 L315.6,420.0 L316.5,420.0 L317.3,420.0 L318.1,420.0 L319.0,420.0 L319.8,420.0 L320.7,420.0 L321.5,420.0 L322.4,420.0 L323.2,420.0 L324.0,419.7 L324.9,416.0 L325.7,417.3 L326.6,418.7 L327.4,420.0 L328.2,418.3 L329.1,420.0 L329.9,418.7 L330.8,418.0 L331.6,420.0 L332.5,420.0 L333.3,416.0 L334.1,420.0 L335.0,420.0 L335.8,420.0 L336.7,420.0 L337.5,420.0 L338.3,420.0 L339.2,419.7 L340.0,416.3 L340.9,417.7 L341.7,418.7 L342.6,419.7 L343.4,419.3 L344.2,411.6 L345.1,403.0 L345.9,410.6 L346.8,402.3 L347.6,387.6 L348.4,399.0 L349.3,370.9 L350.1,348.2 L351.0,341.8 L351.8,332.5 L352.7,324.8 L353.5,349.9 L354.3,355.9 L355.2,365.2 L356.0,360.5 L356.9,357.9 L357.7,354.5 L358.5,364.9 L359.4,353.9 L360.2,335.2 L361.1,323.1 L361.9,322.5 L362.7,308.4 L363.6,317.8 L364.4,297.8 L365.3,287.1 L366.1,284.1 L367.0,283.4 L367.8,288.1 L368.6,291.7 L369.5,291.7 L370.3,281.7 L371.2,285.4 L372.0,291.1 L372.8,283.4 L373.7,282.4 L374.5,281.1 L375.4,278.0 L376.2,278.0 L377.1,285.4 L377.9,283.7 L378.7,285.4 L379.6,281.7 L380.4,307.4 L381.3,297.4 L382.1,279.0 L382.9,303.4 L383.8,334.8 L384.6,314.5 L385.5,343.5 L386.3,337.8 L387.2,328.5 L388.0,304.4 L388.8,342.2 L389.7,344.2 L390.5,351.2 L391.4,346.9 L392.2,362.9 L393.0,362.9 L393.9,346.9 L394.7,350.5 L395.6,316.1 L396.4,313.8 L397.3,299.4 L398.1,292.7 L398.9,286.7 L399.8,284.4 L400.6,289.4 L401.5,333.8 L402.3,365.9 L403.1,377.2 L404.0,355.9 L404.8,356.5 L405.7,360.9 L406.5,355.9 L407.3,347.9 L408.2,334.2 L409.0,339.2 L409.9,362.6 L410.7,351.2 L411.6,350.9 L412.4,372.9 L413.2,375.9 L414.1,382.6 L414.9,375.9 L415.8,361.9 L416.6,362.9 L417.4,347.9 L418.3,291.7 L419.1,310.8 L420.0,302.1 L420.8,279.7 L421.7,315.8 L422.5,298.1 L423.3,292.4 L424.2,308.4 L425.0,286.4 L425.9,292.7 L426.7,288.1 L427.5,297.8 L428.4,285.4 L429.2,285.1 L430.1,285.4 L430.9,290.4 L431.8,287.7 L432.6,288.4 L433.4,298.8 L434.3,297.1 L435.1,295.7 L436.0,299.8 L436.8,314.5 L437.6,305.4 L438.5,293.1 L439.3,326.1 L440.2,335.8 L441.0,316.8 L441.9,273.0 L442.7,286.7 L443.5,284.4 L444.4,287.4 L445.2,272.7 L446.1,278.7 L446.9,276.4 L447.7,278.7 L448.6,278.7 L449.4,288.7 L450.3,286.1 L451.1,288.4 L451.9,284.7 L452.8,280.4 L453.6,287.4 L454.5,288.7 L455.3,295.4 L456.2,308.1 L457.0,293.1 L457.8,300.1 L458.7,285.4 L459.5,280.7 L460.4,282.4 L461.2,287.4 L462.0,302.4 L462.9,340.5 L463.7,354.5 L464.6,373.2 L465.4,392.9 L466.3,402.0 L467.1,409.6 L467.9,405.6 L468.8,401.3 L469.6,384.6 L470.5,383.3 L471.3,380.9 L472.1,381.9 L473.0,384.9 L473.8,386.3 L474.7,382.6 L475.5,397.3 L476.4,399.3 L477.2,397.0 L478.0,394.9 L478.9,399.3 L479.7,404.6 L480.6,403.6 L481.4,402.0 L482.2,398.3 L483.1,400.0 L483.9,396.3 L484.8,410.6 L485.6,407.6 L486.5,407.6 L487.3,400.3 L488.1,387.9 L489.0,376.2 L489.8,350.5 L490.7,327.5 L491.5,309.1 L492.3,319.5 L493.2,311.1 L494.0,285.1 L494.9,290.1 L495.7,302.1 L496.5,334.5 L497.4,348.9 L498.2,359.5 L499.1,338.5 L499.9,325.1 L500.8,325.1 L501.6,301.8 L502.4,328.1 L503.3,318.8 L504.1,351.9 L505.0,334.2 L505.8,324.1 L506.6,321.5 L507.5,349.2 L508.3,349.5 L509.2,335.8 L510.0,305.1 L510.9,305.1 L511.7,301.4 L512.5,312.1 L513.4,306.8 L514.2,297.8 L515.1,304.4 L515.9,317.8 L516.7,302.4 L517.6,316.8 L518.4,329.8 L519.3,339.5 L520.1,367.6 L521.0,387.6 L521.8,390.6 L522.6,389.3 L523.5,394.3 L524.3,392.6 L525.2,390.6 L526.0,385.3 L526.8,363.2 L527.7,363.6 L528.5,362.2 L529.4,366.2 L530.2,372.9 L531.1,374.2 L531.9,375.2 L532.7,377.2 L533.6,385.3 L534.4,388.6 L535.3,377.2 L536.1,378.9 L536.9,397.3 L537.8,409.0 L538.6,415.0 L539.5,409.3 L540.3,388.3 L541.2,403.0 L542.0,368.2 L542.8,368.9 L543.7,404.3 L544.5,407.0 L545.4,387.6 L546.2,365.6 L547.0,350.5 L547.9,353.5 L548.7,321.1 L549.6,324.5 L550.4,301.1 L551.2,290.4 L552.1,303.1 L552.9,295.4 L553.8,288.4 L554.6,298.8 L555.5,306.8 L556.3,304.4 L557.1,277.4 L558.0,272.7 L558.8,284.7 L559.7,283.7 L560.5,304.1 L561.3,310.8 L562.2,285.7 L563.0,319.1 L563.9,355.2 L564.7,379.6 L565.6,401.6 L566.4,394.6 L567.2,399.0 L568.1,400.0 L568.9,398.0 L569.8,392.6 L570.6,371.6 L571.4,353.9 L572.3,344.8 L573.1,330.5 L574.0,288.7 L574.8,315.8 L575.7,303.4 L576.5,291.4 L577.3,282.4 L578.2,283.4 L579.0,276.7 L579.9,274.0 L580.7,279.4 L581.5,275.0 L582.4,272.0 L583.2,301.4 L584.1,313.1 L584.9,311.4 L585.8,284.4 L586.6,295.7 L587.4,313.5 L588.3,338.5 L589.1,317.8 L590.0,298.1 L590.8,280.7 L591.6,286.7 L592.5,295.1 L593.3,300.1 L594.2,314.8 L595.0,344.8 L595.8,362.6 L596.7,353.5 L597.5,330.2 L598.4,347.5 L599.2,361.9 L600.1,357.9 L600.9,352.2 L601.7,369.6 L602.6,390.9 L603.4,391.9 L604.3,390.9 L605.1,403.0 L605.9,399.0 L606.8,398.0 L607.6,401.0 L608.5,397.3 L609.3,388.3 L610.2,379.9 L611.0,375.6 L611.8,375.6 L612.7,374.6 L613.5,366.2 L614.4,367.6 L615.2,349.5 L616.0,346.2 L616.9,359.2 L617.7,365.6 L618.6,341.8 L619.4,299.4 L620.3,306.4 L621.1,274.0 L621.9,272.7 L622.8,272.7 L623.6,273.0 L624.5,283.7 L625.3,280.4 L626.1,278.4 L627.0,285.1 L627.8,274.7 L628.7,283.4 L629.5,301.4 L630.4,306.4 L631.2,303.4 L632.0,316.8 L632.9,337.5 L633.7,337.8 L634.6,354.5 L635.4,361.2 L636.2,391.6 L637.1,399.0 L637.9,387.6 L638.8,392.6 L639.6,396.0 L640.4,402.0 L641.3,404.0 L642.1,396.0 L643.0,397.6 L643.8,393.9 L644.7,385.6 L645.5,381.3 L646.3,392.9 L647.2,404.0 L648.0,416.7 L648.9,417.3 L649.7,415.0 L650.5,415.0 L651.4,409.0 L652.2,409.3 L653.1,407.0 L653.9,406.6 L654.8,406.0 L655.6,406.3 L656.4,406.3 L657.3,414.0 L658.1,418.0 L659.0,416.3 L659.8,415.0 L660.6,406.6 L661.5,398.0 L662.3,394.3 L663.2,396.0 L664.0,387.9 L664.9,377.9 L665.7,397.0 L666.5,390.9 L667.4,384.3 L668.2,379.9 L669.1,361.9 L669.9,360.5 L670.7,328.8 L671.6,324.1 L672.4,323.5 L673.3,296.1 L674.1,298.4 L675.0,312.4 L675.8,304.1 L676.6,301.4 L677.5,301.1 L678.3,299.4 L679.2,300.1 L680.0,310.8" stroke="#1f77b4" stroke-width="2" fill="none" opacity="0.8"/>
<!-- Hydro Generation -->
<path d="M80.0,362.6 L80.8,362.6 L81.7,362.9 L82.5,362.6 L83.4,362.6 L84.2,362.2 L85.0,362.2 L85.9,362.2 L86.7,362.6 L87.6,362.2 L88.4,361.9 L89.3,361.9 L90.1,362.6 L90.9,361.9 L91.8,362.2 L92.6,362.6 L93.5,361.2 L94.3,361.2 L95.1,361.2 L96.0,360.9 L96.8,360.9 L97.7,360.5 L98.5,360.5 L99.4,361.2 L100.2,361.2 L101.0,361.5 L101.9,361.5 L102.7,361.5 L103.6,361.5 L104.4,361.2 L105.2,361.2 L106.1,361.2 L106.9,361.2 L107.8,361.2 L108.6,361.2 L109.5,360.9 L110.3,361.2 L111.1,361.5 L112.0,361.2 L112.8,361.2 L113.7,361.5 L114.5,361.5 L115.3,361.9 L116.2,361.9 L117.0,361.5 L117.9,361.9 L118.7,362.2 L119.6,362.6 L120.4,361.9 L121.2,362.2 L122.1,362.2 L122.9,362.2 L123.8,362.2 L124.6,362.2 L125.4,361.5 L126.3,361.9 L127.1,361.9 L128.0,361.5 L128.8,361.5 L129.6,361.5 L130.5,361.5 L131.3,360.2 L132.2,359.9 L133.0,358.9 L133.9,358.9 L134.7,359.2 L135.5,359.2 L136.4,359.2 L137.2,359.5 L138.1,360.5 L138.9,361.5 L139.7,361.5 L140.6,361.2 L141.4,360.9 L142.3,360.9 L143.1,360.9 L144.0,360.9 L144.8,361.2 L145.6,361.5 L146.5,360.9 L147.3,360.5 L148.2,360.2 L149.0,360.2 L149.8,360.2 L150.7,360.5 L151.5,359.5 L152.4,359.2 L153.2,359.2 L154.1,359.9 L154.9,359.5 L155.7,359.5 L156.6,359.2 L157.4,359.5 L158.3,359.5 L159.1,359.2 L159.9,359.9 L160.8,359.5 L161.6,360.2 L162.5,359.9 L163.3,359.9 L164.2,360.5 L165.0,360.9 L165.8,360.5 L166.7,360.5 L167.5,360.2 L168.4,360.9 L169.2,360.5 L170.0,361.2 L170.9,360.9 L171.7,361.2 L172.6,361.2 L173.4,360.5 L174.2,360.5 L175.1,360.2 L175.9,359.9 L176.8,359.9 L177.6,359.2 L178.5,359.2 L179.3,358.5 L180.1,359.2 L181.0,358.9 L181.8,358.9 L182.7,359.2 L183.5,359.5 L184.3,359.2 L185.2,359.2 L186.0,359.5 L186.9,360.2 L187.7,359.9 L188.6,360.2 L189.4,360.2 L190.2,360.2 L191.1,360.5 L191.9,360.5 L192.8,360.9 L193.6,360.9 L194.4,359.5 L195.3,359.5 L196.1,358.9 L197.0,360.9 L197.8,359.9 L198.7,360.5 L199.5,354.9 L200.3,355.2 L201.2,355.2 L202.0,355.9 L202.9,355.9 L203.7,356.9 L204.5,356.5 L205.4,356.9 L206.2,356.9 L207.1,356.2 L207.9,356.5 L208.8,356.5 L209.6,356.9 L210.4,356.2 L211.3,356.2 L212.1,356.5 L213.0,356.2 L213.8,356.9 L214.6,355.5 L215.5,355.5 L216.3,355.2 L217.2,354.2 L218.0,354.9 L218.8,354.5 L219.7,355.2 L220.5,355.2 L221.4,355.2 L222.2,355.5 L223.1,355.5 L223.9,355.5 L224.7,355.2 L225.6,355.5 L226.4,356.2 L227.3,355.9 L228.1,355.9 L228.9,354.9 L229.8,354.9 L230.6,355.2 L231.5,354.5 L232.3,354.9 L233.2,354.5 L234.0,354.9 L234.8,354.5 L235.7,354.5 L236.5,354.5 L237.4,354.5 L238.2,354.9 L239.0,354.9 L239.9,354.5 L240.7,354.9 L241.6,355.2 L242.4,355.5 L243.3,355.5 L244.1,355.2 L244.9,355.5 L245.8,355.9 L246.6,354.9 L247.5,356.2 L248.3,355.9 L249.1,356.2 L250.0,356.5 L250.8,356.5 L251.7,356.5 L252.5,356.5 L253.4,356.2 L254.2,356.5 L255.0,356.2 L255.9,356.2 L256.7,355.9 L257.6,356.5 L258.4,356.2 L259.2,355.2 L260.1,355.5 L260.9,356.2 L261.8,355.5 L262.6,355.9 L263.5,355.5 L264.3,355.5 L265.1,355.5 L266.0,355.2 L266.8,355.5 L267.7,355.5 L268.5,355.5 L269.3,355.2 L270.2,355.5 L271.0,355.2 L271.9,355.5 L272.7,355.2 L273.5,355.5 L274.4,355.2 L275.2,355.2 L276.1,355.2 L276.9,354.9 L277.8,354.9 L278.6,355.2 L279.4,355.2 L280.3,355.5 L281.1,355.2 L282.0,355.5 L282.8,355.9 L283.6,355.9 L284.5,356.2 L285.3,355.9 L286.2,355.9 L287.0,356.2 L287.9,355.5 L288.7,355.2 L289.5,354.9 L290.4,355.2 L291.2,355.2 L292.1,355.5 L292.9,355.5 L293.7,355.2 L294.6,355.9 L295.4,355.2 L296.3,355.9 L297.1,355.5 L298.0,355.9 L298.8,355.9 L299.6,355.5 L300.5,355.5 L301.3,354.9 L302.2,353.9 L303.0,354.2 L303.8,353.5 L304.7,353.9 L305.5,353.9 L306.4,352.5 L307.2,353.2 L308.1,352.5 L308.9,352.9 L309.7,352.9 L310.6,352.9 L311.4,352.2 L312.3,352.2 L313.1,352.5 L313.9,351.9 L314.8,351.9 L315.6,352.9 L316.5,352.9 L317.3,352.9 L318.1,352.2 L319.0,353.9 L319.8,355.2 L320.7,355.2 L321.5,355.5 L322.4,355.2 L323.2,355.5 L324.0,355.2 L324.9,355.2 L325.7,355.2 L326.6,355.2 L327.4,355.2 L328.2,355.2 L329.1,355.2 L329.9,355.5 L330.8,355.5 L331.6,354.9 L332.5,355.2 L333.3,355.2 L334.1,355.2 L335.0,354.9 L335.8,354.5 L336.7,353.5 L337.5,353.5 L338.3,353.9 L339.2,352.5 L340.0,352.5 L340.9,352.9 L341.7,352.9 L342.6,352.9 L343.4,352.5 L344.2,352.2 L345.1,351.9 L345.9,351.5 L346.8,351.5 L347.6,351.9 L348.4,351.5 L349.3,350.9 L350.1,350.9 L351.0,351.2 L351.8,351.5 L352.7,351.2 L353.5,351.2 L354.3,351.2 L355.2,350.5 L356.0,351.5 L356.9,350.9 L357.7,345.8 L358.5,349.2 L359.4,351.2 L360.2,351.2 L361.1,351.5 L361.9,352.2 L362.7,351.9 L363.6,351.9 L364.4,352.5 L365.3,352.2 L366.1,351.9 L367.0,350.9 L367.8,350.2 L368.6,350.5 L369.5,350.9 L370.3,350.9 L371.2,350.5 L372.0,351.2 L372.8,352.5 L373.7,352.9 L374.5,352.5 L375.4,353.9 L376.2,352.9 L377.1,352.5 L377.9,352.5 L378.7,353.2 L379.6,352.9 L380.4,353.5 L381.3,353.5 L382.1,353.5 L382.9,353.9 L383.8,353.5 L384.6,353.5 L385.5,353.9 L386.3,353.2 L387.2,352.5 L388.0,352.2 L388.8,352.2 L389.7,352.5 L390.5,352.5 L391.4,352.2 L392.2,352.5 L393.0,353.2 L393.9,353.2 L394.7,353.2 L395.6,353.2 L396.4,352.5 L397.3,352.5 L398.1,352.9 L398.9,352.9 L399.8,353.2 L400.6,352.5 L401.5,352.2 L402.3,352.5 L403.1,352.5 L404.0,352.5 L404.8,352.2 L405.7,352.2 L406.5,352.2 L407.3,352.2 L408.2,352.2 L409.0,351.9 L409.9,351.9 L410.7,351.9 L411.6,352.2 L412.4,351.9 L413.2,351.5 L414.1,352.2 L414.9,352.5 L415.8,352.5 L416.6,352.9 L417.4,352.2 L418.3,352.5 L419.1,352.9 L420.0,353.2 L420.8,352.9 L421.7,354.2 L422.5,354.5 L423.3,355.5 L424.2,355.9 L425.0,356.5 L425.9,357.5 L426.7,357.2 L427.5,357.2 L428.4,357.2 L429.2,356.9 L430.1,356.5 L430.9,356.2 L431.8,355.5 L432.6,355.9 L433.4,356.2 L434.3,355.2 L435.1,354.2 L436.0,354.2 L436.8,354.9 L437.6,354.9 L438.5,354.9 L439.3,354.9 L440.2,357.2 L441.0,353.5 L441.9,353.2 L442.7,353.9 L443.5,354.2 L444.4,353.2 L445.2,353.5 L446.1,353.5 L446.9,354.2 L447.7,354.2 L448.6,354.9 L449.4,354.2 L450.3,354.5 L451.1,354.5 L451.9,353.2 L452.8,352.2 L453.6,352.5 L454.5,362.6 L455.3,362.6 L456.2,362.9 L457.0,362.6 L457.8,362.2 L458.7,362.2 L459.5,362.6 L460.4,354.9 L461.2,352.5 L462.0,352.5 L462.9,352.9 L463.7,352.5 L464.6,352.5 L465.4,352.9 L466.3,352.5 L467.1,353.2 L467.9,352.5 L468.8,352.5 L469.6,353.2 L470.5,352.9 L471.3,353.2 L472.1,353.2 L473.0,352.9 L473.8,355.5 L474.7,355.2 L475.5,355.2 L476.4,353.9 L477.2,354.2 L478.0,353.9 L478.9,353.9 L479.7,353.9 L480.6,353.2 L481.4,354.2 L482.2,353.9 L483.1,354.2 L483.9,354.9 L484.8,355.2 L485.6,356.5 L486.5,356.9 L487.3,356.5 L488.1,356.2 L489.0,357.2 L489.8,355.5 L490.7,355.2 L491.5,355.2 L492.3,355.5 L493.2,355.2 L494.0,355.2 L494.9,355.2 L495.7,355.2 L496.5,355.2 L497.4,354.5 L498.2,354.2 L499.1,354.9 L499.9,354.9 L500.8,354.5 L501.6,354.9 L502.4,354.2 L503.3,355.5 L504.1,354.9 L505.0,354.9 L505.8,354.9 L506.6,355.2 L507.5,354.9 L508.3,355.5 L509.2,355.2 L510.0,355.9 L510.9,355.5 L511.7,355.2 L512.5,355.2 L513.4,355.9 L514.2,355.9 L515.1,356.2 L515.9,355.9 L516.7,355.9 L517.6,355.5 L518.4,355.5 L519.3,355.2 L520.1,355.9 L521.0,355.9 L521.8,355.5 L522.6,354.9 L523.5,355.2 L524.3,355.5 L525.2,355.5 L526.0,355.2 L526.8,355.2 L527.7,355.2 L528.5,355.9 L529.4,355.9 L530.2,356.2 L531.1,355.9 L531.9,356.5 L532.7,355.9 L533.6,355.9 L534.4,356.2 L535.3,355.5 L536.1,355.9 L536.9,356.2 L537.8,352.5 L538.6,337.8 L539.5,355.5 L540.3,355.5 L541.2,355.5 L542.0,354.9 L542.8,355.5 L543.7,355.2 L544.5,355.5 L545.4,355.5 L546.2,355.5 L547.0,355.2 L547.9,355.5 L548.7,355.2 L549.6,355.2 L550.4,355.9 L551.2,354.9 L552.1,356.2 L552.9,354.9 L553.8,354.2 L554.6,354.9 L555.5,354.9 L556.3,354.9 L557.1,354.9 L558.0,353.2 L558.8,353.2 L559.7,352.9 L560.5,353.5 L561.3,352.9 L562.2,353.2 L563.0,352.5 L563.9,353.2 L564.7,353.2 L565.6,352.2 L566.4,353.9 L567.2,353.9 L568.1,353.5 L568.9,353.5 L569.8,354.2 L570.6,354.2 L571.4,354.2 L572.3,353.5 L573.1,354.2 L574.0,354.9 L574.8,354.9 L575.7,362.2 L576.5,362.2 L577.3,362.9 L578.2,361.9 L579.0,362.2 L579.9,362.6 L580.7,362.9 L581.5,361.5 L582.4,361.9 L583.2,361.5 L584.1,361.2 L584.9,361.5 L585.8,361.5 L586.6,361.5 L587.4,361.5 L588.3,361.5 L589.1,361.5 L590.0,360.9 L590.8,360.9 L591.6,361.5 L592.5,361.2 L593.3,360.9 L594.2,361.2 L595.0,361.5 L595.8,361.9 L596.7,363.2 L597.5,362.9 L598.4,362.6 L599.2,362.6 L600.1,362.9 L600.9,362.2 L601.7,362.2 L602.6,362.6 L603.4,362.2 L604.3,362.2 L605.1,362.2 L605.9,362.2 L606.8,362.9 L607.6,363.2 L608.5,363.6 L609.3,364.2 L610.2,363.9 L611.0,363.6 L611.8,362.9 L612.7,361.5 L613.5,362.2 L614.4,361.9 L615.2,362.6 L616.0,362.2 L616.9,361.9 L617.7,362.2 L618.6,361.9 L619.4,361.5 L620.3,361.5 L621.1,361.9 L621.9,361.9 L622.8,361.5 L623.6,361.2 L624.5,360.9 L625.3,362.2 L626.1,362.2 L627.0,362.2 L627.8,363.2 L628.7,363.2 L629.5,363.6 L630.4,363.9 L631.2,363.6 L632.0,362.9 L632.9,363.9 L633.7,363.2 L634.6,363.2 L635.4,363.2 L636.2,363.2 L637.1,363.6 L637.9,363.6 L638.8,362.2 L639.6,361.9 L640.4,362.2 L641.3,362.2 L642.1,354.2 L643.0,353.5 L643.8,354.9 L644.7,354.9 L645.5,354.9 L646.3,355.2 L647.2,354.9 L648.0,354.5 L648.9,354.5 L649.7,353.9 L650.5,353.9 L651.4,353.9 L652.2,354.2 L653.1,354.2 L653.9,353.9 L654.8,354.5 L655.6,353.9 L656.4,355.2 L657.3,354.9 L658.1,354.9 L659.0,354.2 L659.8,354.5 L660.6,355.2 L661.5,354.9 L662.3,354.5 L663.2,353.5 L664.0,353.9 L664.9,354.2 L665.7,354.5 L666.5,354.2 L667.4,354.2 L668.2,353.9 L669.1,354.9 L669.9,354.9 L670.7,354.5 L671.6,354.5 L672.4,354.2 L673.3,354.2 L674.1,354.2 L675.0,353.9 L675.8,354.2 L676.6,354.9 L677.5,354.5 L678.3,353.9 L679.2,353.5 L680.0,352.9" stroke="#ff7f0e" stroke-width="2" fill="none" opacity="0.8"/>
<!-- Thermal Generation -->
<path d="M80.0,288.4 L80.8,288.7 L81.7,289.4 L82.5,293.4 L83.4,301.4 L84.2,287.4 L85.0,293.1 L85.9,316.5 L86.7,319.5 L87.6,310.8 L88.4,304.1 L89.3,288.1 L90.1,295.1 L90.9,305.1 L91.8,304.1 L92.6,316.1 L93.5,298.4 L94.3,308.4 L95.1,326.1 L96.0,328.8 L96.8,329.5 L97.7,322.1 L98.5,328.5 L99.4,288.4 L100.2,305.4 L101.0,323.1 L101.9,313.8 L102.7,310.4 L103.6,317.5 L104.4,318.8 L105.2,297.8 L106.1,298.1 L106.9,317.1 L107.8,314.8 L108.6,316.8 L109.5,307.1 L110.3,302.4 L111.1,331.5 L112.0,299.8 L112.8,312.8 L113.7,317.5 L114.5,299.1 L115.3,309.4 L116.2,307.8 L117.0,305.1 L117.9,298.4 L118.7,296.8 L119.6,295.4 L120.4,295.7 L121.2,298.8 L122.1,304.4 L122.9,312.8 L123.8,294.4 L124.6,293.4 L125.4,315.5 L126.3,315.8 L127.1,295.7 L128.0,312.1 L128.8,294.4 L129.6,286.1 L130.5,289.1 L131.3,285.1 L132.2,329.1 L133.0,331.2 L133.9,324.5 L134.7,317.8 L135.5,326.1 L136.4,329.8 L137.2,314.8 L138.1,289.7 L138.9,283.1 L139.7,285.1 L140.6,287.4 L141.4,285.1 L142.3,283.7 L143.1,284.1 L144.0,288.1 L144.8,284.7 L145.6,289.4 L146.5,287.7 L147.3,287.4 L148.2,293.1 L149.0,285.1 L149.8,285.7 L150.7,285.1 L151.5,302.8 L152.4,332.5 L153.2,331.5 L154.1,332.8 L154.9,331.5 L155.7,332.8 L156.6,332.8 L157.4,332.8 L158.3,313.5 L159.1,292.7 L159.9,284.1 L160.8,284.1 L161.6,284.7 L162.5,288.4 L163.3,284.1 L164.2,284.7 L165.0,283.1 L165.8,284.1 L166.7,299.1 L167.5,303.8 L168.4,299.8 L169.2,282.1 L170.0,284.7 L170.9,281.7 L171.7,311.8 L172.6,326.5 L173.4,329.8 L174.2,329.5 L175.1,330.8 L175.9,330.2 L176.8,330.5 L177.6,330.2 L178.5,327.1 L179.3,282.7 L180.1,281.7 L181.0,281.7 L181.8,281.7 L182.7,281.7 L183.5,288.7 L184.3,308.4 L185.2,316.5 L186.0,317.5 L186.9,324.1 L187.7,327.5 L188.6,317.8 L189.4,311.4 L190.2,295.7 L191.1,293.1 L191.9,315.8 L192.8,323.8 L193.6,328.1 L194.4,328.5 L195.3,352.9 L196.1,353.5 L197.0,346.5 L197.8,331.2 L198.7,331.2 L199.5,322.5 L200.3,284.4 L201.2,283.1 L202.0,283.1 L202.9,285.1 L203.7,284.4 L204.5,284.4 L205.4,285.4 L206.2,330.5 L207.1,328.8 L207.9,328.8 L208.8,322.5 L209.6,319.5 L210.4,316.1 L211.3,287.4 L212.1,304.4 L213.0,328.8 L213.8,319.1 L214.6,317.8 L215.5,308.4 L216.3,308.8 L217.2,283.7 L218.0,297.4 L218.8,314.8 L219.7,301.8 L220.5,300.1 L221.4,303.4 L222.2,301.4 L223.1,304.4 L223.9,286.4 L224.7,283.7 L225.6,284.4 L226.4,284.4 L227.3,311.1 L228.1,305.1 L228.9,298.8 L229.8,293.1 L230.6,297.8 L231.5,286.7 L232.3,292.4 L233.2,288.1 L234.0,286.7 L234.8,285.7 L235.7,286.1 L236.5,286.4 L237.4,302.4 L238.2,316.5 L239.0,307.4 L239.9,287.4 L240.7,287.7 L241.6,290.1 L242.4,292.1 L243.3,312.1 L244.1,315.8 L244.9,319.1 L245.8,321.1 L246.6,321.5 L247.5,315.1 L248.3,314.8 L249.1,317.1 L250.0,317.5 L250.8,317.8 L251.7,289.4 L252.5,309.1 L253.4,305.4 L254.2,320.8 L255.0,316.8 L255.9,323.8 L256.7,341.8 L257.6,326.1 L258.4,325.8 L259.2,324.1 L260.1,330.5 L260.9,294.1 L261.8,306.1 L262.6,312.1 L263.5,334.8 L264.3,344.5 L265.1,340.2 L266.0,343.5 L266.8,340.2 L267.7,340.2 L268.5,339.5 L269.3,343.2 L270.2,342.2 L271.0,338.8 L271.9,352.9 L272.7,365.9 L273.5,374.9 L274.4,363.9 L275.2,336.2 L276.1,335.8 L276.9,356.9 L277.8,353.2 L278.6,336.2 L279.4,304.8 L280.3,312.4 L281.1,296.1 L282.0,296.8 L282.8,297.1 L283.6,296.8 L284.5,297.8 L285.3,296.8 L286.2,296.8 L287.0,299.1 L287.9,314.1 L288.7,313.1 L289.5,313.1 L290.4,297.1 L291.2,297.4 L292.1,297.8 L292.9,319.5 L293.7,327.5 L294.6,328.1 L295.4,326.8 L296.3,330.2 L297.1,329.1 L298.0,325.5 L298.8,325.5 L299.6,325.5 L300.5,311.8 L301.3,314.1 L302.2,315.5 L303.0,326.8 L303.8,330.5 L304.7,327.1 L305.5,326.5 L306.4,329.8 L307.2,330.2 L308.1,330.5 L308.9,330.8 L309.7,330.5 L310.6,332.8 L311.4,332.5 L312.3,329.1 L313.1,331.5 L313.9,327.8 L314.8,330.2 L315.6,329.1 L316.5,326.5 L317.3,324.8 L318.1,325.1 L319.0,324.8 L319.8,321.5 L320.7,318.5 L321.5,317.8 L322.4,320.5 L323.2,312.4 L324.0,319.1 L324.9,319.8 L325.7,303.1 L326.6,285.7 L327.4,285.1 L328.2,285.1 L329.1,285.4 L329.9,285.4 L330.8,284.7 L331.6,286.7 L332.5,284.1 L333.3,355.2 L334.1,355.9 L335.0,354.9 L335.8,354.5 L336.7,354.5 L337.5,354.9 L338.3,355.2 L339.2,355.5 L340.0,355.2 L340.9,329.1 L341.7,329.1 L342.6,328.8 L343.4,285.4 L344.2,283.4 L345.1,283.1 L345.9,283.1 L346.8,281.7 L347.6,286.7 L348.4,282.7 L349.3,287.1 L350.1,283.7 L351.0,283.7 L351.8,286.4 L352.7,290.7 L353.5,332.2 L354.3,338.8 L355.2,333.5 L356.0,336.5 L356.9,330.8 L357.7,330.5 L358.5,330.5 L359.4,332.2 L360.2,334.5 L361.1,325.5 L361.9,284.1 L362.7,296.8 L363.6,324.1 L364.4,325.5 L365.3,327.8 L366.1,328.8 L367.0,332.5 L367.8,355.5 L368.6,355.9 L369.5,355.5 L370.3,348.2 L371.2,336.8 L372.0,289.4 L372.8,290.7 L373.7,346.2 L374.5,352.9 L375.4,349.2 L376.2,352.2 L377.1,356.9 L377.9,356.2 L378.7,354.2 L379.6,352.9 L380.4,355.2 L381.3,328.1 L382.1,289.7 L382.9,301.8 L383.8,328.5 L384.6,329.1 L385.5,328.8 L386.3,291.4 L387.2,293.1 L388.0,293.1 L388.8,292.4 L389.7,292.1 L390.5,291.4 L391.4,290.7 L392.2,287.1 L393.0,285.1 L393.9,288.4 L394.7,288.7 L395.6,322.5 L396.4,323.5 L397.3,356.9 L398.1,362.9 L398.9,379.9 L399.8,380.9 L400.6,353.2 L401.5,292.4 L402.3,298.1 L403.1,298.8 L404.0,295.4 L404.8,293.7 L405.7,294.1 L406.5,293.7 L407.3,291.4 L408.2,291.4 L409.0,287.7 L409.9,285.4 L410.7,288.4 L411.6,284.4 L412.4,288.1 L413.2,287.7 L414.1,295.1 L414.9,305.8 L415.8,306.1 L416.6,306.4 L417.4,312.1 L418.3,310.8 L419.1,330.8 L420.0,347.2 L420.8,328.1 L421.7,298.4 L422.5,285.7 L423.3,286.4 L424.2,286.4 L425.0,293.4 L425.9,320.8 L426.7,326.1 L427.5,326.5 L428.4,335.8 L429.2,336.8 L430.1,356.9 L430.9,344.8 L431.8,325.1 L432.6,286.1 L433.4,285.4 L434.3,282.1 L435.1,310.8 L436.0,307.1 L436.8,318.1 L437.6,322.1 L438.5,319.8 L439.3,321.8 L440.2,319.1 L441.0,327.8 L441.9,300.8 L442.7,283.1 L443.5,284.1 L444.4,285.1 L445.2,285.7 L446.1,283.4 L446.9,300.1 L447.7,337.8 L448.6,360.9 L449.4,361.2 L450.3,357.9 L451.1,351.5 L451.9,319.8 L452.8,284.4 L453.6,288.1 L454.5,307.1 L455.3,318.1 L456.2,324.1 L457.0,329.8 L457.8,331.5 L458.7,345.2 L459.5,342.2 L460.4,344.8 L461.2,340.8 L462.0,282.1 L462.9,284.7 L463.7,284.4 L464.6,285.1 L465.4,283.1 L466.3,283.4 L467.1,284.1 L467.9,283.7 L468.8,284.1 L469.6,284.4 L470.5,284.7 L471.3,284.7 L472.1,284.4 L473.0,287.1 L473.8,285.4 L474.7,300.8 L475.5,291.4 L476.4,287.4 L477.2,297.4 L478.0,290.1 L478.9,292.7 L479.7,284.4 L480.6,280.7 L481.4,314.8 L482.2,280.4 L483.1,281.7 L483.9,282.1 L484.8,279.4 L485.6,276.0 L486.5,278.4 L487.3,278.7 L488.1,278.7 L489.0,282.1 L489.8,274.0 L490.7,279.0 L491.5,274.0 L492.3,274.4 L493.2,274.4 L494.0,279.7 L494.9,279.7 L495.7,294.4 L496.5,295.4 L497.4,292.4 L498.2,293.7 L499.1,318.8 L499.9,316.5 L500.8,314.1 L501.6,318.5 L502.4,290.4 L503.3,277.0 L504.1,274.4 L505.0,270.7 L505.8,271.0 L506.6,276.4 L507.5,272.0 L508.3,272.0 L509.2,274.4 L510.0,278.0 L510.9,276.7 L511.7,276.4 L512.5,273.7 L513.4,272.7 L514.2,271.4 L515.1,291.4 L515.9,301.1 L516.7,300.8 L517.6,310.8 L518.4,312.4 L519.3,303.1 L520.1,287.4 L521.0,278.4 L521.8,274.4 L522.6,271.4 L523.5,270.4 L524.3,272.7 L525.2,290.4 L526.0,295.4 L526.8,284.1 L527.7,272.7 L528.5,273.7 L529.4,271.7 L530.2,271.7 L531.1,275.7 L531.9,271.4 L532.7,272.0 L533.6,272.7 L534.4,273.0 L535.3,295.4 L536.1,278.4 L536.9,271.7 L537.8,271.7 L538.6,275.7 L539.5,278.7 L540.3,292.1 L541.2,278.4 L542.0,273.4 L542.8,271.4 L543.7,269.7 L544.5,284.7 L545.4,283.7 L546.2,281.1 L547.0,270.4 L547.9,275.7 L548.7,311.8 L549.6,313.5 L550.4,314.8 L551.2,339.8 L552.1,339.8 L552.9,338.8 L553.8,311.8 L554.6,296.8 L555.5,290.7 L556.3,300.8 L557.1,310.1 L558.0,311.1 L558.8,323.5 L559.7,324.5 L560.5,348.5 L561.3,333.5 L562.2,301.8 L563.0,277.4 L563.9,270.0 L564.7,273.4 L565.6,273.7 L566.4,275.7 L567.2,272.7 L568.1,272.4 L568.9,272.7 L569.8,272.0 L570.6,278.4 L571.4,278.7 L572.3,283.1 L573.1,282.4 L574.0,277.7 L574.8,278.0 L575.7,278.4 L576.5,278.4 L577.3,291.7 L578.2,301.8 L579.0,312.1 L579.9,313.8 L580.7,317.5 L581.5,313.8 L582.4,306.8 L583.2,273.4 L584.1,276.4 L584.9,276.4 L585.8,277.4 L586.6,284.1 L587.4,274.0 L588.3,280.0 L589.1,292.7 L590.0,314.1 L590.8,311.8 L591.6,305.8 L592.5,294.7 L593.3,296.8 L594.2,295.7 L595.0,296.8 L595.8,316.8 L596.7,314.1 L597.5,312.8 L598.4,310.8 L599.2,306.1 L600.1,321.5 L600.9,329.1 L601.7,329.8 L602.6,310.4 L603.4,288.7 L604.3,282.7 L605.1,282.1 L605.9,280.4 L606.8,285.1 L607.6,285.1 L608.5,276.4 L609.3,280.0 L610.2,281.7 L611.0,317.5 L611.8,316.8 L612.7,317.1 L613.5,317.1 L614.4,292.7 L615.2,298.1 L616.0,300.1 L616.9,317.1 L617.7,316.1 L618.6,319.5 L619.4,318.8 L620.3,321.8 L621.1,357.9 L621.9,359.5 L622.8,356.2 L623.6,355.9 L624.5,348.9 L625.3,345.8 L626.1,330.5 L627.0,329.8 L627.8,340.5 L628.7,343.8 L629.5,344.8 L630.4,344.8 L631.2,343.8 L632.0,333.5 L632.9,301.8 L633.7,292.4 L634.6,290.1 L635.4,287.7 L636.2,296.8 L637.1,299.1 L637.9,297.1 L638.8,304.4 L639.6,304.1 L640.4,313.8 L641.3,322.5 L642.1,322.8 L643.0,319.1 L643.8,294.1 L644.7,287.4 L645.5,287.7 L646.3,286.7 L647.2,286.7 L648.0,284.7 L648.9,281.1 L649.7,282.1 L650.5,281.4 L651.4,287.4 L652.2,284.4 L653.1,283.7 L653.9,283.7 L654.8,285.4 L655.6,287.4 L656.4,297.1 L657.3,305.4 L658.1,310.4 L659.0,313.5 L659.8,318.1 L660.6,327.1 L661.5,325.1 L662.3,328.5 L663.2,327.1 L664.0,289.1 L664.9,288.4 L665.7,309.8 L666.5,329.1 L667.4,329.1 L668.2,317.1 L669.1,298.4 L669.9,304.1 L670.7,320.8 L671.6,329.5 L672.4,329.8 L673.3,320.1 L674.1,324.1 L675.0,322.5 L675.8,323.1 L676.6,318.5 L677.5,317.1 L678.3,327.1 L679.2,325.8 L680.0,350.5" stroke="#2ca02c" stroke-width="2" fill="none" opacity="0.8"/>
<!-- Solar Generation -->
<path d="M80.0,420.0 L80.8,420.0 L81.7,420.0 L82.5,420.0 L83.4,420.0 L84.2,420.0 L85.0,420.0 L85.9,420.0 L86.7,420.0 L87.6,420.0 L88.4,420.0 L89.3,420.0 L90.1,418.7 L90.9,412.0 L91.8,408.0 L92.6,399.6 L93.5,396.3 L94.3,389.6 L95.1,383.9 L96.0,397.6 L96.8,408.3 L97.7,416.7 L98.5,416.7 L99.4,419.7 L100.2,420.0 L101.0,420.0 L101.9,420.0 L102.7,420.0 L103.6,420.0 L104.4,420.0 L105.2,420.0 L106.1,420.0 L106.9,420.0 L107.8,420.0 L108.6,420.0 L109.5,420.0 L110.3,420.0 L111.1,418.3 L112.0,415.7 L112.8,411.6 L113.7,412.7 L114.5,406.3 L115.3,406.3 L116.2,408.0 L117.0,408.3 L117.9,416.3 L118.7,418.7 L119.6,419.7 L120.4,420.0 L121.2,420.0 L122.1,420.0 L122.9,420.0 L123.8,420.0 L124.6,420.0 L125.4,420.0 L126.3,420.0 L127.1,420.0 L128.0,420.0 L128.8,420.0 L129.6,420.0 L130.5,420.0 L131.3,418.3 L132.2,417.0 L133.0,406.0 L133.9,408.0 L134.7,403.6 L135.5,402.3 L136.4,406.0 L137.2,409.6 L138.1,410.3 L138.9,415.3 L139.7,419.7 L140.6,420.0 L141.4,420.0 L142.3,420.0 L143.1,420.0 L144.0,420.0 L144.8,420.0 L145.6,420.0 L146.5,420.0 L147.3,420.0 L148.2,420.0 L149.0,420.0 L149.8,420.0 L150.7,418.3 L151.5,392.6 L152.4,374.9 L153.2,374.2 L154.1,378.2 L154.9,378.9 L155.7,377.6 L156.6,375.2 L157.4,373.6 L158.3,374.9 L159.1,398.3 L159.9,419.3 L160.8,420.0 L161.6,420.0 L162.5,420.0 L163.3,420.0 L164.2,420.0 L165.0,420.0 L165.8,420.0 L166.7,420.0 L167.5,420.0 L168.4,420.0 L169.2,420.0 L170.0,420.0 L170.9,418.3 L171.7,393.3 L172.6,375.2 L173.4,375.2 L174.2,377.9 L175.1,379.9 L175.9,379.6 L176.8,377.2 L177.6,375.2 L178.5,376.9 L179.3,400.3 L180.1,419.7 L181.0,420.0 L181.8,420.0 L182.7,420.0 L183.5,420.0 L184.3,420.0 L185.2,420.0 L186.0,420.0 L186.9,420.0 L187.7,420.0 L188.6,420.0 L189.4,420.0 L190.2,420.0 L191.1,419.0 L191.9,394.3 L192.8,375.9 L193.6,375.9 L194.4,377.9 L195.3,380.3 L196.1,379.6 L197.0,377.2 L197.8,375.2 L198.7,377.2 L199.5,401.0 L200.3,419.7 L201.2,420.0 L202.0,420.0 L202.9,420.0 L203.7,420.0 L204.5,420.0 L205.4,420.0 L206.2,420.0 L207.1,420.0 L207.9,420.0 L208.8,420.0 L209.6,420.0 L210.4,420.0 L211.3,419.3 L212.1,395.6 L213.0,376.2 L213.8,376.9 L214.6,379.3 L215.5,388.9 L216.3,380.3 L217.2,377.6 L218.0,375.6 L218.8,377.9 L219.7,402.3 L220.5,419.7 L221.4,420.0 L222.2,420.0 L223.1,420.0 L223.9,420.0 L224.7,420.0 L225.6,420.0 L226.4,420.0 L227.3,420.0 L228.1,420.0 L228.9,420.0 L229.8,420.0 L230.6,420.0 L231.5,419.0 L232.3,411.0 L233.2,409.0 L234.0,392.3 L234.8,390.9 L235.7,390.9 L236.5,388.9 L237.4,395.3 L238.2,384.3 L239.0,391.6 L239.9,407.0 L240.7,420.0 L241.6,420.0 L242.4,420.0 L243.3,420.0 L244.1,420.0 L244.9,420.0 L245.8,420.0 L246.6,420.0 L247.5,420.0 L248.3,420.0 L249.1,420.0 L250.0,420.0 L250.8,420.0 L251.7,420.0 L252.5,416.0 L253.4,417.0 L254.2,413.3 L255.0,410.3 L255.9,404.3 L256.7,406.0 L257.6,410.6 L258.4,413.3 L259.2,418.7 L260.1,418.0 L260.9,420.0 L261.8,420.0 L262.6,420.0 L263.5,420.0 L264.3,420.0 L265.1,420.0 L266.0,420.0 L266.8,420.0 L267.7,420.0 L268.5,420.0 L269.3,420.0 L270.2,420.0 L271.0,420.0 L271.9,419.7 L272.7,413.7 L273.5,411.6 L274.4,389.6 L275.2,394.3 L276.1,381.6 L276.9,403.6 L277.8,393.3 L278.6,394.6 L279.4,415.3 L280.3,418.3 L281.1,420.0 L282.0,420.0 L282.8,420.0 L283.6,420.0 L284.5,420.0 L285.3,420.0 L286.2,420.0 L287.0,420.0 L287.9,420.0 L288.7,420.0 L289.5,420.0 L290.4,420.0 L291.2,420.0 L292.1,420.0 L292.9,418.0 L293.7,416.7 L294.6,414.7 L295.4,412.0 L296.3,408.3 L297.1,404.0 L298.0,405.3 L298.8,412.3 L299.6,415.3 L300.5,417.7 L301.3,420.0 L302.2,420.0 L303.0,420.0 L303.8,420.0 L304.7,420.0 L305.5,420.0 L306.4,420.0 L307.2,420.0 L308.1,420.0 L308.9,420.0 L309.7,420.0 L310.6,420.0 L311.4,420.0 L312.3,420.0 L313.1,419.0 L313.9,417.3 L314.8,406.6 L315.6,406.0 L316.5,406.0 L317.3,403.6 L318.1,403.3 L319.0,402.3 L319.8,411.0 L320.7,418.0 L321.5,420.0 L322.4,420.0 L323.2,420.0 L324.0,420.0 L324.9,420.0 L325.7,420.0 L326.6,420.0 L327.4,420.0 L328.2,420.0 L329.1,420.0 L329.9,420.0 L330.8,420.0 L331.6,420.0 L332.5,420.0 L333.3,418.3 L334.1,416.0 L335.0,415.0 L335.8,411.6 L336.7,405.3 L337.5,410.3 L338.3,411.0 L339.2,413.7 L340.0,416.7 L340.9,418.0 L341.7,420.0 L342.6,420.0 L343.4,420.0 L344.2,420.0 L345.1,420.0 L345.9,420.0 L346.8,420.0 L347.6,420.0 L348.4,420.0 L349.3,420.0 L350.1,420.0 L351.0,420.0 L351.8,420.0 L352.7,420.0 L353.5,418.0 L354.3,413.3 L355.2,412.7 L356.0,407.3 L356.9,401.6 L357.7,409.6 L358.5,415.0 L359.4,415.3 L360.2,409.3 L361.1,409.6 L361.9,420.0 L362.7,420.0 L363.6,420.0 L364.4,420.0 L365.3,420.0 L366.1,420.0 L367.0,420.0 L367.8,420.0 L368.6,420.0 L369.5,420.0 L370.3,420.0 L371.2,420.0 L372.0,420.0 L372.8,419.7 L373.7,412.7 L374.5,413.0 L375.4,388.6 L376.2,382.3 L377.1,385.3 L377.9,402.3 L378.7,400.6 L379.6,400.3 L380.4,414.7 L381.3,416.7 L382.1,420.0 L382.9,420.0 L383.8,420.0 L384.6,420.0 L385.5,420.0 L386.3,420.0 L387.2,420.0 L388.0,420.0 L388.8,420.0 L389.7,420.0 L390.5,420.0 L391.4,420.0 L392.2,420.0 L393.0,420.0 L393.9,404.6 L394.7,378.6 L395.6,377.9 L396.4,384.6 L397.3,381.9 L398.1,380.9 L398.9,379.3 L399.8,374.2 L400.6,396.3 L401.5,411.6 L402.3,420.0 L403.1,420.0 L404.0,420.0 L404.8,420.0 L405.7,420.0 L406.5,420.0 L407.3,420.0 L408.2,420.0 L409.0,420.0 L409.9,420.0 L410.7,420.0 L411.6,420.0 L412.4,420.0 L413.2,420.0 L414.1,415.3 L414.9,393.9 L415.8,396.6 L416.6,399.6 L417.4,404.6 L418.3,411.6 L419.1,415.3 L420.0,417.3 L420.8,417.3 L421.7,419.7 L422.5,420.0 L423.3,420.0 L424.2,420.0 L425.0,420.0 L425.9,420.0 L426.7,420.0 L427.5,420.0 L428.4,420.0 L429.2,420.0 L430.1,420.0 L430.9,420.0 L431.8,420.0 L432.6,420.0 L433.4,420.0 L434.3,415.3 L435.1,412.7 L436.0,386.3 L436.8,381.3 L437.6,382.3 L438.5,396.3 L439.3,401.3 L440.2,397.6 L441.0,404.0 L441.9,412.7 L442.7,420.0 L443.5,420.0 L444.4,420.0 L445.2,420.0 L446.1,420.0 L446.9,420.0 L447.7,420.0 L448.6,420.0 L449.4,420.0 L450.3,420.0 L451.1,420.0 L451.9,420.0 L452.8,420.0 L453.6,420.0 L454.5,404.6 L455.3,401.0 L456.2,400.6 L457.0,398.3 L457.8,398.6 L458.7,382.3 L459.5,379.3 L460.4,392.3 L461.2,384.9 L462.0,414.0 L462.9,420.0 L463.7,420.0 L464.6,420.0 L465.4,420.0 L466.3,420.0 L467.1,420.0 L467.9,420.0 L468.8,420.0 L469.6,420.0 L470.5,420.0 L471.3,420.0 L472.1,420.0 L473.0,420.0 L473.8,420.0 L474.7,404.0 L475.5,379.3 L476.4,378.2 L477.2,381.9 L478.0,383.9 L478.9,383.3 L479.7,380.3 L480.6,377.9 L481.4,384.9 L482.2,413.3 L483.1,420.0 L483.9,420.0 L484.8,420.0 L485.6,420.0 L486.5,420.0 L487.3,420.0 L488.1,420.0 L489.0,420.0 L489.8,420.0 L490.7,420.0 L491.5,420.0 L492.3,420.0 L493.2,420.0 L494.0,420.0 L494.9,405.0 L495.7,380.9 L496.5,387.3 L497.4,382.6 L498.2,384.3 L499.1,384.3 L499.9,380.9 L500.8,377.9 L501.6,385.9 L502.4,412.3 L503.3,420.0 L504.1,420.0 L505.0,420.0 L505.8,420.0 L506.6,420.0 L507.5,420.0 L508.3,420.0 L509.2,420.0 L510.0,420.0 L510.9,420.0 L511.7,420.0 L512.5,420.0 L513.4,420.0 L514.2,420.0 L515.1,407.3 L515.9,385.9 L516.7,380.3 L517.6,383.9 L518.4,385.9 L519.3,383.3 L520.1,377.2 L521.0,386.9 L521.8,392.6 L522.6,417.7 L523.5,420.0 L524.3,420.0 L525.2,420.0 L526.0,420.0 L526.8,420.0 L527.7,420.0 L528.5,420.0 L529.4,420.0 L530.2,420.0 L531.1,420.0 L531.9,420.0 L532.7,420.0 L533.6,420.0 L534.4,420.0 L535.3,416.3 L536.1,411.3 L536.9,400.3 L537.8,405.0 L538.6,396.0 L539.5,413.3 L540.3,410.3 L541.2,414.0 L542.0,414.7 L542.8,418.7 L543.7,420.0 L544.5,420.0 L545.4,420.0 L546.2,420.0 L547.0,420.0 L547.9,420.0 L548.7,420.0 L549.6,420.0 L550.4,420.0 L551.2,420.0 L552.1,420.0 L552.9,420.0 L553.8,420.0 L554.6,420.0 L555.5,409.0 L556.3,391.6 L557.1,391.9 L558.0,405.0 L558.8,382.6 L559.7,384.9 L560.5,390.9 L561.3,393.6 L562.2,411.0 L563.0,413.3 L563.9,420.0 L564.7,420.0 L565.6,420.0 L566.4,420.0 L567.2,420.0 L568.1,420.0 L568.9,420.0 L569.8,420.0 L570.6,420.0 L571.4,420.0 L572.3,420.0 L573.1,420.0 L574.0,420.0 L574.8,420.0 L575.7,418.0 L576.5,395.6 L577.3,397.0 L578.2,398.6 L579.0,396.6 L579.9,387.9 L580.7,391.3 L581.5,396.3 L582.4,400.3 L583.2,417.3 L584.1,420.0 L584.9,420.0 L585.8,420.0 L586.6,420.0 L587.4,420.0 L588.3,420.0 L589.1,420.0 L590.0,420.0 L590.8,420.0 L591.6,420.0 L592.5,420.0 L593.3,420.0 L594.2,420.0 L595.0,420.0 L595.8,409.3 L596.7,381.6 L597.5,387.3 L598.4,379.3 L599.2,385.6 L600.1,383.3 L600.9,379.9 L601.7,397.3 L602.6,390.6 L603.4,418.7 L604.3,420.0 L605.1,420.0 L605.9,420.0 L606.8,420.0 L607.6,420.0 L608.5,420.0 L609.3,420.0 L610.2,420.0 L611.0,420.0 L611.8,420.0 L612.7,420.0 L613.5,420.0 L614.4,420.0 L615.2,420.0 L616.0,415.7 L616.9,407.0 L617.7,406.3 L618.6,407.3 L619.4,390.9 L620.3,385.9 L621.1,394.6 L621.9,389.6 L622.8,396.6 L623.6,415.7 L624.5,420.0 L625.3,420.0 L626.1,420.0 L627.0,420.0 L627.8,420.0 L628.7,420.0 L629.5,420.0 L630.4,420.0 L631.2,420.0 L632.0,420.0 L632.9,420.0 L633.7,420.0 L634.6,420.0 L635.4,420.0 L636.2,410.3 L637.1,383.6 L637.9,380.9 L638.8,383.9 L639.6,386.6 L640.4,384.9 L641.3,379.3 L642.1,378.9 L643.0,390.3 L643.8,417.3 L644.7,420.0 L645.5,420.0 L646.3,420.0 L647.2,420.0 L648.0,420.0 L648.9,420.0 L649.7,420.0 L650.5,420.0 L651.4,420.0 L652.2,420.0 L653.1,420.0 L653.9,420.0 L654.8,420.0 L655.6,420.0 L656.4,410.6 L657.3,384.9 L658.1,380.6 L659.0,384.9 L659.8,391.6 L660.6,385.3 L661.5,382.3 L662.3,390.9 L663.2,408.6 L664.0,418.7 L664.9,420.0 L665.7,420.0 L666.5,420.0 L667.4,420.0 L668.2,420.0 L669.1,420.0 L669.9,420.0 L670.7,420.0 L671.6,420.0 L672.4,420.0 L673.3,420.0 L674.1,420.0 L675.0,420.0 L675.8,420.0 L676.6,417.3 L677.5,404.3 L678.3,399.6 L679.2,399.6 L680.0,394.9" stroke="#d62728" stroke-width="2" fill="none" opacity="0.8"/>
<!-- Forecast -->
<path d="M80.0,186.9 L80.8,194.5 L81.7,197.5 L82.5,199.9 L83.4,220.9 L84.2,256.0 L85.0,251.7 L85.9,252.3 L86.7,254.3 L87.6,252.3 L88.4,239.6 L89.3,207.9 L90.1,171.2 L90.9,155.1 L91.8,151.5 L92.6,150.5 L93.5,150.1 L94.3,153.1 L95.1,156.5 L96.0,157.1 L96.8,157.5 L97.7,155.1 L98.5,153.8 L99.4,152.5 L100.2,149.1 L101.0,151.5 L101.9,169.5 L102.7,194.9 L103.6,219.3 L104.4,232.0 L105.2,240.6 L106.1,246.0 L106.9,248.7 L107.8,250.0 L108.6,246.3 L109.5,231.3 L110.3,210.9 L111.1,191.2 L112.0,178.8 L112.8,170.5 L113.7,169.2 L114.5,173.2 L115.3,177.5 L116.2,180.8 L117.0,183.2 L117.9,184.2 L118.7,178.2 L119.6,173.5 L120.4,168.5 L121.2,173.5 L122.1,182.9 L122.9,200.2 L123.8,211.2 L124.6,229.3 L125.4,240.0 L126.3,244.3 L127.1,247.0 L128.0,247.0 L128.8,242.0 L129.6,226.6 L130.5,204.2 L131.3,185.2 L132.2,167.8 L133.0,154.1 L133.9,154.1 L134.7,155.1 L135.5,163.5 L136.4,168.2 L137.2,171.5 L138.1,164.8 L138.9,152.1 L139.7,144.8 L140.6,140.1 L141.4,149.1 L142.3,165.5 L143.1,185.9 L144.0,209.9 L144.8,222.9 L145.6,230.3 L146.5,235.6 L147.3,235.6 L148.2,232.3 L149.0,215.9 L149.8,181.2 L150.7,145.1 L151.5,131.1 L152.4,129.7 L153.2,133.4 L154.1,137.4 L154.9,144.4 L155.7,150.1 L156.6,152.8 L157.4,154.8 L158.3,153.5 L159.1,152.1 L159.9,150.5 L160.8,144.1 L161.6,150.5 L162.5,163.8 L163.3,188.2 L164.2,217.3 L165.0,229.3 L165.8,236.6 L166.7,242.6 L167.5,243.0 L168.4,239.6 L169.2,224.9 L170.0,191.5 L170.9,157.5 L171.7,142.8 L172.6,142.1 L173.4,145.1 L174.2,150.1 L175.1,154.5 L175.9,158.8 L176.8,159.8 L177.6,160.8 L178.5,157.1 L179.3,155.5 L180.1,154.1 L181.0,151.1 L181.8,155.8 L182.7,171.8 L183.5,196.2 L184.3,222.9 L185.2,235.3 L186.0,245.0 L186.9,251.0 L187.7,252.0 L188.6,249.3 L189.4,235.6 L190.2,202.2 L191.1,168.2 L191.9,182.5 L192.8,172.5 L193.6,152.1 L194.4,143.1 L195.3,143.8 L196.1,150.8 L197.0,160.8 L197.8,171.2 L198.7,185.2 L199.5,168.8 L200.3,179.8 L201.2,202.9 L202.0,210.6 L202.9,210.9 L203.7,210.2 L204.5,233.3 L205.4,251.3 L206.2,257.3 L207.1,255.0 L207.9,250.3 L208.8,247.3 L209.6,245.3 L210.4,219.6 L211.3,204.2 L212.1,204.2 L213.0,195.2 L213.8,181.5 L214.6,174.8 L215.5,173.5 L216.3,194.9 L217.2,197.5 L218.0,189.5 L218.8,185.5 L219.7,180.8 L220.5,162.5 L221.4,171.8 L222.2,177.5 L223.1,180.5 L223.9,211.9 L224.7,244.0 L225.6,248.7 L226.4,248.7 L227.3,253.7 L228.1,258.0 L228.9,261.0 L229.8,262.7 L230.6,238.0 L231.5,222.3 L232.3,219.3 L233.2,212.6 L234.0,167.2 L234.8,155.8 L235.7,155.1 L236.5,156.8 L237.4,158.1 L238.2,153.1 L239.0,151.8 L239.9,151.8 L240.7,153.5 L241.6,150.5 L242.4,150.5 L243.3,170.5 L244.1,197.9 L244.9,223.6 L245.8,236.3 L246.6,245.3 L247.5,251.0 L248.3,253.7 L249.1,255.3 L250.0,252.7 L250.8,239.3 L251.7,220.6 L252.5,203.2 L253.4,189.9 L254.2,183.2 L255.0,181.2 L255.9,186.5 L256.7,192.2 L257.6,191.5 L258.4,190.9 L259.2,198.9 L260.1,206.2 L260.9,215.9 L261.8,226.6 L262.6,228.3 L263.5,223.9 L264.3,216.3 L265.1,223.6 L266.0,211.2 L266.8,180.5 L267.7,169.8 L268.5,167.2 L269.3,166.2 L270.2,166.2 L271.0,165.5 L271.9,163.8 L272.7,161.1 L273.5,155.1 L274.4,143.8 L275.2,136.1 L276.1,132.8 L276.9,127.1 L277.8,128.1 L278.6,133.4 L279.4,145.4 L280.3,158.1 L281.1,150.1 L282.0,161.5 L282.8,173.2 L283.6,180.5 L284.5,211.9 L285.3,232.6 L286.2,231.0 L287.0,231.3 L287.9,232.3 L288.7,233.3 L289.5,235.0 L290.4,235.6 L291.2,209.9 L292.1,167.5 L292.9,157.1 L293.7,151.5 L294.6,139.8 L295.4,158.8 L296.3,164.5 L297.1,164.5 L298.0,164.8 L298.8,165.8 L299.6,170.2 L300.5,147.8 L301.3,145.4 L302.2,151.8 L303.0,152.5 L303.8,178.8 L304.7,187.5 L305.5,228.6 L306.4,240.6 L307.2,229.9 L308.1,230.3 L308.9,234.0 L309.7,237.6 L310.6,241.3 L311.4,236.0 L312.3,192.5 L313.1,182.2 L313.9,179.2 L314.8,173.5 L315.6,159.8 L316.5,153.5 L317.3,144.1 L318.1,150.8 L319.0,151.5 L319.8,150.1 L320.7,154.1 L321.5,141.1 L322.4,132.4 L323.2,141.1 L324.0,157.5 L324.9,182.5 L325.7,366.6 L326.6,233.6 L327.4,234.6 L328.2,237.0 L329.1,238.3 L329.9,236.0 L330.8,222.3 L331.6,187.9 L332.5,149.8 L333.3,133.4 L334.1,129.4 L335.0,130.4 L335.8,133.1 L336.7,139.1 L337.5,143.8 L338.3,147.8 L339.2,146.8 L340.0,142.8 L340.9,141.4 L341.7,137.8 L342.6,147.4 L343.4,163.5 L344.2,189.5 L345.1,212.6 L345.9,216.6 L346.8,228.9 L347.6,238.6 L348.4,244.3 L349.3,246.3 L350.1,243.6 L351.0,229.9 L351.8,196.9 L352.7,157.8 L353.5,139.1 L354.3,133.8 L355.2,134.1 L356.0,136.1 L356.9,141.8 L357.7,146.1 L358.5,149.8 L359.4,151.5 L360.2,149.8 L361.1,145.1 L361.9,142.8 L362.7,138.4 L363.6,147.4 L364.4,163.1 L365.3,188.5 L366.1,213.6 L367.0,228.6 L367.8,238.0 L368.6,244.0 L369.5,246.6 L370.3,244.0 L371.2,229.9 L372.0,197.9 L372.8,160.5 L373.7,143.4 L374.5,141.1 L375.4,142.8 L376.2,145.1 L377.1,150.8 L377.9,155.5 L378.7,157.1 L379.6,157.5 L380.4,155.8 L381.3,153.8 L382.1,150.8 L382.9,145.1 L383.8,152.8 L384.6,167.2 L385.5,191.5 L386.3,220.3 L387.2,226.9 L388.0,233.0 L388.8,238.3 L389.7,240.0 L390.5,240.3 L391.4,233.6 L392.2,219.6 L393.0,197.2 L393.9,179.2 L394.7,172.2 L395.6,165.8 L396.4,166.8 L397.3,172.8 L398.1,179.5 L398.9,184.2 L399.8,187.2 L400.6,188.9 L401.5,182.5 L402.3,175.2 L403.1,170.8 L404.0,176.2 L404.8,186.2 L405.7,203.2 L406.5,218.6 L407.3,226.3 L408.2,240.0 L409.0,246.6 L409.9,250.7 L410.7,251.3 L411.6,247.3 L412.4,235.0 L413.2,216.6 L414.1,199.6 L414.9,182.2 L415.8,175.2 L416.6,173.8 L417.4,174.2 L418.3,177.8 L419.1,179.5 L420.0,179.5 L420.8,172.2 L421.7,159.8 L422.5,153.1 L423.3,149.1 L424.2,156.8 L425.0,172.8 L425.9,194.9 L426.7,208.2 L427.5,229.3 L428.4,240.3 L429.2,246.3 L430.1,248.0 L430.9,245.3 L431.8,231.6 L432.6,198.6 L433.4,160.1 L434.3,141.8 L435.1,135.8 L436.0,135.8 L436.8,137.4 L437.6,142.1 L438.5,145.8 L439.3,149.1 L440.2,150.5 L441.0,147.1 L441.9,140.8 L442.7,138.1 L443.5,132.8 L444.4,140.8 L445.2,156.8 L446.1,181.9 L446.9,244.6 L447.7,233.6 L448.6,233.0 L449.4,240.3 L450.3,241.6 L451.1,238.0 L451.9,223.3 L452.8,191.9 L453.6,186.9 L454.5,187.5 L455.3,178.8 L456.2,161.1 L457.0,149.1 L457.8,146.1 L458.7,145.4 L459.5,147.1 L460.4,150.5 L461.2,159.5 L462.0,175.8 L462.9,176.8 L463.7,200.9 L464.6,170.5 L465.4,171.8 L466.3,195.9 L467.1,218.9 L467.9,234.0 L468.8,238.0 L469.6,241.3 L470.5,242.3 L471.3,239.6 L472.1,224.9 L473.0,192.5 L473.8,155.1 L474.7,139.1 L475.5,138.4 L476.4,143.1 L477.2,148.4 L478.0,155.1 L478.9,160.1 L479.7,161.8 L480.6,162.5 L481.4,159.5 L482.2,157.5 L483.1,155.1 L483.9,156.8 L484.8,160.1 L485.6,172.2 L486.5,196.2 L487.3,219.9 L488.1,235.6 L489.0,244.0 L489.8,249.7 L490.7,251.3 L491.5,249.7 L492.3,236.3 L493.2,224.9 L494.0,199.9 L494.9,192.5 L495.7,184.9 L496.5,167.8 L497.4,154.8 L498.2,150.8 L499.1,150.8 L499.9,150.5 L500.8,160.1 L501.6,160.5 L502.4,157.8 L503.3,154.8 L504.1,151.1 L505.0,158.1 L505.8,172.5 L506.6,197.2 L507.5,224.9 L508.3,237.6 L509.2,245.6 L510.0,251.3 L510.9,253.3 L511.7,251.0 L512.5,238.3 L513.4,206.9 L514.2,169.8 L515.1,152.8 L515.9,150.1 L516.7,151.8 L517.6,154.5 L518.4,159.1 L519.3,163.1 L520.1,164.8 L521.0,165.8 L521.8,162.1 L522.6,159.8 L523.5,158.8 L524.3,156.8 L525.2,162.1 L526.0,177.2 L526.8,200.9 L527.7,225.9 L528.5,234.6 L529.4,242.0 L530.2,248.3 L531.1,251.0 L531.9,252.3 L532.7,249.3 L533.6,236.0 L534.4,215.6 L535.3,197.2 L536.1,186.5 L536.9,180.8 L537.8,180.5 L538.6,186.2 L539.5,188.5 L540.3,189.9 L541.2,191.5 L542.0,189.9 L542.8,185.2 L543.7,181.5 L544.5,177.5 L545.4,181.5 L546.2,190.5 L547.0,207.9 L547.9,374.6 L548.7,282.4 L549.6,379.3 L550.4,420.0 L551.2,420.0 L552.1,420.0 L552.9,420.0 L553.8,420.0 L554.6,420.0 L555.5,420.0 L556.3,420.0 L557.1,420.0 L558.0,420.0 L558.8,420.0 L559.7,420.0 L560.5,420.0 L561.3,420.0 L562.2,420.0 L563.0,420.0 L563.9,420.0 L564.7,420.0 L565.6,420.0 L566.4,420.0 L567.2,420.0 L568.1,256.0 L568.9,371.9 L569.8,277.7 L570.6,240.3 L571.4,241.0 L572.3,239.0 L573.1,224.9 L574.0,193.5 L574.8,153.5 L575.7,136.8 L576.5,133.1 L577.3,135.4 L578.2,137.8 L579.0,142.1 L579.9,145.4 L580.7,149.1 L581.5,149.1 L582.4,144.1 L583.2,134.4 L584.1,130.1 L584.9,128.7 L585.8,136.8 L586.6,154.5 L587.4,180.8 L588.3,208.2 L589.1,219.9 L590.0,225.3 L590.8,231.3 L591.6,231.6 L592.5,228.6 L593.3,212.9 L594.2,180.2 L595.0,142.4 L595.8,128.4 L596.7,127.7 L597.5,132.1 L598.4,136.8 L599.2,142.1 L600.1,146.4 L600.9,150.8 L601.7,151.8 L602.6,147.1 L603.4,138.4 L604.3,133.4 L605.1,132.1 L605.9,139.8 L606.8,157.8 L607.6,184.2 L608.5,208.6 L609.3,226.3 L610.2,228.9 L611.0,234.0 L611.8,235.0 L612.7,234.3 L613.5,220.6 L614.4,190.2 L615.2,153.8 L616.0,138.1 L616.9,137.4 L617.7,141.8 L618.6,146.8 L619.4,152.8 L620.3,157.1 L621.1,159.5 L621.9,159.5 L622.8,156.5 L623.6,150.1 L624.5,145.4 L625.3,141.1 L626.1,149.1 L627.0,163.8 L627.8,188.5 L628.7,207.6 L629.5,224.6 L630.4,234.6 L631.2,239.6 L632.0,239.6 L632.9,236.3 L633.7,220.9 L634.6,189.5 L635.4,150.1 L636.2,133.4 L637.1,131.7 L637.9,136.8 L638.8,141.1 L639.6,146.8 L640.4,150.5 L641.3,154.5 L642.1,155.5 L643.0,150.5 L643.8,142.1 L644.7,136.1 L645.5,133.8 L646.3,141.8 L647.2,158.1 L648.0,183.9 L648.9,214.6 L649.7,225.3 L650.5,230.6 L651.4,236.0 L652.2,237.0 L653.1,234.0 L653.9,218.9 L654.8,186.9 L655.6,147.8 L656.4,132.4 L657.3,131.4 L658.1,136.4 L659.0,141.4 L659.8,147.4 L660.6,152.1 L661.5,156.8 L662.3,157.1 L663.2,153.5 L664.0,146.1 L664.9,142.8 L665.7,141.1 L666.5,151.5 L667.4,168.2 L668.2,194.5 L669.1,227.9 L669.9,233.3 L670.7,237.6 L671.6,244.6 L672.4,248.0 L673.3,250.0 L674.1,246.6 L675.0,234.3 L675.8,215.6 L676.6,196.5 L677.5,187.2 L678.3,181.5 L679.2,181.9 L680.0,182.5" stroke="#9467bd" stroke-width="2" fill="none" opacity="0.8"/>
<!-- Total Generation -->
<path d="M80.0,211.6 L80.8,206.6 L81.7,215.3 L82.5,218.9 L83.4,233.3 L84.2,226.6 L85.0,231.6 L85.9,255.7 L86.7,256.3 L87.6,244.3 L88.4,219.3 L89.3,221.6 L90.1,221.3 L90.9,200.6 L91.8,195.9 L92.6,188.9 L93.5,175.2 L94.3,188.5 L95.1,192.2 L96.0,206.2 L96.8,218.9 L97.7,190.2 L98.5,190.5 L99.4,169.8 L100.2,184.2 L101.0,200.2 L101.9,218.6 L102.7,210.6 L103.6,226.9 L104.4,220.3 L105.2,213.2 L106.1,224.9 L106.9,240.3 L107.8,218.6 L108.6,218.6 L109.5,191.5 L110.3,191.2 L111.1,229.3 L112.0,193.9 L112.8,208.6 L113.7,212.2 L114.5,189.9 L115.3,204.2 L116.2,209.2 L117.0,221.9 L117.9,226.9 L118.7,220.9 L119.6,210.6 L120.4,211.9 L121.2,215.3 L122.1,197.5 L122.9,192.5 L123.8,167.8 L124.6,165.5 L125.4,188.9 L126.3,197.9 L127.1,176.2 L128.0,178.5 L128.8,150.8 L129.6,131.7 L130.5,141.8 L131.3,144.8 L132.2,201.2 L133.0,196.5 L133.9,195.9 L134.7,190.2 L135.5,193.5 L136.4,206.9 L137.2,205.6 L138.1,195.2 L138.9,200.6 L139.7,218.6 L140.6,225.9 L141.4,224.6 L142.3,223.3 L143.1,221.6 L144.0,222.6 L144.8,217.3 L145.6,219.9 L146.5,215.3 L147.3,212.6 L148.2,217.3 L149.0,200.2 L149.8,189.9 L150.7,178.2 L151.5,184.2 L152.4,189.2 L153.2,185.2 L154.1,166.2 L154.9,142.8 L155.7,151.1 L156.6,157.8 L157.4,161.1 L158.3,135.1 L159.1,132.8 L159.9,185.2 L160.8,201.2 L161.6,212.9 L162.5,225.6 L163.3,217.9 L164.2,219.6 L165.0,216.6 L165.8,210.6 L166.7,221.9 L167.5,225.9 L168.4,215.6 L169.2,192.9 L170.0,196.2 L170.9,189.2 L171.7,203.2 L172.6,198.2 L173.4,206.6 L174.2,212.6 L175.1,220.3 L175.9,216.6 L176.8,214.6 L177.6,208.6 L178.5,207.9 L179.3,178.5 L180.1,186.9 L181.0,182.5 L181.8,192.2 L182.7,195.5 L183.5,201.2 L184.3,223.3 L185.2,229.6 L186.0,226.3 L186.9,239.0 L187.7,246.6 L188.6,225.9 L189.4,225.3 L190.2,188.9 L191.1,179.5 L191.9,173.8 L192.8,168.8 L193.6,160.1 L194.4,162.1 L195.3,199.9 L196.1,215.9 L197.0,219.3 L197.8,214.2 L198.7,220.3 L199.5,232.0 L200.3,214.6 L201.2,209.9 L202.0,199.2 L202.9,197.2 L203.7,199.9 L204.5,198.6 L205.4,198.2 L206.2,232.6 L207.1,234.0 L207.9,236.3 L208.8,224.9 L209.6,232.6 L210.4,227.6 L211.3,171.2 L212.1,174.5 L213.0,201.2 L213.8,202.6 L214.6,204.2 L215.5,199.9 L216.3,186.9 L217.2,142.1 L218.0,147.8 L218.8,168.2 L219.7,172.2 L220.5,179.8 L221.4,175.2 L222.2,181.9 L223.1,189.9 L223.9,190.9 L224.7,204.6 L225.6,211.9 L226.4,218.9 L227.3,247.3 L228.1,241.6 L228.9,234.0 L229.8,221.3 L230.6,222.3 L231.5,218.9 L232.3,217.3 L233.2,202.9 L234.0,166.8 L234.8,178.5 L235.7,174.2 L236.5,179.2 L237.4,201.6 L238.2,183.5 L239.0,179.2 L239.9,158.5 L240.7,190.2 L241.6,195.2 L242.4,208.9 L243.3,215.6 L244.1,224.6 L244.9,227.9 L245.8,235.3 L246.6,239.0 L247.5,232.0 L248.3,232.6 L249.1,233.3 L250.0,204.9 L250.8,208.9 L251.7,200.2 L252.5,223.3 L253.4,213.6 L254.2,216.9 L255.0,192.2 L255.9,211.9 L256.7,247.0 L257.6,217.9 L258.4,213.2 L259.2,211.6 L260.1,220.6 L260.9,198.9 L261.8,147.4 L262.6,133.8 L263.5,157.1 L264.3,184.9 L265.1,194.9 L266.0,188.2 L266.8,174.2 L267.7,183.2 L268.5,175.2 L269.3,157.1 L270.2,139.1 L271.0,138.8 L271.9,155.5 L272.7,182.5 L273.5,191.5 L274.4,155.5 L275.2,139.8 L276.1,129.7 L276.9,185.9 L277.8,183.5 L278.6,182.2 L279.4,170.2 L280.3,179.5 L281.1,170.2 L282.0,180.5 L282.8,183.5 L283.6,190.5 L284.5,184.5 L285.3,185.9 L286.2,194.9 L287.0,198.2 L287.9,219.3 L288.7,227.9 L289.5,228.3 L290.4,213.2 L291.2,208.6 L292.1,206.6 L292.9,222.9 L293.7,233.3 L294.6,239.0 L295.4,240.6 L296.3,243.3 L297.1,238.6 L298.0,239.3 L298.8,247.0 L299.6,250.0 L300.5,238.0 L301.3,244.0 L302.2,245.0 L303.0,257.3 L303.8,261.3 L304.7,257.7 L305.5,258.7 L306.4,261.3 L307.2,264.0 L308.1,264.4 L308.9,265.0 L309.7,264.7 L310.6,267.0 L311.4,265.7 L312.3,262.3 L313.1,264.0 L313.9,258.0 L314.8,249.7 L315.6,249.0 L316.5,246.3 L317.3,241.3 L318.1,241.6 L319.0,242.0 L319.8,248.7 L320.7,252.7 L321.5,254.0 L322.4,255.7 L323.2,248.0 L324.0,254.0 L324.9,251.3 L325.7,236.0 L326.6,219.9 L327.4,220.9 L328.2,218.9 L329.1,221.6 L329.9,219.9 L330.8,218.3 L331.6,222.6 L332.5,219.3 L333.3,284.7 L334.1,287.4 L335.0,285.1 L335.8,281.1 L336.7,274.0 L337.5,278.7 L338.3,280.7 L339.2,281.4 L340.0,280.7 L340.9,257.7 L341.7,260.7 L342.6,261.3 L343.4,217.3 L344.2,207.2 L345.1,197.9 L345.9,205.2 L346.8,195.5 L347.6,186.2 L348.4,193.5 L349.3,168.8 L350.1,142.8 L351.0,136.8 L351.8,130.4 L352.7,126.7 L353.5,191.2 L354.3,199.2 L355.2,201.9 L356.0,195.9 L356.9,181.2 L357.7,180.5 L358.5,199.6 L359.4,192.5 L360.2,170.2 L361.1,149.8 L361.9,118.7 L362.7,117.1 L363.6,153.8 L364.4,135.8 L365.3,127.1 L366.1,124.7 L367.0,126.7 L367.8,153.8 L368.6,158.1 L369.5,158.1 L370.3,140.8 L371.2,132.8 L372.0,91.7 L372.8,86.3 L373.7,134.1 L374.5,139.4 L375.4,109.7 L376.2,105.4 L377.1,120.1 L377.9,134.8 L378.7,133.4 L379.6,127.7 L380.4,170.8 L381.3,135.8 L382.1,82.3 L382.9,119.1 L383.8,176.8 L384.6,157.1 L385.5,186.2 L386.3,142.4 L387.2,134.4 L388.0,110.0 L388.8,147.1 L389.7,149.1 L390.5,155.5 L391.4,150.1 L392.2,162.5 L393.0,161.1 L393.9,133.1 L394.7,111.0 L395.6,109.7 L396.4,114.4 L397.3,130.7 L398.1,129.4 L398.9,138.8 L399.8,132.8 L400.6,131.4 L401.5,130.1 L402.3,176.5 L403.1,188.9 L404.0,164.1 L404.8,162.8 L405.7,167.5 L406.5,162.1 L407.3,151.8 L408.2,138.1 L409.0,139.1 L409.9,159.8 L410.7,151.5 L411.6,147.4 L412.4,172.8 L413.2,175.2 L414.1,185.2 L414.9,168.2 L415.8,157.1 L416.6,161.8 L417.4,156.8 L418.3,106.7 L419.1,149.8 L420.0,159.8 L420.8,118.1 L421.7,128.1 L422.5,98.3 L423.3,94.3 L424.2,110.7 L425.0,96.3 L425.9,131.4 L426.7,131.7 L427.5,141.4 L428.4,138.4 L429.2,138.8 L430.1,159.1 L430.9,151.5 L431.8,128.4 L432.6,90.3 L433.4,100.4 L434.3,89.7 L435.1,113.4 L436.0,87.3 L436.8,108.7 L437.6,104.7 L438.5,104.0 L439.3,144.1 L440.2,149.8 L441.0,142.1 L441.9,79.6 L442.7,83.7 L443.5,82.6 L444.4,85.7 L445.2,72.0 L446.1,75.6 L446.9,91.0 L447.7,131.1 L448.6,154.8 L449.4,164.1 L450.3,158.5 L451.1,154.5 L451.9,117.7 L452.8,77.0 L453.6,88.0 L454.5,103.0 L455.3,117.1 L456.2,135.8 L457.0,123.7 L457.8,132.4 L458.7,115.0 L459.5,104.7 L460.4,114.4 L461.2,105.7 L462.0,91.0 L462.9,138.1 L463.7,151.5 L464.6,170.8 L465.4,188.9 L466.3,197.9 L467.1,206.9 L467.9,201.9 L468.8,197.9 L469.6,182.5 L470.5,180.8 L471.3,178.8 L472.1,179.5 L473.0,184.9 L473.8,187.2 L474.7,182.5 L475.5,163.1 L476.4,158.8 L477.2,170.5 L478.0,162.8 L478.9,169.2 L479.7,163.1 L480.6,155.5 L481.4,195.9 L482.2,185.9 L483.1,195.9 L483.9,193.2 L484.8,205.2 L485.6,200.2 L486.5,202.9 L487.3,195.5 L488.1,182.9 L489.0,175.5 L489.8,140.1 L490.7,121.7 L491.5,98.3 L492.3,109.4 L493.2,100.7 L494.0,80.0 L494.9,70.0 L495.7,72.6 L496.5,112.4 L497.4,118.4 L498.2,131.7 L499.1,136.4 L499.9,117.4 L500.8,111.7 L501.6,101.0 L502.4,125.1 L503.3,111.4 L504.1,141.1 L505.0,119.7 L505.8,110.0 L506.6,113.0 L507.5,136.1 L508.3,137.1 L509.2,125.4 L510.0,99.0 L510.9,97.3 L511.7,93.0 L512.5,101.0 L513.4,95.3 L514.2,85.0 L515.1,99.4 L515.9,100.7 L516.7,79.3 L517.6,107.0 L518.4,123.7 L519.3,121.1 L520.1,128.1 L521.0,148.8 L521.8,153.1 L522.6,173.2 L523.5,179.8 L524.3,180.8 L525.2,196.5 L526.0,195.9 L526.8,162.5 L527.7,151.5 L528.5,152.1 L529.4,154.1 L530.2,161.1 L531.1,166.2 L531.9,163.5 L532.7,165.5 L533.6,174.2 L534.4,177.8 L535.3,184.5 L536.1,164.5 L536.9,165.5 L537.8,178.2 L538.6,164.5 L539.5,196.9 L540.3,186.2 L541.2,190.9 L542.0,151.1 L542.8,154.5 L543.7,189.2 L544.5,207.2 L545.4,186.9 L546.2,162.1 L547.0,136.1 L547.9,144.8 L548.7,148.1 L549.6,153.1 L550.4,131.7 L551.2,145.1 L552.1,159.1 L552.9,149.1 L553.8,114.4 L554.6,110.4 L555.5,101.4 L556.3,91.7 L557.1,74.3 L558.0,82.0 L558.8,84.0 L559.7,86.0 L560.5,137.1 L561.3,130.7 L562.2,91.7 L563.0,102.4 L563.9,138.4 L564.7,166.2 L565.6,187.5 L566.4,184.2 L567.2,185.5 L568.1,185.9 L568.9,184.2 L569.8,178.8 L570.6,164.5 L571.4,146.8 L572.3,141.4 L573.1,127.1 L574.0,81.3 L574.8,108.7 L575.7,102.0 L576.5,67.6 L577.3,74.0 L578.2,85.7 L579.0,87.7 L579.9,78.3 L580.7,91.0 L581.5,86.7 L582.4,81.0 L583.2,93.7 L584.1,110.7 L584.9,109.4 L585.8,83.3 L586.6,101.4 L587.4,109.0 L588.3,140.1 L589.1,132.1 L590.0,133.1 L590.8,113.4 L591.6,114.0 L592.5,111.0 L593.3,117.7 L594.2,131.7 L595.0,163.1 L595.8,190.5 L596.7,152.5 L597.5,133.1 L598.4,140.1 L599.2,156.1 L600.1,165.5 L600.9,163.5 L601.7,198.9 L602.6,194.5 L603.4,201.6 L604.3,196.2 L605.1,207.6 L605.9,201.6 L606.8,205.9 L607.6,209.2 L608.5,197.2 L609.3,192.5 L610.2,185.5 L611.0,216.6 L611.8,215.3 L612.7,213.2 L613.5,205.6 L614.4,182.2 L615.2,170.2 L616.0,164.1 L616.9,185.2 L617.7,190.2 L618.6,170.5 L619.4,110.7 L620.3,115.7 L621.1,128.4 L621.9,123.7 L622.8,127.1 L623.6,145.8 L624.5,153.8 L625.3,148.8 L626.1,131.4 L627.0,137.4 L627.8,138.8 L628.7,150.8 L629.5,170.2 L630.4,175.5 L631.2,171.2 L632.0,173.5 L632.9,163.5 L633.7,153.8 L634.6,167.8 L635.4,172.2 L636.2,201.9 L637.1,185.2 L637.9,169.2 L638.8,183.2 L639.6,188.5 L640.4,202.9 L641.3,207.9 L642.1,191.9 L643.0,200.6 L643.8,200.2 L644.7,187.9 L645.5,183.9 L646.3,194.9 L647.2,205.6 L648.0,215.9 L648.9,212.9 L649.7,210.9 L650.5,210.6 L651.4,210.6 L652.2,207.9 L653.1,204.9 L653.9,204.2 L654.8,205.9 L655.6,207.6 L656.4,209.2 L657.3,199.2 L658.1,203.9 L659.0,208.9 L659.8,219.3 L660.6,214.2 L661.5,200.2 L662.3,208.2 L663.2,225.3 L664.0,189.5 L664.9,180.5 L665.7,221.3 L666.5,234.3 L667.4,227.6 L668.2,210.9 L669.1,175.2 L669.9,179.5 L670.7,164.1 L671.6,168.2 L672.4,167.5 L673.3,130.4 L674.1,136.8 L675.0,148.8 L675.8,141.4 L676.6,132.1 L677.5,117.1 L678.3,120.1 L679.2,119.1 L680.0,149.1" stroke="#8c564b" stroke-width="2" fill="none" opacity="0.8"/>
<!-- Forecast Difference -->
<path d="M80.0,420.0 L80.8,420.0 L81.7,420.0 L82.5,420.0 L83.4,420.0 L84.2,420.0 L85.0,420.0 L85.9,420.0 L86.7,420.0 L87.6,420.0 L88.4,420.0 L89.3,420.0 L90.1,420.0 L90.9,420.0 L91.8,420.0 L92.6,420.0 L93.5,420.0 L94.3,420.0 L95.1,420.0 L96.0,420.0 L96.8,420.0 L97.7,420.0 L98.5,420.0 L99.4,420.0 L100.2,420.0 L101.0,420.0 L101.9,420.0 L102.7,420.0 L103.6,420.0 L104.4,420.0 L105.2,420.0 L106.1,420.0 L106.9,420.0 L107.8,420.0 L108.6,420.0 L109.5,420.0 L110.3,420.0 L111.1,420.0 L112.0,420.0 L112.8,420.0 L113.7,420.0 L114.5,420.0 L115.3,420.0 L116.2,420.0 L117.0,420.0 L117.9,420.0 L118.7,420.0 L119.6,420.0 L120.4,420.0 L121.2,420.0 L122.1,420.0 L122.9,420.0 L123.8,420.0 L124.6,420.0 L125.4,420.0 L126.3,420.0 L127.1,420.0 L128.0,420.0 L128.8,420.0 L129.6,420.0 L130.5,420.0 L131.3,420.0 L132.2,420.0 L133.0,420.0 L133.9,420.0 L134.7,420.0 L135.5,420.0 L136.4,420.0 L137.2,420.0 L138.1,420.0 L138.9,420.0 L139.7,420.0 L140.6,420.0 L141.4,420.0 L142.3,420.0 L143.1,420.0 L144.0,420.0 L144.8,420.0 L145.6,420.0 L146.5,420.0 L147.3,420.0 L148.2,420.0 L149.0,420.0 L149.8,420.0 L150.7,420.0 L151.5,420.0 L152.4,420.0 L153.2,420.0 L154.1,420.0 L154.9,420.0 L155.7,420.0 L156.6,420.0 L157.4,420.0 L158.3,420.0 L159.1,420.0 L159.9,420.0 L160.8,420.0 L161.6,420.0 L162.5,420.0 L163.3,420.0 L164.2,420.0 L165.0,420.0 L165.8,420.0 L166.7,420.0 L167.5,420.0 L168.4,420.0 L169.2,420.0 L170.0,420.0 L170.9,420.0 L171.7,420.0 L172.6,420.0 L173.4,420.0 L174.2,420.0 L175.1,420.0 L175.9,420.0 L176.8,420.0 L177.6,420.0 L178.5,420.0 L179.3,420.0 L180.1,420.0 L181.0,420.0 L181.8,420.0 L182.7,420.0 L183.5,420.0 L184.3,420.0 L185.2,420.0 L186.0,420.0 L186.9,420.0 L187.7,420.0 L188.6,420.0 L189.4,420.0 L190.2,420.0 L191.1,420.0 L191.9,420.0 L192.8,420.0 L193.6,420.0 L194.4,420.0 L195.3,420.0 L196.1,420.0 L197.0,420.0 L197.8,420.0 L198.7,420.0 L199.5,420.0 L200.3,420.0 L201.2,420.0 L202.0,420.0 L202.9,420.0 L203.7,420.0 L204.5,420.0 L205.4,420.0 L206.2,420.0 L207.1,420.0 L207.9,420.0 L208.8,420.0 L209.6,420.0 L210.4,420.0 L211.3,420.0 L212.1,420.0 L213.0,420.0 L213.8,420.0 L214.6,420.0 L215.5,420.0 L216.3,420.0 L217.2,420.0 L218.0,420.0 L218.8,420.0 L219.7,420.0 L220.5,420.0 L221.4,420.0 L222.2,420.0 L223.1,420.0 L223.9,420.0 L224.7,420.0 L225.6,420.0 L226.4,420.0 L227.3,420.0 L228.1,420.0 L228.9,420.0 L229.8,420.0 L230.6,420.0 L231.5,420.0 L232.3,420.0 L233.2,420.0 L234.0,420.0 L234.8,420.0 L235.7,420.0 L236.5,420.0 L237.4,420.0 L238.2,420.0 L239.0,420.0 L239.9,420.0 L240.7,420.0 L241.6,420.0 L242.4,420.0 L243.3,420.0 L244.1,420.0 L244.9,420.0 L245.8,420.0 L246.6,420.0 L247.5,420.0 L248.3,420.0 L249.1,420.0 L250.0,420.0 L250.8,420.0 L251.7,420.0 L252.5,420.0 L253.4,420.0 L254.2,420.0 L255.0,420.0 L255.9,420.0 L256.7,420.0 L257.6,420.0 L258.4,420.0 L259.2,420.0 L260.1,420.0 L260.9,420.0 L261.8,420.0 L262.6,420.0 L263.5,420.0 L264.3,420.0 L265.1,420.0 L266.0,420.0 L266.8,420.0 L267.7,420.0 L268.5,420.0 L269.3,420.0 L270.2,420.0 L271.0,420.0 L271.9,420.0 L272.7,420.0 L273.5,420.0 L274.4,420.0 L275.2,420.0 L276.1,420.0 L276.9,420.0 L277.8,420.0 L278.6,420.0 L279.4,420.0 L280.3,420.0 L281.1,420.0 L282.0,420.0 L282.8,420.0 L283.6,420.0 L284.5,420.0 L285.3,420.0 L286.2,420.0 L287.0,420.0 L287.9,420.0 L288.7,420.0 L289.5,420.0 L290.4,420.0 L291.2,420.0 L292.1,420.0 L292.9,420.0 L293.7,420.0 L294.6,420.0 L295.4,420.0 L296.3,420.0 L297.1,420.0 L298.0,420.0 L298.8,420.0 L299.6,420.0 L300.5,420.0 L301.3,420.0 L302.2,420.0 L303.0,420.0 L303.8,420.0 L304.7,420.0 L305.5,420.0 L306.4,420.0 L307.2,420.0 L308.1,420.0 L308.9,420.0 L309.7,420.0 L310.6,420.0 L311.4,420.0 L312.3,420.0 L313.1,420.0 L313.9,420.0 L314.8,420.0 L315.6,420.0 L316.5,420.0 L317.3,420.0 L318.1,420.0 L319.0,420.0 L319.8,420.0 L320.7,420.0 L321.5,420.0 L322.4,420.0 L323.2,420.0 L324.0,420.0 L324.9,420.0 L325.7,420.0 L326.6,420.0 L327.4,420.0 L328.2,420.0 L329.1,420.0 L329.9,420.0 L330.8,420.0 L331.6,420.0 L332.5,420.0 L333.3,420.0 L334.1,420.0 L335.0,420.0 L335.8,420.0 L336.7,420.0 L337.5,420.0 L338.3,420.0 L339.2,420.0 L340.0,420.0 L340.9,420.0 L341.7,420.0 L342.6,420.0 L343.4,420.0 L344.2,420.0 L345.1,420.0 L345.9,420.0 L346.8,420.0 L347.6,420.0 L348.4,420.0 L349.3,420.0 L350.1,420.0 L351.0,420.0 L351.8,420.0 L352.7,420.0 L353.5,420.0 L354.3,420.0 L355.2,420.0 L356.0,420.0 L356.9,420.0 L357.7,420.0 L358.5,420.0 L359.4,420.0 L360.2,420.0 L361.1,420.0 L361.9,420.0 L362.7,420.0 L363.6,420.0 L364.4,420.0 L365.3,420.0 L366.1,420.0 L367.0,420.0 L367.8,420.0 L368.6,420.0 L369.5,420.0 L370.3,420.0 L371.2,420.0 L372.0,420.0 L372.8,420.0 L373.7,420.0 L374.5,420.0 L375.4,420.0 L376.2,420.0 L377.1,420.0 L377.9,420.0 L378.7,420.0 L379.6,420.0 L380.4,420.0 L381.3,420.0 L382.1,420.0 L382.9,420.0 L383.8,420.0 L384.6,420.0 L385.5,420.0 L386.3,420.0 L387.2,420.0 L388.0,420.0 L388.8,420.0 L389.7,420.0 L390.5,420.0 L391.4,420.0 L392.2,420.0 L393.0,420.0 L393.9,420.0 L394.7,420.0 L395.6,420.0 L396.4,420.0 L397.3,420.0 L398.1,420.0 L398.9,420.0 L399.8,420.0 L400.6,420.0 L401.5,420.0 L402.3,420.0 L403.1,420.0 L404.0,420.0 L404.8,420.0 L405.7,420.0 L406.5,420.0 L407.3,420.0 L408.2,420.0 L409.0,420.0 L409.9,420.0 L410.7,420.0 L411.6,420.0 L412.4,420.0 L413.2,420.0 L414.1,420.0 L414.9,420.0 L415.8,420.0 L416.6,420.0 L417.4,420.0 L418.3,420.0 L419.1,420.0 L420.0,420.0 L420.8,420.0 L421.7,420.0 L422.5,420.0 L423.3,420.0 L424.2,420.0 L425.0,420.0 L425.9,420.0 L426.7,420.0 L427.5,420.0 L428.4,420.0 L429.2,420.0 L430.1,420.0 L430.9,420.0 L431.8,420.0 L432.6,420.0 L433.4,420.0 L434.3,420.0 L435.1,420.0 L436.0,420.0 L436.8,420.0 L437.6,420.0 L438.5,420.0 L439.3,420.0 L440.2,420.0 L441.0,420.0 L441.9,420.0 L442.7,420.0 L443.5,420.0 L444.4,420.0 L445.2,420.0 L446.1,420.0 L446.9,420.0 L447.7,420.0 L448.6,420.0 L449.4,420.0 L450.3,420.0 L451.1,420.0 L451.9,420.0 L452.8,420.0 L453.6,420.0 L454.5,420.0 L455.3,420.0 L456.2,420.0 L457.0,420.0 L457.8,420.0 L458.7,420.0 L459.5,420.0 L460.4,420.0 L461.2,420.0 L462.0,420.0 L462.9,420.0 L463.7,420.0 L464.6,420.0 L465.4,420.0 L466.3,420.0 L467.1,420.0 L467.9,420.0 L468.8,420.0 L469.6,420.0 L470.5,420.0 L471.3,420.0 L472.1,420.0 L473.0,420.0 L473.8,420.0 L474.7,420.0 L475.5,420.0 L476.4,420.0 L477.2,420.0 L478.0,420.0 L478.9,420.0 L479.7,420.0 L480.6,420.0 L481.4,420.0 L482.2,420.0 L483.1,420.0 L483.9,420.0 L484.8,420.0 L485.6,420.0 L486.5,420.0 L487.3,420.0 L488.1,420.0 L489.0,420.0 L489.8,420.0 L490.7,420.0 L491.5,420.0 L492.3,420.0 L493.2,420.0 L494.0,420.0 L494.9,420.0 L495.7,420.0 L496.5,420.0 L497.4,420.0 L498.2,420.0 L499.1,420.0 L499.9,420.0 L500.8,420.0 L501.6,420.0 L502.4,420.0 L503.3,420.0 L504.1,420.0 L505.0,420.0 L505.8,420.0 L506.6,420.0 L507.5,420.0 L508.3,420.0 L509.2,420.0 L510.0,420.0 L510.9,420.0 L511.7,420.0 L512.5,420.0 L513.4,420.0 L514.2,420.0 L515.1,420.0 L515.9,420.0 L516.7,420.0 L517.6,420.0 L518.4,420.0 L519.3,420.0 L520.1,420.0 L521.0,420.0 L521.8,420.0 L522.6,420.0 L523.5,420.0 L524.3,420.0 L525.2,420.0 L526.0,420.0 L526.8,420.0 L527.7,420.0 L528.5,420.0 L529.4,420.0 L530.2,420.0 L531.1,420.0 L531.9,420.0 L532.7,420.0 L533.6,420.0 L534.4,420.0 L535.3,420.0 L536.1,420.0 L536.9,420.0 L537.8,420.0 L538.6,420.0 L539.5,420.0 L540.3,420.0 L541.2,420.0 L542.0,420.0 L542.8,420.0 L543.7,420.0 L544.5,420.0 L545.4,420.0 L546.2,420.0 L547.0,420.0 L547.9,420.0 L548.7,420.0 L549.6,420.0 L550.4,420.0 L551.2,420.0 L552.1,420.0 L552.9,420.0 L553.8,420.0 L554.6,420.0 L555.5,420.0 L556.3,420.0 L557.1,420.0 L558.0,420.0 L558.8,420.0 L559.7,420.0 L560.5,420.0 L561.3,420.0 L562.2,420.0 L563.0,420.0 L563.9,420.0 L564.7,420.0 L565.6,420.0 L566.4,420.0 L567.2,420.0 L568.1,420.0 L568.9,420.0 L569.8,420.0 L570.6,420.0 L571.4,420.0 L572.3,420.0 L573.1,420.0 L574.0,420.0 L574.8,420.0 L575.7,420.0 L576.5,420.0 L577.3,420.0 L578.2,420.0 L579.0,420.0 L579.9,420.0 L580.7,420.0 L581.5,420.0 L582.4,420.0 L583.2,420.0 L584.1,420.0 L584.9,420.0 L585.8,420.0 L586.6,420.0 L587.4,420.0 L588.3,420.0 L589.1,420.0 L590.0,420.0 L590.8,420.0 L591.6,420.0 L592.5,420.0 L593.3,420.0 L594.2,420.0 L595.0,420.0 L595.8,420.0 L596.7,420.0 L597.5,420.0 L598.4,420.0 L599.2,420.0 L600.1,420.0 L600.9,420.0 L601.7,420.0 L602.6,420.0 L603.4,420.0 L604.3,420.0 L605.1,420.0 L605.9,420.0 L606.8,420.0 L607.6,420.0 L608.5,420.0 L609.3,420.0 L610.2,420.0 L611.0,420.0 L611.8,420.0 L612.7,420.0 L613.5,420.0 L614.4,420.0 L615.2,420.0 L616.0,420.0 L616.9,420.0 L617.7,420.0 L618.6,420.0 L619.4,420.0 L620.3,420.0 L621.1,420.0 L621.9,420.0 L622.8,420.0 L623.6,420.0 L624.5,420.0 L625.3,420.0 L626.1,420.0 L627.0,420.0 L627.8,420.0 L628.7,420.0 L629.5,420.0 L630.4,420.0 L631.2,420.0 L632.0,420.0 L632.9,420.0 L633.7,420.0 L634.6,420.0 L635.4,420.0 L636.2,420.0 L637.1,420.0 L637.9,420.0 L638.8,420.0 L639.6,420.0 L640.4,420.0 L641.3,420.0 L642.1,420.0 L643.0,420.0 L643.8,420.0 L644.7,420.0 L645.5,420.0 L646.3,420.0 L647.2,420.0 L648.0,420.0 L648.9,420.0 L649.7,420.0 L650.5,420.0 L651.4,420.0 L652.2,420.0 L653.1,420.0 L653.9,420.0 L654.8,420.0 L655.6,420.0 L656.4,420.0 L657.3,420.0 L658.1,420.0 L659.0,420.0 L659.8,420.0 L660.6,420.0 L661.5,420.0 L662.3,420.0 L663.2,420.0 L664.0,420.0 L664.9,420.0 L665.7,420.0 L666.5,420.0 L667.4,420.0 L668.2,420.0 L669.1,420.0 L669.9,420.0 L670.7,420.0 L671.6,420.0 L672.4,420.0 L673.3,420.0 L674.1,420.0 L675.0,420.0 L675.8,420.0 L676.6,420.0 L677.5,420.0 L678.3,420.0 L679.2,420.0 L680.0,420.0" stroke="#e377c2" stroke-width="2" fill="none" opacity="0.8"/>

<!-- Legend -->
<line x1="690" y1="70" x2="705" y2="70" stroke="#1f77b4" stroke-width="3"/>
<text x="710" y="74" class="legend">Wind Generation</text>
<line x1="690" y1="88" x2="705" y2="88" stroke="#ff7f0e" stroke-width="3"/>
<text x="710" y="92" class="legend">Hydro Generation</text>
<line x1="690" y1="106" x2="705" y2="106" stroke="#2ca02c" stroke-width="3"/>
<text x="710" y="110" class="legend">Thermal Generation</text>
<line x1="690" y1="124" x2="705" y2="124" stroke="#d62728" stroke-width="3"/>
<text x="710" y="128" class="legend">Solar Generation</text>
<line x1="690" y1="142" x2="705" y2="142" stroke="#9467bd" stroke-width="3"/>
<text x="710" y="146" class="legend">Forecast</text>
<line x1="690" y1="160" x2="705" y2="160" stroke="#8c564b" stroke-width="3"/>
<text x="710" y="164" class="legend">Total Generation</text>
<line x1="690" y1="178" x2="705" y2="178" stroke="#e377c2" stroke-width="3"/>
<text x="710" y="182" class="legend">Forecast Difference</text>

<!-- Date range -->
<text x="80" y="495" class="legend">Range: 10/02 - 11/01/2025 (714 records)</text>
</svg>